<?xml version="1.0" encoding="utf-8" standalone="no"?>
<!DOCTYPE svg PUBLIC "-//W3C//DTD SVG 1.1//EN"
  "http://www.w3.org/Graphics/SVG/1.1/DTD/svg11.dtd">
<!-- Created with matplotlib (https://matplotlib.org/) -->
<svg height="360pt" version="1.1" viewBox="0 0 720 360" width="720pt" xmlns="http://www.w3.org/2000/svg" xmlns:xlink="http://www.w3.org/1999/xlink">
 <defs>
  <style type="text/css">
*{stroke-linecap:butt;stroke-linejoin:round;}
  </style>
 </defs>
 <g id="figure_1">
  <g id="patch_1">
   <path d="M 0 360 
L 720 360 
L 720 0 
L 0 0 
z
" style="fill:#ffffff;"/>
  </g>
  <g id="axes_1">
   <g id="patch_2">
    <path d="M 90 315 
L 648 315 
L 648 43.2 
L 90 43.2 
z
" style="fill:#ffffff;"/>
   </g>
   <g id="matplotlib.axis_1">
    <g id="xtick_1">
     <g id="line2d_1">
      <path clip-path="url(#pb33a9a8c0f)" d="M 115.363636 315 
L 115.363636 43.2 
" style="fill:none;stroke:#b0b0b0;stroke-linecap:square;stroke-width:0.8;"/>
     </g>
     <g id="line2d_2">
      <defs>
       <path d="M 0 0 
L 0 3.5 
" id="m14aeeeb762" style="stroke:#000000;stroke-width:0.8;"/>
      </defs>
      <g>
       <use style="stroke:#000000;stroke-width:0.8;" x="115.363636" xlink:href="#m14aeeeb762" y="315"/>
      </g>
     </g>
     <g id="text_1">
      <!-- 0 -->
      <defs>
       <path d="M 31.78125 66.40625 
Q 24.171875 66.40625 20.328125 58.90625 
Q 16.5 51.421875 16.5 36.375 
Q 16.5 21.390625 20.328125 13.890625 
Q 24.171875 6.390625 31.78125 6.390625 
Q 39.453125 6.390625 43.28125 13.890625 
Q 47.125 21.390625 47.125 36.375 
Q 47.125 51.421875 43.28125 58.90625 
Q 39.453125 66.40625 31.78125 66.40625 
z
M 31.78125 74.21875 
Q 44.046875 74.21875 50.515625 64.515625 
Q 56.984375 54.828125 56.984375 36.375 
Q 56.984375 17.96875 50.515625 8.265625 
Q 44.046875 -1.421875 31.78125 -1.421875 
Q 19.53125 -1.421875 13.0625 8.265625 
Q 6.59375 17.96875 6.59375 36.375 
Q 6.59375 54.828125 13.0625 64.515625 
Q 19.53125 74.21875 31.78125 74.21875 
z
" id="DejaVuSans-48"/>
      </defs>
      <g transform="translate(112.182386 329.598437)scale(0.1 -0.1)">
       <use xlink:href="#DejaVuSans-48"/>
      </g>
     </g>
    </g>
    <g id="xtick_2">
     <g id="line2d_3">
      <path clip-path="url(#pb33a9a8c0f)" d="M 210.895223 315 
L 210.895223 43.2 
" style="fill:none;stroke:#b0b0b0;stroke-linecap:square;stroke-width:0.8;"/>
     </g>
     <g id="line2d_4">
      <g>
       <use style="stroke:#000000;stroke-width:0.8;" x="210.895223" xlink:href="#m14aeeeb762" y="315"/>
      </g>
     </g>
     <g id="text_2">
      <!-- 200 -->
      <defs>
       <path d="M 19.1875 8.296875 
L 53.609375 8.296875 
L 53.609375 0 
L 7.328125 0 
L 7.328125 8.296875 
Q 12.9375 14.109375 22.625 23.890625 
Q 32.328125 33.6875 34.8125 36.53125 
Q 39.546875 41.84375 41.421875 45.53125 
Q 43.3125 49.21875 43.3125 52.78125 
Q 43.3125 58.59375 39.234375 62.25 
Q 35.15625 65.921875 28.609375 65.921875 
Q 23.96875 65.921875 18.8125 64.3125 
Q 13.671875 62.703125 7.8125 59.421875 
L 7.8125 69.390625 
Q 13.765625 71.78125 18.9375 73 
Q 24.125 74.21875 28.421875 74.21875 
Q 39.75 74.21875 46.484375 68.546875 
Q 53.21875 62.890625 53.21875 53.421875 
Q 53.21875 48.921875 51.53125 44.890625 
Q 49.859375 40.875 45.40625 35.40625 
Q 44.1875 33.984375 37.640625 27.21875 
Q 31.109375 20.453125 19.1875 8.296875 
z
" id="DejaVuSans-50"/>
      </defs>
      <g transform="translate(201.351473 329.598437)scale(0.1 -0.1)">
       <use xlink:href="#DejaVuSans-50"/>
       <use x="63.623047" xlink:href="#DejaVuSans-48"/>
       <use x="127.246094" xlink:href="#DejaVuSans-48"/>
      </g>
     </g>
    </g>
    <g id="xtick_3">
     <g id="line2d_5">
      <path clip-path="url(#pb33a9a8c0f)" d="M 306.42681 315 
L 306.42681 43.2 
" style="fill:none;stroke:#b0b0b0;stroke-linecap:square;stroke-width:0.8;"/>
     </g>
     <g id="line2d_6">
      <g>
       <use style="stroke:#000000;stroke-width:0.8;" x="306.42681" xlink:href="#m14aeeeb762" y="315"/>
      </g>
     </g>
     <g id="text_3">
      <!-- 400 -->
      <defs>
       <path d="M 37.796875 64.3125 
L 12.890625 25.390625 
L 37.796875 25.390625 
z
M 35.203125 72.90625 
L 47.609375 72.90625 
L 47.609375 25.390625 
L 58.015625 25.390625 
L 58.015625 17.1875 
L 47.609375 17.1875 
L 47.609375 0 
L 37.796875 0 
L 37.796875 17.1875 
L 4.890625 17.1875 
L 4.890625 26.703125 
z
" id="DejaVuSans-52"/>
      </defs>
      <g transform="translate(296.88306 329.598437)scale(0.1 -0.1)">
       <use xlink:href="#DejaVuSans-52"/>
       <use x="63.623047" xlink:href="#DejaVuSans-48"/>
       <use x="127.246094" xlink:href="#DejaVuSans-48"/>
      </g>
     </g>
    </g>
    <g id="xtick_4">
     <g id="line2d_7">
      <path clip-path="url(#pb33a9a8c0f)" d="M 401.958398 315 
L 401.958398 43.2 
" style="fill:none;stroke:#b0b0b0;stroke-linecap:square;stroke-width:0.8;"/>
     </g>
     <g id="line2d_8">
      <g>
       <use style="stroke:#000000;stroke-width:0.8;" x="401.958398" xlink:href="#m14aeeeb762" y="315"/>
      </g>
     </g>
     <g id="text_4">
      <!-- 600 -->
      <defs>
       <path d="M 33.015625 40.375 
Q 26.375 40.375 22.484375 35.828125 
Q 18.609375 31.296875 18.609375 23.390625 
Q 18.609375 15.53125 22.484375 10.953125 
Q 26.375 6.390625 33.015625 6.390625 
Q 39.65625 6.390625 43.53125 10.953125 
Q 47.40625 15.53125 47.40625 23.390625 
Q 47.40625 31.296875 43.53125 35.828125 
Q 39.65625 40.375 33.015625 40.375 
z
M 52.59375 71.296875 
L 52.59375 62.3125 
Q 48.875 64.0625 45.09375 64.984375 
Q 41.3125 65.921875 37.59375 65.921875 
Q 27.828125 65.921875 22.671875 59.328125 
Q 17.53125 52.734375 16.796875 39.40625 
Q 19.671875 43.65625 24.015625 45.921875 
Q 28.375 48.1875 33.59375 48.1875 
Q 44.578125 48.1875 50.953125 41.515625 
Q 57.328125 34.859375 57.328125 23.390625 
Q 57.328125 12.15625 50.6875 5.359375 
Q 44.046875 -1.421875 33.015625 -1.421875 
Q 20.359375 -1.421875 13.671875 8.265625 
Q 6.984375 17.96875 6.984375 36.375 
Q 6.984375 53.65625 15.1875 63.9375 
Q 23.390625 74.21875 37.203125 74.21875 
Q 40.921875 74.21875 44.703125 73.484375 
Q 48.484375 72.75 52.59375 71.296875 
z
" id="DejaVuSans-54"/>
      </defs>
      <g transform="translate(392.414648 329.598437)scale(0.1 -0.1)">
       <use xlink:href="#DejaVuSans-54"/>
       <use x="63.623047" xlink:href="#DejaVuSans-48"/>
       <use x="127.246094" xlink:href="#DejaVuSans-48"/>
      </g>
     </g>
    </g>
    <g id="xtick_5">
     <g id="line2d_9">
      <path clip-path="url(#pb33a9a8c0f)" d="M 497.489985 315 
L 497.489985 43.2 
" style="fill:none;stroke:#b0b0b0;stroke-linecap:square;stroke-width:0.8;"/>
     </g>
     <g id="line2d_10">
      <g>
       <use style="stroke:#000000;stroke-width:0.8;" x="497.489985" xlink:href="#m14aeeeb762" y="315"/>
      </g>
     </g>
     <g id="text_5">
      <!-- 800 -->
      <defs>
       <path d="M 31.78125 34.625 
Q 24.75 34.625 20.71875 30.859375 
Q 16.703125 27.09375 16.703125 20.515625 
Q 16.703125 13.921875 20.71875 10.15625 
Q 24.75 6.390625 31.78125 6.390625 
Q 38.8125 6.390625 42.859375 10.171875 
Q 46.921875 13.96875 46.921875 20.515625 
Q 46.921875 27.09375 42.890625 30.859375 
Q 38.875 34.625 31.78125 34.625 
z
M 21.921875 38.8125 
Q 15.578125 40.375 12.03125 44.71875 
Q 8.5 49.078125 8.5 55.328125 
Q 8.5 64.0625 14.71875 69.140625 
Q 20.953125 74.21875 31.78125 74.21875 
Q 42.671875 74.21875 48.875 69.140625 
Q 55.078125 64.0625 55.078125 55.328125 
Q 55.078125 49.078125 51.53125 44.71875 
Q 48 40.375 41.703125 38.8125 
Q 48.828125 37.15625 52.796875 32.3125 
Q 56.78125 27.484375 56.78125 20.515625 
Q 56.78125 9.90625 50.3125 4.234375 
Q 43.84375 -1.421875 31.78125 -1.421875 
Q 19.734375 -1.421875 13.25 4.234375 
Q 6.78125 9.90625 6.78125 20.515625 
Q 6.78125 27.484375 10.78125 32.3125 
Q 14.796875 37.15625 21.921875 38.8125 
z
M 18.3125 54.390625 
Q 18.3125 48.734375 21.84375 45.5625 
Q 25.390625 42.390625 31.78125 42.390625 
Q 38.140625 42.390625 41.71875 45.5625 
Q 45.3125 48.734375 45.3125 54.390625 
Q 45.3125 60.0625 41.71875 63.234375 
Q 38.140625 66.40625 31.78125 66.40625 
Q 25.390625 66.40625 21.84375 63.234375 
Q 18.3125 60.0625 18.3125 54.390625 
z
" id="DejaVuSans-56"/>
      </defs>
      <g transform="translate(487.946235 329.598437)scale(0.1 -0.1)">
       <use xlink:href="#DejaVuSans-56"/>
       <use x="63.623047" xlink:href="#DejaVuSans-48"/>
       <use x="127.246094" xlink:href="#DejaVuSans-48"/>
      </g>
     </g>
    </g>
    <g id="xtick_6">
     <g id="line2d_11">
      <path clip-path="url(#pb33a9a8c0f)" d="M 593.021572 315 
L 593.021572 43.2 
" style="fill:none;stroke:#b0b0b0;stroke-linecap:square;stroke-width:0.8;"/>
     </g>
     <g id="line2d_12">
      <g>
       <use style="stroke:#000000;stroke-width:0.8;" x="593.021572" xlink:href="#m14aeeeb762" y="315"/>
      </g>
     </g>
     <g id="text_6">
      <!-- 1000 -->
      <defs>
       <path d="M 12.40625 8.296875 
L 28.515625 8.296875 
L 28.515625 63.921875 
L 10.984375 60.40625 
L 10.984375 69.390625 
L 28.421875 72.90625 
L 38.28125 72.90625 
L 38.28125 8.296875 
L 54.390625 8.296875 
L 54.390625 0 
L 12.40625 0 
z
" id="DejaVuSans-49"/>
      </defs>
      <g transform="translate(580.296572 329.598437)scale(0.1 -0.1)">
       <use xlink:href="#DejaVuSans-49"/>
       <use x="63.623047" xlink:href="#DejaVuSans-48"/>
       <use x="127.246094" xlink:href="#DejaVuSans-48"/>
       <use x="190.869141" xlink:href="#DejaVuSans-48"/>
      </g>
     </g>
    </g>
    <g id="text_7">
     <!-- epoch -->
     <defs>
      <path d="M 56.203125 29.59375 
L 56.203125 25.203125 
L 14.890625 25.203125 
Q 15.484375 15.921875 20.484375 11.0625 
Q 25.484375 6.203125 34.421875 6.203125 
Q 39.59375 6.203125 44.453125 7.46875 
Q 49.3125 8.734375 54.109375 11.28125 
L 54.109375 2.78125 
Q 49.265625 0.734375 44.1875 -0.34375 
Q 39.109375 -1.421875 33.890625 -1.421875 
Q 20.796875 -1.421875 13.15625 6.1875 
Q 5.515625 13.8125 5.515625 26.8125 
Q 5.515625 40.234375 12.765625 48.109375 
Q 20.015625 56 32.328125 56 
Q 43.359375 56 49.78125 48.890625 
Q 56.203125 41.796875 56.203125 29.59375 
z
M 47.21875 32.234375 
Q 47.125 39.59375 43.09375 43.984375 
Q 39.0625 48.390625 32.421875 48.390625 
Q 24.90625 48.390625 20.390625 44.140625 
Q 15.875 39.890625 15.1875 32.171875 
z
" id="DejaVuSans-101"/>
      <path d="M 18.109375 8.203125 
L 18.109375 -20.796875 
L 9.078125 -20.796875 
L 9.078125 54.6875 
L 18.109375 54.6875 
L 18.109375 46.390625 
Q 20.953125 51.265625 25.265625 53.625 
Q 29.59375 56 35.59375 56 
Q 45.5625 56 51.78125 48.09375 
Q 58.015625 40.1875 58.015625 27.296875 
Q 58.015625 14.40625 51.78125 6.484375 
Q 45.5625 -1.421875 35.59375 -1.421875 
Q 29.59375 -1.421875 25.265625 0.953125 
Q 20.953125 3.328125 18.109375 8.203125 
z
M 48.6875 27.296875 
Q 48.6875 37.203125 44.609375 42.84375 
Q 40.53125 48.484375 33.40625 48.484375 
Q 26.265625 48.484375 22.1875 42.84375 
Q 18.109375 37.203125 18.109375 27.296875 
Q 18.109375 17.390625 22.1875 11.75 
Q 26.265625 6.109375 33.40625 6.109375 
Q 40.53125 6.109375 44.609375 11.75 
Q 48.6875 17.390625 48.6875 27.296875 
z
" id="DejaVuSans-112"/>
      <path d="M 30.609375 48.390625 
Q 23.390625 48.390625 19.1875 42.75 
Q 14.984375 37.109375 14.984375 27.296875 
Q 14.984375 17.484375 19.15625 11.84375 
Q 23.34375 6.203125 30.609375 6.203125 
Q 37.796875 6.203125 41.984375 11.859375 
Q 46.1875 17.53125 46.1875 27.296875 
Q 46.1875 37.015625 41.984375 42.703125 
Q 37.796875 48.390625 30.609375 48.390625 
z
M 30.609375 56 
Q 42.328125 56 49.015625 48.375 
Q 55.71875 40.765625 55.71875 27.296875 
Q 55.71875 13.875 49.015625 6.21875 
Q 42.328125 -1.421875 30.609375 -1.421875 
Q 18.84375 -1.421875 12.171875 6.21875 
Q 5.515625 13.875 5.515625 27.296875 
Q 5.515625 40.765625 12.171875 48.375 
Q 18.84375 56 30.609375 56 
z
" id="DejaVuSans-111"/>
      <path d="M 48.78125 52.59375 
L 48.78125 44.1875 
Q 44.96875 46.296875 41.140625 47.34375 
Q 37.3125 48.390625 33.40625 48.390625 
Q 24.65625 48.390625 19.8125 42.84375 
Q 14.984375 37.3125 14.984375 27.296875 
Q 14.984375 17.28125 19.8125 11.734375 
Q 24.65625 6.203125 33.40625 6.203125 
Q 37.3125 6.203125 41.140625 7.25 
Q 44.96875 8.296875 48.78125 10.40625 
L 48.78125 2.09375 
Q 45.015625 0.34375 40.984375 -0.53125 
Q 36.96875 -1.421875 32.421875 -1.421875 
Q 20.0625 -1.421875 12.78125 6.34375 
Q 5.515625 14.109375 5.515625 27.296875 
Q 5.515625 40.671875 12.859375 48.328125 
Q 20.21875 56 33.015625 56 
Q 37.15625 56 41.109375 55.140625 
Q 45.0625 54.296875 48.78125 52.59375 
z
" id="DejaVuSans-99"/>
      <path d="M 54.890625 33.015625 
L 54.890625 0 
L 45.90625 0 
L 45.90625 32.71875 
Q 45.90625 40.484375 42.875 44.328125 
Q 39.84375 48.1875 33.796875 48.1875 
Q 26.515625 48.1875 22.3125 43.546875 
Q 18.109375 38.921875 18.109375 30.90625 
L 18.109375 0 
L 9.078125 0 
L 9.078125 75.984375 
L 18.109375 75.984375 
L 18.109375 46.1875 
Q 21.34375 51.125 25.703125 53.5625 
Q 30.078125 56 35.796875 56 
Q 45.21875 56 50.046875 50.171875 
Q 54.890625 44.34375 54.890625 33.015625 
z
" id="DejaVuSans-104"/>
     </defs>
     <g transform="translate(353.771875 343.276563)scale(0.1 -0.1)">
      <use xlink:href="#DejaVuSans-101"/>
      <use x="61.523438" xlink:href="#DejaVuSans-112"/>
      <use x="125" xlink:href="#DejaVuSans-111"/>
      <use x="186.181641" xlink:href="#DejaVuSans-99"/>
      <use x="241.162109" xlink:href="#DejaVuSans-104"/>
     </g>
    </g>
   </g>
   <g id="matplotlib.axis_2">
    <g id="ytick_1">
     <g id="line2d_13">
      <path clip-path="url(#pb33a9a8c0f)" d="M 90 290.158021 
L 648 290.158021 
" style="fill:none;stroke:#b0b0b0;stroke-linecap:square;stroke-width:0.8;"/>
     </g>
     <g id="line2d_14">
      <defs>
       <path d="M 0 0 
L -3.5 0 
" id="me2cf5a8bd3" style="stroke:#000000;stroke-width:0.8;"/>
      </defs>
      <g>
       <use style="stroke:#000000;stroke-width:0.8;" x="90" xlink:href="#me2cf5a8bd3" y="290.158021"/>
      </g>
     </g>
     <g id="text_8">
      <!-- 0.2 -->
      <defs>
       <path d="M 10.6875 12.40625 
L 21 12.40625 
L 21 0 
L 10.6875 0 
z
" id="DejaVuSans-46"/>
      </defs>
      <g transform="translate(67.096875 293.95724)scale(0.1 -0.1)">
       <use xlink:href="#DejaVuSans-48"/>
       <use x="63.623047" xlink:href="#DejaVuSans-46"/>
       <use x="95.410156" xlink:href="#DejaVuSans-50"/>
      </g>
     </g>
    </g>
    <g id="ytick_2">
     <g id="line2d_15">
      <path clip-path="url(#pb33a9a8c0f)" d="M 90 257.306659 
L 648 257.306659 
" style="fill:none;stroke:#b0b0b0;stroke-linecap:square;stroke-width:0.8;"/>
     </g>
     <g id="line2d_16">
      <g>
       <use style="stroke:#000000;stroke-width:0.8;" x="90" xlink:href="#me2cf5a8bd3" y="257.306659"/>
      </g>
     </g>
     <g id="text_9">
      <!-- 0.4 -->
      <g transform="translate(67.096875 261.105877)scale(0.1 -0.1)">
       <use xlink:href="#DejaVuSans-48"/>
       <use x="63.623047" xlink:href="#DejaVuSans-46"/>
       <use x="95.410156" xlink:href="#DejaVuSans-52"/>
      </g>
     </g>
    </g>
    <g id="ytick_3">
     <g id="line2d_17">
      <path clip-path="url(#pb33a9a8c0f)" d="M 90 224.455296 
L 648 224.455296 
" style="fill:none;stroke:#b0b0b0;stroke-linecap:square;stroke-width:0.8;"/>
     </g>
     <g id="line2d_18">
      <g>
       <use style="stroke:#000000;stroke-width:0.8;" x="90" xlink:href="#me2cf5a8bd3" y="224.455296"/>
      </g>
     </g>
     <g id="text_10">
      <!-- 0.6 -->
      <g transform="translate(67.096875 228.254515)scale(0.1 -0.1)">
       <use xlink:href="#DejaVuSans-48"/>
       <use x="63.623047" xlink:href="#DejaVuSans-46"/>
       <use x="95.410156" xlink:href="#DejaVuSans-54"/>
      </g>
     </g>
    </g>
    <g id="ytick_4">
     <g id="line2d_19">
      <path clip-path="url(#pb33a9a8c0f)" d="M 90 191.603934 
L 648 191.603934 
" style="fill:none;stroke:#b0b0b0;stroke-linecap:square;stroke-width:0.8;"/>
     </g>
     <g id="line2d_20">
      <g>
       <use style="stroke:#000000;stroke-width:0.8;" x="90" xlink:href="#me2cf5a8bd3" y="191.603934"/>
      </g>
     </g>
     <g id="text_11">
      <!-- 0.8 -->
      <g transform="translate(67.096875 195.403153)scale(0.1 -0.1)">
       <use xlink:href="#DejaVuSans-48"/>
       <use x="63.623047" xlink:href="#DejaVuSans-46"/>
       <use x="95.410156" xlink:href="#DejaVuSans-56"/>
      </g>
     </g>
    </g>
    <g id="ytick_5">
     <g id="line2d_21">
      <path clip-path="url(#pb33a9a8c0f)" d="M 90 158.752572 
L 648 158.752572 
" style="fill:none;stroke:#b0b0b0;stroke-linecap:square;stroke-width:0.8;"/>
     </g>
     <g id="line2d_22">
      <g>
       <use style="stroke:#000000;stroke-width:0.8;" x="90" xlink:href="#me2cf5a8bd3" y="158.752572"/>
      </g>
     </g>
     <g id="text_12">
      <!-- 1.0 -->
      <g transform="translate(67.096875 162.551791)scale(0.1 -0.1)">
       <use xlink:href="#DejaVuSans-49"/>
       <use x="63.623047" xlink:href="#DejaVuSans-46"/>
       <use x="95.410156" xlink:href="#DejaVuSans-48"/>
      </g>
     </g>
    </g>
    <g id="ytick_6">
     <g id="line2d_23">
      <path clip-path="url(#pb33a9a8c0f)" d="M 90 125.90121 
L 648 125.90121 
" style="fill:none;stroke:#b0b0b0;stroke-linecap:square;stroke-width:0.8;"/>
     </g>
     <g id="line2d_24">
      <g>
       <use style="stroke:#000000;stroke-width:0.8;" x="90" xlink:href="#me2cf5a8bd3" y="125.90121"/>
      </g>
     </g>
     <g id="text_13">
      <!-- 1.2 -->
      <g transform="translate(67.096875 129.700428)scale(0.1 -0.1)">
       <use xlink:href="#DejaVuSans-49"/>
       <use x="63.623047" xlink:href="#DejaVuSans-46"/>
       <use x="95.410156" xlink:href="#DejaVuSans-50"/>
      </g>
     </g>
    </g>
    <g id="ytick_7">
     <g id="line2d_25">
      <path clip-path="url(#pb33a9a8c0f)" d="M 90 93.049847 
L 648 93.049847 
" style="fill:none;stroke:#b0b0b0;stroke-linecap:square;stroke-width:0.8;"/>
     </g>
     <g id="line2d_26">
      <g>
       <use style="stroke:#000000;stroke-width:0.8;" x="90" xlink:href="#me2cf5a8bd3" y="93.049847"/>
      </g>
     </g>
     <g id="text_14">
      <!-- 1.4 -->
      <g transform="translate(67.096875 96.849066)scale(0.1 -0.1)">
       <use xlink:href="#DejaVuSans-49"/>
       <use x="63.623047" xlink:href="#DejaVuSans-46"/>
       <use x="95.410156" xlink:href="#DejaVuSans-52"/>
      </g>
     </g>
    </g>
    <g id="ytick_8">
     <g id="line2d_27">
      <path clip-path="url(#pb33a9a8c0f)" d="M 90 60.198485 
L 648 60.198485 
" style="fill:none;stroke:#b0b0b0;stroke-linecap:square;stroke-width:0.8;"/>
     </g>
     <g id="line2d_28">
      <g>
       <use style="stroke:#000000;stroke-width:0.8;" x="90" xlink:href="#me2cf5a8bd3" y="60.198485"/>
      </g>
     </g>
     <g id="text_15">
      <!-- 1.6 -->
      <g transform="translate(67.096875 63.997704)scale(0.1 -0.1)">
       <use xlink:href="#DejaVuSans-49"/>
       <use x="63.623047" xlink:href="#DejaVuSans-46"/>
       <use x="95.410156" xlink:href="#DejaVuSans-54"/>
      </g>
     </g>
    </g>
    <g id="text_16">
     <!-- loss -->
     <defs>
      <path d="M 9.421875 75.984375 
L 18.40625 75.984375 
L 18.40625 0 
L 9.421875 0 
z
" id="DejaVuSans-108"/>
      <path d="M 44.28125 53.078125 
L 44.28125 44.578125 
Q 40.484375 46.53125 36.375 47.5 
Q 32.28125 48.484375 27.875 48.484375 
Q 21.1875 48.484375 17.84375 46.4375 
Q 14.5 44.390625 14.5 40.28125 
Q 14.5 37.15625 16.890625 35.375 
Q 19.28125 33.59375 26.515625 31.984375 
L 29.59375 31.296875 
Q 39.15625 29.25 43.1875 25.515625 
Q 47.21875 21.78125 47.21875 15.09375 
Q 47.21875 7.46875 41.1875 3.015625 
Q 35.15625 -1.421875 24.609375 -1.421875 
Q 20.21875 -1.421875 15.453125 -0.5625 
Q 10.6875 0.296875 5.421875 2 
L 5.421875 11.28125 
Q 10.40625 8.6875 15.234375 7.390625 
Q 20.0625 6.109375 24.8125 6.109375 
Q 31.15625 6.109375 34.5625 8.28125 
Q 37.984375 10.453125 37.984375 14.40625 
Q 37.984375 18.0625 35.515625 20.015625 
Q 33.0625 21.96875 24.703125 23.78125 
L 21.578125 24.515625 
Q 13.234375 26.265625 9.515625 29.90625 
Q 5.8125 33.546875 5.8125 39.890625 
Q 5.8125 47.609375 11.28125 51.796875 
Q 16.75 56 26.8125 56 
Q 31.78125 56 36.171875 55.265625 
Q 40.578125 54.546875 44.28125 53.078125 
z
" id="DejaVuSans-115"/>
     </defs>
     <g transform="translate(61.017187 188.757812)rotate(-90)scale(0.1 -0.1)">
      <use xlink:href="#DejaVuSans-108"/>
      <use x="27.783203" xlink:href="#DejaVuSans-111"/>
      <use x="88.964844" xlink:href="#DejaVuSans-115"/>
      <use x="141.064453" xlink:href="#DejaVuSans-115"/>
     </g>
    </g>
   </g>
   <g id="line2d_29">
    <path clip-path="url(#pb33a9a8c0f)" d="M 115.363636 55.554545 
L 115.841294 66.779331 
L 116.318952 70.899886 
L 116.79661 71.214645 
L 117.274268 77.14753 
L 117.751926 76.037647 
L 118.229584 80.54818 
L 118.707242 79.82624 
L 119.1849 80.548449 
L 119.662558 82.405493 
L 120.140216 83.629243 
L 120.617874 83.685542 
L 121.095532 84.399063 
L 121.57319 88.004748 
L 122.050847 86.674265 
L 122.528505 86.31874 
L 123.006163 86.508753 
L 123.483821 88.252059 
L 123.961479 89.0365 
L 124.439137 89.530208 
L 124.916795 89.045449 
L 125.394453 93.384379 
L 125.872111 93.004681 
L 126.349769 95.363806 
L 126.827427 96.590929 
L 127.782743 100.042374 
L 128.260401 102.702522 
L 128.738059 104.718697 
L 129.215716 107.979437 
L 129.693374 112.024246 
L 130.64869 116.691866 
L 131.126348 120.195063 
L 131.604006 125.490384 
L 132.081664 127.950707 
L 132.559322 132.10312 
L 133.03698 138.027455 
L 133.514638 141.069169 
L 134.947612 151.99339 
L 135.42527 153.691874 
L 135.902928 156.082169 
L 136.380586 159.190797 
L 136.858243 161.484214 
L 137.335901 163.061477 
L 137.813559 166.105464 
L 138.291217 167.855878 
L 138.768875 168.332206 
L 139.246533 170.734001 
L 139.724191 171.785042 
L 140.201849 176.536888 
L 140.679507 177.186288 
L 142.112481 181.857872 
L 142.590139 183.013731 
L 143.067797 186.280636 
L 143.545455 187.425204 
L 144.023112 187.442327 
L 144.978428 191.726283 
L 145.456086 193.221807 
L 145.933744 193.816723 
L 146.411402 195.718207 
L 146.88906 196.877137 
L 147.366718 199.484463 
L 147.844376 199.631936 
L 148.322034 201.013518 
L 148.799692 203.136765 
L 149.755008 206.022134 
L 150.232666 207.862174 
L 150.710324 209.166803 
L 151.187982 211.376649 
L 151.665639 211.738551 
L 152.620955 214.875208 
L 154.053929 221.995482 
L 154.531587 219.160113 
L 155.009245 219.506599 
L 155.486903 220.537538 
L 155.964561 223.987901 
L 156.442219 223.604496 
L 156.919877 227.143672 
L 157.397535 225.957676 
L 157.875193 225.969634 
L 158.352851 227.882311 
L 158.830508 225.743397 
L 159.308166 225.792134 
L 159.785824 230.177928 
L 160.263482 228.358876 
L 160.74114 231.771273 
L 161.218798 230.025813 
L 162.174114 232.542828 
L 162.651772 234.888027 
L 163.12943 235.950469 
L 163.607088 237.981305 
L 164.084746 237.381336 
L 164.562404 235.861559 
L 165.040062 237.987009 
L 165.51772 237.502657 
L 165.995378 234.96175 
L 166.473035 237.385099 
L 166.950693 241.568973 
L 167.428351 242.565198 
L 167.906009 239.811436 
L 168.383667 240.068184 
L 168.861325 244.122504 
L 169.338983 242.809549 
L 169.816641 243.763589 
L 170.294299 242.478977 
L 171.249615 245.108894 
L 171.727273 247.12586 
L 172.204931 245.138886 
L 172.682589 245.545004 
L 173.160247 248.22245 
L 173.637904 247.103115 
L 174.115562 244.20202 
L 174.59322 245.328688 
L 175.548536 248.327057 
L 176.026194 247.705343 
L 176.503852 249.054323 
L 176.98151 250.904748 
L 177.459168 251.039624 
L 177.936826 251.61002 
L 178.414484 253.515107 
L 178.892142 251.719111 
L 179.3698 250.597772 
L 179.847458 253.360962 
L 180.802773 252.244954 
L 181.280431 255.663722 
L 182.235747 253.182235 
L 182.713405 255.225014 
L 183.191063 258.387754 
L 183.668721 254.57485 
L 184.624037 256.914645 
L 185.101695 256.134195 
L 185.579353 256.703775 
L 186.057011 259.795028 
L 186.534669 258.077576 
L 187.012327 256.99022 
L 187.489985 259.583711 
L 187.967643 260.534084 
L 188.4453 256.986233 
L 188.922958 258.477281 
L 189.400616 258.61883 
L 189.878274 262.493172 
L 190.355932 262.507049 
L 190.83359 259.815026 
L 191.311248 263.59739 
L 191.788906 260.413291 
L 192.266564 262.758505 
L 192.744222 262.740962 
L 193.22188 261.669289 
L 193.699538 266.164373 
L 194.177196 263.765046 
L 194.654854 264.201957 
L 195.132512 263.631975 
L 195.610169 264.890174 
L 196.087827 260.983482 
L 196.565485 264.478211 
L 197.043143 264.472029 
L 197.520801 264.710434 
L 197.998459 265.827541 
L 198.476117 265.903972 
L 198.953775 264.89627 
L 199.431433 264.410758 
L 199.909091 266.770666 
L 200.386749 266.642665 
L 200.864407 265.804894 
L 201.342065 267.587944 
L 201.819723 267.26034 
L 202.297381 263.337204 
L 202.775039 269.946447 
L 203.252696 263.501756 
L 203.730354 267.422504 
L 204.208012 267.330857 
L 204.68567 269.574293 
L 205.163328 265.672704 
L 205.640986 266.4219 
L 206.118644 269.584494 
L 206.596302 268.575383 
L 207.07396 269.887845 
L 207.551618 270.822941 
L 208.029276 268.817854 
L 208.506934 270.978085 
L 208.984592 268.8432 
L 209.46225 270.143574 
L 209.939908 269.450114 
L 210.417565 271.772439 
L 210.895223 271.564487 
L 211.372881 271.185372 
L 211.850539 272.747637 
L 212.328197 271.017453 
L 212.805855 272.147039 
L 213.283513 271.694852 
L 213.761171 271.52398 
L 214.238829 270.573137 
L 214.716487 271.943119 
L 215.194145 272.91172 
L 215.671803 273.236076 
L 216.149461 273.267772 
L 216.627119 272.320213 
L 217.104777 271.865531 
L 217.582435 274.641886 
L 218.060092 273.329429 
L 218.53775 275.652444 
L 219.015408 271.54463 
L 219.493066 274.241181 
L 219.970724 275.565246 
L 220.448382 271.797792 
L 220.92604 273.42905 
L 221.403698 272.806347 
L 221.881356 272.867296 
L 222.359014 274.847677 
L 222.836672 274.156738 
L 223.31433 276.522441 
L 223.791988 275.617274 
L 224.269646 277.20299 
L 224.747304 275.437073 
L 225.224961 278.953725 
L 226.180277 272.355197 
L 226.657935 272.889299 
L 227.135593 275.021106 
L 227.613251 275.387556 
L 228.090909 274.883723 
L 228.568567 275.394675 
L 229.046225 274.796363 
L 229.523883 276.926635 
L 230.001541 273.965038 
L 230.479199 276.438073 
L 230.956857 275.941759 
L 231.434515 277.318484 
L 231.912173 274.886541 
L 232.389831 276.611353 
L 232.867488 277.131202 
L 233.345146 276.415675 
L 234.300462 277.221581 
L 234.77812 277.085433 
L 235.255778 277.857686 
L 235.733436 276.517819 
L 236.211094 277.634571 
L 236.688752 276.824461 
L 237.16641 277.28757 
L 237.644068 277.020597 
L 238.121726 275.850252 
L 238.599384 272.999106 
L 239.077042 275.628755 
L 239.5547 275.790836 
L 240.032357 278.065573 
L 240.510015 277.15152 
L 240.987673 278.517017 
L 241.465331 277.623877 
L 241.942989 275.921293 
L 242.420647 278.81346 
L 242.898305 277.45017 
L 243.375963 277.636528 
L 244.808937 279.435382 
L 245.286595 282.379442 
L 245.764253 280.313098 
L 246.719569 279.650286 
L 247.197227 278.447301 
L 247.674884 280.755964 
L 248.152542 278.09216 
L 248.6302 281.613822 
L 249.107858 282.363225 
L 249.585516 278.639178 
L 250.063174 278.972336 
L 250.540832 278.870416 
L 251.01849 281.469997 
L 251.496148 280.115147 
L 251.973806 282.233382 
L 252.929122 280.889517 
L 253.40678 277.39378 
L 253.884438 281.559044 
L 254.839753 279.378471 
L 255.317411 284.152195 
L 255.795069 281.561091 
L 256.272727 281.035507 
L 256.750385 281.846434 
L 257.228043 280.834122 
L 257.705701 282.229504 
L 258.183359 282.143267 
L 258.661017 281.775223 
L 259.138675 282.50004 
L 259.616333 282.534274 
L 260.093991 280.702097 
L 260.571649 282.75253 
L 261.049307 282.392189 
L 261.526965 283.868802 
L 262.004622 283.317863 
L 262.48228 281.092902 
L 263.437596 283.261168 
L 263.915254 281.559678 
L 264.392912 283.371718 
L 264.87057 282.522669 
L 265.348228 282.689284 
L 265.825886 282.263861 
L 266.303544 284.098205 
L 266.781202 286.682001 
L 267.736518 281.843896 
L 268.214176 282.705574 
L 268.691834 283.854728 
L 269.169492 282.972251 
L 269.647149 283.0823 
L 270.124807 284.677218 
L 270.602465 282.532925 
L 271.080123 282.855267 
L 271.557781 282.979772 
L 272.035439 282.111911 
L 272.513097 282.831612 
L 272.990755 284.655494 
L 273.468413 282.534861 
L 273.946071 284.578037 
L 274.423729 283.466916 
L 274.901387 285.008235 
L 275.379045 284.025478 
L 275.856703 285.518492 
L 276.334361 285.56332 
L 276.812018 282.398261 
L 277.289676 285.476514 
L 277.767334 285.800039 
L 278.244992 285.303427 
L 278.72265 283.254193 
L 279.677966 285.886379 
L 280.155624 284.364182 
L 280.633282 284.224678 
L 281.11094 282.488475 
L 281.588598 284.517618 
L 282.066256 285.13547 
L 282.543914 285.371365 
L 283.021572 285.109876 
L 283.49923 285.376836 
L 283.976888 285.154157 
L 284.454545 285.482299 
L 284.932203 284.86812 
L 285.409861 285.347539 
L 285.887519 285.290973 
L 286.365177 283.769324 
L 286.842835 284.133557 
L 287.320493 285.715755 
L 287.798151 286.432989 
L 288.275809 283.929671 
L 288.753467 286.476874 
L 290.186441 284.957572 
L 290.664099 284.393582 
L 291.141757 283.583323 
L 291.619414 284.207469 
L 292.097072 285.817429 
L 292.57473 286.305757 
L 293.052388 284.701014 
L 293.530046 286.259104 
L 294.007704 287.048134 
L 294.485362 286.455003 
L 294.96302 284.29649 
L 295.440678 286.31927 
L 295.918336 286.256032 
L 296.395994 286.406504 
L 296.873652 287.552067 
L 297.35131 287.005355 
L 297.828968 285.28339 
L 298.306626 287.429706 
L 298.784284 287.482516 
L 299.261941 286.359076 
L 299.739599 286.492968 
L 300.217257 285.93321 
L 300.694915 287.116359 
L 301.172573 286.303834 
L 301.650231 287.555852 
L 302.127889 288.1944 
L 302.605547 285.420564 
L 303.083205 287.292135 
L 303.560863 287.301518 
L 304.038521 284.228589 
L 304.516179 283.624787 
L 304.993837 287.537747 
L 305.471495 288.173167 
L 305.949153 286.844769 
L 306.42681 285.934437 
L 306.904468 289.513017 
L 307.382126 288.199048 
L 307.859784 286.014042 
L 308.337442 285.784342 
L 308.8151 290.232369 
L 309.292758 289.080837 
L 309.770416 288.677198 
L 310.248074 289.787789 
L 310.725732 288.071631 
L 311.681048 287.143435 
L 312.158706 287.972151 
L 312.636364 286.854936 
L 313.114022 287.532484 
L 313.59168 287.151645 
L 314.069337 289.289629 
L 314.546995 286.408788 
L 315.024653 286.718997 
L 315.502311 287.783455 
L 315.979969 287.397404 
L 316.935285 290.218655 
L 317.890601 286.793737 
L 318.368259 289.090248 
L 318.845917 289.345999 
L 319.323575 289.305178 
L 319.801233 286.926032 
L 320.278891 287.288741 
L 320.756549 290.254709 
L 321.234206 287.768685 
L 321.711864 288.746321 
L 322.189522 289.233448 
L 322.66718 289.377261 
L 323.144838 289.273142 
L 323.622496 288.087874 
L 324.100154 289.953576 
L 324.577812 288.83784 
L 325.05547 286.515248 
L 325.533128 288.852905 
L 326.010786 288.574837 
L 326.488444 287.620621 
L 326.966102 290.699619 
L 327.44376 291.475036 
L 327.921418 288.532236 
L 328.399076 289.782311 
L 328.876733 288.396034 
L 329.354391 289.658268 
L 329.832049 293.063838 
L 330.309707 289.062204 
L 330.787365 287.806291 
L 331.265023 289.003935 
L 331.742681 289.618357 
L 332.220339 289.893122 
L 332.697997 291.388493 
L 333.175655 289.567697 
L 333.653313 288.93091 
L 334.130971 289.776583 
L 334.608629 290.053437 
L 335.086287 289.921824 
L 336.041602 289.113795 
L 336.51926 291.405689 
L 337.474576 290.163897 
L 337.952234 289.888843 
L 338.429892 287.571012 
L 338.90755 288.946547 
L 339.385208 291.556803 
L 339.862866 291.302371 
L 340.340524 290.295231 
L 340.818182 290.600469 
L 341.29584 289.949005 
L 341.773498 293.367086 
L 342.728814 291.193235 
L 343.206471 291.322039 
L 343.684129 291.856929 
L 344.161787 289.982651 
L 344.639445 289.648907 
L 345.117103 287.616047 
L 345.594761 287.329017 
L 346.072419 290.484053 
L 346.550077 289.263518 
L 347.027735 290.67188 
L 347.505393 289.575828 
L 347.983051 290.26553 
L 348.460709 293.317046 
L 348.938367 290.656088 
L 349.416025 290.147547 
L 349.893683 292.286585 
L 350.371341 292.969357 
L 350.848998 290.724181 
L 351.326656 290.178328 
L 351.804314 288.686639 
L 352.281972 292.113059 
L 352.75963 288.736813 
L 353.237288 288.508559 
L 353.714946 293.912747 
L 354.192604 287.991617 
L 354.670262 292.231125 
L 355.14792 290.590135 
L 355.625578 289.894425 
L 356.103236 289.619085 
L 356.580894 286.880472 
L 357.058552 290.483212 
L 357.53621 292.728407 
L 358.013867 291.506133 
L 358.491525 287.446085 
L 358.969183 291.08514 
L 359.446841 289.854428 
L 359.924499 290.835426 
L 360.402157 292.521475 
L 360.879815 290.04154 
L 361.357473 289.768018 
L 361.835131 290.817711 
L 362.312789 290.516339 
L 362.790447 291.495808 
L 363.268105 290.660529 
L 363.745763 291.628217 
L 364.223421 292.280476 
L 364.701079 289.620799 
L 365.178737 290.119094 
L 365.656394 291.647187 
L 366.134052 291.5773 
L 366.61171 291.085087 
L 367.089368 289.99414 
L 367.567026 287.494133 
L 368.044684 291.247524 
L 368.522342 290.428195 
L 369 290.616017 
L 369.477658 292.133635 
L 369.955316 289.531783 
L 370.432974 291.921184 
L 370.910632 290.624635 
L 371.38829 292.151318 
L 371.865948 293.290609 
L 372.821263 289.333162 
L 373.298921 291.605031 
L 373.776579 293.23634 
L 374.254237 289.839077 
L 374.731895 294.447578 
L 375.209553 290.780572 
L 375.687211 290.400499 
L 376.164869 293.648131 
L 376.642527 291.571075 
L 377.120185 290.338914 
L 377.597843 293.658108 
L 378.075501 292.414316 
L 378.553159 292.960469 
L 379.030817 290.375275 
L 379.508475 291.883192 
L 379.986133 292.677747 
L 380.46379 291.571715 
L 380.941448 289.327371 
L 381.896764 291.91915 
L 382.374422 291.394914 
L 382.85208 290.697226 
L 383.329738 293.657092 
L 383.807396 292.952706 
L 384.285054 290.618086 
L 384.762712 291.554663 
L 385.24037 291.737981 
L 386.195686 290.040599 
L 386.673344 292.037643 
L 387.151002 292.980434 
L 387.628659 291.208959 
L 388.106317 292.402378 
L 388.583975 292.832808 
L 389.061633 294.158931 
L 390.016949 293.450545 
L 390.494607 294.271779 
L 390.972265 295.346307 
L 391.449923 293.879629 
L 391.927581 293.493828 
L 392.882897 291.826436 
L 393.360555 291.6275 
L 393.838213 293.405039 
L 394.315871 290.048085 
L 394.793529 293.041513 
L 395.271186 290.504903 
L 395.748844 292.377536 
L 396.226502 292.653368 
L 396.70416 292.67202 
L 397.181818 291.866575 
L 397.659476 292.64867 
L 398.137134 293.760233 
L 398.614792 294.070546 
L 399.09245 291.211394 
L 399.570108 293.201268 
L 400.047766 292.22272 
L 400.525424 293.462743 
L 401.003082 293.334817 
L 401.48074 293.73174 
L 401.958398 291.962277 
L 402.436055 293.84118 
L 402.913713 291.019638 
L 403.391371 290.595769 
L 403.869029 292.726089 
L 404.346687 294.016721 
L 404.824345 291.379624 
L 405.302003 294.02011 
L 405.779661 294.158405 
L 406.257319 292.761622 
L 406.734977 291.008618 
L 407.690293 292.64287 
L 408.167951 293.013647 
L 408.645609 290.158817 
L 409.123267 293.90063 
L 409.600924 292.495257 
L 410.078582 294.695348 
L 410.55624 294.754962 
L 411.033898 294.514594 
L 411.511556 293.612441 
L 411.989214 293.931111 
L 412.466872 293.275273 
L 412.94453 293.186206 
L 413.422188 292.017988 
L 413.899846 293.745602 
L 414.377504 293.755482 
L 414.855162 291.908543 
L 415.33282 293.361021 
L 415.810478 296.034284 
L 416.288136 293.540285 
L 416.765794 292.289009 
L 417.243451 295.790073 
L 417.721109 295.695126 
L 418.198767 294.807365 
L 418.676425 292.568686 
L 419.154083 293.439721 
L 419.631741 294.914285 
L 420.109399 294.306505 
L 420.587057 295.139916 
L 421.064715 293.916903 
L 421.542373 290.375964 
L 422.020031 294.913294 
L 422.497689 294.587343 
L 422.975347 295.210684 
L 423.453005 295.493112 
L 423.930663 295.281676 
L 424.40832 293.459621 
L 424.885978 295.8793 
L 425.363636 292.710274 
L 425.841294 294.484621 
L 426.318952 293.949902 
L 427.751926 293.526441 
L 428.229584 296.112872 
L 428.707242 295.093032 
L 429.1849 293.712849 
L 429.662558 293.490923 
L 430.140216 292.924648 
L 430.617874 293.947467 
L 431.095532 294.322945 
L 431.57319 293.372012 
L 432.050847 294.938052 
L 432.528505 294.78671 
L 433.006163 294.362435 
L 433.483821 295.956218 
L 433.961479 294.81932 
L 434.439137 295.317484 
L 434.916795 295.448433 
L 435.394453 293.242535 
L 435.872111 294.297632 
L 436.349769 296.470086 
L 436.827427 294.302844 
L 437.305085 296.981113 
L 437.782743 295.291158 
L 438.738059 293.644545 
L 439.215716 294.063283 
L 439.693374 295.393595 
L 440.171032 293.959563 
L 440.64869 295.230819 
L 441.126348 293.560026 
L 441.604006 294.798683 
L 442.081664 294.808147 
L 442.559322 295.964685 
L 443.03698 294.248515 
L 443.514638 295.911623 
L 443.992296 294.823677 
L 444.469954 294.035158 
L 444.947612 295.652013 
L 445.42527 294.052216 
L 445.902928 294.865054 
L 446.380586 293.721753 
L 446.858243 294.965662 
L 447.335901 296.829529 
L 447.813559 296.010486 
L 448.291217 293.777756 
L 448.768875 295.268982 
L 449.246533 295.29646 
L 449.724191 295.660967 
L 450.201849 294.033474 
L 451.157165 295.280667 
L 451.634823 293.685715 
L 452.112481 297.963633 
L 452.590139 294.921311 
L 453.067797 294.001821 
L 454.023112 296.800975 
L 454.50077 296.433325 
L 454.978428 295.842905 
L 455.456086 296.163039 
L 455.933744 294.667467 
L 456.411402 291.198804 
L 456.88906 296.552115 
L 457.366718 295.056999 
L 457.844376 295.221926 
L 458.322034 298.08322 
L 458.799692 295.72696 
L 459.27735 294.262906 
L 459.755008 296.737324 
L 460.232666 296.77684 
L 460.710324 298.29464 
L 461.187982 295.028527 
L 461.665639 295.953187 
L 462.143297 296.081728 
L 462.620955 295.612061 
L 463.098613 296.964519 
L 463.576271 296.770226 
L 464.053929 297.21645 
L 464.531587 293.882991 
L 465.009245 292.697077 
L 465.964561 294.593685 
L 466.442219 296.313411 
L 466.919877 296.033519 
L 467.397535 296.205664 
L 467.875193 296.823677 
L 468.352851 295.44997 
L 468.830508 296.050083 
L 469.308166 294.019346 
L 469.785824 293.752465 
L 470.263482 295.434961 
L 470.74114 294.903661 
L 471.218798 295.01561 
L 471.696456 295.767332 
L 472.174114 296.292824 
L 472.651772 293.512254 
L 473.12943 296.04576 
L 473.607088 292.999133 
L 474.084746 295.828485 
L 474.562404 297.791628 
L 475.040062 296.859333 
L 475.51772 295.033844 
L 476.473035 297.266355 
L 476.950693 296.701998 
L 477.428351 295.231603 
L 477.906009 295.485547 
L 478.383667 297.73946 
L 478.861325 295.991572 
L 479.338983 294.936034 
L 479.816641 295.13772 
L 480.294299 295.549467 
L 480.771957 294.559916 
L 481.249615 297.470963 
L 481.727273 296.104534 
L 482.204931 295.389972 
L 482.682589 296.167519 
L 483.160247 296.489281 
L 483.637904 296.530429 
L 484.115562 298.27093 
L 484.59322 296.788054 
L 485.070878 297.349028 
L 485.548536 296.240797 
L 486.026194 297.098555 
L 486.503852 294.615222 
L 486.98151 294.229564 
L 487.459168 296.833082 
L 487.936826 295.031755 
L 488.892142 296.636138 
L 489.3698 296.007024 
L 489.847458 297.112361 
L 490.325116 296.818334 
L 490.802773 297.421488 
L 491.280431 294.096245 
L 491.758089 297.217363 
L 492.235747 296.894136 
L 492.713405 298.638767 
L 493.191063 295.390799 
L 493.668721 294.663334 
L 494.146379 293.566517 
L 494.624037 292.96846 
L 495.101695 294.213552 
L 495.579353 294.985131 
L 496.057011 297.620976 
L 496.534669 297.315975 
L 497.012327 295.182094 
L 497.489985 296.560578 
L 497.967643 297.439722 
L 498.4453 294.493766 
L 498.922958 294.900417 
L 499.400616 298.106312 
L 499.878274 296.325448 
L 500.355932 297.237088 
L 500.83359 296.833514 
L 501.788906 295.804593 
L 502.266564 295.847046 
L 502.744222 296.19022 
L 503.22188 296.914891 
L 503.699538 295.617303 
L 504.177196 295.568296 
L 504.654854 296.725091 
L 505.132512 296.277503 
L 505.610169 296.215029 
L 506.087827 297.937625 
L 506.565485 297.221904 
L 507.043143 296.911658 
L 507.520801 296.98274 
L 507.998459 295.534465 
L 508.476117 297.839576 
L 508.953775 296.46353 
L 509.431433 299.353848 
L 509.909091 296.122433 
L 510.386749 297.803314 
L 510.864407 296.83613 
L 511.342065 298.26327 
L 511.819723 297.813228 
L 512.297381 295.017297 
L 512.775039 296.040524 
L 513.252696 294.436109 
L 513.730354 297.134473 
L 514.208012 298.257237 
L 514.68567 298.11287 
L 515.163328 295.814838 
L 515.640986 297.084783 
L 516.596302 297.550557 
L 517.07396 297.16246 
L 517.551618 293.397786 
L 518.029276 296.195817 
L 518.506934 297.305901 
L 518.984592 294.662332 
L 519.46225 296.968177 
L 519.939908 294.881307 
L 520.417565 296.041352 
L 520.895223 299.243694 
L 521.372881 294.350737 
L 521.850539 296.094163 
L 522.805855 295.524191 
L 523.283513 294.647733 
L 523.761171 295.93645 
L 524.238829 296.879217 
L 524.716487 298.577342 
L 525.194145 297.181328 
L 525.671803 295.051868 
L 526.149461 297.230552 
L 526.627119 295.771297 
L 527.104777 298.68088 
L 527.582435 297.057348 
L 528.060092 296.536678 
L 528.53775 298.558769 
L 529.015408 297.139024 
L 529.493066 296.329176 
L 529.970724 296.15275 
L 530.448382 298.065807 
L 530.92604 295.437463 
L 531.403698 297.415138 
L 531.881356 296.491918 
L 532.359014 298.083246 
L 532.836672 296.086526 
L 533.31433 294.648972 
L 533.791988 295.22109 
L 534.269646 297.537036 
L 534.747304 296.302927 
L 535.224961 298.317772 
L 535.702619 298.382769 
L 536.180277 296.4452 
L 537.135593 296.349017 
L 537.613251 297.611695 
L 538.090909 296.870295 
L 538.568567 298.482252 
L 539.046225 298.578449 
L 539.523883 297.622641 
L 540.001541 297.862806 
L 540.479199 295.710298 
L 540.956857 298.374118 
L 541.434515 294.990905 
L 541.912173 295.655085 
L 542.389831 295.464002 
L 542.867488 297.421065 
L 543.345146 297.242409 
L 543.822804 297.715719 
L 544.300462 296.841895 
L 544.77812 297.484984 
L 545.733436 299.372896 
L 546.211094 295.804544 
L 546.688752 297.883255 
L 547.16641 298.283664 
L 547.644068 299.251793 
L 548.599384 296.006834 
L 549.5547 298.649927 
L 550.510015 295.908428 
L 550.987673 299.017375 
L 551.465331 296.403778 
L 551.942989 295.727316 
L 552.420647 298.347936 
L 552.898305 296.949791 
L 553.375963 297.202646 
L 553.853621 299.166013 
L 554.331279 296.134787 
L 554.808937 298.272426 
L 555.286595 296.972398 
L 555.764253 296.212228 
L 556.241911 299.659928 
L 556.719569 295.270267 
L 557.674884 298.747258 
L 558.152542 300.399947 
L 558.6302 299.63403 
L 559.585516 297.488413 
L 560.063174 297.700408 
L 560.540832 296.840894 
L 561.01849 296.380665 
L 561.496148 297.610628 
L 561.973806 297.574911 
L 562.451464 297.2837 
L 562.929122 299.339001 
L 563.40678 296.365995 
L 563.884438 299.680856 
L 564.362096 297.162286 
L 564.839753 296.278221 
L 565.317411 297.76953 
L 565.795069 298.141225 
L 566.272727 299.022048 
L 566.750385 298.455463 
L 567.228043 297.45666 
L 567.705701 297.756587 
L 568.183359 296.878781 
L 568.661017 298.222866 
L 569.138675 298.940258 
L 569.616333 297.114125 
L 570.093991 300.27056 
L 571.049307 295.291357 
L 571.526965 299.768134 
L 572.004622 299.111724 
L 572.48228 296.749756 
L 572.959938 297.445197 
L 573.437596 298.879218 
L 573.915254 297.721002 
L 574.392912 297.796272 
L 574.87057 300.629187 
L 575.348228 297.498327 
L 576.303544 296.951416 
L 576.781202 299.774117 
L 577.736518 297.071335 
L 578.691834 299.040524 
L 579.169492 298.670534 
L 579.647149 298.594682 
L 580.124807 296.473456 
L 580.602465 297.794842 
L 581.080123 296.92987 
L 581.557781 299.619933 
L 582.035439 297.988355 
L 582.513097 297.079607 
L 582.990755 299.654556 
L 583.946071 297.352705 
L 584.423729 297.31145 
L 585.379045 299.381032 
L 585.856703 298.609074 
L 586.334361 300.603645 
L 586.812018 299.634109 
L 587.289676 298.153833 
L 587.767334 297.048274 
L 588.244992 296.615977 
L 588.72265 299.961186 
L 589.200308 298.184262 
L 589.677966 298.008236 
L 590.155624 298.787601 
L 590.633282 298.326198 
L 591.11094 299.633965 
L 591.588598 299.831801 
L 592.066256 299.444705 
L 592.543914 296.903894 
L 593.021572 298.902481 
L 593.49923 299.244615 
L 593.976888 298.525937 
L 594.932203 300.423654 
L 595.887519 298.097386 
L 596.365177 300.779848 
L 596.842835 297.916165 
L 597.320493 298.197786 
L 597.798151 300.875425 
L 598.275809 298.526264 
L 598.753467 299.156965 
L 599.231125 298.010435 
L 599.708783 298.55834 
L 600.186441 299.613457 
L 600.664099 296.480325 
L 601.141757 299.923894 
L 601.619414 297.45207 
L 602.097072 299.451337 
L 602.57473 298.265474 
L 603.052388 300.288859 
L 603.530046 300.213455 
L 604.007704 299.770009 
L 604.485362 299.026861 
L 604.96302 297.463076 
L 605.440678 298.189395 
L 605.918336 302.645455 
L 606.395994 296.820797 
L 606.873652 297.629294 
L 607.35131 301.498762 
L 607.828968 300.320884 
L 608.306626 297.050265 
L 608.784284 300.148201 
L 609.261941 298.32598 
L 609.739599 298.746232 
L 610.217257 300.295348 
L 610.694915 300.039733 
L 611.172573 300.187137 
L 611.650231 299.156404 
L 612.127889 298.781184 
L 612.605547 300.044494 
L 613.083205 299.732475 
L 613.560863 298.964769 
L 614.038521 299.386905 
L 614.516179 298.137403 
L 614.993837 297.526964 
L 615.471495 297.93394 
L 615.949153 299.132293 
L 616.904468 298.66931 
L 617.382126 297.410746 
L 617.859784 295.717545 
L 618.337442 297.238334 
L 618.8151 297.729688 
L 619.292758 297.834263 
L 619.770416 298.118656 
L 620.248074 298.569922 
L 620.725732 299.7927 
L 621.20339 298.165396 
L 621.681048 298.60772 
L 622.158706 299.443882 
L 622.636364 301.501061 
L 622.636364 301.501061 
" style="fill:none;stroke:#1f77b4;stroke-linecap:square;stroke-width:0.5;"/>
   </g>
   <g id="line2d_30">
    <path clip-path="url(#pb33a9a8c0f)" d="M 115.363636 65.848715 
L 115.841294 69.622734 
L 116.318952 69.347517 
L 116.79661 72.311312 
L 117.274268 76.964021 
L 117.751926 75.683948 
L 118.229584 78.549228 
L 118.707242 79.957449 
L 119.1849 78.422126 
L 119.662558 83.377263 
L 120.140216 82.839878 
L 120.617874 83.194494 
L 121.095532 83.10859 
L 121.57319 82.68837 
L 122.050847 83.839385 
L 122.528505 85.419547 
L 123.006163 86.080555 
L 123.483821 85.288384 
L 123.961479 88.391744 
L 124.439137 88.366034 
L 124.916795 89.935408 
L 125.394453 89.211747 
L 125.872111 90.426554 
L 126.827427 94.651898 
L 127.305085 97.772296 
L 127.782743 98.146975 
L 128.260401 100.956146 
L 128.738059 101.990361 
L 129.215716 105.797204 
L 129.693374 107.889228 
L 130.64869 119.009076 
L 131.126348 120.253134 
L 131.604006 124.483443 
L 132.081664 131.142362 
L 133.03698 137.770146 
L 133.514638 139.652133 
L 133.992296 145.273948 
L 135.42527 155.64362 
L 136.380586 160.672379 
L 137.813559 165.11089 
L 138.291217 169.461492 
L 139.724191 173.814757 
L 140.201849 173.346475 
L 140.679507 177.121637 
L 141.157165 177.905997 
L 141.634823 179.764401 
L 142.112481 179.363525 
L 142.590139 182.993432 
L 143.067797 183.661106 
L 144.023112 188.138612 
L 144.50077 191.83909 
L 144.978428 188.849303 
L 145.456086 193.22366 
L 145.933744 193.699193 
L 146.411402 196.556006 
L 146.88906 195.015403 
L 147.366718 199.505083 
L 147.844376 200.577508 
L 148.322034 200.084373 
L 148.799692 202.820729 
L 149.27735 208.045561 
L 149.755008 207.74401 
L 150.232666 208.340111 
L 150.710324 209.212123 
L 151.665639 213.676361 
L 152.143297 214.683034 
L 152.620955 215.958107 
L 153.098613 215.265924 
L 154.053929 220.041857 
L 154.531587 219.867594 
L 155.009245 220.227356 
L 155.964561 224.181969 
L 156.442219 228.604137 
L 156.919877 224.809195 
L 157.397535 224.752542 
L 157.875193 229.647215 
L 158.352851 226.52492 
L 158.830508 227.209851 
L 159.308166 229.544664 
L 159.785824 230.365621 
L 160.263482 230.350707 
L 160.74114 230.849835 
L 161.218798 232.585512 
L 161.696456 231.76783 
L 162.174114 233.432247 
L 163.12943 233.050235 
L 163.607088 237.133486 
L 164.562404 236.846783 
L 165.040062 239.280209 
L 165.51772 238.913559 
L 165.995378 238.186689 
L 166.473035 239.175682 
L 166.950693 237.974681 
L 167.428351 241.032158 
L 167.906009 241.808052 
L 168.383667 241.956185 
L 168.861325 241.836438 
L 169.338983 242.399892 
L 169.816641 245.481616 
L 170.294299 246.1111 
L 170.771957 243.969827 
L 171.249615 244.967442 
L 171.727273 244.581897 
L 172.204931 243.035663 
L 172.682589 246.215384 
L 173.160247 245.420081 
L 173.637904 245.497681 
L 174.115562 244.074881 
L 174.59322 245.384659 
L 175.070878 247.691324 
L 175.548536 249.316994 
L 176.026194 250.33166 
L 176.503852 248.121722 
L 176.98151 247.731992 
L 177.459168 252.573499 
L 177.936826 250.786226 
L 178.414484 253.119367 
L 178.892142 252.635607 
L 179.3698 250.970089 
L 179.847458 254.466929 
L 180.325116 253.132812 
L 180.802773 256.306763 
L 181.280431 256.341459 
L 181.758089 255.541789 
L 182.235747 256.954094 
L 182.713405 257.188178 
L 183.191063 255.759589 
L 183.668721 257.393073 
L 184.146379 255.115239 
L 184.624037 256.154873 
L 185.101695 258.135909 
L 185.579353 258.690996 
L 186.057011 259.520561 
L 186.534669 258.729187 
L 187.012327 259.099723 
L 187.489985 257.542254 
L 187.967643 258.170884 
L 188.4453 260.563303 
L 188.922958 261.857348 
L 189.878274 260.586377 
L 190.355932 261.995615 
L 190.83359 259.547198 
L 191.311248 261.018968 
L 191.788906 264.274864 
L 192.266564 263.31032 
L 192.744222 262.905683 
L 193.22188 263.81981 
L 193.699538 262.466132 
L 194.177196 264.628427 
L 194.654854 265.706415 
L 195.132512 264.922775 
L 195.610169 264.99971 
L 196.087827 264.511843 
L 197.043143 266.688266 
L 197.520801 262.886612 
L 197.998459 267.753286 
L 198.476117 267.281924 
L 198.953775 263.241806 
L 199.431433 266.348215 
L 199.909091 265.956948 
L 200.386749 269.388797 
L 200.864407 266.285673 
L 201.342065 266.959812 
L 201.819723 266.177901 
L 202.297381 266.69426 
L 202.775039 266.279489 
L 203.252696 268.300678 
L 203.730354 268.883422 
L 204.208012 267.554668 
L 204.68567 268.617459 
L 205.163328 267.336473 
L 205.640986 265.654485 
L 206.118644 268.352061 
L 206.596302 268.168782 
L 207.07396 270.239336 
L 207.551618 269.636717 
L 208.029276 270.744108 
L 208.506934 268.701911 
L 208.984592 271.763845 
L 209.46225 268.128617 
L 209.939908 270.578199 
L 210.417565 270.61878 
L 210.895223 272.332201 
L 211.372881 272.650571 
L 211.850539 272.48785 
L 212.328197 271.862681 
L 212.805855 272.123114 
L 213.283513 270.531545 
L 213.761171 272.489703 
L 214.238829 273.320716 
L 214.716487 270.313174 
L 215.194145 270.400596 
L 215.671803 274.030586 
L 216.149461 271.324089 
L 216.627119 269.81833 
L 217.104777 273.559922 
L 217.582435 273.46795 
L 218.060092 270.225322 
L 218.53775 270.023588 
L 219.015408 270.410649 
L 219.970724 275.139436 
L 220.448382 273.112176 
L 220.92604 275.316088 
L 221.403698 273.854407 
L 221.881356 274.826746 
L 222.359014 272.983824 
L 222.836672 271.936247 
L 223.31433 272.913175 
L 223.791988 274.64709 
L 224.747304 273.832124 
L 225.224961 275.366388 
L 225.702619 274.266205 
L 226.180277 274.948083 
L 226.657935 275.342498 
L 227.135593 271.278226 
L 227.613251 273.266898 
L 228.090909 273.133239 
L 228.568567 275.417937 
L 229.046225 275.072683 
L 229.523883 276.467095 
L 230.001541 274.681393 
L 230.479199 274.683021 
L 230.956857 275.964489 
L 231.434515 276.22731 
L 232.867488 276.488375 
L 233.345146 276.962276 
L 233.822804 278.004206 
L 234.300462 275.452375 
L 234.77812 276.804919 
L 235.255778 275.468753 
L 235.733436 275.362652 
L 236.211094 277.485153 
L 236.688752 275.591049 
L 237.16641 276.703933 
L 237.644068 275.071494 
L 238.121726 278.633329 
L 239.077042 275.687416 
L 239.5547 275.147445 
L 240.032357 278.12342 
L 240.510015 276.743091 
L 240.987673 278.846146 
L 241.465331 277.53415 
L 241.942989 277.002625 
L 242.420647 277.971708 
L 242.898305 276.128479 
L 243.375963 276.784733 
L 243.853621 276.401239 
L 244.331279 279.680607 
L 244.808937 275.127592 
L 245.286595 280.004013 
L 245.764253 277.276989 
L 246.241911 279.035682 
L 246.719569 279.980665 
L 247.197227 277.224366 
L 247.674884 277.908161 
L 248.152542 276.426567 
L 248.6302 279.140488 
L 249.107858 279.724339 
L 249.585516 280.65767 
L 250.063174 280.691894 
L 250.540832 279.101296 
L 251.01849 279.324022 
L 251.496148 278.401148 
L 251.973806 277.936414 
L 252.451464 279.685059 
L 252.929122 278.407543 
L 253.884438 279.650853 
L 254.362096 282.042215 
L 254.839753 282.559391 
L 255.317411 280.41894 
L 255.795069 279.398003 
L 256.750385 281.68805 
L 257.228043 280.166219 
L 257.705701 281.477184 
L 258.183359 280.964797 
L 258.661017 281.064877 
L 259.138675 280.751205 
L 259.616333 281.57968 
L 260.093991 282.701002 
L 260.571649 280.315987 
L 261.049307 280.81948 
L 261.526965 280.742235 
L 262.004622 281.097048 
L 262.48228 282.50621 
L 262.959938 281.731014 
L 263.437596 279.032933 
L 263.915254 279.102056 
L 264.392912 281.330887 
L 264.87057 280.655008 
L 265.348228 282.655921 
L 265.825886 282.752371 
L 266.303544 281.076787 
L 266.781202 282.270876 
L 267.25886 280.990729 
L 267.736518 281.881366 
L 268.214176 280.492131 
L 268.691834 280.976509 
L 269.169492 281.258388 
L 269.647149 283.236069 
L 270.124807 283.213529 
L 271.080123 280.78804 
L 271.557781 279.943736 
L 272.035439 284.482033 
L 272.513097 280.763635 
L 272.990755 283.325498 
L 273.468413 282.322232 
L 273.946071 281.715563 
L 274.423729 281.867495 
L 274.901387 281.518913 
L 275.856703 284.463991 
L 276.334361 281.753575 
L 276.812018 281.7389 
L 277.289676 283.259805 
L 277.767334 281.956399 
L 278.244992 283.934251 
L 278.72265 281.361873 
L 279.200308 283.079592 
L 279.677966 280.138953 
L 280.155624 281.237546 
L 281.588598 282.479954 
L 282.066256 281.854275 
L 282.543914 281.47782 
L 283.021572 284.50241 
L 283.49923 283.785724 
L 283.976888 283.973985 
L 284.454545 283.964827 
L 284.932203 285.998998 
L 285.409861 285.260936 
L 285.887519 282.895645 
L 286.365177 283.008314 
L 286.842835 280.507335 
L 287.320493 283.765518 
L 287.798151 283.376006 
L 288.275809 283.303782 
L 288.753467 281.404219 
L 289.231125 283.537518 
L 289.708783 283.998213 
L 290.664099 282.606242 
L 291.619414 286.229354 
L 292.097072 285.291945 
L 292.57473 282.70782 
L 293.052388 285.012732 
L 293.530046 283.277158 
L 294.007704 285.850074 
L 294.485362 286.609571 
L 294.96302 285.865403 
L 295.440678 284.674443 
L 295.918336 285.8039 
L 296.395994 285.374399 
L 296.873652 286.036233 
L 297.35131 283.078259 
L 297.828968 284.84004 
L 298.306626 285.308792 
L 298.784284 285.321032 
L 299.261941 284.901353 
L 299.739599 281.709612 
L 300.217257 285.859605 
L 301.172573 282.853534 
L 301.650231 285.440287 
L 302.127889 285.036195 
L 302.605547 286.911582 
L 303.083205 287.331322 
L 303.560863 285.94843 
L 304.038521 283.530629 
L 304.516179 284.826993 
L 304.993837 283.828147 
L 305.471495 284.06218 
L 305.949153 284.823703 
L 306.42681 286.763184 
L 306.904468 283.138435 
L 307.859784 285.445229 
L 308.337442 284.777515 
L 308.8151 282.009783 
L 309.292758 284.415869 
L 309.770416 283.278545 
L 310.248074 287.107445 
L 310.725732 281.905635 
L 311.20339 284.766667 
L 311.681048 284.020719 
L 312.158706 285.97649 
L 312.636364 284.545062 
L 313.114022 286.008965 
L 313.59168 284.301914 
L 314.069337 286.72487 
L 314.546995 283.240578 
L 315.024653 284.008108 
L 315.502311 285.330565 
L 315.979969 282.402965 
L 316.457627 287.297464 
L 316.935285 284.421526 
L 317.412943 284.533205 
L 317.890601 286.687494 
L 319.323575 284.373001 
L 319.801233 286.238307 
L 320.278891 285.188249 
L 320.756549 285.916954 
L 321.234206 284.956097 
L 321.711864 287.242165 
L 322.189522 287.625475 
L 322.66718 285.726714 
L 323.144838 284.734704 
L 324.100154 287.821112 
L 324.577812 285.923463 
L 325.05547 286.13653 
L 325.533128 285.426743 
L 326.010786 284.981105 
L 326.488444 287.555879 
L 326.966102 286.99696 
L 327.921418 284.346414 
L 328.399076 285.633835 
L 328.876733 285.722089 
L 329.354391 287.336013 
L 329.832049 286.250866 
L 330.309707 286.667533 
L 330.787365 288.149674 
L 331.265023 287.110793 
L 331.742681 284.826626 
L 332.697997 289.12991 
L 333.175655 286.446813 
L 333.653313 286.835612 
L 334.130971 286.609601 
L 334.608629 287.064941 
L 335.086287 286.380964 
L 335.563945 288.292892 
L 336.041602 288.541053 
L 336.51926 286.728877 
L 336.996918 287.543202 
L 337.474576 285.403698 
L 337.952234 288.753241 
L 338.429892 286.818522 
L 338.90755 286.369989 
L 339.385208 287.243659 
L 339.862866 289.731181 
L 340.340524 284.228122 
L 340.818182 287.553369 
L 341.29584 288.207337 
L 341.773498 288.302218 
L 342.251156 288.57978 
L 342.728814 289.272657 
L 343.206471 288.659784 
L 344.161787 286.470245 
L 344.639445 287.195771 
L 345.117103 290.459921 
L 345.594761 289.567846 
L 346.072419 285.351432 
L 346.550077 289.517987 
L 347.027735 287.026141 
L 347.505393 286.694049 
L 347.983051 288.417113 
L 348.460709 290.648494 
L 348.938367 287.456919 
L 349.893683 288.574222 
L 350.371341 287.256215 
L 350.848998 286.793841 
L 351.326656 287.958576 
L 351.804314 287.998533 
L 352.281972 288.528812 
L 352.75963 286.471878 
L 353.237288 287.846162 
L 353.714946 287.871088 
L 354.192604 286.204203 
L 354.670262 285.242042 
L 355.14792 287.084261 
L 355.625578 287.246997 
L 356.103236 286.439444 
L 356.580894 288.496348 
L 357.058552 286.970761 
L 357.53621 288.985896 
L 358.013867 288.502028 
L 358.491525 284.600769 
L 358.969183 288.488606 
L 359.446841 288.118035 
L 359.924499 284.728383 
L 360.402157 288.710546 
L 360.879815 287.85368 
L 361.357473 291.060875 
L 361.835131 289.748235 
L 362.312789 289.474382 
L 362.790447 286.100863 
L 363.745763 290.374509 
L 364.223421 287.902225 
L 364.701079 287.740356 
L 365.178737 290.216657 
L 365.656394 288.575002 
L 366.134052 288.280072 
L 366.61171 289.412008 
L 367.089368 289.504937 
L 367.567026 288.699684 
L 368.044684 288.603593 
L 369 287.529726 
L 369.955316 288.569303 
L 370.432974 288.938046 
L 370.910632 287.45456 
L 371.38829 289.149308 
L 371.865948 289.559192 
L 372.343606 287.365724 
L 372.821263 288.032371 
L 373.298921 288.231918 
L 373.776579 286.117838 
L 374.254237 287.600247 
L 374.731895 287.623295 
L 375.209553 286.896678 
L 375.687211 288.243926 
L 376.164869 289.082725 
L 376.642527 288.909494 
L 377.120185 290.329202 
L 377.597843 288.324435 
L 378.075501 289.89454 
L 378.553159 288.346744 
L 379.030817 288.278643 
L 379.508475 287.943266 
L 379.986133 289.31694 
L 380.46379 285.69887 
L 380.941448 289.824625 
L 381.419106 285.699223 
L 381.896764 287.682093 
L 382.374422 287.783371 
L 382.85208 288.656052 
L 383.329738 288.680432 
L 383.807396 288.87475 
L 384.285054 288.902314 
L 384.762712 288.0845 
L 385.24037 288.43882 
L 385.718028 290.321924 
L 386.195686 290.02821 
L 386.673344 288.35596 
L 387.151002 291.19063 
L 387.628659 288.794979 
L 388.106317 287.800766 
L 388.583975 288.534078 
L 389.061633 291.375654 
L 389.539291 290.594473 
L 390.016949 287.997796 
L 390.494607 290.23396 
L 390.972265 290.087141 
L 391.449923 291.575536 
L 391.927581 287.947758 
L 392.405239 289.723389 
L 392.882897 285.810067 
L 393.360555 287.335069 
L 393.838213 290.081156 
L 394.315871 290.815829 
L 394.793529 289.644027 
L 395.271186 289.042054 
L 396.226502 287.126704 
L 396.70416 285.476247 
L 397.181818 289.92144 
L 397.659476 289.240494 
L 398.137134 289.93222 
L 398.614792 288.352057 
L 399.570108 290.384058 
L 400.047766 289.223749 
L 400.525424 287.147514 
L 401.48074 290.469934 
L 401.958398 286.182954 
L 402.436055 287.393636 
L 402.913713 289.183323 
L 403.391371 289.245569 
L 403.869029 287.344961 
L 404.346687 289.1447 
L 405.302003 288.581806 
L 405.779661 289.633872 
L 406.734977 287.963502 
L 407.212635 287.844271 
L 407.690293 288.727857 
L 408.167951 288.19514 
L 408.645609 285.916357 
L 409.123267 288.339622 
L 409.600924 290.00491 
L 410.078582 289.340648 
L 410.55624 289.512534 
L 411.033898 288.418647 
L 411.511556 290.39921 
L 411.989214 290.064413 
L 412.466872 289.500456 
L 412.94453 288.609396 
L 413.422188 290.526965 
L 413.899846 289.552289 
L 414.377504 290.106134 
L 414.855162 289.791929 
L 415.33282 289.996075 
L 416.288136 286.399503 
L 416.765794 290.034743 
L 417.721109 288.90444 
L 418.676425 288.986761 
L 419.154083 289.684134 
L 419.631741 290.596337 
L 420.109399 289.211865 
L 420.587057 289.145284 
L 421.064715 285.277493 
L 421.542373 289.151723 
L 422.020031 291.064313 
L 422.497689 291.251145 
L 422.975347 291.267878 
L 423.453005 287.942921 
L 423.930663 290.325999 
L 424.40832 290.760227 
L 424.885978 290.005526 
L 425.363636 287.697772 
L 425.841294 290.881671 
L 426.318952 288.969165 
L 426.79661 289.875634 
L 427.274268 289.562726 
L 427.751926 290.183771 
L 428.229584 289.268376 
L 428.707242 291.912111 
L 429.1849 289.864369 
L 429.662558 290.615594 
L 430.140216 288.80652 
L 430.617874 289.911754 
L 431.095532 288.543602 
L 431.57319 289.508098 
L 432.050847 290.782853 
L 432.528505 289.614511 
L 433.006163 288.832942 
L 433.483821 289.989657 
L 433.961479 287.364345 
L 434.439137 290.094466 
L 434.916795 291.311984 
L 435.394453 292.018566 
L 435.872111 292.165053 
L 436.349769 289.589113 
L 436.827427 288.861491 
L 437.305085 290.728191 
L 437.782743 289.497237 
L 438.260401 290.045547 
L 438.738059 289.869132 
L 439.215716 288.953753 
L 439.693374 289.753931 
L 440.171032 289.951332 
L 440.64869 287.776549 
L 441.126348 289.88051 
L 441.604006 290.145451 
L 442.081664 290.039879 
L 442.559322 287.673036 
L 443.03698 290.830063 
L 443.514638 288.285381 
L 443.992296 290.076886 
L 444.469954 287.93915 
L 444.947612 290.581523 
L 445.42527 290.356214 
L 445.902928 289.432525 
L 446.380586 289.797069 
L 446.858243 289.415616 
L 447.335901 287.905759 
L 447.813559 290.776008 
L 448.291217 290.944303 
L 448.768875 292.274696 
L 449.246533 292.677926 
L 449.724191 289.486987 
L 450.201849 289.036481 
L 450.679507 291.403166 
L 451.157165 291.030477 
L 451.634823 290.192415 
L 452.112481 291.192488 
L 452.590139 289.34982 
L 453.067797 291.392287 
L 453.545455 291.265669 
L 454.023112 290.276842 
L 454.50077 288.098731 
L 454.978428 289.912035 
L 455.456086 290.44048 
L 456.411402 288.031703 
L 456.88906 290.480314 
L 457.366718 291.524403 
L 457.844376 291.190957 
L 458.322034 288.688208 
L 458.799692 292.02854 
L 459.27735 291.88656 
L 459.755008 289.302347 
L 460.232666 288.28581 
L 460.710324 288.974395 
L 461.187982 290.465616 
L 461.665639 290.381971 
L 462.143297 286.761288 
L 462.620955 290.73032 
L 463.576271 289.105729 
L 464.053929 287.570827 
L 464.531587 287.991993 
L 465.009245 288.157541 
L 465.486903 290.261205 
L 465.964561 290.919588 
L 466.442219 288.80561 
L 466.919877 291.965847 
L 467.397535 291.585677 
L 467.875193 291.90689 
L 468.352851 288.714307 
L 468.830508 290.216836 
L 469.308166 290.350946 
L 469.785824 287.989282 
L 470.263482 289.904887 
L 470.74114 290.080126 
L 471.218798 292.319558 
L 471.696456 289.543675 
L 472.174114 290.318752 
L 472.651772 288.477918 
L 473.12943 289.043247 
L 473.607088 288.229959 
L 474.084746 291.824971 
L 474.562404 290.98021 
L 475.040062 291.967474 
L 475.51772 291.877337 
L 475.995378 290.577025 
L 476.473035 287.768702 
L 476.950693 291.781404 
L 477.906009 291.695872 
L 478.383667 288.405439 
L 478.861325 290.298643 
L 479.338983 290.32802 
L 479.816641 291.22538 
L 480.294299 289.428249 
L 480.771957 292.189356 
L 481.249615 293.278851 
L 481.727273 290.657422 
L 482.204931 292.151629 
L 482.682589 290.496025 
L 483.160247 290.157264 
L 483.637904 291.283069 
L 484.115562 290.539679 
L 484.59322 292.001982 
L 485.070878 288.330367 
L 486.026194 290.676727 
L 486.503852 289.204535 
L 486.98151 288.931116 
L 487.459168 290.851065 
L 487.936826 290.513234 
L 488.414484 289.797249 
L 488.892142 290.79055 
L 489.3698 291.31006 
L 489.847458 292.466244 
L 490.325116 290.470565 
L 490.802773 291.39677 
L 491.280431 290.455631 
L 491.758089 292.641443 
L 492.235747 290.465257 
L 493.191063 291.437562 
L 493.668721 286.984044 
L 494.146379 288.929882 
L 494.624037 287.070865 
L 495.101695 290.935558 
L 495.579353 289.681981 
L 496.057011 287.819414 
L 496.534669 288.708692 
L 497.012327 288.934612 
L 497.489985 291.088681 
L 497.967643 291.146944 
L 498.4453 292.70552 
L 498.922958 291.034316 
L 499.400616 290.695884 
L 499.878274 292.908597 
L 500.355932 290.989014 
L 500.83359 292.866971 
L 501.311248 290.136156 
L 501.788906 292.747263 
L 502.266564 292.673703 
L 502.744222 292.017095 
L 503.22188 294.519322 
L 503.699538 290.424336 
L 504.177196 290.632939 
L 504.654854 291.52348 
L 505.132512 290.722944 
L 505.610169 290.178461 
L 506.087827 291.004521 
L 506.565485 291.558571 
L 507.043143 290.256938 
L 507.520801 292.458011 
L 507.998459 292.127861 
L 508.476117 290.807736 
L 508.953775 291.542127 
L 509.431433 289.939892 
L 509.909091 289.631186 
L 510.386749 288.47274 
L 510.864407 287.618722 
L 511.342065 290.465044 
L 511.819723 291.917272 
L 512.297381 288.87121 
L 512.775039 291.792499 
L 513.252696 291.029399 
L 513.730354 289.641928 
L 514.208012 288.964502 
L 514.68567 289.344155 
L 515.163328 288.870953 
L 515.640986 289.503854 
L 516.118644 291.455812 
L 516.596302 291.161386 
L 517.07396 290.651349 
L 517.551618 293.164042 
L 518.029276 289.273353 
L 518.506934 290.997595 
L 518.984592 291.51161 
L 519.939908 290.901781 
L 520.417565 291.383553 
L 520.895223 291.015059 
L 521.372881 292.465923 
L 521.850539 287.969814 
L 522.328197 289.731412 
L 522.805855 292.843253 
L 523.283513 292.564481 
L 523.761171 289.603084 
L 524.238829 291.932077 
L 524.716487 291.094682 
L 525.671803 291.449188 
L 526.149461 292.902536 
L 526.627119 291.49364 
L 527.104777 292.781976 
L 528.060092 291.418908 
L 528.53775 290.065306 
L 529.015408 291.716776 
L 529.493066 291.542143 
L 529.970724 292.189261 
L 530.448382 291.696365 
L 530.92604 290.823331 
L 531.881356 293.673801 
L 532.359014 290.942906 
L 532.836672 287.133669 
L 533.31433 289.517739 
L 533.791988 293.415574 
L 534.269646 292.030191 
L 534.747304 291.426101 
L 535.224961 292.286827 
L 535.702619 290.476405 
L 536.657935 291.026598 
L 537.135593 289.506563 
L 537.613251 292.953298 
L 538.090909 292.01424 
L 538.568567 291.967473 
L 539.046225 291.083015 
L 539.523883 291.132428 
L 540.001541 291.045143 
L 540.479199 292.562004 
L 540.956857 288.820651 
L 541.434515 291.507486 
L 541.912173 291.137449 
L 542.389831 290.446369 
L 542.867488 288.966684 
L 543.345146 289.202154 
L 543.822804 291.550224 
L 544.300462 291.859538 
L 544.77812 293.476018 
L 545.255778 292.104507 
L 545.733436 291.617548 
L 546.211094 291.36154 
L 546.688752 290.562362 
L 547.16641 290.547504 
L 547.644068 292.547499 
L 548.121726 292.580737 
L 548.599384 290.392777 
L 549.077042 288.92064 
L 549.5547 291.933046 
L 550.032357 292.40602 
L 550.510015 290.053197 
L 550.987673 291.783103 
L 551.465331 289.85552 
L 551.942989 289.022107 
L 552.420647 290.154108 
L 552.898305 289.351818 
L 553.853621 291.759975 
L 554.331279 291.074356 
L 554.808937 292.28363 
L 555.286595 293.045899 
L 555.764253 291.903799 
L 556.241911 287.479115 
L 556.719569 290.728188 
L 557.197227 292.576362 
L 557.674884 289.658202 
L 558.152542 292.683204 
L 558.6302 292.043659 
L 559.107858 290.986647 
L 559.585516 289.428426 
L 560.063174 291.782181 
L 560.540832 289.056622 
L 561.01849 291.272954 
L 561.496148 288.296728 
L 561.973806 292.050224 
L 562.451464 293.263494 
L 562.929122 289.432901 
L 563.40678 289.749362 
L 563.884438 290.524487 
L 564.362096 290.835997 
L 564.839753 292.97179 
L 565.317411 293.074663 
L 566.272727 291.688725 
L 566.750385 292.003305 
L 567.228043 291.779232 
L 567.705701 291.905306 
L 568.183359 289.845256 
L 568.661017 290.967672 
L 569.138675 292.39367 
L 569.616333 291.34381 
L 570.093991 292.011495 
L 570.571649 292.938486 
L 571.049307 290.852099 
L 571.526965 293.266231 
L 572.004622 290.864482 
L 572.959938 291.999354 
L 573.437596 289.813392 
L 573.915254 291.467119 
L 574.392912 291.805693 
L 574.87057 292.365529 
L 575.348228 289.649841 
L 575.825886 291.600117 
L 576.303544 291.80204 
L 576.781202 293.187256 
L 577.25886 293.222584 
L 577.736518 290.141453 
L 578.214176 292.411592 
L 578.691834 292.649485 
L 579.169492 291.374225 
L 579.647149 290.679544 
L 580.124807 290.696898 
L 580.602465 292.816744 
L 581.080123 290.78197 
L 581.557781 292.32318 
L 582.035439 293.226839 
L 582.513097 292.60174 
L 582.990755 291.78439 
L 583.468413 289.372677 
L 583.946071 292.364524 
L 584.423729 289.981241 
L 584.901387 293.453877 
L 585.379045 292.433606 
L 585.856703 290.105767 
L 586.334361 288.971271 
L 586.812018 292.248723 
L 587.289676 291.661912 
L 587.767334 292.394251 
L 588.244992 291.058079 
L 588.72265 291.729189 
L 589.200308 291.333475 
L 589.677966 291.262183 
L 590.155624 293.026812 
L 590.633282 291.221307 
L 591.11094 292.035522 
L 591.588598 292.599827 
L 592.066256 290.375347 
L 592.543914 291.709452 
L 593.021572 289.799609 
L 593.49923 291.801183 
L 593.976888 290.371969 
L 594.454545 289.702073 
L 594.932203 294.073654 
L 595.409861 291.2905 
L 595.887519 291.466837 
L 596.365177 291.313364 
L 596.842835 292.034016 
L 597.320493 293.309821 
L 598.275809 289.169727 
L 598.753467 291.626223 
L 599.231125 293.135089 
L 599.708783 291.739181 
L 600.186441 291.985303 
L 600.664099 291.315186 
L 601.619414 291.228141 
L 602.097072 291.648033 
L 602.57473 291.598662 
L 603.052388 289.790684 
L 603.530046 293.337973 
L 604.007704 292.375978 
L 604.485362 290.736188 
L 604.96302 292.740071 
L 605.440678 292.506128 
L 605.918336 290.877587 
L 606.395994 288.26331 
L 606.873652 290.879884 
L 607.35131 290.428881 
L 607.828968 292.411954 
L 608.306626 291.869943 
L 608.784284 291.993804 
L 609.261941 291.628147 
L 609.739599 292.106093 
L 610.217257 291.88156 
L 610.694915 290.724592 
L 611.172573 287.939988 
L 611.650231 291.404682 
L 612.127889 291.860424 
L 612.605547 290.151562 
L 613.083205 289.595495 
L 613.560863 291.596314 
L 614.038521 291.120593 
L 615.471495 290.789184 
L 615.949153 292.941454 
L 616.42681 291.787745 
L 616.904468 291.359972 
L 617.382126 290.244014 
L 617.859784 290.534772 
L 618.337442 288.616566 
L 619.292758 292.861686 
L 619.770416 290.782619 
L 620.248074 289.408658 
L 620.725732 294.444883 
L 621.20339 292.73966 
L 621.681048 289.981535 
L 622.158706 292.845481 
L 622.636364 290.550911 
L 622.636364 290.550911 
" style="fill:none;stroke:#ff7f0e;stroke-linecap:square;stroke-width:0.5;"/>
   </g>
   <g id="patch_3">
    <path d="M 90 315 
L 90 43.2 
" style="fill:none;stroke:#000000;stroke-linecap:square;stroke-linejoin:miter;stroke-width:0.8;"/>
   </g>
   <g id="patch_4">
    <path d="M 648 315 
L 648 43.2 
" style="fill:none;stroke:#000000;stroke-linecap:square;stroke-linejoin:miter;stroke-width:0.8;"/>
   </g>
   <g id="patch_5">
    <path d="M 90 315 
L 648 315 
" style="fill:none;stroke:#000000;stroke-linecap:square;stroke-linejoin:miter;stroke-width:0.8;"/>
   </g>
   <g id="patch_6">
    <path d="M 90 43.2 
L 648 43.2 
" style="fill:none;stroke:#000000;stroke-linecap:square;stroke-linejoin:miter;stroke-width:0.8;"/>
   </g>
   <g id="text_17">
    <!-- loss -->
    <g transform="translate(357.410625 37.2)scale(0.12 -0.12)">
     <use xlink:href="#DejaVuSans-108"/>
     <use x="27.783203" xlink:href="#DejaVuSans-111"/>
     <use x="88.964844" xlink:href="#DejaVuSans-115"/>
     <use x="141.064453" xlink:href="#DejaVuSans-115"/>
    </g>
   </g>
   <g id="legend_1">
    <g id="patch_7">
     <path d="M 568.846875 80.55625 
L 641 80.55625 
Q 643 80.55625 643 78.55625 
L 643 50.2 
Q 643 48.2 641 48.2 
L 568.846875 48.2 
Q 566.846875 48.2 566.846875 50.2 
L 566.846875 78.55625 
Q 566.846875 80.55625 568.846875 80.55625 
z
" style="fill:#ffffff;opacity:0.8;stroke:#cccccc;stroke-linejoin:miter;"/>
    </g>
    <g id="line2d_31">
     <path d="M 570.846875 56.298437 
L 590.846875 56.298437 
" style="fill:none;stroke:#1f77b4;stroke-linecap:square;stroke-width:0.5;"/>
    </g>
    <g id="line2d_32"/>
    <g id="text_18">
     <!-- train -->
     <defs>
      <path d="M 18.3125 70.21875 
L 18.3125 54.6875 
L 36.8125 54.6875 
L 36.8125 47.703125 
L 18.3125 47.703125 
L 18.3125 18.015625 
Q 18.3125 11.328125 20.140625 9.421875 
Q 21.96875 7.515625 27.59375 7.515625 
L 36.8125 7.515625 
L 36.8125 0 
L 27.59375 0 
Q 17.1875 0 13.234375 3.875 
Q 9.28125 7.765625 9.28125 18.015625 
L 9.28125 47.703125 
L 2.6875 47.703125 
L 2.6875 54.6875 
L 9.28125 54.6875 
L 9.28125 70.21875 
z
" id="DejaVuSans-116"/>
      <path d="M 41.109375 46.296875 
Q 39.59375 47.171875 37.8125 47.578125 
Q 36.03125 48 33.890625 48 
Q 26.265625 48 22.1875 43.046875 
Q 18.109375 38.09375 18.109375 28.8125 
L 18.109375 0 
L 9.078125 0 
L 9.078125 54.6875 
L 18.109375 54.6875 
L 18.109375 46.1875 
Q 20.953125 51.171875 25.484375 53.578125 
Q 30.03125 56 36.53125 56 
Q 37.453125 56 38.578125 55.875 
Q 39.703125 55.765625 41.0625 55.515625 
z
" id="DejaVuSans-114"/>
      <path d="M 34.28125 27.484375 
Q 23.390625 27.484375 19.1875 25 
Q 14.984375 22.515625 14.984375 16.5 
Q 14.984375 11.71875 18.140625 8.90625 
Q 21.296875 6.109375 26.703125 6.109375 
Q 34.1875 6.109375 38.703125 11.40625 
Q 43.21875 16.703125 43.21875 25.484375 
L 43.21875 27.484375 
z
M 52.203125 31.203125 
L 52.203125 0 
L 43.21875 0 
L 43.21875 8.296875 
Q 40.140625 3.328125 35.546875 0.953125 
Q 30.953125 -1.421875 24.3125 -1.421875 
Q 15.921875 -1.421875 10.953125 3.296875 
Q 6 8.015625 6 15.921875 
Q 6 25.140625 12.171875 29.828125 
Q 18.359375 34.515625 30.609375 34.515625 
L 43.21875 34.515625 
L 43.21875 35.40625 
Q 43.21875 41.609375 39.140625 45 
Q 35.0625 48.390625 27.6875 48.390625 
Q 23 48.390625 18.546875 47.265625 
Q 14.109375 46.140625 10.015625 43.890625 
L 10.015625 52.203125 
Q 14.9375 54.109375 19.578125 55.046875 
Q 24.21875 56 28.609375 56 
Q 40.484375 56 46.34375 49.84375 
Q 52.203125 43.703125 52.203125 31.203125 
z
" id="DejaVuSans-97"/>
      <path d="M 9.421875 54.6875 
L 18.40625 54.6875 
L 18.40625 0 
L 9.421875 0 
z
M 9.421875 75.984375 
L 18.40625 75.984375 
L 18.40625 64.59375 
L 9.421875 64.59375 
z
" id="DejaVuSans-105"/>
      <path d="M 54.890625 33.015625 
L 54.890625 0 
L 45.90625 0 
L 45.90625 32.71875 
Q 45.90625 40.484375 42.875 44.328125 
Q 39.84375 48.1875 33.796875 48.1875 
Q 26.515625 48.1875 22.3125 43.546875 
Q 18.109375 38.921875 18.109375 30.90625 
L 18.109375 0 
L 9.078125 0 
L 9.078125 54.6875 
L 18.109375 54.6875 
L 18.109375 46.1875 
Q 21.34375 51.125 25.703125 53.5625 
Q 30.078125 56 35.796875 56 
Q 45.21875 56 50.046875 50.171875 
Q 54.890625 44.34375 54.890625 33.015625 
z
" id="DejaVuSans-110"/>
     </defs>
     <g transform="translate(598.846875 59.798437)scale(0.1 -0.1)">
      <use xlink:href="#DejaVuSans-116"/>
      <use x="39.208984" xlink:href="#DejaVuSans-114"/>
      <use x="80.322266" xlink:href="#DejaVuSans-97"/>
      <use x="141.601562" xlink:href="#DejaVuSans-105"/>
      <use x="169.384766" xlink:href="#DejaVuSans-110"/>
     </g>
    </g>
    <g id="line2d_33">
     <path d="M 570.846875 70.976562 
L 590.846875 70.976562 
" style="fill:none;stroke:#ff7f0e;stroke-linecap:square;stroke-width:0.5;"/>
    </g>
    <g id="line2d_34"/>
    <g id="text_19">
     <!-- validate -->
     <defs>
      <path d="M 2.984375 54.6875 
L 12.5 54.6875 
L 29.59375 8.796875 
L 46.6875 54.6875 
L 56.203125 54.6875 
L 35.6875 0 
L 23.484375 0 
z
" id="DejaVuSans-118"/>
      <path d="M 45.40625 46.390625 
L 45.40625 75.984375 
L 54.390625 75.984375 
L 54.390625 0 
L 45.40625 0 
L 45.40625 8.203125 
Q 42.578125 3.328125 38.25 0.953125 
Q 33.9375 -1.421875 27.875 -1.421875 
Q 17.96875 -1.421875 11.734375 6.484375 
Q 5.515625 14.40625 5.515625 27.296875 
Q 5.515625 40.1875 11.734375 48.09375 
Q 17.96875 56 27.875 56 
Q 33.9375 56 38.25 53.625 
Q 42.578125 51.265625 45.40625 46.390625 
z
M 14.796875 27.296875 
Q 14.796875 17.390625 18.875 11.75 
Q 22.953125 6.109375 30.078125 6.109375 
Q 37.203125 6.109375 41.296875 11.75 
Q 45.40625 17.390625 45.40625 27.296875 
Q 45.40625 37.203125 41.296875 42.84375 
Q 37.203125 48.484375 30.078125 48.484375 
Q 22.953125 48.484375 18.875 42.84375 
Q 14.796875 37.203125 14.796875 27.296875 
z
" id="DejaVuSans-100"/>
     </defs>
     <g transform="translate(598.846875 74.476562)scale(0.1 -0.1)">
      <use xlink:href="#DejaVuSans-118"/>
      <use x="59.179688" xlink:href="#DejaVuSans-97"/>
      <use x="120.458984" xlink:href="#DejaVuSans-108"/>
      <use x="148.242188" xlink:href="#DejaVuSans-105"/>
      <use x="176.025391" xlink:href="#DejaVuSans-100"/>
      <use x="239.501953" xlink:href="#DejaVuSans-97"/>
      <use x="300.78125" xlink:href="#DejaVuSans-116"/>
      <use x="339.990234" xlink:href="#DejaVuSans-101"/>
     </g>
    </g>
   </g>
  </g>
 </g>
 <defs>
  <clipPath id="pb33a9a8c0f">
   <rect height="271.8" width="558" x="90" y="43.2"/>
  </clipPath>
 </defs>
</svg>
