<?xml version="1.0" encoding="utf-8" standalone="no"?>
<!DOCTYPE svg PUBLIC "-//W3C//DTD SVG 1.1//EN"
  "http://www.w3.org/Graphics/SVG/1.1/DTD/svg11.dtd">
<!-- Created with matplotlib (https://matplotlib.org/) -->
<svg height="360pt" version="1.1" viewBox="0 0 720 360" width="720pt" xmlns="http://www.w3.org/2000/svg" xmlns:xlink="http://www.w3.org/1999/xlink">
 <defs>
  <style type="text/css">
*{stroke-linecap:butt;stroke-linejoin:round;}
  </style>
 </defs>
 <g id="figure_1">
  <g id="patch_1">
   <path d="M 0 360 
L 720 360 
L 720 0 
L 0 0 
z
" style="fill:#ffffff;"/>
  </g>
  <g id="axes_1">
   <g id="patch_2">
    <path d="M 90 315 
L 648 315 
L 648 43.2 
L 90 43.2 
z
" style="fill:#ffffff;"/>
   </g>
   <g id="matplotlib.axis_1">
    <g id="xtick_1">
     <g id="line2d_1">
      <path clip-path="url(#p4eab646065)" d="M 115.363636 315 
L 115.363636 43.2 
" style="fill:none;stroke:#b0b0b0;stroke-linecap:square;stroke-width:0.8;"/>
     </g>
     <g id="line2d_2">
      <defs>
       <path d="M 0 0 
L 0 3.5 
" id="m68de17d4b4" style="stroke:#000000;stroke-width:0.8;"/>
      </defs>
      <g>
       <use style="stroke:#000000;stroke-width:0.8;" x="115.363636" xlink:href="#m68de17d4b4" y="315"/>
      </g>
     </g>
     <g id="text_1">
      <!-- 0 -->
      <defs>
       <path d="M 31.78125 66.40625 
Q 24.171875 66.40625 20.328125 58.90625 
Q 16.5 51.421875 16.5 36.375 
Q 16.5 21.390625 20.328125 13.890625 
Q 24.171875 6.390625 31.78125 6.390625 
Q 39.453125 6.390625 43.28125 13.890625 
Q 47.125 21.390625 47.125 36.375 
Q 47.125 51.421875 43.28125 58.90625 
Q 39.453125 66.40625 31.78125 66.40625 
z
M 31.78125 74.21875 
Q 44.046875 74.21875 50.515625 64.515625 
Q 56.984375 54.828125 56.984375 36.375 
Q 56.984375 17.96875 50.515625 8.265625 
Q 44.046875 -1.421875 31.78125 -1.421875 
Q 19.53125 -1.421875 13.0625 8.265625 
Q 6.59375 17.96875 6.59375 36.375 
Q 6.59375 54.828125 13.0625 64.515625 
Q 19.53125 74.21875 31.78125 74.21875 
z
" id="DejaVuSans-48"/>
      </defs>
      <g transform="translate(112.182386 329.598437)scale(0.1 -0.1)">
       <use xlink:href="#DejaVuSans-48"/>
      </g>
     </g>
    </g>
    <g id="xtick_2">
     <g id="line2d_3">
      <path clip-path="url(#p4eab646065)" d="M 192.987619 315 
L 192.987619 43.2 
" style="fill:none;stroke:#b0b0b0;stroke-linecap:square;stroke-width:0.8;"/>
     </g>
     <g id="line2d_4">
      <g>
       <use style="stroke:#000000;stroke-width:0.8;" x="192.987619" xlink:href="#m68de17d4b4" y="315"/>
      </g>
     </g>
     <g id="text_2">
      <!-- 200 -->
      <defs>
       <path d="M 19.1875 8.296875 
L 53.609375 8.296875 
L 53.609375 0 
L 7.328125 0 
L 7.328125 8.296875 
Q 12.9375 14.109375 22.625 23.890625 
Q 32.328125 33.6875 34.8125 36.53125 
Q 39.546875 41.84375 41.421875 45.53125 
Q 43.3125 49.21875 43.3125 52.78125 
Q 43.3125 58.59375 39.234375 62.25 
Q 35.15625 65.921875 28.609375 65.921875 
Q 23.96875 65.921875 18.8125 64.3125 
Q 13.671875 62.703125 7.8125 59.421875 
L 7.8125 69.390625 
Q 13.765625 71.78125 18.9375 73 
Q 24.125 74.21875 28.421875 74.21875 
Q 39.75 74.21875 46.484375 68.546875 
Q 53.21875 62.890625 53.21875 53.421875 
Q 53.21875 48.921875 51.53125 44.890625 
Q 49.859375 40.875 45.40625 35.40625 
Q 44.1875 33.984375 37.640625 27.21875 
Q 31.109375 20.453125 19.1875 8.296875 
z
" id="DejaVuSans-50"/>
      </defs>
      <g transform="translate(183.443869 329.598437)scale(0.1 -0.1)">
       <use xlink:href="#DejaVuSans-50"/>
       <use x="63.623047" xlink:href="#DejaVuSans-48"/>
       <use x="127.246094" xlink:href="#DejaVuSans-48"/>
      </g>
     </g>
    </g>
    <g id="xtick_3">
     <g id="line2d_5">
      <path clip-path="url(#p4eab646065)" d="M 270.611602 315 
L 270.611602 43.2 
" style="fill:none;stroke:#b0b0b0;stroke-linecap:square;stroke-width:0.8;"/>
     </g>
     <g id="line2d_6">
      <g>
       <use style="stroke:#000000;stroke-width:0.8;" x="270.611602" xlink:href="#m68de17d4b4" y="315"/>
      </g>
     </g>
     <g id="text_3">
      <!-- 400 -->
      <defs>
       <path d="M 37.796875 64.3125 
L 12.890625 25.390625 
L 37.796875 25.390625 
z
M 35.203125 72.90625 
L 47.609375 72.90625 
L 47.609375 25.390625 
L 58.015625 25.390625 
L 58.015625 17.1875 
L 47.609375 17.1875 
L 47.609375 0 
L 37.796875 0 
L 37.796875 17.1875 
L 4.890625 17.1875 
L 4.890625 26.703125 
z
" id="DejaVuSans-52"/>
      </defs>
      <g transform="translate(261.067852 329.598437)scale(0.1 -0.1)">
       <use xlink:href="#DejaVuSans-52"/>
       <use x="63.623047" xlink:href="#DejaVuSans-48"/>
       <use x="127.246094" xlink:href="#DejaVuSans-48"/>
      </g>
     </g>
    </g>
    <g id="xtick_4">
     <g id="line2d_7">
      <path clip-path="url(#p4eab646065)" d="M 348.235585 315 
L 348.235585 43.2 
" style="fill:none;stroke:#b0b0b0;stroke-linecap:square;stroke-width:0.8;"/>
     </g>
     <g id="line2d_8">
      <g>
       <use style="stroke:#000000;stroke-width:0.8;" x="348.235585" xlink:href="#m68de17d4b4" y="315"/>
      </g>
     </g>
     <g id="text_4">
      <!-- 600 -->
      <defs>
       <path d="M 33.015625 40.375 
Q 26.375 40.375 22.484375 35.828125 
Q 18.609375 31.296875 18.609375 23.390625 
Q 18.609375 15.53125 22.484375 10.953125 
Q 26.375 6.390625 33.015625 6.390625 
Q 39.65625 6.390625 43.53125 10.953125 
Q 47.40625 15.53125 47.40625 23.390625 
Q 47.40625 31.296875 43.53125 35.828125 
Q 39.65625 40.375 33.015625 40.375 
z
M 52.59375 71.296875 
L 52.59375 62.3125 
Q 48.875 64.0625 45.09375 64.984375 
Q 41.3125 65.921875 37.59375 65.921875 
Q 27.828125 65.921875 22.671875 59.328125 
Q 17.53125 52.734375 16.796875 39.40625 
Q 19.671875 43.65625 24.015625 45.921875 
Q 28.375 48.1875 33.59375 48.1875 
Q 44.578125 48.1875 50.953125 41.515625 
Q 57.328125 34.859375 57.328125 23.390625 
Q 57.328125 12.15625 50.6875 5.359375 
Q 44.046875 -1.421875 33.015625 -1.421875 
Q 20.359375 -1.421875 13.671875 8.265625 
Q 6.984375 17.96875 6.984375 36.375 
Q 6.984375 53.65625 15.1875 63.9375 
Q 23.390625 74.21875 37.203125 74.21875 
Q 40.921875 74.21875 44.703125 73.484375 
Q 48.484375 72.75 52.59375 71.296875 
z
" id="DejaVuSans-54"/>
      </defs>
      <g transform="translate(338.691835 329.598437)scale(0.1 -0.1)">
       <use xlink:href="#DejaVuSans-54"/>
       <use x="63.623047" xlink:href="#DejaVuSans-48"/>
       <use x="127.246094" xlink:href="#DejaVuSans-48"/>
      </g>
     </g>
    </g>
    <g id="xtick_5">
     <g id="line2d_9">
      <path clip-path="url(#p4eab646065)" d="M 425.859567 315 
L 425.859567 43.2 
" style="fill:none;stroke:#b0b0b0;stroke-linecap:square;stroke-width:0.8;"/>
     </g>
     <g id="line2d_10">
      <g>
       <use style="stroke:#000000;stroke-width:0.8;" x="425.859567" xlink:href="#m68de17d4b4" y="315"/>
      </g>
     </g>
     <g id="text_5">
      <!-- 800 -->
      <defs>
       <path d="M 31.78125 34.625 
Q 24.75 34.625 20.71875 30.859375 
Q 16.703125 27.09375 16.703125 20.515625 
Q 16.703125 13.921875 20.71875 10.15625 
Q 24.75 6.390625 31.78125 6.390625 
Q 38.8125 6.390625 42.859375 10.171875 
Q 46.921875 13.96875 46.921875 20.515625 
Q 46.921875 27.09375 42.890625 30.859375 
Q 38.875 34.625 31.78125 34.625 
z
M 21.921875 38.8125 
Q 15.578125 40.375 12.03125 44.71875 
Q 8.5 49.078125 8.5 55.328125 
Q 8.5 64.0625 14.71875 69.140625 
Q 20.953125 74.21875 31.78125 74.21875 
Q 42.671875 74.21875 48.875 69.140625 
Q 55.078125 64.0625 55.078125 55.328125 
Q 55.078125 49.078125 51.53125 44.71875 
Q 48 40.375 41.703125 38.8125 
Q 48.828125 37.15625 52.796875 32.3125 
Q 56.78125 27.484375 56.78125 20.515625 
Q 56.78125 9.90625 50.3125 4.234375 
Q 43.84375 -1.421875 31.78125 -1.421875 
Q 19.734375 -1.421875 13.25 4.234375 
Q 6.78125 9.90625 6.78125 20.515625 
Q 6.78125 27.484375 10.78125 32.3125 
Q 14.796875 37.15625 21.921875 38.8125 
z
M 18.3125 54.390625 
Q 18.3125 48.734375 21.84375 45.5625 
Q 25.390625 42.390625 31.78125 42.390625 
Q 38.140625 42.390625 41.71875 45.5625 
Q 45.3125 48.734375 45.3125 54.390625 
Q 45.3125 60.0625 41.71875 63.234375 
Q 38.140625 66.40625 31.78125 66.40625 
Q 25.390625 66.40625 21.84375 63.234375 
Q 18.3125 60.0625 18.3125 54.390625 
z
" id="DejaVuSans-56"/>
      </defs>
      <g transform="translate(416.315817 329.598437)scale(0.1 -0.1)">
       <use xlink:href="#DejaVuSans-56"/>
       <use x="63.623047" xlink:href="#DejaVuSans-48"/>
       <use x="127.246094" xlink:href="#DejaVuSans-48"/>
      </g>
     </g>
    </g>
    <g id="xtick_6">
     <g id="line2d_11">
      <path clip-path="url(#p4eab646065)" d="M 503.48355 315 
L 503.48355 43.2 
" style="fill:none;stroke:#b0b0b0;stroke-linecap:square;stroke-width:0.8;"/>
     </g>
     <g id="line2d_12">
      <g>
       <use style="stroke:#000000;stroke-width:0.8;" x="503.48355" xlink:href="#m68de17d4b4" y="315"/>
      </g>
     </g>
     <g id="text_6">
      <!-- 1000 -->
      <defs>
       <path d="M 12.40625 8.296875 
L 28.515625 8.296875 
L 28.515625 63.921875 
L 10.984375 60.40625 
L 10.984375 69.390625 
L 28.421875 72.90625 
L 38.28125 72.90625 
L 38.28125 8.296875 
L 54.390625 8.296875 
L 54.390625 0 
L 12.40625 0 
z
" id="DejaVuSans-49"/>
      </defs>
      <g transform="translate(490.75855 329.598437)scale(0.1 -0.1)">
       <use xlink:href="#DejaVuSans-49"/>
       <use x="63.623047" xlink:href="#DejaVuSans-48"/>
       <use x="127.246094" xlink:href="#DejaVuSans-48"/>
       <use x="190.869141" xlink:href="#DejaVuSans-48"/>
      </g>
     </g>
    </g>
    <g id="xtick_7">
     <g id="line2d_13">
      <path clip-path="url(#p4eab646065)" d="M 581.107533 315 
L 581.107533 43.2 
" style="fill:none;stroke:#b0b0b0;stroke-linecap:square;stroke-width:0.8;"/>
     </g>
     <g id="line2d_14">
      <g>
       <use style="stroke:#000000;stroke-width:0.8;" x="581.107533" xlink:href="#m68de17d4b4" y="315"/>
      </g>
     </g>
     <g id="text_7">
      <!-- 1200 -->
      <g transform="translate(568.382533 329.598437)scale(0.1 -0.1)">
       <use xlink:href="#DejaVuSans-49"/>
       <use x="63.623047" xlink:href="#DejaVuSans-50"/>
       <use x="127.246094" xlink:href="#DejaVuSans-48"/>
       <use x="190.869141" xlink:href="#DejaVuSans-48"/>
      </g>
     </g>
    </g>
    <g id="text_8">
     <!-- epoch -->
     <defs>
      <path d="M 56.203125 29.59375 
L 56.203125 25.203125 
L 14.890625 25.203125 
Q 15.484375 15.921875 20.484375 11.0625 
Q 25.484375 6.203125 34.421875 6.203125 
Q 39.59375 6.203125 44.453125 7.46875 
Q 49.3125 8.734375 54.109375 11.28125 
L 54.109375 2.78125 
Q 49.265625 0.734375 44.1875 -0.34375 
Q 39.109375 -1.421875 33.890625 -1.421875 
Q 20.796875 -1.421875 13.15625 6.1875 
Q 5.515625 13.8125 5.515625 26.8125 
Q 5.515625 40.234375 12.765625 48.109375 
Q 20.015625 56 32.328125 56 
Q 43.359375 56 49.78125 48.890625 
Q 56.203125 41.796875 56.203125 29.59375 
z
M 47.21875 32.234375 
Q 47.125 39.59375 43.09375 43.984375 
Q 39.0625 48.390625 32.421875 48.390625 
Q 24.90625 48.390625 20.390625 44.140625 
Q 15.875 39.890625 15.1875 32.171875 
z
" id="DejaVuSans-101"/>
      <path d="M 18.109375 8.203125 
L 18.109375 -20.796875 
L 9.078125 -20.796875 
L 9.078125 54.6875 
L 18.109375 54.6875 
L 18.109375 46.390625 
Q 20.953125 51.265625 25.265625 53.625 
Q 29.59375 56 35.59375 56 
Q 45.5625 56 51.78125 48.09375 
Q 58.015625 40.1875 58.015625 27.296875 
Q 58.015625 14.40625 51.78125 6.484375 
Q 45.5625 -1.421875 35.59375 -1.421875 
Q 29.59375 -1.421875 25.265625 0.953125 
Q 20.953125 3.328125 18.109375 8.203125 
z
M 48.6875 27.296875 
Q 48.6875 37.203125 44.609375 42.84375 
Q 40.53125 48.484375 33.40625 48.484375 
Q 26.265625 48.484375 22.1875 42.84375 
Q 18.109375 37.203125 18.109375 27.296875 
Q 18.109375 17.390625 22.1875 11.75 
Q 26.265625 6.109375 33.40625 6.109375 
Q 40.53125 6.109375 44.609375 11.75 
Q 48.6875 17.390625 48.6875 27.296875 
z
" id="DejaVuSans-112"/>
      <path d="M 30.609375 48.390625 
Q 23.390625 48.390625 19.1875 42.75 
Q 14.984375 37.109375 14.984375 27.296875 
Q 14.984375 17.484375 19.15625 11.84375 
Q 23.34375 6.203125 30.609375 6.203125 
Q 37.796875 6.203125 41.984375 11.859375 
Q 46.1875 17.53125 46.1875 27.296875 
Q 46.1875 37.015625 41.984375 42.703125 
Q 37.796875 48.390625 30.609375 48.390625 
z
M 30.609375 56 
Q 42.328125 56 49.015625 48.375 
Q 55.71875 40.765625 55.71875 27.296875 
Q 55.71875 13.875 49.015625 6.21875 
Q 42.328125 -1.421875 30.609375 -1.421875 
Q 18.84375 -1.421875 12.171875 6.21875 
Q 5.515625 13.875 5.515625 27.296875 
Q 5.515625 40.765625 12.171875 48.375 
Q 18.84375 56 30.609375 56 
z
" id="DejaVuSans-111"/>
      <path d="M 48.78125 52.59375 
L 48.78125 44.1875 
Q 44.96875 46.296875 41.140625 47.34375 
Q 37.3125 48.390625 33.40625 48.390625 
Q 24.65625 48.390625 19.8125 42.84375 
Q 14.984375 37.3125 14.984375 27.296875 
Q 14.984375 17.28125 19.8125 11.734375 
Q 24.65625 6.203125 33.40625 6.203125 
Q 37.3125 6.203125 41.140625 7.25 
Q 44.96875 8.296875 48.78125 10.40625 
L 48.78125 2.09375 
Q 45.015625 0.34375 40.984375 -0.53125 
Q 36.96875 -1.421875 32.421875 -1.421875 
Q 20.0625 -1.421875 12.78125 6.34375 
Q 5.515625 14.109375 5.515625 27.296875 
Q 5.515625 40.671875 12.859375 48.328125 
Q 20.21875 56 33.015625 56 
Q 37.15625 56 41.109375 55.140625 
Q 45.0625 54.296875 48.78125 52.59375 
z
" id="DejaVuSans-99"/>
      <path d="M 54.890625 33.015625 
L 54.890625 0 
L 45.90625 0 
L 45.90625 32.71875 
Q 45.90625 40.484375 42.875 44.328125 
Q 39.84375 48.1875 33.796875 48.1875 
Q 26.515625 48.1875 22.3125 43.546875 
Q 18.109375 38.921875 18.109375 30.90625 
L 18.109375 0 
L 9.078125 0 
L 9.078125 75.984375 
L 18.109375 75.984375 
L 18.109375 46.1875 
Q 21.34375 51.125 25.703125 53.5625 
Q 30.078125 56 35.796875 56 
Q 45.21875 56 50.046875 50.171875 
Q 54.890625 44.34375 54.890625 33.015625 
z
" id="DejaVuSans-104"/>
     </defs>
     <g transform="translate(353.771875 343.276563)scale(0.1 -0.1)">
      <use xlink:href="#DejaVuSans-101"/>
      <use x="61.523438" xlink:href="#DejaVuSans-112"/>
      <use x="125" xlink:href="#DejaVuSans-111"/>
      <use x="186.181641" xlink:href="#DejaVuSans-99"/>
      <use x="241.162109" xlink:href="#DejaVuSans-104"/>
     </g>
    </g>
   </g>
   <g id="matplotlib.axis_2">
    <g id="ytick_1">
     <g id="line2d_15">
      <path clip-path="url(#p4eab646065)" d="M 90 283.197681 
L 648 283.197681 
" style="fill:none;stroke:#b0b0b0;stroke-linecap:square;stroke-width:0.8;"/>
     </g>
     <g id="line2d_16">
      <defs>
       <path d="M 0 0 
L -3.5 0 
" id="m902f880984" style="stroke:#000000;stroke-width:0.8;"/>
      </defs>
      <g>
       <use style="stroke:#000000;stroke-width:0.8;" x="90" xlink:href="#m902f880984" y="283.197681"/>
      </g>
     </g>
     <g id="text_9">
      <!-- 0.3 -->
      <defs>
       <path d="M 10.6875 12.40625 
L 21 12.40625 
L 21 0 
L 10.6875 0 
z
" id="DejaVuSans-46"/>
       <path d="M 40.578125 39.3125 
Q 47.65625 37.796875 51.625 33 
Q 55.609375 28.21875 55.609375 21.1875 
Q 55.609375 10.40625 48.1875 4.484375 
Q 40.765625 -1.421875 27.09375 -1.421875 
Q 22.515625 -1.421875 17.65625 -0.515625 
Q 12.796875 0.390625 7.625 2.203125 
L 7.625 11.71875 
Q 11.71875 9.328125 16.59375 8.109375 
Q 21.484375 6.890625 26.8125 6.890625 
Q 36.078125 6.890625 40.9375 10.546875 
Q 45.796875 14.203125 45.796875 21.1875 
Q 45.796875 27.640625 41.28125 31.265625 
Q 36.765625 34.90625 28.71875 34.90625 
L 20.21875 34.90625 
L 20.21875 43.015625 
L 29.109375 43.015625 
Q 36.375 43.015625 40.234375 45.921875 
Q 44.09375 48.828125 44.09375 54.296875 
Q 44.09375 59.90625 40.109375 62.90625 
Q 36.140625 65.921875 28.71875 65.921875 
Q 24.65625 65.921875 20.015625 65.03125 
Q 15.375 64.15625 9.8125 62.3125 
L 9.8125 71.09375 
Q 15.4375 72.65625 20.34375 73.4375 
Q 25.25 74.21875 29.59375 74.21875 
Q 40.828125 74.21875 47.359375 69.109375 
Q 53.90625 64.015625 53.90625 55.328125 
Q 53.90625 49.265625 50.4375 45.09375 
Q 46.96875 40.921875 40.578125 39.3125 
z
" id="DejaVuSans-51"/>
      </defs>
      <g transform="translate(67.096875 286.9969)scale(0.1 -0.1)">
       <use xlink:href="#DejaVuSans-48"/>
       <use x="63.623047" xlink:href="#DejaVuSans-46"/>
       <use x="95.410156" xlink:href="#DejaVuSans-51"/>
      </g>
     </g>
    </g>
    <g id="ytick_2">
     <g id="line2d_17">
      <path clip-path="url(#p4eab646065)" d="M 90 248.469514 
L 648 248.469514 
" style="fill:none;stroke:#b0b0b0;stroke-linecap:square;stroke-width:0.8;"/>
     </g>
     <g id="line2d_18">
      <g>
       <use style="stroke:#000000;stroke-width:0.8;" x="90" xlink:href="#m902f880984" y="248.469514"/>
      </g>
     </g>
     <g id="text_10">
      <!-- 0.4 -->
      <g transform="translate(67.096875 252.268733)scale(0.1 -0.1)">
       <use xlink:href="#DejaVuSans-48"/>
       <use x="63.623047" xlink:href="#DejaVuSans-46"/>
       <use x="95.410156" xlink:href="#DejaVuSans-52"/>
      </g>
     </g>
    </g>
    <g id="ytick_3">
     <g id="line2d_19">
      <path clip-path="url(#p4eab646065)" d="M 90 213.741347 
L 648 213.741347 
" style="fill:none;stroke:#b0b0b0;stroke-linecap:square;stroke-width:0.8;"/>
     </g>
     <g id="line2d_20">
      <g>
       <use style="stroke:#000000;stroke-width:0.8;" x="90" xlink:href="#m902f880984" y="213.741347"/>
      </g>
     </g>
     <g id="text_11">
      <!-- 0.5 -->
      <defs>
       <path d="M 10.796875 72.90625 
L 49.515625 72.90625 
L 49.515625 64.59375 
L 19.828125 64.59375 
L 19.828125 46.734375 
Q 21.96875 47.46875 24.109375 47.828125 
Q 26.265625 48.1875 28.421875 48.1875 
Q 40.625 48.1875 47.75 41.5 
Q 54.890625 34.8125 54.890625 23.390625 
Q 54.890625 11.625 47.5625 5.09375 
Q 40.234375 -1.421875 26.90625 -1.421875 
Q 22.3125 -1.421875 17.546875 -0.640625 
Q 12.796875 0.140625 7.71875 1.703125 
L 7.71875 11.625 
Q 12.109375 9.234375 16.796875 8.0625 
Q 21.484375 6.890625 26.703125 6.890625 
Q 35.15625 6.890625 40.078125 11.328125 
Q 45.015625 15.765625 45.015625 23.390625 
Q 45.015625 31 40.078125 35.4375 
Q 35.15625 39.890625 26.703125 39.890625 
Q 22.75 39.890625 18.8125 39.015625 
Q 14.890625 38.140625 10.796875 36.28125 
z
" id="DejaVuSans-53"/>
      </defs>
      <g transform="translate(67.096875 217.540565)scale(0.1 -0.1)">
       <use xlink:href="#DejaVuSans-48"/>
       <use x="63.623047" xlink:href="#DejaVuSans-46"/>
       <use x="95.410156" xlink:href="#DejaVuSans-53"/>
      </g>
     </g>
    </g>
    <g id="ytick_4">
     <g id="line2d_21">
      <path clip-path="url(#p4eab646065)" d="M 90 179.01318 
L 648 179.01318 
" style="fill:none;stroke:#b0b0b0;stroke-linecap:square;stroke-width:0.8;"/>
     </g>
     <g id="line2d_22">
      <g>
       <use style="stroke:#000000;stroke-width:0.8;" x="90" xlink:href="#m902f880984" y="179.01318"/>
      </g>
     </g>
     <g id="text_12">
      <!-- 0.6 -->
      <g transform="translate(67.096875 182.812398)scale(0.1 -0.1)">
       <use xlink:href="#DejaVuSans-48"/>
       <use x="63.623047" xlink:href="#DejaVuSans-46"/>
       <use x="95.410156" xlink:href="#DejaVuSans-54"/>
      </g>
     </g>
    </g>
    <g id="ytick_5">
     <g id="line2d_23">
      <path clip-path="url(#p4eab646065)" d="M 90 144.285012 
L 648 144.285012 
" style="fill:none;stroke:#b0b0b0;stroke-linecap:square;stroke-width:0.8;"/>
     </g>
     <g id="line2d_24">
      <g>
       <use style="stroke:#000000;stroke-width:0.8;" x="90" xlink:href="#m902f880984" y="144.285012"/>
      </g>
     </g>
     <g id="text_13">
      <!-- 0.7 -->
      <defs>
       <path d="M 8.203125 72.90625 
L 55.078125 72.90625 
L 55.078125 68.703125 
L 28.609375 0 
L 18.3125 0 
L 43.21875 64.59375 
L 8.203125 64.59375 
z
" id="DejaVuSans-55"/>
      </defs>
      <g transform="translate(67.096875 148.084231)scale(0.1 -0.1)">
       <use xlink:href="#DejaVuSans-48"/>
       <use x="63.623047" xlink:href="#DejaVuSans-46"/>
       <use x="95.410156" xlink:href="#DejaVuSans-55"/>
      </g>
     </g>
    </g>
    <g id="ytick_6">
     <g id="line2d_25">
      <path clip-path="url(#p4eab646065)" d="M 90 109.556845 
L 648 109.556845 
" style="fill:none;stroke:#b0b0b0;stroke-linecap:square;stroke-width:0.8;"/>
     </g>
     <g id="line2d_26">
      <g>
       <use style="stroke:#000000;stroke-width:0.8;" x="90" xlink:href="#m902f880984" y="109.556845"/>
      </g>
     </g>
     <g id="text_14">
      <!-- 0.8 -->
      <g transform="translate(67.096875 113.356064)scale(0.1 -0.1)">
       <use xlink:href="#DejaVuSans-48"/>
       <use x="63.623047" xlink:href="#DejaVuSans-46"/>
       <use x="95.410156" xlink:href="#DejaVuSans-56"/>
      </g>
     </g>
    </g>
    <g id="ytick_7">
     <g id="line2d_27">
      <path clip-path="url(#p4eab646065)" d="M 90 74.828678 
L 648 74.828678 
" style="fill:none;stroke:#b0b0b0;stroke-linecap:square;stroke-width:0.8;"/>
     </g>
     <g id="line2d_28">
      <g>
       <use style="stroke:#000000;stroke-width:0.8;" x="90" xlink:href="#m902f880984" y="74.828678"/>
      </g>
     </g>
     <g id="text_15">
      <!-- 0.9 -->
      <defs>
       <path d="M 10.984375 1.515625 
L 10.984375 10.5 
Q 14.703125 8.734375 18.5 7.8125 
Q 22.3125 6.890625 25.984375 6.890625 
Q 35.75 6.890625 40.890625 13.453125 
Q 46.046875 20.015625 46.78125 33.40625 
Q 43.953125 29.203125 39.59375 26.953125 
Q 35.25 24.703125 29.984375 24.703125 
Q 19.046875 24.703125 12.671875 31.3125 
Q 6.296875 37.9375 6.296875 49.421875 
Q 6.296875 60.640625 12.9375 67.421875 
Q 19.578125 74.21875 30.609375 74.21875 
Q 43.265625 74.21875 49.921875 64.515625 
Q 56.59375 54.828125 56.59375 36.375 
Q 56.59375 19.140625 48.40625 8.859375 
Q 40.234375 -1.421875 26.421875 -1.421875 
Q 22.703125 -1.421875 18.890625 -0.6875 
Q 15.09375 0.046875 10.984375 1.515625 
z
M 30.609375 32.421875 
Q 37.25 32.421875 41.125 36.953125 
Q 45.015625 41.5 45.015625 49.421875 
Q 45.015625 57.28125 41.125 61.84375 
Q 37.25 66.40625 30.609375 66.40625 
Q 23.96875 66.40625 20.09375 61.84375 
Q 16.21875 57.28125 16.21875 49.421875 
Q 16.21875 41.5 20.09375 36.953125 
Q 23.96875 32.421875 30.609375 32.421875 
z
" id="DejaVuSans-57"/>
      </defs>
      <g transform="translate(67.096875 78.627897)scale(0.1 -0.1)">
       <use xlink:href="#DejaVuSans-48"/>
       <use x="63.623047" xlink:href="#DejaVuSans-46"/>
       <use x="95.410156" xlink:href="#DejaVuSans-57"/>
      </g>
     </g>
    </g>
    <g id="text_16">
     <!-- accuracy -->
     <defs>
      <path d="M 34.28125 27.484375 
Q 23.390625 27.484375 19.1875 25 
Q 14.984375 22.515625 14.984375 16.5 
Q 14.984375 11.71875 18.140625 8.90625 
Q 21.296875 6.109375 26.703125 6.109375 
Q 34.1875 6.109375 38.703125 11.40625 
Q 43.21875 16.703125 43.21875 25.484375 
L 43.21875 27.484375 
z
M 52.203125 31.203125 
L 52.203125 0 
L 43.21875 0 
L 43.21875 8.296875 
Q 40.140625 3.328125 35.546875 0.953125 
Q 30.953125 -1.421875 24.3125 -1.421875 
Q 15.921875 -1.421875 10.953125 3.296875 
Q 6 8.015625 6 15.921875 
Q 6 25.140625 12.171875 29.828125 
Q 18.359375 34.515625 30.609375 34.515625 
L 43.21875 34.515625 
L 43.21875 35.40625 
Q 43.21875 41.609375 39.140625 45 
Q 35.0625 48.390625 27.6875 48.390625 
Q 23 48.390625 18.546875 47.265625 
Q 14.109375 46.140625 10.015625 43.890625 
L 10.015625 52.203125 
Q 14.9375 54.109375 19.578125 55.046875 
Q 24.21875 56 28.609375 56 
Q 40.484375 56 46.34375 49.84375 
Q 52.203125 43.703125 52.203125 31.203125 
z
" id="DejaVuSans-97"/>
      <path d="M 8.5 21.578125 
L 8.5 54.6875 
L 17.484375 54.6875 
L 17.484375 21.921875 
Q 17.484375 14.15625 20.5 10.265625 
Q 23.53125 6.390625 29.59375 6.390625 
Q 36.859375 6.390625 41.078125 11.03125 
Q 45.3125 15.671875 45.3125 23.6875 
L 45.3125 54.6875 
L 54.296875 54.6875 
L 54.296875 0 
L 45.3125 0 
L 45.3125 8.40625 
Q 42.046875 3.421875 37.71875 1 
Q 33.40625 -1.421875 27.6875 -1.421875 
Q 18.265625 -1.421875 13.375 4.4375 
Q 8.5 10.296875 8.5 21.578125 
z
M 31.109375 56 
z
" id="DejaVuSans-117"/>
      <path d="M 41.109375 46.296875 
Q 39.59375 47.171875 37.8125 47.578125 
Q 36.03125 48 33.890625 48 
Q 26.265625 48 22.1875 43.046875 
Q 18.109375 38.09375 18.109375 28.8125 
L 18.109375 0 
L 9.078125 0 
L 9.078125 54.6875 
L 18.109375 54.6875 
L 18.109375 46.1875 
Q 20.953125 51.171875 25.484375 53.578125 
Q 30.03125 56 36.53125 56 
Q 37.453125 56 38.578125 55.875 
Q 39.703125 55.765625 41.0625 55.515625 
z
" id="DejaVuSans-114"/>
      <path d="M 32.171875 -5.078125 
Q 28.375 -14.84375 24.75 -17.8125 
Q 21.140625 -20.796875 15.09375 -20.796875 
L 7.90625 -20.796875 
L 7.90625 -13.28125 
L 13.1875 -13.28125 
Q 16.890625 -13.28125 18.9375 -11.515625 
Q 21 -9.765625 23.484375 -3.21875 
L 25.09375 0.875 
L 2.984375 54.6875 
L 12.5 54.6875 
L 29.59375 11.921875 
L 46.6875 54.6875 
L 56.203125 54.6875 
z
" id="DejaVuSans-121"/>
     </defs>
     <g transform="translate(61.017187 201.659375)rotate(-90)scale(0.1 -0.1)">
      <use xlink:href="#DejaVuSans-97"/>
      <use x="61.279297" xlink:href="#DejaVuSans-99"/>
      <use x="116.259766" xlink:href="#DejaVuSans-99"/>
      <use x="171.240234" xlink:href="#DejaVuSans-117"/>
      <use x="234.619141" xlink:href="#DejaVuSans-114"/>
      <use x="275.732422" xlink:href="#DejaVuSans-97"/>
      <use x="337.011719" xlink:href="#DejaVuSans-99"/>
      <use x="391.992188" xlink:href="#DejaVuSans-121"/>
     </g>
    </g>
   </g>
   <g id="line2d_29">
    <path clip-path="url(#p4eab646065)" d="M 115.363636 302.298173 
L 115.751756 299.69356 
L 116.527996 302.124532 
L 116.916116 294.831617 
L 117.304236 299.867201 
L 118.080476 296.828487 
L 118.468596 298.391254 
L 118.856716 296.133923 
L 119.244836 286.149575 
L 119.632955 293.182029 
L 120.021075 297.349409 
L 120.409195 298.651715 
L 120.797315 295.52618 
L 121.185435 295.873462 
L 121.573555 292.487466 
L 121.961675 292.574286 
L 122.349795 285.368191 
L 122.737915 293.268849 
L 123.902274 280.506248 
L 124.290394 284.065885 
L 124.678514 285.715473 
L 125.066634 284.499987 
L 125.454754 276.68615 
L 125.842874 277.988456 
L 126.230994 272.952872 
L 126.619114 271.650565 
L 127.007234 265.139034 
L 127.395354 261.058474 
L 127.783474 260.363911 
L 128.171594 253.244637 
L 128.559713 248.556334 
L 128.947833 239.961113 
L 129.335953 241.871162 
L 129.724073 234.838708 
L 130.112193 231.192251 
L 130.500313 231.01861 
L 130.888433 223.899336 
L 131.276553 223.465234 
L 131.664673 215.304114 
L 132.052793 221.381543 
L 132.440913 205.319766 
L 132.829032 208.09802 
L 133.217152 203.409717 
L 133.605272 201.152386 
L 133.993392 193.251728 
L 134.381512 190.907577 
L 134.769632 193.164908 
L 135.157752 187.087478 
L 135.933992 180.228665 
L 136.322112 179.794563 
L 136.710232 175.974465 
L 137.486471 166.250578 
L 137.874591 167.466064 
L 138.262711 164.427349 
L 138.650831 155.918948 
L 139.427071 151.404287 
L 139.815191 149.146956 
L 140.203311 148.539213 
L 140.591431 144.979576 
L 140.979551 145.587319 
L 141.367671 144.632294 
L 141.75579 140.291273 
L 142.14391 137.947122 
L 142.53203 134.127024 
L 142.92015 134.908407 
L 143.30827 128.830978 
L 143.69639 132.216974 
L 144.08451 129.959644 
L 144.47263 128.744158 
L 145.24887 120.669859 
L 145.63699 121.103961 
L 146.02511 123.274471 
L 146.413229 121.01714 
L 146.801349 121.798524 
L 147.189469 117.891605 
L 147.577589 117.631144 
L 147.965709 116.936581 
L 148.353829 114.505609 
L 148.741949 117.283863 
L 149.130069 115.200172 
L 149.518189 114.939711 
L 149.906309 113.724225 
L 150.294429 113.376944 
L 150.682549 108.949102 
L 151.070668 111.293254 
L 151.458788 110.42505 
L 151.846908 110.077768 
L 152.235028 111.293254 
L 153.011268 103.739877 
L 153.399388 105.042184 
L 154.563748 110.59869 
L 154.951868 107.820437 
L 155.339987 106.691772 
L 155.728107 105.129004 
L 156.116227 102.958494 
L 156.504347 105.389465 
L 156.892467 104.781722 
L 157.280587 104.955363 
L 157.668707 103.132134 
L 158.056827 104.087159 
L 158.444947 103.653057 
L 158.833067 105.389465 
L 159.221187 99.919779 
L 159.997426 101.482546 
L 160.385546 98.877934 
L 160.773666 103.218955 
L 161.161786 100.353881 
L 161.549906 100.09342 
L 161.938026 103.392596 
L 162.326146 102.090289 
L 163.102386 96.533783 
L 163.490506 99.051575 
L 163.878626 97.054705 
L 164.266745 98.357011 
L 164.654865 96.620603 
L 165.042985 95.839219 
L 165.431105 95.92604 
L 165.819225 92.279582 
L 166.207345 95.491938 
L 166.595465 93.234607 
L 166.983585 96.794244 
L 167.371705 96.446962 
L 167.759825 93.147786 
L 168.147945 98.183371 
L 168.536065 92.974146 
L 168.924184 90.195892 
L 169.700424 97.054705 
L 170.088544 91.585019 
L 170.476664 89.240868 
L 170.864784 95.92604 
L 171.252904 93.495068 
L 171.641024 89.501329 
L 172.029144 92.887325 
L 172.417264 94.710554 
L 172.805384 91.324558 
L 173.193504 92.800505 
L 173.581623 91.75866 
L 173.969743 90.369533 
L 174.357863 89.501329 
L 174.745983 91.932301 
L 175.134103 92.974146 
L 175.522223 89.76179 
L 175.910343 90.109072 
L 176.298463 85.854871 
L 176.686583 89.414508 
L 177.074703 86.202153 
L 177.462823 90.109072 
L 177.850942 88.459484 
L 178.239062 91.150917 
L 178.627182 88.285843 
L 179.015302 87.59128 
L 179.403422 90.195892 
L 179.791542 88.806765 
L 180.179662 90.369533 
L 180.955902 89.76179 
L 181.344022 88.025382 
L 181.732142 87.938561 
L 182.120262 82.989797 
L 182.508381 86.028512 
L 182.896501 91.064096 
L 183.284621 86.549435 
L 183.672741 87.851741 
L 184.060861 88.459484 
L 184.448981 84.639385 
L 184.837101 88.025382 
L 185.225221 87.417639 
L 185.613341 85.50759 
L 186.001461 89.84861 
L 186.389581 85.50759 
L 186.7777 87.59128 
L 187.16582 85.768051 
L 187.55394 85.941692 
L 187.94206 85.68123 
L 188.7183 83.4239 
L 189.10642 84.813026 
L 189.49454 85.073488 
L 189.88266 85.941692 
L 190.27078 84.552565 
L 190.6589 82.034773 
L 191.04702 83.076618 
L 191.823259 83.163438 
L 192.211379 84.031642 
L 192.599499 81.079748 
L 192.987619 81.861132 
L 193.375739 81.861132 
L 193.763859 84.552565 
L 194.151979 81.687491 
L 194.540099 84.552565 
L 194.928219 83.771181 
L 195.316339 81.600671 
L 195.704459 84.813026 
L 196.092578 82.121593 
L 196.480698 82.295234 
L 196.868818 83.684361 
L 197.256938 83.4239 
L 198.033178 82.208414 
L 198.421298 82.729336 
L 198.809418 82.468875 
L 199.197538 80.037903 
L 199.585658 82.295234 
L 199.973778 80.992928 
L 200.361897 80.906107 
L 200.750017 79.169699 
L 201.138137 78.301495 
L 201.526257 83.076618 
L 201.914377 80.558826 
L 202.302497 79.951083 
L 202.690617 81.687491 
L 203.078737 78.127854 
L 203.466857 80.124724 
L 203.854977 80.472005 
L 204.243097 83.163438 
L 204.631217 80.992928 
L 205.019336 79.777442 
L 205.407456 80.645646 
L 205.795576 78.909238 
L 206.183696 80.558826 
L 206.571816 80.732467 
L 206.959936 81.166569 
L 207.348056 82.034773 
L 207.736176 81.861132 
L 208.124296 78.127854 
L 208.900536 82.642516 
L 209.288655 79.516981 
L 209.676775 79.082879 
L 210.064895 78.388315 
L 210.453015 78.735597 
L 210.841135 81.253389 
L 211.229255 78.996058 
L 211.617375 77.867393 
L 212.005495 78.735597 
L 212.393615 82.468875 
L 212.781735 77.520111 
L 213.169855 76.999189 
L 213.557975 79.25652 
L 213.946094 78.041034 
L 214.334214 78.214675 
L 214.722334 79.516981 
L 215.110454 76.478266 
L 215.498574 76.651907 
L 215.886694 79.516981 
L 216.274814 77.520111 
L 216.662934 78.822417 
L 217.051054 76.217805 
L 217.439174 80.906107 
L 218.215414 76.999189 
L 218.603533 77.954213 
L 219.379773 75.17596 
L 220.156013 76.999189 
L 220.544133 76.825548 
L 220.932253 78.301495 
L 221.320373 75.436421 
L 221.708493 76.912368 
L 222.484733 74.741858 
L 222.872852 76.217805 
L 223.649092 76.130984 
L 224.037212 77.34647 
L 224.425332 77.086009 
L 224.813452 73.17909 
L 225.589692 78.041034 
L 225.977812 78.041034 
L 226.365932 76.478266 
L 226.754052 76.044164 
L 227.142172 73.439552 
L 227.530291 78.301495 
L 227.918411 78.127854 
L 228.306531 75.610062 
L 228.694651 74.741858 
L 229.082771 77.520111 
L 229.470891 76.044164 
L 229.859011 77.086009 
L 230.247131 77.25965 
L 231.023371 76.391446 
L 231.411491 75.002319 
L 231.79961 77.606932 
L 232.18773 75.349601 
L 232.57585 75.696882 
L 232.96397 76.391446 
L 233.35209 75.089139 
L 233.74021 74.655037 
L 234.12833 76.651907 
L 234.51645 77.25965 
L 234.90457 75.436421 
L 235.29269 75.523242 
L 235.68081 73.786833 
L 236.06893 74.828678 
L 236.457049 74.481397 
L 236.845169 74.915499 
L 237.233289 73.005449 
L 237.621409 75.783703 
L 238.009529 74.915499 
L 238.397649 75.349601 
L 238.785769 72.831809 
L 239.173889 75.783703 
L 239.562009 74.394576 
L 239.950129 74.481397 
L 240.338249 73.700013 
L 240.726369 75.957344 
L 241.114488 73.005449 
L 241.502608 73.613192 
L 241.890728 72.918629 
L 242.278848 73.09227 
L 242.666968 75.26278 
L 243.055088 75.957344 
L 243.443208 72.484527 
L 243.831328 73.526372 
L 244.219448 72.137245 
L 244.607568 73.005449 
L 244.995688 74.220935 
L 245.383807 71.963604 
L 245.771927 74.047294 
L 246.160047 74.481397 
L 246.548167 72.571347 
L 246.936287 73.786833 
L 247.324407 74.568217 
L 247.712527 74.741858 
L 248.100647 73.613192 
L 248.488767 77.086009 
L 248.876887 73.005449 
L 249.265007 74.741858 
L 249.653127 73.960474 
L 250.041246 73.526372 
L 250.429366 76.825548 
L 250.817486 73.352731 
L 251.205606 73.352731 
L 251.593726 72.397707 
L 251.981846 73.352731 
L 252.369966 75.436421 
L 252.758086 75.17596 
L 253.146206 74.481397 
L 253.534326 75.349601 
L 253.922446 75.26278 
L 254.310565 74.047294 
L 254.698685 71.182221 
L 255.086805 71.616323 
L 255.474925 71.876784 
L 255.863045 72.918629 
L 256.639285 72.050425 
L 257.027405 69.706274 
L 257.415525 73.613192 
L 257.803645 71.703143 
L 258.191765 73.786833 
L 258.579885 71.269041 
L 258.968004 73.005449 
L 259.356124 71.00858 
L 259.744244 70.487657 
L 260.132364 72.310886 
L 260.520484 69.358992 
L 261.296724 73.17909 
L 261.684844 72.397707 
L 262.072964 74.828678 
L 262.461084 71.269041 
L 262.849204 72.831809 
L 263.237324 70.921759 
L 263.625443 72.224066 
L 264.013563 71.269041 
L 264.401683 71.529502 
L 264.789803 73.17909 
L 265.177923 71.876784 
L 265.566043 70.140376 
L 265.954163 72.397707 
L 266.342283 71.182221 
L 266.730403 72.224066 
L 267.118523 72.831809 
L 267.506643 70.487657 
L 267.894762 71.269041 
L 268.282882 70.314016 
L 268.671002 73.17909 
L 269.059122 71.269041 
L 269.447242 70.921759 
L 270.223482 69.706274 
L 270.611602 71.789964 
L 270.999722 68.490788 
L 271.387842 70.140376 
L 271.775962 69.532633 
L 272.552201 71.269041 
L 272.940321 71.269041 
L 273.328441 73.352731 
L 273.716561 72.571347 
L 274.104681 70.314016 
L 274.492801 70.227196 
L 274.880921 69.098531 
L 275.269041 69.358992 
L 275.657161 68.403967 
L 276.045281 69.01171 
L 276.433401 71.789964 
L 276.82152 69.966735 
L 277.20964 73.873654 
L 277.59776 71.00858 
L 277.98588 70.574478 
L 278.374 73.960474 
L 278.76212 71.0954 
L 279.15024 71.963604 
L 279.53836 71.616323 
L 279.92648 69.272171 
L 280.3146 69.272171 
L 280.70272 67.709404 
L 281.09084 70.053555 
L 281.478959 69.185351 
L 281.867079 70.314016 
L 282.255199 69.966735 
L 282.643319 70.314016 
L 283.031439 68.838069 
L 283.419559 70.834939 
L 283.807679 71.0954 
L 284.195799 69.358992 
L 284.583919 69.358992 
L 284.972039 71.355861 
L 285.360159 67.883045 
L 286.136398 72.224066 
L 286.524518 69.793094 
L 286.912638 70.053555 
L 287.300758 68.230326 
L 287.688878 71.0954 
L 288.076998 70.748119 
L 288.465118 71.0954 
L 288.853238 72.137245 
L 289.241358 68.403967 
L 289.629478 68.664429 
L 290.017598 71.789964 
L 290.405717 72.137245 
L 290.793837 70.140376 
L 291.181957 67.014841 
L 291.570077 70.661298 
L 291.958197 69.098531 
L 292.346317 70.921759 
L 292.734437 68.490788 
L 293.510677 68.056686 
L 293.898797 70.487657 
L 294.286917 69.879914 
L 294.675037 69.01171 
L 295.063156 71.703143 
L 295.451276 68.490788 
L 295.839396 68.403967 
L 296.227516 69.185351 
L 296.615636 71.442682 
L 297.003756 70.574478 
L 297.391876 70.661298 
L 297.779996 67.362122 
L 298.168116 70.487657 
L 298.556236 67.622584 
L 298.944356 67.448943 
L 299.332475 69.793094 
L 299.720595 68.92489 
L 300.108715 67.535763 
L 300.496835 69.706274 
L 300.884955 70.140376 
L 301.273075 69.532633 
L 301.661195 70.661298 
L 302.049315 69.619453 
L 302.437435 66.233457 
L 302.825555 70.053555 
L 303.601795 67.014841 
L 303.989914 66.407098 
L 304.378034 66.92802 
L 304.766154 68.230326 
L 305.154274 67.275302 
L 305.542394 67.275302 
L 306.318634 66.493918 
L 306.706754 70.487657 
L 307.094874 69.098531 
L 307.482994 69.01171 
L 307.871114 68.577608 
L 308.259233 68.838069 
L 308.647353 69.272171 
L 309.035473 67.883045 
L 309.423593 68.230326 
L 309.811713 69.098531 
L 310.199833 68.664429 
L 310.587953 71.182221 
L 310.976073 68.92489 
L 311.364193 65.538894 
L 311.752313 67.535763 
L 312.140433 68.838069 
L 312.528553 67.535763 
L 312.916672 67.014841 
L 313.304792 66.92802 
L 313.692912 65.625714 
L 314.081032 67.535763 
L 314.469152 68.230326 
L 314.857272 70.227196 
L 315.245392 66.407098 
L 315.633512 67.448943 
L 316.021632 66.493918 
L 316.409752 68.838069 
L 316.797872 66.407098 
L 317.962231 68.664429 
L 318.350351 66.92802 
L 318.738471 66.667559 
L 319.126591 66.754379 
L 319.514711 65.886175 
L 319.902831 68.490788 
L 320.290951 69.358992 
L 320.679071 68.838069 
L 321.067191 65.886175 
L 321.455311 67.883045 
L 321.84343 66.754379 
L 322.23155 68.577608 
L 322.61967 65.625714 
L 323.00779 67.883045 
L 323.39591 67.969865 
L 323.78403 69.619453 
L 324.17215 62.934281 
L 324.56027 66.320277 
L 324.94839 66.754379 
L 325.33651 67.448943 
L 325.72463 67.709404 
L 326.11275 64.323408 
L 326.888989 69.272171 
L 327.277109 67.709404 
L 328.053349 67.969865 
L 328.441469 66.580739 
L 328.829589 67.969865 
L 329.217709 68.056686 
L 329.605829 66.8412 
L 330.770188 69.01171 
L 331.158308 65.191612 
L 331.546428 67.535763 
L 331.934548 64.583869 
L 332.322668 64.931151 
L 332.710788 65.104791 
L 333.098908 66.667559 
L 333.487028 65.972996 
L 333.875148 67.622584 
L 334.263268 66.8412 
L 334.651388 67.362122 
L 335.039508 68.403967 
L 335.427627 66.754379 
L 335.815747 65.625714 
L 336.203867 65.799355 
L 336.591987 69.532633 
L 336.980107 65.017971 
L 337.368227 65.452073 
L 337.756347 65.104791 
L 338.144467 67.448943 
L 338.532587 66.493918 
L 338.920707 66.407098 
L 339.308827 66.580739 
L 339.696947 65.972996 
L 340.085066 67.535763 
L 340.473186 65.191612 
L 341.249426 68.490788 
L 341.637546 65.712534 
L 342.025666 68.92489 
L 342.413786 65.278432 
L 342.801906 67.709404 
L 343.190026 66.320277 
L 343.578146 67.448943 
L 343.966266 66.320277 
L 344.354385 66.320277 
L 344.742505 65.452073 
L 345.518745 68.490788 
L 345.906865 64.931151 
L 346.294985 67.101661 
L 346.683105 68.317147 
L 347.071225 65.799355 
L 347.459345 68.577608 
L 347.847465 67.275302 
L 348.235585 65.278432 
L 348.623705 67.535763 
L 349.011824 65.886175 
L 349.399944 64.84433 
L 349.788064 65.104791 
L 350.176184 65.538894 
L 350.564304 67.014841 
L 350.952424 66.8412 
L 351.340544 68.577608 
L 351.728664 67.622584 
L 352.116784 68.056686 
L 352.504904 65.972996 
L 352.893024 67.796224 
L 353.669263 67.014841 
L 354.057383 67.014841 
L 354.445503 66.667559 
L 354.833623 67.275302 
L 355.221743 66.8412 
L 355.609863 68.317147 
L 355.997983 66.059816 
L 356.386103 68.577608 
L 357.162343 63.194742 
L 357.550463 65.625714 
L 357.938582 66.580739 
L 358.326702 64.670689 
L 358.714822 66.320277 
L 359.102942 65.538894 
L 359.491062 65.972996 
L 359.879182 64.583869 
L 360.267302 64.670689 
L 360.655422 67.014841 
L 361.043542 66.92802 
L 361.819782 64.236587 
L 362.207902 65.452073 
L 362.596021 64.75751 
L 362.984141 65.017971 
L 363.372261 64.670689 
L 363.760381 64.75751 
L 364.148501 63.802485 
L 364.536621 64.75751 
L 364.924741 66.146636 
L 365.312861 63.802485 
L 365.700981 65.886175 
L 366.089101 64.583869 
L 366.477221 65.191612 
L 366.86534 66.493918 
L 367.25346 65.886175 
L 367.64158 64.931151 
L 368.0297 64.497048 
L 368.41782 66.059816 
L 369.19406 64.062946 
L 369.58218 66.146636 
L 369.9703 67.014841 
L 370.35842 64.84433 
L 370.74654 66.146636 
L 371.13466 65.017971 
L 371.522779 63.455203 
L 371.910899 67.101661 
L 372.299019 65.452073 
L 372.687139 65.625714 
L 373.075259 66.059816 
L 373.463379 62.413358 
L 373.851499 65.365253 
L 374.239619 65.712534 
L 374.627739 65.452073 
L 375.015859 65.625714 
L 375.403979 64.323408 
L 375.792098 64.583869 
L 376.180218 66.92802 
L 376.568338 64.323408 
L 376.956458 66.580739 
L 377.344578 64.670689 
L 377.732698 65.452073 
L 378.120818 63.455203 
L 378.508938 66.667559 
L 378.897058 65.886175 
L 379.285178 66.320277 
L 379.673298 65.452073 
L 380.061418 63.889306 
L 380.449537 63.542024 
L 380.837657 64.149767 
L 381.225777 62.76064 
L 381.613897 62.67382 
L 382.002017 66.8412 
L 382.390137 66.059816 
L 382.778257 63.889306 
L 383.166377 63.802485 
L 383.554497 63.194742 
L 383.942617 65.712534 
L 384.330737 62.413358 
L 384.718857 66.233457 
L 385.106976 63.715665 
L 385.495096 65.278432 
L 385.883216 65.799355 
L 386.659456 62.934281 
L 387.047576 63.542024 
L 387.435696 64.410228 
L 387.823816 65.712534 
L 388.211936 65.799355 
L 388.600056 66.580739 
L 388.988176 66.493918 
L 389.376295 64.670689 
L 389.764415 64.236587 
L 390.152535 62.934281 
L 390.540655 65.278432 
L 390.928775 65.972996 
L 391.316895 63.628844 
L 391.705015 62.847461 
L 392.093135 65.278432 
L 392.481255 64.323408 
L 392.869375 66.8412 
L 393.257495 66.059816 
L 393.645615 64.670689 
L 394.033734 62.76064 
L 394.421854 63.715665 
L 394.809974 65.278432 
L 395.198094 62.066077 
L 395.586214 63.715665 
L 395.974334 64.410228 
L 396.362454 63.802485 
L 396.750574 64.497048 
L 397.138694 64.236587 
L 397.526814 64.84433 
L 397.914934 61.979256 
L 398.303053 64.149767 
L 398.691173 62.500179 
L 399.079293 63.715665 
L 399.467413 66.320277 
L 399.855533 65.017971 
L 400.243653 62.934281 
L 400.631773 64.497048 
L 401.019893 64.323408 
L 401.408013 63.194742 
L 401.796133 64.497048 
L 402.184253 62.847461 
L 402.572373 63.628844 
L 402.960492 65.191612 
L 403.348612 62.934281 
L 403.736732 61.371513 
L 404.124852 64.410228 
L 404.512972 64.670689 
L 404.901092 61.024232 
L 405.289212 64.149767 
L 405.677332 64.410228 
L 406.065452 63.542024 
L 406.841692 63.107922 
L 407.229812 63.368383 
L 407.617931 64.75751 
L 408.006051 62.67382 
L 408.394171 64.583869 
L 408.782291 61.805616 
L 409.170411 65.452073 
L 409.558531 65.104791 
L 409.946651 63.281563 
L 410.334771 62.847461 
L 410.722891 62.239718 
L 411.111011 62.413358 
L 411.499131 64.931151 
L 412.27537 61.805616 
L 412.66349 64.236587 
L 413.05161 63.542024 
L 413.43973 66.233457 
L 413.82785 62.586999 
L 414.21597 64.062946 
L 414.60409 62.76064 
L 414.99221 62.500179 
L 415.38033 64.410228 
L 415.76845 62.500179 
L 416.15657 62.239718 
L 416.544689 63.021101 
L 416.932809 66.320277 
L 417.709049 62.934281 
L 418.097169 63.107922 
L 418.485289 62.67382 
L 418.873409 61.979256 
L 419.261529 63.802485 
L 419.649649 62.76064 
L 420.037769 63.802485 
L 420.425889 64.323408 
L 420.814008 62.847461 
L 421.202128 63.021101 
L 421.590248 60.937411 
L 422.754608 63.021101 
L 423.142728 62.239718 
L 423.530848 61.892436 
L 423.918968 61.979256 
L 424.307088 63.107922 
L 424.695208 63.021101 
L 425.083328 61.631975 
L 425.471447 62.934281 
L 425.859567 63.455203 
L 426.247687 61.631975 
L 426.635807 63.715665 
L 427.023927 62.152897 
L 427.412047 64.583869 
L 427.800167 64.149767 
L 428.188287 61.805616 
L 428.576407 61.718795 
L 428.964527 64.497048 
L 429.352647 64.149767 
L 430.128886 63.715665 
L 430.517006 63.021101 
L 430.905126 63.455203 
L 431.293246 62.847461 
L 431.681366 61.892436 
L 432.069486 63.628844 
L 432.457606 63.976126 
L 432.845726 63.455203 
L 433.233846 63.194742 
L 433.621966 64.149767 
L 434.010086 61.197873 
L 434.398205 63.542024 
L 434.786325 63.194742 
L 435.174445 65.191612 
L 435.562565 61.024232 
L 435.950685 61.111052 
L 436.338805 64.670689 
L 436.726925 61.805616 
L 437.115045 62.847461 
L 437.503165 61.979256 
L 437.891285 62.847461 
L 438.279405 62.239718 
L 438.667525 62.152897 
L 439.443764 62.413358 
L 439.831884 64.323408 
L 440.220004 61.458334 
L 440.608124 63.107922 
L 440.996244 60.763771 
L 441.384364 64.149767 
L 441.772484 61.024232 
L 442.160604 62.500179 
L 442.548724 63.194742 
L 442.936844 61.197873 
L 443.324963 63.021101 
L 443.713083 62.76064 
L 444.101203 59.374644 
L 444.489323 64.149767 
L 444.877443 61.197873 
L 445.265563 61.718795 
L 445.653683 61.284693 
L 446.041803 62.76064 
L 446.429923 61.024232 
L 446.818043 61.284693 
L 447.206163 63.107922 
L 447.594283 61.805616 
L 447.982402 64.410228 
L 448.370522 63.715665 
L 448.758642 61.197873 
L 449.146762 61.892436 
L 449.534882 62.239718 
L 449.923002 62.239718 
L 450.311122 60.242848 
L 450.699242 61.545154 
L 451.087362 61.545154 
L 451.475482 64.583869 
L 451.863602 60.937411 
L 452.251721 63.455203 
L 452.639841 63.281563 
L 453.027961 61.111052 
L 453.416081 64.410228 
L 453.804201 59.027362 
L 454.192321 62.413358 
L 454.580441 63.455203 
L 454.968561 63.368383 
L 455.356681 62.326538 
L 455.744801 60.503309 
L 456.132921 61.111052 
L 456.521041 59.895566 
L 456.90916 60.59013 
L 457.29728 60.329668 
L 457.6854 60.59013 
L 458.07352 62.066077 
L 458.46164 60.329668 
L 458.84976 63.368383 
L 459.23788 61.024232 
L 459.626 61.024232 
L 460.40224 63.455203 
L 460.79036 61.458334 
L 461.17848 62.934281 
L 461.566599 59.548285 
L 461.954719 59.721926 
L 462.342839 62.934281 
L 462.730959 61.371513 
L 463.119079 63.889306 
L 463.507199 60.156028 
L 463.895319 60.416489 
L 464.283439 63.368383 
L 464.671559 63.021101 
L 465.447799 60.937411 
L 465.835918 62.847461 
L 466.224038 59.721926 
L 466.612158 61.284693 
L 467.000278 61.892436 
L 467.388398 61.111052 
L 467.776518 62.934281 
L 468.164638 61.718795 
L 468.552758 63.194742 
L 468.940878 61.892436 
L 469.328998 62.152897 
L 469.717118 61.631975 
L 470.105238 62.67382 
L 470.493357 62.586999 
L 470.881477 61.284693 
L 471.269597 62.76064 
L 471.657717 60.503309 
L 472.045837 62.066077 
L 472.433957 60.416489 
L 473.210197 62.586999 
L 473.598317 61.805616 
L 473.986437 61.284693 
L 474.374557 60.503309 
L 474.762676 62.066077 
L 475.150796 60.67695 
L 475.927036 62.326538 
L 476.315156 62.066077 
L 476.703276 62.413358 
L 477.091396 62.239718 
L 477.479516 62.586999 
L 477.867636 62.586999 
L 478.255756 58.940542 
L 478.643876 62.586999 
L 479.031996 57.898697 
L 479.420115 61.284693 
L 479.808235 61.718795 
L 480.196355 59.982387 
L 480.584475 59.287823 
L 480.972595 60.416489 
L 481.360715 62.67382 
L 481.748835 60.763771 
L 482.136955 61.805616 
L 482.525075 61.892436 
L 482.913195 58.766901 
L 483.301315 61.805616 
L 483.689435 62.847461 
L 484.077554 61.545154 
L 484.465674 62.239718 
L 484.853794 59.808746 
L 485.241914 60.416489 
L 485.630034 64.323408 
L 486.018154 62.934281 
L 486.406274 63.542024 
L 486.794394 62.413358 
L 487.182514 60.850591 
L 487.570634 61.631975 
L 487.958754 61.197873 
L 488.346873 59.287823 
L 488.734993 62.066077 
L 489.123113 63.368383 
L 489.511233 61.111052 
L 489.899353 62.152897 
L 490.287473 61.631975 
L 490.675593 61.718795 
L 491.063713 61.111052 
L 491.451833 59.808746 
L 491.839953 63.542024 
L 492.228073 62.586999 
L 492.616193 62.239718 
L 493.004312 60.416489 
L 493.780552 62.67382 
L 494.168672 63.107922 
L 494.556792 61.284693 
L 494.944912 61.545154 
L 495.333032 61.111052 
L 495.721152 63.628844 
L 496.109272 60.67695 
L 496.497392 62.066077 
L 496.885512 60.069207 
L 497.273631 62.326538 
L 497.661751 60.763771 
L 498.049871 62.066077 
L 498.437991 61.371513 
L 499.214231 62.586999 
L 499.602351 60.156028 
L 499.990471 60.937411 
L 500.378591 61.024232 
L 501.154831 61.631975 
L 501.542951 60.67695 
L 501.93107 61.197873 
L 502.31919 60.503309 
L 503.48355 61.458334 
L 503.87167 61.631975 
L 504.25979 62.326538 
L 504.64791 58.853721 
L 505.03603 60.069207 
L 505.42415 60.67695 
L 505.81227 59.374644 
L 506.20039 61.371513 
L 506.588509 61.545154 
L 506.976629 62.500179 
L 507.364749 60.937411 
L 507.752869 60.503309 
L 508.140989 61.718795 
L 508.529109 59.548285 
L 509.305349 63.107922 
L 509.693469 61.631975 
L 510.081589 60.937411 
L 510.469709 60.67695 
L 510.857828 60.763771 
L 511.245948 61.458334 
L 511.634068 59.287823 
L 512.022188 60.67695 
L 512.410308 60.156028 
L 512.798428 62.066077 
L 513.186548 59.201003 
L 513.574668 62.239718 
L 513.962788 61.024232 
L 514.350908 59.027362 
L 515.127148 59.027362 
L 515.515267 61.631975 
L 515.903387 58.419619 
L 516.291507 58.853721 
L 516.679627 60.416489 
L 517.067747 60.763771 
L 517.455867 60.329668 
L 517.843987 62.066077 
L 518.232107 58.50644 
L 518.620227 57.725056 
L 519.008347 59.895566 
L 519.396467 61.371513 
L 519.784586 61.284693 
L 520.172706 60.329668 
L 520.560826 60.67695 
L 520.948946 60.069207 
L 521.725186 61.197873 
L 522.113306 60.069207 
L 522.889546 61.631975 
L 523.277666 59.461464 
L 523.665786 61.111052 
L 524.053906 61.284693 
L 524.442025 59.982387 
L 524.830145 61.458334 
L 525.218265 60.329668 
L 525.606385 59.721926 
L 525.994505 59.374644 
L 526.382625 58.072338 
L 526.770745 59.895566 
L 527.158865 58.59326 
L 527.546985 60.416489 
L 527.935105 60.156028 
L 528.323225 60.59013 
L 528.711345 58.072338 
L 529.099464 62.586999 
L 529.487584 56.943672 
L 529.875704 61.024232 
L 530.263824 58.766901 
L 530.651944 62.326538 
L 531.040064 59.461464 
L 531.428184 59.027362 
L 531.816304 60.67695 
L 532.204424 61.631975 
L 532.592544 59.287823 
L 532.980664 59.374644 
L 533.368783 59.635105 
L 533.756903 59.201003 
L 534.145023 60.67695 
L 534.533143 59.635105 
L 534.921263 60.156028 
L 535.309383 61.718795 
L 535.697503 60.763771 
L 536.085623 58.419619 
L 536.473743 61.284693 
L 536.861863 61.631975 
L 537.249983 63.368383 
L 537.638103 62.239718 
L 538.026222 60.416489 
L 538.414342 61.284693 
L 538.802462 60.763771 
L 539.190582 59.114183 
L 539.578702 60.503309 
L 539.966822 59.721926 
L 540.354942 59.635105 
L 540.743062 60.503309 
L 541.131182 60.937411 
L 541.907422 59.027362 
L 542.295541 61.371513 
L 542.683661 61.024232 
L 543.071781 58.59326 
L 543.459901 60.67695 
L 543.848021 60.59013 
L 544.236141 61.284693 
L 544.624261 59.808746 
L 545.012381 59.287823 
L 545.400501 60.242848 
L 545.788621 59.635105 
L 546.176741 60.416489 
L 546.564861 60.416489 
L 546.95298 61.111052 
L 547.3411 57.725056 
L 547.72922 60.850591 
L 548.11734 60.242848 
L 548.50546 61.892436 
L 548.89358 59.287823 
L 549.2817 61.718795 
L 549.66982 61.284693 
L 550.05794 57.204133 
L 550.44606 59.808746 
L 550.83418 59.114183 
L 551.2223 60.763771 
L 551.998539 59.808746 
L 552.386659 60.156028 
L 552.774779 58.766901 
L 553.162899 61.111052 
L 553.551019 58.245978 
L 554.327259 61.197873 
L 554.715379 59.374644 
L 555.103499 59.635105 
L 555.491619 60.069207 
L 555.879738 60.242848 
L 556.267858 59.027362 
L 556.655978 60.763771 
L 557.044098 58.072338 
L 557.432218 60.242848 
L 557.820338 57.204133 
L 558.596578 63.107922 
L 558.984698 59.461464 
L 559.372818 60.069207 
L 559.760938 59.374644 
L 560.149058 59.287823 
L 560.537177 60.59013 
L 560.925297 59.201003 
L 561.313417 59.027362 
L 561.701537 60.850591 
L 562.089657 58.419619 
L 562.477777 57.985517 
L 562.865897 59.635105 
L 563.254017 58.245978 
L 563.642137 59.635105 
L 564.030257 61.979256 
L 564.418377 58.159158 
L 564.806496 58.766901 
L 565.194616 60.937411 
L 565.582736 59.201003 
L 565.970856 58.940542 
L 566.747096 60.503309 
L 567.135216 59.721926 
L 567.523336 58.50644 
L 567.911456 60.069207 
L 568.299576 60.242848 
L 568.687696 59.895566 
L 569.075816 60.069207 
L 569.463935 58.68008 
L 569.852055 60.069207 
L 570.240175 59.895566 
L 570.628295 60.850591 
L 571.016415 60.329668 
L 571.404535 60.156028 
L 572.180775 58.50644 
L 572.568895 58.419619 
L 573.345135 61.718795 
L 574.121374 58.766901 
L 574.897614 60.59013 
L 575.285734 62.67382 
L 575.673854 60.763771 
L 576.061974 59.548285 
L 576.450094 59.287823 
L 576.838214 59.461464 
L 577.226334 56.943672 
L 577.614454 59.895566 
L 578.002574 60.156028 
L 578.390693 60.763771 
L 578.778813 56.943672 
L 579.166933 60.156028 
L 579.555053 58.68008 
L 580.331293 60.59013 
L 580.719413 57.725056 
L 581.107533 61.371513 
L 581.495653 61.371513 
L 581.883773 57.898697 
L 582.271893 58.245978 
L 582.660013 58.245978 
L 583.048132 60.937411 
L 583.436252 58.419619 
L 583.824372 59.895566 
L 584.212492 58.159158 
L 584.600612 59.548285 
L 584.988732 59.374644 
L 585.376852 59.027362 
L 585.764972 61.024232 
L 586.153092 58.940542 
L 586.541212 59.287823 
L 586.929332 60.329668 
L 587.705571 58.159158 
L 588.093691 60.242848 
L 588.481811 60.069207 
L 588.869931 59.027362 
L 589.258051 56.335929 
L 589.646171 59.287823 
L 590.034291 58.072338 
L 590.422411 60.069207 
L 590.810531 57.030493 
L 591.198651 58.68008 
L 591.586771 59.461464 
L 591.97489 59.114183 
L 592.36301 59.635105 
L 592.75113 59.808746 
L 593.13925 60.416489 
L 593.52737 58.419619 
L 593.91549 58.072338 
L 594.30361 57.377774 
L 594.69173 57.551415 
L 595.07985 59.287823 
L 595.46797 59.287823 
L 595.85609 57.985517 
L 596.24421 57.551415 
L 597.020449 59.548285 
L 597.408569 59.287823 
L 597.796689 60.67695 
L 598.184809 58.159158 
L 598.572929 58.332799 
L 598.961049 58.766901 
L 599.349169 58.59326 
L 599.737289 60.242848 
L 600.125409 60.59013 
L 600.513529 57.725056 
L 601.289768 60.242848 
L 601.677888 60.329668 
L 602.066008 59.374644 
L 602.454128 58.766901 
L 602.842248 60.242848 
L 603.618488 58.159158 
L 604.006608 59.461464 
L 604.394728 59.808746 
L 604.782848 60.763771 
L 605.170968 57.725056 
L 605.559087 59.982387 
L 605.947207 58.766901 
L 606.335327 59.287823 
L 606.723447 58.50644 
L 607.111567 58.332799 
L 607.499687 57.551415 
L 607.887807 55.554545 
L 608.664047 61.371513 
L 609.052167 58.419619 
L 609.440287 57.898697 
L 609.828406 56.59639 
L 610.216526 59.895566 
L 610.604646 59.808746 
L 610.992766 60.242848 
L 611.769006 58.50644 
L 612.157126 60.156028 
L 612.545246 59.895566 
L 612.933366 59.287823 
L 613.709606 59.895566 
L 614.097726 58.853721 
L 614.485845 59.895566 
L 614.873965 58.50644 
L 615.262085 57.811876 
L 615.650205 58.59326 
L 616.038325 56.50957 
L 616.426445 56.249109 
L 616.814565 59.461464 
L 617.202685 58.419619 
L 617.590805 55.554545 
L 617.978925 58.419619 
L 618.367045 59.982387 
L 618.755164 60.242848 
L 619.143284 57.290954 
L 619.531404 57.898697 
L 619.919524 59.721926 
L 620.307644 59.721926 
L 620.695764 59.461464 
L 621.083884 60.850591 
L 621.472004 58.245978 
L 621.860124 58.332799 
L 622.248244 58.59326 
L 622.636364 58.68008 
L 622.636364 58.68008 
" style="fill:none;stroke:#1f77b4;stroke-linecap:square;stroke-width:0.5;"/>
   </g>
   <g id="line2d_30">
    <path clip-path="url(#p4eab646065)" d="M 115.363636 298.738536 
L 115.751756 302.645455 
L 116.139876 296.568025 
L 116.527996 297.60987 
L 116.916116 295.52618 
L 117.304236 296.047103 
L 117.692356 299.954022 
L 118.080476 298.043972 
L 118.468596 300.214483 
L 118.856716 292.227004 
L 119.244836 298.391254 
L 119.632955 295.786642 
L 120.021075 298.043972 
L 120.409195 295.786642 
L 120.797315 297.52305 
L 121.185435 289.796033 
L 121.573555 292.400645 
L 121.961675 292.921568 
L 122.349795 287.451881 
L 122.737915 291.879723 
L 123.126035 290.751057 
L 123.514155 291.445621 
L 123.902274 289.709212 
L 124.290394 286.930959 
L 124.678514 279.551223 
L 125.454754 276.85979 
L 125.842874 275.731125 
L 126.230994 271.216463 
L 126.619114 270.695541 
L 127.395354 259.408886 
L 127.783474 259.842989 
L 128.171594 247.948591 
L 128.559713 246.472644 
L 129.335953 234.491427 
L 129.724073 234.838708 
L 130.112193 229.889944 
L 130.500313 227.458973 
L 130.888433 222.162927 
L 131.276553 219.905596 
L 131.664673 218.342829 
L 132.052793 205.406587 
L 132.440913 208.966224 
L 132.829032 207.229815 
L 133.217152 196.377263 
L 133.605272 196.377263 
L 133.993392 199.155517 
L 134.381512 190.213013 
L 134.769632 189.51845 
L 135.157752 181.704613 
L 135.545872 181.965074 
L 135.933992 177.971335 
L 136.710232 167.379244 
L 137.098352 167.726525 
L 137.486471 167.813346 
L 137.874591 161.301814 
L 138.262711 161.909557 
L 138.650831 154.443001 
L 139.038951 155.311206 
L 139.815191 145.9346 
L 140.591431 135.950252 
L 140.979551 139.075787 
L 141.75579 132.564256 
L 142.14391 131.956513 
L 142.53203 129.26508 
L 142.92015 127.355031 
L 143.30827 131.088309 
L 143.69639 124.576778 
L 144.08451 122.406267 
L 144.47263 122.579908 
L 144.86075 121.103961 
L 145.24887 117.457503 
L 145.63699 119.628014 
L 146.02511 116.502479 
L 146.413229 114.67925 
L 146.801349 113.463764 
L 147.189469 113.203303 
L 147.577589 109.643666 
L 147.965709 113.984687 
L 148.353829 112.856021 
L 148.741949 108.862282 
L 149.130069 108.949102 
L 149.518189 107.212694 
L 149.906309 109.296384 
L 150.294429 105.476286 
L 150.682549 104.608082 
L 151.070668 104.434441 
L 151.458788 104.868543 
L 151.846908 107.125874 
L 152.235028 103.913518 
L 152.623148 102.611212 
L 153.011268 104.2608 
L 153.399388 103.045314 
L 153.787508 100.614342 
L 154.175628 102.871673 
L 154.563748 103.305775 
L 155.339987 100.006599 
L 155.728107 102.611212 
L 156.116227 100.353881 
L 156.504347 99.138395 
L 156.892467 98.877934 
L 157.280587 96.881064 
L 157.668707 95.839219 
L 158.056827 95.92604 
L 158.444947 94.102811 
L 158.833067 94.363272 
L 159.221187 99.832959 
L 159.609307 96.794244 
L 159.997426 94.971015 
L 160.385546 95.057836 
L 160.773666 96.273321 
L 161.161786 95.578758 
L 161.549906 96.794244 
L 161.938026 92.626864 
L 162.326146 96.099681 
L 162.714266 92.887325 
L 163.102386 90.890456 
L 163.490506 91.671839 
L 163.878626 90.456353 
L 164.266745 91.411378 
L 164.654865 88.633125 
L 165.042985 89.935431 
L 165.819225 90.109072 
L 166.207345 90.716815 
L 166.983585 87.76492 
L 167.371705 90.022251 
L 167.759825 89.588149 
L 168.147945 86.549435 
L 168.536065 89.935431 
L 168.924184 86.115333 
L 169.312304 89.240868 
L 170.088544 85.073488 
L 170.476664 85.768051 
L 170.864784 86.115333 
L 171.252904 86.636255 
L 171.641024 86.809896 
L 172.029144 86.375794 
L 172.805384 87.938561 
L 173.193504 86.375794 
L 173.581623 85.59441 
L 173.969743 86.202153 
L 174.357863 84.292104 
L 174.745983 83.250259 
L 175.522223 86.288973 
L 175.910343 84.205283 
L 176.298463 84.031642 
L 176.686583 81.861132 
L 177.074703 83.163438 
L 177.462823 84.899847 
L 178.239062 83.163438 
L 178.627182 85.247128 
L 179.015302 83.858002 
L 179.403422 84.118463 
L 179.791542 83.337079 
L 180.179662 84.118463 
L 180.567782 84.292104 
L 180.955902 85.50759 
L 181.344022 82.642516 
L 181.732142 82.555695 
L 182.120262 79.43016 
L 182.508381 82.295234 
L 182.896501 82.816157 
L 183.284621 82.902977 
L 183.672741 81.079748 
L 184.060861 82.295234 
L 184.448981 79.777442 
L 185.225221 80.558826 
L 185.613341 79.25652 
L 186.001461 82.468875 
L 186.389581 81.947952 
L 186.7777 82.642516 
L 187.16582 80.385185 
L 187.94206 81.687491 
L 188.33018 80.819287 
L 188.7183 79.25652 
L 189.49454 80.645646 
L 189.88266 81.687491 
L 190.27078 80.472005 
L 190.6589 79.864262 
L 191.04702 77.172829 
L 191.435139 77.867393 
L 191.823259 82.468875 
L 192.599499 73.786833 
L 192.987619 79.34334 
L 193.375739 80.819287 
L 193.763859 76.999189 
L 194.151979 78.127854 
L 194.928219 79.603801 
L 195.316339 76.738727 
L 195.704459 81.079748 
L 196.092578 80.906107 
L 196.480698 80.124724 
L 196.868818 82.382055 
L 197.256938 80.037903 
L 197.645058 80.819287 
L 198.033178 76.391446 
L 198.421298 77.780572 
L 198.809418 77.693752 
L 199.197538 79.34334 
L 199.585658 75.523242 
L 199.973778 76.912368 
L 200.750017 77.520111 
L 201.138137 77.172829 
L 201.526257 76.651907 
L 201.914377 76.825548 
L 202.302497 75.610062 
L 202.690617 76.738727 
L 203.078737 78.388315 
L 203.466857 74.394576 
L 203.854977 76.912368 
L 204.243097 76.651907 
L 205.019336 75.17596 
L 205.407456 77.520111 
L 206.183696 75.436421 
L 206.571816 75.870523 
L 206.959936 80.037903 
L 207.348056 76.912368 
L 207.736176 76.304625 
L 208.124296 77.172829 
L 208.512416 77.520111 
L 208.900536 77.172829 
L 209.288655 75.17596 
L 209.676775 75.523242 
L 210.064895 76.217805 
L 210.453015 73.700013 
L 210.841135 75.610062 
L 211.229255 75.870523 
L 211.617375 73.352731 
L 212.005495 76.391446 
L 212.393615 74.481397 
L 212.781735 75.089139 
L 213.169855 74.481397 
L 213.557975 75.002319 
L 214.334214 76.651907 
L 214.722334 72.050425 
L 215.110454 75.870523 
L 215.498574 73.786833 
L 215.886694 74.568217 
L 216.274814 72.224066 
L 216.662934 73.873654 
L 217.051054 72.224066 
L 217.439174 76.565087 
L 217.827294 74.047294 
L 218.215414 72.918629 
L 218.603533 74.828678 
L 218.991653 74.047294 
L 219.379773 74.220935 
L 219.767893 73.439552 
L 220.156013 75.436421 
L 220.544133 72.310886 
L 220.932253 75.26278 
L 221.320373 73.09227 
L 221.708493 73.352731 
L 222.096613 71.703143 
L 222.484733 73.265911 
L 223.260972 73.526372 
L 223.649092 73.17909 
L 224.037212 73.700013 
L 224.425332 72.571347 
L 224.813452 72.918629 
L 225.201572 73.873654 
L 225.589692 71.616323 
L 225.977812 73.786833 
L 226.365932 71.0954 
L 226.754052 71.963604 
L 227.142172 71.00858 
L 227.530291 71.269041 
L 227.918411 74.220935 
L 228.694651 72.310886 
L 229.082771 75.436421 
L 229.470891 71.0954 
L 229.859011 72.918629 
L 230.247131 72.484527 
L 230.635251 72.224066 
L 231.023371 74.307756 
L 231.411491 72.571347 
L 231.79961 73.005449 
L 232.18773 72.397707 
L 232.57585 72.050425 
L 233.35209 74.134115 
L 233.74021 71.269041 
L 234.12833 72.831809 
L 234.51645 71.616323 
L 234.90457 71.00858 
L 235.29269 71.616323 
L 235.68081 69.358992 
L 236.06893 72.397707 
L 236.457049 70.400837 
L 236.845169 69.793094 
L 237.233289 72.918629 
L 237.621409 72.310886 
L 238.009529 70.140376 
L 238.397649 71.529502 
L 238.785769 71.442682 
L 239.173889 71.703143 
L 239.562009 70.314016 
L 239.950129 74.220935 
L 240.338249 71.442682 
L 240.726369 71.442682 
L 241.114488 69.793094 
L 241.502608 72.397707 
L 241.890728 71.963604 
L 242.278848 69.619453 
L 242.666968 70.834939 
L 243.055088 73.005449 
L 243.443208 72.397707 
L 243.831328 70.748119 
L 244.219448 73.700013 
L 244.607568 70.834939 
L 244.995688 69.272171 
L 245.383807 70.834939 
L 245.771927 69.445812 
L 246.548167 71.182221 
L 246.936287 70.053555 
L 247.324407 69.532633 
L 247.712527 71.876784 
L 248.100647 70.834939 
L 248.488767 72.397707 
L 248.876887 70.314016 
L 249.265007 74.481397 
L 249.653127 67.883045 
L 250.041246 70.661298 
L 250.429366 70.400837 
L 250.817486 70.921759 
L 251.205606 68.230326 
L 251.593726 71.00858 
L 251.981846 71.703143 
L 252.369966 70.140376 
L 252.758086 70.053555 
L 253.146206 69.445812 
L 253.922446 72.831809 
L 254.310565 69.532633 
L 254.698685 71.355861 
L 255.086805 71.703143 
L 255.474925 69.445812 
L 255.863045 69.358992 
L 256.251165 68.838069 
L 256.639285 70.053555 
L 257.027405 68.92489 
L 257.415525 68.664429 
L 257.803645 69.793094 
L 258.191765 68.490788 
L 258.579885 69.272171 
L 258.968004 68.490788 
L 259.356124 70.140376 
L 259.744244 69.01171 
L 260.132364 69.01171 
L 260.520484 69.185351 
L 260.908604 67.969865 
L 261.296724 70.661298 
L 261.684844 69.966735 
L 262.072964 68.92489 
L 262.461084 68.838069 
L 262.849204 68.490788 
L 263.237324 70.574478 
L 263.625443 69.272171 
L 264.013563 68.403967 
L 264.789803 69.445812 
L 265.177923 69.532633 
L 265.566043 69.966735 
L 265.954163 67.622584 
L 266.342283 69.185351 
L 266.730403 66.493918 
L 267.118523 69.966735 
L 267.506643 68.92489 
L 268.282882 68.92489 
L 268.671002 67.362122 
L 269.059122 68.056686 
L 269.447242 69.793094 
L 269.835362 66.754379 
L 270.223482 69.619453 
L 270.611602 68.317147 
L 270.999722 68.751249 
L 271.387842 68.577608 
L 271.775962 69.358992 
L 272.164082 69.619453 
L 272.552201 68.838069 
L 272.940321 68.92489 
L 273.328441 68.403967 
L 273.716561 70.661298 
L 274.104681 71.00858 
L 274.492801 68.92489 
L 274.880921 68.230326 
L 275.269041 70.574478 
L 275.657161 68.403967 
L 276.045281 67.883045 
L 276.433401 69.879914 
L 276.82152 68.317147 
L 277.20964 67.969865 
L 277.59776 69.532633 
L 277.98588 66.754379 
L 278.374 68.317147 
L 279.15024 70.053555 
L 279.92648 67.014841 
L 280.3146 68.838069 
L 280.70272 68.056686 
L 281.09084 69.272171 
L 281.867079 69.445812 
L 282.255199 64.149767 
L 282.643319 67.883045 
L 283.031439 67.969865 
L 283.419559 67.796224 
L 283.807679 66.580739 
L 284.583919 69.358992 
L 284.972039 67.796224 
L 285.360159 68.490788 
L 285.748279 69.966735 
L 286.136398 66.407098 
L 286.912638 67.622584 
L 287.300758 69.619453 
L 287.688878 69.185351 
L 288.076998 67.188481 
L 288.853238 66.92802 
L 289.241358 65.886175 
L 289.629478 68.838069 
L 290.017598 65.972996 
L 290.405717 68.664429 
L 290.793837 68.056686 
L 291.181957 68.056686 
L 291.570077 66.8412 
L 291.958197 67.709404 
L 292.346317 66.493918 
L 292.734437 68.403967 
L 293.122557 66.8412 
L 293.510677 68.664429 
L 293.898797 66.146636 
L 294.286917 65.799355 
L 294.675037 66.667559 
L 295.063156 67.014841 
L 295.451276 67.101661 
L 295.839396 65.972996 
L 296.227516 65.625714 
L 296.615636 69.619453 
L 297.003756 69.879914 
L 297.391876 69.098531 
L 298.168116 68.143506 
L 298.556236 68.490788 
L 298.944356 65.972996 
L 299.332475 67.101661 
L 299.720595 66.493918 
L 300.108715 67.275302 
L 300.496835 65.886175 
L 300.884955 67.535763 
L 301.273075 68.664429 
L 301.661195 66.667559 
L 302.049315 65.972996 
L 302.437435 65.972996 
L 302.825555 67.362122 
L 303.213675 67.709404 
L 303.601795 67.362122 
L 303.989914 65.278432 
L 304.766154 70.921759 
L 305.154274 65.278432 
L 305.542394 66.8412 
L 305.930514 67.101661 
L 306.318634 66.320277 
L 306.706754 66.059816 
L 307.094874 70.314016 
L 307.871114 66.92802 
L 308.259233 68.490788 
L 308.647353 66.493918 
L 309.035473 66.754379 
L 309.423593 67.535763 
L 309.811713 64.75751 
L 310.199833 68.838069 
L 310.587953 67.275302 
L 310.976073 69.01171 
L 311.364193 66.667559 
L 312.140433 65.538894 
L 312.528553 65.365253 
L 312.916672 65.799355 
L 313.304792 66.667559 
L 313.692912 65.452073 
L 314.081032 65.538894 
L 314.469152 65.452073 
L 315.245392 67.535763 
L 315.633512 67.622584 
L 316.021632 67.883045 
L 316.797872 65.104791 
L 317.185992 67.709404 
L 317.574111 65.365253 
L 317.962231 65.278432 
L 318.350351 66.059816 
L 318.738471 66.233457 
L 319.126591 64.931151 
L 319.514711 68.143506 
L 319.902831 66.8412 
L 320.290951 67.622584 
L 320.679071 67.275302 
L 321.067191 68.751249 
L 321.455311 65.452073 
L 321.84343 66.493918 
L 322.23155 64.84433 
L 322.61967 66.146636 
L 323.00779 65.712534 
L 323.39591 67.535763 
L 323.78403 64.931151 
L 324.17215 65.886175 
L 324.56027 65.972996 
L 324.94839 68.490788 
L 325.33651 65.886175 
L 325.72463 64.583869 
L 326.11275 66.754379 
L 326.500869 65.278432 
L 326.888989 65.104791 
L 327.665229 67.101661 
L 328.053349 67.796224 
L 328.441469 65.712534 
L 328.829589 64.583869 
L 329.605829 67.883045 
L 329.993949 64.84433 
L 330.770188 66.407098 
L 331.158308 65.017971 
L 331.546428 66.233457 
L 331.934548 64.236587 
L 332.322668 65.625714 
L 332.710788 65.104791 
L 333.098908 65.278432 
L 333.487028 66.493918 
L 333.875148 67.188481 
L 334.263268 64.931151 
L 334.651388 65.191612 
L 335.039508 67.101661 
L 335.427627 64.497048 
L 335.815747 64.062946 
L 336.591987 66.667559 
L 337.368227 65.712534 
L 337.756347 65.972996 
L 338.144467 65.538894 
L 338.532587 65.278432 
L 338.920707 65.625714 
L 339.308827 67.101661 
L 339.696947 63.889306 
L 340.085066 67.883045 
L 340.473186 63.976126 
L 341.249426 68.143506 
L 341.637546 65.452073 
L 342.025666 66.8412 
L 342.413786 65.017971 
L 342.801906 67.101661 
L 343.190026 64.323408 
L 343.578146 65.712534 
L 343.966266 64.323408 
L 344.354385 65.452073 
L 344.742505 64.583869 
L 345.130625 66.580739 
L 345.518745 63.194742 
L 345.906865 65.799355 
L 346.294985 65.104791 
L 346.683105 65.191612 
L 347.071225 65.625714 
L 347.459345 66.320277 
L 347.847465 65.452073 
L 348.235585 67.188481 
L 348.623705 65.452073 
L 349.011824 65.972996 
L 349.788064 65.191612 
L 350.176184 65.017971 
L 350.564304 65.625714 
L 350.952424 67.188481 
L 351.340544 64.410228 
L 351.728664 65.278432 
L 352.116784 66.754379 
L 352.504904 64.149767 
L 352.893024 64.323408 
L 353.281143 65.886175 
L 353.669263 65.538894 
L 354.445503 67.622584 
L 354.833623 66.146636 
L 355.221743 67.101661 
L 355.609863 67.709404 
L 355.997983 63.889306 
L 356.386103 64.84433 
L 356.774223 64.931151 
L 357.162343 64.497048 
L 357.550463 65.625714 
L 357.938582 64.062946 
L 358.326702 65.972996 
L 358.714822 65.191612 
L 359.102942 65.191612 
L 359.491062 65.712534 
L 359.879182 66.667559 
L 360.267302 64.062946 
L 360.655422 63.281563 
L 361.043542 67.014841 
L 361.819782 64.75751 
L 362.207902 65.886175 
L 362.596021 65.017971 
L 362.984141 66.667559 
L 363.372261 65.886175 
L 363.760381 63.976126 
L 364.536621 64.931151 
L 364.924741 65.625714 
L 365.312861 63.889306 
L 365.700981 64.84433 
L 366.089101 63.976126 
L 366.477221 67.101661 
L 366.86534 64.323408 
L 367.25346 63.628844 
L 367.64158 65.972996 
L 368.0297 64.670689 
L 368.41782 64.931151 
L 368.80594 67.188481 
L 369.19406 65.452073 
L 369.58218 64.931151 
L 369.9703 66.92802 
L 370.35842 66.92802 
L 370.74654 64.931151 
L 371.13466 64.062946 
L 371.522779 63.802485 
L 371.910899 67.014841 
L 372.299019 63.542024 
L 372.687139 67.014841 
L 373.075259 64.583869 
L 373.463379 65.452073 
L 373.851499 65.191612 
L 374.239619 63.802485 
L 374.627739 62.847461 
L 375.015859 65.104791 
L 375.403979 63.802485 
L 375.792098 65.365253 
L 376.180218 64.583869 
L 376.568338 64.583869 
L 376.956458 63.802485 
L 377.344578 65.799355 
L 377.732698 64.236587 
L 378.508938 66.754379 
L 378.897058 64.410228 
L 379.285178 64.410228 
L 379.673298 66.059816 
L 380.061418 62.934281 
L 380.449537 65.538894 
L 380.837657 63.281563 
L 381.225777 65.886175 
L 382.002017 63.455203 
L 382.390137 63.542024 
L 382.778257 65.972996 
L 383.166377 64.410228 
L 383.554497 63.802485 
L 383.942617 64.062946 
L 384.330737 64.583869 
L 384.718857 65.799355 
L 385.106976 64.236587 
L 385.495096 64.149767 
L 385.883216 65.452073 
L 386.271336 65.017971 
L 386.659456 65.538894 
L 387.047576 66.320277 
L 387.435696 62.586999 
L 387.823816 64.931151 
L 388.211936 66.059816 
L 388.600056 65.104791 
L 388.988176 64.75751 
L 389.376295 63.802485 
L 389.764415 63.455203 
L 390.152535 64.236587 
L 390.540655 66.320277 
L 390.928775 63.368383 
L 391.705015 64.323408 
L 392.093135 66.233457 
L 392.869375 63.889306 
L 393.257495 63.455203 
L 393.645615 63.976126 
L 394.033734 62.586999 
L 394.421854 63.368383 
L 394.809974 65.191612 
L 395.198094 63.802485 
L 395.586214 65.191612 
L 395.974334 64.583869 
L 396.750574 65.538894 
L 397.138694 65.365253 
L 397.526814 65.452073 
L 397.914934 64.670689 
L 398.303053 62.413358 
L 398.691173 65.104791 
L 399.079293 61.718795 
L 399.467413 65.017971 
L 399.855533 64.410228 
L 400.243653 65.017971 
L 400.631773 66.233457 
L 401.019893 66.407098 
L 401.408013 63.542024 
L 401.796133 64.149767 
L 402.184253 63.976126 
L 402.572373 64.670689 
L 402.960492 63.715665 
L 403.348612 65.452073 
L 403.736732 63.194742 
L 404.124852 62.934281 
L 404.512972 63.455203 
L 404.901092 61.631975 
L 405.289212 62.847461 
L 405.677332 65.538894 
L 406.065452 64.323408 
L 406.453572 63.802485 
L 406.841692 62.67382 
L 407.229812 64.410228 
L 407.617931 65.017971 
L 408.006051 61.284693 
L 408.394171 63.976126 
L 408.782291 65.017971 
L 409.558531 63.368383 
L 409.946651 63.802485 
L 410.334771 64.410228 
L 410.722891 66.233457 
L 411.111011 63.021101 
L 411.499131 63.889306 
L 411.88725 62.500179 
L 412.27537 63.281563 
L 412.66349 63.368383 
L 413.05161 63.889306 
L 413.43973 63.889306 
L 413.82785 65.017971 
L 414.21597 62.934281 
L 414.60409 64.062946 
L 414.99221 63.976126 
L 415.38033 63.542024 
L 415.76845 62.413358 
L 416.15657 64.062946 
L 416.544689 63.281563 
L 416.932809 63.889306 
L 417.320929 63.889306 
L 418.097169 64.497048 
L 418.485289 63.107922 
L 418.873409 64.410228 
L 419.261529 63.802485 
L 420.037769 63.889306 
L 420.425889 63.194742 
L 420.814008 63.021101 
L 421.202128 65.365253 
L 421.590248 62.066077 
L 421.978368 64.497048 
L 422.366488 63.802485 
L 422.754608 62.066077 
L 423.142728 63.889306 
L 423.918968 64.323408 
L 424.307088 63.802485 
L 424.695208 64.497048 
L 425.083328 63.542024 
L 425.471447 63.368383 
L 425.859567 62.500179 
L 426.247687 65.799355 
L 426.635807 63.194742 
L 427.023927 64.149767 
L 427.412047 63.628844 
L 427.800167 64.149767 
L 428.188287 63.107922 
L 428.576407 63.542024 
L 428.964527 65.712534 
L 429.352647 65.972996 
L 429.740767 63.455203 
L 430.128886 64.497048 
L 430.517006 64.583869 
L 430.905126 64.497048 
L 431.293246 63.715665 
L 431.681366 64.149767 
L 432.069486 65.886175 
L 432.457606 65.712534 
L 432.845726 65.712534 
L 433.233846 65.538894 
L 433.621966 63.021101 
L 434.010086 63.107922 
L 434.398205 63.802485 
L 434.786325 64.149767 
L 435.174445 63.455203 
L 435.562565 65.278432 
L 435.950685 62.76064 
L 436.338805 61.631975 
L 436.726925 63.976126 
L 437.115045 62.326538 
L 437.891285 63.976126 
L 438.279405 65.278432 
L 438.667525 62.066077 
L 439.831884 64.75751 
L 440.220004 63.194742 
L 440.608124 64.323408 
L 440.996244 62.586999 
L 441.384364 64.410228 
L 441.772484 61.979256 
L 442.160604 62.934281 
L 442.548724 66.493918 
L 442.936844 64.75751 
L 443.324963 62.239718 
L 444.101203 65.365253 
L 444.489323 65.191612 
L 444.877443 63.455203 
L 445.265563 63.542024 
L 445.653683 62.326538 
L 446.041803 62.413358 
L 446.429923 63.715665 
L 446.818043 62.326538 
L 447.206163 62.152897 
L 447.594283 64.75751 
L 447.982402 63.455203 
L 448.370522 63.194742 
L 448.758642 63.281563 
L 449.146762 64.062946 
L 449.534882 63.021101 
L 449.923002 63.021101 
L 450.311122 63.889306 
L 450.699242 62.326538 
L 451.087362 63.455203 
L 451.475482 63.715665 
L 451.863602 62.586999 
L 452.251721 64.75751 
L 452.639841 64.410228 
L 453.027961 61.631975 
L 453.416081 63.281563 
L 453.804201 63.889306 
L 454.192321 63.368383 
L 454.580441 63.628844 
L 454.968561 63.281563 
L 455.356681 65.017971 
L 455.744801 63.107922 
L 456.132921 63.976126 
L 456.90916 62.934281 
L 457.29728 63.021101 
L 457.6854 61.024232 
L 458.07352 63.715665 
L 458.46164 61.197873 
L 458.84976 62.326538 
L 459.626 62.326538 
L 460.01412 62.500179 
L 460.40224 63.194742 
L 460.79036 62.76064 
L 461.17848 62.847461 
L 461.566599 62.152897 
L 461.954719 63.107922 
L 462.342839 61.458334 
L 462.730959 60.937411 
L 463.119079 62.934281 
L 463.507199 62.67382 
L 463.895319 63.107922 
L 464.283439 62.152897 
L 464.671559 63.628844 
L 465.059679 62.239718 
L 465.447799 63.542024 
L 465.835918 63.889306 
L 466.224038 62.586999 
L 466.612158 63.455203 
L 467.000278 63.542024 
L 467.388398 61.631975 
L 467.776518 64.062946 
L 468.164638 62.413358 
L 468.552758 63.889306 
L 468.940878 63.889306 
L 469.328998 62.586999 
L 469.717118 63.107922 
L 470.105238 62.500179 
L 470.493357 61.197873 
L 470.881477 62.152897 
L 471.269597 61.805616 
L 472.045837 64.670689 
L 472.433957 60.763771 
L 472.822077 62.500179 
L 473.210197 61.892436 
L 473.598317 62.76064 
L 473.986437 62.847461 
L 474.374557 62.500179 
L 475.150796 62.326538 
L 475.538916 61.805616 
L 475.927036 64.583869 
L 476.315156 63.194742 
L 476.703276 63.889306 
L 477.091396 62.326538 
L 477.867636 65.712534 
L 478.255756 61.979256 
L 478.643876 61.371513 
L 479.031996 61.805616 
L 479.420115 61.024232 
L 479.808235 63.628844 
L 480.196355 63.021101 
L 480.584475 61.197873 
L 480.972595 62.239718 
L 481.360715 63.628844 
L 481.748835 62.586999 
L 482.525075 63.194742 
L 482.913195 64.410228 
L 483.301315 61.458334 
L 483.689435 62.67382 
L 484.077554 61.805616 
L 484.465674 61.892436 
L 484.853794 63.802485 
L 485.241914 61.371513 
L 485.630034 64.75751 
L 486.406274 62.413358 
L 486.794394 63.021101 
L 487.182514 61.718795 
L 487.570634 62.500179 
L 487.958754 61.805616 
L 488.346873 62.152897 
L 488.734993 64.497048 
L 489.123113 60.59013 
L 489.511233 61.892436 
L 489.899353 64.75751 
L 490.287473 60.850591 
L 491.063713 65.365253 
L 491.451833 61.979256 
L 492.228073 62.326538 
L 492.616193 63.368383 
L 493.004312 63.802485 
L 493.392432 61.892436 
L 493.780552 62.413358 
L 494.168672 64.149767 
L 494.556792 64.149767 
L 494.944912 63.281563 
L 495.333032 64.75751 
L 495.721152 62.586999 
L 496.109272 63.455203 
L 496.497392 62.066077 
L 496.885512 63.976126 
L 497.273631 61.545154 
L 497.661751 62.67382 
L 498.049871 63.107922 
L 498.826111 64.497048 
L 499.214231 64.062946 
L 499.602351 61.371513 
L 499.990471 62.066077 
L 500.378591 62.413358 
L 500.766711 63.455203 
L 501.154831 61.718795 
L 501.542951 62.066077 
L 501.93107 60.763771 
L 502.31919 62.934281 
L 502.70731 62.847461 
L 503.09543 62.500179 
L 503.48355 60.937411 
L 503.87167 63.107922 
L 504.25979 61.805616 
L 504.64791 61.892436 
L 505.03603 63.194742 
L 505.42415 63.715665 
L 505.81227 63.021101 
L 506.20039 61.631975 
L 506.976629 63.542024 
L 507.364749 62.413358 
L 507.752869 63.628844 
L 508.140989 62.413358 
L 508.529109 63.194742 
L 508.917229 61.458334 
L 509.305349 65.104791 
L 510.081589 62.67382 
L 510.469709 62.67382 
L 510.857828 61.979256 
L 511.245948 62.152897 
L 511.634068 62.500179 
L 512.022188 62.413358 
L 512.410308 64.670689 
L 512.798428 62.67382 
L 513.186548 63.021101 
L 513.574668 62.413358 
L 513.962788 63.021101 
L 514.350908 62.586999 
L 514.739028 61.284693 
L 515.515267 64.236587 
L 515.903387 63.281563 
L 516.291507 60.850591 
L 516.679627 60.59013 
L 517.067747 62.152897 
L 517.455867 61.805616 
L 517.843987 63.021101 
L 518.232107 61.458334 
L 518.620227 59.287823 
L 519.008347 62.239718 
L 519.784586 63.542024 
L 520.172706 64.410228 
L 520.560826 62.847461 
L 520.948946 62.326538 
L 521.337066 61.371513 
L 521.725186 62.67382 
L 522.113306 60.850591 
L 522.501426 61.892436 
L 522.889546 60.937411 
L 523.277666 62.586999 
L 523.665786 61.197873 
L 524.053906 60.763771 
L 524.442025 62.67382 
L 524.830145 62.066077 
L 525.218265 62.76064 
L 525.606385 60.329668 
L 525.994505 60.069207 
L 526.382625 61.545154 
L 526.770745 60.763771 
L 527.158865 63.628844 
L 527.546985 61.805616 
L 527.935105 60.850591 
L 528.323225 61.979256 
L 528.711345 61.979256 
L 529.099464 63.107922 
L 529.875704 60.242848 
L 530.263824 61.197873 
L 530.651944 61.805616 
L 531.040064 62.67382 
L 531.428184 60.850591 
L 531.816304 63.021101 
L 532.204424 60.763771 
L 532.592544 62.152897 
L 532.980664 61.284693 
L 533.368783 60.763771 
L 533.756903 62.67382 
L 534.533143 60.850591 
L 534.921263 62.586999 
L 535.309383 62.413358 
L 535.697503 62.413358 
L 536.085623 60.59013 
L 536.473743 62.586999 
L 536.861863 63.368383 
L 537.249983 61.631975 
L 537.638103 61.979256 
L 538.026222 62.934281 
L 538.414342 64.323408 
L 538.802462 62.586999 
L 539.190582 63.021101 
L 539.578702 62.934281 
L 539.966822 62.239718 
L 540.354942 61.805616 
L 540.743062 63.802485 
L 541.131182 62.76064 
L 541.519302 62.934281 
L 541.907422 64.670689 
L 542.683661 62.239718 
L 543.071781 63.281563 
L 543.848021 61.631975 
L 544.236141 61.631975 
L 544.624261 61.024232 
L 545.012381 61.718795 
L 545.400501 61.111052 
L 545.788621 63.368383 
L 546.176741 61.892436 
L 546.564861 63.281563 
L 546.95298 61.892436 
L 547.3411 61.718795 
L 547.72922 59.548285 
L 548.11734 62.76064 
L 548.50546 63.281563 
L 548.89358 62.934281 
L 549.2817 61.545154 
L 549.66982 63.107922 
L 550.05794 62.67382 
L 550.44606 63.021101 
L 550.83418 60.67695 
L 551.2223 60.329668 
L 551.610419 60.850591 
L 551.998539 62.67382 
L 552.386659 63.281563 
L 552.774779 61.371513 
L 553.162899 62.500179 
L 553.551019 60.763771 
L 553.939139 60.763771 
L 554.715379 62.586999 
L 555.103499 60.937411 
L 555.491619 61.545154 
L 556.267858 61.805616 
L 556.655978 62.500179 
L 557.044098 61.024232 
L 557.432218 62.67382 
L 557.820338 61.979256 
L 558.208458 62.239718 
L 558.596578 63.194742 
L 558.984698 61.024232 
L 559.372818 61.892436 
L 559.760938 61.979256 
L 560.149058 61.458334 
L 560.537177 61.805616 
L 561.313417 63.802485 
L 561.701537 62.67382 
L 562.089657 60.59013 
L 562.477777 61.024232 
L 562.865897 60.937411 
L 563.254017 62.76064 
L 564.030257 62.152897 
L 564.418377 64.410228 
L 564.806496 61.371513 
L 565.194616 60.242848 
L 565.582736 62.67382 
L 565.970856 59.982387 
L 566.358976 63.107922 
L 567.135216 61.197873 
L 567.523336 61.197873 
L 568.299576 63.715665 
L 568.687696 63.889306 
L 569.075816 62.586999 
L 569.463935 63.889306 
L 569.852055 63.194742 
L 570.240175 63.455203 
L 570.628295 63.889306 
L 571.016415 61.805616 
L 571.404535 61.458334 
L 571.792655 63.802485 
L 572.180775 63.281563 
L 572.568895 64.062946 
L 572.957015 62.239718 
L 573.345135 62.934281 
L 573.733255 60.850591 
L 574.121374 63.107922 
L 574.509494 62.413358 
L 575.285734 61.979256 
L 575.673854 63.021101 
L 576.061974 63.628844 
L 576.838214 62.066077 
L 577.226334 62.239718 
L 577.614454 60.850591 
L 578.002574 62.413358 
L 578.778813 61.197873 
L 579.166933 61.892436 
L 579.555053 61.979256 
L 579.943173 61.545154 
L 580.331293 62.76064 
L 580.719413 62.413358 
L 581.495653 60.503309 
L 581.883773 61.111052 
L 582.660013 60.416489 
L 583.048132 61.631975 
L 583.436252 63.889306 
L 583.824372 63.715665 
L 584.212492 61.979256 
L 584.600612 62.413358 
L 584.988732 63.542024 
L 585.376852 61.111052 
L 585.764972 61.805616 
L 586.153092 61.805616 
L 586.541212 62.413358 
L 586.929332 59.895566 
L 587.317451 61.545154 
L 587.705571 61.284693 
L 588.093691 63.021101 
L 588.481811 60.850591 
L 588.869931 61.979256 
L 589.258051 60.416489 
L 590.034291 62.67382 
L 590.422411 61.979256 
L 590.810531 62.413358 
L 591.198651 60.59013 
L 591.586771 63.368383 
L 591.97489 62.326538 
L 592.75113 62.500179 
L 593.13925 61.892436 
L 593.52737 60.503309 
L 594.30361 62.934281 
L 594.69173 62.239718 
L 595.07985 60.156028 
L 595.85609 62.67382 
L 596.24421 62.152897 
L 596.632329 61.979256 
L 597.020449 60.763771 
L 597.408569 62.67382 
L 597.796689 62.586999 
L 598.572929 61.718795 
L 598.961049 62.67382 
L 599.349169 60.67695 
L 599.737289 63.107922 
L 600.125409 63.368383 
L 600.513529 63.107922 
L 600.901648 60.67695 
L 601.289768 59.808746 
L 601.677888 59.635105 
L 602.066008 61.024232 
L 602.842248 58.766901 
L 603.230368 61.979256 
L 603.618488 61.284693 
L 604.006608 61.979256 
L 604.394728 62.239718 
L 604.782848 60.937411 
L 605.170968 63.455203 
L 605.559087 60.850591 
L 605.947207 60.416489 
L 606.335327 62.500179 
L 606.723447 62.500179 
L 607.111567 60.763771 
L 607.499687 62.847461 
L 607.887807 61.545154 
L 608.275927 62.67382 
L 608.664047 59.461464 
L 609.052167 62.586999 
L 609.440287 59.982387 
L 609.828406 62.500179 
L 610.216526 63.021101 
L 610.604646 60.069207 
L 610.992766 61.371513 
L 611.380886 61.197873 
L 611.769006 60.59013 
L 612.157126 61.024232 
L 612.545246 61.892436 
L 612.933366 62.239718 
L 613.321486 61.545154 
L 613.709606 63.715665 
L 614.097726 60.850591 
L 614.485845 62.847461 
L 614.873965 62.239718 
L 615.262085 62.586999 
L 615.650205 62.500179 
L 616.038325 60.329668 
L 616.426445 59.721926 
L 617.202685 62.239718 
L 617.590805 59.982387 
L 617.978925 62.413358 
L 618.367045 58.940542 
L 618.755164 61.197873 
L 619.143284 61.631975 
L 619.531404 61.458334 
L 619.919524 60.156028 
L 620.307644 60.329668 
L 621.083884 61.458334 
L 621.472004 59.374644 
L 621.860124 61.805616 
L 622.248244 62.066077 
L 622.636364 61.979256 
L 622.636364 61.979256 
" style="fill:none;stroke:#ff7f0e;stroke-linecap:square;stroke-width:0.5;"/>
   </g>
   <g id="patch_3">
    <path d="M 90 315 
L 90 43.2 
" style="fill:none;stroke:#000000;stroke-linecap:square;stroke-linejoin:miter;stroke-width:0.8;"/>
   </g>
   <g id="patch_4">
    <path d="M 648 315 
L 648 43.2 
" style="fill:none;stroke:#000000;stroke-linecap:square;stroke-linejoin:miter;stroke-width:0.8;"/>
   </g>
   <g id="patch_5">
    <path d="M 90 315 
L 648 315 
" style="fill:none;stroke:#000000;stroke-linecap:square;stroke-linejoin:miter;stroke-width:0.8;"/>
   </g>
   <g id="patch_6">
    <path d="M 90 43.2 
L 648 43.2 
" style="fill:none;stroke:#000000;stroke-linecap:square;stroke-linejoin:miter;stroke-width:0.8;"/>
   </g>
   <g id="text_17">
    <!-- accuracy -->
    <g transform="translate(341.92875 37.2)scale(0.12 -0.12)">
     <use xlink:href="#DejaVuSans-97"/>
     <use x="61.279297" xlink:href="#DejaVuSans-99"/>
     <use x="116.259766" xlink:href="#DejaVuSans-99"/>
     <use x="171.240234" xlink:href="#DejaVuSans-117"/>
     <use x="234.619141" xlink:href="#DejaVuSans-114"/>
     <use x="275.732422" xlink:href="#DejaVuSans-97"/>
     <use x="337.011719" xlink:href="#DejaVuSans-99"/>
     <use x="391.992188" xlink:href="#DejaVuSans-121"/>
    </g>
   </g>
   <g id="legend_1">
    <g id="patch_7">
     <path d="M 97 80.55625 
L 169.153125 80.55625 
Q 171.153125 80.55625 171.153125 78.55625 
L 171.153125 50.2 
Q 171.153125 48.2 169.153125 48.2 
L 97 48.2 
Q 95 48.2 95 50.2 
L 95 78.55625 
Q 95 80.55625 97 80.55625 
z
" style="fill:#ffffff;opacity:0.8;stroke:#cccccc;stroke-linejoin:miter;"/>
    </g>
    <g id="line2d_31">
     <path d="M 99 56.298437 
L 119 56.298437 
" style="fill:none;stroke:#1f77b4;stroke-linecap:square;stroke-width:0.5;"/>
    </g>
    <g id="line2d_32"/>
    <g id="text_18">
     <!-- train -->
     <defs>
      <path d="M 18.3125 70.21875 
L 18.3125 54.6875 
L 36.8125 54.6875 
L 36.8125 47.703125 
L 18.3125 47.703125 
L 18.3125 18.015625 
Q 18.3125 11.328125 20.140625 9.421875 
Q 21.96875 7.515625 27.59375 7.515625 
L 36.8125 7.515625 
L 36.8125 0 
L 27.59375 0 
Q 17.1875 0 13.234375 3.875 
Q 9.28125 7.765625 9.28125 18.015625 
L 9.28125 47.703125 
L 2.6875 47.703125 
L 2.6875 54.6875 
L 9.28125 54.6875 
L 9.28125 70.21875 
z
" id="DejaVuSans-116"/>
      <path d="M 9.421875 54.6875 
L 18.40625 54.6875 
L 18.40625 0 
L 9.421875 0 
z
M 9.421875 75.984375 
L 18.40625 75.984375 
L 18.40625 64.59375 
L 9.421875 64.59375 
z
" id="DejaVuSans-105"/>
      <path d="M 54.890625 33.015625 
L 54.890625 0 
L 45.90625 0 
L 45.90625 32.71875 
Q 45.90625 40.484375 42.875 44.328125 
Q 39.84375 48.1875 33.796875 48.1875 
Q 26.515625 48.1875 22.3125 43.546875 
Q 18.109375 38.921875 18.109375 30.90625 
L 18.109375 0 
L 9.078125 0 
L 9.078125 54.6875 
L 18.109375 54.6875 
L 18.109375 46.1875 
Q 21.34375 51.125 25.703125 53.5625 
Q 30.078125 56 35.796875 56 
Q 45.21875 56 50.046875 50.171875 
Q 54.890625 44.34375 54.890625 33.015625 
z
" id="DejaVuSans-110"/>
     </defs>
     <g transform="translate(127 59.798437)scale(0.1 -0.1)">
      <use xlink:href="#DejaVuSans-116"/>
      <use x="39.208984" xlink:href="#DejaVuSans-114"/>
      <use x="80.322266" xlink:href="#DejaVuSans-97"/>
      <use x="141.601562" xlink:href="#DejaVuSans-105"/>
      <use x="169.384766" xlink:href="#DejaVuSans-110"/>
     </g>
    </g>
    <g id="line2d_33">
     <path d="M 99 70.976562 
L 119 70.976562 
" style="fill:none;stroke:#ff7f0e;stroke-linecap:square;stroke-width:0.5;"/>
    </g>
    <g id="line2d_34"/>
    <g id="text_19">
     <!-- validate -->
     <defs>
      <path d="M 2.984375 54.6875 
L 12.5 54.6875 
L 29.59375 8.796875 
L 46.6875 54.6875 
L 56.203125 54.6875 
L 35.6875 0 
L 23.484375 0 
z
" id="DejaVuSans-118"/>
      <path d="M 9.421875 75.984375 
L 18.40625 75.984375 
L 18.40625 0 
L 9.421875 0 
z
" id="DejaVuSans-108"/>
      <path d="M 45.40625 46.390625 
L 45.40625 75.984375 
L 54.390625 75.984375 
L 54.390625 0 
L 45.40625 0 
L 45.40625 8.203125 
Q 42.578125 3.328125 38.25 0.953125 
Q 33.9375 -1.421875 27.875 -1.421875 
Q 17.96875 -1.421875 11.734375 6.484375 
Q 5.515625 14.40625 5.515625 27.296875 
Q 5.515625 40.1875 11.734375 48.09375 
Q 17.96875 56 27.875 56 
Q 33.9375 56 38.25 53.625 
Q 42.578125 51.265625 45.40625 46.390625 
z
M 14.796875 27.296875 
Q 14.796875 17.390625 18.875 11.75 
Q 22.953125 6.109375 30.078125 6.109375 
Q 37.203125 6.109375 41.296875 11.75 
Q 45.40625 17.390625 45.40625 27.296875 
Q 45.40625 37.203125 41.296875 42.84375 
Q 37.203125 48.484375 30.078125 48.484375 
Q 22.953125 48.484375 18.875 42.84375 
Q 14.796875 37.203125 14.796875 27.296875 
z
" id="DejaVuSans-100"/>
     </defs>
     <g transform="translate(127 74.476562)scale(0.1 -0.1)">
      <use xlink:href="#DejaVuSans-118"/>
      <use x="59.179688" xlink:href="#DejaVuSans-97"/>
      <use x="120.458984" xlink:href="#DejaVuSans-108"/>
      <use x="148.242188" xlink:href="#DejaVuSans-105"/>
      <use x="176.025391" xlink:href="#DejaVuSans-100"/>
      <use x="239.501953" xlink:href="#DejaVuSans-97"/>
      <use x="300.78125" xlink:href="#DejaVuSans-116"/>
      <use x="339.990234" xlink:href="#DejaVuSans-101"/>
     </g>
    </g>
   </g>
  </g>
 </g>
 <defs>
  <clipPath id="p4eab646065">
   <rect height="271.8" width="558" x="90" y="43.2"/>
  </clipPath>
 </defs>
</svg>
