<?xml version="1.0" encoding="utf-8" standalone="no"?>
<!DOCTYPE svg PUBLIC "-//W3C//DTD SVG 1.1//EN"
  "http://www.w3.org/Graphics/SVG/1.1/DTD/svg11.dtd">
<!-- Created with matplotlib (https://matplotlib.org/) -->
<svg height="360pt" version="1.1" viewBox="0 0 720 360" width="720pt" xmlns="http://www.w3.org/2000/svg" xmlns:xlink="http://www.w3.org/1999/xlink">
 <defs>
  <style type="text/css">
*{stroke-linecap:butt;stroke-linejoin:round;}
  </style>
 </defs>
 <g id="figure_1">
  <g id="patch_1">
   <path d="M 0 360 
L 720 360 
L 720 0 
L 0 0 
z
" style="fill:#ffffff;"/>
  </g>
  <g id="axes_1">
   <g id="patch_2">
    <path d="M 90 315 
L 648 315 
L 648 43.2 
L 90 43.2 
z
" style="fill:#ffffff;"/>
   </g>
   <g id="matplotlib.axis_1">
    <g id="xtick_1">
     <g id="line2d_1">
      <path clip-path="url(#p9f31e387eb)" d="M 115.363636 315 
L 115.363636 43.2 
" style="fill:none;stroke:#b0b0b0;stroke-linecap:square;stroke-width:0.8;"/>
     </g>
     <g id="line2d_2">
      <defs>
       <path d="M 0 0 
L 0 3.5 
" id="m62732e1f01" style="stroke:#000000;stroke-width:0.8;"/>
      </defs>
      <g>
       <use style="stroke:#000000;stroke-width:0.8;" x="115.363636" xlink:href="#m62732e1f01" y="315"/>
      </g>
     </g>
     <g id="text_1">
      <!-- 0 -->
      <defs>
       <path d="M 31.78125 66.40625 
Q 24.171875 66.40625 20.328125 58.90625 
Q 16.5 51.421875 16.5 36.375 
Q 16.5 21.390625 20.328125 13.890625 
Q 24.171875 6.390625 31.78125 6.390625 
Q 39.453125 6.390625 43.28125 13.890625 
Q 47.125 21.390625 47.125 36.375 
Q 47.125 51.421875 43.28125 58.90625 
Q 39.453125 66.40625 31.78125 66.40625 
z
M 31.78125 74.21875 
Q 44.046875 74.21875 50.515625 64.515625 
Q 56.984375 54.828125 56.984375 36.375 
Q 56.984375 17.96875 50.515625 8.265625 
Q 44.046875 -1.421875 31.78125 -1.421875 
Q 19.53125 -1.421875 13.0625 8.265625 
Q 6.59375 17.96875 6.59375 36.375 
Q 6.59375 54.828125 13.0625 64.515625 
Q 19.53125 74.21875 31.78125 74.21875 
z
" id="DejaVuSans-48"/>
      </defs>
      <g transform="translate(112.182386 329.598437)scale(0.1 -0.1)">
       <use xlink:href="#DejaVuSans-48"/>
      </g>
     </g>
    </g>
    <g id="xtick_2">
     <g id="line2d_3">
      <path clip-path="url(#p9f31e387eb)" d="M 182.463203 315 
L 182.463203 43.2 
" style="fill:none;stroke:#b0b0b0;stroke-linecap:square;stroke-width:0.8;"/>
     </g>
     <g id="line2d_4">
      <g>
       <use style="stroke:#000000;stroke-width:0.8;" x="182.463203" xlink:href="#m62732e1f01" y="315"/>
      </g>
     </g>
     <g id="text_2">
      <!-- 200 -->
      <defs>
       <path d="M 19.1875 8.296875 
L 53.609375 8.296875 
L 53.609375 0 
L 7.328125 0 
L 7.328125 8.296875 
Q 12.9375 14.109375 22.625 23.890625 
Q 32.328125 33.6875 34.8125 36.53125 
Q 39.546875 41.84375 41.421875 45.53125 
Q 43.3125 49.21875 43.3125 52.78125 
Q 43.3125 58.59375 39.234375 62.25 
Q 35.15625 65.921875 28.609375 65.921875 
Q 23.96875 65.921875 18.8125 64.3125 
Q 13.671875 62.703125 7.8125 59.421875 
L 7.8125 69.390625 
Q 13.765625 71.78125 18.9375 73 
Q 24.125 74.21875 28.421875 74.21875 
Q 39.75 74.21875 46.484375 68.546875 
Q 53.21875 62.890625 53.21875 53.421875 
Q 53.21875 48.921875 51.53125 44.890625 
Q 49.859375 40.875 45.40625 35.40625 
Q 44.1875 33.984375 37.640625 27.21875 
Q 31.109375 20.453125 19.1875 8.296875 
z
" id="DejaVuSans-50"/>
      </defs>
      <g transform="translate(172.919453 329.598437)scale(0.1 -0.1)">
       <use xlink:href="#DejaVuSans-50"/>
       <use x="63.623047" xlink:href="#DejaVuSans-48"/>
       <use x="127.246094" xlink:href="#DejaVuSans-48"/>
      </g>
     </g>
    </g>
    <g id="xtick_3">
     <g id="line2d_5">
      <path clip-path="url(#p9f31e387eb)" d="M 249.562771 315 
L 249.562771 43.2 
" style="fill:none;stroke:#b0b0b0;stroke-linecap:square;stroke-width:0.8;"/>
     </g>
     <g id="line2d_6">
      <g>
       <use style="stroke:#000000;stroke-width:0.8;" x="249.562771" xlink:href="#m62732e1f01" y="315"/>
      </g>
     </g>
     <g id="text_3">
      <!-- 400 -->
      <defs>
       <path d="M 37.796875 64.3125 
L 12.890625 25.390625 
L 37.796875 25.390625 
z
M 35.203125 72.90625 
L 47.609375 72.90625 
L 47.609375 25.390625 
L 58.015625 25.390625 
L 58.015625 17.1875 
L 47.609375 17.1875 
L 47.609375 0 
L 37.796875 0 
L 37.796875 17.1875 
L 4.890625 17.1875 
L 4.890625 26.703125 
z
" id="DejaVuSans-52"/>
      </defs>
      <g transform="translate(240.019021 329.598437)scale(0.1 -0.1)">
       <use xlink:href="#DejaVuSans-52"/>
       <use x="63.623047" xlink:href="#DejaVuSans-48"/>
       <use x="127.246094" xlink:href="#DejaVuSans-48"/>
      </g>
     </g>
    </g>
    <g id="xtick_4">
     <g id="line2d_7">
      <path clip-path="url(#p9f31e387eb)" d="M 316.662338 315 
L 316.662338 43.2 
" style="fill:none;stroke:#b0b0b0;stroke-linecap:square;stroke-width:0.8;"/>
     </g>
     <g id="line2d_8">
      <g>
       <use style="stroke:#000000;stroke-width:0.8;" x="316.662338" xlink:href="#m62732e1f01" y="315"/>
      </g>
     </g>
     <g id="text_4">
      <!-- 600 -->
      <defs>
       <path d="M 33.015625 40.375 
Q 26.375 40.375 22.484375 35.828125 
Q 18.609375 31.296875 18.609375 23.390625 
Q 18.609375 15.53125 22.484375 10.953125 
Q 26.375 6.390625 33.015625 6.390625 
Q 39.65625 6.390625 43.53125 10.953125 
Q 47.40625 15.53125 47.40625 23.390625 
Q 47.40625 31.296875 43.53125 35.828125 
Q 39.65625 40.375 33.015625 40.375 
z
M 52.59375 71.296875 
L 52.59375 62.3125 
Q 48.875 64.0625 45.09375 64.984375 
Q 41.3125 65.921875 37.59375 65.921875 
Q 27.828125 65.921875 22.671875 59.328125 
Q 17.53125 52.734375 16.796875 39.40625 
Q 19.671875 43.65625 24.015625 45.921875 
Q 28.375 48.1875 33.59375 48.1875 
Q 44.578125 48.1875 50.953125 41.515625 
Q 57.328125 34.859375 57.328125 23.390625 
Q 57.328125 12.15625 50.6875 5.359375 
Q 44.046875 -1.421875 33.015625 -1.421875 
Q 20.359375 -1.421875 13.671875 8.265625 
Q 6.984375 17.96875 6.984375 36.375 
Q 6.984375 53.65625 15.1875 63.9375 
Q 23.390625 74.21875 37.203125 74.21875 
Q 40.921875 74.21875 44.703125 73.484375 
Q 48.484375 72.75 52.59375 71.296875 
z
" id="DejaVuSans-54"/>
      </defs>
      <g transform="translate(307.118588 329.598437)scale(0.1 -0.1)">
       <use xlink:href="#DejaVuSans-54"/>
       <use x="63.623047" xlink:href="#DejaVuSans-48"/>
       <use x="127.246094" xlink:href="#DejaVuSans-48"/>
      </g>
     </g>
    </g>
    <g id="xtick_5">
     <g id="line2d_9">
      <path clip-path="url(#p9f31e387eb)" d="M 383.761905 315 
L 383.761905 43.2 
" style="fill:none;stroke:#b0b0b0;stroke-linecap:square;stroke-width:0.8;"/>
     </g>
     <g id="line2d_10">
      <g>
       <use style="stroke:#000000;stroke-width:0.8;" x="383.761905" xlink:href="#m62732e1f01" y="315"/>
      </g>
     </g>
     <g id="text_5">
      <!-- 800 -->
      <defs>
       <path d="M 31.78125 34.625 
Q 24.75 34.625 20.71875 30.859375 
Q 16.703125 27.09375 16.703125 20.515625 
Q 16.703125 13.921875 20.71875 10.15625 
Q 24.75 6.390625 31.78125 6.390625 
Q 38.8125 6.390625 42.859375 10.171875 
Q 46.921875 13.96875 46.921875 20.515625 
Q 46.921875 27.09375 42.890625 30.859375 
Q 38.875 34.625 31.78125 34.625 
z
M 21.921875 38.8125 
Q 15.578125 40.375 12.03125 44.71875 
Q 8.5 49.078125 8.5 55.328125 
Q 8.5 64.0625 14.71875 69.140625 
Q 20.953125 74.21875 31.78125 74.21875 
Q 42.671875 74.21875 48.875 69.140625 
Q 55.078125 64.0625 55.078125 55.328125 
Q 55.078125 49.078125 51.53125 44.71875 
Q 48 40.375 41.703125 38.8125 
Q 48.828125 37.15625 52.796875 32.3125 
Q 56.78125 27.484375 56.78125 20.515625 
Q 56.78125 9.90625 50.3125 4.234375 
Q 43.84375 -1.421875 31.78125 -1.421875 
Q 19.734375 -1.421875 13.25 4.234375 
Q 6.78125 9.90625 6.78125 20.515625 
Q 6.78125 27.484375 10.78125 32.3125 
Q 14.796875 37.15625 21.921875 38.8125 
z
M 18.3125 54.390625 
Q 18.3125 48.734375 21.84375 45.5625 
Q 25.390625 42.390625 31.78125 42.390625 
Q 38.140625 42.390625 41.71875 45.5625 
Q 45.3125 48.734375 45.3125 54.390625 
Q 45.3125 60.0625 41.71875 63.234375 
Q 38.140625 66.40625 31.78125 66.40625 
Q 25.390625 66.40625 21.84375 63.234375 
Q 18.3125 60.0625 18.3125 54.390625 
z
" id="DejaVuSans-56"/>
      </defs>
      <g transform="translate(374.218155 329.598437)scale(0.1 -0.1)">
       <use xlink:href="#DejaVuSans-56"/>
       <use x="63.623047" xlink:href="#DejaVuSans-48"/>
       <use x="127.246094" xlink:href="#DejaVuSans-48"/>
      </g>
     </g>
    </g>
    <g id="xtick_6">
     <g id="line2d_11">
      <path clip-path="url(#p9f31e387eb)" d="M 450.861472 315 
L 450.861472 43.2 
" style="fill:none;stroke:#b0b0b0;stroke-linecap:square;stroke-width:0.8;"/>
     </g>
     <g id="line2d_12">
      <g>
       <use style="stroke:#000000;stroke-width:0.8;" x="450.861472" xlink:href="#m62732e1f01" y="315"/>
      </g>
     </g>
     <g id="text_6">
      <!-- 1000 -->
      <defs>
       <path d="M 12.40625 8.296875 
L 28.515625 8.296875 
L 28.515625 63.921875 
L 10.984375 60.40625 
L 10.984375 69.390625 
L 28.421875 72.90625 
L 38.28125 72.90625 
L 38.28125 8.296875 
L 54.390625 8.296875 
L 54.390625 0 
L 12.40625 0 
z
" id="DejaVuSans-49"/>
      </defs>
      <g transform="translate(438.136472 329.598437)scale(0.1 -0.1)">
       <use xlink:href="#DejaVuSans-49"/>
       <use x="63.623047" xlink:href="#DejaVuSans-48"/>
       <use x="127.246094" xlink:href="#DejaVuSans-48"/>
       <use x="190.869141" xlink:href="#DejaVuSans-48"/>
      </g>
     </g>
    </g>
    <g id="xtick_7">
     <g id="line2d_13">
      <path clip-path="url(#p9f31e387eb)" d="M 517.961039 315 
L 517.961039 43.2 
" style="fill:none;stroke:#b0b0b0;stroke-linecap:square;stroke-width:0.8;"/>
     </g>
     <g id="line2d_14">
      <g>
       <use style="stroke:#000000;stroke-width:0.8;" x="517.961039" xlink:href="#m62732e1f01" y="315"/>
      </g>
     </g>
     <g id="text_7">
      <!-- 1200 -->
      <g transform="translate(505.236039 329.598437)scale(0.1 -0.1)">
       <use xlink:href="#DejaVuSans-49"/>
       <use x="63.623047" xlink:href="#DejaVuSans-50"/>
       <use x="127.246094" xlink:href="#DejaVuSans-48"/>
       <use x="190.869141" xlink:href="#DejaVuSans-48"/>
      </g>
     </g>
    </g>
    <g id="xtick_8">
     <g id="line2d_15">
      <path clip-path="url(#p9f31e387eb)" d="M 585.060606 315 
L 585.060606 43.2 
" style="fill:none;stroke:#b0b0b0;stroke-linecap:square;stroke-width:0.8;"/>
     </g>
     <g id="line2d_16">
      <g>
       <use style="stroke:#000000;stroke-width:0.8;" x="585.060606" xlink:href="#m62732e1f01" y="315"/>
      </g>
     </g>
     <g id="text_8">
      <!-- 1400 -->
      <g transform="translate(572.335606 329.598437)scale(0.1 -0.1)">
       <use xlink:href="#DejaVuSans-49"/>
       <use x="63.623047" xlink:href="#DejaVuSans-52"/>
       <use x="127.246094" xlink:href="#DejaVuSans-48"/>
       <use x="190.869141" xlink:href="#DejaVuSans-48"/>
      </g>
     </g>
    </g>
    <g id="text_9">
     <!-- epoch -->
     <defs>
      <path d="M 56.203125 29.59375 
L 56.203125 25.203125 
L 14.890625 25.203125 
Q 15.484375 15.921875 20.484375 11.0625 
Q 25.484375 6.203125 34.421875 6.203125 
Q 39.59375 6.203125 44.453125 7.46875 
Q 49.3125 8.734375 54.109375 11.28125 
L 54.109375 2.78125 
Q 49.265625 0.734375 44.1875 -0.34375 
Q 39.109375 -1.421875 33.890625 -1.421875 
Q 20.796875 -1.421875 13.15625 6.1875 
Q 5.515625 13.8125 5.515625 26.8125 
Q 5.515625 40.234375 12.765625 48.109375 
Q 20.015625 56 32.328125 56 
Q 43.359375 56 49.78125 48.890625 
Q 56.203125 41.796875 56.203125 29.59375 
z
M 47.21875 32.234375 
Q 47.125 39.59375 43.09375 43.984375 
Q 39.0625 48.390625 32.421875 48.390625 
Q 24.90625 48.390625 20.390625 44.140625 
Q 15.875 39.890625 15.1875 32.171875 
z
" id="DejaVuSans-101"/>
      <path d="M 18.109375 8.203125 
L 18.109375 -20.796875 
L 9.078125 -20.796875 
L 9.078125 54.6875 
L 18.109375 54.6875 
L 18.109375 46.390625 
Q 20.953125 51.265625 25.265625 53.625 
Q 29.59375 56 35.59375 56 
Q 45.5625 56 51.78125 48.09375 
Q 58.015625 40.1875 58.015625 27.296875 
Q 58.015625 14.40625 51.78125 6.484375 
Q 45.5625 -1.421875 35.59375 -1.421875 
Q 29.59375 -1.421875 25.265625 0.953125 
Q 20.953125 3.328125 18.109375 8.203125 
z
M 48.6875 27.296875 
Q 48.6875 37.203125 44.609375 42.84375 
Q 40.53125 48.484375 33.40625 48.484375 
Q 26.265625 48.484375 22.1875 42.84375 
Q 18.109375 37.203125 18.109375 27.296875 
Q 18.109375 17.390625 22.1875 11.75 
Q 26.265625 6.109375 33.40625 6.109375 
Q 40.53125 6.109375 44.609375 11.75 
Q 48.6875 17.390625 48.6875 27.296875 
z
" id="DejaVuSans-112"/>
      <path d="M 30.609375 48.390625 
Q 23.390625 48.390625 19.1875 42.75 
Q 14.984375 37.109375 14.984375 27.296875 
Q 14.984375 17.484375 19.15625 11.84375 
Q 23.34375 6.203125 30.609375 6.203125 
Q 37.796875 6.203125 41.984375 11.859375 
Q 46.1875 17.53125 46.1875 27.296875 
Q 46.1875 37.015625 41.984375 42.703125 
Q 37.796875 48.390625 30.609375 48.390625 
z
M 30.609375 56 
Q 42.328125 56 49.015625 48.375 
Q 55.71875 40.765625 55.71875 27.296875 
Q 55.71875 13.875 49.015625 6.21875 
Q 42.328125 -1.421875 30.609375 -1.421875 
Q 18.84375 -1.421875 12.171875 6.21875 
Q 5.515625 13.875 5.515625 27.296875 
Q 5.515625 40.765625 12.171875 48.375 
Q 18.84375 56 30.609375 56 
z
" id="DejaVuSans-111"/>
      <path d="M 48.78125 52.59375 
L 48.78125 44.1875 
Q 44.96875 46.296875 41.140625 47.34375 
Q 37.3125 48.390625 33.40625 48.390625 
Q 24.65625 48.390625 19.8125 42.84375 
Q 14.984375 37.3125 14.984375 27.296875 
Q 14.984375 17.28125 19.8125 11.734375 
Q 24.65625 6.203125 33.40625 6.203125 
Q 37.3125 6.203125 41.140625 7.25 
Q 44.96875 8.296875 48.78125 10.40625 
L 48.78125 2.09375 
Q 45.015625 0.34375 40.984375 -0.53125 
Q 36.96875 -1.421875 32.421875 -1.421875 
Q 20.0625 -1.421875 12.78125 6.34375 
Q 5.515625 14.109375 5.515625 27.296875 
Q 5.515625 40.671875 12.859375 48.328125 
Q 20.21875 56 33.015625 56 
Q 37.15625 56 41.109375 55.140625 
Q 45.0625 54.296875 48.78125 52.59375 
z
" id="DejaVuSans-99"/>
      <path d="M 54.890625 33.015625 
L 54.890625 0 
L 45.90625 0 
L 45.90625 32.71875 
Q 45.90625 40.484375 42.875 44.328125 
Q 39.84375 48.1875 33.796875 48.1875 
Q 26.515625 48.1875 22.3125 43.546875 
Q 18.109375 38.921875 18.109375 30.90625 
L 18.109375 0 
L 9.078125 0 
L 9.078125 75.984375 
L 18.109375 75.984375 
L 18.109375 46.1875 
Q 21.34375 51.125 25.703125 53.5625 
Q 30.078125 56 35.796875 56 
Q 45.21875 56 50.046875 50.171875 
Q 54.890625 44.34375 54.890625 33.015625 
z
" id="DejaVuSans-104"/>
     </defs>
     <g transform="translate(353.771875 343.276563)scale(0.1 -0.1)">
      <use xlink:href="#DejaVuSans-101"/>
      <use x="61.523438" xlink:href="#DejaVuSans-112"/>
      <use x="125" xlink:href="#DejaVuSans-111"/>
      <use x="186.181641" xlink:href="#DejaVuSans-99"/>
      <use x="241.162109" xlink:href="#DejaVuSans-104"/>
     </g>
    </g>
   </g>
   <g id="matplotlib.axis_2">
    <g id="ytick_1">
     <g id="line2d_17">
      <path clip-path="url(#p9f31e387eb)" d="M 90 280.557025 
L 648 280.557025 
" style="fill:none;stroke:#b0b0b0;stroke-linecap:square;stroke-width:0.8;"/>
     </g>
     <g id="line2d_18">
      <defs>
       <path d="M 0 0 
L -3.5 0 
" id="maaceb64821" style="stroke:#000000;stroke-width:0.8;"/>
      </defs>
      <g>
       <use style="stroke:#000000;stroke-width:0.8;" x="90" xlink:href="#maaceb64821" y="280.557025"/>
      </g>
     </g>
     <g id="text_10">
      <!-- 0.3 -->
      <defs>
       <path d="M 10.6875 12.40625 
L 21 12.40625 
L 21 0 
L 10.6875 0 
z
" id="DejaVuSans-46"/>
       <path d="M 40.578125 39.3125 
Q 47.65625 37.796875 51.625 33 
Q 55.609375 28.21875 55.609375 21.1875 
Q 55.609375 10.40625 48.1875 4.484375 
Q 40.765625 -1.421875 27.09375 -1.421875 
Q 22.515625 -1.421875 17.65625 -0.515625 
Q 12.796875 0.390625 7.625 2.203125 
L 7.625 11.71875 
Q 11.71875 9.328125 16.59375 8.109375 
Q 21.484375 6.890625 26.8125 6.890625 
Q 36.078125 6.890625 40.9375 10.546875 
Q 45.796875 14.203125 45.796875 21.1875 
Q 45.796875 27.640625 41.28125 31.265625 
Q 36.765625 34.90625 28.71875 34.90625 
L 20.21875 34.90625 
L 20.21875 43.015625 
L 29.109375 43.015625 
Q 36.375 43.015625 40.234375 45.921875 
Q 44.09375 48.828125 44.09375 54.296875 
Q 44.09375 59.90625 40.109375 62.90625 
Q 36.140625 65.921875 28.71875 65.921875 
Q 24.65625 65.921875 20.015625 65.03125 
Q 15.375 64.15625 9.8125 62.3125 
L 9.8125 71.09375 
Q 15.4375 72.65625 20.34375 73.4375 
Q 25.25 74.21875 29.59375 74.21875 
Q 40.828125 74.21875 47.359375 69.109375 
Q 53.90625 64.015625 53.90625 55.328125 
Q 53.90625 49.265625 50.4375 45.09375 
Q 46.96875 40.921875 40.578125 39.3125 
z
" id="DejaVuSans-51"/>
      </defs>
      <g transform="translate(67.096875 284.356244)scale(0.1 -0.1)">
       <use xlink:href="#DejaVuSans-48"/>
       <use x="63.623047" xlink:href="#DejaVuSans-46"/>
       <use x="95.410156" xlink:href="#DejaVuSans-51"/>
      </g>
     </g>
    </g>
    <g id="ytick_2">
     <g id="line2d_19">
      <path clip-path="url(#p9f31e387eb)" d="M 90 243.119008 
L 648 243.119008 
" style="fill:none;stroke:#b0b0b0;stroke-linecap:square;stroke-width:0.8;"/>
     </g>
     <g id="line2d_20">
      <g>
       <use style="stroke:#000000;stroke-width:0.8;" x="90" xlink:href="#maaceb64821" y="243.119008"/>
      </g>
     </g>
     <g id="text_11">
      <!-- 0.4 -->
      <g transform="translate(67.096875 246.918227)scale(0.1 -0.1)">
       <use xlink:href="#DejaVuSans-48"/>
       <use x="63.623047" xlink:href="#DejaVuSans-46"/>
       <use x="95.410156" xlink:href="#DejaVuSans-52"/>
      </g>
     </g>
    </g>
    <g id="ytick_3">
     <g id="line2d_21">
      <path clip-path="url(#p9f31e387eb)" d="M 90 205.680992 
L 648 205.680992 
" style="fill:none;stroke:#b0b0b0;stroke-linecap:square;stroke-width:0.8;"/>
     </g>
     <g id="line2d_22">
      <g>
       <use style="stroke:#000000;stroke-width:0.8;" x="90" xlink:href="#maaceb64821" y="205.680992"/>
      </g>
     </g>
     <g id="text_12">
      <!-- 0.5 -->
      <defs>
       <path d="M 10.796875 72.90625 
L 49.515625 72.90625 
L 49.515625 64.59375 
L 19.828125 64.59375 
L 19.828125 46.734375 
Q 21.96875 47.46875 24.109375 47.828125 
Q 26.265625 48.1875 28.421875 48.1875 
Q 40.625 48.1875 47.75 41.5 
Q 54.890625 34.8125 54.890625 23.390625 
Q 54.890625 11.625 47.5625 5.09375 
Q 40.234375 -1.421875 26.90625 -1.421875 
Q 22.3125 -1.421875 17.546875 -0.640625 
Q 12.796875 0.140625 7.71875 1.703125 
L 7.71875 11.625 
Q 12.109375 9.234375 16.796875 8.0625 
Q 21.484375 6.890625 26.703125 6.890625 
Q 35.15625 6.890625 40.078125 11.328125 
Q 45.015625 15.765625 45.015625 23.390625 
Q 45.015625 31 40.078125 35.4375 
Q 35.15625 39.890625 26.703125 39.890625 
Q 22.75 39.890625 18.8125 39.015625 
Q 14.890625 38.140625 10.796875 36.28125 
z
" id="DejaVuSans-53"/>
      </defs>
      <g transform="translate(67.096875 209.48021)scale(0.1 -0.1)">
       <use xlink:href="#DejaVuSans-48"/>
       <use x="63.623047" xlink:href="#DejaVuSans-46"/>
       <use x="95.410156" xlink:href="#DejaVuSans-53"/>
      </g>
     </g>
    </g>
    <g id="ytick_4">
     <g id="line2d_23">
      <path clip-path="url(#p9f31e387eb)" d="M 90 168.242975 
L 648 168.242975 
" style="fill:none;stroke:#b0b0b0;stroke-linecap:square;stroke-width:0.8;"/>
     </g>
     <g id="line2d_24">
      <g>
       <use style="stroke:#000000;stroke-width:0.8;" x="90" xlink:href="#maaceb64821" y="168.242975"/>
      </g>
     </g>
     <g id="text_13">
      <!-- 0.6 -->
      <g transform="translate(67.096875 172.042194)scale(0.1 -0.1)">
       <use xlink:href="#DejaVuSans-48"/>
       <use x="63.623047" xlink:href="#DejaVuSans-46"/>
       <use x="95.410156" xlink:href="#DejaVuSans-54"/>
      </g>
     </g>
    </g>
    <g id="ytick_5">
     <g id="line2d_25">
      <path clip-path="url(#p9f31e387eb)" d="M 90 130.804959 
L 648 130.804959 
" style="fill:none;stroke:#b0b0b0;stroke-linecap:square;stroke-width:0.8;"/>
     </g>
     <g id="line2d_26">
      <g>
       <use style="stroke:#000000;stroke-width:0.8;" x="90" xlink:href="#maaceb64821" y="130.804959"/>
      </g>
     </g>
     <g id="text_14">
      <!-- 0.7 -->
      <defs>
       <path d="M 8.203125 72.90625 
L 55.078125 72.90625 
L 55.078125 68.703125 
L 28.609375 0 
L 18.3125 0 
L 43.21875 64.59375 
L 8.203125 64.59375 
z
" id="DejaVuSans-55"/>
      </defs>
      <g transform="translate(67.096875 134.604177)scale(0.1 -0.1)">
       <use xlink:href="#DejaVuSans-48"/>
       <use x="63.623047" xlink:href="#DejaVuSans-46"/>
       <use x="95.410156" xlink:href="#DejaVuSans-55"/>
      </g>
     </g>
    </g>
    <g id="ytick_6">
     <g id="line2d_27">
      <path clip-path="url(#p9f31e387eb)" d="M 90 93.366942 
L 648 93.366942 
" style="fill:none;stroke:#b0b0b0;stroke-linecap:square;stroke-width:0.8;"/>
     </g>
     <g id="line2d_28">
      <g>
       <use style="stroke:#000000;stroke-width:0.8;" x="90" xlink:href="#maaceb64821" y="93.366942"/>
      </g>
     </g>
     <g id="text_15">
      <!-- 0.8 -->
      <g transform="translate(67.096875 97.166161)scale(0.1 -0.1)">
       <use xlink:href="#DejaVuSans-48"/>
       <use x="63.623047" xlink:href="#DejaVuSans-46"/>
       <use x="95.410156" xlink:href="#DejaVuSans-56"/>
      </g>
     </g>
    </g>
    <g id="ytick_7">
     <g id="line2d_29">
      <path clip-path="url(#p9f31e387eb)" d="M 90 55.928926 
L 648 55.928926 
" style="fill:none;stroke:#b0b0b0;stroke-linecap:square;stroke-width:0.8;"/>
     </g>
     <g id="line2d_30">
      <g>
       <use style="stroke:#000000;stroke-width:0.8;" x="90" xlink:href="#maaceb64821" y="55.928926"/>
      </g>
     </g>
     <g id="text_16">
      <!-- 0.9 -->
      <defs>
       <path d="M 10.984375 1.515625 
L 10.984375 10.5 
Q 14.703125 8.734375 18.5 7.8125 
Q 22.3125 6.890625 25.984375 6.890625 
Q 35.75 6.890625 40.890625 13.453125 
Q 46.046875 20.015625 46.78125 33.40625 
Q 43.953125 29.203125 39.59375 26.953125 
Q 35.25 24.703125 29.984375 24.703125 
Q 19.046875 24.703125 12.671875 31.3125 
Q 6.296875 37.9375 6.296875 49.421875 
Q 6.296875 60.640625 12.9375 67.421875 
Q 19.578125 74.21875 30.609375 74.21875 
Q 43.265625 74.21875 49.921875 64.515625 
Q 56.59375 54.828125 56.59375 36.375 
Q 56.59375 19.140625 48.40625 8.859375 
Q 40.234375 -1.421875 26.421875 -1.421875 
Q 22.703125 -1.421875 18.890625 -0.6875 
Q 15.09375 0.046875 10.984375 1.515625 
z
M 30.609375 32.421875 
Q 37.25 32.421875 41.125 36.953125 
Q 45.015625 41.5 45.015625 49.421875 
Q 45.015625 57.28125 41.125 61.84375 
Q 37.25 66.40625 30.609375 66.40625 
Q 23.96875 66.40625 20.09375 61.84375 
Q 16.21875 57.28125 16.21875 49.421875 
Q 16.21875 41.5 20.09375 36.953125 
Q 23.96875 32.421875 30.609375 32.421875 
z
" id="DejaVuSans-57"/>
      </defs>
      <g transform="translate(67.096875 59.728144)scale(0.1 -0.1)">
       <use xlink:href="#DejaVuSans-48"/>
       <use x="63.623047" xlink:href="#DejaVuSans-46"/>
       <use x="95.410156" xlink:href="#DejaVuSans-57"/>
      </g>
     </g>
    </g>
    <g id="text_17">
     <!-- accuracy -->
     <defs>
      <path d="M 34.28125 27.484375 
Q 23.390625 27.484375 19.1875 25 
Q 14.984375 22.515625 14.984375 16.5 
Q 14.984375 11.71875 18.140625 8.90625 
Q 21.296875 6.109375 26.703125 6.109375 
Q 34.1875 6.109375 38.703125 11.40625 
Q 43.21875 16.703125 43.21875 25.484375 
L 43.21875 27.484375 
z
M 52.203125 31.203125 
L 52.203125 0 
L 43.21875 0 
L 43.21875 8.296875 
Q 40.140625 3.328125 35.546875 0.953125 
Q 30.953125 -1.421875 24.3125 -1.421875 
Q 15.921875 -1.421875 10.953125 3.296875 
Q 6 8.015625 6 15.921875 
Q 6 25.140625 12.171875 29.828125 
Q 18.359375 34.515625 30.609375 34.515625 
L 43.21875 34.515625 
L 43.21875 35.40625 
Q 43.21875 41.609375 39.140625 45 
Q 35.0625 48.390625 27.6875 48.390625 
Q 23 48.390625 18.546875 47.265625 
Q 14.109375 46.140625 10.015625 43.890625 
L 10.015625 52.203125 
Q 14.9375 54.109375 19.578125 55.046875 
Q 24.21875 56 28.609375 56 
Q 40.484375 56 46.34375 49.84375 
Q 52.203125 43.703125 52.203125 31.203125 
z
" id="DejaVuSans-97"/>
      <path d="M 8.5 21.578125 
L 8.5 54.6875 
L 17.484375 54.6875 
L 17.484375 21.921875 
Q 17.484375 14.15625 20.5 10.265625 
Q 23.53125 6.390625 29.59375 6.390625 
Q 36.859375 6.390625 41.078125 11.03125 
Q 45.3125 15.671875 45.3125 23.6875 
L 45.3125 54.6875 
L 54.296875 54.6875 
L 54.296875 0 
L 45.3125 0 
L 45.3125 8.40625 
Q 42.046875 3.421875 37.71875 1 
Q 33.40625 -1.421875 27.6875 -1.421875 
Q 18.265625 -1.421875 13.375 4.4375 
Q 8.5 10.296875 8.5 21.578125 
z
M 31.109375 56 
z
" id="DejaVuSans-117"/>
      <path d="M 41.109375 46.296875 
Q 39.59375 47.171875 37.8125 47.578125 
Q 36.03125 48 33.890625 48 
Q 26.265625 48 22.1875 43.046875 
Q 18.109375 38.09375 18.109375 28.8125 
L 18.109375 0 
L 9.078125 0 
L 9.078125 54.6875 
L 18.109375 54.6875 
L 18.109375 46.1875 
Q 20.953125 51.171875 25.484375 53.578125 
Q 30.03125 56 36.53125 56 
Q 37.453125 56 38.578125 55.875 
Q 39.703125 55.765625 41.0625 55.515625 
z
" id="DejaVuSans-114"/>
      <path d="M 32.171875 -5.078125 
Q 28.375 -14.84375 24.75 -17.8125 
Q 21.140625 -20.796875 15.09375 -20.796875 
L 7.90625 -20.796875 
L 7.90625 -13.28125 
L 13.1875 -13.28125 
Q 16.890625 -13.28125 18.9375 -11.515625 
Q 21 -9.765625 23.484375 -3.21875 
L 25.09375 0.875 
L 2.984375 54.6875 
L 12.5 54.6875 
L 29.59375 11.921875 
L 46.6875 54.6875 
L 56.203125 54.6875 
z
" id="DejaVuSans-121"/>
     </defs>
     <g transform="translate(61.017187 201.659375)rotate(-90)scale(0.1 -0.1)">
      <use xlink:href="#DejaVuSans-97"/>
      <use x="61.279297" xlink:href="#DejaVuSans-99"/>
      <use x="116.259766" xlink:href="#DejaVuSans-99"/>
      <use x="171.240234" xlink:href="#DejaVuSans-117"/>
      <use x="234.619141" xlink:href="#DejaVuSans-114"/>
      <use x="275.732422" xlink:href="#DejaVuSans-97"/>
      <use x="337.011719" xlink:href="#DejaVuSans-99"/>
      <use x="391.992188" xlink:href="#DejaVuSans-121"/>
     </g>
    </g>
   </g>
   <g id="line2d_31">
    <path clip-path="url(#p9f31e387eb)" d="M 115.363636 297.123347 
L 115.699134 293.379545 
L 116.034632 300.960744 
L 116.705628 295.064256 
L 117.041126 298.527273 
L 117.712121 293.753926 
L 118.047619 299.650413 
L 118.383117 298.620868 
L 118.718615 292.53719 
L 119.054113 297.684917 
L 119.38961 298.808058 
L 119.725108 301.896694 
L 120.060606 298.433678 
L 120.396104 302.645455 
L 120.731602 298.527273 
L 121.0671 297.684917 
L 121.402597 290.758884 
L 121.738095 291.694835 
L 122.073593 301.054339 
L 122.409091 296.374587 
L 122.744589 295.251446 
L 123.080087 298.620868 
L 123.415584 297.778512 
L 123.751082 290.384504 
L 124.08658 294.502686 
L 124.422078 290.946074 
L 124.757576 292.817975 
L 125.093074 292.72438 
L 125.428571 293.660331 
L 125.764069 295.906612 
L 126.099567 290.852479 
L 126.435065 291.22686 
L 126.770563 285.049587 
L 127.106061 287.202273 
L 127.441558 283.926446 
L 127.777056 286.734298 
L 128.112554 288.325413 
L 128.448052 274.473347 
L 128.78355 279.246694 
L 129.119048 276.064463 
L 129.454545 274.941322 
L 129.790043 269.88719 
L 130.125541 270.44876 
L 130.461039 264.458678 
L 130.796537 264.458678 
L 131.132035 257.81343 
L 131.80303 248.734711 
L 132.138528 249.202686 
L 132.474026 241.527893 
L 132.809524 237.877686 
L 133.145022 230.109298 
L 133.480519 226.178306 
L 134.151515 215.227686 
L 134.487013 215.602066 
L 134.822511 214.19814 
L 135.158009 207.927273 
L 135.493506 197.725413 
L 135.829004 198.099793 
L 136.164502 194.636777 
L 136.5 195.759917 
L 136.835498 188.085124 
L 137.170996 183.405372 
L 137.506494 184.060537 
L 137.841991 182.563017 
L 138.177489 178.070455 
L 138.512987 171.893182 
L 139.183983 168.055785 
L 139.854978 157.479545 
L 140.190476 158.228306 
L 140.525974 154.016529 
L 140.861472 159.632231 
L 141.532468 148.588017 
L 141.867965 152.331818 
L 142.538961 147.090496 
L 142.874459 145.68657 
L 143.209957 143.440289 
L 143.545455 145.49938 
L 143.880952 145.87376 
L 144.21645 138.292562 
L 144.551948 142.691529 
L 144.887446 139.415702 
L 145.222944 138.760537 
L 145.558442 137.263017 
L 145.893939 132.208884 
L 146.229437 141.287603 
L 146.564935 132.302479 
L 146.900433 133.706405 
L 147.571429 135.203926 
L 148.242424 128.465083 
L 148.577922 126.873967 
L 148.91342 129.401033 
L 149.248918 126.405992 
L 149.584416 125.657231 
L 149.919913 121.91343 
L 150.255411 130.992149 
L 150.590909 124.721281 
L 150.926407 125.002066 
L 151.261905 124.627686 
L 151.9329 117.608058 
L 152.268398 119.854339 
L 152.603896 123.03657 
L 153.274892 118.076033 
L 153.61039 119.479959 
L 153.945887 116.391322 
L 154.616883 120.135124 
L 154.952381 116.578512 
L 155.287879 116.204132 
L 155.623377 120.228719 
L 155.958874 116.859298 
L 156.294372 112.27314 
L 156.62987 117.046488 
L 156.965368 109.839669 
L 157.300866 116.672107 
L 157.636364 112.27314 
L 157.971861 111.52438 
L 158.307359 111.056405 
L 158.642857 116.110537 
L 158.978355 112.647521 
L 159.313853 111.71157 
L 159.649351 113.021901 
L 160.991342 106.376653 
L 161.32684 108.716529 
L 161.662338 105.908678 
L 161.997835 106.938223 
L 162.333333 103.475207 
L 162.668831 106.189463 
L 163.004329 102.071281 
L 163.339827 100.57376 
L 163.675325 109.652479 
L 164.010823 111.89876 
L 164.34632 108.248554 
L 164.681818 101.696901 
L 165.017316 101.228926 
L 165.352814 104.598347 
L 165.688312 103.100826 
L 166.02381 103.755992 
L 167.030303 99.26343 
L 167.365801 99.07624 
L 167.701299 102.071281 
L 168.036797 102.632851 
L 168.372294 99.544215 
L 168.707792 98.795455 
L 169.04329 98.88905 
L 169.378788 99.26343 
L 169.714286 101.135331 
L 170.049784 101.884091 
L 170.385281 101.041736 
L 170.720779 99.544215 
L 171.056277 96.268388 
L 171.391775 98.327479 
L 172.062771 99.731405 
L 172.398268 93.554132 
L 172.733766 95.051653 
L 173.069264 97.297934 
L 173.404762 95.987603 
L 173.74026 98.608264 
L 174.075758 90.371901 
L 174.411255 98.046694 
L 174.746753 92.430992 
L 175.082251 95.051653 
L 175.417749 93.460537 
L 175.753247 94.022107 
L 176.088745 92.992562 
L 176.424242 94.396488 
L 176.75974 98.795455 
L 177.095238 95.706818 
L 177.430736 94.022107 
L 177.766234 94.022107 
L 178.101732 93.179752 
L 178.437229 90.371901 
L 178.772727 94.583678 
L 179.108225 94.022107 
L 179.443723 95.051653 
L 179.779221 94.770868 
L 180.114719 95.706818 
L 180.450216 93.741322 
L 180.785714 94.396488 
L 181.121212 91.214256 
L 181.45671 95.706818 
L 181.792208 93.273347 
L 182.127706 91.775826 
L 182.463203 91.869421 
L 182.798701 91.401446 
L 183.134199 93.273347 
L 183.469697 91.588636 
L 183.805195 95.987603 
L 184.140693 93.647727 
L 184.47619 90.278306 
L 184.811688 90.091116 
L 185.147186 91.307851 
L 185.482684 91.307851 
L 185.818182 91.682231 
L 186.15368 91.495041 
L 186.489177 90.184711 
L 186.824675 90.839876 
L 187.160173 92.337397 
L 187.495671 88.12562 
L 187.831169 91.307851 
L 188.166667 92.243802 
L 188.837662 88.12562 
L 189.17316 91.869421 
L 189.844156 88.967975 
L 190.179654 92.430992 
L 190.515152 84.849793 
L 190.850649 89.155165 
L 191.186147 87.002479 
L 191.521645 89.06157 
L 191.857143 86.908884 
L 192.192641 88.780785 
L 192.528139 88.219215 
L 192.863636 85.785744 
L 193.199134 86.908884 
L 193.534632 87.002479 
L 193.87013 88.5 
L 194.205628 84.662603 
L 194.541126 88.406405 
L 194.876623 88.31281 
L 195.212121 88.68719 
L 195.883117 85.692149 
L 196.218615 84.662603 
L 196.554113 88.87438 
L 196.88961 89.24876 
L 197.225108 85.972934 
L 197.560606 85.036983 
L 197.896104 86.534504 
L 198.5671 83.539463 
L 198.902597 88.68719 
L 199.238095 82.790702 
L 199.573593 82.697107 
L 200.244589 87.657645 
L 200.580087 81.480372 
L 200.915584 87.470455 
L 201.251082 85.879339 
L 201.58658 88.31281 
L 201.922078 86.815289 
L 202.257576 87.283264 
L 202.593074 85.972934 
L 202.928571 86.066529 
L 203.264069 82.322727 
L 203.599567 84.943388 
L 203.935065 86.440909 
L 204.270563 85.785744 
L 204.606061 84.756198 
L 204.941558 84.756198 
L 205.277056 85.130579 
L 205.612554 83.352273 
L 205.948052 83.726653 
L 206.28355 82.135537 
L 206.619048 87.75124 
L 206.954545 83.445868 
L 207.290043 83.071488 
L 207.625541 84.194628 
L 207.961039 84.101033 
L 208.296537 88.68719 
L 208.632035 85.598554 
L 208.967532 85.130579 
L 209.30303 85.130579 
L 209.638528 84.007438 
L 209.974026 86.160124 
L 210.309524 84.194628 
L 210.645022 84.381818 
L 210.980519 84.288223 
L 211.316017 82.884298 
L 211.651515 82.977893 
L 211.987013 82.416322 
L 212.322511 85.504959 
L 212.658009 85.036983 
L 213.329004 80.263636 
L 213.664502 82.041942 
L 214 84.475413 
L 214.335498 81.854752 
L 214.670996 81.761157 
L 215.006494 85.785744 
L 215.677489 83.165083 
L 216.012987 85.785744 
L 216.348485 86.066529 
L 217.019481 81.854752 
L 217.354978 85.224174 
L 217.690476 82.790702 
L 218.025974 77.268595 
L 218.361472 82.884298 
L 218.69697 82.135537 
L 219.367965 81.012397 
L 219.703463 81.480372 
L 220.038961 86.066529 
L 220.374459 83.445868 
L 220.709957 83.165083 
L 221.045455 82.322727 
L 221.71645 87.470455 
L 222.051948 82.884298 
L 222.387446 79.889256 
L 222.722944 80.638017 
L 223.058442 80.731612 
L 223.393939 80.263636 
L 223.729437 84.475413 
L 224.064935 83.352273 
L 224.400433 78.859711 
L 224.735931 80.450826 
L 225.071429 84.194628 
L 225.406926 82.884298 
L 225.742424 83.445868 
L 226.077922 80.731612 
L 226.41342 83.165083 
L 226.748918 84.194628 
L 227.084416 82.322727 
L 227.419913 79.608471 
L 227.755411 83.071488 
L 228.090909 80.638017 
L 228.426407 80.825207 
L 229.097403 79.514876 
L 229.4329 78.859711 
L 229.768398 81.293182 
L 230.103896 77.92376 
L 230.439394 79.889256 
L 230.774892 80.357231 
L 231.11039 82.229132 
L 231.445887 78.11095 
L 231.781385 83.165083 
L 232.116883 78.017355 
L 232.452381 78.29814 
L 233.123377 81.761157 
L 233.458874 78.859711 
L 233.794372 81.854752 
L 234.12987 80.263636 
L 234.465368 77.268595 
L 234.800866 82.884298 
L 235.136364 80.638017 
L 235.471861 82.416322 
L 235.807359 80.357231 
L 236.142857 81.386777 
L 236.478355 83.071488 
L 236.813853 79.889256 
L 237.149351 80.170041 
L 237.484848 84.756198 
L 237.820346 80.076446 
L 238.155844 82.322727 
L 238.491342 78.485331 
L 238.82684 78.766116 
L 239.162338 79.889256 
L 239.497835 82.135537 
L 239.833333 77.830165 
L 240.168831 76.23905 
L 240.504329 82.697107 
L 241.175325 77.73657 
L 241.510823 81.480372 
L 241.84632 81.761157 
L 242.181818 80.076446 
L 242.517316 84.475413 
L 242.852814 78.485331 
L 243.188312 77.081405 
L 243.52381 79.514876 
L 243.859307 74.928719 
L 244.194805 79.514876 
L 244.530303 79.608471 
L 244.865801 79.514876 
L 245.201299 81.199587 
L 245.536797 80.170041 
L 245.872294 77.175 
L 246.207792 81.293182 
L 246.54329 79.608471 
L 246.878788 82.509917 
L 247.214286 77.081405 
L 247.549784 77.92376 
L 247.885281 77.268595 
L 248.220779 73.618388 
L 248.556277 78.017355 
L 248.891775 78.953306 
L 249.562771 75.490289 
L 249.898268 74.835124 
L 250.233766 78.578926 
L 250.569264 75.864669 
L 250.904762 79.327686 
L 251.24026 79.702066 
L 251.575758 78.391736 
L 251.911255 78.672521 
L 252.582251 76.519835 
L 252.917749 73.056818 
L 253.253247 76.42624 
L 253.588745 77.081405 
L 253.924242 79.046901 
L 254.595238 75.771074 
L 254.930736 79.514876 
L 255.266234 76.23905 
L 255.601732 71.746488 
L 255.937229 76.519835 
L 256.272727 75.303099 
L 256.608225 77.73657 
L 256.943723 73.618388 
L 257.279221 78.953306 
L 257.614719 76.80062 
L 257.950216 81.573967 
L 258.285714 75.771074 
L 258.621212 72.495248 
L 258.95671 76.42624 
L 259.292208 76.80062 
L 259.627706 77.92376 
L 259.963203 77.268595 
L 260.298701 75.490289 
L 260.634199 79.140496 
L 260.969697 78.485331 
L 261.305195 73.337603 
L 261.640693 74.835124 
L 261.97619 74.554339 
L 262.311688 78.29814 
L 262.647186 76.894215 
L 263.318182 78.859711 
L 263.65368 72.588843 
L 263.989177 75.864669 
L 264.324675 73.992769 
L 264.660173 76.23905 
L 264.995671 75.864669 
L 265.331169 74.835124 
L 265.666667 78.29814 
L 266.002165 74.554339 
L 266.337662 78.391736 
L 266.67316 76.894215 
L 267.008658 79.702066 
L 267.344156 77.081405 
L 267.679654 76.42624 
L 268.015152 76.23905 
L 268.350649 74.554339 
L 268.686147 75.022314 
L 269.021645 76.332645 
L 269.357143 73.056818 
L 269.692641 76.98781 
L 270.028139 78.29814 
L 270.363636 76.894215 
L 270.699134 76.519835 
L 271.034632 78.017355 
L 271.37013 72.588843 
L 271.705628 77.830165 
L 272.041126 79.889256 
L 272.376623 73.618388 
L 273.047619 74.741529 
L 273.383117 71.559298 
L 273.718615 75.583884 
L 274.054113 74.928719 
L 274.38961 75.209504 
L 274.725108 79.327686 
L 275.060606 77.92376 
L 275.396104 78.11095 
L 276.0671 72.308058 
L 276.402597 73.056818 
L 276.738095 77.73657 
L 277.073593 74.460744 
L 277.409091 75.115909 
L 277.744589 75.490289 
L 278.080087 72.027273 
L 278.415584 78.11095 
L 278.751082 75.771074 
L 279.08658 72.027273 
L 279.422078 77.73657 
L 279.757576 79.140496 
L 280.093074 75.209504 
L 280.428571 73.150413 
L 280.764069 73.337603 
L 281.099567 75.490289 
L 281.435065 75.303099 
L 281.770563 77.268595 
L 282.106061 75.115909 
L 282.441558 75.303099 
L 282.777056 73.992769 
L 283.112554 75.677479 
L 283.448052 70.623347 
L 283.78355 73.431198 
L 284.119048 74.179959 
L 284.454545 77.268595 
L 285.125541 72.120868 
L 285.796537 72.776033 
L 286.132035 73.244008 
L 286.467532 74.460744 
L 286.80303 74.554339 
L 287.138528 75.209504 
L 287.474026 71.091322 
L 287.809524 74.086364 
L 288.145022 78.29814 
L 288.480519 74.647934 
L 288.816017 75.115909 
L 289.151515 72.120868 
L 289.487013 74.554339 
L 289.822511 75.583884 
L 290.158009 72.120868 
L 290.493506 71.559298 
L 290.829004 73.711983 
L 291.164502 73.618388 
L 291.5 71.933678 
L 291.835498 73.618388 
L 292.170996 73.150413 
L 292.506494 74.647934 
L 292.841991 73.711983 
L 293.177489 73.992769 
L 293.512987 75.209504 
L 294.183983 70.529752 
L 294.519481 74.179959 
L 294.854978 71.184917 
L 295.190476 73.431198 
L 295.525974 73.244008 
L 295.861472 75.115909 
L 296.19697 75.677479 
L 296.532468 78.204545 
L 297.203463 72.682438 
L 297.874459 73.431198 
L 298.209957 75.022314 
L 298.545455 72.214463 
L 298.880952 73.431198 
L 299.21645 72.588843 
L 299.551948 77.36219 
L 299.887446 75.396694 
L 300.558442 73.992769 
L 300.893939 77.455785 
L 301.229437 72.214463 
L 301.564935 74.273554 
L 301.900433 72.963223 
L 302.235931 75.958264 
L 302.571429 74.460744 
L 302.906926 74.647934 
L 303.242424 73.524793 
L 303.577922 73.431198 
L 303.91342 74.460744 
L 304.248918 74.367149 
L 304.584416 74.554339 
L 304.919913 73.899174 
L 305.255411 71.184917 
L 305.590909 72.588843 
L 305.926407 72.308058 
L 306.261905 72.776033 
L 306.597403 72.869628 
L 306.9329 72.588843 
L 307.268398 76.05186 
L 307.939394 71.840083 
L 308.274892 73.524793 
L 308.61039 72.588843 
L 308.945887 72.308058 
L 309.281385 71.559298 
L 309.616883 71.652893 
L 309.952381 73.899174 
L 310.287879 74.179959 
L 310.623377 72.120868 
L 310.958874 71.840083 
L 311.294372 74.367149 
L 311.62987 73.150413 
L 311.965368 73.244008 
L 312.300866 70.997727 
L 312.636364 72.308058 
L 312.971861 72.776033 
L 313.307359 71.933678 
L 313.642857 72.120868 
L 313.978355 71.184917 
L 314.313853 73.899174 
L 314.649351 72.776033 
L 314.984848 76.61343 
L 315.320346 73.337603 
L 315.655844 71.652893 
L 315.991342 71.372107 
L 316.32684 73.431198 
L 316.662338 72.495248 
L 316.997835 70.997727 
L 317.333333 74.367149 
L 317.668831 72.869628 
L 318.004329 72.214463 
L 318.339827 69.593802 
L 318.675325 69.125826 
L 319.010823 72.869628 
L 319.34632 72.214463 
L 319.681818 70.155372 
L 320.017316 72.963223 
L 320.352814 69.125826 
L 320.688312 72.869628 
L 321.02381 73.711983 
L 321.359307 69.968182 
L 321.694805 73.524793 
L 322.365801 71.933678 
L 323.036797 75.583884 
L 323.372294 68.751446 
L 323.707792 73.431198 
L 324.04329 71.652893 
L 324.378788 70.716942 
L 324.714286 73.337603 
L 325.385281 70.436157 
L 325.720779 71.184917 
L 326.056277 72.869628 
L 326.391775 70.155372 
L 326.727273 72.027273 
L 327.062771 68.564256 
L 327.398268 73.524793 
L 327.733766 71.091322 
L 328.069264 66.97314 
L 328.404762 73.056818 
L 328.74026 73.899174 
L 329.075758 73.150413 
L 329.411255 70.436157 
L 329.746753 69.313017 
L 330.082251 72.401653 
L 330.417749 68.564256 
L 330.753247 71.091322 
L 331.088745 70.716942 
L 331.424242 71.278512 
L 331.75974 73.524793 
L 332.095238 69.780992 
L 332.430736 71.184917 
L 332.766234 70.248967 
L 333.101732 68.564256 
L 333.437229 73.244008 
L 333.772727 71.559298 
L 334.108225 71.840083 
L 334.443723 69.593802 
L 334.779221 69.032231 
L 335.114719 71.652893 
L 335.450216 71.278512 
L 336.121212 68.657851 
L 336.45671 72.869628 
L 336.792208 71.372107 
L 337.127706 71.278512 
L 337.463203 72.495248 
L 337.798701 68.096281 
L 338.134199 71.184917 
L 338.469697 70.716942 
L 338.805195 71.184917 
L 339.140693 69.500207 
L 339.47619 69.125826 
L 340.482684 72.214463 
L 340.818182 68.845041 
L 341.15368 68.096281 
L 341.489177 66.692355 
L 341.824675 72.027273 
L 342.160173 70.810537 
L 342.495671 72.120868 
L 342.831169 69.687397 
L 343.166667 68.283471 
L 343.502165 70.248967 
L 343.837662 70.248967 
L 344.17316 69.219421 
L 344.508658 71.652893 
L 344.844156 70.529752 
L 345.179654 68.657851 
L 345.850649 67.815496 
L 346.186147 70.716942 
L 346.521645 68.377066 
L 346.857143 68.564256 
L 347.192641 70.810537 
L 347.528139 69.313017 
L 348.199134 72.588843 
L 348.534632 70.061777 
L 349.205628 69.032231 
L 349.541126 70.623347 
L 349.876623 69.219421 
L 350.212121 70.248967 
L 350.547619 69.500207 
L 351.218615 67.347521 
L 351.554113 68.564256 
L 351.88961 71.933678 
L 352.225108 66.879545 
L 352.560606 68.189876 
L 352.896104 71.840083 
L 353.231602 70.623347 
L 353.5671 68.470661 
L 353.902597 70.436157 
L 354.238095 68.938636 
L 354.573593 70.436157 
L 354.909091 69.125826 
L 355.244589 72.682438 
L 355.580087 69.219421 
L 355.915584 73.711983 
L 356.251082 70.997727 
L 356.58658 70.904132 
L 356.922078 68.283471 
L 357.257576 70.061777 
L 357.928571 65.943595 
L 358.264069 67.628306 
L 358.599567 68.002686 
L 358.935065 66.78595 
L 359.270563 70.248967 
L 359.606061 67.909091 
L 359.941558 68.751446 
L 360.277056 68.845041 
L 360.948052 67.066736 
L 361.28355 69.687397 
L 361.619048 68.845041 
L 361.954545 69.500207 
L 362.290043 68.751446 
L 362.625541 70.716942 
L 362.961039 74.554339 
L 363.296537 69.032231 
L 363.632035 67.066736 
L 363.967532 71.372107 
L 364.30303 66.879545 
L 364.638528 69.780992 
L 364.974026 68.189876 
L 365.309524 71.652893 
L 365.645022 68.189876 
L 365.980519 69.032231 
L 366.316017 67.909091 
L 366.651515 71.465702 
L 366.987013 69.313017 
L 367.322511 70.061777 
L 367.658009 67.815496 
L 367.993506 68.002686 
L 368.329004 69.313017 
L 368.664502 68.938636 
L 369 66.130785 
L 369.335498 70.716942 
L 369.670996 68.189876 
L 370.006494 67.815496 
L 370.341991 65.10124 
L 370.677489 67.066736 
L 371.348485 72.495248 
L 371.683983 67.628306 
L 372.354978 67.909091 
L 372.690476 68.189876 
L 373.025974 68.002686 
L 373.361472 70.904132 
L 373.69697 69.874587 
L 374.032468 66.505165 
L 374.367965 68.377066 
L 374.703463 67.815496 
L 375.374459 65.194835 
L 375.709957 67.253926 
L 376.045455 66.505165 
L 376.380952 68.096281 
L 376.71645 68.938636 
L 377.051948 67.441116 
L 377.722944 68.096281 
L 378.058442 69.313017 
L 378.393939 66.78595 
L 378.729437 66.505165 
L 379.064935 68.845041 
L 379.400433 70.061777 
L 379.735931 68.002686 
L 380.071429 65.007645 
L 380.406926 69.500207 
L 380.742424 67.160331 
L 381.077922 67.534711 
L 381.41342 63.229339 
L 381.748918 68.283471 
L 382.084416 66.692355 
L 382.419913 69.406612 
L 382.755411 67.628306 
L 383.090909 69.313017 
L 383.426407 67.160331 
L 383.761905 70.155372 
L 384.097403 69.313017 
L 384.4329 68.096281 
L 384.768398 67.721901 
L 385.103896 68.938636 
L 385.439394 69.593802 
L 385.774892 71.559298 
L 386.781385 66.59876 
L 387.116883 65.85 
L 387.452381 67.534711 
L 387.787879 65.47562 
L 388.123377 66.59876 
L 388.458874 65.007645 
L 388.794372 64.539669 
L 389.12987 68.002686 
L 389.465368 68.470661 
L 389.800866 67.534711 
L 390.136364 69.500207 
L 390.471861 67.160331 
L 390.807359 66.505165 
L 391.142857 66.879545 
L 391.478355 68.845041 
L 392.149351 68.377066 
L 392.484848 66.78595 
L 392.820346 66.78595 
L 393.155844 66.22438 
L 393.82684 69.125826 
L 394.162338 66.879545 
L 394.497835 68.845041 
L 394.833333 66.130785 
L 395.168831 66.78595 
L 395.504329 71.652893 
L 395.839827 66.879545 
L 396.175325 65.85 
L 396.510823 68.470661 
L 396.84632 67.534711 
L 397.181818 64.352479 
L 397.517316 69.032231 
L 397.852814 67.441116 
L 398.188312 68.189876 
L 398.52381 66.59876 
L 398.859307 66.692355 
L 399.194805 64.91405 
L 399.865801 69.968182 
L 400.201299 67.721901 
L 400.536797 67.066736 
L 400.872294 64.352479 
L 401.207792 63.229339 
L 401.54329 65.382025 
L 401.878788 65.756405 
L 402.214286 67.628306 
L 402.549784 62.761364 
L 402.885281 64.633264 
L 403.220779 68.377066 
L 403.556277 70.342562 
L 403.891775 65.85 
L 404.227273 68.845041 
L 404.562771 68.564256 
L 404.898268 69.780992 
L 405.233766 66.97314 
L 405.569264 69.125826 
L 406.24026 63.978099 
L 406.575758 63.510124 
L 407.246753 69.780992 
L 407.917749 63.790909 
L 408.253247 66.317975 
L 408.588745 65.382025 
L 408.924242 67.441116 
L 409.25974 68.377066 
L 409.595238 68.470661 
L 409.930736 69.313017 
L 410.266234 69.032231 
L 410.601732 65.194835 
L 410.937229 67.534711 
L 411.272727 67.066736 
L 411.608225 67.815496 
L 411.943723 67.066736 
L 412.279221 65.47562 
L 412.614719 66.97314 
L 412.950216 66.317975 
L 413.285714 64.446074 
L 413.621212 65.007645 
L 413.95671 68.189876 
L 414.292208 67.815496 
L 414.627706 68.657851 
L 414.963203 68.002686 
L 415.298701 68.564256 
L 415.634199 65.66281 
L 416.305195 68.845041 
L 416.640693 66.41157 
L 416.97619 68.002686 
L 417.311688 72.495248 
L 417.647186 65.382025 
L 417.982684 64.352479 
L 418.318182 64.258884 
L 418.65368 63.229339 
L 418.989177 66.59876 
L 419.324675 63.790909 
L 419.660173 63.510124 
L 419.995671 64.91405 
L 420.331169 64.820455 
L 420.666667 66.130785 
L 421.002165 64.91405 
L 421.337662 67.347521 
L 421.67316 64.258884 
L 422.008658 66.505165 
L 422.344156 66.879545 
L 422.679654 67.441116 
L 423.015152 69.406612 
L 423.350649 65.382025 
L 423.686147 67.160331 
L 424.021645 63.697314 
L 424.357143 65.569215 
L 424.692641 64.820455 
L 425.028139 65.007645 
L 425.363636 68.564256 
L 425.699134 65.66281 
L 426.034632 67.628306 
L 426.37013 65.007645 
L 426.705628 66.41157 
L 427.041126 62.761364 
L 427.376623 65.10124 
L 427.712121 64.633264 
L 428.047619 66.78595 
L 428.383117 67.160331 
L 428.718615 68.189876 
L 429.38961 62.293388 
L 429.725108 65.28843 
L 430.060606 63.416529 
L 430.396104 66.130785 
L 430.731602 65.382025 
L 431.0671 64.91405 
L 431.402597 64.72686 
L 431.738095 63.042149 
L 432.073593 64.633264 
L 432.409091 65.194835 
L 433.080087 67.909091 
L 433.415584 66.22438 
L 433.751082 63.042149 
L 434.422078 62.386983 
L 434.757576 65.382025 
L 435.093074 62.386983 
L 435.428571 64.820455 
L 435.764069 64.165289 
L 436.435065 66.505165 
L 436.770563 65.47562 
L 437.106061 68.096281 
L 437.441558 65.007645 
L 438.112554 67.815496 
L 438.448052 63.229339 
L 438.78355 63.322934 
L 439.119048 65.943595 
L 439.454545 62.574174 
L 439.790043 66.130785 
L 440.125541 67.347521 
L 440.461039 62.480579 
L 440.796537 63.884504 
L 441.132035 66.03719 
L 441.467532 64.72686 
L 441.80303 63.884504 
L 442.138528 67.815496 
L 442.474026 64.539669 
L 442.809524 62.386983 
L 443.480519 64.539669 
L 443.816017 64.165289 
L 444.151515 61.919008 
L 444.487013 66.97314 
L 444.822511 64.539669 
L 445.158009 64.258884 
L 445.493506 64.820455 
L 445.829004 62.199793 
L 446.164502 65.569215 
L 446.5 65.007645 
L 446.835498 65.943595 
L 447.170996 65.47562 
L 447.506494 65.756405 
L 447.841991 66.505165 
L 448.177489 61.825413 
L 448.512987 64.071694 
L 448.848485 62.199793 
L 449.183983 62.386983 
L 449.519481 63.510124 
L 449.854978 63.416529 
L 450.190476 65.47562 
L 450.525974 64.446074 
L 450.861472 65.85 
L 451.19697 65.66281 
L 451.532468 66.130785 
L 451.867965 62.386983 
L 452.203463 64.258884 
L 452.538961 62.012603 
L 452.874459 64.91405 
L 453.209957 65.007645 
L 453.545455 66.03719 
L 453.880952 65.569215 
L 454.21645 64.446074 
L 454.551948 66.505165 
L 454.887446 64.820455 
L 455.558442 62.854959 
L 455.893939 66.03719 
L 456.229437 63.978099 
L 456.564935 63.790909 
L 456.900433 62.386983 
L 457.235931 62.948554 
L 457.571429 60.047107 
L 457.906926 64.352479 
L 458.242424 62.948554 
L 458.577922 63.510124 
L 458.91342 65.47562 
L 459.248918 65.10124 
L 459.584416 63.510124 
L 459.919913 64.258884 
L 460.255411 62.199793 
L 460.590909 63.790909 
L 460.926407 62.293388 
L 461.261905 64.539669 
L 461.597403 63.603719 
L 462.268398 67.909091 
L 462.603896 64.446074 
L 462.939394 62.480579 
L 463.61039 67.441116 
L 464.281385 64.258884 
L 464.616883 64.539669 
L 464.952381 63.790909 
L 465.287879 62.761364 
L 465.623377 62.480579 
L 465.958874 65.943595 
L 466.294372 63.322934 
L 466.62987 63.603719 
L 466.965368 60.795868 
L 467.300866 66.317975 
L 467.636364 63.790909 
L 468.307359 64.633264 
L 468.642857 64.72686 
L 468.978355 64.539669 
L 469.649351 62.386983 
L 469.984848 65.10124 
L 470.320346 65.28843 
L 470.991342 63.510124 
L 471.32684 64.352479 
L 471.662338 61.451033 
L 471.997835 65.66281 
L 472.333333 64.352479 
L 472.668831 63.884504 
L 473.339827 66.130785 
L 473.675325 63.135744 
L 474.010823 64.071694 
L 474.34632 63.603719 
L 475.017316 61.451033 
L 475.352814 63.135744 
L 475.688312 63.697314 
L 476.02381 62.854959 
L 476.694805 62.854959 
L 477.030303 60.983058 
L 477.365801 64.820455 
L 477.701299 63.322934 
L 478.372294 63.042149 
L 478.707792 64.071694 
L 479.04329 61.263843 
L 479.378788 62.293388 
L 479.714286 62.761364 
L 480.049784 65.194835 
L 480.385281 62.761364 
L 480.720779 63.416529 
L 481.056277 63.042149 
L 481.391775 63.322934 
L 481.727273 64.446074 
L 482.062771 62.012603 
L 482.398268 65.194835 
L 482.733766 66.130785 
L 483.069264 65.194835 
L 483.404762 60.702273 
L 483.74026 63.322934 
L 484.075758 61.825413 
L 484.411255 62.480579 
L 484.746753 61.919008 
L 485.082251 60.702273 
L 485.417749 62.761364 
L 485.753247 61.451033 
L 486.088745 62.667769 
L 486.424242 62.574174 
L 486.75974 62.667769 
L 487.095238 64.539669 
L 487.430736 61.544628 
L 487.766234 60.327893 
L 488.101732 64.071694 
L 488.437229 60.889463 
L 488.772727 63.510124 
L 489.108225 63.790909 
L 489.443723 64.258884 
L 489.779221 66.505165 
L 490.114719 63.978099 
L 490.450216 64.72686 
L 490.785714 61.638223 
L 491.121212 64.72686 
L 491.45671 60.047107 
L 491.792208 64.91405 
L 492.127706 59.391942 
L 492.463203 63.042149 
L 493.134199 62.012603 
L 493.805195 63.322934 
L 494.47619 61.357438 
L 494.811688 62.199793 
L 495.147186 61.076653 
L 495.482684 62.386983 
L 495.818182 62.854959 
L 496.15368 62.667769 
L 496.489177 63.884504 
L 496.824675 62.948554 
L 497.160173 62.667769 
L 497.495671 63.229339 
L 498.166667 60.140702 
L 498.502165 61.170248 
L 498.837662 64.165289 
L 499.17316 66.130785 
L 499.508658 61.919008 
L 499.844156 61.825413 
L 500.179654 61.170248 
L 500.515152 61.451033 
L 500.850649 61.451033 
L 501.186147 63.510124 
L 501.521645 63.510124 
L 501.857143 62.574174 
L 502.192641 59.579132 
L 502.528139 61.170248 
L 502.863636 59.391942 
L 503.199134 63.042149 
L 503.534632 62.293388 
L 503.87013 63.229339 
L 504.205628 63.790909 
L 504.541126 59.766322 
L 504.876623 61.544628 
L 505.212121 64.071694 
L 505.547619 64.446074 
L 505.883117 60.889463 
L 506.218615 62.386983 
L 506.554113 59.672727 
L 506.88961 62.386983 
L 507.225108 62.293388 
L 507.560606 63.978099 
L 507.896104 60.983058 
L 508.231602 63.416529 
L 508.5671 63.790909 
L 508.902597 65.194835 
L 509.238095 60.795868 
L 509.573593 60.702273 
L 509.909091 63.697314 
L 510.244589 62.386983 
L 510.580087 63.978099 
L 511.251082 59.579132 
L 512.257576 60.889463 
L 512.593074 63.884504 
L 512.928571 62.012603 
L 513.264069 63.416529 
L 513.599567 63.790909 
L 513.935065 65.28843 
L 514.270563 62.106198 
L 514.606061 65.85 
L 514.941558 63.697314 
L 515.277056 63.884504 
L 515.612554 60.047107 
L 515.948052 60.234298 
L 516.28355 60.889463 
L 516.619048 62.106198 
L 516.954545 65.756405 
L 517.290043 62.948554 
L 517.625541 59.017562 
L 517.961039 63.135744 
L 518.296537 59.859917 
L 518.967532 63.135744 
L 519.30303 62.948554 
L 519.638528 63.229339 
L 520.309524 60.702273 
L 520.645022 62.761364 
L 520.980519 63.322934 
L 521.651515 58.455992 
L 521.987013 59.859917 
L 522.322511 60.515083 
L 522.658009 62.106198 
L 522.993506 65.194835 
L 523.329004 60.608678 
L 523.664502 60.608678 
L 524.335498 63.603719 
L 524.670996 64.539669 
L 525.006494 62.667769 
L 526.012987 61.451033 
L 526.348485 62.106198 
L 526.683983 63.697314 
L 527.019481 61.263843 
L 527.354978 62.293388 
L 527.690476 58.268802 
L 528.025974 60.608678 
L 528.361472 64.258884 
L 528.69697 60.327893 
L 529.032468 60.983058 
L 529.367965 60.421488 
L 529.703463 61.825413 
L 530.038961 64.91405 
L 530.374459 60.327893 
L 530.709957 62.948554 
L 531.045455 60.327893 
L 531.380952 60.983058 
L 531.71645 61.076653 
L 532.051948 59.485537 
L 532.387446 61.076653 
L 532.722944 61.919008 
L 533.058442 59.859917 
L 533.393939 60.608678 
L 533.729437 59.391942 
L 534.064935 63.510124 
L 534.400433 63.884504 
L 534.735931 62.106198 
L 535.071429 59.391942 
L 535.406926 65.194835 
L 535.742424 59.579132 
L 536.077922 62.293388 
L 536.748918 59.485537 
L 537.084416 61.919008 
L 537.419913 62.012603 
L 537.755411 60.889463 
L 538.090909 61.076653 
L 538.426407 60.327893 
L 538.761905 60.702273 
L 539.097403 62.480579 
L 539.4329 62.948554 
L 539.768398 64.72686 
L 540.103896 59.953512 
L 540.439394 59.204752 
L 540.774892 59.485537 
L 541.11039 63.042149 
L 542.116883 60.327893 
L 542.452381 60.047107 
L 542.787879 62.667769 
L 543.458874 64.258884 
L 543.794372 59.298347 
L 544.12987 63.322934 
L 544.465368 61.544628 
L 544.800866 62.012603 
L 545.136364 60.608678 
L 545.807359 60.421488 
L 546.142857 60.795868 
L 546.478355 59.391942 
L 546.813853 62.106198 
L 547.149351 63.135744 
L 547.484848 60.702273 
L 547.820346 61.919008 
L 548.155844 59.111157 
L 548.491342 63.790909 
L 548.82684 60.983058 
L 549.162338 60.889463 
L 549.497835 59.391942 
L 549.833333 59.391942 
L 550.168831 60.515083 
L 550.504329 58.643182 
L 550.839827 61.731818 
L 551.175325 63.322934 
L 551.510823 61.825413 
L 551.84632 58.736777 
L 552.181818 60.327893 
L 552.517316 59.766322 
L 552.852814 62.106198 
L 553.188312 62.854959 
L 553.52381 61.170248 
L 553.859307 63.884504 
L 554.194805 60.983058 
L 554.530303 59.298347 
L 554.865801 60.515083 
L 555.201299 60.234298 
L 555.536797 59.391942 
L 555.872294 64.72686 
L 556.207792 61.731818 
L 556.54329 61.544628 
L 556.878788 59.672727 
L 557.549784 61.919008 
L 557.885281 63.603719 
L 558.220779 58.175207 
L 559.227273 62.199793 
L 559.562771 61.263843 
L 559.898268 58.081612 
L 560.233766 63.322934 
L 560.569264 62.948554 
L 560.904762 59.766322 
L 561.24026 62.854959 
L 561.575758 63.322934 
L 561.911255 60.140702 
L 562.246753 58.549587 
L 562.582251 61.919008 
L 562.917749 58.923967 
L 563.253247 58.362397 
L 563.588745 60.795868 
L 563.924242 56.584091 
L 564.25974 59.859917 
L 564.595238 60.140702 
L 564.930736 59.204752 
L 565.266234 60.234298 
L 565.601732 59.859917 
L 565.937229 60.515083 
L 566.272727 60.608678 
L 566.608225 60.515083 
L 566.943723 63.884504 
L 567.279221 60.889463 
L 567.614719 60.983058 
L 567.950216 62.199793 
L 568.285714 58.175207 
L 568.621212 61.544628 
L 568.95671 62.199793 
L 569.292208 63.135744 
L 569.627706 60.234298 
L 569.963203 62.667769 
L 570.298701 59.485537 
L 570.634199 61.638223 
L 570.969697 59.953512 
L 571.305195 60.608678 
L 571.640693 59.017562 
L 571.97619 60.421488 
L 572.311688 58.736777 
L 572.647186 63.135744 
L 572.982684 61.825413 
L 573.318182 61.825413 
L 573.65368 60.327893 
L 573.989177 60.047107 
L 574.324675 60.983058 
L 574.660173 63.042149 
L 574.995671 60.047107 
L 575.331169 59.953512 
L 575.666667 59.485537 
L 576.002165 60.983058 
L 576.337662 61.076653 
L 577.008658 57.332851 
L 577.344156 59.391942 
L 577.679654 60.702273 
L 578.015152 60.702273 
L 578.350649 59.111157 
L 578.686147 60.515083 
L 579.021645 61.263843 
L 579.357143 58.830372 
L 579.692641 59.204752 
L 580.028139 63.603719 
L 580.699134 59.579132 
L 581.034632 57.613636 
L 581.37013 60.795868 
L 581.705628 61.451033 
L 582.041126 60.140702 
L 582.376623 62.948554 
L 582.712121 61.731818 
L 583.047619 61.638223 
L 583.383117 57.052066 
L 583.718615 56.490496 
L 584.054113 59.953512 
L 584.38961 59.859917 
L 584.725108 60.421488 
L 585.060606 60.327893 
L 585.396104 63.416529 
L 585.731602 59.111157 
L 586.0671 60.702273 
L 586.402597 57.707231 
L 586.738095 60.327893 
L 587.073593 61.544628 
L 587.409091 60.047107 
L 587.744589 62.948554 
L 588.415584 60.047107 
L 588.751082 60.608678 
L 589.08658 62.012603 
L 589.422078 62.012603 
L 589.757576 59.391942 
L 590.093074 59.391942 
L 590.428571 60.234298 
L 590.764069 57.332851 
L 591.099567 60.889463 
L 591.435065 63.042149 
L 591.770563 61.076653 
L 592.441558 59.672727 
L 592.777056 62.106198 
L 593.112554 62.106198 
L 593.448052 61.731818 
L 593.78355 59.298347 
L 594.119048 63.884504 
L 594.454545 58.736777 
L 594.790043 59.111157 
L 595.125541 58.736777 
L 595.461039 58.081612 
L 595.796537 60.327893 
L 596.132035 57.800826 
L 596.467532 60.234298 
L 596.80303 58.549587 
L 597.138528 60.047107 
L 597.474026 62.667769 
L 597.809524 58.362397 
L 598.145022 60.889463 
L 598.480519 58.736777 
L 598.816017 58.175207 
L 599.151515 61.544628 
L 599.487013 60.327893 
L 599.822511 60.421488 
L 600.158009 58.923967 
L 600.493506 59.953512 
L 600.829004 58.643182 
L 601.164502 60.702273 
L 601.5 60.795868 
L 601.835498 62.667769 
L 602.170996 60.047107 
L 602.506494 58.923967 
L 602.841991 62.574174 
L 603.177489 58.830372 
L 603.512987 58.549587 
L 603.848485 57.894421 
L 604.183983 58.549587 
L 604.519481 59.766322 
L 604.854978 60.234298 
L 605.190476 57.052066 
L 605.525974 60.421488 
L 605.861472 62.012603 
L 606.19697 58.830372 
L 606.532468 59.672727 
L 606.867965 59.111157 
L 607.203463 60.983058 
L 607.538961 61.170248 
L 607.874459 59.391942 
L 608.209957 58.643182 
L 608.545455 59.672727 
L 608.880952 58.175207 
L 609.21645 59.579132 
L 609.887446 59.391942 
L 610.222944 57.426446 
L 610.558442 57.894421 
L 610.893939 55.64814 
L 611.229437 59.859917 
L 611.564935 61.451033 
L 611.900433 59.766322 
L 612.235931 60.234298 
L 612.571429 57.613636 
L 612.906926 61.825413 
L 613.242424 61.638223 
L 613.577922 58.736777 
L 613.91342 60.515083 
L 614.248918 59.391942 
L 614.919913 58.643182 
L 615.255411 58.268802 
L 615.590909 59.298347 
L 615.926407 59.485537 
L 616.261905 57.800826 
L 616.597403 59.766322 
L 616.9329 56.209711 
L 617.268398 56.864876 
L 617.603896 58.923967 
L 617.939394 60.140702 
L 618.274892 58.643182 
L 618.61039 55.554545 
L 618.945887 60.702273 
L 619.281385 57.145661 
L 619.616883 58.736777 
L 619.952381 59.485537 
L 620.287879 59.111157 
L 620.623377 55.741736 
L 620.958874 60.983058 
L 621.294372 57.988017 
L 621.62987 57.988017 
L 621.965368 60.327893 
L 622.300866 58.362397 
L 622.636364 60.608678 
L 622.636364 60.608678 
" style="fill:none;stroke:#1f77b4;stroke-linecap:square;stroke-width:0.5;"/>
   </g>
   <g id="line2d_32">
    <path clip-path="url(#p9f31e387eb)" d="M 115.363636 296.842562 
L 115.699134 296.655372 
L 116.034632 293.847521 
L 116.37013 293.847521 
L 116.705628 297.497727 
L 117.041126 294.689876 
L 117.376623 298.433678 
L 117.712121 295.157851 
L 118.047619 297.497727 
L 118.383117 301.615909 
L 118.718615 294.783471 
L 119.054113 296.561777 
L 119.38961 293.09876 
L 119.725108 299.276033 
L 120.060606 297.123347 
L 120.396104 295.813017 
L 120.731602 299.182438 
L 121.0671 296.000207 
L 121.402597 294.596281 
L 121.738095 297.778512 
L 122.073593 298.340083 
L 122.409091 300.773554 
L 122.744589 295.625826 
L 123.080087 292.35 
L 123.415584 292.16281 
L 123.751082 292.817975 
L 124.08658 292.256405 
L 124.422078 289.916529 
L 124.757576 290.571694 
L 125.093074 293.660331 
L 125.428571 293.847521 
L 125.764069 294.877066 
L 126.099567 292.443595 
L 126.435065 289.167769 
L 126.770563 290.103719 
L 127.106061 287.857438 
L 127.441558 288.419008 
L 127.777056 283.926446 
L 128.112554 286.266322 
L 128.78355 275.877273 
L 129.119048 274.379752 
L 129.454545 277.000413 
L 129.790043 267.547314 
L 130.125541 270.916736 
L 130.461039 262.773967 
L 131.132035 256.035124 
L 131.80303 240.591942 
L 132.138528 239.375207 
L 132.474026 234.695455 
L 132.809524 236.47376 
L 133.145022 225.616736 
L 133.480519 224.680785 
L 133.816017 218.316322 
L 134.151515 216.912397 
L 134.822511 210.641529 
L 135.158009 203.996281 
L 135.829004 198.006198 
L 136.164502 187.429959 
L 136.5 189.48905 
L 136.835498 185.558058 
L 137.506494 181.814256 
L 137.841991 173.577893 
L 138.177489 175.824174 
L 138.512987 166.932645 
L 138.848485 168.33657 
L 139.519481 159.538636 
L 139.854978 158.696281 
L 140.190476 155.420455 
L 140.525974 155.32686 
L 140.861472 145.68657 
L 141.19697 146.341736 
L 141.532468 145.125 
L 141.867965 146.154545 
L 142.203463 144.844215 
L 142.538961 140.913223 
L 142.874459 141.474793 
L 143.209957 140.632438 
L 144.21645 132.583264 
L 144.551948 133.706405 
L 144.887446 133.8 
L 145.222944 135.110331 
L 145.558442 129.869008 
L 145.893939 127.529132 
L 146.229437 131.834504 
L 146.564935 125.657231 
L 147.235931 130.711364 
L 147.571429 124.908471 
L 147.906926 122.381405 
L 148.242424 125.376446 
L 148.577922 121.53905 
L 148.91342 121.35186 
L 149.248918 121.819835 
L 149.584416 124.721281 
L 149.919913 119.011983 
L 150.255411 116.859298 
L 150.590909 122.66219 
L 151.261905 117.140083 
L 151.597403 119.573554 
L 151.9329 118.076033 
L 152.268398 114.051446 
L 152.603896 115.361777 
L 152.939394 115.268182 
L 153.61039 114.051446 
L 153.945887 113.302686 
L 154.281385 107.686983 
L 154.616883 113.302686 
L 154.952381 114.893802 
L 155.623377 107.780579 
L 155.958874 108.529339 
L 156.294372 107.219008 
L 156.62987 107.967769 
L 156.965368 107.686983 
L 157.300866 107.125413 
L 157.636364 105.347107 
L 157.971861 108.154959 
L 158.307359 106.751033 
L 158.642857 100.667355 
L 158.978355 105.159917 
L 159.313853 100.667355 
L 159.649351 104.504752 
L 159.984848 100.292975 
L 160.320346 103.288017 
L 160.655844 104.691942 
L 160.991342 101.696901 
L 161.32684 101.416116 
L 161.662338 98.982645 
L 162.333333 96.549174 
L 162.668831 98.608264 
L 163.004329 101.416116 
L 163.339827 101.790496 
L 163.675325 96.361983 
L 164.010823 92.992562 
L 164.34632 98.982645 
L 164.681818 99.731405 
L 165.017316 98.795455 
L 165.688312 94.677273 
L 166.02381 98.795455 
L 166.359307 99.357025 
L 166.694805 91.775826 
L 167.030303 96.923554 
L 167.365801 94.677273 
L 167.701299 93.741322 
L 168.036797 90.933471 
L 168.372294 91.401446 
L 168.707792 95.987603 
L 169.04329 90.652686 
L 169.714286 94.115702 
L 170.385281 93.086157 
L 171.056277 91.214256 
L 171.391775 87.096074 
L 171.727273 89.342355 
L 172.062771 89.62314 
L 172.398268 91.495041 
L 172.733766 89.155165 
L 173.069264 89.155165 
L 173.404762 87.93843 
L 173.74026 89.716736 
L 174.075758 86.534504 
L 174.411255 86.440909 
L 174.746753 86.815289 
L 175.082251 84.756198 
L 175.417749 87.93843 
L 175.753247 87.470455 
L 176.088745 88.12562 
L 176.424242 86.908884 
L 176.75974 88.780785 
L 177.095238 88.032025 
L 177.430736 87.93843 
L 177.766234 88.12562 
L 178.101732 84.756198 
L 178.437229 83.726653 
L 178.772727 87.93843 
L 179.108225 84.756198 
L 179.443723 84.007438 
L 179.779221 86.628099 
L 180.114719 86.440909 
L 180.450216 86.440909 
L 180.785714 90.839876 
L 181.121212 84.288223 
L 181.45671 85.785744 
L 181.792208 85.598554 
L 182.127706 84.194628 
L 182.463203 85.036983 
L 182.798701 81.012397 
L 183.134199 82.790702 
L 183.469697 83.820248 
L 183.805195 82.229132 
L 184.140693 84.194628 
L 184.47619 83.071488 
L 184.811688 82.697107 
L 185.147186 85.317769 
L 185.482684 85.504959 
L 186.15368 82.416322 
L 186.489177 79.234091 
L 186.824675 82.790702 
L 187.160173 81.854752 
L 187.495671 79.889256 
L 187.831169 81.761157 
L 188.166667 80.263636 
L 188.502165 79.421281 
L 188.837662 80.170041 
L 189.17316 81.199587 
L 189.508658 79.982851 
L 189.844156 81.480372 
L 190.179654 79.421281 
L 190.515152 80.170041 
L 190.850649 79.046901 
L 191.186147 83.352273 
L 191.521645 79.234091 
L 191.857143 81.105992 
L 192.192641 77.54938 
L 192.528139 77.830165 
L 192.863636 78.859711 
L 193.199134 81.480372 
L 193.534632 80.450826 
L 193.87013 82.322727 
L 194.205628 81.012397 
L 194.876623 76.42624 
L 195.212121 78.017355 
L 195.547619 80.638017 
L 195.883117 77.92376 
L 196.218615 79.795661 
L 196.554113 80.357231 
L 196.88961 78.204545 
L 197.225108 78.953306 
L 197.560606 79.982851 
L 197.896104 76.80062 
L 198.231602 77.642975 
L 198.5671 73.899174 
L 198.902597 76.05186 
L 199.238095 76.707025 
L 199.573593 75.115909 
L 199.909091 78.391736 
L 200.244589 78.29814 
L 200.580087 81.293182 
L 200.915584 77.268595 
L 201.58658 80.076446 
L 201.922078 80.450826 
L 202.257576 77.830165 
L 202.593074 73.244008 
L 202.928571 78.11095 
L 203.264069 75.583884 
L 203.599567 76.98781 
L 203.935065 77.175 
L 204.270563 75.677479 
L 204.606061 76.707025 
L 204.941558 78.391736 
L 205.277056 77.830165 
L 205.612554 78.29814 
L 205.948052 74.741529 
L 206.28355 73.618388 
L 206.619048 75.490289 
L 206.954545 76.145455 
L 207.290043 73.150413 
L 207.625541 75.958264 
L 207.961039 75.396694 
L 208.296537 77.73657 
L 208.632035 76.145455 
L 208.967532 76.80062 
L 209.30303 77.830165 
L 209.974026 73.150413 
L 210.309524 77.081405 
L 210.980519 71.840083 
L 211.316017 76.519835 
L 211.651515 71.559298 
L 211.987013 72.401653 
L 212.322511 71.184917 
L 212.658009 73.618388 
L 212.993506 74.835124 
L 213.329004 73.992769 
L 213.664502 74.928719 
L 214 74.460744 
L 214.335498 75.303099 
L 214.670996 75.303099 
L 215.006494 73.711983 
L 215.341991 75.583884 
L 215.677489 75.583884 
L 216.012987 73.056818 
L 216.348485 72.401653 
L 216.683983 74.835124 
L 217.019481 74.928719 
L 217.690476 74.647934 
L 218.025974 72.588843 
L 218.361472 75.022314 
L 218.69697 72.308058 
L 219.032468 70.904132 
L 219.367965 73.992769 
L 219.703463 73.711983 
L 220.038961 76.332645 
L 220.374459 70.529752 
L 220.709957 73.992769 
L 221.045455 73.244008 
L 221.380952 74.554339 
L 221.71645 74.179959 
L 222.051948 73.244008 
L 222.387446 73.992769 
L 222.722944 74.273554 
L 223.393939 72.776033 
L 223.729437 75.677479 
L 224.064935 73.899174 
L 224.400433 75.958264 
L 224.735931 75.396694 
L 225.071429 76.145455 
L 225.406926 74.647934 
L 225.742424 75.864669 
L 226.077922 70.342562 
L 226.41342 72.027273 
L 226.748918 72.308058 
L 227.084416 73.899174 
L 227.419913 76.42624 
L 227.755411 71.278512 
L 228.090909 71.933678 
L 228.426407 73.524793 
L 228.761905 72.869628 
L 229.097403 71.465702 
L 229.4329 75.115909 
L 229.768398 75.115909 
L 230.103896 70.904132 
L 230.439394 70.623347 
L 230.774892 74.367149 
L 231.11039 74.179959 
L 231.445887 73.150413 
L 231.781385 74.179959 
L 232.116883 72.869628 
L 232.452381 70.155372 
L 232.787879 74.928719 
L 233.123377 71.184917 
L 233.458874 70.623347 
L 233.794372 73.899174 
L 234.465368 71.840083 
L 234.800866 76.332645 
L 235.136364 74.835124 
L 235.471861 75.771074 
L 235.807359 73.711983 
L 236.142857 75.583884 
L 236.478355 71.278512 
L 236.813853 73.431198 
L 237.149351 72.963223 
L 237.484848 70.155372 
L 237.820346 71.840083 
L 238.155844 70.342562 
L 238.491342 72.120868 
L 238.82684 75.115909 
L 239.162338 73.150413 
L 239.497835 72.027273 
L 239.833333 73.337603 
L 240.168831 70.529752 
L 240.504329 73.150413 
L 240.839827 73.618388 
L 241.175325 70.342562 
L 241.510823 69.780992 
L 241.84632 70.716942 
L 242.181818 70.248967 
L 242.517316 72.588843 
L 242.852814 73.431198 
L 243.52381 71.278512 
L 243.859307 72.027273 
L 244.194805 70.623347 
L 244.530303 71.184917 
L 244.865801 70.716942 
L 245.201299 71.746488 
L 245.536797 70.810537 
L 246.207792 73.992769 
L 246.54329 72.869628 
L 246.878788 70.342562 
L 247.214286 70.155372 
L 247.549784 68.751446 
L 247.885281 70.997727 
L 248.220779 69.780992 
L 248.556277 69.313017 
L 248.891775 71.559298 
L 249.227273 68.751446 
L 249.562771 73.056818 
L 249.898268 71.559298 
L 250.233766 68.564256 
L 250.904762 71.933678 
L 251.24026 72.963223 
L 251.575758 71.746488 
L 251.911255 73.618388 
L 252.246753 69.874587 
L 252.582251 68.845041 
L 252.917749 71.933678 
L 253.253247 73.805579 
L 253.588745 70.155372 
L 253.924242 69.406612 
L 254.25974 69.500207 
L 254.595238 68.845041 
L 254.930736 70.342562 
L 255.266234 72.869628 
L 255.601732 69.406612 
L 255.937229 68.189876 
L 256.272727 68.938636 
L 256.608225 72.682438 
L 256.943723 69.687397 
L 257.279221 70.904132 
L 257.614719 72.963223 
L 257.950216 70.810537 
L 258.285714 70.529752 
L 258.621212 70.904132 
L 258.95671 69.125826 
L 259.292208 68.657851 
L 259.627706 67.628306 
L 259.963203 66.22438 
L 260.298701 66.59876 
L 260.634199 66.78595 
L 260.969697 69.032231 
L 261.305195 69.593802 
L 261.640693 66.97314 
L 261.97619 70.155372 
L 262.311688 70.529752 
L 262.647186 72.308058 
L 262.982684 71.840083 
L 263.318182 67.815496 
L 263.65368 69.406612 
L 263.989177 67.815496 
L 264.324675 67.909091 
L 264.660173 66.78595 
L 264.995671 69.500207 
L 265.331169 71.184917 
L 265.666667 70.623347 
L 266.002165 70.623347 
L 266.337662 72.495248 
L 266.67316 66.59876 
L 267.008658 69.219421 
L 267.344156 69.968182 
L 267.679654 69.219421 
L 268.015152 70.248967 
L 268.350649 66.41157 
L 268.686147 72.776033 
L 269.021645 69.874587 
L 269.357143 68.938636 
L 269.692641 68.845041 
L 270.028139 70.248967 
L 270.363636 69.780992 
L 270.699134 68.377066 
L 271.37013 72.027273 
L 271.705628 68.377066 
L 272.041126 66.130785 
L 272.376623 70.623347 
L 272.712121 68.470661 
L 273.047619 68.938636 
L 273.383117 69.032231 
L 273.718615 71.559298 
L 274.38961 68.002686 
L 274.725108 68.096281 
L 275.060606 71.278512 
L 275.396104 71.746488 
L 275.731602 70.155372 
L 276.0671 70.623347 
L 276.402597 67.160331 
L 276.738095 67.441116 
L 277.409091 70.155372 
L 277.744589 69.313017 
L 278.080087 70.061777 
L 278.415584 66.03719 
L 278.751082 70.529752 
L 279.08658 70.529752 
L 279.422078 69.313017 
L 279.757576 69.219421 
L 280.093074 68.845041 
L 280.428571 67.815496 
L 280.764069 71.652893 
L 281.099567 69.500207 
L 281.435065 69.500207 
L 281.770563 67.160331 
L 282.106061 67.441116 
L 282.441558 69.125826 
L 282.777056 69.874587 
L 283.112554 67.253926 
L 283.448052 69.313017 
L 283.78355 68.096281 
L 284.119048 68.564256 
L 284.454545 72.308058 
L 285.125541 68.751446 
L 285.461039 69.406612 
L 285.796537 66.505165 
L 286.132035 67.160331 
L 286.467532 71.278512 
L 286.80303 69.219421 
L 287.138528 68.096281 
L 287.474026 70.061777 
L 287.809524 66.78595 
L 288.145022 68.564256 
L 288.480519 67.253926 
L 288.816017 68.657851 
L 289.151515 69.125826 
L 289.487013 67.441116 
L 289.822511 68.096281 
L 290.158009 69.219421 
L 290.829004 68.096281 
L 291.164502 70.623347 
L 291.5 71.559298 
L 291.835498 67.534711 
L 292.170996 69.968182 
L 292.841991 65.382025 
L 293.177489 66.22438 
L 293.512987 67.909091 
L 293.848485 67.909091 
L 294.183983 66.59876 
L 294.854978 69.780992 
L 295.190476 66.505165 
L 295.525974 68.096281 
L 295.861472 70.342562 
L 296.19697 70.061777 
L 296.532468 67.347521 
L 296.867965 69.687397 
L 297.203463 68.002686 
L 297.538961 69.500207 
L 297.874459 65.85 
L 298.209957 67.909091 
L 298.545455 68.002686 
L 298.880952 66.130785 
L 299.21645 70.342562 
L 299.551948 66.78595 
L 299.887446 71.746488 
L 300.222944 67.909091 
L 300.558442 68.470661 
L 300.893939 68.657851 
L 301.229437 68.377066 
L 301.564935 68.751446 
L 301.900433 68.189876 
L 302.235931 66.505165 
L 302.906926 68.938636 
L 303.242424 65.194835 
L 303.577922 65.943595 
L 303.91342 69.313017 
L 304.248918 67.253926 
L 304.584416 69.125826 
L 304.919913 69.125826 
L 305.255411 68.470661 
L 305.590909 70.061777 
L 305.926407 65.85 
L 306.261905 71.559298 
L 306.597403 66.03719 
L 306.9329 69.406612 
L 307.603896 69.313017 
L 307.939394 66.59876 
L 308.274892 67.441116 
L 308.61039 69.874587 
L 308.945887 66.692355 
L 309.616883 68.564256 
L 309.952381 67.441116 
L 310.287879 67.815496 
L 310.623377 67.066736 
L 310.958874 67.160331 
L 311.294372 67.628306 
L 311.62987 66.505165 
L 311.965368 69.125826 
L 312.300866 65.943595 
L 312.636364 68.657851 
L 312.971861 67.160331 
L 313.307359 68.657851 
L 313.642857 66.03719 
L 313.978355 67.253926 
L 314.313853 67.909091 
L 314.649351 67.160331 
L 314.984848 67.253926 
L 315.320346 69.313017 
L 315.655844 66.22438 
L 316.32684 67.441116 
L 316.662338 68.564256 
L 316.997835 65.569215 
L 317.333333 66.317975 
L 317.668831 67.441116 
L 318.004329 67.066736 
L 318.339827 70.248967 
L 318.675325 68.189876 
L 319.010823 69.219421 
L 319.34632 67.441116 
L 319.681818 67.253926 
L 320.017316 67.441116 
L 320.688312 66.78595 
L 321.02381 67.347521 
L 321.359307 67.160331 
L 322.030303 67.441116 
L 322.365801 69.125826 
L 322.701299 72.495248 
L 323.036797 66.03719 
L 323.372294 69.687397 
L 323.707792 65.569215 
L 324.04329 68.096281 
L 324.378788 65.756405 
L 324.714286 68.751446 
L 325.049784 66.22438 
L 325.385281 69.313017 
L 325.720779 67.160331 
L 326.056277 69.874587 
L 326.391775 68.938636 
L 326.727273 66.59876 
L 327.062771 65.66281 
L 327.398268 66.41157 
L 327.733766 68.938636 
L 328.069264 67.253926 
L 328.404762 69.219421 
L 328.74026 66.130785 
L 329.075758 65.569215 
L 330.082251 68.096281 
L 330.417749 65.382025 
L 330.753247 67.815496 
L 331.088745 68.845041 
L 331.424242 64.258884 
L 331.75974 66.03719 
L 332.095238 63.978099 
L 332.430736 70.342562 
L 332.766234 66.692355 
L 333.101732 66.97314 
L 333.772727 64.820455 
L 334.108225 64.539669 
L 334.443723 67.253926 
L 334.779221 64.539669 
L 335.114719 67.160331 
L 335.450216 67.534711 
L 335.785714 63.978099 
L 336.121212 64.258884 
L 336.45671 65.28843 
L 336.792208 63.790909 
L 337.127706 65.47562 
L 337.463203 65.756405 
L 337.798701 67.066736 
L 338.134199 66.59876 
L 338.805195 66.692355 
L 339.140693 63.510124 
L 339.47619 68.657851 
L 339.811688 68.096281 
L 340.147186 65.756405 
L 340.818182 68.564256 
L 341.489177 64.72686 
L 341.824675 69.500207 
L 342.160173 65.85 
L 342.495671 63.790909 
L 342.831169 65.47562 
L 343.166667 65.10124 
L 343.502165 67.909091 
L 343.837662 64.633264 
L 344.17316 66.317975 
L 344.508658 71.184917 
L 344.844156 66.03719 
L 345.179654 66.317975 
L 345.515152 65.194835 
L 345.850649 66.22438 
L 346.186147 63.978099 
L 346.521645 66.130785 
L 346.857143 64.633264 
L 347.192641 64.91405 
L 347.863636 65.85 
L 348.199134 67.815496 
L 348.534632 64.820455 
L 348.87013 67.815496 
L 349.205628 66.130785 
L 349.876623 65.756405 
L 350.212121 63.697314 
L 350.547619 67.347521 
L 350.883117 68.096281 
L 351.218615 67.347521 
L 351.554113 67.441116 
L 351.88961 66.03719 
L 352.225108 67.066736 
L 352.560606 69.313017 
L 352.896104 67.815496 
L 353.231602 63.416529 
L 353.902597 69.593802 
L 354.238095 65.007645 
L 354.573593 64.633264 
L 354.909091 64.91405 
L 355.244589 64.071694 
L 355.580087 69.219421 
L 355.915584 61.451033 
L 356.251082 65.66281 
L 356.58658 68.096281 
L 356.922078 66.97314 
L 357.257576 67.628306 
L 357.593074 67.347521 
L 357.928571 64.258884 
L 358.264069 65.756405 
L 358.599567 64.820455 
L 358.935065 67.253926 
L 359.270563 67.441116 
L 359.606061 65.28843 
L 359.941558 66.505165 
L 360.277056 66.97314 
L 360.612554 64.633264 
L 360.948052 67.441116 
L 361.28355 66.22438 
L 361.619048 64.071694 
L 361.954545 63.042149 
L 362.290043 67.441116 
L 362.625541 64.165289 
L 362.961039 67.815496 
L 363.296537 68.845041 
L 363.632035 66.130785 
L 363.967532 66.78595 
L 364.30303 66.879545 
L 364.638528 63.697314 
L 364.974026 61.919008 
L 365.309524 66.130785 
L 365.645022 64.633264 
L 365.980519 68.657851 
L 366.316017 66.130785 
L 366.651515 65.66281 
L 366.987013 67.160331 
L 367.322511 66.505165 
L 367.658009 68.377066 
L 367.993506 66.59876 
L 368.329004 67.534711 
L 368.664502 66.97314 
L 369 66.130785 
L 369.335498 65.756405 
L 369.670996 67.066736 
L 370.006494 66.59876 
L 370.341991 66.505165 
L 370.677489 67.347521 
L 371.012987 65.66281 
L 371.348485 65.756405 
L 371.683983 66.692355 
L 372.019481 67.160331 
L 372.354978 66.505165 
L 372.690476 65.569215 
L 373.025974 67.347521 
L 373.361472 63.603719 
L 373.69697 66.41157 
L 374.032468 65.10124 
L 374.367965 66.59876 
L 374.703463 67.534711 
L 375.038961 64.258884 
L 375.374459 64.352479 
L 375.709957 64.820455 
L 376.045455 64.72686 
L 376.380952 63.135744 
L 376.71645 66.41157 
L 377.051948 65.85 
L 377.387446 62.667769 
L 377.722944 65.382025 
L 378.058442 65.756405 
L 378.393939 65.756405 
L 378.729437 65.47562 
L 379.064935 66.03719 
L 379.735931 65.47562 
L 380.071429 63.790909 
L 380.406926 65.47562 
L 380.742424 64.071694 
L 381.077922 68.002686 
L 381.41342 64.539669 
L 381.748918 65.569215 
L 382.084416 67.160331 
L 382.419913 67.441116 
L 382.755411 63.790909 
L 383.426407 67.347521 
L 383.761905 67.441116 
L 384.097403 67.347521 
L 384.4329 68.938636 
L 385.103896 65.47562 
L 385.439394 64.72686 
L 385.774892 66.22438 
L 386.11039 69.687397 
L 386.445887 68.096281 
L 386.781385 67.253926 
L 387.116883 67.066736 
L 387.452381 63.978099 
L 387.787879 64.820455 
L 388.458874 61.919008 
L 388.794372 65.85 
L 389.12987 63.416529 
L 389.465368 67.628306 
L 389.800866 65.569215 
L 390.136364 65.85 
L 390.471861 66.692355 
L 390.807359 65.28843 
L 391.142857 66.22438 
L 391.478355 63.978099 
L 391.813853 64.446074 
L 392.149351 66.22438 
L 392.484848 64.633264 
L 392.820346 66.03719 
L 393.155844 66.41157 
L 393.491342 62.948554 
L 393.82684 65.66281 
L 394.162338 63.884504 
L 394.497835 62.854959 
L 394.833333 66.22438 
L 395.168831 67.160331 
L 395.504329 63.416529 
L 395.839827 68.189876 
L 396.175325 64.633264 
L 396.510823 68.189876 
L 396.84632 66.03719 
L 397.181818 64.72686 
L 397.517316 65.007645 
L 397.852814 63.790909 
L 398.188312 65.756405 
L 398.52381 63.229339 
L 399.194805 64.258884 
L 399.530303 64.071694 
L 399.865801 66.505165 
L 400.201299 66.505165 
L 400.536797 64.91405 
L 400.872294 66.22438 
L 401.207792 64.446074 
L 401.54329 66.22438 
L 401.878788 63.135744 
L 402.214286 63.042149 
L 402.549784 65.85 
L 402.885281 65.569215 
L 403.220779 66.78595 
L 403.556277 65.569215 
L 403.891775 65.382025 
L 404.227273 65.007645 
L 404.562771 65.007645 
L 404.898268 65.194835 
L 405.233766 63.603719 
L 405.569264 65.943595 
L 406.24026 64.91405 
L 406.575758 66.130785 
L 406.911255 64.539669 
L 407.246753 65.194835 
L 407.917749 64.91405 
L 408.253247 67.721901 
L 408.588745 64.91405 
L 408.924242 64.91405 
L 409.25974 66.41157 
L 409.930736 62.761364 
L 410.266234 65.007645 
L 410.601732 63.884504 
L 410.937229 65.756405 
L 411.272727 68.845041 
L 411.608225 65.382025 
L 411.943723 64.071694 
L 412.279221 67.815496 
L 412.614719 68.657851 
L 412.950216 65.66281 
L 413.285714 64.820455 
L 413.621212 66.41157 
L 413.95671 64.91405 
L 414.292208 68.096281 
L 414.627706 64.165289 
L 414.963203 65.943595 
L 415.298701 63.884504 
L 415.634199 65.382025 
L 415.969697 65.28843 
L 416.305195 63.229339 
L 416.640693 66.22438 
L 416.97619 65.10124 
L 417.311688 67.628306 
L 417.647186 65.007645 
L 417.982684 64.820455 
L 418.318182 65.66281 
L 418.65368 65.194835 
L 418.989177 62.948554 
L 419.324675 66.130785 
L 419.660173 66.505165 
L 419.995671 65.85 
L 420.331169 63.042149 
L 420.666667 66.03719 
L 421.002165 65.85 
L 421.337662 63.229339 
L 421.67316 67.441116 
L 422.008658 68.283471 
L 422.344156 67.347521 
L 422.679654 66.03719 
L 423.015152 63.978099 
L 423.350649 63.135744 
L 423.686147 65.756405 
L 424.021645 65.47562 
L 424.357143 63.416529 
L 424.692641 65.28843 
L 425.028139 61.825413 
L 425.363636 65.47562 
L 425.699134 65.66281 
L 426.034632 62.761364 
L 426.37013 65.569215 
L 426.705628 65.943595 
L 427.376623 64.165289 
L 428.047619 66.505165 
L 428.383117 65.943595 
L 428.718615 63.603719 
L 429.054113 65.28843 
L 429.38961 65.569215 
L 429.725108 66.317975 
L 430.060606 66.22438 
L 430.396104 65.10124 
L 430.731602 64.539669 
L 431.0671 65.10124 
L 431.402597 64.72686 
L 431.738095 67.160331 
L 432.073593 62.854959 
L 432.409091 62.667769 
L 432.744589 63.510124 
L 433.080087 63.603719 
L 433.415584 64.539669 
L 433.751082 64.820455 
L 434.08658 63.042149 
L 434.422078 66.505165 
L 434.757576 63.510124 
L 435.093074 65.007645 
L 435.428571 65.66281 
L 435.764069 63.603719 
L 436.099567 65.85 
L 436.435065 61.263843 
L 436.770563 63.603719 
L 437.106061 66.879545 
L 437.441558 66.59876 
L 437.777056 65.47562 
L 438.112554 66.22438 
L 438.448052 65.007645 
L 438.78355 69.219421 
L 439.119048 66.41157 
L 439.454545 67.347521 
L 439.790043 63.978099 
L 440.125541 65.382025 
L 440.461039 64.539669 
L 440.796537 64.446074 
L 441.132035 65.10124 
L 441.467532 64.633264 
L 441.80303 65.10124 
L 442.138528 65.943595 
L 442.474026 62.386983 
L 442.809524 68.938636 
L 443.145022 65.10124 
L 443.480519 66.41157 
L 444.151515 62.854959 
L 444.822511 66.692355 
L 445.493506 62.386983 
L 445.829004 65.47562 
L 446.164502 66.130785 
L 446.5 63.229339 
L 446.835498 64.165289 
L 447.170996 64.258884 
L 447.506494 63.042149 
L 447.841991 64.633264 
L 448.177489 67.160331 
L 448.512987 60.795868 
L 448.848485 65.943595 
L 449.183983 65.943595 
L 449.519481 67.441116 
L 449.854978 67.253926 
L 450.190476 63.603719 
L 450.525974 63.042149 
L 450.861472 63.416529 
L 451.19697 65.47562 
L 451.532468 62.854959 
L 451.867965 65.85 
L 452.203463 65.194835 
L 452.538961 66.505165 
L 452.874459 63.416529 
L 453.209957 64.633264 
L 453.545455 62.293388 
L 453.880952 65.66281 
L 454.21645 65.007645 
L 454.551948 65.85 
L 454.887446 65.66281 
L 455.222944 64.071694 
L 455.558442 65.85 
L 455.893939 65.85 
L 456.229437 67.347521 
L 456.564935 61.919008 
L 456.900433 62.386983 
L 457.235931 66.505165 
L 457.571429 64.071694 
L 457.906926 64.071694 
L 458.242424 64.91405 
L 458.577922 62.854959 
L 458.91342 63.510124 
L 459.248918 65.10124 
L 459.584416 63.042149 
L 459.919913 64.071694 
L 460.255411 64.352479 
L 460.590909 63.322934 
L 460.926407 63.229339 
L 461.261905 65.194835 
L 461.597403 68.096281 
L 461.9329 64.91405 
L 462.268398 68.657851 
L 462.603896 64.820455 
L 462.939394 67.628306 
L 463.274892 64.72686 
L 463.61039 62.948554 
L 463.945887 64.91405 
L 464.281385 64.352479 
L 464.616883 64.820455 
L 464.952381 61.825413 
L 465.287879 65.47562 
L 465.623377 65.943595 
L 466.294372 64.820455 
L 466.62987 61.544628 
L 467.636364 65.756405 
L 468.307359 61.451033 
L 468.642857 66.130785 
L 468.978355 62.480579 
L 469.313853 62.106198 
L 469.649351 64.91405 
L 469.984848 64.258884 
L 470.320346 63.135744 
L 470.655844 60.608678 
L 470.991342 63.042149 
L 471.662338 64.820455 
L 471.997835 67.160331 
L 472.333333 62.480579 
L 472.668831 65.47562 
L 473.004329 62.854959 
L 473.339827 62.480579 
L 473.675325 66.692355 
L 474.010823 65.756405 
L 474.34632 65.382025 
L 474.681818 68.189876 
L 475.017316 62.854959 
L 475.352814 63.135744 
L 475.688312 63.884504 
L 476.02381 65.756405 
L 476.359307 64.446074 
L 476.694805 63.978099 
L 477.030303 62.012603 
L 477.365801 63.884504 
L 477.701299 64.352479 
L 478.036797 63.790909 
L 478.372294 63.884504 
L 478.707792 61.919008 
L 479.04329 61.451033 
L 479.378788 64.071694 
L 479.714286 64.165289 
L 480.049784 64.820455 
L 480.385281 65.756405 
L 480.720779 63.135744 
L 481.056277 62.854959 
L 481.391775 64.91405 
L 481.727273 64.539669 
L 482.062771 63.603719 
L 482.398268 64.258884 
L 483.069264 64.165289 
L 483.404762 62.106198 
L 483.74026 64.72686 
L 484.075758 64.258884 
L 484.411255 62.386983 
L 484.746753 65.007645 
L 485.082251 62.854959 
L 485.417749 64.165289 
L 485.753247 61.451033 
L 486.088745 67.534711 
L 486.424242 67.160331 
L 486.75974 65.569215 
L 487.095238 62.386983 
L 487.430736 68.096281 
L 487.766234 65.007645 
L 488.101732 63.697314 
L 488.437229 64.91405 
L 488.772727 64.165289 
L 489.108225 63.697314 
L 489.443723 64.071694 
L 489.779221 67.721901 
L 490.114719 65.382025 
L 490.450216 65.47562 
L 490.785714 63.697314 
L 491.121212 64.539669 
L 491.45671 62.667769 
L 491.792208 63.603719 
L 492.127706 63.510124 
L 492.463203 64.258884 
L 492.798701 62.854959 
L 493.134199 63.135744 
L 493.469697 65.66281 
L 493.805195 64.352479 
L 494.140693 61.451033 
L 494.47619 65.007645 
L 494.811688 63.978099 
L 495.147186 64.72686 
L 495.482684 63.042149 
L 495.818182 62.854959 
L 496.15368 65.47562 
L 496.489177 64.446074 
L 496.824675 65.756405 
L 497.160173 62.386983 
L 497.495671 66.130785 
L 497.831169 63.884504 
L 498.166667 64.352479 
L 498.502165 62.948554 
L 498.837662 63.416529 
L 499.17316 65.194835 
L 499.508658 64.352479 
L 499.844156 60.421488 
L 500.179654 64.820455 
L 500.515152 65.382025 
L 500.850649 61.731818 
L 501.186147 63.229339 
L 501.521645 63.322934 
L 501.857143 61.170248 
L 502.528139 65.10124 
L 502.863636 65.85 
L 503.199134 64.91405 
L 503.534632 65.943595 
L 503.87013 65.47562 
L 504.205628 62.012603 
L 504.541126 62.106198 
L 504.876623 64.165289 
L 505.212121 62.667769 
L 505.547619 62.948554 
L 505.883117 64.539669 
L 506.218615 63.603719 
L 506.554113 63.510124 
L 506.88961 62.293388 
L 507.225108 66.03719 
L 507.560606 65.47562 
L 507.896104 62.761364 
L 508.231602 66.78595 
L 508.5671 65.28843 
L 508.902597 66.03719 
L 509.238095 66.130785 
L 509.573593 65.007645 
L 509.909091 65.569215 
L 510.244589 67.160331 
L 510.580087 65.382025 
L 510.915584 62.480579 
L 511.251082 63.229339 
L 511.58658 66.41157 
L 511.922078 67.628306 
L 512.257576 62.761364 
L 512.593074 65.569215 
L 512.928571 63.884504 
L 513.264069 62.948554 
L 513.599567 63.322934 
L 513.935065 67.160331 
L 514.270563 63.229339 
L 514.606061 65.382025 
L 514.941558 63.603719 
L 515.277056 62.667769 
L 515.612554 63.603719 
L 515.948052 63.697314 
L 516.28355 64.91405 
L 516.619048 61.357438 
L 516.954545 65.756405 
L 517.290043 62.761364 
L 517.625541 66.505165 
L 518.296537 64.258884 
L 518.632035 64.446074 
L 518.967532 63.322934 
L 519.30303 63.603719 
L 519.638528 63.510124 
L 519.974026 64.72686 
L 520.309524 64.820455 
L 520.645022 63.697314 
L 520.980519 63.790909 
L 521.316017 64.820455 
L 521.651515 65.382025 
L 521.987013 62.854959 
L 522.322511 65.66281 
L 522.658009 66.78595 
L 522.993506 63.042149 
L 523.329004 63.510124 
L 523.664502 63.510124 
L 524 62.854959 
L 524.335498 67.909091 
L 524.670996 62.854959 
L 525.006494 62.480579 
L 525.341991 65.47562 
L 525.677489 64.91405 
L 526.012987 63.322934 
L 526.348485 63.510124 
L 526.683983 65.47562 
L 527.690476 62.480579 
L 528.025974 65.569215 
L 528.361472 64.352479 
L 528.69697 65.66281 
L 529.032468 65.28843 
L 529.703463 64.071694 
L 530.038961 62.480579 
L 530.374459 64.165289 
L 530.709957 63.790909 
L 531.380952 66.59876 
L 531.71645 62.293388 
L 532.051948 67.815496 
L 532.387446 61.919008 
L 532.722944 63.603719 
L 533.058442 63.603719 
L 533.393939 64.446074 
L 533.729437 62.106198 
L 534.064935 64.633264 
L 534.400433 68.470661 
L 534.735931 64.539669 
L 535.071429 64.539669 
L 535.406926 64.91405 
L 535.742424 62.854959 
L 536.077922 65.66281 
L 536.41342 64.446074 
L 537.084416 65.194835 
L 537.755411 63.697314 
L 538.090909 64.820455 
L 538.426407 64.446074 
L 538.761905 62.667769 
L 539.4329 65.007645 
L 539.768398 64.446074 
L 540.774892 64.633264 
L 541.11039 66.317975 
L 541.445887 65.007645 
L 541.781385 65.569215 
L 542.116883 63.884504 
L 542.452381 64.91405 
L 542.787879 62.574174 
L 543.123377 62.106198 
L 543.458874 65.28843 
L 543.794372 63.790909 
L 544.12987 63.322934 
L 544.465368 63.603719 
L 544.800866 64.72686 
L 545.136364 61.451033 
L 545.471861 62.854959 
L 545.807359 61.731818 
L 546.142857 64.539669 
L 546.478355 64.633264 
L 547.149351 63.416529 
L 547.484848 66.03719 
L 547.820346 64.352479 
L 548.155844 64.071694 
L 548.491342 61.919008 
L 548.82684 65.382025 
L 549.162338 62.761364 
L 549.497835 65.007645 
L 549.833333 62.948554 
L 550.168831 62.386983 
L 550.504329 64.820455 
L 550.839827 65.007645 
L 551.175325 66.879545 
L 551.510823 62.012603 
L 552.181818 67.160331 
L 552.517316 63.229339 
L 552.852814 63.697314 
L 553.188312 63.229339 
L 553.52381 62.480579 
L 553.859307 62.574174 
L 554.194805 62.012603 
L 554.530303 64.071694 
L 554.865801 64.165289 
L 555.201299 63.042149 
L 555.536797 65.569215 
L 555.872294 65.66281 
L 556.207792 64.633264 
L 556.54329 65.47562 
L 556.878788 64.539669 
L 557.214286 61.638223 
L 557.549784 62.574174 
L 557.885281 63.135744 
L 558.220779 66.41157 
L 558.891775 62.574174 
L 559.227273 64.72686 
L 559.562771 63.510124 
L 559.898268 64.820455 
L 560.233766 63.603719 
L 560.569264 67.441116 
L 560.904762 63.510124 
L 561.24026 63.603719 
L 561.575758 62.574174 
L 562.246753 65.28843 
L 562.582251 67.534711 
L 562.917749 63.697314 
L 563.253247 63.978099 
L 563.588745 65.382025 
L 563.924242 63.042149 
L 564.25974 64.633264 
L 564.595238 64.633264 
L 565.266234 62.012603 
L 565.601732 62.106198 
L 565.937229 66.505165 
L 566.608225 64.258884 
L 566.943723 64.352479 
L 567.279221 67.253926 
L 567.614719 62.199793 
L 568.285714 64.352479 
L 568.621212 63.697314 
L 568.95671 64.446074 
L 569.292208 64.165289 
L 569.627706 63.135744 
L 569.963203 60.327893 
L 570.298701 64.633264 
L 570.634199 64.820455 
L 570.969697 63.603719 
L 571.305195 66.22438 
L 571.640693 64.165289 
L 571.97619 61.357438 
L 572.311688 64.72686 
L 572.647186 65.382025 
L 572.982684 68.189876 
L 573.318182 65.007645 
L 573.989177 63.510124 
L 574.324675 62.293388 
L 574.660173 63.978099 
L 574.995671 62.854959 
L 575.331169 64.071694 
L 575.666667 62.854959 
L 576.002165 64.165289 
L 576.337662 65.943595 
L 576.67316 66.130785 
L 577.008658 62.012603 
L 577.344156 61.544628 
L 577.679654 64.446074 
L 578.015152 62.761364 
L 578.350649 64.258884 
L 578.686147 63.416529 
L 579.021645 64.91405 
L 579.357143 62.199793 
L 579.692641 64.071694 
L 580.028139 63.884504 
L 580.363636 66.22438 
L 580.699134 64.352479 
L 581.034632 64.633264 
L 581.37013 61.825413 
L 581.705628 64.91405 
L 582.041126 63.884504 
L 582.376623 63.322934 
L 582.712121 63.697314 
L 583.047619 60.702273 
L 583.383117 63.790909 
L 583.718615 64.352479 
L 584.38961 62.948554 
L 584.725108 64.446074 
L 585.060606 64.91405 
L 585.396104 64.165289 
L 585.731602 67.534711 
L 586.0671 63.322934 
L 586.402597 63.884504 
L 586.738095 61.544628 
L 587.409091 65.66281 
L 587.744589 67.066736 
L 588.080087 62.948554 
L 588.415584 63.790909 
L 588.751082 61.731818 
L 589.08658 64.820455 
L 589.422078 65.007645 
L 589.757576 63.229339 
L 590.093074 65.10124 
L 590.428571 64.165289 
L 590.764069 62.480579 
L 591.099567 63.229339 
L 591.435065 66.692355 
L 591.770563 62.948554 
L 592.106061 65.85 
L 592.441558 61.451033 
L 592.777056 65.85 
L 593.112554 64.539669 
L 593.448052 64.446074 
L 593.78355 65.47562 
L 594.119048 64.633264 
L 594.454545 67.347521 
L 595.125541 64.633264 
L 595.461039 61.919008 
L 596.132035 65.85 
L 596.467532 63.416529 
L 596.80303 62.012603 
L 597.138528 64.258884 
L 597.474026 62.667769 
L 597.809524 65.10124 
L 598.145022 65.28843 
L 598.480519 64.91405 
L 598.816017 61.544628 
L 599.151515 63.603719 
L 599.487013 64.91405 
L 599.822511 63.229339 
L 600.158009 63.322934 
L 600.493506 62.948554 
L 600.829004 63.229339 
L 601.164502 62.761364 
L 601.5 64.91405 
L 601.835498 62.480579 
L 602.170996 64.72686 
L 602.506494 62.948554 
L 602.841991 62.761364 
L 603.177489 61.451033 
L 603.512987 61.451033 
L 604.183983 65.10124 
L 604.519481 63.229339 
L 604.854978 63.416529 
L 605.190476 64.352479 
L 605.525974 62.948554 
L 605.861472 64.165289 
L 606.19697 64.071694 
L 606.532468 65.382025 
L 606.867965 63.790909 
L 607.203463 64.820455 
L 607.538961 63.135744 
L 607.874459 66.59876 
L 608.209957 64.071694 
L 608.545455 62.574174 
L 608.880952 65.007645 
L 609.21645 62.386983 
L 609.551948 65.194835 
L 609.887446 62.948554 
L 610.222944 62.574174 
L 610.558442 62.480579 
L 610.893939 62.199793 
L 611.229437 62.293388 
L 611.564935 62.012603 
L 611.900433 62.574174 
L 612.235931 66.317975 
L 612.571429 62.199793 
L 612.906926 64.071694 
L 613.242424 63.322934 
L 613.577922 63.978099 
L 613.91342 64.91405 
L 614.248918 63.697314 
L 614.584416 64.352479 
L 614.919913 64.352479 
L 615.255411 63.229339 
L 615.590909 65.47562 
L 615.926407 62.854959 
L 616.261905 65.47562 
L 616.597403 64.071694 
L 616.9329 67.721901 
L 617.268398 64.446074 
L 617.603896 65.382025 
L 617.939394 64.72686 
L 618.274892 65.382025 
L 618.61039 62.574174 
L 618.945887 65.85 
L 619.281385 66.41157 
L 619.616883 65.756405 
L 619.952381 66.59876 
L 620.287879 63.978099 
L 620.623377 63.697314 
L 620.958874 65.007645 
L 621.294372 63.510124 
L 621.62987 64.633264 
L 621.965368 63.790909 
L 622.300866 64.352479 
L 622.636364 65.569215 
L 622.636364 65.569215 
" style="fill:none;stroke:#ff7f0e;stroke-linecap:square;stroke-width:0.5;"/>
   </g>
   <g id="patch_3">
    <path d="M 90 315 
L 90 43.2 
" style="fill:none;stroke:#000000;stroke-linecap:square;stroke-linejoin:miter;stroke-width:0.8;"/>
   </g>
   <g id="patch_4">
    <path d="M 648 315 
L 648 43.2 
" style="fill:none;stroke:#000000;stroke-linecap:square;stroke-linejoin:miter;stroke-width:0.8;"/>
   </g>
   <g id="patch_5">
    <path d="M 90 315 
L 648 315 
" style="fill:none;stroke:#000000;stroke-linecap:square;stroke-linejoin:miter;stroke-width:0.8;"/>
   </g>
   <g id="patch_6">
    <path d="M 90 43.2 
L 648 43.2 
" style="fill:none;stroke:#000000;stroke-linecap:square;stroke-linejoin:miter;stroke-width:0.8;"/>
   </g>
   <g id="text_18">
    <!-- accuracy -->
    <g transform="translate(341.92875 37.2)scale(0.12 -0.12)">
     <use xlink:href="#DejaVuSans-97"/>
     <use x="61.279297" xlink:href="#DejaVuSans-99"/>
     <use x="116.259766" xlink:href="#DejaVuSans-99"/>
     <use x="171.240234" xlink:href="#DejaVuSans-117"/>
     <use x="234.619141" xlink:href="#DejaVuSans-114"/>
     <use x="275.732422" xlink:href="#DejaVuSans-97"/>
     <use x="337.011719" xlink:href="#DejaVuSans-99"/>
     <use x="391.992188" xlink:href="#DejaVuSans-121"/>
    </g>
   </g>
   <g id="legend_1">
    <g id="patch_7">
     <path d="M 97 80.55625 
L 169.153125 80.55625 
Q 171.153125 80.55625 171.153125 78.55625 
L 171.153125 50.2 
Q 171.153125 48.2 169.153125 48.2 
L 97 48.2 
Q 95 48.2 95 50.2 
L 95 78.55625 
Q 95 80.55625 97 80.55625 
z
" style="fill:#ffffff;opacity:0.8;stroke:#cccccc;stroke-linejoin:miter;"/>
    </g>
    <g id="line2d_33">
     <path d="M 99 56.298437 
L 119 56.298437 
" style="fill:none;stroke:#1f77b4;stroke-linecap:square;stroke-width:0.5;"/>
    </g>
    <g id="line2d_34"/>
    <g id="text_19">
     <!-- train -->
     <defs>
      <path d="M 18.3125 70.21875 
L 18.3125 54.6875 
L 36.8125 54.6875 
L 36.8125 47.703125 
L 18.3125 47.703125 
L 18.3125 18.015625 
Q 18.3125 11.328125 20.140625 9.421875 
Q 21.96875 7.515625 27.59375 7.515625 
L 36.8125 7.515625 
L 36.8125 0 
L 27.59375 0 
Q 17.1875 0 13.234375 3.875 
Q 9.28125 7.765625 9.28125 18.015625 
L 9.28125 47.703125 
L 2.6875 47.703125 
L 2.6875 54.6875 
L 9.28125 54.6875 
L 9.28125 70.21875 
z
" id="DejaVuSans-116"/>
      <path d="M 9.421875 54.6875 
L 18.40625 54.6875 
L 18.40625 0 
L 9.421875 0 
z
M 9.421875 75.984375 
L 18.40625 75.984375 
L 18.40625 64.59375 
L 9.421875 64.59375 
z
" id="DejaVuSans-105"/>
      <path d="M 54.890625 33.015625 
L 54.890625 0 
L 45.90625 0 
L 45.90625 32.71875 
Q 45.90625 40.484375 42.875 44.328125 
Q 39.84375 48.1875 33.796875 48.1875 
Q 26.515625 48.1875 22.3125 43.546875 
Q 18.109375 38.921875 18.109375 30.90625 
L 18.109375 0 
L 9.078125 0 
L 9.078125 54.6875 
L 18.109375 54.6875 
L 18.109375 46.1875 
Q 21.34375 51.125 25.703125 53.5625 
Q 30.078125 56 35.796875 56 
Q 45.21875 56 50.046875 50.171875 
Q 54.890625 44.34375 54.890625 33.015625 
z
" id="DejaVuSans-110"/>
     </defs>
     <g transform="translate(127 59.798437)scale(0.1 -0.1)">
      <use xlink:href="#DejaVuSans-116"/>
      <use x="39.208984" xlink:href="#DejaVuSans-114"/>
      <use x="80.322266" xlink:href="#DejaVuSans-97"/>
      <use x="141.601562" xlink:href="#DejaVuSans-105"/>
      <use x="169.384766" xlink:href="#DejaVuSans-110"/>
     </g>
    </g>
    <g id="line2d_35">
     <path d="M 99 70.976562 
L 119 70.976562 
" style="fill:none;stroke:#ff7f0e;stroke-linecap:square;stroke-width:0.5;"/>
    </g>
    <g id="line2d_36"/>
    <g id="text_20">
     <!-- validate -->
     <defs>
      <path d="M 2.984375 54.6875 
L 12.5 54.6875 
L 29.59375 8.796875 
L 46.6875 54.6875 
L 56.203125 54.6875 
L 35.6875 0 
L 23.484375 0 
z
" id="DejaVuSans-118"/>
      <path d="M 9.421875 75.984375 
L 18.40625 75.984375 
L 18.40625 0 
L 9.421875 0 
z
" id="DejaVuSans-108"/>
      <path d="M 45.40625 46.390625 
L 45.40625 75.984375 
L 54.390625 75.984375 
L 54.390625 0 
L 45.40625 0 
L 45.40625 8.203125 
Q 42.578125 3.328125 38.25 0.953125 
Q 33.9375 -1.421875 27.875 -1.421875 
Q 17.96875 -1.421875 11.734375 6.484375 
Q 5.515625 14.40625 5.515625 27.296875 
Q 5.515625 40.1875 11.734375 48.09375 
Q 17.96875 56 27.875 56 
Q 33.9375 56 38.25 53.625 
Q 42.578125 51.265625 45.40625 46.390625 
z
M 14.796875 27.296875 
Q 14.796875 17.390625 18.875 11.75 
Q 22.953125 6.109375 30.078125 6.109375 
Q 37.203125 6.109375 41.296875 11.75 
Q 45.40625 17.390625 45.40625 27.296875 
Q 45.40625 37.203125 41.296875 42.84375 
Q 37.203125 48.484375 30.078125 48.484375 
Q 22.953125 48.484375 18.875 42.84375 
Q 14.796875 37.203125 14.796875 27.296875 
z
" id="DejaVuSans-100"/>
     </defs>
     <g transform="translate(127 74.476562)scale(0.1 -0.1)">
      <use xlink:href="#DejaVuSans-118"/>
      <use x="59.179688" xlink:href="#DejaVuSans-97"/>
      <use x="120.458984" xlink:href="#DejaVuSans-108"/>
      <use x="148.242188" xlink:href="#DejaVuSans-105"/>
      <use x="176.025391" xlink:href="#DejaVuSans-100"/>
      <use x="239.501953" xlink:href="#DejaVuSans-97"/>
      <use x="300.78125" xlink:href="#DejaVuSans-116"/>
      <use x="339.990234" xlink:href="#DejaVuSans-101"/>
     </g>
    </g>
   </g>
  </g>
 </g>
 <defs>
  <clipPath id="p9f31e387eb">
   <rect height="271.8" width="558" x="90" y="43.2"/>
  </clipPath>
 </defs>
</svg>
