<?xml version="1.0" encoding="utf-8" standalone="no"?>
<!DOCTYPE svg PUBLIC "-//W3C//DTD SVG 1.1//EN"
  "http://www.w3.org/Graphics/SVG/1.1/DTD/svg11.dtd">
<!-- Created with matplotlib (https://matplotlib.org/) -->
<svg height="360pt" version="1.1" viewBox="0 0 720 360" width="720pt" xmlns="http://www.w3.org/2000/svg" xmlns:xlink="http://www.w3.org/1999/xlink">
 <defs>
  <style type="text/css">
*{stroke-linecap:butt;stroke-linejoin:round;}
  </style>
 </defs>
 <g id="figure_1">
  <g id="patch_1">
   <path d="M 0 360 
L 720 360 
L 720 0 
L 0 0 
z
" style="fill:#ffffff;"/>
  </g>
  <g id="axes_1">
   <g id="patch_2">
    <path d="M 90 315 
L 648 315 
L 648 43.2 
L 90 43.2 
z
" style="fill:#ffffff;"/>
   </g>
   <g id="matplotlib.axis_1">
    <g id="xtick_1">
     <g id="line2d_1">
      <path clip-path="url(#p422310a7ec)" d="M 115.363636 315 
L 115.363636 43.2 
" style="fill:none;stroke:#b0b0b0;stroke-linecap:square;stroke-width:0.8;"/>
     </g>
     <g id="line2d_2">
      <defs>
       <path d="M 0 0 
L 0 3.5 
" id="me0c6605a71" style="stroke:#000000;stroke-width:0.8;"/>
      </defs>
      <g>
       <use style="stroke:#000000;stroke-width:0.8;" x="115.363636" xlink:href="#me0c6605a71" y="315"/>
      </g>
     </g>
     <g id="text_1">
      <!-- 0 -->
      <defs>
       <path d="M 31.78125 66.40625 
Q 24.171875 66.40625 20.328125 58.90625 
Q 16.5 51.421875 16.5 36.375 
Q 16.5 21.390625 20.328125 13.890625 
Q 24.171875 6.390625 31.78125 6.390625 
Q 39.453125 6.390625 43.28125 13.890625 
Q 47.125 21.390625 47.125 36.375 
Q 47.125 51.421875 43.28125 58.90625 
Q 39.453125 66.40625 31.78125 66.40625 
z
M 31.78125 74.21875 
Q 44.046875 74.21875 50.515625 64.515625 
Q 56.984375 54.828125 56.984375 36.375 
Q 56.984375 17.96875 50.515625 8.265625 
Q 44.046875 -1.421875 31.78125 -1.421875 
Q 19.53125 -1.421875 13.0625 8.265625 
Q 6.59375 17.96875 6.59375 36.375 
Q 6.59375 54.828125 13.0625 64.515625 
Q 19.53125 74.21875 31.78125 74.21875 
z
" id="DejaVuSans-48"/>
      </defs>
      <g transform="translate(112.182386 329.598437)scale(0.1 -0.1)">
       <use xlink:href="#DejaVuSans-48"/>
      </g>
     </g>
    </g>
    <g id="xtick_2">
     <g id="line2d_3">
      <path clip-path="url(#p422310a7ec)" d="M 222.722944 315 
L 222.722944 43.2 
" style="fill:none;stroke:#b0b0b0;stroke-linecap:square;stroke-width:0.8;"/>
     </g>
     <g id="line2d_4">
      <g>
       <use style="stroke:#000000;stroke-width:0.8;" x="222.722944" xlink:href="#me0c6605a71" y="315"/>
      </g>
     </g>
     <g id="text_2">
      <!-- 200 -->
      <defs>
       <path d="M 19.1875 8.296875 
L 53.609375 8.296875 
L 53.609375 0 
L 7.328125 0 
L 7.328125 8.296875 
Q 12.9375 14.109375 22.625 23.890625 
Q 32.328125 33.6875 34.8125 36.53125 
Q 39.546875 41.84375 41.421875 45.53125 
Q 43.3125 49.21875 43.3125 52.78125 
Q 43.3125 58.59375 39.234375 62.25 
Q 35.15625 65.921875 28.609375 65.921875 
Q 23.96875 65.921875 18.8125 64.3125 
Q 13.671875 62.703125 7.8125 59.421875 
L 7.8125 69.390625 
Q 13.765625 71.78125 18.9375 73 
Q 24.125 74.21875 28.421875 74.21875 
Q 39.75 74.21875 46.484375 68.546875 
Q 53.21875 62.890625 53.21875 53.421875 
Q 53.21875 48.921875 51.53125 44.890625 
Q 49.859375 40.875 45.40625 35.40625 
Q 44.1875 33.984375 37.640625 27.21875 
Q 31.109375 20.453125 19.1875 8.296875 
z
" id="DejaVuSans-50"/>
      </defs>
      <g transform="translate(213.179194 329.598437)scale(0.1 -0.1)">
       <use xlink:href="#DejaVuSans-50"/>
       <use x="63.623047" xlink:href="#DejaVuSans-48"/>
       <use x="127.246094" xlink:href="#DejaVuSans-48"/>
      </g>
     </g>
    </g>
    <g id="xtick_3">
     <g id="line2d_5">
      <path clip-path="url(#p422310a7ec)" d="M 330.082251 315 
L 330.082251 43.2 
" style="fill:none;stroke:#b0b0b0;stroke-linecap:square;stroke-width:0.8;"/>
     </g>
     <g id="line2d_6">
      <g>
       <use style="stroke:#000000;stroke-width:0.8;" x="330.082251" xlink:href="#me0c6605a71" y="315"/>
      </g>
     </g>
     <g id="text_3">
      <!-- 400 -->
      <defs>
       <path d="M 37.796875 64.3125 
L 12.890625 25.390625 
L 37.796875 25.390625 
z
M 35.203125 72.90625 
L 47.609375 72.90625 
L 47.609375 25.390625 
L 58.015625 25.390625 
L 58.015625 17.1875 
L 47.609375 17.1875 
L 47.609375 0 
L 37.796875 0 
L 37.796875 17.1875 
L 4.890625 17.1875 
L 4.890625 26.703125 
z
" id="DejaVuSans-52"/>
      </defs>
      <g transform="translate(320.538501 329.598437)scale(0.1 -0.1)">
       <use xlink:href="#DejaVuSans-52"/>
       <use x="63.623047" xlink:href="#DejaVuSans-48"/>
       <use x="127.246094" xlink:href="#DejaVuSans-48"/>
      </g>
     </g>
    </g>
    <g id="xtick_4">
     <g id="line2d_7">
      <path clip-path="url(#p422310a7ec)" d="M 437.441558 315 
L 437.441558 43.2 
" style="fill:none;stroke:#b0b0b0;stroke-linecap:square;stroke-width:0.8;"/>
     </g>
     <g id="line2d_8">
      <g>
       <use style="stroke:#000000;stroke-width:0.8;" x="437.441558" xlink:href="#me0c6605a71" y="315"/>
      </g>
     </g>
     <g id="text_4">
      <!-- 600 -->
      <defs>
       <path d="M 33.015625 40.375 
Q 26.375 40.375 22.484375 35.828125 
Q 18.609375 31.296875 18.609375 23.390625 
Q 18.609375 15.53125 22.484375 10.953125 
Q 26.375 6.390625 33.015625 6.390625 
Q 39.65625 6.390625 43.53125 10.953125 
Q 47.40625 15.53125 47.40625 23.390625 
Q 47.40625 31.296875 43.53125 35.828125 
Q 39.65625 40.375 33.015625 40.375 
z
M 52.59375 71.296875 
L 52.59375 62.3125 
Q 48.875 64.0625 45.09375 64.984375 
Q 41.3125 65.921875 37.59375 65.921875 
Q 27.828125 65.921875 22.671875 59.328125 
Q 17.53125 52.734375 16.796875 39.40625 
Q 19.671875 43.65625 24.015625 45.921875 
Q 28.375 48.1875 33.59375 48.1875 
Q 44.578125 48.1875 50.953125 41.515625 
Q 57.328125 34.859375 57.328125 23.390625 
Q 57.328125 12.15625 50.6875 5.359375 
Q 44.046875 -1.421875 33.015625 -1.421875 
Q 20.359375 -1.421875 13.671875 8.265625 
Q 6.984375 17.96875 6.984375 36.375 
Q 6.984375 53.65625 15.1875 63.9375 
Q 23.390625 74.21875 37.203125 74.21875 
Q 40.921875 74.21875 44.703125 73.484375 
Q 48.484375 72.75 52.59375 71.296875 
z
" id="DejaVuSans-54"/>
      </defs>
      <g transform="translate(427.897808 329.598437)scale(0.1 -0.1)">
       <use xlink:href="#DejaVuSans-54"/>
       <use x="63.623047" xlink:href="#DejaVuSans-48"/>
       <use x="127.246094" xlink:href="#DejaVuSans-48"/>
      </g>
     </g>
    </g>
    <g id="xtick_5">
     <g id="line2d_9">
      <path clip-path="url(#p422310a7ec)" d="M 544.800866 315 
L 544.800866 43.2 
" style="fill:none;stroke:#b0b0b0;stroke-linecap:square;stroke-width:0.8;"/>
     </g>
     <g id="line2d_10">
      <g>
       <use style="stroke:#000000;stroke-width:0.8;" x="544.800866" xlink:href="#me0c6605a71" y="315"/>
      </g>
     </g>
     <g id="text_5">
      <!-- 800 -->
      <defs>
       <path d="M 31.78125 34.625 
Q 24.75 34.625 20.71875 30.859375 
Q 16.703125 27.09375 16.703125 20.515625 
Q 16.703125 13.921875 20.71875 10.15625 
Q 24.75 6.390625 31.78125 6.390625 
Q 38.8125 6.390625 42.859375 10.171875 
Q 46.921875 13.96875 46.921875 20.515625 
Q 46.921875 27.09375 42.890625 30.859375 
Q 38.875 34.625 31.78125 34.625 
z
M 21.921875 38.8125 
Q 15.578125 40.375 12.03125 44.71875 
Q 8.5 49.078125 8.5 55.328125 
Q 8.5 64.0625 14.71875 69.140625 
Q 20.953125 74.21875 31.78125 74.21875 
Q 42.671875 74.21875 48.875 69.140625 
Q 55.078125 64.0625 55.078125 55.328125 
Q 55.078125 49.078125 51.53125 44.71875 
Q 48 40.375 41.703125 38.8125 
Q 48.828125 37.15625 52.796875 32.3125 
Q 56.78125 27.484375 56.78125 20.515625 
Q 56.78125 9.90625 50.3125 4.234375 
Q 43.84375 -1.421875 31.78125 -1.421875 
Q 19.734375 -1.421875 13.25 4.234375 
Q 6.78125 9.90625 6.78125 20.515625 
Q 6.78125 27.484375 10.78125 32.3125 
Q 14.796875 37.15625 21.921875 38.8125 
z
M 18.3125 54.390625 
Q 18.3125 48.734375 21.84375 45.5625 
Q 25.390625 42.390625 31.78125 42.390625 
Q 38.140625 42.390625 41.71875 45.5625 
Q 45.3125 48.734375 45.3125 54.390625 
Q 45.3125 60.0625 41.71875 63.234375 
Q 38.140625 66.40625 31.78125 66.40625 
Q 25.390625 66.40625 21.84375 63.234375 
Q 18.3125 60.0625 18.3125 54.390625 
z
" id="DejaVuSans-56"/>
      </defs>
      <g transform="translate(535.257116 329.598437)scale(0.1 -0.1)">
       <use xlink:href="#DejaVuSans-56"/>
       <use x="63.623047" xlink:href="#DejaVuSans-48"/>
       <use x="127.246094" xlink:href="#DejaVuSans-48"/>
      </g>
     </g>
    </g>
    <g id="text_6">
     <!-- epoch -->
     <defs>
      <path d="M 56.203125 29.59375 
L 56.203125 25.203125 
L 14.890625 25.203125 
Q 15.484375 15.921875 20.484375 11.0625 
Q 25.484375 6.203125 34.421875 6.203125 
Q 39.59375 6.203125 44.453125 7.46875 
Q 49.3125 8.734375 54.109375 11.28125 
L 54.109375 2.78125 
Q 49.265625 0.734375 44.1875 -0.34375 
Q 39.109375 -1.421875 33.890625 -1.421875 
Q 20.796875 -1.421875 13.15625 6.1875 
Q 5.515625 13.8125 5.515625 26.8125 
Q 5.515625 40.234375 12.765625 48.109375 
Q 20.015625 56 32.328125 56 
Q 43.359375 56 49.78125 48.890625 
Q 56.203125 41.796875 56.203125 29.59375 
z
M 47.21875 32.234375 
Q 47.125 39.59375 43.09375 43.984375 
Q 39.0625 48.390625 32.421875 48.390625 
Q 24.90625 48.390625 20.390625 44.140625 
Q 15.875 39.890625 15.1875 32.171875 
z
" id="DejaVuSans-101"/>
      <path d="M 18.109375 8.203125 
L 18.109375 -20.796875 
L 9.078125 -20.796875 
L 9.078125 54.6875 
L 18.109375 54.6875 
L 18.109375 46.390625 
Q 20.953125 51.265625 25.265625 53.625 
Q 29.59375 56 35.59375 56 
Q 45.5625 56 51.78125 48.09375 
Q 58.015625 40.1875 58.015625 27.296875 
Q 58.015625 14.40625 51.78125 6.484375 
Q 45.5625 -1.421875 35.59375 -1.421875 
Q 29.59375 -1.421875 25.265625 0.953125 
Q 20.953125 3.328125 18.109375 8.203125 
z
M 48.6875 27.296875 
Q 48.6875 37.203125 44.609375 42.84375 
Q 40.53125 48.484375 33.40625 48.484375 
Q 26.265625 48.484375 22.1875 42.84375 
Q 18.109375 37.203125 18.109375 27.296875 
Q 18.109375 17.390625 22.1875 11.75 
Q 26.265625 6.109375 33.40625 6.109375 
Q 40.53125 6.109375 44.609375 11.75 
Q 48.6875 17.390625 48.6875 27.296875 
z
" id="DejaVuSans-112"/>
      <path d="M 30.609375 48.390625 
Q 23.390625 48.390625 19.1875 42.75 
Q 14.984375 37.109375 14.984375 27.296875 
Q 14.984375 17.484375 19.15625 11.84375 
Q 23.34375 6.203125 30.609375 6.203125 
Q 37.796875 6.203125 41.984375 11.859375 
Q 46.1875 17.53125 46.1875 27.296875 
Q 46.1875 37.015625 41.984375 42.703125 
Q 37.796875 48.390625 30.609375 48.390625 
z
M 30.609375 56 
Q 42.328125 56 49.015625 48.375 
Q 55.71875 40.765625 55.71875 27.296875 
Q 55.71875 13.875 49.015625 6.21875 
Q 42.328125 -1.421875 30.609375 -1.421875 
Q 18.84375 -1.421875 12.171875 6.21875 
Q 5.515625 13.875 5.515625 27.296875 
Q 5.515625 40.765625 12.171875 48.375 
Q 18.84375 56 30.609375 56 
z
" id="DejaVuSans-111"/>
      <path d="M 48.78125 52.59375 
L 48.78125 44.1875 
Q 44.96875 46.296875 41.140625 47.34375 
Q 37.3125 48.390625 33.40625 48.390625 
Q 24.65625 48.390625 19.8125 42.84375 
Q 14.984375 37.3125 14.984375 27.296875 
Q 14.984375 17.28125 19.8125 11.734375 
Q 24.65625 6.203125 33.40625 6.203125 
Q 37.3125 6.203125 41.140625 7.25 
Q 44.96875 8.296875 48.78125 10.40625 
L 48.78125 2.09375 
Q 45.015625 0.34375 40.984375 -0.53125 
Q 36.96875 -1.421875 32.421875 -1.421875 
Q 20.0625 -1.421875 12.78125 6.34375 
Q 5.515625 14.109375 5.515625 27.296875 
Q 5.515625 40.671875 12.859375 48.328125 
Q 20.21875 56 33.015625 56 
Q 37.15625 56 41.109375 55.140625 
Q 45.0625 54.296875 48.78125 52.59375 
z
" id="DejaVuSans-99"/>
      <path d="M 54.890625 33.015625 
L 54.890625 0 
L 45.90625 0 
L 45.90625 32.71875 
Q 45.90625 40.484375 42.875 44.328125 
Q 39.84375 48.1875 33.796875 48.1875 
Q 26.515625 48.1875 22.3125 43.546875 
Q 18.109375 38.921875 18.109375 30.90625 
L 18.109375 0 
L 9.078125 0 
L 9.078125 75.984375 
L 18.109375 75.984375 
L 18.109375 46.1875 
Q 21.34375 51.125 25.703125 53.5625 
Q 30.078125 56 35.796875 56 
Q 45.21875 56 50.046875 50.171875 
Q 54.890625 44.34375 54.890625 33.015625 
z
" id="DejaVuSans-104"/>
     </defs>
     <g transform="translate(353.771875 343.276563)scale(0.1 -0.1)">
      <use xlink:href="#DejaVuSans-101"/>
      <use x="61.523438" xlink:href="#DejaVuSans-112"/>
      <use x="125" xlink:href="#DejaVuSans-111"/>
      <use x="186.181641" xlink:href="#DejaVuSans-99"/>
      <use x="241.162109" xlink:href="#DejaVuSans-104"/>
     </g>
    </g>
   </g>
   <g id="matplotlib.axis_2">
    <g id="ytick_1">
     <g id="line2d_11">
      <path clip-path="url(#p422310a7ec)" d="M 90 309.726873 
L 648 309.726873 
" style="fill:none;stroke:#b0b0b0;stroke-linecap:square;stroke-width:0.8;"/>
     </g>
     <g id="line2d_12">
      <defs>
       <path d="M 0 0 
L -3.5 0 
" id="m1ddefe5b1c" style="stroke:#000000;stroke-width:0.8;"/>
      </defs>
      <g>
       <use style="stroke:#000000;stroke-width:0.8;" x="90" xlink:href="#m1ddefe5b1c" y="309.726873"/>
      </g>
     </g>
     <g id="text_7">
      <!-- 0.3 -->
      <defs>
       <path d="M 10.6875 12.40625 
L 21 12.40625 
L 21 0 
L 10.6875 0 
z
" id="DejaVuSans-46"/>
       <path d="M 40.578125 39.3125 
Q 47.65625 37.796875 51.625 33 
Q 55.609375 28.21875 55.609375 21.1875 
Q 55.609375 10.40625 48.1875 4.484375 
Q 40.765625 -1.421875 27.09375 -1.421875 
Q 22.515625 -1.421875 17.65625 -0.515625 
Q 12.796875 0.390625 7.625 2.203125 
L 7.625 11.71875 
Q 11.71875 9.328125 16.59375 8.109375 
Q 21.484375 6.890625 26.8125 6.890625 
Q 36.078125 6.890625 40.9375 10.546875 
Q 45.796875 14.203125 45.796875 21.1875 
Q 45.796875 27.640625 41.28125 31.265625 
Q 36.765625 34.90625 28.71875 34.90625 
L 20.21875 34.90625 
L 20.21875 43.015625 
L 29.109375 43.015625 
Q 36.375 43.015625 40.234375 45.921875 
Q 44.09375 48.828125 44.09375 54.296875 
Q 44.09375 59.90625 40.109375 62.90625 
Q 36.140625 65.921875 28.71875 65.921875 
Q 24.65625 65.921875 20.015625 65.03125 
Q 15.375 64.15625 9.8125 62.3125 
L 9.8125 71.09375 
Q 15.4375 72.65625 20.34375 73.4375 
Q 25.25 74.21875 29.59375 74.21875 
Q 40.828125 74.21875 47.359375 69.109375 
Q 53.90625 64.015625 53.90625 55.328125 
Q 53.90625 49.265625 50.4375 45.09375 
Q 46.96875 40.921875 40.578125 39.3125 
z
" id="DejaVuSans-51"/>
      </defs>
      <g transform="translate(67.096875 313.526091)scale(0.1 -0.1)">
       <use xlink:href="#DejaVuSans-48"/>
       <use x="63.623047" xlink:href="#DejaVuSans-46"/>
       <use x="95.410156" xlink:href="#DejaVuSans-51"/>
      </g>
     </g>
    </g>
    <g id="ytick_2">
     <g id="line2d_13">
      <path clip-path="url(#p422310a7ec)" d="M 90 271.790704 
L 648 271.790704 
" style="fill:none;stroke:#b0b0b0;stroke-linecap:square;stroke-width:0.8;"/>
     </g>
     <g id="line2d_14">
      <g>
       <use style="stroke:#000000;stroke-width:0.8;" x="90" xlink:href="#m1ddefe5b1c" y="271.790704"/>
      </g>
     </g>
     <g id="text_8">
      <!-- 0.4 -->
      <g transform="translate(67.096875 275.589923)scale(0.1 -0.1)">
       <use xlink:href="#DejaVuSans-48"/>
       <use x="63.623047" xlink:href="#DejaVuSans-46"/>
       <use x="95.410156" xlink:href="#DejaVuSans-52"/>
      </g>
     </g>
    </g>
    <g id="ytick_3">
     <g id="line2d_15">
      <path clip-path="url(#p422310a7ec)" d="M 90 233.854536 
L 648 233.854536 
" style="fill:none;stroke:#b0b0b0;stroke-linecap:square;stroke-width:0.8;"/>
     </g>
     <g id="line2d_16">
      <g>
       <use style="stroke:#000000;stroke-width:0.8;" x="90" xlink:href="#m1ddefe5b1c" y="233.854536"/>
      </g>
     </g>
     <g id="text_9">
      <!-- 0.5 -->
      <defs>
       <path d="M 10.796875 72.90625 
L 49.515625 72.90625 
L 49.515625 64.59375 
L 19.828125 64.59375 
L 19.828125 46.734375 
Q 21.96875 47.46875 24.109375 47.828125 
Q 26.265625 48.1875 28.421875 48.1875 
Q 40.625 48.1875 47.75 41.5 
Q 54.890625 34.8125 54.890625 23.390625 
Q 54.890625 11.625 47.5625 5.09375 
Q 40.234375 -1.421875 26.90625 -1.421875 
Q 22.3125 -1.421875 17.546875 -0.640625 
Q 12.796875 0.140625 7.71875 1.703125 
L 7.71875 11.625 
Q 12.109375 9.234375 16.796875 8.0625 
Q 21.484375 6.890625 26.703125 6.890625 
Q 35.15625 6.890625 40.078125 11.328125 
Q 45.015625 15.765625 45.015625 23.390625 
Q 45.015625 31 40.078125 35.4375 
Q 35.15625 39.890625 26.703125 39.890625 
Q 22.75 39.890625 18.8125 39.015625 
Q 14.890625 38.140625 10.796875 36.28125 
z
" id="DejaVuSans-53"/>
      </defs>
      <g transform="translate(67.096875 237.653755)scale(0.1 -0.1)">
       <use xlink:href="#DejaVuSans-48"/>
       <use x="63.623047" xlink:href="#DejaVuSans-46"/>
       <use x="95.410156" xlink:href="#DejaVuSans-53"/>
      </g>
     </g>
    </g>
    <g id="ytick_4">
     <g id="line2d_17">
      <path clip-path="url(#p422310a7ec)" d="M 90 195.918368 
L 648 195.918368 
" style="fill:none;stroke:#b0b0b0;stroke-linecap:square;stroke-width:0.8;"/>
     </g>
     <g id="line2d_18">
      <g>
       <use style="stroke:#000000;stroke-width:0.8;" x="90" xlink:href="#m1ddefe5b1c" y="195.918368"/>
      </g>
     </g>
     <g id="text_10">
      <!-- 0.6 -->
      <g transform="translate(67.096875 199.717587)scale(0.1 -0.1)">
       <use xlink:href="#DejaVuSans-48"/>
       <use x="63.623047" xlink:href="#DejaVuSans-46"/>
       <use x="95.410156" xlink:href="#DejaVuSans-54"/>
      </g>
     </g>
    </g>
    <g id="ytick_5">
     <g id="line2d_19">
      <path clip-path="url(#p422310a7ec)" d="M 90 157.9822 
L 648 157.9822 
" style="fill:none;stroke:#b0b0b0;stroke-linecap:square;stroke-width:0.8;"/>
     </g>
     <g id="line2d_20">
      <g>
       <use style="stroke:#000000;stroke-width:0.8;" x="90" xlink:href="#m1ddefe5b1c" y="157.9822"/>
      </g>
     </g>
     <g id="text_11">
      <!-- 0.7 -->
      <defs>
       <path d="M 8.203125 72.90625 
L 55.078125 72.90625 
L 55.078125 68.703125 
L 28.609375 0 
L 18.3125 0 
L 43.21875 64.59375 
L 8.203125 64.59375 
z
" id="DejaVuSans-55"/>
      </defs>
      <g transform="translate(67.096875 161.781418)scale(0.1 -0.1)">
       <use xlink:href="#DejaVuSans-48"/>
       <use x="63.623047" xlink:href="#DejaVuSans-46"/>
       <use x="95.410156" xlink:href="#DejaVuSans-55"/>
      </g>
     </g>
    </g>
    <g id="ytick_6">
     <g id="line2d_21">
      <path clip-path="url(#p422310a7ec)" d="M 90 120.046031 
L 648 120.046031 
" style="fill:none;stroke:#b0b0b0;stroke-linecap:square;stroke-width:0.8;"/>
     </g>
     <g id="line2d_22">
      <g>
       <use style="stroke:#000000;stroke-width:0.8;" x="90" xlink:href="#m1ddefe5b1c" y="120.046031"/>
      </g>
     </g>
     <g id="text_12">
      <!-- 0.8 -->
      <g transform="translate(67.096875 123.84525)scale(0.1 -0.1)">
       <use xlink:href="#DejaVuSans-48"/>
       <use x="63.623047" xlink:href="#DejaVuSans-46"/>
       <use x="95.410156" xlink:href="#DejaVuSans-56"/>
      </g>
     </g>
    </g>
    <g id="ytick_7">
     <g id="line2d_23">
      <path clip-path="url(#p422310a7ec)" d="M 90 82.109863 
L 648 82.109863 
" style="fill:none;stroke:#b0b0b0;stroke-linecap:square;stroke-width:0.8;"/>
     </g>
     <g id="line2d_24">
      <g>
       <use style="stroke:#000000;stroke-width:0.8;" x="90" xlink:href="#m1ddefe5b1c" y="82.109863"/>
      </g>
     </g>
     <g id="text_13">
      <!-- 0.9 -->
      <defs>
       <path d="M 10.984375 1.515625 
L 10.984375 10.5 
Q 14.703125 8.734375 18.5 7.8125 
Q 22.3125 6.890625 25.984375 6.890625 
Q 35.75 6.890625 40.890625 13.453125 
Q 46.046875 20.015625 46.78125 33.40625 
Q 43.953125 29.203125 39.59375 26.953125 
Q 35.25 24.703125 29.984375 24.703125 
Q 19.046875 24.703125 12.671875 31.3125 
Q 6.296875 37.9375 6.296875 49.421875 
Q 6.296875 60.640625 12.9375 67.421875 
Q 19.578125 74.21875 30.609375 74.21875 
Q 43.265625 74.21875 49.921875 64.515625 
Q 56.59375 54.828125 56.59375 36.375 
Q 56.59375 19.140625 48.40625 8.859375 
Q 40.234375 -1.421875 26.421875 -1.421875 
Q 22.703125 -1.421875 18.890625 -0.6875 
Q 15.09375 0.046875 10.984375 1.515625 
z
M 30.609375 32.421875 
Q 37.25 32.421875 41.125 36.953125 
Q 45.015625 41.5 45.015625 49.421875 
Q 45.015625 57.28125 41.125 61.84375 
Q 37.25 66.40625 30.609375 66.40625 
Q 23.96875 66.40625 20.09375 61.84375 
Q 16.21875 57.28125 16.21875 49.421875 
Q 16.21875 41.5 20.09375 36.953125 
Q 23.96875 32.421875 30.609375 32.421875 
z
" id="DejaVuSans-57"/>
      </defs>
      <g transform="translate(67.096875 85.909082)scale(0.1 -0.1)">
       <use xlink:href="#DejaVuSans-48"/>
       <use x="63.623047" xlink:href="#DejaVuSans-46"/>
       <use x="95.410156" xlink:href="#DejaVuSans-57"/>
      </g>
     </g>
    </g>
    <g id="ytick_8">
     <g id="line2d_25">
      <path clip-path="url(#p422310a7ec)" d="M 90 44.173695 
L 648 44.173695 
" style="fill:none;stroke:#b0b0b0;stroke-linecap:square;stroke-width:0.8;"/>
     </g>
     <g id="line2d_26">
      <g>
       <use style="stroke:#000000;stroke-width:0.8;" x="90" xlink:href="#m1ddefe5b1c" y="44.173695"/>
      </g>
     </g>
     <g id="text_14">
      <!-- 1.0 -->
      <defs>
       <path d="M 12.40625 8.296875 
L 28.515625 8.296875 
L 28.515625 63.921875 
L 10.984375 60.40625 
L 10.984375 69.390625 
L 28.421875 72.90625 
L 38.28125 72.90625 
L 38.28125 8.296875 
L 54.390625 8.296875 
L 54.390625 0 
L 12.40625 0 
z
" id="DejaVuSans-49"/>
      </defs>
      <g transform="translate(67.096875 47.972914)scale(0.1 -0.1)">
       <use xlink:href="#DejaVuSans-49"/>
       <use x="63.623047" xlink:href="#DejaVuSans-46"/>
       <use x="95.410156" xlink:href="#DejaVuSans-48"/>
      </g>
     </g>
    </g>
    <g id="text_15">
     <!-- accuracy -->
     <defs>
      <path d="M 34.28125 27.484375 
Q 23.390625 27.484375 19.1875 25 
Q 14.984375 22.515625 14.984375 16.5 
Q 14.984375 11.71875 18.140625 8.90625 
Q 21.296875 6.109375 26.703125 6.109375 
Q 34.1875 6.109375 38.703125 11.40625 
Q 43.21875 16.703125 43.21875 25.484375 
L 43.21875 27.484375 
z
M 52.203125 31.203125 
L 52.203125 0 
L 43.21875 0 
L 43.21875 8.296875 
Q 40.140625 3.328125 35.546875 0.953125 
Q 30.953125 -1.421875 24.3125 -1.421875 
Q 15.921875 -1.421875 10.953125 3.296875 
Q 6 8.015625 6 15.921875 
Q 6 25.140625 12.171875 29.828125 
Q 18.359375 34.515625 30.609375 34.515625 
L 43.21875 34.515625 
L 43.21875 35.40625 
Q 43.21875 41.609375 39.140625 45 
Q 35.0625 48.390625 27.6875 48.390625 
Q 23 48.390625 18.546875 47.265625 
Q 14.109375 46.140625 10.015625 43.890625 
L 10.015625 52.203125 
Q 14.9375 54.109375 19.578125 55.046875 
Q 24.21875 56 28.609375 56 
Q 40.484375 56 46.34375 49.84375 
Q 52.203125 43.703125 52.203125 31.203125 
z
" id="DejaVuSans-97"/>
      <path d="M 8.5 21.578125 
L 8.5 54.6875 
L 17.484375 54.6875 
L 17.484375 21.921875 
Q 17.484375 14.15625 20.5 10.265625 
Q 23.53125 6.390625 29.59375 6.390625 
Q 36.859375 6.390625 41.078125 11.03125 
Q 45.3125 15.671875 45.3125 23.6875 
L 45.3125 54.6875 
L 54.296875 54.6875 
L 54.296875 0 
L 45.3125 0 
L 45.3125 8.40625 
Q 42.046875 3.421875 37.71875 1 
Q 33.40625 -1.421875 27.6875 -1.421875 
Q 18.265625 -1.421875 13.375 4.4375 
Q 8.5 10.296875 8.5 21.578125 
z
M 31.109375 56 
z
" id="DejaVuSans-117"/>
      <path d="M 41.109375 46.296875 
Q 39.59375 47.171875 37.8125 47.578125 
Q 36.03125 48 33.890625 48 
Q 26.265625 48 22.1875 43.046875 
Q 18.109375 38.09375 18.109375 28.8125 
L 18.109375 0 
L 9.078125 0 
L 9.078125 54.6875 
L 18.109375 54.6875 
L 18.109375 46.1875 
Q 20.953125 51.171875 25.484375 53.578125 
Q 30.03125 56 36.53125 56 
Q 37.453125 56 38.578125 55.875 
Q 39.703125 55.765625 41.0625 55.515625 
z
" id="DejaVuSans-114"/>
      <path d="M 32.171875 -5.078125 
Q 28.375 -14.84375 24.75 -17.8125 
Q 21.140625 -20.796875 15.09375 -20.796875 
L 7.90625 -20.796875 
L 7.90625 -13.28125 
L 13.1875 -13.28125 
Q 16.890625 -13.28125 18.9375 -11.515625 
Q 21 -9.765625 23.484375 -3.21875 
L 25.09375 0.875 
L 2.984375 54.6875 
L 12.5 54.6875 
L 29.59375 11.921875 
L 46.6875 54.6875 
L 56.203125 54.6875 
z
" id="DejaVuSans-121"/>
     </defs>
     <g transform="translate(61.017187 201.659375)rotate(-90)scale(0.1 -0.1)">
      <use xlink:href="#DejaVuSans-97"/>
      <use x="61.279297" xlink:href="#DejaVuSans-99"/>
      <use x="116.259766" xlink:href="#DejaVuSans-99"/>
      <use x="171.240234" xlink:href="#DejaVuSans-117"/>
      <use x="234.619141" xlink:href="#DejaVuSans-114"/>
      <use x="275.732422" xlink:href="#DejaVuSans-97"/>
      <use x="337.011719" xlink:href="#DejaVuSans-99"/>
      <use x="391.992188" xlink:href="#DejaVuSans-121"/>
     </g>
    </g>
   </g>
   <g id="line2d_27">
    <path clip-path="url(#p422310a7ec)" d="M 115.363636 289.747157 
L 115.900433 293.287866 
L 116.437229 298.219568 
L 116.974026 288.356165 
L 117.510823 296.828575 
L 118.047619 291.264604 
L 118.584416 292.782051 
L 119.121212 288.988434 
L 119.658009 294.299498 
L 120.194805 288.988434 
L 120.731602 289.49425 
L 121.268398 295.184675 
L 121.805195 296.828575 
L 122.341991 289.241342 
L 122.878788 293.667228 
L 123.952381 289.114888 
L 124.489177 289.873611 
L 125.025974 281.021839 
L 125.562771 292.149781 
L 126.636364 283.424463 
L 127.17316 286.712264 
L 127.709957 294.678859 
L 128.246753 283.298009 
L 128.78355 287.344533 
L 129.320346 277.607584 
L 129.857143 282.539285 
L 130.393939 275.963683 
L 131.467532 278.366307 
L 132.004329 281.4012 
L 132.541126 278.998576 
L 133.077922 278.619215 
L 133.614719 274.825598 
L 134.151515 276.216591 
L 134.688312 273.308151 
L 135.225108 274.699144 
L 135.761905 265.594464 
L 136.298701 268.629357 
L 136.835498 262.686024 
L 137.372294 265.46801 
L 137.909091 267.617726 
L 138.445887 263.19184 
L 138.982684 257.754322 
L 139.519481 266.100279 
L 140.593074 253.834251 
L 141.12987 255.225244 
L 141.666667 260.409854 
L 142.203463 252.696166 
L 142.74026 255.478152 
L 143.277056 247.511557 
L 143.813853 251.810989 
L 144.350649 249.787727 
L 144.887446 244.476663 
L 145.424242 244.856025 
L 146.497835 240.050777 
L 147.034632 243.844394 
L 147.571429 239.1656 
L 148.108225 237.521699 
L 149.181818 228.922834 
L 149.718615 230.946097 
L 150.255411 229.42865 
L 150.792208 225.761487 
L 151.329004 229.681558 
L 151.865801 219.438792 
L 152.402597 215.13936 
L 152.939394 214.254183 
L 153.47619 216.530353 
L 154.012987 210.966381 
L 154.549784 208.816665 
L 155.08658 209.828296 
L 156.160173 192.757021 
L 156.69697 197.94163 
L 157.233766 196.929999 
L 157.770563 187.825319 
L 158.307359 188.331134 
L 158.844156 181.37617 
L 159.380952 188.963404 
L 160.454545 175.685745 
L 160.991342 173.283121 
L 161.528139 173.409575 
L 162.064935 172.018582 
L 162.601732 166.960426 
L 163.138528 164.17844 
L 163.675325 164.17844 
L 164.212121 157.729292 
L 164.748918 160.764185 
L 165.285714 155.453122 
L 166.359307 153.429859 
L 166.896104 148.118796 
L 167.4329 151.406597 
L 167.969697 153.935675 
L 168.506494 147.233619 
L 169.04329 148.751065 
L 169.580087 147.107165 
L 170.116883 139.646385 
L 170.65368 139.140569 
L 171.190476 141.543193 
L 171.727273 136.737945 
L 172.264069 136.864399 
L 172.800866 135.59986 
L 173.337662 133.703052 
L 173.874459 134.588229 
L 174.411255 133.32369 
L 174.948052 133.95596 
L 175.484848 131.67979 
L 176.021645 131.932697 
L 176.558442 124.851279 
L 177.095238 125.483549 
L 177.632035 124.092556 
L 178.168831 122.195748 
L 178.705628 124.977733 
L 179.242424 125.736457 
L 179.779221 123.58674 
L 180.316017 123.207379 
L 180.852814 120.804755 
L 181.926407 121.689932 
L 182.463203 119.919578 
L 183 121.94284 
L 183.536797 118.655039 
L 184.073593 119.413762 
L 184.61039 116.631776 
L 185.147186 117.896315 
L 185.683983 114.734968 
L 186.220779 114.987876 
L 186.757576 110.056174 
L 187.294372 107.274188 
L 188.367965 112.964613 
L 188.904762 107.274188 
L 189.441558 110.056174 
L 189.978355 114.355606 
L 190.515152 107.527096 
L 191.051948 107.527096 
L 191.588745 109.676812 
L 192.125541 105.124472 
L 192.662338 106.389011 
L 193.199134 103.733479 
L 193.735931 104.618656 
L 194.272727 106.768373 
L 194.809524 105.503834 
L 195.34632 106.136103 
L 195.883117 100.698586 
L 196.419913 105.37738 
L 196.95671 101.204401 
L 197.493506 99.813408 
L 198.030303 103.986387 
L 199.103896 100.19277 
L 199.640693 98.801777 
L 200.177489 99.560501 
L 200.714286 98.169508 
L 201.251082 98.169508 
L 201.787879 100.572132 
L 202.324675 97.157877 
L 202.861472 100.066316 
L 203.398268 99.686954 
L 203.935065 97.284331 
L 204.471861 97.284331 
L 205.008658 96.146245 
L 205.545455 98.422416 
L 206.082251 96.146245 
L 206.619048 97.284331 
L 207.155844 92.984898 
L 207.692641 95.893338 
L 208.229437 93.111352 
L 208.766234 95.261068 
L 209.30303 94.502345 
L 209.839827 95.00816 
L 210.376623 92.605536 
L 210.91342 94.249437 
L 211.450216 90.835182 
L 211.987013 94.502345 
L 212.52381 94.502345 
L 213.060606 92.099721 
L 214.134199 93.617168 
L 214.670996 87.041565 
L 215.207792 94.628799 
L 215.744589 88.81192 
L 216.281385 89.064827 
L 216.818182 90.961636 
L 217.354978 87.547381 
L 217.891775 90.708728 
L 218.428571 88.053196 
L 218.965368 89.064827 
L 219.502165 87.547381 
L 220.038961 89.697097 
L 220.575758 90.835182 
L 221.112554 90.329366 
L 221.649351 87.673835 
L 222.186147 87.420927 
L 222.722944 90.45582 
L 223.25974 87.041565 
L 223.796537 88.559012 
L 224.333333 91.973267 
L 224.87013 86.029934 
L 225.406926 90.45582 
L 225.943723 89.317735 
L 226.480519 90.582274 
L 227.017316 85.650572 
L 227.554113 83.374402 
L 228.090909 87.547381 
L 228.627706 85.144757 
L 229.164502 89.823551 
L 229.701299 83.500856 
L 230.238095 87.547381 
L 230.774892 86.53575 
L 231.311688 88.17965 
L 231.848485 87.168019 
L 232.385281 82.868587 
L 232.922078 84.765395 
L 233.458874 87.926742 
L 233.995671 83.500856 
L 234.532468 85.650572 
L 235.069264 83.500856 
L 235.606061 85.271211 
L 236.142857 84.259579 
L 236.679654 83.753764 
L 237.21645 85.397664 
L 237.753247 82.868587 
L 238.290043 84.259579 
L 238.82684 83.880218 
L 239.363636 80.465963 
L 239.900433 84.259579 
L 240.437229 84.006672 
L 240.974026 83.62731 
L 241.510823 81.730502 
L 242.047619 82.742133 
L 242.584416 81.856955 
L 243.121212 82.362771 
L 243.658009 83.500856 
L 244.194805 82.489225 
L 244.731602 84.891849 
L 245.268398 83.121494 
L 245.805195 82.868587 
L 246.341991 80.339509 
L 246.878788 83.880218 
L 247.415584 82.109863 
L 247.952381 81.098232 
L 248.489177 85.144757 
L 249.025974 82.109863 
L 249.562771 80.971778 
L 250.099567 82.615679 
L 250.636364 81.983409 
L 251.17316 79.201424 
L 251.709957 84.765395 
L 252.246753 78.948516 
L 252.78355 80.592416 
L 253.320346 86.53575 
L 253.857143 82.489225 
L 254.393939 80.086601 
L 254.930736 80.845324 
L 255.467532 80.339509 
L 256.004329 81.35114 
L 257.077922 79.960147 
L 257.614719 82.362771 
L 258.151515 82.236317 
L 258.688312 80.845324 
L 259.225108 80.71887 
L 259.761905 82.109863 
L 260.298701 78.948516 
L 260.835498 80.592416 
L 261.372294 79.201424 
L 261.909091 80.845324 
L 262.445887 78.695608 
L 263.519481 79.833693 
L 264.056277 78.569154 
L 264.593074 78.948516 
L 265.12987 80.465963 
L 265.666667 78.822062 
L 266.203463 79.580785 
L 266.74026 77.810431 
L 267.277056 79.580785 
L 267.813853 79.707239 
L 268.350649 80.086601 
L 268.887446 78.948516 
L 269.424242 78.695608 
L 269.961039 74.775537 
L 270.497835 79.327878 
L 271.034632 76.925254 
L 271.571429 78.948516 
L 272.645022 77.936885 
L 273.181818 77.178161 
L 273.718615 79.07497 
L 274.255411 76.672346 
L 274.792208 79.201424 
L 275.329004 79.454331 
L 275.865801 79.201424 
L 276.402597 78.569154 
L 276.939394 80.465963 
L 277.47619 79.201424 
L 278.012987 79.833693 
L 278.549784 78.189793 
L 279.08658 76.16653 
L 279.623377 76.925254 
L 280.160173 77.178161 
L 280.69697 77.683977 
L 281.233766 76.7988 
L 281.770563 78.316246 
L 282.307359 79.07497 
L 282.844156 76.925254 
L 283.380952 76.040076 
L 283.917749 75.787169 
L 284.454545 76.16653 
L 284.991342 76.16653 
L 285.528139 76.292984 
L 286.064935 76.292984 
L 286.601732 75.154899 
L 287.138528 72.625821 
L 287.675325 79.707239 
L 288.212121 75.913622 
L 288.748918 77.178161 
L 289.285714 74.016814 
L 289.822511 77.051707 
L 290.359307 74.901991 
L 290.896104 76.925254 
L 291.4329 76.419438 
L 291.969697 72.499367 
L 292.506494 71.867098 
L 293.04329 76.925254 
L 293.580087 75.787169 
L 294.116883 75.660715 
L 294.65368 75.154899 
L 295.190476 71.487736 
L 295.727273 75.787169 
L 296.264069 74.396176 
L 296.800866 77.431069 
L 297.337662 76.16653 
L 297.874459 73.258091 
L 298.411255 76.16653 
L 298.948052 76.040076 
L 299.484848 76.672346 
L 300.021645 71.993552 
L 300.558442 76.7988 
L 301.095238 73.258091 
L 301.632035 77.304615 
L 302.168831 71.487736 
L 302.705628 74.775537 
L 303.242424 74.901991 
L 304.316017 73.258091 
L 304.852814 73.131637 
L 305.38961 70.602559 
L 305.926407 73.384545 
L 306.463203 74.901991 
L 307 75.281353 
L 307.536797 71.867098 
L 308.073593 73.131637 
L 308.61039 75.913622 
L 309.147186 74.52263 
L 309.683983 75.534261 
L 310.220779 72.878729 
L 310.757576 72.372913 
L 311.294372 74.775537 
L 311.831169 70.855467 
L 312.367965 70.349651 
L 312.904762 72.752275 
L 313.978355 73.384545 
L 314.515152 71.487736 
L 315.051948 73.763906 
L 315.588745 74.775537 
L 316.125541 74.52263 
L 316.662338 73.510998 
L 317.735931 71.993552 
L 318.272727 70.981921 
L 318.809524 70.729013 
L 319.883117 72.878729 
L 320.419913 75.407807 
L 321.493506 73.131637 
L 322.030303 72.246459 
L 322.5671 72.625821 
L 323.103896 73.637452 
L 323.640693 71.993552 
L 324.177489 71.361282 
L 324.714286 74.016814 
L 325.251082 73.005183 
L 325.787879 73.005183 
L 326.324675 70.729013 
L 326.861472 69.33802 
L 327.398268 69.843835 
L 327.935065 73.384545 
L 328.471861 72.752275 
L 329.008658 71.487736 
L 329.545455 71.234828 
L 330.082251 68.832204 
L 330.619048 70.476105 
L 331.155844 70.602559 
L 331.692641 76.672346 
L 332.229437 70.476105 
L 332.766234 71.993552 
L 333.30303 72.625821 
L 333.839827 69.085112 
L 334.376623 71.234828 
L 334.91342 68.199935 
L 336.52381 72.625821 
L 337.060606 69.970289 
L 337.597403 72.246459 
L 338.134199 71.487736 
L 338.670996 69.085112 
L 339.207792 68.70575 
L 339.744589 69.33802 
L 340.281385 67.820573 
L 340.818182 72.499367 
L 341.354978 71.234828 
L 341.891775 69.33802 
L 342.428571 70.729013 
L 343.502165 71.234828 
L 344.038961 69.33802 
L 344.575758 69.33802 
L 345.112554 66.682488 
L 345.649351 71.487736 
L 346.186147 69.464474 
L 346.722944 69.590928 
L 347.25974 71.993552 
L 347.796537 69.464474 
L 348.333333 69.211566 
L 348.87013 68.832204 
L 349.406926 69.085112 
L 349.943723 69.211566 
L 350.480519 68.073481 
L 351.017316 68.70575 
L 351.554113 67.567665 
L 352.090909 69.970289 
L 352.627706 70.349651 
L 353.164502 71.234828 
L 353.701299 69.211566 
L 354.238095 69.590928 
L 354.774892 67.314758 
L 355.848485 70.349651 
L 356.385281 69.717382 
L 356.922078 69.970289 
L 357.458874 68.326389 
L 357.995671 70.476105 
L 358.532468 68.073481 
L 359.069264 71.867098 
L 359.606061 67.188304 
L 360.142857 68.70575 
L 360.679654 65.544403 
L 361.21645 68.073481 
L 361.753247 67.441212 
L 362.290043 68.326389 
L 362.82684 68.958658 
L 363.363636 70.476105 
L 363.900433 70.476105 
L 364.437229 67.314758 
L 364.974026 65.670857 
L 365.510823 68.958658 
L 366.047619 68.70575 
L 367.121212 70.349651 
L 367.658009 68.579297 
L 368.194805 67.694119 
L 368.731602 71.487736 
L 369.805195 64.912134 
L 370.341991 68.073481 
L 370.878788 67.441212 
L 371.415584 72.246459 
L 371.952381 66.935396 
L 372.489177 67.188304 
L 373.025974 70.476105 
L 373.562771 67.06185 
L 374.099567 68.958658 
L 374.636364 67.314758 
L 375.17316 69.464474 
L 375.709957 67.694119 
L 376.246753 66.42958 
L 377.320346 69.717382 
L 377.857143 67.314758 
L 378.393939 68.326389 
L 378.930736 69.085112 
L 379.467532 67.947027 
L 380.004329 65.544403 
L 380.541126 66.556034 
L 381.077922 68.326389 
L 381.614719 66.176673 
L 382.151515 67.694119 
L 382.688312 65.923765 
L 383.225108 65.670857 
L 383.761905 69.211566 
L 384.298701 68.326389 
L 384.835498 65.165041 
L 385.372294 67.567665 
L 385.909091 67.441212 
L 386.982684 68.70575 
L 387.519481 67.567665 
L 388.056277 65.417949 
L 388.593074 66.808942 
L 389.12987 68.958658 
L 389.666667 67.820573 
L 390.203463 67.567665 
L 390.74026 66.176673 
L 391.277056 66.935396 
L 391.813853 68.958658 
L 392.350649 64.406318 
L 392.887446 66.682488 
L 393.424242 66.050219 
L 394.497835 67.06185 
L 395.034632 70.096743 
L 395.571429 63.141779 
L 396.108225 68.832204 
L 396.645022 67.188304 
L 397.181818 66.42958 
L 397.718615 67.694119 
L 398.255411 67.567665 
L 398.792208 67.188304 
L 399.329004 65.165041 
L 399.865801 66.556034 
L 400.402597 66.682488 
L 400.939394 68.199935 
L 401.47619 65.417949 
L 402.012987 67.188304 
L 402.549784 67.567665 
L 403.623377 66.556034 
L 404.160173 64.659226 
L 404.69697 65.797311 
L 405.233766 70.096743 
L 405.770563 65.417949 
L 406.307359 69.590928 
L 406.844156 65.923765 
L 407.380952 65.797311 
L 407.917749 65.797311 
L 408.454545 65.165041 
L 408.991342 66.050219 
L 409.528139 65.038588 
L 410.064935 67.06185 
L 410.601732 63.268233 
L 411.138528 65.417949 
L 411.675325 66.303126 
L 412.212121 68.073481 
L 412.748918 64.532772 
L 413.285714 66.176673 
L 413.822511 63.394687 
L 414.896104 68.073481 
L 415.4329 65.165041 
L 415.969697 70.602559 
L 416.506494 66.682488 
L 417.04329 67.06185 
L 417.580087 68.199935 
L 418.116883 65.544403 
L 418.65368 65.417949 
L 419.190476 65.797311 
L 419.727273 66.682488 
L 420.264069 65.544403 
L 420.800866 65.291495 
L 421.337662 66.176673 
L 421.874459 63.141779 
L 422.411255 65.670857 
L 422.948052 63.774049 
L 423.484848 64.912134 
L 424.021645 63.774049 
L 425.095238 67.314758 
L 425.632035 65.923765 
L 426.168831 66.935396 
L 426.705628 64.78568 
L 427.242424 64.279864 
L 427.779221 65.038588 
L 428.316017 64.279864 
L 428.852814 65.923765 
L 429.38961 63.015325 
L 429.926407 66.935396 
L 430.463203 64.912134 
L 431 64.532772 
L 431.536797 64.78568 
L 432.073593 63.900502 
L 432.61039 64.279864 
L 433.147186 65.670857 
L 433.683983 68.832204 
L 434.220779 64.532772 
L 434.757576 65.544403 
L 435.294372 62.762417 
L 435.831169 65.165041 
L 436.367965 66.303126 
L 436.904762 64.406318 
L 437.441558 65.923765 
L 437.978355 63.774049 
L 438.515152 62.383056 
L 439.051948 65.670857 
L 439.588745 65.417949 
L 440.125541 63.774049 
L 440.662338 63.394687 
L 441.199134 62.130148 
L 441.735931 66.303126 
L 442.809524 63.521141 
L 443.34632 64.912134 
L 443.883117 64.659226 
L 444.419913 65.417949 
L 444.95671 67.820573 
L 445.493506 64.78568 
L 446.030303 64.026956 
L 446.5671 62.130148 
L 447.640693 65.923765 
L 448.177489 62.003694 
L 448.714286 66.303126 
L 449.251082 65.417949 
L 449.787879 63.647595 
L 450.324675 65.038588 
L 451.935065 63.394687 
L 452.471861 62.635964 
L 453.008658 63.647595 
L 453.545455 63.015325 
L 454.082251 64.406318 
L 455.155844 64.15341 
L 455.692641 62.50951 
L 456.229437 63.268233 
L 456.766234 61.497878 
L 457.30303 66.303126 
L 457.839827 62.888871 
L 458.376623 62.130148 
L 458.91342 63.141779 
L 459.450216 63.647595 
L 459.987013 61.87724 
L 460.52381 63.394687 
L 461.060606 60.359793 
L 461.597403 62.762417 
L 462.134199 62.130148 
L 462.670996 64.406318 
L 463.207792 64.659226 
L 463.744589 65.797311 
L 464.281385 63.774049 
L 464.818182 62.635964 
L 465.354978 63.521141 
L 465.891775 62.888871 
L 466.965368 62.383056 
L 467.502165 62.635964 
L 468.038961 63.268233 
L 468.575758 62.635964 
L 469.112554 62.383056 
L 469.649351 62.762417 
L 470.722944 65.291495 
L 471.25974 63.015325 
L 471.796537 63.900502 
L 472.333333 63.268233 
L 472.87013 63.141779 
L 473.406926 63.394687 
L 473.943723 61.750786 
L 474.480519 63.521141 
L 475.554113 61.497878 
L 476.090909 63.647595 
L 476.627706 62.130148 
L 477.164502 62.762417 
L 477.701299 62.130148 
L 478.238095 62.635964 
L 478.774892 63.900502 
L 479.311688 62.383056 
L 480.385281 64.912134 
L 480.922078 64.15341 
L 481.458874 59.980432 
L 481.995671 64.15341 
L 482.532468 63.015325 
L 483.069264 62.762417 
L 483.606061 60.359793 
L 484.142857 61.244971 
L 484.679654 65.417949 
L 485.21645 63.521141 
L 485.753247 65.165041 
L 486.290043 62.256602 
L 486.82684 64.026956 
L 487.363636 64.026956 
L 487.900433 66.42958 
L 488.437229 63.141779 
L 488.974026 60.865609 
L 489.510823 63.521141 
L 490.047619 63.015325 
L 490.584416 64.15341 
L 491.121212 63.141779 
L 491.658009 61.371425 
L 492.194805 64.659226 
L 492.731602 62.50951 
L 493.268398 63.900502 
L 493.805195 61.87724 
L 494.341991 63.015325 
L 494.878788 62.762417 
L 495.415584 61.244971 
L 495.952381 65.165041 
L 496.489177 62.383056 
L 497.025974 64.15341 
L 497.562771 64.026956 
L 498.099567 61.87724 
L 498.636364 63.647595 
L 499.17316 60.865609 
L 499.709957 61.87724 
L 500.246753 59.853978 
L 500.78355 60.23334 
L 501.320346 63.015325 
L 501.857143 61.371425 
L 502.393939 60.612701 
L 502.930736 63.015325 
L 503.467532 61.497878 
L 504.004329 61.244971 
L 504.541126 63.521141 
L 505.077922 60.992063 
L 505.614719 64.78568 
L 506.151515 62.762417 
L 506.688312 63.647595 
L 507.225108 62.635964 
L 507.761905 60.486247 
L 508.298701 62.635964 
L 508.835498 63.268233 
L 509.372294 62.50951 
L 509.909091 61.371425 
L 510.445887 60.612701 
L 510.982684 61.244971 
L 511.519481 62.256602 
L 512.056277 59.221708 
L 512.593074 64.279864 
L 513.12987 63.141779 
L 513.666667 61.624332 
L 514.203463 63.141779 
L 514.74026 60.612701 
L 515.277056 62.762417 
L 515.813853 63.647595 
L 516.350649 63.521141 
L 516.887446 63.015325 
L 517.424242 62.003694 
L 517.961039 63.394687 
L 518.497835 62.888871 
L 519.034632 63.394687 
L 519.571429 61.118517 
L 520.108225 60.23334 
L 520.645022 62.383056 
L 521.181818 61.497878 
L 521.718615 62.635964 
L 522.255411 60.359793 
L 522.792208 61.118517 
L 523.329004 61.371425 
L 524.402597 62.888871 
L 524.939394 62.256602 
L 526.012987 60.106886 
L 526.549784 60.739155 
L 527.08658 60.359793 
L 527.623377 63.774049 
L 528.160173 62.256602 
L 528.69697 59.348162 
L 529.233766 60.865609 
L 529.770563 60.486247 
L 530.307359 61.750786 
L 531.380952 61.118517 
L 531.917749 61.118517 
L 532.454545 62.130148 
L 532.991342 60.992063 
L 533.528139 60.23334 
L 534.064935 59.980432 
L 534.601732 62.383056 
L 535.138528 60.865609 
L 535.675325 60.865609 
L 536.212121 58.462985 
L 536.748918 61.497878 
L 537.285714 61.118517 
L 537.822511 60.359793 
L 538.359307 61.244971 
L 538.896104 59.095254 
L 539.4329 59.980432 
L 539.969697 59.853978 
L 540.506494 60.486247 
L 541.04329 61.750786 
L 541.580087 61.497878 
L 542.116883 60.486247 
L 542.65368 59.221708 
L 543.190476 57.451354 
L 543.727273 59.60107 
L 544.264069 57.3249 
L 544.800866 57.704262 
L 545.337662 62.003694 
L 545.874459 59.980432 
L 546.411255 59.980432 
L 546.948052 60.359793 
L 547.484848 62.130148 
L 548.021645 59.727524 
L 548.558442 62.256602 
L 549.095238 61.118517 
L 549.632035 63.268233 
L 550.168831 57.577808 
L 550.705628 60.23334 
L 551.242424 61.371425 
L 551.779221 58.968801 
L 552.316017 62.130148 
L 552.852814 58.083623 
L 553.38961 61.371425 
L 553.926407 59.221708 
L 554.463203 61.497878 
L 555.536797 60.23334 
L 556.073593 61.624332 
L 556.61039 58.589439 
L 557.147186 58.842347 
L 557.683983 61.750786 
L 558.220779 61.118517 
L 558.757576 59.221708 
L 559.294372 60.486247 
L 559.831169 60.739155 
L 560.367965 59.727524 
L 560.904762 60.486247 
L 561.441558 59.474616 
L 561.978355 60.23334 
L 562.515152 58.968801 
L 563.051948 60.359793 
L 563.588745 59.095254 
L 564.125541 60.612701 
L 565.199134 59.853978 
L 565.735931 61.497878 
L 566.272727 59.853978 
L 566.809524 59.095254 
L 567.34632 60.23334 
L 567.883117 58.842347 
L 568.419913 58.715893 
L 568.95671 61.497878 
L 569.493506 58.968801 
L 570.030303 59.221708 
L 570.5671 63.521141 
L 571.103896 60.739155 
L 571.640693 62.635964 
L 572.177489 58.083623 
L 572.714286 58.968801 
L 573.251082 58.968801 
L 573.787879 59.095254 
L 574.324675 58.462985 
L 574.861472 60.992063 
L 575.398268 58.968801 
L 575.935065 60.992063 
L 576.471861 60.106886 
L 577.008658 60.23334 
L 577.545455 60.992063 
L 578.082251 57.451354 
L 578.619048 58.462985 
L 579.155844 58.462985 
L 579.692641 61.118517 
L 580.229437 59.853978 
L 580.766234 60.486247 
L 581.30303 58.842347 
L 581.839827 58.462985 
L 582.376623 58.715893 
L 582.91342 57.451354 
L 583.450216 56.819084 
L 583.987013 59.348162 
L 584.52381 59.980432 
L 585.060606 60.359793 
L 585.597403 57.957169 
L 586.134199 59.221708 
L 586.670996 61.118517 
L 587.207792 61.497878 
L 587.744589 60.992063 
L 588.281385 58.336531 
L 589.354978 59.853978 
L 589.891775 58.083623 
L 590.428571 60.612701 
L 590.965368 56.439723 
L 592.038961 61.371425 
L 592.575758 60.612701 
L 593.112554 58.842347 
L 593.649351 57.830716 
L 594.186147 59.60107 
L 594.722944 60.23334 
L 595.25974 58.968801 
L 596.333333 60.359793 
L 596.87013 59.727524 
L 597.943723 58.842347 
L 598.480519 57.830716 
L 599.017316 60.865609 
L 599.554113 57.071992 
L 600.090909 59.474616 
L 600.627706 58.715893 
L 601.164502 58.462985 
L 601.701299 59.727524 
L 602.238095 59.980432 
L 602.774892 58.968801 
L 603.311688 59.60107 
L 603.848485 59.60107 
L 604.385281 58.589439 
L 604.922078 59.348162 
L 605.458874 59.474616 
L 605.995671 57.071992 
L 606.532468 60.106886 
L 607.069264 58.210077 
L 607.606061 57.451354 
L 608.142857 59.348162 
L 608.679654 59.221708 
L 609.21645 58.462985 
L 609.753247 59.348162 
L 610.82684 58.589439 
L 611.363636 59.980432 
L 611.900433 58.589439 
L 612.437229 60.865609 
L 612.974026 59.095254 
L 613.510823 56.692631 
L 614.047619 58.083623 
L 614.584416 55.554545 
L 615.121212 58.968801 
L 615.658009 59.980432 
L 616.194805 60.106886 
L 616.731602 58.210077 
L 617.268398 59.853978 
L 617.805195 57.577808 
L 618.341991 57.451354 
L 618.878788 58.842347 
L 619.415584 58.336531 
L 619.952381 58.462985 
L 620.489177 58.336531 
L 621.025974 60.486247 
L 622.099567 57.957169 
L 622.636364 59.727524 
L 622.636364 59.727524 
" style="fill:none;stroke:#1f77b4;stroke-linecap:square;stroke-width:0.5;"/>
   </g>
   <g id="line2d_28">
    <path clip-path="url(#p422310a7ec)" d="M 115.363636 294.425951 
L 115.900433 302.645455 
L 116.437229 294.931767 
L 116.974026 298.472476 
L 117.510823 293.41432 
L 118.047619 294.299498 
L 118.584416 296.955029 
L 119.121212 302.013185 
L 119.658009 293.034959 
L 120.194805 297.96666 
L 120.731602 291.77042 
L 121.268398 296.828575 
L 121.805195 291.011696 
L 122.341991 292.908505 
L 122.878788 291.13815 
L 123.415584 294.173044 
L 123.952381 294.299498 
L 124.489177 291.896874 
L 125.025974 287.976803 
L 125.562771 293.667228 
L 127.17316 290.252973 
L 127.709957 290.758788 
L 128.78355 285.700633 
L 129.320346 291.011696 
L 129.857143 285.068363 
L 130.393939 283.67737 
L 130.930736 285.068363 
L 131.467532 287.091626 
L 132.004329 281.148293 
L 132.541126 285.827087 
L 133.077922 287.218079 
L 134.151515 279.377938 
L 134.688312 281.654108 
L 135.225108 274.699144 
L 135.761905 279.377938 
L 136.298701 274.193328 
L 136.835498 272.043612 
L 137.372294 276.84886 
L 137.909091 271.031981 
L 138.445887 272.928789 
L 138.982684 269.640988 
L 139.519481 271.917158 
L 140.056277 269.38808 
L 140.593074 265.215102 
L 141.12987 265.088648 
L 141.666667 263.444747 
L 142.203463 262.433116 
L 142.74026 259.271769 
L 143.277056 265.847371 
L 143.813853 265.215102 
L 144.350649 252.190351 
L 144.887446 247.511557 
L 145.424242 251.305174 
L 145.961039 246.373472 
L 147.034632 248.776096 
L 147.571429 243.844394 
L 148.108225 244.729571 
L 148.645022 242.832763 
L 149.181818 244.603117 
L 149.718615 233.475174 
L 150.255411 231.325458 
L 150.792208 233.475174 
L 151.865801 224.749856 
L 152.402597 222.094324 
L 152.939394 218.300707 
L 153.47619 210.58702 
L 154.012987 215.392268 
L 155.08658 207.805034 
L 155.623377 209.322481 
L 156.160173 199.964893 
L 156.69697 200.344254 
L 157.233766 198.700354 
L 157.770563 198.953261 
L 158.307359 192.630567 
L 159.380952 185.802056 
L 159.917749 184.663971 
L 160.454545 178.467731 
L 160.991342 177.203192 
L 161.528139 170.880497 
L 162.064935 176.697376 
L 162.601732 170.754043 
L 163.138528 174.800568 
L 163.675325 168.604327 
L 164.212121 166.201703 
L 164.748918 161.775817 
L 165.285714 165.569433 
L 165.822511 159.246739 
L 167.4329 152.544682 
L 167.969697 154.694398 
L 168.506494 152.418228 
L 169.04329 152.291774 
L 169.580087 155.958937 
L 170.116883 150.647874 
L 170.65368 149.762697 
L 171.190476 145.589718 
L 171.727273 145.33681 
L 172.264069 142.049009 
L 172.800866 143.187094 
L 173.337662 140.658016 
L 174.411255 137.876031 
L 174.948052 136.990853 
L 175.484848 140.531562 
L 176.021645 136.864399 
L 176.558442 130.668159 
L 177.095238 132.059151 
L 177.632035 130.415251 
L 178.168831 130.541705 
L 178.705628 133.703052 
L 179.242424 127.506811 
L 179.779221 128.391988 
L 180.316017 124.977733 
L 180.852814 131.932697 
L 181.38961 126.242272 
L 181.926407 126.115818 
L 182.463203 124.724826 
L 183 124.092556 
L 183.536797 124.21901 
L 184.073593 120.046031 
L 184.61039 121.057663 
L 185.147186 119.160854 
L 185.683983 118.907946 
L 186.220779 119.0344 
L 186.757576 120.298939 
L 187.294372 117.3905 
L 187.831169 117.643407 
L 188.367965 119.160854 
L 188.904762 116.125961 
L 189.441558 115.620145 
L 189.978355 115.746599 
L 190.515152 114.987876 
L 191.051948 109.550358 
L 191.588745 111.826528 
L 192.125541 111.447167 
L 193.199134 110.309082 
L 193.735931 110.309082 
L 194.272727 112.458798 
L 194.809524 106.515465 
L 195.34632 109.29745 
L 195.883117 108.159365 
L 196.419913 108.285819 
L 196.95671 106.009649 
L 197.493506 108.285819 
L 198.030303 106.136103 
L 198.5671 107.527096 
L 199.103896 104.998018 
L 199.640693 107.400642 
L 200.177489 102.848302 
L 200.714286 104.492202 
L 201.251082 103.227664 
L 201.787879 104.618656 
L 202.324675 103.986387 
L 202.861472 103.859933 
L 203.935065 102.595394 
L 204.471861 100.572132 
L 205.008658 104.239295 
L 205.545455 100.82504 
L 206.082251 102.974756 
L 206.619048 98.422416 
L 207.155844 99.054685 
L 207.692641 102.848302 
L 208.229437 100.319224 
L 208.766234 102.848302 
L 209.30303 101.204401 
L 209.839827 97.9166 
L 210.376623 96.652061 
L 210.91342 96.778515 
L 211.450216 100.82504 
L 211.987013 97.9166 
L 212.52381 101.710217 
L 213.060606 102.595394 
L 213.597403 98.422416 
L 214.134199 98.169508 
L 214.670996 96.525607 
L 215.207792 99.307593 
L 215.744589 99.307593 
L 216.281385 101.836671 
L 216.818182 96.904969 
L 217.354978 100.19277 
L 217.891775 95.261068 
L 218.428571 93.996529 
L 218.965368 93.743621 
L 219.502165 93.237806 
L 220.038961 99.434047 
L 220.575758 98.043054 
L 221.112554 94.502345 
L 221.649351 96.272699 
L 222.186147 96.399153 
L 222.722944 94.122983 
L 223.25974 98.043054 
L 224.333333 91.846813 
L 224.87013 94.755253 
L 225.406926 95.134614 
L 225.943723 94.375891 
L 226.480519 91.593905 
L 227.017316 96.652061 
L 227.554113 93.743621 
L 228.090909 92.858444 
L 228.627706 90.582274 
L 229.164502 92.479083 
L 229.701299 93.111352 
L 230.238095 93.237806 
L 230.774892 92.226175 
L 231.311688 90.708728 
L 231.848485 90.582274 
L 232.385281 96.019792 
L 232.922078 90.961636 
L 233.458874 89.697097 
L 233.995671 87.673835 
L 234.532468 88.559012 
L 235.069264 93.743621 
L 235.606061 93.237806 
L 236.142857 89.570643 
L 237.21645 93.996529 
L 237.753247 90.961636 
L 238.290043 93.237806 
L 238.82684 94.249437 
L 239.363636 88.559012 
L 239.900433 90.202912 
L 240.437229 87.547381 
L 240.974026 89.697097 
L 241.510823 89.697097 
L 242.047619 90.835182 
L 242.584416 93.237806 
L 243.121212 89.697097 
L 243.658009 89.317735 
L 244.194805 92.099721 
L 244.731602 91.214544 
L 245.268398 87.673835 
L 245.805195 88.81192 
L 246.341991 92.984898 
L 247.415584 88.559012 
L 247.952381 93.996529 
L 248.489177 88.559012 
L 249.025974 90.45582 
L 250.099567 87.420927 
L 250.636364 91.593905 
L 251.17316 92.605536 
L 252.246753 86.029934 
L 252.78355 91.467451 
L 253.320346 91.340997 
L 253.857143 89.064827 
L 254.393939 89.191281 
L 254.930736 94.881707 
L 255.467532 87.041565 
L 256.004329 87.673835 
L 256.541126 85.650572 
L 257.077922 90.835182 
L 257.614719 89.064827 
L 258.151515 88.559012 
L 258.688312 88.938373 
L 259.225108 90.202912 
L 259.761905 90.708728 
L 260.298701 90.076459 
L 260.835498 88.938373 
L 261.372294 85.524118 
L 261.909091 87.673835 
L 262.445887 87.800288 
L 262.982684 89.697097 
L 263.519481 86.662203 
L 264.056277 86.282842 
L 264.593074 88.432558 
L 265.12987 87.673835 
L 265.666667 88.559012 
L 266.74026 85.90348 
L 267.277056 87.800288 
L 267.813853 87.800288 
L 268.350649 83.121494 
L 268.887446 88.306104 
L 269.424242 90.835182 
L 269.961039 84.386033 
L 270.497835 83.374402 
L 271.034632 83.247948 
L 271.571429 89.570643 
L 272.108225 90.076459 
L 272.645022 88.81192 
L 273.181818 89.064827 
L 273.718615 85.777026 
L 274.255411 87.547381 
L 274.792208 86.662203 
L 275.329004 87.926742 
L 275.865801 86.282842 
L 276.402597 87.420927 
L 276.939394 86.029934 
L 277.47619 85.777026 
L 278.549784 87.926742 
L 279.623377 83.500856 
L 280.160173 87.800288 
L 280.69697 86.156388 
L 281.233766 89.570643 
L 281.770563 84.891849 
L 282.307359 88.81192 
L 282.844156 83.880218 
L 283.380952 88.685466 
L 283.917749 87.673835 
L 284.454545 85.777026 
L 284.991342 86.409296 
L 285.528139 86.662203 
L 286.064935 86.788657 
L 286.601732 86.53575 
L 287.138528 87.420927 
L 287.675325 84.133126 
L 288.212121 83.62731 
L 288.748918 86.029934 
L 289.285714 85.777026 
L 289.822511 87.673835 
L 290.359307 87.168019 
L 290.896104 84.386033 
L 291.4329 86.029934 
L 291.969697 84.765395 
L 292.506494 86.53575 
L 293.04329 86.029934 
L 293.580087 85.777026 
L 294.116883 84.512487 
L 294.65368 85.777026 
L 295.190476 85.524118 
L 295.727273 87.547381 
L 296.264069 85.524118 
L 296.800866 84.512487 
L 297.337662 85.144757 
L 297.874459 82.99504 
L 298.411255 86.282842 
L 298.948052 85.018303 
L 299.484848 85.650572 
L 300.021645 82.236317 
L 300.558442 86.029934 
L 301.095238 86.156388 
L 301.632035 87.800288 
L 302.168831 85.397664 
L 302.705628 86.282842 
L 303.242424 83.374402 
L 304.316017 82.615679 
L 304.852814 84.386033 
L 305.38961 87.168019 
L 305.926407 85.777026 
L 306.463203 85.524118 
L 307 86.282842 
L 308.073593 81.224686 
L 308.61039 85.018303 
L 309.683983 82.489225 
L 310.220779 83.374402 
L 310.757576 82.742133 
L 311.294372 82.742133 
L 311.831169 83.753764 
L 312.367965 82.236317 
L 312.904762 81.35114 
L 313.441558 81.730502 
L 313.978355 83.753764 
L 314.515152 80.845324 
L 315.051948 86.409296 
L 315.588745 80.971778 
L 316.125541 83.121494 
L 316.662338 85.777026 
L 317.199134 83.62731 
L 317.735931 83.121494 
L 318.809524 85.90348 
L 319.34632 83.374402 
L 319.883117 82.362771 
L 320.419913 82.362771 
L 320.95671 83.880218 
L 321.493506 86.662203 
L 322.030303 82.742133 
L 322.5671 86.029934 
L 323.103896 84.386033 
L 323.640693 80.465963 
L 324.177489 84.259579 
L 324.714286 83.121494 
L 325.251082 80.592416 
L 325.787879 78.948516 
L 326.324675 83.374402 
L 326.861472 83.121494 
L 327.398268 80.71887 
L 327.935065 85.397664 
L 328.471861 80.971778 
L 329.008658 85.144757 
L 329.545455 81.098232 
L 330.082251 82.236317 
L 330.619048 80.71887 
L 331.155844 83.374402 
L 331.692641 82.109863 
L 332.229437 83.247948 
L 332.766234 83.753764 
L 333.30303 83.121494 
L 333.839827 82.868587 
L 334.91342 80.213055 
L 335.450216 84.765395 
L 335.987013 82.236317 
L 336.52381 84.259579 
L 337.060606 83.500856 
L 337.597403 81.098232 
L 338.134199 82.99504 
L 338.670996 81.856955 
L 339.744589 83.880218 
L 340.281385 78.822062 
L 340.818182 80.086601 
L 341.354978 81.730502 
L 341.891775 82.99504 
L 342.428571 82.362771 
L 342.965368 82.236317 
L 343.502165 82.489225 
L 344.038961 81.35114 
L 345.112554 82.236317 
L 345.649351 80.971778 
L 346.186147 80.845324 
L 346.722944 82.615679 
L 347.25974 80.592416 
L 347.796537 80.71887 
L 348.333333 83.121494 
L 349.943723 80.71887 
L 350.480519 79.833693 
L 351.017316 81.224686 
L 351.554113 80.971778 
L 352.090909 82.362771 
L 352.627706 81.730502 
L 353.164502 77.178161 
L 353.701299 82.742133 
L 354.238095 83.753764 
L 354.774892 80.845324 
L 355.311688 81.35114 
L 355.848485 80.592416 
L 356.385281 80.592416 
L 356.922078 80.339509 
L 357.458874 80.71887 
L 357.995671 80.845324 
L 358.532468 81.730502 
L 359.069264 78.948516 
L 359.606061 80.465963 
L 360.142857 81.477594 
L 360.679654 81.477594 
L 361.21645 81.856955 
L 361.753247 82.489225 
L 362.290043 82.742133 
L 362.82684 82.615679 
L 363.363636 80.465963 
L 363.900433 82.615679 
L 364.437229 81.35114 
L 364.974026 83.247948 
L 365.510823 82.99504 
L 366.047619 81.604048 
L 366.584416 84.638941 
L 367.121212 82.489225 
L 367.658009 81.856955 
L 368.194805 84.891849 
L 368.731602 80.971778 
L 369.268398 83.753764 
L 369.805195 84.386033 
L 370.341991 80.592416 
L 370.878788 81.098232 
L 371.415584 82.742133 
L 371.952381 81.983409 
L 372.489177 82.236317 
L 373.025974 83.62731 
L 373.562771 80.086601 
L 374.099567 81.098232 
L 374.636364 78.822062 
L 375.17316 83.247948 
L 375.709957 79.07497 
L 376.246753 79.454331 
L 376.78355 80.086601 
L 377.320346 79.07497 
L 377.857143 77.431069 
L 378.393939 81.35114 
L 378.930736 78.948516 
L 379.467532 78.4427 
L 380.004329 80.086601 
L 380.541126 78.316246 
L 381.077922 78.822062 
L 381.614719 80.71887 
L 382.151515 79.833693 
L 383.225108 80.971778 
L 383.761905 79.833693 
L 384.298701 79.707239 
L 384.835498 77.683977 
L 385.372294 80.71887 
L 385.909091 79.580785 
L 386.445887 79.201424 
L 386.982684 81.224686 
L 387.519481 82.489225 
L 388.056277 81.604048 
L 388.593074 78.948516 
L 389.12987 81.35114 
L 389.666667 81.098232 
L 390.203463 81.983409 
L 391.277056 81.730502 
L 391.813853 79.833693 
L 392.350649 79.454331 
L 392.887446 81.856955 
L 393.424242 79.833693 
L 393.961039 81.098232 
L 394.497835 80.339509 
L 395.034632 78.948516 
L 395.571429 79.201424 
L 396.108225 80.213055 
L 396.645022 79.454331 
L 397.181818 81.477594 
L 397.718615 80.213055 
L 398.255411 79.327878 
L 398.792208 80.592416 
L 399.329004 76.925254 
L 399.865801 81.098232 
L 400.402597 79.707239 
L 400.939394 79.201424 
L 401.47619 82.236317 
L 402.012987 80.845324 
L 402.549784 79.960147 
L 403.08658 76.16653 
L 404.160173 81.224686 
L 404.69697 80.592416 
L 405.233766 78.569154 
L 405.770563 80.213055 
L 406.307359 79.707239 
L 406.844156 80.213055 
L 407.380952 79.707239 
L 407.917749 79.833693 
L 408.454545 78.4427 
L 408.991342 80.465963 
L 409.528139 77.178161 
L 410.064935 79.960147 
L 410.601732 81.477594 
L 411.138528 79.454331 
L 411.675325 79.07497 
L 412.212121 80.971778 
L 412.748918 81.604048 
L 413.285714 81.730502 
L 413.822511 78.695608 
L 414.359307 78.189793 
L 414.896104 77.304615 
L 415.4329 79.07497 
L 415.969697 80.213055 
L 416.506494 82.615679 
L 417.04329 80.465963 
L 417.580087 79.327878 
L 418.116883 80.339509 
L 418.65368 83.500856 
L 419.190476 79.07497 
L 420.264069 82.109863 
L 420.800866 81.224686 
L 421.337662 81.983409 
L 421.874459 81.098232 
L 422.411255 81.477594 
L 422.948052 80.465963 
L 423.484848 79.833693 
L 424.021645 79.960147 
L 424.558442 76.419438 
L 425.095238 76.292984 
L 425.632035 80.086601 
L 426.168831 80.71887 
L 426.705628 80.971778 
L 427.242424 80.086601 
L 427.779221 78.189793 
L 428.316017 79.327878 
L 428.852814 79.833693 
L 429.38961 79.201424 
L 429.926407 77.683977 
L 430.463203 78.316246 
L 431 79.580785 
L 431.536797 78.189793 
L 432.073593 77.178161 
L 432.61039 77.810431 
L 433.147186 79.960147 
L 433.683983 79.580785 
L 434.220779 78.948516 
L 434.757576 79.960147 
L 435.294372 80.086601 
L 435.831169 79.201424 
L 436.367965 76.7988 
L 436.904762 77.431069 
L 437.441558 78.948516 
L 437.978355 80.086601 
L 438.515152 78.695608 
L 439.051948 75.913622 
L 439.588745 76.925254 
L 440.125541 79.833693 
L 440.662338 78.189793 
L 441.199134 78.695608 
L 441.735931 77.178161 
L 442.272727 77.683977 
L 442.809524 80.592416 
L 443.34632 76.16653 
L 443.883117 79.960147 
L 444.419913 80.086601 
L 444.95671 78.4427 
L 445.493506 79.07497 
L 446.030303 78.4427 
L 446.5671 78.695608 
L 447.103896 78.569154 
L 447.640693 76.925254 
L 448.177489 77.178161 
L 448.714286 80.845324 
L 449.251082 83.62731 
L 449.787879 78.948516 
L 450.324675 78.948516 
L 450.861472 80.592416 
L 451.398268 79.201424 
L 451.935065 85.144757 
L 453.008658 77.810431 
L 453.545455 80.086601 
L 454.082251 80.71887 
L 454.619048 77.810431 
L 455.155844 82.236317 
L 455.692641 77.304615 
L 456.229437 78.063339 
L 456.766234 79.580785 
L 457.30303 79.07497 
L 457.839827 75.787169 
L 458.91342 78.948516 
L 459.450216 78.948516 
L 459.987013 76.7988 
L 460.52381 77.557523 
L 461.060606 77.683977 
L 461.597403 80.086601 
L 462.134199 76.16653 
L 463.207792 78.948516 
L 464.281385 75.534261 
L 464.818182 80.845324 
L 465.354978 76.7988 
L 465.891775 76.925254 
L 466.428571 78.948516 
L 466.965368 79.454331 
L 467.502165 79.201424 
L 468.038961 78.4427 
L 468.575758 80.339509 
L 469.112554 78.063339 
L 469.649351 78.4427 
L 470.186147 76.16653 
L 470.722944 78.569154 
L 471.25974 78.822062 
L 471.796537 78.316246 
L 472.333333 79.580785 
L 472.87013 75.660715 
L 473.406926 79.327878 
L 473.943723 79.327878 
L 474.480519 78.948516 
L 475.554113 76.419438 
L 476.090909 79.201424 
L 476.627706 79.833693 
L 477.164502 80.086601 
L 477.701299 76.925254 
L 478.238095 78.316246 
L 478.774892 79.201424 
L 479.311688 77.936885 
L 479.848485 80.339509 
L 480.385281 80.592416 
L 481.458874 76.7988 
L 481.995671 77.051707 
L 482.532468 78.569154 
L 483.606061 77.431069 
L 484.142857 77.431069 
L 484.679654 79.327878 
L 485.21645 79.580785 
L 485.753247 77.051707 
L 486.290043 77.810431 
L 486.82684 77.431069 
L 487.900433 81.730502 
L 488.437229 75.407807 
L 488.974026 76.292984 
L 489.510823 80.339509 
L 490.047619 79.327878 
L 490.584416 76.925254 
L 491.121212 77.936885 
L 491.658009 79.960147 
L 492.194805 76.040076 
L 492.731602 76.7988 
L 493.268398 81.35114 
L 493.805195 77.557523 
L 494.341991 78.316246 
L 494.878788 77.683977 
L 495.415584 78.4427 
L 495.952381 78.316246 
L 496.489177 79.960147 
L 497.025974 77.051707 
L 497.562771 77.051707 
L 498.099567 78.063339 
L 498.636364 77.557523 
L 499.17316 78.316246 
L 499.709957 78.569154 
L 500.246753 78.948516 
L 501.320346 79.201424 
L 501.857143 76.545892 
L 502.393939 78.189793 
L 502.930736 77.431069 
L 503.467532 78.4427 
L 504.004329 78.569154 
L 504.541126 76.7988 
L 505.077922 78.822062 
L 505.614719 78.189793 
L 506.151515 79.707239 
L 506.688312 76.7988 
L 507.225108 78.822062 
L 507.761905 78.4427 
L 508.298701 79.201424 
L 508.835498 77.810431 
L 509.909091 81.35114 
L 510.445887 80.592416 
L 510.982684 80.086601 
L 511.519481 77.304615 
L 512.056277 77.683977 
L 512.593074 77.683977 
L 513.12987 79.327878 
L 513.666667 76.7988 
L 514.203463 78.695608 
L 514.74026 78.316246 
L 515.277056 77.178161 
L 515.813853 76.545892 
L 516.350649 79.201424 
L 516.887446 79.454331 
L 517.424242 79.07497 
L 517.961039 75.534261 
L 519.034632 79.07497 
L 519.571429 82.109863 
L 520.108225 78.316246 
L 520.645022 76.292984 
L 521.181818 75.660715 
L 521.718615 79.201424 
L 522.255411 78.316246 
L 522.792208 78.822062 
L 523.329004 78.569154 
L 523.865801 79.201424 
L 524.402597 80.465963 
L 524.939394 78.569154 
L 525.47619 78.189793 
L 526.012987 78.316246 
L 526.549784 77.683977 
L 527.08658 80.213055 
L 527.623377 76.419438 
L 528.160173 78.189793 
L 528.69697 76.925254 
L 529.233766 76.419438 
L 529.770563 78.695608 
L 530.307359 79.960147 
L 530.844156 78.4427 
L 531.380952 77.936885 
L 531.917749 78.189793 
L 532.454545 79.07497 
L 532.991342 77.304615 
L 533.528139 76.925254 
L 534.064935 80.086601 
L 534.601732 79.07497 
L 535.138528 76.419438 
L 535.675325 77.683977 
L 536.212121 76.545892 
L 536.748918 79.580785 
L 537.285714 77.178161 
L 537.822511 78.189793 
L 538.359307 77.304615 
L 538.896104 78.569154 
L 539.4329 74.775537 
L 539.969697 78.569154 
L 540.506494 75.913622 
L 541.04329 76.7988 
L 541.580087 74.775537 
L 542.116883 78.695608 
L 542.65368 78.822062 
L 543.190476 77.304615 
L 543.727273 79.201424 
L 544.264069 76.545892 
L 544.800866 78.695608 
L 545.337662 76.545892 
L 545.874459 75.154899 
L 546.411255 76.925254 
L 546.948052 76.419438 
L 547.484848 75.154899 
L 548.021645 76.672346 
L 548.558442 80.971778 
L 549.095238 75.660715 
L 549.632035 75.534261 
L 550.168831 79.201424 
L 550.705628 79.07497 
L 551.779221 77.178161 
L 552.316017 78.569154 
L 552.852814 78.063339 
L 553.38961 79.960147 
L 553.926407 79.327878 
L 555 75.660715 
L 555.536797 77.683977 
L 556.073593 79.201424 
L 556.61039 77.178161 
L 557.147186 76.925254 
L 557.683983 75.913622 
L 558.220779 75.913622 
L 559.294372 79.580785 
L 559.831169 79.07497 
L 560.367965 76.545892 
L 560.904762 76.419438 
L 561.441558 76.419438 
L 561.978355 77.683977 
L 562.515152 80.339509 
L 563.051948 80.592416 
L 563.588745 77.431069 
L 564.125541 77.178161 
L 564.662338 75.407807 
L 565.199134 79.07497 
L 565.735931 75.281353 
L 566.272727 75.407807 
L 566.809524 80.845324 
L 567.34632 76.16653 
L 567.883117 76.925254 
L 568.419913 76.16653 
L 568.95671 81.098232 
L 569.493506 78.189793 
L 570.030303 76.925254 
L 570.5671 76.040076 
L 571.103896 76.672346 
L 571.640693 75.787169 
L 572.177489 75.281353 
L 572.714286 79.201424 
L 573.251082 77.683977 
L 573.787879 77.683977 
L 574.324675 78.569154 
L 574.861472 78.063339 
L 575.398268 77.810431 
L 575.935065 78.569154 
L 576.471861 78.189793 
L 577.008658 79.07497 
L 577.545455 76.040076 
L 578.082251 75.281353 
L 578.619048 78.063339 
L 579.155844 77.683977 
L 579.692641 77.051707 
L 580.229437 75.660715 
L 580.766234 78.695608 
L 581.30303 78.316246 
L 581.839827 76.040076 
L 582.376623 78.189793 
L 582.91342 78.063339 
L 583.450216 76.16653 
L 583.987013 75.660715 
L 584.52381 76.040076 
L 585.060606 76.672346 
L 585.597403 77.810431 
L 586.134199 79.327878 
L 586.670996 77.936885 
L 587.207792 78.948516 
L 587.744589 77.557523 
L 588.281385 78.063339 
L 588.818182 77.557523 
L 589.354978 75.660715 
L 589.891775 74.775537 
L 590.428571 78.316246 
L 590.965368 77.431069 
L 591.502165 80.845324 
L 592.038961 78.948516 
L 592.575758 75.028445 
L 593.649351 80.971778 
L 594.186147 76.672346 
L 594.722944 76.292984 
L 595.25974 78.316246 
L 595.796537 75.913622 
L 596.333333 74.143268 
L 596.87013 78.4427 
L 597.406926 80.213055 
L 597.943723 78.822062 
L 598.480519 80.213055 
L 599.017316 76.419438 
L 599.554113 77.936885 
L 600.090909 77.557523 
L 600.627706 80.086601 
L 601.164502 77.304615 
L 601.701299 79.327878 
L 602.238095 79.580785 
L 602.774892 76.419438 
L 603.311688 79.327878 
L 603.848485 79.07497 
L 604.385281 78.063339 
L 604.922078 74.396176 
L 605.458874 75.534261 
L 605.995671 79.201424 
L 606.532468 78.189793 
L 607.069264 78.948516 
L 607.606061 74.269722 
L 608.142857 76.040076 
L 608.679654 76.16653 
L 609.21645 76.419438 
L 609.753247 76.419438 
L 610.290043 77.683977 
L 610.82684 78.569154 
L 611.363636 78.063339 
L 611.900433 78.695608 
L 612.437229 82.109863 
L 612.974026 75.154899 
L 613.510823 77.810431 
L 614.047619 77.810431 
L 614.584416 78.948516 
L 615.121212 78.569154 
L 615.658009 76.672346 
L 616.194805 77.683977 
L 616.731602 75.913622 
L 617.268398 75.407807 
L 617.805195 79.201424 
L 618.341991 76.292984 
L 618.878788 79.201424 
L 619.415584 77.936885 
L 619.952381 77.178161 
L 620.489177 77.683977 
L 621.025974 75.660715 
L 621.562771 77.304615 
L 622.099567 77.683977 
L 622.636364 79.201424 
L 622.636364 79.201424 
" style="fill:none;stroke:#ff7f0e;stroke-linecap:square;stroke-width:0.5;"/>
   </g>
   <g id="patch_3">
    <path d="M 90 315 
L 90 43.2 
" style="fill:none;stroke:#000000;stroke-linecap:square;stroke-linejoin:miter;stroke-width:0.8;"/>
   </g>
   <g id="patch_4">
    <path d="M 648 315 
L 648 43.2 
" style="fill:none;stroke:#000000;stroke-linecap:square;stroke-linejoin:miter;stroke-width:0.8;"/>
   </g>
   <g id="patch_5">
    <path d="M 90 315 
L 648 315 
" style="fill:none;stroke:#000000;stroke-linecap:square;stroke-linejoin:miter;stroke-width:0.8;"/>
   </g>
   <g id="patch_6">
    <path d="M 90 43.2 
L 648 43.2 
" style="fill:none;stroke:#000000;stroke-linecap:square;stroke-linejoin:miter;stroke-width:0.8;"/>
   </g>
   <g id="text_16">
    <!-- accuracy -->
    <g transform="translate(341.92875 37.2)scale(0.12 -0.12)">
     <use xlink:href="#DejaVuSans-97"/>
     <use x="61.279297" xlink:href="#DejaVuSans-99"/>
     <use x="116.259766" xlink:href="#DejaVuSans-99"/>
     <use x="171.240234" xlink:href="#DejaVuSans-117"/>
     <use x="234.619141" xlink:href="#DejaVuSans-114"/>
     <use x="275.732422" xlink:href="#DejaVuSans-97"/>
     <use x="337.011719" xlink:href="#DejaVuSans-99"/>
     <use x="391.992188" xlink:href="#DejaVuSans-121"/>
    </g>
   </g>
   <g id="legend_1">
    <g id="patch_7">
     <path d="M 97 80.55625 
L 169.153125 80.55625 
Q 171.153125 80.55625 171.153125 78.55625 
L 171.153125 50.2 
Q 171.153125 48.2 169.153125 48.2 
L 97 48.2 
Q 95 48.2 95 50.2 
L 95 78.55625 
Q 95 80.55625 97 80.55625 
z
" style="fill:#ffffff;opacity:0.8;stroke:#cccccc;stroke-linejoin:miter;"/>
    </g>
    <g id="line2d_29">
     <path d="M 99 56.298437 
L 119 56.298437 
" style="fill:none;stroke:#1f77b4;stroke-linecap:square;stroke-width:0.5;"/>
    </g>
    <g id="line2d_30"/>
    <g id="text_17">
     <!-- train -->
     <defs>
      <path d="M 18.3125 70.21875 
L 18.3125 54.6875 
L 36.8125 54.6875 
L 36.8125 47.703125 
L 18.3125 47.703125 
L 18.3125 18.015625 
Q 18.3125 11.328125 20.140625 9.421875 
Q 21.96875 7.515625 27.59375 7.515625 
L 36.8125 7.515625 
L 36.8125 0 
L 27.59375 0 
Q 17.1875 0 13.234375 3.875 
Q 9.28125 7.765625 9.28125 18.015625 
L 9.28125 47.703125 
L 2.6875 47.703125 
L 2.6875 54.6875 
L 9.28125 54.6875 
L 9.28125 70.21875 
z
" id="DejaVuSans-116"/>
      <path d="M 9.421875 54.6875 
L 18.40625 54.6875 
L 18.40625 0 
L 9.421875 0 
z
M 9.421875 75.984375 
L 18.40625 75.984375 
L 18.40625 64.59375 
L 9.421875 64.59375 
z
" id="DejaVuSans-105"/>
      <path d="M 54.890625 33.015625 
L 54.890625 0 
L 45.90625 0 
L 45.90625 32.71875 
Q 45.90625 40.484375 42.875 44.328125 
Q 39.84375 48.1875 33.796875 48.1875 
Q 26.515625 48.1875 22.3125 43.546875 
Q 18.109375 38.921875 18.109375 30.90625 
L 18.109375 0 
L 9.078125 0 
L 9.078125 54.6875 
L 18.109375 54.6875 
L 18.109375 46.1875 
Q 21.34375 51.125 25.703125 53.5625 
Q 30.078125 56 35.796875 56 
Q 45.21875 56 50.046875 50.171875 
Q 54.890625 44.34375 54.890625 33.015625 
z
" id="DejaVuSans-110"/>
     </defs>
     <g transform="translate(127 59.798437)scale(0.1 -0.1)">
      <use xlink:href="#DejaVuSans-116"/>
      <use x="39.208984" xlink:href="#DejaVuSans-114"/>
      <use x="80.322266" xlink:href="#DejaVuSans-97"/>
      <use x="141.601562" xlink:href="#DejaVuSans-105"/>
      <use x="169.384766" xlink:href="#DejaVuSans-110"/>
     </g>
    </g>
    <g id="line2d_31">
     <path d="M 99 70.976562 
L 119 70.976562 
" style="fill:none;stroke:#ff7f0e;stroke-linecap:square;stroke-width:0.5;"/>
    </g>
    <g id="line2d_32"/>
    <g id="text_18">
     <!-- validate -->
     <defs>
      <path d="M 2.984375 54.6875 
L 12.5 54.6875 
L 29.59375 8.796875 
L 46.6875 54.6875 
L 56.203125 54.6875 
L 35.6875 0 
L 23.484375 0 
z
" id="DejaVuSans-118"/>
      <path d="M 9.421875 75.984375 
L 18.40625 75.984375 
L 18.40625 0 
L 9.421875 0 
z
" id="DejaVuSans-108"/>
      <path d="M 45.40625 46.390625 
L 45.40625 75.984375 
L 54.390625 75.984375 
L 54.390625 0 
L 45.40625 0 
L 45.40625 8.203125 
Q 42.578125 3.328125 38.25 0.953125 
Q 33.9375 -1.421875 27.875 -1.421875 
Q 17.96875 -1.421875 11.734375 6.484375 
Q 5.515625 14.40625 5.515625 27.296875 
Q 5.515625 40.1875 11.734375 48.09375 
Q 17.96875 56 27.875 56 
Q 33.9375 56 38.25 53.625 
Q 42.578125 51.265625 45.40625 46.390625 
z
M 14.796875 27.296875 
Q 14.796875 17.390625 18.875 11.75 
Q 22.953125 6.109375 30.078125 6.109375 
Q 37.203125 6.109375 41.296875 11.75 
Q 45.40625 17.390625 45.40625 27.296875 
Q 45.40625 37.203125 41.296875 42.84375 
Q 37.203125 48.484375 30.078125 48.484375 
Q 22.953125 48.484375 18.875 42.84375 
Q 14.796875 37.203125 14.796875 27.296875 
z
" id="DejaVuSans-100"/>
     </defs>
     <g transform="translate(127 74.476562)scale(0.1 -0.1)">
      <use xlink:href="#DejaVuSans-118"/>
      <use x="59.179688" xlink:href="#DejaVuSans-97"/>
      <use x="120.458984" xlink:href="#DejaVuSans-108"/>
      <use x="148.242188" xlink:href="#DejaVuSans-105"/>
      <use x="176.025391" xlink:href="#DejaVuSans-100"/>
      <use x="239.501953" xlink:href="#DejaVuSans-97"/>
      <use x="300.78125" xlink:href="#DejaVuSans-116"/>
      <use x="339.990234" xlink:href="#DejaVuSans-101"/>
     </g>
    </g>
   </g>
  </g>
 </g>
 <defs>
  <clipPath id="p422310a7ec">
   <rect height="271.8" width="558" x="90" y="43.2"/>
  </clipPath>
 </defs>
</svg>
