<?xml version="1.0" encoding="utf-8" standalone="no"?>
<!DOCTYPE svg PUBLIC "-//W3C//DTD SVG 1.1//EN"
  "http://www.w3.org/Graphics/SVG/1.1/DTD/svg11.dtd">
<!-- Created with matplotlib (https://matplotlib.org/) -->
<svg height="360pt" version="1.1" viewBox="0 0 720 360" width="720pt" xmlns="http://www.w3.org/2000/svg" xmlns:xlink="http://www.w3.org/1999/xlink">
 <defs>
  <style type="text/css">
*{stroke-linecap:butt;stroke-linejoin:round;}
  </style>
 </defs>
 <g id="figure_1">
  <g id="patch_1">
   <path d="M 0 360 
L 720 360 
L 720 0 
L 0 0 
z
" style="fill:#ffffff;"/>
  </g>
  <g id="axes_1">
   <g id="patch_2">
    <path d="M 90 315 
L 648 315 
L 648 43.2 
L 90 43.2 
z
" style="fill:#ffffff;"/>
   </g>
   <g id="matplotlib.axis_1">
    <g id="xtick_1">
     <g id="line2d_1">
      <path clip-path="url(#p790d84616a)" d="M 115.363636 315 
L 115.363636 43.2 
" style="fill:none;stroke:#b0b0b0;stroke-linecap:square;stroke-width:0.8;"/>
     </g>
     <g id="line2d_2">
      <defs>
       <path d="M 0 0 
L 0 3.5 
" id="mef8e5e60bf" style="stroke:#000000;stroke-width:0.8;"/>
      </defs>
      <g>
       <use style="stroke:#000000;stroke-width:0.8;" x="115.363636" xlink:href="#mef8e5e60bf" y="315"/>
      </g>
     </g>
     <g id="text_1">
      <!-- 0 -->
      <defs>
       <path d="M 31.78125 66.40625 
Q 24.171875 66.40625 20.328125 58.90625 
Q 16.5 51.421875 16.5 36.375 
Q 16.5 21.390625 20.328125 13.890625 
Q 24.171875 6.390625 31.78125 6.390625 
Q 39.453125 6.390625 43.28125 13.890625 
Q 47.125 21.390625 47.125 36.375 
Q 47.125 51.421875 43.28125 58.90625 
Q 39.453125 66.40625 31.78125 66.40625 
z
M 31.78125 74.21875 
Q 44.046875 74.21875 50.515625 64.515625 
Q 56.984375 54.828125 56.984375 36.375 
Q 56.984375 17.96875 50.515625 8.265625 
Q 44.046875 -1.421875 31.78125 -1.421875 
Q 19.53125 -1.421875 13.0625 8.265625 
Q 6.59375 17.96875 6.59375 36.375 
Q 6.59375 54.828125 13.0625 64.515625 
Q 19.53125 74.21875 31.78125 74.21875 
z
" id="DejaVuSans-48"/>
      </defs>
      <g transform="translate(112.182386 329.598437)scale(0.1 -0.1)">
       <use xlink:href="#DejaVuSans-48"/>
      </g>
     </g>
    </g>
    <g id="xtick_2">
     <g id="line2d_3">
      <path clip-path="url(#p790d84616a)" d="M 222.722944 315 
L 222.722944 43.2 
" style="fill:none;stroke:#b0b0b0;stroke-linecap:square;stroke-width:0.8;"/>
     </g>
     <g id="line2d_4">
      <g>
       <use style="stroke:#000000;stroke-width:0.8;" x="222.722944" xlink:href="#mef8e5e60bf" y="315"/>
      </g>
     </g>
     <g id="text_2">
      <!-- 200 -->
      <defs>
       <path d="M 19.1875 8.296875 
L 53.609375 8.296875 
L 53.609375 0 
L 7.328125 0 
L 7.328125 8.296875 
Q 12.9375 14.109375 22.625 23.890625 
Q 32.328125 33.6875 34.8125 36.53125 
Q 39.546875 41.84375 41.421875 45.53125 
Q 43.3125 49.21875 43.3125 52.78125 
Q 43.3125 58.59375 39.234375 62.25 
Q 35.15625 65.921875 28.609375 65.921875 
Q 23.96875 65.921875 18.8125 64.3125 
Q 13.671875 62.703125 7.8125 59.421875 
L 7.8125 69.390625 
Q 13.765625 71.78125 18.9375 73 
Q 24.125 74.21875 28.421875 74.21875 
Q 39.75 74.21875 46.484375 68.546875 
Q 53.21875 62.890625 53.21875 53.421875 
Q 53.21875 48.921875 51.53125 44.890625 
Q 49.859375 40.875 45.40625 35.40625 
Q 44.1875 33.984375 37.640625 27.21875 
Q 31.109375 20.453125 19.1875 8.296875 
z
" id="DejaVuSans-50"/>
      </defs>
      <g transform="translate(213.179194 329.598437)scale(0.1 -0.1)">
       <use xlink:href="#DejaVuSans-50"/>
       <use x="63.623047" xlink:href="#DejaVuSans-48"/>
       <use x="127.246094" xlink:href="#DejaVuSans-48"/>
      </g>
     </g>
    </g>
    <g id="xtick_3">
     <g id="line2d_5">
      <path clip-path="url(#p790d84616a)" d="M 330.082251 315 
L 330.082251 43.2 
" style="fill:none;stroke:#b0b0b0;stroke-linecap:square;stroke-width:0.8;"/>
     </g>
     <g id="line2d_6">
      <g>
       <use style="stroke:#000000;stroke-width:0.8;" x="330.082251" xlink:href="#mef8e5e60bf" y="315"/>
      </g>
     </g>
     <g id="text_3">
      <!-- 400 -->
      <defs>
       <path d="M 37.796875 64.3125 
L 12.890625 25.390625 
L 37.796875 25.390625 
z
M 35.203125 72.90625 
L 47.609375 72.90625 
L 47.609375 25.390625 
L 58.015625 25.390625 
L 58.015625 17.1875 
L 47.609375 17.1875 
L 47.609375 0 
L 37.796875 0 
L 37.796875 17.1875 
L 4.890625 17.1875 
L 4.890625 26.703125 
z
" id="DejaVuSans-52"/>
      </defs>
      <g transform="translate(320.538501 329.598437)scale(0.1 -0.1)">
       <use xlink:href="#DejaVuSans-52"/>
       <use x="63.623047" xlink:href="#DejaVuSans-48"/>
       <use x="127.246094" xlink:href="#DejaVuSans-48"/>
      </g>
     </g>
    </g>
    <g id="xtick_4">
     <g id="line2d_7">
      <path clip-path="url(#p790d84616a)" d="M 437.441558 315 
L 437.441558 43.2 
" style="fill:none;stroke:#b0b0b0;stroke-linecap:square;stroke-width:0.8;"/>
     </g>
     <g id="line2d_8">
      <g>
       <use style="stroke:#000000;stroke-width:0.8;" x="437.441558" xlink:href="#mef8e5e60bf" y="315"/>
      </g>
     </g>
     <g id="text_4">
      <!-- 600 -->
      <defs>
       <path d="M 33.015625 40.375 
Q 26.375 40.375 22.484375 35.828125 
Q 18.609375 31.296875 18.609375 23.390625 
Q 18.609375 15.53125 22.484375 10.953125 
Q 26.375 6.390625 33.015625 6.390625 
Q 39.65625 6.390625 43.53125 10.953125 
Q 47.40625 15.53125 47.40625 23.390625 
Q 47.40625 31.296875 43.53125 35.828125 
Q 39.65625 40.375 33.015625 40.375 
z
M 52.59375 71.296875 
L 52.59375 62.3125 
Q 48.875 64.0625 45.09375 64.984375 
Q 41.3125 65.921875 37.59375 65.921875 
Q 27.828125 65.921875 22.671875 59.328125 
Q 17.53125 52.734375 16.796875 39.40625 
Q 19.671875 43.65625 24.015625 45.921875 
Q 28.375 48.1875 33.59375 48.1875 
Q 44.578125 48.1875 50.953125 41.515625 
Q 57.328125 34.859375 57.328125 23.390625 
Q 57.328125 12.15625 50.6875 5.359375 
Q 44.046875 -1.421875 33.015625 -1.421875 
Q 20.359375 -1.421875 13.671875 8.265625 
Q 6.984375 17.96875 6.984375 36.375 
Q 6.984375 53.65625 15.1875 63.9375 
Q 23.390625 74.21875 37.203125 74.21875 
Q 40.921875 74.21875 44.703125 73.484375 
Q 48.484375 72.75 52.59375 71.296875 
z
" id="DejaVuSans-54"/>
      </defs>
      <g transform="translate(427.897808 329.598437)scale(0.1 -0.1)">
       <use xlink:href="#DejaVuSans-54"/>
       <use x="63.623047" xlink:href="#DejaVuSans-48"/>
       <use x="127.246094" xlink:href="#DejaVuSans-48"/>
      </g>
     </g>
    </g>
    <g id="xtick_5">
     <g id="line2d_9">
      <path clip-path="url(#p790d84616a)" d="M 544.800866 315 
L 544.800866 43.2 
" style="fill:none;stroke:#b0b0b0;stroke-linecap:square;stroke-width:0.8;"/>
     </g>
     <g id="line2d_10">
      <g>
       <use style="stroke:#000000;stroke-width:0.8;" x="544.800866" xlink:href="#mef8e5e60bf" y="315"/>
      </g>
     </g>
     <g id="text_5">
      <!-- 800 -->
      <defs>
       <path d="M 31.78125 34.625 
Q 24.75 34.625 20.71875 30.859375 
Q 16.703125 27.09375 16.703125 20.515625 
Q 16.703125 13.921875 20.71875 10.15625 
Q 24.75 6.390625 31.78125 6.390625 
Q 38.8125 6.390625 42.859375 10.171875 
Q 46.921875 13.96875 46.921875 20.515625 
Q 46.921875 27.09375 42.890625 30.859375 
Q 38.875 34.625 31.78125 34.625 
z
M 21.921875 38.8125 
Q 15.578125 40.375 12.03125 44.71875 
Q 8.5 49.078125 8.5 55.328125 
Q 8.5 64.0625 14.71875 69.140625 
Q 20.953125 74.21875 31.78125 74.21875 
Q 42.671875 74.21875 48.875 69.140625 
Q 55.078125 64.0625 55.078125 55.328125 
Q 55.078125 49.078125 51.53125 44.71875 
Q 48 40.375 41.703125 38.8125 
Q 48.828125 37.15625 52.796875 32.3125 
Q 56.78125 27.484375 56.78125 20.515625 
Q 56.78125 9.90625 50.3125 4.234375 
Q 43.84375 -1.421875 31.78125 -1.421875 
Q 19.734375 -1.421875 13.25 4.234375 
Q 6.78125 9.90625 6.78125 20.515625 
Q 6.78125 27.484375 10.78125 32.3125 
Q 14.796875 37.15625 21.921875 38.8125 
z
M 18.3125 54.390625 
Q 18.3125 48.734375 21.84375 45.5625 
Q 25.390625 42.390625 31.78125 42.390625 
Q 38.140625 42.390625 41.71875 45.5625 
Q 45.3125 48.734375 45.3125 54.390625 
Q 45.3125 60.0625 41.71875 63.234375 
Q 38.140625 66.40625 31.78125 66.40625 
Q 25.390625 66.40625 21.84375 63.234375 
Q 18.3125 60.0625 18.3125 54.390625 
z
" id="DejaVuSans-56"/>
      </defs>
      <g transform="translate(535.257116 329.598437)scale(0.1 -0.1)">
       <use xlink:href="#DejaVuSans-56"/>
       <use x="63.623047" xlink:href="#DejaVuSans-48"/>
       <use x="127.246094" xlink:href="#DejaVuSans-48"/>
      </g>
     </g>
    </g>
    <g id="text_6">
     <!-- epoch -->
     <defs>
      <path d="M 56.203125 29.59375 
L 56.203125 25.203125 
L 14.890625 25.203125 
Q 15.484375 15.921875 20.484375 11.0625 
Q 25.484375 6.203125 34.421875 6.203125 
Q 39.59375 6.203125 44.453125 7.46875 
Q 49.3125 8.734375 54.109375 11.28125 
L 54.109375 2.78125 
Q 49.265625 0.734375 44.1875 -0.34375 
Q 39.109375 -1.421875 33.890625 -1.421875 
Q 20.796875 -1.421875 13.15625 6.1875 
Q 5.515625 13.8125 5.515625 26.8125 
Q 5.515625 40.234375 12.765625 48.109375 
Q 20.015625 56 32.328125 56 
Q 43.359375 56 49.78125 48.890625 
Q 56.203125 41.796875 56.203125 29.59375 
z
M 47.21875 32.234375 
Q 47.125 39.59375 43.09375 43.984375 
Q 39.0625 48.390625 32.421875 48.390625 
Q 24.90625 48.390625 20.390625 44.140625 
Q 15.875 39.890625 15.1875 32.171875 
z
" id="DejaVuSans-101"/>
      <path d="M 18.109375 8.203125 
L 18.109375 -20.796875 
L 9.078125 -20.796875 
L 9.078125 54.6875 
L 18.109375 54.6875 
L 18.109375 46.390625 
Q 20.953125 51.265625 25.265625 53.625 
Q 29.59375 56 35.59375 56 
Q 45.5625 56 51.78125 48.09375 
Q 58.015625 40.1875 58.015625 27.296875 
Q 58.015625 14.40625 51.78125 6.484375 
Q 45.5625 -1.421875 35.59375 -1.421875 
Q 29.59375 -1.421875 25.265625 0.953125 
Q 20.953125 3.328125 18.109375 8.203125 
z
M 48.6875 27.296875 
Q 48.6875 37.203125 44.609375 42.84375 
Q 40.53125 48.484375 33.40625 48.484375 
Q 26.265625 48.484375 22.1875 42.84375 
Q 18.109375 37.203125 18.109375 27.296875 
Q 18.109375 17.390625 22.1875 11.75 
Q 26.265625 6.109375 33.40625 6.109375 
Q 40.53125 6.109375 44.609375 11.75 
Q 48.6875 17.390625 48.6875 27.296875 
z
" id="DejaVuSans-112"/>
      <path d="M 30.609375 48.390625 
Q 23.390625 48.390625 19.1875 42.75 
Q 14.984375 37.109375 14.984375 27.296875 
Q 14.984375 17.484375 19.15625 11.84375 
Q 23.34375 6.203125 30.609375 6.203125 
Q 37.796875 6.203125 41.984375 11.859375 
Q 46.1875 17.53125 46.1875 27.296875 
Q 46.1875 37.015625 41.984375 42.703125 
Q 37.796875 48.390625 30.609375 48.390625 
z
M 30.609375 56 
Q 42.328125 56 49.015625 48.375 
Q 55.71875 40.765625 55.71875 27.296875 
Q 55.71875 13.875 49.015625 6.21875 
Q 42.328125 -1.421875 30.609375 -1.421875 
Q 18.84375 -1.421875 12.171875 6.21875 
Q 5.515625 13.875 5.515625 27.296875 
Q 5.515625 40.765625 12.171875 48.375 
Q 18.84375 56 30.609375 56 
z
" id="DejaVuSans-111"/>
      <path d="M 48.78125 52.59375 
L 48.78125 44.1875 
Q 44.96875 46.296875 41.140625 47.34375 
Q 37.3125 48.390625 33.40625 48.390625 
Q 24.65625 48.390625 19.8125 42.84375 
Q 14.984375 37.3125 14.984375 27.296875 
Q 14.984375 17.28125 19.8125 11.734375 
Q 24.65625 6.203125 33.40625 6.203125 
Q 37.3125 6.203125 41.140625 7.25 
Q 44.96875 8.296875 48.78125 10.40625 
L 48.78125 2.09375 
Q 45.015625 0.34375 40.984375 -0.53125 
Q 36.96875 -1.421875 32.421875 -1.421875 
Q 20.0625 -1.421875 12.78125 6.34375 
Q 5.515625 14.109375 5.515625 27.296875 
Q 5.515625 40.671875 12.859375 48.328125 
Q 20.21875 56 33.015625 56 
Q 37.15625 56 41.109375 55.140625 
Q 45.0625 54.296875 48.78125 52.59375 
z
" id="DejaVuSans-99"/>
      <path d="M 54.890625 33.015625 
L 54.890625 0 
L 45.90625 0 
L 45.90625 32.71875 
Q 45.90625 40.484375 42.875 44.328125 
Q 39.84375 48.1875 33.796875 48.1875 
Q 26.515625 48.1875 22.3125 43.546875 
Q 18.109375 38.921875 18.109375 30.90625 
L 18.109375 0 
L 9.078125 0 
L 9.078125 75.984375 
L 18.109375 75.984375 
L 18.109375 46.1875 
Q 21.34375 51.125 25.703125 53.5625 
Q 30.078125 56 35.796875 56 
Q 45.21875 56 50.046875 50.171875 
Q 54.890625 44.34375 54.890625 33.015625 
z
" id="DejaVuSans-104"/>
     </defs>
     <g transform="translate(353.771875 343.276563)scale(0.1 -0.1)">
      <use xlink:href="#DejaVuSans-101"/>
      <use x="61.523438" xlink:href="#DejaVuSans-112"/>
      <use x="125" xlink:href="#DejaVuSans-111"/>
      <use x="186.181641" xlink:href="#DejaVuSans-99"/>
      <use x="241.162109" xlink:href="#DejaVuSans-104"/>
     </g>
    </g>
   </g>
   <g id="matplotlib.axis_2">
    <g id="ytick_1">
     <g id="line2d_11">
      <path clip-path="url(#p790d84616a)" d="M 90 279.167613 
L 648 279.167613 
" style="fill:none;stroke:#b0b0b0;stroke-linecap:square;stroke-width:0.8;"/>
     </g>
     <g id="line2d_12">
      <defs>
       <path d="M 0 0 
L -3.5 0 
" id="m320e7c6c37" style="stroke:#000000;stroke-width:0.8;"/>
      </defs>
      <g>
       <use style="stroke:#000000;stroke-width:0.8;" x="90" xlink:href="#m320e7c6c37" y="279.167613"/>
      </g>
     </g>
     <g id="text_7">
      <!-- 0.2 -->
      <defs>
       <path d="M 10.6875 12.40625 
L 21 12.40625 
L 21 0 
L 10.6875 0 
z
" id="DejaVuSans-46"/>
      </defs>
      <g transform="translate(67.096875 282.966832)scale(0.1 -0.1)">
       <use xlink:href="#DejaVuSans-48"/>
       <use x="63.623047" xlink:href="#DejaVuSans-46"/>
       <use x="95.410156" xlink:href="#DejaVuSans-50"/>
      </g>
     </g>
    </g>
    <g id="ytick_2">
     <g id="line2d_13">
      <path clip-path="url(#p790d84616a)" d="M 90 237.536717 
L 648 237.536717 
" style="fill:none;stroke:#b0b0b0;stroke-linecap:square;stroke-width:0.8;"/>
     </g>
     <g id="line2d_14">
      <g>
       <use style="stroke:#000000;stroke-width:0.8;" x="90" xlink:href="#m320e7c6c37" y="237.536717"/>
      </g>
     </g>
     <g id="text_8">
      <!-- 0.4 -->
      <g transform="translate(67.096875 241.335936)scale(0.1 -0.1)">
       <use xlink:href="#DejaVuSans-48"/>
       <use x="63.623047" xlink:href="#DejaVuSans-46"/>
       <use x="95.410156" xlink:href="#DejaVuSans-52"/>
      </g>
     </g>
    </g>
    <g id="ytick_3">
     <g id="line2d_15">
      <path clip-path="url(#p790d84616a)" d="M 90 195.905821 
L 648 195.905821 
" style="fill:none;stroke:#b0b0b0;stroke-linecap:square;stroke-width:0.8;"/>
     </g>
     <g id="line2d_16">
      <g>
       <use style="stroke:#000000;stroke-width:0.8;" x="90" xlink:href="#m320e7c6c37" y="195.905821"/>
      </g>
     </g>
     <g id="text_9">
      <!-- 0.6 -->
      <g transform="translate(67.096875 199.70504)scale(0.1 -0.1)">
       <use xlink:href="#DejaVuSans-48"/>
       <use x="63.623047" xlink:href="#DejaVuSans-46"/>
       <use x="95.410156" xlink:href="#DejaVuSans-54"/>
      </g>
     </g>
    </g>
    <g id="ytick_4">
     <g id="line2d_17">
      <path clip-path="url(#p790d84616a)" d="M 90 154.274925 
L 648 154.274925 
" style="fill:none;stroke:#b0b0b0;stroke-linecap:square;stroke-width:0.8;"/>
     </g>
     <g id="line2d_18">
      <g>
       <use style="stroke:#000000;stroke-width:0.8;" x="90" xlink:href="#m320e7c6c37" y="154.274925"/>
      </g>
     </g>
     <g id="text_10">
      <!-- 0.8 -->
      <g transform="translate(67.096875 158.074143)scale(0.1 -0.1)">
       <use xlink:href="#DejaVuSans-48"/>
       <use x="63.623047" xlink:href="#DejaVuSans-46"/>
       <use x="95.410156" xlink:href="#DejaVuSans-56"/>
      </g>
     </g>
    </g>
    <g id="ytick_5">
     <g id="line2d_19">
      <path clip-path="url(#p790d84616a)" d="M 90 112.644028 
L 648 112.644028 
" style="fill:none;stroke:#b0b0b0;stroke-linecap:square;stroke-width:0.8;"/>
     </g>
     <g id="line2d_20">
      <g>
       <use style="stroke:#000000;stroke-width:0.8;" x="90" xlink:href="#m320e7c6c37" y="112.644028"/>
      </g>
     </g>
     <g id="text_11">
      <!-- 1.0 -->
      <defs>
       <path d="M 12.40625 8.296875 
L 28.515625 8.296875 
L 28.515625 63.921875 
L 10.984375 60.40625 
L 10.984375 69.390625 
L 28.421875 72.90625 
L 38.28125 72.90625 
L 38.28125 8.296875 
L 54.390625 8.296875 
L 54.390625 0 
L 12.40625 0 
z
" id="DejaVuSans-49"/>
      </defs>
      <g transform="translate(67.096875 116.443247)scale(0.1 -0.1)">
       <use xlink:href="#DejaVuSans-49"/>
       <use x="63.623047" xlink:href="#DejaVuSans-46"/>
       <use x="95.410156" xlink:href="#DejaVuSans-48"/>
      </g>
     </g>
    </g>
    <g id="ytick_6">
     <g id="line2d_21">
      <path clip-path="url(#p790d84616a)" d="M 90 71.013132 
L 648 71.013132 
" style="fill:none;stroke:#b0b0b0;stroke-linecap:square;stroke-width:0.8;"/>
     </g>
     <g id="line2d_22">
      <g>
       <use style="stroke:#000000;stroke-width:0.8;" x="90" xlink:href="#m320e7c6c37" y="71.013132"/>
      </g>
     </g>
     <g id="text_12">
      <!-- 1.2 -->
      <g transform="translate(67.096875 74.812351)scale(0.1 -0.1)">
       <use xlink:href="#DejaVuSans-49"/>
       <use x="63.623047" xlink:href="#DejaVuSans-46"/>
       <use x="95.410156" xlink:href="#DejaVuSans-50"/>
      </g>
     </g>
    </g>
    <g id="text_13">
     <!-- loss -->
     <defs>
      <path d="M 9.421875 75.984375 
L 18.40625 75.984375 
L 18.40625 0 
L 9.421875 0 
z
" id="DejaVuSans-108"/>
      <path d="M 44.28125 53.078125 
L 44.28125 44.578125 
Q 40.484375 46.53125 36.375 47.5 
Q 32.28125 48.484375 27.875 48.484375 
Q 21.1875 48.484375 17.84375 46.4375 
Q 14.5 44.390625 14.5 40.28125 
Q 14.5 37.15625 16.890625 35.375 
Q 19.28125 33.59375 26.515625 31.984375 
L 29.59375 31.296875 
Q 39.15625 29.25 43.1875 25.515625 
Q 47.21875 21.78125 47.21875 15.09375 
Q 47.21875 7.46875 41.1875 3.015625 
Q 35.15625 -1.421875 24.609375 -1.421875 
Q 20.21875 -1.421875 15.453125 -0.5625 
Q 10.6875 0.296875 5.421875 2 
L 5.421875 11.28125 
Q 10.40625 8.6875 15.234375 7.390625 
Q 20.0625 6.109375 24.8125 6.109375 
Q 31.15625 6.109375 34.5625 8.28125 
Q 37.984375 10.453125 37.984375 14.40625 
Q 37.984375 18.0625 35.515625 20.015625 
Q 33.0625 21.96875 24.703125 23.78125 
L 21.578125 24.515625 
Q 13.234375 26.265625 9.515625 29.90625 
Q 5.8125 33.546875 5.8125 39.890625 
Q 5.8125 47.609375 11.28125 51.796875 
Q 16.75 56 26.8125 56 
Q 31.78125 56 36.171875 55.265625 
Q 40.578125 54.546875 44.28125 53.078125 
z
" id="DejaVuSans-115"/>
     </defs>
     <g transform="translate(61.017187 188.757812)rotate(-90)scale(0.1 -0.1)">
      <use xlink:href="#DejaVuSans-108"/>
      <use x="27.783203" xlink:href="#DejaVuSans-111"/>
      <use x="88.964844" xlink:href="#DejaVuSans-115"/>
      <use x="141.064453" xlink:href="#DejaVuSans-115"/>
     </g>
    </g>
   </g>
   <g id="line2d_23">
    <path clip-path="url(#p790d84616a)" d="M 115.363636 55.554545 
L 115.900433 57.697027 
L 116.974026 69.326568 
L 117.510823 67.536846 
L 118.047619 72.383136 
L 118.584416 72.252676 
L 119.121212 77.971551 
L 119.658009 72.01847 
L 120.731602 78.46298 
L 121.268398 75.137387 
L 122.341991 79.263325 
L 122.878788 78.717027 
L 123.415584 78.908603 
L 123.952381 79.850859 
L 125.025974 83.65339 
L 125.562771 80.88337 
L 126.099567 81.35252 
L 126.636364 83.229223 
L 127.17316 82.832858 
L 127.709957 81.781017 
L 128.246753 84.618337 
L 128.78355 82.544767 
L 129.320346 87.861488 
L 129.857143 86.409971 
L 130.393939 86.881319 
L 131.467532 89.355385 
L 132.004329 88.00149 
L 132.541126 89.614075 
L 133.077922 89.609375 
L 133.614719 91.027066 
L 134.151515 90.451877 
L 134.688312 92.113938 
L 135.225108 91.151256 
L 135.761905 93.030632 
L 136.298701 92.658947 
L 136.835498 94.05736 
L 137.372294 93.205037 
L 137.909091 93.214999 
L 138.445887 97.102857 
L 138.982684 99.623231 
L 139.519481 96.161564 
L 140.056277 96.672317 
L 140.593074 100.109269 
L 141.12987 98.263759 
L 141.666667 99.695844 
L 142.203463 101.752003 
L 142.74026 99.827189 
L 143.277056 104.336975 
L 143.813853 102.946879 
L 144.350649 104.96887 
L 144.887446 105.922762 
L 145.424242 108.196911 
L 145.961039 107.613258 
L 146.497835 108.805806 
L 147.034632 106.962565 
L 147.571429 110.181391 
L 148.108225 112.637451 
L 148.645022 112.600265 
L 149.181818 115.345181 
L 149.718615 116.198754 
L 150.255411 116.550498 
L 150.792208 119.978426 
L 151.329004 115.891892 
L 151.865801 121.720173 
L 152.939394 125.401329 
L 153.47619 126.912776 
L 154.012987 131.216976 
L 154.549784 132.32176 
L 155.08658 132.734928 
L 155.623377 136.704089 
L 157.233766 140.348533 
L 157.770563 146.255936 
L 158.307359 145.419444 
L 158.844156 149.375875 
L 159.380952 148.735048 
L 159.917749 153.494077 
L 160.454545 154.533022 
L 161.528139 160.874892 
L 162.064935 160.252235 
L 162.601732 164.595965 
L 163.138528 167.956245 
L 163.675325 166.568056 
L 164.212121 172.387738 
L 164.748918 172.604619 
L 165.285714 178.635886 
L 165.822511 177.788862 
L 166.359307 180.866842 
L 166.896104 181.828143 
L 167.4329 182.034979 
L 167.969697 179.362719 
L 168.506494 185.831858 
L 169.04329 185.230929 
L 169.580087 186.27261 
L 170.116883 191.71434 
L 170.65368 191.910305 
L 171.190476 191.574329 
L 171.727273 197.595253 
L 172.264069 198.340576 
L 172.800866 198.356921 
L 173.337662 199.519678 
L 173.874459 199.632641 
L 174.411255 201.750442 
L 174.948052 202.424464 
L 175.484848 204.298775 
L 176.021645 205.728875 
L 176.558442 207.714183 
L 177.095238 212.740696 
L 177.632035 212.753067 
L 178.168831 214.302971 
L 178.705628 211.976261 
L 179.242424 212.142903 
L 179.779221 213.799 
L 180.316017 214.005129 
L 180.852814 217.733557 
L 181.38961 217.421761 
L 181.926407 216.01013 
L 182.463203 220.531409 
L 183 218.069153 
L 183.536797 221.678021 
L 184.073593 220.412223 
L 184.61039 223.39182 
L 185.147186 222.295304 
L 185.683983 224.961139 
L 186.220779 225.555939 
L 186.757576 228.240324 
L 187.294372 234.894533 
L 187.831169 233.206192 
L 188.367965 228.108218 
L 188.904762 231.050642 
L 189.441558 232.159038 
L 189.978355 226.921651 
L 190.515152 234.330856 
L 191.051948 233.315609 
L 191.588745 233.086768 
L 192.125541 235.761966 
L 192.662338 239.502042 
L 193.199134 236.094137 
L 193.735931 237.993529 
L 194.272727 235.351069 
L 194.809524 238.365874 
L 195.34632 236.825298 
L 195.883117 241.928117 
L 196.419913 237.457921 
L 196.95671 241.607758 
L 197.493506 243.766528 
L 198.030303 239.389544 
L 198.5671 242.852708 
L 199.103896 245.460635 
L 199.640693 244.532353 
L 200.177489 243.938346 
L 200.714286 247.017279 
L 201.251082 245.012974 
L 201.787879 243.977799 
L 202.324675 246.444629 
L 203.398268 243.72746 
L 203.935065 247.414713 
L 204.471861 250.205809 
L 205.008658 249.747281 
L 205.545455 247.565075 
L 206.082251 246.142811 
L 206.619048 248.234029 
L 207.155844 253.978991 
L 207.692641 250.008961 
L 208.229437 252.257335 
L 208.766234 250.298304 
L 209.839827 250.647345 
L 210.376623 251.959505 
L 210.91342 251.282112 
L 211.450216 256.308273 
L 211.987013 249.284814 
L 212.52381 251.938225 
L 213.060606 256.726119 
L 213.597403 252.108949 
L 214.134199 251.788659 
L 214.670996 256.252569 
L 215.207792 250.363536 
L 215.744589 254.790896 
L 216.281385 256.84251 
L 216.818182 255.493843 
L 217.354978 257.143163 
L 217.891775 252.87321 
L 218.428571 256.876523 
L 218.965368 256.905464 
L 219.502165 258.432487 
L 220.038961 256.175866 
L 221.112554 259.526405 
L 221.649351 257.898654 
L 222.186147 259.096402 
L 222.722944 256.174969 
L 223.796537 258.592739 
L 224.333333 253.276295 
L 224.87013 262.588081 
L 225.406926 257.474371 
L 225.943723 258.585131 
L 226.480519 256.245388 
L 227.017316 260.205823 
L 227.554113 262.864187 
L 228.090909 261.224017 
L 228.627706 262.417895 
L 229.164502 257.90002 
L 229.701299 260.427254 
L 230.238095 261.619005 
L 230.774892 262.341745 
L 231.311688 261.135371 
L 231.848485 261.43936 
L 232.385281 262.918647 
L 232.922078 261.266086 
L 233.458874 262.274506 
L 233.995671 263.886989 
L 234.532468 260.991451 
L 235.069264 264.466951 
L 235.606061 263.062355 
L 236.142857 262.446202 
L 236.679654 265.879558 
L 237.21645 262.357656 
L 238.290043 264.395634 
L 238.82684 266.214348 
L 239.363636 267.066491 
L 239.900433 265.03309 
L 240.437229 262.541122 
L 240.974026 266.445514 
L 241.510823 265.650232 
L 242.047619 264.349377 
L 242.584416 265.223785 
L 243.121212 266.34586 
L 243.658009 264.903056 
L 244.194805 267.593678 
L 244.731602 262.044542 
L 245.268398 265.493393 
L 245.805195 266.608059 
L 246.341991 266.948639 
L 246.878788 265.486727 
L 247.415584 265.768938 
L 247.952381 267.63036 
L 248.489177 263.004374 
L 249.025974 267.537122 
L 249.562771 267.39838 
L 250.099567 266.384163 
L 250.636364 267.248077 
L 251.17316 270.118996 
L 251.709957 263.366799 
L 252.246753 270.139839 
L 252.78355 270.309551 
L 253.320346 263.733192 
L 253.857143 268.41667 
L 254.393939 268.114081 
L 254.930736 269.877057 
L 255.467532 268.509271 
L 256.004329 268.219378 
L 256.541126 266.267634 
L 257.077922 266.924019 
L 257.614719 266.479966 
L 258.151515 267.098229 
L 258.688312 267.953097 
L 259.225108 270.042832 
L 259.761905 268.859416 
L 260.298701 268.903292 
L 260.835498 270.015082 
L 261.372294 273.005771 
L 261.909091 267.350061 
L 262.445887 270.288869 
L 262.982684 270.591208 
L 263.519481 271.21209 
L 264.056277 270.879343 
L 264.593074 271.450234 
L 265.12987 270.290705 
L 265.666667 270.474085 
L 266.203463 271.574632 
L 266.74026 270.37914 
L 267.277056 271.42115 
L 267.813853 269.278987 
L 268.350649 270.341643 
L 268.887446 272.692071 
L 269.424242 271.236063 
L 269.961039 274.874201 
L 270.497835 271.736465 
L 271.034632 272.234029 
L 271.571429 272.197893 
L 272.108225 273.282843 
L 272.645022 270.520241 
L 273.181818 274.286465 
L 273.718615 272.15455 
L 274.255411 274.22689 
L 274.792208 271.599467 
L 275.329004 271.65831 
L 275.865801 271.91914 
L 276.402597 271.078704 
L 276.939394 271.656026 
L 277.47619 271.574382 
L 278.012987 271.70222 
L 278.549784 271.408376 
L 279.08658 272.945731 
L 279.623377 272.541323 
L 280.160173 273.316219 
L 280.69697 272.416312 
L 281.233766 272.780854 
L 281.770563 273.910643 
L 282.307359 273.391759 
L 282.844156 275.736943 
L 283.380952 274.474877 
L 283.917749 275.321581 
L 284.454545 274.92028 
L 284.991342 275.98609 
L 285.528139 271.259923 
L 286.064935 277.128625 
L 286.601732 277.146972 
L 287.138528 279.881579 
L 287.675325 271.523113 
L 288.748918 274.245374 
L 289.285714 277.694909 
L 289.822511 273.413095 
L 290.359307 275.659944 
L 290.896104 274.093717 
L 291.4329 274.476791 
L 291.969697 279.950935 
L 292.506494 279.09843 
L 293.04329 275.824757 
L 293.580087 276.378023 
L 294.116883 273.512733 
L 295.190476 278.517379 
L 295.727273 276.211758 
L 296.264069 277.697227 
L 296.800866 273.60533 
L 297.874459 276.663305 
L 298.411255 276.802267 
L 298.948052 277.174182 
L 299.484848 277.249249 
L 300.021645 278.014772 
L 300.558442 274.756159 
L 301.095238 277.475891 
L 301.632035 274.760844 
L 302.168831 280.753957 
L 303.242424 276.531007 
L 303.779221 277.381023 
L 304.316017 278.998758 
L 304.852814 277.927133 
L 305.38961 281.363878 
L 307 277.28372 
L 307.536797 278.975393 
L 308.073593 278.84526 
L 309.147186 276.637771 
L 309.683983 276.18955 
L 310.220779 278.92265 
L 310.757576 278.691635 
L 311.294372 277.038888 
L 312.367965 281.748008 
L 312.904762 280.424483 
L 313.441558 279.436796 
L 313.978355 278.971858 
L 314.515152 280.029437 
L 315.588745 278.016139 
L 316.125541 277.82337 
L 316.662338 277.380497 
L 317.199134 279.557391 
L 317.735931 280.033523 
L 318.272727 280.003312 
L 318.809524 281.452808 
L 319.34632 281.608682 
L 319.883117 282.036992 
L 320.419913 276.274321 
L 320.95671 278.185728 
L 321.493506 279.345987 
L 322.030303 280.060918 
L 322.5671 279.167288 
L 323.103896 279.139242 
L 323.640693 280.516091 
L 324.177489 278.067654 
L 324.714286 280.350949 
L 325.251082 279.809093 
L 325.787879 281.017554 
L 326.324675 282.633271 
L 326.861472 282.904135 
L 327.398268 282.129624 
L 327.935065 279.964572 
L 328.471861 281.113228 
L 329.008658 280.643634 
L 329.545455 279.496723 
L 330.082251 282.662598 
L 330.619048 280.021519 
L 331.155844 278.301919 
L 331.692641 274.561611 
L 332.229437 282.479579 
L 332.766234 281.688484 
L 333.30303 279.42925 
L 333.839827 284.098139 
L 334.376623 280.754956 
L 334.91342 285.091272 
L 335.450216 281.787619 
L 335.987013 282.141702 
L 336.52381 281.93968 
L 337.060606 284.491955 
L 337.597403 281.147026 
L 338.134199 284.932175 
L 338.670996 283.915146 
L 339.207792 284.377098 
L 339.744589 282.608041 
L 340.281385 283.408765 
L 340.818182 279.273273 
L 341.354978 281.460282 
L 341.891775 282.752838 
L 342.428571 281.829112 
L 342.965368 281.484359 
L 343.502165 282.275391 
L 344.038961 284.860764 
L 344.575758 283.99009 
L 345.112554 286.138201 
L 345.649351 283.364842 
L 346.186147 282.336011 
L 346.722944 284.044791 
L 347.25974 281.979287 
L 347.796537 283.50445 
L 348.333333 285.631859 
L 348.87013 284.804493 
L 349.406926 283.175844 
L 349.943723 286.009541 
L 350.480519 282.849465 
L 351.017316 283.538378 
L 351.554113 286.079345 
L 352.090909 283.981795 
L 352.627706 285.456949 
L 353.164502 282.941249 
L 353.701299 284.049335 
L 354.238095 283.360062 
L 354.774892 284.850798 
L 355.311688 285.755747 
L 355.848485 283.225265 
L 356.385281 283.34062 
L 356.922078 284.847527 
L 357.458874 284.805796 
L 357.995671 282.21929 
L 358.532468 286.73912 
L 359.069264 282.055673 
L 359.606061 286.091875 
L 360.142857 284.644801 
L 360.679654 286.261047 
L 361.21645 286.394647 
L 361.753247 285.584352 
L 362.290043 287.192989 
L 362.82684 283.312161 
L 363.363636 283.234039 
L 363.900433 285.025885 
L 364.437229 287.468613 
L 364.974026 285.981683 
L 365.510823 283.717347 
L 366.047619 283.601446 
L 367.121212 282.815256 
L 367.658009 285.364476 
L 368.194805 286.905018 
L 368.731602 283.502092 
L 369.268398 287.040907 
L 369.805195 287.836255 
L 370.878788 285.58032 
L 371.415584 283.365286 
L 371.952381 288.197774 
L 372.489177 287.095693 
L 373.025974 283.583352 
L 373.562771 285.321851 
L 374.099567 282.802608 
L 374.636364 287.204987 
L 375.17316 282.974955 
L 375.709957 288.041339 
L 376.246753 286.316279 
L 376.78355 286.880572 
L 377.320346 284.319987 
L 377.857143 287.383522 
L 378.393939 286.01427 
L 378.930736 283.477387 
L 379.467532 287.353846 
L 380.004329 288.58327 
L 380.541126 288.918009 
L 381.077922 285.768284 
L 381.614719 288.433595 
L 382.151515 284.779608 
L 382.688312 287.639482 
L 383.225108 288.484151 
L 383.761905 285.112066 
L 384.298701 286.318084 
L 384.835498 288.470545 
L 385.372294 288.113708 
L 385.909091 285.853452 
L 386.445887 285.787817 
L 386.982684 287.107427 
L 387.519481 286.44753 
L 388.056277 286.641103 
L 388.593074 287.708157 
L 389.12987 282.954777 
L 389.666667 287.953977 
L 390.203463 286.40343 
L 390.74026 287.363382 
L 391.277056 288.722863 
L 391.813853 284.106612 
L 392.350649 289.527975 
L 392.887446 288.535355 
L 393.424242 288.932379 
L 393.961039 288.126213 
L 394.497835 289.889361 
L 395.034632 286.529309 
L 395.571429 291.244198 
L 396.108225 286.343949 
L 397.181818 288.642286 
L 397.718615 287.707014 
L 398.255411 288.012523 
L 398.792208 287.553913 
L 399.329004 289.712176 
L 399.865801 290.851815 
L 400.402597 286.527366 
L 400.939394 287.581251 
L 401.47619 287.33908 
L 402.012987 289.091343 
L 402.549784 287.205411 
L 403.08658 287.449507 
L 403.623377 289.867371 
L 404.160173 290.555328 
L 404.69697 287.703488 
L 405.233766 285.785248 
L 405.770563 288.381854 
L 406.307359 285.168326 
L 406.844156 290.507435 
L 407.380952 290.277887 
L 407.917749 289.577326 
L 408.454545 290.353408 
L 408.991342 288.967664 
L 409.528139 287.22541 
L 410.064935 287.80413 
L 410.601732 294.063676 
L 411.675325 287.258076 
L 412.212121 286.894884 
L 412.748918 289.339711 
L 413.285714 289.514486 
L 413.822511 291.491716 
L 414.359307 288.694804 
L 414.896104 286.607035 
L 415.4329 290.662419 
L 415.969697 286.570387 
L 416.506494 287.606687 
L 417.04329 287.479529 
L 417.580087 287.109228 
L 418.116883 289.578119 
L 418.65368 289.756257 
L 419.190476 290.522276 
L 419.727273 290.77543 
L 420.264069 290.517956 
L 420.800866 289.868098 
L 421.337662 289.754112 
L 421.874459 291.240681 
L 422.411255 292.19295 
L 422.948052 291.720422 
L 423.484848 290.333073 
L 424.021645 292.515656 
L 425.095238 288.021592 
L 425.632035 289.866135 
L 426.705628 290.305051 
L 427.242424 290.326506 
L 427.779221 292.262435 
L 428.316017 289.633452 
L 428.852814 289.732495 
L 429.38961 291.777543 
L 429.926407 287.328164 
L 430.463203 289.185175 
L 431 292.576729 
L 431.536797 290.194092 
L 432.073593 291.604897 
L 432.61039 291.301384 
L 433.147186 290.082799 
L 433.683983 286.810638 
L 434.220779 291.656733 
L 434.757576 289.216234 
L 435.294372 291.522049 
L 435.831169 293.281625 
L 436.367965 288.987778 
L 436.904762 291.376761 
L 437.441558 288.517668 
L 437.978355 292.548609 
L 438.515152 292.586367 
L 439.051948 291.702129 
L 440.125541 291.483762 
L 440.662338 291.509843 
L 441.199134 294.333187 
L 441.735931 289.370932 
L 442.272727 289.15737 
L 442.809524 292.925826 
L 443.34632 291.738749 
L 443.883117 292.92958 
L 444.419913 290.847491 
L 444.95671 287.12351 
L 445.493506 289.689768 
L 446.030303 289.795737 
L 446.5671 294.511437 
L 447.103896 292.110241 
L 447.640693 291.943499 
L 448.177489 293.248192 
L 448.714286 290.195297 
L 449.787879 293.003385 
L 450.324675 289.547094 
L 450.861472 289.340918 
L 451.935065 291.896218 
L 452.471861 291.493016 
L 453.008658 291.426587 
L 453.545455 292.071564 
L 454.082251 290.596867 
L 455.155844 291.957713 
L 455.692641 293.740517 
L 456.229437 292.393756 
L 456.766234 294.126486 
L 457.30303 288.743151 
L 457.839827 293.933585 
L 459.450216 292.272068 
L 459.987013 292.810145 
L 460.52381 293.109797 
L 461.060606 295.396412 
L 461.597403 292.743741 
L 462.134199 293.836256 
L 463.207792 289.880601 
L 463.744589 291.15356 
L 464.281385 291.555158 
L 464.818182 293.303741 
L 465.354978 292.698719 
L 465.891775 292.454055 
L 466.428571 292.563177 
L 466.965368 291.614251 
L 467.502165 293.436959 
L 468.038961 293.025257 
L 468.575758 291.938035 
L 469.112554 292.550615 
L 469.649351 294.145982 
L 470.186147 291.245346 
L 470.722944 290.767521 
L 471.25974 292.093797 
L 471.796537 290.777649 
L 472.333333 292.162427 
L 472.87013 292.788451 
L 473.406926 292.025355 
L 473.943723 295.323818 
L 474.480519 293.269423 
L 475.017316 292.988678 
L 475.554113 294.874102 
L 476.090909 293.350683 
L 476.627706 293.333021 
L 477.164502 294.060935 
L 477.701299 293.095125 
L 478.238095 292.531647 
L 478.774892 292.954513 
L 479.311688 294.179319 
L 479.848485 291.443961 
L 480.385281 290.861909 
L 480.922078 291.736993 
L 481.458874 296.19763 
L 481.995671 292.153178 
L 482.532468 293.559424 
L 483.069264 291.802166 
L 483.606061 296.363278 
L 484.142857 294.352212 
L 484.679654 291.611628 
L 485.21645 293.443115 
L 485.753247 290.310256 
L 486.290043 295.56836 
L 486.82684 291.996502 
L 487.363636 292.443349 
L 487.900433 289.391193 
L 488.437229 293.174067 
L 488.974026 295.394284 
L 489.510823 293.099492 
L 490.047619 293.225155 
L 490.584416 291.711283 
L 491.658009 294.435999 
L 492.194805 291.985168 
L 492.731602 293.549283 
L 493.268398 293.241304 
L 493.805195 295.355046 
L 494.341991 292.112038 
L 494.878788 292.598935 
L 495.415584 293.355593 
L 495.952381 291.555786 
L 496.489177 295.191441 
L 497.025974 292.167001 
L 497.562771 292.059786 
L 498.099567 295.211338 
L 498.636364 293.891089 
L 499.17316 295.077096 
L 499.709957 292.613389 
L 500.246753 295.825922 
L 500.78355 295.430915 
L 501.320346 292.511972 
L 501.857143 295.530952 
L 502.393939 296.048038 
L 502.930736 293.987294 
L 503.467532 294.616838 
L 504.541126 292.151707 
L 505.077922 295.542112 
L 505.614719 292.700016 
L 506.151515 294.468646 
L 506.688312 293.781607 
L 507.225108 294.958784 
L 507.761905 295.864792 
L 508.298701 292.987335 
L 508.835498 294.179344 
L 509.372294 294.194829 
L 509.909091 295.822937 
L 510.445887 295.86047 
L 510.982684 295.635873 
L 511.519481 293.430041 
L 512.056277 296.06853 
L 512.593074 292.80159 
L 513.12987 292.181975 
L 513.666667 294.553103 
L 514.203463 293.329716 
L 514.74026 293.689262 
L 515.277056 292.304648 
L 516.350649 293.785352 
L 516.887446 295.08095 
L 517.424242 295.515906 
L 517.961039 292.628423 
L 519.034632 293.954232 
L 519.571429 295.44842 
L 520.108225 295.969925 
L 520.645022 295.690187 
L 521.181818 296.073657 
L 521.718615 295.491509 
L 522.255411 297.336786 
L 522.792208 297.624211 
L 523.329004 295.736616 
L 523.865801 296.357375 
L 524.402597 293.16058 
L 524.939394 293.138042 
L 525.47619 295.977973 
L 526.012987 297.204972 
L 526.549784 295.435334 
L 527.08658 295.743154 
L 527.623377 293.622124 
L 528.160173 293.328632 
L 528.69697 296.604412 
L 529.233766 295.070756 
L 529.770563 296.651678 
L 530.307359 296.319326 
L 530.844156 293.473542 
L 531.380952 295.921897 
L 531.917749 296.116034 
L 532.454545 294.225563 
L 532.991342 296.375176 
L 533.528139 297.07467 
L 534.064935 296.089113 
L 534.601732 295.397802 
L 535.138528 294.249786 
L 535.675325 296.416047 
L 536.212121 297.721699 
L 536.748918 295.933714 
L 537.285714 294.806077 
L 537.822511 296.240467 
L 538.359307 296.357551 
L 538.896104 297.335319 
L 539.4329 297.860725 
L 539.969697 297.125351 
L 540.506494 298.086121 
L 541.04329 295.77655 
L 541.580087 294.734699 
L 542.116883 297.275041 
L 542.65368 295.771202 
L 543.190476 298.71916 
L 543.727273 296.073938 
L 544.264069 300.377793 
L 544.800866 298.598418 
L 545.337662 296.336104 
L 545.874459 297.174752 
L 546.411255 296.396865 
L 546.948052 297.176676 
L 547.484848 295.93041 
L 548.021645 298.356347 
L 548.558442 293.299582 
L 549.095238 296.810599 
L 549.632035 293.544427 
L 550.168831 299.362143 
L 551.242424 295.593646 
L 551.779221 296.922993 
L 552.316017 295.727064 
L 552.852814 299.990969 
L 553.38961 296.101613 
L 553.926407 297.858935 
L 554.463203 295.662117 
L 555 296.533111 
L 555.536797 296.400695 
L 556.073593 294.664435 
L 557.147186 298.864389 
L 557.683983 293.362058 
L 558.220779 296.078368 
L 558.757576 297.639092 
L 559.831169 296.261874 
L 560.367965 298.534611 
L 561.441558 295.954015 
L 562.515152 297.30464 
L 563.051948 295.648178 
L 563.588745 298.439529 
L 564.125541 295.31403 
L 564.662338 297.419662 
L 565.199134 297.701966 
L 565.735931 295.401154 
L 566.272727 297.186295 
L 566.809524 297.806984 
L 567.34632 295.030419 
L 567.883117 296.935646 
L 568.419913 296.727271 
L 568.95671 297.601141 
L 569.493506 298.218721 
L 570.030303 297.750761 
L 570.5671 293.828779 
L 571.103896 296.033663 
L 571.640693 294.104365 
L 572.177489 297.852441 
L 572.714286 297.783353 
L 573.251082 297.956889 
L 573.787879 298.641645 
L 574.324675 298.369789 
L 574.861472 296.92691 
L 575.398268 297.492339 
L 575.935065 297.348728 
L 576.471861 297.423405 
L 577.008658 298.955476 
L 577.545455 296.023446 
L 578.082251 298.706008 
L 578.619048 299.484722 
L 579.155844 298.562926 
L 579.692641 295.098575 
L 580.229437 297.389363 
L 580.766234 297.349027 
L 581.30303 299.458086 
L 581.839827 298.529379 
L 582.376623 300.643028 
L 582.91342 299.718339 
L 583.450216 299.979658 
L 583.987013 299.063234 
L 584.52381 300.199713 
L 585.060606 296.758091 
L 585.597403 299.039744 
L 586.134199 297.945875 
L 586.670996 297.197047 
L 587.207792 295.898408 
L 587.744589 295.563917 
L 588.281385 299.655386 
L 588.818182 298.850542 
L 589.354978 297.326385 
L 589.891775 300.53555 
L 590.428571 296.667295 
L 590.965368 301.252773 
L 591.502165 299.398075 
L 592.038961 295.347691 
L 592.575758 296.955586 
L 593.112554 299.117123 
L 593.649351 298.007891 
L 594.186147 298.544766 
L 594.722944 297.439205 
L 595.25974 298.573305 
L 595.796537 298.036514 
L 596.333333 295.605668 
L 597.406926 298.276249 
L 597.943723 299.816074 
L 598.480519 299.51516 
L 599.017316 295.172121 
L 599.554113 300.087023 
L 600.090909 297.898037 
L 600.627706 297.55024 
L 601.164502 299.74413 
L 601.701299 297.917549 
L 602.238095 297.664342 
L 602.774892 298.760811 
L 603.311688 296.786213 
L 603.848485 299.037129 
L 605.458874 297.576626 
L 605.995671 300.38055 
L 606.532468 297.350028 
L 607.069264 298.149536 
L 607.606061 300.317784 
L 608.142857 297.185278 
L 608.679654 298.3285 
L 609.21645 298.888707 
L 609.753247 298.818414 
L 610.290043 300.572595 
L 610.82684 298.340693 
L 611.363636 297.369151 
L 611.900433 300.300185 
L 612.437229 297.291304 
L 612.974026 300.878507 
L 613.510823 300.412454 
L 614.047619 298.406791 
L 614.584416 302.645455 
L 615.121212 297.929936 
L 615.658009 297.839547 
L 616.194805 297.311047 
L 616.731602 300.363274 
L 617.268398 298.252927 
L 618.341991 301.297583 
L 618.878788 298.728212 
L 619.415584 298.760755 
L 619.952381 300.285156 
L 620.489177 299.851342 
L 621.025974 297.180983 
L 621.562771 298.732518 
L 622.099567 299.845663 
L 622.636364 297.274409 
L 622.636364 297.274409 
" style="fill:none;stroke:#1f77b4;stroke-linecap:square;stroke-width:0.5;"/>
   </g>
   <g id="line2d_24">
    <path clip-path="url(#p790d84616a)" d="M 115.363636 57.380253 
L 115.900433 61.043225 
L 116.437229 67.388526 
L 116.974026 65.376679 
L 117.510823 70.316737 
L 118.047619 70.987598 
L 118.584416 70.176429 
L 119.121212 71.248023 
L 119.658009 73.887137 
L 120.194805 73.122643 
L 120.731602 75.491124 
L 121.268398 75.12898 
L 121.805195 78.225844 
L 122.341991 77.61143 
L 123.415584 78.705432 
L 123.952381 74.823726 
L 124.489177 78.93008 
L 125.025974 80.749678 
L 125.562771 78.248356 
L 126.099567 78.014961 
L 126.636364 80.442178 
L 127.17316 80.793627 
L 127.709957 82.014817 
L 128.246753 83.945084 
L 128.78355 82.378042 
L 129.857143 83.195078 
L 130.393939 85.172736 
L 130.930736 84.801055 
L 131.467532 83.807142 
L 132.004329 87.655351 
L 133.077922 83.869492 
L 133.614719 86.18552 
L 134.151515 86.152626 
L 134.688312 86.33745 
L 135.225108 88.086855 
L 135.761905 87.022679 
L 136.298701 89.482809 
L 136.835498 88.71219 
L 138.445887 91.902819 
L 138.982684 90.914193 
L 139.519481 91.615723 
L 140.056277 92.09807 
L 140.593074 95.402632 
L 141.666667 95.752482 
L 142.203463 95.385174 
L 142.74026 97.389222 
L 143.277056 97.225018 
L 143.813853 96.342625 
L 144.350649 101.430475 
L 144.887446 104.018317 
L 145.424242 101.155292 
L 145.961039 105.980899 
L 147.034632 102.693395 
L 147.571429 108.851089 
L 148.108225 106.662053 
L 148.645022 108.487289 
L 149.181818 105.561051 
L 149.718615 110.740967 
L 150.792208 115.984914 
L 151.329004 116.662906 
L 151.865801 116.319914 
L 152.939394 120.918284 
L 153.47619 124.434407 
L 154.012987 125.134741 
L 154.549784 128.360413 
L 155.08658 130.825024 
L 155.623377 130.168127 
L 156.160173 136.249553 
L 156.69697 134.629965 
L 157.233766 137.902687 
L 158.844156 143.834398 
L 159.380952 148.254495 
L 159.917749 147.284933 
L 160.454545 153.068612 
L 160.991342 155.598478 
L 161.528139 160.100503 
L 162.064935 156.191561 
L 162.601732 160.322455 
L 163.138528 162.387669 
L 163.675325 162.959167 
L 164.212121 166.266841 
L 164.748918 166.910978 
L 165.285714 168.841259 
L 165.822511 171.859254 
L 166.359307 176.719777 
L 166.896104 174.446347 
L 167.4329 178.03837 
L 167.969697 177.599301 
L 168.506494 179.496623 
L 169.04329 180.183799 
L 169.580087 179.278603 
L 170.116883 183.703501 
L 170.65368 184.147295 
L 171.190476 186.214588 
L 171.727273 186.316795 
L 172.264069 189.619861 
L 172.800866 190.689591 
L 173.337662 193.475897 
L 173.874459 193.058238 
L 174.411255 196.455038 
L 174.948052 197.470957 
L 175.484848 194.977369 
L 176.558442 202.199938 
L 177.095238 204.15936 
L 177.632035 202.969201 
L 178.168831 205.043253 
L 178.705628 203.224484 
L 179.242424 208.903151 
L 179.779221 207.125835 
L 180.316017 210.508416 
L 180.852814 203.844759 
L 181.38961 211.250227 
L 181.926407 213.261177 
L 182.463203 212.903279 
L 183 213.665401 
L 183.536797 216.791544 
L 184.073593 218.091245 
L 184.61039 217.45366 
L 185.147186 219.286897 
L 185.683983 217.204492 
L 186.220779 219.690383 
L 186.757576 218.939604 
L 187.294372 219.697643 
L 187.831169 219.063612 
L 188.367965 219.939823 
L 188.904762 225.432079 
L 189.441558 225.428541 
L 189.978355 222.884077 
L 190.515152 224.600197 
L 191.051948 229.036711 
L 191.588745 227.614803 
L 192.662338 229.999442 
L 193.199134 229.427692 
L 193.735931 228.152154 
L 194.272727 229.681676 
L 194.809524 231.943481 
L 195.34632 229.68644 
L 195.883117 230.655586 
L 196.419913 232.363388 
L 196.95671 236.254853 
L 197.493506 232.87136 
L 198.030303 231.541812 
L 198.5671 234.748471 
L 199.103896 235.089713 
L 199.640693 231.772457 
L 200.177489 237.608953 
L 200.714286 232.876946 
L 201.251082 238.626428 
L 201.787879 238.141559 
L 202.324675 235.539489 
L 202.861472 235.069296 
L 203.398268 236.314333 
L 203.935065 236.796955 
L 204.471861 236.714256 
L 205.008658 238.663587 
L 205.545455 240.057791 
L 206.082251 237.679905 
L 206.619048 242.989663 
L 207.155844 240.065393 
L 207.692641 238.630872 
L 208.229437 241.186282 
L 208.766234 236.903012 
L 209.30303 240.465011 
L 209.839827 241.125155 
L 210.376623 243.105588 
L 210.91342 244.051525 
L 211.450216 242.422794 
L 211.987013 241.681577 
L 212.52381 242.24041 
L 213.060606 239.031256 
L 213.597403 241.728999 
L 214.134199 245.06109 
L 214.670996 243.064973 
L 215.207792 242.253283 
L 215.744589 242.930615 
L 216.281385 240.456102 
L 216.818182 243.181748 
L 217.354978 238.947473 
L 217.891775 246.260882 
L 218.428571 248.06056 
L 218.965368 245.354852 
L 219.502165 246.899133 
L 220.038961 243.438894 
L 220.575758 241.890026 
L 221.112554 243.905405 
L 221.649351 244.824306 
L 222.186147 244.621993 
L 222.722944 247.421222 
L 223.25974 243.131944 
L 223.796537 247.847127 
L 224.333333 249.057827 
L 224.87013 249.701162 
L 225.406926 247.535983 
L 225.943723 247.269386 
L 226.480519 247.937285 
L 227.017316 246.294146 
L 227.554113 245.783634 
L 228.090909 249.37331 
L 228.627706 251.369802 
L 229.164502 249.848545 
L 229.701299 247.789122 
L 230.238095 250.81777 
L 230.774892 252.633826 
L 231.311688 247.242967 
L 231.848485 253.244171 
L 232.385281 246.907739 
L 232.922078 250.614714 
L 233.458874 251.327702 
L 233.995671 254.742817 
L 235.069264 248.88458 
L 235.606061 251.027747 
L 236.142857 255.211062 
L 236.679654 249.966943 
L 237.21645 248.7412 
L 237.753247 251.303238 
L 238.290043 248.549235 
L 238.82684 249.684659 
L 239.363636 251.952744 
L 239.900433 252.913935 
L 240.437229 254.111535 
L 240.974026 251.856612 
L 241.510823 251.972414 
L 242.047619 252.27889 
L 242.584416 249.833837 
L 243.121212 254.466477 
L 243.658009 254.465453 
L 244.194805 247.264774 
L 245.268398 255.706982 
L 245.805195 255.839 
L 246.341991 249.645496 
L 246.878788 252.975248 
L 247.415584 253.252612 
L 247.952381 248.544059 
L 248.489177 254.839685 
L 249.025974 251.298463 
L 249.562771 252.750504 
L 250.099567 254.901464 
L 250.636364 254.892872 
L 251.17316 247.739301 
L 251.709957 254.80413 
L 252.246753 258.669948 
L 252.78355 252.338384 
L 253.320346 249.408096 
L 253.857143 254.895237 
L 254.393939 253.899641 
L 254.930736 246.581573 
L 255.467532 255.509097 
L 256.004329 250.938452 
L 256.541126 257.878267 
L 257.077922 249.667331 
L 257.614719 252.140643 
L 258.151515 253.463802 
L 258.688312 252.49033 
L 259.225108 253.214436 
L 259.761905 253.292963 
L 260.298701 252.292823 
L 260.835498 253.750873 
L 261.372294 254.390868 
L 261.909091 259.07346 
L 262.445887 255.1783 
L 262.982684 254.621869 
L 263.519481 255.688473 
L 264.056277 257.695301 
L 264.593074 252.785649 
L 265.12987 254.061477 
L 265.666667 254.381604 
L 266.203463 254.011109 
L 266.74026 256.66226 
L 267.277056 255.011809 
L 267.813853 255.187276 
L 268.350649 258.843117 
L 268.887446 256.419921 
L 269.424242 250.493173 
L 269.961039 257.940896 
L 270.497835 259.90614 
L 271.571429 253.152371 
L 272.108225 252.399989 
L 272.645022 253.981967 
L 273.181818 249.595462 
L 273.718615 255.387404 
L 274.792208 253.290685 
L 275.329004 255.65252 
L 275.865801 255.891099 
L 276.402597 256.553528 
L 276.939394 257.665505 
L 278.012987 256.793891 
L 278.549784 253.373413 
L 279.08658 256.441389 
L 279.623377 257.421774 
L 280.160173 254.205749 
L 280.69697 256.186417 
L 281.233766 254.139901 
L 281.770563 257.813998 
L 282.307359 252.640544 
L 282.844156 257.025856 
L 283.380952 254.686871 
L 283.917749 259.100196 
L 284.454545 256.93073 
L 284.991342 257.782114 
L 285.528139 252.819966 
L 286.064935 254.020563 
L 286.601732 258.932589 
L 287.138528 258.399716 
L 287.675325 258.033838 
L 288.212121 256.332488 
L 288.748918 258.273853 
L 289.285714 257.566086 
L 289.822511 253.303643 
L 290.896104 259.320281 
L 291.4329 256.530109 
L 291.969697 257.729335 
L 292.506494 256.104709 
L 293.04329 255.916864 
L 293.580087 254.532266 
L 294.116883 258.907417 
L 294.65368 259.073318 
L 295.190476 258.485153 
L 295.727273 254.17945 
L 296.800866 258.722216 
L 297.337662 256.13424 
L 297.874459 258.16796 
L 298.411255 259.168332 
L 298.948052 259.909375 
L 299.484848 259.289804 
L 300.021645 260.591282 
L 300.558442 255.695473 
L 301.095238 260.751238 
L 301.632035 257.478714 
L 302.168831 259.393522 
L 302.705628 256.069174 
L 303.242424 260.311249 
L 303.779221 262.846617 
L 304.852814 259.271312 
L 305.38961 253.831757 
L 305.926407 259.449641 
L 306.463203 258.896348 
L 307 257.847035 
L 307.536797 258.3085 
L 308.073593 260.723048 
L 308.61039 258.486679 
L 309.147186 260.643053 
L 309.683983 260.074264 
L 310.220779 256.101857 
L 310.757576 258.959018 
L 311.294372 260.529673 
L 311.831169 257.496046 
L 312.367965 258.868736 
L 312.904762 260.569924 
L 313.441558 260.610181 
L 313.978355 258.96728 
L 314.515152 259.701308 
L 315.051948 254.667303 
L 315.588745 262.269465 
L 316.125541 260.796865 
L 316.662338 261.882295 
L 317.199134 260.815508 
L 317.735931 262.125891 
L 318.272727 258.671309 
L 318.809524 256.005773 
L 319.34632 261.508723 
L 319.883117 263.881337 
L 320.419913 262.140743 
L 320.95671 257.549549 
L 321.493506 257.047767 
L 322.030303 260.147336 
L 322.5671 257.030126 
L 323.103896 260.582858 
L 323.640693 258.492189 
L 324.177489 259.378358 
L 324.714286 262.953426 
L 325.787879 263.395161 
L 326.324675 259.424275 
L 326.861472 260.359281 
L 327.398268 262.40763 
L 327.935065 256.137273 
L 328.471861 259.833952 
L 329.008658 257.638444 
L 329.545455 260.425264 
L 330.082251 259.085774 
L 330.619048 260.302769 
L 331.155844 260.227528 
L 331.692641 260.433428 
L 332.229437 261.675255 
L 332.766234 257.01139 
L 333.30303 261.255673 
L 333.839827 258.971822 
L 334.376623 261.909376 
L 334.91342 262.588125 
L 335.450216 257.688714 
L 335.987013 260.273967 
L 336.52381 258.207061 
L 337.060606 258.55153 
L 338.670996 261.782609 
L 339.207792 260.578399 
L 339.744589 257.309207 
L 340.281385 263.765021 
L 340.818182 262.116857 
L 341.354978 263.855674 
L 341.891775 258.854908 
L 342.428571 262.640603 
L 342.965368 260.475069 
L 343.502165 260.696782 
L 344.038961 261.314533 
L 344.575758 262.134902 
L 345.112554 260.052868 
L 345.649351 261.897218 
L 346.186147 264.96336 
L 346.722944 261.491719 
L 347.25974 258.921253 
L 347.796537 261.901815 
L 348.333333 258.276616 
L 348.87013 262.051349 
L 349.406926 260.235244 
L 349.943723 263.010216 
L 350.480519 261.288659 
L 351.017316 258.544074 
L 351.554113 261.893617 
L 352.090909 262.399912 
L 352.627706 260.698059 
L 353.164502 267.757196 
L 353.701299 261.747513 
L 354.238095 260.690111 
L 354.774892 261.218681 
L 355.311688 261.437257 
L 355.848485 261.163642 
L 356.922078 262.634831 
L 357.458874 265.090316 
L 357.995671 262.784602 
L 358.532468 262.036834 
L 359.069264 262.806488 
L 359.606061 264.155847 
L 360.142857 262.215656 
L 360.679654 262.790389 
L 361.21645 259.480917 
L 361.753247 257.771263 
L 362.290043 261.799668 
L 362.82684 253.905838 
L 363.363636 261.593775 
L 363.900433 260.796297 
L 364.437229 259.205909 
L 364.974026 259.773714 
L 365.510823 258.530618 
L 366.047619 261.587719 
L 366.584416 257.124599 
L 367.121212 263.811603 
L 367.658009 260.071705 
L 368.194805 255.438048 
L 368.731602 260.201305 
L 369.268398 260.295048 
L 369.805195 260.710619 
L 370.341991 262.046639 
L 370.878788 262.875316 
L 371.415584 258.892419 
L 371.952381 261.97399 
L 372.489177 258.852134 
L 373.025974 258.473406 
L 373.562771 266.366002 
L 374.099567 263.013238 
L 374.636364 264.13802 
L 375.17316 259.262364 
L 375.709957 265.267795 
L 376.246753 262.339646 
L 376.78355 262.165255 
L 377.320346 264.077236 
L 377.857143 263.959117 
L 378.393939 262.148024 
L 378.930736 263.342101 
L 379.467532 265.156505 
L 380.004329 262.30271 
L 380.541126 264.340433 
L 381.077922 265.672812 
L 381.614719 262.063792 
L 382.688312 265.147539 
L 383.225108 262.786104 
L 383.761905 264.979269 
L 384.298701 265.46459 
L 384.835498 262.117937 
L 385.372294 263.56329 
L 386.445887 263.635682 
L 386.982684 264.781683 
L 387.519481 260.988735 
L 388.056277 261.831626 
L 388.593074 266.196184 
L 389.12987 260.299306 
L 389.666667 263.099994 
L 390.203463 262.17249 
L 390.74026 262.307024 
L 391.277056 260.831875 
L 391.813853 262.084549 
L 392.350649 265.108206 
L 392.887446 262.700787 
L 393.424242 261.856479 
L 393.961039 260.15658 
L 394.497835 261.63578 
L 395.034632 260.909188 
L 395.571429 264.457197 
L 396.108225 259.56457 
L 396.645022 260.164552 
L 397.181818 260.449813 
L 397.718615 259.753363 
L 398.255411 263.761874 
L 398.792208 261.029451 
L 399.329004 268.671559 
L 399.865801 260.271037 
L 400.402597 262.970387 
L 400.939394 263.085991 
L 401.47619 262.245297 
L 402.012987 258.846493 
L 402.549784 260.791208 
L 403.08658 268.944314 
L 404.160173 258.392978 
L 404.69697 263.362866 
L 405.233766 266.394778 
L 405.770563 261.027686 
L 406.307359 263.525192 
L 406.844156 260.622687 
L 407.380952 260.284127 
L 407.917749 264.467513 
L 408.454545 266.626316 
L 408.991342 262.015154 
L 409.528139 264.621394 
L 410.064935 262.306066 
L 410.601732 260.59278 
L 411.138528 260.487353 
L 411.675325 265.125043 
L 412.212121 262.68646 
L 412.748918 262.621143 
L 413.285714 261.590056 
L 413.822511 262.793218 
L 414.359307 263.012661 
L 414.896104 264.518156 
L 415.4329 264.703577 
L 415.969697 263.048185 
L 416.506494 258.083948 
L 417.04329 261.280123 
L 417.580087 262.361164 
L 418.116883 260.645598 
L 418.65368 260.350056 
L 419.190476 263.146829 
L 419.727273 258.602147 
L 420.264069 256.908283 
L 420.800866 259.213107 
L 421.337662 260.364859 
L 421.874459 262.544822 
L 422.411255 261.052452 
L 422.948052 260.691625 
L 423.484848 262.413111 
L 424.021645 261.2783 
L 424.558442 264.980633 
L 425.095238 262.865376 
L 425.632035 263.953434 
L 426.168831 259.878154 
L 426.705628 262.042067 
L 427.242424 260.382501 
L 427.779221 266.452806 
L 428.852814 263.076415 
L 429.38961 263.831024 
L 429.926407 264.392569 
L 430.463203 262.922446 
L 431 263.912915 
L 431.536797 262.088025 
L 432.073593 266.952675 
L 432.61039 262.189422 
L 433.147186 262.393152 
L 433.683983 260.410654 
L 434.220779 263.135878 
L 434.757576 263.280327 
L 435.294372 261.922537 
L 435.831169 260.904388 
L 436.367965 266.614735 
L 436.904762 264.629077 
L 437.441558 264.667654 
L 438.515152 262.757338 
L 439.051948 269.170124 
L 439.588745 263.74894 
L 440.125541 264.400164 
L 440.662338 264.701753 
L 441.199134 263.735506 
L 441.735931 264.025336 
L 442.272727 265.200981 
L 442.809524 260.99011 
L 443.34632 265.43006 
L 443.883117 261.864987 
L 444.419913 263.646829 
L 444.95671 266.386467 
L 445.493506 266.329377 
L 446.030303 262.698132 
L 446.5671 263.722119 
L 447.103896 263.419928 
L 447.640693 265.710741 
L 448.177489 264.593111 
L 448.714286 262.063851 
L 449.251082 255.847754 
L 449.787879 263.103882 
L 450.324675 264.995186 
L 450.861472 260.587598 
L 451.398268 260.047883 
L 451.935065 258.127964 
L 453.008658 265.199581 
L 453.545455 259.653601 
L 454.082251 261.696952 
L 454.619048 265.806024 
L 455.155844 259.514522 
L 455.692641 265.426265 
L 456.229437 265.591206 
L 456.766234 264.8958 
L 457.30303 262.581643 
L 457.839827 265.991363 
L 458.376623 263.999377 
L 458.91342 262.538549 
L 459.450216 263.517764 
L 459.987013 259.79771 
L 460.52381 263.355182 
L 461.060606 265.083326 
L 461.597403 265.61066 
L 462.134199 263.642153 
L 462.670996 263.459216 
L 463.207792 261.877974 
L 464.281385 269.098826 
L 464.818182 259.954295 
L 465.354978 262.621564 
L 465.891775 267.67564 
L 466.428571 262.576084 
L 466.965368 260.864476 
L 467.502165 258.436076 
L 468.038961 260.143862 
L 468.575758 258.802077 
L 469.112554 262.978015 
L 469.649351 259.409228 
L 470.186147 264.23074 
L 470.722944 263.346082 
L 471.25974 264.851529 
L 471.796537 264.985219 
L 472.333333 260.319035 
L 472.87013 266.155639 
L 473.406926 264.146619 
L 475.017316 264.517815 
L 475.554113 262.741864 
L 476.090909 263.355196 
L 476.627706 260.587516 
L 477.164502 262.562019 
L 478.238095 262.40279 
L 478.774892 261.77622 
L 479.311688 261.70776 
L 479.848485 263.741264 
L 480.385281 262.551814 
L 480.922078 263.342869 
L 481.458874 262.33958 
L 481.995671 265.830669 
L 482.532468 265.560717 
L 483.069264 263.118223 
L 483.606061 264.711102 
L 484.142857 264.388808 
L 484.679654 263.808908 
L 485.21645 259.787949 
L 485.753247 260.629245 
L 486.290043 264.223837 
L 486.82684 263.638756 
L 487.363636 261.245596 
L 487.900433 257.894579 
L 488.437229 269.767509 
L 488.974026 265.490496 
L 489.510823 263.457743 
L 490.047619 266.781279 
L 490.584416 265.719065 
L 491.658009 258.709528 
L 492.194805 265.414247 
L 492.731602 266.875402 
L 493.268398 259.931424 
L 493.805195 260.924469 
L 494.341991 265.408601 
L 494.878788 264.227075 
L 495.415584 266.86227 
L 495.952381 262.148133 
L 496.489177 262.247233 
L 497.025974 266.000871 
L 497.562771 262.544209 
L 498.099567 260.53055 
L 498.636364 263.211561 
L 499.17316 265.166366 
L 500.246753 262.345833 
L 500.78355 261.99341 
L 501.320346 261.119253 
L 501.857143 266.40032 
L 502.393939 263.441076 
L 502.930736 261.8512 
L 503.467532 261.780384 
L 504.004329 263.1129 
L 504.541126 266.7756 
L 505.077922 257.664662 
L 505.614719 260.765094 
L 506.688312 264.540101 
L 507.225108 264.065518 
L 507.761905 263.75644 
L 508.298701 263.994285 
L 508.835498 267.118352 
L 509.909091 257.909583 
L 510.445887 262.057359 
L 510.982684 260.437117 
L 511.519481 262.04637 
L 512.056277 264.394358 
L 512.593074 259.927351 
L 513.12987 260.504224 
L 514.203463 264.22374 
L 514.74026 261.542759 
L 515.277056 266.082274 
L 515.813853 264.750182 
L 516.350649 260.563756 
L 516.887446 261.36976 
L 517.424242 264.750705 
L 517.961039 266.977699 
L 518.497835 263.563647 
L 519.034632 261.436012 
L 519.571429 259.922033 
L 520.108225 262.788065 
L 520.645022 264.783296 
L 521.181818 261.995007 
L 522.255411 264.853593 
L 522.792208 261.963662 
L 523.329004 262.263236 
L 523.865801 259.670429 
L 524.402597 260.647494 
L 524.939394 260.420715 
L 525.47619 263.767146 
L 526.012987 266.181475 
L 526.549784 265.803742 
L 527.08658 261.499267 
L 527.623377 264.051219 
L 528.160173 262.145078 
L 528.69697 263.009433 
L 529.233766 264.323788 
L 529.770563 264.077413 
L 530.307359 260.065645 
L 530.844156 262.361714 
L 531.380952 261.870241 
L 532.454545 263.274939 
L 532.991342 262.422804 
L 533.528139 265.262119 
L 534.064935 262.927151 
L 534.601732 263.02717 
L 535.138528 262.266115 
L 535.675325 263.752267 
L 536.212121 263.411929 
L 536.748918 260.815259 
L 537.285714 260.587392 
L 537.822511 262.46716 
L 538.359307 260.173405 
L 538.896104 261.715814 
L 539.4329 264.384296 
L 539.969697 261.868238 
L 540.506494 264.870864 
L 541.04329 264.89419 
L 541.580087 267.210015 
L 542.116883 261.69032 
L 542.65368 263.232345 
L 543.190476 263.876552 
L 543.727273 260.418717 
L 544.264069 265.580975 
L 544.800866 264.338829 
L 545.337662 264.216925 
L 545.874459 267.164608 
L 546.411255 261.05274 
L 546.948052 264.000753 
L 547.484848 265.385529 
L 548.021645 263.811896 
L 548.558442 258.726388 
L 549.095238 263.869659 
L 549.632035 262.689308 
L 550.168831 257.695083 
L 550.705628 259.512838 
L 551.242424 259.58623 
L 551.779221 264.336501 
L 552.316017 261.607515 
L 552.852814 263.690042 
L 553.38961 260.390047 
L 553.926407 261.448723 
L 554.463203 265.080523 
L 555 265.535777 
L 555.536797 262.288096 
L 556.073593 261.759267 
L 556.61039 261.645465 
L 557.147186 262.402093 
L 557.683983 265.594608 
L 558.220779 265.523904 
L 558.757576 264.537359 
L 559.294372 262.889202 
L 559.831169 260.867431 
L 560.367965 263.288676 
L 560.904762 263.791113 
L 561.441558 262.169758 
L 561.978355 262.139047 
L 562.515152 260.462447 
L 563.051948 256.570494 
L 564.125541 265.327883 
L 564.662338 266.165388 
L 565.199134 258.9101 
L 565.735931 266.665547 
L 566.272727 266.812382 
L 566.809524 259.232166 
L 567.34632 267.077329 
L 567.883117 263.057075 
L 568.419913 264.815264 
L 568.95671 256.502845 
L 569.493506 259.452735 
L 570.030303 264.6449 
L 570.5671 267.372042 
L 571.103896 264.387369 
L 571.640693 265.263264 
L 572.177489 267.933687 
L 572.714286 263.070621 
L 573.251082 263.67329 
L 573.787879 260.955311 
L 574.324675 261.753148 
L 574.861472 261.620075 
L 575.398268 267.254208 
L 575.935065 263.670898 
L 577.008658 261.68201 
L 578.082251 266.129213 
L 578.619048 262.323991 
L 579.155844 263.605739 
L 579.692641 262.613354 
L 580.229437 266.026251 
L 580.766234 260.194353 
L 581.30303 262.294483 
L 581.839827 261.990423 
L 582.376623 262.778864 
L 582.91342 262.282874 
L 583.450216 265.697008 
L 583.987013 263.396997 
L 584.52381 265.308078 
L 585.060606 262.181502 
L 585.597403 257.93892 
L 586.134199 262.305253 
L 586.670996 261.529801 
L 587.207792 261.607386 
L 587.744589 263.976445 
L 588.281385 261.350718 
L 589.354978 265.923241 
L 589.891775 266.896527 
L 590.428571 261.278019 
L 590.965368 263.21493 
L 591.502165 259.158311 
L 592.038961 261.42173 
L 592.575758 262.336645 
L 593.112554 260.814418 
L 593.649351 257.951543 
L 594.186147 261.33854 
L 594.722944 259.874966 
L 595.25974 261.237615 
L 596.333333 267.363809 
L 596.87013 260.475745 
L 597.406926 261.347606 
L 597.943723 260.222931 
L 598.480519 260.182402 
L 599.017316 264.520284 
L 599.554113 260.712318 
L 600.090909 262.245984 
L 600.627706 259.71713 
L 601.164502 262.136823 
L 601.701299 261.016432 
L 602.238095 260.301242 
L 602.774892 262.609143 
L 603.311688 257.993967 
L 603.848485 263.928504 
L 604.385281 260.059025 
L 604.922078 266.58475 
L 605.458874 268.575472 
L 605.995671 262.017391 
L 606.532468 262.023906 
L 607.069264 260.452502 
L 607.606061 263.20847 
L 608.142857 264.137508 
L 608.679654 265.526001 
L 609.21645 261.383964 
L 609.753247 264.461893 
L 610.290043 262.028368 
L 610.82684 262.130585 
L 611.363636 259.75809 
L 611.900433 259.43922 
L 612.437229 256.205795 
L 612.974026 263.667444 
L 613.510823 259.498533 
L 614.047619 262.299492 
L 614.584416 261.875276 
L 615.121212 260.825294 
L 616.194805 264.288481 
L 616.731602 264.476226 
L 617.268398 267.85313 
L 617.805195 260.406247 
L 618.341991 264.483243 
L 618.878788 259.008149 
L 619.415584 259.570141 
L 619.952381 263.995814 
L 620.489177 264.06569 
L 621.025974 265.221126 
L 621.562771 259.735849 
L 622.099567 259.485708 
L 622.636364 260.225848 
L 622.636364 260.225848 
" style="fill:none;stroke:#ff7f0e;stroke-linecap:square;stroke-width:0.5;"/>
   </g>
   <g id="patch_3">
    <path d="M 90 315 
L 90 43.2 
" style="fill:none;stroke:#000000;stroke-linecap:square;stroke-linejoin:miter;stroke-width:0.8;"/>
   </g>
   <g id="patch_4">
    <path d="M 648 315 
L 648 43.2 
" style="fill:none;stroke:#000000;stroke-linecap:square;stroke-linejoin:miter;stroke-width:0.8;"/>
   </g>
   <g id="patch_5">
    <path d="M 90 315 
L 648 315 
" style="fill:none;stroke:#000000;stroke-linecap:square;stroke-linejoin:miter;stroke-width:0.8;"/>
   </g>
   <g id="patch_6">
    <path d="M 90 43.2 
L 648 43.2 
" style="fill:none;stroke:#000000;stroke-linecap:square;stroke-linejoin:miter;stroke-width:0.8;"/>
   </g>
   <g id="text_14">
    <!-- loss -->
    <g transform="translate(357.410625 37.2)scale(0.12 -0.12)">
     <use xlink:href="#DejaVuSans-108"/>
     <use x="27.783203" xlink:href="#DejaVuSans-111"/>
     <use x="88.964844" xlink:href="#DejaVuSans-115"/>
     <use x="141.064453" xlink:href="#DejaVuSans-115"/>
    </g>
   </g>
   <g id="legend_1">
    <g id="patch_7">
     <path d="M 568.846875 80.55625 
L 641 80.55625 
Q 643 80.55625 643 78.55625 
L 643 50.2 
Q 643 48.2 641 48.2 
L 568.846875 48.2 
Q 566.846875 48.2 566.846875 50.2 
L 566.846875 78.55625 
Q 566.846875 80.55625 568.846875 80.55625 
z
" style="fill:#ffffff;opacity:0.8;stroke:#cccccc;stroke-linejoin:miter;"/>
    </g>
    <g id="line2d_25">
     <path d="M 570.846875 56.298437 
L 590.846875 56.298437 
" style="fill:none;stroke:#1f77b4;stroke-linecap:square;stroke-width:0.5;"/>
    </g>
    <g id="line2d_26"/>
    <g id="text_15">
     <!-- train -->
     <defs>
      <path d="M 18.3125 70.21875 
L 18.3125 54.6875 
L 36.8125 54.6875 
L 36.8125 47.703125 
L 18.3125 47.703125 
L 18.3125 18.015625 
Q 18.3125 11.328125 20.140625 9.421875 
Q 21.96875 7.515625 27.59375 7.515625 
L 36.8125 7.515625 
L 36.8125 0 
L 27.59375 0 
Q 17.1875 0 13.234375 3.875 
Q 9.28125 7.765625 9.28125 18.015625 
L 9.28125 47.703125 
L 2.6875 47.703125 
L 2.6875 54.6875 
L 9.28125 54.6875 
L 9.28125 70.21875 
z
" id="DejaVuSans-116"/>
      <path d="M 41.109375 46.296875 
Q 39.59375 47.171875 37.8125 47.578125 
Q 36.03125 48 33.890625 48 
Q 26.265625 48 22.1875 43.046875 
Q 18.109375 38.09375 18.109375 28.8125 
L 18.109375 0 
L 9.078125 0 
L 9.078125 54.6875 
L 18.109375 54.6875 
L 18.109375 46.1875 
Q 20.953125 51.171875 25.484375 53.578125 
Q 30.03125 56 36.53125 56 
Q 37.453125 56 38.578125 55.875 
Q 39.703125 55.765625 41.0625 55.515625 
z
" id="DejaVuSans-114"/>
      <path d="M 34.28125 27.484375 
Q 23.390625 27.484375 19.1875 25 
Q 14.984375 22.515625 14.984375 16.5 
Q 14.984375 11.71875 18.140625 8.90625 
Q 21.296875 6.109375 26.703125 6.109375 
Q 34.1875 6.109375 38.703125 11.40625 
Q 43.21875 16.703125 43.21875 25.484375 
L 43.21875 27.484375 
z
M 52.203125 31.203125 
L 52.203125 0 
L 43.21875 0 
L 43.21875 8.296875 
Q 40.140625 3.328125 35.546875 0.953125 
Q 30.953125 -1.421875 24.3125 -1.421875 
Q 15.921875 -1.421875 10.953125 3.296875 
Q 6 8.015625 6 15.921875 
Q 6 25.140625 12.171875 29.828125 
Q 18.359375 34.515625 30.609375 34.515625 
L 43.21875 34.515625 
L 43.21875 35.40625 
Q 43.21875 41.609375 39.140625 45 
Q 35.0625 48.390625 27.6875 48.390625 
Q 23 48.390625 18.546875 47.265625 
Q 14.109375 46.140625 10.015625 43.890625 
L 10.015625 52.203125 
Q 14.9375 54.109375 19.578125 55.046875 
Q 24.21875 56 28.609375 56 
Q 40.484375 56 46.34375 49.84375 
Q 52.203125 43.703125 52.203125 31.203125 
z
" id="DejaVuSans-97"/>
      <path d="M 9.421875 54.6875 
L 18.40625 54.6875 
L 18.40625 0 
L 9.421875 0 
z
M 9.421875 75.984375 
L 18.40625 75.984375 
L 18.40625 64.59375 
L 9.421875 64.59375 
z
" id="DejaVuSans-105"/>
      <path d="M 54.890625 33.015625 
L 54.890625 0 
L 45.90625 0 
L 45.90625 32.71875 
Q 45.90625 40.484375 42.875 44.328125 
Q 39.84375 48.1875 33.796875 48.1875 
Q 26.515625 48.1875 22.3125 43.546875 
Q 18.109375 38.921875 18.109375 30.90625 
L 18.109375 0 
L 9.078125 0 
L 9.078125 54.6875 
L 18.109375 54.6875 
L 18.109375 46.1875 
Q 21.34375 51.125 25.703125 53.5625 
Q 30.078125 56 35.796875 56 
Q 45.21875 56 50.046875 50.171875 
Q 54.890625 44.34375 54.890625 33.015625 
z
" id="DejaVuSans-110"/>
     </defs>
     <g transform="translate(598.846875 59.798437)scale(0.1 -0.1)">
      <use xlink:href="#DejaVuSans-116"/>
      <use x="39.208984" xlink:href="#DejaVuSans-114"/>
      <use x="80.322266" xlink:href="#DejaVuSans-97"/>
      <use x="141.601562" xlink:href="#DejaVuSans-105"/>
      <use x="169.384766" xlink:href="#DejaVuSans-110"/>
     </g>
    </g>
    <g id="line2d_27">
     <path d="M 570.846875 70.976562 
L 590.846875 70.976562 
" style="fill:none;stroke:#ff7f0e;stroke-linecap:square;stroke-width:0.5;"/>
    </g>
    <g id="line2d_28"/>
    <g id="text_16">
     <!-- validate -->
     <defs>
      <path d="M 2.984375 54.6875 
L 12.5 54.6875 
L 29.59375 8.796875 
L 46.6875 54.6875 
L 56.203125 54.6875 
L 35.6875 0 
L 23.484375 0 
z
" id="DejaVuSans-118"/>
      <path d="M 45.40625 46.390625 
L 45.40625 75.984375 
L 54.390625 75.984375 
L 54.390625 0 
L 45.40625 0 
L 45.40625 8.203125 
Q 42.578125 3.328125 38.25 0.953125 
Q 33.9375 -1.421875 27.875 -1.421875 
Q 17.96875 -1.421875 11.734375 6.484375 
Q 5.515625 14.40625 5.515625 27.296875 
Q 5.515625 40.1875 11.734375 48.09375 
Q 17.96875 56 27.875 56 
Q 33.9375 56 38.25 53.625 
Q 42.578125 51.265625 45.40625 46.390625 
z
M 14.796875 27.296875 
Q 14.796875 17.390625 18.875 11.75 
Q 22.953125 6.109375 30.078125 6.109375 
Q 37.203125 6.109375 41.296875 11.75 
Q 45.40625 17.390625 45.40625 27.296875 
Q 45.40625 37.203125 41.296875 42.84375 
Q 37.203125 48.484375 30.078125 48.484375 
Q 22.953125 48.484375 18.875 42.84375 
Q 14.796875 37.203125 14.796875 27.296875 
z
" id="DejaVuSans-100"/>
     </defs>
     <g transform="translate(598.846875 74.476562)scale(0.1 -0.1)">
      <use xlink:href="#DejaVuSans-118"/>
      <use x="59.179688" xlink:href="#DejaVuSans-97"/>
      <use x="120.458984" xlink:href="#DejaVuSans-108"/>
      <use x="148.242188" xlink:href="#DejaVuSans-105"/>
      <use x="176.025391" xlink:href="#DejaVuSans-100"/>
      <use x="239.501953" xlink:href="#DejaVuSans-97"/>
      <use x="300.78125" xlink:href="#DejaVuSans-116"/>
      <use x="339.990234" xlink:href="#DejaVuSans-101"/>
     </g>
    </g>
   </g>
  </g>
 </g>
 <defs>
  <clipPath id="p790d84616a">
   <rect height="271.8" width="558" x="90" y="43.2"/>
  </clipPath>
 </defs>
</svg>
