<?xml version="1.0" encoding="utf-8" standalone="no"?>
<!DOCTYPE svg PUBLIC "-//W3C//DTD SVG 1.1//EN"
  "http://www.w3.org/Graphics/SVG/1.1/DTD/svg11.dtd">
<!-- Created with matplotlib (https://matplotlib.org/) -->
<svg height="360pt" version="1.1" viewBox="0 0 720 360" width="720pt" xmlns="http://www.w3.org/2000/svg" xmlns:xlink="http://www.w3.org/1999/xlink">
 <defs>
  <style type="text/css">
*{stroke-linecap:butt;stroke-linejoin:round;}
  </style>
 </defs>
 <g id="figure_1">
  <g id="patch_1">
   <path d="M 0 360 
L 720 360 
L 720 0 
L 0 0 
z
" style="fill:#ffffff;"/>
  </g>
  <g id="axes_1">
   <g id="patch_2">
    <path d="M 90 315 
L 648 315 
L 648 43.2 
L 90 43.2 
z
" style="fill:#ffffff;"/>
   </g>
   <g id="matplotlib.axis_1">
    <g id="xtick_1">
     <g id="line2d_1">
      <path clip-path="url(#p2432187e6c)" d="M 115.363636 315 
L 115.363636 43.2 
" style="fill:none;stroke:#b0b0b0;stroke-linecap:square;stroke-width:0.8;"/>
     </g>
     <g id="line2d_2">
      <defs>
       <path d="M 0 0 
L 0 3.5 
" id="me4966f21b0" style="stroke:#000000;stroke-width:0.8;"/>
      </defs>
      <g>
       <use style="stroke:#000000;stroke-width:0.8;" x="115.363636" xlink:href="#me4966f21b0" y="315"/>
      </g>
     </g>
     <g id="text_1">
      <!-- 0 -->
      <defs>
       <path d="M 31.78125 66.40625 
Q 24.171875 66.40625 20.328125 58.90625 
Q 16.5 51.421875 16.5 36.375 
Q 16.5 21.390625 20.328125 13.890625 
Q 24.171875 6.390625 31.78125 6.390625 
Q 39.453125 6.390625 43.28125 13.890625 
Q 47.125 21.390625 47.125 36.375 
Q 47.125 51.421875 43.28125 58.90625 
Q 39.453125 66.40625 31.78125 66.40625 
z
M 31.78125 74.21875 
Q 44.046875 74.21875 50.515625 64.515625 
Q 56.984375 54.828125 56.984375 36.375 
Q 56.984375 17.96875 50.515625 8.265625 
Q 44.046875 -1.421875 31.78125 -1.421875 
Q 19.53125 -1.421875 13.0625 8.265625 
Q 6.59375 17.96875 6.59375 36.375 
Q 6.59375 54.828125 13.0625 64.515625 
Q 19.53125 74.21875 31.78125 74.21875 
z
" id="DejaVuSans-48"/>
      </defs>
      <g transform="translate(112.182386 329.598437)scale(0.1 -0.1)">
       <use xlink:href="#DejaVuSans-48"/>
      </g>
     </g>
    </g>
    <g id="xtick_2">
     <g id="line2d_3">
      <path clip-path="url(#p2432187e6c)" d="M 230.784052 315 
L 230.784052 43.2 
" style="fill:none;stroke:#b0b0b0;stroke-linecap:square;stroke-width:0.8;"/>
     </g>
     <g id="line2d_4">
      <g>
       <use style="stroke:#000000;stroke-width:0.8;" x="230.784052" xlink:href="#me4966f21b0" y="315"/>
      </g>
     </g>
     <g id="text_2">
      <!-- 200 -->
      <defs>
       <path d="M 19.1875 8.296875 
L 53.609375 8.296875 
L 53.609375 0 
L 7.328125 0 
L 7.328125 8.296875 
Q 12.9375 14.109375 22.625 23.890625 
Q 32.328125 33.6875 34.8125 36.53125 
Q 39.546875 41.84375 41.421875 45.53125 
Q 43.3125 49.21875 43.3125 52.78125 
Q 43.3125 58.59375 39.234375 62.25 
Q 35.15625 65.921875 28.609375 65.921875 
Q 23.96875 65.921875 18.8125 64.3125 
Q 13.671875 62.703125 7.8125 59.421875 
L 7.8125 69.390625 
Q 13.765625 71.78125 18.9375 73 
Q 24.125 74.21875 28.421875 74.21875 
Q 39.75 74.21875 46.484375 68.546875 
Q 53.21875 62.890625 53.21875 53.421875 
Q 53.21875 48.921875 51.53125 44.890625 
Q 49.859375 40.875 45.40625 35.40625 
Q 44.1875 33.984375 37.640625 27.21875 
Q 31.109375 20.453125 19.1875 8.296875 
z
" id="DejaVuSans-50"/>
      </defs>
      <g transform="translate(221.240302 329.598437)scale(0.1 -0.1)">
       <use xlink:href="#DejaVuSans-50"/>
       <use x="63.623047" xlink:href="#DejaVuSans-48"/>
       <use x="127.246094" xlink:href="#DejaVuSans-48"/>
      </g>
     </g>
    </g>
    <g id="xtick_3">
     <g id="line2d_5">
      <path clip-path="url(#p2432187e6c)" d="M 346.204468 315 
L 346.204468 43.2 
" style="fill:none;stroke:#b0b0b0;stroke-linecap:square;stroke-width:0.8;"/>
     </g>
     <g id="line2d_6">
      <g>
       <use style="stroke:#000000;stroke-width:0.8;" x="346.204468" xlink:href="#me4966f21b0" y="315"/>
      </g>
     </g>
     <g id="text_3">
      <!-- 400 -->
      <defs>
       <path d="M 37.796875 64.3125 
L 12.890625 25.390625 
L 37.796875 25.390625 
z
M 35.203125 72.90625 
L 47.609375 72.90625 
L 47.609375 25.390625 
L 58.015625 25.390625 
L 58.015625 17.1875 
L 47.609375 17.1875 
L 47.609375 0 
L 37.796875 0 
L 37.796875 17.1875 
L 4.890625 17.1875 
L 4.890625 26.703125 
z
" id="DejaVuSans-52"/>
      </defs>
      <g transform="translate(336.660718 329.598437)scale(0.1 -0.1)">
       <use xlink:href="#DejaVuSans-52"/>
       <use x="63.623047" xlink:href="#DejaVuSans-48"/>
       <use x="127.246094" xlink:href="#DejaVuSans-48"/>
      </g>
     </g>
    </g>
    <g id="xtick_4">
     <g id="line2d_7">
      <path clip-path="url(#p2432187e6c)" d="M 461.624884 315 
L 461.624884 43.2 
" style="fill:none;stroke:#b0b0b0;stroke-linecap:square;stroke-width:0.8;"/>
     </g>
     <g id="line2d_8">
      <g>
       <use style="stroke:#000000;stroke-width:0.8;" x="461.624884" xlink:href="#me4966f21b0" y="315"/>
      </g>
     </g>
     <g id="text_4">
      <!-- 600 -->
      <defs>
       <path d="M 33.015625 40.375 
Q 26.375 40.375 22.484375 35.828125 
Q 18.609375 31.296875 18.609375 23.390625 
Q 18.609375 15.53125 22.484375 10.953125 
Q 26.375 6.390625 33.015625 6.390625 
Q 39.65625 6.390625 43.53125 10.953125 
Q 47.40625 15.53125 47.40625 23.390625 
Q 47.40625 31.296875 43.53125 35.828125 
Q 39.65625 40.375 33.015625 40.375 
z
M 52.59375 71.296875 
L 52.59375 62.3125 
Q 48.875 64.0625 45.09375 64.984375 
Q 41.3125 65.921875 37.59375 65.921875 
Q 27.828125 65.921875 22.671875 59.328125 
Q 17.53125 52.734375 16.796875 39.40625 
Q 19.671875 43.65625 24.015625 45.921875 
Q 28.375 48.1875 33.59375 48.1875 
Q 44.578125 48.1875 50.953125 41.515625 
Q 57.328125 34.859375 57.328125 23.390625 
Q 57.328125 12.15625 50.6875 5.359375 
Q 44.046875 -1.421875 33.015625 -1.421875 
Q 20.359375 -1.421875 13.671875 8.265625 
Q 6.984375 17.96875 6.984375 36.375 
Q 6.984375 53.65625 15.1875 63.9375 
Q 23.390625 74.21875 37.203125 74.21875 
Q 40.921875 74.21875 44.703125 73.484375 
Q 48.484375 72.75 52.59375 71.296875 
z
" id="DejaVuSans-54"/>
      </defs>
      <g transform="translate(452.081134 329.598437)scale(0.1 -0.1)">
       <use xlink:href="#DejaVuSans-54"/>
       <use x="63.623047" xlink:href="#DejaVuSans-48"/>
       <use x="127.246094" xlink:href="#DejaVuSans-48"/>
      </g>
     </g>
    </g>
    <g id="xtick_5">
     <g id="line2d_9">
      <path clip-path="url(#p2432187e6c)" d="M 577.045299 315 
L 577.045299 43.2 
" style="fill:none;stroke:#b0b0b0;stroke-linecap:square;stroke-width:0.8;"/>
     </g>
     <g id="line2d_10">
      <g>
       <use style="stroke:#000000;stroke-width:0.8;" x="577.045299" xlink:href="#me4966f21b0" y="315"/>
      </g>
     </g>
     <g id="text_5">
      <!-- 800 -->
      <defs>
       <path d="M 31.78125 34.625 
Q 24.75 34.625 20.71875 30.859375 
Q 16.703125 27.09375 16.703125 20.515625 
Q 16.703125 13.921875 20.71875 10.15625 
Q 24.75 6.390625 31.78125 6.390625 
Q 38.8125 6.390625 42.859375 10.171875 
Q 46.921875 13.96875 46.921875 20.515625 
Q 46.921875 27.09375 42.890625 30.859375 
Q 38.875 34.625 31.78125 34.625 
z
M 21.921875 38.8125 
Q 15.578125 40.375 12.03125 44.71875 
Q 8.5 49.078125 8.5 55.328125 
Q 8.5 64.0625 14.71875 69.140625 
Q 20.953125 74.21875 31.78125 74.21875 
Q 42.671875 74.21875 48.875 69.140625 
Q 55.078125 64.0625 55.078125 55.328125 
Q 55.078125 49.078125 51.53125 44.71875 
Q 48 40.375 41.703125 38.8125 
Q 48.828125 37.15625 52.796875 32.3125 
Q 56.78125 27.484375 56.78125 20.515625 
Q 56.78125 9.90625 50.3125 4.234375 
Q 43.84375 -1.421875 31.78125 -1.421875 
Q 19.734375 -1.421875 13.25 4.234375 
Q 6.78125 9.90625 6.78125 20.515625 
Q 6.78125 27.484375 10.78125 32.3125 
Q 14.796875 37.15625 21.921875 38.8125 
z
M 18.3125 54.390625 
Q 18.3125 48.734375 21.84375 45.5625 
Q 25.390625 42.390625 31.78125 42.390625 
Q 38.140625 42.390625 41.71875 45.5625 
Q 45.3125 48.734375 45.3125 54.390625 
Q 45.3125 60.0625 41.71875 63.234375 
Q 38.140625 66.40625 31.78125 66.40625 
Q 25.390625 66.40625 21.84375 63.234375 
Q 18.3125 60.0625 18.3125 54.390625 
z
" id="DejaVuSans-56"/>
      </defs>
      <g transform="translate(567.501549 329.598437)scale(0.1 -0.1)">
       <use xlink:href="#DejaVuSans-56"/>
       <use x="63.623047" xlink:href="#DejaVuSans-48"/>
       <use x="127.246094" xlink:href="#DejaVuSans-48"/>
      </g>
     </g>
    </g>
    <g id="text_6">
     <!-- epoch -->
     <defs>
      <path d="M 56.203125 29.59375 
L 56.203125 25.203125 
L 14.890625 25.203125 
Q 15.484375 15.921875 20.484375 11.0625 
Q 25.484375 6.203125 34.421875 6.203125 
Q 39.59375 6.203125 44.453125 7.46875 
Q 49.3125 8.734375 54.109375 11.28125 
L 54.109375 2.78125 
Q 49.265625 0.734375 44.1875 -0.34375 
Q 39.109375 -1.421875 33.890625 -1.421875 
Q 20.796875 -1.421875 13.15625 6.1875 
Q 5.515625 13.8125 5.515625 26.8125 
Q 5.515625 40.234375 12.765625 48.109375 
Q 20.015625 56 32.328125 56 
Q 43.359375 56 49.78125 48.890625 
Q 56.203125 41.796875 56.203125 29.59375 
z
M 47.21875 32.234375 
Q 47.125 39.59375 43.09375 43.984375 
Q 39.0625 48.390625 32.421875 48.390625 
Q 24.90625 48.390625 20.390625 44.140625 
Q 15.875 39.890625 15.1875 32.171875 
z
" id="DejaVuSans-101"/>
      <path d="M 18.109375 8.203125 
L 18.109375 -20.796875 
L 9.078125 -20.796875 
L 9.078125 54.6875 
L 18.109375 54.6875 
L 18.109375 46.390625 
Q 20.953125 51.265625 25.265625 53.625 
Q 29.59375 56 35.59375 56 
Q 45.5625 56 51.78125 48.09375 
Q 58.015625 40.1875 58.015625 27.296875 
Q 58.015625 14.40625 51.78125 6.484375 
Q 45.5625 -1.421875 35.59375 -1.421875 
Q 29.59375 -1.421875 25.265625 0.953125 
Q 20.953125 3.328125 18.109375 8.203125 
z
M 48.6875 27.296875 
Q 48.6875 37.203125 44.609375 42.84375 
Q 40.53125 48.484375 33.40625 48.484375 
Q 26.265625 48.484375 22.1875 42.84375 
Q 18.109375 37.203125 18.109375 27.296875 
Q 18.109375 17.390625 22.1875 11.75 
Q 26.265625 6.109375 33.40625 6.109375 
Q 40.53125 6.109375 44.609375 11.75 
Q 48.6875 17.390625 48.6875 27.296875 
z
" id="DejaVuSans-112"/>
      <path d="M 30.609375 48.390625 
Q 23.390625 48.390625 19.1875 42.75 
Q 14.984375 37.109375 14.984375 27.296875 
Q 14.984375 17.484375 19.15625 11.84375 
Q 23.34375 6.203125 30.609375 6.203125 
Q 37.796875 6.203125 41.984375 11.859375 
Q 46.1875 17.53125 46.1875 27.296875 
Q 46.1875 37.015625 41.984375 42.703125 
Q 37.796875 48.390625 30.609375 48.390625 
z
M 30.609375 56 
Q 42.328125 56 49.015625 48.375 
Q 55.71875 40.765625 55.71875 27.296875 
Q 55.71875 13.875 49.015625 6.21875 
Q 42.328125 -1.421875 30.609375 -1.421875 
Q 18.84375 -1.421875 12.171875 6.21875 
Q 5.515625 13.875 5.515625 27.296875 
Q 5.515625 40.765625 12.171875 48.375 
Q 18.84375 56 30.609375 56 
z
" id="DejaVuSans-111"/>
      <path d="M 48.78125 52.59375 
L 48.78125 44.1875 
Q 44.96875 46.296875 41.140625 47.34375 
Q 37.3125 48.390625 33.40625 48.390625 
Q 24.65625 48.390625 19.8125 42.84375 
Q 14.984375 37.3125 14.984375 27.296875 
Q 14.984375 17.28125 19.8125 11.734375 
Q 24.65625 6.203125 33.40625 6.203125 
Q 37.3125 6.203125 41.140625 7.25 
Q 44.96875 8.296875 48.78125 10.40625 
L 48.78125 2.09375 
Q 45.015625 0.34375 40.984375 -0.53125 
Q 36.96875 -1.421875 32.421875 -1.421875 
Q 20.0625 -1.421875 12.78125 6.34375 
Q 5.515625 14.109375 5.515625 27.296875 
Q 5.515625 40.671875 12.859375 48.328125 
Q 20.21875 56 33.015625 56 
Q 37.15625 56 41.109375 55.140625 
Q 45.0625 54.296875 48.78125 52.59375 
z
" id="DejaVuSans-99"/>
      <path d="M 54.890625 33.015625 
L 54.890625 0 
L 45.90625 0 
L 45.90625 32.71875 
Q 45.90625 40.484375 42.875 44.328125 
Q 39.84375 48.1875 33.796875 48.1875 
Q 26.515625 48.1875 22.3125 43.546875 
Q 18.109375 38.921875 18.109375 30.90625 
L 18.109375 0 
L 9.078125 0 
L 9.078125 75.984375 
L 18.109375 75.984375 
L 18.109375 46.1875 
Q 21.34375 51.125 25.703125 53.5625 
Q 30.078125 56 35.796875 56 
Q 45.21875 56 50.046875 50.171875 
Q 54.890625 44.34375 54.890625 33.015625 
z
" id="DejaVuSans-104"/>
     </defs>
     <g transform="translate(353.771875 343.276563)scale(0.1 -0.1)">
      <use xlink:href="#DejaVuSans-101"/>
      <use x="61.523438" xlink:href="#DejaVuSans-112"/>
      <use x="125" xlink:href="#DejaVuSans-111"/>
      <use x="186.181641" xlink:href="#DejaVuSans-99"/>
      <use x="241.162109" xlink:href="#DejaVuSans-104"/>
     </g>
    </g>
   </g>
   <g id="matplotlib.axis_2">
    <g id="ytick_1">
     <g id="line2d_11">
      <path clip-path="url(#p2432187e6c)" d="M 90 283.252264 
L 648 283.252264 
" style="fill:none;stroke:#b0b0b0;stroke-linecap:square;stroke-width:0.8;"/>
     </g>
     <g id="line2d_12">
      <defs>
       <path d="M 0 0 
L -3.5 0 
" id="mf914f75f11" style="stroke:#000000;stroke-width:0.8;"/>
      </defs>
      <g>
       <use style="stroke:#000000;stroke-width:0.8;" x="90" xlink:href="#mf914f75f11" y="283.252264"/>
      </g>
     </g>
     <g id="text_7">
      <!-- 0.3 -->
      <defs>
       <path d="M 10.6875 12.40625 
L 21 12.40625 
L 21 0 
L 10.6875 0 
z
" id="DejaVuSans-46"/>
       <path d="M 40.578125 39.3125 
Q 47.65625 37.796875 51.625 33 
Q 55.609375 28.21875 55.609375 21.1875 
Q 55.609375 10.40625 48.1875 4.484375 
Q 40.765625 -1.421875 27.09375 -1.421875 
Q 22.515625 -1.421875 17.65625 -0.515625 
Q 12.796875 0.390625 7.625 2.203125 
L 7.625 11.71875 
Q 11.71875 9.328125 16.59375 8.109375 
Q 21.484375 6.890625 26.8125 6.890625 
Q 36.078125 6.890625 40.9375 10.546875 
Q 45.796875 14.203125 45.796875 21.1875 
Q 45.796875 27.640625 41.28125 31.265625 
Q 36.765625 34.90625 28.71875 34.90625 
L 20.21875 34.90625 
L 20.21875 43.015625 
L 29.109375 43.015625 
Q 36.375 43.015625 40.234375 45.921875 
Q 44.09375 48.828125 44.09375 54.296875 
Q 44.09375 59.90625 40.109375 62.90625 
Q 36.140625 65.921875 28.71875 65.921875 
Q 24.65625 65.921875 20.015625 65.03125 
Q 15.375 64.15625 9.8125 62.3125 
L 9.8125 71.09375 
Q 15.4375 72.65625 20.34375 73.4375 
Q 25.25 74.21875 29.59375 74.21875 
Q 40.828125 74.21875 47.359375 69.109375 
Q 53.90625 64.015625 53.90625 55.328125 
Q 53.90625 49.265625 50.4375 45.09375 
Q 46.96875 40.921875 40.578125 39.3125 
z
" id="DejaVuSans-51"/>
      </defs>
      <g transform="translate(67.096875 287.051482)scale(0.1 -0.1)">
       <use xlink:href="#DejaVuSans-48"/>
       <use x="63.623047" xlink:href="#DejaVuSans-46"/>
       <use x="95.410156" xlink:href="#DejaVuSans-51"/>
      </g>
     </g>
    </g>
    <g id="ytick_2">
     <g id="line2d_13">
      <path clip-path="url(#p2432187e6c)" d="M 90 243.875226 
L 648 243.875226 
" style="fill:none;stroke:#b0b0b0;stroke-linecap:square;stroke-width:0.8;"/>
     </g>
     <g id="line2d_14">
      <g>
       <use style="stroke:#000000;stroke-width:0.8;" x="90" xlink:href="#mf914f75f11" y="243.875226"/>
      </g>
     </g>
     <g id="text_8">
      <!-- 0.4 -->
      <g transform="translate(67.096875 247.674445)scale(0.1 -0.1)">
       <use xlink:href="#DejaVuSans-48"/>
       <use x="63.623047" xlink:href="#DejaVuSans-46"/>
       <use x="95.410156" xlink:href="#DejaVuSans-52"/>
      </g>
     </g>
    </g>
    <g id="ytick_3">
     <g id="line2d_15">
      <path clip-path="url(#p2432187e6c)" d="M 90 204.498189 
L 648 204.498189 
" style="fill:none;stroke:#b0b0b0;stroke-linecap:square;stroke-width:0.8;"/>
     </g>
     <g id="line2d_16">
      <g>
       <use style="stroke:#000000;stroke-width:0.8;" x="90" xlink:href="#mf914f75f11" y="204.498189"/>
      </g>
     </g>
     <g id="text_9">
      <!-- 0.5 -->
      <defs>
       <path d="M 10.796875 72.90625 
L 49.515625 72.90625 
L 49.515625 64.59375 
L 19.828125 64.59375 
L 19.828125 46.734375 
Q 21.96875 47.46875 24.109375 47.828125 
Q 26.265625 48.1875 28.421875 48.1875 
Q 40.625 48.1875 47.75 41.5 
Q 54.890625 34.8125 54.890625 23.390625 
Q 54.890625 11.625 47.5625 5.09375 
Q 40.234375 -1.421875 26.90625 -1.421875 
Q 22.3125 -1.421875 17.546875 -0.640625 
Q 12.796875 0.140625 7.71875 1.703125 
L 7.71875 11.625 
Q 12.109375 9.234375 16.796875 8.0625 
Q 21.484375 6.890625 26.703125 6.890625 
Q 35.15625 6.890625 40.078125 11.328125 
Q 45.015625 15.765625 45.015625 23.390625 
Q 45.015625 31 40.078125 35.4375 
Q 35.15625 39.890625 26.703125 39.890625 
Q 22.75 39.890625 18.8125 39.015625 
Q 14.890625 38.140625 10.796875 36.28125 
z
" id="DejaVuSans-53"/>
      </defs>
      <g transform="translate(67.096875 208.297408)scale(0.1 -0.1)">
       <use xlink:href="#DejaVuSans-48"/>
       <use x="63.623047" xlink:href="#DejaVuSans-46"/>
       <use x="95.410156" xlink:href="#DejaVuSans-53"/>
      </g>
     </g>
    </g>
    <g id="ytick_4">
     <g id="line2d_17">
      <path clip-path="url(#p2432187e6c)" d="M 90 165.121152 
L 648 165.121152 
" style="fill:none;stroke:#b0b0b0;stroke-linecap:square;stroke-width:0.8;"/>
     </g>
     <g id="line2d_18">
      <g>
       <use style="stroke:#000000;stroke-width:0.8;" x="90" xlink:href="#mf914f75f11" y="165.121152"/>
      </g>
     </g>
     <g id="text_10">
      <!-- 0.6 -->
      <g transform="translate(67.096875 168.920371)scale(0.1 -0.1)">
       <use xlink:href="#DejaVuSans-48"/>
       <use x="63.623047" xlink:href="#DejaVuSans-46"/>
       <use x="95.410156" xlink:href="#DejaVuSans-54"/>
      </g>
     </g>
    </g>
    <g id="ytick_5">
     <g id="line2d_19">
      <path clip-path="url(#p2432187e6c)" d="M 90 125.744114 
L 648 125.744114 
" style="fill:none;stroke:#b0b0b0;stroke-linecap:square;stroke-width:0.8;"/>
     </g>
     <g id="line2d_20">
      <g>
       <use style="stroke:#000000;stroke-width:0.8;" x="90" xlink:href="#mf914f75f11" y="125.744114"/>
      </g>
     </g>
     <g id="text_11">
      <!-- 0.7 -->
      <defs>
       <path d="M 8.203125 72.90625 
L 55.078125 72.90625 
L 55.078125 68.703125 
L 28.609375 0 
L 18.3125 0 
L 43.21875 64.59375 
L 8.203125 64.59375 
z
" id="DejaVuSans-55"/>
      </defs>
      <g transform="translate(67.096875 129.543333)scale(0.1 -0.1)">
       <use xlink:href="#DejaVuSans-48"/>
       <use x="63.623047" xlink:href="#DejaVuSans-46"/>
       <use x="95.410156" xlink:href="#DejaVuSans-55"/>
      </g>
     </g>
    </g>
    <g id="ytick_6">
     <g id="line2d_21">
      <path clip-path="url(#p2432187e6c)" d="M 90 86.367077 
L 648 86.367077 
" style="fill:none;stroke:#b0b0b0;stroke-linecap:square;stroke-width:0.8;"/>
     </g>
     <g id="line2d_22">
      <g>
       <use style="stroke:#000000;stroke-width:0.8;" x="90" xlink:href="#mf914f75f11" y="86.367077"/>
      </g>
     </g>
     <g id="text_12">
      <!-- 0.8 -->
      <g transform="translate(67.096875 90.166296)scale(0.1 -0.1)">
       <use xlink:href="#DejaVuSans-48"/>
       <use x="63.623047" xlink:href="#DejaVuSans-46"/>
       <use x="95.410156" xlink:href="#DejaVuSans-56"/>
      </g>
     </g>
    </g>
    <g id="ytick_7">
     <g id="line2d_23">
      <path clip-path="url(#p2432187e6c)" d="M 90 46.99004 
L 648 46.99004 
" style="fill:none;stroke:#b0b0b0;stroke-linecap:square;stroke-width:0.8;"/>
     </g>
     <g id="line2d_24">
      <g>
       <use style="stroke:#000000;stroke-width:0.8;" x="90" xlink:href="#mf914f75f11" y="46.99004"/>
      </g>
     </g>
     <g id="text_13">
      <!-- 0.9 -->
      <defs>
       <path d="M 10.984375 1.515625 
L 10.984375 10.5 
Q 14.703125 8.734375 18.5 7.8125 
Q 22.3125 6.890625 25.984375 6.890625 
Q 35.75 6.890625 40.890625 13.453125 
Q 46.046875 20.015625 46.78125 33.40625 
Q 43.953125 29.203125 39.59375 26.953125 
Q 35.25 24.703125 29.984375 24.703125 
Q 19.046875 24.703125 12.671875 31.3125 
Q 6.296875 37.9375 6.296875 49.421875 
Q 6.296875 60.640625 12.9375 67.421875 
Q 19.578125 74.21875 30.609375 74.21875 
Q 43.265625 74.21875 49.921875 64.515625 
Q 56.59375 54.828125 56.59375 36.375 
Q 56.59375 19.140625 48.40625 8.859375 
Q 40.234375 -1.421875 26.421875 -1.421875 
Q 22.703125 -1.421875 18.890625 -0.6875 
Q 15.09375 0.046875 10.984375 1.515625 
z
M 30.609375 32.421875 
Q 37.25 32.421875 41.125 36.953125 
Q 45.015625 41.5 45.015625 49.421875 
Q 45.015625 57.28125 41.125 61.84375 
Q 37.25 66.40625 30.609375 66.40625 
Q 23.96875 66.40625 20.09375 61.84375 
Q 16.21875 57.28125 16.21875 49.421875 
Q 16.21875 41.5 20.09375 36.953125 
Q 23.96875 32.421875 30.609375 32.421875 
z
" id="DejaVuSans-57"/>
      </defs>
      <g transform="translate(67.096875 50.789259)scale(0.1 -0.1)">
       <use xlink:href="#DejaVuSans-48"/>
       <use x="63.623047" xlink:href="#DejaVuSans-46"/>
       <use x="95.410156" xlink:href="#DejaVuSans-57"/>
      </g>
     </g>
    </g>
    <g id="text_14">
     <!-- accuracy -->
     <defs>
      <path d="M 34.28125 27.484375 
Q 23.390625 27.484375 19.1875 25 
Q 14.984375 22.515625 14.984375 16.5 
Q 14.984375 11.71875 18.140625 8.90625 
Q 21.296875 6.109375 26.703125 6.109375 
Q 34.1875 6.109375 38.703125 11.40625 
Q 43.21875 16.703125 43.21875 25.484375 
L 43.21875 27.484375 
z
M 52.203125 31.203125 
L 52.203125 0 
L 43.21875 0 
L 43.21875 8.296875 
Q 40.140625 3.328125 35.546875 0.953125 
Q 30.953125 -1.421875 24.3125 -1.421875 
Q 15.921875 -1.421875 10.953125 3.296875 
Q 6 8.015625 6 15.921875 
Q 6 25.140625 12.171875 29.828125 
Q 18.359375 34.515625 30.609375 34.515625 
L 43.21875 34.515625 
L 43.21875 35.40625 
Q 43.21875 41.609375 39.140625 45 
Q 35.0625 48.390625 27.6875 48.390625 
Q 23 48.390625 18.546875 47.265625 
Q 14.109375 46.140625 10.015625 43.890625 
L 10.015625 52.203125 
Q 14.9375 54.109375 19.578125 55.046875 
Q 24.21875 56 28.609375 56 
Q 40.484375 56 46.34375 49.84375 
Q 52.203125 43.703125 52.203125 31.203125 
z
" id="DejaVuSans-97"/>
      <path d="M 8.5 21.578125 
L 8.5 54.6875 
L 17.484375 54.6875 
L 17.484375 21.921875 
Q 17.484375 14.15625 20.5 10.265625 
Q 23.53125 6.390625 29.59375 6.390625 
Q 36.859375 6.390625 41.078125 11.03125 
Q 45.3125 15.671875 45.3125 23.6875 
L 45.3125 54.6875 
L 54.296875 54.6875 
L 54.296875 0 
L 45.3125 0 
L 45.3125 8.40625 
Q 42.046875 3.421875 37.71875 1 
Q 33.40625 -1.421875 27.6875 -1.421875 
Q 18.265625 -1.421875 13.375 4.4375 
Q 8.5 10.296875 8.5 21.578125 
z
M 31.109375 56 
z
" id="DejaVuSans-117"/>
      <path d="M 41.109375 46.296875 
Q 39.59375 47.171875 37.8125 47.578125 
Q 36.03125 48 33.890625 48 
Q 26.265625 48 22.1875 43.046875 
Q 18.109375 38.09375 18.109375 28.8125 
L 18.109375 0 
L 9.078125 0 
L 9.078125 54.6875 
L 18.109375 54.6875 
L 18.109375 46.1875 
Q 20.953125 51.171875 25.484375 53.578125 
Q 30.03125 56 36.53125 56 
Q 37.453125 56 38.578125 55.875 
Q 39.703125 55.765625 41.0625 55.515625 
z
" id="DejaVuSans-114"/>
      <path d="M 32.171875 -5.078125 
Q 28.375 -14.84375 24.75 -17.8125 
Q 21.140625 -20.796875 15.09375 -20.796875 
L 7.90625 -20.796875 
L 7.90625 -13.28125 
L 13.1875 -13.28125 
Q 16.890625 -13.28125 18.9375 -11.515625 
Q 21 -9.765625 23.484375 -3.21875 
L 25.09375 0.875 
L 2.984375 54.6875 
L 12.5 54.6875 
L 29.59375 11.921875 
L 46.6875 54.6875 
L 56.203125 54.6875 
z
" id="DejaVuSans-121"/>
     </defs>
     <g transform="translate(61.017187 201.659375)rotate(-90)scale(0.1 -0.1)">
      <use xlink:href="#DejaVuSans-97"/>
      <use x="61.279297" xlink:href="#DejaVuSans-99"/>
      <use x="116.259766" xlink:href="#DejaVuSans-99"/>
      <use x="171.240234" xlink:href="#DejaVuSans-117"/>
      <use x="234.619141" xlink:href="#DejaVuSans-114"/>
      <use x="275.732422" xlink:href="#DejaVuSans-97"/>
      <use x="337.011719" xlink:href="#DejaVuSans-99"/>
      <use x="391.992188" xlink:href="#DejaVuSans-121"/>
     </g>
    </g>
   </g>
   <g id="line2d_25">
    <path clip-path="url(#p2432187e6c)" d="M 115.363636 299.593734 
L 115.940738 302.350127 
L 117.094943 297.624882 
L 117.672045 291.915212 
L 118.249147 291.718327 
L 118.826249 286.303984 
L 119.403351 289.55259 
L 119.980453 286.89464 
L 120.557555 286.008656 
L 121.134657 280.397428 
L 122.288861 284.335132 
L 122.865963 284.138247 
L 123.443065 276.164397 
L 124.020168 273.99866 
L 124.59727 270.257841 
L 125.174372 273.211119 
L 125.751474 265.040384 
L 126.328576 265.926367 
L 126.905678 264.941941 
L 127.48278 259.035386 
L 128.059882 256.475878 
L 129.214086 249.486454 
L 130.36829 236.984245 
L 130.945392 238.362441 
L 131.522495 224.383593 
L 132.099597 228.616624 
L 132.676699 229.404165 
L 133.253801 223.89138 
L 133.830903 220.150561 
L 134.408005 220.83966 
L 136.139311 201.446469 
L 136.716413 204.301304 
L 137.870617 194.555487 
L 138.44772 191.897537 
L 139.024822 190.224013 
L 139.601924 185.892539 
L 140.179026 185.104998 
L 141.33323 177.820246 
L 141.910332 178.903115 
L 142.487434 179.592213 
L 143.641638 169.058855 
L 144.21874 168.566643 
L 144.795842 166.400905 
L 145.372944 167.582217 
L 145.950047 163.447628 
L 146.527149 165.711807 
L 147.104251 160.592792 
L 147.681353 162.75853 
L 148.258455 158.525498 
L 148.835557 158.033285 
L 149.412659 159.903694 
L 149.989761 155.375335 
L 150.566863 153.898696 
L 151.143965 160.789678 
L 151.721067 150.846976 
L 152.298169 154.784679 
L 152.875271 147.499928 
L 153.452374 147.2046 
L 154.029476 150.059435 
L 154.606578 147.2046 
L 155.18368 146.121731 
L 155.760782 149.370337 
L 156.337884 145.531076 
L 157.492088 143.365339 
L 158.06919 143.168453 
L 158.646292 142.380913 
L 159.223394 139.23075 
L 159.800496 140.215176 
L 160.377599 138.246324 
L 160.954701 138.541652 
L 162.108905 136.769685 
L 162.686007 134.800833 
L 163.263109 136.277472 
L 163.840211 139.526078 
L 164.417313 132.635096 
L 164.994415 134.407063 
L 165.571517 130.567802 
L 166.148619 133.816407 
L 166.725721 133.717965 
L 167.302823 128.008294 
L 167.879926 128.205179 
L 168.457028 133.521079 
L 169.03413 130.272474 
L 169.611232 133.619522 
L 170.188334 130.863129 
L 170.765436 127.023868 
L 171.342538 124.858131 
L 172.496742 130.764687 
L 173.073844 128.894277 
L 173.650946 126.33477 
L 174.228048 122.593951 
L 174.80515 124.759689 
L 175.382253 125.941 
L 175.959355 121.215755 
L 176.536457 125.055016 
L 177.113559 122.003296 
L 177.690661 122.397066 
L 178.267763 125.055016 
L 178.844865 122.987722 
L 179.421967 119.050018 
L 179.999069 119.936001 
L 180.576171 121.806411 
L 181.153273 119.739116 
L 181.730375 119.739116 
L 182.307478 119.345346 
L 182.88458 115.801413 
L 183.461682 121.511083 
L 184.038784 121.215755 
L 184.615886 118.656248 
L 185.192988 115.112314 
L 185.77009 119.246903 
L 186.347192 113.931003 
L 186.924294 112.946577 
L 187.501396 116.687396 
L 188.078498 115.112314 
L 188.6556 111.568381 
L 189.232702 118.75469 
L 190.964009 111.962151 
L 191.541111 115.407642 
L 192.118213 113.931003 
L 192.695315 113.537233 
L 193.272417 113.635675 
L 193.849519 112.848135 
L 194.426621 112.749692 
L 195.003723 111.568381 
L 195.580825 112.65125 
L 196.157927 110.583955 
L 196.735029 113.931003 
L 197.312132 114.816987 
L 197.889234 106.547809 
L 198.466336 108.319775 
L 199.043438 106.350924 
L 199.62054 110.682398 
L 200.774744 106.547809 
L 201.351846 106.547809 
L 201.928948 110.288627 
L 202.50605 108.12289 
L 203.083152 107.138464 
L 203.660254 105.46494 
L 204.237357 108.811988 
L 204.814459 109.894857 
L 205.391561 106.449366 
L 205.968663 108.418218 
L 206.545765 108.910431 
L 207.122867 106.252481 
L 207.699969 106.252481 
L 208.277071 106.744694 
L 209.431275 101.921007 
L 210.008377 105.760268 
L 210.585479 105.169612 
L 211.162581 104.283629 
L 211.739684 101.428794 
L 212.316786 106.941579 
L 212.893888 103.496088 
L 213.47099 104.874285 
L 214.048092 102.511662 
L 214.625194 101.035024 
L 215.202296 103.003875 
L 215.779398 98.475516 
L 216.3565 101.330351 
L 216.933602 101.428794 
L 217.510704 99.952155 
L 218.087806 103.594531 
L 218.664908 100.838138 
L 219.242011 99.75527 
L 219.819113 98.967729 
L 220.396215 101.035024 
L 220.973317 99.952155 
L 221.550419 102.41322 
L 222.127521 100.838138 
L 222.704623 101.625679 
L 223.858827 97.786418 
L 224.435929 102.41322 
L 225.013031 100.641253 
L 225.590133 99.361499 
L 226.167235 97.392648 
L 226.744338 98.278631 
L 227.32144 101.133466 
L 227.898542 100.838138 
L 228.475644 98.967729 
L 229.052746 95.226911 
L 229.629848 94.83314 
L 230.20695 94.636255 
L 230.784052 92.470518 
L 231.361154 98.081746 
L 231.938256 100.247483 
L 232.515358 94.43937 
L 233.09246 99.066172 
L 233.669563 99.75527 
L 234.246665 94.931583 
L 234.823767 93.356501 
L 235.400869 92.667403 
L 235.977971 97.884861 
L 236.555073 100.14904 
L 237.132175 98.672401 
L 237.709277 96.014451 
L 238.286379 91.978305 
L 238.863481 96.112894 
L 239.440583 94.537812 
L 240.017685 95.620681 
L 240.594787 95.226911 
L 241.17189 96.014451 
L 241.748992 93.947157 
L 242.326094 92.765846 
L 242.903196 95.423796 
L 243.480298 93.061173 
L 244.0574 96.506664 
L 244.634502 96.309779 
L 245.211604 95.423796 
L 245.788706 95.226911 
L 246.365808 91.978305 
L 246.94291 94.734698 
L 247.520012 95.325353 
L 248.097114 94.340927 
L 248.674217 89.812568 
L 249.251319 93.848714 
L 249.828421 92.667403 
L 250.405523 91.78142 
L 250.982625 89.911011 
L 251.559727 90.206338 
L 252.136829 95.620681 
L 252.713931 91.092322 
L 253.291033 94.931583 
L 253.868135 92.470518 
L 254.445237 96.506664 
L 255.022339 93.848714 
L 255.599442 94.242485 
L 257.330748 89.911011 
L 257.90785 92.17519 
L 258.484952 90.698551 
L 259.062054 90.501666 
L 259.639156 88.532814 
L 260.216258 96.605107 
L 260.79336 92.273633 
L 261.370462 92.765846 
L 261.947564 92.962731 
L 262.524666 86.071749 
L 263.101769 92.667403 
L 263.678871 85.185766 
L 264.255973 89.812568 
L 264.833075 89.418798 
L 265.410177 87.154618 
L 265.987279 88.335929 
L 266.564381 90.403223 
L 267.141483 86.563962 
L 267.718585 84.693553 
L 268.295687 85.382651 
L 268.872789 88.040601 
L 269.449891 94.045599 
L 270.604096 86.170192 
L 271.7583 88.631257 
L 272.335402 86.071749 
L 272.912504 88.139044 
L 273.489606 83.709127 
L 274.066708 83.118472 
L 274.64381 88.532814 
L 275.220912 87.351503 
L 275.798014 85.481094 
L 276.375116 88.139044 
L 276.952218 86.071749 
L 277.529321 86.071749 
L 278.106423 86.268635 
L 278.683525 84.102898 
L 279.260627 86.85929 
L 279.837729 88.434372 
L 280.414831 89.51724 
L 280.991933 84.693553 
L 281.569035 87.646831 
L 282.146137 86.957733 
L 282.723239 88.729699 
L 283.300341 86.46552 
L 283.877443 87.646831 
L 284.454545 83.80757 
L 285.031648 84.59511 
L 285.60875 88.532814 
L 286.185852 88.139044 
L 286.762954 87.942159 
L 287.340056 90.796994 
L 287.917158 84.004455 
L 288.49426 85.481094 
L 289.071362 88.532814 
L 289.648464 86.760848 
L 290.225566 85.874864 
L 290.802668 86.367077 
L 291.37977 84.102898 
L 291.956872 83.216914 
L 292.533975 83.906012 
L 293.111077 89.911011 
L 293.688179 85.284209 
L 294.265281 83.610685 
L 294.842383 85.874864 
L 295.419485 83.709127 
L 295.996587 82.921586 
L 296.573689 87.351503 
L 297.150791 86.760848 
L 297.727893 83.610685 
L 298.304995 87.056175 
L 298.882097 79.672981 
L 299.4592 84.496668 
L 300.036302 86.071749 
L 300.613404 83.118472 
L 301.190506 84.791996 
L 301.767608 81.248062 
L 302.34471 87.942159 
L 302.921812 84.791996 
L 303.498914 83.610685 
L 304.076016 82.134046 
L 304.653118 81.248062 
L 305.23022 83.020029 
L 305.807322 80.657407 
L 306.384424 83.020029 
L 306.961527 83.709127 
L 307.538629 82.527816 
L 308.115731 81.051177 
L 308.692833 83.216914 
L 309.847037 81.248062 
L 310.424139 79.476096 
L 311.001241 81.93716 
L 311.578343 79.27921 
L 312.155445 85.284209 
L 312.732547 82.035603 
L 313.309649 82.626259 
L 313.886751 84.398225 
L 314.463854 82.232488 
L 315.618058 79.672981 
L 316.19516 82.134046 
L 316.772262 81.248062 
L 317.349364 77.901014 
L 317.926466 80.362079 
L 318.503568 84.299783 
L 319.08067 82.035603 
L 319.657772 80.263636 
L 320.234874 80.854292 
L 320.811976 82.724701 
L 321.389078 81.93716 
L 321.966181 80.066751 
L 322.543283 79.476096 
L 323.120385 82.527816 
L 323.697487 81.051177 
L 324.274589 78.688555 
L 324.851691 79.574538 
L 325.428793 81.641833 
L 326.005895 80.165194 
L 326.582997 81.641833 
L 327.160099 82.232488 
L 327.737201 79.082325 
L 328.314303 78.196342 
L 328.891406 79.476096 
L 329.468508 76.916588 
L 330.04561 77.704129 
L 330.622712 79.869866 
L 331.199814 78.88544 
L 331.776916 79.082325 
L 332.354018 82.429373 
L 332.93112 77.507244 
L 333.508222 77.113473 
L 334.085324 72.880442 
L 334.662426 74.652409 
L 335.239528 77.999457 
L 336.393733 76.62126 
L 336.970835 75.439949 
L 337.547937 76.916588 
L 338.125039 77.605686 
L 338.702141 76.522818 
L 339.279243 79.180768 
L 339.856345 77.408801 
L 340.433447 74.553966 
L 341.010549 80.657407 
L 341.587651 79.27921 
L 342.164753 80.263636 
L 342.741855 80.657407 
L 343.318957 76.22749 
L 343.89606 76.325933 
L 344.473162 78.393227 
L 345.050264 78.983883 
L 345.627366 77.605686 
L 346.204468 77.507244 
L 346.78157 80.755849 
L 347.358672 79.27921 
L 347.935774 76.522818 
L 348.512876 76.325933 
L 349.089978 77.802572 
L 349.66708 77.704129 
L 350.244182 77.901014 
L 350.821285 74.652409 
L 351.398387 78.49167 
L 351.975489 76.62126 
L 352.552591 78.88544 
L 353.129693 77.310359 
L 353.706795 78.393227 
L 354.283897 74.258638 
L 354.860999 75.341507 
L 355.438101 78.49167 
L 356.015203 74.258638 
L 356.592305 73.667983 
L 357.169407 72.585114 
L 357.746509 75.046179 
L 358.323612 76.522818 
L 358.900714 71.797573 
L 359.477816 74.750851 
L 360.054918 74.652409 
L 360.63202 72.781999 
L 361.209122 79.771423 
L 361.786224 75.439949 
L 362.363326 73.17577 
L 362.940428 79.574538 
L 363.51753 73.471097 
L 364.094632 74.652409 
L 364.671734 74.750851 
L 365.248836 75.735277 
L 365.825939 75.932162 
L 366.403041 81.248062 
L 366.980143 75.636834 
L 367.557245 76.916588 
L 368.134347 81.54339 
L 368.711449 73.56954 
L 369.288551 75.735277 
L 369.865653 72.388229 
L 370.442755 71.699131 
L 371.019857 74.849294 
L 371.596959 71.502246 
L 372.751164 77.802572 
L 373.328266 75.636834 
L 373.905368 75.439949 
L 374.48247 76.129047 
L 375.059572 76.22749 
L 375.636674 76.916588 
L 376.213776 76.719703 
L 376.790878 73.864868 
L 377.36798 72.683557 
L 377.945082 74.061753 
L 378.522184 76.129047 
L 379.099286 70.222492 
L 379.676388 77.211916 
L 380.253491 73.667983 
L 380.830593 78.393227 
L 381.407695 73.274212 
L 381.984797 74.455523 
L 382.561899 72.781999 
L 383.139001 73.766425 
L 383.716103 75.144622 
L 384.293205 75.046179 
L 384.870307 73.077327 
L 385.447409 72.880442 
L 386.024511 73.56954 
L 386.601613 72.486671 
L 387.178715 77.408801 
L 387.755818 74.947736 
L 388.33292 70.813147 
L 388.910022 69.533394 
L 389.487124 71.896016 
L 390.064226 68.844296 
L 390.641328 71.30536 
L 391.21843 71.108475 
L 391.795532 69.336509 
L 392.372634 69.434951 
L 392.949736 71.010033 
L 393.526838 73.17577 
L 394.10394 71.896016 
L 394.681043 74.947736 
L 395.258145 70.714705 
L 395.835247 71.502246 
L 396.412349 72.683557 
L 396.989451 71.206918 
L 397.566553 72.289786 
L 398.143655 70.320934 
L 398.720757 71.699131 
L 399.297859 69.238066 
L 400.452063 72.585114 
L 401.029165 71.994459 
L 401.606267 72.880442 
L 402.18337 69.730279 
L 402.760472 68.942738 
L 403.337574 68.64741 
L 403.914676 71.206918 
L 404.491778 68.056755 
L 405.06888 73.372655 
L 405.645982 70.419377 
L 406.223084 73.372655 
L 406.800186 71.502246 
L 407.377288 76.030605 
L 407.95439 71.108475 
L 408.531492 71.600688 
L 409.108594 72.683557 
L 409.685697 73.372655 
L 410.262799 68.844296 
L 410.839901 69.927164 
L 411.417003 73.17577 
L 411.994105 68.25364 
L 412.571207 75.439949 
L 413.148309 71.797573 
L 413.725411 71.699131 
L 414.302513 68.745853 
L 414.879615 72.092901 
L 415.456717 69.434951 
L 416.033819 68.352083 
L 416.610922 71.600688 
L 417.188024 69.041181 
L 417.765126 71.502246 
L 418.342228 70.320934 
L 418.91933 66.186346 
L 419.496432 70.91159 
L 420.073534 69.238066 
L 420.650636 70.813147 
L 421.227738 68.450525 
L 421.80484 72.683557 
L 422.381942 69.927164 
L 422.959044 69.139623 
L 423.536146 70.025607 
L 424.113249 67.958312 
L 424.690351 71.502246 
L 425.267453 71.502246 
L 425.844555 70.222492 
L 426.421657 70.025607 
L 426.998759 69.533394 
L 427.575861 71.108475 
L 428.152963 68.056755 
L 428.730065 72.978884 
L 429.307167 68.64741 
L 429.884269 69.631836 
L 430.461371 67.85987 
L 431.038473 71.994459 
L 431.615576 66.383231 
L 432.192678 67.170771 
L 432.76978 67.269214 
L 433.346882 69.533394 
L 433.923984 68.942738 
L 434.501086 68.548968 
L 435.078188 68.450525 
L 435.65529 72.289786 
L 436.232392 70.419377 
L 436.809494 68.155197 
L 437.386596 67.170771 
L 437.963698 68.056755 
L 438.5408 65.497247 
L 439.117903 65.891018 
L 439.695005 67.367657 
L 440.272107 66.777001 
L 440.849209 70.51782 
L 441.426311 70.51782 
L 442.003413 71.010033 
L 442.580515 70.124049 
L 443.157617 66.875444 
L 443.734719 68.155197 
L 444.311821 72.585114 
L 444.888923 68.745853 
L 445.466025 67.958312 
L 446.043128 64.512821 
L 446.62023 66.580116 
L 447.197332 71.502246 
L 447.774434 64.709707 
L 448.351536 66.481673 
L 448.928638 71.010033 
L 449.50574 67.072329 
L 450.082842 67.466099 
L 450.659944 67.466099 
L 451.237046 70.222492 
L 451.814148 64.315936 
L 452.39125 67.269214 
L 452.968352 69.434951 
L 453.545455 70.025607 
L 454.122557 68.745853 
L 454.699659 68.155197 
L 455.276761 69.533394 
L 455.853863 67.367657 
L 456.430965 66.383231 
L 457.008067 67.564542 
L 457.585169 63.528396 
L 458.162271 65.20192 
L 458.739373 68.155197 
L 459.316475 61.854871 
L 459.893577 66.481673 
L 460.470679 67.072329 
L 461.047782 66.284788 
L 461.624884 65.792575 
L 462.201986 70.222492 
L 462.779088 65.103477 
L 463.35619 67.170771 
L 463.933292 65.005034 
L 464.510394 68.64741 
L 465.087496 67.564542 
L 465.664598 67.958312 
L 466.2417 65.20192 
L 466.818802 67.269214 
L 467.395904 65.59569 
L 467.973007 65.20192 
L 468.550109 65.103477 
L 469.127211 66.383231 
L 469.704313 67.170771 
L 470.281415 64.414379 
L 470.858517 63.626838 
L 471.435619 68.25364 
L 472.012721 68.056755 
L 472.589823 63.134625 
L 473.166925 69.139623 
L 473.744027 68.450525 
L 474.321129 63.922166 
L 474.898231 69.336509 
L 475.475334 67.466099 
L 476.052436 66.777001 
L 476.629538 67.072329 
L 477.20664 66.186346 
L 477.783742 62.150199 
L 478.360844 67.367657 
L 478.937946 65.98946 
L 479.515048 62.051757 
L 480.09215 64.119051 
L 480.669252 64.414379 
L 481.246354 65.005034 
L 481.823456 67.662984 
L 482.400558 63.528396 
L 482.977661 65.98946 
L 483.554763 64.611264 
L 484.131865 66.580116 
L 484.708967 63.036183 
L 485.286069 65.300362 
L 485.863171 62.150199 
L 486.440273 68.745853 
L 487.017375 64.020608 
L 487.594477 67.367657 
L 488.171579 65.98946 
L 488.748681 64.217494 
L 489.325783 65.98946 
L 489.902886 65.98946 
L 490.479988 67.367657 
L 491.05709 64.709707 
L 492.211294 65.891018 
L 492.788396 65.694133 
L 493.365498 62.93774 
L 493.9426 65.98946 
L 494.519702 66.087903 
L 495.096804 66.678558 
L 495.673906 64.414379 
L 496.251008 64.119051 
L 496.82811 63.233068 
L 497.982315 64.709707 
L 498.559417 65.103477 
L 499.136519 65.005034 
L 499.713621 67.072329 
L 500.867825 63.725281 
L 501.444927 66.383231 
L 502.022029 65.103477 
L 502.599131 65.98946 
L 503.176233 63.134625 
L 503.753335 62.150199 
L 504.330437 58.310938 
L 504.90754 61.461101 
L 505.484642 66.087903 
L 506.061744 64.315936 
L 506.638846 65.398805 
L 507.215948 68.056755 
L 507.79305 63.922166 
L 508.370152 65.398805 
L 508.947254 66.284788 
L 509.524356 63.134625 
L 510.101458 64.512821 
L 510.67856 64.709707 
L 511.832765 62.54397 
L 512.409867 63.134625 
L 512.986969 64.709707 
L 513.564071 62.839297 
L 514.141173 61.953314 
L 514.718275 66.973886 
L 515.295377 59.88602 
L 515.872479 63.036183 
L 516.449581 63.528396 
L 517.026683 64.709707 
L 517.603785 65.398805 
L 518.180887 62.740855 
L 518.757989 63.134625 
L 519.335092 64.020608 
L 519.912194 62.445527 
L 520.489296 63.233068 
L 521.066398 65.005034 
L 521.6435 59.492249 
L 522.220602 60.27979 
L 522.797704 63.528396 
L 523.374806 64.512821 
L 523.951908 61.362658 
L 524.52901 64.315936 
L 525.106112 62.445527 
L 525.683214 61.362658 
L 526.260316 63.823723 
L 526.837419 64.512821 
L 527.414521 63.036183 
L 527.991623 62.839297 
L 528.568725 66.383231 
L 529.145827 62.347084 
L 529.722929 61.756429 
L 530.300031 61.461101 
L 530.877133 63.233068 
L 531.454235 62.839297 
L 532.031337 61.953314 
L 532.608439 64.512821 
L 533.185541 60.476675 
L 533.762643 62.150199 
L 534.339746 60.870445 
L 534.916848 61.854871 
L 535.49395 63.134625 
L 536.071052 61.264216 
L 536.648154 60.27979 
L 537.802358 64.217494 
L 538.37946 60.378233 
L 538.956562 62.740855 
L 539.533664 60.378233 
L 540.110766 60.67356 
L 540.687868 62.248642 
L 541.264971 62.150199 
L 541.842073 61.461101 
L 542.419175 62.54397 
L 542.996277 60.575118 
L 543.573379 62.445527 
L 544.150481 63.233068 
L 544.727583 61.264216 
L 545.304685 61.953314 
L 545.881787 63.725281 
L 546.458889 60.968888 
L 547.035991 61.461101 
L 547.613093 61.657986 
L 548.190195 61.264216 
L 548.767298 60.082905 
L 549.3444 61.362658 
L 549.921502 60.575118 
L 550.498604 61.756429 
L 551.075706 59.492249 
L 551.652808 63.036183 
L 552.22991 62.839297 
L 552.807012 62.839297 
L 553.384114 63.036183 
L 553.961216 61.362658 
L 554.538318 56.735857 
L 555.11542 59.984462 
L 555.692522 64.020608 
L 556.269625 60.476675 
L 556.846727 64.315936 
L 557.423829 58.704708 
L 558.000931 61.854871 
L 558.578033 63.528396 
L 559.732237 60.772003 
L 560.886441 61.264216 
L 561.463543 64.709707 
L 562.040645 61.953314 
L 562.617747 58.507823 
L 563.19485 60.27979 
L 563.771952 64.020608 
L 564.349054 59.492249 
L 564.926156 63.922166 
L 565.503258 61.165773 
L 566.08036 61.657986 
L 566.657462 59.590692 
L 567.234564 61.756429 
L 567.811666 57.031184 
L 568.388768 60.181347 
L 569.542972 62.150199 
L 570.120074 59.689134 
L 570.697177 60.67356 
L 571.274279 59.295364 
L 571.851381 58.704708 
L 572.428483 56.735857 
L 573.005585 61.756429 
L 573.582687 60.870445 
L 574.159789 61.854871 
L 574.736891 59.196921 
L 575.313993 60.575118 
L 575.891095 59.88602 
L 576.468197 58.409381 
L 577.045299 61.067331 
L 577.622401 60.772003 
L 578.199504 62.445527 
L 578.776606 60.27979 
L 579.353708 60.67356 
L 579.93081 59.492249 
L 580.507912 58.901594 
L 581.085014 59.295364 
L 582.239218 61.854871 
L 583.393422 57.22807 
L 583.970524 60.378233 
L 584.547626 58.114053 
L 585.124729 58.606266 
L 585.701831 60.67356 
L 586.278933 59.984462 
L 586.856035 59.098479 
L 587.433137 56.932742 
L 588.010239 57.917168 
L 588.587341 60.575118 
L 589.164443 59.984462 
L 589.741545 60.772003 
L 590.318647 60.181347 
L 590.895749 63.626838 
L 591.472851 56.932742 
L 592.049953 59.196921 
L 592.627056 62.248642 
L 593.204158 56.243644 
L 593.78126 59.689134 
L 594.935464 61.953314 
L 595.512566 58.901594 
L 596.089668 61.756429 
L 596.66677 61.067331 
L 597.243872 60.181347 
L 597.820974 59.787577 
L 598.398076 58.606266 
L 598.975178 62.839297 
L 599.55228 59.000036 
L 600.129383 55.948316 
L 600.706485 58.901594 
L 601.283587 55.554545 
L 602.437791 61.657986 
L 603.014893 58.114053 
L 603.591995 60.476675 
L 604.169097 60.378233 
L 605.323301 56.342086 
L 605.900403 57.818725 
L 606.477505 58.114053 
L 607.054608 60.772003 
L 607.63171 58.704708 
L 608.208812 57.818725 
L 608.785914 59.000036 
L 609.363016 60.772003 
L 609.940118 56.538971 
L 610.51722 58.507823 
L 611.671424 59.590692 
L 612.248526 59.196921 
L 612.825628 59.787577 
L 613.979832 57.62184 
L 614.556935 58.803151 
L 615.134037 58.803151 
L 615.711139 60.772003 
L 616.288241 58.310938 
L 616.865343 58.310938 
L 617.442445 60.67356 
L 618.019547 58.212495 
L 619.173751 57.523397 
L 619.750853 58.409381 
L 620.327955 55.751431 
L 620.905057 58.310938 
L 621.482159 56.145201 
L 622.059262 56.932742 
L 622.636364 56.243644 
L 622.636364 56.243644 
" style="fill:none;stroke:#1f77b4;stroke-linecap:square;stroke-width:0.5;"/>
   </g>
   <g id="line2d_26">
    <path clip-path="url(#p2432187e6c)" d="M 115.363636 302.645455 
L 115.940738 298.707751 
L 116.517841 297.92021 
L 117.094943 297.52644 
L 117.672045 301.168816 
L 118.249147 296.246686 
L 118.826249 294.573162 
L 119.403351 294.277834 
L 119.980453 287.977508 
L 120.557555 285.418001 
L 121.134657 289.749475 
L 121.711759 287.68218 
L 122.288861 280.495871 
L 122.865963 285.319558 
L 123.443065 275.770627 
L 124.59727 275.278414 
L 125.174372 274.097102 
L 125.751474 273.211119 
L 126.328576 264.843499 
L 127.48278 262.283991 
L 128.059882 256.574321 
L 128.636984 257.657189 
L 129.214086 249.584897 
L 130.36829 240.528178 
L 130.945392 242.201702 
L 131.522495 234.91695 
L 132.099597 232.160558 
L 132.676699 232.849656 
L 133.253801 226.15556 
L 133.830903 223.202282 
L 134.408005 216.114415 
L 134.985107 211.389171 
L 135.562209 214.244006 
L 136.139311 209.617204 
L 136.716413 206.270156 
L 137.293515 204.104419 
L 137.870617 199.083846 
L 139.024822 194.555487 
L 139.601924 197.410322 
L 140.179026 195.44147 
L 140.756128 187.172293 
L 141.33323 186.384752 
L 141.910332 177.426476 
L 142.487434 185.892539 
L 143.064536 182.348606 
L 143.641638 182.15172 
L 144.21874 172.110576 
L 144.795842 173.39033 
L 145.372944 169.058855 
L 145.950047 171.618363 
L 146.527149 164.825824 
L 147.104251 168.566643 
L 147.681353 167.483774 
L 148.258455 162.660087 
L 148.835557 165.121152 
L 149.412659 158.033285 
L 149.989761 157.934842 
L 150.566863 159.509924 
L 151.143965 159.706809 
L 151.721067 155.965991 
L 152.298169 154.784679 
L 152.875271 149.86255 
L 153.452374 151.437631 
L 154.029476 154.883122 
L 154.606578 153.012713 
L 155.18368 148.779681 
L 155.760782 151.240746 
L 156.337884 151.929844 
L 156.914986 144.645092 
L 157.492088 146.121731 
L 158.06919 140.904274 
L 158.646292 142.774683 
L 159.223394 147.992141 
L 159.800496 146.023289 
L 160.377599 145.137305 
L 160.954701 140.707389 
L 161.531803 143.365339 
L 162.108905 139.722963 
L 162.686007 139.132307 
L 163.263109 140.412061 
L 163.840211 138.935422 
L 164.417313 136.868127 
L 164.994415 139.526078 
L 165.571517 139.23075 
L 166.148619 137.754111 
L 166.725721 131.552227 
L 167.302823 130.370916 
L 167.879926 133.028866 
L 168.457028 133.028866 
L 169.03413 131.453785 
L 169.611232 131.945998 
L 170.188334 129.977146 
L 170.765436 129.977146 
L 171.342538 132.142883 
L 171.91964 127.909852 
L 172.496742 126.72854 
L 173.073844 129.091163 
L 173.650946 126.433213 
L 174.228048 124.464361 
L 174.80515 127.023868 
L 175.382253 125.350344 
L 175.959355 122.003296 
L 176.536457 127.220753 
L 177.113559 128.008294 
L 177.690661 123.873705 
L 178.267763 125.842557 
L 178.844865 122.298624 
L 179.421967 121.215755 
L 179.999069 122.593951 
L 180.576171 122.298624 
L 181.153273 122.987722 
L 181.730375 119.345346 
L 182.307478 122.200181 
L 182.88458 116.392068 
L 183.461682 118.557805 
L 184.038784 121.707968 
L 184.615886 120.920427 
L 185.192988 120.329772 
L 185.77009 114.816987 
L 186.347192 118.951576 
L 186.924294 119.443788 
L 187.501396 118.065592 
L 188.078498 117.868707 
L 188.6556 114.915429 
L 189.232702 117.179609 
L 189.809805 118.065592 
L 190.386907 115.998298 
L 190.964009 119.837559 
L 191.541111 112.552807 
L 192.118213 118.262477 
L 192.695315 114.915429 
L 193.272417 115.899855 
L 193.849519 111.666824 
L 194.426621 111.076168 
L 195.003723 113.734118 
L 195.580825 114.324774 
L 196.157927 112.060594 
L 196.735029 115.998298 
L 197.312132 112.749692 
L 197.889234 114.620101 
L 198.466336 113.43879 
L 199.043438 113.43879 
L 199.62054 111.666824 
L 200.197642 111.469938 
L 200.774744 114.521659 
L 201.351846 113.43879 
L 201.928948 107.040022 
L 202.50605 114.816987 
L 203.083152 107.433792 
L 203.660254 111.765266 
L 204.237357 109.894857 
L 204.814459 109.008874 
L 205.391561 110.38707 
L 206.545765 109.501087 
L 207.122867 109.796414 
L 207.699969 106.055596 
L 208.277071 106.646251 
L 208.854173 108.221333 
L 209.431275 109.304201 
L 210.008377 104.677399 
L 211.162581 109.402644 
L 211.739684 106.350924 
L 212.316786 109.008874 
L 213.47099 105.366498 
L 214.048092 107.138464 
L 214.625194 106.055596 
L 215.202296 107.138464 
L 215.779398 104.578957 
L 216.3565 106.941579 
L 216.933602 108.221333 
L 217.510704 102.511662 
L 218.087806 105.858711 
L 218.664908 105.07117 
L 219.242011 103.988301 
L 219.819113 110.583955 
L 220.396215 105.563383 
L 220.973317 110.879283 
L 221.550419 103.397646 
L 222.127521 104.185187 
L 222.704623 105.957153 
L 223.281725 104.283629 
L 224.435929 105.169612 
L 225.013031 101.231909 
L 225.590133 105.760268 
L 226.167235 98.475516 
L 226.744338 105.07117 
L 227.32144 105.957153 
L 227.898542 103.791416 
L 228.475644 102.80699 
L 229.052746 102.41322 
L 229.629848 99.263057 
L 230.20695 108.12289 
L 230.784052 106.252481 
L 231.361154 101.625679 
L 231.938256 101.822564 
L 232.515358 105.07117 
L 233.09246 105.46494 
L 233.669563 101.231909 
L 234.246665 100.542811 
L 234.823767 102.511662 
L 235.400869 102.511662 
L 235.977971 99.75527 
L 236.555073 100.247483 
L 237.132175 100.050598 
L 237.709277 101.330351 
L 238.286379 98.278631 
L 238.863481 100.542811 
L 240.017685 99.656827 
L 240.594787 100.739696 
L 241.748992 97.687975 
L 242.326094 100.14904 
L 242.903196 99.656827 
L 243.480298 97.195762 
L 244.0574 97.294205 
L 244.634502 101.724122 
L 245.211604 98.770844 
L 245.788706 101.133466 
L 246.365808 100.542811 
L 246.94291 103.003875 
L 247.520012 102.117892 
L 248.097114 98.180188 
L 248.674217 104.086744 
L 249.251319 96.211336 
L 249.828421 99.656827 
L 250.405523 101.133466 
L 250.982625 95.916009 
L 251.559727 96.605107 
L 252.136829 99.164614 
L 252.713931 97.786418 
L 253.291033 100.838138 
L 253.868135 98.672401 
L 254.445237 98.672401 
L 255.022339 99.952155 
L 255.599442 99.164614 
L 256.176544 97.392648 
L 256.753646 96.408222 
L 257.330748 96.703549 
L 257.90785 98.770844 
L 258.484952 95.620681 
L 259.062054 94.242485 
L 259.639156 100.050598 
L 260.216258 96.703549 
L 260.79336 94.931583 
L 261.370462 97.983303 
L 261.947564 95.423796 
L 262.524666 97.294205 
L 263.101769 97.786418 
L 263.678871 98.770844 
L 264.833075 99.164614 
L 265.410177 97.884861 
L 265.987279 98.377074 
L 266.564381 95.423796 
L 267.141483 97.884861 
L 267.718585 98.573959 
L 268.295687 93.159616 
L 268.872789 100.739696 
L 269.449891 94.537812 
L 270.026993 91.682977 
L 271.181198 96.801992 
L 271.7583 93.159616 
L 272.335402 96.801992 
L 272.912504 93.159616 
L 273.489606 96.703549 
L 274.066708 93.848714 
L 274.64381 95.226911 
L 275.220912 96.309779 
L 275.798014 89.911011 
L 276.952218 95.423796 
L 277.529321 95.522238 
L 278.106423 99.853712 
L 279.260627 91.289207 
L 280.414831 95.916009 
L 280.991933 95.620681 
L 281.569035 97.392648 
L 282.146137 92.17519 
L 282.723239 93.159616 
L 283.300341 93.356501 
L 284.454545 97.687975 
L 285.60875 94.43937 
L 286.185852 95.522238 
L 286.762954 90.895436 
L 287.340056 95.817566 
L 287.917158 93.061173 
L 288.49426 97.294205 
L 289.071362 93.947157 
L 289.648464 97.294205 
L 290.225566 95.916009 
L 290.802668 94.931583 
L 291.37977 96.014451 
L 291.956872 94.045599 
L 292.533975 95.817566 
L 293.111077 92.372075 
L 293.688179 92.17519 
L 294.265281 94.537812 
L 294.842383 95.817566 
L 295.419485 96.408222 
L 295.996587 97.392648 
L 296.573689 92.962731 
L 297.150791 94.43937 
L 297.727893 91.092322 
L 298.304995 90.403223 
L 298.882097 95.226911 
L 299.4592 93.159616 
L 300.036302 93.651829 
L 300.613404 92.864288 
L 301.190506 91.289207 
L 301.767608 92.470518 
L 302.34471 90.501666 
L 302.921812 91.879862 
L 303.498914 91.387649 
L 304.076016 94.144042 
L 304.653118 91.387649 
L 305.23022 95.226911 
L 305.807322 91.190764 
L 306.384424 91.879862 
L 308.115731 95.325353 
L 308.692833 89.812568 
L 309.847037 92.076748 
L 310.424139 88.631257 
L 311.001241 94.537812 
L 311.578343 96.211336 
L 312.732547 89.221912 
L 313.309649 90.796994 
L 313.886751 90.993879 
L 314.463854 88.926585 
L 315.040956 91.978305 
L 315.618058 90.403223 
L 316.19516 90.895436 
L 316.772262 89.320355 
L 317.349364 96.506664 
L 317.926466 89.911011 
L 318.503568 89.320355 
L 319.08067 92.470518 
L 320.234874 87.646831 
L 320.811976 94.931583 
L 321.389078 90.009453 
L 321.966181 95.128468 
L 323.120385 91.190764 
L 323.697487 95.423796 
L 324.274589 89.221912 
L 324.851691 86.170192 
L 325.428793 94.931583 
L 326.005895 87.154618 
L 326.582997 90.501666 
L 327.160099 92.17519 
L 327.737201 89.812568 
L 328.314303 89.025027 
L 328.891406 89.320355 
L 329.468508 90.501666 
L 330.04561 93.651829 
L 330.622712 88.729699 
L 331.199814 86.170192 
L 332.354018 91.289207 
L 332.93112 88.532814 
L 333.508222 91.289207 
L 334.085324 90.796994 
L 334.662426 88.532814 
L 335.239528 90.698551 
L 335.81663 90.304781 
L 336.393733 87.745273 
L 336.970835 92.273633 
L 337.547937 90.993879 
L 338.125039 91.879862 
L 338.702141 88.434372 
L 339.279243 89.615683 
L 339.856345 92.372075 
L 340.433447 89.12347 
L 341.010549 92.765846 
L 341.587651 88.828142 
L 342.164753 90.698551 
L 342.741855 91.584535 
L 343.318957 87.745273 
L 343.89606 88.532814 
L 344.473162 87.449946 
L 345.050264 89.12347 
L 345.627366 92.568961 
L 346.204468 91.387649 
L 346.78157 88.139044 
L 347.358672 90.206338 
L 347.935774 91.190764 
L 348.512876 93.159616 
L 349.089978 90.403223 
L 349.66708 91.190764 
L 350.244182 91.486092 
L 350.821285 88.335929 
L 351.398387 90.206338 
L 351.975489 86.662405 
L 352.552591 91.387649 
L 353.129693 89.812568 
L 353.706795 92.667403 
L 354.283897 88.828142 
L 354.860999 93.258059 
L 355.438101 88.040601 
L 356.015203 90.698551 
L 357.169407 89.221912 
L 357.746509 88.040601 
L 358.323612 91.092322 
L 358.900714 89.812568 
L 359.477816 90.698551 
L 360.054918 90.403223 
L 360.63202 88.631257 
L 361.209122 84.59511 
L 361.786224 88.828142 
L 362.363326 90.796994 
L 362.940428 91.682977 
L 364.094632 91.78142 
L 364.671734 89.911011 
L 365.248836 87.056175 
L 365.825939 91.092322 
L 366.403041 91.387649 
L 366.980143 87.942159 
L 367.557245 90.304781 
L 368.134347 89.025027 
L 368.711449 86.85929 
L 369.865653 86.760848 
L 370.442755 91.190764 
L 371.019857 87.745273 
L 372.174061 91.289207 
L 372.751164 91.584535 
L 373.328266 91.387649 
L 373.905368 89.615683 
L 374.48247 85.874864 
L 375.059572 90.206338 
L 375.636674 90.895436 
L 376.213776 87.056175 
L 376.790878 89.221912 
L 377.36798 90.107896 
L 377.945082 92.765846 
L 378.522184 91.584535 
L 379.099286 88.926585 
L 379.676388 88.335929 
L 380.253491 84.299783 
L 380.830593 86.46552 
L 381.407695 89.51724 
L 381.984797 86.662405 
L 382.561899 89.911011 
L 383.139001 88.532814 
L 383.716103 92.372075 
L 384.293205 89.12347 
L 384.870307 89.812568 
L 386.024511 88.631257 
L 386.601613 87.154618 
L 387.755818 90.993879 
L 388.33292 88.926585 
L 388.910022 89.714125 
L 389.487124 88.335929 
L 390.064226 88.532814 
L 390.641328 85.973307 
L 391.21843 84.988881 
L 391.795532 84.693553 
L 392.949736 88.631257 
L 393.526838 90.501666 
L 394.10394 86.46552 
L 394.681043 87.942159 
L 395.835247 92.273633 
L 396.412349 86.563962 
L 397.566553 88.139044 
L 398.143655 88.532814 
L 398.720757 89.51724 
L 399.297859 87.056175 
L 399.874961 86.170192 
L 400.452063 91.190764 
L 401.029165 86.957733 
L 401.606267 89.025027 
L 402.18337 88.139044 
L 402.760472 88.040601 
L 403.914676 86.85929 
L 404.491778 90.304781 
L 405.06888 86.662405 
L 405.645982 87.942159 
L 406.223084 88.040601 
L 406.800186 89.025027 
L 407.377288 89.221912 
L 407.95439 88.926585 
L 408.531492 88.926585 
L 409.108594 85.874864 
L 409.685697 87.745273 
L 410.262799 86.662405 
L 410.839901 90.698551 
L 411.417003 90.501666 
L 411.994105 89.51724 
L 412.571207 86.170192 
L 413.148309 87.25306 
L 413.725411 86.170192 
L 414.302513 85.579536 
L 414.879615 86.071749 
L 415.456717 89.025027 
L 416.033819 86.268635 
L 416.610922 89.812568 
L 417.188024 86.662405 
L 417.765126 87.351503 
L 418.342228 93.061173 
L 418.91933 87.351503 
L 419.496432 88.434372 
L 420.073534 86.268635 
L 420.650636 87.745273 
L 421.227738 87.25306 
L 421.80484 90.993879 
L 422.381942 84.890438 
L 422.959044 89.615683 
L 423.536146 87.449946 
L 424.113249 89.714125 
L 424.690351 92.667403 
L 425.267453 86.563962 
L 425.844555 90.107896 
L 426.421657 90.107896 
L 426.998759 86.662405 
L 428.730065 88.828142 
L 429.307167 86.760848 
L 429.884269 85.973307 
L 430.461371 86.367077 
L 431.038473 86.071749 
L 431.615576 87.25306 
L 432.192678 87.843716 
L 432.76978 87.843716 
L 433.346882 85.874864 
L 433.923984 88.139044 
L 434.501086 88.434372 
L 435.078188 90.993879 
L 435.65529 85.874864 
L 436.232392 86.268635 
L 436.809494 89.418798 
L 437.386596 86.268635 
L 437.963698 85.579536 
L 438.5408 83.906012 
L 439.117903 87.548388 
L 439.695005 89.025027 
L 440.272107 86.46552 
L 440.849209 88.434372 
L 441.426311 88.040601 
L 442.003413 84.988881 
L 442.580515 88.139044 
L 443.157617 86.760848 
L 443.734719 88.335929 
L 444.311821 88.335929 
L 444.888923 86.957733 
L 445.466025 88.040601 
L 446.043128 87.25306 
L 446.62023 90.107896 
L 447.197332 87.449946 
L 447.774434 88.926585 
L 448.351536 85.677979 
L 448.928638 92.17519 
L 450.082842 85.284209 
L 450.659944 87.942159 
L 451.237046 88.926585 
L 451.814148 87.942159 
L 452.39125 86.071749 
L 452.968352 85.874864 
L 453.545455 84.988881 
L 454.122557 88.926585 
L 454.699659 84.299783 
L 455.276761 86.957733 
L 455.853863 88.139044 
L 456.430965 88.040601 
L 457.008067 86.662405 
L 457.585169 83.80757 
L 458.162271 87.843716 
L 458.739373 84.398225 
L 459.316475 87.548388 
L 459.893577 87.351503 
L 460.470679 89.12347 
L 461.624884 88.926585 
L 462.779088 86.85929 
L 463.35619 86.268635 
L 463.933292 84.791996 
L 464.510394 87.745273 
L 465.087496 87.745273 
L 465.664598 82.626259 
L 466.2417 84.20134 
L 466.818802 94.43937 
L 467.395904 85.973307 
L 467.973007 86.760848 
L 468.550109 86.071749 
L 469.127211 87.154618 
L 469.704313 87.548388 
L 470.281415 85.973307 
L 470.858517 87.745273 
L 471.435619 85.185766 
L 472.012721 87.449946 
L 473.166925 88.335929 
L 474.321129 85.087323 
L 474.898231 84.496668 
L 475.475334 84.398225 
L 476.052436 85.776422 
L 476.629538 84.791996 
L 477.20664 87.25306 
L 477.783742 85.185766 
L 478.360844 87.056175 
L 478.937946 83.512242 
L 479.515048 84.20134 
L 480.09215 85.579536 
L 481.246354 86.662405 
L 481.823456 85.874864 
L 482.400558 86.071749 
L 482.977661 86.46552 
L 483.554763 85.776422 
L 484.131865 84.890438 
L 484.708967 84.988881 
L 485.286069 85.677979 
L 485.863171 88.532814 
L 486.440273 84.59511 
L 487.017375 86.170192 
L 487.594477 83.118472 
L 488.171579 85.481094 
L 488.748681 87.25306 
L 489.325783 81.444947 
L 490.479988 88.335929 
L 491.05709 87.548388 
L 491.634192 88.926585 
L 492.211294 88.828142 
L 492.788396 86.46552 
L 493.365498 88.040601 
L 493.9426 86.957733 
L 494.519702 84.398225 
L 495.096804 86.760848 
L 495.673906 84.102898 
L 496.251008 87.25306 
L 496.82811 88.237486 
L 497.405213 86.563962 
L 497.982315 88.729699 
L 499.136519 85.677979 
L 499.713621 88.335929 
L 500.290723 87.056175 
L 500.867825 85.185766 
L 501.444927 85.284209 
L 502.022029 84.20134 
L 502.599131 84.890438 
L 503.176233 88.926585 
L 503.753335 86.760848 
L 504.330437 87.351503 
L 504.90754 85.087323 
L 505.484642 85.874864 
L 506.061744 86.071749 
L 506.638846 84.59511 
L 507.215948 84.890438 
L 507.79305 89.418798 
L 508.370152 85.382651 
L 508.947254 88.237486 
L 509.524356 84.398225 
L 510.101458 88.139044 
L 510.67856 84.398225 
L 511.255662 88.237486 
L 511.832765 85.382651 
L 512.409867 85.382651 
L 512.986969 84.693553 
L 513.564071 83.80757 
L 514.141173 87.745273 
L 514.718275 83.709127 
L 515.295377 85.677979 
L 515.872479 85.874864 
L 516.449581 84.496668 
L 517.026683 84.59511 
L 518.180887 87.056175 
L 518.757989 85.284209 
L 519.335092 84.004455 
L 519.912194 85.973307 
L 520.489296 84.988881 
L 521.066398 91.092322 
L 521.6435 88.040601 
L 522.220602 87.449946 
L 522.797704 87.646831 
L 523.374806 89.615683 
L 523.951908 88.434372 
L 525.106112 85.579536 
L 525.683214 86.367077 
L 526.837419 85.087323 
L 527.414521 85.776422 
L 527.991623 89.615683 
L 528.568725 81.93716 
L 529.145827 86.760848 
L 529.722929 85.481094 
L 530.300031 81.93716 
L 530.877133 85.579536 
L 531.454235 86.760848 
L 532.031337 87.154618 
L 532.608439 83.020029 
L 533.185541 85.284209 
L 533.762643 84.988881 
L 534.339746 83.709127 
L 534.916848 86.367077 
L 535.49395 81.346505 
L 536.071052 88.139044 
L 536.648154 84.890438 
L 537.225256 83.610685 
L 537.802358 87.056175 
L 538.37946 88.139044 
L 538.956562 87.745273 
L 539.533664 86.760848 
L 540.110766 87.548388 
L 540.687868 85.087323 
L 541.264971 87.449946 
L 541.842073 83.906012 
L 542.419175 89.320355 
L 542.996277 84.496668 
L 543.573379 85.481094 
L 544.150481 85.481094 
L 545.304685 86.563962 
L 545.881787 83.413799 
L 546.458889 83.610685 
L 547.035991 85.284209 
L 547.613093 86.268635 
L 548.190195 87.745273 
L 548.767298 86.268635 
L 549.3444 83.020029 
L 549.921502 86.662405 
L 550.498604 84.890438 
L 551.075706 84.988881 
L 551.652808 86.268635 
L 552.22991 85.874864 
L 552.807012 87.154618 
L 553.384114 87.646831 
L 553.961216 84.102898 
L 554.538318 86.071749 
L 555.11542 84.496668 
L 555.692522 85.481094 
L 556.269625 87.056175 
L 556.846727 84.299783 
L 557.423829 86.268635 
L 558.000931 84.299783 
L 558.578033 84.890438 
L 559.155135 80.460522 
L 559.732237 87.351503 
L 560.886441 83.709127 
L 561.463543 85.382651 
L 562.040645 85.185766 
L 562.617747 87.056175 
L 563.19485 87.942159 
L 563.771952 84.59511 
L 564.926156 87.843716 
L 565.503258 86.760848 
L 566.08036 86.170192 
L 566.657462 87.154618 
L 567.234564 84.20134 
L 567.811666 87.646831 
L 568.388768 83.80757 
L 568.96587 84.496668 
L 569.542972 82.724701 
L 570.120074 89.51724 
L 570.697177 82.724701 
L 571.274279 86.957733 
L 571.851381 82.823144 
L 572.428483 89.025027 
L 573.005585 84.59511 
L 573.582687 86.367077 
L 574.159789 85.677979 
L 574.736891 83.610685 
L 575.313993 84.20134 
L 575.891095 87.154618 
L 576.468197 88.631257 
L 577.045299 84.791996 
L 577.622401 86.367077 
L 578.199504 85.481094 
L 578.776606 83.709127 
L 579.353708 89.615683 
L 579.93081 84.59511 
L 580.507912 83.216914 
L 581.085014 90.107896 
L 581.662116 84.20134 
L 582.239218 86.760848 
L 582.81632 84.496668 
L 583.393422 85.087323 
L 583.970524 85.284209 
L 584.547626 87.745273 
L 585.701831 83.906012 
L 586.278933 87.351503 
L 586.856035 85.087323 
L 587.433137 87.449946 
L 588.010239 86.071749 
L 588.587341 84.004455 
L 589.164443 84.693553 
L 589.741545 87.154618 
L 590.318647 85.874864 
L 590.895749 85.284209 
L 591.472851 84.496668 
L 592.049953 82.724701 
L 592.627056 85.087323 
L 593.204158 82.330931 
L 593.78126 85.284209 
L 594.358362 85.874864 
L 594.935464 84.004455 
L 595.512566 87.745273 
L 596.089668 86.367077 
L 596.66677 83.118472 
L 597.243872 86.957733 
L 598.398076 85.382651 
L 599.55228 89.51724 
L 600.129383 86.268635 
L 600.706485 84.496668 
L 601.283587 88.926585 
L 601.860689 87.745273 
L 603.014893 86.957733 
L 603.591995 84.102898 
L 604.169097 84.398225 
L 604.746199 87.745273 
L 605.323301 84.20134 
L 605.900403 86.85929 
L 606.477505 88.828142 
L 607.054608 85.776422 
L 607.63171 84.988881 
L 608.208812 84.890438 
L 609.363016 87.25306 
L 609.940118 83.020029 
L 610.51722 86.367077 
L 611.094322 82.527816 
L 611.671424 85.973307 
L 612.248526 90.206338 
L 612.825628 88.729699 
L 613.40273 85.087323 
L 613.979832 82.921586 
L 614.556935 90.107896 
L 615.134037 84.102898 
L 615.711139 85.874864 
L 616.288241 86.46552 
L 616.865343 83.315357 
L 617.442445 84.496668 
L 618.596649 87.942159 
L 619.173751 85.382651 
L 619.750853 86.268635 
L 620.327955 86.367077 
L 620.905057 86.957733 
L 621.482159 87.745273 
L 622.059262 85.677979 
L 622.636364 84.496668 
L 622.636364 84.496668 
" style="fill:none;stroke:#ff7f0e;stroke-linecap:square;stroke-width:0.5;"/>
   </g>
   <g id="patch_3">
    <path d="M 90 315 
L 90 43.2 
" style="fill:none;stroke:#000000;stroke-linecap:square;stroke-linejoin:miter;stroke-width:0.8;"/>
   </g>
   <g id="patch_4">
    <path d="M 648 315 
L 648 43.2 
" style="fill:none;stroke:#000000;stroke-linecap:square;stroke-linejoin:miter;stroke-width:0.8;"/>
   </g>
   <g id="patch_5">
    <path d="M 90 315 
L 648 315 
" style="fill:none;stroke:#000000;stroke-linecap:square;stroke-linejoin:miter;stroke-width:0.8;"/>
   </g>
   <g id="patch_6">
    <path d="M 90 43.2 
L 648 43.2 
" style="fill:none;stroke:#000000;stroke-linecap:square;stroke-linejoin:miter;stroke-width:0.8;"/>
   </g>
   <g id="text_15">
    <!-- accuracy -->
    <g transform="translate(341.92875 37.2)scale(0.12 -0.12)">
     <use xlink:href="#DejaVuSans-97"/>
     <use x="61.279297" xlink:href="#DejaVuSans-99"/>
     <use x="116.259766" xlink:href="#DejaVuSans-99"/>
     <use x="171.240234" xlink:href="#DejaVuSans-117"/>
     <use x="234.619141" xlink:href="#DejaVuSans-114"/>
     <use x="275.732422" xlink:href="#DejaVuSans-97"/>
     <use x="337.011719" xlink:href="#DejaVuSans-99"/>
     <use x="391.992188" xlink:href="#DejaVuSans-121"/>
    </g>
   </g>
   <g id="legend_1">
    <g id="patch_7">
     <path d="M 97 80.55625 
L 169.153125 80.55625 
Q 171.153125 80.55625 171.153125 78.55625 
L 171.153125 50.2 
Q 171.153125 48.2 169.153125 48.2 
L 97 48.2 
Q 95 48.2 95 50.2 
L 95 78.55625 
Q 95 80.55625 97 80.55625 
z
" style="fill:#ffffff;opacity:0.8;stroke:#cccccc;stroke-linejoin:miter;"/>
    </g>
    <g id="line2d_27">
     <path d="M 99 56.298437 
L 119 56.298437 
" style="fill:none;stroke:#1f77b4;stroke-linecap:square;stroke-width:0.5;"/>
    </g>
    <g id="line2d_28"/>
    <g id="text_16">
     <!-- train -->
     <defs>
      <path d="M 18.3125 70.21875 
L 18.3125 54.6875 
L 36.8125 54.6875 
L 36.8125 47.703125 
L 18.3125 47.703125 
L 18.3125 18.015625 
Q 18.3125 11.328125 20.140625 9.421875 
Q 21.96875 7.515625 27.59375 7.515625 
L 36.8125 7.515625 
L 36.8125 0 
L 27.59375 0 
Q 17.1875 0 13.234375 3.875 
Q 9.28125 7.765625 9.28125 18.015625 
L 9.28125 47.703125 
L 2.6875 47.703125 
L 2.6875 54.6875 
L 9.28125 54.6875 
L 9.28125 70.21875 
z
" id="DejaVuSans-116"/>
      <path d="M 9.421875 54.6875 
L 18.40625 54.6875 
L 18.40625 0 
L 9.421875 0 
z
M 9.421875 75.984375 
L 18.40625 75.984375 
L 18.40625 64.59375 
L 9.421875 64.59375 
z
" id="DejaVuSans-105"/>
      <path d="M 54.890625 33.015625 
L 54.890625 0 
L 45.90625 0 
L 45.90625 32.71875 
Q 45.90625 40.484375 42.875 44.328125 
Q 39.84375 48.1875 33.796875 48.1875 
Q 26.515625 48.1875 22.3125 43.546875 
Q 18.109375 38.921875 18.109375 30.90625 
L 18.109375 0 
L 9.078125 0 
L 9.078125 54.6875 
L 18.109375 54.6875 
L 18.109375 46.1875 
Q 21.34375 51.125 25.703125 53.5625 
Q 30.078125 56 35.796875 56 
Q 45.21875 56 50.046875 50.171875 
Q 54.890625 44.34375 54.890625 33.015625 
z
" id="DejaVuSans-110"/>
     </defs>
     <g transform="translate(127 59.798437)scale(0.1 -0.1)">
      <use xlink:href="#DejaVuSans-116"/>
      <use x="39.208984" xlink:href="#DejaVuSans-114"/>
      <use x="80.322266" xlink:href="#DejaVuSans-97"/>
      <use x="141.601562" xlink:href="#DejaVuSans-105"/>
      <use x="169.384766" xlink:href="#DejaVuSans-110"/>
     </g>
    </g>
    <g id="line2d_29">
     <path d="M 99 70.976562 
L 119 70.976562 
" style="fill:none;stroke:#ff7f0e;stroke-linecap:square;stroke-width:0.5;"/>
    </g>
    <g id="line2d_30"/>
    <g id="text_17">
     <!-- validate -->
     <defs>
      <path d="M 2.984375 54.6875 
L 12.5 54.6875 
L 29.59375 8.796875 
L 46.6875 54.6875 
L 56.203125 54.6875 
L 35.6875 0 
L 23.484375 0 
z
" id="DejaVuSans-118"/>
      <path d="M 9.421875 75.984375 
L 18.40625 75.984375 
L 18.40625 0 
L 9.421875 0 
z
" id="DejaVuSans-108"/>
      <path d="M 45.40625 46.390625 
L 45.40625 75.984375 
L 54.390625 75.984375 
L 54.390625 0 
L 45.40625 0 
L 45.40625 8.203125 
Q 42.578125 3.328125 38.25 0.953125 
Q 33.9375 -1.421875 27.875 -1.421875 
Q 17.96875 -1.421875 11.734375 6.484375 
Q 5.515625 14.40625 5.515625 27.296875 
Q 5.515625 40.1875 11.734375 48.09375 
Q 17.96875 56 27.875 56 
Q 33.9375 56 38.25 53.625 
Q 42.578125 51.265625 45.40625 46.390625 
z
M 14.796875 27.296875 
Q 14.796875 17.390625 18.875 11.75 
Q 22.953125 6.109375 30.078125 6.109375 
Q 37.203125 6.109375 41.296875 11.75 
Q 45.40625 17.390625 45.40625 27.296875 
Q 45.40625 37.203125 41.296875 42.84375 
Q 37.203125 48.484375 30.078125 48.484375 
Q 22.953125 48.484375 18.875 42.84375 
Q 14.796875 37.203125 14.796875 27.296875 
z
" id="DejaVuSans-100"/>
     </defs>
     <g transform="translate(127 74.476562)scale(0.1 -0.1)">
      <use xlink:href="#DejaVuSans-118"/>
      <use x="59.179688" xlink:href="#DejaVuSans-97"/>
      <use x="120.458984" xlink:href="#DejaVuSans-108"/>
      <use x="148.242188" xlink:href="#DejaVuSans-105"/>
      <use x="176.025391" xlink:href="#DejaVuSans-100"/>
      <use x="239.501953" xlink:href="#DejaVuSans-97"/>
      <use x="300.78125" xlink:href="#DejaVuSans-116"/>
      <use x="339.990234" xlink:href="#DejaVuSans-101"/>
     </g>
    </g>
   </g>
  </g>
 </g>
 <defs>
  <clipPath id="p2432187e6c">
   <rect height="271.8" width="558" x="90" y="43.2"/>
  </clipPath>
 </defs>
</svg>
