<?xml version="1.0" encoding="utf-8" standalone="no"?>
<!DOCTYPE svg PUBLIC "-//W3C//DTD SVG 1.1//EN"
  "http://www.w3.org/Graphics/SVG/1.1/DTD/svg11.dtd">
<!-- Created with matplotlib (https://matplotlib.org/) -->
<svg height="360pt" version="1.1" viewBox="0 0 720 360" width="720pt" xmlns="http://www.w3.org/2000/svg" xmlns:xlink="http://www.w3.org/1999/xlink">
 <defs>
  <style type="text/css">
*{stroke-linecap:butt;stroke-linejoin:round;}
  </style>
 </defs>
 <g id="figure_1">
  <g id="patch_1">
   <path d="M 0 360 
L 720 360 
L 720 0 
L 0 0 
z
" style="fill:#ffffff;"/>
  </g>
  <g id="axes_1">
   <g id="patch_2">
    <path d="M 90 315 
L 648 315 
L 648 43.2 
L 90 43.2 
z
" style="fill:#ffffff;"/>
   </g>
   <g id="matplotlib.axis_1">
    <g id="xtick_1">
     <g id="line2d_1">
      <path clip-path="url(#p0d33502547)" d="M 115.363636 315 
L 115.363636 43.2 
" style="fill:none;stroke:#b0b0b0;stroke-linecap:square;stroke-width:0.8;"/>
     </g>
     <g id="line2d_2">
      <defs>
       <path d="M 0 0 
L 0 3.5 
" id="m054676328c" style="stroke:#000000;stroke-width:0.8;"/>
      </defs>
      <g>
       <use style="stroke:#000000;stroke-width:0.8;" x="115.363636" xlink:href="#m054676328c" y="315"/>
      </g>
     </g>
     <g id="text_1">
      <!-- 0 -->
      <defs>
       <path d="M 31.78125 66.40625 
Q 24.171875 66.40625 20.328125 58.90625 
Q 16.5 51.421875 16.5 36.375 
Q 16.5 21.390625 20.328125 13.890625 
Q 24.171875 6.390625 31.78125 6.390625 
Q 39.453125 6.390625 43.28125 13.890625 
Q 47.125 21.390625 47.125 36.375 
Q 47.125 51.421875 43.28125 58.90625 
Q 39.453125 66.40625 31.78125 66.40625 
z
M 31.78125 74.21875 
Q 44.046875 74.21875 50.515625 64.515625 
Q 56.984375 54.828125 56.984375 36.375 
Q 56.984375 17.96875 50.515625 8.265625 
Q 44.046875 -1.421875 31.78125 -1.421875 
Q 19.53125 -1.421875 13.0625 8.265625 
Q 6.59375 17.96875 6.59375 36.375 
Q 6.59375 54.828125 13.0625 64.515625 
Q 19.53125 74.21875 31.78125 74.21875 
z
" id="DejaVuSans-48"/>
      </defs>
      <g transform="translate(112.182386 329.598437)scale(0.1 -0.1)">
       <use xlink:href="#DejaVuSans-48"/>
      </g>
     </g>
    </g>
    <g id="xtick_2">
     <g id="line2d_3">
      <path clip-path="url(#p0d33502547)" d="M 190.515152 315 
L 190.515152 43.2 
" style="fill:none;stroke:#b0b0b0;stroke-linecap:square;stroke-width:0.8;"/>
     </g>
     <g id="line2d_4">
      <g>
       <use style="stroke:#000000;stroke-width:0.8;" x="190.515152" xlink:href="#m054676328c" y="315"/>
      </g>
     </g>
     <g id="text_2">
      <!-- 100 -->
      <defs>
       <path d="M 12.40625 8.296875 
L 28.515625 8.296875 
L 28.515625 63.921875 
L 10.984375 60.40625 
L 10.984375 69.390625 
L 28.421875 72.90625 
L 38.28125 72.90625 
L 38.28125 8.296875 
L 54.390625 8.296875 
L 54.390625 0 
L 12.40625 0 
z
" id="DejaVuSans-49"/>
      </defs>
      <g transform="translate(180.971402 329.598437)scale(0.1 -0.1)">
       <use xlink:href="#DejaVuSans-49"/>
       <use x="63.623047" xlink:href="#DejaVuSans-48"/>
       <use x="127.246094" xlink:href="#DejaVuSans-48"/>
      </g>
     </g>
    </g>
    <g id="xtick_3">
     <g id="line2d_5">
      <path clip-path="url(#p0d33502547)" d="M 265.666667 315 
L 265.666667 43.2 
" style="fill:none;stroke:#b0b0b0;stroke-linecap:square;stroke-width:0.8;"/>
     </g>
     <g id="line2d_6">
      <g>
       <use style="stroke:#000000;stroke-width:0.8;" x="265.666667" xlink:href="#m054676328c" y="315"/>
      </g>
     </g>
     <g id="text_3">
      <!-- 200 -->
      <defs>
       <path d="M 19.1875 8.296875 
L 53.609375 8.296875 
L 53.609375 0 
L 7.328125 0 
L 7.328125 8.296875 
Q 12.9375 14.109375 22.625 23.890625 
Q 32.328125 33.6875 34.8125 36.53125 
Q 39.546875 41.84375 41.421875 45.53125 
Q 43.3125 49.21875 43.3125 52.78125 
Q 43.3125 58.59375 39.234375 62.25 
Q 35.15625 65.921875 28.609375 65.921875 
Q 23.96875 65.921875 18.8125 64.3125 
Q 13.671875 62.703125 7.8125 59.421875 
L 7.8125 69.390625 
Q 13.765625 71.78125 18.9375 73 
Q 24.125 74.21875 28.421875 74.21875 
Q 39.75 74.21875 46.484375 68.546875 
Q 53.21875 62.890625 53.21875 53.421875 
Q 53.21875 48.921875 51.53125 44.890625 
Q 49.859375 40.875 45.40625 35.40625 
Q 44.1875 33.984375 37.640625 27.21875 
Q 31.109375 20.453125 19.1875 8.296875 
z
" id="DejaVuSans-50"/>
      </defs>
      <g transform="translate(256.122917 329.598437)scale(0.1 -0.1)">
       <use xlink:href="#DejaVuSans-50"/>
       <use x="63.623047" xlink:href="#DejaVuSans-48"/>
       <use x="127.246094" xlink:href="#DejaVuSans-48"/>
      </g>
     </g>
    </g>
    <g id="xtick_4">
     <g id="line2d_7">
      <path clip-path="url(#p0d33502547)" d="M 340.818182 315 
L 340.818182 43.2 
" style="fill:none;stroke:#b0b0b0;stroke-linecap:square;stroke-width:0.8;"/>
     </g>
     <g id="line2d_8">
      <g>
       <use style="stroke:#000000;stroke-width:0.8;" x="340.818182" xlink:href="#m054676328c" y="315"/>
      </g>
     </g>
     <g id="text_4">
      <!-- 300 -->
      <defs>
       <path d="M 40.578125 39.3125 
Q 47.65625 37.796875 51.625 33 
Q 55.609375 28.21875 55.609375 21.1875 
Q 55.609375 10.40625 48.1875 4.484375 
Q 40.765625 -1.421875 27.09375 -1.421875 
Q 22.515625 -1.421875 17.65625 -0.515625 
Q 12.796875 0.390625 7.625 2.203125 
L 7.625 11.71875 
Q 11.71875 9.328125 16.59375 8.109375 
Q 21.484375 6.890625 26.8125 6.890625 
Q 36.078125 6.890625 40.9375 10.546875 
Q 45.796875 14.203125 45.796875 21.1875 
Q 45.796875 27.640625 41.28125 31.265625 
Q 36.765625 34.90625 28.71875 34.90625 
L 20.21875 34.90625 
L 20.21875 43.015625 
L 29.109375 43.015625 
Q 36.375 43.015625 40.234375 45.921875 
Q 44.09375 48.828125 44.09375 54.296875 
Q 44.09375 59.90625 40.109375 62.90625 
Q 36.140625 65.921875 28.71875 65.921875 
Q 24.65625 65.921875 20.015625 65.03125 
Q 15.375 64.15625 9.8125 62.3125 
L 9.8125 71.09375 
Q 15.4375 72.65625 20.34375 73.4375 
Q 25.25 74.21875 29.59375 74.21875 
Q 40.828125 74.21875 47.359375 69.109375 
Q 53.90625 64.015625 53.90625 55.328125 
Q 53.90625 49.265625 50.4375 45.09375 
Q 46.96875 40.921875 40.578125 39.3125 
z
" id="DejaVuSans-51"/>
      </defs>
      <g transform="translate(331.274432 329.598437)scale(0.1 -0.1)">
       <use xlink:href="#DejaVuSans-51"/>
       <use x="63.623047" xlink:href="#DejaVuSans-48"/>
       <use x="127.246094" xlink:href="#DejaVuSans-48"/>
      </g>
     </g>
    </g>
    <g id="xtick_5">
     <g id="line2d_9">
      <path clip-path="url(#p0d33502547)" d="M 415.969697 315 
L 415.969697 43.2 
" style="fill:none;stroke:#b0b0b0;stroke-linecap:square;stroke-width:0.8;"/>
     </g>
     <g id="line2d_10">
      <g>
       <use style="stroke:#000000;stroke-width:0.8;" x="415.969697" xlink:href="#m054676328c" y="315"/>
      </g>
     </g>
     <g id="text_5">
      <!-- 400 -->
      <defs>
       <path d="M 37.796875 64.3125 
L 12.890625 25.390625 
L 37.796875 25.390625 
z
M 35.203125 72.90625 
L 47.609375 72.90625 
L 47.609375 25.390625 
L 58.015625 25.390625 
L 58.015625 17.1875 
L 47.609375 17.1875 
L 47.609375 0 
L 37.796875 0 
L 37.796875 17.1875 
L 4.890625 17.1875 
L 4.890625 26.703125 
z
" id="DejaVuSans-52"/>
      </defs>
      <g transform="translate(406.425947 329.598437)scale(0.1 -0.1)">
       <use xlink:href="#DejaVuSans-52"/>
       <use x="63.623047" xlink:href="#DejaVuSans-48"/>
       <use x="127.246094" xlink:href="#DejaVuSans-48"/>
      </g>
     </g>
    </g>
    <g id="xtick_6">
     <g id="line2d_11">
      <path clip-path="url(#p0d33502547)" d="M 491.121212 315 
L 491.121212 43.2 
" style="fill:none;stroke:#b0b0b0;stroke-linecap:square;stroke-width:0.8;"/>
     </g>
     <g id="line2d_12">
      <g>
       <use style="stroke:#000000;stroke-width:0.8;" x="491.121212" xlink:href="#m054676328c" y="315"/>
      </g>
     </g>
     <g id="text_6">
      <!-- 500 -->
      <defs>
       <path d="M 10.796875 72.90625 
L 49.515625 72.90625 
L 49.515625 64.59375 
L 19.828125 64.59375 
L 19.828125 46.734375 
Q 21.96875 47.46875 24.109375 47.828125 
Q 26.265625 48.1875 28.421875 48.1875 
Q 40.625 48.1875 47.75 41.5 
Q 54.890625 34.8125 54.890625 23.390625 
Q 54.890625 11.625 47.5625 5.09375 
Q 40.234375 -1.421875 26.90625 -1.421875 
Q 22.3125 -1.421875 17.546875 -0.640625 
Q 12.796875 0.140625 7.71875 1.703125 
L 7.71875 11.625 
Q 12.109375 9.234375 16.796875 8.0625 
Q 21.484375 6.890625 26.703125 6.890625 
Q 35.15625 6.890625 40.078125 11.328125 
Q 45.015625 15.765625 45.015625 23.390625 
Q 45.015625 31 40.078125 35.4375 
Q 35.15625 39.890625 26.703125 39.890625 
Q 22.75 39.890625 18.8125 39.015625 
Q 14.890625 38.140625 10.796875 36.28125 
z
" id="DejaVuSans-53"/>
      </defs>
      <g transform="translate(481.577462 329.598437)scale(0.1 -0.1)">
       <use xlink:href="#DejaVuSans-53"/>
       <use x="63.623047" xlink:href="#DejaVuSans-48"/>
       <use x="127.246094" xlink:href="#DejaVuSans-48"/>
      </g>
     </g>
    </g>
    <g id="xtick_7">
     <g id="line2d_13">
      <path clip-path="url(#p0d33502547)" d="M 566.272727 315 
L 566.272727 43.2 
" style="fill:none;stroke:#b0b0b0;stroke-linecap:square;stroke-width:0.8;"/>
     </g>
     <g id="line2d_14">
      <g>
       <use style="stroke:#000000;stroke-width:0.8;" x="566.272727" xlink:href="#m054676328c" y="315"/>
      </g>
     </g>
     <g id="text_7">
      <!-- 600 -->
      <defs>
       <path d="M 33.015625 40.375 
Q 26.375 40.375 22.484375 35.828125 
Q 18.609375 31.296875 18.609375 23.390625 
Q 18.609375 15.53125 22.484375 10.953125 
Q 26.375 6.390625 33.015625 6.390625 
Q 39.65625 6.390625 43.53125 10.953125 
Q 47.40625 15.53125 47.40625 23.390625 
Q 47.40625 31.296875 43.53125 35.828125 
Q 39.65625 40.375 33.015625 40.375 
z
M 52.59375 71.296875 
L 52.59375 62.3125 
Q 48.875 64.0625 45.09375 64.984375 
Q 41.3125 65.921875 37.59375 65.921875 
Q 27.828125 65.921875 22.671875 59.328125 
Q 17.53125 52.734375 16.796875 39.40625 
Q 19.671875 43.65625 24.015625 45.921875 
Q 28.375 48.1875 33.59375 48.1875 
Q 44.578125 48.1875 50.953125 41.515625 
Q 57.328125 34.859375 57.328125 23.390625 
Q 57.328125 12.15625 50.6875 5.359375 
Q 44.046875 -1.421875 33.015625 -1.421875 
Q 20.359375 -1.421875 13.671875 8.265625 
Q 6.984375 17.96875 6.984375 36.375 
Q 6.984375 53.65625 15.1875 63.9375 
Q 23.390625 74.21875 37.203125 74.21875 
Q 40.921875 74.21875 44.703125 73.484375 
Q 48.484375 72.75 52.59375 71.296875 
z
" id="DejaVuSans-54"/>
      </defs>
      <g transform="translate(556.728977 329.598437)scale(0.1 -0.1)">
       <use xlink:href="#DejaVuSans-54"/>
       <use x="63.623047" xlink:href="#DejaVuSans-48"/>
       <use x="127.246094" xlink:href="#DejaVuSans-48"/>
      </g>
     </g>
    </g>
    <g id="xtick_8">
     <g id="line2d_15">
      <path clip-path="url(#p0d33502547)" d="M 641.424242 315 
L 641.424242 43.2 
" style="fill:none;stroke:#b0b0b0;stroke-linecap:square;stroke-width:0.8;"/>
     </g>
     <g id="line2d_16">
      <g>
       <use style="stroke:#000000;stroke-width:0.8;" x="641.424242" xlink:href="#m054676328c" y="315"/>
      </g>
     </g>
     <g id="text_8">
      <!-- 700 -->
      <defs>
       <path d="M 8.203125 72.90625 
L 55.078125 72.90625 
L 55.078125 68.703125 
L 28.609375 0 
L 18.3125 0 
L 43.21875 64.59375 
L 8.203125 64.59375 
z
" id="DejaVuSans-55"/>
      </defs>
      <g transform="translate(631.880492 329.598437)scale(0.1 -0.1)">
       <use xlink:href="#DejaVuSans-55"/>
       <use x="63.623047" xlink:href="#DejaVuSans-48"/>
       <use x="127.246094" xlink:href="#DejaVuSans-48"/>
      </g>
     </g>
    </g>
    <g id="text_9">
     <!-- epoch -->
     <defs>
      <path d="M 56.203125 29.59375 
L 56.203125 25.203125 
L 14.890625 25.203125 
Q 15.484375 15.921875 20.484375 11.0625 
Q 25.484375 6.203125 34.421875 6.203125 
Q 39.59375 6.203125 44.453125 7.46875 
Q 49.3125 8.734375 54.109375 11.28125 
L 54.109375 2.78125 
Q 49.265625 0.734375 44.1875 -0.34375 
Q 39.109375 -1.421875 33.890625 -1.421875 
Q 20.796875 -1.421875 13.15625 6.1875 
Q 5.515625 13.8125 5.515625 26.8125 
Q 5.515625 40.234375 12.765625 48.109375 
Q 20.015625 56 32.328125 56 
Q 43.359375 56 49.78125 48.890625 
Q 56.203125 41.796875 56.203125 29.59375 
z
M 47.21875 32.234375 
Q 47.125 39.59375 43.09375 43.984375 
Q 39.0625 48.390625 32.421875 48.390625 
Q 24.90625 48.390625 20.390625 44.140625 
Q 15.875 39.890625 15.1875 32.171875 
z
" id="DejaVuSans-101"/>
      <path d="M 18.109375 8.203125 
L 18.109375 -20.796875 
L 9.078125 -20.796875 
L 9.078125 54.6875 
L 18.109375 54.6875 
L 18.109375 46.390625 
Q 20.953125 51.265625 25.265625 53.625 
Q 29.59375 56 35.59375 56 
Q 45.5625 56 51.78125 48.09375 
Q 58.015625 40.1875 58.015625 27.296875 
Q 58.015625 14.40625 51.78125 6.484375 
Q 45.5625 -1.421875 35.59375 -1.421875 
Q 29.59375 -1.421875 25.265625 0.953125 
Q 20.953125 3.328125 18.109375 8.203125 
z
M 48.6875 27.296875 
Q 48.6875 37.203125 44.609375 42.84375 
Q 40.53125 48.484375 33.40625 48.484375 
Q 26.265625 48.484375 22.1875 42.84375 
Q 18.109375 37.203125 18.109375 27.296875 
Q 18.109375 17.390625 22.1875 11.75 
Q 26.265625 6.109375 33.40625 6.109375 
Q 40.53125 6.109375 44.609375 11.75 
Q 48.6875 17.390625 48.6875 27.296875 
z
" id="DejaVuSans-112"/>
      <path d="M 30.609375 48.390625 
Q 23.390625 48.390625 19.1875 42.75 
Q 14.984375 37.109375 14.984375 27.296875 
Q 14.984375 17.484375 19.15625 11.84375 
Q 23.34375 6.203125 30.609375 6.203125 
Q 37.796875 6.203125 41.984375 11.859375 
Q 46.1875 17.53125 46.1875 27.296875 
Q 46.1875 37.015625 41.984375 42.703125 
Q 37.796875 48.390625 30.609375 48.390625 
z
M 30.609375 56 
Q 42.328125 56 49.015625 48.375 
Q 55.71875 40.765625 55.71875 27.296875 
Q 55.71875 13.875 49.015625 6.21875 
Q 42.328125 -1.421875 30.609375 -1.421875 
Q 18.84375 -1.421875 12.171875 6.21875 
Q 5.515625 13.875 5.515625 27.296875 
Q 5.515625 40.765625 12.171875 48.375 
Q 18.84375 56 30.609375 56 
z
" id="DejaVuSans-111"/>
      <path d="M 48.78125 52.59375 
L 48.78125 44.1875 
Q 44.96875 46.296875 41.140625 47.34375 
Q 37.3125 48.390625 33.40625 48.390625 
Q 24.65625 48.390625 19.8125 42.84375 
Q 14.984375 37.3125 14.984375 27.296875 
Q 14.984375 17.28125 19.8125 11.734375 
Q 24.65625 6.203125 33.40625 6.203125 
Q 37.3125 6.203125 41.140625 7.25 
Q 44.96875 8.296875 48.78125 10.40625 
L 48.78125 2.09375 
Q 45.015625 0.34375 40.984375 -0.53125 
Q 36.96875 -1.421875 32.421875 -1.421875 
Q 20.0625 -1.421875 12.78125 6.34375 
Q 5.515625 14.109375 5.515625 27.296875 
Q 5.515625 40.671875 12.859375 48.328125 
Q 20.21875 56 33.015625 56 
Q 37.15625 56 41.109375 55.140625 
Q 45.0625 54.296875 48.78125 52.59375 
z
" id="DejaVuSans-99"/>
      <path d="M 54.890625 33.015625 
L 54.890625 0 
L 45.90625 0 
L 45.90625 32.71875 
Q 45.90625 40.484375 42.875 44.328125 
Q 39.84375 48.1875 33.796875 48.1875 
Q 26.515625 48.1875 22.3125 43.546875 
Q 18.109375 38.921875 18.109375 30.90625 
L 18.109375 0 
L 9.078125 0 
L 9.078125 75.984375 
L 18.109375 75.984375 
L 18.109375 46.1875 
Q 21.34375 51.125 25.703125 53.5625 
Q 30.078125 56 35.796875 56 
Q 45.21875 56 50.046875 50.171875 
Q 54.890625 44.34375 54.890625 33.015625 
z
" id="DejaVuSans-104"/>
     </defs>
     <g transform="translate(353.771875 343.276563)scale(0.1 -0.1)">
      <use xlink:href="#DejaVuSans-101"/>
      <use x="61.523438" xlink:href="#DejaVuSans-112"/>
      <use x="125" xlink:href="#DejaVuSans-111"/>
      <use x="186.181641" xlink:href="#DejaVuSans-99"/>
      <use x="241.162109" xlink:href="#DejaVuSans-104"/>
     </g>
    </g>
   </g>
   <g id="matplotlib.axis_2">
    <g id="ytick_1">
     <g id="line2d_17">
      <path clip-path="url(#p0d33502547)" d="M 90 282.016682 
L 648 282.016682 
" style="fill:none;stroke:#b0b0b0;stroke-linecap:square;stroke-width:0.8;"/>
     </g>
     <g id="line2d_18">
      <defs>
       <path d="M 0 0 
L -3.5 0 
" id="ma9080986cb" style="stroke:#000000;stroke-width:0.8;"/>
      </defs>
      <g>
       <use style="stroke:#000000;stroke-width:0.8;" x="90" xlink:href="#ma9080986cb" y="282.016682"/>
      </g>
     </g>
     <g id="text_10">
      <!-- 0.2 -->
      <defs>
       <path d="M 10.6875 12.40625 
L 21 12.40625 
L 21 0 
L 10.6875 0 
z
" id="DejaVuSans-46"/>
      </defs>
      <g transform="translate(67.096875 285.815901)scale(0.1 -0.1)">
       <use xlink:href="#DejaVuSans-48"/>
       <use x="63.623047" xlink:href="#DejaVuSans-46"/>
       <use x="95.410156" xlink:href="#DejaVuSans-50"/>
      </g>
     </g>
    </g>
    <g id="ytick_2">
     <g id="line2d_19">
      <path clip-path="url(#p0d33502547)" d="M 90 247.025108 
L 648 247.025108 
" style="fill:none;stroke:#b0b0b0;stroke-linecap:square;stroke-width:0.8;"/>
     </g>
     <g id="line2d_20">
      <g>
       <use style="stroke:#000000;stroke-width:0.8;" x="90" xlink:href="#ma9080986cb" y="247.025108"/>
      </g>
     </g>
     <g id="text_11">
      <!-- 0.4 -->
      <g transform="translate(67.096875 250.824326)scale(0.1 -0.1)">
       <use xlink:href="#DejaVuSans-48"/>
       <use x="63.623047" xlink:href="#DejaVuSans-46"/>
       <use x="95.410156" xlink:href="#DejaVuSans-52"/>
      </g>
     </g>
    </g>
    <g id="ytick_3">
     <g id="line2d_21">
      <path clip-path="url(#p0d33502547)" d="M 90 212.033533 
L 648 212.033533 
" style="fill:none;stroke:#b0b0b0;stroke-linecap:square;stroke-width:0.8;"/>
     </g>
     <g id="line2d_22">
      <g>
       <use style="stroke:#000000;stroke-width:0.8;" x="90" xlink:href="#ma9080986cb" y="212.033533"/>
      </g>
     </g>
     <g id="text_12">
      <!-- 0.6 -->
      <g transform="translate(67.096875 215.832752)scale(0.1 -0.1)">
       <use xlink:href="#DejaVuSans-48"/>
       <use x="63.623047" xlink:href="#DejaVuSans-46"/>
       <use x="95.410156" xlink:href="#DejaVuSans-54"/>
      </g>
     </g>
    </g>
    <g id="ytick_4">
     <g id="line2d_23">
      <path clip-path="url(#p0d33502547)" d="M 90 177.041958 
L 648 177.041958 
" style="fill:none;stroke:#b0b0b0;stroke-linecap:square;stroke-width:0.8;"/>
     </g>
     <g id="line2d_24">
      <g>
       <use style="stroke:#000000;stroke-width:0.8;" x="90" xlink:href="#ma9080986cb" y="177.041958"/>
      </g>
     </g>
     <g id="text_13">
      <!-- 0.8 -->
      <defs>
       <path d="M 31.78125 34.625 
Q 24.75 34.625 20.71875 30.859375 
Q 16.703125 27.09375 16.703125 20.515625 
Q 16.703125 13.921875 20.71875 10.15625 
Q 24.75 6.390625 31.78125 6.390625 
Q 38.8125 6.390625 42.859375 10.171875 
Q 46.921875 13.96875 46.921875 20.515625 
Q 46.921875 27.09375 42.890625 30.859375 
Q 38.875 34.625 31.78125 34.625 
z
M 21.921875 38.8125 
Q 15.578125 40.375 12.03125 44.71875 
Q 8.5 49.078125 8.5 55.328125 
Q 8.5 64.0625 14.71875 69.140625 
Q 20.953125 74.21875 31.78125 74.21875 
Q 42.671875 74.21875 48.875 69.140625 
Q 55.078125 64.0625 55.078125 55.328125 
Q 55.078125 49.078125 51.53125 44.71875 
Q 48 40.375 41.703125 38.8125 
Q 48.828125 37.15625 52.796875 32.3125 
Q 56.78125 27.484375 56.78125 20.515625 
Q 56.78125 9.90625 50.3125 4.234375 
Q 43.84375 -1.421875 31.78125 -1.421875 
Q 19.734375 -1.421875 13.25 4.234375 
Q 6.78125 9.90625 6.78125 20.515625 
Q 6.78125 27.484375 10.78125 32.3125 
Q 14.796875 37.15625 21.921875 38.8125 
z
M 18.3125 54.390625 
Q 18.3125 48.734375 21.84375 45.5625 
Q 25.390625 42.390625 31.78125 42.390625 
Q 38.140625 42.390625 41.71875 45.5625 
Q 45.3125 48.734375 45.3125 54.390625 
Q 45.3125 60.0625 41.71875 63.234375 
Q 38.140625 66.40625 31.78125 66.40625 
Q 25.390625 66.40625 21.84375 63.234375 
Q 18.3125 60.0625 18.3125 54.390625 
z
" id="DejaVuSans-56"/>
      </defs>
      <g transform="translate(67.096875 180.841177)scale(0.1 -0.1)">
       <use xlink:href="#DejaVuSans-48"/>
       <use x="63.623047" xlink:href="#DejaVuSans-46"/>
       <use x="95.410156" xlink:href="#DejaVuSans-56"/>
      </g>
     </g>
    </g>
    <g id="ytick_5">
     <g id="line2d_25">
      <path clip-path="url(#p0d33502547)" d="M 90 142.050383 
L 648 142.050383 
" style="fill:none;stroke:#b0b0b0;stroke-linecap:square;stroke-width:0.8;"/>
     </g>
     <g id="line2d_26">
      <g>
       <use style="stroke:#000000;stroke-width:0.8;" x="90" xlink:href="#ma9080986cb" y="142.050383"/>
      </g>
     </g>
     <g id="text_14">
      <!-- 1.0 -->
      <g transform="translate(67.096875 145.849602)scale(0.1 -0.1)">
       <use xlink:href="#DejaVuSans-49"/>
       <use x="63.623047" xlink:href="#DejaVuSans-46"/>
       <use x="95.410156" xlink:href="#DejaVuSans-48"/>
      </g>
     </g>
    </g>
    <g id="ytick_6">
     <g id="line2d_27">
      <path clip-path="url(#p0d33502547)" d="M 90 107.058809 
L 648 107.058809 
" style="fill:none;stroke:#b0b0b0;stroke-linecap:square;stroke-width:0.8;"/>
     </g>
     <g id="line2d_28">
      <g>
       <use style="stroke:#000000;stroke-width:0.8;" x="90" xlink:href="#ma9080986cb" y="107.058809"/>
      </g>
     </g>
     <g id="text_15">
      <!-- 1.2 -->
      <g transform="translate(67.096875 110.858027)scale(0.1 -0.1)">
       <use xlink:href="#DejaVuSans-49"/>
       <use x="63.623047" xlink:href="#DejaVuSans-46"/>
       <use x="95.410156" xlink:href="#DejaVuSans-50"/>
      </g>
     </g>
    </g>
    <g id="ytick_7">
     <g id="line2d_29">
      <path clip-path="url(#p0d33502547)" d="M 90 72.067234 
L 648 72.067234 
" style="fill:none;stroke:#b0b0b0;stroke-linecap:square;stroke-width:0.8;"/>
     </g>
     <g id="line2d_30">
      <g>
       <use style="stroke:#000000;stroke-width:0.8;" x="90" xlink:href="#ma9080986cb" y="72.067234"/>
      </g>
     </g>
     <g id="text_16">
      <!-- 1.4 -->
      <g transform="translate(67.096875 75.866453)scale(0.1 -0.1)">
       <use xlink:href="#DejaVuSans-49"/>
       <use x="63.623047" xlink:href="#DejaVuSans-46"/>
       <use x="95.410156" xlink:href="#DejaVuSans-52"/>
      </g>
     </g>
    </g>
    <g id="text_17">
     <!-- loss -->
     <defs>
      <path d="M 9.421875 75.984375 
L 18.40625 75.984375 
L 18.40625 0 
L 9.421875 0 
z
" id="DejaVuSans-108"/>
      <path d="M 44.28125 53.078125 
L 44.28125 44.578125 
Q 40.484375 46.53125 36.375 47.5 
Q 32.28125 48.484375 27.875 48.484375 
Q 21.1875 48.484375 17.84375 46.4375 
Q 14.5 44.390625 14.5 40.28125 
Q 14.5 37.15625 16.890625 35.375 
Q 19.28125 33.59375 26.515625 31.984375 
L 29.59375 31.296875 
Q 39.15625 29.25 43.1875 25.515625 
Q 47.21875 21.78125 47.21875 15.09375 
Q 47.21875 7.46875 41.1875 3.015625 
Q 35.15625 -1.421875 24.609375 -1.421875 
Q 20.21875 -1.421875 15.453125 -0.5625 
Q 10.6875 0.296875 5.421875 2 
L 5.421875 11.28125 
Q 10.40625 8.6875 15.234375 7.390625 
Q 20.0625 6.109375 24.8125 6.109375 
Q 31.15625 6.109375 34.5625 8.28125 
Q 37.984375 10.453125 37.984375 14.40625 
Q 37.984375 18.0625 35.515625 20.015625 
Q 33.0625 21.96875 24.703125 23.78125 
L 21.578125 24.515625 
Q 13.234375 26.265625 9.515625 29.90625 
Q 5.8125 33.546875 5.8125 39.890625 
Q 5.8125 47.609375 11.28125 51.796875 
Q 16.75 56 26.8125 56 
Q 31.78125 56 36.171875 55.265625 
Q 40.578125 54.546875 44.28125 53.078125 
z
" id="DejaVuSans-115"/>
     </defs>
     <g transform="translate(61.017187 188.757812)rotate(-90)scale(0.1 -0.1)">
      <use xlink:href="#DejaVuSans-108"/>
      <use x="27.783203" xlink:href="#DejaVuSans-111"/>
      <use x="88.964844" xlink:href="#DejaVuSans-115"/>
      <use x="141.064453" xlink:href="#DejaVuSans-115"/>
     </g>
    </g>
   </g>
   <g id="line2d_31">
    <path clip-path="url(#p0d33502547)" d="M 115.363636 55.554545 
L 116.115152 67.19379 
L 116.866667 74.092077 
L 117.618182 76.924763 
L 118.369697 81.310802 
L 120.624242 91.279825 
L 122.127273 97.466929 
L 122.878788 99.657328 
L 123.630303 103.123763 
L 125.133333 114.045477 
L 125.884848 115.484447 
L 126.636364 119.25242 
L 128.890909 133.467325 
L 130.393939 140.522825 
L 131.145455 144.508293 
L 131.89697 146.691034 
L 132.648485 153.039224 
L 133.4 154.095509 
L 134.151515 162.048667 
L 135.654545 168.472081 
L 136.406061 173.121472 
L 137.909091 179.863302 
L 138.660606 183.345089 
L 139.412121 184.515462 
L 140.163636 189.285623 
L 140.915152 193.338351 
L 141.666667 194.981681 
L 142.418182 197.135278 
L 143.169697 198.479155 
L 143.921212 202.85933 
L 144.672727 205.886498 
L 145.424242 206.174228 
L 146.175758 210.483497 
L 146.927273 209.066788 
L 147.678788 212.170728 
L 149.181818 217.293975 
L 149.933333 217.447577 
L 150.684848 218.884879 
L 152.187879 220.684746 
L 152.939394 226.264666 
L 153.690909 226.073749 
L 154.442424 225.526786 
L 155.193939 229.013006 
L 155.945455 229.057175 
L 156.69697 229.598837 
L 157.448485 231.585302 
L 158.2 232.278828 
L 158.951515 232.492911 
L 160.454545 237.5438 
L 161.206061 237.198482 
L 161.957576 239.572287 
L 162.709091 239.626033 
L 163.460606 240.4694 
L 164.212121 242.353872 
L 164.963636 243.398063 
L 165.715152 243.36214 
L 166.466667 245.301728 
L 167.218182 244.426511 
L 167.969697 246.159221 
L 168.721212 247.234208 
L 169.472727 246.666344 
L 170.224242 248.947195 
L 170.975758 251.890995 
L 171.727273 250.777994 
L 172.478788 249.319171 
L 173.230303 250.812819 
L 173.981818 251.850992 
L 174.733333 252.010664 
L 175.484848 253.893565 
L 176.236364 253.516067 
L 176.987879 254.760543 
L 177.739394 255.202184 
L 178.490909 254.079855 
L 179.242424 256.497813 
L 179.993939 257.125478 
L 180.745455 255.759628 
L 182.248485 257.759026 
L 183 257.743007 
L 183.751515 260.853567 
L 184.50303 261.14378 
L 185.254545 259.31473 
L 186.006061 261.108397 
L 186.757576 261.99891 
L 187.509091 261.988692 
L 188.260606 263.133828 
L 189.012121 263.470115 
L 189.763636 264.809083 
L 190.515152 263.501561 
L 191.266667 263.385939 
L 192.018182 263.913594 
L 192.769697 265.160812 
L 193.521212 264.998562 
L 194.272727 265.78296 
L 195.024242 266.876765 
L 195.775758 265.293495 
L 196.527273 267.765436 
L 197.278788 269.239202 
L 198.030303 267.708507 
L 198.781818 267.538548 
L 199.533333 269.809033 
L 200.284848 269.939811 
L 201.036364 268.61385 
L 201.787879 269.045957 
L 202.539394 270.682602 
L 203.290909 270.399611 
L 204.042424 269.419336 
L 204.793939 269.506028 
L 205.545455 272.48034 
L 207.048485 273.702323 
L 207.8 271.32382 
L 208.551515 272.182699 
L 209.30303 274.537524 
L 210.054545 275.671871 
L 210.806061 273.364235 
L 211.557576 275.321493 
L 212.309091 273.883457 
L 213.060606 273.289038 
L 213.812121 274.798905 
L 214.563636 274.902748 
L 215.315152 274.397463 
L 216.066667 276.187053 
L 216.818182 276.504025 
L 217.569697 276.05465 
L 218.321212 273.31666 
L 219.072727 276.654863 
L 219.824242 276.229547 
L 220.575758 276.455726 
L 221.327273 278.151305 
L 222.830303 278.073353 
L 223.581818 276.726892 
L 224.333333 277.737998 
L 225.084848 277.545864 
L 225.836364 279.087405 
L 226.587879 278.934476 
L 227.339394 278.910774 
L 228.090909 279.323148 
L 228.842424 278.48592 
L 229.593939 277.406487 
L 230.345455 278.399086 
L 231.09697 280.449191 
L 231.848485 280.620116 
L 232.6 279.965316 
L 233.351515 280.381295 
L 234.854545 280.620075 
L 235.606061 281.933944 
L 236.357576 280.173343 
L 237.109091 280.850505 
L 237.860606 280.457417 
L 238.612121 282.723607 
L 239.363636 282.860902 
L 240.115152 281.869473 
L 240.866667 280.375532 
L 241.618182 282.561512 
L 242.369697 282.05174 
L 243.121212 282.140893 
L 243.872727 283.543023 
L 244.624242 283.623413 
L 245.375758 282.170471 
L 246.127273 284.220608 
L 247.630303 283.869599 
L 249.133333 282.484454 
L 249.884848 284.000241 
L 250.636364 283.342879 
L 251.387879 283.334016 
L 252.139394 284.88975 
L 252.890909 284.772833 
L 253.642424 282.048838 
L 254.393939 284.286568 
L 255.145455 283.713382 
L 255.89697 285.171895 
L 256.648485 283.485892 
L 257.4 284.280695 
L 258.151515 284.612246 
L 258.90303 285.265912 
L 259.654545 285.31945 
L 260.406061 285.090472 
L 261.157576 285.815832 
L 261.909091 286.720308 
L 262.660606 285.204358 
L 263.412121 287.943083 
L 264.163636 288.598428 
L 264.915152 285.130416 
L 265.666667 284.483295 
L 266.418182 285.655939 
L 267.169697 288.515702 
L 267.921212 287.397711 
L 268.672727 287.21636 
L 269.424242 287.64585 
L 270.175758 286.445719 
L 270.927273 286.337627 
L 271.678788 288.212005 
L 272.430303 287.604567 
L 273.181818 286.628782 
L 273.933333 288.024539 
L 274.684848 286.252957 
L 275.436364 286.571073 
L 276.187879 286.575651 
L 276.939394 287.774333 
L 277.690909 284.915205 
L 278.442424 288.958069 
L 279.193939 287.023751 
L 279.945455 287.30843 
L 280.69697 288.777421 
L 281.448485 288.176697 
L 282.2 288.731732 
L 282.951515 287.259197 
L 283.70303 288.716518 
L 284.454545 288.197331 
L 285.206061 288.35701 
L 286.709091 287.344324 
L 287.460606 289.469077 
L 288.212121 290.093255 
L 288.963636 289.113674 
L 289.715152 287.773437 
L 290.466667 288.939599 
L 291.218182 288.632165 
L 291.969697 288.51018 
L 292.721212 289.518408 
L 293.472727 289.396468 
L 294.975758 288.225709 
L 295.727273 288.486149 
L 297.230303 290.364895 
L 297.981818 287.101715 
L 298.733333 287.575129 
L 299.484848 289.958068 
L 300.236364 290.645182 
L 300.987879 291.990592 
L 301.739394 288.984453 
L 302.490909 289.967521 
L 303.242424 289.158138 
L 303.993939 288.760129 
L 304.745455 289.964329 
L 305.49697 289.288811 
L 306.248485 291.54241 
L 307 290.108093 
L 307.751515 290.819462 
L 308.50303 288.944539 
L 309.254545 291.113471 
L 310.006061 290.889308 
L 310.757576 289.155706 
L 311.509091 290.746279 
L 312.260606 291.671758 
L 313.012121 291.081999 
L 313.763636 292.172488 
L 314.515152 290.653651 
L 315.266667 290.945214 
L 316.018182 290.980349 
L 316.769697 292.68859 
L 317.521212 292.629458 
L 318.272727 290.204713 
L 319.024242 290.395525 
L 319.775758 290.127257 
L 320.527273 289.727647 
L 321.278788 289.680703 
L 322.030303 290.715142 
L 322.781818 291.483818 
L 323.533333 290.25427 
L 324.284848 291.639894 
L 325.036364 290.878401 
L 325.787879 291.280298 
L 326.539394 292.004743 
L 328.042424 291.355394 
L 328.793939 290.782498 
L 329.545455 289.76516 
L 330.29697 293.21313 
L 331.048485 291.479595 
L 331.8 293.503772 
L 332.551515 293.688114 
L 333.30303 290.631648 
L 334.806061 291.821574 
L 335.557576 292.993084 
L 336.309091 290.896252 
L 337.060606 292.916007 
L 337.812121 291.517829 
L 338.563636 292.757858 
L 339.315152 291.865766 
L 340.066667 292.34015 
L 340.818182 288.952645 
L 341.569697 292.261823 
L 342.321212 292.35046 
L 343.072727 292.844455 
L 343.824242 291.102134 
L 344.575758 294.533336 
L 345.327273 292.522957 
L 346.078788 292.408904 
L 346.830303 293.539287 
L 347.581818 293.552757 
L 348.333333 291.155342 
L 349.084848 294.958212 
L 349.836364 292.698848 
L 350.587879 294.27465 
L 351.339394 293.972036 
L 352.090909 293.240134 
L 352.842424 293.867574 
L 353.593939 293.363956 
L 354.345455 293.422742 
L 355.09697 294.571057 
L 355.848485 292.523357 
L 356.6 295.036518 
L 357.351515 292.783589 
L 358.10303 295.698127 
L 358.854545 292.36297 
L 359.606061 294.050256 
L 360.357576 292.710571 
L 361.109091 294.16024 
L 361.860606 294.528747 
L 362.612121 292.102868 
L 363.363636 293.561709 
L 364.115152 296.241909 
L 364.866667 295.177366 
L 365.618182 293.065894 
L 366.369697 292.165524 
L 367.121212 296.951023 
L 367.872727 295.501613 
L 368.624242 294.714638 
L 369.375758 293.727968 
L 370.127273 295.146322 
L 370.878788 294.449912 
L 371.630303 295.378326 
L 372.381818 294.944576 
L 373.133333 294.225439 
L 373.884848 294.138516 
L 374.636364 294.911128 
L 375.387879 294.656336 
L 376.890909 293.017244 
L 377.642424 294.572318 
L 378.393939 294.499052 
L 379.145455 295.20305 
L 380.648485 296.253256 
L 381.4 296.803501 
L 382.151515 295.380683 
L 382.90303 295.969031 
L 383.654545 292.76843 
L 384.406061 293.752214 
L 385.157576 294.296355 
L 385.909091 293.217794 
L 386.660606 295.457258 
L 387.412121 294.146355 
L 388.163636 295.380465 
L 388.915152 295.263237 
L 389.666667 294.120733 
L 390.418182 295.532574 
L 391.169697 294.823986 
L 391.921212 296.365004 
L 392.672727 293.474325 
L 393.424242 295.571404 
L 394.175758 295.849906 
L 394.927273 294.012371 
L 395.678788 296.208163 
L 396.430303 295.009563 
L 397.181818 294.626478 
L 397.933333 294.416798 
L 398.684848 294.742382 
L 400.187879 296.034824 
L 400.939394 294.560503 
L 401.690909 293.413218 
L 403.193939 293.920158 
L 404.69697 296.793414 
L 405.448485 295.977532 
L 406.2 295.990948 
L 406.951515 293.465284 
L 407.70303 297.569377 
L 408.454545 296.228404 
L 409.206061 295.901434 
L 409.957576 296.960919 
L 411.460606 294.508916 
L 412.212121 294.483976 
L 412.963636 295.767589 
L 413.715152 296.65506 
L 414.466667 296.621511 
L 415.218182 295.654293 
L 415.969697 295.035505 
L 416.721212 295.47191 
L 417.472727 296.61607 
L 418.224242 295.954665 
L 418.975758 295.805777 
L 419.727273 298.222497 
L 420.478788 295.686044 
L 421.230303 296.556841 
L 421.981818 295.774439 
L 422.733333 296.76456 
L 423.484848 294.27725 
L 424.236364 295.597137 
L 425.739394 297.496048 
L 426.490909 295.753186 
L 427.242424 295.358491 
L 427.993939 296.731971 
L 428.745455 297.395419 
L 429.49697 296.572304 
L 430.248485 297.068014 
L 431 295.093926 
L 431.751515 293.847217 
L 432.50303 296.545944 
L 433.254545 296.010191 
L 434.006061 297.05138 
L 434.757576 295.464901 
L 435.509091 296.248137 
L 436.260606 294.543015 
L 437.012121 294.874703 
L 437.763636 295.53425 
L 438.515152 295.142046 
L 439.266667 295.273989 
L 440.018182 294.981453 
L 440.769697 297.515571 
L 441.521212 296.554257 
L 442.272727 296.87461 
L 443.024242 297.380805 
L 443.775758 297.484675 
L 444.527273 298.239275 
L 445.278788 297.924322 
L 446.030303 298.495917 
L 446.781818 295.850309 
L 447.533333 297.903775 
L 448.284848 297.211731 
L 449.036364 297.204484 
L 449.787879 296.691829 
L 451.290909 297.046438 
L 452.042424 298.107346 
L 452.793939 296.389137 
L 453.545455 298.236943 
L 454.29697 298.447054 
L 455.048485 298.094406 
L 455.8 296.826407 
L 456.551515 296.508573 
L 457.30303 297.498529 
L 458.054545 297.040753 
L 458.806061 297.614283 
L 459.557576 299.250447 
L 460.309091 298.647924 
L 461.060606 296.74258 
L 461.812121 297.790129 
L 462.563636 296.951261 
L 463.315152 296.716969 
L 464.066667 296.208868 
L 464.818182 297.989867 
L 465.569697 297.898654 
L 466.321212 298.93247 
L 467.072727 297.189022 
L 467.824242 297.88288 
L 468.575758 298.081885 
L 469.327273 299.247708 
L 470.078788 296.618614 
L 470.830303 297.334362 
L 471.581818 298.668751 
L 472.333333 297.729144 
L 473.836364 297.81318 
L 474.587879 295.913245 
L 475.339394 296.891886 
L 476.090909 298.318809 
L 476.842424 297.7144 
L 477.593939 298.430438 
L 478.345455 298.376394 
L 479.09697 299.05991 
L 479.848485 298.021236 
L 480.6 298.886518 
L 481.351515 299.522294 
L 482.10303 298.545767 
L 482.854545 296.996242 
L 483.606061 299.582805 
L 484.357576 298.708046 
L 485.109091 300.658165 
L 485.860606 300.080971 
L 486.612121 296.872574 
L 487.363636 297.437659 
L 488.115152 297.598651 
L 488.866667 297.154738 
L 489.618182 298.658988 
L 490.369697 297.62223 
L 491.121212 298.024495 
L 491.872727 296.447906 
L 492.624242 297.816204 
L 493.375758 298.509854 
L 494.127273 297.837233 
L 494.878788 298.090293 
L 495.630303 298.2031 
L 496.381818 297.98683 
L 497.133333 300.11453 
L 497.884848 298.119104 
L 498.636364 299.209345 
L 499.387879 299.594131 
L 500.139394 298.89105 
L 500.890909 299.520722 
L 501.642424 298.048634 
L 502.393939 298.927326 
L 503.145455 299.251396 
L 503.89697 300.448565 
L 504.648485 299.298761 
L 505.4 297.526768 
L 506.151515 299.236517 
L 506.90303 298.847994 
L 507.654545 298.176755 
L 508.406061 298.691751 
L 509.157576 301.135871 
L 509.909091 297.974549 
L 510.660606 296.817868 
L 511.412121 298.033295 
L 512.163636 297.61001 
L 512.915152 299.719148 
L 513.666667 298.219623 
L 514.418182 301.271773 
L 515.169697 299.318277 
L 515.921212 299.074843 
L 516.672727 298.235327 
L 517.424242 299.643918 
L 518.175758 298.324033 
L 518.927273 297.290337 
L 520.430303 301.830858 
L 521.181818 299.494624 
L 521.933333 300.25081 
L 522.684848 298.691721 
L 523.436364 298.700759 
L 524.187879 298.485423 
L 524.939394 300.330244 
L 525.690909 300.769434 
L 526.442424 298.592691 
L 527.193939 298.828939 
L 527.945455 298.783974 
L 528.69697 298.951667 
L 529.448485 300.442718 
L 530.2 299.456535 
L 530.951515 299.918783 
L 531.70303 299.214825 
L 532.454545 297.558848 
L 533.206061 300.82617 
L 533.957576 298.392117 
L 534.709091 299.756696 
L 535.460606 299.947177 
L 536.212121 299.612862 
L 536.963636 298.484181 
L 537.715152 298.620396 
L 538.466667 299.359527 
L 539.218182 300.436805 
L 539.969697 299.130382 
L 541.472727 300.907167 
L 542.224242 299.308454 
L 542.975758 299.110665 
L 543.727273 297.902867 
L 544.478788 300.823752 
L 545.230303 300.85984 
L 545.981818 301.832206 
L 546.733333 300.848197 
L 547.484848 300.220803 
L 548.236364 298.902179 
L 548.987879 299.950529 
L 549.739394 300.001883 
L 550.490909 300.343582 
L 551.242424 301.163656 
L 551.993939 299.716247 
L 552.745455 299.39034 
L 554.248485 299.809847 
L 555 298.706307 
L 555.751515 298.385345 
L 556.50303 300.507267 
L 557.254545 299.212103 
L 558.006061 299.634043 
L 558.757576 298.970016 
L 559.509091 298.995971 
L 560.260606 297.829842 
L 561.012121 300.511042 
L 561.763636 299.513165 
L 562.515152 300.520277 
L 563.266667 300.549804 
L 564.018182 299.648727 
L 564.769697 300.418123 
L 565.521212 300.745622 
L 566.272727 299.320067 
L 567.024242 300.694704 
L 567.775758 300.077002 
L 568.527273 298.270176 
L 569.278788 299.709558 
L 570.781818 300.231054 
L 571.533333 299.07407 
L 573.036364 299.947791 
L 573.787879 301.094861 
L 574.539394 298.491399 
L 575.290909 299.701998 
L 576.042424 299.705204 
L 576.793939 300.395204 
L 577.545455 299.044913 
L 578.29697 299.567706 
L 579.048485 300.990892 
L 579.8 301.237792 
L 581.30303 299.798778 
L 582.054545 300.757164 
L 582.806061 302.132867 
L 583.557576 300.210537 
L 584.309091 301.892521 
L 585.060606 300.437395 
L 586.563636 299.162542 
L 587.315152 299.847916 
L 588.066667 300.985471 
L 588.818182 301.297139 
L 589.569697 300.233393 
L 590.321212 300.145121 
L 591.072727 299.273222 
L 591.824242 301.68928 
L 592.575758 299.432165 
L 593.327273 301.721099 
L 594.078788 301.14507 
L 594.830303 301.234679 
L 595.581818 301.546559 
L 596.333333 301.297253 
L 597.084848 300.71631 
L 597.836364 302.387252 
L 598.587879 299.03427 
L 599.339394 302.645455 
L 600.090909 300.785808 
L 600.842424 300.77313 
L 601.593939 300.065631 
L 602.345455 301.530575 
L 603.09697 299.778503 
L 603.848485 300.604974 
L 604.6 300.134725 
L 605.351515 299.35433 
L 606.10303 299.793987 
L 606.854545 300.627801 
L 607.606061 299.012248 
L 608.357576 298.80439 
L 609.109091 299.82201 
L 609.860606 300.11837 
L 610.612121 300.07455 
L 611.363636 299.226781 
L 612.115152 300.91167 
L 612.866667 299.675278 
L 613.618182 301.902273 
L 614.369697 299.810259 
L 615.121212 300.392042 
L 615.872727 302.494792 
L 616.624242 300.969877 
L 617.375758 302.330596 
L 618.127273 299.848023 
L 618.878788 301.203354 
L 619.630303 300.400154 
L 620.381818 298.089682 
L 621.133333 299.047703 
L 621.884848 301.801827 
L 622.636364 301.176301 
L 622.636364 301.176301 
" style="fill:none;stroke:#1f77b4;stroke-linecap:square;stroke-width:0.5;"/>
   </g>
   <g id="line2d_32">
    <path clip-path="url(#p0d33502547)" d="M 115.363636 60.839468 
L 116.115152 68.435697 
L 116.866667 71.07259 
L 118.369697 79.998024 
L 119.121212 81.008884 
L 119.872727 84.735114 
L 121.375758 90.922832 
L 122.127273 96.855021 
L 122.878788 97.654356 
L 123.630303 102.310703 
L 125.133333 109.893878 
L 125.884848 112.78723 
L 127.387879 119.616531 
L 128.139394 124.666184 
L 128.890909 128.645735 
L 129.642424 133.242971 
L 130.393939 135.175195 
L 131.145455 143.126714 
L 131.89697 144.12627 
L 132.648485 145.755719 
L 133.4 154.518845 
L 134.151515 158.393994 
L 134.90303 160.620643 
L 137.157576 174.763194 
L 137.909091 175.319605 
L 138.660606 179.701331 
L 139.412121 180.801127 
L 140.163636 182.916503 
L 140.915152 187.989558 
L 141.666667 191.680559 
L 142.418182 193.482188 
L 143.169697 194.562185 
L 143.921212 198.677869 
L 145.424242 202.418973 
L 146.175758 205.139442 
L 148.430303 209.940144 
L 149.181818 213.38465 
L 149.933333 214.237846 
L 150.684848 217.691224 
L 151.436364 216.192725 
L 152.187879 218.134261 
L 152.939394 219.543927 
L 153.690909 223.678333 
L 154.442424 220.783803 
L 155.193939 224.989751 
L 155.945455 223.478393 
L 156.69697 226.093432 
L 157.448485 225.70416 
L 158.2 228.237492 
L 158.951515 228.057419 
L 159.70303 230.569831 
L 160.454545 231.710011 
L 161.206061 231.657022 
L 161.957576 231.056412 
L 162.709091 234.83258 
L 163.460606 234.048286 
L 164.963636 236.542388 
L 165.715152 239.057108 
L 166.466667 240.844656 
L 167.218182 238.705952 
L 167.969697 239.802335 
L 168.721212 240.501575 
L 169.472727 242.918769 
L 170.224242 243.267616 
L 170.975758 243.313358 
L 171.727273 242.472329 
L 172.478788 245.442433 
L 173.230303 245.863266 
L 173.981818 247.697678 
L 175.484848 248.616709 
L 176.236364 247.675441 
L 176.987879 249.142061 
L 177.739394 248.340138 
L 178.490909 250.750101 
L 179.242424 251.288523 
L 179.993939 250.850397 
L 180.745455 252.048665 
L 181.49697 251.606859 
L 183 253.424329 
L 183.751515 255.180779 
L 184.50303 255.293736 
L 185.254545 255.683485 
L 186.006061 255.692861 
L 186.757576 256.48987 
L 187.509091 256.687541 
L 188.260606 256.077152 
L 189.012121 258.95479 
L 189.763636 257.980576 
L 190.515152 258.117357 
L 191.266667 259.397919 
L 192.018182 259.74638 
L 192.769697 257.284298 
L 193.521212 259.131939 
L 194.272727 261.507569 
L 195.024242 259.981005 
L 195.775758 261.423556 
L 196.527273 261.480705 
L 197.278788 259.86909 
L 198.781818 263.151833 
L 199.533333 262.684717 
L 200.284848 261.971404 
L 201.036364 262.269159 
L 201.787879 265.040381 
L 202.539394 265.02263 
L 203.290909 264.102613 
L 204.042424 264.133792 
L 204.793939 264.663156 
L 205.545455 265.544063 
L 207.048485 266.801414 
L 207.8 265.839363 
L 208.551515 266.475339 
L 209.30303 266.576645 
L 210.054545 267.648127 
L 210.806061 267.253495 
L 211.557576 269.86895 
L 212.309091 266.297162 
L 213.060606 268.069841 
L 213.812121 269.431033 
L 214.563636 270.171117 
L 215.315152 271.23105 
L 216.066667 269.868493 
L 216.818182 268.26012 
L 217.569697 270.510231 
L 218.321212 270.022936 
L 219.072727 266.744217 
L 219.824242 270.186784 
L 220.575758 270.691714 
L 221.327273 270.109666 
L 222.078788 269.288629 
L 222.830303 272.676175 
L 223.581818 271.421369 
L 224.333333 272.450739 
L 225.084848 272.379921 
L 225.836364 273.952167 
L 226.587879 272.058733 
L 227.339394 272.876804 
L 228.090909 273.40058 
L 228.842424 273.44767 
L 229.593939 272.274194 
L 230.345455 273.293332 
L 231.09697 274.819327 
L 232.6 273.385636 
L 233.351515 274.288771 
L 234.10303 274.823511 
L 234.854545 273.851074 
L 235.606061 273.717126 
L 236.357576 275.850461 
L 237.109091 277.396659 
L 237.860606 276.889748 
L 238.612121 275.929461 
L 239.363636 275.777928 
L 240.115152 274.878649 
L 240.866667 276.236197 
L 241.618182 274.709563 
L 242.369697 275.892484 
L 243.121212 276.311549 
L 243.872727 276.577417 
L 244.624242 277.481398 
L 245.375758 277.128258 
L 246.127273 276.530204 
L 246.878788 277.928613 
L 247.630303 278.196943 
L 248.381818 277.337701 
L 249.133333 278.147055 
L 249.884848 276.451615 
L 250.636364 278.682478 
L 251.387879 278.677036 
L 252.139394 278.898472 
L 252.890909 275.255725 
L 254.393939 278.497566 
L 255.145455 276.832959 
L 255.89697 278.970778 
L 256.648485 280.09493 
L 257.4 278.795234 
L 258.151515 278.426143 
L 258.90303 277.455674 
L 259.654545 279.042701 
L 260.406061 278.194761 
L 261.157576 279.488093 
L 261.909091 280.398298 
L 262.660606 277.077314 
L 263.412121 281.028773 
L 264.163636 277.983347 
L 264.915152 279.714256 
L 265.666667 280.515104 
L 266.418182 278.591872 
L 267.169697 278.952994 
L 268.672727 278.507752 
L 269.424242 280.221684 
L 270.175758 280.740365 
L 270.927273 282.198897 
L 271.678788 280.627543 
L 272.430303 279.701959 
L 273.933333 280.8132 
L 274.684848 279.738518 
L 275.436364 282.993193 
L 276.187879 280.706791 
L 276.939394 281.421567 
L 277.690909 281.33641 
L 278.442424 280.672517 
L 279.193939 282.080142 
L 279.945455 280.817238 
L 280.69697 281.421486 
L 282.2 281.5287 
L 282.951515 281.821462 
L 283.70303 281.159316 
L 284.454545 280.343067 
L 285.206061 281.94137 
L 285.957576 281.231419 
L 286.709091 281.013611 
L 287.460606 280.42298 
L 288.212121 282.19578 
L 288.963636 282.885866 
L 289.715152 282.792404 
L 290.466667 281.392569 
L 291.218182 282.668016 
L 291.969697 282.007085 
L 292.721212 282.995394 
L 293.472727 282.327121 
L 294.224242 282.617441 
L 294.975758 281.892486 
L 295.727273 284.179701 
L 296.478788 279.658912 
L 297.230303 281.972672 
L 297.981818 282.036412 
L 298.733333 283.024765 
L 299.484848 281.917413 
L 300.236364 282.100016 
L 300.987879 281.597387 
L 301.739394 280.581441 
L 302.490909 282.898129 
L 303.242424 282.879847 
L 303.993939 285.170176 
L 304.745455 281.239209 
L 305.49697 283.371628 
L 306.248485 281.62709 
L 307 286.300225 
L 307.751515 284.244211 
L 308.50303 283.525357 
L 309.254545 283.78127 
L 310.006061 283.813029 
L 310.757576 283.119522 
L 311.509091 283.860368 
L 312.260606 282.757156 
L 313.012121 283.15671 
L 313.763636 282.570224 
L 314.515152 284.100184 
L 315.266667 284.836939 
L 316.018182 283.305168 
L 316.769697 283.614952 
L 318.272727 283.936305 
L 319.024242 284.926307 
L 319.775758 279.802415 
L 321.278788 283.656516 
L 322.030303 283.820998 
L 322.781818 283.264262 
L 323.533333 286.939216 
L 324.284848 284.026813 
L 325.787879 284.525355 
L 326.539394 284.492182 
L 327.290909 283.254401 
L 328.042424 284.549861 
L 328.793939 284.054945 
L 330.29697 284.199542 
L 331.048485 283.078792 
L 332.551515 282.872828 
L 333.30303 284.603799 
L 334.054545 282.992892 
L 334.806061 283.834941 
L 335.557576 284.937298 
L 336.309091 282.234374 
L 337.812121 284.890912 
L 338.563636 283.572305 
L 339.315152 281.80523 
L 340.066667 283.904746 
L 340.818182 285.24411 
L 341.569697 281.370493 
L 342.321212 284.655908 
L 343.072727 285.554651 
L 343.824242 286.92966 
L 344.575758 285.133602 
L 345.327273 285.453899 
L 346.078788 283.53995 
L 346.830303 284.884348 
L 347.581818 283.106546 
L 349.084848 286.330816 
L 349.836364 284.561132 
L 350.587879 285.795211 
L 351.339394 284.006657 
L 352.090909 283.365183 
L 352.842424 283.814735 
L 353.593939 282.567103 
L 354.345455 283.130736 
L 355.09697 284.151201 
L 355.848485 283.650766 
L 356.6 284.911975 
L 357.351515 284.649078 
L 358.10303 285.518167 
L 358.854545 285.276261 
L 359.606061 285.865258 
L 360.357576 285.657459 
L 361.109091 284.913914 
L 361.860606 282.600213 
L 362.612121 285.25597 
L 363.363636 284.958015 
L 364.115152 285.075751 
L 364.866667 284.815937 
L 365.618182 285.546293 
L 366.369697 283.132974 
L 367.121212 287.224505 
L 367.872727 285.313407 
L 369.375758 285.92802 
L 370.878788 286.052715 
L 371.630303 285.746622 
L 372.381818 284.054611 
L 373.133333 285.220774 
L 373.884848 285.291113 
L 374.636364 286.076555 
L 375.387879 286.59018 
L 376.139394 285.992881 
L 376.890909 286.435966 
L 377.642424 285.082809 
L 378.393939 284.679223 
L 379.145455 283.970316 
L 379.89697 284.495687 
L 380.648485 286.027119 
L 381.4 285.227408 
L 382.151515 283.523729 
L 382.90303 286.199355 
L 383.654545 284.737365 
L 384.406061 285.568709 
L 385.157576 285.879102 
L 385.909091 286.770675 
L 386.660606 286.76806 
L 388.163636 283.964791 
L 388.915152 285.317261 
L 389.666667 283.980046 
L 390.418182 285.109126 
L 391.169697 286.672627 
L 391.921212 287.247364 
L 392.672727 285.243845 
L 393.424242 285.841691 
L 394.175758 287.905056 
L 394.927273 285.683626 
L 395.678788 284.869956 
L 396.430303 286.224282 
L 397.181818 286.52526 
L 397.933333 285.188039 
L 398.684848 283.391371 
L 399.436364 287.158382 
L 400.187879 284.76117 
L 400.939394 287.393056 
L 401.690909 286.852341 
L 402.442424 284.437853 
L 403.193939 283.988831 
L 403.945455 285.146796 
L 404.69697 285.977907 
L 405.448485 287.837653 
L 406.2 285.464661 
L 406.951515 285.263406 
L 407.70303 286.955889 
L 408.454545 288.054889 
L 409.206061 287.160391 
L 409.957576 285.76687 
L 410.709091 285.553828 
L 411.460606 283.281988 
L 412.212121 286.220445 
L 412.963636 285.530716 
L 413.715152 285.228437 
L 414.466667 286.473617 
L 415.218182 285.892267 
L 415.969697 285.804542 
L 416.721212 285.179565 
L 417.472727 287.665106 
L 418.224242 285.891394 
L 418.975758 287.485889 
L 419.727273 285.890926 
L 420.478788 285.664673 
L 421.230303 285.815358 
L 421.981818 286.576854 
L 422.733333 286.24893 
L 423.484848 283.729208 
L 424.236364 286.607011 
L 424.987879 286.756427 
L 425.739394 283.789014 
L 426.490909 285.179125 
L 427.242424 284.905826 
L 427.993939 286.890338 
L 428.745455 286.623688 
L 429.49697 287.064413 
L 430.248485 285.31468 
L 431 285.767865 
L 431.751515 287.371911 
L 432.50303 286.982711 
L 433.254545 285.454193 
L 434.006061 286.603551 
L 435.509091 284.906164 
L 436.260606 284.709038 
L 437.012121 285.372417 
L 437.763636 285.700273 
L 438.515152 284.47634 
L 439.266667 285.750035 
L 440.018182 286.715268 
L 440.769697 284.568612 
L 441.521212 286.785732 
L 442.272727 288.576463 
L 443.024242 285.131778 
L 443.775758 285.508447 
L 444.527273 286.803734 
L 445.278788 285.209973 
L 446.030303 285.273738 
L 446.781818 286.544445 
L 447.533333 286.297727 
L 448.284848 286.33389 
L 449.036364 286.563754 
L 449.787879 284.067372 
L 450.539394 287.276488 
L 451.290909 287.319686 
L 452.042424 287.615502 
L 452.793939 284.331707 
L 453.545455 284.811711 
L 454.29697 286.099819 
L 455.048485 284.459789 
L 455.8 285.397132 
L 456.551515 286.676498 
L 457.30303 285.407145 
L 458.054545 286.423168 
L 458.806061 283.645414 
L 459.557576 287.47302 
L 460.309091 285.24066 
L 461.060606 286.70274 
L 461.812121 285.890316 
L 462.563636 285.875725 
L 463.315152 286.687544 
L 464.066667 287.095972 
L 464.818182 286.387956 
L 465.569697 286.267282 
L 466.321212 285.278041 
L 467.072727 287.438479 
L 467.824242 286.858087 
L 468.575758 288.487611 
L 469.327273 284.657804 
L 470.078788 286.592143 
L 470.830303 285.811562 
L 471.581818 286.484853 
L 472.333333 289.206399 
L 473.084848 284.465721 
L 473.836364 284.886939 
L 474.587879 288.115351 
L 475.339394 287.567379 
L 476.842424 286.91514 
L 477.593939 285.176817 
L 478.345455 285.01201 
L 479.09697 284.664268 
L 479.848485 286.070653 
L 480.6 287.240579 
L 481.351515 285.161989 
L 482.10303 287.384936 
L 482.854545 287.03677 
L 483.606061 288.501453 
L 484.357576 285.87865 
L 485.109091 286.273891 
L 485.860606 287.194961 
L 486.612121 285.044216 
L 487.363636 286.281085 
L 488.115152 285.36717 
L 488.866667 285.554311 
L 489.618182 286.469965 
L 490.369697 285.555164 
L 491.121212 285.944068 
L 491.872727 285.009979 
L 492.624242 285.25199 
L 493.375758 286.91349 
L 494.127273 286.595195 
L 494.878788 285.30945 
L 495.630303 286.920437 
L 496.381818 283.360299 
L 497.133333 285.660594 
L 497.884848 285.775127 
L 498.636364 287.125364 
L 499.387879 284.780529 
L 500.139394 286.651272 
L 500.890909 285.25512 
L 501.642424 287.790751 
L 502.393939 286.484024 
L 503.145455 286.984076 
L 503.89697 286.261363 
L 504.648485 285.995307 
L 505.4 285.268669 
L 506.151515 286.426128 
L 506.90303 288.702859 
L 507.654545 285.857376 
L 508.406061 286.240377 
L 509.157576 285.729548 
L 509.909091 284.207261 
L 510.660606 286.594546 
L 511.412121 288.331069 
L 512.163636 286.942141 
L 512.915152 285.791009 
L 513.666667 288.1376 
L 514.418182 286.004908 
L 515.169697 287.467663 
L 515.921212 286.603665 
L 516.672727 285.250856 
L 517.424242 285.917033 
L 518.175758 285.039828 
L 518.927273 286.780127 
L 519.678788 286.534851 
L 520.430303 287.303696 
L 521.181818 284.173433 
L 521.933333 286.004279 
L 522.684848 284.706022 
L 523.436364 286.02086 
L 524.187879 286.440786 
L 524.939394 284.478938 
L 525.690909 284.390508 
L 527.193939 287.992295 
L 527.945455 285.077635 
L 528.69697 285.307194 
L 529.448485 285.32923 
L 530.2 286.800949 
L 530.951515 286.829817 
L 531.70303 288.614501 
L 532.454545 287.79718 
L 533.206061 286.136281 
L 533.957576 288.069281 
L 534.709091 285.459463 
L 535.460606 286.161986 
L 536.212121 285.470064 
L 536.963636 283.955129 
L 537.715152 286.408375 
L 538.466667 284.686054 
L 539.218182 287.104482 
L 539.969697 286.575578 
L 540.721212 285.766694 
L 541.472727 286.954937 
L 542.224242 287.447723 
L 542.975758 288.119879 
L 543.727273 286.569308 
L 544.478788 286.799923 
L 545.230303 284.889131 
L 545.981818 286.50637 
L 546.733333 288.480983 
L 547.484848 287.370615 
L 548.236364 285.419313 
L 548.987879 284.290933 
L 549.739394 284.450501 
L 550.490909 287.74046 
L 551.242424 285.974747 
L 551.993939 286.661399 
L 552.745455 283.490634 
L 553.49697 285.722131 
L 554.248485 285.579754 
L 555 285.638549 
L 555.751515 283.406093 
L 556.50303 285.607799 
L 557.254545 286.064638 
L 558.006061 284.654514 
L 558.757576 287.914929 
L 559.509091 286.256658 
L 560.260606 286.825029 
L 561.012121 285.658658 
L 561.763636 284.94395 
L 562.515152 288.27567 
L 563.266667 286.622609 
L 564.018182 287.692308 
L 564.769697 285.545828 
L 565.521212 287.030029 
L 566.272727 284.801577 
L 567.024242 286.161703 
L 567.775758 286.007197 
L 568.527273 287.278616 
L 569.278788 284.241733 
L 570.030303 285.805243 
L 570.781818 286.809122 
L 571.533333 284.717903 
L 572.284848 286.868803 
L 573.036364 286.136073 
L 573.787879 286.409725 
L 574.539394 287.306377 
L 575.290909 283.720582 
L 576.042424 284.350085 
L 576.793939 284.405943 
L 577.545455 283.907623 
L 578.29697 286.290696 
L 579.048485 287.927325 
L 579.8 283.608747 
L 580.551515 283.043306 
L 581.30303 284.579693 
L 582.054545 287.278111 
L 582.806061 286.227776 
L 583.557576 285.453869 
L 584.309091 283.979426 
L 585.060606 286.049553 
L 585.812121 284.865557 
L 586.563636 285.899464 
L 587.315152 285.083307 
L 588.066667 284.637522 
L 588.818182 285.289657 
L 589.569697 286.637871 
L 590.321212 285.259369 
L 591.072727 285.934535 
L 591.824242 283.336348 
L 592.575758 282.925038 
L 593.327273 287.49965 
L 594.830303 282.655317 
L 595.581818 283.527805 
L 596.333333 284.863997 
L 597.084848 285.763594 
L 597.836364 285.950049 
L 598.587879 284.24165 
L 599.339394 283.180538 
L 600.090909 284.99482 
L 600.842424 285.552018 
L 602.345455 285.201577 
L 603.09697 284.863798 
L 603.848485 287.241177 
L 604.6 285.66073 
L 605.351515 287.222661 
L 606.10303 286.034852 
L 606.854545 285.385579 
L 607.606061 285.262127 
L 608.357576 287.321402 
L 609.109091 287.010031 
L 609.860606 285.589407 
L 610.612121 286.021165 
L 611.363636 285.798597 
L 612.115152 284.177756 
L 612.866667 281.72157 
L 613.618182 284.855388 
L 615.121212 285.2565 
L 615.872727 286.597245 
L 616.624242 285.250864 
L 618.127273 285.839195 
L 620.381818 284.206598 
L 621.133333 286.707596 
L 621.884848 283.952271 
L 622.636364 282.329913 
L 622.636364 282.329913 
" style="fill:none;stroke:#ff7f0e;stroke-linecap:square;stroke-width:0.5;"/>
   </g>
   <g id="patch_3">
    <path d="M 90 315 
L 90 43.2 
" style="fill:none;stroke:#000000;stroke-linecap:square;stroke-linejoin:miter;stroke-width:0.8;"/>
   </g>
   <g id="patch_4">
    <path d="M 648 315 
L 648 43.2 
" style="fill:none;stroke:#000000;stroke-linecap:square;stroke-linejoin:miter;stroke-width:0.8;"/>
   </g>
   <g id="patch_5">
    <path d="M 90 315 
L 648 315 
" style="fill:none;stroke:#000000;stroke-linecap:square;stroke-linejoin:miter;stroke-width:0.8;"/>
   </g>
   <g id="patch_6">
    <path d="M 90 43.2 
L 648 43.2 
" style="fill:none;stroke:#000000;stroke-linecap:square;stroke-linejoin:miter;stroke-width:0.8;"/>
   </g>
   <g id="text_18">
    <!-- loss -->
    <g transform="translate(357.410625 37.2)scale(0.12 -0.12)">
     <use xlink:href="#DejaVuSans-108"/>
     <use x="27.783203" xlink:href="#DejaVuSans-111"/>
     <use x="88.964844" xlink:href="#DejaVuSans-115"/>
     <use x="141.064453" xlink:href="#DejaVuSans-115"/>
    </g>
   </g>
   <g id="legend_1">
    <g id="patch_7">
     <path d="M 568.846875 80.55625 
L 641 80.55625 
Q 643 80.55625 643 78.55625 
L 643 50.2 
Q 643 48.2 641 48.2 
L 568.846875 48.2 
Q 566.846875 48.2 566.846875 50.2 
L 566.846875 78.55625 
Q 566.846875 80.55625 568.846875 80.55625 
z
" style="fill:#ffffff;opacity:0.8;stroke:#cccccc;stroke-linejoin:miter;"/>
    </g>
    <g id="line2d_33">
     <path d="M 570.846875 56.298437 
L 590.846875 56.298437 
" style="fill:none;stroke:#1f77b4;stroke-linecap:square;stroke-width:0.5;"/>
    </g>
    <g id="line2d_34"/>
    <g id="text_19">
     <!-- train -->
     <defs>
      <path d="M 18.3125 70.21875 
L 18.3125 54.6875 
L 36.8125 54.6875 
L 36.8125 47.703125 
L 18.3125 47.703125 
L 18.3125 18.015625 
Q 18.3125 11.328125 20.140625 9.421875 
Q 21.96875 7.515625 27.59375 7.515625 
L 36.8125 7.515625 
L 36.8125 0 
L 27.59375 0 
Q 17.1875 0 13.234375 3.875 
Q 9.28125 7.765625 9.28125 18.015625 
L 9.28125 47.703125 
L 2.6875 47.703125 
L 2.6875 54.6875 
L 9.28125 54.6875 
L 9.28125 70.21875 
z
" id="DejaVuSans-116"/>
      <path d="M 41.109375 46.296875 
Q 39.59375 47.171875 37.8125 47.578125 
Q 36.03125 48 33.890625 48 
Q 26.265625 48 22.1875 43.046875 
Q 18.109375 38.09375 18.109375 28.8125 
L 18.109375 0 
L 9.078125 0 
L 9.078125 54.6875 
L 18.109375 54.6875 
L 18.109375 46.1875 
Q 20.953125 51.171875 25.484375 53.578125 
Q 30.03125 56 36.53125 56 
Q 37.453125 56 38.578125 55.875 
Q 39.703125 55.765625 41.0625 55.515625 
z
" id="DejaVuSans-114"/>
      <path d="M 34.28125 27.484375 
Q 23.390625 27.484375 19.1875 25 
Q 14.984375 22.515625 14.984375 16.5 
Q 14.984375 11.71875 18.140625 8.90625 
Q 21.296875 6.109375 26.703125 6.109375 
Q 34.1875 6.109375 38.703125 11.40625 
Q 43.21875 16.703125 43.21875 25.484375 
L 43.21875 27.484375 
z
M 52.203125 31.203125 
L 52.203125 0 
L 43.21875 0 
L 43.21875 8.296875 
Q 40.140625 3.328125 35.546875 0.953125 
Q 30.953125 -1.421875 24.3125 -1.421875 
Q 15.921875 -1.421875 10.953125 3.296875 
Q 6 8.015625 6 15.921875 
Q 6 25.140625 12.171875 29.828125 
Q 18.359375 34.515625 30.609375 34.515625 
L 43.21875 34.515625 
L 43.21875 35.40625 
Q 43.21875 41.609375 39.140625 45 
Q 35.0625 48.390625 27.6875 48.390625 
Q 23 48.390625 18.546875 47.265625 
Q 14.109375 46.140625 10.015625 43.890625 
L 10.015625 52.203125 
Q 14.9375 54.109375 19.578125 55.046875 
Q 24.21875 56 28.609375 56 
Q 40.484375 56 46.34375 49.84375 
Q 52.203125 43.703125 52.203125 31.203125 
z
" id="DejaVuSans-97"/>
      <path d="M 9.421875 54.6875 
L 18.40625 54.6875 
L 18.40625 0 
L 9.421875 0 
z
M 9.421875 75.984375 
L 18.40625 75.984375 
L 18.40625 64.59375 
L 9.421875 64.59375 
z
" id="DejaVuSans-105"/>
      <path d="M 54.890625 33.015625 
L 54.890625 0 
L 45.90625 0 
L 45.90625 32.71875 
Q 45.90625 40.484375 42.875 44.328125 
Q 39.84375 48.1875 33.796875 48.1875 
Q 26.515625 48.1875 22.3125 43.546875 
Q 18.109375 38.921875 18.109375 30.90625 
L 18.109375 0 
L 9.078125 0 
L 9.078125 54.6875 
L 18.109375 54.6875 
L 18.109375 46.1875 
Q 21.34375 51.125 25.703125 53.5625 
Q 30.078125 56 35.796875 56 
Q 45.21875 56 50.046875 50.171875 
Q 54.890625 44.34375 54.890625 33.015625 
z
" id="DejaVuSans-110"/>
     </defs>
     <g transform="translate(598.846875 59.798437)scale(0.1 -0.1)">
      <use xlink:href="#DejaVuSans-116"/>
      <use x="39.208984" xlink:href="#DejaVuSans-114"/>
      <use x="80.322266" xlink:href="#DejaVuSans-97"/>
      <use x="141.601562" xlink:href="#DejaVuSans-105"/>
      <use x="169.384766" xlink:href="#DejaVuSans-110"/>
     </g>
    </g>
    <g id="line2d_35">
     <path d="M 570.846875 70.976562 
L 590.846875 70.976562 
" style="fill:none;stroke:#ff7f0e;stroke-linecap:square;stroke-width:0.5;"/>
    </g>
    <g id="line2d_36"/>
    <g id="text_20">
     <!-- validate -->
     <defs>
      <path d="M 2.984375 54.6875 
L 12.5 54.6875 
L 29.59375 8.796875 
L 46.6875 54.6875 
L 56.203125 54.6875 
L 35.6875 0 
L 23.484375 0 
z
" id="DejaVuSans-118"/>
      <path d="M 45.40625 46.390625 
L 45.40625 75.984375 
L 54.390625 75.984375 
L 54.390625 0 
L 45.40625 0 
L 45.40625 8.203125 
Q 42.578125 3.328125 38.25 0.953125 
Q 33.9375 -1.421875 27.875 -1.421875 
Q 17.96875 -1.421875 11.734375 6.484375 
Q 5.515625 14.40625 5.515625 27.296875 
Q 5.515625 40.1875 11.734375 48.09375 
Q 17.96875 56 27.875 56 
Q 33.9375 56 38.25 53.625 
Q 42.578125 51.265625 45.40625 46.390625 
z
M 14.796875 27.296875 
Q 14.796875 17.390625 18.875 11.75 
Q 22.953125 6.109375 30.078125 6.109375 
Q 37.203125 6.109375 41.296875 11.75 
Q 45.40625 17.390625 45.40625 27.296875 
Q 45.40625 37.203125 41.296875 42.84375 
Q 37.203125 48.484375 30.078125 48.484375 
Q 22.953125 48.484375 18.875 42.84375 
Q 14.796875 37.203125 14.796875 27.296875 
z
" id="DejaVuSans-100"/>
     </defs>
     <g transform="translate(598.846875 74.476562)scale(0.1 -0.1)">
      <use xlink:href="#DejaVuSans-118"/>
      <use x="59.179688" xlink:href="#DejaVuSans-97"/>
      <use x="120.458984" xlink:href="#DejaVuSans-108"/>
      <use x="148.242188" xlink:href="#DejaVuSans-105"/>
      <use x="176.025391" xlink:href="#DejaVuSans-100"/>
      <use x="239.501953" xlink:href="#DejaVuSans-97"/>
      <use x="300.78125" xlink:href="#DejaVuSans-116"/>
      <use x="339.990234" xlink:href="#DejaVuSans-101"/>
     </g>
    </g>
   </g>
  </g>
 </g>
 <defs>
  <clipPath id="p0d33502547">
   <rect height="271.8" width="558" x="90" y="43.2"/>
  </clipPath>
 </defs>
</svg>
