<?xml version="1.0" encoding="utf-8" standalone="no"?>
<!DOCTYPE svg PUBLIC "-//W3C//DTD SVG 1.1//EN"
  "http://www.w3.org/Graphics/SVG/1.1/DTD/svg11.dtd">
<!-- Created with matplotlib (https://matplotlib.org/) -->
<svg height="360pt" version="1.1" viewBox="0 0 720 360" width="720pt" xmlns="http://www.w3.org/2000/svg" xmlns:xlink="http://www.w3.org/1999/xlink">
 <defs>
  <style type="text/css">
*{stroke-linecap:butt;stroke-linejoin:round;}
  </style>
 </defs>
 <g id="figure_1">
  <g id="patch_1">
   <path d="M 0 360 
L 720 360 
L 720 0 
L 0 0 
z
" style="fill:#ffffff;"/>
  </g>
  <g id="axes_1">
   <g id="patch_2">
    <path d="M 90 315 
L 648 315 
L 648 43.2 
L 90 43.2 
z
" style="fill:#ffffff;"/>
   </g>
   <g id="matplotlib.axis_1">
    <g id="xtick_1">
     <g id="line2d_1">
      <path clip-path="url(#p188ea27d9c)" d="M 115.363636 315 
L 115.363636 43.2 
" style="fill:none;stroke:#b0b0b0;stroke-linecap:square;stroke-width:0.8;"/>
     </g>
     <g id="line2d_2">
      <defs>
       <path d="M 0 0 
L 0 3.5 
" id="m32e040b191" style="stroke:#000000;stroke-width:0.8;"/>
      </defs>
      <g>
       <use style="stroke:#000000;stroke-width:0.8;" x="115.363636" xlink:href="#m32e040b191" y="315"/>
      </g>
     </g>
     <g id="text_1">
      <!-- 0 -->
      <defs>
       <path d="M 31.78125 66.40625 
Q 24.171875 66.40625 20.328125 58.90625 
Q 16.5 51.421875 16.5 36.375 
Q 16.5 21.390625 20.328125 13.890625 
Q 24.171875 6.390625 31.78125 6.390625 
Q 39.453125 6.390625 43.28125 13.890625 
Q 47.125 21.390625 47.125 36.375 
Q 47.125 51.421875 43.28125 58.90625 
Q 39.453125 66.40625 31.78125 66.40625 
z
M 31.78125 74.21875 
Q 44.046875 74.21875 50.515625 64.515625 
Q 56.984375 54.828125 56.984375 36.375 
Q 56.984375 17.96875 50.515625 8.265625 
Q 44.046875 -1.421875 31.78125 -1.421875 
Q 19.53125 -1.421875 13.0625 8.265625 
Q 6.59375 17.96875 6.59375 36.375 
Q 6.59375 54.828125 13.0625 64.515625 
Q 19.53125 74.21875 31.78125 74.21875 
z
" id="DejaVuSans-48"/>
      </defs>
      <g transform="translate(112.182386 329.598437)scale(0.1 -0.1)">
       <use xlink:href="#DejaVuSans-48"/>
      </g>
     </g>
    </g>
    <g id="xtick_2">
     <g id="line2d_3">
      <path clip-path="url(#p188ea27d9c)" d="M 194.935829 315 
L 194.935829 43.2 
" style="fill:none;stroke:#b0b0b0;stroke-linecap:square;stroke-width:0.8;"/>
     </g>
     <g id="line2d_4">
      <g>
       <use style="stroke:#000000;stroke-width:0.8;" x="194.935829" xlink:href="#m32e040b191" y="315"/>
      </g>
     </g>
     <g id="text_2">
      <!-- 200 -->
      <defs>
       <path d="M 19.1875 8.296875 
L 53.609375 8.296875 
L 53.609375 0 
L 7.328125 0 
L 7.328125 8.296875 
Q 12.9375 14.109375 22.625 23.890625 
Q 32.328125 33.6875 34.8125 36.53125 
Q 39.546875 41.84375 41.421875 45.53125 
Q 43.3125 49.21875 43.3125 52.78125 
Q 43.3125 58.59375 39.234375 62.25 
Q 35.15625 65.921875 28.609375 65.921875 
Q 23.96875 65.921875 18.8125 64.3125 
Q 13.671875 62.703125 7.8125 59.421875 
L 7.8125 69.390625 
Q 13.765625 71.78125 18.9375 73 
Q 24.125 74.21875 28.421875 74.21875 
Q 39.75 74.21875 46.484375 68.546875 
Q 53.21875 62.890625 53.21875 53.421875 
Q 53.21875 48.921875 51.53125 44.890625 
Q 49.859375 40.875 45.40625 35.40625 
Q 44.1875 33.984375 37.640625 27.21875 
Q 31.109375 20.453125 19.1875 8.296875 
z
" id="DejaVuSans-50"/>
      </defs>
      <g transform="translate(185.392079 329.598437)scale(0.1 -0.1)">
       <use xlink:href="#DejaVuSans-50"/>
       <use x="63.623047" xlink:href="#DejaVuSans-48"/>
       <use x="127.246094" xlink:href="#DejaVuSans-48"/>
      </g>
     </g>
    </g>
    <g id="xtick_3">
     <g id="line2d_5">
      <path clip-path="url(#p188ea27d9c)" d="M 274.508021 315 
L 274.508021 43.2 
" style="fill:none;stroke:#b0b0b0;stroke-linecap:square;stroke-width:0.8;"/>
     </g>
     <g id="line2d_6">
      <g>
       <use style="stroke:#000000;stroke-width:0.8;" x="274.508021" xlink:href="#m32e040b191" y="315"/>
      </g>
     </g>
     <g id="text_3">
      <!-- 400 -->
      <defs>
       <path d="M 37.796875 64.3125 
L 12.890625 25.390625 
L 37.796875 25.390625 
z
M 35.203125 72.90625 
L 47.609375 72.90625 
L 47.609375 25.390625 
L 58.015625 25.390625 
L 58.015625 17.1875 
L 47.609375 17.1875 
L 47.609375 0 
L 37.796875 0 
L 37.796875 17.1875 
L 4.890625 17.1875 
L 4.890625 26.703125 
z
" id="DejaVuSans-52"/>
      </defs>
      <g transform="translate(264.964271 329.598437)scale(0.1 -0.1)">
       <use xlink:href="#DejaVuSans-52"/>
       <use x="63.623047" xlink:href="#DejaVuSans-48"/>
       <use x="127.246094" xlink:href="#DejaVuSans-48"/>
      </g>
     </g>
    </g>
    <g id="xtick_4">
     <g id="line2d_7">
      <path clip-path="url(#p188ea27d9c)" d="M 354.080214 315 
L 354.080214 43.2 
" style="fill:none;stroke:#b0b0b0;stroke-linecap:square;stroke-width:0.8;"/>
     </g>
     <g id="line2d_8">
      <g>
       <use style="stroke:#000000;stroke-width:0.8;" x="354.080214" xlink:href="#m32e040b191" y="315"/>
      </g>
     </g>
     <g id="text_4">
      <!-- 600 -->
      <defs>
       <path d="M 33.015625 40.375 
Q 26.375 40.375 22.484375 35.828125 
Q 18.609375 31.296875 18.609375 23.390625 
Q 18.609375 15.53125 22.484375 10.953125 
Q 26.375 6.390625 33.015625 6.390625 
Q 39.65625 6.390625 43.53125 10.953125 
Q 47.40625 15.53125 47.40625 23.390625 
Q 47.40625 31.296875 43.53125 35.828125 
Q 39.65625 40.375 33.015625 40.375 
z
M 52.59375 71.296875 
L 52.59375 62.3125 
Q 48.875 64.0625 45.09375 64.984375 
Q 41.3125 65.921875 37.59375 65.921875 
Q 27.828125 65.921875 22.671875 59.328125 
Q 17.53125 52.734375 16.796875 39.40625 
Q 19.671875 43.65625 24.015625 45.921875 
Q 28.375 48.1875 33.59375 48.1875 
Q 44.578125 48.1875 50.953125 41.515625 
Q 57.328125 34.859375 57.328125 23.390625 
Q 57.328125 12.15625 50.6875 5.359375 
Q 44.046875 -1.421875 33.015625 -1.421875 
Q 20.359375 -1.421875 13.671875 8.265625 
Q 6.984375 17.96875 6.984375 36.375 
Q 6.984375 53.65625 15.1875 63.9375 
Q 23.390625 74.21875 37.203125 74.21875 
Q 40.921875 74.21875 44.703125 73.484375 
Q 48.484375 72.75 52.59375 71.296875 
z
" id="DejaVuSans-54"/>
      </defs>
      <g transform="translate(344.536464 329.598437)scale(0.1 -0.1)">
       <use xlink:href="#DejaVuSans-54"/>
       <use x="63.623047" xlink:href="#DejaVuSans-48"/>
       <use x="127.246094" xlink:href="#DejaVuSans-48"/>
      </g>
     </g>
    </g>
    <g id="xtick_5">
     <g id="line2d_9">
      <path clip-path="url(#p188ea27d9c)" d="M 433.652406 315 
L 433.652406 43.2 
" style="fill:none;stroke:#b0b0b0;stroke-linecap:square;stroke-width:0.8;"/>
     </g>
     <g id="line2d_10">
      <g>
       <use style="stroke:#000000;stroke-width:0.8;" x="433.652406" xlink:href="#m32e040b191" y="315"/>
      </g>
     </g>
     <g id="text_5">
      <!-- 800 -->
      <defs>
       <path d="M 31.78125 34.625 
Q 24.75 34.625 20.71875 30.859375 
Q 16.703125 27.09375 16.703125 20.515625 
Q 16.703125 13.921875 20.71875 10.15625 
Q 24.75 6.390625 31.78125 6.390625 
Q 38.8125 6.390625 42.859375 10.171875 
Q 46.921875 13.96875 46.921875 20.515625 
Q 46.921875 27.09375 42.890625 30.859375 
Q 38.875 34.625 31.78125 34.625 
z
M 21.921875 38.8125 
Q 15.578125 40.375 12.03125 44.71875 
Q 8.5 49.078125 8.5 55.328125 
Q 8.5 64.0625 14.71875 69.140625 
Q 20.953125 74.21875 31.78125 74.21875 
Q 42.671875 74.21875 48.875 69.140625 
Q 55.078125 64.0625 55.078125 55.328125 
Q 55.078125 49.078125 51.53125 44.71875 
Q 48 40.375 41.703125 38.8125 
Q 48.828125 37.15625 52.796875 32.3125 
Q 56.78125 27.484375 56.78125 20.515625 
Q 56.78125 9.90625 50.3125 4.234375 
Q 43.84375 -1.421875 31.78125 -1.421875 
Q 19.734375 -1.421875 13.25 4.234375 
Q 6.78125 9.90625 6.78125 20.515625 
Q 6.78125 27.484375 10.78125 32.3125 
Q 14.796875 37.15625 21.921875 38.8125 
z
M 18.3125 54.390625 
Q 18.3125 48.734375 21.84375 45.5625 
Q 25.390625 42.390625 31.78125 42.390625 
Q 38.140625 42.390625 41.71875 45.5625 
Q 45.3125 48.734375 45.3125 54.390625 
Q 45.3125 60.0625 41.71875 63.234375 
Q 38.140625 66.40625 31.78125 66.40625 
Q 25.390625 66.40625 21.84375 63.234375 
Q 18.3125 60.0625 18.3125 54.390625 
z
" id="DejaVuSans-56"/>
      </defs>
      <g transform="translate(424.108656 329.598437)scale(0.1 -0.1)">
       <use xlink:href="#DejaVuSans-56"/>
       <use x="63.623047" xlink:href="#DejaVuSans-48"/>
       <use x="127.246094" xlink:href="#DejaVuSans-48"/>
      </g>
     </g>
    </g>
    <g id="xtick_6">
     <g id="line2d_11">
      <path clip-path="url(#p188ea27d9c)" d="M 513.224599 315 
L 513.224599 43.2 
" style="fill:none;stroke:#b0b0b0;stroke-linecap:square;stroke-width:0.8;"/>
     </g>
     <g id="line2d_12">
      <g>
       <use style="stroke:#000000;stroke-width:0.8;" x="513.224599" xlink:href="#m32e040b191" y="315"/>
      </g>
     </g>
     <g id="text_6">
      <!-- 1000 -->
      <defs>
       <path d="M 12.40625 8.296875 
L 28.515625 8.296875 
L 28.515625 63.921875 
L 10.984375 60.40625 
L 10.984375 69.390625 
L 28.421875 72.90625 
L 38.28125 72.90625 
L 38.28125 8.296875 
L 54.390625 8.296875 
L 54.390625 0 
L 12.40625 0 
z
" id="DejaVuSans-49"/>
      </defs>
      <g transform="translate(500.499599 329.598437)scale(0.1 -0.1)">
       <use xlink:href="#DejaVuSans-49"/>
       <use x="63.623047" xlink:href="#DejaVuSans-48"/>
       <use x="127.246094" xlink:href="#DejaVuSans-48"/>
       <use x="190.869141" xlink:href="#DejaVuSans-48"/>
      </g>
     </g>
    </g>
    <g id="xtick_7">
     <g id="line2d_13">
      <path clip-path="url(#p188ea27d9c)" d="M 592.796791 315 
L 592.796791 43.2 
" style="fill:none;stroke:#b0b0b0;stroke-linecap:square;stroke-width:0.8;"/>
     </g>
     <g id="line2d_14">
      <g>
       <use style="stroke:#000000;stroke-width:0.8;" x="592.796791" xlink:href="#m32e040b191" y="315"/>
      </g>
     </g>
     <g id="text_7">
      <!-- 1200 -->
      <g transform="translate(580.071791 329.598437)scale(0.1 -0.1)">
       <use xlink:href="#DejaVuSans-49"/>
       <use x="63.623047" xlink:href="#DejaVuSans-50"/>
       <use x="127.246094" xlink:href="#DejaVuSans-48"/>
       <use x="190.869141" xlink:href="#DejaVuSans-48"/>
      </g>
     </g>
    </g>
    <g id="text_8">
     <!-- epoch -->
     <defs>
      <path d="M 56.203125 29.59375 
L 56.203125 25.203125 
L 14.890625 25.203125 
Q 15.484375 15.921875 20.484375 11.0625 
Q 25.484375 6.203125 34.421875 6.203125 
Q 39.59375 6.203125 44.453125 7.46875 
Q 49.3125 8.734375 54.109375 11.28125 
L 54.109375 2.78125 
Q 49.265625 0.734375 44.1875 -0.34375 
Q 39.109375 -1.421875 33.890625 -1.421875 
Q 20.796875 -1.421875 13.15625 6.1875 
Q 5.515625 13.8125 5.515625 26.8125 
Q 5.515625 40.234375 12.765625 48.109375 
Q 20.015625 56 32.328125 56 
Q 43.359375 56 49.78125 48.890625 
Q 56.203125 41.796875 56.203125 29.59375 
z
M 47.21875 32.234375 
Q 47.125 39.59375 43.09375 43.984375 
Q 39.0625 48.390625 32.421875 48.390625 
Q 24.90625 48.390625 20.390625 44.140625 
Q 15.875 39.890625 15.1875 32.171875 
z
" id="DejaVuSans-101"/>
      <path d="M 18.109375 8.203125 
L 18.109375 -20.796875 
L 9.078125 -20.796875 
L 9.078125 54.6875 
L 18.109375 54.6875 
L 18.109375 46.390625 
Q 20.953125 51.265625 25.265625 53.625 
Q 29.59375 56 35.59375 56 
Q 45.5625 56 51.78125 48.09375 
Q 58.015625 40.1875 58.015625 27.296875 
Q 58.015625 14.40625 51.78125 6.484375 
Q 45.5625 -1.421875 35.59375 -1.421875 
Q 29.59375 -1.421875 25.265625 0.953125 
Q 20.953125 3.328125 18.109375 8.203125 
z
M 48.6875 27.296875 
Q 48.6875 37.203125 44.609375 42.84375 
Q 40.53125 48.484375 33.40625 48.484375 
Q 26.265625 48.484375 22.1875 42.84375 
Q 18.109375 37.203125 18.109375 27.296875 
Q 18.109375 17.390625 22.1875 11.75 
Q 26.265625 6.109375 33.40625 6.109375 
Q 40.53125 6.109375 44.609375 11.75 
Q 48.6875 17.390625 48.6875 27.296875 
z
" id="DejaVuSans-112"/>
      <path d="M 30.609375 48.390625 
Q 23.390625 48.390625 19.1875 42.75 
Q 14.984375 37.109375 14.984375 27.296875 
Q 14.984375 17.484375 19.15625 11.84375 
Q 23.34375 6.203125 30.609375 6.203125 
Q 37.796875 6.203125 41.984375 11.859375 
Q 46.1875 17.53125 46.1875 27.296875 
Q 46.1875 37.015625 41.984375 42.703125 
Q 37.796875 48.390625 30.609375 48.390625 
z
M 30.609375 56 
Q 42.328125 56 49.015625 48.375 
Q 55.71875 40.765625 55.71875 27.296875 
Q 55.71875 13.875 49.015625 6.21875 
Q 42.328125 -1.421875 30.609375 -1.421875 
Q 18.84375 -1.421875 12.171875 6.21875 
Q 5.515625 13.875 5.515625 27.296875 
Q 5.515625 40.765625 12.171875 48.375 
Q 18.84375 56 30.609375 56 
z
" id="DejaVuSans-111"/>
      <path d="M 48.78125 52.59375 
L 48.78125 44.1875 
Q 44.96875 46.296875 41.140625 47.34375 
Q 37.3125 48.390625 33.40625 48.390625 
Q 24.65625 48.390625 19.8125 42.84375 
Q 14.984375 37.3125 14.984375 27.296875 
Q 14.984375 17.28125 19.8125 11.734375 
Q 24.65625 6.203125 33.40625 6.203125 
Q 37.3125 6.203125 41.140625 7.25 
Q 44.96875 8.296875 48.78125 10.40625 
L 48.78125 2.09375 
Q 45.015625 0.34375 40.984375 -0.53125 
Q 36.96875 -1.421875 32.421875 -1.421875 
Q 20.0625 -1.421875 12.78125 6.34375 
Q 5.515625 14.109375 5.515625 27.296875 
Q 5.515625 40.671875 12.859375 48.328125 
Q 20.21875 56 33.015625 56 
Q 37.15625 56 41.109375 55.140625 
Q 45.0625 54.296875 48.78125 52.59375 
z
" id="DejaVuSans-99"/>
      <path d="M 54.890625 33.015625 
L 54.890625 0 
L 45.90625 0 
L 45.90625 32.71875 
Q 45.90625 40.484375 42.875 44.328125 
Q 39.84375 48.1875 33.796875 48.1875 
Q 26.515625 48.1875 22.3125 43.546875 
Q 18.109375 38.921875 18.109375 30.90625 
L 18.109375 0 
L 9.078125 0 
L 9.078125 75.984375 
L 18.109375 75.984375 
L 18.109375 46.1875 
Q 21.34375 51.125 25.703125 53.5625 
Q 30.078125 56 35.796875 56 
Q 45.21875 56 50.046875 50.171875 
Q 54.890625 44.34375 54.890625 33.015625 
z
" id="DejaVuSans-104"/>
     </defs>
     <g transform="translate(353.771875 343.276563)scale(0.1 -0.1)">
      <use xlink:href="#DejaVuSans-101"/>
      <use x="61.523438" xlink:href="#DejaVuSans-112"/>
      <use x="125" xlink:href="#DejaVuSans-111"/>
      <use x="186.181641" xlink:href="#DejaVuSans-99"/>
      <use x="241.162109" xlink:href="#DejaVuSans-104"/>
     </g>
    </g>
   </g>
   <g id="matplotlib.axis_2">
    <g id="ytick_1">
     <g id="line2d_15">
      <path clip-path="url(#p188ea27d9c)" d="M 90 288.207901 
L 648 288.207901 
" style="fill:none;stroke:#b0b0b0;stroke-linecap:square;stroke-width:0.8;"/>
     </g>
     <g id="line2d_16">
      <defs>
       <path d="M 0 0 
L -3.5 0 
" id="m8ce9b01c63" style="stroke:#000000;stroke-width:0.8;"/>
      </defs>
      <g>
       <use style="stroke:#000000;stroke-width:0.8;" x="90" xlink:href="#m8ce9b01c63" y="288.207901"/>
      </g>
     </g>
     <g id="text_9">
      <!-- 0.3 -->
      <defs>
       <path d="M 10.6875 12.40625 
L 21 12.40625 
L 21 0 
L 10.6875 0 
z
" id="DejaVuSans-46"/>
       <path d="M 40.578125 39.3125 
Q 47.65625 37.796875 51.625 33 
Q 55.609375 28.21875 55.609375 21.1875 
Q 55.609375 10.40625 48.1875 4.484375 
Q 40.765625 -1.421875 27.09375 -1.421875 
Q 22.515625 -1.421875 17.65625 -0.515625 
Q 12.796875 0.390625 7.625 2.203125 
L 7.625 11.71875 
Q 11.71875 9.328125 16.59375 8.109375 
Q 21.484375 6.890625 26.8125 6.890625 
Q 36.078125 6.890625 40.9375 10.546875 
Q 45.796875 14.203125 45.796875 21.1875 
Q 45.796875 27.640625 41.28125 31.265625 
Q 36.765625 34.90625 28.71875 34.90625 
L 20.21875 34.90625 
L 20.21875 43.015625 
L 29.109375 43.015625 
Q 36.375 43.015625 40.234375 45.921875 
Q 44.09375 48.828125 44.09375 54.296875 
Q 44.09375 59.90625 40.109375 62.90625 
Q 36.140625 65.921875 28.71875 65.921875 
Q 24.65625 65.921875 20.015625 65.03125 
Q 15.375 64.15625 9.8125 62.3125 
L 9.8125 71.09375 
Q 15.4375 72.65625 20.34375 73.4375 
Q 25.25 74.21875 29.59375 74.21875 
Q 40.828125 74.21875 47.359375 69.109375 
Q 53.90625 64.015625 53.90625 55.328125 
Q 53.90625 49.265625 50.4375 45.09375 
Q 46.96875 40.921875 40.578125 39.3125 
z
" id="DejaVuSans-51"/>
      </defs>
      <g transform="translate(67.096875 292.007119)scale(0.1 -0.1)">
       <use xlink:href="#DejaVuSans-48"/>
       <use x="63.623047" xlink:href="#DejaVuSans-46"/>
       <use x="95.410156" xlink:href="#DejaVuSans-51"/>
      </g>
     </g>
    </g>
    <g id="ytick_2">
     <g id="line2d_17">
      <path clip-path="url(#p188ea27d9c)" d="M 90 253.418614 
L 648 253.418614 
" style="fill:none;stroke:#b0b0b0;stroke-linecap:square;stroke-width:0.8;"/>
     </g>
     <g id="line2d_18">
      <g>
       <use style="stroke:#000000;stroke-width:0.8;" x="90" xlink:href="#m8ce9b01c63" y="253.418614"/>
      </g>
     </g>
     <g id="text_10">
      <!-- 0.4 -->
      <g transform="translate(67.096875 257.217833)scale(0.1 -0.1)">
       <use xlink:href="#DejaVuSans-48"/>
       <use x="63.623047" xlink:href="#DejaVuSans-46"/>
       <use x="95.410156" xlink:href="#DejaVuSans-52"/>
      </g>
     </g>
    </g>
    <g id="ytick_3">
     <g id="line2d_19">
      <path clip-path="url(#p188ea27d9c)" d="M 90 218.629327 
L 648 218.629327 
" style="fill:none;stroke:#b0b0b0;stroke-linecap:square;stroke-width:0.8;"/>
     </g>
     <g id="line2d_20">
      <g>
       <use style="stroke:#000000;stroke-width:0.8;" x="90" xlink:href="#m8ce9b01c63" y="218.629327"/>
      </g>
     </g>
     <g id="text_11">
      <!-- 0.5 -->
      <defs>
       <path d="M 10.796875 72.90625 
L 49.515625 72.90625 
L 49.515625 64.59375 
L 19.828125 64.59375 
L 19.828125 46.734375 
Q 21.96875 47.46875 24.109375 47.828125 
Q 26.265625 48.1875 28.421875 48.1875 
Q 40.625 48.1875 47.75 41.5 
Q 54.890625 34.8125 54.890625 23.390625 
Q 54.890625 11.625 47.5625 5.09375 
Q 40.234375 -1.421875 26.90625 -1.421875 
Q 22.3125 -1.421875 17.546875 -0.640625 
Q 12.796875 0.140625 7.71875 1.703125 
L 7.71875 11.625 
Q 12.109375 9.234375 16.796875 8.0625 
Q 21.484375 6.890625 26.703125 6.890625 
Q 35.15625 6.890625 40.078125 11.328125 
Q 45.015625 15.765625 45.015625 23.390625 
Q 45.015625 31 40.078125 35.4375 
Q 35.15625 39.890625 26.703125 39.890625 
Q 22.75 39.890625 18.8125 39.015625 
Q 14.890625 38.140625 10.796875 36.28125 
z
" id="DejaVuSans-53"/>
      </defs>
      <g transform="translate(67.096875 222.428546)scale(0.1 -0.1)">
       <use xlink:href="#DejaVuSans-48"/>
       <use x="63.623047" xlink:href="#DejaVuSans-46"/>
       <use x="95.410156" xlink:href="#DejaVuSans-53"/>
      </g>
     </g>
    </g>
    <g id="ytick_4">
     <g id="line2d_21">
      <path clip-path="url(#p188ea27d9c)" d="M 90 183.84004 
L 648 183.84004 
" style="fill:none;stroke:#b0b0b0;stroke-linecap:square;stroke-width:0.8;"/>
     </g>
     <g id="line2d_22">
      <g>
       <use style="stroke:#000000;stroke-width:0.8;" x="90" xlink:href="#m8ce9b01c63" y="183.84004"/>
      </g>
     </g>
     <g id="text_12">
      <!-- 0.6 -->
      <g transform="translate(67.096875 187.639259)scale(0.1 -0.1)">
       <use xlink:href="#DejaVuSans-48"/>
       <use x="63.623047" xlink:href="#DejaVuSans-46"/>
       <use x="95.410156" xlink:href="#DejaVuSans-54"/>
      </g>
     </g>
    </g>
    <g id="ytick_5">
     <g id="line2d_23">
      <path clip-path="url(#p188ea27d9c)" d="M 90 149.050754 
L 648 149.050754 
" style="fill:none;stroke:#b0b0b0;stroke-linecap:square;stroke-width:0.8;"/>
     </g>
     <g id="line2d_24">
      <g>
       <use style="stroke:#000000;stroke-width:0.8;" x="90" xlink:href="#m8ce9b01c63" y="149.050754"/>
      </g>
     </g>
     <g id="text_13">
      <!-- 0.7 -->
      <defs>
       <path d="M 8.203125 72.90625 
L 55.078125 72.90625 
L 55.078125 68.703125 
L 28.609375 0 
L 18.3125 0 
L 43.21875 64.59375 
L 8.203125 64.59375 
z
" id="DejaVuSans-55"/>
      </defs>
      <g transform="translate(67.096875 152.849972)scale(0.1 -0.1)">
       <use xlink:href="#DejaVuSans-48"/>
       <use x="63.623047" xlink:href="#DejaVuSans-46"/>
       <use x="95.410156" xlink:href="#DejaVuSans-55"/>
      </g>
     </g>
    </g>
    <g id="ytick_6">
     <g id="line2d_25">
      <path clip-path="url(#p188ea27d9c)" d="M 90 114.261467 
L 648 114.261467 
" style="fill:none;stroke:#b0b0b0;stroke-linecap:square;stroke-width:0.8;"/>
     </g>
     <g id="line2d_26">
      <g>
       <use style="stroke:#000000;stroke-width:0.8;" x="90" xlink:href="#m8ce9b01c63" y="114.261467"/>
      </g>
     </g>
     <g id="text_14">
      <!-- 0.8 -->
      <g transform="translate(67.096875 118.060686)scale(0.1 -0.1)">
       <use xlink:href="#DejaVuSans-48"/>
       <use x="63.623047" xlink:href="#DejaVuSans-46"/>
       <use x="95.410156" xlink:href="#DejaVuSans-56"/>
      </g>
     </g>
    </g>
    <g id="ytick_7">
     <g id="line2d_27">
      <path clip-path="url(#p188ea27d9c)" d="M 90 79.47218 
L 648 79.47218 
" style="fill:none;stroke:#b0b0b0;stroke-linecap:square;stroke-width:0.8;"/>
     </g>
     <g id="line2d_28">
      <g>
       <use style="stroke:#000000;stroke-width:0.8;" x="90" xlink:href="#m8ce9b01c63" y="79.47218"/>
      </g>
     </g>
     <g id="text_15">
      <!-- 0.9 -->
      <defs>
       <path d="M 10.984375 1.515625 
L 10.984375 10.5 
Q 14.703125 8.734375 18.5 7.8125 
Q 22.3125 6.890625 25.984375 6.890625 
Q 35.75 6.890625 40.890625 13.453125 
Q 46.046875 20.015625 46.78125 33.40625 
Q 43.953125 29.203125 39.59375 26.953125 
Q 35.25 24.703125 29.984375 24.703125 
Q 19.046875 24.703125 12.671875 31.3125 
Q 6.296875 37.9375 6.296875 49.421875 
Q 6.296875 60.640625 12.9375 67.421875 
Q 19.578125 74.21875 30.609375 74.21875 
Q 43.265625 74.21875 49.921875 64.515625 
Q 56.59375 54.828125 56.59375 36.375 
Q 56.59375 19.140625 48.40625 8.859375 
Q 40.234375 -1.421875 26.421875 -1.421875 
Q 22.703125 -1.421875 18.890625 -0.6875 
Q 15.09375 0.046875 10.984375 1.515625 
z
M 30.609375 32.421875 
Q 37.25 32.421875 41.125 36.953125 
Q 45.015625 41.5 45.015625 49.421875 
Q 45.015625 57.28125 41.125 61.84375 
Q 37.25 66.40625 30.609375 66.40625 
Q 23.96875 66.40625 20.09375 61.84375 
Q 16.21875 57.28125 16.21875 49.421875 
Q 16.21875 41.5 20.09375 36.953125 
Q 23.96875 32.421875 30.609375 32.421875 
z
" id="DejaVuSans-57"/>
      </defs>
      <g transform="translate(67.096875 83.271399)scale(0.1 -0.1)">
       <use xlink:href="#DejaVuSans-48"/>
       <use x="63.623047" xlink:href="#DejaVuSans-46"/>
       <use x="95.410156" xlink:href="#DejaVuSans-57"/>
      </g>
     </g>
    </g>
    <g id="ytick_8">
     <g id="line2d_29">
      <path clip-path="url(#p188ea27d9c)" d="M 90 44.682893 
L 648 44.682893 
" style="fill:none;stroke:#b0b0b0;stroke-linecap:square;stroke-width:0.8;"/>
     </g>
     <g id="line2d_30">
      <g>
       <use style="stroke:#000000;stroke-width:0.8;" x="90" xlink:href="#m8ce9b01c63" y="44.682893"/>
      </g>
     </g>
     <g id="text_16">
      <!-- 1.0 -->
      <g transform="translate(67.096875 48.482112)scale(0.1 -0.1)">
       <use xlink:href="#DejaVuSans-49"/>
       <use x="63.623047" xlink:href="#DejaVuSans-46"/>
       <use x="95.410156" xlink:href="#DejaVuSans-48"/>
      </g>
     </g>
    </g>
    <g id="text_17">
     <!-- accuracy -->
     <defs>
      <path d="M 34.28125 27.484375 
Q 23.390625 27.484375 19.1875 25 
Q 14.984375 22.515625 14.984375 16.5 
Q 14.984375 11.71875 18.140625 8.90625 
Q 21.296875 6.109375 26.703125 6.109375 
Q 34.1875 6.109375 38.703125 11.40625 
Q 43.21875 16.703125 43.21875 25.484375 
L 43.21875 27.484375 
z
M 52.203125 31.203125 
L 52.203125 0 
L 43.21875 0 
L 43.21875 8.296875 
Q 40.140625 3.328125 35.546875 0.953125 
Q 30.953125 -1.421875 24.3125 -1.421875 
Q 15.921875 -1.421875 10.953125 3.296875 
Q 6 8.015625 6 15.921875 
Q 6 25.140625 12.171875 29.828125 
Q 18.359375 34.515625 30.609375 34.515625 
L 43.21875 34.515625 
L 43.21875 35.40625 
Q 43.21875 41.609375 39.140625 45 
Q 35.0625 48.390625 27.6875 48.390625 
Q 23 48.390625 18.546875 47.265625 
Q 14.109375 46.140625 10.015625 43.890625 
L 10.015625 52.203125 
Q 14.9375 54.109375 19.578125 55.046875 
Q 24.21875 56 28.609375 56 
Q 40.484375 56 46.34375 49.84375 
Q 52.203125 43.703125 52.203125 31.203125 
z
" id="DejaVuSans-97"/>
      <path d="M 8.5 21.578125 
L 8.5 54.6875 
L 17.484375 54.6875 
L 17.484375 21.921875 
Q 17.484375 14.15625 20.5 10.265625 
Q 23.53125 6.390625 29.59375 6.390625 
Q 36.859375 6.390625 41.078125 11.03125 
Q 45.3125 15.671875 45.3125 23.6875 
L 45.3125 54.6875 
L 54.296875 54.6875 
L 54.296875 0 
L 45.3125 0 
L 45.3125 8.40625 
Q 42.046875 3.421875 37.71875 1 
Q 33.40625 -1.421875 27.6875 -1.421875 
Q 18.265625 -1.421875 13.375 4.4375 
Q 8.5 10.296875 8.5 21.578125 
z
M 31.109375 56 
z
" id="DejaVuSans-117"/>
      <path d="M 41.109375 46.296875 
Q 39.59375 47.171875 37.8125 47.578125 
Q 36.03125 48 33.890625 48 
Q 26.265625 48 22.1875 43.046875 
Q 18.109375 38.09375 18.109375 28.8125 
L 18.109375 0 
L 9.078125 0 
L 9.078125 54.6875 
L 18.109375 54.6875 
L 18.109375 46.1875 
Q 20.953125 51.171875 25.484375 53.578125 
Q 30.03125 56 36.53125 56 
Q 37.453125 56 38.578125 55.875 
Q 39.703125 55.765625 41.0625 55.515625 
z
" id="DejaVuSans-114"/>
      <path d="M 32.171875 -5.078125 
Q 28.375 -14.84375 24.75 -17.8125 
Q 21.140625 -20.796875 15.09375 -20.796875 
L 7.90625 -20.796875 
L 7.90625 -13.28125 
L 13.1875 -13.28125 
Q 16.890625 -13.28125 18.9375 -11.515625 
Q 21 -9.765625 23.484375 -3.21875 
L 25.09375 0.875 
L 2.984375 54.6875 
L 12.5 54.6875 
L 29.59375 11.921875 
L 46.6875 54.6875 
L 56.203125 54.6875 
z
" id="DejaVuSans-121"/>
     </defs>
     <g transform="translate(61.017187 201.659375)rotate(-90)scale(0.1 -0.1)">
      <use xlink:href="#DejaVuSans-97"/>
      <use x="61.279297" xlink:href="#DejaVuSans-99"/>
      <use x="116.259766" xlink:href="#DejaVuSans-99"/>
      <use x="171.240234" xlink:href="#DejaVuSans-117"/>
      <use x="234.619141" xlink:href="#DejaVuSans-114"/>
      <use x="275.732422" xlink:href="#DejaVuSans-97"/>
      <use x="337.011719" xlink:href="#DejaVuSans-99"/>
      <use x="391.992188" xlink:href="#DejaVuSans-121"/>
     </g>
    </g>
   </g>
   <g id="line2d_31">
    <path clip-path="url(#p188ea27d9c)" d="M 115.363636 302.645455 
L 116.159358 298.73166 
L 116.557219 301.775722 
L 116.95508 293.948133 
L 117.750802 295.339704 
L 118.148663 288.120927 
L 118.546524 291.860776 
L 118.944385 291.16499 
L 119.342246 287.338168 
L 119.740107 278.901766 
L 120.137968 278.814793 
L 120.535829 278.553873 
L 120.93369 273.248507 
L 121.331551 274.379159 
L 121.729412 269.943525 
L 122.127273 268.378007 
L 123.320856 251.766123 
L 124.116578 244.11248 
L 124.514439 244.11248 
L 125.31016 238.285274 
L 125.708021 229.674926 
L 126.105882 226.978756 
L 126.503743 228.283354 
L 126.901604 225.152318 
L 127.299465 215.063425 
L 127.697326 219.846952 
L 128.095187 212.889095 
L 128.493048 209.062273 
L 128.890909 206.887943 
L 129.28877 205.583345 
L 130.084492 198.277594 
L 130.482353 191.40671 
L 130.880214 189.145407 
L 131.278075 191.40671 
L 131.675936 186.188317 
L 132.073797 176.621263 
L 132.471658 181.143871 
L 132.869519 174.09904 
L 133.26738 175.229692 
L 134.063102 165.662638 
L 134.460963 164.705933 
L 134.858824 160.096352 
L 135.256684 160.705165 
L 135.654545 152.529682 
L 136.052406 153.312441 
L 136.450267 152.355736 
L 137.245989 149.659566 
L 137.64385 150.616271 
L 138.041711 140.962244 
L 138.439572 143.919334 
L 138.837433 139.918566 
L 139.235294 138.96186 
L 139.633155 139.744619 
L 140.031016 137.657262 
L 140.428877 133.656494 
L 140.826738 133.656494 
L 141.224599 131.395191 
L 141.62246 134.35228 
L 142.418182 132.612816 
L 142.816043 126.437717 
L 143.213904 126.698637 
L 144.009626 125.481012 
L 144.407487 124.785226 
L 144.805348 125.394039 
L 145.203209 121.65419 
L 145.60107 119.740779 
L 145.99893 120.175646 
L 146.396791 121.828137 
L 146.794652 119.47986 
L 147.192513 116.087904 
L 147.590374 119.305913 
L 147.988235 119.47986 
L 148.386096 114.000547 
L 148.783957 116.52277 
L 149.181818 110.608592 
L 149.579679 112.956869 
L 149.97754 114.08752 
L 150.375401 113.565681 
L 150.773262 109.043074 
L 151.171123 111.65227 
L 151.568984 109.303993 
L 151.966845 106.172958 
L 152.364706 108.695181 
L 153.160428 105.129279 
L 153.558289 105.564145 
L 153.95615 105.564145 
L 154.354011 105.303225 
L 154.751872 102.781002 
L 155.149733 103.737708 
L 155.547594 102.607056 
L 155.945455 102.346136 
L 156.343316 102.433109 
L 156.741176 103.215868 
L 157.139037 96.953797 
L 157.536898 98.432341 
L 157.934759 101.563377 
L 158.33262 99.997859 
L 158.730481 99.649966 
L 159.128342 98.954181 
L 159.526203 97.388663 
L 159.924064 95.127359 
L 160.719786 98.780234 
L 161.117647 92.779082 
L 161.515508 93.996707 
L 161.913369 97.823529 
L 162.31123 92.257243 
L 162.709091 96.084065 
L 163.106952 94.431573 
L 163.504813 89.73502 
L 163.902674 93.213948 
L 164.300535 93.300922 
L 164.698396 91.735404 
L 165.494118 92.692109 
L 166.28984 92.257243 
L 166.687701 90.778698 
L 167.085561 90.343832 
L 167.483422 91.735404 
L 167.881283 89.21318 
L 168.279144 91.64843 
L 169.074866 88.256475 
L 169.472727 87.734636 
L 169.870588 86.517011 
L 170.268449 86.517011 
L 170.66631 91.213564 
L 171.064171 88.343448 
L 171.462032 89.387127 
L 171.859893 88.691341 
L 172.257754 88.604368 
L 172.655615 85.038466 
L 173.053476 89.73502 
L 173.451337 88.256475 
L 173.849198 88.256475 
L 174.247059 90.343832 
L 174.64492 83.646894 
L 175.042781 89.387127 
L 175.440642 85.473332 
L 175.838503 85.995171 
L 176.236364 83.820841 
L 176.634225 86.343064 
L 177.032086 81.820457 
L 177.429947 84.777546 
L 177.827807 84.516627 
L 178.225668 81.733484 
L 178.623529 81.733484 
L 179.02139 82.516243 
L 179.419251 82.603216 
L 179.817112 82.951109 
L 180.214973 82.690189 
L 180.612834 84.690573 
L 181.010695 82.690189 
L 181.408556 82.16835 
L 181.806417 83.125055 
L 182.204278 83.733868 
L 182.602139 79.124287 
L 183.397861 83.646894 
L 184.193583 81.559537 
L 184.591444 83.385975 
L 184.989305 81.211644 
L 185.387166 83.559921 
L 185.785027 80.167966 
L 186.182888 79.7331 
L 186.580749 80.776778 
L 186.97861 79.820073 
L 187.376471 80.080993 
L 187.774332 81.124671 
L 188.172193 81.037698 
L 188.570053 79.7331 
L 188.967914 78.863368 
L 189.365775 79.646127 
L 189.763636 79.907046 
L 190.161497 79.47218 
L 190.559358 81.124671 
L 190.957219 79.907046 
L 191.35508 80.863752 
L 191.752941 80.254939 
L 192.150802 82.777162 
L 192.946524 78.080609 
L 193.344385 80.602832 
L 193.742246 79.994019 
L 194.140107 76.949957 
L 194.537968 79.646127 
L 194.935829 78.863368 
L 195.33369 81.037698 
L 195.731551 77.210876 
L 196.129412 79.298234 
L 196.527273 78.428501 
L 196.925134 78.341528 
L 197.322995 79.47218 
L 197.720856 78.776394 
L 198.118717 76.949957 
L 198.516578 77.558769 
L 198.914439 80.167966 
L 199.312299 77.558769 
L 199.71016 76.862984 
L 200.108021 77.993635 
L 200.505882 76.080225 
L 200.903743 77.471796 
L 201.699465 78.689421 
L 202.097326 75.732332 
L 202.495187 76.689037 
L 202.893048 77.29785 
L 203.290909 76.167198 
L 203.68877 77.645743 
L 204.086631 78.080609 
L 204.484492 73.297082 
L 204.882353 79.037314 
L 205.280214 78.515475 
L 205.678075 74.949573 
L 206.075936 77.645743 
L 206.473797 75.036546 
L 206.871658 74.8626 
L 207.269519 74.079841 
L 207.66738 75.036546 
L 208.463102 75.471412 
L 208.860963 74.688653 
L 209.258824 72.514323 
L 209.656684 74.688653 
L 210.054545 74.688653 
L 210.452406 77.29785 
L 210.850267 77.210876 
L 211.248128 76.949957 
L 211.645989 73.384055 
L 212.04385 73.905894 
L 212.441711 74.166814 
L 212.839572 75.993251 
L 213.237433 76.862984 
L 213.635294 77.384823 
L 214.033155 77.645743 
L 214.431016 74.253787 
L 214.828877 75.123519 
L 215.226738 76.428118 
L 215.624599 75.384439 
L 216.02246 72.688269 
L 216.818182 76.254171 
L 217.216043 77.29785 
L 217.613904 74.253787 
L 218.011765 76.080225 
L 218.409626 73.123135 
L 218.807487 76.428118 
L 219.205348 73.297082 
L 219.603209 72.688269 
L 220.00107 71.557617 
L 220.39893 74.166814 
L 220.796791 71.818537 
L 221.194652 74.34076 
L 221.592513 74.949573 
L 221.990374 72.253403 
L 222.388235 74.688653 
L 222.786096 72.775242 
L 223.581818 74.60168 
L 223.979679 73.731948 
L 224.37754 71.90551 
L 224.775401 73.644975 
L 225.173262 72.079457 
L 225.571123 73.471028 
L 225.968984 72.42735 
L 226.764706 73.992867 
L 227.162567 72.775242 
L 227.560428 72.862216 
L 227.958289 75.297466 
L 228.35615 72.775242 
L 229.151872 72.949189 
L 229.549733 75.471412 
L 229.947594 72.079457 
L 230.345455 73.471028 
L 230.743316 71.818537 
L 231.141176 72.862216 
L 231.539037 71.122751 
L 231.936898 71.90551 
L 232.334759 72.42735 
L 232.73262 73.731948 
L 233.130481 72.079457 
L 233.528342 69.47026 
L 234.324064 72.688269 
L 234.721925 72.340376 
L 235.119786 72.862216 
L 235.517647 70.861832 
L 235.915508 72.253403 
L 236.313369 71.122751 
L 236.71123 71.644591 
L 237.109091 73.818921 
L 237.506952 71.557617 
L 237.904813 72.42735 
L 238.302674 71.122751 
L 238.700535 70.339992 
L 239.098396 71.818537 
L 239.496257 72.514323 
L 239.894118 73.644975 
L 240.291979 69.905126 
L 240.68984 71.644591 
L 241.087701 71.296698 
L 241.485561 69.73118 
L 241.883422 66.252251 
L 242.281283 71.644591 
L 242.679144 70.253019 
L 243.077005 68.252635 
L 243.474866 71.992483 
L 243.872727 71.731564 
L 244.270588 68.687501 
L 244.668449 71.644591 
L 245.06631 69.644207 
L 245.464171 71.209724 
L 245.862032 69.47026 
L 246.259893 71.383671 
L 246.657754 71.209724 
L 247.055615 72.949189 
L 247.851337 70.253019 
L 248.249198 70.600912 
L 248.647059 69.73118 
L 249.04492 71.209724 
L 249.442781 70.600912 
L 249.840642 69.47026 
L 250.238503 69.905126 
L 250.636364 70.948805 
L 251.034225 69.557233 
L 251.432086 70.774858 
L 251.829947 72.514323 
L 253.023529 68.339608 
L 253.42139 70.339992 
L 253.819251 69.296314 
L 254.614973 70.166046 
L 255.012834 69.47026 
L 255.410695 67.991715 
L 255.808556 68.774474 
L 256.206417 68.078689 
L 256.604278 71.90551 
L 257.002139 69.992099 
L 257.797861 68.078689 
L 258.195722 69.035394 
L 258.991444 71.90551 
L 259.389305 68.687501 
L 259.787166 72.079457 
L 260.185027 69.47026 
L 260.582888 68.600528 
L 260.980749 71.296698 
L 261.37861 68.165662 
L 261.776471 71.035778 
L 262.174332 67.730796 
L 262.572193 69.383287 
L 262.970053 69.383287 
L 263.765775 67.991715 
L 264.163636 68.339608 
L 264.561497 69.73118 
L 264.959358 67.469876 
L 265.75508 70.687885 
L 266.152941 66.687117 
L 266.550802 67.469876 
L 266.948663 68.774474 
L 267.346524 68.339608 
L 267.744385 68.600528 
L 268.142246 67.382903 
L 268.937968 68.861448 
L 269.335829 69.296314 
L 269.73369 68.774474 
L 270.131551 68.687501 
L 270.529412 69.296314 
L 270.927273 68.600528 
L 271.325134 68.513555 
L 271.722995 67.643823 
L 272.120856 68.165662 
L 272.518717 69.73118 
L 272.916578 70.166046 
L 273.314439 66.339224 
L 273.712299 69.122367 
L 274.508021 68.165662 
L 274.905882 70.426966 
L 275.701604 67.208957 
L 276.099465 66.861064 
L 276.497326 67.730796 
L 276.895187 67.643823 
L 277.293048 68.252635 
L 277.690909 69.644207 
L 278.08877 69.383287 
L 278.486631 68.861448 
L 278.884492 66.861064 
L 279.282353 68.339608 
L 279.680214 67.643823 
L 280.078075 67.643823 
L 280.475936 68.600528 
L 280.873797 69.992099 
L 281.271658 67.991715 
L 281.669519 68.339608 
L 282.06738 68.252635 
L 282.465241 66.426198 
L 282.863102 67.643823 
L 283.260963 68.426582 
L 283.658824 67.208957 
L 284.056684 66.513171 
L 284.454545 66.77409 
L 284.852406 65.904358 
L 285.250267 68.687501 
L 285.648128 67.904742 
L 286.045989 67.556849 
L 286.44385 66.687117 
L 286.841711 66.339224 
L 287.637433 67.29593 
L 288.035294 69.122367 
L 288.433155 68.339608 
L 288.831016 67.29593 
L 289.228877 68.600528 
L 289.626738 68.165662 
L 290.024599 69.73118 
L 290.42246 67.03501 
L 290.820321 68.165662 
L 291.218182 65.295546 
L 291.616043 66.77409 
L 292.411765 67.817769 
L 292.809626 68.078689 
L 293.207487 66.600144 
L 293.605348 66.600144 
L 294.003209 67.121983 
L 294.40107 67.121983 
L 294.79893 66.687117 
L 295.196791 67.382903 
L 295.594652 67.29593 
L 295.992513 66.687117 
L 296.390374 66.77409 
L 296.788235 65.904358 
L 297.186096 66.77409 
L 297.583957 68.252635 
L 297.981818 65.382519 
L 298.379679 66.687117 
L 298.77754 66.078305 
L 299.175401 67.991715 
L 299.573262 68.339608 
L 299.971123 65.904358 
L 300.368984 68.774474 
L 301.164706 63.903974 
L 301.562567 65.556465 
L 301.960428 66.339224 
L 302.358289 65.469492 
L 302.75615 67.904742 
L 303.154011 65.382519 
L 303.551872 66.687117 
L 303.949733 69.905126 
L 304.347594 67.904742 
L 304.745455 67.208957 
L 305.143316 68.078689 
L 305.541176 65.469492 
L 305.939037 67.817769 
L 306.336898 68.861448 
L 306.734759 66.252251 
L 307.13262 68.426582 
L 307.530481 66.948037 
L 307.928342 66.339224 
L 308.326203 65.121599 
L 308.724064 65.382519 
L 309.121925 66.687117 
L 309.519786 65.469492 
L 309.917647 66.426198 
L 310.315508 66.078305 
L 310.713369 67.29593 
L 311.11123 66.77409 
L 311.509091 65.817385 
L 311.906952 65.556465 
L 312.304813 65.904358 
L 312.702674 66.513171 
L 313.100535 66.77409 
L 313.498396 66.339224 
L 313.896257 65.556465 
L 314.294118 65.121599 
L 314.691979 65.034626 
L 315.08984 66.339224 
L 315.487701 65.991331 
L 315.885561 66.252251 
L 316.283422 65.382519 
L 316.681283 66.687117 
L 317.079144 66.687117 
L 317.477005 65.817385 
L 317.874866 66.513171 
L 318.272727 63.034242 
L 318.670588 65.556465 
L 319.068449 65.469492 
L 319.46631 65.991331 
L 319.864171 65.382519 
L 320.262032 65.730412 
L 320.659893 65.121599 
L 321.057754 65.034626 
L 321.455615 64.077921 
L 321.853476 63.903974 
L 322.251337 64.773706 
L 322.649198 64.251867 
L 323.047059 65.295546 
L 323.44492 63.730028 
L 323.842781 66.77409 
L 324.240642 63.730028 
L 324.638503 65.295546 
L 325.036364 62.512403 
L 325.434225 66.252251 
L 326.229947 64.59976 
L 326.627807 65.382519 
L 327.025668 65.382519 
L 327.423529 66.252251 
L 327.82139 64.773706 
L 328.219251 65.121599 
L 328.617112 64.686733 
L 329.014973 65.556465 
L 329.412834 64.164894 
L 329.810695 64.86068 
L 330.208556 64.425814 
L 331.004278 66.165278 
L 331.402139 63.903974 
L 331.8 66.252251 
L 332.197861 63.034242 
L 332.993583 66.513171 
L 333.391444 65.991331 
L 334.585027 63.121215 
L 334.982888 65.817385 
L 335.380749 64.686733 
L 335.77861 64.947653 
L 336.176471 66.600144 
L 336.574332 65.121599 
L 336.972193 64.077921 
L 337.370053 66.339224 
L 337.767914 63.469108 
L 338.165775 64.425814 
L 338.563636 65.034626 
L 338.961497 64.164894 
L 339.757219 66.426198 
L 340.15508 66.426198 
L 340.552941 65.469492 
L 340.950802 65.208573 
L 341.746524 61.990564 
L 342.144385 64.425814 
L 342.542246 63.295162 
L 342.940107 63.121215 
L 343.337968 65.208573 
L 343.735829 63.990947 
L 344.13369 64.59976 
L 344.531551 64.773706 
L 344.929412 65.469492 
L 345.327273 64.512787 
L 345.725134 67.991715 
L 346.122995 64.251867 
L 346.520856 63.817001 
L 346.918717 63.730028 
L 347.316578 63.295162 
L 347.714439 61.990564 
L 348.112299 64.947653 
L 348.51016 65.034626 
L 348.908021 63.903974 
L 349.305882 65.034626 
L 349.703743 62.42543 
L 350.101604 64.773706 
L 350.499465 63.382135 
L 350.897326 64.077921 
L 351.295187 63.295162 
L 351.693048 64.512787 
L 352.090909 62.947269 
L 352.886631 62.947269 
L 353.284492 63.556081 
L 353.682353 63.382135 
L 354.080214 62.42543 
L 354.478075 64.686733 
L 354.875936 62.42543 
L 355.273797 62.16451 
L 355.671658 64.251867 
L 356.069519 62.860296 
L 356.46738 63.556081 
L 356.865241 64.773706 
L 357.263102 63.990947 
L 357.660963 63.990947 
L 358.058824 63.730028 
L 358.456684 64.077921 
L 359.252406 62.42543 
L 359.650267 63.034242 
L 360.048128 62.512403 
L 360.445989 63.034242 
L 360.84385 65.121599 
L 361.241711 64.86068 
L 362.037433 65.817385 
L 362.435294 62.42543 
L 363.231016 63.730028 
L 363.628877 61.816617 
L 364.026738 61.207805 
L 364.424599 64.425814 
L 364.82246 61.990564 
L 365.220321 62.599376 
L 365.618182 61.120831 
L 366.016043 62.338456 
L 366.413904 64.512787 
L 366.811765 62.773322 
L 367.209626 61.990564 
L 367.607487 62.947269 
L 368.005348 62.686349 
L 368.403209 62.16451 
L 368.80107 60.946885 
L 369.19893 63.817001 
L 369.596791 62.338456 
L 369.994652 63.469108 
L 370.392513 62.599376 
L 370.790374 60.859912 
L 371.188235 62.338456 
L 371.586096 63.208189 
L 371.983957 65.556465 
L 372.779679 63.034242 
L 373.17754 63.034242 
L 373.575401 64.33884 
L 373.973262 63.730028 
L 374.371123 64.425814 
L 374.768984 61.729644 
L 375.166845 62.42543 
L 375.564706 61.642671 
L 375.962567 61.120831 
L 376.360428 63.208189 
L 376.758289 63.556081 
L 377.15615 63.382135 
L 377.554011 61.90359 
L 377.951872 62.947269 
L 378.349733 62.251483 
L 378.747594 62.16451 
L 379.145455 62.42543 
L 379.543316 61.207805 
L 379.941176 64.59976 
L 380.339037 61.90359 
L 380.736898 61.381751 
L 381.134759 62.077537 
L 381.53262 63.034242 
L 382.328342 63.643055 
L 383.124064 61.90359 
L 383.521925 63.382135 
L 383.919786 64.164894 
L 384.317647 60.859912 
L 384.715508 63.382135 
L 385.113369 62.42543 
L 385.51123 62.338456 
L 385.909091 60.946885 
L 386.306952 64.425814 
L 386.704813 60.859912 
L 387.102674 60.946885 
L 387.500535 61.90359 
L 387.898396 62.16451 
L 388.296257 62.860296 
L 388.694118 64.59976 
L 389.091979 63.034242 
L 389.48984 62.42543 
L 389.887701 61.120831 
L 390.285561 61.990564 
L 390.683422 61.642671 
L 391.081283 62.42543 
L 391.479144 63.990947 
L 391.877005 62.42543 
L 392.274866 62.512403 
L 392.672727 61.033858 
L 393.070588 60.946885 
L 393.468449 61.729644 
L 393.86631 62.16451 
L 394.264171 63.903974 
L 394.662032 61.207805 
L 395.059893 61.990564 
L 395.457754 63.295162 
L 395.855615 62.686349 
L 396.253476 63.469108 
L 396.651337 60.425046 
L 397.049198 62.599376 
L 397.447059 62.947269 
L 397.84492 61.294778 
L 398.242781 61.642671 
L 398.640642 63.121215 
L 399.436364 61.033858 
L 399.834225 63.121215 
L 400.232086 61.381751 
L 400.629947 63.208189 
L 401.027807 60.859912 
L 401.425668 60.251099 
L 401.823529 62.599376 
L 402.22139 61.990564 
L 402.619251 62.338456 
L 403.017112 63.903974 
L 403.414973 60.946885 
L 403.812834 62.599376 
L 404.210695 62.077537 
L 404.608556 60.946885 
L 405.404278 63.034242 
L 406.2 63.643055 
L 406.597861 63.034242 
L 406.995722 64.512787 
L 407.393583 63.208189 
L 407.791444 63.469108 
L 408.189305 61.120831 
L 408.587166 62.077537 
L 408.985027 61.90359 
L 409.382888 62.686349 
L 410.17861 61.294778 
L 410.576471 62.251483 
L 410.974332 62.686349 
L 411.372193 61.207805 
L 411.770053 61.381751 
L 412.167914 62.077537 
L 412.565775 61.90359 
L 412.963636 62.599376 
L 413.361497 60.164126 
L 413.759358 62.077537 
L 414.157219 60.946885 
L 414.55508 61.207805 
L 415.350802 61.207805 
L 415.748663 61.381751 
L 416.146524 61.990564 
L 416.544385 62.077537 
L 416.942246 62.686349 
L 417.340107 61.816617 
L 417.737968 62.512403 
L 418.135829 61.207805 
L 418.931551 63.121215 
L 419.329412 62.512403 
L 419.727273 59.903206 
L 420.125134 61.381751 
L 420.522995 62.077537 
L 420.920856 60.772938 
L 421.318717 61.729644 
L 421.716578 61.642671 
L 422.114439 62.947269 
L 422.91016 61.816617 
L 423.308021 62.512403 
L 423.705882 60.859912 
L 424.103743 60.598992 
L 424.501604 62.599376 
L 424.899465 62.077537 
L 425.297326 61.990564 
L 425.695187 59.46834 
L 426.093048 61.468724 
L 426.490909 62.512403 
L 426.88877 61.120831 
L 427.286631 60.338072 
L 427.684492 63.469108 
L 428.082353 61.642671 
L 428.480214 61.90359 
L 428.878075 59.903206 
L 429.275936 60.077153 
L 429.673797 62.077537 
L 430.071658 62.512403 
L 430.469519 61.381751 
L 430.86738 61.990564 
L 431.265241 59.903206 
L 431.663102 62.512403 
L 432.060963 60.946885 
L 432.458824 63.121215 
L 432.856684 61.990564 
L 433.254545 61.816617 
L 433.652406 60.164126 
L 434.050267 61.555697 
L 434.448128 59.120447 
L 434.845989 59.381367 
L 435.24385 60.772938 
L 435.641711 61.294778 
L 436.039572 60.338072 
L 436.835294 61.468724 
L 437.631016 60.859912 
L 438.028877 60.164126 
L 438.426738 60.685965 
L 438.824599 61.816617 
L 439.22246 60.946885 
L 439.620321 62.512403 
L 440.018182 60.772938 
L 440.416043 61.207805 
L 440.813904 59.46834 
L 441.211765 62.077537 
L 441.609626 63.295162 
L 442.007487 61.555697 
L 442.405348 63.208189 
L 442.803209 61.207805 
L 443.20107 60.164126 
L 443.59893 59.99018 
L 443.996791 60.685965 
L 444.394652 60.772938 
L 444.792513 60.425046 
L 445.190374 61.642671 
L 445.588235 60.598992 
L 445.986096 61.816617 
L 446.383957 59.294394 
L 446.781818 59.381367 
L 447.179679 61.120831 
L 447.57754 59.72926 
L 447.975401 64.077921 
L 448.373262 59.99018 
L 448.771123 62.251483 
L 449.168984 61.207805 
L 449.566845 60.598992 
L 449.964706 60.685965 
L 450.362567 60.425046 
L 450.760428 59.816233 
L 451.158289 61.90359 
L 451.55615 59.903206 
L 451.954011 60.859912 
L 452.351872 59.033474 
L 452.749733 60.512019 
L 453.147594 61.294778 
L 453.545455 59.72926 
L 453.943316 60.338072 
L 454.341176 60.598992 
L 454.739037 61.120831 
L 455.136898 60.512019 
L 455.534759 59.207421 
L 456.330481 60.164126 
L 456.728342 61.033858 
L 457.126203 60.512019 
L 457.524064 61.555697 
L 457.921925 59.72926 
L 458.319786 62.251483 
L 458.717647 59.555313 
L 459.115508 58.946501 
L 459.513369 59.816233 
L 459.91123 61.468724 
L 460.309091 61.207805 
L 460.706952 60.425046 
L 461.104813 60.598992 
L 461.502674 61.207805 
L 461.900535 61.468724 
L 462.696257 59.207421 
L 463.094118 58.685581 
L 463.491979 60.251099 
L 463.88984 60.685965 
L 464.287701 59.99018 
L 464.685561 60.425046 
L 465.083422 59.903206 
L 466.277005 62.251483 
L 466.674866 59.72926 
L 467.072727 60.338072 
L 467.470588 61.294778 
L 467.868449 60.251099 
L 468.26631 59.99018 
L 468.664171 60.164126 
L 469.459893 62.251483 
L 470.255615 59.72926 
L 470.653476 62.338456 
L 471.051337 61.555697 
L 471.449198 59.381367 
L 471.847059 61.642671 
L 472.24492 60.598992 
L 472.642781 60.772938 
L 473.040642 60.077153 
L 473.438503 61.555697 
L 473.836364 60.598992 
L 474.234225 61.90359 
L 475.029947 60.772938 
L 475.427807 61.381751 
L 475.825668 59.294394 
L 476.223529 61.033858 
L 476.62139 61.642671 
L 477.019251 61.816617 
L 477.417112 60.598992 
L 477.814973 61.120831 
L 478.212834 60.512019 
L 478.610695 60.598992 
L 479.008556 62.773322 
L 479.406417 58.076769 
L 480.202139 59.903206 
L 480.6 60.077153 
L 480.997861 59.642287 
L 481.793583 61.033858 
L 482.191444 60.859912 
L 482.589305 59.72926 
L 482.987166 59.72926 
L 483.385027 60.859912 
L 483.782888 59.120447 
L 484.180749 59.99018 
L 484.57861 60.164126 
L 484.976471 62.512403 
L 485.374332 59.816233 
L 485.772193 60.859912 
L 486.170053 61.468724 
L 486.567914 61.381751 
L 486.965775 59.99018 
L 487.363636 61.120831 
L 487.761497 59.816233 
L 488.159358 60.164126 
L 488.557219 58.685581 
L 488.95508 58.076769 
L 489.352941 59.294394 
L 489.750802 59.72926 
L 490.148663 59.555313 
L 490.546524 60.512019 
L 490.944385 60.338072 
L 491.342246 58.859528 
L 492.137968 60.338072 
L 492.535829 59.555313 
L 492.93369 59.816233 
L 493.331551 58.163742 
L 493.729412 58.250715 
L 494.127273 60.859912 
L 494.525134 57.641903 
L 494.922995 61.207805 
L 495.320856 59.46834 
L 495.718717 60.077153 
L 496.116578 57.29401 
L 496.912299 60.164126 
L 497.31016 59.642287 
L 497.708021 60.251099 
L 498.105882 61.90359 
L 498.503743 59.555313 
L 498.901604 59.555313 
L 499.299465 59.816233 
L 499.697326 59.903206 
L 500.095187 60.512019 
L 500.493048 59.555313 
L 500.890909 60.077153 
L 501.28877 59.120447 
L 502.084492 58.685581 
L 502.482353 59.033474 
L 502.880214 59.033474 
L 503.675936 60.946885 
L 504.471658 59.72926 
L 504.869519 59.903206 
L 505.26738 58.250715 
L 505.665241 58.424662 
L 506.063102 59.46834 
L 506.460963 59.381367 
L 506.858824 59.72926 
L 507.256684 60.685965 
L 507.654545 59.816233 
L 508.052406 60.164126 
L 508.450267 59.903206 
L 508.848128 59.903206 
L 509.245989 58.946501 
L 509.64385 62.686349 
L 510.041711 59.642287 
L 510.439572 62.251483 
L 510.837433 59.381367 
L 511.235294 59.033474 
L 511.633155 57.728876 
L 512.031016 60.251099 
L 512.428877 59.207421 
L 512.826738 60.077153 
L 513.224599 60.251099 
L 513.62246 58.511635 
L 514.020321 59.46834 
L 514.418182 58.250715 
L 514.816043 60.251099 
L 515.213904 57.815849 
L 515.611765 59.207421 
L 516.407487 59.120447 
L 516.805348 59.642287 
L 517.203209 58.772554 
L 517.60107 59.555313 
L 517.99893 60.598992 
L 518.396791 59.381367 
L 518.794652 59.120447 
L 519.192513 59.903206 
L 519.590374 59.555313 
L 519.988235 58.076769 
L 520.386096 57.467956 
L 520.783957 60.685965 
L 521.181818 60.946885 
L 521.579679 57.554929 
L 521.97754 58.772554 
L 522.375401 58.859528 
L 522.773262 60.251099 
L 523.171123 58.772554 
L 523.568984 59.816233 
L 523.966845 59.99018 
L 524.762567 58.946501 
L 525.160428 60.772938 
L 525.95615 57.554929 
L 526.354011 57.641903 
L 526.751872 59.903206 
L 527.149733 58.859528 
L 527.547594 58.772554 
L 527.945455 58.859528 
L 528.343316 59.555313 
L 528.741176 58.859528 
L 529.139037 59.033474 
L 529.536898 58.163742 
L 529.934759 61.468724 
L 530.33262 59.46834 
L 530.730481 59.207421 
L 531.128342 59.99018 
L 531.526203 59.99018 
L 531.924064 59.816233 
L 532.321925 58.250715 
L 532.719786 58.772554 
L 533.515508 60.164126 
L 533.913369 57.902822 
L 534.31123 57.554929 
L 534.709091 58.163742 
L 535.106952 60.425046 
L 535.504813 57.902822 
L 535.902674 60.946885 
L 536.300535 58.424662 
L 537.096257 58.685581 
L 537.494118 59.72926 
L 537.891979 59.816233 
L 538.28984 60.512019 
L 538.687701 59.294394 
L 539.085561 59.207421 
L 539.483422 59.72926 
L 539.881283 59.207421 
L 540.279144 59.72926 
L 540.677005 58.424662 
L 541.074866 59.555313 
L 541.472727 59.120447 
L 541.870588 59.207421 
L 542.268449 57.554929 
L 542.66631 59.642287 
L 543.064171 60.946885 
L 543.462032 59.294394 
L 543.859893 58.772554 
L 544.257754 58.772554 
L 544.655615 58.598608 
L 545.053476 59.642287 
L 545.451337 59.903206 
L 545.849198 58.511635 
L 546.247059 59.99018 
L 546.64492 59.120447 
L 547.042781 60.338072 
L 547.440642 58.598608 
L 547.838503 57.815849 
L 548.236364 59.72926 
L 548.634225 59.033474 
L 549.032086 57.03309 
L 549.429947 60.512019 
L 549.827807 59.207421 
L 550.225668 58.598608 
L 550.623529 55.902438 
L 551.02139 58.076769 
L 551.419251 57.989796 
L 551.817112 59.72926 
L 552.214973 59.033474 
L 552.612834 57.467956 
L 553.010695 59.72926 
L 553.408556 60.598992 
L 553.806417 57.29401 
L 554.204278 56.685197 
L 554.602139 59.816233 
L 555 55.641519 
L 555.397861 59.555313 
L 555.795722 58.337688 
L 556.193583 59.207421 
L 556.591444 59.033474 
L 556.989305 58.598608 
L 557.785027 59.555313 
L 558.182888 57.989796 
L 558.580749 57.120063 
L 558.97861 59.294394 
L 559.376471 56.77217 
L 559.774332 58.424662 
L 560.172193 58.250715 
L 560.570053 58.598608 
L 560.967914 57.815849 
L 561.365775 58.598608 
L 561.763636 59.99018 
L 562.161497 57.728876 
L 562.559358 59.120447 
L 562.957219 58.598608 
L 563.35508 57.815849 
L 563.752941 60.164126 
L 564.548663 58.337688 
L 564.946524 59.033474 
L 565.344385 58.424662 
L 565.742246 58.076769 
L 566.140107 59.120447 
L 566.537968 57.467956 
L 566.935829 58.424662 
L 567.33369 58.598608 
L 567.731551 59.72926 
L 568.129412 57.902822 
L 568.527273 59.816233 
L 569.322995 57.989796 
L 569.720856 57.467956 
L 570.118717 57.380983 
L 570.914439 60.772938 
L 571.312299 58.859528 
L 572.108021 59.46834 
L 572.505882 59.642287 
L 572.903743 57.641903 
L 573.301604 56.424278 
L 573.699465 59.555313 
L 574.097326 57.467956 
L 574.495187 58.511635 
L 574.893048 57.728876 
L 575.290909 58.946501 
L 575.68877 57.554929 
L 576.484492 58.250715 
L 576.882353 59.903206 
L 577.280214 57.989796 
L 577.678075 60.077153 
L 578.075936 59.207421 
L 578.473797 59.99018 
L 578.871658 57.815849 
L 579.269519 58.772554 
L 579.66738 57.815849 
L 580.065241 57.815849 
L 580.463102 58.163742 
L 580.860963 59.207421 
L 581.258824 58.511635 
L 581.656684 60.164126 
L 582.054545 58.685581 
L 582.452406 58.772554 
L 582.850267 59.46834 
L 583.248128 61.033858 
L 583.645989 57.989796 
L 584.04385 58.685581 
L 584.441711 58.424662 
L 584.839572 59.903206 
L 585.237433 56.337304 
L 585.635294 58.685581 
L 586.033155 57.554929 
L 586.431016 57.989796 
L 586.828877 59.120447 
L 587.226738 59.816233 
L 587.624599 57.03309 
L 588.02246 58.250715 
L 588.420321 58.946501 
L 588.818182 57.902822 
L 589.216043 58.859528 
L 589.613904 56.337304 
L 590.011765 58.685581 
L 590.409626 60.164126 
L 590.807487 59.46834 
L 591.205348 57.467956 
L 591.603209 59.816233 
L 592.00107 55.554545 
L 592.39893 59.642287 
L 592.796791 59.033474 
L 593.194652 55.902438 
L 593.592513 57.467956 
L 593.990374 58.076769 
L 594.388235 58.076769 
L 594.786096 57.728876 
L 595.183957 58.685581 
L 595.581818 57.467956 
L 595.979679 58.598608 
L 596.37754 59.033474 
L 596.775401 58.772554 
L 597.173262 57.554929 
L 597.571123 58.772554 
L 597.968984 58.250715 
L 598.366845 57.989796 
L 598.764706 58.163742 
L 599.162567 55.641519 
L 599.560428 59.642287 
L 599.958289 57.380983 
L 600.35615 57.207037 
L 601.151872 58.859528 
L 601.549733 58.163742 
L 601.947594 58.685581 
L 602.345455 57.641903 
L 602.743316 59.381367 
L 603.141176 57.989796 
L 603.539037 57.120063 
L 603.936898 57.902822 
L 604.334759 56.946117 
L 604.73262 56.511251 
L 605.130481 58.250715 
L 605.528342 57.120063 
L 605.926203 57.29401 
L 607.119786 58.250715 
L 607.517647 59.207421 
L 607.915508 57.120063 
L 608.71123 58.859528 
L 609.109091 59.294394 
L 609.506952 57.554929 
L 609.904813 57.728876 
L 610.302674 59.033474 
L 610.700535 59.294394 
L 611.098396 58.772554 
L 611.496257 58.946501 
L 611.894118 57.641903 
L 612.291979 57.380983 
L 612.68984 57.554929 
L 613.087701 57.03309 
L 613.485561 58.772554 
L 613.883422 57.989796 
L 614.281283 57.815849 
L 614.679144 57.989796 
L 615.077005 58.772554 
L 615.474866 56.598224 
L 615.872727 57.728876 
L 616.270588 57.380983 
L 616.668449 56.859144 
L 617.06631 57.641903 
L 617.464171 58.946501 
L 617.862032 57.467956 
L 618.259893 56.685197 
L 618.657754 57.207037 
L 619.055615 58.337688 
L 619.453476 59.99018 
L 619.851337 55.815465 
L 620.249198 57.728876 
L 620.647059 57.207037 
L 621.04492 59.120447 
L 621.442781 57.467956 
L 621.840642 56.598224 
L 622.238503 59.72926 
L 622.636364 57.554929 
L 622.636364 57.554929 
" style="fill:none;stroke:#1f77b4;stroke-linecap:square;stroke-width:0.5;"/>
   </g>
   <g id="line2d_32">
    <path clip-path="url(#p188ea27d9c)" d="M 115.363636 300.732044 
L 115.761497 302.645455 
L 116.159358 301.079937 
L 116.557219 300.732044 
L 116.95508 299.427446 
L 117.352941 296.470356 
L 117.750802 299.079553 
L 118.148663 293.426294 
L 118.546524 289.860392 
L 118.944385 287.425142 
L 119.342246 288.46882 
L 119.740107 279.249659 
L 120.137968 282.641615 
L 120.93369 274.727052 
L 121.331551 273.422454 
L 121.729412 269.508659 
L 122.127273 263.942373 
L 122.525134 260.985284 
L 122.922995 258.897926 
L 123.718717 242.720908 
L 124.116578 248.026274 
L 124.912299 234.545426 
L 125.31016 236.371863 
L 125.708021 233.936613 
L 126.105882 226.630863 
L 126.503743 228.109408 
L 126.901604 220.977604 
L 127.299465 217.759595 
L 127.697326 219.412086 
L 128.095187 215.498291 
L 128.493048 215.672238 
L 128.890909 213.236988 
L 129.686631 198.364568 
L 130.084492 196.79905 
L 130.482353 196.190237 
L 130.880214 190.102112 
L 131.278075 186.101344 
L 131.675936 186.884103 
L 132.073797 180.969924 
L 132.471658 180.187165 
L 132.869519 172.881415 
L 133.26738 172.359576 
L 133.665241 169.48946 
L 134.063102 165.575665 
L 134.460963 159.922406 
L 134.858824 159.313593 
L 135.256684 155.399798 
L 135.654545 154.008227 
L 136.052406 148.181021 
L 136.450267 151.92087 
L 136.848128 150.007459 
L 137.245989 148.789834 
L 137.64385 144.61512 
L 138.439572 139.048834 
L 138.837433 140.701325 
L 139.235294 140.527378 
L 139.633155 136.700557 
L 140.031016 137.396343 
L 140.428877 132.699789 
L 140.826738 130.873351 
L 141.224599 132.17795 
L 141.62246 127.742315 
L 142.418182 124.002467 
L 142.816043 128.264155 
L 143.213904 125.915878 
L 143.611765 125.654958 
L 144.009626 124.002467 
L 144.407487 125.133119 
L 144.805348 121.741163 
L 145.203209 119.305913 
L 145.60107 124.002467 
L 145.99893 123.306681 
L 146.396791 120.610512 
L 146.794652 115.392119 
L 147.590374 116.609744 
L 147.988235 115.566065 
L 148.386096 114.957253 
L 148.783957 111.391351 
L 149.181818 111.478324 
L 149.579679 114.696333 
L 149.97754 108.956101 
L 150.375401 110.086752 
L 150.773262 109.21702 
L 151.171123 108.695181 
L 151.568984 107.216636 
L 151.966845 104.259547 
L 152.364706 105.651118 
L 152.762567 103.041922 
L 153.160428 104.60744 
L 153.95615 100.171806 
L 154.354011 103.215868 
L 154.751872 101.128511 
L 155.149733 102.259163 
L 155.547594 100.432725 
L 155.945455 100.693645 
L 156.343316 102.781002 
L 156.741176 97.736556 
L 157.139037 99.041154 
L 157.536898 101.65035 
L 157.934759 97.910502 
L 158.33262 97.388663 
L 158.730481 93.996707 
L 159.128342 99.302074 
L 159.526203 95.475252 
L 159.924064 95.736172 
L 160.321925 97.127743 
L 160.719786 95.127359 
L 161.117647 95.475252 
L 161.515508 94.518547 
L 161.913369 94.3446 
L 162.31123 93.648814 
L 162.709091 92.431189 
L 163.106952 94.953413 
L 163.504813 92.431189 
L 163.902674 88.952261 
L 164.300535 92.953029 
L 164.698396 91.126591 
L 165.096257 87.995555 
L 165.494118 89.73502 
L 165.891979 90.343832 
L 166.28984 87.995555 
L 166.687701 87.734636 
L 167.085561 92.083297 
L 167.483422 87.386743 
L 167.881283 89.73502 
L 168.279144 90.169886 
L 168.677005 89.648046 
L 169.074866 92.083297 
L 169.472727 87.995555 
L 170.268449 86.77793 
L 170.66631 85.038466 
L 171.064171 85.125439 
L 171.462032 88.256475 
L 171.859893 87.473716 
L 172.257754 90.256859 
L 172.655615 88.952261 
L 173.053476 85.473332 
L 173.451337 84.951493 
L 173.849198 88.691341 
L 174.247059 87.212796 
L 174.64492 87.734636 
L 175.042781 84.255707 
L 175.440642 86.690957 
L 175.838503 86.690957 
L 176.634225 83.125055 
L 177.032086 85.473332 
L 177.429947 83.472948 
L 177.827807 84.081761 
L 178.225668 81.124671 
L 178.623529 86.343064 
L 179.02139 83.820841 
L 179.419251 82.081377 
L 179.817112 84.34268 
L 180.214973 83.820841 
L 180.612834 85.212412 
L 181.010695 82.603216 
L 181.408556 82.255323 
L 181.806417 82.516243 
L 182.204278 85.212412 
L 183 81.90743 
L 183.397861 82.777162 
L 183.795722 81.211644 
L 184.193583 81.037698 
L 184.591444 82.081377 
L 184.989305 81.472564 
L 185.387166 84.34268 
L 186.182888 80.341912 
L 186.580749 80.863752 
L 186.97861 80.341912 
L 187.376471 79.559153 
L 187.774332 83.038082 
L 188.172193 80.428885 
L 188.570053 80.950725 
L 188.967914 80.080993 
L 189.365775 78.341528 
L 189.763636 81.385591 
L 190.161497 79.820073 
L 190.559358 79.385207 
L 190.957219 79.820073 
L 191.35508 83.212028 
L 191.752941 80.341912 
L 192.150802 78.776394 
L 192.548663 80.776778 
L 192.946524 79.298234 
L 193.344385 78.950341 
L 193.742246 80.080993 
L 194.140107 79.385207 
L 194.537968 79.646127 
L 194.935829 81.385591 
L 195.33369 77.819689 
L 195.731551 81.472564 
L 196.129412 75.906278 
L 196.527273 81.298618 
L 196.925134 77.732716 
L 197.322995 79.385207 
L 197.720856 82.081377 
L 198.118717 77.645743 
L 198.516578 79.385207 
L 198.914439 78.254555 
L 199.71016 77.471796 
L 200.108021 77.993635 
L 200.505882 78.254555 
L 200.903743 80.602832 
L 201.301604 78.167582 
L 201.699465 76.949957 
L 202.097326 77.732716 
L 202.495187 79.124287 
L 202.893048 75.384439 
L 203.290909 77.29785 
L 203.68877 75.036546 
L 204.086631 76.862984 
L 204.484492 82.951109 
L 204.882353 78.167582 
L 205.280214 77.471796 
L 205.678075 78.167582 
L 206.075936 77.29785 
L 206.473797 79.646127 
L 206.871658 76.689037 
L 207.269519 76.602064 
L 207.66738 75.645359 
L 208.065241 75.210492 
L 208.463102 77.471796 
L 208.860963 76.254171 
L 209.258824 76.428118 
L 209.656684 75.558385 
L 210.054545 75.993251 
L 210.452406 74.60168 
L 210.850267 76.949957 
L 211.248128 78.080609 
L 211.645989 75.036546 
L 212.04385 76.862984 
L 212.441711 76.341144 
L 212.839572 76.167198 
L 213.237433 76.167198 
L 213.635294 76.77601 
L 214.033155 75.471412 
L 214.431016 77.645743 
L 214.828877 74.427734 
L 215.226738 75.036546 
L 215.624599 76.080225 
L 216.420321 75.297466 
L 216.818182 79.298234 
L 217.216043 75.906278 
L 217.613904 74.253787 
L 218.011765 74.688653 
L 218.409626 75.906278 
L 218.807487 74.166814 
L 219.205348 74.514707 
L 219.603209 78.080609 
L 220.39893 73.210108 
L 220.796791 77.29785 
L 221.194652 74.427734 
L 221.592513 74.166814 
L 221.990374 74.079841 
L 222.388235 74.514707 
L 222.786096 73.992867 
L 223.183957 74.514707 
L 223.581818 73.558001 
L 223.979679 74.079841 
L 224.37754 72.16643 
L 224.775401 75.036546 
L 225.173262 74.949573 
L 225.571123 75.993251 
L 225.968984 71.992483 
L 226.366845 73.644975 
L 226.764706 74.079841 
L 227.162567 71.90551 
L 227.560428 77.03693 
L 227.958289 74.8626 
L 228.35615 74.427734 
L 228.754011 73.123135 
L 229.151872 73.731948 
L 229.549733 72.514323 
L 230.345455 74.60168 
L 230.743316 72.688269 
L 231.141176 73.905894 
L 231.539037 73.905894 
L 231.936898 74.688653 
L 232.334759 72.079457 
L 232.73262 71.209724 
L 233.130481 73.123135 
L 233.528342 71.383671 
L 233.926203 71.644591 
L 234.324064 73.123135 
L 234.721925 73.731948 
L 235.119786 73.731948 
L 235.517647 71.992483 
L 235.915508 73.036162 
L 236.313369 71.731564 
L 236.71123 72.688269 
L 237.109091 74.253787 
L 237.506952 73.644975 
L 237.904813 72.340376 
L 238.302674 75.384439 
L 238.700535 75.471412 
L 239.098396 72.079457 
L 239.496257 72.16643 
L 239.894118 73.384055 
L 240.291979 73.558001 
L 241.485561 70.687885 
L 241.883422 73.905894 
L 242.281283 70.253019 
L 242.679144 70.079073 
L 243.077005 70.166046 
L 243.474866 73.558001 
L 243.872727 70.774858 
L 244.270588 72.340376 
L 244.668449 71.209724 
L 245.06631 71.383671 
L 245.464171 74.949573 
L 245.862032 72.253403 
L 246.259893 72.253403 
L 246.657754 73.558001 
L 247.055615 72.688269 
L 247.453476 71.122751 
L 247.851337 72.340376 
L 248.249198 71.035778 
L 248.647059 71.90551 
L 249.04492 70.948805 
L 249.442781 70.426966 
L 249.840642 71.035778 
L 250.238503 70.339992 
L 250.636364 69.905126 
L 251.034225 73.036162 
L 251.432086 71.90551 
L 251.829947 75.993251 
L 252.625668 71.818537 
L 253.023529 70.166046 
L 253.819251 72.601296 
L 254.217112 70.948805 
L 254.614973 70.513939 
L 255.410695 73.297082 
L 255.808556 72.42735 
L 256.206417 70.861832 
L 256.604278 72.514323 
L 257.002139 71.122751 
L 257.4 72.949189 
L 257.797861 70.426966 
L 258.195722 69.905126 
L 258.593583 71.644591 
L 259.389305 71.557617 
L 259.787166 72.775242 
L 260.185027 70.861832 
L 260.582888 69.818153 
L 260.980749 71.035778 
L 261.37861 71.035778 
L 261.776471 72.949189 
L 262.174332 68.600528 
L 262.572193 71.296698 
L 262.970053 70.513939 
L 263.367914 71.122751 
L 263.765775 70.166046 
L 264.163636 70.339992 
L 264.561497 70.861832 
L 264.959358 71.644591 
L 265.357219 71.557617 
L 265.75508 70.339992 
L 266.152941 70.513939 
L 266.550802 69.035394 
L 267.346524 71.035778 
L 267.744385 70.687885 
L 268.142246 69.557233 
L 268.540107 71.992483 
L 268.937968 68.426582 
L 269.335829 71.383671 
L 269.73369 71.122751 
L 270.131551 72.775242 
L 270.529412 68.339608 
L 270.927273 71.818537 
L 271.325134 70.079073 
L 271.722995 69.992099 
L 272.120856 70.166046 
L 272.518717 70.079073 
L 272.916578 73.558001 
L 273.314439 69.818153 
L 273.712299 71.383671 
L 274.11016 69.47026 
L 274.508021 71.731564 
L 274.905882 70.426966 
L 275.303743 69.73118 
L 275.701604 68.426582 
L 276.497326 67.03501 
L 276.895187 71.296698 
L 277.293048 69.47026 
L 277.690909 69.383287 
L 278.486631 71.122751 
L 278.884492 69.644207 
L 279.282353 69.383287 
L 279.680214 68.861448 
L 280.078075 68.774474 
L 280.475936 70.339992 
L 280.873797 68.687501 
L 281.271658 69.122367 
L 282.06738 71.209724 
L 282.465241 68.687501 
L 282.863102 69.818153 
L 283.260963 69.122367 
L 284.056684 69.73118 
L 284.454545 68.600528 
L 284.852406 69.73118 
L 285.250267 68.861448 
L 285.648128 67.643823 
L 286.045989 69.47026 
L 286.44385 69.73118 
L 286.841711 69.035394 
L 287.239572 68.687501 
L 287.637433 68.687501 
L 288.035294 71.383671 
L 288.433155 68.687501 
L 288.831016 70.687885 
L 289.228877 70.426966 
L 289.626738 68.078689 
L 290.024599 69.296314 
L 290.42246 69.296314 
L 290.820321 70.079073 
L 291.218182 67.730796 
L 291.616043 68.774474 
L 292.013904 69.383287 
L 292.411765 68.339608 
L 292.809626 68.165662 
L 293.207487 70.861832 
L 293.605348 69.209341 
L 294.003209 70.600912 
L 294.40107 67.991715 
L 294.79893 69.122367 
L 295.196791 68.252635 
L 295.594652 68.687501 
L 295.992513 70.079073 
L 296.390374 69.557233 
L 297.186096 69.209341 
L 297.583957 67.904742 
L 297.981818 67.382903 
L 298.379679 70.600912 
L 298.77754 68.078689 
L 299.175401 68.426582 
L 299.573262 69.296314 
L 299.971123 68.861448 
L 300.368984 69.383287 
L 300.766845 68.165662 
L 301.164706 69.73118 
L 301.960428 69.992099 
L 302.358289 68.339608 
L 302.75615 67.29593 
L 303.551872 69.035394 
L 303.949733 67.121983 
L 304.347594 70.426966 
L 304.745455 69.122367 
L 305.143316 68.252635 
L 305.541176 67.904742 
L 306.336898 69.557233 
L 306.734759 69.818153 
L 307.530481 67.03501 
L 307.928342 69.383287 
L 308.326203 70.166046 
L 308.724064 68.165662 
L 309.121925 67.556849 
L 309.917647 68.774474 
L 310.315508 66.339224 
L 310.713369 69.209341 
L 311.11123 68.078689 
L 311.509091 68.252635 
L 311.906952 69.383287 
L 312.304813 69.209341 
L 312.702674 67.730796 
L 313.100535 68.774474 
L 313.498396 66.861064 
L 313.896257 68.861448 
L 314.294118 68.861448 
L 314.691979 66.426198 
L 315.08984 67.556849 
L 315.487701 69.122367 
L 315.885561 67.556849 
L 316.283422 68.513555 
L 316.681283 67.03501 
L 317.079144 67.643823 
L 317.477005 67.29593 
L 317.874866 69.296314 
L 318.272727 68.078689 
L 318.670588 70.253019 
L 319.068449 68.426582 
L 319.46631 65.469492 
L 319.864171 68.339608 
L 320.262032 69.209341 
L 320.659893 68.687501 
L 321.057754 67.817769 
L 321.455615 69.035394 
L 321.853476 67.643823 
L 322.251337 67.730796 
L 322.649198 66.77409 
L 323.047059 67.208957 
L 323.44492 63.903974 
L 323.842781 66.165278 
L 324.240642 66.513171 
L 324.638503 68.861448 
L 325.036364 65.730412 
L 325.434225 68.513555 
L 326.229947 67.29593 
L 326.627807 68.252635 
L 327.025668 67.904742 
L 327.423529 67.208957 
L 327.82139 67.991715 
L 328.219251 66.687117 
L 328.617112 66.948037 
L 329.014973 69.383287 
L 329.412834 67.817769 
L 329.810695 68.165662 
L 330.208556 66.600144 
L 330.606417 68.513555 
L 331.004278 66.513171 
L 331.402139 67.03501 
L 331.8 68.165662 
L 332.197861 68.165662 
L 332.595722 67.904742 
L 333.391444 67.730796 
L 333.789305 68.687501 
L 334.187166 66.339224 
L 334.585027 67.991715 
L 334.982888 66.948037 
L 335.380749 67.730796 
L 335.77861 66.165278 
L 336.176471 65.730412 
L 336.574332 68.339608 
L 336.972193 67.730796 
L 337.370053 67.469876 
L 337.767914 69.209341 
L 338.165775 67.29593 
L 338.563636 67.03501 
L 338.961497 67.643823 
L 339.359358 66.861064 
L 339.757219 68.165662 
L 340.15508 66.078305 
L 340.552941 66.948037 
L 340.950802 68.165662 
L 341.348663 64.512787 
L 341.746524 66.77409 
L 342.144385 67.03501 
L 342.542246 66.165278 
L 342.940107 66.339224 
L 343.337968 66.861064 
L 343.735829 65.382519 
L 344.13369 68.774474 
L 344.531551 69.209341 
L 344.929412 66.948037 
L 345.327273 66.078305 
L 345.725134 67.817769 
L 346.122995 67.121983 
L 346.520856 67.556849 
L 346.918717 66.426198 
L 347.316578 67.29593 
L 347.714439 65.730412 
L 348.112299 66.252251 
L 348.51016 68.426582 
L 349.305882 66.252251 
L 349.703743 68.774474 
L 350.101604 67.730796 
L 350.499465 67.382903 
L 350.897326 67.469876 
L 351.295187 67.03501 
L 351.693048 66.77409 
L 352.090909 67.904742 
L 352.48877 67.121983 
L 352.886631 66.948037 
L 353.284492 65.991331 
L 353.682353 67.904742 
L 354.080214 67.730796 
L 354.478075 66.165278 
L 354.875936 67.382903 
L 355.273797 68.078689 
L 355.671658 66.426198 
L 356.069519 66.426198 
L 356.46738 67.904742 
L 356.865241 68.861448 
L 357.263102 66.078305 
L 357.660963 67.121983 
L 358.058824 66.252251 
L 358.854545 67.469876 
L 359.252406 65.991331 
L 359.650267 65.295546 
L 360.048128 67.904742 
L 360.445989 65.643439 
L 360.84385 66.77409 
L 361.241711 66.339224 
L 361.639572 65.643439 
L 362.037433 68.252635 
L 362.435294 66.252251 
L 362.833155 67.121983 
L 363.231016 66.339224 
L 363.628877 66.426198 
L 364.026738 68.078689 
L 364.424599 68.687501 
L 364.82246 64.86068 
L 365.220321 65.034626 
L 365.618182 65.382519 
L 366.016043 67.29593 
L 366.413904 65.991331 
L 367.209626 65.469492 
L 367.607487 68.426582 
L 368.005348 64.86068 
L 368.80107 66.339224 
L 369.19893 65.730412 
L 369.596791 66.687117 
L 369.994652 67.991715 
L 370.392513 65.469492 
L 370.790374 68.948421 
L 371.188235 65.904358 
L 371.586096 66.948037 
L 371.983957 65.295546 
L 372.381818 65.643439 
L 372.779679 64.86068 
L 373.575401 67.556849 
L 373.973262 67.730796 
L 374.371123 66.252251 
L 374.768984 66.252251 
L 375.166845 66.078305 
L 375.564706 66.861064 
L 376.360428 66.165278 
L 376.758289 66.252251 
L 377.15615 66.861064 
L 377.554011 68.339608 
L 377.951872 65.295546 
L 378.349733 67.817769 
L 378.747594 67.643823 
L 379.145455 65.121599 
L 379.543316 66.426198 
L 379.941176 65.469492 
L 380.339037 66.078305 
L 380.736898 67.208957 
L 381.134759 65.817385 
L 381.53262 66.77409 
L 381.930481 65.295546 
L 382.328342 67.469876 
L 382.726203 66.77409 
L 383.124064 67.03501 
L 383.521925 67.469876 
L 383.919786 65.991331 
L 384.317647 65.556465 
L 384.715508 65.382519 
L 385.113369 65.730412 
L 385.51123 65.556465 
L 385.909091 65.991331 
L 386.306952 67.730796 
L 386.704813 65.034626 
L 387.102674 67.382903 
L 387.500535 67.817769 
L 387.898396 67.556849 
L 388.694118 65.121599 
L 389.091979 66.861064 
L 389.48984 66.948037 
L 389.887701 67.208957 
L 390.285561 68.339608 
L 390.683422 67.469876 
L 391.081283 65.730412 
L 391.479144 65.991331 
L 391.877005 67.643823 
L 392.274866 66.687117 
L 392.672727 65.382519 
L 393.070588 65.469492 
L 393.468449 65.991331 
L 393.86631 66.078305 
L 394.264171 66.687117 
L 395.059893 64.686733 
L 395.457754 67.208957 
L 395.855615 66.513171 
L 396.253476 66.078305 
L 396.651337 65.469492 
L 397.049198 65.382519 
L 397.447059 66.600144 
L 397.84492 66.339224 
L 398.242781 65.730412 
L 398.640642 65.556465 
L 399.038503 65.643439 
L 399.436364 66.339224 
L 399.834225 66.426198 
L 400.232086 66.77409 
L 400.629947 65.730412 
L 401.027807 66.252251 
L 401.425668 67.382903 
L 401.823529 63.903974 
L 402.22139 65.991331 
L 402.619251 63.903974 
L 403.414973 66.861064 
L 403.812834 65.295546 
L 404.608556 64.33884 
L 405.006417 66.77409 
L 405.404278 67.556849 
L 406.2 65.208573 
L 406.597861 65.991331 
L 406.995722 66.339224 
L 407.393583 65.469492 
L 407.791444 65.556465 
L 408.189305 66.513171 
L 408.587166 64.59976 
L 408.985027 66.426198 
L 409.382888 65.991331 
L 409.780749 65.208573 
L 410.17861 65.295546 
L 410.576471 64.164894 
L 410.974332 66.426198 
L 411.372193 65.556465 
L 411.770053 66.339224 
L 412.167914 66.078305 
L 412.565775 65.295546 
L 412.963636 65.469492 
L 413.361497 65.904358 
L 413.759358 64.59976 
L 414.157219 65.904358 
L 414.952941 65.469492 
L 415.350802 63.817001 
L 415.748663 66.078305 
L 416.146524 63.903974 
L 416.544385 65.121599 
L 416.942246 65.121599 
L 417.340107 67.643823 
L 417.737968 63.208189 
L 418.135829 64.686733 
L 418.53369 65.208573 
L 418.931551 66.687117 
L 419.329412 65.034626 
L 419.727273 66.861064 
L 420.125134 65.034626 
L 420.522995 64.164894 
L 420.920856 66.600144 
L 421.318717 64.251867 
L 421.716578 66.252251 
L 422.114439 66.078305 
L 422.512299 65.730412 
L 422.91016 66.600144 
L 423.308021 66.513171 
L 423.705882 65.382519 
L 424.103743 65.469492 
L 424.501604 66.426198 
L 424.899465 65.469492 
L 425.297326 66.513171 
L 425.695187 66.426198 
L 426.093048 65.295546 
L 426.490909 65.382519 
L 426.88877 68.861448 
L 427.286631 66.078305 
L 427.684492 67.29593 
L 428.082353 66.165278 
L 428.480214 66.77409 
L 428.878075 66.339224 
L 429.275936 65.034626 
L 429.673797 64.86068 
L 430.071658 65.382519 
L 430.469519 68.600528 
L 430.86738 64.512787 
L 431.265241 64.947653 
L 431.663102 66.078305 
L 432.060963 66.426198 
L 432.458824 66.252251 
L 432.856684 66.252251 
L 433.254545 65.469492 
L 433.652406 64.33884 
L 434.050267 66.426198 
L 434.448128 64.947653 
L 435.24385 65.817385 
L 435.641711 63.990947 
L 436.039572 65.121599 
L 436.437433 64.686733 
L 436.835294 64.077921 
L 437.233155 64.686733 
L 437.631016 64.686733 
L 438.426738 66.078305 
L 438.824599 65.121599 
L 439.22246 66.948037 
L 439.620321 64.947653 
L 440.018182 65.382519 
L 440.416043 67.121983 
L 440.813904 65.817385 
L 441.211765 65.121599 
L 441.609626 65.121599 
L 442.007487 65.991331 
L 442.405348 66.165278 
L 442.803209 65.817385 
L 443.20107 66.252251 
L 443.996791 62.860296 
L 444.394652 67.991715 
L 444.792513 65.556465 
L 445.190374 64.59976 
L 445.986096 64.251867 
L 446.383957 66.687117 
L 446.781818 63.469108 
L 447.179679 64.686733 
L 447.57754 66.77409 
L 447.975401 65.643439 
L 448.373262 65.991331 
L 448.771123 63.903974 
L 449.168984 66.426198 
L 449.566845 67.29593 
L 449.964706 65.382519 
L 450.362567 67.121983 
L 450.760428 65.469492 
L 451.158289 66.339224 
L 451.55615 64.33884 
L 451.954011 65.295546 
L 452.351872 63.990947 
L 452.749733 63.382135 
L 453.147594 65.556465 
L 453.545455 64.947653 
L 453.943316 65.121599 
L 454.341176 66.339224 
L 454.739037 65.469492 
L 455.136898 65.991331 
L 455.534759 65.817385 
L 455.93262 66.426198 
L 456.330481 64.947653 
L 456.728342 65.208573 
L 457.126203 64.33884 
L 457.524064 66.513171 
L 457.921925 66.165278 
L 458.319786 64.773706 
L 458.717647 66.513171 
L 459.115508 65.382519 
L 459.513369 64.686733 
L 459.91123 66.600144 
L 460.309091 64.686733 
L 460.706952 65.556465 
L 461.104813 65.817385 
L 461.502674 67.208957 
L 461.900535 65.556465 
L 462.298396 67.03501 
L 462.696257 66.861064 
L 463.491979 63.817001 
L 463.88984 66.600144 
L 464.287701 65.034626 
L 464.685561 65.556465 
L 465.083422 63.643055 
L 465.481283 63.034242 
L 466.277005 65.295546 
L 467.072727 63.643055 
L 467.470588 66.687117 
L 468.26631 64.164894 
L 468.664171 67.121983 
L 469.062032 65.643439 
L 469.459893 66.426198 
L 469.857754 66.252251 
L 470.255615 65.469492 
L 470.653476 63.990947 
L 471.051337 63.382135 
L 471.449198 65.991331 
L 471.847059 64.164894 
L 472.24492 66.252251 
L 472.642781 64.33884 
L 473.040642 63.208189 
L 473.438503 65.643439 
L 473.836364 65.469492 
L 474.234225 64.425814 
L 474.632086 65.382519 
L 475.427807 65.469492 
L 475.825668 64.425814 
L 476.223529 65.382519 
L 476.62139 66.948037 
L 477.019251 66.600144 
L 477.417112 65.904358 
L 477.814973 64.251867 
L 478.212834 63.730028 
L 478.610695 65.730412 
L 479.008556 63.903974 
L 479.804278 66.513171 
L 480.202139 64.686733 
L 480.6 64.512787 
L 480.997861 65.208573 
L 481.395722 65.295546 
L 481.793583 64.164894 
L 482.191444 65.817385 
L 482.589305 65.730412 
L 482.987166 65.295546 
L 483.385027 64.33884 
L 483.782888 64.164894 
L 484.57861 66.165278 
L 484.976471 65.121599 
L 485.374332 63.469108 
L 485.772193 64.512787 
L 486.170053 63.730028 
L 486.567914 65.730412 
L 486.965775 64.077921 
L 487.363636 65.121599 
L 487.761497 62.773322 
L 488.159358 63.903974 
L 488.557219 64.251867 
L 488.95508 64.251867 
L 489.352941 66.252251 
L 489.750802 63.990947 
L 490.148663 64.164894 
L 490.546524 63.295162 
L 490.944385 66.77409 
L 491.342246 64.947653 
L 491.740107 65.817385 
L 492.137968 64.077921 
L 492.535829 64.686733 
L 492.93369 65.817385 
L 493.729412 65.556465 
L 494.127273 64.512787 
L 494.525134 64.077921 
L 494.922995 65.295546 
L 495.320856 65.034626 
L 495.718717 65.730412 
L 496.116578 65.295546 
L 496.514439 65.382519 
L 496.912299 63.643055 
L 497.31016 62.860296 
L 497.708021 65.817385 
L 498.105882 65.904358 
L 498.503743 64.251867 
L 498.901604 65.469492 
L 499.299465 65.295546 
L 499.697326 63.817001 
L 500.095187 66.513171 
L 500.890909 63.990947 
L 501.28877 63.730028 
L 501.686631 65.556465 
L 502.084492 63.903974 
L 502.482353 64.512787 
L 502.880214 63.730028 
L 503.278075 63.903974 
L 503.675936 64.512787 
L 504.073797 64.512787 
L 504.471658 63.730028 
L 504.869519 66.861064 
L 505.26738 64.425814 
L 505.665241 64.077921 
L 506.063102 65.295546 
L 506.460963 65.121599 
L 506.858824 64.33884 
L 507.256684 65.556465 
L 507.654545 63.903974 
L 508.052406 63.730028 
L 508.450267 66.078305 
L 508.848128 65.556465 
L 509.245989 65.295546 
L 509.64385 64.077921 
L 510.041711 65.034626 
L 510.439572 65.295546 
L 510.837433 63.903974 
L 511.235294 63.295162 
L 511.633155 66.426198 
L 512.031016 63.730028 
L 512.428877 63.903974 
L 512.826738 65.382519 
L 513.224599 64.512787 
L 514.020321 65.730412 
L 514.418182 64.077921 
L 514.816043 64.425814 
L 515.213904 65.730412 
L 515.611765 64.251867 
L 516.009626 64.686733 
L 516.407487 66.252251 
L 516.805348 66.948037 
L 517.203209 64.59976 
L 517.60107 65.817385 
L 517.99893 65.991331 
L 518.396791 64.773706 
L 518.794652 64.251867 
L 519.192513 65.904358 
L 519.590374 63.730028 
L 520.386096 65.730412 
L 521.181818 63.208189 
L 521.579679 66.078305 
L 521.97754 66.687117 
L 522.375401 64.59976 
L 522.773262 64.86068 
L 523.171123 63.208189 
L 523.568984 65.469492 
L 523.966845 63.730028 
L 524.364706 66.165278 
L 524.762567 64.33884 
L 525.558289 63.990947 
L 525.95615 63.121215 
L 526.354011 62.860296 
L 527.149733 66.165278 
L 527.547594 63.730028 
L 527.945455 63.469108 
L 528.343316 66.600144 
L 528.741176 62.16451 
L 529.139037 66.165278 
L 529.934759 63.730028 
L 530.33262 65.643439 
L 530.730481 63.730028 
L 531.128342 65.556465 
L 531.526203 64.33884 
L 532.321925 65.121599 
L 532.719786 64.773706 
L 533.117647 63.469108 
L 533.515508 65.991331 
L 533.913369 64.947653 
L 534.31123 64.686733 
L 534.709091 63.556081 
L 535.504813 65.121599 
L 535.902674 63.643055 
L 536.300535 65.295546 
L 536.698396 64.425814 
L 537.096257 64.512787 
L 537.494118 66.426198 
L 537.891979 64.773706 
L 538.28984 65.295546 
L 538.687701 64.164894 
L 539.085561 67.29593 
L 539.483422 64.686733 
L 539.881283 64.077921 
L 540.677005 66.339224 
L 541.074866 65.469492 
L 541.472727 65.208573 
L 541.870588 64.425814 
L 542.268449 65.730412 
L 542.66631 64.512787 
L 543.064171 64.251867 
L 543.462032 63.295162 
L 543.859893 64.59976 
L 544.257754 65.034626 
L 544.655615 62.773322 
L 545.053476 65.208573 
L 545.451337 66.687117 
L 545.849198 64.251867 
L 546.247059 63.903974 
L 546.64492 65.817385 
L 547.042781 65.643439 
L 547.440642 64.33884 
L 548.236364 63.817001 
L 548.634225 63.295162 
L 549.032086 63.903974 
L 549.429947 65.121599 
L 550.225668 62.947269 
L 550.623529 64.947653 
L 551.02139 64.077921 
L 551.419251 64.251867 
L 551.817112 65.643439 
L 552.214973 66.426198 
L 552.612834 63.903974 
L 553.010695 65.382519 
L 553.408556 65.121599 
L 553.806417 64.59976 
L 554.204278 62.42543 
L 554.602139 63.121215 
L 555 65.643439 
L 555.397861 63.208189 
L 555.795722 65.121599 
L 556.193583 64.251867 
L 556.591444 63.990947 
L 556.989305 65.208573 
L 557.387166 65.382519 
L 557.785027 67.730796 
L 558.580749 62.686349 
L 558.97861 63.382135 
L 559.376471 62.947269 
L 559.774332 65.208573 
L 560.172193 65.730412 
L 560.570053 65.643439 
L 560.967914 63.556081 
L 561.365775 64.686733 
L 561.763636 64.077921 
L 562.161497 65.382519 
L 562.559358 65.643439 
L 562.957219 64.164894 
L 563.35508 65.121599 
L 564.150802 63.730028 
L 564.548663 64.947653 
L 564.946524 63.990947 
L 565.344385 64.947653 
L 565.742246 65.121599 
L 566.140107 63.730028 
L 566.537968 64.686733 
L 566.935829 64.512787 
L 567.33369 62.860296 
L 567.731551 63.382135 
L 568.129412 64.33884 
L 568.527273 64.251867 
L 568.925134 63.903974 
L 569.322995 64.33884 
L 569.720856 63.295162 
L 570.118717 66.339224 
L 570.516578 63.817001 
L 570.914439 62.686349 
L 571.312299 65.991331 
L 571.71016 62.860296 
L 572.108021 63.121215 
L 572.505882 64.33884 
L 572.903743 63.990947 
L 573.301604 65.904358 
L 573.699465 64.33884 
L 574.097326 66.078305 
L 574.495187 65.034626 
L 574.893048 65.904358 
L 575.290909 63.903974 
L 575.68877 64.33884 
L 576.086631 65.556465 
L 576.484492 64.251867 
L 576.882353 62.512403 
L 577.280214 66.948037 
L 577.678075 63.730028 
L 578.075936 64.425814 
L 578.473797 64.425814 
L 578.871658 65.643439 
L 579.269519 65.991331 
L 579.66738 64.251867 
L 580.065241 66.426198 
L 580.463102 63.382135 
L 581.258824 64.686733 
L 582.054545 64.251867 
L 582.452406 64.512787 
L 582.850267 65.730412 
L 583.248128 65.469492 
L 584.04385 64.59976 
L 584.441711 64.686733 
L 584.839572 65.034626 
L 585.635294 65.121599 
L 586.033155 64.512787 
L 586.431016 63.556081 
L 586.828877 64.251867 
L 587.226738 64.077921 
L 587.624599 63.730028 
L 588.02246 65.730412 
L 588.420321 64.251867 
L 588.818182 63.382135 
L 589.216043 64.59976 
L 589.613904 63.556081 
L 590.011765 65.034626 
L 590.409626 64.164894 
L 590.807487 62.947269 
L 591.205348 63.817001 
L 591.603209 63.903974 
L 592.00107 64.425814 
L 592.39893 65.730412 
L 592.796791 63.990947 
L 593.194652 64.947653 
L 593.592513 63.034242 
L 593.990374 66.165278 
L 594.786096 64.164894 
L 595.183957 62.42543 
L 595.581818 64.59976 
L 595.979679 64.425814 
L 596.37754 64.86068 
L 596.775401 64.164894 
L 597.173262 64.077921 
L 597.571123 65.034626 
L 597.968984 63.208189 
L 598.366845 63.121215 
L 598.764706 65.121599 
L 599.162567 65.991331 
L 599.560428 63.469108 
L 599.958289 64.512787 
L 600.35615 63.990947 
L 600.754011 64.164894 
L 601.151872 63.990947 
L 601.549733 63.295162 
L 601.947594 63.121215 
L 602.743316 64.947653 
L 603.141176 65.121599 
L 603.539037 64.164894 
L 603.936898 64.512787 
L 604.334759 63.556081 
L 604.73262 63.903974 
L 605.130481 65.034626 
L 605.528342 63.903974 
L 605.926203 65.382519 
L 606.324064 63.295162 
L 606.721925 66.687117 
L 607.517647 63.817001 
L 607.915508 64.947653 
L 608.313369 63.034242 
L 608.71123 63.382135 
L 609.109091 64.686733 
L 609.506952 64.164894 
L 609.904813 63.295162 
L 610.302674 63.903974 
L 610.700535 65.556465 
L 611.098396 63.295162 
L 611.496257 64.164894 
L 611.894118 63.382135 
L 612.291979 63.903974 
L 612.68984 66.165278 
L 613.087701 62.686349 
L 613.883422 65.382519 
L 614.281283 64.86068 
L 614.679144 65.817385 
L 615.077005 64.773706 
L 615.474866 64.077921 
L 615.872727 66.513171 
L 616.270588 64.512787 
L 616.668449 63.730028 
L 617.06631 67.03501 
L 618.259893 63.643055 
L 618.657754 63.034242 
L 619.055615 64.686733 
L 619.453476 65.469492 
L 619.851337 63.730028 
L 620.249198 64.59976 
L 620.647059 64.251867 
L 621.04492 62.860296 
L 621.442781 64.512787 
L 622.238503 64.251867 
L 622.636364 64.947653 
L 622.636364 64.947653 
" style="fill:none;stroke:#ff7f0e;stroke-linecap:square;stroke-width:0.5;"/>
   </g>
   <g id="patch_3">
    <path d="M 90 315 
L 90 43.2 
" style="fill:none;stroke:#000000;stroke-linecap:square;stroke-linejoin:miter;stroke-width:0.8;"/>
   </g>
   <g id="patch_4">
    <path d="M 648 315 
L 648 43.2 
" style="fill:none;stroke:#000000;stroke-linecap:square;stroke-linejoin:miter;stroke-width:0.8;"/>
   </g>
   <g id="patch_5">
    <path d="M 90 315 
L 648 315 
" style="fill:none;stroke:#000000;stroke-linecap:square;stroke-linejoin:miter;stroke-width:0.8;"/>
   </g>
   <g id="patch_6">
    <path d="M 90 43.2 
L 648 43.2 
" style="fill:none;stroke:#000000;stroke-linecap:square;stroke-linejoin:miter;stroke-width:0.8;"/>
   </g>
   <g id="text_18">
    <!-- accuracy -->
    <g transform="translate(341.92875 37.2)scale(0.12 -0.12)">
     <use xlink:href="#DejaVuSans-97"/>
     <use x="61.279297" xlink:href="#DejaVuSans-99"/>
     <use x="116.259766" xlink:href="#DejaVuSans-99"/>
     <use x="171.240234" xlink:href="#DejaVuSans-117"/>
     <use x="234.619141" xlink:href="#DejaVuSans-114"/>
     <use x="275.732422" xlink:href="#DejaVuSans-97"/>
     <use x="337.011719" xlink:href="#DejaVuSans-99"/>
     <use x="391.992188" xlink:href="#DejaVuSans-121"/>
    </g>
   </g>
   <g id="legend_1">
    <g id="patch_7">
     <path d="M 97 80.55625 
L 169.153125 80.55625 
Q 171.153125 80.55625 171.153125 78.55625 
L 171.153125 50.2 
Q 171.153125 48.2 169.153125 48.2 
L 97 48.2 
Q 95 48.2 95 50.2 
L 95 78.55625 
Q 95 80.55625 97 80.55625 
z
" style="fill:#ffffff;opacity:0.8;stroke:#cccccc;stroke-linejoin:miter;"/>
    </g>
    <g id="line2d_33">
     <path d="M 99 56.298437 
L 119 56.298437 
" style="fill:none;stroke:#1f77b4;stroke-linecap:square;stroke-width:0.5;"/>
    </g>
    <g id="line2d_34"/>
    <g id="text_19">
     <!-- train -->
     <defs>
      <path d="M 18.3125 70.21875 
L 18.3125 54.6875 
L 36.8125 54.6875 
L 36.8125 47.703125 
L 18.3125 47.703125 
L 18.3125 18.015625 
Q 18.3125 11.328125 20.140625 9.421875 
Q 21.96875 7.515625 27.59375 7.515625 
L 36.8125 7.515625 
L 36.8125 0 
L 27.59375 0 
Q 17.1875 0 13.234375 3.875 
Q 9.28125 7.765625 9.28125 18.015625 
L 9.28125 47.703125 
L 2.6875 47.703125 
L 2.6875 54.6875 
L 9.28125 54.6875 
L 9.28125 70.21875 
z
" id="DejaVuSans-116"/>
      <path d="M 9.421875 54.6875 
L 18.40625 54.6875 
L 18.40625 0 
L 9.421875 0 
z
M 9.421875 75.984375 
L 18.40625 75.984375 
L 18.40625 64.59375 
L 9.421875 64.59375 
z
" id="DejaVuSans-105"/>
      <path d="M 54.890625 33.015625 
L 54.890625 0 
L 45.90625 0 
L 45.90625 32.71875 
Q 45.90625 40.484375 42.875 44.328125 
Q 39.84375 48.1875 33.796875 48.1875 
Q 26.515625 48.1875 22.3125 43.546875 
Q 18.109375 38.921875 18.109375 30.90625 
L 18.109375 0 
L 9.078125 0 
L 9.078125 54.6875 
L 18.109375 54.6875 
L 18.109375 46.1875 
Q 21.34375 51.125 25.703125 53.5625 
Q 30.078125 56 35.796875 56 
Q 45.21875 56 50.046875 50.171875 
Q 54.890625 44.34375 54.890625 33.015625 
z
" id="DejaVuSans-110"/>
     </defs>
     <g transform="translate(127 59.798437)scale(0.1 -0.1)">
      <use xlink:href="#DejaVuSans-116"/>
      <use x="39.208984" xlink:href="#DejaVuSans-114"/>
      <use x="80.322266" xlink:href="#DejaVuSans-97"/>
      <use x="141.601562" xlink:href="#DejaVuSans-105"/>
      <use x="169.384766" xlink:href="#DejaVuSans-110"/>
     </g>
    </g>
    <g id="line2d_35">
     <path d="M 99 70.976562 
L 119 70.976562 
" style="fill:none;stroke:#ff7f0e;stroke-linecap:square;stroke-width:0.5;"/>
    </g>
    <g id="line2d_36"/>
    <g id="text_20">
     <!-- validate -->
     <defs>
      <path d="M 2.984375 54.6875 
L 12.5 54.6875 
L 29.59375 8.796875 
L 46.6875 54.6875 
L 56.203125 54.6875 
L 35.6875 0 
L 23.484375 0 
z
" id="DejaVuSans-118"/>
      <path d="M 9.421875 75.984375 
L 18.40625 75.984375 
L 18.40625 0 
L 9.421875 0 
z
" id="DejaVuSans-108"/>
      <path d="M 45.40625 46.390625 
L 45.40625 75.984375 
L 54.390625 75.984375 
L 54.390625 0 
L 45.40625 0 
L 45.40625 8.203125 
Q 42.578125 3.328125 38.25 0.953125 
Q 33.9375 -1.421875 27.875 -1.421875 
Q 17.96875 -1.421875 11.734375 6.484375 
Q 5.515625 14.40625 5.515625 27.296875 
Q 5.515625 40.1875 11.734375 48.09375 
Q 17.96875 56 27.875 56 
Q 33.9375 56 38.25 53.625 
Q 42.578125 51.265625 45.40625 46.390625 
z
M 14.796875 27.296875 
Q 14.796875 17.390625 18.875 11.75 
Q 22.953125 6.109375 30.078125 6.109375 
Q 37.203125 6.109375 41.296875 11.75 
Q 45.40625 17.390625 45.40625 27.296875 
Q 45.40625 37.203125 41.296875 42.84375 
Q 37.203125 48.484375 30.078125 48.484375 
Q 22.953125 48.484375 18.875 42.84375 
Q 14.796875 37.203125 14.796875 27.296875 
z
" id="DejaVuSans-100"/>
     </defs>
     <g transform="translate(127 74.476562)scale(0.1 -0.1)">
      <use xlink:href="#DejaVuSans-118"/>
      <use x="59.179688" xlink:href="#DejaVuSans-97"/>
      <use x="120.458984" xlink:href="#DejaVuSans-108"/>
      <use x="148.242188" xlink:href="#DejaVuSans-105"/>
      <use x="176.025391" xlink:href="#DejaVuSans-100"/>
      <use x="239.501953" xlink:href="#DejaVuSans-97"/>
      <use x="300.78125" xlink:href="#DejaVuSans-116"/>
      <use x="339.990234" xlink:href="#DejaVuSans-101"/>
     </g>
    </g>
   </g>
  </g>
 </g>
 <defs>
  <clipPath id="p188ea27d9c">
   <rect height="271.8" width="558" x="90" y="43.2"/>
  </clipPath>
 </defs>
</svg>
