<?xml version="1.0" encoding="utf-8" standalone="no"?>
<!DOCTYPE svg PUBLIC "-//W3C//DTD SVG 1.1//EN"
  "http://www.w3.org/Graphics/SVG/1.1/DTD/svg11.dtd">
<!-- Created with matplotlib (https://matplotlib.org/) -->
<svg height="360pt" version="1.1" viewBox="0 0 720 360" width="720pt" xmlns="http://www.w3.org/2000/svg" xmlns:xlink="http://www.w3.org/1999/xlink">
 <defs>
  <style type="text/css">
*{stroke-linecap:butt;stroke-linejoin:round;}
  </style>
 </defs>
 <g id="figure_1">
  <g id="patch_1">
   <path d="M 0 360 
L 720 360 
L 720 0 
L 0 0 
z
" style="fill:#ffffff;"/>
  </g>
  <g id="axes_1">
   <g id="patch_2">
    <path d="M 90 315 
L 648 315 
L 648 43.2 
L 90 43.2 
z
" style="fill:#ffffff;"/>
   </g>
   <g id="matplotlib.axis_1">
    <g id="xtick_1">
     <g id="line2d_1">
      <path clip-path="url(#p472ac0738e)" d="M 115.363636 315 
L 115.363636 43.2 
" style="fill:none;stroke:#b0b0b0;stroke-linecap:square;stroke-width:0.8;"/>
     </g>
     <g id="line2d_2">
      <defs>
       <path d="M 0 0 
L 0 3.5 
" id="m94c81d72a7" style="stroke:#000000;stroke-width:0.8;"/>
      </defs>
      <g>
       <use style="stroke:#000000;stroke-width:0.8;" x="115.363636" xlink:href="#m94c81d72a7" y="315"/>
      </g>
     </g>
     <g id="text_1">
      <!-- 0 -->
      <defs>
       <path d="M 31.78125 66.40625 
Q 24.171875 66.40625 20.328125 58.90625 
Q 16.5 51.421875 16.5 36.375 
Q 16.5 21.390625 20.328125 13.890625 
Q 24.171875 6.390625 31.78125 6.390625 
Q 39.453125 6.390625 43.28125 13.890625 
Q 47.125 21.390625 47.125 36.375 
Q 47.125 51.421875 43.28125 58.90625 
Q 39.453125 66.40625 31.78125 66.40625 
z
M 31.78125 74.21875 
Q 44.046875 74.21875 50.515625 64.515625 
Q 56.984375 54.828125 56.984375 36.375 
Q 56.984375 17.96875 50.515625 8.265625 
Q 44.046875 -1.421875 31.78125 -1.421875 
Q 19.53125 -1.421875 13.0625 8.265625 
Q 6.59375 17.96875 6.59375 36.375 
Q 6.59375 54.828125 13.0625 64.515625 
Q 19.53125 74.21875 31.78125 74.21875 
z
" id="DejaVuSans-48"/>
      </defs>
      <g transform="translate(112.182386 329.598437)scale(0.1 -0.1)">
       <use xlink:href="#DejaVuSans-48"/>
      </g>
     </g>
    </g>
    <g id="xtick_2">
     <g id="line2d_3">
      <path clip-path="url(#p472ac0738e)" d="M 209.652247 315 
L 209.652247 43.2 
" style="fill:none;stroke:#b0b0b0;stroke-linecap:square;stroke-width:0.8;"/>
     </g>
     <g id="line2d_4">
      <g>
       <use style="stroke:#000000;stroke-width:0.8;" x="209.652247" xlink:href="#m94c81d72a7" y="315"/>
      </g>
     </g>
     <g id="text_2">
      <!-- 100 -->
      <defs>
       <path d="M 12.40625 8.296875 
L 28.515625 8.296875 
L 28.515625 63.921875 
L 10.984375 60.40625 
L 10.984375 69.390625 
L 28.421875 72.90625 
L 38.28125 72.90625 
L 38.28125 8.296875 
L 54.390625 8.296875 
L 54.390625 0 
L 12.40625 0 
z
" id="DejaVuSans-49"/>
      </defs>
      <g transform="translate(200.108497 329.598437)scale(0.1 -0.1)">
       <use xlink:href="#DejaVuSans-49"/>
       <use x="63.623047" xlink:href="#DejaVuSans-48"/>
       <use x="127.246094" xlink:href="#DejaVuSans-48"/>
      </g>
     </g>
    </g>
    <g id="xtick_3">
     <g id="line2d_5">
      <path clip-path="url(#p472ac0738e)" d="M 303.940858 315 
L 303.940858 43.2 
" style="fill:none;stroke:#b0b0b0;stroke-linecap:square;stroke-width:0.8;"/>
     </g>
     <g id="line2d_6">
      <g>
       <use style="stroke:#000000;stroke-width:0.8;" x="303.940858" xlink:href="#m94c81d72a7" y="315"/>
      </g>
     </g>
     <g id="text_3">
      <!-- 200 -->
      <defs>
       <path d="M 19.1875 8.296875 
L 53.609375 8.296875 
L 53.609375 0 
L 7.328125 0 
L 7.328125 8.296875 
Q 12.9375 14.109375 22.625 23.890625 
Q 32.328125 33.6875 34.8125 36.53125 
Q 39.546875 41.84375 41.421875 45.53125 
Q 43.3125 49.21875 43.3125 52.78125 
Q 43.3125 58.59375 39.234375 62.25 
Q 35.15625 65.921875 28.609375 65.921875 
Q 23.96875 65.921875 18.8125 64.3125 
Q 13.671875 62.703125 7.8125 59.421875 
L 7.8125 69.390625 
Q 13.765625 71.78125 18.9375 73 
Q 24.125 74.21875 28.421875 74.21875 
Q 39.75 74.21875 46.484375 68.546875 
Q 53.21875 62.890625 53.21875 53.421875 
Q 53.21875 48.921875 51.53125 44.890625 
Q 49.859375 40.875 45.40625 35.40625 
Q 44.1875 33.984375 37.640625 27.21875 
Q 31.109375 20.453125 19.1875 8.296875 
z
" id="DejaVuSans-50"/>
      </defs>
      <g transform="translate(294.397108 329.598437)scale(0.1 -0.1)">
       <use xlink:href="#DejaVuSans-50"/>
       <use x="63.623047" xlink:href="#DejaVuSans-48"/>
       <use x="127.246094" xlink:href="#DejaVuSans-48"/>
      </g>
     </g>
    </g>
    <g id="xtick_4">
     <g id="line2d_7">
      <path clip-path="url(#p472ac0738e)" d="M 398.229469 315 
L 398.229469 43.2 
" style="fill:none;stroke:#b0b0b0;stroke-linecap:square;stroke-width:0.8;"/>
     </g>
     <g id="line2d_8">
      <g>
       <use style="stroke:#000000;stroke-width:0.8;" x="398.229469" xlink:href="#m94c81d72a7" y="315"/>
      </g>
     </g>
     <g id="text_4">
      <!-- 300 -->
      <defs>
       <path d="M 40.578125 39.3125 
Q 47.65625 37.796875 51.625 33 
Q 55.609375 28.21875 55.609375 21.1875 
Q 55.609375 10.40625 48.1875 4.484375 
Q 40.765625 -1.421875 27.09375 -1.421875 
Q 22.515625 -1.421875 17.65625 -0.515625 
Q 12.796875 0.390625 7.625 2.203125 
L 7.625 11.71875 
Q 11.71875 9.328125 16.59375 8.109375 
Q 21.484375 6.890625 26.8125 6.890625 
Q 36.078125 6.890625 40.9375 10.546875 
Q 45.796875 14.203125 45.796875 21.1875 
Q 45.796875 27.640625 41.28125 31.265625 
Q 36.765625 34.90625 28.71875 34.90625 
L 20.21875 34.90625 
L 20.21875 43.015625 
L 29.109375 43.015625 
Q 36.375 43.015625 40.234375 45.921875 
Q 44.09375 48.828125 44.09375 54.296875 
Q 44.09375 59.90625 40.109375 62.90625 
Q 36.140625 65.921875 28.71875 65.921875 
Q 24.65625 65.921875 20.015625 65.03125 
Q 15.375 64.15625 9.8125 62.3125 
L 9.8125 71.09375 
Q 15.4375 72.65625 20.34375 73.4375 
Q 25.25 74.21875 29.59375 74.21875 
Q 40.828125 74.21875 47.359375 69.109375 
Q 53.90625 64.015625 53.90625 55.328125 
Q 53.90625 49.265625 50.4375 45.09375 
Q 46.96875 40.921875 40.578125 39.3125 
z
" id="DejaVuSans-51"/>
      </defs>
      <g transform="translate(388.685719 329.598437)scale(0.1 -0.1)">
       <use xlink:href="#DejaVuSans-51"/>
       <use x="63.623047" xlink:href="#DejaVuSans-48"/>
       <use x="127.246094" xlink:href="#DejaVuSans-48"/>
      </g>
     </g>
    </g>
    <g id="xtick_5">
     <g id="line2d_9">
      <path clip-path="url(#p472ac0738e)" d="M 492.51808 315 
L 492.51808 43.2 
" style="fill:none;stroke:#b0b0b0;stroke-linecap:square;stroke-width:0.8;"/>
     </g>
     <g id="line2d_10">
      <g>
       <use style="stroke:#000000;stroke-width:0.8;" x="492.51808" xlink:href="#m94c81d72a7" y="315"/>
      </g>
     </g>
     <g id="text_5">
      <!-- 400 -->
      <defs>
       <path d="M 37.796875 64.3125 
L 12.890625 25.390625 
L 37.796875 25.390625 
z
M 35.203125 72.90625 
L 47.609375 72.90625 
L 47.609375 25.390625 
L 58.015625 25.390625 
L 58.015625 17.1875 
L 47.609375 17.1875 
L 47.609375 0 
L 37.796875 0 
L 37.796875 17.1875 
L 4.890625 17.1875 
L 4.890625 26.703125 
z
" id="DejaVuSans-52"/>
      </defs>
      <g transform="translate(482.97433 329.598437)scale(0.1 -0.1)">
       <use xlink:href="#DejaVuSans-52"/>
       <use x="63.623047" xlink:href="#DejaVuSans-48"/>
       <use x="127.246094" xlink:href="#DejaVuSans-48"/>
      </g>
     </g>
    </g>
    <g id="xtick_6">
     <g id="line2d_11">
      <path clip-path="url(#p472ac0738e)" d="M 586.806691 315 
L 586.806691 43.2 
" style="fill:none;stroke:#b0b0b0;stroke-linecap:square;stroke-width:0.8;"/>
     </g>
     <g id="line2d_12">
      <g>
       <use style="stroke:#000000;stroke-width:0.8;" x="586.806691" xlink:href="#m94c81d72a7" y="315"/>
      </g>
     </g>
     <g id="text_6">
      <!-- 500 -->
      <defs>
       <path d="M 10.796875 72.90625 
L 49.515625 72.90625 
L 49.515625 64.59375 
L 19.828125 64.59375 
L 19.828125 46.734375 
Q 21.96875 47.46875 24.109375 47.828125 
Q 26.265625 48.1875 28.421875 48.1875 
Q 40.625 48.1875 47.75 41.5 
Q 54.890625 34.8125 54.890625 23.390625 
Q 54.890625 11.625 47.5625 5.09375 
Q 40.234375 -1.421875 26.90625 -1.421875 
Q 22.3125 -1.421875 17.546875 -0.640625 
Q 12.796875 0.140625 7.71875 1.703125 
L 7.71875 11.625 
Q 12.109375 9.234375 16.796875 8.0625 
Q 21.484375 6.890625 26.703125 6.890625 
Q 35.15625 6.890625 40.078125 11.328125 
Q 45.015625 15.765625 45.015625 23.390625 
Q 45.015625 31 40.078125 35.4375 
Q 35.15625 39.890625 26.703125 39.890625 
Q 22.75 39.890625 18.8125 39.015625 
Q 14.890625 38.140625 10.796875 36.28125 
z
" id="DejaVuSans-53"/>
      </defs>
      <g transform="translate(577.262941 329.598437)scale(0.1 -0.1)">
       <use xlink:href="#DejaVuSans-53"/>
       <use x="63.623047" xlink:href="#DejaVuSans-48"/>
       <use x="127.246094" xlink:href="#DejaVuSans-48"/>
      </g>
     </g>
    </g>
    <g id="text_7">
     <!-- epoch -->
     <defs>
      <path d="M 56.203125 29.59375 
L 56.203125 25.203125 
L 14.890625 25.203125 
Q 15.484375 15.921875 20.484375 11.0625 
Q 25.484375 6.203125 34.421875 6.203125 
Q 39.59375 6.203125 44.453125 7.46875 
Q 49.3125 8.734375 54.109375 11.28125 
L 54.109375 2.78125 
Q 49.265625 0.734375 44.1875 -0.34375 
Q 39.109375 -1.421875 33.890625 -1.421875 
Q 20.796875 -1.421875 13.15625 6.1875 
Q 5.515625 13.8125 5.515625 26.8125 
Q 5.515625 40.234375 12.765625 48.109375 
Q 20.015625 56 32.328125 56 
Q 43.359375 56 49.78125 48.890625 
Q 56.203125 41.796875 56.203125 29.59375 
z
M 47.21875 32.234375 
Q 47.125 39.59375 43.09375 43.984375 
Q 39.0625 48.390625 32.421875 48.390625 
Q 24.90625 48.390625 20.390625 44.140625 
Q 15.875 39.890625 15.1875 32.171875 
z
" id="DejaVuSans-101"/>
      <path d="M 18.109375 8.203125 
L 18.109375 -20.796875 
L 9.078125 -20.796875 
L 9.078125 54.6875 
L 18.109375 54.6875 
L 18.109375 46.390625 
Q 20.953125 51.265625 25.265625 53.625 
Q 29.59375 56 35.59375 56 
Q 45.5625 56 51.78125 48.09375 
Q 58.015625 40.1875 58.015625 27.296875 
Q 58.015625 14.40625 51.78125 6.484375 
Q 45.5625 -1.421875 35.59375 -1.421875 
Q 29.59375 -1.421875 25.265625 0.953125 
Q 20.953125 3.328125 18.109375 8.203125 
z
M 48.6875 27.296875 
Q 48.6875 37.203125 44.609375 42.84375 
Q 40.53125 48.484375 33.40625 48.484375 
Q 26.265625 48.484375 22.1875 42.84375 
Q 18.109375 37.203125 18.109375 27.296875 
Q 18.109375 17.390625 22.1875 11.75 
Q 26.265625 6.109375 33.40625 6.109375 
Q 40.53125 6.109375 44.609375 11.75 
Q 48.6875 17.390625 48.6875 27.296875 
z
" id="DejaVuSans-112"/>
      <path d="M 30.609375 48.390625 
Q 23.390625 48.390625 19.1875 42.75 
Q 14.984375 37.109375 14.984375 27.296875 
Q 14.984375 17.484375 19.15625 11.84375 
Q 23.34375 6.203125 30.609375 6.203125 
Q 37.796875 6.203125 41.984375 11.859375 
Q 46.1875 17.53125 46.1875 27.296875 
Q 46.1875 37.015625 41.984375 42.703125 
Q 37.796875 48.390625 30.609375 48.390625 
z
M 30.609375 56 
Q 42.328125 56 49.015625 48.375 
Q 55.71875 40.765625 55.71875 27.296875 
Q 55.71875 13.875 49.015625 6.21875 
Q 42.328125 -1.421875 30.609375 -1.421875 
Q 18.84375 -1.421875 12.171875 6.21875 
Q 5.515625 13.875 5.515625 27.296875 
Q 5.515625 40.765625 12.171875 48.375 
Q 18.84375 56 30.609375 56 
z
" id="DejaVuSans-111"/>
      <path d="M 48.78125 52.59375 
L 48.78125 44.1875 
Q 44.96875 46.296875 41.140625 47.34375 
Q 37.3125 48.390625 33.40625 48.390625 
Q 24.65625 48.390625 19.8125 42.84375 
Q 14.984375 37.3125 14.984375 27.296875 
Q 14.984375 17.28125 19.8125 11.734375 
Q 24.65625 6.203125 33.40625 6.203125 
Q 37.3125 6.203125 41.140625 7.25 
Q 44.96875 8.296875 48.78125 10.40625 
L 48.78125 2.09375 
Q 45.015625 0.34375 40.984375 -0.53125 
Q 36.96875 -1.421875 32.421875 -1.421875 
Q 20.0625 -1.421875 12.78125 6.34375 
Q 5.515625 14.109375 5.515625 27.296875 
Q 5.515625 40.671875 12.859375 48.328125 
Q 20.21875 56 33.015625 56 
Q 37.15625 56 41.109375 55.140625 
Q 45.0625 54.296875 48.78125 52.59375 
z
" id="DejaVuSans-99"/>
      <path d="M 54.890625 33.015625 
L 54.890625 0 
L 45.90625 0 
L 45.90625 32.71875 
Q 45.90625 40.484375 42.875 44.328125 
Q 39.84375 48.1875 33.796875 48.1875 
Q 26.515625 48.1875 22.3125 43.546875 
Q 18.109375 38.921875 18.109375 30.90625 
L 18.109375 0 
L 9.078125 0 
L 9.078125 75.984375 
L 18.109375 75.984375 
L 18.109375 46.1875 
Q 21.34375 51.125 25.703125 53.5625 
Q 30.078125 56 35.796875 56 
Q 45.21875 56 50.046875 50.171875 
Q 54.890625 44.34375 54.890625 33.015625 
z
" id="DejaVuSans-104"/>
     </defs>
     <g transform="translate(353.771875 343.276563)scale(0.1 -0.1)">
      <use xlink:href="#DejaVuSans-101"/>
      <use x="61.523438" xlink:href="#DejaVuSans-112"/>
      <use x="125" xlink:href="#DejaVuSans-111"/>
      <use x="186.181641" xlink:href="#DejaVuSans-99"/>
      <use x="241.162109" xlink:href="#DejaVuSans-104"/>
     </g>
    </g>
   </g>
   <g id="matplotlib.axis_2">
    <g id="ytick_1">
     <g id="line2d_13">
      <path clip-path="url(#p472ac0738e)" d="M 90 284.298107 
L 648 284.298107 
" style="fill:none;stroke:#b0b0b0;stroke-linecap:square;stroke-width:0.8;"/>
     </g>
     <g id="line2d_14">
      <defs>
       <path d="M 0 0 
L -3.5 0 
" id="mb93a788e90" style="stroke:#000000;stroke-width:0.8;"/>
      </defs>
      <g>
       <use style="stroke:#000000;stroke-width:0.8;" x="90" xlink:href="#mb93a788e90" y="284.298107"/>
      </g>
     </g>
     <g id="text_8">
      <!-- 0.3 -->
      <defs>
       <path d="M 10.6875 12.40625 
L 21 12.40625 
L 21 0 
L 10.6875 0 
z
" id="DejaVuSans-46"/>
      </defs>
      <g transform="translate(67.096875 288.097326)scale(0.1 -0.1)">
       <use xlink:href="#DejaVuSans-48"/>
       <use x="63.623047" xlink:href="#DejaVuSans-46"/>
       <use x="95.410156" xlink:href="#DejaVuSans-51"/>
      </g>
     </g>
    </g>
    <g id="ytick_2">
     <g id="line2d_15">
      <path clip-path="url(#p472ac0738e)" d="M 90 244.412569 
L 648 244.412569 
" style="fill:none;stroke:#b0b0b0;stroke-linecap:square;stroke-width:0.8;"/>
     </g>
     <g id="line2d_16">
      <g>
       <use style="stroke:#000000;stroke-width:0.8;" x="90" xlink:href="#mb93a788e90" y="244.412569"/>
      </g>
     </g>
     <g id="text_9">
      <!-- 0.4 -->
      <g transform="translate(67.096875 248.211788)scale(0.1 -0.1)">
       <use xlink:href="#DejaVuSans-48"/>
       <use x="63.623047" xlink:href="#DejaVuSans-46"/>
       <use x="95.410156" xlink:href="#DejaVuSans-52"/>
      </g>
     </g>
    </g>
    <g id="ytick_3">
     <g id="line2d_17">
      <path clip-path="url(#p472ac0738e)" d="M 90 204.527031 
L 648 204.527031 
" style="fill:none;stroke:#b0b0b0;stroke-linecap:square;stroke-width:0.8;"/>
     </g>
     <g id="line2d_18">
      <g>
       <use style="stroke:#000000;stroke-width:0.8;" x="90" xlink:href="#mb93a788e90" y="204.527031"/>
      </g>
     </g>
     <g id="text_10">
      <!-- 0.5 -->
      <g transform="translate(67.096875 208.326249)scale(0.1 -0.1)">
       <use xlink:href="#DejaVuSans-48"/>
       <use x="63.623047" xlink:href="#DejaVuSans-46"/>
       <use x="95.410156" xlink:href="#DejaVuSans-53"/>
      </g>
     </g>
    </g>
    <g id="ytick_4">
     <g id="line2d_19">
      <path clip-path="url(#p472ac0738e)" d="M 90 164.641492 
L 648 164.641492 
" style="fill:none;stroke:#b0b0b0;stroke-linecap:square;stroke-width:0.8;"/>
     </g>
     <g id="line2d_20">
      <g>
       <use style="stroke:#000000;stroke-width:0.8;" x="90" xlink:href="#mb93a788e90" y="164.641492"/>
      </g>
     </g>
     <g id="text_11">
      <!-- 0.6 -->
      <defs>
       <path d="M 33.015625 40.375 
Q 26.375 40.375 22.484375 35.828125 
Q 18.609375 31.296875 18.609375 23.390625 
Q 18.609375 15.53125 22.484375 10.953125 
Q 26.375 6.390625 33.015625 6.390625 
Q 39.65625 6.390625 43.53125 10.953125 
Q 47.40625 15.53125 47.40625 23.390625 
Q 47.40625 31.296875 43.53125 35.828125 
Q 39.65625 40.375 33.015625 40.375 
z
M 52.59375 71.296875 
L 52.59375 62.3125 
Q 48.875 64.0625 45.09375 64.984375 
Q 41.3125 65.921875 37.59375 65.921875 
Q 27.828125 65.921875 22.671875 59.328125 
Q 17.53125 52.734375 16.796875 39.40625 
Q 19.671875 43.65625 24.015625 45.921875 
Q 28.375 48.1875 33.59375 48.1875 
Q 44.578125 48.1875 50.953125 41.515625 
Q 57.328125 34.859375 57.328125 23.390625 
Q 57.328125 12.15625 50.6875 5.359375 
Q 44.046875 -1.421875 33.015625 -1.421875 
Q 20.359375 -1.421875 13.671875 8.265625 
Q 6.984375 17.96875 6.984375 36.375 
Q 6.984375 53.65625 15.1875 63.9375 
Q 23.390625 74.21875 37.203125 74.21875 
Q 40.921875 74.21875 44.703125 73.484375 
Q 48.484375 72.75 52.59375 71.296875 
z
" id="DejaVuSans-54"/>
      </defs>
      <g transform="translate(67.096875 168.440711)scale(0.1 -0.1)">
       <use xlink:href="#DejaVuSans-48"/>
       <use x="63.623047" xlink:href="#DejaVuSans-46"/>
       <use x="95.410156" xlink:href="#DejaVuSans-54"/>
      </g>
     </g>
    </g>
    <g id="ytick_5">
     <g id="line2d_21">
      <path clip-path="url(#p472ac0738e)" d="M 90 124.755954 
L 648 124.755954 
" style="fill:none;stroke:#b0b0b0;stroke-linecap:square;stroke-width:0.8;"/>
     </g>
     <g id="line2d_22">
      <g>
       <use style="stroke:#000000;stroke-width:0.8;" x="90" xlink:href="#mb93a788e90" y="124.755954"/>
      </g>
     </g>
     <g id="text_12">
      <!-- 0.7 -->
      <defs>
       <path d="M 8.203125 72.90625 
L 55.078125 72.90625 
L 55.078125 68.703125 
L 28.609375 0 
L 18.3125 0 
L 43.21875 64.59375 
L 8.203125 64.59375 
z
" id="DejaVuSans-55"/>
      </defs>
      <g transform="translate(67.096875 128.555173)scale(0.1 -0.1)">
       <use xlink:href="#DejaVuSans-48"/>
       <use x="63.623047" xlink:href="#DejaVuSans-46"/>
       <use x="95.410156" xlink:href="#DejaVuSans-55"/>
      </g>
     </g>
    </g>
    <g id="ytick_6">
     <g id="line2d_23">
      <path clip-path="url(#p472ac0738e)" d="M 90 84.870416 
L 648 84.870416 
" style="fill:none;stroke:#b0b0b0;stroke-linecap:square;stroke-width:0.8;"/>
     </g>
     <g id="line2d_24">
      <g>
       <use style="stroke:#000000;stroke-width:0.8;" x="90" xlink:href="#mb93a788e90" y="84.870416"/>
      </g>
     </g>
     <g id="text_13">
      <!-- 0.8 -->
      <defs>
       <path d="M 31.78125 34.625 
Q 24.75 34.625 20.71875 30.859375 
Q 16.703125 27.09375 16.703125 20.515625 
Q 16.703125 13.921875 20.71875 10.15625 
Q 24.75 6.390625 31.78125 6.390625 
Q 38.8125 6.390625 42.859375 10.171875 
Q 46.921875 13.96875 46.921875 20.515625 
Q 46.921875 27.09375 42.890625 30.859375 
Q 38.875 34.625 31.78125 34.625 
z
M 21.921875 38.8125 
Q 15.578125 40.375 12.03125 44.71875 
Q 8.5 49.078125 8.5 55.328125 
Q 8.5 64.0625 14.71875 69.140625 
Q 20.953125 74.21875 31.78125 74.21875 
Q 42.671875 74.21875 48.875 69.140625 
Q 55.078125 64.0625 55.078125 55.328125 
Q 55.078125 49.078125 51.53125 44.71875 
Q 48 40.375 41.703125 38.8125 
Q 48.828125 37.15625 52.796875 32.3125 
Q 56.78125 27.484375 56.78125 20.515625 
Q 56.78125 9.90625 50.3125 4.234375 
Q 43.84375 -1.421875 31.78125 -1.421875 
Q 19.734375 -1.421875 13.25 4.234375 
Q 6.78125 9.90625 6.78125 20.515625 
Q 6.78125 27.484375 10.78125 32.3125 
Q 14.796875 37.15625 21.921875 38.8125 
z
M 18.3125 54.390625 
Q 18.3125 48.734375 21.84375 45.5625 
Q 25.390625 42.390625 31.78125 42.390625 
Q 38.140625 42.390625 41.71875 45.5625 
Q 45.3125 48.734375 45.3125 54.390625 
Q 45.3125 60.0625 41.71875 63.234375 
Q 38.140625 66.40625 31.78125 66.40625 
Q 25.390625 66.40625 21.84375 63.234375 
Q 18.3125 60.0625 18.3125 54.390625 
z
" id="DejaVuSans-56"/>
      </defs>
      <g transform="translate(67.096875 88.669635)scale(0.1 -0.1)">
       <use xlink:href="#DejaVuSans-48"/>
       <use x="63.623047" xlink:href="#DejaVuSans-46"/>
       <use x="95.410156" xlink:href="#DejaVuSans-56"/>
      </g>
     </g>
    </g>
    <g id="ytick_7">
     <g id="line2d_25">
      <path clip-path="url(#p472ac0738e)" d="M 90 44.984878 
L 648 44.984878 
" style="fill:none;stroke:#b0b0b0;stroke-linecap:square;stroke-width:0.8;"/>
     </g>
     <g id="line2d_26">
      <g>
       <use style="stroke:#000000;stroke-width:0.8;" x="90" xlink:href="#mb93a788e90" y="44.984878"/>
      </g>
     </g>
     <g id="text_14">
      <!-- 0.9 -->
      <defs>
       <path d="M 10.984375 1.515625 
L 10.984375 10.5 
Q 14.703125 8.734375 18.5 7.8125 
Q 22.3125 6.890625 25.984375 6.890625 
Q 35.75 6.890625 40.890625 13.453125 
Q 46.046875 20.015625 46.78125 33.40625 
Q 43.953125 29.203125 39.59375 26.953125 
Q 35.25 24.703125 29.984375 24.703125 
Q 19.046875 24.703125 12.671875 31.3125 
Q 6.296875 37.9375 6.296875 49.421875 
Q 6.296875 60.640625 12.9375 67.421875 
Q 19.578125 74.21875 30.609375 74.21875 
Q 43.265625 74.21875 49.921875 64.515625 
Q 56.59375 54.828125 56.59375 36.375 
Q 56.59375 19.140625 48.40625 8.859375 
Q 40.234375 -1.421875 26.421875 -1.421875 
Q 22.703125 -1.421875 18.890625 -0.6875 
Q 15.09375 0.046875 10.984375 1.515625 
z
M 30.609375 32.421875 
Q 37.25 32.421875 41.125 36.953125 
Q 45.015625 41.5 45.015625 49.421875 
Q 45.015625 57.28125 41.125 61.84375 
Q 37.25 66.40625 30.609375 66.40625 
Q 23.96875 66.40625 20.09375 61.84375 
Q 16.21875 57.28125 16.21875 49.421875 
Q 16.21875 41.5 20.09375 36.953125 
Q 23.96875 32.421875 30.609375 32.421875 
z
" id="DejaVuSans-57"/>
      </defs>
      <g transform="translate(67.096875 48.784097)scale(0.1 -0.1)">
       <use xlink:href="#DejaVuSans-48"/>
       <use x="63.623047" xlink:href="#DejaVuSans-46"/>
       <use x="95.410156" xlink:href="#DejaVuSans-57"/>
      </g>
     </g>
    </g>
    <g id="text_15">
     <!-- accuracy -->
     <defs>
      <path d="M 34.28125 27.484375 
Q 23.390625 27.484375 19.1875 25 
Q 14.984375 22.515625 14.984375 16.5 
Q 14.984375 11.71875 18.140625 8.90625 
Q 21.296875 6.109375 26.703125 6.109375 
Q 34.1875 6.109375 38.703125 11.40625 
Q 43.21875 16.703125 43.21875 25.484375 
L 43.21875 27.484375 
z
M 52.203125 31.203125 
L 52.203125 0 
L 43.21875 0 
L 43.21875 8.296875 
Q 40.140625 3.328125 35.546875 0.953125 
Q 30.953125 -1.421875 24.3125 -1.421875 
Q 15.921875 -1.421875 10.953125 3.296875 
Q 6 8.015625 6 15.921875 
Q 6 25.140625 12.171875 29.828125 
Q 18.359375 34.515625 30.609375 34.515625 
L 43.21875 34.515625 
L 43.21875 35.40625 
Q 43.21875 41.609375 39.140625 45 
Q 35.0625 48.390625 27.6875 48.390625 
Q 23 48.390625 18.546875 47.265625 
Q 14.109375 46.140625 10.015625 43.890625 
L 10.015625 52.203125 
Q 14.9375 54.109375 19.578125 55.046875 
Q 24.21875 56 28.609375 56 
Q 40.484375 56 46.34375 49.84375 
Q 52.203125 43.703125 52.203125 31.203125 
z
" id="DejaVuSans-97"/>
      <path d="M 8.5 21.578125 
L 8.5 54.6875 
L 17.484375 54.6875 
L 17.484375 21.921875 
Q 17.484375 14.15625 20.5 10.265625 
Q 23.53125 6.390625 29.59375 6.390625 
Q 36.859375 6.390625 41.078125 11.03125 
Q 45.3125 15.671875 45.3125 23.6875 
L 45.3125 54.6875 
L 54.296875 54.6875 
L 54.296875 0 
L 45.3125 0 
L 45.3125 8.40625 
Q 42.046875 3.421875 37.71875 1 
Q 33.40625 -1.421875 27.6875 -1.421875 
Q 18.265625 -1.421875 13.375 4.4375 
Q 8.5 10.296875 8.5 21.578125 
z
M 31.109375 56 
z
" id="DejaVuSans-117"/>
      <path d="M 41.109375 46.296875 
Q 39.59375 47.171875 37.8125 47.578125 
Q 36.03125 48 33.890625 48 
Q 26.265625 48 22.1875 43.046875 
Q 18.109375 38.09375 18.109375 28.8125 
L 18.109375 0 
L 9.078125 0 
L 9.078125 54.6875 
L 18.109375 54.6875 
L 18.109375 46.1875 
Q 20.953125 51.171875 25.484375 53.578125 
Q 30.03125 56 36.53125 56 
Q 37.453125 56 38.578125 55.875 
Q 39.703125 55.765625 41.0625 55.515625 
z
" id="DejaVuSans-114"/>
      <path d="M 32.171875 -5.078125 
Q 28.375 -14.84375 24.75 -17.8125 
Q 21.140625 -20.796875 15.09375 -20.796875 
L 7.90625 -20.796875 
L 7.90625 -13.28125 
L 13.1875 -13.28125 
Q 16.890625 -13.28125 18.9375 -11.515625 
Q 21 -9.765625 23.484375 -3.21875 
L 25.09375 0.875 
L 2.984375 54.6875 
L 12.5 54.6875 
L 29.59375 11.921875 
L 46.6875 54.6875 
L 56.203125 54.6875 
z
" id="DejaVuSans-121"/>
     </defs>
     <g transform="translate(61.017187 201.659375)rotate(-90)scale(0.1 -0.1)">
      <use xlink:href="#DejaVuSans-97"/>
      <use x="61.279297" xlink:href="#DejaVuSans-99"/>
      <use x="116.259766" xlink:href="#DejaVuSans-99"/>
      <use x="171.240234" xlink:href="#DejaVuSans-117"/>
      <use x="234.619141" xlink:href="#DejaVuSans-114"/>
      <use x="275.732422" xlink:href="#DejaVuSans-97"/>
      <use x="337.011719" xlink:href="#DejaVuSans-99"/>
      <use x="391.992188" xlink:href="#DejaVuSans-121"/>
     </g>
    </g>
   </g>
   <g id="line2d_27">
    <path clip-path="url(#p472ac0738e)" d="M 115.363636 302.146885 
L 116.306522 300.052895 
L 117.249409 296.363482 
L 118.192295 291.078648 
L 119.135181 287.588664 
L 120.078067 280.808122 
L 121.020953 276.819569 
L 121.963839 269.739886 
L 122.906725 267.945036 
L 123.849611 262.85963 
L 124.792497 262.85963 
L 125.735384 253.685956 
L 126.67827 255.381092 
L 127.621156 252.289963 
L 128.564042 248.60055 
L 129.506928 242.518006 
L 130.449814 241.421153 
L 131.3927 241.122012 
L 132.335586 234.939753 
L 133.278472 235.338609 
L 134.221359 228.657781 
L 135.164245 233.444046 
L 136.107131 220.281818 
L 137.050017 222.67495 
L 137.992903 217.589544 
L 138.935789 218.885824 
L 139.878675 217.589544 
L 140.821561 209.811864 
L 141.764447 208.415871 
L 142.707334 210.21072 
L 143.65022 203.131037 
L 144.593106 200.538477 
L 145.535992 197.347634 
L 146.478878 200.438763 
L 147.421764 194.854788 
L 148.36465 190.068523 
L 149.307536 188.074246 
L 150.250422 190.76652 
L 151.193309 184.484548 
L 152.136195 186.87768 
L 153.079081 179.997425 
L 154.021967 182.390557 
L 154.964853 177.504578 
L 155.907739 171.122892 
L 156.850625 175.310874 
L 157.793511 176.308012 
L 158.736397 169.128615 
L 159.679284 170.624323 
L 160.62217 163.444926 
L 161.565056 164.242637 
L 162.507942 165.339489 
L 163.450828 164.541779 
L 164.393714 159.6558 
L 165.3366 158.35952 
L 166.279486 151.87812 
L 167.222372 153.972111 
L 168.165259 149.883843 
L 169.108145 149.684416 
L 170.051031 150.880982 
L 170.993917 149.086133 
L 171.936803 150.282699 
L 172.879689 148.986419 
L 173.822575 149.983557 
L 174.765461 147.291283 
L 175.708347 145.39672 
L 176.651234 140.012173 
L 177.59412 144.997865 
L 178.537006 140.012173 
L 179.479892 142.80416 
L 180.422778 139.812745 
L 181.365664 139.912459 
L 182.30855 140.710169 
L 183.251436 142.704446 
L 184.194322 139.214462 
L 185.137209 135.126194 
L 186.080095 134.827053 
L 187.022981 132.733062 
L 187.965867 134.029342 
L 188.908753 130.140502 
L 189.851639 133.829914 
L 190.794525 129.84136 
L 191.737411 134.129056 
L 192.680297 131.835637 
L 193.623184 129.04365 
L 194.56607 133.231631 
L 195.508956 130.938213 
L 196.451842 124.357099 
L 197.394728 126.052234 
L 198.337614 128.245939 
L 199.2805 127.847083 
L 200.223386 125.15481 
L 201.166272 128.844222 
L 202.109158 124.755954 
L 203.052045 123.85853 
L 203.994931 124.057957 
L 204.937817 121.963967 
L 205.880703 122.761677 
L 206.823589 122.462536 
L 207.766475 123.758816 
L 208.709361 124.157671 
L 209.652247 122.362822 
L 210.595133 119.072265 
L 211.53802 124.357099 
L 212.480906 121.066542 
L 213.423792 121.764539 
L 214.366678 116.778847 
L 215.309564 114.585142 
L 216.25245 117.476843 
L 217.195336 115.58228 
L 218.138222 116.08085 
L 219.081108 117.576557 
L 220.023995 114.884284 
L 220.966881 114.884284 
L 221.909767 114.585142 
L 222.852653 113.089434 
L 223.795539 111.294585 
L 224.738425 116.778847 
L 225.681311 113.687717 
L 226.624197 112.98972 
L 228.50997 110.796016 
L 229.452856 111.294585 
L 230.395742 110.796016 
L 231.338628 105.71061 
L 233.2244 113.388576 
L 234.167286 105.411468 
L 235.110172 108.801739 
L 236.053058 107.704887 
L 236.995945 117.576557 
L 237.938831 109.400022 
L 238.881717 108.901453 
L 239.824603 104.813185 
L 240.767489 104.214902 
L 241.710375 108.402884 
L 242.653261 106.907176 
L 243.596147 109.898591 
L 244.539033 108.103742 
L 245.48192 107.605173 
L 246.424806 107.904314 
L 247.367692 106.408607 
L 248.310578 103.616619 
L 249.253464 105.411468 
L 250.19635 105.910037 
L 251.139236 102.619481 
L 252.082122 102.519767 
L 253.967895 101.722056 
L 254.910781 99.727779 
L 255.853667 103.317477 
L 256.796553 96.536936 
L 257.739439 100.226348 
L 258.682325 97.733502 
L 259.625211 104.015474 
L 260.568097 104.514044 
L 261.510983 103.616619 
L 262.45387 103.11805 
L 264.339642 97.135219 
L 266.225414 101.223487 
L 267.1683 100.625204 
L 268.111186 98.132357 
L 269.054072 99.22921 
L 269.996958 103.217764 
L 270.939845 95.34037 
L 271.882731 95.838939 
L 272.825617 99.029782 
L 273.768503 98.830354 
L 274.711389 99.827493 
L 275.654275 95.539797 
L 276.597161 96.337508 
L 277.540047 99.927207 
L 278.482933 94.642373 
L 279.42582 94.742087 
L 280.368706 94.442945 
L 281.311592 94.442945 
L 282.254478 97.234933 
L 283.197364 99.528351 
L 284.14025 91.850385 
L 286.026022 93.944376 
L 286.968908 98.930068 
L 287.911795 91.252102 
L 288.854681 93.046951 
L 289.797567 92.049813 
L 290.740453 92.149527 
L 291.683339 95.440084 
L 292.626225 96.337508 
L 293.569111 93.744948 
L 295.454883 90.653819 
L 296.39777 95.041228 
L 297.340656 91.152388 
L 298.283542 91.351816 
L 299.226428 92.149527 
L 300.169314 94.143804 
L 301.1122 91.152388 
L 302.055086 91.950099 
L 302.997972 90.15525 
L 303.940858 90.952961 
L 304.883745 95.539797 
L 305.826631 90.055536 
L 306.769517 90.853247 
L 307.712403 90.853247 
L 308.655289 89.158111 
L 309.598175 90.15525 
L 311.483947 87.263548 
L 312.426833 89.357539 
L 313.369719 87.064121 
L 314.312606 91.252102 
L 315.255492 85.668127 
L 316.198378 86.166696 
L 317.141264 90.753533 
L 318.08415 89.556967 
L 319.027036 86.565551 
L 319.969922 86.565551 
L 320.912808 88.659542 
L 321.855694 93.046951 
L 322.798581 83.873278 
L 323.741467 84.072705 
L 324.684353 83.972991 
L 325.627239 84.371847 
L 326.570125 85.468699 
L 327.513011 87.861831 
L 328.455897 87.263548 
L 329.398783 85.867554 
L 330.341669 88.659542 
L 331.284556 89.158111 
L 332.227442 85.767841 
L 333.170328 87.064121 
L 334.113214 85.568413 
L 335.0561 86.864693 
L 335.998986 85.867554 
L 336.941872 86.465838 
L 337.884758 83.175281 
L 338.827644 83.574136 
L 339.770531 89.357539 
L 341.656303 84.770702 
L 342.599189 84.97013 
L 343.542075 82.876139 
L 344.484961 82.477284 
L 345.427847 82.975853 
L 346.370733 81.978715 
L 347.313619 82.576998 
L 348.256506 80.483007 
L 349.199392 80.483007 
L 350.142278 79.685296 
L 351.085164 85.767841 
L 352.02805 79.78501 
L 352.970936 80.981576 
L 353.913822 79.386155 
L 354.856708 83.374708 
L 355.799594 83.175281 
L 356.742481 81.679573 
L 357.685367 83.075567 
L 358.628253 83.374708 
L 359.571139 80.981576 
L 360.514025 77.19245 
L 361.456911 79.685296 
L 362.399797 81.08129 
L 363.342683 79.984438 
L 364.285569 82.676711 
L 365.228456 82.178142 
L 366.171342 81.879001 
L 367.114228 78.289302 
L 368.057114 82.277856 
L 369.942886 82.576998 
L 370.885772 82.776425 
L 371.828658 79.386155 
L 372.771544 78.887585 
L 373.714431 80.084151 
L 374.657317 82.37757 
L 375.600203 80.183865 
L 376.543089 78.787871 
L 377.485975 79.087013 
L 378.428861 75.696742 
L 379.371747 75.995884 
L 380.314633 75.297887 
L 381.257519 75.696742 
L 382.200406 74.59989 
L 383.143292 78.48873 
L 384.086178 78.588444 
L 385.029064 79.685296 
L 385.97195 73.901893 
L 386.914836 75.297887 
L 387.857722 78.389016 
L 388.800608 77.092736 
L 389.743494 75.497315 
L 390.686381 78.688158 
L 391.629267 75.89617 
L 392.572153 79.485868 
L 393.515039 75.397601 
L 395.400811 77.890447 
L 396.343697 76.095598 
L 397.286583 76.693881 
L 398.229469 76.893308 
L 399.172356 75.796456 
L 400.115242 71.608475 
L 401.058128 80.084151 
L 402.001014 74.899031 
L 402.9439 78.089875 
L 403.886786 76.195311 
L 404.829672 73.901893 
L 405.772558 76.295025 
L 406.715444 76.295025 
L 407.658331 77.391878 
L 408.601217 76.195311 
L 409.544103 78.289302 
L 410.486989 74.400462 
L 411.429875 74.201035 
L 412.372761 74.500176 
L 413.315647 73.503038 
L 414.258533 76.295025 
L 415.201419 73.702465 
L 416.144306 76.494453 
L 417.087192 72.805041 
L 418.030078 75.397601 
L 418.972964 73.901893 
L 419.91585 74.59989 
L 420.858736 72.206758 
L 421.801622 71.508761 
L 422.744508 74.101321 
L 423.687394 73.503038 
L 424.630281 75.89617 
L 425.573167 75.796456 
L 426.516053 73.203896 
L 427.458939 72.904755 
L 428.401825 73.203896 
L 429.344711 71.109905 
L 430.287597 71.109905 
L 431.230483 71.309333 
L 432.173369 71.907616 
L 433.116255 73.104182 
L 434.059142 71.508761 
L 435.002028 73.503038 
L 435.944914 72.904755 
L 437.830686 68.716773 
L 438.773572 76.394739 
L 439.716458 69.713912 
L 440.659344 73.901893 
L 441.60223 71.807902 
L 442.545117 71.309333 
L 443.488003 69.713912 
L 444.430889 70.511622 
L 445.373775 74.001607 
L 446.316661 69.315056 
L 447.259547 70.71105 
L 448.202433 69.813625 
L 449.145319 70.212481 
L 450.088205 73.203896 
L 451.031092 72.406185 
L 451.973978 70.013053 
L 452.916864 70.312195 
L 453.85975 67.919062 
L 454.802636 69.713912 
L 455.745522 72.406185 
L 456.688408 71.209619 
L 457.631294 64.429078 
L 458.57418 68.11849 
L 460.459953 70.411908 
L 461.402839 74.400462 
L 462.345725 67.819348 
L 463.288611 70.112767 
L 464.231497 70.71105 
L 465.174383 68.11849 
L 466.117269 67.520207 
L 467.060155 72.605613 
L 468.003042 68.617059 
L 468.945928 70.312195 
L 469.888814 67.520207 
L 470.8317 67.021638 
L 471.774586 69.614198 
L 472.717472 66.523068 
L 473.660358 70.810764 
L 474.603244 66.722496 
L 475.54613 66.622782 
L 476.489017 69.813625 
L 477.431903 68.716773 
L 478.374789 69.913339 
L 480.260561 65.326502 
L 481.203447 69.614198 
L 482.146333 66.921924 
L 483.089219 66.323641 
L 484.032105 69.315056 
L 484.974992 70.112767 
L 485.917878 65.725358 
L 486.860764 64.528792 
L 487.80365 67.420493 
L 488.746536 64.329364 
L 489.689422 66.223927 
L 490.632308 65.326502 
L 491.575194 63.232512 
L 492.51808 64.329364 
L 493.460967 66.622782 
L 494.403853 67.619921 
L 495.346739 67.121352 
L 496.289625 67.420493 
L 497.232511 70.312195 
L 498.175397 67.221065 
L 499.118283 67.021638 
L 500.061169 63.033084 
L 501.004055 66.921924 
L 501.946942 67.819348 
L 502.889828 66.024499 
L 503.832714 68.018776 
L 505.718486 65.725358 
L 506.661372 64.728219 
L 507.604258 69.115628 
L 508.547144 67.121352 
L 509.49003 63.531653 
L 510.432917 68.317918 
L 511.375803 67.320779 
L 512.318689 65.426216 
L 513.261575 61.537376 
L 514.204461 62.634228 
L 515.147347 65.725358 
L 516.090233 68.417632 
L 517.033119 68.018776 
L 517.976005 66.223927 
L 518.918892 63.531653 
L 519.861778 66.024499 
L 520.804664 65.426216 
L 521.74755 63.830795 
L 522.690436 63.431939 
L 523.633322 60.739665 
L 524.576208 65.725358 
L 525.519094 63.431939 
L 526.46198 66.124213 
L 527.404867 67.021638 
L 528.347753 66.024499 
L 529.290639 67.719635 
L 531.176411 62.733942 
L 532.119297 63.930508 
L 533.062183 63.830795 
L 534.005069 65.027361 
L 534.947955 61.238235 
L 535.890842 65.027361 
L 536.833728 64.129936 
L 537.776614 62.93337 
L 538.7195 65.127075 
L 539.662386 66.82221 
L 540.605272 66.024499 
L 541.548158 63.033084 
L 542.491044 62.035945 
L 543.43393 61.736804 
L 544.376816 62.335087 
L 545.319703 61.537376 
L 546.262589 63.531653 
L 547.205475 62.634228 
L 548.148361 64.528792 
L 549.091247 61.138521 
L 550.034133 63.232512 
L 550.977019 60.739665 
L 551.919905 57.74825 
L 552.862791 58.246819 
L 553.805678 63.731081 
L 554.748564 65.52593 
L 555.69145 61.936232 
L 556.634336 62.93337 
L 557.577222 59.04453 
L 558.520108 64.22965 
L 559.462994 61.537376 
L 560.40588 66.323641 
L 561.348766 63.531653 
L 562.291653 61.337948 
L 563.234539 63.232512 
L 564.177425 62.93337 
L 565.120311 58.346533 
L 566.063197 59.04453 
L 567.006083 59.443385 
L 567.948969 59.543099 
L 568.891855 60.639952 
L 569.834741 63.332225 
L 570.777628 63.830795 
L 571.720514 58.545961 
L 572.6634 62.534515 
L 574.549172 62.534515 
L 575.492058 60.041669 
L 576.434944 59.243958 
L 577.37783 62.335087 
L 578.320716 59.543099 
L 579.263603 63.332225 
L 580.206489 62.634228 
L 581.149375 59.243958 
L 582.092261 63.332225 
L 583.035147 60.34081 
L 583.978033 59.842241 
L 584.920919 61.836518 
L 585.863805 64.528792 
L 586.806691 60.639952 
L 587.749578 59.343672 
L 588.692464 61.138521 
L 589.63535 58.645675 
L 590.578236 61.138521 
L 591.521122 59.642813 
L 592.464008 57.349395 
L 593.406894 59.543099 
L 594.34978 57.648536 
L 595.292666 60.241096 
L 596.235553 56.950539 
L 597.178439 61.736804 
L 598.121325 58.346533 
L 599.064211 61.437662 
L 600.007097 61.63709 
L 600.949983 56.651398 
L 601.892869 58.545961 
L 602.835755 61.138521 
L 603.778641 57.548822 
L 604.721528 60.440524 
L 605.664414 57.947678 
L 606.6073 60.440524 
L 607.550186 57.847964 
L 608.493072 60.440524 
L 609.435958 55.554545 
L 610.378844 59.343672 
L 611.32173 59.742527 
L 612.264616 57.349395 
L 613.207503 60.440524 
L 614.150389 60.540238 
L 615.093275 61.238235 
L 616.036161 57.149967 
L 616.979047 60.639952 
L 617.921933 58.545961 
L 618.864819 57.847964 
L 619.807705 60.939093 
L 620.750591 60.440524 
L 621.693478 56.651398 
L 622.636364 59.742527 
L 622.636364 59.742527 
" style="fill:none;stroke:#1f77b4;stroke-linecap:square;stroke-width:0.5;"/>
   </g>
   <g id="line2d_28">
    <path clip-path="url(#p472ac0738e)" d="M 115.363636 299.654039 
L 116.306522 302.645455 
L 117.249409 297.85919 
L 118.192295 290.879221 
L 119.135181 289.582941 
L 120.078067 280.808122 
L 121.020953 279.212701 
L 121.963839 278.614418 
L 122.906725 272.033304 
L 123.849611 272.531873 
L 124.792497 267.645895 
L 125.735384 264.654479 
L 126.67827 258.173079 
L 127.621156 258.871076 
L 128.564042 260.067643 
L 129.506928 254.683095 
L 130.449814 246.705987 
L 131.3927 245.409707 
L 132.335586 246.805701 
L 133.278472 244.412569 
L 134.221359 236.93403 
L 135.164245 235.538037 
L 136.107131 234.540898 
L 137.050017 230.45263 
L 137.992903 231.250341 
L 138.935789 228.657781 
L 139.878675 224.370086 
L 140.821561 221.179243 
L 141.764447 220.58096 
L 142.707334 217.589544 
L 143.65022 210.011292 
L 144.593106 210.908717 
L 145.535992 212.504138 
L 146.478878 210.410147 
L 147.421764 205.923024 
L 148.36465 202.333326 
L 149.307536 195.95164 
L 150.250422 200.438763 
L 151.193309 199.441624 
L 152.136195 198.145344 
L 153.079081 197.148206 
L 154.021967 186.578538 
L 154.964853 185.082831 
L 155.907739 185.082831 
L 156.850625 184.484548 
L 157.793511 184.28512 
L 159.679284 177.504578 
L 160.62217 171.820889 
L 161.565056 177.205437 
L 162.507942 171.222606 
L 163.450828 171.721175 
L 164.393714 173.316597 
L 165.3366 165.040348 
L 166.279486 165.738345 
L 167.222372 159.256945 
L 168.165259 162.746929 
L 169.108145 163.644354 
L 170.051031 162.547502 
L 170.993917 157.362382 
L 171.936803 163.744068 
L 172.879689 158.957803 
L 174.765461 158.459234 
L 175.708347 155.567532 
L 176.651234 158.658662 
L 177.59412 157.06324 
L 178.537006 156.365243 
L 179.479892 148.388136 
L 180.422778 151.279837 
L 181.365664 154.769822 
L 182.30855 154.171539 
L 183.251436 145.695862 
L 184.194322 150.482126 
L 185.137209 147.98928 
L 186.080095 141.208739 
L 187.022981 143.901013 
L 187.965867 143.003588 
L 188.908753 141.607594 
L 189.851639 140.012173 
L 190.794525 145.695862 
L 191.737411 143.901013 
L 192.680297 138.616179 
L 193.623184 141.607594 
L 196.451842 140.710169 
L 197.394728 140.2116 
L 198.337614 137.120471 
L 199.2805 139.015034 
L 200.223386 136.522188 
L 201.166272 134.428197 
L 202.109158 136.522188 
L 203.052045 136.32276 
L 203.994931 136.522188 
L 205.880703 133.331345 
L 208.709361 135.02648 
L 209.652247 131.835637 
L 210.595133 132.533634 
L 211.53802 132.234493 
L 212.480906 127.149087 
L 213.423792 131.835637 
L 214.366678 134.029342 
L 216.25245 129.143363 
L 217.195336 123.060819 
L 218.138222 126.550803 
L 219.081108 125.852807 
L 220.023995 130.738785 
L 220.966881 132.035065 
L 221.909767 131.63621 
L 222.852653 128.744508 
L 223.795539 128.644794 
L 224.738425 124.257385 
L 225.681311 123.35996 
L 226.624197 124.157671 
L 227.567083 123.559388 
L 228.50997 125.055096 
L 229.452856 123.35996 
L 230.395742 125.055096 
L 231.338628 121.365683 
L 232.281514 120.169117 
L 233.2244 124.855668 
L 234.167286 123.659102 
L 235.110172 129.243077 
L 236.053058 122.761677 
L 236.995945 123.559388 
L 238.881717 119.570834 
L 239.824603 120.567973 
L 240.767489 116.08085 
L 241.710375 120.468259 
L 242.653261 122.661963 
L 243.596147 121.26597 
L 244.539033 119.670548 
L 245.48192 120.667687 
L 246.424806 119.96969 
L 247.367692 120.966828 
L 248.310578 121.365683 
L 249.253464 121.465397 
L 250.19635 115.283139 
L 251.139236 120.268831 
L 252.082122 117.476843 
L 253.025008 121.963967 
L 253.967895 122.163394 
L 254.910781 119.770262 
L 255.853667 122.06368 
L 256.796553 116.379991 
L 257.739439 120.567973 
L 258.682325 114.086573 
L 259.625211 121.465397 
L 260.568097 115.382853 
L 261.510983 114.884284 
L 262.45387 117.177702 
L 263.396756 117.975413 
L 264.339642 115.781708 
L 265.282528 118.67341 
L 266.225414 111.793154 
L 267.1683 116.379991 
L 268.111186 112.98972 
L 269.054072 110.995444 
L 269.996958 114.385714 
L 270.939845 113.687717 
L 271.882731 115.183425 
L 272.825617 115.681994 
L 273.768503 110.796016 
L 274.711389 112.690579 
L 275.654275 114.186287 
L 276.597161 116.978274 
L 277.540047 113.687717 
L 278.482933 114.485428 
L 279.42582 112.790293 
L 280.368706 110.496874 
L 281.311592 109.400022 
L 282.254478 114.78457 
L 283.197364 112.291724 
L 284.14025 112.790293 
L 285.083136 110.995444 
L 286.026022 114.78457 
L 286.968908 110.496874 
L 287.911795 110.89573 
L 288.854681 109.798877 
L 289.797567 111.892868 
L 290.740453 108.602311 
L 291.683339 112.890007 
L 292.626225 111.992582 
L 294.511997 112.092296 
L 296.39777 108.004028 
L 297.340656 110.297447 
L 298.283542 108.801739 
L 299.226428 108.502597 
L 300.169314 109.400022 
L 301.1122 107.904314 
L 302.055086 113.787431 
L 302.997972 109.499736 
L 303.940858 109.59945 
L 304.883745 108.103742 
L 305.826631 109.699164 
L 306.769517 107.206317 
L 307.712403 110.596588 
L 308.655289 106.408607 
L 309.598175 110.39716 
L 310.541061 106.109465 
L 311.483947 108.103742 
L 312.426833 105.810324 
L 313.369719 107.405745 
L 314.312606 107.704887 
L 315.255492 104.912899 
L 316.198378 103.816047 
L 317.141264 106.009751 
L 318.08415 104.314616 
L 319.027036 107.00689 
L 319.969922 108.004028 
L 320.912808 111.294585 
L 321.855694 105.311754 
L 322.798581 106.209179 
L 323.741467 105.910037 
L 324.684353 106.209179 
L 325.627239 103.915761 
L 326.570125 109.998305 
L 327.513011 109.699164 
L 328.455897 106.50832 
L 329.398783 106.009751 
L 330.341669 105.71061 
L 331.284556 104.613757 
L 332.227442 102.818908 
L 333.170328 105.012613 
L 334.113214 107.505459 
L 335.0561 105.112327 
L 335.998986 101.82177 
L 336.941872 106.308893 
L 337.884758 106.009751 
L 338.827644 102.918622 
L 339.770531 106.707748 
L 340.713417 106.50832 
L 341.656303 106.109465 
L 342.599189 104.41433 
L 343.542075 104.912899 
L 344.484961 102.719194 
L 345.427847 104.41433 
L 346.370733 103.816047 
L 347.313619 105.411468 
L 348.256506 102.320339 
L 349.199392 104.713471 
L 350.142278 100.924345 
L 351.085164 100.625204 
L 352.02805 105.212041 
L 352.970936 106.109465 
L 353.913822 106.009751 
L 354.856708 103.417191 
L 355.799594 100.126634 
L 357.685367 104.314616 
L 358.628253 100.625204 
L 359.571139 99.727779 
L 360.514025 99.328924 
L 361.456911 99.827493 
L 362.399797 107.8046 
L 363.342683 103.417191 
L 364.285569 106.408607 
L 365.228456 102.719194 
L 366.171342 101.82177 
L 367.114228 98.930068 
L 368.057114 101.123773 
L 369 98.730641 
L 369.942886 102.619481 
L 370.885772 102.120911 
L 371.828658 101.422914 
L 372.771544 103.317477 
L 373.714431 102.120911 
L 374.657317 99.628065 
L 375.600203 101.622342 
L 376.543089 103.11805 
L 377.485975 101.323201 
L 378.428861 103.11805 
L 379.371747 102.719194 
L 380.314633 102.519767 
L 381.257519 99.029782 
L 382.200406 99.528351 
L 383.143292 103.516905 
L 384.086178 103.516905 
L 385.029064 102.619481 
L 385.97195 101.522628 
L 386.914836 101.522628 
L 387.857722 108.402884 
L 388.800608 102.021197 
L 389.743494 98.830354 
L 390.686381 101.921484 
L 391.629267 101.422914 
L 392.572153 98.930068 
L 393.515039 102.120911 
L 394.457925 99.628065 
L 395.400811 101.622342 
L 396.343697 102.719194 
L 397.286583 103.018336 
L 398.229469 102.021197 
L 399.172356 100.724917 
L 400.115242 98.830354 
L 401.058128 102.021197 
L 402.001014 103.816047 
L 402.9439 99.727779 
L 403.886786 98.830354 
L 404.829672 101.223487 
L 406.715444 100.326062 
L 407.658331 102.420053 
L 408.601217 99.628065 
L 409.544103 100.52549 
L 410.486989 97.434361 
L 412.372761 101.223487 
L 413.315647 98.930068 
L 414.258533 97.733502 
L 415.201419 100.824631 
L 416.144306 99.827493 
L 417.087192 97.334647 
L 418.030078 102.719194 
L 418.972964 99.428637 
L 419.91585 100.52549 
L 420.858736 96.138081 
L 421.801622 103.217764 
L 422.744508 99.727779 
L 423.687394 99.528351 
L 424.630281 98.730641 
L 425.573167 99.22921 
L 426.516053 97.633788 
L 427.458939 99.827493 
L 428.401825 99.428637 
L 429.344711 101.323201 
L 431.230483 96.935791 
L 432.173369 100.425776 
L 433.116255 100.724917 
L 434.059142 91.551244 
L 435.002028 99.528351 
L 435.944914 98.032644 
L 436.8878 95.639511 
L 437.830686 99.827493 
L 438.773572 97.334647 
L 439.716458 100.52549 
L 440.659344 96.237794 
L 441.60223 95.838939 
L 442.545117 101.622342 
L 443.488003 100.924345 
L 444.430889 96.437222 
L 445.373775 95.140942 
L 446.316661 96.138081 
L 447.259547 98.930068 
L 448.202433 99.22921 
L 449.145319 96.736364 
L 450.088205 102.220625 
L 451.031092 101.82177 
L 451.973978 98.630927 
L 452.916864 99.029782 
L 453.85975 96.736364 
L 454.802636 98.830354 
L 455.745522 97.833216 
L 456.688408 99.628065 
L 458.57418 99.927207 
L 459.517067 97.833216 
L 460.459953 99.727779 
L 461.402839 94.742087 
L 463.288611 99.827493 
L 464.231497 96.437222 
L 465.174383 100.026921 
L 466.117269 95.240656 
L 467.060155 96.935791 
L 468.003042 96.038367 
L 468.945928 97.733502 
L 469.888814 96.63665 
L 470.8317 99.129496 
L 471.774586 95.938653 
L 472.717472 98.531213 
L 473.660358 95.838939 
L 474.603244 95.240656 
L 475.54613 97.334647 
L 476.489017 96.237794 
L 477.431903 97.833216 
L 478.374789 95.838939 
L 480.260561 95.539797 
L 481.203447 95.34037 
L 482.146333 98.132357 
L 483.089219 98.431499 
L 484.032105 99.22921 
L 484.974992 97.833216 
L 485.917878 95.838939 
L 487.80365 98.830354 
L 488.746536 98.232071 
L 489.689422 99.628065 
L 490.632308 97.633788 
L 491.575194 98.730641 
L 492.51808 94.04409 
L 493.460967 93.346093 
L 494.403853 98.431499 
L 495.346739 98.730641 
L 496.289625 98.232071 
L 497.232511 96.536936 
L 498.175397 97.234933 
L 499.118283 95.140942 
L 500.061169 97.234933 
L 501.004055 96.736364 
L 501.946942 96.536936 
L 502.889828 99.428637 
L 504.7756 93.844662 
L 505.718486 95.240656 
L 506.661372 96.138081 
L 507.604258 97.234933 
L 509.49003 96.536936 
L 510.432917 93.844662 
L 511.375803 95.639511 
L 512.318689 95.739225 
L 513.261575 96.836077 
L 515.147347 96.736364 
L 516.090233 94.343231 
L 517.033119 98.132357 
L 517.976005 96.736364 
L 518.918892 92.149527 
L 519.861778 96.836077 
L 520.804664 94.343231 
L 521.74755 96.237794 
L 522.690436 95.639511 
L 523.633322 99.727779 
L 524.576208 94.742087 
L 525.519094 96.836077 
L 526.46198 95.440084 
L 527.404867 95.34037 
L 528.347753 95.938653 
L 529.290639 97.434361 
L 530.233525 100.824631 
L 531.176411 95.838939 
L 532.119297 101.422914 
L 533.062183 95.440084 
L 534.005069 95.041228 
L 534.947955 98.032644 
L 535.890842 99.428637 
L 536.833728 97.334647 
L 537.776614 97.234933 
L 538.7195 97.733502 
L 540.605272 96.038367 
L 541.548158 97.035505 
L 542.491044 95.539797 
L 543.43393 97.633788 
L 544.376816 95.041228 
L 545.319703 96.038367 
L 546.262589 96.536936 
L 547.205475 95.539797 
L 548.148361 99.328924 
L 549.091247 93.944376 
L 550.034133 96.836077 
L 550.977019 97.035505 
L 551.919905 98.431499 
L 552.862791 94.642373 
L 553.805678 96.63665 
L 554.748564 96.935791 
L 555.69145 95.539797 
L 556.634336 94.742087 
L 557.577222 97.434361 
L 558.520108 95.140942 
L 559.462994 95.539797 
L 560.40588 96.138081 
L 561.348766 93.744948 
L 562.291653 94.542659 
L 563.234539 96.038367 
L 564.177425 94.642373 
L 565.120311 98.032644 
L 566.063197 94.04409 
L 567.006083 94.542659 
L 567.948969 96.138081 
L 568.891855 95.938653 
L 569.834741 94.243517 
L 570.777628 96.935791 
L 571.720514 97.833216 
L 572.6634 96.536936 
L 573.606286 94.841801 
L 574.549172 96.836077 
L 575.492058 97.434361 
L 576.434944 96.935791 
L 577.37783 91.950099 
L 578.320716 97.334647 
L 579.263603 95.140942 
L 580.206489 96.337508 
L 581.149375 98.032644 
L 582.092261 96.736364 
L 583.035147 95.140942 
L 583.978033 98.630927 
L 584.920919 95.140942 
L 585.863805 98.630927 
L 586.806691 97.434361 
L 587.749578 95.639511 
L 588.692464 94.343231 
L 589.63535 95.041228 
L 590.578236 96.437222 
L 591.521122 97.135219 
L 592.464008 96.63665 
L 593.406894 98.032644 
L 594.34978 98.232071 
L 595.292666 96.337508 
L 596.235553 91.950099 
L 597.178439 96.237794 
L 598.121325 96.836077 
L 599.064211 98.630927 
L 600.007097 94.841801 
L 600.949983 96.935791 
L 601.892869 96.138081 
L 602.835755 93.246379 
L 603.778641 98.132357 
L 604.721528 95.739225 
L 605.664414 95.34037 
L 606.6073 93.744948 
L 607.550186 94.642373 
L 608.493072 92.648096 
L 609.435958 93.744948 
L 610.378844 94.343231 
L 611.32173 94.542659 
L 612.264616 99.129496 
L 613.207503 93.445807 
L 614.150389 97.135219 
L 615.093275 95.739225 
L 616.036161 93.545521 
L 616.979047 93.545521 
L 617.921933 96.836077 
L 618.864819 95.739225 
L 619.807705 96.237794 
L 620.750591 92.448668 
L 622.636364 98.032644 
L 622.636364 98.032644 
" style="fill:none;stroke:#ff7f0e;stroke-linecap:square;stroke-width:0.5;"/>
   </g>
   <g id="patch_3">
    <path d="M 90 315 
L 90 43.2 
" style="fill:none;stroke:#000000;stroke-linecap:square;stroke-linejoin:miter;stroke-width:0.8;"/>
   </g>
   <g id="patch_4">
    <path d="M 648 315 
L 648 43.2 
" style="fill:none;stroke:#000000;stroke-linecap:square;stroke-linejoin:miter;stroke-width:0.8;"/>
   </g>
   <g id="patch_5">
    <path d="M 90 315 
L 648 315 
" style="fill:none;stroke:#000000;stroke-linecap:square;stroke-linejoin:miter;stroke-width:0.8;"/>
   </g>
   <g id="patch_6">
    <path d="M 90 43.2 
L 648 43.2 
" style="fill:none;stroke:#000000;stroke-linecap:square;stroke-linejoin:miter;stroke-width:0.8;"/>
   </g>
   <g id="text_16">
    <!-- accuracy -->
    <g transform="translate(341.92875 37.2)scale(0.12 -0.12)">
     <use xlink:href="#DejaVuSans-97"/>
     <use x="61.279297" xlink:href="#DejaVuSans-99"/>
     <use x="116.259766" xlink:href="#DejaVuSans-99"/>
     <use x="171.240234" xlink:href="#DejaVuSans-117"/>
     <use x="234.619141" xlink:href="#DejaVuSans-114"/>
     <use x="275.732422" xlink:href="#DejaVuSans-97"/>
     <use x="337.011719" xlink:href="#DejaVuSans-99"/>
     <use x="391.992188" xlink:href="#DejaVuSans-121"/>
    </g>
   </g>
   <g id="legend_1">
    <g id="patch_7">
     <path d="M 97 80.55625 
L 169.153125 80.55625 
Q 171.153125 80.55625 171.153125 78.55625 
L 171.153125 50.2 
Q 171.153125 48.2 169.153125 48.2 
L 97 48.2 
Q 95 48.2 95 50.2 
L 95 78.55625 
Q 95 80.55625 97 80.55625 
z
" style="fill:#ffffff;opacity:0.8;stroke:#cccccc;stroke-linejoin:miter;"/>
    </g>
    <g id="line2d_29">
     <path d="M 99 56.298437 
L 119 56.298437 
" style="fill:none;stroke:#1f77b4;stroke-linecap:square;stroke-width:0.5;"/>
    </g>
    <g id="line2d_30"/>
    <g id="text_17">
     <!-- train -->
     <defs>
      <path d="M 18.3125 70.21875 
L 18.3125 54.6875 
L 36.8125 54.6875 
L 36.8125 47.703125 
L 18.3125 47.703125 
L 18.3125 18.015625 
Q 18.3125 11.328125 20.140625 9.421875 
Q 21.96875 7.515625 27.59375 7.515625 
L 36.8125 7.515625 
L 36.8125 0 
L 27.59375 0 
Q 17.1875 0 13.234375 3.875 
Q 9.28125 7.765625 9.28125 18.015625 
L 9.28125 47.703125 
L 2.6875 47.703125 
L 2.6875 54.6875 
L 9.28125 54.6875 
L 9.28125 70.21875 
z
" id="DejaVuSans-116"/>
      <path d="M 9.421875 54.6875 
L 18.40625 54.6875 
L 18.40625 0 
L 9.421875 0 
z
M 9.421875 75.984375 
L 18.40625 75.984375 
L 18.40625 64.59375 
L 9.421875 64.59375 
z
" id="DejaVuSans-105"/>
      <path d="M 54.890625 33.015625 
L 54.890625 0 
L 45.90625 0 
L 45.90625 32.71875 
Q 45.90625 40.484375 42.875 44.328125 
Q 39.84375 48.1875 33.796875 48.1875 
Q 26.515625 48.1875 22.3125 43.546875 
Q 18.109375 38.921875 18.109375 30.90625 
L 18.109375 0 
L 9.078125 0 
L 9.078125 54.6875 
L 18.109375 54.6875 
L 18.109375 46.1875 
Q 21.34375 51.125 25.703125 53.5625 
Q 30.078125 56 35.796875 56 
Q 45.21875 56 50.046875 50.171875 
Q 54.890625 44.34375 54.890625 33.015625 
z
" id="DejaVuSans-110"/>
     </defs>
     <g transform="translate(127 59.798437)scale(0.1 -0.1)">
      <use xlink:href="#DejaVuSans-116"/>
      <use x="39.208984" xlink:href="#DejaVuSans-114"/>
      <use x="80.322266" xlink:href="#DejaVuSans-97"/>
      <use x="141.601562" xlink:href="#DejaVuSans-105"/>
      <use x="169.384766" xlink:href="#DejaVuSans-110"/>
     </g>
    </g>
    <g id="line2d_31">
     <path d="M 99 70.976562 
L 119 70.976562 
" style="fill:none;stroke:#ff7f0e;stroke-linecap:square;stroke-width:0.5;"/>
    </g>
    <g id="line2d_32"/>
    <g id="text_18">
     <!-- validate -->
     <defs>
      <path d="M 2.984375 54.6875 
L 12.5 54.6875 
L 29.59375 8.796875 
L 46.6875 54.6875 
L 56.203125 54.6875 
L 35.6875 0 
L 23.484375 0 
z
" id="DejaVuSans-118"/>
      <path d="M 9.421875 75.984375 
L 18.40625 75.984375 
L 18.40625 0 
L 9.421875 0 
z
" id="DejaVuSans-108"/>
      <path d="M 45.40625 46.390625 
L 45.40625 75.984375 
L 54.390625 75.984375 
L 54.390625 0 
L 45.40625 0 
L 45.40625 8.203125 
Q 42.578125 3.328125 38.25 0.953125 
Q 33.9375 -1.421875 27.875 -1.421875 
Q 17.96875 -1.421875 11.734375 6.484375 
Q 5.515625 14.40625 5.515625 27.296875 
Q 5.515625 40.1875 11.734375 48.09375 
Q 17.96875 56 27.875 56 
Q 33.9375 56 38.25 53.625 
Q 42.578125 51.265625 45.40625 46.390625 
z
M 14.796875 27.296875 
Q 14.796875 17.390625 18.875 11.75 
Q 22.953125 6.109375 30.078125 6.109375 
Q 37.203125 6.109375 41.296875 11.75 
Q 45.40625 17.390625 45.40625 27.296875 
Q 45.40625 37.203125 41.296875 42.84375 
Q 37.203125 48.484375 30.078125 48.484375 
Q 22.953125 48.484375 18.875 42.84375 
Q 14.796875 37.203125 14.796875 27.296875 
z
" id="DejaVuSans-100"/>
     </defs>
     <g transform="translate(127 74.476562)scale(0.1 -0.1)">
      <use xlink:href="#DejaVuSans-118"/>
      <use x="59.179688" xlink:href="#DejaVuSans-97"/>
      <use x="120.458984" xlink:href="#DejaVuSans-108"/>
      <use x="148.242188" xlink:href="#DejaVuSans-105"/>
      <use x="176.025391" xlink:href="#DejaVuSans-100"/>
      <use x="239.501953" xlink:href="#DejaVuSans-97"/>
      <use x="300.78125" xlink:href="#DejaVuSans-116"/>
      <use x="339.990234" xlink:href="#DejaVuSans-101"/>
     </g>
    </g>
   </g>
  </g>
 </g>
 <defs>
  <clipPath id="p472ac0738e">
   <rect height="271.8" width="558" x="90" y="43.2"/>
  </clipPath>
 </defs>
</svg>
