<?xml version="1.0" encoding="utf-8" standalone="no"?>
<!DOCTYPE svg PUBLIC "-//W3C//DTD SVG 1.1//EN"
  "http://www.w3.org/Graphics/SVG/1.1/DTD/svg11.dtd">
<!-- Created with matplotlib (https://matplotlib.org/) -->
<svg height="360pt" version="1.1" viewBox="0 0 720 360" width="720pt" xmlns="http://www.w3.org/2000/svg" xmlns:xlink="http://www.w3.org/1999/xlink">
 <defs>
  <style type="text/css">
*{stroke-linecap:butt;stroke-linejoin:round;}
  </style>
 </defs>
 <g id="figure_1">
  <g id="patch_1">
   <path d="M 0 360 
L 720 360 
L 720 0 
L 0 0 
z
" style="fill:#ffffff;"/>
  </g>
  <g id="axes_1">
   <g id="patch_2">
    <path d="M 90 315 
L 648 315 
L 648 43.2 
L 90 43.2 
z
" style="fill:#ffffff;"/>
   </g>
   <g id="matplotlib.axis_1">
    <g id="xtick_1">
     <g id="line2d_1">
      <path clip-path="url(#p70e710a227)" d="M 115.363636 315 
L 115.363636 43.2 
" style="fill:none;stroke:#b0b0b0;stroke-linecap:square;stroke-width:0.8;"/>
     </g>
     <g id="line2d_2">
      <defs>
       <path d="M 0 0 
L 0 3.5 
" id="meef0ff341c" style="stroke:#000000;stroke-width:0.8;"/>
      </defs>
      <g>
       <use style="stroke:#000000;stroke-width:0.8;" x="115.363636" xlink:href="#meef0ff341c" y="315"/>
      </g>
     </g>
     <g id="text_1">
      <!-- 0 -->
      <defs>
       <path d="M 31.78125 66.40625 
Q 24.171875 66.40625 20.328125 58.90625 
Q 16.5 51.421875 16.5 36.375 
Q 16.5 21.390625 20.328125 13.890625 
Q 24.171875 6.390625 31.78125 6.390625 
Q 39.453125 6.390625 43.28125 13.890625 
Q 47.125 21.390625 47.125 36.375 
Q 47.125 51.421875 43.28125 58.90625 
Q 39.453125 66.40625 31.78125 66.40625 
z
M 31.78125 74.21875 
Q 44.046875 74.21875 50.515625 64.515625 
Q 56.984375 54.828125 56.984375 36.375 
Q 56.984375 17.96875 50.515625 8.265625 
Q 44.046875 -1.421875 31.78125 -1.421875 
Q 19.53125 -1.421875 13.0625 8.265625 
Q 6.59375 17.96875 6.59375 36.375 
Q 6.59375 54.828125 13.0625 64.515625 
Q 19.53125 74.21875 31.78125 74.21875 
z
" id="DejaVuSans-48"/>
      </defs>
      <g transform="translate(112.182386 329.598437)scale(0.1 -0.1)">
       <use xlink:href="#DejaVuSans-48"/>
      </g>
     </g>
    </g>
    <g id="xtick_2">
     <g id="line2d_3">
      <path clip-path="url(#p70e710a227)" d="M 203.58498 315 
L 203.58498 43.2 
" style="fill:none;stroke:#b0b0b0;stroke-linecap:square;stroke-width:0.8;"/>
     </g>
     <g id="line2d_4">
      <g>
       <use style="stroke:#000000;stroke-width:0.8;" x="203.58498" xlink:href="#meef0ff341c" y="315"/>
      </g>
     </g>
     <g id="text_2">
      <!-- 100 -->
      <defs>
       <path d="M 12.40625 8.296875 
L 28.515625 8.296875 
L 28.515625 63.921875 
L 10.984375 60.40625 
L 10.984375 69.390625 
L 28.421875 72.90625 
L 38.28125 72.90625 
L 38.28125 8.296875 
L 54.390625 8.296875 
L 54.390625 0 
L 12.40625 0 
z
" id="DejaVuSans-49"/>
      </defs>
      <g transform="translate(194.04123 329.598437)scale(0.1 -0.1)">
       <use xlink:href="#DejaVuSans-49"/>
       <use x="63.623047" xlink:href="#DejaVuSans-48"/>
       <use x="127.246094" xlink:href="#DejaVuSans-48"/>
      </g>
     </g>
    </g>
    <g id="xtick_3">
     <g id="line2d_5">
      <path clip-path="url(#p70e710a227)" d="M 291.806324 315 
L 291.806324 43.2 
" style="fill:none;stroke:#b0b0b0;stroke-linecap:square;stroke-width:0.8;"/>
     </g>
     <g id="line2d_6">
      <g>
       <use style="stroke:#000000;stroke-width:0.8;" x="291.806324" xlink:href="#meef0ff341c" y="315"/>
      </g>
     </g>
     <g id="text_3">
      <!-- 200 -->
      <defs>
       <path d="M 19.1875 8.296875 
L 53.609375 8.296875 
L 53.609375 0 
L 7.328125 0 
L 7.328125 8.296875 
Q 12.9375 14.109375 22.625 23.890625 
Q 32.328125 33.6875 34.8125 36.53125 
Q 39.546875 41.84375 41.421875 45.53125 
Q 43.3125 49.21875 43.3125 52.78125 
Q 43.3125 58.59375 39.234375 62.25 
Q 35.15625 65.921875 28.609375 65.921875 
Q 23.96875 65.921875 18.8125 64.3125 
Q 13.671875 62.703125 7.8125 59.421875 
L 7.8125 69.390625 
Q 13.765625 71.78125 18.9375 73 
Q 24.125 74.21875 28.421875 74.21875 
Q 39.75 74.21875 46.484375 68.546875 
Q 53.21875 62.890625 53.21875 53.421875 
Q 53.21875 48.921875 51.53125 44.890625 
Q 49.859375 40.875 45.40625 35.40625 
Q 44.1875 33.984375 37.640625 27.21875 
Q 31.109375 20.453125 19.1875 8.296875 
z
" id="DejaVuSans-50"/>
      </defs>
      <g transform="translate(282.262574 329.598437)scale(0.1 -0.1)">
       <use xlink:href="#DejaVuSans-50"/>
       <use x="63.623047" xlink:href="#DejaVuSans-48"/>
       <use x="127.246094" xlink:href="#DejaVuSans-48"/>
      </g>
     </g>
    </g>
    <g id="xtick_4">
     <g id="line2d_7">
      <path clip-path="url(#p70e710a227)" d="M 380.027668 315 
L 380.027668 43.2 
" style="fill:none;stroke:#b0b0b0;stroke-linecap:square;stroke-width:0.8;"/>
     </g>
     <g id="line2d_8">
      <g>
       <use style="stroke:#000000;stroke-width:0.8;" x="380.027668" xlink:href="#meef0ff341c" y="315"/>
      </g>
     </g>
     <g id="text_4">
      <!-- 300 -->
      <defs>
       <path d="M 40.578125 39.3125 
Q 47.65625 37.796875 51.625 33 
Q 55.609375 28.21875 55.609375 21.1875 
Q 55.609375 10.40625 48.1875 4.484375 
Q 40.765625 -1.421875 27.09375 -1.421875 
Q 22.515625 -1.421875 17.65625 -0.515625 
Q 12.796875 0.390625 7.625 2.203125 
L 7.625 11.71875 
Q 11.71875 9.328125 16.59375 8.109375 
Q 21.484375 6.890625 26.8125 6.890625 
Q 36.078125 6.890625 40.9375 10.546875 
Q 45.796875 14.203125 45.796875 21.1875 
Q 45.796875 27.640625 41.28125 31.265625 
Q 36.765625 34.90625 28.71875 34.90625 
L 20.21875 34.90625 
L 20.21875 43.015625 
L 29.109375 43.015625 
Q 36.375 43.015625 40.234375 45.921875 
Q 44.09375 48.828125 44.09375 54.296875 
Q 44.09375 59.90625 40.109375 62.90625 
Q 36.140625 65.921875 28.71875 65.921875 
Q 24.65625 65.921875 20.015625 65.03125 
Q 15.375 64.15625 9.8125 62.3125 
L 9.8125 71.09375 
Q 15.4375 72.65625 20.34375 73.4375 
Q 25.25 74.21875 29.59375 74.21875 
Q 40.828125 74.21875 47.359375 69.109375 
Q 53.90625 64.015625 53.90625 55.328125 
Q 53.90625 49.265625 50.4375 45.09375 
Q 46.96875 40.921875 40.578125 39.3125 
z
" id="DejaVuSans-51"/>
      </defs>
      <g transform="translate(370.483918 329.598437)scale(0.1 -0.1)">
       <use xlink:href="#DejaVuSans-51"/>
       <use x="63.623047" xlink:href="#DejaVuSans-48"/>
       <use x="127.246094" xlink:href="#DejaVuSans-48"/>
      </g>
     </g>
    </g>
    <g id="xtick_5">
     <g id="line2d_9">
      <path clip-path="url(#p70e710a227)" d="M 468.249012 315 
L 468.249012 43.2 
" style="fill:none;stroke:#b0b0b0;stroke-linecap:square;stroke-width:0.8;"/>
     </g>
     <g id="line2d_10">
      <g>
       <use style="stroke:#000000;stroke-width:0.8;" x="468.249012" xlink:href="#meef0ff341c" y="315"/>
      </g>
     </g>
     <g id="text_5">
      <!-- 400 -->
      <defs>
       <path d="M 37.796875 64.3125 
L 12.890625 25.390625 
L 37.796875 25.390625 
z
M 35.203125 72.90625 
L 47.609375 72.90625 
L 47.609375 25.390625 
L 58.015625 25.390625 
L 58.015625 17.1875 
L 47.609375 17.1875 
L 47.609375 0 
L 37.796875 0 
L 37.796875 17.1875 
L 4.890625 17.1875 
L 4.890625 26.703125 
z
" id="DejaVuSans-52"/>
      </defs>
      <g transform="translate(458.705262 329.598437)scale(0.1 -0.1)">
       <use xlink:href="#DejaVuSans-52"/>
       <use x="63.623047" xlink:href="#DejaVuSans-48"/>
       <use x="127.246094" xlink:href="#DejaVuSans-48"/>
      </g>
     </g>
    </g>
    <g id="xtick_6">
     <g id="line2d_11">
      <path clip-path="url(#p70e710a227)" d="M 556.470356 315 
L 556.470356 43.2 
" style="fill:none;stroke:#b0b0b0;stroke-linecap:square;stroke-width:0.8;"/>
     </g>
     <g id="line2d_12">
      <g>
       <use style="stroke:#000000;stroke-width:0.8;" x="556.470356" xlink:href="#meef0ff341c" y="315"/>
      </g>
     </g>
     <g id="text_6">
      <!-- 500 -->
      <defs>
       <path d="M 10.796875 72.90625 
L 49.515625 72.90625 
L 49.515625 64.59375 
L 19.828125 64.59375 
L 19.828125 46.734375 
Q 21.96875 47.46875 24.109375 47.828125 
Q 26.265625 48.1875 28.421875 48.1875 
Q 40.625 48.1875 47.75 41.5 
Q 54.890625 34.8125 54.890625 23.390625 
Q 54.890625 11.625 47.5625 5.09375 
Q 40.234375 -1.421875 26.90625 -1.421875 
Q 22.3125 -1.421875 17.546875 -0.640625 
Q 12.796875 0.140625 7.71875 1.703125 
L 7.71875 11.625 
Q 12.109375 9.234375 16.796875 8.0625 
Q 21.484375 6.890625 26.703125 6.890625 
Q 35.15625 6.890625 40.078125 11.328125 
Q 45.015625 15.765625 45.015625 23.390625 
Q 45.015625 31 40.078125 35.4375 
Q 35.15625 39.890625 26.703125 39.890625 
Q 22.75 39.890625 18.8125 39.015625 
Q 14.890625 38.140625 10.796875 36.28125 
z
" id="DejaVuSans-53"/>
      </defs>
      <g transform="translate(546.926606 329.598437)scale(0.1 -0.1)">
       <use xlink:href="#DejaVuSans-53"/>
       <use x="63.623047" xlink:href="#DejaVuSans-48"/>
       <use x="127.246094" xlink:href="#DejaVuSans-48"/>
      </g>
     </g>
    </g>
    <g id="xtick_7">
     <g id="line2d_13">
      <path clip-path="url(#p70e710a227)" d="M 644.6917 315 
L 644.6917 43.2 
" style="fill:none;stroke:#b0b0b0;stroke-linecap:square;stroke-width:0.8;"/>
     </g>
     <g id="line2d_14">
      <g>
       <use style="stroke:#000000;stroke-width:0.8;" x="644.6917" xlink:href="#meef0ff341c" y="315"/>
      </g>
     </g>
     <g id="text_7">
      <!-- 600 -->
      <defs>
       <path d="M 33.015625 40.375 
Q 26.375 40.375 22.484375 35.828125 
Q 18.609375 31.296875 18.609375 23.390625 
Q 18.609375 15.53125 22.484375 10.953125 
Q 26.375 6.390625 33.015625 6.390625 
Q 39.65625 6.390625 43.53125 10.953125 
Q 47.40625 15.53125 47.40625 23.390625 
Q 47.40625 31.296875 43.53125 35.828125 
Q 39.65625 40.375 33.015625 40.375 
z
M 52.59375 71.296875 
L 52.59375 62.3125 
Q 48.875 64.0625 45.09375 64.984375 
Q 41.3125 65.921875 37.59375 65.921875 
Q 27.828125 65.921875 22.671875 59.328125 
Q 17.53125 52.734375 16.796875 39.40625 
Q 19.671875 43.65625 24.015625 45.921875 
Q 28.375 48.1875 33.59375 48.1875 
Q 44.578125 48.1875 50.953125 41.515625 
Q 57.328125 34.859375 57.328125 23.390625 
Q 57.328125 12.15625 50.6875 5.359375 
Q 44.046875 -1.421875 33.015625 -1.421875 
Q 20.359375 -1.421875 13.671875 8.265625 
Q 6.984375 17.96875 6.984375 36.375 
Q 6.984375 53.65625 15.1875 63.9375 
Q 23.390625 74.21875 37.203125 74.21875 
Q 40.921875 74.21875 44.703125 73.484375 
Q 48.484375 72.75 52.59375 71.296875 
z
" id="DejaVuSans-54"/>
      </defs>
      <g transform="translate(635.14795 329.598437)scale(0.1 -0.1)">
       <use xlink:href="#DejaVuSans-54"/>
       <use x="63.623047" xlink:href="#DejaVuSans-48"/>
       <use x="127.246094" xlink:href="#DejaVuSans-48"/>
      </g>
     </g>
    </g>
    <g id="text_8">
     <!-- epoch -->
     <defs>
      <path d="M 56.203125 29.59375 
L 56.203125 25.203125 
L 14.890625 25.203125 
Q 15.484375 15.921875 20.484375 11.0625 
Q 25.484375 6.203125 34.421875 6.203125 
Q 39.59375 6.203125 44.453125 7.46875 
Q 49.3125 8.734375 54.109375 11.28125 
L 54.109375 2.78125 
Q 49.265625 0.734375 44.1875 -0.34375 
Q 39.109375 -1.421875 33.890625 -1.421875 
Q 20.796875 -1.421875 13.15625 6.1875 
Q 5.515625 13.8125 5.515625 26.8125 
Q 5.515625 40.234375 12.765625 48.109375 
Q 20.015625 56 32.328125 56 
Q 43.359375 56 49.78125 48.890625 
Q 56.203125 41.796875 56.203125 29.59375 
z
M 47.21875 32.234375 
Q 47.125 39.59375 43.09375 43.984375 
Q 39.0625 48.390625 32.421875 48.390625 
Q 24.90625 48.390625 20.390625 44.140625 
Q 15.875 39.890625 15.1875 32.171875 
z
" id="DejaVuSans-101"/>
      <path d="M 18.109375 8.203125 
L 18.109375 -20.796875 
L 9.078125 -20.796875 
L 9.078125 54.6875 
L 18.109375 54.6875 
L 18.109375 46.390625 
Q 20.953125 51.265625 25.265625 53.625 
Q 29.59375 56 35.59375 56 
Q 45.5625 56 51.78125 48.09375 
Q 58.015625 40.1875 58.015625 27.296875 
Q 58.015625 14.40625 51.78125 6.484375 
Q 45.5625 -1.421875 35.59375 -1.421875 
Q 29.59375 -1.421875 25.265625 0.953125 
Q 20.953125 3.328125 18.109375 8.203125 
z
M 48.6875 27.296875 
Q 48.6875 37.203125 44.609375 42.84375 
Q 40.53125 48.484375 33.40625 48.484375 
Q 26.265625 48.484375 22.1875 42.84375 
Q 18.109375 37.203125 18.109375 27.296875 
Q 18.109375 17.390625 22.1875 11.75 
Q 26.265625 6.109375 33.40625 6.109375 
Q 40.53125 6.109375 44.609375 11.75 
Q 48.6875 17.390625 48.6875 27.296875 
z
" id="DejaVuSans-112"/>
      <path d="M 30.609375 48.390625 
Q 23.390625 48.390625 19.1875 42.75 
Q 14.984375 37.109375 14.984375 27.296875 
Q 14.984375 17.484375 19.15625 11.84375 
Q 23.34375 6.203125 30.609375 6.203125 
Q 37.796875 6.203125 41.984375 11.859375 
Q 46.1875 17.53125 46.1875 27.296875 
Q 46.1875 37.015625 41.984375 42.703125 
Q 37.796875 48.390625 30.609375 48.390625 
z
M 30.609375 56 
Q 42.328125 56 49.015625 48.375 
Q 55.71875 40.765625 55.71875 27.296875 
Q 55.71875 13.875 49.015625 6.21875 
Q 42.328125 -1.421875 30.609375 -1.421875 
Q 18.84375 -1.421875 12.171875 6.21875 
Q 5.515625 13.875 5.515625 27.296875 
Q 5.515625 40.765625 12.171875 48.375 
Q 18.84375 56 30.609375 56 
z
" id="DejaVuSans-111"/>
      <path d="M 48.78125 52.59375 
L 48.78125 44.1875 
Q 44.96875 46.296875 41.140625 47.34375 
Q 37.3125 48.390625 33.40625 48.390625 
Q 24.65625 48.390625 19.8125 42.84375 
Q 14.984375 37.3125 14.984375 27.296875 
Q 14.984375 17.28125 19.8125 11.734375 
Q 24.65625 6.203125 33.40625 6.203125 
Q 37.3125 6.203125 41.140625 7.25 
Q 44.96875 8.296875 48.78125 10.40625 
L 48.78125 2.09375 
Q 45.015625 0.34375 40.984375 -0.53125 
Q 36.96875 -1.421875 32.421875 -1.421875 
Q 20.0625 -1.421875 12.78125 6.34375 
Q 5.515625 14.109375 5.515625 27.296875 
Q 5.515625 40.671875 12.859375 48.328125 
Q 20.21875 56 33.015625 56 
Q 37.15625 56 41.109375 55.140625 
Q 45.0625 54.296875 48.78125 52.59375 
z
" id="DejaVuSans-99"/>
      <path d="M 54.890625 33.015625 
L 54.890625 0 
L 45.90625 0 
L 45.90625 32.71875 
Q 45.90625 40.484375 42.875 44.328125 
Q 39.84375 48.1875 33.796875 48.1875 
Q 26.515625 48.1875 22.3125 43.546875 
Q 18.109375 38.921875 18.109375 30.90625 
L 18.109375 0 
L 9.078125 0 
L 9.078125 75.984375 
L 18.109375 75.984375 
L 18.109375 46.1875 
Q 21.34375 51.125 25.703125 53.5625 
Q 30.078125 56 35.796875 56 
Q 45.21875 56 50.046875 50.171875 
Q 54.890625 44.34375 54.890625 33.015625 
z
" id="DejaVuSans-104"/>
     </defs>
     <g transform="translate(353.771875 343.276563)scale(0.1 -0.1)">
      <use xlink:href="#DejaVuSans-101"/>
      <use x="61.523438" xlink:href="#DejaVuSans-112"/>
      <use x="125" xlink:href="#DejaVuSans-111"/>
      <use x="186.181641" xlink:href="#DejaVuSans-99"/>
      <use x="241.162109" xlink:href="#DejaVuSans-104"/>
     </g>
    </g>
   </g>
   <g id="matplotlib.axis_2">
    <g id="ytick_1">
     <g id="line2d_15">
      <path clip-path="url(#p70e710a227)" d="M 90 278.624531 
L 648 278.624531 
" style="fill:none;stroke:#b0b0b0;stroke-linecap:square;stroke-width:0.8;"/>
     </g>
     <g id="line2d_16">
      <defs>
       <path d="M 0 0 
L -3.5 0 
" id="mfc65b823d3" style="stroke:#000000;stroke-width:0.8;"/>
      </defs>
      <g>
       <use style="stroke:#000000;stroke-width:0.8;" x="90" xlink:href="#mfc65b823d3" y="278.624531"/>
      </g>
     </g>
     <g id="text_9">
      <!-- 0.4 -->
      <defs>
       <path d="M 10.6875 12.40625 
L 21 12.40625 
L 21 0 
L 10.6875 0 
z
" id="DejaVuSans-46"/>
      </defs>
      <g transform="translate(67.096875 282.423749)scale(0.1 -0.1)">
       <use xlink:href="#DejaVuSans-48"/>
       <use x="63.623047" xlink:href="#DejaVuSans-46"/>
       <use x="95.410156" xlink:href="#DejaVuSans-52"/>
      </g>
     </g>
    </g>
    <g id="ytick_2">
     <g id="line2d_17">
      <path clip-path="url(#p70e710a227)" d="M 90 239.671681 
L 648 239.671681 
" style="fill:none;stroke:#b0b0b0;stroke-linecap:square;stroke-width:0.8;"/>
     </g>
     <g id="line2d_18">
      <g>
       <use style="stroke:#000000;stroke-width:0.8;" x="90" xlink:href="#mfc65b823d3" y="239.671681"/>
      </g>
     </g>
     <g id="text_10">
      <!-- 0.5 -->
      <g transform="translate(67.096875 243.4709)scale(0.1 -0.1)">
       <use xlink:href="#DejaVuSans-48"/>
       <use x="63.623047" xlink:href="#DejaVuSans-46"/>
       <use x="95.410156" xlink:href="#DejaVuSans-53"/>
      </g>
     </g>
    </g>
    <g id="ytick_3">
     <g id="line2d_19">
      <path clip-path="url(#p70e710a227)" d="M 90 200.718832 
L 648 200.718832 
" style="fill:none;stroke:#b0b0b0;stroke-linecap:square;stroke-width:0.8;"/>
     </g>
     <g id="line2d_20">
      <g>
       <use style="stroke:#000000;stroke-width:0.8;" x="90" xlink:href="#mfc65b823d3" y="200.718832"/>
      </g>
     </g>
     <g id="text_11">
      <!-- 0.6 -->
      <g transform="translate(67.096875 204.51805)scale(0.1 -0.1)">
       <use xlink:href="#DejaVuSans-48"/>
       <use x="63.623047" xlink:href="#DejaVuSans-46"/>
       <use x="95.410156" xlink:href="#DejaVuSans-54"/>
      </g>
     </g>
    </g>
    <g id="ytick_4">
     <g id="line2d_21">
      <path clip-path="url(#p70e710a227)" d="M 90 161.765982 
L 648 161.765982 
" style="fill:none;stroke:#b0b0b0;stroke-linecap:square;stroke-width:0.8;"/>
     </g>
     <g id="line2d_22">
      <g>
       <use style="stroke:#000000;stroke-width:0.8;" x="90" xlink:href="#mfc65b823d3" y="161.765982"/>
      </g>
     </g>
     <g id="text_12">
      <!-- 0.7 -->
      <defs>
       <path d="M 8.203125 72.90625 
L 55.078125 72.90625 
L 55.078125 68.703125 
L 28.609375 0 
L 18.3125 0 
L 43.21875 64.59375 
L 8.203125 64.59375 
z
" id="DejaVuSans-55"/>
      </defs>
      <g transform="translate(67.096875 165.565201)scale(0.1 -0.1)">
       <use xlink:href="#DejaVuSans-48"/>
       <use x="63.623047" xlink:href="#DejaVuSans-46"/>
       <use x="95.410156" xlink:href="#DejaVuSans-55"/>
      </g>
     </g>
    </g>
    <g id="ytick_5">
     <g id="line2d_23">
      <path clip-path="url(#p70e710a227)" d="M 90 122.813132 
L 648 122.813132 
" style="fill:none;stroke:#b0b0b0;stroke-linecap:square;stroke-width:0.8;"/>
     </g>
     <g id="line2d_24">
      <g>
       <use style="stroke:#000000;stroke-width:0.8;" x="90" xlink:href="#mfc65b823d3" y="122.813132"/>
      </g>
     </g>
     <g id="text_13">
      <!-- 0.8 -->
      <defs>
       <path d="M 31.78125 34.625 
Q 24.75 34.625 20.71875 30.859375 
Q 16.703125 27.09375 16.703125 20.515625 
Q 16.703125 13.921875 20.71875 10.15625 
Q 24.75 6.390625 31.78125 6.390625 
Q 38.8125 6.390625 42.859375 10.171875 
Q 46.921875 13.96875 46.921875 20.515625 
Q 46.921875 27.09375 42.890625 30.859375 
Q 38.875 34.625 31.78125 34.625 
z
M 21.921875 38.8125 
Q 15.578125 40.375 12.03125 44.71875 
Q 8.5 49.078125 8.5 55.328125 
Q 8.5 64.0625 14.71875 69.140625 
Q 20.953125 74.21875 31.78125 74.21875 
Q 42.671875 74.21875 48.875 69.140625 
Q 55.078125 64.0625 55.078125 55.328125 
Q 55.078125 49.078125 51.53125 44.71875 
Q 48 40.375 41.703125 38.8125 
Q 48.828125 37.15625 52.796875 32.3125 
Q 56.78125 27.484375 56.78125 20.515625 
Q 56.78125 9.90625 50.3125 4.234375 
Q 43.84375 -1.421875 31.78125 -1.421875 
Q 19.734375 -1.421875 13.25 4.234375 
Q 6.78125 9.90625 6.78125 20.515625 
Q 6.78125 27.484375 10.78125 32.3125 
Q 14.796875 37.15625 21.921875 38.8125 
z
M 18.3125 54.390625 
Q 18.3125 48.734375 21.84375 45.5625 
Q 25.390625 42.390625 31.78125 42.390625 
Q 38.140625 42.390625 41.71875 45.5625 
Q 45.3125 48.734375 45.3125 54.390625 
Q 45.3125 60.0625 41.71875 63.234375 
Q 38.140625 66.40625 31.78125 66.40625 
Q 25.390625 66.40625 21.84375 63.234375 
Q 18.3125 60.0625 18.3125 54.390625 
z
" id="DejaVuSans-56"/>
      </defs>
      <g transform="translate(67.096875 126.612351)scale(0.1 -0.1)">
       <use xlink:href="#DejaVuSans-48"/>
       <use x="63.623047" xlink:href="#DejaVuSans-46"/>
       <use x="95.410156" xlink:href="#DejaVuSans-56"/>
      </g>
     </g>
    </g>
    <g id="ytick_6">
     <g id="line2d_25">
      <path clip-path="url(#p70e710a227)" d="M 90 83.860283 
L 648 83.860283 
" style="fill:none;stroke:#b0b0b0;stroke-linecap:square;stroke-width:0.8;"/>
     </g>
     <g id="line2d_26">
      <g>
       <use style="stroke:#000000;stroke-width:0.8;" x="90" xlink:href="#mfc65b823d3" y="83.860283"/>
      </g>
     </g>
     <g id="text_14">
      <!-- 0.9 -->
      <defs>
       <path d="M 10.984375 1.515625 
L 10.984375 10.5 
Q 14.703125 8.734375 18.5 7.8125 
Q 22.3125 6.890625 25.984375 6.890625 
Q 35.75 6.890625 40.890625 13.453125 
Q 46.046875 20.015625 46.78125 33.40625 
Q 43.953125 29.203125 39.59375 26.953125 
Q 35.25 24.703125 29.984375 24.703125 
Q 19.046875 24.703125 12.671875 31.3125 
Q 6.296875 37.9375 6.296875 49.421875 
Q 6.296875 60.640625 12.9375 67.421875 
Q 19.578125 74.21875 30.609375 74.21875 
Q 43.265625 74.21875 49.921875 64.515625 
Q 56.59375 54.828125 56.59375 36.375 
Q 56.59375 19.140625 48.40625 8.859375 
Q 40.234375 -1.421875 26.421875 -1.421875 
Q 22.703125 -1.421875 18.890625 -0.6875 
Q 15.09375 0.046875 10.984375 1.515625 
z
M 30.609375 32.421875 
Q 37.25 32.421875 41.125 36.953125 
Q 45.015625 41.5 45.015625 49.421875 
Q 45.015625 57.28125 41.125 61.84375 
Q 37.25 66.40625 30.609375 66.40625 
Q 23.96875 66.40625 20.09375 61.84375 
Q 16.21875 57.28125 16.21875 49.421875 
Q 16.21875 41.5 20.09375 36.953125 
Q 23.96875 32.421875 30.609375 32.421875 
z
" id="DejaVuSans-57"/>
      </defs>
      <g transform="translate(67.096875 87.659502)scale(0.1 -0.1)">
       <use xlink:href="#DejaVuSans-48"/>
       <use x="63.623047" xlink:href="#DejaVuSans-46"/>
       <use x="95.410156" xlink:href="#DejaVuSans-57"/>
      </g>
     </g>
    </g>
    <g id="ytick_7">
     <g id="line2d_27">
      <path clip-path="url(#p70e710a227)" d="M 90 44.907433 
L 648 44.907433 
" style="fill:none;stroke:#b0b0b0;stroke-linecap:square;stroke-width:0.8;"/>
     </g>
     <g id="line2d_28">
      <g>
       <use style="stroke:#000000;stroke-width:0.8;" x="90" xlink:href="#mfc65b823d3" y="44.907433"/>
      </g>
     </g>
     <g id="text_15">
      <!-- 1.0 -->
      <g transform="translate(67.096875 48.706652)scale(0.1 -0.1)">
       <use xlink:href="#DejaVuSans-49"/>
       <use x="63.623047" xlink:href="#DejaVuSans-46"/>
       <use x="95.410156" xlink:href="#DejaVuSans-48"/>
      </g>
     </g>
    </g>
    <g id="text_16">
     <!-- accuracy -->
     <defs>
      <path d="M 34.28125 27.484375 
Q 23.390625 27.484375 19.1875 25 
Q 14.984375 22.515625 14.984375 16.5 
Q 14.984375 11.71875 18.140625 8.90625 
Q 21.296875 6.109375 26.703125 6.109375 
Q 34.1875 6.109375 38.703125 11.40625 
Q 43.21875 16.703125 43.21875 25.484375 
L 43.21875 27.484375 
z
M 52.203125 31.203125 
L 52.203125 0 
L 43.21875 0 
L 43.21875 8.296875 
Q 40.140625 3.328125 35.546875 0.953125 
Q 30.953125 -1.421875 24.3125 -1.421875 
Q 15.921875 -1.421875 10.953125 3.296875 
Q 6 8.015625 6 15.921875 
Q 6 25.140625 12.171875 29.828125 
Q 18.359375 34.515625 30.609375 34.515625 
L 43.21875 34.515625 
L 43.21875 35.40625 
Q 43.21875 41.609375 39.140625 45 
Q 35.0625 48.390625 27.6875 48.390625 
Q 23 48.390625 18.546875 47.265625 
Q 14.109375 46.140625 10.015625 43.890625 
L 10.015625 52.203125 
Q 14.9375 54.109375 19.578125 55.046875 
Q 24.21875 56 28.609375 56 
Q 40.484375 56 46.34375 49.84375 
Q 52.203125 43.703125 52.203125 31.203125 
z
" id="DejaVuSans-97"/>
      <path d="M 8.5 21.578125 
L 8.5 54.6875 
L 17.484375 54.6875 
L 17.484375 21.921875 
Q 17.484375 14.15625 20.5 10.265625 
Q 23.53125 6.390625 29.59375 6.390625 
Q 36.859375 6.390625 41.078125 11.03125 
Q 45.3125 15.671875 45.3125 23.6875 
L 45.3125 54.6875 
L 54.296875 54.6875 
L 54.296875 0 
L 45.3125 0 
L 45.3125 8.40625 
Q 42.046875 3.421875 37.71875 1 
Q 33.40625 -1.421875 27.6875 -1.421875 
Q 18.265625 -1.421875 13.375 4.4375 
Q 8.5 10.296875 8.5 21.578125 
z
M 31.109375 56 
z
" id="DejaVuSans-117"/>
      <path d="M 41.109375 46.296875 
Q 39.59375 47.171875 37.8125 47.578125 
Q 36.03125 48 33.890625 48 
Q 26.265625 48 22.1875 43.046875 
Q 18.109375 38.09375 18.109375 28.8125 
L 18.109375 0 
L 9.078125 0 
L 9.078125 54.6875 
L 18.109375 54.6875 
L 18.109375 46.1875 
Q 20.953125 51.171875 25.484375 53.578125 
Q 30.03125 56 36.53125 56 
Q 37.453125 56 38.578125 55.875 
Q 39.703125 55.765625 41.0625 55.515625 
z
" id="DejaVuSans-114"/>
      <path d="M 32.171875 -5.078125 
Q 28.375 -14.84375 24.75 -17.8125 
Q 21.140625 -20.796875 15.09375 -20.796875 
L 7.90625 -20.796875 
L 7.90625 -13.28125 
L 13.1875 -13.28125 
Q 16.890625 -13.28125 18.9375 -11.515625 
Q 21 -9.765625 23.484375 -3.21875 
L 25.09375 0.875 
L 2.984375 54.6875 
L 12.5 54.6875 
L 29.59375 11.921875 
L 46.6875 54.6875 
L 56.203125 54.6875 
z
" id="DejaVuSans-121"/>
     </defs>
     <g transform="translate(61.017187 201.659375)rotate(-90)scale(0.1 -0.1)">
      <use xlink:href="#DejaVuSans-97"/>
      <use x="61.279297" xlink:href="#DejaVuSans-99"/>
      <use x="116.259766" xlink:href="#DejaVuSans-99"/>
      <use x="171.240234" xlink:href="#DejaVuSans-117"/>
      <use x="234.619141" xlink:href="#DejaVuSans-114"/>
      <use x="275.732422" xlink:href="#DejaVuSans-97"/>
      <use x="337.011719" xlink:href="#DejaVuSans-99"/>
      <use x="391.992188" xlink:href="#DejaVuSans-121"/>
     </g>
    </g>
   </g>
   <g id="line2d_29">
    <path clip-path="url(#p70e710a227)" d="M 115.363636 302.255926 
L 116.24585 302.645455 
L 117.128063 289.271643 
L 118.010277 291.738657 
L 118.89249 286.674786 
L 119.774704 287.324 
L 120.656917 284.856987 
L 121.53913 284.07793 
L 122.421344 274.209874 
L 123.303557 276.28736 
L 124.185771 268.107261 
L 125.067984 272.65176 
L 125.950198 270.574275 
L 126.832411 271.742861 
L 127.714625 269.535532 
L 128.596838 263.952291 
L 129.479051 266.808833 
L 130.361265 265.120876 
L 131.243478 266.419304 
L 132.125692 259.018263 
L 133.007905 255.252821 
L 133.890119 253.564864 
L 134.772332 246.553351 
L 135.654545 250.578479 
L 136.536759 239.801524 
L 137.418972 245.904137 
L 138.301186 236.685296 
L 139.183399 243.956495 
L 140.065613 237.594196 
L 140.947826 232.140797 
L 141.83004 231.231897 
L 142.712253 222.402584 
L 143.594466 220.195256 
L 144.47668 220.454942 
L 145.358893 208.379559 
L 146.241107 211.755472 
L 148.005534 199.29056 
L 148.887747 196.174332 
L 149.76996 188.124077 
L 150.652174 185.397377 
L 151.534387 183.839263 
L 152.416601 173.062308 
L 153.298814 173.58168 
L 154.181028 174.880108 
L 155.063241 168.128281 
L 155.945455 166.440324 
L 156.827668 164.232996 
L 157.709881 155.923055 
L 158.592095 158.390068 
L 159.474308 151.508398 
L 160.356522 148.39217 
L 161.238735 149.041384 
L 162.120949 143.587985 
L 163.003162 141.900029 
L 163.885375 142.4194 
L 164.767589 143.847671 
L 165.649802 139.303172 
L 166.532016 131.902131 
L 167.414229 131.642445 
L 168.296443 130.344017 
L 169.178656 130.214174 
L 170.06087 124.241404 
L 170.943083 125.669675 
L 171.825296 127.487474 
L 172.70751 121.514704 
L 173.589723 119.567062 
L 174.471937 119.04769 
L 175.35415 115.801619 
L 176.236364 117.359733 
L 177.118577 113.724134 
L 178.000791 112.945077 
L 179.765217 110.737749 
L 180.647431 115.022562 
L 181.529644 112.945077 
L 182.411858 108.400578 
L 183.294071 109.828849 
L 184.176285 110.478063 
L 185.940711 109.049792 
L 186.822925 104.37545 
L 187.705138 104.115765 
L 188.587352 107.231993 
L 189.469565 103.596393 
L 190.351779 101.778594 
L 191.233992 103.336708 
L 192.116206 99.31158 
L 192.998419 102.687493 
L 193.880632 100.22048 
L 194.762846 102.557651 
L 195.645059 98.40268 
L 196.527273 99.571265 
L 197.409486 100.480165 
L 198.2917 97.49378 
L 199.173913 96.714723 
L 200.056126 97.753466 
L 200.93834 96.58488 
L 201.820553 96.325195 
L 202.702767 95.935666 
L 203.58498 94.117867 
L 204.467194 95.935666 
L 205.349407 92.170224 
L 206.231621 93.33881 
L 207.113834 93.079124 
L 207.996047 95.026766 
L 208.878261 95.286452 
L 209.760474 94.117867 
L 210.642688 91.780696 
L 211.524901 97.363937 
L 212.407115 89.183839 
L 213.289328 95.286452 
L 214.171542 92.689595 
L 215.053755 89.443525 
L 215.935968 91.780696 
L 216.818182 90.871796 
L 217.700395 88.79431 
L 218.582609 89.962896 
L 219.464822 89.183839 
L 220.347036 89.962896 
L 221.229249 89.313682 
L 222.111462 89.573367 
L 222.993676 85.418397 
L 223.875889 84.63934 
L 224.758103 88.015253 
L 225.640316 89.962896 
L 226.52253 85.158711 
L 227.404743 88.404782 
L 228.286957 86.586982 
L 229.16917 88.404782 
L 230.051383 85.807925 
L 230.933597 86.067611 
L 231.81581 84.119968 
L 232.698024 88.274939 
L 233.580237 85.418397 
L 234.462451 83.340911 
L 235.344664 84.509497 
L 236.226877 86.586982 
L 237.109091 87.366039 
L 237.991304 84.63934 
L 238.873518 86.976511 
L 239.755731 85.158711 
L 240.637945 84.249811 
L 241.520158 82.951383 
L 242.402372 84.63934 
L 243.284585 84.119968 
L 244.166798 84.249811 
L 245.049012 86.067611 
L 245.931225 81.263426 
L 246.813439 83.211069 
L 247.695652 82.82154 
L 248.577866 81.133583 
L 249.460079 82.561854 
L 250.342292 82.432012 
L 251.224506 79.835155 
L 252.106719 83.081226 
L 252.988933 82.302169 
L 253.871146 80.744055 
L 254.75336 83.860283 
L 255.635573 83.860283 
L 256.517787 79.835155 
L 257.4 82.561854 
L 258.282213 81.003741 
L 259.164427 78.796412 
L 260.928854 78.536727 
L 261.811067 80.354526 
L 262.693281 79.575469 
L 263.575494 80.873898 
L 264.457708 77.627827 
L 265.339921 79.835155 
L 266.222134 77.108456 
L 267.104348 79.056098 
L 267.986561 78.926255 
L 268.868775 76.978613 
L 269.750988 80.354526 
L 270.633202 76.199556 
L 272.397628 80.354526 
L 273.279842 78.017355 
L 274.162055 79.835155 
L 275.044269 75.810027 
L 275.926482 79.185941 
L 276.808696 77.627827 
L 277.690909 77.627827 
L 278.573123 78.147198 
L 279.455336 78.926255 
L 280.337549 75.810027 
L 281.219763 76.329399 
L 282.101976 77.627827 
L 282.98419 75.550342 
L 283.866403 76.84877 
L 284.748617 75.810027 
L 285.63083 76.329399 
L 287.395257 75.03097 
L 288.27747 78.147198 
L 289.159684 77.108456 
L 290.041897 73.862385 
L 290.924111 76.589084 
L 291.806324 73.602699 
L 292.688538 74.511599 
L 293.570751 74.901127 
L 294.452964 77.238298 
L 295.335178 76.718927 
L 296.217391 74.381756 
L 297.099605 75.810027 
L 297.981818 73.732542 
L 298.864032 73.862385 
L 299.746245 74.641442 
L 300.628458 72.693799 
L 301.510672 75.550342 
L 302.392885 77.497984 
L 303.275099 73.862385 
L 304.157312 78.277041 
L 305.039526 74.511599 
L 305.921739 74.901127 
L 306.803953 73.992228 
L 307.686166 75.550342 
L 308.568379 75.420499 
L 309.450593 75.93987 
L 310.332806 72.953485 
L 311.21502 74.901127 
L 312.097233 75.160813 
L 312.979447 71.395371 
L 313.86166 74.12207 
L 314.743874 76.459241 
L 315.626087 73.213171 
L 316.5083 73.992228 
L 317.390514 75.680184 
L 318.272727 73.083328 
L 319.154941 72.693799 
L 320.037154 72.174428 
L 320.919368 73.083328 
L 321.801581 70.356628 
L 322.683794 72.693799 
L 323.566008 71.655057 
L 324.448221 72.434114 
L 325.330435 72.434114 
L 326.212648 72.044585 
L 327.094862 72.823642 
L 327.977075 72.304271 
L 328.859289 69.577571 
L 329.741502 70.226785 
L 330.623715 71.525214 
L 331.505929 73.602699 
L 332.388142 71.914742 
L 333.270356 72.304271 
L 334.152569 72.563956 
L 335.034783 72.434114 
L 335.916996 72.563956 
L 336.799209 74.12207 
L 337.681423 72.823642 
L 338.563636 70.746157 
L 339.44585 72.823642 
L 340.328063 71.005842 
L 341.210277 72.304271 
L 342.09249 70.486471 
L 342.974704 72.953485 
L 343.856917 70.746157 
L 344.73913 71.655057 
L 345.621344 71.784899 
L 346.503557 71.655057 
L 347.385771 71.005842 
L 348.267984 68.668671 
L 349.150198 69.317886 
L 350.032411 69.577571 
L 350.914625 72.174428 
L 351.796838 73.602699 
L 352.679051 68.1493 
L 354.443478 70.616314 
L 355.325692 69.837257 
L 356.207905 69.837257 
L 357.090119 71.655057 
L 357.972332 70.096943 
L 358.854545 71.395371 
L 359.736759 68.538829 
L 360.618972 68.798514 
L 361.501186 69.837257 
L 362.383399 69.837257 
L 363.265613 69.9671 
L 364.147826 66.850872 
L 365.03004 69.707414 
L 365.912253 71.135685 
L 366.794466 69.188043 
L 367.67668 68.1493 
L 368.558893 68.279143 
L 369.441107 66.721029 
L 370.32332 67.370243 
L 371.205534 68.279143 
L 372.087747 68.798514 
L 373.852174 67.500086 
L 374.734387 64.513701 
L 375.616601 69.188043 
L 376.498814 66.721029 
L 377.381028 66.591186 
L 378.263241 70.746157 
L 379.145455 69.577571 
L 380.027668 70.096943 
L 380.909881 69.317886 
L 381.792095 67.759772 
L 382.674308 69.577571 
L 383.556522 69.317886 
L 384.438735 66.591186 
L 385.320949 69.9671 
L 386.203162 69.9671 
L 387.085375 68.1493 
L 387.967589 67.629929 
L 388.849802 68.928357 
L 389.732016 64.773387 
L 390.614229 68.538829 
L 391.496443 69.317886 
L 392.378656 70.616314 
L 393.26087 65.552444 
L 394.143083 67.2404 
L 395.025296 68.408986 
L 395.90751 68.019457 
L 396.789723 66.721029 
L 397.671937 67.2404 
L 398.55415 68.538829 
L 399.436364 67.110557 
L 400.318577 68.1493 
L 401.200791 65.162915 
L 402.083004 68.019457 
L 402.965217 66.850872 
L 403.847431 67.370243 
L 404.729644 63.99433 
L 405.611858 66.071815 
L 406.494071 66.721029 
L 407.376285 69.317886 
L 408.258498 66.201658 
L 409.140711 68.408986 
L 410.022925 65.162915 
L 410.905138 68.019457 
L 411.787352 66.461343 
L 412.669565 66.071815 
L 413.551779 65.552444 
L 414.433992 66.201658 
L 415.316206 66.591186 
L 416.198419 64.124172 
L 417.080632 66.461343 
L 417.962846 65.033072 
L 418.845059 67.500086 
L 419.727273 68.408986 
L 420.609486 65.682286 
L 421.4917 66.331501 
L 422.373913 63.604801 
L 423.256126 63.99433 
L 424.13834 66.591186 
L 425.020553 66.331501 
L 425.902767 65.292758 
L 426.78498 66.201658 
L 427.667194 64.513701 
L 428.549407 64.643544 
L 429.431621 66.721029 
L 430.313834 65.812129 
L 431.196047 65.941972 
L 432.078261 61.916844 
L 432.960474 66.071815 
L 433.842688 64.513701 
L 434.724901 64.254015 
L 435.607115 63.864487 
L 436.489328 61.657159 
L 437.371542 62.17653 
L 438.253755 64.903229 
L 439.135968 63.604801 
L 440.018182 63.864487 
L 440.900395 68.798514 
L 441.782609 63.08543 
L 442.664822 63.474958 
L 443.547036 63.215273 
L 444.429249 62.825744 
L 445.311462 64.513701 
L 446.193676 64.773387 
L 447.075889 66.980715 
L 447.958103 62.17653 
L 448.840316 63.08543 
L 449.72253 65.552444 
L 450.604743 65.162915 
L 452.36917 62.695901 
L 453.251383 64.254015 
L 454.133597 65.422601 
L 455.01581 63.215273 
L 455.898024 62.046687 
L 456.780237 64.383858 
L 457.662451 64.903229 
L 458.544664 63.345115 
L 459.426877 62.825744 
L 460.309091 61.916844 
L 461.191304 65.162915 
L 462.073518 60.099045 
L 462.955731 63.345115 
L 463.837945 61.916844 
L 464.720158 66.331501 
L 465.602372 64.254015 
L 466.484585 64.254015 
L 467.366798 63.99433 
L 468.249012 62.825744 
L 469.131225 62.695901 
L 470.013439 62.825744 
L 470.895652 63.08543 
L 471.777866 62.825744 
L 472.660079 63.734644 
L 473.542292 63.474958 
L 474.424506 63.864487 
L 475.306719 62.046687 
L 476.188933 61.787001 
L 477.071146 62.046687 
L 477.95336 65.033072 
L 478.835573 64.513701 
L 479.717787 63.215273 
L 480.6 62.955587 
L 482.364427 64.254015 
L 483.24664 63.604801 
L 484.128854 59.839359 
L 485.011067 60.878102 
L 485.893281 62.695901 
L 486.775494 62.825744 
L 487.657708 60.488573 
L 488.539921 61.657159 
L 489.422134 58.670773 
L 490.304348 62.17653 
L 491.186561 64.903229 
L 492.068775 60.488573 
L 492.950988 64.124172 
L 493.833202 63.215273 
L 494.715415 61.916844 
L 495.597628 62.046687 
L 496.479842 62.306373 
L 497.362055 63.215273 
L 498.244269 60.618416 
L 499.126482 61.787001 
L 500.008696 62.306373 
L 500.890909 60.35873 
L 501.773123 60.618416 
L 502.655336 62.436216 
L 503.537549 61.007944 
L 504.419763 60.618416 
L 505.301976 61.397473 
L 506.18419 62.955587 
L 507.066403 61.527316 
L 507.948617 61.26763 
L 508.83083 60.878102 
L 509.713043 61.527316 
L 510.595257 63.215273 
L 511.47747 59.060302 
L 512.359684 63.604801 
L 513.241897 62.046687 
L 514.124111 61.787001 
L 515.006324 60.488573 
L 515.888538 61.527316 
L 516.770751 60.488573 
L 517.652964 60.748259 
L 518.535178 61.787001 
L 519.417391 59.969202 
L 520.299605 60.878102 
L 521.181818 59.579673 
L 522.064032 61.527316 
L 522.946245 62.306373 
L 523.828458 60.488573 
L 524.710672 63.08543 
L 525.592885 62.046687 
L 526.475099 62.046687 
L 527.357312 61.007944 
L 528.239526 57.891716 
L 529.121739 60.228887 
L 530.003953 60.35873 
L 530.886166 60.878102 
L 531.768379 60.618416 
L 532.650593 60.878102 
L 533.532806 62.046687 
L 534.41502 59.060302 
L 535.297233 59.709516 
L 536.179447 61.527316 
L 537.06166 59.44983 
L 537.943874 60.228887 
L 538.826087 57.372345 
L 539.7083 62.955587 
L 540.590514 61.007944 
L 541.472727 62.17653 
L 542.354941 58.800616 
L 543.237154 60.748259 
L 544.119368 60.488573 
L 545.001581 60.748259 
L 545.883794 58.800616 
L 546.766008 59.190145 
L 547.648221 60.748259 
L 548.530435 58.281245 
L 549.412648 60.488573 
L 550.294862 59.839359 
L 551.177075 56.982817 
L 552.059289 61.787001 
L 552.941502 62.306373 
L 553.823715 58.540931 
L 554.705929 59.060302 
L 555.588142 58.670773 
L 556.470356 58.800616 
L 557.352569 58.151402 
L 558.234783 58.540931 
L 559.116996 60.228887 
L 559.999209 59.709516 
L 560.881423 59.44983 
L 561.763636 61.007944 
L 562.64585 59.579673 
L 563.528063 60.35873 
L 564.410277 59.969202 
L 565.29249 57.761874 
L 566.174704 60.228887 
L 567.056917 58.930459 
L 567.93913 61.527316 
L 568.821344 61.916844 
L 569.703557 58.151402 
L 570.585771 62.17653 
L 571.467984 57.112659 
L 572.350198 61.527316 
L 573.232411 58.540931 
L 574.114625 57.761874 
L 574.996838 59.709516 
L 575.879051 60.878102 
L 576.761265 59.969202 
L 577.643478 58.281245 
L 578.525692 59.060302 
L 579.407905 58.930459 
L 580.290119 61.657159 
L 581.172332 57.632031 
L 582.054545 58.151402 
L 582.936759 59.44983 
L 583.818972 59.839359 
L 584.701186 60.618416 
L 585.583399 57.502188 
L 586.465613 61.137787 
L 587.347826 57.502188 
L 588.23004 58.281245 
L 589.112253 60.228887 
L 589.994466 59.709516 
L 591.758893 57.761874 
L 592.641107 58.800616 
L 593.52332 57.112659 
L 594.405534 58.021559 
L 595.287747 57.761874 
L 596.16996 59.060302 
L 597.052174 59.44983 
L 597.934387 57.502188 
L 598.816601 57.891716 
L 599.698814 60.618416 
L 600.581028 57.502188 
L 601.463241 57.761874 
L 602.345455 56.593288 
L 603.227668 56.593288 
L 604.109881 58.151402 
L 604.992095 59.190145 
L 605.874308 59.319988 
L 606.756522 57.242502 
L 607.638735 58.800616 
L 608.520949 58.151402 
L 609.403162 56.982817 
L 610.285375 59.839359 
L 611.167589 60.35873 
L 612.049802 56.463445 
L 612.932016 55.554545 
L 613.814229 58.021559 
L 614.696443 57.891716 
L 615.578656 57.502188 
L 616.46087 56.333602 
L 617.343083 57.891716 
L 618.225296 59.060302 
L 619.10751 57.372345 
L 619.989723 58.151402 
L 620.871937 57.891716 
L 621.75415 56.723131 
L 622.636364 59.190145 
L 622.636364 59.190145 
" style="fill:none;stroke:#1f77b4;stroke-linecap:square;stroke-width:0.5;"/>
   </g>
   <g id="line2d_30">
    <path clip-path="url(#p70e710a227)" d="M 115.363636 296.412999 
L 116.24585 296.542841 
L 117.128063 297.192056 
L 118.010277 292.647556 
L 118.89249 295.504099 
L 119.774704 289.661171 
L 120.656917 290.9596 
L 121.53913 287.064315 
L 122.421344 294.465356 
L 124.185771 277.455945 
L 125.067984 281.481073 
L 125.950198 282.909344 
L 126.832411 282.779501 
L 127.714625 277.715631 
L 128.596838 273.430817 
L 129.479051 271.872703 
L 130.361265 266.419304 
L 131.243478 270.574275 
L 132.125692 264.991033 
L 133.007905 274.080032 
L 133.890119 263.303076 
L 134.772332 259.148106 
L 135.654545 270.444432 
L 136.536759 255.252821 
L 137.418972 254.214078 
L 138.301186 252.396279 
L 139.183399 250.318793 
L 140.065613 243.177438 
L 140.947826 243.696809 
L 141.83004 242.268538 
L 143.594466 231.491583 
L 144.47668 228.764883 
L 145.358893 221.233999 
L 146.241107 218.247614 
L 147.12332 216.559657 
L 148.005534 210.71673 
L 148.887747 209.158616 
L 149.76996 204.094745 
L 150.652174 200.459146 
L 151.534387 198.121975 
L 152.416601 189.941876 
L 153.298814 186.176434 
L 154.181028 179.943978 
L 155.063241 178.775393 
L 155.945455 179.164921 
L 156.827668 178.256022 
L 157.709881 174.620422 
L 158.592095 164.362839 
L 159.474308 169.037181 
L 160.356522 162.674882 
L 161.238735 163.194253 
L 162.120949 162.545039 
L 163.003162 155.27384 
L 163.885375 150.859184 
L 164.767589 151.11887 
L 165.649802 151.248713 
L 166.532016 151.768084 
L 167.414229 145.146099 
L 168.296443 147.48327 
L 169.178656 141.380657 
L 170.06087 138.653958 
L 170.943083 141.770186 
L 171.825296 134.62883 
L 172.70751 135.148201 
L 173.589723 137.35553 
L 174.471937 134.888516 
L 175.35415 132.031973 
L 176.236364 132.031973 
L 177.118577 131.772288 
L 178.000791 128.396374 
L 178.883004 128.136688 
L 179.765217 125.669675 
L 180.647431 124.760775 
L 181.529644 120.735647 
L 182.411858 125.020461 
L 183.294071 128.266531 
L 184.176285 125.280146 
L 185.058498 126.83826 
L 185.940711 126.83826 
L 186.822925 123.072818 
L 187.705138 118.13879 
L 188.587352 120.086433 
L 189.469565 117.359733 
L 190.351779 115.931462 
L 191.233992 119.04769 
L 192.116206 116.191148 
L 192.998419 116.580676 
L 193.880632 115.152405 
L 194.762846 114.762877 
L 195.645059 117.619419 
L 196.527273 115.282248 
L 197.409486 114.503191 
L 198.2917 113.07492 
L 199.173913 112.945077 
L 200.056126 112.425706 
L 200.93834 109.309478 
L 201.820553 114.503191 
L 202.702767 110.737749 
L 203.58498 112.16602 
L 204.467194 110.997435 
L 205.349407 106.712621 
L 206.231621 112.036177 
L 207.113834 109.699006 
L 207.996047 106.452936 
L 208.878261 107.881207 
L 209.760474 112.425706 
L 210.642688 107.491678 
L 211.524901 106.323093 
L 212.407115 105.933564 
L 213.289328 106.063407 
L 214.171542 109.179635 
L 215.053755 107.881207 
L 215.935968 107.491678 
L 216.818182 106.582778 
L 217.700395 104.245607 
L 218.582609 104.245607 
L 219.464822 106.19325 
L 220.347036 105.803721 
L 221.229249 102.817336 
L 222.111462 101.778594 
L 222.993676 102.687493 
L 223.875889 102.687493 
L 224.758103 104.245607 
L 225.640316 102.297965 
L 226.52253 102.297965 
L 227.404743 101.908436 
L 228.286957 104.894822 
L 229.16917 102.947179 
L 230.051383 102.557651 
L 230.933597 101.389065 
L 231.81581 100.869694 
L 232.698024 102.038279 
L 233.580237 101.518908 
L 234.462451 103.206865 
L 235.344664 101.778594 
L 236.226877 102.168122 
L 237.109091 101.648751 
L 237.991304 100.610008 
L 238.873518 100.090637 
L 239.755731 102.297965 
L 240.637945 100.090637 
L 241.520158 95.026766 
L 242.402372 96.844566 
L 243.284585 96.58488 
L 244.166798 96.195352 
L 245.049012 100.090637 
L 245.931225 99.181737 
L 246.813439 100.610008 
L 247.695652 96.455038 
L 248.577866 96.195352 
L 249.460079 97.883309 
L 250.342292 99.960794 
L 251.224506 101.259222 
L 252.106719 96.974409 
L 252.988933 99.051894 
L 253.871146 98.662366 
L 254.75336 95.416295 
L 255.635573 99.181737 
L 256.517787 97.883309 
L 257.4 95.156609 
L 258.282213 96.974409 
L 259.164427 94.507395 
L 260.04664 101.518908 
L 260.928854 95.675981 
L 261.811067 96.325195 
L 262.693281 98.532523 
L 263.575494 96.455038 
L 264.457708 100.999537 
L 266.222134 95.286452 
L 267.104348 96.714723 
L 267.986561 95.675981 
L 268.868775 98.792208 
L 269.750988 98.40268 
L 271.515415 95.675981 
L 272.397628 96.065509 
L 273.279842 94.507395 
L 274.162055 95.156609 
L 275.044269 94.247709 
L 275.926482 98.272837 
L 276.808696 95.416295 
L 277.690909 95.286452 
L 278.573123 95.286452 
L 279.455336 96.714723 
L 280.337549 98.40268 
L 281.219763 99.051894 
L 282.101976 96.974409 
L 282.98419 97.883309 
L 283.866403 97.363937 
L 284.748617 95.156609 
L 285.63083 93.598495 
L 286.513043 95.675981 
L 287.395257 99.701108 
L 288.27747 96.58488 
L 289.159684 94.896924 
L 290.041897 97.363937 
L 290.924111 98.792208 
L 291.806324 94.637238 
L 292.688538 96.58488 
L 293.570751 99.31158 
L 294.452964 91.52101 
L 295.335178 98.013151 
L 297.099605 91.001639 
L 297.981818 94.896924 
L 298.864032 96.065509 
L 299.746245 95.805823 
L 301.510672 93.33881 
L 302.392885 94.247709 
L 303.275099 93.598495 
L 304.157312 95.026766 
L 305.039526 96.844566 
L 305.921739 96.844566 
L 306.803953 95.935666 
L 308.568379 95.156609 
L 309.450593 95.286452 
L 310.332806 95.805823 
L 311.21502 94.637238 
L 312.097233 90.741953 
L 312.979447 91.131481 
L 313.86166 94.767081 
L 314.743874 96.065509 
L 315.626087 95.935666 
L 316.5083 89.833053 
L 317.390514 92.170224 
L 318.272727 91.391167 
L 319.154941 95.286452 
L 320.037154 93.208967 
L 320.919368 93.728338 
L 321.801581 95.026766 
L 322.683794 91.391167 
L 323.566008 91.391167 
L 324.448221 92.42991 
L 325.330435 96.714723 
L 326.212648 91.780696 
L 327.094862 93.988024 
L 327.977075 89.573367 
L 328.859289 93.079124 
L 329.741502 93.208967 
L 330.623715 92.559753 
L 331.505929 94.247709 
L 332.388142 88.404782 
L 333.270356 93.468652 
L 334.152569 93.208967 
L 335.034783 94.507395 
L 335.916996 92.689595 
L 336.799209 92.040381 
L 337.681423 88.924153 
L 338.563636 93.079124 
L 339.44585 91.131481 
L 340.328063 93.598495 
L 341.210277 94.507395 
L 342.974704 89.962896 
L 343.856917 91.910538 
L 344.73913 95.416295 
L 345.621344 92.300067 
L 346.503557 90.871796 
L 347.385771 90.871796 
L 348.267984 87.755568 
L 349.150198 92.040381 
L 350.032411 91.650853 
L 350.914625 94.247709 
L 351.796838 93.598495 
L 352.679051 90.61211 
L 353.561265 93.33881 
L 354.443478 89.962896 
L 355.325692 91.650853 
L 356.207905 90.871796 
L 357.090119 92.170224 
L 357.972332 91.910538 
L 358.854545 91.52101 
L 359.736759 92.559753 
L 360.618972 92.559753 
L 361.501186 93.079124 
L 362.383399 91.001639 
L 363.265613 91.261324 
L 364.147826 90.871796 
L 365.03004 91.391167 
L 365.912253 87.625725 
L 366.794466 92.040381 
L 367.67668 91.001639 
L 368.558893 88.534625 
L 369.441107 89.573367 
L 370.32332 89.70321 
L 371.205534 91.910538 
L 372.087747 91.780696 
L 372.96996 91.391167 
L 373.852174 92.300067 
L 374.734387 93.858181 
L 375.616601 90.61211 
L 376.498814 89.313682 
L 377.381028 94.767081 
L 378.263241 91.650853 
L 379.145455 91.780696 
L 380.027668 89.313682 
L 380.909881 93.079124 
L 381.792095 91.001639 
L 382.674308 88.015253 
L 383.556522 94.117867 
L 384.438735 90.222582 
L 385.320949 90.352424 
L 386.203162 87.885411 
L 387.085375 86.976511 
L 387.967589 90.61211 
L 388.849802 89.573367 
L 389.732016 91.650853 
L 390.614229 89.833053 
L 391.496443 92.819438 
L 392.378656 91.910538 
L 393.26087 92.689595 
L 394.143083 91.131481 
L 395.025296 92.42991 
L 395.90751 87.755568 
L 396.789723 91.001639 
L 397.671937 91.910538 
L 398.55415 92.559753 
L 399.436364 91.131481 
L 400.318577 87.755568 
L 401.200791 92.300067 
L 402.083004 91.52101 
L 402.965217 91.910538 
L 403.847431 91.650853 
L 404.729644 91.780696 
L 405.611858 90.092739 
L 406.494071 89.313682 
L 407.376285 91.001639 
L 408.258498 87.755568 
L 409.140711 89.313682 
L 410.022925 89.443525 
L 410.905138 89.443525 
L 411.787352 92.300067 
L 412.669565 92.42991 
L 413.551779 91.131481 
L 414.433992 88.924153 
L 415.316206 93.988024 
L 416.198419 88.924153 
L 417.080632 89.183839 
L 417.962846 89.833053 
L 418.845059 89.313682 
L 419.727273 87.625725 
L 420.609486 90.092739 
L 421.4917 90.871796 
L 422.373913 94.117867 
L 423.256126 90.61211 
L 424.13834 89.443525 
L 425.020553 88.79431 
L 426.78498 89.833053 
L 427.667194 88.534625 
L 428.549407 89.443525 
L 429.431621 89.70321 
L 430.313834 86.716825 
L 431.196047 90.352424 
L 432.078261 88.274939 
L 432.960474 89.443525 
L 433.842688 90.871796 
L 434.724901 89.313682 
L 435.607115 89.443525 
L 436.489328 89.443525 
L 437.371542 88.015253 
L 438.253755 88.404782 
L 439.135968 88.274939 
L 440.018182 88.534625 
L 440.900395 89.833053 
L 441.782609 92.040381 
L 442.664822 89.053996 
L 443.547036 90.352424 
L 444.429249 90.222582 
L 445.311462 90.741953 
L 446.193676 87.106354 
L 447.075889 92.170224 
L 447.958103 88.534625 
L 448.840316 91.001639 
L 449.72253 89.313682 
L 450.604743 90.741953 
L 452.36917 89.962896 
L 453.251383 89.833053 
L 454.133597 88.534625 
L 455.01581 89.70321 
L 456.780237 88.274939 
L 457.662451 86.327297 
L 458.544664 89.833053 
L 459.426877 89.183839 
L 460.309091 87.755568 
L 461.191304 90.222582 
L 462.073518 89.313682 
L 463.837945 91.391167 
L 464.720158 92.689595 
L 465.602372 86.067611 
L 466.484585 88.145096 
L 467.366798 87.885411 
L 468.249012 91.261324 
L 469.131225 89.313682 
L 470.013439 88.79431 
L 470.895652 89.962896 
L 471.777866 87.106354 
L 472.660079 90.352424 
L 473.542292 89.053996 
L 474.424506 85.807925 
L 475.306719 91.52101 
L 476.188933 88.924153 
L 477.071146 88.404782 
L 477.95336 89.962896 
L 478.835573 88.404782 
L 479.717787 89.053996 
L 480.6 90.61211 
L 481.482213 90.222582 
L 482.364427 85.678082 
L 483.24664 91.391167 
L 484.128854 89.183839 
L 485.011067 90.352424 
L 485.893281 89.053996 
L 486.775494 90.092739 
L 487.657708 87.366039 
L 488.539921 87.366039 
L 489.422134 88.664468 
L 490.304348 91.391167 
L 491.186561 87.495882 
L 492.950988 88.664468 
L 493.833202 88.274939 
L 495.597628 90.092739 
L 496.479842 89.833053 
L 497.362055 87.366039 
L 498.244269 86.457139 
L 499.126482 86.716825 
L 500.008696 89.443525 
L 500.890909 88.534625 
L 501.773123 88.145096 
L 502.655336 87.236196 
L 503.537549 87.625725 
L 504.419763 91.261324 
L 505.301976 88.145096 
L 506.18419 88.145096 
L 507.066403 91.261324 
L 507.948617 90.482267 
L 508.83083 88.664468 
L 509.713043 88.274939 
L 510.595257 85.937768 
L 511.47747 89.443525 
L 512.359684 86.716825 
L 513.241897 86.457139 
L 514.124111 89.70321 
L 515.006324 89.70321 
L 516.770751 88.015253 
L 517.652964 87.495882 
L 518.535178 92.170224 
L 519.417391 88.79431 
L 520.299605 88.924153 
L 521.181818 88.534625 
L 522.064032 88.015253 
L 522.946245 90.092739 
L 523.828458 85.807925 
L 524.710672 86.976511 
L 525.592885 89.183839 
L 526.475099 90.741953 
L 527.357312 89.183839 
L 528.239526 88.664468 
L 529.121739 88.015253 
L 530.003953 88.534625 
L 530.886166 86.976511 
L 531.768379 90.352424 
L 532.650593 89.053996 
L 533.532806 88.274939 
L 535.297233 88.534625 
L 536.179447 87.106354 
L 537.06166 86.197454 
L 537.943874 88.145096 
L 538.826087 88.015253 
L 539.7083 88.664468 
L 540.590514 90.352424 
L 541.472727 89.70321 
L 542.354941 88.145096 
L 543.237154 89.183839 
L 544.119368 87.366039 
L 545.001581 89.573367 
L 545.883794 91.261324 
L 546.766008 94.507395 
L 547.648221 88.274939 
L 548.530435 89.443525 
L 549.412648 89.183839 
L 550.294862 86.976511 
L 551.177075 88.664468 
L 552.059289 89.183839 
L 552.941502 86.716825 
L 553.823715 88.664468 
L 554.705929 88.274939 
L 555.588142 87.366039 
L 556.470356 88.145096 
L 557.352569 89.962896 
L 558.234783 90.741953 
L 559.116996 88.404782 
L 559.999209 86.716825 
L 560.881423 87.366039 
L 561.763636 88.404782 
L 562.64585 90.352424 
L 563.528063 88.534625 
L 564.410277 88.404782 
L 565.29249 86.976511 
L 566.174704 84.899025 
L 567.056917 90.092739 
L 567.93913 87.495882 
L 568.821344 88.015253 
L 569.703557 89.053996 
L 570.585771 89.833053 
L 571.467984 88.924153 
L 572.350198 89.573367 
L 573.232411 87.236196 
L 574.114625 89.053996 
L 574.996838 88.924153 
L 575.879051 87.366039 
L 576.761265 90.352424 
L 577.643478 87.495882 
L 578.525692 86.586982 
L 579.407905 87.885411 
L 580.290119 85.678082 
L 581.172332 88.924153 
L 582.054545 89.70321 
L 582.936759 88.79431 
L 583.818972 89.183839 
L 584.701186 86.457139 
L 586.465613 87.885411 
L 587.347826 90.092739 
L 588.23004 91.001639 
L 589.112253 90.741953 
L 589.994466 88.274939 
L 590.87668 88.145096 
L 591.758893 90.222582 
L 592.641107 89.313682 
L 593.52332 89.053996 
L 594.405534 88.924153 
L 595.287747 91.001639 
L 596.16996 88.145096 
L 597.934387 86.457139 
L 598.816601 88.664468 
L 599.698814 87.625725 
L 600.581028 88.145096 
L 601.463241 87.625725 
L 602.345455 85.678082 
L 603.227668 86.457139 
L 604.109881 89.053996 
L 604.992095 87.625725 
L 605.874308 91.391167 
L 606.756522 89.183839 
L 607.638735 88.015253 
L 608.520949 87.625725 
L 609.403162 88.404782 
L 610.285375 87.106354 
L 611.167589 87.366039 
L 612.049802 87.106354 
L 612.932016 86.976511 
L 613.814229 86.327297 
L 614.696443 86.846668 
L 615.578656 84.899025 
L 616.46087 88.664468 
L 617.343083 88.145096 
L 618.225296 86.976511 
L 619.10751 88.274939 
L 619.989723 89.183839 
L 620.871937 87.366039 
L 621.75415 87.366039 
L 622.636364 86.976511 
L 622.636364 86.976511 
" style="fill:none;stroke:#ff7f0e;stroke-linecap:square;stroke-width:0.5;"/>
   </g>
   <g id="patch_3">
    <path d="M 90 315 
L 90 43.2 
" style="fill:none;stroke:#000000;stroke-linecap:square;stroke-linejoin:miter;stroke-width:0.8;"/>
   </g>
   <g id="patch_4">
    <path d="M 648 315 
L 648 43.2 
" style="fill:none;stroke:#000000;stroke-linecap:square;stroke-linejoin:miter;stroke-width:0.8;"/>
   </g>
   <g id="patch_5">
    <path d="M 90 315 
L 648 315 
" style="fill:none;stroke:#000000;stroke-linecap:square;stroke-linejoin:miter;stroke-width:0.8;"/>
   </g>
   <g id="patch_6">
    <path d="M 90 43.2 
L 648 43.2 
" style="fill:none;stroke:#000000;stroke-linecap:square;stroke-linejoin:miter;stroke-width:0.8;"/>
   </g>
   <g id="text_17">
    <!-- accuracy -->
    <g transform="translate(341.92875 37.2)scale(0.12 -0.12)">
     <use xlink:href="#DejaVuSans-97"/>
     <use x="61.279297" xlink:href="#DejaVuSans-99"/>
     <use x="116.259766" xlink:href="#DejaVuSans-99"/>
     <use x="171.240234" xlink:href="#DejaVuSans-117"/>
     <use x="234.619141" xlink:href="#DejaVuSans-114"/>
     <use x="275.732422" xlink:href="#DejaVuSans-97"/>
     <use x="337.011719" xlink:href="#DejaVuSans-99"/>
     <use x="391.992188" xlink:href="#DejaVuSans-121"/>
    </g>
   </g>
   <g id="legend_1">
    <g id="patch_7">
     <path d="M 97 80.55625 
L 169.153125 80.55625 
Q 171.153125 80.55625 171.153125 78.55625 
L 171.153125 50.2 
Q 171.153125 48.2 169.153125 48.2 
L 97 48.2 
Q 95 48.2 95 50.2 
L 95 78.55625 
Q 95 80.55625 97 80.55625 
z
" style="fill:#ffffff;opacity:0.8;stroke:#cccccc;stroke-linejoin:miter;"/>
    </g>
    <g id="line2d_31">
     <path d="M 99 56.298437 
L 119 56.298437 
" style="fill:none;stroke:#1f77b4;stroke-linecap:square;stroke-width:0.5;"/>
    </g>
    <g id="line2d_32"/>
    <g id="text_18">
     <!-- train -->
     <defs>
      <path d="M 18.3125 70.21875 
L 18.3125 54.6875 
L 36.8125 54.6875 
L 36.8125 47.703125 
L 18.3125 47.703125 
L 18.3125 18.015625 
Q 18.3125 11.328125 20.140625 9.421875 
Q 21.96875 7.515625 27.59375 7.515625 
L 36.8125 7.515625 
L 36.8125 0 
L 27.59375 0 
Q 17.1875 0 13.234375 3.875 
Q 9.28125 7.765625 9.28125 18.015625 
L 9.28125 47.703125 
L 2.6875 47.703125 
L 2.6875 54.6875 
L 9.28125 54.6875 
L 9.28125 70.21875 
z
" id="DejaVuSans-116"/>
      <path d="M 9.421875 54.6875 
L 18.40625 54.6875 
L 18.40625 0 
L 9.421875 0 
z
M 9.421875 75.984375 
L 18.40625 75.984375 
L 18.40625 64.59375 
L 9.421875 64.59375 
z
" id="DejaVuSans-105"/>
      <path d="M 54.890625 33.015625 
L 54.890625 0 
L 45.90625 0 
L 45.90625 32.71875 
Q 45.90625 40.484375 42.875 44.328125 
Q 39.84375 48.1875 33.796875 48.1875 
Q 26.515625 48.1875 22.3125 43.546875 
Q 18.109375 38.921875 18.109375 30.90625 
L 18.109375 0 
L 9.078125 0 
L 9.078125 54.6875 
L 18.109375 54.6875 
L 18.109375 46.1875 
Q 21.34375 51.125 25.703125 53.5625 
Q 30.078125 56 35.796875 56 
Q 45.21875 56 50.046875 50.171875 
Q 54.890625 44.34375 54.890625 33.015625 
z
" id="DejaVuSans-110"/>
     </defs>
     <g transform="translate(127 59.798437)scale(0.1 -0.1)">
      <use xlink:href="#DejaVuSans-116"/>
      <use x="39.208984" xlink:href="#DejaVuSans-114"/>
      <use x="80.322266" xlink:href="#DejaVuSans-97"/>
      <use x="141.601562" xlink:href="#DejaVuSans-105"/>
      <use x="169.384766" xlink:href="#DejaVuSans-110"/>
     </g>
    </g>
    <g id="line2d_33">
     <path d="M 99 70.976562 
L 119 70.976562 
" style="fill:none;stroke:#ff7f0e;stroke-linecap:square;stroke-width:0.5;"/>
    </g>
    <g id="line2d_34"/>
    <g id="text_19">
     <!-- validate -->
     <defs>
      <path d="M 2.984375 54.6875 
L 12.5 54.6875 
L 29.59375 8.796875 
L 46.6875 54.6875 
L 56.203125 54.6875 
L 35.6875 0 
L 23.484375 0 
z
" id="DejaVuSans-118"/>
      <path d="M 9.421875 75.984375 
L 18.40625 75.984375 
L 18.40625 0 
L 9.421875 0 
z
" id="DejaVuSans-108"/>
      <path d="M 45.40625 46.390625 
L 45.40625 75.984375 
L 54.390625 75.984375 
L 54.390625 0 
L 45.40625 0 
L 45.40625 8.203125 
Q 42.578125 3.328125 38.25 0.953125 
Q 33.9375 -1.421875 27.875 -1.421875 
Q 17.96875 -1.421875 11.734375 6.484375 
Q 5.515625 14.40625 5.515625 27.296875 
Q 5.515625 40.1875 11.734375 48.09375 
Q 17.96875 56 27.875 56 
Q 33.9375 56 38.25 53.625 
Q 42.578125 51.265625 45.40625 46.390625 
z
M 14.796875 27.296875 
Q 14.796875 17.390625 18.875 11.75 
Q 22.953125 6.109375 30.078125 6.109375 
Q 37.203125 6.109375 41.296875 11.75 
Q 45.40625 17.390625 45.40625 27.296875 
Q 45.40625 37.203125 41.296875 42.84375 
Q 37.203125 48.484375 30.078125 48.484375 
Q 22.953125 48.484375 18.875 42.84375 
Q 14.796875 37.203125 14.796875 27.296875 
z
" id="DejaVuSans-100"/>
     </defs>
     <g transform="translate(127 74.476562)scale(0.1 -0.1)">
      <use xlink:href="#DejaVuSans-118"/>
      <use x="59.179688" xlink:href="#DejaVuSans-97"/>
      <use x="120.458984" xlink:href="#DejaVuSans-108"/>
      <use x="148.242188" xlink:href="#DejaVuSans-105"/>
      <use x="176.025391" xlink:href="#DejaVuSans-100"/>
      <use x="239.501953" xlink:href="#DejaVuSans-97"/>
      <use x="300.78125" xlink:href="#DejaVuSans-116"/>
      <use x="339.990234" xlink:href="#DejaVuSans-101"/>
     </g>
    </g>
   </g>
  </g>
 </g>
 <defs>
  <clipPath id="p70e710a227">
   <rect height="271.8" width="558" x="90" y="43.2"/>
  </clipPath>
 </defs>
</svg>
