<?xml version="1.0" encoding="utf-8" standalone="no"?>
<!DOCTYPE svg PUBLIC "-//W3C//DTD SVG 1.1//EN"
  "http://www.w3.org/Graphics/SVG/1.1/DTD/svg11.dtd">
<!-- Created with matplotlib (https://matplotlib.org/) -->
<svg height="360pt" version="1.1" viewBox="0 0 720 360" width="720pt" xmlns="http://www.w3.org/2000/svg" xmlns:xlink="http://www.w3.org/1999/xlink">
 <defs>
  <style type="text/css">
*{stroke-linecap:butt;stroke-linejoin:round;}
  </style>
 </defs>
 <g id="figure_1">
  <g id="patch_1">
   <path d="M 0 360 
L 720 360 
L 720 0 
L 0 0 
z
" style="fill:#ffffff;"/>
  </g>
  <g id="axes_1">
   <g id="patch_2">
    <path d="M 90 315 
L 648 315 
L 648 43.2 
L 90 43.2 
z
" style="fill:#ffffff;"/>
   </g>
   <g id="matplotlib.axis_1">
    <g id="xtick_1">
     <g id="line2d_1">
      <path clip-path="url(#p1670e4576b)" d="M 115.363636 315 
L 115.363636 43.2 
" style="fill:none;stroke:#b0b0b0;stroke-linecap:square;stroke-width:0.8;"/>
     </g>
     <g id="line2d_2">
      <defs>
       <path d="M 0 0 
L 0 3.5 
" id="me42d02bce5" style="stroke:#000000;stroke-width:0.8;"/>
      </defs>
      <g>
       <use style="stroke:#000000;stroke-width:0.8;" x="115.363636" xlink:href="#me42d02bce5" y="315"/>
      </g>
     </g>
     <g id="text_1">
      <!-- 0 -->
      <defs>
       <path d="M 31.78125 66.40625 
Q 24.171875 66.40625 20.328125 58.90625 
Q 16.5 51.421875 16.5 36.375 
Q 16.5 21.390625 20.328125 13.890625 
Q 24.171875 6.390625 31.78125 6.390625 
Q 39.453125 6.390625 43.28125 13.890625 
Q 47.125 21.390625 47.125 36.375 
Q 47.125 51.421875 43.28125 58.90625 
Q 39.453125 66.40625 31.78125 66.40625 
z
M 31.78125 74.21875 
Q 44.046875 74.21875 50.515625 64.515625 
Q 56.984375 54.828125 56.984375 36.375 
Q 56.984375 17.96875 50.515625 8.265625 
Q 44.046875 -1.421875 31.78125 -1.421875 
Q 19.53125 -1.421875 13.0625 8.265625 
Q 6.59375 17.96875 6.59375 36.375 
Q 6.59375 54.828125 13.0625 64.515625 
Q 19.53125 74.21875 31.78125 74.21875 
z
" id="DejaVuSans-48"/>
      </defs>
      <g transform="translate(112.182386 329.598437)scale(0.1 -0.1)">
       <use xlink:href="#DejaVuSans-48"/>
      </g>
     </g>
    </g>
    <g id="xtick_2">
     <g id="line2d_3">
      <path clip-path="url(#p1670e4576b)" d="M 189.962567 315 
L 189.962567 43.2 
" style="fill:none;stroke:#b0b0b0;stroke-linecap:square;stroke-width:0.8;"/>
     </g>
     <g id="line2d_4">
      <g>
       <use style="stroke:#000000;stroke-width:0.8;" x="189.962567" xlink:href="#me42d02bce5" y="315"/>
      </g>
     </g>
     <g id="text_2">
      <!-- 100 -->
      <defs>
       <path d="M 12.40625 8.296875 
L 28.515625 8.296875 
L 28.515625 63.921875 
L 10.984375 60.40625 
L 10.984375 69.390625 
L 28.421875 72.90625 
L 38.28125 72.90625 
L 38.28125 8.296875 
L 54.390625 8.296875 
L 54.390625 0 
L 12.40625 0 
z
" id="DejaVuSans-49"/>
      </defs>
      <g transform="translate(180.418817 329.598437)scale(0.1 -0.1)">
       <use xlink:href="#DejaVuSans-49"/>
       <use x="63.623047" xlink:href="#DejaVuSans-48"/>
       <use x="127.246094" xlink:href="#DejaVuSans-48"/>
      </g>
     </g>
    </g>
    <g id="xtick_3">
     <g id="line2d_5">
      <path clip-path="url(#p1670e4576b)" d="M 264.561497 315 
L 264.561497 43.2 
" style="fill:none;stroke:#b0b0b0;stroke-linecap:square;stroke-width:0.8;"/>
     </g>
     <g id="line2d_6">
      <g>
       <use style="stroke:#000000;stroke-width:0.8;" x="264.561497" xlink:href="#me42d02bce5" y="315"/>
      </g>
     </g>
     <g id="text_3">
      <!-- 200 -->
      <defs>
       <path d="M 19.1875 8.296875 
L 53.609375 8.296875 
L 53.609375 0 
L 7.328125 0 
L 7.328125 8.296875 
Q 12.9375 14.109375 22.625 23.890625 
Q 32.328125 33.6875 34.8125 36.53125 
Q 39.546875 41.84375 41.421875 45.53125 
Q 43.3125 49.21875 43.3125 52.78125 
Q 43.3125 58.59375 39.234375 62.25 
Q 35.15625 65.921875 28.609375 65.921875 
Q 23.96875 65.921875 18.8125 64.3125 
Q 13.671875 62.703125 7.8125 59.421875 
L 7.8125 69.390625 
Q 13.765625 71.78125 18.9375 73 
Q 24.125 74.21875 28.421875 74.21875 
Q 39.75 74.21875 46.484375 68.546875 
Q 53.21875 62.890625 53.21875 53.421875 
Q 53.21875 48.921875 51.53125 44.890625 
Q 49.859375 40.875 45.40625 35.40625 
Q 44.1875 33.984375 37.640625 27.21875 
Q 31.109375 20.453125 19.1875 8.296875 
z
" id="DejaVuSans-50"/>
      </defs>
      <g transform="translate(255.017747 329.598437)scale(0.1 -0.1)">
       <use xlink:href="#DejaVuSans-50"/>
       <use x="63.623047" xlink:href="#DejaVuSans-48"/>
       <use x="127.246094" xlink:href="#DejaVuSans-48"/>
      </g>
     </g>
    </g>
    <g id="xtick_4">
     <g id="line2d_7">
      <path clip-path="url(#p1670e4576b)" d="M 339.160428 315 
L 339.160428 43.2 
" style="fill:none;stroke:#b0b0b0;stroke-linecap:square;stroke-width:0.8;"/>
     </g>
     <g id="line2d_8">
      <g>
       <use style="stroke:#000000;stroke-width:0.8;" x="339.160428" xlink:href="#me42d02bce5" y="315"/>
      </g>
     </g>
     <g id="text_4">
      <!-- 300 -->
      <defs>
       <path d="M 40.578125 39.3125 
Q 47.65625 37.796875 51.625 33 
Q 55.609375 28.21875 55.609375 21.1875 
Q 55.609375 10.40625 48.1875 4.484375 
Q 40.765625 -1.421875 27.09375 -1.421875 
Q 22.515625 -1.421875 17.65625 -0.515625 
Q 12.796875 0.390625 7.625 2.203125 
L 7.625 11.71875 
Q 11.71875 9.328125 16.59375 8.109375 
Q 21.484375 6.890625 26.8125 6.890625 
Q 36.078125 6.890625 40.9375 10.546875 
Q 45.796875 14.203125 45.796875 21.1875 
Q 45.796875 27.640625 41.28125 31.265625 
Q 36.765625 34.90625 28.71875 34.90625 
L 20.21875 34.90625 
L 20.21875 43.015625 
L 29.109375 43.015625 
Q 36.375 43.015625 40.234375 45.921875 
Q 44.09375 48.828125 44.09375 54.296875 
Q 44.09375 59.90625 40.109375 62.90625 
Q 36.140625 65.921875 28.71875 65.921875 
Q 24.65625 65.921875 20.015625 65.03125 
Q 15.375 64.15625 9.8125 62.3125 
L 9.8125 71.09375 
Q 15.4375 72.65625 20.34375 73.4375 
Q 25.25 74.21875 29.59375 74.21875 
Q 40.828125 74.21875 47.359375 69.109375 
Q 53.90625 64.015625 53.90625 55.328125 
Q 53.90625 49.265625 50.4375 45.09375 
Q 46.96875 40.921875 40.578125 39.3125 
z
" id="DejaVuSans-51"/>
      </defs>
      <g transform="translate(329.616678 329.598437)scale(0.1 -0.1)">
       <use xlink:href="#DejaVuSans-51"/>
       <use x="63.623047" xlink:href="#DejaVuSans-48"/>
       <use x="127.246094" xlink:href="#DejaVuSans-48"/>
      </g>
     </g>
    </g>
    <g id="xtick_5">
     <g id="line2d_9">
      <path clip-path="url(#p1670e4576b)" d="M 413.759358 315 
L 413.759358 43.2 
" style="fill:none;stroke:#b0b0b0;stroke-linecap:square;stroke-width:0.8;"/>
     </g>
     <g id="line2d_10">
      <g>
       <use style="stroke:#000000;stroke-width:0.8;" x="413.759358" xlink:href="#me42d02bce5" y="315"/>
      </g>
     </g>
     <g id="text_5">
      <!-- 400 -->
      <defs>
       <path d="M 37.796875 64.3125 
L 12.890625 25.390625 
L 37.796875 25.390625 
z
M 35.203125 72.90625 
L 47.609375 72.90625 
L 47.609375 25.390625 
L 58.015625 25.390625 
L 58.015625 17.1875 
L 47.609375 17.1875 
L 47.609375 0 
L 37.796875 0 
L 37.796875 17.1875 
L 4.890625 17.1875 
L 4.890625 26.703125 
z
" id="DejaVuSans-52"/>
      </defs>
      <g transform="translate(404.215608 329.598437)scale(0.1 -0.1)">
       <use xlink:href="#DejaVuSans-52"/>
       <use x="63.623047" xlink:href="#DejaVuSans-48"/>
       <use x="127.246094" xlink:href="#DejaVuSans-48"/>
      </g>
     </g>
    </g>
    <g id="xtick_6">
     <g id="line2d_11">
      <path clip-path="url(#p1670e4576b)" d="M 488.358289 315 
L 488.358289 43.2 
" style="fill:none;stroke:#b0b0b0;stroke-linecap:square;stroke-width:0.8;"/>
     </g>
     <g id="line2d_12">
      <g>
       <use style="stroke:#000000;stroke-width:0.8;" x="488.358289" xlink:href="#me42d02bce5" y="315"/>
      </g>
     </g>
     <g id="text_6">
      <!-- 500 -->
      <defs>
       <path d="M 10.796875 72.90625 
L 49.515625 72.90625 
L 49.515625 64.59375 
L 19.828125 64.59375 
L 19.828125 46.734375 
Q 21.96875 47.46875 24.109375 47.828125 
Q 26.265625 48.1875 28.421875 48.1875 
Q 40.625 48.1875 47.75 41.5 
Q 54.890625 34.8125 54.890625 23.390625 
Q 54.890625 11.625 47.5625 5.09375 
Q 40.234375 -1.421875 26.90625 -1.421875 
Q 22.3125 -1.421875 17.546875 -0.640625 
Q 12.796875 0.140625 7.71875 1.703125 
L 7.71875 11.625 
Q 12.109375 9.234375 16.796875 8.0625 
Q 21.484375 6.890625 26.703125 6.890625 
Q 35.15625 6.890625 40.078125 11.328125 
Q 45.015625 15.765625 45.015625 23.390625 
Q 45.015625 31 40.078125 35.4375 
Q 35.15625 39.890625 26.703125 39.890625 
Q 22.75 39.890625 18.8125 39.015625 
Q 14.890625 38.140625 10.796875 36.28125 
z
" id="DejaVuSans-53"/>
      </defs>
      <g transform="translate(478.814539 329.598437)scale(0.1 -0.1)">
       <use xlink:href="#DejaVuSans-53"/>
       <use x="63.623047" xlink:href="#DejaVuSans-48"/>
       <use x="127.246094" xlink:href="#DejaVuSans-48"/>
      </g>
     </g>
    </g>
    <g id="xtick_7">
     <g id="line2d_13">
      <path clip-path="url(#p1670e4576b)" d="M 562.957219 315 
L 562.957219 43.2 
" style="fill:none;stroke:#b0b0b0;stroke-linecap:square;stroke-width:0.8;"/>
     </g>
     <g id="line2d_14">
      <g>
       <use style="stroke:#000000;stroke-width:0.8;" x="562.957219" xlink:href="#me42d02bce5" y="315"/>
      </g>
     </g>
     <g id="text_7">
      <!-- 600 -->
      <defs>
       <path d="M 33.015625 40.375 
Q 26.375 40.375 22.484375 35.828125 
Q 18.609375 31.296875 18.609375 23.390625 
Q 18.609375 15.53125 22.484375 10.953125 
Q 26.375 6.390625 33.015625 6.390625 
Q 39.65625 6.390625 43.53125 10.953125 
Q 47.40625 15.53125 47.40625 23.390625 
Q 47.40625 31.296875 43.53125 35.828125 
Q 39.65625 40.375 33.015625 40.375 
z
M 52.59375 71.296875 
L 52.59375 62.3125 
Q 48.875 64.0625 45.09375 64.984375 
Q 41.3125 65.921875 37.59375 65.921875 
Q 27.828125 65.921875 22.671875 59.328125 
Q 17.53125 52.734375 16.796875 39.40625 
Q 19.671875 43.65625 24.015625 45.921875 
Q 28.375 48.1875 33.59375 48.1875 
Q 44.578125 48.1875 50.953125 41.515625 
Q 57.328125 34.859375 57.328125 23.390625 
Q 57.328125 12.15625 50.6875 5.359375 
Q 44.046875 -1.421875 33.015625 -1.421875 
Q 20.359375 -1.421875 13.671875 8.265625 
Q 6.984375 17.96875 6.984375 36.375 
Q 6.984375 53.65625 15.1875 63.9375 
Q 23.390625 74.21875 37.203125 74.21875 
Q 40.921875 74.21875 44.703125 73.484375 
Q 48.484375 72.75 52.59375 71.296875 
z
" id="DejaVuSans-54"/>
      </defs>
      <g transform="translate(553.413469 329.598437)scale(0.1 -0.1)">
       <use xlink:href="#DejaVuSans-54"/>
       <use x="63.623047" xlink:href="#DejaVuSans-48"/>
       <use x="127.246094" xlink:href="#DejaVuSans-48"/>
      </g>
     </g>
    </g>
    <g id="xtick_8">
     <g id="line2d_15">
      <path clip-path="url(#p1670e4576b)" d="M 637.55615 315 
L 637.55615 43.2 
" style="fill:none;stroke:#b0b0b0;stroke-linecap:square;stroke-width:0.8;"/>
     </g>
     <g id="line2d_16">
      <g>
       <use style="stroke:#000000;stroke-width:0.8;" x="637.55615" xlink:href="#me42d02bce5" y="315"/>
      </g>
     </g>
     <g id="text_8">
      <!-- 700 -->
      <defs>
       <path d="M 8.203125 72.90625 
L 55.078125 72.90625 
L 55.078125 68.703125 
L 28.609375 0 
L 18.3125 0 
L 43.21875 64.59375 
L 8.203125 64.59375 
z
" id="DejaVuSans-55"/>
      </defs>
      <g transform="translate(628.0124 329.598437)scale(0.1 -0.1)">
       <use xlink:href="#DejaVuSans-55"/>
       <use x="63.623047" xlink:href="#DejaVuSans-48"/>
       <use x="127.246094" xlink:href="#DejaVuSans-48"/>
      </g>
     </g>
    </g>
    <g id="text_9">
     <!-- epoch -->
     <defs>
      <path d="M 56.203125 29.59375 
L 56.203125 25.203125 
L 14.890625 25.203125 
Q 15.484375 15.921875 20.484375 11.0625 
Q 25.484375 6.203125 34.421875 6.203125 
Q 39.59375 6.203125 44.453125 7.46875 
Q 49.3125 8.734375 54.109375 11.28125 
L 54.109375 2.78125 
Q 49.265625 0.734375 44.1875 -0.34375 
Q 39.109375 -1.421875 33.890625 -1.421875 
Q 20.796875 -1.421875 13.15625 6.1875 
Q 5.515625 13.8125 5.515625 26.8125 
Q 5.515625 40.234375 12.765625 48.109375 
Q 20.015625 56 32.328125 56 
Q 43.359375 56 49.78125 48.890625 
Q 56.203125 41.796875 56.203125 29.59375 
z
M 47.21875 32.234375 
Q 47.125 39.59375 43.09375 43.984375 
Q 39.0625 48.390625 32.421875 48.390625 
Q 24.90625 48.390625 20.390625 44.140625 
Q 15.875 39.890625 15.1875 32.171875 
z
" id="DejaVuSans-101"/>
      <path d="M 18.109375 8.203125 
L 18.109375 -20.796875 
L 9.078125 -20.796875 
L 9.078125 54.6875 
L 18.109375 54.6875 
L 18.109375 46.390625 
Q 20.953125 51.265625 25.265625 53.625 
Q 29.59375 56 35.59375 56 
Q 45.5625 56 51.78125 48.09375 
Q 58.015625 40.1875 58.015625 27.296875 
Q 58.015625 14.40625 51.78125 6.484375 
Q 45.5625 -1.421875 35.59375 -1.421875 
Q 29.59375 -1.421875 25.265625 0.953125 
Q 20.953125 3.328125 18.109375 8.203125 
z
M 48.6875 27.296875 
Q 48.6875 37.203125 44.609375 42.84375 
Q 40.53125 48.484375 33.40625 48.484375 
Q 26.265625 48.484375 22.1875 42.84375 
Q 18.109375 37.203125 18.109375 27.296875 
Q 18.109375 17.390625 22.1875 11.75 
Q 26.265625 6.109375 33.40625 6.109375 
Q 40.53125 6.109375 44.609375 11.75 
Q 48.6875 17.390625 48.6875 27.296875 
z
" id="DejaVuSans-112"/>
      <path d="M 30.609375 48.390625 
Q 23.390625 48.390625 19.1875 42.75 
Q 14.984375 37.109375 14.984375 27.296875 
Q 14.984375 17.484375 19.15625 11.84375 
Q 23.34375 6.203125 30.609375 6.203125 
Q 37.796875 6.203125 41.984375 11.859375 
Q 46.1875 17.53125 46.1875 27.296875 
Q 46.1875 37.015625 41.984375 42.703125 
Q 37.796875 48.390625 30.609375 48.390625 
z
M 30.609375 56 
Q 42.328125 56 49.015625 48.375 
Q 55.71875 40.765625 55.71875 27.296875 
Q 55.71875 13.875 49.015625 6.21875 
Q 42.328125 -1.421875 30.609375 -1.421875 
Q 18.84375 -1.421875 12.171875 6.21875 
Q 5.515625 13.875 5.515625 27.296875 
Q 5.515625 40.765625 12.171875 48.375 
Q 18.84375 56 30.609375 56 
z
" id="DejaVuSans-111"/>
      <path d="M 48.78125 52.59375 
L 48.78125 44.1875 
Q 44.96875 46.296875 41.140625 47.34375 
Q 37.3125 48.390625 33.40625 48.390625 
Q 24.65625 48.390625 19.8125 42.84375 
Q 14.984375 37.3125 14.984375 27.296875 
Q 14.984375 17.28125 19.8125 11.734375 
Q 24.65625 6.203125 33.40625 6.203125 
Q 37.3125 6.203125 41.140625 7.25 
Q 44.96875 8.296875 48.78125 10.40625 
L 48.78125 2.09375 
Q 45.015625 0.34375 40.984375 -0.53125 
Q 36.96875 -1.421875 32.421875 -1.421875 
Q 20.0625 -1.421875 12.78125 6.34375 
Q 5.515625 14.109375 5.515625 27.296875 
Q 5.515625 40.671875 12.859375 48.328125 
Q 20.21875 56 33.015625 56 
Q 37.15625 56 41.109375 55.140625 
Q 45.0625 54.296875 48.78125 52.59375 
z
" id="DejaVuSans-99"/>
      <path d="M 54.890625 33.015625 
L 54.890625 0 
L 45.90625 0 
L 45.90625 32.71875 
Q 45.90625 40.484375 42.875 44.328125 
Q 39.84375 48.1875 33.796875 48.1875 
Q 26.515625 48.1875 22.3125 43.546875 
Q 18.109375 38.921875 18.109375 30.90625 
L 18.109375 0 
L 9.078125 0 
L 9.078125 75.984375 
L 18.109375 75.984375 
L 18.109375 46.1875 
Q 21.34375 51.125 25.703125 53.5625 
Q 30.078125 56 35.796875 56 
Q 45.21875 56 50.046875 50.171875 
Q 54.890625 44.34375 54.890625 33.015625 
z
" id="DejaVuSans-104"/>
     </defs>
     <g transform="translate(353.771875 343.276563)scale(0.1 -0.1)">
      <use xlink:href="#DejaVuSans-101"/>
      <use x="61.523438" xlink:href="#DejaVuSans-112"/>
      <use x="125" xlink:href="#DejaVuSans-111"/>
      <use x="186.181641" xlink:href="#DejaVuSans-99"/>
      <use x="241.162109" xlink:href="#DejaVuSans-104"/>
     </g>
    </g>
   </g>
   <g id="matplotlib.axis_2">
    <g id="ytick_1">
     <g id="line2d_17">
      <path clip-path="url(#p1670e4576b)" d="M 90 291.597387 
L 648 291.597387 
" style="fill:none;stroke:#b0b0b0;stroke-linecap:square;stroke-width:0.8;"/>
     </g>
     <g id="line2d_18">
      <defs>
       <path d="M 0 0 
L -3.5 0 
" id="m25a1536e0d" style="stroke:#000000;stroke-width:0.8;"/>
      </defs>
      <g>
       <use style="stroke:#000000;stroke-width:0.8;" x="90" xlink:href="#m25a1536e0d" y="291.597387"/>
      </g>
     </g>
     <g id="text_10">
      <!-- 0.3 -->
      <defs>
       <path d="M 10.6875 12.40625 
L 21 12.40625 
L 21 0 
L 10.6875 0 
z
" id="DejaVuSans-46"/>
      </defs>
      <g transform="translate(67.096875 295.396606)scale(0.1 -0.1)">
       <use xlink:href="#DejaVuSans-48"/>
       <use x="63.623047" xlink:href="#DejaVuSans-46"/>
       <use x="95.410156" xlink:href="#DejaVuSans-51"/>
      </g>
     </g>
    </g>
    <g id="ytick_2">
     <g id="line2d_19">
      <path clip-path="url(#p1670e4576b)" d="M 90 256.524156 
L 648 256.524156 
" style="fill:none;stroke:#b0b0b0;stroke-linecap:square;stroke-width:0.8;"/>
     </g>
     <g id="line2d_20">
      <g>
       <use style="stroke:#000000;stroke-width:0.8;" x="90" xlink:href="#m25a1536e0d" y="256.524156"/>
      </g>
     </g>
     <g id="text_11">
      <!-- 0.4 -->
      <g transform="translate(67.096875 260.323375)scale(0.1 -0.1)">
       <use xlink:href="#DejaVuSans-48"/>
       <use x="63.623047" xlink:href="#DejaVuSans-46"/>
       <use x="95.410156" xlink:href="#DejaVuSans-52"/>
      </g>
     </g>
    </g>
    <g id="ytick_3">
     <g id="line2d_21">
      <path clip-path="url(#p1670e4576b)" d="M 90 221.450926 
L 648 221.450926 
" style="fill:none;stroke:#b0b0b0;stroke-linecap:square;stroke-width:0.8;"/>
     </g>
     <g id="line2d_22">
      <g>
       <use style="stroke:#000000;stroke-width:0.8;" x="90" xlink:href="#m25a1536e0d" y="221.450926"/>
      </g>
     </g>
     <g id="text_12">
      <!-- 0.5 -->
      <g transform="translate(67.096875 225.250145)scale(0.1 -0.1)">
       <use xlink:href="#DejaVuSans-48"/>
       <use x="63.623047" xlink:href="#DejaVuSans-46"/>
       <use x="95.410156" xlink:href="#DejaVuSans-53"/>
      </g>
     </g>
    </g>
    <g id="ytick_4">
     <g id="line2d_23">
      <path clip-path="url(#p1670e4576b)" d="M 90 186.377695 
L 648 186.377695 
" style="fill:none;stroke:#b0b0b0;stroke-linecap:square;stroke-width:0.8;"/>
     </g>
     <g id="line2d_24">
      <g>
       <use style="stroke:#000000;stroke-width:0.8;" x="90" xlink:href="#m25a1536e0d" y="186.377695"/>
      </g>
     </g>
     <g id="text_13">
      <!-- 0.6 -->
      <g transform="translate(67.096875 190.176914)scale(0.1 -0.1)">
       <use xlink:href="#DejaVuSans-48"/>
       <use x="63.623047" xlink:href="#DejaVuSans-46"/>
       <use x="95.410156" xlink:href="#DejaVuSans-54"/>
      </g>
     </g>
    </g>
    <g id="ytick_5">
     <g id="line2d_25">
      <path clip-path="url(#p1670e4576b)" d="M 90 151.304465 
L 648 151.304465 
" style="fill:none;stroke:#b0b0b0;stroke-linecap:square;stroke-width:0.8;"/>
     </g>
     <g id="line2d_26">
      <g>
       <use style="stroke:#000000;stroke-width:0.8;" x="90" xlink:href="#m25a1536e0d" y="151.304465"/>
      </g>
     </g>
     <g id="text_14">
      <!-- 0.7 -->
      <g transform="translate(67.096875 155.103684)scale(0.1 -0.1)">
       <use xlink:href="#DejaVuSans-48"/>
       <use x="63.623047" xlink:href="#DejaVuSans-46"/>
       <use x="95.410156" xlink:href="#DejaVuSans-55"/>
      </g>
     </g>
    </g>
    <g id="ytick_6">
     <g id="line2d_27">
      <path clip-path="url(#p1670e4576b)" d="M 90 116.231234 
L 648 116.231234 
" style="fill:none;stroke:#b0b0b0;stroke-linecap:square;stroke-width:0.8;"/>
     </g>
     <g id="line2d_28">
      <g>
       <use style="stroke:#000000;stroke-width:0.8;" x="90" xlink:href="#m25a1536e0d" y="116.231234"/>
      </g>
     </g>
     <g id="text_15">
      <!-- 0.8 -->
      <defs>
       <path d="M 31.78125 34.625 
Q 24.75 34.625 20.71875 30.859375 
Q 16.703125 27.09375 16.703125 20.515625 
Q 16.703125 13.921875 20.71875 10.15625 
Q 24.75 6.390625 31.78125 6.390625 
Q 38.8125 6.390625 42.859375 10.171875 
Q 46.921875 13.96875 46.921875 20.515625 
Q 46.921875 27.09375 42.890625 30.859375 
Q 38.875 34.625 31.78125 34.625 
z
M 21.921875 38.8125 
Q 15.578125 40.375 12.03125 44.71875 
Q 8.5 49.078125 8.5 55.328125 
Q 8.5 64.0625 14.71875 69.140625 
Q 20.953125 74.21875 31.78125 74.21875 
Q 42.671875 74.21875 48.875 69.140625 
Q 55.078125 64.0625 55.078125 55.328125 
Q 55.078125 49.078125 51.53125 44.71875 
Q 48 40.375 41.703125 38.8125 
Q 48.828125 37.15625 52.796875 32.3125 
Q 56.78125 27.484375 56.78125 20.515625 
Q 56.78125 9.90625 50.3125 4.234375 
Q 43.84375 -1.421875 31.78125 -1.421875 
Q 19.734375 -1.421875 13.25 4.234375 
Q 6.78125 9.90625 6.78125 20.515625 
Q 6.78125 27.484375 10.78125 32.3125 
Q 14.796875 37.15625 21.921875 38.8125 
z
M 18.3125 54.390625 
Q 18.3125 48.734375 21.84375 45.5625 
Q 25.390625 42.390625 31.78125 42.390625 
Q 38.140625 42.390625 41.71875 45.5625 
Q 45.3125 48.734375 45.3125 54.390625 
Q 45.3125 60.0625 41.71875 63.234375 
Q 38.140625 66.40625 31.78125 66.40625 
Q 25.390625 66.40625 21.84375 63.234375 
Q 18.3125 60.0625 18.3125 54.390625 
z
" id="DejaVuSans-56"/>
      </defs>
      <g transform="translate(67.096875 120.030453)scale(0.1 -0.1)">
       <use xlink:href="#DejaVuSans-48"/>
       <use x="63.623047" xlink:href="#DejaVuSans-46"/>
       <use x="95.410156" xlink:href="#DejaVuSans-56"/>
      </g>
     </g>
    </g>
    <g id="ytick_7">
     <g id="line2d_29">
      <path clip-path="url(#p1670e4576b)" d="M 90 81.158004 
L 648 81.158004 
" style="fill:none;stroke:#b0b0b0;stroke-linecap:square;stroke-width:0.8;"/>
     </g>
     <g id="line2d_30">
      <g>
       <use style="stroke:#000000;stroke-width:0.8;" x="90" xlink:href="#m25a1536e0d" y="81.158004"/>
      </g>
     </g>
     <g id="text_16">
      <!-- 0.9 -->
      <defs>
       <path d="M 10.984375 1.515625 
L 10.984375 10.5 
Q 14.703125 8.734375 18.5 7.8125 
Q 22.3125 6.890625 25.984375 6.890625 
Q 35.75 6.890625 40.890625 13.453125 
Q 46.046875 20.015625 46.78125 33.40625 
Q 43.953125 29.203125 39.59375 26.953125 
Q 35.25 24.703125 29.984375 24.703125 
Q 19.046875 24.703125 12.671875 31.3125 
Q 6.296875 37.9375 6.296875 49.421875 
Q 6.296875 60.640625 12.9375 67.421875 
Q 19.578125 74.21875 30.609375 74.21875 
Q 43.265625 74.21875 49.921875 64.515625 
Q 56.59375 54.828125 56.59375 36.375 
Q 56.59375 19.140625 48.40625 8.859375 
Q 40.234375 -1.421875 26.421875 -1.421875 
Q 22.703125 -1.421875 18.890625 -0.6875 
Q 15.09375 0.046875 10.984375 1.515625 
z
M 30.609375 32.421875 
Q 37.25 32.421875 41.125 36.953125 
Q 45.015625 41.5 45.015625 49.421875 
Q 45.015625 57.28125 41.125 61.84375 
Q 37.25 66.40625 30.609375 66.40625 
Q 23.96875 66.40625 20.09375 61.84375 
Q 16.21875 57.28125 16.21875 49.421875 
Q 16.21875 41.5 20.09375 36.953125 
Q 23.96875 32.421875 30.609375 32.421875 
z
" id="DejaVuSans-57"/>
      </defs>
      <g transform="translate(67.096875 84.957222)scale(0.1 -0.1)">
       <use xlink:href="#DejaVuSans-48"/>
       <use x="63.623047" xlink:href="#DejaVuSans-46"/>
       <use x="95.410156" xlink:href="#DejaVuSans-57"/>
      </g>
     </g>
    </g>
    <g id="ytick_8">
     <g id="line2d_31">
      <path clip-path="url(#p1670e4576b)" d="M 90 46.084773 
L 648 46.084773 
" style="fill:none;stroke:#b0b0b0;stroke-linecap:square;stroke-width:0.8;"/>
     </g>
     <g id="line2d_32">
      <g>
       <use style="stroke:#000000;stroke-width:0.8;" x="90" xlink:href="#m25a1536e0d" y="46.084773"/>
      </g>
     </g>
     <g id="text_17">
      <!-- 1.0 -->
      <g transform="translate(67.096875 49.883992)scale(0.1 -0.1)">
       <use xlink:href="#DejaVuSans-49"/>
       <use x="63.623047" xlink:href="#DejaVuSans-46"/>
       <use x="95.410156" xlink:href="#DejaVuSans-48"/>
      </g>
     </g>
    </g>
    <g id="text_18">
     <!-- accuracy -->
     <defs>
      <path d="M 34.28125 27.484375 
Q 23.390625 27.484375 19.1875 25 
Q 14.984375 22.515625 14.984375 16.5 
Q 14.984375 11.71875 18.140625 8.90625 
Q 21.296875 6.109375 26.703125 6.109375 
Q 34.1875 6.109375 38.703125 11.40625 
Q 43.21875 16.703125 43.21875 25.484375 
L 43.21875 27.484375 
z
M 52.203125 31.203125 
L 52.203125 0 
L 43.21875 0 
L 43.21875 8.296875 
Q 40.140625 3.328125 35.546875 0.953125 
Q 30.953125 -1.421875 24.3125 -1.421875 
Q 15.921875 -1.421875 10.953125 3.296875 
Q 6 8.015625 6 15.921875 
Q 6 25.140625 12.171875 29.828125 
Q 18.359375 34.515625 30.609375 34.515625 
L 43.21875 34.515625 
L 43.21875 35.40625 
Q 43.21875 41.609375 39.140625 45 
Q 35.0625 48.390625 27.6875 48.390625 
Q 23 48.390625 18.546875 47.265625 
Q 14.109375 46.140625 10.015625 43.890625 
L 10.015625 52.203125 
Q 14.9375 54.109375 19.578125 55.046875 
Q 24.21875 56 28.609375 56 
Q 40.484375 56 46.34375 49.84375 
Q 52.203125 43.703125 52.203125 31.203125 
z
" id="DejaVuSans-97"/>
      <path d="M 8.5 21.578125 
L 8.5 54.6875 
L 17.484375 54.6875 
L 17.484375 21.921875 
Q 17.484375 14.15625 20.5 10.265625 
Q 23.53125 6.390625 29.59375 6.390625 
Q 36.859375 6.390625 41.078125 11.03125 
Q 45.3125 15.671875 45.3125 23.6875 
L 45.3125 54.6875 
L 54.296875 54.6875 
L 54.296875 0 
L 45.3125 0 
L 45.3125 8.40625 
Q 42.046875 3.421875 37.71875 1 
Q 33.40625 -1.421875 27.6875 -1.421875 
Q 18.265625 -1.421875 13.375 4.4375 
Q 8.5 10.296875 8.5 21.578125 
z
M 31.109375 56 
z
" id="DejaVuSans-117"/>
      <path d="M 41.109375 46.296875 
Q 39.59375 47.171875 37.8125 47.578125 
Q 36.03125 48 33.890625 48 
Q 26.265625 48 22.1875 43.046875 
Q 18.109375 38.09375 18.109375 28.8125 
L 18.109375 0 
L 9.078125 0 
L 9.078125 54.6875 
L 18.109375 54.6875 
L 18.109375 46.1875 
Q 20.953125 51.171875 25.484375 53.578125 
Q 30.03125 56 36.53125 56 
Q 37.453125 56 38.578125 55.875 
Q 39.703125 55.765625 41.0625 55.515625 
z
" id="DejaVuSans-114"/>
      <path d="M 32.171875 -5.078125 
Q 28.375 -14.84375 24.75 -17.8125 
Q 21.140625 -20.796875 15.09375 -20.796875 
L 7.90625 -20.796875 
L 7.90625 -13.28125 
L 13.1875 -13.28125 
Q 16.890625 -13.28125 18.9375 -11.515625 
Q 21 -9.765625 23.484375 -3.21875 
L 25.09375 0.875 
L 2.984375 54.6875 
L 12.5 54.6875 
L 29.59375 11.921875 
L 46.6875 54.6875 
L 56.203125 54.6875 
z
" id="DejaVuSans-121"/>
     </defs>
     <g transform="translate(61.017187 201.659375)rotate(-90)scale(0.1 -0.1)">
      <use xlink:href="#DejaVuSans-97"/>
      <use x="61.279297" xlink:href="#DejaVuSans-99"/>
      <use x="116.259766" xlink:href="#DejaVuSans-99"/>
      <use x="171.240234" xlink:href="#DejaVuSans-117"/>
      <use x="234.619141" xlink:href="#DejaVuSans-114"/>
      <use x="275.732422" xlink:href="#DejaVuSans-97"/>
      <use x="337.011719" xlink:href="#DejaVuSans-99"/>
      <use x="391.992188" xlink:href="#DejaVuSans-121"/>
     </g>
    </g>
   </g>
   <g id="line2d_33">
    <path clip-path="url(#p1670e4576b)" d="M 115.363636 302.645455 
L 116.109626 296.156907 
L 117.601604 281.776882 
L 118.347594 279.497122 
L 119.093583 274.849919 
L 119.839572 265.906246 
L 120.585561 268.273689 
L 122.823529 247.668166 
L 123.569519 244.862307 
L 124.315508 241.53035 
L 125.061497 237.672295 
L 125.807487 233.112775 
L 126.553476 231.972895 
L 127.299465 224.519834 
L 128.045455 224.081418 
L 128.791444 215.663843 
L 129.537433 216.189941 
L 130.283422 206.106388 
L 131.029412 204.615775 
L 131.775401 198.47796 
L 132.52139 197.951861 
L 133.26738 192.866243 
L 134.013369 190.148068 
L 134.759358 186.903794 
L 135.505348 181.818175 
L 137.743316 169.717911 
L 138.489305 167.876566 
L 139.235294 168.84108 
L 139.981283 163.404729 
L 140.727273 162.966314 
L 141.473262 150.427634 
L 142.219251 156.214717 
L 142.965241 151.74288 
L 143.71123 150.866049 
L 144.457219 148.410923 
L 145.203209 147.621776 
L 145.949198 141.747009 
L 146.695187 137.362856 
L 147.441176 136.749074 
L 148.187166 136.486025 
L 148.933155 133.592483 
L 149.679144 133.066385 
L 150.425134 134.469314 
L 152.663102 124.736493 
L 153.409091 124.999542 
L 154.15508 124.38576 
L 154.90107 121.930634 
L 155.647059 122.018317 
L 156.393048 118.861727 
L 157.139037 119.738557 
L 157.885027 116.318917 
L 158.631016 115.354404 
L 159.377005 115.52977 
L 160.122995 108.339757 
L 160.868984 109.041222 
L 161.614973 110.356468 
L 162.360963 113.074644 
L 163.106952 109.918053 
L 163.852941 111.320982 
L 164.59893 108.69049 
L 165.34492 105.358533 
L 166.090909 105.446216 
L 166.836898 104.043287 
L 167.582888 106.41073 
L 168.328877 101.938893 
L 169.074866 105.972314 
L 169.820856 103.429505 
L 170.566845 102.464991 
L 171.312834 101.85121 
L 172.058824 99.57145 
L 172.804813 96.765591 
L 173.550802 97.554739 
L 174.296791 95.187296 
L 175.042781 96.15181 
L 175.78877 95.187296 
L 176.534759 93.082902 
L 177.280749 95.538028 
L 178.026738 95.01193 
L 178.772727 91.855339 
L 179.518717 93.609001 
L 180.264706 92.381438 
L 181.010695 91.855339 
L 181.756684 92.556804 
L 183.248663 92.293754 
L 183.994652 90.890825 
L 184.740642 88.961798 
L 185.486631 88.611065 
L 186.23262 88.961798 
L 186.97861 87.734234 
L 187.724599 88.698748 
L 188.470588 88.874114 
L 189.962567 81.947151 
L 190.708556 89.049481 
L 191.454545 85.279108 
L 192.200535 85.89289 
L 192.946524 86.155939 
L 193.692513 85.279108 
L 194.438503 84.051545 
L 195.184492 84.489961 
L 195.930481 84.577644 
L 196.676471 82.385567 
L 197.42246 82.648616 
L 198.168449 84.139228 
L 198.914439 82.560933 
L 199.660428 81.508736 
L 200.406417 82.210201 
L 201.152406 81.158004 
L 201.898396 82.47325 
L 202.644385 81.070321 
L 203.390374 80.631905 
L 204.136364 78.702878 
L 204.882353 79.579708 
L 205.628342 81.421053 
L 206.374332 80.894955 
L 207.120321 80.018124 
L 207.86631 80.018124 
L 208.612299 79.05361 
L 209.358289 80.105807 
L 210.104278 77.738364 
L 210.850267 78.790561 
L 211.596257 79.316659 
L 212.342246 80.018124 
L 213.088235 79.316659 
L 213.834225 80.719588 
L 214.580214 77.562998 
L 215.326203 76.686167 
L 216.072193 77.299948 
L 216.818182 74.49409 
L 217.564171 77.036899 
L 218.31016 75.283238 
L 219.05615 74.318724 
L 220.548128 75.546287 
L 221.294118 74.669456 
L 222.040107 76.949216 
L 222.786096 75.546287 
L 223.532086 74.844822 
L 224.278075 75.721653 
L 225.024064 73.792625 
L 225.770053 74.757139 
L 227.262032 72.477379 
L 228.008021 74.49409 
L 228.754011 72.740428 
L 229.5 74.406407 
L 230.245989 73.003478 
L 230.991979 74.844822 
L 231.737968 71.425182 
L 232.483957 72.389696 
L 233.229947 72.21433 
L 233.975936 74.318724 
L 234.721925 75.283238 
L 235.467914 71.512865 
L 236.213904 72.915795 
L 236.959893 71.951281 
L 237.705882 71.951281 
L 238.451872 71.249816 
L 239.94385 74.055675 
L 240.68984 71.775915 
L 241.435829 70.986767 
L 242.181818 72.302013 
L 242.927807 70.460668 
L 243.673797 72.828111 
L 244.419786 71.425182 
L 245.165775 71.337499 
L 245.911765 69.320788 
L 246.657754 70.548352 
L 247.403743 69.408472 
L 248.149733 70.811401 
L 248.895722 70.372985 
L 249.641711 69.671521 
L 251.13369 70.636035 
L 251.879679 68.356275 
L 252.625668 70.022253 
L 254.117647 70.723718 
L 254.863636 70.109936 
L 255.609626 69.057739 
L 256.355615 70.899084 
L 257.101604 71.249816 
L 257.847594 71.425182 
L 258.593583 68.180908 
L 259.339572 69.057739 
L 260.085561 71.162133 
L 260.831551 69.671521 
L 261.57754 68.970056 
L 262.323529 69.496155 
L 263.069519 71.162133 
L 263.815508 70.899084 
L 264.561497 69.057739 
L 265.307487 70.636035 
L 266.053476 69.759204 
L 267.545455 70.022253 
L 268.291444 67.128712 
L 269.037433 67.830176 
L 269.783422 67.391761 
L 270.529412 70.109936 
L 271.275401 66.427247 
L 272.02139 69.057739 
L 272.76738 67.567127 
L 273.513369 66.602613 
L 274.259358 68.882373 
L 275.005348 68.093225 
L 275.751337 69.145422 
L 276.497326 68.707007 
L 277.243316 70.986767 
L 277.989305 66.777979 
L 278.735294 66.690296 
L 279.481283 69.93457 
L 280.973262 67.128712 
L 281.719251 68.970056 
L 282.465241 67.742493 
L 283.21123 66.076515 
L 283.957219 67.216395 
L 284.703209 68.005542 
L 285.449198 68.005542 
L 286.195187 66.251881 
L 286.941176 67.216395 
L 287.687166 67.479444 
L 288.433155 67.391761 
L 289.925134 66.777979 
L 291.417112 68.882373 
L 292.163102 67.917859 
L 292.909091 66.339564 
L 293.65508 66.602613 
L 294.40107 66.164198 
L 296.639037 66.953345 
L 297.385027 67.391761 
L 298.131016 67.216395 
L 298.877005 66.164198 
L 299.622995 66.690296 
L 300.368984 66.51493 
L 301.114973 64.673585 
L 301.860963 65.988832 
L 302.606952 67.041028 
L 303.352941 66.690296 
L 304.09893 65.287367 
L 304.84492 66.953345 
L 305.590909 66.251881 
L 306.336898 67.304078 
L 307.082888 65.550416 
L 307.828877 64.322853 
L 308.574866 65.638099 
L 310.066845 66.076515 
L 310.812834 65.901148 
L 311.558824 66.251881 
L 312.304813 65.024318 
L 313.050802 64.147487 
L 313.796791 65.638099 
L 314.542781 65.112001 
L 315.28877 66.076515 
L 316.780749 63.884438 
L 317.526738 65.550416 
L 318.272727 64.848952 
L 319.018717 67.304078 
L 319.764706 64.585902 
L 320.510695 65.199684 
L 321.256684 63.182973 
L 323.494652 66.427247 
L 324.240642 63.709072 
L 324.986631 62.656875 
L 325.73262 62.218459 
L 326.47861 64.410536 
L 327.224599 63.972121 
L 327.970588 64.23517 
L 328.716578 62.218459 
L 329.462567 64.848952 
L 330.208556 64.410536 
L 330.954545 64.410536 
L 331.700535 65.112001 
L 332.446524 65.638099 
L 333.192513 65.988832 
L 333.938503 65.813465 
L 334.684492 66.251881 
L 335.430481 64.673585 
L 336.176471 65.638099 
L 336.92246 65.550416 
L 337.668449 62.481508 
L 338.414439 65.024318 
L 339.160428 63.709072 
L 339.906417 64.848952 
L 340.652406 65.199684 
L 341.398396 63.358339 
L 342.144385 64.585902 
L 342.890374 63.533705 
L 343.636364 62.919924 
L 344.382353 65.462733 
L 345.128342 62.218459 
L 345.874332 64.059804 
L 346.620321 63.709072 
L 348.112299 65.813465 
L 348.858289 62.043093 
L 349.604278 64.410536 
L 350.350267 64.23517 
L 351.096257 63.709072 
L 351.842246 61.692361 
L 352.588235 64.147487 
L 353.334225 63.533705 
L 354.826203 63.972121 
L 355.572193 64.059804 
L 356.318182 64.761268 
L 357.064171 62.218459 
L 357.81016 63.796755 
L 358.55615 65.901148 
L 359.302139 63.182973 
L 360.048128 65.988832 
L 360.794118 63.09529 
L 361.540107 64.147487 
L 362.286096 63.09529 
L 363.032086 63.796755 
L 363.778075 62.656875 
L 364.524064 63.270656 
L 365.270053 62.481508 
L 366.016043 63.972121 
L 366.762032 59.587967 
L 367.508021 63.621388 
L 368.254011 64.936635 
L 369 64.498219 
L 369.745989 61.341628 
L 370.491979 63.358339 
L 371.237968 62.306142 
L 371.983957 60.81553 
L 372.729947 65.199684 
L 373.475936 62.656875 
L 374.221925 64.585902 
L 374.967914 61.078579 
L 375.713904 64.410536 
L 376.459893 63.621388 
L 377.205882 63.533705 
L 377.951872 62.656875 
L 378.697861 62.130776 
L 379.44385 62.919924 
L 380.18984 63.884438 
L 380.935829 65.550416 
L 381.681818 64.585902 
L 382.427807 63.007607 
L 383.919786 63.709072 
L 384.665775 62.306142 
L 385.411765 63.533705 
L 386.903743 62.043093 
L 387.649733 62.043093 
L 388.395722 62.306142 
L 389.141711 63.09529 
L 389.887701 64.498219 
L 390.63369 62.656875 
L 391.379679 62.218459 
L 392.125668 61.429312 
L 392.871658 64.147487 
L 393.617647 62.218459 
L 394.363636 64.936635 
L 395.109626 64.673585 
L 395.855615 62.130776 
L 396.601604 63.884438 
L 397.347594 62.656875 
L 398.093583 61.95541 
L 398.839572 63.709072 
L 400.331551 60.377115 
L 401.07754 63.358339 
L 401.823529 63.182973 
L 403.315508 60.727847 
L 404.061497 63.270656 
L 404.807487 61.429312 
L 405.553476 62.043093 
L 406.299465 61.516995 
L 407.045455 62.569192 
L 407.791444 61.692361 
L 408.537433 62.043093 
L 409.283422 60.81553 
L 410.029412 62.043093 
L 410.775401 61.692361 
L 411.52139 60.552481 
L 412.26738 62.569192 
L 413.013369 62.832241 
L 413.759358 62.656875 
L 414.505348 60.289432 
L 415.251337 61.780044 
L 415.997326 62.306142 
L 416.743316 62.481508 
L 417.489305 59.851016 
L 418.235294 61.078579 
L 418.981283 61.166262 
L 419.727273 61.078579 
L 420.473262 61.429312 
L 421.219251 62.832241 
L 421.965241 60.377115 
L 422.71123 60.81553 
L 423.457219 62.218459 
L 424.203209 64.147487 
L 424.949198 60.640164 
L 425.695187 62.569192 
L 426.441176 62.393825 
L 427.187166 59.763333 
L 427.933155 61.692361 
L 428.679144 60.201748 
L 429.425134 61.780044 
L 430.171123 61.516995 
L 430.917112 60.903213 
L 431.663102 61.95541 
L 432.409091 61.780044 
L 433.15508 62.744558 
L 433.90107 61.253945 
L 434.647059 60.990896 
L 435.393048 58.974185 
L 436.139037 60.990896 
L 436.885027 60.81553 
L 437.631016 60.114065 
L 438.377005 62.306142 
L 439.122995 59.763333 
L 439.868984 60.990896 
L 440.614973 60.990896 
L 441.360963 61.604678 
L 442.106952 60.727847 
L 442.852941 60.990896 
L 443.59893 58.53577 
L 444.34492 61.078579 
L 445.090909 61.166262 
L 445.836898 61.780044 
L 446.582888 61.341628 
L 447.328877 61.604678 
L 448.074866 60.81553 
L 448.820856 60.289432 
L 449.566845 62.043093 
L 450.312834 61.516995 
L 451.058824 61.95541 
L 451.804813 61.166262 
L 452.550802 60.903213 
L 453.296791 61.780044 
L 454.042781 61.867727 
L 454.78877 60.026382 
L 455.534759 62.569192 
L 456.280749 59.500284 
L 457.026738 61.429312 
L 457.772727 61.341628 
L 458.518717 60.026382 
L 459.264706 63.796755 
L 460.010695 59.061869 
L 460.756684 61.692361 
L 461.502674 60.464798 
L 462.248663 59.938699 
L 462.994652 60.464798 
L 463.740642 58.448087 
L 464.486631 61.078579 
L 465.23262 58.886502 
L 465.97861 60.114065 
L 466.724599 59.324918 
L 467.470588 59.851016 
L 468.216578 60.640164 
L 468.962567 61.166262 
L 469.708556 60.464798 
L 470.454545 59.938699 
L 471.200535 59.237235 
L 471.946524 59.763333 
L 472.692513 59.149552 
L 473.438503 59.061869 
L 474.184492 59.500284 
L 474.930481 60.289432 
L 475.676471 58.886502 
L 476.42246 60.201748 
L 477.168449 59.237235 
L 477.914439 60.727847 
L 478.660428 59.587967 
L 479.406417 59.67565 
L 480.152406 59.938699 
L 480.898396 59.412601 
L 481.644385 61.516995 
L 483.136364 58.360404 
L 484.628342 61.166262 
L 485.374332 59.412601 
L 486.120321 59.412601 
L 486.86631 60.377115 
L 487.612299 62.043093 
L 488.358289 59.763333 
L 489.104278 61.429312 
L 489.850267 59.763333 
L 490.596257 58.798819 
L 491.342246 60.552481 
L 492.088235 59.061869 
L 492.834225 59.412601 
L 493.580214 58.711136 
L 494.326203 61.604678 
L 495.072193 59.149552 
L 495.818182 58.886502 
L 496.564171 56.606742 
L 497.31016 59.938699 
L 498.05615 59.061869 
L 498.802139 59.763333 
L 499.548128 59.412601 
L 500.294118 60.552481 
L 501.040107 58.623453 
L 501.786096 59.061869 
L 502.532086 58.53577 
L 503.278075 60.114065 
L 504.024064 59.763333 
L 504.770053 58.009672 
L 505.516043 60.727847 
L 506.262032 60.81553 
L 507.008021 59.149552 
L 507.754011 61.166262 
L 508.5 61.078579 
L 509.245989 60.201748 
L 509.991979 60.026382 
L 511.483957 59.237235 
L 512.229947 60.990896 
L 512.975936 59.237235 
L 513.721925 59.500284 
L 514.467914 60.289432 
L 515.213904 59.061869 
L 515.959893 60.201748 
L 516.705882 59.149552 
L 517.451872 58.974185 
L 518.197861 59.763333 
L 518.94385 58.623453 
L 519.68984 60.640164 
L 520.435829 58.623453 
L 521.181818 57.132841 
L 521.927807 58.53577 
L 522.673797 57.746622 
L 523.419786 59.149552 
L 524.165775 58.798819 
L 524.911765 59.412601 
L 525.657754 59.763333 
L 526.403743 59.587967 
L 527.149733 58.097355 
L 527.895722 59.763333 
L 529.387701 58.097355 
L 530.13369 58.798819 
L 530.879679 59.149552 
L 531.625668 60.464798 
L 532.371658 58.974185 
L 533.117647 56.782109 
L 533.863636 58.185038 
L 534.609626 56.957475 
L 535.355615 59.324918 
L 536.101604 59.763333 
L 536.847594 58.623453 
L 537.593583 59.324918 
L 538.339572 57.834305 
L 539.085561 58.886502 
L 539.831551 58.623453 
L 540.57754 57.220524 
L 541.323529 57.921989 
L 542.069519 58.272721 
L 542.815508 57.045158 
L 543.561497 58.53577 
L 544.307487 58.798819 
L 545.053476 58.53577 
L 545.799465 59.324918 
L 546.545455 57.308207 
L 547.291444 58.711136 
L 548.037433 56.25601 
L 548.783422 60.464798 
L 549.529412 57.921989 
L 550.275401 58.798819 
L 551.02139 57.571256 
L 551.76738 57.39589 
L 552.513369 58.623453 
L 553.259358 58.623453 
L 554.005348 59.324918 
L 554.751337 57.308207 
L 555.497326 58.623453 
L 556.243316 56.957475 
L 556.989305 57.658939 
L 557.735294 57.045158 
L 558.481283 58.009672 
L 559.227273 57.658939 
L 559.973262 58.798819 
L 560.719251 58.886502 
L 561.465241 59.763333 
L 562.21123 57.834305 
L 562.957219 58.886502 
L 563.703209 59.061869 
L 565.195187 58.448087 
L 565.941176 59.412601 
L 566.687166 59.500284 
L 568.179144 58.53577 
L 568.925134 57.39589 
L 569.671123 58.53577 
L 570.417112 58.097355 
L 571.163102 59.324918 
L 571.909091 59.237235 
L 572.65508 60.377115 
L 573.40107 57.834305 
L 574.147059 58.272721 
L 574.893048 59.938699 
L 575.639037 59.851016 
L 576.385027 57.921989 
L 577.131016 58.711136 
L 577.877005 57.921989 
L 579.368984 58.360404 
L 580.860963 58.272721 
L 581.606952 56.606742 
L 582.352941 59.149552 
L 583.09893 59.149552 
L 583.84492 58.711136 
L 584.590909 56.431376 
L 585.336898 58.360404 
L 586.082888 56.606742 
L 586.828877 59.67565 
L 587.574866 57.921989 
L 588.320856 57.132841 
L 589.066845 59.061869 
L 589.812834 57.571256 
L 590.558824 58.448087 
L 591.304813 57.39589 
L 592.050802 57.308207 
L 592.796791 58.448087 
L 593.542781 56.782109 
L 595.034759 59.061869 
L 595.780749 58.185038 
L 596.526738 56.168327 
L 597.272727 55.729912 
L 598.018717 57.921989 
L 598.764706 58.711136 
L 599.510695 58.185038 
L 600.256684 56.694425 
L 601.002674 58.798819 
L 602.494652 57.658939 
L 603.240642 59.237235 
L 603.986631 58.009672 
L 604.73262 58.448087 
L 605.47861 56.694425 
L 606.224599 58.798819 
L 606.970588 58.623453 
L 607.716578 56.519059 
L 608.462567 56.519059 
L 609.208556 57.308207 
L 609.954545 56.606742 
L 610.700535 58.272721 
L 611.446524 58.272721 
L 612.192513 56.957475 
L 612.938503 58.623453 
L 613.684492 58.53577 
L 614.430481 56.694425 
L 615.176471 57.220524 
L 615.92246 58.53577 
L 616.668449 57.308207 
L 617.414439 58.360404 
L 618.160428 57.746622 
L 618.906417 57.308207 
L 619.652406 56.606742 
L 620.398396 57.658939 
L 621.144385 58.360404 
L 621.890374 55.554545 
L 622.636364 58.097355 
L 622.636364 58.097355 
" style="fill:none;stroke:#1f77b4;stroke-linecap:square;stroke-width:0.5;"/>
   </g>
   <g id="line2d_34">
    <path clip-path="url(#p1670e4576b)" d="M 115.363636 299.225815 
L 116.109626 301.680941 
L 116.855615 288.703845 
L 117.601604 285.284205 
L 118.347594 283.968959 
L 119.839572 269.764301 
L 120.585561 266.520027 
L 121.331551 265.380147 
L 122.07754 257.751719 
L 122.823529 254.770495 
L 123.569519 249.158778 
L 124.315508 246.879018 
L 125.061497 239.51364 
L 125.807487 241.267301 
L 126.553476 233.989606 
L 127.299465 229.693135 
L 128.045455 221.977024 
L 128.791444 221.363243 
L 129.537433 214.523963 
L 130.283422 214.699329 
L 131.029412 209.87676 
L 131.775401 208.649197 
L 132.52139 203.212846 
L 133.26738 194.532221 
L 134.013369 198.47796 
L 134.759358 185.588548 
L 135.505348 187.780625 
L 136.251337 183.65952 
L 136.997326 183.308788 
L 137.743316 171.822305 
L 138.489305 176.031092 
L 139.235294 173.137551 
L 139.981283 164.193877 
L 140.727273 162.0018 
L 141.473262 161.826434 
L 142.219251 158.406794 
L 142.965241 157.179231 
L 143.71123 158.319111 
L 144.457219 153.321176 
L 145.203209 151.216782 
L 145.949198 148.586289 
L 146.695187 147.271043 
L 147.441176 144.815917 
L 148.187166 143.062256 
L 148.933155 139.379566 
L 149.679144 138.32737 
L 150.425134 139.467249 
L 151.171123 137.099806 
L 151.917112 133.154068 
L 152.663102 131.049674 
L 153.409091 130.698942 
L 154.15508 132.540286 
L 154.90107 127.717717 
L 155.647059 126.139422 
L 156.393048 122.895148 
L 157.139037 127.630034 
L 157.885027 124.035028 
L 158.631016 123.771979 
L 159.377005 116.494284 
L 160.122995 118.68636 
L 160.868984 117.984896 
L 162.360963 116.231234 
L 163.106952 116.318917 
L 163.852941 117.54648 
L 164.59893 117.634163 
L 165.34492 112.98696 
L 166.090909 110.444151 
L 166.836898 108.778173 
L 167.582888 113.337693 
L 168.328877 109.128905 
L 169.074866 108.076708 
L 169.820856 107.462927 
L 170.566845 108.164391 
L 171.312834 108.076708 
L 172.058824 105.358533 
L 172.804813 109.56732 
L 173.550802 104.218653 
L 174.296791 102.026576 
L 175.042781 105.007801 
L 175.78877 100.448281 
L 176.534759 101.325111 
L 177.280749 97.642422 
L 178.026738 102.99109 
L 178.772727 101.237428 
L 180.264706 99.045351 
L 181.010695 98.957668 
L 181.756684 99.133034 
L 182.502674 101.588161 
L 183.994652 93.959733 
L 184.740642 95.450345 
L 185.486631 94.135099 
L 186.23262 97.467056 
L 186.97861 91.59229 
L 187.724599 93.345951 
L 188.470588 94.047416 
L 189.216578 92.381438 
L 189.962567 93.433634 
L 190.708556 88.874114 
L 191.454545 91.416924 
L 192.200535 92.381438 
L 192.946524 92.293754 
L 193.692513 87.558868 
L 194.438503 88.523382 
L 195.184492 89.926311 
L 195.930481 89.049481 
L 196.676471 88.874114 
L 197.42246 88.435699 
L 198.168449 88.961798 
L 198.914439 87.734234 
L 199.660428 87.383502 
L 200.406417 86.331305 
L 201.152406 87.646551 
L 201.898396 87.295819 
L 202.644385 85.279108 
L 203.390374 84.577644 
L 204.136364 82.911665 
L 204.882353 85.629841 
L 205.628342 83.963862 
L 207.120321 85.629841 
L 207.86631 83.876179 
L 208.612299 84.489961 
L 209.358289 82.999348 
L 210.104278 83.087031 
L 210.850267 84.665327 
L 211.596257 83.350081 
L 212.342246 82.560933 
L 213.088235 82.47325 
L 213.834225 83.174714 
L 214.580214 82.911665 
L 215.326203 81.421053 
L 216.072193 82.122518 
L 216.818182 78.001413 
L 217.564171 79.667391 
L 218.31016 80.982638 
L 219.05615 79.842758 
L 219.802139 82.034835 
L 220.548128 80.456539 
L 221.294118 81.421053 
L 222.040107 81.684102 
L 222.786096 79.930441 
L 223.532086 76.861533 
L 224.278075 80.894955 
L 225.024064 79.05361 
L 225.770053 77.738364 
L 226.516043 78.702878 
L 227.262032 79.05361 
L 228.008021 77.299948 
L 228.754011 79.404342 
L 229.5 76.335435 
L 230.245989 78.790561 
L 231.737968 76.247751 
L 232.483957 78.702878 
L 233.229947 77.738364 
L 233.975936 78.439828 
L 234.721925 77.387631 
L 235.467914 78.965927 
L 236.213904 77.036899 
L 236.959893 79.492025 
L 237.705882 77.562998 
L 238.451872 74.143358 
L 239.197861 76.160068 
L 239.94385 74.49409 
L 240.68984 77.299948 
L 241.435829 75.897019 
L 242.181818 73.003478 
L 242.927807 75.984702 
L 243.673797 76.861533 
L 244.419786 76.861533 
L 245.165775 74.406407 
L 245.911765 75.809336 
L 246.657754 76.072385 
L 247.403743 75.283238 
L 248.149733 74.231041 
L 248.895722 75.546287 
L 249.641711 75.370921 
L 250.387701 74.231041 
L 251.13369 74.49409 
L 251.879679 74.581773 
L 252.625668 73.441893 
L 253.371658 76.510801 
L 254.117647 72.389696 
L 254.863636 73.266527 
L 255.609626 77.036899 
L 256.355615 74.844822 
L 257.101604 74.231041 
L 257.847594 72.21433 
L 258.593583 75.195555 
L 259.339572 71.688231 
L 260.085561 72.565062 
L 260.831551 75.63397 
L 261.57754 73.091161 
L 262.323529 75.63397 
L 263.069519 73.792625 
L 263.815508 72.915795 
L 264.561497 75.370921 
L 265.307487 72.389696 
L 266.053476 72.652745 
L 266.799465 75.721653 
L 267.545455 72.477379 
L 268.291444 74.844822 
L 269.037433 73.091161 
L 269.783422 74.318724 
L 270.529412 73.266527 
L 271.275401 71.07445 
L 272.02139 73.880308 
L 272.76738 72.389696 
L 273.513369 73.266527 
L 274.259358 71.337499 
L 275.005348 72.302013 
L 275.751337 71.775915 
L 276.497326 73.35421 
L 277.243316 72.652745 
L 277.989305 72.740428 
L 278.735294 71.425182 
L 279.481283 72.302013 
L 280.227273 74.143358 
L 280.973262 71.863598 
L 281.719251 73.617259 
L 282.465241 72.828111 
L 283.957219 73.704942 
L 284.703209 73.441893 
L 285.449198 71.600548 
L 286.195187 70.636035 
L 286.941176 71.775915 
L 287.687166 69.408472 
L 288.433155 72.740428 
L 289.179144 70.899084 
L 289.925134 69.671521 
L 290.671123 72.302013 
L 292.163102 72.21433 
L 292.909091 73.35421 
L 293.65508 70.022253 
L 294.40107 73.967991 
L 295.893048 71.688231 
L 296.639037 70.022253 
L 297.385027 69.145422 
L 298.131016 72.389696 
L 298.877005 69.759204 
L 299.622995 71.337499 
L 300.368984 72.477379 
L 301.114973 70.460668 
L 301.860963 70.285302 
L 302.606952 71.425182 
L 303.352941 70.636035 
L 304.09893 72.038964 
L 304.84492 68.882373 
L 305.590909 70.372985 
L 306.336898 69.583838 
L 307.828877 70.197619 
L 308.574866 71.688231 
L 309.320856 69.93457 
L 310.066845 70.636035 
L 310.812834 70.372985 
L 311.558824 70.548352 
L 312.304813 68.268592 
L 313.050802 71.775915 
L 313.796791 68.443958 
L 314.542781 71.512865 
L 315.28877 68.882373 
L 316.780749 70.723718 
L 317.526738 69.233105 
L 318.272727 70.197619 
L 319.018717 68.443958 
L 319.764706 69.145422 
L 320.510695 68.619324 
L 321.256684 70.285302 
L 322.002674 70.723718 
L 322.748663 69.846887 
L 323.494652 71.425182 
L 324.240642 68.268592 
L 324.986631 68.443958 
L 325.73262 70.636035 
L 326.47861 70.285302 
L 327.224599 68.093225 
L 327.970588 67.917859 
L 328.716578 68.005542 
L 329.462567 69.846887 
L 330.208556 69.671521 
L 330.954545 71.249816 
L 331.700535 69.93457 
L 332.446524 70.811401 
L 333.192513 70.548352 
L 333.938503 66.690296 
L 334.684492 70.372985 
L 335.430481 68.970056 
L 336.176471 70.372985 
L 336.92246 68.707007 
L 338.414439 71.600548 
L 339.160428 70.372985 
L 339.906417 68.707007 
L 340.652406 70.022253 
L 341.398396 69.233105 
L 342.144385 69.320788 
L 342.890374 68.005542 
L 343.636364 70.636035 
L 344.382353 69.496155 
L 345.128342 70.109936 
L 345.874332 68.443958 
L 346.620321 70.899084 
L 347.36631 70.285302 
L 348.112299 70.636035 
L 348.858289 68.707007 
L 349.604278 68.531641 
L 350.350267 70.372985 
L 351.096257 69.671521 
L 351.842246 69.93457 
L 352.588235 71.951281 
L 353.334225 69.671521 
L 354.080214 67.830176 
L 354.826203 68.619324 
L 355.572193 68.356275 
L 356.318182 70.197619 
L 357.064171 70.811401 
L 357.81016 70.899084 
L 358.55615 68.443958 
L 359.302139 70.811401 
L 360.048128 68.531641 
L 360.794118 69.583838 
L 361.540107 70.285302 
L 362.286096 70.197619 
L 363.032086 70.285302 
L 363.778075 70.723718 
L 364.524064 68.882373 
L 365.270053 70.109936 
L 366.016043 67.216395 
L 366.762032 67.830176 
L 367.508021 69.233105 
L 368.254011 69.233105 
L 369 68.268592 
L 369.745989 65.988832 
L 370.491979 68.882373 
L 371.237968 69.408472 
L 371.983957 67.567127 
L 372.729947 66.865662 
L 374.221925 66.953345 
L 374.967914 68.531641 
L 375.713904 66.865662 
L 376.459893 69.057739 
L 377.205882 67.567127 
L 377.951872 69.496155 
L 378.697861 67.742493 
L 379.44385 68.882373 
L 380.18984 69.671521 
L 380.935829 70.285302 
L 381.681818 70.372985 
L 382.427807 67.567127 
L 383.173797 68.531641 
L 383.919786 68.268592 
L 384.665775 69.233105 
L 385.411765 69.145422 
L 386.157754 67.830176 
L 386.903743 67.216395 
L 387.649733 68.882373 
L 388.395722 69.233105 
L 389.141711 68.970056 
L 389.887701 68.531641 
L 390.63369 69.846887 
L 391.379679 70.372985 
L 392.125668 69.408472 
L 392.871658 70.109936 
L 393.617647 69.057739 
L 394.363636 67.128712 
L 395.109626 68.531641 
L 395.855615 70.548352 
L 396.601604 69.057739 
L 397.347594 70.022253 
L 398.093583 67.917859 
L 398.839572 68.882373 
L 399.585561 68.268592 
L 400.331551 70.372985 
L 401.07754 68.970056 
L 401.823529 69.759204 
L 402.569519 68.882373 
L 403.315508 68.619324 
L 404.061497 66.51493 
L 404.807487 68.970056 
L 405.553476 67.830176 
L 406.299465 69.057739 
L 407.045455 69.145422 
L 407.791444 68.005542 
L 408.537433 70.986767 
L 409.283422 68.443958 
L 410.029412 67.830176 
L 410.775401 68.531641 
L 411.52139 67.216395 
L 412.26738 68.531641 
L 413.013369 68.531641 
L 413.759358 66.690296 
L 414.505348 68.093225 
L 415.251337 68.093225 
L 415.997326 67.567127 
L 416.743316 70.109936 
L 417.489305 71.337499 
L 418.235294 68.970056 
L 418.981283 67.917859 
L 419.727273 68.443958 
L 420.473262 69.846887 
L 421.219251 66.076515 
L 421.965241 69.233105 
L 422.71123 69.233105 
L 423.457219 69.671521 
L 424.203209 67.391761 
L 424.949198 68.882373 
L 425.695187 68.882373 
L 426.441176 68.093225 
L 427.187166 69.233105 
L 427.933155 68.093225 
L 428.679144 67.479444 
L 429.425134 68.093225 
L 430.171123 70.197619 
L 430.917112 66.865662 
L 431.663102 67.742493 
L 432.409091 67.567127 
L 433.15508 67.128712 
L 433.90107 66.953345 
L 434.647059 69.408472 
L 435.393048 68.180908 
L 436.139037 68.356275 
L 436.885027 66.602613 
L 437.631016 68.356275 
L 438.377005 68.093225 
L 439.122995 68.268592 
L 439.868984 70.109936 
L 440.614973 65.638099 
L 441.360963 70.285302 
L 442.106952 67.742493 
L 442.852941 68.356275 
L 443.59893 67.567127 
L 444.34492 65.462733 
L 445.090909 67.216395 
L 445.836898 67.391761 
L 446.582888 66.602613 
L 447.328877 67.830176 
L 448.074866 69.671521 
L 448.820856 67.391761 
L 450.312834 68.443958 
L 451.058824 66.251881 
L 451.804813 68.356275 
L 452.550802 69.583838 
L 453.296791 68.79469 
L 454.042781 68.268592 
L 454.78877 67.128712 
L 455.534759 69.057739 
L 456.280749 68.005542 
L 457.026738 69.846887 
L 457.772727 68.79469 
L 458.518717 68.268592 
L 459.264706 67.041028 
L 460.010695 67.65481 
L 461.502674 68.093225 
L 462.248663 68.443958 
L 462.994652 69.496155 
L 463.740642 66.690296 
L 464.486631 69.671521 
L 465.23262 68.882373 
L 465.97861 66.427247 
L 466.724599 68.970056 
L 467.470588 67.479444 
L 468.216578 66.777979 
L 468.962567 68.970056 
L 469.708556 68.619324 
L 470.454545 69.233105 
L 471.200535 68.093225 
L 471.946524 67.216395 
L 472.692513 67.479444 
L 473.438503 66.251881 
L 474.184492 66.690296 
L 474.930481 69.496155 
L 475.676471 67.304078 
L 476.42246 66.427247 
L 477.168449 68.005542 
L 477.914439 67.479444 
L 478.660428 68.268592 
L 479.406417 66.865662 
L 480.152406 68.79469 
L 480.898396 69.320788 
L 481.644385 68.707007 
L 482.390374 67.391761 
L 483.136364 67.917859 
L 483.882353 66.865662 
L 484.628342 69.583838 
L 485.374332 67.304078 
L 486.120321 69.320788 
L 486.86631 69.408472 
L 487.612299 69.057739 
L 488.358289 66.865662 
L 489.104278 68.180908 
L 489.850267 66.690296 
L 490.596257 68.356275 
L 491.342246 67.65481 
L 492.088235 69.496155 
L 492.834225 67.479444 
L 493.580214 68.356275 
L 494.326203 68.619324 
L 495.072193 66.777979 
L 496.564171 68.707007 
L 497.31016 67.742493 
L 498.05615 68.970056 
L 498.802139 69.583838 
L 499.548128 69.320788 
L 500.294118 69.759204 
L 501.040107 67.567127 
L 501.786096 68.180908 
L 502.532086 67.041028 
L 503.278075 69.759204 
L 504.024064 68.093225 
L 504.770053 67.216395 
L 505.516043 68.180908 
L 506.262032 69.93457 
L 507.008021 65.550416 
L 507.754011 70.811401 
L 508.5 70.197619 
L 509.245989 67.830176 
L 509.991979 66.953345 
L 510.737968 67.917859 
L 511.483957 65.901148 
L 512.229947 67.65481 
L 512.975936 68.180908 
L 513.721925 70.285302 
L 514.467914 67.391761 
L 515.213904 69.846887 
L 515.959893 68.619324 
L 516.705882 68.093225 
L 517.451872 70.636035 
L 518.197861 67.742493 
L 518.94385 70.811401 
L 519.68984 68.005542 
L 520.435829 66.690296 
L 521.181818 68.268592 
L 521.927807 69.057739 
L 522.673797 67.479444 
L 523.419786 66.865662 
L 524.165775 67.391761 
L 524.911765 69.320788 
L 525.657754 67.917859 
L 526.403743 68.180908 
L 527.149733 67.479444 
L 527.895722 67.479444 
L 528.641711 66.51493 
L 529.387701 69.145422 
L 530.13369 67.041028 
L 530.879679 66.427247 
L 531.625668 68.443958 
L 532.371658 67.65481 
L 533.117647 67.479444 
L 533.863636 69.846887 
L 534.609626 68.619324 
L 535.355615 68.882373 
L 536.101604 67.742493 
L 536.847594 68.443958 
L 538.339572 66.953345 
L 540.57754 67.65481 
L 541.323529 66.690296 
L 542.069519 67.742493 
L 542.815508 65.901148 
L 543.561497 68.619324 
L 544.307487 67.304078 
L 545.799465 69.408472 
L 546.545455 66.777979 
L 547.291444 69.320788 
L 548.037433 67.216395 
L 548.783422 68.619324 
L 549.529412 69.583838 
L 550.275401 66.339564 
L 551.02139 68.268592 
L 551.76738 68.970056 
L 552.513369 66.953345 
L 553.259358 67.216395 
L 554.005348 65.988832 
L 554.751337 67.65481 
L 555.497326 66.164198 
L 556.243316 67.917859 
L 556.989305 66.51493 
L 557.735294 67.479444 
L 558.481283 67.479444 
L 559.227273 68.356275 
L 559.973262 68.093225 
L 560.719251 69.583838 
L 561.465241 69.233105 
L 562.21123 66.339564 
L 562.957219 67.304078 
L 563.703209 67.479444 
L 564.449198 67.391761 
L 565.941176 69.320788 
L 566.687166 68.882373 
L 567.433155 67.567127 
L 568.179144 67.304078 
L 568.925134 66.427247 
L 569.671123 67.216395 
L 570.417112 64.585902 
L 571.163102 67.216395 
L 571.909091 66.251881 
L 572.65508 67.567127 
L 574.147059 68.356275 
L 574.893048 69.408472 
L 575.639037 68.268592 
L 576.385027 69.057739 
L 577.131016 67.041028 
L 577.877005 69.145422 
L 578.622995 67.830176 
L 579.368984 66.953345 
L 580.114973 68.882373 
L 580.860963 67.128712 
L 581.606952 68.268592 
L 582.352941 66.602613 
L 583.09893 67.391761 
L 585.336898 68.707007 
L 586.082888 66.51493 
L 586.828877 67.479444 
L 587.574866 68.707007 
L 588.320856 68.268592 
L 589.066845 68.882373 
L 589.812834 67.391761 
L 590.558824 66.602613 
L 591.304813 69.057739 
L 592.796791 66.865662 
L 593.542781 70.022253 
L 594.28877 70.197619 
L 595.034759 67.216395 
L 595.780749 67.917859 
L 596.526738 68.970056 
L 597.272727 66.51493 
L 598.018717 69.057739 
L 598.764706 66.602613 
L 599.510695 67.742493 
L 600.256684 67.216395 
L 601.002674 69.320788 
L 601.748663 66.777979 
L 602.494652 68.180908 
L 603.240642 68.005542 
L 603.986631 68.268592 
L 605.47861 67.567127 
L 606.224599 68.707007 
L 606.970588 67.304078 
L 607.716578 69.408472 
L 608.462567 68.268592 
L 609.208556 67.65481 
L 609.954545 67.304078 
L 610.700535 68.970056 
L 611.446524 66.690296 
L 612.938503 69.583838 
L 613.684492 68.619324 
L 614.430481 67.391761 
L 615.176471 67.742493 
L 615.92246 67.567127 
L 616.668449 67.128712 
L 617.414439 67.830176 
L 618.160428 68.707007 
L 618.906417 67.128712 
L 619.652406 68.443958 
L 620.398396 67.216395 
L 621.144385 67.216395 
L 621.890374 67.742493 
L 622.636364 68.619324 
L 622.636364 68.619324 
" style="fill:none;stroke:#ff7f0e;stroke-linecap:square;stroke-width:0.5;"/>
   </g>
   <g id="patch_3">
    <path d="M 90 315 
L 90 43.2 
" style="fill:none;stroke:#000000;stroke-linecap:square;stroke-linejoin:miter;stroke-width:0.8;"/>
   </g>
   <g id="patch_4">
    <path d="M 648 315 
L 648 43.2 
" style="fill:none;stroke:#000000;stroke-linecap:square;stroke-linejoin:miter;stroke-width:0.8;"/>
   </g>
   <g id="patch_5">
    <path d="M 90 315 
L 648 315 
" style="fill:none;stroke:#000000;stroke-linecap:square;stroke-linejoin:miter;stroke-width:0.8;"/>
   </g>
   <g id="patch_6">
    <path d="M 90 43.2 
L 648 43.2 
" style="fill:none;stroke:#000000;stroke-linecap:square;stroke-linejoin:miter;stroke-width:0.8;"/>
   </g>
   <g id="text_19">
    <!-- accuracy -->
    <g transform="translate(341.92875 37.2)scale(0.12 -0.12)">
     <use xlink:href="#DejaVuSans-97"/>
     <use x="61.279297" xlink:href="#DejaVuSans-99"/>
     <use x="116.259766" xlink:href="#DejaVuSans-99"/>
     <use x="171.240234" xlink:href="#DejaVuSans-117"/>
     <use x="234.619141" xlink:href="#DejaVuSans-114"/>
     <use x="275.732422" xlink:href="#DejaVuSans-97"/>
     <use x="337.011719" xlink:href="#DejaVuSans-99"/>
     <use x="391.992188" xlink:href="#DejaVuSans-121"/>
    </g>
   </g>
   <g id="legend_1">
    <g id="patch_7">
     <path d="M 97 80.55625 
L 169.153125 80.55625 
Q 171.153125 80.55625 171.153125 78.55625 
L 171.153125 50.2 
Q 171.153125 48.2 169.153125 48.2 
L 97 48.2 
Q 95 48.2 95 50.2 
L 95 78.55625 
Q 95 80.55625 97 80.55625 
z
" style="fill:#ffffff;opacity:0.8;stroke:#cccccc;stroke-linejoin:miter;"/>
    </g>
    <g id="line2d_35">
     <path d="M 99 56.298437 
L 119 56.298437 
" style="fill:none;stroke:#1f77b4;stroke-linecap:square;stroke-width:0.5;"/>
    </g>
    <g id="line2d_36"/>
    <g id="text_20">
     <!-- train -->
     <defs>
      <path d="M 18.3125 70.21875 
L 18.3125 54.6875 
L 36.8125 54.6875 
L 36.8125 47.703125 
L 18.3125 47.703125 
L 18.3125 18.015625 
Q 18.3125 11.328125 20.140625 9.421875 
Q 21.96875 7.515625 27.59375 7.515625 
L 36.8125 7.515625 
L 36.8125 0 
L 27.59375 0 
Q 17.1875 0 13.234375 3.875 
Q 9.28125 7.765625 9.28125 18.015625 
L 9.28125 47.703125 
L 2.6875 47.703125 
L 2.6875 54.6875 
L 9.28125 54.6875 
L 9.28125 70.21875 
z
" id="DejaVuSans-116"/>
      <path d="M 9.421875 54.6875 
L 18.40625 54.6875 
L 18.40625 0 
L 9.421875 0 
z
M 9.421875 75.984375 
L 18.40625 75.984375 
L 18.40625 64.59375 
L 9.421875 64.59375 
z
" id="DejaVuSans-105"/>
      <path d="M 54.890625 33.015625 
L 54.890625 0 
L 45.90625 0 
L 45.90625 32.71875 
Q 45.90625 40.484375 42.875 44.328125 
Q 39.84375 48.1875 33.796875 48.1875 
Q 26.515625 48.1875 22.3125 43.546875 
Q 18.109375 38.921875 18.109375 30.90625 
L 18.109375 0 
L 9.078125 0 
L 9.078125 54.6875 
L 18.109375 54.6875 
L 18.109375 46.1875 
Q 21.34375 51.125 25.703125 53.5625 
Q 30.078125 56 35.796875 56 
Q 45.21875 56 50.046875 50.171875 
Q 54.890625 44.34375 54.890625 33.015625 
z
" id="DejaVuSans-110"/>
     </defs>
     <g transform="translate(127 59.798437)scale(0.1 -0.1)">
      <use xlink:href="#DejaVuSans-116"/>
      <use x="39.208984" xlink:href="#DejaVuSans-114"/>
      <use x="80.322266" xlink:href="#DejaVuSans-97"/>
      <use x="141.601562" xlink:href="#DejaVuSans-105"/>
      <use x="169.384766" xlink:href="#DejaVuSans-110"/>
     </g>
    </g>
    <g id="line2d_37">
     <path d="M 99 70.976562 
L 119 70.976562 
" style="fill:none;stroke:#ff7f0e;stroke-linecap:square;stroke-width:0.5;"/>
    </g>
    <g id="line2d_38"/>
    <g id="text_21">
     <!-- validate -->
     <defs>
      <path d="M 2.984375 54.6875 
L 12.5 54.6875 
L 29.59375 8.796875 
L 46.6875 54.6875 
L 56.203125 54.6875 
L 35.6875 0 
L 23.484375 0 
z
" id="DejaVuSans-118"/>
      <path d="M 9.421875 75.984375 
L 18.40625 75.984375 
L 18.40625 0 
L 9.421875 0 
z
" id="DejaVuSans-108"/>
      <path d="M 45.40625 46.390625 
L 45.40625 75.984375 
L 54.390625 75.984375 
L 54.390625 0 
L 45.40625 0 
L 45.40625 8.203125 
Q 42.578125 3.328125 38.25 0.953125 
Q 33.9375 -1.421875 27.875 -1.421875 
Q 17.96875 -1.421875 11.734375 6.484375 
Q 5.515625 14.40625 5.515625 27.296875 
Q 5.515625 40.1875 11.734375 48.09375 
Q 17.96875 56 27.875 56 
Q 33.9375 56 38.25 53.625 
Q 42.578125 51.265625 45.40625 46.390625 
z
M 14.796875 27.296875 
Q 14.796875 17.390625 18.875 11.75 
Q 22.953125 6.109375 30.078125 6.109375 
Q 37.203125 6.109375 41.296875 11.75 
Q 45.40625 17.390625 45.40625 27.296875 
Q 45.40625 37.203125 41.296875 42.84375 
Q 37.203125 48.484375 30.078125 48.484375 
Q 22.953125 48.484375 18.875 42.84375 
Q 14.796875 37.203125 14.796875 27.296875 
z
" id="DejaVuSans-100"/>
     </defs>
     <g transform="translate(127 74.476562)scale(0.1 -0.1)">
      <use xlink:href="#DejaVuSans-118"/>
      <use x="59.179688" xlink:href="#DejaVuSans-97"/>
      <use x="120.458984" xlink:href="#DejaVuSans-108"/>
      <use x="148.242188" xlink:href="#DejaVuSans-105"/>
      <use x="176.025391" xlink:href="#DejaVuSans-100"/>
      <use x="239.501953" xlink:href="#DejaVuSans-97"/>
      <use x="300.78125" xlink:href="#DejaVuSans-116"/>
      <use x="339.990234" xlink:href="#DejaVuSans-101"/>
     </g>
    </g>
   </g>
  </g>
 </g>
 <defs>
  <clipPath id="p1670e4576b">
   <rect height="271.8" width="558" x="90" y="43.2"/>
  </clipPath>
 </defs>
</svg>
