<?xml version="1.0" encoding="utf-8" standalone="no"?>
<!DOCTYPE svg PUBLIC "-//W3C//DTD SVG 1.1//EN"
  "http://www.w3.org/Graphics/SVG/1.1/DTD/svg11.dtd">
<!-- Created with matplotlib (https://matplotlib.org/) -->
<svg height="360pt" version="1.1" viewBox="0 0 720 360" width="720pt" xmlns="http://www.w3.org/2000/svg" xmlns:xlink="http://www.w3.org/1999/xlink">
 <defs>
  <style type="text/css">
*{stroke-linecap:butt;stroke-linejoin:round;}
  </style>
 </defs>
 <g id="figure_1">
  <g id="patch_1">
   <path d="M 0 360 
L 720 360 
L 720 0 
L 0 0 
z
" style="fill:#ffffff;"/>
  </g>
  <g id="axes_1">
   <g id="patch_2">
    <path d="M 90 315 
L 648 315 
L 648 43.2 
L 90 43.2 
z
" style="fill:#ffffff;"/>
   </g>
   <g id="matplotlib.axis_1">
    <g id="xtick_1">
     <g id="line2d_1">
      <path clip-path="url(#pa6b8a464e8)" d="M 115.363636 315 
L 115.363636 43.2 
" style="fill:none;stroke:#b0b0b0;stroke-linecap:square;stroke-width:0.8;"/>
     </g>
     <g id="line2d_2">
      <defs>
       <path d="M 0 0 
L 0 3.5 
" id="m39a325f82c" style="stroke:#000000;stroke-width:0.8;"/>
      </defs>
      <g>
       <use style="stroke:#000000;stroke-width:0.8;" x="115.363636" xlink:href="#m39a325f82c" y="315"/>
      </g>
     </g>
     <g id="text_1">
      <!-- 0 -->
      <defs>
       <path d="M 31.78125 66.40625 
Q 24.171875 66.40625 20.328125 58.90625 
Q 16.5 51.421875 16.5 36.375 
Q 16.5 21.390625 20.328125 13.890625 
Q 24.171875 6.390625 31.78125 6.390625 
Q 39.453125 6.390625 43.28125 13.890625 
Q 47.125 21.390625 47.125 36.375 
Q 47.125 51.421875 43.28125 58.90625 
Q 39.453125 66.40625 31.78125 66.40625 
z
M 31.78125 74.21875 
Q 44.046875 74.21875 50.515625 64.515625 
Q 56.984375 54.828125 56.984375 36.375 
Q 56.984375 17.96875 50.515625 8.265625 
Q 44.046875 -1.421875 31.78125 -1.421875 
Q 19.53125 -1.421875 13.0625 8.265625 
Q 6.59375 17.96875 6.59375 36.375 
Q 6.59375 54.828125 13.0625 64.515625 
Q 19.53125 74.21875 31.78125 74.21875 
z
" id="DejaVuSans-48"/>
      </defs>
      <g transform="translate(112.182386 329.598437)scale(0.1 -0.1)">
       <use xlink:href="#DejaVuSans-48"/>
      </g>
     </g>
    </g>
    <g id="xtick_2">
     <g id="line2d_3">
      <path clip-path="url(#pa6b8a464e8)" d="M 205.706063 315 
L 205.706063 43.2 
" style="fill:none;stroke:#b0b0b0;stroke-linecap:square;stroke-width:0.8;"/>
     </g>
     <g id="line2d_4">
      <g>
       <use style="stroke:#000000;stroke-width:0.8;" x="205.706063" xlink:href="#m39a325f82c" y="315"/>
      </g>
     </g>
     <g id="text_2">
      <!-- 200 -->
      <defs>
       <path d="M 19.1875 8.296875 
L 53.609375 8.296875 
L 53.609375 0 
L 7.328125 0 
L 7.328125 8.296875 
Q 12.9375 14.109375 22.625 23.890625 
Q 32.328125 33.6875 34.8125 36.53125 
Q 39.546875 41.84375 41.421875 45.53125 
Q 43.3125 49.21875 43.3125 52.78125 
Q 43.3125 58.59375 39.234375 62.25 
Q 35.15625 65.921875 28.609375 65.921875 
Q 23.96875 65.921875 18.8125 64.3125 
Q 13.671875 62.703125 7.8125 59.421875 
L 7.8125 69.390625 
Q 13.765625 71.78125 18.9375 73 
Q 24.125 74.21875 28.421875 74.21875 
Q 39.75 74.21875 46.484375 68.546875 
Q 53.21875 62.890625 53.21875 53.421875 
Q 53.21875 48.921875 51.53125 44.890625 
Q 49.859375 40.875 45.40625 35.40625 
Q 44.1875 33.984375 37.640625 27.21875 
Q 31.109375 20.453125 19.1875 8.296875 
z
" id="DejaVuSans-50"/>
      </defs>
      <g transform="translate(196.162313 329.598437)scale(0.1 -0.1)">
       <use xlink:href="#DejaVuSans-50"/>
       <use x="63.623047" xlink:href="#DejaVuSans-48"/>
       <use x="127.246094" xlink:href="#DejaVuSans-48"/>
      </g>
     </g>
    </g>
    <g id="xtick_3">
     <g id="line2d_5">
      <path clip-path="url(#pa6b8a464e8)" d="M 296.04849 315 
L 296.04849 43.2 
" style="fill:none;stroke:#b0b0b0;stroke-linecap:square;stroke-width:0.8;"/>
     </g>
     <g id="line2d_6">
      <g>
       <use style="stroke:#000000;stroke-width:0.8;" x="296.04849" xlink:href="#m39a325f82c" y="315"/>
      </g>
     </g>
     <g id="text_3">
      <!-- 400 -->
      <defs>
       <path d="M 37.796875 64.3125 
L 12.890625 25.390625 
L 37.796875 25.390625 
z
M 35.203125 72.90625 
L 47.609375 72.90625 
L 47.609375 25.390625 
L 58.015625 25.390625 
L 58.015625 17.1875 
L 47.609375 17.1875 
L 47.609375 0 
L 37.796875 0 
L 37.796875 17.1875 
L 4.890625 17.1875 
L 4.890625 26.703125 
z
" id="DejaVuSans-52"/>
      </defs>
      <g transform="translate(286.50474 329.598437)scale(0.1 -0.1)">
       <use xlink:href="#DejaVuSans-52"/>
       <use x="63.623047" xlink:href="#DejaVuSans-48"/>
       <use x="127.246094" xlink:href="#DejaVuSans-48"/>
      </g>
     </g>
    </g>
    <g id="xtick_4">
     <g id="line2d_7">
      <path clip-path="url(#pa6b8a464e8)" d="M 386.390917 315 
L 386.390917 43.2 
" style="fill:none;stroke:#b0b0b0;stroke-linecap:square;stroke-width:0.8;"/>
     </g>
     <g id="line2d_8">
      <g>
       <use style="stroke:#000000;stroke-width:0.8;" x="386.390917" xlink:href="#m39a325f82c" y="315"/>
      </g>
     </g>
     <g id="text_4">
      <!-- 600 -->
      <defs>
       <path d="M 33.015625 40.375 
Q 26.375 40.375 22.484375 35.828125 
Q 18.609375 31.296875 18.609375 23.390625 
Q 18.609375 15.53125 22.484375 10.953125 
Q 26.375 6.390625 33.015625 6.390625 
Q 39.65625 6.390625 43.53125 10.953125 
Q 47.40625 15.53125 47.40625 23.390625 
Q 47.40625 31.296875 43.53125 35.828125 
Q 39.65625 40.375 33.015625 40.375 
z
M 52.59375 71.296875 
L 52.59375 62.3125 
Q 48.875 64.0625 45.09375 64.984375 
Q 41.3125 65.921875 37.59375 65.921875 
Q 27.828125 65.921875 22.671875 59.328125 
Q 17.53125 52.734375 16.796875 39.40625 
Q 19.671875 43.65625 24.015625 45.921875 
Q 28.375 48.1875 33.59375 48.1875 
Q 44.578125 48.1875 50.953125 41.515625 
Q 57.328125 34.859375 57.328125 23.390625 
Q 57.328125 12.15625 50.6875 5.359375 
Q 44.046875 -1.421875 33.015625 -1.421875 
Q 20.359375 -1.421875 13.671875 8.265625 
Q 6.984375 17.96875 6.984375 36.375 
Q 6.984375 53.65625 15.1875 63.9375 
Q 23.390625 74.21875 37.203125 74.21875 
Q 40.921875 74.21875 44.703125 73.484375 
Q 48.484375 72.75 52.59375 71.296875 
z
" id="DejaVuSans-54"/>
      </defs>
      <g transform="translate(376.847167 329.598437)scale(0.1 -0.1)">
       <use xlink:href="#DejaVuSans-54"/>
       <use x="63.623047" xlink:href="#DejaVuSans-48"/>
       <use x="127.246094" xlink:href="#DejaVuSans-48"/>
      </g>
     </g>
    </g>
    <g id="xtick_5">
     <g id="line2d_9">
      <path clip-path="url(#pa6b8a464e8)" d="M 476.733344 315 
L 476.733344 43.2 
" style="fill:none;stroke:#b0b0b0;stroke-linecap:square;stroke-width:0.8;"/>
     </g>
     <g id="line2d_10">
      <g>
       <use style="stroke:#000000;stroke-width:0.8;" x="476.733344" xlink:href="#m39a325f82c" y="315"/>
      </g>
     </g>
     <g id="text_5">
      <!-- 800 -->
      <defs>
       <path d="M 31.78125 34.625 
Q 24.75 34.625 20.71875 30.859375 
Q 16.703125 27.09375 16.703125 20.515625 
Q 16.703125 13.921875 20.71875 10.15625 
Q 24.75 6.390625 31.78125 6.390625 
Q 38.8125 6.390625 42.859375 10.171875 
Q 46.921875 13.96875 46.921875 20.515625 
Q 46.921875 27.09375 42.890625 30.859375 
Q 38.875 34.625 31.78125 34.625 
z
M 21.921875 38.8125 
Q 15.578125 40.375 12.03125 44.71875 
Q 8.5 49.078125 8.5 55.328125 
Q 8.5 64.0625 14.71875 69.140625 
Q 20.953125 74.21875 31.78125 74.21875 
Q 42.671875 74.21875 48.875 69.140625 
Q 55.078125 64.0625 55.078125 55.328125 
Q 55.078125 49.078125 51.53125 44.71875 
Q 48 40.375 41.703125 38.8125 
Q 48.828125 37.15625 52.796875 32.3125 
Q 56.78125 27.484375 56.78125 20.515625 
Q 56.78125 9.90625 50.3125 4.234375 
Q 43.84375 -1.421875 31.78125 -1.421875 
Q 19.734375 -1.421875 13.25 4.234375 
Q 6.78125 9.90625 6.78125 20.515625 
Q 6.78125 27.484375 10.78125 32.3125 
Q 14.796875 37.15625 21.921875 38.8125 
z
M 18.3125 54.390625 
Q 18.3125 48.734375 21.84375 45.5625 
Q 25.390625 42.390625 31.78125 42.390625 
Q 38.140625 42.390625 41.71875 45.5625 
Q 45.3125 48.734375 45.3125 54.390625 
Q 45.3125 60.0625 41.71875 63.234375 
Q 38.140625 66.40625 31.78125 66.40625 
Q 25.390625 66.40625 21.84375 63.234375 
Q 18.3125 60.0625 18.3125 54.390625 
z
" id="DejaVuSans-56"/>
      </defs>
      <g transform="translate(467.189594 329.598437)scale(0.1 -0.1)">
       <use xlink:href="#DejaVuSans-56"/>
       <use x="63.623047" xlink:href="#DejaVuSans-48"/>
       <use x="127.246094" xlink:href="#DejaVuSans-48"/>
      </g>
     </g>
    </g>
    <g id="xtick_6">
     <g id="line2d_11">
      <path clip-path="url(#pa6b8a464e8)" d="M 567.075771 315 
L 567.075771 43.2 
" style="fill:none;stroke:#b0b0b0;stroke-linecap:square;stroke-width:0.8;"/>
     </g>
     <g id="line2d_12">
      <g>
       <use style="stroke:#000000;stroke-width:0.8;" x="567.075771" xlink:href="#m39a325f82c" y="315"/>
      </g>
     </g>
     <g id="text_6">
      <!-- 1000 -->
      <defs>
       <path d="M 12.40625 8.296875 
L 28.515625 8.296875 
L 28.515625 63.921875 
L 10.984375 60.40625 
L 10.984375 69.390625 
L 28.421875 72.90625 
L 38.28125 72.90625 
L 38.28125 8.296875 
L 54.390625 8.296875 
L 54.390625 0 
L 12.40625 0 
z
" id="DejaVuSans-49"/>
      </defs>
      <g transform="translate(554.350771 329.598437)scale(0.1 -0.1)">
       <use xlink:href="#DejaVuSans-49"/>
       <use x="63.623047" xlink:href="#DejaVuSans-48"/>
       <use x="127.246094" xlink:href="#DejaVuSans-48"/>
       <use x="190.869141" xlink:href="#DejaVuSans-48"/>
      </g>
     </g>
    </g>
    <g id="text_7">
     <!-- epoch -->
     <defs>
      <path d="M 56.203125 29.59375 
L 56.203125 25.203125 
L 14.890625 25.203125 
Q 15.484375 15.921875 20.484375 11.0625 
Q 25.484375 6.203125 34.421875 6.203125 
Q 39.59375 6.203125 44.453125 7.46875 
Q 49.3125 8.734375 54.109375 11.28125 
L 54.109375 2.78125 
Q 49.265625 0.734375 44.1875 -0.34375 
Q 39.109375 -1.421875 33.890625 -1.421875 
Q 20.796875 -1.421875 13.15625 6.1875 
Q 5.515625 13.8125 5.515625 26.8125 
Q 5.515625 40.234375 12.765625 48.109375 
Q 20.015625 56 32.328125 56 
Q 43.359375 56 49.78125 48.890625 
Q 56.203125 41.796875 56.203125 29.59375 
z
M 47.21875 32.234375 
Q 47.125 39.59375 43.09375 43.984375 
Q 39.0625 48.390625 32.421875 48.390625 
Q 24.90625 48.390625 20.390625 44.140625 
Q 15.875 39.890625 15.1875 32.171875 
z
" id="DejaVuSans-101"/>
      <path d="M 18.109375 8.203125 
L 18.109375 -20.796875 
L 9.078125 -20.796875 
L 9.078125 54.6875 
L 18.109375 54.6875 
L 18.109375 46.390625 
Q 20.953125 51.265625 25.265625 53.625 
Q 29.59375 56 35.59375 56 
Q 45.5625 56 51.78125 48.09375 
Q 58.015625 40.1875 58.015625 27.296875 
Q 58.015625 14.40625 51.78125 6.484375 
Q 45.5625 -1.421875 35.59375 -1.421875 
Q 29.59375 -1.421875 25.265625 0.953125 
Q 20.953125 3.328125 18.109375 8.203125 
z
M 48.6875 27.296875 
Q 48.6875 37.203125 44.609375 42.84375 
Q 40.53125 48.484375 33.40625 48.484375 
Q 26.265625 48.484375 22.1875 42.84375 
Q 18.109375 37.203125 18.109375 27.296875 
Q 18.109375 17.390625 22.1875 11.75 
Q 26.265625 6.109375 33.40625 6.109375 
Q 40.53125 6.109375 44.609375 11.75 
Q 48.6875 17.390625 48.6875 27.296875 
z
" id="DejaVuSans-112"/>
      <path d="M 30.609375 48.390625 
Q 23.390625 48.390625 19.1875 42.75 
Q 14.984375 37.109375 14.984375 27.296875 
Q 14.984375 17.484375 19.15625 11.84375 
Q 23.34375 6.203125 30.609375 6.203125 
Q 37.796875 6.203125 41.984375 11.859375 
Q 46.1875 17.53125 46.1875 27.296875 
Q 46.1875 37.015625 41.984375 42.703125 
Q 37.796875 48.390625 30.609375 48.390625 
z
M 30.609375 56 
Q 42.328125 56 49.015625 48.375 
Q 55.71875 40.765625 55.71875 27.296875 
Q 55.71875 13.875 49.015625 6.21875 
Q 42.328125 -1.421875 30.609375 -1.421875 
Q 18.84375 -1.421875 12.171875 6.21875 
Q 5.515625 13.875 5.515625 27.296875 
Q 5.515625 40.765625 12.171875 48.375 
Q 18.84375 56 30.609375 56 
z
" id="DejaVuSans-111"/>
      <path d="M 48.78125 52.59375 
L 48.78125 44.1875 
Q 44.96875 46.296875 41.140625 47.34375 
Q 37.3125 48.390625 33.40625 48.390625 
Q 24.65625 48.390625 19.8125 42.84375 
Q 14.984375 37.3125 14.984375 27.296875 
Q 14.984375 17.28125 19.8125 11.734375 
Q 24.65625 6.203125 33.40625 6.203125 
Q 37.3125 6.203125 41.140625 7.25 
Q 44.96875 8.296875 48.78125 10.40625 
L 48.78125 2.09375 
Q 45.015625 0.34375 40.984375 -0.53125 
Q 36.96875 -1.421875 32.421875 -1.421875 
Q 20.0625 -1.421875 12.78125 6.34375 
Q 5.515625 14.109375 5.515625 27.296875 
Q 5.515625 40.671875 12.859375 48.328125 
Q 20.21875 56 33.015625 56 
Q 37.15625 56 41.109375 55.140625 
Q 45.0625 54.296875 48.78125 52.59375 
z
" id="DejaVuSans-99"/>
      <path d="M 54.890625 33.015625 
L 54.890625 0 
L 45.90625 0 
L 45.90625 32.71875 
Q 45.90625 40.484375 42.875 44.328125 
Q 39.84375 48.1875 33.796875 48.1875 
Q 26.515625 48.1875 22.3125 43.546875 
Q 18.109375 38.921875 18.109375 30.90625 
L 18.109375 0 
L 9.078125 0 
L 9.078125 75.984375 
L 18.109375 75.984375 
L 18.109375 46.1875 
Q 21.34375 51.125 25.703125 53.5625 
Q 30.078125 56 35.796875 56 
Q 45.21875 56 50.046875 50.171875 
Q 54.890625 44.34375 54.890625 33.015625 
z
" id="DejaVuSans-104"/>
     </defs>
     <g transform="translate(353.771875 343.276563)scale(0.1 -0.1)">
      <use xlink:href="#DejaVuSans-101"/>
      <use x="61.523438" xlink:href="#DejaVuSans-112"/>
      <use x="125" xlink:href="#DejaVuSans-111"/>
      <use x="186.181641" xlink:href="#DejaVuSans-99"/>
      <use x="241.162109" xlink:href="#DejaVuSans-104"/>
     </g>
    </g>
   </g>
   <g id="matplotlib.axis_2">
    <g id="ytick_1">
     <g id="line2d_13">
      <path clip-path="url(#pa6b8a464e8)" d="M 90 282.504503 
L 648 282.504503 
" style="fill:none;stroke:#b0b0b0;stroke-linecap:square;stroke-width:0.8;"/>
     </g>
     <g id="line2d_14">
      <defs>
       <path d="M 0 0 
L -3.5 0 
" id="md1fa7a5f65" style="stroke:#000000;stroke-width:0.8;"/>
      </defs>
      <g>
       <use style="stroke:#000000;stroke-width:0.8;" x="90" xlink:href="#md1fa7a5f65" y="282.504503"/>
      </g>
     </g>
     <g id="text_8">
      <!-- 0.3 -->
      <defs>
       <path d="M 10.6875 12.40625 
L 21 12.40625 
L 21 0 
L 10.6875 0 
z
" id="DejaVuSans-46"/>
       <path d="M 40.578125 39.3125 
Q 47.65625 37.796875 51.625 33 
Q 55.609375 28.21875 55.609375 21.1875 
Q 55.609375 10.40625 48.1875 4.484375 
Q 40.765625 -1.421875 27.09375 -1.421875 
Q 22.515625 -1.421875 17.65625 -0.515625 
Q 12.796875 0.390625 7.625 2.203125 
L 7.625 11.71875 
Q 11.71875 9.328125 16.59375 8.109375 
Q 21.484375 6.890625 26.8125 6.890625 
Q 36.078125 6.890625 40.9375 10.546875 
Q 45.796875 14.203125 45.796875 21.1875 
Q 45.796875 27.640625 41.28125 31.265625 
Q 36.765625 34.90625 28.71875 34.90625 
L 20.21875 34.90625 
L 20.21875 43.015625 
L 29.109375 43.015625 
Q 36.375 43.015625 40.234375 45.921875 
Q 44.09375 48.828125 44.09375 54.296875 
Q 44.09375 59.90625 40.109375 62.90625 
Q 36.140625 65.921875 28.71875 65.921875 
Q 24.65625 65.921875 20.015625 65.03125 
Q 15.375 64.15625 9.8125 62.3125 
L 9.8125 71.09375 
Q 15.4375 72.65625 20.34375 73.4375 
Q 25.25 74.21875 29.59375 74.21875 
Q 40.828125 74.21875 47.359375 69.109375 
Q 53.90625 64.015625 53.90625 55.328125 
Q 53.90625 49.265625 50.4375 45.09375 
Q 46.96875 40.921875 40.578125 39.3125 
z
" id="DejaVuSans-51"/>
      </defs>
      <g transform="translate(67.096875 286.303722)scale(0.1 -0.1)">
       <use xlink:href="#DejaVuSans-48"/>
       <use x="63.623047" xlink:href="#DejaVuSans-46"/>
       <use x="95.410156" xlink:href="#DejaVuSans-51"/>
      </g>
     </g>
    </g>
    <g id="ytick_2">
     <g id="line2d_15">
      <path clip-path="url(#pa6b8a464e8)" d="M 90 248.222032 
L 648 248.222032 
" style="fill:none;stroke:#b0b0b0;stroke-linecap:square;stroke-width:0.8;"/>
     </g>
     <g id="line2d_16">
      <g>
       <use style="stroke:#000000;stroke-width:0.8;" x="90" xlink:href="#md1fa7a5f65" y="248.222032"/>
      </g>
     </g>
     <g id="text_9">
      <!-- 0.4 -->
      <g transform="translate(67.096875 252.021251)scale(0.1 -0.1)">
       <use xlink:href="#DejaVuSans-48"/>
       <use x="63.623047" xlink:href="#DejaVuSans-46"/>
       <use x="95.410156" xlink:href="#DejaVuSans-52"/>
      </g>
     </g>
    </g>
    <g id="ytick_3">
     <g id="line2d_17">
      <path clip-path="url(#pa6b8a464e8)" d="M 90 213.939561 
L 648 213.939561 
" style="fill:none;stroke:#b0b0b0;stroke-linecap:square;stroke-width:0.8;"/>
     </g>
     <g id="line2d_18">
      <g>
       <use style="stroke:#000000;stroke-width:0.8;" x="90" xlink:href="#md1fa7a5f65" y="213.939561"/>
      </g>
     </g>
     <g id="text_10">
      <!-- 0.5 -->
      <defs>
       <path d="M 10.796875 72.90625 
L 49.515625 72.90625 
L 49.515625 64.59375 
L 19.828125 64.59375 
L 19.828125 46.734375 
Q 21.96875 47.46875 24.109375 47.828125 
Q 26.265625 48.1875 28.421875 48.1875 
Q 40.625 48.1875 47.75 41.5 
Q 54.890625 34.8125 54.890625 23.390625 
Q 54.890625 11.625 47.5625 5.09375 
Q 40.234375 -1.421875 26.90625 -1.421875 
Q 22.3125 -1.421875 17.546875 -0.640625 
Q 12.796875 0.140625 7.71875 1.703125 
L 7.71875 11.625 
Q 12.109375 9.234375 16.796875 8.0625 
Q 21.484375 6.890625 26.703125 6.890625 
Q 35.15625 6.890625 40.078125 11.328125 
Q 45.015625 15.765625 45.015625 23.390625 
Q 45.015625 31 40.078125 35.4375 
Q 35.15625 39.890625 26.703125 39.890625 
Q 22.75 39.890625 18.8125 39.015625 
Q 14.890625 38.140625 10.796875 36.28125 
z
" id="DejaVuSans-53"/>
      </defs>
      <g transform="translate(67.096875 217.73878)scale(0.1 -0.1)">
       <use xlink:href="#DejaVuSans-48"/>
       <use x="63.623047" xlink:href="#DejaVuSans-46"/>
       <use x="95.410156" xlink:href="#DejaVuSans-53"/>
      </g>
     </g>
    </g>
    <g id="ytick_4">
     <g id="line2d_19">
      <path clip-path="url(#pa6b8a464e8)" d="M 90 179.65709 
L 648 179.65709 
" style="fill:none;stroke:#b0b0b0;stroke-linecap:square;stroke-width:0.8;"/>
     </g>
     <g id="line2d_20">
      <g>
       <use style="stroke:#000000;stroke-width:0.8;" x="90" xlink:href="#md1fa7a5f65" y="179.65709"/>
      </g>
     </g>
     <g id="text_11">
      <!-- 0.6 -->
      <g transform="translate(67.096875 183.456309)scale(0.1 -0.1)">
       <use xlink:href="#DejaVuSans-48"/>
       <use x="63.623047" xlink:href="#DejaVuSans-46"/>
       <use x="95.410156" xlink:href="#DejaVuSans-54"/>
      </g>
     </g>
    </g>
    <g id="ytick_5">
     <g id="line2d_21">
      <path clip-path="url(#pa6b8a464e8)" d="M 90 145.374619 
L 648 145.374619 
" style="fill:none;stroke:#b0b0b0;stroke-linecap:square;stroke-width:0.8;"/>
     </g>
     <g id="line2d_22">
      <g>
       <use style="stroke:#000000;stroke-width:0.8;" x="90" xlink:href="#md1fa7a5f65" y="145.374619"/>
      </g>
     </g>
     <g id="text_12">
      <!-- 0.7 -->
      <defs>
       <path d="M 8.203125 72.90625 
L 55.078125 72.90625 
L 55.078125 68.703125 
L 28.609375 0 
L 18.3125 0 
L 43.21875 64.59375 
L 8.203125 64.59375 
z
" id="DejaVuSans-55"/>
      </defs>
      <g transform="translate(67.096875 149.173838)scale(0.1 -0.1)">
       <use xlink:href="#DejaVuSans-48"/>
       <use x="63.623047" xlink:href="#DejaVuSans-46"/>
       <use x="95.410156" xlink:href="#DejaVuSans-55"/>
      </g>
     </g>
    </g>
    <g id="ytick_6">
     <g id="line2d_23">
      <path clip-path="url(#pa6b8a464e8)" d="M 90 111.092148 
L 648 111.092148 
" style="fill:none;stroke:#b0b0b0;stroke-linecap:square;stroke-width:0.8;"/>
     </g>
     <g id="line2d_24">
      <g>
       <use style="stroke:#000000;stroke-width:0.8;" x="90" xlink:href="#md1fa7a5f65" y="111.092148"/>
      </g>
     </g>
     <g id="text_13">
      <!-- 0.8 -->
      <g transform="translate(67.096875 114.891367)scale(0.1 -0.1)">
       <use xlink:href="#DejaVuSans-48"/>
       <use x="63.623047" xlink:href="#DejaVuSans-46"/>
       <use x="95.410156" xlink:href="#DejaVuSans-56"/>
      </g>
     </g>
    </g>
    <g id="ytick_7">
     <g id="line2d_25">
      <path clip-path="url(#pa6b8a464e8)" d="M 90 76.809677 
L 648 76.809677 
" style="fill:none;stroke:#b0b0b0;stroke-linecap:square;stroke-width:0.8;"/>
     </g>
     <g id="line2d_26">
      <g>
       <use style="stroke:#000000;stroke-width:0.8;" x="90" xlink:href="#md1fa7a5f65" y="76.809677"/>
      </g>
     </g>
     <g id="text_14">
      <!-- 0.9 -->
      <defs>
       <path d="M 10.984375 1.515625 
L 10.984375 10.5 
Q 14.703125 8.734375 18.5 7.8125 
Q 22.3125 6.890625 25.984375 6.890625 
Q 35.75 6.890625 40.890625 13.453125 
Q 46.046875 20.015625 46.78125 33.40625 
Q 43.953125 29.203125 39.59375 26.953125 
Q 35.25 24.703125 29.984375 24.703125 
Q 19.046875 24.703125 12.671875 31.3125 
Q 6.296875 37.9375 6.296875 49.421875 
Q 6.296875 60.640625 12.9375 67.421875 
Q 19.578125 74.21875 30.609375 74.21875 
Q 43.265625 74.21875 49.921875 64.515625 
Q 56.59375 54.828125 56.59375 36.375 
Q 56.59375 19.140625 48.40625 8.859375 
Q 40.234375 -1.421875 26.421875 -1.421875 
Q 22.703125 -1.421875 18.890625 -0.6875 
Q 15.09375 0.046875 10.984375 1.515625 
z
M 30.609375 32.421875 
Q 37.25 32.421875 41.125 36.953125 
Q 45.015625 41.5 45.015625 49.421875 
Q 45.015625 57.28125 41.125 61.84375 
Q 37.25 66.40625 30.609375 66.40625 
Q 23.96875 66.40625 20.09375 61.84375 
Q 16.21875 57.28125 16.21875 49.421875 
Q 16.21875 41.5 20.09375 36.953125 
Q 23.96875 32.421875 30.609375 32.421875 
z
" id="DejaVuSans-57"/>
      </defs>
      <g transform="translate(67.096875 80.608896)scale(0.1 -0.1)">
       <use xlink:href="#DejaVuSans-48"/>
       <use x="63.623047" xlink:href="#DejaVuSans-46"/>
       <use x="95.410156" xlink:href="#DejaVuSans-57"/>
      </g>
     </g>
    </g>
    <g id="text_15">
     <!-- accuracy -->
     <defs>
      <path d="M 34.28125 27.484375 
Q 23.390625 27.484375 19.1875 25 
Q 14.984375 22.515625 14.984375 16.5 
Q 14.984375 11.71875 18.140625 8.90625 
Q 21.296875 6.109375 26.703125 6.109375 
Q 34.1875 6.109375 38.703125 11.40625 
Q 43.21875 16.703125 43.21875 25.484375 
L 43.21875 27.484375 
z
M 52.203125 31.203125 
L 52.203125 0 
L 43.21875 0 
L 43.21875 8.296875 
Q 40.140625 3.328125 35.546875 0.953125 
Q 30.953125 -1.421875 24.3125 -1.421875 
Q 15.921875 -1.421875 10.953125 3.296875 
Q 6 8.015625 6 15.921875 
Q 6 25.140625 12.171875 29.828125 
Q 18.359375 34.515625 30.609375 34.515625 
L 43.21875 34.515625 
L 43.21875 35.40625 
Q 43.21875 41.609375 39.140625 45 
Q 35.0625 48.390625 27.6875 48.390625 
Q 23 48.390625 18.546875 47.265625 
Q 14.109375 46.140625 10.015625 43.890625 
L 10.015625 52.203125 
Q 14.9375 54.109375 19.578125 55.046875 
Q 24.21875 56 28.609375 56 
Q 40.484375 56 46.34375 49.84375 
Q 52.203125 43.703125 52.203125 31.203125 
z
" id="DejaVuSans-97"/>
      <path d="M 8.5 21.578125 
L 8.5 54.6875 
L 17.484375 54.6875 
L 17.484375 21.921875 
Q 17.484375 14.15625 20.5 10.265625 
Q 23.53125 6.390625 29.59375 6.390625 
Q 36.859375 6.390625 41.078125 11.03125 
Q 45.3125 15.671875 45.3125 23.6875 
L 45.3125 54.6875 
L 54.296875 54.6875 
L 54.296875 0 
L 45.3125 0 
L 45.3125 8.40625 
Q 42.046875 3.421875 37.71875 1 
Q 33.40625 -1.421875 27.6875 -1.421875 
Q 18.265625 -1.421875 13.375 4.4375 
Q 8.5 10.296875 8.5 21.578125 
z
M 31.109375 56 
z
" id="DejaVuSans-117"/>
      <path d="M 41.109375 46.296875 
Q 39.59375 47.171875 37.8125 47.578125 
Q 36.03125 48 33.890625 48 
Q 26.265625 48 22.1875 43.046875 
Q 18.109375 38.09375 18.109375 28.8125 
L 18.109375 0 
L 9.078125 0 
L 9.078125 54.6875 
L 18.109375 54.6875 
L 18.109375 46.1875 
Q 20.953125 51.171875 25.484375 53.578125 
Q 30.03125 56 36.53125 56 
Q 37.453125 56 38.578125 55.875 
Q 39.703125 55.765625 41.0625 55.515625 
z
" id="DejaVuSans-114"/>
      <path d="M 32.171875 -5.078125 
Q 28.375 -14.84375 24.75 -17.8125 
Q 21.140625 -20.796875 15.09375 -20.796875 
L 7.90625 -20.796875 
L 7.90625 -13.28125 
L 13.1875 -13.28125 
Q 16.890625 -13.28125 18.9375 -11.515625 
Q 21 -9.765625 23.484375 -3.21875 
L 25.09375 0.875 
L 2.984375 54.6875 
L 12.5 54.6875 
L 29.59375 11.921875 
L 46.6875 54.6875 
L 56.203125 54.6875 
z
" id="DejaVuSans-121"/>
     </defs>
     <g transform="translate(61.017187 201.659375)rotate(-90)scale(0.1 -0.1)">
      <use xlink:href="#DejaVuSans-97"/>
      <use x="61.279297" xlink:href="#DejaVuSans-99"/>
      <use x="116.259766" xlink:href="#DejaVuSans-99"/>
      <use x="171.240234" xlink:href="#DejaVuSans-117"/>
      <use x="234.619141" xlink:href="#DejaVuSans-114"/>
      <use x="275.732422" xlink:href="#DejaVuSans-97"/>
      <use x="337.011719" xlink:href="#DejaVuSans-99"/>
      <use x="391.992188" xlink:href="#DejaVuSans-121"/>
     </g>
    </g>
   </g>
   <g id="line2d_27">
    <path clip-path="url(#pa6b8a464e8)" d="M 115.363636 302.645455 
L 115.815348 296.217491 
L 116.267061 299.131501 
L 116.718773 291.932182 
L 117.170485 294.760486 
L 117.622197 290.218059 
L 118.073909 298.874383 
L 118.525621 290.989414 
L 118.977333 290.475177 
L 119.429046 284.904276 
L 119.880758 288.075404 
L 120.784182 284.81857 
L 121.235894 289.275291 
L 121.687606 283.01874 
L 122.139318 288.075404 
L 122.591031 281.304616 
L 123.494455 281.733147 
L 123.946167 275.476596 
L 124.397879 279.761905 
L 124.849591 276.419364 
L 125.301303 273.933885 
L 125.753015 270.162813 
L 126.204728 273.248236 
L 126.65644 266.820272 
L 127.108152 265.877504 
L 127.559864 261.163665 
L 128.011576 264.420499 
L 128.463288 257.221181 
L 128.915 258.163949 
L 129.366713 253.278696 
L 129.818425 244.108135 
L 130.270137 247.536383 
L 130.721849 243.508192 
L 131.173561 237.937291 
L 131.625273 229.452379 
L 132.528697 217.967751 
L 132.98041 222.25306 
L 133.432122 213.51103 
L 133.883834 211.111257 
L 134.787258 200.483691 
L 135.23897 199.283805 
L 135.690682 201.85499 
L 136.142395 190.884599 
L 136.594107 189.856125 
L 137.045819 188.227708 
L 137.497531 180.171327 
L 138.400955 175.200369 
L 138.852667 170.486529 
L 139.30438 170.400823 
L 139.756092 168.00105 
L 140.207804 162.858679 
L 140.659516 163.630035 
L 141.111228 156.002185 
L 141.56294 154.630886 
L 142.014652 158.659077 
L 142.466364 152.231113 
L 142.918077 144.174733 
L 143.369789 144.517557 
L 143.821501 142.117785 
L 144.273213 142.803434 
L 144.724925 141.689254 
L 145.176637 143.317671 
L 145.628349 138.346713 
L 146.080062 138.432419 
L 146.531774 137.918182 
L 146.983486 135.175584 
L 147.435198 133.547167 
L 147.88691 136.375471 
L 148.338622 130.376038 
L 148.790334 130.804569 
L 149.242046 127.633441 
L 149.693759 125.662198 
L 150.145471 125.576492 
L 150.597183 127.804853 
L 151.048895 127.033497 
L 151.500607 125.233668 
L 151.952319 122.062539 
L 152.404031 121.37689 
L 152.855744 120.005591 
L 153.307456 121.462596 
L 153.759168 119.748472 
L 154.662592 117.520112 
L 155.114304 119.062823 
L 155.566016 118.120055 
L 156.017728 117.691524 
L 156.469441 119.148529 
L 157.372865 114.006158 
L 157.824577 115.54887 
L 158.276289 114.263277 
L 158.728001 115.377457 
L 159.179713 112.463447 
L 159.631426 115.54887 
L 160.083138 113.834746 
L 160.53485 110.406499 
L 160.986562 112.377741 
L 161.438274 110.749324 
L 161.889986 111.606385 
L 162.341698 110.663617 
L 162.793411 113.663334 
L 163.245123 107.23537 
L 163.696835 111.092148 
L 164.148547 107.063958 
L 164.600259 109.635143 
L 165.051971 105.864072 
L 165.503683 108.949494 
L 165.955395 109.635143 
L 166.407108 105.692659 
L 166.85882 105.864072 
L 167.310532 106.978252 
L 167.762244 105.00701 
L 168.213956 105.349834 
L 168.665668 106.549721 
L 169.11738 105.606953 
L 169.569093 105.692659 
L 170.020805 102.093 
L 170.472517 101.578763 
L 170.924229 104.664185 
L 171.375941 101.664469 
L 171.827653 101.835881 
L 172.279365 99.950345 
L 172.731077 101.064526 
L 173.18279 101.40735 
L 173.634502 102.607237 
L 174.086214 101.835881 
L 174.537926 103.721417 
L 174.989638 102.778649 
L 175.44135 99.007577 
L 175.893062 98.49334 
L 176.344775 97.207748 
L 176.796487 99.607521 
L 177.248199 100.036051 
L 177.699911 99.950345 
L 178.603335 98.150516 
L 179.055047 98.579046 
L 179.506759 96.26498 
L 179.958472 96.522098 
L 180.410184 95.407918 
L 181.313608 98.064809 
L 181.76532 94.807975 
L 182.217032 95.922155 
L 182.668744 95.065093 
L 183.120457 92.151083 
L 183.572169 91.979671 
L 184.023881 98.407634 
L 184.475593 96.26498 
L 184.927305 95.493624 
L 185.379017 94.122325 
L 185.830729 95.065093 
L 186.282442 94.036619 
L 186.734154 94.550856 
L 187.185866 93.779501 
L 187.637578 91.55114 
L 188.08929 94.550856 
L 188.541002 91.294021 
L 188.992714 91.636846 
L 189.444426 94.122325 
L 189.896139 91.208315 
L 190.799563 92.836733 
L 191.251275 93.179557 
L 191.702987 92.579614 
L 192.154699 91.379728 
L 192.606411 92.66532 
L 193.058124 88.465718 
L 193.509836 92.579614 
L 193.961548 92.836733 
L 194.41326 92.751026 
L 194.864972 92.065377 
L 195.316684 90.779784 
L 195.768396 88.894248 
L 196.220108 95.236506 
L 196.671821 91.036903 
L 197.123533 89.837016 
L 197.575245 90.351253 
L 198.026957 91.893965 
L 198.478669 87.094419 
L 198.930381 90.43696 
L 199.382093 90.179841 
L 199.833806 88.63713 
L 200.285518 90.179841 
L 201.188942 86.237357 
L 201.640654 87.008713 
L 202.092366 88.208599 
L 202.544078 88.465718 
L 202.99579 86.237357 
L 203.447503 87.780068 
L 203.899215 87.52295 
L 204.350927 87.694362 
L 204.802639 87.180125 
L 205.254351 87.52295 
L 205.706063 88.122893 
L 206.157775 87.008713 
L 206.609488 88.63713 
L 207.0612 88.037187 
L 207.512912 86.923006 
L 208.416336 88.037187 
L 208.868048 83.323347 
L 209.771473 87.351537 
L 210.223185 87.008713 
L 210.674897 85.03747 
L 211.126609 85.123177 
L 211.578321 87.180125 
L 212.030033 87.780068 
L 212.481745 84.437527 
L 212.933457 83.92329 
L 213.38517 86.494475 
L 213.836882 85.208883 
L 214.740306 87.865774 
L 215.192018 82.551991 
L 215.64373 86.237357 
L 216.095442 86.065945 
L 216.547155 86.580182 
L 216.998867 85.72312 
L 217.902291 81.69493 
L 218.805715 85.466001 
L 219.257427 83.237641 
L 219.709139 85.03747 
L 220.160852 81.523517 
L 220.612564 83.494759 
L 221.064276 84.180409 
L 221.515988 81.180692 
L 221.9677 80.409337 
L 222.419412 84.523233 
L 222.871124 84.437527 
L 223.322837 82.637697 
L 223.774549 84.351821 
L 224.226261 80.837868 
L 224.677973 82.80911 
L 225.581397 80.323631 
L 226.033109 83.92329 
L 226.484822 80.152218 
L 226.936534 81.00928 
L 227.388246 80.152218 
L 227.839958 82.380579 
L 228.29167 80.323631 
L 228.743382 81.094986 
L 229.195094 80.152218 
L 229.646806 81.266399 
L 230.098519 79.723687 
L 230.550231 81.352105 
L 231.001943 84.437527 
L 231.453655 78.438095 
L 231.905367 81.609223 
L 232.357079 83.580465 
L 232.808791 80.495043 
L 233.260504 81.952048 
L 233.712216 79.038038 
L 234.163928 81.69493 
L 234.61564 78.866626 
L 235.067352 82.637697 
L 235.519064 78.609507 
L 235.970776 79.723687 
L 236.422488 79.723687 
L 236.874201 80.580749 
L 237.325913 81.180692 
L 237.777625 80.837868 
L 238.681049 78.695213 
L 239.132761 78.009564 
L 239.584473 78.695213 
L 240.036186 80.237925 
L 240.487898 81.352105 
L 240.93961 77.495327 
L 241.391322 76.209734 
L 242.294746 78.952332 
L 242.746458 77.152502 
L 243.19817 78.438095 
L 243.649883 78.780919 
L 244.101595 77.238208 
L 244.553307 78.438095 
L 245.005019 77.238208 
L 245.456731 78.438095 
L 245.908443 79.123744 
L 246.360155 78.352389 
L 246.811868 78.180976 
L 247.26358 79.637981 
L 247.715292 77.066796 
L 248.167004 77.495327 
L 248.618716 81.00928 
L 249.070428 79.8951 
L 249.52214 78.266682 
L 249.973853 78.09527 
L 250.425565 80.152218 
L 250.877277 79.723687 
L 251.328989 75.781203 
L 251.780701 78.695213 
L 252.232413 76.895384 
L 252.684125 76.29544 
L 253.135837 78.009564 
L 253.58755 76.038322 
L 254.039262 78.009564 
L 254.490974 79.123744 
L 254.942686 78.523801 
L 255.394398 77.409621 
L 255.84611 79.380863 
L 256.749535 75.609791 
L 257.201247 76.552559 
L 257.652959 76.381147 
L 258.104671 74.06708 
L 258.556383 76.895384 
L 259.008095 75.524085 
L 259.459807 76.381147 
L 259.911519 76.638265 
L 260.363232 79.123744 
L 260.814944 76.124028 
L 261.266656 75.609791 
L 261.718368 75.866909 
L 262.17008 77.152502 
L 262.621792 73.809961 
L 263.073504 76.723971 
L 263.525217 72.695781 
L 264.428641 75.009848 
L 264.880353 73.38143 
L 265.332065 73.552843 
L 265.783777 75.009848 
L 266.235489 75.095554 
L 266.687201 74.238492 
L 267.138914 76.638265 
L 267.590626 75.266966 
L 268.042338 73.467137 
L 268.49405 72.695781 
L 268.945762 76.209734 
L 269.397474 74.752729 
L 269.849186 75.352672 
L 270.300899 77.581033 
L 271.204323 72.352956 
L 271.656035 73.552843 
L 272.107747 75.438379 
L 272.559459 74.152786 
L 273.011171 75.266966 
L 273.462884 72.524369 
L 273.914596 74.838435 
L 274.366308 75.266966 
L 274.81802 74.06708 
L 275.269732 73.981374 
L 275.721444 75.18126 
L 276.173156 73.809961 
L 276.624868 73.467137 
L 277.076581 73.552843 
L 277.528293 73.809961 
L 278.883429 74.152786 
L 279.335141 73.552843 
L 279.786853 72.438662 
L 280.238566 74.752729 
L 280.690278 71.838719 
L 281.14199 73.210018 
L 281.593702 72.010131 
L 282.045414 73.210018 
L 282.497126 73.895667 
L 282.948838 75.609791 
L 283.852263 71.324482 
L 284.303975 74.667023 
L 284.755687 72.181544 
L 285.207399 72.010131 
L 285.659111 73.038606 
L 286.562535 73.124312 
L 287.014248 74.238492 
L 287.46596 72.438662 
L 287.917672 73.038606 
L 288.369384 70.46742 
L 288.821096 71.238776 
L 289.272808 70.46742 
L 289.72452 71.238776 
L 290.627945 73.467137 
L 291.079657 73.038606 
L 291.531369 71.410188 
L 291.983081 70.553126 
L 292.886505 73.295724 
L 293.338217 72.952899 
L 293.78993 70.724539 
L 294.241642 72.695781 
L 295.145066 73.467137 
L 295.596778 70.981657 
L 296.04849 72.524369 
L 296.500202 71.838719 
L 296.951915 71.495894 
L 297.403627 69.953183 
L 297.855339 73.124312 
L 298.307051 70.810245 
L 298.758763 69.953183 
L 299.210475 69.953183 
L 299.662187 71.15307 
L 300.113899 73.467137 
L 300.565612 72.695781 
L 301.017324 70.381714 
L 301.469036 70.724539 
L 301.920748 71.581601 
L 302.37246 72.010131 
L 302.824172 71.753013 
L 303.275884 70.210302 
L 303.727597 71.324482 
L 304.179309 70.724539 
L 304.631021 71.410188 
L 305.082733 71.495894 
L 305.534445 69.524652 
L 306.437869 71.924425 
L 306.889581 72.26725 
L 307.341294 70.981657 
L 307.793006 70.038889 
L 308.244718 71.838719 
L 308.69643 70.895951 
L 309.148142 70.381714 
L 309.599854 70.038889 
L 310.051566 71.495894 
L 310.503279 71.15307 
L 310.954991 67.639116 
L 311.406703 67.981941 
L 311.858415 71.581601 
L 312.310127 70.296008 
L 312.761839 68.067647 
L 313.213551 71.067364 
L 313.665263 69.867477 
L 314.116976 69.096121 
L 314.568688 69.35324 
L 315.0204 69.096121 
L 315.472112 70.981657 
L 315.923824 68.924709 
L 316.375536 69.953183 
L 316.827248 69.867477 
L 317.278961 70.553126 
L 317.730673 67.981941 
L 318.182385 69.610359 
L 318.634097 69.696065 
L 319.085809 68.581884 
L 319.537521 69.438946 
L 319.989233 69.524652 
L 320.892658 70.381714 
L 321.34437 70.638833 
L 321.796082 68.496178 
L 322.247794 70.895951 
L 322.699506 70.895951 
L 323.60293 67.896235 
L 324.054643 70.553126 
L 324.506355 68.496178 
L 324.958067 68.667591 
L 325.409779 70.210302 
L 325.861491 68.324766 
L 326.313203 67.124879 
L 326.764915 67.981941 
L 327.216628 69.267534 
L 327.66834 69.610359 
L 328.120052 67.896235 
L 328.571764 69.35324 
L 329.023476 70.124596 
L 329.475188 73.295724 
L 329.9269 69.438946 
L 330.378612 67.810529 
L 330.830325 69.867477 
L 331.733749 67.896235 
L 332.637173 68.067647 
L 333.088885 68.324766 
L 333.540597 67.981941 
L 333.99231 67.381998 
L 334.444022 68.839003 
L 334.895734 66.353524 
L 335.347446 67.896235 
L 335.799158 65.582168 
L 336.25087 68.067647 
L 336.702582 68.324766 
L 337.154295 69.524652 
L 337.606007 67.039173 
L 338.057719 66.524936 
L 338.509431 67.039173 
L 338.961143 67.981941 
L 339.412855 67.55341 
L 339.864567 69.267534 
L 340.316279 67.639116 
L 340.767992 68.839003 
L 341.219704 66.524936 
L 341.671416 67.039173 
L 342.123128 69.010415 
L 342.57484 67.810529 
L 343.026552 68.153354 
L 343.478264 69.610359 
L 343.929977 68.839003 
L 344.381689 65.239343 
L 344.833401 67.296292 
L 345.285113 65.32505 
L 345.736825 66.953467 
L 346.188537 67.981941 
L 346.640249 65.753581 
L 347.091961 66.610642 
L 347.543674 66.867761 
L 348.447098 66.267818 
L 348.89881 68.753297 
L 349.350522 68.753297 
L 349.802234 66.610642 
L 350.253946 67.810529 
L 350.705659 67.639116 
L 351.157371 66.182111 
L 351.609083 66.867761 
L 352.060795 66.610642 
L 352.512507 65.496462 
L 352.964219 68.924709 
L 353.415931 67.896235 
L 353.867643 67.210586 
L 354.319356 67.55341 
L 355.674492 64.810813 
L 356.126204 66.696349 
L 356.577916 65.582168 
L 357.029628 65.410756 
L 357.481341 67.381998 
L 357.933053 65.496462 
L 358.384765 68.153354 
L 358.836477 67.296292 
L 359.288189 67.896235 
L 359.739901 67.724823 
L 360.191613 67.381998 
L 360.643326 66.782055 
L 361.095038 67.124879 
L 361.54675 66.267818 
L 361.998462 65.839287 
L 362.450174 66.010699 
L 362.901886 67.639116 
L 363.353598 66.696349 
L 363.80531 66.610642 
L 364.257023 64.982225 
L 365.160447 66.953467 
L 365.612159 64.982225 
L 366.063871 66.782055 
L 366.515583 67.381998 
L 366.967295 64.467988 
L 367.419008 65.667874 
L 367.87072 65.067931 
L 368.322432 65.410756 
L 368.774144 68.067647 
L 369.225856 64.982225 
L 369.677568 64.810813 
L 370.12928 64.982225 
L 370.580992 68.23906 
L 371.032705 64.982225 
L 371.484417 64.210869 
L 371.936129 66.010699 
L 372.387841 63.268101 
L 372.839553 64.982225 
L 373.291265 65.410756 
L 373.742977 66.610642 
L 374.19469 64.982225 
L 375.098114 63.439514 
L 375.549826 66.867761 
L 376.904962 64.982225 
L 377.356674 65.32505 
L 377.808387 67.039173 
L 378.260099 67.467704 
L 378.711811 66.096405 
L 379.163523 65.753581 
L 379.615235 65.582168 
L 380.066947 65.153637 
L 380.518659 66.096405 
L 380.970372 63.610926 
L 381.422084 66.696349 
L 381.873796 64.725106 
L 382.77722 66.43923 
L 383.228932 66.182111 
L 383.680644 65.067931 
L 384.132357 67.896235 
L 384.584069 64.553694 
L 385.035781 64.382282 
L 385.487493 65.410756 
L 385.939205 64.125163 
L 386.390917 64.553694 
L 386.842629 66.010699 
L 387.294341 65.067931 
L 387.746054 66.182111 
L 388.197766 65.067931 
L 388.649478 64.553694 
L 389.10119 64.810813 
L 389.552902 64.553694 
L 390.456326 65.839287 
L 390.908039 64.982225 
L 391.359751 63.610926 
L 391.811463 64.210869 
L 392.263175 63.953751 
L 392.714887 63.096689 
L 393.166599 65.667874 
L 393.618311 65.839287 
L 394.070023 62.068215 
L 394.521736 63.610926 
L 394.973448 63.52522 
L 395.42516 64.725106 
L 396.328584 63.610926 
L 396.780296 64.296576 
L 397.232008 63.439514 
L 397.683721 63.696632 
L 398.135433 65.410756 
L 398.587145 66.267818 
L 399.038857 66.182111 
L 399.490569 63.010983 
L 399.942281 64.296576 
L 400.393993 64.039457 
L 400.845705 63.953751 
L 401.297418 64.039457 
L 401.74913 64.296576 
L 402.200842 63.353808 
L 402.652554 64.725106 
L 403.104266 63.696632 
L 403.555978 63.268101 
L 404.00769 67.210586 
L 404.459403 64.382282 
L 404.911115 64.296576 
L 405.362827 65.667874 
L 405.814539 62.668158 
L 406.266251 61.639684 
L 406.717963 64.467988 
L 407.169675 65.32505 
L 407.621388 64.553694 
L 408.0731 66.524936 
L 408.524812 63.868045 
L 408.976524 63.868045 
L 409.428236 64.296576 
L 409.879948 62.239627 
L 410.783372 64.810813 
L 411.235085 63.52522 
L 411.686797 65.239343 
L 412.138509 62.668158 
L 412.590221 63.182395 
L 413.041933 64.725106 
L 413.493645 63.868045 
L 413.945357 62.582452 
L 414.848782 63.610926 
L 415.300494 63.52522 
L 416.203918 64.810813 
L 416.65563 63.52522 
L 417.107342 64.982225 
L 417.559054 63.610926 
L 418.010767 63.610926 
L 418.462479 62.839571 
L 418.914191 63.182395 
L 419.365903 61.896803 
L 419.817615 61.296859 
L 420.269327 64.725106 
L 420.721039 62.496746 
L 421.172752 64.6394 
L 421.624464 62.153921 
L 422.076176 64.039457 
L 422.527888 63.52522 
L 422.9796 63.439514 
L 423.431312 62.839571 
L 423.883024 63.268101 
L 424.334737 62.41104 
L 424.786449 65.496462 
L 425.238161 62.925277 
L 425.689873 62.753864 
L 426.141585 62.753864 
L 426.593297 62.325333 
L 427.045009 59.411323 
L 427.948434 63.868045 
L 428.400146 62.839571 
L 428.851858 62.41104 
L 429.30357 63.52522 
L 429.755282 62.753864 
L 430.206994 62.925277 
L 430.658706 61.982509 
L 431.110419 61.72539 
L 431.562131 63.353808 
L 432.013843 63.868045 
L 432.465555 63.52522 
L 432.917267 61.468272 
L 433.368979 64.896519 
L 433.820691 62.068215 
L 434.272403 61.982509 
L 434.724116 64.039457 
L 435.175828 61.982509 
L 435.62754 63.696632 
L 436.079252 64.125163 
L 436.530964 62.068215 
L 436.982676 61.039741 
L 437.434388 61.039741 
L 437.886101 61.896803 
L 438.337813 61.211153 
L 438.789525 62.496746 
L 439.241237 62.839571 
L 439.692949 62.582452 
L 440.144661 61.639684 
L 440.596373 61.553978 
L 441.048085 61.039741 
L 441.499798 61.296859 
L 441.95151 60.525504 
L 442.403222 63.696632 
L 442.854934 63.52522 
L 443.306646 63.610926 
L 443.758358 63.52522 
L 444.21007 61.553978 
L 444.661783 64.125163 
L 445.113495 61.468272 
L 445.565207 60.782622 
L 446.016919 62.496746 
L 446.468631 60.61121 
L 446.920343 62.068215 
L 447.372055 62.925277 
L 447.823768 62.496746 
L 448.27548 64.039457 
L 448.727192 61.896803 
L 449.178904 62.668158 
L 449.630616 62.496746 
L 450.082328 61.039741 
L 450.53404 60.61121 
L 450.985752 62.068215 
L 451.437465 62.41104 
L 451.889177 61.811096 
L 452.340889 63.52522 
L 452.792601 59.839854 
L 454.59945 64.296576 
L 455.051162 59.325617 
L 455.502874 61.125447 
L 455.954586 62.239627 
L 456.406298 61.811096 
L 456.85801 61.639684 
L 457.309722 62.582452 
L 457.761434 61.896803 
L 458.213147 61.553978 
L 458.664859 58.897086 
L 459.116571 61.211153 
L 459.568283 62.068215 
L 460.019995 60.782622 
L 460.471707 60.782622 
L 460.923419 61.211153 
L 461.375132 63.096689 
L 461.826844 61.639684 
L 462.278556 61.553978 
L 462.730268 62.325333 
L 463.18198 59.068499 
L 463.633692 61.811096 
L 464.537116 61.211153 
L 464.988829 63.610926 
L 465.440541 61.982509 
L 465.892253 59.582736 
L 466.343965 62.839571 
L 466.795677 63.439514 
L 467.247389 62.068215 
L 468.150814 63.182395 
L 468.602526 62.239627 
L 469.054238 62.753864 
L 469.50595 62.753864 
L 469.957662 61.211153 
L 470.409374 61.896803 
L 470.861086 61.982509 
L 471.312799 63.52522 
L 471.764511 60.61121 
L 472.216223 60.782622 
L 472.667935 59.92556 
L 473.119647 60.954035 
L 473.571359 62.41104 
L 474.023071 61.72539 
L 474.474783 61.468272 
L 474.926496 61.896803 
L 475.378208 60.525504 
L 475.82992 60.782622 
L 476.281632 60.011267 
L 476.733344 61.211153 
L 477.185056 61.639684 
L 477.636768 61.125447 
L 478.088481 61.382566 
L 478.540193 61.211153 
L 478.991905 61.296859 
L 479.443617 59.92556 
L 479.895329 63.010983 
L 480.347041 61.639684 
L 480.798753 59.49703 
L 481.250465 61.125447 
L 481.702178 59.754148 
L 482.15389 62.582452 
L 482.605602 62.153921 
L 483.057314 59.154205 
L 483.509026 59.92556 
L 484.41245 62.496746 
L 484.864163 62.582452 
L 485.315875 61.296859 
L 486.219299 60.268385 
L 486.671011 61.468272 
L 487.122723 60.182679 
L 487.574435 61.811096 
L 488.026147 62.925277 
L 488.47786 61.296859 
L 488.929572 61.896803 
L 489.832996 58.897086 
L 490.284708 60.354091 
L 490.73642 60.782622 
L 491.188132 61.468272 
L 491.639845 61.639684 
L 492.091557 60.268385 
L 492.543269 60.011267 
L 492.994981 60.354091 
L 493.446693 62.839571 
L 493.898405 60.268385 
L 494.350117 59.325617 
L 494.80183 60.61121 
L 495.253542 61.553978 
L 495.705254 59.668442 
L 496.156966 62.325333 
L 496.608678 60.011267 
L 497.06039 61.039741 
L 497.512102 60.096973 
L 497.963814 59.839854 
L 498.415527 61.382566 
L 498.867239 60.268385 
L 499.318951 60.011267 
L 499.770663 57.6972 
L 500.222375 60.096973 
L 500.674087 59.068499 
L 501.125799 60.011267 
L 501.577512 61.639684 
L 502.029224 60.61121 
L 502.480936 62.068215 
L 502.932648 59.92556 
L 503.836072 61.468272 
L 504.287784 59.668442 
L 504.739496 61.382566 
L 505.191209 58.125731 
L 505.642921 60.268385 
L 506.546345 60.525504 
L 506.998057 60.61121 
L 507.449769 60.525504 
L 507.901481 60.61121 
L 508.353194 58.639968 
L 508.804906 58.81138 
L 509.256618 60.096973 
L 509.70833 58.897086 
L 510.160042 58.468555 
L 510.611754 59.754148 
L 511.063466 59.839854 
L 511.515178 59.154205 
L 511.966891 62.839571 
L 512.418603 59.582736 
L 512.870315 61.125447 
L 513.322027 59.239911 
L 513.773739 59.92556 
L 514.225451 61.553978 
L 514.677163 58.81138 
L 515.580588 61.896803 
L 516.0323 61.982509 
L 516.484012 59.839854 
L 516.935724 61.125447 
L 517.387436 59.92556 
L 517.839148 61.382566 
L 518.290861 58.81138 
L 519.194285 61.125447 
L 519.645997 59.49703 
L 520.097709 58.554262 
L 520.549421 59.582736 
L 521.001133 59.92556 
L 521.452845 59.839854 
L 521.904558 60.954035 
L 522.35627 58.897086 
L 522.807982 57.782906 
L 523.259694 60.011267 
L 523.711406 60.61121 
L 524.163118 60.439798 
L 524.61483 59.411323 
L 525.066543 59.239911 
L 525.518255 60.096973 
L 525.969967 60.61121 
L 526.421679 60.096973 
L 526.873391 60.525504 
L 527.776815 59.582736 
L 528.228527 59.411323 
L 528.68024 58.468555 
L 529.131952 59.49703 
L 529.583664 58.897086 
L 530.035376 61.039741 
L 530.487088 60.182679 
L 530.9388 61.639684 
L 531.390512 58.297143 
L 531.842225 61.296859 
L 532.293937 60.954035 
L 532.745649 59.411323 
L 533.197361 59.325617 
L 533.649073 58.554262 
L 534.100785 58.897086 
L 534.552497 59.92556 
L 535.455922 58.382849 
L 536.359346 59.49703 
L 536.811058 59.411323 
L 537.26277 59.754148 
L 537.714482 58.639968 
L 538.166194 60.182679 
L 538.617907 59.668442 
L 539.069619 61.039741 
L 539.521331 58.81138 
L 539.973043 61.468272 
L 540.424755 60.011267 
L 541.328179 60.096973 
L 541.779892 59.668442 
L 542.231604 58.982793 
L 542.683316 59.068499 
L 543.135028 60.011267 
L 543.58674 57.268669 
L 544.038452 58.297143 
L 544.490164 60.096973 
L 544.941876 59.668442 
L 545.393589 57.954318 
L 545.845301 58.81138 
L 546.297013 60.439798 
L 546.748725 56.068783 
L 547.200437 56.840138 
L 547.652149 59.92556 
L 548.103861 58.040025 
L 548.555574 60.182679 
L 549.007286 58.468555 
L 549.458998 58.897086 
L 549.91071 58.297143 
L 550.362422 60.61121 
L 551.265846 58.040025 
L 551.717558 59.068499 
L 552.169271 57.6972 
L 552.620983 60.61121 
L 553.072695 59.49703 
L 553.524407 60.268385 
L 553.976119 57.868612 
L 554.427831 60.954035 
L 554.879543 58.897086 
L 555.331256 60.096973 
L 555.782968 59.068499 
L 556.23468 58.468555 
L 556.686392 58.468555 
L 557.138104 60.525504 
L 557.589816 57.525788 
L 558.041528 59.154205 
L 558.493241 57.782906 
L 558.944953 59.154205 
L 559.396665 58.554262 
L 559.848377 58.725674 
L 560.300089 57.954318 
L 560.751801 59.582736 
L 561.203513 59.49703 
L 561.655225 60.011267 
L 562.106938 60.011267 
L 562.55865 59.068499 
L 563.010362 60.182679 
L 563.462074 59.839854 
L 564.365498 58.639968 
L 564.81721 58.81138 
L 565.268923 57.954318 
L 565.720635 59.49703 
L 566.172347 59.582736 
L 566.624059 58.125731 
L 567.075771 59.582736 
L 567.979195 59.49703 
L 568.430907 60.61121 
L 568.88262 57.182963 
L 569.334332 56.925844 
L 569.786044 57.954318 
L 570.237756 57.954318 
L 570.689468 60.182679 
L 571.14118 58.639968 
L 571.592892 57.868612 
L 572.044605 59.49703 
L 572.496317 59.325617 
L 572.948029 58.040025 
L 573.399741 59.325617 
L 573.851453 56.925844 
L 574.303165 58.897086 
L 574.754877 57.782906 
L 575.206589 59.154205 
L 575.658302 57.440081 
L 576.110014 57.097257 
L 576.561726 56.325901 
L 577.013438 57.354375 
L 577.46515 56.240195 
L 577.916862 57.868612 
L 578.368574 58.468555 
L 579.271999 58.554262 
L 579.723711 59.668442 
L 580.175423 58.982793 
L 580.627135 57.611494 
L 581.078847 59.068499 
L 581.530559 58.211437 
L 581.982272 58.125731 
L 582.885696 59.668442 
L 583.337408 58.982793 
L 583.78912 59.411323 
L 584.240832 57.954318 
L 584.692544 60.61121 
L 585.144256 58.81138 
L 585.595969 57.6972 
L 586.047681 57.525788 
L 586.499393 57.954318 
L 586.951105 57.954318 
L 587.402817 59.239911 
L 587.854529 58.125731 
L 588.306241 57.354375 
L 588.757954 58.211437 
L 589.209666 58.040025 
L 589.661378 56.411607 
L 590.11309 57.611494 
L 590.564802 58.040025 
L 591.016514 57.868612 
L 591.468226 58.040025 
L 591.919938 58.382849 
L 592.823363 57.782906 
L 593.275075 59.325617 
L 593.726787 57.354375 
L 594.178499 60.182679 
L 594.630211 59.068499 
L 595.081923 57.611494 
L 595.533636 58.554262 
L 595.985348 58.81138 
L 596.888772 57.6972 
L 597.340484 58.125731 
L 597.792196 56.325901 
L 598.243908 59.154205 
L 598.69562 59.239911 
L 599.147333 57.182963 
L 599.599045 56.840138 
L 600.050757 59.668442 
L 600.954181 57.268669 
L 601.405893 58.297143 
L 601.857605 60.61121 
L 602.309318 58.897086 
L 602.76103 58.297143 
L 603.212742 57.954318 
L 603.664454 58.382849 
L 604.116166 59.068499 
L 604.567878 57.01155 
L 605.01959 59.154205 
L 605.471303 57.868612 
L 605.923015 57.525788 
L 606.374727 57.868612 
L 606.826439 59.325617 
L 607.278151 57.097257 
L 607.729863 57.782906 
L 608.181575 57.525788 
L 608.633287 57.611494 
L 609.085 57.268669 
L 609.536712 58.639968 
L 609.988424 57.268669 
L 610.440136 57.01155 
L 611.34356 59.154205 
L 611.795272 57.6972 
L 612.246985 57.440081 
L 612.698697 57.354375 
L 613.150409 57.782906 
L 613.602121 57.782906 
L 614.053833 56.840138 
L 614.505545 56.325901 
L 614.957257 58.382849 
L 615.408969 57.440081 
L 615.860682 58.382849 
L 616.312394 60.011267 
L 616.764106 56.325901 
L 617.215818 56.411607 
L 617.66753 55.554545 
L 618.119242 59.325617 
L 618.570954 57.268669 
L 619.022667 56.154489 
L 619.474379 55.89737 
L 619.926091 57.525788 
L 620.377803 56.240195 
L 620.829515 58.81138 
L 621.281227 57.782906 
L 622.184652 57.440081 
L 622.636364 55.89737 
L 622.636364 55.89737 
" style="fill:none;stroke:#1f77b4;stroke-linecap:square;stroke-width:0.5;"/>
   </g>
   <g id="line2d_28">
    <path clip-path="url(#pa6b8a464e8)" d="M 115.363636 302.30263 
L 115.815348 300.074269 
L 116.267061 294.67478 
L 116.718773 295.189017 
L 117.170485 296.217491 
L 117.622197 295.274723 
L 118.073909 292.617832 
L 118.525621 291.246533 
L 118.977333 287.561167 
L 119.429046 287.818286 
L 119.880758 290.64659 
L 120.33247 291.932182 
L 120.784182 289.446703 
L 121.235894 288.675348 
L 121.687606 288.332523 
L 122.139318 284.304333 
L 122.591031 284.904276 
L 123.042743 281.561735 
L 123.494455 281.21891 
L 123.946167 281.133204 
L 124.397879 276.333658 
L 124.849591 277.447838 
L 125.301303 273.933885 
L 125.753015 275.648009 
L 126.204728 271.534112 
L 126.65644 270.934169 
L 127.108152 269.477164 
L 127.559864 266.391742 
L 128.011576 260.992252 
L 128.463288 257.478299 
L 128.915 251.735985 
L 129.366713 255.764176 
L 129.818425 252.850166 
L 130.270137 244.708079 
L 132.076985 225.081364 
L 132.98041 218.22487 
L 133.432122 212.825381 
L 134.335546 206.226005 
L 134.787258 204.340469 
L 135.23897 199.969454 
L 136.142395 189.08477 
L 136.594107 188.313414 
L 137.045819 180.257033 
L 137.949243 179.057147 
L 138.400955 172.02924 
L 138.852667 170.91506 
L 139.30438 168.943818 
L 139.756092 164.401391 
L 140.207804 161.658793 
L 140.659516 165.08704 
L 141.56294 156.687835 
L 142.466364 152.402526 
L 142.918077 152.74535 
L 143.369789 147.60298 
L 143.821501 147.688686 
L 144.273213 146.403093 
L 144.724925 145.460325 
L 145.176637 142.374903 
L 145.628349 144.946088 
L 146.080062 139.460893 
L 146.531774 136.375471 
L 146.983486 138.775244 
L 147.435198 134.232816 
L 147.88691 132.34728 
L 148.338622 133.547167 
L 148.790334 133.632873 
L 149.242046 130.718863 
L 149.693759 131.404512 
L 150.145471 132.432986 
L 150.597183 129.176152 
L 151.048895 129.176152 
L 151.500607 127.033497 
L 151.952319 127.804853 
L 152.404031 128.31909 
L 152.855744 124.890843 
L 153.307456 124.033781 
L 153.759168 125.319374 
L 154.21088 124.805137 
L 154.662592 122.662482 
L 155.114304 125.747905 
L 155.566016 122.062539 
L 156.017728 120.605534 
L 156.469441 119.834178 
L 156.921153 119.919885 
L 157.372865 117.520112 
L 157.824577 120.948359 
L 158.276289 121.034065 
L 158.728001 118.805704 
L 159.179713 117.434405 
L 159.631426 117.434405 
L 160.083138 115.206045 
L 160.53485 117.348699 
L 160.986562 111.863504 
L 161.438274 115.891694 
L 161.889986 113.74904 
L 162.341698 115.377457 
L 162.793411 118.634292 
L 163.245123 113.663334 
L 163.696835 114.948926 
L 164.148547 113.834746 
L 164.600259 112.120622 
L 165.051971 113.663334 
L 165.503683 112.891978 
L 165.955395 113.320509 
L 166.407108 113.149097 
L 167.310532 111.606385 
L 167.762244 114.948926 
L 168.213956 108.263844 
L 168.665668 112.034916 
L 169.11738 111.606385 
L 169.569093 108.520963 
L 170.020805 109.977968 
L 170.472517 109.292319 
L 170.924229 105.178422 
L 171.375941 106.892546 
L 171.827653 107.321077 
L 172.279365 106.806839 
L 172.731077 107.23537 
L 173.18279 107.92102 
L 173.634502 106.806839 
L 174.537926 109.635143 
L 174.989638 106.292602 
L 175.44135 103.978536 
L 175.893062 106.12119 
L 176.344775 105.00701 
L 177.248199 107.23537 
L 177.699911 104.835597 
L 178.151623 104.064242 
L 178.603335 106.806839 
L 179.055047 104.064242 
L 179.506759 103.635711 
L 179.958472 102.007294 
L 180.410184 105.606953 
L 180.861896 104.149948 
L 181.313608 103.807123 
L 181.76532 103.892829 
L 182.217032 103.035768 
L 182.668744 103.635711 
L 183.120457 101.750175 
L 183.572169 102.007294 
L 184.023881 102.692943 
L 184.475593 100.036051 
L 184.927305 102.950061 
L 185.379017 102.950061 
L 185.830729 102.264412 
L 186.282442 103.20718 
L 186.734154 99.264696 
L 187.185866 100.378876 
L 187.637578 102.950061 
L 188.08929 99.864639 
L 188.541002 101.150232 
L 188.992714 100.29317 
L 189.444426 100.635995 
L 189.896139 99.950345 
L 190.347851 97.293454 
L 190.799563 97.979103 
L 191.251275 99.17899 
L 191.702987 100.893113 
L 192.154699 102.093 
L 193.058124 95.57933 
L 193.509836 98.407634 
L 193.961548 98.407634 
L 194.41326 97.636278 
L 194.864972 99.093284 
L 195.316684 97.122041 
L 195.768396 98.664753 
L 196.220108 97.464866 
L 196.671821 98.921871 
L 197.123533 95.150799 
L 197.575245 100.550289 
L 198.026957 98.150516 
L 198.478669 96.436392 
L 199.382093 99.17899 
L 199.833806 97.893397 
L 200.285518 99.436108 
L 200.73723 100.207464 
L 201.188942 97.464866 
L 201.640654 97.122041 
L 202.092366 97.550572 
L 202.544078 93.436676 
L 202.99579 97.293454 
L 203.447503 96.436392 
L 203.899215 99.007577 
L 204.802639 96.179273 
L 205.254351 93.865207 
L 205.706063 96.350686 
L 206.157775 97.036335 
L 206.609488 95.407918 
L 207.0612 94.979387 
L 207.512912 95.836449 
L 207.964624 92.66532 
L 208.416336 95.065093 
L 208.868048 95.236506 
L 209.31976 97.207748 
L 210.223185 94.208031 
L 210.674897 95.322212 
L 211.126609 95.322212 
L 211.578321 97.293454 
L 212.030033 92.922439 
L 212.481745 95.322212 
L 212.933457 94.208031 
L 213.38517 94.979387 
L 213.836882 92.322496 
L 214.740306 95.322212 
L 215.192018 95.407918 
L 215.64373 94.722268 
L 216.095442 92.408202 
L 216.547155 92.66532 
L 216.998867 94.979387 
L 217.902291 93.179557 
L 218.354003 93.693794 
L 218.805715 95.150799 
L 219.709139 91.036903 
L 220.160852 93.436676 
L 220.612564 89.322779 
L 221.064276 93.008145 
L 221.515988 93.865207 
L 221.9677 92.236789 
L 222.419412 91.122609 
L 222.871124 92.836733 
L 223.774549 93.779501 
L 224.226261 91.294021 
L 224.677973 91.036903 
L 225.129685 93.179557 
L 225.581397 94.46515 
L 226.033109 90.951197 
L 226.484822 92.493908 
L 226.936534 91.808258 
L 227.388246 90.86549 
L 228.29167 93.008145 
L 228.743382 92.236789 
L 229.195094 90.951197 
L 229.646806 90.265547 
L 230.098519 92.236789 
L 230.550231 89.922723 
L 231.001943 90.008429 
L 232.357079 91.122609 
L 232.808791 90.43696 
L 233.260504 91.465434 
L 233.712216 89.75131 
L 234.163928 93.265263 
L 234.61564 91.294021 
L 235.067352 91.036903 
L 235.519064 90.951197 
L 235.970776 90.265547 
L 236.874201 92.66532 
L 237.325913 90.008429 
L 237.777625 91.979671 
L 238.229337 87.008713 
L 238.681049 89.237073 
L 239.132761 88.63713 
L 239.584473 89.75131 
L 240.036186 87.865774 
L 240.487898 91.979671 
L 240.93961 90.608372 
L 241.391322 88.808542 
L 241.843034 88.808542 
L 242.294746 88.465718 
L 242.746458 89.322779 
L 243.19817 89.237073 
L 243.649883 87.52295 
L 244.101595 89.151367 
L 244.553307 88.208599 
L 245.005019 90.522666 
L 245.456731 86.237357 
L 245.908443 89.837016 
L 246.360155 88.465718 
L 246.811868 88.808542 
L 247.26358 88.294305 
L 247.715292 87.265831 
L 248.167004 86.665888 
L 249.070428 89.579898 
L 249.52214 89.237073 
L 249.973853 88.122893 
L 250.877277 90.694078 
L 251.328989 89.065661 
L 251.780701 83.751878 
L 252.232413 86.494475 
L 252.684125 86.323063 
L 253.135837 88.894248 
L 253.58755 87.437243 
L 254.039262 88.722836 
L 254.490974 87.694362 
L 255.394398 88.208599 
L 255.84611 85.72312 
L 256.297822 88.294305 
L 256.749535 89.322779 
L 257.201247 88.122893 
L 257.652959 87.95148 
L 258.104671 88.979955 
L 258.556383 87.608656 
L 259.008095 92.579614 
L 259.911519 86.751594 
L 260.363232 85.294589 
L 261.266656 88.208599 
L 261.718368 87.008713 
L 262.17008 87.780068 
L 262.621792 89.579898 
L 263.073504 87.95148 
L 263.525217 88.551424 
L 263.976929 89.408485 
L 264.428641 86.8373 
L 264.880353 88.894248 
L 265.332065 89.065661 
L 265.783777 90.008429 
L 266.235489 87.52295 
L 266.687201 89.408485 
L 267.138914 84.780352 
L 267.590626 87.52295 
L 268.042338 85.294589 
L 268.49405 87.008713 
L 268.945762 87.95148 
L 269.397474 86.8373 
L 269.849186 89.322779 
L 270.300899 86.923006 
L 270.752611 87.694362 
L 271.204323 86.323063 
L 271.656035 85.808826 
L 272.107747 89.75131 
L 272.559459 87.608656 
L 273.011171 87.008713 
L 273.462884 87.008713 
L 273.914596 87.865774 
L 274.366308 85.894532 
L 274.81802 88.465718 
L 275.269732 86.580182 
L 275.721444 87.094419 
L 276.173156 85.894532 
L 276.624868 86.323063 
L 277.076581 86.151651 
L 277.528293 83.751878 
L 277.980005 85.123177 
L 278.431717 86.065945 
L 278.883429 85.980238 
L 279.335141 86.065945 
L 279.786853 86.494475 
L 280.238566 86.580182 
L 280.690278 87.694362 
L 281.14199 85.980238 
L 281.593702 84.951764 
L 282.045414 88.294305 
L 282.497126 86.751594 
L 282.948838 86.8373 
L 283.40055 85.466001 
L 283.852263 84.780352 
L 284.303975 84.437527 
L 284.755687 88.122893 
L 285.207399 85.551708 
L 285.659111 84.094702 
L 286.110823 86.065945 
L 286.562535 84.60894 
L 287.014248 86.494475 
L 287.46596 84.523233 
L 287.917672 86.665888 
L 288.369384 87.008713 
L 288.821096 84.180409 
L 289.272808 83.494759 
L 289.72452 86.237357 
L 290.176232 87.865774 
L 290.627945 84.866058 
L 291.079657 87.265831 
L 291.531369 85.72312 
L 291.983081 85.208883 
L 292.434793 85.808826 
L 292.886505 84.694646 
L 293.338217 85.208883 
L 293.78993 83.323347 
L 294.693354 87.437243 
L 295.145066 83.837584 
L 295.596778 87.865774 
L 296.04849 84.780352 
L 296.500202 82.980522 
L 297.403627 85.808826 
L 297.855339 83.237641 
L 298.307051 85.808826 
L 298.758763 85.894532 
L 299.210475 85.72312 
L 299.662187 83.151935 
L 300.565612 82.723404 
L 301.469036 86.923006 
L 301.920748 83.323347 
L 302.37246 84.866058 
L 302.824172 82.466285 
L 303.275884 84.523233 
L 303.727597 85.466001 
L 304.179309 85.72312 
L 304.631021 85.208883 
L 305.082733 84.180409 
L 305.534445 85.03747 
L 305.986157 85.294589 
L 306.437869 83.237641 
L 307.341294 84.60894 
L 307.793006 82.723404 
L 308.244718 82.637697 
L 308.69643 84.866058 
L 309.148142 83.666172 
L 309.599854 86.323063 
L 310.051566 83.494759 
L 310.503279 82.80911 
L 310.954991 84.180409 
L 311.406703 84.351821 
L 311.858415 85.123177 
L 312.310127 82.294873 
L 312.761839 85.208883 
L 313.213551 85.03747 
L 313.665263 82.466285 
L 314.116976 84.180409 
L 314.568688 81.437811 
L 315.0204 82.466285 
L 315.472112 82.209167 
L 315.923824 84.094702 
L 316.375536 82.037754 
L 316.827248 83.666172 
L 317.278961 82.723404 
L 317.730673 86.323063 
L 318.182385 84.780352 
L 318.634097 83.666172 
L 319.085809 85.380295 
L 319.537521 84.266115 
L 319.989233 86.237357 
L 320.440946 81.180692 
L 320.892658 84.008996 
L 321.34437 82.209167 
L 321.796082 82.037754 
L 322.247794 82.380579 
L 322.699506 81.952048 
L 323.151218 84.437527 
L 323.60293 81.352105 
L 324.054643 82.380579 
L 324.506355 81.780636 
L 324.958067 82.12346 
L 325.409779 83.580465 
L 325.861491 81.523517 
L 326.313203 83.237641 
L 326.764915 83.151935 
L 327.216628 84.094702 
L 327.66834 82.80911 
L 328.120052 83.237641 
L 328.571764 81.266399 
L 329.023476 83.409053 
L 329.475188 83.237641 
L 329.9269 81.69493 
L 330.378612 85.03747 
L 330.830325 85.208883 
L 331.282037 82.551991 
L 331.733749 80.666455 
L 332.185461 81.69493 
L 333.088885 82.894816 
L 333.540597 83.92329 
L 333.99231 80.066512 
L 334.444022 82.551991 
L 334.895734 83.666172 
L 335.347446 84.437527 
L 335.799158 81.523517 
L 336.25087 84.523233 
L 336.702582 81.180692 
L 337.154295 82.551991 
L 337.606007 81.609223 
L 338.057719 79.980806 
L 338.961143 83.751878 
L 339.412855 79.809394 
L 339.864567 81.180692 
L 340.316279 84.780352 
L 340.767992 83.494759 
L 341.219704 81.523517 
L 341.671416 84.780352 
L 342.123128 82.12346 
L 342.57484 80.666455 
L 343.026552 81.437811 
L 343.478264 82.80911 
L 343.929977 83.666172 
L 344.381689 80.580749 
L 344.833401 81.094986 
L 345.285113 82.380579 
L 345.736825 82.12346 
L 346.188537 83.323347 
L 346.640249 81.352105 
L 347.091961 81.00928 
L 347.543674 82.466285 
L 347.995386 81.952048 
L 348.447098 84.780352 
L 348.89881 81.266399 
L 349.350522 80.495043 
L 349.802234 81.523517 
L 350.253946 84.694646 
L 350.705659 84.094702 
L 351.157371 84.780352 
L 351.609083 81.609223 
L 352.060795 82.037754 
L 352.512507 79.809394 
L 353.415931 83.666172 
L 353.867643 80.837868 
L 354.319356 84.351821 
L 354.771068 82.037754 
L 355.22278 83.237641 
L 355.674492 81.094986 
L 356.126204 83.751878 
L 356.577916 81.180692 
L 357.029628 82.037754 
L 357.481341 83.666172 
L 357.933053 80.409337 
L 358.384765 82.980522 
L 358.836477 83.580465 
L 359.288189 83.580465 
L 359.739901 80.666455 
L 360.191613 81.266399 
L 360.643326 82.723404 
L 361.095038 80.409337 
L 361.54675 81.094986 
L 361.998462 83.92329 
L 362.450174 80.837868 
L 363.353598 83.751878 
L 363.80531 81.266399 
L 364.257023 82.551991 
L 364.708735 79.295157 
L 365.160447 84.180409 
L 365.612159 80.066512 
L 366.063871 81.609223 
L 366.515583 82.551991 
L 366.967295 81.094986 
L 367.87072 84.008996 
L 368.322432 81.094986 
L 368.774144 81.00928 
L 369.225856 81.866342 
L 369.677568 83.92329 
L 370.12928 79.295157 
L 370.580992 82.637697 
L 371.484417 81.437811 
L 371.936129 81.780636 
L 372.387841 81.437811 
L 372.839553 79.980806 
L 373.291265 81.266399 
L 373.742977 82.12346 
L 374.19469 82.466285 
L 374.646402 81.69493 
L 375.098114 82.037754 
L 375.549826 81.69493 
L 376.45325 83.237641 
L 376.904962 83.066228 
L 377.356674 79.038038 
L 377.808387 83.666172 
L 378.260099 79.123744 
L 378.711811 79.809394 
L 379.163523 83.666172 
L 379.615235 82.12346 
L 380.066947 84.694646 
L 380.518659 83.494759 
L 380.970372 81.69493 
L 381.422084 81.952048 
L 381.873796 82.723404 
L 382.325508 83.751878 
L 382.77722 82.380579 
L 383.228932 81.69493 
L 383.680644 83.237641 
L 384.132357 78.780919 
L 385.035781 81.523517 
L 385.487493 79.980806 
L 385.939205 79.295157 
L 386.390917 82.209167 
L 386.842629 83.409053 
L 387.294341 79.552275 
L 387.746054 80.923574 
L 388.197766 81.780636 
L 388.649478 81.00928 
L 389.10119 81.180692 
L 389.552902 79.380863 
L 390.004614 79.809394 
L 390.456326 80.837868 
L 390.908039 82.209167 
L 391.359751 79.809394 
L 391.811463 82.551991 
L 392.263175 79.123744 
L 393.166599 82.209167 
L 393.618311 81.180692 
L 394.070023 82.80911 
L 394.521736 79.123744 
L 394.973448 82.037754 
L 395.42516 81.180692 
L 395.876872 81.523517 
L 396.328584 82.12346 
L 396.780296 80.923574 
L 397.683721 81.609223 
L 398.135433 83.151935 
L 398.587145 82.12346 
L 399.038857 79.723687 
L 399.490569 82.894816 
L 399.942281 82.209167 
L 400.393993 80.495043 
L 400.845705 80.752162 
L 401.297418 80.752162 
L 401.74913 79.380863 
L 402.200842 81.266399 
L 402.652554 80.495043 
L 403.104266 80.495043 
L 403.555978 78.780919 
L 404.00769 81.952048 
L 404.459403 81.00928 
L 404.911115 83.494759 
L 405.362827 81.180692 
L 406.266251 79.295157 
L 406.717963 83.323347 
L 407.621388 80.752162 
L 408.0731 81.266399 
L 408.524812 78.523801 
L 408.976524 82.380579 
L 409.428236 82.294873 
L 409.879948 82.551991 
L 410.33166 80.323631 
L 410.783372 80.666455 
L 411.235085 80.237925 
L 411.686797 79.980806 
L 412.138509 82.037754 
L 412.590221 77.323914 
L 413.041933 81.609223 
L 413.493645 77.581033 
L 413.945357 78.009564 
L 414.39707 82.12346 
L 414.848782 82.12346 
L 415.300494 80.495043 
L 415.752206 82.037754 
L 416.203918 78.695213 
L 416.65563 80.323631 
L 417.107342 79.723687 
L 417.559054 80.923574 
L 418.010767 79.038038 
L 418.462479 81.523517 
L 419.365903 79.723687 
L 419.817615 79.552275 
L 420.269327 81.180692 
L 420.721039 79.380863 
L 421.172752 80.495043 
L 421.624464 80.580749 
L 422.076176 79.8951 
L 422.527888 81.866342 
L 422.9796 79.809394 
L 423.431312 82.380579 
L 423.883024 81.352105 
L 424.334737 82.980522 
L 424.786449 80.066512 
L 426.593297 82.294873 
L 427.045009 82.637697 
L 427.496721 79.809394 
L 427.948434 79.723687 
L 428.400146 80.409337 
L 428.851858 82.294873 
L 429.30357 80.323631 
L 430.206994 81.952048 
L 430.658706 82.551991 
L 431.110419 79.552275 
L 431.562131 78.866626 
L 432.013843 78.780919 
L 432.465555 80.495043 
L 432.917267 80.495043 
L 433.368979 78.952332 
L 433.820691 79.8951 
L 434.272403 80.323631 
L 434.724116 79.8951 
L 435.175828 78.952332 
L 435.62754 80.495043 
L 436.079252 80.152218 
L 436.530964 78.266682 
L 436.982676 79.20945 
L 437.434388 81.780636 
L 437.886101 78.609507 
L 438.337813 78.266682 
L 438.789525 80.409337 
L 439.241237 80.666455 
L 439.692949 79.980806 
L 440.144661 81.00928 
L 440.596373 79.723687 
L 441.048085 76.723971 
L 441.499798 79.637981 
L 441.95151 78.523801 
L 442.403222 80.152218 
L 442.854934 80.495043 
L 443.306646 81.180692 
L 443.758358 80.152218 
L 444.21007 80.752162 
L 444.661783 77.581033 
L 445.113495 79.8951 
L 445.565207 81.523517 
L 446.016919 79.637981 
L 446.468631 79.8951 
L 446.920343 81.266399 
L 447.372055 78.009564 
L 447.823768 81.437811 
L 448.27548 77.409621 
L 448.727192 82.037754 
L 449.630616 81.180692 
L 450.082328 79.637981 
L 450.53404 80.066512 
L 450.985752 78.180976 
L 451.437465 77.581033 
L 451.889177 77.752445 
L 452.340889 80.323631 
L 452.792601 77.752445 
L 453.244313 79.038038 
L 453.696025 79.20945 
L 454.59945 82.466285 
L 455.051162 79.466569 
L 455.502874 79.980806 
L 455.954586 81.00928 
L 456.406298 79.380863 
L 456.85801 80.495043 
L 457.309722 80.837868 
L 457.761434 80.409337 
L 458.213147 79.20945 
L 458.664859 79.723687 
L 459.116571 78.695213 
L 460.019995 80.409337 
L 460.471707 78.952332 
L 460.923419 79.20945 
L 461.375132 81.780636 
L 461.826844 76.98109 
L 462.278556 81.609223 
L 462.730268 78.780919 
L 463.18198 79.038038 
L 463.633692 80.323631 
L 464.085404 80.066512 
L 464.537116 79.20945 
L 464.988829 79.809394 
L 465.440541 80.923574 
L 465.892253 79.380863 
L 466.343965 81.00928 
L 466.795677 80.923574 
L 467.247389 78.780919 
L 467.699101 80.923574 
L 468.150814 81.609223 
L 468.602526 78.438095 
L 469.054238 79.123744 
L 469.50595 79.123744 
L 469.957662 80.837868 
L 470.409374 78.266682 
L 470.861086 79.380863 
L 471.312799 78.695213 
L 471.764511 80.752162 
L 472.216223 80.495043 
L 472.667935 80.580749 
L 473.119647 79.980806 
L 473.571359 78.352389 
L 474.023071 80.495043 
L 474.926496 79.123744 
L 475.378208 82.12346 
L 475.82992 80.580749 
L 476.281632 76.723971 
L 476.733344 77.152502 
L 477.185056 78.352389 
L 477.636768 81.266399 
L 478.088481 80.666455 
L 478.540193 78.609507 
L 478.991905 81.00928 
L 479.443617 80.409337 
L 479.895329 78.780919 
L 480.347041 79.980806 
L 480.798753 77.323914 
L 481.250465 77.838152 
L 481.702178 80.666455 
L 482.15389 80.752162 
L 482.605602 79.8951 
L 483.057314 80.237925 
L 483.509026 78.952332 
L 483.960738 78.438095 
L 484.41245 79.123744 
L 484.864163 77.238208 
L 485.315875 78.352389 
L 485.767587 79.123744 
L 486.219299 79.552275 
L 486.671011 78.09527 
L 487.122723 78.266682 
L 487.574435 76.723971 
L 488.026147 79.8951 
L 488.47786 80.752162 
L 488.929572 78.180976 
L 489.381284 79.380863 
L 489.832996 79.8951 
L 490.284708 79.123744 
L 490.73642 79.723687 
L 491.188132 79.295157 
L 491.639845 78.523801 
L 492.091557 78.780919 
L 492.543269 80.152218 
L 492.994981 79.980806 
L 493.446693 80.580749 
L 493.898405 79.637981 
L 494.350117 79.123744 
L 494.80183 79.809394 
L 495.253542 82.037754 
L 495.705254 80.837868 
L 496.156966 79.123744 
L 496.608678 79.380863 
L 497.06039 79.380863 
L 497.512102 77.666739 
L 497.963814 79.295157 
L 498.867239 79.980806 
L 499.318951 80.152218 
L 499.770663 77.066796 
L 500.222375 80.323631 
L 500.674087 77.752445 
L 501.125799 79.380863 
L 501.577512 79.8951 
L 502.029224 77.495327 
L 502.480936 78.523801 
L 502.932648 81.866342 
L 503.38436 78.352389 
L 503.836072 81.180692 
L 504.287784 80.409337 
L 504.739496 81.180692 
L 505.191209 79.552275 
L 505.642921 77.323914 
L 506.094633 78.009564 
L 506.546345 78.180976 
L 506.998057 75.781203 
L 507.449769 81.69493 
L 507.901481 78.266682 
L 508.353194 77.666739 
L 508.804906 80.323631 
L 509.256618 78.180976 
L 510.160042 77.066796 
L 510.611754 78.695213 
L 511.063466 79.723687 
L 511.515178 79.20945 
L 511.966891 77.923858 
L 512.418603 77.323914 
L 512.870315 80.666455 
L 513.322027 79.20945 
L 513.773739 75.695497 
L 514.225451 78.952332 
L 514.677163 79.723687 
L 515.128876 78.438095 
L 515.580588 78.695213 
L 516.0323 78.695213 
L 516.484012 80.409337 
L 516.935724 79.809394 
L 517.387436 77.752445 
L 517.839148 81.180692 
L 518.290861 75.009848 
L 518.742573 79.809394 
L 519.194285 80.237925 
L 519.645997 79.723687 
L 520.097709 79.380863 
L 520.549421 77.838152 
L 521.001133 77.752445 
L 521.452845 77.923858 
L 521.904558 78.266682 
L 522.35627 79.295157 
L 522.807982 77.581033 
L 523.259694 77.666739 
L 523.711406 77.495327 
L 524.163118 79.723687 
L 524.61483 79.8951 
L 525.066543 78.695213 
L 525.518255 78.266682 
L 525.969967 76.723971 
L 526.421679 80.752162 
L 527.325103 79.552275 
L 527.776815 78.009564 
L 528.228527 78.866626 
L 528.68024 78.266682 
L 529.131952 79.723687 
L 529.583664 80.580749 
L 530.487088 78.695213 
L 530.9388 80.237925 
L 531.390512 80.580749 
L 531.842225 77.923858 
L 532.293937 79.466569 
L 532.745649 78.695213 
L 533.197361 78.438095 
L 533.649073 79.809394 
L 534.100785 79.295157 
L 534.552497 80.152218 
L 535.00421 79.552275 
L 535.455922 77.409621 
L 535.907634 76.038322 
L 536.359346 80.066512 
L 536.811058 79.723687 
L 537.26277 78.523801 
L 537.714482 79.123744 
L 538.166194 78.952332 
L 538.617907 78.438095 
L 539.069619 76.98109 
L 539.521331 79.8951 
L 539.973043 79.20945 
L 540.424755 79.20945 
L 540.876467 80.066512 
L 541.328179 79.466569 
L 541.779892 80.837868 
L 542.683316 79.8951 
L 543.135028 76.552559 
L 543.58674 76.638265 
L 544.038452 77.923858 
L 544.490164 80.495043 
L 544.941876 77.409621 
L 545.845301 80.580749 
L 546.297013 77.838152 
L 546.748725 77.752445 
L 547.200437 79.295157 
L 547.652149 76.723971 
L 548.103861 77.838152 
L 548.555574 80.666455 
L 549.007286 75.609791 
L 549.458998 78.780919 
L 549.91071 76.895384 
L 550.362422 78.180976 
L 550.814134 77.923858 
L 551.265846 78.780919 
L 551.717558 81.523517 
L 552.169271 78.352389 
L 552.620983 76.98109 
L 553.072695 77.838152 
L 553.524407 77.581033 
L 553.976119 79.637981 
L 554.427831 79.295157 
L 554.879543 79.637981 
L 555.331256 79.637981 
L 555.782968 80.752162 
L 556.23468 80.409337 
L 556.686392 79.20945 
L 557.138104 80.752162 
L 557.589816 79.038038 
L 558.041528 78.523801 
L 558.944953 78.609507 
L 559.396665 79.980806 
L 559.848377 78.609507 
L 560.300089 79.295157 
L 560.751801 78.009564 
L 561.203513 78.438095 
L 561.655225 79.466569 
L 562.106938 78.352389 
L 562.55865 81.523517 
L 563.010362 76.552559 
L 563.462074 77.752445 
L 563.913786 77.666739 
L 564.81721 79.723687 
L 565.268923 79.123744 
L 565.720635 79.20945 
L 566.172347 78.438095 
L 566.624059 78.609507 
L 567.075771 79.123744 
L 567.527483 78.352389 
L 567.979195 77.323914 
L 568.430907 80.409337 
L 568.88262 77.238208 
L 569.334332 78.266682 
L 569.786044 78.009564 
L 570.237756 81.523517 
L 570.689468 79.038038 
L 571.14118 79.123744 
L 571.592892 78.866626 
L 572.044605 76.552559 
L 572.496317 78.609507 
L 572.948029 76.895384 
L 573.399741 79.8951 
L 573.851453 77.495327 
L 574.303165 76.124028 
L 574.754877 77.238208 
L 575.206589 77.923858 
L 575.658302 78.009564 
L 576.110014 76.98109 
L 576.561726 77.323914 
L 577.013438 78.180976 
L 577.46515 79.552275 
L 577.916862 76.124028 
L 578.368574 79.637981 
L 578.820287 80.409337 
L 579.271999 75.952616 
L 579.723711 79.637981 
L 580.627135 77.066796 
L 581.078847 79.123744 
L 581.530559 76.98109 
L 581.982272 79.20945 
L 582.433984 77.152502 
L 582.885696 76.209734 
L 583.337408 81.352105 
L 583.78912 78.438095 
L 584.240832 79.980806 
L 584.692544 79.809394 
L 585.144256 75.438379 
L 585.595969 81.952048 
L 586.047681 80.837868 
L 586.499393 81.266399 
L 586.951105 77.752445 
L 587.402817 78.609507 
L 587.854529 79.123744 
L 588.306241 76.466853 
L 588.757954 77.066796 
L 589.209666 75.609791 
L 589.661378 77.838152 
L 590.11309 77.752445 
L 591.016514 79.038038 
L 591.468226 77.923858 
L 591.919938 79.20945 
L 592.371651 74.152786 
L 592.823363 75.952616 
L 593.275075 79.123744 
L 593.726787 76.29544 
L 594.178499 77.581033 
L 594.630211 77.495327 
L 595.081923 78.695213 
L 595.533636 77.409621 
L 595.985348 78.780919 
L 596.43706 77.581033 
L 596.888772 80.152218 
L 597.340484 79.809394 
L 597.792196 76.552559 
L 598.243908 78.352389 
L 598.69562 76.124028 
L 599.599045 78.352389 
L 600.050757 76.29544 
L 600.502469 78.780919 
L 600.954181 76.124028 
L 601.405893 78.352389 
L 601.857605 77.838152 
L 602.309318 79.295157 
L 602.76103 78.523801 
L 603.212742 78.609507 
L 603.664454 78.009564 
L 604.116166 79.980806 
L 604.567878 76.038322 
L 605.01959 80.066512 
L 605.471303 79.552275 
L 605.923015 78.866626 
L 606.374727 77.066796 
L 606.826439 77.238208 
L 607.278151 76.124028 
L 607.729863 78.352389 
L 608.181575 78.695213 
L 609.085 75.524085 
L 609.536712 79.295157 
L 609.988424 77.838152 
L 610.440136 77.752445 
L 610.891848 76.638265 
L 611.34356 78.780919 
L 611.795272 77.066796 
L 612.246985 79.723687 
L 612.698697 76.29544 
L 613.150409 77.666739 
L 613.602121 78.09527 
L 614.053833 78.266682 
L 614.505545 78.952332 
L 614.957257 77.666739 
L 615.408969 75.952616 
L 615.860682 76.638265 
L 616.312394 75.18126 
L 617.215818 78.180976 
L 617.66753 77.238208 
L 618.119242 78.866626 
L 618.570954 75.952616 
L 619.022667 76.98109 
L 619.474379 75.524085 
L 619.926091 79.295157 
L 620.377803 78.352389 
L 620.829515 78.695213 
L 621.281227 78.009564 
L 621.732939 80.752162 
L 622.184652 76.466853 
L 622.636364 77.066796 
L 622.636364 77.066796 
" style="fill:none;stroke:#ff7f0e;stroke-linecap:square;stroke-width:0.5;"/>
   </g>
   <g id="patch_3">
    <path d="M 90 315 
L 90 43.2 
" style="fill:none;stroke:#000000;stroke-linecap:square;stroke-linejoin:miter;stroke-width:0.8;"/>
   </g>
   <g id="patch_4">
    <path d="M 648 315 
L 648 43.2 
" style="fill:none;stroke:#000000;stroke-linecap:square;stroke-linejoin:miter;stroke-width:0.8;"/>
   </g>
   <g id="patch_5">
    <path d="M 90 315 
L 648 315 
" style="fill:none;stroke:#000000;stroke-linecap:square;stroke-linejoin:miter;stroke-width:0.8;"/>
   </g>
   <g id="patch_6">
    <path d="M 90 43.2 
L 648 43.2 
" style="fill:none;stroke:#000000;stroke-linecap:square;stroke-linejoin:miter;stroke-width:0.8;"/>
   </g>
   <g id="text_16">
    <!-- accuracy -->
    <g transform="translate(341.92875 37.2)scale(0.12 -0.12)">
     <use xlink:href="#DejaVuSans-97"/>
     <use x="61.279297" xlink:href="#DejaVuSans-99"/>
     <use x="116.259766" xlink:href="#DejaVuSans-99"/>
     <use x="171.240234" xlink:href="#DejaVuSans-117"/>
     <use x="234.619141" xlink:href="#DejaVuSans-114"/>
     <use x="275.732422" xlink:href="#DejaVuSans-97"/>
     <use x="337.011719" xlink:href="#DejaVuSans-99"/>
     <use x="391.992188" xlink:href="#DejaVuSans-121"/>
    </g>
   </g>
   <g id="legend_1">
    <g id="patch_7">
     <path d="M 97 80.55625 
L 169.153125 80.55625 
Q 171.153125 80.55625 171.153125 78.55625 
L 171.153125 50.2 
Q 171.153125 48.2 169.153125 48.2 
L 97 48.2 
Q 95 48.2 95 50.2 
L 95 78.55625 
Q 95 80.55625 97 80.55625 
z
" style="fill:#ffffff;opacity:0.8;stroke:#cccccc;stroke-linejoin:miter;"/>
    </g>
    <g id="line2d_29">
     <path d="M 99 56.298437 
L 119 56.298437 
" style="fill:none;stroke:#1f77b4;stroke-linecap:square;stroke-width:0.5;"/>
    </g>
    <g id="line2d_30"/>
    <g id="text_17">
     <!-- train -->
     <defs>
      <path d="M 18.3125 70.21875 
L 18.3125 54.6875 
L 36.8125 54.6875 
L 36.8125 47.703125 
L 18.3125 47.703125 
L 18.3125 18.015625 
Q 18.3125 11.328125 20.140625 9.421875 
Q 21.96875 7.515625 27.59375 7.515625 
L 36.8125 7.515625 
L 36.8125 0 
L 27.59375 0 
Q 17.1875 0 13.234375 3.875 
Q 9.28125 7.765625 9.28125 18.015625 
L 9.28125 47.703125 
L 2.6875 47.703125 
L 2.6875 54.6875 
L 9.28125 54.6875 
L 9.28125 70.21875 
z
" id="DejaVuSans-116"/>
      <path d="M 9.421875 54.6875 
L 18.40625 54.6875 
L 18.40625 0 
L 9.421875 0 
z
M 9.421875 75.984375 
L 18.40625 75.984375 
L 18.40625 64.59375 
L 9.421875 64.59375 
z
" id="DejaVuSans-105"/>
      <path d="M 54.890625 33.015625 
L 54.890625 0 
L 45.90625 0 
L 45.90625 32.71875 
Q 45.90625 40.484375 42.875 44.328125 
Q 39.84375 48.1875 33.796875 48.1875 
Q 26.515625 48.1875 22.3125 43.546875 
Q 18.109375 38.921875 18.109375 30.90625 
L 18.109375 0 
L 9.078125 0 
L 9.078125 54.6875 
L 18.109375 54.6875 
L 18.109375 46.1875 
Q 21.34375 51.125 25.703125 53.5625 
Q 30.078125 56 35.796875 56 
Q 45.21875 56 50.046875 50.171875 
Q 54.890625 44.34375 54.890625 33.015625 
z
" id="DejaVuSans-110"/>
     </defs>
     <g transform="translate(127 59.798437)scale(0.1 -0.1)">
      <use xlink:href="#DejaVuSans-116"/>
      <use x="39.208984" xlink:href="#DejaVuSans-114"/>
      <use x="80.322266" xlink:href="#DejaVuSans-97"/>
      <use x="141.601562" xlink:href="#DejaVuSans-105"/>
      <use x="169.384766" xlink:href="#DejaVuSans-110"/>
     </g>
    </g>
    <g id="line2d_31">
     <path d="M 99 70.976562 
L 119 70.976562 
" style="fill:none;stroke:#ff7f0e;stroke-linecap:square;stroke-width:0.5;"/>
    </g>
    <g id="line2d_32"/>
    <g id="text_18">
     <!-- validate -->
     <defs>
      <path d="M 2.984375 54.6875 
L 12.5 54.6875 
L 29.59375 8.796875 
L 46.6875 54.6875 
L 56.203125 54.6875 
L 35.6875 0 
L 23.484375 0 
z
" id="DejaVuSans-118"/>
      <path d="M 9.421875 75.984375 
L 18.40625 75.984375 
L 18.40625 0 
L 9.421875 0 
z
" id="DejaVuSans-108"/>
      <path d="M 45.40625 46.390625 
L 45.40625 75.984375 
L 54.390625 75.984375 
L 54.390625 0 
L 45.40625 0 
L 45.40625 8.203125 
Q 42.578125 3.328125 38.25 0.953125 
Q 33.9375 -1.421875 27.875 -1.421875 
Q 17.96875 -1.421875 11.734375 6.484375 
Q 5.515625 14.40625 5.515625 27.296875 
Q 5.515625 40.1875 11.734375 48.09375 
Q 17.96875 56 27.875 56 
Q 33.9375 56 38.25 53.625 
Q 42.578125 51.265625 45.40625 46.390625 
z
M 14.796875 27.296875 
Q 14.796875 17.390625 18.875 11.75 
Q 22.953125 6.109375 30.078125 6.109375 
Q 37.203125 6.109375 41.296875 11.75 
Q 45.40625 17.390625 45.40625 27.296875 
Q 45.40625 37.203125 41.296875 42.84375 
Q 37.203125 48.484375 30.078125 48.484375 
Q 22.953125 48.484375 18.875 42.84375 
Q 14.796875 37.203125 14.796875 27.296875 
z
" id="DejaVuSans-100"/>
     </defs>
     <g transform="translate(127 74.476562)scale(0.1 -0.1)">
      <use xlink:href="#DejaVuSans-118"/>
      <use x="59.179688" xlink:href="#DejaVuSans-97"/>
      <use x="120.458984" xlink:href="#DejaVuSans-108"/>
      <use x="148.242188" xlink:href="#DejaVuSans-105"/>
      <use x="176.025391" xlink:href="#DejaVuSans-100"/>
      <use x="239.501953" xlink:href="#DejaVuSans-97"/>
      <use x="300.78125" xlink:href="#DejaVuSans-116"/>
      <use x="339.990234" xlink:href="#DejaVuSans-101"/>
     </g>
    </g>
   </g>
  </g>
 </g>
 <defs>
  <clipPath id="pa6b8a464e8">
   <rect height="271.8" width="558" x="90" y="43.2"/>
  </clipPath>
 </defs>
</svg>
