<?xml version="1.0" encoding="utf-8" standalone="no"?>
<!DOCTYPE svg PUBLIC "-//W3C//DTD SVG 1.1//EN"
  "http://www.w3.org/Graphics/SVG/1.1/DTD/svg11.dtd">
<!-- Created with matplotlib (https://matplotlib.org/) -->
<svg height="360pt" version="1.1" viewBox="0 0 720 360" width="720pt" xmlns="http://www.w3.org/2000/svg" xmlns:xlink="http://www.w3.org/1999/xlink">
 <defs>
  <style type="text/css">
*{stroke-linecap:butt;stroke-linejoin:round;}
  </style>
 </defs>
 <g id="figure_1">
  <g id="patch_1">
   <path d="M 0 360 
L 720 360 
L 720 0 
L 0 0 
z
" style="fill:#ffffff;"/>
  </g>
  <g id="axes_1">
   <g id="patch_2">
    <path d="M 90 315 
L 648 315 
L 648 43.2 
L 90 43.2 
z
" style="fill:#ffffff;"/>
   </g>
   <g id="matplotlib.axis_1">
    <g id="xtick_1">
     <g id="line2d_1">
      <path clip-path="url(#p341feba723)" d="M 115.363636 315 
L 115.363636 43.2 
" style="fill:none;stroke:#b0b0b0;stroke-linecap:square;stroke-width:0.8;"/>
     </g>
     <g id="line2d_2">
      <defs>
       <path d="M 0 0 
L 0 3.5 
" id="md8bf9682c5" style="stroke:#000000;stroke-width:0.8;"/>
      </defs>
      <g>
       <use style="stroke:#000000;stroke-width:0.8;" x="115.363636" xlink:href="#md8bf9682c5" y="315"/>
      </g>
     </g>
     <g id="text_1">
      <!-- 0 -->
      <defs>
       <path d="M 31.78125 66.40625 
Q 24.171875 66.40625 20.328125 58.90625 
Q 16.5 51.421875 16.5 36.375 
Q 16.5 21.390625 20.328125 13.890625 
Q 24.171875 6.390625 31.78125 6.390625 
Q 39.453125 6.390625 43.28125 13.890625 
Q 47.125 21.390625 47.125 36.375 
Q 47.125 51.421875 43.28125 58.90625 
Q 39.453125 66.40625 31.78125 66.40625 
z
M 31.78125 74.21875 
Q 44.046875 74.21875 50.515625 64.515625 
Q 56.984375 54.828125 56.984375 36.375 
Q 56.984375 17.96875 50.515625 8.265625 
Q 44.046875 -1.421875 31.78125 -1.421875 
Q 19.53125 -1.421875 13.0625 8.265625 
Q 6.59375 17.96875 6.59375 36.375 
Q 6.59375 54.828125 13.0625 64.515625 
Q 19.53125 74.21875 31.78125 74.21875 
z
" id="DejaVuSans-48"/>
      </defs>
      <g transform="translate(112.182386 329.598437)scale(0.1 -0.1)">
       <use xlink:href="#DejaVuSans-48"/>
      </g>
     </g>
    </g>
    <g id="xtick_2">
     <g id="line2d_3">
      <path clip-path="url(#p341feba723)" d="M 205.706063 315 
L 205.706063 43.2 
" style="fill:none;stroke:#b0b0b0;stroke-linecap:square;stroke-width:0.8;"/>
     </g>
     <g id="line2d_4">
      <g>
       <use style="stroke:#000000;stroke-width:0.8;" x="205.706063" xlink:href="#md8bf9682c5" y="315"/>
      </g>
     </g>
     <g id="text_2">
      <!-- 200 -->
      <defs>
       <path d="M 19.1875 8.296875 
L 53.609375 8.296875 
L 53.609375 0 
L 7.328125 0 
L 7.328125 8.296875 
Q 12.9375 14.109375 22.625 23.890625 
Q 32.328125 33.6875 34.8125 36.53125 
Q 39.546875 41.84375 41.421875 45.53125 
Q 43.3125 49.21875 43.3125 52.78125 
Q 43.3125 58.59375 39.234375 62.25 
Q 35.15625 65.921875 28.609375 65.921875 
Q 23.96875 65.921875 18.8125 64.3125 
Q 13.671875 62.703125 7.8125 59.421875 
L 7.8125 69.390625 
Q 13.765625 71.78125 18.9375 73 
Q 24.125 74.21875 28.421875 74.21875 
Q 39.75 74.21875 46.484375 68.546875 
Q 53.21875 62.890625 53.21875 53.421875 
Q 53.21875 48.921875 51.53125 44.890625 
Q 49.859375 40.875 45.40625 35.40625 
Q 44.1875 33.984375 37.640625 27.21875 
Q 31.109375 20.453125 19.1875 8.296875 
z
" id="DejaVuSans-50"/>
      </defs>
      <g transform="translate(196.162313 329.598437)scale(0.1 -0.1)">
       <use xlink:href="#DejaVuSans-50"/>
       <use x="63.623047" xlink:href="#DejaVuSans-48"/>
       <use x="127.246094" xlink:href="#DejaVuSans-48"/>
      </g>
     </g>
    </g>
    <g id="xtick_3">
     <g id="line2d_5">
      <path clip-path="url(#p341feba723)" d="M 296.04849 315 
L 296.04849 43.2 
" style="fill:none;stroke:#b0b0b0;stroke-linecap:square;stroke-width:0.8;"/>
     </g>
     <g id="line2d_6">
      <g>
       <use style="stroke:#000000;stroke-width:0.8;" x="296.04849" xlink:href="#md8bf9682c5" y="315"/>
      </g>
     </g>
     <g id="text_3">
      <!-- 400 -->
      <defs>
       <path d="M 37.796875 64.3125 
L 12.890625 25.390625 
L 37.796875 25.390625 
z
M 35.203125 72.90625 
L 47.609375 72.90625 
L 47.609375 25.390625 
L 58.015625 25.390625 
L 58.015625 17.1875 
L 47.609375 17.1875 
L 47.609375 0 
L 37.796875 0 
L 37.796875 17.1875 
L 4.890625 17.1875 
L 4.890625 26.703125 
z
" id="DejaVuSans-52"/>
      </defs>
      <g transform="translate(286.50474 329.598437)scale(0.1 -0.1)">
       <use xlink:href="#DejaVuSans-52"/>
       <use x="63.623047" xlink:href="#DejaVuSans-48"/>
       <use x="127.246094" xlink:href="#DejaVuSans-48"/>
      </g>
     </g>
    </g>
    <g id="xtick_4">
     <g id="line2d_7">
      <path clip-path="url(#p341feba723)" d="M 386.390917 315 
L 386.390917 43.2 
" style="fill:none;stroke:#b0b0b0;stroke-linecap:square;stroke-width:0.8;"/>
     </g>
     <g id="line2d_8">
      <g>
       <use style="stroke:#000000;stroke-width:0.8;" x="386.390917" xlink:href="#md8bf9682c5" y="315"/>
      </g>
     </g>
     <g id="text_4">
      <!-- 600 -->
      <defs>
       <path d="M 33.015625 40.375 
Q 26.375 40.375 22.484375 35.828125 
Q 18.609375 31.296875 18.609375 23.390625 
Q 18.609375 15.53125 22.484375 10.953125 
Q 26.375 6.390625 33.015625 6.390625 
Q 39.65625 6.390625 43.53125 10.953125 
Q 47.40625 15.53125 47.40625 23.390625 
Q 47.40625 31.296875 43.53125 35.828125 
Q 39.65625 40.375 33.015625 40.375 
z
M 52.59375 71.296875 
L 52.59375 62.3125 
Q 48.875 64.0625 45.09375 64.984375 
Q 41.3125 65.921875 37.59375 65.921875 
Q 27.828125 65.921875 22.671875 59.328125 
Q 17.53125 52.734375 16.796875 39.40625 
Q 19.671875 43.65625 24.015625 45.921875 
Q 28.375 48.1875 33.59375 48.1875 
Q 44.578125 48.1875 50.953125 41.515625 
Q 57.328125 34.859375 57.328125 23.390625 
Q 57.328125 12.15625 50.6875 5.359375 
Q 44.046875 -1.421875 33.015625 -1.421875 
Q 20.359375 -1.421875 13.671875 8.265625 
Q 6.984375 17.96875 6.984375 36.375 
Q 6.984375 53.65625 15.1875 63.9375 
Q 23.390625 74.21875 37.203125 74.21875 
Q 40.921875 74.21875 44.703125 73.484375 
Q 48.484375 72.75 52.59375 71.296875 
z
" id="DejaVuSans-54"/>
      </defs>
      <g transform="translate(376.847167 329.598437)scale(0.1 -0.1)">
       <use xlink:href="#DejaVuSans-54"/>
       <use x="63.623047" xlink:href="#DejaVuSans-48"/>
       <use x="127.246094" xlink:href="#DejaVuSans-48"/>
      </g>
     </g>
    </g>
    <g id="xtick_5">
     <g id="line2d_9">
      <path clip-path="url(#p341feba723)" d="M 476.733344 315 
L 476.733344 43.2 
" style="fill:none;stroke:#b0b0b0;stroke-linecap:square;stroke-width:0.8;"/>
     </g>
     <g id="line2d_10">
      <g>
       <use style="stroke:#000000;stroke-width:0.8;" x="476.733344" xlink:href="#md8bf9682c5" y="315"/>
      </g>
     </g>
     <g id="text_5">
      <!-- 800 -->
      <defs>
       <path d="M 31.78125 34.625 
Q 24.75 34.625 20.71875 30.859375 
Q 16.703125 27.09375 16.703125 20.515625 
Q 16.703125 13.921875 20.71875 10.15625 
Q 24.75 6.390625 31.78125 6.390625 
Q 38.8125 6.390625 42.859375 10.171875 
Q 46.921875 13.96875 46.921875 20.515625 
Q 46.921875 27.09375 42.890625 30.859375 
Q 38.875 34.625 31.78125 34.625 
z
M 21.921875 38.8125 
Q 15.578125 40.375 12.03125 44.71875 
Q 8.5 49.078125 8.5 55.328125 
Q 8.5 64.0625 14.71875 69.140625 
Q 20.953125 74.21875 31.78125 74.21875 
Q 42.671875 74.21875 48.875 69.140625 
Q 55.078125 64.0625 55.078125 55.328125 
Q 55.078125 49.078125 51.53125 44.71875 
Q 48 40.375 41.703125 38.8125 
Q 48.828125 37.15625 52.796875 32.3125 
Q 56.78125 27.484375 56.78125 20.515625 
Q 56.78125 9.90625 50.3125 4.234375 
Q 43.84375 -1.421875 31.78125 -1.421875 
Q 19.734375 -1.421875 13.25 4.234375 
Q 6.78125 9.90625 6.78125 20.515625 
Q 6.78125 27.484375 10.78125 32.3125 
Q 14.796875 37.15625 21.921875 38.8125 
z
M 18.3125 54.390625 
Q 18.3125 48.734375 21.84375 45.5625 
Q 25.390625 42.390625 31.78125 42.390625 
Q 38.140625 42.390625 41.71875 45.5625 
Q 45.3125 48.734375 45.3125 54.390625 
Q 45.3125 60.0625 41.71875 63.234375 
Q 38.140625 66.40625 31.78125 66.40625 
Q 25.390625 66.40625 21.84375 63.234375 
Q 18.3125 60.0625 18.3125 54.390625 
z
" id="DejaVuSans-56"/>
      </defs>
      <g transform="translate(467.189594 329.598437)scale(0.1 -0.1)">
       <use xlink:href="#DejaVuSans-56"/>
       <use x="63.623047" xlink:href="#DejaVuSans-48"/>
       <use x="127.246094" xlink:href="#DejaVuSans-48"/>
      </g>
     </g>
    </g>
    <g id="xtick_6">
     <g id="line2d_11">
      <path clip-path="url(#p341feba723)" d="M 567.075771 315 
L 567.075771 43.2 
" style="fill:none;stroke:#b0b0b0;stroke-linecap:square;stroke-width:0.8;"/>
     </g>
     <g id="line2d_12">
      <g>
       <use style="stroke:#000000;stroke-width:0.8;" x="567.075771" xlink:href="#md8bf9682c5" y="315"/>
      </g>
     </g>
     <g id="text_6">
      <!-- 1000 -->
      <defs>
       <path d="M 12.40625 8.296875 
L 28.515625 8.296875 
L 28.515625 63.921875 
L 10.984375 60.40625 
L 10.984375 69.390625 
L 28.421875 72.90625 
L 38.28125 72.90625 
L 38.28125 8.296875 
L 54.390625 8.296875 
L 54.390625 0 
L 12.40625 0 
z
" id="DejaVuSans-49"/>
      </defs>
      <g transform="translate(554.350771 329.598437)scale(0.1 -0.1)">
       <use xlink:href="#DejaVuSans-49"/>
       <use x="63.623047" xlink:href="#DejaVuSans-48"/>
       <use x="127.246094" xlink:href="#DejaVuSans-48"/>
       <use x="190.869141" xlink:href="#DejaVuSans-48"/>
      </g>
     </g>
    </g>
    <g id="text_7">
     <!-- epoch -->
     <defs>
      <path d="M 56.203125 29.59375 
L 56.203125 25.203125 
L 14.890625 25.203125 
Q 15.484375 15.921875 20.484375 11.0625 
Q 25.484375 6.203125 34.421875 6.203125 
Q 39.59375 6.203125 44.453125 7.46875 
Q 49.3125 8.734375 54.109375 11.28125 
L 54.109375 2.78125 
Q 49.265625 0.734375 44.1875 -0.34375 
Q 39.109375 -1.421875 33.890625 -1.421875 
Q 20.796875 -1.421875 13.15625 6.1875 
Q 5.515625 13.8125 5.515625 26.8125 
Q 5.515625 40.234375 12.765625 48.109375 
Q 20.015625 56 32.328125 56 
Q 43.359375 56 49.78125 48.890625 
Q 56.203125 41.796875 56.203125 29.59375 
z
M 47.21875 32.234375 
Q 47.125 39.59375 43.09375 43.984375 
Q 39.0625 48.390625 32.421875 48.390625 
Q 24.90625 48.390625 20.390625 44.140625 
Q 15.875 39.890625 15.1875 32.171875 
z
" id="DejaVuSans-101"/>
      <path d="M 18.109375 8.203125 
L 18.109375 -20.796875 
L 9.078125 -20.796875 
L 9.078125 54.6875 
L 18.109375 54.6875 
L 18.109375 46.390625 
Q 20.953125 51.265625 25.265625 53.625 
Q 29.59375 56 35.59375 56 
Q 45.5625 56 51.78125 48.09375 
Q 58.015625 40.1875 58.015625 27.296875 
Q 58.015625 14.40625 51.78125 6.484375 
Q 45.5625 -1.421875 35.59375 -1.421875 
Q 29.59375 -1.421875 25.265625 0.953125 
Q 20.953125 3.328125 18.109375 8.203125 
z
M 48.6875 27.296875 
Q 48.6875 37.203125 44.609375 42.84375 
Q 40.53125 48.484375 33.40625 48.484375 
Q 26.265625 48.484375 22.1875 42.84375 
Q 18.109375 37.203125 18.109375 27.296875 
Q 18.109375 17.390625 22.1875 11.75 
Q 26.265625 6.109375 33.40625 6.109375 
Q 40.53125 6.109375 44.609375 11.75 
Q 48.6875 17.390625 48.6875 27.296875 
z
" id="DejaVuSans-112"/>
      <path d="M 30.609375 48.390625 
Q 23.390625 48.390625 19.1875 42.75 
Q 14.984375 37.109375 14.984375 27.296875 
Q 14.984375 17.484375 19.15625 11.84375 
Q 23.34375 6.203125 30.609375 6.203125 
Q 37.796875 6.203125 41.984375 11.859375 
Q 46.1875 17.53125 46.1875 27.296875 
Q 46.1875 37.015625 41.984375 42.703125 
Q 37.796875 48.390625 30.609375 48.390625 
z
M 30.609375 56 
Q 42.328125 56 49.015625 48.375 
Q 55.71875 40.765625 55.71875 27.296875 
Q 55.71875 13.875 49.015625 6.21875 
Q 42.328125 -1.421875 30.609375 -1.421875 
Q 18.84375 -1.421875 12.171875 6.21875 
Q 5.515625 13.875 5.515625 27.296875 
Q 5.515625 40.765625 12.171875 48.375 
Q 18.84375 56 30.609375 56 
z
" id="DejaVuSans-111"/>
      <path d="M 48.78125 52.59375 
L 48.78125 44.1875 
Q 44.96875 46.296875 41.140625 47.34375 
Q 37.3125 48.390625 33.40625 48.390625 
Q 24.65625 48.390625 19.8125 42.84375 
Q 14.984375 37.3125 14.984375 27.296875 
Q 14.984375 17.28125 19.8125 11.734375 
Q 24.65625 6.203125 33.40625 6.203125 
Q 37.3125 6.203125 41.140625 7.25 
Q 44.96875 8.296875 48.78125 10.40625 
L 48.78125 2.09375 
Q 45.015625 0.34375 40.984375 -0.53125 
Q 36.96875 -1.421875 32.421875 -1.421875 
Q 20.0625 -1.421875 12.78125 6.34375 
Q 5.515625 14.109375 5.515625 27.296875 
Q 5.515625 40.671875 12.859375 48.328125 
Q 20.21875 56 33.015625 56 
Q 37.15625 56 41.109375 55.140625 
Q 45.0625 54.296875 48.78125 52.59375 
z
" id="DejaVuSans-99"/>
      <path d="M 54.890625 33.015625 
L 54.890625 0 
L 45.90625 0 
L 45.90625 32.71875 
Q 45.90625 40.484375 42.875 44.328125 
Q 39.84375 48.1875 33.796875 48.1875 
Q 26.515625 48.1875 22.3125 43.546875 
Q 18.109375 38.921875 18.109375 30.90625 
L 18.109375 0 
L 9.078125 0 
L 9.078125 75.984375 
L 18.109375 75.984375 
L 18.109375 46.1875 
Q 21.34375 51.125 25.703125 53.5625 
Q 30.078125 56 35.796875 56 
Q 45.21875 56 50.046875 50.171875 
Q 54.890625 44.34375 54.890625 33.015625 
z
" id="DejaVuSans-104"/>
     </defs>
     <g transform="translate(353.771875 343.276563)scale(0.1 -0.1)">
      <use xlink:href="#DejaVuSans-101"/>
      <use x="61.523438" xlink:href="#DejaVuSans-112"/>
      <use x="125" xlink:href="#DejaVuSans-111"/>
      <use x="186.181641" xlink:href="#DejaVuSans-99"/>
      <use x="241.162109" xlink:href="#DejaVuSans-104"/>
     </g>
    </g>
   </g>
   <g id="matplotlib.axis_2">
    <g id="ytick_1">
     <g id="line2d_13">
      <path clip-path="url(#p341feba723)" d="M 90 287.756719 
L 648 287.756719 
" style="fill:none;stroke:#b0b0b0;stroke-linecap:square;stroke-width:0.8;"/>
     </g>
     <g id="line2d_14">
      <defs>
       <path d="M 0 0 
L -3.5 0 
" id="m0186ba779e" style="stroke:#000000;stroke-width:0.8;"/>
      </defs>
      <g>
       <use style="stroke:#000000;stroke-width:0.8;" x="90" xlink:href="#m0186ba779e" y="287.756719"/>
      </g>
     </g>
     <g id="text_8">
      <!-- 0.2 -->
      <defs>
       <path d="M 10.6875 12.40625 
L 21 12.40625 
L 21 0 
L 10.6875 0 
z
" id="DejaVuSans-46"/>
      </defs>
      <g transform="translate(67.096875 291.555937)scale(0.1 -0.1)">
       <use xlink:href="#DejaVuSans-48"/>
       <use x="63.623047" xlink:href="#DejaVuSans-46"/>
       <use x="95.410156" xlink:href="#DejaVuSans-50"/>
      </g>
     </g>
    </g>
    <g id="ytick_2">
     <g id="line2d_15">
      <path clip-path="url(#p341feba723)" d="M 90 255.746353 
L 648 255.746353 
" style="fill:none;stroke:#b0b0b0;stroke-linecap:square;stroke-width:0.8;"/>
     </g>
     <g id="line2d_16">
      <g>
       <use style="stroke:#000000;stroke-width:0.8;" x="90" xlink:href="#m0186ba779e" y="255.746353"/>
      </g>
     </g>
     <g id="text_9">
      <!-- 0.4 -->
      <g transform="translate(67.096875 259.545572)scale(0.1 -0.1)">
       <use xlink:href="#DejaVuSans-48"/>
       <use x="63.623047" xlink:href="#DejaVuSans-46"/>
       <use x="95.410156" xlink:href="#DejaVuSans-52"/>
      </g>
     </g>
    </g>
    <g id="ytick_3">
     <g id="line2d_17">
      <path clip-path="url(#p341feba723)" d="M 90 223.735988 
L 648 223.735988 
" style="fill:none;stroke:#b0b0b0;stroke-linecap:square;stroke-width:0.8;"/>
     </g>
     <g id="line2d_18">
      <g>
       <use style="stroke:#000000;stroke-width:0.8;" x="90" xlink:href="#m0186ba779e" y="223.735988"/>
      </g>
     </g>
     <g id="text_10">
      <!-- 0.6 -->
      <g transform="translate(67.096875 227.535207)scale(0.1 -0.1)">
       <use xlink:href="#DejaVuSans-48"/>
       <use x="63.623047" xlink:href="#DejaVuSans-46"/>
       <use x="95.410156" xlink:href="#DejaVuSans-54"/>
      </g>
     </g>
    </g>
    <g id="ytick_4">
     <g id="line2d_19">
      <path clip-path="url(#p341feba723)" d="M 90 191.725623 
L 648 191.725623 
" style="fill:none;stroke:#b0b0b0;stroke-linecap:square;stroke-width:0.8;"/>
     </g>
     <g id="line2d_20">
      <g>
       <use style="stroke:#000000;stroke-width:0.8;" x="90" xlink:href="#m0186ba779e" y="191.725623"/>
      </g>
     </g>
     <g id="text_11">
      <!-- 0.8 -->
      <g transform="translate(67.096875 195.524842)scale(0.1 -0.1)">
       <use xlink:href="#DejaVuSans-48"/>
       <use x="63.623047" xlink:href="#DejaVuSans-46"/>
       <use x="95.410156" xlink:href="#DejaVuSans-56"/>
      </g>
     </g>
    </g>
    <g id="ytick_5">
     <g id="line2d_21">
      <path clip-path="url(#p341feba723)" d="M 90 159.715258 
L 648 159.715258 
" style="fill:none;stroke:#b0b0b0;stroke-linecap:square;stroke-width:0.8;"/>
     </g>
     <g id="line2d_22">
      <g>
       <use style="stroke:#000000;stroke-width:0.8;" x="90" xlink:href="#m0186ba779e" y="159.715258"/>
      </g>
     </g>
     <g id="text_12">
      <!-- 1.0 -->
      <g transform="translate(67.096875 163.514476)scale(0.1 -0.1)">
       <use xlink:href="#DejaVuSans-49"/>
       <use x="63.623047" xlink:href="#DejaVuSans-46"/>
       <use x="95.410156" xlink:href="#DejaVuSans-48"/>
      </g>
     </g>
    </g>
    <g id="ytick_6">
     <g id="line2d_23">
      <path clip-path="url(#p341feba723)" d="M 90 127.704892 
L 648 127.704892 
" style="fill:none;stroke:#b0b0b0;stroke-linecap:square;stroke-width:0.8;"/>
     </g>
     <g id="line2d_24">
      <g>
       <use style="stroke:#000000;stroke-width:0.8;" x="90" xlink:href="#m0186ba779e" y="127.704892"/>
      </g>
     </g>
     <g id="text_13">
      <!-- 1.2 -->
      <g transform="translate(67.096875 131.504111)scale(0.1 -0.1)">
       <use xlink:href="#DejaVuSans-49"/>
       <use x="63.623047" xlink:href="#DejaVuSans-46"/>
       <use x="95.410156" xlink:href="#DejaVuSans-50"/>
      </g>
     </g>
    </g>
    <g id="ytick_7">
     <g id="line2d_25">
      <path clip-path="url(#p341feba723)" d="M 90 95.694527 
L 648 95.694527 
" style="fill:none;stroke:#b0b0b0;stroke-linecap:square;stroke-width:0.8;"/>
     </g>
     <g id="line2d_26">
      <g>
       <use style="stroke:#000000;stroke-width:0.8;" x="90" xlink:href="#m0186ba779e" y="95.694527"/>
      </g>
     </g>
     <g id="text_14">
      <!-- 1.4 -->
      <g transform="translate(67.096875 99.493746)scale(0.1 -0.1)">
       <use xlink:href="#DejaVuSans-49"/>
       <use x="63.623047" xlink:href="#DejaVuSans-46"/>
       <use x="95.410156" xlink:href="#DejaVuSans-52"/>
      </g>
     </g>
    </g>
    <g id="ytick_8">
     <g id="line2d_27">
      <path clip-path="url(#p341feba723)" d="M 90 63.684162 
L 648 63.684162 
" style="fill:none;stroke:#b0b0b0;stroke-linecap:square;stroke-width:0.8;"/>
     </g>
     <g id="line2d_28">
      <g>
       <use style="stroke:#000000;stroke-width:0.8;" x="90" xlink:href="#m0186ba779e" y="63.684162"/>
      </g>
     </g>
     <g id="text_15">
      <!-- 1.6 -->
      <g transform="translate(67.096875 67.483381)scale(0.1 -0.1)">
       <use xlink:href="#DejaVuSans-49"/>
       <use x="63.623047" xlink:href="#DejaVuSans-46"/>
       <use x="95.410156" xlink:href="#DejaVuSans-54"/>
      </g>
     </g>
    </g>
    <g id="text_16">
     <!-- loss -->
     <defs>
      <path d="M 9.421875 75.984375 
L 18.40625 75.984375 
L 18.40625 0 
L 9.421875 0 
z
" id="DejaVuSans-108"/>
      <path d="M 44.28125 53.078125 
L 44.28125 44.578125 
Q 40.484375 46.53125 36.375 47.5 
Q 32.28125 48.484375 27.875 48.484375 
Q 21.1875 48.484375 17.84375 46.4375 
Q 14.5 44.390625 14.5 40.28125 
Q 14.5 37.15625 16.890625 35.375 
Q 19.28125 33.59375 26.515625 31.984375 
L 29.59375 31.296875 
Q 39.15625 29.25 43.1875 25.515625 
Q 47.21875 21.78125 47.21875 15.09375 
Q 47.21875 7.46875 41.1875 3.015625 
Q 35.15625 -1.421875 24.609375 -1.421875 
Q 20.21875 -1.421875 15.453125 -0.5625 
Q 10.6875 0.296875 5.421875 2 
L 5.421875 11.28125 
Q 10.40625 8.6875 15.234375 7.390625 
Q 20.0625 6.109375 24.8125 6.109375 
Q 31.15625 6.109375 34.5625 8.28125 
Q 37.984375 10.453125 37.984375 14.40625 
Q 37.984375 18.0625 35.515625 20.015625 
Q 33.0625 21.96875 24.703125 23.78125 
L 21.578125 24.515625 
Q 13.234375 26.265625 9.515625 29.90625 
Q 5.8125 33.546875 5.8125 39.890625 
Q 5.8125 47.609375 11.28125 51.796875 
Q 16.75 56 26.8125 56 
Q 31.78125 56 36.171875 55.265625 
Q 40.578125 54.546875 44.28125 53.078125 
z
" id="DejaVuSans-115"/>
     </defs>
     <g transform="translate(61.017187 188.757812)rotate(-90)scale(0.1 -0.1)">
      <use xlink:href="#DejaVuSans-108"/>
      <use x="27.783203" xlink:href="#DejaVuSans-111"/>
      <use x="88.964844" xlink:href="#DejaVuSans-115"/>
      <use x="141.064453" xlink:href="#DejaVuSans-115"/>
     </g>
    </g>
   </g>
   <g id="line2d_29">
    <path clip-path="url(#p341feba723)" d="M 115.363636 55.554545 
L 115.815348 69.214344 
L 116.267061 71.530314 
L 116.718773 77.302068 
L 117.170485 78.85361 
L 117.622197 82.027044 
L 118.073909 82.473838 
L 118.525621 86.528469 
L 119.429046 89.582389 
L 119.880758 89.323061 
L 120.33247 90.004959 
L 120.784182 91.00105 
L 121.235894 92.673595 
L 121.687606 91.572975 
L 122.139318 91.482601 
L 122.591031 93.48332 
L 123.042743 94.430522 
L 123.494455 94.187282 
L 123.946167 96.718089 
L 124.397879 95.216546 
L 124.849591 98.597204 
L 125.753015 101.048801 
L 126.204728 101.533951 
L 126.65644 104.451105 
L 127.108152 105.478586 
L 128.011576 109.331238 
L 128.463288 112.480743 
L 128.915 113.749992 
L 129.366713 116.715695 
L 129.818425 121.482637 
L 130.270137 121.769323 
L 130.721849 124.853397 
L 132.076985 137.137516 
L 132.528697 143.296213 
L 132.98041 144.778039 
L 133.883834 153.693559 
L 134.335546 157.483788 
L 134.787258 159.019359 
L 135.23897 161.940817 
L 135.690682 162.203166 
L 136.142395 167.625251 
L 136.594107 168.492139 
L 137.045819 173.690611 
L 137.949243 180.268112 
L 138.400955 182.005262 
L 138.852667 183.011314 
L 139.30438 185.484198 
L 139.756092 185.893944 
L 140.659516 189.847208 
L 141.111228 197.157325 
L 141.56294 195.737709 
L 142.014652 195.253798 
L 142.918077 203.607583 
L 143.369789 202.910494 
L 143.821501 206.024656 
L 144.724925 207.916191 
L 145.176637 209.092358 
L 145.628349 212.150058 
L 146.080062 213.041916 
L 146.531774 210.893366 
L 146.983486 214.477473 
L 147.435198 214.787076 
L 147.88691 215.731537 
L 148.338622 218.43836 
L 148.790334 218.858888 
L 149.693759 222.498984 
L 150.145471 221.658845 
L 150.597183 222.746754 
L 151.952319 227.059925 
L 152.404031 227.771902 
L 152.855744 227.409596 
L 153.307456 227.253051 
L 153.759168 229.905199 
L 154.21088 229.380861 
L 155.114304 232.597528 
L 155.566016 232.967951 
L 156.017728 233.189371 
L 156.469441 230.846303 
L 156.921153 233.545377 
L 157.372865 234.168499 
L 157.824577 234.210175 
L 158.276289 236.536306 
L 158.728001 237.253015 
L 159.179713 236.668152 
L 159.631426 234.920338 
L 160.53485 239.02455 
L 160.986562 238.437679 
L 161.438274 239.978366 
L 161.889986 238.624942 
L 162.341698 240.821326 
L 162.793411 238.141868 
L 163.245123 242.750874 
L 163.696835 240.072977 
L 164.148547 243.084718 
L 164.600259 242.2536 
L 165.051971 242.508737 
L 165.503683 243.029871 
L 165.955395 243.990641 
L 166.407108 244.364818 
L 166.85882 245.697575 
L 167.310532 243.489937 
L 167.762244 243.872718 
L 168.213956 245.392203 
L 168.665668 244.929856 
L 169.11738 245.108707 
L 169.569093 245.687159 
L 170.020805 248.269792 
L 170.472517 249.259646 
L 170.924229 248.039983 
L 171.375941 249.458332 
L 171.827653 250.202828 
L 172.279365 249.700031 
L 172.731077 249.798123 
L 173.18279 249.666524 
L 173.634502 251.451252 
L 174.086214 250.24274 
L 174.537926 248.153425 
L 174.989638 250.045836 
L 175.44135 252.48983 
L 175.893062 251.40979 
L 176.344775 255.145207 
L 176.796487 251.854296 
L 177.248199 251.106754 
L 177.699911 252.734873 
L 178.151623 251.523334 
L 178.603335 253.867116 
L 179.055047 254.459352 
L 179.506759 253.090169 
L 179.958472 253.816783 
L 180.410184 255.21795 
L 180.861896 255.53188 
L 181.313608 255.142121 
L 181.76532 256.050073 
L 182.217032 255.741008 
L 183.120457 258.208079 
L 183.572169 257.423715 
L 184.023881 253.56421 
L 184.475593 255.379824 
L 184.927305 256.480062 
L 185.379017 258.412503 
L 185.830729 257.550589 
L 186.282442 255.902679 
L 186.734154 257.776278 
L 187.185866 258.365926 
L 187.637578 259.850944 
L 188.08929 258.253079 
L 188.541002 260.811336 
L 188.992714 260.895768 
L 189.444426 257.537022 
L 189.896139 259.388516 
L 190.347851 259.587135 
L 190.799563 259.147668 
L 191.251275 258.533269 
L 191.702987 259.734539 
L 192.154699 259.616632 
L 192.606411 259.86907 
L 193.058124 262.102743 
L 193.509836 260.049931 
L 193.961548 260.581038 
L 194.41326 260.90199 
L 194.864972 258.903451 
L 195.768396 262.760515 
L 196.220108 258.809466 
L 196.671821 261.375576 
L 197.123533 263.023673 
L 197.575245 262.905227 
L 198.026957 260.345672 
L 198.478669 262.696853 
L 198.930381 261.613723 
L 199.382093 265.342547 
L 199.833806 262.368473 
L 200.285518 263.578903 
L 200.73723 264.161353 
L 201.188942 263.978624 
L 201.640654 264.472926 
L 202.092366 264.626412 
L 202.544078 262.892625 
L 202.99579 266.484573 
L 203.447503 266.052925 
L 203.899215 266.625105 
L 204.350927 265.773726 
L 204.802639 265.591825 
L 205.254351 265.594056 
L 205.706063 265.362749 
L 206.157775 266.458596 
L 206.609488 265.606051 
L 207.0612 263.470002 
L 207.512912 266.579826 
L 207.964624 264.639216 
L 208.416336 266.08915 
L 208.868048 268.564747 
L 209.31976 267.005619 
L 209.771473 264.601951 
L 210.223185 265.724846 
L 210.674897 266.487994 
L 211.126609 266.497222 
L 211.578321 265.541078 
L 212.030033 266.221105 
L 212.481745 269.417818 
L 212.933457 268.234157 
L 213.38517 265.115685 
L 213.836882 269.927431 
L 214.288594 266.724207 
L 214.740306 266.062078 
L 215.192018 268.522408 
L 215.64373 266.723015 
L 216.095442 267.051548 
L 216.547155 266.730328 
L 216.998867 268.421099 
L 217.450579 270.572748 
L 217.902291 271.589334 
L 218.805715 268.849409 
L 219.257427 270.984481 
L 219.709139 269.400871 
L 220.160852 271.384474 
L 220.612564 269.452636 
L 221.064276 268.827208 
L 221.515988 272.480963 
L 221.9677 271.147622 
L 222.419412 271.047393 
L 222.871124 268.378355 
L 223.322837 269.622147 
L 223.774549 269.591746 
L 224.226261 271.366369 
L 224.677973 269.931899 
L 225.129685 270.15503 
L 225.581397 273.332504 
L 226.033109 271.698799 
L 226.484822 273.445348 
L 226.936534 271.348303 
L 227.388246 272.512074 
L 227.839958 270.907156 
L 228.29167 272.311871 
L 228.743382 272.107203 
L 229.195094 274.215146 
L 229.646806 273.524345 
L 230.098519 273.43607 
L 230.550231 273.063653 
L 231.001943 271.675575 
L 231.453655 273.495687 
L 231.905367 272.332713 
L 232.357079 271.484244 
L 232.808791 274.673968 
L 233.260504 273.768221 
L 233.712216 274.868886 
L 234.163928 273.488119 
L 234.61564 274.002788 
L 235.067352 272.365228 
L 235.519064 272.811624 
L 235.970776 274.061137 
L 236.422488 274.52749 
L 236.874201 274.124473 
L 237.325913 273.994008 
L 237.777625 272.475291 
L 238.681049 275.622768 
L 239.132761 274.919622 
L 239.584473 273.607759 
L 240.036186 273.218781 
L 240.487898 272.351521 
L 240.93961 275.866998 
L 241.391322 276.807377 
L 241.843034 275.588778 
L 242.294746 274.71078 
L 242.746458 275.854286 
L 243.19817 274.62618 
L 243.649883 274.547683 
L 244.101595 275.663478 
L 244.553307 276.086203 
L 245.005019 276.147805 
L 245.456731 274.527837 
L 245.908443 274.29967 
L 246.811868 275.174587 
L 247.26358 275.233192 
L 247.715292 275.606796 
L 248.167004 275.269073 
L 248.618716 274.779575 
L 249.070428 274.506872 
L 249.52214 276.401043 
L 249.973853 274.239903 
L 250.425565 273.480349 
L 250.877277 274.747189 
L 251.328989 278.868442 
L 251.780701 276.843364 
L 252.232413 277.908802 
L 252.684125 277.691493 
L 253.135837 277.339269 
L 253.58755 278.305212 
L 254.039262 276.807878 
L 254.490974 274.510719 
L 254.942686 276.389844 
L 255.394398 277.065362 
L 255.84611 275.346325 
L 256.749535 279.275021 
L 257.201247 277.745514 
L 257.652959 278.676061 
L 258.104671 279.010376 
L 258.556383 278.892834 
L 259.008095 279.355727 
L 259.459807 278.599431 
L 259.911519 278.881574 
L 260.363232 276.576079 
L 261.266656 279.726344 
L 262.17008 279.414147 
L 262.621792 281.002762 
L 263.073504 278.119238 
L 263.525217 282.327728 
L 263.976929 279.706275 
L 264.428641 280.775265 
L 264.880353 279.195567 
L 265.332065 280.672893 
L 265.783777 279.959926 
L 266.235489 280.125382 
L 266.687201 279.656143 
L 267.590626 279.371162 
L 268.042338 280.592185 
L 268.49405 281.344095 
L 268.945762 277.484499 
L 269.397474 280.228914 
L 269.849186 280.722248 
L 270.300899 279.269296 
L 270.752611 279.675169 
L 271.204323 281.305953 
L 271.656035 280.355653 
L 272.107747 279.680939 
L 272.559459 280.552077 
L 273.011171 280.768897 
L 273.462884 282.143101 
L 273.914596 280.690237 
L 274.366308 280.031093 
L 274.81802 281.225428 
L 275.269732 280.760073 
L 275.721444 278.583472 
L 276.173156 281.068119 
L 276.624868 280.820581 
L 277.076581 280.236944 
L 277.528293 281.355083 
L 277.980005 281.240891 
L 278.431717 280.893184 
L 278.883429 281.715839 
L 279.335141 280.644964 
L 279.786853 282.987748 
L 280.238566 280.305668 
L 280.690278 282.703304 
L 281.14199 280.438764 
L 281.593702 283.43203 
L 282.497126 280.747141 
L 282.948838 280.531682 
L 283.852263 283.654213 
L 284.303975 281.788671 
L 284.755687 281.964715 
L 285.207399 282.871962 
L 285.659111 281.805737 
L 286.110823 281.795865 
L 286.562535 282.766845 
L 287.014248 280.741082 
L 287.46596 282.254388 
L 287.917672 282.096819 
L 288.369384 284.092335 
L 288.821096 285.054256 
L 289.272808 284.870571 
L 289.72452 282.08056 
L 290.176232 282.222836 
L 290.627945 283.536826 
L 291.079657 282.790504 
L 291.531369 282.677025 
L 291.983081 284.440751 
L 292.434793 282.116953 
L 292.886505 282.972757 
L 293.78993 283.625651 
L 294.241642 283.250163 
L 294.693354 283.337028 
L 295.145066 283.27466 
L 295.596778 285.703551 
L 296.04849 283.407321 
L 296.500202 284.094913 
L 296.951915 283.809516 
L 297.403627 285.349977 
L 297.855339 283.308042 
L 298.307051 285.432649 
L 298.758763 284.208125 
L 299.210475 283.692382 
L 299.662187 285.076017 
L 300.113899 282.135129 
L 301.017324 284.683302 
L 301.469036 284.524704 
L 301.920748 283.733776 
L 302.37246 284.647714 
L 302.824172 282.559771 
L 303.275884 285.911127 
L 303.727597 285.515704 
L 304.179309 284.26796 
L 304.631021 284.046653 
L 305.082733 283.448972 
L 305.534445 285.569234 
L 305.986157 285.037486 
L 306.437869 285.189946 
L 306.889581 283.947008 
L 307.341294 285.878756 
L 307.793006 284.556367 
L 308.244718 285.105656 
L 308.69643 284.442809 
L 309.148142 285.746444 
L 309.599854 286.558884 
L 310.051566 284.635002 
L 310.954991 287.468804 
L 311.406703 287.117108 
L 311.858415 284.0573 
L 312.310127 284.339933 
L 312.761839 286.712284 
L 313.213551 284.32557 
L 313.665263 286.577558 
L 314.116976 287.019783 
L 314.568688 285.730742 
L 315.0204 285.891543 
L 315.472112 285.652458 
L 315.923824 286.33497 
L 316.375536 286.213518 
L 316.827248 284.94489 
L 317.278961 285.810944 
L 318.182385 286.966094 
L 318.634097 286.424593 
L 319.085809 287.087445 
L 319.989233 285.802544 
L 320.440946 285.559957 
L 320.892658 285.540024 
L 321.34437 284.510758 
L 321.796082 287.686838 
L 322.699506 285.379198 
L 323.151218 286.863895 
L 324.054643 285.866973 
L 324.506355 286.276628 
L 325.409779 286.583386 
L 325.861491 287.922605 
L 326.313203 287.635577 
L 326.764915 287.987081 
L 327.216628 286.730052 
L 327.66834 286.147263 
L 328.120052 289.216725 
L 328.571764 286.605163 
L 329.023476 286.731272 
L 329.475188 285.660665 
L 330.378612 288.398299 
L 330.830325 287.086733 
L 331.282037 287.427194 
L 332.185461 287.775533 
L 332.637173 289.061279 
L 333.088885 287.215435 
L 333.540597 288.265289 
L 333.99231 287.741189 
L 334.444022 287.729093 
L 334.895734 288.665516 
L 335.347446 288.848328 
L 335.799158 290.02517 
L 336.25087 287.822482 
L 336.702582 287.682267 
L 337.154295 286.768157 
L 337.606007 288.987171 
L 338.509431 290.522734 
L 338.961143 288.509771 
L 339.412855 287.212367 
L 340.316279 288.469953 
L 340.767992 286.884886 
L 341.219704 289.498914 
L 341.671416 289.993855 
L 342.123128 288.165835 
L 342.57484 288.999016 
L 343.026552 288.165138 
L 343.478264 286.863622 
L 344.381689 290.610871 
L 344.833401 288.911355 
L 345.285113 290.565631 
L 345.736825 290.245542 
L 346.188537 289.106498 
L 346.640249 290.417623 
L 347.091961 290.850745 
L 347.543674 289.173098 
L 347.995386 290.460543 
L 348.447098 289.790457 
L 348.89881 285.87026 
L 349.802234 290.364857 
L 350.253946 288.71043 
L 350.705659 287.899975 
L 351.157371 289.505677 
L 351.609083 288.255919 
L 352.060795 288.136633 
L 352.512507 290.158448 
L 352.964219 288.370806 
L 353.415931 290.251462 
L 354.319356 287.655782 
L 355.22278 290.039808 
L 355.674492 290.420828 
L 356.126204 289.128066 
L 356.577916 291.111206 
L 357.029628 291.281645 
L 357.481341 289.26149 
L 357.933053 290.539737 
L 358.384765 289.549536 
L 358.836477 289.499496 
L 359.288189 289.833678 
L 359.739901 288.91949 
L 360.191613 287.282668 
L 360.643326 291.1846 
L 361.095038 290.769326 
L 361.998462 289.196614 
L 362.450174 291.783121 
L 362.901886 290.503873 
L 363.353598 290.11079 
L 363.80531 290.714546 
L 364.257023 291.661255 
L 364.708735 289.370549 
L 365.612159 290.836258 
L 366.063871 289.993294 
L 366.515583 289.780081 
L 366.967295 292.392152 
L 367.419008 290.372778 
L 367.87072 290.404736 
L 368.322432 292.23573 
L 368.774144 289.050502 
L 369.225856 291.114507 
L 369.677568 292.216462 
L 370.580992 289.514147 
L 371.484417 291.713325 
L 371.936129 290.966328 
L 372.387841 292.993667 
L 372.839553 292.679525 
L 373.291265 291.517075 
L 373.742977 289.80138 
L 374.19469 291.927524 
L 374.646402 293.252851 
L 375.098114 293.326384 
L 375.549826 289.758361 
L 376.001538 290.791759 
L 376.45325 291.253198 
L 376.904962 292.80855 
L 377.356674 289.838772 
L 377.808387 291.443193 
L 378.260099 290.001613 
L 378.711811 290.046768 
L 379.163523 291.392635 
L 379.615235 291.441772 
L 380.066947 292.116281 
L 380.518659 289.852 
L 380.970372 292.770619 
L 381.422084 289.339138 
L 381.873796 291.406962 
L 382.325508 291.945536 
L 382.77722 290.352639 
L 383.228932 290.043264 
L 383.680644 291.098352 
L 384.132357 290.167557 
L 384.584069 291.187688 
L 385.487493 291.666965 
L 386.390917 292.830837 
L 386.842629 290.363405 
L 387.294341 290.873112 
L 387.746054 290.506668 
L 388.197766 290.804102 
L 388.649478 291.972408 
L 389.10119 291.731799 
L 389.552902 291.893864 
L 390.004614 292.224619 
L 390.456326 291.672748 
L 390.908039 292.015 
L 391.359751 292.791357 
L 391.811463 292.483817 
L 392.263175 293.138819 
L 392.714887 292.808831 
L 393.166599 291.309989 
L 393.618311 291.518219 
L 394.070023 293.092223 
L 394.521736 291.798251 
L 395.42516 292.914076 
L 395.876872 291.993823 
L 396.328584 293.642475 
L 396.780296 292.584994 
L 397.232008 292.128384 
L 397.683721 293.389862 
L 398.587145 291.389489 
L 399.490569 293.679266 
L 399.942281 291.664117 
L 400.393993 292.733509 
L 400.845705 291.659245 
L 401.297418 293.249881 
L 401.74913 294.008189 
L 402.200842 293.319077 
L 402.652554 291.038244 
L 403.104266 292.843916 
L 403.555978 293.813741 
L 404.00769 290.834132 
L 404.459403 292.901771 
L 404.911115 292.723557 
L 405.362827 291.594088 
L 405.814539 293.269639 
L 406.266251 294.274456 
L 406.717963 292.394282 
L 407.169675 292.214328 
L 407.621388 293.101914 
L 408.0731 291.411479 
L 408.524812 293.144828 
L 408.976524 291.403797 
L 409.428236 293.379103 
L 409.879948 293.648941 
L 410.33166 293.350537 
L 410.783372 292.764143 
L 411.235085 293.141673 
L 411.686797 292.817842 
L 412.590221 293.688784 
L 413.041933 294.258503 
L 413.493645 293.909873 
L 413.945357 294.642412 
L 414.39707 293.185361 
L 414.848782 292.297002 
L 415.300494 293.919374 
L 415.752206 293.147969 
L 416.203918 291.165563 
L 416.65563 293.876513 
L 417.107342 293.153386 
L 417.559054 291.899509 
L 418.010767 294.377964 
L 418.462479 294.190945 
L 418.914191 295.15254 
L 419.365903 294.709202 
L 419.817615 296.255603 
L 420.269327 293.49199 
L 420.721039 294.008712 
L 421.172752 292.812357 
L 421.624464 293.298008 
L 422.076176 293.407605 
L 422.527888 293.152584 
L 422.9796 294.735046 
L 423.431312 295.043011 
L 423.883024 294.315637 
L 424.334737 295.564269 
L 424.786449 292.85003 
L 425.689873 295.132638 
L 426.141585 293.567638 
L 426.593297 294.057792 
L 427.045009 296.529355 
L 427.496721 296.290783 
L 427.948434 293.861888 
L 428.400146 293.243494 
L 428.851858 293.322155 
L 429.30357 293.007531 
L 429.755282 294.454249 
L 430.206994 295.047806 
L 430.658706 294.999308 
L 431.110419 296.698661 
L 431.562131 291.441407 
L 432.013843 293.939862 
L 432.917267 295.39332 
L 433.368979 292.622341 
L 433.820691 294.424395 
L 434.272403 293.908723 
L 434.724116 293.964897 
L 435.175828 295.067855 
L 435.62754 293.793388 
L 436.079252 294.504338 
L 436.530964 294.859857 
L 436.982676 295.412472 
L 437.434388 297.575636 
L 437.886101 295.828614 
L 438.337813 296.231491 
L 438.789525 295.588282 
L 439.241237 294.650639 
L 439.692949 295.274987 
L 440.144661 295.667343 
L 440.596373 294.652095 
L 441.048085 296.245812 
L 441.499798 294.845459 
L 441.95151 294.80565 
L 442.403222 294.493129 
L 442.854934 294.386776 
L 443.306646 292.846646 
L 443.758358 293.939768 
L 444.21007 296.79909 
L 444.661783 293.627713 
L 445.113495 295.695523 
L 445.565207 296.510971 
L 446.016919 294.730652 
L 446.468631 296.086955 
L 447.372055 294.844827 
L 447.823768 295.897002 
L 448.27548 293.995778 
L 448.727192 295.26106 
L 449.178904 295.726731 
L 449.630616 293.884042 
L 450.082328 295.657177 
L 450.53404 296.008583 
L 450.985752 295.977764 
L 451.437465 295.208371 
L 451.889177 296.1356 
L 452.340889 294.524717 
L 452.792601 297.314518 
L 453.244313 297.828363 
L 453.696025 294.32576 
L 454.147737 294.20901 
L 454.59945 295.164585 
L 455.051162 298.003347 
L 455.502874 295.905288 
L 455.954586 296.088066 
L 456.406298 295.136688 
L 456.85801 295.576476 
L 457.309722 295.413646 
L 457.761434 296.57241 
L 458.213147 296.038321 
L 458.664859 297.205741 
L 459.116571 296.101629 
L 459.568283 294.342787 
L 460.019995 295.490281 
L 460.471707 297.398063 
L 460.923419 295.410352 
L 461.375132 295.38828 
L 461.826844 294.197157 
L 462.278556 295.233769 
L 462.730268 295.594207 
L 463.18198 297.867656 
L 463.633692 294.700518 
L 464.085404 297.226704 
L 464.537116 295.733951 
L 464.988829 293.599591 
L 465.440541 295.69368 
L 465.892253 297.225487 
L 466.343965 295.400324 
L 466.795677 294.666654 
L 467.247389 295.675757 
L 467.699101 296.289133 
L 468.150814 294.515952 
L 468.602526 295.566197 
L 469.054238 294.136663 
L 469.50595 295.091047 
L 469.957662 297.612734 
L 470.409374 295.097083 
L 470.861086 296.120866 
L 471.312799 294.997127 
L 471.764511 297.890122 
L 472.216223 297.010577 
L 472.667935 297.76448 
L 473.571359 295.239011 
L 474.023071 296.38812 
L 474.474783 296.096626 
L 474.926496 295.552527 
L 475.378208 297.003127 
L 475.82992 296.7393 
L 476.281632 296.031463 
L 476.733344 296.728998 
L 477.185056 295.958112 
L 477.636768 296.757625 
L 478.088481 296.488594 
L 478.540193 297.327513 
L 478.991905 296.776798 
L 479.443617 297.932064 
L 479.895329 295.170221 
L 480.798753 297.541751 
L 481.250465 296.445577 
L 481.702178 296.817155 
L 482.15389 295.280384 
L 482.605602 294.582657 
L 483.057314 298.71125 
L 483.509026 297.217691 
L 483.960738 296.470066 
L 484.41245 295.079163 
L 484.864163 295.516507 
L 485.315875 295.047587 
L 485.767587 296.377091 
L 486.219299 296.900678 
L 486.671011 295.479945 
L 487.122723 297.577853 
L 487.574435 295.550639 
L 488.026147 294.524699 
L 488.47786 295.505381 
L 488.929572 296.85001 
L 489.381284 297.558845 
L 489.832996 298.997109 
L 490.284708 298.288787 
L 490.73642 297.983513 
L 491.639845 294.696255 
L 492.091557 297.9303 
L 492.543269 295.294434 
L 492.994981 297.209746 
L 493.446693 296.431706 
L 493.898405 297.609078 
L 494.350117 297.880552 
L 494.80183 295.891948 
L 495.253542 296.717186 
L 495.705254 298.110871 
L 496.156966 296.884053 
L 496.608678 296.997889 
L 497.06039 297.297985 
L 497.512102 296.288556 
L 497.963814 297.641958 
L 498.415527 295.903916 
L 498.867239 298.087626 
L 499.318951 297.727898 
L 499.770663 299.045076 
L 500.222375 298.175784 
L 500.674087 299.136256 
L 501.125799 297.20606 
L 501.577512 296.385653 
L 502.029224 297.22615 
L 502.480936 295.628721 
L 502.932648 296.579508 
L 503.38436 295.59512 
L 503.836072 297.639731 
L 504.287784 296.973594 
L 504.739496 297.997987 
L 505.191209 300.017499 
L 506.094633 296.946532 
L 506.546345 296.151555 
L 506.998057 298.508136 
L 507.449769 297.242594 
L 507.901481 296.739901 
L 508.353194 299.737224 
L 508.804906 297.937643 
L 509.256618 297.262955 
L 510.160042 299.985622 
L 510.611754 296.928216 
L 511.063466 298.466955 
L 511.515178 298.958321 
L 511.966891 295.836649 
L 512.418603 298.692058 
L 512.870315 298.215141 
L 513.322027 298.075751 
L 513.773739 298.981471 
L 514.225451 296.605055 
L 514.677163 298.714605 
L 515.128876 297.952527 
L 515.580588 296.82415 
L 516.0323 296.565349 
L 516.484012 299.318917 
L 516.935724 296.644779 
L 517.387436 298.866856 
L 517.839148 296.264665 
L 518.290861 298.931712 
L 518.742573 297.353378 
L 519.194285 298.058677 
L 519.645997 299.124795 
L 520.097709 299.65856 
L 520.549421 298.03543 
L 521.001133 298.093293 
L 521.452845 296.4023 
L 521.904558 296.700918 
L 522.35627 298.39817 
L 522.807982 298.518871 
L 523.259694 298.124721 
L 523.711406 298.088785 
L 524.163118 298.326035 
L 524.61483 298.246822 
L 525.066543 298.489556 
L 525.518255 297.063503 
L 525.969967 297.715261 
L 526.421679 298.657213 
L 526.873391 296.390529 
L 527.325103 299.056053 
L 527.776815 297.523995 
L 528.228527 298.034138 
L 528.68024 298.069308 
L 529.131952 298.339124 
L 529.583664 300.970703 
L 530.035376 297.83505 
L 530.487088 297.828559 
L 530.9388 296.724589 
L 531.390512 298.122268 
L 531.842225 296.779883 
L 532.293937 296.823774 
L 532.745649 298.429675 
L 533.197361 298.616835 
L 533.649073 299.869464 
L 534.552497 298.54732 
L 535.00421 298.599745 
L 535.455922 299.306181 
L 535.907634 299.289676 
L 536.359346 297.611035 
L 536.811058 298.487368 
L 537.26277 299.090139 
L 537.714482 300.323613 
L 538.166194 297.745043 
L 538.617907 298.668338 
L 539.069619 296.573233 
L 539.521331 299.170518 
L 539.973043 297.579291 
L 540.424755 298.092917 
L 540.876467 299.351496 
L 541.328179 296.710353 
L 541.779892 298.102373 
L 542.231604 298.046023 
L 542.683316 299.512297 
L 543.135028 298.453679 
L 543.58674 300.707696 
L 544.038452 299.867391 
L 544.490164 298.082454 
L 545.393589 300.464578 
L 546.297013 297.563108 
L 546.748725 301.495251 
L 547.200437 301.012598 
L 547.652149 299.418666 
L 548.103861 299.504914 
L 548.555574 299.003387 
L 549.007286 299.741948 
L 549.458998 300.011588 
L 549.91071 301.265018 
L 550.362422 297.656697 
L 551.265846 299.727033 
L 551.717558 298.808507 
L 552.169271 300.440945 
L 552.620983 298.089716 
L 553.072695 298.761388 
L 553.524407 298.690546 
L 553.976119 298.859289 
L 554.427831 297.888275 
L 554.879543 299.828658 
L 555.331256 298.386607 
L 555.782968 299.156733 
L 556.23468 299.497479 
L 556.686392 300.212633 
L 557.138104 297.440095 
L 557.589816 299.47612 
L 558.041528 299.208907 
L 558.493241 300.51499 
L 558.944953 299.283592 
L 559.396665 299.52854 
L 559.848377 299.422618 
L 560.300089 300.071913 
L 560.751801 298.338208 
L 561.203513 298.437567 
L 561.655225 300.07347 
L 562.106938 297.807186 
L 562.55865 298.315065 
L 563.010362 298.33865 
L 563.462074 299.278734 
L 563.913786 299.30114 
L 564.365498 298.711244 
L 564.81721 299.486288 
L 565.268923 299.28874 
L 565.720635 299.709216 
L 566.172347 298.783516 
L 566.624059 300.643443 
L 567.075771 298.465952 
L 567.527483 298.892467 
L 567.979195 298.21205 
L 568.88262 300.002979 
L 569.334332 301.670279 
L 569.786044 299.741658 
L 570.237756 299.737573 
L 570.689468 298.003978 
L 571.14118 299.16017 
L 571.592892 301.055675 
L 572.044605 298.839118 
L 572.496317 298.060977 
L 572.948029 300.303631 
L 573.399741 298.111209 
L 573.851453 300.477053 
L 574.303165 299.763069 
L 574.754877 300.201509 
L 575.206589 299.234582 
L 575.658302 299.182448 
L 576.110014 300.111056 
L 576.561726 301.373179 
L 577.013438 300.360261 
L 577.46515 301.56272 
L 577.916862 299.615228 
L 578.368574 299.287486 
L 578.820287 300.690774 
L 579.271999 299.515073 
L 579.723711 299.273754 
L 580.175423 298.505882 
L 580.627135 300.307406 
L 581.078847 299.850354 
L 581.530559 301.00065 
L 581.982272 299.223451 
L 582.433984 299.212447 
L 582.885696 297.789039 
L 583.337408 299.854967 
L 583.78912 298.624805 
L 584.240832 299.794244 
L 584.692544 298.432461 
L 585.144256 300.691678 
L 585.595969 300.835807 
L 586.047681 299.979003 
L 586.499393 300.330653 
L 586.951105 300.418036 
L 587.402817 300.126699 
L 588.306241 300.945514 
L 588.757954 299.961369 
L 589.209666 300.182089 
L 590.11309 302.095566 
L 590.564802 299.962554 
L 591.016514 300.246146 
L 591.468226 302.27941 
L 591.919938 300.593638 
L 592.371651 300.58998 
L 592.823363 300.064706 
L 593.275075 298.633609 
L 593.726787 301.005206 
L 594.178499 299.515298 
L 594.630211 300.958183 
L 595.081923 300.854242 
L 595.533636 300.3726 
L 595.985348 299.142089 
L 596.43706 299.580813 
L 596.888772 299.473446 
L 597.340484 301.547367 
L 597.792196 301.85814 
L 598.243908 298.657626 
L 598.69562 299.241997 
L 599.147333 301.62546 
L 599.599045 300.957396 
L 600.050757 297.842075 
L 600.502469 301.575398 
L 600.954181 301.09527 
L 601.405893 300.998833 
L 601.857605 299.199277 
L 602.309318 299.772172 
L 602.76103 300.020814 
L 603.212742 301.197972 
L 603.664454 301.340657 
L 604.116166 299.252662 
L 604.567878 301.331228 
L 605.01959 298.956475 
L 605.471303 300.290871 
L 605.923015 298.930534 
L 606.374727 299.682371 
L 606.826439 298.813875 
L 607.278151 300.625306 
L 607.729863 299.831456 
L 608.181575 299.786115 
L 608.633287 299.359661 
L 609.085 300.942163 
L 609.536712 299.161494 
L 609.988424 299.850747 
L 610.440136 301.845484 
L 610.891848 300.053921 
L 611.34356 299.795577 
L 611.795272 299.993532 
L 612.246985 299.508985 
L 612.698697 299.85357 
L 614.505545 302.247369 
L 614.957257 299.961183 
L 615.408969 300.964286 
L 615.860682 301.114613 
L 616.312394 299.910043 
L 617.215818 301.80017 
L 617.66753 302.170158 
L 618.119242 299.260825 
L 618.570954 300.68904 
L 619.022667 302.645455 
L 619.474379 301.864642 
L 619.926091 301.506282 
L 620.377803 300.439125 
L 620.829515 300.280137 
L 621.281227 300.271744 
L 621.732939 300.78285 
L 622.184652 301.854122 
L 622.636364 302.515342 
L 622.636364 302.515342 
" style="fill:none;stroke:#1f77b4;stroke-linecap:square;stroke-width:0.5;"/>
   </g>
   <g id="line2d_30">
    <path clip-path="url(#p341feba723)" d="M 115.363636 63.42574 
L 115.815348 69.973041 
L 116.718773 79.371875 
L 117.170485 81.069273 
L 117.622197 80.296161 
L 118.073909 86.556899 
L 118.525621 84.544666 
L 118.977333 89.54894 
L 119.429046 90.269628 
L 119.880758 87.389321 
L 120.33247 88.265742 
L 120.784182 90.631464 
L 121.235894 90.22931 
L 121.687606 90.763639 
L 122.139318 92.489516 
L 122.591031 92.797 
L 123.042743 95.082689 
L 123.494455 96.489169 
L 123.946167 94.478806 
L 124.397879 97.977493 
L 124.849591 96.645485 
L 125.301303 98.657483 
L 125.753015 101.28298 
L 126.204728 102.635954 
L 126.65644 104.357346 
L 127.108152 104.398558 
L 128.011576 108.21558 
L 128.463288 112.506701 
L 128.915 115.452734 
L 129.366713 115.816593 
L 131.625273 136.323507 
L 132.076985 137.261031 
L 132.98041 146.148623 
L 133.432122 150.084277 
L 133.883834 152.643971 
L 134.335546 157.382744 
L 134.787258 158.311872 
L 135.23897 161.407066 
L 136.142395 170.751576 
L 136.594107 170.148207 
L 137.045819 174.488462 
L 137.497531 174.997943 
L 137.949243 177.353164 
L 138.852667 182.682574 
L 139.30438 183.426904 
L 139.756092 187.435574 
L 140.207804 189.515095 
L 140.659516 190.275477 
L 141.56294 194.786169 
L 142.014652 194.876472 
L 142.466364 198.748599 
L 142.918077 197.830721 
L 143.369789 199.310294 
L 143.821501 202.201337 
L 144.273213 203.205369 
L 144.724925 203.837179 
L 145.176637 207.711195 
L 145.628349 206.153973 
L 146.080062 209.703622 
L 146.531774 212.289923 
L 146.983486 211.317619 
L 147.435198 211.414206 
L 147.88691 213.543678 
L 148.338622 213.501744 
L 148.790334 216.595665 
L 149.242046 217.778846 
L 149.693759 216.462472 
L 150.145471 217.902897 
L 150.597183 220.393807 
L 151.048895 219.359654 
L 151.500607 221.608744 
L 151.952319 220.815277 
L 152.404031 222.320222 
L 152.855744 221.969122 
L 153.307456 223.323259 
L 153.759168 225.109623 
L 154.21088 224.720907 
L 154.662592 227.077768 
L 155.114304 224.319323 
L 155.566016 226.399206 
L 156.469441 228.104874 
L 156.921153 227.741084 
L 157.372865 229.016837 
L 157.824577 228.431152 
L 158.276289 229.154551 
L 158.728001 230.328619 
L 159.179713 232.19583 
L 159.631426 231.593615 
L 160.083138 234.664051 
L 160.53485 232.946352 
L 160.986562 235.711903 
L 161.438274 233.350889 
L 161.889986 233.767601 
L 162.341698 234.872485 
L 162.793411 232.497573 
L 163.245123 234.397767 
L 163.696835 234.837741 
L 164.148547 237.022552 
L 164.600259 236.390783 
L 165.051971 236.404956 
L 165.503683 236.031315 
L 165.955395 237.258071 
L 166.407108 235.436615 
L 167.310532 239.868591 
L 167.762244 235.437688 
L 168.213956 241.838368 
L 168.665668 236.768241 
L 169.11738 239.100206 
L 169.569093 239.61265 
L 170.020805 238.60479 
L 170.472517 239.640679 
L 170.924229 244.692892 
L 171.375941 241.135372 
L 171.827653 241.226577 
L 172.279365 243.288825 
L 172.731077 240.882889 
L 173.18279 244.11809 
L 173.634502 241.329326 
L 174.086214 241.38759 
L 174.537926 240.264753 
L 174.989638 244.679177 
L 175.44135 244.167725 
L 175.893062 243.01862 
L 176.344775 245.937648 
L 176.796487 244.637662 
L 177.248199 244.893167 
L 177.699911 244.396781 
L 178.151623 246.725659 
L 178.603335 243.600274 
L 179.055047 245.613112 
L 179.506759 246.627541 
L 179.958472 246.964827 
L 180.410184 244.238063 
L 180.861896 246.325046 
L 181.313608 246.720613 
L 181.76532 244.958519 
L 182.217032 245.54202 
L 182.668744 245.230075 
L 183.120457 247.237868 
L 183.572169 247.819759 
L 184.023881 246.980306 
L 184.475593 250.016956 
L 184.927305 248.391351 
L 186.282442 249.894544 
L 186.734154 250.878787 
L 187.185866 250.436401 
L 187.637578 247.810392 
L 188.08929 248.882344 
L 188.541002 249.64968 
L 188.992714 247.809425 
L 189.444426 249.164091 
L 189.896139 248.053406 
L 190.347851 252.196268 
L 190.799563 250.05198 
L 191.251275 253.827761 
L 191.702987 252.490432 
L 192.154699 250.650275 
L 192.606411 253.615142 
L 193.058124 251.530799 
L 193.509836 252.931424 
L 193.961548 250.940564 
L 194.41326 252.646231 
L 194.864972 251.025206 
L 195.316684 253.147728 
L 195.768396 253.996656 
L 196.220108 254.145028 
L 196.671821 251.542226 
L 197.123533 253.41008 
L 197.575245 250.446322 
L 198.026957 254.921624 
L 198.478669 254.80259 
L 198.930381 254.452063 
L 199.382093 251.316609 
L 200.285518 252.346207 
L 200.73723 251.097701 
L 201.188942 251.677862 
L 201.640654 254.388484 
L 202.092366 253.727015 
L 202.544078 255.216434 
L 202.99579 253.46388 
L 203.447503 254.500792 
L 203.899215 252.660497 
L 204.350927 251.653474 
L 204.802639 255.436522 
L 205.254351 254.033026 
L 205.706063 253.504105 
L 206.157775 255.653713 
L 206.609488 254.932512 
L 207.0612 253.684136 
L 207.512912 256.62698 
L 207.964624 258.09503 
L 208.416336 254.878051 
L 208.868048 255.043837 
L 209.31976 254.880059 
L 209.771473 256.417119 
L 210.223185 255.561255 
L 210.674897 254.454626 
L 211.126609 256.832059 
L 211.578321 252.810771 
L 212.030033 256.852891 
L 212.933457 254.827338 
L 213.38517 256.625223 
L 213.836882 258.994224 
L 214.288594 256.541172 
L 214.740306 255.813599 
L 215.192018 256.479313 
L 215.64373 256.552121 
L 216.095442 256.929526 
L 216.998867 256.922182 
L 217.450579 257.632531 
L 217.902291 258.97448 
L 218.354003 255.844867 
L 218.805715 255.705698 
L 219.709139 259.369505 
L 220.160852 257.349731 
L 220.612564 259.87768 
L 221.064276 256.345195 
L 221.515988 258.53119 
L 221.9677 257.37443 
L 222.871124 258.623942 
L 223.322837 258.210056 
L 223.774549 256.499209 
L 224.226261 258.934991 
L 224.677973 258.783484 
L 225.581397 256.966162 
L 226.033109 259.447278 
L 226.484822 259.341066 
L 226.936534 257.263875 
L 227.388246 259.767092 
L 227.839958 258.969287 
L 228.29167 259.798642 
L 228.743382 259.302487 
L 229.195094 260.262663 
L 229.646806 258.967643 
L 230.550231 260.854914 
L 231.001943 259.90873 
L 231.453655 260.235021 
L 231.905367 260.104896 
L 232.357079 259.597555 
L 232.808791 261.456375 
L 233.260504 260.797746 
L 233.712216 260.901003 
L 234.163928 258.958783 
L 234.61564 258.366176 
L 235.067352 259.525284 
L 235.519064 256.598147 
L 235.970776 258.877766 
L 236.422488 259.372821 
L 236.874201 258.372497 
L 237.325913 260.837506 
L 237.777625 260.003526 
L 238.229337 263.459384 
L 238.681049 259.382296 
L 239.132761 262.182168 
L 239.584473 262.596556 
L 240.036186 261.529748 
L 240.487898 259.312657 
L 240.93961 260.171897 
L 241.391322 260.496195 
L 241.843034 261.710782 
L 242.294746 261.457652 
L 242.746458 260.838634 
L 243.19817 262.386066 
L 243.649883 262.329757 
L 244.101595 259.175062 
L 244.553307 262.978201 
L 245.005019 260.842936 
L 245.456731 263.038095 
L 245.908443 260.136652 
L 246.360155 261.85248 
L 246.811868 260.345493 
L 247.26358 263.706744 
L 247.715292 262.899107 
L 248.167004 262.997404 
L 248.618716 262.422565 
L 249.070428 262.355155 
L 249.52214 260.61998 
L 249.973853 263.193299 
L 250.425565 262.58894 
L 250.877277 260.706163 
L 251.328989 263.6257 
L 251.780701 264.856442 
L 252.232413 262.89657 
L 252.684125 262.892277 
L 253.135837 261.118418 
L 253.58755 262.554575 
L 254.039262 262.243293 
L 254.490974 262.113202 
L 254.942686 260.512555 
L 255.394398 263.000483 
L 255.84611 262.862454 
L 256.297822 263.618937 
L 256.749535 264.068481 
L 257.201247 261.359938 
L 257.652959 262.397785 
L 258.104671 262.473344 
L 258.556383 262.274327 
L 259.008095 259.588184 
L 259.459807 261.614046 
L 259.911519 265.404337 
L 260.363232 261.8745 
L 260.814944 263.864497 
L 261.266656 262.65517 
L 261.718368 262.341612 
L 262.621792 261.178934 
L 263.073504 263.438945 
L 263.525217 261.82327 
L 263.976929 263.506552 
L 264.428641 262.808603 
L 264.880353 262.360096 
L 265.332065 262.848367 
L 265.783777 263.05446 
L 266.235489 262.510343 
L 266.687201 260.543441 
L 267.138914 265.097692 
L 267.590626 263.729732 
L 268.042338 264.803082 
L 268.49405 262.696342 
L 268.945762 262.276282 
L 269.397474 261.68276 
L 269.849186 260.626224 
L 270.300899 264.284008 
L 270.752611 264.015713 
L 271.204323 264.370581 
L 271.656035 263.555031 
L 272.107747 260.802242 
L 272.559459 263.810268 
L 273.011171 264.891904 
L 273.462884 264.481997 
L 273.914596 262.638856 
L 274.366308 263.862966 
L 274.81802 263.041938 
L 275.269732 263.619768 
L 275.721444 262.451235 
L 276.173156 264.061504 
L 276.624868 264.185108 
L 277.076581 262.139378 
L 277.528293 264.742302 
L 277.980005 264.983457 
L 278.431717 264.506817 
L 278.883429 263.000488 
L 279.335141 265.280673 
L 279.786853 262.603612 
L 280.238566 262.096335 
L 280.690278 262.940639 
L 281.14199 264.867556 
L 281.593702 265.509972 
L 282.045414 262.415001 
L 282.497126 263.162803 
L 282.948838 264.660612 
L 283.40055 264.740392 
L 283.852263 264.302103 
L 284.303975 266.255943 
L 284.755687 261.983091 
L 285.207399 265.617887 
L 285.659111 264.71578 
L 286.110823 264.371938 
L 286.562535 265.896353 
L 287.014248 264.570848 
L 287.46596 265.074908 
L 287.917672 264.20643 
L 288.369384 264.177589 
L 288.821096 264.675062 
L 289.272808 265.703627 
L 289.72452 264.138215 
L 290.176232 264.37921 
L 290.627945 265.145839 
L 291.079657 263.308867 
L 291.531369 263.267906 
L 291.983081 265.453552 
L 292.434793 265.232672 
L 292.886505 266.025525 
L 293.338217 263.889118 
L 293.78993 266.676627 
L 294.241642 264.687416 
L 294.693354 262.14387 
L 295.145066 266.204058 
L 295.596778 264.046278 
L 296.500202 266.401236 
L 296.951915 263.836054 
L 297.403627 263.985224 
L 297.855339 265.834701 
L 298.307051 265.041301 
L 298.758763 264.594552 
L 299.210475 264.432523 
L 299.662187 266.175414 
L 300.113899 264.324752 
L 300.565612 267.59345 
L 301.017324 265.634275 
L 301.469036 262.458967 
L 301.920748 265.86469 
L 302.37246 265.719278 
L 302.824172 267.394821 
L 303.275884 265.166935 
L 303.727597 266.232165 
L 304.179309 262.456751 
L 304.631021 265.299066 
L 305.534445 264.509253 
L 305.986157 265.497344 
L 306.437869 267.895083 
L 306.889581 265.024483 
L 307.341294 266.780823 
L 307.793006 266.592917 
L 308.244718 266.896596 
L 308.69643 265.014283 
L 309.148142 265.791526 
L 309.599854 264.042171 
L 310.051566 265.662589 
L 310.503279 265.985077 
L 310.954991 268.976046 
L 311.406703 267.359267 
L 311.858415 264.930883 
L 312.310127 266.560966 
L 312.761839 266.879081 
L 313.213551 264.21844 
L 313.665263 266.301758 
L 314.116976 266.574186 
L 314.568688 269.5186 
L 315.0204 266.49993 
L 315.472112 266.361378 
L 315.923824 268.093496 
L 316.375536 266.357076 
L 316.827248 266.285968 
L 317.278961 268.194658 
L 317.730673 263.978083 
L 318.182385 265.728462 
L 318.634097 268.735885 
L 319.085809 264.161785 
L 319.537521 265.882408 
L 319.989233 264.86155 
L 320.440946 269.237704 
L 320.892658 266.225677 
L 321.796082 267.819585 
L 322.247794 267.170168 
L 322.699506 267.678253 
L 323.151218 266.362424 
L 323.60293 268.742764 
L 324.054643 267.686886 
L 324.506355 267.228138 
L 324.958067 270.181003 
L 325.409779 265.688547 
L 325.861491 267.539787 
L 326.313203 265.875046 
L 326.764915 266.672958 
L 327.216628 266.122894 
L 327.66834 267.433292 
L 328.120052 265.917593 
L 328.571764 265.943162 
L 329.023476 265.161178 
L 329.475188 266.132189 
L 329.9269 268.443522 
L 330.830325 262.900707 
L 331.282037 267.10245 
L 331.733749 269.013349 
L 332.185461 270.123325 
L 332.637173 266.997875 
L 333.088885 268.586015 
L 333.540597 267.261209 
L 333.99231 266.891122 
L 334.444022 267.170185 
L 334.895734 264.462684 
L 335.347446 266.406383 
L 335.799158 266.667876 
L 336.25087 266.573329 
L 336.702582 267.462025 
L 337.154295 266.765302 
L 337.606007 266.401036 
L 338.057719 267.98034 
L 338.509431 268.26839 
L 338.961143 268.093283 
L 339.412855 268.937012 
L 339.864567 269.050657 
L 340.316279 264.771475 
L 340.767992 265.690834 
L 341.219704 269.240475 
L 341.671416 262.966593 
L 342.123128 266.93056 
L 342.57484 267.585435 
L 343.026552 266.150291 
L 343.478264 266.834808 
L 344.381689 268.975509 
L 344.833401 270.698318 
L 345.285113 267.07535 
L 345.736825 268.58027 
L 346.188537 266.361839 
L 346.640249 267.887125 
L 347.091961 267.365053 
L 347.543674 267.346696 
L 347.995386 267.182734 
L 348.447098 265.63887 
L 348.89881 265.958701 
L 349.350522 265.985652 
L 349.802234 267.88968 
L 350.253946 263.790386 
L 350.705659 267.561212 
L 351.157371 266.05596 
L 351.609083 267.654348 
L 352.060795 268.699312 
L 352.512507 265.05615 
L 352.964219 265.121791 
L 353.415931 265.871178 
L 353.867643 267.074525 
L 354.319356 264.517732 
L 354.771068 266.429703 
L 355.22278 266.221043 
L 355.674492 267.889653 
L 356.126204 268.148558 
L 356.577916 268.802144 
L 357.029628 267.484712 
L 357.481341 265.604358 
L 357.933053 267.660164 
L 358.384765 265.900375 
L 358.836477 267.641883 
L 359.288189 265.758714 
L 359.739901 268.187998 
L 360.191613 267.548049 
L 360.643326 267.44949 
L 361.095038 269.486834 
L 361.54675 267.548268 
L 361.998462 264.938554 
L 362.450174 266.752735 
L 362.901886 267.615625 
L 363.353598 266.756351 
L 363.80531 267.801859 
L 364.257023 266.286721 
L 364.708735 269.802892 
L 365.160447 262.903877 
L 365.612159 267.961301 
L 366.063871 265.620038 
L 366.967295 267.55841 
L 367.419008 267.704056 
L 367.87072 265.592786 
L 368.322432 269.167608 
L 369.225856 265.70908 
L 369.677568 265.197317 
L 370.12928 269.45068 
L 370.580992 266.893843 
L 371.032705 265.841259 
L 371.484417 268.030077 
L 371.936129 266.482939 
L 372.387841 266.338601 
L 372.839553 268.678436 
L 373.291265 268.344209 
L 373.742977 266.439816 
L 374.19469 268.036623 
L 374.646402 267.571457 
L 375.098114 266.137927 
L 375.549826 266.472058 
L 376.001538 267.059447 
L 376.45325 265.687911 
L 376.904962 268.147842 
L 377.356674 267.245077 
L 377.808387 265.461269 
L 378.260099 268.657582 
L 378.711811 267.485104 
L 379.163523 265.854298 
L 379.615235 267.376848 
L 380.066947 263.394024 
L 380.518659 266.657771 
L 380.970372 265.303969 
L 381.422084 267.998578 
L 381.873796 268.149866 
L 382.325508 263.074503 
L 383.228932 268.798494 
L 383.680644 264.964074 
L 384.132357 268.645296 
L 384.584069 267.752081 
L 385.035781 267.691914 
L 385.487493 270.373509 
L 386.390917 266.934021 
L 386.842629 265.892665 
L 387.294341 269.023406 
L 387.746054 267.060061 
L 388.197766 267.1477 
L 388.649478 266.237279 
L 389.10119 268.18441 
L 389.552902 271.504661 
L 390.004614 269.216439 
L 390.456326 268.588273 
L 390.908039 264.153849 
L 391.359751 269.587608 
L 391.811463 265.220081 
L 392.263175 269.910799 
L 392.714887 266.630027 
L 393.166599 266.278031 
L 393.618311 268.100835 
L 394.070023 266.360238 
L 394.521736 268.271192 
L 394.973448 267.074425 
L 395.42516 269.000955 
L 395.876872 267.521207 
L 396.328584 264.254386 
L 396.780296 267.889243 
L 397.683721 268.830932 
L 398.135433 266.969945 
L 398.587145 267.157878 
L 399.038857 269.868113 
L 399.490569 264.650805 
L 399.942281 266.848462 
L 400.393993 270.030133 
L 400.845705 264.626441 
L 401.297418 267.301338 
L 401.74913 268.61742 
L 402.200842 268.091724 
L 402.652554 269.401223 
L 403.104266 267.807891 
L 403.555978 267.701512 
L 404.00769 266.844927 
L 404.459403 266.914439 
L 404.911115 264.916161 
L 405.814539 268.093197 
L 406.266251 268.852169 
L 406.717963 264.415391 
L 407.169675 268.819648 
L 407.621388 268.429453 
L 408.0731 266.321286 
L 408.524812 268.205433 
L 408.976524 268.438489 
L 409.428236 266.355682 
L 409.879948 265.000433 
L 410.33166 268.345832 
L 410.783372 268.25637 
L 411.235085 267.138202 
L 411.686797 268.447958 
L 412.138509 266.008944 
L 412.590221 270.097957 
L 413.041933 268.495886 
L 413.493645 270.825442 
L 413.945357 271.264247 
L 414.39707 265.008911 
L 414.848782 266.362175 
L 415.300494 269.067043 
L 415.752206 266.338612 
L 416.203918 271.583184 
L 416.65563 268.443465 
L 417.107342 268.577265 
L 417.559054 270.14975 
L 418.010767 269.065928 
L 418.462479 266.379106 
L 418.914191 266.440228 
L 419.365903 269.317987 
L 419.817615 266.866601 
L 420.269327 265.926513 
L 420.721039 270.737016 
L 421.624464 265.585693 
L 422.076176 267.03209 
L 422.527888 266.821746 
L 422.9796 269.752053 
L 423.431312 265.809467 
L 423.883024 266.152112 
L 424.334737 266.971862 
L 424.786449 266.465021 
L 425.238161 266.335391 
L 425.689873 268.065249 
L 426.141585 267.006865 
L 426.593297 267.854431 
L 427.045009 266.151701 
L 427.496721 266.077039 
L 428.400146 269.041619 
L 428.851858 265.428638 
L 429.30357 267.232819 
L 429.755282 265.765395 
L 430.206994 267.395641 
L 430.658706 266.353283 
L 431.110419 268.314511 
L 431.562131 264.333011 
L 432.013843 270.311963 
L 432.917267 269.012386 
L 433.368979 269.285759 
L 433.820691 268.105745 
L 434.272403 268.995928 
L 434.724116 265.819236 
L 435.175828 268.792538 
L 435.62754 268.169869 
L 436.079252 269.362464 
L 436.530964 267.489022 
L 436.982676 269.547609 
L 437.434388 266.18795 
L 437.886101 269.130109 
L 438.337813 271.092394 
L 438.789525 268.662202 
L 439.241237 270.93209 
L 439.692949 269.829347 
L 440.144661 267.251729 
L 440.596373 267.931309 
L 441.048085 269.767255 
L 441.499798 269.120636 
L 441.95151 269.057753 
L 442.403222 265.405359 
L 443.306646 267.806435 
L 443.758358 267.502942 
L 444.21007 267.67603 
L 445.113495 269.352155 
L 445.565207 267.085241 
L 446.016919 269.584684 
L 446.468631 266.360187 
L 446.920343 267.557326 
L 447.372055 271.235282 
L 447.823768 266.116711 
L 448.27548 270.077219 
L 448.727192 265.266458 
L 449.178904 264.775098 
L 450.082328 268.235991 
L 450.53404 266.806763 
L 450.985752 267.751221 
L 451.437465 269.62582 
L 451.889177 270.373889 
L 452.340889 267.449703 
L 452.792601 271.062876 
L 453.244313 269.86789 
L 453.696025 265.557308 
L 454.147737 268.933256 
L 454.59945 264.545794 
L 455.502874 269.42368 
L 455.954586 265.183745 
L 456.406298 268.240065 
L 456.85801 266.713662 
L 457.309722 266.326327 
L 458.213147 268.432835 
L 458.664859 265.571864 
L 459.116571 267.73229 
L 459.568283 267.691934 
L 460.471707 266.098691 
L 460.923419 267.919703 
L 461.375132 266.865938 
L 461.826844 270.954261 
L 462.278556 266.794811 
L 462.730268 269.870504 
L 463.18198 269.554151 
L 463.633692 267.820108 
L 464.085404 267.066216 
L 464.537116 268.860058 
L 464.988829 268.808526 
L 465.440541 270.502271 
L 465.892253 269.8731 
L 466.343965 266.72498 
L 466.795677 267.201728 
L 467.247389 268.929003 
L 467.699101 268.156897 
L 468.150814 265.37564 
L 468.602526 270.581962 
L 469.054238 269.357103 
L 469.50595 270.681145 
L 469.957662 269.363787 
L 470.409374 269.854107 
L 470.861086 267.923807 
L 471.312799 268.369874 
L 471.764511 267.094696 
L 472.216223 267.867462 
L 472.667935 266.518843 
L 473.119647 268.339451 
L 473.571359 268.555581 
L 474.023071 268.133197 
L 474.474783 266.495929 
L 474.926496 268.665911 
L 475.378208 266.137298 
L 475.82992 267.714515 
L 476.281632 269.708082 
L 476.733344 267.152021 
L 477.185056 266.52722 
L 477.636768 266.957972 
L 478.088481 266.070513 
L 478.540193 267.693481 
L 478.991905 268.690379 
L 479.443617 266.555409 
L 479.895329 269.686223 
L 480.347041 268.12619 
L 480.798753 268.395045 
L 481.250465 269.821028 
L 481.702178 265.741823 
L 482.15389 266.979571 
L 483.509026 268.686083 
L 483.960738 267.498863 
L 484.41245 267.620318 
L 484.864163 269.568295 
L 485.315875 269.561491 
L 485.767587 268.596954 
L 486.219299 268.246559 
L 486.671011 270.42972 
L 487.122723 268.571139 
L 487.574435 269.242589 
L 488.026147 265.991846 
L 488.47786 268.408729 
L 488.929572 268.445957 
L 489.381284 268.80452 
L 489.832996 266.566777 
L 490.284708 267.856702 
L 490.73642 268.688037 
L 491.188132 269.15022 
L 491.639845 267.531985 
L 492.091557 267.884246 
L 492.543269 266.746338 
L 492.994981 266.949341 
L 493.446693 265.955914 
L 493.898405 269.131888 
L 494.350117 269.144835 
L 495.253542 264.370388 
L 495.705254 267.439062 
L 496.156966 266.447607 
L 496.608678 267.898765 
L 497.06039 266.149687 
L 497.512102 267.936627 
L 497.963814 266.453198 
L 498.415527 266.329762 
L 498.867239 270.369177 
L 499.318951 266.939187 
L 499.770663 270.315209 
L 500.222375 267.632578 
L 500.674087 270.805161 
L 501.125799 269.465739 
L 501.577512 269.282884 
L 502.029224 269.996476 
L 502.480936 270.324771 
L 502.932648 265.204959 
L 503.38436 270.041502 
L 503.836072 265.064546 
L 504.287784 264.798741 
L 504.739496 264.707691 
L 505.191209 267.199018 
L 505.642921 268.443715 
L 506.094633 266.918457 
L 506.546345 268.124469 
L 506.998057 270.855582 
L 507.449769 264.652859 
L 507.901481 268.257759 
L 508.353194 268.405012 
L 508.804906 264.700519 
L 509.256618 269.488928 
L 509.70833 271.819933 
L 510.160042 267.374116 
L 510.611754 266.831674 
L 511.063466 267.599879 
L 511.515178 267.185172 
L 511.966891 269.443409 
L 512.418603 270.863584 
L 512.870315 265.387048 
L 513.322027 267.406243 
L 513.773739 271.205826 
L 514.225451 268.481297 
L 514.677163 269.032297 
L 515.128876 267.450266 
L 515.580588 269.383921 
L 516.0323 269.024312 
L 516.484012 264.614534 
L 516.935724 266.5482 
L 517.387436 267.90706 
L 517.839148 264.543823 
L 518.290861 269.288277 
L 518.742573 265.852872 
L 519.194285 265.549832 
L 519.645997 267.43954 
L 520.097709 266.634789 
L 520.549421 269.3041 
L 521.001133 269.431384 
L 521.452845 268.336433 
L 521.904558 269.358556 
L 522.35627 268.471834 
L 523.259694 267.415 
L 523.711406 268.052103 
L 524.163118 267.696352 
L 524.61483 267.547934 
L 525.066543 267.71619 
L 525.518255 267.628702 
L 525.969967 269.060052 
L 526.421679 267.120442 
L 526.873391 265.889386 
L 527.325103 267.873739 
L 527.776815 269.028436 
L 528.228527 269.018879 
L 529.131952 268.468476 
L 529.583664 265.820251 
L 530.035376 269.324507 
L 530.487088 268.644825 
L 530.9388 266.918188 
L 531.390512 267.128021 
L 531.842225 269.751734 
L 532.293937 265.963746 
L 532.745649 268.959706 
L 533.197361 267.51555 
L 533.649073 265.343327 
L 534.100785 267.203176 
L 534.552497 267.414871 
L 535.00421 266.398034 
L 535.907634 269.629771 
L 536.359346 265.951757 
L 536.811058 265.309857 
L 537.26277 269.072595 
L 537.714482 268.110907 
L 538.166194 267.49159 
L 538.617907 268.618243 
L 539.069619 268.125117 
L 539.521331 264.073401 
L 539.973043 266.265577 
L 540.424755 266.868149 
L 540.876467 265.67369 
L 541.328179 268.399937 
L 541.779892 261.829067 
L 542.683316 268.448564 
L 543.135028 271.560161 
L 543.58674 270.769472 
L 544.038452 267.084146 
L 544.490164 265.205799 
L 544.941876 268.612352 
L 545.845301 266.478949 
L 546.297013 268.498603 
L 546.748725 268.109757 
L 547.200437 266.441343 
L 547.652149 268.263394 
L 548.103861 269.181311 
L 548.555574 268.26745 
L 549.007286 270.545067 
L 549.458998 267.121908 
L 549.91071 268.692954 
L 550.362422 267.652046 
L 550.814134 270.291568 
L 551.265846 267.516027 
L 551.717558 266.124075 
L 552.169271 267.868569 
L 552.620983 270.816771 
L 553.072695 267.838279 
L 553.524407 265.733262 
L 553.976119 265.935236 
L 554.427831 265.786157 
L 554.879543 266.645162 
L 555.331256 268.337294 
L 555.782968 267.321049 
L 556.23468 264.093842 
L 556.686392 266.43006 
L 557.138104 266.092112 
L 557.589816 265.341625 
L 558.041528 266.312958 
L 558.493241 266.724526 
L 558.944953 265.869368 
L 559.396665 266.775165 
L 559.848377 268.082548 
L 560.300089 266.148987 
L 560.751801 265.804804 
L 561.203513 267.491603 
L 561.655225 265.419391 
L 562.55865 266.670176 
L 563.010362 269.167376 
L 563.462074 268.058939 
L 563.913786 268.243211 
L 564.365498 267.067393 
L 564.81721 268.619389 
L 565.268923 267.343407 
L 565.720635 267.713844 
L 566.624059 267.132126 
L 567.075771 267.594081 
L 567.527483 265.82733 
L 567.979195 268.692896 
L 568.430907 267.193797 
L 568.88262 270.863979 
L 569.334332 267.166651 
L 569.786044 271.281634 
L 570.237756 265.580868 
L 570.689468 265.855927 
L 571.14118 265.029443 
L 571.592892 267.305033 
L 572.044605 268.426337 
L 572.496317 265.875977 
L 572.948029 269.769371 
L 573.399741 264.06356 
L 573.851453 269.217625 
L 574.303165 270.178105 
L 574.754877 269.016633 
L 575.206589 266.884822 
L 575.658302 266.669582 
L 576.110014 268.916783 
L 576.561726 266.879652 
L 577.013438 266.3965 
L 577.916862 269.032864 
L 578.368574 265.665901 
L 578.820287 264.495239 
L 579.271999 269.849306 
L 579.723711 267.641266 
L 580.175423 266.217202 
L 580.627135 268.200465 
L 581.078847 266.767999 
L 581.530559 269.108419 
L 581.982272 265.210165 
L 582.433984 265.713576 
L 582.885696 269.486039 
L 583.337408 265.23882 
L 583.78912 267.896201 
L 584.240832 266.006672 
L 584.692544 265.360221 
L 585.144256 271.35382 
L 585.595969 264.54748 
L 586.047681 261.83469 
L 586.951105 271.015301 
L 587.402817 264.377154 
L 588.306241 266.859296 
L 588.757954 269.016606 
L 589.209666 269.935244 
L 589.661378 269.351542 
L 590.11309 268.316775 
L 590.564802 267.818797 
L 591.016514 265.763189 
L 591.468226 266.719445 
L 591.919938 266.751342 
L 592.371651 271.055164 
L 592.823363 271.063341 
L 593.275075 268.674097 
L 593.726787 271.432859 
L 594.178499 264.342376 
L 594.630211 267.317089 
L 595.081923 266.656934 
L 595.533636 265.531847 
L 596.43706 269.181446 
L 596.888772 264.728001 
L 597.340484 266.274864 
L 597.792196 267.255198 
L 598.243908 267.102678 
L 598.69562 270.616543 
L 599.147333 267.188463 
L 599.599045 267.932224 
L 600.050757 267.561466 
L 600.502469 266.710756 
L 600.954181 270.135657 
L 601.405893 268.725739 
L 601.857605 268.196107 
L 602.309318 264.550428 
L 602.76103 263.785653 
L 603.212742 267.488984 
L 603.664454 268.294494 
L 604.116166 266.137053 
L 604.567878 269.69001 
L 605.01959 266.116836 
L 605.471303 264.934724 
L 606.374727 268.86392 
L 606.826439 268.042845 
L 607.278151 269.028554 
L 607.729863 269.554823 
L 608.181575 265.326241 
L 608.633287 268.603341 
L 609.085 270.873809 
L 609.536712 265.675105 
L 609.988424 266.826161 
L 610.440136 269.12559 
L 610.891848 269.593272 
L 611.34356 269.033249 
L 611.795272 266.716313 
L 612.246985 266.246773 
L 612.698697 268.915772 
L 613.150409 268.702536 
L 613.602121 263.645794 
L 614.053833 264.302558 
L 614.505545 265.333179 
L 614.957257 269.74051 
L 615.408969 269.347357 
L 615.860682 269.621089 
L 616.312394 268.948606 
L 616.764106 268.991938 
L 617.215818 267.290846 
L 617.66753 267.242912 
L 618.119242 267.621191 
L 618.570954 269.964154 
L 619.022667 267.560751 
L 619.474379 271.120625 
L 619.926091 267.157463 
L 620.377803 268.584434 
L 620.829515 267.333925 
L 621.281227 267.431576 
L 621.732939 264.724385 
L 622.184652 270.014715 
L 622.636364 268.5703 
L 622.636364 268.5703 
" style="fill:none;stroke:#ff7f0e;stroke-linecap:square;stroke-width:0.5;"/>
   </g>
   <g id="patch_3">
    <path d="M 90 315 
L 90 43.2 
" style="fill:none;stroke:#000000;stroke-linecap:square;stroke-linejoin:miter;stroke-width:0.8;"/>
   </g>
   <g id="patch_4">
    <path d="M 648 315 
L 648 43.2 
" style="fill:none;stroke:#000000;stroke-linecap:square;stroke-linejoin:miter;stroke-width:0.8;"/>
   </g>
   <g id="patch_5">
    <path d="M 90 315 
L 648 315 
" style="fill:none;stroke:#000000;stroke-linecap:square;stroke-linejoin:miter;stroke-width:0.8;"/>
   </g>
   <g id="patch_6">
    <path d="M 90 43.2 
L 648 43.2 
" style="fill:none;stroke:#000000;stroke-linecap:square;stroke-linejoin:miter;stroke-width:0.8;"/>
   </g>
   <g id="text_17">
    <!-- loss -->
    <g transform="translate(357.410625 37.2)scale(0.12 -0.12)">
     <use xlink:href="#DejaVuSans-108"/>
     <use x="27.783203" xlink:href="#DejaVuSans-111"/>
     <use x="88.964844" xlink:href="#DejaVuSans-115"/>
     <use x="141.064453" xlink:href="#DejaVuSans-115"/>
    </g>
   </g>
   <g id="legend_1">
    <g id="patch_7">
     <path d="M 568.846875 80.55625 
L 641 80.55625 
Q 643 80.55625 643 78.55625 
L 643 50.2 
Q 643 48.2 641 48.2 
L 568.846875 48.2 
Q 566.846875 48.2 566.846875 50.2 
L 566.846875 78.55625 
Q 566.846875 80.55625 568.846875 80.55625 
z
" style="fill:#ffffff;opacity:0.8;stroke:#cccccc;stroke-linejoin:miter;"/>
    </g>
    <g id="line2d_31">
     <path d="M 570.846875 56.298437 
L 590.846875 56.298437 
" style="fill:none;stroke:#1f77b4;stroke-linecap:square;stroke-width:0.5;"/>
    </g>
    <g id="line2d_32"/>
    <g id="text_18">
     <!-- train -->
     <defs>
      <path d="M 18.3125 70.21875 
L 18.3125 54.6875 
L 36.8125 54.6875 
L 36.8125 47.703125 
L 18.3125 47.703125 
L 18.3125 18.015625 
Q 18.3125 11.328125 20.140625 9.421875 
Q 21.96875 7.515625 27.59375 7.515625 
L 36.8125 7.515625 
L 36.8125 0 
L 27.59375 0 
Q 17.1875 0 13.234375 3.875 
Q 9.28125 7.765625 9.28125 18.015625 
L 9.28125 47.703125 
L 2.6875 47.703125 
L 2.6875 54.6875 
L 9.28125 54.6875 
L 9.28125 70.21875 
z
" id="DejaVuSans-116"/>
      <path d="M 41.109375 46.296875 
Q 39.59375 47.171875 37.8125 47.578125 
Q 36.03125 48 33.890625 48 
Q 26.265625 48 22.1875 43.046875 
Q 18.109375 38.09375 18.109375 28.8125 
L 18.109375 0 
L 9.078125 0 
L 9.078125 54.6875 
L 18.109375 54.6875 
L 18.109375 46.1875 
Q 20.953125 51.171875 25.484375 53.578125 
Q 30.03125 56 36.53125 56 
Q 37.453125 56 38.578125 55.875 
Q 39.703125 55.765625 41.0625 55.515625 
z
" id="DejaVuSans-114"/>
      <path d="M 34.28125 27.484375 
Q 23.390625 27.484375 19.1875 25 
Q 14.984375 22.515625 14.984375 16.5 
Q 14.984375 11.71875 18.140625 8.90625 
Q 21.296875 6.109375 26.703125 6.109375 
Q 34.1875 6.109375 38.703125 11.40625 
Q 43.21875 16.703125 43.21875 25.484375 
L 43.21875 27.484375 
z
M 52.203125 31.203125 
L 52.203125 0 
L 43.21875 0 
L 43.21875 8.296875 
Q 40.140625 3.328125 35.546875 0.953125 
Q 30.953125 -1.421875 24.3125 -1.421875 
Q 15.921875 -1.421875 10.953125 3.296875 
Q 6 8.015625 6 15.921875 
Q 6 25.140625 12.171875 29.828125 
Q 18.359375 34.515625 30.609375 34.515625 
L 43.21875 34.515625 
L 43.21875 35.40625 
Q 43.21875 41.609375 39.140625 45 
Q 35.0625 48.390625 27.6875 48.390625 
Q 23 48.390625 18.546875 47.265625 
Q 14.109375 46.140625 10.015625 43.890625 
L 10.015625 52.203125 
Q 14.9375 54.109375 19.578125 55.046875 
Q 24.21875 56 28.609375 56 
Q 40.484375 56 46.34375 49.84375 
Q 52.203125 43.703125 52.203125 31.203125 
z
" id="DejaVuSans-97"/>
      <path d="M 9.421875 54.6875 
L 18.40625 54.6875 
L 18.40625 0 
L 9.421875 0 
z
M 9.421875 75.984375 
L 18.40625 75.984375 
L 18.40625 64.59375 
L 9.421875 64.59375 
z
" id="DejaVuSans-105"/>
      <path d="M 54.890625 33.015625 
L 54.890625 0 
L 45.90625 0 
L 45.90625 32.71875 
Q 45.90625 40.484375 42.875 44.328125 
Q 39.84375 48.1875 33.796875 48.1875 
Q 26.515625 48.1875 22.3125 43.546875 
Q 18.109375 38.921875 18.109375 30.90625 
L 18.109375 0 
L 9.078125 0 
L 9.078125 54.6875 
L 18.109375 54.6875 
L 18.109375 46.1875 
Q 21.34375 51.125 25.703125 53.5625 
Q 30.078125 56 35.796875 56 
Q 45.21875 56 50.046875 50.171875 
Q 54.890625 44.34375 54.890625 33.015625 
z
" id="DejaVuSans-110"/>
     </defs>
     <g transform="translate(598.846875 59.798437)scale(0.1 -0.1)">
      <use xlink:href="#DejaVuSans-116"/>
      <use x="39.208984" xlink:href="#DejaVuSans-114"/>
      <use x="80.322266" xlink:href="#DejaVuSans-97"/>
      <use x="141.601562" xlink:href="#DejaVuSans-105"/>
      <use x="169.384766" xlink:href="#DejaVuSans-110"/>
     </g>
    </g>
    <g id="line2d_33">
     <path d="M 570.846875 70.976562 
L 590.846875 70.976562 
" style="fill:none;stroke:#ff7f0e;stroke-linecap:square;stroke-width:0.5;"/>
    </g>
    <g id="line2d_34"/>
    <g id="text_19">
     <!-- validate -->
     <defs>
      <path d="M 2.984375 54.6875 
L 12.5 54.6875 
L 29.59375 8.796875 
L 46.6875 54.6875 
L 56.203125 54.6875 
L 35.6875 0 
L 23.484375 0 
z
" id="DejaVuSans-118"/>
      <path d="M 45.40625 46.390625 
L 45.40625 75.984375 
L 54.390625 75.984375 
L 54.390625 0 
L 45.40625 0 
L 45.40625 8.203125 
Q 42.578125 3.328125 38.25 0.953125 
Q 33.9375 -1.421875 27.875 -1.421875 
Q 17.96875 -1.421875 11.734375 6.484375 
Q 5.515625 14.40625 5.515625 27.296875 
Q 5.515625 40.1875 11.734375 48.09375 
Q 17.96875 56 27.875 56 
Q 33.9375 56 38.25 53.625 
Q 42.578125 51.265625 45.40625 46.390625 
z
M 14.796875 27.296875 
Q 14.796875 17.390625 18.875 11.75 
Q 22.953125 6.109375 30.078125 6.109375 
Q 37.203125 6.109375 41.296875 11.75 
Q 45.40625 17.390625 45.40625 27.296875 
Q 45.40625 37.203125 41.296875 42.84375 
Q 37.203125 48.484375 30.078125 48.484375 
Q 22.953125 48.484375 18.875 42.84375 
Q 14.796875 37.203125 14.796875 27.296875 
z
" id="DejaVuSans-100"/>
     </defs>
     <g transform="translate(598.846875 74.476562)scale(0.1 -0.1)">
      <use xlink:href="#DejaVuSans-118"/>
      <use x="59.179688" xlink:href="#DejaVuSans-97"/>
      <use x="120.458984" xlink:href="#DejaVuSans-108"/>
      <use x="148.242188" xlink:href="#DejaVuSans-105"/>
      <use x="176.025391" xlink:href="#DejaVuSans-100"/>
      <use x="239.501953" xlink:href="#DejaVuSans-97"/>
      <use x="300.78125" xlink:href="#DejaVuSans-116"/>
      <use x="339.990234" xlink:href="#DejaVuSans-101"/>
     </g>
    </g>
   </g>
  </g>
 </g>
 <defs>
  <clipPath id="p341feba723">
   <rect height="271.8" width="558" x="90" y="43.2"/>
  </clipPath>
 </defs>
</svg>
