<?xml version="1.0" encoding="utf-8" standalone="no"?>
<!DOCTYPE svg PUBLIC "-//W3C//DTD SVG 1.1//EN"
  "http://www.w3.org/Graphics/SVG/1.1/DTD/svg11.dtd">
<!-- Created with matplotlib (https://matplotlib.org/) -->
<svg height="360pt" version="1.1" viewBox="0 0 720 360" width="720pt" xmlns="http://www.w3.org/2000/svg" xmlns:xlink="http://www.w3.org/1999/xlink">
 <defs>
  <style type="text/css">
*{stroke-linecap:butt;stroke-linejoin:round;}
  </style>
 </defs>
 <g id="figure_1">
  <g id="patch_1">
   <path d="M 0 360 
L 720 360 
L 720 0 
L 0 0 
z
" style="fill:#ffffff;"/>
  </g>
  <g id="axes_1">
   <g id="patch_2">
    <path d="M 90 315 
L 648 315 
L 648 43.2 
L 90 43.2 
z
" style="fill:#ffffff;"/>
   </g>
   <g id="matplotlib.axis_1">
    <g id="xtick_1">
     <g id="line2d_1">
      <path clip-path="url(#p50398c4fe7)" d="M 115.363636 315 
L 115.363636 43.2 
" style="fill:none;stroke:#b0b0b0;stroke-linecap:square;stroke-width:0.8;"/>
     </g>
     <g id="line2d_2">
      <defs>
       <path d="M 0 0 
L 0 3.5 
" id="m23856c4ac3" style="stroke:#000000;stroke-width:0.8;"/>
      </defs>
      <g>
       <use style="stroke:#000000;stroke-width:0.8;" x="115.363636" xlink:href="#m23856c4ac3" y="315"/>
      </g>
     </g>
     <g id="text_1">
      <!-- 0 -->
      <defs>
       <path d="M 31.78125 66.40625 
Q 24.171875 66.40625 20.328125 58.90625 
Q 16.5 51.421875 16.5 36.375 
Q 16.5 21.390625 20.328125 13.890625 
Q 24.171875 6.390625 31.78125 6.390625 
Q 39.453125 6.390625 43.28125 13.890625 
Q 47.125 21.390625 47.125 36.375 
Q 47.125 51.421875 43.28125 58.90625 
Q 39.453125 66.40625 31.78125 66.40625 
z
M 31.78125 74.21875 
Q 44.046875 74.21875 50.515625 64.515625 
Q 56.984375 54.828125 56.984375 36.375 
Q 56.984375 17.96875 50.515625 8.265625 
Q 44.046875 -1.421875 31.78125 -1.421875 
Q 19.53125 -1.421875 13.0625 8.265625 
Q 6.59375 17.96875 6.59375 36.375 
Q 6.59375 54.828125 13.0625 64.515625 
Q 19.53125 74.21875 31.78125 74.21875 
z
" id="DejaVuSans-48"/>
      </defs>
      <g transform="translate(112.182386 329.598437)scale(0.1 -0.1)">
       <use xlink:href="#DejaVuSans-48"/>
      </g>
     </g>
    </g>
    <g id="xtick_2">
     <g id="line2d_3">
      <path clip-path="url(#p50398c4fe7)" d="M 184.006766 315 
L 184.006766 43.2 
" style="fill:none;stroke:#b0b0b0;stroke-linecap:square;stroke-width:0.8;"/>
     </g>
     <g id="line2d_4">
      <g>
       <use style="stroke:#000000;stroke-width:0.8;" x="184.006766" xlink:href="#m23856c4ac3" y="315"/>
      </g>
     </g>
     <g id="text_2">
      <!-- 200 -->
      <defs>
       <path d="M 19.1875 8.296875 
L 53.609375 8.296875 
L 53.609375 0 
L 7.328125 0 
L 7.328125 8.296875 
Q 12.9375 14.109375 22.625 23.890625 
Q 32.328125 33.6875 34.8125 36.53125 
Q 39.546875 41.84375 41.421875 45.53125 
Q 43.3125 49.21875 43.3125 52.78125 
Q 43.3125 58.59375 39.234375 62.25 
Q 35.15625 65.921875 28.609375 65.921875 
Q 23.96875 65.921875 18.8125 64.3125 
Q 13.671875 62.703125 7.8125 59.421875 
L 7.8125 69.390625 
Q 13.765625 71.78125 18.9375 73 
Q 24.125 74.21875 28.421875 74.21875 
Q 39.75 74.21875 46.484375 68.546875 
Q 53.21875 62.890625 53.21875 53.421875 
Q 53.21875 48.921875 51.53125 44.890625 
Q 49.859375 40.875 45.40625 35.40625 
Q 44.1875 33.984375 37.640625 27.21875 
Q 31.109375 20.453125 19.1875 8.296875 
z
" id="DejaVuSans-50"/>
      </defs>
      <g transform="translate(174.463016 329.598437)scale(0.1 -0.1)">
       <use xlink:href="#DejaVuSans-50"/>
       <use x="63.623047" xlink:href="#DejaVuSans-48"/>
       <use x="127.246094" xlink:href="#DejaVuSans-48"/>
      </g>
     </g>
    </g>
    <g id="xtick_3">
     <g id="line2d_5">
      <path clip-path="url(#p50398c4fe7)" d="M 252.649895 315 
L 252.649895 43.2 
" style="fill:none;stroke:#b0b0b0;stroke-linecap:square;stroke-width:0.8;"/>
     </g>
     <g id="line2d_6">
      <g>
       <use style="stroke:#000000;stroke-width:0.8;" x="252.649895" xlink:href="#m23856c4ac3" y="315"/>
      </g>
     </g>
     <g id="text_3">
      <!-- 400 -->
      <defs>
       <path d="M 37.796875 64.3125 
L 12.890625 25.390625 
L 37.796875 25.390625 
z
M 35.203125 72.90625 
L 47.609375 72.90625 
L 47.609375 25.390625 
L 58.015625 25.390625 
L 58.015625 17.1875 
L 47.609375 17.1875 
L 47.609375 0 
L 37.796875 0 
L 37.796875 17.1875 
L 4.890625 17.1875 
L 4.890625 26.703125 
z
" id="DejaVuSans-52"/>
      </defs>
      <g transform="translate(243.106145 329.598437)scale(0.1 -0.1)">
       <use xlink:href="#DejaVuSans-52"/>
       <use x="63.623047" xlink:href="#DejaVuSans-48"/>
       <use x="127.246094" xlink:href="#DejaVuSans-48"/>
      </g>
     </g>
    </g>
    <g id="xtick_4">
     <g id="line2d_7">
      <path clip-path="url(#p50398c4fe7)" d="M 321.293025 315 
L 321.293025 43.2 
" style="fill:none;stroke:#b0b0b0;stroke-linecap:square;stroke-width:0.8;"/>
     </g>
     <g id="line2d_8">
      <g>
       <use style="stroke:#000000;stroke-width:0.8;" x="321.293025" xlink:href="#m23856c4ac3" y="315"/>
      </g>
     </g>
     <g id="text_4">
      <!-- 600 -->
      <defs>
       <path d="M 33.015625 40.375 
Q 26.375 40.375 22.484375 35.828125 
Q 18.609375 31.296875 18.609375 23.390625 
Q 18.609375 15.53125 22.484375 10.953125 
Q 26.375 6.390625 33.015625 6.390625 
Q 39.65625 6.390625 43.53125 10.953125 
Q 47.40625 15.53125 47.40625 23.390625 
Q 47.40625 31.296875 43.53125 35.828125 
Q 39.65625 40.375 33.015625 40.375 
z
M 52.59375 71.296875 
L 52.59375 62.3125 
Q 48.875 64.0625 45.09375 64.984375 
Q 41.3125 65.921875 37.59375 65.921875 
Q 27.828125 65.921875 22.671875 59.328125 
Q 17.53125 52.734375 16.796875 39.40625 
Q 19.671875 43.65625 24.015625 45.921875 
Q 28.375 48.1875 33.59375 48.1875 
Q 44.578125 48.1875 50.953125 41.515625 
Q 57.328125 34.859375 57.328125 23.390625 
Q 57.328125 12.15625 50.6875 5.359375 
Q 44.046875 -1.421875 33.015625 -1.421875 
Q 20.359375 -1.421875 13.671875 8.265625 
Q 6.984375 17.96875 6.984375 36.375 
Q 6.984375 53.65625 15.1875 63.9375 
Q 23.390625 74.21875 37.203125 74.21875 
Q 40.921875 74.21875 44.703125 73.484375 
Q 48.484375 72.75 52.59375 71.296875 
z
" id="DejaVuSans-54"/>
      </defs>
      <g transform="translate(311.749275 329.598437)scale(0.1 -0.1)">
       <use xlink:href="#DejaVuSans-54"/>
       <use x="63.623047" xlink:href="#DejaVuSans-48"/>
       <use x="127.246094" xlink:href="#DejaVuSans-48"/>
      </g>
     </g>
    </g>
    <g id="xtick_5">
     <g id="line2d_9">
      <path clip-path="url(#p50398c4fe7)" d="M 389.936155 315 
L 389.936155 43.2 
" style="fill:none;stroke:#b0b0b0;stroke-linecap:square;stroke-width:0.8;"/>
     </g>
     <g id="line2d_10">
      <g>
       <use style="stroke:#000000;stroke-width:0.8;" x="389.936155" xlink:href="#m23856c4ac3" y="315"/>
      </g>
     </g>
     <g id="text_5">
      <!-- 800 -->
      <defs>
       <path d="M 31.78125 34.625 
Q 24.75 34.625 20.71875 30.859375 
Q 16.703125 27.09375 16.703125 20.515625 
Q 16.703125 13.921875 20.71875 10.15625 
Q 24.75 6.390625 31.78125 6.390625 
Q 38.8125 6.390625 42.859375 10.171875 
Q 46.921875 13.96875 46.921875 20.515625 
Q 46.921875 27.09375 42.890625 30.859375 
Q 38.875 34.625 31.78125 34.625 
z
M 21.921875 38.8125 
Q 15.578125 40.375 12.03125 44.71875 
Q 8.5 49.078125 8.5 55.328125 
Q 8.5 64.0625 14.71875 69.140625 
Q 20.953125 74.21875 31.78125 74.21875 
Q 42.671875 74.21875 48.875 69.140625 
Q 55.078125 64.0625 55.078125 55.328125 
Q 55.078125 49.078125 51.53125 44.71875 
Q 48 40.375 41.703125 38.8125 
Q 48.828125 37.15625 52.796875 32.3125 
Q 56.78125 27.484375 56.78125 20.515625 
Q 56.78125 9.90625 50.3125 4.234375 
Q 43.84375 -1.421875 31.78125 -1.421875 
Q 19.734375 -1.421875 13.25 4.234375 
Q 6.78125 9.90625 6.78125 20.515625 
Q 6.78125 27.484375 10.78125 32.3125 
Q 14.796875 37.15625 21.921875 38.8125 
z
M 18.3125 54.390625 
Q 18.3125 48.734375 21.84375 45.5625 
Q 25.390625 42.390625 31.78125 42.390625 
Q 38.140625 42.390625 41.71875 45.5625 
Q 45.3125 48.734375 45.3125 54.390625 
Q 45.3125 60.0625 41.71875 63.234375 
Q 38.140625 66.40625 31.78125 66.40625 
Q 25.390625 66.40625 21.84375 63.234375 
Q 18.3125 60.0625 18.3125 54.390625 
z
" id="DejaVuSans-56"/>
      </defs>
      <g transform="translate(380.392405 329.598437)scale(0.1 -0.1)">
       <use xlink:href="#DejaVuSans-56"/>
       <use x="63.623047" xlink:href="#DejaVuSans-48"/>
       <use x="127.246094" xlink:href="#DejaVuSans-48"/>
      </g>
     </g>
    </g>
    <g id="xtick_6">
     <g id="line2d_11">
      <path clip-path="url(#p50398c4fe7)" d="M 458.579284 315 
L 458.579284 43.2 
" style="fill:none;stroke:#b0b0b0;stroke-linecap:square;stroke-width:0.8;"/>
     </g>
     <g id="line2d_12">
      <g>
       <use style="stroke:#000000;stroke-width:0.8;" x="458.579284" xlink:href="#m23856c4ac3" y="315"/>
      </g>
     </g>
     <g id="text_6">
      <!-- 1000 -->
      <defs>
       <path d="M 12.40625 8.296875 
L 28.515625 8.296875 
L 28.515625 63.921875 
L 10.984375 60.40625 
L 10.984375 69.390625 
L 28.421875 72.90625 
L 38.28125 72.90625 
L 38.28125 8.296875 
L 54.390625 8.296875 
L 54.390625 0 
L 12.40625 0 
z
" id="DejaVuSans-49"/>
      </defs>
      <g transform="translate(445.854284 329.598437)scale(0.1 -0.1)">
       <use xlink:href="#DejaVuSans-49"/>
       <use x="63.623047" xlink:href="#DejaVuSans-48"/>
       <use x="127.246094" xlink:href="#DejaVuSans-48"/>
       <use x="190.869141" xlink:href="#DejaVuSans-48"/>
      </g>
     </g>
    </g>
    <g id="xtick_7">
     <g id="line2d_13">
      <path clip-path="url(#p50398c4fe7)" d="M 527.222414 315 
L 527.222414 43.2 
" style="fill:none;stroke:#b0b0b0;stroke-linecap:square;stroke-width:0.8;"/>
     </g>
     <g id="line2d_14">
      <g>
       <use style="stroke:#000000;stroke-width:0.8;" x="527.222414" xlink:href="#m23856c4ac3" y="315"/>
      </g>
     </g>
     <g id="text_7">
      <!-- 1200 -->
      <g transform="translate(514.497414 329.598437)scale(0.1 -0.1)">
       <use xlink:href="#DejaVuSans-49"/>
       <use x="63.623047" xlink:href="#DejaVuSans-50"/>
       <use x="127.246094" xlink:href="#DejaVuSans-48"/>
       <use x="190.869141" xlink:href="#DejaVuSans-48"/>
      </g>
     </g>
    </g>
    <g id="xtick_8">
     <g id="line2d_15">
      <path clip-path="url(#p50398c4fe7)" d="M 595.865543 315 
L 595.865543 43.2 
" style="fill:none;stroke:#b0b0b0;stroke-linecap:square;stroke-width:0.8;"/>
     </g>
     <g id="line2d_16">
      <g>
       <use style="stroke:#000000;stroke-width:0.8;" x="595.865543" xlink:href="#m23856c4ac3" y="315"/>
      </g>
     </g>
     <g id="text_8">
      <!-- 1400 -->
      <g transform="translate(583.140543 329.598437)scale(0.1 -0.1)">
       <use xlink:href="#DejaVuSans-49"/>
       <use x="63.623047" xlink:href="#DejaVuSans-52"/>
       <use x="127.246094" xlink:href="#DejaVuSans-48"/>
       <use x="190.869141" xlink:href="#DejaVuSans-48"/>
      </g>
     </g>
    </g>
    <g id="text_9">
     <!-- epoch -->
     <defs>
      <path d="M 56.203125 29.59375 
L 56.203125 25.203125 
L 14.890625 25.203125 
Q 15.484375 15.921875 20.484375 11.0625 
Q 25.484375 6.203125 34.421875 6.203125 
Q 39.59375 6.203125 44.453125 7.46875 
Q 49.3125 8.734375 54.109375 11.28125 
L 54.109375 2.78125 
Q 49.265625 0.734375 44.1875 -0.34375 
Q 39.109375 -1.421875 33.890625 -1.421875 
Q 20.796875 -1.421875 13.15625 6.1875 
Q 5.515625 13.8125 5.515625 26.8125 
Q 5.515625 40.234375 12.765625 48.109375 
Q 20.015625 56 32.328125 56 
Q 43.359375 56 49.78125 48.890625 
Q 56.203125 41.796875 56.203125 29.59375 
z
M 47.21875 32.234375 
Q 47.125 39.59375 43.09375 43.984375 
Q 39.0625 48.390625 32.421875 48.390625 
Q 24.90625 48.390625 20.390625 44.140625 
Q 15.875 39.890625 15.1875 32.171875 
z
" id="DejaVuSans-101"/>
      <path d="M 18.109375 8.203125 
L 18.109375 -20.796875 
L 9.078125 -20.796875 
L 9.078125 54.6875 
L 18.109375 54.6875 
L 18.109375 46.390625 
Q 20.953125 51.265625 25.265625 53.625 
Q 29.59375 56 35.59375 56 
Q 45.5625 56 51.78125 48.09375 
Q 58.015625 40.1875 58.015625 27.296875 
Q 58.015625 14.40625 51.78125 6.484375 
Q 45.5625 -1.421875 35.59375 -1.421875 
Q 29.59375 -1.421875 25.265625 0.953125 
Q 20.953125 3.328125 18.109375 8.203125 
z
M 48.6875 27.296875 
Q 48.6875 37.203125 44.609375 42.84375 
Q 40.53125 48.484375 33.40625 48.484375 
Q 26.265625 48.484375 22.1875 42.84375 
Q 18.109375 37.203125 18.109375 27.296875 
Q 18.109375 17.390625 22.1875 11.75 
Q 26.265625 6.109375 33.40625 6.109375 
Q 40.53125 6.109375 44.609375 11.75 
Q 48.6875 17.390625 48.6875 27.296875 
z
" id="DejaVuSans-112"/>
      <path d="M 30.609375 48.390625 
Q 23.390625 48.390625 19.1875 42.75 
Q 14.984375 37.109375 14.984375 27.296875 
Q 14.984375 17.484375 19.15625 11.84375 
Q 23.34375 6.203125 30.609375 6.203125 
Q 37.796875 6.203125 41.984375 11.859375 
Q 46.1875 17.53125 46.1875 27.296875 
Q 46.1875 37.015625 41.984375 42.703125 
Q 37.796875 48.390625 30.609375 48.390625 
z
M 30.609375 56 
Q 42.328125 56 49.015625 48.375 
Q 55.71875 40.765625 55.71875 27.296875 
Q 55.71875 13.875 49.015625 6.21875 
Q 42.328125 -1.421875 30.609375 -1.421875 
Q 18.84375 -1.421875 12.171875 6.21875 
Q 5.515625 13.875 5.515625 27.296875 
Q 5.515625 40.765625 12.171875 48.375 
Q 18.84375 56 30.609375 56 
z
" id="DejaVuSans-111"/>
      <path d="M 48.78125 52.59375 
L 48.78125 44.1875 
Q 44.96875 46.296875 41.140625 47.34375 
Q 37.3125 48.390625 33.40625 48.390625 
Q 24.65625 48.390625 19.8125 42.84375 
Q 14.984375 37.3125 14.984375 27.296875 
Q 14.984375 17.28125 19.8125 11.734375 
Q 24.65625 6.203125 33.40625 6.203125 
Q 37.3125 6.203125 41.140625 7.25 
Q 44.96875 8.296875 48.78125 10.40625 
L 48.78125 2.09375 
Q 45.015625 0.34375 40.984375 -0.53125 
Q 36.96875 -1.421875 32.421875 -1.421875 
Q 20.0625 -1.421875 12.78125 6.34375 
Q 5.515625 14.109375 5.515625 27.296875 
Q 5.515625 40.671875 12.859375 48.328125 
Q 20.21875 56 33.015625 56 
Q 37.15625 56 41.109375 55.140625 
Q 45.0625 54.296875 48.78125 52.59375 
z
" id="DejaVuSans-99"/>
      <path d="M 54.890625 33.015625 
L 54.890625 0 
L 45.90625 0 
L 45.90625 32.71875 
Q 45.90625 40.484375 42.875 44.328125 
Q 39.84375 48.1875 33.796875 48.1875 
Q 26.515625 48.1875 22.3125 43.546875 
Q 18.109375 38.921875 18.109375 30.90625 
L 18.109375 0 
L 9.078125 0 
L 9.078125 75.984375 
L 18.109375 75.984375 
L 18.109375 46.1875 
Q 21.34375 51.125 25.703125 53.5625 
Q 30.078125 56 35.796875 56 
Q 45.21875 56 50.046875 50.171875 
Q 54.890625 44.34375 54.890625 33.015625 
z
" id="DejaVuSans-104"/>
     </defs>
     <g transform="translate(353.771875 343.276563)scale(0.1 -0.1)">
      <use xlink:href="#DejaVuSans-101"/>
      <use x="61.523438" xlink:href="#DejaVuSans-112"/>
      <use x="125" xlink:href="#DejaVuSans-111"/>
      <use x="186.181641" xlink:href="#DejaVuSans-99"/>
      <use x="241.162109" xlink:href="#DejaVuSans-104"/>
     </g>
    </g>
   </g>
   <g id="matplotlib.axis_2">
    <g id="ytick_1">
     <g id="line2d_17">
      <path clip-path="url(#p50398c4fe7)" d="M 90 315.006307 
L 648 315.006307 
" style="fill:none;stroke:#b0b0b0;stroke-linecap:square;stroke-width:0.8;"/>
     </g>
     <g id="line2d_18">
      <defs>
       <path d="M 0 0 
L -3.5 0 
" id="m65ab09eeee" style="stroke:#000000;stroke-width:0.8;"/>
      </defs>
      <g>
       <use style="stroke:#000000;stroke-width:0.8;" x="90" xlink:href="#m65ab09eeee" y="315.006307"/>
      </g>
     </g>
     <g id="text_10">
      <!-- 0.3 -->
      <defs>
       <path d="M 10.6875 12.40625 
L 21 12.40625 
L 21 0 
L 10.6875 0 
z
" id="DejaVuSans-46"/>
       <path d="M 40.578125 39.3125 
Q 47.65625 37.796875 51.625 33 
Q 55.609375 28.21875 55.609375 21.1875 
Q 55.609375 10.40625 48.1875 4.484375 
Q 40.765625 -1.421875 27.09375 -1.421875 
Q 22.515625 -1.421875 17.65625 -0.515625 
Q 12.796875 0.390625 7.625 2.203125 
L 7.625 11.71875 
Q 11.71875 9.328125 16.59375 8.109375 
Q 21.484375 6.890625 26.8125 6.890625 
Q 36.078125 6.890625 40.9375 10.546875 
Q 45.796875 14.203125 45.796875 21.1875 
Q 45.796875 27.640625 41.28125 31.265625 
Q 36.765625 34.90625 28.71875 34.90625 
L 20.21875 34.90625 
L 20.21875 43.015625 
L 29.109375 43.015625 
Q 36.375 43.015625 40.234375 45.921875 
Q 44.09375 48.828125 44.09375 54.296875 
Q 44.09375 59.90625 40.109375 62.90625 
Q 36.140625 65.921875 28.71875 65.921875 
Q 24.65625 65.921875 20.015625 65.03125 
Q 15.375 64.15625 9.8125 62.3125 
L 9.8125 71.09375 
Q 15.4375 72.65625 20.34375 73.4375 
Q 25.25 74.21875 29.59375 74.21875 
Q 40.828125 74.21875 47.359375 69.109375 
Q 53.90625 64.015625 53.90625 55.328125 
Q 53.90625 49.265625 50.4375 45.09375 
Q 46.96875 40.921875 40.578125 39.3125 
z
" id="DejaVuSans-51"/>
      </defs>
      <g transform="translate(67.096875 318.805525)scale(0.1 -0.1)">
       <use xlink:href="#DejaVuSans-48"/>
       <use x="63.623047" xlink:href="#DejaVuSans-46"/>
       <use x="95.410156" xlink:href="#DejaVuSans-51"/>
      </g>
     </g>
    </g>
    <g id="ytick_2">
     <g id="line2d_19">
      <path clip-path="url(#p50398c4fe7)" d="M 90 277.166964 
L 648 277.166964 
" style="fill:none;stroke:#b0b0b0;stroke-linecap:square;stroke-width:0.8;"/>
     </g>
     <g id="line2d_20">
      <g>
       <use style="stroke:#000000;stroke-width:0.8;" x="90" xlink:href="#m65ab09eeee" y="277.166964"/>
      </g>
     </g>
     <g id="text_11">
      <!-- 0.4 -->
      <g transform="translate(67.096875 280.966182)scale(0.1 -0.1)">
       <use xlink:href="#DejaVuSans-48"/>
       <use x="63.623047" xlink:href="#DejaVuSans-46"/>
       <use x="95.410156" xlink:href="#DejaVuSans-52"/>
      </g>
     </g>
    </g>
    <g id="ytick_3">
     <g id="line2d_21">
      <path clip-path="url(#p50398c4fe7)" d="M 90 239.327621 
L 648 239.327621 
" style="fill:none;stroke:#b0b0b0;stroke-linecap:square;stroke-width:0.8;"/>
     </g>
     <g id="line2d_22">
      <g>
       <use style="stroke:#000000;stroke-width:0.8;" x="90" xlink:href="#m65ab09eeee" y="239.327621"/>
      </g>
     </g>
     <g id="text_12">
      <!-- 0.5 -->
      <defs>
       <path d="M 10.796875 72.90625 
L 49.515625 72.90625 
L 49.515625 64.59375 
L 19.828125 64.59375 
L 19.828125 46.734375 
Q 21.96875 47.46875 24.109375 47.828125 
Q 26.265625 48.1875 28.421875 48.1875 
Q 40.625 48.1875 47.75 41.5 
Q 54.890625 34.8125 54.890625 23.390625 
Q 54.890625 11.625 47.5625 5.09375 
Q 40.234375 -1.421875 26.90625 -1.421875 
Q 22.3125 -1.421875 17.546875 -0.640625 
Q 12.796875 0.140625 7.71875 1.703125 
L 7.71875 11.625 
Q 12.109375 9.234375 16.796875 8.0625 
Q 21.484375 6.890625 26.703125 6.890625 
Q 35.15625 6.890625 40.078125 11.328125 
Q 45.015625 15.765625 45.015625 23.390625 
Q 45.015625 31 40.078125 35.4375 
Q 35.15625 39.890625 26.703125 39.890625 
Q 22.75 39.890625 18.8125 39.015625 
Q 14.890625 38.140625 10.796875 36.28125 
z
" id="DejaVuSans-53"/>
      </defs>
      <g transform="translate(67.096875 243.12684)scale(0.1 -0.1)">
       <use xlink:href="#DejaVuSans-48"/>
       <use x="63.623047" xlink:href="#DejaVuSans-46"/>
       <use x="95.410156" xlink:href="#DejaVuSans-53"/>
      </g>
     </g>
    </g>
    <g id="ytick_4">
     <g id="line2d_23">
      <path clip-path="url(#p50398c4fe7)" d="M 90 201.488278 
L 648 201.488278 
" style="fill:none;stroke:#b0b0b0;stroke-linecap:square;stroke-width:0.8;"/>
     </g>
     <g id="line2d_24">
      <g>
       <use style="stroke:#000000;stroke-width:0.8;" x="90" xlink:href="#m65ab09eeee" y="201.488278"/>
      </g>
     </g>
     <g id="text_13">
      <!-- 0.6 -->
      <g transform="translate(67.096875 205.287497)scale(0.1 -0.1)">
       <use xlink:href="#DejaVuSans-48"/>
       <use x="63.623047" xlink:href="#DejaVuSans-46"/>
       <use x="95.410156" xlink:href="#DejaVuSans-54"/>
      </g>
     </g>
    </g>
    <g id="ytick_5">
     <g id="line2d_25">
      <path clip-path="url(#p50398c4fe7)" d="M 90 163.648935 
L 648 163.648935 
" style="fill:none;stroke:#b0b0b0;stroke-linecap:square;stroke-width:0.8;"/>
     </g>
     <g id="line2d_26">
      <g>
       <use style="stroke:#000000;stroke-width:0.8;" x="90" xlink:href="#m65ab09eeee" y="163.648935"/>
      </g>
     </g>
     <g id="text_14">
      <!-- 0.7 -->
      <defs>
       <path d="M 8.203125 72.90625 
L 55.078125 72.90625 
L 55.078125 68.703125 
L 28.609375 0 
L 18.3125 0 
L 43.21875 64.59375 
L 8.203125 64.59375 
z
" id="DejaVuSans-55"/>
      </defs>
      <g transform="translate(67.096875 167.448154)scale(0.1 -0.1)">
       <use xlink:href="#DejaVuSans-48"/>
       <use x="63.623047" xlink:href="#DejaVuSans-46"/>
       <use x="95.410156" xlink:href="#DejaVuSans-55"/>
      </g>
     </g>
    </g>
    <g id="ytick_6">
     <g id="line2d_27">
      <path clip-path="url(#p50398c4fe7)" d="M 90 125.809592 
L 648 125.809592 
" style="fill:none;stroke:#b0b0b0;stroke-linecap:square;stroke-width:0.8;"/>
     </g>
     <g id="line2d_28">
      <g>
       <use style="stroke:#000000;stroke-width:0.8;" x="90" xlink:href="#m65ab09eeee" y="125.809592"/>
      </g>
     </g>
     <g id="text_15">
      <!-- 0.8 -->
      <g transform="translate(67.096875 129.608811)scale(0.1 -0.1)">
       <use xlink:href="#DejaVuSans-48"/>
       <use x="63.623047" xlink:href="#DejaVuSans-46"/>
       <use x="95.410156" xlink:href="#DejaVuSans-56"/>
      </g>
     </g>
    </g>
    <g id="ytick_7">
     <g id="line2d_29">
      <path clip-path="url(#p50398c4fe7)" d="M 90 87.970249 
L 648 87.970249 
" style="fill:none;stroke:#b0b0b0;stroke-linecap:square;stroke-width:0.8;"/>
     </g>
     <g id="line2d_30">
      <g>
       <use style="stroke:#000000;stroke-width:0.8;" x="90" xlink:href="#m65ab09eeee" y="87.970249"/>
      </g>
     </g>
     <g id="text_16">
      <!-- 0.9 -->
      <defs>
       <path d="M 10.984375 1.515625 
L 10.984375 10.5 
Q 14.703125 8.734375 18.5 7.8125 
Q 22.3125 6.890625 25.984375 6.890625 
Q 35.75 6.890625 40.890625 13.453125 
Q 46.046875 20.015625 46.78125 33.40625 
Q 43.953125 29.203125 39.59375 26.953125 
Q 35.25 24.703125 29.984375 24.703125 
Q 19.046875 24.703125 12.671875 31.3125 
Q 6.296875 37.9375 6.296875 49.421875 
Q 6.296875 60.640625 12.9375 67.421875 
Q 19.578125 74.21875 30.609375 74.21875 
Q 43.265625 74.21875 49.921875 64.515625 
Q 56.59375 54.828125 56.59375 36.375 
Q 56.59375 19.140625 48.40625 8.859375 
Q 40.234375 -1.421875 26.421875 -1.421875 
Q 22.703125 -1.421875 18.890625 -0.6875 
Q 15.09375 0.046875 10.984375 1.515625 
z
M 30.609375 32.421875 
Q 37.25 32.421875 41.125 36.953125 
Q 45.015625 41.5 45.015625 49.421875 
Q 45.015625 57.28125 41.125 61.84375 
Q 37.25 66.40625 30.609375 66.40625 
Q 23.96875 66.40625 20.09375 61.84375 
Q 16.21875 57.28125 16.21875 49.421875 
Q 16.21875 41.5 20.09375 36.953125 
Q 23.96875 32.421875 30.609375 32.421875 
z
" id="DejaVuSans-57"/>
      </defs>
      <g transform="translate(67.096875 91.769468)scale(0.1 -0.1)">
       <use xlink:href="#DejaVuSans-48"/>
       <use x="63.623047" xlink:href="#DejaVuSans-46"/>
       <use x="95.410156" xlink:href="#DejaVuSans-57"/>
      </g>
     </g>
    </g>
    <g id="ytick_8">
     <g id="line2d_31">
      <path clip-path="url(#p50398c4fe7)" d="M 90 50.130906 
L 648 50.130906 
" style="fill:none;stroke:#b0b0b0;stroke-linecap:square;stroke-width:0.8;"/>
     </g>
     <g id="line2d_32">
      <g>
       <use style="stroke:#000000;stroke-width:0.8;" x="90" xlink:href="#m65ab09eeee" y="50.130906"/>
      </g>
     </g>
     <g id="text_17">
      <!-- 1.0 -->
      <g transform="translate(67.096875 53.930125)scale(0.1 -0.1)">
       <use xlink:href="#DejaVuSans-49"/>
       <use x="63.623047" xlink:href="#DejaVuSans-46"/>
       <use x="95.410156" xlink:href="#DejaVuSans-48"/>
      </g>
     </g>
    </g>
    <g id="text_18">
     <!-- accuracy -->
     <defs>
      <path d="M 34.28125 27.484375 
Q 23.390625 27.484375 19.1875 25 
Q 14.984375 22.515625 14.984375 16.5 
Q 14.984375 11.71875 18.140625 8.90625 
Q 21.296875 6.109375 26.703125 6.109375 
Q 34.1875 6.109375 38.703125 11.40625 
Q 43.21875 16.703125 43.21875 25.484375 
L 43.21875 27.484375 
z
M 52.203125 31.203125 
L 52.203125 0 
L 43.21875 0 
L 43.21875 8.296875 
Q 40.140625 3.328125 35.546875 0.953125 
Q 30.953125 -1.421875 24.3125 -1.421875 
Q 15.921875 -1.421875 10.953125 3.296875 
Q 6 8.015625 6 15.921875 
Q 6 25.140625 12.171875 29.828125 
Q 18.359375 34.515625 30.609375 34.515625 
L 43.21875 34.515625 
L 43.21875 35.40625 
Q 43.21875 41.609375 39.140625 45 
Q 35.0625 48.390625 27.6875 48.390625 
Q 23 48.390625 18.546875 47.265625 
Q 14.109375 46.140625 10.015625 43.890625 
L 10.015625 52.203125 
Q 14.9375 54.109375 19.578125 55.046875 
Q 24.21875 56 28.609375 56 
Q 40.484375 56 46.34375 49.84375 
Q 52.203125 43.703125 52.203125 31.203125 
z
" id="DejaVuSans-97"/>
      <path d="M 8.5 21.578125 
L 8.5 54.6875 
L 17.484375 54.6875 
L 17.484375 21.921875 
Q 17.484375 14.15625 20.5 10.265625 
Q 23.53125 6.390625 29.59375 6.390625 
Q 36.859375 6.390625 41.078125 11.03125 
Q 45.3125 15.671875 45.3125 23.6875 
L 45.3125 54.6875 
L 54.296875 54.6875 
L 54.296875 0 
L 45.3125 0 
L 45.3125 8.40625 
Q 42.046875 3.421875 37.71875 1 
Q 33.40625 -1.421875 27.6875 -1.421875 
Q 18.265625 -1.421875 13.375 4.4375 
Q 8.5 10.296875 8.5 21.578125 
z
M 31.109375 56 
z
" id="DejaVuSans-117"/>
      <path d="M 41.109375 46.296875 
Q 39.59375 47.171875 37.8125 47.578125 
Q 36.03125 48 33.890625 48 
Q 26.265625 48 22.1875 43.046875 
Q 18.109375 38.09375 18.109375 28.8125 
L 18.109375 0 
L 9.078125 0 
L 9.078125 54.6875 
L 18.109375 54.6875 
L 18.109375 46.1875 
Q 20.953125 51.171875 25.484375 53.578125 
Q 30.03125 56 36.53125 56 
Q 37.453125 56 38.578125 55.875 
Q 39.703125 55.765625 41.0625 55.515625 
z
" id="DejaVuSans-114"/>
      <path d="M 32.171875 -5.078125 
Q 28.375 -14.84375 24.75 -17.8125 
Q 21.140625 -20.796875 15.09375 -20.796875 
L 7.90625 -20.796875 
L 7.90625 -13.28125 
L 13.1875 -13.28125 
Q 16.890625 -13.28125 18.9375 -11.515625 
Q 21 -9.765625 23.484375 -3.21875 
L 25.09375 0.875 
L 2.984375 54.6875 
L 12.5 54.6875 
L 29.59375 11.921875 
L 46.6875 54.6875 
L 56.203125 54.6875 
z
" id="DejaVuSans-121"/>
     </defs>
     <g transform="translate(61.017187 201.659375)rotate(-90)scale(0.1 -0.1)">
      <use xlink:href="#DejaVuSans-97"/>
      <use x="61.279297" xlink:href="#DejaVuSans-99"/>
      <use x="116.259766" xlink:href="#DejaVuSans-99"/>
      <use x="171.240234" xlink:href="#DejaVuSans-117"/>
      <use x="234.619141" xlink:href="#DejaVuSans-114"/>
      <use x="275.732422" xlink:href="#DejaVuSans-97"/>
      <use x="337.011719" xlink:href="#DejaVuSans-99"/>
      <use x="391.992188" xlink:href="#DejaVuSans-121"/>
     </g>
    </g>
   </g>
   <g id="line2d_33">
    <path clip-path="url(#p50398c4fe7)" d="M 115.363636 302.645455 
L 115.706852 297.221815 
L 116.050068 299.618307 
L 116.393283 299.113783 
L 116.736499 294.068537 
L 117.079715 296.212766 
L 117.42293 291.419783 
L 117.766146 297.978602 
L 118.109362 288.014242 
L 118.452577 291.167521 
L 118.795793 289.780078 
L 119.139008 293.437881 
L 119.482224 281.077029 
L 119.82544 283.725783 
L 120.168655 284.608701 
L 120.511871 288.518767 
L 120.855087 282.338341 
L 121.198302 282.086078 
L 121.541518 280.320242 
L 121.884734 283.095127 
L 122.227949 279.689587 
L 122.571165 283.725783 
L 123.257596 275.65339 
L 123.600812 275.527259 
L 123.944028 275.905652 
L 124.287243 273.761423 
L 124.630459 264.932243 
L 124.973674 264.679981 
L 125.31689 265.68903 
L 125.660106 264.301587 
L 126.003321 265.815161 
L 126.346537 260.517653 
L 126.689753 262.661882 
L 127.032968 258.373423 
L 127.376184 257.490505 
L 127.7194 252.949784 
L 128.062615 252.319128 
L 128.405831 246.390965 
L 128.749047 242.733162 
L 129.092262 243.111555 
L 129.435478 249.418112 
L 129.778694 232.390408 
L 130.121909 238.066309 
L 130.465125 236.931129 
L 130.808341 227.723556 
L 131.151556 230.120047 
L 131.494772 227.219031 
L 131.837987 233.021064 
L 132.181203 228.606474 
L 132.867634 215.867228 
L 133.21085 221.921523 
L 133.554066 215.867228 
L 133.897281 220.53408 
L 134.240497 218.642113 
L 134.583713 212.083294 
L 134.926928 211.578769 
L 135.270144 210.821982 
L 135.61336 207.038048 
L 135.956575 209.43454 
L 136.299791 207.920966 
L 136.643007 205.650606 
L 137.329438 204.389294 
L 137.672653 204.137032 
L 138.015869 199.091786 
L 138.359085 198.334999 
L 138.7023 205.524474 
L 139.045516 200.226966 
L 139.388732 199.344048 
L 139.731947 196.947557 
L 140.075163 193.542016 
L 140.418379 196.316901 
L 140.761594 192.028442 
L 141.10481 191.019393 
L 141.448026 193.037491 
L 141.791241 192.91136 
L 142.134457 190.262606 
L 142.477673 192.91136 
L 142.820888 185.974147 
L 143.164104 184.712836 
L 143.507319 185.595754 
L 143.850535 185.091229 
L 144.193751 181.937951 
L 144.536966 180.676639 
L 144.880182 184.208311 
L 145.223398 184.08218 
L 145.566613 183.829918 
L 145.909829 184.838967 
L 146.253045 182.568606 
L 146.59626 181.307295 
L 146.939476 179.415328 
L 147.282692 176.766574 
L 147.625907 181.81182 
L 147.969123 178.280148 
L 148.312339 180.928902 
L 148.655554 175.253 
L 148.99877 177.901754 
L 149.341985 177.144967 
L 149.685201 171.090672 
L 150.028417 176.766574 
L 150.371632 178.154016 
L 150.714848 173.865558 
L 151.058064 171.721328 
L 151.401279 175.631394 
L 151.744495 167.559 
L 152.087711 169.450968 
L 152.430926 169.955492 
L 152.774142 169.072574 
L 153.117358 167.180607 
L 153.460573 170.333886 
L 153.803789 171.216804 
L 154.147005 163.901197 
L 154.49022 164.784115 
L 154.833436 173.234902 
L 155.176651 167.559 
L 155.519867 167.685132 
L 155.863083 169.577099 
L 156.206298 168.820312 
L 156.89273 162.00923 
L 157.579161 168.063525 
L 157.922377 167.811263 
L 158.265592 161.000181 
L 158.608808 160.495656 
L 158.952024 162.639886 
L 159.295239 160.87405 
L 159.638455 163.270542 
L 159.981671 155.828804 
L 160.324886 161.378574 
L 160.668102 163.018279 
L 161.011318 157.720771 
L 161.354533 156.711722 
L 161.697749 159.360476 
L 162.040964 160.621788 
L 162.38418 158.982083 
L 162.727396 160.87405 
L 163.413827 157.846902 
L 163.757043 154.441362 
L 164.100258 156.081066 
L 164.443474 151.792608 
L 164.78669 154.819755 
L 165.129905 151.161952 
L 165.473121 156.333329 
L 165.816337 146.621231 
L 166.159552 153.810706 
L 166.502768 149.90064 
L 166.845984 147.378018 
L 167.189199 149.648378 
L 167.532415 149.648378 
L 167.87563 149.017722 
L 168.218846 148.639329 
L 168.562062 143.341821 
L 168.905277 146.999624 
L 169.248493 148.008673 
L 169.591709 142.08051 
L 169.934924 148.008673 
L 170.27814 146.747362 
L 170.621356 143.720214 
L 170.964571 146.621231 
L 171.307787 143.846346 
L 171.651003 145.107657 
L 171.994218 143.341821 
L 172.337434 143.594083 
L 172.68065 142.585034 
L 173.023865 142.332772 
L 173.367081 143.846346 
L 173.710296 144.224739 
L 174.053512 140.819198 
L 174.396728 138.927231 
L 174.739943 142.711165 
L 175.083159 138.927231 
L 175.426375 140.819198 
L 175.76959 140.188542 
L 176.112806 136.909133 
L 176.799237 141.07146 
L 177.142453 135.269428 
L 177.485669 140.062411 
L 178.1721 137.918182 
L 178.515316 137.539788 
L 178.858531 136.404608 
L 179.201747 140.440805 
L 179.544962 136.530739 
L 179.888178 138.422706 
L 180.231394 133.629723 
L 180.574609 133.503592 
L 180.917825 133.881985 
L 181.261041 134.764903 
L 181.604256 135.269428 
L 181.947472 134.260379 
L 182.290688 132.746805 
L 182.977119 126.944772 
L 183.320335 129.593526 
L 183.66355 130.602576 
L 184.006766 128.710608 
L 184.349982 129.467395 
L 184.693197 128.962871 
L 185.036413 130.728707 
L 185.379628 127.575428 
L 185.722844 128.83674 
L 186.06606 124.674412 
L 186.409275 124.169887 
L 186.752491 124.043756 
L 187.095707 123.286969 
L 187.438922 128.332215 
L 187.782138 123.539232 
L 188.125354 124.169887 
L 188.468569 118.115592 
L 188.811785 124.296018 
L 189.155001 119.881428 
L 189.498216 121.773396 
L 189.841432 120.133691 
L 190.527863 124.043756 
L 190.871079 120.764346 
L 191.55751 118.872379 
L 191.900726 117.358806 
L 192.243941 119.124642 
L 192.587157 117.358806 
L 192.930373 117.737199 
L 193.273588 116.72815 
L 193.616804 117.232674 
L 193.96002 120.385953 
L 194.303235 114.457789 
L 194.646451 115.466838 
L 194.989667 113.953265 
L 195.332882 115.340707 
L 195.676098 115.719101 
L 196.019314 111.17838 
L 196.362529 110.16933 
L 196.705745 110.673855 
L 197.048961 112.818084 
L 197.392176 108.151232 
L 197.735392 111.935166 
L 198.078607 105.75474 
L 198.421823 109.412544 
L 198.765039 108.529626 
L 199.794686 110.673855 
L 200.137901 108.908019 
L 200.481117 111.556773 
L 200.824333 110.043199 
L 201.167548 105.250216 
L 201.510764 109.538675 
L 201.85398 109.03415 
L 202.197195 105.75474 
L 202.540411 106.637658 
L 202.883627 106.511527 
L 203.226842 109.664806 
L 203.570058 106.007003 
L 203.913273 105.250216 
L 204.256489 109.790937 
L 204.599705 104.367298 
L 204.94292 104.115036 
L 205.286136 104.745691 
L 205.629352 108.025101 
L 206.315783 102.727593 
L 206.658999 103.48438 
L 207.002214 103.48438 
L 207.34543 103.105986 
L 207.688646 103.48438 
L 208.031861 102.979855 
L 208.375077 101.087888 
L 208.718293 104.367298 
L 209.061508 104.871822 
L 209.404724 99.826577 
L 209.747939 101.466281 
L 210.091155 101.34015 
L 210.777586 99.448183 
L 211.120802 100.583363 
L 211.464018 99.448183 
L 211.807233 102.223068 
L 212.150449 98.313003 
L 212.493665 97.556216 
L 212.83688 100.835626 
L 213.180096 101.214019 
L 213.523312 98.691396 
L 213.866527 101.087888 
L 214.209743 101.718544 
L 214.552959 96.547167 
L 214.896174 99.826577 
L 215.23939 97.808478 
L 215.582605 98.817527 
L 215.925821 98.817527 
L 216.269037 95.411987 
L 216.612252 97.051691 
L 216.955468 97.430085 
L 217.641899 94.402937 
L 217.985115 96.421036 
L 218.328331 97.430085 
L 218.671546 97.177823 
L 219.701193 93.772282 
L 220.044409 95.285855 
L 220.387625 96.042642 
L 220.73084 96.294905 
L 221.074056 98.060741 
L 221.417271 95.285855 
L 221.760487 99.448183 
L 222.446918 94.402937 
L 222.790134 95.538118 
L 223.476565 93.267757 
L 223.819781 94.024544 
L 224.162997 91.628052 
L 224.506212 95.664249 
L 224.849428 93.772282 
L 225.192644 91.249659 
L 225.535859 93.393888 
L 225.879075 93.267757 
L 226.222291 90.997397 
L 226.565506 95.664249 
L 227.251938 93.646151 
L 227.595153 92.006446 
L 227.938369 93.646151 
L 228.281584 90.997397 
L 228.6248 93.520019 
L 229.311231 90.366741 
L 229.654447 92.384839 
L 230.340878 90.114479 
L 230.684094 90.619003 
L 231.02731 90.114479 
L 231.370525 93.898413 
L 231.713741 88.600905 
L 232.056957 89.862216 
L 232.400172 89.988347 
L 232.743388 89.736085 
L 233.086604 88.853167 
L 233.773035 89.736085 
L 234.11625 88.474774 
L 234.459466 88.979298 
L 234.802682 88.979298 
L 235.145897 91.37579 
L 235.489113 88.348643 
L 235.832329 89.105429 
L 236.175544 89.105429 
L 236.51876 89.231561 
L 236.861976 89.736085 
L 237.205191 87.591856 
L 237.891623 89.231561 
L 238.578054 84.690839 
L 238.92127 87.591856 
L 239.264485 87.591856 
L 239.607701 86.582807 
L 239.950916 89.609954 
L 240.294132 89.231561 
L 240.637348 87.339593 
L 241.323779 89.988347 
L 241.666995 86.9612 
L 242.01021 89.736085 
L 242.353426 86.456675 
L 242.696642 84.943102 
L 243.726289 87.970249 
L 244.069504 87.465725 
L 244.41272 85.069233 
L 244.755936 83.555659 
L 245.099151 83.303397 
L 245.442367 86.330544 
L 245.785582 83.555659 
L 246.128798 87.087331 
L 246.472014 87.717987 
L 247.158445 83.555659 
L 247.501661 83.807921 
L 247.844876 85.195364 
L 248.188092 84.564708 
L 248.531308 86.835069 
L 248.874523 81.41143 
L 249.560955 83.934053 
L 249.90417 82.925003 
L 250.247386 83.051135 
L 250.590602 85.82602 
L 250.933817 86.582807 
L 251.277033 83.807921 
L 251.620248 83.303397 
L 251.963464 85.952151 
L 252.30668 80.906905 
L 252.993111 84.312446 
L 253.336327 86.204413 
L 253.679542 82.925003 
L 254.022758 82.294348 
L 254.365974 86.204413 
L 254.709189 82.798872 
L 255.052405 84.312446 
L 255.395621 86.456675 
L 255.738836 82.294348 
L 256.082052 80.654643 
L 256.425268 81.789823 
L 256.768483 83.429528 
L 257.111699 83.807921 
L 257.454915 80.528512 
L 257.79813 81.285299 
L 258.141346 80.906905 
L 258.484561 82.672741 
L 258.827777 82.672741 
L 259.170993 81.033036 
L 259.514208 84.186315 
L 259.857424 83.429528 
L 260.20064 84.564708 
L 260.543855 79.771725 
L 260.887071 82.294348 
L 261.230287 80.150118 
L 261.573502 81.537561 
L 261.916718 81.033036 
L 262.259934 79.141069 
L 262.603149 80.150118 
L 262.946365 79.645594 
L 263.289581 78.005889 
L 263.632796 82.294348 
L 263.976012 80.276249 
L 264.319227 80.402381 
L 264.662443 83.177266 
L 265.005659 80.906905 
L 265.348874 81.41143 
L 265.69209 79.014938 
L 266.035306 80.906905 
L 266.378521 78.258151 
L 266.721737 81.789823 
L 267.064953 81.663692 
L 267.408168 79.645594 
L 267.751384 80.402381 
L 268.0946 78.762676 
L 268.781031 80.023987 
L 269.124247 78.888807 
L 269.467462 77.122971 
L 269.810678 79.2672 
L 270.153893 76.240053 
L 270.497109 76.870709 
L 270.840325 79.645594 
L 271.18354 75.735528 
L 271.526756 75.609397 
L 271.869972 79.771725 
L 272.213187 80.780774 
L 272.556403 78.384282 
L 272.899619 81.789823 
L 273.242834 79.393331 
L 273.58605 82.54661 
L 273.929266 76.744577 
L 274.272481 81.159167 
L 274.615697 79.014938 
L 274.958913 78.384282 
L 275.302128 78.510413 
L 275.645344 78.888807 
L 275.988559 78.888807 
L 276.331775 77.501364 
L 276.674991 80.276249 
L 277.018206 79.519463 
L 277.361422 80.150118 
L 277.704638 75.861659 
L 278.047853 79.771725 
L 278.391069 77.627495 
L 278.734285 78.384282 
L 279.0775 77.753627 
L 279.420716 78.258151 
L 279.763932 76.744577 
L 280.107147 79.519463 
L 280.450363 80.023987 
L 280.793579 76.870709 
L 281.136794 78.636545 
L 281.48001 78.888807 
L 281.823225 77.627495 
L 282.166441 77.879758 
L 282.509657 77.122971 
L 282.852872 79.014938 
L 283.196088 75.987791 
L 283.539304 75.104873 
L 283.882519 77.375233 
L 284.225735 76.99684 
L 284.568951 75.231004 
L 284.912166 76.366184 
L 285.255382 76.240053 
L 285.598598 77.249102 
L 285.941813 76.113922 
L 286.628245 75.357135 
L 286.97146 79.519463 
L 287.314676 78.13202 
L 287.657891 78.258151 
L 288.001107 78.888807 
L 288.344323 76.240053 
L 288.687538 77.375233 
L 289.030754 76.366184 
L 289.37397 77.627495 
L 289.717185 75.861659 
L 290.403617 76.744577 
L 290.746832 78.005889 
L 291.090048 76.618446 
L 291.433264 78.384282 
L 291.776479 76.366184 
L 292.119695 75.861659 
L 292.462911 77.249102 
L 292.806126 73.71743 
L 293.149342 73.465168 
L 293.835773 75.609397 
L 294.178989 72.960643 
L 294.522204 77.753627 
L 294.86542 72.203856 
L 295.208636 76.870709 
L 295.551851 74.221955 
L 295.895067 77.249102 
L 296.238283 74.348086 
L 296.924714 73.843561 
L 297.26793 73.843561 
L 297.611145 75.861659 
L 297.954361 72.456119 
L 298.297577 72.58225 
L 298.640792 74.978741 
L 298.984008 73.71743 
L 299.327224 79.014938 
L 299.670439 71.825463 
L 300.013655 74.474217 
L 300.35687 75.357135 
L 300.700086 77.627495 
L 301.043302 74.726479 
L 301.386517 75.357135 
L 301.729733 72.960643 
L 302.072949 72.960643 
L 302.416164 72.203856 
L 302.75938 73.969692 
L 303.102596 71.447069 
L 303.445811 71.320938 
L 303.789027 75.609397 
L 304.132243 72.960643 
L 304.475458 72.456119 
L 304.818674 72.456119 
L 305.16189 74.474217 
L 305.505105 72.456119 
L 305.848321 76.113922 
L 306.191536 71.699332 
L 306.877968 73.591299 
L 307.221183 71.951594 
L 307.564399 73.843561 
L 307.907615 72.203856 
L 308.25083 72.456119 
L 308.594046 73.969692 
L 308.937262 73.969692 
L 309.280477 72.329987 
L 309.623693 72.203856 
L 309.966909 73.339037 
L 310.310124 75.231004 
L 310.65334 73.339037 
L 310.996556 75.231004 
L 311.339771 73.086774 
L 311.682987 74.726479 
L 312.026202 75.483266 
L 312.369418 74.726479 
L 312.712634 70.311889 
L 313.055849 71.951594 
L 313.399065 71.825463 
L 313.742281 71.320938 
L 314.085496 73.843561 
L 314.428712 73.339037 
L 314.771928 73.969692 
L 315.115143 71.194807 
L 315.458359 73.212905 
L 315.801575 72.456119 
L 316.14479 72.708381 
L 316.488006 70.942545 
L 316.831222 70.690283 
L 317.174437 72.58225 
L 317.517653 71.194807 
L 317.860868 70.564151 
L 318.204084 69.681233 
L 318.5473 73.843561 
L 318.890515 71.573201 
L 319.233731 71.951594 
L 319.576947 69.30284 
L 319.920162 73.591299 
L 320.263378 70.816414 
L 320.606594 71.068676 
L 320.949809 73.969692 
L 321.293025 72.960643 
L 321.636241 69.176709 
L 321.979456 72.329987 
L 322.322672 72.203856 
L 322.665888 68.16766 
L 323.009103 69.681233 
L 323.352319 72.456119 
L 323.695535 71.068676 
L 324.03875 71.825463 
L 324.725181 69.807365 
L 325.068397 70.43802 
L 325.411613 73.465168 
L 325.754828 71.699332 
L 326.098044 71.194807 
L 326.44126 71.573201 
L 326.784475 73.591299 
L 327.127691 71.447069 
L 327.470907 71.951594 
L 327.814122 69.555102 
L 328.157338 71.194807 
L 328.500554 70.43802 
L 328.843769 71.068676 
L 329.186985 71.068676 
L 329.530201 71.573201 
L 329.873416 71.194807 
L 330.216632 69.428971 
L 330.559847 69.050578 
L 330.903063 72.077725 
L 331.246279 68.546053 
L 331.589494 68.924447 
L 331.93271 71.573201 
L 332.275926 68.924447 
L 332.619141 71.825463 
L 332.962357 68.041529 
L 333.305573 71.194807 
L 333.648788 72.960643 
L 333.992004 72.329987 
L 334.33522 69.933496 
L 334.678435 69.30284 
L 335.021651 70.059627 
L 335.364867 69.050578 
L 335.708082 71.068676 
L 336.051298 71.825463 
L 336.394513 71.320938 
L 336.737729 71.951594 
L 337.080945 69.428971 
L 337.42416 68.924447 
L 337.767376 69.933496 
L 338.453807 69.933496 
L 338.797023 70.43802 
L 339.140239 71.951594 
L 339.82667 70.564151 
L 340.169886 70.43802 
L 340.513101 67.663135 
L 341.199533 71.194807 
L 341.542748 70.059627 
L 341.885964 69.555102 
L 342.572395 71.320938 
L 343.258826 70.816414 
L 343.602042 71.825463 
L 343.945258 69.30284 
L 344.288473 68.798315 
L 344.631689 67.915397 
L 344.974905 68.16766 
L 345.31812 70.059627 
L 345.661336 67.284742 
L 346.004552 70.690283 
L 346.347767 69.681233 
L 346.690983 70.690283 
L 347.034199 67.537004 
L 347.377414 69.681233 
L 347.72063 69.681233 
L 348.407061 66.275693 
L 349.093492 67.537004 
L 349.436708 69.30284 
L 349.779924 68.546053 
L 350.123139 65.392775 
L 351.152786 68.546053 
L 351.496002 66.401824 
L 352.182433 69.30284 
L 352.525649 65.771168 
L 352.868865 67.537004 
L 353.21208 68.419922 
L 353.555296 66.654086 
L 353.898512 69.681233 
L 354.241727 67.410873 
L 354.584943 71.699332 
L 354.928158 67.915397 
L 355.271374 69.555102 
L 355.61459 69.176709 
L 355.957805 66.02343 
L 356.301021 68.798315 
L 356.644237 68.546053 
L 357.330668 66.527955 
L 357.673884 68.419922 
L 358.017099 67.158611 
L 358.703531 68.924447 
L 359.046746 69.555102 
L 359.389962 68.924447 
L 359.733178 65.518906 
L 360.076393 68.419922 
L 360.419609 66.02343 
L 360.762824 69.30284 
L 361.10604 67.537004 
L 361.449256 70.690283 
L 361.792471 64.257594 
L 362.135687 68.798315 
L 362.478903 65.518906 
L 362.822118 66.780217 
L 363.165334 67.158611 
L 363.50855 68.924447 
L 363.851765 68.924447 
L 364.194981 69.30284 
L 364.538197 68.798315 
L 364.881412 66.654086 
L 365.224628 65.771168 
L 365.911059 68.041529 
L 366.254275 69.050578 
L 366.59749 66.527955 
L 366.940706 67.284742 
L 367.283922 67.284742 
L 367.627137 66.654086 
L 367.970353 65.771168 
L 368.313569 68.293791 
L 368.656784 65.140512 
L 369.343216 67.915397 
L 369.686431 68.546053 
L 370.029647 67.158611 
L 370.372863 68.419922 
L 370.716078 67.537004 
L 371.059294 68.419922 
L 371.40251 67.158611 
L 371.745725 67.032479 
L 372.088941 66.275693 
L 372.432156 63.879201 
L 372.775372 65.771168 
L 373.118588 66.906348 
L 373.461803 67.032479 
L 373.805019 64.88825 
L 374.148235 69.050578 
L 374.49145 65.645037 
L 374.834666 67.537004 
L 375.177882 65.392775 
L 375.521097 64.762119 
L 375.864313 66.527955 
L 376.207529 66.654086 
L 376.550744 67.537004 
L 377.237176 64.635988 
L 377.580391 68.924447 
L 377.923607 67.915397 
L 378.266822 66.401824 
L 378.610038 66.780217 
L 378.953254 68.419922 
L 379.296469 65.645037 
L 379.639685 65.392775 
L 379.982901 67.284742 
L 380.326116 67.284742 
L 380.669332 68.798315 
L 381.012548 67.284742 
L 381.355763 62.870152 
L 381.698979 65.771168 
L 382.38541 67.537004 
L 382.728626 65.518906 
L 383.071842 65.140512 
L 383.415057 66.527955 
L 383.758273 66.654086 
L 384.101488 65.266643 
L 384.444704 66.654086 
L 384.78792 65.771168 
L 385.131135 66.02343 
L 385.474351 68.419922 
L 385.817567 66.654086 
L 386.160782 67.410873 
L 386.503998 64.88825 
L 386.847214 67.032479 
L 387.533645 66.780217 
L 387.876861 68.041529 
L 388.220076 64.257594 
L 388.563292 65.392775 
L 388.906508 63.500807 
L 389.249723 64.509857 
L 389.592939 64.88825 
L 389.936155 67.789266 
L 390.622586 65.266643 
L 390.965801 67.032479 
L 391.652233 63.879201 
L 391.995448 66.401824 
L 392.338664 65.771168 
L 393.025095 66.401824 
L 393.368311 64.88825 
L 393.711527 62.870152 
L 394.054742 63.122414 
L 394.397958 65.897299 
L 394.741174 65.392775 
L 395.084389 67.032479 
L 395.427605 66.527955 
L 395.770821 64.509857 
L 396.114036 64.131463 
L 396.457252 66.149561 
L 396.800467 63.75307 
L 397.143683 66.275693 
L 397.486899 64.131463 
L 397.830114 65.771168 
L 398.17333 65.266643 
L 398.516546 65.897299 
L 398.859761 64.509857 
L 399.202977 65.392775 
L 399.546193 63.626939 
L 399.889408 64.257594 
L 400.232624 63.122414 
L 400.57584 63.374676 
L 401.262271 66.906348 
L 401.605487 67.537004 
L 401.948702 63.248545 
L 402.291918 66.149561 
L 402.635133 65.392775 
L 402.978349 62.996283 
L 403.321565 66.02343 
L 403.66478 62.744021 
L 404.007996 65.645037 
L 404.351212 65.266643 
L 404.694427 65.645037 
L 405.037643 66.527955 
L 405.724074 62.239496 
L 406.410506 65.140512 
L 406.753721 65.266643 
L 407.096937 65.897299 
L 407.440153 61.861103 
L 407.783368 66.906348 
L 408.126584 65.266643 
L 408.469799 66.401824 
L 408.813015 66.780217 
L 409.156231 63.122414 
L 409.499446 64.131463 
L 409.842662 64.131463 
L 410.185878 65.771168 
L 410.529093 64.88825 
L 410.872309 66.654086 
L 411.215525 65.771168 
L 411.55874 64.509857 
L 411.901956 65.518906 
L 412.245172 65.014381 
L 412.588387 66.275693 
L 412.931603 65.266643 
L 413.274819 67.032479 
L 413.96125 66.149561 
L 414.304465 63.75307 
L 414.647681 65.266643 
L 414.990897 65.266643 
L 415.334112 63.374676 
L 415.677328 64.762119 
L 416.020544 65.266643 
L 416.363759 65.518906 
L 416.706975 64.005332 
L 417.050191 63.75307 
L 417.393406 64.635988 
L 418.079838 62.617889 
L 418.423053 64.257594 
L 418.766269 63.75307 
L 419.109485 62.870152 
L 419.4527 64.509857 
L 419.795916 65.518906 
L 420.139132 64.635988 
L 420.482347 63.122414 
L 420.825563 64.005332 
L 421.168778 62.239496 
L 421.85521 64.383725 
L 422.198425 64.383725 
L 422.884857 62.996283 
L 423.228072 62.870152 
L 423.571288 62.996283 
L 423.914504 62.113365 
L 424.257719 65.014381 
L 424.600935 62.870152 
L 424.944151 63.248545 
L 425.287366 62.870152 
L 425.630582 63.500807 
L 425.973798 63.500807 
L 426.317013 62.744021 
L 426.660229 62.491758 
L 427.003444 64.509857 
L 427.34666 63.122414 
L 427.689876 63.248545 
L 428.033091 63.626939 
L 428.376307 60.47366 
L 428.719523 64.635988 
L 429.062738 61.734971 
L 429.405954 64.257594 
L 429.74917 62.113365 
L 430.092385 64.509857 
L 430.435601 64.383725 
L 430.778817 64.383725 
L 431.122032 62.113365 
L 431.465248 64.383725 
L 431.808464 62.744021 
L 432.151679 62.870152 
L 432.494895 65.392775 
L 432.83811 63.248545 
L 433.181326 64.005332 
L 433.524542 62.996283 
L 433.867757 64.509857 
L 434.210973 61.104316 
L 434.554189 64.131463 
L 434.897404 64.005332 
L 435.24062 62.365627 
L 435.583836 63.626939 
L 435.927051 61.734971 
L 436.270267 62.491758 
L 436.613483 62.744021 
L 436.956698 63.248545 
L 437.299914 64.88825 
L 437.986345 61.482709 
L 438.329561 63.248545 
L 438.672776 61.356578 
L 439.015992 64.383725 
L 439.359208 61.987234 
L 439.702423 64.509857 
L 440.045639 60.599791 
L 440.388855 63.626939 
L 440.73207 62.491758 
L 441.075286 64.383725 
L 441.418502 63.879201 
L 441.761717 62.617889 
L 442.104933 62.239496 
L 442.448149 65.897299 
L 443.13458 61.734971 
L 443.477796 61.987234 
L 443.821011 63.374676 
L 444.164227 63.374676 
L 444.507442 62.239496 
L 444.850658 65.771168 
L 445.193874 62.617889 
L 445.537089 61.987234 
L 445.880305 64.635988 
L 446.223521 64.131463 
L 446.566736 62.113365 
L 446.909952 64.005332 
L 447.253168 63.626939 
L 447.596383 62.617889 
L 447.939599 65.140512 
L 448.282815 62.491758 
L 448.62603 62.365627 
L 448.969246 61.60884 
L 449.312462 60.47366 
L 449.655677 65.014381 
L 449.998893 64.383725 
L 450.342109 61.861103 
L 450.685324 62.365627 
L 451.02854 62.113365 
L 451.371755 62.113365 
L 451.714971 63.122414 
L 452.058187 64.88825 
L 452.401402 61.356578 
L 452.744618 61.230447 
L 453.431049 61.861103 
L 453.774265 61.734971 
L 454.117481 62.870152 
L 454.460696 61.104316 
L 454.803912 61.482709 
L 455.147128 61.356578 
L 455.490343 64.131463 
L 455.833559 61.987234 
L 456.176775 63.248545 
L 456.51999 62.491758 
L 456.863206 67.158611 
L 457.206421 63.122414 
L 457.549637 62.996283 
L 457.892853 61.861103 
L 458.236068 62.870152 
L 458.579284 61.987234 
L 458.9225 61.482709 
L 459.265715 60.599791 
L 459.952147 62.996283 
L 460.295362 62.365627 
L 460.638578 61.987234 
L 460.981794 62.239496 
L 461.325009 61.734971 
L 461.668225 60.599791 
L 462.011441 61.861103 
L 462.697872 63.374676 
L 463.041087 62.365627 
L 463.727519 62.365627 
L 464.070734 61.104316 
L 464.41395 61.230447 
L 464.757166 61.60884 
L 465.100381 61.230447 
L 465.443597 63.248545 
L 466.130028 60.347529 
L 466.473244 62.491758 
L 466.81646 61.356578 
L 467.159675 61.734971 
L 467.502891 61.60884 
L 467.846107 61.104316 
L 468.189322 63.500807 
L 468.532538 59.464611 
L 468.875753 61.230447 
L 469.218969 62.239496 
L 469.562185 62.870152 
L 469.9054 61.861103 
L 470.591832 60.978185 
L 470.935047 61.104316 
L 471.278263 60.725922 
L 471.621479 62.113365 
L 471.964694 62.491758 
L 472.30791 62.113365 
L 472.651126 60.095267 
L 472.994341 62.996283 
L 473.337557 60.347529 
L 473.680773 61.734971 
L 474.023988 60.599791 
L 474.367204 62.617889 
L 474.710419 60.978185 
L 475.053635 61.230447 
L 475.396851 62.870152 
L 475.740066 61.356578 
L 476.083282 61.60884 
L 476.426498 62.239496 
L 476.769713 60.978185 
L 477.112929 64.762119 
L 477.456145 62.239496 
L 478.142576 60.347529 
L 478.485792 61.987234 
L 478.829007 62.996283 
L 479.172223 60.978185 
L 479.515439 60.47366 
L 479.858654 61.60884 
L 480.20187 63.374676 
L 480.545085 60.978185 
L 480.888301 59.843004 
L 481.231517 62.491758 
L 481.574732 61.60884 
L 481.917948 60.095267 
L 482.261164 61.230447 
L 482.604379 63.500807 
L 483.290811 60.221398 
L 483.634026 60.599791 
L 483.977242 61.734971 
L 484.320458 62.239496 
L 484.663673 62.239496 
L 485.006889 60.599791 
L 485.350105 60.095267 
L 485.69332 59.086217 
L 486.036536 62.617889 
L 486.379752 61.861103 
L 486.722967 60.47366 
L 487.066183 59.969135 
L 487.409398 61.734971 
L 487.752614 60.47366 
L 488.09583 63.626939 
L 488.439045 60.725922 
L 488.782261 59.086217 
L 489.125477 59.716873 
L 489.468692 61.861103 
L 489.811908 60.347529 
L 490.155124 62.491758 
L 490.498339 61.482709 
L 490.841555 59.716873 
L 491.184771 59.212349 
L 491.527986 60.095267 
L 491.871202 61.861103 
L 492.557633 60.599791 
L 492.900849 59.716873 
L 493.244064 60.347529 
L 493.58728 60.221398 
L 493.930496 61.734971 
L 494.616927 60.599791 
L 494.960143 59.086217 
L 495.646574 62.113365 
L 495.98979 60.347529 
L 496.333005 59.464611 
L 496.676221 59.590742 
L 497.019437 61.60884 
L 497.362652 61.356578 
L 497.705868 60.725922 
L 498.049084 60.47366 
L 498.392299 60.725922 
L 498.735515 60.347529 
L 499.421946 61.104316 
L 500.108377 58.833955 
L 500.451593 61.230447 
L 500.794809 58.960086 
L 501.138024 62.113365 
L 501.48124 61.987234 
L 501.824456 60.599791 
L 502.167671 60.599791 
L 502.510887 60.221398 
L 502.854103 60.095267 
L 503.197318 58.203299 
L 503.540534 61.356578 
L 503.88375 60.599791 
L 504.226965 61.104316 
L 504.570181 61.104316 
L 504.913396 59.086217 
L 505.256612 60.47366 
L 505.599828 60.978185 
L 506.286259 62.996283 
L 506.97269 59.33848 
L 507.315906 61.104316 
L 507.659122 62.113365 
L 508.002337 61.482709 
L 508.345553 60.095267 
L 508.688769 61.230447 
L 509.031984 61.482709 
L 509.3752 59.590742 
L 509.718416 60.978185 
L 510.061631 60.852053 
L 510.404847 60.095267 
L 510.748062 60.095267 
L 511.434494 59.464611 
L 511.777709 60.095267 
L 512.120925 59.086217 
L 512.464141 62.491758 
L 512.807356 59.086217 
L 513.150572 58.581693 
L 513.493788 59.086217 
L 513.837003 60.47366 
L 514.180219 59.969135 
L 514.523435 59.086217 
L 515.209866 62.744021 
L 515.896297 60.221398 
L 516.239513 59.843004 
L 516.582729 60.599791 
L 516.925944 60.978185 
L 517.26916 59.086217 
L 517.612375 60.852053 
L 517.955591 59.33848 
L 518.298807 60.221398 
L 518.642022 60.095267 
L 518.985238 58.960086 
L 519.328454 60.852053 
L 519.671669 59.969135 
L 520.014885 60.725922 
L 520.358101 62.113365 
L 520.701316 59.212349 
L 521.044532 60.978185 
L 521.387748 61.861103 
L 521.730963 59.086217 
L 522.074179 61.482709 
L 522.417395 61.987234 
L 522.76061 57.320381 
L 523.103826 60.095267 
L 523.447041 59.969135 
L 523.790257 60.599791 
L 524.133473 60.221398 
L 524.819904 61.104316 
L 525.506335 60.47366 
L 525.849551 58.329431 
L 526.192767 59.716873 
L 526.535982 60.47366 
L 526.879198 60.47366 
L 527.222414 59.086217 
L 527.565629 59.086217 
L 528.252061 62.617889 
L 528.595276 59.212349 
L 528.938492 58.077168 
L 529.281707 57.951037 
L 529.968139 59.969135 
L 530.311354 59.843004 
L 530.65457 60.221398 
L 530.997786 58.707824 
L 531.341001 60.852053 
L 531.684217 58.077168 
L 532.027433 60.599791 
L 532.370648 59.33848 
L 532.713864 60.347529 
L 533.05708 59.33848 
L 533.400295 61.861103 
L 533.743511 60.347529 
L 534.086727 60.221398 
L 534.429942 59.590742 
L 534.773158 58.329431 
L 535.116373 58.077168 
L 535.459589 60.221398 
L 535.802805 60.347529 
L 536.14602 60.725922 
L 536.489236 60.095267 
L 536.832452 61.734971 
L 537.175667 59.33848 
L 537.518883 57.951037 
L 538.205314 59.716873 
L 538.54853 60.095267 
L 538.891746 61.60884 
L 539.234961 59.843004 
L 539.578177 59.086217 
L 539.921393 60.095267 
L 540.264608 58.707824 
L 540.951039 60.599791 
L 541.294255 59.969135 
L 541.637471 58.960086 
L 541.980686 59.212349 
L 542.323902 59.716873 
L 542.667118 59.969135 
L 543.010333 58.960086 
L 543.353549 59.212349 
L 543.696765 60.599791 
L 544.03998 59.969135 
L 544.383196 59.843004 
L 544.726412 60.095267 
L 545.412843 57.951037 
L 545.756059 60.599791 
L 546.099274 59.590742 
L 546.44249 60.095267 
L 547.128921 58.581693 
L 547.472137 59.843004 
L 547.815352 59.969135 
L 548.158568 58.707824 
L 548.501784 59.969135 
L 548.844999 60.221398 
L 549.188215 58.203299 
L 549.531431 58.960086 
L 549.874646 60.47366 
L 550.217862 57.824906 
L 550.561078 59.969135 
L 550.904293 58.203299 
L 551.590725 60.221398 
L 551.93394 59.590742 
L 552.277156 59.212349 
L 552.620372 58.581693 
L 552.963587 59.086217 
L 553.306803 59.086217 
L 553.650018 59.843004 
L 553.993234 59.212349 
L 554.33645 60.221398 
L 555.022881 59.212349 
L 555.366097 60.347529 
L 555.709312 58.707824 
L 556.052528 59.33848 
L 556.395744 59.33848 
L 556.738959 58.707824 
L 557.082175 59.33848 
L 557.425391 58.960086 
L 557.768606 60.221398 
L 558.111822 60.095267 
L 558.455038 57.824906 
L 558.798253 58.203299 
L 559.141469 61.60884 
L 559.484684 58.707824 
L 559.8279 58.707824 
L 560.171116 60.095267 
L 560.514331 59.590742 
L 560.857547 58.203299 
L 561.200763 57.824906 
L 561.543978 60.095267 
L 561.887194 57.572644 
L 562.23041 59.969135 
L 562.573625 59.33848 
L 562.916841 57.572644 
L 563.260057 58.455562 
L 563.603272 57.824906 
L 563.946488 59.590742 
L 564.289704 60.221398 
L 564.632919 59.212349 
L 564.976135 57.824906 
L 565.31935 58.077168 
L 565.662566 58.077168 
L 566.005782 59.969135 
L 566.348997 57.824906 
L 567.035429 59.464611 
L 567.378644 58.581693 
L 567.72186 58.329431 
L 568.065076 58.581693 
L 568.408291 58.329431 
L 568.751507 60.095267 
L 569.094723 58.833955 
L 569.437938 60.221398 
L 569.781154 57.572644 
L 570.12437 59.212349 
L 570.467585 60.095267 
L 571.154016 58.960086 
L 571.497232 59.086217 
L 571.840448 57.572644 
L 572.183663 58.833955 
L 572.526879 58.329431 
L 572.870095 58.455562 
L 573.21331 59.843004 
L 573.556526 58.707824 
L 573.899742 58.707824 
L 574.242957 57.698775 
L 574.586173 59.212349 
L 574.929389 59.969135 
L 575.272604 59.590742 
L 575.61582 58.960086 
L 575.959036 61.230447 
L 576.302251 58.960086 
L 576.645467 57.698775 
L 576.988682 57.698775 
L 577.331898 59.969135 
L 577.675114 56.815857 
L 578.018329 58.077168 
L 578.361545 58.833955 
L 578.704761 58.455562 
L 579.047976 58.833955 
L 579.391192 58.077168 
L 579.734408 58.203299 
L 580.077623 58.203299 
L 580.420839 59.464611 
L 580.764055 57.446513 
L 581.10727 58.707824 
L 581.450486 59.212349 
L 581.793702 58.581693 
L 582.136917 58.960086 
L 582.480133 58.707824 
L 582.823349 57.320381 
L 583.166564 57.19425 
L 583.50978 58.960086 
L 583.852995 56.815857 
L 584.196211 57.698775 
L 584.539427 57.698775 
L 584.882642 59.590742 
L 585.225858 57.446513 
L 585.569074 57.572644 
L 585.912289 58.077168 
L 586.255505 59.464611 
L 586.598721 58.833955 
L 586.941936 59.33848 
L 587.285152 57.698775 
L 587.628368 56.815857 
L 587.971583 58.833955 
L 588.314799 57.951037 
L 589.00123 59.843004 
L 589.344446 57.320381 
L 589.687661 58.707824 
L 590.030877 59.086217 
L 590.374093 57.951037 
L 590.717308 59.086217 
L 591.060524 56.563595 
L 591.40374 59.33848 
L 591.746955 59.716873 
L 592.090171 58.960086 
L 592.433387 58.581693 
L 592.776602 57.446513 
L 593.119818 58.581693 
L 593.463034 58.581693 
L 593.806249 58.707824 
L 594.149465 58.077168 
L 594.492681 56.563595 
L 594.835896 57.951037 
L 595.179112 58.329431 
L 595.522327 58.455562 
L 595.865543 56.689726 
L 596.208759 57.572644 
L 596.551974 59.086217 
L 596.89519 57.572644 
L 597.238406 59.590742 
L 597.581621 57.19425 
L 597.924837 57.320381 
L 598.268053 56.941988 
L 598.611268 55.554545 
L 598.954484 57.951037 
L 599.2977 58.203299 
L 599.640915 58.833955 
L 599.984131 59.086217 
L 600.327347 57.572644 
L 600.670562 57.572644 
L 601.013778 58.960086 
L 601.356993 58.203299 
L 602.043425 58.833955 
L 602.38664 58.077168 
L 602.729856 56.563595 
L 603.073072 59.212349 
L 603.416287 57.19425 
L 603.759503 57.068119 
L 604.102719 57.320381 
L 604.445934 58.329431 
L 604.78915 58.707824 
L 605.132366 57.824906 
L 605.475581 57.824906 
L 605.818797 58.455562 
L 606.162013 57.19425 
L 606.505228 57.698775 
L 606.848444 56.563595 
L 607.191659 57.951037 
L 607.534875 56.689726 
L 608.221306 58.833955 
L 608.564522 57.572644 
L 608.907738 57.068119 
L 609.250953 59.086217 
L 609.594169 58.455562 
L 609.937385 57.572644 
L 610.2806 57.446513 
L 610.623816 57.446513 
L 610.967032 57.824906 
L 611.310247 57.698775 
L 611.653463 60.221398 
L 612.339894 56.689726 
L 612.68311 58.455562 
L 613.026326 55.932939 
L 613.369541 56.941988 
L 613.712757 56.815857 
L 614.055972 57.446513 
L 614.399188 57.824906 
L 614.742404 57.951037 
L 615.085619 57.951037 
L 615.428835 57.19425 
L 615.772051 58.960086 
L 616.115266 56.563595 
L 616.458482 56.689726 
L 616.801698 55.554545 
L 617.144913 58.960086 
L 617.488129 57.446513 
L 617.831345 56.689726 
L 618.17456 57.068119 
L 618.517776 58.581693 
L 618.860992 57.951037 
L 619.204207 57.572644 
L 619.890638 58.581693 
L 620.233854 56.941988 
L 620.57707 56.815857 
L 620.920285 59.212349 
L 621.263501 56.815857 
L 621.606717 57.698775 
L 621.949932 59.086217 
L 622.293148 58.455562 
L 622.636364 56.815857 
L 622.636364 56.815857 
" style="fill:none;stroke:#1f77b4;stroke-linecap:square;stroke-width:0.5;"/>
   </g>
   <g id="line2d_34">
    <path clip-path="url(#p50398c4fe7)" d="M 115.363636 300.375094 
L 115.706852 298.86152 
L 116.050068 301.636405 
L 116.393283 295.077586 
L 116.736499 297.72634 
L 117.079715 296.59116 
L 117.42293 297.474078 
L 117.766146 292.933357 
L 118.109362 291.041389 
L 118.452577 291.293652 
L 118.795793 293.059488 
L 119.482224 290.789127 
L 119.82544 288.518767 
L 120.168655 285.491619 
L 120.511871 292.050439 
L 120.855087 290.158471 
L 121.198302 286.248406 
L 121.541518 290.284603 
L 121.884734 279.815718 
L 122.227949 276.410177 
L 122.571165 292.428832 
L 122.914381 282.212209 
L 123.257596 283.473521 
L 123.600812 282.842865 
L 123.944028 275.65339 
L 124.287243 278.428275 
L 124.630459 272.500111 
L 124.973674 268.968439 
L 125.31689 271.364931 
L 125.660106 271.2388 
L 126.003321 265.815161 
L 126.346537 263.418669 
L 126.689753 266.067423 
L 127.032968 261.905095 
L 127.376184 262.788013 
L 127.7194 252.949784 
L 128.062615 255.220145 
L 128.749047 250.805555 
L 129.092262 247.400014 
L 129.435478 246.012571 
L 129.778694 242.354768 
L 130.121909 235.669818 
L 130.465125 244.877391 
L 131.151556 235.039162 
L 131.494772 238.066309 
L 131.837987 235.92208 
L 132.181203 231.50749 
L 132.524419 225.074802 
L 132.867634 225.831588 
L 133.21085 224.822539 
L 133.554066 221.54313 
L 133.897281 228.606474 
L 134.240497 216.876277 
L 134.583713 214.227523 
L 134.926928 217.885326 
L 135.270144 212.840081 
L 135.61336 212.335556 
L 135.956575 213.092343 
L 136.299791 216.624015 
L 136.986222 205.146081 
L 137.329438 210.317458 
L 137.672653 206.15513 
L 138.015869 208.803884 
L 138.359085 204.893819 
L 138.7023 205.650606 
L 139.045516 199.091786 
L 139.388732 195.560114 
L 139.731947 202.623458 
L 140.075163 205.650606 
L 140.418379 196.947557 
L 140.761594 198.713393 
L 141.10481 195.05559 
L 141.448026 195.181721 
L 141.791241 190.767131 
L 142.134457 192.91136 
L 142.477673 196.443032 
L 142.820888 198.713393 
L 143.507319 190.641 
L 143.850535 193.920409 
L 144.193751 192.406836 
L 144.536966 190.262606 
L 144.880182 191.902311 
L 145.223398 187.739983 
L 145.566613 187.739983 
L 145.909829 190.767131 
L 146.253045 189.884213 
L 146.59626 188.49677 
L 146.939476 184.208311 
L 147.282692 183.325393 
L 147.625907 185.595754 
L 147.969123 182.694738 
L 148.312339 186.730934 
L 148.655554 182.316344 
L 148.99877 181.433426 
L 149.341985 181.307295 
L 149.685201 181.307295 
L 150.028417 181.937951 
L 150.371632 178.154016 
L 150.714848 178.784672 
L 151.058064 178.53241 
L 151.401279 182.568606 
L 151.744495 181.81182 
L 152.087711 177.901754 
L 152.430926 179.541459 
L 152.774142 177.775623 
L 153.117358 174.370082 
L 153.460573 179.163066 
L 153.803789 178.784672 
L 154.147005 176.892705 
L 154.49022 177.649492 
L 154.833436 175.757525 
L 155.176651 175.000738 
L 155.519867 175.253 
L 155.863083 179.919852 
L 156.206298 175.379131 
L 156.549514 172.98264 
L 156.89273 172.351984 
L 157.235945 173.487164 
L 157.579161 174.11782 
L 157.922377 169.70323 
L 158.265592 171.342935 
L 158.608808 166.297689 
L 158.952024 172.225853 
L 159.295239 173.991689 
L 159.638455 173.613295 
L 159.981671 172.730377 
L 160.668102 161.756968 
L 161.011318 168.063525 
L 161.354533 170.207754 
L 162.040964 165.28864 
L 162.38418 166.42382 
L 162.727396 166.297689 
L 163.070611 162.766017 
L 163.413827 167.559 
L 163.757043 162.892148 
L 164.100258 164.15346 
L 164.443474 164.784115 
L 164.78669 162.513755 
L 165.129905 162.766017 
L 165.473121 160.243394 
L 165.816337 161.756968 
L 166.159552 159.234345 
L 166.502768 163.775066 
L 166.845984 164.027328 
L 167.189199 159.108214 
L 167.87563 160.243394 
L 168.218846 157.216247 
L 168.562062 155.954935 
L 168.905277 157.216247 
L 169.248493 156.081066 
L 169.591709 157.090116 
L 169.934924 157.59464 
L 170.27814 154.567493 
L 170.621356 153.053919 
L 170.964571 153.684575 
L 171.307787 150.152903 
L 171.651003 157.216247 
L 172.337434 149.522247 
L 172.68065 149.143854 
L 173.023865 147.63028 
L 173.367081 152.423263 
L 173.710296 152.549394 
L 174.053512 146.873493 
L 174.396728 150.90969 
L 174.739943 147.882542 
L 175.083159 151.161952 
L 175.426375 149.522247 
L 175.76959 145.612182 
L 176.112806 150.279034 
L 176.456022 146.747362 
L 176.799237 148.008673 
L 177.485669 145.864444 
L 177.828884 141.323723 
L 178.1721 149.648378 
L 178.858531 142.837296 
L 179.201747 144.855395 
L 179.544962 142.458903 
L 179.888178 143.467952 
L 180.231394 145.864444 
L 180.574609 138.296575 
L 180.917825 140.440805 
L 181.261041 143.720214 
L 181.604256 137.66592 
L 181.947472 138.170444 
L 182.290688 141.07146 
L 182.633903 139.431756 
L 182.977119 135.900084 
L 183.320335 135.52169 
L 183.66355 143.21569 
L 184.006766 137.287526 
L 184.349982 137.792051 
L 184.693197 134.38651 
L 185.036413 136.404608 
L 185.379628 133.25133 
L 185.722844 135.269428 
L 186.06606 136.530739 
L 186.409275 136.404608 
L 186.752491 130.350313 
L 187.095707 134.260379 
L 187.438922 134.764903 
L 187.782138 128.458346 
L 188.125354 133.377461 
L 188.468569 129.467395 
L 188.811785 132.872936 
L 189.155001 132.368412 
L 189.498216 129.467395 
L 189.841432 132.872936 
L 190.184648 130.224182 
L 190.527863 128.83674 
L 190.871079 128.83674 
L 191.214295 128.206084 
L 191.55751 128.206084 
L 191.900726 127.449297 
L 192.243941 127.701559 
L 192.587157 125.55733 
L 192.930373 121.521133 
L 193.273588 124.296018 
L 193.616804 122.656314 
L 193.96002 120.00756 
L 194.303235 123.791494 
L 194.646451 123.791494 
L 194.989667 118.746248 
L 195.332882 121.521133 
L 195.676098 120.385953 
L 196.019314 123.160838 
L 196.362529 118.99851 
L 196.705745 120.259822 
L 197.048961 122.025658 
L 197.392176 118.872379 
L 197.735392 118.872379 
L 198.078607 119.881428 
L 198.421823 115.214576 
L 198.765039 118.367855 
L 199.108254 116.223625 
L 199.45147 118.872379 
L 199.794686 119.755297 
L 200.137901 118.367855 
L 200.481117 112.691953 
L 200.824333 116.097494 
L 201.167548 115.719101 
L 201.510764 115.845232 
L 201.85398 119.124642 
L 202.197195 116.223625 
L 202.540411 115.845232 
L 202.883627 115.845232 
L 203.226842 113.701002 
L 203.570058 114.710052 
L 203.913273 114.962314 
L 204.256489 111.430642 
L 204.599705 112.061298 
L 204.94292 111.935166 
L 205.286136 112.439691 
L 205.629352 114.710052 
L 205.972567 114.58392 
L 206.315783 111.304511 
L 206.658999 114.331658 
L 207.002214 113.574871 
L 207.34543 111.809035 
L 207.688646 110.926117 
L 208.031861 118.367855 
L 208.375077 112.565822 
L 208.718293 111.556773 
L 209.061508 106.637658 
L 209.404724 109.286412 
L 209.747939 114.079396 
L 210.091155 105.628609 
L 210.434371 109.286412 
L 210.777586 110.295462 
L 211.120802 112.187429 
L 211.464018 109.538675 
L 211.807233 109.412544 
L 212.150449 107.772839 
L 212.493665 107.772839 
L 212.83688 108.529626 
L 213.180096 110.16933 
L 213.523312 105.376347 
L 213.866527 104.493429 
L 214.552959 108.025101 
L 214.896174 110.547724 
L 215.23939 104.493429 
L 215.582605 109.790937 
L 215.925821 110.421593 
L 216.269037 104.493429 
L 216.612252 109.538675 
L 216.955468 101.970806 
L 217.985115 106.637658 
L 218.328331 103.862773 
L 218.671546 107.268314 
L 219.014762 102.853724 
L 219.357978 105.880872 
L 220.044409 100.961757 
L 220.387625 101.466281 
L 220.73084 106.259265 
L 221.074056 109.03415 
L 221.417271 102.096937 
L 221.760487 105.250216 
L 222.103703 106.133134 
L 222.446918 102.349199 
L 222.790134 103.232117 
L 223.13335 103.232117 
L 223.476565 103.358249 
L 223.819781 104.367298 
L 224.506212 105.75474 
L 224.849428 105.250216 
L 225.535859 99.195921 
L 225.879075 100.835626 
L 226.222291 100.583363 
L 226.565506 101.592413 
L 226.908722 103.862773 
L 227.251938 98.565265 
L 227.595153 103.862773 
L 227.938369 101.970806 
L 228.281584 101.466281 
L 228.6248 100.583363 
L 228.968016 100.078839 
L 229.654447 100.835626 
L 229.997663 101.970806 
L 230.340878 97.934609 
L 230.684094 98.943659 
L 231.02731 97.934609 
L 231.370525 101.214019 
L 231.713741 96.547167 
L 232.056957 98.817527 
L 232.743388 100.583363 
L 233.086604 96.92556 
L 233.429819 97.177823 
L 233.773035 99.574314 
L 234.11625 95.285855 
L 234.459466 100.078839 
L 234.802682 98.943659 
L 235.145897 98.439134 
L 235.489113 98.691396 
L 235.832329 97.303954 
L 236.175544 99.448183 
L 236.51876 99.448183 
L 236.861976 93.015495 
L 237.205191 99.574314 
L 237.548407 98.186872 
L 237.891623 100.457232 
L 238.234838 98.817527 
L 238.92127 98.313003 
L 239.264485 96.042642 
L 239.607701 96.294905 
L 239.950916 99.322052 
L 240.294132 98.439134 
L 240.637348 95.411987 
L 241.323779 98.313003 
L 241.666995 96.042642 
L 242.01021 97.303954 
L 242.353426 94.781331 
L 242.696642 96.294905 
L 243.039857 95.79038 
L 243.383073 94.024544 
L 243.726289 95.033593 
L 244.069504 95.664249 
L 244.41272 92.637101 
L 244.755936 93.520019 
L 245.099151 93.267757 
L 245.442367 96.421036 
L 245.785582 93.898413 
L 246.128798 98.943659 
L 246.472014 95.285855 
L 246.815229 93.141626 
L 247.158445 94.024544 
L 247.501661 93.520019 
L 247.844876 98.691396 
L 248.188092 95.159724 
L 248.531308 96.168773 
L 248.874523 98.313003 
L 249.217739 96.799429 
L 249.560955 93.393888 
L 249.90417 94.402937 
L 250.247386 92.763233 
L 250.590602 93.393888 
L 250.933817 94.402937 
L 251.277033 93.015495 
L 251.620248 94.276806 
L 251.963464 94.402937 
L 252.30668 94.6552 
L 252.649895 93.898413 
L 252.993111 96.673298 
L 253.336327 93.015495 
L 253.679542 94.024544 
L 254.022758 91.37579 
L 254.365974 91.123528 
L 254.709189 93.141626 
L 255.052405 93.393888 
L 255.395621 90.997397 
L 255.738836 91.880315 
L 256.082052 90.24061 
L 256.425268 93.772282 
L 257.111699 91.501921 
L 257.454915 92.006446 
L 257.79813 92.258708 
L 258.141346 90.492872 
L 258.484561 90.997397 
L 258.827777 93.267757 
L 259.170993 94.781331 
L 259.514208 89.105429 
L 259.857424 90.997397 
L 260.20064 92.132577 
L 260.543855 91.880315 
L 260.887071 92.006446 
L 261.230287 93.772282 
L 261.573502 90.745134 
L 261.916718 90.366741 
L 262.259934 92.384839 
L 262.603149 92.637101 
L 262.946365 89.988347 
L 263.289581 89.862216 
L 263.632796 94.024544 
L 263.976012 87.591856 
L 264.319227 90.745134 
L 264.662443 89.736085 
L 265.005659 93.898413 
L 265.348874 90.24061 
L 265.69209 94.024544 
L 266.035306 93.393888 
L 266.721737 89.736085 
L 267.064953 89.231561 
L 267.751384 89.988347 
L 268.0946 88.474774 
L 268.437815 88.600905 
L 268.781031 87.717987 
L 269.124247 90.114479 
L 269.467462 89.736085 
L 269.810678 88.474774 
L 270.153893 90.24061 
L 270.497109 90.114479 
L 270.840325 88.853167 
L 271.18354 89.105429 
L 271.526756 89.609954 
L 272.213187 88.853167 
L 272.556403 93.141626 
L 272.899619 88.222511 
L 273.58605 88.474774 
L 273.929266 88.348643 
L 274.272481 90.619003 
L 274.615697 89.736085 
L 274.958913 88.348643 
L 275.302128 88.222511 
L 275.645344 89.357692 
L 275.988559 87.087331 
L 276.331775 90.492872 
L 276.674991 91.501921 
L 277.018206 88.474774 
L 277.361422 88.222511 
L 277.704638 89.105429 
L 278.047853 87.339593 
L 278.391069 84.186315 
L 278.734285 87.970249 
L 279.0775 87.339593 
L 279.420716 90.619003 
L 279.763932 87.087331 
L 280.107147 88.09638 
L 280.450363 90.366741 
L 280.793579 88.09638 
L 281.136794 89.862216 
L 281.48001 87.213462 
L 281.823225 88.727036 
L 282.166441 87.591856 
L 282.509657 88.600905 
L 282.852872 86.330544 
L 283.196088 87.717987 
L 283.539304 89.736085 
L 283.882519 85.447626 
L 284.225735 85.321495 
L 284.568951 86.9612 
L 284.912166 86.708938 
L 285.255382 88.348643 
L 285.598598 86.708938 
L 285.941813 84.438577 
L 286.285029 84.943102 
L 286.628245 84.564708 
L 286.97146 84.943102 
L 287.657891 87.717987 
L 288.001107 85.82602 
L 288.344323 87.465725 
L 288.687538 85.195364 
L 289.030754 86.330544 
L 289.717185 90.24061 
L 290.060401 86.9612 
L 290.403617 87.717987 
L 290.746832 84.060184 
L 291.090048 87.844118 
L 291.433264 90.366741 
L 291.776479 85.573757 
L 292.119695 85.069233 
L 292.462911 85.195364 
L 292.806126 85.069233 
L 293.149342 87.339593 
L 293.492558 88.222511 
L 293.835773 85.82602 
L 294.86542 84.438577 
L 295.208636 85.195364 
L 295.551851 85.447626 
L 295.895067 86.835069 
L 296.238283 89.105429 
L 296.581498 85.699889 
L 296.924714 85.447626 
L 297.611145 88.474774 
L 297.954361 84.690839 
L 298.297577 85.321495 
L 298.640792 87.339593 
L 298.984008 85.195364 
L 299.327224 86.708938 
L 299.670439 85.069233 
L 300.013655 86.330544 
L 300.35687 86.456675 
L 300.700086 86.204413 
L 301.386517 83.934053 
L 301.729733 87.465725 
L 302.072949 85.573757 
L 302.416164 84.816971 
L 302.75938 88.600905 
L 303.102596 85.82602 
L 303.445811 84.438577 
L 303.789027 82.54661 
L 304.132243 85.195364 
L 304.475458 82.925003 
L 304.818674 83.177266 
L 305.16189 85.447626 
L 305.505105 83.177266 
L 305.848321 83.555659 
L 306.191536 86.078282 
L 306.534752 84.060184 
L 306.877968 83.68179 
L 307.221183 86.835069 
L 307.564399 86.204413 
L 307.907615 86.204413 
L 308.25083 84.060184 
L 308.594046 84.312446 
L 308.937262 85.573757 
L 309.280477 84.186315 
L 309.966909 85.069233 
L 310.310124 83.555659 
L 310.65334 83.934053 
L 311.339771 81.663692 
L 311.682987 85.573757 
L 312.026202 83.303397 
L 312.369418 86.9612 
L 312.712634 86.078282 
L 313.399065 83.807921 
L 313.742281 83.429528 
L 314.085496 82.798872 
L 314.428712 84.816971 
L 314.771928 82.798872 
L 315.115143 83.555659 
L 315.458359 85.82602 
L 315.801575 86.456675 
L 316.14479 84.943102 
L 316.488006 82.925003 
L 316.831222 85.321495 
L 317.174437 82.294348 
L 317.517653 80.906905 
L 318.204084 83.303397 
L 318.890515 87.465725 
L 319.233731 86.330544 
L 319.576947 83.807921 
L 319.920162 83.177266 
L 320.263378 82.168217 
L 320.949809 85.069233 
L 321.293025 81.663692 
L 321.636241 82.54661 
L 322.322672 82.925003 
L 322.665888 83.807921 
L 323.009103 82.294348 
L 323.352319 82.168217 
L 323.695535 83.303397 
L 324.03875 87.465725 
L 324.381966 83.429528 
L 324.725181 82.042085 
L 325.068397 83.807921 
L 325.411613 82.925003 
L 325.754828 82.925003 
L 326.098044 83.807921 
L 326.44126 82.925003 
L 326.784475 83.177266 
L 327.470907 82.798872 
L 327.814122 82.168217 
L 328.157338 80.654643 
L 328.843769 82.420479 
L 329.186985 78.005889 
L 329.530201 81.41143 
L 329.873416 82.294348 
L 330.216632 84.312446 
L 330.559847 82.925003 
L 330.903063 83.051135 
L 331.246279 84.060184 
L 331.589494 83.68179 
L 331.93271 81.915954 
L 332.275926 84.060184 
L 332.619141 82.54661 
L 332.962357 84.312446 
L 333.305573 83.807921 
L 333.648788 83.555659 
L 333.992004 80.528512 
L 334.33522 85.069233 
L 334.678435 83.051135 
L 335.021651 82.54661 
L 335.364867 83.051135 
L 335.708082 80.906905 
L 336.051298 83.051135 
L 336.394513 83.177266 
L 337.080945 82.54661 
L 337.42416 83.934053 
L 337.767376 80.654643 
L 338.110592 83.429528 
L 338.453807 80.906905 
L 338.797023 83.303397 
L 339.140239 83.807921 
L 339.483454 78.888807 
L 339.82667 80.402381 
L 340.169886 84.312446 
L 340.513101 83.68179 
L 340.856317 82.672741 
L 341.199533 83.051135 
L 341.885964 80.654643 
L 342.229179 82.672741 
L 342.572395 83.177266 
L 342.915611 81.285299 
L 343.258826 81.915954 
L 343.602042 79.2672 
L 343.945258 84.312446 
L 344.288473 80.906905 
L 344.631689 81.537561 
L 344.974905 80.150118 
L 345.31812 82.168217 
L 346.004552 79.393331 
L 346.347767 84.690839 
L 346.690983 80.906905 
L 347.034199 81.789823 
L 347.377414 79.897856 
L 347.72063 81.159167 
L 348.063845 83.68179 
L 348.750277 80.906905 
L 349.093492 79.645594 
L 349.436708 81.033036 
L 349.779924 79.897856 
L 350.123139 80.654643 
L 350.466355 83.177266 
L 350.809571 80.906905 
L 351.152786 82.294348 
L 351.496002 82.168217 
L 351.839218 81.663692 
L 352.182433 81.663692 
L 352.525649 78.384282 
L 352.868865 81.915954 
L 353.21208 80.906905 
L 353.555296 81.285299 
L 353.898512 79.645594 
L 354.241727 80.906905 
L 354.584943 81.033036 
L 354.928158 82.420479 
L 355.271374 82.042085 
L 355.61459 79.141069 
L 355.957805 79.645594 
L 356.301021 79.771725 
L 356.644237 78.888807 
L 356.987452 82.672741 
L 357.673884 80.654643 
L 358.017099 80.276249 
L 358.703531 81.159167 
L 359.046746 79.897856 
L 359.389962 79.519463 
L 359.733178 79.897856 
L 360.076393 79.014938 
L 360.419609 80.023987 
L 360.762824 83.68179 
L 361.10604 81.41143 
L 361.449256 81.41143 
L 361.792471 79.141069 
L 362.135687 79.645594 
L 362.478903 82.294348 
L 362.822118 81.159167 
L 363.165334 83.429528 
L 363.50855 80.528512 
L 363.851765 80.402381 
L 364.194981 80.023987 
L 364.538197 79.897856 
L 364.881412 78.636545 
L 365.224628 80.906905 
L 365.567844 79.141069 
L 365.911059 82.168217 
L 366.254275 78.762676 
L 366.59749 78.384282 
L 366.940706 79.2672 
L 367.283922 78.888807 
L 367.627137 78.258151 
L 367.970353 81.033036 
L 368.656784 81.033036 
L 369 81.285299 
L 369.343216 83.68179 
L 369.686431 79.141069 
L 370.029647 78.510413 
L 370.372863 77.501364 
L 370.716078 79.014938 
L 371.059294 79.897856 
L 371.40251 76.366184 
L 372.088941 79.897856 
L 372.432156 79.519463 
L 372.775372 81.789823 
L 373.118588 80.276249 
L 373.461803 81.41143 
L 373.805019 79.014938 
L 374.148235 77.753627 
L 374.49145 79.897856 
L 374.834666 77.375233 
L 375.177882 77.501364 
L 375.521097 74.978741 
L 375.864313 80.276249 
L 376.207529 79.014938 
L 376.550744 80.654643 
L 376.89396 78.510413 
L 377.237176 79.771725 
L 377.580391 76.366184 
L 377.923607 80.906905 
L 378.266822 82.54661 
L 378.610038 83.177266 
L 378.953254 78.384282 
L 379.296469 78.636545 
L 379.639685 77.753627 
L 379.982901 79.519463 
L 380.326116 78.13202 
L 380.669332 77.375233 
L 381.355763 78.384282 
L 381.698979 80.150118 
L 382.042195 81.285299 
L 382.38541 77.879758 
L 382.728626 78.13202 
L 383.071842 81.285299 
L 383.415057 78.636545 
L 383.758273 79.2672 
L 384.101488 76.744577 
L 384.444704 75.861659 
L 384.78792 77.375233 
L 385.131135 76.618446 
L 385.474351 76.618446 
L 385.817567 79.771725 
L 386.160782 76.870709 
L 386.503998 77.501364 
L 386.847214 79.897856 
L 387.190429 78.762676 
L 387.533645 78.888807 
L 387.876861 75.987791 
L 388.220076 81.41143 
L 388.563292 79.2672 
L 389.249723 76.744577 
L 389.592939 80.528512 
L 389.936155 77.753627 
L 390.27937 82.798872 
L 390.622586 79.2672 
L 390.965801 79.897856 
L 391.309017 80.780774 
L 391.652233 79.014938 
L 391.995448 76.618446 
L 392.338664 80.276249 
L 392.68188 75.735528 
L 393.025095 79.014938 
L 393.711527 78.258151 
L 394.054742 78.13202 
L 394.397958 76.870709 
L 395.084389 79.2672 
L 395.427605 78.258151 
L 395.770821 80.528512 
L 396.114036 79.393331 
L 396.457252 77.501364 
L 396.800467 79.771725 
L 397.143683 79.393331 
L 397.486899 79.2672 
L 397.830114 77.375233 
L 398.17333 77.249102 
L 398.516546 79.2672 
L 398.859761 79.645594 
L 399.202977 80.906905 
L 399.546193 76.744577 
L 399.889408 76.870709 
L 400.232624 79.141069 
L 400.57584 77.249102 
L 400.919055 79.519463 
L 401.605487 75.483266 
L 401.948702 78.762676 
L 402.291918 77.249102 
L 402.635133 80.654643 
L 402.978349 77.753627 
L 403.321565 79.897856 
L 403.66478 81.285299 
L 404.007996 76.492315 
L 404.351212 78.636545 
L 404.694427 77.375233 
L 405.037643 78.005889 
L 405.380859 79.771725 
L 405.724074 78.005889 
L 406.06729 77.249102 
L 406.410506 77.627495 
L 406.753721 78.384282 
L 407.096937 75.483266 
L 407.783368 79.141069 
L 408.126584 77.627495 
L 408.469799 79.771725 
L 408.813015 76.618446 
L 409.156231 78.510413 
L 409.842662 76.870709 
L 410.185878 77.501364 
L 410.529093 80.276249 
L 410.872309 79.141069 
L 411.215525 79.645594 
L 411.55874 77.879758 
L 411.901956 76.99684 
L 412.588387 78.258151 
L 412.931603 77.501364 
L 413.274819 77.753627 
L 413.96125 77.122971 
L 414.304465 76.240053 
L 414.647681 76.240053 
L 414.990897 77.753627 
L 415.334112 78.13202 
L 415.677328 75.231004 
L 416.020544 77.753627 
L 416.706975 77.501364 
L 417.050191 76.744577 
L 417.393406 77.375233 
L 417.736622 78.762676 
L 418.079838 76.870709 
L 418.423053 75.735528 
L 418.766269 79.141069 
L 419.109485 75.483266 
L 419.4527 77.753627 
L 420.139132 75.735528 
L 420.482347 78.510413 
L 420.825563 75.104873 
L 421.168778 77.879758 
L 421.511994 76.366184 
L 421.85521 78.258151 
L 422.198425 76.492315 
L 422.541641 75.987791 
L 422.884857 76.870709 
L 423.228072 78.258151 
L 423.571288 77.627495 
L 424.257719 76.113922 
L 424.600935 75.861659 
L 424.944151 75.357135 
L 425.287366 78.13202 
L 425.630582 76.366184 
L 425.973798 76.744577 
L 426.317013 77.501364 
L 426.660229 73.465168 
L 427.003444 75.987791 
L 427.34666 76.744577 
L 427.689876 80.023987 
L 428.033091 76.618446 
L 428.376307 78.13202 
L 428.719523 78.636545 
L 429.062738 77.627495 
L 429.405954 77.753627 
L 429.74917 78.005889 
L 430.092385 77.375233 
L 430.435601 76.240053 
L 430.778817 76.113922 
L 431.122032 74.600348 
L 431.465248 78.005889 
L 432.494895 75.104873 
L 432.83811 76.492315 
L 433.181326 74.85261 
L 433.524542 75.609397 
L 433.867757 75.483266 
L 434.210973 77.122971 
L 434.897404 75.987791 
L 435.24062 76.366184 
L 435.583836 74.600348 
L 435.927051 83.051135 
L 436.270267 73.969692 
L 436.613483 74.221955 
L 436.956698 77.122971 
L 437.299914 74.348086 
L 437.64313 76.113922 
L 437.986345 75.231004 
L 438.329561 76.240053 
L 438.672776 76.870709 
L 439.015992 78.13202 
L 439.359208 76.99684 
L 439.702423 78.510413 
L 440.045639 76.113922 
L 440.388855 76.492315 
L 440.73207 73.591299 
L 441.418502 75.483266 
L 441.761717 76.492315 
L 442.104933 74.726479 
L 442.791364 78.258151 
L 443.13458 76.113922 
L 443.477796 77.627495 
L 443.821011 76.113922 
L 444.164227 75.735528 
L 444.507442 75.735528 
L 444.850658 78.636545 
L 445.193874 73.339037 
L 445.537089 77.753627 
L 445.880305 75.609397 
L 446.566736 76.870709 
L 446.909952 77.375233 
L 447.253168 78.13202 
L 447.596383 75.861659 
L 447.939599 75.104873 
L 448.62603 80.150118 
L 448.969246 77.627495 
L 449.312462 77.879758 
L 449.655677 74.600348 
L 449.998893 74.600348 
L 450.342109 75.861659 
L 450.685324 79.771725 
L 451.02854 76.870709 
L 451.371755 77.627495 
L 451.714971 76.99684 
L 452.401402 74.221955 
L 452.744618 76.618446 
L 453.087834 74.600348 
L 453.431049 74.726479 
L 454.117481 75.987791 
L 454.460696 78.888807 
L 454.803912 78.888807 
L 455.147128 76.113922 
L 455.490343 75.987791 
L 455.833559 76.366184 
L 456.176775 72.203856 
L 456.51999 76.366184 
L 456.863206 73.339037 
L 457.206421 76.99684 
L 457.549637 76.99684 
L 457.892853 76.492315 
L 458.236068 76.99684 
L 458.579284 75.861659 
L 458.9225 78.888807 
L 459.265715 76.744577 
L 459.608931 75.735528 
L 459.952147 76.492315 
L 460.295362 76.870709 
L 460.638578 73.969692 
L 460.981794 77.501364 
L 461.325009 78.005889 
L 461.668225 74.978741 
L 462.011441 75.104873 
L 462.354656 74.348086 
L 462.697872 76.99684 
L 463.041087 76.113922 
L 463.384303 74.85261 
L 463.727519 78.258151 
L 464.070734 77.753627 
L 464.757166 74.095823 
L 465.100381 76.113922 
L 465.443597 74.221955 
L 465.786813 79.141069 
L 466.130028 76.366184 
L 466.473244 76.492315 
L 466.81646 74.85261 
L 467.159675 76.366184 
L 467.502891 78.636545 
L 467.846107 75.609397 
L 468.189322 75.357135 
L 468.532538 78.636545 
L 468.875753 75.104873 
L 469.218969 75.609397 
L 469.562185 73.465168 
L 469.9054 75.483266 
L 470.248616 76.492315 
L 470.591832 73.591299 
L 470.935047 77.375233 
L 471.278263 74.85261 
L 471.621479 77.501364 
L 471.964694 74.221955 
L 472.30791 73.591299 
L 472.994341 75.987791 
L 473.337557 76.744577 
L 473.680773 75.104873 
L 474.023988 75.231004 
L 474.367204 73.71743 
L 474.710419 74.726479 
L 475.053635 75.104873 
L 475.396851 73.339037 
L 475.740066 73.339037 
L 476.426498 74.726479 
L 476.769713 77.375233 
L 477.112929 75.483266 
L 477.79936 78.258151 
L 478.142576 75.861659 
L 478.485792 76.744577 
L 478.829007 75.231004 
L 479.172223 75.483266 
L 479.515439 75.483266 
L 479.858654 76.99684 
L 480.20187 76.870709 
L 480.888301 74.095823 
L 481.231517 74.85261 
L 481.574732 73.465168 
L 481.917948 77.375233 
L 482.261164 74.348086 
L 482.604379 74.978741 
L 482.947595 74.600348 
L 483.290811 75.483266 
L 483.634026 74.85261 
L 484.320458 74.221955 
L 484.663673 75.104873 
L 485.006889 73.71743 
L 485.350105 74.600348 
L 485.69332 76.492315 
L 486.036536 74.221955 
L 486.379752 75.609397 
L 486.722967 74.85261 
L 487.066183 74.726479 
L 487.752614 75.357135 
L 488.09583 74.474217 
L 488.439045 74.600348 
L 488.782261 74.978741 
L 489.125477 72.708381 
L 489.468692 77.249102 
L 489.811908 72.329987 
L 490.498339 75.735528 
L 490.841555 75.987791 
L 491.184771 75.231004 
L 491.871202 75.861659 
L 492.214418 74.978741 
L 492.557633 74.978741 
L 492.900849 72.329987 
L 493.244064 75.231004 
L 493.58728 75.357135 
L 493.930496 75.735528 
L 494.273711 74.978741 
L 494.616927 74.726479 
L 494.960143 75.104873 
L 495.303358 75.231004 
L 495.646574 74.726479 
L 495.98979 73.591299 
L 496.333005 74.978741 
L 497.019437 72.077725 
L 497.362652 74.095823 
L 497.705868 73.71743 
L 498.049084 75.735528 
L 498.392299 76.618446 
L 498.735515 73.086774 
L 499.07873 74.221955 
L 499.421946 72.834512 
L 499.765162 74.348086 
L 500.108377 75.231004 
L 500.451593 74.221955 
L 500.794809 76.366184 
L 501.138024 76.492315 
L 501.48124 75.483266 
L 501.824456 73.71743 
L 502.167671 74.600348 
L 502.510887 72.834512 
L 502.854103 74.978741 
L 503.197318 75.987791 
L 503.88375 73.212905 
L 504.226965 73.71743 
L 504.570181 75.357135 
L 504.913396 72.58225 
L 505.256612 72.960643 
L 505.599828 72.203856 
L 505.943043 76.492315 
L 506.286259 71.699332 
L 506.629475 74.600348 
L 506.97269 73.465168 
L 507.315906 73.339037 
L 507.659122 72.960643 
L 508.002337 75.735528 
L 508.345553 74.726479 
L 508.688769 74.978741 
L 509.031984 74.348086 
L 509.3752 75.357135 
L 509.718416 77.375233 
L 510.061631 72.203856 
L 510.748062 75.104873 
L 511.091278 73.591299 
L 511.434494 71.194807 
L 511.777709 74.474217 
L 512.120925 73.086774 
L 512.464141 73.465168 
L 512.807356 72.708381 
L 513.150572 73.969692 
L 513.493788 74.726479 
L 513.837003 74.726479 
L 514.180219 70.942545 
L 514.523435 72.203856 
L 514.86665 76.240053 
L 515.209866 75.231004 
L 515.553082 70.43802 
L 515.896297 75.735528 
L 516.239513 73.465168 
L 516.582729 73.71743 
L 516.925944 74.726479 
L 517.26916 71.194807 
L 517.612375 74.726479 
L 517.955591 72.456119 
L 518.298807 73.969692 
L 518.642022 74.726479 
L 518.985238 74.474217 
L 519.328454 73.843561 
L 519.671669 76.113922 
L 520.358101 73.339037 
L 521.044532 75.231004 
L 521.387748 72.960643 
L 521.730963 73.465168 
L 522.074179 73.71743 
L 522.417395 73.212905 
L 522.76061 75.609397 
L 523.103826 74.85261 
L 523.447041 73.591299 
L 523.790257 74.095823 
L 524.133473 71.825463 
L 524.476688 75.735528 
L 524.819904 75.735528 
L 525.16312 74.726479 
L 525.506335 74.978741 
L 526.192767 71.699332 
L 526.535982 74.095823 
L 526.879198 71.825463 
L 527.222414 72.58225 
L 527.565629 73.71743 
L 527.908845 74.348086 
L 528.252061 73.969692 
L 528.595276 74.726479 
L 528.938492 73.465168 
L 529.281707 73.339037 
L 529.624923 76.366184 
L 529.968139 72.834512 
L 530.311354 71.320938 
L 530.65457 72.708381 
L 530.997786 76.366184 
L 531.341001 71.573201 
L 531.684217 74.221955 
L 532.027433 75.609397 
L 532.370648 74.348086 
L 532.713864 75.861659 
L 533.05708 75.104873 
L 533.400295 72.456119 
L 533.743511 74.348086 
L 534.086727 72.708381 
L 534.429942 72.834512 
L 534.773158 74.726479 
L 535.116373 75.987791 
L 535.459589 70.564151 
L 535.802805 74.348086 
L 536.14602 72.077725 
L 536.489236 73.969692 
L 536.832452 72.58225 
L 537.175667 74.348086 
L 537.518883 73.591299 
L 537.862099 74.095823 
L 538.205314 72.960643 
L 538.54853 73.339037 
L 538.891746 74.600348 
L 539.234961 73.591299 
L 539.578177 74.85261 
L 539.921393 72.834512 
L 540.264608 74.474217 
L 540.607824 71.320938 
L 540.951039 72.58225 
L 541.637471 77.753627 
L 541.980686 73.969692 
L 542.323902 74.726479 
L 542.667118 73.71743 
L 543.010333 74.221955 
L 543.353549 74.474217 
L 543.696765 72.203856 
L 544.03998 71.699332 
L 544.383196 73.591299 
L 544.726412 74.221955 
L 545.069627 72.329987 
L 545.412843 71.825463 
L 545.756059 73.465168 
L 546.099274 72.960643 
L 546.44249 73.843561 
L 546.785705 74.348086 
L 547.128921 72.456119 
L 547.472137 73.591299 
L 547.815352 72.960643 
L 548.158568 73.591299 
L 548.501784 74.726479 
L 549.188215 72.960643 
L 549.531431 74.726479 
L 549.874646 73.71743 
L 550.561078 74.221955 
L 550.904293 73.969692 
L 551.247509 71.320938 
L 551.93394 74.474217 
L 552.277156 71.825463 
L 552.620372 72.456119 
L 552.963587 74.600348 
L 553.306803 71.951594 
L 553.650018 71.699332 
L 553.993234 72.329987 
L 554.33645 72.58225 
L 554.679665 74.474217 
L 555.022881 74.85261 
L 555.366097 73.212905 
L 555.709312 72.708381 
L 556.052528 72.834512 
L 556.395744 74.85261 
L 556.738959 71.320938 
L 557.082175 71.194807 
L 557.425391 73.339037 
L 557.768606 73.212905 
L 558.111822 71.951594 
L 558.455038 73.086774 
L 558.798253 73.212905 
L 559.141469 75.357135 
L 559.484684 73.71743 
L 559.8279 74.85261 
L 560.171116 73.086774 
L 560.514331 75.483266 
L 560.857547 75.231004 
L 561.200763 73.339037 
L 561.543978 70.43802 
L 561.887194 70.564151 
L 562.23041 73.843561 
L 562.573625 73.339037 
L 562.916841 72.203856 
L 563.603272 73.591299 
L 563.946488 71.447069 
L 564.289704 72.203856 
L 564.632919 73.465168 
L 564.976135 72.329987 
L 565.31935 72.708381 
L 565.662566 72.834512 
L 566.005782 71.320938 
L 566.348997 71.699332 
L 566.692213 70.816414 
L 567.035429 71.320938 
L 567.378644 72.456119 
L 567.72186 72.58225 
L 568.065076 74.348086 
L 568.408291 72.708381 
L 568.751507 72.456119 
L 569.094723 73.843561 
L 569.437938 72.329987 
L 569.781154 75.609397 
L 570.12437 74.221955 
L 570.467585 75.104873 
L 570.810801 73.339037 
L 571.154016 74.221955 
L 571.497232 74.348086 
L 571.840448 71.699332 
L 572.183663 72.329987 
L 572.526879 74.85261 
L 572.870095 69.428971 
L 573.21331 71.825463 
L 573.556526 71.699332 
L 573.899742 72.077725 
L 574.242957 71.320938 
L 574.586173 72.329987 
L 574.929389 74.348086 
L 575.272604 74.348086 
L 575.959036 71.699332 
L 576.302251 76.240053 
L 576.988682 70.942545 
L 577.331898 74.978741 
L 577.675114 72.329987 
L 578.018329 73.591299 
L 578.361545 72.077725 
L 578.704761 73.086774 
L 579.047976 71.951594 
L 579.391192 72.203856 
L 579.734408 72.077725 
L 580.077623 73.339037 
L 580.420839 71.825463 
L 580.764055 73.969692 
L 581.10727 71.194807 
L 581.450486 71.068676 
L 581.793702 69.428971 
L 582.136917 73.339037 
L 582.480133 71.573201 
L 582.823349 70.942545 
L 583.166564 71.825463 
L 583.852995 71.194807 
L 584.196211 73.339037 
L 584.539427 72.456119 
L 584.882642 74.095823 
L 585.225858 73.969692 
L 585.912289 74.600348 
L 586.255505 71.447069 
L 586.598721 71.194807 
L 586.941936 70.690283 
L 587.285152 73.212905 
L 587.628368 71.320938 
L 587.971583 70.564151 
L 588.314799 75.483266 
L 588.658015 73.086774 
L 589.344446 73.339037 
L 589.687661 71.951594 
L 590.030877 73.71743 
L 590.374093 73.465168 
L 591.060524 71.825463 
L 591.40374 71.825463 
L 591.746955 74.726479 
L 592.090171 74.474217 
L 592.433387 75.104873 
L 592.776602 72.708381 
L 593.119818 72.077725 
L 593.463034 73.71743 
L 593.806249 72.456119 
L 594.149465 72.203856 
L 594.492681 75.735528 
L 595.179112 72.456119 
L 595.522327 72.960643 
L 595.865543 72.834512 
L 596.208759 72.58225 
L 596.551974 73.843561 
L 596.89519 71.951594 
L 597.238406 73.591299 
L 597.581621 72.203856 
L 597.924837 72.077725 
L 598.268053 73.339037 
L 598.611268 71.951594 
L 598.954484 71.320938 
L 599.2977 72.456119 
L 599.640915 71.320938 
L 599.984131 72.960643 
L 600.327347 72.456119 
L 600.670562 72.960643 
L 601.013778 75.104873 
L 601.356993 74.474217 
L 601.700209 73.339037 
L 602.043425 73.465168 
L 602.38664 71.699332 
L 602.729856 72.834512 
L 603.073072 73.086774 
L 603.416287 72.329987 
L 603.759503 73.086774 
L 604.445934 69.30284 
L 604.78915 72.960643 
L 605.132366 71.194807 
L 605.475581 71.068676 
L 605.818797 72.329987 
L 606.162013 73.086774 
L 606.505228 72.960643 
L 606.848444 70.816414 
L 607.191659 75.735528 
L 607.534875 70.942545 
L 607.878091 70.690283 
L 608.221306 69.807365 
L 608.564522 73.212905 
L 608.907738 73.71743 
L 609.250953 71.951594 
L 609.594169 71.447069 
L 609.937385 72.077725 
L 610.2806 73.086774 
L 610.623816 73.339037 
L 610.967032 71.447069 
L 611.310247 72.58225 
L 611.653463 72.960643 
L 611.996679 71.194807 
L 612.68311 72.58225 
L 613.026326 71.194807 
L 613.369541 72.456119 
L 613.712757 72.077725 
L 614.055972 72.708381 
L 614.399188 72.58225 
L 614.742404 71.951594 
L 615.085619 71.068676 
L 615.428835 71.699332 
L 615.772051 71.447069 
L 616.115266 70.690283 
L 616.458482 74.348086 
L 616.801698 71.951594 
L 617.144913 73.71743 
L 617.488129 73.71743 
L 617.831345 73.969692 
L 618.17456 70.059627 
L 618.860992 74.348086 
L 619.204207 72.456119 
L 619.547423 73.71743 
L 619.890638 72.077725 
L 620.233854 71.447069 
L 620.57707 72.708381 
L 620.920285 72.834512 
L 621.263501 71.194807 
L 621.606717 74.348086 
L 621.949932 71.699332 
L 622.293148 74.726479 
L 622.636364 72.834512 
L 622.636364 72.834512 
" style="fill:none;stroke:#ff7f0e;stroke-linecap:square;stroke-width:0.5;"/>
   </g>
   <g id="patch_3">
    <path d="M 90 315 
L 90 43.2 
" style="fill:none;stroke:#000000;stroke-linecap:square;stroke-linejoin:miter;stroke-width:0.8;"/>
   </g>
   <g id="patch_4">
    <path d="M 648 315 
L 648 43.2 
" style="fill:none;stroke:#000000;stroke-linecap:square;stroke-linejoin:miter;stroke-width:0.8;"/>
   </g>
   <g id="patch_5">
    <path d="M 90 315 
L 648 315 
" style="fill:none;stroke:#000000;stroke-linecap:square;stroke-linejoin:miter;stroke-width:0.8;"/>
   </g>
   <g id="patch_6">
    <path d="M 90 43.2 
L 648 43.2 
" style="fill:none;stroke:#000000;stroke-linecap:square;stroke-linejoin:miter;stroke-width:0.8;"/>
   </g>
   <g id="text_19">
    <!-- accuracy -->
    <g transform="translate(341.92875 37.2)scale(0.12 -0.12)">
     <use xlink:href="#DejaVuSans-97"/>
     <use x="61.279297" xlink:href="#DejaVuSans-99"/>
     <use x="116.259766" xlink:href="#DejaVuSans-99"/>
     <use x="171.240234" xlink:href="#DejaVuSans-117"/>
     <use x="234.619141" xlink:href="#DejaVuSans-114"/>
     <use x="275.732422" xlink:href="#DejaVuSans-97"/>
     <use x="337.011719" xlink:href="#DejaVuSans-99"/>
     <use x="391.992188" xlink:href="#DejaVuSans-121"/>
    </g>
   </g>
   <g id="legend_1">
    <g id="patch_7">
     <path d="M 97 80.55625 
L 169.153125 80.55625 
Q 171.153125 80.55625 171.153125 78.55625 
L 171.153125 50.2 
Q 171.153125 48.2 169.153125 48.2 
L 97 48.2 
Q 95 48.2 95 50.2 
L 95 78.55625 
Q 95 80.55625 97 80.55625 
z
" style="fill:#ffffff;opacity:0.8;stroke:#cccccc;stroke-linejoin:miter;"/>
    </g>
    <g id="line2d_35">
     <path d="M 99 56.298437 
L 119 56.298437 
" style="fill:none;stroke:#1f77b4;stroke-linecap:square;stroke-width:0.5;"/>
    </g>
    <g id="line2d_36"/>
    <g id="text_20">
     <!-- train -->
     <defs>
      <path d="M 18.3125 70.21875 
L 18.3125 54.6875 
L 36.8125 54.6875 
L 36.8125 47.703125 
L 18.3125 47.703125 
L 18.3125 18.015625 
Q 18.3125 11.328125 20.140625 9.421875 
Q 21.96875 7.515625 27.59375 7.515625 
L 36.8125 7.515625 
L 36.8125 0 
L 27.59375 0 
Q 17.1875 0 13.234375 3.875 
Q 9.28125 7.765625 9.28125 18.015625 
L 9.28125 47.703125 
L 2.6875 47.703125 
L 2.6875 54.6875 
L 9.28125 54.6875 
L 9.28125 70.21875 
z
" id="DejaVuSans-116"/>
      <path d="M 9.421875 54.6875 
L 18.40625 54.6875 
L 18.40625 0 
L 9.421875 0 
z
M 9.421875 75.984375 
L 18.40625 75.984375 
L 18.40625 64.59375 
L 9.421875 64.59375 
z
" id="DejaVuSans-105"/>
      <path d="M 54.890625 33.015625 
L 54.890625 0 
L 45.90625 0 
L 45.90625 32.71875 
Q 45.90625 40.484375 42.875 44.328125 
Q 39.84375 48.1875 33.796875 48.1875 
Q 26.515625 48.1875 22.3125 43.546875 
Q 18.109375 38.921875 18.109375 30.90625 
L 18.109375 0 
L 9.078125 0 
L 9.078125 54.6875 
L 18.109375 54.6875 
L 18.109375 46.1875 
Q 21.34375 51.125 25.703125 53.5625 
Q 30.078125 56 35.796875 56 
Q 45.21875 56 50.046875 50.171875 
Q 54.890625 44.34375 54.890625 33.015625 
z
" id="DejaVuSans-110"/>
     </defs>
     <g transform="translate(127 59.798437)scale(0.1 -0.1)">
      <use xlink:href="#DejaVuSans-116"/>
      <use x="39.208984" xlink:href="#DejaVuSans-114"/>
      <use x="80.322266" xlink:href="#DejaVuSans-97"/>
      <use x="141.601562" xlink:href="#DejaVuSans-105"/>
      <use x="169.384766" xlink:href="#DejaVuSans-110"/>
     </g>
    </g>
    <g id="line2d_37">
     <path d="M 99 70.976562 
L 119 70.976562 
" style="fill:none;stroke:#ff7f0e;stroke-linecap:square;stroke-width:0.5;"/>
    </g>
    <g id="line2d_38"/>
    <g id="text_21">
     <!-- validate -->
     <defs>
      <path d="M 2.984375 54.6875 
L 12.5 54.6875 
L 29.59375 8.796875 
L 46.6875 54.6875 
L 56.203125 54.6875 
L 35.6875 0 
L 23.484375 0 
z
" id="DejaVuSans-118"/>
      <path d="M 9.421875 75.984375 
L 18.40625 75.984375 
L 18.40625 0 
L 9.421875 0 
z
" id="DejaVuSans-108"/>
      <path d="M 45.40625 46.390625 
L 45.40625 75.984375 
L 54.390625 75.984375 
L 54.390625 0 
L 45.40625 0 
L 45.40625 8.203125 
Q 42.578125 3.328125 38.25 0.953125 
Q 33.9375 -1.421875 27.875 -1.421875 
Q 17.96875 -1.421875 11.734375 6.484375 
Q 5.515625 14.40625 5.515625 27.296875 
Q 5.515625 40.1875 11.734375 48.09375 
Q 17.96875 56 27.875 56 
Q 33.9375 56 38.25 53.625 
Q 42.578125 51.265625 45.40625 46.390625 
z
M 14.796875 27.296875 
Q 14.796875 17.390625 18.875 11.75 
Q 22.953125 6.109375 30.078125 6.109375 
Q 37.203125 6.109375 41.296875 11.75 
Q 45.40625 17.390625 45.40625 27.296875 
Q 45.40625 37.203125 41.296875 42.84375 
Q 37.203125 48.484375 30.078125 48.484375 
Q 22.953125 48.484375 18.875 42.84375 
Q 14.796875 37.203125 14.796875 27.296875 
z
" id="DejaVuSans-100"/>
     </defs>
     <g transform="translate(127 74.476562)scale(0.1 -0.1)">
      <use xlink:href="#DejaVuSans-118"/>
      <use x="59.179688" xlink:href="#DejaVuSans-97"/>
      <use x="120.458984" xlink:href="#DejaVuSans-108"/>
      <use x="148.242188" xlink:href="#DejaVuSans-105"/>
      <use x="176.025391" xlink:href="#DejaVuSans-100"/>
      <use x="239.501953" xlink:href="#DejaVuSans-97"/>
      <use x="300.78125" xlink:href="#DejaVuSans-116"/>
      <use x="339.990234" xlink:href="#DejaVuSans-101"/>
     </g>
    </g>
   </g>
  </g>
 </g>
 <defs>
  <clipPath id="p50398c4fe7">
   <rect height="271.8" width="558" x="90" y="43.2"/>
  </clipPath>
 </defs>
</svg>
