<?xml version="1.0" encoding="utf-8" standalone="no"?>
<!DOCTYPE svg PUBLIC "-//W3C//DTD SVG 1.1//EN"
  "http://www.w3.org/Graphics/SVG/1.1/DTD/svg11.dtd">
<!-- Created with matplotlib (https://matplotlib.org/) -->
<svg height="360pt" version="1.1" viewBox="0 0 720 360" width="720pt" xmlns="http://www.w3.org/2000/svg" xmlns:xlink="http://www.w3.org/1999/xlink">
 <defs>
  <style type="text/css">
*{stroke-linecap:butt;stroke-linejoin:round;}
  </style>
 </defs>
 <g id="figure_1">
  <g id="patch_1">
   <path d="M 0 360 
L 720 360 
L 720 0 
L 0 0 
z
" style="fill:#ffffff;"/>
  </g>
  <g id="axes_1">
   <g id="patch_2">
    <path d="M 90 315 
L 648 315 
L 648 43.2 
L 90 43.2 
z
" style="fill:#ffffff;"/>
   </g>
   <g id="matplotlib.axis_1">
    <g id="xtick_1">
     <g id="line2d_1">
      <path clip-path="url(#pa4fb1b0a43)" d="M 115.363636 315 
L 115.363636 43.2 
" style="fill:none;stroke:#b0b0b0;stroke-linecap:square;stroke-width:0.8;"/>
     </g>
     <g id="line2d_2">
      <defs>
       <path d="M 0 0 
L 0 3.5 
" id="m70b0eee1ee" style="stroke:#000000;stroke-width:0.8;"/>
      </defs>
      <g>
       <use style="stroke:#000000;stroke-width:0.8;" x="115.363636" xlink:href="#m70b0eee1ee" y="315"/>
      </g>
     </g>
     <g id="text_1">
      <!-- 0 -->
      <defs>
       <path d="M 31.78125 66.40625 
Q 24.171875 66.40625 20.328125 58.90625 
Q 16.5 51.421875 16.5 36.375 
Q 16.5 21.390625 20.328125 13.890625 
Q 24.171875 6.390625 31.78125 6.390625 
Q 39.453125 6.390625 43.28125 13.890625 
Q 47.125 21.390625 47.125 36.375 
Q 47.125 51.421875 43.28125 58.90625 
Q 39.453125 66.40625 31.78125 66.40625 
z
M 31.78125 74.21875 
Q 44.046875 74.21875 50.515625 64.515625 
Q 56.984375 54.828125 56.984375 36.375 
Q 56.984375 17.96875 50.515625 8.265625 
Q 44.046875 -1.421875 31.78125 -1.421875 
Q 19.53125 -1.421875 13.0625 8.265625 
Q 6.59375 17.96875 6.59375 36.375 
Q 6.59375 54.828125 13.0625 64.515625 
Q 19.53125 74.21875 31.78125 74.21875 
z
" id="DejaVuSans-48"/>
      </defs>
      <g transform="translate(112.182386 329.598437)scale(0.1 -0.1)">
       <use xlink:href="#DejaVuSans-48"/>
      </g>
     </g>
    </g>
    <g id="xtick_2">
     <g id="line2d_3">
      <path clip-path="url(#pa4fb1b0a43)" d="M 183.271632 315 
L 183.271632 43.2 
" style="fill:none;stroke:#b0b0b0;stroke-linecap:square;stroke-width:0.8;"/>
     </g>
     <g id="line2d_4">
      <g>
       <use style="stroke:#000000;stroke-width:0.8;" x="183.271632" xlink:href="#m70b0eee1ee" y="315"/>
      </g>
     </g>
     <g id="text_2">
      <!-- 100 -->
      <defs>
       <path d="M 12.40625 8.296875 
L 28.515625 8.296875 
L 28.515625 63.921875 
L 10.984375 60.40625 
L 10.984375 69.390625 
L 28.421875 72.90625 
L 38.28125 72.90625 
L 38.28125 8.296875 
L 54.390625 8.296875 
L 54.390625 0 
L 12.40625 0 
z
" id="DejaVuSans-49"/>
      </defs>
      <g transform="translate(173.727882 329.598437)scale(0.1 -0.1)">
       <use xlink:href="#DejaVuSans-49"/>
       <use x="63.623047" xlink:href="#DejaVuSans-48"/>
       <use x="127.246094" xlink:href="#DejaVuSans-48"/>
      </g>
     </g>
    </g>
    <g id="xtick_3">
     <g id="line2d_5">
      <path clip-path="url(#pa4fb1b0a43)" d="M 251.179628 315 
L 251.179628 43.2 
" style="fill:none;stroke:#b0b0b0;stroke-linecap:square;stroke-width:0.8;"/>
     </g>
     <g id="line2d_6">
      <g>
       <use style="stroke:#000000;stroke-width:0.8;" x="251.179628" xlink:href="#m70b0eee1ee" y="315"/>
      </g>
     </g>
     <g id="text_3">
      <!-- 200 -->
      <defs>
       <path d="M 19.1875 8.296875 
L 53.609375 8.296875 
L 53.609375 0 
L 7.328125 0 
L 7.328125 8.296875 
Q 12.9375 14.109375 22.625 23.890625 
Q 32.328125 33.6875 34.8125 36.53125 
Q 39.546875 41.84375 41.421875 45.53125 
Q 43.3125 49.21875 43.3125 52.78125 
Q 43.3125 58.59375 39.234375 62.25 
Q 35.15625 65.921875 28.609375 65.921875 
Q 23.96875 65.921875 18.8125 64.3125 
Q 13.671875 62.703125 7.8125 59.421875 
L 7.8125 69.390625 
Q 13.765625 71.78125 18.9375 73 
Q 24.125 74.21875 28.421875 74.21875 
Q 39.75 74.21875 46.484375 68.546875 
Q 53.21875 62.890625 53.21875 53.421875 
Q 53.21875 48.921875 51.53125 44.890625 
Q 49.859375 40.875 45.40625 35.40625 
Q 44.1875 33.984375 37.640625 27.21875 
Q 31.109375 20.453125 19.1875 8.296875 
z
" id="DejaVuSans-50"/>
      </defs>
      <g transform="translate(241.635878 329.598437)scale(0.1 -0.1)">
       <use xlink:href="#DejaVuSans-50"/>
       <use x="63.623047" xlink:href="#DejaVuSans-48"/>
       <use x="127.246094" xlink:href="#DejaVuSans-48"/>
      </g>
     </g>
    </g>
    <g id="xtick_4">
     <g id="line2d_7">
      <path clip-path="url(#pa4fb1b0a43)" d="M 319.087623 315 
L 319.087623 43.2 
" style="fill:none;stroke:#b0b0b0;stroke-linecap:square;stroke-width:0.8;"/>
     </g>
     <g id="line2d_8">
      <g>
       <use style="stroke:#000000;stroke-width:0.8;" x="319.087623" xlink:href="#m70b0eee1ee" y="315"/>
      </g>
     </g>
     <g id="text_4">
      <!-- 300 -->
      <defs>
       <path d="M 40.578125 39.3125 
Q 47.65625 37.796875 51.625 33 
Q 55.609375 28.21875 55.609375 21.1875 
Q 55.609375 10.40625 48.1875 4.484375 
Q 40.765625 -1.421875 27.09375 -1.421875 
Q 22.515625 -1.421875 17.65625 -0.515625 
Q 12.796875 0.390625 7.625 2.203125 
L 7.625 11.71875 
Q 11.71875 9.328125 16.59375 8.109375 
Q 21.484375 6.890625 26.8125 6.890625 
Q 36.078125 6.890625 40.9375 10.546875 
Q 45.796875 14.203125 45.796875 21.1875 
Q 45.796875 27.640625 41.28125 31.265625 
Q 36.765625 34.90625 28.71875 34.90625 
L 20.21875 34.90625 
L 20.21875 43.015625 
L 29.109375 43.015625 
Q 36.375 43.015625 40.234375 45.921875 
Q 44.09375 48.828125 44.09375 54.296875 
Q 44.09375 59.90625 40.109375 62.90625 
Q 36.140625 65.921875 28.71875 65.921875 
Q 24.65625 65.921875 20.015625 65.03125 
Q 15.375 64.15625 9.8125 62.3125 
L 9.8125 71.09375 
Q 15.4375 72.65625 20.34375 73.4375 
Q 25.25 74.21875 29.59375 74.21875 
Q 40.828125 74.21875 47.359375 69.109375 
Q 53.90625 64.015625 53.90625 55.328125 
Q 53.90625 49.265625 50.4375 45.09375 
Q 46.96875 40.921875 40.578125 39.3125 
z
" id="DejaVuSans-51"/>
      </defs>
      <g transform="translate(309.543873 329.598437)scale(0.1 -0.1)">
       <use xlink:href="#DejaVuSans-51"/>
       <use x="63.623047" xlink:href="#DejaVuSans-48"/>
       <use x="127.246094" xlink:href="#DejaVuSans-48"/>
      </g>
     </g>
    </g>
    <g id="xtick_5">
     <g id="line2d_9">
      <path clip-path="url(#pa4fb1b0a43)" d="M 386.995619 315 
L 386.995619 43.2 
" style="fill:none;stroke:#b0b0b0;stroke-linecap:square;stroke-width:0.8;"/>
     </g>
     <g id="line2d_10">
      <g>
       <use style="stroke:#000000;stroke-width:0.8;" x="386.995619" xlink:href="#m70b0eee1ee" y="315"/>
      </g>
     </g>
     <g id="text_5">
      <!-- 400 -->
      <defs>
       <path d="M 37.796875 64.3125 
L 12.890625 25.390625 
L 37.796875 25.390625 
z
M 35.203125 72.90625 
L 47.609375 72.90625 
L 47.609375 25.390625 
L 58.015625 25.390625 
L 58.015625 17.1875 
L 47.609375 17.1875 
L 47.609375 0 
L 37.796875 0 
L 37.796875 17.1875 
L 4.890625 17.1875 
L 4.890625 26.703125 
z
" id="DejaVuSans-52"/>
      </defs>
      <g transform="translate(377.451869 329.598437)scale(0.1 -0.1)">
       <use xlink:href="#DejaVuSans-52"/>
       <use x="63.623047" xlink:href="#DejaVuSans-48"/>
       <use x="127.246094" xlink:href="#DejaVuSans-48"/>
      </g>
     </g>
    </g>
    <g id="xtick_6">
     <g id="line2d_11">
      <path clip-path="url(#pa4fb1b0a43)" d="M 454.903614 315 
L 454.903614 43.2 
" style="fill:none;stroke:#b0b0b0;stroke-linecap:square;stroke-width:0.8;"/>
     </g>
     <g id="line2d_12">
      <g>
       <use style="stroke:#000000;stroke-width:0.8;" x="454.903614" xlink:href="#m70b0eee1ee" y="315"/>
      </g>
     </g>
     <g id="text_6">
      <!-- 500 -->
      <defs>
       <path d="M 10.796875 72.90625 
L 49.515625 72.90625 
L 49.515625 64.59375 
L 19.828125 64.59375 
L 19.828125 46.734375 
Q 21.96875 47.46875 24.109375 47.828125 
Q 26.265625 48.1875 28.421875 48.1875 
Q 40.625 48.1875 47.75 41.5 
Q 54.890625 34.8125 54.890625 23.390625 
Q 54.890625 11.625 47.5625 5.09375 
Q 40.234375 -1.421875 26.90625 -1.421875 
Q 22.3125 -1.421875 17.546875 -0.640625 
Q 12.796875 0.140625 7.71875 1.703125 
L 7.71875 11.625 
Q 12.109375 9.234375 16.796875 8.0625 
Q 21.484375 6.890625 26.703125 6.890625 
Q 35.15625 6.890625 40.078125 11.328125 
Q 45.015625 15.765625 45.015625 23.390625 
Q 45.015625 31 40.078125 35.4375 
Q 35.15625 39.890625 26.703125 39.890625 
Q 22.75 39.890625 18.8125 39.015625 
Q 14.890625 38.140625 10.796875 36.28125 
z
" id="DejaVuSans-53"/>
      </defs>
      <g transform="translate(445.359864 329.598437)scale(0.1 -0.1)">
       <use xlink:href="#DejaVuSans-53"/>
       <use x="63.623047" xlink:href="#DejaVuSans-48"/>
       <use x="127.246094" xlink:href="#DejaVuSans-48"/>
      </g>
     </g>
    </g>
    <g id="xtick_7">
     <g id="line2d_13">
      <path clip-path="url(#pa4fb1b0a43)" d="M 522.81161 315 
L 522.81161 43.2 
" style="fill:none;stroke:#b0b0b0;stroke-linecap:square;stroke-width:0.8;"/>
     </g>
     <g id="line2d_14">
      <g>
       <use style="stroke:#000000;stroke-width:0.8;" x="522.81161" xlink:href="#m70b0eee1ee" y="315"/>
      </g>
     </g>
     <g id="text_7">
      <!-- 600 -->
      <defs>
       <path d="M 33.015625 40.375 
Q 26.375 40.375 22.484375 35.828125 
Q 18.609375 31.296875 18.609375 23.390625 
Q 18.609375 15.53125 22.484375 10.953125 
Q 26.375 6.390625 33.015625 6.390625 
Q 39.65625 6.390625 43.53125 10.953125 
Q 47.40625 15.53125 47.40625 23.390625 
Q 47.40625 31.296875 43.53125 35.828125 
Q 39.65625 40.375 33.015625 40.375 
z
M 52.59375 71.296875 
L 52.59375 62.3125 
Q 48.875 64.0625 45.09375 64.984375 
Q 41.3125 65.921875 37.59375 65.921875 
Q 27.828125 65.921875 22.671875 59.328125 
Q 17.53125 52.734375 16.796875 39.40625 
Q 19.671875 43.65625 24.015625 45.921875 
Q 28.375 48.1875 33.59375 48.1875 
Q 44.578125 48.1875 50.953125 41.515625 
Q 57.328125 34.859375 57.328125 23.390625 
Q 57.328125 12.15625 50.6875 5.359375 
Q 44.046875 -1.421875 33.015625 -1.421875 
Q 20.359375 -1.421875 13.671875 8.265625 
Q 6.984375 17.96875 6.984375 36.375 
Q 6.984375 53.65625 15.1875 63.9375 
Q 23.390625 74.21875 37.203125 74.21875 
Q 40.921875 74.21875 44.703125 73.484375 
Q 48.484375 72.75 52.59375 71.296875 
z
" id="DejaVuSans-54"/>
      </defs>
      <g transform="translate(513.26786 329.598437)scale(0.1 -0.1)">
       <use xlink:href="#DejaVuSans-54"/>
       <use x="63.623047" xlink:href="#DejaVuSans-48"/>
       <use x="127.246094" xlink:href="#DejaVuSans-48"/>
      </g>
     </g>
    </g>
    <g id="xtick_8">
     <g id="line2d_15">
      <path clip-path="url(#pa4fb1b0a43)" d="M 590.719606 315 
L 590.719606 43.2 
" style="fill:none;stroke:#b0b0b0;stroke-linecap:square;stroke-width:0.8;"/>
     </g>
     <g id="line2d_16">
      <g>
       <use style="stroke:#000000;stroke-width:0.8;" x="590.719606" xlink:href="#m70b0eee1ee" y="315"/>
      </g>
     </g>
     <g id="text_8">
      <!-- 700 -->
      <defs>
       <path d="M 8.203125 72.90625 
L 55.078125 72.90625 
L 55.078125 68.703125 
L 28.609375 0 
L 18.3125 0 
L 43.21875 64.59375 
L 8.203125 64.59375 
z
" id="DejaVuSans-55"/>
      </defs>
      <g transform="translate(581.175856 329.598437)scale(0.1 -0.1)">
       <use xlink:href="#DejaVuSans-55"/>
       <use x="63.623047" xlink:href="#DejaVuSans-48"/>
       <use x="127.246094" xlink:href="#DejaVuSans-48"/>
      </g>
     </g>
    </g>
    <g id="text_9">
     <!-- epoch -->
     <defs>
      <path d="M 56.203125 29.59375 
L 56.203125 25.203125 
L 14.890625 25.203125 
Q 15.484375 15.921875 20.484375 11.0625 
Q 25.484375 6.203125 34.421875 6.203125 
Q 39.59375 6.203125 44.453125 7.46875 
Q 49.3125 8.734375 54.109375 11.28125 
L 54.109375 2.78125 
Q 49.265625 0.734375 44.1875 -0.34375 
Q 39.109375 -1.421875 33.890625 -1.421875 
Q 20.796875 -1.421875 13.15625 6.1875 
Q 5.515625 13.8125 5.515625 26.8125 
Q 5.515625 40.234375 12.765625 48.109375 
Q 20.015625 56 32.328125 56 
Q 43.359375 56 49.78125 48.890625 
Q 56.203125 41.796875 56.203125 29.59375 
z
M 47.21875 32.234375 
Q 47.125 39.59375 43.09375 43.984375 
Q 39.0625 48.390625 32.421875 48.390625 
Q 24.90625 48.390625 20.390625 44.140625 
Q 15.875 39.890625 15.1875 32.171875 
z
" id="DejaVuSans-101"/>
      <path d="M 18.109375 8.203125 
L 18.109375 -20.796875 
L 9.078125 -20.796875 
L 9.078125 54.6875 
L 18.109375 54.6875 
L 18.109375 46.390625 
Q 20.953125 51.265625 25.265625 53.625 
Q 29.59375 56 35.59375 56 
Q 45.5625 56 51.78125 48.09375 
Q 58.015625 40.1875 58.015625 27.296875 
Q 58.015625 14.40625 51.78125 6.484375 
Q 45.5625 -1.421875 35.59375 -1.421875 
Q 29.59375 -1.421875 25.265625 0.953125 
Q 20.953125 3.328125 18.109375 8.203125 
z
M 48.6875 27.296875 
Q 48.6875 37.203125 44.609375 42.84375 
Q 40.53125 48.484375 33.40625 48.484375 
Q 26.265625 48.484375 22.1875 42.84375 
Q 18.109375 37.203125 18.109375 27.296875 
Q 18.109375 17.390625 22.1875 11.75 
Q 26.265625 6.109375 33.40625 6.109375 
Q 40.53125 6.109375 44.609375 11.75 
Q 48.6875 17.390625 48.6875 27.296875 
z
" id="DejaVuSans-112"/>
      <path d="M 30.609375 48.390625 
Q 23.390625 48.390625 19.1875 42.75 
Q 14.984375 37.109375 14.984375 27.296875 
Q 14.984375 17.484375 19.15625 11.84375 
Q 23.34375 6.203125 30.609375 6.203125 
Q 37.796875 6.203125 41.984375 11.859375 
Q 46.1875 17.53125 46.1875 27.296875 
Q 46.1875 37.015625 41.984375 42.703125 
Q 37.796875 48.390625 30.609375 48.390625 
z
M 30.609375 56 
Q 42.328125 56 49.015625 48.375 
Q 55.71875 40.765625 55.71875 27.296875 
Q 55.71875 13.875 49.015625 6.21875 
Q 42.328125 -1.421875 30.609375 -1.421875 
Q 18.84375 -1.421875 12.171875 6.21875 
Q 5.515625 13.875 5.515625 27.296875 
Q 5.515625 40.765625 12.171875 48.375 
Q 18.84375 56 30.609375 56 
z
" id="DejaVuSans-111"/>
      <path d="M 48.78125 52.59375 
L 48.78125 44.1875 
Q 44.96875 46.296875 41.140625 47.34375 
Q 37.3125 48.390625 33.40625 48.390625 
Q 24.65625 48.390625 19.8125 42.84375 
Q 14.984375 37.3125 14.984375 27.296875 
Q 14.984375 17.28125 19.8125 11.734375 
Q 24.65625 6.203125 33.40625 6.203125 
Q 37.3125 6.203125 41.140625 7.25 
Q 44.96875 8.296875 48.78125 10.40625 
L 48.78125 2.09375 
Q 45.015625 0.34375 40.984375 -0.53125 
Q 36.96875 -1.421875 32.421875 -1.421875 
Q 20.0625 -1.421875 12.78125 6.34375 
Q 5.515625 14.109375 5.515625 27.296875 
Q 5.515625 40.671875 12.859375 48.328125 
Q 20.21875 56 33.015625 56 
Q 37.15625 56 41.109375 55.140625 
Q 45.0625 54.296875 48.78125 52.59375 
z
" id="DejaVuSans-99"/>
      <path d="M 54.890625 33.015625 
L 54.890625 0 
L 45.90625 0 
L 45.90625 32.71875 
Q 45.90625 40.484375 42.875 44.328125 
Q 39.84375 48.1875 33.796875 48.1875 
Q 26.515625 48.1875 22.3125 43.546875 
Q 18.109375 38.921875 18.109375 30.90625 
L 18.109375 0 
L 9.078125 0 
L 9.078125 75.984375 
L 18.109375 75.984375 
L 18.109375 46.1875 
Q 21.34375 51.125 25.703125 53.5625 
Q 30.078125 56 35.796875 56 
Q 45.21875 56 50.046875 50.171875 
Q 54.890625 44.34375 54.890625 33.015625 
z
" id="DejaVuSans-104"/>
     </defs>
     <g transform="translate(353.771875 343.276563)scale(0.1 -0.1)">
      <use xlink:href="#DejaVuSans-101"/>
      <use x="61.523438" xlink:href="#DejaVuSans-112"/>
      <use x="125" xlink:href="#DejaVuSans-111"/>
      <use x="186.181641" xlink:href="#DejaVuSans-99"/>
      <use x="241.162109" xlink:href="#DejaVuSans-104"/>
     </g>
    </g>
   </g>
   <g id="matplotlib.axis_2">
    <g id="ytick_1">
     <g id="line2d_17">
      <path clip-path="url(#pa4fb1b0a43)" d="M 90 287.559425 
L 648 287.559425 
" style="fill:none;stroke:#b0b0b0;stroke-linecap:square;stroke-width:0.8;"/>
     </g>
     <g id="line2d_18">
      <defs>
       <path d="M 0 0 
L -3.5 0 
" id="med4c43c564" style="stroke:#000000;stroke-width:0.8;"/>
      </defs>
      <g>
       <use style="stroke:#000000;stroke-width:0.8;" x="90" xlink:href="#med4c43c564" y="287.559425"/>
      </g>
     </g>
     <g id="text_10">
      <!-- 0.4 -->
      <defs>
       <path d="M 10.6875 12.40625 
L 21 12.40625 
L 21 0 
L 10.6875 0 
z
" id="DejaVuSans-46"/>
      </defs>
      <g transform="translate(67.096875 291.358644)scale(0.1 -0.1)">
       <use xlink:href="#DejaVuSans-48"/>
       <use x="63.623047" xlink:href="#DejaVuSans-46"/>
       <use x="95.410156" xlink:href="#DejaVuSans-52"/>
      </g>
     </g>
    </g>
    <g id="ytick_2">
     <g id="line2d_19">
      <path clip-path="url(#pa4fb1b0a43)" d="M 90 247.120726 
L 648 247.120726 
" style="fill:none;stroke:#b0b0b0;stroke-linecap:square;stroke-width:0.8;"/>
     </g>
     <g id="line2d_20">
      <g>
       <use style="stroke:#000000;stroke-width:0.8;" x="90" xlink:href="#med4c43c564" y="247.120726"/>
      </g>
     </g>
     <g id="text_11">
      <!-- 0.6 -->
      <g transform="translate(67.096875 250.919945)scale(0.1 -0.1)">
       <use xlink:href="#DejaVuSans-48"/>
       <use x="63.623047" xlink:href="#DejaVuSans-46"/>
       <use x="95.410156" xlink:href="#DejaVuSans-54"/>
      </g>
     </g>
    </g>
    <g id="ytick_3">
     <g id="line2d_21">
      <path clip-path="url(#pa4fb1b0a43)" d="M 90 206.682027 
L 648 206.682027 
" style="fill:none;stroke:#b0b0b0;stroke-linecap:square;stroke-width:0.8;"/>
     </g>
     <g id="line2d_22">
      <g>
       <use style="stroke:#000000;stroke-width:0.8;" x="90" xlink:href="#med4c43c564" y="206.682027"/>
      </g>
     </g>
     <g id="text_12">
      <!-- 0.8 -->
      <defs>
       <path d="M 31.78125 34.625 
Q 24.75 34.625 20.71875 30.859375 
Q 16.703125 27.09375 16.703125 20.515625 
Q 16.703125 13.921875 20.71875 10.15625 
Q 24.75 6.390625 31.78125 6.390625 
Q 38.8125 6.390625 42.859375 10.171875 
Q 46.921875 13.96875 46.921875 20.515625 
Q 46.921875 27.09375 42.890625 30.859375 
Q 38.875 34.625 31.78125 34.625 
z
M 21.921875 38.8125 
Q 15.578125 40.375 12.03125 44.71875 
Q 8.5 49.078125 8.5 55.328125 
Q 8.5 64.0625 14.71875 69.140625 
Q 20.953125 74.21875 31.78125 74.21875 
Q 42.671875 74.21875 48.875 69.140625 
Q 55.078125 64.0625 55.078125 55.328125 
Q 55.078125 49.078125 51.53125 44.71875 
Q 48 40.375 41.703125 38.8125 
Q 48.828125 37.15625 52.796875 32.3125 
Q 56.78125 27.484375 56.78125 20.515625 
Q 56.78125 9.90625 50.3125 4.234375 
Q 43.84375 -1.421875 31.78125 -1.421875 
Q 19.734375 -1.421875 13.25 4.234375 
Q 6.78125 9.90625 6.78125 20.515625 
Q 6.78125 27.484375 10.78125 32.3125 
Q 14.796875 37.15625 21.921875 38.8125 
z
M 18.3125 54.390625 
Q 18.3125 48.734375 21.84375 45.5625 
Q 25.390625 42.390625 31.78125 42.390625 
Q 38.140625 42.390625 41.71875 45.5625 
Q 45.3125 48.734375 45.3125 54.390625 
Q 45.3125 60.0625 41.71875 63.234375 
Q 38.140625 66.40625 31.78125 66.40625 
Q 25.390625 66.40625 21.84375 63.234375 
Q 18.3125 60.0625 18.3125 54.390625 
z
" id="DejaVuSans-56"/>
      </defs>
      <g transform="translate(67.096875 210.481246)scale(0.1 -0.1)">
       <use xlink:href="#DejaVuSans-48"/>
       <use x="63.623047" xlink:href="#DejaVuSans-46"/>
       <use x="95.410156" xlink:href="#DejaVuSans-56"/>
      </g>
     </g>
    </g>
    <g id="ytick_4">
     <g id="line2d_23">
      <path clip-path="url(#pa4fb1b0a43)" d="M 90 166.243329 
L 648 166.243329 
" style="fill:none;stroke:#b0b0b0;stroke-linecap:square;stroke-width:0.8;"/>
     </g>
     <g id="line2d_24">
      <g>
       <use style="stroke:#000000;stroke-width:0.8;" x="90" xlink:href="#med4c43c564" y="166.243329"/>
      </g>
     </g>
     <g id="text_13">
      <!-- 1.0 -->
      <g transform="translate(67.096875 170.042547)scale(0.1 -0.1)">
       <use xlink:href="#DejaVuSans-49"/>
       <use x="63.623047" xlink:href="#DejaVuSans-46"/>
       <use x="95.410156" xlink:href="#DejaVuSans-48"/>
      </g>
     </g>
    </g>
    <g id="ytick_5">
     <g id="line2d_25">
      <path clip-path="url(#pa4fb1b0a43)" d="M 90 125.80463 
L 648 125.80463 
" style="fill:none;stroke:#b0b0b0;stroke-linecap:square;stroke-width:0.8;"/>
     </g>
     <g id="line2d_26">
      <g>
       <use style="stroke:#000000;stroke-width:0.8;" x="90" xlink:href="#med4c43c564" y="125.80463"/>
      </g>
     </g>
     <g id="text_14">
      <!-- 1.2 -->
      <g transform="translate(67.096875 129.603848)scale(0.1 -0.1)">
       <use xlink:href="#DejaVuSans-49"/>
       <use x="63.623047" xlink:href="#DejaVuSans-46"/>
       <use x="95.410156" xlink:href="#DejaVuSans-50"/>
      </g>
     </g>
    </g>
    <g id="ytick_6">
     <g id="line2d_27">
      <path clip-path="url(#pa4fb1b0a43)" d="M 90 85.365931 
L 648 85.365931 
" style="fill:none;stroke:#b0b0b0;stroke-linecap:square;stroke-width:0.8;"/>
     </g>
     <g id="line2d_28">
      <g>
       <use style="stroke:#000000;stroke-width:0.8;" x="90" xlink:href="#med4c43c564" y="85.365931"/>
      </g>
     </g>
     <g id="text_15">
      <!-- 1.4 -->
      <g transform="translate(67.096875 89.16515)scale(0.1 -0.1)">
       <use xlink:href="#DejaVuSans-49"/>
       <use x="63.623047" xlink:href="#DejaVuSans-46"/>
       <use x="95.410156" xlink:href="#DejaVuSans-52"/>
      </g>
     </g>
    </g>
    <g id="ytick_7">
     <g id="line2d_29">
      <path clip-path="url(#pa4fb1b0a43)" d="M 90 44.927232 
L 648 44.927232 
" style="fill:none;stroke:#b0b0b0;stroke-linecap:square;stroke-width:0.8;"/>
     </g>
     <g id="line2d_30">
      <g>
       <use style="stroke:#000000;stroke-width:0.8;" x="90" xlink:href="#med4c43c564" y="44.927232"/>
      </g>
     </g>
     <g id="text_16">
      <!-- 1.6 -->
      <g transform="translate(67.096875 48.726451)scale(0.1 -0.1)">
       <use xlink:href="#DejaVuSans-49"/>
       <use x="63.623047" xlink:href="#DejaVuSans-46"/>
       <use x="95.410156" xlink:href="#DejaVuSans-54"/>
      </g>
     </g>
    </g>
    <g id="text_17">
     <!-- loss -->
     <defs>
      <path d="M 9.421875 75.984375 
L 18.40625 75.984375 
L 18.40625 0 
L 9.421875 0 
z
" id="DejaVuSans-108"/>
      <path d="M 44.28125 53.078125 
L 44.28125 44.578125 
Q 40.484375 46.53125 36.375 47.5 
Q 32.28125 48.484375 27.875 48.484375 
Q 21.1875 48.484375 17.84375 46.4375 
Q 14.5 44.390625 14.5 40.28125 
Q 14.5 37.15625 16.890625 35.375 
Q 19.28125 33.59375 26.515625 31.984375 
L 29.59375 31.296875 
Q 39.15625 29.25 43.1875 25.515625 
Q 47.21875 21.78125 47.21875 15.09375 
Q 47.21875 7.46875 41.1875 3.015625 
Q 35.15625 -1.421875 24.609375 -1.421875 
Q 20.21875 -1.421875 15.453125 -0.5625 
Q 10.6875 0.296875 5.421875 2 
L 5.421875 11.28125 
Q 10.40625 8.6875 15.234375 7.390625 
Q 20.0625 6.109375 24.8125 6.109375 
Q 31.15625 6.109375 34.5625 8.28125 
Q 37.984375 10.453125 37.984375 14.40625 
Q 37.984375 18.0625 35.515625 20.015625 
Q 33.0625 21.96875 24.703125 23.78125 
L 21.578125 24.515625 
Q 13.234375 26.265625 9.515625 29.90625 
Q 5.8125 33.546875 5.8125 39.890625 
Q 5.8125 47.609375 11.28125 51.796875 
Q 16.75 56 26.8125 56 
Q 31.78125 56 36.171875 55.265625 
Q 40.578125 54.546875 44.28125 53.078125 
z
" id="DejaVuSans-115"/>
     </defs>
     <g transform="translate(61.017187 188.757812)rotate(-90)scale(0.1 -0.1)">
      <use xlink:href="#DejaVuSans-108"/>
      <use x="27.783203" xlink:href="#DejaVuSans-111"/>
      <use x="88.964844" xlink:href="#DejaVuSans-115"/>
      <use x="141.064453" xlink:href="#DejaVuSans-115"/>
     </g>
    </g>
   </g>
   <g id="line2d_31">
    <path clip-path="url(#pa4fb1b0a43)" d="M 115.363636 55.554545 
L 116.042716 64.48043 
L 116.721796 71.926102 
L 117.400876 72.524295 
L 118.079956 75.444084 
L 118.759036 79.173793 
L 119.438116 80.751519 
L 120.117196 83.297906 
L 120.796276 83.750323 
L 121.475356 83.173766 
L 122.833516 89.788857 
L 123.512596 89.691159 
L 124.191676 89.135583 
L 124.870756 92.712153 
L 125.549836 94.466118 
L 126.228916 95.139587 
L 126.907996 96.847467 
L 127.587076 99.094489 
L 128.266156 100.497508 
L 128.945235 104.445402 
L 129.624315 107.236543 
L 130.303395 108.301655 
L 130.982475 111.243279 
L 131.661555 112.798358 
L 132.340635 116.216883 
L 133.019715 118.35235 
L 133.698795 123.808269 
L 134.377875 125.368297 
L 135.056955 128.014831 
L 135.736035 133.362088 
L 136.415115 133.013614 
L 137.094195 135.954652 
L 137.773275 141.445317 
L 138.452355 142.438706 
L 139.810515 151.142936 
L 140.489595 151.639629 
L 141.168675 154.205117 
L 141.847755 157.236139 
L 142.526835 161.941321 
L 143.205915 162.538341 
L 144.564074 166.913308 
L 145.243154 168.193522 
L 146.601314 173.82381 
L 147.280394 174.568463 
L 147.959474 178.736054 
L 148.638554 181.72867 
L 149.317634 180.617529 
L 149.996714 187.548801 
L 150.675794 184.048585 
L 151.354874 184.545619 
L 152.033954 186.792256 
L 152.713034 190.715392 
L 153.392114 192.24221 
L 154.071194 191.212138 
L 154.750274 197.025785 
L 155.429354 194.102108 
L 156.108434 198.170355 
L 156.787514 199.176394 
L 157.466594 201.191121 
L 158.145674 202.722804 
L 158.824754 202.420715 
L 159.503834 204.754268 
L 160.182913 204.353046 
L 160.861993 205.603694 
L 161.541073 207.835517 
L 162.220153 208.925763 
L 162.899233 210.242092 
L 163.578313 212.130159 
L 164.257393 210.503235 
L 164.936473 214.465953 
L 165.615553 213.153456 
L 166.294633 215.19021 
L 166.973713 214.991437 
L 167.652793 216.368573 
L 168.331873 215.203616 
L 169.010953 220.649967 
L 169.690033 219.86481 
L 170.369113 219.909156 
L 171.048193 218.800791 
L 171.727273 218.410376 
L 172.406353 218.222069 
L 173.085433 220.458105 
L 173.764513 222.13434 
L 174.443593 222.712362 
L 175.122673 220.653614 
L 175.801752 222.825545 
L 176.480832 225.784483 
L 177.159912 226.114555 
L 177.838992 224.552115 
L 178.518072 227.90293 
L 179.197152 226.634489 
L 179.876232 229.607346 
L 181.234392 227.850707 
L 181.913472 231.218924 
L 182.592552 228.296173 
L 183.271632 230.252081 
L 184.629792 229.167392 
L 185.308872 232.65328 
L 185.987952 232.866021 
L 186.667032 234.345136 
L 187.346112 234.4399 
L 188.025192 237.112548 
L 188.704272 234.48826 
L 189.383352 234.828067 
L 190.062432 236.590763 
L 190.741512 237.134896 
L 191.420591 236.595533 
L 192.099671 237.924772 
L 192.778751 237.353505 
L 193.457831 237.75048 
L 194.136911 241.396142 
L 194.815991 239.594458 
L 195.495071 241.907269 
L 196.174151 237.247966 
L 196.853231 239.660511 
L 197.532311 237.8412 
L 198.211391 241.444362 
L 198.890471 240.763674 
L 199.569551 239.683276 
L 200.248631 242.14146 
L 200.927711 241.002745 
L 201.606791 241.415613 
L 202.285871 244.796325 
L 202.964951 239.766523 
L 203.644031 243.710743 
L 204.323111 241.016509 
L 205.002191 242.617768 
L 205.681271 244.660037 
L 206.36035 245.868852 
L 207.03943 244.411391 
L 207.71851 246.407959 
L 208.39759 247.610473 
L 209.07667 243.534543 
L 210.43483 247.776038 
L 211.11391 245.4992 
L 211.79299 244.60071 
L 212.47207 248.644414 
L 213.15115 248.649427 
L 213.83023 246.451945 
L 214.50931 248.704022 
L 215.18839 249.391599 
L 215.86747 248.911904 
L 216.54655 248.705112 
L 217.22563 250.512312 
L 217.90471 251.320699 
L 218.58379 253.230072 
L 219.94195 249.741268 
L 220.62103 251.03343 
L 221.30011 251.501569 
L 221.979189 254.284792 
L 222.658269 253.856945 
L 223.337349 250.911739 
L 224.016429 249.713622 
L 224.695509 253.546648 
L 225.374589 251.782852 
L 226.053669 252.346458 
L 226.732749 254.53929 
L 227.411829 253.293327 
L 228.090909 255.520385 
L 228.769989 254.666997 
L 229.449069 255.86283 
L 230.128149 255.270767 
L 230.807229 257.868079 
L 231.486309 256.515803 
L 232.165389 252.122703 
L 232.844469 256.262771 
L 233.523549 258.086844 
L 234.202629 255.817293 
L 234.881709 254.840392 
L 235.560789 258.786089 
L 236.239869 257.653263 
L 236.918949 257.716398 
L 237.598028 258.441682 
L 238.277108 256.586186 
L 238.956188 260.2823 
L 239.635268 255.809853 
L 240.314348 260.316753 
L 240.993428 255.772012 
L 241.672508 259.858407 
L 242.351588 258.456291 
L 243.030668 261.392957 
L 243.709748 255.536454 
L 244.388828 261.751073 
L 245.746988 260.364837 
L 246.426068 260.998946 
L 247.105148 261.894774 
L 247.784228 261.214549 
L 248.463308 259.19278 
L 249.142388 262.907168 
L 250.500548 258.89184 
L 251.179628 262.622436 
L 251.858708 260.647985 
L 252.537788 263.488232 
L 253.216867 263.980688 
L 253.895947 260.822991 
L 254.575027 258.876023 
L 255.254107 261.935853 
L 255.933187 266.888993 
L 256.612267 263.981997 
L 257.291347 263.040847 
L 257.970427 264.261707 
L 258.649507 263.978505 
L 259.328587 262.524147 
L 260.007667 263.119898 
L 260.686747 265.376707 
L 261.365827 257.458091 
L 262.044907 263.773041 
L 262.723987 266.055021 
L 263.403067 263.474157 
L 264.761227 260.318742 
L 265.440307 263.525777 
L 266.119387 264.298588 
L 266.798467 267.228378 
L 267.477547 267.221331 
L 268.156627 264.175716 
L 268.835706 266.075864 
L 269.514786 266.196151 
L 270.193866 267.474835 
L 270.872946 267.949844 
L 271.552026 266.423381 
L 272.231106 270.846149 
L 272.910186 263.582522 
L 273.589266 269.13299 
L 274.268346 265.997538 
L 274.947426 267.179257 
L 275.626506 266.0438 
L 276.305586 265.983115 
L 276.984666 265.413934 
L 277.663746 267.199602 
L 278.342826 265.735021 
L 279.021906 269.430784 
L 279.700986 268.522434 
L 280.380066 261.532666 
L 281.059146 267.235286 
L 281.738226 266.278762 
L 282.417306 269.969958 
L 283.096386 267.339204 
L 283.775465 267.397835 
L 284.454545 270.578006 
L 285.133625 270.728581 
L 285.812705 267.506705 
L 286.491785 269.167722 
L 287.170865 271.2083 
L 287.849945 270.607777 
L 288.529025 270.874757 
L 289.208105 269.010154 
L 289.887185 267.488954 
L 290.566265 271.287595 
L 291.245345 270.941051 
L 291.924425 271.297123 
L 292.603505 268.314151 
L 293.282585 271.436384 
L 293.961665 271.412929 
L 294.640745 273.197259 
L 295.319825 268.95416 
L 295.998905 272.893463 
L 296.677985 269.91818 
L 297.357065 272.337713 
L 298.036145 273.394463 
L 298.715225 270.901661 
L 299.394304 270.047266 
L 300.073384 275.00142 
L 300.752464 272.897997 
L 301.431544 274.550608 
L 302.110624 274.516552 
L 302.789704 270.505366 
L 303.468784 270.264522 
L 304.147864 272.557623 
L 304.826944 273.694537 
L 305.506024 273.020439 
L 306.185104 271.230364 
L 306.864184 270.790044 
L 307.543264 268.592401 
L 308.222344 269.485286 
L 308.901424 270.967937 
L 309.580504 273.896229 
L 310.259584 273.806622 
L 310.938664 271.419225 
L 311.617744 270.239229 
L 312.296824 273.872797 
L 312.975904 273.138831 
L 313.654984 273.682606 
L 314.334064 274.01169 
L 315.013143 275.422869 
L 315.692223 271.687708 
L 316.371303 273.254189 
L 317.050383 272.64251 
L 317.729463 273.821862 
L 318.408543 275.573774 
L 319.087623 273.418349 
L 319.766703 272.111468 
L 320.445783 272.899276 
L 321.124863 273.197543 
L 321.803943 274.398425 
L 322.483023 273.484001 
L 323.162103 271.102608 
L 323.841183 278.09319 
L 324.520263 273.405238 
L 325.199343 274.933828 
L 325.878423 277.492524 
L 326.557503 273.32526 
L 327.236583 274.297304 
L 327.915663 274.628206 
L 328.594743 277.561911 
L 329.273823 274.506886 
L 329.952903 276.575422 
L 330.631982 277.625797 
L 331.311062 274.784879 
L 331.990142 278.793967 
L 332.669222 275.660168 
L 333.348302 274.837828 
L 334.027382 277.020205 
L 334.706462 276.393397 
L 335.385542 275.092202 
L 336.064622 276.739954 
L 336.743702 277.520859 
L 337.422782 277.824278 
L 338.101862 275.163208 
L 338.780942 277.353036 
L 339.460022 278.972008 
L 340.139102 274.692672 
L 340.818182 276.087547 
L 341.497262 278.194883 
L 342.176342 279.053077 
L 342.855422 278.400168 
L 343.534502 277.365156 
L 344.213582 272.622834 
L 344.892662 277.859593 
L 345.571742 278.141942 
L 346.250821 280.292339 
L 346.929901 277.790814 
L 347.608981 278.769722 
L 348.288061 277.687963 
L 348.967141 281.117858 
L 349.646221 278.036077 
L 350.325301 280.360631 
L 351.004381 281.119019 
L 351.683461 279.337975 
L 352.362541 279.084811 
L 353.041621 280.616219 
L 353.720701 279.155219 
L 354.399781 280.687869 
L 355.078861 278.459678 
L 355.757941 281.620331 
L 356.437021 279.940597 
L 357.116101 279.582022 
L 357.795181 280.720252 
L 358.474261 279.631525 
L 359.153341 282.769425 
L 359.832421 280.842222 
L 360.511501 280.302023 
L 361.190581 283.346929 
L 361.86966 278.361732 
L 362.54874 281.667529 
L 363.22782 282.072701 
L 363.9069 281.355971 
L 364.58598 282.483678 
L 365.26506 282.051693 
L 365.94414 281.760632 
L 366.62322 280.557552 
L 367.3023 280.193122 
L 367.98138 280.211189 
L 368.66046 279.810322 
L 369.33954 281.48485 
L 370.6977 280.755674 
L 371.37678 281.189514 
L 372.05586 281.217362 
L 372.73494 285.061215 
L 373.41402 279.618055 
L 374.0931 281.440332 
L 374.77218 281.097338 
L 375.45126 281.15256 
L 376.13034 280.962337 
L 376.809419 282.704487 
L 377.488499 281.946991 
L 378.167579 281.621733 
L 378.846659 280.25272 
L 379.525739 283.395973 
L 380.204819 279.46309 
L 380.883899 282.962065 
L 381.562979 282.174572 
L 382.242059 281.796398 
L 382.921139 280.852256 
L 383.600219 285.594368 
L 384.279299 280.625862 
L 384.958379 283.355077 
L 385.637459 281.762294 
L 386.316539 281.558233 
L 386.995619 282.446905 
L 387.674699 282.715909 
L 388.353779 284.240236 
L 389.032859 281.498856 
L 389.711939 282.898376 
L 390.391019 283.539252 
L 391.070099 283.951969 
L 391.749179 284.794064 
L 392.428258 284.684509 
L 393.107338 284.081917 
L 393.786418 282.36944 
L 394.465498 283.201123 
L 395.144578 285.234033 
L 395.823658 283.0372 
L 396.502738 283.781502 
L 397.181818 281.755665 
L 397.860898 285.126935 
L 398.539978 283.965441 
L 399.219058 281.101968 
L 399.898138 286.182183 
L 400.577218 283.89343 
L 401.256298 282.590682 
L 401.935378 284.246744 
L 402.614458 284.815316 
L 403.293538 283.874478 
L 403.972618 283.681648 
L 404.651698 281.904262 
L 405.330778 286.754182 
L 406.009858 284.827946 
L 406.688938 288.159234 
L 407.368018 283.461231 
L 408.047097 283.813471 
L 408.726177 283.92899 
L 409.405257 284.280173 
L 410.084337 282.29748 
L 410.763417 286.668571 
L 411.442497 285.267364 
L 412.121577 285.311037 
L 412.800657 288.504142 
L 413.479737 283.564007 
L 414.158817 286.141258 
L 414.837897 287.340794 
L 415.516977 284.214167 
L 416.196057 282.876305 
L 416.875137 286.243861 
L 417.554217 286.926387 
L 418.233297 287.130074 
L 418.912377 285.252159 
L 419.591457 289.555855 
L 420.270537 284.726687 
L 420.949617 286.595258 
L 421.628697 286.235615 
L 422.307777 287.015542 
L 422.986857 289.041306 
L 423.665936 284.284805 
L 424.345016 286.729811 
L 425.024096 288.089118 
L 425.703176 286.591488 
L 426.382256 286.467499 
L 427.061336 283.726897 
L 427.740416 287.996478 
L 428.419496 287.290676 
L 429.098576 287.287308 
L 429.777656 285.990755 
L 430.456736 288.023489 
L 431.135816 288.153571 
L 431.814896 285.91302 
L 432.493976 289.786117 
L 433.173056 287.764135 
L 433.852136 288.460604 
L 434.531216 286.487529 
L 435.210296 287.423983 
L 435.889376 287.959075 
L 436.568456 286.52003 
L 437.247536 286.968263 
L 437.926616 289.09484 
L 438.605696 286.791552 
L 439.284775 290.990499 
L 439.963855 287.104919 
L 440.642935 287.979669 
L 441.322015 289.319289 
L 442.001095 287.988328 
L 442.680175 289.388638 
L 443.359255 289.614492 
L 444.038335 290.872561 
L 444.717415 288.708956 
L 445.396495 289.036055 
L 446.075575 290.244805 
L 446.754655 287.724644 
L 447.433735 290.81441 
L 448.112815 288.817529 
L 448.791895 287.945248 
L 449.470975 291.240623 
L 450.150055 286.826202 
L 450.829135 290.73279 
L 451.508215 289.263149 
L 452.187295 287.014005 
L 452.866375 288.227751 
L 453.545455 287.773585 
L 454.224535 289.77985 
L 454.903614 289.701419 
L 455.582694 289.279218 
L 456.261774 290.22683 
L 456.940854 289.034696 
L 457.619934 286.419393 
L 458.299014 288.024025 
L 458.978094 291.318847 
L 459.657174 288.781809 
L 460.336254 293.124732 
L 461.015334 288.322902 
L 461.694414 290.177522 
L 462.373494 288.628801 
L 463.052574 289.950963 
L 463.731654 289.292789 
L 464.410734 289.244824 
L 465.089814 291.774549 
L 465.768894 289.164969 
L 466.447974 288.306457 
L 467.127054 286.976938 
L 467.806134 292.021087 
L 468.485214 289.333509 
L 469.164294 289.73924 
L 470.522453 294.561969 
L 471.201533 290.758576 
L 471.880613 290.218286 
L 472.559693 291.162014 
L 473.238773 293.068539 
L 473.917853 291.713706 
L 474.596933 289.432058 
L 475.276013 291.306981 
L 475.955093 289.308211 
L 476.634173 290.171167 
L 477.313253 292.448882 
L 477.992333 290.053858 
L 478.671413 288.364498 
L 479.350493 288.856882 
L 480.029573 290.464197 
L 480.708653 290.585207 
L 481.387733 289.884889 
L 482.066813 290.341614 
L 482.745893 292.813661 
L 483.424973 292.362445 
L 484.104053 290.312475 
L 484.783133 290.691374 
L 485.462212 290.839393 
L 486.141292 292.479399 
L 486.820372 291.793508 
L 487.499452 290.752083 
L 488.178532 291.234547 
L 488.857612 293.559312 
L 489.536692 292.537387 
L 490.215772 293.188321 
L 490.894852 292.119341 
L 491.573932 293.411088 
L 492.253012 292.610276 
L 492.932092 292.16822 
L 493.611172 293.055134 
L 494.290252 294.179264 
L 494.969332 296.82866 
L 495.648412 296.644807 
L 496.327492 292.186222 
L 497.006572 290.42594 
L 497.685652 293.498337 
L 498.364732 293.34617 
L 499.043812 293.621256 
L 500.401972 292.665515 
L 501.081051 290.337863 
L 501.760131 294.169324 
L 502.439211 291.525271 
L 503.118291 293.216867 
L 503.797371 293.274944 
L 504.476451 292.739021 
L 505.155531 294.326296 
L 505.834611 291.379311 
L 506.513691 292.967817 
L 507.192771 291.648488 
L 507.871851 291.234603 
L 508.550931 292.483612 
L 509.230011 296.577527 
L 509.909091 293.725526 
L 510.588171 294.570997 
L 511.267251 291.827067 
L 511.946331 293.987247 
L 512.625411 295.021482 
L 513.304491 297.920596 
L 513.983571 295.268548 
L 514.662651 293.590101 
L 516.020811 294.833644 
L 516.69989 293.380982 
L 517.37897 293.739619 
L 518.05805 291.619058 
L 518.73713 292.154911 
L 519.41621 295.217475 
L 520.09529 296.480014 
L 520.77437 295.681792 
L 521.45345 293.918397 
L 522.13253 291.266761 
L 522.81161 294.184953 
L 523.49069 291.529594 
L 524.16977 294.094049 
L 524.84885 295.101588 
L 525.52793 294.784378 
L 526.20701 293.974452 
L 526.88609 295.581254 
L 527.56517 293.665693 
L 528.24425 296.072067 
L 528.92333 293.925726 
L 529.60241 297.436546 
L 530.28149 296.106802 
L 530.96057 295.194703 
L 531.63965 296.336028 
L 532.318729 295.655239 
L 532.997809 293.208919 
L 533.676889 294.715041 
L 534.355969 292.741613 
L 535.035049 295.335567 
L 535.714129 295.066782 
L 536.393209 296.411122 
L 537.072289 295.614857 
L 537.751369 295.717752 
L 538.430449 295.519362 
L 539.788609 295.533291 
L 540.467689 296.191459 
L 541.146769 294.617877 
L 541.825849 297.109294 
L 542.504929 296.921594 
L 543.184009 297.175759 
L 543.863089 297.549392 
L 544.542169 295.361373 
L 545.221249 294.852222 
L 545.900329 293.999553 
L 546.579409 296.967992 
L 547.258488 297.198299 
L 547.937568 294.678411 
L 548.616648 294.407984 
L 549.295728 293.846981 
L 549.974808 298.478679 
L 550.653888 296.013687 
L 551.332968 296.722487 
L 552.012048 295.111481 
L 552.691128 296.757052 
L 553.370208 295.792494 
L 554.049288 296.265098 
L 554.728368 294.957715 
L 555.407448 296.509178 
L 556.086528 294.952543 
L 556.765608 296.014123 
L 557.444688 293.947758 
L 558.123768 295.741973 
L 558.802848 298.830929 
L 559.481928 298.659331 
L 560.161008 294.543996 
L 560.840088 297.983789 
L 561.519168 300.077605 
L 562.198248 298.303484 
L 562.877327 294.572897 
L 563.556407 297.325188 
L 564.235487 298.035379 
L 564.914567 296.859005 
L 565.593647 294.806285 
L 566.272727 296.669888 
L 566.951807 299.706077 
L 567.630887 296.127564 
L 568.309967 293.35042 
L 568.989047 299.536937 
L 569.668127 297.017204 
L 570.347207 296.534663 
L 571.026287 299.821859 
L 571.705367 297.126 
L 572.384447 299.911271 
L 573.063527 298.070403 
L 573.742607 296.568582 
L 574.421687 298.956899 
L 575.779847 298.945029 
L 576.458927 296.964489 
L 577.138007 298.777176 
L 577.817087 297.753395 
L 578.496166 298.367699 
L 579.175246 297.679 
L 579.854326 296.311195 
L 580.533406 298.906316 
L 581.212486 296.724624 
L 581.891566 297.498094 
L 582.570646 296.60585 
L 583.249726 296.968856 
L 583.928806 295.355485 
L 584.607886 295.173688 
L 585.286966 300.19808 
L 585.966046 297.560379 
L 587.324206 298.212349 
L 588.003286 293.951547 
L 589.361446 300.893954 
L 590.040526 295.926884 
L 590.719606 298.741135 
L 591.398686 298.660947 
L 592.077766 296.837772 
L 592.756846 299.664484 
L 593.435926 296.876901 
L 594.794085 295.903489 
L 595.473165 297.353528 
L 596.152245 297.420324 
L 596.831325 301.302777 
L 597.510405 297.597936 
L 598.189485 299.383841 
L 598.868565 299.578527 
L 599.547645 297.775705 
L 600.226725 298.909557 
L 600.905805 298.221163 
L 601.584885 297.301208 
L 602.263965 297.582321 
L 602.943045 300.021645 
L 603.622125 298.530908 
L 604.301205 298.51306 
L 604.980285 299.677134 
L 605.659365 299.026709 
L 606.338445 301.237571 
L 607.017525 300.36782 
L 607.696605 300.580785 
L 608.375685 297.860523 
L 609.054765 298.453508 
L 609.733844 302.18964 
L 610.412924 294.785309 
L 611.092004 300.854733 
L 611.771084 300.579252 
L 612.450164 297.495659 
L 613.129244 300.750221 
L 613.808324 300.603793 
L 614.487404 297.86614 
L 615.166484 299.527438 
L 615.845564 296.305731 
L 616.524644 302.086871 
L 617.203724 298.730682 
L 617.882804 299.25866 
L 618.561884 298.491431 
L 619.240964 300.917146 
L 619.920044 301.166506 
L 620.599124 301.543323 
L 621.278204 300.005646 
L 621.957284 300.103784 
L 622.636364 302.645455 
L 622.636364 302.645455 
" style="fill:none;stroke:#1f77b4;stroke-linecap:square;stroke-width:0.5;"/>
   </g>
   <g id="line2d_32">
    <path clip-path="url(#pa4fb1b0a43)" d="M 115.363636 63.862622 
L 116.042716 67.020838 
L 116.721796 73.695334 
L 117.400876 73.082194 
L 118.079956 77.747383 
L 118.759036 78.155772 
L 119.438116 79.211873 
L 120.117196 83.409302 
L 120.796276 83.958101 
L 121.475356 82.822777 
L 122.154436 82.672639 
L 122.833516 86.121874 
L 123.512596 87.899744 
L 124.191676 87.657449 
L 124.870756 91.335582 
L 125.549836 92.260739 
L 126.228916 96.162842 
L 126.907996 94.253423 
L 127.587076 98.768995 
L 128.266156 98.563623 
L 129.624315 102.223588 
L 130.303395 105.678672 
L 130.982475 110.538652 
L 131.661555 110.923656 
L 132.340635 114.490855 
L 133.019715 116.435165 
L 133.698795 122.480759 
L 134.377875 122.973376 
L 135.056955 124.316075 
L 135.736035 129.538054 
L 136.415115 131.152016 
L 137.094195 135.447803 
L 137.773275 132.637341 
L 138.452355 139.008701 
L 139.131435 141.077481 
L 139.810515 145.821273 
L 141.168675 149.259069 
L 141.847755 152.666971 
L 143.884995 159.967096 
L 144.564074 163.01622 
L 145.243154 164.775078 
L 145.922234 168.249512 
L 146.601314 169.536702 
L 147.280394 172.238768 
L 147.959474 172.548651 
L 149.317634 176.480578 
L 150.675794 182.914958 
L 151.354874 181.289549 
L 152.033954 185.087269 
L 152.713034 186.394217 
L 153.392114 190.578787 
L 154.071194 187.186292 
L 154.750274 191.568361 
L 155.429354 191.667075 
L 156.108434 193.707437 
L 157.466594 196.188388 
L 158.145674 195.652884 
L 158.824754 199.827345 
L 159.503834 199.861568 
L 160.182913 200.906281 
L 160.861993 204.68203 
L 161.541073 204.729905 
L 162.220153 203.119065 
L 162.899233 204.939801 
L 163.578313 205.128058 
L 164.257393 207.921822 
L 164.936473 208.744658 
L 165.615553 207.749131 
L 166.973713 213.316226 
L 167.652793 210.631381 
L 170.369113 217.789274 
L 171.048193 217.140262 
L 171.727273 217.640255 
L 172.406353 218.416209 
L 173.085433 220.198072 
L 173.764513 221.53281 
L 174.443593 219.200257 
L 175.122673 220.345347 
L 175.801752 222.2315 
L 176.480832 220.783697 
L 177.159912 220.969721 
L 177.838992 223.880132 
L 178.518072 222.363179 
L 179.876232 226.898523 
L 180.555312 224.845521 
L 181.913472 227.930346 
L 182.592552 228.350493 
L 183.950712 231.456472 
L 184.629792 227.483986 
L 185.308872 228.349875 
L 185.987952 230.434447 
L 186.667032 228.840735 
L 187.346112 230.474832 
L 188.025192 229.947084 
L 188.704272 232.805611 
L 189.383352 235.079496 
L 190.062432 234.212047 
L 190.741512 235.465454 
L 191.420591 233.458839 
L 192.099671 232.415031 
L 192.778751 235.972572 
L 193.457831 235.710062 
L 194.136911 233.347056 
L 194.815991 238.254684 
L 195.495071 236.352529 
L 196.174151 238.405706 
L 196.853231 237.960282 
L 197.532311 240.598753 
L 198.211391 239.702982 
L 198.890471 234.487806 
L 199.569551 234.960805 
L 200.927711 242.021715 
L 201.606791 240.257236 
L 202.285871 243.204196 
L 202.964951 236.865628 
L 203.644031 241.092156 
L 204.323111 240.93924 
L 205.002191 242.572226 
L 205.681271 240.917777 
L 206.36035 241.91095 
L 207.03943 241.114159 
L 207.71851 242.414133 
L 208.39759 242.454804 
L 209.07667 244.536755 
L 209.75575 243.909409 
L 210.43483 243.745169 
L 211.11391 244.238971 
L 211.79299 245.660057 
L 212.47207 247.821225 
L 213.15115 244.278147 
L 213.83023 245.024308 
L 214.50931 244.777325 
L 215.18839 243.421722 
L 215.86747 243.599664 
L 216.54655 246.380722 
L 217.90471 249.070761 
L 218.58379 248.857539 
L 219.26287 247.728733 
L 219.94195 247.597305 
L 220.62103 246.426611 
L 221.30011 250.97878 
L 221.979189 247.908272 
L 222.658269 250.679719 
L 223.337349 248.770664 
L 224.695509 248.639166 
L 225.374589 249.420658 
L 226.053669 247.516439 
L 226.732749 251.503736 
L 227.411829 248.801681 
L 228.090909 247.23402 
L 228.769989 251.372086 
L 229.449069 249.915352 
L 230.128149 248.776165 
L 230.807229 250.533939 
L 231.486309 252.618984 
L 232.165389 250.628398 
L 233.523549 252.179488 
L 234.202629 247.87873 
L 234.881709 249.328702 
L 235.560789 252.318788 
L 236.239869 252.808858 
L 236.918949 255.750533 
L 237.598028 248.363826 
L 238.277108 250.776616 
L 238.956188 254.229587 
L 239.635268 253.69072 
L 240.314348 252.012838 
L 240.993428 250.789201 
L 241.672508 253.061977 
L 242.351588 253.045276 
L 243.030668 252.477526 
L 243.709748 255.314847 
L 244.388828 253.449519 
L 245.067908 254.261902 
L 245.746988 255.294719 
L 246.426068 253.952942 
L 247.105148 255.590762 
L 247.784228 254.204117 
L 248.463308 252.389525 
L 249.142388 252.618399 
L 249.821468 257.141322 
L 250.500548 258.407701 
L 251.179628 254.477389 
L 251.858708 254.759029 
L 252.537788 253.993973 
L 253.216867 256.914109 
L 253.895947 258.341103 
L 254.575027 253.264993 
L 255.254107 253.487744 
L 255.933187 254.314378 
L 256.612267 257.094934 
L 257.291347 256.708407 
L 257.970427 255.464981 
L 258.649507 256.352181 
L 259.328587 257.487813 
L 260.007667 254.157789 
L 260.686747 259.232524 
L 261.365827 254.864282 
L 262.044907 255.600657 
L 262.723987 258.016152 
L 263.403067 252.797471 
L 264.082147 256.955722 
L 264.761227 256.932635 
L 265.440307 254.278842 
L 266.119387 257.392969 
L 266.798467 256.742093 
L 267.477547 256.434327 
L 268.156627 257.016984 
L 268.835706 258.33917 
L 269.514786 260.432548 
L 270.193866 261.18539 
L 270.872946 256.000249 
L 271.552026 258.786532 
L 272.231106 257.994862 
L 272.910186 256.858861 
L 273.589266 256.130671 
L 274.268346 257.943012 
L 274.947426 258.433364 
L 275.626506 258.000341 
L 276.305586 255.73046 
L 277.663746 259.452076 
L 278.342826 261.999586 
L 279.021906 257.616627 
L 279.700986 255.488458 
L 281.059146 258.554448 
L 281.738226 256.826465 
L 282.417306 258.432432 
L 283.096386 257.867128 
L 283.775465 260.212638 
L 284.454545 258.324368 
L 285.133625 260.714168 
L 285.812705 259.246715 
L 286.491785 259.099376 
L 287.170865 261.807055 
L 287.849945 259.665135 
L 288.529025 262.230393 
L 289.208105 258.589588 
L 289.887185 259.695341 
L 290.566265 257.11858 
L 291.245345 261.589142 
L 291.924425 262.588374 
L 292.603505 261.4417 
L 293.282585 258.850594 
L 293.961665 261.949876 
L 294.640745 258.477337 
L 295.319825 259.547539 
L 295.998905 262.247359 
L 296.677985 262.751975 
L 297.357065 262.3863 
L 298.036145 260.572759 
L 298.715225 259.164077 
L 299.394304 260.644513 
L 300.073384 263.674937 
L 301.431544 261.719377 
L 302.110624 260.785877 
L 302.789704 260.049053 
L 303.468784 260.099144 
L 304.147864 261.673998 
L 304.826944 265.805577 
L 305.506024 261.180797 
L 306.185104 263.949092 
L 307.543264 260.129731 
L 308.222344 260.070872 
L 308.901424 260.265162 
L 309.580504 260.726105 
L 310.259584 263.837552 
L 310.938664 260.690222 
L 311.617744 259.280847 
L 312.296824 260.810197 
L 312.975904 263.086115 
L 313.654984 264.75069 
L 314.334064 259.531488 
L 315.013143 258.135785 
L 315.692223 259.95632 
L 316.371303 263.634731 
L 317.050383 263.286347 
L 317.729463 264.599811 
L 318.408543 261.490566 
L 319.087623 262.640527 
L 319.766703 261.077955 
L 320.445783 260.4032 
L 321.124863 261.149646 
L 321.803943 263.112403 
L 322.483023 261.849793 
L 323.162103 263.745278 
L 323.841183 259.623873 
L 324.520263 260.176522 
L 325.199343 258.5681 
L 325.878423 265.222881 
L 326.557503 263.159349 
L 327.236583 262.127956 
L 327.915663 265.362364 
L 328.594743 262.047604 
L 329.273823 263.002724 
L 329.952903 262.061411 
L 330.631982 265.468389 
L 331.311062 261.475649 
L 331.990142 261.956949 
L 332.669222 263.316188 
L 333.348302 263.387056 
L 334.027382 260.239551 
L 334.706462 262.406262 
L 335.385542 264.088595 
L 336.064622 266.181561 
L 337.422782 263.345803 
L 338.101862 265.021456 
L 338.780942 262.169198 
L 339.460022 267.054259 
L 340.139102 264.027802 
L 340.818182 264.27381 
L 341.497262 265.511082 
L 342.176342 260.835314 
L 342.855422 265.223868 
L 343.534502 264.406669 
L 344.213582 263.247719 
L 344.892662 264.086547 
L 345.571742 265.139316 
L 346.250821 262.673121 
L 346.929901 264.737359 
L 347.608981 265.856305 
L 348.288061 264.035233 
L 348.967141 263.992201 
L 349.646221 265.7317 
L 350.325301 266.447138 
L 351.004381 265.653902 
L 351.683461 263.503481 
L 352.362541 265.876802 
L 353.041621 264.190552 
L 353.720701 263.598328 
L 354.399781 261.938288 
L 355.078861 264.051689 
L 355.757941 262.236869 
L 356.437021 266.231542 
L 357.116101 266.283948 
L 357.795181 264.92942 
L 358.474261 267.717084 
L 359.153341 264.47657 
L 359.832421 268.099261 
L 360.511501 264.617109 
L 361.190581 264.235198 
L 361.86966 266.129954 
L 362.54874 265.449809 
L 363.22782 267.329101 
L 363.9069 266.93037 
L 364.58598 263.423832 
L 365.26506 266.302819 
L 365.94414 265.341602 
L 366.62322 264.601978 
L 367.3023 264.219534 
L 367.98138 265.728786 
L 368.66046 266.524176 
L 369.33954 265.258651 
L 370.01862 266.548398 
L 370.6977 262.983434 
L 371.37678 265.257888 
L 372.05586 265.64512 
L 372.73494 267.544251 
L 373.41402 267.13141 
L 375.45126 261.53259 
L 376.13034 267.959305 
L 376.809419 264.283483 
L 377.488499 265.640989 
L 378.167579 265.155043 
L 378.846659 265.927516 
L 379.525739 264.572077 
L 380.204819 264.252241 
L 380.883899 267.464465 
L 382.242059 262.876767 
L 382.921139 266.318672 
L 383.600219 266.356545 
L 384.279299 264.2267 
L 384.958379 267.390541 
L 385.637459 266.091383 
L 386.316539 265.452535 
L 386.995619 268.47561 
L 388.353779 263.533157 
L 389.032859 266.809385 
L 389.711939 264.136251 
L 390.391019 266.773989 
L 391.749179 264.217405 
L 392.428258 266.124728 
L 393.107338 266.960742 
L 393.786418 264.832142 
L 394.465498 268.956538 
L 395.144578 266.153121 
L 395.823658 267.505089 
L 396.502738 266.257132 
L 397.181818 267.908344 
L 397.860898 266.29756 
L 398.539978 266.245902 
L 399.219058 269.644024 
L 399.898138 268.004117 
L 400.577218 264.641321 
L 401.256298 265.760953 
L 401.935378 266.167993 
L 402.614458 267.431718 
L 403.293538 264.785416 
L 403.972618 265.767506 
L 404.651698 263.352282 
L 405.330778 264.133713 
L 406.009858 267.491263 
L 406.688938 265.503156 
L 407.368018 261.074139 
L 408.726177 266.954056 
L 409.405257 263.24415 
L 410.084337 268.467327 
L 410.763417 266.748585 
L 411.442497 270.220799 
L 412.121577 265.610027 
L 412.800657 269.45106 
L 413.479737 269.137395 
L 414.158817 265.629866 
L 414.837897 265.151584 
L 415.516977 264.497648 
L 416.196057 266.616707 
L 416.875137 266.480872 
L 417.554217 267.649273 
L 418.233297 264.236958 
L 418.912377 265.039691 
L 419.591457 267.680846 
L 420.270537 266.603618 
L 420.949617 265.835855 
L 421.628697 265.382978 
L 422.307777 265.470128 
L 422.986857 263.236454 
L 423.665936 269.380168 
L 424.345016 266.593306 
L 425.024096 266.425408 
L 425.703176 268.901437 
L 426.382256 263.597667 
L 427.061336 270.233551 
L 427.740416 271.116429 
L 429.098576 263.656695 
L 429.777656 267.070332 
L 430.456736 266.058621 
L 431.135816 268.798617 
L 431.814896 264.615901 
L 432.493976 265.946767 
L 433.173056 267.637958 
L 433.852136 266.228326 
L 434.531216 266.998313 
L 435.210296 264.484624 
L 435.889376 264.984599 
L 436.568456 266.615335 
L 437.247536 266.289099 
L 437.926616 263.510839 
L 438.605696 266.529202 
L 439.284775 263.005337 
L 439.963855 268.041262 
L 440.642935 268.052249 
L 441.322015 270.444228 
L 442.001095 267.140786 
L 442.680175 269.057995 
L 443.359255 266.185968 
L 444.038335 266.102983 
L 444.717415 263.39744 
L 445.396495 267.632951 
L 446.075575 269.963902 
L 446.754655 269.416173 
L 447.433735 269.435808 
L 448.112815 265.029523 
L 448.791895 265.286174 
L 449.470975 265.211926 
L 450.150055 267.969688 
L 451.508215 267.094697 
L 452.187295 266.202025 
L 452.866375 267.636292 
L 453.545455 263.100343 
L 454.224535 269.037792 
L 454.903614 266.970968 
L 455.582694 267.116571 
L 456.261774 264.634098 
L 456.940854 266.875081 
L 457.619934 263.351354 
L 458.299014 268.475941 
L 458.978094 269.309212 
L 459.657174 266.988551 
L 460.336254 270.295667 
L 461.015334 266.051256 
L 461.694414 263.900906 
L 462.373494 263.921631 
L 463.731654 267.066894 
L 464.410734 266.396321 
L 465.089814 267.847347 
L 465.768894 264.530666 
L 466.447974 265.276876 
L 467.127054 265.066764 
L 467.806134 268.210855 
L 468.485214 264.479193 
L 469.164294 269.838688 
L 469.843373 270.131502 
L 470.522453 265.192566 
L 471.201533 267.683712 
L 471.880613 266.664166 
L 472.559693 268.589374 
L 473.238773 262.817235 
L 473.917853 265.9651 
L 474.596933 265.949993 
L 475.276013 263.704267 
L 475.955093 262.723354 
L 476.634173 267.227611 
L 477.313253 268.413907 
L 477.992333 269.352997 
L 478.671413 267.343029 
L 479.350493 266.564817 
L 480.029573 266.541986 
L 480.708653 264.459938 
L 481.387733 267.848212 
L 482.066813 264.918808 
L 482.745893 264.520332 
L 483.424973 271.783221 
L 484.104053 266.45812 
L 484.783133 267.592768 
L 485.462212 267.878708 
L 486.141292 269.11321 
L 486.820372 272.802819 
L 487.499452 269.970119 
L 488.178532 269.589737 
L 488.857612 269.792707 
L 489.536692 270.671644 
L 490.215772 268.533634 
L 490.894852 267.548942 
L 491.573932 269.01083 
L 492.253012 267.328036 
L 492.932092 267.82195 
L 493.611172 266.455808 
L 494.290252 266.419571 
L 494.969332 265.487348 
L 495.648412 265.281726 
L 496.327492 266.752894 
L 497.006572 264.982709 
L 497.685652 269.243348 
L 498.364732 268.169598 
L 499.043812 269.807094 
L 499.722892 266.791463 
L 500.401972 271.047311 
L 501.081051 267.739046 
L 501.760131 266.149376 
L 502.439211 263.386587 
L 503.118291 268.165163 
L 503.797371 265.870699 
L 504.476451 267.562288 
L 505.155531 271.302525 
L 506.513691 265.875522 
L 507.192771 266.180213 
L 507.871851 269.427286 
L 508.550931 268.634848 
L 509.230011 270.123602 
L 509.909091 264.492574 
L 510.588171 270.036232 
L 511.267251 267.338373 
L 511.946331 267.959923 
L 512.625411 267.567321 
L 513.304491 268.14425 
L 513.983571 265.897124 
L 514.662651 267.101762 
L 515.341731 266.534834 
L 516.020811 266.877837 
L 516.69989 268.09611 
L 517.37897 268.153299 
L 518.05805 267.735328 
L 518.73713 267.729947 
L 519.41621 266.607096 
L 520.09529 263.663951 
L 520.77437 267.811805 
L 521.45345 266.489962 
L 522.13253 267.734033 
L 522.81161 268.712352 
L 523.49069 265.59177 
L 524.16977 267.600667 
L 524.84885 267.019472 
L 525.52793 269.164888 
L 526.20701 268.441099 
L 526.88609 266.533792 
L 527.56517 271.601946 
L 528.24425 265.889771 
L 528.92333 269.181984 
L 529.60241 268.405283 
L 530.28149 271.726144 
L 530.96057 267.726121 
L 531.63965 267.751505 
L 532.318729 264.90697 
L 532.997809 269.675483 
L 533.676889 267.227431 
L 534.355969 267.830442 
L 535.035049 268.594998 
L 535.714129 266.564892 
L 536.393209 268.000599 
L 537.072289 268.358123 
L 537.751369 265.934326 
L 538.430449 266.987135 
L 539.109529 267.510742 
L 539.788609 269.750821 
L 540.467689 268.30046 
L 541.146769 266.002395 
L 541.825849 272.668138 
L 542.504929 267.586633 
L 543.184009 267.189051 
L 543.863089 270.194326 
L 544.542169 267.903842 
L 545.221249 264.614539 
L 545.900329 265.288274 
L 546.579409 266.743167 
L 547.258488 268.525882 
L 547.937568 265.013923 
L 548.616648 266.213359 
L 549.295728 269.66416 
L 549.974808 263.94828 
L 550.653888 264.683372 
L 551.332968 269.922702 
L 552.012048 269.788617 
L 552.691128 266.995197 
L 553.370208 267.254529 
L 554.049288 268.492204 
L 554.728368 264.677334 
L 555.407448 266.909595 
L 556.086528 268.055888 
L 556.765608 268.576595 
L 557.444688 266.832627 
L 558.123768 266.821873 
L 558.802848 267.408155 
L 559.481928 269.106936 
L 560.161008 266.386514 
L 560.840088 265.217549 
L 562.198248 268.903252 
L 562.877327 266.538575 
L 563.556407 267.999673 
L 564.235487 266.475224 
L 564.914567 264.175254 
L 565.593647 265.529942 
L 566.272727 265.941281 
L 566.951807 264.96443 
L 567.630887 269.294423 
L 568.309967 269.716908 
L 568.989047 267.187202 
L 569.668127 267.845246 
L 570.347207 264.135614 
L 571.026287 267.169914 
L 571.705367 268.833384 
L 572.384447 270.121534 
L 573.742607 266.597222 
L 574.421687 268.434637 
L 575.100767 268.622366 
L 575.779847 264.588358 
L 576.458927 263.17557 
L 577.138007 265.320852 
L 577.817087 265.451416 
L 578.496166 266.540719 
L 579.175246 266.147931 
L 579.854326 266.905079 
L 580.533406 267.389306 
L 581.212486 265.286873 
L 581.891566 269.817268 
L 582.570646 266.550304 
L 583.249726 268.000753 
L 583.928806 262.31764 
L 584.607886 266.918516 
L 585.286966 264.805635 
L 585.966046 264.116449 
L 586.645126 268.449245 
L 587.324206 266.178523 
L 588.003286 266.909146 
L 588.682366 267.39631 
L 589.361446 266.181892 
L 590.040526 267.676499 
L 590.719606 265.334539 
L 591.398686 266.770545 
L 592.077766 262.870842 
L 592.756846 267.208481 
L 593.435926 260.907454 
L 594.115005 266.766811 
L 594.794085 263.217569 
L 595.473165 266.641048 
L 596.152245 264.576242 
L 596.831325 269.906672 
L 597.510405 266.134195 
L 598.189485 268.406496 
L 598.868565 265.364699 
L 599.547645 267.669438 
L 600.226725 265.345919 
L 600.905805 265.422088 
L 601.584885 264.930393 
L 602.263965 262.601437 
L 602.943045 264.240777 
L 603.622125 265.277143 
L 604.301205 270.865248 
L 604.980285 264.763156 
L 605.659365 266.266729 
L 606.338445 265.309071 
L 607.017525 270.094292 
L 607.696605 269.956725 
L 608.375685 268.316694 
L 609.054765 265.202743 
L 609.733844 269.002026 
L 610.412924 271.513372 
L 611.092004 266.858812 
L 611.771084 266.384244 
L 612.450164 261.433557 
L 613.129244 263.76971 
L 613.808324 263.547234 
L 614.487404 267.58521 
L 615.166484 267.973626 
L 615.845564 268.156127 
L 616.524644 266.725215 
L 617.203724 268.764232 
L 618.561884 264.155365 
L 619.240964 265.153521 
L 619.920044 265.042008 
L 620.599124 266.129294 
L 621.278204 264.175825 
L 621.957284 267.091294 
L 622.636364 261.769696 
L 622.636364 261.769696 
" style="fill:none;stroke:#ff7f0e;stroke-linecap:square;stroke-width:0.5;"/>
   </g>
   <g id="patch_3">
    <path d="M 90 315 
L 90 43.2 
" style="fill:none;stroke:#000000;stroke-linecap:square;stroke-linejoin:miter;stroke-width:0.8;"/>
   </g>
   <g id="patch_4">
    <path d="M 648 315 
L 648 43.2 
" style="fill:none;stroke:#000000;stroke-linecap:square;stroke-linejoin:miter;stroke-width:0.8;"/>
   </g>
   <g id="patch_5">
    <path d="M 90 315 
L 648 315 
" style="fill:none;stroke:#000000;stroke-linecap:square;stroke-linejoin:miter;stroke-width:0.8;"/>
   </g>
   <g id="patch_6">
    <path d="M 90 43.2 
L 648 43.2 
" style="fill:none;stroke:#000000;stroke-linecap:square;stroke-linejoin:miter;stroke-width:0.8;"/>
   </g>
   <g id="text_18">
    <!-- loss -->
    <g transform="translate(357.410625 37.2)scale(0.12 -0.12)">
     <use xlink:href="#DejaVuSans-108"/>
     <use x="27.783203" xlink:href="#DejaVuSans-111"/>
     <use x="88.964844" xlink:href="#DejaVuSans-115"/>
     <use x="141.064453" xlink:href="#DejaVuSans-115"/>
    </g>
   </g>
   <g id="legend_1">
    <g id="patch_7">
     <path d="M 568.846875 80.55625 
L 641 80.55625 
Q 643 80.55625 643 78.55625 
L 643 50.2 
Q 643 48.2 641 48.2 
L 568.846875 48.2 
Q 566.846875 48.2 566.846875 50.2 
L 566.846875 78.55625 
Q 566.846875 80.55625 568.846875 80.55625 
z
" style="fill:#ffffff;opacity:0.8;stroke:#cccccc;stroke-linejoin:miter;"/>
    </g>
    <g id="line2d_33">
     <path d="M 570.846875 56.298437 
L 590.846875 56.298437 
" style="fill:none;stroke:#1f77b4;stroke-linecap:square;stroke-width:0.5;"/>
    </g>
    <g id="line2d_34"/>
    <g id="text_19">
     <!-- train -->
     <defs>
      <path d="M 18.3125 70.21875 
L 18.3125 54.6875 
L 36.8125 54.6875 
L 36.8125 47.703125 
L 18.3125 47.703125 
L 18.3125 18.015625 
Q 18.3125 11.328125 20.140625 9.421875 
Q 21.96875 7.515625 27.59375 7.515625 
L 36.8125 7.515625 
L 36.8125 0 
L 27.59375 0 
Q 17.1875 0 13.234375 3.875 
Q 9.28125 7.765625 9.28125 18.015625 
L 9.28125 47.703125 
L 2.6875 47.703125 
L 2.6875 54.6875 
L 9.28125 54.6875 
L 9.28125 70.21875 
z
" id="DejaVuSans-116"/>
      <path d="M 41.109375 46.296875 
Q 39.59375 47.171875 37.8125 47.578125 
Q 36.03125 48 33.890625 48 
Q 26.265625 48 22.1875 43.046875 
Q 18.109375 38.09375 18.109375 28.8125 
L 18.109375 0 
L 9.078125 0 
L 9.078125 54.6875 
L 18.109375 54.6875 
L 18.109375 46.1875 
Q 20.953125 51.171875 25.484375 53.578125 
Q 30.03125 56 36.53125 56 
Q 37.453125 56 38.578125 55.875 
Q 39.703125 55.765625 41.0625 55.515625 
z
" id="DejaVuSans-114"/>
      <path d="M 34.28125 27.484375 
Q 23.390625 27.484375 19.1875 25 
Q 14.984375 22.515625 14.984375 16.5 
Q 14.984375 11.71875 18.140625 8.90625 
Q 21.296875 6.109375 26.703125 6.109375 
Q 34.1875 6.109375 38.703125 11.40625 
Q 43.21875 16.703125 43.21875 25.484375 
L 43.21875 27.484375 
z
M 52.203125 31.203125 
L 52.203125 0 
L 43.21875 0 
L 43.21875 8.296875 
Q 40.140625 3.328125 35.546875 0.953125 
Q 30.953125 -1.421875 24.3125 -1.421875 
Q 15.921875 -1.421875 10.953125 3.296875 
Q 6 8.015625 6 15.921875 
Q 6 25.140625 12.171875 29.828125 
Q 18.359375 34.515625 30.609375 34.515625 
L 43.21875 34.515625 
L 43.21875 35.40625 
Q 43.21875 41.609375 39.140625 45 
Q 35.0625 48.390625 27.6875 48.390625 
Q 23 48.390625 18.546875 47.265625 
Q 14.109375 46.140625 10.015625 43.890625 
L 10.015625 52.203125 
Q 14.9375 54.109375 19.578125 55.046875 
Q 24.21875 56 28.609375 56 
Q 40.484375 56 46.34375 49.84375 
Q 52.203125 43.703125 52.203125 31.203125 
z
" id="DejaVuSans-97"/>
      <path d="M 9.421875 54.6875 
L 18.40625 54.6875 
L 18.40625 0 
L 9.421875 0 
z
M 9.421875 75.984375 
L 18.40625 75.984375 
L 18.40625 64.59375 
L 9.421875 64.59375 
z
" id="DejaVuSans-105"/>
      <path d="M 54.890625 33.015625 
L 54.890625 0 
L 45.90625 0 
L 45.90625 32.71875 
Q 45.90625 40.484375 42.875 44.328125 
Q 39.84375 48.1875 33.796875 48.1875 
Q 26.515625 48.1875 22.3125 43.546875 
Q 18.109375 38.921875 18.109375 30.90625 
L 18.109375 0 
L 9.078125 0 
L 9.078125 54.6875 
L 18.109375 54.6875 
L 18.109375 46.1875 
Q 21.34375 51.125 25.703125 53.5625 
Q 30.078125 56 35.796875 56 
Q 45.21875 56 50.046875 50.171875 
Q 54.890625 44.34375 54.890625 33.015625 
z
" id="DejaVuSans-110"/>
     </defs>
     <g transform="translate(598.846875 59.798437)scale(0.1 -0.1)">
      <use xlink:href="#DejaVuSans-116"/>
      <use x="39.208984" xlink:href="#DejaVuSans-114"/>
      <use x="80.322266" xlink:href="#DejaVuSans-97"/>
      <use x="141.601562" xlink:href="#DejaVuSans-105"/>
      <use x="169.384766" xlink:href="#DejaVuSans-110"/>
     </g>
    </g>
    <g id="line2d_35">
     <path d="M 570.846875 70.976562 
L 590.846875 70.976562 
" style="fill:none;stroke:#ff7f0e;stroke-linecap:square;stroke-width:0.5;"/>
    </g>
    <g id="line2d_36"/>
    <g id="text_20">
     <!-- validate -->
     <defs>
      <path d="M 2.984375 54.6875 
L 12.5 54.6875 
L 29.59375 8.796875 
L 46.6875 54.6875 
L 56.203125 54.6875 
L 35.6875 0 
L 23.484375 0 
z
" id="DejaVuSans-118"/>
      <path d="M 45.40625 46.390625 
L 45.40625 75.984375 
L 54.390625 75.984375 
L 54.390625 0 
L 45.40625 0 
L 45.40625 8.203125 
Q 42.578125 3.328125 38.25 0.953125 
Q 33.9375 -1.421875 27.875 -1.421875 
Q 17.96875 -1.421875 11.734375 6.484375 
Q 5.515625 14.40625 5.515625 27.296875 
Q 5.515625 40.1875 11.734375 48.09375 
Q 17.96875 56 27.875 56 
Q 33.9375 56 38.25 53.625 
Q 42.578125 51.265625 45.40625 46.390625 
z
M 14.796875 27.296875 
Q 14.796875 17.390625 18.875 11.75 
Q 22.953125 6.109375 30.078125 6.109375 
Q 37.203125 6.109375 41.296875 11.75 
Q 45.40625 17.390625 45.40625 27.296875 
Q 45.40625 37.203125 41.296875 42.84375 
Q 37.203125 48.484375 30.078125 48.484375 
Q 22.953125 48.484375 18.875 42.84375 
Q 14.796875 37.203125 14.796875 27.296875 
z
" id="DejaVuSans-100"/>
     </defs>
     <g transform="translate(598.846875 74.476562)scale(0.1 -0.1)">
      <use xlink:href="#DejaVuSans-118"/>
      <use x="59.179688" xlink:href="#DejaVuSans-97"/>
      <use x="120.458984" xlink:href="#DejaVuSans-108"/>
      <use x="148.242188" xlink:href="#DejaVuSans-105"/>
      <use x="176.025391" xlink:href="#DejaVuSans-100"/>
      <use x="239.501953" xlink:href="#DejaVuSans-97"/>
      <use x="300.78125" xlink:href="#DejaVuSans-116"/>
      <use x="339.990234" xlink:href="#DejaVuSans-101"/>
     </g>
    </g>
   </g>
  </g>
 </g>
 <defs>
  <clipPath id="pa4fb1b0a43">
   <rect height="271.8" width="558" x="90" y="43.2"/>
  </clipPath>
 </defs>
</svg>
