<?xml version="1.0" encoding="utf-8" standalone="no"?>
<!DOCTYPE svg PUBLIC "-//W3C//DTD SVG 1.1//EN"
  "http://www.w3.org/Graphics/SVG/1.1/DTD/svg11.dtd">
<!-- Created with matplotlib (https://matplotlib.org/) -->
<svg height="360pt" version="1.1" viewBox="0 0 720 360" width="720pt" xmlns="http://www.w3.org/2000/svg" xmlns:xlink="http://www.w3.org/1999/xlink">
 <defs>
  <style type="text/css">
*{stroke-linecap:butt;stroke-linejoin:round;}
  </style>
 </defs>
 <g id="figure_1">
  <g id="patch_1">
   <path d="M 0 360 
L 720 360 
L 720 0 
L 0 0 
z
" style="fill:#ffffff;"/>
  </g>
  <g id="axes_1">
   <g id="patch_2">
    <path d="M 90 315 
L 648 315 
L 648 43.2 
L 90 43.2 
z
" style="fill:#ffffff;"/>
   </g>
   <g id="matplotlib.axis_1">
    <g id="xtick_1">
     <g id="line2d_1">
      <path clip-path="url(#pfc4dada665)" d="M 115.363636 315 
L 115.363636 43.2 
" style="fill:none;stroke:#b0b0b0;stroke-linecap:square;stroke-width:0.8;"/>
     </g>
     <g id="line2d_2">
      <defs>
       <path d="M 0 0 
L 0 3.5 
" id="m798f92d41c" style="stroke:#000000;stroke-width:0.8;"/>
      </defs>
      <g>
       <use style="stroke:#000000;stroke-width:0.8;" x="115.363636" xlink:href="#m798f92d41c" y="315"/>
      </g>
     </g>
     <g id="text_1">
      <!-- 0 -->
      <defs>
       <path d="M 31.78125 66.40625 
Q 24.171875 66.40625 20.328125 58.90625 
Q 16.5 51.421875 16.5 36.375 
Q 16.5 21.390625 20.328125 13.890625 
Q 24.171875 6.390625 31.78125 6.390625 
Q 39.453125 6.390625 43.28125 13.890625 
Q 47.125 21.390625 47.125 36.375 
Q 47.125 51.421875 43.28125 58.90625 
Q 39.453125 66.40625 31.78125 66.40625 
z
M 31.78125 74.21875 
Q 44.046875 74.21875 50.515625 64.515625 
Q 56.984375 54.828125 56.984375 36.375 
Q 56.984375 17.96875 50.515625 8.265625 
Q 44.046875 -1.421875 31.78125 -1.421875 
Q 19.53125 -1.421875 13.0625 8.265625 
Q 6.59375 17.96875 6.59375 36.375 
Q 6.59375 54.828125 13.0625 64.515625 
Q 19.53125 74.21875 31.78125 74.21875 
z
" id="DejaVuSans-48"/>
      </defs>
      <g transform="translate(112.182386 329.598437)scale(0.1 -0.1)">
       <use xlink:href="#DejaVuSans-48"/>
      </g>
     </g>
    </g>
    <g id="xtick_2">
     <g id="line2d_3">
      <path clip-path="url(#pfc4dada665)" d="M 228.97455 315 
L 228.97455 43.2 
" style="fill:none;stroke:#b0b0b0;stroke-linecap:square;stroke-width:0.8;"/>
     </g>
     <g id="line2d_4">
      <g>
       <use style="stroke:#000000;stroke-width:0.8;" x="228.97455" xlink:href="#m798f92d41c" y="315"/>
      </g>
     </g>
     <g id="text_2">
      <!-- 200 -->
      <defs>
       <path d="M 19.1875 8.296875 
L 53.609375 8.296875 
L 53.609375 0 
L 7.328125 0 
L 7.328125 8.296875 
Q 12.9375 14.109375 22.625 23.890625 
Q 32.328125 33.6875 34.8125 36.53125 
Q 39.546875 41.84375 41.421875 45.53125 
Q 43.3125 49.21875 43.3125 52.78125 
Q 43.3125 58.59375 39.234375 62.25 
Q 35.15625 65.921875 28.609375 65.921875 
Q 23.96875 65.921875 18.8125 64.3125 
Q 13.671875 62.703125 7.8125 59.421875 
L 7.8125 69.390625 
Q 13.765625 71.78125 18.9375 73 
Q 24.125 74.21875 28.421875 74.21875 
Q 39.75 74.21875 46.484375 68.546875 
Q 53.21875 62.890625 53.21875 53.421875 
Q 53.21875 48.921875 51.53125 44.890625 
Q 49.859375 40.875 45.40625 35.40625 
Q 44.1875 33.984375 37.640625 27.21875 
Q 31.109375 20.453125 19.1875 8.296875 
z
" id="DejaVuSans-50"/>
      </defs>
      <g transform="translate(219.4308 329.598437)scale(0.1 -0.1)">
       <use xlink:href="#DejaVuSans-50"/>
       <use x="63.623047" xlink:href="#DejaVuSans-48"/>
       <use x="127.246094" xlink:href="#DejaVuSans-48"/>
      </g>
     </g>
    </g>
    <g id="xtick_3">
     <g id="line2d_5">
      <path clip-path="url(#pfc4dada665)" d="M 342.585463 315 
L 342.585463 43.2 
" style="fill:none;stroke:#b0b0b0;stroke-linecap:square;stroke-width:0.8;"/>
     </g>
     <g id="line2d_6">
      <g>
       <use style="stroke:#000000;stroke-width:0.8;" x="342.585463" xlink:href="#m798f92d41c" y="315"/>
      </g>
     </g>
     <g id="text_3">
      <!-- 400 -->
      <defs>
       <path d="M 37.796875 64.3125 
L 12.890625 25.390625 
L 37.796875 25.390625 
z
M 35.203125 72.90625 
L 47.609375 72.90625 
L 47.609375 25.390625 
L 58.015625 25.390625 
L 58.015625 17.1875 
L 47.609375 17.1875 
L 47.609375 0 
L 37.796875 0 
L 37.796875 17.1875 
L 4.890625 17.1875 
L 4.890625 26.703125 
z
" id="DejaVuSans-52"/>
      </defs>
      <g transform="translate(333.041713 329.598437)scale(0.1 -0.1)">
       <use xlink:href="#DejaVuSans-52"/>
       <use x="63.623047" xlink:href="#DejaVuSans-48"/>
       <use x="127.246094" xlink:href="#DejaVuSans-48"/>
      </g>
     </g>
    </g>
    <g id="xtick_4">
     <g id="line2d_7">
      <path clip-path="url(#pfc4dada665)" d="M 456.196376 315 
L 456.196376 43.2 
" style="fill:none;stroke:#b0b0b0;stroke-linecap:square;stroke-width:0.8;"/>
     </g>
     <g id="line2d_8">
      <g>
       <use style="stroke:#000000;stroke-width:0.8;" x="456.196376" xlink:href="#m798f92d41c" y="315"/>
      </g>
     </g>
     <g id="text_4">
      <!-- 600 -->
      <defs>
       <path d="M 33.015625 40.375 
Q 26.375 40.375 22.484375 35.828125 
Q 18.609375 31.296875 18.609375 23.390625 
Q 18.609375 15.53125 22.484375 10.953125 
Q 26.375 6.390625 33.015625 6.390625 
Q 39.65625 6.390625 43.53125 10.953125 
Q 47.40625 15.53125 47.40625 23.390625 
Q 47.40625 31.296875 43.53125 35.828125 
Q 39.65625 40.375 33.015625 40.375 
z
M 52.59375 71.296875 
L 52.59375 62.3125 
Q 48.875 64.0625 45.09375 64.984375 
Q 41.3125 65.921875 37.59375 65.921875 
Q 27.828125 65.921875 22.671875 59.328125 
Q 17.53125 52.734375 16.796875 39.40625 
Q 19.671875 43.65625 24.015625 45.921875 
Q 28.375 48.1875 33.59375 48.1875 
Q 44.578125 48.1875 50.953125 41.515625 
Q 57.328125 34.859375 57.328125 23.390625 
Q 57.328125 12.15625 50.6875 5.359375 
Q 44.046875 -1.421875 33.015625 -1.421875 
Q 20.359375 -1.421875 13.671875 8.265625 
Q 6.984375 17.96875 6.984375 36.375 
Q 6.984375 53.65625 15.1875 63.9375 
Q 23.390625 74.21875 37.203125 74.21875 
Q 40.921875 74.21875 44.703125 73.484375 
Q 48.484375 72.75 52.59375 71.296875 
z
" id="DejaVuSans-54"/>
      </defs>
      <g transform="translate(446.652626 329.598437)scale(0.1 -0.1)">
       <use xlink:href="#DejaVuSans-54"/>
       <use x="63.623047" xlink:href="#DejaVuSans-48"/>
       <use x="127.246094" xlink:href="#DejaVuSans-48"/>
      </g>
     </g>
    </g>
    <g id="xtick_5">
     <g id="line2d_9">
      <path clip-path="url(#pfc4dada665)" d="M 569.807289 315 
L 569.807289 43.2 
" style="fill:none;stroke:#b0b0b0;stroke-linecap:square;stroke-width:0.8;"/>
     </g>
     <g id="line2d_10">
      <g>
       <use style="stroke:#000000;stroke-width:0.8;" x="569.807289" xlink:href="#m798f92d41c" y="315"/>
      </g>
     </g>
     <g id="text_5">
      <!-- 800 -->
      <defs>
       <path d="M 31.78125 34.625 
Q 24.75 34.625 20.71875 30.859375 
Q 16.703125 27.09375 16.703125 20.515625 
Q 16.703125 13.921875 20.71875 10.15625 
Q 24.75 6.390625 31.78125 6.390625 
Q 38.8125 6.390625 42.859375 10.171875 
Q 46.921875 13.96875 46.921875 20.515625 
Q 46.921875 27.09375 42.890625 30.859375 
Q 38.875 34.625 31.78125 34.625 
z
M 21.921875 38.8125 
Q 15.578125 40.375 12.03125 44.71875 
Q 8.5 49.078125 8.5 55.328125 
Q 8.5 64.0625 14.71875 69.140625 
Q 20.953125 74.21875 31.78125 74.21875 
Q 42.671875 74.21875 48.875 69.140625 
Q 55.078125 64.0625 55.078125 55.328125 
Q 55.078125 49.078125 51.53125 44.71875 
Q 48 40.375 41.703125 38.8125 
Q 48.828125 37.15625 52.796875 32.3125 
Q 56.78125 27.484375 56.78125 20.515625 
Q 56.78125 9.90625 50.3125 4.234375 
Q 43.84375 -1.421875 31.78125 -1.421875 
Q 19.734375 -1.421875 13.25 4.234375 
Q 6.78125 9.90625 6.78125 20.515625 
Q 6.78125 27.484375 10.78125 32.3125 
Q 14.796875 37.15625 21.921875 38.8125 
z
M 18.3125 54.390625 
Q 18.3125 48.734375 21.84375 45.5625 
Q 25.390625 42.390625 31.78125 42.390625 
Q 38.140625 42.390625 41.71875 45.5625 
Q 45.3125 48.734375 45.3125 54.390625 
Q 45.3125 60.0625 41.71875 63.234375 
Q 38.140625 66.40625 31.78125 66.40625 
Q 25.390625 66.40625 21.84375 63.234375 
Q 18.3125 60.0625 18.3125 54.390625 
z
" id="DejaVuSans-56"/>
      </defs>
      <g transform="translate(560.263539 329.598437)scale(0.1 -0.1)">
       <use xlink:href="#DejaVuSans-56"/>
       <use x="63.623047" xlink:href="#DejaVuSans-48"/>
       <use x="127.246094" xlink:href="#DejaVuSans-48"/>
      </g>
     </g>
    </g>
    <g id="text_6">
     <!-- epoch -->
     <defs>
      <path d="M 56.203125 29.59375 
L 56.203125 25.203125 
L 14.890625 25.203125 
Q 15.484375 15.921875 20.484375 11.0625 
Q 25.484375 6.203125 34.421875 6.203125 
Q 39.59375 6.203125 44.453125 7.46875 
Q 49.3125 8.734375 54.109375 11.28125 
L 54.109375 2.78125 
Q 49.265625 0.734375 44.1875 -0.34375 
Q 39.109375 -1.421875 33.890625 -1.421875 
Q 20.796875 -1.421875 13.15625 6.1875 
Q 5.515625 13.8125 5.515625 26.8125 
Q 5.515625 40.234375 12.765625 48.109375 
Q 20.015625 56 32.328125 56 
Q 43.359375 56 49.78125 48.890625 
Q 56.203125 41.796875 56.203125 29.59375 
z
M 47.21875 32.234375 
Q 47.125 39.59375 43.09375 43.984375 
Q 39.0625 48.390625 32.421875 48.390625 
Q 24.90625 48.390625 20.390625 44.140625 
Q 15.875 39.890625 15.1875 32.171875 
z
" id="DejaVuSans-101"/>
      <path d="M 18.109375 8.203125 
L 18.109375 -20.796875 
L 9.078125 -20.796875 
L 9.078125 54.6875 
L 18.109375 54.6875 
L 18.109375 46.390625 
Q 20.953125 51.265625 25.265625 53.625 
Q 29.59375 56 35.59375 56 
Q 45.5625 56 51.78125 48.09375 
Q 58.015625 40.1875 58.015625 27.296875 
Q 58.015625 14.40625 51.78125 6.484375 
Q 45.5625 -1.421875 35.59375 -1.421875 
Q 29.59375 -1.421875 25.265625 0.953125 
Q 20.953125 3.328125 18.109375 8.203125 
z
M 48.6875 27.296875 
Q 48.6875 37.203125 44.609375 42.84375 
Q 40.53125 48.484375 33.40625 48.484375 
Q 26.265625 48.484375 22.1875 42.84375 
Q 18.109375 37.203125 18.109375 27.296875 
Q 18.109375 17.390625 22.1875 11.75 
Q 26.265625 6.109375 33.40625 6.109375 
Q 40.53125 6.109375 44.609375 11.75 
Q 48.6875 17.390625 48.6875 27.296875 
z
" id="DejaVuSans-112"/>
      <path d="M 30.609375 48.390625 
Q 23.390625 48.390625 19.1875 42.75 
Q 14.984375 37.109375 14.984375 27.296875 
Q 14.984375 17.484375 19.15625 11.84375 
Q 23.34375 6.203125 30.609375 6.203125 
Q 37.796875 6.203125 41.984375 11.859375 
Q 46.1875 17.53125 46.1875 27.296875 
Q 46.1875 37.015625 41.984375 42.703125 
Q 37.796875 48.390625 30.609375 48.390625 
z
M 30.609375 56 
Q 42.328125 56 49.015625 48.375 
Q 55.71875 40.765625 55.71875 27.296875 
Q 55.71875 13.875 49.015625 6.21875 
Q 42.328125 -1.421875 30.609375 -1.421875 
Q 18.84375 -1.421875 12.171875 6.21875 
Q 5.515625 13.875 5.515625 27.296875 
Q 5.515625 40.765625 12.171875 48.375 
Q 18.84375 56 30.609375 56 
z
" id="DejaVuSans-111"/>
      <path d="M 48.78125 52.59375 
L 48.78125 44.1875 
Q 44.96875 46.296875 41.140625 47.34375 
Q 37.3125 48.390625 33.40625 48.390625 
Q 24.65625 48.390625 19.8125 42.84375 
Q 14.984375 37.3125 14.984375 27.296875 
Q 14.984375 17.28125 19.8125 11.734375 
Q 24.65625 6.203125 33.40625 6.203125 
Q 37.3125 6.203125 41.140625 7.25 
Q 44.96875 8.296875 48.78125 10.40625 
L 48.78125 2.09375 
Q 45.015625 0.34375 40.984375 -0.53125 
Q 36.96875 -1.421875 32.421875 -1.421875 
Q 20.0625 -1.421875 12.78125 6.34375 
Q 5.515625 14.109375 5.515625 27.296875 
Q 5.515625 40.671875 12.859375 48.328125 
Q 20.21875 56 33.015625 56 
Q 37.15625 56 41.109375 55.140625 
Q 45.0625 54.296875 48.78125 52.59375 
z
" id="DejaVuSans-99"/>
      <path d="M 54.890625 33.015625 
L 54.890625 0 
L 45.90625 0 
L 45.90625 32.71875 
Q 45.90625 40.484375 42.875 44.328125 
Q 39.84375 48.1875 33.796875 48.1875 
Q 26.515625 48.1875 22.3125 43.546875 
Q 18.109375 38.921875 18.109375 30.90625 
L 18.109375 0 
L 9.078125 0 
L 9.078125 75.984375 
L 18.109375 75.984375 
L 18.109375 46.1875 
Q 21.34375 51.125 25.703125 53.5625 
Q 30.078125 56 35.796875 56 
Q 45.21875 56 50.046875 50.171875 
Q 54.890625 44.34375 54.890625 33.015625 
z
" id="DejaVuSans-104"/>
     </defs>
     <g transform="translate(353.771875 343.276563)scale(0.1 -0.1)">
      <use xlink:href="#DejaVuSans-101"/>
      <use x="61.523438" xlink:href="#DejaVuSans-112"/>
      <use x="125" xlink:href="#DejaVuSans-111"/>
      <use x="186.181641" xlink:href="#DejaVuSans-99"/>
      <use x="241.162109" xlink:href="#DejaVuSans-104"/>
     </g>
    </g>
   </g>
   <g id="matplotlib.axis_2">
    <g id="ytick_1">
     <g id="line2d_11">
      <path clip-path="url(#pfc4dada665)" d="M 90 279.68136 
L 648 279.68136 
" style="fill:none;stroke:#b0b0b0;stroke-linecap:square;stroke-width:0.8;"/>
     </g>
     <g id="line2d_12">
      <defs>
       <path d="M 0 0 
L -3.5 0 
" id="m4418f8f2d0" style="stroke:#000000;stroke-width:0.8;"/>
      </defs>
      <g>
       <use style="stroke:#000000;stroke-width:0.8;" x="90" xlink:href="#m4418f8f2d0" y="279.68136"/>
      </g>
     </g>
     <g id="text_7">
      <!-- 0.2 -->
      <defs>
       <path d="M 10.6875 12.40625 
L 21 12.40625 
L 21 0 
L 10.6875 0 
z
" id="DejaVuSans-46"/>
      </defs>
      <g transform="translate(67.096875 283.480579)scale(0.1 -0.1)">
       <use xlink:href="#DejaVuSans-48"/>
       <use x="63.623047" xlink:href="#DejaVuSans-46"/>
       <use x="95.410156" xlink:href="#DejaVuSans-50"/>
      </g>
     </g>
    </g>
    <g id="ytick_2">
     <g id="line2d_13">
      <path clip-path="url(#pfc4dada665)" d="M 90 238.62778 
L 648 238.62778 
" style="fill:none;stroke:#b0b0b0;stroke-linecap:square;stroke-width:0.8;"/>
     </g>
     <g id="line2d_14">
      <g>
       <use style="stroke:#000000;stroke-width:0.8;" x="90" xlink:href="#m4418f8f2d0" y="238.62778"/>
      </g>
     </g>
     <g id="text_8">
      <!-- 0.4 -->
      <g transform="translate(67.096875 242.426998)scale(0.1 -0.1)">
       <use xlink:href="#DejaVuSans-48"/>
       <use x="63.623047" xlink:href="#DejaVuSans-46"/>
       <use x="95.410156" xlink:href="#DejaVuSans-52"/>
      </g>
     </g>
    </g>
    <g id="ytick_3">
     <g id="line2d_15">
      <path clip-path="url(#pfc4dada665)" d="M 90 197.574199 
L 648 197.574199 
" style="fill:none;stroke:#b0b0b0;stroke-linecap:square;stroke-width:0.8;"/>
     </g>
     <g id="line2d_16">
      <g>
       <use style="stroke:#000000;stroke-width:0.8;" x="90" xlink:href="#m4418f8f2d0" y="197.574199"/>
      </g>
     </g>
     <g id="text_9">
      <!-- 0.6 -->
      <g transform="translate(67.096875 201.373418)scale(0.1 -0.1)">
       <use xlink:href="#DejaVuSans-48"/>
       <use x="63.623047" xlink:href="#DejaVuSans-46"/>
       <use x="95.410156" xlink:href="#DejaVuSans-54"/>
      </g>
     </g>
    </g>
    <g id="ytick_4">
     <g id="line2d_17">
      <path clip-path="url(#pfc4dada665)" d="M 90 156.520619 
L 648 156.520619 
" style="fill:none;stroke:#b0b0b0;stroke-linecap:square;stroke-width:0.8;"/>
     </g>
     <g id="line2d_18">
      <g>
       <use style="stroke:#000000;stroke-width:0.8;" x="90" xlink:href="#m4418f8f2d0" y="156.520619"/>
      </g>
     </g>
     <g id="text_10">
      <!-- 0.8 -->
      <g transform="translate(67.096875 160.319837)scale(0.1 -0.1)">
       <use xlink:href="#DejaVuSans-48"/>
       <use x="63.623047" xlink:href="#DejaVuSans-46"/>
       <use x="95.410156" xlink:href="#DejaVuSans-56"/>
      </g>
     </g>
    </g>
    <g id="ytick_5">
     <g id="line2d_19">
      <path clip-path="url(#pfc4dada665)" d="M 90 115.467038 
L 648 115.467038 
" style="fill:none;stroke:#b0b0b0;stroke-linecap:square;stroke-width:0.8;"/>
     </g>
     <g id="line2d_20">
      <g>
       <use style="stroke:#000000;stroke-width:0.8;" x="90" xlink:href="#m4418f8f2d0" y="115.467038"/>
      </g>
     </g>
     <g id="text_11">
      <!-- 1.0 -->
      <defs>
       <path d="M 12.40625 8.296875 
L 28.515625 8.296875 
L 28.515625 63.921875 
L 10.984375 60.40625 
L 10.984375 69.390625 
L 28.421875 72.90625 
L 38.28125 72.90625 
L 38.28125 8.296875 
L 54.390625 8.296875 
L 54.390625 0 
L 12.40625 0 
z
" id="DejaVuSans-49"/>
      </defs>
      <g transform="translate(67.096875 119.266257)scale(0.1 -0.1)">
       <use xlink:href="#DejaVuSans-49"/>
       <use x="63.623047" xlink:href="#DejaVuSans-46"/>
       <use x="95.410156" xlink:href="#DejaVuSans-48"/>
      </g>
     </g>
    </g>
    <g id="ytick_6">
     <g id="line2d_21">
      <path clip-path="url(#pfc4dada665)" d="M 90 74.413458 
L 648 74.413458 
" style="fill:none;stroke:#b0b0b0;stroke-linecap:square;stroke-width:0.8;"/>
     </g>
     <g id="line2d_22">
      <g>
       <use style="stroke:#000000;stroke-width:0.8;" x="90" xlink:href="#m4418f8f2d0" y="74.413458"/>
      </g>
     </g>
     <g id="text_12">
      <!-- 1.2 -->
      <g transform="translate(67.096875 78.212677)scale(0.1 -0.1)">
       <use xlink:href="#DejaVuSans-49"/>
       <use x="63.623047" xlink:href="#DejaVuSans-46"/>
       <use x="95.410156" xlink:href="#DejaVuSans-50"/>
      </g>
     </g>
    </g>
    <g id="text_13">
     <!-- loss -->
     <defs>
      <path d="M 9.421875 75.984375 
L 18.40625 75.984375 
L 18.40625 0 
L 9.421875 0 
z
" id="DejaVuSans-108"/>
      <path d="M 44.28125 53.078125 
L 44.28125 44.578125 
Q 40.484375 46.53125 36.375 47.5 
Q 32.28125 48.484375 27.875 48.484375 
Q 21.1875 48.484375 17.84375 46.4375 
Q 14.5 44.390625 14.5 40.28125 
Q 14.5 37.15625 16.890625 35.375 
Q 19.28125 33.59375 26.515625 31.984375 
L 29.59375 31.296875 
Q 39.15625 29.25 43.1875 25.515625 
Q 47.21875 21.78125 47.21875 15.09375 
Q 47.21875 7.46875 41.1875 3.015625 
Q 35.15625 -1.421875 24.609375 -1.421875 
Q 20.21875 -1.421875 15.453125 -0.5625 
Q 10.6875 0.296875 5.421875 2 
L 5.421875 11.28125 
Q 10.40625 8.6875 15.234375 7.390625 
Q 20.0625 6.109375 24.8125 6.109375 
Q 31.15625 6.109375 34.5625 8.28125 
Q 37.984375 10.453125 37.984375 14.40625 
Q 37.984375 18.0625 35.515625 20.015625 
Q 33.0625 21.96875 24.703125 23.78125 
L 21.578125 24.515625 
Q 13.234375 26.265625 9.515625 29.90625 
Q 5.8125 33.546875 5.8125 39.890625 
Q 5.8125 47.609375 11.28125 51.796875 
Q 16.75 56 26.8125 56 
Q 31.78125 56 36.171875 55.265625 
Q 40.578125 54.546875 44.28125 53.078125 
z
" id="DejaVuSans-115"/>
     </defs>
     <g transform="translate(61.017187 188.757812)rotate(-90)scale(0.1 -0.1)">
      <use xlink:href="#DejaVuSans-108"/>
      <use x="27.783203" xlink:href="#DejaVuSans-111"/>
      <use x="88.964844" xlink:href="#DejaVuSans-115"/>
      <use x="141.064453" xlink:href="#DejaVuSans-115"/>
     </g>
    </g>
   </g>
   <g id="line2d_23">
    <path clip-path="url(#pfc4dada665)" d="M 115.363636 55.554545 
L 115.931691 62.648852 
L 116.499745 65.537774 
L 117.0678 71.889317 
L 117.635855 69.209214 
L 118.771964 75.588849 
L 119.340018 76.193417 
L 119.908073 76.608578 
L 120.476127 75.044966 
L 121.044182 77.038217 
L 122.180291 83.733364 
L 122.748346 82.258198 
L 123.3164 84.560501 
L 123.884455 82.467798 
L 124.452509 80.894985 
L 125.020564 82.602813 
L 125.588619 83.759475 
L 126.156673 87.630675 
L 126.724728 87.328884 
L 127.292782 85.305479 
L 127.860837 84.752362 
L 128.428891 88.139093 
L 128.996946 86.576538 
L 129.565001 86.606667 
L 130.133055 88.623382 
L 130.70111 87.607914 
L 131.269164 90.403558 
L 131.837219 89.276944 
L 132.405273 88.604249 
L 132.973328 90.493953 
L 133.541382 90.46127 
L 134.677492 92.987233 
L 135.245546 91.995287 
L 135.813601 94.562383 
L 136.381655 93.706433 
L 136.94971 95.893478 
L 137.517764 94.325016 
L 138.085819 95.540985 
L 138.653874 95.613259 
L 139.221928 95.019846 
L 139.789983 99.02034 
L 140.358037 98.446029 
L 140.926092 100.828288 
L 141.494146 99.070803 
L 142.062201 100.267184 
L 142.630256 98.412524 
L 143.766365 103.213221 
L 144.334419 101.318587 
L 144.902474 105.063456 
L 145.470528 104.852566 
L 146.038583 104.154828 
L 147.174692 107.583073 
L 147.742747 111.326628 
L 148.310801 110.133959 
L 148.878856 109.555413 
L 149.44691 111.805673 
L 150.014965 113.313918 
L 150.583019 115.34702 
L 151.151074 115.959627 
L 151.719129 118.960588 
L 152.287183 119.319817 
L 152.855238 120.644723 
L 153.423292 121.299805 
L 153.991347 123.303917 
L 154.559401 124.543733 
L 155.127456 129.747906 
L 155.695511 128.726968 
L 156.263565 129.867645 
L 156.83162 132.592226 
L 157.399674 136.46158 
L 157.967729 136.788031 
L 158.535783 136.456247 
L 159.103838 138.068003 
L 159.671892 143.041728 
L 160.239947 141.394114 
L 161.376056 148.546076 
L 161.944111 150.729058 
L 162.512165 155.486654 
L 163.08022 156.233622 
L 164.216329 159.199712 
L 164.784384 164.386826 
L 165.352438 160.793665 
L 165.920493 165.008835 
L 167.624656 172.993463 
L 168.192711 173.256942 
L 168.760766 177.769794 
L 169.32882 175.676833 
L 170.464929 180.784471 
L 171.032984 179.79645 
L 171.601038 180.014477 
L 172.169093 186.051859 
L 172.737148 184.884429 
L 173.305202 189.314237 
L 173.873257 188.515874 
L 174.441311 189.732388 
L 175.009366 189.951333 
L 175.57742 192.88341 
L 176.145475 194.302332 
L 176.713529 194.20954 
L 177.281584 194.759743 
L 177.849639 197.276047 
L 178.417693 196.969723 
L 178.985748 202.636441 
L 179.553802 199.322358 
L 180.121857 201.171708 
L 180.689911 199.484994 
L 181.826021 206.772186 
L 182.394075 203.712412 
L 182.96213 203.119791 
L 183.530184 209.065442 
L 184.098239 208.591402 
L 184.666293 207.527269 
L 185.234348 210.364541 
L 185.802403 209.901618 
L 186.938512 214.666753 
L 187.506566 214.567582 
L 188.074621 214.725517 
L 188.642675 216.737694 
L 189.21073 216.412014 
L 189.778784 222.717746 
L 190.346839 217.903692 
L 190.914894 217.778784 
L 191.482948 220.705255 
L 192.051003 221.858816 
L 192.619057 224.522891 
L 193.187112 222.942907 
L 193.755166 223.774405 
L 194.323221 228.609505 
L 194.891276 224.560815 
L 195.45933 224.437953 
L 196.595439 232.247158 
L 197.163494 228.664657 
L 197.731548 232.196189 
L 198.299603 234.061475 
L 198.867658 232.986868 
L 199.435712 235.417042 
L 200.003767 234.845225 
L 200.571821 235.342868 
L 201.139876 233.704362 
L 201.70793 235.657457 
L 202.275985 234.252313 
L 202.844039 234.264713 
L 203.412094 237.077017 
L 203.980149 237.142 
L 205.684312 240.474152 
L 206.252367 242.094405 
L 206.820421 239.930149 
L 207.388476 247.205845 
L 207.956531 241.898832 
L 208.524585 243.80939 
L 209.09264 246.521573 
L 209.660694 245.495399 
L 210.796803 247.102359 
L 211.364858 244.744873 
L 211.932913 247.685605 
L 212.500967 248.571306 
L 213.069022 248.597341 
L 213.637076 246.64348 
L 214.205131 249.275333 
L 214.773185 248.014081 
L 215.34124 248.788576 
L 215.909295 248.008956 
L 216.477349 248.930729 
L 217.613458 249.907954 
L 218.181513 249.285328 
L 218.749567 250.770816 
L 219.317622 248.363878 
L 219.885676 251.284378 
L 220.453731 257.06624 
L 221.021786 251.654919 
L 221.58984 254.012624 
L 222.157895 251.636691 
L 222.725949 251.968998 
L 223.294004 256.014421 
L 223.862058 253.551364 
L 224.430113 256.734255 
L 224.998168 256.38426 
L 225.566222 254.751433 
L 226.134277 254.237418 
L 226.702331 256.854855 
L 227.270386 254.103144 
L 227.83844 255.291988 
L 228.406495 252.95975 
L 228.97455 254.390692 
L 229.542604 257.094564 
L 230.110659 253.096482 
L 230.678713 258.762902 
L 231.246768 257.439004 
L 231.814822 258.950872 
L 232.382877 259.075017 
L 232.950931 257.385387 
L 233.518986 259.49769 
L 234.087041 260.813471 
L 234.655095 261.360436 
L 235.22315 258.353229 
L 235.791204 257.751682 
L 236.359259 256.80697 
L 236.927313 258.494495 
L 237.495368 262.951803 
L 238.063423 259.412776 
L 238.631477 257.435173 
L 239.199532 261.594015 
L 239.767586 259.041651 
L 240.335641 261.61146 
L 240.903695 260.545714 
L 241.47175 262.853452 
L 242.039805 260.720371 
L 242.607859 263.617361 
L 243.175914 262.360821 
L 243.743968 263.184994 
L 244.312023 260.806045 
L 244.880077 264.706243 
L 245.448132 260.371764 
L 246.016187 262.920599 
L 246.584241 264.120304 
L 247.152296 261.921622 
L 247.72035 264.952823 
L 248.288405 266.220068 
L 248.856459 262.272607 
L 249.424514 262.078113 
L 249.992568 264.6926 
L 250.560623 265.433312 
L 251.128678 264.539322 
L 251.696732 264.813321 
L 252.264787 266.485879 
L 252.832841 264.274956 
L 253.400896 266.053564 
L 253.96895 267.37579 
L 254.537005 267.718793 
L 255.10506 270.736863 
L 255.673114 268.20462 
L 256.241169 266.314285 
L 256.809223 267.618659 
L 257.377278 263.193939 
L 257.945332 266.432517 
L 258.513387 267.693832 
L 259.081442 266.799028 
L 259.649496 267.71209 
L 260.217551 266.253424 
L 260.785605 266.368656 
L 261.35366 269.478113 
L 261.921714 268.558899 
L 262.489769 265.895498 
L 263.057823 268.112505 
L 263.625878 268.459798 
L 264.193933 266.569428 
L 264.761987 266.890318 
L 265.330042 268.133776 
L 265.898096 268.911009 
L 266.466151 266.013573 
L 267.034205 269.175613 
L 267.60226 267.874966 
L 268.170315 270.99617 
L 268.738369 270.343797 
L 269.306424 267.831481 
L 269.874478 266.0862 
L 270.442533 271.846911 
L 271.010587 267.755749 
L 271.578642 274.34653 
L 272.146697 270.765586 
L 272.714751 271.970256 
L 273.282806 270.82764 
L 273.85086 273.125971 
L 274.418915 271.904554 
L 274.986969 268.772763 
L 275.555024 272.458644 
L 276.123078 271.201342 
L 276.691133 273.110632 
L 277.259188 272.41953 
L 277.827242 271.544893 
L 278.395297 271.318848 
L 278.963351 271.788695 
L 279.531406 272.637624 
L 280.09946 271.068962 
L 280.667515 270.500809 
L 281.23557 272.159631 
L 281.803624 269.788048 
L 282.371679 274.195038 
L 282.939733 273.592263 
L 283.507788 271.335163 
L 284.075842 267.944334 
L 284.643897 274.69845 
L 285.211952 272.954883 
L 285.780006 272.357532 
L 286.348061 271.135998 
L 286.916115 273.716978 
L 287.48417 271.081229 
L 288.052224 269.802945 
L 289.188334 275.481958 
L 289.756388 270.151065 
L 290.324443 273.985476 
L 290.892497 274.277287 
L 291.460552 274.261623 
L 292.028606 273.813066 
L 292.596661 272.141022 
L 293.164715 275.506988 
L 293.73277 273.672433 
L 294.300825 276.886406 
L 295.436934 273.8383 
L 296.004988 275.814244 
L 296.573043 274.744047 
L 297.141097 275.646004 
L 297.709152 277.033581 
L 298.277207 275.328298 
L 298.845261 278.601368 
L 299.413316 274.542718 
L 299.98137 278.219856 
L 300.549425 277.910941 
L 301.117479 274.527706 
L 301.685534 275.86738 
L 302.253589 276.06566 
L 302.821643 275.568485 
L 303.389698 275.882945 
L 303.957752 276.498544 
L 304.525807 279.551238 
L 305.093861 279.066921 
L 305.661916 278.948988 
L 306.22997 276.366791 
L 306.798025 278.32932 
L 307.36608 276.963525 
L 307.934134 276.169267 
L 308.502189 277.094659 
L 309.070243 276.736176 
L 309.638298 275.147043 
L 310.206352 279.365004 
L 310.774407 278.879952 
L 311.342462 280.154243 
L 311.910516 275.663182 
L 312.478571 276.103438 
L 313.046625 280.832844 
L 313.61468 277.295924 
L 314.182734 274.990139 
L 314.750789 275.783012 
L 315.318844 277.16771 
L 315.886898 277.318106 
L 316.454953 274.789225 
L 317.023007 280.640622 
L 317.591062 279.072951 
L 318.159116 278.858823 
L 318.727171 276.209125 
L 319.295225 278.199273 
L 319.86328 279.614727 
L 320.431335 279.051824 
L 320.999389 280.255394 
L 321.567444 275.226089 
L 322.135498 280.23243 
L 322.703553 280.436673 
L 323.271607 278.35586 
L 323.839662 279.326577 
L 324.407717 279.447938 
L 324.975771 279.798691 
L 325.543826 280.932177 
L 326.11188 279.154942 
L 326.679935 279.58926 
L 327.247989 277.140185 
L 327.816044 279.821235 
L 328.952153 280.427023 
L 329.520208 279.271589 
L 330.088262 282.064043 
L 331.224371 278.959258 
L 332.360481 281.421847 
L 332.928535 284.864624 
L 333.49659 277.113287 
L 334.064644 281.488826 
L 334.632699 282.961075 
L 335.200753 277.768559 
L 335.768808 283.639522 
L 336.336862 283.287971 
L 336.904917 280.825002 
L 337.472972 281.183561 
L 338.041026 282.254301 
L 338.609081 279.198521 
L 339.177135 282.441418 
L 339.74519 281.38234 
L 340.313244 281.901382 
L 340.881299 279.853314 
L 341.449354 280.029309 
L 342.017408 281.90624 
L 342.585463 279.927385 
L 343.153517 281.927479 
L 343.721572 280.859645 
L 344.289626 280.083906 
L 344.857681 282.773143 
L 345.425736 282.991435 
L 345.99379 283.799407 
L 346.561845 281.209888 
L 347.129899 283.000491 
L 347.697954 284.008727 
L 348.266008 280.289732 
L 348.834063 282.000916 
L 349.970172 282.838928 
L 350.538227 282.008655 
L 351.106281 280.309835 
L 351.674336 280.379753 
L 352.24239 278.777962 
L 352.810445 283.678539 
L 353.378499 282.003475 
L 353.946554 286.300262 
L 354.514609 284.475491 
L 355.082663 281.797243 
L 355.650718 283.372384 
L 356.218772 280.391219 
L 356.786827 282.553557 
L 357.354881 282.70319 
L 357.922936 283.887198 
L 358.490991 282.896396 
L 359.059045 283.34869 
L 359.6271 282.669857 
L 360.195154 282.549325 
L 360.763209 282.613244 
L 361.331263 283.364568 
L 361.899318 283.308219 
L 362.467372 281.770124 
L 363.035427 284.47724 
L 363.603482 282.569187 
L 364.171536 286.243231 
L 364.739591 282.51691 
L 365.307645 283.930977 
L 365.8757 284.317854 
L 366.443754 283.255662 
L 367.579864 287.120809 
L 368.147918 284.948626 
L 368.715973 285.471764 
L 369.284027 283.173299 
L 369.852082 284.39334 
L 370.988191 284.155945 
L 371.556246 287.139022 
L 372.1243 285.381099 
L 372.692355 282.331342 
L 373.260409 284.153172 
L 373.828464 284.854796 
L 374.396518 284.453861 
L 374.964573 285.544837 
L 375.532628 284.699808 
L 376.100682 284.490559 
L 376.668737 285.392308 
L 377.236791 285.65202 
L 377.804846 284.117547 
L 378.3729 287.095391 
L 378.940955 283.161585 
L 379.509009 284.63705 
L 380.077064 286.954482 
L 380.645119 283.737147 
L 381.213173 285.697455 
L 381.781228 285.041131 
L 382.349282 286.916336 
L 382.917337 286.275221 
L 383.485391 286.693244 
L 384.053446 284.263173 
L 384.621501 286.076328 
L 385.189555 288.372823 
L 385.75761 288.986513 
L 386.325664 285.740425 
L 386.893719 285.663582 
L 387.461773 286.144923 
L 388.029828 287.588757 
L 388.597883 285.939516 
L 389.165937 284.670953 
L 389.733992 284.231173 
L 390.302046 289.697528 
L 390.870101 281.885454 
L 391.438155 289.628712 
L 392.00621 285.975444 
L 392.574264 287.651824 
L 393.142319 285.539919 
L 393.710374 286.085813 
L 394.278428 284.36275 
L 394.846483 285.501055 
L 395.414537 287.543885 
L 395.982592 287.48023 
L 396.550646 282.451862 
L 397.118701 286.073934 
L 397.686756 285.467324 
L 398.25481 288.239285 
L 398.822865 287.090549 
L 399.390919 287.580062 
L 399.958974 285.084959 
L 400.527028 288.102967 
L 401.095083 288.635713 
L 401.663138 288.321626 
L 402.231192 288.597569 
L 402.799247 287.309679 
L 403.367301 288.277864 
L 403.935356 285.78992 
L 404.50341 288.983445 
L 405.071465 287.957059 
L 405.639519 289.250174 
L 406.207574 289.665913 
L 406.775629 288.146575 
L 407.343683 288.420401 
L 407.911738 288.313597 
L 408.479792 288.904603 
L 409.047847 290.077577 
L 409.615901 289.723122 
L 410.183956 286.249739 
L 410.752011 291.537586 
L 411.320065 288.232227 
L 411.88812 285.981539 
L 412.456174 286.361635 
L 413.024229 289.48788 
L 413.592283 286.936237 
L 414.160338 290.016215 
L 414.728393 288.036154 
L 415.864502 287.033175 
L 416.432556 289.743004 
L 417.000611 288.90173 
L 417.568665 290.26553 
L 418.13672 288.129094 
L 418.704775 287.280137 
L 419.272829 287.035593 
L 419.840884 289.086502 
L 420.976993 286.325776 
L 421.545047 287.45201 
L 422.113102 289.078521 
L 423.249211 291.141127 
L 423.817266 288.782321 
L 424.38532 287.358272 
L 424.953375 292.428261 
L 425.521429 288.834999 
L 426.089484 287.588148 
L 426.657538 290.171282 
L 427.225593 287.874589 
L 427.793648 287.616492 
L 428.361702 287.489351 
L 428.929757 288.544134 
L 429.497811 289.878039 
L 430.065866 289.342913 
L 430.63392 287.678651 
L 431.77003 291.213722 
L 432.338084 290.550148 
L 432.906139 293.038674 
L 433.474193 288.094304 
L 434.042248 286.08327 
L 434.610302 289.384013 
L 435.178357 287.818552 
L 435.746411 288.935863 
L 436.314466 288.577557 
L 436.882521 288.677476 
L 437.450575 293.661891 
L 438.01863 291.809207 
L 438.586684 289.359013 
L 439.154739 288.501585 
L 439.722793 291.70855 
L 440.290848 289.913765 
L 440.858903 289.47229 
L 441.426957 290.85805 
L 441.995012 286.74831 
L 442.563066 288.022117 
L 443.131121 290.152577 
L 443.699175 287.841618 
L 444.26723 291.106096 
L 444.835285 291.747931 
L 445.403339 291.14876 
L 445.971394 290.924024 
L 446.539448 289.723656 
L 447.675557 290.823757 
L 448.243612 289.798026 
L 448.811666 292.447424 
L 449.379721 290.375479 
L 449.947776 290.107378 
L 450.51583 289.024911 
L 451.083885 289.340938 
L 451.651939 287.377137 
L 452.219994 290.919655 
L 452.788048 288.516689 
L 453.356103 293.828798 
L 453.924158 293.40389 
L 454.492212 287.601999 
L 455.060267 291.358451 
L 455.628321 291.196539 
L 456.196376 293.252719 
L 456.76443 287.658853 
L 457.332485 292.961308 
L 457.90054 290.688444 
L 458.468594 291.767022 
L 459.036649 291.060529 
L 459.604703 291.390618 
L 460.172758 290.295869 
L 460.740812 293.784756 
L 461.308867 290.865138 
L 461.876922 293.103201 
L 462.444976 291.624389 
L 463.013031 292.311814 
L 463.581085 291.924363 
L 464.14914 290.647793 
L 464.717194 293.370059 
L 465.285249 291.436379 
L 465.853303 292.898505 
L 466.421358 289.541609 
L 466.989413 293.570782 
L 467.557467 291.800938 
L 468.125522 291.336628 
L 468.693576 295.019275 
L 469.261631 293.719014 
L 469.829685 291.967037 
L 470.39774 291.493785 
L 471.533849 288.358435 
L 472.101904 291.601009 
L 472.669958 293.424646 
L 473.238013 291.208331 
L 474.374122 293.961078 
L 474.942177 293.746142 
L 475.510231 290.070181 
L 476.078286 291.907098 
L 476.64634 294.130977 
L 477.782449 289.33883 
L 478.350504 291.897913 
L 478.918558 289.110973 
L 479.486613 290.942537 
L 480.054668 293.847316 
L 480.622722 293.848626 
L 481.190777 293.11321 
L 481.758831 293.948579 
L 482.326886 292.276129 
L 482.89494 292.660257 
L 483.462995 295.435067 
L 484.03105 292.682704 
L 484.599104 293.769911 
L 485.167159 292.544729 
L 485.735213 294.693239 
L 486.303268 294.710376 
L 486.871322 293.144299 
L 487.439377 292.080662 
L 488.007432 294.715382 
L 488.575486 293.491154 
L 489.143541 294.448741 
L 489.711595 294.801085 
L 490.27965 290.961019 
L 490.847704 292.003978 
L 491.415759 289.781785 
L 491.983813 291.499144 
L 492.551868 292.59961 
L 493.119923 294.415316 
L 493.687977 294.197924 
L 494.256032 292.02995 
L 494.824086 292.934433 
L 495.392141 296.12968 
L 495.960195 292.189469 
L 496.52825 295.546887 
L 497.096305 295.759019 
L 497.664359 293.749246 
L 498.232414 293.74296 
L 498.800468 293.132182 
L 499.368523 292.914949 
L 499.936577 289.862255 
L 500.504632 292.999157 
L 501.072687 294.976409 
L 501.640741 293.587384 
L 502.208796 293.326177 
L 502.77685 291.722802 
L 503.344905 294.506719 
L 503.912959 293.322456 
L 504.481014 294.542667 
L 505.049069 291.70327 
L 505.617123 296.412325 
L 506.185178 291.326001 
L 506.753232 293.331721 
L 507.321287 296.362132 
L 507.889341 293.708434 
L 508.457396 293.897841 
L 509.02545 291.089225 
L 509.593505 293.666932 
L 510.16156 293.825016 
L 510.729614 291.19224 
L 511.297669 294.706227 
L 511.865723 293.396411 
L 512.433778 292.726191 
L 513.001832 295.869474 
L 513.569887 293.277224 
L 514.137942 295.097461 
L 514.705996 294.847893 
L 515.274051 292.306422 
L 515.842105 293.615686 
L 516.41016 298.424836 
L 517.546269 293.053608 
L 518.114324 293.708344 
L 518.682378 296.068246 
L 519.250433 292.054393 
L 519.818487 293.337767 
L 520.386542 293.046677 
L 520.954596 293.567545 
L 521.522651 294.368308 
L 522.090705 293.486725 
L 522.65876 294.799978 
L 523.226815 292.107832 
L 523.794869 294.836078 
L 524.362924 295.297899 
L 524.930978 293.265632 
L 525.499033 292.962354 
L 526.067087 293.83637 
L 526.635142 296.046189 
L 527.203197 292.837352 
L 527.771251 295.760313 
L 528.339306 295.321449 
L 528.90736 296.579286 
L 529.475415 294.701685 
L 530.043469 295.769132 
L 530.611524 296.330447 
L 531.179579 295.970257 
L 531.747633 297.140212 
L 532.315688 294.316618 
L 532.883742 296.105267 
L 533.451797 293.077291 
L 534.019851 296.875829 
L 534.587906 294.662552 
L 535.155961 296.372051 
L 535.724015 296.510245 
L 536.29207 296.10712 
L 536.860124 295.41413 
L 537.428179 293.284583 
L 537.996233 294.569088 
L 538.564288 294.023974 
L 539.132342 294.253042 
L 539.700397 296.002317 
L 540.268452 296.695314 
L 540.836506 298.024699 
L 541.404561 293.76717 
L 541.972615 295.788975 
L 542.54067 294.491925 
L 543.108724 296.213435 
L 543.676779 297.435274 
L 544.244834 295.095473 
L 544.812888 295.521782 
L 545.380943 296.215308 
L 545.948997 297.289274 
L 546.517052 294.274753 
L 547.085106 296.339969 
L 547.653161 297.969046 
L 548.221216 298.329756 
L 548.78927 294.650761 
L 549.357325 296.882943 
L 549.925379 293.215218 
L 550.493434 294.872785 
L 551.061488 295.565656 
L 551.629543 296.766945 
L 552.197597 294.895666 
L 552.765652 294.803776 
L 553.333707 293.988656 
L 553.901761 295.282434 
L 554.469816 294.262717 
L 555.03787 295.615448 
L 555.605925 296.431664 
L 556.173979 299.3539 
L 556.742034 298.134174 
L 557.310089 295.924075 
L 557.878143 294.226383 
L 558.446198 294.346416 
L 559.014252 294.645692 
L 559.582307 296.237735 
L 560.150361 296.228724 
L 560.718416 298.730641 
L 561.286471 295.461194 
L 561.854525 298.303191 
L 562.42258 295.66837 
L 562.990634 297.143482 
L 563.558689 295.812487 
L 564.126743 295.282153 
L 564.694798 297.540525 
L 565.262852 296.675812 
L 565.830907 296.122858 
L 566.398962 298.560019 
L 566.967016 297.680403 
L 567.535071 295.571704 
L 568.103125 296.865556 
L 568.67118 296.535758 
L 569.239234 297.242481 
L 569.807289 294.760177 
L 570.375344 298.073511 
L 570.943398 296.567625 
L 571.511453 298.284348 
L 572.079507 297.955809 
L 572.647562 298.737076 
L 573.215616 296.816527 
L 573.783671 298.690231 
L 574.91978 298.269709 
L 575.487835 298.787231 
L 576.055889 293.694146 
L 576.623944 295.187217 
L 577.191998 298.626691 
L 577.760053 298.882334 
L 578.328108 298.935255 
L 578.896162 297.249283 
L 579.464217 296.881679 
L 580.032271 293.735026 
L 580.600326 298.519688 
L 581.16838 297.842563 
L 581.736435 296.28304 
L 582.304489 296.426955 
L 582.872544 297.031431 
L 583.440599 295.177112 
L 584.008653 297.104665 
L 584.576708 295.484191 
L 585.144762 298.343417 
L 585.712817 300.104777 
L 586.280871 298.600114 
L 586.848926 296.167857 
L 587.416981 298.883648 
L 587.985035 300.339466 
L 588.55309 296.249579 
L 589.121144 298.190492 
L 589.689199 298.046623 
L 590.257253 293.514185 
L 590.825308 297.948271 
L 591.393363 294.631193 
L 591.961417 295.348111 
L 592.529472 296.562854 
L 593.097526 296.262437 
L 593.665581 296.403109 
L 594.233635 298.331441 
L 594.80169 297.371295 
L 595.369744 298.167737 
L 595.937799 296.477583 
L 596.505854 298.000624 
L 597.073908 294.834031 
L 597.641963 296.832933 
L 598.210017 297.997472 
L 598.778072 297.396325 
L 599.346126 293.796225 
L 599.914181 298.107738 
L 600.482236 296.634052 
L 601.05029 296.251788 
L 601.618345 296.706791 
L 602.186399 298.735255 
L 602.754454 298.419256 
L 603.322508 298.367063 
L 603.890563 299.446921 
L 604.458618 302.645455 
L 605.026672 298.144083 
L 605.594727 298.742083 
L 606.162781 296.79317 
L 606.730836 299.40659 
L 607.29889 300.879673 
L 607.866945 296.088048 
L 608.434999 297.546312 
L 609.003054 296.050675 
L 609.571109 295.962864 
L 610.139163 300.113837 
L 610.707218 298.788257 
L 611.275272 299.777986 
L 611.843327 299.603431 
L 612.411381 299.202453 
L 613.547491 300.247166 
L 614.115545 298.36218 
L 614.6836 299.366292 
L 615.251654 299.847016 
L 615.819709 296.136307 
L 616.387763 300.599379 
L 616.955818 296.95425 
L 617.523873 297.163569 
L 618.091927 299.000202 
L 618.659982 299.737596 
L 619.228036 301.735375 
L 620.364145 297.144123 
L 621.500255 297.366621 
L 622.068309 299.056808 
L 622.636364 301.239122 
L 622.636364 301.239122 
" style="fill:none;stroke:#1f77b4;stroke-linecap:square;stroke-width:0.5;"/>
   </g>
   <g id="line2d_24">
    <path clip-path="url(#pfc4dada665)" d="M 115.363636 59.379187 
L 115.931691 62.074243 
L 117.0678 69.233076 
L 117.635855 74.34247 
L 118.203909 75.161048 
L 118.771964 75.023661 
L 119.340018 78.982954 
L 119.908073 78.295648 
L 120.476127 81.767917 
L 121.612237 80.137375 
L 122.180291 79.065229 
L 122.748346 81.77542 
L 123.3164 83.494883 
L 123.884455 82.216358 
L 124.452509 83.161682 
L 125.020564 82.710791 
L 125.588619 82.111074 
L 126.156673 84.314466 
L 126.724728 83.20112 
L 127.292782 83.375334 
L 127.860837 84.478122 
L 128.428891 87.559465 
L 128.996946 83.802525 
L 129.565001 85.858182 
L 130.133055 85.377429 
L 130.70111 88.648604 
L 131.269164 86.732353 
L 131.837219 87.747051 
L 132.405273 87.774883 
L 132.973328 89.193774 
L 133.541382 88.767591 
L 134.109437 87.545557 
L 134.677492 87.324644 
L 135.245546 93.073932 
L 135.813601 91.090832 
L 136.381655 90.867905 
L 136.94971 93.805415 
L 137.517764 91.649796 
L 138.085819 92.51288 
L 138.653874 92.427651 
L 139.221928 92.687062 
L 139.789983 94.309326 
L 140.358037 94.212577 
L 140.926092 92.997617 
L 141.494146 94.25236 
L 142.062201 94.083619 
L 142.630256 97.211427 
L 143.19831 97.586864 
L 143.766365 99.173628 
L 144.334419 98.515371 
L 144.902474 101.555805 
L 145.470528 99.610159 
L 146.038583 102.471269 
L 146.606637 103.929419 
L 147.174692 104.668554 
L 147.742747 102.426552 
L 148.310801 103.976506 
L 148.878856 104.81173 
L 149.44691 109.904951 
L 150.014965 109.776765 
L 150.583019 112.128681 
L 151.151074 113.274746 
L 151.719129 112.117132 
L 152.855238 115.666817 
L 153.423292 120.13763 
L 153.991347 119.467985 
L 154.559401 122.175746 
L 155.127456 121.918486 
L 155.695511 120.938093 
L 156.263565 127.85659 
L 156.83162 123.727772 
L 157.399674 131.395439 
L 157.967729 131.416556 
L 158.535783 134.114431 
L 159.103838 133.869415 
L 159.671892 137.160764 
L 160.239947 137.344809 
L 160.808002 141.02083 
L 161.376056 143.31615 
L 161.944111 148.756032 
L 162.512165 149.645543 
L 163.08022 152.049254 
L 163.648274 151.633467 
L 164.216329 156.092613 
L 165.352438 158.098998 
L 165.920493 164.950759 
L 166.488547 167.964148 
L 167.056602 169.170455 
L 167.624656 168.148004 
L 168.192711 168.642677 
L 168.760766 169.52907 
L 169.896875 175.930093 
L 170.464929 178.83903 
L 171.032984 179.240394 
L 171.601038 177.391018 
L 172.169093 177.797015 
L 172.737148 181.611374 
L 173.305202 184.052725 
L 173.873257 182.953129 
L 174.441311 183.461761 
L 175.009366 183.292406 
L 175.57742 188.617488 
L 176.145475 186.955394 
L 176.713529 187.328196 
L 177.281584 188.13438 
L 177.849639 191.508767 
L 178.417693 192.337071 
L 178.985748 192.518179 
L 179.553802 194.485735 
L 180.689911 191.031754 
L 181.257966 197.334924 
L 181.826021 194.771499 
L 182.394075 198.249273 
L 182.96213 198.260946 
L 183.530184 199.233117 
L 184.098239 198.133752 
L 184.666293 204.152816 
L 185.234348 203.645902 
L 185.802403 205.326103 
L 186.370457 202.906896 
L 186.938512 205.789091 
L 187.506566 210.019806 
L 188.074621 209.918441 
L 188.642675 208.220714 
L 189.21073 210.358556 
L 189.778784 213.944244 
L 190.914894 211.188214 
L 191.482948 209.204099 
L 192.051003 216.194935 
L 192.619057 213.348859 
L 193.187112 214.580512 
L 193.755166 213.750719 
L 194.323221 219.716377 
L 195.45933 215.903756 
L 196.027385 218.272179 
L 196.595439 221.644085 
L 197.163494 222.748371 
L 197.731548 225.582526 
L 198.299603 224.839571 
L 199.435712 227.055512 
L 200.003767 224.154139 
L 200.571821 226.488513 
L 201.139876 229.921276 
L 201.70793 228.07718 
L 202.275985 230.049702 
L 202.844039 228.087365 
L 203.412094 228.176718 
L 203.980149 231.345564 
L 204.548203 226.335093 
L 205.116258 232.012452 
L 205.684312 231.698283 
L 206.252367 233.855561 
L 206.820421 232.151076 
L 207.388476 234.780051 
L 207.956531 235.606166 
L 208.524585 237.070749 
L 209.09264 239.377605 
L 209.660694 236.720218 
L 210.228749 237.745923 
L 210.796803 236.905068 
L 211.364858 236.41652 
L 212.500967 241.521908 
L 213.069022 236.044033 
L 213.637076 234.505829 
L 214.205131 239.087553 
L 214.773185 236.375292 
L 215.34124 237.073837 
L 215.909295 239.860418 
L 216.477349 238.610534 
L 217.045404 238.758451 
L 217.613458 241.319808 
L 218.181513 243.270124 
L 218.749567 238.844073 
L 219.317622 241.956664 
L 219.885676 241.5335 
L 220.453731 240.283948 
L 221.021786 244.816695 
L 221.58984 242.833041 
L 222.157895 244.702535 
L 222.725949 244.246529 
L 223.294004 245.028233 
L 223.862058 244.106976 
L 224.430113 242.665341 
L 224.998168 242.587993 
L 225.566222 245.853309 
L 226.134277 242.790013 
L 226.702331 246.809688 
L 227.270386 247.131758 
L 227.83844 244.641965 
L 228.406495 243.573501 
L 228.97455 246.93619 
L 229.542604 245.31823 
L 230.110659 243.034666 
L 230.678713 243.877737 
L 231.246768 245.051007 
L 231.814822 249.505387 
L 232.382877 243.587314 
L 232.950931 252.501324 
L 233.518986 244.953927 
L 234.087041 244.136807 
L 234.655095 248.079571 
L 235.22315 249.576928 
L 235.791204 248.563344 
L 236.359259 248.51294 
L 236.927313 246.86733 
L 237.495368 249.169047 
L 238.063423 248.373559 
L 238.631477 251.290948 
L 239.199532 246.38422 
L 239.767586 251.730643 
L 240.335641 253.32696 
L 240.903695 249.506601 
L 241.47175 251.252388 
L 242.039805 250.436026 
L 242.607859 246.47175 
L 243.175914 246.871357 
L 243.743968 251.271689 
L 244.312023 251.351025 
L 244.880077 248.867904 
L 245.448132 251.366519 
L 246.016187 249.800704 
L 246.584241 255.422274 
L 247.152296 256.441308 
L 247.72035 250.400953 
L 248.288405 253.500821 
L 248.856459 252.842228 
L 249.424514 253.47087 
L 249.992568 253.481112 
L 250.560623 253.877228 
L 251.128678 254.091143 
L 251.696732 252.160564 
L 252.264787 251.5418 
L 252.832841 252.961613 
L 253.400896 251.494623 
L 253.96895 254.091833 
L 254.537005 253.541269 
L 255.10506 254.156608 
L 255.673114 254.580898 
L 256.241169 255.776943 
L 256.809223 256.672065 
L 257.377278 250.671152 
L 257.945332 252.357835 
L 258.513387 254.655418 
L 259.081442 255.300061 
L 259.649496 253.106226 
L 260.217551 257.087513 
L 261.35366 248.916162 
L 261.921714 254.257924 
L 262.489769 253.128306 
L 263.057823 254.682569 
L 263.625878 254.357236 
L 264.193933 252.565605 
L 264.761987 254.60468 
L 265.330042 255.41349 
L 265.898096 255.279628 
L 266.466151 256.272116 
L 267.034205 255.089844 
L 267.60226 255.123697 
L 268.170315 256.995466 
L 268.738369 256.793959 
L 269.306424 258.075205 
L 269.874478 256.613401 
L 270.442533 254.795711 
L 271.010587 256.090237 
L 271.578642 256.606256 
L 272.146697 257.619217 
L 272.714751 254.650681 
L 273.282806 255.895054 
L 273.85086 254.661587 
L 274.418915 254.166758 
L 274.986969 254.648763 
L 275.555024 257.74752 
L 276.123078 257.731829 
L 276.691133 256.595715 
L 277.259188 253.252741 
L 277.827242 258.169155 
L 278.395297 255.038751 
L 278.963351 257.393805 
L 279.531406 258.066833 
L 280.09946 260.285902 
L 280.667515 256.306197 
L 281.23557 258.825431 
L 281.803624 257.017385 
L 282.371679 257.407275 
L 282.939733 253.192489 
L 283.507788 256.045838 
L 284.075842 259.860031 
L 284.643897 256.355261 
L 285.211952 257.366792 
L 285.780006 254.701966 
L 286.348061 260.320714 
L 286.916115 259.55511 
L 287.48417 259.277409 
L 288.052224 262.131726 
L 288.620279 258.285954 
L 289.188334 260.004286 
L 289.756388 261.307211 
L 290.324443 256.968542 
L 290.892497 256.79844 
L 292.028606 258.28847 
L 292.596661 256.707634 
L 293.164715 258.227103 
L 293.73277 260.850119 
L 294.300825 256.953614 
L 294.868879 258.121028 
L 295.436934 261.118108 
L 296.004988 259.093726 
L 296.573043 258.035823 
L 297.141097 258.139505 
L 297.709152 259.013242 
L 298.277207 262.07261 
L 298.845261 257.039753 
L 299.413316 256.438573 
L 299.98137 257.412967 
L 300.549425 257.847211 
L 301.117479 260.495691 
L 301.685534 260.231721 
L 302.253589 255.329685 
L 302.821643 258.948984 
L 303.389698 255.975449 
L 303.957752 255.845933 
L 304.525807 257.883066 
L 305.093861 257.073511 
L 305.661916 260.254986 
L 306.22997 256.955733 
L 306.798025 257.796037 
L 307.36608 259.582063 
L 307.934134 259.354638 
L 308.502189 259.38389 
L 309.070243 261.319212 
L 309.638298 264.195692 
L 310.206352 256.374864 
L 310.774407 259.159742 
L 311.342462 259.117807 
L 311.910516 256.060396 
L 312.478571 259.960921 
L 313.046625 258.595311 
L 313.61468 258.884776 
L 314.182734 256.438062 
L 314.750789 257.399573 
L 315.318844 258.780523 
L 315.886898 260.697196 
L 316.454953 264.283527 
L 317.023007 259.888797 
L 317.591062 263.413091 
L 318.159116 260.240319 
L 318.727171 264.449767 
L 319.295225 262.538183 
L 319.86328 262.773745 
L 320.431335 259.938283 
L 320.999389 256.428623 
L 321.567444 265.547024 
L 322.135498 264.024845 
L 322.703553 261.065474 
L 323.271607 263.506019 
L 323.839662 260.861305 
L 324.407717 260.811754 
L 324.975771 265.589425 
L 325.543826 258.95759 
L 326.11188 262.553667 
L 327.247989 257.893672 
L 327.816044 261.565044 
L 328.384099 262.027208 
L 328.952153 259.238188 
L 329.520208 264.203468 
L 330.088262 262.860671 
L 330.656317 257.61353 
L 331.224371 264.247688 
L 331.792426 263.870196 
L 332.360481 261.492944 
L 332.928535 261.439434 
L 333.49659 260.505002 
L 334.632699 263.904339 
L 335.200753 262.221455 
L 335.768808 258.360879 
L 336.336862 259.979052 
L 336.904917 261.108564 
L 337.472972 263.372965 
L 338.041026 263.870565 
L 338.609081 268.539004 
L 339.177135 261.801827 
L 339.74519 259.446041 
L 340.313244 259.674557 
L 340.881299 262.193392 
L 341.449354 265.408403 
L 342.017408 267.145656 
L 342.585463 262.9936 
L 343.153517 262.254998 
L 343.721572 262.391257 
L 344.289626 258.84878 
L 344.857681 264.181866 
L 345.425736 264.73082 
L 345.99379 261.815951 
L 346.561845 261.785237 
L 347.129899 262.044034 
L 347.697954 263.620971 
L 348.266008 264.803151 
L 348.834063 263.279496 
L 349.402117 266.220858 
L 349.970172 261.635503 
L 350.538227 262.981024 
L 351.106281 260.036656 
L 351.674336 266.12295 
L 352.24239 265.875079 
L 352.810445 258.558043 
L 353.378499 260.809 
L 353.946554 266.309338 
L 355.082663 262.517614 
L 355.650718 259.469545 
L 356.218772 263.645638 
L 356.786827 266.757894 
L 357.354881 263.97913 
L 357.922936 260.092601 
L 358.490991 262.183827 
L 359.059045 263.413791 
L 359.6271 264.093755 
L 360.195154 262.268884 
L 360.763209 262.116943 
L 361.331263 260.235382 
L 361.899318 263.240191 
L 362.467372 264.653777 
L 363.035427 265.640275 
L 363.603482 262.352907 
L 364.171536 263.983784 
L 364.739591 260.987767 
L 365.8757 266.874587 
L 366.443754 261.988876 
L 367.011809 260.14418 
L 367.579864 263.336224 
L 368.147918 264.250962 
L 368.715973 264.94928 
L 369.284027 263.781409 
L 369.852082 260.7645 
L 370.420136 265.011845 
L 370.988191 263.04663 
L 371.556246 265.059085 
L 372.1243 264.736428 
L 372.692355 261.425639 
L 373.260409 263.252713 
L 373.828464 263.794895 
L 374.396518 263.538969 
L 374.964573 266.955136 
L 375.532628 263.26125 
L 376.100682 267.487809 
L 376.668737 265.89951 
L 377.236791 263.720733 
L 377.804846 260.328056 
L 378.3729 261.089539 
L 378.940955 263.789687 
L 379.509009 262.912714 
L 380.077064 263.047473 
L 380.645119 262.93269 
L 381.213173 264.578339 
L 381.781228 261.085899 
L 382.917337 264.912632 
L 383.485391 260.514485 
L 384.053446 263.293293 
L 384.621501 268.098301 
L 385.189555 262.988432 
L 385.75761 265.555113 
L 386.325664 263.264353 
L 386.893719 267.405811 
L 387.461773 265.145999 
L 388.029828 265.557742 
L 388.597883 262.670733 
L 389.165937 267.565888 
L 389.733992 269.059286 
L 390.302046 264.297518 
L 390.870101 268.439543 
L 391.438155 263.540442 
L 392.00621 267.604154 
L 392.574264 264.645232 
L 393.142319 263.284684 
L 393.710374 266.215588 
L 394.278428 262.20831 
L 394.846483 264.707869 
L 395.414537 264.316438 
L 395.982592 263.6902 
L 396.550646 261.079258 
L 397.118701 266.882311 
L 397.686756 264.042624 
L 398.25481 264.132517 
L 398.822865 269.165031 
L 399.390919 263.798684 
L 399.958974 263.527058 
L 400.527028 267.324616 
L 401.095083 263.743477 
L 401.663138 261.49766 
L 402.231192 263.379488 
L 402.799247 269.170412 
L 403.367301 261.892914 
L 403.935356 265.927835 
L 404.50341 267.611462 
L 405.071465 266.409313 
L 405.639519 263.610506 
L 406.207574 264.426838 
L 406.775629 268.285764 
L 407.911738 263.986908 
L 408.479792 263.857815 
L 409.047847 263.024901 
L 409.615901 262.481177 
L 410.183956 264.744812 
L 410.752011 263.826036 
L 411.320065 265.146738 
L 411.88812 262.894989 
L 412.456174 266.299839 
L 413.024229 267.488212 
L 413.592283 264.008486 
L 414.160338 265.863406 
L 414.728393 266.737085 
L 415.296447 265.575945 
L 415.864502 261.725318 
L 416.432556 263.43191 
L 417.000611 260.956758 
L 417.568665 264.511607 
L 418.13672 263.507073 
L 418.704775 263.141657 
L 419.272829 261.611455 
L 419.840884 263.387942 
L 420.408938 263.131252 
L 420.976993 265.819767 
L 421.545047 263.58463 
L 422.113102 268.389554 
L 422.681156 266.032061 
L 423.249211 263.062384 
L 423.817266 262.863152 
L 424.38532 265.811413 
L 424.953375 266.300949 
L 425.521429 263.038724 
L 426.657538 266.624765 
L 427.225593 264.549777 
L 427.793648 265.063429 
L 428.361702 265.232134 
L 428.929757 263.044439 
L 429.497811 264.890358 
L 430.065866 263.163526 
L 430.63392 262.402614 
L 431.201975 264.489768 
L 431.77003 268.997507 
L 432.338084 262.824238 
L 432.906139 265.135277 
L 433.474193 265.595323 
L 434.042248 267.655861 
L 434.610302 261.912248 
L 435.178357 265.738031 
L 435.746411 263.933056 
L 436.314466 267.383264 
L 436.882521 266.802888 
L 437.450575 264.879842 
L 438.01863 264.724845 
L 438.586684 264.840993 
L 439.154739 265.461492 
L 439.722793 267.382193 
L 440.290848 266.973118 
L 440.858903 266.347621 
L 441.426957 263.142455 
L 441.995012 266.741007 
L 442.563066 264.204289 
L 443.131121 263.87467 
L 443.699175 264.196776 
L 444.26723 268.425416 
L 444.835285 264.410529 
L 445.403339 267.790466 
L 445.971394 265.411792 
L 446.539448 265.828572 
L 447.107503 262.312899 
L 447.675557 267.368162 
L 448.243612 267.168029 
L 448.811666 266.657408 
L 449.379721 267.499345 
L 449.947776 265.627167 
L 450.51583 266.061148 
L 451.083885 265.821421 
L 451.651939 266.050471 
L 452.219994 266.533825 
L 452.788048 265.409869 
L 453.356103 266.632445 
L 453.924158 264.932004 
L 454.492212 264.993346 
L 455.060267 264.298834 
L 455.628321 265.395422 
L 456.76443 268.390526 
L 457.332485 267.21399 
L 457.90054 260.652166 
L 458.468594 266.598808 
L 459.036649 264.847504 
L 459.604703 265.368269 
L 460.172758 263.474409 
L 460.740812 260.602034 
L 461.308867 261.270506 
L 461.876922 262.209473 
L 462.444976 265.48258 
L 463.013031 262.823128 
L 463.581085 261.064441 
L 464.14914 264.953038 
L 464.717194 261.717266 
L 465.285249 265.926419 
L 465.853303 264.451114 
L 466.989413 263.916669 
L 467.557467 265.547019 
L 468.125522 263.508077 
L 468.693576 262.473021 
L 469.261631 264.830774 
L 469.829685 262.371379 
L 470.39774 267.932688 
L 470.965795 263.293039 
L 471.533849 267.3241 
L 472.101904 266.005362 
L 472.669958 266.182189 
L 473.238013 260.543175 
L 473.806067 266.764167 
L 474.374122 265.183322 
L 474.942177 263.934431 
L 475.510231 265.359176 
L 476.078286 261.87813 
L 476.64634 261.094017 
L 477.214395 262.836885 
L 477.782449 267.097638 
L 478.350504 263.789867 
L 478.918558 265.920614 
L 479.486613 265.528058 
L 480.054668 265.794894 
L 480.622722 271.983536 
L 481.190777 264.607319 
L 481.758831 263.484425 
L 482.326886 260.880019 
L 482.89494 267.517772 
L 483.462995 266.829025 
L 484.03105 260.786268 
L 484.599104 269.422337 
L 485.167159 264.46905 
L 485.735213 267.646807 
L 486.303268 264.131608 
L 486.871322 257.478369 
L 487.439377 267.71723 
L 488.007432 267.608399 
L 488.575486 268.046684 
L 489.143541 262.86881 
L 489.711595 262.547376 
L 490.847704 257.979561 
L 491.415759 262.447905 
L 491.983813 262.310893 
L 492.551868 263.873519 
L 493.119923 266.340131 
L 493.687977 264.917943 
L 494.256032 266.415633 
L 494.824086 263.763479 
L 495.392141 266.158081 
L 495.960195 261.785108 
L 496.52825 265.923721 
L 497.096305 267.493533 
L 497.664359 267.855047 
L 498.232414 266.887579 
L 498.800468 263.8989 
L 499.368523 265.655661 
L 499.936577 263.684196 
L 500.504632 264.706929 
L 501.072687 268.996172 
L 501.640741 263.112185 
L 502.208796 261.782251 
L 502.77685 268.914575 
L 503.344905 262.622564 
L 503.912959 264.416633 
L 504.481014 264.813716 
L 505.049069 266.893596 
L 505.617123 266.087423 
L 506.185178 266.540149 
L 507.321287 264.785472 
L 507.889341 266.30943 
L 508.457396 266.168307 
L 509.02545 268.157128 
L 509.593505 266.028338 
L 510.16156 267.950425 
L 510.729614 261.478548 
L 511.297669 265.090444 
L 511.865723 263.972615 
L 512.433778 266.336237 
L 513.001832 262.248432 
L 513.569887 263.953243 
L 514.137942 264.566221 
L 514.705996 262.494705 
L 515.274051 262.224551 
L 515.842105 264.263714 
L 516.41016 263.513548 
L 516.978214 263.6181 
L 517.546269 262.447776 
L 518.114324 263.637597 
L 518.682378 263.187108 
L 519.250433 268.10435 
L 519.818487 262.706334 
L 520.386542 266.824696 
L 520.954596 266.505665 
L 521.522651 266.526887 
L 522.090705 261.924649 
L 522.65876 266.366842 
L 523.226815 265.298418 
L 523.794869 264.554307 
L 524.362924 265.03155 
L 524.930978 268.7303 
L 525.499033 266.797969 
L 526.067087 264.270123 
L 526.635142 266.219017 
L 527.771251 261.112946 
L 528.339306 263.403125 
L 528.90736 267.201193 
L 529.475415 264.468972 
L 530.043469 264.743914 
L 530.611524 261.889863 
L 531.179579 268.804622 
L 531.747633 266.656023 
L 532.315688 266.339272 
L 532.883742 267.76196 
L 533.451797 263.484277 
L 534.019851 263.614396 
L 534.587906 267.679691 
L 535.155961 263.241904 
L 535.724015 260.847923 
L 536.29207 264.512012 
L 536.860124 265.937092 
L 537.428179 263.478132 
L 537.996233 263.427166 
L 538.564288 265.068466 
L 539.132342 261.077967 
L 539.700397 264.495636 
L 540.268452 266.130166 
L 540.836506 265.094598 
L 541.404561 268.98187 
L 541.972615 264.845952 
L 542.54067 263.199978 
L 543.108724 266.908377 
L 543.676779 262.051496 
L 544.244834 264.898675 
L 544.812888 264.151236 
L 545.380943 265.840201 
L 545.948997 263.196017 
L 546.517052 263.900961 
L 547.085106 266.76951 
L 547.653161 262.178554 
L 548.221216 262.622549 
L 548.78927 264.807413 
L 549.357325 263.032767 
L 550.493434 266.71229 
L 551.061488 267.030221 
L 551.629543 266.097818 
L 552.197597 267.047308 
L 552.765652 265.29108 
L 553.333707 266.090942 
L 553.901761 266.289774 
L 554.469816 261.891061 
L 555.03787 265.999567 
L 555.605925 263.098597 
L 556.173979 265.589354 
L 556.742034 261.726109 
L 557.310089 264.634017 
L 557.878143 265.528909 
L 558.446198 265.203943 
L 559.014252 268.784104 
L 559.582307 268.377807 
L 560.150361 266.908818 
L 560.718416 267.361826 
L 561.286471 263.929497 
L 561.854525 263.106986 
L 562.42258 266.87985 
L 562.990634 266.351883 
L 563.558689 262.812417 
L 564.126743 265.997343 
L 564.694798 262.808502 
L 565.262852 263.845021 
L 565.830907 267.612998 
L 566.398962 259.848899 
L 566.967016 265.917331 
L 567.535071 267.006444 
L 568.103125 265.323228 
L 568.67118 266.517159 
L 569.239234 266.386189 
L 569.807289 265.504113 
L 570.375344 266.298174 
L 570.943398 263.016389 
L 571.511453 265.878928 
L 572.647562 263.660178 
L 573.215616 267.111957 
L 573.783671 265.986453 
L 574.351726 264.43623 
L 574.91978 265.980407 
L 575.487835 263.65331 
L 576.055889 265.186905 
L 576.623944 265.806895 
L 577.191998 267.976593 
L 577.760053 263.979714 
L 578.328108 266.01188 
L 578.896162 264.714126 
L 579.464217 261.617573 
L 580.032271 265.345188 
L 580.600326 263.708509 
L 581.16838 264.456639 
L 581.736435 265.802726 
L 582.304489 264.187779 
L 582.872544 263.96777 
L 583.440599 259.742716 
L 584.008653 258.804947 
L 584.576708 262.90782 
L 585.144762 265.592237 
L 585.712817 264.257368 
L 586.280871 266.605226 
L 586.848926 261.895471 
L 587.416981 260.893485 
L 587.985035 259.296994 
L 588.55309 264.697768 
L 589.121144 266.328639 
L 589.689199 264.984625 
L 590.257253 267.491797 
L 590.825308 268.621187 
L 591.393363 268.292293 
L 591.961417 261.247638 
L 592.529472 263.809794 
L 593.097526 266.902822 
L 593.665581 266.928579 
L 594.233635 266.76959 
L 594.80169 264.438775 
L 595.369744 267.207019 
L 595.937799 265.151358 
L 596.505854 264.243022 
L 597.073908 267.10759 
L 597.641963 265.267316 
L 598.210017 261.426124 
L 598.778072 266.783727 
L 599.346126 262.300787 
L 599.914181 261.633047 
L 600.482236 262.991007 
L 601.05029 262.76846 
L 601.618345 262.6937 
L 602.186399 268.434272 
L 602.754454 265.623685 
L 603.322508 263.647796 
L 603.890563 268.915756 
L 604.458618 262.91345 
L 605.026672 265.177194 
L 605.594727 263.257818 
L 606.162781 260.90177 
L 606.730836 265.052427 
L 607.866945 261.823452 
L 608.434999 259.721219 
L 609.003054 263.419385 
L 609.571109 263.566937 
L 610.139163 260.701549 
L 610.707218 265.972549 
L 611.275272 267.080719 
L 611.843327 267.907272 
L 612.411381 262.432822 
L 612.979436 261.685571 
L 613.547491 268.265431 
L 614.115545 267.747108 
L 614.6836 258.727932 
L 615.251654 264.544771 
L 615.819709 263.793589 
L 616.387763 266.113304 
L 616.955818 264.18987 
L 617.523873 266.908756 
L 618.091927 269.037431 
L 618.659982 262.073973 
L 619.228036 259.592689 
L 619.796091 262.113819 
L 620.364145 260.096502 
L 621.500255 265.137844 
L 622.068309 261.463256 
L 622.636364 265.108458 
L 622.636364 265.108458 
" style="fill:none;stroke:#ff7f0e;stroke-linecap:square;stroke-width:0.5;"/>
   </g>
   <g id="patch_3">
    <path d="M 90 315 
L 90 43.2 
" style="fill:none;stroke:#000000;stroke-linecap:square;stroke-linejoin:miter;stroke-width:0.8;"/>
   </g>
   <g id="patch_4">
    <path d="M 648 315 
L 648 43.2 
" style="fill:none;stroke:#000000;stroke-linecap:square;stroke-linejoin:miter;stroke-width:0.8;"/>
   </g>
   <g id="patch_5">
    <path d="M 90 315 
L 648 315 
" style="fill:none;stroke:#000000;stroke-linecap:square;stroke-linejoin:miter;stroke-width:0.8;"/>
   </g>
   <g id="patch_6">
    <path d="M 90 43.2 
L 648 43.2 
" style="fill:none;stroke:#000000;stroke-linecap:square;stroke-linejoin:miter;stroke-width:0.8;"/>
   </g>
   <g id="text_14">
    <!-- loss -->
    <g transform="translate(357.410625 37.2)scale(0.12 -0.12)">
     <use xlink:href="#DejaVuSans-108"/>
     <use x="27.783203" xlink:href="#DejaVuSans-111"/>
     <use x="88.964844" xlink:href="#DejaVuSans-115"/>
     <use x="141.064453" xlink:href="#DejaVuSans-115"/>
    </g>
   </g>
   <g id="legend_1">
    <g id="patch_7">
     <path d="M 568.846875 80.55625 
L 641 80.55625 
Q 643 80.55625 643 78.55625 
L 643 50.2 
Q 643 48.2 641 48.2 
L 568.846875 48.2 
Q 566.846875 48.2 566.846875 50.2 
L 566.846875 78.55625 
Q 566.846875 80.55625 568.846875 80.55625 
z
" style="fill:#ffffff;opacity:0.8;stroke:#cccccc;stroke-linejoin:miter;"/>
    </g>
    <g id="line2d_25">
     <path d="M 570.846875 56.298437 
L 590.846875 56.298437 
" style="fill:none;stroke:#1f77b4;stroke-linecap:square;stroke-width:0.5;"/>
    </g>
    <g id="line2d_26"/>
    <g id="text_15">
     <!-- train -->
     <defs>
      <path d="M 18.3125 70.21875 
L 18.3125 54.6875 
L 36.8125 54.6875 
L 36.8125 47.703125 
L 18.3125 47.703125 
L 18.3125 18.015625 
Q 18.3125 11.328125 20.140625 9.421875 
Q 21.96875 7.515625 27.59375 7.515625 
L 36.8125 7.515625 
L 36.8125 0 
L 27.59375 0 
Q 17.1875 0 13.234375 3.875 
Q 9.28125 7.765625 9.28125 18.015625 
L 9.28125 47.703125 
L 2.6875 47.703125 
L 2.6875 54.6875 
L 9.28125 54.6875 
L 9.28125 70.21875 
z
" id="DejaVuSans-116"/>
      <path d="M 41.109375 46.296875 
Q 39.59375 47.171875 37.8125 47.578125 
Q 36.03125 48 33.890625 48 
Q 26.265625 48 22.1875 43.046875 
Q 18.109375 38.09375 18.109375 28.8125 
L 18.109375 0 
L 9.078125 0 
L 9.078125 54.6875 
L 18.109375 54.6875 
L 18.109375 46.1875 
Q 20.953125 51.171875 25.484375 53.578125 
Q 30.03125 56 36.53125 56 
Q 37.453125 56 38.578125 55.875 
Q 39.703125 55.765625 41.0625 55.515625 
z
" id="DejaVuSans-114"/>
      <path d="M 34.28125 27.484375 
Q 23.390625 27.484375 19.1875 25 
Q 14.984375 22.515625 14.984375 16.5 
Q 14.984375 11.71875 18.140625 8.90625 
Q 21.296875 6.109375 26.703125 6.109375 
Q 34.1875 6.109375 38.703125 11.40625 
Q 43.21875 16.703125 43.21875 25.484375 
L 43.21875 27.484375 
z
M 52.203125 31.203125 
L 52.203125 0 
L 43.21875 0 
L 43.21875 8.296875 
Q 40.140625 3.328125 35.546875 0.953125 
Q 30.953125 -1.421875 24.3125 -1.421875 
Q 15.921875 -1.421875 10.953125 3.296875 
Q 6 8.015625 6 15.921875 
Q 6 25.140625 12.171875 29.828125 
Q 18.359375 34.515625 30.609375 34.515625 
L 43.21875 34.515625 
L 43.21875 35.40625 
Q 43.21875 41.609375 39.140625 45 
Q 35.0625 48.390625 27.6875 48.390625 
Q 23 48.390625 18.546875 47.265625 
Q 14.109375 46.140625 10.015625 43.890625 
L 10.015625 52.203125 
Q 14.9375 54.109375 19.578125 55.046875 
Q 24.21875 56 28.609375 56 
Q 40.484375 56 46.34375 49.84375 
Q 52.203125 43.703125 52.203125 31.203125 
z
" id="DejaVuSans-97"/>
      <path d="M 9.421875 54.6875 
L 18.40625 54.6875 
L 18.40625 0 
L 9.421875 0 
z
M 9.421875 75.984375 
L 18.40625 75.984375 
L 18.40625 64.59375 
L 9.421875 64.59375 
z
" id="DejaVuSans-105"/>
      <path d="M 54.890625 33.015625 
L 54.890625 0 
L 45.90625 0 
L 45.90625 32.71875 
Q 45.90625 40.484375 42.875 44.328125 
Q 39.84375 48.1875 33.796875 48.1875 
Q 26.515625 48.1875 22.3125 43.546875 
Q 18.109375 38.921875 18.109375 30.90625 
L 18.109375 0 
L 9.078125 0 
L 9.078125 54.6875 
L 18.109375 54.6875 
L 18.109375 46.1875 
Q 21.34375 51.125 25.703125 53.5625 
Q 30.078125 56 35.796875 56 
Q 45.21875 56 50.046875 50.171875 
Q 54.890625 44.34375 54.890625 33.015625 
z
" id="DejaVuSans-110"/>
     </defs>
     <g transform="translate(598.846875 59.798437)scale(0.1 -0.1)">
      <use xlink:href="#DejaVuSans-116"/>
      <use x="39.208984" xlink:href="#DejaVuSans-114"/>
      <use x="80.322266" xlink:href="#DejaVuSans-97"/>
      <use x="141.601562" xlink:href="#DejaVuSans-105"/>
      <use x="169.384766" xlink:href="#DejaVuSans-110"/>
     </g>
    </g>
    <g id="line2d_27">
     <path d="M 570.846875 70.976562 
L 590.846875 70.976562 
" style="fill:none;stroke:#ff7f0e;stroke-linecap:square;stroke-width:0.5;"/>
    </g>
    <g id="line2d_28"/>
    <g id="text_16">
     <!-- validate -->
     <defs>
      <path d="M 2.984375 54.6875 
L 12.5 54.6875 
L 29.59375 8.796875 
L 46.6875 54.6875 
L 56.203125 54.6875 
L 35.6875 0 
L 23.484375 0 
z
" id="DejaVuSans-118"/>
      <path d="M 45.40625 46.390625 
L 45.40625 75.984375 
L 54.390625 75.984375 
L 54.390625 0 
L 45.40625 0 
L 45.40625 8.203125 
Q 42.578125 3.328125 38.25 0.953125 
Q 33.9375 -1.421875 27.875 -1.421875 
Q 17.96875 -1.421875 11.734375 6.484375 
Q 5.515625 14.40625 5.515625 27.296875 
Q 5.515625 40.1875 11.734375 48.09375 
Q 17.96875 56 27.875 56 
Q 33.9375 56 38.25 53.625 
Q 42.578125 51.265625 45.40625 46.390625 
z
M 14.796875 27.296875 
Q 14.796875 17.390625 18.875 11.75 
Q 22.953125 6.109375 30.078125 6.109375 
Q 37.203125 6.109375 41.296875 11.75 
Q 45.40625 17.390625 45.40625 27.296875 
Q 45.40625 37.203125 41.296875 42.84375 
Q 37.203125 48.484375 30.078125 48.484375 
Q 22.953125 48.484375 18.875 42.84375 
Q 14.796875 37.203125 14.796875 27.296875 
z
" id="DejaVuSans-100"/>
     </defs>
     <g transform="translate(598.846875 74.476562)scale(0.1 -0.1)">
      <use xlink:href="#DejaVuSans-118"/>
      <use x="59.179688" xlink:href="#DejaVuSans-97"/>
      <use x="120.458984" xlink:href="#DejaVuSans-108"/>
      <use x="148.242188" xlink:href="#DejaVuSans-105"/>
      <use x="176.025391" xlink:href="#DejaVuSans-100"/>
      <use x="239.501953" xlink:href="#DejaVuSans-97"/>
      <use x="300.78125" xlink:href="#DejaVuSans-116"/>
      <use x="339.990234" xlink:href="#DejaVuSans-101"/>
     </g>
    </g>
   </g>
  </g>
 </g>
 <defs>
  <clipPath id="pfc4dada665">
   <rect height="271.8" width="558" x="90" y="43.2"/>
  </clipPath>
 </defs>
</svg>
