<?xml version="1.0" encoding="utf-8" standalone="no"?>
<!DOCTYPE svg PUBLIC "-//W3C//DTD SVG 1.1//EN"
  "http://www.w3.org/Graphics/SVG/1.1/DTD/svg11.dtd">
<!-- Created with matplotlib (https://matplotlib.org/) -->
<svg height="360pt" version="1.1" viewBox="0 0 720 360" width="720pt" xmlns="http://www.w3.org/2000/svg" xmlns:xlink="http://www.w3.org/1999/xlink">
 <defs>
  <style type="text/css">
*{stroke-linecap:butt;stroke-linejoin:round;}
  </style>
 </defs>
 <g id="figure_1">
  <g id="patch_1">
   <path d="M 0 360 
L 720 360 
L 720 0 
L 0 0 
z
" style="fill:#ffffff;"/>
  </g>
  <g id="axes_1">
   <g id="patch_2">
    <path d="M 90 315 
L 648 315 
L 648 43.2 
L 90 43.2 
z
" style="fill:#ffffff;"/>
   </g>
   <g id="matplotlib.axis_1">
    <g id="xtick_1">
     <g id="line2d_1">
      <path clip-path="url(#p0c17c54c5f)" d="M 115.363636 315 
L 115.363636 43.2 
" style="fill:none;stroke:#b0b0b0;stroke-linecap:square;stroke-width:0.8;"/>
     </g>
     <g id="line2d_2">
      <defs>
       <path d="M 0 0 
L 0 3.5 
" id="m7980b25e88" style="stroke:#000000;stroke-width:0.8;"/>
      </defs>
      <g>
       <use style="stroke:#000000;stroke-width:0.8;" x="115.363636" xlink:href="#m7980b25e88" y="315"/>
      </g>
     </g>
     <g id="text_1">
      <!-- 0 -->
      <defs>
       <path d="M 31.78125 66.40625 
Q 24.171875 66.40625 20.328125 58.90625 
Q 16.5 51.421875 16.5 36.375 
Q 16.5 21.390625 20.328125 13.890625 
Q 24.171875 6.390625 31.78125 6.390625 
Q 39.453125 6.390625 43.28125 13.890625 
Q 47.125 21.390625 47.125 36.375 
Q 47.125 51.421875 43.28125 58.90625 
Q 39.453125 66.40625 31.78125 66.40625 
z
M 31.78125 74.21875 
Q 44.046875 74.21875 50.515625 64.515625 
Q 56.984375 54.828125 56.984375 36.375 
Q 56.984375 17.96875 50.515625 8.265625 
Q 44.046875 -1.421875 31.78125 -1.421875 
Q 19.53125 -1.421875 13.0625 8.265625 
Q 6.59375 17.96875 6.59375 36.375 
Q 6.59375 54.828125 13.0625 64.515625 
Q 19.53125 74.21875 31.78125 74.21875 
z
" id="DejaVuSans-48"/>
      </defs>
      <g transform="translate(112.182386 329.598437)scale(0.1 -0.1)">
       <use xlink:href="#DejaVuSans-48"/>
      </g>
     </g>
    </g>
    <g id="xtick_2">
     <g id="line2d_3">
      <path clip-path="url(#p0c17c54c5f)" d="M 206.110099 315 
L 206.110099 43.2 
" style="fill:none;stroke:#b0b0b0;stroke-linecap:square;stroke-width:0.8;"/>
     </g>
     <g id="line2d_4">
      <g>
       <use style="stroke:#000000;stroke-width:0.8;" x="206.110099" xlink:href="#m7980b25e88" y="315"/>
      </g>
     </g>
     <g id="text_2">
      <!-- 200 -->
      <defs>
       <path d="M 19.1875 8.296875 
L 53.609375 8.296875 
L 53.609375 0 
L 7.328125 0 
L 7.328125 8.296875 
Q 12.9375 14.109375 22.625 23.890625 
Q 32.328125 33.6875 34.8125 36.53125 
Q 39.546875 41.84375 41.421875 45.53125 
Q 43.3125 49.21875 43.3125 52.78125 
Q 43.3125 58.59375 39.234375 62.25 
Q 35.15625 65.921875 28.609375 65.921875 
Q 23.96875 65.921875 18.8125 64.3125 
Q 13.671875 62.703125 7.8125 59.421875 
L 7.8125 69.390625 
Q 13.765625 71.78125 18.9375 73 
Q 24.125 74.21875 28.421875 74.21875 
Q 39.75 74.21875 46.484375 68.546875 
Q 53.21875 62.890625 53.21875 53.421875 
Q 53.21875 48.921875 51.53125 44.890625 
Q 49.859375 40.875 45.40625 35.40625 
Q 44.1875 33.984375 37.640625 27.21875 
Q 31.109375 20.453125 19.1875 8.296875 
z
" id="DejaVuSans-50"/>
      </defs>
      <g transform="translate(196.566349 329.598437)scale(0.1 -0.1)">
       <use xlink:href="#DejaVuSans-50"/>
       <use x="63.623047" xlink:href="#DejaVuSans-48"/>
       <use x="127.246094" xlink:href="#DejaVuSans-48"/>
      </g>
     </g>
    </g>
    <g id="xtick_3">
     <g id="line2d_5">
      <path clip-path="url(#p0c17c54c5f)" d="M 296.856562 315 
L 296.856562 43.2 
" style="fill:none;stroke:#b0b0b0;stroke-linecap:square;stroke-width:0.8;"/>
     </g>
     <g id="line2d_6">
      <g>
       <use style="stroke:#000000;stroke-width:0.8;" x="296.856562" xlink:href="#m7980b25e88" y="315"/>
      </g>
     </g>
     <g id="text_3">
      <!-- 400 -->
      <defs>
       <path d="M 37.796875 64.3125 
L 12.890625 25.390625 
L 37.796875 25.390625 
z
M 35.203125 72.90625 
L 47.609375 72.90625 
L 47.609375 25.390625 
L 58.015625 25.390625 
L 58.015625 17.1875 
L 47.609375 17.1875 
L 47.609375 0 
L 37.796875 0 
L 37.796875 17.1875 
L 4.890625 17.1875 
L 4.890625 26.703125 
z
" id="DejaVuSans-52"/>
      </defs>
      <g transform="translate(287.312812 329.598437)scale(0.1 -0.1)">
       <use xlink:href="#DejaVuSans-52"/>
       <use x="63.623047" xlink:href="#DejaVuSans-48"/>
       <use x="127.246094" xlink:href="#DejaVuSans-48"/>
      </g>
     </g>
    </g>
    <g id="xtick_4">
     <g id="line2d_7">
      <path clip-path="url(#p0c17c54c5f)" d="M 387.603025 315 
L 387.603025 43.2 
" style="fill:none;stroke:#b0b0b0;stroke-linecap:square;stroke-width:0.8;"/>
     </g>
     <g id="line2d_8">
      <g>
       <use style="stroke:#000000;stroke-width:0.8;" x="387.603025" xlink:href="#m7980b25e88" y="315"/>
      </g>
     </g>
     <g id="text_4">
      <!-- 600 -->
      <defs>
       <path d="M 33.015625 40.375 
Q 26.375 40.375 22.484375 35.828125 
Q 18.609375 31.296875 18.609375 23.390625 
Q 18.609375 15.53125 22.484375 10.953125 
Q 26.375 6.390625 33.015625 6.390625 
Q 39.65625 6.390625 43.53125 10.953125 
Q 47.40625 15.53125 47.40625 23.390625 
Q 47.40625 31.296875 43.53125 35.828125 
Q 39.65625 40.375 33.015625 40.375 
z
M 52.59375 71.296875 
L 52.59375 62.3125 
Q 48.875 64.0625 45.09375 64.984375 
Q 41.3125 65.921875 37.59375 65.921875 
Q 27.828125 65.921875 22.671875 59.328125 
Q 17.53125 52.734375 16.796875 39.40625 
Q 19.671875 43.65625 24.015625 45.921875 
Q 28.375 48.1875 33.59375 48.1875 
Q 44.578125 48.1875 50.953125 41.515625 
Q 57.328125 34.859375 57.328125 23.390625 
Q 57.328125 12.15625 50.6875 5.359375 
Q 44.046875 -1.421875 33.015625 -1.421875 
Q 20.359375 -1.421875 13.671875 8.265625 
Q 6.984375 17.96875 6.984375 36.375 
Q 6.984375 53.65625 15.1875 63.9375 
Q 23.390625 74.21875 37.203125 74.21875 
Q 40.921875 74.21875 44.703125 73.484375 
Q 48.484375 72.75 52.59375 71.296875 
z
" id="DejaVuSans-54"/>
      </defs>
      <g transform="translate(378.059275 329.598437)scale(0.1 -0.1)">
       <use xlink:href="#DejaVuSans-54"/>
       <use x="63.623047" xlink:href="#DejaVuSans-48"/>
       <use x="127.246094" xlink:href="#DejaVuSans-48"/>
      </g>
     </g>
    </g>
    <g id="xtick_5">
     <g id="line2d_9">
      <path clip-path="url(#p0c17c54c5f)" d="M 478.349488 315 
L 478.349488 43.2 
" style="fill:none;stroke:#b0b0b0;stroke-linecap:square;stroke-width:0.8;"/>
     </g>
     <g id="line2d_10">
      <g>
       <use style="stroke:#000000;stroke-width:0.8;" x="478.349488" xlink:href="#m7980b25e88" y="315"/>
      </g>
     </g>
     <g id="text_5">
      <!-- 800 -->
      <defs>
       <path d="M 31.78125 34.625 
Q 24.75 34.625 20.71875 30.859375 
Q 16.703125 27.09375 16.703125 20.515625 
Q 16.703125 13.921875 20.71875 10.15625 
Q 24.75 6.390625 31.78125 6.390625 
Q 38.8125 6.390625 42.859375 10.171875 
Q 46.921875 13.96875 46.921875 20.515625 
Q 46.921875 27.09375 42.890625 30.859375 
Q 38.875 34.625 31.78125 34.625 
z
M 21.921875 38.8125 
Q 15.578125 40.375 12.03125 44.71875 
Q 8.5 49.078125 8.5 55.328125 
Q 8.5 64.0625 14.71875 69.140625 
Q 20.953125 74.21875 31.78125 74.21875 
Q 42.671875 74.21875 48.875 69.140625 
Q 55.078125 64.0625 55.078125 55.328125 
Q 55.078125 49.078125 51.53125 44.71875 
Q 48 40.375 41.703125 38.8125 
Q 48.828125 37.15625 52.796875 32.3125 
Q 56.78125 27.484375 56.78125 20.515625 
Q 56.78125 9.90625 50.3125 4.234375 
Q 43.84375 -1.421875 31.78125 -1.421875 
Q 19.734375 -1.421875 13.25 4.234375 
Q 6.78125 9.90625 6.78125 20.515625 
Q 6.78125 27.484375 10.78125 32.3125 
Q 14.796875 37.15625 21.921875 38.8125 
z
M 18.3125 54.390625 
Q 18.3125 48.734375 21.84375 45.5625 
Q 25.390625 42.390625 31.78125 42.390625 
Q 38.140625 42.390625 41.71875 45.5625 
Q 45.3125 48.734375 45.3125 54.390625 
Q 45.3125 60.0625 41.71875 63.234375 
Q 38.140625 66.40625 31.78125 66.40625 
Q 25.390625 66.40625 21.84375 63.234375 
Q 18.3125 60.0625 18.3125 54.390625 
z
" id="DejaVuSans-56"/>
      </defs>
      <g transform="translate(468.805738 329.598437)scale(0.1 -0.1)">
       <use xlink:href="#DejaVuSans-56"/>
       <use x="63.623047" xlink:href="#DejaVuSans-48"/>
       <use x="127.246094" xlink:href="#DejaVuSans-48"/>
      </g>
     </g>
    </g>
    <g id="xtick_6">
     <g id="line2d_11">
      <path clip-path="url(#p0c17c54c5f)" d="M 569.095951 315 
L 569.095951 43.2 
" style="fill:none;stroke:#b0b0b0;stroke-linecap:square;stroke-width:0.8;"/>
     </g>
     <g id="line2d_12">
      <g>
       <use style="stroke:#000000;stroke-width:0.8;" x="569.095951" xlink:href="#m7980b25e88" y="315"/>
      </g>
     </g>
     <g id="text_6">
      <!-- 1000 -->
      <defs>
       <path d="M 12.40625 8.296875 
L 28.515625 8.296875 
L 28.515625 63.921875 
L 10.984375 60.40625 
L 10.984375 69.390625 
L 28.421875 72.90625 
L 38.28125 72.90625 
L 38.28125 8.296875 
L 54.390625 8.296875 
L 54.390625 0 
L 12.40625 0 
z
" id="DejaVuSans-49"/>
      </defs>
      <g transform="translate(556.370951 329.598437)scale(0.1 -0.1)">
       <use xlink:href="#DejaVuSans-49"/>
       <use x="63.623047" xlink:href="#DejaVuSans-48"/>
       <use x="127.246094" xlink:href="#DejaVuSans-48"/>
       <use x="190.869141" xlink:href="#DejaVuSans-48"/>
      </g>
     </g>
    </g>
    <g id="text_7">
     <!-- epoch -->
     <defs>
      <path d="M 56.203125 29.59375 
L 56.203125 25.203125 
L 14.890625 25.203125 
Q 15.484375 15.921875 20.484375 11.0625 
Q 25.484375 6.203125 34.421875 6.203125 
Q 39.59375 6.203125 44.453125 7.46875 
Q 49.3125 8.734375 54.109375 11.28125 
L 54.109375 2.78125 
Q 49.265625 0.734375 44.1875 -0.34375 
Q 39.109375 -1.421875 33.890625 -1.421875 
Q 20.796875 -1.421875 13.15625 6.1875 
Q 5.515625 13.8125 5.515625 26.8125 
Q 5.515625 40.234375 12.765625 48.109375 
Q 20.015625 56 32.328125 56 
Q 43.359375 56 49.78125 48.890625 
Q 56.203125 41.796875 56.203125 29.59375 
z
M 47.21875 32.234375 
Q 47.125 39.59375 43.09375 43.984375 
Q 39.0625 48.390625 32.421875 48.390625 
Q 24.90625 48.390625 20.390625 44.140625 
Q 15.875 39.890625 15.1875 32.171875 
z
" id="DejaVuSans-101"/>
      <path d="M 18.109375 8.203125 
L 18.109375 -20.796875 
L 9.078125 -20.796875 
L 9.078125 54.6875 
L 18.109375 54.6875 
L 18.109375 46.390625 
Q 20.953125 51.265625 25.265625 53.625 
Q 29.59375 56 35.59375 56 
Q 45.5625 56 51.78125 48.09375 
Q 58.015625 40.1875 58.015625 27.296875 
Q 58.015625 14.40625 51.78125 6.484375 
Q 45.5625 -1.421875 35.59375 -1.421875 
Q 29.59375 -1.421875 25.265625 0.953125 
Q 20.953125 3.328125 18.109375 8.203125 
z
M 48.6875 27.296875 
Q 48.6875 37.203125 44.609375 42.84375 
Q 40.53125 48.484375 33.40625 48.484375 
Q 26.265625 48.484375 22.1875 42.84375 
Q 18.109375 37.203125 18.109375 27.296875 
Q 18.109375 17.390625 22.1875 11.75 
Q 26.265625 6.109375 33.40625 6.109375 
Q 40.53125 6.109375 44.609375 11.75 
Q 48.6875 17.390625 48.6875 27.296875 
z
" id="DejaVuSans-112"/>
      <path d="M 30.609375 48.390625 
Q 23.390625 48.390625 19.1875 42.75 
Q 14.984375 37.109375 14.984375 27.296875 
Q 14.984375 17.484375 19.15625 11.84375 
Q 23.34375 6.203125 30.609375 6.203125 
Q 37.796875 6.203125 41.984375 11.859375 
Q 46.1875 17.53125 46.1875 27.296875 
Q 46.1875 37.015625 41.984375 42.703125 
Q 37.796875 48.390625 30.609375 48.390625 
z
M 30.609375 56 
Q 42.328125 56 49.015625 48.375 
Q 55.71875 40.765625 55.71875 27.296875 
Q 55.71875 13.875 49.015625 6.21875 
Q 42.328125 -1.421875 30.609375 -1.421875 
Q 18.84375 -1.421875 12.171875 6.21875 
Q 5.515625 13.875 5.515625 27.296875 
Q 5.515625 40.765625 12.171875 48.375 
Q 18.84375 56 30.609375 56 
z
" id="DejaVuSans-111"/>
      <path d="M 48.78125 52.59375 
L 48.78125 44.1875 
Q 44.96875 46.296875 41.140625 47.34375 
Q 37.3125 48.390625 33.40625 48.390625 
Q 24.65625 48.390625 19.8125 42.84375 
Q 14.984375 37.3125 14.984375 27.296875 
Q 14.984375 17.28125 19.8125 11.734375 
Q 24.65625 6.203125 33.40625 6.203125 
Q 37.3125 6.203125 41.140625 7.25 
Q 44.96875 8.296875 48.78125 10.40625 
L 48.78125 2.09375 
Q 45.015625 0.34375 40.984375 -0.53125 
Q 36.96875 -1.421875 32.421875 -1.421875 
Q 20.0625 -1.421875 12.78125 6.34375 
Q 5.515625 14.109375 5.515625 27.296875 
Q 5.515625 40.671875 12.859375 48.328125 
Q 20.21875 56 33.015625 56 
Q 37.15625 56 41.109375 55.140625 
Q 45.0625 54.296875 48.78125 52.59375 
z
" id="DejaVuSans-99"/>
      <path d="M 54.890625 33.015625 
L 54.890625 0 
L 45.90625 0 
L 45.90625 32.71875 
Q 45.90625 40.484375 42.875 44.328125 
Q 39.84375 48.1875 33.796875 48.1875 
Q 26.515625 48.1875 22.3125 43.546875 
Q 18.109375 38.921875 18.109375 30.90625 
L 18.109375 0 
L 9.078125 0 
L 9.078125 75.984375 
L 18.109375 75.984375 
L 18.109375 46.1875 
Q 21.34375 51.125 25.703125 53.5625 
Q 30.078125 56 35.796875 56 
Q 45.21875 56 50.046875 50.171875 
Q 54.890625 44.34375 54.890625 33.015625 
z
" id="DejaVuSans-104"/>
     </defs>
     <g transform="translate(353.771875 343.276563)scale(0.1 -0.1)">
      <use xlink:href="#DejaVuSans-101"/>
      <use x="61.523438" xlink:href="#DejaVuSans-112"/>
      <use x="125" xlink:href="#DejaVuSans-111"/>
      <use x="186.181641" xlink:href="#DejaVuSans-99"/>
      <use x="241.162109" xlink:href="#DejaVuSans-104"/>
     </g>
    </g>
   </g>
   <g id="matplotlib.axis_2">
    <g id="ytick_1">
     <g id="line2d_13">
      <path clip-path="url(#p0c17c54c5f)" d="M 90 284.376935 
L 648 284.376935 
" style="fill:none;stroke:#b0b0b0;stroke-linecap:square;stroke-width:0.8;"/>
     </g>
     <g id="line2d_14">
      <defs>
       <path d="M 0 0 
L -3.5 0 
" id="m2dcf3b3a8e" style="stroke:#000000;stroke-width:0.8;"/>
      </defs>
      <g>
       <use style="stroke:#000000;stroke-width:0.8;" x="90" xlink:href="#m2dcf3b3a8e" y="284.376935"/>
      </g>
     </g>
     <g id="text_8">
      <!-- 0.2 -->
      <defs>
       <path d="M 10.6875 12.40625 
L 21 12.40625 
L 21 0 
L 10.6875 0 
z
" id="DejaVuSans-46"/>
      </defs>
      <g transform="translate(67.096875 288.176153)scale(0.1 -0.1)">
       <use xlink:href="#DejaVuSans-48"/>
       <use x="63.623047" xlink:href="#DejaVuSans-46"/>
       <use x="95.410156" xlink:href="#DejaVuSans-50"/>
      </g>
     </g>
    </g>
    <g id="ytick_2">
     <g id="line2d_15">
      <path clip-path="url(#p0c17c54c5f)" d="M 90 252.416287 
L 648 252.416287 
" style="fill:none;stroke:#b0b0b0;stroke-linecap:square;stroke-width:0.8;"/>
     </g>
     <g id="line2d_16">
      <g>
       <use style="stroke:#000000;stroke-width:0.8;" x="90" xlink:href="#m2dcf3b3a8e" y="252.416287"/>
      </g>
     </g>
     <g id="text_9">
      <!-- 0.4 -->
      <g transform="translate(67.096875 256.215506)scale(0.1 -0.1)">
       <use xlink:href="#DejaVuSans-48"/>
       <use x="63.623047" xlink:href="#DejaVuSans-46"/>
       <use x="95.410156" xlink:href="#DejaVuSans-52"/>
      </g>
     </g>
    </g>
    <g id="ytick_3">
     <g id="line2d_17">
      <path clip-path="url(#p0c17c54c5f)" d="M 90 220.455639 
L 648 220.455639 
" style="fill:none;stroke:#b0b0b0;stroke-linecap:square;stroke-width:0.8;"/>
     </g>
     <g id="line2d_18">
      <g>
       <use style="stroke:#000000;stroke-width:0.8;" x="90" xlink:href="#m2dcf3b3a8e" y="220.455639"/>
      </g>
     </g>
     <g id="text_10">
      <!-- 0.6 -->
      <g transform="translate(67.096875 224.254858)scale(0.1 -0.1)">
       <use xlink:href="#DejaVuSans-48"/>
       <use x="63.623047" xlink:href="#DejaVuSans-46"/>
       <use x="95.410156" xlink:href="#DejaVuSans-54"/>
      </g>
     </g>
    </g>
    <g id="ytick_4">
     <g id="line2d_19">
      <path clip-path="url(#p0c17c54c5f)" d="M 90 188.494992 
L 648 188.494992 
" style="fill:none;stroke:#b0b0b0;stroke-linecap:square;stroke-width:0.8;"/>
     </g>
     <g id="line2d_20">
      <g>
       <use style="stroke:#000000;stroke-width:0.8;" x="90" xlink:href="#m2dcf3b3a8e" y="188.494992"/>
      </g>
     </g>
     <g id="text_11">
      <!-- 0.8 -->
      <g transform="translate(67.096875 192.29421)scale(0.1 -0.1)">
       <use xlink:href="#DejaVuSans-48"/>
       <use x="63.623047" xlink:href="#DejaVuSans-46"/>
       <use x="95.410156" xlink:href="#DejaVuSans-56"/>
      </g>
     </g>
    </g>
    <g id="ytick_5">
     <g id="line2d_21">
      <path clip-path="url(#p0c17c54c5f)" d="M 90 156.534344 
L 648 156.534344 
" style="fill:none;stroke:#b0b0b0;stroke-linecap:square;stroke-width:0.8;"/>
     </g>
     <g id="line2d_22">
      <g>
       <use style="stroke:#000000;stroke-width:0.8;" x="90" xlink:href="#m2dcf3b3a8e" y="156.534344"/>
      </g>
     </g>
     <g id="text_12">
      <!-- 1.0 -->
      <g transform="translate(67.096875 160.333563)scale(0.1 -0.1)">
       <use xlink:href="#DejaVuSans-49"/>
       <use x="63.623047" xlink:href="#DejaVuSans-46"/>
       <use x="95.410156" xlink:href="#DejaVuSans-48"/>
      </g>
     </g>
    </g>
    <g id="ytick_6">
     <g id="line2d_23">
      <path clip-path="url(#p0c17c54c5f)" d="M 90 124.573696 
L 648 124.573696 
" style="fill:none;stroke:#b0b0b0;stroke-linecap:square;stroke-width:0.8;"/>
     </g>
     <g id="line2d_24">
      <g>
       <use style="stroke:#000000;stroke-width:0.8;" x="90" xlink:href="#m2dcf3b3a8e" y="124.573696"/>
      </g>
     </g>
     <g id="text_13">
      <!-- 1.2 -->
      <g transform="translate(67.096875 128.372915)scale(0.1 -0.1)">
       <use xlink:href="#DejaVuSans-49"/>
       <use x="63.623047" xlink:href="#DejaVuSans-46"/>
       <use x="95.410156" xlink:href="#DejaVuSans-50"/>
      </g>
     </g>
    </g>
    <g id="ytick_7">
     <g id="line2d_25">
      <path clip-path="url(#p0c17c54c5f)" d="M 90 92.613049 
L 648 92.613049 
" style="fill:none;stroke:#b0b0b0;stroke-linecap:square;stroke-width:0.8;"/>
     </g>
     <g id="line2d_26">
      <g>
       <use style="stroke:#000000;stroke-width:0.8;" x="90" xlink:href="#m2dcf3b3a8e" y="92.613049"/>
      </g>
     </g>
     <g id="text_14">
      <!-- 1.4 -->
      <g transform="translate(67.096875 96.412267)scale(0.1 -0.1)">
       <use xlink:href="#DejaVuSans-49"/>
       <use x="63.623047" xlink:href="#DejaVuSans-46"/>
       <use x="95.410156" xlink:href="#DejaVuSans-52"/>
      </g>
     </g>
    </g>
    <g id="ytick_8">
     <g id="line2d_27">
      <path clip-path="url(#p0c17c54c5f)" d="M 90 60.652401 
L 648 60.652401 
" style="fill:none;stroke:#b0b0b0;stroke-linecap:square;stroke-width:0.8;"/>
     </g>
     <g id="line2d_28">
      <g>
       <use style="stroke:#000000;stroke-width:0.8;" x="90" xlink:href="#m2dcf3b3a8e" y="60.652401"/>
      </g>
     </g>
     <g id="text_15">
      <!-- 1.6 -->
      <g transform="translate(67.096875 64.45162)scale(0.1 -0.1)">
       <use xlink:href="#DejaVuSans-49"/>
       <use x="63.623047" xlink:href="#DejaVuSans-46"/>
       <use x="95.410156" xlink:href="#DejaVuSans-54"/>
      </g>
     </g>
    </g>
    <g id="text_16">
     <!-- loss -->
     <defs>
      <path d="M 9.421875 75.984375 
L 18.40625 75.984375 
L 18.40625 0 
L 9.421875 0 
z
" id="DejaVuSans-108"/>
      <path d="M 44.28125 53.078125 
L 44.28125 44.578125 
Q 40.484375 46.53125 36.375 47.5 
Q 32.28125 48.484375 27.875 48.484375 
Q 21.1875 48.484375 17.84375 46.4375 
Q 14.5 44.390625 14.5 40.28125 
Q 14.5 37.15625 16.890625 35.375 
Q 19.28125 33.59375 26.515625 31.984375 
L 29.59375 31.296875 
Q 39.15625 29.25 43.1875 25.515625 
Q 47.21875 21.78125 47.21875 15.09375 
Q 47.21875 7.46875 41.1875 3.015625 
Q 35.15625 -1.421875 24.609375 -1.421875 
Q 20.21875 -1.421875 15.453125 -0.5625 
Q 10.6875 0.296875 5.421875 2 
L 5.421875 11.28125 
Q 10.40625 8.6875 15.234375 7.390625 
Q 20.0625 6.109375 24.8125 6.109375 
Q 31.15625 6.109375 34.5625 8.28125 
Q 37.984375 10.453125 37.984375 14.40625 
Q 37.984375 18.0625 35.515625 20.015625 
Q 33.0625 21.96875 24.703125 23.78125 
L 21.578125 24.515625 
Q 13.234375 26.265625 9.515625 29.90625 
Q 5.8125 33.546875 5.8125 39.890625 
Q 5.8125 47.609375 11.28125 51.796875 
Q 16.75 56 26.8125 56 
Q 31.78125 56 36.171875 55.265625 
Q 40.578125 54.546875 44.28125 53.078125 
z
" id="DejaVuSans-115"/>
     </defs>
     <g transform="translate(61.017187 188.757812)rotate(-90)scale(0.1 -0.1)">
      <use xlink:href="#DejaVuSans-108"/>
      <use x="27.783203" xlink:href="#DejaVuSans-111"/>
      <use x="88.964844" xlink:href="#DejaVuSans-115"/>
      <use x="141.064453" xlink:href="#DejaVuSans-115"/>
     </g>
    </g>
   </g>
   <g id="line2d_29">
    <path clip-path="url(#p0c17c54c5f)" d="M 115.363636 55.554545 
L 115.817369 67.341789 
L 116.271101 73.60171 
L 116.724833 75.057554 
L 117.632298 81.699715 
L 118.08603 82.002416 
L 118.539763 83.853685 
L 118.993495 84.861846 
L 119.447227 85.525866 
L 119.90096 84.795483 
L 120.354692 84.905436 
L 121.262156 90.692798 
L 121.715889 89.33388 
L 122.169621 89.268794 
L 122.623353 91.565303 
L 123.077086 92.935001 
L 123.530818 91.233263 
L 123.98455 93.59059 
L 124.438283 94.463964 
L 124.892015 95.858163 
L 125.345747 95.98761 
L 125.79948 96.767822 
L 126.253212 98.798143 
L 126.706944 99.526248 
L 127.160677 101.596864 
L 127.614409 102.412035 
L 128.068141 104.768674 
L 128.521873 103.480711 
L 128.975606 108.366748 
L 129.429338 109.81764 
L 129.88307 111.642288 
L 130.336803 112.778603 
L 130.790535 116.046735 
L 131.244267 117.490786 
L 131.698 117.760036 
L 132.151732 124.50139 
L 132.605464 128.227744 
L 133.512929 133.488659 
L 134.420394 140.726654 
L 134.874126 141.842777 
L 136.235323 154.306819 
L 136.689055 154.69567 
L 137.59652 158.636786 
L 138.050252 162.828415 
L 138.957717 165.589401 
L 139.411449 170.256343 
L 139.865181 169.284127 
L 141.226378 176.448569 
L 141.680111 178.071958 
L 142.587575 182.187262 
L 143.041308 183.325797 
L 143.49504 185.414459 
L 143.948772 188.780655 
L 144.402504 187.402242 
L 144.856237 190.403278 
L 145.309969 192.453602 
L 145.763701 192.812926 
L 146.217434 195.119777 
L 146.671166 194.508267 
L 147.578631 201.003717 
L 148.032363 202.672417 
L 148.486095 203.148238 
L 148.939828 203.789353 
L 149.39356 207.254682 
L 149.847292 208.377608 
L 150.754757 211.431759 
L 151.208489 212.358671 
L 151.662221 213.994072 
L 152.115954 216.552415 
L 152.569686 215.803447 
L 153.023418 215.657741 
L 153.477151 217.08211 
L 153.930883 219.446724 
L 154.384615 220.722196 
L 155.29208 224.765401 
L 155.745812 225.288584 
L 156.199545 225.216683 
L 156.653277 227.246986 
L 157.107009 227.786383 
L 157.560742 229.119673 
L 158.014474 228.936123 
L 158.468206 226.73264 
L 158.921939 233.111142 
L 159.375671 228.777317 
L 159.829403 232.493548 
L 160.283135 234.200154 
L 160.736868 234.76626 
L 161.1906 236.691984 
L 161.644332 235.901117 
L 162.098065 237.934643 
L 162.551797 236.91735 
L 163.005529 238.076527 
L 163.459262 235.814278 
L 163.912994 237.251022 
L 164.366726 239.732521 
L 164.820459 241.30304 
L 165.274191 241.037389 
L 165.727923 240.405936 
L 166.181656 243.341348 
L 166.635388 242.113872 
L 167.08912 241.524807 
L 167.542852 242.130084 
L 167.996585 242.925515 
L 168.450317 245.133777 
L 168.904049 245.608287 
L 169.357782 244.466105 
L 169.811514 245.099229 
L 170.265246 247.757963 
L 170.718979 245.337066 
L 171.172711 246.627942 
L 171.626443 249.257922 
L 172.080176 249.285144 
L 172.533908 250.150843 
L 172.98764 248.278869 
L 173.441373 248.885717 
L 174.348837 247.7078 
L 174.80257 250.729331 
L 175.256302 251.096848 
L 175.710034 251.873853 
L 176.617499 251.989709 
L 177.071231 250.670084 
L 177.524963 253.091526 
L 178.432428 253.480626 
L 178.88616 252.093274 
L 179.339893 253.761156 
L 179.793625 252.883795 
L 180.247357 255.324303 
L 180.70109 252.869552 
L 181.154822 255.936767 
L 181.608554 256.297146 
L 182.062287 255.741796 
L 182.516019 253.79407 
L 182.969751 255.64268 
L 183.423483 256.994425 
L 183.877216 257.560832 
L 184.330948 256.083768 
L 184.78468 256.312979 
L 185.238413 256.979118 
L 185.692145 259.855428 
L 186.145877 259.278209 
L 186.59961 261.756653 
L 187.507074 257.276346 
L 187.960807 259.376141 
L 188.414539 259.883878 
L 188.868271 260.001902 
L 189.322004 259.858053 
L 189.775736 258.340849 
L 190.229468 261.398921 
L 190.683201 261.080835 
L 191.136933 261.58267 
L 191.590665 260.206608 
L 192.044397 263.1916 
L 192.49813 261.001413 
L 192.951862 260.87517 
L 193.405594 262.64959 
L 194.313059 263.508941 
L 194.766791 263.633714 
L 195.220524 262.948328 
L 195.674256 263.359334 
L 196.127988 262.433998 
L 196.581721 261.770962 
L 197.035453 264.75811 
L 197.489185 265.192129 
L 197.942918 261.475264 
L 198.850382 265.981155 
L 199.304114 265.613153 
L 199.757847 264.705477 
L 200.211579 266.798733 
L 200.665311 266.710598 
L 201.119044 265.201704 
L 202.026508 264.653369 
L 202.480241 265.091517 
L 202.933973 267.313443 
L 203.387705 266.172179 
L 203.841438 267.477054 
L 204.29517 268.321773 
L 204.748902 265.664215 
L 205.202635 268.530112 
L 205.656367 267.954895 
L 206.110099 269.092435 
L 206.563832 266.563933 
L 207.017564 268.012166 
L 207.471296 266.585245 
L 207.925028 268.798768 
L 208.378761 269.186301 
L 208.832493 269.013736 
L 209.286225 268.338106 
L 209.739958 269.799366 
L 210.19369 268.41037 
L 211.554887 267.865028 
L 212.008619 268.506181 
L 212.462352 268.595006 
L 212.916084 269.976934 
L 213.369816 270.514416 
L 213.823549 270.712293 
L 214.277281 272.670155 
L 214.731013 270.634296 
L 215.184745 272.404298 
L 215.638478 269.230537 
L 216.09221 272.071329 
L 216.545942 272.638628 
L 216.999675 271.438433 
L 217.453407 270.794506 
L 217.907139 271.20581 
L 218.360872 271.936346 
L 218.814604 271.523091 
L 219.268336 269.739934 
L 219.722069 271.72682 
L 220.175801 272.388662 
L 220.629533 271.126775 
L 221.99073 273.559262 
L 222.444463 274.991762 
L 222.898195 272.786766 
L 223.351927 274.381826 
L 224.259392 273.43153 
L 224.713124 273.820035 
L 225.166856 273.546479 
L 225.620589 273.850339 
L 226.074321 272.184744 
L 226.528053 272.452469 
L 226.981786 273.728166 
L 227.435518 273.320407 
L 227.88925 274.337146 
L 228.342983 273.998529 
L 228.796715 276.748182 
L 229.250447 272.269061 
L 229.70418 273.867524 
L 230.157912 276.973219 
L 230.611644 275.103337 
L 231.065376 273.932054 
L 231.519109 276.423488 
L 231.972841 276.014196 
L 232.880306 275.701885 
L 233.334038 274.117058 
L 233.78777 274.986654 
L 234.241503 276.810325 
L 234.695235 275.604781 
L 235.148967 275.075935 
L 235.6027 276.521464 
L 236.056432 276.423935 
L 236.510164 275.904832 
L 236.963897 278.088696 
L 237.871361 276.413212 
L 238.325094 275.074458 
L 238.778826 278.242714 
L 239.232558 277.080227 
L 239.68629 276.792712 
L 240.140023 275.744279 
L 240.593755 276.47981 
L 241.047487 275.934452 
L 241.50122 277.688906 
L 241.954952 276.401658 
L 242.862417 276.645953 
L 243.316149 279.024098 
L 243.769881 279.05842 
L 244.223614 278.184265 
L 245.131078 279.143952 
L 245.584811 278.402086 
L 246.038543 278.116713 
L 246.492275 278.463628 
L 246.946007 277.567605 
L 247.39974 277.795876 
L 247.853472 278.444715 
L 248.760937 278.831662 
L 249.214669 277.769529 
L 249.668401 278.141242 
L 250.122134 281.199142 
L 250.575866 279.214339 
L 251.029598 280.309277 
L 251.483331 280.616213 
L 251.937063 277.203936 
L 252.390795 277.720017 
L 252.844528 279.773137 
L 253.29826 279.067741 
L 253.751992 279.857063 
L 254.205725 277.501462 
L 254.659457 280.429302 
L 255.113189 280.768622 
L 255.566921 280.468237 
L 256.020654 278.557281 
L 256.928118 279.18677 
L 257.381851 279.922704 
L 257.835583 279.194516 
L 258.289315 280.408507 
L 258.743048 280.507118 
L 259.19678 278.59524 
L 259.650512 280.263884 
L 260.104245 281.237648 
L 260.557977 279.016806 
L 261.011709 280.693243 
L 261.465442 281.602641 
L 261.919174 280.491606 
L 262.372906 280.193667 
L 262.826638 279.113752 
L 263.280371 279.949692 
L 263.734103 281.808821 
L 264.641568 282.540735 
L 265.0953 280.936854 
L 265.549032 281.003693 
L 266.002765 279.83789 
L 266.456497 280.529271 
L 266.910229 279.466225 
L 267.363962 282.57993 
L 268.271426 280.94704 
L 268.725159 282.228156 
L 269.178891 280.244299 
L 269.632623 284.015834 
L 270.086356 281.273648 
L 270.540088 280.702994 
L 270.99382 281.752738 
L 271.447552 284.488748 
L 271.901285 280.521858 
L 272.355017 282.402559 
L 272.808749 283.551036 
L 273.262482 283.837749 
L 273.716214 283.494725 
L 274.169946 280.727239 
L 274.623679 283.516571 
L 275.077411 282.420503 
L 275.531143 282.742687 
L 275.984876 282.358936 
L 276.438608 282.968026 
L 276.89234 280.310333 
L 277.346073 281.687893 
L 277.799805 281.650488 
L 278.253537 283.718063 
L 278.707269 284.893177 
L 279.161002 282.20111 
L 279.614734 284.08911 
L 280.068466 282.042495 
L 280.522199 282.970611 
L 280.975931 283.524871 
L 281.429663 283.767795 
L 281.883396 283.198193 
L 282.337128 283.435747 
L 282.79086 282.506324 
L 283.244593 283.919024 
L 283.698325 282.510204 
L 284.152057 285.950843 
L 284.60579 283.203618 
L 285.059522 284.533568 
L 285.513254 284.220876 
L 285.966987 284.331341 
L 286.420719 284.647132 
L 286.874451 283.109496 
L 287.328183 283.332265 
L 287.781916 285.473721 
L 288.235648 284.736297 
L 288.68938 283.484158 
L 289.143113 285.705667 
L 289.596845 283.903526 
L 290.050577 285.834542 
L 290.50431 283.685171 
L 290.958042 285.401044 
L 291.865507 284.076631 
L 292.319239 286.534968 
L 292.772971 286.662008 
L 293.226704 285.304395 
L 293.680436 283.205289 
L 294.134168 286.684845 
L 294.5879 285.122918 
L 295.041633 286.284732 
L 295.495365 286.421352 
L 295.949097 285.73026 
L 296.856562 285.656337 
L 297.310294 284.786999 
L 297.764027 287.299412 
L 298.217759 282.209925 
L 298.671491 285.498129 
L 299.125224 286.539737 
L 299.578956 285.646791 
L 300.032688 286.508887 
L 300.486421 284.698738 
L 300.940153 284.820273 
L 301.393885 286.089582 
L 301.847617 285.859154 
L 302.30135 286.213833 
L 302.755082 287.441214 
L 303.208814 284.900873 
L 303.662547 286.661057 
L 304.116279 287.37812 
L 304.570011 285.196068 
L 305.023744 285.690876 
L 305.477476 286.553308 
L 305.931208 288.091771 
L 306.384941 285.34023 
L 306.838673 285.29852 
L 307.292405 285.113817 
L 307.746138 288.358543 
L 308.19987 287.26488 
L 308.653602 284.709608 
L 309.107335 286.029508 
L 309.561067 286.948072 
L 310.014799 286.977106 
L 310.468531 286.242756 
L 311.375996 286.888613 
L 311.829728 287.427843 
L 312.283461 286.051629 
L 312.737193 287.827013 
L 313.190925 286.740765 
L 313.644658 284.153331 
L 314.09839 287.499991 
L 314.552122 288.208395 
L 315.005855 288.312352 
L 315.459587 287.473403 
L 315.913319 287.475807 
L 316.367052 286.003664 
L 316.820784 288.394198 
L 317.274516 288.184566 
L 317.728248 287.043721 
L 318.181981 288.314693 
L 318.635713 288.372899 
L 319.543178 286.701814 
L 319.99691 287.370115 
L 320.450642 287.409754 
L 320.904375 285.797053 
L 321.358107 287.664169 
L 321.811839 287.028395 
L 322.265572 289.146298 
L 323.173036 286.999651 
L 323.626769 289.655796 
L 324.080501 287.77713 
L 324.534233 287.488467 
L 324.987966 287.683744 
L 325.441698 287.753819 
L 325.89543 286.410386 
L 326.802895 287.170499 
L 327.256627 288.386373 
L 327.710359 290.478502 
L 328.164092 289.297872 
L 328.617824 289.0611 
L 329.071556 290.840935 
L 329.525289 287.147968 
L 329.979021 287.711751 
L 330.432753 288.83151 
L 330.886486 288.147934 
L 331.79395 288.823866 
L 332.247683 288.921506 
L 332.701415 287.857313 
L 333.155147 288.806411 
L 333.608879 288.629698 
L 334.062612 289.564409 
L 334.516344 288.011267 
L 334.970076 289.977811 
L 335.423809 287.920432 
L 336.331273 290.733987 
L 336.785006 288.388357 
L 337.238738 289.688598 
L 337.69247 287.673318 
L 338.146203 289.097099 
L 338.599935 289.520206 
L 339.053667 288.830002 
L 339.5074 290.403625 
L 339.961132 288.815651 
L 340.414864 290.721422 
L 340.868597 288.752431 
L 341.322329 288.557633 
L 341.776061 287.884647 
L 342.229793 288.076579 
L 342.683526 288.67882 
L 343.59099 290.13319 
L 344.044723 288.854705 
L 344.498455 289.96749 
L 344.952187 286.906407 
L 345.40592 290.012276 
L 345.859652 289.800788 
L 346.313384 290.160155 
L 346.767117 290.237428 
L 347.220849 288.829726 
L 347.674581 286.604422 
L 348.582046 291.301837 
L 349.035778 289.893259 
L 349.48951 289.317543 
L 349.943243 291.720675 
L 350.396975 289.120787 
L 350.850707 289.298865 
L 351.30444 291.975744 
L 351.758172 289.987786 
L 352.211904 290.760825 
L 352.665637 291.250212 
L 353.119369 288.298026 
L 353.573101 289.98178 
L 354.026834 290.999613 
L 354.480566 290.985685 
L 355.388031 289.55398 
L 355.841763 290.900386 
L 356.295495 289.373753 
L 356.749228 290.719083 
L 357.20296 289.663546 
L 357.656692 291.382426 
L 358.110424 291.961231 
L 358.564157 291.929129 
L 359.017889 291.715366 
L 359.471621 290.158384 
L 359.925354 289.937719 
L 360.379086 292.735563 
L 360.832818 291.147408 
L 361.740283 291.477748 
L 362.194015 290.525965 
L 362.647748 291.563761 
L 363.10148 291.908554 
L 363.555212 291.590031 
L 364.008945 291.412706 
L 364.462677 291.911248 
L 364.916409 289.860331 
L 365.370141 291.292591 
L 365.823874 291.171937 
L 366.277606 293.618611 
L 366.731338 290.773019 
L 367.185071 291.146666 
L 367.638803 290.82418 
L 368.092535 292.131927 
L 368.546268 292.426634 
L 369 292.006771 
L 369.453732 294.263021 
L 369.907465 291.398414 
L 370.361197 291.162282 
L 370.814929 292.427446 
L 371.268662 290.544056 
L 371.722394 291.445459 
L 372.176126 290.691344 
L 372.629859 293.782742 
L 373.083591 293.753203 
L 373.537323 291.478331 
L 373.991055 292.069154 
L 374.444788 291.816672 
L 374.89852 291.407742 
L 375.352252 292.800058 
L 375.805985 290.340964 
L 376.259717 292.098177 
L 376.713449 293.237406 
L 377.167182 290.307873 
L 377.620914 294.05298 
L 378.528379 289.393161 
L 378.982111 292.936986 
L 379.435843 291.557244 
L 379.889576 292.915301 
L 380.343308 291.443157 
L 380.79704 292.803688 
L 381.250772 292.92038 
L 381.704505 289.523723 
L 382.158237 292.157915 
L 382.611969 291.797989 
L 383.065702 289.05037 
L 383.519434 292.826429 
L 383.973166 291.496081 
L 384.426899 293.545284 
L 384.880631 290.748447 
L 385.334363 291.871305 
L 385.788096 294.008329 
L 386.241828 292.602678 
L 386.69556 291.684146 
L 387.149293 293.377161 
L 387.603025 294.057983 
L 388.056757 293.965189 
L 388.51049 292.6271 
L 388.964222 294.726432 
L 389.417954 293.216505 
L 390.325419 295.08915 
L 390.779151 293.030102 
L 391.232883 294.192921 
L 391.686616 291.595436 
L 392.140348 293.283487 
L 392.59408 293.765317 
L 393.047813 291.824561 
L 393.501545 292.07101 
L 393.955277 293.55798 
L 394.40901 292.663317 
L 394.862742 293.896959 
L 395.316474 294.567682 
L 395.770207 293.928696 
L 396.223939 291.789302 
L 396.677671 292.071034 
L 397.131403 294.289257 
L 397.585136 292.71416 
L 398.038868 294.691301 
L 398.4926 292.866238 
L 398.946333 292.813885 
L 399.400065 292.525754 
L 399.853797 292.721875 
L 400.30753 293.431833 
L 400.761262 293.897167 
L 401.214994 294.599844 
L 401.668727 293.362469 
L 402.122459 293.972975 
L 402.576191 293.283332 
L 403.029924 292.967057 
L 403.483656 294.419205 
L 403.937388 295.119068 
L 404.391121 294.12588 
L 404.844853 295.028101 
L 405.298585 293.619372 
L 406.20605 294.768564 
L 406.659782 294.813243 
L 407.113514 293.162937 
L 407.567247 292.086592 
L 408.020979 295.076228 
L 408.474711 293.860672 
L 408.928444 293.747279 
L 409.382176 293.418343 
L 409.835908 294.674299 
L 410.289641 292.739753 
L 410.743373 293.847527 
L 411.197105 294.462141 
L 411.650838 294.504505 
L 412.10457 293.832477 
L 412.558302 292.418628 
L 413.012034 291.815895 
L 413.465767 294.801669 
L 413.919499 294.925758 
L 414.373231 294.242708 
L 414.826964 295.516907 
L 415.280696 294.39138 
L 415.734428 292.890767 
L 416.188161 294.441443 
L 416.641893 292.949442 
L 417.095625 293.4997 
L 417.549358 295.535614 
L 418.00309 296.665448 
L 418.456822 296.073483 
L 418.910555 293.169527 
L 419.364287 292.240799 
L 419.818019 293.879024 
L 420.271752 293.698432 
L 421.179216 295.508335 
L 421.632948 295.743997 
L 422.086681 294.330087 
L 422.540413 292.330471 
L 422.994145 293.934348 
L 423.447878 292.120303 
L 423.90161 293.439081 
L 424.355342 294.260715 
L 424.809075 293.620007 
L 425.262807 293.823507 
L 425.716539 294.606072 
L 426.170272 294.414676 
L 426.624004 293.963083 
L 427.077736 293.698422 
L 427.531469 294.042557 
L 427.985201 293.468587 
L 428.438933 295.698708 
L 428.892665 293.98449 
L 429.346398 295.780316 
L 429.80013 295.695184 
L 430.253862 294.752701 
L 430.707595 295.099565 
L 431.161327 293.858064 
L 432.068792 295.140197 
L 432.522524 294.955132 
L 432.976256 292.925577 
L 433.429989 295.714438 
L 433.883721 294.672058 
L 434.791186 294.784593 
L 435.244918 296.32137 
L 435.69865 294.613993 
L 436.152383 293.868215 
L 436.606115 292.902385 
L 437.059847 295.012552 
L 437.513579 295.259144 
L 437.967312 294.151492 
L 438.421044 295.957681 
L 438.874776 295.738095 
L 439.328509 294.497245 
L 439.782241 295.543283 
L 440.235973 295.190207 
L 440.689706 295.028376 
L 441.143438 293.346307 
L 441.59717 296.239383 
L 442.050903 295.026992 
L 442.504635 295.447267 
L 442.958367 296.579172 
L 443.4121 295.995162 
L 443.865832 294.876019 
L 444.319564 294.377059 
L 444.773296 294.081019 
L 445.227029 294.767319 
L 445.680761 293.913198 
L 446.134493 294.472564 
L 446.588226 295.728194 
L 447.041958 295.161479 
L 447.49569 296.010895 
L 447.949423 295.260665 
L 448.403155 293.706396 
L 448.856887 297.325536 
L 449.31062 294.413729 
L 449.764352 297.676776 
L 450.218084 294.74519 
L 450.671817 295.493315 
L 451.125549 294.809276 
L 451.579281 295.094436 
L 452.033013 295.712773 
L 452.486746 297.423018 
L 452.940478 296.185887 
L 453.39421 295.798144 
L 453.847943 296.832156 
L 454.755407 296.103656 
L 455.20914 294.058666 
L 455.662872 295.74835 
L 456.116604 295.001059 
L 456.570337 297.010938 
L 457.024069 295.54733 
L 457.477801 295.201106 
L 457.931534 296.349864 
L 458.385266 298.44078 
L 458.838998 295.765019 
L 459.292731 296.320418 
L 459.746463 297.354575 
L 460.200195 296.020246 
L 460.653927 296.713931 
L 461.10766 293.497815 
L 461.561392 294.952078 
L 462.015124 295.394304 
L 462.468857 295.678518 
L 462.922589 296.213315 
L 463.376321 297.012183 
L 463.830054 294.748758 
L 464.283786 295.541682 
L 464.737518 295.151671 
L 465.191251 297.278932 
L 465.644983 295.181242 
L 466.098715 295.528362 
L 466.552448 294.749319 
L 467.00618 297.52445 
L 467.459912 295.945233 
L 467.913644 296.798609 
L 468.367377 296.51029 
L 468.821109 295.52237 
L 469.274841 295.601645 
L 470.182306 297.610697 
L 470.636038 298.061686 
L 471.089771 297.6784 
L 471.543503 296.101938 
L 471.997235 297.35617 
L 472.450968 294.701153 
L 472.9047 297.167123 
L 473.358432 297.733283 
L 473.812165 298.060728 
L 474.265897 297.967427 
L 474.719629 295.705999 
L 475.173362 296.42107 
L 475.627094 296.712022 
L 476.080826 295.55786 
L 476.534558 296.679662 
L 476.988291 295.597707 
L 477.442023 296.553754 
L 477.895755 295.600774 
L 478.349488 296.18126 
L 478.80322 297.358796 
L 479.256952 296.518651 
L 479.710685 296.080272 
L 480.164417 298.067602 
L 480.618149 296.870789 
L 481.071882 296.877147 
L 481.525614 298.042695 
L 481.979346 297.265185 
L 482.886811 297.229807 
L 483.340543 296.026266 
L 483.794275 297.369548 
L 484.248008 295.470941 
L 484.70174 296.857017 
L 485.155472 296.067064 
L 485.609205 297.506749 
L 486.062937 297.373588 
L 486.516669 297.711808 
L 486.970402 296.655278 
L 487.424134 297.12441 
L 487.877866 296.259161 
L 488.331599 296.942646 
L 488.785331 296.762893 
L 489.239063 298.216151 
L 489.692796 296.69124 
L 490.146528 297.488089 
L 490.60026 296.31359 
L 491.053993 296.524287 
L 491.507725 297.345671 
L 491.961457 298.991847 
L 492.415189 298.372793 
L 492.868922 296.609275 
L 493.322654 298.665778 
L 493.776386 297.453298 
L 494.230119 297.645623 
L 494.683851 296.692796 
L 495.137583 297.35318 
L 495.591316 297.732196 
L 496.045048 296.50158 
L 496.49878 297.182066 
L 496.952513 295.799615 
L 498.31371 297.180773 
L 498.767442 296.972841 
L 499.221174 297.70417 
L 499.674906 298.856076 
L 500.582371 297.347159 
L 501.036103 297.03451 
L 501.489836 298.187588 
L 501.943568 295.932392 
L 502.3973 297.755525 
L 502.851033 295.746386 
L 503.304765 296.823851 
L 503.758497 299.780638 
L 504.21223 296.099312 
L 504.665962 297.190372 
L 505.119694 297.463108 
L 505.573427 296.139709 
L 506.480891 296.865224 
L 506.934624 298.471309 
L 507.388356 298.155503 
L 507.842088 296.667744 
L 508.749553 296.288562 
L 509.203285 300.106979 
L 509.657017 296.902358 
L 510.11075 297.438436 
L 510.564482 296.961886 
L 511.018214 298.839807 
L 511.471947 298.74927 
L 512.379411 297.874771 
L 512.833144 297.173919 
L 513.286876 296.831184 
L 513.740608 299.300969 
L 514.194341 296.033198 
L 514.648073 297.278726 
L 515.101805 297.189076 
L 515.555537 299.246399 
L 516.00927 297.24045 
L 516.463002 299.268336 
L 516.916734 297.916007 
L 517.370467 299.525889 
L 517.824199 296.994189 
L 518.277931 296.623086 
L 518.731664 298.409988 
L 519.185396 297.929642 
L 519.639128 298.955624 
L 520.092861 297.979493 
L 520.546593 298.74144 
L 521.000325 297.934275 
L 521.90779 298.337494 
L 522.361522 299.288295 
L 522.815255 297.637816 
L 523.268987 298.497874 
L 523.722719 297.92144 
L 524.176451 297.707541 
L 524.630184 297.220302 
L 525.083916 297.979362 
L 525.537648 297.350609 
L 525.991381 298.661602 
L 526.445113 297.733433 
L 526.898845 298.936467 
L 527.352578 297.010734 
L 527.80631 298.546765 
L 528.260042 299.441468 
L 528.713775 297.815772 
L 529.167507 298.15035 
L 529.621239 297.702591 
L 530.074972 296.346594 
L 530.528704 298.557769 
L 530.982436 298.011787 
L 531.436168 298.622071 
L 531.889901 297.015853 
L 532.343633 299.235005 
L 532.797365 299.286071 
L 533.251098 297.234843 
L 533.70483 299.338603 
L 534.158562 299.654138 
L 534.612295 299.827494 
L 535.066027 298.694426 
L 535.519759 298.110975 
L 535.973492 297.222076 
L 536.427224 299.42274 
L 536.880956 298.619832 
L 537.334689 297.296109 
L 537.788421 298.517284 
L 538.242153 300.667472 
L 538.695886 297.774336 
L 539.149618 297.821166 
L 539.60335 298.023274 
L 540.057082 298.06358 
L 540.510815 299.611633 
L 540.964547 299.250477 
L 541.418279 298.372252 
L 541.872012 299.61486 
L 542.325744 299.077498 
L 542.779476 295.437598 
L 543.233209 298.803937 
L 543.686941 298.849076 
L 544.140673 298.46754 
L 544.594406 300.095962 
L 545.048138 298.406804 
L 545.955603 298.385643 
L 546.409335 298.124804 
L 546.863067 299.200718 
L 547.316799 299.637353 
L 547.770532 298.0715 
L 548.224264 298.718866 
L 548.677996 299.764073 
L 549.131729 298.731199 
L 549.585461 299.708419 
L 550.039193 298.222754 
L 550.492926 299.126328 
L 550.946658 299.092988 
L 551.40039 300.50175 
L 551.854123 300.694045 
L 552.307855 298.996717 
L 552.761587 296.28857 
L 553.21532 299.611773 
L 554.122784 297.41442 
L 554.576517 298.820012 
L 555.030249 297.188503 
L 555.483981 298.331872 
L 555.937713 298.686699 
L 556.391446 298.537933 
L 556.845178 301.955228 
L 557.29891 299.453334 
L 557.752643 300.671312 
L 558.206375 300.131403 
L 558.660107 299.105931 
L 559.11384 297.704836 
L 559.567572 299.493889 
L 560.021304 297.209189 
L 560.475037 298.65176 
L 560.928769 301.867864 
L 561.382501 299.088243 
L 561.836234 298.860619 
L 562.289966 297.300865 
L 562.743698 299.899996 
L 563.19743 298.18055 
L 563.651163 298.362008 
L 564.104895 299.226144 
L 564.558627 299.76235 
L 565.466092 298.835188 
L 565.919824 300.427083 
L 566.373557 298.26688 
L 567.281021 299.102406 
L 567.734754 297.726446 
L 568.188486 299.446626 
L 568.642218 298.587348 
L 569.095951 299.197929 
L 569.549683 300.514714 
L 570.003415 300.246011 
L 570.457148 297.984941 
L 570.91088 300.368929 
L 571.364612 300.698897 
L 571.818344 298.654342 
L 572.272077 301.856811 
L 572.725809 300.332554 
L 573.179541 300.280111 
L 573.633274 299.070856 
L 574.087006 299.750035 
L 574.540738 299.495963 
L 574.994471 300.562314 
L 575.448203 298.881269 
L 575.901935 298.902134 
L 576.8094 299.634159 
L 577.263132 299.169999 
L 577.716865 297.112617 
L 578.170597 298.303966 
L 578.624329 300.465425 
L 579.078061 301.269124 
L 579.531794 299.878568 
L 579.985526 299.187838 
L 580.439258 298.847194 
L 580.892991 296.60273 
L 581.346723 301.139218 
L 581.800455 300.889353 
L 582.254188 298.92619 
L 582.70792 301.371813 
L 583.161652 299.639814 
L 583.615385 298.753404 
L 584.069117 298.547532 
L 585.430314 299.389547 
L 585.884046 298.67064 
L 586.337779 301.114936 
L 586.791511 301.245597 
L 587.245243 299.588871 
L 587.698975 300.57852 
L 588.152708 300.55044 
L 588.60644 300.728125 
L 589.060172 299.766087 
L 589.513905 301.149996 
L 589.967637 299.865004 
L 590.421369 299.989142 
L 590.875102 300.614209 
L 591.328834 300.396768 
L 591.782566 301.901493 
L 592.236299 299.197094 
L 592.690031 299.059321 
L 593.143763 301.72082 
L 593.597496 300.713836 
L 594.051228 299.338465 
L 594.50496 300.217667 
L 594.958692 300.310017 
L 595.412425 300.038393 
L 595.866157 300.494705 
L 596.319889 301.501805 
L 596.773622 299.003307 
L 597.227354 301.029906 
L 597.681086 299.79457 
L 598.134819 300.453904 
L 598.588551 299.632833 
L 599.042283 301.146302 
L 599.496016 300.672853 
L 599.949748 300.718406 
L 600.40348 300.880244 
L 600.857213 300.439173 
L 601.310945 300.948243 
L 601.764677 297.223267 
L 602.218409 298.86134 
L 602.672142 299.771548 
L 603.125874 301.039646 
L 603.579606 299.988832 
L 604.487071 300.639803 
L 604.940803 301.812102 
L 605.394536 300.324727 
L 605.848268 301.5825 
L 606.302 300.358271 
L 606.755733 301.649306 
L 607.209465 299.693184 
L 607.663197 302.645455 
L 608.11693 298.630674 
L 608.570662 298.736426 
L 609.024394 300.76755 
L 609.931859 300.592718 
L 610.385591 300.627927 
L 610.839323 300.493656 
L 611.293056 299.021652 
L 611.746788 299.618667 
L 612.20052 298.82672 
L 612.654253 299.992051 
L 613.107985 299.878034 
L 613.561717 300.512081 
L 614.01545 302.017359 
L 614.469182 299.446276 
L 614.922914 299.891491 
L 615.376647 300.499569 
L 615.830379 300.918518 
L 616.284111 299.365028 
L 616.737844 300.326595 
L 617.191576 300.759628 
L 617.645308 301.714238 
L 618.09904 299.707921 
L 618.552773 301.338852 
L 619.006505 301.253013 
L 619.91397 299.588476 
L 620.367702 300.501624 
L 620.821434 299.926938 
L 621.275167 300.308501 
L 621.728899 300.020126 
L 622.182631 301.635375 
L 622.636364 300.99486 
L 622.636364 300.99486 
" style="fill:none;stroke:#1f77b4;stroke-linecap:square;stroke-width:0.5;"/>
   </g>
   <g id="line2d_30">
    <path clip-path="url(#p0c17c54c5f)" d="M 115.363636 62.023391 
L 115.817369 70.255796 
L 116.271101 69.687947 
L 117.178566 79.502292 
L 117.632298 79.558539 
L 118.08603 82.001154 
L 118.539763 81.253769 
L 119.447227 82.252187 
L 120.354692 84.793911 
L 121.262156 86.374066 
L 121.715889 85.94816 
L 122.169621 87.486594 
L 122.623353 89.934651 
L 123.077086 89.324682 
L 123.530818 90.832187 
L 123.98455 91.672456 
L 124.438283 92.944952 
L 124.892015 95.149387 
L 125.345747 93.839805 
L 125.79948 97.308556 
L 126.253212 95.90246 
L 127.160677 99.3355 
L 127.614409 96.984253 
L 128.521873 102.769292 
L 128.975606 106.291715 
L 129.429338 105.377488 
L 129.88307 108.970506 
L 130.336803 111.291953 
L 130.790535 111.212082 
L 131.244267 116.381898 
L 131.698 118.397084 
L 132.605464 126.677236 
L 133.059197 129.068748 
L 133.512929 133.856891 
L 133.966661 133.571673 
L 134.420394 139.491383 
L 134.874126 139.980951 
L 135.327858 143.210166 
L 135.781591 148.126189 
L 136.235323 151.827883 
L 136.689055 154.522321 
L 137.142787 156.025029 
L 137.59652 156.794399 
L 138.050252 161.261703 
L 138.503984 161.628661 
L 138.957717 164.896931 
L 139.411449 167.170256 
L 139.865181 170.987194 
L 140.318914 171.100086 
L 140.772646 172.553514 
L 141.680111 177.281751 
L 142.133843 176.455658 
L 143.041308 181.206986 
L 143.49504 183.474375 
L 143.948772 183.711664 
L 144.402504 187.498726 
L 144.856237 188.460465 
L 145.309969 190.719049 
L 145.763701 189.843617 
L 146.217434 193.255214 
L 146.671166 194.395455 
L 147.578631 197.392531 
L 148.032363 198.450452 
L 148.939828 205.33165 
L 149.39356 202.895877 
L 150.301025 208.311762 
L 150.754757 207.552656 
L 151.208489 207.671233 
L 151.662221 213.351972 
L 152.115954 211.533459 
L 153.477151 216.087447 
L 153.930883 214.753374 
L 154.384615 216.246192 
L 154.838348 218.715379 
L 155.745812 218.95084 
L 156.199545 220.677069 
L 156.653277 220.196747 
L 157.107009 221.722117 
L 157.560742 221.610098 
L 158.014474 222.900546 
L 158.468206 223.55222 
L 158.921939 222.897879 
L 159.375671 226.749995 
L 159.829403 225.957827 
L 160.283135 225.757613 
L 160.736868 225.158736 
L 161.644332 228.579585 
L 162.098065 229.644323 
L 162.551797 231.715875 
L 163.005529 231.020035 
L 163.459262 232.818312 
L 163.912994 230.817685 
L 164.366726 233.109315 
L 164.820459 231.303088 
L 165.274191 231.816451 
L 165.727923 233.881908 
L 166.181656 233.919388 
L 166.635388 234.730427 
L 167.08912 232.966963 
L 167.542852 236.732717 
L 167.996585 234.327988 
L 168.904049 237.380507 
L 169.357782 237.172604 
L 169.811514 238.221722 
L 170.265246 239.616016 
L 170.718979 238.506113 
L 171.172711 236.650877 
L 171.626443 238.688121 
L 172.080176 237.84683 
L 172.533908 239.794094 
L 172.98764 241.148276 
L 173.441373 239.97548 
L 173.895105 243.059003 
L 174.348837 240.833667 
L 174.80257 240.818418 
L 175.256302 242.713869 
L 175.710034 242.531543 
L 176.163766 239.853077 
L 176.617499 243.191129 
L 177.071231 244.555949 
L 177.524963 242.853798 
L 177.978696 245.622474 
L 178.432428 243.643327 
L 178.88616 244.19542 
L 179.339893 244.355039 
L 179.793625 243.524249 
L 180.247357 245.238193 
L 180.70109 245.264905 
L 181.154822 247.40442 
L 181.608554 246.905551 
L 182.062287 246.138474 
L 182.516019 244.582531 
L 182.969751 246.497502 
L 183.423483 245.603655 
L 184.330948 248.289448 
L 184.78468 248.148701 
L 185.238413 246.419982 
L 185.692145 247.33404 
L 186.145877 249.334855 
L 186.59961 249.666662 
L 187.053342 248.307824 
L 187.507074 248.561914 
L 187.960807 249.665886 
L 188.414539 249.915937 
L 188.868271 249.287783 
L 189.322004 250.916854 
L 189.775736 249.474294 
L 190.229468 251.087335 
L 190.683201 252.213366 
L 191.136933 250.894659 
L 191.590665 250.667807 
L 192.044397 251.926154 
L 192.49813 252.297333 
L 192.951862 252.874729 
L 193.405594 250.277383 
L 193.859327 252.80934 
L 194.313059 252.050943 
L 194.766791 252.238235 
L 195.220524 250.338721 
L 195.674256 250.721296 
L 196.581721 255.053309 
L 197.035453 252.15737 
L 197.489185 251.669345 
L 197.942918 253.060427 
L 198.39665 254.063372 
L 198.850382 255.667327 
L 199.304114 252.345828 
L 199.757847 252.391258 
L 200.211579 257.249426 
L 200.665311 254.455246 
L 201.119044 255.283045 
L 201.572776 254.720025 
L 202.026508 253.398824 
L 202.480241 255.065845 
L 202.933973 254.399295 
L 203.387705 255.956968 
L 203.841438 254.850909 
L 204.29517 256.421742 
L 204.748902 252.464416 
L 205.202635 256.651869 
L 205.656367 256.088104 
L 206.110099 256.028678 
L 206.563832 256.45973 
L 207.017564 258.526018 
L 207.471296 256.298906 
L 207.925028 255.856707 
L 208.378761 255.001199 
L 208.832493 257.064253 
L 209.286225 257.313845 
L 209.739958 256.594217 
L 210.19369 253.818977 
L 210.647422 255.927243 
L 211.101155 257.49692 
L 211.554887 256.382818 
L 212.008619 257.446922 
L 212.462352 256.267539 
L 212.916084 256.638427 
L 213.369816 258.430513 
L 213.823549 254.098827 
L 214.277281 257.187967 
L 214.731013 258.448452 
L 215.184745 255.886084 
L 215.638478 256.666264 
L 216.09221 257.045111 
L 216.545942 259.317966 
L 216.999675 257.220637 
L 217.453407 256.290714 
L 217.907139 259.930183 
L 218.360872 256.574443 
L 218.814604 258.190601 
L 219.268336 259.301547 
L 219.722069 259.289314 
L 220.175801 256.484039 
L 220.629533 260.980339 
L 221.083266 257.11418 
L 221.536998 261.102649 
L 221.99073 257.869067 
L 222.444463 261.103273 
L 223.351927 257.642173 
L 223.805659 257.896025 
L 224.259392 260.784068 
L 224.713124 259.840395 
L 225.166856 260.599103 
L 225.620589 259.387967 
L 226.074321 260.786484 
L 226.528053 257.954229 
L 226.981786 257.847365 
L 227.435518 261.19447 
L 227.88925 259.360445 
L 228.342983 261.247271 
L 228.796715 259.965866 
L 229.250447 259.386304 
L 229.70418 259.192131 
L 230.157912 261.136173 
L 230.611644 259.279858 
L 231.519109 261.722703 
L 231.972841 261.321433 
L 232.426573 258.213291 
L 232.880306 261.465463 
L 233.334038 263.407671 
L 234.241503 260.021497 
L 234.695235 262.343768 
L 235.148967 261.942257 
L 235.6027 260.410977 
L 236.056432 262.76912 
L 236.510164 262.730376 
L 236.963897 262.435651 
L 237.417629 260.61769 
L 238.325094 262.208132 
L 238.778826 262.391417 
L 239.232558 260.920582 
L 239.68629 262.436068 
L 240.140023 260.391998 
L 240.593755 262.393902 
L 241.50122 263.341507 
L 241.954952 261.931979 
L 242.408684 264.268632 
L 242.862417 263.810652 
L 243.769881 261.535096 
L 244.223614 262.794887 
L 244.677346 261.276432 
L 245.131078 264.26399 
L 245.584811 262.131666 
L 246.038543 262.890702 
L 246.492275 262.400561 
L 246.946007 262.195493 
L 247.39974 263.674725 
L 247.853472 265.986875 
L 248.307204 261.078134 
L 248.760937 262.756331 
L 249.668401 264.746678 
L 250.122134 265.170341 
L 250.575866 262.514528 
L 251.029598 261.79758 
L 251.483331 262.034266 
L 251.937063 263.299671 
L 252.390795 261.078202 
L 252.844528 262.142749 
L 253.29826 263.584288 
L 253.751992 262.22091 
L 254.205725 262.656762 
L 254.659457 264.959181 
L 255.113189 263.124242 
L 255.566921 264.419022 
L 256.020654 262.741993 
L 256.474386 264.999275 
L 256.928118 265.595625 
L 257.381851 264.536902 
L 257.835583 263.901055 
L 258.289315 264.204125 
L 258.743048 266.969298 
L 259.650512 260.69614 
L 260.104245 263.96501 
L 260.557977 264.489193 
L 261.011709 264.006367 
L 261.465442 266.756983 
L 261.919174 263.073127 
L 262.372906 264.782987 
L 263.280371 262.379241 
L 263.734103 263.528038 
L 264.187835 265.230001 
L 264.641568 263.002367 
L 265.0953 262.026302 
L 265.549032 266.552312 
L 266.002765 266.633277 
L 266.456497 264.853348 
L 266.910229 264.905398 
L 267.363962 264.381506 
L 267.817694 264.297968 
L 268.271426 263.49352 
L 268.725159 265.064568 
L 269.178891 264.904655 
L 269.632623 263.943436 
L 270.086356 264.46365 
L 270.540088 263.899532 
L 270.99382 262.426401 
L 271.447552 265.637921 
L 271.901285 263.802437 
L 272.355017 268.246132 
L 273.262482 265.761947 
L 273.716214 264.495816 
L 274.169946 265.596685 
L 274.623679 265.027196 
L 275.077411 264.811555 
L 275.531143 264.841176 
L 275.984876 265.75969 
L 276.438608 264.806151 
L 276.89234 268.164061 
L 277.346073 267.284124 
L 277.799805 266.717642 
L 278.253537 266.817041 
L 278.707269 264.303525 
L 279.161002 264.800507 
L 279.614734 266.10502 
L 280.068466 264.427202 
L 280.522199 266.245304 
L 281.429663 265.086811 
L 281.883396 267.330041 
L 282.337128 265.472043 
L 282.79086 267.134523 
L 283.244593 265.153705 
L 283.698325 263.80272 
L 284.152057 265.122161 
L 284.60579 264.172769 
L 285.059522 266.519733 
L 285.513254 266.493072 
L 285.966987 262.263156 
L 286.420719 264.741291 
L 286.874451 264.318177 
L 287.328183 265.07524 
L 287.781916 266.07406 
L 288.235648 266.101807 
L 288.68938 266.988853 
L 289.143113 267.167255 
L 289.596845 264.114632 
L 290.050577 266.358397 
L 290.50431 266.867294 
L 290.958042 266.112604 
L 291.411774 265.868039 
L 291.865507 266.465257 
L 292.319239 266.61706 
L 292.772971 265.552205 
L 293.226704 265.688419 
L 293.680436 268.716691 
L 294.134168 270.137282 
L 294.5879 265.98824 
L 295.041633 266.057087 
L 295.495365 267.24083 
L 295.949097 265.059938 
L 296.40283 265.541293 
L 296.856562 265.677322 
L 297.310294 269.335714 
L 297.764027 267.531172 
L 298.217759 265.240662 
L 298.671491 265.257145 
L 299.125224 268.099747 
L 299.578956 267.240977 
L 300.032688 265.478665 
L 300.486421 267.484147 
L 300.940153 266.899836 
L 301.393885 268.635558 
L 302.30135 262.49295 
L 302.755082 264.350871 
L 303.208814 265.387689 
L 303.662547 267.803533 
L 304.116279 266.532329 
L 305.477476 270.670029 
L 305.931208 270.144085 
L 306.384941 266.433594 
L 306.838673 265.967174 
L 307.746138 266.83636 
L 308.19987 266.933482 
L 308.653602 265.42099 
L 309.107335 267.437049 
L 309.561067 268.269485 
L 310.014799 265.185982 
L 310.468531 268.198171 
L 310.922264 265.655759 
L 311.829728 267.985073 
L 312.283461 263.820912 
L 312.737193 268.049144 
L 313.190925 267.862407 
L 313.644658 268.815384 
L 314.09839 268.685602 
L 314.552122 268.166036 
L 315.005855 268.054623 
L 315.459587 266.997401 
L 315.913319 270.016946 
L 316.367052 269.501392 
L 316.820784 265.844125 
L 317.274516 267.245908 
L 317.728248 265.25228 
L 318.181981 266.419513 
L 318.635713 265.075134 
L 319.543178 267.992573 
L 319.99691 269.140054 
L 320.450642 265.864163 
L 320.904375 268.950531 
L 321.358107 265.234414 
L 321.811839 267.309147 
L 322.265572 264.762451 
L 322.719304 270.112415 
L 323.173036 268.223587 
L 323.626769 266.821991 
L 324.080501 267.271145 
L 324.534233 267.482611 
L 324.987966 266.009857 
L 325.441698 270.969529 
L 325.89543 270.067278 
L 326.349162 271.108462 
L 326.802895 269.770614 
L 327.256627 266.471314 
L 327.710359 264.831394 
L 328.164092 270.46983 
L 328.617824 267.166274 
L 329.071556 268.70952 
L 329.525289 266.56091 
L 329.979021 266.659069 
L 330.432753 269.414479 
L 330.886486 266.715541 
L 331.79395 269.871332 
L 332.247683 266.778917 
L 333.155147 271.663862 
L 333.608879 267.466031 
L 334.062612 268.202959 
L 334.516344 267.147342 
L 334.970076 264.95853 
L 335.423809 267.733194 
L 335.877541 266.73319 
L 336.331273 268.277719 
L 336.785006 267.574579 
L 337.69247 269.657089 
L 338.146203 268.425167 
L 338.599935 267.714934 
L 339.053667 268.958347 
L 339.5074 269.286043 
L 339.961132 268.567143 
L 340.414864 267.547469 
L 340.868597 270.380523 
L 341.322329 264.744698 
L 341.776061 268.763614 
L 342.229793 267.888763 
L 342.683526 268.887119 
L 343.137258 269.417003 
L 343.59099 266.062944 
L 344.044723 270.558163 
L 344.498455 267.798316 
L 345.40592 269.668073 
L 345.859652 266.559511 
L 346.313384 268.615965 
L 346.767117 271.361115 
L 347.220849 268.535789 
L 347.674581 267.781606 
L 348.128314 265.461677 
L 348.582046 267.978642 
L 349.035778 269.41821 
L 349.48951 265.861459 
L 349.943243 271.234112 
L 350.396975 268.785986 
L 350.850707 267.589508 
L 351.30444 268.868246 
L 351.758172 267.150835 
L 352.211904 267.683484 
L 352.665637 268.505777 
L 353.119369 268.837366 
L 353.573101 267.582543 
L 354.026834 267.84761 
L 354.480566 268.869456 
L 354.934298 269.354283 
L 355.388031 270.267976 
L 355.841763 268.181527 
L 356.295495 270.025131 
L 356.749228 269.539873 
L 357.20296 267.022601 
L 357.656692 267.984766 
L 358.110424 268.404395 
L 358.564157 269.977498 
L 359.017889 270.899943 
L 359.471621 268.221999 
L 359.925354 268.415259 
L 360.379086 267.950268 
L 360.832818 270.087144 
L 361.286551 271.549034 
L 361.740283 266.77469 
L 362.194015 270.187903 
L 362.647748 269.032248 
L 363.10148 265.260676 
L 363.555212 269.705924 
L 364.008945 270.201398 
L 364.462677 269.617256 
L 364.916409 270.236853 
L 365.370141 269.499097 
L 365.823874 266.954321 
L 366.277606 269.769352 
L 366.731338 267.496931 
L 367.185071 267.625461 
L 367.638803 267.234209 
L 368.092535 268.313797 
L 368.546268 270.206939 
L 369 268.244555 
L 369.453732 271.804815 
L 369.907465 268.504065 
L 370.361197 268.959866 
L 370.814929 265.22353 
L 371.268662 269.057157 
L 371.722394 269.313568 
L 372.176126 268.468974 
L 372.629859 269.641082 
L 373.083591 267.430349 
L 373.537323 268.634288 
L 373.991055 269.095885 
L 374.444788 269.845352 
L 375.352252 266.834673 
L 375.805985 270.225317 
L 376.259717 269.145714 
L 376.713449 268.412187 
L 377.167182 266.352885 
L 377.620914 269.670963 
L 378.074646 267.181535 
L 378.528379 267.279607 
L 378.982111 267.542832 
L 379.435843 267.31638 
L 379.889576 268.792006 
L 380.343308 266.995942 
L 380.79704 271.193781 
L 381.250772 268.107088 
L 381.704505 268.755171 
L 382.158237 268.374913 
L 382.611969 266.474733 
L 383.065702 271.268788 
L 383.519434 267.852132 
L 383.973166 270.028626 
L 384.426899 267.63389 
L 384.880631 268.889014 
L 385.334363 266.151419 
L 385.788096 270.413048 
L 386.241828 267.2106 
L 386.69556 270.899009 
L 387.149293 268.659537 
L 387.603025 267.652093 
L 388.056757 269.247198 
L 388.51049 270.105365 
L 388.964222 267.562457 
L 389.417954 270.175156 
L 389.871686 271.126574 
L 390.325419 269.446577 
L 390.779151 269.554639 
L 391.232883 265.543177 
L 391.686616 269.383877 
L 392.140348 270.747358 
L 392.59408 269.379181 
L 393.047813 268.466937 
L 393.501545 265.179726 
L 393.955277 265.903373 
L 394.40901 269.609882 
L 394.862742 268.610752 
L 395.316474 269.482977 
L 395.770207 269.531295 
L 396.223939 268.760851 
L 396.677671 269.714042 
L 397.131403 266.608914 
L 397.585136 268.325445 
L 398.038868 272.427677 
L 398.4926 266.10846 
L 398.946333 268.590652 
L 399.400065 268.143828 
L 399.853797 268.321469 
L 400.30753 267.796699 
L 400.761262 270.338003 
L 401.214994 270.757836 
L 401.668727 271.667983 
L 402.576191 267.531078 
L 403.029924 267.910182 
L 403.483656 268.759976 
L 403.937388 270.320529 
L 404.391121 268.261232 
L 404.844853 267.352705 
L 405.298585 271.870525 
L 405.752317 269.441764 
L 406.20605 271.129819 
L 406.659782 270.758257 
L 407.113514 267.784602 
L 407.567247 267.129854 
L 408.020979 267.819525 
L 408.474711 267.49932 
L 409.382176 269.730115 
L 409.835908 268.523854 
L 410.289641 272.167088 
L 410.743373 268.302242 
L 411.197105 269.156684 
L 411.650838 266.819806 
L 412.10457 269.707146 
L 412.558302 267.914167 
L 413.012034 269.293456 
L 413.465767 272.2872 
L 413.919499 269.166958 
L 414.373231 270.378131 
L 414.826964 268.631073 
L 415.280696 268.558778 
L 415.734428 269.413098 
L 416.188161 265.683358 
L 416.641893 265.480222 
L 417.095625 268.624 
L 417.549358 267.279877 
L 418.00309 269.924198 
L 418.456822 270.489265 
L 418.910555 267.036027 
L 419.364287 268.819066 
L 419.818019 267.153013 
L 420.271752 270.335165 
L 420.725484 267.3595 
L 421.179216 269.13953 
L 421.632948 267.629711 
L 422.086681 267.509565 
L 422.540413 264.820863 
L 422.994145 269.072259 
L 423.447878 271.487836 
L 423.90161 267.955768 
L 424.355342 268.542698 
L 424.809075 268.607872 
L 425.262807 270.421136 
L 425.716539 268.737497 
L 426.170272 271.223771 
L 426.624004 265.318273 
L 427.077736 269.309266 
L 427.531469 266.533344 
L 427.985201 268.478198 
L 428.892665 267.92951 
L 429.346398 267.181325 
L 429.80013 272.144945 
L 430.253862 269.390265 
L 430.707595 270.360232 
L 431.161327 270.634349 
L 431.615059 270.353023 
L 432.068792 267.283932 
L 432.522524 270.701013 
L 432.976256 267.49063 
L 433.429989 266.266032 
L 433.883721 263.275052 
L 434.337453 268.332937 
L 434.791186 269.15988 
L 435.244918 269.092102 
L 435.69865 265.928068 
L 436.152383 268.821728 
L 436.606115 270.133763 
L 437.059847 266.233732 
L 437.513579 269.357835 
L 437.967312 266.687069 
L 438.421044 269.607244 
L 438.874776 268.104214 
L 439.328509 268.490674 
L 439.782241 269.682479 
L 440.235973 267.964184 
L 440.689706 268.915127 
L 441.143438 268.691292 
L 441.59717 267.670084 
L 442.050903 270.558551 
L 442.504635 267.481974 
L 442.958367 269.478859 
L 443.4121 269.457088 
L 443.865832 272.741927 
L 444.319564 268.646443 
L 444.773296 269.508731 
L 445.227029 272.206857 
L 445.680761 268.762323 
L 446.134493 270.22357 
L 446.588226 268.47562 
L 447.041958 271.486027 
L 447.49569 269.163301 
L 447.949423 268.535721 
L 448.403155 270.863503 
L 448.856887 268.420221 
L 449.31062 267.048146 
L 449.764352 267.848664 
L 450.218084 268.20846 
L 450.671817 270.751456 
L 451.125549 269.420041 
L 451.579281 270.266845 
L 452.486746 268.507563 
L 452.940478 268.135181 
L 453.39421 266.549685 
L 453.847943 263.701134 
L 454.301675 269.951807 
L 454.755407 270.391905 
L 455.20914 270.507555 
L 455.662872 268.398056 
L 456.116604 270.126872 
L 456.570337 266.030694 
L 457.024069 267.47943 
L 457.477801 270.23266 
L 458.385266 269.094992 
L 458.838998 270.137977 
L 459.292731 267.67927 
L 459.746463 266.684612 
L 460.200195 270.821951 
L 461.10766 268.846587 
L 461.561392 263.847522 
L 462.015124 267.91039 
L 462.468857 266.317537 
L 462.922589 267.422683 
L 463.376321 268.956371 
L 463.830054 271.300409 
L 464.283786 267.933117 
L 464.737518 269.054024 
L 465.191251 267.301528 
L 465.644983 269.960511 
L 466.098715 270.801368 
L 466.552448 271.954684 
L 467.00618 265.092378 
L 467.459912 268.884538 
L 467.913644 267.722278 
L 468.367377 265.811573 
L 468.821109 267.880945 
L 469.274841 268.754968 
L 469.728574 270.38949 
L 470.182306 267.674252 
L 470.636038 268.579157 
L 471.089771 270.002793 
L 471.543503 269.688601 
L 471.997235 268.416892 
L 472.9047 271.097511 
L 473.358432 270.34786 
L 473.812165 269.19102 
L 474.265897 270.295414 
L 474.719629 268.349518 
L 475.173362 268.419631 
L 475.627094 268.068118 
L 476.080826 269.099016 
L 476.534558 267.288332 
L 476.988291 268.223632 
L 477.442023 269.890329 
L 477.895755 267.485427 
L 478.349488 268.244623 
L 478.80322 270.234416 
L 479.256952 268.757695 
L 479.710685 268.897556 
L 480.164417 267.563223 
L 480.618149 268.259407 
L 481.071882 272.728116 
L 481.525614 270.857909 
L 481.979346 268.241769 
L 482.433079 269.97882 
L 482.886811 266.099695 
L 483.340543 266.545598 
L 483.794275 268.159667 
L 484.248008 266.794887 
L 484.70174 270.353563 
L 485.155472 271.008624 
L 485.609205 270.394262 
L 486.062937 266.165953 
L 486.970402 270.464926 
L 487.424134 272.319834 
L 488.331599 265.267564 
L 488.785331 268.848287 
L 489.692796 268.680911 
L 491.053993 265.962384 
L 491.507725 264.199992 
L 491.961457 269.250198 
L 492.868922 270.123233 
L 493.322654 268.703778 
L 493.776386 268.078359 
L 494.230119 270.340491 
L 494.683851 268.140963 
L 495.137583 264.827918 
L 495.591316 267.497275 
L 496.045048 267.290685 
L 496.952513 271.165924 
L 497.859977 269.676297 
L 498.31371 270.749248 
L 498.767442 271.299663 
L 499.221174 264.640465 
L 499.674906 269.326638 
L 500.128639 269.057626 
L 500.582371 271.164848 
L 501.036103 269.08825 
L 501.489836 268.269752 
L 501.943568 268.533295 
L 502.851033 266.795274 
L 503.304765 268.866445 
L 503.758497 268.72261 
L 504.21223 267.925958 
L 504.665962 268.357995 
L 505.119694 270.538092 
L 505.573427 266.315892 
L 506.027159 266.9889 
L 506.480891 266.699847 
L 506.934624 268.982595 
L 507.388356 267.996502 
L 507.842088 272.356995 
L 508.29582 271.509655 
L 508.749553 269.864204 
L 509.203285 273.338258 
L 509.657017 268.117189 
L 510.11075 268.469579 
L 510.564482 268.363016 
L 511.018214 270.061949 
L 511.471947 267.762412 
L 511.925679 269.547241 
L 512.379411 270.375761 
L 513.286876 269.134908 
L 513.740608 266.526543 
L 514.194341 272.332287 
L 514.648073 268.820152 
L 515.101805 270.93941 
L 515.555537 270.902297 
L 516.00927 269.590658 
L 516.463002 266.867844 
L 516.916734 266.793108 
L 517.370467 269.875602 
L 517.824199 268.347658 
L 518.277931 270.909449 
L 518.731664 267.879784 
L 519.185396 268.984273 
L 519.639128 267.866692 
L 520.092861 268.650277 
L 520.546593 270.525045 
L 521.000325 270.092444 
L 521.454058 268.71735 
L 522.361522 268.699148 
L 522.815255 268.323588 
L 523.268987 268.13768 
L 523.722719 270.565276 
L 524.176451 268.169927 
L 524.630184 270.82621 
L 525.083916 270.493089 
L 525.537648 266.60209 
L 525.991381 265.730598 
L 526.445113 269.21251 
L 527.352578 268.795023 
L 527.80631 270.063225 
L 528.260042 267.862414 
L 528.713775 266.381898 
L 529.167507 267.596297 
L 529.621239 272.064714 
L 530.528704 268.719362 
L 530.982436 269.228793 
L 531.436168 271.086922 
L 531.889901 268.838531 
L 532.343633 269.911498 
L 532.797365 268.022913 
L 533.251098 267.509195 
L 533.70483 269.028651 
L 534.158562 269.37473 
L 534.612295 268.486856 
L 535.519759 271.413486 
L 535.973492 265.961707 
L 536.427224 270.282891 
L 536.880956 267.150706 
L 537.334689 270.720872 
L 537.788421 266.504736 
L 538.242153 268.138761 
L 538.695886 270.332054 
L 539.149618 270.641593 
L 539.60335 270.495178 
L 540.057082 270.105788 
L 540.510815 270.202527 
L 540.964547 270.865979 
L 541.418279 268.412022 
L 541.872012 271.017199 
L 542.325744 268.895846 
L 542.779476 269.76854 
L 543.233209 271.26339 
L 543.686941 269.210537 
L 544.140673 269.354711 
L 544.594406 267.904382 
L 545.048138 265.999797 
L 545.50187 268.456402 
L 545.955603 268.988238 
L 546.409335 270.452566 
L 546.863067 268.101561 
L 547.316799 268.654462 
L 547.770532 268.738998 
L 548.224264 269.818828 
L 548.677996 266.851123 
L 549.131729 265.616729 
L 549.585461 269.273326 
L 550.039193 267.055174 
L 550.492926 268.515961 
L 550.946658 267.031331 
L 551.40039 266.2979 
L 551.854123 270.470389 
L 552.307855 267.47001 
L 552.761587 267.715813 
L 553.21532 267.124133 
L 553.669052 267.332179 
L 554.122784 265.805299 
L 554.576517 272.502068 
L 555.030249 267.267974 
L 555.483981 268.994764 
L 555.937713 267.953751 
L 556.391446 269.892061 
L 556.845178 270.283791 
L 557.752643 267.041696 
L 558.206375 266.140016 
L 558.660107 271.148742 
L 559.11384 272.140148 
L 559.567572 270.805838 
L 560.021304 266.168738 
L 560.475037 266.321655 
L 560.928769 270.035354 
L 561.382501 269.856807 
L 561.836234 266.39485 
L 562.289966 267.445477 
L 562.743698 266.656882 
L 563.19743 267.479815 
L 564.104895 272.207662 
L 565.01236 267.657874 
L 565.466092 268.857645 
L 565.919824 269.210413 
L 566.373557 268.853707 
L 566.827289 267.85819 
L 567.281021 269.147159 
L 567.734754 271.138049 
L 568.188486 265.591545 
L 568.642218 269.665715 
L 569.095951 268.448995 
L 569.549683 267.644725 
L 570.457148 268.957723 
L 570.91088 268.384565 
L 571.364612 269.1985 
L 571.818344 270.611376 
L 572.272077 269.797674 
L 572.725809 269.627075 
L 573.179541 270.557171 
L 573.633274 269.933951 
L 574.087006 271.403955 
L 574.540738 270.379086 
L 574.994471 269.880076 
L 575.448203 267.480888 
L 575.901935 270.007238 
L 576.355668 271.102992 
L 576.8094 269.064419 
L 577.263132 268.095147 
L 577.716865 270.368165 
L 578.170597 270.561565 
L 578.624329 268.527095 
L 579.078061 268.358166 
L 579.531794 268.958024 
L 579.985526 270.97636 
L 580.439258 267.221825 
L 581.346723 267.423098 
L 581.800455 269.477268 
L 582.254188 265.39598 
L 583.161652 270.564021 
L 583.615385 270.438584 
L 584.069117 267.702428 
L 584.522849 270.681813 
L 584.976582 268.677323 
L 585.430314 268.434288 
L 586.337779 271.571831 
L 586.791511 270.624361 
L 587.245243 268.723114 
L 587.698975 269.122778 
L 588.152708 267.367633 
L 588.60644 271.161208 
L 589.060172 263.407236 
L 589.513905 266.672662 
L 589.967637 271.784094 
L 590.421369 263.9283 
L 590.875102 271.646971 
L 591.328834 268.564292 
L 591.782566 268.92802 
L 592.236299 267.116374 
L 592.690031 270.933564 
L 593.143763 270.742401 
L 593.597496 272.430697 
L 594.051228 268.424423 
L 594.50496 269.048254 
L 594.958692 267.310925 
L 595.412425 270.176157 
L 595.866157 268.718899 
L 596.319889 268.364963 
L 596.773622 269.178505 
L 597.227354 268.542728 
L 597.681086 268.269647 
L 598.134819 264.146095 
L 598.588551 270.165594 
L 599.042283 266.045613 
L 599.496016 269.435538 
L 599.949748 271.236957 
L 600.40348 269.275111 
L 600.857213 264.498246 
L 601.310945 272.885246 
L 601.764677 267.979116 
L 602.218409 267.112012 
L 602.672142 269.462445 
L 603.579606 269.126017 
L 604.033339 272.2862 
L 604.487071 270.943021 
L 604.940803 271.211416 
L 605.848268 265.645334 
L 606.302 270.362969 
L 606.755733 268.773476 
L 607.209465 269.665912 
L 607.663197 268.617292 
L 608.11693 270.140923 
L 608.570662 268.185227 
L 609.024394 268.911234 
L 609.478127 267.717506 
L 609.931859 270.804184 
L 610.385591 267.896151 
L 610.839323 271.360285 
L 611.293056 267.766673 
L 611.746788 267.157586 
L 612.20052 269.870466 
L 612.654253 271.188665 
L 613.107985 266.210727 
L 614.01545 269.473741 
L 614.469182 267.234206 
L 614.922914 269.818474 
L 615.376647 267.028172 
L 615.830379 270.272424 
L 616.284111 266.558918 
L 617.191576 272.415937 
L 617.645308 267.682779 
L 618.09904 268.075379 
L 619.006505 270.299039 
L 619.460237 267.989562 
L 619.91397 270.376718 
L 620.367702 265.771945 
L 620.821434 268.576347 
L 621.275167 270.213228 
L 621.728899 266.311488 
L 622.182631 269.043828 
L 622.636364 270.029762 
L 622.636364 270.029762 
" style="fill:none;stroke:#ff7f0e;stroke-linecap:square;stroke-width:0.5;"/>
   </g>
   <g id="patch_3">
    <path d="M 90 315 
L 90 43.2 
" style="fill:none;stroke:#000000;stroke-linecap:square;stroke-linejoin:miter;stroke-width:0.8;"/>
   </g>
   <g id="patch_4">
    <path d="M 648 315 
L 648 43.2 
" style="fill:none;stroke:#000000;stroke-linecap:square;stroke-linejoin:miter;stroke-width:0.8;"/>
   </g>
   <g id="patch_5">
    <path d="M 90 315 
L 648 315 
" style="fill:none;stroke:#000000;stroke-linecap:square;stroke-linejoin:miter;stroke-width:0.8;"/>
   </g>
   <g id="patch_6">
    <path d="M 90 43.2 
L 648 43.2 
" style="fill:none;stroke:#000000;stroke-linecap:square;stroke-linejoin:miter;stroke-width:0.8;"/>
   </g>
   <g id="text_17">
    <!-- loss -->
    <g transform="translate(357.410625 37.2)scale(0.12 -0.12)">
     <use xlink:href="#DejaVuSans-108"/>
     <use x="27.783203" xlink:href="#DejaVuSans-111"/>
     <use x="88.964844" xlink:href="#DejaVuSans-115"/>
     <use x="141.064453" xlink:href="#DejaVuSans-115"/>
    </g>
   </g>
   <g id="legend_1">
    <g id="patch_7">
     <path d="M 568.846875 80.55625 
L 641 80.55625 
Q 643 80.55625 643 78.55625 
L 643 50.2 
Q 643 48.2 641 48.2 
L 568.846875 48.2 
Q 566.846875 48.2 566.846875 50.2 
L 566.846875 78.55625 
Q 566.846875 80.55625 568.846875 80.55625 
z
" style="fill:#ffffff;opacity:0.8;stroke:#cccccc;stroke-linejoin:miter;"/>
    </g>
    <g id="line2d_31">
     <path d="M 570.846875 56.298437 
L 590.846875 56.298437 
" style="fill:none;stroke:#1f77b4;stroke-linecap:square;stroke-width:0.5;"/>
    </g>
    <g id="line2d_32"/>
    <g id="text_18">
     <!-- train -->
     <defs>
      <path d="M 18.3125 70.21875 
L 18.3125 54.6875 
L 36.8125 54.6875 
L 36.8125 47.703125 
L 18.3125 47.703125 
L 18.3125 18.015625 
Q 18.3125 11.328125 20.140625 9.421875 
Q 21.96875 7.515625 27.59375 7.515625 
L 36.8125 7.515625 
L 36.8125 0 
L 27.59375 0 
Q 17.1875 0 13.234375 3.875 
Q 9.28125 7.765625 9.28125 18.015625 
L 9.28125 47.703125 
L 2.6875 47.703125 
L 2.6875 54.6875 
L 9.28125 54.6875 
L 9.28125 70.21875 
z
" id="DejaVuSans-116"/>
      <path d="M 41.109375 46.296875 
Q 39.59375 47.171875 37.8125 47.578125 
Q 36.03125 48 33.890625 48 
Q 26.265625 48 22.1875 43.046875 
Q 18.109375 38.09375 18.109375 28.8125 
L 18.109375 0 
L 9.078125 0 
L 9.078125 54.6875 
L 18.109375 54.6875 
L 18.109375 46.1875 
Q 20.953125 51.171875 25.484375 53.578125 
Q 30.03125 56 36.53125 56 
Q 37.453125 56 38.578125 55.875 
Q 39.703125 55.765625 41.0625 55.515625 
z
" id="DejaVuSans-114"/>
      <path d="M 34.28125 27.484375 
Q 23.390625 27.484375 19.1875 25 
Q 14.984375 22.515625 14.984375 16.5 
Q 14.984375 11.71875 18.140625 8.90625 
Q 21.296875 6.109375 26.703125 6.109375 
Q 34.1875 6.109375 38.703125 11.40625 
Q 43.21875 16.703125 43.21875 25.484375 
L 43.21875 27.484375 
z
M 52.203125 31.203125 
L 52.203125 0 
L 43.21875 0 
L 43.21875 8.296875 
Q 40.140625 3.328125 35.546875 0.953125 
Q 30.953125 -1.421875 24.3125 -1.421875 
Q 15.921875 -1.421875 10.953125 3.296875 
Q 6 8.015625 6 15.921875 
Q 6 25.140625 12.171875 29.828125 
Q 18.359375 34.515625 30.609375 34.515625 
L 43.21875 34.515625 
L 43.21875 35.40625 
Q 43.21875 41.609375 39.140625 45 
Q 35.0625 48.390625 27.6875 48.390625 
Q 23 48.390625 18.546875 47.265625 
Q 14.109375 46.140625 10.015625 43.890625 
L 10.015625 52.203125 
Q 14.9375 54.109375 19.578125 55.046875 
Q 24.21875 56 28.609375 56 
Q 40.484375 56 46.34375 49.84375 
Q 52.203125 43.703125 52.203125 31.203125 
z
" id="DejaVuSans-97"/>
      <path d="M 9.421875 54.6875 
L 18.40625 54.6875 
L 18.40625 0 
L 9.421875 0 
z
M 9.421875 75.984375 
L 18.40625 75.984375 
L 18.40625 64.59375 
L 9.421875 64.59375 
z
" id="DejaVuSans-105"/>
      <path d="M 54.890625 33.015625 
L 54.890625 0 
L 45.90625 0 
L 45.90625 32.71875 
Q 45.90625 40.484375 42.875 44.328125 
Q 39.84375 48.1875 33.796875 48.1875 
Q 26.515625 48.1875 22.3125 43.546875 
Q 18.109375 38.921875 18.109375 30.90625 
L 18.109375 0 
L 9.078125 0 
L 9.078125 54.6875 
L 18.109375 54.6875 
L 18.109375 46.1875 
Q 21.34375 51.125 25.703125 53.5625 
Q 30.078125 56 35.796875 56 
Q 45.21875 56 50.046875 50.171875 
Q 54.890625 44.34375 54.890625 33.015625 
z
" id="DejaVuSans-110"/>
     </defs>
     <g transform="translate(598.846875 59.798437)scale(0.1 -0.1)">
      <use xlink:href="#DejaVuSans-116"/>
      <use x="39.208984" xlink:href="#DejaVuSans-114"/>
      <use x="80.322266" xlink:href="#DejaVuSans-97"/>
      <use x="141.601562" xlink:href="#DejaVuSans-105"/>
      <use x="169.384766" xlink:href="#DejaVuSans-110"/>
     </g>
    </g>
    <g id="line2d_33">
     <path d="M 570.846875 70.976562 
L 590.846875 70.976562 
" style="fill:none;stroke:#ff7f0e;stroke-linecap:square;stroke-width:0.5;"/>
    </g>
    <g id="line2d_34"/>
    <g id="text_19">
     <!-- validate -->
     <defs>
      <path d="M 2.984375 54.6875 
L 12.5 54.6875 
L 29.59375 8.796875 
L 46.6875 54.6875 
L 56.203125 54.6875 
L 35.6875 0 
L 23.484375 0 
z
" id="DejaVuSans-118"/>
      <path d="M 45.40625 46.390625 
L 45.40625 75.984375 
L 54.390625 75.984375 
L 54.390625 0 
L 45.40625 0 
L 45.40625 8.203125 
Q 42.578125 3.328125 38.25 0.953125 
Q 33.9375 -1.421875 27.875 -1.421875 
Q 17.96875 -1.421875 11.734375 6.484375 
Q 5.515625 14.40625 5.515625 27.296875 
Q 5.515625 40.1875 11.734375 48.09375 
Q 17.96875 56 27.875 56 
Q 33.9375 56 38.25 53.625 
Q 42.578125 51.265625 45.40625 46.390625 
z
M 14.796875 27.296875 
Q 14.796875 17.390625 18.875 11.75 
Q 22.953125 6.109375 30.078125 6.109375 
Q 37.203125 6.109375 41.296875 11.75 
Q 45.40625 17.390625 45.40625 27.296875 
Q 45.40625 37.203125 41.296875 42.84375 
Q 37.203125 48.484375 30.078125 48.484375 
Q 22.953125 48.484375 18.875 42.84375 
Q 14.796875 37.203125 14.796875 27.296875 
z
" id="DejaVuSans-100"/>
     </defs>
     <g transform="translate(598.846875 74.476562)scale(0.1 -0.1)">
      <use xlink:href="#DejaVuSans-118"/>
      <use x="59.179688" xlink:href="#DejaVuSans-97"/>
      <use x="120.458984" xlink:href="#DejaVuSans-108"/>
      <use x="148.242188" xlink:href="#DejaVuSans-105"/>
      <use x="176.025391" xlink:href="#DejaVuSans-100"/>
      <use x="239.501953" xlink:href="#DejaVuSans-97"/>
      <use x="300.78125" xlink:href="#DejaVuSans-116"/>
      <use x="339.990234" xlink:href="#DejaVuSans-101"/>
     </g>
    </g>
   </g>
  </g>
 </g>
 <defs>
  <clipPath id="p0c17c54c5f">
   <rect height="271.8" width="558" x="90" y="43.2"/>
  </clipPath>
 </defs>
</svg>
