<?xml version="1.0" encoding="utf-8" standalone="no"?>
<!DOCTYPE svg PUBLIC "-//W3C//DTD SVG 1.1//EN"
  "http://www.w3.org/Graphics/SVG/1.1/DTD/svg11.dtd">
<!-- Created with matplotlib (https://matplotlib.org/) -->
<svg height="360pt" version="1.1" viewBox="0 0 720 360" width="720pt" xmlns="http://www.w3.org/2000/svg" xmlns:xlink="http://www.w3.org/1999/xlink">
 <defs>
  <style type="text/css">
*{stroke-linecap:butt;stroke-linejoin:round;}
  </style>
 </defs>
 <g id="figure_1">
  <g id="patch_1">
   <path d="M 0 360 
L 720 360 
L 720 0 
L 0 0 
z
" style="fill:#ffffff;"/>
  </g>
  <g id="axes_1">
   <g id="patch_2">
    <path d="M 90 315 
L 648 315 
L 648 43.2 
L 90 43.2 
z
" style="fill:#ffffff;"/>
   </g>
   <g id="matplotlib.axis_1">
    <g id="xtick_1">
     <g id="line2d_1">
      <path clip-path="url(#p1d0cc2872e)" d="M 115.363636 315 
L 115.363636 43.2 
" style="fill:none;stroke:#b0b0b0;stroke-linecap:square;stroke-width:0.8;"/>
     </g>
     <g id="line2d_2">
      <defs>
       <path d="M 0 0 
L 0 3.5 
" id="m3d44eda1fe" style="stroke:#000000;stroke-width:0.8;"/>
      </defs>
      <g>
       <use style="stroke:#000000;stroke-width:0.8;" x="115.363636" xlink:href="#m3d44eda1fe" y="315"/>
      </g>
     </g>
     <g id="text_1">
      <!-- 0 -->
      <defs>
       <path d="M 31.78125 66.40625 
Q 24.171875 66.40625 20.328125 58.90625 
Q 16.5 51.421875 16.5 36.375 
Q 16.5 21.390625 20.328125 13.890625 
Q 24.171875 6.390625 31.78125 6.390625 
Q 39.453125 6.390625 43.28125 13.890625 
Q 47.125 21.390625 47.125 36.375 
Q 47.125 51.421875 43.28125 58.90625 
Q 39.453125 66.40625 31.78125 66.40625 
z
M 31.78125 74.21875 
Q 44.046875 74.21875 50.515625 64.515625 
Q 56.984375 54.828125 56.984375 36.375 
Q 56.984375 17.96875 50.515625 8.265625 
Q 44.046875 -1.421875 31.78125 -1.421875 
Q 19.53125 -1.421875 13.0625 8.265625 
Q 6.59375 17.96875 6.59375 36.375 
Q 6.59375 54.828125 13.0625 64.515625 
Q 19.53125 74.21875 31.78125 74.21875 
z
" id="DejaVuSans-48"/>
      </defs>
      <g transform="translate(112.182386 329.598437)scale(0.1 -0.1)">
       <use xlink:href="#DejaVuSans-48"/>
      </g>
     </g>
    </g>
    <g id="xtick_2">
     <g id="line2d_3">
      <path clip-path="url(#p1d0cc2872e)" d="M 187.727791 315 
L 187.727791 43.2 
" style="fill:none;stroke:#b0b0b0;stroke-linecap:square;stroke-width:0.8;"/>
     </g>
     <g id="line2d_4">
      <g>
       <use style="stroke:#000000;stroke-width:0.8;" x="187.727791" xlink:href="#m3d44eda1fe" y="315"/>
      </g>
     </g>
     <g id="text_2">
      <!-- 200 -->
      <defs>
       <path d="M 19.1875 8.296875 
L 53.609375 8.296875 
L 53.609375 0 
L 7.328125 0 
L 7.328125 8.296875 
Q 12.9375 14.109375 22.625 23.890625 
Q 32.328125 33.6875 34.8125 36.53125 
Q 39.546875 41.84375 41.421875 45.53125 
Q 43.3125 49.21875 43.3125 52.78125 
Q 43.3125 58.59375 39.234375 62.25 
Q 35.15625 65.921875 28.609375 65.921875 
Q 23.96875 65.921875 18.8125 64.3125 
Q 13.671875 62.703125 7.8125 59.421875 
L 7.8125 69.390625 
Q 13.765625 71.78125 18.9375 73 
Q 24.125 74.21875 28.421875 74.21875 
Q 39.75 74.21875 46.484375 68.546875 
Q 53.21875 62.890625 53.21875 53.421875 
Q 53.21875 48.921875 51.53125 44.890625 
Q 49.859375 40.875 45.40625 35.40625 
Q 44.1875 33.984375 37.640625 27.21875 
Q 31.109375 20.453125 19.1875 8.296875 
z
" id="DejaVuSans-50"/>
      </defs>
      <g transform="translate(178.184041 329.598437)scale(0.1 -0.1)">
       <use xlink:href="#DejaVuSans-50"/>
       <use x="63.623047" xlink:href="#DejaVuSans-48"/>
       <use x="127.246094" xlink:href="#DejaVuSans-48"/>
      </g>
     </g>
    </g>
    <g id="xtick_3">
     <g id="line2d_5">
      <path clip-path="url(#p1d0cc2872e)" d="M 260.091947 315 
L 260.091947 43.2 
" style="fill:none;stroke:#b0b0b0;stroke-linecap:square;stroke-width:0.8;"/>
     </g>
     <g id="line2d_6">
      <g>
       <use style="stroke:#000000;stroke-width:0.8;" x="260.091947" xlink:href="#m3d44eda1fe" y="315"/>
      </g>
     </g>
     <g id="text_3">
      <!-- 400 -->
      <defs>
       <path d="M 37.796875 64.3125 
L 12.890625 25.390625 
L 37.796875 25.390625 
z
M 35.203125 72.90625 
L 47.609375 72.90625 
L 47.609375 25.390625 
L 58.015625 25.390625 
L 58.015625 17.1875 
L 47.609375 17.1875 
L 47.609375 0 
L 37.796875 0 
L 37.796875 17.1875 
L 4.890625 17.1875 
L 4.890625 26.703125 
z
" id="DejaVuSans-52"/>
      </defs>
      <g transform="translate(250.548197 329.598437)scale(0.1 -0.1)">
       <use xlink:href="#DejaVuSans-52"/>
       <use x="63.623047" xlink:href="#DejaVuSans-48"/>
       <use x="127.246094" xlink:href="#DejaVuSans-48"/>
      </g>
     </g>
    </g>
    <g id="xtick_4">
     <g id="line2d_7">
      <path clip-path="url(#p1d0cc2872e)" d="M 332.456102 315 
L 332.456102 43.2 
" style="fill:none;stroke:#b0b0b0;stroke-linecap:square;stroke-width:0.8;"/>
     </g>
     <g id="line2d_8">
      <g>
       <use style="stroke:#000000;stroke-width:0.8;" x="332.456102" xlink:href="#m3d44eda1fe" y="315"/>
      </g>
     </g>
     <g id="text_4">
      <!-- 600 -->
      <defs>
       <path d="M 33.015625 40.375 
Q 26.375 40.375 22.484375 35.828125 
Q 18.609375 31.296875 18.609375 23.390625 
Q 18.609375 15.53125 22.484375 10.953125 
Q 26.375 6.390625 33.015625 6.390625 
Q 39.65625 6.390625 43.53125 10.953125 
Q 47.40625 15.53125 47.40625 23.390625 
Q 47.40625 31.296875 43.53125 35.828125 
Q 39.65625 40.375 33.015625 40.375 
z
M 52.59375 71.296875 
L 52.59375 62.3125 
Q 48.875 64.0625 45.09375 64.984375 
Q 41.3125 65.921875 37.59375 65.921875 
Q 27.828125 65.921875 22.671875 59.328125 
Q 17.53125 52.734375 16.796875 39.40625 
Q 19.671875 43.65625 24.015625 45.921875 
Q 28.375 48.1875 33.59375 48.1875 
Q 44.578125 48.1875 50.953125 41.515625 
Q 57.328125 34.859375 57.328125 23.390625 
Q 57.328125 12.15625 50.6875 5.359375 
Q 44.046875 -1.421875 33.015625 -1.421875 
Q 20.359375 -1.421875 13.671875 8.265625 
Q 6.984375 17.96875 6.984375 36.375 
Q 6.984375 53.65625 15.1875 63.9375 
Q 23.390625 74.21875 37.203125 74.21875 
Q 40.921875 74.21875 44.703125 73.484375 
Q 48.484375 72.75 52.59375 71.296875 
z
" id="DejaVuSans-54"/>
      </defs>
      <g transform="translate(322.912352 329.598437)scale(0.1 -0.1)">
       <use xlink:href="#DejaVuSans-54"/>
       <use x="63.623047" xlink:href="#DejaVuSans-48"/>
       <use x="127.246094" xlink:href="#DejaVuSans-48"/>
      </g>
     </g>
    </g>
    <g id="xtick_5">
     <g id="line2d_9">
      <path clip-path="url(#p1d0cc2872e)" d="M 404.820257 315 
L 404.820257 43.2 
" style="fill:none;stroke:#b0b0b0;stroke-linecap:square;stroke-width:0.8;"/>
     </g>
     <g id="line2d_10">
      <g>
       <use style="stroke:#000000;stroke-width:0.8;" x="404.820257" xlink:href="#m3d44eda1fe" y="315"/>
      </g>
     </g>
     <g id="text_5">
      <!-- 800 -->
      <defs>
       <path d="M 31.78125 34.625 
Q 24.75 34.625 20.71875 30.859375 
Q 16.703125 27.09375 16.703125 20.515625 
Q 16.703125 13.921875 20.71875 10.15625 
Q 24.75 6.390625 31.78125 6.390625 
Q 38.8125 6.390625 42.859375 10.171875 
Q 46.921875 13.96875 46.921875 20.515625 
Q 46.921875 27.09375 42.890625 30.859375 
Q 38.875 34.625 31.78125 34.625 
z
M 21.921875 38.8125 
Q 15.578125 40.375 12.03125 44.71875 
Q 8.5 49.078125 8.5 55.328125 
Q 8.5 64.0625 14.71875 69.140625 
Q 20.953125 74.21875 31.78125 74.21875 
Q 42.671875 74.21875 48.875 69.140625 
Q 55.078125 64.0625 55.078125 55.328125 
Q 55.078125 49.078125 51.53125 44.71875 
Q 48 40.375 41.703125 38.8125 
Q 48.828125 37.15625 52.796875 32.3125 
Q 56.78125 27.484375 56.78125 20.515625 
Q 56.78125 9.90625 50.3125 4.234375 
Q 43.84375 -1.421875 31.78125 -1.421875 
Q 19.734375 -1.421875 13.25 4.234375 
Q 6.78125 9.90625 6.78125 20.515625 
Q 6.78125 27.484375 10.78125 32.3125 
Q 14.796875 37.15625 21.921875 38.8125 
z
M 18.3125 54.390625 
Q 18.3125 48.734375 21.84375 45.5625 
Q 25.390625 42.390625 31.78125 42.390625 
Q 38.140625 42.390625 41.71875 45.5625 
Q 45.3125 48.734375 45.3125 54.390625 
Q 45.3125 60.0625 41.71875 63.234375 
Q 38.140625 66.40625 31.78125 66.40625 
Q 25.390625 66.40625 21.84375 63.234375 
Q 18.3125 60.0625 18.3125 54.390625 
z
" id="DejaVuSans-56"/>
      </defs>
      <g transform="translate(395.276507 329.598437)scale(0.1 -0.1)">
       <use xlink:href="#DejaVuSans-56"/>
       <use x="63.623047" xlink:href="#DejaVuSans-48"/>
       <use x="127.246094" xlink:href="#DejaVuSans-48"/>
      </g>
     </g>
    </g>
    <g id="xtick_6">
     <g id="line2d_11">
      <path clip-path="url(#p1d0cc2872e)" d="M 477.184412 315 
L 477.184412 43.2 
" style="fill:none;stroke:#b0b0b0;stroke-linecap:square;stroke-width:0.8;"/>
     </g>
     <g id="line2d_12">
      <g>
       <use style="stroke:#000000;stroke-width:0.8;" x="477.184412" xlink:href="#m3d44eda1fe" y="315"/>
      </g>
     </g>
     <g id="text_6">
      <!-- 1000 -->
      <defs>
       <path d="M 12.40625 8.296875 
L 28.515625 8.296875 
L 28.515625 63.921875 
L 10.984375 60.40625 
L 10.984375 69.390625 
L 28.421875 72.90625 
L 38.28125 72.90625 
L 38.28125 8.296875 
L 54.390625 8.296875 
L 54.390625 0 
L 12.40625 0 
z
" id="DejaVuSans-49"/>
      </defs>
      <g transform="translate(464.459412 329.598437)scale(0.1 -0.1)">
       <use xlink:href="#DejaVuSans-49"/>
       <use x="63.623047" xlink:href="#DejaVuSans-48"/>
       <use x="127.246094" xlink:href="#DejaVuSans-48"/>
       <use x="190.869141" xlink:href="#DejaVuSans-48"/>
      </g>
     </g>
    </g>
    <g id="xtick_7">
     <g id="line2d_13">
      <path clip-path="url(#p1d0cc2872e)" d="M 549.548567 315 
L 549.548567 43.2 
" style="fill:none;stroke:#b0b0b0;stroke-linecap:square;stroke-width:0.8;"/>
     </g>
     <g id="line2d_14">
      <g>
       <use style="stroke:#000000;stroke-width:0.8;" x="549.548567" xlink:href="#m3d44eda1fe" y="315"/>
      </g>
     </g>
     <g id="text_7">
      <!-- 1200 -->
      <g transform="translate(536.823567 329.598437)scale(0.1 -0.1)">
       <use xlink:href="#DejaVuSans-49"/>
       <use x="63.623047" xlink:href="#DejaVuSans-50"/>
       <use x="127.246094" xlink:href="#DejaVuSans-48"/>
       <use x="190.869141" xlink:href="#DejaVuSans-48"/>
      </g>
     </g>
    </g>
    <g id="xtick_8">
     <g id="line2d_15">
      <path clip-path="url(#p1d0cc2872e)" d="M 621.912722 315 
L 621.912722 43.2 
" style="fill:none;stroke:#b0b0b0;stroke-linecap:square;stroke-width:0.8;"/>
     </g>
     <g id="line2d_16">
      <g>
       <use style="stroke:#000000;stroke-width:0.8;" x="621.912722" xlink:href="#m3d44eda1fe" y="315"/>
      </g>
     </g>
     <g id="text_8">
      <!-- 1400 -->
      <g transform="translate(609.187722 329.598437)scale(0.1 -0.1)">
       <use xlink:href="#DejaVuSans-49"/>
       <use x="63.623047" xlink:href="#DejaVuSans-52"/>
       <use x="127.246094" xlink:href="#DejaVuSans-48"/>
       <use x="190.869141" xlink:href="#DejaVuSans-48"/>
      </g>
     </g>
    </g>
    <g id="text_9">
     <!-- epoch -->
     <defs>
      <path d="M 56.203125 29.59375 
L 56.203125 25.203125 
L 14.890625 25.203125 
Q 15.484375 15.921875 20.484375 11.0625 
Q 25.484375 6.203125 34.421875 6.203125 
Q 39.59375 6.203125 44.453125 7.46875 
Q 49.3125 8.734375 54.109375 11.28125 
L 54.109375 2.78125 
Q 49.265625 0.734375 44.1875 -0.34375 
Q 39.109375 -1.421875 33.890625 -1.421875 
Q 20.796875 -1.421875 13.15625 6.1875 
Q 5.515625 13.8125 5.515625 26.8125 
Q 5.515625 40.234375 12.765625 48.109375 
Q 20.015625 56 32.328125 56 
Q 43.359375 56 49.78125 48.890625 
Q 56.203125 41.796875 56.203125 29.59375 
z
M 47.21875 32.234375 
Q 47.125 39.59375 43.09375 43.984375 
Q 39.0625 48.390625 32.421875 48.390625 
Q 24.90625 48.390625 20.390625 44.140625 
Q 15.875 39.890625 15.1875 32.171875 
z
" id="DejaVuSans-101"/>
      <path d="M 18.109375 8.203125 
L 18.109375 -20.796875 
L 9.078125 -20.796875 
L 9.078125 54.6875 
L 18.109375 54.6875 
L 18.109375 46.390625 
Q 20.953125 51.265625 25.265625 53.625 
Q 29.59375 56 35.59375 56 
Q 45.5625 56 51.78125 48.09375 
Q 58.015625 40.1875 58.015625 27.296875 
Q 58.015625 14.40625 51.78125 6.484375 
Q 45.5625 -1.421875 35.59375 -1.421875 
Q 29.59375 -1.421875 25.265625 0.953125 
Q 20.953125 3.328125 18.109375 8.203125 
z
M 48.6875 27.296875 
Q 48.6875 37.203125 44.609375 42.84375 
Q 40.53125 48.484375 33.40625 48.484375 
Q 26.265625 48.484375 22.1875 42.84375 
Q 18.109375 37.203125 18.109375 27.296875 
Q 18.109375 17.390625 22.1875 11.75 
Q 26.265625 6.109375 33.40625 6.109375 
Q 40.53125 6.109375 44.609375 11.75 
Q 48.6875 17.390625 48.6875 27.296875 
z
" id="DejaVuSans-112"/>
      <path d="M 30.609375 48.390625 
Q 23.390625 48.390625 19.1875 42.75 
Q 14.984375 37.109375 14.984375 27.296875 
Q 14.984375 17.484375 19.15625 11.84375 
Q 23.34375 6.203125 30.609375 6.203125 
Q 37.796875 6.203125 41.984375 11.859375 
Q 46.1875 17.53125 46.1875 27.296875 
Q 46.1875 37.015625 41.984375 42.703125 
Q 37.796875 48.390625 30.609375 48.390625 
z
M 30.609375 56 
Q 42.328125 56 49.015625 48.375 
Q 55.71875 40.765625 55.71875 27.296875 
Q 55.71875 13.875 49.015625 6.21875 
Q 42.328125 -1.421875 30.609375 -1.421875 
Q 18.84375 -1.421875 12.171875 6.21875 
Q 5.515625 13.875 5.515625 27.296875 
Q 5.515625 40.765625 12.171875 48.375 
Q 18.84375 56 30.609375 56 
z
" id="DejaVuSans-111"/>
      <path d="M 48.78125 52.59375 
L 48.78125 44.1875 
Q 44.96875 46.296875 41.140625 47.34375 
Q 37.3125 48.390625 33.40625 48.390625 
Q 24.65625 48.390625 19.8125 42.84375 
Q 14.984375 37.3125 14.984375 27.296875 
Q 14.984375 17.28125 19.8125 11.734375 
Q 24.65625 6.203125 33.40625 6.203125 
Q 37.3125 6.203125 41.140625 7.25 
Q 44.96875 8.296875 48.78125 10.40625 
L 48.78125 2.09375 
Q 45.015625 0.34375 40.984375 -0.53125 
Q 36.96875 -1.421875 32.421875 -1.421875 
Q 20.0625 -1.421875 12.78125 6.34375 
Q 5.515625 14.109375 5.515625 27.296875 
Q 5.515625 40.671875 12.859375 48.328125 
Q 20.21875 56 33.015625 56 
Q 37.15625 56 41.109375 55.140625 
Q 45.0625 54.296875 48.78125 52.59375 
z
" id="DejaVuSans-99"/>
      <path d="M 54.890625 33.015625 
L 54.890625 0 
L 45.90625 0 
L 45.90625 32.71875 
Q 45.90625 40.484375 42.875 44.328125 
Q 39.84375 48.1875 33.796875 48.1875 
Q 26.515625 48.1875 22.3125 43.546875 
Q 18.109375 38.921875 18.109375 30.90625 
L 18.109375 0 
L 9.078125 0 
L 9.078125 75.984375 
L 18.109375 75.984375 
L 18.109375 46.1875 
Q 21.34375 51.125 25.703125 53.5625 
Q 30.078125 56 35.796875 56 
Q 45.21875 56 50.046875 50.171875 
Q 54.890625 44.34375 54.890625 33.015625 
z
" id="DejaVuSans-104"/>
     </defs>
     <g transform="translate(353.771875 343.276563)scale(0.1 -0.1)">
      <use xlink:href="#DejaVuSans-101"/>
      <use x="61.523438" xlink:href="#DejaVuSans-112"/>
      <use x="125" xlink:href="#DejaVuSans-111"/>
      <use x="186.181641" xlink:href="#DejaVuSans-99"/>
      <use x="241.162109" xlink:href="#DejaVuSans-104"/>
     </g>
    </g>
   </g>
   <g id="matplotlib.axis_2">
    <g id="ytick_1">
     <g id="line2d_17">
      <path clip-path="url(#p1d0cc2872e)" d="M 90 282.592448 
L 648 282.592448 
" style="fill:none;stroke:#b0b0b0;stroke-linecap:square;stroke-width:0.8;"/>
     </g>
     <g id="line2d_18">
      <defs>
       <path d="M 0 0 
L -3.5 0 
" id="m507fd6caaa" style="stroke:#000000;stroke-width:0.8;"/>
      </defs>
      <g>
       <use style="stroke:#000000;stroke-width:0.8;" x="90" xlink:href="#m507fd6caaa" y="282.592448"/>
      </g>
     </g>
     <g id="text_10">
      <!-- 0.3 -->
      <defs>
       <path d="M 10.6875 12.40625 
L 21 12.40625 
L 21 0 
L 10.6875 0 
z
" id="DejaVuSans-46"/>
       <path d="M 40.578125 39.3125 
Q 47.65625 37.796875 51.625 33 
Q 55.609375 28.21875 55.609375 21.1875 
Q 55.609375 10.40625 48.1875 4.484375 
Q 40.765625 -1.421875 27.09375 -1.421875 
Q 22.515625 -1.421875 17.65625 -0.515625 
Q 12.796875 0.390625 7.625 2.203125 
L 7.625 11.71875 
Q 11.71875 9.328125 16.59375 8.109375 
Q 21.484375 6.890625 26.8125 6.890625 
Q 36.078125 6.890625 40.9375 10.546875 
Q 45.796875 14.203125 45.796875 21.1875 
Q 45.796875 27.640625 41.28125 31.265625 
Q 36.765625 34.90625 28.71875 34.90625 
L 20.21875 34.90625 
L 20.21875 43.015625 
L 29.109375 43.015625 
Q 36.375 43.015625 40.234375 45.921875 
Q 44.09375 48.828125 44.09375 54.296875 
Q 44.09375 59.90625 40.109375 62.90625 
Q 36.140625 65.921875 28.71875 65.921875 
Q 24.65625 65.921875 20.015625 65.03125 
Q 15.375 64.15625 9.8125 62.3125 
L 9.8125 71.09375 
Q 15.4375 72.65625 20.34375 73.4375 
Q 25.25 74.21875 29.59375 74.21875 
Q 40.828125 74.21875 47.359375 69.109375 
Q 53.90625 64.015625 53.90625 55.328125 
Q 53.90625 49.265625 50.4375 45.09375 
Q 46.96875 40.921875 40.578125 39.3125 
z
" id="DejaVuSans-51"/>
      </defs>
      <g transform="translate(67.096875 286.391667)scale(0.1 -0.1)">
       <use xlink:href="#DejaVuSans-48"/>
       <use x="63.623047" xlink:href="#DejaVuSans-46"/>
       <use x="95.410156" xlink:href="#DejaVuSans-51"/>
      </g>
     </g>
    </g>
    <g id="ytick_2">
     <g id="line2d_19">
      <path clip-path="url(#p1d0cc2872e)" d="M 90 248.166686 
L 648 248.166686 
" style="fill:none;stroke:#b0b0b0;stroke-linecap:square;stroke-width:0.8;"/>
     </g>
     <g id="line2d_20">
      <g>
       <use style="stroke:#000000;stroke-width:0.8;" x="90" xlink:href="#m507fd6caaa" y="248.166686"/>
      </g>
     </g>
     <g id="text_11">
      <!-- 0.4 -->
      <g transform="translate(67.096875 251.965904)scale(0.1 -0.1)">
       <use xlink:href="#DejaVuSans-48"/>
       <use x="63.623047" xlink:href="#DejaVuSans-46"/>
       <use x="95.410156" xlink:href="#DejaVuSans-52"/>
      </g>
     </g>
    </g>
    <g id="ytick_3">
     <g id="line2d_21">
      <path clip-path="url(#p1d0cc2872e)" d="M 90 213.740923 
L 648 213.740923 
" style="fill:none;stroke:#b0b0b0;stroke-linecap:square;stroke-width:0.8;"/>
     </g>
     <g id="line2d_22">
      <g>
       <use style="stroke:#000000;stroke-width:0.8;" x="90" xlink:href="#m507fd6caaa" y="213.740923"/>
      </g>
     </g>
     <g id="text_12">
      <!-- 0.5 -->
      <defs>
       <path d="M 10.796875 72.90625 
L 49.515625 72.90625 
L 49.515625 64.59375 
L 19.828125 64.59375 
L 19.828125 46.734375 
Q 21.96875 47.46875 24.109375 47.828125 
Q 26.265625 48.1875 28.421875 48.1875 
Q 40.625 48.1875 47.75 41.5 
Q 54.890625 34.8125 54.890625 23.390625 
Q 54.890625 11.625 47.5625 5.09375 
Q 40.234375 -1.421875 26.90625 -1.421875 
Q 22.3125 -1.421875 17.546875 -0.640625 
Q 12.796875 0.140625 7.71875 1.703125 
L 7.71875 11.625 
Q 12.109375 9.234375 16.796875 8.0625 
Q 21.484375 6.890625 26.703125 6.890625 
Q 35.15625 6.890625 40.078125 11.328125 
Q 45.015625 15.765625 45.015625 23.390625 
Q 45.015625 31 40.078125 35.4375 
Q 35.15625 39.890625 26.703125 39.890625 
Q 22.75 39.890625 18.8125 39.015625 
Q 14.890625 38.140625 10.796875 36.28125 
z
" id="DejaVuSans-53"/>
      </defs>
      <g transform="translate(67.096875 217.540142)scale(0.1 -0.1)">
       <use xlink:href="#DejaVuSans-48"/>
       <use x="63.623047" xlink:href="#DejaVuSans-46"/>
       <use x="95.410156" xlink:href="#DejaVuSans-53"/>
      </g>
     </g>
    </g>
    <g id="ytick_4">
     <g id="line2d_23">
      <path clip-path="url(#p1d0cc2872e)" d="M 90 179.315161 
L 648 179.315161 
" style="fill:none;stroke:#b0b0b0;stroke-linecap:square;stroke-width:0.8;"/>
     </g>
     <g id="line2d_24">
      <g>
       <use style="stroke:#000000;stroke-width:0.8;" x="90" xlink:href="#m507fd6caaa" y="179.315161"/>
      </g>
     </g>
     <g id="text_13">
      <!-- 0.6 -->
      <g transform="translate(67.096875 183.11438)scale(0.1 -0.1)">
       <use xlink:href="#DejaVuSans-48"/>
       <use x="63.623047" xlink:href="#DejaVuSans-46"/>
       <use x="95.410156" xlink:href="#DejaVuSans-54"/>
      </g>
     </g>
    </g>
    <g id="ytick_5">
     <g id="line2d_25">
      <path clip-path="url(#p1d0cc2872e)" d="M 90 144.889399 
L 648 144.889399 
" style="fill:none;stroke:#b0b0b0;stroke-linecap:square;stroke-width:0.8;"/>
     </g>
     <g id="line2d_26">
      <g>
       <use style="stroke:#000000;stroke-width:0.8;" x="90" xlink:href="#m507fd6caaa" y="144.889399"/>
      </g>
     </g>
     <g id="text_14">
      <!-- 0.7 -->
      <defs>
       <path d="M 8.203125 72.90625 
L 55.078125 72.90625 
L 55.078125 68.703125 
L 28.609375 0 
L 18.3125 0 
L 43.21875 64.59375 
L 8.203125 64.59375 
z
" id="DejaVuSans-55"/>
      </defs>
      <g transform="translate(67.096875 148.688617)scale(0.1 -0.1)">
       <use xlink:href="#DejaVuSans-48"/>
       <use x="63.623047" xlink:href="#DejaVuSans-46"/>
       <use x="95.410156" xlink:href="#DejaVuSans-55"/>
      </g>
     </g>
    </g>
    <g id="ytick_6">
     <g id="line2d_27">
      <path clip-path="url(#p1d0cc2872e)" d="M 90 110.463636 
L 648 110.463636 
" style="fill:none;stroke:#b0b0b0;stroke-linecap:square;stroke-width:0.8;"/>
     </g>
     <g id="line2d_28">
      <g>
       <use style="stroke:#000000;stroke-width:0.8;" x="90" xlink:href="#m507fd6caaa" y="110.463636"/>
      </g>
     </g>
     <g id="text_15">
      <!-- 0.8 -->
      <g transform="translate(67.096875 114.262855)scale(0.1 -0.1)">
       <use xlink:href="#DejaVuSans-48"/>
       <use x="63.623047" xlink:href="#DejaVuSans-46"/>
       <use x="95.410156" xlink:href="#DejaVuSans-56"/>
      </g>
     </g>
    </g>
    <g id="ytick_7">
     <g id="line2d_29">
      <path clip-path="url(#p1d0cc2872e)" d="M 90 76.037874 
L 648 76.037874 
" style="fill:none;stroke:#b0b0b0;stroke-linecap:square;stroke-width:0.8;"/>
     </g>
     <g id="line2d_30">
      <g>
       <use style="stroke:#000000;stroke-width:0.8;" x="90" xlink:href="#m507fd6caaa" y="76.037874"/>
      </g>
     </g>
     <g id="text_16">
      <!-- 0.9 -->
      <defs>
       <path d="M 10.984375 1.515625 
L 10.984375 10.5 
Q 14.703125 8.734375 18.5 7.8125 
Q 22.3125 6.890625 25.984375 6.890625 
Q 35.75 6.890625 40.890625 13.453125 
Q 46.046875 20.015625 46.78125 33.40625 
Q 43.953125 29.203125 39.59375 26.953125 
Q 35.25 24.703125 29.984375 24.703125 
Q 19.046875 24.703125 12.671875 31.3125 
Q 6.296875 37.9375 6.296875 49.421875 
Q 6.296875 60.640625 12.9375 67.421875 
Q 19.578125 74.21875 30.609375 74.21875 
Q 43.265625 74.21875 49.921875 64.515625 
Q 56.59375 54.828125 56.59375 36.375 
Q 56.59375 19.140625 48.40625 8.859375 
Q 40.234375 -1.421875 26.421875 -1.421875 
Q 22.703125 -1.421875 18.890625 -0.6875 
Q 15.09375 0.046875 10.984375 1.515625 
z
M 30.609375 32.421875 
Q 37.25 32.421875 41.125 36.953125 
Q 45.015625 41.5 45.015625 49.421875 
Q 45.015625 57.28125 41.125 61.84375 
Q 37.25 66.40625 30.609375 66.40625 
Q 23.96875 66.40625 20.09375 61.84375 
Q 16.21875 57.28125 16.21875 49.421875 
Q 16.21875 41.5 20.09375 36.953125 
Q 23.96875 32.421875 30.609375 32.421875 
z
" id="DejaVuSans-57"/>
      </defs>
      <g transform="translate(67.096875 79.837093)scale(0.1 -0.1)">
       <use xlink:href="#DejaVuSans-48"/>
       <use x="63.623047" xlink:href="#DejaVuSans-46"/>
       <use x="95.410156" xlink:href="#DejaVuSans-57"/>
      </g>
     </g>
    </g>
    <g id="text_17">
     <!-- accuracy -->
     <defs>
      <path d="M 34.28125 27.484375 
Q 23.390625 27.484375 19.1875 25 
Q 14.984375 22.515625 14.984375 16.5 
Q 14.984375 11.71875 18.140625 8.90625 
Q 21.296875 6.109375 26.703125 6.109375 
Q 34.1875 6.109375 38.703125 11.40625 
Q 43.21875 16.703125 43.21875 25.484375 
L 43.21875 27.484375 
z
M 52.203125 31.203125 
L 52.203125 0 
L 43.21875 0 
L 43.21875 8.296875 
Q 40.140625 3.328125 35.546875 0.953125 
Q 30.953125 -1.421875 24.3125 -1.421875 
Q 15.921875 -1.421875 10.953125 3.296875 
Q 6 8.015625 6 15.921875 
Q 6 25.140625 12.171875 29.828125 
Q 18.359375 34.515625 30.609375 34.515625 
L 43.21875 34.515625 
L 43.21875 35.40625 
Q 43.21875 41.609375 39.140625 45 
Q 35.0625 48.390625 27.6875 48.390625 
Q 23 48.390625 18.546875 47.265625 
Q 14.109375 46.140625 10.015625 43.890625 
L 10.015625 52.203125 
Q 14.9375 54.109375 19.578125 55.046875 
Q 24.21875 56 28.609375 56 
Q 40.484375 56 46.34375 49.84375 
Q 52.203125 43.703125 52.203125 31.203125 
z
" id="DejaVuSans-97"/>
      <path d="M 8.5 21.578125 
L 8.5 54.6875 
L 17.484375 54.6875 
L 17.484375 21.921875 
Q 17.484375 14.15625 20.5 10.265625 
Q 23.53125 6.390625 29.59375 6.390625 
Q 36.859375 6.390625 41.078125 11.03125 
Q 45.3125 15.671875 45.3125 23.6875 
L 45.3125 54.6875 
L 54.296875 54.6875 
L 54.296875 0 
L 45.3125 0 
L 45.3125 8.40625 
Q 42.046875 3.421875 37.71875 1 
Q 33.40625 -1.421875 27.6875 -1.421875 
Q 18.265625 -1.421875 13.375 4.4375 
Q 8.5 10.296875 8.5 21.578125 
z
M 31.109375 56 
z
" id="DejaVuSans-117"/>
      <path d="M 41.109375 46.296875 
Q 39.59375 47.171875 37.8125 47.578125 
Q 36.03125 48 33.890625 48 
Q 26.265625 48 22.1875 43.046875 
Q 18.109375 38.09375 18.109375 28.8125 
L 18.109375 0 
L 9.078125 0 
L 9.078125 54.6875 
L 18.109375 54.6875 
L 18.109375 46.1875 
Q 20.953125 51.171875 25.484375 53.578125 
Q 30.03125 56 36.53125 56 
Q 37.453125 56 38.578125 55.875 
Q 39.703125 55.765625 41.0625 55.515625 
z
" id="DejaVuSans-114"/>
      <path d="M 32.171875 -5.078125 
Q 28.375 -14.84375 24.75 -17.8125 
Q 21.140625 -20.796875 15.09375 -20.796875 
L 7.90625 -20.796875 
L 7.90625 -13.28125 
L 13.1875 -13.28125 
Q 16.890625 -13.28125 18.9375 -11.515625 
Q 21 -9.765625 23.484375 -3.21875 
L 25.09375 0.875 
L 2.984375 54.6875 
L 12.5 54.6875 
L 29.59375 11.921875 
L 46.6875 54.6875 
L 56.203125 54.6875 
z
" id="DejaVuSans-121"/>
     </defs>
     <g transform="translate(61.017187 201.659375)rotate(-90)scale(0.1 -0.1)">
      <use xlink:href="#DejaVuSans-97"/>
      <use x="61.279297" xlink:href="#DejaVuSans-99"/>
      <use x="116.259766" xlink:href="#DejaVuSans-99"/>
      <use x="171.240234" xlink:href="#DejaVuSans-117"/>
      <use x="234.619141" xlink:href="#DejaVuSans-114"/>
      <use x="275.732422" xlink:href="#DejaVuSans-97"/>
      <use x="337.011719" xlink:href="#DejaVuSans-99"/>
      <use x="391.992188" xlink:href="#DejaVuSans-121"/>
     </g>
    </g>
   </g>
   <g id="line2d_31">
    <path clip-path="url(#p1d0cc2872e)" d="M 115.363636 298.772556 
L 115.725457 296.879139 
L 116.449099 301.354488 
L 116.810919 301.354488 
L 117.17274 300.579909 
L 117.534561 295.071787 
L 117.896382 295.071787 
L 118.258203 296.276689 
L 118.620023 294.211143 
L 118.981844 295.502109 
L 119.343665 294.813594 
L 119.705486 293.780821 
L 120.067306 297.137333 
L 120.429127 290.25218 
L 120.790948 299.375007 
L 121.152769 290.854631 
L 121.51459 291.112824 
L 121.87641 289.047278 
L 122.238231 285.862895 
L 122.600052 285.346509 
L 122.961873 289.219407 
L 123.323693 276.826133 
L 123.685514 277.686777 
L 124.047335 277.858906 
L 124.409156 275.190909 
L 124.770977 275.449102 
L 125.132797 273.64175 
L 125.494618 267.875435 
L 125.856439 267.272984 
L 126.21826 268.822143 
L 126.58008 264.604987 
L 126.941901 258.494414 
L 127.303722 256.859191 
L 127.665543 260.55996 
L 128.027364 247.219977 
L 128.389184 244.379852 
L 128.751005 238.527472 
L 129.112826 242.486435 
L 129.836467 229.576774 
L 130.198288 232.502964 
L 130.560109 226.56452 
L 130.92193 225.962069 
L 131.28375 230.179225 
L 131.645571 220.453947 
L 132.007392 220.281818 
L 132.369213 220.884269 
L 132.731034 214.687632 
L 133.092854 215.376147 
L 133.454675 210.642605 
L 133.816496 210.55654 
L 134.178317 210.298347 
L 134.540137 204.790225 
L 134.901958 206.511513 
L 135.263779 204.273839 
L 135.6256 198.24933 
L 135.987421 199.368168 
L 136.349241 195.237076 
L 136.711062 187.921602 
L 137.072883 189.64289 
L 137.434704 188.610117 
L 137.796524 184.048703 
L 138.158345 182.843802 
L 138.881987 172.774266 
L 139.243808 177.33568 
L 139.605628 171.827558 
L 139.967449 169.245626 
L 140.32927 169.934141 
L 140.691091 168.643175 
L 141.052911 164.942405 
L 141.414732 156.2499 
L 141.776553 161.069507 
L 142.138374 160.639185 
L 142.500195 155.475321 
L 142.862015 153.840097 
L 143.585657 149.364748 
L 143.947478 144.975463 
L 144.309298 147.557395 
L 144.671119 147.127073 
L 145.03294 142.135338 
L 145.394761 141.705016 
L 145.756582 146.524622 
L 146.118402 138.606697 
L 146.480223 141.705016 
L 146.842044 136.71328 
L 147.203865 133.701026 
L 147.565685 137.229667 
L 147.927506 131.893673 
L 148.289327 134.303477 
L 149.374789 129.053548 
L 149.73661 130.430579 
L 150.098431 130.172385 
L 150.460252 125.352779 
L 150.822072 125.352779 
L 151.183893 122.168396 
L 151.545714 127.676518 
L 151.907535 126.299487 
L 152.269355 122.082331 
L 152.631176 122.426589 
L 152.992997 122.512653 
L 153.354818 120.188914 
L 153.716639 119.156141 
L 154.078459 121.910202 
L 154.44028 121.135623 
L 154.802101 117.865175 
L 155.163922 118.811884 
L 155.525742 118.811884 
L 155.887563 114.594728 
L 156.249384 118.381562 
L 156.611205 118.811884 
L 156.973026 114.766857 
L 157.334846 113.131633 
L 157.696667 112.09886 
L 158.058488 110.377572 
L 158.420309 117.17666 
L 158.782129 108.570219 
L 159.14395 108.053833 
L 159.505771 108.398091 
L 159.867592 107.881704 
L 160.229413 110.033314 
L 160.591233 106.160416 
L 160.953054 107.451382 
L 161.314875 106.160416 
L 161.676696 105.64403 
L 162.038516 108.225962 
L 162.400337 105.816158 
L 162.762158 104.783386 
L 163.123979 105.385836 
L 163.4858 102.459647 
L 163.84762 103.492419 
L 164.209441 101.512938 
L 164.571262 100.738359 
L 164.933083 102.115389 
L 165.294903 101.426874 
L 165.656724 97.812169 
L 166.018545 99.103135 
L 166.380366 99.275264 
L 166.742186 97.726104 
L 167.104007 99.103135 
L 167.465828 98.931006 
L 167.827649 97.64004 
L 168.18947 96.779396 
L 168.55129 97.898233 
L 168.913111 97.726104 
L 169.636753 95.832687 
L 169.998573 97.984298 
L 170.360394 96.951525 
L 170.722215 94.627786 
L 171.084036 96.004816 
L 171.445857 92.217982 
L 171.807677 94.111399 
L 172.531319 94.369592 
L 172.89314 91.78766 
L 173.25496 90.582759 
L 173.616781 90.324565 
L 173.978602 96.521203 
L 174.340423 92.992562 
L 174.702244 92.045854 
L 175.064064 90.754887 
L 175.425885 92.304047 
L 175.787706 91.443403 
L 176.149527 89.980308 
L 176.511347 89.722115 
L 176.873168 88.517213 
L 177.234989 91.013081 
L 177.59681 89.722115 
L 177.958631 88.947535 
L 178.320451 90.840952 
L 178.682272 91.271274 
L 179.044093 90.238501 
L 179.405914 90.668823 
L 179.767734 90.066372 
L 180.129555 87.742633 
L 180.491376 88.086891 
L 180.853197 88.000826 
L 181.215018 86.881989 
L 181.576838 88.431148 
L 181.938659 87.140182 
L 182.30048 88.775406 
L 182.662301 85.935281 
L 183.024121 89.980308 
L 183.385942 87.140182 
L 183.747763 85.935281 
L 184.471404 86.70986 
L 184.833225 83.869735 
L 185.195046 85.504959 
L 185.556867 86.537732 
L 185.918688 84.041864 
L 186.280508 86.10741 
L 187.00415 84.300057 
L 187.365971 85.677087 
L 187.727791 83.955799 
L 188.089612 85.849216 
L 188.451433 83.525477 
L 188.813254 82.750898 
L 189.175075 84.55825 
L 189.536895 85.418894 
L 190.260537 81.02961 
L 190.622358 82.750898 
L 190.984178 85.763152 
L 191.345999 82.234511 
L 191.70782 84.730379 
L 192.069641 83.267284 
L 192.431462 85.160701 
L 192.793282 81.459932 
L 193.155103 81.545996 
L 193.516924 83.267284 
L 193.878745 83.439413 
L 194.240565 81.459932 
L 194.602386 81.804189 
L 194.964207 79.910772 
L 195.326028 80.082901 
L 195.687849 82.320576 
L 196.049669 83.697606 
L 196.41149 80.341094 
L 196.773311 83.009091 
L 197.135132 83.18122 
L 197.496952 82.836962 
L 197.858773 83.439413 
L 198.220594 78.619806 
L 198.582415 80.513223 
L 198.944236 78.964064 
L 199.306056 81.373867 
L 199.667877 77.759162 
L 200.391519 80.685352 
L 200.753339 77.931291 
L 201.11516 80.599288 
L 201.476981 79.738643 
L 201.838802 79.308321 
L 202.200622 80.513223 
L 202.562443 80.427159 
L 202.924264 77.156711 
L 203.647906 82.234511 
L 204.009726 82.148447 
L 204.371547 80.168966 
L 204.733368 80.082901 
L 205.095189 77.759162 
L 205.457009 78.275549 
L 205.81883 78.361613 
L 206.180651 78.10342 
L 206.542472 79.48045 
L 206.904293 75.607552 
L 207.266113 78.10342 
L 207.627934 78.791935 
L 207.989755 78.705871 
L 208.351576 76.984583 
L 208.713396 78.447677 
L 209.075217 80.513223 
L 209.437038 75.95181 
L 209.798859 77.673098 
L 210.16068 80.341094 
L 210.5225 77.32884 
L 210.884321 77.414905 
L 211.246142 77.32884 
L 211.607963 79.136193 
L 211.969783 78.017355 
L 212.331604 76.296067 
L 212.693425 78.447677 
L 213.055246 78.705871 
L 213.417067 78.619806 
L 213.778887 78.361613 
L 214.140708 78.877999 
L 214.502529 75.349359 
L 214.86435 75.005101 
L 215.22617 74.832972 
L 215.587991 77.759162 
L 215.949812 75.607552 
L 216.311633 74.919037 
L 216.673454 77.673098 
L 217.035274 74.832972 
L 217.397095 76.812454 
L 217.758916 75.349359 
L 218.120737 75.521488 
L 218.482557 76.726389 
L 218.844378 77.414905 
L 219.206199 75.091166 
L 219.56802 74.058393 
L 219.92984 75.521488 
L 220.291661 75.435423 
L 220.653482 75.693616 
L 221.015303 75.435423 
L 221.377124 74.660844 
L 221.738944 77.32884 
L 222.100765 75.17723 
L 222.462586 75.779681 
L 222.824407 73.972328 
L 223.186227 78.189484 
L 223.548048 77.500969 
L 224.27169 74.488715 
L 224.633511 77.242776 
L 224.995331 72.939555 
L 225.357152 74.574779 
L 225.718973 74.488715 
L 226.080794 75.17723 
L 226.442614 73.283813 
L 226.804435 74.488715 
L 227.166256 78.361613 
L 227.528077 76.468196 
L 227.889898 72.509233 
L 228.251718 75.263294 
L 228.613539 73.972328 
L 228.97536 73.542006 
L 229.337181 75.17723 
L 230.060822 71.648589 
L 230.422643 74.574779 
L 230.784464 74.058393 
L 231.146285 73.197749 
L 231.508105 73.02562 
L 231.869926 73.542006 
L 232.231747 72.939555 
L 232.593568 74.488715 
L 232.955388 74.919037 
L 233.317209 73.542006 
L 233.67903 73.800199 
L 234.040851 74.40265 
L 234.402672 75.349359 
L 234.764492 73.283813 
L 235.126313 74.660844 
L 235.488134 74.144457 
L 235.849955 70.443688 
L 236.573596 74.919037 
L 236.935417 75.779681 
L 237.297238 73.628071 
L 237.659058 73.283813 
L 238.020879 73.111684 
L 238.3827 74.316586 
L 238.744521 73.283813 
L 239.106342 71.390396 
L 239.468162 74.316586 
L 239.829983 75.005101 
L 240.191804 71.820718 
L 240.553625 71.390396 
L 240.915445 73.111684 
L 241.277266 72.078911 
L 241.639087 71.992847 
L 242.000908 73.455942 
L 242.362729 72.939555 
L 242.724549 71.734654 
L 243.08637 71.476461 
L 243.448191 68.980593 
L 243.810012 71.562525 
L 244.171832 71.476461 
L 244.533653 70.443688 
L 244.895474 72.078911 
L 245.257295 71.734654 
L 245.619116 70.87401 
L 245.980936 71.820718 
L 246.342757 70.787945 
L 246.704578 72.681362 
L 247.066399 72.164976 
L 247.428219 70.615816 
L 247.79004 72.423169 
L 248.151861 68.206013 
L 248.513682 70.960074 
L 248.875503 70.443688 
L 249.237323 71.562525 
L 249.960965 70.013366 
L 250.684606 72.164976 
L 251.046427 71.906783 
L 251.408248 72.25104 
L 251.770069 71.734654 
L 252.13189 69.496979 
L 252.855531 71.906783 
L 253.217352 70.529752 
L 253.579173 73.886264 
L 254.302814 69.669108 
L 254.664635 71.992847 
L 255.026456 69.669108 
L 255.388276 73.111684 
L 256.111918 70.443688 
L 256.83556 73.628071 
L 257.19738 70.09943 
L 257.559201 71.906783 
L 257.921022 71.046139 
L 258.282843 69.238786 
L 258.644663 71.906783 
L 259.006484 72.595298 
L 259.368305 71.132203 
L 259.730126 68.550271 
L 260.091947 70.701881 
L 260.453767 71.992847 
L 260.815588 71.648589 
L 261.177409 68.808464 
L 261.53923 70.185494 
L 261.90105 70.615816 
L 262.262871 69.841237 
L 262.624692 70.615816 
L 263.348334 68.894528 
L 263.710154 70.787945 
L 264.071975 69.066657 
L 264.433796 69.927301 
L 264.795617 69.841237 
L 265.157437 69.238786 
L 265.519258 70.443688 
L 265.881079 68.378142 
L 266.2429 72.681362 
L 266.604721 68.7224 
L 266.966541 69.410915 
L 267.328362 68.206013 
L 267.690183 70.529752 
L 268.052004 68.378142 
L 268.413824 67.431433 
L 268.775645 68.119949 
L 269.137466 67.259305 
L 269.499287 68.033884 
L 269.861108 70.529752 
L 270.222928 70.271559 
L 270.584749 69.669108 
L 271.308391 69.755172 
L 271.670211 70.615816 
L 272.032032 69.410915 
L 272.393853 70.013366 
L 272.755674 69.841237 
L 273.117494 67.94782 
L 273.479315 68.636335 
L 273.841136 69.066657 
L 274.202957 70.701881 
L 274.926598 69.410915 
L 275.288419 70.87401 
L 275.65024 68.378142 
L 276.012061 68.292078 
L 276.373881 69.755172 
L 276.735702 69.841237 
L 277.097523 68.980593 
L 277.459344 69.583044 
L 277.821165 69.152722 
L 278.182985 67.431433 
L 278.544806 67.861755 
L 279.268448 69.32485 
L 279.630268 67.259305 
L 279.992089 68.894528 
L 280.35391 68.292078 
L 280.715731 67.259305 
L 281.077552 68.636335 
L 281.439372 68.292078 
L 281.801193 67.259305 
L 282.163014 68.7224 
L 282.524835 68.894528 
L 282.886655 67.861755 
L 283.248476 71.218267 
L 283.610297 66.226532 
L 283.972118 69.583044 
L 284.333939 68.033884 
L 284.695759 68.894528 
L 285.419401 68.550271 
L 285.781222 68.636335 
L 286.143042 69.755172 
L 286.504863 67.861755 
L 286.866684 67.94782 
L 287.228505 67.861755 
L 287.590326 66.828983 
L 287.952146 68.464206 
L 288.313967 64.935566 
L 288.675788 67.345369 
L 289.037609 66.226532 
L 289.399429 67.603562 
L 289.76125 68.464206 
L 290.123071 70.960074 
L 290.484892 67.345369 
L 290.846712 68.636335 
L 291.208533 68.464206 
L 291.570354 69.066657 
L 291.932175 65.882274 
L 292.293996 66.828983 
L 292.655816 67.345369 
L 293.017637 66.570789 
L 293.379458 69.066657 
L 293.741279 67.94782 
L 294.103099 69.496979 
L 294.46492 68.7224 
L 294.826741 65.279823 
L 295.188562 66.054403 
L 295.550383 67.345369 
L 295.912203 67.259305 
L 296.274024 68.119949 
L 296.635845 68.636335 
L 296.997666 66.398661 
L 297.359486 68.550271 
L 298.083128 67.689627 
L 298.444949 68.7224 
L 299.16859 66.312596 
L 300.254053 68.378142 
L 300.615873 66.312596 
L 300.977694 67.345369 
L 301.339515 68.894528 
L 302.063157 65.624081 
L 302.424977 67.17324 
L 302.786798 71.218267 
L 303.148619 67.94782 
L 303.51044 67.603562 
L 303.87226 67.431433 
L 304.234081 67.94782 
L 304.595902 66.656854 
L 304.957723 68.206013 
L 305.319544 62.181505 
L 306.043185 67.689627 
L 306.405006 65.710145 
L 306.766827 65.538017 
L 307.128647 69.152722 
L 307.490468 66.398661 
L 307.852289 68.7224 
L 308.21411 66.140467 
L 308.57593 66.828983 
L 308.937751 70.013366 
L 309.299572 66.915047 
L 309.661393 66.570789 
L 310.023214 66.915047 
L 310.385034 64.591308 
L 310.746855 63.214278 
L 311.108676 65.538017 
L 311.470497 65.365888 
L 311.832317 66.398661 
L 312.194138 65.79621 
L 312.555959 66.226532 
L 312.91778 64.935566 
L 313.279601 66.742918 
L 313.641421 66.140467 
L 314.003242 63.730664 
L 314.365063 67.087176 
L 314.726884 67.087176 
L 315.088704 66.828983 
L 315.450525 67.603562 
L 315.812346 67.775691 
L 316.174167 65.710145 
L 316.897808 67.775691 
L 317.259629 65.02163 
L 317.62145 67.345369 
L 317.983271 67.775691 
L 318.345091 66.140467 
L 318.706912 66.828983 
L 319.068733 67.087176 
L 319.430554 65.451952 
L 319.792375 64.935566 
L 320.154195 65.107694 
L 320.516016 64.849501 
L 320.877837 64.419179 
L 321.239658 65.79621 
L 321.601478 65.107694 
L 321.963299 65.710145 
L 322.32512 69.410915 
L 322.686941 66.140467 
L 323.048762 66.140467 
L 323.410582 66.570789 
L 323.772403 66.742918 
L 324.134224 65.624081 
L 324.857865 68.206013 
L 325.219686 65.02163 
L 325.581507 66.398661 
L 325.943328 65.79621 
L 326.305148 65.882274 
L 326.666969 64.074922 
L 327.02879 66.054403 
L 327.390611 66.915047 
L 327.752432 67.001111 
L 328.114252 64.763437 
L 328.476073 66.915047 
L 328.837894 68.033884 
L 329.199715 64.935566 
L 329.561535 67.94782 
L 329.923356 64.24705 
L 330.285177 65.882274 
L 330.646998 62.439698 
L 331.008819 63.472471 
L 331.370639 64.935566 
L 332.094281 66.226532 
L 332.456102 65.107694 
L 332.817922 65.968339 
L 333.179743 67.689627 
L 333.541564 64.24705 
L 333.903385 65.107694 
L 334.265206 65.451952 
L 334.627026 64.677372 
L 334.988847 64.677372 
L 335.350668 64.333115 
L 335.712489 64.24705 
L 336.43613 68.292078 
L 336.797951 66.312596 
L 337.159772 66.140467 
L 337.521593 66.312596 
L 337.883413 64.935566 
L 338.607055 63.730664 
L 338.968876 64.24705 
L 339.330696 63.988857 
L 340.054338 65.624081 
L 340.416159 61.406925 
L 340.77798 66.656854 
L 341.1398 66.312596 
L 341.863442 64.333115 
L 342.225263 66.054403 
L 342.587083 66.828983 
L 342.948904 66.312596 
L 343.310725 65.365888 
L 343.672546 63.386406 
L 344.034366 62.525762 
L 344.396187 66.054403 
L 344.758008 64.763437 
L 345.119829 66.054403 
L 345.84347 64.763437 
L 346.205291 64.849501 
L 346.567112 63.6446 
L 346.928933 63.128213 
L 347.652574 66.484725 
L 348.014395 65.193759 
L 348.738037 63.988857 
L 350.18532 65.79621 
L 350.54714 64.24705 
L 350.908961 65.79621 
L 351.270782 65.02163 
L 351.632603 65.193759 
L 351.994424 64.505244 
L 352.356244 63.128213 
L 352.718065 67.259305 
L 353.079886 64.160986 
L 353.441707 63.988857 
L 353.803527 67.087176 
L 354.165348 63.988857 
L 354.527169 64.074922 
L 354.88899 64.419179 
L 355.612631 67.431433 
L 355.974452 62.697891 
L 356.698094 65.538017 
L 357.059914 65.365888 
L 357.421735 64.591308 
L 357.783556 64.763437 
L 358.145377 66.140467 
L 358.507198 64.24705 
L 359.230839 64.505244 
L 359.59266 64.333115 
L 359.954481 64.591308 
L 360.316301 63.6446 
L 360.678122 64.591308 
L 361.039943 63.214278 
L 361.401764 65.02163 
L 361.763584 62.956084 
L 362.125405 63.6446 
L 362.487226 61.579054 
L 362.849047 63.902793 
L 363.210868 63.558535 
L 363.572688 63.902793 
L 363.934509 63.042149 
L 364.29633 64.160986 
L 364.658151 66.054403 
L 365.019971 65.193759 
L 365.381792 66.226532 
L 365.743613 62.783956 
L 366.105434 63.214278 
L 366.467255 64.849501 
L 366.829075 65.365888 
L 367.190896 64.849501 
L 367.552717 63.902793 
L 367.914538 64.677372 
L 368.276358 64.333115 
L 368.638179 62.783956 
L 369 65.79621 
L 369.361821 62.783956 
L 369.723642 65.02163 
L 370.085462 65.365888 
L 370.447283 65.02163 
L 370.809104 65.02163 
L 371.170925 61.406925 
L 371.532745 64.591308 
L 371.894566 65.710145 
L 372.256387 61.492989 
L 372.618208 65.79621 
L 372.980029 63.128213 
L 373.341849 64.849501 
L 373.70367 63.300342 
L 374.065491 65.02163 
L 374.427312 65.968339 
L 375.150953 62.956084 
L 375.512774 65.882274 
L 375.874595 65.451952 
L 376.236416 63.816728 
L 376.598236 62.783956 
L 377.321878 64.677372 
L 377.683699 64.763437 
L 378.045519 63.214278 
L 378.40734 64.935566 
L 378.769161 65.451952 
L 379.130982 62.439698 
L 379.492802 61.665118 
L 379.854623 63.042149 
L 380.216444 63.128213 
L 380.578265 61.406925 
L 380.940086 61.492989 
L 381.301906 62.353634 
L 381.663727 62.697891 
L 382.025548 62.525762 
L 382.387369 64.160986 
L 382.749189 64.074922 
L 383.11101 62.181505 
L 383.472831 64.333115 
L 383.834652 62.353634 
L 384.196473 64.333115 
L 384.558293 62.525762 
L 384.920114 62.697891 
L 385.643756 65.624081 
L 386.005576 64.677372 
L 386.367397 64.333115 
L 386.729218 61.665118 
L 387.091039 61.751183 
L 387.45286 62.956084 
L 387.81468 62.87002 
L 388.176501 63.988857 
L 388.538322 62.439698 
L 388.900143 62.439698 
L 389.261963 62.697891 
L 389.623784 63.730664 
L 389.985605 64.419179 
L 390.347426 61.234796 
L 390.709247 63.988857 
L 391.071067 63.988857 
L 391.432888 63.386406 
L 392.15653 63.6446 
L 392.51835 61.665118 
L 392.880171 62.611827 
L 393.241992 65.624081 
L 393.603813 62.09544 
L 393.965634 64.24705 
L 394.327454 63.816728 
L 394.689275 62.783956 
L 395.051096 61.320861 
L 395.412917 61.665118 
L 396.136558 63.988857 
L 396.498379 63.6446 
L 396.8602 61.062667 
L 397.22202 62.181505 
L 397.583841 64.849501 
L 397.945662 61.923311 
L 398.307483 63.988857 
L 398.669304 63.816728 
L 399.031124 62.956084 
L 399.392945 60.71841 
L 399.754766 62.353634 
L 400.116587 62.525762 
L 400.840228 61.234796 
L 401.202049 64.333115 
L 401.56387 61.579054 
L 401.925691 62.525762 
L 402.287511 60.632345 
L 402.649332 64.074922 
L 403.011153 63.128213 
L 403.372974 62.611827 
L 403.734794 62.956084 
L 404.458436 61.665118 
L 405.182078 63.214278 
L 405.543898 62.181505 
L 405.905719 62.697891 
L 406.26754 64.160986 
L 406.629361 63.386406 
L 406.991181 61.148732 
L 407.714823 61.923311 
L 408.076644 61.148732 
L 408.438465 64.505244 
L 408.800285 62.267569 
L 409.162106 63.6446 
L 409.523927 63.558535 
L 409.885748 64.849501 
L 410.247568 61.751183 
L 410.609389 62.525762 
L 410.97121 61.923311 
L 411.333031 63.988857 
L 411.694852 62.09544 
L 412.056672 63.128213 
L 412.418493 62.525762 
L 412.780314 62.267569 
L 413.142135 63.558535 
L 413.503955 61.923311 
L 413.865776 61.837247 
L 414.227597 62.697891 
L 414.589418 62.956084 
L 414.951238 63.042149 
L 415.313059 63.902793 
L 415.67488 65.538017 
L 416.036701 60.71841 
L 416.398522 63.300342 
L 416.760342 61.665118 
L 417.122163 62.611827 
L 417.483984 62.611827 
L 417.845805 63.730664 
L 418.207625 60.288088 
L 418.569446 61.062667 
L 418.931267 60.202023 
L 419.293088 61.837247 
L 419.654909 61.837247 
L 420.016729 63.558535 
L 420.37855 62.267569 
L 420.740371 63.214278 
L 421.102192 62.697891 
L 421.464012 60.71841 
L 421.825833 62.09544 
L 422.187654 65.451952 
L 422.549475 61.148732 
L 422.911296 62.611827 
L 423.273116 62.697891 
L 423.634937 62.181505 
L 423.996758 64.333115 
L 424.358579 62.439698 
L 424.720399 63.128213 
L 425.444041 60.71841 
L 425.805862 61.492989 
L 426.167683 61.234796 
L 426.529503 62.525762 
L 426.891324 63.386406 
L 427.253145 59.427444 
L 427.614966 62.439698 
L 427.976786 62.009376 
L 428.338607 62.009376 
L 428.700428 61.406925 
L 429.062249 61.320861 
L 429.42407 61.492989 
L 429.78589 62.783956 
L 430.147711 60.804474 
L 430.509532 60.976603 
L 430.871353 59.857766 
L 431.233173 62.87002 
L 431.594994 60.804474 
L 431.956815 62.783956 
L 432.318636 59.94383 
L 432.680456 60.804474 
L 433.404098 61.148732 
L 433.765919 61.062667 
L 434.12774 61.923311 
L 434.48956 61.923311 
L 434.851381 62.353634 
L 435.213202 57.964349 
L 435.575023 61.751183 
L 435.936843 59.94383 
L 436.298664 63.300342 
L 436.660485 62.87002 
L 437.022306 62.181505 
L 437.384127 62.181505 
L 437.745947 61.837247 
L 438.107768 62.697891 
L 438.469589 62.181505 
L 438.83141 62.009376 
L 439.19323 60.374152 
L 439.916872 63.214278 
L 440.278693 59.857766 
L 440.640514 60.976603 
L 441.002334 62.87002 
L 441.364155 62.353634 
L 441.725976 62.783956 
L 442.087797 60.976603 
L 442.811438 60.029895 
L 443.173259 62.956084 
L 443.53508 62.009376 
L 443.896901 59.513508 
L 444.258721 62.353634 
L 444.620542 60.202023 
L 444.982363 61.665118 
L 445.344184 61.579054 
L 445.706004 60.202023 
L 446.067825 60.460217 
L 446.429646 59.771701 
L 446.791467 62.87002 
L 447.153288 61.062667 
L 447.515108 62.09544 
L 447.876929 61.579054 
L 448.23875 61.406925 
L 448.600571 61.406925 
L 448.962391 62.956084 
L 449.324212 61.665118 
L 449.686033 61.062667 
L 450.047854 60.804474 
L 450.409674 61.234796 
L 450.771495 60.804474 
L 451.133316 62.353634 
L 451.495137 60.546281 
L 451.856958 61.665118 
L 452.580599 59.771701 
L 452.94242 60.374152 
L 453.304241 62.783956 
L 453.666061 59.94383 
L 454.027882 59.94383 
L 454.751524 62.009376 
L 455.113345 62.353634 
L 455.475165 63.214278 
L 455.836986 61.234796 
L 456.198807 62.439698 
L 456.560628 64.333115 
L 456.922448 60.71841 
L 458.007911 63.042149 
L 458.731552 63.128213 
L 459.093373 61.579054 
L 459.455194 60.976603 
L 459.817015 62.267569 
L 460.178835 62.353634 
L 460.540656 61.751183 
L 460.902477 63.6446 
L 461.264298 61.320861 
L 461.626119 60.460217 
L 461.987939 62.09544 
L 462.34976 61.492989 
L 463.073402 61.492989 
L 463.435222 64.160986 
L 464.158864 61.665118 
L 464.520685 61.320861 
L 464.882506 59.427444 
L 465.244326 63.128213 
L 465.606147 60.632345 
L 465.967968 59.513508 
L 466.329789 61.492989 
L 466.691609 62.525762 
L 467.415251 60.374152 
L 467.777072 60.890539 
L 468.138892 62.783956 
L 468.500713 58.738928 
L 468.862534 58.738928 
L 469.586176 62.267569 
L 469.947996 60.288088 
L 470.309817 59.513508 
L 470.671638 60.804474 
L 471.033459 61.234796 
L 471.395279 58.308606 
L 471.7571 61.751183 
L 472.118921 63.386406 
L 472.842563 58.394671 
L 473.204383 59.94383 
L 473.566204 59.771701 
L 473.928025 61.234796 
L 474.289846 61.062667 
L 474.651666 60.632345 
L 475.013487 61.320861 
L 475.375308 61.492989 
L 475.737129 61.148732 
L 476.09895 59.771701 
L 476.46077 60.976603 
L 476.822591 61.751183 
L 477.184412 61.665118 
L 477.546233 60.460217 
L 478.269874 63.042149 
L 478.631695 61.406925 
L 479.355337 62.353634 
L 479.717157 60.71841 
L 480.078978 61.492989 
L 480.440799 61.234796 
L 480.80262 60.374152 
L 481.16444 62.956084 
L 481.526261 61.406925 
L 481.888082 61.665118 
L 482.249903 61.320861 
L 482.611724 61.923311 
L 482.973544 60.890539 
L 483.335365 60.976603 
L 483.697186 58.5668 
L 484.059007 60.029895 
L 484.420827 59.599573 
L 485.144469 61.923311 
L 485.50629 61.320861 
L 485.86811 61.492989 
L 486.229931 61.062667 
L 486.591752 60.029895 
L 486.953573 60.976603 
L 487.315394 62.611827 
L 487.677214 61.406925 
L 488.039035 61.665118 
L 488.400856 61.579054 
L 488.762677 58.308606 
L 489.124497 60.460217 
L 489.486318 60.202023 
L 489.848139 60.202023 
L 490.20996 59.513508 
L 490.571781 59.599573 
L 490.933601 60.890539 
L 491.295422 59.857766 
L 491.657243 60.976603 
L 492.019064 59.94383 
L 492.380884 61.234796 
L 492.742705 59.16925 
L 493.104526 62.956084 
L 493.466347 57.964349 
L 494.189988 59.771701 
L 494.551809 59.427444 
L 494.91363 59.255315 
L 495.275451 63.816728 
L 495.637271 59.255315 
L 495.999092 59.599573 
L 496.360913 61.492989 
L 496.722734 60.632345 
L 497.084555 61.148732 
L 497.446375 60.460217 
L 497.808196 60.460217 
L 498.170017 60.804474 
L 498.893658 59.341379 
L 499.255479 59.685637 
L 499.6173 61.406925 
L 499.979121 58.136478 
L 500.340942 64.24705 
L 500.702762 62.611827 
L 501.064583 61.751183 
L 501.426404 60.374152 
L 501.788225 60.890539 
L 502.150045 59.685637 
L 502.511866 59.16925 
L 502.873687 61.492989 
L 503.597328 58.394671 
L 503.959149 59.427444 
L 504.32097 58.652864 
L 505.044612 62.181505 
L 505.406432 59.771701 
L 505.768253 60.976603 
L 506.491895 58.997122 
L 507.215536 59.16925 
L 507.577357 58.738928 
L 507.939178 60.288088 
L 508.300999 58.394671 
L 509.02464 61.837247 
L 509.386461 61.492989 
L 509.748282 59.771701 
L 510.110102 59.16925 
L 510.471923 59.513508 
L 510.833744 60.374152 
L 511.195565 61.751183 
L 511.557386 60.460217 
L 511.919206 58.5668 
L 512.281027 60.804474 
L 512.642848 58.222542 
L 513.004669 60.029895 
L 513.366489 59.16925 
L 514.090131 60.288088 
L 515.175593 60.374152 
L 515.537414 60.115959 
L 515.899235 60.115959 
L 516.261056 60.632345 
L 516.622876 59.771701 
L 516.984697 59.94383 
L 517.346518 59.94383 
L 517.708339 60.374152 
L 518.07016 60.029895 
L 518.43198 57.275834 
L 518.793801 60.976603 
L 519.155622 61.062667 
L 519.517443 60.288088 
L 519.879263 60.202023 
L 520.241084 59.771701 
L 520.602905 60.546281 
L 520.964726 60.202023 
L 521.326546 57.01764 
L 521.688367 60.976603 
L 522.050188 59.685637 
L 522.412009 60.288088 
L 522.77383 59.771701 
L 523.497471 62.783956 
L 523.859292 59.341379 
L 524.221113 59.513508 
L 524.582933 60.546281 
L 524.944754 58.911057 
L 525.306575 59.513508 
L 525.668396 57.189769 
L 526.030217 59.083186 
L 526.392037 58.480735 
L 527.4775 61.492989 
L 527.83932 59.685637 
L 528.201141 60.460217 
L 528.562962 58.824993 
L 529.286604 59.685637 
L 529.648424 58.394671 
L 530.010245 60.029895 
L 530.372066 59.427444 
L 530.733887 60.546281 
L 531.095707 59.16925 
L 531.457528 58.394671 
L 531.819349 59.685637 
L 532.18117 59.771701 
L 532.542991 60.804474 
L 532.904811 58.738928 
L 533.266632 58.480735 
L 533.628453 61.492989 
L 533.990274 60.632345 
L 534.352094 59.16925 
L 534.713915 61.062667 
L 535.075736 61.062667 
L 535.437557 59.083186 
L 535.799378 60.632345 
L 536.161198 57.620091 
L 536.523019 60.374152 
L 536.88484 60.288088 
L 537.246661 58.480735 
L 537.608481 58.136478 
L 537.970302 59.857766 
L 538.332123 58.911057 
L 538.693944 59.083186 
L 539.417585 60.460217 
L 539.779406 60.890539 
L 540.141227 59.857766 
L 540.503048 60.374152 
L 540.864868 59.341379 
L 541.226689 59.685637 
L 541.58851 60.804474 
L 541.950331 60.288088 
L 542.312151 60.288088 
L 542.673972 60.632345 
L 543.035793 59.771701 
L 543.397614 60.546281 
L 543.759435 58.394671 
L 544.121255 58.308606 
L 544.483076 57.79222 
L 544.844897 59.771701 
L 545.206718 57.706156 
L 545.568538 57.964349 
L 545.930359 58.738928 
L 546.29218 57.361898 
L 546.654001 59.685637 
L 547.015822 58.911057 
L 547.377642 61.665118 
L 548.101284 59.083186 
L 548.463105 57.01764 
L 548.824925 59.083186 
L 549.186746 58.050413 
L 549.548567 57.361898 
L 549.910388 59.685637 
L 550.272209 60.460217 
L 550.634029 60.374152 
L 550.99585 58.824993 
L 551.357671 58.050413 
L 551.719492 60.374152 
L 552.081312 58.997122 
L 552.443133 58.824993 
L 552.804954 58.136478 
L 553.166775 59.685637 
L 553.890416 57.79222 
L 554.252237 60.202023 
L 554.614058 60.288088 
L 554.975879 58.308606 
L 555.337699 59.513508 
L 555.69952 60.029895 
L 556.061341 57.447962 
L 556.423162 59.427444 
L 556.784982 60.632345 
L 557.508624 58.652864 
L 557.870445 59.599573 
L 558.232266 58.136478 
L 558.594086 57.706156 
L 558.955907 60.976603 
L 559.317728 59.94383 
L 559.679549 59.94383 
L 560.041369 58.997122 
L 560.40319 57.706156 
L 560.765011 57.79222 
L 561.126832 59.427444 
L 561.488653 60.029895 
L 561.850473 59.94383 
L 562.212294 59.083186 
L 562.574115 60.632345 
L 562.935936 59.599573 
L 563.297756 58.050413 
L 563.659577 59.255315 
L 564.021398 58.394671 
L 564.383219 60.115959 
L 564.74504 56.759447 
L 565.10686 60.288088 
L 565.468681 58.308606 
L 565.830502 60.029895 
L 566.192323 58.394671 
L 566.554143 60.029895 
L 566.915964 59.771701 
L 567.277785 58.997122 
L 568.001427 56.673383 
L 568.363247 60.976603 
L 568.725068 59.857766 
L 569.086889 58.136478 
L 569.44871 59.513508 
L 569.81053 58.222542 
L 570.172351 58.911057 
L 570.534172 60.115959 
L 571.257814 58.997122 
L 571.619634 55.898803 
L 571.981455 59.94383 
L 572.343276 59.599573 
L 572.705097 57.534027 
L 573.066917 59.427444 
L 573.428738 58.308606 
L 573.790559 59.771701 
L 574.876021 58.394671 
L 575.237842 60.202023 
L 575.599663 58.824993 
L 575.961484 59.341379 
L 576.685125 58.308606 
L 577.046946 56.931576 
L 577.408767 59.341379 
L 577.770587 58.5668 
L 578.132408 59.94383 
L 578.494229 58.050413 
L 578.85605 58.136478 
L 579.217871 58.824993 
L 579.579691 58.222542 
L 579.941512 58.5668 
L 580.303333 59.16925 
L 580.665154 58.222542 
L 581.026974 59.341379 
L 581.388795 58.911057 
L 581.750616 59.771701 
L 582.112437 55.984867 
L 582.474258 58.050413 
L 582.836078 57.447962 
L 583.197899 57.964349 
L 583.55972 57.275834 
L 583.921541 58.738928 
L 584.645182 58.997122 
L 585.007003 58.480735 
L 585.368824 59.94383 
L 585.730645 58.652864 
L 586.092465 56.156996 
L 586.454286 58.136478 
L 586.816107 58.5668 
L 587.177928 59.255315 
L 587.539748 56.587318 
L 587.901569 58.997122 
L 588.26339 59.857766 
L 588.625211 57.189769 
L 588.987032 57.706156 
L 589.348852 57.706156 
L 589.710673 59.599573 
L 590.072494 59.16925 
L 590.434315 57.361898 
L 590.796135 58.480735 
L 591.157956 57.964349 
L 591.519777 59.083186 
L 591.881598 58.222542 
L 592.605239 59.857766 
L 592.96706 58.5668 
L 593.328881 58.652864 
L 593.690702 59.599573 
L 594.052522 58.480735 
L 594.414343 58.394671 
L 594.776164 58.738928 
L 595.137985 58.652864 
L 595.499805 59.16925 
L 595.861626 58.5668 
L 596.223447 57.275834 
L 596.585268 57.534027 
L 596.947089 59.599573 
L 597.308909 57.103705 
L 597.67073 58.738928 
L 598.032551 58.738928 
L 598.394372 55.812739 
L 598.756192 58.997122 
L 599.118013 60.115959 
L 599.479834 57.620091 
L 599.841655 59.513508 
L 600.203476 57.189769 
L 600.565296 58.911057 
L 600.927117 59.255315 
L 601.288938 57.620091 
L 601.650759 58.997122 
L 602.012579 57.534027 
L 602.3744 58.824993 
L 602.736221 59.513508 
L 603.098042 57.447962 
L 603.821683 58.050413 
L 604.183504 59.513508 
L 604.545325 57.964349 
L 604.907146 58.824993 
L 605.268966 57.79222 
L 605.630787 57.79222 
L 605.992608 58.222542 
L 606.354429 57.878284 
L 606.71625 58.308606 
L 607.07807 59.255315 
L 607.439891 59.427444 
L 608.163533 58.222542 
L 608.525353 56.41519 
L 608.887174 58.394671 
L 609.248995 58.480735 
L 609.610816 57.534027 
L 609.972636 57.706156 
L 610.696278 60.546281 
L 611.058099 57.79222 
L 611.41992 58.911057 
L 611.78174 57.964349 
L 612.143561 59.427444 
L 612.505382 57.878284 
L 612.867203 58.480735 
L 613.229023 58.394671 
L 613.590844 58.5668 
L 613.952665 58.5668 
L 614.314486 56.587318 
L 614.676307 58.136478 
L 615.038127 61.320861 
L 615.399948 61.665118 
L 615.761769 58.5668 
L 616.12359 59.341379 
L 616.48541 59.771701 
L 616.847231 58.738928 
L 617.570873 58.652864 
L 617.932694 55.554545 
L 618.294514 59.857766 
L 618.656335 58.136478 
L 619.018156 57.01764 
L 619.379977 59.16925 
L 619.741797 57.361898 
L 620.103618 58.308606 
L 620.465439 56.931576 
L 620.82726 60.029895 
L 621.189081 56.243061 
L 621.550901 57.79222 
L 621.912722 60.288088 
L 622.274543 58.308606 
L 622.636364 57.79222 
L 622.636364 57.79222 
" style="fill:none;stroke:#1f77b4;stroke-linecap:square;stroke-width:0.5;"/>
   </g>
   <g id="line2d_32">
    <path clip-path="url(#p1d0cc2872e)" d="M 115.363636 302.645455 
L 115.725457 300.063522 
L 116.087278 298.772556 
L 116.449099 299.6332 
L 116.810919 298.514363 
L 117.17274 300.838102 
L 117.534561 297.739783 
L 117.896382 290.25218 
L 118.258203 293.608692 
L 118.620023 298.170105 
L 118.981844 300.235651 
L 119.343665 299.719265 
L 119.705486 292.661983 
L 120.429127 296.793075 
L 120.790948 293.780821 
L 121.152769 294.469336 
L 121.51459 288.789085 
L 121.87641 293.436563 
L 122.238231 290.080051 
L 122.600052 284.399801 
L 122.961873 287.239926 
L 123.323693 285.862895 
L 123.685514 283.194899 
L 124.047335 279.580194 
L 124.409156 273.555685 
L 124.770977 279.149872 
L 125.132797 276.223682 
L 125.494618 271.748333 
L 125.856439 270.371302 
L 126.21826 265.63776 
L 126.58008 265.895953 
L 126.941901 258.580479 
L 128.751005 243.17495 
L 129.112826 232.761157 
L 129.474647 232.502964 
L 129.836467 237.666828 
L 130.198288 230.609547 
L 130.92193 223.208008 
L 131.28375 228.630066 
L 131.645571 223.380137 
L 132.007392 216.322856 
L 132.369213 224.154716 
L 132.731034 217.097435 
L 133.092854 217.613822 
L 133.454675 217.269564 
L 133.816496 208.40493 
L 134.178317 207.200028 
L 134.540137 201.261584 
L 134.901958 203.585323 
L 135.263779 199.109974 
L 135.6256 201.519778 
L 135.987421 198.335395 
L 136.349241 191.450242 
L 136.711062 195.237076 
L 137.072883 186.200313 
L 137.434704 184.823283 
L 137.796524 181.897093 
L 138.158345 181.552836 
L 138.520166 180.86432 
L 138.881987 171.225107 
L 139.243808 171.139042 
L 139.605628 173.548846 
L 139.967449 169.934141 
L 140.32927 170.794785 
L 140.691091 163.651439 
L 141.052911 164.856341 
L 141.414732 158.229382 
L 141.776553 157.368738 
L 142.138374 155.303192 
L 142.500195 146.0943 
L 142.862015 153.237646 
L 143.223836 145.577914 
L 143.585657 147.815588 
L 143.947478 147.299202 
L 144.309298 144.114819 
L 144.671119 144.71727 
L 145.03294 143.168111 
L 145.394761 136.971473 
L 145.756582 136.71328 
L 146.118402 138.090311 
L 146.480223 134.131348 
L 146.842044 137.057538 
L 147.203865 134.991992 
L 147.565685 134.733799 
L 147.927506 130.430579 
L 148.651148 130.946965 
L 149.012968 130.344514 
L 149.374789 125.352779 
L 149.73661 126.385551 
L 150.098431 125.783101 
L 150.460252 126.901938 
L 150.822072 126.299487 
L 151.545714 121.307751 
L 152.631176 125.18065 
L 152.992997 118.123368 
L 153.354818 121.910202 
L 153.716639 117.262724 
L 154.078459 116.057823 
L 154.44028 115.369307 
L 154.802101 117.606982 
L 155.525742 116.143887 
L 155.887563 114.336535 
L 156.249384 111.754602 
L 156.611205 107.967769 
L 156.973026 113.906213 
L 157.334846 110.119379 
L 157.696667 111.496409 
L 158.420309 106.934996 
L 158.782129 107.279253 
L 159.14395 106.590738 
L 159.505771 109.000541 
L 159.867592 106.332545 
L 160.229413 105.816158 
L 160.591233 107.451382 
L 160.953054 107.79564 
L 161.314875 103.578484 
L 161.676696 105.902223 
L 162.038516 106.762867 
L 162.400337 104.008806 
L 162.762158 103.836677 
L 163.123979 105.471901 
L 163.4858 102.029325 
L 163.84762 104.955514 
L 164.209441 100.135908 
L 164.571262 101.340809 
L 164.933083 100.824423 
L 165.294903 99.705586 
L 165.656724 96.263009 
L 166.018545 99.533457 
L 166.380366 100.135908 
L 166.742186 98.844942 
L 167.104007 95.058108 
L 167.465828 96.86546 
L 167.827649 99.79165 
L 168.55129 95.574494 
L 168.913111 94.885979 
L 169.636753 98.500684 
L 170.360394 95.144172 
L 170.722215 92.820433 
L 171.084036 92.390111 
L 171.445857 94.885979 
L 171.807677 91.443403 
L 172.169498 92.820433 
L 172.531319 93.078626 
L 172.89314 94.111399 
L 173.25496 93.422884 
L 173.616781 91.013081 
L 173.978602 93.33682 
L 174.340423 92.992562 
L 174.702244 91.615531 
L 175.064064 91.78766 
L 175.425885 89.894243 
L 175.787706 86.279538 
L 176.149527 91.185209 
L 176.511347 92.131918 
L 177.59681 86.10741 
L 177.958631 87.914762 
L 178.320451 86.881989 
L 179.044093 89.63605 
L 179.405914 90.41063 
L 179.767734 86.10741 
L 180.129555 91.873725 
L 180.491376 89.205728 
L 180.853197 88.086891 
L 181.215018 88.517213 
L 181.576838 86.279538 
L 181.938659 86.70986 
L 182.30048 86.451667 
L 182.662301 87.48444 
L 183.024121 86.881989 
L 183.385942 87.054118 
L 183.747763 91.013081 
L 184.109584 85.33283 
L 184.471404 85.591023 
L 184.833225 85.074637 
L 185.195046 85.935281 
L 185.918688 81.890254 
L 186.280508 83.353349 
L 187.00415 83.267284 
L 187.365971 84.127928 
L 187.727791 83.095155 
L 188.451433 80.082901 
L 188.813254 82.664833 
L 189.175075 82.923027 
L 189.536895 84.127928 
L 190.260537 85.418894 
L 190.622358 82.578769 
L 190.984178 84.55825 
L 191.345999 81.718125 
L 191.70782 83.955799 
L 192.069641 81.373867 
L 192.431462 80.341094 
L 192.793282 83.009091 
L 193.155103 78.791935 
L 193.516924 80.082901 
L 193.878745 80.771416 
L 194.240565 81.02961 
L 194.602386 78.275549 
L 194.964207 83.697606 
L 195.326028 78.619806 
L 195.687849 80.857481 
L 196.049669 80.427159 
L 196.41149 80.599288 
L 196.773311 83.869735 
L 197.135132 81.976318 
L 197.496952 81.02961 
L 197.858773 84.472186 
L 198.220594 81.02961 
L 198.582415 80.341094 
L 198.944236 79.136193 
L 199.306056 79.824708 
L 199.667877 79.996837 
L 200.029698 82.062382 
L 200.391519 80.427159 
L 200.753339 82.062382 
L 201.476981 78.964064 
L 201.838802 82.40664 
L 202.562443 78.275549 
L 202.924264 81.02961 
L 203.286085 79.996837 
L 203.647906 76.123938 
L 204.009726 79.050128 
L 204.371547 80.168966 
L 204.733368 80.427159 
L 205.457009 78.705871 
L 205.81883 79.308321 
L 206.180651 77.759162 
L 206.542472 77.242776 
L 206.904293 78.964064 
L 207.266113 77.759162 
L 207.627934 79.136193 
L 208.351576 78.619806 
L 208.713396 75.607552 
L 209.075217 77.759162 
L 209.437038 79.222257 
L 209.798859 76.123938 
L 210.16068 75.95181 
L 210.5225 79.652579 
L 210.884321 77.587033 
L 211.246142 79.824708 
L 211.607963 78.017355 
L 211.969783 77.759162 
L 212.331604 77.32884 
L 212.693425 73.197749 
L 213.055246 76.726389 
L 213.417067 77.587033 
L 213.778887 76.984583 
L 214.140708 77.156711 
L 214.502529 75.521488 
L 214.86435 77.673098 
L 215.22617 79.136193 
L 215.949812 74.574779 
L 216.311633 75.865745 
L 216.673454 76.123938 
L 217.035274 73.628071 
L 217.397095 77.070647 
L 217.758916 77.414905 
L 218.120737 76.123938 
L 218.482557 78.619806 
L 218.844378 75.865745 
L 219.206199 75.693616 
L 220.291661 74.230522 
L 220.653482 75.865745 
L 221.015303 76.55426 
L 221.377124 75.17723 
L 221.738944 77.414905 
L 222.100765 75.091166 
L 222.824407 77.242776 
L 223.186227 76.984583 
L 223.548048 78.533742 
L 223.909869 73.800199 
L 224.27169 75.263294 
L 224.633511 74.660844 
L 224.995331 76.296067 
L 225.357152 74.316586 
L 225.718973 74.574779 
L 226.442614 74.316586 
L 226.804435 73.197749 
L 227.528077 76.123938 
L 228.251718 73.800199 
L 228.613539 74.40265 
L 228.97536 73.02562 
L 229.337181 74.230522 
L 229.699001 74.230522 
L 230.060822 75.091166 
L 230.422643 75.17723 
L 230.784464 73.972328 
L 231.146285 75.091166 
L 231.508105 70.787945 
L 231.869926 74.058393 
L 232.231747 73.02562 
L 232.593568 76.123938 
L 232.955388 75.17723 
L 233.317209 72.681362 
L 233.67903 73.542006 
L 234.040851 74.058393 
L 234.764492 74.40265 
L 235.126313 73.111684 
L 235.488134 75.263294 
L 235.849955 73.714135 
L 236.211775 73.197749 
L 236.573596 74.40265 
L 236.935417 74.919037 
L 237.659058 73.542006 
L 238.020879 70.701881 
L 238.3827 73.369877 
L 238.744521 72.337105 
L 239.106342 75.349359 
L 239.468162 73.369877 
L 239.829983 72.595298 
L 240.191804 72.423169 
L 240.553625 73.972328 
L 240.915445 70.960074 
L 241.277266 73.972328 
L 241.639087 74.40265 
L 242.000908 71.992847 
L 242.362729 75.435423 
L 243.08637 72.25104 
L 243.448191 72.595298 
L 243.810012 73.283813 
L 244.171832 72.078911 
L 244.533653 72.767427 
L 244.895474 71.304332 
L 245.257295 71.218267 
L 245.619116 72.681362 
L 245.980936 73.628071 
L 246.704578 71.906783 
L 247.066399 71.734654 
L 247.428219 74.40265 
L 247.79004 71.906783 
L 248.151861 71.132203 
L 248.513682 73.455942 
L 248.875503 73.111684 
L 249.237323 72.595298 
L 249.599144 73.111684 
L 249.960965 72.164976 
L 250.322786 73.972328 
L 250.684606 72.337105 
L 251.046427 72.337105 
L 251.408248 69.066657 
L 251.770069 71.734654 
L 252.13189 72.595298 
L 252.49371 71.132203 
L 252.855531 72.078911 
L 253.217352 75.17723 
L 253.579173 71.906783 
L 253.940993 71.218267 
L 254.664635 71.218267 
L 255.026456 73.542006 
L 255.388276 71.906783 
L 255.750097 72.767427 
L 256.111918 70.701881 
L 257.19738 71.132203 
L 257.559201 69.669108 
L 257.921022 71.132203 
L 258.282843 73.111684 
L 258.644663 73.283813 
L 259.006484 72.337105 
L 259.368305 72.337105 
L 259.730126 71.476461 
L 260.091947 71.992847 
L 260.453767 72.078911 
L 260.815588 70.87401 
L 261.177409 71.218267 
L 261.53923 70.09943 
L 261.90105 70.357623 
L 262.262871 71.992847 
L 262.624692 72.078911 
L 262.986513 70.357623 
L 263.348334 70.87401 
L 263.710154 72.767427 
L 264.071975 72.509233 
L 264.433796 71.648589 
L 264.795617 71.992847 
L 265.519258 71.476461 
L 265.881079 73.369877 
L 266.2429 72.078911 
L 266.604721 71.820718 
L 266.966541 70.701881 
L 267.328362 70.787945 
L 267.690183 69.066657 
L 268.052004 71.476461 
L 268.413824 70.271559 
L 268.775645 71.906783 
L 269.137466 71.648589 
L 269.499287 69.32485 
L 269.861108 68.980593 
L 270.222928 69.669108 
L 270.584749 69.410915 
L 270.94657 71.648589 
L 271.308391 71.304332 
L 271.670211 70.09943 
L 272.032032 72.25104 
L 272.393853 70.185494 
L 272.755674 73.02562 
L 273.117494 69.238786 
L 273.841136 69.669108 
L 274.202957 70.271559 
L 274.564778 69.152722 
L 274.926598 70.09943 
L 275.288419 69.927301 
L 275.65024 70.271559 
L 276.012061 69.238786 
L 276.735702 69.496979 
L 277.097523 71.390396 
L 277.459344 69.410915 
L 277.821165 69.410915 
L 278.182985 70.185494 
L 278.544806 70.443688 
L 278.906627 72.853491 
L 279.268448 69.496979 
L 279.630268 69.32485 
L 279.992089 68.980593 
L 280.35391 68.119949 
L 280.715731 70.013366 
L 281.077552 70.615816 
L 281.439372 70.271559 
L 281.801193 71.390396 
L 282.163014 70.615816 
L 282.524835 69.238786 
L 282.886655 68.378142 
L 283.248476 70.271559 
L 283.610297 68.808464 
L 283.972118 68.636335 
L 284.333939 69.669108 
L 284.695759 69.238786 
L 285.05758 69.927301 
L 285.419401 68.808464 
L 285.781222 70.529752 
L 286.143042 69.841237 
L 286.504863 68.550271 
L 286.866684 68.119949 
L 287.228505 68.7224 
L 287.590326 67.087176 
L 287.952146 69.755172 
L 288.313967 67.517498 
L 288.675788 68.292078 
L 289.037609 70.185494 
L 289.399429 69.238786 
L 289.76125 69.32485 
L 290.123071 70.443688 
L 290.484892 67.087176 
L 290.846712 68.980593 
L 291.208533 69.066657 
L 291.570354 68.550271 
L 291.932175 69.152722 
L 292.293996 67.603562 
L 292.655816 66.742918 
L 293.017637 68.119949 
L 293.379458 67.94782 
L 293.741279 69.152722 
L 294.46492 68.7224 
L 294.826741 69.496979 
L 295.188562 68.7224 
L 295.550383 67.603562 
L 295.912203 70.09943 
L 296.274024 68.894528 
L 296.635845 68.808464 
L 296.997666 69.496979 
L 297.359486 71.476461 
L 297.721307 69.496979 
L 298.083128 69.669108 
L 298.444949 71.046139 
L 298.80677 67.861755 
L 299.16859 69.496979 
L 299.530411 70.357623 
L 299.892232 68.292078 
L 300.254053 68.7224 
L 300.615873 68.292078 
L 300.977694 68.292078 
L 301.339515 66.140467 
L 301.701336 68.980593 
L 302.063157 69.927301 
L 302.424977 68.119949 
L 302.786798 67.689627 
L 303.148619 67.861755 
L 303.51044 71.820718 
L 304.595902 67.259305 
L 304.957723 69.152722 
L 305.681364 67.087176 
L 306.043185 67.689627 
L 306.405006 67.603562 
L 306.766827 68.636335 
L 307.128647 67.001111 
L 307.490468 69.841237 
L 307.852289 67.94782 
L 308.21411 69.410915 
L 308.57593 67.603562 
L 308.937751 68.292078 
L 309.661393 68.206013 
L 310.023214 67.259305 
L 310.385034 68.980593 
L 310.746855 68.636335 
L 311.108676 65.882274 
L 311.470497 67.087176 
L 311.832317 66.915047 
L 312.194138 67.517498 
L 312.555959 67.259305 
L 312.91778 70.185494 
L 314.003242 66.312596 
L 314.365063 68.378142 
L 314.726884 69.32485 
L 315.088704 67.345369 
L 315.450525 70.960074 
L 315.812346 67.001111 
L 316.174167 68.033884 
L 316.535988 68.033884 
L 316.897808 66.054403 
L 317.259629 67.001111 
L 317.62145 70.615816 
L 317.983271 67.689627 
L 318.706912 68.378142 
L 319.068733 70.615816 
L 319.430554 66.828983 
L 319.792375 67.861755 
L 320.154195 66.742918 
L 320.516016 67.689627 
L 320.877837 70.787945 
L 321.239658 69.669108 
L 321.601478 69.066657 
L 321.963299 67.861755 
L 322.686941 69.152722 
L 323.048762 67.17324 
L 323.410582 68.808464 
L 323.772403 69.927301 
L 324.134224 69.583044 
L 324.496045 68.808464 
L 324.857865 69.410915 
L 325.219686 67.775691 
L 325.581507 67.94782 
L 325.943328 65.710145 
L 326.305148 66.828983 
L 326.666969 69.583044 
L 327.02879 68.206013 
L 327.390611 67.517498 
L 327.752432 69.066657 
L 328.476073 67.517498 
L 328.837894 68.033884 
L 329.199715 69.32485 
L 329.561535 68.636335 
L 329.923356 66.312596 
L 330.285177 66.226532 
L 330.646998 64.333115 
L 331.008819 67.001111 
L 331.370639 68.378142 
L 331.73246 68.378142 
L 332.094281 66.570789 
L 332.817922 64.763437 
L 333.179743 69.583044 
L 333.541564 69.238786 
L 333.903385 66.398661 
L 334.265206 65.02163 
L 334.627026 71.648589 
L 334.988847 66.570789 
L 335.712489 67.345369 
L 336.074309 67.17324 
L 336.43613 66.140467 
L 336.797951 68.7224 
L 337.159772 65.538017 
L 337.883413 69.152722 
L 338.245234 65.79621 
L 338.607055 66.312596 
L 338.968876 68.292078 
L 339.330696 68.033884 
L 339.692517 65.451952 
L 340.054338 68.808464 
L 340.416159 66.312596 
L 340.77798 66.226532 
L 341.1398 67.517498 
L 341.501621 68.206013 
L 341.863442 67.861755 
L 342.225263 68.033884 
L 342.587083 67.517498 
L 342.948904 68.808464 
L 343.310725 69.066657 
L 343.672546 69.841237 
L 344.034366 66.054403 
L 344.758008 68.894528 
L 345.119829 66.656854 
L 345.48165 68.378142 
L 345.84347 66.398661 
L 346.205291 68.980593 
L 346.567112 68.7224 
L 346.928933 67.94782 
L 347.652574 68.378142 
L 348.014395 68.206013 
L 348.376216 67.431433 
L 349.099857 65.193759 
L 349.823499 69.669108 
L 350.18532 67.775691 
L 350.54714 66.570789 
L 350.908961 69.496979 
L 351.270782 70.787945 
L 351.632603 66.484725 
L 351.994424 66.915047 
L 352.356244 67.603562 
L 352.718065 67.689627 
L 353.079886 67.087176 
L 353.441707 65.79621 
L 353.803527 67.345369 
L 354.165348 66.140467 
L 354.527169 66.915047 
L 354.88899 66.484725 
L 355.612631 67.259305 
L 355.974452 67.087176 
L 356.336273 66.398661 
L 356.698094 67.775691 
L 357.059914 64.591308 
L 357.783556 68.980593 
L 358.145377 66.742918 
L 358.507198 67.345369 
L 358.869018 65.79621 
L 359.59266 67.861755 
L 360.316301 66.656854 
L 360.678122 65.624081 
L 361.039943 68.033884 
L 361.401764 66.226532 
L 361.763584 65.968339 
L 362.125405 64.849501 
L 362.487226 66.226532 
L 362.849047 68.550271 
L 363.210868 66.742918 
L 363.572688 66.656854 
L 364.29633 68.980593 
L 364.658151 66.570789 
L 365.019971 65.710145 
L 365.381792 66.828983 
L 365.743613 64.333115 
L 366.105434 67.431433 
L 366.467255 67.087176 
L 366.829075 68.808464 
L 367.190896 66.828983 
L 367.552717 66.656854 
L 367.914538 67.087176 
L 368.276358 69.583044 
L 368.638179 66.656854 
L 369 67.087176 
L 369.723642 66.226532 
L 370.085462 68.378142 
L 370.447283 67.087176 
L 370.809104 64.591308 
L 371.170925 67.861755 
L 371.532745 66.570789 
L 371.894566 65.79621 
L 372.256387 67.431433 
L 372.980029 64.763437 
L 373.70367 68.292078 
L 374.065491 67.689627 
L 374.427312 66.656854 
L 374.789132 69.583044 
L 375.150953 66.656854 
L 375.512774 67.345369 
L 376.236416 65.02163 
L 376.598236 68.894528 
L 376.960057 65.882274 
L 377.321878 65.624081 
L 377.683699 66.915047 
L 378.045519 67.775691 
L 378.40734 66.484725 
L 378.769161 65.968339 
L 379.492802 66.742918 
L 379.854623 65.79621 
L 380.216444 67.345369 
L 380.578265 65.279823 
L 380.940086 65.365888 
L 381.301906 67.001111 
L 381.663727 67.603562 
L 382.025548 68.808464 
L 382.387369 66.656854 
L 382.749189 69.32485 
L 383.11101 66.656854 
L 383.472831 66.656854 
L 383.834652 66.312596 
L 384.196473 65.624081 
L 384.558293 64.24705 
L 384.920114 67.001111 
L 385.281935 67.087176 
L 385.643756 65.02163 
L 386.729218 66.742918 
L 387.45286 65.710145 
L 387.81468 65.107694 
L 388.176501 65.02163 
L 388.538322 66.915047 
L 388.900143 66.915047 
L 389.261963 65.279823 
L 389.623784 65.624081 
L 389.985605 66.828983 
L 390.347426 66.656854 
L 390.709247 66.054403 
L 391.071067 65.02163 
L 391.432888 67.517498 
L 391.794709 66.915047 
L 392.15653 65.710145 
L 392.51835 65.882274 
L 392.880171 68.894528 
L 393.241992 66.226532 
L 393.603813 66.140467 
L 393.965634 66.484725 
L 394.327454 68.206013 
L 394.689275 67.603562 
L 395.051096 65.882274 
L 395.412917 65.193759 
L 396.136558 67.001111 
L 396.498379 66.570789 
L 396.8602 65.02163 
L 397.22202 67.17324 
L 397.583841 66.915047 
L 397.945662 64.419179 
L 398.307483 65.451952 
L 398.669304 67.431433 
L 399.031124 66.140467 
L 399.392945 65.279823 
L 399.754766 65.365888 
L 400.116587 64.935566 
L 400.478407 65.710145 
L 400.840228 65.107694 
L 401.202049 66.570789 
L 401.56387 66.140467 
L 401.925691 68.378142 
L 402.287511 63.730664 
L 402.649332 65.279823 
L 403.011153 64.591308 
L 403.372974 66.054403 
L 403.734794 68.033884 
L 404.096615 66.915047 
L 404.458436 65.365888 
L 404.820257 67.087176 
L 405.182078 66.742918 
L 406.26754 64.763437 
L 406.629361 64.591308 
L 406.991181 64.160986 
L 407.353002 66.915047 
L 407.714823 66.570789 
L 408.076644 65.107694 
L 408.438465 66.742918 
L 408.800285 65.193759 
L 409.162106 65.365888 
L 409.523927 65.02163 
L 409.885748 65.79621 
L 410.247568 66.915047 
L 410.609389 66.312596 
L 410.97121 67.001111 
L 411.333031 64.419179 
L 411.694852 67.345369 
L 412.056672 66.054403 
L 412.418493 66.484725 
L 413.142135 65.538017 
L 413.503955 65.968339 
L 413.865776 67.259305 
L 414.589418 65.107694 
L 414.951238 67.689627 
L 415.313059 66.656854 
L 415.67488 63.730664 
L 416.036701 67.001111 
L 416.398522 64.677372 
L 416.760342 65.624081 
L 417.122163 65.451952 
L 417.483984 65.107694 
L 417.845805 65.968339 
L 418.207625 65.710145 
L 418.569446 66.570789 
L 418.931267 65.107694 
L 419.293088 66.398661 
L 419.654909 66.312596 
L 420.016729 64.24705 
L 420.37855 66.915047 
L 420.740371 65.538017 
L 421.102192 64.849501 
L 421.464012 65.538017 
L 421.825833 67.431433 
L 422.187654 66.226532 
L 422.549475 64.591308 
L 422.911296 63.988857 
L 423.273116 67.94782 
L 423.634937 66.054403 
L 423.996758 65.538017 
L 424.358579 65.365888 
L 424.720399 68.378142 
L 425.08222 64.333115 
L 425.444041 66.656854 
L 425.805862 65.451952 
L 426.167683 66.054403 
L 426.529503 65.193759 
L 426.891324 66.054403 
L 427.253145 65.02163 
L 427.614966 68.033884 
L 427.976786 65.107694 
L 428.338607 67.001111 
L 428.700428 65.451952 
L 429.062249 64.677372 
L 429.42407 64.677372 
L 429.78589 65.882274 
L 430.147711 64.935566 
L 430.871353 65.538017 
L 431.233173 65.279823 
L 431.594994 66.398661 
L 431.956815 65.710145 
L 432.318636 66.915047 
L 432.680456 65.882274 
L 433.042277 65.538017 
L 433.404098 67.17324 
L 433.765919 64.333115 
L 434.12774 64.160986 
L 434.48956 65.968339 
L 434.851381 65.193759 
L 435.213202 66.140467 
L 435.575023 66.054403 
L 435.936843 64.24705 
L 436.298664 66.054403 
L 436.660485 64.849501 
L 437.022306 64.763437 
L 437.384127 68.033884 
L 437.745947 65.968339 
L 438.107768 64.849501 
L 438.469589 65.624081 
L 438.83141 66.054403 
L 439.19323 64.074922 
L 439.555051 64.505244 
L 440.278693 67.431433 
L 441.002334 63.988857 
L 441.364155 64.160986 
L 441.725976 65.365888 
L 442.087797 64.505244 
L 442.449617 65.882274 
L 442.811438 65.02163 
L 443.53508 68.206013 
L 443.896901 64.160986 
L 444.258721 64.677372 
L 444.620542 66.915047 
L 444.982363 64.935566 
L 445.344184 64.419179 
L 445.706004 62.697891 
L 446.067825 66.054403 
L 446.429646 65.624081 
L 446.791467 65.882274 
L 447.153288 65.02163 
L 447.515108 66.140467 
L 447.876929 63.6446 
L 448.23875 66.828983 
L 448.600571 65.107694 
L 448.962391 65.538017 
L 449.324212 63.988857 
L 449.686033 65.79621 
L 450.047854 63.042149 
L 450.409674 64.763437 
L 450.771495 65.107694 
L 451.133316 64.591308 
L 451.495137 64.763437 
L 451.856958 63.300342 
L 452.218778 65.107694 
L 452.580599 63.386406 
L 453.304241 66.484725 
L 453.666061 64.160986 
L 454.027882 64.677372 
L 454.389703 63.472471 
L 454.751524 64.505244 
L 455.113345 65.107694 
L 455.475165 66.484725 
L 455.836986 64.935566 
L 456.198807 64.591308 
L 456.560628 66.140467 
L 456.922448 63.6446 
L 457.284269 66.054403 
L 457.64609 67.087176 
L 458.007911 65.279823 
L 458.369732 65.79621 
L 458.731552 65.365888 
L 459.093373 66.312596 
L 459.455194 64.419179 
L 459.817015 65.882274 
L 460.178835 64.074922 
L 460.540656 65.710145 
L 460.902477 65.710145 
L 461.264298 67.087176 
L 461.626119 64.591308 
L 461.987939 66.312596 
L 462.34976 65.451952 
L 462.711581 65.882274 
L 463.435222 63.558535 
L 463.797043 63.730664 
L 464.158864 67.001111 
L 464.520685 65.79621 
L 465.244326 64.333115 
L 465.606147 64.591308 
L 465.967968 64.24705 
L 466.329789 65.538017 
L 466.691609 65.624081 
L 467.415251 63.730664 
L 467.777072 66.570789 
L 468.138892 64.333115 
L 468.500713 64.074922 
L 468.862534 64.419179 
L 469.224355 63.300342 
L 469.586176 63.902793 
L 469.947996 65.279823 
L 470.309817 64.763437 
L 470.671638 62.267569 
L 471.033459 64.849501 
L 471.395279 65.107694 
L 471.7571 65.107694 
L 472.118921 64.419179 
L 472.480742 64.505244 
L 472.842563 65.365888 
L 473.204383 64.419179 
L 473.566204 65.624081 
L 473.928025 65.710145 
L 474.289846 65.538017 
L 474.651666 65.968339 
L 475.013487 64.935566 
L 475.375308 63.042149 
L 475.737129 66.484725 
L 476.09895 66.226532 
L 476.46077 65.710145 
L 476.822591 64.763437 
L 477.184412 66.484725 
L 477.546233 63.472471 
L 477.908053 64.763437 
L 478.269874 65.107694 
L 478.631695 64.24705 
L 478.993516 64.419179 
L 479.355337 63.816728 
L 479.717157 64.677372 
L 480.078978 66.226532 
L 480.440799 66.484725 
L 480.80262 66.398661 
L 481.16444 65.107694 
L 481.526261 64.591308 
L 481.888082 64.505244 
L 482.249903 62.956084 
L 482.611724 65.710145 
L 482.973544 66.140467 
L 483.335365 63.558535 
L 483.697186 63.300342 
L 484.059007 62.87002 
L 484.782648 66.054403 
L 485.144469 64.677372 
L 485.50629 67.689627 
L 485.86811 64.074922 
L 486.229931 66.742918 
L 486.591752 64.849501 
L 486.953573 64.24705 
L 487.315394 63.386406 
L 487.677214 63.558535 
L 488.039035 65.107694 
L 488.400856 63.902793 
L 488.762677 65.710145 
L 489.124497 63.472471 
L 489.486318 66.570789 
L 489.848139 63.6446 
L 490.20996 65.624081 
L 490.571781 64.419179 
L 490.933601 65.02163 
L 491.295422 64.763437 
L 491.657243 63.214278 
L 492.380884 65.365888 
L 492.742705 64.849501 
L 493.104526 64.074922 
L 493.466347 64.505244 
L 493.828168 64.677372 
L 494.551809 64.763437 
L 494.91363 64.849501 
L 495.275451 64.763437 
L 495.637271 65.710145 
L 495.999092 67.087176 
L 496.360913 65.79621 
L 496.722734 65.882274 
L 497.084555 63.6446 
L 497.446375 62.87002 
L 497.808196 65.624081 
L 498.170017 65.79621 
L 498.531838 66.140467 
L 498.893658 63.386406 
L 499.6173 65.710145 
L 499.979121 64.24705 
L 500.340942 63.472471 
L 501.064583 66.054403 
L 501.426404 65.538017 
L 501.788225 66.484725 
L 502.511866 63.988857 
L 502.873687 66.398661 
L 503.235508 64.763437 
L 503.597328 64.849501 
L 503.959149 65.279823 
L 504.32097 63.300342 
L 504.682791 65.107694 
L 505.044612 63.386406 
L 505.406432 65.624081 
L 505.768253 65.193759 
L 506.130074 65.107694 
L 506.491895 62.956084 
L 506.853715 63.128213 
L 507.215536 64.849501 
L 507.577357 62.525762 
L 507.939178 64.935566 
L 508.300999 65.107694 
L 508.662819 65.107694 
L 509.02464 63.214278 
L 509.386461 65.02163 
L 509.748282 64.419179 
L 510.110102 62.783956 
L 510.471923 65.193759 
L 510.833744 64.333115 
L 511.195565 66.484725 
L 511.557386 64.333115 
L 511.919206 66.742918 
L 512.281027 64.333115 
L 512.642848 65.882274 
L 513.004669 65.193759 
L 513.366489 67.517498 
L 513.72831 66.570789 
L 514.090131 65.193759 
L 514.451952 67.17324 
L 514.813773 63.816728 
L 515.175593 64.677372 
L 515.537414 67.17324 
L 515.899235 65.624081 
L 516.261056 65.710145 
L 516.622876 64.763437 
L 516.984697 64.24705 
L 517.346518 64.591308 
L 517.708339 63.6446 
L 518.07016 65.02163 
L 518.43198 63.6446 
L 518.793801 64.849501 
L 519.155622 64.677372 
L 519.517443 64.074922 
L 519.879263 64.24705 
L 520.241084 65.193759 
L 520.602905 64.677372 
L 520.964726 65.02163 
L 521.326546 62.353634 
L 521.688367 63.386406 
L 522.050188 63.816728 
L 522.412009 66.398661 
L 523.13565 63.472471 
L 523.497471 65.882274 
L 523.859292 63.042149 
L 524.221113 64.24705 
L 524.582933 64.074922 
L 524.944754 61.665118 
L 525.306575 64.935566 
L 525.668396 64.677372 
L 526.030217 65.624081 
L 526.392037 64.849501 
L 526.753858 64.419179 
L 527.115679 66.054403 
L 527.4775 62.783956 
L 528.201141 65.193759 
L 528.562962 62.439698 
L 529.286604 65.538017 
L 529.648424 64.419179 
L 530.010245 63.730664 
L 530.372066 66.140467 
L 530.733887 65.538017 
L 531.095707 64.24705 
L 531.457528 66.742918 
L 531.819349 63.558535 
L 532.18117 61.665118 
L 532.542991 63.988857 
L 532.904811 63.472471 
L 533.266632 65.107694 
L 533.628453 63.816728 
L 533.990274 63.128213 
L 534.352094 63.988857 
L 534.713915 66.398661 
L 535.075736 64.24705 
L 535.437557 63.300342 
L 535.799378 65.193759 
L 536.161198 65.365888 
L 536.523019 64.24705 
L 536.88484 64.763437 
L 537.246661 65.79621 
L 537.608481 65.624081 
L 537.970302 64.849501 
L 538.332123 64.935566 
L 538.693944 64.333115 
L 539.055764 66.915047 
L 539.417585 63.558535 
L 539.779406 66.226532 
L 540.141227 65.02163 
L 540.503048 61.665118 
L 540.864868 62.697891 
L 541.226689 63.214278 
L 541.58851 65.451952 
L 541.950331 62.353634 
L 542.312151 63.300342 
L 542.673972 65.451952 
L 543.035793 66.398661 
L 543.397614 64.505244 
L 543.759435 65.02163 
L 544.121255 64.591308 
L 544.483076 64.677372 
L 544.844897 63.902793 
L 545.206718 64.419179 
L 545.568538 62.783956 
L 545.930359 64.591308 
L 546.29218 62.353634 
L 546.654001 62.956084 
L 547.015822 62.783956 
L 547.377642 64.935566 
L 547.739463 63.730664 
L 548.463105 65.624081 
L 549.548567 62.525762 
L 549.910388 64.24705 
L 550.272209 64.591308 
L 550.634029 63.386406 
L 550.99585 64.935566 
L 551.357671 63.386406 
L 551.719492 64.763437 
L 552.081312 64.160986 
L 552.443133 64.505244 
L 552.804954 62.956084 
L 553.166775 64.333115 
L 553.528596 63.988857 
L 553.890416 64.849501 
L 554.252237 63.300342 
L 554.614058 63.558535 
L 554.975879 64.505244 
L 555.337699 64.677372 
L 555.69952 65.107694 
L 556.061341 64.935566 
L 556.423162 65.710145 
L 557.146803 63.902793 
L 557.508624 65.79621 
L 557.870445 64.849501 
L 558.232266 65.02163 
L 558.594086 64.591308 
L 558.955907 62.353634 
L 559.317728 63.902793 
L 559.679549 66.312596 
L 560.041369 65.710145 
L 560.40319 66.915047 
L 560.765011 65.193759 
L 561.126832 66.484725 
L 561.488653 64.160986 
L 561.850473 66.226532 
L 562.212294 63.988857 
L 562.574115 67.345369 
L 562.935936 64.24705 
L 563.297756 64.333115 
L 563.659577 64.24705 
L 564.021398 65.538017 
L 564.383219 65.107694 
L 564.74504 64.333115 
L 565.10686 65.710145 
L 565.468681 64.074922 
L 566.192323 65.882274 
L 566.915964 63.988857 
L 567.277785 64.24705 
L 567.639606 62.783956 
L 568.001427 65.882274 
L 568.363247 63.300342 
L 568.725068 64.677372 
L 569.086889 64.419179 
L 569.44871 64.763437 
L 569.81053 65.710145 
L 570.172351 64.074922 
L 570.534172 65.279823 
L 570.895993 64.763437 
L 571.257814 62.181505 
L 571.619634 63.300342 
L 571.981455 65.193759 
L 572.343276 63.730664 
L 572.705097 62.956084 
L 573.066917 64.160986 
L 573.428738 65.79621 
L 573.790559 64.074922 
L 574.15238 64.849501 
L 574.5142 64.333115 
L 574.876021 65.451952 
L 575.237842 65.365888 
L 575.599663 65.79621 
L 575.961484 65.02163 
L 576.323304 65.193759 
L 576.685125 62.956084 
L 577.046946 63.988857 
L 577.408767 63.214278 
L 577.770587 63.816728 
L 578.132408 63.988857 
L 579.217871 62.353634 
L 579.579691 64.935566 
L 579.941512 62.09544 
L 580.303333 63.558535 
L 580.665154 63.816728 
L 581.026974 62.611827 
L 581.388795 63.6446 
L 582.112437 67.431433 
L 582.474258 61.923311 
L 582.836078 64.591308 
L 583.197899 63.902793 
L 583.55972 64.160986 
L 584.283361 63.386406 
L 584.645182 65.279823 
L 585.007003 65.710145 
L 585.368824 63.988857 
L 585.730645 65.968339 
L 586.092465 63.730664 
L 586.454286 65.02163 
L 586.816107 63.214278 
L 587.177928 63.128213 
L 587.539748 63.6446 
L 587.901569 63.816728 
L 588.26339 64.935566 
L 588.625211 63.730664 
L 588.987032 66.226532 
L 589.348852 66.054403 
L 589.710673 62.525762 
L 590.072494 64.849501 
L 590.434315 63.386406 
L 590.796135 65.02163 
L 591.157956 64.24705 
L 591.881598 65.538017 
L 592.243418 66.054403 
L 592.605239 62.525762 
L 592.96706 62.87002 
L 593.328881 62.783956 
L 593.690702 65.624081 
L 594.052522 64.763437 
L 594.414343 65.538017 
L 595.137985 62.525762 
L 595.499805 66.226532 
L 595.861626 64.333115 
L 596.223447 64.591308 
L 596.585268 63.386406 
L 596.947089 64.505244 
L 597.308909 63.386406 
L 597.67073 66.570789 
L 598.032551 64.505244 
L 598.394372 63.214278 
L 598.756192 65.79621 
L 599.118013 63.558535 
L 599.479834 64.24705 
L 599.841655 64.074922 
L 600.203476 64.677372 
L 600.565296 65.710145 
L 600.927117 65.538017 
L 601.288938 64.505244 
L 601.650759 62.87002 
L 602.012579 63.300342 
L 602.3744 64.677372 
L 602.736221 63.300342 
L 603.459863 64.591308 
L 603.821683 64.935566 
L 604.183504 65.107694 
L 604.545325 65.107694 
L 604.907146 62.956084 
L 605.630787 63.6446 
L 605.992608 63.214278 
L 606.354429 63.042149 
L 606.71625 64.591308 
L 607.439891 62.697891 
L 607.801712 62.697891 
L 608.163533 65.79621 
L 608.525353 64.419179 
L 608.887174 65.279823 
L 609.610816 63.300342 
L 609.972636 64.763437 
L 610.334457 63.988857 
L 611.058099 63.558535 
L 611.41992 62.611827 
L 611.78174 64.160986 
L 612.505382 65.365888 
L 612.867203 61.665118 
L 613.229023 63.386406 
L 613.590844 64.505244 
L 613.952665 64.677372 
L 614.314486 65.02163 
L 614.676307 64.333115 
L 615.038127 64.505244 
L 615.399948 62.439698 
L 615.761769 65.02163 
L 616.12359 62.87002 
L 616.48541 64.074922 
L 616.847231 64.333115 
L 617.209052 65.279823 
L 617.570873 63.558535 
L 617.932694 65.538017 
L 618.294514 63.386406 
L 618.656335 63.902793 
L 619.018156 66.570789 
L 619.741797 62.611827 
L 620.103618 65.365888 
L 620.465439 65.624081 
L 620.82726 66.226532 
L 621.189081 63.730664 
L 621.550901 63.300342 
L 621.912722 64.505244 
L 622.274543 64.419179 
L 622.636364 67.001111 
L 622.636364 67.001111 
" style="fill:none;stroke:#ff7f0e;stroke-linecap:square;stroke-width:0.5;"/>
   </g>
   <g id="patch_3">
    <path d="M 90 315 
L 90 43.2 
" style="fill:none;stroke:#000000;stroke-linecap:square;stroke-linejoin:miter;stroke-width:0.8;"/>
   </g>
   <g id="patch_4">
    <path d="M 648 315 
L 648 43.2 
" style="fill:none;stroke:#000000;stroke-linecap:square;stroke-linejoin:miter;stroke-width:0.8;"/>
   </g>
   <g id="patch_5">
    <path d="M 90 315 
L 648 315 
" style="fill:none;stroke:#000000;stroke-linecap:square;stroke-linejoin:miter;stroke-width:0.8;"/>
   </g>
   <g id="patch_6">
    <path d="M 90 43.2 
L 648 43.2 
" style="fill:none;stroke:#000000;stroke-linecap:square;stroke-linejoin:miter;stroke-width:0.8;"/>
   </g>
   <g id="text_18">
    <!-- accuracy -->
    <g transform="translate(341.92875 37.2)scale(0.12 -0.12)">
     <use xlink:href="#DejaVuSans-97"/>
     <use x="61.279297" xlink:href="#DejaVuSans-99"/>
     <use x="116.259766" xlink:href="#DejaVuSans-99"/>
     <use x="171.240234" xlink:href="#DejaVuSans-117"/>
     <use x="234.619141" xlink:href="#DejaVuSans-114"/>
     <use x="275.732422" xlink:href="#DejaVuSans-97"/>
     <use x="337.011719" xlink:href="#DejaVuSans-99"/>
     <use x="391.992188" xlink:href="#DejaVuSans-121"/>
    </g>
   </g>
   <g id="legend_1">
    <g id="patch_7">
     <path d="M 97 80.55625 
L 169.153125 80.55625 
Q 171.153125 80.55625 171.153125 78.55625 
L 171.153125 50.2 
Q 171.153125 48.2 169.153125 48.2 
L 97 48.2 
Q 95 48.2 95 50.2 
L 95 78.55625 
Q 95 80.55625 97 80.55625 
z
" style="fill:#ffffff;opacity:0.8;stroke:#cccccc;stroke-linejoin:miter;"/>
    </g>
    <g id="line2d_33">
     <path d="M 99 56.298437 
L 119 56.298437 
" style="fill:none;stroke:#1f77b4;stroke-linecap:square;stroke-width:0.5;"/>
    </g>
    <g id="line2d_34"/>
    <g id="text_19">
     <!-- train -->
     <defs>
      <path d="M 18.3125 70.21875 
L 18.3125 54.6875 
L 36.8125 54.6875 
L 36.8125 47.703125 
L 18.3125 47.703125 
L 18.3125 18.015625 
Q 18.3125 11.328125 20.140625 9.421875 
Q 21.96875 7.515625 27.59375 7.515625 
L 36.8125 7.515625 
L 36.8125 0 
L 27.59375 0 
Q 17.1875 0 13.234375 3.875 
Q 9.28125 7.765625 9.28125 18.015625 
L 9.28125 47.703125 
L 2.6875 47.703125 
L 2.6875 54.6875 
L 9.28125 54.6875 
L 9.28125 70.21875 
z
" id="DejaVuSans-116"/>
      <path d="M 9.421875 54.6875 
L 18.40625 54.6875 
L 18.40625 0 
L 9.421875 0 
z
M 9.421875 75.984375 
L 18.40625 75.984375 
L 18.40625 64.59375 
L 9.421875 64.59375 
z
" id="DejaVuSans-105"/>
      <path d="M 54.890625 33.015625 
L 54.890625 0 
L 45.90625 0 
L 45.90625 32.71875 
Q 45.90625 40.484375 42.875 44.328125 
Q 39.84375 48.1875 33.796875 48.1875 
Q 26.515625 48.1875 22.3125 43.546875 
Q 18.109375 38.921875 18.109375 30.90625 
L 18.109375 0 
L 9.078125 0 
L 9.078125 54.6875 
L 18.109375 54.6875 
L 18.109375 46.1875 
Q 21.34375 51.125 25.703125 53.5625 
Q 30.078125 56 35.796875 56 
Q 45.21875 56 50.046875 50.171875 
Q 54.890625 44.34375 54.890625 33.015625 
z
" id="DejaVuSans-110"/>
     </defs>
     <g transform="translate(127 59.798437)scale(0.1 -0.1)">
      <use xlink:href="#DejaVuSans-116"/>
      <use x="39.208984" xlink:href="#DejaVuSans-114"/>
      <use x="80.322266" xlink:href="#DejaVuSans-97"/>
      <use x="141.601562" xlink:href="#DejaVuSans-105"/>
      <use x="169.384766" xlink:href="#DejaVuSans-110"/>
     </g>
    </g>
    <g id="line2d_35">
     <path d="M 99 70.976562 
L 119 70.976562 
" style="fill:none;stroke:#ff7f0e;stroke-linecap:square;stroke-width:0.5;"/>
    </g>
    <g id="line2d_36"/>
    <g id="text_20">
     <!-- validate -->
     <defs>
      <path d="M 2.984375 54.6875 
L 12.5 54.6875 
L 29.59375 8.796875 
L 46.6875 54.6875 
L 56.203125 54.6875 
L 35.6875 0 
L 23.484375 0 
z
" id="DejaVuSans-118"/>
      <path d="M 9.421875 75.984375 
L 18.40625 75.984375 
L 18.40625 0 
L 9.421875 0 
z
" id="DejaVuSans-108"/>
      <path d="M 45.40625 46.390625 
L 45.40625 75.984375 
L 54.390625 75.984375 
L 54.390625 0 
L 45.40625 0 
L 45.40625 8.203125 
Q 42.578125 3.328125 38.25 0.953125 
Q 33.9375 -1.421875 27.875 -1.421875 
Q 17.96875 -1.421875 11.734375 6.484375 
Q 5.515625 14.40625 5.515625 27.296875 
Q 5.515625 40.1875 11.734375 48.09375 
Q 17.96875 56 27.875 56 
Q 33.9375 56 38.25 53.625 
Q 42.578125 51.265625 45.40625 46.390625 
z
M 14.796875 27.296875 
Q 14.796875 17.390625 18.875 11.75 
Q 22.953125 6.109375 30.078125 6.109375 
Q 37.203125 6.109375 41.296875 11.75 
Q 45.40625 17.390625 45.40625 27.296875 
Q 45.40625 37.203125 41.296875 42.84375 
Q 37.203125 48.484375 30.078125 48.484375 
Q 22.953125 48.484375 18.875 42.84375 
Q 14.796875 37.203125 14.796875 27.296875 
z
" id="DejaVuSans-100"/>
     </defs>
     <g transform="translate(127 74.476562)scale(0.1 -0.1)">
      <use xlink:href="#DejaVuSans-118"/>
      <use x="59.179688" xlink:href="#DejaVuSans-97"/>
      <use x="120.458984" xlink:href="#DejaVuSans-108"/>
      <use x="148.242188" xlink:href="#DejaVuSans-105"/>
      <use x="176.025391" xlink:href="#DejaVuSans-100"/>
      <use x="239.501953" xlink:href="#DejaVuSans-97"/>
      <use x="300.78125" xlink:href="#DejaVuSans-116"/>
      <use x="339.990234" xlink:href="#DejaVuSans-101"/>
     </g>
    </g>
   </g>
  </g>
 </g>
 <defs>
  <clipPath id="p1d0cc2872e">
   <rect height="271.8" width="558" x="90" y="43.2"/>
  </clipPath>
 </defs>
</svg>
