<?xml version="1.0" encoding="utf-8" standalone="no"?>
<!DOCTYPE svg PUBLIC "-//W3C//DTD SVG 1.1//EN"
  "http://www.w3.org/Graphics/SVG/1.1/DTD/svg11.dtd">
<!-- Created with matplotlib (https://matplotlib.org/) -->
<svg height="360pt" version="1.1" viewBox="0 0 720 360" width="720pt" xmlns="http://www.w3.org/2000/svg" xmlns:xlink="http://www.w3.org/1999/xlink">
 <defs>
  <style type="text/css">
*{stroke-linecap:butt;stroke-linejoin:round;}
  </style>
 </defs>
 <g id="figure_1">
  <g id="patch_1">
   <path d="M 0 360 
L 720 360 
L 720 0 
L 0 0 
z
" style="fill:#ffffff;"/>
  </g>
  <g id="axes_1">
   <g id="patch_2">
    <path d="M 90 315 
L 648 315 
L 648 43.2 
L 90 43.2 
z
" style="fill:#ffffff;"/>
   </g>
   <g id="matplotlib.axis_1">
    <g id="xtick_1">
     <g id="line2d_1">
      <path clip-path="url(#pfa94010d9d)" d="M 115.363636 315 
L 115.363636 43.2 
" style="fill:none;stroke:#b0b0b0;stroke-linecap:square;stroke-width:0.8;"/>
     </g>
     <g id="line2d_2">
      <defs>
       <path d="M 0 0 
L 0 3.5 
" id="m840836b513" style="stroke:#000000;stroke-width:0.8;"/>
      </defs>
      <g>
       <use style="stroke:#000000;stroke-width:0.8;" x="115.363636" xlink:href="#m840836b513" y="315"/>
      </g>
     </g>
     <g id="text_1">
      <!-- 0 -->
      <defs>
       <path d="M 31.78125 66.40625 
Q 24.171875 66.40625 20.328125 58.90625 
Q 16.5 51.421875 16.5 36.375 
Q 16.5 21.390625 20.328125 13.890625 
Q 24.171875 6.390625 31.78125 6.390625 
Q 39.453125 6.390625 43.28125 13.890625 
Q 47.125 21.390625 47.125 36.375 
Q 47.125 51.421875 43.28125 58.90625 
Q 39.453125 66.40625 31.78125 66.40625 
z
M 31.78125 74.21875 
Q 44.046875 74.21875 50.515625 64.515625 
Q 56.984375 54.828125 56.984375 36.375 
Q 56.984375 17.96875 50.515625 8.265625 
Q 44.046875 -1.421875 31.78125 -1.421875 
Q 19.53125 -1.421875 13.0625 8.265625 
Q 6.59375 17.96875 6.59375 36.375 
Q 6.59375 54.828125 13.0625 64.515625 
Q 19.53125 74.21875 31.78125 74.21875 
z
" id="DejaVuSans-48"/>
      </defs>
      <g transform="translate(112.182386 329.598437)scale(0.1 -0.1)">
       <use xlink:href="#DejaVuSans-48"/>
      </g>
     </g>
    </g>
    <g id="xtick_2">
     <g id="line2d_3">
      <path clip-path="url(#pfa94010d9d)" d="M 187.727791 315 
L 187.727791 43.2 
" style="fill:none;stroke:#b0b0b0;stroke-linecap:square;stroke-width:0.8;"/>
     </g>
     <g id="line2d_4">
      <g>
       <use style="stroke:#000000;stroke-width:0.8;" x="187.727791" xlink:href="#m840836b513" y="315"/>
      </g>
     </g>
     <g id="text_2">
      <!-- 200 -->
      <defs>
       <path d="M 19.1875 8.296875 
L 53.609375 8.296875 
L 53.609375 0 
L 7.328125 0 
L 7.328125 8.296875 
Q 12.9375 14.109375 22.625 23.890625 
Q 32.328125 33.6875 34.8125 36.53125 
Q 39.546875 41.84375 41.421875 45.53125 
Q 43.3125 49.21875 43.3125 52.78125 
Q 43.3125 58.59375 39.234375 62.25 
Q 35.15625 65.921875 28.609375 65.921875 
Q 23.96875 65.921875 18.8125 64.3125 
Q 13.671875 62.703125 7.8125 59.421875 
L 7.8125 69.390625 
Q 13.765625 71.78125 18.9375 73 
Q 24.125 74.21875 28.421875 74.21875 
Q 39.75 74.21875 46.484375 68.546875 
Q 53.21875 62.890625 53.21875 53.421875 
Q 53.21875 48.921875 51.53125 44.890625 
Q 49.859375 40.875 45.40625 35.40625 
Q 44.1875 33.984375 37.640625 27.21875 
Q 31.109375 20.453125 19.1875 8.296875 
z
" id="DejaVuSans-50"/>
      </defs>
      <g transform="translate(178.184041 329.598437)scale(0.1 -0.1)">
       <use xlink:href="#DejaVuSans-50"/>
       <use x="63.623047" xlink:href="#DejaVuSans-48"/>
       <use x="127.246094" xlink:href="#DejaVuSans-48"/>
      </g>
     </g>
    </g>
    <g id="xtick_3">
     <g id="line2d_5">
      <path clip-path="url(#pfa94010d9d)" d="M 260.091947 315 
L 260.091947 43.2 
" style="fill:none;stroke:#b0b0b0;stroke-linecap:square;stroke-width:0.8;"/>
     </g>
     <g id="line2d_6">
      <g>
       <use style="stroke:#000000;stroke-width:0.8;" x="260.091947" xlink:href="#m840836b513" y="315"/>
      </g>
     </g>
     <g id="text_3">
      <!-- 400 -->
      <defs>
       <path d="M 37.796875 64.3125 
L 12.890625 25.390625 
L 37.796875 25.390625 
z
M 35.203125 72.90625 
L 47.609375 72.90625 
L 47.609375 25.390625 
L 58.015625 25.390625 
L 58.015625 17.1875 
L 47.609375 17.1875 
L 47.609375 0 
L 37.796875 0 
L 37.796875 17.1875 
L 4.890625 17.1875 
L 4.890625 26.703125 
z
" id="DejaVuSans-52"/>
      </defs>
      <g transform="translate(250.548197 329.598437)scale(0.1 -0.1)">
       <use xlink:href="#DejaVuSans-52"/>
       <use x="63.623047" xlink:href="#DejaVuSans-48"/>
       <use x="127.246094" xlink:href="#DejaVuSans-48"/>
      </g>
     </g>
    </g>
    <g id="xtick_4">
     <g id="line2d_7">
      <path clip-path="url(#pfa94010d9d)" d="M 332.456102 315 
L 332.456102 43.2 
" style="fill:none;stroke:#b0b0b0;stroke-linecap:square;stroke-width:0.8;"/>
     </g>
     <g id="line2d_8">
      <g>
       <use style="stroke:#000000;stroke-width:0.8;" x="332.456102" xlink:href="#m840836b513" y="315"/>
      </g>
     </g>
     <g id="text_4">
      <!-- 600 -->
      <defs>
       <path d="M 33.015625 40.375 
Q 26.375 40.375 22.484375 35.828125 
Q 18.609375 31.296875 18.609375 23.390625 
Q 18.609375 15.53125 22.484375 10.953125 
Q 26.375 6.390625 33.015625 6.390625 
Q 39.65625 6.390625 43.53125 10.953125 
Q 47.40625 15.53125 47.40625 23.390625 
Q 47.40625 31.296875 43.53125 35.828125 
Q 39.65625 40.375 33.015625 40.375 
z
M 52.59375 71.296875 
L 52.59375 62.3125 
Q 48.875 64.0625 45.09375 64.984375 
Q 41.3125 65.921875 37.59375 65.921875 
Q 27.828125 65.921875 22.671875 59.328125 
Q 17.53125 52.734375 16.796875 39.40625 
Q 19.671875 43.65625 24.015625 45.921875 
Q 28.375 48.1875 33.59375 48.1875 
Q 44.578125 48.1875 50.953125 41.515625 
Q 57.328125 34.859375 57.328125 23.390625 
Q 57.328125 12.15625 50.6875 5.359375 
Q 44.046875 -1.421875 33.015625 -1.421875 
Q 20.359375 -1.421875 13.671875 8.265625 
Q 6.984375 17.96875 6.984375 36.375 
Q 6.984375 53.65625 15.1875 63.9375 
Q 23.390625 74.21875 37.203125 74.21875 
Q 40.921875 74.21875 44.703125 73.484375 
Q 48.484375 72.75 52.59375 71.296875 
z
" id="DejaVuSans-54"/>
      </defs>
      <g transform="translate(322.912352 329.598437)scale(0.1 -0.1)">
       <use xlink:href="#DejaVuSans-54"/>
       <use x="63.623047" xlink:href="#DejaVuSans-48"/>
       <use x="127.246094" xlink:href="#DejaVuSans-48"/>
      </g>
     </g>
    </g>
    <g id="xtick_5">
     <g id="line2d_9">
      <path clip-path="url(#pfa94010d9d)" d="M 404.820257 315 
L 404.820257 43.2 
" style="fill:none;stroke:#b0b0b0;stroke-linecap:square;stroke-width:0.8;"/>
     </g>
     <g id="line2d_10">
      <g>
       <use style="stroke:#000000;stroke-width:0.8;" x="404.820257" xlink:href="#m840836b513" y="315"/>
      </g>
     </g>
     <g id="text_5">
      <!-- 800 -->
      <defs>
       <path d="M 31.78125 34.625 
Q 24.75 34.625 20.71875 30.859375 
Q 16.703125 27.09375 16.703125 20.515625 
Q 16.703125 13.921875 20.71875 10.15625 
Q 24.75 6.390625 31.78125 6.390625 
Q 38.8125 6.390625 42.859375 10.171875 
Q 46.921875 13.96875 46.921875 20.515625 
Q 46.921875 27.09375 42.890625 30.859375 
Q 38.875 34.625 31.78125 34.625 
z
M 21.921875 38.8125 
Q 15.578125 40.375 12.03125 44.71875 
Q 8.5 49.078125 8.5 55.328125 
Q 8.5 64.0625 14.71875 69.140625 
Q 20.953125 74.21875 31.78125 74.21875 
Q 42.671875 74.21875 48.875 69.140625 
Q 55.078125 64.0625 55.078125 55.328125 
Q 55.078125 49.078125 51.53125 44.71875 
Q 48 40.375 41.703125 38.8125 
Q 48.828125 37.15625 52.796875 32.3125 
Q 56.78125 27.484375 56.78125 20.515625 
Q 56.78125 9.90625 50.3125 4.234375 
Q 43.84375 -1.421875 31.78125 -1.421875 
Q 19.734375 -1.421875 13.25 4.234375 
Q 6.78125 9.90625 6.78125 20.515625 
Q 6.78125 27.484375 10.78125 32.3125 
Q 14.796875 37.15625 21.921875 38.8125 
z
M 18.3125 54.390625 
Q 18.3125 48.734375 21.84375 45.5625 
Q 25.390625 42.390625 31.78125 42.390625 
Q 38.140625 42.390625 41.71875 45.5625 
Q 45.3125 48.734375 45.3125 54.390625 
Q 45.3125 60.0625 41.71875 63.234375 
Q 38.140625 66.40625 31.78125 66.40625 
Q 25.390625 66.40625 21.84375 63.234375 
Q 18.3125 60.0625 18.3125 54.390625 
z
" id="DejaVuSans-56"/>
      </defs>
      <g transform="translate(395.276507 329.598437)scale(0.1 -0.1)">
       <use xlink:href="#DejaVuSans-56"/>
       <use x="63.623047" xlink:href="#DejaVuSans-48"/>
       <use x="127.246094" xlink:href="#DejaVuSans-48"/>
      </g>
     </g>
    </g>
    <g id="xtick_6">
     <g id="line2d_11">
      <path clip-path="url(#pfa94010d9d)" d="M 477.184412 315 
L 477.184412 43.2 
" style="fill:none;stroke:#b0b0b0;stroke-linecap:square;stroke-width:0.8;"/>
     </g>
     <g id="line2d_12">
      <g>
       <use style="stroke:#000000;stroke-width:0.8;" x="477.184412" xlink:href="#m840836b513" y="315"/>
      </g>
     </g>
     <g id="text_6">
      <!-- 1000 -->
      <defs>
       <path d="M 12.40625 8.296875 
L 28.515625 8.296875 
L 28.515625 63.921875 
L 10.984375 60.40625 
L 10.984375 69.390625 
L 28.421875 72.90625 
L 38.28125 72.90625 
L 38.28125 8.296875 
L 54.390625 8.296875 
L 54.390625 0 
L 12.40625 0 
z
" id="DejaVuSans-49"/>
      </defs>
      <g transform="translate(464.459412 329.598437)scale(0.1 -0.1)">
       <use xlink:href="#DejaVuSans-49"/>
       <use x="63.623047" xlink:href="#DejaVuSans-48"/>
       <use x="127.246094" xlink:href="#DejaVuSans-48"/>
       <use x="190.869141" xlink:href="#DejaVuSans-48"/>
      </g>
     </g>
    </g>
    <g id="xtick_7">
     <g id="line2d_13">
      <path clip-path="url(#pfa94010d9d)" d="M 549.548567 315 
L 549.548567 43.2 
" style="fill:none;stroke:#b0b0b0;stroke-linecap:square;stroke-width:0.8;"/>
     </g>
     <g id="line2d_14">
      <g>
       <use style="stroke:#000000;stroke-width:0.8;" x="549.548567" xlink:href="#m840836b513" y="315"/>
      </g>
     </g>
     <g id="text_7">
      <!-- 1200 -->
      <g transform="translate(536.823567 329.598437)scale(0.1 -0.1)">
       <use xlink:href="#DejaVuSans-49"/>
       <use x="63.623047" xlink:href="#DejaVuSans-50"/>
       <use x="127.246094" xlink:href="#DejaVuSans-48"/>
       <use x="190.869141" xlink:href="#DejaVuSans-48"/>
      </g>
     </g>
    </g>
    <g id="xtick_8">
     <g id="line2d_15">
      <path clip-path="url(#pfa94010d9d)" d="M 621.912722 315 
L 621.912722 43.2 
" style="fill:none;stroke:#b0b0b0;stroke-linecap:square;stroke-width:0.8;"/>
     </g>
     <g id="line2d_16">
      <g>
       <use style="stroke:#000000;stroke-width:0.8;" x="621.912722" xlink:href="#m840836b513" y="315"/>
      </g>
     </g>
     <g id="text_8">
      <!-- 1400 -->
      <g transform="translate(609.187722 329.598437)scale(0.1 -0.1)">
       <use xlink:href="#DejaVuSans-49"/>
       <use x="63.623047" xlink:href="#DejaVuSans-52"/>
       <use x="127.246094" xlink:href="#DejaVuSans-48"/>
       <use x="190.869141" xlink:href="#DejaVuSans-48"/>
      </g>
     </g>
    </g>
    <g id="text_9">
     <!-- epoch -->
     <defs>
      <path d="M 56.203125 29.59375 
L 56.203125 25.203125 
L 14.890625 25.203125 
Q 15.484375 15.921875 20.484375 11.0625 
Q 25.484375 6.203125 34.421875 6.203125 
Q 39.59375 6.203125 44.453125 7.46875 
Q 49.3125 8.734375 54.109375 11.28125 
L 54.109375 2.78125 
Q 49.265625 0.734375 44.1875 -0.34375 
Q 39.109375 -1.421875 33.890625 -1.421875 
Q 20.796875 -1.421875 13.15625 6.1875 
Q 5.515625 13.8125 5.515625 26.8125 
Q 5.515625 40.234375 12.765625 48.109375 
Q 20.015625 56 32.328125 56 
Q 43.359375 56 49.78125 48.890625 
Q 56.203125 41.796875 56.203125 29.59375 
z
M 47.21875 32.234375 
Q 47.125 39.59375 43.09375 43.984375 
Q 39.0625 48.390625 32.421875 48.390625 
Q 24.90625 48.390625 20.390625 44.140625 
Q 15.875 39.890625 15.1875 32.171875 
z
" id="DejaVuSans-101"/>
      <path d="M 18.109375 8.203125 
L 18.109375 -20.796875 
L 9.078125 -20.796875 
L 9.078125 54.6875 
L 18.109375 54.6875 
L 18.109375 46.390625 
Q 20.953125 51.265625 25.265625 53.625 
Q 29.59375 56 35.59375 56 
Q 45.5625 56 51.78125 48.09375 
Q 58.015625 40.1875 58.015625 27.296875 
Q 58.015625 14.40625 51.78125 6.484375 
Q 45.5625 -1.421875 35.59375 -1.421875 
Q 29.59375 -1.421875 25.265625 0.953125 
Q 20.953125 3.328125 18.109375 8.203125 
z
M 48.6875 27.296875 
Q 48.6875 37.203125 44.609375 42.84375 
Q 40.53125 48.484375 33.40625 48.484375 
Q 26.265625 48.484375 22.1875 42.84375 
Q 18.109375 37.203125 18.109375 27.296875 
Q 18.109375 17.390625 22.1875 11.75 
Q 26.265625 6.109375 33.40625 6.109375 
Q 40.53125 6.109375 44.609375 11.75 
Q 48.6875 17.390625 48.6875 27.296875 
z
" id="DejaVuSans-112"/>
      <path d="M 30.609375 48.390625 
Q 23.390625 48.390625 19.1875 42.75 
Q 14.984375 37.109375 14.984375 27.296875 
Q 14.984375 17.484375 19.15625 11.84375 
Q 23.34375 6.203125 30.609375 6.203125 
Q 37.796875 6.203125 41.984375 11.859375 
Q 46.1875 17.53125 46.1875 27.296875 
Q 46.1875 37.015625 41.984375 42.703125 
Q 37.796875 48.390625 30.609375 48.390625 
z
M 30.609375 56 
Q 42.328125 56 49.015625 48.375 
Q 55.71875 40.765625 55.71875 27.296875 
Q 55.71875 13.875 49.015625 6.21875 
Q 42.328125 -1.421875 30.609375 -1.421875 
Q 18.84375 -1.421875 12.171875 6.21875 
Q 5.515625 13.875 5.515625 27.296875 
Q 5.515625 40.765625 12.171875 48.375 
Q 18.84375 56 30.609375 56 
z
" id="DejaVuSans-111"/>
      <path d="M 48.78125 52.59375 
L 48.78125 44.1875 
Q 44.96875 46.296875 41.140625 47.34375 
Q 37.3125 48.390625 33.40625 48.390625 
Q 24.65625 48.390625 19.8125 42.84375 
Q 14.984375 37.3125 14.984375 27.296875 
Q 14.984375 17.28125 19.8125 11.734375 
Q 24.65625 6.203125 33.40625 6.203125 
Q 37.3125 6.203125 41.140625 7.25 
Q 44.96875 8.296875 48.78125 10.40625 
L 48.78125 2.09375 
Q 45.015625 0.34375 40.984375 -0.53125 
Q 36.96875 -1.421875 32.421875 -1.421875 
Q 20.0625 -1.421875 12.78125 6.34375 
Q 5.515625 14.109375 5.515625 27.296875 
Q 5.515625 40.671875 12.859375 48.328125 
Q 20.21875 56 33.015625 56 
Q 37.15625 56 41.109375 55.140625 
Q 45.0625 54.296875 48.78125 52.59375 
z
" id="DejaVuSans-99"/>
      <path d="M 54.890625 33.015625 
L 54.890625 0 
L 45.90625 0 
L 45.90625 32.71875 
Q 45.90625 40.484375 42.875 44.328125 
Q 39.84375 48.1875 33.796875 48.1875 
Q 26.515625 48.1875 22.3125 43.546875 
Q 18.109375 38.921875 18.109375 30.90625 
L 18.109375 0 
L 9.078125 0 
L 9.078125 75.984375 
L 18.109375 75.984375 
L 18.109375 46.1875 
Q 21.34375 51.125 25.703125 53.5625 
Q 30.078125 56 35.796875 56 
Q 45.21875 56 50.046875 50.171875 
Q 54.890625 44.34375 54.890625 33.015625 
z
" id="DejaVuSans-104"/>
     </defs>
     <g transform="translate(353.771875 343.276563)scale(0.1 -0.1)">
      <use xlink:href="#DejaVuSans-101"/>
      <use x="61.523438" xlink:href="#DejaVuSans-112"/>
      <use x="125" xlink:href="#DejaVuSans-111"/>
      <use x="186.181641" xlink:href="#DejaVuSans-99"/>
      <use x="241.162109" xlink:href="#DejaVuSans-104"/>
     </g>
    </g>
   </g>
   <g id="matplotlib.axis_2">
    <g id="ytick_1">
     <g id="line2d_17">
      <path clip-path="url(#pfa94010d9d)" d="M 90 289.062452 
L 648 289.062452 
" style="fill:none;stroke:#b0b0b0;stroke-linecap:square;stroke-width:0.8;"/>
     </g>
     <g id="line2d_18">
      <defs>
       <path d="M 0 0 
L -3.5 0 
" id="mac63c893a7" style="stroke:#000000;stroke-width:0.8;"/>
      </defs>
      <g>
       <use style="stroke:#000000;stroke-width:0.8;" x="90" xlink:href="#mac63c893a7" y="289.062452"/>
      </g>
     </g>
     <g id="text_10">
      <!-- 0.2 -->
      <defs>
       <path d="M 10.6875 12.40625 
L 21 12.40625 
L 21 0 
L 10.6875 0 
z
" id="DejaVuSans-46"/>
      </defs>
      <g transform="translate(67.096875 292.86167)scale(0.1 -0.1)">
       <use xlink:href="#DejaVuSans-48"/>
       <use x="63.623047" xlink:href="#DejaVuSans-46"/>
       <use x="95.410156" xlink:href="#DejaVuSans-50"/>
      </g>
     </g>
    </g>
    <g id="ytick_2">
     <g id="line2d_19">
      <path clip-path="url(#pfa94010d9d)" d="M 90 256.460107 
L 648 256.460107 
" style="fill:none;stroke:#b0b0b0;stroke-linecap:square;stroke-width:0.8;"/>
     </g>
     <g id="line2d_20">
      <g>
       <use style="stroke:#000000;stroke-width:0.8;" x="90" xlink:href="#mac63c893a7" y="256.460107"/>
      </g>
     </g>
     <g id="text_11">
      <!-- 0.4 -->
      <g transform="translate(67.096875 260.259325)scale(0.1 -0.1)">
       <use xlink:href="#DejaVuSans-48"/>
       <use x="63.623047" xlink:href="#DejaVuSans-46"/>
       <use x="95.410156" xlink:href="#DejaVuSans-52"/>
      </g>
     </g>
    </g>
    <g id="ytick_3">
     <g id="line2d_21">
      <path clip-path="url(#pfa94010d9d)" d="M 90 223.857762 
L 648 223.857762 
" style="fill:none;stroke:#b0b0b0;stroke-linecap:square;stroke-width:0.8;"/>
     </g>
     <g id="line2d_22">
      <g>
       <use style="stroke:#000000;stroke-width:0.8;" x="90" xlink:href="#mac63c893a7" y="223.857762"/>
      </g>
     </g>
     <g id="text_12">
      <!-- 0.6 -->
      <g transform="translate(67.096875 227.65698)scale(0.1 -0.1)">
       <use xlink:href="#DejaVuSans-48"/>
       <use x="63.623047" xlink:href="#DejaVuSans-46"/>
       <use x="95.410156" xlink:href="#DejaVuSans-54"/>
      </g>
     </g>
    </g>
    <g id="ytick_4">
     <g id="line2d_23">
      <path clip-path="url(#pfa94010d9d)" d="M 90 191.255417 
L 648 191.255417 
" style="fill:none;stroke:#b0b0b0;stroke-linecap:square;stroke-width:0.8;"/>
     </g>
     <g id="line2d_24">
      <g>
       <use style="stroke:#000000;stroke-width:0.8;" x="90" xlink:href="#mac63c893a7" y="191.255417"/>
      </g>
     </g>
     <g id="text_13">
      <!-- 0.8 -->
      <g transform="translate(67.096875 195.054635)scale(0.1 -0.1)">
       <use xlink:href="#DejaVuSans-48"/>
       <use x="63.623047" xlink:href="#DejaVuSans-46"/>
       <use x="95.410156" xlink:href="#DejaVuSans-56"/>
      </g>
     </g>
    </g>
    <g id="ytick_5">
     <g id="line2d_25">
      <path clip-path="url(#pfa94010d9d)" d="M 90 158.653072 
L 648 158.653072 
" style="fill:none;stroke:#b0b0b0;stroke-linecap:square;stroke-width:0.8;"/>
     </g>
     <g id="line2d_26">
      <g>
       <use style="stroke:#000000;stroke-width:0.8;" x="90" xlink:href="#mac63c893a7" y="158.653072"/>
      </g>
     </g>
     <g id="text_14">
      <!-- 1.0 -->
      <g transform="translate(67.096875 162.45229)scale(0.1 -0.1)">
       <use xlink:href="#DejaVuSans-49"/>
       <use x="63.623047" xlink:href="#DejaVuSans-46"/>
       <use x="95.410156" xlink:href="#DejaVuSans-48"/>
      </g>
     </g>
    </g>
    <g id="ytick_6">
     <g id="line2d_27">
      <path clip-path="url(#pfa94010d9d)" d="M 90 126.050726 
L 648 126.050726 
" style="fill:none;stroke:#b0b0b0;stroke-linecap:square;stroke-width:0.8;"/>
     </g>
     <g id="line2d_28">
      <g>
       <use style="stroke:#000000;stroke-width:0.8;" x="90" xlink:href="#mac63c893a7" y="126.050726"/>
      </g>
     </g>
     <g id="text_15">
      <!-- 1.2 -->
      <g transform="translate(67.096875 129.849945)scale(0.1 -0.1)">
       <use xlink:href="#DejaVuSans-49"/>
       <use x="63.623047" xlink:href="#DejaVuSans-46"/>
       <use x="95.410156" xlink:href="#DejaVuSans-50"/>
      </g>
     </g>
    </g>
    <g id="ytick_7">
     <g id="line2d_29">
      <path clip-path="url(#pfa94010d9d)" d="M 90 93.448381 
L 648 93.448381 
" style="fill:none;stroke:#b0b0b0;stroke-linecap:square;stroke-width:0.8;"/>
     </g>
     <g id="line2d_30">
      <g>
       <use style="stroke:#000000;stroke-width:0.8;" x="90" xlink:href="#mac63c893a7" y="93.448381"/>
      </g>
     </g>
     <g id="text_16">
      <!-- 1.4 -->
      <g transform="translate(67.096875 97.2476)scale(0.1 -0.1)">
       <use xlink:href="#DejaVuSans-49"/>
       <use x="63.623047" xlink:href="#DejaVuSans-46"/>
       <use x="95.410156" xlink:href="#DejaVuSans-52"/>
      </g>
     </g>
    </g>
    <g id="ytick_8">
     <g id="line2d_31">
      <path clip-path="url(#pfa94010d9d)" d="M 90 60.846036 
L 648 60.846036 
" style="fill:none;stroke:#b0b0b0;stroke-linecap:square;stroke-width:0.8;"/>
     </g>
     <g id="line2d_32">
      <g>
       <use style="stroke:#000000;stroke-width:0.8;" x="90" xlink:href="#mac63c893a7" y="60.846036"/>
      </g>
     </g>
     <g id="text_17">
      <!-- 1.6 -->
      <g transform="translate(67.096875 64.645255)scale(0.1 -0.1)">
       <use xlink:href="#DejaVuSans-49"/>
       <use x="63.623047" xlink:href="#DejaVuSans-46"/>
       <use x="95.410156" xlink:href="#DejaVuSans-54"/>
      </g>
     </g>
    </g>
    <g id="text_18">
     <!-- loss -->
     <defs>
      <path d="M 9.421875 75.984375 
L 18.40625 75.984375 
L 18.40625 0 
L 9.421875 0 
z
" id="DejaVuSans-108"/>
      <path d="M 44.28125 53.078125 
L 44.28125 44.578125 
Q 40.484375 46.53125 36.375 47.5 
Q 32.28125 48.484375 27.875 48.484375 
Q 21.1875 48.484375 17.84375 46.4375 
Q 14.5 44.390625 14.5 40.28125 
Q 14.5 37.15625 16.890625 35.375 
Q 19.28125 33.59375 26.515625 31.984375 
L 29.59375 31.296875 
Q 39.15625 29.25 43.1875 25.515625 
Q 47.21875 21.78125 47.21875 15.09375 
Q 47.21875 7.46875 41.1875 3.015625 
Q 35.15625 -1.421875 24.609375 -1.421875 
Q 20.21875 -1.421875 15.453125 -0.5625 
Q 10.6875 0.296875 5.421875 2 
L 5.421875 11.28125 
Q 10.40625 8.6875 15.234375 7.390625 
Q 20.0625 6.109375 24.8125 6.109375 
Q 31.15625 6.109375 34.5625 8.28125 
Q 37.984375 10.453125 37.984375 14.40625 
Q 37.984375 18.0625 35.515625 20.015625 
Q 33.0625 21.96875 24.703125 23.78125 
L 21.578125 24.515625 
Q 13.234375 26.265625 9.515625 29.90625 
Q 5.8125 33.546875 5.8125 39.890625 
Q 5.8125 47.609375 11.28125 51.796875 
Q 16.75 56 26.8125 56 
Q 31.78125 56 36.171875 55.265625 
Q 40.578125 54.546875 44.28125 53.078125 
z
" id="DejaVuSans-115"/>
     </defs>
     <g transform="translate(61.017187 188.757812)rotate(-90)scale(0.1 -0.1)">
      <use xlink:href="#DejaVuSans-108"/>
      <use x="27.783203" xlink:href="#DejaVuSans-111"/>
      <use x="88.964844" xlink:href="#DejaVuSans-115"/>
      <use x="141.064453" xlink:href="#DejaVuSans-115"/>
     </g>
    </g>
   </g>
   <g id="line2d_33">
    <path clip-path="url(#pfa94010d9d)" d="M 115.363636 55.554545 
L 115.725457 65.263233 
L 116.087278 66.93795 
L 116.810919 72.83311 
L 117.17274 74.462199 
L 117.534561 77.894366 
L 118.258203 80.054604 
L 118.620023 80.61813 
L 118.981844 79.453918 
L 119.343665 82.806946 
L 120.067306 82.033175 
L 120.429127 86.230604 
L 120.790948 82.55164 
L 121.152769 86.71816 
L 121.51459 89.175945 
L 121.87641 87.945169 
L 122.600052 91.13408 
L 122.961873 88.919045 
L 123.323693 94.541846 
L 124.047335 95.064224 
L 124.409156 97.051448 
L 124.770977 98.319728 
L 125.132797 100.315956 
L 125.494618 103.610451 
L 126.21826 105.959 
L 127.303722 117.153761 
L 127.665543 117.58532 
L 128.027364 123.290828 
L 128.389184 126.328378 
L 128.751005 132.252078 
L 129.112826 135.053552 
L 130.198288 147.399103 
L 130.560109 150.458781 
L 130.92193 150.831614 
L 131.645571 158.842458 
L 132.007392 159.526772 
L 132.369213 161.72838 
L 132.731034 165.871319 
L 133.092854 165.125846 
L 133.816496 168.666085 
L 134.178317 169.128715 
L 134.540137 172.79722 
L 134.901958 173.311452 
L 135.6256 177.609269 
L 136.349241 182.042401 
L 136.711062 182.886766 
L 137.072883 182.806552 
L 137.434704 187.646489 
L 137.796524 187.804115 
L 138.158345 189.01564 
L 138.520166 191.21632 
L 138.881987 194.84024 
L 139.243808 191.57024 
L 139.605628 196.652322 
L 139.967449 195.76843 
L 140.32927 199.423675 
L 140.691091 199.795832 
L 141.414732 204.39936 
L 141.776553 200.836056 
L 142.138374 204.785845 
L 142.500195 207.13462 
L 142.862015 207.551987 
L 143.223836 208.463531 
L 143.947478 213.991028 
L 144.309298 212.196415 
L 145.03294 216.636298 
L 145.394761 220.100478 
L 145.756582 215.030229 
L 146.118402 220.054861 
L 146.480223 218.375783 
L 146.842044 221.893861 
L 147.203865 223.476666 
L 147.565685 220.055816 
L 147.927506 224.051655 
L 148.289327 223.696369 
L 148.651148 226.766519 
L 149.374789 227.355818 
L 149.73661 230.317309 
L 150.098431 228.488987 
L 150.460252 230.40978 
L 150.822072 229.266732 
L 151.183893 233.76883 
L 151.545714 227.839984 
L 151.907535 231.063149 
L 152.269355 232.423129 
L 152.631176 234.266996 
L 152.992997 234.635771 
L 153.354818 236.700261 
L 153.716639 237.453497 
L 154.078459 234.218142 
L 154.802101 237.330237 
L 155.163922 237.864936 
L 155.525742 237.097255 
L 155.887563 241.115954 
L 156.611205 237.598455 
L 156.973026 238.784647 
L 157.334846 242.783227 
L 157.696667 243.07876 
L 158.058488 244.671962 
L 158.420309 239.186059 
L 158.782129 245.72631 
L 159.14395 245.452114 
L 159.505771 244.955068 
L 159.867592 245.858651 
L 160.229413 244.327433 
L 160.591233 249.442675 
L 160.953054 245.555161 
L 161.314875 247.615979 
L 161.676696 248.886049 
L 162.038516 247.028111 
L 162.400337 248.542247 
L 162.762158 250.990823 
L 163.123979 249.024894 
L 163.4858 252.652559 
L 163.84762 250.869723 
L 164.209441 252.869626 
L 164.571262 253.766894 
L 164.933083 251.468171 
L 165.294903 253.018168 
L 165.656724 255.464828 
L 166.018545 255.560596 
L 166.380366 254.772309 
L 166.742186 255.070015 
L 167.104007 255.059656 
L 167.465828 255.242471 
L 167.827649 254.75987 
L 168.18947 258.599634 
L 168.55129 255.478176 
L 168.913111 255.849601 
L 169.274932 258.733022 
L 169.636753 258.43847 
L 169.998573 256.996627 
L 170.360394 257.944738 
L 170.722215 259.981084 
L 171.084036 256.35563 
L 171.445857 261.692625 
L 171.807677 259.623049 
L 172.169498 260.243183 
L 172.531319 260.0799 
L 173.25496 262.344861 
L 173.616781 262.125507 
L 173.978602 258.517423 
L 174.702244 262.203203 
L 175.064064 262.650481 
L 175.425885 261.860887 
L 175.787706 262.530368 
L 176.149527 264.557729 
L 176.511347 262.437233 
L 176.873168 265.85666 
L 177.234989 262.65478 
L 177.59681 263.91744 
L 177.958631 264.640404 
L 178.320451 263.141035 
L 178.682272 262.607255 
L 179.044093 263.173531 
L 179.767734 264.584776 
L 180.129555 266.472438 
L 180.491376 266.555932 
L 180.853197 265.603164 
L 181.215018 266.770966 
L 181.576838 266.722802 
L 181.938659 265.123838 
L 182.30048 265.52671 
L 182.662301 267.369126 
L 183.024121 264.154559 
L 183.385942 266.517671 
L 183.747763 267.76549 
L 184.109584 266.898662 
L 184.471404 267.87003 
L 184.833225 269.474584 
L 185.195046 269.847291 
L 185.556867 266.978353 
L 185.918688 270.443324 
L 186.280508 269.032117 
L 186.642329 270.603145 
L 187.00415 270.830129 
L 187.365971 269.736084 
L 187.727791 270.232501 
L 188.089612 269.481061 
L 188.451433 271.342716 
L 189.175075 269.60415 
L 189.536895 269.828089 
L 189.898716 269.288867 
L 190.260537 272.168998 
L 190.622358 269.761864 
L 190.984178 270.333319 
L 191.345999 270.600494 
L 191.70782 270.180786 
L 192.069641 271.415148 
L 192.431462 269.973758 
L 192.793282 271.380362 
L 193.155103 271.739973 
L 193.516924 271.291346 
L 193.878745 270.316101 
L 194.240565 273.430568 
L 194.602386 270.045532 
L 194.964207 274.042813 
L 195.326028 274.33086 
L 196.049669 269.704522 
L 196.41149 271.877239 
L 196.773311 272.029875 
L 197.135132 273.029686 
L 197.496952 273.021573 
L 197.858773 271.313127 
L 198.220594 274.901667 
L 198.582415 272.887683 
L 198.944236 274.86163 
L 199.306056 273.375054 
L 199.667877 274.608585 
L 200.029698 274.909136 
L 200.391519 272.985824 
L 200.753339 275.311029 
L 201.11516 274.048363 
L 201.838802 276.036521 
L 202.200622 273.082807 
L 202.562443 273.738828 
L 202.924264 278.427886 
L 203.286085 274.269332 
L 204.009726 273.017332 
L 204.371547 275.602879 
L 204.733368 274.12203 
L 205.095189 276.330084 
L 205.81883 274.925036 
L 206.180651 276.856745 
L 206.542472 275.102958 
L 206.904293 276.065321 
L 207.266113 276.557816 
L 207.627934 276.368539 
L 207.989755 276.943709 
L 208.351576 277.20347 
L 208.713396 275.540321 
L 209.075217 275.937428 
L 209.437038 277.999222 
L 210.16068 275.258738 
L 210.5225 278.035 
L 210.884321 277.631184 
L 211.246142 277.685677 
L 211.607963 277.459182 
L 211.969783 276.750309 
L 212.331604 277.392086 
L 213.055246 276.290582 
L 213.417067 276.263423 
L 213.778887 274.63789 
L 214.502529 278.108347 
L 214.86435 281.40553 
L 215.22617 278.478581 
L 215.587991 278.250758 
L 215.949812 277.323415 
L 216.311633 278.294065 
L 217.035274 278.604321 
L 217.397095 277.903099 
L 217.758916 279.44613 
L 218.120737 278.976897 
L 218.482557 279.700081 
L 218.844378 278.215831 
L 219.206199 280.749964 
L 219.56802 280.920608 
L 219.92984 279.267282 
L 220.291661 279.895144 
L 220.653482 277.934338 
L 221.015303 279.884539 
L 221.377124 279.902642 
L 221.738944 279.249592 
L 222.462586 280.36749 
L 222.824407 280.898811 
L 223.186227 277.898894 
L 223.548048 277.331016 
L 223.909869 279.845339 
L 224.27169 280.167526 
L 224.633511 278.015862 
L 224.995331 281.407163 
L 225.357152 282.066128 
L 225.718973 280.769863 
L 226.080794 281.223058 
L 226.442614 283.414373 
L 226.804435 280.480373 
L 227.166256 276.175303 
L 227.889898 282.226644 
L 228.251718 280.08666 
L 228.613539 280.338388 
L 228.97536 281.539331 
L 229.337181 280.847997 
L 229.699001 282.387642 
L 230.060822 282.669849 
L 230.422643 280.933248 
L 230.784464 282.061766 
L 231.146285 281.077321 
L 231.508105 282.874131 
L 231.869926 281.77516 
L 232.231747 282.357851 
L 232.593568 280.416566 
L 232.955388 280.343031 
L 233.317209 281.392403 
L 234.040851 280.060842 
L 234.402672 279.821759 
L 234.764492 282.703371 
L 235.126313 282.025573 
L 235.488134 282.344282 
L 235.849955 284.107932 
L 236.211775 281.210136 
L 236.573596 282.32265 
L 236.935417 280.487031 
L 237.297238 282.228913 
L 237.659058 280.663159 
L 238.020879 283.252003 
L 238.3827 282.677409 
L 238.744521 283.623546 
L 239.468162 283.098287 
L 239.829983 282.669484 
L 240.553625 285.02263 
L 240.915445 283.123745 
L 241.277266 283.877498 
L 241.639087 283.121451 
L 242.000908 281.660912 
L 242.362729 281.418735 
L 242.724549 283.893473 
L 243.08637 282.692526 
L 243.448191 284.680407 
L 243.810012 284.531933 
L 244.171832 284.755388 
L 244.533653 284.551828 
L 244.895474 283.63909 
L 245.257295 282.357144 
L 245.619116 284.792395 
L 245.980936 284.07162 
L 246.342757 285.811729 
L 246.704578 282.897245 
L 247.428219 286.946431 
L 247.79004 283.81375 
L 248.151861 287.025174 
L 248.513682 284.828855 
L 248.875503 285.465181 
L 249.237323 283.476109 
L 249.599144 284.630378 
L 249.960965 284.801403 
L 250.684606 284.11285 
L 251.046427 285.663049 
L 251.408248 282.886162 
L 251.770069 284.090416 
L 252.13189 286.49078 
L 252.49371 285.029863 
L 252.855531 284.938998 
L 253.217352 284.199804 
L 253.579173 281.232346 
L 254.302814 286.38983 
L 254.664635 284.395803 
L 255.026456 285.471522 
L 255.388276 284.263413 
L 255.750097 284.915534 
L 256.111918 286.836289 
L 256.473739 283.218146 
L 256.83556 285.486887 
L 257.19738 286.575742 
L 257.559201 284.494238 
L 257.921022 284.467769 
L 258.282843 285.29026 
L 258.644663 284.77891 
L 259.006484 284.07415 
L 259.368305 284.649794 
L 259.730126 286.115635 
L 260.091947 284.371062 
L 260.453767 285.035025 
L 260.815588 286.262226 
L 261.177409 286.888585 
L 261.53923 286.548014 
L 261.90105 284.407135 
L 262.262871 286.043012 
L 262.624692 285.69143 
L 262.986513 285.628859 
L 263.348334 285.995722 
L 263.710154 284.97105 
L 264.071975 286.698818 
L 264.433796 287.513907 
L 264.795617 286.424792 
L 265.157437 287.016902 
L 265.519258 286.500969 
L 265.881079 287.625535 
L 266.2429 284.446956 
L 266.604721 287.494786 
L 266.966541 288.725559 
L 267.690183 286.354908 
L 268.052004 286.548297 
L 268.413824 289.065422 
L 268.775645 287.188619 
L 269.137466 288.271694 
L 269.499287 288.841625 
L 269.861108 284.428529 
L 270.222928 283.472798 
L 270.584749 287.566838 
L 270.94657 285.708431 
L 271.308391 286.196019 
L 271.670211 285.598434 
L 272.032032 286.940322 
L 272.393853 287.190957 
L 272.755674 287.17874 
L 273.117494 287.580751 
L 273.479315 287.812398 
L 273.841136 287.34107 
L 274.202957 285.099005 
L 274.926598 285.910812 
L 275.65024 288.064346 
L 276.012061 288.489251 
L 276.373881 286.357867 
L 276.735702 287.07909 
L 277.097523 286.605022 
L 277.459344 287.978703 
L 277.821165 287.27048 
L 278.182985 288.361984 
L 278.544806 288.105128 
L 278.906627 288.662916 
L 279.268448 286.380031 
L 279.630268 288.832203 
L 279.992089 288.032583 
L 280.35391 287.958641 
L 280.715731 290.077598 
L 281.077552 287.899324 
L 281.439372 287.52452 
L 281.801193 290.035329 
L 282.163014 285.743386 
L 282.524835 287.103084 
L 282.886655 287.092791 
L 283.248476 286.820602 
L 283.610297 288.82227 
L 283.972118 287.187536 
L 284.333939 289.378626 
L 284.695759 287.51968 
L 285.05758 286.827082 
L 285.419401 289.534425 
L 285.781222 286.913265 
L 286.504863 289.880354 
L 286.866684 288.083124 
L 287.228505 288.295101 
L 287.590326 289.471351 
L 287.952146 289.245948 
L 288.313967 290.941974 
L 288.675788 288.185255 
L 289.037609 290.467961 
L 289.76125 286.124048 
L 290.123071 286.044159 
L 290.484892 288.469644 
L 290.846712 288.654833 
L 291.208533 288.51785 
L 291.570354 287.217736 
L 291.932175 291.673219 
L 292.293996 290.369253 
L 292.655816 289.563293 
L 293.017637 289.504041 
L 293.379458 287.774795 
L 293.741279 288.994292 
L 294.103099 288.183219 
L 294.46492 287.981655 
L 294.826741 291.854113 
L 295.188562 291.347523 
L 295.550383 288.967556 
L 295.912203 288.623432 
L 296.274024 289.197402 
L 296.635845 288.030318 
L 296.997666 290.68515 
L 297.359486 289.295309 
L 297.721307 288.948074 
L 298.083128 289.624551 
L 298.444949 287.656925 
L 298.80677 288.588691 
L 299.892232 290.035599 
L 300.254053 288.063007 
L 300.615873 290.02384 
L 300.977694 290.015034 
L 301.339515 289.176063 
L 301.701336 292.113942 
L 302.063157 289.985545 
L 302.424977 288.964605 
L 302.786798 287.30617 
L 303.148619 289.256432 
L 303.51044 288.562144 
L 303.87226 288.966927 
L 304.234081 289.090649 
L 304.595902 290.503797 
L 304.957723 289.429819 
L 305.319544 293.750229 
L 305.681364 290.968928 
L 306.043185 289.215938 
L 306.405006 291.876458 
L 306.766827 291.300979 
L 307.128647 288.037268 
L 307.490468 291.158004 
L 307.852289 287.352793 
L 308.21411 290.955478 
L 308.937751 286.335834 
L 309.299572 289.786602 
L 309.661393 289.735179 
L 310.023214 290.217637 
L 310.385034 291.999849 
L 310.746855 292.079249 
L 311.108676 291.115315 
L 311.470497 293.542887 
L 311.832317 290.439367 
L 312.555959 289.248408 
L 312.91778 290.107901 
L 313.279601 289.571309 
L 313.641421 289.522363 
L 314.003242 292.930831 
L 314.365063 288.68227 
L 314.726884 288.746006 
L 315.450525 290.376178 
L 315.812346 288.873105 
L 316.174167 290.714802 
L 316.535988 290.452878 
L 316.897808 290.455805 
L 317.259629 292.268308 
L 317.62145 288.420096 
L 318.706912 291.017215 
L 319.068733 288.511595 
L 319.430554 290.616877 
L 319.792375 291.194633 
L 320.154195 290.549875 
L 320.516016 292.874351 
L 321.239658 292.404847 
L 321.601478 292.903664 
L 321.963299 291.867835 
L 322.32512 287.095653 
L 322.686941 291.274912 
L 323.048762 291.722369 
L 323.410582 290.709907 
L 323.772403 290.144598 
L 324.134224 290.024351 
L 324.496045 290.306194 
L 324.857865 288.393507 
L 325.219686 291.529996 
L 325.581507 290.866424 
L 325.943328 292.92581 
L 326.305148 292.031699 
L 326.666969 293.707541 
L 327.02879 292.454154 
L 327.390611 289.772159 
L 327.752432 290.491892 
L 328.114252 292.327727 
L 328.837894 287.607262 
L 329.199715 291.459141 
L 329.561535 289.430801 
L 329.923356 293.975108 
L 330.285177 290.201272 
L 330.646998 292.696516 
L 331.008819 292.64157 
L 331.370639 291.344646 
L 331.73246 291.10243 
L 332.094281 290.644166 
L 332.456102 290.582832 
L 332.817922 290.779794 
L 333.179743 289.043647 
L 333.541564 291.576695 
L 333.903385 292.796553 
L 334.265206 290.897484 
L 334.627026 290.575635 
L 334.988847 292.738484 
L 335.350668 292.381604 
L 336.074309 290.675103 
L 336.43613 291.054142 
L 336.797951 291.730479 
L 337.159772 291.56497 
L 337.521593 292.923335 
L 337.883413 291.618302 
L 338.245234 294.037541 
L 338.968876 292.042582 
L 339.692517 293.639683 
L 340.054338 292.086882 
L 340.416159 294.81534 
L 340.77798 291.381658 
L 341.1398 291.303788 
L 341.863442 292.587794 
L 342.225263 292.269987 
L 342.587083 289.891952 
L 342.948904 290.208421 
L 343.310725 292.68323 
L 343.672546 294.207225 
L 344.034366 294.557991 
L 344.396187 290.513836 
L 344.758008 291.778806 
L 345.119829 291.397383 
L 345.48165 292.04954 
L 345.84347 292.940227 
L 346.205291 292.459952 
L 346.567112 293.49401 
L 346.928933 292.558983 
L 347.290753 292.610357 
L 347.652574 290.553688 
L 348.014395 292.668013 
L 348.376216 290.939805 
L 348.738037 291.025866 
L 349.099857 293.552237 
L 349.461678 293.160461 
L 349.823499 291.398104 
L 350.18532 291.276254 
L 350.54714 292.432473 
L 350.908961 291.613787 
L 351.270782 293.560731 
L 351.632603 291.740922 
L 352.356244 294.175738 
L 352.718065 291.002898 
L 353.079886 292.352009 
L 353.441707 292.79777 
L 353.803527 291.085228 
L 354.165348 293.30809 
L 354.527169 292.831213 
L 354.88899 293.317875 
L 355.250811 291.764866 
L 355.612631 290.91039 
L 355.974452 294.802198 
L 356.336273 292.947069 
L 356.698094 290.417964 
L 357.059914 292.968496 
L 357.421735 293.717674 
L 357.783556 293.528452 
L 358.145377 290.081341 
L 358.507198 293.861595 
L 358.869018 292.862993 
L 359.230839 293.386838 
L 359.59266 292.020705 
L 359.954481 293.73921 
L 360.316301 294.721712 
L 360.678122 293.89452 
L 361.039943 293.569242 
L 361.401764 292.287173 
L 361.763584 294.068476 
L 362.125405 291.615965 
L 362.487226 295.63807 
L 362.849047 293.858428 
L 363.210868 292.786113 
L 363.572688 293.494611 
L 363.934509 295.144437 
L 364.29633 293.019578 
L 364.658151 292.438301 
L 365.019971 292.678479 
L 365.381792 290.201334 
L 365.743613 293.966612 
L 366.105434 293.867962 
L 366.467255 292.841193 
L 366.829075 292.363646 
L 367.190896 293.409534 
L 367.552717 291.986627 
L 367.914538 291.711125 
L 368.276358 292.762917 
L 368.638179 294.514604 
L 369 292.109851 
L 369.361821 294.760935 
L 369.723642 291.606183 
L 370.085462 290.754416 
L 370.447283 292.348269 
L 370.809104 291.862003 
L 371.170925 295.722687 
L 371.894566 291.189271 
L 372.256387 295.179857 
L 372.618208 292.013887 
L 373.70367 294.7992 
L 374.065491 293.017948 
L 374.427312 291.853734 
L 374.789132 291.860275 
L 375.150953 294.311489 
L 375.512774 292.845054 
L 375.874595 292.269271 
L 376.236416 293.886729 
L 376.598236 294.870074 
L 376.960057 293.381182 
L 377.321878 293.240979 
L 377.683699 292.48592 
L 378.045519 294.724423 
L 378.40734 294.137732 
L 378.769161 291.55395 
L 379.130982 294.877108 
L 379.492802 295.132099 
L 380.216444 293.999656 
L 380.578265 295.689455 
L 380.940086 295.636861 
L 381.301906 294.166341 
L 382.025548 295.110488 
L 382.387369 293.688393 
L 382.749189 294.858403 
L 383.11101 294.344017 
L 383.472831 291.874324 
L 383.834652 295.431428 
L 384.196473 292.005146 
L 384.558293 294.6486 
L 384.920114 293.813333 
L 385.281935 293.501333 
L 385.643756 292.425155 
L 386.005576 293.8618 
L 386.367397 294.226074 
L 386.729218 296.749142 
L 387.091039 294.566675 
L 387.45286 293.889481 
L 387.81468 294.622408 
L 388.176501 296.275775 
L 388.538322 295.266427 
L 388.900143 295.897107 
L 389.261963 294.17477 
L 389.623784 293.759561 
L 389.985605 294.221775 
L 390.347426 295.948208 
L 390.709247 294.091488 
L 391.071067 294.244825 
L 391.432888 294.749596 
L 391.794709 294.74496 
L 392.15653 293.032311 
L 392.51835 296.230113 
L 392.880171 293.747899 
L 393.241992 292.98525 
L 393.603813 294.54489 
L 393.965634 291.595006 
L 394.327454 292.923481 
L 394.689275 295.453827 
L 395.051096 295.104652 
L 395.412917 295.75079 
L 395.774737 295.411903 
L 396.136558 293.180151 
L 396.498379 294.20363 
L 396.8602 294.673829 
L 397.22202 295.572497 
L 397.583841 291.816813 
L 397.945662 296.322955 
L 398.307483 292.67612 
L 398.669304 291.517125 
L 399.031124 295.893773 
L 399.392945 296.627342 
L 399.754766 294.343625 
L 400.116587 295.277202 
L 400.478407 296.528526 
L 400.840228 296.240298 
L 401.202049 294.57901 
L 401.56387 296.066632 
L 401.925691 295.710825 
L 402.287511 296.454193 
L 402.649332 293.410804 
L 403.372974 295.675744 
L 403.734794 295.317134 
L 404.096615 295.302899 
L 404.458436 295.776943 
L 404.820257 295.475145 
L 405.182078 294.776682 
L 405.543898 294.600677 
L 405.905719 294.72685 
L 406.26754 295.732988 
L 407.353002 295.760688 
L 407.714823 296.746626 
L 408.076644 295.879033 
L 408.438465 292.937595 
L 408.800285 295.673642 
L 409.162106 293.046156 
L 409.523927 295.109256 
L 409.885748 294.158528 
L 410.247568 296.039199 
L 410.609389 294.760352 
L 410.97121 295.851953 
L 411.333031 292.815121 
L 411.694852 295.779262 
L 412.056672 294.953887 
L 412.780314 295.404677 
L 413.142135 295.071643 
L 413.503955 293.950462 
L 413.865776 295.72232 
L 414.227597 295.662168 
L 414.589418 295.184953 
L 414.951238 294.19077 
L 415.313059 295.02128 
L 415.67488 291.279261 
L 416.036701 296.119762 
L 416.398522 295.816144 
L 416.760342 295.816078 
L 417.122163 295.106442 
L 417.483984 294.814494 
L 417.845805 295.00782 
L 418.207625 296.172137 
L 418.569446 295.640705 
L 418.931267 297.363362 
L 419.654909 295.865727 
L 420.016729 294.735663 
L 420.37855 294.967697 
L 420.740371 295.060471 
L 421.102192 294.297618 
L 421.464012 296.78218 
L 421.825833 296.190424 
L 422.187654 292.960047 
L 422.549475 295.74597 
L 422.911296 294.887273 
L 423.273116 295.625011 
L 423.634937 296.05249 
L 423.996758 292.457317 
L 424.358579 293.828875 
L 424.720399 294.446397 
L 425.08222 296.05736 
L 425.444041 296.694896 
L 425.805862 296.640021 
L 426.167683 296.122876 
L 426.529503 296.142328 
L 426.891324 295.066979 
L 427.253145 298.5602 
L 427.614966 295.821095 
L 427.976786 295.262796 
L 428.338607 294.092204 
L 428.700428 296.313128 
L 429.062249 296.815322 
L 429.42407 297.072434 
L 429.78589 296.316302 
L 430.147711 296.863188 
L 430.509532 296.22295 
L 430.871353 297.614142 
L 431.233173 295.505479 
L 431.594994 296.738761 
L 431.956815 296.367326 
L 432.318636 298.207193 
L 432.680456 296.239736 
L 433.042277 297.066075 
L 433.404098 296.926076 
L 433.765919 297.328505 
L 434.48956 294.689261 
L 435.213202 298.575791 
L 435.575023 296.44347 
L 435.936843 297.602913 
L 436.298664 294.035008 
L 436.660485 295.634837 
L 437.022306 295.559594 
L 437.745947 296.202485 
L 438.107768 295.336658 
L 438.469589 297.042627 
L 438.83141 296.121943 
L 439.19323 296.86536 
L 439.555051 296.915382 
L 439.916872 295.025637 
L 440.278693 298.306614 
L 440.640514 296.109672 
L 441.002334 294.740187 
L 441.364155 296.236527 
L 441.725976 295.783198 
L 442.087797 297.638204 
L 442.449617 296.223722 
L 442.811438 298.148083 
L 443.173259 295.18231 
L 443.53508 297.494054 
L 443.896901 297.446469 
L 444.258721 296.216425 
L 444.620542 297.316981 
L 444.982363 296.50074 
L 445.344184 296.605451 
L 445.706004 296.576448 
L 446.067825 297.110305 
L 446.429646 297.260828 
L 446.791467 295.082354 
L 447.153288 296.790544 
L 447.515108 295.335526 
L 447.876929 297.500288 
L 448.23875 296.658189 
L 448.600571 296.319149 
L 448.962391 295.27175 
L 449.686033 297.285885 
L 450.047854 296.772383 
L 450.409674 296.839012 
L 450.771495 296.100343 
L 451.133316 295.939014 
L 451.495137 297.580655 
L 451.856958 297.331494 
L 452.218778 296.24827 
L 452.94242 297.844506 
L 453.304241 295.927602 
L 453.666061 296.955349 
L 454.027882 296.873879 
L 454.389703 297.016621 
L 454.751524 296.639314 
L 455.113345 295.309185 
L 455.475165 296.207759 
L 455.836986 295.584259 
L 456.198807 296.367483 
L 456.560628 294.545412 
L 456.922448 296.5682 
L 457.284269 296.563502 
L 457.64609 294.747501 
L 458.007911 295.19397 
L 458.731552 293.706592 
L 459.093373 296.148046 
L 459.455194 296.713034 
L 459.817015 296.213202 
L 460.178835 295.437021 
L 460.540656 296.273473 
L 460.902477 295.042384 
L 461.626119 297.484878 
L 461.987939 296.666312 
L 462.711581 297.260054 
L 463.073402 296.037404 
L 463.435222 295.467628 
L 463.797043 295.29238 
L 464.158864 296.709599 
L 464.520685 296.156448 
L 464.882506 297.951572 
L 465.244326 295.873148 
L 465.606147 298.031312 
L 465.967968 297.598027 
L 466.691609 294.256909 
L 467.05343 297.420061 
L 467.415251 297.680299 
L 467.777072 296.715471 
L 468.138892 294.817024 
L 468.500713 298.913217 
L 468.862534 298.761025 
L 469.224355 299.244273 
L 469.586176 296.08023 
L 469.947996 297.76659 
L 470.309817 297.945495 
L 470.671638 296.000469 
L 471.033459 296.967107 
L 471.395279 300.345472 
L 471.7571 295.283354 
L 472.118921 295.796404 
L 472.842563 298.826065 
L 473.204383 297.772226 
L 473.566204 297.529696 
L 473.928025 296.743447 
L 474.289846 296.624778 
L 474.651666 297.500735 
L 475.013487 295.43258 
L 475.375308 297.410075 
L 475.737129 297.230792 
L 476.46077 297.110777 
L 476.822591 294.998357 
L 477.184412 296.933837 
L 477.546233 296.578246 
L 477.908053 295.533918 
L 478.269874 295.214425 
L 478.631695 295.344778 
L 478.993516 297.433301 
L 479.355337 296.022008 
L 479.717157 296.43388 
L 480.078978 297.721322 
L 480.440799 297.037021 
L 480.80262 297.518599 
L 481.16444 295.620038 
L 481.526261 295.908297 
L 481.888082 296.688409 
L 482.249903 295.74018 
L 482.973544 297.38526 
L 483.335365 296.77589 
L 483.697186 299.036509 
L 484.059007 299.339826 
L 484.420827 298.575725 
L 484.782648 296.622525 
L 485.144469 296.459606 
L 485.50629 296.595204 
L 485.86811 297.062191 
L 486.591752 297.57942 
L 486.953573 296.977592 
L 487.315394 295.503421 
L 487.677214 297.268797 
L 488.039035 298.152506 
L 488.400856 297.592814 
L 488.762677 300.123073 
L 489.124497 297.899837 
L 489.486318 296.587896 
L 489.848139 299.066901 
L 490.20996 298.075156 
L 490.571781 299.160614 
L 490.933601 296.361842 
L 491.295422 297.225484 
L 491.657243 295.121272 
L 492.019064 296.659101 
L 492.380884 298.832338 
L 492.742705 298.3913 
L 493.104526 295.470703 
L 493.466347 299.177142 
L 493.828168 299.304334 
L 494.189988 297.74121 
L 494.551809 299.852018 
L 494.91363 299.281624 
L 495.275451 294.840563 
L 495.637271 298.709779 
L 495.999092 298.248972 
L 496.360913 296.799719 
L 496.722734 296.824388 
L 497.446375 297.93535 
L 497.808196 297.516381 
L 498.531838 298.273025 
L 498.893658 298.928199 
L 499.255479 297.878062 
L 499.6173 297.624168 
L 499.979121 299.183299 
L 500.340942 295.776393 
L 500.702762 294.980963 
L 501.064583 296.340429 
L 501.426404 298.57055 
L 502.150045 299.248839 
L 502.511866 297.467254 
L 502.873687 296.628079 
L 503.597328 299.587063 
L 503.959149 299.398585 
L 504.32097 298.867586 
L 504.682791 297.70608 
L 505.044612 297.129782 
L 505.406432 297.4222 
L 505.768253 295.337803 
L 506.130074 296.918565 
L 506.491895 299.800993 
L 506.853715 299.545641 
L 507.215536 299.785972 
L 507.577357 299.847502 
L 507.939178 298.567558 
L 508.300999 298.195262 
L 508.662819 298.681471 
L 509.02464 296.638332 
L 509.386461 296.59813 
L 509.748282 297.924711 
L 510.110102 298.812925 
L 510.471923 298.170663 
L 510.833744 297.0705 
L 511.195565 297.591768 
L 511.557386 297.804951 
L 511.919206 298.541425 
L 512.281027 298.044771 
L 512.642848 300.060231 
L 513.004669 297.505171 
L 513.72831 298.44584 
L 514.090131 297.636636 
L 514.813773 297.753938 
L 515.175593 298.708009 
L 515.537414 298.145918 
L 515.899235 298.24747 
L 516.261056 297.564472 
L 516.622876 298.512129 
L 516.984697 296.827774 
L 517.346518 297.980643 
L 517.708339 296.861705 
L 518.43198 300.945765 
L 518.793801 298.394411 
L 519.155622 297.279325 
L 519.517443 297.226909 
L 520.241084 298.530829 
L 520.602905 297.287499 
L 520.964726 297.557199 
L 521.326546 299.342785 
L 521.688367 297.907184 
L 522.050188 298.043201 
L 522.412009 297.658392 
L 522.77383 297.873791 
L 523.13565 297.87224 
L 523.497471 294.387167 
L 523.859292 299.41168 
L 524.221113 297.691557 
L 524.582933 297.279798 
L 524.944754 299.346055 
L 525.306575 299.187782 
L 525.668396 301.70471 
L 526.030217 299.526492 
L 526.392037 300.272126 
L 526.753858 297.83613 
L 527.115679 298.495497 
L 527.4775 297.321849 
L 527.83932 298.498862 
L 528.201141 298.430021 
L 528.562962 298.906531 
L 528.924783 299.716689 
L 529.286604 298.363183 
L 529.648424 299.628698 
L 530.010245 297.94935 
L 530.372066 298.664543 
L 530.733887 297.2979 
L 531.095707 298.735884 
L 531.457528 300.769017 
L 531.819349 298.111291 
L 532.18117 298.791936 
L 532.542991 297.786091 
L 532.904811 297.670531 
L 533.266632 299.950087 
L 533.628453 296.797742 
L 533.990274 296.975374 
L 534.352094 298.174799 
L 534.713915 297.02406 
L 535.075736 297.241465 
L 535.437557 299.755825 
L 536.161198 298.885883 
L 536.523019 297.290782 
L 536.88484 297.12373 
L 537.246661 299.748857 
L 537.608481 301.210181 
L 537.970302 299.898202 
L 538.332123 299.642011 
L 538.693944 298.87365 
L 539.055764 298.690075 
L 539.417585 296.937255 
L 539.779406 296.974072 
L 540.141227 298.254196 
L 540.503048 298.06483 
L 540.864868 299.038822 
L 541.58851 297.236072 
L 542.312151 298.519301 
L 542.673972 297.27612 
L 543.035793 298.896819 
L 543.397614 298.554919 
L 543.759435 298.952827 
L 544.121255 300.668785 
L 544.483076 300.989728 
L 544.844897 298.680298 
L 545.206718 299.529872 
L 545.568538 299.92317 
L 545.930359 298.907346 
L 546.29218 300.821981 
L 546.654001 297.965284 
L 547.015822 298.086401 
L 547.377642 297.265331 
L 547.739463 297.40064 
L 548.101284 299.429144 
L 548.463105 299.711583 
L 548.824925 298.19362 
L 549.186746 298.861832 
L 549.548567 300.36873 
L 549.910388 298.347145 
L 550.272209 297.901935 
L 550.634029 298.100638 
L 550.99585 299.443075 
L 551.357671 301.758426 
L 551.719492 298.653412 
L 552.081312 298.597893 
L 552.443133 298.129731 
L 553.166775 299.75848 
L 553.528596 299.479397 
L 553.890416 299.869972 
L 554.252237 297.448421 
L 554.614058 297.68489 
L 554.975879 300.388234 
L 555.337699 299.378368 
L 555.69952 297.75101 
L 556.061341 300.65369 
L 557.146803 297.240783 
L 557.508624 297.86357 
L 558.232266 300.618746 
L 558.594086 301.191987 
L 558.955907 298.520841 
L 559.317728 298.726535 
L 559.679549 298.791221 
L 560.041369 299.364851 
L 560.40319 300.874531 
L 560.765011 301.170199 
L 561.126832 298.069875 
L 561.488653 298.9242 
L 561.850473 298.926604 
L 562.212294 300.349706 
L 562.574115 297.844316 
L 563.297756 299.832767 
L 563.659577 298.412706 
L 564.021398 300.007313 
L 564.383219 298.712983 
L 564.74504 300.531296 
L 565.10686 297.231558 
L 565.468681 299.429835 
L 565.830502 298.980138 
L 566.192323 299.583045 
L 566.915964 298.894634 
L 567.277785 299.353606 
L 567.639606 300.868931 
L 568.001427 301.026903 
L 568.363247 298.297634 
L 568.725068 298.272891 
L 569.086889 299.07441 
L 569.44871 297.544387 
L 569.81053 299.94462 
L 570.172351 300.713503 
L 570.534172 298.69125 
L 570.895993 298.629517 
L 571.619634 301.008258 
L 572.343276 298.128101 
L 572.705097 301.007098 
L 573.066917 298.577586 
L 573.428738 299.714075 
L 573.790559 297.511403 
L 574.5142 299.852515 
L 574.876021 300.420043 
L 575.237842 298.69634 
L 575.599663 298.452969 
L 575.961484 298.568542 
L 576.685125 300.488694 
L 577.046946 300.24994 
L 577.408767 299.124801 
L 577.770587 301.401743 
L 578.132408 297.458659 
L 578.494229 299.933923 
L 578.85605 300.358069 
L 579.217871 299.871234 
L 579.579691 299.96809 
L 579.941512 298.499163 
L 580.303333 298.430804 
L 580.665154 300.603422 
L 581.026974 298.683023 
L 581.388795 298.374627 
L 581.750616 298.990924 
L 582.112437 301.262276 
L 582.474258 300.371125 
L 582.836078 300.595391 
L 583.197899 299.280345 
L 583.55972 301.377355 
L 583.921541 298.538099 
L 584.283361 298.76067 
L 584.645182 298.648757 
L 585.007003 299.496714 
L 585.368824 298.622225 
L 585.730645 298.587321 
L 586.092465 300.728064 
L 586.816107 298.058248 
L 587.177928 297.674499 
L 587.539748 300.975253 
L 587.901569 298.951611 
L 588.26339 297.823457 
L 588.625211 301.585191 
L 588.987032 300.171899 
L 589.348852 300.872499 
L 589.710673 298.594323 
L 590.072494 299.778244 
L 590.434315 299.682324 
L 590.796135 300.179608 
L 591.157956 300.021376 
L 591.519777 299.511033 
L 591.881598 300.753862 
L 592.243418 298.705198 
L 592.605239 297.763843 
L 592.96706 298.280773 
L 593.328881 300.510065 
L 593.690702 298.39145 
L 594.052522 299.562452 
L 594.414343 300.068888 
L 594.776164 300.232945 
L 595.137985 298.505853 
L 595.499805 299.285727 
L 595.861626 299.720364 
L 596.223447 301.999895 
L 596.585268 299.625134 
L 596.947089 298.602994 
L 597.308909 301.217064 
L 597.67073 299.676088 
L 598.032551 299.504612 
L 598.394372 302.645455 
L 598.756192 298.831772 
L 599.118013 297.984409 
L 599.479834 300.95615 
L 599.841655 298.617037 
L 600.203476 300.631933 
L 600.565296 299.366756 
L 600.927117 299.761216 
L 601.288938 300.753708 
L 601.650759 298.959927 
L 602.012579 300.638501 
L 602.3744 300.624796 
L 602.736221 297.980758 
L 603.098042 300.757263 
L 603.459863 299.612989 
L 603.821683 300.59465 
L 604.183504 299.123029 
L 604.545325 299.400773 
L 604.907146 299.490243 
L 605.630787 301.162474 
L 605.992608 299.664761 
L 606.354429 301.112648 
L 606.71625 300.314307 
L 607.07807 298.961746 
L 607.439891 298.46653 
L 607.801712 299.259516 
L 608.163533 299.736413 
L 608.525353 301.392911 
L 609.248995 298.373894 
L 609.610816 301.168982 
L 610.334457 299.209067 
L 610.696278 298.619192 
L 611.058099 300.788197 
L 611.41992 300.11245 
L 611.78174 301.466876 
L 612.143561 299.123463 
L 612.505382 301.551894 
L 612.867203 299.833708 
L 613.229023 301.090693 
L 613.590844 299.873301 
L 613.952665 297.9611 
L 614.314486 300.951486 
L 614.676307 299.292759 
L 615.399948 297.623259 
L 615.761769 299.435798 
L 616.12359 297.426588 
L 616.48541 299.172017 
L 616.847231 299.332883 
L 617.209052 299.644587 
L 617.932694 300.887736 
L 618.294514 298.144464 
L 618.656335 299.646277 
L 619.018156 299.8741 
L 619.379977 297.862621 
L 619.741797 301.266474 
L 620.103618 298.77875 
L 620.465439 300.630905 
L 620.82726 297.750176 
L 621.189081 301.53531 
L 621.550901 301.567049 
L 621.912722 298.370684 
L 622.274543 299.679647 
L 622.636364 300.004514 
L 622.636364 300.004514 
" style="fill:none;stroke:#1f77b4;stroke-linecap:square;stroke-width:0.5;"/>
   </g>
   <g id="line2d_34">
    <path clip-path="url(#pfa94010d9d)" d="M 115.363636 58.997355 
L 116.087278 69.029296 
L 116.449099 71.682021 
L 116.810919 72.3323 
L 117.17274 72.246209 
L 117.534561 78.267235 
L 117.896382 81.512271 
L 118.258203 80.140916 
L 118.620023 80.534016 
L 118.981844 78.977121 
L 119.343665 80.957341 
L 120.067306 83.382692 
L 120.429127 82.577148 
L 120.790948 85.878667 
L 121.152769 83.168617 
L 121.51459 86.154313 
L 121.87641 86.469814 
L 122.238231 88.08603 
L 122.600052 90.558781 
L 122.961873 88.057281 
L 123.685514 91.832609 
L 124.047335 93.186345 
L 124.409156 97.553399 
L 124.770977 95.888458 
L 125.132797 96.99004 
L 125.494618 101.644941 
L 125.856439 103.615089 
L 126.21826 106.375441 
L 126.58008 107.831185 
L 126.941901 111.774127 
L 127.303722 118.020296 
L 128.027364 124.663562 
L 128.389184 126.707735 
L 129.112826 138.419954 
L 129.474647 141.448692 
L 129.836467 143.360911 
L 130.560109 151.290653 
L 130.92193 153.913206 
L 131.28375 155.60633 
L 131.645571 156.56188 
L 132.007392 161.915866 
L 132.369213 161.730404 
L 132.731034 165.08882 
L 133.092854 164.148221 
L 133.454675 165.128245 
L 133.816496 172.637918 
L 134.178317 172.076517 
L 134.540137 174.162076 
L 134.901958 174.380002 
L 136.349241 181.20641 
L 136.711062 180.979358 
L 137.072883 186.096629 
L 137.434704 185.424482 
L 137.796524 188.923603 
L 139.243808 194.853581 
L 139.605628 196.072169 
L 139.967449 196.25933 
L 140.32927 197.118204 
L 141.052911 203.087372 
L 141.414732 203.502142 
L 141.776553 206.783367 
L 142.138374 206.022538 
L 142.500195 210.194822 
L 142.862015 208.457826 
L 143.223836 210.625333 
L 143.947478 213.308849 
L 144.309298 213.770679 
L 144.671119 216.388364 
L 145.03294 217.486747 
L 145.394761 222.979665 
L 146.118402 219.437316 
L 146.480223 222.873458 
L 146.842044 221.869878 
L 147.203865 224.332239 
L 147.565685 223.999902 
L 147.927506 225.312532 
L 148.289327 227.49215 
L 148.651148 225.467686 
L 149.012968 227.050424 
L 149.374789 231.289705 
L 149.73661 228.602757 
L 150.460252 230.17843 
L 150.822072 229.057812 
L 151.183893 231.020979 
L 151.545714 233.719091 
L 151.907535 232.865309 
L 152.269355 232.852502 
L 152.992997 236.628556 
L 153.354818 235.950652 
L 154.078459 237.629199 
L 154.44028 239.21669 
L 154.802101 238.623547 
L 155.163922 238.964687 
L 155.525742 237.705207 
L 155.887563 241.088466 
L 156.249384 241.75055 
L 156.611205 244.462288 
L 156.973026 241.707244 
L 157.334846 243.299907 
L 157.696667 243.743471 
L 158.058488 244.618099 
L 158.420309 245.989221 
L 158.782129 246.360432 
L 159.14395 245.999422 
L 159.505771 245.128022 
L 159.867592 247.558717 
L 160.229413 248.90265 
L 160.591233 249.172772 
L 160.953054 247.066003 
L 161.314875 250.427102 
L 161.676696 248.118759 
L 162.038516 247.220977 
L 162.400337 250.869427 
L 162.762158 250.839983 
L 163.123979 251.268041 
L 163.4858 252.501339 
L 163.84762 250.982011 
L 164.571262 254.802724 
L 164.933083 252.444608 
L 165.294903 253.272378 
L 165.656724 257.148534 
L 166.018545 254.577521 
L 166.380366 254.850847 
L 166.742186 254.491175 
L 167.104007 255.929764 
L 167.465828 256.792792 
L 167.827649 255.473754 
L 168.18947 255.878513 
L 168.55129 258.566458 
L 168.913111 259.260036 
L 169.274932 256.006241 
L 169.636753 254.736206 
L 170.360394 259.905952 
L 170.722215 259.301772 
L 171.084036 262.122315 
L 171.445857 259.641368 
L 172.169498 261.063856 
L 173.25496 259.881728 
L 173.616781 261.329262 
L 174.340423 261.370513 
L 174.702244 261.827072 
L 175.064064 261.992245 
L 175.425885 264.820639 
L 175.787706 265.576391 
L 176.149527 262.627344 
L 176.511347 262.419761 
L 176.873168 262.808341 
L 177.234989 265.306173 
L 177.59681 264.897649 
L 177.958631 264.758786 
L 178.320451 265.340631 
L 178.682272 265.502679 
L 179.044093 263.651457 
L 179.405914 260.964039 
L 179.767734 264.396539 
L 180.129555 263.067907 
L 180.491376 263.33428 
L 180.853197 266.526924 
L 181.215018 264.037769 
L 181.938659 268.009137 
L 182.30048 265.657365 
L 182.662301 265.845369 
L 183.024121 265.578513 
L 183.385942 266.910689 
L 183.747763 262.598017 
L 184.471404 269.086481 
L 184.833225 267.764983 
L 185.195046 268.055527 
L 185.556867 269.86122 
L 185.918688 269.98105 
L 187.00415 271.080929 
L 187.365971 268.643174 
L 187.727791 270.604121 
L 188.089612 270.844864 
L 188.451433 273.445987 
L 188.813254 268.969327 
L 189.536895 271.241875 
L 189.898716 270.162425 
L 190.260537 267.444945 
L 190.622358 270.411646 
L 190.984178 268.345807 
L 191.345999 270.484396 
L 191.70782 268.914115 
L 192.069641 272.166998 
L 192.431462 273.098606 
L 192.793282 270.95533 
L 193.155103 273.770938 
L 193.516924 273.326858 
L 194.240565 270.799364 
L 194.602386 275.209147 
L 194.964207 270.767657 
L 195.326028 273.939751 
L 195.687849 272.341785 
L 196.049669 273.164675 
L 196.41149 273.65888 
L 196.773311 270.394425 
L 197.135132 272.387254 
L 197.496952 269.187173 
L 197.858773 270.199997 
L 198.220594 273.38494 
L 198.944236 272.456203 
L 199.306056 273.834314 
L 199.667877 273.062916 
L 200.029698 272.972101 
L 200.391519 272.385601 
L 200.753339 273.188607 
L 201.11516 272.558556 
L 201.476981 274.571004 
L 201.838802 272.023966 
L 202.200622 273.735916 
L 202.562443 274.073802 
L 202.924264 272.692883 
L 203.647906 276.558162 
L 204.009726 273.365116 
L 204.371547 274.400865 
L 204.733368 274.569357 
L 205.095189 275.103986 
L 205.457009 274.029974 
L 205.81883 274.937225 
L 206.180651 276.634888 
L 206.542472 275.70968 
L 206.904293 276.260831 
L 207.266113 276.055066 
L 207.627934 277.36013 
L 207.989755 276.092561 
L 208.351576 275.86539 
L 208.713396 276.380574 
L 209.437038 274.680652 
L 209.798859 276.376342 
L 210.16068 275.168578 
L 210.5225 276.373917 
L 210.884321 276.138635 
L 211.246142 275.593799 
L 211.607963 275.96104 
L 211.969783 275.541037 
L 212.331604 276.303143 
L 212.693425 279.758795 
L 213.055246 276.208888 
L 213.417067 277.54391 
L 213.778887 275.987357 
L 214.140708 277.300796 
L 214.502529 277.726804 
L 214.86435 276.916338 
L 215.22617 275.704125 
L 215.587991 278.497237 
L 215.949812 279.725632 
L 216.311633 278.739283 
L 217.035274 279.115849 
L 217.397095 278.534478 
L 217.758916 277.355484 
L 218.120737 277.403076 
L 218.482557 276.453221 
L 218.844378 279.12206 
L 219.206199 277.463625 
L 219.56802 278.431649 
L 219.92984 278.925427 
L 220.291661 278.393066 
L 220.653482 280.573876 
L 221.015303 277.680951 
L 221.377124 280.199238 
L 221.738944 279.760836 
L 222.100765 277.409493 
L 222.462586 277.155004 
L 222.824407 276.641696 
L 223.186227 277.565913 
L 223.548048 277.181698 
L 223.909869 280.59693 
L 224.27169 281.784746 
L 224.633511 279.814036 
L 224.995331 279.192938 
L 225.357152 280.494702 
L 225.718973 279.665413 
L 226.080794 280.150139 
L 226.804435 278.870909 
L 227.166256 278.403493 
L 227.528077 279.035662 
L 227.889898 280.518492 
L 228.251718 280.086671 
L 228.613539 281.068008 
L 228.97536 280.669907 
L 229.337181 279.830374 
L 229.699001 280.39 
L 230.060822 280.314227 
L 230.422643 279.414521 
L 230.784464 280.229842 
L 231.146285 279.521504 
L 231.508105 283.275652 
L 231.869926 280.999116 
L 232.231747 282.595462 
L 232.593568 279.350997 
L 232.955388 280.372933 
L 233.317209 280.01317 
L 233.67903 281.898493 
L 234.040851 281.59061 
L 234.402672 279.541091 
L 234.764492 281.281615 
L 235.126313 281.372441 
L 235.488134 279.413725 
L 236.211775 282.913879 
L 236.573596 282.207202 
L 236.935417 281.040978 
L 237.297238 282.022918 
L 237.659058 281.883087 
L 238.020879 282.353707 
L 238.744521 280.229211 
L 239.106342 280.748026 
L 239.468162 281.014478 
L 239.829983 282.306086 
L 240.191804 282.140923 
L 240.553625 282.602372 
L 240.915445 283.563496 
L 241.277266 279.291034 
L 241.639087 281.048596 
L 242.000908 282.082124 
L 242.362729 279.359337 
L 243.08637 282.528257 
L 243.448191 281.445782 
L 243.810012 282.829792 
L 244.171832 282.836329 
L 244.533653 281.682282 
L 244.895474 282.391674 
L 245.257295 284.025249 
L 245.619116 281.680912 
L 245.980936 281.059477 
L 246.342757 281.197214 
L 246.704578 285.319565 
L 247.428219 281.952516 
L 247.79004 282.669155 
L 248.151861 284.765448 
L 248.513682 281.222904 
L 248.875503 281.962739 
L 249.237323 282.141089 
L 249.599144 281.166986 
L 249.960965 281.638409 
L 250.322786 280.652784 
L 250.684606 282.926112 
L 251.046427 282.242211 
L 251.408248 284.651737 
L 251.770069 283.983606 
L 252.49371 283.661586 
L 252.855531 283.81566 
L 253.217352 278.745606 
L 253.579173 282.096932 
L 253.940993 283.312328 
L 254.302814 281.3838 
L 254.664635 283.156435 
L 255.026456 279.868437 
L 255.388276 282.727487 
L 255.750097 283.391064 
L 256.111918 283.254992 
L 256.473739 284.241037 
L 256.83556 283.105926 
L 257.19738 283.774767 
L 257.559201 285.910334 
L 257.921022 283.041921 
L 258.282843 282.392705 
L 258.644663 282.797714 
L 259.006484 281.78297 
L 260.091947 284.329126 
L 260.453767 282.293738 
L 260.815588 284.670203 
L 261.177409 283.56833 
L 261.53923 283.366762 
L 261.90105 284.334847 
L 262.262871 284.051069 
L 262.624692 282.725919 
L 262.986513 284.107312 
L 263.348334 284.821977 
L 263.710154 283.688396 
L 264.071975 284.141534 
L 264.433796 283.92365 
L 264.795617 284.79456 
L 265.157437 283.913926 
L 265.519258 281.639361 
L 265.881079 280.110445 
L 266.604721 284.008067 
L 266.966541 283.756168 
L 267.328362 285.051875 
L 267.690183 286.76326 
L 268.413824 282.940625 
L 268.775645 284.2239 
L 269.137466 283.445274 
L 269.499287 284.52952 
L 269.861108 286.615359 
L 270.222928 284.882548 
L 270.584749 287.166878 
L 270.94657 284.384326 
L 271.308391 283.444824 
L 271.670211 285.514139 
L 272.032032 284.237912 
L 272.393853 285.218563 
L 272.755674 283.508155 
L 273.117494 284.727455 
L 273.479315 285.229655 
L 273.841136 284.968365 
L 274.202957 285.099253 
L 274.564778 284.915699 
L 274.926598 285.990422 
L 275.288419 286.137979 
L 276.012061 284.65125 
L 276.373881 286.516453 
L 276.735702 286.025913 
L 277.097523 283.426111 
L 277.459344 284.522915 
L 277.821165 284.762435 
L 278.182985 286.194218 
L 278.544806 285.836591 
L 278.906627 282.223071 
L 279.268448 284.732582 
L 279.630268 284.542873 
L 280.35391 288.378164 
L 280.715731 284.066669 
L 281.077552 285.460249 
L 281.439372 285.162052 
L 281.801193 283.445588 
L 282.163014 284.870306 
L 282.524835 285.066492 
L 282.886655 286.64396 
L 283.248476 284.816158 
L 283.610297 286.305116 
L 283.972118 285.855787 
L 284.333939 285.91234 
L 284.695759 286.195646 
L 285.05758 285.096014 
L 285.419401 285.991705 
L 285.781222 283.739854 
L 286.504863 287.408075 
L 286.866684 287.99844 
L 287.228505 286.146298 
L 287.590326 287.422315 
L 287.952146 287.771279 
L 288.313967 286.689977 
L 288.675788 286.58553 
L 289.037609 286.00516 
L 289.399429 286.969965 
L 289.76125 285.468462 
L 290.123071 283.182966 
L 290.484892 286.645395 
L 290.846712 285.905969 
L 291.208533 286.582489 
L 291.570354 286.187642 
L 291.932175 287.661014 
L 292.293996 287.89051 
L 292.655816 288.770351 
L 293.017637 285.540012 
L 293.379458 287.078274 
L 293.741279 287.393719 
L 294.103099 286.992446 
L 294.46492 285.039075 
L 294.826741 286.081071 
L 295.188562 287.936701 
L 295.550383 288.162883 
L 295.912203 286.012864 
L 296.274024 288.081695 
L 296.635845 286.095211 
L 296.997666 286.608423 
L 297.359486 284.586215 
L 297.721307 284.835876 
L 298.083128 285.782156 
L 298.444949 284.518859 
L 298.80677 287.09145 
L 299.16859 286.624008 
L 299.530411 285.204688 
L 299.892232 286.813002 
L 300.254053 286.321761 
L 300.615873 288.345466 
L 300.977694 287.605892 
L 301.339515 288.237182 
L 301.701336 286.324392 
L 302.424977 288.201691 
L 302.786798 286.463241 
L 303.148619 287.323303 
L 303.51044 284.363479 
L 303.87226 283.87978 
L 304.234081 286.703955 
L 304.595902 288.205702 
L 304.957723 288.175995 
L 305.319544 286.733578 
L 305.681364 288.522577 
L 306.043185 288.309698 
L 306.405006 288.274684 
L 306.766827 287.395389 
L 307.128647 288.783747 
L 307.490468 284.901405 
L 307.852289 287.598255 
L 308.21411 286.937931 
L 308.57593 288.31843 
L 308.937751 287.419913 
L 309.299572 288.431013 
L 309.661393 287.44231 
L 310.023214 289.279707 
L 310.385034 286.317315 
L 310.746855 287.988938 
L 311.108676 289.061059 
L 311.470497 287.355418 
L 311.832317 289.157368 
L 312.194138 287.825781 
L 312.555959 288.407506 
L 312.91778 286.430218 
L 313.279601 285.873052 
L 314.003242 288.979904 
L 314.365063 286.839803 
L 314.726884 285.679934 
L 315.088704 288.303499 
L 315.450525 286.078001 
L 315.812346 287.261815 
L 316.174167 287.274922 
L 316.535988 286.529367 
L 316.897808 288.688116 
L 317.259629 288.900759 
L 317.62145 287.505065 
L 317.983271 287.017633 
L 318.345091 288.973292 
L 318.706912 286.446152 
L 319.068733 285.840632 
L 319.430554 289.173273 
L 319.792375 287.916481 
L 320.154195 290.127755 
L 320.516016 287.277075 
L 320.877837 286.074404 
L 321.239658 285.736584 
L 321.601478 288.531741 
L 322.32512 285.878819 
L 322.686941 287.94796 
L 323.048762 288.172182 
L 323.410582 286.832895 
L 323.772403 286.431337 
L 324.134224 285.756047 
L 324.496045 287.094286 
L 324.857865 286.27107 
L 325.219686 288.473935 
L 325.581507 287.288966 
L 325.943328 288.735698 
L 326.305148 289.203063 
L 326.666969 286.3807 
L 327.02879 286.882585 
L 327.390611 288.111179 
L 327.752432 286.561813 
L 328.114252 287.756694 
L 328.476073 286.639904 
L 328.837894 288.82059 
L 329.199715 285.913027 
L 329.561535 286.817744 
L 329.923356 289.567603 
L 330.285177 289.691818 
L 330.646998 290.851775 
L 331.370639 287.320028 
L 331.73246 288.454423 
L 332.094281 289.204324 
L 332.456102 289.426306 
L 332.817922 289.400598 
L 333.179743 285.12844 
L 333.541564 285.991129 
L 333.903385 289.489189 
L 334.265206 289.426205 
L 334.627026 284.915171 
L 334.988847 289.868112 
L 335.350668 287.328443 
L 335.712489 289.417185 
L 336.074309 287.505591 
L 336.43613 289.070589 
L 336.797951 288.104957 
L 337.159772 289.095749 
L 337.521593 289.092529 
L 337.883413 287.337143 
L 338.245234 290.719852 
L 338.607055 289.60351 
L 338.968876 286.457809 
L 339.330696 286.685952 
L 339.692517 289.869445 
L 340.054338 288.068219 
L 340.416159 288.479349 
L 340.77798 287.720925 
L 341.1398 287.325552 
L 341.501621 288.257003 
L 341.863442 286.395082 
L 342.225263 288.078492 
L 342.587083 287.496913 
L 342.948904 285.97471 
L 343.310725 285.809899 
L 343.672546 286.966636 
L 344.034366 289.723149 
L 344.396187 288.970989 
L 344.758008 285.62261 
L 345.119829 288.549946 
L 345.48165 287.077596 
L 345.84347 289.784723 
L 346.205291 286.467516 
L 346.567112 288.927801 
L 346.928933 287.559828 
L 347.290753 288.837251 
L 348.014395 286.06325 
L 348.376216 288.259689 
L 348.738037 288.75329 
L 349.099857 290.069337 
L 349.461678 289.829831 
L 349.823499 285.662447 
L 350.18532 286.03944 
L 350.54714 288.492257 
L 350.908961 287.597431 
L 351.270782 285.83311 
L 351.632603 289.267124 
L 351.994424 289.166173 
L 352.356244 287.587354 
L 352.718065 287.001952 
L 353.441707 289.390512 
L 354.165348 288.051537 
L 354.88899 289.306741 
L 355.612631 288.786266 
L 355.974452 288.801173 
L 356.336273 288.586964 
L 356.698094 287.965616 
L 357.059914 291.518819 
L 357.421735 288.845318 
L 357.783556 287.806932 
L 358.145377 288.543707 
L 358.507198 287.888864 
L 358.869018 290.845115 
L 359.230839 287.350341 
L 359.59266 288.469161 
L 359.954481 288.209849 
L 360.316301 288.876511 
L 361.039943 287.390921 
L 361.401764 291.066234 
L 361.763584 288.115671 
L 362.125405 290.728975 
L 362.487226 290.303613 
L 362.849047 286.063505 
L 363.210868 288.959418 
L 363.572688 289.422137 
L 363.934509 288.513109 
L 364.29633 286.748731 
L 364.658151 289.115868 
L 365.019971 289.700963 
L 365.381792 289.187613 
L 365.743613 290.991907 
L 366.105434 288.982468 
L 366.467255 288.801078 
L 366.829075 288.086248 
L 367.190896 289.824029 
L 367.552717 287.793555 
L 367.914538 288.618261 
L 368.276358 287.392927 
L 368.638179 289.30939 
L 369 289.16778 
L 369.361821 288.301712 
L 369.723642 290.144832 
L 370.085462 288.794232 
L 370.447283 288.839206 
L 370.809104 290.904884 
L 371.170925 290.427583 
L 371.532745 288.127289 
L 371.894566 290.070524 
L 372.256387 287.025328 
L 372.618208 288.072929 
L 372.980029 290.712618 
L 373.70367 286.859326 
L 374.427312 288.827454 
L 374.789132 287.216544 
L 375.150953 289.63674 
L 375.512774 287.454363 
L 375.874595 290.2249 
L 376.236416 290.412857 
L 376.598236 287.151669 
L 376.960057 288.9873 
L 377.321878 289.317001 
L 377.683699 289.071976 
L 378.045519 289.186836 
L 378.40734 288.650822 
L 378.769161 289.24886 
L 379.130982 290.387192 
L 379.492802 289.173985 
L 379.854623 289.64493 
L 380.216444 288.33984 
L 380.578265 290.839051 
L 380.940086 290.452861 
L 381.301906 289.000728 
L 381.663727 288.622508 
L 382.025548 287.327 
L 382.387369 288.472072 
L 382.749189 287.283942 
L 383.11101 289.814452 
L 383.472831 288.643303 
L 383.834652 289.176296 
L 384.196473 289.382621 
L 384.558293 290.546447 
L 384.920114 287.851583 
L 385.281935 288.002742 
L 385.643756 291.406635 
L 386.005576 291.454171 
L 386.367397 288.316682 
L 386.729218 288.869777 
L 387.091039 288.298522 
L 387.45286 290.861938 
L 387.81468 290.347576 
L 388.176501 290.538774 
L 388.538322 288.811317 
L 388.900143 288.338546 
L 389.261963 289.646073 
L 389.623784 289.699919 
L 390.347426 288.788553 
L 390.709247 288.805176 
L 391.071067 290.052559 
L 391.432888 288.917571 
L 391.794709 288.574276 
L 392.15653 289.274764 
L 392.880171 286.915729 
L 393.603813 290.379347 
L 393.965634 289.413031 
L 394.327454 287.060872 
L 395.051096 289.187944 
L 395.412917 289.307689 
L 395.774737 289.933471 
L 396.136558 287.678384 
L 396.498379 287.956797 
L 396.8602 289.699393 
L 397.22202 287.392359 
L 397.945662 291.970827 
L 398.307483 291.667347 
L 398.669304 289.799405 
L 399.031124 289.551465 
L 399.392945 290.366238 
L 399.754766 288.79525 
L 400.116587 292.104586 
L 400.478407 289.420248 
L 400.840228 289.293376 
L 401.202049 289.453352 
L 401.56387 288.067643 
L 401.925691 288.660783 
L 402.287511 291.163327 
L 403.011153 290.408897 
L 403.372974 290.678977 
L 403.734794 287.589316 
L 404.096615 289.328292 
L 404.458436 289.727298 
L 404.820257 289.208219 
L 405.182078 288.999738 
L 405.543898 290.592954 
L 405.905719 289.557144 
L 406.26754 290.706766 
L 406.629361 291.421782 
L 406.991181 291.344964 
L 407.353002 289.850767 
L 407.714823 289.310527 
L 408.438465 289.649097 
L 408.800285 288.729399 
L 409.162106 288.925431 
L 409.885748 290.121467 
L 410.247568 290.220294 
L 410.97121 288.528792 
L 411.333031 290.103369 
L 411.694852 289.791971 
L 412.056672 289.201738 
L 412.418493 289.377452 
L 412.780314 288.871411 
L 413.142135 288.652647 
L 413.503955 290.411071 
L 413.865776 287.384346 
L 414.589418 291.272787 
L 414.951238 288.365059 
L 415.313059 289.205959 
L 415.67488 291.947165 
L 416.036701 290.117181 
L 416.398522 289.480369 
L 416.760342 290.303519 
L 417.122163 290.048604 
L 417.483984 290.115247 
L 417.845805 288.341853 
L 418.207625 290.178349 
L 418.569446 288.282099 
L 418.931267 289.710588 
L 419.293088 289.618727 
L 419.654909 289.783589 
L 420.016729 291.837845 
L 420.37855 288.434054 
L 420.740371 287.86917 
L 421.102192 290.82411 
L 421.464012 290.036227 
L 421.825833 288.441892 
L 422.187654 289.123192 
L 422.549475 292.079638 
L 422.911296 291.104864 
L 423.273116 287.627415 
L 423.634937 290.792015 
L 423.996758 288.443251 
L 424.358579 290.121212 
L 424.720399 286.349508 
L 425.08222 290.225585 
L 425.444041 289.372277 
L 425.805862 290.261814 
L 426.167683 290.146442 
L 426.529503 290.815118 
L 426.891324 289.97944 
L 427.253145 291.633944 
L 427.614966 285.856538 
L 427.976786 289.798706 
L 428.338607 288.596807 
L 429.062249 291.154116 
L 429.42407 291.443644 
L 429.78589 290.259424 
L 430.147711 290.262968 
L 430.509532 291.333592 
L 430.871353 289.345272 
L 431.594994 290.725346 
L 431.956815 288.98768 
L 432.318636 289.619017 
L 432.680456 291.001209 
L 433.042277 289.298696 
L 433.404098 289.260093 
L 433.765919 290.289055 
L 434.12774 291.822497 
L 434.48956 289.181607 
L 434.851381 289.247233 
L 435.575023 290.27573 
L 435.936843 290.512532 
L 436.298664 291.918406 
L 436.660485 289.750984 
L 437.022306 290.8499 
L 437.384127 286.523841 
L 437.745947 290.68518 
L 438.107768 290.036111 
L 438.469589 290.839837 
L 438.83141 289.912137 
L 439.19323 292.557989 
L 439.555051 291.978135 
L 439.916872 288.581549 
L 440.640514 288.210109 
L 441.002334 291.18977 
L 441.364155 290.676986 
L 441.725976 291.308461 
L 442.087797 290.073995 
L 442.449617 289.786042 
L 442.811438 291.428465 
L 443.53508 287.379903 
L 443.896901 291.453892 
L 444.620542 289.131021 
L 444.982363 289.492679 
L 445.344184 290.73944 
L 445.706004 293.828044 
L 446.067825 288.927869 
L 446.429646 289.14753 
L 446.791467 290.303504 
L 447.153288 290.58658 
L 447.515108 289.762092 
L 447.876929 291.040827 
L 448.23875 289.687982 
L 448.600571 288.884837 
L 448.962391 289.56074 
L 449.324212 291.251924 
L 449.686033 291.05378 
L 450.047854 292.605843 
L 450.409674 291.219396 
L 450.771495 290.920982 
L 451.133316 291.462876 
L 451.495137 290.273993 
L 451.856958 293.135782 
L 452.218778 291.932938 
L 452.580599 292.317231 
L 452.94242 290.634707 
L 453.304241 291.33052 
L 453.666061 292.360747 
L 454.027882 291.609908 
L 454.389703 291.483152 
L 454.751524 291.754421 
L 455.113345 290.447361 
L 455.475165 288.591534 
L 455.836986 290.903138 
L 456.198807 289.233927 
L 456.560628 288.952353 
L 456.922448 292.472237 
L 457.284269 289.452094 
L 457.64609 287.466907 
L 458.007911 290.693921 
L 458.369732 290.576273 
L 458.731552 290.717308 
L 459.093373 288.855684 
L 459.455194 291.747257 
L 459.817015 290.405365 
L 460.178835 292.482563 
L 460.540656 289.575116 
L 460.902477 290.635317 
L 461.264298 289.694867 
L 461.626119 291.209967 
L 461.987939 290.062351 
L 462.34976 291.247279 
L 462.711581 288.597674 
L 463.073402 291.250377 
L 463.435222 291.510531 
L 463.797043 291.425177 
L 464.158864 287.69728 
L 464.520685 290.674144 
L 464.882506 290.039102 
L 465.606147 291.990515 
L 465.967968 290.905467 
L 466.691609 289.677805 
L 467.05343 291.877669 
L 467.415251 292.851539 
L 467.777072 288.505426 
L 468.138892 291.870607 
L 468.500713 290.557077 
L 468.862534 292.310599 
L 469.224355 293.170392 
L 469.947996 290.850466 
L 470.309817 291.214932 
L 470.671638 294.373062 
L 471.033459 291.26701 
L 471.395279 292.51498 
L 471.7571 289.54242 
L 472.118921 291.12262 
L 472.480742 291.374572 
L 472.842563 290.593657 
L 473.204383 291.430413 
L 473.566204 290.166542 
L 473.928025 290.591684 
L 474.289846 289.319291 
L 474.651666 291.041282 
L 475.013487 290.238469 
L 475.375308 291.79905 
L 475.737129 290.906826 
L 476.09895 289.69157 
L 476.822591 291.274757 
L 477.184412 289.758157 
L 477.546233 293.021376 
L 478.269874 291.16983 
L 478.631695 290.143467 
L 478.993516 290.808834 
L 479.355337 293.044365 
L 479.717157 290.407763 
L 480.078978 289.941006 
L 480.80262 290.585303 
L 481.16444 291.46174 
L 481.526261 291.960484 
L 481.888082 291.039454 
L 482.249903 292.653529 
L 482.973544 289.320706 
L 483.335365 291.432752 
L 483.697186 292.73509 
L 484.059007 292.578288 
L 484.420827 290.154453 
L 484.782648 288.831409 
L 485.144469 290.694213 
L 485.50629 288.704478 
L 485.86811 292.584941 
L 486.229931 287.327126 
L 486.591752 289.683074 
L 486.953573 290.920337 
L 487.315394 291.104272 
L 487.677214 292.577474 
L 488.039035 289.651283 
L 488.400856 291.030469 
L 488.762677 289.67016 
L 489.124497 291.523561 
L 489.486318 289.31835 
L 489.848139 292.257055 
L 490.20996 290.754042 
L 490.571781 292.079159 
L 490.933601 290.934422 
L 491.295422 290.226537 
L 491.657243 291.150753 
L 492.019064 290.374445 
L 492.380884 290.963337 
L 492.742705 291.03034 
L 493.104526 291.283497 
L 493.466347 291.335093 
L 493.828168 290.579687 
L 494.189988 290.591861 
L 494.91363 290.979527 
L 495.275451 290.794536 
L 496.360913 288.476719 
L 497.084555 291.392723 
L 497.446375 292.403549 
L 497.808196 290.202712 
L 498.170017 289.276983 
L 498.531838 290.334776 
L 498.893658 291.833864 
L 499.255479 290.070485 
L 500.340942 292.605614 
L 500.702762 291.096781 
L 501.426404 290.490266 
L 501.788225 290.667662 
L 502.150045 290.336841 
L 502.511866 291.788223 
L 502.873687 289.141255 
L 503.235508 291.930694 
L 503.597328 292.621584 
L 503.959149 290.853141 
L 504.32097 292.952588 
L 504.682791 289.95763 
L 505.044612 291.652977 
L 505.406432 289.292066 
L 505.768253 289.672719 
L 506.130074 290.877474 
L 506.491895 291.646569 
L 506.853715 291.800191 
L 507.215536 291.041227 
L 507.577357 291.663713 
L 507.939178 291.85187 
L 508.300999 291.036425 
L 508.662819 292.176746 
L 509.386461 291.711536 
L 509.748282 290.378587 
L 510.110102 292.839129 
L 510.471923 291.525577 
L 510.833744 290.84167 
L 511.195565 289.446142 
L 511.557386 290.604081 
L 511.919206 290.335078 
L 512.281027 290.787394 
L 512.642848 290.203926 
L 513.366489 285.756949 
L 513.72831 290.718108 
L 514.090131 290.98435 
L 514.451952 289.630624 
L 514.813773 291.500434 
L 515.175593 291.459526 
L 515.899235 288.217247 
L 516.261056 288.259578 
L 516.622876 290.469876 
L 516.984697 290.386079 
L 517.346518 290.036248 
L 517.708339 290.921324 
L 518.07016 290.652758 
L 518.43198 291.164059 
L 519.155622 289.604155 
L 519.517443 291.032911 
L 519.879263 290.852153 
L 520.241084 291.434024 
L 520.964726 290.397794 
L 521.326546 292.171606 
L 521.688367 293.219509 
L 522.050188 291.596843 
L 522.412009 289.352706 
L 522.77383 291.807112 
L 523.13565 290.259099 
L 523.497471 289.544575 
L 523.859292 293.646333 
L 524.582933 292.118056 
L 524.944754 292.108952 
L 525.306575 291.065363 
L 525.668396 292.608147 
L 526.030217 289.877631 
L 526.392037 290.643074 
L 526.753858 291.051586 
L 527.115679 288.095791 
L 527.4775 292.088644 
L 527.83932 292.351115 
L 528.201141 290.3776 
L 528.562962 292.308919 
L 528.924783 290.89054 
L 529.286604 290.805749 
L 529.648424 291.446721 
L 530.010245 291.065264 
L 530.372066 289.72732 
L 530.733887 289.793416 
L 531.095707 292.283878 
L 531.457528 289.64369 
L 532.18117 294.842854 
L 532.542991 291.159903 
L 532.904811 290.857795 
L 533.266632 291.694457 
L 533.628453 291.87774 
L 533.990274 292.664919 
L 534.352094 290.979339 
L 534.713915 290.612948 
L 535.075736 291.94705 
L 535.437557 292.442861 
L 535.799378 289.919797 
L 536.161198 288.767281 
L 536.523019 291.541241 
L 536.88484 291.137168 
L 537.246661 289.11924 
L 537.608481 289.745329 
L 537.970302 291.321095 
L 538.332123 289.579106 
L 538.693944 291.064692 
L 539.055764 287.807153 
L 539.417585 291.840745 
L 539.779406 289.83582 
L 540.141227 292.691676 
L 540.503048 293.192423 
L 540.864868 293.138559 
L 541.58851 289.03295 
L 541.950331 293.206274 
L 542.312151 292.843074 
L 542.673972 291.164086 
L 543.035793 288.55826 
L 543.397614 288.655892 
L 543.759435 291.291198 
L 544.121255 291.127183 
L 544.844897 292.712577 
L 545.206718 291.343142 
L 545.568538 292.724616 
L 545.930359 290.460943 
L 546.654001 293.59753 
L 547.377642 291.705583 
L 547.739463 290.122898 
L 548.101284 290.877202 
L 548.463105 288.608952 
L 548.824925 290.768574 
L 549.186746 290.168294 
L 549.548567 292.557554 
L 549.910388 291.105809 
L 550.272209 290.173946 
L 550.634029 292.063268 
L 550.99585 290.962092 
L 551.357671 291.248973 
L 551.719492 290.512767 
L 552.081312 290.868146 
L 552.443133 290.013162 
L 552.804954 290.294297 
L 553.166775 289.481545 
L 553.528596 290.89515 
L 553.890416 290.867189 
L 554.252237 292.860129 
L 554.614058 292.325402 
L 554.975879 292.347633 
L 555.337699 290.174586 
L 555.69952 290.70402 
L 556.061341 291.629464 
L 556.784982 290.253431 
L 557.146803 292.101093 
L 557.508624 289.683068 
L 557.870445 292.039114 
L 558.232266 290.808412 
L 558.594086 292.60183 
L 558.955907 292.871137 
L 559.317728 291.995029 
L 559.679549 289.592787 
L 560.041369 292.520423 
L 560.40319 289.376927 
L 560.765011 288.189468 
L 561.126832 288.95031 
L 561.488653 290.310122 
L 561.850473 291.094274 
L 562.212294 290.665458 
L 562.574115 289.031145 
L 562.935936 291.456694 
L 563.297756 290.293504 
L 563.659577 290.888751 
L 564.021398 289.678686 
L 564.383219 290.630714 
L 564.74504 289.975585 
L 565.10686 288.703402 
L 565.468681 290.61973 
L 565.830502 290.71262 
L 566.192323 290.388635 
L 566.554143 290.652556 
L 566.915964 291.516958 
L 567.277785 289.367422 
L 567.639606 292.030941 
L 568.001427 290.876514 
L 568.363247 290.371111 
L 568.725068 291.352516 
L 569.086889 289.264288 
L 569.44871 290.180938 
L 569.81053 289.516502 
L 570.172351 290.594755 
L 570.534172 290.493421 
L 570.895993 291.053724 
L 571.257814 292.711422 
L 571.619634 292.020428 
L 571.981455 290.141144 
L 572.343276 291.377738 
L 572.705097 291.924637 
L 573.066917 290.433038 
L 573.428738 289.777883 
L 574.15238 290.324612 
L 574.5142 291.1323 
L 574.876021 289.698218 
L 575.237842 290.911606 
L 575.599663 291.155347 
L 575.961484 290.483493 
L 576.323304 291.211002 
L 576.685125 291.618213 
L 577.046946 294.079096 
L 577.408767 293.070803 
L 577.770587 292.640096 
L 578.132408 292.980681 
L 578.494229 290.838183 
L 578.85605 293.374665 
L 579.217871 292.054836 
L 579.579691 288.655123 
L 579.941512 293.186124 
L 580.303333 292.937235 
L 580.665154 291.74808 
L 581.026974 292.882663 
L 581.388795 292.449037 
L 581.750616 289.628219 
L 582.112437 289.427758 
L 582.474258 292.022332 
L 582.836078 291.036924 
L 583.197899 291.779714 
L 583.55972 290.778043 
L 583.921541 290.31494 
L 584.283361 292.048672 
L 584.645182 291.740643 
L 585.007003 289.753171 
L 585.368824 292.509265 
L 585.730645 290.080883 
L 586.092465 290.441125 
L 586.816107 290.079899 
L 587.177928 291.138565 
L 587.539748 290.414715 
L 587.901569 292.585701 
L 588.26339 289.811815 
L 588.625211 291.672739 
L 588.987032 290.585047 
L 589.348852 290.05416 
L 589.710673 293.669253 
L 590.072494 290.070358 
L 590.434315 290.660847 
L 590.796135 289.487995 
L 591.157956 291.242348 
L 591.519777 290.830589 
L 591.881598 289.065277 
L 592.243418 289.206816 
L 592.96706 294.161612 
L 593.328881 291.780326 
L 593.690702 291.662577 
L 594.414343 289.155975 
L 594.776164 290.311545 
L 595.137985 293.552525 
L 595.499805 290.799197 
L 595.861626 290.496872 
L 596.223447 291.727359 
L 596.585268 289.845091 
L 596.947089 291.27014 
L 597.308909 291.040706 
L 597.67073 287.097785 
L 598.032551 291.605998 
L 598.394372 292.099823 
L 598.756192 289.262796 
L 599.118013 291.011786 
L 599.479834 289.628756 
L 599.841655 290.920771 
L 600.203476 290.243258 
L 600.565296 290.043344 
L 600.927117 288.658132 
L 601.650759 294.3881 
L 602.012579 291.193405 
L 602.3744 291.84556 
L 602.736221 292.031418 
L 603.098042 289.205705 
L 603.459863 289.66675 
L 603.821683 288.673019 
L 604.183504 292.596967 
L 604.545325 291.471716 
L 604.907146 292.085646 
L 605.268966 291.530311 
L 605.992608 293.907079 
L 606.71625 290.559816 
L 607.07807 291.674721 
L 607.439891 291.074787 
L 607.801712 290.916849 
L 608.163533 290.364024 
L 608.525353 291.54426 
L 608.887174 289.713849 
L 609.248995 291.51363 
L 609.610816 291.908733 
L 609.972636 291.765338 
L 610.334457 291.959081 
L 610.696278 292.723254 
L 611.058099 292.777039 
L 611.41992 291.893438 
L 612.143561 291.137003 
L 612.505382 291.836913 
L 612.867203 294.778172 
L 613.590844 290.193859 
L 613.952665 290.784591 
L 614.314486 289.434009 
L 614.676307 291.177337 
L 615.038127 290.554195 
L 615.399948 292.613352 
L 615.761769 291.470267 
L 616.12359 291.985982 
L 616.48541 290.546316 
L 617.209052 290.090333 
L 617.570873 294.231847 
L 617.932694 291.064293 
L 618.294514 291.135891 
L 618.656335 292.905658 
L 619.018156 288.979207 
L 619.379977 288.99026 
L 619.741797 293.092452 
L 620.103618 290.192243 
L 620.82726 288.688663 
L 621.189081 291.286153 
L 621.550901 291.684849 
L 621.912722 290.496201 
L 622.274543 292.162194 
L 622.636364 289.344712 
L 622.636364 289.344712 
" style="fill:none;stroke:#ff7f0e;stroke-linecap:square;stroke-width:0.5;"/>
   </g>
   <g id="patch_3">
    <path d="M 90 315 
L 90 43.2 
" style="fill:none;stroke:#000000;stroke-linecap:square;stroke-linejoin:miter;stroke-width:0.8;"/>
   </g>
   <g id="patch_4">
    <path d="M 648 315 
L 648 43.2 
" style="fill:none;stroke:#000000;stroke-linecap:square;stroke-linejoin:miter;stroke-width:0.8;"/>
   </g>
   <g id="patch_5">
    <path d="M 90 315 
L 648 315 
" style="fill:none;stroke:#000000;stroke-linecap:square;stroke-linejoin:miter;stroke-width:0.8;"/>
   </g>
   <g id="patch_6">
    <path d="M 90 43.2 
L 648 43.2 
" style="fill:none;stroke:#000000;stroke-linecap:square;stroke-linejoin:miter;stroke-width:0.8;"/>
   </g>
   <g id="text_19">
    <!-- loss -->
    <g transform="translate(357.410625 37.2)scale(0.12 -0.12)">
     <use xlink:href="#DejaVuSans-108"/>
     <use x="27.783203" xlink:href="#DejaVuSans-111"/>
     <use x="88.964844" xlink:href="#DejaVuSans-115"/>
     <use x="141.064453" xlink:href="#DejaVuSans-115"/>
    </g>
   </g>
   <g id="legend_1">
    <g id="patch_7">
     <path d="M 568.846875 80.55625 
L 641 80.55625 
Q 643 80.55625 643 78.55625 
L 643 50.2 
Q 643 48.2 641 48.2 
L 568.846875 48.2 
Q 566.846875 48.2 566.846875 50.2 
L 566.846875 78.55625 
Q 566.846875 80.55625 568.846875 80.55625 
z
" style="fill:#ffffff;opacity:0.8;stroke:#cccccc;stroke-linejoin:miter;"/>
    </g>
    <g id="line2d_35">
     <path d="M 570.846875 56.298437 
L 590.846875 56.298437 
" style="fill:none;stroke:#1f77b4;stroke-linecap:square;stroke-width:0.5;"/>
    </g>
    <g id="line2d_36"/>
    <g id="text_20">
     <!-- train -->
     <defs>
      <path d="M 18.3125 70.21875 
L 18.3125 54.6875 
L 36.8125 54.6875 
L 36.8125 47.703125 
L 18.3125 47.703125 
L 18.3125 18.015625 
Q 18.3125 11.328125 20.140625 9.421875 
Q 21.96875 7.515625 27.59375 7.515625 
L 36.8125 7.515625 
L 36.8125 0 
L 27.59375 0 
Q 17.1875 0 13.234375 3.875 
Q 9.28125 7.765625 9.28125 18.015625 
L 9.28125 47.703125 
L 2.6875 47.703125 
L 2.6875 54.6875 
L 9.28125 54.6875 
L 9.28125 70.21875 
z
" id="DejaVuSans-116"/>
      <path d="M 41.109375 46.296875 
Q 39.59375 47.171875 37.8125 47.578125 
Q 36.03125 48 33.890625 48 
Q 26.265625 48 22.1875 43.046875 
Q 18.109375 38.09375 18.109375 28.8125 
L 18.109375 0 
L 9.078125 0 
L 9.078125 54.6875 
L 18.109375 54.6875 
L 18.109375 46.1875 
Q 20.953125 51.171875 25.484375 53.578125 
Q 30.03125 56 36.53125 56 
Q 37.453125 56 38.578125 55.875 
Q 39.703125 55.765625 41.0625 55.515625 
z
" id="DejaVuSans-114"/>
      <path d="M 34.28125 27.484375 
Q 23.390625 27.484375 19.1875 25 
Q 14.984375 22.515625 14.984375 16.5 
Q 14.984375 11.71875 18.140625 8.90625 
Q 21.296875 6.109375 26.703125 6.109375 
Q 34.1875 6.109375 38.703125 11.40625 
Q 43.21875 16.703125 43.21875 25.484375 
L 43.21875 27.484375 
z
M 52.203125 31.203125 
L 52.203125 0 
L 43.21875 0 
L 43.21875 8.296875 
Q 40.140625 3.328125 35.546875 0.953125 
Q 30.953125 -1.421875 24.3125 -1.421875 
Q 15.921875 -1.421875 10.953125 3.296875 
Q 6 8.015625 6 15.921875 
Q 6 25.140625 12.171875 29.828125 
Q 18.359375 34.515625 30.609375 34.515625 
L 43.21875 34.515625 
L 43.21875 35.40625 
Q 43.21875 41.609375 39.140625 45 
Q 35.0625 48.390625 27.6875 48.390625 
Q 23 48.390625 18.546875 47.265625 
Q 14.109375 46.140625 10.015625 43.890625 
L 10.015625 52.203125 
Q 14.9375 54.109375 19.578125 55.046875 
Q 24.21875 56 28.609375 56 
Q 40.484375 56 46.34375 49.84375 
Q 52.203125 43.703125 52.203125 31.203125 
z
" id="DejaVuSans-97"/>
      <path d="M 9.421875 54.6875 
L 18.40625 54.6875 
L 18.40625 0 
L 9.421875 0 
z
M 9.421875 75.984375 
L 18.40625 75.984375 
L 18.40625 64.59375 
L 9.421875 64.59375 
z
" id="DejaVuSans-105"/>
      <path d="M 54.890625 33.015625 
L 54.890625 0 
L 45.90625 0 
L 45.90625 32.71875 
Q 45.90625 40.484375 42.875 44.328125 
Q 39.84375 48.1875 33.796875 48.1875 
Q 26.515625 48.1875 22.3125 43.546875 
Q 18.109375 38.921875 18.109375 30.90625 
L 18.109375 0 
L 9.078125 0 
L 9.078125 54.6875 
L 18.109375 54.6875 
L 18.109375 46.1875 
Q 21.34375 51.125 25.703125 53.5625 
Q 30.078125 56 35.796875 56 
Q 45.21875 56 50.046875 50.171875 
Q 54.890625 44.34375 54.890625 33.015625 
z
" id="DejaVuSans-110"/>
     </defs>
     <g transform="translate(598.846875 59.798437)scale(0.1 -0.1)">
      <use xlink:href="#DejaVuSans-116"/>
      <use x="39.208984" xlink:href="#DejaVuSans-114"/>
      <use x="80.322266" xlink:href="#DejaVuSans-97"/>
      <use x="141.601562" xlink:href="#DejaVuSans-105"/>
      <use x="169.384766" xlink:href="#DejaVuSans-110"/>
     </g>
    </g>
    <g id="line2d_37">
     <path d="M 570.846875 70.976562 
L 590.846875 70.976562 
" style="fill:none;stroke:#ff7f0e;stroke-linecap:square;stroke-width:0.5;"/>
    </g>
    <g id="line2d_38"/>
    <g id="text_21">
     <!-- validate -->
     <defs>
      <path d="M 2.984375 54.6875 
L 12.5 54.6875 
L 29.59375 8.796875 
L 46.6875 54.6875 
L 56.203125 54.6875 
L 35.6875 0 
L 23.484375 0 
z
" id="DejaVuSans-118"/>
      <path d="M 45.40625 46.390625 
L 45.40625 75.984375 
L 54.390625 75.984375 
L 54.390625 0 
L 45.40625 0 
L 45.40625 8.203125 
Q 42.578125 3.328125 38.25 0.953125 
Q 33.9375 -1.421875 27.875 -1.421875 
Q 17.96875 -1.421875 11.734375 6.484375 
Q 5.515625 14.40625 5.515625 27.296875 
Q 5.515625 40.1875 11.734375 48.09375 
Q 17.96875 56 27.875 56 
Q 33.9375 56 38.25 53.625 
Q 42.578125 51.265625 45.40625 46.390625 
z
M 14.796875 27.296875 
Q 14.796875 17.390625 18.875 11.75 
Q 22.953125 6.109375 30.078125 6.109375 
Q 37.203125 6.109375 41.296875 11.75 
Q 45.40625 17.390625 45.40625 27.296875 
Q 45.40625 37.203125 41.296875 42.84375 
Q 37.203125 48.484375 30.078125 48.484375 
Q 22.953125 48.484375 18.875 42.84375 
Q 14.796875 37.203125 14.796875 27.296875 
z
" id="DejaVuSans-100"/>
     </defs>
     <g transform="translate(598.846875 74.476562)scale(0.1 -0.1)">
      <use xlink:href="#DejaVuSans-118"/>
      <use x="59.179688" xlink:href="#DejaVuSans-97"/>
      <use x="120.458984" xlink:href="#DejaVuSans-108"/>
      <use x="148.242188" xlink:href="#DejaVuSans-105"/>
      <use x="176.025391" xlink:href="#DejaVuSans-100"/>
      <use x="239.501953" xlink:href="#DejaVuSans-97"/>
      <use x="300.78125" xlink:href="#DejaVuSans-116"/>
      <use x="339.990234" xlink:href="#DejaVuSans-101"/>
     </g>
    </g>
   </g>
  </g>
 </g>
 <defs>
  <clipPath id="pfa94010d9d">
   <rect height="271.8" width="558" x="90" y="43.2"/>
  </clipPath>
 </defs>
</svg>
