<?xml version="1.0" encoding="utf-8" standalone="no"?>
<!DOCTYPE svg PUBLIC "-//W3C//DTD SVG 1.1//EN"
  "http://www.w3.org/Graphics/SVG/1.1/DTD/svg11.dtd">
<!-- Created with matplotlib (https://matplotlib.org/) -->
<svg height="360pt" version="1.1" viewBox="0 0 720 360" width="720pt" xmlns="http://www.w3.org/2000/svg" xmlns:xlink="http://www.w3.org/1999/xlink">
 <defs>
  <style type="text/css">
*{stroke-linecap:butt;stroke-linejoin:round;}
  </style>
 </defs>
 <g id="figure_1">
  <g id="patch_1">
   <path d="M 0 360 
L 720 360 
L 720 0 
L 0 0 
z
" style="fill:#ffffff;"/>
  </g>
  <g id="axes_1">
   <g id="patch_2">
    <path d="M 90 315 
L 648 315 
L 648 43.2 
L 90 43.2 
z
" style="fill:#ffffff;"/>
   </g>
   <g id="matplotlib.axis_1">
    <g id="xtick_1">
     <g id="line2d_1">
      <path clip-path="url(#pec5a781659)" d="M 115.363636 315 
L 115.363636 43.2 
" style="fill:none;stroke:#b0b0b0;stroke-linecap:square;stroke-width:0.8;"/>
     </g>
     <g id="line2d_2">
      <defs>
       <path d="M 0 0 
L 0 3.5 
" id="m92b902b8e5" style="stroke:#000000;stroke-width:0.8;"/>
      </defs>
      <g>
       <use style="stroke:#000000;stroke-width:0.8;" x="115.363636" xlink:href="#m92b902b8e5" y="315"/>
      </g>
     </g>
     <g id="text_1">
      <!-- 0 -->
      <defs>
       <path d="M 31.78125 66.40625 
Q 24.171875 66.40625 20.328125 58.90625 
Q 16.5 51.421875 16.5 36.375 
Q 16.5 21.390625 20.328125 13.890625 
Q 24.171875 6.390625 31.78125 6.390625 
Q 39.453125 6.390625 43.28125 13.890625 
Q 47.125 21.390625 47.125 36.375 
Q 47.125 51.421875 43.28125 58.90625 
Q 39.453125 66.40625 31.78125 66.40625 
z
M 31.78125 74.21875 
Q 44.046875 74.21875 50.515625 64.515625 
Q 56.984375 54.828125 56.984375 36.375 
Q 56.984375 17.96875 50.515625 8.265625 
Q 44.046875 -1.421875 31.78125 -1.421875 
Q 19.53125 -1.421875 13.0625 8.265625 
Q 6.59375 17.96875 6.59375 36.375 
Q 6.59375 54.828125 13.0625 64.515625 
Q 19.53125 74.21875 31.78125 74.21875 
z
" id="DejaVuSans-48"/>
      </defs>
      <g transform="translate(112.182386 329.598437)scale(0.1 -0.1)">
       <use xlink:href="#DejaVuSans-48"/>
      </g>
     </g>
    </g>
    <g id="xtick_2">
     <g id="line2d_3">
      <path clip-path="url(#pec5a781659)" d="M 182.374565 315 
L 182.374565 43.2 
" style="fill:none;stroke:#b0b0b0;stroke-linecap:square;stroke-width:0.8;"/>
     </g>
     <g id="line2d_4">
      <g>
       <use style="stroke:#000000;stroke-width:0.8;" x="182.374565" xlink:href="#m92b902b8e5" y="315"/>
      </g>
     </g>
     <g id="text_2">
      <!-- 200 -->
      <defs>
       <path d="M 19.1875 8.296875 
L 53.609375 8.296875 
L 53.609375 0 
L 7.328125 0 
L 7.328125 8.296875 
Q 12.9375 14.109375 22.625 23.890625 
Q 32.328125 33.6875 34.8125 36.53125 
Q 39.546875 41.84375 41.421875 45.53125 
Q 43.3125 49.21875 43.3125 52.78125 
Q 43.3125 58.59375 39.234375 62.25 
Q 35.15625 65.921875 28.609375 65.921875 
Q 23.96875 65.921875 18.8125 64.3125 
Q 13.671875 62.703125 7.8125 59.421875 
L 7.8125 69.390625 
Q 13.765625 71.78125 18.9375 73 
Q 24.125 74.21875 28.421875 74.21875 
Q 39.75 74.21875 46.484375 68.546875 
Q 53.21875 62.890625 53.21875 53.421875 
Q 53.21875 48.921875 51.53125 44.890625 
Q 49.859375 40.875 45.40625 35.40625 
Q 44.1875 33.984375 37.640625 27.21875 
Q 31.109375 20.453125 19.1875 8.296875 
z
" id="DejaVuSans-50"/>
      </defs>
      <g transform="translate(172.830815 329.598437)scale(0.1 -0.1)">
       <use xlink:href="#DejaVuSans-50"/>
       <use x="63.623047" xlink:href="#DejaVuSans-48"/>
       <use x="127.246094" xlink:href="#DejaVuSans-48"/>
      </g>
     </g>
    </g>
    <g id="xtick_3">
     <g id="line2d_5">
      <path clip-path="url(#pec5a781659)" d="M 249.385493 315 
L 249.385493 43.2 
" style="fill:none;stroke:#b0b0b0;stroke-linecap:square;stroke-width:0.8;"/>
     </g>
     <g id="line2d_6">
      <g>
       <use style="stroke:#000000;stroke-width:0.8;" x="249.385493" xlink:href="#m92b902b8e5" y="315"/>
      </g>
     </g>
     <g id="text_3">
      <!-- 400 -->
      <defs>
       <path d="M 37.796875 64.3125 
L 12.890625 25.390625 
L 37.796875 25.390625 
z
M 35.203125 72.90625 
L 47.609375 72.90625 
L 47.609375 25.390625 
L 58.015625 25.390625 
L 58.015625 17.1875 
L 47.609375 17.1875 
L 47.609375 0 
L 37.796875 0 
L 37.796875 17.1875 
L 4.890625 17.1875 
L 4.890625 26.703125 
z
" id="DejaVuSans-52"/>
      </defs>
      <g transform="translate(239.841743 329.598437)scale(0.1 -0.1)">
       <use xlink:href="#DejaVuSans-52"/>
       <use x="63.623047" xlink:href="#DejaVuSans-48"/>
       <use x="127.246094" xlink:href="#DejaVuSans-48"/>
      </g>
     </g>
    </g>
    <g id="xtick_4">
     <g id="line2d_7">
      <path clip-path="url(#pec5a781659)" d="M 316.396421 315 
L 316.396421 43.2 
" style="fill:none;stroke:#b0b0b0;stroke-linecap:square;stroke-width:0.8;"/>
     </g>
     <g id="line2d_8">
      <g>
       <use style="stroke:#000000;stroke-width:0.8;" x="316.396421" xlink:href="#m92b902b8e5" y="315"/>
      </g>
     </g>
     <g id="text_4">
      <!-- 600 -->
      <defs>
       <path d="M 33.015625 40.375 
Q 26.375 40.375 22.484375 35.828125 
Q 18.609375 31.296875 18.609375 23.390625 
Q 18.609375 15.53125 22.484375 10.953125 
Q 26.375 6.390625 33.015625 6.390625 
Q 39.65625 6.390625 43.53125 10.953125 
Q 47.40625 15.53125 47.40625 23.390625 
Q 47.40625 31.296875 43.53125 35.828125 
Q 39.65625 40.375 33.015625 40.375 
z
M 52.59375 71.296875 
L 52.59375 62.3125 
Q 48.875 64.0625 45.09375 64.984375 
Q 41.3125 65.921875 37.59375 65.921875 
Q 27.828125 65.921875 22.671875 59.328125 
Q 17.53125 52.734375 16.796875 39.40625 
Q 19.671875 43.65625 24.015625 45.921875 
Q 28.375 48.1875 33.59375 48.1875 
Q 44.578125 48.1875 50.953125 41.515625 
Q 57.328125 34.859375 57.328125 23.390625 
Q 57.328125 12.15625 50.6875 5.359375 
Q 44.046875 -1.421875 33.015625 -1.421875 
Q 20.359375 -1.421875 13.671875 8.265625 
Q 6.984375 17.96875 6.984375 36.375 
Q 6.984375 53.65625 15.1875 63.9375 
Q 23.390625 74.21875 37.203125 74.21875 
Q 40.921875 74.21875 44.703125 73.484375 
Q 48.484375 72.75 52.59375 71.296875 
z
" id="DejaVuSans-54"/>
      </defs>
      <g transform="translate(306.852671 329.598437)scale(0.1 -0.1)">
       <use xlink:href="#DejaVuSans-54"/>
       <use x="63.623047" xlink:href="#DejaVuSans-48"/>
       <use x="127.246094" xlink:href="#DejaVuSans-48"/>
      </g>
     </g>
    </g>
    <g id="xtick_5">
     <g id="line2d_9">
      <path clip-path="url(#pec5a781659)" d="M 383.40735 315 
L 383.40735 43.2 
" style="fill:none;stroke:#b0b0b0;stroke-linecap:square;stroke-width:0.8;"/>
     </g>
     <g id="line2d_10">
      <g>
       <use style="stroke:#000000;stroke-width:0.8;" x="383.40735" xlink:href="#m92b902b8e5" y="315"/>
      </g>
     </g>
     <g id="text_5">
      <!-- 800 -->
      <defs>
       <path d="M 31.78125 34.625 
Q 24.75 34.625 20.71875 30.859375 
Q 16.703125 27.09375 16.703125 20.515625 
Q 16.703125 13.921875 20.71875 10.15625 
Q 24.75 6.390625 31.78125 6.390625 
Q 38.8125 6.390625 42.859375 10.171875 
Q 46.921875 13.96875 46.921875 20.515625 
Q 46.921875 27.09375 42.890625 30.859375 
Q 38.875 34.625 31.78125 34.625 
z
M 21.921875 38.8125 
Q 15.578125 40.375 12.03125 44.71875 
Q 8.5 49.078125 8.5 55.328125 
Q 8.5 64.0625 14.71875 69.140625 
Q 20.953125 74.21875 31.78125 74.21875 
Q 42.671875 74.21875 48.875 69.140625 
Q 55.078125 64.0625 55.078125 55.328125 
Q 55.078125 49.078125 51.53125 44.71875 
Q 48 40.375 41.703125 38.8125 
Q 48.828125 37.15625 52.796875 32.3125 
Q 56.78125 27.484375 56.78125 20.515625 
Q 56.78125 9.90625 50.3125 4.234375 
Q 43.84375 -1.421875 31.78125 -1.421875 
Q 19.734375 -1.421875 13.25 4.234375 
Q 6.78125 9.90625 6.78125 20.515625 
Q 6.78125 27.484375 10.78125 32.3125 
Q 14.796875 37.15625 21.921875 38.8125 
z
M 18.3125 54.390625 
Q 18.3125 48.734375 21.84375 45.5625 
Q 25.390625 42.390625 31.78125 42.390625 
Q 38.140625 42.390625 41.71875 45.5625 
Q 45.3125 48.734375 45.3125 54.390625 
Q 45.3125 60.0625 41.71875 63.234375 
Q 38.140625 66.40625 31.78125 66.40625 
Q 25.390625 66.40625 21.84375 63.234375 
Q 18.3125 60.0625 18.3125 54.390625 
z
" id="DejaVuSans-56"/>
      </defs>
      <g transform="translate(373.8636 329.598437)scale(0.1 -0.1)">
       <use xlink:href="#DejaVuSans-56"/>
       <use x="63.623047" xlink:href="#DejaVuSans-48"/>
       <use x="127.246094" xlink:href="#DejaVuSans-48"/>
      </g>
     </g>
    </g>
    <g id="xtick_6">
     <g id="line2d_11">
      <path clip-path="url(#pec5a781659)" d="M 450.418278 315 
L 450.418278 43.2 
" style="fill:none;stroke:#b0b0b0;stroke-linecap:square;stroke-width:0.8;"/>
     </g>
     <g id="line2d_12">
      <g>
       <use style="stroke:#000000;stroke-width:0.8;" x="450.418278" xlink:href="#m92b902b8e5" y="315"/>
      </g>
     </g>
     <g id="text_6">
      <!-- 1000 -->
      <defs>
       <path d="M 12.40625 8.296875 
L 28.515625 8.296875 
L 28.515625 63.921875 
L 10.984375 60.40625 
L 10.984375 69.390625 
L 28.421875 72.90625 
L 38.28125 72.90625 
L 38.28125 8.296875 
L 54.390625 8.296875 
L 54.390625 0 
L 12.40625 0 
z
" id="DejaVuSans-49"/>
      </defs>
      <g transform="translate(437.693278 329.598437)scale(0.1 -0.1)">
       <use xlink:href="#DejaVuSans-49"/>
       <use x="63.623047" xlink:href="#DejaVuSans-48"/>
       <use x="127.246094" xlink:href="#DejaVuSans-48"/>
       <use x="190.869141" xlink:href="#DejaVuSans-48"/>
      </g>
     </g>
    </g>
    <g id="xtick_7">
     <g id="line2d_13">
      <path clip-path="url(#pec5a781659)" d="M 517.429206 315 
L 517.429206 43.2 
" style="fill:none;stroke:#b0b0b0;stroke-linecap:square;stroke-width:0.8;"/>
     </g>
     <g id="line2d_14">
      <g>
       <use style="stroke:#000000;stroke-width:0.8;" x="517.429206" xlink:href="#m92b902b8e5" y="315"/>
      </g>
     </g>
     <g id="text_7">
      <!-- 1200 -->
      <g transform="translate(504.704206 329.598437)scale(0.1 -0.1)">
       <use xlink:href="#DejaVuSans-49"/>
       <use x="63.623047" xlink:href="#DejaVuSans-50"/>
       <use x="127.246094" xlink:href="#DejaVuSans-48"/>
       <use x="190.869141" xlink:href="#DejaVuSans-48"/>
      </g>
     </g>
    </g>
    <g id="xtick_8">
     <g id="line2d_15">
      <path clip-path="url(#pec5a781659)" d="M 584.440135 315 
L 584.440135 43.2 
" style="fill:none;stroke:#b0b0b0;stroke-linecap:square;stroke-width:0.8;"/>
     </g>
     <g id="line2d_16">
      <g>
       <use style="stroke:#000000;stroke-width:0.8;" x="584.440135" xlink:href="#m92b902b8e5" y="315"/>
      </g>
     </g>
     <g id="text_8">
      <!-- 1400 -->
      <g transform="translate(571.715135 329.598437)scale(0.1 -0.1)">
       <use xlink:href="#DejaVuSans-49"/>
       <use x="63.623047" xlink:href="#DejaVuSans-52"/>
       <use x="127.246094" xlink:href="#DejaVuSans-48"/>
       <use x="190.869141" xlink:href="#DejaVuSans-48"/>
      </g>
     </g>
    </g>
    <g id="text_9">
     <!-- epoch -->
     <defs>
      <path d="M 56.203125 29.59375 
L 56.203125 25.203125 
L 14.890625 25.203125 
Q 15.484375 15.921875 20.484375 11.0625 
Q 25.484375 6.203125 34.421875 6.203125 
Q 39.59375 6.203125 44.453125 7.46875 
Q 49.3125 8.734375 54.109375 11.28125 
L 54.109375 2.78125 
Q 49.265625 0.734375 44.1875 -0.34375 
Q 39.109375 -1.421875 33.890625 -1.421875 
Q 20.796875 -1.421875 13.15625 6.1875 
Q 5.515625 13.8125 5.515625 26.8125 
Q 5.515625 40.234375 12.765625 48.109375 
Q 20.015625 56 32.328125 56 
Q 43.359375 56 49.78125 48.890625 
Q 56.203125 41.796875 56.203125 29.59375 
z
M 47.21875 32.234375 
Q 47.125 39.59375 43.09375 43.984375 
Q 39.0625 48.390625 32.421875 48.390625 
Q 24.90625 48.390625 20.390625 44.140625 
Q 15.875 39.890625 15.1875 32.171875 
z
" id="DejaVuSans-101"/>
      <path d="M 18.109375 8.203125 
L 18.109375 -20.796875 
L 9.078125 -20.796875 
L 9.078125 54.6875 
L 18.109375 54.6875 
L 18.109375 46.390625 
Q 20.953125 51.265625 25.265625 53.625 
Q 29.59375 56 35.59375 56 
Q 45.5625 56 51.78125 48.09375 
Q 58.015625 40.1875 58.015625 27.296875 
Q 58.015625 14.40625 51.78125 6.484375 
Q 45.5625 -1.421875 35.59375 -1.421875 
Q 29.59375 -1.421875 25.265625 0.953125 
Q 20.953125 3.328125 18.109375 8.203125 
z
M 48.6875 27.296875 
Q 48.6875 37.203125 44.609375 42.84375 
Q 40.53125 48.484375 33.40625 48.484375 
Q 26.265625 48.484375 22.1875 42.84375 
Q 18.109375 37.203125 18.109375 27.296875 
Q 18.109375 17.390625 22.1875 11.75 
Q 26.265625 6.109375 33.40625 6.109375 
Q 40.53125 6.109375 44.609375 11.75 
Q 48.6875 17.390625 48.6875 27.296875 
z
" id="DejaVuSans-112"/>
      <path d="M 30.609375 48.390625 
Q 23.390625 48.390625 19.1875 42.75 
Q 14.984375 37.109375 14.984375 27.296875 
Q 14.984375 17.484375 19.15625 11.84375 
Q 23.34375 6.203125 30.609375 6.203125 
Q 37.796875 6.203125 41.984375 11.859375 
Q 46.1875 17.53125 46.1875 27.296875 
Q 46.1875 37.015625 41.984375 42.703125 
Q 37.796875 48.390625 30.609375 48.390625 
z
M 30.609375 56 
Q 42.328125 56 49.015625 48.375 
Q 55.71875 40.765625 55.71875 27.296875 
Q 55.71875 13.875 49.015625 6.21875 
Q 42.328125 -1.421875 30.609375 -1.421875 
Q 18.84375 -1.421875 12.171875 6.21875 
Q 5.515625 13.875 5.515625 27.296875 
Q 5.515625 40.765625 12.171875 48.375 
Q 18.84375 56 30.609375 56 
z
" id="DejaVuSans-111"/>
      <path d="M 48.78125 52.59375 
L 48.78125 44.1875 
Q 44.96875 46.296875 41.140625 47.34375 
Q 37.3125 48.390625 33.40625 48.390625 
Q 24.65625 48.390625 19.8125 42.84375 
Q 14.984375 37.3125 14.984375 27.296875 
Q 14.984375 17.28125 19.8125 11.734375 
Q 24.65625 6.203125 33.40625 6.203125 
Q 37.3125 6.203125 41.140625 7.25 
Q 44.96875 8.296875 48.78125 10.40625 
L 48.78125 2.09375 
Q 45.015625 0.34375 40.984375 -0.53125 
Q 36.96875 -1.421875 32.421875 -1.421875 
Q 20.0625 -1.421875 12.78125 6.34375 
Q 5.515625 14.109375 5.515625 27.296875 
Q 5.515625 40.671875 12.859375 48.328125 
Q 20.21875 56 33.015625 56 
Q 37.15625 56 41.109375 55.140625 
Q 45.0625 54.296875 48.78125 52.59375 
z
" id="DejaVuSans-99"/>
      <path d="M 54.890625 33.015625 
L 54.890625 0 
L 45.90625 0 
L 45.90625 32.71875 
Q 45.90625 40.484375 42.875 44.328125 
Q 39.84375 48.1875 33.796875 48.1875 
Q 26.515625 48.1875 22.3125 43.546875 
Q 18.109375 38.921875 18.109375 30.90625 
L 18.109375 0 
L 9.078125 0 
L 9.078125 75.984375 
L 18.109375 75.984375 
L 18.109375 46.1875 
Q 21.34375 51.125 25.703125 53.5625 
Q 30.078125 56 35.796875 56 
Q 45.21875 56 50.046875 50.171875 
Q 54.890625 44.34375 54.890625 33.015625 
z
" id="DejaVuSans-104"/>
     </defs>
     <g transform="translate(353.771875 343.276563)scale(0.1 -0.1)">
      <use xlink:href="#DejaVuSans-101"/>
      <use x="61.523438" xlink:href="#DejaVuSans-112"/>
      <use x="125" xlink:href="#DejaVuSans-111"/>
      <use x="186.181641" xlink:href="#DejaVuSans-99"/>
      <use x="241.162109" xlink:href="#DejaVuSans-104"/>
     </g>
    </g>
   </g>
   <g id="matplotlib.axis_2">
    <g id="ytick_1">
     <g id="line2d_17">
      <path clip-path="url(#pec5a781659)" d="M 90 314.274951 
L 648 314.274951 
" style="fill:none;stroke:#b0b0b0;stroke-linecap:square;stroke-width:0.8;"/>
     </g>
     <g id="line2d_18">
      <defs>
       <path d="M 0 0 
L -3.5 0 
" id="m80bbd209a5" style="stroke:#000000;stroke-width:0.8;"/>
      </defs>
      <g>
       <use style="stroke:#000000;stroke-width:0.8;" x="90" xlink:href="#m80bbd209a5" y="314.274951"/>
      </g>
     </g>
     <g id="text_10">
      <!-- 0.3 -->
      <defs>
       <path d="M 10.6875 12.40625 
L 21 12.40625 
L 21 0 
L 10.6875 0 
z
" id="DejaVuSans-46"/>
       <path d="M 40.578125 39.3125 
Q 47.65625 37.796875 51.625 33 
Q 55.609375 28.21875 55.609375 21.1875 
Q 55.609375 10.40625 48.1875 4.484375 
Q 40.765625 -1.421875 27.09375 -1.421875 
Q 22.515625 -1.421875 17.65625 -0.515625 
Q 12.796875 0.390625 7.625 2.203125 
L 7.625 11.71875 
Q 11.71875 9.328125 16.59375 8.109375 
Q 21.484375 6.890625 26.8125 6.890625 
Q 36.078125 6.890625 40.9375 10.546875 
Q 45.796875 14.203125 45.796875 21.1875 
Q 45.796875 27.640625 41.28125 31.265625 
Q 36.765625 34.90625 28.71875 34.90625 
L 20.21875 34.90625 
L 20.21875 43.015625 
L 29.109375 43.015625 
Q 36.375 43.015625 40.234375 45.921875 
Q 44.09375 48.828125 44.09375 54.296875 
Q 44.09375 59.90625 40.109375 62.90625 
Q 36.140625 65.921875 28.71875 65.921875 
Q 24.65625 65.921875 20.015625 65.03125 
Q 15.375 64.15625 9.8125 62.3125 
L 9.8125 71.09375 
Q 15.4375 72.65625 20.34375 73.4375 
Q 25.25 74.21875 29.59375 74.21875 
Q 40.828125 74.21875 47.359375 69.109375 
Q 53.90625 64.015625 53.90625 55.328125 
Q 53.90625 49.265625 50.4375 45.09375 
Q 46.96875 40.921875 40.578125 39.3125 
z
" id="DejaVuSans-51"/>
      </defs>
      <g transform="translate(67.096875 318.07417)scale(0.1 -0.1)">
       <use xlink:href="#DejaVuSans-48"/>
       <use x="63.623047" xlink:href="#DejaVuSans-46"/>
       <use x="95.410156" xlink:href="#DejaVuSans-51"/>
      </g>
     </g>
    </g>
    <g id="ytick_2">
     <g id="line2d_19">
      <path clip-path="url(#pec5a781659)" d="M 90 271.202742 
L 648 271.202742 
" style="fill:none;stroke:#b0b0b0;stroke-linecap:square;stroke-width:0.8;"/>
     </g>
     <g id="line2d_20">
      <g>
       <use style="stroke:#000000;stroke-width:0.8;" x="90" xlink:href="#m80bbd209a5" y="271.202742"/>
      </g>
     </g>
     <g id="text_11">
      <!-- 0.4 -->
      <g transform="translate(67.096875 275.00196)scale(0.1 -0.1)">
       <use xlink:href="#DejaVuSans-48"/>
       <use x="63.623047" xlink:href="#DejaVuSans-46"/>
       <use x="95.410156" xlink:href="#DejaVuSans-52"/>
      </g>
     </g>
    </g>
    <g id="ytick_3">
     <g id="line2d_21">
      <path clip-path="url(#pec5a781659)" d="M 90 228.130532 
L 648 228.130532 
" style="fill:none;stroke:#b0b0b0;stroke-linecap:square;stroke-width:0.8;"/>
     </g>
     <g id="line2d_22">
      <g>
       <use style="stroke:#000000;stroke-width:0.8;" x="90" xlink:href="#m80bbd209a5" y="228.130532"/>
      </g>
     </g>
     <g id="text_12">
      <!-- 0.5 -->
      <defs>
       <path d="M 10.796875 72.90625 
L 49.515625 72.90625 
L 49.515625 64.59375 
L 19.828125 64.59375 
L 19.828125 46.734375 
Q 21.96875 47.46875 24.109375 47.828125 
Q 26.265625 48.1875 28.421875 48.1875 
Q 40.625 48.1875 47.75 41.5 
Q 54.890625 34.8125 54.890625 23.390625 
Q 54.890625 11.625 47.5625 5.09375 
Q 40.234375 -1.421875 26.90625 -1.421875 
Q 22.3125 -1.421875 17.546875 -0.640625 
Q 12.796875 0.140625 7.71875 1.703125 
L 7.71875 11.625 
Q 12.109375 9.234375 16.796875 8.0625 
Q 21.484375 6.890625 26.703125 6.890625 
Q 35.15625 6.890625 40.078125 11.328125 
Q 45.015625 15.765625 45.015625 23.390625 
Q 45.015625 31 40.078125 35.4375 
Q 35.15625 39.890625 26.703125 39.890625 
Q 22.75 39.890625 18.8125 39.015625 
Q 14.890625 38.140625 10.796875 36.28125 
z
" id="DejaVuSans-53"/>
      </defs>
      <g transform="translate(67.096875 231.929751)scale(0.1 -0.1)">
       <use xlink:href="#DejaVuSans-48"/>
       <use x="63.623047" xlink:href="#DejaVuSans-46"/>
       <use x="95.410156" xlink:href="#DejaVuSans-53"/>
      </g>
     </g>
    </g>
    <g id="ytick_4">
     <g id="line2d_23">
      <path clip-path="url(#pec5a781659)" d="M 90 185.058322 
L 648 185.058322 
" style="fill:none;stroke:#b0b0b0;stroke-linecap:square;stroke-width:0.8;"/>
     </g>
     <g id="line2d_24">
      <g>
       <use style="stroke:#000000;stroke-width:0.8;" x="90" xlink:href="#m80bbd209a5" y="185.058322"/>
      </g>
     </g>
     <g id="text_13">
      <!-- 0.6 -->
      <g transform="translate(67.096875 188.857541)scale(0.1 -0.1)">
       <use xlink:href="#DejaVuSans-48"/>
       <use x="63.623047" xlink:href="#DejaVuSans-46"/>
       <use x="95.410156" xlink:href="#DejaVuSans-54"/>
      </g>
     </g>
    </g>
    <g id="ytick_5">
     <g id="line2d_25">
      <path clip-path="url(#pec5a781659)" d="M 90 141.986113 
L 648 141.986113 
" style="fill:none;stroke:#b0b0b0;stroke-linecap:square;stroke-width:0.8;"/>
     </g>
     <g id="line2d_26">
      <g>
       <use style="stroke:#000000;stroke-width:0.8;" x="90" xlink:href="#m80bbd209a5" y="141.986113"/>
      </g>
     </g>
     <g id="text_14">
      <!-- 0.7 -->
      <defs>
       <path d="M 8.203125 72.90625 
L 55.078125 72.90625 
L 55.078125 68.703125 
L 28.609375 0 
L 18.3125 0 
L 43.21875 64.59375 
L 8.203125 64.59375 
z
" id="DejaVuSans-55"/>
      </defs>
      <g transform="translate(67.096875 145.785331)scale(0.1 -0.1)">
       <use xlink:href="#DejaVuSans-48"/>
       <use x="63.623047" xlink:href="#DejaVuSans-46"/>
       <use x="95.410156" xlink:href="#DejaVuSans-55"/>
      </g>
     </g>
    </g>
    <g id="ytick_6">
     <g id="line2d_27">
      <path clip-path="url(#pec5a781659)" d="M 90 98.913903 
L 648 98.913903 
" style="fill:none;stroke:#b0b0b0;stroke-linecap:square;stroke-width:0.8;"/>
     </g>
     <g id="line2d_28">
      <g>
       <use style="stroke:#000000;stroke-width:0.8;" x="90" xlink:href="#m80bbd209a5" y="98.913903"/>
      </g>
     </g>
     <g id="text_15">
      <!-- 0.8 -->
      <g transform="translate(67.096875 102.713122)scale(0.1 -0.1)">
       <use xlink:href="#DejaVuSans-48"/>
       <use x="63.623047" xlink:href="#DejaVuSans-46"/>
       <use x="95.410156" xlink:href="#DejaVuSans-56"/>
      </g>
     </g>
    </g>
    <g id="ytick_7">
     <g id="line2d_29">
      <path clip-path="url(#pec5a781659)" d="M 90 55.841694 
L 648 55.841694 
" style="fill:none;stroke:#b0b0b0;stroke-linecap:square;stroke-width:0.8;"/>
     </g>
     <g id="line2d_30">
      <g>
       <use style="stroke:#000000;stroke-width:0.8;" x="90" xlink:href="#m80bbd209a5" y="55.841694"/>
      </g>
     </g>
     <g id="text_16">
      <!-- 0.9 -->
      <defs>
       <path d="M 10.984375 1.515625 
L 10.984375 10.5 
Q 14.703125 8.734375 18.5 7.8125 
Q 22.3125 6.890625 25.984375 6.890625 
Q 35.75 6.890625 40.890625 13.453125 
Q 46.046875 20.015625 46.78125 33.40625 
Q 43.953125 29.203125 39.59375 26.953125 
Q 35.25 24.703125 29.984375 24.703125 
Q 19.046875 24.703125 12.671875 31.3125 
Q 6.296875 37.9375 6.296875 49.421875 
Q 6.296875 60.640625 12.9375 67.421875 
Q 19.578125 74.21875 30.609375 74.21875 
Q 43.265625 74.21875 49.921875 64.515625 
Q 56.59375 54.828125 56.59375 36.375 
Q 56.59375 19.140625 48.40625 8.859375 
Q 40.234375 -1.421875 26.421875 -1.421875 
Q 22.703125 -1.421875 18.890625 -0.6875 
Q 15.09375 0.046875 10.984375 1.515625 
z
M 30.609375 32.421875 
Q 37.25 32.421875 41.125 36.953125 
Q 45.015625 41.5 45.015625 49.421875 
Q 45.015625 57.28125 41.125 61.84375 
Q 37.25 66.40625 30.609375 66.40625 
Q 23.96875 66.40625 20.09375 61.84375 
Q 16.21875 57.28125 16.21875 49.421875 
Q 16.21875 41.5 20.09375 36.953125 
Q 23.96875 32.421875 30.609375 32.421875 
z
" id="DejaVuSans-57"/>
      </defs>
      <g transform="translate(67.096875 59.640912)scale(0.1 -0.1)">
       <use xlink:href="#DejaVuSans-48"/>
       <use x="63.623047" xlink:href="#DejaVuSans-46"/>
       <use x="95.410156" xlink:href="#DejaVuSans-57"/>
      </g>
     </g>
    </g>
    <g id="text_17">
     <!-- accuracy -->
     <defs>
      <path d="M 34.28125 27.484375 
Q 23.390625 27.484375 19.1875 25 
Q 14.984375 22.515625 14.984375 16.5 
Q 14.984375 11.71875 18.140625 8.90625 
Q 21.296875 6.109375 26.703125 6.109375 
Q 34.1875 6.109375 38.703125 11.40625 
Q 43.21875 16.703125 43.21875 25.484375 
L 43.21875 27.484375 
z
M 52.203125 31.203125 
L 52.203125 0 
L 43.21875 0 
L 43.21875 8.296875 
Q 40.140625 3.328125 35.546875 0.953125 
Q 30.953125 -1.421875 24.3125 -1.421875 
Q 15.921875 -1.421875 10.953125 3.296875 
Q 6 8.015625 6 15.921875 
Q 6 25.140625 12.171875 29.828125 
Q 18.359375 34.515625 30.609375 34.515625 
L 43.21875 34.515625 
L 43.21875 35.40625 
Q 43.21875 41.609375 39.140625 45 
Q 35.0625 48.390625 27.6875 48.390625 
Q 23 48.390625 18.546875 47.265625 
Q 14.109375 46.140625 10.015625 43.890625 
L 10.015625 52.203125 
Q 14.9375 54.109375 19.578125 55.046875 
Q 24.21875 56 28.609375 56 
Q 40.484375 56 46.34375 49.84375 
Q 52.203125 43.703125 52.203125 31.203125 
z
" id="DejaVuSans-97"/>
      <path d="M 8.5 21.578125 
L 8.5 54.6875 
L 17.484375 54.6875 
L 17.484375 21.921875 
Q 17.484375 14.15625 20.5 10.265625 
Q 23.53125 6.390625 29.59375 6.390625 
Q 36.859375 6.390625 41.078125 11.03125 
Q 45.3125 15.671875 45.3125 23.6875 
L 45.3125 54.6875 
L 54.296875 54.6875 
L 54.296875 0 
L 45.3125 0 
L 45.3125 8.40625 
Q 42.046875 3.421875 37.71875 1 
Q 33.40625 -1.421875 27.6875 -1.421875 
Q 18.265625 -1.421875 13.375 4.4375 
Q 8.5 10.296875 8.5 21.578125 
z
M 31.109375 56 
z
" id="DejaVuSans-117"/>
      <path d="M 41.109375 46.296875 
Q 39.59375 47.171875 37.8125 47.578125 
Q 36.03125 48 33.890625 48 
Q 26.265625 48 22.1875 43.046875 
Q 18.109375 38.09375 18.109375 28.8125 
L 18.109375 0 
L 9.078125 0 
L 9.078125 54.6875 
L 18.109375 54.6875 
L 18.109375 46.1875 
Q 20.953125 51.171875 25.484375 53.578125 
Q 30.03125 56 36.53125 56 
Q 37.453125 56 38.578125 55.875 
Q 39.703125 55.765625 41.0625 55.515625 
z
" id="DejaVuSans-114"/>
      <path d="M 32.171875 -5.078125 
Q 28.375 -14.84375 24.75 -17.8125 
Q 21.140625 -20.796875 15.09375 -20.796875 
L 7.90625 -20.796875 
L 7.90625 -13.28125 
L 13.1875 -13.28125 
Q 16.890625 -13.28125 18.9375 -11.515625 
Q 21 -9.765625 23.484375 -3.21875 
L 25.09375 0.875 
L 2.984375 54.6875 
L 12.5 54.6875 
L 29.59375 11.921875 
L 46.6875 54.6875 
L 56.203125 54.6875 
z
" id="DejaVuSans-121"/>
     </defs>
     <g transform="translate(61.017187 201.659375)rotate(-90)scale(0.1 -0.1)">
      <use xlink:href="#DejaVuSans-97"/>
      <use x="61.279297" xlink:href="#DejaVuSans-99"/>
      <use x="116.259766" xlink:href="#DejaVuSans-99"/>
      <use x="171.240234" xlink:href="#DejaVuSans-117"/>
      <use x="234.619141" xlink:href="#DejaVuSans-114"/>
      <use x="275.732422" xlink:href="#DejaVuSans-97"/>
      <use x="337.011719" xlink:href="#DejaVuSans-99"/>
      <use x="391.992188" xlink:href="#DejaVuSans-121"/>
     </g>
    </g>
   </g>
   <g id="line2d_31">
    <path clip-path="url(#pec5a781659)" d="M 115.363636 296.041049 
L 115.698691 297.907511 
L 116.033746 296.902493 
L 116.3688 298.338234 
L 116.703855 292.020976 
L 117.03891 294.605309 
L 117.373964 301.640436 
L 117.709019 297.763937 
L 118.044073 292.020976 
L 118.379128 301.640436 
L 118.714183 299.056104 
L 119.049237 300.778992 
L 119.384292 294.892457 
L 119.719347 302.645455 
L 120.054401 294.318161 
L 120.389456 297.333215 
L 120.724511 288.144477 
L 121.059565 292.88242 
L 121.39462 300.34827 
L 122.064729 292.595272 
L 122.399784 293.743865 
L 122.734838 289.005922 
L 123.069893 290.441662 
L 123.404948 290.154514 
L 123.740002 288.575199 
L 124.075057 286.134441 
L 124.410112 282.114368 
L 124.745166 289.149496 
L 125.080221 287.283033 
L 125.415276 279.960757 
L 125.75033 284.842275 
L 126.085385 279.960757 
L 126.42044 279.817183 
L 126.755494 278.381443 
L 127.090549 275.366388 
L 127.425603 270.341297 
L 127.760658 270.054149 
L 128.095713 275.222814 
L 128.765822 266.608373 
L 129.100877 263.880466 
L 129.435931 264.885484 
L 129.770986 256.127468 
L 130.106041 256.271042 
L 130.441095 257.132486 
L 130.77615 254.548154 
L 131.111205 255.84032 
L 131.446259 250.240933 
L 131.781314 246.651582 
L 132.116368 249.810211 
L 132.451423 236.314252 
L 132.786478 236.457826 
L 133.121532 229.422698 
L 133.456587 228.991976 
L 133.791642 223.679737 
L 134.126696 220.664682 
L 134.461751 222.243997 
L 134.796806 218.367498 
L 135.13186 209.465908 
L 135.466915 210.040204 
L 135.801969 209.322334 
L 136.137024 207.168723 
L 136.472079 203.866521 
L 136.807133 198.697855 
L 137.142188 206.738001 
L 137.477243 193.52919 
L 138.147352 199.5593 
L 138.482407 196.544245 
L 138.817461 197.549263 
L 139.152516 187.211933 
L 139.487571 186.350489 
L 139.822625 191.232006 
L 140.15768 189.078395 
L 140.492734 185.201896 
L 140.827789 190.65771 
L 141.162844 180.463953 
L 141.832953 186.350489 
L 142.168008 183.766156 
L 142.503062 183.622582 
L 142.838117 188.073377 
L 143.173172 178.453917 
L 143.508226 173.5724 
L 143.843281 182.330416 
L 144.178336 182.043268 
L 144.51339 186.206915 
L 144.848445 183.048286 
L 145.183499 175.869584 
L 145.518554 171.849511 
L 145.853609 176.013158 
L 146.188663 171.131641 
L 146.523718 171.993085 
L 146.858773 169.552327 
L 147.193827 173.141678 
L 147.528882 173.5724 
L 147.863937 171.562363 
L 148.534046 164.814384 
L 148.869101 166.10655 
L 149.204155 166.537272 
L 149.53921 166.250124 
L 149.874264 167.685864 
L 150.209319 170.413771 
L 150.544374 178.884639 
L 150.879428 168.260161 
L 151.214483 164.527236 
L 151.884592 165.962976 
L 152.219647 167.829438 
L 152.554702 161.368607 
L 152.889756 162.660773 
L 153.224811 161.942903 
L 153.559865 160.937885 
L 153.89492 168.403735 
L 154.229975 168.547309 
L 154.565029 162.660773 
L 154.900084 162.373625 
L 155.235139 160.794311 
L 155.570193 161.942903 
L 155.905248 161.368607 
L 156.240303 155.625646 
L 156.575357 154.620628 
L 156.910412 159.358571 
L 157.245467 160.507163 
L 157.915576 154.046331 
L 158.25063 161.081459 
L 158.585685 162.230051 
L 158.92074 153.759183 
L 159.590849 157.348534 
L 159.925904 155.912794 
L 160.260958 158.6407 
L 160.596013 152.036295 
L 160.931068 158.209978 
L 161.266122 154.477054 
L 161.601177 154.620628 
L 161.936232 149.451962 
L 162.271286 154.189905 
L 162.606341 155.625646 
L 162.941395 150.169833 
L 163.27645 148.734092 
L 163.611505 155.482072 
L 163.946559 151.749147 
L 164.281614 149.451962 
L 164.616669 152.323443 
L 164.951723 143.709001 
L 165.286778 144.570445 
L 165.621833 149.882684 
L 165.956887 140.981095 
L 166.291942 148.30337 
L 166.962051 149.882684 
L 167.297106 149.451962 
L 167.967215 143.565427 
L 168.30227 142.560409 
L 168.637324 143.565427 
L 168.972379 146.724056 
L 169.307434 139.688928 
L 169.642488 142.703983 
L 169.977543 142.991131 
L 170.312598 140.981095 
L 170.647652 140.83752 
L 170.982707 139.688928 
L 171.317761 140.83752 
L 171.652816 139.688928 
L 171.987871 132.079505 
L 172.322925 140.83752 
L 172.65798 137.535318 
L 172.993035 138.827484 
L 173.328089 143.565427 
L 173.663144 141.124669 
L 173.998199 134.950985 
L 174.668308 137.822466 
L 175.003363 133.802393 
L 175.338417 135.238133 
L 175.673472 137.822466 
L 176.008526 137.678892 
L 176.343581 134.663837 
L 176.678636 138.540336 
L 177.348745 127.772284 
L 177.6838 132.223079 
L 178.018854 129.351598 
L 178.353909 131.792356 
L 178.688964 127.485135 
L 179.024018 132.797375 
L 179.359073 130.50019 
L 179.694128 130.213042 
L 180.364237 133.945967 
L 180.699291 130.643764 
L 181.034346 131.361634 
L 181.369401 131.074486 
L 181.704455 127.772284 
L 182.03951 132.510227 
L 182.374565 128.203006 
L 182.709619 133.515245 
L 183.044674 126.767265 
L 183.379729 132.510227 
L 183.714783 128.490154 
L 184.049838 130.643764 
L 184.384893 131.505208 
L 184.719947 123.03434 
L 185.055002 127.62871 
L 185.390056 126.192969 
L 185.725111 130.50019 
L 186.060166 125.187951 
L 186.39522 129.78232 
L 186.730275 126.192969 
L 187.06533 126.192969 
L 187.400384 124.900803 
L 187.735439 129.06445 
L 188.070494 131.648782 
L 188.405548 126.336543 
L 188.740603 127.485135 
L 189.075657 131.93593 
L 189.410712 127.054413 
L 189.745767 127.197987 
L 190.080821 128.059432 
L 190.415876 122.172896 
L 190.750931 124.900803 
L 191.085985 122.747192 
L 191.42104 116.860657 
L 191.756095 121.885748 
L 192.091149 119.44499 
L 192.426204 117.865675 
L 192.761259 123.177915 
L 193.431368 124.182933 
L 193.766422 124.900803 
L 194.101477 117.722101 
L 194.436532 122.029322 
L 194.771586 115.137769 
L 195.106641 111.26127 
L 195.441696 119.301416 
L 195.77675 121.024304 
L 196.111805 116.717083 
L 196.44686 115.568491 
L 196.781914 123.752211 
L 197.116969 117.147805 
L 197.452024 119.014268 
L 197.787078 116.286361 
L 198.122133 120.593582 
L 198.457187 116.717083 
L 198.792242 116.286361 
L 199.127297 117.291379 
L 199.462351 113.558454 
L 199.797406 115.137769 
L 200.132461 114.132751 
L 200.467515 113.702028 
L 200.80257 112.840584 
L 201.137625 114.132751 
L 201.472679 112.69701 
L 201.807734 112.122714 
L 202.142789 108.820511 
L 202.477843 115.281343 
L 202.812898 111.404844 
L 203.147952 114.850621 
L 203.483007 115.712065 
L 203.818062 111.404844 
L 204.153116 116.429935 
L 204.823226 112.266288 
L 205.15828 113.558454 
L 205.493335 109.969104 
L 205.82839 111.404844 
L 206.163444 110.974122 
L 206.498499 113.989176 
L 206.833554 109.969104 
L 207.168608 109.681956 
L 207.503663 111.117696 
L 207.838717 106.523327 
L 208.173772 113.127732 
L 208.508827 109.969104 
L 208.843881 113.271306 
L 209.178936 109.394807 
L 209.513991 110.256252 
L 209.849045 109.251233 
L 210.1841 107.671919 
L 210.519155 103.79542 
L 210.854209 103.79542 
L 211.189264 108.964085 
L 211.524318 103.79542 
L 211.859373 104.800438 
L 212.194428 105.231161 
L 212.529482 110.5434 
L 212.864537 105.661883 
L 213.199592 108.820511 
L 213.534646 109.107659 
L 213.869701 104.51329 
L 214.204756 104.082568 
L 214.53981 104.082568 
L 214.874865 106.379753 
L 215.20992 104.082568 
L 215.544974 107.384771 
L 215.880029 104.944012 
L 216.215083 101.64181 
L 216.550138 101.928958 
L 216.885193 106.092605 
L 217.220247 101.354662 
L 217.555302 102.072532 
L 217.890357 105.087586 
L 218.225411 105.087586 
L 218.560466 102.503254 
L 218.895521 102.503254 
L 219.230575 98.913903 
L 219.56563 105.661883 
L 219.900685 97.765311 
L 220.235739 100.780366 
L 220.570794 99.775347 
L 220.905848 97.908885 
L 221.240903 104.51329 
L 221.575958 101.354662 
L 221.911012 95.324552 
L 222.246067 104.51329 
L 222.581122 99.488199 
L 222.916176 97.621737 
L 223.251231 103.221124 
L 223.586286 89.725165 
L 223.92134 97.621737 
L 224.256395 95.755274 
L 224.59145 100.493217 
L 224.926504 100.92394 
L 225.261559 102.35968 
L 225.596613 98.626755 
L 225.931668 99.918921 
L 226.266723 97.908885 
L 226.601777 103.07755 
L 226.936832 101.354662 
L 227.271887 102.503254 
L 227.606941 97.191015 
L 227.941996 99.918921 
L 228.277051 95.898848 
L 229.282214 101.067514 
L 229.617269 98.626755 
L 229.952324 99.057477 
L 230.287378 101.498236 
L 230.622433 97.765311 
L 230.957488 97.765311 
L 231.292542 100.206069 
L 231.962652 94.319534 
L 232.297706 93.170942 
L 232.632761 96.473145 
L 232.967816 93.888812 
L 233.30287 96.185997 
L 233.637925 92.02235 
L 233.972979 100.92394 
L 234.308034 94.463108 
L 234.643089 93.888812 
L 234.978143 95.468126 
L 235.313198 91.878776 
L 235.648253 96.329571 
L 235.983307 94.89383 
L 236.318362 91.017331 
L 236.653417 95.037404 
L 236.988471 91.735202 
L 237.323526 95.468126 
L 237.658581 90.443035 
L 237.993635 90.873757 
L 238.32869 92.883794 
L 238.663744 91.304479 
L 238.998799 95.180978 
L 239.333854 89.150869 
L 239.668908 94.750256 
L 240.003963 87.715129 
L 240.339018 91.304479 
L 240.674072 85.130796 
L 241.009127 86.71011 
L 241.344182 91.017331 
L 241.679236 89.581591 
L 242.014291 93.745238 
L 242.349346 89.868739 
L 242.6844 91.448053 
L 243.019455 87.140832 
L 243.354509 93.170942 
L 244.024619 87.571555 
L 244.359673 92.596646 
L 244.694728 90.586609 
L 245.029783 90.873757 
L 245.364837 92.453072 
L 246.034947 90.730183 
L 246.370001 92.74022 
L 246.705056 92.453072 
L 247.04011 87.858703 
L 247.71022 93.745238 
L 248.045274 84.412926 
L 248.380329 87.858703 
L 248.715384 83.264334 
L 249.050438 88.863721 
L 249.385493 89.294443 
L 249.720548 83.982204 
L 250.055602 84.5565 
L 250.390657 88.720147 
L 250.725712 86.853684 
L 251.060766 87.858703 
L 251.395821 93.027368 
L 251.730875 92.453072 
L 252.06593 85.99224 
L 252.400985 93.601664 
L 252.736039 86.997258 
L 253.071094 88.432999 
L 253.406149 88.002277 
L 253.741203 88.576573 
L 254.076258 80.536427 
L 254.411313 85.99224 
L 254.746367 83.264334 
L 255.416477 92.165924 
L 255.751531 86.279388 
L 256.086586 85.130796 
L 256.42164 85.27437 
L 256.756695 81.972167 
L 257.09175 91.448053 
L 257.426804 83.407908 
L 257.761859 89.150869 
L 258.096914 87.858703 
L 258.431968 84.700074 
L 258.767023 88.720147 
L 259.102078 87.427981 
L 259.437132 89.438017 
L 259.772187 81.972167 
L 260.107242 84.987222 
L 260.442296 85.705092 
L 260.777351 85.27437 
L 261.44746 88.289425 
L 261.782515 84.5565 
L 262.117569 89.868739 
L 262.452624 83.12076 
L 263.122733 88.145851 
L 263.457788 89.150869 
L 263.792843 85.27437 
L 264.127897 86.135814 
L 264.462952 85.27437 
L 264.798006 83.551482 
L 265.133061 85.27437 
L 265.468116 85.417944 
L 265.80317 86.135814 
L 266.138225 82.546463 
L 266.47328 85.130796 
L 266.808334 79.962131 
L 267.143389 85.27437 
L 267.478444 82.115741 
L 267.813498 82.546463 
L 268.148553 80.967149 
L 268.483608 84.412926 
L 268.818662 89.868739 
L 269.153717 81.541445 
L 269.488771 85.99224 
L 269.823826 86.71011 
L 270.493935 82.690038 
L 271.164045 84.412926 
L 271.499099 83.551482 
L 271.834154 80.680001 
L 272.169209 87.571555 
L 272.839318 85.27437 
L 273.174373 79.818557 
L 273.509427 84.987222 
L 273.844482 79.100687 
L 274.179536 82.977186 
L 274.514591 82.546463 
L 274.849646 80.536427 
L 275.1847 80.680001 
L 275.519755 83.407908 
L 275.85481 84.843648 
L 276.189864 85.417944 
L 276.859974 80.249279 
L 277.195028 81.828593 
L 277.530083 81.828593 
L 277.865138 85.130796 
L 278.200192 82.690038 
L 278.535247 82.833612 
L 278.870301 75.65491 
L 279.205356 87.140832 
L 279.540411 78.239243 
L 279.875465 81.685019 
L 280.21052 81.254297 
L 280.545575 81.972167 
L 280.880629 77.664946 
L 281.215684 81.254297 
L 281.550739 82.977186 
L 281.885793 81.254297 
L 282.220848 85.848666 
L 282.555902 83.982204 
L 282.890957 78.382817 
L 283.226012 80.536427 
L 283.561066 78.095668 
L 283.896121 83.83863 
L 284.56623 77.80852 
L 284.901285 79.387835 
L 285.23634 75.942058 
L 285.571394 80.105705 
L 285.906449 80.249279 
L 286.241504 77.952094 
L 286.576558 82.115741 
L 286.911613 80.823575 
L 287.246667 81.972167 
L 287.581722 77.80852 
L 287.916777 81.397871 
L 288.251831 77.952094 
L 288.586886 80.680001 
L 288.921941 78.669965 
L 289.256995 78.095668 
L 289.59205 81.541445 
L 289.927105 80.536427 
L 290.262159 78.382817 
L 290.597214 81.541445 
L 290.932269 80.392853 
L 291.267323 75.65491 
L 291.602378 77.952094 
L 291.937432 78.813539 
L 292.272487 80.392853 
L 292.607542 79.674983 
L 292.942596 77.952094 
L 293.277651 77.234224 
L 293.94776 83.695056 
L 294.282815 78.095668 
L 294.61787 80.680001 
L 294.952924 80.536427 
L 295.287979 84.269352 
L 295.623034 82.690038 
L 295.958088 79.674983 
L 296.293143 82.833612 
L 296.628197 79.962131 
L 296.963252 79.674983 
L 297.298307 81.397871 
L 297.633361 76.947076 
L 297.968416 76.085632 
L 298.303471 76.37278 
L 298.638525 78.526391 
L 298.97358 76.947076 
L 299.308635 77.664946 
L 299.643689 80.823575 
L 299.978744 79.100687 
L 300.313798 83.695056 
L 300.983908 75.511336 
L 301.318962 79.531409 
L 301.654017 76.803502 
L 301.989072 78.957113 
L 302.324126 77.952094 
L 302.659181 83.982204 
L 302.994236 79.818557 
L 303.32929 79.387835 
L 303.664345 79.674983 
L 303.9994 76.947076 
L 304.334454 77.664946 
L 304.669509 78.957113 
L 305.004563 78.957113 
L 305.339618 74.075596 
L 305.674673 76.37278 
L 306.009727 72.927003 
L 306.344782 78.095668 
L 306.679837 71.347689 
L 307.014891 76.659928 
L 307.349946 77.952094 
L 307.685001 73.788448 
L 308.690165 78.526391 
L 309.025219 76.803502 
L 309.360274 72.927003 
L 309.695328 74.362744 
L 310.030383 79.100687 
L 310.365438 79.962131 
L 310.700492 76.37278 
L 311.035547 79.962131 
L 312.040711 72.783429 
L 312.375766 71.491263 
L 312.71082 78.813539 
L 313.045875 71.778411 
L 313.38093 74.793466 
L 313.715984 81.254297 
L 314.051039 75.511336 
L 314.386093 77.80852 
L 314.721148 77.234224 
L 315.056203 74.793466 
L 315.391257 75.080614 
L 315.726312 76.085632 
L 316.061367 74.649892 
L 316.396421 81.972167 
L 316.731476 72.209133 
L 317.066531 72.209133 
L 317.401585 71.204115 
L 317.73664 74.649892 
L 318.071694 74.649892 
L 318.406749 81.685019 
L 318.741804 73.932022 
L 319.076858 72.639855 
L 319.411913 74.21917 
L 319.746968 80.823575 
L 320.417077 76.37278 
L 320.752132 75.080614 
L 321.087186 78.382817 
L 321.422241 74.93704 
L 321.757296 75.942058 
L 322.09235 71.634837 
L 322.427405 69.768375 
L 323.097514 76.085632 
L 323.432569 71.634837 
L 323.767623 73.501299 
L 324.102678 78.382817 
L 324.437733 77.952094 
L 324.772787 72.783429 
L 325.107842 77.377798 
L 325.442897 73.357725 
L 325.777951 72.783429 
L 326.113006 75.65491 
L 326.448061 75.224188 
L 326.783115 77.377798 
L 327.11817 78.095668 
L 327.788279 76.085632 
L 328.123334 79.674983 
L 328.458388 74.075596 
L 329.463552 76.085632 
L 329.798607 73.214151 
L 330.803771 76.803502 
L 331.138826 76.229206 
L 331.47388 72.496281 
L 331.808935 72.496281 
L 332.143989 74.21917 
L 332.479044 73.932022 
L 332.814099 72.065559 
L 333.149153 76.947076 
L 333.484208 70.916967 
L 333.819263 73.644873 
L 334.154317 74.649892 
L 334.489372 70.055523 
L 334.824427 68.619782 
L 335.159481 71.634837 
L 335.494536 77.09065 
L 335.82959 72.783429 
L 336.164645 75.080614 
L 336.4997 73.357725 
L 336.834754 73.357725 
L 337.169809 73.214151 
L 337.504864 75.367762 
L 337.839918 68.18906 
L 338.174973 70.055523 
L 338.510028 76.085632 
L 338.845082 77.234224 
L 339.180137 72.065559 
L 339.515192 75.942058 
L 339.850246 73.214151 
L 340.185301 74.075596 
L 340.520355 72.783429 
L 340.85541 73.501299 
L 341.190465 74.506318 
L 341.525519 71.204115 
L 341.860574 74.93704 
L 342.195629 74.649892 
L 342.530683 73.788448 
L 343.200793 70.916967 
L 343.535847 72.352707 
L 343.870902 75.367762 
L 344.205957 77.234224 
L 344.541011 75.080614 
L 344.876066 76.947076 
L 345.21112 73.070577 
L 345.546175 71.921985 
L 345.88123 76.516354 
L 346.216284 74.649892 
L 346.886394 73.214151 
L 347.221448 73.070577 
L 347.891558 71.634837 
L 348.226612 71.921985 
L 348.561667 70.486245 
L 348.896722 71.204115 
L 349.231776 73.932022 
L 349.566831 73.932022 
L 350.23694 72.209133 
L 350.571995 72.496281 
L 351.242104 67.184042 
L 351.577159 74.075596 
L 351.912213 72.496281 
L 352.247268 70.055523 
L 352.582323 74.075596 
L 352.917377 74.075596 
L 353.252432 68.332634 
L 353.587486 70.629819 
L 353.922541 74.649892 
L 354.257596 69.050504 
L 354.927705 72.783429 
L 355.26276 71.634837 
L 355.597814 72.783429 
L 355.932869 75.511336 
L 356.267924 74.362744 
L 356.602978 68.90693 
L 356.938033 76.37278 
L 357.273088 71.634837 
L 357.608142 74.362744 
L 357.943197 69.050504 
L 358.278251 69.768375 
L 358.948361 72.065559 
L 359.283415 68.332634 
L 359.61847 74.649892 
L 359.953525 73.932022 
L 360.623634 75.080614 
L 360.958689 70.773393 
L 361.293743 69.050504 
L 361.628798 75.224188 
L 361.963853 72.352707 
L 362.298907 72.927003 
L 362.633962 71.634837 
L 362.969016 71.778411 
L 363.304071 68.476208 
L 363.639126 76.37278 
L 363.97418 70.486245 
L 364.309235 71.060541 
L 364.64429 68.476208 
L 364.979344 73.070577 
L 365.314399 69.624801 
L 365.649454 71.778411 
L 365.984508 72.639855 
L 366.319563 71.347689 
L 366.654618 70.773393 
L 366.989672 72.496281 
L 367.324727 73.070577 
L 367.659781 66.03545 
L 367.994836 68.763356 
L 368.329891 73.214151 
L 369 71.204115 
L 369.335055 72.496281 
L 369.670109 69.911949 
L 370.005164 70.629819 
L 370.340219 72.496281 
L 370.675273 76.229206 
L 371.010328 69.911949 
L 371.345382 75.942058 
L 371.680437 69.481227 
L 372.015492 73.932022 
L 372.350546 70.773393 
L 372.685601 71.347689 
L 373.020656 72.783429 
L 373.35571 66.75332 
L 373.690765 73.932022 
L 374.360874 70.055523 
L 374.695929 72.783429 
L 375.030984 69.194078 
L 375.366038 71.778411 
L 375.701093 71.491263 
L 376.036147 72.065559 
L 376.371202 69.050504 
L 376.706257 71.204115 
L 377.041311 71.921985 
L 377.376366 68.619782 
L 377.711421 70.055523 
L 378.046475 70.199097 
L 378.38153 71.634837 
L 378.716585 70.916967 
L 379.051639 68.332634 
L 379.386694 72.927003 
L 379.721749 70.773393 
L 380.056803 73.070577 
L 380.391858 73.501299 
L 380.726912 72.783429 
L 381.061967 69.050504 
L 381.397022 72.496281 
L 381.732076 69.194078 
L 382.067131 71.060541 
L 382.402186 69.337653 
L 382.73724 76.085632 
L 383.072295 70.055523 
L 383.40735 72.496281 
L 383.742404 73.214151 
L 384.077459 68.18906 
L 384.412514 69.194078 
L 384.747568 70.916967 
L 385.082623 70.342671 
L 385.417677 68.619782 
L 385.752732 69.768375 
L 386.087787 68.476208 
L 386.422841 72.927003 
L 386.757896 70.916967 
L 387.092951 65.31758 
L 387.428005 73.357725 
L 387.76306 68.763356 
L 388.098115 71.347689 
L 388.433169 71.921985 
L 388.768224 71.060541 
L 389.103278 72.496281 
L 389.438333 72.927003 
L 389.773388 65.891876 
L 390.108442 68.90693 
L 390.443497 70.342671 
L 390.778552 69.911949 
L 391.113606 70.629819 
L 391.448661 69.768375 
L 391.783716 70.486245 
L 392.11877 67.614764 
L 392.453825 70.486245 
L 392.78888 71.491263 
L 393.123934 68.18906 
L 393.458989 69.194078 
L 393.794043 63.594691 
L 394.129098 71.778411 
L 394.464153 71.347689 
L 394.799207 64.743284 
L 395.134262 72.209133 
L 395.469317 67.327616 
L 395.804371 70.629819 
L 396.139426 69.768375 
L 396.474481 73.357725 
L 396.809535 70.342671 
L 397.14459 71.060541 
L 397.479645 74.21917 
L 397.814699 71.921985 
L 398.484808 65.604728 
L 398.819863 67.901912 
L 399.154918 71.060541 
L 399.489972 65.030432 
L 399.825027 68.045486 
L 400.160082 66.466172 
L 400.495136 67.901912 
L 400.830191 64.743284 
L 401.165246 66.03545 
L 401.5003 70.199097 
L 401.835355 70.199097 
L 402.17041 73.644873 
L 402.505464 69.194078 
L 402.840519 67.47119 
L 403.175573 71.204115 
L 403.510628 67.327616 
L 403.845683 65.604728 
L 404.180737 68.763356 
L 404.515792 66.322598 
L 404.850847 69.194078 
L 405.520956 65.31758 
L 405.856011 68.476208 
L 406.191065 70.342671 
L 406.52612 65.604728 
L 406.861174 71.060541 
L 407.196229 70.916967 
L 407.531284 70.629819 
L 407.866338 65.891876 
L 408.201393 71.634837 
L 408.536448 64.599709 
L 408.871502 74.649892 
L 409.206557 67.47119 
L 409.541612 70.342671 
L 409.876666 68.18906 
L 410.546776 72.639855 
L 411.216885 66.466172 
L 411.551939 64.168987 
L 411.886994 64.456135 
L 412.222049 71.060541 
L 412.557103 66.466172 
L 412.892158 67.47119 
L 413.227213 68.045486 
L 413.562267 71.921985 
L 413.897322 66.896894 
L 414.232377 68.18906 
L 414.567431 71.921985 
L 414.902486 66.322598 
L 415.237541 65.748302 
L 415.572595 67.47119 
L 415.90765 70.199097 
L 416.242704 69.911949 
L 416.577759 68.90693 
L 416.912814 69.337653 
L 417.247868 64.886858 
L 417.582923 65.030432 
L 417.917978 71.634837 
L 418.253032 64.886858 
L 418.923142 68.332634 
L 419.258196 67.758338 
L 419.593251 65.461154 
L 419.928306 66.896894 
L 420.26336 69.768375 
L 420.598415 64.168987 
L 420.933469 68.045486 
L 421.268524 69.194078 
L 421.603579 66.609746 
L 421.938633 70.055523 
L 422.273688 65.748302 
L 422.608743 69.911949 
L 422.943797 69.050504 
L 423.278852 63.881839 
L 423.613907 69.337653 
L 424.284016 65.030432 
L 424.61907 64.886858 
L 425.28918 73.214151 
L 425.624234 65.891876 
L 425.959289 67.901912 
L 426.294344 69.194078 
L 426.629398 65.174006 
L 426.964453 68.763356 
L 427.299508 68.18906 
L 427.634562 68.619782 
L 428.304672 67.184042 
L 428.639726 66.75332 
L 428.974781 71.921985 
L 429.309835 64.743284 
L 429.64489 64.025413 
L 429.979945 65.31758 
L 430.314999 69.911949 
L 431.320163 65.31758 
L 431.655218 65.604728 
L 431.990273 66.179024 
L 432.325327 67.184042 
L 432.660382 65.174006 
L 433.330491 64.886858 
L 433.665546 68.332634 
L 434.0006 66.466172 
L 434.335655 66.03545 
L 434.67071 67.758338 
L 435.005764 65.174006 
L 435.675874 70.916967 
L 436.010928 64.456135 
L 436.345983 68.763356 
L 436.681038 66.75332 
L 437.016092 68.332634 
L 437.351147 66.609746 
L 437.686202 70.486245 
L 438.021256 62.302525 
L 438.356311 66.179024 
L 438.691365 63.738265 
L 439.02642 66.75332 
L 439.361475 64.886858 
L 439.696529 65.604728 
L 440.031584 68.332634 
L 440.366639 62.876821 
L 440.701693 66.75332 
L 441.036748 65.030432 
L 441.371803 69.194078 
L 441.706857 67.901912 
L 442.041912 66.03545 
L 442.376966 66.466172 
L 442.712021 64.743284 
L 443.047076 66.609746 
L 443.38213 64.743284 
L 443.717185 67.184042 
L 444.05224 65.030432 
L 444.387294 65.31758 
L 444.722349 64.743284 
L 445.057404 70.486245 
L 445.392458 64.886858 
L 445.727513 69.481227 
L 446.062568 67.040468 
L 446.397622 65.748302 
L 446.732677 68.476208 
L 447.067731 68.90693 
L 447.402786 64.743284 
L 447.737841 62.589673 
L 448.072895 68.763356 
L 448.40795 63.594691 
L 448.743005 69.337653 
L 449.078059 66.179024 
L 449.413114 65.891876 
L 449.748169 68.332634 
L 450.083223 68.619782 
L 450.418278 66.896894 
L 450.753333 69.911949 
L 451.088387 61.728229 
L 451.758496 69.050504 
L 452.093551 68.476208 
L 452.428606 65.604728 
L 452.76366 66.03545 
L 453.098715 68.332634 
L 453.43377 62.876821 
L 453.768824 68.476208 
L 454.103879 65.891876 
L 454.773988 67.614764 
L 455.109043 64.599709 
L 455.444098 71.491263 
L 456.114207 60.866785 
L 456.449261 65.891876 
L 456.784316 68.18906 
L 457.119371 69.337653 
L 457.454425 66.896894 
L 457.78948 67.614764 
L 458.124535 64.312561 
L 458.459589 64.886858 
L 458.794644 67.327616 
L 459.129699 62.302525 
L 459.464753 66.75332 
L 459.799808 60.723211 
L 460.134862 67.040468 
L 460.804972 66.03545 
L 461.140026 65.891876 
L 461.810136 67.184042 
L 462.14519 66.179024 
L 462.480245 69.337653 
L 462.8153 63.163969 
L 463.150354 65.604728 
L 463.485409 65.030432 
L 463.820464 65.461154 
L 464.155518 64.599709 
L 464.490573 67.901912 
L 464.825627 65.748302 
L 465.160682 64.599709 
L 465.495737 62.876821 
L 465.830791 62.158951 
L 466.165846 64.168987 
L 466.500901 64.886858 
L 466.835955 63.307543 
L 467.506065 66.179024 
L 467.841119 66.03545 
L 468.176174 63.163969 
L 468.511229 66.179024 
L 468.846283 67.040468 
L 469.516392 63.163969 
L 469.851447 66.322598 
L 470.186502 64.743284 
L 470.521556 65.31758 
L 470.856611 68.90693 
L 471.191666 66.179024 
L 471.52672 65.891876 
L 471.861775 63.451117 
L 472.19683 69.050504 
L 472.531884 65.030432 
L 472.866939 66.322598 
L 473.201994 64.168987 
L 473.537048 64.886858 
L 473.872103 67.184042 
L 474.542212 62.733247 
L 474.877267 66.179024 
L 475.212321 65.030432 
L 475.547376 67.47119 
L 475.882431 65.604728 
L 476.217485 66.03545 
L 476.55254 65.748302 
L 476.887595 68.332634 
L 477.222649 62.015377 
L 477.557704 68.332634 
L 477.892758 65.461154 
L 478.227813 64.599709 
L 478.562868 66.322598 
L 478.897922 63.020395 
L 479.232977 66.896894 
L 479.568032 65.748302 
L 479.903086 63.451117 
L 480.238141 63.881839 
L 480.573196 66.609746 
L 480.90825 66.322598 
L 481.243305 64.599709 
L 481.57836 66.322598 
L 481.913414 68.763356 
L 482.248469 61.728229 
L 482.583523 63.020395 
L 482.918578 65.461154 
L 483.253633 62.302525 
L 483.923742 65.174006 
L 484.593851 62.589673 
L 484.928906 64.168987 
L 485.263961 61.010359 
L 485.93407 65.174006 
L 486.604179 67.184042 
L 486.939234 65.891876 
L 487.274288 66.322598 
L 487.609343 62.733247 
L 487.944398 62.158951 
L 488.279452 64.886858 
L 488.949562 66.03545 
L 489.284616 63.020395 
L 489.619671 64.312561 
L 489.954726 63.451117 
L 490.28978 66.609746 
L 490.624835 62.302525 
L 490.95989 68.045486 
L 491.294944 61.010359 
L 491.629999 64.886858 
L 491.965053 62.446099 
L 492.300108 66.03545 
L 492.970217 64.025413 
L 493.305272 64.312561 
L 493.640327 66.322598 
L 493.975381 66.466172 
L 494.310436 65.604728 
L 494.645491 59.431044 
L 494.980545 65.461154 
L 495.650654 60.436063 
L 495.985709 68.763356 
L 496.320764 63.307543 
L 496.655818 61.871803 
L 496.990873 66.609746 
L 497.325928 61.441081 
L 497.660982 65.174006 
L 497.996037 66.896894 
L 498.331092 64.312561 
L 498.666146 64.168987 
L 499.001201 62.733247 
L 499.336256 63.307543 
L 499.67131 61.584655 
L 500.006365 63.307543 
L 500.341419 64.312561 
L 500.676474 64.456135 
L 501.011529 64.168987 
L 501.346583 65.030432 
L 501.681638 63.307543 
L 502.016693 59.718192 
L 502.351747 65.030432 
L 502.686802 61.871803 
L 503.021857 63.163969 
L 503.356911 65.174006 
L 503.691966 63.881839 
L 504.027021 60.723211 
L 504.362075 64.168987 
L 504.69713 64.025413 
L 505.032184 65.748302 
L 505.367239 62.015377 
L 505.702294 63.594691 
L 506.037348 61.441081 
L 506.372403 64.599709 
L 506.707458 61.441081 
L 507.042512 63.451117 
L 507.377567 61.871803 
L 507.712622 62.446099 
L 508.047676 65.748302 
L 508.382731 58.138878 
L 508.717786 65.461154 
L 509.05284 65.174006 
L 509.387895 65.891876 
L 509.722949 63.594691 
L 510.058004 66.609746 
L 510.393059 64.743284 
L 511.063168 63.163969 
L 511.398223 60.723211 
L 511.733277 65.174006 
L 512.068332 62.302525 
L 512.403387 62.876821 
L 512.738441 64.456135 
L 513.073496 63.307543 
L 513.40855 66.466172 
L 513.743605 61.871803 
L 514.07866 65.174006 
L 514.413714 59.861766 
L 514.748769 62.015377 
L 515.418878 60.00534 
L 515.753933 64.886858 
L 516.088988 64.456135 
L 516.424042 60.579637 
L 516.759097 61.010359 
L 517.429206 67.47119 
L 517.764261 59.143896 
L 518.099315 62.302525 
L 518.43437 64.168987 
L 518.769425 60.436063 
L 519.104479 64.743284 
L 519.439534 58.138878 
L 519.774589 63.307543 
L 520.109643 61.871803 
L 520.444698 64.886858 
L 520.779753 61.297507 
L 521.114807 55.985268 
L 521.449862 65.030432 
L 521.784917 60.148914 
L 522.119971 64.312561 
L 522.455026 63.020395 
L 522.79008 60.866785 
L 523.125135 62.446099 
L 523.46019 65.891876 
L 523.795244 61.153933 
L 524.130299 62.589673 
L 524.800408 66.179024 
L 525.135463 59.431044 
L 525.470518 64.168987 
L 525.805572 60.723211 
L 526.140627 62.589673 
L 526.475682 62.015377 
L 526.810736 62.733247 
L 527.145791 65.748302 
L 527.480845 66.466172 
L 527.8159 63.307543 
L 528.150955 62.302525 
L 528.486009 64.886858 
L 528.821064 66.322598 
L 529.156119 62.589673 
L 529.491173 66.03545 
L 529.826228 60.148914 
L 530.161283 66.179024 
L 530.496337 63.163969 
L 530.831392 58.282452 
L 531.166446 61.584655 
L 531.501501 56.272416 
L 531.836556 56.559564 
L 532.17161 64.599709 
L 532.506665 65.030432 
L 532.84172 57.85173 
L 533.511829 62.876821 
L 533.846884 59.718192 
L 534.181938 61.010359 
L 534.516993 59.574618 
L 534.852048 59.000322 
L 535.187102 62.446099 
L 535.522157 64.168987 
L 535.857211 61.871803 
L 536.192266 67.040468 
L 536.527321 61.871803 
L 536.862375 60.00534 
L 537.19743 66.322598 
L 537.532485 61.010359 
L 537.867539 65.174006 
L 538.202594 60.866785 
L 538.537649 58.426026 
L 538.872703 60.723211 
L 539.207758 59.718192 
L 539.542813 61.728229 
L 539.877867 62.302525 
L 540.212922 68.18906 
L 540.883031 60.292489 
L 541.218086 66.466172 
L 541.55314 66.179024 
L 541.888195 61.871803 
L 542.22325 60.436063 
L 542.558304 62.733247 
L 542.893359 59.718192 
L 543.228414 58.426026 
L 543.563468 59.431044 
L 543.898523 60.866785 
L 544.233578 58.713174 
L 544.568632 61.297507 
L 544.903687 60.723211 
L 545.238741 63.020395 
L 545.573796 63.594691 
L 545.908851 59.574618 
L 546.243905 61.441081 
L 546.57896 61.153933 
L 546.914015 63.163969 
L 547.249069 62.302525 
L 547.584124 55.698119 
L 547.919179 65.604728 
L 548.254233 60.148914 
L 548.589288 62.302525 
L 548.924343 60.723211 
L 549.259397 59.861766 
L 549.594452 62.015377 
L 549.929506 63.163969 
L 550.264561 58.426026 
L 550.599616 59.431044 
L 550.93467 63.163969 
L 551.269725 62.589673 
L 551.60478 62.589673 
L 551.939834 61.010359 
L 552.274889 64.168987 
L 552.609944 62.302525 
L 552.944998 63.451117 
L 553.615107 58.856748 
L 554.285217 61.584655 
L 554.955326 62.015377 
L 555.290381 63.020395 
L 555.625435 59.718192 
L 555.96049 59.718192 
L 556.295545 64.025413 
L 556.630599 61.153933 
L 556.965654 60.00534 
L 557.300709 61.010359 
L 557.635763 63.163969 
L 558.305872 65.461154 
L 558.640927 63.451117 
L 558.975982 63.738265 
L 559.311036 60.579637 
L 559.646091 63.594691 
L 559.981146 61.441081 
L 560.3162 64.886858 
L 560.651255 62.158951 
L 560.98631 58.138878 
L 561.656419 66.75332 
L 561.991474 62.015377 
L 562.326528 66.609746 
L 562.661583 65.604728 
L 563.331692 61.728229 
L 563.666747 61.153933 
L 564.001801 60.866785 
L 564.336856 63.163969 
L 564.671911 57.13386 
L 565.006965 64.456135 
L 565.34202 55.985268 
L 565.677075 64.025413 
L 566.012129 58.138878 
L 566.347184 60.579637 
L 566.682239 58.426026 
L 567.017293 61.728229 
L 567.352348 59.28747 
L 567.687402 59.431044 
L 568.022457 62.446099 
L 568.357512 59.574618 
L 568.692566 59.718192 
L 569.027621 60.292489 
L 569.362676 58.426026 
L 569.69773 60.866785 
L 570.032785 65.461154 
L 570.36784 59.000322 
L 570.702894 61.871803 
L 571.373003 56.846712 
L 571.708058 62.876821 
L 572.043113 59.718192 
L 572.378167 60.436063 
L 572.713222 57.13386 
L 573.048277 61.584655 
L 573.383331 63.594691 
L 573.718386 62.015377 
L 574.388495 63.307543 
L 574.72355 60.292489 
L 575.058605 59.431044 
L 575.393659 60.292489 
L 575.728714 63.594691 
L 576.063768 59.861766 
L 576.398823 61.153933 
L 576.733878 61.010359 
L 577.068932 58.856748 
L 577.403987 58.5696 
L 577.739042 61.297507 
L 578.074096 59.143896 
L 578.409151 62.446099 
L 578.744206 58.713174 
L 579.07926 61.010359 
L 579.414315 59.143896 
L 579.74937 62.876821 
L 580.084424 57.277434 
L 580.419479 58.5696 
L 580.754533 61.153933 
L 581.089588 58.713174 
L 581.424643 62.876821 
L 581.759697 61.584655 
L 582.094752 59.718192 
L 582.429807 62.589673 
L 582.764861 58.713174 
L 583.099916 61.010359 
L 583.434971 56.272416 
L 583.770025 61.297507 
L 584.10508 57.85173 
L 584.440135 55.554545 
L 584.775189 62.302525 
L 585.110244 61.441081 
L 585.445298 59.574618 
L 585.780353 64.599709 
L 586.115408 60.579637 
L 586.450462 58.5696 
L 587.120572 62.589673 
L 587.455626 61.728229 
L 587.790681 58.282452 
L 588.125736 60.579637 
L 588.46079 57.564582 
L 589.130899 61.584655 
L 589.465954 61.010359 
L 589.801009 61.871803 
L 590.136063 57.995304 
L 590.471118 56.703138 
L 590.806173 59.718192 
L 591.141227 60.148914 
L 591.476282 61.728229 
L 591.811337 57.995304 
L 592.146391 62.589673 
L 592.816501 57.421008 
L 593.151555 60.579637 
L 593.48661 60.866785 
L 593.821664 63.020395 
L 594.156719 56.272416 
L 594.491774 58.282452 
L 594.826828 61.728229 
L 595.161883 56.990286 
L 595.496938 58.856748 
L 595.831992 62.015377 
L 596.167047 56.41599 
L 596.502102 64.168987 
L 596.837156 62.302525 
L 597.172211 62.302525 
L 597.507266 56.703138 
L 597.84232 66.179024 
L 598.177375 62.446099 
L 598.847484 58.426026 
L 599.182539 61.441081 
L 599.517593 58.138878 
L 599.852648 57.421008 
L 600.187703 59.28747 
L 600.522757 59.28747 
L 600.857812 62.158951 
L 601.192867 64.025413 
L 601.527921 61.441081 
L 601.862976 61.584655 
L 602.198031 58.713174 
L 602.533085 62.302525 
L 602.86814 61.728229 
L 603.203194 62.158951 
L 603.538249 61.584655 
L 603.873304 60.723211 
L 604.208358 57.85173 
L 604.543413 57.421008 
L 604.878468 62.589673 
L 605.213522 59.143896 
L 605.548577 59.28747 
L 605.883632 62.589673 
L 606.218686 62.158951 
L 606.553741 59.000322 
L 606.888795 61.584655 
L 607.22385 60.00534 
L 607.558905 61.010359 
L 607.893959 59.28747 
L 608.229014 58.713174 
L 608.564069 62.302525 
L 608.899123 61.441081 
L 609.234178 62.733247 
L 609.569233 59.28747 
L 609.904287 60.579637 
L 610.239342 60.579637 
L 610.574397 56.41599 
L 611.57956 61.441081 
L 611.914615 58.282452 
L 612.24967 64.599709 
L 612.584724 55.698119 
L 612.919779 60.579637 
L 613.254834 61.297507 
L 613.589888 57.85173 
L 613.924943 63.881839 
L 614.595052 60.866785 
L 614.930107 60.866785 
L 615.265162 61.297507 
L 615.600216 60.292489 
L 615.935271 60.00534 
L 616.270325 58.856748 
L 616.60538 55.698119 
L 617.275489 59.718192 
L 617.610544 57.277434 
L 617.945599 58.5696 
L 618.280653 59.28747 
L 618.615708 59.000322 
L 618.950763 58.426026 
L 619.285817 60.579637 
L 619.620872 59.143896 
L 619.955927 59.143896 
L 620.290981 56.272416 
L 620.626036 59.718192 
L 620.96109 58.5696 
L 621.296145 58.856748 
L 621.6312 61.153933 
L 622.301309 59.861766 
L 622.636364 60.292489 
L 622.636364 60.292489 
" style="fill:none;stroke:#1f77b4;stroke-linecap:square;stroke-width:0.5;"/>
   </g>
   <g id="line2d_32">
    <path clip-path="url(#pec5a781659)" d="M 115.363636 300.34827 
L 115.698691 295.323179 
L 116.033746 301.78401 
L 116.3688 301.06614 
L 116.703855 302.645455 
L 117.03891 293.887439 
L 117.373964 299.056104 
L 117.709019 297.907511 
L 118.044073 298.625382 
L 118.714183 295.179605 
L 119.049237 296.041049 
L 119.384292 294.605309 
L 119.719347 289.29307 
L 120.054401 297.620363 
L 120.389456 301.209714 
L 120.724511 299.199678 
L 121.059565 292.16455 
L 121.39462 296.471771 
L 121.729675 295.036031 
L 122.064729 295.323179 
L 122.399784 294.748883 
L 123.069893 294.318161 
L 123.404948 292.16455 
L 123.740002 286.278015 
L 124.075057 290.298088 
L 124.410112 285.560145 
L 124.745166 287.426607 
L 125.080221 280.822202 
L 125.415276 285.272997 
L 125.75033 286.995885 
L 126.42044 273.6435 
L 126.755494 284.555127 
L 127.090549 287.283033 
L 127.425603 282.257942 
L 127.760658 275.07924 
L 128.095713 270.628445 
L 128.430767 274.648518 
L 128.765822 271.346316 
L 129.435931 260.721837 
L 129.770986 260.147541 
L 130.106041 263.449744 
L 130.441095 258.855375 
L 130.77615 261.870429 
L 131.111205 250.528081 
L 131.446259 251.820247 
L 131.781314 246.364434 
L 132.451423 239.760029 
L 132.786478 238.03714 
L 133.121532 238.898584 
L 133.456587 227.556236 
L 133.791642 224.828329 
L 134.126696 227.556236 
L 134.461751 221.382552 
L 134.796806 217.649628 
L 135.13186 217.506054 
L 135.466915 219.085368 
L 135.801969 213.773129 
L 136.137024 198.985003 
L 136.472079 210.327352 
L 136.807133 208.317316 
L 137.142188 201.138614 
L 137.477243 203.579372 
L 137.812297 199.128577 
L 138.147352 199.5593 
L 138.482407 198.697855 
L 138.817461 197.118541 
L 139.152516 192.667746 
L 139.487571 191.088432 
L 139.822625 192.09345 
L 140.15768 184.914748 
L 140.492734 190.65771 
L 140.827789 189.221969 
L 141.162844 186.637637 
L 141.497898 191.37558 
L 141.832953 180.176805 
L 142.168008 185.058322 
L 142.503062 186.063341 
L 142.838117 187.929803 
L 143.173172 180.320379 
L 143.508226 189.796265 
L 143.843281 183.622582 
L 144.178336 184.484026 
L 144.51339 176.300306 
L 144.848445 184.053304 
L 145.183499 180.176805 
L 145.518554 170.700919 
L 145.853609 183.048286 
L 146.188663 176.731028 
L 146.523718 176.587454 
L 146.858773 175.582436 
L 147.193827 176.300306 
L 147.528882 180.751101 
L 147.863937 178.597491 
L 148.198991 172.567382 
L 148.534046 177.879621 
L 148.869101 170.126623 
L 149.204155 175.869584 
L 149.53921 172.85453 
L 149.874264 172.567382 
L 150.544374 169.121605 
L 151.214483 167.255142 
L 151.549538 171.993085 
L 152.219647 166.10655 
L 152.554702 168.834457 
L 152.889756 169.983049 
L 153.224811 160.650737 
L 153.559865 170.844493 
L 154.229975 165.245106 
L 154.565029 165.675828 
L 154.900084 164.240088 
L 155.235139 161.225033 
L 155.570193 166.82442 
L 156.240303 165.819402 
L 156.575357 159.645719 
L 156.910412 156.917812 
L 157.245467 167.685864 
L 157.580521 161.368607 
L 157.915576 159.214997 
L 158.25063 154.907776 
L 158.585685 163.378643 
L 158.92074 159.358571 
L 159.255794 153.472035 
L 159.590849 160.794311 
L 159.925904 163.665792 
L 160.260958 157.492108 
L 160.596013 159.358571 
L 160.931068 154.764202 
L 161.266122 154.620628 
L 161.601177 158.209978 
L 161.936232 158.927849 
L 162.271286 153.759183 
L 162.606341 155.76922 
L 162.941395 158.927849 
L 163.27645 155.05135 
L 163.946559 156.48709 
L 164.281614 148.446944 
L 164.616669 152.610591 
L 164.951723 155.338498 
L 165.286778 148.159796 
L 165.621833 149.308388 
L 165.956887 148.734092 
L 166.291942 145.862612 
L 166.626997 148.016222 
L 166.962051 148.877666 
L 167.297106 145.431889 
L 167.63216 152.036295 
L 167.967215 144.857593 
L 168.30227 145.719038 
L 168.637324 146.14976 
L 168.972379 146.006186 
L 169.307434 143.565427 
L 169.642488 144.139723 
L 169.977543 142.273261 
L 170.312598 142.991131 
L 170.647652 138.68391 
L 170.982707 143.421853 
L 171.652816 142.273261 
L 171.987871 140.83752 
L 172.322925 141.411817 
L 172.65798 136.5303 
L 173.328089 144.283297 
L 173.663144 138.109614 
L 173.998199 143.421853 
L 174.333253 139.258206 
L 174.668308 141.555391 
L 175.003363 142.703983 
L 175.338417 142.129687 
L 175.673472 141.124669 
L 176.008526 134.376689 
L 176.343581 139.688928 
L 176.678636 135.381707 
L 177.01369 132.797375 
L 177.348745 134.376689 
L 177.6838 141.124669 
L 178.018854 134.950985 
L 178.353909 137.24817 
L 178.688964 136.673874 
L 179.024018 138.971058 
L 179.694128 127.62871 
L 180.029182 134.807411 
L 180.364237 137.822466 
L 180.699291 138.540336 
L 181.034346 136.386725 
L 181.369401 136.099577 
L 181.704455 130.356616 
L 182.03951 133.802393 
L 182.374565 135.381707 
L 182.709619 133.371671 
L 183.044674 129.78232 
L 183.379729 137.391744 
L 183.714783 131.21806 
L 184.049838 130.069468 
L 184.384893 127.772284 
L 184.719947 129.06445 
L 185.055002 125.905821 
L 185.390056 128.203006 
L 185.725111 132.797375 
L 186.060166 129.495172 
L 186.39522 127.341561 
L 186.730275 123.03434 
L 187.06533 127.341561 
L 187.400384 129.06445 
L 187.735439 127.197987 
L 188.070494 127.054413 
L 188.405548 125.618673 
L 188.740603 127.915858 
L 189.075657 128.920876 
L 189.410712 129.208024 
L 189.745767 123.895785 
L 190.080821 124.757229 
L 190.415876 127.915858 
L 190.750931 122.747192 
L 191.085985 123.895785 
L 191.42104 122.029322 
L 191.756095 125.618673 
L 192.091149 125.187951 
L 192.426204 124.326507 
L 192.761259 121.5986 
L 193.096313 124.757229 
L 193.766422 118.583546 
L 194.101477 125.044377 
L 194.436532 125.331525 
L 194.771586 118.72712 
L 195.106641 122.460044 
L 195.77675 119.014268 
L 196.111805 120.593582 
L 196.44686 115.999213 
L 196.781914 117.004231 
L 197.116969 122.029322 
L 197.787078 117.865675 
L 198.122133 122.747192 
L 198.457187 116.142787 
L 199.127297 120.593582 
L 199.462351 115.999213 
L 199.797406 116.573509 
L 200.132461 123.321489 
L 200.467515 116.573509 
L 200.80257 115.281343 
L 201.137625 117.865675 
L 201.472679 119.301416 
L 201.807734 122.747192 
L 202.142789 113.702028 
L 202.477843 115.281343 
L 202.812898 118.296397 
L 203.147952 119.014268 
L 203.483007 116.860657 
L 203.818062 109.394807 
L 204.488171 116.717083 
L 204.823226 119.588564 
L 205.15828 108.533363 
L 205.493335 116.286361 
L 205.82839 113.41488 
L 206.163444 115.281343 
L 206.498499 110.686974 
L 206.833554 115.281343 
L 207.168608 110.830548 
L 207.503663 111.404844 
L 207.838717 106.092605 
L 208.173772 111.97914 
L 208.508827 107.528345 
L 208.843881 109.251233 
L 209.178936 104.51329 
L 209.513991 114.563473 
L 209.849045 112.122714 
L 210.1841 107.384771 
L 210.519155 114.707047 
L 210.854209 105.518309 
L 211.189264 107.528345 
L 211.524318 106.523327 
L 211.859373 106.666901 
L 212.194428 105.374735 
L 212.529482 105.518309 
L 212.864537 106.954049 
L 213.199592 105.518309 
L 213.534646 107.097623 
L 213.869701 103.221124 
L 214.204756 105.231161 
L 214.53981 103.938994 
L 214.874865 98.626755 
L 215.20992 102.933976 
L 215.544974 102.646828 
L 215.880029 104.082568 
L 216.215083 99.775347 
L 216.885193 107.097623 
L 217.220247 103.221124 
L 217.555302 101.067514 
L 217.890357 103.938994 
L 218.225411 105.805457 
L 218.560466 108.820511 
L 218.895521 95.898848 
L 219.230575 106.666901 
L 219.56563 105.518309 
L 219.900685 97.191015 
L 220.235739 93.888812 
L 220.570794 103.651846 
L 220.905848 100.92394 
L 221.240903 99.488199 
L 221.575958 102.790402 
L 221.911012 102.790402 
L 222.246067 97.478163 
L 222.581122 102.933976 
L 222.916176 102.646828 
L 223.251231 101.067514 
L 223.586286 96.185997 
L 223.92134 102.933976 
L 224.256395 105.087586 
L 224.59145 97.908885 
L 224.926504 97.908885 
L 225.261559 100.493217 
L 225.596613 97.478163 
L 225.931668 98.483181 
L 226.266723 98.483181 
L 226.601777 99.201051 
L 226.936832 94.032386 
L 227.271887 96.185997 
L 227.606941 94.89383 
L 227.941996 96.903867 
L 228.277051 91.160905 
L 228.612105 97.191015 
L 228.94716 95.037404 
L 229.282214 92.02235 
L 229.617269 97.047441 
L 229.952324 93.601664 
L 230.287378 91.448053 
L 230.622433 93.170942 
L 230.957488 97.478163 
L 231.292542 90.873757 
L 231.962652 92.883794 
L 232.297706 95.324552 
L 232.632761 90.155887 
L 232.967816 94.463108 
L 233.30287 91.591627 
L 233.637925 90.873757 
L 233.972979 96.329571 
L 234.643089 88.289425 
L 234.978143 86.566536 
L 235.313198 94.17596 
L 235.648253 95.755274 
L 235.983307 89.868739 
L 236.318362 95.6117 
L 236.653417 92.02235 
L 236.988471 92.883794 
L 237.323526 84.987222 
L 237.658581 88.863721 
L 237.993635 90.586609 
L 238.32869 91.591627 
L 238.663744 92.02235 
L 238.998799 92.02235 
L 239.333854 91.735202 
L 239.668908 91.160905 
L 240.003963 88.145851 
L 240.339018 88.145851 
L 240.674072 89.150869 
L 241.009127 88.145851 
L 241.344182 91.735202 
L 241.679236 88.863721 
L 242.014291 84.5565 
L 242.349346 94.89383 
L 242.6844 89.868739 
L 243.019455 86.997258 
L 243.354509 93.601664 
L 244.024619 82.259315 
L 244.359673 94.606682 
L 244.694728 91.591627 
L 245.029783 90.443035 
L 245.364837 87.284407 
L 245.699892 88.289425 
L 246.034947 90.443035 
L 246.370001 91.160905 
L 246.705056 87.571555 
L 247.04011 86.135814 
L 247.375165 85.27437 
L 247.71022 88.576573 
L 248.045274 89.294443 
L 248.380329 81.828593 
L 248.715384 95.468126 
L 249.050438 87.858703 
L 249.385493 88.002277 
L 249.720548 86.566536 
L 250.390657 81.972167 
L 250.725712 87.571555 
L 251.060766 84.5565 
L 251.395821 84.700074 
L 251.730875 87.715129 
L 252.06593 83.83863 
L 252.400985 86.853684 
L 252.736039 87.140832 
L 253.071094 86.422962 
L 253.406149 85.99224 
L 253.741203 83.695056 
L 254.076258 85.417944 
L 254.411313 82.833612 
L 254.746367 87.715129 
L 255.081422 87.715129 
L 255.416477 83.83863 
L 255.751531 85.417944 
L 256.086586 83.407908 
L 256.42164 87.140832 
L 256.756695 83.982204 
L 257.426804 83.982204 
L 257.761859 85.130796 
L 258.096914 87.427981 
L 258.431968 83.264334 
L 258.767023 86.566536 
L 259.102078 82.833612 
L 259.437132 86.422962 
L 259.772187 85.705092 
L 260.107242 82.259315 
L 260.442296 89.438017 
L 260.777351 80.392853 
L 261.782515 85.705092 
L 262.117569 80.249279 
L 262.452624 84.843648 
L 262.787679 81.828593 
L 263.122733 82.259315 
L 263.457788 79.531409 
L 263.792843 83.982204 
L 264.127897 80.823575 
L 264.462952 83.407908 
L 264.798006 82.402889 
L 265.133061 84.125778 
L 265.468116 80.392853 
L 265.80317 83.83863 
L 266.138225 83.695056 
L 266.47328 79.531409 
L 266.808334 77.377798 
L 267.143389 80.680001 
L 267.478444 81.110723 
L 267.813498 80.105705 
L 268.148553 82.402889 
L 268.483608 82.115741 
L 268.818662 83.551482 
L 269.153717 83.83863 
L 269.488771 79.674983 
L 269.823826 79.674983 
L 270.158881 86.279388 
L 270.493935 77.521372 
L 270.82899 78.095668 
L 271.164045 81.397871 
L 271.499099 78.957113 
L 271.834154 83.407908 
L 272.169209 78.239243 
L 272.504263 78.526391 
L 272.839318 80.823575 
L 273.174373 78.813539 
L 273.509427 78.669965 
L 273.844482 76.085632 
L 274.179536 86.566536 
L 274.849646 76.803502 
L 275.1847 80.392853 
L 275.519755 79.674983 
L 275.85481 79.531409 
L 276.189864 76.085632 
L 276.524919 83.264334 
L 276.859974 79.818557 
L 277.195028 79.387835 
L 277.530083 81.254297 
L 277.865138 81.541445 
L 278.200192 84.700074 
L 278.535247 80.680001 
L 278.870301 79.387835 
L 279.205356 83.407908 
L 279.540411 80.392853 
L 279.875465 80.823575 
L 280.21052 79.244261 
L 280.545575 74.649892 
L 280.880629 76.947076 
L 281.215684 77.377798 
L 281.550739 80.392853 
L 281.885793 77.521372 
L 282.220848 81.110723 
L 282.555902 80.967149 
L 282.890957 78.382817 
L 283.226012 74.21917 
L 283.561066 79.962131 
L 283.896121 81.685019 
L 284.231176 79.244261 
L 284.56623 74.506318 
L 284.901285 80.536427 
L 285.23634 78.095668 
L 285.906449 83.12076 
L 286.241504 81.397871 
L 286.576558 78.526391 
L 286.911613 80.392853 
L 287.246667 76.803502 
L 287.581722 75.080614 
L 287.916777 79.387835 
L 288.251831 79.387835 
L 288.586886 77.952094 
L 288.921941 79.244261 
L 289.256995 78.957113 
L 289.59205 76.803502 
L 289.927105 75.942058 
L 290.262159 85.27437 
L 290.597214 80.249279 
L 290.932269 79.244261 
L 291.267323 77.664946 
L 291.602378 80.536427 
L 292.272487 79.100687 
L 292.607542 81.541445 
L 292.942596 71.347689 
L 293.277651 75.942058 
L 293.612706 78.813539 
L 293.94776 79.818557 
L 294.282815 77.80852 
L 294.61787 74.793466 
L 294.952924 79.531409 
L 295.287979 74.362744 
L 295.958088 82.259315 
L 296.293143 78.813539 
L 296.628197 71.778411 
L 296.963252 75.65491 
L 297.298307 74.793466 
L 297.633361 74.793466 
L 297.968416 75.65491 
L 298.303471 73.070577 
L 298.638525 73.214151 
L 298.97358 77.521372 
L 299.308635 70.629819 
L 299.643689 80.392853 
L 299.978744 83.982204 
L 300.313798 78.239243 
L 300.648853 75.511336 
L 301.318962 79.100687 
L 301.654017 78.095668 
L 301.989072 76.37278 
L 302.324126 80.967149 
L 302.994236 71.347689 
L 303.32929 77.521372 
L 303.664345 77.09065 
L 304.334454 71.778411 
L 305.004563 77.80852 
L 305.674673 72.927003 
L 306.009727 72.927003 
L 306.344782 71.634837 
L 306.679837 72.209133 
L 307.014891 69.911949 
L 307.349946 75.942058 
L 307.685001 75.65491 
L 308.020055 74.075596 
L 308.35511 74.21917 
L 308.690165 77.234224 
L 309.025219 72.639855 
L 309.360274 77.521372 
L 309.695328 79.531409 
L 310.030383 77.09065 
L 310.365438 70.773393 
L 310.700492 74.93704 
L 311.035547 76.803502 
L 311.705656 74.506318 
L 312.040711 75.080614 
L 312.375766 79.387835 
L 312.71082 70.773393 
L 313.045875 73.644873 
L 313.38093 73.788448 
L 313.715984 75.224188 
L 314.051039 78.526391 
L 314.386093 73.932022 
L 314.721148 73.357725 
L 315.056203 73.214151 
L 315.726312 75.65491 
L 316.061367 71.634837 
L 316.396421 73.932022 
L 316.731476 72.209133 
L 317.066531 74.649892 
L 317.401585 74.649892 
L 317.73664 75.367762 
L 318.071694 71.347689 
L 318.406749 76.947076 
L 318.741804 75.367762 
L 319.076858 72.209133 
L 319.411913 72.065559 
L 319.746968 73.644873 
L 320.082022 70.199097 
L 320.417077 73.214151 
L 320.752132 77.377798 
L 321.422241 71.204115 
L 321.757296 73.788448 
L 322.09235 79.531409 
L 322.427405 72.496281 
L 322.762459 69.337653 
L 323.097514 73.501299 
L 323.432569 75.511336 
L 323.767623 72.639855 
L 324.102678 67.327616 
L 324.437733 73.070577 
L 324.772787 74.21917 
L 325.107842 75.798484 
L 325.442897 70.342671 
L 325.777951 73.644873 
L 326.113006 71.634837 
L 326.448061 72.065559 
L 326.783115 73.644873 
L 327.11817 73.357725 
L 327.453224 75.65491 
L 327.788279 71.491263 
L 328.123334 78.239243 
L 328.458388 74.506318 
L 328.793443 67.758338 
L 329.128498 74.93704 
L 329.463552 74.075596 
L 329.798607 69.050504 
L 330.133662 76.085632 
L 330.468716 73.070577 
L 330.803771 71.491263 
L 331.138826 74.649892 
L 331.47388 71.060541 
L 331.808935 76.659928 
L 332.143989 73.932022 
L 332.479044 72.209133 
L 332.814099 73.932022 
L 333.149153 72.639855 
L 333.484208 72.065559 
L 333.819263 75.367762 
L 334.154317 73.501299 
L 334.489372 70.055523 
L 334.824427 68.332634 
L 335.494536 74.075596 
L 335.82959 73.501299 
L 336.164645 70.916967 
L 336.4997 72.065559 
L 336.834754 69.624801 
L 337.169809 72.783429 
L 337.504864 70.486245 
L 337.839918 69.481227 
L 338.174973 69.911949 
L 338.510028 71.778411 
L 338.845082 71.634837 
L 339.180137 68.763356 
L 339.515192 68.619782 
L 339.850246 77.234224 
L 340.185301 76.37278 
L 340.85541 69.194078 
L 341.190465 73.070577 
L 341.525519 70.199097 
L 341.860574 70.342671 
L 342.195629 66.75332 
L 342.530683 73.932022 
L 342.865738 70.199097 
L 343.200793 68.619782 
L 343.535847 74.793466 
L 344.205957 69.481227 
L 344.876066 77.952094 
L 345.21112 69.337653 
L 345.546175 74.649892 
L 346.216284 70.773393 
L 346.551339 71.347689 
L 346.886394 69.481227 
L 347.221448 70.199097 
L 347.556503 68.619782 
L 347.891558 69.624801 
L 348.226612 69.050504 
L 348.561667 75.080614 
L 348.896722 74.362744 
L 349.231776 72.927003 
L 349.566831 69.624801 
L 349.901885 72.496281 
L 350.23694 72.496281 
L 350.571995 74.506318 
L 350.907049 71.491263 
L 351.242104 70.055523 
L 351.577159 75.367762 
L 351.912213 70.916967 
L 352.247268 72.639855 
L 352.582323 67.758338 
L 352.917377 73.070577 
L 353.252432 72.927003 
L 353.587486 70.629819 
L 353.922541 64.168987 
L 354.257596 73.070577 
L 354.59265 72.783429 
L 354.927705 70.342671 
L 355.26276 69.911949 
L 355.597814 70.916967 
L 355.932869 69.194078 
L 356.267924 69.337653 
L 356.602978 73.932022 
L 356.938033 71.347689 
L 357.273088 70.055523 
L 357.608142 71.204115 
L 357.943197 70.199097 
L 358.278251 67.040468 
L 358.613306 72.352707 
L 358.948361 71.634837 
L 359.283415 71.204115 
L 359.61847 68.763356 
L 359.953525 69.624801 
L 360.288579 73.070577 
L 360.623634 68.332634 
L 360.958689 69.481227 
L 361.293743 69.337653 
L 362.298907 75.224188 
L 362.633962 69.768375 
L 362.969016 67.614764 
L 363.304071 74.362744 
L 363.639126 68.18906 
L 363.97418 68.332634 
L 364.309235 73.501299 
L 364.64429 67.47119 
L 364.979344 64.312561 
L 365.314399 71.204115 
L 365.649454 71.778411 
L 365.984508 69.337653 
L 366.319563 72.639855 
L 366.654618 70.486245 
L 366.989672 72.065559 
L 367.324727 72.352707 
L 367.994836 67.901912 
L 368.329891 70.629819 
L 369 65.748302 
L 369.670109 75.080614 
L 370.005164 70.199097 
L 370.340219 68.18906 
L 370.675273 75.080614 
L 371.010328 71.491263 
L 371.345382 71.491263 
L 371.680437 67.327616 
L 372.015492 71.491263 
L 372.350546 71.060541 
L 372.685601 66.03545 
L 373.35571 66.322598 
L 373.690765 69.624801 
L 374.02582 71.347689 
L 374.360874 69.481227 
L 374.695929 72.065559 
L 375.030984 68.90693 
L 375.366038 69.768375 
L 376.036147 71.921985 
L 376.371202 66.466172 
L 376.706257 67.614764 
L 377.041311 67.758338 
L 377.376366 66.466172 
L 378.046475 70.199097 
L 378.716585 66.179024 
L 379.051639 68.763356 
L 379.386694 69.911949 
L 379.721749 68.763356 
L 380.056803 69.768375 
L 380.391858 65.174006 
L 380.726912 74.793466 
L 381.397022 63.307543 
L 381.732076 68.332634 
L 382.067131 69.050504 
L 382.402186 72.065559 
L 382.73724 70.629819 
L 383.072295 71.921985 
L 383.40735 78.382817 
L 383.742404 74.506318 
L 384.077459 67.327616 
L 384.412514 63.451117 
L 384.747568 69.481227 
L 385.082623 67.327616 
L 385.417677 68.763356 
L 385.752732 67.040468 
L 386.087787 73.214151 
L 386.422841 67.614764 
L 386.757896 68.763356 
L 387.092951 73.214151 
L 387.428005 70.342671 
L 387.76306 66.03545 
L 388.098115 64.168987 
L 388.433169 69.337653 
L 388.768224 69.337653 
L 389.103278 70.916967 
L 389.438333 69.911949 
L 389.773388 68.332634 
L 390.108442 69.194078 
L 390.443497 66.896894 
L 390.778552 69.337653 
L 391.448661 70.773393 
L 391.783716 66.03545 
L 392.11877 66.609746 
L 392.453825 70.199097 
L 392.78888 68.763356 
L 393.123934 66.609746 
L 393.458989 73.070577 
L 393.794043 67.901912 
L 394.129098 72.927003 
L 394.464153 70.773393 
L 394.799207 71.204115 
L 395.134262 69.624801 
L 395.469317 72.065559 
L 395.804371 68.619782 
L 396.139426 67.184042 
L 396.474481 66.75332 
L 396.809535 71.491263 
L 397.14459 67.47119 
L 397.479645 70.486245 
L 397.814699 71.634837 
L 398.149754 69.624801 
L 398.484808 69.194078 
L 398.819863 66.609746 
L 399.489972 71.491263 
L 400.160082 62.733247 
L 400.495136 72.783429 
L 400.830191 68.476208 
L 401.165246 66.179024 
L 401.5003 66.609746 
L 401.835355 66.322598 
L 402.17041 67.327616 
L 402.505464 69.768375 
L 402.840519 63.594691 
L 403.175573 68.476208 
L 403.510628 71.060541 
L 403.845683 66.322598 
L 404.180737 71.634837 
L 404.515792 66.896894 
L 404.850847 68.763356 
L 405.185901 69.768375 
L 405.520956 69.481227 
L 405.856011 70.486245 
L 406.191065 71.921985 
L 406.52612 68.18906 
L 406.861174 69.624801 
L 407.196229 72.209133 
L 407.866338 64.886858 
L 408.201393 67.758338 
L 408.536448 68.332634 
L 408.871502 70.342671 
L 409.206557 68.90693 
L 409.541612 70.629819 
L 409.876666 68.763356 
L 410.211721 66.03545 
L 410.546776 70.916967 
L 410.88183 73.070577 
L 411.216885 68.332634 
L 411.551939 65.604728 
L 411.886994 69.768375 
L 412.222049 70.773393 
L 412.557103 68.18906 
L 412.892158 69.050504 
L 413.227213 65.174006 
L 413.562267 70.486245 
L 413.897322 70.055523 
L 414.232377 69.911949 
L 414.567431 67.184042 
L 414.902486 70.486245 
L 415.572595 66.179024 
L 415.90765 67.327616 
L 416.242704 63.881839 
L 416.577759 72.065559 
L 416.912814 67.184042 
L 417.247868 66.75332 
L 417.582923 61.584655 
L 417.917978 65.31758 
L 418.253032 72.783429 
L 418.923142 65.030432 
L 419.258196 63.307543 
L 419.593251 66.179024 
L 419.928306 65.604728 
L 420.26336 67.040468 
L 420.598415 65.174006 
L 420.933469 65.604728 
L 421.268524 70.486245 
L 421.603579 63.020395 
L 422.273688 69.768375 
L 422.608743 66.03545 
L 422.943797 66.179024 
L 423.278852 70.055523 
L 423.613907 63.020395 
L 423.948961 65.030432 
L 424.284016 68.476208 
L 424.61907 67.040468 
L 424.954125 66.179024 
L 425.28918 64.599709 
L 425.624234 70.486245 
L 426.294344 65.31758 
L 426.629398 63.307543 
L 426.964453 68.476208 
L 427.299508 67.327616 
L 427.634562 67.327616 
L 427.969617 66.322598 
L 428.304672 68.763356 
L 428.639726 68.045486 
L 428.974781 69.911949 
L 429.309835 67.47119 
L 429.64489 67.758338 
L 429.979945 65.030432 
L 430.314999 67.901912 
L 430.650054 67.184042 
L 430.985109 63.451117 
L 431.320163 68.045486 
L 431.655218 68.476208 
L 431.990273 63.451117 
L 432.325327 68.045486 
L 432.660382 64.886858 
L 432.995437 65.174006 
L 433.330491 66.179024 
L 433.665546 64.168987 
L 434.0006 67.47119 
L 434.335655 66.03545 
L 434.67071 68.476208 
L 435.005764 64.599709 
L 435.340819 62.876821 
L 435.675874 67.040468 
L 436.010928 68.476208 
L 436.345983 74.649892 
L 436.681038 63.881839 
L 437.016092 66.322598 
L 437.351147 71.634837 
L 437.686202 69.050504 
L 438.021256 68.18906 
L 438.356311 65.748302 
L 438.691365 67.47119 
L 439.02642 71.921985 
L 439.361475 66.322598 
L 439.696529 65.891876 
L 440.031584 66.609746 
L 440.366639 63.594691 
L 440.701693 67.47119 
L 441.036748 66.896894 
L 441.371803 65.891876 
L 441.706857 67.901912 
L 442.041912 67.758338 
L 442.376966 65.891876 
L 442.712021 68.18906 
L 443.38213 70.199097 
L 444.05224 65.174006 
L 444.387294 64.312561 
L 444.722349 72.209133 
L 445.057404 66.466172 
L 445.727513 69.481227 
L 446.062568 68.763356 
L 446.397622 68.619782 
L 446.732677 64.886858 
L 447.067731 62.876821 
L 447.737841 67.184042 
L 448.072895 68.18906 
L 448.40795 63.307543 
L 449.078059 66.466172 
L 449.413114 65.891876 
L 449.748169 67.327616 
L 450.083223 67.758338 
L 450.418278 66.179024 
L 450.753333 66.322598 
L 451.088387 69.194078 
L 451.423442 70.486245 
L 451.758496 66.75332 
L 452.093551 68.476208 
L 452.428606 68.332634 
L 453.098715 65.891876 
L 453.43377 66.896894 
L 453.768824 65.174006 
L 454.103879 65.748302 
L 454.438934 73.644873 
L 454.773988 67.614764 
L 455.109043 65.461154 
L 455.444098 66.179024 
L 455.779152 63.738265 
L 456.114207 68.045486 
L 456.449261 67.327616 
L 457.119371 62.446099 
L 457.454425 62.302525 
L 457.78948 67.184042 
L 458.124535 68.619782 
L 458.459589 69.481227 
L 458.794644 64.168987 
L 459.129699 69.337653 
L 459.799808 62.302525 
L 460.134862 70.199097 
L 460.804972 61.871803 
L 461.140026 65.604728 
L 461.475081 64.456135 
L 461.810136 68.045486 
L 462.14519 63.020395 
L 462.480245 65.461154 
L 462.8153 65.461154 
L 463.150354 63.594691 
L 463.485409 68.619782 
L 463.820464 69.481227 
L 464.490573 63.881839 
L 464.825627 64.312561 
L 465.160682 67.614764 
L 465.830791 63.881839 
L 466.165846 68.619782 
L 466.500901 66.466172 
L 466.835955 65.31758 
L 467.17101 64.886858 
L 467.506065 65.891876 
L 467.841119 65.174006 
L 468.176174 67.184042 
L 468.511229 63.020395 
L 468.846283 67.327616 
L 469.181338 65.030432 
L 469.516392 63.738265 
L 469.851447 68.332634 
L 470.186502 64.743284 
L 470.521556 66.896894 
L 470.856611 68.18906 
L 471.191666 68.18906 
L 471.52672 63.738265 
L 471.861775 62.158951 
L 472.531884 72.496281 
L 472.866939 65.748302 
L 473.201994 64.456135 
L 473.537048 71.204115 
L 473.872103 65.891876 
L 474.207157 68.18906 
L 474.542212 67.327616 
L 474.877267 63.738265 
L 475.212321 69.337653 
L 475.547376 68.332634 
L 475.882431 65.030432 
L 476.217485 64.743284 
L 476.887595 67.47119 
L 477.222649 67.040468 
L 477.557704 65.174006 
L 477.892758 69.337653 
L 478.227813 68.90693 
L 478.562868 61.584655 
L 478.897922 65.604728 
L 479.232977 67.040468 
L 479.568032 66.466172 
L 479.903086 64.312561 
L 480.238141 67.040468 
L 480.573196 63.738265 
L 481.243305 67.758338 
L 481.57836 65.748302 
L 481.913414 65.461154 
L 482.248469 64.456135 
L 482.583523 66.75332 
L 482.918578 67.901912 
L 483.253633 68.045486 
L 483.588687 63.594691 
L 483.923742 64.456135 
L 484.258797 63.881839 
L 484.593851 64.456135 
L 484.928906 64.456135 
L 485.263961 66.75332 
L 485.599015 66.466172 
L 485.93407 65.891876 
L 486.269125 63.881839 
L 486.604179 65.31758 
L 486.939234 69.337653 
L 487.274288 68.476208 
L 487.609343 63.594691 
L 487.944398 64.599709 
L 488.279452 67.184042 
L 488.614507 66.322598 
L 488.949562 63.594691 
L 489.284616 65.31758 
L 489.619671 58.282452 
L 489.954726 65.461154 
L 490.28978 67.47119 
L 490.624835 65.174006 
L 490.95989 70.199097 
L 491.294944 65.174006 
L 491.629999 65.604728 
L 491.965053 67.614764 
L 492.300108 68.476208 
L 492.635163 64.456135 
L 492.970217 65.030432 
L 493.305272 66.609746 
L 493.640327 66.466172 
L 493.975381 65.461154 
L 494.310436 65.461154 
L 494.645491 62.733247 
L 494.980545 65.174006 
L 495.3156 64.886858 
L 495.650654 67.901912 
L 495.985709 64.312561 
L 496.320764 68.619782 
L 496.655818 63.451117 
L 496.990873 64.886858 
L 497.325928 64.743284 
L 497.660982 62.876821 
L 498.331092 67.901912 
L 498.666146 67.327616 
L 499.001201 68.476208 
L 499.336256 66.466172 
L 499.67131 63.163969 
L 500.006365 63.594691 
L 500.341419 65.461154 
L 500.676474 64.599709 
L 501.011529 66.179024 
L 501.346583 63.451117 
L 501.681638 66.896894 
L 502.016693 67.47119 
L 502.351747 63.738265 
L 502.686802 64.312561 
L 503.021857 66.322598 
L 503.356911 63.451117 
L 503.691966 63.020395 
L 504.027021 63.307543 
L 504.362075 67.184042 
L 505.032184 65.748302 
L 505.367239 66.75332 
L 505.702294 66.322598 
L 506.037348 65.030432 
L 506.372403 67.040468 
L 506.707458 64.456135 
L 507.042512 64.168987 
L 507.377567 62.158951 
L 507.712622 65.891876 
L 508.382731 62.876821 
L 508.717786 62.589673 
L 509.05284 63.307543 
L 509.387895 63.020395 
L 510.058004 67.901912 
L 510.393059 65.604728 
L 510.728113 62.302525 
L 511.063168 68.18906 
L 511.398223 64.168987 
L 511.733277 64.456135 
L 512.068332 62.733247 
L 512.403387 63.163969 
L 512.738441 65.174006 
L 513.073496 64.456135 
L 513.40855 65.891876 
L 513.743605 65.748302 
L 514.07866 67.327616 
L 514.413714 63.307543 
L 514.748769 61.871803 
L 515.083824 64.743284 
L 515.418878 65.461154 
L 515.753933 65.31758 
L 516.088988 62.876821 
L 516.424042 65.030432 
L 516.759097 69.768375 
L 517.094152 65.030432 
L 517.429206 62.589673 
L 517.764261 63.594691 
L 518.099315 66.466172 
L 518.43437 67.327616 
L 519.104479 63.451117 
L 519.439534 64.168987 
L 519.774589 62.876821 
L 520.109643 67.184042 
L 520.444698 63.451117 
L 521.114807 64.025413 
L 521.449862 60.00534 
L 522.119971 65.461154 
L 522.455026 64.743284 
L 522.79008 64.743284 
L 523.125135 67.327616 
L 523.46019 66.03545 
L 523.795244 62.015377 
L 524.465354 68.332634 
L 524.800408 64.886858 
L 525.135463 63.307543 
L 525.470518 68.332634 
L 525.805572 66.609746 
L 526.140627 63.307543 
L 526.810736 67.47119 
L 527.145791 65.604728 
L 527.480845 62.733247 
L 527.8159 66.03545 
L 528.150955 63.451117 
L 528.486009 64.743284 
L 528.821064 66.896894 
L 529.156119 65.604728 
L 529.491173 62.015377 
L 529.826228 65.31758 
L 530.161283 61.728229 
L 530.496337 64.456135 
L 530.831392 61.010359 
L 531.501501 65.604728 
L 531.836556 65.030432 
L 532.17161 68.045486 
L 532.506665 60.723211 
L 532.84172 64.025413 
L 533.176774 65.174006 
L 533.511829 70.629819 
L 533.846884 62.302525 
L 534.181938 63.881839 
L 534.516993 61.871803 
L 534.852048 65.030432 
L 535.187102 63.307543 
L 535.522157 60.00534 
L 535.857211 67.184042 
L 536.192266 65.604728 
L 536.527321 66.179024 
L 537.19743 62.589673 
L 537.532485 63.451117 
L 537.867539 65.891876 
L 538.202594 62.302525 
L 538.537649 60.148914 
L 538.872703 59.718192 
L 539.207758 66.75332 
L 539.542813 63.451117 
L 539.877867 64.456135 
L 540.212922 61.871803 
L 540.547976 66.896894 
L 540.883031 61.728229 
L 541.218086 67.184042 
L 541.55314 63.594691 
L 541.888195 62.302525 
L 542.22325 62.733247 
L 542.558304 61.010359 
L 542.893359 62.876821 
L 543.228414 63.163969 
L 543.563468 68.476208 
L 543.898523 60.00534 
L 544.233578 64.456135 
L 544.568632 61.584655 
L 544.903687 66.322598 
L 545.238741 68.045486 
L 545.573796 69.050504 
L 545.908851 61.728229 
L 546.243905 63.738265 
L 546.914015 64.312561 
L 547.249069 63.594691 
L 547.584124 63.451117 
L 547.919179 69.624801 
L 548.254233 64.312561 
L 548.589288 66.466172 
L 548.924343 65.891876 
L 549.259397 66.179024 
L 549.594452 63.163969 
L 549.929506 65.461154 
L 550.264561 62.589673 
L 550.599616 63.163969 
L 550.93467 64.312561 
L 551.269725 61.728229 
L 551.60478 66.75332 
L 551.939834 67.327616 
L 552.274889 61.153933 
L 552.609944 64.599709 
L 552.944998 65.604728 
L 553.280053 68.045486 
L 553.615107 64.168987 
L 553.950162 62.446099 
L 554.285217 63.881839 
L 554.620271 66.466172 
L 554.955326 63.594691 
L 555.290381 66.75332 
L 555.625435 67.184042 
L 555.96049 61.871803 
L 556.295545 61.728229 
L 556.630599 64.312561 
L 556.965654 62.876821 
L 557.635763 67.327616 
L 557.970818 58.856748 
L 558.305872 63.881839 
L 558.640927 66.322598 
L 558.975982 66.322598 
L 559.311036 67.901912 
L 559.646091 63.738265 
L 559.981146 63.738265 
L 560.651255 65.891876 
L 560.98631 63.020395 
L 561.321364 62.158951 
L 561.991474 63.881839 
L 562.326528 66.322598 
L 562.661583 66.896894 
L 562.996637 66.466172 
L 563.331692 62.302525 
L 563.666747 64.599709 
L 564.001801 64.025413 
L 564.336856 63.738265 
L 565.006965 66.179024 
L 565.34202 64.743284 
L 565.677075 65.891876 
L 566.012129 63.738265 
L 566.347184 62.589673 
L 566.682239 65.030432 
L 567.017293 62.015377 
L 567.352348 64.025413 
L 567.687402 65.31758 
L 568.022457 63.881839 
L 568.357512 63.020395 
L 568.692566 64.168987 
L 569.027621 61.297507 
L 569.362676 64.599709 
L 569.69773 66.609746 
L 570.032785 62.876821 
L 570.36784 64.025413 
L 570.702894 68.045486 
L 571.037949 61.010359 
L 571.708058 63.307543 
L 572.043113 65.461154 
L 572.378167 68.619782 
L 573.383331 64.025413 
L 573.718386 66.179024 
L 574.053441 67.327616 
L 574.388495 65.891876 
L 575.058605 70.055523 
L 575.393659 67.614764 
L 575.728714 61.010359 
L 576.398823 67.614764 
L 576.733878 63.020395 
L 577.403987 66.03545 
L 577.739042 60.148914 
L 578.074096 61.871803 
L 578.744206 67.040468 
L 579.414315 61.441081 
L 580.084424 66.322598 
L 580.419479 60.00534 
L 580.754533 61.728229 
L 581.089588 62.733247 
L 582.094752 67.901912 
L 582.429807 61.584655 
L 582.764861 61.153933 
L 583.099916 63.307543 
L 583.434971 66.896894 
L 583.770025 64.025413 
L 584.10508 65.604728 
L 584.775189 60.866785 
L 585.110244 61.297507 
L 585.445298 65.891876 
L 585.780353 68.045486 
L 586.115408 61.728229 
L 586.785517 66.322598 
L 587.120572 64.168987 
L 587.455626 65.891876 
L 587.790681 62.446099 
L 588.125736 67.040468 
L 588.46079 61.153933 
L 588.795845 63.594691 
L 589.465954 61.297507 
L 589.801009 62.589673 
L 590.136063 65.31758 
L 590.471118 63.881839 
L 590.806173 64.456135 
L 591.141227 66.03545 
L 591.476282 62.446099 
L 592.146391 66.03545 
L 592.481446 61.871803 
L 592.816501 64.886858 
L 593.151555 66.609746 
L 593.48661 64.168987 
L 593.821664 66.896894 
L 594.156719 63.738265 
L 594.491774 66.75332 
L 595.161883 61.010359 
L 595.496938 61.153933 
L 595.831992 66.03545 
L 596.167047 64.743284 
L 596.502102 60.436063 
L 596.837156 66.03545 
L 597.172211 62.589673 
L 597.507266 62.589673 
L 597.84232 60.866785 
L 598.177375 62.876821 
L 598.512429 61.584655 
L 598.847484 61.441081 
L 599.182539 68.18906 
L 599.517593 63.163969 
L 599.852648 64.599709 
L 600.187703 59.000322 
L 600.522757 63.020395 
L 600.857812 63.451117 
L 601.192867 64.743284 
L 601.527921 62.446099 
L 601.862976 61.584655 
L 602.198031 62.446099 
L 602.533085 66.466172 
L 602.86814 64.456135 
L 603.538249 66.179024 
L 604.208358 62.302525 
L 604.543413 65.31758 
L 604.878468 61.584655 
L 605.213522 63.163969 
L 605.548577 63.594691 
L 605.883632 64.599709 
L 606.218686 67.758338 
L 606.553741 66.03545 
L 606.888795 65.030432 
L 607.22385 62.302525 
L 607.558905 64.599709 
L 607.893959 62.876821 
L 608.229014 65.174006 
L 608.564069 64.168987 
L 608.899123 65.891876 
L 609.234178 65.461154 
L 609.569233 64.168987 
L 609.904287 68.18906 
L 610.239342 66.896894 
L 610.574397 64.599709 
L 610.909451 64.025413 
L 611.244506 62.302525 
L 611.57956 63.881839 
L 611.914615 63.738265 
L 612.24967 61.297507 
L 612.584724 65.174006 
L 612.919779 62.158951 
L 613.254834 65.174006 
L 613.589888 63.307543 
L 613.924943 66.466172 
L 614.259998 62.158951 
L 614.595052 61.153933 
L 614.930107 62.733247 
L 615.265162 63.451117 
L 615.600216 62.589673 
L 615.935271 57.421008 
L 616.270325 64.168987 
L 616.60538 62.446099 
L 616.940435 59.574618 
L 617.275489 64.599709 
L 617.610544 60.866785 
L 617.945599 63.307543 
L 618.280653 63.163969 
L 618.615708 62.733247 
L 618.950763 59.143896 
L 619.285817 60.579637 
L 619.620872 65.604728 
L 619.955927 66.179024 
L 620.290981 64.025413 
L 620.626036 66.322598 
L 620.96109 66.179024 
L 621.296145 67.758338 
L 621.6312 62.446099 
L 621.966254 62.589673 
L 622.301309 62.302525 
L 622.636364 61.728229 
L 622.636364 61.728229 
" style="fill:none;stroke:#ff7f0e;stroke-linecap:square;stroke-width:0.5;"/>
   </g>
   <g id="patch_3">
    <path d="M 90 315 
L 90 43.2 
" style="fill:none;stroke:#000000;stroke-linecap:square;stroke-linejoin:miter;stroke-width:0.8;"/>
   </g>
   <g id="patch_4">
    <path d="M 648 315 
L 648 43.2 
" style="fill:none;stroke:#000000;stroke-linecap:square;stroke-linejoin:miter;stroke-width:0.8;"/>
   </g>
   <g id="patch_5">
    <path d="M 90 315 
L 648 315 
" style="fill:none;stroke:#000000;stroke-linecap:square;stroke-linejoin:miter;stroke-width:0.8;"/>
   </g>
   <g id="patch_6">
    <path d="M 90 43.2 
L 648 43.2 
" style="fill:none;stroke:#000000;stroke-linecap:square;stroke-linejoin:miter;stroke-width:0.8;"/>
   </g>
   <g id="text_18">
    <!-- accuracy -->
    <g transform="translate(341.92875 37.2)scale(0.12 -0.12)">
     <use xlink:href="#DejaVuSans-97"/>
     <use x="61.279297" xlink:href="#DejaVuSans-99"/>
     <use x="116.259766" xlink:href="#DejaVuSans-99"/>
     <use x="171.240234" xlink:href="#DejaVuSans-117"/>
     <use x="234.619141" xlink:href="#DejaVuSans-114"/>
     <use x="275.732422" xlink:href="#DejaVuSans-97"/>
     <use x="337.011719" xlink:href="#DejaVuSans-99"/>
     <use x="391.992188" xlink:href="#DejaVuSans-121"/>
    </g>
   </g>
   <g id="legend_1">
    <g id="patch_7">
     <path d="M 97 80.55625 
L 169.153125 80.55625 
Q 171.153125 80.55625 171.153125 78.55625 
L 171.153125 50.2 
Q 171.153125 48.2 169.153125 48.2 
L 97 48.2 
Q 95 48.2 95 50.2 
L 95 78.55625 
Q 95 80.55625 97 80.55625 
z
" style="fill:#ffffff;opacity:0.8;stroke:#cccccc;stroke-linejoin:miter;"/>
    </g>
    <g id="line2d_33">
     <path d="M 99 56.298437 
L 119 56.298437 
" style="fill:none;stroke:#1f77b4;stroke-linecap:square;stroke-width:0.5;"/>
    </g>
    <g id="line2d_34"/>
    <g id="text_19">
     <!-- train -->
     <defs>
      <path d="M 18.3125 70.21875 
L 18.3125 54.6875 
L 36.8125 54.6875 
L 36.8125 47.703125 
L 18.3125 47.703125 
L 18.3125 18.015625 
Q 18.3125 11.328125 20.140625 9.421875 
Q 21.96875 7.515625 27.59375 7.515625 
L 36.8125 7.515625 
L 36.8125 0 
L 27.59375 0 
Q 17.1875 0 13.234375 3.875 
Q 9.28125 7.765625 9.28125 18.015625 
L 9.28125 47.703125 
L 2.6875 47.703125 
L 2.6875 54.6875 
L 9.28125 54.6875 
L 9.28125 70.21875 
z
" id="DejaVuSans-116"/>
      <path d="M 9.421875 54.6875 
L 18.40625 54.6875 
L 18.40625 0 
L 9.421875 0 
z
M 9.421875 75.984375 
L 18.40625 75.984375 
L 18.40625 64.59375 
L 9.421875 64.59375 
z
" id="DejaVuSans-105"/>
      <path d="M 54.890625 33.015625 
L 54.890625 0 
L 45.90625 0 
L 45.90625 32.71875 
Q 45.90625 40.484375 42.875 44.328125 
Q 39.84375 48.1875 33.796875 48.1875 
Q 26.515625 48.1875 22.3125 43.546875 
Q 18.109375 38.921875 18.109375 30.90625 
L 18.109375 0 
L 9.078125 0 
L 9.078125 54.6875 
L 18.109375 54.6875 
L 18.109375 46.1875 
Q 21.34375 51.125 25.703125 53.5625 
Q 30.078125 56 35.796875 56 
Q 45.21875 56 50.046875 50.171875 
Q 54.890625 44.34375 54.890625 33.015625 
z
" id="DejaVuSans-110"/>
     </defs>
     <g transform="translate(127 59.798437)scale(0.1 -0.1)">
      <use xlink:href="#DejaVuSans-116"/>
      <use x="39.208984" xlink:href="#DejaVuSans-114"/>
      <use x="80.322266" xlink:href="#DejaVuSans-97"/>
      <use x="141.601562" xlink:href="#DejaVuSans-105"/>
      <use x="169.384766" xlink:href="#DejaVuSans-110"/>
     </g>
    </g>
    <g id="line2d_35">
     <path d="M 99 70.976562 
L 119 70.976562 
" style="fill:none;stroke:#ff7f0e;stroke-linecap:square;stroke-width:0.5;"/>
    </g>
    <g id="line2d_36"/>
    <g id="text_20">
     <!-- validate -->
     <defs>
      <path d="M 2.984375 54.6875 
L 12.5 54.6875 
L 29.59375 8.796875 
L 46.6875 54.6875 
L 56.203125 54.6875 
L 35.6875 0 
L 23.484375 0 
z
" id="DejaVuSans-118"/>
      <path d="M 9.421875 75.984375 
L 18.40625 75.984375 
L 18.40625 0 
L 9.421875 0 
z
" id="DejaVuSans-108"/>
      <path d="M 45.40625 46.390625 
L 45.40625 75.984375 
L 54.390625 75.984375 
L 54.390625 0 
L 45.40625 0 
L 45.40625 8.203125 
Q 42.578125 3.328125 38.25 0.953125 
Q 33.9375 -1.421875 27.875 -1.421875 
Q 17.96875 -1.421875 11.734375 6.484375 
Q 5.515625 14.40625 5.515625 27.296875 
Q 5.515625 40.1875 11.734375 48.09375 
Q 17.96875 56 27.875 56 
Q 33.9375 56 38.25 53.625 
Q 42.578125 51.265625 45.40625 46.390625 
z
M 14.796875 27.296875 
Q 14.796875 17.390625 18.875 11.75 
Q 22.953125 6.109375 30.078125 6.109375 
Q 37.203125 6.109375 41.296875 11.75 
Q 45.40625 17.390625 45.40625 27.296875 
Q 45.40625 37.203125 41.296875 42.84375 
Q 37.203125 48.484375 30.078125 48.484375 
Q 22.953125 48.484375 18.875 42.84375 
Q 14.796875 37.203125 14.796875 27.296875 
z
" id="DejaVuSans-100"/>
     </defs>
     <g transform="translate(127 74.476562)scale(0.1 -0.1)">
      <use xlink:href="#DejaVuSans-118"/>
      <use x="59.179688" xlink:href="#DejaVuSans-97"/>
      <use x="120.458984" xlink:href="#DejaVuSans-108"/>
      <use x="148.242188" xlink:href="#DejaVuSans-105"/>
      <use x="176.025391" xlink:href="#DejaVuSans-100"/>
      <use x="239.501953" xlink:href="#DejaVuSans-97"/>
      <use x="300.78125" xlink:href="#DejaVuSans-116"/>
      <use x="339.990234" xlink:href="#DejaVuSans-101"/>
     </g>
    </g>
   </g>
  </g>
 </g>
 <defs>
  <clipPath id="pec5a781659">
   <rect height="271.8" width="558" x="90" y="43.2"/>
  </clipPath>
 </defs>
</svg>
