<?xml version="1.0" encoding="utf-8" standalone="no"?>
<!DOCTYPE svg PUBLIC "-//W3C//DTD SVG 1.1//EN"
  "http://www.w3.org/Graphics/SVG/1.1/DTD/svg11.dtd">
<!-- Created with matplotlib (https://matplotlib.org/) -->
<svg height="360pt" version="1.1" viewBox="0 0 720 360" width="720pt" xmlns="http://www.w3.org/2000/svg" xmlns:xlink="http://www.w3.org/1999/xlink">
 <defs>
  <style type="text/css">
*{stroke-linecap:butt;stroke-linejoin:round;}
  </style>
 </defs>
 <g id="figure_1">
  <g id="patch_1">
   <path d="M 0 360 
L 720 360 
L 720 0 
L 0 0 
z
" style="fill:#ffffff;"/>
  </g>
  <g id="axes_1">
   <g id="patch_2">
    <path d="M 90 315 
L 648 315 
L 648 43.2 
L 90 43.2 
z
" style="fill:#ffffff;"/>
   </g>
   <g id="matplotlib.axis_1">
    <g id="xtick_1">
     <g id="line2d_1">
      <path clip-path="url(#p39f237f624)" d="M 115.363636 315 
L 115.363636 43.2 
" style="fill:none;stroke:#b0b0b0;stroke-linecap:square;stroke-width:0.8;"/>
     </g>
     <g id="line2d_2">
      <defs>
       <path d="M 0 0 
L 0 3.5 
" id="m75f38b23f7" style="stroke:#000000;stroke-width:0.8;"/>
      </defs>
      <g>
       <use style="stroke:#000000;stroke-width:0.8;" x="115.363636" xlink:href="#m75f38b23f7" y="315"/>
      </g>
     </g>
     <g id="text_1">
      <!-- 0 -->
      <defs>
       <path d="M 31.78125 66.40625 
Q 24.171875 66.40625 20.328125 58.90625 
Q 16.5 51.421875 16.5 36.375 
Q 16.5 21.390625 20.328125 13.890625 
Q 24.171875 6.390625 31.78125 6.390625 
Q 39.453125 6.390625 43.28125 13.890625 
Q 47.125 21.390625 47.125 36.375 
Q 47.125 51.421875 43.28125 58.90625 
Q 39.453125 66.40625 31.78125 66.40625 
z
M 31.78125 74.21875 
Q 44.046875 74.21875 50.515625 64.515625 
Q 56.984375 54.828125 56.984375 36.375 
Q 56.984375 17.96875 50.515625 8.265625 
Q 44.046875 -1.421875 31.78125 -1.421875 
Q 19.53125 -1.421875 13.0625 8.265625 
Q 6.59375 17.96875 6.59375 36.375 
Q 6.59375 54.828125 13.0625 64.515625 
Q 19.53125 74.21875 31.78125 74.21875 
z
" id="DejaVuSans-48"/>
      </defs>
      <g transform="translate(112.182386 329.598437)scale(0.1 -0.1)">
       <use xlink:href="#DejaVuSans-48"/>
      </g>
     </g>
    </g>
    <g id="xtick_2">
     <g id="line2d_3">
      <path clip-path="url(#p39f237f624)" d="M 182.374565 315 
L 182.374565 43.2 
" style="fill:none;stroke:#b0b0b0;stroke-linecap:square;stroke-width:0.8;"/>
     </g>
     <g id="line2d_4">
      <g>
       <use style="stroke:#000000;stroke-width:0.8;" x="182.374565" xlink:href="#m75f38b23f7" y="315"/>
      </g>
     </g>
     <g id="text_2">
      <!-- 200 -->
      <defs>
       <path d="M 19.1875 8.296875 
L 53.609375 8.296875 
L 53.609375 0 
L 7.328125 0 
L 7.328125 8.296875 
Q 12.9375 14.109375 22.625 23.890625 
Q 32.328125 33.6875 34.8125 36.53125 
Q 39.546875 41.84375 41.421875 45.53125 
Q 43.3125 49.21875 43.3125 52.78125 
Q 43.3125 58.59375 39.234375 62.25 
Q 35.15625 65.921875 28.609375 65.921875 
Q 23.96875 65.921875 18.8125 64.3125 
Q 13.671875 62.703125 7.8125 59.421875 
L 7.8125 69.390625 
Q 13.765625 71.78125 18.9375 73 
Q 24.125 74.21875 28.421875 74.21875 
Q 39.75 74.21875 46.484375 68.546875 
Q 53.21875 62.890625 53.21875 53.421875 
Q 53.21875 48.921875 51.53125 44.890625 
Q 49.859375 40.875 45.40625 35.40625 
Q 44.1875 33.984375 37.640625 27.21875 
Q 31.109375 20.453125 19.1875 8.296875 
z
" id="DejaVuSans-50"/>
      </defs>
      <g transform="translate(172.830815 329.598437)scale(0.1 -0.1)">
       <use xlink:href="#DejaVuSans-50"/>
       <use x="63.623047" xlink:href="#DejaVuSans-48"/>
       <use x="127.246094" xlink:href="#DejaVuSans-48"/>
      </g>
     </g>
    </g>
    <g id="xtick_3">
     <g id="line2d_5">
      <path clip-path="url(#p39f237f624)" d="M 249.385493 315 
L 249.385493 43.2 
" style="fill:none;stroke:#b0b0b0;stroke-linecap:square;stroke-width:0.8;"/>
     </g>
     <g id="line2d_6">
      <g>
       <use style="stroke:#000000;stroke-width:0.8;" x="249.385493" xlink:href="#m75f38b23f7" y="315"/>
      </g>
     </g>
     <g id="text_3">
      <!-- 400 -->
      <defs>
       <path d="M 37.796875 64.3125 
L 12.890625 25.390625 
L 37.796875 25.390625 
z
M 35.203125 72.90625 
L 47.609375 72.90625 
L 47.609375 25.390625 
L 58.015625 25.390625 
L 58.015625 17.1875 
L 47.609375 17.1875 
L 47.609375 0 
L 37.796875 0 
L 37.796875 17.1875 
L 4.890625 17.1875 
L 4.890625 26.703125 
z
" id="DejaVuSans-52"/>
      </defs>
      <g transform="translate(239.841743 329.598437)scale(0.1 -0.1)">
       <use xlink:href="#DejaVuSans-52"/>
       <use x="63.623047" xlink:href="#DejaVuSans-48"/>
       <use x="127.246094" xlink:href="#DejaVuSans-48"/>
      </g>
     </g>
    </g>
    <g id="xtick_4">
     <g id="line2d_7">
      <path clip-path="url(#p39f237f624)" d="M 316.396421 315 
L 316.396421 43.2 
" style="fill:none;stroke:#b0b0b0;stroke-linecap:square;stroke-width:0.8;"/>
     </g>
     <g id="line2d_8">
      <g>
       <use style="stroke:#000000;stroke-width:0.8;" x="316.396421" xlink:href="#m75f38b23f7" y="315"/>
      </g>
     </g>
     <g id="text_4">
      <!-- 600 -->
      <defs>
       <path d="M 33.015625 40.375 
Q 26.375 40.375 22.484375 35.828125 
Q 18.609375 31.296875 18.609375 23.390625 
Q 18.609375 15.53125 22.484375 10.953125 
Q 26.375 6.390625 33.015625 6.390625 
Q 39.65625 6.390625 43.53125 10.953125 
Q 47.40625 15.53125 47.40625 23.390625 
Q 47.40625 31.296875 43.53125 35.828125 
Q 39.65625 40.375 33.015625 40.375 
z
M 52.59375 71.296875 
L 52.59375 62.3125 
Q 48.875 64.0625 45.09375 64.984375 
Q 41.3125 65.921875 37.59375 65.921875 
Q 27.828125 65.921875 22.671875 59.328125 
Q 17.53125 52.734375 16.796875 39.40625 
Q 19.671875 43.65625 24.015625 45.921875 
Q 28.375 48.1875 33.59375 48.1875 
Q 44.578125 48.1875 50.953125 41.515625 
Q 57.328125 34.859375 57.328125 23.390625 
Q 57.328125 12.15625 50.6875 5.359375 
Q 44.046875 -1.421875 33.015625 -1.421875 
Q 20.359375 -1.421875 13.671875 8.265625 
Q 6.984375 17.96875 6.984375 36.375 
Q 6.984375 53.65625 15.1875 63.9375 
Q 23.390625 74.21875 37.203125 74.21875 
Q 40.921875 74.21875 44.703125 73.484375 
Q 48.484375 72.75 52.59375 71.296875 
z
" id="DejaVuSans-54"/>
      </defs>
      <g transform="translate(306.852671 329.598437)scale(0.1 -0.1)">
       <use xlink:href="#DejaVuSans-54"/>
       <use x="63.623047" xlink:href="#DejaVuSans-48"/>
       <use x="127.246094" xlink:href="#DejaVuSans-48"/>
      </g>
     </g>
    </g>
    <g id="xtick_5">
     <g id="line2d_9">
      <path clip-path="url(#p39f237f624)" d="M 383.40735 315 
L 383.40735 43.2 
" style="fill:none;stroke:#b0b0b0;stroke-linecap:square;stroke-width:0.8;"/>
     </g>
     <g id="line2d_10">
      <g>
       <use style="stroke:#000000;stroke-width:0.8;" x="383.40735" xlink:href="#m75f38b23f7" y="315"/>
      </g>
     </g>
     <g id="text_5">
      <!-- 800 -->
      <defs>
       <path d="M 31.78125 34.625 
Q 24.75 34.625 20.71875 30.859375 
Q 16.703125 27.09375 16.703125 20.515625 
Q 16.703125 13.921875 20.71875 10.15625 
Q 24.75 6.390625 31.78125 6.390625 
Q 38.8125 6.390625 42.859375 10.171875 
Q 46.921875 13.96875 46.921875 20.515625 
Q 46.921875 27.09375 42.890625 30.859375 
Q 38.875 34.625 31.78125 34.625 
z
M 21.921875 38.8125 
Q 15.578125 40.375 12.03125 44.71875 
Q 8.5 49.078125 8.5 55.328125 
Q 8.5 64.0625 14.71875 69.140625 
Q 20.953125 74.21875 31.78125 74.21875 
Q 42.671875 74.21875 48.875 69.140625 
Q 55.078125 64.0625 55.078125 55.328125 
Q 55.078125 49.078125 51.53125 44.71875 
Q 48 40.375 41.703125 38.8125 
Q 48.828125 37.15625 52.796875 32.3125 
Q 56.78125 27.484375 56.78125 20.515625 
Q 56.78125 9.90625 50.3125 4.234375 
Q 43.84375 -1.421875 31.78125 -1.421875 
Q 19.734375 -1.421875 13.25 4.234375 
Q 6.78125 9.90625 6.78125 20.515625 
Q 6.78125 27.484375 10.78125 32.3125 
Q 14.796875 37.15625 21.921875 38.8125 
z
M 18.3125 54.390625 
Q 18.3125 48.734375 21.84375 45.5625 
Q 25.390625 42.390625 31.78125 42.390625 
Q 38.140625 42.390625 41.71875 45.5625 
Q 45.3125 48.734375 45.3125 54.390625 
Q 45.3125 60.0625 41.71875 63.234375 
Q 38.140625 66.40625 31.78125 66.40625 
Q 25.390625 66.40625 21.84375 63.234375 
Q 18.3125 60.0625 18.3125 54.390625 
z
" id="DejaVuSans-56"/>
      </defs>
      <g transform="translate(373.8636 329.598437)scale(0.1 -0.1)">
       <use xlink:href="#DejaVuSans-56"/>
       <use x="63.623047" xlink:href="#DejaVuSans-48"/>
       <use x="127.246094" xlink:href="#DejaVuSans-48"/>
      </g>
     </g>
    </g>
    <g id="xtick_6">
     <g id="line2d_11">
      <path clip-path="url(#p39f237f624)" d="M 450.418278 315 
L 450.418278 43.2 
" style="fill:none;stroke:#b0b0b0;stroke-linecap:square;stroke-width:0.8;"/>
     </g>
     <g id="line2d_12">
      <g>
       <use style="stroke:#000000;stroke-width:0.8;" x="450.418278" xlink:href="#m75f38b23f7" y="315"/>
      </g>
     </g>
     <g id="text_6">
      <!-- 1000 -->
      <defs>
       <path d="M 12.40625 8.296875 
L 28.515625 8.296875 
L 28.515625 63.921875 
L 10.984375 60.40625 
L 10.984375 69.390625 
L 28.421875 72.90625 
L 38.28125 72.90625 
L 38.28125 8.296875 
L 54.390625 8.296875 
L 54.390625 0 
L 12.40625 0 
z
" id="DejaVuSans-49"/>
      </defs>
      <g transform="translate(437.693278 329.598437)scale(0.1 -0.1)">
       <use xlink:href="#DejaVuSans-49"/>
       <use x="63.623047" xlink:href="#DejaVuSans-48"/>
       <use x="127.246094" xlink:href="#DejaVuSans-48"/>
       <use x="190.869141" xlink:href="#DejaVuSans-48"/>
      </g>
     </g>
    </g>
    <g id="xtick_7">
     <g id="line2d_13">
      <path clip-path="url(#p39f237f624)" d="M 517.429206 315 
L 517.429206 43.2 
" style="fill:none;stroke:#b0b0b0;stroke-linecap:square;stroke-width:0.8;"/>
     </g>
     <g id="line2d_14">
      <g>
       <use style="stroke:#000000;stroke-width:0.8;" x="517.429206" xlink:href="#m75f38b23f7" y="315"/>
      </g>
     </g>
     <g id="text_7">
      <!-- 1200 -->
      <g transform="translate(504.704206 329.598437)scale(0.1 -0.1)">
       <use xlink:href="#DejaVuSans-49"/>
       <use x="63.623047" xlink:href="#DejaVuSans-50"/>
       <use x="127.246094" xlink:href="#DejaVuSans-48"/>
       <use x="190.869141" xlink:href="#DejaVuSans-48"/>
      </g>
     </g>
    </g>
    <g id="xtick_8">
     <g id="line2d_15">
      <path clip-path="url(#p39f237f624)" d="M 584.440135 315 
L 584.440135 43.2 
" style="fill:none;stroke:#b0b0b0;stroke-linecap:square;stroke-width:0.8;"/>
     </g>
     <g id="line2d_16">
      <g>
       <use style="stroke:#000000;stroke-width:0.8;" x="584.440135" xlink:href="#m75f38b23f7" y="315"/>
      </g>
     </g>
     <g id="text_8">
      <!-- 1400 -->
      <g transform="translate(571.715135 329.598437)scale(0.1 -0.1)">
       <use xlink:href="#DejaVuSans-49"/>
       <use x="63.623047" xlink:href="#DejaVuSans-52"/>
       <use x="127.246094" xlink:href="#DejaVuSans-48"/>
       <use x="190.869141" xlink:href="#DejaVuSans-48"/>
      </g>
     </g>
    </g>
    <g id="text_9">
     <!-- epoch -->
     <defs>
      <path d="M 56.203125 29.59375 
L 56.203125 25.203125 
L 14.890625 25.203125 
Q 15.484375 15.921875 20.484375 11.0625 
Q 25.484375 6.203125 34.421875 6.203125 
Q 39.59375 6.203125 44.453125 7.46875 
Q 49.3125 8.734375 54.109375 11.28125 
L 54.109375 2.78125 
Q 49.265625 0.734375 44.1875 -0.34375 
Q 39.109375 -1.421875 33.890625 -1.421875 
Q 20.796875 -1.421875 13.15625 6.1875 
Q 5.515625 13.8125 5.515625 26.8125 
Q 5.515625 40.234375 12.765625 48.109375 
Q 20.015625 56 32.328125 56 
Q 43.359375 56 49.78125 48.890625 
Q 56.203125 41.796875 56.203125 29.59375 
z
M 47.21875 32.234375 
Q 47.125 39.59375 43.09375 43.984375 
Q 39.0625 48.390625 32.421875 48.390625 
Q 24.90625 48.390625 20.390625 44.140625 
Q 15.875 39.890625 15.1875 32.171875 
z
" id="DejaVuSans-101"/>
      <path d="M 18.109375 8.203125 
L 18.109375 -20.796875 
L 9.078125 -20.796875 
L 9.078125 54.6875 
L 18.109375 54.6875 
L 18.109375 46.390625 
Q 20.953125 51.265625 25.265625 53.625 
Q 29.59375 56 35.59375 56 
Q 45.5625 56 51.78125 48.09375 
Q 58.015625 40.1875 58.015625 27.296875 
Q 58.015625 14.40625 51.78125 6.484375 
Q 45.5625 -1.421875 35.59375 -1.421875 
Q 29.59375 -1.421875 25.265625 0.953125 
Q 20.953125 3.328125 18.109375 8.203125 
z
M 48.6875 27.296875 
Q 48.6875 37.203125 44.609375 42.84375 
Q 40.53125 48.484375 33.40625 48.484375 
Q 26.265625 48.484375 22.1875 42.84375 
Q 18.109375 37.203125 18.109375 27.296875 
Q 18.109375 17.390625 22.1875 11.75 
Q 26.265625 6.109375 33.40625 6.109375 
Q 40.53125 6.109375 44.609375 11.75 
Q 48.6875 17.390625 48.6875 27.296875 
z
" id="DejaVuSans-112"/>
      <path d="M 30.609375 48.390625 
Q 23.390625 48.390625 19.1875 42.75 
Q 14.984375 37.109375 14.984375 27.296875 
Q 14.984375 17.484375 19.15625 11.84375 
Q 23.34375 6.203125 30.609375 6.203125 
Q 37.796875 6.203125 41.984375 11.859375 
Q 46.1875 17.53125 46.1875 27.296875 
Q 46.1875 37.015625 41.984375 42.703125 
Q 37.796875 48.390625 30.609375 48.390625 
z
M 30.609375 56 
Q 42.328125 56 49.015625 48.375 
Q 55.71875 40.765625 55.71875 27.296875 
Q 55.71875 13.875 49.015625 6.21875 
Q 42.328125 -1.421875 30.609375 -1.421875 
Q 18.84375 -1.421875 12.171875 6.21875 
Q 5.515625 13.875 5.515625 27.296875 
Q 5.515625 40.765625 12.171875 48.375 
Q 18.84375 56 30.609375 56 
z
" id="DejaVuSans-111"/>
      <path d="M 48.78125 52.59375 
L 48.78125 44.1875 
Q 44.96875 46.296875 41.140625 47.34375 
Q 37.3125 48.390625 33.40625 48.390625 
Q 24.65625 48.390625 19.8125 42.84375 
Q 14.984375 37.3125 14.984375 27.296875 
Q 14.984375 17.28125 19.8125 11.734375 
Q 24.65625 6.203125 33.40625 6.203125 
Q 37.3125 6.203125 41.140625 7.25 
Q 44.96875 8.296875 48.78125 10.40625 
L 48.78125 2.09375 
Q 45.015625 0.34375 40.984375 -0.53125 
Q 36.96875 -1.421875 32.421875 -1.421875 
Q 20.0625 -1.421875 12.78125 6.34375 
Q 5.515625 14.109375 5.515625 27.296875 
Q 5.515625 40.671875 12.859375 48.328125 
Q 20.21875 56 33.015625 56 
Q 37.15625 56 41.109375 55.140625 
Q 45.0625 54.296875 48.78125 52.59375 
z
" id="DejaVuSans-99"/>
      <path d="M 54.890625 33.015625 
L 54.890625 0 
L 45.90625 0 
L 45.90625 32.71875 
Q 45.90625 40.484375 42.875 44.328125 
Q 39.84375 48.1875 33.796875 48.1875 
Q 26.515625 48.1875 22.3125 43.546875 
Q 18.109375 38.921875 18.109375 30.90625 
L 18.109375 0 
L 9.078125 0 
L 9.078125 75.984375 
L 18.109375 75.984375 
L 18.109375 46.1875 
Q 21.34375 51.125 25.703125 53.5625 
Q 30.078125 56 35.796875 56 
Q 45.21875 56 50.046875 50.171875 
Q 54.890625 44.34375 54.890625 33.015625 
z
" id="DejaVuSans-104"/>
     </defs>
     <g transform="translate(353.771875 343.276563)scale(0.1 -0.1)">
      <use xlink:href="#DejaVuSans-101"/>
      <use x="61.523438" xlink:href="#DejaVuSans-112"/>
      <use x="125" xlink:href="#DejaVuSans-111"/>
      <use x="186.181641" xlink:href="#DejaVuSans-99"/>
      <use x="241.162109" xlink:href="#DejaVuSans-104"/>
     </g>
    </g>
   </g>
   <g id="matplotlib.axis_2">
    <g id="ytick_1">
     <g id="line2d_17">
      <path clip-path="url(#p39f237f624)" d="M 90 312.748336 
L 648 312.748336 
" style="fill:none;stroke:#b0b0b0;stroke-linecap:square;stroke-width:0.8;"/>
     </g>
     <g id="line2d_18">
      <defs>
       <path d="M 0 0 
L -3.5 0 
" id="m92f93f9b81" style="stroke:#000000;stroke-width:0.8;"/>
      </defs>
      <g>
       <use style="stroke:#000000;stroke-width:0.8;" x="90" xlink:href="#m92f93f9b81" y="312.748336"/>
      </g>
     </g>
     <g id="text_10">
      <!-- 0.2 -->
      <defs>
       <path d="M 10.6875 12.40625 
L 21 12.40625 
L 21 0 
L 10.6875 0 
z
" id="DejaVuSans-46"/>
      </defs>
      <g transform="translate(67.096875 316.547555)scale(0.1 -0.1)">
       <use xlink:href="#DejaVuSans-48"/>
       <use x="63.623047" xlink:href="#DejaVuSans-46"/>
       <use x="95.410156" xlink:href="#DejaVuSans-50"/>
      </g>
     </g>
    </g>
    <g id="ytick_2">
     <g id="line2d_19">
      <path clip-path="url(#p39f237f624)" d="M 90 265.536248 
L 648 265.536248 
" style="fill:none;stroke:#b0b0b0;stroke-linecap:square;stroke-width:0.8;"/>
     </g>
     <g id="line2d_20">
      <g>
       <use style="stroke:#000000;stroke-width:0.8;" x="90" xlink:href="#m92f93f9b81" y="265.536248"/>
      </g>
     </g>
     <g id="text_11">
      <!-- 0.4 -->
      <g transform="translate(67.096875 269.335466)scale(0.1 -0.1)">
       <use xlink:href="#DejaVuSans-48"/>
       <use x="63.623047" xlink:href="#DejaVuSans-46"/>
       <use x="95.410156" xlink:href="#DejaVuSans-52"/>
      </g>
     </g>
    </g>
    <g id="ytick_3">
     <g id="line2d_21">
      <path clip-path="url(#p39f237f624)" d="M 90 218.324159 
L 648 218.324159 
" style="fill:none;stroke:#b0b0b0;stroke-linecap:square;stroke-width:0.8;"/>
     </g>
     <g id="line2d_22">
      <g>
       <use style="stroke:#000000;stroke-width:0.8;" x="90" xlink:href="#m92f93f9b81" y="218.324159"/>
      </g>
     </g>
     <g id="text_12">
      <!-- 0.6 -->
      <g transform="translate(67.096875 222.123378)scale(0.1 -0.1)">
       <use xlink:href="#DejaVuSans-48"/>
       <use x="63.623047" xlink:href="#DejaVuSans-46"/>
       <use x="95.410156" xlink:href="#DejaVuSans-54"/>
      </g>
     </g>
    </g>
    <g id="ytick_4">
     <g id="line2d_23">
      <path clip-path="url(#p39f237f624)" d="M 90 171.11207 
L 648 171.11207 
" style="fill:none;stroke:#b0b0b0;stroke-linecap:square;stroke-width:0.8;"/>
     </g>
     <g id="line2d_24">
      <g>
       <use style="stroke:#000000;stroke-width:0.8;" x="90" xlink:href="#m92f93f9b81" y="171.11207"/>
      </g>
     </g>
     <g id="text_13">
      <!-- 0.8 -->
      <g transform="translate(67.096875 174.911289)scale(0.1 -0.1)">
       <use xlink:href="#DejaVuSans-48"/>
       <use x="63.623047" xlink:href="#DejaVuSans-46"/>
       <use x="95.410156" xlink:href="#DejaVuSans-56"/>
      </g>
     </g>
    </g>
    <g id="ytick_5">
     <g id="line2d_25">
      <path clip-path="url(#p39f237f624)" d="M 90 123.899981 
L 648 123.899981 
" style="fill:none;stroke:#b0b0b0;stroke-linecap:square;stroke-width:0.8;"/>
     </g>
     <g id="line2d_26">
      <g>
       <use style="stroke:#000000;stroke-width:0.8;" x="90" xlink:href="#m92f93f9b81" y="123.899981"/>
      </g>
     </g>
     <g id="text_14">
      <!-- 1.0 -->
      <g transform="translate(67.096875 127.6992)scale(0.1 -0.1)">
       <use xlink:href="#DejaVuSans-49"/>
       <use x="63.623047" xlink:href="#DejaVuSans-46"/>
       <use x="95.410156" xlink:href="#DejaVuSans-48"/>
      </g>
     </g>
    </g>
    <g id="ytick_6">
     <g id="line2d_27">
      <path clip-path="url(#p39f237f624)" d="M 90 76.687892 
L 648 76.687892 
" style="fill:none;stroke:#b0b0b0;stroke-linecap:square;stroke-width:0.8;"/>
     </g>
     <g id="line2d_28">
      <g>
       <use style="stroke:#000000;stroke-width:0.8;" x="90" xlink:href="#m92f93f9b81" y="76.687892"/>
      </g>
     </g>
     <g id="text_15">
      <!-- 1.2 -->
      <g transform="translate(67.096875 80.487111)scale(0.1 -0.1)">
       <use xlink:href="#DejaVuSans-49"/>
       <use x="63.623047" xlink:href="#DejaVuSans-46"/>
       <use x="95.410156" xlink:href="#DejaVuSans-50"/>
      </g>
     </g>
    </g>
    <g id="text_16">
     <!-- loss -->
     <defs>
      <path d="M 9.421875 75.984375 
L 18.40625 75.984375 
L 18.40625 0 
L 9.421875 0 
z
" id="DejaVuSans-108"/>
      <path d="M 44.28125 53.078125 
L 44.28125 44.578125 
Q 40.484375 46.53125 36.375 47.5 
Q 32.28125 48.484375 27.875 48.484375 
Q 21.1875 48.484375 17.84375 46.4375 
Q 14.5 44.390625 14.5 40.28125 
Q 14.5 37.15625 16.890625 35.375 
Q 19.28125 33.59375 26.515625 31.984375 
L 29.59375 31.296875 
Q 39.15625 29.25 43.1875 25.515625 
Q 47.21875 21.78125 47.21875 15.09375 
Q 47.21875 7.46875 41.1875 3.015625 
Q 35.15625 -1.421875 24.609375 -1.421875 
Q 20.21875 -1.421875 15.453125 -0.5625 
Q 10.6875 0.296875 5.421875 2 
L 5.421875 11.28125 
Q 10.40625 8.6875 15.234375 7.390625 
Q 20.0625 6.109375 24.8125 6.109375 
Q 31.15625 6.109375 34.5625 8.28125 
Q 37.984375 10.453125 37.984375 14.40625 
Q 37.984375 18.0625 35.515625 20.015625 
Q 33.0625 21.96875 24.703125 23.78125 
L 21.578125 24.515625 
Q 13.234375 26.265625 9.515625 29.90625 
Q 5.8125 33.546875 5.8125 39.890625 
Q 5.8125 47.609375 11.28125 51.796875 
Q 16.75 56 26.8125 56 
Q 31.78125 56 36.171875 55.265625 
Q 40.578125 54.546875 44.28125 53.078125 
z
" id="DejaVuSans-115"/>
     </defs>
     <g transform="translate(61.017187 188.757812)rotate(-90)scale(0.1 -0.1)">
      <use xlink:href="#DejaVuSans-108"/>
      <use x="27.783203" xlink:href="#DejaVuSans-111"/>
      <use x="88.964844" xlink:href="#DejaVuSans-115"/>
      <use x="141.064453" xlink:href="#DejaVuSans-115"/>
     </g>
    </g>
   </g>
   <g id="line2d_29">
    <path clip-path="url(#p39f237f624)" d="M 115.363636 55.554545 
L 116.033746 68.987558 
L 116.3688 70.89274 
L 116.703855 76.851368 
L 117.03891 77.569412 
L 117.373964 76.354033 
L 117.709019 80.789 
L 118.044073 81.94533 
L 118.379128 78.141347 
L 118.714183 80.679373 
L 119.049237 79.288318 
L 119.384292 83.187375 
L 119.719347 80.99124 
L 120.054401 85.25133 
L 120.389456 85.292017 
L 120.724511 89.011659 
L 121.059565 85.639934 
L 121.39462 86.435575 
L 121.729675 86.790498 
L 122.064729 90.824765 
L 122.399784 88.338522 
L 122.734838 90.878269 
L 123.069893 90.237402 
L 123.404948 92.490264 
L 123.740002 90.409109 
L 124.410112 95.898415 
L 124.745166 92.292397 
L 125.080221 93.416262 
L 125.415276 98.390079 
L 125.75033 93.594032 
L 126.085385 98.521261 
L 126.42044 96.485046 
L 127.090549 100.775808 
L 127.425603 102.414174 
L 127.760658 103.210426 
L 128.095713 101.747047 
L 128.430767 103.135606 
L 128.765822 103.087727 
L 129.100877 105.187963 
L 129.435931 105.000885 
L 129.770986 109.409025 
L 130.106041 110.228786 
L 130.441095 110.642483 
L 130.77615 113.413068 
L 131.111205 113.187294 
L 131.781314 120.220468 
L 132.116368 119.820332 
L 132.451423 125.099297 
L 132.786478 126.483189 
L 134.126696 138.785541 
L 134.461751 139.439071 
L 134.796806 143.051386 
L 135.13186 148.342611 
L 135.801969 154.082448 
L 136.137024 155.951843 
L 136.472079 155.778157 
L 136.807133 161.301107 
L 137.142188 161.241404 
L 137.477243 166.856592 
L 137.812297 167.660152 
L 138.147352 164.976238 
L 138.482407 169.301935 
L 138.817461 171.805149 
L 139.152516 176.8358 
L 139.487571 178.094539 
L 139.822625 176.774827 
L 140.15768 176.787139 
L 140.492734 181.794641 
L 140.827789 179.011151 
L 141.162844 185.274722 
L 141.497898 182.354119 
L 141.832953 185.401903 
L 142.168008 185.447403 
L 142.503062 188.206525 
L 142.838117 187.314523 
L 143.173172 188.070593 
L 143.508226 194.560436 
L 143.843281 190.189103 
L 144.178336 190.911423 
L 144.51339 189.650155 
L 145.518554 198.111741 
L 145.853609 195.922162 
L 146.188663 198.276501 
L 146.523718 198.872447 
L 146.858773 198.278079 
L 147.193827 199.772923 
L 147.528882 197.536295 
L 148.198991 202.761915 
L 148.534046 199.926972 
L 148.869101 199.897709 
L 149.204155 204.01184 
L 149.53921 205.707497 
L 149.874264 204.164752 
L 150.209319 200.380632 
L 150.544374 202.409675 
L 150.879428 205.771617 
L 151.214483 206.738301 
L 151.549538 206.999242 
L 152.219647 205.094432 
L 152.554702 207.525982 
L 152.889756 206.835781 
L 153.224811 207.256943 
L 153.559865 208.906884 
L 153.89492 202.877303 
L 154.229975 204.79531 
L 154.565029 207.981876 
L 154.900084 209.162097 
L 155.235139 212.615838 
L 155.570193 209.152853 
L 156.240303 211.891224 
L 156.575357 211.185677 
L 156.910412 212.000607 
L 157.580521 215.323713 
L 157.915576 215.068947 
L 158.25063 214.053481 
L 158.585685 210.551542 
L 158.92074 214.607906 
L 159.255794 213.169534 
L 159.590849 214.849066 
L 159.925904 212.543917 
L 160.260958 211.141734 
L 160.596013 218.45722 
L 160.931068 212.777781 
L 161.266122 214.29777 
L 161.601177 212.69205 
L 161.936232 215.247886 
L 162.271286 213.716153 
L 162.606341 217.549979 
L 162.941395 217.154338 
L 163.27645 219.385579 
L 163.611505 211.240722 
L 164.281614 220.560092 
L 164.616669 214.926168 
L 164.951723 217.51141 
L 165.286778 218.132671 
L 165.621833 218.248536 
L 165.956887 221.819276 
L 166.291942 217.118879 
L 166.626997 219.121738 
L 166.962051 217.838869 
L 167.297106 214.92723 
L 167.63216 220.318492 
L 167.967215 222.332734 
L 168.30227 221.695955 
L 168.637324 222.123484 
L 168.972379 220.40165 
L 169.307434 222.899745 
L 169.642488 219.62163 
L 169.977543 219.2896 
L 170.312598 223.78172 
L 170.647652 222.675119 
L 170.982707 220.683023 
L 171.317761 223.563755 
L 171.652816 224.304583 
L 171.987871 227.827253 
L 172.322925 224.1282 
L 172.65798 222.438694 
L 172.993035 227.037803 
L 173.328089 225.07525 
L 173.663144 225.68001 
L 173.998199 224.383662 
L 174.333253 224.232616 
L 174.668308 223.164467 
L 175.003363 225.393373 
L 175.338417 224.673978 
L 175.673472 225.71943 
L 176.008526 226.384311 
L 176.343581 226.224249 
L 176.678636 226.637491 
L 177.01369 229.572433 
L 177.348745 230.457263 
L 177.6838 227.682022 
L 178.018854 230.449794 
L 178.353909 227.515522 
L 178.688964 233.822761 
L 179.024018 226.528071 
L 179.359073 231.613469 
L 179.694128 228.131671 
L 180.029182 228.884139 
L 180.364237 228.605461 
L 180.699291 230.048177 
L 181.034346 226.859994 
L 181.369401 230.238209 
L 181.704455 229.299118 
L 182.03951 229.154481 
L 182.374565 232.294019 
L 182.709619 230.686069 
L 183.044674 230.996577 
L 183.379729 228.397095 
L 183.714783 231.306316 
L 184.384893 229.987913 
L 184.719947 234.040087 
L 185.055002 231.449985 
L 185.390056 233.014577 
L 185.725111 233.990583 
L 186.39522 230.519971 
L 186.730275 234.977209 
L 187.06533 232.575888 
L 187.400384 237.126946 
L 187.735439 231.521512 
L 188.070494 231.194222 
L 188.405548 233.240141 
L 188.740603 233.103724 
L 189.075657 230.634084 
L 189.410712 235.456677 
L 189.745767 232.344455 
L 190.080821 234.360196 
L 190.415876 235.669482 
L 190.750931 236.097042 
L 191.085985 235.666832 
L 191.42104 239.368384 
L 191.756095 237.993555 
L 192.426204 241.28233 
L 192.761259 234.537751 
L 193.096313 237.150212 
L 193.766422 234.903261 
L 194.101477 237.280672 
L 194.436532 237.875184 
L 194.771586 238.891044 
L 195.106641 241.526499 
L 195.441696 236.213421 
L 195.77675 238.813396 
L 196.111805 242.65735 
L 196.44686 238.829474 
L 196.781914 236.711988 
L 197.116969 237.705519 
L 197.452024 239.262835 
L 197.787078 242.084518 
L 198.122133 238.672043 
L 198.457187 240.596767 
L 198.792242 240.491921 
L 199.127297 242.57238 
L 199.797406 239.164547 
L 200.80257 244.585155 
L 201.137625 241.920249 
L 201.472679 245.331689 
L 201.807734 242.480715 
L 202.142789 244.371628 
L 202.477843 243.955719 
L 202.812898 242.464349 
L 203.483007 242.591844 
L 203.818062 245.283555 
L 204.153116 241.243985 
L 204.488171 245.242413 
L 204.823226 244.402294 
L 205.15828 243.039075 
L 205.493335 245.360735 
L 205.82839 245.430688 
L 206.498499 242.65543 
L 206.833554 242.645769 
L 207.168608 246.570911 
L 207.503663 247.778847 
L 207.838717 247.779101 
L 208.173772 241.900428 
L 208.508827 243.454667 
L 209.178936 247.951231 
L 209.849045 245.880693 
L 210.1841 246.017232 
L 210.519155 248.058337 
L 210.854209 249.169114 
L 211.189264 245.442811 
L 211.859373 249.866028 
L 212.529482 247.479961 
L 212.864537 248.868666 
L 213.199592 248.323744 
L 213.534646 247.191383 
L 213.869701 252.062801 
L 214.204756 251.486161 
L 214.53981 251.441328 
L 214.874865 251.032754 
L 215.20992 248.665165 
L 215.544974 248.989036 
L 215.880029 247.056117 
L 216.215083 254.117139 
L 216.550138 252.199058 
L 216.885193 247.868711 
L 217.220247 252.393702 
L 217.555302 250.90427 
L 217.890357 251.410199 
L 218.225411 248.812229 
L 218.895521 253.094921 
L 219.230575 252.880173 
L 219.56563 249.926725 
L 219.900685 257.951217 
L 220.235739 252.310826 
L 220.905848 254.44751 
L 221.240903 252.281662 
L 221.575958 251.113343 
L 221.911012 257.692793 
L 222.246067 249.957007 
L 222.581122 253.781038 
L 222.916176 250.635741 
L 223.251231 252.304588 
L 223.586286 259.018689 
L 223.92134 255.198968 
L 224.256395 255.717815 
L 224.59145 254.774475 
L 225.261559 256.061091 
L 225.596613 254.051059 
L 226.266723 256.082718 
L 226.601777 252.654582 
L 227.271887 254.792174 
L 227.606941 258.314977 
L 228.277051 255.64568 
L 228.612105 257.315638 
L 228.94716 257.573712 
L 229.282214 253.513284 
L 229.617269 255.514207 
L 230.287378 253.497705 
L 230.622433 257.164571 
L 230.957488 258.127132 
L 231.292542 257.179817 
L 231.627597 258.69865 
L 231.962652 262.258335 
L 232.297706 260.93914 
L 232.632761 256.6043 
L 232.967816 260.039831 
L 233.30287 258.517603 
L 233.637925 262.773595 
L 233.972979 256.415725 
L 234.308034 254.959696 
L 234.643089 261.246761 
L 234.978143 257.097765 
L 235.313198 262.224257 
L 235.648253 255.480415 
L 235.983307 259.728716 
L 236.318362 261.297866 
L 236.653417 256.595637 
L 236.988471 261.367621 
L 237.323526 260.033371 
L 237.658581 262.167848 
L 237.993635 263.204296 
L 238.32869 260.965196 
L 238.663744 262.300101 
L 238.998799 260.876971 
L 239.333854 262.604322 
L 239.668908 260.08826 
L 240.003963 264.150168 
L 240.339018 261.730761 
L 240.674072 265.005765 
L 241.009127 266.326067 
L 241.679236 264.08957 
L 242.349346 263.096473 
L 242.6844 263.095396 
L 243.019455 266.315999 
L 243.354509 259.956632 
L 243.689564 263.553666 
L 244.024619 265.860579 
L 244.359673 261.507062 
L 244.694728 260.688454 
L 245.029783 263.465372 
L 245.364837 260.309104 
L 245.699892 260.387427 
L 246.034947 261.694566 
L 246.370001 263.699288 
L 246.705056 262.12905 
L 247.04011 267.407066 
L 247.71022 259.717959 
L 248.045274 266.631074 
L 248.380329 263.306137 
L 248.715384 266.647488 
L 249.050438 266.661198 
L 249.385493 263.942647 
L 249.720548 270.125048 
L 250.055602 264.023723 
L 250.390657 268.3704 
L 250.725712 264.093624 
L 251.060766 266.763944 
L 251.395821 263.23762 
L 251.730875 263.721357 
L 252.06593 266.516253 
L 252.400985 263.82113 
L 252.736039 265.266284 
L 253.071094 264.420686 
L 253.406149 266.955657 
L 253.741203 266.581483 
L 254.076258 271.158807 
L 254.411313 268.308171 
L 254.746367 270.967603 
L 255.416477 263.087834 
L 255.751531 267.219422 
L 256.086586 266.305315 
L 256.42164 268.237055 
L 256.756695 267.96731 
L 257.09175 265.076769 
L 257.426804 269.906929 
L 257.761859 266.873604 
L 258.096914 266.875921 
L 258.431968 268.409043 
L 258.767023 268.92223 
L 259.102078 267.822921 
L 259.437132 267.270406 
L 259.772187 268.840268 
L 260.107242 268.491324 
L 260.442296 268.983376 
L 260.777351 268.665102 
L 261.112405 266.417257 
L 261.44746 267.977674 
L 261.782515 268.747164 
L 262.117569 267.874857 
L 262.452624 270.039416 
L 262.787679 267.128964 
L 263.122733 266.427772 
L 263.457788 268.002792 
L 263.792843 267.506134 
L 264.462952 272.585958 
L 264.798006 271.294107 
L 265.133061 272.430832 
L 265.468116 269.6322 
L 265.80317 268.987537 
L 266.138225 270.31786 
L 266.808334 275.949401 
L 267.143389 269.487638 
L 267.478444 270.460621 
L 267.813498 268.98817 
L 268.148553 271.455009 
L 268.483608 268.199005 
L 268.818662 263.11043 
L 269.153717 271.467286 
L 269.488771 268.145385 
L 269.823826 269.885852 
L 270.158881 270.491155 
L 270.82899 267.836586 
L 271.499099 269.191201 
L 271.834154 272.069089 
L 272.169209 266.311186 
L 272.504263 268.928507 
L 273.174373 275.464005 
L 273.509427 272.55357 
L 273.844482 274.740519 
L 274.179536 272.153365 
L 274.514591 270.77173 
L 274.849646 276.611184 
L 275.519755 271.991537 
L 275.85481 272.023615 
L 276.189864 269.086593 
L 276.524919 272.930301 
L 276.859974 272.93696 
L 277.195028 273.594 
L 277.530083 272.833331 
L 277.865138 272.529076 
L 278.200192 271.051392 
L 278.535247 272.489125 
L 278.870301 279.13341 
L 279.205356 272.031635 
L 279.540411 276.478187 
L 279.875465 273.103637 
L 280.21052 273.448132 
L 280.880629 273.677644 
L 281.215684 272.329664 
L 281.885793 275.430562 
L 282.220848 269.137367 
L 282.555902 274.705315 
L 282.890957 275.847714 
L 283.226012 272.397203 
L 283.561066 273.976874 
L 283.896121 271.093384 
L 284.56623 278.288519 
L 284.901285 274.79602 
L 285.23634 275.666527 
L 285.571394 275.589577 
L 285.906449 274.018791 
L 286.241504 276.10689 
L 286.576558 272.538928 
L 286.911613 275.62702 
L 287.246667 275.378346 
L 287.581722 275.806975 
L 287.916777 276.672646 
L 288.251831 274.717338 
L 288.586886 274.587706 
L 288.921941 276.176278 
L 289.256995 275.709852 
L 289.59205 272.993068 
L 289.927105 276.398498 
L 290.262159 275.241295 
L 290.597214 275.869228 
L 290.932269 274.232142 
L 291.267323 277.706285 
L 291.602378 277.211034 
L 291.937432 274.822664 
L 292.272487 273.654158 
L 292.942596 277.95713 
L 293.277651 275.298785 
L 293.612706 274.191357 
L 293.94776 273.737832 
L 294.282815 275.951032 
L 294.61787 276.145523 
L 294.952924 276.132093 
L 295.287979 270.081664 
L 295.623034 273.187857 
L 295.958088 273.098733 
L 296.293143 273.990509 
L 296.628197 276.607759 
L 296.963252 276.452147 
L 297.298307 276.08182 
L 297.968416 280.56983 
L 298.303471 277.800777 
L 298.638525 279.296824 
L 298.97358 276.635442 
L 299.308635 276.417168 
L 299.643689 275.431159 
L 299.978744 277.923273 
L 300.313798 271.642642 
L 300.983908 278.797195 
L 301.318962 273.669545 
L 301.989072 278.351432 
L 302.324126 275.54685 
L 302.659181 274.206457 
L 302.994236 277.094893 
L 303.32929 274.895413 
L 303.9994 278.761258 
L 304.334454 276.794443 
L 304.669509 273.703117 
L 305.004563 275.793936 
L 305.339618 280.880249 
L 305.674673 279.535493 
L 306.009727 282.089843 
L 306.344782 277.146227 
L 306.679837 282.586379 
L 307.014891 278.306879 
L 307.349946 280.095746 
L 307.685001 283.186116 
L 308.35511 277.418412 
L 308.690165 278.712565 
L 309.025219 278.920268 
L 309.360274 283.262893 
L 309.695328 282.215629 
L 310.030383 275.437876 
L 310.365438 278.756987 
L 310.700492 278.352608 
L 311.035547 274.511113 
L 311.370602 276.852144 
L 311.705656 280.432305 
L 312.040711 282.697224 
L 312.375766 283.046634 
L 312.71082 276.541696 
L 313.045875 283.626211 
L 313.38093 281.234239 
L 313.715984 275.298791 
L 314.051039 280.54117 
L 314.386093 278.050637 
L 314.721148 278.026464 
L 315.056203 280.841238 
L 315.391257 279.401143 
L 315.726312 278.489786 
L 316.061367 281.203883 
L 316.396421 278.089401 
L 316.731476 281.22903 
L 317.066531 278.684468 
L 317.401585 283.68392 
L 317.73664 279.305375 
L 318.071694 279.985104 
L 318.406749 278.132531 
L 318.741804 282.250061 
L 319.076858 282.137408 
L 319.411913 279.164689 
L 319.746968 273.896067 
L 320.417077 280.274583 
L 320.752132 281.841782 
L 321.087186 279.63736 
L 321.422241 279.435113 
L 321.757296 279.638007 
L 322.09235 280.446189 
L 322.427405 283.298471 
L 323.097514 278.653331 
L 323.432569 280.147825 
L 323.767623 282.464166 
L 324.102678 277.146915 
L 324.437733 277.096255 
L 324.772787 283.113402 
L 325.107842 280.364031 
L 325.442897 282.491968 
L 325.777951 282.139603 
L 326.113006 279.650388 
L 326.448061 282.62778 
L 326.783115 279.349812 
L 327.11817 279.934501 
L 327.453224 278.485702 
L 327.788279 278.145172 
L 328.123334 280.016419 
L 328.458388 280.256618 
L 328.793443 283.739031 
L 329.128498 278.791463 
L 329.463552 280.832385 
L 329.798607 284.320672 
L 330.133662 281.426349 
L 331.138826 279.72568 
L 331.47388 279.940321 
L 331.808935 283.660313 
L 332.143989 280.249035 
L 332.479044 282.151863 
L 332.814099 282.561538 
L 333.149153 279.284711 
L 333.484208 283.008116 
L 333.819263 282.2272 
L 334.154317 280.169177 
L 334.489372 287.494164 
L 334.824427 287.434805 
L 335.494536 276.772161 
L 335.82959 283.26563 
L 336.164645 283.953518 
L 336.4997 284.261998 
L 336.834754 282.944712 
L 337.169809 283.244001 
L 337.504864 279.118899 
L 337.839918 287.529509 
L 338.174973 283.141932 
L 338.845082 280.693429 
L 339.180137 284.499573 
L 339.515192 281.261579 
L 339.850246 281.951332 
L 340.185301 284.270619 
L 340.520355 284.065533 
L 340.85541 280.023933 
L 341.190465 282.679465 
L 341.525519 286.449141 
L 341.860574 280.803169 
L 342.195629 283.241244 
L 342.530683 279.503225 
L 342.865738 280.118304 
L 343.200793 285.086248 
L 343.535847 283.86309 
L 344.205957 279.34569 
L 344.541011 281.052974 
L 344.876066 278.711116 
L 345.21112 280.245904 
L 345.546175 283.458117 
L 345.88123 281.67432 
L 346.216284 283.166635 
L 346.551339 284.029293 
L 346.886394 283.404643 
L 347.221448 284.31167 
L 347.556503 284.584658 
L 347.891558 285.580308 
L 348.226612 283.585094 
L 348.561667 283.02245 
L 348.896722 285.764881 
L 349.231776 278.499496 
L 349.566831 284.429368 
L 349.901885 283.357599 
L 350.23694 284.440193 
L 350.571995 279.82546 
L 351.242104 285.241806 
L 351.577159 278.576691 
L 351.912213 281.492501 
L 352.247268 286.291249 
L 352.582323 284.417397 
L 352.917377 280.805664 
L 353.252432 288.091124 
L 353.587486 286.17455 
L 353.922541 281.084527 
L 354.257596 287.428482 
L 354.927705 284.422876 
L 355.26276 281.590844 
L 355.597814 283.386927 
L 355.932869 278.819916 
L 356.267924 285.784912 
L 356.602978 289.832824 
L 356.938033 279.138894 
L 357.273088 284.797671 
L 357.608142 280.731857 
L 357.943197 283.790163 
L 358.278251 284.430741 
L 358.613306 283.119086 
L 358.948361 283.744085 
L 359.283415 286.475951 
L 359.61847 282.027943 
L 359.953525 284.001156 
L 360.288579 282.537821 
L 360.623634 282.066254 
L 360.958689 286.627409 
L 361.293743 286.438772 
L 361.628798 285.063914 
L 361.963853 284.927325 
L 362.298907 284.483848 
L 362.633962 283.570354 
L 362.969016 284.191307 
L 363.304071 285.249552 
L 363.639126 281.249161 
L 363.97418 287.951941 
L 364.309235 284.601879 
L 364.64429 285.082257 
L 364.979344 283.156732 
L 365.314399 285.600535 
L 365.984508 282.597129 
L 366.319563 282.628875 
L 366.654618 284.469397 
L 366.989672 281.744064 
L 367.324727 282.116961 
L 367.659781 288.081873 
L 367.994836 285.404204 
L 368.329891 287.125284 
L 368.664945 281.915702 
L 369 284.943576 
L 369.335055 283.606049 
L 369.670109 286.042337 
L 370.005164 285.18853 
L 370.675273 282.742749 
L 371.010328 284.615981 
L 371.345382 281.29543 
L 371.680437 286.350645 
L 372.015492 283.44523 
L 372.350546 283.748048 
L 372.685601 286.012599 
L 373.020656 285.0802 
L 373.35571 288.773455 
L 374.02582 282.496657 
L 374.360874 288.448531 
L 374.695929 284.539334 
L 375.030984 288.415934 
L 375.366038 286.14882 
L 375.701093 282.995657 
L 376.371202 286.934347 
L 376.706257 285.801371 
L 377.041311 286.638927 
L 377.376366 288.013734 
L 377.711421 286.361399 
L 378.046475 287.297373 
L 378.38153 284.643239 
L 378.716585 285.488678 
L 379.051639 288.654588 
L 379.386694 284.404976 
L 379.721749 285.301038 
L 380.056803 284.650228 
L 380.391858 285.060362 
L 380.726912 286.795632 
L 381.061967 286.869101 
L 381.397022 284.034112 
L 381.732076 283.794899 
L 382.067131 284.522605 
L 382.402186 287.495799 
L 382.73724 284.068966 
L 383.072295 287.331618 
L 383.40735 281.663496 
L 383.742404 284.504549 
L 384.077459 285.805607 
L 384.412514 288.833901 
L 384.747568 286.094146 
L 385.082623 284.336261 
L 385.417677 286.878357 
L 385.752732 287.539928 
L 386.087787 287.513095 
L 386.422841 282.221503 
L 386.757896 285.243512 
L 387.092951 290.572274 
L 387.428005 286.382019 
L 387.76306 288.200061 
L 388.098115 283.334089 
L 388.433169 286.062334 
L 388.768224 286.447703 
L 389.103278 286.490394 
L 389.438333 287.161966 
L 389.773388 288.539768 
L 390.108442 287.660175 
L 390.443497 285.497005 
L 390.778552 285.432186 
L 391.113606 285.827374 
L 391.448661 285.016935 
L 391.783716 285.222343 
L 392.11877 288.143365 
L 392.453825 283.548606 
L 392.78888 285.164746 
L 393.123934 285.726621 
L 393.458989 287.106688 
L 393.794043 292.607682 
L 394.129098 284.939457 
L 394.464153 285.045464 
L 394.799207 290.546052 
L 395.134262 285.063412 
L 395.469317 289.452498 
L 395.804371 284.133951 
L 396.139426 283.350028 
L 396.474481 284.520759 
L 396.809535 286.354234 
L 397.14459 284.344049 
L 397.479645 281.1025 
L 397.814699 287.428226 
L 398.149754 288.513774 
L 398.484808 291.104606 
L 398.819863 290.904137 
L 399.154918 286.752476 
L 399.489972 287.911262 
L 399.825027 287.981834 
L 400.160082 287.832498 
L 400.495136 287.342911 
L 400.830191 290.911417 
L 401.165246 292.030514 
L 401.5003 290.030528 
L 401.835355 285.004013 
L 402.17041 284.423172 
L 402.505464 284.40996 
L 402.840519 292.106062 
L 403.175573 287.361479 
L 403.510628 288.48093 
L 403.845683 292.081321 
L 404.180737 288.821158 
L 404.515792 290.902239 
L 404.850847 288.027242 
L 405.520956 291.62877 
L 405.856011 286.01472 
L 406.191065 287.510219 
L 406.52612 286.785201 
L 406.861174 286.349231 
L 407.196229 286.138409 
L 407.866338 289.814783 
L 408.201393 284.154493 
L 408.536448 291.662887 
L 408.871502 281.324506 
L 409.206557 287.246412 
L 409.541612 285.877348 
L 409.876666 290.756568 
L 410.211721 284.413242 
L 410.546776 284.386846 
L 410.88183 289.190658 
L 411.216885 288.807925 
L 411.886994 293.383472 
L 412.222049 285.274699 
L 412.557103 288.857018 
L 412.892158 285.618354 
L 413.227213 285.552347 
L 413.897322 290.158837 
L 414.232377 289.144837 
L 414.567431 287.570649 
L 414.902486 292.263114 
L 415.237541 290.894363 
L 415.572595 288.722804 
L 415.90765 290.716513 
L 416.242704 287.9233 
L 416.577759 289.856345 
L 416.912814 288.596192 
L 417.247868 288.797438 
L 417.582923 290.889113 
L 417.917978 287.609393 
L 418.253032 288.07867 
L 418.588087 291.926054 
L 418.923142 286.66927 
L 419.593251 294.30336 
L 420.26336 286.242114 
L 420.598415 291.806068 
L 420.933469 288.632052 
L 421.603579 290.270165 
L 421.938633 289.488135 
L 422.273688 289.892469 
L 422.608743 288.682504 
L 422.943797 289.033346 
L 423.278852 290.195602 
L 423.613907 288.845074 
L 423.948961 289.774763 
L 424.284016 291.559772 
L 424.61907 290.244924 
L 425.28918 286.105372 
L 425.624234 290.961208 
L 425.959289 291.201168 
L 426.294344 285.989896 
L 426.629398 290.590014 
L 427.299508 290.002974 
L 427.634562 289.472206 
L 427.969617 290.417114 
L 428.304672 289.396 
L 428.639726 290.365022 
L 428.974781 284.271051 
L 429.309835 287.393876 
L 429.64489 289.407618 
L 429.979945 289.455617 
L 430.314999 289.057051 
L 430.650054 287.740424 
L 430.985109 289.000161 
L 431.320163 289.71879 
L 431.655218 291.342791 
L 431.990273 290.165296 
L 432.325327 291.637138 
L 432.660382 291.571093 
L 432.995437 290.446674 
L 433.330491 291.522316 
L 433.665546 287.337289 
L 434.335655 291.496628 
L 434.67071 290.349041 
L 435.005764 290.42285 
L 435.340819 288.33458 
L 435.675874 288.865776 
L 436.010928 291.397719 
L 436.345983 287.728323 
L 436.681038 289.591113 
L 437.016092 289.541653 
L 437.351147 291.803143 
L 437.686202 287.80209 
L 438.021256 292.119562 
L 438.356311 292.332396 
L 438.691365 291.463275 
L 439.02642 290.082415 
L 439.361475 289.25226 
L 440.366639 293.825466 
L 440.701693 291.246881 
L 441.036748 293.68425 
L 441.371803 289.995876 
L 441.706857 288.539173 
L 442.376966 291.46903 
L 442.712021 293.589928 
L 443.047076 290.018008 
L 443.38213 292.632016 
L 443.717185 291.543504 
L 444.05224 293.749865 
L 444.387294 290.567371 
L 444.722349 289.439889 
L 445.057404 285.293632 
L 445.392458 292.005752 
L 445.727513 288.988371 
L 446.397622 291.129386 
L 446.732677 290.35813 
L 447.067731 288.583305 
L 447.737841 293.584185 
L 448.072895 288.172598 
L 448.40795 291.718048 
L 448.743005 287.825633 
L 449.078059 290.388525 
L 449.413114 290.143902 
L 449.748169 289.095986 
L 450.083223 290.071908 
L 450.418278 290.335661 
L 450.753333 286.590896 
L 451.088387 295.442477 
L 451.423442 293.966038 
L 451.758496 288.045162 
L 452.093551 287.168038 
L 452.428606 291.895234 
L 452.76366 291.886734 
L 453.098715 289.651742 
L 453.43377 293.878339 
L 453.768824 290.735482 
L 454.103879 290.060517 
L 454.438934 290.66859 
L 454.773988 292.557024 
L 455.109043 290.221161 
L 455.444098 286.317687 
L 456.114207 295.011123 
L 456.784316 285.303802 
L 457.119371 290.355439 
L 457.454425 291.870138 
L 457.78948 286.572073 
L 458.124535 293.413108 
L 458.459589 291.940577 
L 458.794644 289.468808 
L 459.129699 294.188508 
L 459.464753 288.194182 
L 459.799808 295.477141 
L 460.134862 290.303427 
L 460.469917 290.171124 
L 460.804972 291.718697 
L 461.140026 290.404449 
L 461.475081 289.923028 
L 461.810136 293.564719 
L 462.14519 289.837083 
L 462.480245 290.39422 
L 462.8153 292.307848 
L 463.150354 289.812009 
L 463.820464 294.927043 
L 464.155518 293.687283 
L 464.490573 290.447195 
L 464.825627 292.634254 
L 465.160682 289.935424 
L 465.495737 293.330409 
L 465.830791 292.818826 
L 466.165846 294.608011 
L 466.500901 292.491725 
L 466.835955 297.064236 
L 467.506065 291.529676 
L 467.841119 290.905568 
L 468.176174 293.985334 
L 468.511229 290.198906 
L 468.846283 292.203665 
L 469.181338 292.05495 
L 469.516392 291.026795 
L 469.851447 291.319298 
L 470.186502 290.815566 
L 470.521556 292.175287 
L 470.856611 291.166433 
L 471.191666 291.422674 
L 471.52672 290.829563 
L 471.861775 292.054589 
L 472.19683 287.522302 
L 472.531884 289.725212 
L 472.866939 289.324564 
L 473.201994 295.9862 
L 473.537048 291.429903 
L 473.872103 288.887785 
L 474.207157 291.719432 
L 474.542212 293.500897 
L 474.877267 290.0757 
L 475.212321 291.066243 
L 475.547376 289.658843 
L 475.882431 292.294686 
L 476.217485 290.374046 
L 476.55254 291.673537 
L 476.887595 285.769136 
L 477.222649 293.88545 
L 477.557704 287.508792 
L 477.892758 291.79775 
L 478.227813 292.423348 
L 478.562868 289.192068 
L 478.897922 295.003615 
L 479.232977 288.242797 
L 479.568032 289.22774 
L 479.903086 295.185234 
L 480.238141 293.953498 
L 480.573196 293.686478 
L 480.90825 292.105599 
L 481.243305 291.119845 
L 481.57836 289.280804 
L 481.913414 289.35508 
L 482.248469 296.913836 
L 482.583523 293.03718 
L 482.918578 292.243341 
L 483.253633 295.764998 
L 483.923742 293.480574 
L 484.258797 294.866105 
L 484.928906 293.828119 
L 485.263961 297.379867 
L 485.93407 291.319305 
L 486.269125 287.084947 
L 486.604179 288.250608 
L 487.274288 293.212063 
L 487.609343 294.027478 
L 487.944398 294.41261 
L 488.279452 292.723039 
L 488.614507 291.781045 
L 488.949562 292.058235 
L 489.284616 294.131315 
L 489.619671 293.034922 
L 489.954726 290.987659 
L 490.624835 294.368316 
L 490.95989 286.23179 
L 491.294944 296.717724 
L 491.629999 293.107573 
L 491.965053 294.37958 
L 492.300108 290.551727 
L 492.635163 293.202079 
L 492.970217 293.305033 
L 493.305272 292.908074 
L 493.975381 293.922463 
L 494.310436 290.804881 
L 494.645491 298.696679 
L 494.980545 293.333275 
L 495.3156 293.3986 
L 495.650654 294.708613 
L 495.985709 289.464436 
L 496.655818 294.716159 
L 496.990873 292.630062 
L 497.325928 295.808747 
L 497.660982 291.667875 
L 497.996037 291.034981 
L 498.331092 291.816035 
L 498.666146 293.053352 
L 499.001201 292.678502 
L 499.336256 295.096385 
L 499.67131 294.834641 
L 500.006365 293.776342 
L 500.341419 293.344714 
L 500.676474 289.960221 
L 501.011529 290.246678 
L 501.346583 294.247348 
L 501.681638 292.642157 
L 502.016693 296.278982 
L 502.351747 290.638885 
L 502.686802 296.201434 
L 503.356911 292.215891 
L 503.691966 294.730442 
L 504.027021 294.296557 
L 504.362075 294.910164 
L 504.69713 294.723417 
L 505.032184 291.732885 
L 505.367239 295.811455 
L 505.702294 294.829198 
L 506.037348 294.307758 
L 506.372403 296.180823 
L 506.707458 293.039509 
L 507.042512 293.376675 
L 507.377567 297.141909 
L 507.712622 294.918963 
L 508.047676 289.650121 
L 508.382731 295.700698 
L 508.717786 292.310781 
L 509.05284 294.819646 
L 509.387895 290.807396 
L 509.722949 296.593731 
L 510.058004 292.590436 
L 510.393059 293.751294 
L 511.063168 294.312172 
L 511.398223 294.280101 
L 511.733277 293.968869 
L 512.068332 294.187284 
L 512.403387 296.360171 
L 512.738441 291.081094 
L 513.073496 292.506708 
L 513.40855 295.027642 
L 513.743605 291.925475 
L 514.07866 294.921445 
L 514.413714 296.567829 
L 514.748769 291.757789 
L 515.418878 296.371039 
L 515.753933 292.954307 
L 516.088988 292.457145 
L 516.424042 294.938157 
L 516.759097 295.910913 
L 517.094152 292.101679 
L 517.429206 292.220886 
L 517.764261 296.10511 
L 518.099315 298.078442 
L 518.43437 294.133221 
L 518.769425 298.474763 
L 519.104479 291.448253 
L 519.439534 298.463855 
L 519.774589 294.876335 
L 520.109643 294.640267 
L 520.444698 291.389042 
L 520.779753 297.076953 
L 521.114807 298.861402 
L 521.449862 294.181031 
L 521.784917 297.94596 
L 522.455026 293.003249 
L 522.79008 298.181276 
L 523.125135 298.772408 
L 523.46019 293.472939 
L 523.795244 296.790074 
L 524.130299 294.916182 
L 524.465354 291.687557 
L 524.800408 292.258609 
L 525.135463 298.456844 
L 525.470518 291.838288 
L 525.805572 295.318029 
L 526.140627 293.053049 
L 526.475682 292.969912 
L 526.810736 294.578242 
L 527.145791 294.439009 
L 527.480845 290.458153 
L 527.8159 295.042353 
L 528.150955 294.675594 
L 528.821064 292.944364 
L 529.156119 296.049458 
L 529.491173 290.658282 
L 529.826228 297.777765 
L 530.161283 294.683774 
L 530.496337 297.833352 
L 530.831392 298.270512 
L 531.166446 297.198837 
L 531.501501 297.379144 
L 531.836556 296.58224 
L 532.17161 292.027661 
L 532.506665 291.486907 
L 532.84172 298.43761 
L 533.511829 293.687964 
L 533.846884 299.283108 
L 534.516993 296.402778 
L 534.852048 297.628213 
L 535.187102 292.729584 
L 535.522157 292.015213 
L 535.857211 296.284117 
L 536.192266 291.184948 
L 536.527321 297.295028 
L 536.862375 297.157771 
L 537.19743 292.627863 
L 537.532485 295.66622 
L 537.867539 292.424022 
L 538.202594 295.540781 
L 538.537649 300.985211 
L 538.872703 296.453632 
L 539.207758 295.605557 
L 539.542813 296.660063 
L 539.877867 295.795682 
L 540.212922 291.300761 
L 540.547976 291.707506 
L 540.883031 296.946221 
L 541.218086 292.036913 
L 541.55314 293.6941 
L 541.888195 296.186043 
L 542.22325 296.498515 
L 542.558304 297.151514 
L 542.893359 293.731187 
L 543.228414 296.030967 
L 543.563468 296.492587 
L 543.898523 295.549633 
L 544.233578 299.699968 
L 544.568632 295.603878 
L 544.903687 295.29952 
L 545.238741 293.580578 
L 545.573796 295.019624 
L 545.908851 298.598332 
L 546.243905 296.764676 
L 546.57896 297.324192 
L 546.914015 295.806908 
L 547.584124 299.783019 
L 547.919179 293.816236 
L 548.254233 295.82904 
L 548.589288 295.004558 
L 548.924343 300.027526 
L 549.259397 297.121386 
L 549.594452 297.730325 
L 549.929506 294.861357 
L 550.264561 298.676813 
L 550.599616 297.930332 
L 550.93467 294.105871 
L 551.269725 293.686835 
L 551.60478 295.414416 
L 551.939834 295.485889 
L 552.274889 294.291763 
L 552.609944 294.583841 
L 552.944998 294.331708 
L 553.280053 294.672252 
L 553.615107 296.377869 
L 554.285217 296.47555 
L 554.620271 295.61623 
L 554.955326 295.673986 
L 555.290381 296.619877 
L 555.625435 299.289424 
L 555.96049 297.326693 
L 556.295545 296.528551 
L 556.630599 294.535184 
L 556.965654 295.276126 
L 557.300709 296.611522 
L 557.970818 294.594249 
L 558.305872 292.690019 
L 558.640927 295.695256 
L 558.975982 295.236482 
L 559.311036 296.08069 
L 559.646091 294.242974 
L 559.981146 295.387911 
L 560.3162 295.673779 
L 560.651255 294.922606 
L 560.98631 295.369167 
L 561.321364 294.570558 
L 561.656419 290.447781 
L 561.991474 297.88441 
L 562.326528 291.831208 
L 562.661583 291.460102 
L 562.996637 292.36648 
L 563.331692 296.805234 
L 563.666747 296.031757 
L 564.001801 297.708382 
L 564.336856 295.473126 
L 564.671911 298.31632 
L 565.006965 290.795645 
L 565.34202 299.211943 
L 565.677075 294.68868 
L 566.012129 299.512999 
L 566.347184 297.43047 
L 566.682239 299.418924 
L 567.017293 296.811186 
L 567.352348 299.161597 
L 567.687402 298.697237 
L 568.022457 294.902898 
L 568.357512 300.518586 
L 568.692566 296.782636 
L 569.027621 299.11519 
L 569.362676 299.712042 
L 570.032785 291.896926 
L 570.36784 300.980106 
L 570.702894 296.376542 
L 571.037949 296.56966 
L 571.373003 301.472351 
L 571.708058 295.004904 
L 572.043113 295.427719 
L 572.378167 297.716703 
L 572.713222 297.308042 
L 573.048277 295.76045 
L 573.383331 292.328861 
L 573.718386 294.775184 
L 574.053441 293.086619 
L 574.388495 294.128129 
L 574.72355 297.036468 
L 575.058605 297.663062 
L 575.393659 297.463092 
L 575.728714 295.744442 
L 576.063768 299.880699 
L 576.398823 296.032558 
L 576.733878 299.180402 
L 577.068932 299.874719 
L 577.403987 297.153971 
L 577.739042 296.760586 
L 578.074096 299.589524 
L 578.409151 296.113702 
L 579.07926 296.421239 
L 579.414315 298.633418 
L 579.74937 296.761396 
L 580.084424 300.504163 
L 580.419479 299.493932 
L 580.754533 296.25872 
L 581.089588 299.492965 
L 581.424643 294.100432 
L 581.759697 297.509466 
L 582.094752 296.427317 
L 582.429807 296.39667 
L 582.764861 301.306045 
L 583.099916 299.399059 
L 583.434971 302.575668 
L 583.770025 297.854158 
L 584.440135 300.295838 
L 584.775189 294.002728 
L 585.445298 299.003137 
L 585.780353 293.977842 
L 586.115408 295.493435 
L 586.450462 297.809943 
L 587.120572 294.509411 
L 587.455626 297.872483 
L 587.790681 299.676325 
L 588.125736 295.087329 
L 588.46079 301.453605 
L 588.795845 299.635548 
L 589.130899 295.994969 
L 589.465954 298.376525 
L 589.801009 294.193264 
L 590.136063 299.851071 
L 590.471118 301.697294 
L 590.806173 296.672434 
L 591.141227 297.753729 
L 591.476282 293.783688 
L 591.811337 299.368282 
L 592.146391 294.237652 
L 592.816501 298.783954 
L 593.151555 294.752232 
L 593.48661 298.568198 
L 593.821664 294.037593 
L 594.156719 299.783105 
L 594.491774 300.025052 
L 594.826828 297.280818 
L 595.161883 301.104666 
L 595.496938 299.119169 
L 595.831992 295.839461 
L 596.167047 299.591722 
L 596.502102 295.262068 
L 596.837156 295.871098 
L 597.507266 299.60374 
L 597.84232 295.55562 
L 598.177375 298.109237 
L 598.512429 298.829312 
L 598.847484 298.673842 
L 599.182539 297.902534 
L 599.852648 300.940351 
L 600.187703 297.810031 
L 600.522757 297.403326 
L 600.857812 294.488024 
L 601.192867 293.428955 
L 601.527921 298.762432 
L 601.862976 295.892333 
L 602.198031 296.694527 
L 602.533085 294.913454 
L 602.86814 296.129517 
L 603.203194 294.898839 
L 603.538249 295.937761 
L 603.873304 295.758759 
L 604.208358 299.389095 
L 604.543413 300.317993 
L 604.878468 295.817117 
L 605.548577 300.388031 
L 605.883632 294.021611 
L 606.218686 295.172406 
L 606.553741 298.929382 
L 606.888795 297.859262 
L 607.22385 293.702439 
L 607.558905 297.607453 
L 607.893959 299.519065 
L 608.229014 299.412841 
L 608.564069 293.547993 
L 608.899123 297.640013 
L 609.234178 294.379844 
L 609.569233 298.913128 
L 609.904287 294.670006 
L 610.574397 302.027257 
L 610.909451 298.891933 
L 611.244506 292.971736 
L 611.57956 297.16044 
L 611.914615 297.282386 
L 612.24967 291.919285 
L 612.584724 300.550552 
L 613.254834 294.780202 
L 613.589888 299.481348 
L 613.924943 294.241815 
L 614.259998 295.614317 
L 614.595052 295.771644 
L 614.930107 293.31638 
L 615.265162 296.498744 
L 615.600216 297.027576 
L 615.935271 296.408475 
L 616.270325 297.586424 
L 616.60538 302.645455 
L 616.940435 298.606599 
L 617.275489 297.665271 
L 617.610544 300.771859 
L 617.945599 298.457858 
L 618.280653 300.372933 
L 618.615708 299.507145 
L 618.950763 296.369989 
L 619.285817 297.037629 
L 619.620872 298.453001 
L 619.955927 297.238805 
L 620.290981 299.644143 
L 620.626036 296.495711 
L 620.96109 298.338155 
L 621.296145 298.071975 
L 621.6312 296.719163 
L 621.966254 298.34053 
L 622.301309 297.036005 
L 622.636364 297.557261 
L 622.636364 297.557261 
" style="fill:none;stroke:#1f77b4;stroke-linecap:square;stroke-width:0.5;"/>
   </g>
   <g id="line2d_30">
    <path clip-path="url(#p39f237f624)" d="M 115.363636 61.873589 
L 115.698691 69.43948 
L 116.033746 71.557049 
L 116.3688 75.503722 
L 116.703855 74.709341 
L 117.03891 80.14349 
L 117.373964 81.775786 
L 117.709019 78.093844 
L 118.714183 83.883096 
L 119.049237 82.159248 
L 119.384292 82.392529 
L 119.719347 87.578499 
L 120.054401 83.930819 
L 120.389456 83.889934 
L 120.724511 82.676085 
L 121.059565 86.694594 
L 121.39462 86.337894 
L 121.729675 87.652679 
L 122.064729 86.311975 
L 122.399784 87.405899 
L 122.734838 89.43421 
L 123.069893 90.488854 
L 123.404948 89.616227 
L 123.740002 92.002689 
L 124.075057 89.606208 
L 124.410112 92.603368 
L 124.745166 91.931691 
L 125.080221 93.573459 
L 125.415276 95.895845 
L 125.75033 95.004366 
L 126.42044 97.751326 
L 126.755494 95.879999 
L 127.090549 95.951205 
L 127.425603 97.526254 
L 127.760658 101.192461 
L 128.095713 102.466677 
L 128.430767 102.638708 
L 128.765822 103.102109 
L 129.100877 104.066094 
L 129.435931 107.419947 
L 129.770986 108.122914 
L 130.106041 110.425501 
L 130.441095 109.84631 
L 130.77615 111.735423 
L 131.111205 116.22248 
L 131.446259 115.537272 
L 132.786478 130.70865 
L 133.121532 128.634534 
L 133.791642 139.273617 
L 134.126696 136.916155 
L 134.796806 145.692752 
L 135.13186 146.006096 
L 136.137024 158.499336 
L 136.472079 158.128888 
L 136.807133 158.727643 
L 137.142188 163.044681 
L 137.477243 163.861805 
L 137.812297 168.034908 
L 138.147352 164.910957 
L 138.482407 167.906479 
L 138.817461 173.558547 
L 139.152516 173.816404 
L 139.487571 176.488931 
L 139.822625 177.493666 
L 140.15768 182.246309 
L 140.492734 180.814051 
L 140.827789 178.704526 
L 141.162844 182.812555 
L 141.497898 183.080223 
L 141.832953 186.354794 
L 142.168008 185.620533 
L 142.503062 185.492346 
L 142.838117 185.040381 
L 143.173172 189.076645 
L 143.508226 183.74865 
L 143.843281 191.496455 
L 144.178336 190.455105 
L 144.51339 194.166951 
L 144.848445 190.239309 
L 145.183499 191.701675 
L 145.518554 196.685021 
L 145.853609 197.1943 
L 146.188663 199.014319 
L 146.523718 195.781624 
L 146.858773 199.606386 
L 147.193827 200.959715 
L 147.528882 199.474136 
L 147.863937 200.317522 
L 148.198991 195.864232 
L 148.869101 199.211541 
L 149.204155 197.086512 
L 149.53921 201.056191 
L 149.874264 199.910241 
L 150.209319 198.356439 
L 150.544374 205.096391 
L 150.879428 204.10918 
L 151.214483 204.508113 
L 151.549538 201.652496 
L 151.884592 203.343716 
L 152.219647 198.769865 
L 152.554702 205.407293 
L 152.889756 202.564401 
L 153.224811 208.251958 
L 153.559865 199.695028 
L 153.89492 205.285929 
L 154.565029 208.580268 
L 154.900084 206.508293 
L 155.570193 208.016316 
L 155.905248 208.98816 
L 156.240303 205.070086 
L 156.575357 210.553699 
L 156.910412 211.705935 
L 157.580521 207.87579 
L 157.915576 213.760093 
L 158.25063 211.162845 
L 158.585685 207.131174 
L 158.92074 213.930976 
L 159.255794 214.216243 
L 159.590849 208.638637 
L 159.925904 207.784855 
L 160.260958 213.974841 
L 160.596013 215.594725 
L 160.931068 215.171554 
L 161.266122 215.87398 
L 161.601177 212.780037 
L 161.936232 214.235087 
L 162.271286 213.255181 
L 162.606341 213.102205 
L 162.941395 213.916799 
L 163.611505 216.100584 
L 163.946559 215.675177 
L 164.281614 217.725192 
L 164.616669 213.735749 
L 164.951723 214.624274 
L 165.286778 219.413604 
L 165.621833 215.785807 
L 165.956887 217.383484 
L 166.291942 220.861923 
L 166.626997 212.940476 
L 166.962051 219.083624 
L 167.297106 218.808422 
L 167.63216 215.401489 
L 167.967215 221.960388 
L 168.30227 221.214502 
L 168.637324 218.131637 
L 168.972379 223.039991 
L 169.307434 220.022312 
L 169.642488 221.854287 
L 169.977543 220.861161 
L 170.312598 223.708688 
L 170.647652 223.012087 
L 170.982707 219.811494 
L 171.317761 221.264889 
L 171.652816 224.04022 
L 171.987871 222.88194 
L 172.322925 220.626832 
L 172.65798 224.462157 
L 172.993035 221.518776 
L 173.328089 222.624143 
L 173.663144 222.686572 
L 173.998199 219.396833 
L 174.333253 223.170692 
L 174.668308 222.113218 
L 175.338417 218.635799 
L 175.673472 224.397817 
L 176.008526 225.026679 
L 176.343581 224.555274 
L 176.678636 224.815074 
L 177.01369 230.750868 
L 177.6838 223.348849 
L 178.018854 227.795825 
L 178.353909 226.804931 
L 178.688964 227.037644 
L 179.024018 224.006838 
L 179.694128 230.109157 
L 180.029182 226.389393 
L 180.364237 224.23858 
L 180.699291 228.134228 
L 181.034346 222.602122 
L 181.704455 228.531662 
L 182.03951 225.038209 
L 182.374565 226.13042 
L 182.709619 226.747366 
L 183.044674 229.614507 
L 183.714783 225.358533 
L 184.049838 229.231791 
L 184.384893 230.269008 
L 184.719947 227.138342 
L 185.055002 230.221858 
L 185.390056 229.034538 
L 186.060166 230.807086 
L 186.39522 230.421402 
L 186.730275 233.773146 
L 187.400384 231.699784 
L 187.735439 231.970868 
L 188.070494 234.943648 
L 188.740603 232.19148 
L 189.075657 232.107969 
L 189.410712 231.028508 
L 189.745767 233.832171 
L 190.080821 231.272758 
L 190.415876 230.358443 
L 190.750931 233.458183 
L 191.085985 232.357777 
L 191.42104 235.427523 
L 191.756095 234.56335 
L 192.091149 232.500898 
L 192.426204 236.588684 
L 192.761259 237.746338 
L 193.096313 233.25224 
L 193.431368 236.901857 
L 193.766422 237.225442 
L 194.101477 233.678429 
L 194.436532 232.25181 
L 194.771586 238.033354 
L 195.106641 236.034353 
L 195.441696 236.997729 
L 195.77675 237.057684 
L 196.111805 235.771185 
L 196.44686 240.444365 
L 196.781914 236.786249 
L 197.116969 236.253183 
L 197.452024 238.867101 
L 197.787078 238.566378 
L 198.122133 234.715873 
L 198.457187 240.359893 
L 198.792242 236.965842 
L 199.127297 235.123875 
L 199.462351 239.411499 
L 199.797406 238.298622 
L 200.132461 231.118985 
L 200.467515 239.268712 
L 200.80257 239.081828 
L 201.472679 240.273712 
L 201.807734 236.380032 
L 202.142789 240.723899 
L 202.477843 240.84096 
L 202.812898 238.450262 
L 203.147952 237.816442 
L 203.483007 238.271396 
L 203.818062 244.190614 
L 204.153116 241.026207 
L 204.488171 242.547397 
L 204.823226 237.50397 
L 205.15828 246.017974 
L 205.493335 239.623848 
L 205.82839 240.857912 
L 206.163444 244.476314 
L 206.498499 241.81721 
L 206.833554 243.522304 
L 207.168608 241.896459 
L 207.503663 241.089722 
L 207.838717 244.148009 
L 208.173772 243.823691 
L 208.508827 246.757836 
L 208.843881 244.963725 
L 209.178936 247.445908 
L 209.513991 238.895457 
L 210.1841 247.10359 
L 210.519155 242.217832 
L 211.189264 248.41393 
L 211.524318 247.655249 
L 211.859373 246.57112 
L 212.194428 248.13805 
L 212.529482 247.000552 
L 212.864537 247.444429 
L 213.199592 243.875028 
L 213.869701 248.195949 
L 214.204756 246.669455 
L 214.874865 251.221601 
L 215.20992 248.689876 
L 215.544974 249.015316 
L 215.880029 249.096043 
L 216.215083 250.619916 
L 216.550138 249.73887 
L 216.885193 247.684969 
L 217.220247 250.126684 
L 217.555302 253.5952 
L 217.890357 251.214215 
L 218.225411 245.095717 
L 218.560466 244.673184 
L 218.895521 251.844349 
L 219.230575 246.753317 
L 219.56563 246.969433 
L 220.235739 255.773804 
L 220.570794 247.166763 
L 220.905848 253.494743 
L 221.240903 252.899692 
L 221.575958 249.231122 
L 221.911012 248.980597 
L 222.246067 252.823917 
L 222.581122 247.903879 
L 222.916176 246.683672 
L 223.251231 251.458635 
L 223.586286 253.059851 
L 223.92134 253.336501 
L 224.256395 248.995704 
L 224.59145 254.088573 
L 224.926504 255.694205 
L 225.261559 253.333185 
L 225.596613 255.617498 
L 225.931668 255.282917 
L 226.266723 252.173976 
L 226.601777 255.943611 
L 226.936832 257.294646 
L 227.271887 257.40586 
L 227.606941 257.071172 
L 227.941996 254.688674 
L 228.277051 259.259827 
L 228.612105 257.216785 
L 228.94716 256.787978 
L 229.282214 257.097808 
L 229.617269 255.969318 
L 229.952324 255.481687 
L 230.287378 260.341818 
L 230.622433 259.708016 
L 230.957488 255.959713 
L 231.292542 257.53896 
L 231.627597 258.429327 
L 231.962652 261.150491 
L 232.297706 256.795428 
L 232.632761 260.170614 
L 232.967816 255.582555 
L 233.637925 261.947312 
L 233.972979 256.114963 
L 234.643089 259.211083 
L 234.978143 263.326916 
L 235.313198 258.255566 
L 235.648253 259.027288 
L 235.983307 261.025366 
L 236.318362 260.562579 
L 236.653417 262.498094 
L 236.988471 259.648382 
L 237.323526 265.46852 
L 237.993635 259.797268 
L 238.32869 258.649761 
L 238.663744 259.138209 
L 238.998799 262.388494 
L 239.333854 262.906047 
L 240.339018 263.625217 
L 240.674072 261.381192 
L 241.009127 263.643298 
L 241.344182 260.85005 
L 241.679236 264.192829 
L 242.014291 265.231352 
L 242.349346 259.765257 
L 242.6844 264.531967 
L 243.019455 265.142357 
L 243.354509 262.604918 
L 244.024619 270.256151 
L 244.359673 260.465052 
L 244.694728 260.218088 
L 245.029783 261.572463 
L 245.364837 264.204712 
L 245.699892 262.137209 
L 246.370001 264.432492 
L 246.705056 263.509639 
L 247.04011 265.797514 
L 247.375165 265.194319 
L 247.71022 266.256847 
L 248.045274 264.77916 
L 248.380329 267.857477 
L 248.715384 261.259111 
L 249.050438 263.91885 
L 249.720548 266.571887 
L 250.390657 266.390914 
L 250.725712 263.894486 
L 251.060766 268.711992 
L 251.395821 267.326129 
L 251.730875 266.885003 
L 252.400985 263.69085 
L 252.736039 266.386141 
L 253.406149 267.940202 
L 253.741203 266.058173 
L 254.076258 267.116258 
L 254.411313 270.513659 
L 254.746367 266.054401 
L 255.081422 266.16021 
L 255.416477 270.176432 
L 255.751531 267.768128 
L 256.086586 267.677353 
L 256.42164 266.569088 
L 256.756695 267.802668 
L 257.09175 270.432837 
L 257.426804 270.373759 
L 257.761859 266.893495 
L 258.096914 266.275168 
L 258.431968 268.286992 
L 258.767023 266.137285 
L 259.102078 265.953141 
L 259.437132 264.081654 
L 259.772187 268.69477 
L 260.107242 267.196462 
L 260.442296 261.803324 
L 260.777351 271.928743 
L 261.112405 270.504471 
L 261.782515 264.171942 
L 262.117569 270.507524 
L 262.452624 269.512757 
L 262.787679 270.219102 
L 263.122733 270.392139 
L 263.457788 271.520929 
L 263.792843 269.263479 
L 264.127897 272.947131 
L 264.462952 270.301362 
L 264.798006 271.008846 
L 265.133061 268.282223 
L 265.468116 271.886474 
L 265.80317 269.694567 
L 266.138225 268.307579 
L 266.808334 272.649331 
L 267.143389 270.445624 
L 267.478444 271.169435 
L 267.813498 272.879498 
L 268.148553 269.609438 
L 268.483608 268.937895 
L 268.818662 266.933358 
L 269.153717 269.736243 
L 269.488771 273.686511 
L 270.158881 267.715814 
L 270.493935 271.599199 
L 270.82899 273.155562 
L 271.164045 270.739318 
L 271.499099 272.141705 
L 271.834154 269.689715 
L 272.169209 273.921519 
L 272.504263 275.729744 
L 272.839318 268.715722 
L 273.509427 275.868069 
L 273.844482 274.500566 
L 274.179536 269.921725 
L 274.849646 276.912755 
L 275.1847 270.825924 
L 275.519755 273.429241 
L 275.85481 273.379854 
L 276.189864 274.309403 
L 276.524919 269.574094 
L 276.859974 270.258863 
L 277.195028 271.909882 
L 277.530083 271.430806 
L 277.865138 273.526674 
L 278.200192 269.584797 
L 278.535247 270.170879 
L 278.870301 273.107826 
L 279.205356 271.324443 
L 279.540411 271.959018 
L 280.21052 276.425917 
L 280.545575 276.026549 
L 280.880629 274.537171 
L 281.215684 274.188026 
L 281.550739 271.707571 
L 281.885793 275.338204 
L 282.555902 270.479106 
L 283.226012 278.228038 
L 283.561066 271.006888 
L 283.896121 272.067175 
L 284.231176 274.445279 
L 284.56623 277.658087 
L 284.901285 274.805263 
L 285.23634 274.887915 
L 285.571394 274.290057 
L 285.906449 267.044889 
L 286.241504 273.283652 
L 286.576558 274.467863 
L 286.911613 270.237142 
L 287.246667 276.467909 
L 287.581722 278.499157 
L 287.916777 269.374938 
L 288.251831 272.038314 
L 288.921941 272.911648 
L 289.256995 276.271568 
L 289.59205 274.378679 
L 289.927105 278.6247 
L 290.262159 268.330332 
L 290.597214 272.594041 
L 290.932269 273.612636 
L 291.267323 274.118292 
L 291.602378 273.957021 
L 291.937432 276.696036 
L 292.272487 274.800288 
L 292.607542 268.449861 
L 292.942596 278.293611 
L 293.277651 275.903506 
L 293.612706 272.502354 
L 293.94776 271.873598 
L 294.282815 275.781911 
L 294.61787 278.319921 
L 294.952924 275.990811 
L 295.287979 277.946327 
L 295.623034 272.40406 
L 295.958088 270.487999 
L 296.293143 273.772639 
L 296.628197 278.357662 
L 296.963252 276.359438 
L 297.298307 276.976667 
L 297.633361 274.606961 
L 297.968416 276.808354 
L 298.303471 280.075535 
L 298.638525 279.410854 
L 298.97358 276.873909 
L 299.308635 281.037546 
L 299.643689 271.87963 
L 299.978744 270.988892 
L 300.313798 278.261069 
L 300.648853 275.124099 
L 300.983908 277.040351 
L 301.318962 274.256309 
L 301.654017 274.222403 
L 301.989072 277.316787 
L 302.324126 269.880781 
L 302.659181 279.463599 
L 302.994236 280.728439 
L 303.32929 277.007566 
L 303.664345 274.570453 
L 303.9994 278.96859 
L 304.334454 279.236513 
L 304.669509 277.798828 
L 305.004563 274.19361 
L 305.339618 277.080833 
L 305.674673 277.803629 
L 306.009727 280.140448 
L 306.344782 280.568016 
L 306.679837 280.026135 
L 307.014891 281.53526 
L 307.349946 278.042732 
L 307.685001 277.169733 
L 308.020055 278.201882 
L 308.35511 280.761013 
L 308.690165 275.210155 
L 309.025219 278.303821 
L 309.360274 276.197453 
L 309.695328 275.483911 
L 310.030383 277.448435 
L 310.365438 283.48566 
L 310.700492 278.545924 
L 311.035547 276.746693 
L 311.370602 276.20379 
L 311.705656 277.754633 
L 312.375766 276.223757 
L 312.71082 278.87777 
L 313.045875 278.762261 
L 313.38093 277.015804 
L 313.715984 277.288442 
L 314.051039 273.779903 
L 314.386093 279.064723 
L 314.721148 278.012727 
L 315.056203 278.720502 
L 315.391257 279.088837 
L 315.726312 277.183796 
L 316.061367 279.23991 
L 316.396421 279.3657 
L 316.731476 280.098138 
L 317.066531 278.956799 
L 317.401585 280.754431 
L 317.73664 277.731991 
L 318.071694 280.940317 
L 318.406749 277.345633 
L 318.741804 276.821657 
L 319.076858 284.060543 
L 319.411913 278.304502 
L 319.746968 280.56481 
L 320.082022 280.811551 
L 320.417077 276.006405 
L 320.752132 276.480274 
L 321.087186 279.587208 
L 321.422241 280.019273 
L 321.757296 279.212243 
L 322.09235 275.29652 
L 322.427405 282.03738 
L 322.762459 280.129551 
L 323.097514 276.798866 
L 323.432569 278.281845 
L 324.102678 286.223412 
L 324.437733 280.773378 
L 324.772787 279.685353 
L 325.107842 277.074667 
L 325.777951 282.716382 
L 326.113006 280.241284 
L 326.448061 282.284954 
L 326.783115 279.121209 
L 327.11817 280.465948 
L 327.453224 279.357307 
L 327.788279 281.373111 
L 328.123334 276.843068 
L 328.458388 279.447508 
L 328.793443 283.867096 
L 329.128498 276.631128 
L 329.463552 276.369861 
L 329.798607 279.791535 
L 330.468716 277.789216 
L 330.803771 280.635629 
L 331.138826 279.826192 
L 331.47388 280.168742 
L 331.808935 277.934984 
L 332.143989 281.243285 
L 332.479044 280.812602 
L 332.814099 278.436397 
L 333.149153 280.459096 
L 333.484208 279.648248 
L 333.819263 277.549649 
L 334.824427 286.425083 
L 335.159481 279.559443 
L 335.494536 279.346563 
L 335.82959 279.431798 
L 336.164645 280.914992 
L 336.4997 281.675777 
L 336.834754 283.662837 
L 337.169809 280.670521 
L 337.504864 282.230523 
L 337.839918 281.577242 
L 338.174973 280.049612 
L 338.510028 279.573034 
L 338.845082 280.436993 
L 339.180137 279.407278 
L 339.515192 283.443477 
L 339.850246 278.302302 
L 340.185301 280.180618 
L 340.520355 280.939968 
L 340.85541 284.932805 
L 341.190465 281.38838 
L 341.525519 282.966253 
L 341.860574 286.34583 
L 342.195629 284.696451 
L 342.530683 279.937374 
L 342.865738 282.147475 
L 343.200793 283.359077 
L 343.535847 282.873682 
L 343.870902 281.576729 
L 344.205957 282.536906 
L 344.541011 278.540762 
L 344.876066 277.19863 
L 345.21112 283.350067 
L 345.546175 276.790634 
L 345.88123 283.278482 
L 346.216284 281.188774 
L 346.551339 283.558066 
L 346.886394 284.122959 
L 347.221448 283.714522 
L 347.556503 283.97901 
L 347.891558 283.360354 
L 348.226612 285.06442 
L 348.561667 279.182416 
L 348.896722 278.012593 
L 349.231776 281.755787 
L 349.566831 281.651056 
L 349.901885 280.214302 
L 350.23694 280.451038 
L 350.571995 280.527501 
L 350.907049 282.934637 
L 351.242104 283.004056 
L 351.577159 278.759925 
L 351.912213 282.003639 
L 352.247268 278.544585 
L 352.582323 281.790814 
L 352.917377 279.02513 
L 353.587486 283.327714 
L 353.922541 286.933847 
L 354.257596 281.546617 
L 354.59265 281.037278 
L 355.26276 284.156232 
L 355.597814 279.969703 
L 356.267924 281.309457 
L 356.602978 281.360963 
L 356.938033 282.579908 
L 357.273088 285.049555 
L 357.943197 284.368694 
L 358.278251 285.968269 
L 358.613306 281.485826 
L 358.948361 280.017623 
L 359.283415 280.172517 
L 359.61847 284.753319 
L 359.953525 283.487734 
L 360.288579 278.305238 
L 360.623634 281.576284 
L 360.958689 282.095146 
L 361.293743 284.155631 
L 361.963853 279.075128 
L 362.633962 282.328489 
L 362.969016 282.470249 
L 363.304071 279.107442 
L 363.639126 282.193813 
L 363.97418 283.464839 
L 364.309235 281.140653 
L 364.979344 285.593474 
L 365.649454 281.178669 
L 365.984508 284.019395 
L 366.319563 278.879933 
L 366.654618 284.70011 
L 366.989672 279.570644 
L 367.324727 279.839367 
L 367.659781 283.137632 
L 367.994836 283.178615 
L 368.329891 282.974285 
L 368.664945 287.078838 
L 369 285.164531 
L 369.335055 282.127832 
L 369.670109 280.826902 
L 370.005164 284.784341 
L 370.675273 280.921171 
L 371.010328 281.680559 
L 371.345382 281.682481 
L 371.680437 284.396672 
L 372.015492 281.834296 
L 372.350546 281.571461 
L 372.685601 287.902794 
L 373.020656 283.13043 
L 373.35571 287.142831 
L 373.690765 284.199095 
L 374.02582 282.828852 
L 374.360874 283.89782 
L 374.695929 281.284524 
L 375.030984 285.092627 
L 375.366038 284.822614 
L 375.701093 283.015351 
L 376.036147 282.859777 
L 376.371202 285.176946 
L 377.041311 284.046036 
L 377.376366 287.865945 
L 377.711421 282.494042 
L 378.046475 284.11876 
L 378.38153 283.865059 
L 378.716585 286.934806 
L 379.386694 283.215885 
L 379.721749 283.59915 
L 380.056803 282.820303 
L 380.391858 284.886815 
L 380.726912 280.021206 
L 381.397022 288.168038 
L 381.732076 288.092522 
L 382.067131 284.12468 
L 382.402186 284.275322 
L 382.73724 281.328006 
L 383.072295 283.948936 
L 383.40735 278.027138 
L 383.742404 279.541461 
L 384.077459 287.526365 
L 384.412514 286.072788 
L 384.747568 281.76929 
L 385.082623 285.724195 
L 385.417677 285.059735 
L 385.752732 286.781536 
L 386.087787 280.562531 
L 386.422841 284.816316 
L 386.757896 285.091117 
L 387.092951 280.727034 
L 387.428005 283.393706 
L 387.76306 285.004316 
L 388.098115 285.732838 
L 388.433169 284.923883 
L 388.768224 285.353665 
L 389.103278 283.79571 
L 389.438333 282.95897 
L 389.773388 285.032776 
L 390.108442 284.778687 
L 390.443497 285.929221 
L 390.778552 283.997036 
L 391.113606 284.091547 
L 391.448661 283.356888 
L 391.783716 286.519741 
L 392.453825 285.039003 
L 392.78888 283.307189 
L 393.123934 284.918384 
L 393.458989 279.650283 
L 393.794043 286.42416 
L 394.129098 280.670474 
L 394.799207 284.446493 
L 395.134262 285.037265 
L 395.469317 283.561069 
L 395.804371 285.491865 
L 396.139426 283.459183 
L 396.474481 287.714685 
L 396.809535 281.795119 
L 397.14459 282.309829 
L 397.479645 283.350202 
L 397.814699 282.595738 
L 398.149754 283.067197 
L 398.819863 285.645598 
L 399.154918 284.096942 
L 399.489972 283.121329 
L 399.825027 285.44017 
L 400.160082 284.420616 
L 400.495136 281.930098 
L 401.165246 287.645621 
L 401.5003 286.155937 
L 401.835355 283.951843 
L 402.505464 284.820898 
L 402.840519 287.024072 
L 403.175573 284.741844 
L 403.510628 284.037637 
L 403.845683 286.212024 
L 404.180737 283.105466 
L 404.515792 283.540676 
L 404.850847 283.697324 
L 405.185901 287.604557 
L 405.520956 282.610535 
L 405.856011 283.584235 
L 406.191065 282.397864 
L 406.52612 282.356478 
L 406.861174 282.789194 
L 407.196229 281.67027 
L 407.531284 283.452375 
L 407.866338 288.42342 
L 408.201393 287.746933 
L 408.536448 284.206352 
L 408.871502 284.888637 
L 409.206557 283.79951 
L 409.541612 281.685746 
L 409.876666 285.917683 
L 410.211721 286.586172 
L 410.546776 281.716938 
L 410.88183 280.155314 
L 411.216885 287.306038 
L 411.551939 287.102228 
L 411.886994 283.109364 
L 412.222049 284.154298 
L 412.557103 284.340073 
L 412.892158 284.388512 
L 413.227213 286.688769 
L 413.562267 285.851528 
L 413.897322 285.644211 
L 414.232377 285.142582 
L 414.567431 286.131242 
L 414.902486 286.603769 
L 415.237541 285.300665 
L 415.572595 285.449509 
L 415.90765 283.861157 
L 416.242704 287.301992 
L 416.577759 283.755608 
L 416.912814 284.271822 
L 417.247868 285.241876 
L 417.582923 288.748617 
L 417.917978 289.227164 
L 418.253032 284.296761 
L 418.923142 286.732126 
L 419.593251 286.759577 
L 419.928306 287.384871 
L 420.26336 285.506451 
L 420.598415 288.036713 
L 420.933469 285.635141 
L 421.268524 281.20471 
L 421.603579 288.912142 
L 421.938633 284.471919 
L 422.273688 286.654135 
L 422.608743 283.539887 
L 422.943797 284.249305 
L 423.278852 282.657061 
L 423.613907 290.67356 
L 423.948961 284.665991 
L 424.284016 287.128707 
L 424.61907 285.199494 
L 425.28918 290.482316 
L 425.624234 285.794762 
L 425.959289 284.45662 
L 426.294344 287.462547 
L 426.629398 287.867746 
L 426.964453 284.452784 
L 427.299508 286.511954 
L 427.634562 286.137486 
L 427.969617 288.333415 
L 428.304672 285.456914 
L 428.639726 285.064806 
L 428.974781 284.975663 
L 429.309835 287.203337 
L 429.64489 287.828753 
L 429.979945 289.207257 
L 430.314999 285.615951 
L 430.650054 287.324448 
L 430.985109 286.578866 
L 431.320163 285.201279 
L 431.655218 284.790647 
L 431.990273 288.877226 
L 432.325327 285.278037 
L 432.660382 290.615716 
L 432.995437 288.060396 
L 433.330491 288.348177 
L 433.665546 288.336476 
L 434.335655 287.901854 
L 434.67071 285.898765 
L 435.005764 286.313348 
L 435.340819 288.315412 
L 435.675874 287.175487 
L 436.345983 280.977776 
L 436.681038 286.968167 
L 437.016092 286.236628 
L 437.351147 281.224185 
L 437.686202 287.101055 
L 438.021256 284.568333 
L 438.356311 286.697873 
L 438.691365 286.134809 
L 439.02642 281.757158 
L 439.696529 290.463351 
L 440.031584 287.870163 
L 440.366639 290.837597 
L 440.701693 284.326137 
L 441.036748 287.003392 
L 441.371803 288.540781 
L 441.706857 287.250731 
L 442.041912 287.13356 
L 442.376966 287.885377 
L 442.712021 281.763151 
L 443.047076 283.189434 
L 443.38213 286.846906 
L 443.717185 286.24858 
L 444.05224 284.044998 
L 444.387294 285.932037 
L 444.722349 280.788687 
L 445.057404 284.646879 
L 445.392458 285.684957 
L 445.727513 282.483542 
L 446.062568 281.105471 
L 446.732677 287.122973 
L 447.067731 287.256069 
L 447.737841 282.149009 
L 448.072895 282.744541 
L 448.40795 290.415915 
L 448.743005 289.087397 
L 449.413114 283.434315 
L 449.748169 287.890812 
L 450.083223 287.602383 
L 450.418278 288.493746 
L 450.753333 284.907735 
L 451.088387 285.878874 
L 451.423442 283.357077 
L 451.758496 285.327511 
L 452.093551 285.665253 
L 452.428606 285.484478 
L 452.76366 285.458914 
L 453.098715 288.492967 
L 453.43377 286.064305 
L 453.768824 286.297935 
L 454.103879 286.731629 
L 454.438934 282.787494 
L 454.773988 282.931182 
L 455.109043 287.166579 
L 455.444098 285.209714 
L 455.779152 288.19889 
L 456.449261 283.343451 
L 456.784316 287.642135 
L 457.119371 288.180836 
L 457.454425 289.855494 
L 457.78948 286.401053 
L 458.124535 285.275042 
L 458.459589 284.946224 
L 458.794644 286.206837 
L 459.129699 282.680207 
L 459.799808 289.680433 
L 460.134862 284.896697 
L 460.469917 288.363013 
L 460.804972 288.112788 
L 461.140026 287.301992 
L 461.475081 290.91454 
L 461.810136 286.845994 
L 462.14519 287.148358 
L 462.8153 285.738393 
L 463.150354 288.244747 
L 463.485409 284.873083 
L 464.155518 286.607675 
L 464.490573 289.040639 
L 464.825627 286.806199 
L 465.160682 286.711436 
L 465.495737 289.752763 
L 465.830791 287.12212 
L 466.165846 283.529903 
L 466.500901 286.459683 
L 466.835955 286.982931 
L 467.17101 290.686742 
L 467.506065 286.129673 
L 467.841119 288.076688 
L 468.176174 285.092002 
L 468.511229 287.60336 
L 469.181338 284.989748 
L 469.516392 288.971726 
L 469.851447 283.668275 
L 470.186502 287.159513 
L 470.521556 286.989897 
L 470.856611 285.127039 
L 471.191666 285.928758 
L 471.52672 289.565262 
L 472.19683 286.217039 
L 472.531884 281.241003 
L 472.866939 286.901101 
L 473.201994 288.278955 
L 473.537048 279.826607 
L 474.207157 287.744438 
L 474.542212 286.498752 
L 474.877267 289.625466 
L 475.212321 284.144102 
L 475.547376 286.230768 
L 475.882431 286.263751 
L 476.55254 287.077836 
L 476.887595 284.542927 
L 477.222649 287.608318 
L 477.557704 287.366678 
L 477.892758 285.402333 
L 478.227813 285.173094 
L 478.562868 291.279003 
L 478.897922 286.048542 
L 479.232977 285.653944 
L 479.568032 283.477051 
L 479.903086 286.890989 
L 480.238141 286.581651 
L 480.90825 285.299613 
L 481.243305 283.075756 
L 481.57836 287.769213 
L 481.913414 285.236682 
L 482.248469 285.266328 
L 482.583523 286.074366 
L 482.918578 284.155711 
L 483.253633 286.474889 
L 483.588687 290.35355 
L 483.923742 288.439903 
L 484.258797 289.829143 
L 484.593851 286.687039 
L 484.928906 290.240943 
L 485.599015 283.887073 
L 485.93407 283.272778 
L 486.269125 286.669763 
L 486.604179 288.347103 
L 486.939234 285.155194 
L 487.274288 284.152708 
L 487.609343 288.218345 
L 487.944398 287.067003 
L 488.279452 288.270587 
L 488.614507 284.44468 
L 488.949562 291.879974 
L 489.284616 290.514369 
L 489.619671 290.510659 
L 489.954726 287.642179 
L 490.28978 287.056948 
L 490.624835 286.224255 
L 490.95989 286.771649 
L 491.294944 288.464527 
L 491.965053 284.876364 
L 492.300108 285.829227 
L 492.635163 286.006514 
L 492.970217 287.331045 
L 493.305272 285.161243 
L 493.640327 289.344932 
L 493.975381 287.726605 
L 494.310436 287.640442 
L 494.645491 288.691228 
L 494.980545 287.323496 
L 495.3156 288.9338 
L 495.650654 286.401223 
L 495.985709 289.782382 
L 496.320764 283.241179 
L 496.655818 288.829584 
L 496.990873 284.7034 
L 497.325928 289.07237 
L 497.660982 288.118182 
L 497.996037 287.741163 
L 498.331092 286.70707 
L 498.666146 286.754119 
L 499.336256 288.839374 
L 499.67131 287.288352 
L 500.006365 287.540175 
L 500.341419 290.174565 
L 500.676474 286.650439 
L 501.011529 287.549245 
L 501.346583 288.04207 
L 501.681638 286.975047 
L 502.016693 287.095261 
L 502.351747 288.09693 
L 502.686802 288.490654 
L 503.021857 287.37927 
L 503.356911 289.509528 
L 503.691966 289.885311 
L 504.027021 287.852907 
L 504.362075 284.441566 
L 504.69713 285.312371 
L 505.032184 288.439944 
L 505.367239 287.168925 
L 505.702294 287.911318 
L 506.037348 287.907865 
L 506.372403 286.461172 
L 506.707458 286.737682 
L 507.042512 287.426955 
L 507.377567 289.973801 
L 507.712622 286.646017 
L 508.047676 287.797736 
L 508.382731 288.38209 
L 508.717786 290.260965 
L 509.05284 291.237495 
L 509.722949 285.677725 
L 510.058004 283.37722 
L 510.393059 288.663638 
L 510.728113 290.596884 
L 511.063168 283.413541 
L 511.398223 286.958427 
L 512.068332 289.358651 
L 512.403387 287.092704 
L 512.738441 286.116685 
L 513.073496 287.481151 
L 513.40855 284.130024 
L 513.743605 285.206588 
L 514.07866 284.582625 
L 514.413714 290.213662 
L 515.418878 285.445012 
L 515.753933 287.732857 
L 516.088988 288.875805 
L 516.759097 286.11233 
L 517.094152 286.122408 
L 517.429206 288.551154 
L 517.764261 288.214041 
L 518.099315 287.448319 
L 518.43437 282.053827 
L 518.769425 286.134417 
L 519.439534 288.530261 
L 519.774589 288.122366 
L 520.109643 285.96324 
L 520.779753 289.187268 
L 521.114807 286.527371 
L 521.449862 291.581972 
L 521.784917 290.530377 
L 522.119971 287.940818 
L 522.455026 288.551462 
L 522.79008 288.210332 
L 523.125135 286.978895 
L 523.46019 289.092888 
L 523.795244 290.071063 
L 524.800408 285.094151 
L 525.135463 289.081683 
L 525.470518 286.848593 
L 525.805572 287.19255 
L 526.140627 291.087892 
L 526.475682 288.478716 
L 527.145791 286.197383 
L 527.480845 289.539272 
L 527.8159 286.483506 
L 528.486009 290.652847 
L 528.821064 284.001951 
L 529.156119 289.093879 
L 529.491173 288.861086 
L 529.826228 286.572419 
L 530.161283 289.381558 
L 530.496337 286.966607 
L 530.831392 288.61898 
L 531.166446 288.82117 
L 531.836556 288.679263 
L 532.17161 286.727705 
L 532.506665 290.896993 
L 532.84172 288.3653 
L 533.176774 287.17534 
L 533.511829 283.123639 
L 533.846884 289.200715 
L 534.181938 286.500791 
L 534.516993 288.064233 
L 534.852048 288.99777 
L 535.187102 286.938308 
L 535.522157 290.559647 
L 535.857211 285.54178 
L 536.192266 285.55412 
L 536.527321 284.442561 
L 536.862375 285.173904 
L 537.19743 286.905001 
L 537.532485 291.134738 
L 537.867539 286.274292 
L 538.537649 291.797457 
L 538.872703 296.858287 
L 539.207758 285.213235 
L 539.542813 287.800477 
L 540.212922 290.372475 
L 540.547976 284.886929 
L 540.883031 285.955178 
L 541.55314 286.841834 
L 542.22325 291.252404 
L 542.893359 288.93759 
L 543.228414 287.658918 
L 543.563468 287.318349 
L 543.898523 289.582868 
L 544.233578 285.513514 
L 544.568632 290.565498 
L 544.903687 288.346841 
L 545.238741 287.685452 
L 545.573796 281.210745 
L 545.908851 287.762966 
L 546.243905 289.64272 
L 546.57896 286.384963 
L 546.914015 286.81827 
L 547.249069 288.796954 
L 547.584124 289.473803 
L 547.919179 284.361756 
L 548.254233 286.952515 
L 548.589288 287.992197 
L 548.924343 287.44931 
L 549.259397 285.504031 
L 549.594452 287.787415 
L 549.929506 287.357872 
L 550.264561 285.962152 
L 550.599616 288.227546 
L 550.93467 288.576713 
L 551.269725 289.621047 
L 551.60478 284.7094 
L 551.939834 284.915355 
L 552.274889 288.050149 
L 552.609944 284.934383 
L 552.944998 286.967552 
L 553.280053 283.982004 
L 553.950162 288.941039 
L 554.285217 289.785887 
L 554.620271 285.765711 
L 554.955326 286.705942 
L 555.625435 283.594284 
L 555.96049 290.75846 
L 556.295545 290.833516 
L 556.630599 288.714917 
L 557.300709 287.495398 
L 557.635763 281.886877 
L 557.970818 291.993528 
L 558.305872 289.221267 
L 558.975982 286.572877 
L 559.311036 285.358696 
L 559.646091 284.7345 
L 559.981146 286.896145 
L 560.3162 287.729283 
L 560.651255 286.975301 
L 560.98631 286.690276 
L 561.321364 289.757366 
L 561.656419 287.047684 
L 561.991474 288.01398 
L 562.326528 284.655663 
L 562.996637 287.791142 
L 563.331692 288.530063 
L 563.666747 287.027492 
L 564.001801 286.488374 
L 564.671911 287.804845 
L 565.006965 285.789799 
L 565.34202 289.913714 
L 565.677075 285.011661 
L 566.347184 288.069727 
L 566.682239 288.733778 
L 567.017293 290.864624 
L 567.352348 286.539973 
L 567.687402 286.774365 
L 568.022457 289.561249 
L 568.357512 290.961889 
L 568.692566 288.432149 
L 569.027621 290.468738 
L 569.69773 286.051486 
L 570.032785 289.734232 
L 570.36784 288.750892 
L 570.702894 285.908629 
L 571.037949 292.519833 
L 571.373003 286.759954 
L 571.708058 288.559732 
L 572.043113 285.499455 
L 572.378167 285.105666 
L 572.713222 287.12645 
L 573.048277 286.308157 
L 573.383331 288.67821 
L 573.718386 288.259734 
L 574.053441 286.50937 
L 574.388495 286.911608 
L 574.72355 286.943229 
L 575.058605 282.593971 
L 575.393659 283.698965 
L 576.063768 289.471189 
L 576.398823 285.424109 
L 576.733878 289.436292 
L 577.068932 289.862309 
L 577.403987 287.467464 
L 577.739042 291.709558 
L 578.074096 293.143345 
L 578.744206 282.290338 
L 579.07926 286.756895 
L 579.414315 295.095142 
L 579.74937 288.647188 
L 580.754533 291.765545 
L 581.089588 286.948619 
L 581.424643 289.209827 
L 581.759697 284.595586 
L 582.094752 287.997879 
L 582.429807 293.14115 
L 583.099916 288.642268 
L 583.434971 285.657572 
L 583.770025 287.599276 
L 584.10508 286.700921 
L 584.440135 291.196084 
L 584.775189 290.781293 
L 585.110244 290.660009 
L 585.445298 284.251796 
L 585.780353 282.612085 
L 586.115408 288.518173 
L 586.450462 287.997007 
L 586.785517 288.558591 
L 587.455626 285.244271 
L 587.790681 290.107112 
L 588.125736 287.094432 
L 588.46079 290.429173 
L 588.795845 287.861517 
L 589.130899 292.479835 
L 589.801009 288.139853 
L 590.136063 289.38963 
L 590.471118 285.714051 
L 590.806173 289.79861 
L 591.141227 286.415595 
L 591.476282 289.271836 
L 591.811337 288.401062 
L 592.146391 285.907538 
L 592.481446 290.688662 
L 592.816501 288.964993 
L 593.151555 286.047371 
L 593.48661 287.786452 
L 593.821664 288.316849 
L 594.156719 288.623949 
L 594.491774 286.27944 
L 594.826828 287.185818 
L 595.161883 290.684306 
L 595.496938 288.427709 
L 595.831992 288.509583 
L 596.167047 287.446742 
L 596.502102 292.237762 
L 596.837156 288.601307 
L 597.172211 290.625959 
L 597.507266 288.311938 
L 598.177375 291.393539 
L 598.512429 287.075405 
L 598.847484 288.204885 
L 599.182539 283.343645 
L 599.517593 290.128671 
L 599.852648 288.045049 
L 600.187703 291.378456 
L 600.857812 289.743394 
L 601.527921 287.735739 
L 601.862976 290.733889 
L 602.198031 289.715845 
L 602.533085 285.333098 
L 602.86814 285.683553 
L 603.203194 283.555761 
L 603.538249 287.8429 
L 603.873304 289.550814 
L 604.543413 288.542757 
L 604.878468 290.016137 
L 605.213522 286.144384 
L 605.548577 287.537176 
L 605.883632 285.707018 
L 606.218686 286.034286 
L 606.553741 287.517133 
L 606.888795 287.211971 
L 607.22385 288.873142 
L 607.558905 288.371675 
L 607.893959 288.239137 
L 608.229014 286.212465 
L 608.564069 287.100308 
L 608.899123 283.91272 
L 609.234178 288.737843 
L 609.569233 290.660742 
L 609.904287 285.55112 
L 610.239342 284.225367 
L 610.574397 288.336907 
L 610.909451 288.743246 
L 611.244506 288.467757 
L 611.57956 285.040422 
L 611.914615 289.600818 
L 612.24967 289.96488 
L 612.584724 288.570243 
L 612.919779 289.348979 
L 613.254834 289.172842 
L 613.589888 286.542689 
L 613.924943 285.580022 
L 614.259998 289.837414 
L 614.595052 288.087658 
L 614.930107 289.090333 
L 615.265162 288.757742 
L 615.600216 287.962044 
L 615.935271 290.246806 
L 616.270325 289.596655 
L 616.60538 288.431021 
L 616.940435 291.630867 
L 617.275489 288.950002 
L 617.610544 289.017508 
L 617.945599 286.443667 
L 618.280653 288.346666 
L 618.615708 292.015587 
L 618.950763 293.202173 
L 619.285817 292.127692 
L 619.620872 287.737176 
L 620.290981 289.570228 
L 620.626036 288.290024 
L 620.96109 285.521189 
L 621.296145 286.473722 
L 621.6312 291.155061 
L 621.966254 288.916444 
L 622.301309 291.663724 
L 622.636364 290.382843 
L 622.636364 290.382843 
" style="fill:none;stroke:#ff7f0e;stroke-linecap:square;stroke-width:0.5;"/>
   </g>
   <g id="patch_3">
    <path d="M 90 315 
L 90 43.2 
" style="fill:none;stroke:#000000;stroke-linecap:square;stroke-linejoin:miter;stroke-width:0.8;"/>
   </g>
   <g id="patch_4">
    <path d="M 648 315 
L 648 43.2 
" style="fill:none;stroke:#000000;stroke-linecap:square;stroke-linejoin:miter;stroke-width:0.8;"/>
   </g>
   <g id="patch_5">
    <path d="M 90 315 
L 648 315 
" style="fill:none;stroke:#000000;stroke-linecap:square;stroke-linejoin:miter;stroke-width:0.8;"/>
   </g>
   <g id="patch_6">
    <path d="M 90 43.2 
L 648 43.2 
" style="fill:none;stroke:#000000;stroke-linecap:square;stroke-linejoin:miter;stroke-width:0.8;"/>
   </g>
   <g id="text_17">
    <!-- loss -->
    <g transform="translate(357.410625 37.2)scale(0.12 -0.12)">
     <use xlink:href="#DejaVuSans-108"/>
     <use x="27.783203" xlink:href="#DejaVuSans-111"/>
     <use x="88.964844" xlink:href="#DejaVuSans-115"/>
     <use x="141.064453" xlink:href="#DejaVuSans-115"/>
    </g>
   </g>
   <g id="legend_1">
    <g id="patch_7">
     <path d="M 568.846875 80.55625 
L 641 80.55625 
Q 643 80.55625 643 78.55625 
L 643 50.2 
Q 643 48.2 641 48.2 
L 568.846875 48.2 
Q 566.846875 48.2 566.846875 50.2 
L 566.846875 78.55625 
Q 566.846875 80.55625 568.846875 80.55625 
z
" style="fill:#ffffff;opacity:0.8;stroke:#cccccc;stroke-linejoin:miter;"/>
    </g>
    <g id="line2d_31">
     <path d="M 570.846875 56.298437 
L 590.846875 56.298437 
" style="fill:none;stroke:#1f77b4;stroke-linecap:square;stroke-width:0.5;"/>
    </g>
    <g id="line2d_32"/>
    <g id="text_18">
     <!-- train -->
     <defs>
      <path d="M 18.3125 70.21875 
L 18.3125 54.6875 
L 36.8125 54.6875 
L 36.8125 47.703125 
L 18.3125 47.703125 
L 18.3125 18.015625 
Q 18.3125 11.328125 20.140625 9.421875 
Q 21.96875 7.515625 27.59375 7.515625 
L 36.8125 7.515625 
L 36.8125 0 
L 27.59375 0 
Q 17.1875 0 13.234375 3.875 
Q 9.28125 7.765625 9.28125 18.015625 
L 9.28125 47.703125 
L 2.6875 47.703125 
L 2.6875 54.6875 
L 9.28125 54.6875 
L 9.28125 70.21875 
z
" id="DejaVuSans-116"/>
      <path d="M 41.109375 46.296875 
Q 39.59375 47.171875 37.8125 47.578125 
Q 36.03125 48 33.890625 48 
Q 26.265625 48 22.1875 43.046875 
Q 18.109375 38.09375 18.109375 28.8125 
L 18.109375 0 
L 9.078125 0 
L 9.078125 54.6875 
L 18.109375 54.6875 
L 18.109375 46.1875 
Q 20.953125 51.171875 25.484375 53.578125 
Q 30.03125 56 36.53125 56 
Q 37.453125 56 38.578125 55.875 
Q 39.703125 55.765625 41.0625 55.515625 
z
" id="DejaVuSans-114"/>
      <path d="M 34.28125 27.484375 
Q 23.390625 27.484375 19.1875 25 
Q 14.984375 22.515625 14.984375 16.5 
Q 14.984375 11.71875 18.140625 8.90625 
Q 21.296875 6.109375 26.703125 6.109375 
Q 34.1875 6.109375 38.703125 11.40625 
Q 43.21875 16.703125 43.21875 25.484375 
L 43.21875 27.484375 
z
M 52.203125 31.203125 
L 52.203125 0 
L 43.21875 0 
L 43.21875 8.296875 
Q 40.140625 3.328125 35.546875 0.953125 
Q 30.953125 -1.421875 24.3125 -1.421875 
Q 15.921875 -1.421875 10.953125 3.296875 
Q 6 8.015625 6 15.921875 
Q 6 25.140625 12.171875 29.828125 
Q 18.359375 34.515625 30.609375 34.515625 
L 43.21875 34.515625 
L 43.21875 35.40625 
Q 43.21875 41.609375 39.140625 45 
Q 35.0625 48.390625 27.6875 48.390625 
Q 23 48.390625 18.546875 47.265625 
Q 14.109375 46.140625 10.015625 43.890625 
L 10.015625 52.203125 
Q 14.9375 54.109375 19.578125 55.046875 
Q 24.21875 56 28.609375 56 
Q 40.484375 56 46.34375 49.84375 
Q 52.203125 43.703125 52.203125 31.203125 
z
" id="DejaVuSans-97"/>
      <path d="M 9.421875 54.6875 
L 18.40625 54.6875 
L 18.40625 0 
L 9.421875 0 
z
M 9.421875 75.984375 
L 18.40625 75.984375 
L 18.40625 64.59375 
L 9.421875 64.59375 
z
" id="DejaVuSans-105"/>
      <path d="M 54.890625 33.015625 
L 54.890625 0 
L 45.90625 0 
L 45.90625 32.71875 
Q 45.90625 40.484375 42.875 44.328125 
Q 39.84375 48.1875 33.796875 48.1875 
Q 26.515625 48.1875 22.3125 43.546875 
Q 18.109375 38.921875 18.109375 30.90625 
L 18.109375 0 
L 9.078125 0 
L 9.078125 54.6875 
L 18.109375 54.6875 
L 18.109375 46.1875 
Q 21.34375 51.125 25.703125 53.5625 
Q 30.078125 56 35.796875 56 
Q 45.21875 56 50.046875 50.171875 
Q 54.890625 44.34375 54.890625 33.015625 
z
" id="DejaVuSans-110"/>
     </defs>
     <g transform="translate(598.846875 59.798437)scale(0.1 -0.1)">
      <use xlink:href="#DejaVuSans-116"/>
      <use x="39.208984" xlink:href="#DejaVuSans-114"/>
      <use x="80.322266" xlink:href="#DejaVuSans-97"/>
      <use x="141.601562" xlink:href="#DejaVuSans-105"/>
      <use x="169.384766" xlink:href="#DejaVuSans-110"/>
     </g>
    </g>
    <g id="line2d_33">
     <path d="M 570.846875 70.976562 
L 590.846875 70.976562 
" style="fill:none;stroke:#ff7f0e;stroke-linecap:square;stroke-width:0.5;"/>
    </g>
    <g id="line2d_34"/>
    <g id="text_19">
     <!-- validate -->
     <defs>
      <path d="M 2.984375 54.6875 
L 12.5 54.6875 
L 29.59375 8.796875 
L 46.6875 54.6875 
L 56.203125 54.6875 
L 35.6875 0 
L 23.484375 0 
z
" id="DejaVuSans-118"/>
      <path d="M 45.40625 46.390625 
L 45.40625 75.984375 
L 54.390625 75.984375 
L 54.390625 0 
L 45.40625 0 
L 45.40625 8.203125 
Q 42.578125 3.328125 38.25 0.953125 
Q 33.9375 -1.421875 27.875 -1.421875 
Q 17.96875 -1.421875 11.734375 6.484375 
Q 5.515625 14.40625 5.515625 27.296875 
Q 5.515625 40.1875 11.734375 48.09375 
Q 17.96875 56 27.875 56 
Q 33.9375 56 38.25 53.625 
Q 42.578125 51.265625 45.40625 46.390625 
z
M 14.796875 27.296875 
Q 14.796875 17.390625 18.875 11.75 
Q 22.953125 6.109375 30.078125 6.109375 
Q 37.203125 6.109375 41.296875 11.75 
Q 45.40625 17.390625 45.40625 27.296875 
Q 45.40625 37.203125 41.296875 42.84375 
Q 37.203125 48.484375 30.078125 48.484375 
Q 22.953125 48.484375 18.875 42.84375 
Q 14.796875 37.203125 14.796875 27.296875 
z
" id="DejaVuSans-100"/>
     </defs>
     <g transform="translate(598.846875 74.476562)scale(0.1 -0.1)">
      <use xlink:href="#DejaVuSans-118"/>
      <use x="59.179688" xlink:href="#DejaVuSans-97"/>
      <use x="120.458984" xlink:href="#DejaVuSans-108"/>
      <use x="148.242188" xlink:href="#DejaVuSans-105"/>
      <use x="176.025391" xlink:href="#DejaVuSans-100"/>
      <use x="239.501953" xlink:href="#DejaVuSans-97"/>
      <use x="300.78125" xlink:href="#DejaVuSans-116"/>
      <use x="339.990234" xlink:href="#DejaVuSans-101"/>
     </g>
    </g>
   </g>
  </g>
 </g>
 <defs>
  <clipPath id="p39f237f624">
   <rect height="271.8" width="558" x="90" y="43.2"/>
  </clipPath>
 </defs>
</svg>
