<?xml version="1.0" encoding="utf-8" standalone="no"?>
<!DOCTYPE svg PUBLIC "-//W3C//DTD SVG 1.1//EN"
  "http://www.w3.org/Graphics/SVG/1.1/DTD/svg11.dtd">
<!-- Created with matplotlib (https://matplotlib.org/) -->
<svg height="360pt" version="1.1" viewBox="0 0 720 360" width="720pt" xmlns="http://www.w3.org/2000/svg" xmlns:xlink="http://www.w3.org/1999/xlink">
 <defs>
  <style type="text/css">
*{stroke-linecap:butt;stroke-linejoin:round;}
  </style>
 </defs>
 <g id="figure_1">
  <g id="patch_1">
   <path d="M 0 360 
L 720 360 
L 720 0 
L 0 0 
z
" style="fill:#ffffff;"/>
  </g>
  <g id="axes_1">
   <g id="patch_2">
    <path d="M 90 315 
L 648 315 
L 648 43.2 
L 90 43.2 
z
" style="fill:#ffffff;"/>
   </g>
   <g id="matplotlib.axis_1">
    <g id="xtick_1">
     <g id="line2d_1">
      <path clip-path="url(#pcd011b16c4)" d="M 115.363636 315 
L 115.363636 43.2 
" style="fill:none;stroke:#b0b0b0;stroke-linecap:square;stroke-width:0.8;"/>
     </g>
     <g id="line2d_2">
      <defs>
       <path d="M 0 0 
L 0 3.5 
" id="mec97a08cd9" style="stroke:#000000;stroke-width:0.8;"/>
      </defs>
      <g>
       <use style="stroke:#000000;stroke-width:0.8;" x="115.363636" xlink:href="#mec97a08cd9" y="315"/>
      </g>
     </g>
     <g id="text_1">
      <!-- 0 -->
      <defs>
       <path d="M 31.78125 66.40625 
Q 24.171875 66.40625 20.328125 58.90625 
Q 16.5 51.421875 16.5 36.375 
Q 16.5 21.390625 20.328125 13.890625 
Q 24.171875 6.390625 31.78125 6.390625 
Q 39.453125 6.390625 43.28125 13.890625 
Q 47.125 21.390625 47.125 36.375 
Q 47.125 51.421875 43.28125 58.90625 
Q 39.453125 66.40625 31.78125 66.40625 
z
M 31.78125 74.21875 
Q 44.046875 74.21875 50.515625 64.515625 
Q 56.984375 54.828125 56.984375 36.375 
Q 56.984375 17.96875 50.515625 8.265625 
Q 44.046875 -1.421875 31.78125 -1.421875 
Q 19.53125 -1.421875 13.0625 8.265625 
Q 6.59375 17.96875 6.59375 36.375 
Q 6.59375 54.828125 13.0625 64.515625 
Q 19.53125 74.21875 31.78125 74.21875 
z
" id="DejaVuSans-48"/>
      </defs>
      <g transform="translate(112.182386 329.598437)scale(0.1 -0.1)">
       <use xlink:href="#DejaVuSans-48"/>
      </g>
     </g>
    </g>
    <g id="xtick_2">
     <g id="line2d_3">
      <path clip-path="url(#pcd011b16c4)" d="M 213.198299 315 
L 213.198299 43.2 
" style="fill:none;stroke:#b0b0b0;stroke-linecap:square;stroke-width:0.8;"/>
     </g>
     <g id="line2d_4">
      <g>
       <use style="stroke:#000000;stroke-width:0.8;" x="213.198299" xlink:href="#mec97a08cd9" y="315"/>
      </g>
     </g>
     <g id="text_2">
      <!-- 200 -->
      <defs>
       <path d="M 19.1875 8.296875 
L 53.609375 8.296875 
L 53.609375 0 
L 7.328125 0 
L 7.328125 8.296875 
Q 12.9375 14.109375 22.625 23.890625 
Q 32.328125 33.6875 34.8125 36.53125 
Q 39.546875 41.84375 41.421875 45.53125 
Q 43.3125 49.21875 43.3125 52.78125 
Q 43.3125 58.59375 39.234375 62.25 
Q 35.15625 65.921875 28.609375 65.921875 
Q 23.96875 65.921875 18.8125 64.3125 
Q 13.671875 62.703125 7.8125 59.421875 
L 7.8125 69.390625 
Q 13.765625 71.78125 18.9375 73 
Q 24.125 74.21875 28.421875 74.21875 
Q 39.75 74.21875 46.484375 68.546875 
Q 53.21875 62.890625 53.21875 53.421875 
Q 53.21875 48.921875 51.53125 44.890625 
Q 49.859375 40.875 45.40625 35.40625 
Q 44.1875 33.984375 37.640625 27.21875 
Q 31.109375 20.453125 19.1875 8.296875 
z
" id="DejaVuSans-50"/>
      </defs>
      <g transform="translate(203.654549 329.598437)scale(0.1 -0.1)">
       <use xlink:href="#DejaVuSans-50"/>
       <use x="63.623047" xlink:href="#DejaVuSans-48"/>
       <use x="127.246094" xlink:href="#DejaVuSans-48"/>
      </g>
     </g>
    </g>
    <g id="xtick_3">
     <g id="line2d_5">
      <path clip-path="url(#pcd011b16c4)" d="M 311.032962 315 
L 311.032962 43.2 
" style="fill:none;stroke:#b0b0b0;stroke-linecap:square;stroke-width:0.8;"/>
     </g>
     <g id="line2d_6">
      <g>
       <use style="stroke:#000000;stroke-width:0.8;" x="311.032962" xlink:href="#mec97a08cd9" y="315"/>
      </g>
     </g>
     <g id="text_3">
      <!-- 400 -->
      <defs>
       <path d="M 37.796875 64.3125 
L 12.890625 25.390625 
L 37.796875 25.390625 
z
M 35.203125 72.90625 
L 47.609375 72.90625 
L 47.609375 25.390625 
L 58.015625 25.390625 
L 58.015625 17.1875 
L 47.609375 17.1875 
L 47.609375 0 
L 37.796875 0 
L 37.796875 17.1875 
L 4.890625 17.1875 
L 4.890625 26.703125 
z
" id="DejaVuSans-52"/>
      </defs>
      <g transform="translate(301.489212 329.598437)scale(0.1 -0.1)">
       <use xlink:href="#DejaVuSans-52"/>
       <use x="63.623047" xlink:href="#DejaVuSans-48"/>
       <use x="127.246094" xlink:href="#DejaVuSans-48"/>
      </g>
     </g>
    </g>
    <g id="xtick_4">
     <g id="line2d_7">
      <path clip-path="url(#pcd011b16c4)" d="M 408.867625 315 
L 408.867625 43.2 
" style="fill:none;stroke:#b0b0b0;stroke-linecap:square;stroke-width:0.8;"/>
     </g>
     <g id="line2d_8">
      <g>
       <use style="stroke:#000000;stroke-width:0.8;" x="408.867625" xlink:href="#mec97a08cd9" y="315"/>
      </g>
     </g>
     <g id="text_4">
      <!-- 600 -->
      <defs>
       <path d="M 33.015625 40.375 
Q 26.375 40.375 22.484375 35.828125 
Q 18.609375 31.296875 18.609375 23.390625 
Q 18.609375 15.53125 22.484375 10.953125 
Q 26.375 6.390625 33.015625 6.390625 
Q 39.65625 6.390625 43.53125 10.953125 
Q 47.40625 15.53125 47.40625 23.390625 
Q 47.40625 31.296875 43.53125 35.828125 
Q 39.65625 40.375 33.015625 40.375 
z
M 52.59375 71.296875 
L 52.59375 62.3125 
Q 48.875 64.0625 45.09375 64.984375 
Q 41.3125 65.921875 37.59375 65.921875 
Q 27.828125 65.921875 22.671875 59.328125 
Q 17.53125 52.734375 16.796875 39.40625 
Q 19.671875 43.65625 24.015625 45.921875 
Q 28.375 48.1875 33.59375 48.1875 
Q 44.578125 48.1875 50.953125 41.515625 
Q 57.328125 34.859375 57.328125 23.390625 
Q 57.328125 12.15625 50.6875 5.359375 
Q 44.046875 -1.421875 33.015625 -1.421875 
Q 20.359375 -1.421875 13.671875 8.265625 
Q 6.984375 17.96875 6.984375 36.375 
Q 6.984375 53.65625 15.1875 63.9375 
Q 23.390625 74.21875 37.203125 74.21875 
Q 40.921875 74.21875 44.703125 73.484375 
Q 48.484375 72.75 52.59375 71.296875 
z
" id="DejaVuSans-54"/>
      </defs>
      <g transform="translate(399.323875 329.598437)scale(0.1 -0.1)">
       <use xlink:href="#DejaVuSans-54"/>
       <use x="63.623047" xlink:href="#DejaVuSans-48"/>
       <use x="127.246094" xlink:href="#DejaVuSans-48"/>
      </g>
     </g>
    </g>
    <g id="xtick_5">
     <g id="line2d_9">
      <path clip-path="url(#pcd011b16c4)" d="M 506.702288 315 
L 506.702288 43.2 
" style="fill:none;stroke:#b0b0b0;stroke-linecap:square;stroke-width:0.8;"/>
     </g>
     <g id="line2d_10">
      <g>
       <use style="stroke:#000000;stroke-width:0.8;" x="506.702288" xlink:href="#mec97a08cd9" y="315"/>
      </g>
     </g>
     <g id="text_5">
      <!-- 800 -->
      <defs>
       <path d="M 31.78125 34.625 
Q 24.75 34.625 20.71875 30.859375 
Q 16.703125 27.09375 16.703125 20.515625 
Q 16.703125 13.921875 20.71875 10.15625 
Q 24.75 6.390625 31.78125 6.390625 
Q 38.8125 6.390625 42.859375 10.171875 
Q 46.921875 13.96875 46.921875 20.515625 
Q 46.921875 27.09375 42.890625 30.859375 
Q 38.875 34.625 31.78125 34.625 
z
M 21.921875 38.8125 
Q 15.578125 40.375 12.03125 44.71875 
Q 8.5 49.078125 8.5 55.328125 
Q 8.5 64.0625 14.71875 69.140625 
Q 20.953125 74.21875 31.78125 74.21875 
Q 42.671875 74.21875 48.875 69.140625 
Q 55.078125 64.0625 55.078125 55.328125 
Q 55.078125 49.078125 51.53125 44.71875 
Q 48 40.375 41.703125 38.8125 
Q 48.828125 37.15625 52.796875 32.3125 
Q 56.78125 27.484375 56.78125 20.515625 
Q 56.78125 9.90625 50.3125 4.234375 
Q 43.84375 -1.421875 31.78125 -1.421875 
Q 19.734375 -1.421875 13.25 4.234375 
Q 6.78125 9.90625 6.78125 20.515625 
Q 6.78125 27.484375 10.78125 32.3125 
Q 14.796875 37.15625 21.921875 38.8125 
z
M 18.3125 54.390625 
Q 18.3125 48.734375 21.84375 45.5625 
Q 25.390625 42.390625 31.78125 42.390625 
Q 38.140625 42.390625 41.71875 45.5625 
Q 45.3125 48.734375 45.3125 54.390625 
Q 45.3125 60.0625 41.71875 63.234375 
Q 38.140625 66.40625 31.78125 66.40625 
Q 25.390625 66.40625 21.84375 63.234375 
Q 18.3125 60.0625 18.3125 54.390625 
z
" id="DejaVuSans-56"/>
      </defs>
      <g transform="translate(497.158538 329.598437)scale(0.1 -0.1)">
       <use xlink:href="#DejaVuSans-56"/>
       <use x="63.623047" xlink:href="#DejaVuSans-48"/>
       <use x="127.246094" xlink:href="#DejaVuSans-48"/>
      </g>
     </g>
    </g>
    <g id="xtick_6">
     <g id="line2d_11">
      <path clip-path="url(#pcd011b16c4)" d="M 604.536951 315 
L 604.536951 43.2 
" style="fill:none;stroke:#b0b0b0;stroke-linecap:square;stroke-width:0.8;"/>
     </g>
     <g id="line2d_12">
      <g>
       <use style="stroke:#000000;stroke-width:0.8;" x="604.536951" xlink:href="#mec97a08cd9" y="315"/>
      </g>
     </g>
     <g id="text_6">
      <!-- 1000 -->
      <defs>
       <path d="M 12.40625 8.296875 
L 28.515625 8.296875 
L 28.515625 63.921875 
L 10.984375 60.40625 
L 10.984375 69.390625 
L 28.421875 72.90625 
L 38.28125 72.90625 
L 38.28125 8.296875 
L 54.390625 8.296875 
L 54.390625 0 
L 12.40625 0 
z
" id="DejaVuSans-49"/>
      </defs>
      <g transform="translate(591.811951 329.598437)scale(0.1 -0.1)">
       <use xlink:href="#DejaVuSans-49"/>
       <use x="63.623047" xlink:href="#DejaVuSans-48"/>
       <use x="127.246094" xlink:href="#DejaVuSans-48"/>
       <use x="190.869141" xlink:href="#DejaVuSans-48"/>
      </g>
     </g>
    </g>
    <g id="text_7">
     <!-- epoch -->
     <defs>
      <path d="M 56.203125 29.59375 
L 56.203125 25.203125 
L 14.890625 25.203125 
Q 15.484375 15.921875 20.484375 11.0625 
Q 25.484375 6.203125 34.421875 6.203125 
Q 39.59375 6.203125 44.453125 7.46875 
Q 49.3125 8.734375 54.109375 11.28125 
L 54.109375 2.78125 
Q 49.265625 0.734375 44.1875 -0.34375 
Q 39.109375 -1.421875 33.890625 -1.421875 
Q 20.796875 -1.421875 13.15625 6.1875 
Q 5.515625 13.8125 5.515625 26.8125 
Q 5.515625 40.234375 12.765625 48.109375 
Q 20.015625 56 32.328125 56 
Q 43.359375 56 49.78125 48.890625 
Q 56.203125 41.796875 56.203125 29.59375 
z
M 47.21875 32.234375 
Q 47.125 39.59375 43.09375 43.984375 
Q 39.0625 48.390625 32.421875 48.390625 
Q 24.90625 48.390625 20.390625 44.140625 
Q 15.875 39.890625 15.1875 32.171875 
z
" id="DejaVuSans-101"/>
      <path d="M 18.109375 8.203125 
L 18.109375 -20.796875 
L 9.078125 -20.796875 
L 9.078125 54.6875 
L 18.109375 54.6875 
L 18.109375 46.390625 
Q 20.953125 51.265625 25.265625 53.625 
Q 29.59375 56 35.59375 56 
Q 45.5625 56 51.78125 48.09375 
Q 58.015625 40.1875 58.015625 27.296875 
Q 58.015625 14.40625 51.78125 6.484375 
Q 45.5625 -1.421875 35.59375 -1.421875 
Q 29.59375 -1.421875 25.265625 0.953125 
Q 20.953125 3.328125 18.109375 8.203125 
z
M 48.6875 27.296875 
Q 48.6875 37.203125 44.609375 42.84375 
Q 40.53125 48.484375 33.40625 48.484375 
Q 26.265625 48.484375 22.1875 42.84375 
Q 18.109375 37.203125 18.109375 27.296875 
Q 18.109375 17.390625 22.1875 11.75 
Q 26.265625 6.109375 33.40625 6.109375 
Q 40.53125 6.109375 44.609375 11.75 
Q 48.6875 17.390625 48.6875 27.296875 
z
" id="DejaVuSans-112"/>
      <path d="M 30.609375 48.390625 
Q 23.390625 48.390625 19.1875 42.75 
Q 14.984375 37.109375 14.984375 27.296875 
Q 14.984375 17.484375 19.15625 11.84375 
Q 23.34375 6.203125 30.609375 6.203125 
Q 37.796875 6.203125 41.984375 11.859375 
Q 46.1875 17.53125 46.1875 27.296875 
Q 46.1875 37.015625 41.984375 42.703125 
Q 37.796875 48.390625 30.609375 48.390625 
z
M 30.609375 56 
Q 42.328125 56 49.015625 48.375 
Q 55.71875 40.765625 55.71875 27.296875 
Q 55.71875 13.875 49.015625 6.21875 
Q 42.328125 -1.421875 30.609375 -1.421875 
Q 18.84375 -1.421875 12.171875 6.21875 
Q 5.515625 13.875 5.515625 27.296875 
Q 5.515625 40.765625 12.171875 48.375 
Q 18.84375 56 30.609375 56 
z
" id="DejaVuSans-111"/>
      <path d="M 48.78125 52.59375 
L 48.78125 44.1875 
Q 44.96875 46.296875 41.140625 47.34375 
Q 37.3125 48.390625 33.40625 48.390625 
Q 24.65625 48.390625 19.8125 42.84375 
Q 14.984375 37.3125 14.984375 27.296875 
Q 14.984375 17.28125 19.8125 11.734375 
Q 24.65625 6.203125 33.40625 6.203125 
Q 37.3125 6.203125 41.140625 7.25 
Q 44.96875 8.296875 48.78125 10.40625 
L 48.78125 2.09375 
Q 45.015625 0.34375 40.984375 -0.53125 
Q 36.96875 -1.421875 32.421875 -1.421875 
Q 20.0625 -1.421875 12.78125 6.34375 
Q 5.515625 14.109375 5.515625 27.296875 
Q 5.515625 40.671875 12.859375 48.328125 
Q 20.21875 56 33.015625 56 
Q 37.15625 56 41.109375 55.140625 
Q 45.0625 54.296875 48.78125 52.59375 
z
" id="DejaVuSans-99"/>
      <path d="M 54.890625 33.015625 
L 54.890625 0 
L 45.90625 0 
L 45.90625 32.71875 
Q 45.90625 40.484375 42.875 44.328125 
Q 39.84375 48.1875 33.796875 48.1875 
Q 26.515625 48.1875 22.3125 43.546875 
Q 18.109375 38.921875 18.109375 30.90625 
L 18.109375 0 
L 9.078125 0 
L 9.078125 75.984375 
L 18.109375 75.984375 
L 18.109375 46.1875 
Q 21.34375 51.125 25.703125 53.5625 
Q 30.078125 56 35.796875 56 
Q 45.21875 56 50.046875 50.171875 
Q 54.890625 44.34375 54.890625 33.015625 
z
" id="DejaVuSans-104"/>
     </defs>
     <g transform="translate(353.771875 343.276563)scale(0.1 -0.1)">
      <use xlink:href="#DejaVuSans-101"/>
      <use x="61.523438" xlink:href="#DejaVuSans-112"/>
      <use x="125" xlink:href="#DejaVuSans-111"/>
      <use x="186.181641" xlink:href="#DejaVuSans-99"/>
      <use x="241.162109" xlink:href="#DejaVuSans-104"/>
     </g>
    </g>
   </g>
   <g id="matplotlib.axis_2">
    <g id="ytick_1">
     <g id="line2d_13">
      <path clip-path="url(#pcd011b16c4)" d="M 90 289.608726 
L 648 289.608726 
" style="fill:none;stroke:#b0b0b0;stroke-linecap:square;stroke-width:0.8;"/>
     </g>
     <g id="line2d_14">
      <defs>
       <path d="M 0 0 
L -3.5 0 
" id="m1bdbb7dc6a" style="stroke:#000000;stroke-width:0.8;"/>
      </defs>
      <g>
       <use style="stroke:#000000;stroke-width:0.8;" x="90" xlink:href="#m1bdbb7dc6a" y="289.608726"/>
      </g>
     </g>
     <g id="text_8">
      <!-- 0.2 -->
      <defs>
       <path d="M 10.6875 12.40625 
L 21 12.40625 
L 21 0 
L 10.6875 0 
z
" id="DejaVuSans-46"/>
      </defs>
      <g transform="translate(67.096875 293.407945)scale(0.1 -0.1)">
       <use xlink:href="#DejaVuSans-48"/>
       <use x="63.623047" xlink:href="#DejaVuSans-46"/>
       <use x="95.410156" xlink:href="#DejaVuSans-50"/>
      </g>
     </g>
    </g>
    <g id="ytick_2">
     <g id="line2d_15">
      <path clip-path="url(#pcd011b16c4)" d="M 90 256.334766 
L 648 256.334766 
" style="fill:none;stroke:#b0b0b0;stroke-linecap:square;stroke-width:0.8;"/>
     </g>
     <g id="line2d_16">
      <g>
       <use style="stroke:#000000;stroke-width:0.8;" x="90" xlink:href="#m1bdbb7dc6a" y="256.334766"/>
      </g>
     </g>
     <g id="text_9">
      <!-- 0.4 -->
      <g transform="translate(67.096875 260.133985)scale(0.1 -0.1)">
       <use xlink:href="#DejaVuSans-48"/>
       <use x="63.623047" xlink:href="#DejaVuSans-46"/>
       <use x="95.410156" xlink:href="#DejaVuSans-52"/>
      </g>
     </g>
    </g>
    <g id="ytick_3">
     <g id="line2d_17">
      <path clip-path="url(#pcd011b16c4)" d="M 90 223.060806 
L 648 223.060806 
" style="fill:none;stroke:#b0b0b0;stroke-linecap:square;stroke-width:0.8;"/>
     </g>
     <g id="line2d_18">
      <g>
       <use style="stroke:#000000;stroke-width:0.8;" x="90" xlink:href="#m1bdbb7dc6a" y="223.060806"/>
      </g>
     </g>
     <g id="text_10">
      <!-- 0.6 -->
      <g transform="translate(67.096875 226.860025)scale(0.1 -0.1)">
       <use xlink:href="#DejaVuSans-48"/>
       <use x="63.623047" xlink:href="#DejaVuSans-46"/>
       <use x="95.410156" xlink:href="#DejaVuSans-54"/>
      </g>
     </g>
    </g>
    <g id="ytick_4">
     <g id="line2d_19">
      <path clip-path="url(#pcd011b16c4)" d="M 90 189.786846 
L 648 189.786846 
" style="fill:none;stroke:#b0b0b0;stroke-linecap:square;stroke-width:0.8;"/>
     </g>
     <g id="line2d_20">
      <g>
       <use style="stroke:#000000;stroke-width:0.8;" x="90" xlink:href="#m1bdbb7dc6a" y="189.786846"/>
      </g>
     </g>
     <g id="text_11">
      <!-- 0.8 -->
      <g transform="translate(67.096875 193.586065)scale(0.1 -0.1)">
       <use xlink:href="#DejaVuSans-48"/>
       <use x="63.623047" xlink:href="#DejaVuSans-46"/>
       <use x="95.410156" xlink:href="#DejaVuSans-56"/>
      </g>
     </g>
    </g>
    <g id="ytick_5">
     <g id="line2d_21">
      <path clip-path="url(#pcd011b16c4)" d="M 90 156.512886 
L 648 156.512886 
" style="fill:none;stroke:#b0b0b0;stroke-linecap:square;stroke-width:0.8;"/>
     </g>
     <g id="line2d_22">
      <g>
       <use style="stroke:#000000;stroke-width:0.8;" x="90" xlink:href="#m1bdbb7dc6a" y="156.512886"/>
      </g>
     </g>
     <g id="text_12">
      <!-- 1.0 -->
      <g transform="translate(67.096875 160.312105)scale(0.1 -0.1)">
       <use xlink:href="#DejaVuSans-49"/>
       <use x="63.623047" xlink:href="#DejaVuSans-46"/>
       <use x="95.410156" xlink:href="#DejaVuSans-48"/>
      </g>
     </g>
    </g>
    <g id="ytick_6">
     <g id="line2d_23">
      <path clip-path="url(#pcd011b16c4)" d="M 90 123.238927 
L 648 123.238927 
" style="fill:none;stroke:#b0b0b0;stroke-linecap:square;stroke-width:0.8;"/>
     </g>
     <g id="line2d_24">
      <g>
       <use style="stroke:#000000;stroke-width:0.8;" x="90" xlink:href="#m1bdbb7dc6a" y="123.238927"/>
      </g>
     </g>
     <g id="text_13">
      <!-- 1.2 -->
      <g transform="translate(67.096875 127.038145)scale(0.1 -0.1)">
       <use xlink:href="#DejaVuSans-49"/>
       <use x="63.623047" xlink:href="#DejaVuSans-46"/>
       <use x="95.410156" xlink:href="#DejaVuSans-50"/>
      </g>
     </g>
    </g>
    <g id="ytick_7">
     <g id="line2d_25">
      <path clip-path="url(#pcd011b16c4)" d="M 90 89.964967 
L 648 89.964967 
" style="fill:none;stroke:#b0b0b0;stroke-linecap:square;stroke-width:0.8;"/>
     </g>
     <g id="line2d_26">
      <g>
       <use style="stroke:#000000;stroke-width:0.8;" x="90" xlink:href="#m1bdbb7dc6a" y="89.964967"/>
      </g>
     </g>
     <g id="text_14">
      <!-- 1.4 -->
      <g transform="translate(67.096875 93.764185)scale(0.1 -0.1)">
       <use xlink:href="#DejaVuSans-49"/>
       <use x="63.623047" xlink:href="#DejaVuSans-46"/>
       <use x="95.410156" xlink:href="#DejaVuSans-52"/>
      </g>
     </g>
    </g>
    <g id="ytick_8">
     <g id="line2d_27">
      <path clip-path="url(#pcd011b16c4)" d="M 90 56.691007 
L 648 56.691007 
" style="fill:none;stroke:#b0b0b0;stroke-linecap:square;stroke-width:0.8;"/>
     </g>
     <g id="line2d_28">
      <g>
       <use style="stroke:#000000;stroke-width:0.8;" x="90" xlink:href="#m1bdbb7dc6a" y="56.691007"/>
      </g>
     </g>
     <g id="text_15">
      <!-- 1.6 -->
      <g transform="translate(67.096875 60.490225)scale(0.1 -0.1)">
       <use xlink:href="#DejaVuSans-49"/>
       <use x="63.623047" xlink:href="#DejaVuSans-46"/>
       <use x="95.410156" xlink:href="#DejaVuSans-54"/>
      </g>
     </g>
    </g>
    <g id="text_16">
     <!-- loss -->
     <defs>
      <path d="M 9.421875 75.984375 
L 18.40625 75.984375 
L 18.40625 0 
L 9.421875 0 
z
" id="DejaVuSans-108"/>
      <path d="M 44.28125 53.078125 
L 44.28125 44.578125 
Q 40.484375 46.53125 36.375 47.5 
Q 32.28125 48.484375 27.875 48.484375 
Q 21.1875 48.484375 17.84375 46.4375 
Q 14.5 44.390625 14.5 40.28125 
Q 14.5 37.15625 16.890625 35.375 
Q 19.28125 33.59375 26.515625 31.984375 
L 29.59375 31.296875 
Q 39.15625 29.25 43.1875 25.515625 
Q 47.21875 21.78125 47.21875 15.09375 
Q 47.21875 7.46875 41.1875 3.015625 
Q 35.15625 -1.421875 24.609375 -1.421875 
Q 20.21875 -1.421875 15.453125 -0.5625 
Q 10.6875 0.296875 5.421875 2 
L 5.421875 11.28125 
Q 10.40625 8.6875 15.234375 7.390625 
Q 20.0625 6.109375 24.8125 6.109375 
Q 31.15625 6.109375 34.5625 8.28125 
Q 37.984375 10.453125 37.984375 14.40625 
Q 37.984375 18.0625 35.515625 20.015625 
Q 33.0625 21.96875 24.703125 23.78125 
L 21.578125 24.515625 
Q 13.234375 26.265625 9.515625 29.90625 
Q 5.8125 33.546875 5.8125 39.890625 
Q 5.8125 47.609375 11.28125 51.796875 
Q 16.75 56 26.8125 56 
Q 31.78125 56 36.171875 55.265625 
Q 40.578125 54.546875 44.28125 53.078125 
z
" id="DejaVuSans-115"/>
     </defs>
     <g transform="translate(61.017187 188.757812)rotate(-90)scale(0.1 -0.1)">
      <use xlink:href="#DejaVuSans-108"/>
      <use x="27.783203" xlink:href="#DejaVuSans-111"/>
      <use x="88.964844" xlink:href="#DejaVuSans-115"/>
      <use x="141.064453" xlink:href="#DejaVuSans-115"/>
     </g>
    </g>
   </g>
   <g id="line2d_29">
    <path clip-path="url(#pcd011b16c4)" d="M 115.363636 55.554545 
L 115.85281 65.973465 
L 116.341983 71.881502 
L 116.831156 73.044469 
L 117.32033 75.32773 
L 117.809503 78.617898 
L 118.298676 79.90322 
L 118.78785 83.354868 
L 119.277023 85.38703 
L 119.766196 84.397285 
L 120.744543 89.75485 
L 122.212063 102.158683 
L 122.701236 103.189962 
L 123.190409 107.429209 
L 123.679583 113.72331 
L 124.168756 116.947405 
L 125.147103 124.929627 
L 125.636276 132.729459 
L 126.125449 135.596103 
L 126.614623 139.463917 
L 127.592969 151.974947 
L 128.082143 154.629201 
L 128.571316 159.637465 
L 129.060489 160.41565 
L 130.038836 172.000256 
L 130.528009 172.357221 
L 131.017182 178.494765 
L 131.506356 178.374312 
L 131.995529 180.587845 
L 132.973876 187.635244 
L 133.463049 187.563964 
L 133.952222 189.212558 
L 134.441396 193.919644 
L 134.930569 194.963042 
L 135.419742 195.295142 
L 135.908916 201.010903 
L 136.398089 200.445062 
L 136.887262 202.720663 
L 137.376436 205.930562 
L 137.865609 207.452466 
L 138.354782 210.281435 
L 138.843955 210.736767 
L 139.333129 214.800048 
L 139.822302 213.040937 
L 140.311475 216.771147 
L 140.800649 218.443009 
L 141.289822 218.614582 
L 141.778995 220.289358 
L 142.268169 220.838375 
L 142.757342 221.973899 
L 143.246515 223.404328 
L 143.735689 225.342604 
L 144.224862 226.370721 
L 144.714035 226.835328 
L 145.203209 230.039238 
L 145.692382 229.87846 
L 146.181555 227.843117 
L 146.670729 232.724942 
L 147.159902 233.421787 
L 147.649075 233.497873 
L 148.138248 237.480765 
L 148.627422 236.464706 
L 149.116595 239.022564 
L 149.605768 238.487409 
L 150.094942 240.254694 
L 150.584115 239.84814 
L 151.073288 242.158234 
L 151.562462 242.651985 
L 152.051635 241.263151 
L 152.540808 242.643571 
L 153.029982 242.167717 
L 154.008328 244.423155 
L 154.986675 245.821992 
L 155.475848 247.4532 
L 155.965021 249.552755 
L 156.454195 248.450011 
L 156.943368 248.076213 
L 158.410888 253.829262 
L 158.900061 251.216344 
L 159.389235 250.878902 
L 159.878408 250.878234 
L 160.367581 252.212384 
L 160.856755 253.958404 
L 161.345928 254.094412 
L 161.835101 254.80232 
L 162.324275 254.282481 
L 162.813448 254.691329 
L 163.302621 255.623336 
L 163.791795 256.115221 
L 164.280968 258.227681 
L 164.770141 257.498956 
L 165.259314 255.891786 
L 166.237661 259.749214 
L 166.726834 258.662547 
L 167.216008 259.929914 
L 167.705181 258.526749 
L 168.194354 260.978524 
L 168.683528 259.966936 
L 169.172701 260.456185 
L 169.661874 262.149335 
L 170.151048 259.395819 
L 170.640221 262.827539 
L 171.129394 264.79077 
L 171.618568 263.297994 
L 172.596914 264.228663 
L 173.086087 266.834264 
L 173.575261 264.49772 
L 174.064434 265.108542 
L 174.553607 264.711197 
L 175.042781 265.969177 
L 175.531954 265.341129 
L 176.021127 266.949808 
L 176.510301 267.016996 
L 176.999474 266.900072 
L 177.488647 269.307507 
L 177.977821 268.901793 
L 178.466994 269.376989 
L 178.956167 267.799235 
L 179.445341 268.553772 
L 179.934514 267.064231 
L 180.912861 271.696271 
L 181.402034 271.260317 
L 181.891207 271.416492 
L 182.38038 272.210091 
L 182.869554 268.99148 
L 183.8479 272.339723 
L 184.337074 269.67912 
L 184.826247 270.497003 
L 185.31542 273.178083 
L 185.804594 273.087357 
L 186.293767 270.73136 
L 186.78294 271.645343 
L 187.272114 273.346306 
L 187.761287 270.960697 
L 188.25046 274.881243 
L 189.228807 273.659916 
L 189.71798 273.510486 
L 190.207154 275.483632 
L 191.1855 274.822687 
L 191.674673 274.207032 
L 192.163847 275.193795 
L 192.65302 272.346772 
L 193.142193 274.041625 
L 193.631367 276.841811 
L 194.12054 277.539734 
L 194.609713 276.363551 
L 195.098887 274.409115 
L 195.58806 275.139266 
L 196.077233 273.974582 
L 196.566407 277.901785 
L 197.05558 274.595909 
L 197.544753 277.980598 
L 198.033927 276.484491 
L 198.5231 276.335033 
L 199.012273 275.716523 
L 199.501446 276.235076 
L 199.99062 276.426997 
L 200.479793 278.742213 
L 200.968966 279.331363 
L 201.45814 277.833762 
L 201.947313 280.750521 
L 202.436486 277.065333 
L 202.92566 277.455052 
L 203.414833 279.127026 
L 203.904006 277.832382 
L 204.39318 278.456454 
L 204.882353 279.507686 
L 205.371526 279.755156 
L 205.8607 277.460146 
L 206.349873 281.509334 
L 206.839046 278.59553 
L 207.32822 278.674821 
L 207.817393 279.643976 
L 208.306566 279.352848 
L 208.795739 276.95285 
L 209.284913 280.553855 
L 209.774086 279.124944 
L 210.263259 279.421296 
L 210.752433 280.373135 
L 211.241606 280.561133 
L 211.730779 278.602738 
L 212.709126 281.346826 
L 213.198299 277.906476 
L 213.687473 280.642899 
L 214.176646 280.833891 
L 214.665819 283.560878 
L 215.154993 281.243437 
L 215.644166 282.331736 
L 216.133339 282.290194 
L 216.622512 281.640386 
L 217.111686 282.055299 
L 217.600859 280.398373 
L 218.090032 281.369466 
L 218.579206 279.234205 
L 219.557552 279.969015 
L 220.046726 281.033951 
L 220.535899 280.598881 
L 221.025072 281.13254 
L 221.514246 282.331338 
L 222.003419 281.814812 
L 222.492592 280.571634 
L 223.470939 283.11742 
L 223.960112 283.759687 
L 224.449286 284.06416 
L 224.938459 283.96814 
L 225.427632 283.552898 
L 225.916805 281.637885 
L 226.895152 279.793165 
L 227.384325 283.331757 
L 227.873499 283.947955 
L 228.362672 282.561049 
L 228.851845 281.982834 
L 229.341019 280.63936 
L 229.830192 281.354366 
L 230.319365 283.869926 
L 230.808539 281.457135 
L 231.297712 281.784778 
L 231.786885 283.99116 
L 232.276059 283.985042 
L 232.765232 282.972511 
L 233.254405 282.492177 
L 233.743579 282.510437 
L 234.232752 282.908436 
L 234.721925 284.149686 
L 235.211098 283.210181 
L 235.700272 285.735809 
L 236.189445 285.508297 
L 236.678618 281.266782 
L 237.167792 281.114113 
L 237.656965 283.556578 
L 238.635312 284.132969 
L 239.124485 282.836752 
L 239.613658 285.153178 
L 240.102832 279.860992 
L 240.592005 283.426155 
L 241.081178 282.050819 
L 241.570352 284.721001 
L 242.059525 283.151179 
L 242.548698 282.419989 
L 243.037871 282.739283 
L 243.527045 285.215243 
L 244.016218 282.822816 
L 244.505391 285.283222 
L 245.483738 284.426553 
L 245.972911 284.667864 
L 246.462085 284.608227 
L 246.951258 286.205882 
L 247.440431 285.824007 
L 247.929605 285.131693 
L 248.418778 287.213661 
L 248.907951 283.709119 
L 249.397125 283.071928 
L 249.886298 285.245625 
L 250.375471 286.678918 
L 250.864645 284.469075 
L 251.842991 286.112183 
L 252.332164 285.958797 
L 252.821338 286.70174 
L 253.310511 284.614296 
L 253.799684 283.407425 
L 254.288858 286.479638 
L 254.778031 285.77389 
L 255.267204 288.187812 
L 256.245551 287.806947 
L 257.223898 282.976274 
L 257.713071 285.179458 
L 258.202244 284.376786 
L 258.691418 286.649468 
L 259.180591 287.07569 
L 259.669764 286.186024 
L 260.158937 284.760814 
L 260.648111 288.628306 
L 261.137284 286.453651 
L 261.626457 286.81003 
L 262.115631 286.397978 
L 262.604804 286.164848 
L 263.093977 286.643854 
L 263.583151 288.141912 
L 264.072324 287.741462 
L 264.561497 287.722944 
L 265.050671 287.921229 
L 265.539844 286.233761 
L 266.029017 286.321705 
L 266.518191 286.614991 
L 267.007364 286.538452 
L 267.496537 285.417476 
L 267.985711 287.72535 
L 268.474884 287.93845 
L 268.964057 287.164398 
L 269.45323 288.487491 
L 269.942404 287.099613 
L 270.431577 287.673093 
L 270.92075 288.074457 
L 271.409924 288.117723 
L 271.899097 287.579766 
L 272.38827 288.687142 
L 272.877444 288.913539 
L 273.366617 286.621176 
L 273.85579 288.862844 
L 274.344964 287.13493 
L 274.834137 286.902438 
L 275.32331 288.387262 
L 275.812484 285.813462 
L 276.301657 287.410609 
L 276.79083 287.784422 
L 277.280004 284.768199 
L 277.769177 288.504782 
L 278.25835 286.846361 
L 279.236697 288.279366 
L 279.72587 286.950751 
L 280.215043 288.734431 
L 280.704217 286.67839 
L 281.19339 287.840266 
L 281.682563 288.011444 
L 282.171737 289.115029 
L 282.66091 287.344649 
L 283.150083 288.84581 
L 283.639257 289.093823 
L 284.12843 289.010269 
L 284.617603 289.7957 
L 285.106777 287.378478 
L 285.59595 288.743312 
L 286.085123 287.347328 
L 286.574296 288.12704 
L 287.06347 287.688984 
L 288.041816 288.972292 
L 288.53099 287.478861 
L 289.020163 288.866729 
L 289.509336 288.468207 
L 289.99851 287.598879 
L 290.487683 289.527664 
L 290.976856 290.494403 
L 291.46603 288.364931 
L 291.955203 289.285192 
L 292.444376 288.622743 
L 292.93355 289.685665 
L 294.40107 287.704264 
L 294.890243 285.967669 
L 295.379416 289.861643 
L 295.868589 288.551581 
L 296.357763 288.010283 
L 296.846936 287.953328 
L 297.825283 290.30762 
L 298.314456 287.011861 
L 298.803629 290.046284 
L 299.292803 288.385817 
L 299.781976 288.827915 
L 300.271149 289.496763 
L 300.760323 288.226827 
L 301.249496 288.900467 
L 301.738669 290.082211 
L 302.227843 288.991302 
L 302.717016 289.318095 
L 303.206189 290.84691 
L 303.695362 290.224655 
L 304.184536 287.995695 
L 304.673709 290.280014 
L 305.162882 288.476312 
L 305.652056 288.533037 
L 306.141229 290.549463 
L 306.630402 289.812349 
L 307.119576 288.042386 
L 307.608749 291.724646 
L 308.097922 289.827103 
L 308.587096 290.946074 
L 309.076269 287.67687 
L 309.565442 290.559732 
L 310.054616 288.503765 
L 310.543789 289.146953 
L 311.032962 291.366522 
L 311.522136 288.671439 
L 312.011309 291.235554 
L 312.500482 289.768875 
L 312.989655 290.864581 
L 313.478829 290.846309 
L 313.968002 288.29099 
L 314.457175 289.981475 
L 314.946349 292.334656 
L 315.435522 291.860799 
L 315.924695 289.942618 
L 316.413869 289.52866 
L 316.903042 290.003896 
L 317.392215 291.425366 
L 317.881389 288.059225 
L 318.370562 291.958564 
L 318.859735 292.558561 
L 319.348909 291.144236 
L 319.838082 291.359466 
L 320.327255 288.25547 
L 320.816429 289.712878 
L 321.305602 288.512165 
L 322.283948 292.456566 
L 322.773122 289.959821 
L 323.262295 290.263831 
L 323.751468 289.758579 
L 324.240642 290.689665 
L 324.729815 289.358968 
L 325.218988 290.513386 
L 325.708162 293.214991 
L 326.197335 290.554922 
L 326.686508 290.655045 
L 327.175682 291.579566 
L 327.664855 291.077103 
L 328.154028 289.830796 
L 328.643202 289.590483 
L 329.132375 290.505959 
L 329.621548 290.565411 
L 330.110721 293.091671 
L 330.599895 293.510663 
L 331.089068 292.202495 
L 331.578241 291.299504 
L 332.067415 291.738445 
L 332.556588 291.668642 
L 333.045761 291.024273 
L 333.534935 291.082271 
L 334.024108 292.120872 
L 334.513281 292.738807 
L 335.002455 291.525121 
L 335.491628 291.858974 
L 335.980801 291.797796 
L 336.469975 289.514918 
L 336.959148 292.921154 
L 337.448321 290.263182 
L 337.937495 290.554449 
L 338.426668 291.400961 
L 338.915841 291.295707 
L 339.405014 289.884001 
L 339.894188 293.452715 
L 340.383361 289.667395 
L 340.872534 292.760521 
L 341.361708 292.796831 
L 341.850881 293.40955 
L 342.340054 292.167906 
L 342.829228 292.716334 
L 343.318401 294.269169 
L 343.807574 292.749869 
L 344.296748 290.69953 
L 344.785921 292.417618 
L 345.275094 293.608582 
L 345.764268 292.37714 
L 346.253441 291.861171 
L 346.742614 292.889956 
L 347.231787 290.26109 
L 347.720961 292.141155 
L 348.210134 293.502561 
L 348.699307 293.701711 
L 349.188481 292.154119 
L 349.677654 293.445234 
L 350.166827 289.846881 
L 350.656001 290.913524 
L 351.145174 291.275132 
L 351.634347 290.711777 
L 352.123521 292.258181 
L 352.612694 290.91657 
L 353.101867 292.127845 
L 353.591041 291.834449 
L 354.080214 293.322284 
L 354.569387 294.003272 
L 355.058561 290.4737 
L 355.547734 291.093332 
L 356.036907 289.291484 
L 356.52608 293.125566 
L 357.015254 291.894449 
L 357.504427 292.602843 
L 357.9936 291.218795 
L 358.482774 293.383401 
L 358.971947 294.035025 
L 359.46112 291.740467 
L 359.950294 291.931899 
L 360.439467 292.388003 
L 360.92864 291.855427 
L 361.417814 290.891693 
L 361.906987 291.509953 
L 362.39616 291.402535 
L 362.885334 293.727197 
L 363.374507 293.903134 
L 363.86368 290.030565 
L 364.352854 294.888931 
L 364.842027 293.362133 
L 365.3312 293.40435 
L 365.820373 292.210915 
L 366.309547 295.756829 
L 366.79872 291.113158 
L 367.287893 294.243368 
L 367.777067 292.948505 
L 368.26624 293.043615 
L 368.755413 291.505795 
L 369.244587 291.975992 
L 369.73376 294.091259 
L 370.222933 293.835337 
L 370.712107 291.630097 
L 371.20128 294.089095 
L 371.690453 295.054365 
L 372.179627 293.196652 
L 372.6688 292.63693 
L 373.157973 293.847968 
L 373.647146 292.073358 
L 374.13632 292.994247 
L 374.625493 293.60237 
L 375.114666 293.59767 
L 375.60384 293.288792 
L 376.093013 290.678016 
L 376.582186 294.472473 
L 377.560533 291.421191 
L 378.53888 294.169341 
L 379.028053 292.524476 
L 379.517226 293.83909 
L 380.495573 294.111421 
L 380.984746 292.530917 
L 381.47392 293.113414 
L 381.963093 292.795417 
L 382.452266 293.818605 
L 382.941439 293.156156 
L 383.430613 294.271306 
L 383.919786 294.318494 
L 384.408959 293.774379 
L 384.898133 291.950092 
L 385.387306 294.225809 
L 385.876479 292.357777 
L 386.365653 294.858767 
L 386.854826 293.630865 
L 387.343999 295.361187 
L 387.833173 294.222232 
L 388.322346 295.60024 
L 388.811519 293.937222 
L 389.300693 297.675701 
L 389.789866 295.550257 
L 390.279039 292.830867 
L 390.768213 293.123416 
L 391.257386 293.682054 
L 391.746559 294.665552 
L 392.235732 294.673919 
L 392.724906 292.905692 
L 393.214079 294.269285 
L 393.703252 293.230176 
L 394.192426 295.221028 
L 394.681599 295.03664 
L 395.170772 294.708401 
L 395.659946 294.795087 
L 396.149119 294.592982 
L 396.638292 296.045409 
L 397.127466 294.132976 
L 397.616639 294.753892 
L 398.105812 293.009439 
L 399.084159 293.426533 
L 399.573332 292.149528 
L 400.062505 293.336976 
L 400.551679 292.491097 
L 401.040852 294.269704 
L 401.530025 292.411167 
L 402.019199 292.875753 
L 402.508372 292.395518 
L 403.486719 294.509032 
L 403.975892 296.910015 
L 404.465065 294.673412 
L 404.954239 294.078575 
L 405.443412 295.080763 
L 405.932585 293.198549 
L 406.421759 295.700822 
L 407.400105 295.095221 
L 407.889279 293.440497 
L 408.378452 294.394006 
L 408.867625 294.546642 
L 409.356798 295.858653 
L 409.845972 294.051398 
L 410.335145 293.722962 
L 410.824318 296.298537 
L 411.313492 295.485571 
L 411.802665 293.501173 
L 412.291838 295.137621 
L 412.781012 296.192642 
L 413.270185 293.520823 
L 413.759358 291.550545 
L 414.248532 293.060831 
L 414.737705 293.289623 
L 415.226878 294.318027 
L 415.716052 294.780453 
L 416.205225 295.98897 
L 416.694398 296.278225 
L 417.183571 296.312593 
L 417.672745 293.21576 
L 418.161918 295.364455 
L 418.651091 295.177606 
L 419.140265 295.902 
L 419.629438 292.427503 
L 420.118611 296.415082 
L 420.607785 294.797892 
L 421.096958 292.25801 
L 421.586131 295.773705 
L 422.075305 294.73542 
L 422.564478 295.055408 
L 423.053651 294.479898 
L 423.542825 293.151799 
L 424.031998 295.939093 
L 424.521171 295.105271 
L 425.010345 297.284576 
L 425.499518 294.706786 
L 425.988691 294.368479 
L 426.477864 294.837136 
L 427.456211 295.405085 
L 427.945384 296.281259 
L 428.434558 295.351718 
L 428.923731 295.267379 
L 429.412904 293.490807 
L 429.902078 295.242879 
L 430.391251 293.723873 
L 430.880424 295.87738 
L 431.369598 296.000444 
L 431.858771 294.028738 
L 432.347944 297.100083 
L 432.837118 295.683493 
L 433.326291 296.748674 
L 433.815464 296.236543 
L 434.304638 295.895322 
L 435.282984 294.39628 
L 435.772157 295.852563 
L 436.261331 294.50876 
L 436.750504 296.118112 
L 437.239677 295.199718 
L 437.728851 296.441995 
L 438.707197 293.85844 
L 439.196371 294.784071 
L 439.685544 294.767547 
L 440.174717 297.08854 
L 440.663891 294.939549 
L 441.153064 294.493612 
L 441.642237 295.001988 
L 442.131411 294.913955 
L 442.620584 292.930596 
L 443.109757 296.341209 
L 443.59893 295.448768 
L 444.088104 297.061158 
L 444.577277 297.830777 
L 445.06645 295.924491 
L 445.555624 294.48587 
L 446.044797 297.5279 
L 446.53397 294.334672 
L 447.023144 294.182957 
L 447.512317 294.371133 
L 448.00149 296.030843 
L 448.490664 295.753503 
L 448.979837 296.819883 
L 449.46901 297.380196 
L 449.958184 296.386024 
L 450.447357 296.411347 
L 450.93653 295.981821 
L 451.425704 298.058363 
L 451.914877 294.435524 
L 452.893223 295.368751 
L 453.382397 296.326129 
L 453.87157 293.741569 
L 454.360743 294.416557 
L 454.849917 296.162181 
L 455.33909 297.465816 
L 455.828263 298.139196 
L 456.317437 297.637577 
L 456.80661 297.469922 
L 457.295783 296.615133 
L 457.784957 300.463515 
L 458.27413 295.635527 
L 458.763303 295.635978 
L 459.252477 296.834559 
L 459.74165 296.548915 
L 460.230823 296.705297 
L 460.719996 297.310179 
L 461.698343 295.103488 
L 462.187516 294.807287 
L 462.67669 296.794132 
L 463.165863 299.831957 
L 463.655036 296.902729 
L 464.14421 296.643152 
L 464.633383 297.692212 
L 465.122556 296.945429 
L 465.61173 297.089026 
L 466.100903 296.000978 
L 466.590076 298.368471 
L 467.07925 297.661656 
L 467.568423 295.488278 
L 468.057596 294.914905 
L 468.54677 297.976809 
L 469.035943 297.673286 
L 469.525116 297.734524 
L 470.014289 294.790229 
L 470.503463 295.34583 
L 471.481809 297.526439 
L 471.970983 297.148904 
L 472.460156 297.86067 
L 472.949329 295.931874 
L 473.438503 298.317235 
L 473.927676 298.124973 
L 474.416849 298.236495 
L 474.906023 297.118642 
L 475.395196 299.103399 
L 475.884369 297.862431 
L 476.373543 297.257491 
L 476.862716 296.195233 
L 477.351889 297.46119 
L 477.841063 295.447267 
L 478.330236 297.546777 
L 478.819409 297.60747 
L 479.308582 295.834108 
L 479.797756 296.402307 
L 480.286929 298.10615 
L 480.776102 297.857768 
L 481.265276 297.401321 
L 481.754449 296.66005 
L 482.243622 296.854658 
L 482.732796 296.619255 
L 483.221969 295.62921 
L 483.711142 298.345448 
L 484.200316 295.949369 
L 484.689489 297.185729 
L 485.178662 296.499318 
L 485.667836 297.764038 
L 486.157009 297.71467 
L 486.646182 296.268969 
L 487.135355 297.819929 
L 487.624529 297.2926 
L 488.602875 297.103738 
L 489.092049 298.249201 
L 489.581222 298.971644 
L 491.048742 295.6604 
L 491.537915 298.787278 
L 492.027089 296.188908 
L 492.516262 298.802657 
L 493.005435 296.691041 
L 493.494609 296.758493 
L 493.983782 296.597991 
L 494.472955 296.098116 
L 495.451302 299.041417 
L 495.940475 296.703376 
L 496.429648 298.153671 
L 496.918822 297.963354 
L 497.407995 296.142297 
L 497.897168 298.540646 
L 498.386342 296.424374 
L 498.875515 298.560478 
L 499.364688 298.481924 
L 499.853862 298.275504 
L 500.343035 297.27917 
L 500.832208 298.752482 
L 501.321382 292.864572 
L 501.810555 296.766761 
L 502.299728 297.298857 
L 502.788902 298.289704 
L 503.278075 296.340707 
L 503.767248 296.948178 
L 504.256421 298.616765 
L 504.745595 299.326748 
L 505.234768 299.692707 
L 505.723941 297.732927 
L 506.213115 296.427833 
L 506.702288 297.721085 
L 507.191461 298.003086 
L 507.680635 297.673759 
L 508.169808 296.5521 
L 508.658981 297.592155 
L 509.148155 298.332721 
L 509.637328 298.674504 
L 510.126501 297.686053 
L 510.615675 298.841881 
L 511.104848 297.336956 
L 511.594021 296.312856 
L 512.083195 299.384832 
L 512.572368 298.305408 
L 513.061541 298.065705 
L 513.550714 295.90036 
L 514.039888 296.515243 
L 514.529061 299.379883 
L 515.018234 299.820279 
L 515.507408 298.473449 
L 515.996581 297.648769 
L 516.485754 297.825251 
L 516.974928 296.214642 
L 517.464101 296.000175 
L 517.953274 297.476063 
L 518.931621 299.394398 
L 519.420794 296.917126 
L 519.909968 297.302657 
L 520.399141 298.397754 
L 520.888314 298.889462 
L 521.377488 298.534898 
L 521.866661 298.855588 
L 522.355834 298.725895 
L 522.845007 298.414313 
L 523.334181 295.942365 
L 523.823354 298.139461 
L 524.312527 298.876549 
L 524.801701 298.754451 
L 525.290874 297.118461 
L 525.780047 298.567793 
L 526.269221 298.617976 
L 526.758394 298.193359 
L 527.247567 297.22966 
L 527.736741 296.580193 
L 528.225914 296.383065 
L 528.715087 297.348952 
L 529.204261 297.066726 
L 529.693434 298.79101 
L 530.182607 297.924289 
L 530.67178 302.300732 
L 531.160954 298.901945 
L 531.650127 299.514275 
L 532.628474 297.64168 
L 533.117647 298.616894 
L 533.60682 300.073197 
L 534.095994 297.525859 
L 534.585167 297.448798 
L 535.07434 298.897413 
L 535.563514 297.003194 
L 536.052687 298.595595 
L 536.54186 298.593065 
L 537.031034 298.377128 
L 537.520207 298.69876 
L 538.00938 297.433634 
L 538.498554 296.833973 
L 538.987727 299.563892 
L 539.4769 298.295056 
L 539.966073 301.425575 
L 540.455247 299.213209 
L 540.94442 298.565738 
L 541.433593 298.755862 
L 542.41194 298.203532 
L 542.901113 299.462345 
L 543.390287 298.025536 
L 543.87946 297.972778 
L 544.368633 298.159323 
L 544.857807 298.475345 
L 545.34698 295.651992 
L 545.836153 297.603217 
L 546.325327 298.814953 
L 546.8145 300.870065 
L 547.303673 300.720784 
L 547.792846 297.32597 
L 548.771193 299.954596 
L 549.260366 300.578329 
L 549.74954 298.978381 
L 550.238713 298.653818 
L 550.727886 297.983712 
L 551.21706 299.376768 
L 551.706233 300.106185 
L 552.195406 299.022922 
L 552.68458 298.992435 
L 553.173753 300.844147 
L 553.662926 299.658542 
L 554.1521 297.965699 
L 554.641273 299.753134 
L 555.130446 297.978041 
L 555.61962 299.788415 
L 556.108793 299.922808 
L 556.597966 299.814707 
L 557.576313 298.055831 
L 558.065486 298.529076 
L 558.554659 297.434842 
L 559.043833 298.369108 
L 559.533006 298.679765 
L 560.022179 298.400455 
L 560.511353 299.46779 
L 561.000526 297.357721 
L 561.489699 298.662267 
L 561.978873 299.620649 
L 562.468046 298.649911 
L 562.957219 299.092193 
L 563.446393 296.910507 
L 563.935566 298.599857 
L 564.424739 297.765309 
L 564.913913 301.297398 
L 565.403086 300.167052 
L 565.892259 298.578152 
L 566.870606 298.543148 
L 567.848952 296.490802 
L 568.338126 298.983887 
L 568.827299 298.333435 
L 569.316472 299.214951 
L 569.805646 299.400377 
L 570.294819 297.691781 
L 570.783992 299.80745 
L 571.273166 299.514565 
L 571.762339 298.34005 
L 572.251512 298.79887 
L 572.740686 298.277501 
L 573.229859 298.819269 
L 573.719032 300.315076 
L 574.208205 300.275974 
L 574.697379 300.901586 
L 575.186552 298.940935 
L 575.675725 297.880477 
L 576.164899 298.689262 
L 576.654072 298.576764 
L 577.143245 300.005798 
L 577.632419 298.754671 
L 578.121592 296.027381 
L 578.610765 298.704389 
L 579.099939 298.581198 
L 579.589112 298.582498 
L 580.078285 298.276224 
L 580.567459 300.06501 
L 581.056632 301.132328 
L 581.545805 300.009091 
L 582.034979 299.636408 
L 583.013325 298.205899 
L 583.502498 300.3845 
L 583.991672 297.887163 
L 584.480845 298.838098 
L 584.970018 297.672065 
L 585.459192 300.835778 
L 586.437538 298.147307 
L 586.926712 300.847367 
L 587.415885 299.00991 
L 587.905058 299.174158 
L 588.394232 298.352956 
L 588.883405 299.738749 
L 589.372578 300.057349 
L 589.861752 299.906719 
L 590.350925 298.573471 
L 590.840098 298.26515 
L 591.329271 299.5137 
L 591.818445 298.119676 
L 592.307618 299.419513 
L 592.796791 297.306142 
L 593.285965 299.008708 
L 593.775138 297.612245 
L 594.264311 298.986927 
L 594.753485 298.41418 
L 595.242658 299.403621 
L 595.731831 301.44468 
L 596.221005 301.277217 
L 596.710178 297.50091 
L 597.199351 299.871311 
L 597.688525 297.873316 
L 598.177698 296.357491 
L 598.666871 299.133078 
L 599.645218 301.815285 
L 600.623564 299.047884 
L 601.112738 299.273876 
L 601.601911 298.924771 
L 602.091084 299.186177 
L 602.580258 298.827974 
L 603.069431 299.409582 
L 604.047778 299.000388 
L 604.536951 300.692544 
L 605.515298 299.078714 
L 606.004471 299.036813 
L 606.493644 300.272686 
L 606.982818 299.970229 
L 607.471991 298.416202 
L 607.961164 298.829944 
L 608.450338 300.153857 
L 608.939511 298.558299 
L 609.428684 298.817185 
L 609.917857 300.456251 
L 610.896204 298.359986 
L 611.385377 300.939154 
L 611.874551 301.327789 
L 612.363724 297.037487 
L 612.852897 301.364642 
L 613.342071 299.255046 
L 613.831244 300.144631 
L 614.320417 298.549311 
L 614.809591 299.763244 
L 615.298764 299.842244 
L 615.787937 300.855311 
L 616.277111 299.951386 
L 616.766284 300.70088 
L 617.255457 299.415545 
L 617.74463 299.763398 
L 618.233804 299.306554 
L 618.722977 299.266933 
L 619.21215 299.373617 
L 619.701324 302.645455 
L 620.190497 300.7311 
L 620.67967 299.294256 
L 621.168844 300.989622 
L 621.658017 301.011032 
L 622.14719 299.190174 
L 622.636364 299.502276 
L 622.636364 299.502276 
" style="fill:none;stroke:#1f77b4;stroke-linecap:square;stroke-width:0.5;"/>
   </g>
   <g id="line2d_30">
    <path clip-path="url(#pcd011b16c4)" d="M 115.363636 64.025536 
L 115.85281 70.127471 
L 116.341983 70.783351 
L 116.831156 75.238922 
L 117.32033 74.215661 
L 117.809503 75.486125 
L 118.298676 76.07589 
L 118.78785 82.631106 
L 119.277023 80.337312 
L 119.766196 87.095813 
L 120.25537 89.009568 
L 120.744543 89.538597 
L 121.722889 97.338389 
L 122.212063 96.873109 
L 122.701236 104.015807 
L 123.190409 107.020021 
L 123.679583 111.584806 
L 124.168756 115.020097 
L 124.657929 121.590902 
L 125.147103 125.925589 
L 125.636276 125.815418 
L 126.125449 135.349709 
L 126.614623 141.43415 
L 127.103796 145.667675 
L 127.592969 147.067502 
L 128.082143 155.177734 
L 129.549662 166.9705 
L 130.038836 169.076884 
L 130.528009 174.95625 
L 131.017182 176.21249 
L 131.995529 183.682141 
L 132.484702 185.190394 
L 132.973876 188.20799 
L 133.952222 190.715973 
L 134.441396 193.798127 
L 134.930569 193.68944 
L 135.419742 200.035435 
L 135.908916 199.640034 
L 136.398089 201.80264 
L 136.887262 201.292628 
L 137.865609 206.657537 
L 138.354782 209.344959 
L 138.843955 210.180604 
L 139.822302 210.772175 
L 140.311475 214.055852 
L 140.800649 216.315959 
L 141.289822 216.510523 
L 141.778995 220.337971 
L 142.268169 221.042908 
L 142.757342 220.563088 
L 143.246515 223.621174 
L 143.735689 225.516104 
L 144.224862 225.911411 
L 144.714035 228.049762 
L 145.203209 228.14536 
L 145.692382 230.752726 
L 146.181555 227.72996 
L 146.670729 230.440658 
L 147.159902 229.045467 
L 147.649075 234.88501 
L 148.138248 234.996732 
L 148.627422 236.226817 
L 149.116595 236.769493 
L 149.605768 236.177013 
L 150.094942 237.988295 
L 150.584115 237.789924 
L 151.073288 240.102441 
L 151.562462 240.445956 
L 152.051635 240.556134 
L 152.540808 240.886735 
L 153.029982 243.471642 
L 153.519155 240.518428 
L 154.497502 244.235839 
L 154.986675 246.287486 
L 155.475848 244.923802 
L 155.965021 249.207153 
L 156.454195 247.039474 
L 156.943368 248.228421 
L 157.432541 248.99464 
L 157.921715 248.306903 
L 158.410888 253.039463 
L 158.900061 251.496717 
L 159.389235 253.170788 
L 159.878408 251.39549 
L 160.367581 254.082014 
L 160.856755 251.20842 
L 161.345928 253.438621 
L 161.835101 253.609644 
L 162.324275 254.201972 
L 162.813448 253.492677 
L 163.302621 257.757973 
L 163.791795 259.890994 
L 164.280968 257.489152 
L 164.770141 256.53854 
L 165.259314 257.886064 
L 165.748488 259.905755 
L 166.237661 259.958629 
L 166.726834 262.296814 
L 167.216008 260.81166 
L 167.705181 262.50402 
L 168.194354 259.813468 
L 168.683528 261.938976 
L 169.172701 261.847992 
L 169.661874 265.542021 
L 170.151048 264.896897 
L 171.129394 266.59213 
L 171.618568 266.548225 
L 172.107741 267.68411 
L 172.596914 269.498511 
L 173.086087 267.239283 
L 173.575261 269.140401 
L 174.064434 268.708618 
L 174.553607 269.590542 
L 175.531954 272.05918 
L 176.021127 269.396411 
L 176.510301 273.643482 
L 176.999474 273.229638 
L 177.488647 270.673874 
L 177.977821 272.420009 
L 178.466994 270.06048 
L 178.956167 272.930735 
L 179.445341 271.484238 
L 180.423687 275.22556 
L 180.912861 274.560928 
L 181.402034 273.500492 
L 181.891207 274.013597 
L 182.38038 275.480451 
L 182.869554 276.107135 
L 183.358727 276.372226 
L 183.8479 276.187106 
L 184.337074 275.110265 
L 184.826247 277.561433 
L 185.31542 279.101195 
L 185.804594 278.211097 
L 186.293767 277.630142 
L 187.272114 278.876949 
L 187.761287 279.499256 
L 188.25046 281.166497 
L 188.739634 279.185131 
L 189.71798 280.352586 
L 190.207154 281.272489 
L 190.696327 278.444473 
L 191.1855 281.464107 
L 191.674673 280.488623 
L 192.163847 277.130661 
L 193.631367 280.751073 
L 194.12054 280.273128 
L 194.609713 283.146463 
L 195.098887 283.549933 
L 195.58806 281.410895 
L 196.077233 282.158588 
L 196.566407 281.090939 
L 197.05558 284.356106 
L 197.544753 281.082642 
L 198.033927 284.261162 
L 198.5231 282.291546 
L 199.012273 283.43614 
L 199.501446 281.509409 
L 199.99062 284.453005 
L 200.479793 284.510058 
L 200.968966 285.291647 
L 201.45814 284.520985 
L 201.947313 284.08558 
L 202.436486 286.963661 
L 202.92566 283.710113 
L 203.414833 283.156314 
L 203.904006 283.772204 
L 204.39318 284.86746 
L 204.882353 285.648451 
L 205.371526 284.787709 
L 205.8607 285.6789 
L 206.349873 285.971185 
L 206.839046 284.955779 
L 207.32822 286.908816 
L 207.817393 285.849728 
L 208.306566 285.751273 
L 208.795739 286.03551 
L 209.284913 285.640156 
L 209.774086 286.45082 
L 210.752433 285.95921 
L 211.241606 288.019678 
L 211.730779 285.992182 
L 212.219953 286.361607 
L 212.709126 286.258246 
L 213.198299 288.080971 
L 213.687473 289.427186 
L 214.176646 288.354035 
L 214.665819 289.520926 
L 215.154993 288.412743 
L 215.644166 288.705478 
L 216.133339 287.074041 
L 216.622512 290.128975 
L 217.111686 288.37166 
L 217.600859 285.832442 
L 218.090032 287.401589 
L 218.579206 288.218909 
L 219.557552 286.352315 
L 220.046726 288.654272 
L 220.535899 287.611784 
L 221.025072 288.26828 
L 221.514246 289.983247 
L 222.003419 288.33625 
L 222.492592 289.184215 
L 222.981766 288.584645 
L 223.470939 288.729364 
L 223.960112 290.761949 
L 224.449286 288.505005 
L 224.938459 289.691203 
L 225.427632 285.585095 
L 225.916805 285.742408 
L 226.405979 289.930829 
L 226.895152 288.123775 
L 227.384325 290.158552 
L 227.873499 288.402585 
L 228.362672 288.793456 
L 228.851845 289.622387 
L 229.341019 287.871217 
L 229.830192 288.911663 
L 230.319365 288.411399 
L 230.808539 288.643723 
L 231.786885 290.055276 
L 232.276059 289.748785 
L 232.765232 290.606967 
L 233.254405 291.12004 
L 233.743579 290.045761 
L 234.232752 288.278547 
L 234.721925 291.308605 
L 235.211098 289.545124 
L 235.700272 290.252468 
L 236.189445 290.282291 
L 237.167792 290.54948 
L 238.146138 289.716912 
L 238.635312 290.367004 
L 239.124485 290.498255 
L 239.613658 289.487954 
L 240.102832 289.27657 
L 240.592005 286.883652 
L 241.081178 288.911935 
L 241.570352 287.713877 
L 242.059525 291.056983 
L 242.548698 289.79001 
L 243.037871 289.531008 
L 243.527045 289.51668 
L 244.016218 291.864063 
L 244.505391 289.930495 
L 244.994565 291.270594 
L 245.483738 290.425237 
L 245.972911 291.173382 
L 246.462085 290.902223 
L 246.951258 289.600182 
L 247.440431 291.742663 
L 247.929605 292.794633 
L 248.418778 291.910743 
L 249.397125 292.772742 
L 249.886298 293.114143 
L 250.375471 292.079526 
L 250.864645 290.779783 
L 251.353818 291.300358 
L 251.842991 292.382057 
L 252.332164 291.252675 
L 252.821338 291.67772 
L 253.310511 292.63969 
L 253.799684 294.1565 
L 254.288858 292.276538 
L 254.778031 292.884879 
L 255.267204 292.474121 
L 255.756378 292.272183 
L 256.245551 293.922455 
L 256.734724 292.591943 
L 257.223898 291.624286 
L 257.713071 291.562184 
L 258.202244 292.141714 
L 258.691418 293.317725 
L 259.180591 292.210741 
L 259.669764 291.522011 
L 260.158937 292.448963 
L 260.648111 291.762496 
L 261.137284 291.901751 
L 261.626457 293.659156 
L 262.115631 291.31723 
L 262.604804 292.35984 
L 263.093977 294.011758 
L 263.583151 291.966977 
L 264.072324 292.147896 
L 264.561497 294.979158 
L 265.050671 294.207772 
L 265.539844 291.998039 
L 266.029017 294.081278 
L 266.518191 294.291636 
L 267.007364 292.387549 
L 267.496537 294.195684 
L 267.985711 292.179056 
L 268.964057 293.279234 
L 269.45323 292.849805 
L 269.942404 295.877756 
L 270.431577 293.923455 
L 271.409924 294.346153 
L 271.899097 292.400922 
L 272.38827 294.540793 
L 272.877444 291.494187 
L 273.366617 291.90491 
L 273.85579 293.945869 
L 274.344964 291.585353 
L 274.834137 291.183952 
L 275.32331 296.425005 
L 275.812484 293.375881 
L 276.301657 293.208425 
L 276.79083 294.353182 
L 278.25835 292.989091 
L 278.747523 293.967845 
L 279.236697 293.691873 
L 279.72587 294.461304 
L 280.215043 293.664515 
L 280.704217 293.84906 
L 281.19339 293.581147 
L 281.682563 293.94112 
L 282.171737 294.093307 
L 282.66091 295.092874 
L 283.150083 293.558277 
L 283.639257 294.754543 
L 284.12843 294.831003 
L 284.617603 294.283444 
L 285.106777 294.495025 
L 285.59595 291.881082 
L 286.085123 293.414127 
L 286.574296 292.572974 
L 287.06347 294.659829 
L 287.552643 293.486271 
L 288.041816 294.57727 
L 288.53099 294.339837 
L 289.020163 295.259597 
L 289.509336 293.486128 
L 289.99851 295.582558 
L 290.487683 292.74097 
L 290.976856 294.311243 
L 291.955203 296.042872 
L 292.444376 295.55211 
L 292.93355 294.824403 
L 293.422723 293.674872 
L 294.40107 292.357206 
L 294.890243 291.413038 
L 295.379416 291.788429 
L 296.357763 295.619296 
L 296.846936 293.661334 
L 297.336109 293.090274 
L 297.825283 294.034049 
L 298.314456 293.569665 
L 299.292803 294.841307 
L 299.781976 294.251805 
L 300.271149 294.449022 
L 300.760323 293.822249 
L 301.249496 295.736089 
L 302.227843 293.951601 
L 302.717016 293.551539 
L 303.206189 295.27634 
L 303.695362 293.747411 
L 304.184536 293.631352 
L 304.673709 294.341792 
L 305.162882 295.87264 
L 306.630402 293.676179 
L 307.119576 295.028829 
L 307.608749 295.774576 
L 308.097922 292.398887 
L 308.587096 294.51111 
L 309.076269 294.564985 
L 309.565442 292.584029 
L 310.054616 295.00842 
L 310.543789 293.858805 
L 311.032962 293.346447 
L 311.522136 293.505348 
L 312.011309 294.889174 
L 312.500482 295.50559 
L 312.989655 295.541635 
L 313.478829 296.447054 
L 313.968002 295.964131 
L 314.457175 294.090809 
L 314.946349 294.096337 
L 315.924695 295.260902 
L 316.413869 296.618116 
L 316.903042 295.600647 
L 317.392215 295.619761 
L 317.881389 296.805339 
L 318.370562 297.317708 
L 318.859735 296.480466 
L 319.348909 296.998775 
L 319.838082 296.270212 
L 320.327255 294.979354 
L 320.816429 294.661668 
L 321.305602 295.365011 
L 321.794775 295.015119 
L 322.283948 294.339874 
L 322.773122 294.665737 
L 323.262295 295.129204 
L 323.751468 296.19121 
L 324.240642 294.274995 
L 324.729815 297.592474 
L 325.218988 293.903095 
L 325.708162 294.873603 
L 326.197335 294.601265 
L 326.686508 296.22494 
L 327.175682 295.01589 
L 327.664855 295.948917 
L 328.154028 295.453793 
L 328.643202 296.129276 
L 329.132375 297.365827 
L 329.621548 296.173993 
L 330.110721 296.256394 
L 330.599895 296.746077 
L 331.089068 297.555185 
L 331.578241 294.953497 
L 332.067415 296.175304 
L 332.556588 295.727353 
L 333.045761 296.244541 
L 333.534935 296.216125 
L 334.024108 295.083824 
L 334.513281 293.571157 
L 335.491628 296.489798 
L 335.980801 295.132966 
L 336.469975 295.802161 
L 336.959148 294.430014 
L 337.448321 296.874748 
L 337.937495 295.982553 
L 338.426668 296.498446 
L 338.915841 297.420488 
L 339.405014 296.336917 
L 339.894188 296.093748 
L 340.383361 297.663635 
L 340.872534 297.183191 
L 341.361708 294.040982 
L 341.850881 294.806886 
L 342.340054 295.818631 
L 342.829228 294.498979 
L 343.807574 296.933122 
L 344.785921 298.099555 
L 345.275094 297.073168 
L 345.764268 297.483453 
L 346.253441 296.009108 
L 346.742614 298.057712 
L 347.231787 296.864416 
L 347.720961 294.886422 
L 348.210134 296.581446 
L 348.699307 295.646455 
L 349.677654 297.289337 
L 350.166827 297.014248 
L 350.656001 297.741389 
L 351.145174 295.617127 
L 351.634347 296.357123 
L 352.612694 294.418901 
L 353.101867 296.956924 
L 353.591041 296.548883 
L 354.080214 295.589609 
L 354.569387 295.787618 
L 355.058561 296.654923 
L 355.547734 295.286995 
L 356.52608 296.476681 
L 357.015254 295.927136 
L 357.9936 295.182398 
L 358.482774 296.998261 
L 358.971947 296.872423 
L 359.46112 296.980573 
L 359.950294 296.744556 
L 360.439467 295.945614 
L 361.417814 295.273142 
L 361.906987 296.076544 
L 362.39616 296.040367 
L 362.885334 297.717304 
L 363.374507 298.086479 
L 363.86368 296.008042 
L 364.352854 298.803985 
L 364.842027 296.775493 
L 365.3312 297.573164 
L 365.820373 297.499094 
L 366.309547 297.243988 
L 366.79872 296.036382 
L 367.287893 295.943377 
L 367.777067 295.461503 
L 368.26624 296.203448 
L 368.755413 296.47968 
L 369.244587 297.432778 
L 369.73376 295.921818 
L 370.222933 295.636395 
L 370.712107 297.144521 
L 371.20128 297.545045 
L 371.690453 297.225846 
L 372.179627 294.239218 
L 372.6688 295.522704 
L 373.157973 297.786439 
L 373.647146 297.583524 
L 374.625493 296.733209 
L 375.114666 296.60539 
L 375.60384 297.706842 
L 376.093013 296.38909 
L 376.582186 296.366879 
L 377.07136 297.00014 
L 377.560533 297.942703 
L 378.049706 295.180378 
L 378.53888 297.576096 
L 379.028053 297.474607 
L 379.517226 297.681231 
L 380.0064 295.764004 
L 380.495573 297.981162 
L 380.984746 297.497319 
L 381.47392 298.057467 
L 381.963093 296.992961 
L 382.452266 296.317109 
L 382.941439 297.133194 
L 383.430613 296.295836 
L 384.408959 297.360284 
L 384.898133 296.924645 
L 385.387306 295.494242 
L 385.876479 298.241298 
L 386.365653 296.306312 
L 386.854826 299.3062 
L 387.343999 297.580346 
L 387.833173 298.055849 
L 388.322346 297.134956 
L 388.811519 299.088884 
L 389.300693 297.889061 
L 389.789866 295.447518 
L 390.279039 296.252243 
L 390.768213 297.729436 
L 391.257386 297.669133 
L 391.746559 298.880628 
L 392.235732 296.361799 
L 392.724906 297.79471 
L 393.214079 297.652867 
L 393.703252 297.012427 
L 394.192426 297.97942 
L 394.681599 298.241281 
L 395.170772 296.90165 
L 395.659946 297.562099 
L 396.149119 294.77433 
L 396.638292 297.099357 
L 397.127466 298.538822 
L 397.616639 297.25067 
L 398.105812 298.410973 
L 398.594986 296.394811 
L 399.084159 296.36456 
L 399.573332 297.302598 
L 400.062505 297.805647 
L 400.551679 297.339917 
L 401.040852 299.050774 
L 401.530025 296.463444 
L 402.019199 297.752983 
L 402.508372 296.947276 
L 402.997545 298.097913 
L 403.486719 297.121373 
L 403.975892 297.602966 
L 404.465065 297.292219 
L 404.954239 298.614067 
L 405.443412 297.091722 
L 405.932585 298.209718 
L 406.421759 299.012551 
L 406.910932 296.521161 
L 407.400105 298.007227 
L 407.889279 297.893713 
L 408.378452 298.139329 
L 408.867625 297.44895 
L 409.356798 297.694906 
L 409.845972 298.437638 
L 410.335145 295.576754 
L 411.313492 298.320547 
L 411.802665 297.695875 
L 412.291838 296.005346 
L 412.781012 297.319114 
L 413.270185 296.372917 
L 413.759358 297.393196 
L 414.248532 297.680652 
L 414.737705 296.139609 
L 415.226878 296.581266 
L 415.716052 297.653674 
L 416.205225 296.784177 
L 416.694398 298.698272 
L 417.183571 298.53977 
L 417.672745 299.488572 
L 418.161918 297.145341 
L 418.651091 297.876738 
L 419.140265 297.13409 
L 419.629438 298.405929 
L 420.118611 298.880272 
L 420.607785 298.600602 
L 421.096958 297.500827 
L 421.586131 298.938905 
L 422.075305 296.61202 
L 422.564478 296.431419 
L 423.053651 296.99822 
L 423.542825 297.95584 
L 424.031998 296.465542 
L 424.521171 297.922443 
L 425.010345 297.357155 
L 425.499518 297.13604 
L 425.988691 297.320291 
L 426.477864 295.511584 
L 426.967038 298.884641 
L 427.456211 295.972879 
L 427.945384 299.406691 
L 428.434558 298.311303 
L 428.923731 299.093787 
L 429.412904 298.595895 
L 429.902078 295.495439 
L 430.391251 296.128855 
L 430.880424 298.338395 
L 431.369598 299.231558 
L 431.858771 297.125308 
L 432.347944 296.53033 
L 432.837118 297.437145 
L 433.326291 298.634979 
L 433.815464 298.954904 
L 434.304638 297.357582 
L 434.793811 298.827516 
L 435.282984 297.584869 
L 435.772157 298.504359 
L 436.261331 297.884479 
L 436.750504 298.809124 
L 437.239677 297.537966 
L 437.728851 297.311537 
L 438.218024 297.69516 
L 438.707197 295.1384 
L 439.196371 298.896261 
L 439.685544 296.22544 
L 440.174717 297.162715 
L 441.153064 295.556108 
L 441.642237 296.674262 
L 442.131411 299.290314 
L 442.620584 297.433852 
L 443.109757 297.48939 
L 443.59893 295.526758 
L 444.088104 297.642991 
L 444.577277 298.587634 
L 445.06645 297.650615 
L 445.555624 299.599583 
L 446.044797 297.420332 
L 446.53397 297.725572 
L 447.023144 298.187986 
L 447.512317 296.054198 
L 448.00149 298.736304 
L 448.490664 298.165355 
L 448.979837 298.921936 
L 449.46901 296.90746 
L 449.958184 299.609602 
L 450.447357 300.186688 
L 450.93653 298.968265 
L 451.425704 298.861336 
L 451.914877 299.263269 
L 452.893223 298.489309 
L 453.382397 297.334023 
L 453.87157 298.401119 
L 454.360743 298.258146 
L 454.849917 298.362814 
L 455.33909 298.849252 
L 455.828263 298.614584 
L 456.317437 298.801244 
L 456.80661 299.987477 
L 457.295783 297.374594 
L 457.784957 298.827362 
L 458.27413 299.111281 
L 458.763303 298.482746 
L 459.252477 297.659806 
L 459.74165 298.45113 
L 460.230823 298.344731 
L 460.719996 297.431405 
L 461.20917 297.075577 
L 461.698343 297.106215 
L 462.67669 299.21982 
L 463.165863 298.481855 
L 463.655036 300.302979 
L 464.14421 298.395674 
L 464.633383 299.225519 
L 465.122556 298.15608 
L 465.61173 298.629017 
L 467.568423 297.398251 
L 468.057596 296.752671 
L 468.54677 299.760568 
L 469.035943 297.610502 
L 469.525116 298.239581 
L 470.014289 297.011171 
L 470.503463 298.821414 
L 470.992636 298.544806 
L 471.481809 297.066859 
L 471.970983 298.035147 
L 472.460156 298.37943 
L 472.949329 297.744607 
L 473.438503 296.81082 
L 473.927676 299.816474 
L 474.416849 300.227173 
L 474.906023 297.499611 
L 475.395196 296.509312 
L 475.884369 296.942491 
L 476.373543 298.231963 
L 476.862716 298.450722 
L 477.351889 298.998117 
L 477.841063 297.656273 
L 478.330236 298.113239 
L 478.819409 295.477015 
L 479.308582 297.012921 
L 479.797756 297.472622 
L 480.286929 299.240601 
L 480.776102 298.044116 
L 481.265276 298.788799 
L 481.754449 298.342552 
L 482.243622 297.440231 
L 482.732796 298.206642 
L 483.221969 298.172109 
L 483.711142 298.652639 
L 484.200316 297.307828 
L 484.689489 297.445651 
L 485.178662 297.746712 
L 486.157009 297.901908 
L 486.646182 299.305944 
L 487.135355 297.544726 
L 487.624529 299.339928 
L 488.113702 300.644357 
L 490.070395 298.737788 
L 490.559569 299.440193 
L 491.048742 297.948273 
L 491.537915 297.621648 
L 492.027089 298.006047 
L 492.516262 299.484775 
L 493.005435 299.606086 
L 493.494609 299.348995 
L 493.983782 296.491037 
L 494.962129 297.215622 
L 495.451302 297.783653 
L 495.940475 300.277186 
L 496.429648 297.086167 
L 496.918822 298.876591 
L 497.407995 298.58394 
L 497.897168 298.813927 
L 498.386342 298.048848 
L 498.875515 299.647486 
L 499.364688 298.34667 
L 499.853862 298.620248 
L 500.343035 300.942843 
L 500.832208 297.643535 
L 501.321382 299.423381 
L 501.810555 299.435549 
L 502.788902 298.284047 
L 503.278075 299.23522 
L 503.767248 299.482001 
L 504.256421 300.260345 
L 505.234768 297.968159 
L 505.723941 299.367561 
L 506.213115 299.444209 
L 506.702288 298.576612 
L 507.680635 296.634088 
L 508.169808 297.795455 
L 508.658981 297.349562 
L 509.148155 298.60194 
L 509.637328 298.107298 
L 510.126501 298.305153 
L 511.104848 296.15985 
L 511.594021 297.977355 
L 512.083195 298.255792 
L 512.572368 298.15612 
L 513.061541 297.225503 
L 513.550714 297.826918 
L 514.039888 296.940411 
L 514.529061 299.451458 
L 515.018234 298.646659 
L 515.507408 298.558765 
L 515.996581 297.793584 
L 516.485754 297.319746 
L 516.974928 297.884004 
L 517.464101 298.738313 
L 517.953274 298.518723 
L 518.442448 297.552466 
L 518.931621 298.112469 
L 519.420794 297.737415 
L 519.909968 299.367607 
L 520.399141 297.980009 
L 520.888314 295.542192 
L 521.377488 297.179894 
L 521.866661 297.127519 
L 522.355834 298.487576 
L 522.845007 296.686342 
L 523.334181 297.212202 
L 523.823354 298.526241 
L 524.312527 297.549034 
L 524.801701 297.580758 
L 525.290874 298.317886 
L 525.780047 300.078856 
L 526.269221 299.715601 
L 526.758394 298.22071 
L 527.247567 298.265356 
L 527.736741 296.676119 
L 529.204261 298.904048 
L 529.693434 298.581751 
L 530.182607 299.227237 
L 530.67178 299.323998 
L 531.160954 298.418407 
L 531.650127 298.50642 
L 532.1393 296.333571 
L 532.628474 298.120856 
L 533.117647 298.081786 
L 533.60682 296.97532 
L 534.095994 298.904335 
L 534.585167 299.029388 
L 535.07434 298.057647 
L 535.563514 298.680058 
L 536.052687 296.514046 
L 536.54186 296.28079 
L 537.031034 298.353945 
L 538.00938 296.851223 
L 538.987727 299.034326 
L 539.4769 298.696407 
L 539.966073 298.532015 
L 540.94442 297.96805 
L 541.433593 297.087022 
L 541.922767 297.410028 
L 542.41194 297.295693 
L 542.901113 297.75784 
L 543.390287 299.41786 
L 543.87946 298.745071 
L 544.368633 299.783628 
L 544.857807 298.945823 
L 545.34698 297.657093 
L 545.836153 299.595447 
L 546.325327 299.104291 
L 546.8145 296.7326 
L 547.303673 297.310552 
L 547.792846 298.897264 
L 548.28202 297.573816 
L 548.771193 298.459021 
L 549.260366 298.83345 
L 549.74954 298.715448 
L 550.238713 296.624435 
L 550.727886 296.708375 
L 551.21706 298.148161 
L 551.706233 298.77864 
L 552.195406 299.662065 
L 552.68458 297.659741 
L 553.173753 298.215253 
L 554.1521 298.567148 
L 555.130446 297.277292 
L 555.61962 297.474692 
L 556.108793 297.198147 
L 556.597966 298.83801 
L 557.087139 297.54539 
L 557.576313 299.369992 
L 558.065486 299.104361 
L 558.554659 298.038585 
L 559.043833 295.238248 
L 559.533006 298.469062 
L 560.022179 298.108507 
L 560.511353 298.069538 
L 561.000526 296.881862 
L 561.489699 298.707164 
L 561.978873 296.355597 
L 562.468046 297.663826 
L 562.957219 297.915286 
L 563.446393 297.430469 
L 563.935566 299.259989 
L 564.424739 298.784628 
L 564.913913 296.81017 
L 565.403086 297.793712 
L 565.892259 297.384716 
L 566.381432 298.063849 
L 566.870606 299.449283 
L 567.359779 299.680539 
L 568.338126 298.582828 
L 568.827299 299.527358 
L 569.316472 296.7358 
L 569.805646 298.397797 
L 570.294819 298.093944 
L 570.783992 297.955353 
L 571.273166 300.78489 
L 571.762339 298.117185 
L 572.251512 297.823852 
L 572.740686 297.995277 
L 573.229859 299.937443 
L 573.719032 297.859808 
L 574.208205 297.529548 
L 575.186552 299.874493 
L 575.675725 297.626448 
L 576.164899 298.997231 
L 576.654072 299.796121 
L 577.143245 298.945543 
L 577.632419 296.626339 
L 578.121592 298.812563 
L 578.610765 297.934215 
L 579.099939 297.60449 
L 580.078285 298.74684 
L 580.567459 299.513535 
L 581.056632 297.512767 
L 581.545805 297.547558 
L 582.034979 298.80145 
L 583.013325 298.494035 
L 583.502498 299.079284 
L 583.991672 299.213146 
L 584.480845 298.901085 
L 584.970018 299.82505 
L 585.459192 298.633755 
L 585.948365 297.995797 
L 586.437538 298.004146 
L 586.926712 298.967658 
L 587.415885 300.480945 
L 587.905058 299.015948 
L 588.394232 297.917763 
L 588.883405 298.087975 
L 589.372578 297.777837 
L 589.861752 297.747798 
L 590.350925 299.092345 
L 590.840098 299.25156 
L 591.818445 296.578189 
L 592.307618 298.370183 
L 592.796791 298.347195 
L 593.285965 300.229298 
L 593.775138 297.585463 
L 594.264311 297.327949 
L 595.242658 299.512564 
L 595.731831 297.831246 
L 596.221005 299.043131 
L 596.710178 298.556621 
L 597.199351 298.280117 
L 597.688525 296.388242 
L 598.177698 299.707607 
L 598.666871 298.254204 
L 599.156045 298.583291 
L 599.645218 298.007513 
L 600.134391 298.999353 
L 600.623564 298.333872 
L 601.112738 298.085741 
L 601.601911 298.027556 
L 602.091084 296.618168 
L 602.580258 298.998084 
L 603.069431 297.993302 
L 603.558604 299.161447 
L 604.047778 299.562399 
L 604.536951 298.942995 
L 605.026124 300.633695 
L 605.515298 297.801492 
L 606.004471 298.846307 
L 606.493644 298.973441 
L 606.982818 299.856828 
L 607.471991 298.916732 
L 607.961164 299.935781 
L 608.450338 297.184628 
L 609.428684 298.646609 
L 609.917857 297.520396 
L 610.407031 296.043797 
L 610.896204 298.633412 
L 611.385377 298.048954 
L 611.874551 299.323923 
L 612.363724 297.929934 
L 612.852897 299.461677 
L 613.342071 297.813441 
L 613.831244 299.476823 
L 614.809591 296.832769 
L 615.298764 295.956193 
L 615.787937 299.122853 
L 616.277111 298.635755 
L 616.766284 297.045993 
L 617.255457 299.581443 
L 617.74463 298.132237 
L 618.233804 298.473026 
L 618.722977 297.456272 
L 619.21215 298.2297 
L 619.701324 298.341582 
L 620.190497 298.820113 
L 620.67967 299.840969 
L 621.168844 299.859145 
L 621.658017 297.79559 
L 622.14719 298.032353 
L 622.636364 298.855582 
L 622.636364 298.855582 
" style="fill:none;stroke:#ff7f0e;stroke-linecap:square;stroke-width:0.5;"/>
   </g>
   <g id="patch_3">
    <path d="M 90 315 
L 90 43.2 
" style="fill:none;stroke:#000000;stroke-linecap:square;stroke-linejoin:miter;stroke-width:0.8;"/>
   </g>
   <g id="patch_4">
    <path d="M 648 315 
L 648 43.2 
" style="fill:none;stroke:#000000;stroke-linecap:square;stroke-linejoin:miter;stroke-width:0.8;"/>
   </g>
   <g id="patch_5">
    <path d="M 90 315 
L 648 315 
" style="fill:none;stroke:#000000;stroke-linecap:square;stroke-linejoin:miter;stroke-width:0.8;"/>
   </g>
   <g id="patch_6">
    <path d="M 90 43.2 
L 648 43.2 
" style="fill:none;stroke:#000000;stroke-linecap:square;stroke-linejoin:miter;stroke-width:0.8;"/>
   </g>
   <g id="text_17">
    <!-- loss -->
    <g transform="translate(357.410625 37.2)scale(0.12 -0.12)">
     <use xlink:href="#DejaVuSans-108"/>
     <use x="27.783203" xlink:href="#DejaVuSans-111"/>
     <use x="88.964844" xlink:href="#DejaVuSans-115"/>
     <use x="141.064453" xlink:href="#DejaVuSans-115"/>
    </g>
   </g>
   <g id="legend_1">
    <g id="patch_7">
     <path d="M 568.846875 80.55625 
L 641 80.55625 
Q 643 80.55625 643 78.55625 
L 643 50.2 
Q 643 48.2 641 48.2 
L 568.846875 48.2 
Q 566.846875 48.2 566.846875 50.2 
L 566.846875 78.55625 
Q 566.846875 80.55625 568.846875 80.55625 
z
" style="fill:#ffffff;opacity:0.8;stroke:#cccccc;stroke-linejoin:miter;"/>
    </g>
    <g id="line2d_31">
     <path d="M 570.846875 56.298437 
L 590.846875 56.298437 
" style="fill:none;stroke:#1f77b4;stroke-linecap:square;stroke-width:0.5;"/>
    </g>
    <g id="line2d_32"/>
    <g id="text_18">
     <!-- train -->
     <defs>
      <path d="M 18.3125 70.21875 
L 18.3125 54.6875 
L 36.8125 54.6875 
L 36.8125 47.703125 
L 18.3125 47.703125 
L 18.3125 18.015625 
Q 18.3125 11.328125 20.140625 9.421875 
Q 21.96875 7.515625 27.59375 7.515625 
L 36.8125 7.515625 
L 36.8125 0 
L 27.59375 0 
Q 17.1875 0 13.234375 3.875 
Q 9.28125 7.765625 9.28125 18.015625 
L 9.28125 47.703125 
L 2.6875 47.703125 
L 2.6875 54.6875 
L 9.28125 54.6875 
L 9.28125 70.21875 
z
" id="DejaVuSans-116"/>
      <path d="M 41.109375 46.296875 
Q 39.59375 47.171875 37.8125 47.578125 
Q 36.03125 48 33.890625 48 
Q 26.265625 48 22.1875 43.046875 
Q 18.109375 38.09375 18.109375 28.8125 
L 18.109375 0 
L 9.078125 0 
L 9.078125 54.6875 
L 18.109375 54.6875 
L 18.109375 46.1875 
Q 20.953125 51.171875 25.484375 53.578125 
Q 30.03125 56 36.53125 56 
Q 37.453125 56 38.578125 55.875 
Q 39.703125 55.765625 41.0625 55.515625 
z
" id="DejaVuSans-114"/>
      <path d="M 34.28125 27.484375 
Q 23.390625 27.484375 19.1875 25 
Q 14.984375 22.515625 14.984375 16.5 
Q 14.984375 11.71875 18.140625 8.90625 
Q 21.296875 6.109375 26.703125 6.109375 
Q 34.1875 6.109375 38.703125 11.40625 
Q 43.21875 16.703125 43.21875 25.484375 
L 43.21875 27.484375 
z
M 52.203125 31.203125 
L 52.203125 0 
L 43.21875 0 
L 43.21875 8.296875 
Q 40.140625 3.328125 35.546875 0.953125 
Q 30.953125 -1.421875 24.3125 -1.421875 
Q 15.921875 -1.421875 10.953125 3.296875 
Q 6 8.015625 6 15.921875 
Q 6 25.140625 12.171875 29.828125 
Q 18.359375 34.515625 30.609375 34.515625 
L 43.21875 34.515625 
L 43.21875 35.40625 
Q 43.21875 41.609375 39.140625 45 
Q 35.0625 48.390625 27.6875 48.390625 
Q 23 48.390625 18.546875 47.265625 
Q 14.109375 46.140625 10.015625 43.890625 
L 10.015625 52.203125 
Q 14.9375 54.109375 19.578125 55.046875 
Q 24.21875 56 28.609375 56 
Q 40.484375 56 46.34375 49.84375 
Q 52.203125 43.703125 52.203125 31.203125 
z
" id="DejaVuSans-97"/>
      <path d="M 9.421875 54.6875 
L 18.40625 54.6875 
L 18.40625 0 
L 9.421875 0 
z
M 9.421875 75.984375 
L 18.40625 75.984375 
L 18.40625 64.59375 
L 9.421875 64.59375 
z
" id="DejaVuSans-105"/>
      <path d="M 54.890625 33.015625 
L 54.890625 0 
L 45.90625 0 
L 45.90625 32.71875 
Q 45.90625 40.484375 42.875 44.328125 
Q 39.84375 48.1875 33.796875 48.1875 
Q 26.515625 48.1875 22.3125 43.546875 
Q 18.109375 38.921875 18.109375 30.90625 
L 18.109375 0 
L 9.078125 0 
L 9.078125 54.6875 
L 18.109375 54.6875 
L 18.109375 46.1875 
Q 21.34375 51.125 25.703125 53.5625 
Q 30.078125 56 35.796875 56 
Q 45.21875 56 50.046875 50.171875 
Q 54.890625 44.34375 54.890625 33.015625 
z
" id="DejaVuSans-110"/>
     </defs>
     <g transform="translate(598.846875 59.798437)scale(0.1 -0.1)">
      <use xlink:href="#DejaVuSans-116"/>
      <use x="39.208984" xlink:href="#DejaVuSans-114"/>
      <use x="80.322266" xlink:href="#DejaVuSans-97"/>
      <use x="141.601562" xlink:href="#DejaVuSans-105"/>
      <use x="169.384766" xlink:href="#DejaVuSans-110"/>
     </g>
    </g>
    <g id="line2d_33">
     <path d="M 570.846875 70.976562 
L 590.846875 70.976562 
" style="fill:none;stroke:#ff7f0e;stroke-linecap:square;stroke-width:0.5;"/>
    </g>
    <g id="line2d_34"/>
    <g id="text_19">
     <!-- validate -->
     <defs>
      <path d="M 2.984375 54.6875 
L 12.5 54.6875 
L 29.59375 8.796875 
L 46.6875 54.6875 
L 56.203125 54.6875 
L 35.6875 0 
L 23.484375 0 
z
" id="DejaVuSans-118"/>
      <path d="M 45.40625 46.390625 
L 45.40625 75.984375 
L 54.390625 75.984375 
L 54.390625 0 
L 45.40625 0 
L 45.40625 8.203125 
Q 42.578125 3.328125 38.25 0.953125 
Q 33.9375 -1.421875 27.875 -1.421875 
Q 17.96875 -1.421875 11.734375 6.484375 
Q 5.515625 14.40625 5.515625 27.296875 
Q 5.515625 40.1875 11.734375 48.09375 
Q 17.96875 56 27.875 56 
Q 33.9375 56 38.25 53.625 
Q 42.578125 51.265625 45.40625 46.390625 
z
M 14.796875 27.296875 
Q 14.796875 17.390625 18.875 11.75 
Q 22.953125 6.109375 30.078125 6.109375 
Q 37.203125 6.109375 41.296875 11.75 
Q 45.40625 17.390625 45.40625 27.296875 
Q 45.40625 37.203125 41.296875 42.84375 
Q 37.203125 48.484375 30.078125 48.484375 
Q 22.953125 48.484375 18.875 42.84375 
Q 14.796875 37.203125 14.796875 27.296875 
z
" id="DejaVuSans-100"/>
     </defs>
     <g transform="translate(598.846875 74.476562)scale(0.1 -0.1)">
      <use xlink:href="#DejaVuSans-118"/>
      <use x="59.179688" xlink:href="#DejaVuSans-97"/>
      <use x="120.458984" xlink:href="#DejaVuSans-108"/>
      <use x="148.242188" xlink:href="#DejaVuSans-105"/>
      <use x="176.025391" xlink:href="#DejaVuSans-100"/>
      <use x="239.501953" xlink:href="#DejaVuSans-97"/>
      <use x="300.78125" xlink:href="#DejaVuSans-116"/>
      <use x="339.990234" xlink:href="#DejaVuSans-101"/>
     </g>
    </g>
   </g>
  </g>
 </g>
 <defs>
  <clipPath id="pcd011b16c4">
   <rect height="271.8" width="558" x="90" y="43.2"/>
  </clipPath>
 </defs>
</svg>
