<?xml version="1.0" encoding="utf-8" standalone="no"?>
<!DOCTYPE svg PUBLIC "-//W3C//DTD SVG 1.1//EN"
  "http://www.w3.org/Graphics/SVG/1.1/DTD/svg11.dtd">
<!-- Created with matplotlib (https://matplotlib.org/) -->
<svg height="360pt" version="1.1" viewBox="0 0 720 360" width="720pt" xmlns="http://www.w3.org/2000/svg" xmlns:xlink="http://www.w3.org/1999/xlink">
 <defs>
  <style type="text/css">
*{stroke-linecap:butt;stroke-linejoin:round;}
  </style>
 </defs>
 <g id="figure_1">
  <g id="patch_1">
   <path d="M 0 360 
L 720 360 
L 720 0 
L 0 0 
z
" style="fill:#ffffff;"/>
  </g>
  <g id="axes_1">
   <g id="patch_2">
    <path d="M 90 315 
L 648 315 
L 648 43.2 
L 90 43.2 
z
" style="fill:#ffffff;"/>
   </g>
   <g id="matplotlib.axis_1">
    <g id="xtick_1">
     <g id="line2d_1">
      <path clip-path="url(#p45bc52609a)" d="M 115.363636 315 
L 115.363636 43.2 
" style="fill:none;stroke:#b0b0b0;stroke-linecap:square;stroke-width:0.8;"/>
     </g>
     <g id="line2d_2">
      <defs>
       <path d="M 0 0 
L 0 3.5 
" id="m7e9431960f" style="stroke:#000000;stroke-width:0.8;"/>
      </defs>
      <g>
       <use style="stroke:#000000;stroke-width:0.8;" x="115.363636" xlink:href="#m7e9431960f" y="315"/>
      </g>
     </g>
     <g id="text_1">
      <!-- 0 -->
      <defs>
       <path d="M 31.78125 66.40625 
Q 24.171875 66.40625 20.328125 58.90625 
Q 16.5 51.421875 16.5 36.375 
Q 16.5 21.390625 20.328125 13.890625 
Q 24.171875 6.390625 31.78125 6.390625 
Q 39.453125 6.390625 43.28125 13.890625 
Q 47.125 21.390625 47.125 36.375 
Q 47.125 51.421875 43.28125 58.90625 
Q 39.453125 66.40625 31.78125 66.40625 
z
M 31.78125 74.21875 
Q 44.046875 74.21875 50.515625 64.515625 
Q 56.984375 54.828125 56.984375 36.375 
Q 56.984375 17.96875 50.515625 8.265625 
Q 44.046875 -1.421875 31.78125 -1.421875 
Q 19.53125 -1.421875 13.0625 8.265625 
Q 6.59375 17.96875 6.59375 36.375 
Q 6.59375 54.828125 13.0625 64.515625 
Q 19.53125 74.21875 31.78125 74.21875 
z
" id="DejaVuSans-48"/>
      </defs>
      <g transform="translate(112.182386 329.598437)scale(0.1 -0.1)">
       <use xlink:href="#DejaVuSans-48"/>
      </g>
     </g>
    </g>
    <g id="xtick_2">
     <g id="line2d_3">
      <path clip-path="url(#p45bc52609a)" d="M 219.848235 315 
L 219.848235 43.2 
" style="fill:none;stroke:#b0b0b0;stroke-linecap:square;stroke-width:0.8;"/>
     </g>
     <g id="line2d_4">
      <g>
       <use style="stroke:#000000;stroke-width:0.8;" x="219.848235" xlink:href="#m7e9431960f" y="315"/>
      </g>
     </g>
     <g id="text_2">
      <!-- 200 -->
      <defs>
       <path d="M 19.1875 8.296875 
L 53.609375 8.296875 
L 53.609375 0 
L 7.328125 0 
L 7.328125 8.296875 
Q 12.9375 14.109375 22.625 23.890625 
Q 32.328125 33.6875 34.8125 36.53125 
Q 39.546875 41.84375 41.421875 45.53125 
Q 43.3125 49.21875 43.3125 52.78125 
Q 43.3125 58.59375 39.234375 62.25 
Q 35.15625 65.921875 28.609375 65.921875 
Q 23.96875 65.921875 18.8125 64.3125 
Q 13.671875 62.703125 7.8125 59.421875 
L 7.8125 69.390625 
Q 13.765625 71.78125 18.9375 73 
Q 24.125 74.21875 28.421875 74.21875 
Q 39.75 74.21875 46.484375 68.546875 
Q 53.21875 62.890625 53.21875 53.421875 
Q 53.21875 48.921875 51.53125 44.890625 
Q 49.859375 40.875 45.40625 35.40625 
Q 44.1875 33.984375 37.640625 27.21875 
Q 31.109375 20.453125 19.1875 8.296875 
z
" id="DejaVuSans-50"/>
      </defs>
      <g transform="translate(210.304485 329.598437)scale(0.1 -0.1)">
       <use xlink:href="#DejaVuSans-50"/>
       <use x="63.623047" xlink:href="#DejaVuSans-48"/>
       <use x="127.246094" xlink:href="#DejaVuSans-48"/>
      </g>
     </g>
    </g>
    <g id="xtick_3">
     <g id="line2d_5">
      <path clip-path="url(#p45bc52609a)" d="M 324.332834 315 
L 324.332834 43.2 
" style="fill:none;stroke:#b0b0b0;stroke-linecap:square;stroke-width:0.8;"/>
     </g>
     <g id="line2d_6">
      <g>
       <use style="stroke:#000000;stroke-width:0.8;" x="324.332834" xlink:href="#m7e9431960f" y="315"/>
      </g>
     </g>
     <g id="text_3">
      <!-- 400 -->
      <defs>
       <path d="M 37.796875 64.3125 
L 12.890625 25.390625 
L 37.796875 25.390625 
z
M 35.203125 72.90625 
L 47.609375 72.90625 
L 47.609375 25.390625 
L 58.015625 25.390625 
L 58.015625 17.1875 
L 47.609375 17.1875 
L 47.609375 0 
L 37.796875 0 
L 37.796875 17.1875 
L 4.890625 17.1875 
L 4.890625 26.703125 
z
" id="DejaVuSans-52"/>
      </defs>
      <g transform="translate(314.789084 329.598437)scale(0.1 -0.1)">
       <use xlink:href="#DejaVuSans-52"/>
       <use x="63.623047" xlink:href="#DejaVuSans-48"/>
       <use x="127.246094" xlink:href="#DejaVuSans-48"/>
      </g>
     </g>
    </g>
    <g id="xtick_4">
     <g id="line2d_7">
      <path clip-path="url(#p45bc52609a)" d="M 428.817433 315 
L 428.817433 43.2 
" style="fill:none;stroke:#b0b0b0;stroke-linecap:square;stroke-width:0.8;"/>
     </g>
     <g id="line2d_8">
      <g>
       <use style="stroke:#000000;stroke-width:0.8;" x="428.817433" xlink:href="#m7e9431960f" y="315"/>
      </g>
     </g>
     <g id="text_4">
      <!-- 600 -->
      <defs>
       <path d="M 33.015625 40.375 
Q 26.375 40.375 22.484375 35.828125 
Q 18.609375 31.296875 18.609375 23.390625 
Q 18.609375 15.53125 22.484375 10.953125 
Q 26.375 6.390625 33.015625 6.390625 
Q 39.65625 6.390625 43.53125 10.953125 
Q 47.40625 15.53125 47.40625 23.390625 
Q 47.40625 31.296875 43.53125 35.828125 
Q 39.65625 40.375 33.015625 40.375 
z
M 52.59375 71.296875 
L 52.59375 62.3125 
Q 48.875 64.0625 45.09375 64.984375 
Q 41.3125 65.921875 37.59375 65.921875 
Q 27.828125 65.921875 22.671875 59.328125 
Q 17.53125 52.734375 16.796875 39.40625 
Q 19.671875 43.65625 24.015625 45.921875 
Q 28.375 48.1875 33.59375 48.1875 
Q 44.578125 48.1875 50.953125 41.515625 
Q 57.328125 34.859375 57.328125 23.390625 
Q 57.328125 12.15625 50.6875 5.359375 
Q 44.046875 -1.421875 33.015625 -1.421875 
Q 20.359375 -1.421875 13.671875 8.265625 
Q 6.984375 17.96875 6.984375 36.375 
Q 6.984375 53.65625 15.1875 63.9375 
Q 23.390625 74.21875 37.203125 74.21875 
Q 40.921875 74.21875 44.703125 73.484375 
Q 48.484375 72.75 52.59375 71.296875 
z
" id="DejaVuSans-54"/>
      </defs>
      <g transform="translate(419.273683 329.598437)scale(0.1 -0.1)">
       <use xlink:href="#DejaVuSans-54"/>
       <use x="63.623047" xlink:href="#DejaVuSans-48"/>
       <use x="127.246094" xlink:href="#DejaVuSans-48"/>
      </g>
     </g>
    </g>
    <g id="xtick_5">
     <g id="line2d_9">
      <path clip-path="url(#p45bc52609a)" d="M 533.302032 315 
L 533.302032 43.2 
" style="fill:none;stroke:#b0b0b0;stroke-linecap:square;stroke-width:0.8;"/>
     </g>
     <g id="line2d_10">
      <g>
       <use style="stroke:#000000;stroke-width:0.8;" x="533.302032" xlink:href="#m7e9431960f" y="315"/>
      </g>
     </g>
     <g id="text_5">
      <!-- 800 -->
      <defs>
       <path d="M 31.78125 34.625 
Q 24.75 34.625 20.71875 30.859375 
Q 16.703125 27.09375 16.703125 20.515625 
Q 16.703125 13.921875 20.71875 10.15625 
Q 24.75 6.390625 31.78125 6.390625 
Q 38.8125 6.390625 42.859375 10.171875 
Q 46.921875 13.96875 46.921875 20.515625 
Q 46.921875 27.09375 42.890625 30.859375 
Q 38.875 34.625 31.78125 34.625 
z
M 21.921875 38.8125 
Q 15.578125 40.375 12.03125 44.71875 
Q 8.5 49.078125 8.5 55.328125 
Q 8.5 64.0625 14.71875 69.140625 
Q 20.953125 74.21875 31.78125 74.21875 
Q 42.671875 74.21875 48.875 69.140625 
Q 55.078125 64.0625 55.078125 55.328125 
Q 55.078125 49.078125 51.53125 44.71875 
Q 48 40.375 41.703125 38.8125 
Q 48.828125 37.15625 52.796875 32.3125 
Q 56.78125 27.484375 56.78125 20.515625 
Q 56.78125 9.90625 50.3125 4.234375 
Q 43.84375 -1.421875 31.78125 -1.421875 
Q 19.734375 -1.421875 13.25 4.234375 
Q 6.78125 9.90625 6.78125 20.515625 
Q 6.78125 27.484375 10.78125 32.3125 
Q 14.796875 37.15625 21.921875 38.8125 
z
M 18.3125 54.390625 
Q 18.3125 48.734375 21.84375 45.5625 
Q 25.390625 42.390625 31.78125 42.390625 
Q 38.140625 42.390625 41.71875 45.5625 
Q 45.3125 48.734375 45.3125 54.390625 
Q 45.3125 60.0625 41.71875 63.234375 
Q 38.140625 66.40625 31.78125 66.40625 
Q 25.390625 66.40625 21.84375 63.234375 
Q 18.3125 60.0625 18.3125 54.390625 
z
" id="DejaVuSans-56"/>
      </defs>
      <g transform="translate(523.758282 329.598437)scale(0.1 -0.1)">
       <use xlink:href="#DejaVuSans-56"/>
       <use x="63.623047" xlink:href="#DejaVuSans-48"/>
       <use x="127.246094" xlink:href="#DejaVuSans-48"/>
      </g>
     </g>
    </g>
    <g id="xtick_6">
     <g id="line2d_11">
      <path clip-path="url(#p45bc52609a)" d="M 637.78663 315 
L 637.78663 43.2 
" style="fill:none;stroke:#b0b0b0;stroke-linecap:square;stroke-width:0.8;"/>
     </g>
     <g id="line2d_12">
      <g>
       <use style="stroke:#000000;stroke-width:0.8;" x="637.78663" xlink:href="#m7e9431960f" y="315"/>
      </g>
     </g>
     <g id="text_6">
      <!-- 1000 -->
      <defs>
       <path d="M 12.40625 8.296875 
L 28.515625 8.296875 
L 28.515625 63.921875 
L 10.984375 60.40625 
L 10.984375 69.390625 
L 28.421875 72.90625 
L 38.28125 72.90625 
L 38.28125 8.296875 
L 54.390625 8.296875 
L 54.390625 0 
L 12.40625 0 
z
" id="DejaVuSans-49"/>
      </defs>
      <g transform="translate(625.06163 329.598437)scale(0.1 -0.1)">
       <use xlink:href="#DejaVuSans-49"/>
       <use x="63.623047" xlink:href="#DejaVuSans-48"/>
       <use x="127.246094" xlink:href="#DejaVuSans-48"/>
       <use x="190.869141" xlink:href="#DejaVuSans-48"/>
      </g>
     </g>
    </g>
    <g id="text_7">
     <!-- epoch -->
     <defs>
      <path d="M 56.203125 29.59375 
L 56.203125 25.203125 
L 14.890625 25.203125 
Q 15.484375 15.921875 20.484375 11.0625 
Q 25.484375 6.203125 34.421875 6.203125 
Q 39.59375 6.203125 44.453125 7.46875 
Q 49.3125 8.734375 54.109375 11.28125 
L 54.109375 2.78125 
Q 49.265625 0.734375 44.1875 -0.34375 
Q 39.109375 -1.421875 33.890625 -1.421875 
Q 20.796875 -1.421875 13.15625 6.1875 
Q 5.515625 13.8125 5.515625 26.8125 
Q 5.515625 40.234375 12.765625 48.109375 
Q 20.015625 56 32.328125 56 
Q 43.359375 56 49.78125 48.890625 
Q 56.203125 41.796875 56.203125 29.59375 
z
M 47.21875 32.234375 
Q 47.125 39.59375 43.09375 43.984375 
Q 39.0625 48.390625 32.421875 48.390625 
Q 24.90625 48.390625 20.390625 44.140625 
Q 15.875 39.890625 15.1875 32.171875 
z
" id="DejaVuSans-101"/>
      <path d="M 18.109375 8.203125 
L 18.109375 -20.796875 
L 9.078125 -20.796875 
L 9.078125 54.6875 
L 18.109375 54.6875 
L 18.109375 46.390625 
Q 20.953125 51.265625 25.265625 53.625 
Q 29.59375 56 35.59375 56 
Q 45.5625 56 51.78125 48.09375 
Q 58.015625 40.1875 58.015625 27.296875 
Q 58.015625 14.40625 51.78125 6.484375 
Q 45.5625 -1.421875 35.59375 -1.421875 
Q 29.59375 -1.421875 25.265625 0.953125 
Q 20.953125 3.328125 18.109375 8.203125 
z
M 48.6875 27.296875 
Q 48.6875 37.203125 44.609375 42.84375 
Q 40.53125 48.484375 33.40625 48.484375 
Q 26.265625 48.484375 22.1875 42.84375 
Q 18.109375 37.203125 18.109375 27.296875 
Q 18.109375 17.390625 22.1875 11.75 
Q 26.265625 6.109375 33.40625 6.109375 
Q 40.53125 6.109375 44.609375 11.75 
Q 48.6875 17.390625 48.6875 27.296875 
z
" id="DejaVuSans-112"/>
      <path d="M 30.609375 48.390625 
Q 23.390625 48.390625 19.1875 42.75 
Q 14.984375 37.109375 14.984375 27.296875 
Q 14.984375 17.484375 19.15625 11.84375 
Q 23.34375 6.203125 30.609375 6.203125 
Q 37.796875 6.203125 41.984375 11.859375 
Q 46.1875 17.53125 46.1875 27.296875 
Q 46.1875 37.015625 41.984375 42.703125 
Q 37.796875 48.390625 30.609375 48.390625 
z
M 30.609375 56 
Q 42.328125 56 49.015625 48.375 
Q 55.71875 40.765625 55.71875 27.296875 
Q 55.71875 13.875 49.015625 6.21875 
Q 42.328125 -1.421875 30.609375 -1.421875 
Q 18.84375 -1.421875 12.171875 6.21875 
Q 5.515625 13.875 5.515625 27.296875 
Q 5.515625 40.765625 12.171875 48.375 
Q 18.84375 56 30.609375 56 
z
" id="DejaVuSans-111"/>
      <path d="M 48.78125 52.59375 
L 48.78125 44.1875 
Q 44.96875 46.296875 41.140625 47.34375 
Q 37.3125 48.390625 33.40625 48.390625 
Q 24.65625 48.390625 19.8125 42.84375 
Q 14.984375 37.3125 14.984375 27.296875 
Q 14.984375 17.28125 19.8125 11.734375 
Q 24.65625 6.203125 33.40625 6.203125 
Q 37.3125 6.203125 41.140625 7.25 
Q 44.96875 8.296875 48.78125 10.40625 
L 48.78125 2.09375 
Q 45.015625 0.34375 40.984375 -0.53125 
Q 36.96875 -1.421875 32.421875 -1.421875 
Q 20.0625 -1.421875 12.78125 6.34375 
Q 5.515625 14.109375 5.515625 27.296875 
Q 5.515625 40.671875 12.859375 48.328125 
Q 20.21875 56 33.015625 56 
Q 37.15625 56 41.109375 55.140625 
Q 45.0625 54.296875 48.78125 52.59375 
z
" id="DejaVuSans-99"/>
      <path d="M 54.890625 33.015625 
L 54.890625 0 
L 45.90625 0 
L 45.90625 32.71875 
Q 45.90625 40.484375 42.875 44.328125 
Q 39.84375 48.1875 33.796875 48.1875 
Q 26.515625 48.1875 22.3125 43.546875 
Q 18.109375 38.921875 18.109375 30.90625 
L 18.109375 0 
L 9.078125 0 
L 9.078125 75.984375 
L 18.109375 75.984375 
L 18.109375 46.1875 
Q 21.34375 51.125 25.703125 53.5625 
Q 30.078125 56 35.796875 56 
Q 45.21875 56 50.046875 50.171875 
Q 54.890625 44.34375 54.890625 33.015625 
z
" id="DejaVuSans-104"/>
     </defs>
     <g transform="translate(353.771875 343.276563)scale(0.1 -0.1)">
      <use xlink:href="#DejaVuSans-101"/>
      <use x="61.523438" xlink:href="#DejaVuSans-112"/>
      <use x="125" xlink:href="#DejaVuSans-111"/>
      <use x="186.181641" xlink:href="#DejaVuSans-99"/>
      <use x="241.162109" xlink:href="#DejaVuSans-104"/>
     </g>
    </g>
   </g>
   <g id="matplotlib.axis_2">
    <g id="ytick_1">
     <g id="line2d_13">
      <path clip-path="url(#p45bc52609a)" d="M 90 279.46098 
L 648 279.46098 
" style="fill:none;stroke:#b0b0b0;stroke-linecap:square;stroke-width:0.8;"/>
     </g>
     <g id="line2d_14">
      <defs>
       <path d="M 0 0 
L -3.5 0 
" id="m08d3cfee91" style="stroke:#000000;stroke-width:0.8;"/>
      </defs>
      <g>
       <use style="stroke:#000000;stroke-width:0.8;" x="90" xlink:href="#m08d3cfee91" y="279.46098"/>
      </g>
     </g>
     <g id="text_8">
      <!-- 0.2 -->
      <defs>
       <path d="M 10.6875 12.40625 
L 21 12.40625 
L 21 0 
L 10.6875 0 
z
" id="DejaVuSans-46"/>
      </defs>
      <g transform="translate(67.096875 283.260199)scale(0.1 -0.1)">
       <use xlink:href="#DejaVuSans-48"/>
       <use x="63.623047" xlink:href="#DejaVuSans-46"/>
       <use x="95.410156" xlink:href="#DejaVuSans-50"/>
      </g>
     </g>
    </g>
    <g id="ytick_2">
     <g id="line2d_15">
      <path clip-path="url(#p45bc52609a)" d="M 90 238.172697 
L 648 238.172697 
" style="fill:none;stroke:#b0b0b0;stroke-linecap:square;stroke-width:0.8;"/>
     </g>
     <g id="line2d_16">
      <g>
       <use style="stroke:#000000;stroke-width:0.8;" x="90" xlink:href="#m08d3cfee91" y="238.172697"/>
      </g>
     </g>
     <g id="text_9">
      <!-- 0.4 -->
      <g transform="translate(67.096875 241.971916)scale(0.1 -0.1)">
       <use xlink:href="#DejaVuSans-48"/>
       <use x="63.623047" xlink:href="#DejaVuSans-46"/>
       <use x="95.410156" xlink:href="#DejaVuSans-52"/>
      </g>
     </g>
    </g>
    <g id="ytick_3">
     <g id="line2d_17">
      <path clip-path="url(#p45bc52609a)" d="M 90 196.884414 
L 648 196.884414 
" style="fill:none;stroke:#b0b0b0;stroke-linecap:square;stroke-width:0.8;"/>
     </g>
     <g id="line2d_18">
      <g>
       <use style="stroke:#000000;stroke-width:0.8;" x="90" xlink:href="#m08d3cfee91" y="196.884414"/>
      </g>
     </g>
     <g id="text_10">
      <!-- 0.6 -->
      <g transform="translate(67.096875 200.683633)scale(0.1 -0.1)">
       <use xlink:href="#DejaVuSans-48"/>
       <use x="63.623047" xlink:href="#DejaVuSans-46"/>
       <use x="95.410156" xlink:href="#DejaVuSans-54"/>
      </g>
     </g>
    </g>
    <g id="ytick_4">
     <g id="line2d_19">
      <path clip-path="url(#p45bc52609a)" d="M 90 155.596131 
L 648 155.596131 
" style="fill:none;stroke:#b0b0b0;stroke-linecap:square;stroke-width:0.8;"/>
     </g>
     <g id="line2d_20">
      <g>
       <use style="stroke:#000000;stroke-width:0.8;" x="90" xlink:href="#m08d3cfee91" y="155.596131"/>
      </g>
     </g>
     <g id="text_11">
      <!-- 0.8 -->
      <g transform="translate(67.096875 159.39535)scale(0.1 -0.1)">
       <use xlink:href="#DejaVuSans-48"/>
       <use x="63.623047" xlink:href="#DejaVuSans-46"/>
       <use x="95.410156" xlink:href="#DejaVuSans-56"/>
      </g>
     </g>
    </g>
    <g id="ytick_5">
     <g id="line2d_21">
      <path clip-path="url(#p45bc52609a)" d="M 90 114.307849 
L 648 114.307849 
" style="fill:none;stroke:#b0b0b0;stroke-linecap:square;stroke-width:0.8;"/>
     </g>
     <g id="line2d_22">
      <g>
       <use style="stroke:#000000;stroke-width:0.8;" x="90" xlink:href="#m08d3cfee91" y="114.307849"/>
      </g>
     </g>
     <g id="text_12">
      <!-- 1.0 -->
      <g transform="translate(67.096875 118.107067)scale(0.1 -0.1)">
       <use xlink:href="#DejaVuSans-49"/>
       <use x="63.623047" xlink:href="#DejaVuSans-46"/>
       <use x="95.410156" xlink:href="#DejaVuSans-48"/>
      </g>
     </g>
    </g>
    <g id="ytick_6">
     <g id="line2d_23">
      <path clip-path="url(#p45bc52609a)" d="M 90 73.019566 
L 648 73.019566 
" style="fill:none;stroke:#b0b0b0;stroke-linecap:square;stroke-width:0.8;"/>
     </g>
     <g id="line2d_24">
      <g>
       <use style="stroke:#000000;stroke-width:0.8;" x="90" xlink:href="#m08d3cfee91" y="73.019566"/>
      </g>
     </g>
     <g id="text_13">
      <!-- 1.2 -->
      <g transform="translate(67.096875 76.818784)scale(0.1 -0.1)">
       <use xlink:href="#DejaVuSans-49"/>
       <use x="63.623047" xlink:href="#DejaVuSans-46"/>
       <use x="95.410156" xlink:href="#DejaVuSans-50"/>
      </g>
     </g>
    </g>
    <g id="text_14">
     <!-- loss -->
     <defs>
      <path d="M 9.421875 75.984375 
L 18.40625 75.984375 
L 18.40625 0 
L 9.421875 0 
z
" id="DejaVuSans-108"/>
      <path d="M 44.28125 53.078125 
L 44.28125 44.578125 
Q 40.484375 46.53125 36.375 47.5 
Q 32.28125 48.484375 27.875 48.484375 
Q 21.1875 48.484375 17.84375 46.4375 
Q 14.5 44.390625 14.5 40.28125 
Q 14.5 37.15625 16.890625 35.375 
Q 19.28125 33.59375 26.515625 31.984375 
L 29.59375 31.296875 
Q 39.15625 29.25 43.1875 25.515625 
Q 47.21875 21.78125 47.21875 15.09375 
Q 47.21875 7.46875 41.1875 3.015625 
Q 35.15625 -1.421875 24.609375 -1.421875 
Q 20.21875 -1.421875 15.453125 -0.5625 
Q 10.6875 0.296875 5.421875 2 
L 5.421875 11.28125 
Q 10.40625 8.6875 15.234375 7.390625 
Q 20.0625 6.109375 24.8125 6.109375 
Q 31.15625 6.109375 34.5625 8.28125 
Q 37.984375 10.453125 37.984375 14.40625 
Q 37.984375 18.0625 35.515625 20.015625 
Q 33.0625 21.96875 24.703125 23.78125 
L 21.578125 24.515625 
Q 13.234375 26.265625 9.515625 29.90625 
Q 5.8125 33.546875 5.8125 39.890625 
Q 5.8125 47.609375 11.28125 51.796875 
Q 16.75 56 26.8125 56 
Q 31.78125 56 36.171875 55.265625 
Q 40.578125 54.546875 44.28125 53.078125 
z
" id="DejaVuSans-115"/>
     </defs>
     <g transform="translate(61.017187 188.757812)rotate(-90)scale(0.1 -0.1)">
      <use xlink:href="#DejaVuSans-108"/>
      <use x="27.783203" xlink:href="#DejaVuSans-111"/>
      <use x="88.964844" xlink:href="#DejaVuSans-115"/>
      <use x="141.064453" xlink:href="#DejaVuSans-115"/>
     </g>
    </g>
   </g>
   <g id="line2d_25">
    <path clip-path="url(#p45bc52609a)" d="M 115.363636 55.554545 
L 115.886059 62.651883 
L 116.408482 67.143106 
L 116.930905 66.477672 
L 117.975751 74.853598 
L 118.498174 72.712744 
L 119.020597 77.089885 
L 119.54302 72.92636 
L 120.065443 74.905306 
L 121.110289 76.528989 
L 121.632712 78.098374 
L 122.155135 79.096394 
L 122.677558 81.868841 
L 123.199981 79.568868 
L 123.722404 79.607105 
L 124.244827 82.480646 
L 124.76725 79.958574 
L 125.289673 83.459254 
L 125.812096 84.352902 
L 126.334519 84.638253 
L 126.856942 82.856384 
L 127.379365 84.760166 
L 127.901788 85.269121 
L 128.424211 87.959512 
L 128.946634 86.728086 
L 129.469057 86.286941 
L 129.99148 84.761476 
L 131.036326 87.646168 
L 131.558749 88.438818 
L 132.081172 89.934203 
L 133.126018 89.487391 
L 133.648441 89.904059 
L 134.170864 91.95625 
L 134.693287 91.807439 
L 135.21571 92.066367 
L 135.738133 93.175741 
L 136.260556 93.165301 
L 137.827825 96.331827 
L 138.350248 95.194754 
L 138.872671 95.928138 
L 139.395094 95.199476 
L 139.917517 97.413623 
L 140.43994 97.630899 
L 140.962363 101.352608 
L 141.484786 98.507413 
L 142.007209 104.267332 
L 142.529632 104.397378 
L 143.052055 103.581145 
L 143.574478 104.902688 
L 144.096901 104.538788 
L 144.619324 107.138491 
L 145.141747 105.585692 
L 145.66417 109.020087 
L 146.186593 107.749723 
L 146.709016 111.750667 
L 147.231439 113.155198 
L 147.753862 113.600299 
L 148.798708 115.181729 
L 149.321131 119.675033 
L 149.843554 117.562202 
L 150.8884 121.779165 
L 151.410823 122.074502 
L 152.455669 130.520523 
L 152.978092 129.837718 
L 153.500515 131.093576 
L 154.545361 136.288774 
L 155.067784 136.857209 
L 156.11263 142.362535 
L 156.635053 143.942619 
L 157.157476 148.004297 
L 157.679899 147.947563 
L 158.724745 156.351252 
L 159.247168 156.424385 
L 159.769591 160.877126 
L 160.292014 162.16526 
L 161.33686 162.734784 
L 161.859283 167.274719 
L 162.381706 169.679936 
L 162.904129 170.976266 
L 163.426552 171.9293 
L 164.471398 179.657799 
L 164.993821 179.76139 
L 165.516244 181.012636 
L 166.038667 181.854889 
L 166.56109 187.649451 
L 167.083513 184.810927 
L 167.605936 185.732296 
L 168.128359 189.430738 
L 168.650782 186.056432 
L 169.173205 190.261129 
L 169.695628 192.141014 
L 170.218051 192.528554 
L 170.740474 192.452595 
L 171.262897 191.950253 
L 171.78532 192.969281 
L 172.307743 195.776498 
L 172.830166 194.381084 
L 173.875012 200.76644 
L 174.397435 200.750428 
L 174.919858 197.799235 
L 175.442281 204.547549 
L 175.964704 203.328599 
L 176.487127 199.855913 
L 177.00955 204.032657 
L 177.531973 206.194523 
L 178.054396 207.096807 
L 178.576819 206.367057 
L 179.099242 209.317122 
L 179.621665 211.574159 
L 180.144088 212.752209 
L 180.666511 211.105808 
L 181.188934 213.543788 
L 181.711357 212.937811 
L 182.23378 215.264295 
L 182.756203 213.840737 
L 183.278626 215.230656 
L 183.801049 218.595758 
L 184.323472 218.802193 
L 184.845895 225.054986 
L 185.368318 219.793295 
L 185.890741 219.981639 
L 186.413164 222.88644 
L 186.935587 221.000709 
L 187.45801 225.111742 
L 187.980433 222.706585 
L 188.502856 224.870756 
L 189.025279 226.303894 
L 189.547702 226.878315 
L 190.070125 226.755966 
L 190.592548 224.79923 
L 191.114971 229.090672 
L 191.637394 226.325073 
L 192.159816 227.103404 
L 192.682239 231.90167 
L 193.204662 229.70555 
L 193.727085 232.305865 
L 194.249508 232.631933 
L 194.771931 235.54006 
L 195.294354 234.872562 
L 195.816777 237.902677 
L 196.3392 234.075236 
L 196.861623 235.422538 
L 197.384046 234.665681 
L 197.906469 234.438732 
L 198.428892 240.199695 
L 198.951315 237.060425 
L 199.473738 240.595669 
L 199.996161 238.779544 
L 200.518584 239.657455 
L 201.041007 239.158924 
L 201.56343 243.944427 
L 202.085853 242.229894 
L 202.608276 245.742836 
L 203.130699 244.210289 
L 203.653122 245.647465 
L 204.175545 248.630619 
L 204.697968 244.311494 
L 205.220391 247.946145 
L 205.742814 244.240573 
L 206.265237 247.060253 
L 206.78766 242.887101 
L 207.310083 246.273989 
L 207.832506 246.151155 
L 208.354929 249.497054 
L 209.399775 246.472547 
L 209.922198 246.617927 
L 210.444621 248.201783 
L 210.967044 250.211439 
L 211.489467 247.035615 
L 212.01189 249.954863 
L 212.534313 246.224789 
L 213.056736 248.656845 
L 213.579159 252.846284 
L 214.101582 253.31836 
L 214.624005 250.650787 
L 215.146428 251.521663 
L 215.668851 251.181737 
L 216.191274 253.060142 
L 216.713697 253.817895 
L 217.23612 251.36816 
L 217.758543 252.978326 
L 218.280966 255.002633 
L 218.803389 254.481581 
L 219.325812 255.525564 
L 219.848235 251.68093 
L 220.370658 257.444682 
L 221.415504 252.149074 
L 222.46035 258.198359 
L 222.982773 260.190629 
L 223.505196 257.806586 
L 224.027619 259.539056 
L 224.550042 257.80776 
L 225.072465 254.726465 
L 226.117311 257.505795 
L 226.639734 256.108589 
L 227.162157 260.777444 
L 227.68458 261.066856 
L 228.207003 261.072124 
L 228.729426 265.797591 
L 229.251849 260.369289 
L 229.774272 262.320523 
L 230.296695 259.76109 
L 230.819118 259.641732 
L 231.341541 256.343525 
L 231.863964 259.079957 
L 232.386387 260.84873 
L 232.90881 262.019943 
L 233.431233 261.422116 
L 233.953656 258.835303 
L 234.476079 259.49543 
L 234.998502 260.608641 
L 235.520925 257.864118 
L 236.043348 261.787074 
L 236.565771 261.786426 
L 237.088194 264.231989 
L 237.610617 259.994495 
L 238.13304 261.078967 
L 238.655463 263.565948 
L 239.177886 262.141239 
L 239.700309 263.264067 
L 240.222732 266.621625 
L 240.745155 265.171708 
L 241.267578 261.775813 
L 241.790001 263.945939 
L 242.312424 265.120475 
L 242.834847 263.208221 
L 243.35727 264.883664 
L 243.879693 260.033706 
L 244.402116 265.662177 
L 244.924539 267.725767 
L 245.446962 265.825213 
L 245.969385 266.318402 
L 246.491808 266.352163 
L 247.014231 267.069898 
L 247.536654 266.915171 
L 248.059077 266.368395 
L 248.5815 268.266669 
L 250.148769 263.183308 
L 250.671192 265.540383 
L 251.193615 267.015795 
L 251.716038 268.088455 
L 252.238461 262.797364 
L 252.760884 266.33507 
L 253.283307 268.057119 
L 253.80573 268.574668 
L 254.328153 268.583338 
L 254.850576 267.550212 
L 255.372999 269.690998 
L 255.895422 269.271914 
L 256.417845 265.102784 
L 256.940268 269.833779 
L 257.462691 267.1006 
L 257.985114 266.706619 
L 258.507537 272.166334 
L 259.02996 271.182602 
L 259.552383 266.373532 
L 260.074806 269.583015 
L 260.597229 267.3234 
L 261.119652 268.524213 
L 261.642075 268.509704 
L 262.164498 270.721195 
L 262.686921 272.439404 
L 263.209344 274.793887 
L 263.731767 271.544279 
L 264.25419 272.296943 
L 264.776613 268.022597 
L 265.299036 273.366764 
L 265.821459 270.603391 
L 266.343882 266.96385 
L 266.866305 271.645715 
L 267.388728 269.701877 
L 267.911151 273.026994 
L 268.433574 271.484317 
L 268.955997 273.386877 
L 269.47842 270.98486 
L 270.000843 267.541197 
L 270.523266 271.940083 
L 271.045689 271.858151 
L 271.568112 273.803388 
L 272.090535 268.945587 
L 272.612958 270.955006 
L 273.135381 271.562912 
L 273.657804 270.778996 
L 274.180227 272.764803 
L 274.70265 275.256613 
L 275.225073 269.809668 
L 275.747496 275.79646 
L 276.269919 274.877729 
L 276.792342 275.275973 
L 277.837188 274.730193 
L 278.359611 272.687141 
L 278.882034 273.217642 
L 279.404457 276.404638 
L 279.92688 274.077929 
L 280.449302 272.979152 
L 280.971725 274.063337 
L 281.494148 274.445773 
L 282.016571 272.295055 
L 282.538994 276.003392 
L 283.061417 271.027269 
L 283.58384 276.432685 
L 284.106263 274.663606 
L 285.151109 277.870395 
L 285.673532 274.204354 
L 286.195955 274.68699 
L 286.718378 274.955681 
L 287.240801 273.718125 
L 287.763224 274.27565 
L 288.285647 274.423743 
L 288.80807 275.879118 
L 289.330493 274.501567 
L 289.852916 274.425279 
L 290.375339 274.510097 
L 290.897762 275.849807 
L 291.420185 278.335293 
L 292.465031 271.475874 
L 292.987454 273.525805 
L 293.509877 276.623773 
L 294.0323 276.594404 
L 294.554723 276.940974 
L 295.077146 276.812776 
L 296.121992 280.812851 
L 296.644415 275.238607 
L 297.166838 277.034544 
L 297.689261 275.907469 
L 298.211684 276.345506 
L 298.734107 275.136522 
L 299.25653 276.183998 
L 299.778953 277.555096 
L 300.301376 276.25922 
L 300.823799 279.614783 
L 301.346222 277.798017 
L 301.868645 277.775258 
L 302.391068 277.420704 
L 302.913491 275.879136 
L 303.435914 278.078092 
L 303.958337 277.384415 
L 304.48076 278.027898 
L 305.003183 281.246556 
L 305.525606 277.87174 
L 306.048029 277.170408 
L 306.570452 277.424064 
L 307.092875 279.923705 
L 307.615298 280.382584 
L 308.137721 277.464449 
L 308.660144 278.427763 
L 309.182567 278.04728 
L 309.70499 278.806854 
L 310.227413 278.420569 
L 310.749836 278.533798 
L 311.272259 278.337573 
L 311.794682 277.627218 
L 312.317105 280.994566 
L 312.839528 279.42861 
L 313.361951 278.976425 
L 313.884374 279.320894 
L 314.406797 282.588631 
L 314.92922 280.97465 
L 315.451643 280.11693 
L 315.974066 280.020831 
L 316.496489 283.105556 
L 317.018912 277.310229 
L 317.541335 277.777857 
L 318.063758 280.394789 
L 318.586181 284.274542 
L 319.108604 276.920511 
L 319.631027 282.357377 
L 320.15345 281.331365 
L 320.675873 282.43903 
L 321.198296 280.08587 
L 321.720719 279.535285 
L 322.243142 279.915272 
L 322.765565 282.282118 
L 323.287988 280.861807 
L 323.810411 280.928627 
L 324.332834 279.481091 
L 324.855257 279.600887 
L 325.37768 280.31452 
L 325.900103 282.531616 
L 326.422526 280.975137 
L 326.944949 281.340424 
L 327.467372 280.94046 
L 327.989795 281.840422 
L 328.512218 281.671324 
L 329.034641 284.140773 
L 329.557064 282.811717 
L 330.079487 282.287063 
L 330.60191 285.974487 
L 331.124333 281.116665 
L 331.646756 280.110855 
L 332.169179 281.79734 
L 332.691602 281.858283 
L 333.214025 281.376729 
L 333.736448 282.641052 
L 334.258871 283.238562 
L 334.781294 282.820778 
L 335.303717 280.700721 
L 335.82614 279.996289 
L 336.348563 283.658365 
L 336.870986 281.233778 
L 337.393409 281.84256 
L 337.915832 283.15224 
L 338.438255 281.711401 
L 338.960678 282.66015 
L 339.483101 280.813274 
L 340.005524 283.895942 
L 340.527947 283.878731 
L 341.05037 285.240185 
L 341.572793 281.176071 
L 342.095216 281.358032 
L 342.617639 280.096709 
L 343.140062 281.239498 
L 343.662485 285.354975 
L 344.184908 282.735662 
L 344.707331 284.496682 
L 345.229754 282.403079 
L 345.752177 282.071369 
L 346.2746 282.933241 
L 346.797023 285.528071 
L 347.319446 285.084778 
L 348.364292 282.759411 
L 348.886715 282.923908 
L 349.409138 282.422461 
L 349.931561 285.940933 
L 350.453984 286.848702 
L 350.976407 285.54348 
L 351.49883 281.741908 
L 352.543676 282.131451 
L 353.066099 284.172627 
L 353.588522 280.615965 
L 354.110945 283.736091 
L 354.633368 285.015299 
L 355.155791 285.925411 
L 355.678214 284.994973 
L 356.200637 282.947686 
L 356.72306 285.318981 
L 357.245483 282.566852 
L 357.767906 287.102645 
L 358.290329 289.858067 
L 358.812752 286.091608 
L 359.335175 284.758746 
L 359.857598 285.597537 
L 360.380021 283.62668 
L 360.902444 284.360379 
L 361.424867 283.535735 
L 361.94729 285.649523 
L 362.469713 282.679855 
L 362.992136 287.435082 
L 363.514559 285.126922 
L 364.036982 285.570109 
L 364.559405 285.02427 
L 365.081828 285.360287 
L 365.604251 284.808956 
L 366.126674 281.983569 
L 366.649097 288.710917 
L 367.17152 282.683249 
L 368.216366 287.981724 
L 368.738789 287.872998 
L 369.783634 285.135805 
L 370.306057 289.876676 
L 370.82848 286.67059 
L 371.350903 289.274797 
L 371.873326 286.068312 
L 372.395749 286.916477 
L 372.918172 284.739731 
L 373.440595 289.383989 
L 373.963018 288.13237 
L 374.485441 288.773071 
L 375.007864 285.735916 
L 375.530287 285.752488 
L 376.05271 285.199608 
L 376.575133 286.095081 
L 377.097556 288.03851 
L 377.619979 288.444389 
L 378.142402 285.131183 
L 378.664825 286.38261 
L 379.187248 288.387315 
L 379.709671 286.06079 
L 380.232094 286.544446 
L 381.27694 289.14629 
L 381.799363 288.247139 
L 382.321786 287.986073 
L 382.844209 287.160806 
L 383.366632 286.098743 
L 384.411478 290.698681 
L 384.933901 288.626509 
L 385.456324 288.510707 
L 385.978747 289.194688 
L 386.50117 287.813378 
L 387.023593 287.427824 
L 387.546016 288.570388 
L 388.068439 290.628299 
L 388.590862 286.895762 
L 389.113285 289.123466 
L 389.635708 286.625592 
L 390.158131 289.469171 
L 390.680554 288.120213 
L 391.202977 284.334806 
L 391.7254 286.496442 
L 392.770246 292.63495 
L 393.292669 288.009362 
L 393.815092 286.33327 
L 394.337515 285.849765 
L 394.859938 291.03316 
L 395.382361 288.371301 
L 395.904784 288.750697 
L 396.427207 290.16853 
L 396.94963 288.173186 
L 397.472053 288.723675 
L 397.994476 288.225084 
L 399.039322 288.480103 
L 399.561745 292.446594 
L 400.084168 288.210515 
L 400.606591 288.523194 
L 401.129014 286.327577 
L 401.651437 289.003894 
L 402.17386 287.382529 
L 402.696283 290.250788 
L 403.218706 288.563298 
L 403.741129 290.357985 
L 404.263552 290.936613 
L 404.785975 289.812571 
L 405.308398 292.861247 
L 405.830821 290.607472 
L 406.353244 289.301747 
L 406.875667 292.721863 
L 407.39809 293.23193 
L 407.920513 288.45359 
L 408.442936 289.094429 
L 408.965359 287.790966 
L 409.487782 292.031625 
L 410.010205 288.52012 
L 410.532628 289.691974 
L 411.055051 289.480221 
L 411.577474 291.457443 
L 412.099897 292.712376 
L 412.62232 290.866185 
L 413.144743 292.685359 
L 413.667166 291.686441 
L 414.189589 289.985887 
L 414.712012 291.547817 
L 415.234435 292.516243 
L 415.756858 291.677701 
L 416.279281 287.454131 
L 416.801704 290.864921 
L 417.324127 289.023002 
L 417.84655 290.830182 
L 418.368973 288.686507 
L 418.891396 289.822053 
L 419.413819 288.438191 
L 419.936242 290.95375 
L 420.458665 291.597573 
L 420.981088 290.094021 
L 421.503511 291.961989 
L 422.025934 291.002034 
L 422.548357 289.563721 
L 423.07078 292.621829 
L 423.593203 285.987947 
L 424.115626 292.599108 
L 424.638049 289.642035 
L 425.160472 292.452201 
L 425.682895 293.258539 
L 426.205318 293.785569 
L 426.727741 293.404472 
L 427.250164 289.69885 
L 427.772587 293.204748 
L 428.29501 288.520385 
L 428.817433 290.359691 
L 429.339856 291.643299 
L 430.384702 293.235564 
L 430.907125 291.212894 
L 431.429548 292.439244 
L 431.951971 295.367769 
L 432.474394 290.691276 
L 432.996817 290.06367 
L 433.51924 292.657372 
L 434.041663 289.566622 
L 434.564086 290.915042 
L 435.086509 294.502997 
L 435.608932 292.375867 
L 436.131355 292.889205 
L 436.653778 286.561099 
L 437.176201 293.24907 
L 437.698624 290.370586 
L 438.221047 290.662189 
L 438.74347 294.078744 
L 439.265893 290.917948 
L 439.788316 292.97707 
L 440.310739 291.467334 
L 440.833162 294.285003 
L 441.355585 291.026592 
L 441.878008 294.623221 
L 442.400431 291.732525 
L 442.922854 290.484844 
L 443.445277 290.597608 
L 443.9677 290.201719 
L 444.490123 295.254808 
L 445.012546 292.869885 
L 445.534969 291.962742 
L 446.057392 289.811585 
L 446.579815 294.199045 
L 447.102238 291.900608 
L 447.624661 290.580599 
L 448.147084 290.376997 
L 448.669507 290.844986 
L 449.19193 293.977787 
L 449.714353 294.939525 
L 450.236776 293.407358 
L 450.759199 293.809884 
L 451.281622 294.67886 
L 451.804045 291.41044 
L 452.326468 293.244496 
L 453.371314 288.223925 
L 454.41616 290.276435 
L 454.938583 293.616692 
L 455.461006 292.247212 
L 455.983429 293.205881 
L 456.505852 292.361732 
L 457.028275 292.792095 
L 457.550698 293.941548 
L 458.07312 291.718125 
L 458.595543 291.429191 
L 459.117966 289.571888 
L 459.640389 294.068383 
L 460.162812 295.700358 
L 460.685235 292.119844 
L 461.207658 293.365389 
L 461.730081 292.976619 
L 462.252504 294.856255 
L 462.774927 296.235024 
L 463.29735 295.024205 
L 463.819773 295.100803 
L 464.342196 291.865204 
L 464.864619 293.369567 
L 465.387042 293.352652 
L 465.909465 292.566909 
L 466.431888 294.219429 
L 466.954311 293.309852 
L 467.476734 291.094727 
L 467.999157 295.046814 
L 468.52158 296.049375 
L 469.044003 292.284752 
L 469.566426 292.974692 
L 470.088849 292.245759 
L 471.133695 294.513454 
L 471.656118 293.429071 
L 472.178541 293.548827 
L 472.700964 293.135267 
L 473.223387 292.062388 
L 473.74581 296.774017 
L 474.268233 292.508439 
L 474.790656 293.319488 
L 475.313079 295.875225 
L 475.835502 294.119316 
L 476.357925 294.485865 
L 476.880348 296.127551 
L 477.402771 293.527447 
L 477.925194 294.752164 
L 478.447617 292.396342 
L 478.97004 292.94325 
L 479.492463 295.832614 
L 480.014886 293.108999 
L 480.537309 294.866801 
L 481.582155 295.066076 
L 482.104578 293.760824 
L 482.627001 295.475051 
L 483.149424 294.865983 
L 483.671847 294.039193 
L 484.19427 292.065786 
L 484.716693 295.552378 
L 485.239116 295.480006 
L 485.761539 293.929831 
L 486.283962 293.202885 
L 486.806385 291.614395 
L 487.328808 295.182885 
L 487.851231 293.922473 
L 488.373654 294.354068 
L 488.896077 295.981259 
L 489.4185 295.263193 
L 489.940923 292.618653 
L 490.463346 292.581201 
L 490.985769 295.531803 
L 491.508192 293.563212 
L 492.030615 293.336437 
L 492.553038 294.778583 
L 493.075461 293.772594 
L 493.597884 296.895008 
L 494.64273 294.245133 
L 495.165153 297.33689 
L 495.687576 295.363945 
L 496.732422 294.020281 
L 497.254845 297.322313 
L 497.777268 290.72862 
L 498.299691 295.508306 
L 498.822114 295.099422 
L 499.344537 296.966322 
L 500.389383 297.229369 
L 500.911806 295.40512 
L 501.434229 296.017338 
L 501.956652 293.282999 
L 502.479075 294.653067 
L 503.001498 295.425671 
L 503.523921 294.983245 
L 504.046344 295.846709 
L 504.568767 294.30475 
L 505.09119 296.35725 
L 505.613613 297.009483 
L 506.136036 296.658086 
L 506.658459 293.984953 
L 507.180882 292.888627 
L 507.703305 294.66595 
L 508.225728 299.533264 
L 508.748151 294.765298 
L 509.270574 295.674797 
L 509.792997 295.622719 
L 510.31542 295.267018 
L 510.837843 296.655879 
L 511.360266 296.040641 
L 511.882689 295.694636 
L 512.405112 293.709884 
L 512.927535 295.614856 
L 513.449958 295.604943 
L 513.972381 295.451134 
L 514.494804 295.924939 
L 515.017227 296.127707 
L 515.53965 292.327991 
L 516.062073 295.570156 
L 516.584496 293.387761 
L 517.106919 294.943461 
L 518.151765 295.983214 
L 518.674188 294.736771 
L 519.196611 295.711121 
L 520.241457 294.971077 
L 520.76388 297.57899 
L 521.286303 296.248143 
L 521.808726 296.181842 
L 522.331149 294.971141 
L 522.853572 294.366803 
L 523.898418 297.428633 
L 524.420841 295.823217 
L 524.943264 295.918695 
L 525.465687 294.403156 
L 525.98811 294.757849 
L 526.510533 295.530049 
L 527.032956 295.732961 
L 527.555379 298.616665 
L 528.077802 297.319941 
L 528.600225 294.380633 
L 529.122648 296.488709 
L 529.645071 296.723246 
L 530.167494 297.300712 
L 530.689917 297.030179 
L 531.21234 297.569749 
L 531.734763 295.958078 
L 532.257186 294.843849 
L 532.779609 295.535168 
L 533.302032 297.663508 
L 533.824455 293.710795 
L 534.346878 296.660931 
L 534.869301 294.669228 
L 535.391724 295.129629 
L 535.914147 291.716487 
L 536.43657 296.951863 
L 536.958993 296.39316 
L 537.481416 297.770051 
L 538.003839 296.618658 
L 538.526262 297.034232 
L 539.048685 293.547265 
L 539.571108 295.641953 
L 540.093531 298.59978 
L 540.615954 299.00799 
L 541.138377 293.739159 
L 541.6608 297.370178 
L 542.183223 296.639099 
L 542.705646 297.469967 
L 543.228069 296.919708 
L 543.750492 292.852336 
L 544.272915 298.431137 
L 544.795338 298.389904 
L 545.317761 297.503053 
L 545.840184 296.076439 
L 546.362606 299.497911 
L 546.885029 298.429589 
L 547.407452 296.687018 
L 547.929875 296.834982 
L 548.452298 297.36763 
L 548.974721 300.290268 
L 549.497144 294.211793 
L 550.019567 296.958705 
L 550.54199 297.386681 
L 551.064413 299.578774 
L 551.586836 298.094089 
L 552.109259 295.971838 
L 552.631682 299.119063 
L 553.154105 297.677272 
L 553.676528 298.151627 
L 554.198951 296.540389 
L 554.721374 300.474934 
L 555.243797 297.186083 
L 555.76622 296.746902 
L 556.288643 295.423184 
L 556.811066 299.248219 
L 557.333489 297.520911 
L 557.855912 298.639135 
L 558.378335 296.480879 
L 558.900758 297.043928 
L 559.423181 298.274972 
L 559.945604 297.656918 
L 560.468027 297.769767 
L 560.99045 297.030906 
L 561.512873 299.705783 
L 562.035296 296.872825 
L 562.557719 296.909733 
L 563.080142 298.327297 
L 563.602565 296.225554 
L 564.124988 298.969512 
L 564.647411 295.238627 
L 565.169834 299.81902 
L 565.692257 297.995678 
L 566.21468 299.325125 
L 566.737103 297.845828 
L 567.259526 297.445028 
L 567.781949 297.221471 
L 568.304372 296.270199 
L 568.826795 297.816487 
L 569.349218 296.817786 
L 569.871641 299.818733 
L 570.394064 297.461244 
L 570.916487 297.007079 
L 571.43891 297.864859 
L 571.961333 298.303198 
L 572.483756 297.22391 
L 573.006179 300.673124 
L 573.528602 299.340636 
L 574.051025 297.131029 
L 574.573448 300.225082 
L 575.095871 301.031245 
L 575.618294 299.681435 
L 576.140717 297.052677 
L 576.66314 298.655887 
L 577.185563 297.401368 
L 577.707986 299.814673 
L 578.230409 298.119818 
L 578.752832 299.847426 
L 579.275255 297.976422 
L 579.797678 297.531741 
L 580.320101 298.722232 
L 580.842524 300.437604 
L 581.364947 296.944143 
L 581.88737 297.02898 
L 582.409793 297.633653 
L 582.932216 298.914382 
L 583.454639 300.958966 
L 583.977062 300.179338 
L 584.499485 296.479229 
L 585.021908 299.374878 
L 585.544331 298.639167 
L 586.066754 299.547913 
L 586.589177 301.46021 
L 587.1116 298.844897 
L 587.634023 298.146922 
L 588.156446 299.190432 
L 588.678869 296.959233 
L 589.201292 299.982683 
L 589.723715 297.327686 
L 590.246138 301.773929 
L 590.768561 299.065363 
L 591.290984 299.215704 
L 591.813407 298.621075 
L 592.33583 292.492666 
L 592.858253 300.927398 
L 593.380676 296.852616 
L 593.903099 298.872091 
L 594.425522 297.570948 
L 594.947945 298.633934 
L 595.470368 296.277386 
L 595.992791 298.035311 
L 596.515214 302.645455 
L 597.037637 298.772369 
L 598.604906 300.062908 
L 599.127329 300.121738 
L 599.649752 297.813557 
L 600.172175 300.741699 
L 600.694598 299.527565 
L 601.217021 300.519469 
L 601.739444 294.878152 
L 602.261867 299.206465 
L 602.78429 299.727059 
L 603.306713 301.270415 
L 603.829136 299.874582 
L 604.351559 299.32 
L 604.873982 301.500513 
L 605.396405 298.76865 
L 605.918828 299.950009 
L 606.441251 300.563902 
L 606.963674 298.823721 
L 607.486097 297.653293 
L 608.00852 298.929459 
L 608.530943 299.326546 
L 609.053366 300.512327 
L 609.575789 297.79643 
L 610.098212 299.909985 
L 610.620635 299.466669 
L 611.143058 300.417441 
L 611.665481 298.913042 
L 612.187904 300.247529 
L 612.710327 299.255555 
L 613.23275 301.532668 
L 613.755173 297.506221 
L 614.277596 297.199592 
L 614.800019 299.233968 
L 615.844865 300.189926 
L 616.367288 301.076521 
L 616.889711 299.988982 
L 617.412134 299.796543 
L 617.934557 295.837763 
L 618.45698 300.966522 
L 618.979403 298.901125 
L 619.501826 298.15393 
L 620.024249 299.381101 
L 620.546672 299.647317 
L 621.069095 299.075369 
L 621.591518 299.327836 
L 622.113941 300.559506 
L 622.636364 302.229501 
L 622.636364 302.229501 
" style="fill:none;stroke:#1f77b4;stroke-linecap:square;stroke-width:0.5;"/>
   </g>
   <g id="line2d_26">
    <path clip-path="url(#p45bc52609a)" d="M 115.363636 58.163929 
L 115.886059 65.319466 
L 116.408482 65.395566 
L 116.930905 68.577681 
L 117.975751 74.024265 
L 118.498174 74.79847 
L 119.020597 72.52191 
L 119.54302 72.039551 
L 120.065443 75.917003 
L 120.587866 76.88107 
L 121.110289 76.736706 
L 121.632712 81.482879 
L 122.155135 79.657221 
L 123.199981 78.546308 
L 124.244827 81.286143 
L 124.76725 81.532776 
L 125.289673 78.835406 
L 125.812096 84.762363 
L 126.334519 82.287167 
L 126.856942 82.642842 
L 127.901788 84.321094 
L 128.424211 86.522945 
L 128.946634 85.560159 
L 129.469057 83.87886 
L 129.99148 84.787662 
L 130.513903 85.273791 
L 131.036326 85.150614 
L 132.081172 85.975457 
L 132.603595 88.824485 
L 133.126018 87.884667 
L 133.648441 89.424282 
L 134.170864 90.179902 
L 134.693287 88.622923 
L 135.21571 89.338267 
L 135.738133 87.225742 
L 136.260556 90.155657 
L 136.782979 90.863919 
L 137.305402 93.250259 
L 137.827825 92.972659 
L 138.350248 94.756379 
L 138.872671 94.498774 
L 139.395094 96.432726 
L 139.917517 92.3725 
L 140.43994 93.069911 
L 140.962363 95.54533 
L 141.484786 94.754598 
L 142.529632 98.677112 
L 143.052055 96.626554 
L 144.096901 101.409291 
L 144.619324 100.272586 
L 145.141747 103.445194 
L 145.66417 101.015912 
L 146.186593 102.677945 
L 146.709016 108.088935 
L 147.231439 109.274269 
L 147.753862 108.69427 
L 148.276285 109.937063 
L 148.798708 112.499288 
L 149.321131 112.021549 
L 149.843554 115.783241 
L 150.365977 118.099719 
L 150.8884 118.820983 
L 151.410823 119.031246 
L 151.933246 123.011195 
L 152.455669 121.309978 
L 152.978092 122.191527 
L 153.500515 125.115948 
L 154.022938 130.898894 
L 154.545361 130.860881 
L 155.067784 128.996647 
L 156.635053 140.442514 
L 157.157476 141.922071 
L 157.679899 141.929642 
L 158.724745 147.122269 
L 159.247168 147.420936 
L 159.769591 152.420356 
L 160.292014 159.696451 
L 160.814437 161.161913 
L 161.33686 156.613641 
L 161.859283 159.890374 
L 162.381706 166.621888 
L 162.904129 165.424569 
L 163.426552 165.507429 
L 163.948975 169.108539 
L 165.516244 173.943222 
L 166.038667 174.885228 
L 166.56109 176.560874 
L 167.083513 176.226438 
L 167.605936 183.213886 
L 168.128359 180.579427 
L 168.650782 183.31824 
L 169.173205 184.888865 
L 169.695628 179.628529 
L 170.740474 186.444026 
L 171.262897 185.065346 
L 171.78532 186.610948 
L 172.307743 187.330991 
L 173.352589 193.199013 
L 173.875012 189.988009 
L 174.397435 192.592828 
L 174.919858 198.068132 
L 175.442281 194.623807 
L 176.487127 200.182094 
L 177.00955 197.138322 
L 177.531973 201.287459 
L 178.054396 199.395663 
L 178.576819 198.663606 
L 179.099242 199.372753 
L 179.621665 197.886006 
L 180.144088 204.886892 
L 180.666511 204.922735 
L 181.188934 202.146798 
L 182.23378 207.386389 
L 182.756203 203.43883 
L 183.278626 210.264504 
L 183.801049 209.095442 
L 184.323472 205.390916 
L 184.845895 210.181313 
L 185.368318 210.316527 
L 185.890741 212.688091 
L 186.413164 213.417348 
L 186.935587 215.766379 
L 187.45801 215.74375 
L 187.980433 214.672826 
L 188.502856 214.894858 
L 189.025279 214.271134 
L 189.547702 215.40091 
L 190.070125 213.826043 
L 190.592548 214.186042 
L 191.114971 221.546777 
L 191.637394 215.102642 
L 192.159816 222.282089 
L 192.682239 219.784382 
L 193.204662 220.151001 
L 193.727085 222.246224 
L 194.249508 219.5495 
L 194.771931 222.665797 
L 195.294354 224.595277 
L 195.816777 221.536752 
L 196.861623 229.52942 
L 197.384046 220.603333 
L 197.906469 227.380907 
L 198.428892 228.991511 
L 198.951315 229.149057 
L 199.473738 227.002878 
L 199.996161 229.275642 
L 200.518584 227.097781 
L 201.56343 228.857649 
L 202.085853 230.810131 
L 202.608276 230.255071 
L 203.130699 230.054888 
L 204.175545 232.813056 
L 204.697968 232.152918 
L 205.220391 234.651786 
L 205.742814 236.487892 
L 206.265237 233.617147 
L 206.78766 231.848319 
L 207.310083 235.92794 
L 207.832506 237.456881 
L 208.354929 234.929861 
L 208.877352 236.039876 
L 209.399775 238.703658 
L 209.922198 237.179916 
L 210.444621 237.174988 
L 210.967044 238.415988 
L 211.489467 235.10235 
L 212.01189 237.944243 
L 212.534313 234.798763 
L 213.056736 242.112583 
L 213.579159 236.915803 
L 214.101582 241.262525 
L 214.624005 235.745547 
L 215.146428 240.108513 
L 215.668851 238.790019 
L 216.191274 237.797222 
L 216.713697 245.742123 
L 217.23612 241.01552 
L 217.758543 241.877392 
L 218.280966 243.234545 
L 218.803389 239.457501 
L 219.325812 241.759539 
L 219.848235 245.356309 
L 220.370658 241.408331 
L 220.893081 241.848948 
L 221.415504 244.889653 
L 221.937927 240.406461 
L 222.46035 242.607341 
L 222.982773 242.263588 
L 223.505196 243.661909 
L 224.027619 243.077797 
L 224.550042 244.866131 
L 225.072465 244.938853 
L 225.594888 244.723088 
L 226.117311 248.493688 
L 226.639734 246.337635 
L 227.162157 248.294688 
L 227.68458 241.742994 
L 228.207003 243.426676 
L 228.729426 250.00195 
L 229.251849 244.731296 
L 229.774272 247.876064 
L 230.296695 247.641132 
L 230.819118 249.137094 
L 231.341541 248.046766 
L 231.863964 245.608785 
L 232.386387 246.276908 
L 232.90881 247.938603 
L 233.431233 245.874585 
L 233.953656 247.054874 
L 234.998502 247.222953 
L 235.520925 244.737116 
L 236.043348 248.156198 
L 236.565771 249.526453 
L 237.088194 247.134004 
L 237.610617 249.940531 
L 238.13304 247.701921 
L 238.655463 248.513164 
L 239.177886 246.495883 
L 239.700309 248.697269 
L 240.222732 251.48517 
L 240.745155 244.845073 
L 241.267578 242.991619 
L 241.790001 245.679873 
L 242.312424 247.089832 
L 242.834847 250.826298 
L 243.35727 249.986238 
L 243.879693 246.628465 
L 244.924539 251.939439 
L 245.446962 247.686219 
L 245.969385 250.169079 
L 246.491808 248.968715 
L 247.014231 249.525378 
L 247.536654 249.166546 
L 248.059077 252.744946 
L 248.5815 247.820139 
L 249.103923 249.388772 
L 249.626346 251.983149 
L 250.148769 249.746205 
L 250.671192 249.007761 
L 251.193615 249.833173 
L 251.716038 253.79762 
L 252.238461 250.417563 
L 252.760884 251.862815 
L 253.283307 251.24584 
L 253.80573 252.353756 
L 254.328153 255.184878 
L 254.850576 249.455328 
L 255.372999 250.953778 
L 255.895422 254.744354 
L 256.417845 251.393242 
L 256.940268 251.582387 
L 257.462691 255.861937 
L 258.507537 252.207827 
L 259.02996 250.276359 
L 259.552383 252.349399 
L 260.074806 251.490838 
L 261.119652 253.550157 
L 261.642075 249.996374 
L 262.164498 252.408904 
L 262.686921 255.360609 
L 263.209344 255.889522 
L 264.25419 251.581681 
L 264.776613 253.322103 
L 265.299036 249.995245 
L 265.821459 252.290834 
L 266.343882 251.788615 
L 266.866305 252.3978 
L 267.388728 253.586447 
L 267.911151 251.38895 
L 268.433574 252.029011 
L 268.955997 251.938338 
L 269.47842 252.429547 
L 270.000843 250.945699 
L 270.523266 250.247755 
L 271.045689 251.177218 
L 271.568112 255.674348 
L 273.135381 254.526462 
L 273.657804 252.548356 
L 274.180227 255.87117 
L 274.70265 257.658123 
L 275.225073 251.85824 
L 275.747496 255.312473 
L 276.269919 252.5049 
L 276.792342 254.923259 
L 277.837188 254.358695 
L 278.359611 251.986076 
L 278.882034 254.982027 
L 279.404457 253.429066 
L 279.92688 260.883627 
L 280.449302 256.213984 
L 280.971725 254.875094 
L 281.494148 261.993362 
L 282.016571 255.317962 
L 282.538994 251.181546 
L 283.061417 256.390045 
L 283.58384 256.54577 
L 284.106263 257.825937 
L 284.628686 256.257818 
L 285.151109 256.095797 
L 285.673532 259.438636 
L 286.195955 259.700007 
L 286.718378 254.54881 
L 287.240801 256.818946 
L 287.763224 254.822484 
L 288.285647 253.697195 
L 288.80807 253.332759 
L 289.330493 256.856507 
L 289.852916 257.795719 
L 290.375339 256.749855 
L 290.897762 253.066057 
L 291.420185 255.084212 
L 291.942608 249.291079 
L 292.465031 253.648247 
L 292.987454 253.340867 
L 293.509877 255.39497 
L 294.0323 259.380639 
L 294.554723 253.892505 
L 295.077146 254.605653 
L 296.121992 253.818785 
L 296.644415 255.734496 
L 297.166838 261.5697 
L 297.689261 255.181232 
L 298.211684 254.267823 
L 298.734107 254.246953 
L 299.25653 255.769788 
L 299.778953 254.157391 
L 300.301376 253.102211 
L 300.823799 255.944203 
L 301.346222 255.035006 
L 301.868645 256.763978 
L 302.391068 254.146835 
L 302.913491 259.165135 
L 303.435914 257.766522 
L 303.958337 259.704335 
L 304.48076 258.22043 
L 305.003183 255.612265 
L 306.048029 259.535949 
L 306.570452 255.845163 
L 307.092875 258.240424 
L 307.615298 256.322438 
L 308.137721 256.54536 
L 308.660144 257.46194 
L 309.182567 256.337018 
L 309.70499 257.264354 
L 310.227413 254.61138 
L 310.749836 252.783303 
L 311.272259 258.994984 
L 311.794682 258.287838 
L 312.317105 258.889233 
L 312.839528 254.173013 
L 313.361951 262.430197 
L 313.884374 254.845308 
L 314.92922 259.158448 
L 315.451643 256.453327 
L 315.974066 260.149152 
L 316.496489 259.603228 
L 317.018912 257.395352 
L 317.541335 257.827083 
L 318.063758 261.276156 
L 318.586181 259.09149 
L 319.108604 257.898806 
L 319.631027 260.321409 
L 320.15345 259.117777 
L 320.675873 260.037482 
L 321.198296 260.559856 
L 321.720719 260.793227 
L 322.243142 259.382301 
L 322.765565 261.538369 
L 323.287988 261.484112 
L 323.810411 256.094048 
L 324.332834 259.981226 
L 324.855257 260.679322 
L 325.37768 260.488576 
L 325.900103 258.93939 
L 326.422526 260.801343 
L 326.944949 259.618044 
L 327.467372 256.354812 
L 327.989795 258.160681 
L 328.512218 258.86222 
L 329.034641 262.052856 
L 329.557064 260.744137 
L 330.079487 257.309503 
L 331.124333 261.872751 
L 331.646756 258.003052 
L 332.169179 256.27082 
L 332.691602 258.158579 
L 333.214025 257.648819 
L 333.736448 258.218626 
L 334.258871 259.947233 
L 334.781294 260.968257 
L 335.82614 253.423128 
L 336.348563 255.578747 
L 336.870986 256.690056 
L 337.393409 255.884644 
L 337.915832 256.129527 
L 338.438255 254.918135 
L 338.960678 259.929826 
L 339.483101 258.278879 
L 340.005524 259.322732 
L 340.527947 254.983874 
L 341.05037 257.210247 
L 341.572793 254.271023 
L 342.095216 257.830297 
L 342.617639 255.371661 
L 343.140062 259.780572 
L 343.662485 254.636171 
L 344.184908 260.335011 
L 344.707331 257.931308 
L 345.229754 257.950798 
L 345.752177 262.749166 
L 346.2746 254.581113 
L 346.797023 261.11131 
L 347.319446 261.834336 
L 348.364292 256.02449 
L 348.886715 260.000826 
L 349.409138 260.683441 
L 349.931561 257.082976 
L 350.453984 256.48467 
L 350.976407 261.471301 
L 351.49883 258.896371 
L 352.021253 260.74175 
L 352.543676 262.102935 
L 353.066099 256.078986 
L 353.588522 261.180395 
L 354.110945 261.217818 
L 354.633368 258.589195 
L 355.155791 260.043749 
L 355.678214 262.139493 
L 356.200637 263.182676 
L 356.72306 260.663098 
L 357.245483 261.06521 
L 357.767906 259.306336 
L 358.290329 259.953051 
L 358.812752 262.577449 
L 359.335175 257.013227 
L 359.857598 254.943172 
L 360.902444 262.412947 
L 361.424867 260.293122 
L 361.94729 260.691914 
L 362.469713 261.464493 
L 362.992136 257.465922 
L 363.514559 261.056409 
L 364.036982 262.093173 
L 364.559405 259.913925 
L 365.081828 260.919115 
L 365.604251 262.694736 
L 366.649097 257.142752 
L 367.693943 264.032175 
L 368.216366 259.297812 
L 368.738789 258.058338 
L 369.261211 257.589423 
L 369.783634 262.090195 
L 370.306057 264.963088 
L 370.82848 257.779645 
L 371.350903 258.80012 
L 371.873326 254.456047 
L 372.395749 260.380242 
L 372.918172 257.91824 
L 373.440595 263.446514 
L 373.963018 256.695819 
L 374.485441 257.382882 
L 375.007864 260.008992 
L 375.530287 258.14769 
L 376.05271 255.319435 
L 376.575133 258.725038 
L 377.097556 260.243248 
L 377.619979 259.542524 
L 378.142402 261.249676 
L 378.664825 260.54942 
L 379.187248 260.484309 
L 379.709671 262.996016 
L 380.754517 258.022404 
L 381.27694 261.88481 
L 381.799363 260.51032 
L 382.321786 261.942136 
L 382.844209 258.076792 
L 383.366632 256.800291 
L 383.889055 262.960926 
L 384.411478 257.44282 
L 384.933901 263.564069 
L 385.456324 256.812418 
L 385.978747 261.226151 
L 387.546016 258.414864 
L 388.068439 259.766265 
L 388.590862 257.847607 
L 389.113285 261.321627 
L 389.635708 261.645143 
L 390.158131 262.17627 
L 390.680554 266.358024 
L 391.202977 261.539082 
L 391.7254 262.740102 
L 392.247823 261.872344 
L 392.770246 258.569365 
L 393.292669 258.54613 
L 393.815092 256.548074 
L 394.337515 258.393583 
L 394.859938 262.332389 
L 395.382361 259.584118 
L 395.904784 259.808742 
L 396.427207 264.101824 
L 396.94963 261.811764 
L 397.472053 257.561391 
L 397.994476 260.758938 
L 398.516899 259.0143 
L 399.039322 258.942127 
L 399.561745 256.093796 
L 400.606591 258.976422 
L 401.651437 261.760585 
L 402.17386 258.981376 
L 403.218706 263.121004 
L 403.741129 264.692035 
L 404.263552 264.86697 
L 404.785975 261.260508 
L 405.308398 262.583026 
L 405.830821 262.484165 
L 406.353244 259.905959 
L 406.875667 260.392011 
L 407.39809 256.063631 
L 408.442936 263.04051 
L 408.965359 258.932953 
L 409.487782 259.132644 
L 410.010205 257.148091 
L 410.532628 257.206772 
L 411.055051 260.218108 
L 411.577474 263.892254 
L 412.099897 259.487001 
L 412.62232 253.650731 
L 413.144743 262.952759 
L 413.667166 262.450915 
L 414.189589 258.45923 
L 414.712012 258.504364 
L 415.234435 256.784782 
L 415.756858 256.554209 
L 416.279281 256.73526 
L 416.801704 258.171509 
L 417.324127 260.366876 
L 417.84655 257.501759 
L 418.368973 259.606428 
L 418.891396 262.37857 
L 419.936242 256.403395 
L 420.981088 261.755692 
L 421.503511 263.626465 
L 422.025934 256.069171 
L 422.548357 255.629135 
L 423.07078 262.30345 
L 423.593203 258.829229 
L 424.115626 259.320727 
L 424.638049 260.643133 
L 425.160472 263.711624 
L 425.682895 266.113973 
L 426.205318 261.804124 
L 426.727741 260.883661 
L 427.250164 257.465171 
L 427.772587 264.756427 
L 428.29501 258.840643 
L 428.817433 261.83334 
L 429.862279 264.06713 
L 430.384702 259.357841 
L 430.907125 262.636597 
L 431.429548 259.490111 
L 431.951971 258.051122 
L 432.996817 260.858763 
L 433.51924 257.493837 
L 434.041663 258.521303 
L 434.564086 261.463518 
L 435.086509 261.881712 
L 435.608932 257.850084 
L 436.131355 260.412954 
L 436.653778 264.107376 
L 437.176201 258.60949 
L 437.698624 258.27089 
L 438.221047 258.516077 
L 438.74347 262.850699 
L 439.265893 259.771634 
L 439.788316 261.046643 
L 440.310739 258.499558 
L 440.833162 259.30139 
L 441.355585 262.728966 
L 441.878008 261.816431 
L 442.400431 260.098357 
L 442.922854 262.562911 
L 443.445277 258.358868 
L 443.9677 258.618794 
L 444.490123 254.374966 
L 445.012546 260.660043 
L 445.534969 263.883788 
L 446.057392 258.170878 
L 446.579815 257.898035 
L 447.102238 257.030836 
L 447.624661 256.710871 
L 448.147084 260.27053 
L 448.669507 259.05925 
L 449.19193 259.047899 
L 449.714353 258.817686 
L 450.236776 262.763413 
L 450.759199 262.052385 
L 451.281622 262.706805 
L 451.804045 258.669899 
L 452.848891 261.666219 
L 453.371314 256.908649 
L 453.893737 262.584521 
L 454.41616 263.849083 
L 454.938583 266.065922 
L 455.461006 265.447368 
L 455.983429 260.925726 
L 456.505852 260.412601 
L 457.028275 260.684102 
L 457.550698 258.538244 
L 458.07312 259.470025 
L 458.595543 262.373797 
L 459.117966 264.584915 
L 459.640389 261.824066 
L 460.162812 263.534082 
L 460.685235 260.842012 
L 461.207658 260.492292 
L 461.730081 263.390965 
L 462.252504 261.030142 
L 462.774927 262.236659 
L 463.29735 262.006335 
L 463.819773 262.278639 
L 464.342196 261.278422 
L 464.864619 262.005351 
L 465.387042 261.382963 
L 465.909465 265.568407 
L 466.954311 260.154067 
L 467.476734 261.792154 
L 467.999157 258.887612 
L 468.52158 263.056888 
L 469.044003 263.186503 
L 470.088849 259.805576 
L 470.611272 264.10082 
L 471.133695 259.030262 
L 471.656118 260.925903 
L 472.178541 264.279257 
L 472.700964 264.224422 
L 473.223387 258.71953 
L 473.74581 265.668962 
L 474.268233 261.680652 
L 474.790656 261.41095 
L 475.313079 265.068383 
L 475.835502 259.600458 
L 476.357925 260.913266 
L 476.880348 256.675114 
L 477.925194 261.277687 
L 478.447617 260.433642 
L 478.97004 265.552511 
L 479.492463 259.456055 
L 480.014886 263.929869 
L 480.537309 260.173287 
L 481.059732 263.254287 
L 481.582155 260.843344 
L 482.104578 264.457749 
L 482.627001 255.806071 
L 483.149424 262.212445 
L 483.671847 260.276626 
L 484.19427 265.556248 
L 484.716693 261.971845 
L 485.239116 263.241974 
L 485.761539 262.857585 
L 486.283962 263.512411 
L 486.806385 261.362726 
L 487.328808 262.946507 
L 487.851231 260.316669 
L 488.373654 262.271158 
L 488.896077 265.620695 
L 489.4185 259.251235 
L 489.940923 261.577211 
L 490.463346 266.841448 
L 490.985769 260.985646 
L 491.508192 261.358744 
L 492.030615 267.874955 
L 492.553038 259.803823 
L 493.075461 267.002542 
L 493.597884 262.56637 
L 494.120307 259.265361 
L 494.64273 259.898155 
L 495.165153 261.86345 
L 495.687576 261.368431 
L 496.732422 259.832043 
L 497.254845 264.93159 
L 497.777268 259.481174 
L 498.299691 261.315166 
L 498.822114 260.32198 
L 499.344537 258.06413 
L 499.86696 262.561804 
L 500.389383 263.65333 
L 500.911806 258.978859 
L 501.434229 258.082377 
L 501.956652 262.062889 
L 502.479075 257.908479 
L 503.001498 256.700789 
L 503.523921 263.385581 
L 504.046344 258.625943 
L 504.568767 260.934329 
L 505.09119 257.800268 
L 505.613613 264.157056 
L 506.136036 263.300744 
L 506.658459 260.765687 
L 507.180882 264.788154 
L 507.703305 258.367935 
L 508.225728 259.163434 
L 508.748151 259.223991 
L 509.270574 258.355845 
L 509.792997 256.691737 
L 510.31542 261.788543 
L 510.837843 259.214167 
L 511.360266 264.499315 
L 511.882689 263.237413 
L 512.405112 258.647684 
L 512.927535 262.592117 
L 513.449958 262.178763 
L 513.972381 264.811864 
L 514.494804 258.668596 
L 515.017227 261.669304 
L 515.53965 260.672066 
L 516.062073 260.705794 
L 516.584496 260.504644 
L 517.106919 256.372494 
L 517.629342 262.213223 
L 518.151765 262.311773 
L 518.674188 261.969939 
L 519.196611 264.348009 
L 519.719034 263.431784 
L 520.241457 263.446006 
L 520.76388 262.785852 
L 521.808726 266.249745 
L 522.331149 264.005021 
L 522.853572 262.281475 
L 523.375995 264.186021 
L 523.898418 261.082829 
L 524.420841 259.070655 
L 524.943264 262.589484 
L 525.465687 259.06818 
L 525.98811 261.232221 
L 527.032956 262.416931 
L 527.555379 262.598228 
L 528.077802 263.496938 
L 528.600225 257.968238 
L 529.122648 260.843508 
L 529.645071 258.217272 
L 530.167494 261.599583 
L 530.689917 259.615289 
L 531.21234 259.12006 
L 532.257186 257.66435 
L 532.779609 260.131703 
L 533.302032 261.484773 
L 533.824455 263.860233 
L 534.346878 260.706422 
L 534.869301 260.813798 
L 535.391724 263.432424 
L 535.914147 257.984039 
L 536.43657 262.80569 
L 536.958993 264.916802 
L 537.481416 259.214865 
L 538.003839 264.038405 
L 538.526262 260.752335 
L 539.048685 261.948565 
L 539.571108 261.679181 
L 540.093531 262.360446 
L 540.615954 264.872875 
L 541.6608 257.473269 
L 542.183223 259.620656 
L 542.705646 260.83341 
L 543.228069 259.92735 
L 543.750492 261.04629 
L 544.272915 264.839295 
L 544.795338 263.772955 
L 545.317761 261.440414 
L 545.840184 260.330071 
L 546.362606 258.000312 
L 546.885029 260.713908 
L 547.407452 261.825055 
L 547.929875 258.712727 
L 548.452298 261.004221 
L 548.974721 262.595433 
L 549.497144 262.236291 
L 550.019567 256.431384 
L 550.54199 262.253504 
L 551.064413 261.863994 
L 551.586836 262.162829 
L 552.109259 265.557237 
L 552.631682 257.453748 
L 553.676528 264.938023 
L 554.198951 261.333103 
L 554.721374 258.67884 
L 555.243797 258.818507 
L 555.76622 262.201907 
L 556.288643 263.179383 
L 556.811066 259.658058 
L 557.333489 260.135357 
L 557.855912 262.688561 
L 558.378335 257.324855 
L 558.900758 261.55708 
L 559.423181 264.074969 
L 559.945604 262.935273 
L 560.468027 257.252831 
L 560.99045 262.620108 
L 561.512873 260.955722 
L 562.035296 261.361411 
L 562.557719 257.963854 
L 563.080142 263.40517 
L 563.602565 258.654486 
L 564.124988 261.760666 
L 564.647411 259.041735 
L 565.169834 258.828487 
L 565.692257 257.618371 
L 566.21468 258.340412 
L 566.737103 262.334934 
L 567.259526 264.011286 
L 567.781949 257.507536 
L 568.826795 264.391403 
L 569.349218 264.41484 
L 569.871641 261.622039 
L 570.394064 261.939072 
L 570.916487 261.910174 
L 571.43891 260.890745 
L 571.961333 261.625808 
L 572.483756 257.903656 
L 573.006179 257.932701 
L 573.528602 257.196338 
L 574.051025 260.830507 
L 574.573448 263.588014 
L 575.095871 256.997319 
L 575.618294 261.647626 
L 576.140717 262.281899 
L 576.66314 255.22724 
L 577.185563 258.677014 
L 577.707986 261.062597 
L 578.230409 258.923124 
L 578.752832 260.244027 
L 579.275255 260.598363 
L 579.797678 256.752363 
L 580.320101 258.269252 
L 580.842524 261.778672 
L 581.364947 259.588405 
L 581.88737 261.647139 
L 582.409793 258.706893 
L 582.932216 261.149096 
L 583.454639 258.88124 
L 583.977062 261.112266 
L 584.499485 258.177952 
L 585.021908 258.06238 
L 585.544331 258.775613 
L 586.066754 260.887514 
L 586.589177 257.333046 
L 587.1116 260.013959 
L 587.634023 259.817 
L 588.156446 260.903385 
L 588.678869 261.3787 
L 589.201292 258.842394 
L 589.723715 262.118284 
L 590.246138 261.840654 
L 590.768561 260.107904 
L 591.290984 262.11287 
L 591.813407 265.255653 
L 592.33583 264.683772 
L 592.858253 259.90911 
L 593.380676 261.431066 
L 593.903099 260.339575 
L 594.425522 260.520862 
L 594.947945 264.70729 
L 595.470368 255.637162 
L 596.515214 261.377795 
L 597.037637 257.863034 
L 597.56006 257.601568 
L 598.082483 261.283994 
L 598.604906 259.122872 
L 599.127329 262.526805 
L 599.649752 259.279211 
L 600.694598 256.504231 
L 601.217021 259.793724 
L 601.739444 265.406649 
L 602.261867 259.466185 
L 602.78429 260.870279 
L 603.306713 260.269018 
L 603.829136 256.121289 
L 604.351559 257.438531 
L 604.873982 264.41208 
L 605.396405 259.911109 
L 605.918828 256.750369 
L 606.441251 266.647816 
L 607.486097 257.02495 
L 608.00852 258.874259 
L 608.530943 261.613228 
L 609.053366 258.02042 
L 609.575789 259.244633 
L 610.098212 259.536758 
L 610.620635 259.594718 
L 611.143058 259.165919 
L 611.665481 259.360249 
L 612.187904 262.885375 
L 612.710327 252.295959 
L 613.23275 262.436524 
L 613.755173 261.161162 
L 614.277596 259.501194 
L 614.800019 256.295873 
L 615.322442 261.113466 
L 615.844865 261.825574 
L 616.367288 259.956337 
L 616.889711 257.60074 
L 617.412134 259.608352 
L 617.934557 262.553728 
L 618.45698 262.366514 
L 618.979403 259.420691 
L 619.501826 260.116852 
L 620.024249 263.025908 
L 620.546672 258.808103 
L 621.069095 255.513974 
L 622.113941 259.297163 
L 622.636364 265.528964 
L 622.636364 265.528964 
" style="fill:none;stroke:#ff7f0e;stroke-linecap:square;stroke-width:0.5;"/>
   </g>
   <g id="patch_3">
    <path d="M 90 315 
L 90 43.2 
" style="fill:none;stroke:#000000;stroke-linecap:square;stroke-linejoin:miter;stroke-width:0.8;"/>
   </g>
   <g id="patch_4">
    <path d="M 648 315 
L 648 43.2 
" style="fill:none;stroke:#000000;stroke-linecap:square;stroke-linejoin:miter;stroke-width:0.8;"/>
   </g>
   <g id="patch_5">
    <path d="M 90 315 
L 648 315 
" style="fill:none;stroke:#000000;stroke-linecap:square;stroke-linejoin:miter;stroke-width:0.8;"/>
   </g>
   <g id="patch_6">
    <path d="M 90 43.2 
L 648 43.2 
" style="fill:none;stroke:#000000;stroke-linecap:square;stroke-linejoin:miter;stroke-width:0.8;"/>
   </g>
   <g id="text_15">
    <!-- loss -->
    <g transform="translate(357.410625 37.2)scale(0.12 -0.12)">
     <use xlink:href="#DejaVuSans-108"/>
     <use x="27.783203" xlink:href="#DejaVuSans-111"/>
     <use x="88.964844" xlink:href="#DejaVuSans-115"/>
     <use x="141.064453" xlink:href="#DejaVuSans-115"/>
    </g>
   </g>
   <g id="legend_1">
    <g id="patch_7">
     <path d="M 568.846875 80.55625 
L 641 80.55625 
Q 643 80.55625 643 78.55625 
L 643 50.2 
Q 643 48.2 641 48.2 
L 568.846875 48.2 
Q 566.846875 48.2 566.846875 50.2 
L 566.846875 78.55625 
Q 566.846875 80.55625 568.846875 80.55625 
z
" style="fill:#ffffff;opacity:0.8;stroke:#cccccc;stroke-linejoin:miter;"/>
    </g>
    <g id="line2d_27">
     <path d="M 570.846875 56.298437 
L 590.846875 56.298437 
" style="fill:none;stroke:#1f77b4;stroke-linecap:square;stroke-width:0.5;"/>
    </g>
    <g id="line2d_28"/>
    <g id="text_16">
     <!-- train -->
     <defs>
      <path d="M 18.3125 70.21875 
L 18.3125 54.6875 
L 36.8125 54.6875 
L 36.8125 47.703125 
L 18.3125 47.703125 
L 18.3125 18.015625 
Q 18.3125 11.328125 20.140625 9.421875 
Q 21.96875 7.515625 27.59375 7.515625 
L 36.8125 7.515625 
L 36.8125 0 
L 27.59375 0 
Q 17.1875 0 13.234375 3.875 
Q 9.28125 7.765625 9.28125 18.015625 
L 9.28125 47.703125 
L 2.6875 47.703125 
L 2.6875 54.6875 
L 9.28125 54.6875 
L 9.28125 70.21875 
z
" id="DejaVuSans-116"/>
      <path d="M 41.109375 46.296875 
Q 39.59375 47.171875 37.8125 47.578125 
Q 36.03125 48 33.890625 48 
Q 26.265625 48 22.1875 43.046875 
Q 18.109375 38.09375 18.109375 28.8125 
L 18.109375 0 
L 9.078125 0 
L 9.078125 54.6875 
L 18.109375 54.6875 
L 18.109375 46.1875 
Q 20.953125 51.171875 25.484375 53.578125 
Q 30.03125 56 36.53125 56 
Q 37.453125 56 38.578125 55.875 
Q 39.703125 55.765625 41.0625 55.515625 
z
" id="DejaVuSans-114"/>
      <path d="M 34.28125 27.484375 
Q 23.390625 27.484375 19.1875 25 
Q 14.984375 22.515625 14.984375 16.5 
Q 14.984375 11.71875 18.140625 8.90625 
Q 21.296875 6.109375 26.703125 6.109375 
Q 34.1875 6.109375 38.703125 11.40625 
Q 43.21875 16.703125 43.21875 25.484375 
L 43.21875 27.484375 
z
M 52.203125 31.203125 
L 52.203125 0 
L 43.21875 0 
L 43.21875 8.296875 
Q 40.140625 3.328125 35.546875 0.953125 
Q 30.953125 -1.421875 24.3125 -1.421875 
Q 15.921875 -1.421875 10.953125 3.296875 
Q 6 8.015625 6 15.921875 
Q 6 25.140625 12.171875 29.828125 
Q 18.359375 34.515625 30.609375 34.515625 
L 43.21875 34.515625 
L 43.21875 35.40625 
Q 43.21875 41.609375 39.140625 45 
Q 35.0625 48.390625 27.6875 48.390625 
Q 23 48.390625 18.546875 47.265625 
Q 14.109375 46.140625 10.015625 43.890625 
L 10.015625 52.203125 
Q 14.9375 54.109375 19.578125 55.046875 
Q 24.21875 56 28.609375 56 
Q 40.484375 56 46.34375 49.84375 
Q 52.203125 43.703125 52.203125 31.203125 
z
" id="DejaVuSans-97"/>
      <path d="M 9.421875 54.6875 
L 18.40625 54.6875 
L 18.40625 0 
L 9.421875 0 
z
M 9.421875 75.984375 
L 18.40625 75.984375 
L 18.40625 64.59375 
L 9.421875 64.59375 
z
" id="DejaVuSans-105"/>
      <path d="M 54.890625 33.015625 
L 54.890625 0 
L 45.90625 0 
L 45.90625 32.71875 
Q 45.90625 40.484375 42.875 44.328125 
Q 39.84375 48.1875 33.796875 48.1875 
Q 26.515625 48.1875 22.3125 43.546875 
Q 18.109375 38.921875 18.109375 30.90625 
L 18.109375 0 
L 9.078125 0 
L 9.078125 54.6875 
L 18.109375 54.6875 
L 18.109375 46.1875 
Q 21.34375 51.125 25.703125 53.5625 
Q 30.078125 56 35.796875 56 
Q 45.21875 56 50.046875 50.171875 
Q 54.890625 44.34375 54.890625 33.015625 
z
" id="DejaVuSans-110"/>
     </defs>
     <g transform="translate(598.846875 59.798437)scale(0.1 -0.1)">
      <use xlink:href="#DejaVuSans-116"/>
      <use x="39.208984" xlink:href="#DejaVuSans-114"/>
      <use x="80.322266" xlink:href="#DejaVuSans-97"/>
      <use x="141.601562" xlink:href="#DejaVuSans-105"/>
      <use x="169.384766" xlink:href="#DejaVuSans-110"/>
     </g>
    </g>
    <g id="line2d_29">
     <path d="M 570.846875 70.976562 
L 590.846875 70.976562 
" style="fill:none;stroke:#ff7f0e;stroke-linecap:square;stroke-width:0.5;"/>
    </g>
    <g id="line2d_30"/>
    <g id="text_17">
     <!-- validate -->
     <defs>
      <path d="M 2.984375 54.6875 
L 12.5 54.6875 
L 29.59375 8.796875 
L 46.6875 54.6875 
L 56.203125 54.6875 
L 35.6875 0 
L 23.484375 0 
z
" id="DejaVuSans-118"/>
      <path d="M 45.40625 46.390625 
L 45.40625 75.984375 
L 54.390625 75.984375 
L 54.390625 0 
L 45.40625 0 
L 45.40625 8.203125 
Q 42.578125 3.328125 38.25 0.953125 
Q 33.9375 -1.421875 27.875 -1.421875 
Q 17.96875 -1.421875 11.734375 6.484375 
Q 5.515625 14.40625 5.515625 27.296875 
Q 5.515625 40.1875 11.734375 48.09375 
Q 17.96875 56 27.875 56 
Q 33.9375 56 38.25 53.625 
Q 42.578125 51.265625 45.40625 46.390625 
z
M 14.796875 27.296875 
Q 14.796875 17.390625 18.875 11.75 
Q 22.953125 6.109375 30.078125 6.109375 
Q 37.203125 6.109375 41.296875 11.75 
Q 45.40625 17.390625 45.40625 27.296875 
Q 45.40625 37.203125 41.296875 42.84375 
Q 37.203125 48.484375 30.078125 48.484375 
Q 22.953125 48.484375 18.875 42.84375 
Q 14.796875 37.203125 14.796875 27.296875 
z
" id="DejaVuSans-100"/>
     </defs>
     <g transform="translate(598.846875 74.476562)scale(0.1 -0.1)">
      <use xlink:href="#DejaVuSans-118"/>
      <use x="59.179688" xlink:href="#DejaVuSans-97"/>
      <use x="120.458984" xlink:href="#DejaVuSans-108"/>
      <use x="148.242188" xlink:href="#DejaVuSans-105"/>
      <use x="176.025391" xlink:href="#DejaVuSans-100"/>
      <use x="239.501953" xlink:href="#DejaVuSans-97"/>
      <use x="300.78125" xlink:href="#DejaVuSans-116"/>
      <use x="339.990234" xlink:href="#DejaVuSans-101"/>
     </g>
    </g>
   </g>
  </g>
 </g>
 <defs>
  <clipPath id="p45bc52609a">
   <rect height="271.8" width="558" x="90" y="43.2"/>
  </clipPath>
 </defs>
</svg>
