<?xml version="1.0" encoding="utf-8" standalone="no"?>
<!DOCTYPE svg PUBLIC "-//W3C//DTD SVG 1.1//EN"
  "http://www.w3.org/Graphics/SVG/1.1/DTD/svg11.dtd">
<!-- Created with matplotlib (https://matplotlib.org/) -->
<svg height="360pt" version="1.1" viewBox="0 0 720 360" width="720pt" xmlns="http://www.w3.org/2000/svg" xmlns:xlink="http://www.w3.org/1999/xlink">
 <defs>
  <style type="text/css">
*{stroke-linecap:butt;stroke-linejoin:round;}
  </style>
 </defs>
 <g id="figure_1">
  <g id="patch_1">
   <path d="M 0 360 
L 720 360 
L 720 0 
L 0 0 
z
" style="fill:#ffffff;"/>
  </g>
  <g id="axes_1">
   <g id="patch_2">
    <path d="M 90 315 
L 648 315 
L 648 43.2 
L 90 43.2 
z
" style="fill:#ffffff;"/>
   </g>
   <g id="matplotlib.axis_1">
    <g id="xtick_1">
     <g id="line2d_1">
      <path clip-path="url(#p3303af4f0f)" d="M 115.363636 315 
L 115.363636 43.2 
" style="fill:none;stroke:#b0b0b0;stroke-linecap:square;stroke-width:0.8;"/>
     </g>
     <g id="line2d_2">
      <defs>
       <path d="M 0 0 
L 0 3.5 
" id="mc5e30b9d3a" style="stroke:#000000;stroke-width:0.8;"/>
      </defs>
      <g>
       <use style="stroke:#000000;stroke-width:0.8;" x="115.363636" xlink:href="#mc5e30b9d3a" y="315"/>
      </g>
     </g>
     <g id="text_1">
      <!-- 0 -->
      <defs>
       <path d="M 31.78125 66.40625 
Q 24.171875 66.40625 20.328125 58.90625 
Q 16.5 51.421875 16.5 36.375 
Q 16.5 21.390625 20.328125 13.890625 
Q 24.171875 6.390625 31.78125 6.390625 
Q 39.453125 6.390625 43.28125 13.890625 
Q 47.125 21.390625 47.125 36.375 
Q 47.125 51.421875 43.28125 58.90625 
Q 39.453125 66.40625 31.78125 66.40625 
z
M 31.78125 74.21875 
Q 44.046875 74.21875 50.515625 64.515625 
Q 56.984375 54.828125 56.984375 36.375 
Q 56.984375 17.96875 50.515625 8.265625 
Q 44.046875 -1.421875 31.78125 -1.421875 
Q 19.53125 -1.421875 13.0625 8.265625 
Q 6.59375 17.96875 6.59375 36.375 
Q 6.59375 54.828125 13.0625 64.515625 
Q 19.53125 74.21875 31.78125 74.21875 
z
" id="DejaVuSans-48"/>
      </defs>
      <g transform="translate(112.182386 329.598437)scale(0.1 -0.1)">
       <use xlink:href="#DejaVuSans-48"/>
      </g>
     </g>
    </g>
    <g id="xtick_2">
     <g id="line2d_3">
      <path clip-path="url(#p3303af4f0f)" d="M 181.847611 315 
L 181.847611 43.2 
" style="fill:none;stroke:#b0b0b0;stroke-linecap:square;stroke-width:0.8;"/>
     </g>
     <g id="line2d_4">
      <g>
       <use style="stroke:#000000;stroke-width:0.8;" x="181.847611" xlink:href="#mc5e30b9d3a" y="315"/>
      </g>
     </g>
     <g id="text_2">
      <!-- 100 -->
      <defs>
       <path d="M 12.40625 8.296875 
L 28.515625 8.296875 
L 28.515625 63.921875 
L 10.984375 60.40625 
L 10.984375 69.390625 
L 28.421875 72.90625 
L 38.28125 72.90625 
L 38.28125 8.296875 
L 54.390625 8.296875 
L 54.390625 0 
L 12.40625 0 
z
" id="DejaVuSans-49"/>
      </defs>
      <g transform="translate(172.303861 329.598437)scale(0.1 -0.1)">
       <use xlink:href="#DejaVuSans-49"/>
       <use x="63.623047" xlink:href="#DejaVuSans-48"/>
       <use x="127.246094" xlink:href="#DejaVuSans-48"/>
      </g>
     </g>
    </g>
    <g id="xtick_3">
     <g id="line2d_5">
      <path clip-path="url(#p3303af4f0f)" d="M 248.331586 315 
L 248.331586 43.2 
" style="fill:none;stroke:#b0b0b0;stroke-linecap:square;stroke-width:0.8;"/>
     </g>
     <g id="line2d_6">
      <g>
       <use style="stroke:#000000;stroke-width:0.8;" x="248.331586" xlink:href="#mc5e30b9d3a" y="315"/>
      </g>
     </g>
     <g id="text_3">
      <!-- 200 -->
      <defs>
       <path d="M 19.1875 8.296875 
L 53.609375 8.296875 
L 53.609375 0 
L 7.328125 0 
L 7.328125 8.296875 
Q 12.9375 14.109375 22.625 23.890625 
Q 32.328125 33.6875 34.8125 36.53125 
Q 39.546875 41.84375 41.421875 45.53125 
Q 43.3125 49.21875 43.3125 52.78125 
Q 43.3125 58.59375 39.234375 62.25 
Q 35.15625 65.921875 28.609375 65.921875 
Q 23.96875 65.921875 18.8125 64.3125 
Q 13.671875 62.703125 7.8125 59.421875 
L 7.8125 69.390625 
Q 13.765625 71.78125 18.9375 73 
Q 24.125 74.21875 28.421875 74.21875 
Q 39.75 74.21875 46.484375 68.546875 
Q 53.21875 62.890625 53.21875 53.421875 
Q 53.21875 48.921875 51.53125 44.890625 
Q 49.859375 40.875 45.40625 35.40625 
Q 44.1875 33.984375 37.640625 27.21875 
Q 31.109375 20.453125 19.1875 8.296875 
z
" id="DejaVuSans-50"/>
      </defs>
      <g transform="translate(238.787836 329.598437)scale(0.1 -0.1)">
       <use xlink:href="#DejaVuSans-50"/>
       <use x="63.623047" xlink:href="#DejaVuSans-48"/>
       <use x="127.246094" xlink:href="#DejaVuSans-48"/>
      </g>
     </g>
    </g>
    <g id="xtick_4">
     <g id="line2d_7">
      <path clip-path="url(#p3303af4f0f)" d="M 314.815561 315 
L 314.815561 43.2 
" style="fill:none;stroke:#b0b0b0;stroke-linecap:square;stroke-width:0.8;"/>
     </g>
     <g id="line2d_8">
      <g>
       <use style="stroke:#000000;stroke-width:0.8;" x="314.815561" xlink:href="#mc5e30b9d3a" y="315"/>
      </g>
     </g>
     <g id="text_4">
      <!-- 300 -->
      <defs>
       <path d="M 40.578125 39.3125 
Q 47.65625 37.796875 51.625 33 
Q 55.609375 28.21875 55.609375 21.1875 
Q 55.609375 10.40625 48.1875 4.484375 
Q 40.765625 -1.421875 27.09375 -1.421875 
Q 22.515625 -1.421875 17.65625 -0.515625 
Q 12.796875 0.390625 7.625 2.203125 
L 7.625 11.71875 
Q 11.71875 9.328125 16.59375 8.109375 
Q 21.484375 6.890625 26.8125 6.890625 
Q 36.078125 6.890625 40.9375 10.546875 
Q 45.796875 14.203125 45.796875 21.1875 
Q 45.796875 27.640625 41.28125 31.265625 
Q 36.765625 34.90625 28.71875 34.90625 
L 20.21875 34.90625 
L 20.21875 43.015625 
L 29.109375 43.015625 
Q 36.375 43.015625 40.234375 45.921875 
Q 44.09375 48.828125 44.09375 54.296875 
Q 44.09375 59.90625 40.109375 62.90625 
Q 36.140625 65.921875 28.71875 65.921875 
Q 24.65625 65.921875 20.015625 65.03125 
Q 15.375 64.15625 9.8125 62.3125 
L 9.8125 71.09375 
Q 15.4375 72.65625 20.34375 73.4375 
Q 25.25 74.21875 29.59375 74.21875 
Q 40.828125 74.21875 47.359375 69.109375 
Q 53.90625 64.015625 53.90625 55.328125 
Q 53.90625 49.265625 50.4375 45.09375 
Q 46.96875 40.921875 40.578125 39.3125 
z
" id="DejaVuSans-51"/>
      </defs>
      <g transform="translate(305.271811 329.598437)scale(0.1 -0.1)">
       <use xlink:href="#DejaVuSans-51"/>
       <use x="63.623047" xlink:href="#DejaVuSans-48"/>
       <use x="127.246094" xlink:href="#DejaVuSans-48"/>
      </g>
     </g>
    </g>
    <g id="xtick_5">
     <g id="line2d_9">
      <path clip-path="url(#p3303af4f0f)" d="M 381.299535 315 
L 381.299535 43.2 
" style="fill:none;stroke:#b0b0b0;stroke-linecap:square;stroke-width:0.8;"/>
     </g>
     <g id="line2d_10">
      <g>
       <use style="stroke:#000000;stroke-width:0.8;" x="381.299535" xlink:href="#mc5e30b9d3a" y="315"/>
      </g>
     </g>
     <g id="text_5">
      <!-- 400 -->
      <defs>
       <path d="M 37.796875 64.3125 
L 12.890625 25.390625 
L 37.796875 25.390625 
z
M 35.203125 72.90625 
L 47.609375 72.90625 
L 47.609375 25.390625 
L 58.015625 25.390625 
L 58.015625 17.1875 
L 47.609375 17.1875 
L 47.609375 0 
L 37.796875 0 
L 37.796875 17.1875 
L 4.890625 17.1875 
L 4.890625 26.703125 
z
" id="DejaVuSans-52"/>
      </defs>
      <g transform="translate(371.755785 329.598437)scale(0.1 -0.1)">
       <use xlink:href="#DejaVuSans-52"/>
       <use x="63.623047" xlink:href="#DejaVuSans-48"/>
       <use x="127.246094" xlink:href="#DejaVuSans-48"/>
      </g>
     </g>
    </g>
    <g id="xtick_6">
     <g id="line2d_11">
      <path clip-path="url(#p3303af4f0f)" d="M 447.78351 315 
L 447.78351 43.2 
" style="fill:none;stroke:#b0b0b0;stroke-linecap:square;stroke-width:0.8;"/>
     </g>
     <g id="line2d_12">
      <g>
       <use style="stroke:#000000;stroke-width:0.8;" x="447.78351" xlink:href="#mc5e30b9d3a" y="315"/>
      </g>
     </g>
     <g id="text_6">
      <!-- 500 -->
      <defs>
       <path d="M 10.796875 72.90625 
L 49.515625 72.90625 
L 49.515625 64.59375 
L 19.828125 64.59375 
L 19.828125 46.734375 
Q 21.96875 47.46875 24.109375 47.828125 
Q 26.265625 48.1875 28.421875 48.1875 
Q 40.625 48.1875 47.75 41.5 
Q 54.890625 34.8125 54.890625 23.390625 
Q 54.890625 11.625 47.5625 5.09375 
Q 40.234375 -1.421875 26.90625 -1.421875 
Q 22.3125 -1.421875 17.546875 -0.640625 
Q 12.796875 0.140625 7.71875 1.703125 
L 7.71875 11.625 
Q 12.109375 9.234375 16.796875 8.0625 
Q 21.484375 6.890625 26.703125 6.890625 
Q 35.15625 6.890625 40.078125 11.328125 
Q 45.015625 15.765625 45.015625 23.390625 
Q 45.015625 31 40.078125 35.4375 
Q 35.15625 39.890625 26.703125 39.890625 
Q 22.75 39.890625 18.8125 39.015625 
Q 14.890625 38.140625 10.796875 36.28125 
z
" id="DejaVuSans-53"/>
      </defs>
      <g transform="translate(438.23976 329.598437)scale(0.1 -0.1)">
       <use xlink:href="#DejaVuSans-53"/>
       <use x="63.623047" xlink:href="#DejaVuSans-48"/>
       <use x="127.246094" xlink:href="#DejaVuSans-48"/>
      </g>
     </g>
    </g>
    <g id="xtick_7">
     <g id="line2d_13">
      <path clip-path="url(#p3303af4f0f)" d="M 514.267485 315 
L 514.267485 43.2 
" style="fill:none;stroke:#b0b0b0;stroke-linecap:square;stroke-width:0.8;"/>
     </g>
     <g id="line2d_14">
      <g>
       <use style="stroke:#000000;stroke-width:0.8;" x="514.267485" xlink:href="#mc5e30b9d3a" y="315"/>
      </g>
     </g>
     <g id="text_7">
      <!-- 600 -->
      <defs>
       <path d="M 33.015625 40.375 
Q 26.375 40.375 22.484375 35.828125 
Q 18.609375 31.296875 18.609375 23.390625 
Q 18.609375 15.53125 22.484375 10.953125 
Q 26.375 6.390625 33.015625 6.390625 
Q 39.65625 6.390625 43.53125 10.953125 
Q 47.40625 15.53125 47.40625 23.390625 
Q 47.40625 31.296875 43.53125 35.828125 
Q 39.65625 40.375 33.015625 40.375 
z
M 52.59375 71.296875 
L 52.59375 62.3125 
Q 48.875 64.0625 45.09375 64.984375 
Q 41.3125 65.921875 37.59375 65.921875 
Q 27.828125 65.921875 22.671875 59.328125 
Q 17.53125 52.734375 16.796875 39.40625 
Q 19.671875 43.65625 24.015625 45.921875 
Q 28.375 48.1875 33.59375 48.1875 
Q 44.578125 48.1875 50.953125 41.515625 
Q 57.328125 34.859375 57.328125 23.390625 
Q 57.328125 12.15625 50.6875 5.359375 
Q 44.046875 -1.421875 33.015625 -1.421875 
Q 20.359375 -1.421875 13.671875 8.265625 
Q 6.984375 17.96875 6.984375 36.375 
Q 6.984375 53.65625 15.1875 63.9375 
Q 23.390625 74.21875 37.203125 74.21875 
Q 40.921875 74.21875 44.703125 73.484375 
Q 48.484375 72.75 52.59375 71.296875 
z
" id="DejaVuSans-54"/>
      </defs>
      <g transform="translate(504.723735 329.598437)scale(0.1 -0.1)">
       <use xlink:href="#DejaVuSans-54"/>
       <use x="63.623047" xlink:href="#DejaVuSans-48"/>
       <use x="127.246094" xlink:href="#DejaVuSans-48"/>
      </g>
     </g>
    </g>
    <g id="xtick_8">
     <g id="line2d_15">
      <path clip-path="url(#p3303af4f0f)" d="M 580.75146 315 
L 580.75146 43.2 
" style="fill:none;stroke:#b0b0b0;stroke-linecap:square;stroke-width:0.8;"/>
     </g>
     <g id="line2d_16">
      <g>
       <use style="stroke:#000000;stroke-width:0.8;" x="580.75146" xlink:href="#mc5e30b9d3a" y="315"/>
      </g>
     </g>
     <g id="text_8">
      <!-- 700 -->
      <defs>
       <path d="M 8.203125 72.90625 
L 55.078125 72.90625 
L 55.078125 68.703125 
L 28.609375 0 
L 18.3125 0 
L 43.21875 64.59375 
L 8.203125 64.59375 
z
" id="DejaVuSans-55"/>
      </defs>
      <g transform="translate(571.20771 329.598437)scale(0.1 -0.1)">
       <use xlink:href="#DejaVuSans-55"/>
       <use x="63.623047" xlink:href="#DejaVuSans-48"/>
       <use x="127.246094" xlink:href="#DejaVuSans-48"/>
      </g>
     </g>
    </g>
    <g id="xtick_9">
     <g id="line2d_17">
      <path clip-path="url(#p3303af4f0f)" d="M 647.235434 315 
L 647.235434 43.2 
" style="fill:none;stroke:#b0b0b0;stroke-linecap:square;stroke-width:0.8;"/>
     </g>
     <g id="line2d_18">
      <g>
       <use style="stroke:#000000;stroke-width:0.8;" x="647.235434" xlink:href="#mc5e30b9d3a" y="315"/>
      </g>
     </g>
     <g id="text_9">
      <!-- 800 -->
      <defs>
       <path d="M 31.78125 34.625 
Q 24.75 34.625 20.71875 30.859375 
Q 16.703125 27.09375 16.703125 20.515625 
Q 16.703125 13.921875 20.71875 10.15625 
Q 24.75 6.390625 31.78125 6.390625 
Q 38.8125 6.390625 42.859375 10.171875 
Q 46.921875 13.96875 46.921875 20.515625 
Q 46.921875 27.09375 42.890625 30.859375 
Q 38.875 34.625 31.78125 34.625 
z
M 21.921875 38.8125 
Q 15.578125 40.375 12.03125 44.71875 
Q 8.5 49.078125 8.5 55.328125 
Q 8.5 64.0625 14.71875 69.140625 
Q 20.953125 74.21875 31.78125 74.21875 
Q 42.671875 74.21875 48.875 69.140625 
Q 55.078125 64.0625 55.078125 55.328125 
Q 55.078125 49.078125 51.53125 44.71875 
Q 48 40.375 41.703125 38.8125 
Q 48.828125 37.15625 52.796875 32.3125 
Q 56.78125 27.484375 56.78125 20.515625 
Q 56.78125 9.90625 50.3125 4.234375 
Q 43.84375 -1.421875 31.78125 -1.421875 
Q 19.734375 -1.421875 13.25 4.234375 
Q 6.78125 9.90625 6.78125 20.515625 
Q 6.78125 27.484375 10.78125 32.3125 
Q 14.796875 37.15625 21.921875 38.8125 
z
M 18.3125 54.390625 
Q 18.3125 48.734375 21.84375 45.5625 
Q 25.390625 42.390625 31.78125 42.390625 
Q 38.140625 42.390625 41.71875 45.5625 
Q 45.3125 48.734375 45.3125 54.390625 
Q 45.3125 60.0625 41.71875 63.234375 
Q 38.140625 66.40625 31.78125 66.40625 
Q 25.390625 66.40625 21.84375 63.234375 
Q 18.3125 60.0625 18.3125 54.390625 
z
" id="DejaVuSans-56"/>
      </defs>
      <g transform="translate(637.691684 329.598437)scale(0.1 -0.1)">
       <use xlink:href="#DejaVuSans-56"/>
       <use x="63.623047" xlink:href="#DejaVuSans-48"/>
       <use x="127.246094" xlink:href="#DejaVuSans-48"/>
      </g>
     </g>
    </g>
    <g id="text_10">
     <!-- epoch -->
     <defs>
      <path d="M 56.203125 29.59375 
L 56.203125 25.203125 
L 14.890625 25.203125 
Q 15.484375 15.921875 20.484375 11.0625 
Q 25.484375 6.203125 34.421875 6.203125 
Q 39.59375 6.203125 44.453125 7.46875 
Q 49.3125 8.734375 54.109375 11.28125 
L 54.109375 2.78125 
Q 49.265625 0.734375 44.1875 -0.34375 
Q 39.109375 -1.421875 33.890625 -1.421875 
Q 20.796875 -1.421875 13.15625 6.1875 
Q 5.515625 13.8125 5.515625 26.8125 
Q 5.515625 40.234375 12.765625 48.109375 
Q 20.015625 56 32.328125 56 
Q 43.359375 56 49.78125 48.890625 
Q 56.203125 41.796875 56.203125 29.59375 
z
M 47.21875 32.234375 
Q 47.125 39.59375 43.09375 43.984375 
Q 39.0625 48.390625 32.421875 48.390625 
Q 24.90625 48.390625 20.390625 44.140625 
Q 15.875 39.890625 15.1875 32.171875 
z
" id="DejaVuSans-101"/>
      <path d="M 18.109375 8.203125 
L 18.109375 -20.796875 
L 9.078125 -20.796875 
L 9.078125 54.6875 
L 18.109375 54.6875 
L 18.109375 46.390625 
Q 20.953125 51.265625 25.265625 53.625 
Q 29.59375 56 35.59375 56 
Q 45.5625 56 51.78125 48.09375 
Q 58.015625 40.1875 58.015625 27.296875 
Q 58.015625 14.40625 51.78125 6.484375 
Q 45.5625 -1.421875 35.59375 -1.421875 
Q 29.59375 -1.421875 25.265625 0.953125 
Q 20.953125 3.328125 18.109375 8.203125 
z
M 48.6875 27.296875 
Q 48.6875 37.203125 44.609375 42.84375 
Q 40.53125 48.484375 33.40625 48.484375 
Q 26.265625 48.484375 22.1875 42.84375 
Q 18.109375 37.203125 18.109375 27.296875 
Q 18.109375 17.390625 22.1875 11.75 
Q 26.265625 6.109375 33.40625 6.109375 
Q 40.53125 6.109375 44.609375 11.75 
Q 48.6875 17.390625 48.6875 27.296875 
z
" id="DejaVuSans-112"/>
      <path d="M 30.609375 48.390625 
Q 23.390625 48.390625 19.1875 42.75 
Q 14.984375 37.109375 14.984375 27.296875 
Q 14.984375 17.484375 19.15625 11.84375 
Q 23.34375 6.203125 30.609375 6.203125 
Q 37.796875 6.203125 41.984375 11.859375 
Q 46.1875 17.53125 46.1875 27.296875 
Q 46.1875 37.015625 41.984375 42.703125 
Q 37.796875 48.390625 30.609375 48.390625 
z
M 30.609375 56 
Q 42.328125 56 49.015625 48.375 
Q 55.71875 40.765625 55.71875 27.296875 
Q 55.71875 13.875 49.015625 6.21875 
Q 42.328125 -1.421875 30.609375 -1.421875 
Q 18.84375 -1.421875 12.171875 6.21875 
Q 5.515625 13.875 5.515625 27.296875 
Q 5.515625 40.765625 12.171875 48.375 
Q 18.84375 56 30.609375 56 
z
" id="DejaVuSans-111"/>
      <path d="M 48.78125 52.59375 
L 48.78125 44.1875 
Q 44.96875 46.296875 41.140625 47.34375 
Q 37.3125 48.390625 33.40625 48.390625 
Q 24.65625 48.390625 19.8125 42.84375 
Q 14.984375 37.3125 14.984375 27.296875 
Q 14.984375 17.28125 19.8125 11.734375 
Q 24.65625 6.203125 33.40625 6.203125 
Q 37.3125 6.203125 41.140625 7.25 
Q 44.96875 8.296875 48.78125 10.40625 
L 48.78125 2.09375 
Q 45.015625 0.34375 40.984375 -0.53125 
Q 36.96875 -1.421875 32.421875 -1.421875 
Q 20.0625 -1.421875 12.78125 6.34375 
Q 5.515625 14.109375 5.515625 27.296875 
Q 5.515625 40.671875 12.859375 48.328125 
Q 20.21875 56 33.015625 56 
Q 37.15625 56 41.109375 55.140625 
Q 45.0625 54.296875 48.78125 52.59375 
z
" id="DejaVuSans-99"/>
      <path d="M 54.890625 33.015625 
L 54.890625 0 
L 45.90625 0 
L 45.90625 32.71875 
Q 45.90625 40.484375 42.875 44.328125 
Q 39.84375 48.1875 33.796875 48.1875 
Q 26.515625 48.1875 22.3125 43.546875 
Q 18.109375 38.921875 18.109375 30.90625 
L 18.109375 0 
L 9.078125 0 
L 9.078125 75.984375 
L 18.109375 75.984375 
L 18.109375 46.1875 
Q 21.34375 51.125 25.703125 53.5625 
Q 30.078125 56 35.796875 56 
Q 45.21875 56 50.046875 50.171875 
Q 54.890625 44.34375 54.890625 33.015625 
z
" id="DejaVuSans-104"/>
     </defs>
     <g transform="translate(353.771875 343.276563)scale(0.1 -0.1)">
      <use xlink:href="#DejaVuSans-101"/>
      <use x="61.523438" xlink:href="#DejaVuSans-112"/>
      <use x="125" xlink:href="#DejaVuSans-111"/>
      <use x="186.181641" xlink:href="#DejaVuSans-99"/>
      <use x="241.162109" xlink:href="#DejaVuSans-104"/>
     </g>
    </g>
   </g>
   <g id="matplotlib.axis_2">
    <g id="ytick_1">
     <g id="line2d_19">
      <path clip-path="url(#p3303af4f0f)" d="M 90 315.014816 
L 648 315.014816 
" style="fill:none;stroke:#b0b0b0;stroke-linecap:square;stroke-width:0.8;"/>
     </g>
     <g id="line2d_20">
      <defs>
       <path d="M 0 0 
L -3.5 0 
" id="m52ce313f1a" style="stroke:#000000;stroke-width:0.8;"/>
      </defs>
      <g>
       <use style="stroke:#000000;stroke-width:0.8;" x="90" xlink:href="#m52ce313f1a" y="315.014816"/>
      </g>
     </g>
     <g id="text_11">
      <!-- 0.2 -->
      <defs>
       <path d="M 10.6875 12.40625 
L 21 12.40625 
L 21 0 
L 10.6875 0 
z
" id="DejaVuSans-46"/>
      </defs>
      <g transform="translate(67.096875 318.814035)scale(0.1 -0.1)">
       <use xlink:href="#DejaVuSans-48"/>
       <use x="63.623047" xlink:href="#DejaVuSans-46"/>
       <use x="95.410156" xlink:href="#DejaVuSans-50"/>
      </g>
     </g>
    </g>
    <g id="ytick_2">
     <g id="line2d_21">
      <path clip-path="url(#p3303af4f0f)" d="M 90 275.129355 
L 648 275.129355 
" style="fill:none;stroke:#b0b0b0;stroke-linecap:square;stroke-width:0.8;"/>
     </g>
     <g id="line2d_22">
      <g>
       <use style="stroke:#000000;stroke-width:0.8;" x="90" xlink:href="#m52ce313f1a" y="275.129355"/>
      </g>
     </g>
     <g id="text_12">
      <!-- 0.4 -->
      <g transform="translate(67.096875 278.928573)scale(0.1 -0.1)">
       <use xlink:href="#DejaVuSans-48"/>
       <use x="63.623047" xlink:href="#DejaVuSans-46"/>
       <use x="95.410156" xlink:href="#DejaVuSans-52"/>
      </g>
     </g>
    </g>
    <g id="ytick_3">
     <g id="line2d_23">
      <path clip-path="url(#p3303af4f0f)" d="M 90 235.243893 
L 648 235.243893 
" style="fill:none;stroke:#b0b0b0;stroke-linecap:square;stroke-width:0.8;"/>
     </g>
     <g id="line2d_24">
      <g>
       <use style="stroke:#000000;stroke-width:0.8;" x="90" xlink:href="#m52ce313f1a" y="235.243893"/>
      </g>
     </g>
     <g id="text_13">
      <!-- 0.6 -->
      <g transform="translate(67.096875 239.043112)scale(0.1 -0.1)">
       <use xlink:href="#DejaVuSans-48"/>
       <use x="63.623047" xlink:href="#DejaVuSans-46"/>
       <use x="95.410156" xlink:href="#DejaVuSans-54"/>
      </g>
     </g>
    </g>
    <g id="ytick_4">
     <g id="line2d_25">
      <path clip-path="url(#p3303af4f0f)" d="M 90 195.358432 
L 648 195.358432 
" style="fill:none;stroke:#b0b0b0;stroke-linecap:square;stroke-width:0.8;"/>
     </g>
     <g id="line2d_26">
      <g>
       <use style="stroke:#000000;stroke-width:0.8;" x="90" xlink:href="#m52ce313f1a" y="195.358432"/>
      </g>
     </g>
     <g id="text_14">
      <!-- 0.8 -->
      <g transform="translate(67.096875 199.15765)scale(0.1 -0.1)">
       <use xlink:href="#DejaVuSans-48"/>
       <use x="63.623047" xlink:href="#DejaVuSans-46"/>
       <use x="95.410156" xlink:href="#DejaVuSans-56"/>
      </g>
     </g>
    </g>
    <g id="ytick_5">
     <g id="line2d_27">
      <path clip-path="url(#p3303af4f0f)" d="M 90 155.47297 
L 648 155.47297 
" style="fill:none;stroke:#b0b0b0;stroke-linecap:square;stroke-width:0.8;"/>
     </g>
     <g id="line2d_28">
      <g>
       <use style="stroke:#000000;stroke-width:0.8;" x="90" xlink:href="#m52ce313f1a" y="155.47297"/>
      </g>
     </g>
     <g id="text_15">
      <!-- 1.0 -->
      <g transform="translate(67.096875 159.272189)scale(0.1 -0.1)">
       <use xlink:href="#DejaVuSans-49"/>
       <use x="63.623047" xlink:href="#DejaVuSans-46"/>
       <use x="95.410156" xlink:href="#DejaVuSans-48"/>
      </g>
     </g>
    </g>
    <g id="ytick_6">
     <g id="line2d_29">
      <path clip-path="url(#p3303af4f0f)" d="M 90 115.587508 
L 648 115.587508 
" style="fill:none;stroke:#b0b0b0;stroke-linecap:square;stroke-width:0.8;"/>
     </g>
     <g id="line2d_30">
      <g>
       <use style="stroke:#000000;stroke-width:0.8;" x="90" xlink:href="#m52ce313f1a" y="115.587508"/>
      </g>
     </g>
     <g id="text_16">
      <!-- 1.2 -->
      <g transform="translate(67.096875 119.386727)scale(0.1 -0.1)">
       <use xlink:href="#DejaVuSans-49"/>
       <use x="63.623047" xlink:href="#DejaVuSans-46"/>
       <use x="95.410156" xlink:href="#DejaVuSans-50"/>
      </g>
     </g>
    </g>
    <g id="ytick_7">
     <g id="line2d_31">
      <path clip-path="url(#p3303af4f0f)" d="M 90 75.702047 
L 648 75.702047 
" style="fill:none;stroke:#b0b0b0;stroke-linecap:square;stroke-width:0.8;"/>
     </g>
     <g id="line2d_32">
      <g>
       <use style="stroke:#000000;stroke-width:0.8;" x="90" xlink:href="#m52ce313f1a" y="75.702047"/>
      </g>
     </g>
     <g id="text_17">
      <!-- 1.4 -->
      <g transform="translate(67.096875 79.501265)scale(0.1 -0.1)">
       <use xlink:href="#DejaVuSans-49"/>
       <use x="63.623047" xlink:href="#DejaVuSans-46"/>
       <use x="95.410156" xlink:href="#DejaVuSans-52"/>
      </g>
     </g>
    </g>
    <g id="text_18">
     <!-- loss -->
     <defs>
      <path d="M 9.421875 75.984375 
L 18.40625 75.984375 
L 18.40625 0 
L 9.421875 0 
z
" id="DejaVuSans-108"/>
      <path d="M 44.28125 53.078125 
L 44.28125 44.578125 
Q 40.484375 46.53125 36.375 47.5 
Q 32.28125 48.484375 27.875 48.484375 
Q 21.1875 48.484375 17.84375 46.4375 
Q 14.5 44.390625 14.5 40.28125 
Q 14.5 37.15625 16.890625 35.375 
Q 19.28125 33.59375 26.515625 31.984375 
L 29.59375 31.296875 
Q 39.15625 29.25 43.1875 25.515625 
Q 47.21875 21.78125 47.21875 15.09375 
Q 47.21875 7.46875 41.1875 3.015625 
Q 35.15625 -1.421875 24.609375 -1.421875 
Q 20.21875 -1.421875 15.453125 -0.5625 
Q 10.6875 0.296875 5.421875 2 
L 5.421875 11.28125 
Q 10.40625 8.6875 15.234375 7.390625 
Q 20.0625 6.109375 24.8125 6.109375 
Q 31.15625 6.109375 34.5625 8.28125 
Q 37.984375 10.453125 37.984375 14.40625 
Q 37.984375 18.0625 35.515625 20.015625 
Q 33.0625 21.96875 24.703125 23.78125 
L 21.578125 24.515625 
Q 13.234375 26.265625 9.515625 29.90625 
Q 5.8125 33.546875 5.8125 39.890625 
Q 5.8125 47.609375 11.28125 51.796875 
Q 16.75 56 26.8125 56 
Q 31.78125 56 36.171875 55.265625 
Q 40.578125 54.546875 44.28125 53.078125 
z
" id="DejaVuSans-115"/>
     </defs>
     <g transform="translate(61.017187 188.757812)rotate(-90)scale(0.1 -0.1)">
      <use xlink:href="#DejaVuSans-108"/>
      <use x="27.783203" xlink:href="#DejaVuSans-111"/>
      <use x="88.964844" xlink:href="#DejaVuSans-115"/>
      <use x="141.064453" xlink:href="#DejaVuSans-115"/>
     </g>
    </g>
   </g>
   <g id="line2d_33">
    <path clip-path="url(#p3303af4f0f)" d="M 115.363636 55.554545 
L 116.028476 68.088679 
L 116.693316 69.055027 
L 118.022995 79.043764 
L 119.352675 83.209179 
L 120.017515 84.290061 
L 120.682354 88.35141 
L 121.347194 88.118574 
L 122.012034 93.008557 
L 122.676874 93.340492 
L 123.341713 96.332806 
L 124.006553 97.044522 
L 124.671393 99.349421 
L 125.336233 100.908052 
L 126.001072 103.378854 
L 126.665912 103.478957 
L 127.330752 107.43251 
L 128.660431 110.371697 
L 129.325271 110.232242 
L 129.990111 113.584407 
L 130.654951 115.90031 
L 131.31979 121.058176 
L 131.98463 124.268744 
L 132.64947 122.932199 
L 133.31431 124.725909 
L 134.643989 130.146475 
L 135.308829 134.164227 
L 135.973669 137.066671 
L 136.638508 136.335989 
L 137.303348 136.407952 
L 137.968188 142.54206 
L 138.633028 144.017302 
L 139.297867 145.824061 
L 139.962707 146.644222 
L 141.292387 153.985294 
L 141.957226 154.509261 
L 142.622066 158.564835 
L 143.286906 159.140137 
L 143.951746 164.819893 
L 144.616585 162.481824 
L 145.281425 162.192206 
L 145.946265 167.272419 
L 146.611104 166.841539 
L 147.275944 171.210015 
L 147.940784 173.515799 
L 148.605624 173.425774 
L 149.270463 176.933566 
L 149.935303 176.406673 
L 150.600143 178.560759 
L 151.264983 178.233393 
L 151.929822 181.356071 
L 152.594662 181.496469 
L 153.259502 183.716425 
L 153.924342 185.2564 
L 154.589181 183.60494 
L 155.254021 188.340254 
L 155.918861 187.701902 
L 156.583701 190.370743 
L 157.24854 191.738393 
L 157.91338 190.794184 
L 158.57822 193.205989 
L 159.24306 193.568858 
L 159.907899 193.002245 
L 160.572739 197.631655 
L 161.237579 195.746938 
L 161.902419 198.015842 
L 162.567258 197.832436 
L 163.232098 199.873715 
L 163.896938 200.105745 
L 165.226617 202.989147 
L 165.891457 204.075178 
L 166.556297 205.811936 
L 167.221137 204.431054 
L 167.885976 209.583705 
L 168.550816 204.653799 
L 169.215656 209.395854 
L 169.880496 207.52039 
L 170.545335 210.620702 
L 171.210175 210.689825 
L 171.875015 208.965284 
L 172.539855 209.287792 
L 173.204694 212.504428 
L 173.869534 209.409274 
L 174.534374 212.662357 
L 175.199214 212.286006 
L 175.864053 214.011645 
L 176.528893 212.360819 
L 177.193733 211.264579 
L 177.858573 217.044246 
L 178.523412 215.33619 
L 179.188252 216.930881 
L 179.853092 219.166891 
L 180.517932 220.215492 
L 181.182771 218.493024 
L 181.847611 219.428838 
L 182.512451 221.163774 
L 183.177291 221.829869 
L 183.84213 221.903903 
L 184.50697 221.30986 
L 185.17181 221.313782 
L 185.83665 224.551907 
L 186.501489 222.077654 
L 187.166329 224.611464 
L 187.831169 225.900329 
L 188.496009 224.222784 
L 189.160848 224.716378 
L 189.825688 224.144469 
L 190.490528 225.598867 
L 191.155368 226.540786 
L 191.820207 225.014154 
L 192.485047 227.379457 
L 193.149887 229.004507 
L 193.814727 228.26777 
L 194.479566 229.857526 
L 195.144406 228.003207 
L 195.809246 228.526948 
L 196.474086 230.172764 
L 197.138925 230.187386 
L 197.803765 231.00826 
L 198.468605 232.898291 
L 199.133445 231.154351 
L 199.798284 232.95049 
L 201.127964 232.756596 
L 201.792804 233.072504 
L 202.457643 231.876175 
L 203.122483 235.035468 
L 203.787323 234.258702 
L 204.452163 234.240484 
L 205.117002 236.123436 
L 205.781842 233.04795 
L 206.446682 238.137983 
L 207.111522 235.091668 
L 207.776361 236.769193 
L 209.106041 238.834903 
L 209.77088 238.900925 
L 210.43572 238.381306 
L 211.10056 238.514663 
L 211.7654 238.938713 
L 212.430239 240.106178 
L 213.095079 236.751932 
L 213.759919 238.254661 
L 214.424759 240.225541 
L 215.089598 239.369432 
L 215.754438 240.04191 
L 216.419278 237.910973 
L 217.084118 242.188177 
L 217.748957 244.447632 
L 218.413797 241.094521 
L 219.078637 244.09242 
L 219.743477 246.15983 
L 220.408316 243.513077 
L 221.073156 243.144953 
L 221.737996 242.546928 
L 222.402836 243.790989 
L 223.067675 243.581425 
L 223.732515 246.317749 
L 224.397355 243.49814 
L 225.062195 243.46469 
L 225.727034 245.972306 
L 226.391874 246.364709 
L 227.056714 245.994849 
L 227.721554 247.393441 
L 228.386393 245.734648 
L 229.051233 245.901487 
L 229.716073 246.88213 
L 230.380913 244.763617 
L 231.045752 247.19108 
L 231.710592 246.43061 
L 232.375432 246.146232 
L 233.040272 249.499112 
L 233.705111 245.956156 
L 234.369951 246.072637 
L 235.034791 247.428217 
L 235.699631 250.281138 
L 236.36447 249.199231 
L 237.02931 247.532524 
L 237.69415 250.367701 
L 238.35899 249.189977 
L 239.023829 249.562657 
L 239.688669 249.371683 
L 240.353509 253.812191 
L 241.018349 248.676892 
L 241.683188 252.635602 
L 242.348028 249.169449 
L 243.012868 249.69 
L 243.677708 251.453381 
L 244.342547 251.375869 
L 245.007387 253.591298 
L 245.672227 251.308091 
L 246.337067 252.019086 
L 247.666746 250.510137 
L 248.331586 255.904328 
L 248.996426 254.116609 
L 249.661265 253.223077 
L 250.326105 252.986949 
L 250.990945 254.297837 
L 251.655785 254.014498 
L 252.320624 254.019197 
L 252.985464 255.332785 
L 253.650304 254.34024 
L 254.315144 252.699664 
L 254.979983 257.276885 
L 255.644823 254.868632 
L 256.309663 255.794193 
L 256.974503 255.638535 
L 257.639342 254.062457 
L 258.304182 254.081786 
L 258.969022 255.147477 
L 259.633862 256.495818 
L 260.298701 257.41918 
L 260.963541 257.899335 
L 262.293221 255.487707 
L 262.95806 258.582085 
L 263.6229 257.103218 
L 264.28774 260.339247 
L 264.95258 258.547353 
L 265.617419 259.861278 
L 266.282259 256.347981 
L 266.947099 258.706446 
L 267.611939 258.80531 
L 268.276778 259.29347 
L 268.941618 258.596417 
L 269.606458 259.64294 
L 270.271298 260.370524 
L 270.936137 259.531301 
L 271.600977 259.627385 
L 272.265817 259.38112 
L 272.930656 257.710847 
L 273.595496 259.816485 
L 274.260336 257.854657 
L 274.925176 260.278552 
L 275.590015 261.362295 
L 276.254855 260.341108 
L 276.919695 260.793363 
L 278.249374 259.162216 
L 278.914214 263.147625 
L 279.579054 263.538899 
L 280.243894 261.636727 
L 280.908733 257.413849 
L 281.573573 260.866223 
L 282.238413 261.748694 
L 282.903253 265.628484 
L 283.568092 258.584249 
L 284.232932 262.358333 
L 284.897772 262.423299 
L 285.562612 260.521737 
L 286.892291 264.141061 
L 287.557131 262.827483 
L 288.221971 263.212195 
L 288.88681 262.877856 
L 289.55165 264.156529 
L 290.21649 264.151956 
L 290.88133 263.523501 
L 291.546169 267.817116 
L 292.211009 264.318643 
L 292.875849 265.776426 
L 293.540689 269.028292 
L 294.870368 262.8506 
L 295.535208 263.565981 
L 296.200048 265.134447 
L 296.864887 265.180589 
L 297.529727 266.592737 
L 298.194567 265.863137 
L 298.859407 264.944284 
L 299.524246 265.509315 
L 300.189086 267.615493 
L 300.853926 264.927055 
L 301.518766 265.350397 
L 302.183605 264.226705 
L 302.848445 265.932718 
L 303.513285 266.591976 
L 304.178125 263.371901 
L 304.842964 266.370296 
L 306.172644 267.275083 
L 307.502323 269.490342 
L 308.167163 267.026507 
L 308.832003 266.571227 
L 309.496843 265.6654 
L 310.161682 269.226352 
L 310.826522 268.014659 
L 311.491362 270.316134 
L 312.156202 264.752054 
L 312.821041 269.079782 
L 313.485881 267.844877 
L 314.150721 268.299625 
L 314.815561 267.735347 
L 315.4804 269.980266 
L 316.14524 267.57462 
L 316.81008 269.163271 
L 317.47492 270.30913 
L 318.139759 269.62594 
L 318.804599 269.263802 
L 319.469439 269.870151 
L 320.134279 271.620381 
L 320.799118 268.788383 
L 321.463958 270.696435 
L 322.128798 268.875662 
L 322.793638 272.719231 
L 323.458477 269.08758 
L 324.123317 270.291776 
L 324.788157 268.681181 
L 325.452997 271.718668 
L 326.117836 270.804592 
L 326.782676 271.218407 
L 327.447516 268.32219 
L 328.112356 268.246055 
L 328.777195 270.50571 
L 329.442035 270.163284 
L 330.106875 270.872146 
L 330.771715 272.704439 
L 331.436554 270.451379 
L 332.101394 268.595928 
L 332.766234 268.359383 
L 333.431074 272.478838 
L 334.095913 271.783974 
L 334.760753 269.266132 
L 335.425593 271.590715 
L 336.090433 269.646028 
L 336.755272 274.543528 
L 337.420112 272.714643 
L 338.084952 274.381839 
L 338.749791 270.369305 
L 339.414631 271.057408 
L 340.079471 272.622378 
L 340.744311 272.9345 
L 341.40915 269.673009 
L 342.07399 271.72232 
L 342.73883 272.166585 
L 343.40367 273.357018 
L 344.068509 271.563207 
L 344.733349 271.084699 
L 345.398189 275.66377 
L 346.063029 270.71075 
L 346.727868 274.033316 
L 347.392708 274.041413 
L 348.057548 276.43709 
L 348.722388 273.265391 
L 349.387227 274.301077 
L 350.052067 274.506356 
L 350.716907 273.46646 
L 351.381747 275.74179 
L 352.046586 275.342054 
L 352.711426 273.346238 
L 353.376266 273.776748 
L 354.041106 275.429907 
L 354.705945 274.95581 
L 355.370785 277.555973 
L 356.035625 273.565105 
L 356.700465 275.928125 
L 357.365304 271.965173 
L 358.030144 276.414829 
L 358.694984 271.643295 
L 359.359824 274.260436 
L 360.689503 274.683246 
L 361.354343 276.938844 
L 362.019183 277.786574 
L 362.684022 274.766018 
L 363.348862 275.282554 
L 364.013702 276.751704 
L 364.678542 274.759114 
L 365.343381 276.726142 
L 366.008221 278.342803 
L 366.673061 275.255986 
L 367.337901 279.717031 
L 368.00274 279.502133 
L 368.66758 278.367248 
L 369.33242 278.091702 
L 369.99726 277.415033 
L 370.662099 278.596867 
L 371.991779 277.557119 
L 372.656619 275.168596 
L 373.321458 278.525533 
L 373.986298 276.336678 
L 374.651138 278.029462 
L 375.315978 277.179673 
L 375.980817 276.759687 
L 376.645657 277.142786 
L 377.310497 276.155344 
L 377.975337 279.185572 
L 378.640176 278.37148 
L 379.305016 276.127024 
L 379.969856 277.21583 
L 380.634696 281.11281 
L 381.299535 278.814291 
L 381.964375 280.983315 
L 382.629215 280.017648 
L 383.294055 277.885733 
L 383.958894 277.34547 
L 384.623734 279.507443 
L 385.288574 278.392421 
L 385.953414 279.473446 
L 386.618253 281.938193 
L 387.283093 279.028797 
L 387.947933 280.066879 
L 388.612773 279.806161 
L 389.277612 278.984798 
L 389.942452 277.590499 
L 390.607292 276.905147 
L 391.272132 279.675143 
L 391.936971 279.239919 
L 392.601811 281.004511 
L 393.266651 283.423014 
L 393.931491 278.587191 
L 394.59633 278.991528 
L 395.26117 278.246724 
L 395.92601 280.597102 
L 396.59085 280.983442 
L 397.255689 282.160947 
L 397.920529 279.461887 
L 398.585369 280.54064 
L 399.250209 278.980533 
L 399.915048 282.087168 
L 401.244728 279.347977 
L 401.909567 279.925309 
L 402.574407 278.905806 
L 403.239247 279.963548 
L 403.904087 279.444211 
L 404.568926 284.897287 
L 405.233766 283.487989 
L 405.898606 280.764322 
L 406.563446 279.559882 
L 407.228285 281.562931 
L 407.893125 278.654628 
L 408.557965 280.135147 
L 409.222805 283.819672 
L 409.887644 281.614123 
L 410.552484 283.439048 
L 411.217324 281.930006 
L 411.882164 278.992501 
L 412.547003 284.37055 
L 413.211843 280.085365 
L 413.876683 283.032405 
L 414.541523 282.701661 
L 415.206362 281.247261 
L 416.536042 281.367057 
L 417.200882 283.59037 
L 417.865721 282.900109 
L 418.530561 284.286432 
L 419.195401 282.110856 
L 419.860241 282.097527 
L 420.52508 281.321175 
L 421.18992 288.398445 
L 421.85476 285.27437 
L 422.5196 280.102586 
L 423.184439 281.979127 
L 423.849279 280.406088 
L 424.514119 282.875491 
L 425.178959 283.380505 
L 425.843798 284.394354 
L 426.508638 279.89899 
L 427.838318 282.213549 
L 428.503157 280.643513 
L 429.167997 283.931119 
L 429.832837 283.720612 
L 430.497677 280.417293 
L 431.162516 284.926868 
L 431.827356 281.718434 
L 432.492196 283.716439 
L 433.157036 283.918224 
L 433.821875 281.041364 
L 434.486715 282.208902 
L 435.151555 282.701435 
L 435.816395 282.312663 
L 436.481234 282.353986 
L 437.146074 285.923361 
L 437.810914 282.811811 
L 438.475754 283.072288 
L 439.140593 285.061782 
L 439.805433 285.649661 
L 440.470273 283.38971 
L 441.135113 283.965948 
L 441.799952 284.746619 
L 442.464792 282.443139 
L 443.129632 285.193787 
L 443.794472 286.107607 
L 444.459311 283.760921 
L 445.124151 285.28275 
L 445.788991 284.686616 
L 446.453831 282.855328 
L 447.11867 287.357533 
L 447.78351 284.831698 
L 448.44835 283.851992 
L 449.11319 286.535082 
L 449.778029 283.20824 
L 450.442869 285.639812 
L 451.107709 283.583571 
L 451.772549 285.700589 
L 452.437388 285.937453 
L 453.102228 285.626115 
L 453.767068 285.059083 
L 454.431908 287.309936 
L 455.096747 284.365335 
L 455.761587 285.606443 
L 456.426427 285.731182 
L 457.091267 284.108654 
L 457.756106 286.851555 
L 458.420946 286.673395 
L 459.085786 285.9495 
L 459.750626 287.107102 
L 460.415465 287.697455 
L 461.080305 283.685775 
L 461.745145 285.375543 
L 462.409985 283.622845 
L 463.074824 286.953644 
L 463.739664 288.31739 
L 464.404504 286.838475 
L 465.069344 287.737459 
L 466.399023 280.717764 
L 467.063863 284.999 
L 467.728702 286.902772 
L 468.393542 284.244786 
L 469.058382 286.45546 
L 469.723222 289.210446 
L 470.388061 284.91285 
L 471.052901 287.409248 
L 471.717741 286.17452 
L 472.382581 289.977838 
L 473.04742 287.821499 
L 473.71226 286.531409 
L 474.3771 290.137142 
L 475.04194 288.021907 
L 475.706779 288.801568 
L 476.371619 288.908958 
L 477.036459 289.672816 
L 477.701299 288.180545 
L 478.366138 287.019838 
L 479.030978 288.697422 
L 479.695818 286.504665 
L 480.360658 288.689198 
L 481.025497 289.693631 
L 481.690337 287.152427 
L 482.355177 289.748791 
L 483.020017 287.287332 
L 483.684856 289.754411 
L 484.349696 290.327803 
L 485.014536 286.284683 
L 485.679376 290.483382 
L 486.344215 291.482805 
L 487.009055 288.040085 
L 487.673895 287.791205 
L 488.338735 285.280781 
L 489.003574 289.819867 
L 489.668414 286.521439 
L 490.333254 290.736972 
L 490.998094 289.708188 
L 491.662933 290.230729 
L 492.327773 287.490655 
L 492.992613 287.573732 
L 493.657453 288.794248 
L 494.322292 288.849662 
L 495.651972 287.163845 
L 496.316812 289.398603 
L 496.981651 290.327576 
L 497.646491 286.559373 
L 498.311331 288.535128 
L 498.976171 290.994928 
L 499.64101 290.205247 
L 500.30585 290.004105 
L 500.97069 289.448903 
L 501.63553 292.37237 
L 502.300369 290.938809 
L 502.965209 290.557245 
L 503.630049 291.364633 
L 504.294889 287.66494 
L 504.959728 291.990733 
L 506.289408 288.402479 
L 506.954248 291.774089 
L 507.619087 290.284216 
L 508.283927 289.757838 
L 508.948767 289.379606 
L 509.613607 293.557189 
L 510.278446 287.769911 
L 510.943286 291.316969 
L 511.608126 288.8089 
L 512.272966 287.881065 
L 512.937805 290.729169 
L 513.602645 290.63141 
L 514.267485 289.827763 
L 514.932325 291.38577 
L 515.597164 289.974167 
L 516.262004 289.618518 
L 516.926844 290.08884 
L 517.591684 290.146207 
L 518.256523 292.478962 
L 518.921363 291.640909 
L 520.251043 291.462884 
L 521.580722 291.249657 
L 522.245562 291.606746 
L 522.910402 291.812484 
L 523.575241 290.913324 
L 524.240081 291.373671 
L 524.904921 290.655109 
L 525.569761 291.769216 
L 526.2346 293.9815 
L 526.89944 291.825617 
L 528.22912 290.865979 
L 528.893959 294.240667 
L 529.558799 294.500498 
L 530.223639 290.974851 
L 530.888478 294.25787 
L 531.553318 289.715859 
L 532.882998 294.370476 
L 533.547837 292.835261 
L 534.212677 292.815826 
L 534.877517 288.730766 
L 535.542357 290.79043 
L 536.207196 294.973589 
L 536.872036 289.766262 
L 537.536876 294.83826 
L 538.866555 293.92298 
L 539.531395 294.735769 
L 540.196235 293.958547 
L 540.861075 291.581676 
L 541.525914 290.903108 
L 542.190754 292.137402 
L 542.855594 291.664594 
L 543.520434 294.614876 
L 544.185273 290.092474 
L 544.850113 293.302952 
L 545.514953 292.878855 
L 546.179793 292.093691 
L 546.844632 294.275183 
L 547.509472 295.825481 
L 548.174312 294.697246 
L 548.839152 293.148912 
L 549.503991 292.516036 
L 550.168831 294.586027 
L 550.833671 291.916664 
L 551.498511 295.330755 
L 552.16335 294.536461 
L 552.82819 292.854026 
L 553.49303 290.742974 
L 554.15787 298.025669 
L 554.822709 296.648555 
L 555.487549 293.38406 
L 556.152389 291.705796 
L 556.817229 296.447832 
L 557.482068 293.145771 
L 558.146908 293.3454 
L 558.811748 296.668213 
L 559.476588 296.022555 
L 560.141427 292.664094 
L 560.806267 293.224197 
L 561.471107 292.637952 
L 562.800786 295.272469 
L 563.465626 292.634875 
L 564.130466 297.125236 
L 564.795306 295.354198 
L 565.460145 293.92955 
L 566.124985 293.029185 
L 566.789825 299.828266 
L 567.454665 293.64956 
L 568.119504 297.76212 
L 568.784344 293.595456 
L 569.449184 294.663082 
L 570.114024 294.326924 
L 570.778863 291.440482 
L 571.443703 294.683978 
L 572.108543 293.618254 
L 572.773383 295.160072 
L 573.438222 292.923781 
L 574.103062 293.269716 
L 574.767902 296.94699 
L 575.432742 292.377627 
L 576.097581 298.404143 
L 576.762421 295.144817 
L 577.427261 298.02816 
L 578.092101 293.340066 
L 578.75694 293.906879 
L 579.42178 294.989932 
L 580.08662 295.68831 
L 580.75146 293.741425 
L 581.416299 294.940619 
L 582.081139 295.707447 
L 582.745979 293.802759 
L 583.410819 296.556778 
L 584.075658 297.570881 
L 584.740498 297.828086 
L 585.405338 294.526546 
L 586.070178 293.763573 
L 586.735017 295.089595 
L 587.399857 295.329486 
L 588.064697 296.137003 
L 588.729537 296.210953 
L 589.394376 295.468541 
L 590.059216 298.451741 
L 590.724056 296.886817 
L 591.388896 293.969519 
L 592.053735 297.522306 
L 592.718575 296.839333 
L 593.383415 295.714061 
L 594.048254 297.631915 
L 594.713094 298.752976 
L 595.377934 296.474683 
L 596.042774 295.555217 
L 596.707613 297.254731 
L 597.372453 295.894491 
L 598.037293 297.136779 
L 598.702133 299.147268 
L 599.366972 295.028452 
L 600.031812 294.621419 
L 600.696652 294.511472 
L 601.361492 298.72509 
L 602.026331 297.173838 
L 602.691171 297.224876 
L 603.356011 298.258541 
L 604.020851 295.048057 
L 604.68569 295.83111 
L 605.35053 299.592581 
L 606.01537 293.76602 
L 606.68021 298.404165 
L 607.345049 296.311499 
L 608.009889 296.51601 
L 608.674729 295.263853 
L 609.339569 297.987141 
L 610.004408 297.290157 
L 610.669248 300.036358 
L 611.334088 297.383157 
L 611.998928 300.477229 
L 612.663767 295.799652 
L 613.328607 296.210696 
L 613.993447 297.776025 
L 614.658287 298.545702 
L 615.323126 301.118377 
L 616.652806 298.176875 
L 617.982485 296.496186 
L 618.647325 299.358021 
L 619.312165 299.403893 
L 619.977005 297.904915 
L 620.641844 299.069514 
L 621.306684 302.645455 
L 621.971524 298.68679 
L 622.636364 297.787568 
L 622.636364 297.787568 
" style="fill:none;stroke:#1f77b4;stroke-linecap:square;stroke-width:0.5;"/>
   </g>
   <g id="line2d_34">
    <path clip-path="url(#p3303af4f0f)" d="M 115.363636 60.156444 
L 116.028476 69.586383 
L 116.693316 72.714772 
L 117.358156 73.576996 
L 118.022995 77.891727 
L 118.687835 80.962063 
L 119.352675 81.219601 
L 120.017515 83.107319 
L 120.682354 84.564658 
L 121.347194 87.255178 
L 122.012034 88.980002 
L 122.676874 89.69644 
L 123.341713 92.366456 
L 124.006553 92.848077 
L 124.671393 96.081186 
L 125.336233 96.275368 
L 126.001072 98.901802 
L 126.665912 100.816234 
L 127.330752 103.518786 
L 127.995592 107.275004 
L 128.660431 106.254677 
L 129.325271 106.443125 
L 129.990111 109.131842 
L 130.654951 112.976227 
L 131.31979 113.264458 
L 131.98463 115.088159 
L 132.64947 118.540796 
L 133.31431 118.95865 
L 133.979149 122.186543 
L 134.643989 126.004679 
L 135.308829 127.237271 
L 135.973669 128.920298 
L 136.638508 131.808648 
L 137.303348 133.960334 
L 137.968188 133.103862 
L 139.297867 138.798278 
L 139.962707 139.646253 
L 140.627547 143.577974 
L 141.292387 146.589044 
L 141.957226 146.846628 
L 142.622066 149.799411 
L 143.286906 150.050711 
L 143.951746 150.722851 
L 144.616585 152.361277 
L 145.281425 156.053782 
L 145.946265 155.697171 
L 146.611104 157.26973 
L 147.275944 157.956796 
L 147.940784 163.148427 
L 148.605624 163.024357 
L 149.270463 163.056064 
L 149.935303 166.397603 
L 150.600143 167.535746 
L 151.264983 168.418888 
L 151.929822 167.52445 
L 152.594662 169.004877 
L 153.259502 172.052491 
L 153.924342 174.077459 
L 154.589181 175.327689 
L 155.254021 174.245132 
L 155.918861 177.789954 
L 156.583701 176.212699 
L 157.24854 180.300142 
L 157.91338 180.113516 
L 159.24306 183.105424 
L 159.907899 182.411442 
L 160.572739 184.628962 
L 161.237579 186.045262 
L 161.902419 188.314455 
L 162.567258 187.095814 
L 163.232098 187.910528 
L 163.896938 191.107085 
L 164.561778 190.280527 
L 165.226617 190.197544 
L 165.891457 189.718612 
L 166.556297 192.843399 
L 167.221137 194.330682 
L 167.885976 193.233515 
L 168.550816 193.149241 
L 169.215656 196.430742 
L 169.880496 199.112971 
L 170.545335 196.078679 
L 171.210175 199.213347 
L 171.875015 198.273691 
L 172.539855 198.350012 
L 173.204694 198.582465 
L 173.869534 199.994907 
L 174.534374 199.883359 
L 175.199214 204.346415 
L 175.864053 203.601092 
L 176.528893 202.600712 
L 177.193733 204.037856 
L 177.858573 204.429822 
L 178.523412 202.2985 
L 179.188252 204.642011 
L 179.853092 204.963734 
L 180.517932 209.566816 
L 181.182771 205.990618 
L 181.847611 207.587342 
L 182.512451 208.231075 
L 183.177291 208.378273 
L 183.84213 206.836818 
L 184.50697 210.392628 
L 185.17181 212.597385 
L 185.83665 208.766967 
L 186.501489 210.775289 
L 187.166329 211.065658 
L 187.831169 212.285142 
L 188.496009 213.254824 
L 189.160848 213.085475 
L 189.825688 210.984452 
L 190.490528 214.491745 
L 191.155368 215.416148 
L 191.820207 215.343251 
L 192.485047 213.277579 
L 193.814727 216.340758 
L 194.479566 217.171446 
L 195.144406 217.046056 
L 195.809246 217.80702 
L 196.474086 215.111212 
L 197.138925 218.792783 
L 197.803765 215.806373 
L 198.468605 218.471725 
L 199.133445 215.03021 
L 199.798284 217.726369 
L 200.463124 221.370984 
L 201.127964 222.157488 
L 201.792804 215.110218 
L 202.457643 218.270658 
L 203.122483 220.371158 
L 203.787323 221.705946 
L 204.452163 221.263111 
L 205.117002 222.140309 
L 205.781842 222.701698 
L 206.446682 220.00267 
L 207.111522 223.365278 
L 207.776361 222.130984 
L 208.441201 223.645858 
L 209.106041 224.578306 
L 209.77088 224.077628 
L 210.43572 223.838565 
L 211.10056 223.759401 
L 211.7654 224.65943 
L 212.430239 224.804324 
L 213.095079 224.236865 
L 213.759919 221.056479 
L 214.424759 224.861312 
L 215.089598 225.061362 
L 215.754438 223.362876 
L 216.419278 226.740211 
L 217.084118 225.782784 
L 217.748957 223.556407 
L 218.413797 226.216295 
L 219.078637 227.060882 
L 219.743477 227.402822 
L 220.408316 228.632866 
L 221.073156 226.842102 
L 221.737996 226.59213 
L 222.402836 228.334865 
L 223.067675 228.454091 
L 223.732515 226.400643 
L 224.397355 232.310327 
L 225.062195 225.260281 
L 226.391874 232.250181 
L 227.056714 230.967127 
L 227.721554 233.582265 
L 228.386393 229.376889 
L 229.051233 230.207235 
L 229.716073 232.406614 
L 230.380913 229.301409 
L 231.045752 229.108742 
L 231.710592 228.304926 
L 232.375432 229.059139 
L 233.705111 230.790377 
L 234.369951 233.328845 
L 235.034791 230.068845 
L 235.699631 230.113568 
L 236.36447 233.214024 
L 237.02931 232.294969 
L 237.69415 229.433463 
L 238.35899 233.375909 
L 239.023829 234.305235 
L 240.353509 230.584295 
L 241.018349 231.437724 
L 241.683188 233.339448 
L 242.348028 234.123006 
L 243.012868 234.578309 
L 243.677708 234.181295 
L 244.342547 231.874695 
L 246.337067 234.952533 
L 247.001906 234.520929 
L 247.666746 232.339201 
L 248.331586 232.036097 
L 248.996426 234.961189 
L 249.661265 234.373245 
L 250.326105 235.079716 
L 250.990945 235.309582 
L 251.655785 232.394555 
L 252.320624 233.866714 
L 252.985464 230.123495 
L 253.650304 238.204928 
L 254.315144 235.154047 
L 254.979983 235.974219 
L 255.644823 234.29382 
L 256.309663 236.900856 
L 256.974503 237.39599 
L 257.639342 235.823388 
L 258.304182 235.752027 
L 258.969022 233.781956 
L 259.633862 236.475027 
L 260.298701 236.986004 
L 260.963541 237.190452 
L 261.628381 237.556325 
L 262.293221 237.250278 
L 262.95806 238.381598 
L 263.6229 235.416542 
L 264.28774 236.173387 
L 265.617419 237.30363 
L 266.282259 238.277949 
L 266.947099 236.551934 
L 267.611939 237.968468 
L 268.276778 235.975138 
L 268.941618 235.485081 
L 269.606458 235.856053 
L 270.271298 237.345542 
L 270.936137 235.574791 
L 271.600977 237.225238 
L 272.265817 237.293315 
L 272.930656 235.916208 
L 273.595496 240.30169 
L 274.260336 239.187586 
L 274.925176 238.46886 
L 275.590015 238.725662 
L 276.254855 239.890039 
L 276.919695 238.646949 
L 277.584535 237.959132 
L 278.914214 236.313255 
L 279.579054 238.286154 
L 280.243894 237.914466 
L 280.908733 237.879911 
L 281.573573 239.152188 
L 282.238413 236.70246 
L 282.903253 240.605761 
L 283.568092 238.638068 
L 284.232932 239.64743 
L 284.897772 240.213893 
L 285.562612 236.689939 
L 286.227451 241.543209 
L 286.892291 242.085991 
L 287.557131 237.811023 
L 288.221971 240.485899 
L 288.88681 238.265607 
L 289.55165 239.687311 
L 290.21649 239.904782 
L 290.88133 241.221035 
L 291.546169 239.40368 
L 292.875849 239.454906 
L 293.540689 239.143417 
L 294.205528 240.601183 
L 294.870368 240.811882 
L 295.535208 239.524417 
L 296.200048 241.282103 
L 296.864887 240.183649 
L 297.529727 240.253965 
L 298.194567 240.034355 
L 298.859407 243.001156 
L 299.524246 238.619325 
L 300.189086 241.966228 
L 300.853926 237.062074 
L 301.518766 242.050341 
L 302.183605 242.492836 
L 302.848445 239.715937 
L 303.513285 240.953125 
L 304.178125 238.105285 
L 304.842964 237.379181 
L 305.507804 240.759144 
L 306.172644 238.772672 
L 306.837484 239.183397 
L 307.502323 237.204739 
L 308.167163 241.436405 
L 308.832003 243.069752 
L 309.496843 239.05095 
L 310.161682 240.010525 
L 310.826522 236.401071 
L 311.491362 239.578489 
L 312.156202 243.924347 
L 312.821041 241.955965 
L 313.485881 241.766915 
L 314.150721 238.747892 
L 314.815561 244.32772 
L 315.4804 240.189527 
L 316.14524 244.116092 
L 316.81008 237.144998 
L 317.47492 238.45898 
L 318.139759 239.255836 
L 318.804599 237.480277 
L 320.134279 240.490178 
L 320.799118 239.927842 
L 321.463958 244.692351 
L 322.128798 244.887774 
L 323.458477 239.755584 
L 324.123317 238.849724 
L 324.788157 239.049293 
L 325.452997 239.588365 
L 326.117836 244.253318 
L 326.782676 240.52728 
L 327.447516 245.019488 
L 328.112356 240.617273 
L 328.777195 240.332792 
L 329.442035 242.214907 
L 330.106875 240.466246 
L 330.771715 242.520189 
L 331.436554 242.478504 
L 332.101394 242.270986 
L 332.766234 240.66805 
L 333.431074 244.755677 
L 334.095913 242.404019 
L 334.760753 243.06691 
L 335.425593 241.113955 
L 336.090433 241.21699 
L 336.755272 243.729619 
L 337.420112 242.586857 
L 338.084952 240.916214 
L 338.749791 240.396745 
L 339.414631 242.84949 
L 340.079471 242.593412 
L 340.744311 243.642479 
L 341.40915 241.033406 
L 342.07399 241.583062 
L 342.73883 242.468296 
L 343.40367 238.4239 
L 344.068509 243.302519 
L 344.733349 240.195326 
L 345.398189 242.723502 
L 346.063029 241.157744 
L 347.392708 243.51559 
L 348.057548 241.264182 
L 348.722388 241.197041 
L 349.387227 241.585737 
L 350.052067 238.716127 
L 350.716907 243.273444 
L 351.381747 245.664811 
L 352.046586 240.800494 
L 352.711426 241.295762 
L 353.376266 240.679868 
L 354.041106 243.194015 
L 354.705945 243.876912 
L 355.370785 239.907095 
L 356.035625 241.751359 
L 356.700465 242.911718 
L 357.365304 242.445576 
L 358.030144 245.035389 
L 358.694984 242.239658 
L 359.359824 240.163234 
L 360.024663 243.099446 
L 360.689503 240.06964 
L 361.354343 246.7229 
L 362.019183 242.546208 
L 362.684022 239.824513 
L 363.348862 245.668655 
L 364.013702 244.13911 
L 364.678542 240.404747 
L 365.343381 242.264446 
L 366.008221 242.031061 
L 366.673061 241.965229 
L 367.337901 241.559158 
L 368.00274 244.472925 
L 368.66758 243.03599 
L 369.33242 243.603164 
L 369.99726 241.814153 
L 370.662099 245.302332 
L 371.326939 242.774936 
L 371.991779 241.069338 
L 372.656619 238.765996 
L 373.321458 241.753717 
L 373.986298 243.662054 
L 374.651138 244.935551 
L 375.315978 243.114788 
L 375.980817 240.779411 
L 376.645657 245.089714 
L 377.310497 240.973374 
L 377.975337 244.724003 
L 378.640176 243.762768 
L 379.305016 241.827491 
L 379.969856 244.081081 
L 380.634696 243.787655 
L 381.299535 242.758546 
L 381.964375 245.58779 
L 382.629215 242.296712 
L 383.294055 241.989638 
L 383.958894 243.871667 
L 384.623734 246.940345 
L 385.288574 242.224902 
L 385.953414 241.978008 
L 386.618253 241.199702 
L 387.283093 244.015379 
L 387.947933 243.939506 
L 388.612773 241.995522 
L 389.277612 241.040005 
L 389.942452 241.137874 
L 390.607292 241.520497 
L 391.272132 241.696287 
L 391.936971 240.43024 
L 392.601811 243.056666 
L 393.266651 244.605667 
L 393.931491 243.746141 
L 394.59633 243.192381 
L 395.26117 242.937963 
L 395.92601 242.310394 
L 396.59085 242.02326 
L 397.255689 241.928996 
L 397.920529 243.5933 
L 398.585369 241.551745 
L 399.250209 236.983143 
L 399.915048 239.508125 
L 400.579888 242.725708 
L 401.244728 241.851459 
L 401.909567 242.109179 
L 402.574407 245.943667 
L 403.239247 242.397641 
L 403.904087 239.493589 
L 404.568926 239.439738 
L 405.233766 240.445556 
L 405.898606 240.426395 
L 406.563446 239.184815 
L 407.228285 244.857866 
L 407.893125 245.70917 
L 408.557965 244.497332 
L 409.222805 242.475896 
L 409.887644 243.890447 
L 410.552484 244.106098 
L 411.217324 240.745877 
L 411.882164 242.594803 
L 412.547003 241.767981 
L 413.211843 245.479101 
L 413.876683 243.489816 
L 414.541523 241.892545 
L 415.206362 244.086712 
L 415.871202 244.477578 
L 416.536042 245.018876 
L 417.865721 240.848535 
L 418.530561 242.966809 
L 419.195401 244.612021 
L 419.860241 240.663068 
L 420.52508 241.449312 
L 421.18992 241.187188 
L 421.85476 240.412529 
L 422.5196 242.08324 
L 423.184439 240.66518 
L 423.849279 245.687456 
L 424.514119 240.196178 
L 425.178959 240.911973 
L 426.508638 245.150503 
L 427.173478 244.91488 
L 427.838318 247.03297 
L 428.503157 243.519184 
L 429.167997 242.734063 
L 431.827356 240.432033 
L 432.492196 240.707628 
L 433.157036 244.709517 
L 433.821875 242.843666 
L 434.486715 245.42699 
L 435.151555 243.064696 
L 436.481234 239.537545 
L 437.146074 242.574489 
L 437.810914 239.527133 
L 439.140593 241.69296 
L 439.805433 241.849091 
L 440.470273 241.721757 
L 441.135113 241.996985 
L 441.799952 239.27704 
L 442.464792 240.06206 
L 443.129632 240.087556 
L 443.794472 245.268903 
L 444.459311 239.547026 
L 445.788991 244.861693 
L 447.11867 241.244727 
L 447.78351 243.838953 
L 448.44835 244.969992 
L 449.11319 240.160379 
L 449.778029 245.076588 
L 450.442869 242.474244 
L 451.772549 240.795489 
L 452.437388 247.103157 
L 453.102228 242.97884 
L 453.767068 240.660036 
L 454.431908 239.177133 
L 455.096747 244.827591 
L 455.761587 240.836055 
L 456.426427 241.162588 
L 457.091267 243.108265 
L 457.756106 242.975801 
L 458.420946 243.105042 
L 459.085786 243.088538 
L 459.750626 242.103085 
L 460.415465 241.732812 
L 461.080305 240.909136 
L 461.745145 241.76438 
L 462.409985 245.994892 
L 463.074824 242.383753 
L 463.739664 244.485211 
L 464.404504 239.871725 
L 465.069344 242.092733 
L 465.734183 241.433521 
L 466.399023 244.088185 
L 467.063863 241.198105 
L 467.728702 243.298331 
L 468.393542 241.343839 
L 469.058382 244.281959 
L 469.723222 244.649201 
L 470.388061 240.992293 
L 471.052901 246.164772 
L 471.717741 241.898906 
L 472.382581 245.102549 
L 473.04742 245.847331 
L 473.71226 240.768836 
L 474.3771 241.479371 
L 475.04194 241.116465 
L 475.706779 242.465651 
L 476.371619 243.305014 
L 477.036459 242.628292 
L 477.701299 241.422108 
L 478.366138 246.141187 
L 479.030978 239.350918 
L 479.695818 242.143026 
L 480.360658 238.93148 
L 481.690337 238.656708 
L 482.355177 240.096342 
L 483.020017 243.605641 
L 483.684856 241.828646 
L 484.349696 244.356351 
L 485.014536 242.814751 
L 485.679376 240.200614 
L 486.344215 240.037084 
L 487.009055 244.18045 
L 487.673895 240.329985 
L 488.338735 240.469871 
L 489.003574 242.354821 
L 489.668414 247.555617 
L 490.333254 240.336566 
L 490.998094 239.873187 
L 491.662933 237.411498 
L 492.327773 240.765705 
L 492.992613 246.038484 
L 493.657453 242.542302 
L 494.322292 242.028436 
L 494.987132 243.505014 
L 495.651972 241.312403 
L 496.316812 241.647665 
L 496.981651 245.257295 
L 497.646491 237.090927 
L 498.311331 243.605013 
L 498.976171 240.818852 
L 499.64101 239.326883 
L 500.30585 241.37472 
L 500.97069 240.65601 
L 501.63553 241.668703 
L 502.300369 241.995447 
L 502.965209 239.334896 
L 503.630049 242.794521 
L 504.294889 241.206785 
L 504.959728 238.902058 
L 505.624568 237.653557 
L 506.289408 241.251988 
L 506.954248 242.467464 
L 507.619087 240.466034 
L 508.283927 242.019907 
L 508.948767 239.9794 
L 509.613607 239.653031 
L 510.943286 242.771653 
L 511.608126 236.812817 
L 512.272966 245.317686 
L 512.937805 241.385127 
L 513.602645 240.594596 
L 514.267485 240.128923 
L 514.932325 244.969461 
L 515.597164 244.05362 
L 516.262004 241.402153 
L 516.926844 241.088128 
L 517.591684 239.55576 
L 518.256523 240.430396 
L 518.921363 240.262898 
L 519.586203 240.740164 
L 520.251043 244.591928 
L 520.915882 240.950938 
L 521.580722 242.392214 
L 522.245562 243.294056 
L 522.910402 241.837503 
L 524.904921 239.869337 
L 525.569761 241.979776 
L 526.2346 240.991417 
L 526.89944 240.70026 
L 527.56428 240.025054 
L 528.22912 238.974081 
L 528.893959 238.51078 
L 529.558799 241.448912 
L 530.223639 239.930288 
L 530.888478 243.980797 
L 531.553318 239.88641 
L 532.218158 240.654476 
L 532.882998 242.002257 
L 533.547837 238.474868 
L 534.212677 240.310633 
L 534.877517 239.633954 
L 535.542357 241.388044 
L 536.872036 243.116451 
L 537.536876 239.650072 
L 538.201716 240.543274 
L 538.866555 239.962383 
L 539.531395 241.916387 
L 540.196235 241.553561 
L 540.861075 239.176351 
L 541.525914 239.841414 
L 542.190754 242.709138 
L 542.855594 238.874977 
L 543.520434 239.183716 
L 544.185273 242.299065 
L 544.850113 244.310221 
L 545.514953 240.134408 
L 546.179793 239.056476 
L 546.844632 239.947466 
L 547.509472 243.618944 
L 548.174312 245.125685 
L 548.839152 239.288743 
L 549.503991 243.217694 
L 550.168831 243.09221 
L 550.833671 240.67235 
L 551.498511 240.19048 
L 552.16335 238.465886 
L 552.82819 243.595483 
L 553.49303 241.268167 
L 554.15787 242.879966 
L 554.822709 237.753489 
L 556.152389 241.093713 
L 556.817229 241.290579 
L 557.482068 240.178584 
L 558.146908 240.978024 
L 558.811748 240.949472 
L 559.476588 241.851721 
L 560.141427 241.796241 
L 560.806267 239.428272 
L 561.471107 240.965512 
L 562.135947 240.599869 
L 562.800786 241.004823 
L 563.465626 241.817869 
L 564.130466 243.263581 
L 564.795306 243.378607 
L 565.460145 238.564128 
L 566.124985 241.535846 
L 566.789825 242.870047 
L 567.454665 239.745042 
L 568.119504 241.753032 
L 568.784344 241.682547 
L 569.449184 244.408391 
L 570.114024 243.250604 
L 570.778863 246.877771 
L 571.443703 241.078667 
L 572.108543 242.475924 
L 573.438222 241.385319 
L 574.103062 239.946281 
L 574.767902 242.69686 
L 575.432742 244.449533 
L 576.097581 239.856802 
L 576.762421 240.891425 
L 577.427261 242.555712 
L 578.092101 235.659342 
L 578.75694 242.03391 
L 579.42178 239.541558 
L 580.08662 241.179148 
L 580.75146 240.784315 
L 581.416299 242.645732 
L 582.081139 240.310968 
L 582.745979 236.571723 
L 583.410819 240.989068 
L 584.075658 241.051505 
L 584.740498 243.370923 
L 585.405338 240.160708 
L 586.070178 239.357341 
L 586.735017 238.992085 
L 587.399857 237.594495 
L 588.064697 234.351313 
L 588.729537 241.284221 
L 589.394376 237.47462 
L 590.059216 240.043052 
L 590.724056 236.411982 
L 591.388896 242.093549 
L 592.053735 240.447033 
L 592.718575 237.651426 
L 593.383415 236.559493 
L 594.048254 240.364675 
L 594.713094 235.856917 
L 595.377934 241.53839 
L 596.042774 239.603285 
L 596.707613 244.841387 
L 597.372453 243.011479 
L 598.037293 239.910274 
L 598.702133 239.445219 
L 599.366972 244.234776 
L 600.031812 240.476956 
L 600.696652 237.447561 
L 601.361492 239.677273 
L 602.026331 241.475632 
L 602.691171 242.483135 
L 603.356011 234.440623 
L 604.020851 239.39794 
L 604.68569 241.098118 
L 605.35053 239.30035 
L 606.01537 242.083917 
L 606.68021 244.01044 
L 607.345049 235.249029 
L 608.009889 236.7008 
L 608.674729 235.82933 
L 610.004408 236.649852 
L 610.669248 241.006422 
L 611.334088 235.931097 
L 611.998928 237.192377 
L 612.663767 240.975425 
L 613.328607 238.389346 
L 613.993447 239.417579 
L 614.658287 237.92872 
L 615.323126 240.05969 
L 615.987966 239.326499 
L 616.652806 237.52499 
L 617.317646 235.394789 
L 617.982485 235.897522 
L 618.647325 238.72294 
L 619.312165 239.599796 
L 619.977005 235.05858 
L 620.641844 236.426 
L 621.306684 238.27325 
L 621.971524 234.513137 
L 622.636364 244.737558 
L 622.636364 244.737558 
" style="fill:none;stroke:#ff7f0e;stroke-linecap:square;stroke-width:0.5;"/>
   </g>
   <g id="patch_3">
    <path d="M 90 315 
L 90 43.2 
" style="fill:none;stroke:#000000;stroke-linecap:square;stroke-linejoin:miter;stroke-width:0.8;"/>
   </g>
   <g id="patch_4">
    <path d="M 648 315 
L 648 43.2 
" style="fill:none;stroke:#000000;stroke-linecap:square;stroke-linejoin:miter;stroke-width:0.8;"/>
   </g>
   <g id="patch_5">
    <path d="M 90 315 
L 648 315 
" style="fill:none;stroke:#000000;stroke-linecap:square;stroke-linejoin:miter;stroke-width:0.8;"/>
   </g>
   <g id="patch_6">
    <path d="M 90 43.2 
L 648 43.2 
" style="fill:none;stroke:#000000;stroke-linecap:square;stroke-linejoin:miter;stroke-width:0.8;"/>
   </g>
   <g id="text_19">
    <!-- loss -->
    <g transform="translate(357.410625 37.2)scale(0.12 -0.12)">
     <use xlink:href="#DejaVuSans-108"/>
     <use x="27.783203" xlink:href="#DejaVuSans-111"/>
     <use x="88.964844" xlink:href="#DejaVuSans-115"/>
     <use x="141.064453" xlink:href="#DejaVuSans-115"/>
    </g>
   </g>
   <g id="legend_1">
    <g id="patch_7">
     <path d="M 568.846875 80.55625 
L 641 80.55625 
Q 643 80.55625 643 78.55625 
L 643 50.2 
Q 643 48.2 641 48.2 
L 568.846875 48.2 
Q 566.846875 48.2 566.846875 50.2 
L 566.846875 78.55625 
Q 566.846875 80.55625 568.846875 80.55625 
z
" style="fill:#ffffff;opacity:0.8;stroke:#cccccc;stroke-linejoin:miter;"/>
    </g>
    <g id="line2d_35">
     <path d="M 570.846875 56.298437 
L 590.846875 56.298437 
" style="fill:none;stroke:#1f77b4;stroke-linecap:square;stroke-width:0.5;"/>
    </g>
    <g id="line2d_36"/>
    <g id="text_20">
     <!-- train -->
     <defs>
      <path d="M 18.3125 70.21875 
L 18.3125 54.6875 
L 36.8125 54.6875 
L 36.8125 47.703125 
L 18.3125 47.703125 
L 18.3125 18.015625 
Q 18.3125 11.328125 20.140625 9.421875 
Q 21.96875 7.515625 27.59375 7.515625 
L 36.8125 7.515625 
L 36.8125 0 
L 27.59375 0 
Q 17.1875 0 13.234375 3.875 
Q 9.28125 7.765625 9.28125 18.015625 
L 9.28125 47.703125 
L 2.6875 47.703125 
L 2.6875 54.6875 
L 9.28125 54.6875 
L 9.28125 70.21875 
z
" id="DejaVuSans-116"/>
      <path d="M 41.109375 46.296875 
Q 39.59375 47.171875 37.8125 47.578125 
Q 36.03125 48 33.890625 48 
Q 26.265625 48 22.1875 43.046875 
Q 18.109375 38.09375 18.109375 28.8125 
L 18.109375 0 
L 9.078125 0 
L 9.078125 54.6875 
L 18.109375 54.6875 
L 18.109375 46.1875 
Q 20.953125 51.171875 25.484375 53.578125 
Q 30.03125 56 36.53125 56 
Q 37.453125 56 38.578125 55.875 
Q 39.703125 55.765625 41.0625 55.515625 
z
" id="DejaVuSans-114"/>
      <path d="M 34.28125 27.484375 
Q 23.390625 27.484375 19.1875 25 
Q 14.984375 22.515625 14.984375 16.5 
Q 14.984375 11.71875 18.140625 8.90625 
Q 21.296875 6.109375 26.703125 6.109375 
Q 34.1875 6.109375 38.703125 11.40625 
Q 43.21875 16.703125 43.21875 25.484375 
L 43.21875 27.484375 
z
M 52.203125 31.203125 
L 52.203125 0 
L 43.21875 0 
L 43.21875 8.296875 
Q 40.140625 3.328125 35.546875 0.953125 
Q 30.953125 -1.421875 24.3125 -1.421875 
Q 15.921875 -1.421875 10.953125 3.296875 
Q 6 8.015625 6 15.921875 
Q 6 25.140625 12.171875 29.828125 
Q 18.359375 34.515625 30.609375 34.515625 
L 43.21875 34.515625 
L 43.21875 35.40625 
Q 43.21875 41.609375 39.140625 45 
Q 35.0625 48.390625 27.6875 48.390625 
Q 23 48.390625 18.546875 47.265625 
Q 14.109375 46.140625 10.015625 43.890625 
L 10.015625 52.203125 
Q 14.9375 54.109375 19.578125 55.046875 
Q 24.21875 56 28.609375 56 
Q 40.484375 56 46.34375 49.84375 
Q 52.203125 43.703125 52.203125 31.203125 
z
" id="DejaVuSans-97"/>
      <path d="M 9.421875 54.6875 
L 18.40625 54.6875 
L 18.40625 0 
L 9.421875 0 
z
M 9.421875 75.984375 
L 18.40625 75.984375 
L 18.40625 64.59375 
L 9.421875 64.59375 
z
" id="DejaVuSans-105"/>
      <path d="M 54.890625 33.015625 
L 54.890625 0 
L 45.90625 0 
L 45.90625 32.71875 
Q 45.90625 40.484375 42.875 44.328125 
Q 39.84375 48.1875 33.796875 48.1875 
Q 26.515625 48.1875 22.3125 43.546875 
Q 18.109375 38.921875 18.109375 30.90625 
L 18.109375 0 
L 9.078125 0 
L 9.078125 54.6875 
L 18.109375 54.6875 
L 18.109375 46.1875 
Q 21.34375 51.125 25.703125 53.5625 
Q 30.078125 56 35.796875 56 
Q 45.21875 56 50.046875 50.171875 
Q 54.890625 44.34375 54.890625 33.015625 
z
" id="DejaVuSans-110"/>
     </defs>
     <g transform="translate(598.846875 59.798437)scale(0.1 -0.1)">
      <use xlink:href="#DejaVuSans-116"/>
      <use x="39.208984" xlink:href="#DejaVuSans-114"/>
      <use x="80.322266" xlink:href="#DejaVuSans-97"/>
      <use x="141.601562" xlink:href="#DejaVuSans-105"/>
      <use x="169.384766" xlink:href="#DejaVuSans-110"/>
     </g>
    </g>
    <g id="line2d_37">
     <path d="M 570.846875 70.976562 
L 590.846875 70.976562 
" style="fill:none;stroke:#ff7f0e;stroke-linecap:square;stroke-width:0.5;"/>
    </g>
    <g id="line2d_38"/>
    <g id="text_21">
     <!-- validate -->
     <defs>
      <path d="M 2.984375 54.6875 
L 12.5 54.6875 
L 29.59375 8.796875 
L 46.6875 54.6875 
L 56.203125 54.6875 
L 35.6875 0 
L 23.484375 0 
z
" id="DejaVuSans-118"/>
      <path d="M 45.40625 46.390625 
L 45.40625 75.984375 
L 54.390625 75.984375 
L 54.390625 0 
L 45.40625 0 
L 45.40625 8.203125 
Q 42.578125 3.328125 38.25 0.953125 
Q 33.9375 -1.421875 27.875 -1.421875 
Q 17.96875 -1.421875 11.734375 6.484375 
Q 5.515625 14.40625 5.515625 27.296875 
Q 5.515625 40.1875 11.734375 48.09375 
Q 17.96875 56 27.875 56 
Q 33.9375 56 38.25 53.625 
Q 42.578125 51.265625 45.40625 46.390625 
z
M 14.796875 27.296875 
Q 14.796875 17.390625 18.875 11.75 
Q 22.953125 6.109375 30.078125 6.109375 
Q 37.203125 6.109375 41.296875 11.75 
Q 45.40625 17.390625 45.40625 27.296875 
Q 45.40625 37.203125 41.296875 42.84375 
Q 37.203125 48.484375 30.078125 48.484375 
Q 22.953125 48.484375 18.875 42.84375 
Q 14.796875 37.203125 14.796875 27.296875 
z
" id="DejaVuSans-100"/>
     </defs>
     <g transform="translate(598.846875 74.476562)scale(0.1 -0.1)">
      <use xlink:href="#DejaVuSans-118"/>
      <use x="59.179688" xlink:href="#DejaVuSans-97"/>
      <use x="120.458984" xlink:href="#DejaVuSans-108"/>
      <use x="148.242188" xlink:href="#DejaVuSans-105"/>
      <use x="176.025391" xlink:href="#DejaVuSans-100"/>
      <use x="239.501953" xlink:href="#DejaVuSans-97"/>
      <use x="300.78125" xlink:href="#DejaVuSans-116"/>
      <use x="339.990234" xlink:href="#DejaVuSans-101"/>
     </g>
    </g>
   </g>
  </g>
 </g>
 <defs>
  <clipPath id="p3303af4f0f">
   <rect height="271.8" width="558" x="90" y="43.2"/>
  </clipPath>
 </defs>
</svg>
