<?xml version="1.0" encoding="utf-8" standalone="no"?>
<!DOCTYPE svg PUBLIC "-//W3C//DTD SVG 1.1//EN"
  "http://www.w3.org/Graphics/SVG/1.1/DTD/svg11.dtd">
<!-- Created with matplotlib (https://matplotlib.org/) -->
<svg height="360pt" version="1.1" viewBox="0 0 720 360" width="720pt" xmlns="http://www.w3.org/2000/svg" xmlns:xlink="http://www.w3.org/1999/xlink">
 <defs>
  <style type="text/css">
*{stroke-linecap:butt;stroke-linejoin:round;}
  </style>
 </defs>
 <g id="figure_1">
  <g id="patch_1">
   <path d="M 0 360 
L 720 360 
L 720 0 
L 0 0 
z
" style="fill:#ffffff;"/>
  </g>
  <g id="axes_1">
   <g id="patch_2">
    <path d="M 90 315 
L 648 315 
L 648 43.2 
L 90 43.2 
z
" style="fill:#ffffff;"/>
   </g>
   <g id="matplotlib.axis_1">
    <g id="xtick_1">
     <g id="line2d_1">
      <path clip-path="url(#p0c90410a7a)" d="M 115.363636 315 
L 115.363636 43.2 
" style="fill:none;stroke:#b0b0b0;stroke-linecap:square;stroke-width:0.8;"/>
     </g>
     <g id="line2d_2">
      <defs>
       <path d="M 0 0 
L 0 3.5 
" id="m90cb3d5538" style="stroke:#000000;stroke-width:0.8;"/>
      </defs>
      <g>
       <use style="stroke:#000000;stroke-width:0.8;" x="115.363636" xlink:href="#m90cb3d5538" y="315"/>
      </g>
     </g>
     <g id="text_1">
      <!-- 0 -->
      <defs>
       <path d="M 31.78125 66.40625 
Q 24.171875 66.40625 20.328125 58.90625 
Q 16.5 51.421875 16.5 36.375 
Q 16.5 21.390625 20.328125 13.890625 
Q 24.171875 6.390625 31.78125 6.390625 
Q 39.453125 6.390625 43.28125 13.890625 
Q 47.125 21.390625 47.125 36.375 
Q 47.125 51.421875 43.28125 58.90625 
Q 39.453125 66.40625 31.78125 66.40625 
z
M 31.78125 74.21875 
Q 44.046875 74.21875 50.515625 64.515625 
Q 56.984375 54.828125 56.984375 36.375 
Q 56.984375 17.96875 50.515625 8.265625 
Q 44.046875 -1.421875 31.78125 -1.421875 
Q 19.53125 -1.421875 13.0625 8.265625 
Q 6.59375 17.96875 6.59375 36.375 
Q 6.59375 54.828125 13.0625 64.515625 
Q 19.53125 74.21875 31.78125 74.21875 
z
" id="DejaVuSans-48"/>
      </defs>
      <g transform="translate(112.182386 329.598437)scale(0.1 -0.1)">
       <use xlink:href="#DejaVuSans-48"/>
      </g>
     </g>
    </g>
    <g id="xtick_2">
     <g id="line2d_3">
      <path clip-path="url(#p0c90410a7a)" d="M 201.634508 315 
L 201.634508 43.2 
" style="fill:none;stroke:#b0b0b0;stroke-linecap:square;stroke-width:0.8;"/>
     </g>
     <g id="line2d_4">
      <g>
       <use style="stroke:#000000;stroke-width:0.8;" x="201.634508" xlink:href="#m90cb3d5538" y="315"/>
      </g>
     </g>
     <g id="text_2">
      <!-- 200 -->
      <defs>
       <path d="M 19.1875 8.296875 
L 53.609375 8.296875 
L 53.609375 0 
L 7.328125 0 
L 7.328125 8.296875 
Q 12.9375 14.109375 22.625 23.890625 
Q 32.328125 33.6875 34.8125 36.53125 
Q 39.546875 41.84375 41.421875 45.53125 
Q 43.3125 49.21875 43.3125 52.78125 
Q 43.3125 58.59375 39.234375 62.25 
Q 35.15625 65.921875 28.609375 65.921875 
Q 23.96875 65.921875 18.8125 64.3125 
Q 13.671875 62.703125 7.8125 59.421875 
L 7.8125 69.390625 
Q 13.765625 71.78125 18.9375 73 
Q 24.125 74.21875 28.421875 74.21875 
Q 39.75 74.21875 46.484375 68.546875 
Q 53.21875 62.890625 53.21875 53.421875 
Q 53.21875 48.921875 51.53125 44.890625 
Q 49.859375 40.875 45.40625 35.40625 
Q 44.1875 33.984375 37.640625 27.21875 
Q 31.109375 20.453125 19.1875 8.296875 
z
" id="DejaVuSans-50"/>
      </defs>
      <g transform="translate(192.090758 329.598437)scale(0.1 -0.1)">
       <use xlink:href="#DejaVuSans-50"/>
       <use x="63.623047" xlink:href="#DejaVuSans-48"/>
       <use x="127.246094" xlink:href="#DejaVuSans-48"/>
      </g>
     </g>
    </g>
    <g id="xtick_3">
     <g id="line2d_5">
      <path clip-path="url(#p0c90410a7a)" d="M 287.90538 315 
L 287.90538 43.2 
" style="fill:none;stroke:#b0b0b0;stroke-linecap:square;stroke-width:0.8;"/>
     </g>
     <g id="line2d_6">
      <g>
       <use style="stroke:#000000;stroke-width:0.8;" x="287.90538" xlink:href="#m90cb3d5538" y="315"/>
      </g>
     </g>
     <g id="text_3">
      <!-- 400 -->
      <defs>
       <path d="M 37.796875 64.3125 
L 12.890625 25.390625 
L 37.796875 25.390625 
z
M 35.203125 72.90625 
L 47.609375 72.90625 
L 47.609375 25.390625 
L 58.015625 25.390625 
L 58.015625 17.1875 
L 47.609375 17.1875 
L 47.609375 0 
L 37.796875 0 
L 37.796875 17.1875 
L 4.890625 17.1875 
L 4.890625 26.703125 
z
" id="DejaVuSans-52"/>
      </defs>
      <g transform="translate(278.36163 329.598437)scale(0.1 -0.1)">
       <use xlink:href="#DejaVuSans-52"/>
       <use x="63.623047" xlink:href="#DejaVuSans-48"/>
       <use x="127.246094" xlink:href="#DejaVuSans-48"/>
      </g>
     </g>
    </g>
    <g id="xtick_4">
     <g id="line2d_7">
      <path clip-path="url(#p0c90410a7a)" d="M 374.176252 315 
L 374.176252 43.2 
" style="fill:none;stroke:#b0b0b0;stroke-linecap:square;stroke-width:0.8;"/>
     </g>
     <g id="line2d_8">
      <g>
       <use style="stroke:#000000;stroke-width:0.8;" x="374.176252" xlink:href="#m90cb3d5538" y="315"/>
      </g>
     </g>
     <g id="text_4">
      <!-- 600 -->
      <defs>
       <path d="M 33.015625 40.375 
Q 26.375 40.375 22.484375 35.828125 
Q 18.609375 31.296875 18.609375 23.390625 
Q 18.609375 15.53125 22.484375 10.953125 
Q 26.375 6.390625 33.015625 6.390625 
Q 39.65625 6.390625 43.53125 10.953125 
Q 47.40625 15.53125 47.40625 23.390625 
Q 47.40625 31.296875 43.53125 35.828125 
Q 39.65625 40.375 33.015625 40.375 
z
M 52.59375 71.296875 
L 52.59375 62.3125 
Q 48.875 64.0625 45.09375 64.984375 
Q 41.3125 65.921875 37.59375 65.921875 
Q 27.828125 65.921875 22.671875 59.328125 
Q 17.53125 52.734375 16.796875 39.40625 
Q 19.671875 43.65625 24.015625 45.921875 
Q 28.375 48.1875 33.59375 48.1875 
Q 44.578125 48.1875 50.953125 41.515625 
Q 57.328125 34.859375 57.328125 23.390625 
Q 57.328125 12.15625 50.6875 5.359375 
Q 44.046875 -1.421875 33.015625 -1.421875 
Q 20.359375 -1.421875 13.671875 8.265625 
Q 6.984375 17.96875 6.984375 36.375 
Q 6.984375 53.65625 15.1875 63.9375 
Q 23.390625 74.21875 37.203125 74.21875 
Q 40.921875 74.21875 44.703125 73.484375 
Q 48.484375 72.75 52.59375 71.296875 
z
" id="DejaVuSans-54"/>
      </defs>
      <g transform="translate(364.632502 329.598437)scale(0.1 -0.1)">
       <use xlink:href="#DejaVuSans-54"/>
       <use x="63.623047" xlink:href="#DejaVuSans-48"/>
       <use x="127.246094" xlink:href="#DejaVuSans-48"/>
      </g>
     </g>
    </g>
    <g id="xtick_5">
     <g id="line2d_9">
      <path clip-path="url(#p0c90410a7a)" d="M 460.447124 315 
L 460.447124 43.2 
" style="fill:none;stroke:#b0b0b0;stroke-linecap:square;stroke-width:0.8;"/>
     </g>
     <g id="line2d_10">
      <g>
       <use style="stroke:#000000;stroke-width:0.8;" x="460.447124" xlink:href="#m90cb3d5538" y="315"/>
      </g>
     </g>
     <g id="text_5">
      <!-- 800 -->
      <defs>
       <path d="M 31.78125 34.625 
Q 24.75 34.625 20.71875 30.859375 
Q 16.703125 27.09375 16.703125 20.515625 
Q 16.703125 13.921875 20.71875 10.15625 
Q 24.75 6.390625 31.78125 6.390625 
Q 38.8125 6.390625 42.859375 10.171875 
Q 46.921875 13.96875 46.921875 20.515625 
Q 46.921875 27.09375 42.890625 30.859375 
Q 38.875 34.625 31.78125 34.625 
z
M 21.921875 38.8125 
Q 15.578125 40.375 12.03125 44.71875 
Q 8.5 49.078125 8.5 55.328125 
Q 8.5 64.0625 14.71875 69.140625 
Q 20.953125 74.21875 31.78125 74.21875 
Q 42.671875 74.21875 48.875 69.140625 
Q 55.078125 64.0625 55.078125 55.328125 
Q 55.078125 49.078125 51.53125 44.71875 
Q 48 40.375 41.703125 38.8125 
Q 48.828125 37.15625 52.796875 32.3125 
Q 56.78125 27.484375 56.78125 20.515625 
Q 56.78125 9.90625 50.3125 4.234375 
Q 43.84375 -1.421875 31.78125 -1.421875 
Q 19.734375 -1.421875 13.25 4.234375 
Q 6.78125 9.90625 6.78125 20.515625 
Q 6.78125 27.484375 10.78125 32.3125 
Q 14.796875 37.15625 21.921875 38.8125 
z
M 18.3125 54.390625 
Q 18.3125 48.734375 21.84375 45.5625 
Q 25.390625 42.390625 31.78125 42.390625 
Q 38.140625 42.390625 41.71875 45.5625 
Q 45.3125 48.734375 45.3125 54.390625 
Q 45.3125 60.0625 41.71875 63.234375 
Q 38.140625 66.40625 31.78125 66.40625 
Q 25.390625 66.40625 21.84375 63.234375 
Q 18.3125 60.0625 18.3125 54.390625 
z
" id="DejaVuSans-56"/>
      </defs>
      <g transform="translate(450.903374 329.598437)scale(0.1 -0.1)">
       <use xlink:href="#DejaVuSans-56"/>
       <use x="63.623047" xlink:href="#DejaVuSans-48"/>
       <use x="127.246094" xlink:href="#DejaVuSans-48"/>
      </g>
     </g>
    </g>
    <g id="xtick_6">
     <g id="line2d_11">
      <path clip-path="url(#p0c90410a7a)" d="M 546.717996 315 
L 546.717996 43.2 
" style="fill:none;stroke:#b0b0b0;stroke-linecap:square;stroke-width:0.8;"/>
     </g>
     <g id="line2d_12">
      <g>
       <use style="stroke:#000000;stroke-width:0.8;" x="546.717996" xlink:href="#m90cb3d5538" y="315"/>
      </g>
     </g>
     <g id="text_6">
      <!-- 1000 -->
      <defs>
       <path d="M 12.40625 8.296875 
L 28.515625 8.296875 
L 28.515625 63.921875 
L 10.984375 60.40625 
L 10.984375 69.390625 
L 28.421875 72.90625 
L 38.28125 72.90625 
L 38.28125 8.296875 
L 54.390625 8.296875 
L 54.390625 0 
L 12.40625 0 
z
" id="DejaVuSans-49"/>
      </defs>
      <g transform="translate(533.992996 329.598437)scale(0.1 -0.1)">
       <use xlink:href="#DejaVuSans-49"/>
       <use x="63.623047" xlink:href="#DejaVuSans-48"/>
       <use x="127.246094" xlink:href="#DejaVuSans-48"/>
       <use x="190.869141" xlink:href="#DejaVuSans-48"/>
      </g>
     </g>
    </g>
    <g id="xtick_7">
     <g id="line2d_13">
      <path clip-path="url(#p0c90410a7a)" d="M 632.988868 315 
L 632.988868 43.2 
" style="fill:none;stroke:#b0b0b0;stroke-linecap:square;stroke-width:0.8;"/>
     </g>
     <g id="line2d_14">
      <g>
       <use style="stroke:#000000;stroke-width:0.8;" x="632.988868" xlink:href="#m90cb3d5538" y="315"/>
      </g>
     </g>
     <g id="text_7">
      <!-- 1200 -->
      <g transform="translate(620.263868 329.598437)scale(0.1 -0.1)">
       <use xlink:href="#DejaVuSans-49"/>
       <use x="63.623047" xlink:href="#DejaVuSans-50"/>
       <use x="127.246094" xlink:href="#DejaVuSans-48"/>
       <use x="190.869141" xlink:href="#DejaVuSans-48"/>
      </g>
     </g>
    </g>
    <g id="text_8">
     <!-- epoch -->
     <defs>
      <path d="M 56.203125 29.59375 
L 56.203125 25.203125 
L 14.890625 25.203125 
Q 15.484375 15.921875 20.484375 11.0625 
Q 25.484375 6.203125 34.421875 6.203125 
Q 39.59375 6.203125 44.453125 7.46875 
Q 49.3125 8.734375 54.109375 11.28125 
L 54.109375 2.78125 
Q 49.265625 0.734375 44.1875 -0.34375 
Q 39.109375 -1.421875 33.890625 -1.421875 
Q 20.796875 -1.421875 13.15625 6.1875 
Q 5.515625 13.8125 5.515625 26.8125 
Q 5.515625 40.234375 12.765625 48.109375 
Q 20.015625 56 32.328125 56 
Q 43.359375 56 49.78125 48.890625 
Q 56.203125 41.796875 56.203125 29.59375 
z
M 47.21875 32.234375 
Q 47.125 39.59375 43.09375 43.984375 
Q 39.0625 48.390625 32.421875 48.390625 
Q 24.90625 48.390625 20.390625 44.140625 
Q 15.875 39.890625 15.1875 32.171875 
z
" id="DejaVuSans-101"/>
      <path d="M 18.109375 8.203125 
L 18.109375 -20.796875 
L 9.078125 -20.796875 
L 9.078125 54.6875 
L 18.109375 54.6875 
L 18.109375 46.390625 
Q 20.953125 51.265625 25.265625 53.625 
Q 29.59375 56 35.59375 56 
Q 45.5625 56 51.78125 48.09375 
Q 58.015625 40.1875 58.015625 27.296875 
Q 58.015625 14.40625 51.78125 6.484375 
Q 45.5625 -1.421875 35.59375 -1.421875 
Q 29.59375 -1.421875 25.265625 0.953125 
Q 20.953125 3.328125 18.109375 8.203125 
z
M 48.6875 27.296875 
Q 48.6875 37.203125 44.609375 42.84375 
Q 40.53125 48.484375 33.40625 48.484375 
Q 26.265625 48.484375 22.1875 42.84375 
Q 18.109375 37.203125 18.109375 27.296875 
Q 18.109375 17.390625 22.1875 11.75 
Q 26.265625 6.109375 33.40625 6.109375 
Q 40.53125 6.109375 44.609375 11.75 
Q 48.6875 17.390625 48.6875 27.296875 
z
" id="DejaVuSans-112"/>
      <path d="M 30.609375 48.390625 
Q 23.390625 48.390625 19.1875 42.75 
Q 14.984375 37.109375 14.984375 27.296875 
Q 14.984375 17.484375 19.15625 11.84375 
Q 23.34375 6.203125 30.609375 6.203125 
Q 37.796875 6.203125 41.984375 11.859375 
Q 46.1875 17.53125 46.1875 27.296875 
Q 46.1875 37.015625 41.984375 42.703125 
Q 37.796875 48.390625 30.609375 48.390625 
z
M 30.609375 56 
Q 42.328125 56 49.015625 48.375 
Q 55.71875 40.765625 55.71875 27.296875 
Q 55.71875 13.875 49.015625 6.21875 
Q 42.328125 -1.421875 30.609375 -1.421875 
Q 18.84375 -1.421875 12.171875 6.21875 
Q 5.515625 13.875 5.515625 27.296875 
Q 5.515625 40.765625 12.171875 48.375 
Q 18.84375 56 30.609375 56 
z
" id="DejaVuSans-111"/>
      <path d="M 48.78125 52.59375 
L 48.78125 44.1875 
Q 44.96875 46.296875 41.140625 47.34375 
Q 37.3125 48.390625 33.40625 48.390625 
Q 24.65625 48.390625 19.8125 42.84375 
Q 14.984375 37.3125 14.984375 27.296875 
Q 14.984375 17.28125 19.8125 11.734375 
Q 24.65625 6.203125 33.40625 6.203125 
Q 37.3125 6.203125 41.140625 7.25 
Q 44.96875 8.296875 48.78125 10.40625 
L 48.78125 2.09375 
Q 45.015625 0.34375 40.984375 -0.53125 
Q 36.96875 -1.421875 32.421875 -1.421875 
Q 20.0625 -1.421875 12.78125 6.34375 
Q 5.515625 14.109375 5.515625 27.296875 
Q 5.515625 40.671875 12.859375 48.328125 
Q 20.21875 56 33.015625 56 
Q 37.15625 56 41.109375 55.140625 
Q 45.0625 54.296875 48.78125 52.59375 
z
" id="DejaVuSans-99"/>
      <path d="M 54.890625 33.015625 
L 54.890625 0 
L 45.90625 0 
L 45.90625 32.71875 
Q 45.90625 40.484375 42.875 44.328125 
Q 39.84375 48.1875 33.796875 48.1875 
Q 26.515625 48.1875 22.3125 43.546875 
Q 18.109375 38.921875 18.109375 30.90625 
L 18.109375 0 
L 9.078125 0 
L 9.078125 75.984375 
L 18.109375 75.984375 
L 18.109375 46.1875 
Q 21.34375 51.125 25.703125 53.5625 
Q 30.078125 56 35.796875 56 
Q 45.21875 56 50.046875 50.171875 
Q 54.890625 44.34375 54.890625 33.015625 
z
" id="DejaVuSans-104"/>
     </defs>
     <g transform="translate(353.771875 343.276563)scale(0.1 -0.1)">
      <use xlink:href="#DejaVuSans-101"/>
      <use x="61.523438" xlink:href="#DejaVuSans-112"/>
      <use x="125" xlink:href="#DejaVuSans-111"/>
      <use x="186.181641" xlink:href="#DejaVuSans-99"/>
      <use x="241.162109" xlink:href="#DejaVuSans-104"/>
     </g>
    </g>
   </g>
   <g id="matplotlib.axis_2">
    <g id="ytick_1">
     <g id="line2d_15">
      <path clip-path="url(#p0c90410a7a)" d="M 90 289.214926 
L 648 289.214926 
" style="fill:none;stroke:#b0b0b0;stroke-linecap:square;stroke-width:0.8;"/>
     </g>
     <g id="line2d_16">
      <defs>
       <path d="M 0 0 
L -3.5 0 
" id="m6ec5c255bd" style="stroke:#000000;stroke-width:0.8;"/>
      </defs>
      <g>
       <use style="stroke:#000000;stroke-width:0.8;" x="90" xlink:href="#m6ec5c255bd" y="289.214926"/>
      </g>
     </g>
     <g id="text_9">
      <!-- 0.2 -->
      <defs>
       <path d="M 10.6875 12.40625 
L 21 12.40625 
L 21 0 
L 10.6875 0 
z
" id="DejaVuSans-46"/>
      </defs>
      <g transform="translate(67.096875 293.014144)scale(0.1 -0.1)">
       <use xlink:href="#DejaVuSans-48"/>
       <use x="63.623047" xlink:href="#DejaVuSans-46"/>
       <use x="95.410156" xlink:href="#DejaVuSans-50"/>
      </g>
     </g>
    </g>
    <g id="ytick_2">
     <g id="line2d_17">
      <path clip-path="url(#p0c90410a7a)" d="M 90 255.902639 
L 648 255.902639 
" style="fill:none;stroke:#b0b0b0;stroke-linecap:square;stroke-width:0.8;"/>
     </g>
     <g id="line2d_18">
      <g>
       <use style="stroke:#000000;stroke-width:0.8;" x="90" xlink:href="#m6ec5c255bd" y="255.902639"/>
      </g>
     </g>
     <g id="text_10">
      <!-- 0.4 -->
      <g transform="translate(67.096875 259.701858)scale(0.1 -0.1)">
       <use xlink:href="#DejaVuSans-48"/>
       <use x="63.623047" xlink:href="#DejaVuSans-46"/>
       <use x="95.410156" xlink:href="#DejaVuSans-52"/>
      </g>
     </g>
    </g>
    <g id="ytick_3">
     <g id="line2d_19">
      <path clip-path="url(#p0c90410a7a)" d="M 90 222.590352 
L 648 222.590352 
" style="fill:none;stroke:#b0b0b0;stroke-linecap:square;stroke-width:0.8;"/>
     </g>
     <g id="line2d_20">
      <g>
       <use style="stroke:#000000;stroke-width:0.8;" x="90" xlink:href="#m6ec5c255bd" y="222.590352"/>
      </g>
     </g>
     <g id="text_11">
      <!-- 0.6 -->
      <g transform="translate(67.096875 226.389571)scale(0.1 -0.1)">
       <use xlink:href="#DejaVuSans-48"/>
       <use x="63.623047" xlink:href="#DejaVuSans-46"/>
       <use x="95.410156" xlink:href="#DejaVuSans-54"/>
      </g>
     </g>
    </g>
    <g id="ytick_4">
     <g id="line2d_21">
      <path clip-path="url(#p0c90410a7a)" d="M 90 189.278066 
L 648 189.278066 
" style="fill:none;stroke:#b0b0b0;stroke-linecap:square;stroke-width:0.8;"/>
     </g>
     <g id="line2d_22">
      <g>
       <use style="stroke:#000000;stroke-width:0.8;" x="90" xlink:href="#m6ec5c255bd" y="189.278066"/>
      </g>
     </g>
     <g id="text_12">
      <!-- 0.8 -->
      <g transform="translate(67.096875 193.077285)scale(0.1 -0.1)">
       <use xlink:href="#DejaVuSans-48"/>
       <use x="63.623047" xlink:href="#DejaVuSans-46"/>
       <use x="95.410156" xlink:href="#DejaVuSans-56"/>
      </g>
     </g>
    </g>
    <g id="ytick_5">
     <g id="line2d_23">
      <path clip-path="url(#p0c90410a7a)" d="M 90 155.965779 
L 648 155.965779 
" style="fill:none;stroke:#b0b0b0;stroke-linecap:square;stroke-width:0.8;"/>
     </g>
     <g id="line2d_24">
      <g>
       <use style="stroke:#000000;stroke-width:0.8;" x="90" xlink:href="#m6ec5c255bd" y="155.965779"/>
      </g>
     </g>
     <g id="text_13">
      <!-- 1.0 -->
      <g transform="translate(67.096875 159.764998)scale(0.1 -0.1)">
       <use xlink:href="#DejaVuSans-49"/>
       <use x="63.623047" xlink:href="#DejaVuSans-46"/>
       <use x="95.410156" xlink:href="#DejaVuSans-48"/>
      </g>
     </g>
    </g>
    <g id="ytick_6">
     <g id="line2d_25">
      <path clip-path="url(#p0c90410a7a)" d="M 90 122.653493 
L 648 122.653493 
" style="fill:none;stroke:#b0b0b0;stroke-linecap:square;stroke-width:0.8;"/>
     </g>
     <g id="line2d_26">
      <g>
       <use style="stroke:#000000;stroke-width:0.8;" x="90" xlink:href="#m6ec5c255bd" y="122.653493"/>
      </g>
     </g>
     <g id="text_14">
      <!-- 1.2 -->
      <g transform="translate(67.096875 126.452711)scale(0.1 -0.1)">
       <use xlink:href="#DejaVuSans-49"/>
       <use x="63.623047" xlink:href="#DejaVuSans-46"/>
       <use x="95.410156" xlink:href="#DejaVuSans-50"/>
      </g>
     </g>
    </g>
    <g id="ytick_7">
     <g id="line2d_27">
      <path clip-path="url(#p0c90410a7a)" d="M 90 89.341206 
L 648 89.341206 
" style="fill:none;stroke:#b0b0b0;stroke-linecap:square;stroke-width:0.8;"/>
     </g>
     <g id="line2d_28">
      <g>
       <use style="stroke:#000000;stroke-width:0.8;" x="90" xlink:href="#m6ec5c255bd" y="89.341206"/>
      </g>
     </g>
     <g id="text_15">
      <!-- 1.4 -->
      <g transform="translate(67.096875 93.140425)scale(0.1 -0.1)">
       <use xlink:href="#DejaVuSans-49"/>
       <use x="63.623047" xlink:href="#DejaVuSans-46"/>
       <use x="95.410156" xlink:href="#DejaVuSans-52"/>
      </g>
     </g>
    </g>
    <g id="ytick_8">
     <g id="line2d_29">
      <path clip-path="url(#p0c90410a7a)" d="M 90 56.028919 
L 648 56.028919 
" style="fill:none;stroke:#b0b0b0;stroke-linecap:square;stroke-width:0.8;"/>
     </g>
     <g id="line2d_30">
      <g>
       <use style="stroke:#000000;stroke-width:0.8;" x="90" xlink:href="#m6ec5c255bd" y="56.028919"/>
      </g>
     </g>
     <g id="text_16">
      <!-- 1.6 -->
      <g transform="translate(67.096875 59.828138)scale(0.1 -0.1)">
       <use xlink:href="#DejaVuSans-49"/>
       <use x="63.623047" xlink:href="#DejaVuSans-46"/>
       <use x="95.410156" xlink:href="#DejaVuSans-54"/>
      </g>
     </g>
    </g>
    <g id="text_17">
     <!-- loss -->
     <defs>
      <path d="M 9.421875 75.984375 
L 18.40625 75.984375 
L 18.40625 0 
L 9.421875 0 
z
" id="DejaVuSans-108"/>
      <path d="M 44.28125 53.078125 
L 44.28125 44.578125 
Q 40.484375 46.53125 36.375 47.5 
Q 32.28125 48.484375 27.875 48.484375 
Q 21.1875 48.484375 17.84375 46.4375 
Q 14.5 44.390625 14.5 40.28125 
Q 14.5 37.15625 16.890625 35.375 
Q 19.28125 33.59375 26.515625 31.984375 
L 29.59375 31.296875 
Q 39.15625 29.25 43.1875 25.515625 
Q 47.21875 21.78125 47.21875 15.09375 
Q 47.21875 7.46875 41.1875 3.015625 
Q 35.15625 -1.421875 24.609375 -1.421875 
Q 20.21875 -1.421875 15.453125 -0.5625 
Q 10.6875 0.296875 5.421875 2 
L 5.421875 11.28125 
Q 10.40625 8.6875 15.234375 7.390625 
Q 20.0625 6.109375 24.8125 6.109375 
Q 31.15625 6.109375 34.5625 8.28125 
Q 37.984375 10.453125 37.984375 14.40625 
Q 37.984375 18.0625 35.515625 20.015625 
Q 33.0625 21.96875 24.703125 23.78125 
L 21.578125 24.515625 
Q 13.234375 26.265625 9.515625 29.90625 
Q 5.8125 33.546875 5.8125 39.890625 
Q 5.8125 47.609375 11.28125 51.796875 
Q 16.75 56 26.8125 56 
Q 31.78125 56 36.171875 55.265625 
Q 40.578125 54.546875 44.28125 53.078125 
z
" id="DejaVuSans-115"/>
     </defs>
     <g transform="translate(61.017187 188.757812)rotate(-90)scale(0.1 -0.1)">
      <use xlink:href="#DejaVuSans-108"/>
      <use x="27.783203" xlink:href="#DejaVuSans-111"/>
      <use x="88.964844" xlink:href="#DejaVuSans-115"/>
      <use x="141.064453" xlink:href="#DejaVuSans-115"/>
     </g>
    </g>
   </g>
   <g id="line2d_31">
    <path clip-path="url(#p0c90410a7a)" d="M 115.363636 55.554545 
L 115.794991 64.490862 
L 117.520408 80.262671 
L 117.951763 80.21411 
L 118.814471 85.167934 
L 119.245826 86.02689 
L 119.67718 89.855588 
L 120.108534 90.714695 
L 120.971243 99.378299 
L 121.402597 95.113169 
L 121.833952 103.789332 
L 122.69666 111.892445 
L 123.128015 112.791288 
L 123.990724 124.768725 
L 124.422078 128.798938 
L 125.284787 138.944235 
L 125.716141 143.351304 
L 126.147495 149.386308 
L 126.57885 150.977513 
L 127.010204 158.647043 
L 128.304267 168.19709 
L 128.735622 172.712929 
L 129.166976 174.755207 
L 129.59833 175.664387 
L 130.461039 183.547344 
L 130.892393 183.746277 
L 131.323748 189.240897 
L 131.755102 189.489672 
L 132.186456 187.852162 
L 132.617811 192.953569 
L 133.049165 191.176571 
L 133.911874 196.774343 
L 134.343228 197.406489 
L 134.774583 201.522394 
L 135.205937 197.98043 
L 136.068646 207.085708 
L 136.5 204.340654 
L 136.931354 209.294677 
L 137.362709 211.519542 
L 137.794063 212.729545 
L 138.225417 214.701491 
L 138.656772 215.393429 
L 139.088126 220.289463 
L 139.519481 218.54665 
L 139.950835 223.32159 
L 140.382189 221.920371 
L 140.813544 222.926406 
L 141.244898 226.131973 
L 141.676252 226.373788 
L 142.107607 226.747944 
L 142.538961 227.901566 
L 143.40167 232.806262 
L 143.833024 231.418859 
L 144.264378 231.856038 
L 144.695733 234.598419 
L 145.127087 235.01152 
L 145.558442 237.751227 
L 145.989796 237.834972 
L 146.42115 239.008706 
L 146.852505 241.094111 
L 147.283859 239.391039 
L 147.715213 241.185696 
L 148.146568 241.52435 
L 148.577922 240.70906 
L 149.009276 240.806375 
L 149.871985 244.413629 
L 151.166048 244.562784 
L 151.597403 247.927319 
L 152.028757 244.547472 
L 153.32282 248.439236 
L 153.754174 247.767121 
L 154.185529 246.866525 
L 155.048237 249.48284 
L 155.479592 249.740025 
L 155.910946 250.999835 
L 156.342301 253.469317 
L 157.205009 254.543947 
L 157.636364 254.045025 
L 158.067718 253.168709 
L 158.499072 256.583458 
L 158.930427 253.361451 
L 159.361781 256.938572 
L 159.793135 255.819452 
L 160.22449 255.363633 
L 161.087199 257.447556 
L 161.518553 256.268686 
L 161.949907 257.290017 
L 162.381262 259.732927 
L 162.812616 261.06634 
L 163.24397 259.900151 
L 163.675325 259.888163 
L 164.106679 261.345537 
L 164.538033 260.726635 
L 164.969388 261.19132 
L 165.400742 261.073445 
L 165.832096 262.025253 
L 166.263451 263.49434 
L 166.694805 261.479013 
L 167.12616 261.395664 
L 167.988868 264.819876 
L 168.420223 262.636938 
L 168.851577 264.902032 
L 169.282931 268.214754 
L 169.714286 264.754424 
L 170.14564 266.871719 
L 170.576994 268.378397 
L 171.008349 266.98357 
L 171.439703 266.347984 
L 171.871058 265.937215 
L 172.302412 267.123306 
L 172.733766 266.715951 
L 173.165121 267.792479 
L 173.596475 268.338078 
L 174.027829 267.58342 
L 174.459184 267.288195 
L 175.321892 271.851231 
L 175.753247 268.562561 
L 176.184601 269.999217 
L 176.615955 269.88412 
L 177.04731 269.63736 
L 177.478664 271.43553 
L 177.910019 270.76876 
L 178.341373 270.528016 
L 178.772727 271.314608 
L 179.204082 270.526242 
L 179.635436 271.996081 
L 180.06679 272.957878 
L 180.498145 272.947378 
L 180.929499 273.824383 
L 181.360853 273.525091 
L 181.792208 274.199543 
L 182.223562 270.783564 
L 182.654917 270.92902 
L 183.086271 273.010899 
L 183.517625 269.665616 
L 183.94898 273.029009 
L 184.380334 275.10296 
L 184.811688 275.404698 
L 185.243043 275.123521 
L 185.674397 273.400247 
L 186.105751 275.319566 
L 186.537106 274.786556 
L 186.96846 273.83787 
L 187.399814 273.858654 
L 187.831169 272.297001 
L 188.262523 276.114445 
L 188.693878 275.639501 
L 189.125232 275.631194 
L 189.556586 275.181127 
L 189.987941 277.250991 
L 190.419295 275.98446 
L 190.850649 275.573031 
L 191.282004 276.492068 
L 191.713358 278.801295 
L 192.576067 275.67977 
L 193.007421 275.977925 
L 193.438776 277.757101 
L 193.87013 278.054426 
L 194.301484 277.667559 
L 194.732839 279.36272 
L 195.164193 278.374949 
L 195.595547 276.398232 
L 196.026902 277.84527 
L 196.88961 279.571559 
L 197.320965 279.129858 
L 197.752319 278.097173 
L 198.183673 279.182692 
L 198.615028 276.341884 
L 199.046382 278.684833 
L 199.477737 277.19069 
L 199.909091 279.87812 
L 200.340445 275.893152 
L 200.7718 277.043381 
L 201.203154 276.681571 
L 201.634508 277.782946 
L 202.065863 275.713239 
L 202.497217 278.280641 
L 202.928571 277.552934 
L 203.359926 281.003037 
L 203.79128 278.774305 
L 204.222635 280.563206 
L 204.653989 281.662141 
L 205.085343 279.402739 
L 205.516698 280.495301 
L 205.948052 280.868646 
L 206.379406 278.537091 
L 206.810761 281.11351 
L 207.242115 280.126758 
L 207.673469 277.468676 
L 208.104824 279.313795 
L 208.536178 279.625708 
L 208.967532 281.727146 
L 209.398887 281.360381 
L 209.830241 281.832913 
L 210.261596 281.555361 
L 210.69295 282.136724 
L 211.124304 282.230541 
L 211.555659 281.484141 
L 211.987013 280.370677 
L 212.418367 282.165593 
L 212.849722 281.810486 
L 213.281076 282.470202 
L 213.71243 282.370308 
L 214.143785 281.779528 
L 214.575139 282.996811 
L 215.006494 279.730643 
L 215.437848 278.39937 
L 215.869202 281.452537 
L 216.300557 282.339538 
L 216.731911 280.997143 
L 217.163265 283.451143 
L 217.59462 281.438208 
L 218.025974 281.724149 
L 218.457328 282.772964 
L 218.888683 280.83305 
L 220.182746 283.319739 
L 220.6141 281.419187 
L 221.045455 282.164758 
L 221.476809 283.617522 
L 221.908163 283.027836 
L 222.339518 284.058928 
L 222.770872 282.523571 
L 223.202226 281.86907 
L 223.633581 282.35375 
L 224.064935 282.635095 
L 224.496289 284.202851 
L 224.927644 283.042877 
L 225.358998 284.296607 
L 225.790353 282.611395 
L 226.221707 283.15875 
L 226.653061 284.382311 
L 227.084416 285.156311 
L 227.51577 283.745373 
L 227.947124 285.49576 
L 228.378479 284.098005 
L 228.809833 285.360069 
L 229.241187 284.593662 
L 229.672542 284.749108 
L 230.103896 283.357796 
L 230.53525 284.52846 
L 230.966605 284.161306 
L 231.397959 284.837234 
L 232.260668 282.690535 
L 232.692022 285.153803 
L 233.123377 283.573795 
L 233.554731 286.641854 
L 233.986085 286.086313 
L 234.41744 284.006008 
L 234.848794 283.986103 
L 235.280148 284.612417 
L 235.711503 285.637655 
L 236.574212 286.821588 
L 237.005566 284.952149 
L 237.43692 284.101725 
L 237.868275 283.9414 
L 238.299629 286.247967 
L 238.730983 284.057606 
L 239.162338 283.830813 
L 239.593692 285.687743 
L 240.456401 285.789726 
L 241.319109 284.592031 
L 241.750464 285.124231 
L 242.181818 282.84007 
L 242.613173 285.65491 
L 243.044527 287.273061 
L 244.33859 285.666802 
L 244.769944 285.400489 
L 245.201299 284.839703 
L 245.632653 286.932132 
L 246.064007 284.218792 
L 246.495362 285.936313 
L 246.926716 288.147839 
L 247.358071 286.630248 
L 247.789425 286.603093 
L 248.220779 287.470565 
L 248.652134 286.256338 
L 249.083488 286.000334 
L 249.514842 285.344155 
L 249.946197 285.9226 
L 250.377551 289.034297 
L 250.808905 289.698114 
L 251.24026 288.747057 
L 251.671614 289.935247 
L 252.102968 287.61676 
L 252.534323 288.252197 
L 252.965677 287.293421 
L 253.397032 286.99151 
L 253.828386 288.175038 
L 254.25974 286.946519 
L 254.691095 287.841525 
L 255.122449 286.442369 
L 255.553803 287.863351 
L 255.985158 285.437995 
L 256.416512 287.28408 
L 256.847866 286.455039 
L 257.279221 288.243784 
L 257.710575 288.372306 
L 258.141929 287.471 
L 258.573284 288.9327 
L 259.004638 286.228026 
L 259.435993 287.024854 
L 259.867347 288.725788 
L 260.298701 287.5729 
L 260.730056 287.566826 
L 261.16141 289.500431 
L 261.592764 286.935772 
L 262.024119 285.425839 
L 262.455473 286.840708 
L 262.886827 287.613212 
L 263.318182 289.379851 
L 263.749536 285.662347 
L 264.180891 286.320525 
L 264.612245 288.181432 
L 265.043599 284.187154 
L 265.474954 287.066944 
L 265.906308 288.122957 
L 266.337662 288.14608 
L 266.769017 289.814327 
L 267.200371 288.193473 
L 267.631725 288.089126 
L 268.494434 287.455261 
L 268.925788 288.962016 
L 269.357143 288.35676 
L 269.788497 288.433846 
L 270.219852 289.375611 
L 270.651206 287.847033 
L 271.08256 288.289808 
L 271.513915 289.735801 
L 271.945269 288.709726 
L 272.376623 289.338933 
L 272.807978 286.030205 
L 273.239332 290.622324 
L 273.670686 286.926689 
L 274.102041 289.892883 
L 274.533395 289.06 
L 274.96475 286.233548 
L 275.396104 288.800052 
L 275.827458 286.37233 
L 276.258813 288.774187 
L 276.690167 288.862367 
L 277.552876 290.181472 
L 277.98423 288.978872 
L 278.415584 288.748905 
L 278.846939 289.524759 
L 279.278293 288.797809 
L 279.709647 288.970347 
L 280.141002 288.041319 
L 280.572356 289.565071 
L 281.003711 287.969953 
L 281.435065 289.028264 
L 281.866419 288.065194 
L 282.297774 288.038701 
L 282.729128 289.016872 
L 283.160482 287.740865 
L 283.591837 289.910358 
L 284.023191 288.673013 
L 284.454545 289.119187 
L 284.8859 287.28577 
L 285.317254 288.990881 
L 285.748609 288.870585 
L 286.611317 291.789881 
L 287.042672 291.409819 
L 287.474026 289.684403 
L 287.90538 289.737074 
L 288.336735 288.641874 
L 288.768089 288.685479 
L 289.199443 289.305741 
L 289.630798 289.654636 
L 290.062152 288.304667 
L 290.493506 288.312565 
L 290.924861 288.860991 
L 291.356215 289.107802 
L 291.78757 288.007735 
L 292.218924 291.672791 
L 293.081633 288.227798 
L 293.512987 291.258719 
L 293.944341 288.182099 
L 294.375696 290.848756 
L 294.80705 292.231711 
L 295.238404 290.376106 
L 295.669759 291.11382 
L 296.532468 288.864577 
L 296.963822 289.773539 
L 297.395176 288.650527 
L 297.826531 289.573889 
L 298.257885 291.043085 
L 298.689239 289.397982 
L 299.120594 291.096578 
L 299.983302 291.864529 
L 300.414657 290.4796 
L 300.846011 290.584099 
L 301.277365 290.298286 
L 301.70872 292.276728 
L 302.140074 289.61527 
L 302.571429 289.179498 
L 303.002783 289.410441 
L 303.434137 289.397933 
L 303.865492 291.641304 
L 304.296846 290.850444 
L 304.7282 289.815082 
L 305.159555 291.308422 
L 305.590909 291.65009 
L 306.022263 291.175842 
L 306.453618 291.014019 
L 306.884972 291.071522 
L 307.316327 292.788597 
L 307.747681 291.613683 
L 308.179035 292.218424 
L 308.61039 290.163165 
L 309.473098 291.807731 
L 309.904453 293.648994 
L 310.335807 292.140615 
L 310.767161 291.272915 
L 311.198516 290.981143 
L 311.62987 291.912812 
L 312.061224 292.476843 
L 312.492579 294.213534 
L 312.923933 290.39565 
L 313.786642 291.90196 
L 314.217996 292.469182 
L 314.649351 291.862623 
L 315.080705 291.462117 
L 315.512059 291.66368 
L 315.943414 290.555084 
L 316.374768 291.426329 
L 316.806122 293.429205 
L 317.237477 293.017492 
L 317.668831 291.074687 
L 318.100186 291.605137 
L 318.962894 291.897516 
L 319.394249 294.575701 
L 319.825603 292.310792 
L 320.256957 293.516788 
L 320.688312 291.227886 
L 321.119666 291.195552 
L 321.55102 292.485608 
L 321.982375 292.852892 
L 322.413729 293.447773 
L 322.845083 290.791028 
L 323.276438 291.300902 
L 323.707792 290.591813 
L 324.139147 293.561424 
L 324.570501 291.917367 
L 325.001855 292.236628 
L 325.43321 293.470301 
L 325.864564 291.948386 
L 326.295918 294.253668 
L 326.727273 294.234975 
L 327.158627 293.328125 
L 327.589981 291.902785 
L 328.021336 293.471785 
L 328.45269 294.488895 
L 328.884045 292.664935 
L 329.315399 292.33214 
L 329.746753 291.275888 
L 330.178108 293.412827 
L 330.609462 291.545968 
L 331.040816 292.584776 
L 331.472171 291.653004 
L 331.903525 291.500822 
L 332.334879 291.856552 
L 332.766234 290.921882 
L 333.197588 293.075569 
L 333.628942 291.338494 
L 334.060297 292.312174 
L 334.491651 295.82926 
L 334.923006 291.369939 
L 335.35436 291.877468 
L 335.785714 294.366668 
L 336.217069 293.766309 
L 336.648423 292.261788 
L 338.37384 293.904159 
L 338.805195 293.289426 
L 339.236549 291.878893 
L 339.667904 292.098582 
L 340.099258 292.036947 
L 340.530612 292.66661 
L 340.961967 293.049692 
L 341.393321 294.939975 
L 341.824675 294.899355 
L 342.25603 292.180824 
L 342.687384 293.623544 
L 343.118738 293.125828 
L 343.550093 293.403305 
L 343.981447 294.284811 
L 344.412801 293.187948 
L 344.844156 293.594447 
L 345.27551 293.550448 
L 345.706865 293.012285 
L 346.138219 291.481138 
L 346.569573 292.795449 
L 347.000928 292.58915 
L 347.432282 291.636531 
L 348.294991 296.188351 
L 348.726345 293.696967 
L 349.157699 292.447223 
L 349.589054 295.480402 
L 350.020408 292.461982 
L 350.451763 293.242874 
L 350.883117 292.447855 
L 351.314471 292.987795 
L 351.745826 294.933658 
L 352.17718 294.223187 
L 352.608534 293.008368 
L 353.039889 292.836258 
L 353.471243 294.15933 
L 354.333952 292.991185 
L 355.19666 296.020901 
L 356.059369 291.902779 
L 356.490724 295.703312 
L 357.353432 292.895754 
L 357.784787 293.634145 
L 358.216141 292.911308 
L 359.07885 295.332449 
L 360.372913 293.480803 
L 360.804267 291.142638 
L 361.235622 294.185128 
L 361.666976 294.751246 
L 362.529685 294.935882 
L 362.961039 293.454437 
L 363.392393 296.70189 
L 363.823748 293.374005 
L 364.255102 295.030054 
L 364.686456 293.172427 
L 365.117811 293.433903 
L 365.549165 294.552086 
L 366.411874 292.607703 
L 366.843228 293.815783 
L 367.274583 293.776009 
L 367.705937 294.882077 
L 368.137291 293.391846 
L 368.568646 294.827179 
L 369 294.145981 
L 369.431354 292.360483 
L 369.862709 293.765467 
L 370.294063 294.158364 
L 370.725417 295.165337 
L 371.156772 293.273758 
L 371.588126 292.480978 
L 372.019481 295.112687 
L 372.450835 294.632876 
L 372.882189 295.029722 
L 373.313544 294.212025 
L 373.744898 293.919635 
L 374.176252 295.964239 
L 374.607607 292.745804 
L 375.038961 294.847387 
L 375.470315 295.19419 
L 375.90167 292.593295 
L 376.333024 292.788763 
L 376.764378 297.547827 
L 377.195733 294.137158 
L 378.058442 295.088552 
L 378.489796 293.876376 
L 378.92115 293.827156 
L 379.352505 295.937124 
L 379.783859 293.296741 
L 380.215213 294.249745 
L 380.646568 293.274372 
L 381.077922 295.07458 
L 381.509276 294.01571 
L 381.940631 294.252499 
L 382.371985 295.921584 
L 382.80334 293.895795 
L 383.234694 294.061767 
L 383.666048 294.401838 
L 384.097403 294.557618 
L 384.528757 294.560805 
L 384.960111 293.870986 
L 385.391466 295.764853 
L 385.82282 295.965333 
L 386.254174 293.027827 
L 386.685529 294.850403 
L 387.116883 293.416587 
L 387.548237 293.636979 
L 387.979592 294.494324 
L 388.410946 293.763022 
L 388.842301 295.92933 
L 389.273655 295.000659 
L 389.705009 295.239719 
L 390.136364 294.793971 
L 390.999072 293.542388 
L 391.430427 295.911816 
L 391.861781 295.951777 
L 392.293135 293.807141 
L 392.72449 296.212955 
L 393.155844 296.956613 
L 393.587199 294.062658 
L 394.018553 295.159179 
L 394.449907 295.631178 
L 394.881262 295.328073 
L 395.312616 295.273886 
L 395.74397 297.691266 
L 396.175325 293.983185 
L 396.606679 294.456235 
L 397.038033 294.538044 
L 397.469388 296.147655 
L 398.332096 294.283067 
L 398.763451 295.492952 
L 399.194805 295.397977 
L 399.62616 294.806748 
L 400.057514 296.457197 
L 400.488868 295.987449 
L 400.920223 294.249719 
L 401.351577 296.583671 
L 401.782931 293.766554 
L 402.214286 297.11652 
L 402.64564 295.973599 
L 403.076994 295.801875 
L 404.371058 294.354878 
L 404.802412 295.329175 
L 405.233766 295.098591 
L 405.665121 296.186692 
L 406.096475 296.164649 
L 406.527829 294.779607 
L 407.390538 296.502875 
L 407.821892 296.106618 
L 408.253247 295.028289 
L 408.684601 295.222484 
L 409.115955 295.574086 
L 409.54731 294.947552 
L 409.978664 293.127588 
L 410.410019 293.305789 
L 410.841373 294.377526 
L 411.272727 293.235658 
L 411.704082 296.99756 
L 412.135436 297.91442 
L 412.56679 296.016337 
L 412.998145 297.290673 
L 413.429499 296.906242 
L 413.860853 295.796051 
L 414.292208 295.227459 
L 414.723562 298.214982 
L 415.154917 295.660982 
L 416.017625 294.673979 
L 416.44898 294.897594 
L 416.880334 297.008309 
L 417.311688 296.888047 
L 417.743043 295.355404 
L 418.174397 295.299375 
L 418.605751 294.953952 
L 419.46846 296.835802 
L 419.899814 298.287997 
L 420.331169 296.08796 
L 420.762523 296.368167 
L 421.193878 296.135239 
L 421.625232 294.531429 
L 422.056586 293.516037 
L 422.487941 294.094172 
L 422.919295 292.862646 
L 423.350649 296.856681 
L 423.782004 296.902607 
L 424.213358 296.215487 
L 424.644712 296.105776 
L 425.076067 295.638471 
L 425.507421 295.387203 
L 425.938776 296.783783 
L 426.37013 295.588152 
L 426.801484 295.762547 
L 427.232839 294.525998 
L 427.664193 295.183345 
L 428.095547 297.442306 
L 428.526902 295.844688 
L 428.958256 297.146285 
L 429.38961 295.533248 
L 429.820965 296.246312 
L 430.683673 295.486437 
L 431.115028 298.275719 
L 431.546382 296.288965 
L 431.977737 295.884385 
L 432.409091 297.081097 
L 432.840445 294.71817 
L 433.2718 296.469594 
L 433.703154 295.613041 
L 434.134508 297.821002 
L 434.565863 295.02955 
L 434.997217 297.314956 
L 435.428571 296.48472 
L 435.859926 296.93598 
L 436.29128 296.885157 
L 436.722635 298.902811 
L 437.153989 294.621243 
L 437.585343 297.170088 
L 438.016698 296.066944 
L 438.448052 295.391941 
L 438.879406 295.63322 
L 439.310761 295.049994 
L 439.742115 295.376989 
L 440.173469 297.201906 
L 441.036178 295.441692 
L 441.467532 295.770553 
L 441.898887 297.950922 
L 442.330241 295.6552 
L 442.761596 295.220051 
L 443.19295 296.892774 
L 443.624304 295.042717 
L 444.055659 296.837013 
L 444.487013 296.793468 
L 444.918367 296.509002 
L 445.349722 297.125284 
L 445.781076 294.055097 
L 446.643785 300.212238 
L 447.075139 297.747845 
L 447.506494 296.497533 
L 447.937848 295.652146 
L 448.369202 295.833518 
L 448.800557 298.256342 
L 449.231911 296.467488 
L 450.09462 296.463692 
L 450.525974 297.276345 
L 450.957328 295.952365 
L 451.388683 295.920267 
L 451.820037 299.394953 
L 452.251391 300.300369 
L 453.1141 294.68802 
L 453.976809 299.02118 
L 454.408163 296.273928 
L 454.839518 296.74906 
L 455.270872 296.363672 
L 455.702226 297.255039 
L 456.133581 295.212127 
L 456.564935 297.771771 
L 456.996289 298.008958 
L 457.427644 297.118174 
L 457.858998 298.253438 
L 458.290353 294.406567 
L 458.721707 297.522524 
L 459.153061 298.18926 
L 459.584416 294.922189 
L 460.01577 296.626698 
L 460.447124 296.511702 
L 460.878479 295.972613 
L 461.309833 297.751652 
L 461.741187 298.661781 
L 462.172542 297.017371 
L 462.603896 299.827442 
L 463.466605 295.242272 
L 463.897959 296.050324 
L 464.329314 296.51615 
L 465.192022 297.681626 
L 465.623377 296.243824 
L 466.054731 296.192327 
L 466.486085 296.46365 
L 466.91744 298.96905 
L 467.348794 295.866264 
L 467.780148 298.020931 
L 468.211503 296.641842 
L 468.642857 297.519786 
L 469.074212 296.536218 
L 469.93692 297.409453 
L 470.368275 298.371833 
L 470.799629 296.444975 
L 471.230983 297.959385 
L 471.662338 296.411563 
L 472.093692 298.178337 
L 472.525046 297.59402 
L 472.956401 296.495815 
L 473.387755 298.137993 
L 473.819109 297.202683 
L 474.250464 295.745899 
L 474.681818 298.044694 
L 475.113173 298.143408 
L 475.544527 295.791999 
L 475.975881 298.044673 
L 476.407236 297.839504 
L 476.83859 299.321622 
L 477.269944 297.508965 
L 477.701299 297.425133 
L 478.132653 295.940107 
L 478.564007 297.048871 
L 478.995362 297.61666 
L 479.426716 297.280466 
L 479.858071 298.881364 
L 480.289425 299.198391 
L 480.720779 298.398764 
L 481.152134 299.067572 
L 481.583488 296.283541 
L 482.014842 296.866463 
L 482.446197 300.085227 
L 483.308905 297.761685 
L 483.74026 298.870716 
L 484.171614 297.304753 
L 484.602968 299.10046 
L 485.034323 296.351062 
L 485.465677 295.211624 
L 485.897032 296.345515 
L 486.328386 298.221827 
L 486.75974 297.747977 
L 487.191095 296.388423 
L 487.622449 297.804297 
L 488.053803 299.82278 
L 488.485158 298.819276 
L 488.916512 300.002333 
L 489.347866 299.006921 
L 489.779221 296.079487 
L 490.210575 298.283332 
L 490.641929 297.721581 
L 491.073284 298.124896 
L 491.504638 299.50173 
L 491.935993 298.080934 
L 492.367347 298.387224 
L 492.798701 297.365962 
L 493.230056 298.010461 
L 493.66141 298.37433 
L 494.092764 297.584621 
L 494.955473 296.89182 
L 495.386827 297.627418 
L 495.818182 299.129272 
L 496.249536 297.371218 
L 496.680891 296.366544 
L 497.112245 297.524072 
L 497.543599 300.547075 
L 498.406308 296.076139 
L 498.837662 298.026088 
L 499.269017 298.105046 
L 499.700371 298.644806 
L 500.131725 297.87778 
L 500.56308 300.102356 
L 500.994434 298.398922 
L 501.425788 299.065416 
L 501.857143 299.051713 
L 502.288497 298.256384 
L 502.719852 296.684882 
L 503.151206 298.40057 
L 503.58256 298.658397 
L 504.013915 298.769107 
L 504.445269 296.764158 
L 504.876623 298.052301 
L 505.307978 300.172056 
L 505.739332 298.191792 
L 506.170686 298.553604 
L 506.602041 298.018248 
L 507.033395 299.001247 
L 507.46475 296.637432 
L 507.896104 297.431824 
L 508.327458 299.176219 
L 508.758813 297.604512 
L 509.190167 298.189604 
L 509.621521 300.198385 
L 510.052876 301.012227 
L 510.915584 296.234901 
L 511.346939 298.066016 
L 511.778293 297.93856 
L 512.209647 296.971223 
L 512.641002 299.205695 
L 513.072356 296.731135 
L 513.503711 299.122242 
L 513.935065 299.102166 
L 514.366419 299.241724 
L 514.797774 298.189421 
L 515.229128 298.43871 
L 515.660482 297.213644 
L 516.091837 297.735014 
L 516.523191 296.717342 
L 516.954545 299.931308 
L 517.3859 298.04556 
L 517.817254 299.726628 
L 518.248609 298.248216 
L 518.679963 298.053532 
L 519.111317 299.132734 
L 519.542672 297.341425 
L 520.40538 296.692553 
L 520.836735 298.917474 
L 521.268089 296.104765 
L 521.699443 298.094348 
L 522.130798 298.14033 
L 522.562152 299.211108 
L 522.993506 298.867184 
L 523.424861 297.214731 
L 523.856215 299.436406 
L 524.28757 298.346252 
L 524.718924 298.333018 
L 525.150278 298.571022 
L 525.581633 300.026845 
L 526.012987 297.732759 
L 526.444341 298.135079 
L 526.875696 300.131294 
L 527.30705 298.87361 
L 527.738404 298.503686 
L 528.169759 298.871064 
L 528.601113 298.109037 
L 529.032468 299.218487 
L 529.463822 298.878236 
L 530.326531 297.064309 
L 530.757885 299.809466 
L 531.189239 295.231719 
L 531.620594 299.49646 
L 532.051948 298.12166 
L 532.483302 299.241871 
L 533.346011 299.042788 
L 533.777365 296.903054 
L 534.20872 299.294528 
L 534.640074 297.096999 
L 535.071429 298.382694 
L 535.502783 298.798133 
L 535.934137 298.084684 
L 536.365492 299.798213 
L 536.796846 298.604454 
L 537.2282 299.650551 
L 537.659555 298.789953 
L 538.090909 298.76606 
L 538.522263 299.665686 
L 538.953618 298.476623 
L 539.384972 298.228925 
L 539.816327 300.507125 
L 540.247681 299.591951 
L 540.679035 299.098546 
L 541.11039 300.347557 
L 541.541744 298.982108 
L 541.973098 299.892734 
L 542.404453 298.810514 
L 542.835807 298.654199 
L 543.267161 299.060387 
L 544.12987 300.287821 
L 544.561224 299.362526 
L 544.992579 299.47449 
L 545.423933 298.307072 
L 546.286642 299.868651 
L 546.717996 299.526916 
L 547.149351 300.376064 
L 547.580705 300.042638 
L 548.012059 299.292734 
L 548.443414 299.995382 
L 548.874768 299.077029 
L 549.306122 301.814291 
L 549.737477 297.3783 
L 550.168831 300.48599 
L 550.600186 300.584412 
L 551.03154 299.31833 
L 551.462894 297.439424 
L 551.894249 300.03537 
L 552.325603 299.496144 
L 552.756957 300.618647 
L 553.188312 300.691785 
L 554.05102 299.275971 
L 554.482375 297.499359 
L 554.913729 297.818583 
L 555.776438 299.647882 
L 556.207792 300.219835 
L 556.639147 302.085136 
L 557.070501 296.89497 
L 557.93321 301.146422 
L 558.364564 300.048312 
L 558.795918 299.307702 
L 559.227273 300.097038 
L 559.658627 299.727493 
L 560.089981 298.149418 
L 560.95269 300.125966 
L 561.384045 298.127588 
L 561.815399 297.953517 
L 562.246753 297.902473 
L 562.678108 299.563565 
L 563.109462 298.93369 
L 563.540816 299.45462 
L 563.972171 299.05382 
L 564.403525 298.156012 
L 565.266234 301.641009 
L 565.697588 299.915823 
L 566.128942 300.063496 
L 566.560297 300.606832 
L 566.991651 300.545743 
L 567.423006 300.720466 
L 567.85436 301.684651 
L 568.717069 299.888467 
L 569.579777 299.297542 
L 570.011132 299.458954 
L 570.442486 300.977474 
L 570.87384 297.724738 
L 571.305195 298.622581 
L 571.736549 302.129981 
L 572.167904 300.628117 
L 572.599258 299.783612 
L 573.030612 298.367307 
L 573.461967 299.393507 
L 574.324675 299.669941 
L 574.75603 299.171315 
L 575.187384 299.244986 
L 575.618738 298.827297 
L 576.050093 300.937804 
L 576.481447 300.024337 
L 576.912801 299.507815 
L 577.344156 300.374165 
L 577.77551 300.118039 
L 578.206865 300.417299 
L 578.638219 301.488552 
L 579.069573 300.261834 
L 579.500928 299.94981 
L 579.932282 301.550119 
L 580.363636 300.036719 
L 580.794991 301.255684 
L 581.226345 301.431947 
L 581.657699 298.735875 
L 582.089054 298.308923 
L 582.520408 300.452352 
L 582.951763 298.686372 
L 583.383117 300.271806 
L 583.814471 299.172686 
L 584.245826 301.684709 
L 584.67718 299.645611 
L 585.108534 298.651653 
L 585.539889 300.313097 
L 585.971243 301.213636 
L 586.402597 298.725051 
L 586.833952 298.757691 
L 587.265306 300.621624 
L 587.69666 299.82431 
L 588.128015 300.112915 
L 588.559369 299.955998 
L 588.990724 300.543524 
L 589.422078 300.020628 
L 589.853432 298.47977 
L 590.284787 299.828188 
L 590.716141 297.929362 
L 591.147495 299.730298 
L 591.57885 298.341529 
L 592.010204 298.660625 
L 593.735622 301.315412 
L 594.166976 300.828453 
L 594.59833 299.741335 
L 595.029685 299.180192 
L 595.461039 301.987442 
L 595.892393 299.602164 
L 596.323748 300.664178 
L 596.755102 301.337957 
L 597.186456 299.640193 
L 597.617811 301.432841 
L 598.049165 300.374538 
L 598.480519 298.979165 
L 598.911874 300.549542 
L 599.343228 299.827483 
L 599.774583 301.167447 
L 600.205937 301.921773 
L 600.637291 300.79957 
L 601.068646 300.013505 
L 601.5 301.90172 
L 601.931354 299.586438 
L 602.362709 299.203142 
L 602.794063 300.092037 
L 603.225417 299.893446 
L 603.656772 299.00838 
L 604.088126 300.226444 
L 604.519481 300.367028 
L 604.950835 298.678791 
L 605.382189 300.829841 
L 605.813544 300.880675 
L 606.244898 296.523799 
L 607.107607 301.797971 
L 607.538961 300.386199 
L 607.970315 301.021649 
L 608.40167 299.222621 
L 608.833024 300.129797 
L 609.264378 302.645455 
L 609.695733 301.153915 
L 610.558442 299.607875 
L 610.989796 299.545125 
L 611.42115 299.844761 
L 611.852505 299.317764 
L 612.283859 299.759615 
L 612.715213 301.032144 
L 613.577922 299.957081 
L 614.009276 300.798365 
L 614.440631 299.745134 
L 614.871985 299.604851 
L 615.30334 300.349035 
L 615.734694 299.969104 
L 616.166048 300.748595 
L 616.597403 301.964324 
L 617.028757 298.298531 
L 617.460111 301.643674 
L 617.891466 299.257329 
L 618.32282 300.621028 
L 619.185529 300.547532 
L 619.616883 301.171085 
L 620.479592 298.331949 
L 620.910946 300.315521 
L 621.342301 300.957928 
L 621.773655 300.025152 
L 622.205009 300.473532 
L 622.636364 299.802812 
L 622.636364 299.802812 
" style="fill:none;stroke:#1f77b4;stroke-linecap:square;stroke-width:0.5;"/>
   </g>
   <g id="line2d_32">
    <path clip-path="url(#p0c90410a7a)" d="M 115.363636 59.625062 
L 115.794991 68.239262 
L 116.226345 69.316106 
L 116.657699 73.989047 
L 117.089054 74.474968 
L 117.951763 80.081994 
L 118.383117 81.321503 
L 118.814471 79.685606 
L 119.245826 84.545149 
L 119.67718 86.460619 
L 120.108534 90.146757 
L 120.539889 90.832872 
L 120.971243 91.157044 
L 121.402597 97.156557 
L 122.265306 102.932438 
L 122.69666 107.471744 
L 123.128015 113.9881 
L 123.559369 117.530881 
L 125.716141 144.341907 
L 126.147495 146.246201 
L 126.57885 154.025347 
L 127.872913 165.535118 
L 128.304267 167.082158 
L 129.166976 176.359364 
L 129.59833 175.591126 
L 130.029685 178.423715 
L 130.461039 179.431407 
L 130.892393 183.588535 
L 131.323748 185.530227 
L 131.755102 189.319717 
L 132.186456 189.268994 
L 132.617811 190.411961 
L 133.049165 193.864598 
L 133.480519 194.770695 
L 133.911874 197.32682 
L 134.343228 198.777151 
L 134.774583 200.942567 
L 135.205937 199.93297 
L 135.637291 204.337265 
L 136.5 205.585168 
L 136.931354 210.269912 
L 137.362709 210.74134 
L 137.794063 212.798718 
L 138.656772 215.692078 
L 139.088126 216.602517 
L 139.519481 221.061765 
L 139.950835 221.931216 
L 140.382189 221.176073 
L 140.813544 223.80763 
L 141.244898 224.910983 
L 141.676252 223.252476 
L 142.107607 226.547616 
L 142.538961 228.293215 
L 142.970315 229.264057 
L 143.40167 231.283747 
L 143.833024 229.626708 
L 144.264378 231.368685 
L 144.695733 233.672418 
L 145.127087 234.067176 
L 145.558442 236.03952 
L 145.989796 235.452174 
L 146.42115 234.672517 
L 146.852505 235.738644 
L 147.283859 238.282527 
L 147.715213 237.405147 
L 148.146568 240.450232 
L 148.577922 239.897254 
L 149.009276 241.847243 
L 149.440631 242.346495 
L 149.871985 243.407047 
L 150.30334 243.662437 
L 150.734694 243.232308 
L 151.166048 244.350359 
L 151.597403 243.471629 
L 152.028757 244.593944 
L 152.460111 246.110468 
L 152.891466 246.066479 
L 153.32282 244.47732 
L 153.754174 246.190501 
L 154.185529 248.400235 
L 154.616883 248.065036 
L 155.048237 250.371673 
L 155.479592 249.754468 
L 155.910946 249.854983 
L 156.342301 253.218472 
L 156.773655 251.602741 
L 157.205009 254.374775 
L 157.636364 254.127896 
L 158.067718 254.849593 
L 158.499072 256.010402 
L 158.930427 254.130755 
L 159.361781 258.071742 
L 159.793135 256.139068 
L 160.655844 256.443191 
L 161.087199 255.179648 
L 161.518553 258.515398 
L 161.949907 258.201414 
L 162.381262 260.909152 
L 162.812616 259.804387 
L 163.24397 260.031444 
L 163.675325 261.947644 
L 164.538033 264.60301 
L 164.969388 262.469909 
L 165.400742 265.789883 
L 165.832096 267.235378 
L 166.263451 265.066656 
L 166.694805 266.638315 
L 167.12616 266.874609 
L 167.557514 266.357306 
L 167.988868 264.979557 
L 168.420223 266.701933 
L 168.851577 267.732302 
L 169.282931 267.157934 
L 169.714286 269.277542 
L 170.14564 268.375802 
L 170.576994 272.247834 
L 171.008349 268.624088 
L 171.439703 273.434591 
L 171.871058 270.769923 
L 172.302412 271.443208 
L 172.733766 272.677028 
L 173.165121 273.213933 
L 173.596475 273.487865 
L 174.027829 269.912498 
L 174.890538 273.574283 
L 175.321892 274.615035 
L 175.753247 274.379306 
L 176.615955 276.645031 
L 177.04731 276.046711 
L 177.478664 274.308253 
L 177.910019 278.510963 
L 178.341373 276.292923 
L 178.772727 276.919644 
L 179.635436 276.080774 
L 180.06679 275.595543 
L 180.498145 276.374746 
L 180.929499 278.815022 
L 181.360853 278.701715 
L 181.792208 277.953359 
L 182.223562 274.544776 
L 182.654917 278.784797 
L 183.086271 275.993661 
L 183.517625 277.657231 
L 183.94898 278.510935 
L 184.380334 280.169558 
L 184.811688 278.499943 
L 185.243043 279.449765 
L 185.674397 278.333764 
L 186.105751 280.136504 
L 186.537106 280.101071 
L 186.96846 278.202453 
L 187.399814 282.687818 
L 188.262523 279.692173 
L 189.125232 281.099876 
L 189.556586 282.889511 
L 189.987941 281.199333 
L 190.419295 282.16807 
L 191.282004 282.89463 
L 191.713358 282.887836 
L 192.144712 283.471705 
L 192.576067 283.153222 
L 193.007421 282.492633 
L 193.438776 282.313546 
L 193.87013 284.978557 
L 194.301484 284.075783 
L 194.732839 285.240923 
L 195.164193 285.089646 
L 196.026902 283.073955 
L 196.458256 283.830917 
L 196.88961 283.390559 
L 197.320965 284.466961 
L 197.752319 286.084251 
L 198.183673 283.102921 
L 198.615028 282.443494 
L 199.046382 283.894018 
L 199.477737 284.264207 
L 199.909091 286.491218 
L 200.7718 285.460878 
L 201.203154 283.309404 
L 201.634508 286.431164 
L 202.065863 282.299177 
L 202.497217 282.24093 
L 202.928571 284.17968 
L 203.359926 285.374807 
L 203.79128 287.032438 
L 204.653989 287.527047 
L 205.085343 289.477354 
L 205.516698 288.740662 
L 205.948052 287.328871 
L 206.379406 286.763884 
L 206.810761 287.787632 
L 207.242115 288.037042 
L 207.673469 287.400849 
L 208.104824 284.614421 
L 209.398887 287.866585 
L 209.830241 287.722317 
L 210.261596 286.90638 
L 210.69295 287.587828 
L 211.124304 287.477667 
L 211.555659 287.643481 
L 211.987013 287.389781 
L 212.418367 288.879245 
L 212.849722 287.774464 
L 213.281076 288.220907 
L 213.71243 286.696896 
L 214.143785 289.141954 
L 215.006494 287.304205 
L 215.437848 287.1011 
L 215.869202 286.365494 
L 216.300557 288.630599 
L 216.731911 288.93798 
L 217.163265 289.854914 
L 217.59462 289.22094 
L 218.025974 289.568193 
L 218.888683 288.360662 
L 219.320037 289.087428 
L 219.751391 288.760049 
L 220.182746 289.884172 
L 221.045455 289.221522 
L 221.476809 286.424455 
L 221.908163 289.409654 
L 222.339518 289.728966 
L 222.770872 289.223936 
L 223.202226 291.005464 
L 223.633581 289.613618 
L 224.064935 291.178707 
L 224.496289 290.921079 
L 224.927644 289.555543 
L 225.358998 290.003277 
L 226.221707 289.908177 
L 226.653061 291.536722 
L 227.51577 288.713598 
L 228.378479 291.310248 
L 228.809833 291.247453 
L 229.241187 292.523431 
L 229.672542 291.278659 
L 230.103896 290.970157 
L 230.53525 291.066955 
L 230.966605 290.648068 
L 231.397959 289.927597 
L 231.829314 289.609262 
L 232.260668 288.46814 
L 232.692022 289.534484 
L 233.123377 289.542921 
L 233.554731 289.164987 
L 234.41744 292.246976 
L 234.848794 291.348064 
L 235.280148 292.139564 
L 235.711503 290.3442 
L 236.142857 291.690334 
L 236.574212 291.084164 
L 237.005566 290.770304 
L 237.43692 290.981037 
L 237.868275 290.069139 
L 238.299629 290.867854 
L 238.730983 291.328896 
L 239.162338 289.232417 
L 239.593692 291.052486 
L 240.025046 289.782453 
L 240.456401 290.825613 
L 240.887755 291.042857 
L 241.319109 291.598886 
L 241.750464 291.049209 
L 242.181818 290.752785 
L 242.613173 291.886013 
L 243.044527 290.486204 
L 243.475881 290.022278 
L 243.907236 291.193818 
L 244.33859 290.344297 
L 244.769944 289.898113 
L 245.201299 290.963582 
L 245.632653 292.796025 
L 246.064007 291.89312 
L 246.495362 292.09698 
L 246.926716 291.895893 
L 247.358071 292.249936 
L 247.789425 292.44119 
L 248.220779 292.989169 
L 248.652134 292.273818 
L 249.083488 292.394237 
L 249.514842 293.505835 
L 249.946197 293.983827 
L 250.808905 292.27314 
L 251.24026 291.607398 
L 251.671614 295.541706 
L 252.102968 293.758116 
L 252.534323 293.259147 
L 252.965677 293.280556 
L 253.397032 291.372478 
L 253.828386 291.115816 
L 254.25974 292.679445 
L 254.691095 291.864748 
L 255.122449 293.439749 
L 255.553803 293.943469 
L 255.985158 290.99507 
L 256.416512 291.740321 
L 256.847866 293.473301 
L 257.279221 293.267215 
L 257.710575 290.829686 
L 258.141929 292.973074 
L 258.573284 293.111706 
L 259.435993 294.840748 
L 259.867347 292.949471 
L 260.298701 295.37378 
L 260.730056 293.01382 
L 261.16141 293.049905 
L 261.592764 293.774042 
L 262.024119 290.802821 
L 262.455473 291.951219 
L 262.886827 290.78836 
L 263.318182 291.046888 
L 263.749536 290.640515 
L 264.180891 291.423183 
L 264.612245 291.729317 
L 265.043599 293.328633 
L 265.474954 291.597754 
L 265.906308 293.237749 
L 266.337662 292.45617 
L 266.769017 293.485194 
L 267.200371 292.811085 
L 267.631725 294.168035 
L 268.06308 292.965233 
L 268.494434 291.082704 
L 268.925788 293.534886 
L 269.357143 292.836709 
L 269.788497 294.824888 
L 270.219852 294.175608 
L 270.651206 293.90325 
L 271.08256 292.892477 
L 271.513915 293.917342 
L 271.945269 291.939796 
L 272.376623 294.343886 
L 272.807978 294.91418 
L 273.239332 294.569943 
L 273.670686 293.611713 
L 274.102041 294.017024 
L 274.533395 292.62898 
L 274.96475 293.504462 
L 275.396104 291.266914 
L 275.827458 293.902353 
L 276.258813 293.648826 
L 276.690167 293.857184 
L 277.121521 294.26762 
L 277.552876 295.767321 
L 277.98423 296.115346 
L 278.846939 293.954241 
L 279.278293 294.004503 
L 279.709647 293.026974 
L 280.141002 293.282692 
L 280.572356 296.381577 
L 281.003711 293.729893 
L 281.435065 295.774826 
L 281.866419 292.748028 
L 282.297774 293.255116 
L 282.729128 293.429302 
L 283.160482 294.854144 
L 283.591837 294.735734 
L 284.023191 292.198214 
L 284.454545 293.584912 
L 284.8859 293.401008 
L 285.317254 293.839409 
L 285.748609 294.629307 
L 286.179963 295.718992 
L 286.611317 295.365255 
L 287.042672 295.163131 
L 287.474026 296.230425 
L 287.90538 293.930196 
L 288.768089 293.919554 
L 289.199443 295.172408 
L 290.062152 295.834605 
L 290.493506 294.552484 
L 290.924861 294.693594 
L 291.356215 293.864059 
L 291.78757 295.155445 
L 292.650278 294.916947 
L 293.081633 295.716094 
L 293.512987 293.804643 
L 293.944341 294.665504 
L 294.375696 295.801704 
L 294.80705 293.457192 
L 295.238404 295.340196 
L 295.669759 294.499291 
L 296.101113 295.027254 
L 296.532468 295.35154 
L 296.963822 295.317114 
L 297.395176 295.448894 
L 297.826531 297.029239 
L 298.257885 294.774115 
L 298.689239 294.851775 
L 299.120594 295.154087 
L 299.551948 293.57663 
L 299.983302 294.56599 
L 300.414657 296.70702 
L 300.846011 295.222036 
L 301.70872 294.302035 
L 302.140074 297.108548 
L 302.571429 295.991988 
L 303.002783 296.328818 
L 303.434137 294.551502 
L 304.296846 295.948469 
L 304.7282 295.615768 
L 305.159555 294.897525 
L 305.590909 296.924709 
L 306.022263 296.863001 
L 306.453618 295.303683 
L 306.884972 294.755611 
L 307.316327 296.586114 
L 307.747681 296.032581 
L 308.179035 296.9864 
L 308.61039 294.821848 
L 309.473098 297.090203 
L 309.904453 296.834984 
L 310.335807 295.81871 
L 310.767161 295.877445 
L 311.198516 294.318189 
L 312.061224 297.207107 
L 312.492579 296.07898 
L 312.923933 295.849582 
L 313.355288 295.922309 
L 313.786642 297.580883 
L 314.217996 295.575736 
L 314.649351 294.808783 
L 315.080705 296.579065 
L 315.512059 295.206503 
L 315.943414 294.876411 
L 316.374768 295.89114 
L 316.806122 296.450297 
L 317.237477 294.725346 
L 318.100186 297.51297 
L 318.53154 295.889397 
L 318.962894 295.429439 
L 319.394249 295.87226 
L 319.825603 295.693129 
L 320.256957 295.311834 
L 320.688312 297.478917 
L 321.119666 296.702962 
L 321.55102 297.052257 
L 321.982375 297.556144 
L 322.413729 296.700718 
L 322.845083 295.365342 
L 323.276438 296.054516 
L 323.707792 297.808472 
L 324.139147 294.935111 
L 324.570501 296.526256 
L 325.001855 296.928422 
L 325.43321 296.338865 
L 325.864564 297.023465 
L 326.295918 295.222464 
L 326.727273 295.382592 
L 327.158627 298.528048 
L 327.589981 295.866919 
L 328.021336 296.861221 
L 328.45269 295.314834 
L 328.884045 294.557096 
L 329.315399 295.833938 
L 329.746753 297.619405 
L 330.178108 297.081018 
L 330.609462 295.192225 
L 331.040816 295.967191 
L 331.472171 295.493809 
L 331.903525 297.215755 
L 332.334879 296.20394 
L 332.766234 295.797663 
L 333.628942 297.055239 
L 334.491651 295.065194 
L 334.923006 297.005744 
L 335.35436 294.315911 
L 335.785714 296.587074 
L 336.217069 295.868687 
L 336.648423 295.823513 
L 337.079777 296.159447 
L 337.511132 296.008007 
L 337.942486 296.466571 
L 338.37384 299.297449 
L 338.805195 298.270253 
L 339.236549 294.432153 
L 339.667904 299.11108 
L 340.099258 297.276887 
L 340.530612 294.430087 
L 340.961967 296.34355 
L 341.393321 296.2103 
L 341.824675 296.890413 
L 342.25603 295.972921 
L 342.687384 295.868861 
L 343.550093 297.775778 
L 343.981447 295.731714 
L 344.412801 297.313795 
L 344.844156 297.263008 
L 345.27551 296.41702 
L 345.706865 297.323207 
L 346.138219 297.254345 
L 346.569573 295.7391 
L 347.000928 296.355216 
L 347.432282 295.40939 
L 347.863636 297.604797 
L 348.294991 297.715543 
L 348.726345 296.02007 
L 349.157699 298.019236 
L 349.589054 296.70106 
L 350.020408 296.089229 
L 350.451763 296.992876 
L 350.883117 295.199899 
L 351.314471 294.979733 
L 351.745826 296.933401 
L 352.17718 299.605858 
L 352.608534 296.933697 
L 353.039889 296.025403 
L 353.471243 295.976276 
L 353.902597 297.355155 
L 354.333952 295.791716 
L 354.765306 296.669618 
L 355.19666 296.416257 
L 355.628015 297.938428 
L 356.059369 298.221429 
L 356.490724 296.33705 
L 356.922078 295.76901 
L 357.353432 297.990713 
L 357.784787 294.755075 
L 358.216141 297.299536 
L 359.07885 297.469202 
L 359.510204 296.871347 
L 359.941558 296.031808 
L 360.372913 296.879223 
L 360.804267 296.10831 
L 361.235622 297.227552 
L 361.666976 296.630047 
L 362.09833 296.899395 
L 362.529685 295.76987 
L 362.961039 296.880378 
L 363.823748 297.809957 
L 364.255102 297.535007 
L 364.686456 297.470685 
L 365.117811 295.410254 
L 365.549165 297.865573 
L 365.980519 295.934933 
L 366.411874 296.147123 
L 366.843228 295.600289 
L 367.274583 295.670164 
L 367.705937 295.948995 
L 368.137291 294.958649 
L 368.568646 297.533041 
L 369.862709 296.891732 
L 370.294063 294.90048 
L 370.725417 296.215972 
L 371.156772 296.667062 
L 371.588126 296.316508 
L 372.019481 296.381578 
L 372.450835 296.146241 
L 372.882189 296.59634 
L 373.313544 297.587783 
L 373.744898 296.988882 
L 374.176252 297.387263 
L 374.607607 295.394618 
L 375.038961 296.087183 
L 375.470315 295.187039 
L 375.90167 298.555675 
L 376.333024 296.466406 
L 376.764378 299.679579 
L 377.195733 298.140311 
L 377.627087 297.314754 
L 378.058442 296.742766 
L 378.489796 297.838169 
L 378.92115 298.27957 
L 379.352505 297.329082 
L 379.783859 297.836176 
L 380.215213 297.649948 
L 380.646568 295.553709 
L 381.077922 297.590568 
L 381.509276 296.84905 
L 381.940631 298.482807 
L 382.371985 297.063354 
L 382.80334 297.933326 
L 383.234694 295.498057 
L 384.097403 296.991139 
L 384.528757 296.960746 
L 384.960111 297.967997 
L 385.391466 296.479219 
L 385.82282 296.628516 
L 386.254174 296.993009 
L 386.685529 296.997776 
L 387.116883 296.763541 
L 387.548237 296.997611 
L 387.979592 296.674791 
L 388.410946 296.501096 
L 388.842301 296.112651 
L 389.705009 298.112705 
L 390.136364 296.991969 
L 390.567718 296.63446 
L 390.999072 296.943955 
L 391.430427 296.472007 
L 391.861781 297.10415 
L 392.293135 295.733678 
L 392.72449 298.975541 
L 393.155844 297.276701 
L 393.587199 297.152354 
L 394.018553 297.746538 
L 394.449907 297.294298 
L 394.881262 297.831881 
L 395.312616 297.303112 
L 395.74397 297.375978 
L 396.175325 296.848765 
L 396.606679 297.295751 
L 397.038033 296.614593 
L 397.469388 296.303903 
L 397.900742 297.228047 
L 398.332096 297.168524 
L 399.194805 297.78604 
L 399.62616 297.503175 
L 400.057514 296.075934 
L 400.488868 295.810055 
L 400.920223 296.723597 
L 401.351577 296.69763 
L 401.782931 298.158541 
L 402.214286 295.901794 
L 403.076994 298.312998 
L 403.508349 297.899552 
L 403.939703 299.080951 
L 404.371058 299.223387 
L 404.802412 296.77147 
L 405.233766 298.062659 
L 405.665121 296.605077 
L 406.096475 298.107543 
L 406.527829 297.479278 
L 406.959184 298.381473 
L 407.390538 296.086912 
L 407.821892 297.278058 
L 408.253247 297.997084 
L 408.684601 296.833949 
L 409.115955 298.339347 
L 409.54731 298.830911 
L 409.978664 294.238148 
L 410.410019 296.151478 
L 410.841373 295.742001 
L 411.272727 296.128627 
L 411.704082 297.170414 
L 412.135436 297.301511 
L 412.56679 298.615303 
L 412.998145 298.02889 
L 413.429499 298.968911 
L 413.860853 298.084073 
L 414.292208 299.053786 
L 414.723562 298.890539 
L 415.586271 297.206924 
L 416.017625 296.798127 
L 416.44898 297.397085 
L 416.880334 296.499236 
L 417.311688 298.070828 
L 417.743043 298.385393 
L 418.174397 294.47858 
L 418.605751 296.731324 
L 419.037106 296.71559 
L 419.46846 296.038944 
L 419.899814 297.991961 
L 420.331169 298.944314 
L 420.762523 299.519646 
L 421.193878 297.945511 
L 421.625232 297.154227 
L 422.056586 297.96195 
L 422.487941 297.73726 
L 422.919295 298.713222 
L 423.350649 297.343638 
L 423.782004 297.844091 
L 424.213358 297.684457 
L 425.076067 295.592762 
L 425.507421 297.177584 
L 425.938776 297.442925 
L 426.37013 297.327078 
L 426.801484 295.372006 
L 427.232839 296.09146 
L 427.664193 297.629332 
L 428.095547 296.972595 
L 428.526902 297.424513 
L 428.958256 297.131191 
L 429.38961 296.203505 
L 429.820965 297.896365 
L 430.252319 297.922873 
L 430.683673 297.166725 
L 431.115028 296.86806 
L 431.546382 297.41502 
L 431.977737 297.566599 
L 432.409091 297.279619 
L 432.840445 299.390821 
L 433.2718 298.110747 
L 433.703154 297.980889 
L 434.134508 296.642536 
L 434.997217 297.435377 
L 435.428571 296.045165 
L 435.859926 296.163203 
L 436.29128 298.555028 
L 436.722635 297.817367 
L 437.153989 297.572412 
L 437.585343 299.576523 
L 438.016698 297.187187 
L 438.448052 297.240704 
L 438.879406 296.537182 
L 439.310761 296.526011 
L 439.742115 297.557874 
L 440.173469 297.675113 
L 440.604824 297.152475 
L 441.036178 295.536051 
L 441.467532 296.956424 
L 441.898887 297.716393 
L 442.330241 297.798686 
L 442.761596 297.474203 
L 443.19295 298.550543 
L 443.624304 296.701832 
L 444.055659 298.378447 
L 444.918367 299.08271 
L 445.349722 298.103211 
L 445.781076 297.874526 
L 446.21243 297.038517 
L 446.643785 296.725817 
L 447.075139 296.859289 
L 447.506494 298.713855 
L 447.937848 296.243169 
L 448.369202 296.974597 
L 449.231911 296.056777 
L 449.663265 297.394163 
L 450.525974 296.661923 
L 450.957328 296.482932 
L 451.388683 297.433259 
L 451.820037 296.388084 
L 452.251391 299.035749 
L 452.682746 297.358977 
L 453.1141 296.556787 
L 453.545455 297.316893 
L 453.976809 298.331079 
L 454.408163 295.967662 
L 454.839518 295.471552 
L 455.270872 295.969313 
L 455.702226 296.895083 
L 456.133581 298.371188 
L 456.564935 297.401647 
L 456.996289 299.639831 
L 457.427644 298.218565 
L 457.858998 297.588095 
L 458.290353 298.675175 
L 458.721707 297.256872 
L 459.153061 296.997653 
L 459.584416 298.545699 
L 460.01577 297.54627 
L 460.447124 299.907164 
L 460.878479 297.471406 
L 461.309833 298.442095 
L 461.741187 297.743834 
L 462.172542 299.310858 
L 462.603896 297.377336 
L 463.03525 297.042319 
L 463.466605 298.468248 
L 463.897959 296.130832 
L 464.329314 297.100967 
L 464.760668 297.109811 
L 465.192022 296.747959 
L 465.623377 298.646652 
L 466.054731 297.776636 
L 466.486085 298.620404 
L 466.91744 298.641603 
L 467.348794 297.827031 
L 467.780148 300.041586 
L 468.211503 298.441249 
L 468.642857 297.837178 
L 469.074212 298.981643 
L 469.505566 298.37243 
L 469.93692 298.677526 
L 470.368275 298.764302 
L 470.799629 297.377026 
L 471.230983 298.422903 
L 472.093692 297.705453 
L 472.525046 298.835363 
L 472.956401 298.950203 
L 473.387755 297.868857 
L 473.819109 298.030588 
L 474.250464 298.015602 
L 475.113173 298.238856 
L 475.544527 294.990788 
L 475.975881 296.990758 
L 476.407236 297.73927 
L 476.83859 298.741958 
L 477.269944 298.86985 
L 477.701299 299.916029 
L 478.564007 299.559315 
L 478.995362 298.039606 
L 479.426716 297.550225 
L 479.858071 298.232164 
L 480.289425 296.059224 
L 480.720779 299.111099 
L 481.152134 297.040887 
L 481.583488 297.449506 
L 482.014842 299.547117 
L 482.446197 297.197004 
L 483.308905 297.241584 
L 483.74026 298.966282 
L 484.171614 296.036416 
L 484.602968 297.660983 
L 485.034323 297.953306 
L 485.465677 297.330152 
L 485.897032 298.686865 
L 486.328386 295.753905 
L 486.75974 297.691852 
L 487.191095 297.168794 
L 487.622449 297.135985 
L 488.053803 296.935491 
L 488.485158 297.943476 
L 488.916512 297.899014 
L 489.347866 298.399178 
L 489.779221 298.157577 
L 490.210575 298.113088 
L 490.641929 299.684702 
L 491.073284 298.038724 
L 491.504638 299.221338 
L 491.935993 297.563434 
L 492.367347 299.469602 
L 492.798701 299.585091 
L 493.230056 298.60077 
L 493.66141 296.447373 
L 494.092764 298.296859 
L 494.524119 296.645496 
L 494.955473 297.071864 
L 495.386827 297.172345 
L 495.818182 298.079983 
L 496.249536 297.151046 
L 496.680891 297.731883 
L 497.112245 300.34075 
L 497.543599 298.662378 
L 497.974954 299.250094 
L 498.406308 298.249174 
L 498.837662 296.163906 
L 499.269017 297.104502 
L 499.700371 298.675038 
L 500.131725 298.597248 
L 500.56308 298.762958 
L 500.994434 296.856131 
L 501.425788 297.6231 
L 501.857143 297.708116 
L 502.288497 299.463154 
L 502.719852 298.586365 
L 503.58256 297.734514 
L 504.013915 297.610699 
L 504.445269 298.766744 
L 504.876623 298.670529 
L 505.307978 297.453775 
L 505.739332 298.600633 
L 506.170686 297.932119 
L 506.602041 297.745134 
L 507.033395 297.702736 
L 507.46475 299.748822 
L 507.896104 298.947511 
L 508.327458 297.634372 
L 508.758813 299.018354 
L 509.190167 298.219109 
L 509.621521 296.885645 
L 510.052876 299.467604 
L 510.48423 296.992047 
L 510.915584 295.895984 
L 511.346939 298.332544 
L 511.778293 298.2721 
L 512.209647 298.615312 
L 513.072356 295.778585 
L 513.503711 297.611068 
L 513.935065 298.817545 
L 514.366419 297.975403 
L 514.797774 301.0398 
L 515.229128 296.885625 
L 515.660482 297.797951 
L 516.091837 297.300188 
L 516.523191 297.390074 
L 516.954545 296.755671 
L 517.3859 296.525704 
L 518.679963 297.682286 
L 519.111317 297.314373 
L 519.542672 296.287976 
L 519.974026 294.666193 
L 520.40538 295.969171 
L 520.836735 295.283896 
L 521.268089 297.15366 
L 521.699443 297.571658 
L 522.130798 296.418585 
L 522.562152 297.798198 
L 522.993506 295.119692 
L 523.424861 299.698091 
L 523.856215 297.491227 
L 524.28757 296.507193 
L 524.718924 295.923455 
L 525.150278 297.812144 
L 525.581633 298.37228 
L 526.012987 298.592641 
L 526.875696 294.994965 
L 527.30705 298.327656 
L 527.738404 295.225642 
L 528.169759 298.111943 
L 528.601113 297.790213 
L 529.032468 298.49075 
L 529.463822 297.163034 
L 530.326531 299.101559 
L 530.757885 297.722419 
L 531.189239 297.887533 
L 531.620594 297.097798 
L 532.051948 298.000479 
L 532.483302 297.778591 
L 532.914657 298.196801 
L 533.346011 299.573121 
L 533.777365 297.740793 
L 534.20872 296.518872 
L 534.640074 297.763878 
L 535.071429 298.171891 
L 535.502783 297.0327 
L 535.934137 296.550242 
L 536.365492 297.335703 
L 536.796846 297.169922 
L 537.2282 297.745169 
L 537.659555 299.559577 
L 538.090909 299.6562 
L 538.522263 299.525701 
L 538.953618 298.342133 
L 539.384972 298.08436 
L 539.816327 297.14609 
L 540.247681 299.781417 
L 540.679035 298.171473 
L 541.541744 297.017342 
L 541.973098 297.934871 
L 542.404453 299.275715 
L 543.267161 297.802459 
L 543.698516 300.264346 
L 544.12987 300.098995 
L 544.561224 298.542367 
L 544.992579 297.911029 
L 545.423933 294.901477 
L 545.855288 298.585601 
L 546.286642 300.271746 
L 546.717996 297.841983 
L 547.149351 297.036788 
L 547.580705 298.602574 
L 548.012059 298.046454 
L 548.443414 299.001015 
L 548.874768 297.893595 
L 549.306122 298.104987 
L 549.737477 299.642202 
L 550.168831 297.950323 
L 550.600186 297.368197 
L 551.03154 296.391503 
L 551.462894 297.13323 
L 551.894249 297.23855 
L 552.325603 299.1192 
L 552.756957 297.274687 
L 553.188312 297.305914 
L 553.619666 297.600666 
L 554.05102 298.94676 
L 554.482375 296.972829 
L 554.913729 296.505419 
L 555.345083 297.816001 
L 555.776438 297.156197 
L 556.207792 300.161288 
L 556.639147 297.374062 
L 557.070501 298.380188 
L 557.501855 295.84178 
L 557.93321 297.424042 
L 558.364564 297.213843 
L 558.795918 297.19785 
L 559.227273 298.471865 
L 559.658627 298.594892 
L 560.089981 297.780241 
L 560.521336 299.593571 
L 560.95269 297.570073 
L 561.384045 297.237558 
L 561.815399 297.949573 
L 562.246753 297.627725 
L 562.678108 297.463277 
L 563.109462 298.418362 
L 563.540816 297.364897 
L 563.972171 298.770263 
L 564.403525 296.690559 
L 565.266234 299.357415 
L 565.697588 298.167862 
L 566.128942 298.702712 
L 566.991651 298.151247 
L 567.423006 297.431208 
L 567.85436 297.328598 
L 568.717069 299.722539 
L 569.148423 297.655005 
L 569.579777 297.939012 
L 570.011132 297.360349 
L 570.442486 298.745117 
L 570.87384 298.926702 
L 571.305195 298.222963 
L 571.736549 298.829037 
L 572.167904 297.677362 
L 572.599258 297.935693 
L 573.030612 295.402343 
L 573.461967 297.543354 
L 573.893321 297.617546 
L 574.324675 299.191443 
L 574.75603 298.125727 
L 575.187384 297.778999 
L 575.618738 298.514001 
L 576.050093 300.03498 
L 576.481447 297.157987 
L 576.912801 298.467835 
L 577.344156 296.894779 
L 577.77551 297.056497 
L 578.206865 296.170553 
L 578.638219 297.692509 
L 579.069573 298.111046 
L 579.500928 297.884394 
L 579.932282 298.203056 
L 580.363636 297.869369 
L 581.226345 298.462639 
L 581.657699 296.202273 
L 582.089054 297.509376 
L 582.520408 297.166679 
L 582.951763 296.240737 
L 583.383117 297.923934 
L 583.814471 298.476681 
L 584.245826 298.559424 
L 584.67718 298.00443 
L 585.108534 297.159301 
L 585.539889 297.500582 
L 586.402597 296.055853 
L 586.833952 297.675429 
L 587.69666 298.186944 
L 588.128015 299.425542 
L 588.559369 299.172861 
L 588.990724 297.363919 
L 589.422078 296.731834 
L 589.853432 296.866801 
L 590.284787 297.272056 
L 590.716141 298.654581 
L 591.147495 296.64521 
L 591.57885 297.127155 
L 592.010204 295.555792 
L 592.441558 295.850941 
L 592.872913 298.21676 
L 593.304267 297.984392 
L 593.735622 298.221548 
L 594.166976 297.585675 
L 594.59833 296.751246 
L 595.029685 296.82144 
L 595.461039 298.891336 
L 595.892393 298.649688 
L 596.323748 298.537348 
L 597.186456 296.572888 
L 597.617811 296.833905 
L 598.049165 299.235648 
L 598.480519 296.819257 
L 598.911874 296.697337 
L 599.343228 295.785218 
L 599.774583 297.837779 
L 600.205937 297.79676 
L 600.637291 298.840279 
L 601.068646 298.370044 
L 601.5 296.717578 
L 601.931354 298.406036 
L 602.362709 297.420304 
L 602.794063 297.325533 
L 603.225417 298.927041 
L 603.656772 297.155786 
L 604.088126 299.154915 
L 604.519481 297.305109 
L 604.950835 296.78695 
L 605.382189 298.45915 
L 605.813544 298.6746 
L 606.244898 295.986263 
L 606.676252 297.704294 
L 607.107607 296.420164 
L 607.538961 297.570691 
L 607.970315 297.637943 
L 608.40167 298.8129 
L 608.833024 298.702223 
L 609.264378 297.55118 
L 609.695733 298.717488 
L 610.127087 297.126067 
L 610.558442 296.630663 
L 610.989796 299.719288 
L 611.42115 296.761052 
L 611.852505 299.139877 
L 612.283859 296.677518 
L 612.715213 296.880642 
L 613.146568 296.59442 
L 613.577922 295.84042 
L 614.440631 299.370609 
L 614.871985 294.975224 
L 615.30334 297.62797 
L 615.734694 298.438123 
L 616.166048 295.879349 
L 616.597403 297.608401 
L 617.028757 296.836334 
L 617.460111 298.315108 
L 618.32282 298.845481 
L 618.754174 296.396341 
L 619.185529 297.552632 
L 619.616883 297.468444 
L 620.048237 297.216565 
L 620.479592 299.280333 
L 620.910946 298.041246 
L 621.342301 299.239304 
L 621.773655 296.784545 
L 622.205009 297.157031 
L 622.636364 298.611031 
L 622.636364 298.611031 
" style="fill:none;stroke:#ff7f0e;stroke-linecap:square;stroke-width:0.5;"/>
   </g>
   <g id="patch_3">
    <path d="M 90 315 
L 90 43.2 
" style="fill:none;stroke:#000000;stroke-linecap:square;stroke-linejoin:miter;stroke-width:0.8;"/>
   </g>
   <g id="patch_4">
    <path d="M 648 315 
L 648 43.2 
" style="fill:none;stroke:#000000;stroke-linecap:square;stroke-linejoin:miter;stroke-width:0.8;"/>
   </g>
   <g id="patch_5">
    <path d="M 90 315 
L 648 315 
" style="fill:none;stroke:#000000;stroke-linecap:square;stroke-linejoin:miter;stroke-width:0.8;"/>
   </g>
   <g id="patch_6">
    <path d="M 90 43.2 
L 648 43.2 
" style="fill:none;stroke:#000000;stroke-linecap:square;stroke-linejoin:miter;stroke-width:0.8;"/>
   </g>
   <g id="text_18">
    <!-- loss -->
    <g transform="translate(357.410625 37.2)scale(0.12 -0.12)">
     <use xlink:href="#DejaVuSans-108"/>
     <use x="27.783203" xlink:href="#DejaVuSans-111"/>
     <use x="88.964844" xlink:href="#DejaVuSans-115"/>
     <use x="141.064453" xlink:href="#DejaVuSans-115"/>
    </g>
   </g>
   <g id="legend_1">
    <g id="patch_7">
     <path d="M 568.846875 80.55625 
L 641 80.55625 
Q 643 80.55625 643 78.55625 
L 643 50.2 
Q 643 48.2 641 48.2 
L 568.846875 48.2 
Q 566.846875 48.2 566.846875 50.2 
L 566.846875 78.55625 
Q 566.846875 80.55625 568.846875 80.55625 
z
" style="fill:#ffffff;opacity:0.8;stroke:#cccccc;stroke-linejoin:miter;"/>
    </g>
    <g id="line2d_33">
     <path d="M 570.846875 56.298437 
L 590.846875 56.298437 
" style="fill:none;stroke:#1f77b4;stroke-linecap:square;stroke-width:0.5;"/>
    </g>
    <g id="line2d_34"/>
    <g id="text_19">
     <!-- train -->
     <defs>
      <path d="M 18.3125 70.21875 
L 18.3125 54.6875 
L 36.8125 54.6875 
L 36.8125 47.703125 
L 18.3125 47.703125 
L 18.3125 18.015625 
Q 18.3125 11.328125 20.140625 9.421875 
Q 21.96875 7.515625 27.59375 7.515625 
L 36.8125 7.515625 
L 36.8125 0 
L 27.59375 0 
Q 17.1875 0 13.234375 3.875 
Q 9.28125 7.765625 9.28125 18.015625 
L 9.28125 47.703125 
L 2.6875 47.703125 
L 2.6875 54.6875 
L 9.28125 54.6875 
L 9.28125 70.21875 
z
" id="DejaVuSans-116"/>
      <path d="M 41.109375 46.296875 
Q 39.59375 47.171875 37.8125 47.578125 
Q 36.03125 48 33.890625 48 
Q 26.265625 48 22.1875 43.046875 
Q 18.109375 38.09375 18.109375 28.8125 
L 18.109375 0 
L 9.078125 0 
L 9.078125 54.6875 
L 18.109375 54.6875 
L 18.109375 46.1875 
Q 20.953125 51.171875 25.484375 53.578125 
Q 30.03125 56 36.53125 56 
Q 37.453125 56 38.578125 55.875 
Q 39.703125 55.765625 41.0625 55.515625 
z
" id="DejaVuSans-114"/>
      <path d="M 34.28125 27.484375 
Q 23.390625 27.484375 19.1875 25 
Q 14.984375 22.515625 14.984375 16.5 
Q 14.984375 11.71875 18.140625 8.90625 
Q 21.296875 6.109375 26.703125 6.109375 
Q 34.1875 6.109375 38.703125 11.40625 
Q 43.21875 16.703125 43.21875 25.484375 
L 43.21875 27.484375 
z
M 52.203125 31.203125 
L 52.203125 0 
L 43.21875 0 
L 43.21875 8.296875 
Q 40.140625 3.328125 35.546875 0.953125 
Q 30.953125 -1.421875 24.3125 -1.421875 
Q 15.921875 -1.421875 10.953125 3.296875 
Q 6 8.015625 6 15.921875 
Q 6 25.140625 12.171875 29.828125 
Q 18.359375 34.515625 30.609375 34.515625 
L 43.21875 34.515625 
L 43.21875 35.40625 
Q 43.21875 41.609375 39.140625 45 
Q 35.0625 48.390625 27.6875 48.390625 
Q 23 48.390625 18.546875 47.265625 
Q 14.109375 46.140625 10.015625 43.890625 
L 10.015625 52.203125 
Q 14.9375 54.109375 19.578125 55.046875 
Q 24.21875 56 28.609375 56 
Q 40.484375 56 46.34375 49.84375 
Q 52.203125 43.703125 52.203125 31.203125 
z
" id="DejaVuSans-97"/>
      <path d="M 9.421875 54.6875 
L 18.40625 54.6875 
L 18.40625 0 
L 9.421875 0 
z
M 9.421875 75.984375 
L 18.40625 75.984375 
L 18.40625 64.59375 
L 9.421875 64.59375 
z
" id="DejaVuSans-105"/>
      <path d="M 54.890625 33.015625 
L 54.890625 0 
L 45.90625 0 
L 45.90625 32.71875 
Q 45.90625 40.484375 42.875 44.328125 
Q 39.84375 48.1875 33.796875 48.1875 
Q 26.515625 48.1875 22.3125 43.546875 
Q 18.109375 38.921875 18.109375 30.90625 
L 18.109375 0 
L 9.078125 0 
L 9.078125 54.6875 
L 18.109375 54.6875 
L 18.109375 46.1875 
Q 21.34375 51.125 25.703125 53.5625 
Q 30.078125 56 35.796875 56 
Q 45.21875 56 50.046875 50.171875 
Q 54.890625 44.34375 54.890625 33.015625 
z
" id="DejaVuSans-110"/>
     </defs>
     <g transform="translate(598.846875 59.798437)scale(0.1 -0.1)">
      <use xlink:href="#DejaVuSans-116"/>
      <use x="39.208984" xlink:href="#DejaVuSans-114"/>
      <use x="80.322266" xlink:href="#DejaVuSans-97"/>
      <use x="141.601562" xlink:href="#DejaVuSans-105"/>
      <use x="169.384766" xlink:href="#DejaVuSans-110"/>
     </g>
    </g>
    <g id="line2d_35">
     <path d="M 570.846875 70.976562 
L 590.846875 70.976562 
" style="fill:none;stroke:#ff7f0e;stroke-linecap:square;stroke-width:0.5;"/>
    </g>
    <g id="line2d_36"/>
    <g id="text_20">
     <!-- validate -->
     <defs>
      <path d="M 2.984375 54.6875 
L 12.5 54.6875 
L 29.59375 8.796875 
L 46.6875 54.6875 
L 56.203125 54.6875 
L 35.6875 0 
L 23.484375 0 
z
" id="DejaVuSans-118"/>
      <path d="M 45.40625 46.390625 
L 45.40625 75.984375 
L 54.390625 75.984375 
L 54.390625 0 
L 45.40625 0 
L 45.40625 8.203125 
Q 42.578125 3.328125 38.25 0.953125 
Q 33.9375 -1.421875 27.875 -1.421875 
Q 17.96875 -1.421875 11.734375 6.484375 
Q 5.515625 14.40625 5.515625 27.296875 
Q 5.515625 40.1875 11.734375 48.09375 
Q 17.96875 56 27.875 56 
Q 33.9375 56 38.25 53.625 
Q 42.578125 51.265625 45.40625 46.390625 
z
M 14.796875 27.296875 
Q 14.796875 17.390625 18.875 11.75 
Q 22.953125 6.109375 30.078125 6.109375 
Q 37.203125 6.109375 41.296875 11.75 
Q 45.40625 17.390625 45.40625 27.296875 
Q 45.40625 37.203125 41.296875 42.84375 
Q 37.203125 48.484375 30.078125 48.484375 
Q 22.953125 48.484375 18.875 42.84375 
Q 14.796875 37.203125 14.796875 27.296875 
z
" id="DejaVuSans-100"/>
     </defs>
     <g transform="translate(598.846875 74.476562)scale(0.1 -0.1)">
      <use xlink:href="#DejaVuSans-118"/>
      <use x="59.179688" xlink:href="#DejaVuSans-97"/>
      <use x="120.458984" xlink:href="#DejaVuSans-108"/>
      <use x="148.242188" xlink:href="#DejaVuSans-105"/>
      <use x="176.025391" xlink:href="#DejaVuSans-100"/>
      <use x="239.501953" xlink:href="#DejaVuSans-97"/>
      <use x="300.78125" xlink:href="#DejaVuSans-116"/>
      <use x="339.990234" xlink:href="#DejaVuSans-101"/>
     </g>
    </g>
   </g>
  </g>
 </g>
 <defs>
  <clipPath id="p0c90410a7a">
   <rect height="271.8" width="558" x="90" y="43.2"/>
  </clipPath>
 </defs>
</svg>
