<?xml version="1.0" encoding="utf-8" standalone="no"?>
<!DOCTYPE svg PUBLIC "-//W3C//DTD SVG 1.1//EN"
  "http://www.w3.org/Graphics/SVG/1.1/DTD/svg11.dtd">
<!-- Created with matplotlib (https://matplotlib.org/) -->
<svg height="360pt" version="1.1" viewBox="0 0 720 360" width="720pt" xmlns="http://www.w3.org/2000/svg" xmlns:xlink="http://www.w3.org/1999/xlink">
 <defs>
  <style type="text/css">
*{stroke-linecap:butt;stroke-linejoin:round;}
  </style>
 </defs>
 <g id="figure_1">
  <g id="patch_1">
   <path d="M 0 360 
L 720 360 
L 720 0 
L 0 0 
z
" style="fill:#ffffff;"/>
  </g>
  <g id="axes_1">
   <g id="patch_2">
    <path d="M 90 315 
L 648 315 
L 648 43.2 
L 90 43.2 
z
" style="fill:#ffffff;"/>
   </g>
   <g id="matplotlib.axis_1">
    <g id="xtick_1">
     <g id="line2d_1">
      <path clip-path="url(#p73873a1ad6)" d="M 115.363636 315 
L 115.363636 43.2 
" style="fill:none;stroke:#b0b0b0;stroke-linecap:square;stroke-width:0.8;"/>
     </g>
     <g id="line2d_2">
      <defs>
       <path d="M 0 0 
L 0 3.5 
" id="me217941fe8" style="stroke:#000000;stroke-width:0.8;"/>
      </defs>
      <g>
       <use style="stroke:#000000;stroke-width:0.8;" x="115.363636" xlink:href="#me217941fe8" y="315"/>
      </g>
     </g>
     <g id="text_1">
      <!-- 0 -->
      <defs>
       <path d="M 31.78125 66.40625 
Q 24.171875 66.40625 20.328125 58.90625 
Q 16.5 51.421875 16.5 36.375 
Q 16.5 21.390625 20.328125 13.890625 
Q 24.171875 6.390625 31.78125 6.390625 
Q 39.453125 6.390625 43.28125 13.890625 
Q 47.125 21.390625 47.125 36.375 
Q 47.125 51.421875 43.28125 58.90625 
Q 39.453125 66.40625 31.78125 66.40625 
z
M 31.78125 74.21875 
Q 44.046875 74.21875 50.515625 64.515625 
Q 56.984375 54.828125 56.984375 36.375 
Q 56.984375 17.96875 50.515625 8.265625 
Q 44.046875 -1.421875 31.78125 -1.421875 
Q 19.53125 -1.421875 13.0625 8.265625 
Q 6.59375 17.96875 6.59375 36.375 
Q 6.59375 54.828125 13.0625 64.515625 
Q 19.53125 74.21875 31.78125 74.21875 
z
" id="DejaVuSans-48"/>
      </defs>
      <g transform="translate(112.182386 329.598437)scale(0.1 -0.1)">
       <use xlink:href="#DejaVuSans-48"/>
      </g>
     </g>
    </g>
    <g id="xtick_2">
     <g id="line2d_3">
      <path clip-path="url(#p73873a1ad6)" d="M 225.640316 315 
L 225.640316 43.2 
" style="fill:none;stroke:#b0b0b0;stroke-linecap:square;stroke-width:0.8;"/>
     </g>
     <g id="line2d_4">
      <g>
       <use style="stroke:#000000;stroke-width:0.8;" x="225.640316" xlink:href="#me217941fe8" y="315"/>
      </g>
     </g>
     <g id="text_2">
      <!-- 100 -->
      <defs>
       <path d="M 12.40625 8.296875 
L 28.515625 8.296875 
L 28.515625 63.921875 
L 10.984375 60.40625 
L 10.984375 69.390625 
L 28.421875 72.90625 
L 38.28125 72.90625 
L 38.28125 8.296875 
L 54.390625 8.296875 
L 54.390625 0 
L 12.40625 0 
z
" id="DejaVuSans-49"/>
      </defs>
      <g transform="translate(216.096566 329.598437)scale(0.1 -0.1)">
       <use xlink:href="#DejaVuSans-49"/>
       <use x="63.623047" xlink:href="#DejaVuSans-48"/>
       <use x="127.246094" xlink:href="#DejaVuSans-48"/>
      </g>
     </g>
    </g>
    <g id="xtick_3">
     <g id="line2d_5">
      <path clip-path="url(#p73873a1ad6)" d="M 335.916996 315 
L 335.916996 43.2 
" style="fill:none;stroke:#b0b0b0;stroke-linecap:square;stroke-width:0.8;"/>
     </g>
     <g id="line2d_6">
      <g>
       <use style="stroke:#000000;stroke-width:0.8;" x="335.916996" xlink:href="#me217941fe8" y="315"/>
      </g>
     </g>
     <g id="text_3">
      <!-- 200 -->
      <defs>
       <path d="M 19.1875 8.296875 
L 53.609375 8.296875 
L 53.609375 0 
L 7.328125 0 
L 7.328125 8.296875 
Q 12.9375 14.109375 22.625 23.890625 
Q 32.328125 33.6875 34.8125 36.53125 
Q 39.546875 41.84375 41.421875 45.53125 
Q 43.3125 49.21875 43.3125 52.78125 
Q 43.3125 58.59375 39.234375 62.25 
Q 35.15625 65.921875 28.609375 65.921875 
Q 23.96875 65.921875 18.8125 64.3125 
Q 13.671875 62.703125 7.8125 59.421875 
L 7.8125 69.390625 
Q 13.765625 71.78125 18.9375 73 
Q 24.125 74.21875 28.421875 74.21875 
Q 39.75 74.21875 46.484375 68.546875 
Q 53.21875 62.890625 53.21875 53.421875 
Q 53.21875 48.921875 51.53125 44.890625 
Q 49.859375 40.875 45.40625 35.40625 
Q 44.1875 33.984375 37.640625 27.21875 
Q 31.109375 20.453125 19.1875 8.296875 
z
" id="DejaVuSans-50"/>
      </defs>
      <g transform="translate(326.373246 329.598437)scale(0.1 -0.1)">
       <use xlink:href="#DejaVuSans-50"/>
       <use x="63.623047" xlink:href="#DejaVuSans-48"/>
       <use x="127.246094" xlink:href="#DejaVuSans-48"/>
      </g>
     </g>
    </g>
    <g id="xtick_4">
     <g id="line2d_7">
      <path clip-path="url(#p73873a1ad6)" d="M 446.193676 315 
L 446.193676 43.2 
" style="fill:none;stroke:#b0b0b0;stroke-linecap:square;stroke-width:0.8;"/>
     </g>
     <g id="line2d_8">
      <g>
       <use style="stroke:#000000;stroke-width:0.8;" x="446.193676" xlink:href="#me217941fe8" y="315"/>
      </g>
     </g>
     <g id="text_4">
      <!-- 300 -->
      <defs>
       <path d="M 40.578125 39.3125 
Q 47.65625 37.796875 51.625 33 
Q 55.609375 28.21875 55.609375 21.1875 
Q 55.609375 10.40625 48.1875 4.484375 
Q 40.765625 -1.421875 27.09375 -1.421875 
Q 22.515625 -1.421875 17.65625 -0.515625 
Q 12.796875 0.390625 7.625 2.203125 
L 7.625 11.71875 
Q 11.71875 9.328125 16.59375 8.109375 
Q 21.484375 6.890625 26.8125 6.890625 
Q 36.078125 6.890625 40.9375 10.546875 
Q 45.796875 14.203125 45.796875 21.1875 
Q 45.796875 27.640625 41.28125 31.265625 
Q 36.765625 34.90625 28.71875 34.90625 
L 20.21875 34.90625 
L 20.21875 43.015625 
L 29.109375 43.015625 
Q 36.375 43.015625 40.234375 45.921875 
Q 44.09375 48.828125 44.09375 54.296875 
Q 44.09375 59.90625 40.109375 62.90625 
Q 36.140625 65.921875 28.71875 65.921875 
Q 24.65625 65.921875 20.015625 65.03125 
Q 15.375 64.15625 9.8125 62.3125 
L 9.8125 71.09375 
Q 15.4375 72.65625 20.34375 73.4375 
Q 25.25 74.21875 29.59375 74.21875 
Q 40.828125 74.21875 47.359375 69.109375 
Q 53.90625 64.015625 53.90625 55.328125 
Q 53.90625 49.265625 50.4375 45.09375 
Q 46.96875 40.921875 40.578125 39.3125 
z
" id="DejaVuSans-51"/>
      </defs>
      <g transform="translate(436.649926 329.598437)scale(0.1 -0.1)">
       <use xlink:href="#DejaVuSans-51"/>
       <use x="63.623047" xlink:href="#DejaVuSans-48"/>
       <use x="127.246094" xlink:href="#DejaVuSans-48"/>
      </g>
     </g>
    </g>
    <g id="xtick_5">
     <g id="line2d_9">
      <path clip-path="url(#p73873a1ad6)" d="M 556.470356 315 
L 556.470356 43.2 
" style="fill:none;stroke:#b0b0b0;stroke-linecap:square;stroke-width:0.8;"/>
     </g>
     <g id="line2d_10">
      <g>
       <use style="stroke:#000000;stroke-width:0.8;" x="556.470356" xlink:href="#me217941fe8" y="315"/>
      </g>
     </g>
     <g id="text_5">
      <!-- 400 -->
      <defs>
       <path d="M 37.796875 64.3125 
L 12.890625 25.390625 
L 37.796875 25.390625 
z
M 35.203125 72.90625 
L 47.609375 72.90625 
L 47.609375 25.390625 
L 58.015625 25.390625 
L 58.015625 17.1875 
L 47.609375 17.1875 
L 47.609375 0 
L 37.796875 0 
L 37.796875 17.1875 
L 4.890625 17.1875 
L 4.890625 26.703125 
z
" id="DejaVuSans-52"/>
      </defs>
      <g transform="translate(546.926606 329.598437)scale(0.1 -0.1)">
       <use xlink:href="#DejaVuSans-52"/>
       <use x="63.623047" xlink:href="#DejaVuSans-48"/>
       <use x="127.246094" xlink:href="#DejaVuSans-48"/>
      </g>
     </g>
    </g>
    <g id="text_6">
     <!-- epoch -->
     <defs>
      <path d="M 56.203125 29.59375 
L 56.203125 25.203125 
L 14.890625 25.203125 
Q 15.484375 15.921875 20.484375 11.0625 
Q 25.484375 6.203125 34.421875 6.203125 
Q 39.59375 6.203125 44.453125 7.46875 
Q 49.3125 8.734375 54.109375 11.28125 
L 54.109375 2.78125 
Q 49.265625 0.734375 44.1875 -0.34375 
Q 39.109375 -1.421875 33.890625 -1.421875 
Q 20.796875 -1.421875 13.15625 6.1875 
Q 5.515625 13.8125 5.515625 26.8125 
Q 5.515625 40.234375 12.765625 48.109375 
Q 20.015625 56 32.328125 56 
Q 43.359375 56 49.78125 48.890625 
Q 56.203125 41.796875 56.203125 29.59375 
z
M 47.21875 32.234375 
Q 47.125 39.59375 43.09375 43.984375 
Q 39.0625 48.390625 32.421875 48.390625 
Q 24.90625 48.390625 20.390625 44.140625 
Q 15.875 39.890625 15.1875 32.171875 
z
" id="DejaVuSans-101"/>
      <path d="M 18.109375 8.203125 
L 18.109375 -20.796875 
L 9.078125 -20.796875 
L 9.078125 54.6875 
L 18.109375 54.6875 
L 18.109375 46.390625 
Q 20.953125 51.265625 25.265625 53.625 
Q 29.59375 56 35.59375 56 
Q 45.5625 56 51.78125 48.09375 
Q 58.015625 40.1875 58.015625 27.296875 
Q 58.015625 14.40625 51.78125 6.484375 
Q 45.5625 -1.421875 35.59375 -1.421875 
Q 29.59375 -1.421875 25.265625 0.953125 
Q 20.953125 3.328125 18.109375 8.203125 
z
M 48.6875 27.296875 
Q 48.6875 37.203125 44.609375 42.84375 
Q 40.53125 48.484375 33.40625 48.484375 
Q 26.265625 48.484375 22.1875 42.84375 
Q 18.109375 37.203125 18.109375 27.296875 
Q 18.109375 17.390625 22.1875 11.75 
Q 26.265625 6.109375 33.40625 6.109375 
Q 40.53125 6.109375 44.609375 11.75 
Q 48.6875 17.390625 48.6875 27.296875 
z
" id="DejaVuSans-112"/>
      <path d="M 30.609375 48.390625 
Q 23.390625 48.390625 19.1875 42.75 
Q 14.984375 37.109375 14.984375 27.296875 
Q 14.984375 17.484375 19.15625 11.84375 
Q 23.34375 6.203125 30.609375 6.203125 
Q 37.796875 6.203125 41.984375 11.859375 
Q 46.1875 17.53125 46.1875 27.296875 
Q 46.1875 37.015625 41.984375 42.703125 
Q 37.796875 48.390625 30.609375 48.390625 
z
M 30.609375 56 
Q 42.328125 56 49.015625 48.375 
Q 55.71875 40.765625 55.71875 27.296875 
Q 55.71875 13.875 49.015625 6.21875 
Q 42.328125 -1.421875 30.609375 -1.421875 
Q 18.84375 -1.421875 12.171875 6.21875 
Q 5.515625 13.875 5.515625 27.296875 
Q 5.515625 40.765625 12.171875 48.375 
Q 18.84375 56 30.609375 56 
z
" id="DejaVuSans-111"/>
      <path d="M 48.78125 52.59375 
L 48.78125 44.1875 
Q 44.96875 46.296875 41.140625 47.34375 
Q 37.3125 48.390625 33.40625 48.390625 
Q 24.65625 48.390625 19.8125 42.84375 
Q 14.984375 37.3125 14.984375 27.296875 
Q 14.984375 17.28125 19.8125 11.734375 
Q 24.65625 6.203125 33.40625 6.203125 
Q 37.3125 6.203125 41.140625 7.25 
Q 44.96875 8.296875 48.78125 10.40625 
L 48.78125 2.09375 
Q 45.015625 0.34375 40.984375 -0.53125 
Q 36.96875 -1.421875 32.421875 -1.421875 
Q 20.0625 -1.421875 12.78125 6.34375 
Q 5.515625 14.109375 5.515625 27.296875 
Q 5.515625 40.671875 12.859375 48.328125 
Q 20.21875 56 33.015625 56 
Q 37.15625 56 41.109375 55.140625 
Q 45.0625 54.296875 48.78125 52.59375 
z
" id="DejaVuSans-99"/>
      <path d="M 54.890625 33.015625 
L 54.890625 0 
L 45.90625 0 
L 45.90625 32.71875 
Q 45.90625 40.484375 42.875 44.328125 
Q 39.84375 48.1875 33.796875 48.1875 
Q 26.515625 48.1875 22.3125 43.546875 
Q 18.109375 38.921875 18.109375 30.90625 
L 18.109375 0 
L 9.078125 0 
L 9.078125 75.984375 
L 18.109375 75.984375 
L 18.109375 46.1875 
Q 21.34375 51.125 25.703125 53.5625 
Q 30.078125 56 35.796875 56 
Q 45.21875 56 50.046875 50.171875 
Q 54.890625 44.34375 54.890625 33.015625 
z
" id="DejaVuSans-104"/>
     </defs>
     <g transform="translate(353.771875 343.276563)scale(0.1 -0.1)">
      <use xlink:href="#DejaVuSans-101"/>
      <use x="61.523438" xlink:href="#DejaVuSans-112"/>
      <use x="125" xlink:href="#DejaVuSans-111"/>
      <use x="186.181641" xlink:href="#DejaVuSans-99"/>
      <use x="241.162109" xlink:href="#DejaVuSans-104"/>
     </g>
    </g>
   </g>
   <g id="matplotlib.axis_2">
    <g id="ytick_1">
     <g id="line2d_11">
      <path clip-path="url(#p73873a1ad6)" d="M 90 274.400572 
L 648 274.400572 
" style="fill:none;stroke:#b0b0b0;stroke-linecap:square;stroke-width:0.8;"/>
     </g>
     <g id="line2d_12">
      <defs>
       <path d="M 0 0 
L -3.5 0 
" id="mca3acbf559" style="stroke:#000000;stroke-width:0.8;"/>
      </defs>
      <g>
       <use style="stroke:#000000;stroke-width:0.8;" x="90" xlink:href="#mca3acbf559" y="274.400572"/>
      </g>
     </g>
     <g id="text_7">
      <!-- 0.2 -->
      <defs>
       <path d="M 10.6875 12.40625 
L 21 12.40625 
L 21 0 
L 10.6875 0 
z
" id="DejaVuSans-46"/>
      </defs>
      <g transform="translate(67.096875 278.199791)scale(0.1 -0.1)">
       <use xlink:href="#DejaVuSans-48"/>
       <use x="63.623047" xlink:href="#DejaVuSans-46"/>
       <use x="95.410156" xlink:href="#DejaVuSans-50"/>
      </g>
     </g>
    </g>
    <g id="ytick_2">
     <g id="line2d_13">
      <path clip-path="url(#p73873a1ad6)" d="M 90 231.354027 
L 648 231.354027 
" style="fill:none;stroke:#b0b0b0;stroke-linecap:square;stroke-width:0.8;"/>
     </g>
     <g id="line2d_14">
      <g>
       <use style="stroke:#000000;stroke-width:0.8;" x="90" xlink:href="#mca3acbf559" y="231.354027"/>
      </g>
     </g>
     <g id="text_8">
      <!-- 0.4 -->
      <g transform="translate(67.096875 235.153246)scale(0.1 -0.1)">
       <use xlink:href="#DejaVuSans-48"/>
       <use x="63.623047" xlink:href="#DejaVuSans-46"/>
       <use x="95.410156" xlink:href="#DejaVuSans-52"/>
      </g>
     </g>
    </g>
    <g id="ytick_3">
     <g id="line2d_15">
      <path clip-path="url(#p73873a1ad6)" d="M 90 188.307482 
L 648 188.307482 
" style="fill:none;stroke:#b0b0b0;stroke-linecap:square;stroke-width:0.8;"/>
     </g>
     <g id="line2d_16">
      <g>
       <use style="stroke:#000000;stroke-width:0.8;" x="90" xlink:href="#mca3acbf559" y="188.307482"/>
      </g>
     </g>
     <g id="text_9">
      <!-- 0.6 -->
      <defs>
       <path d="M 33.015625 40.375 
Q 26.375 40.375 22.484375 35.828125 
Q 18.609375 31.296875 18.609375 23.390625 
Q 18.609375 15.53125 22.484375 10.953125 
Q 26.375 6.390625 33.015625 6.390625 
Q 39.65625 6.390625 43.53125 10.953125 
Q 47.40625 15.53125 47.40625 23.390625 
Q 47.40625 31.296875 43.53125 35.828125 
Q 39.65625 40.375 33.015625 40.375 
z
M 52.59375 71.296875 
L 52.59375 62.3125 
Q 48.875 64.0625 45.09375 64.984375 
Q 41.3125 65.921875 37.59375 65.921875 
Q 27.828125 65.921875 22.671875 59.328125 
Q 17.53125 52.734375 16.796875 39.40625 
Q 19.671875 43.65625 24.015625 45.921875 
Q 28.375 48.1875 33.59375 48.1875 
Q 44.578125 48.1875 50.953125 41.515625 
Q 57.328125 34.859375 57.328125 23.390625 
Q 57.328125 12.15625 50.6875 5.359375 
Q 44.046875 -1.421875 33.015625 -1.421875 
Q 20.359375 -1.421875 13.671875 8.265625 
Q 6.984375 17.96875 6.984375 36.375 
Q 6.984375 53.65625 15.1875 63.9375 
Q 23.390625 74.21875 37.203125 74.21875 
Q 40.921875 74.21875 44.703125 73.484375 
Q 48.484375 72.75 52.59375 71.296875 
z
" id="DejaVuSans-54"/>
      </defs>
      <g transform="translate(67.096875 192.106701)scale(0.1 -0.1)">
       <use xlink:href="#DejaVuSans-48"/>
       <use x="63.623047" xlink:href="#DejaVuSans-46"/>
       <use x="95.410156" xlink:href="#DejaVuSans-54"/>
      </g>
     </g>
    </g>
    <g id="ytick_4">
     <g id="line2d_17">
      <path clip-path="url(#p73873a1ad6)" d="M 90 145.260937 
L 648 145.260937 
" style="fill:none;stroke:#b0b0b0;stroke-linecap:square;stroke-width:0.8;"/>
     </g>
     <g id="line2d_18">
      <g>
       <use style="stroke:#000000;stroke-width:0.8;" x="90" xlink:href="#mca3acbf559" y="145.260937"/>
      </g>
     </g>
     <g id="text_10">
      <!-- 0.8 -->
      <defs>
       <path d="M 31.78125 34.625 
Q 24.75 34.625 20.71875 30.859375 
Q 16.703125 27.09375 16.703125 20.515625 
Q 16.703125 13.921875 20.71875 10.15625 
Q 24.75 6.390625 31.78125 6.390625 
Q 38.8125 6.390625 42.859375 10.171875 
Q 46.921875 13.96875 46.921875 20.515625 
Q 46.921875 27.09375 42.890625 30.859375 
Q 38.875 34.625 31.78125 34.625 
z
M 21.921875 38.8125 
Q 15.578125 40.375 12.03125 44.71875 
Q 8.5 49.078125 8.5 55.328125 
Q 8.5 64.0625 14.71875 69.140625 
Q 20.953125 74.21875 31.78125 74.21875 
Q 42.671875 74.21875 48.875 69.140625 
Q 55.078125 64.0625 55.078125 55.328125 
Q 55.078125 49.078125 51.53125 44.71875 
Q 48 40.375 41.703125 38.8125 
Q 48.828125 37.15625 52.796875 32.3125 
Q 56.78125 27.484375 56.78125 20.515625 
Q 56.78125 9.90625 50.3125 4.234375 
Q 43.84375 -1.421875 31.78125 -1.421875 
Q 19.734375 -1.421875 13.25 4.234375 
Q 6.78125 9.90625 6.78125 20.515625 
Q 6.78125 27.484375 10.78125 32.3125 
Q 14.796875 37.15625 21.921875 38.8125 
z
M 18.3125 54.390625 
Q 18.3125 48.734375 21.84375 45.5625 
Q 25.390625 42.390625 31.78125 42.390625 
Q 38.140625 42.390625 41.71875 45.5625 
Q 45.3125 48.734375 45.3125 54.390625 
Q 45.3125 60.0625 41.71875 63.234375 
Q 38.140625 66.40625 31.78125 66.40625 
Q 25.390625 66.40625 21.84375 63.234375 
Q 18.3125 60.0625 18.3125 54.390625 
z
" id="DejaVuSans-56"/>
      </defs>
      <g transform="translate(67.096875 149.060156)scale(0.1 -0.1)">
       <use xlink:href="#DejaVuSans-48"/>
       <use x="63.623047" xlink:href="#DejaVuSans-46"/>
       <use x="95.410156" xlink:href="#DejaVuSans-56"/>
      </g>
     </g>
    </g>
    <g id="ytick_5">
     <g id="line2d_19">
      <path clip-path="url(#p73873a1ad6)" d="M 90 102.214392 
L 648 102.214392 
" style="fill:none;stroke:#b0b0b0;stroke-linecap:square;stroke-width:0.8;"/>
     </g>
     <g id="line2d_20">
      <g>
       <use style="stroke:#000000;stroke-width:0.8;" x="90" xlink:href="#mca3acbf559" y="102.214392"/>
      </g>
     </g>
     <g id="text_11">
      <!-- 1.0 -->
      <g transform="translate(67.096875 106.013611)scale(0.1 -0.1)">
       <use xlink:href="#DejaVuSans-49"/>
       <use x="63.623047" xlink:href="#DejaVuSans-46"/>
       <use x="95.410156" xlink:href="#DejaVuSans-48"/>
      </g>
     </g>
    </g>
    <g id="ytick_6">
     <g id="line2d_21">
      <path clip-path="url(#p73873a1ad6)" d="M 90 59.167847 
L 648 59.167847 
" style="fill:none;stroke:#b0b0b0;stroke-linecap:square;stroke-width:0.8;"/>
     </g>
     <g id="line2d_22">
      <g>
       <use style="stroke:#000000;stroke-width:0.8;" x="90" xlink:href="#mca3acbf559" y="59.167847"/>
      </g>
     </g>
     <g id="text_12">
      <!-- 1.2 -->
      <g transform="translate(67.096875 62.967066)scale(0.1 -0.1)">
       <use xlink:href="#DejaVuSans-49"/>
       <use x="63.623047" xlink:href="#DejaVuSans-46"/>
       <use x="95.410156" xlink:href="#DejaVuSans-50"/>
      </g>
     </g>
    </g>
    <g id="text_13">
     <!-- loss -->
     <defs>
      <path d="M 9.421875 75.984375 
L 18.40625 75.984375 
L 18.40625 0 
L 9.421875 0 
z
" id="DejaVuSans-108"/>
      <path d="M 44.28125 53.078125 
L 44.28125 44.578125 
Q 40.484375 46.53125 36.375 47.5 
Q 32.28125 48.484375 27.875 48.484375 
Q 21.1875 48.484375 17.84375 46.4375 
Q 14.5 44.390625 14.5 40.28125 
Q 14.5 37.15625 16.890625 35.375 
Q 19.28125 33.59375 26.515625 31.984375 
L 29.59375 31.296875 
Q 39.15625 29.25 43.1875 25.515625 
Q 47.21875 21.78125 47.21875 15.09375 
Q 47.21875 7.46875 41.1875 3.015625 
Q 35.15625 -1.421875 24.609375 -1.421875 
Q 20.21875 -1.421875 15.453125 -0.5625 
Q 10.6875 0.296875 5.421875 2 
L 5.421875 11.28125 
Q 10.40625 8.6875 15.234375 7.390625 
Q 20.0625 6.109375 24.8125 6.109375 
Q 31.15625 6.109375 34.5625 8.28125 
Q 37.984375 10.453125 37.984375 14.40625 
Q 37.984375 18.0625 35.515625 20.015625 
Q 33.0625 21.96875 24.703125 23.78125 
L 21.578125 24.515625 
Q 13.234375 26.265625 9.515625 29.90625 
Q 5.8125 33.546875 5.8125 39.890625 
Q 5.8125 47.609375 11.28125 51.796875 
Q 16.75 56 26.8125 56 
Q 31.78125 56 36.171875 55.265625 
Q 40.578125 54.546875 44.28125 53.078125 
z
" id="DejaVuSans-115"/>
     </defs>
     <g transform="translate(61.017187 188.757812)rotate(-90)scale(0.1 -0.1)">
      <use xlink:href="#DejaVuSans-108"/>
      <use x="27.783203" xlink:href="#DejaVuSans-111"/>
      <use x="88.964844" xlink:href="#DejaVuSans-115"/>
      <use x="141.064453" xlink:href="#DejaVuSans-115"/>
     </g>
    </g>
   </g>
   <g id="line2d_23">
    <path clip-path="url(#p73873a1ad6)" d="M 115.363636 55.554545 
L 118.671937 76.339031 
L 119.774704 78.612817 
L 120.87747 82.357945 
L 121.980237 85.008836 
L 123.083004 88.885421 
L 124.185771 87.525503 
L 126.391304 93.052067 
L 127.494071 91.603127 
L 128.596838 95.792296 
L 129.699605 94.438439 
L 130.802372 98.495613 
L 131.905138 96.587445 
L 133.007905 101.748954 
L 134.110672 103.106304 
L 135.213439 102.71298 
L 136.316206 102.448558 
L 137.418972 108.362786 
L 138.521739 106.639807 
L 139.624506 108.214507 
L 140.727273 111.08436 
L 141.83004 111.012391 
L 142.932806 113.774168 
L 144.035573 115.261768 
L 145.13834 115.095036 
L 146.241107 122.332485 
L 147.343874 123.04683 
L 148.44664 126.720031 
L 149.549407 123.818686 
L 150.652174 130.774035 
L 152.857708 132.094548 
L 153.960474 136.352577 
L 156.166008 139.918803 
L 157.268775 138.781523 
L 158.371542 144.889821 
L 159.474308 144.179776 
L 160.577075 148.34589 
L 161.679842 151.123206 
L 162.782609 154.448706 
L 163.885375 156.760951 
L 164.988142 157.370077 
L 166.090909 159.772581 
L 167.193676 163.582322 
L 168.296443 168.739372 
L 169.399209 166.276772 
L 170.501976 172.378733 
L 172.70751 179.906706 
L 173.810277 182.65946 
L 174.913043 186.154125 
L 176.01581 188.148202 
L 177.118577 187.971897 
L 178.221344 193.275457 
L 179.324111 200.253526 
L 180.426877 198.80123 
L 181.529644 205.050903 
L 182.632411 206.054218 
L 183.735178 205.304783 
L 184.837945 205.617444 
L 185.940711 211.947195 
L 187.043478 212.785467 
L 189.249012 218.185367 
L 190.351779 220.376266 
L 191.454545 221.46031 
L 192.557312 224.784077 
L 193.660079 222.958363 
L 194.762846 225.690718 
L 195.865613 224.248768 
L 196.968379 227.332393 
L 198.071146 229.390414 
L 199.173913 233.306565 
L 200.27668 233.094896 
L 201.379447 233.322202 
L 202.482213 236.339371 
L 203.58498 236.787079 
L 204.687747 238.012427 
L 205.790514 238.302387 
L 206.893281 237.696778 
L 207.996047 239.699134 
L 209.098814 242.269062 
L 210.201581 241.30923 
L 211.304348 244.922813 
L 212.407115 246.23747 
L 213.509881 243.845517 
L 214.612648 243.475284 
L 215.715415 245.647665 
L 216.818182 247.387027 
L 217.920949 246.039678 
L 219.023715 247.541586 
L 220.126482 245.620374 
L 221.229249 250.7283 
L 222.332016 250.080596 
L 223.434783 252.997856 
L 224.537549 251.954185 
L 225.640316 250.3394 
L 226.743083 248.954041 
L 227.84585 250.901168 
L 228.948617 250.141395 
L 230.051383 254.954068 
L 231.15415 254.682606 
L 232.256917 256.555768 
L 233.359684 255.177215 
L 234.462451 254.877904 
L 235.565217 257.735676 
L 236.667984 254.531891 
L 237.770751 257.083965 
L 238.873518 257.134763 
L 239.976285 254.640462 
L 241.079051 256.884821 
L 242.181818 257.769241 
L 243.284585 255.441273 
L 244.387352 259.411336 
L 245.490119 261.486906 
L 246.592885 258.793543 
L 247.695652 260.10624 
L 248.798419 259.167949 
L 249.901186 264.062197 
L 251.003953 261.547556 
L 252.106719 259.834381 
L 253.209486 260.469426 
L 254.312253 259.609546 
L 255.41502 263.531597 
L 256.517787 261.574432 
L 257.620553 263.286198 
L 258.72332 260.835786 
L 259.826087 263.756016 
L 260.928854 261.814454 
L 262.031621 266.535573 
L 263.134387 265.411025 
L 264.237154 266.694561 
L 265.339921 266.087961 
L 266.442688 267.734554 
L 267.545455 266.691191 
L 268.648221 266.072778 
L 269.750988 266.036488 
L 270.853755 267.000815 
L 271.956522 269.843299 
L 273.059289 269.211318 
L 274.162055 266.678451 
L 275.264822 269.994389 
L 276.367589 268.41131 
L 277.470356 266.463946 
L 278.573123 267.485924 
L 279.675889 269.666826 
L 280.778656 269.184018 
L 281.881423 267.341949 
L 282.98419 269.877802 
L 284.086957 267.721412 
L 286.29249 272.817755 
L 287.395257 271.592067 
L 288.498024 270.754632 
L 289.600791 272.264212 
L 290.703557 271.946443 
L 291.806324 270.578417 
L 292.909091 271.708019 
L 294.011858 270.066272 
L 295.114625 274.095873 
L 296.217391 273.305835 
L 297.320158 273.583967 
L 298.422925 275.058155 
L 299.525692 273.377702 
L 300.628458 275.002337 
L 301.731225 274.667272 
L 302.833992 274.017973 
L 303.936759 275.714137 
L 305.039526 273.447073 
L 306.142292 274.732571 
L 307.245059 275.544727 
L 308.347826 274.778102 
L 309.450593 277.648381 
L 310.55336 275.80879 
L 311.656126 277.630018 
L 312.758893 276.137394 
L 313.86166 276.343572 
L 314.964427 276.903202 
L 316.067194 275.998628 
L 317.16996 277.69703 
L 318.272727 276.042465 
L 319.375494 278.590259 
L 320.478261 279.409037 
L 321.581028 275.803772 
L 322.683794 278.354736 
L 323.786561 277.102712 
L 324.889328 276.711583 
L 325.992095 279.262333 
L 327.094862 277.924861 
L 328.197628 279.407759 
L 329.300395 280.315344 
L 330.403162 280.664449 
L 331.505929 279.598555 
L 332.608696 279.293608 
L 333.711462 278.628842 
L 334.814229 282.099096 
L 335.916996 280.111742 
L 337.019763 277.613375 
L 338.12253 279.480921 
L 339.225296 280.640387 
L 340.328063 281.218811 
L 341.43083 281.340117 
L 342.533597 280.345382 
L 343.636364 281.084129 
L 344.73913 284.107541 
L 345.841897 282.02793 
L 346.944664 282.691311 
L 348.047431 281.150728 
L 349.150198 281.309757 
L 350.252964 283.12928 
L 351.355731 282.617328 
L 352.458498 283.168182 
L 353.561265 282.383258 
L 354.664032 282.249094 
L 355.766798 285.116258 
L 356.869565 280.036006 
L 357.972332 280.226938 
L 359.075099 282.444452 
L 360.177866 282.530818 
L 361.280632 284.805347 
L 362.383399 283.112422 
L 363.486166 285.012983 
L 364.588933 282.28395 
L 365.6917 283.789204 
L 366.794466 282.30776 
L 367.897233 286.124121 
L 370.102767 282.253109 
L 371.205534 281.11594 
L 372.3083 281.541147 
L 373.411067 284.278171 
L 374.513834 283.390161 
L 375.616601 284.664698 
L 376.719368 285.668144 
L 377.822134 284.913718 
L 378.924901 286.018832 
L 380.027668 286.086291 
L 381.130435 285.81651 
L 382.233202 287.114479 
L 383.335968 284.881426 
L 384.438735 287.104823 
L 385.541502 284.973542 
L 386.644269 285.279994 
L 387.747036 286.615915 
L 389.952569 284.611795 
L 391.055336 288.077535 
L 392.158103 285.466985 
L 393.26087 289.5898 
L 394.363636 284.942934 
L 395.466403 285.836242 
L 396.56917 285.672758 
L 397.671937 288.160155 
L 398.774704 288.742829 
L 399.87747 288.012846 
L 400.980237 286.427949 
L 402.083004 287.293816 
L 403.185771 287.993372 
L 404.288538 286.064555 
L 405.391304 285.703842 
L 406.494071 289.274398 
L 407.596838 287.248284 
L 408.699605 287.43567 
L 409.802372 288.053296 
L 410.905138 287.071888 
L 412.007905 289.002332 
L 413.110672 290.491224 
L 414.213439 289.134232 
L 415.316206 289.611248 
L 416.418972 288.176412 
L 417.521739 288.998373 
L 418.624506 287.076323 
L 419.727273 291.375555 
L 420.83004 287.657404 
L 421.932806 290.419512 
L 423.035573 290.354158 
L 424.13834 288.748697 
L 425.241107 287.822921 
L 426.343874 289.425459 
L 427.44664 290.498472 
L 428.549407 289.935051 
L 429.652174 291.902757 
L 430.754941 289.811847 
L 431.857708 291.08762 
L 432.960474 292.007753 
L 434.063241 291.521229 
L 435.166008 293.642689 
L 436.268775 289.489732 
L 438.474308 288.201501 
L 439.577075 292.77766 
L 440.679842 289.586528 
L 441.782609 291.1518 
L 442.885375 290.103 
L 443.988142 290.121306 
L 445.090909 291.210206 
L 446.193676 290.355158 
L 447.296443 289.357063 
L 448.399209 291.259503 
L 449.501976 288.140799 
L 450.604743 289.675236 
L 452.810277 288.929819 
L 453.913043 290.827146 
L 455.01581 290.833386 
L 456.118577 293.443682 
L 457.221344 293.535743 
L 458.324111 292.469401 
L 459.426877 289.688718 
L 460.529644 291.522911 
L 461.632411 293.801906 
L 462.735178 292.968868 
L 463.837945 292.770926 
L 464.940711 291.789538 
L 466.043478 291.05267 
L 467.146245 292.360812 
L 468.249012 292.716003 
L 469.351779 292.488291 
L 470.454545 293.536568 
L 471.557312 294.784457 
L 472.660079 292.855323 
L 473.762846 292.69979 
L 474.865613 292.43184 
L 475.968379 294.593793 
L 477.071146 292.99876 
L 478.173913 294.116871 
L 480.379447 291.924515 
L 481.482213 294.308039 
L 482.58498 292.320797 
L 483.687747 294.601375 
L 485.893281 292.958597 
L 486.996047 293.870902 
L 488.098814 291.870746 
L 489.201581 291.817738 
L 490.304348 293.796037 
L 491.407115 293.798105 
L 492.509881 292.741737 
L 493.612648 294.870099 
L 494.715415 294.762241 
L 495.818182 294.221729 
L 496.920949 295.144034 
L 498.023715 293.960676 
L 499.126482 295.824625 
L 500.229249 294.354985 
L 501.332016 294.094735 
L 502.434783 294.891466 
L 503.537549 294.30125 
L 504.640316 296.853508 
L 505.743083 294.041229 
L 506.84585 296.50896 
L 507.948617 296.279128 
L 509.051383 295.336893 
L 510.15415 294.871565 
L 511.256917 295.633522 
L 512.359684 295.088448 
L 513.462451 294.893695 
L 514.565217 296.075242 
L 515.667984 295.026461 
L 516.770751 294.61695 
L 517.873518 296.435726 
L 518.976285 295.512793 
L 520.079051 296.543126 
L 521.181818 297.019616 
L 522.284585 295.538908 
L 523.387352 296.924973 
L 524.490119 293.985947 
L 525.592885 295.510704 
L 526.695652 296.591298 
L 527.798419 297.254433 
L 528.901186 296.119286 
L 530.003953 295.318558 
L 531.106719 297.580709 
L 532.209486 297.912336 
L 533.312253 295.756154 
L 534.41502 297.45836 
L 535.517787 298.076364 
L 536.620553 297.343106 
L 537.72332 296.12814 
L 538.826087 299.032928 
L 539.928854 298.6917 
L 541.031621 298.73396 
L 542.134387 296.306233 
L 543.237154 298.125216 
L 544.339921 295.348714 
L 545.442688 297.003584 
L 546.545455 296.401289 
L 547.648221 297.658843 
L 548.750988 297.176026 
L 549.853755 297.958182 
L 550.956522 296.428167 
L 552.059289 296.520419 
L 553.162055 297.534436 
L 554.264822 297.321005 
L 555.367589 296.571402 
L 556.470356 297.061347 
L 557.573123 296.026717 
L 558.675889 296.140017 
L 559.778656 298.544326 
L 560.881423 297.939679 
L 561.98419 298.436192 
L 563.086957 299.68794 
L 564.189723 298.292813 
L 565.29249 299.147354 
L 566.395257 299.081168 
L 567.498024 294.999334 
L 568.600791 297.747463 
L 569.703557 298.69001 
L 570.806324 298.869959 
L 571.909091 295.88265 
L 573.011858 297.724825 
L 574.114625 297.675364 
L 575.217391 297.157865 
L 576.320158 299.578328 
L 577.422925 298.486094 
L 578.525692 297.597788 
L 579.628458 296.867803 
L 580.731225 298.200821 
L 581.833992 299.849528 
L 582.936759 299.686096 
L 584.039526 297.916638 
L 585.142292 299.584711 
L 586.245059 297.708944 
L 587.347826 301.407713 
L 588.450593 300.19275 
L 589.55336 299.852908 
L 590.656126 299.256598 
L 591.758893 300.705921 
L 592.86166 299.879319 
L 593.964427 300.376488 
L 595.067194 298.534836 
L 596.16996 298.106973 
L 597.272727 299.277096 
L 598.375494 297.659724 
L 599.478261 296.344829 
L 600.581028 299.473313 
L 601.683794 298.719202 
L 602.786561 299.439942 
L 603.889328 297.011343 
L 604.992095 300.812199 
L 606.094862 299.942597 
L 607.197628 302.583918 
L 608.300395 300.236343 
L 609.403162 299.769777 
L 610.505929 300.792958 
L 611.608696 299.562203 
L 612.711462 297.341896 
L 613.814229 300.896418 
L 614.916996 297.288413 
L 616.019763 298.560093 
L 617.12253 300.469117 
L 618.225296 300.302707 
L 619.328063 298.941173 
L 620.43083 302.645455 
L 621.533597 301.127446 
L 622.636364 299.856432 
L 622.636364 299.856432 
" style="fill:none;stroke:#1f77b4;stroke-linecap:square;stroke-width:0.5;"/>
   </g>
   <g id="line2d_24">
    <path clip-path="url(#p73873a1ad6)" d="M 115.363636 57.635712 
L 116.466403 62.752087 
L 117.56917 67.320005 
L 118.671937 73.525661 
L 119.774704 74.566971 
L 120.87747 76.979548 
L 121.980237 76.681515 
L 123.083004 79.102886 
L 124.185771 81.060084 
L 125.288538 81.8692 
L 126.391304 85.28861 
L 127.494071 85.142189 
L 129.699605 88.110078 
L 130.802372 88.449546 
L 131.905138 90.086456 
L 133.007905 88.526109 
L 134.110672 90.970198 
L 135.213439 92.292423 
L 136.316206 94.083609 
L 137.418972 94.926749 
L 138.521739 96.836327 
L 139.624506 99.034007 
L 140.727273 97.962241 
L 141.83004 100.967836 
L 142.932806 103.431101 
L 144.035573 104.719787 
L 145.13834 104.983868 
L 146.241107 108.324166 
L 147.343874 108.528868 
L 148.44664 110.725087 
L 149.549407 115.842458 
L 150.652174 116.032258 
L 151.754941 118.347291 
L 152.857708 119.630466 
L 153.960474 121.552993 
L 155.063241 124.499917 
L 156.166008 129.414168 
L 157.268775 127.467719 
L 158.371542 133.031293 
L 159.474308 130.569402 
L 160.577075 132.810223 
L 161.679842 138.369577 
L 162.782609 138.013608 
L 163.885375 140.622987 
L 166.090909 148.312706 
L 167.193676 150.394201 
L 168.296443 154.997678 
L 169.399209 154.086778 
L 170.501976 157.792461 
L 171.604743 159.023503 
L 172.70751 160.973583 
L 173.810277 163.828645 
L 174.913043 166.108977 
L 176.01581 172.015477 
L 177.118577 172.987527 
L 178.221344 173.258054 
L 179.324111 177.566536 
L 180.426877 180.353509 
L 181.529644 181.213071 
L 182.632411 181.02646 
L 183.735178 186.410887 
L 184.837945 190.442578 
L 185.940711 190.230365 
L 187.043478 193.632098 
L 188.146245 193.049365 
L 189.249012 198.643739 
L 190.351779 199.282118 
L 191.454545 199.576818 
L 193.660079 205.710053 
L 194.762846 204.599692 
L 195.865613 204.791893 
L 196.968379 208.406054 
L 198.071146 208.745602 
L 199.173913 208.244287 
L 201.379447 213.75784 
L 202.482213 215.111261 
L 203.58498 211.27833 
L 204.687747 211.270245 
L 205.790514 217.347115 
L 206.893281 216.504658 
L 207.996047 212.188675 
L 209.098814 216.51295 
L 210.201581 216.123996 
L 211.304348 221.644389 
L 212.407115 220.044006 
L 213.509881 222.076448 
L 214.612648 221.968782 
L 215.715415 223.29014 
L 216.818182 224.115993 
L 217.920949 224.097571 
L 219.023715 226.306305 
L 220.126482 222.248213 
L 221.229249 223.011132 
L 222.332016 224.789383 
L 223.434783 224.372828 
L 224.537549 227.937041 
L 225.640316 229.18627 
L 226.743083 223.903058 
L 227.84585 226.574131 
L 228.948617 228.287127 
L 230.051383 229.454623 
L 231.15415 229.685197 
L 232.256917 230.991529 
L 233.359684 232.041335 
L 234.462451 231.821276 
L 235.565217 230.072723 
L 236.667984 227.464969 
L 237.770751 232.383442 
L 238.873518 229.890212 
L 239.976285 228.146374 
L 241.079051 233.104856 
L 242.181818 228.502496 
L 243.284585 234.759026 
L 244.387352 230.488834 
L 245.490119 228.954636 
L 246.592885 232.925967 
L 247.695652 233.991348 
L 248.798419 234.04213 
L 249.901186 232.896142 
L 251.003953 233.290056 
L 252.106719 234.523456 
L 253.209486 236.578825 
L 254.312253 232.171169 
L 255.41502 233.36101 
L 256.517787 235.2218 
L 257.620553 235.449184 
L 258.72332 235.968888 
L 259.826087 237.411143 
L 260.928854 235.044551 
L 262.031621 236.757003 
L 263.134387 232.465148 
L 264.237154 235.981538 
L 265.339921 236.655022 
L 266.442688 238.317001 
L 267.545455 237.459883 
L 268.648221 238.00222 
L 269.750988 236.904778 
L 270.853755 238.965092 
L 271.956522 238.728179 
L 273.059289 235.172372 
L 274.162055 235.816692 
L 275.264822 236.30591 
L 276.367589 239.91316 
L 277.470356 239.411308 
L 278.573123 241.303041 
L 279.675889 238.695788 
L 280.778656 240.239908 
L 281.881423 238.913932 
L 282.98419 240.785525 
L 284.086957 238.474694 
L 285.189723 241.724797 
L 286.29249 241.109389 
L 287.395257 242.004913 
L 288.498024 239.458682 
L 289.600791 241.921357 
L 290.703557 239.843436 
L 291.806324 241.296073 
L 292.909091 240.309611 
L 294.011858 240.299479 
L 295.114625 238.464445 
L 296.217391 241.245975 
L 297.320158 243.300427 
L 298.422925 241.305785 
L 299.525692 240.811051 
L 300.628458 242.611125 
L 301.731225 237.194078 
L 302.833992 240.466969 
L 303.936759 241.507253 
L 305.039526 240.907785 
L 306.142292 242.180141 
L 307.245059 245.354605 
L 308.347826 240.812342 
L 309.450593 240.063068 
L 310.55336 241.355024 
L 311.656126 244.375968 
L 312.758893 242.189673 
L 313.86166 242.517854 
L 314.964427 242.724941 
L 316.067194 244.713725 
L 317.16996 241.300467 
L 318.272727 241.9327 
L 319.375494 245.449773 
L 321.581028 240.469703 
L 322.683794 242.684392 
L 323.786561 241.418813 
L 324.889328 241.716795 
L 325.992095 239.163742 
L 327.094862 241.430488 
L 328.197628 241.366409 
L 329.300395 240.752587 
L 330.403162 238.100603 
L 331.505929 242.354292 
L 332.608696 244.129795 
L 333.711462 241.15347 
L 334.814229 245.431565 
L 335.916996 243.466654 
L 337.019763 240.992108 
L 338.12253 247.347572 
L 339.225296 245.636536 
L 340.328063 243.054601 
L 341.43083 244.043248 
L 342.533597 245.890036 
L 343.636364 244.360247 
L 344.73913 243.476399 
L 345.841897 243.313743 
L 348.047431 246.33761 
L 349.150198 244.278803 
L 350.252964 246.916264 
L 351.355731 245.410107 
L 353.561265 245.503503 
L 354.664032 242.850378 
L 355.766798 246.317343 
L 356.869565 243.498815 
L 359.075099 247.546966 
L 360.177866 244.844939 
L 361.280632 248.048485 
L 362.383399 247.417605 
L 363.486166 245.225496 
L 364.588933 242.010863 
L 365.6917 241.59512 
L 366.794466 242.963201 
L 367.897233 244.766099 
L 369 244.706465 
L 370.102767 246.106559 
L 371.205534 245.164018 
L 372.3083 244.383859 
L 373.411067 242.855512 
L 374.513834 245.757875 
L 375.616601 250.136185 
L 376.719368 243.89328 
L 377.822134 242.852367 
L 378.924901 247.768785 
L 380.027668 244.021115 
L 381.130435 249.004606 
L 382.233202 249.073077 
L 383.335968 246.310054 
L 384.438735 245.749314 
L 385.541502 243.139342 
L 386.644269 244.024524 
L 387.747036 244.754888 
L 388.849802 246.05064 
L 389.952569 247.688975 
L 391.055336 248.107448 
L 392.158103 248.912137 
L 393.26087 244.472584 
L 394.363636 248.419348 
L 395.466403 242.163367 
L 396.56917 242.623265 
L 397.671937 242.541735 
L 398.774704 238.938836 
L 399.87747 243.669861 
L 400.980237 241.751915 
L 402.083004 251.334069 
L 403.185771 247.275094 
L 404.288538 246.035831 
L 405.391304 245.165208 
L 406.494071 249.424944 
L 407.596838 247.909585 
L 408.699605 245.091632 
L 409.802372 245.36019 
L 410.905138 242.443922 
L 412.007905 244.384399 
L 413.110672 248.5695 
L 414.213439 244.868717 
L 415.316206 244.77245 
L 416.418972 245.832012 
L 417.521739 247.2396 
L 418.624506 245.672626 
L 419.727273 246.72976 
L 420.83004 245.942923 
L 421.932806 246.496174 
L 423.035573 242.096169 
L 424.13834 244.35313 
L 425.241107 250.374978 
L 426.343874 243.433453 
L 427.44664 245.837353 
L 428.549407 246.377757 
L 429.652174 245.409219 
L 430.754941 245.155626 
L 431.857708 249.798858 
L 434.063241 244.403028 
L 435.166008 246.983273 
L 436.268775 243.810896 
L 437.371542 245.997258 
L 438.474308 247.729421 
L 439.577075 247.850997 
L 440.679842 244.60799 
L 441.782609 246.165678 
L 442.885375 248.750667 
L 443.988142 247.246346 
L 445.090909 244.68884 
L 446.193676 247.503352 
L 447.296443 244.499213 
L 448.399209 246.110643 
L 449.501976 250.222644 
L 450.604743 247.229425 
L 451.70751 243.841422 
L 452.810277 246.873523 
L 453.913043 248.850414 
L 455.01581 246.283057 
L 456.118577 248.386056 
L 457.221344 244.39073 
L 458.324111 244.556106 
L 459.426877 245.198363 
L 460.529644 244.947779 
L 461.632411 245.202328 
L 462.735178 246.771294 
L 463.837945 249.124466 
L 464.940711 247.477616 
L 466.043478 243.447846 
L 467.146245 244.896319 
L 468.249012 245.495091 
L 469.351779 241.912968 
L 470.454545 242.221244 
L 471.557312 243.708224 
L 472.660079 244.540588 
L 473.762846 245.619676 
L 474.865613 245.162689 
L 475.968379 250.967032 
L 477.071146 241.9853 
L 478.173913 246.268059 
L 479.27668 242.672847 
L 480.379447 247.451858 
L 481.482213 245.625757 
L 482.58498 245.83091 
L 483.687747 247.072878 
L 484.790514 243.720607 
L 485.893281 250.987548 
L 486.996047 246.998423 
L 488.098814 246.327477 
L 489.201581 247.35446 
L 490.304348 247.037269 
L 491.407115 244.314178 
L 492.509881 247.299862 
L 493.612648 245.518174 
L 494.715415 242.513931 
L 495.818182 244.858789 
L 496.920949 246.549517 
L 498.023715 247.910743 
L 499.126482 248.63059 
L 500.229249 245.990559 
L 501.332016 244.180786 
L 502.434783 246.02962 
L 503.537549 242.243633 
L 504.640316 244.785242 
L 505.743083 244.891734 
L 506.84585 245.607177 
L 507.948617 250.571744 
L 509.051383 246.100493 
L 510.15415 247.905306 
L 511.256917 248.045263 
L 512.359684 245.114366 
L 513.462451 247.991156 
L 514.565217 248.10856 
L 515.667984 242.952063 
L 516.770751 246.632526 
L 517.873518 245.419079 
L 518.976285 246.445762 
L 520.079051 244.467921 
L 521.181818 247.356057 
L 523.387352 246.174727 
L 524.490119 240.87284 
L 525.592885 242.880979 
L 526.695652 239.461194 
L 527.798419 244.444967 
L 528.901186 244.557078 
L 530.003953 244.3699 
L 531.106719 242.363853 
L 532.209486 248.844166 
L 533.312253 248.571516 
L 534.41502 247.758886 
L 535.517787 243.860206 
L 537.72332 247.116315 
L 538.826087 244.206608 
L 539.928854 245.500418 
L 541.031621 243.276681 
L 542.134387 245.146719 
L 543.237154 246.532509 
L 544.339921 242.325417 
L 545.442688 246.290447 
L 546.545455 240.63223 
L 547.648221 246.697105 
L 548.750988 247.191041 
L 549.853755 244.690996 
L 550.956522 246.814343 
L 552.059289 247.463132 
L 553.162055 244.595733 
L 554.264822 245.856665 
L 555.367589 246.512439 
L 556.470356 242.19318 
L 557.573123 244.411479 
L 558.675889 247.521815 
L 559.778656 242.853355 
L 560.881423 241.359248 
L 561.98419 246.225335 
L 563.086957 248.662512 
L 564.189723 242.771919 
L 565.29249 245.763424 
L 566.395257 247.24214 
L 567.498024 243.327535 
L 568.600791 247.928957 
L 569.703557 248.27808 
L 570.806324 244.839335 
L 571.909091 242.930642 
L 573.011858 244.816969 
L 574.114625 242.368075 
L 575.217391 245.394244 
L 576.320158 246.319231 
L 577.422925 246.215563 
L 578.525692 244.712842 
L 579.628458 245.10887 
L 580.731225 243.907498 
L 581.833992 247.800936 
L 582.936759 240.115052 
L 585.142292 247.478755 
L 586.245059 248.386192 
L 587.347826 243.956843 
L 588.450593 243.391174 
L 589.55336 245.151622 
L 590.656126 244.372219 
L 591.758893 247.12468 
L 592.86166 244.129523 
L 593.964427 247.002004 
L 595.067194 243.577231 
L 596.16996 244.910612 
L 597.272727 245.831387 
L 598.375494 242.694587 
L 599.478261 242.477592 
L 601.683794 244.189257 
L 602.786561 245.632655 
L 603.889328 245.189929 
L 604.992095 244.235712 
L 606.094862 246.715823 
L 607.197628 245.74185 
L 608.300395 236.75101 
L 609.403162 246.858232 
L 610.505929 243.301735 
L 611.608696 243.16469 
L 612.711462 242.235521 
L 613.814229 245.46093 
L 614.916996 242.601895 
L 616.019763 244.165879 
L 617.12253 242.150924 
L 618.225296 246.946972 
L 619.328063 243.716716 
L 620.43083 248.383119 
L 621.533597 245.092954 
L 622.636364 243.806497 
L 622.636364 243.806497 
" style="fill:none;stroke:#ff7f0e;stroke-linecap:square;stroke-width:0.5;"/>
   </g>
   <g id="patch_3">
    <path d="M 90 315 
L 90 43.2 
" style="fill:none;stroke:#000000;stroke-linecap:square;stroke-linejoin:miter;stroke-width:0.8;"/>
   </g>
   <g id="patch_4">
    <path d="M 648 315 
L 648 43.2 
" style="fill:none;stroke:#000000;stroke-linecap:square;stroke-linejoin:miter;stroke-width:0.8;"/>
   </g>
   <g id="patch_5">
    <path d="M 90 315 
L 648 315 
" style="fill:none;stroke:#000000;stroke-linecap:square;stroke-linejoin:miter;stroke-width:0.8;"/>
   </g>
   <g id="patch_6">
    <path d="M 90 43.2 
L 648 43.2 
" style="fill:none;stroke:#000000;stroke-linecap:square;stroke-linejoin:miter;stroke-width:0.8;"/>
   </g>
   <g id="text_14">
    <!-- loss -->
    <g transform="translate(357.410625 37.2)scale(0.12 -0.12)">
     <use xlink:href="#DejaVuSans-108"/>
     <use x="27.783203" xlink:href="#DejaVuSans-111"/>
     <use x="88.964844" xlink:href="#DejaVuSans-115"/>
     <use x="141.064453" xlink:href="#DejaVuSans-115"/>
    </g>
   </g>
   <g id="legend_1">
    <g id="patch_7">
     <path d="M 568.846875 80.55625 
L 641 80.55625 
Q 643 80.55625 643 78.55625 
L 643 50.2 
Q 643 48.2 641 48.2 
L 568.846875 48.2 
Q 566.846875 48.2 566.846875 50.2 
L 566.846875 78.55625 
Q 566.846875 80.55625 568.846875 80.55625 
z
" style="fill:#ffffff;opacity:0.8;stroke:#cccccc;stroke-linejoin:miter;"/>
    </g>
    <g id="line2d_25">
     <path d="M 570.846875 56.298437 
L 590.846875 56.298437 
" style="fill:none;stroke:#1f77b4;stroke-linecap:square;stroke-width:0.5;"/>
    </g>
    <g id="line2d_26"/>
    <g id="text_15">
     <!-- train -->
     <defs>
      <path d="M 18.3125 70.21875 
L 18.3125 54.6875 
L 36.8125 54.6875 
L 36.8125 47.703125 
L 18.3125 47.703125 
L 18.3125 18.015625 
Q 18.3125 11.328125 20.140625 9.421875 
Q 21.96875 7.515625 27.59375 7.515625 
L 36.8125 7.515625 
L 36.8125 0 
L 27.59375 0 
Q 17.1875 0 13.234375 3.875 
Q 9.28125 7.765625 9.28125 18.015625 
L 9.28125 47.703125 
L 2.6875 47.703125 
L 2.6875 54.6875 
L 9.28125 54.6875 
L 9.28125 70.21875 
z
" id="DejaVuSans-116"/>
      <path d="M 41.109375 46.296875 
Q 39.59375 47.171875 37.8125 47.578125 
Q 36.03125 48 33.890625 48 
Q 26.265625 48 22.1875 43.046875 
Q 18.109375 38.09375 18.109375 28.8125 
L 18.109375 0 
L 9.078125 0 
L 9.078125 54.6875 
L 18.109375 54.6875 
L 18.109375 46.1875 
Q 20.953125 51.171875 25.484375 53.578125 
Q 30.03125 56 36.53125 56 
Q 37.453125 56 38.578125 55.875 
Q 39.703125 55.765625 41.0625 55.515625 
z
" id="DejaVuSans-114"/>
      <path d="M 34.28125 27.484375 
Q 23.390625 27.484375 19.1875 25 
Q 14.984375 22.515625 14.984375 16.5 
Q 14.984375 11.71875 18.140625 8.90625 
Q 21.296875 6.109375 26.703125 6.109375 
Q 34.1875 6.109375 38.703125 11.40625 
Q 43.21875 16.703125 43.21875 25.484375 
L 43.21875 27.484375 
z
M 52.203125 31.203125 
L 52.203125 0 
L 43.21875 0 
L 43.21875 8.296875 
Q 40.140625 3.328125 35.546875 0.953125 
Q 30.953125 -1.421875 24.3125 -1.421875 
Q 15.921875 -1.421875 10.953125 3.296875 
Q 6 8.015625 6 15.921875 
Q 6 25.140625 12.171875 29.828125 
Q 18.359375 34.515625 30.609375 34.515625 
L 43.21875 34.515625 
L 43.21875 35.40625 
Q 43.21875 41.609375 39.140625 45 
Q 35.0625 48.390625 27.6875 48.390625 
Q 23 48.390625 18.546875 47.265625 
Q 14.109375 46.140625 10.015625 43.890625 
L 10.015625 52.203125 
Q 14.9375 54.109375 19.578125 55.046875 
Q 24.21875 56 28.609375 56 
Q 40.484375 56 46.34375 49.84375 
Q 52.203125 43.703125 52.203125 31.203125 
z
" id="DejaVuSans-97"/>
      <path d="M 9.421875 54.6875 
L 18.40625 54.6875 
L 18.40625 0 
L 9.421875 0 
z
M 9.421875 75.984375 
L 18.40625 75.984375 
L 18.40625 64.59375 
L 9.421875 64.59375 
z
" id="DejaVuSans-105"/>
      <path d="M 54.890625 33.015625 
L 54.890625 0 
L 45.90625 0 
L 45.90625 32.71875 
Q 45.90625 40.484375 42.875 44.328125 
Q 39.84375 48.1875 33.796875 48.1875 
Q 26.515625 48.1875 22.3125 43.546875 
Q 18.109375 38.921875 18.109375 30.90625 
L 18.109375 0 
L 9.078125 0 
L 9.078125 54.6875 
L 18.109375 54.6875 
L 18.109375 46.1875 
Q 21.34375 51.125 25.703125 53.5625 
Q 30.078125 56 35.796875 56 
Q 45.21875 56 50.046875 50.171875 
Q 54.890625 44.34375 54.890625 33.015625 
z
" id="DejaVuSans-110"/>
     </defs>
     <g transform="translate(598.846875 59.798437)scale(0.1 -0.1)">
      <use xlink:href="#DejaVuSans-116"/>
      <use x="39.208984" xlink:href="#DejaVuSans-114"/>
      <use x="80.322266" xlink:href="#DejaVuSans-97"/>
      <use x="141.601562" xlink:href="#DejaVuSans-105"/>
      <use x="169.384766" xlink:href="#DejaVuSans-110"/>
     </g>
    </g>
    <g id="line2d_27">
     <path d="M 570.846875 70.976562 
L 590.846875 70.976562 
" style="fill:none;stroke:#ff7f0e;stroke-linecap:square;stroke-width:0.5;"/>
    </g>
    <g id="line2d_28"/>
    <g id="text_16">
     <!-- validate -->
     <defs>
      <path d="M 2.984375 54.6875 
L 12.5 54.6875 
L 29.59375 8.796875 
L 46.6875 54.6875 
L 56.203125 54.6875 
L 35.6875 0 
L 23.484375 0 
z
" id="DejaVuSans-118"/>
      <path d="M 45.40625 46.390625 
L 45.40625 75.984375 
L 54.390625 75.984375 
L 54.390625 0 
L 45.40625 0 
L 45.40625 8.203125 
Q 42.578125 3.328125 38.25 0.953125 
Q 33.9375 -1.421875 27.875 -1.421875 
Q 17.96875 -1.421875 11.734375 6.484375 
Q 5.515625 14.40625 5.515625 27.296875 
Q 5.515625 40.1875 11.734375 48.09375 
Q 17.96875 56 27.875 56 
Q 33.9375 56 38.25 53.625 
Q 42.578125 51.265625 45.40625 46.390625 
z
M 14.796875 27.296875 
Q 14.796875 17.390625 18.875 11.75 
Q 22.953125 6.109375 30.078125 6.109375 
Q 37.203125 6.109375 41.296875 11.75 
Q 45.40625 17.390625 45.40625 27.296875 
Q 45.40625 37.203125 41.296875 42.84375 
Q 37.203125 48.484375 30.078125 48.484375 
Q 22.953125 48.484375 18.875 42.84375 
Q 14.796875 37.203125 14.796875 27.296875 
z
" id="DejaVuSans-100"/>
     </defs>
     <g transform="translate(598.846875 74.476562)scale(0.1 -0.1)">
      <use xlink:href="#DejaVuSans-118"/>
      <use x="59.179688" xlink:href="#DejaVuSans-97"/>
      <use x="120.458984" xlink:href="#DejaVuSans-108"/>
      <use x="148.242188" xlink:href="#DejaVuSans-105"/>
      <use x="176.025391" xlink:href="#DejaVuSans-100"/>
      <use x="239.501953" xlink:href="#DejaVuSans-97"/>
      <use x="300.78125" xlink:href="#DejaVuSans-116"/>
      <use x="339.990234" xlink:href="#DejaVuSans-101"/>
     </g>
    </g>
   </g>
  </g>
 </g>
 <defs>
  <clipPath id="p73873a1ad6">
   <rect height="271.8" width="558" x="90" y="43.2"/>
  </clipPath>
 </defs>
</svg>
