<?xml version="1.0" encoding="utf-8" standalone="no"?>
<!DOCTYPE svg PUBLIC "-//W3C//DTD SVG 1.1//EN"
  "http://www.w3.org/Graphics/SVG/1.1/DTD/svg11.dtd">
<!-- Created with matplotlib (https://matplotlib.org/) -->
<svg height="360pt" version="1.1" viewBox="0 0 720 360" width="720pt" xmlns="http://www.w3.org/2000/svg" xmlns:xlink="http://www.w3.org/1999/xlink">
 <defs>
  <style type="text/css">
*{stroke-linecap:butt;stroke-linejoin:round;}
  </style>
 </defs>
 <g id="figure_1">
  <g id="patch_1">
   <path d="M 0 360 
L 720 360 
L 720 0 
L 0 0 
z
" style="fill:#ffffff;"/>
  </g>
  <g id="axes_1">
   <g id="patch_2">
    <path d="M 90 315 
L 648 315 
L 648 43.2 
L 90 43.2 
z
" style="fill:#ffffff;"/>
   </g>
   <g id="matplotlib.axis_1">
    <g id="xtick_1">
     <g id="line2d_1">
      <path clip-path="url(#pe2c4cbcc96)" d="M 115.363636 315 
L 115.363636 43.2 
" style="fill:none;stroke:#b0b0b0;stroke-linecap:square;stroke-width:0.8;"/>
     </g>
     <g id="line2d_2">
      <defs>
       <path d="M 0 0 
L 0 3.5 
" id="m813dcb5a9e" style="stroke:#000000;stroke-width:0.8;"/>
      </defs>
      <g>
       <use style="stroke:#000000;stroke-width:0.8;" x="115.363636" xlink:href="#m813dcb5a9e" y="315"/>
      </g>
     </g>
     <g id="text_1">
      <!-- 0 -->
      <defs>
       <path d="M 31.78125 66.40625 
Q 24.171875 66.40625 20.328125 58.90625 
Q 16.5 51.421875 16.5 36.375 
Q 16.5 21.390625 20.328125 13.890625 
Q 24.171875 6.390625 31.78125 6.390625 
Q 39.453125 6.390625 43.28125 13.890625 
Q 47.125 21.390625 47.125 36.375 
Q 47.125 51.421875 43.28125 58.90625 
Q 39.453125 66.40625 31.78125 66.40625 
z
M 31.78125 74.21875 
Q 44.046875 74.21875 50.515625 64.515625 
Q 56.984375 54.828125 56.984375 36.375 
Q 56.984375 17.96875 50.515625 8.265625 
Q 44.046875 -1.421875 31.78125 -1.421875 
Q 19.53125 -1.421875 13.0625 8.265625 
Q 6.59375 17.96875 6.59375 36.375 
Q 6.59375 54.828125 13.0625 64.515625 
Q 19.53125 74.21875 31.78125 74.21875 
z
" id="DejaVuSans-48"/>
      </defs>
      <g transform="translate(112.182386 329.598437)scale(0.1 -0.1)">
       <use xlink:href="#DejaVuSans-48"/>
      </g>
     </g>
    </g>
    <g id="xtick_2">
     <g id="line2d_3">
      <path clip-path="url(#pe2c4cbcc96)" d="M 178.535832 315 
L 178.535832 43.2 
" style="fill:none;stroke:#b0b0b0;stroke-linecap:square;stroke-width:0.8;"/>
     </g>
     <g id="line2d_4">
      <g>
       <use style="stroke:#000000;stroke-width:0.8;" x="178.535832" xlink:href="#m813dcb5a9e" y="315"/>
      </g>
     </g>
     <g id="text_2">
      <!-- 100 -->
      <defs>
       <path d="M 12.40625 8.296875 
L 28.515625 8.296875 
L 28.515625 63.921875 
L 10.984375 60.40625 
L 10.984375 69.390625 
L 28.421875 72.90625 
L 38.28125 72.90625 
L 38.28125 8.296875 
L 54.390625 8.296875 
L 54.390625 0 
L 12.40625 0 
z
" id="DejaVuSans-49"/>
      </defs>
      <g transform="translate(168.992082 329.598437)scale(0.1 -0.1)">
       <use xlink:href="#DejaVuSans-49"/>
       <use x="63.623047" xlink:href="#DejaVuSans-48"/>
       <use x="127.246094" xlink:href="#DejaVuSans-48"/>
      </g>
     </g>
    </g>
    <g id="xtick_3">
     <g id="line2d_5">
      <path clip-path="url(#pe2c4cbcc96)" d="M 241.708027 315 
L 241.708027 43.2 
" style="fill:none;stroke:#b0b0b0;stroke-linecap:square;stroke-width:0.8;"/>
     </g>
     <g id="line2d_6">
      <g>
       <use style="stroke:#000000;stroke-width:0.8;" x="241.708027" xlink:href="#m813dcb5a9e" y="315"/>
      </g>
     </g>
     <g id="text_3">
      <!-- 200 -->
      <defs>
       <path d="M 19.1875 8.296875 
L 53.609375 8.296875 
L 53.609375 0 
L 7.328125 0 
L 7.328125 8.296875 
Q 12.9375 14.109375 22.625 23.890625 
Q 32.328125 33.6875 34.8125 36.53125 
Q 39.546875 41.84375 41.421875 45.53125 
Q 43.3125 49.21875 43.3125 52.78125 
Q 43.3125 58.59375 39.234375 62.25 
Q 35.15625 65.921875 28.609375 65.921875 
Q 23.96875 65.921875 18.8125 64.3125 
Q 13.671875 62.703125 7.8125 59.421875 
L 7.8125 69.390625 
Q 13.765625 71.78125 18.9375 73 
Q 24.125 74.21875 28.421875 74.21875 
Q 39.75 74.21875 46.484375 68.546875 
Q 53.21875 62.890625 53.21875 53.421875 
Q 53.21875 48.921875 51.53125 44.890625 
Q 49.859375 40.875 45.40625 35.40625 
Q 44.1875 33.984375 37.640625 27.21875 
Q 31.109375 20.453125 19.1875 8.296875 
z
" id="DejaVuSans-50"/>
      </defs>
      <g transform="translate(232.164277 329.598437)scale(0.1 -0.1)">
       <use xlink:href="#DejaVuSans-50"/>
       <use x="63.623047" xlink:href="#DejaVuSans-48"/>
       <use x="127.246094" xlink:href="#DejaVuSans-48"/>
      </g>
     </g>
    </g>
    <g id="xtick_4">
     <g id="line2d_7">
      <path clip-path="url(#pe2c4cbcc96)" d="M 304.880222 315 
L 304.880222 43.2 
" style="fill:none;stroke:#b0b0b0;stroke-linecap:square;stroke-width:0.8;"/>
     </g>
     <g id="line2d_8">
      <g>
       <use style="stroke:#000000;stroke-width:0.8;" x="304.880222" xlink:href="#m813dcb5a9e" y="315"/>
      </g>
     </g>
     <g id="text_4">
      <!-- 300 -->
      <defs>
       <path d="M 40.578125 39.3125 
Q 47.65625 37.796875 51.625 33 
Q 55.609375 28.21875 55.609375 21.1875 
Q 55.609375 10.40625 48.1875 4.484375 
Q 40.765625 -1.421875 27.09375 -1.421875 
Q 22.515625 -1.421875 17.65625 -0.515625 
Q 12.796875 0.390625 7.625 2.203125 
L 7.625 11.71875 
Q 11.71875 9.328125 16.59375 8.109375 
Q 21.484375 6.890625 26.8125 6.890625 
Q 36.078125 6.890625 40.9375 10.546875 
Q 45.796875 14.203125 45.796875 21.1875 
Q 45.796875 27.640625 41.28125 31.265625 
Q 36.765625 34.90625 28.71875 34.90625 
L 20.21875 34.90625 
L 20.21875 43.015625 
L 29.109375 43.015625 
Q 36.375 43.015625 40.234375 45.921875 
Q 44.09375 48.828125 44.09375 54.296875 
Q 44.09375 59.90625 40.109375 62.90625 
Q 36.140625 65.921875 28.71875 65.921875 
Q 24.65625 65.921875 20.015625 65.03125 
Q 15.375 64.15625 9.8125 62.3125 
L 9.8125 71.09375 
Q 15.4375 72.65625 20.34375 73.4375 
Q 25.25 74.21875 29.59375 74.21875 
Q 40.828125 74.21875 47.359375 69.109375 
Q 53.90625 64.015625 53.90625 55.328125 
Q 53.90625 49.265625 50.4375 45.09375 
Q 46.96875 40.921875 40.578125 39.3125 
z
" id="DejaVuSans-51"/>
      </defs>
      <g transform="translate(295.336472 329.598437)scale(0.1 -0.1)">
       <use xlink:href="#DejaVuSans-51"/>
       <use x="63.623047" xlink:href="#DejaVuSans-48"/>
       <use x="127.246094" xlink:href="#DejaVuSans-48"/>
      </g>
     </g>
    </g>
    <g id="xtick_5">
     <g id="line2d_9">
      <path clip-path="url(#pe2c4cbcc96)" d="M 368.052417 315 
L 368.052417 43.2 
" style="fill:none;stroke:#b0b0b0;stroke-linecap:square;stroke-width:0.8;"/>
     </g>
     <g id="line2d_10">
      <g>
       <use style="stroke:#000000;stroke-width:0.8;" x="368.052417" xlink:href="#m813dcb5a9e" y="315"/>
      </g>
     </g>
     <g id="text_5">
      <!-- 400 -->
      <defs>
       <path d="M 37.796875 64.3125 
L 12.890625 25.390625 
L 37.796875 25.390625 
z
M 35.203125 72.90625 
L 47.609375 72.90625 
L 47.609375 25.390625 
L 58.015625 25.390625 
L 58.015625 17.1875 
L 47.609375 17.1875 
L 47.609375 0 
L 37.796875 0 
L 37.796875 17.1875 
L 4.890625 17.1875 
L 4.890625 26.703125 
z
" id="DejaVuSans-52"/>
      </defs>
      <g transform="translate(358.508667 329.598437)scale(0.1 -0.1)">
       <use xlink:href="#DejaVuSans-52"/>
       <use x="63.623047" xlink:href="#DejaVuSans-48"/>
       <use x="127.246094" xlink:href="#DejaVuSans-48"/>
      </g>
     </g>
    </g>
    <g id="xtick_6">
     <g id="line2d_11">
      <path clip-path="url(#pe2c4cbcc96)" d="M 431.224612 315 
L 431.224612 43.2 
" style="fill:none;stroke:#b0b0b0;stroke-linecap:square;stroke-width:0.8;"/>
     </g>
     <g id="line2d_12">
      <g>
       <use style="stroke:#000000;stroke-width:0.8;" x="431.224612" xlink:href="#m813dcb5a9e" y="315"/>
      </g>
     </g>
     <g id="text_6">
      <!-- 500 -->
      <defs>
       <path d="M 10.796875 72.90625 
L 49.515625 72.90625 
L 49.515625 64.59375 
L 19.828125 64.59375 
L 19.828125 46.734375 
Q 21.96875 47.46875 24.109375 47.828125 
Q 26.265625 48.1875 28.421875 48.1875 
Q 40.625 48.1875 47.75 41.5 
Q 54.890625 34.8125 54.890625 23.390625 
Q 54.890625 11.625 47.5625 5.09375 
Q 40.234375 -1.421875 26.90625 -1.421875 
Q 22.3125 -1.421875 17.546875 -0.640625 
Q 12.796875 0.140625 7.71875 1.703125 
L 7.71875 11.625 
Q 12.109375 9.234375 16.796875 8.0625 
Q 21.484375 6.890625 26.703125 6.890625 
Q 35.15625 6.890625 40.078125 11.328125 
Q 45.015625 15.765625 45.015625 23.390625 
Q 45.015625 31 40.078125 35.4375 
Q 35.15625 39.890625 26.703125 39.890625 
Q 22.75 39.890625 18.8125 39.015625 
Q 14.890625 38.140625 10.796875 36.28125 
z
" id="DejaVuSans-53"/>
      </defs>
      <g transform="translate(421.680862 329.598437)scale(0.1 -0.1)">
       <use xlink:href="#DejaVuSans-53"/>
       <use x="63.623047" xlink:href="#DejaVuSans-48"/>
       <use x="127.246094" xlink:href="#DejaVuSans-48"/>
      </g>
     </g>
    </g>
    <g id="xtick_7">
     <g id="line2d_13">
      <path clip-path="url(#pe2c4cbcc96)" d="M 494.396807 315 
L 494.396807 43.2 
" style="fill:none;stroke:#b0b0b0;stroke-linecap:square;stroke-width:0.8;"/>
     </g>
     <g id="line2d_14">
      <g>
       <use style="stroke:#000000;stroke-width:0.8;" x="494.396807" xlink:href="#m813dcb5a9e" y="315"/>
      </g>
     </g>
     <g id="text_7">
      <!-- 600 -->
      <defs>
       <path d="M 33.015625 40.375 
Q 26.375 40.375 22.484375 35.828125 
Q 18.609375 31.296875 18.609375 23.390625 
Q 18.609375 15.53125 22.484375 10.953125 
Q 26.375 6.390625 33.015625 6.390625 
Q 39.65625 6.390625 43.53125 10.953125 
Q 47.40625 15.53125 47.40625 23.390625 
Q 47.40625 31.296875 43.53125 35.828125 
Q 39.65625 40.375 33.015625 40.375 
z
M 52.59375 71.296875 
L 52.59375 62.3125 
Q 48.875 64.0625 45.09375 64.984375 
Q 41.3125 65.921875 37.59375 65.921875 
Q 27.828125 65.921875 22.671875 59.328125 
Q 17.53125 52.734375 16.796875 39.40625 
Q 19.671875 43.65625 24.015625 45.921875 
Q 28.375 48.1875 33.59375 48.1875 
Q 44.578125 48.1875 50.953125 41.515625 
Q 57.328125 34.859375 57.328125 23.390625 
Q 57.328125 12.15625 50.6875 5.359375 
Q 44.046875 -1.421875 33.015625 -1.421875 
Q 20.359375 -1.421875 13.671875 8.265625 
Q 6.984375 17.96875 6.984375 36.375 
Q 6.984375 53.65625 15.1875 63.9375 
Q 23.390625 74.21875 37.203125 74.21875 
Q 40.921875 74.21875 44.703125 73.484375 
Q 48.484375 72.75 52.59375 71.296875 
z
" id="DejaVuSans-54"/>
      </defs>
      <g transform="translate(484.853057 329.598437)scale(0.1 -0.1)">
       <use xlink:href="#DejaVuSans-54"/>
       <use x="63.623047" xlink:href="#DejaVuSans-48"/>
       <use x="127.246094" xlink:href="#DejaVuSans-48"/>
      </g>
     </g>
    </g>
    <g id="xtick_8">
     <g id="line2d_15">
      <path clip-path="url(#pe2c4cbcc96)" d="M 557.569003 315 
L 557.569003 43.2 
" style="fill:none;stroke:#b0b0b0;stroke-linecap:square;stroke-width:0.8;"/>
     </g>
     <g id="line2d_16">
      <g>
       <use style="stroke:#000000;stroke-width:0.8;" x="557.569003" xlink:href="#m813dcb5a9e" y="315"/>
      </g>
     </g>
     <g id="text_8">
      <!-- 700 -->
      <defs>
       <path d="M 8.203125 72.90625 
L 55.078125 72.90625 
L 55.078125 68.703125 
L 28.609375 0 
L 18.3125 0 
L 43.21875 64.59375 
L 8.203125 64.59375 
z
" id="DejaVuSans-55"/>
      </defs>
      <g transform="translate(548.025253 329.598437)scale(0.1 -0.1)">
       <use xlink:href="#DejaVuSans-55"/>
       <use x="63.623047" xlink:href="#DejaVuSans-48"/>
       <use x="127.246094" xlink:href="#DejaVuSans-48"/>
      </g>
     </g>
    </g>
    <g id="xtick_9">
     <g id="line2d_17">
      <path clip-path="url(#pe2c4cbcc96)" d="M 620.741198 315 
L 620.741198 43.2 
" style="fill:none;stroke:#b0b0b0;stroke-linecap:square;stroke-width:0.8;"/>
     </g>
     <g id="line2d_18">
      <g>
       <use style="stroke:#000000;stroke-width:0.8;" x="620.741198" xlink:href="#m813dcb5a9e" y="315"/>
      </g>
     </g>
     <g id="text_9">
      <!-- 800 -->
      <defs>
       <path d="M 31.78125 34.625 
Q 24.75 34.625 20.71875 30.859375 
Q 16.703125 27.09375 16.703125 20.515625 
Q 16.703125 13.921875 20.71875 10.15625 
Q 24.75 6.390625 31.78125 6.390625 
Q 38.8125 6.390625 42.859375 10.171875 
Q 46.921875 13.96875 46.921875 20.515625 
Q 46.921875 27.09375 42.890625 30.859375 
Q 38.875 34.625 31.78125 34.625 
z
M 21.921875 38.8125 
Q 15.578125 40.375 12.03125 44.71875 
Q 8.5 49.078125 8.5 55.328125 
Q 8.5 64.0625 14.71875 69.140625 
Q 20.953125 74.21875 31.78125 74.21875 
Q 42.671875 74.21875 48.875 69.140625 
Q 55.078125 64.0625 55.078125 55.328125 
Q 55.078125 49.078125 51.53125 44.71875 
Q 48 40.375 41.703125 38.8125 
Q 48.828125 37.15625 52.796875 32.3125 
Q 56.78125 27.484375 56.78125 20.515625 
Q 56.78125 9.90625 50.3125 4.234375 
Q 43.84375 -1.421875 31.78125 -1.421875 
Q 19.734375 -1.421875 13.25 4.234375 
Q 6.78125 9.90625 6.78125 20.515625 
Q 6.78125 27.484375 10.78125 32.3125 
Q 14.796875 37.15625 21.921875 38.8125 
z
M 18.3125 54.390625 
Q 18.3125 48.734375 21.84375 45.5625 
Q 25.390625 42.390625 31.78125 42.390625 
Q 38.140625 42.390625 41.71875 45.5625 
Q 45.3125 48.734375 45.3125 54.390625 
Q 45.3125 60.0625 41.71875 63.234375 
Q 38.140625 66.40625 31.78125 66.40625 
Q 25.390625 66.40625 21.84375 63.234375 
Q 18.3125 60.0625 18.3125 54.390625 
z
" id="DejaVuSans-56"/>
      </defs>
      <g transform="translate(611.197448 329.598437)scale(0.1 -0.1)">
       <use xlink:href="#DejaVuSans-56"/>
       <use x="63.623047" xlink:href="#DejaVuSans-48"/>
       <use x="127.246094" xlink:href="#DejaVuSans-48"/>
      </g>
     </g>
    </g>
    <g id="text_10">
     <!-- epoch -->
     <defs>
      <path d="M 56.203125 29.59375 
L 56.203125 25.203125 
L 14.890625 25.203125 
Q 15.484375 15.921875 20.484375 11.0625 
Q 25.484375 6.203125 34.421875 6.203125 
Q 39.59375 6.203125 44.453125 7.46875 
Q 49.3125 8.734375 54.109375 11.28125 
L 54.109375 2.78125 
Q 49.265625 0.734375 44.1875 -0.34375 
Q 39.109375 -1.421875 33.890625 -1.421875 
Q 20.796875 -1.421875 13.15625 6.1875 
Q 5.515625 13.8125 5.515625 26.8125 
Q 5.515625 40.234375 12.765625 48.109375 
Q 20.015625 56 32.328125 56 
Q 43.359375 56 49.78125 48.890625 
Q 56.203125 41.796875 56.203125 29.59375 
z
M 47.21875 32.234375 
Q 47.125 39.59375 43.09375 43.984375 
Q 39.0625 48.390625 32.421875 48.390625 
Q 24.90625 48.390625 20.390625 44.140625 
Q 15.875 39.890625 15.1875 32.171875 
z
" id="DejaVuSans-101"/>
      <path d="M 18.109375 8.203125 
L 18.109375 -20.796875 
L 9.078125 -20.796875 
L 9.078125 54.6875 
L 18.109375 54.6875 
L 18.109375 46.390625 
Q 20.953125 51.265625 25.265625 53.625 
Q 29.59375 56 35.59375 56 
Q 45.5625 56 51.78125 48.09375 
Q 58.015625 40.1875 58.015625 27.296875 
Q 58.015625 14.40625 51.78125 6.484375 
Q 45.5625 -1.421875 35.59375 -1.421875 
Q 29.59375 -1.421875 25.265625 0.953125 
Q 20.953125 3.328125 18.109375 8.203125 
z
M 48.6875 27.296875 
Q 48.6875 37.203125 44.609375 42.84375 
Q 40.53125 48.484375 33.40625 48.484375 
Q 26.265625 48.484375 22.1875 42.84375 
Q 18.109375 37.203125 18.109375 27.296875 
Q 18.109375 17.390625 22.1875 11.75 
Q 26.265625 6.109375 33.40625 6.109375 
Q 40.53125 6.109375 44.609375 11.75 
Q 48.6875 17.390625 48.6875 27.296875 
z
" id="DejaVuSans-112"/>
      <path d="M 30.609375 48.390625 
Q 23.390625 48.390625 19.1875 42.75 
Q 14.984375 37.109375 14.984375 27.296875 
Q 14.984375 17.484375 19.15625 11.84375 
Q 23.34375 6.203125 30.609375 6.203125 
Q 37.796875 6.203125 41.984375 11.859375 
Q 46.1875 17.53125 46.1875 27.296875 
Q 46.1875 37.015625 41.984375 42.703125 
Q 37.796875 48.390625 30.609375 48.390625 
z
M 30.609375 56 
Q 42.328125 56 49.015625 48.375 
Q 55.71875 40.765625 55.71875 27.296875 
Q 55.71875 13.875 49.015625 6.21875 
Q 42.328125 -1.421875 30.609375 -1.421875 
Q 18.84375 -1.421875 12.171875 6.21875 
Q 5.515625 13.875 5.515625 27.296875 
Q 5.515625 40.765625 12.171875 48.375 
Q 18.84375 56 30.609375 56 
z
" id="DejaVuSans-111"/>
      <path d="M 48.78125 52.59375 
L 48.78125 44.1875 
Q 44.96875 46.296875 41.140625 47.34375 
Q 37.3125 48.390625 33.40625 48.390625 
Q 24.65625 48.390625 19.8125 42.84375 
Q 14.984375 37.3125 14.984375 27.296875 
Q 14.984375 17.28125 19.8125 11.734375 
Q 24.65625 6.203125 33.40625 6.203125 
Q 37.3125 6.203125 41.140625 7.25 
Q 44.96875 8.296875 48.78125 10.40625 
L 48.78125 2.09375 
Q 45.015625 0.34375 40.984375 -0.53125 
Q 36.96875 -1.421875 32.421875 -1.421875 
Q 20.0625 -1.421875 12.78125 6.34375 
Q 5.515625 14.109375 5.515625 27.296875 
Q 5.515625 40.671875 12.859375 48.328125 
Q 20.21875 56 33.015625 56 
Q 37.15625 56 41.109375 55.140625 
Q 45.0625 54.296875 48.78125 52.59375 
z
" id="DejaVuSans-99"/>
      <path d="M 54.890625 33.015625 
L 54.890625 0 
L 45.90625 0 
L 45.90625 32.71875 
Q 45.90625 40.484375 42.875 44.328125 
Q 39.84375 48.1875 33.796875 48.1875 
Q 26.515625 48.1875 22.3125 43.546875 
Q 18.109375 38.921875 18.109375 30.90625 
L 18.109375 0 
L 9.078125 0 
L 9.078125 75.984375 
L 18.109375 75.984375 
L 18.109375 46.1875 
Q 21.34375 51.125 25.703125 53.5625 
Q 30.078125 56 35.796875 56 
Q 45.21875 56 50.046875 50.171875 
Q 54.890625 44.34375 54.890625 33.015625 
z
" id="DejaVuSans-104"/>
     </defs>
     <g transform="translate(353.771875 343.276563)scale(0.1 -0.1)">
      <use xlink:href="#DejaVuSans-101"/>
      <use x="61.523438" xlink:href="#DejaVuSans-112"/>
      <use x="125" xlink:href="#DejaVuSans-111"/>
      <use x="186.181641" xlink:href="#DejaVuSans-99"/>
      <use x="241.162109" xlink:href="#DejaVuSans-104"/>
     </g>
    </g>
   </g>
   <g id="matplotlib.axis_2">
    <g id="ytick_1">
     <g id="line2d_19">
      <path clip-path="url(#pe2c4cbcc96)" d="M 90 285.370599 
L 648 285.370599 
" style="fill:none;stroke:#b0b0b0;stroke-linecap:square;stroke-width:0.8;"/>
     </g>
     <g id="line2d_20">
      <defs>
       <path d="M 0 0 
L -3.5 0 
" id="md02c5cbac0" style="stroke:#000000;stroke-width:0.8;"/>
      </defs>
      <g>
       <use style="stroke:#000000;stroke-width:0.8;" x="90" xlink:href="#md02c5cbac0" y="285.370599"/>
      </g>
     </g>
     <g id="text_11">
      <!-- 0.4 -->
      <defs>
       <path d="M 10.6875 12.40625 
L 21 12.40625 
L 21 0 
L 10.6875 0 
z
" id="DejaVuSans-46"/>
      </defs>
      <g transform="translate(67.096875 289.169818)scale(0.1 -0.1)">
       <use xlink:href="#DejaVuSans-48"/>
       <use x="63.623047" xlink:href="#DejaVuSans-46"/>
       <use x="95.410156" xlink:href="#DejaVuSans-52"/>
      </g>
     </g>
    </g>
    <g id="ytick_2">
     <g id="line2d_21">
      <path clip-path="url(#pe2c4cbcc96)" d="M 90 247.327483 
L 648 247.327483 
" style="fill:none;stroke:#b0b0b0;stroke-linecap:square;stroke-width:0.8;"/>
     </g>
     <g id="line2d_22">
      <g>
       <use style="stroke:#000000;stroke-width:0.8;" x="90" xlink:href="#md02c5cbac0" y="247.327483"/>
      </g>
     </g>
     <g id="text_12">
      <!-- 0.6 -->
      <g transform="translate(67.096875 251.126702)scale(0.1 -0.1)">
       <use xlink:href="#DejaVuSans-48"/>
       <use x="63.623047" xlink:href="#DejaVuSans-46"/>
       <use x="95.410156" xlink:href="#DejaVuSans-54"/>
      </g>
     </g>
    </g>
    <g id="ytick_3">
     <g id="line2d_23">
      <path clip-path="url(#pe2c4cbcc96)" d="M 90 209.284367 
L 648 209.284367 
" style="fill:none;stroke:#b0b0b0;stroke-linecap:square;stroke-width:0.8;"/>
     </g>
     <g id="line2d_24">
      <g>
       <use style="stroke:#000000;stroke-width:0.8;" x="90" xlink:href="#md02c5cbac0" y="209.284367"/>
      </g>
     </g>
     <g id="text_13">
      <!-- 0.8 -->
      <g transform="translate(67.096875 213.083586)scale(0.1 -0.1)">
       <use xlink:href="#DejaVuSans-48"/>
       <use x="63.623047" xlink:href="#DejaVuSans-46"/>
       <use x="95.410156" xlink:href="#DejaVuSans-56"/>
      </g>
     </g>
    </g>
    <g id="ytick_4">
     <g id="line2d_25">
      <path clip-path="url(#pe2c4cbcc96)" d="M 90 171.241251 
L 648 171.241251 
" style="fill:none;stroke:#b0b0b0;stroke-linecap:square;stroke-width:0.8;"/>
     </g>
     <g id="line2d_26">
      <g>
       <use style="stroke:#000000;stroke-width:0.8;" x="90" xlink:href="#md02c5cbac0" y="171.241251"/>
      </g>
     </g>
     <g id="text_14">
      <!-- 1.0 -->
      <g transform="translate(67.096875 175.040469)scale(0.1 -0.1)">
       <use xlink:href="#DejaVuSans-49"/>
       <use x="63.623047" xlink:href="#DejaVuSans-46"/>
       <use x="95.410156" xlink:href="#DejaVuSans-48"/>
      </g>
     </g>
    </g>
    <g id="ytick_5">
     <g id="line2d_27">
      <path clip-path="url(#pe2c4cbcc96)" d="M 90 133.198134 
L 648 133.198134 
" style="fill:none;stroke:#b0b0b0;stroke-linecap:square;stroke-width:0.8;"/>
     </g>
     <g id="line2d_28">
      <g>
       <use style="stroke:#000000;stroke-width:0.8;" x="90" xlink:href="#md02c5cbac0" y="133.198134"/>
      </g>
     </g>
     <g id="text_15">
      <!-- 1.2 -->
      <g transform="translate(67.096875 136.997353)scale(0.1 -0.1)">
       <use xlink:href="#DejaVuSans-49"/>
       <use x="63.623047" xlink:href="#DejaVuSans-46"/>
       <use x="95.410156" xlink:href="#DejaVuSans-50"/>
      </g>
     </g>
    </g>
    <g id="ytick_6">
     <g id="line2d_29">
      <path clip-path="url(#pe2c4cbcc96)" d="M 90 95.155018 
L 648 95.155018 
" style="fill:none;stroke:#b0b0b0;stroke-linecap:square;stroke-width:0.8;"/>
     </g>
     <g id="line2d_30">
      <g>
       <use style="stroke:#000000;stroke-width:0.8;" x="90" xlink:href="#md02c5cbac0" y="95.155018"/>
      </g>
     </g>
     <g id="text_16">
      <!-- 1.4 -->
      <g transform="translate(67.096875 98.954237)scale(0.1 -0.1)">
       <use xlink:href="#DejaVuSans-49"/>
       <use x="63.623047" xlink:href="#DejaVuSans-46"/>
       <use x="95.410156" xlink:href="#DejaVuSans-52"/>
      </g>
     </g>
    </g>
    <g id="ytick_7">
     <g id="line2d_31">
      <path clip-path="url(#pe2c4cbcc96)" d="M 90 57.111902 
L 648 57.111902 
" style="fill:none;stroke:#b0b0b0;stroke-linecap:square;stroke-width:0.8;"/>
     </g>
     <g id="line2d_32">
      <g>
       <use style="stroke:#000000;stroke-width:0.8;" x="90" xlink:href="#md02c5cbac0" y="57.111902"/>
      </g>
     </g>
     <g id="text_17">
      <!-- 1.6 -->
      <g transform="translate(67.096875 60.911121)scale(0.1 -0.1)">
       <use xlink:href="#DejaVuSans-49"/>
       <use x="63.623047" xlink:href="#DejaVuSans-46"/>
       <use x="95.410156" xlink:href="#DejaVuSans-54"/>
      </g>
     </g>
    </g>
    <g id="text_18">
     <!-- loss -->
     <defs>
      <path d="M 9.421875 75.984375 
L 18.40625 75.984375 
L 18.40625 0 
L 9.421875 0 
z
" id="DejaVuSans-108"/>
      <path d="M 44.28125 53.078125 
L 44.28125 44.578125 
Q 40.484375 46.53125 36.375 47.5 
Q 32.28125 48.484375 27.875 48.484375 
Q 21.1875 48.484375 17.84375 46.4375 
Q 14.5 44.390625 14.5 40.28125 
Q 14.5 37.15625 16.890625 35.375 
Q 19.28125 33.59375 26.515625 31.984375 
L 29.59375 31.296875 
Q 39.15625 29.25 43.1875 25.515625 
Q 47.21875 21.78125 47.21875 15.09375 
Q 47.21875 7.46875 41.1875 3.015625 
Q 35.15625 -1.421875 24.609375 -1.421875 
Q 20.21875 -1.421875 15.453125 -0.5625 
Q 10.6875 0.296875 5.421875 2 
L 5.421875 11.28125 
Q 10.40625 8.6875 15.234375 7.390625 
Q 20.0625 6.109375 24.8125 6.109375 
Q 31.15625 6.109375 34.5625 8.28125 
Q 37.984375 10.453125 37.984375 14.40625 
Q 37.984375 18.0625 35.515625 20.015625 
Q 33.0625 21.96875 24.703125 23.78125 
L 21.578125 24.515625 
Q 13.234375 26.265625 9.515625 29.90625 
Q 5.8125 33.546875 5.8125 39.890625 
Q 5.8125 47.609375 11.28125 51.796875 
Q 16.75 56 26.8125 56 
Q 31.78125 56 36.171875 55.265625 
Q 40.578125 54.546875 44.28125 53.078125 
z
" id="DejaVuSans-115"/>
     </defs>
     <g transform="translate(61.017187 188.757812)rotate(-90)scale(0.1 -0.1)">
      <use xlink:href="#DejaVuSans-108"/>
      <use x="27.783203" xlink:href="#DejaVuSans-111"/>
      <use x="88.964844" xlink:href="#DejaVuSans-115"/>
      <use x="141.064453" xlink:href="#DejaVuSans-115"/>
     </g>
    </g>
   </g>
   <g id="line2d_33">
    <path clip-path="url(#pe2c4cbcc96)" d="M 115.363636 56.03342 
L 115.995358 64.379449 
L 116.62708 71.18866 
L 117.258802 75.649634 
L 117.890524 75.989413 
L 118.522246 78.131274 
L 119.153968 80.843917 
L 119.78569 79.237199 
L 120.417412 81.773954 
L 121.049134 81.190179 
L 121.680856 84.729525 
L 122.312578 84.551207 
L 122.9443 83.796778 
L 123.576022 88.778411 
L 124.207744 88.618192 
L 124.839466 88.256743 
L 125.471188 86.640195 
L 126.10291 89.847973 
L 126.734631 88.775074 
L 127.366353 90.178199 
L 127.998075 91.042512 
L 128.629797 93.387471 
L 129.261519 94.935187 
L 129.893241 94.193002 
L 130.524963 93.069681 
L 131.156685 97.137249 
L 132.420129 95.78507 
L 133.051851 97.345644 
L 133.683573 98.488275 
L 134.315295 98.173381 
L 135.578739 102.80083 
L 136.210461 105.501214 
L 136.842183 103.64999 
L 137.473905 106.703398 
L 138.105627 108.330588 
L 138.737349 108.610715 
L 140.000792 115.242102 
L 140.632514 115.436396 
L 141.264236 116.24097 
L 141.895958 120.269459 
L 142.52768 123.029702 
L 143.791124 126.342184 
L 144.422846 132.241317 
L 145.054568 133.95461 
L 146.318012 141.584208 
L 146.949734 144.011217 
L 147.581456 148.284437 
L 148.213178 154.423757 
L 148.8449 156.273187 
L 150.740066 166.954325 
L 151.371788 167.168993 
L 152.00351 170.809011 
L 152.635232 173.170627 
L 153.266953 180.261662 
L 153.898675 178.755201 
L 154.530397 182.894931 
L 155.162119 180.418552 
L 155.793841 186.143001 
L 156.425563 185.189674 
L 157.057285 188.310172 
L 157.689007 189.509085 
L 158.952451 196.034836 
L 159.584173 194.054825 
L 160.215895 194.419089 
L 160.847617 199.816214 
L 161.479339 200.231042 
L 162.111061 200.855192 
L 162.742783 202.838948 
L 163.374505 201.217228 
L 164.006227 207.05944 
L 164.637949 205.898465 
L 165.269671 209.728103 
L 165.901393 208.985114 
L 166.533114 210.169503 
L 167.164836 208.835814 
L 167.796558 208.238557 
L 168.42828 213.715137 
L 169.060002 212.101511 
L 169.691724 211.399955 
L 170.323446 212.761229 
L 170.955168 214.598666 
L 171.58689 219.59074 
L 172.218612 218.103586 
L 172.850334 217.583073 
L 173.482056 215.463324 
L 174.113778 219.342866 
L 174.7455 221.854844 
L 175.377222 219.895282 
L 176.008944 218.816468 
L 176.640666 223.845599 
L 177.272388 221.932548 
L 177.90411 223.397771 
L 178.535832 221.871703 
L 179.167553 223.186354 
L 179.799275 226.149211 
L 180.430997 225.558387 
L 181.062719 224.415662 
L 181.694441 227.375968 
L 182.326163 224.220172 
L 182.957885 226.17471 
L 183.589607 225.170535 
L 184.221329 228.710981 
L 184.853051 230.167817 
L 185.484773 227.096833 
L 186.116495 229.566244 
L 186.748217 231.097928 
L 187.379939 232.006867 
L 188.011661 228.69235 
L 188.643383 230.984388 
L 189.275105 228.158883 
L 189.906827 230.494794 
L 191.170271 234.06181 
L 191.801993 232.84674 
L 192.433714 232.66354 
L 193.697158 234.887421 
L 194.32888 235.205742 
L 194.960602 234.614749 
L 195.592324 235.054164 
L 196.224046 236.27911 
L 196.855768 235.675302 
L 197.48749 238.764678 
L 198.119212 235.192068 
L 198.750934 235.882411 
L 199.382656 236.849134 
L 200.014378 235.808234 
L 200.6461 239.061465 
L 201.277822 240.849476 
L 201.909544 240.657624 
L 202.541266 239.132643 
L 203.172988 241.772388 
L 203.80471 240.032436 
L 204.436432 239.853868 
L 205.068154 240.94107 
L 205.699875 240.221524 
L 206.331597 241.202852 
L 206.963319 239.352695 
L 207.595041 242.357361 
L 208.226763 240.150557 
L 208.858485 243.415655 
L 209.490207 243.983586 
L 210.121929 242.183593 
L 210.753651 242.598332 
L 211.385373 244.87694 
L 212.017095 242.909513 
L 212.648817 246.626139 
L 213.280539 242.885199 
L 213.912261 245.130482 
L 214.543983 246.017948 
L 215.175705 244.383668 
L 215.807427 246.698207 
L 216.439149 247.19642 
L 217.070871 245.985828 
L 217.702593 245.258764 
L 218.334315 245.055297 
L 218.966036 246.285149 
L 219.597758 247.194998 
L 220.22948 246.259663 
L 221.492924 249.639706 
L 222.124646 248.592764 
L 222.756368 249.730527 
L 223.38809 251.929345 
L 224.019812 250.466143 
L 224.651534 249.900084 
L 225.283256 249.541147 
L 225.914978 253.895842 
L 226.5467 251.209344 
L 227.178422 249.367419 
L 227.810144 253.168243 
L 228.441866 251.705873 
L 229.073588 249.9468 
L 229.70531 252.045452 
L 230.337032 250.700285 
L 230.968754 252.514427 
L 231.600475 252.183771 
L 232.232197 253.927488 
L 232.863919 248.984073 
L 233.495641 254.703773 
L 234.127363 251.026699 
L 234.759085 251.274892 
L 235.390807 252.861577 
L 236.022529 253.115535 
L 236.654251 255.393908 
L 237.285973 253.419192 
L 237.917695 252.508383 
L 238.549417 251.026426 
L 239.181139 252.735924 
L 240.444583 256.581095 
L 241.076305 254.247521 
L 241.708027 253.842474 
L 242.339749 256.084664 
L 242.971471 255.590965 
L 243.603193 256.888945 
L 244.234915 255.96602 
L 244.866636 253.704737 
L 245.498358 257.08892 
L 246.13008 255.751326 
L 246.761802 255.949287 
L 247.393524 256.89326 
L 248.025246 255.746918 
L 248.656968 258.362687 
L 249.28869 256.278191 
L 249.920412 257.444147 
L 250.552134 255.988189 
L 251.183856 257.798419 
L 252.4473 255.401731 
L 253.079022 257.684232 
L 253.710744 258.699943 
L 254.342466 258.791681 
L 254.974188 261.508135 
L 255.60591 258.048216 
L 256.237632 258.578232 
L 257.501076 260.958509 
L 258.132797 261.167179 
L 258.764519 258.116898 
L 259.396241 260.803415 
L 260.027963 258.822957 
L 260.659685 258.724252 
L 261.291407 262.048379 
L 261.923129 257.899941 
L 262.554851 259.409003 
L 263.186573 261.88138 
L 263.818295 259.811829 
L 264.450017 261.372857 
L 265.081739 260.967321 
L 265.713461 262.810799 
L 266.345183 258.592403 
L 266.976905 262.056579 
L 267.608627 263.628176 
L 268.240349 263.598287 
L 268.872071 260.334256 
L 269.503793 262.627288 
L 270.135515 263.190654 
L 270.767236 262.717471 
L 271.398958 262.591033 
L 272.03068 261.037548 
L 272.662402 264.551484 
L 273.294124 260.080953 
L 273.925846 264.138791 
L 274.557568 261.776024 
L 275.18929 261.348959 
L 275.821012 264.292659 
L 276.452734 265.812215 
L 277.084456 265.838341 
L 277.716178 265.325434 
L 278.3479 265.653209 
L 278.979622 262.922975 
L 279.611344 263.975785 
L 280.243066 262.556868 
L 280.874788 263.479407 
L 281.50651 263.701352 
L 282.138232 263.066857 
L 282.769954 267.198655 
L 283.401676 265.80617 
L 284.033397 265.855584 
L 284.665119 265.305365 
L 285.296841 263.714134 
L 285.928563 262.954083 
L 286.560285 266.451834 
L 287.192007 266.584852 
L 287.823729 268.523079 
L 288.455451 266.732875 
L 289.087173 265.917371 
L 289.718895 267.471505 
L 290.350617 265.431301 
L 290.982339 265.202599 
L 291.614061 267.277795 
L 292.245783 267.831222 
L 293.509227 267.142514 
L 294.140949 267.286674 
L 294.772671 267.059373 
L 295.404393 269.729899 
L 296.036115 265.663859 
L 296.667837 269.674514 
L 297.299558 269.147551 
L 297.93128 268.895176 
L 298.563002 269.067752 
L 299.194724 269.120816 
L 299.826446 265.830309 
L 300.458168 268.221852 
L 301.08989 269.491845 
L 301.721612 268.056992 
L 302.353334 271.023555 
L 302.985056 269.200838 
L 303.616778 268.00388 
L 304.2485 271.512641 
L 304.880222 268.827269 
L 305.511944 270.357033 
L 306.143666 271.11864 
L 306.775388 271.072065 
L 307.40711 270.367806 
L 308.038832 269.45534 
L 308.670554 270.547893 
L 309.302276 268.143326 
L 309.933998 270.459979 
L 310.565719 269.225227 
L 311.197441 272.225321 
L 311.829163 272.372001 
L 312.460885 270.602277 
L 313.092607 272.582882 
L 313.724329 273.284049 
L 314.356051 270.374711 
L 314.987773 270.778381 
L 315.619495 272.33599 
L 316.251217 271.965234 
L 316.882939 273.013818 
L 318.146383 271.322213 
L 318.778105 269.83404 
L 319.409827 270.473209 
L 320.041549 273.300013 
L 320.673271 273.281639 
L 321.304993 271.696451 
L 321.936715 273.483944 
L 322.568437 272.517434 
L 323.200158 270.514952 
L 323.83188 271.573818 
L 324.463602 270.688754 
L 325.095324 271.63528 
L 325.727046 273.85283 
L 326.358768 275.150005 
L 326.99049 273.10751 
L 327.622212 272.226293 
L 328.253934 273.26907 
L 328.885656 272.356679 
L 329.517378 274.666999 
L 330.1491 271.265179 
L 330.780822 273.067362 
L 331.412544 274.025408 
L 332.044266 274.248922 
L 332.675988 273.222577 
L 333.30771 274.05688 
L 333.939432 273.47112 
L 334.571154 276.261915 
L 335.202876 273.938991 
L 335.834598 273.69442 
L 336.466319 275.097166 
L 337.098041 275.887228 
L 337.729763 273.47953 
L 338.361485 273.143754 
L 338.993207 276.802482 
L 339.624929 277.277885 
L 340.256651 277.063099 
L 340.888373 272.185522 
L 342.151817 277.372237 
L 342.783539 278.247332 
L 343.415261 273.423974 
L 344.046983 273.301404 
L 344.678705 277.377618 
L 345.310427 276.889827 
L 345.942149 274.311212 
L 346.573871 276.412863 
L 347.837315 274.498987 
L 348.469037 276.071083 
L 349.100759 274.710504 
L 350.995924 278.633391 
L 351.627646 276.447844 
L 352.259368 278.335684 
L 353.522812 275.715414 
L 354.154534 276.678254 
L 354.786256 276.6749 
L 355.417978 280.354131 
L 356.0497 279.742611 
L 356.681422 279.540716 
L 357.313144 277.480081 
L 357.944866 277.658209 
L 358.576588 279.387273 
L 359.20831 276.891979 
L 359.840032 276.555406 
L 360.471754 278.510097 
L 361.103476 277.580078 
L 361.735198 280.778402 
L 362.998641 277.540507 
L 363.630363 278.08071 
L 364.262085 279.22409 
L 364.893807 278.197288 
L 365.525529 281.695537 
L 366.157251 279.725479 
L 366.788973 280.054779 
L 367.420695 277.195429 
L 368.052417 278.784171 
L 368.684139 280.047474 
L 369.315861 278.123504 
L 369.947583 278.599453 
L 370.579305 281.770779 
L 371.211027 278.134684 
L 371.842749 278.603194 
L 372.474471 279.550358 
L 373.106193 278.442573 
L 373.737915 278.606102 
L 374.369637 279.177711 
L 375.001359 280.700409 
L 375.63308 277.688567 
L 376.264802 280.690791 
L 376.896524 278.667744 
L 377.528246 279.481998 
L 378.159968 281.47795 
L 379.423412 281.742708 
L 380.055134 279.241902 
L 380.686856 282.641051 
L 381.318578 278.161859 
L 381.9503 281.993604 
L 382.582022 283.089206 
L 383.213744 280.751307 
L 383.845466 279.44487 
L 384.477188 282.371929 
L 385.10891 279.966536 
L 385.740632 283.097135 
L 386.372354 281.282399 
L 387.004076 280.982873 
L 387.635798 282.584553 
L 388.26752 282.069169 
L 388.899241 281.280859 
L 389.530963 278.203489 
L 390.162685 282.494082 
L 390.794407 281.538218 
L 391.426129 281.486209 
L 392.057851 280.860634 
L 392.689573 280.929576 
L 393.321295 281.263114 
L 393.953017 282.442986 
L 394.584739 282.345941 
L 395.216461 283.551993 
L 396.479905 279.904568 
L 397.111627 282.416958 
L 397.743349 281.161773 
L 398.375071 283.929857 
L 399.006793 284.167594 
L 399.638515 282.70015 
L 400.270237 282.661018 
L 400.901959 281.15102 
L 401.533681 283.71935 
L 402.165402 284.26581 
L 402.797124 284.548831 
L 403.428846 281.910765 
L 404.060568 284.202959 
L 404.69229 284.741846 
L 405.324012 283.072627 
L 405.955734 285.680721 
L 406.587456 282.229806 
L 407.219178 284.435364 
L 407.8509 284.551063 
L 408.482622 285.447095 
L 409.114344 281.795208 
L 409.746066 283.404623 
L 410.377788 281.39879 
L 411.00951 283.646861 
L 411.641232 283.897758 
L 412.272954 283.559342 
L 412.904676 282.990055 
L 413.536398 283.57607 
L 414.16812 285.862526 
L 414.799842 284.137499 
L 415.431563 286.650122 
L 416.063285 284.791936 
L 416.695007 284.958646 
L 417.326729 285.007862 
L 417.958451 281.299059 
L 418.590173 283.272467 
L 419.221895 284.146731 
L 419.853617 284.114341 
L 420.485339 286.22056 
L 421.117061 285.94695 
L 421.748783 287.978505 
L 422.380505 285.90253 
L 423.012227 285.130321 
L 423.643949 286.082266 
L 424.275671 281.729537 
L 424.907393 285.833523 
L 425.539115 285.089578 
L 426.170837 285.182837 
L 426.802559 280.164624 
L 427.434281 287.491566 
L 428.066002 282.567891 
L 428.697724 284.464765 
L 429.329446 285.193999 
L 429.961168 285.712199 
L 430.59289 286.541348 
L 431.224612 287.066951 
L 431.856334 287.236581 
L 432.488056 287.702026 
L 433.119778 284.442018 
L 433.7515 287.818635 
L 434.383222 286.306758 
L 435.014944 285.55085 
L 435.646666 286.720257 
L 436.278388 286.016348 
L 436.91011 286.891031 
L 437.541832 283.973156 
L 438.173554 288.461562 
L 438.805276 286.084195 
L 439.436998 285.345892 
L 440.06872 286.555118 
L 440.700442 283.996282 
L 441.332163 287.524043 
L 441.963885 286.547164 
L 442.595607 282.443818 
L 443.227329 289.298186 
L 443.859051 286.837906 
L 444.490773 287.635259 
L 445.122495 288.030711 
L 445.754217 283.263577 
L 446.385939 289.082924 
L 447.649383 285.441342 
L 448.281105 288.537757 
L 448.912827 286.825063 
L 449.544549 287.562955 
L 450.176271 288.100215 
L 450.807993 289.410783 
L 451.439715 287.592961 
L 452.071437 286.811206 
L 452.703159 289.631003 
L 453.334881 285.976172 
L 453.966603 288.009601 
L 454.598324 288.527533 
L 455.230046 287.638058 
L 455.861768 287.803898 
L 456.49349 286.179429 
L 457.125212 286.005833 
L 457.756934 289.918307 
L 458.388656 287.586938 
L 459.020378 288.775876 
L 459.6521 287.016324 
L 460.283822 287.659962 
L 460.915544 287.54014 
L 461.547266 287.1897 
L 462.178988 290.923629 
L 462.81071 288.348345 
L 463.442432 286.91025 
L 464.074154 287.941335 
L 464.705876 288.543043 
L 465.337598 287.030693 
L 465.96932 288.325163 
L 466.601042 289.038614 
L 467.232764 289.50532 
L 467.864485 290.702135 
L 468.496207 290.066588 
L 469.127929 289.725394 
L 469.759651 290.641071 
L 470.391373 290.152918 
L 471.023095 290.010495 
L 471.654817 288.610513 
L 472.918261 290.622183 
L 473.549983 288.502647 
L 474.181705 288.215254 
L 474.813427 289.27325 
L 475.445149 291.861776 
L 476.076871 287.353486 
L 476.708593 289.051913 
L 477.340315 287.912337 
L 477.972037 292.321995 
L 478.603759 289.801134 
L 479.235481 287.938552 
L 479.867203 291.383903 
L 480.498924 290.221414 
L 481.130646 289.906605 
L 481.762368 290.057724 
L 483.025812 289.44045 
L 483.657534 289.705916 
L 484.289256 289.374861 
L 484.920978 288.14577 
L 485.5527 291.130328 
L 486.184422 291.282855 
L 486.816144 290.912142 
L 487.447866 291.235506 
L 488.079588 294.263784 
L 488.71131 291.288255 
L 489.343032 292.077509 
L 489.974754 292.153212 
L 490.606476 292.9857 
L 491.238198 292.971103 
L 491.86992 288.491803 
L 492.501642 288.341541 
L 493.133364 290.967339 
L 493.765085 287.363697 
L 494.396807 291.21632 
L 495.028529 289.28091 
L 495.660251 289.870179 
L 496.291973 293.801665 
L 496.923695 292.537725 
L 497.555417 289.96994 
L 498.187139 290.965006 
L 498.818861 291.09511 
L 499.450583 288.749299 
L 500.082305 292.495549 
L 500.714027 291.902141 
L 501.345749 293.749133 
L 502.609193 291.803215 
L 503.240915 292.696744 
L 503.872637 292.956648 
L 504.504359 292.73807 
L 505.136081 293.112598 
L 505.767803 289.662092 
L 506.399525 292.88262 
L 507.031246 293.800831 
L 507.662968 290.3679 
L 508.29469 293.019642 
L 508.926412 289.925652 
L 509.558134 293.667477 
L 510.189856 291.877612 
L 510.821578 292.236901 
L 511.4533 290.56079 
L 512.085022 294.437147 
L 512.716744 291.455255 
L 513.348466 292.968221 
L 513.980188 293.737107 
L 514.61191 291.553178 
L 515.243632 291.469441 
L 515.875354 293.447622 
L 516.507076 292.139708 
L 517.138798 292.510578 
L 517.77052 293.45439 
L 518.402242 290.474455 
L 519.033964 293.022774 
L 519.665685 293.41308 
L 520.297407 293.129878 
L 520.929129 293.411805 
L 521.560851 294.46508 
L 522.192573 293.097019 
L 522.824295 292.420124 
L 523.456017 291.323771 
L 524.087739 294.123517 
L 524.719461 294.325712 
L 525.351183 294.265076 
L 525.982905 293.660314 
L 526.614627 290.442639 
L 527.246349 291.396311 
L 527.878071 294.30024 
L 528.509793 294.891896 
L 529.141515 293.173784 
L 529.773237 291.900309 
L 530.404959 290.1032 
L 531.036681 292.536998 
L 531.668403 293.72366 
L 532.300125 291.428217 
L 532.931846 294.515166 
L 533.563568 295.454052 
L 534.19529 294.193652 
L 534.827012 290.432928 
L 535.458734 293.800435 
L 536.090456 293.457337 
L 536.722178 296.263881 
L 537.3539 294.858539 
L 537.985622 296.955074 
L 538.617344 292.138435 
L 539.249066 294.34456 
L 539.880788 295.833774 
L 540.51251 292.919097 
L 541.144232 297.034641 
L 541.775954 295.169514 
L 542.407676 293.827648 
L 543.039398 296.262923 
L 544.302842 295.769572 
L 544.934564 295.936595 
L 545.566286 297.521768 
L 546.198007 293.965559 
L 546.829729 293.409092 
L 547.461451 295.413491 
L 548.093173 293.207828 
L 548.724895 293.238449 
L 549.356617 294.486226 
L 549.988339 294.47537 
L 550.620061 296.061842 
L 551.251783 294.691638 
L 551.883505 296.712546 
L 552.515227 295.003875 
L 553.146949 295.425648 
L 553.778671 298.745606 
L 554.410393 293.796091 
L 555.042115 295.391498 
L 555.673837 296.602194 
L 556.305559 296.056883 
L 556.937281 293.808871 
L 557.569003 295.004072 
L 558.200725 295.638814 
L 558.832447 293.455428 
L 559.464168 295.557695 
L 560.09589 298.190451 
L 560.727612 295.65644 
L 561.359334 298.284355 
L 561.991056 295.162082 
L 562.622778 295.417593 
L 563.2545 295.257508 
L 563.886222 297.35609 
L 564.517944 294.517769 
L 565.149666 298.559288 
L 565.781388 295.089895 
L 566.41311 294.989824 
L 567.044832 299.996749 
L 567.676554 294.225227 
L 568.308276 293.998915 
L 568.939998 294.569895 
L 569.57172 290.929071 
L 570.203442 295.081458 
L 570.835164 296.211743 
L 571.466886 295.489317 
L 572.098607 299.17347 
L 572.730329 292.241116 
L 573.362051 296.085248 
L 573.993773 298.49222 
L 574.625495 293.90264 
L 575.257217 297.260431 
L 575.888939 297.484773 
L 576.520661 296.206081 
L 577.152383 295.443836 
L 577.784105 298.449526 
L 578.415827 295.908068 
L 579.047549 298.829962 
L 579.679271 295.873305 
L 580.310993 297.547879 
L 580.942715 299.958148 
L 581.574437 299.861588 
L 582.206159 297.029419 
L 582.837881 294.866016 
L 583.469603 295.530274 
L 584.101325 297.86676 
L 584.733047 296.071073 
L 585.364768 292.136658 
L 585.99649 295.236359 
L 586.628212 295.008598 
L 587.259934 298.615276 
L 587.891656 296.117601 
L 588.523378 296.088152 
L 589.786822 297.545876 
L 590.418544 296.513924 
L 591.050266 296.422426 
L 591.681988 293.344368 
L 592.31371 296.297191 
L 592.945432 297.819843 
L 593.577154 297.348986 
L 594.208876 294.886038 
L 594.840598 294.836754 
L 595.47232 296.192067 
L 596.104042 299.408578 
L 596.735764 297.37754 
L 597.367486 298.088218 
L 597.999208 302.645455 
L 598.630929 299.346167 
L 599.262651 298.874998 
L 599.894373 297.894018 
L 600.526095 298.565847 
L 601.157817 297.24526 
L 601.789539 299.815576 
L 603.052983 299.011141 
L 603.684705 296.644016 
L 604.316427 298.216035 
L 604.948149 298.638343 
L 605.579871 297.669002 
L 606.211593 294.979797 
L 606.843315 295.754118 
L 607.475037 299.043639 
L 608.106759 298.239294 
L 608.738481 295.550634 
L 609.370203 295.815006 
L 610.001925 298.393322 
L 610.633647 298.180758 
L 611.265369 296.660856 
L 611.89709 295.573114 
L 612.528812 297.494611 
L 613.160534 298.849027 
L 613.792256 298.2881 
L 614.423978 299.976151 
L 615.0557 299.160575 
L 615.687422 300.993781 
L 616.319144 297.253817 
L 616.950866 300.609908 
L 617.582588 298.243122 
L 618.21431 298.183603 
L 618.846032 297.649417 
L 619.477754 299.886153 
L 620.109476 298.369048 
L 620.741198 297.946818 
L 621.37292 298.539823 
L 622.004642 297.060449 
L 622.636364 297.037149 
L 622.636364 297.037149 
" style="fill:none;stroke:#1f77b4;stroke-linecap:square;stroke-width:0.5;"/>
   </g>
   <g id="line2d_34">
    <path clip-path="url(#pe2c4cbcc96)" d="M 115.363636 55.554545 
L 115.995358 67.834515 
L 116.62708 71.370433 
L 117.258802 72.44332 
L 117.890524 77.409903 
L 118.522246 81.05206 
L 119.153968 78.817859 
L 119.78569 79.618463 
L 120.417412 79.417556 
L 121.049134 83.994623 
L 121.680856 83.010779 
L 122.312578 84.81357 
L 122.9443 85.054118 
L 123.576022 88.172453 
L 124.207744 83.72967 
L 124.839466 85.289282 
L 125.471188 86.432719 
L 126.10291 89.588241 
L 126.734631 88.931292 
L 127.366353 89.110415 
L 127.998075 92.416077 
L 128.629797 91.475447 
L 129.261519 91.234494 
L 129.893241 92.633466 
L 130.524963 94.457424 
L 131.156685 93.338639 
L 131.788407 94.113037 
L 132.420129 96.806596 
L 133.051851 97.063262 
L 133.683573 98.327289 
L 134.315295 98.051538 
L 134.947017 98.090415 
L 135.578739 100.784973 
L 136.210461 101.074462 
L 136.842183 104.966479 
L 137.473905 105.500318 
L 138.105627 106.74795 
L 138.737349 106.986432 
L 139.369071 109.303499 
L 140.000792 113.646839 
L 140.632514 116.633683 
L 141.264236 118.386784 
L 141.895958 119.444569 
L 142.52768 121.779658 
L 143.791124 127.55955 
L 144.422846 132.633657 
L 145.054568 133.643899 
L 145.68629 136.807794 
L 146.949734 141.307657 
L 147.581456 146.769771 
L 148.8449 152.446504 
L 149.476622 157.828541 
L 150.108344 160.890394 
L 150.740066 162.829528 
L 151.371788 167.541481 
L 152.00351 170.467923 
L 152.635232 171.458506 
L 153.266953 175.201647 
L 153.898675 176.582562 
L 154.530397 180.855048 
L 155.162119 182.392799 
L 155.793841 184.952907 
L 156.425563 186.289192 
L 157.057285 188.692886 
L 157.689007 190.133765 
L 158.320729 192.015174 
L 158.952451 192.721307 
L 159.584173 192.698308 
L 160.215895 196.204934 
L 160.847617 196.224632 
L 161.479339 197.433606 
L 162.111061 196.468919 
L 162.742783 200.917555 
L 163.374505 200.122273 
L 164.006227 200.776125 
L 164.637949 205.388321 
L 165.269671 204.598999 
L 165.901393 203.326588 
L 166.533114 207.738061 
L 167.164836 203.898053 
L 167.796558 206.239587 
L 168.42828 207.612917 
L 169.060002 211.132266 
L 169.691724 208.443204 
L 170.955168 212.188681 
L 171.58689 207.032855 
L 172.218612 211.727951 
L 172.850334 211.655105 
L 173.482056 210.625912 
L 174.113778 211.59412 
L 174.7455 214.762148 
L 175.377222 212.830093 
L 176.008944 212.377678 
L 176.640666 217.673554 
L 177.272388 217.539806 
L 177.90411 218.034581 
L 178.535832 215.457527 
L 179.167553 217.726446 
L 179.799275 217.456741 
L 181.062719 220.277773 
L 182.326163 216.550365 
L 182.957885 221.198934 
L 183.589607 222.142364 
L 184.221329 222.150302 
L 184.853051 221.198108 
L 185.484773 223.673363 
L 186.116495 221.480187 
L 186.748217 220.505724 
L 187.379939 223.486599 
L 188.011661 223.992874 
L 188.643383 224.078718 
L 189.275105 222.670549 
L 190.538549 225.972613 
L 191.170271 224.938822 
L 191.801993 227.677514 
L 192.433714 224.976154 
L 193.065436 226.054872 
L 193.697158 228.999504 
L 194.32888 226.954362 
L 195.592324 227.430014 
L 196.224046 226.501217 
L 196.855768 229.008751 
L 197.48749 230.504753 
L 198.119212 232.695561 
L 198.750934 230.019749 
L 199.382656 231.821137 
L 200.014378 226.387193 
L 200.6461 232.473374 
L 201.277822 231.020744 
L 201.909544 230.186429 
L 202.541266 232.797586 
L 203.172988 232.439735 
L 203.80471 232.456296 
L 204.436432 230.481751 
L 205.068154 233.450634 
L 205.699875 233.461825 
L 206.331597 230.948201 
L 206.963319 231.812297 
L 207.595041 233.205197 
L 208.226763 234.96856 
L 208.858485 232.118007 
L 209.490207 230.643431 
L 210.121929 233.387862 
L 210.753651 234.433253 
L 211.385373 233.524816 
L 212.017095 235.586891 
L 212.648817 234.233807 
L 213.280539 236.876244 
L 213.912261 234.007307 
L 214.543983 237.885103 
L 215.175705 234.124837 
L 215.807427 233.657164 
L 217.070871 235.549671 
L 217.702593 236.725417 
L 218.334315 233.622347 
L 218.966036 235.208006 
L 219.597758 235.684327 
L 220.22948 236.799783 
L 220.861202 236.898004 
L 221.492924 237.472301 
L 222.124646 241.306422 
L 222.756368 235.438106 
L 223.38809 237.249094 
L 224.019812 235.464249 
L 224.651534 237.047214 
L 225.283256 239.715214 
L 225.914978 236.225164 
L 226.5467 239.600413 
L 227.178422 236.927779 
L 227.810144 236.322467 
L 228.441866 238.254299 
L 229.073588 236.365738 
L 229.70531 239.469468 
L 230.337032 241.489075 
L 230.968754 241.23781 
L 231.600475 240.593088 
L 232.232197 241.856665 
L 232.863919 238.972366 
L 233.495641 237.982302 
L 234.759085 240.994229 
L 235.390807 237.367828 
L 236.022529 241.404455 
L 236.654251 239.393842 
L 237.285973 238.39297 
L 237.917695 242.202058 
L 238.549417 240.092748 
L 239.181139 239.418693 
L 239.812861 241.181299 
L 240.444583 244.443407 
L 241.076305 241.793565 
L 241.708027 242.955081 
L 242.339749 241.54275 
L 242.971471 241.206066 
L 243.603193 242.355499 
L 244.234915 242.973281 
L 244.866636 241.587832 
L 245.498358 244.071141 
L 246.13008 241.841492 
L 246.761802 242.42039 
L 247.393524 240.132848 
L 248.025246 244.609048 
L 248.656968 241.539236 
L 249.28869 241.368284 
L 249.920412 245.603988 
L 250.552134 244.493877 
L 251.183856 239.71255 
L 251.815578 244.485903 
L 252.4473 243.451168 
L 253.079022 244.497012 
L 253.710744 243.931415 
L 254.342466 242.658898 
L 254.974188 242.261358 
L 255.60591 244.803618 
L 256.237632 244.971743 
L 256.869354 240.972945 
L 257.501076 242.7614 
L 258.132797 241.607503 
L 259.396241 245.338576 
L 260.027963 246.263788 
L 260.659685 244.726563 
L 261.291407 240.937264 
L 261.923129 241.934008 
L 262.554851 243.4065 
L 263.186573 245.812975 
L 263.818295 246.875584 
L 264.450017 243.683219 
L 265.713461 246.615094 
L 266.345183 245.946799 
L 266.976905 245.515301 
L 267.608627 242.565159 
L 268.240349 244.564101 
L 268.872071 245.323984 
L 269.503793 246.599753 
L 270.135515 242.741209 
L 270.767236 243.628787 
L 271.398958 243.041599 
L 272.03068 246.088703 
L 272.662402 246.194996 
L 273.294124 241.098094 
L 273.925846 247.486078 
L 274.557568 244.28052 
L 275.18929 248.315251 
L 275.821012 248.42656 
L 276.452734 244.356373 
L 277.084456 246.577243 
L 277.716178 244.877205 
L 278.3479 246.174121 
L 278.979622 245.928472 
L 279.611344 244.921748 
L 280.243066 250.492039 
L 280.874788 248.693345 
L 281.50651 247.909766 
L 282.138232 248.700873 
L 282.769954 244.773105 
L 283.401676 245.625305 
L 284.033397 243.902706 
L 284.665119 248.28617 
L 285.296841 245.567108 
L 285.928563 246.881245 
L 286.560285 246.941596 
L 287.192007 246.118914 
L 287.823729 247.715783 
L 288.455451 250.337732 
L 289.087173 246.094133 
L 289.718895 246.525553 
L 290.350617 246.05011 
L 290.982339 244.803767 
L 291.614061 248.397932 
L 292.245783 243.546941 
L 292.877505 249.85434 
L 293.509227 247.134064 
L 294.140949 248.87531 
L 294.772671 246.465886 
L 295.404393 248.947469 
L 296.036115 250.391361 
L 296.667837 246.989237 
L 297.299558 251.539612 
L 297.93128 249.233083 
L 298.563002 249.308532 
L 299.194724 247.56581 
L 299.826446 246.727201 
L 300.458168 248.214524 
L 301.08989 248.433028 
L 301.721612 250.239987 
L 302.353334 247.393862 
L 302.985056 251.226817 
L 303.616778 247.828107 
L 304.880222 248.436098 
L 305.511944 246.709277 
L 306.143666 247.028206 
L 306.775388 246.697434 
L 307.40711 246.08551 
L 308.038832 252.33144 
L 308.670554 247.202404 
L 309.302276 248.649735 
L 309.933998 245.34334 
L 311.197441 250.940965 
L 311.829163 250.247613 
L 312.460885 249.160472 
L 313.092607 247.272594 
L 313.724329 247.334796 
L 314.356051 248.990892 
L 314.987773 248.282106 
L 315.619495 247.213406 
L 316.251217 248.564479 
L 316.882939 246.578633 
L 317.514661 251.039941 
L 318.146383 250.5972 
L 318.778105 248.614025 
L 319.409827 252.193657 
L 320.041549 252.231264 
L 320.673271 248.512647 
L 321.304993 247.87297 
L 321.936715 253.560958 
L 322.568437 250.137105 
L 323.200158 248.29902 
L 323.83188 249.585005 
L 324.463602 248.871265 
L 325.095324 253.075958 
L 325.727046 247.189449 
L 326.358768 250.267278 
L 326.99049 250.750315 
L 327.622212 252.153933 
L 328.253934 248.703772 
L 328.885656 250.835827 
L 329.517378 247.555126 
L 330.1491 250.582924 
L 330.780822 248.595824 
L 331.412544 248.519648 
L 332.044266 251.14619 
L 332.675988 249.629076 
L 333.30771 252.600508 
L 333.939432 250.294844 
L 334.571154 249.027063 
L 335.202876 251.863858 
L 335.834598 249.148546 
L 336.466319 249.092079 
L 337.098041 252.638818 
L 337.729763 252.988417 
L 338.361485 248.418036 
L 338.993207 251.317206 
L 339.624929 249.010451 
L 340.256651 251.508741 
L 340.888373 249.621476 
L 341.520095 249.035932 
L 342.151817 249.655972 
L 342.783539 253.1755 
L 343.415261 250.569776 
L 344.046983 252.44755 
L 344.678705 249.976773 
L 345.310427 248.990628 
L 345.942149 247.23425 
L 346.573871 252.670912 
L 347.205593 249.964952 
L 347.837315 253.132801 
L 348.469037 252.51796 
L 349.100759 248.836784 
L 349.73248 251.478464 
L 350.364202 252.126394 
L 350.995924 248.218643 
L 351.627646 249.481398 
L 352.259368 248.480822 
L 352.89109 251.918799 
L 353.522812 249.116167 
L 354.154534 252.044794 
L 354.786256 251.823808 
L 355.417978 251.951607 
L 356.0497 249.48848 
L 356.681422 252.758394 
L 357.313144 250.245652 
L 357.944866 250.974131 
L 358.576588 249.95694 
L 359.20831 253.29748 
L 359.840032 253.025921 
L 360.471754 249.169478 
L 361.735198 251.24488 
L 362.998641 252.387885 
L 363.630363 248.934947 
L 364.262085 253.68258 
L 364.893807 251.486676 
L 366.157251 252.980757 
L 366.788973 252.44573 
L 367.420695 251.233059 
L 368.052417 250.683404 
L 368.684139 251.274078 
L 369.315861 255.424478 
L 369.947583 249.565939 
L 370.579305 252.303942 
L 371.211027 250.144993 
L 371.842749 251.188634 
L 372.474471 251.360698 
L 373.106193 249.534967 
L 373.737915 250.579181 
L 374.369637 250.772476 
L 375.001359 247.637674 
L 375.63308 252.894876 
L 376.264802 249.908532 
L 376.896524 250.325218 
L 377.528246 249.526032 
L 378.159968 252.653803 
L 378.79169 254.346103 
L 379.423412 254.203395 
L 380.055134 251.491875 
L 380.686856 251.054372 
L 381.318578 251.703141 
L 381.9503 250.929062 
L 382.582022 251.739176 
L 383.845466 251.738379 
L 384.477188 251.267932 
L 385.10891 251.666683 
L 385.740632 251.30787 
L 386.372354 252.504968 
L 387.004076 247.284177 
L 387.635798 249.242094 
L 388.26752 247.330244 
L 388.899241 249.83171 
L 389.530963 254.113116 
L 390.162685 249.979443 
L 390.794407 252.188541 
L 391.426129 251.268674 
L 392.057851 253.902734 
L 392.689573 251.152622 
L 393.321295 251.089624 
L 393.953017 252.023894 
L 394.584739 250.286945 
L 395.848183 252.660922 
L 396.479905 250.695474 
L 397.111627 250.39519 
L 397.743349 249.097698 
L 398.375071 254.712237 
L 399.006793 251.233855 
L 400.270237 253.563836 
L 400.901959 252.74 
L 401.533681 249.198266 
L 402.165402 254.03719 
L 402.797124 252.58309 
L 403.428846 253.213495 
L 404.060568 250.66359 
L 404.69229 251.130347 
L 405.324012 254.825045 
L 405.955734 251.501834 
L 406.587456 251.916089 
L 407.219178 249.85786 
L 407.8509 252.731247 
L 408.482622 248.12243 
L 409.114344 249.706127 
L 409.746066 249.68875 
L 410.377788 253.145018 
L 411.00951 252.594463 
L 411.641232 252.819565 
L 412.272954 251.015383 
L 412.904676 252.452995 
L 413.536398 254.763841 
L 414.16812 250.68665 
L 414.799842 253.295632 
L 415.431563 253.255935 
L 416.063285 250.930351 
L 416.695007 252.638745 
L 417.326729 252.364155 
L 417.958451 250.622092 
L 418.590173 250.638653 
L 419.221895 250.016966 
L 419.853617 250.962297 
L 420.485339 252.366006 
L 421.117061 253.263669 
L 421.748783 252.027297 
L 422.380505 251.502881 
L 423.012227 252.577774 
L 423.643949 250.268848 
L 424.275671 249.433625 
L 424.907393 251.678541 
L 425.539115 252.613273 
L 426.170837 249.636414 
L 426.802559 248.418983 
L 427.434281 250.824339 
L 428.697724 254.106403 
L 429.329446 253.396397 
L 429.961168 251.645893 
L 430.59289 251.34899 
L 431.224612 252.43663 
L 431.856334 251.98156 
L 432.488056 253.735838 
L 433.7515 250.579181 
L 434.383222 250.965633 
L 435.014944 254.152789 
L 435.646666 251.767801 
L 436.278388 253.896893 
L 436.91011 252.971097 
L 437.541832 254.786089 
L 438.173554 256.147317 
L 438.805276 250.480147 
L 439.436998 250.846968 
L 440.06872 252.160901 
L 440.700442 250.307865 
L 441.332163 253.995372 
L 441.963885 254.22142 
L 442.595607 253.798533 
L 443.227329 248.195402 
L 443.859051 251.065028 
L 444.490773 254.484544 
L 445.122495 254.36544 
L 445.754217 253.618257 
L 446.385939 250.823183 
L 447.017661 249.742058 
L 447.649383 248.94909 
L 448.281105 249.889807 
L 448.912827 254.331147 
L 449.544549 251.846899 
L 450.176271 253.771012 
L 450.807993 250.83271 
L 451.439715 252.677196 
L 452.071437 247.961343 
L 452.703159 251.108495 
L 453.334881 252.936279 
L 453.966603 252.359743 
L 454.598324 250.600286 
L 455.230046 250.222511 
L 455.861768 251.404793 
L 456.49349 251.194739 
L 457.125212 253.387939 
L 457.756934 252.65243 
L 458.388656 252.478199 
L 459.020378 252.96516 
L 459.6521 252.657826 
L 460.283822 253.954281 
L 460.915544 253.353297 
L 461.547266 255.354687 
L 462.178988 251.880975 
L 462.81071 244.363656 
L 463.442432 251.905159 
L 464.074154 253.151222 
L 464.705876 256.205294 
L 465.337598 253.44643 
L 465.96932 249.083762 
L 466.601042 250.49062 
L 467.232764 251.144439 
L 467.864485 249.659527 
L 468.496207 255.217425 
L 469.759651 246.933443 
L 470.391373 253.123516 
L 471.023095 252.207742 
L 471.654817 250.842111 
L 472.286539 247.04869 
L 472.918261 251.0977 
L 474.181705 252.165097 
L 474.813427 250.198737 
L 476.076871 250.391514 
L 476.708593 255.041836 
L 477.340315 249.673955 
L 477.972037 251.405655 
L 478.603759 251.409202 
L 479.235481 250.326871 
L 479.867203 251.897343 
L 480.498924 249.417235 
L 481.130646 251.23868 
L 481.762368 247.929195 
L 483.025812 252.937493 
L 483.657534 249.211583 
L 484.289256 248.820927 
L 484.920978 252.478177 
L 485.5527 251.857658 
L 486.184422 253.376206 
L 487.447866 249.318012 
L 488.079588 250.814504 
L 488.71131 249.309274 
L 489.343032 252.063325 
L 489.974754 250.659885 
L 490.606476 252.487689 
L 491.86992 249.575937 
L 493.133364 254.667731 
L 493.765085 253.54682 
L 494.396807 250.629606 
L 495.028529 250.136369 
L 495.660251 255.279573 
L 496.291973 253.425656 
L 496.923695 250.950088 
L 497.555417 250.18236 
L 498.187139 245.333778 
L 498.818861 248.989513 
L 499.450583 251.606807 
L 500.082305 248.516995 
L 500.714027 252.880505 
L 501.345749 250.439514 
L 501.977471 250.92336 
L 502.609193 250.081175 
L 503.240915 254.033374 
L 503.872637 252.164454 
L 504.504359 252.326769 
L 505.136081 250.800112 
L 505.767803 253.306854 
L 507.031246 251.45941 
L 507.662968 253.407985 
L 508.29469 248.279056 
L 508.926412 253.603765 
L 509.558134 249.314055 
L 510.189856 248.983003 
L 510.821578 252.772554 
L 511.4533 251.238552 
L 512.085022 254.185665 
L 512.716744 252.119235 
L 513.348466 248.787247 
L 513.980188 251.404301 
L 514.61191 252.22039 
L 515.243632 250.161173 
L 515.875354 252.136532 
L 516.507076 251.140313 
L 517.138798 249.75832 
L 517.77052 253.597951 
L 518.402242 250.346885 
L 519.033964 250.299527 
L 519.665685 250.11053 
L 520.297407 250.120296 
L 520.929129 249.307808 
L 521.560851 247.018161 
L 522.192573 250.989259 
L 522.824295 252.591588 
L 523.456017 250.409332 
L 524.087739 250.138782 
L 524.719461 250.026424 
L 525.351183 249.086534 
L 525.982905 254.145895 
L 526.614627 253.443805 
L 527.246349 248.882563 
L 527.878071 253.442132 
L 528.509793 252.213345 
L 529.141515 252.406136 
L 529.773237 250.131116 
L 530.404959 251.998042 
L 531.036681 252.847794 
L 531.668403 247.785724 
L 532.300125 253.90098 
L 532.931846 250.002661 
L 533.563568 252.386309 
L 534.19529 249.117115 
L 534.827012 251.596122 
L 535.458734 251.430437 
L 536.090456 254.409474 
L 536.722178 249.17687 
L 537.3539 248.316803 
L 537.985622 251.622538 
L 538.617344 249.300535 
L 539.249066 251.69566 
L 539.880788 248.696333 
L 540.51251 254.352927 
L 541.144232 248.947518 
L 541.775954 247.591576 
L 542.407676 251.086455 
L 543.039398 247.775796 
L 543.67112 253.057872 
L 544.302842 246.937431 
L 544.934564 250.661419 
L 545.566286 252.207636 
L 546.198007 254.329724 
L 546.829729 251.477092 
L 547.461451 247.462543 
L 548.093173 251.149108 
L 548.724895 251.515371 
L 549.356617 253.881831 
L 550.620061 250.256001 
L 551.251783 253.205099 
L 551.883505 250.011938 
L 552.515227 250.121871 
L 553.146949 253.615641 
L 553.778671 250.186822 
L 554.410393 252.45735 
L 555.042115 248.015938 
L 555.673837 254.579356 
L 556.305559 250.978833 
L 556.937281 252.299802 
L 557.569003 249.721333 
L 558.200725 247.966337 
L 558.832447 252.709401 
L 559.464168 249.22983 
L 560.09589 251.717201 
L 560.727612 249.137729 
L 561.359334 251.173614 
L 561.991056 250.149438 
L 562.622778 251.406402 
L 563.2545 243.907203 
L 563.886222 250.901067 
L 564.517944 251.409419 
L 565.149666 250.105946 
L 565.781388 250.497618 
L 566.41311 251.404794 
L 567.044832 248.916931 
L 567.676554 251.159859 
L 568.308276 250.455931 
L 568.939998 253.304234 
L 569.57172 245.9811 
L 570.203442 247.91221 
L 570.835164 251.171866 
L 571.466886 251.062756 
L 572.098607 249.160345 
L 572.730329 250.172594 
L 573.362051 252.659929 
L 573.993773 248.638668 
L 575.257217 252.428017 
L 575.888939 251.254222 
L 576.520661 248.356323 
L 577.152383 249.557711 
L 577.784105 251.370503 
L 578.415827 249.276997 
L 579.047549 250.344688 
L 579.679271 252.014884 
L 580.310993 251.291617 
L 580.942715 251.355031 
L 581.574437 251.673982 
L 582.837881 246.447661 
L 583.469603 246.39256 
L 585.364768 251.020507 
L 585.99649 251.802779 
L 586.628212 249.226092 
L 587.259934 247.999873 
L 587.891656 250.285892 
L 588.523378 252.073463 
L 589.1551 252.526789 
L 589.786822 246.128427 
L 590.418544 249.081991 
L 591.050266 249.00296 
L 591.681988 252.005972 
L 592.31371 251.517948 
L 592.945432 251.436609 
L 593.577154 253.818559 
L 594.208876 250.447309 
L 594.840598 251.403114 
L 595.47232 255.055855 
L 596.104042 252.55052 
L 596.735764 251.461283 
L 597.367486 249.919046 
L 597.999208 251.170974 
L 598.630929 249.419992 
L 599.262651 250.303102 
L 599.894373 251.55593 
L 600.526095 249.263142 
L 601.157817 249.977704 
L 601.789539 252.146784 
L 602.421261 251.057392 
L 603.052983 251.486737 
L 604.316427 249.639718 
L 604.948149 244.867877 
L 605.579871 249.336912 
L 606.211593 252.443091 
L 606.843315 251.398457 
L 607.475037 250.797931 
L 608.106759 247.969645 
L 608.738481 247.934822 
L 609.370203 250.413782 
L 610.001925 249.822781 
L 610.633647 251.436661 
L 611.265369 250.276957 
L 611.89709 246.989672 
L 612.528812 252.083949 
L 613.160534 248.003411 
L 613.792256 249.742809 
L 614.423978 251.105714 
L 615.0557 250.723533 
L 615.687422 250.759114 
L 616.319144 249.660156 
L 616.950866 247.672426 
L 617.582588 249.92632 
L 618.21431 249.251747 
L 618.846032 248.045002 
L 619.477754 249.917607 
L 620.109476 250.244036 
L 620.741198 251.547943 
L 621.37292 245.547682 
L 622.004642 247.593088 
L 622.636364 245.435819 
L 622.636364 245.435819 
" style="fill:none;stroke:#ff7f0e;stroke-linecap:square;stroke-width:0.5;"/>
   </g>
   <g id="patch_3">
    <path d="M 90 315 
L 90 43.2 
" style="fill:none;stroke:#000000;stroke-linecap:square;stroke-linejoin:miter;stroke-width:0.8;"/>
   </g>
   <g id="patch_4">
    <path d="M 648 315 
L 648 43.2 
" style="fill:none;stroke:#000000;stroke-linecap:square;stroke-linejoin:miter;stroke-width:0.8;"/>
   </g>
   <g id="patch_5">
    <path d="M 90 315 
L 648 315 
" style="fill:none;stroke:#000000;stroke-linecap:square;stroke-linejoin:miter;stroke-width:0.8;"/>
   </g>
   <g id="patch_6">
    <path d="M 90 43.2 
L 648 43.2 
" style="fill:none;stroke:#000000;stroke-linecap:square;stroke-linejoin:miter;stroke-width:0.8;"/>
   </g>
   <g id="text_19">
    <!-- loss -->
    <g transform="translate(357.410625 37.2)scale(0.12 -0.12)">
     <use xlink:href="#DejaVuSans-108"/>
     <use x="27.783203" xlink:href="#DejaVuSans-111"/>
     <use x="88.964844" xlink:href="#DejaVuSans-115"/>
     <use x="141.064453" xlink:href="#DejaVuSans-115"/>
    </g>
   </g>
   <g id="legend_1">
    <g id="patch_7">
     <path d="M 568.846875 80.55625 
L 641 80.55625 
Q 643 80.55625 643 78.55625 
L 643 50.2 
Q 643 48.2 641 48.2 
L 568.846875 48.2 
Q 566.846875 48.2 566.846875 50.2 
L 566.846875 78.55625 
Q 566.846875 80.55625 568.846875 80.55625 
z
" style="fill:#ffffff;opacity:0.8;stroke:#cccccc;stroke-linejoin:miter;"/>
    </g>
    <g id="line2d_35">
     <path d="M 570.846875 56.298437 
L 590.846875 56.298437 
" style="fill:none;stroke:#1f77b4;stroke-linecap:square;stroke-width:0.5;"/>
    </g>
    <g id="line2d_36"/>
    <g id="text_20">
     <!-- train -->
     <defs>
      <path d="M 18.3125 70.21875 
L 18.3125 54.6875 
L 36.8125 54.6875 
L 36.8125 47.703125 
L 18.3125 47.703125 
L 18.3125 18.015625 
Q 18.3125 11.328125 20.140625 9.421875 
Q 21.96875 7.515625 27.59375 7.515625 
L 36.8125 7.515625 
L 36.8125 0 
L 27.59375 0 
Q 17.1875 0 13.234375 3.875 
Q 9.28125 7.765625 9.28125 18.015625 
L 9.28125 47.703125 
L 2.6875 47.703125 
L 2.6875 54.6875 
L 9.28125 54.6875 
L 9.28125 70.21875 
z
" id="DejaVuSans-116"/>
      <path d="M 41.109375 46.296875 
Q 39.59375 47.171875 37.8125 47.578125 
Q 36.03125 48 33.890625 48 
Q 26.265625 48 22.1875 43.046875 
Q 18.109375 38.09375 18.109375 28.8125 
L 18.109375 0 
L 9.078125 0 
L 9.078125 54.6875 
L 18.109375 54.6875 
L 18.109375 46.1875 
Q 20.953125 51.171875 25.484375 53.578125 
Q 30.03125 56 36.53125 56 
Q 37.453125 56 38.578125 55.875 
Q 39.703125 55.765625 41.0625 55.515625 
z
" id="DejaVuSans-114"/>
      <path d="M 34.28125 27.484375 
Q 23.390625 27.484375 19.1875 25 
Q 14.984375 22.515625 14.984375 16.5 
Q 14.984375 11.71875 18.140625 8.90625 
Q 21.296875 6.109375 26.703125 6.109375 
Q 34.1875 6.109375 38.703125 11.40625 
Q 43.21875 16.703125 43.21875 25.484375 
L 43.21875 27.484375 
z
M 52.203125 31.203125 
L 52.203125 0 
L 43.21875 0 
L 43.21875 8.296875 
Q 40.140625 3.328125 35.546875 0.953125 
Q 30.953125 -1.421875 24.3125 -1.421875 
Q 15.921875 -1.421875 10.953125 3.296875 
Q 6 8.015625 6 15.921875 
Q 6 25.140625 12.171875 29.828125 
Q 18.359375 34.515625 30.609375 34.515625 
L 43.21875 34.515625 
L 43.21875 35.40625 
Q 43.21875 41.609375 39.140625 45 
Q 35.0625 48.390625 27.6875 48.390625 
Q 23 48.390625 18.546875 47.265625 
Q 14.109375 46.140625 10.015625 43.890625 
L 10.015625 52.203125 
Q 14.9375 54.109375 19.578125 55.046875 
Q 24.21875 56 28.609375 56 
Q 40.484375 56 46.34375 49.84375 
Q 52.203125 43.703125 52.203125 31.203125 
z
" id="DejaVuSans-97"/>
      <path d="M 9.421875 54.6875 
L 18.40625 54.6875 
L 18.40625 0 
L 9.421875 0 
z
M 9.421875 75.984375 
L 18.40625 75.984375 
L 18.40625 64.59375 
L 9.421875 64.59375 
z
" id="DejaVuSans-105"/>
      <path d="M 54.890625 33.015625 
L 54.890625 0 
L 45.90625 0 
L 45.90625 32.71875 
Q 45.90625 40.484375 42.875 44.328125 
Q 39.84375 48.1875 33.796875 48.1875 
Q 26.515625 48.1875 22.3125 43.546875 
Q 18.109375 38.921875 18.109375 30.90625 
L 18.109375 0 
L 9.078125 0 
L 9.078125 54.6875 
L 18.109375 54.6875 
L 18.109375 46.1875 
Q 21.34375 51.125 25.703125 53.5625 
Q 30.078125 56 35.796875 56 
Q 45.21875 56 50.046875 50.171875 
Q 54.890625 44.34375 54.890625 33.015625 
z
" id="DejaVuSans-110"/>
     </defs>
     <g transform="translate(598.846875 59.798437)scale(0.1 -0.1)">
      <use xlink:href="#DejaVuSans-116"/>
      <use x="39.208984" xlink:href="#DejaVuSans-114"/>
      <use x="80.322266" xlink:href="#DejaVuSans-97"/>
      <use x="141.601562" xlink:href="#DejaVuSans-105"/>
      <use x="169.384766" xlink:href="#DejaVuSans-110"/>
     </g>
    </g>
    <g id="line2d_37">
     <path d="M 570.846875 70.976562 
L 590.846875 70.976562 
" style="fill:none;stroke:#ff7f0e;stroke-linecap:square;stroke-width:0.5;"/>
    </g>
    <g id="line2d_38"/>
    <g id="text_21">
     <!-- validate -->
     <defs>
      <path d="M 2.984375 54.6875 
L 12.5 54.6875 
L 29.59375 8.796875 
L 46.6875 54.6875 
L 56.203125 54.6875 
L 35.6875 0 
L 23.484375 0 
z
" id="DejaVuSans-118"/>
      <path d="M 45.40625 46.390625 
L 45.40625 75.984375 
L 54.390625 75.984375 
L 54.390625 0 
L 45.40625 0 
L 45.40625 8.203125 
Q 42.578125 3.328125 38.25 0.953125 
Q 33.9375 -1.421875 27.875 -1.421875 
Q 17.96875 -1.421875 11.734375 6.484375 
Q 5.515625 14.40625 5.515625 27.296875 
Q 5.515625 40.1875 11.734375 48.09375 
Q 17.96875 56 27.875 56 
Q 33.9375 56 38.25 53.625 
Q 42.578125 51.265625 45.40625 46.390625 
z
M 14.796875 27.296875 
Q 14.796875 17.390625 18.875 11.75 
Q 22.953125 6.109375 30.078125 6.109375 
Q 37.203125 6.109375 41.296875 11.75 
Q 45.40625 17.390625 45.40625 27.296875 
Q 45.40625 37.203125 41.296875 42.84375 
Q 37.203125 48.484375 30.078125 48.484375 
Q 22.953125 48.484375 18.875 42.84375 
Q 14.796875 37.203125 14.796875 27.296875 
z
" id="DejaVuSans-100"/>
     </defs>
     <g transform="translate(598.846875 74.476562)scale(0.1 -0.1)">
      <use xlink:href="#DejaVuSans-118"/>
      <use x="59.179688" xlink:href="#DejaVuSans-97"/>
      <use x="120.458984" xlink:href="#DejaVuSans-108"/>
      <use x="148.242188" xlink:href="#DejaVuSans-105"/>
      <use x="176.025391" xlink:href="#DejaVuSans-100"/>
      <use x="239.501953" xlink:href="#DejaVuSans-97"/>
      <use x="300.78125" xlink:href="#DejaVuSans-116"/>
      <use x="339.990234" xlink:href="#DejaVuSans-101"/>
     </g>
    </g>
   </g>
  </g>
 </g>
 <defs>
  <clipPath id="pe2c4cbcc96">
   <rect height="271.8" width="558" x="90" y="43.2"/>
  </clipPath>
 </defs>
</svg>
