<?xml version="1.0" encoding="utf-8" standalone="no"?>
<!DOCTYPE svg PUBLIC "-//W3C//DTD SVG 1.1//EN"
  "http://www.w3.org/Graphics/SVG/1.1/DTD/svg11.dtd">
<!-- Created with matplotlib (https://matplotlib.org/) -->
<svg height="360pt" version="1.1" viewBox="0 0 720 360" width="720pt" xmlns="http://www.w3.org/2000/svg" xmlns:xlink="http://www.w3.org/1999/xlink">
 <defs>
  <style type="text/css">
*{stroke-linecap:butt;stroke-linejoin:round;}
  </style>
 </defs>
 <g id="figure_1">
  <g id="patch_1">
   <path d="M 0 360 
L 720 360 
L 720 0 
L 0 0 
z
" style="fill:#ffffff;"/>
  </g>
  <g id="axes_1">
   <g id="patch_2">
    <path d="M 90 315 
L 648 315 
L 648 43.2 
L 90 43.2 
z
" style="fill:#ffffff;"/>
   </g>
   <g id="matplotlib.axis_1">
    <g id="xtick_1">
     <g id="line2d_1">
      <path clip-path="url(#p9fdd98a4e5)" d="M 115.363636 315 
L 115.363636 43.2 
" style="fill:none;stroke:#b0b0b0;stroke-linecap:square;stroke-width:0.8;"/>
     </g>
     <g id="line2d_2">
      <defs>
       <path d="M 0 0 
L 0 3.5 
" id="m1de0a41645" style="stroke:#000000;stroke-width:0.8;"/>
      </defs>
      <g>
       <use style="stroke:#000000;stroke-width:0.8;" x="115.363636" xlink:href="#m1de0a41645" y="315"/>
      </g>
     </g>
     <g id="text_1">
      <!-- 0 -->
      <defs>
       <path d="M 31.78125 66.40625 
Q 24.171875 66.40625 20.328125 58.90625 
Q 16.5 51.421875 16.5 36.375 
Q 16.5 21.390625 20.328125 13.890625 
Q 24.171875 6.390625 31.78125 6.390625 
Q 39.453125 6.390625 43.28125 13.890625 
Q 47.125 21.390625 47.125 36.375 
Q 47.125 51.421875 43.28125 58.90625 
Q 39.453125 66.40625 31.78125 66.40625 
z
M 31.78125 74.21875 
Q 44.046875 74.21875 50.515625 64.515625 
Q 56.984375 54.828125 56.984375 36.375 
Q 56.984375 17.96875 50.515625 8.265625 
Q 44.046875 -1.421875 31.78125 -1.421875 
Q 19.53125 -1.421875 13.0625 8.265625 
Q 6.59375 17.96875 6.59375 36.375 
Q 6.59375 54.828125 13.0625 64.515625 
Q 19.53125 74.21875 31.78125 74.21875 
z
" id="DejaVuSans-48"/>
      </defs>
      <g transform="translate(112.182386 329.598437)scale(0.1 -0.1)">
       <use xlink:href="#DejaVuSans-48"/>
      </g>
     </g>
    </g>
    <g id="xtick_2">
     <g id="line2d_3">
      <path clip-path="url(#p9fdd98a4e5)" d="M 189.580568 315 
L 189.580568 43.2 
" style="fill:none;stroke:#b0b0b0;stroke-linecap:square;stroke-width:0.8;"/>
     </g>
     <g id="line2d_4">
      <g>
       <use style="stroke:#000000;stroke-width:0.8;" x="189.580568" xlink:href="#m1de0a41645" y="315"/>
      </g>
     </g>
     <g id="text_2">
      <!-- 200 -->
      <defs>
       <path d="M 19.1875 8.296875 
L 53.609375 8.296875 
L 53.609375 0 
L 7.328125 0 
L 7.328125 8.296875 
Q 12.9375 14.109375 22.625 23.890625 
Q 32.328125 33.6875 34.8125 36.53125 
Q 39.546875 41.84375 41.421875 45.53125 
Q 43.3125 49.21875 43.3125 52.78125 
Q 43.3125 58.59375 39.234375 62.25 
Q 35.15625 65.921875 28.609375 65.921875 
Q 23.96875 65.921875 18.8125 64.3125 
Q 13.671875 62.703125 7.8125 59.421875 
L 7.8125 69.390625 
Q 13.765625 71.78125 18.9375 73 
Q 24.125 74.21875 28.421875 74.21875 
Q 39.75 74.21875 46.484375 68.546875 
Q 53.21875 62.890625 53.21875 53.421875 
Q 53.21875 48.921875 51.53125 44.890625 
Q 49.859375 40.875 45.40625 35.40625 
Q 44.1875 33.984375 37.640625 27.21875 
Q 31.109375 20.453125 19.1875 8.296875 
z
" id="DejaVuSans-50"/>
      </defs>
      <g transform="translate(180.036818 329.598437)scale(0.1 -0.1)">
       <use xlink:href="#DejaVuSans-50"/>
       <use x="63.623047" xlink:href="#DejaVuSans-48"/>
       <use x="127.246094" xlink:href="#DejaVuSans-48"/>
      </g>
     </g>
    </g>
    <g id="xtick_3">
     <g id="line2d_5">
      <path clip-path="url(#p9fdd98a4e5)" d="M 263.7975 315 
L 263.7975 43.2 
" style="fill:none;stroke:#b0b0b0;stroke-linecap:square;stroke-width:0.8;"/>
     </g>
     <g id="line2d_6">
      <g>
       <use style="stroke:#000000;stroke-width:0.8;" x="263.7975" xlink:href="#m1de0a41645" y="315"/>
      </g>
     </g>
     <g id="text_3">
      <!-- 400 -->
      <defs>
       <path d="M 37.796875 64.3125 
L 12.890625 25.390625 
L 37.796875 25.390625 
z
M 35.203125 72.90625 
L 47.609375 72.90625 
L 47.609375 25.390625 
L 58.015625 25.390625 
L 58.015625 17.1875 
L 47.609375 17.1875 
L 47.609375 0 
L 37.796875 0 
L 37.796875 17.1875 
L 4.890625 17.1875 
L 4.890625 26.703125 
z
" id="DejaVuSans-52"/>
      </defs>
      <g transform="translate(254.25375 329.598437)scale(0.1 -0.1)">
       <use xlink:href="#DejaVuSans-52"/>
       <use x="63.623047" xlink:href="#DejaVuSans-48"/>
       <use x="127.246094" xlink:href="#DejaVuSans-48"/>
      </g>
     </g>
    </g>
    <g id="xtick_4">
     <g id="line2d_7">
      <path clip-path="url(#p9fdd98a4e5)" d="M 338.014431 315 
L 338.014431 43.2 
" style="fill:none;stroke:#b0b0b0;stroke-linecap:square;stroke-width:0.8;"/>
     </g>
     <g id="line2d_8">
      <g>
       <use style="stroke:#000000;stroke-width:0.8;" x="338.014431" xlink:href="#m1de0a41645" y="315"/>
      </g>
     </g>
     <g id="text_4">
      <!-- 600 -->
      <defs>
       <path d="M 33.015625 40.375 
Q 26.375 40.375 22.484375 35.828125 
Q 18.609375 31.296875 18.609375 23.390625 
Q 18.609375 15.53125 22.484375 10.953125 
Q 26.375 6.390625 33.015625 6.390625 
Q 39.65625 6.390625 43.53125 10.953125 
Q 47.40625 15.53125 47.40625 23.390625 
Q 47.40625 31.296875 43.53125 35.828125 
Q 39.65625 40.375 33.015625 40.375 
z
M 52.59375 71.296875 
L 52.59375 62.3125 
Q 48.875 64.0625 45.09375 64.984375 
Q 41.3125 65.921875 37.59375 65.921875 
Q 27.828125 65.921875 22.671875 59.328125 
Q 17.53125 52.734375 16.796875 39.40625 
Q 19.671875 43.65625 24.015625 45.921875 
Q 28.375 48.1875 33.59375 48.1875 
Q 44.578125 48.1875 50.953125 41.515625 
Q 57.328125 34.859375 57.328125 23.390625 
Q 57.328125 12.15625 50.6875 5.359375 
Q 44.046875 -1.421875 33.015625 -1.421875 
Q 20.359375 -1.421875 13.671875 8.265625 
Q 6.984375 17.96875 6.984375 36.375 
Q 6.984375 53.65625 15.1875 63.9375 
Q 23.390625 74.21875 37.203125 74.21875 
Q 40.921875 74.21875 44.703125 73.484375 
Q 48.484375 72.75 52.59375 71.296875 
z
" id="DejaVuSans-54"/>
      </defs>
      <g transform="translate(328.470681 329.598437)scale(0.1 -0.1)">
       <use xlink:href="#DejaVuSans-54"/>
       <use x="63.623047" xlink:href="#DejaVuSans-48"/>
       <use x="127.246094" xlink:href="#DejaVuSans-48"/>
      </g>
     </g>
    </g>
    <g id="xtick_5">
     <g id="line2d_9">
      <path clip-path="url(#p9fdd98a4e5)" d="M 412.231363 315 
L 412.231363 43.2 
" style="fill:none;stroke:#b0b0b0;stroke-linecap:square;stroke-width:0.8;"/>
     </g>
     <g id="line2d_10">
      <g>
       <use style="stroke:#000000;stroke-width:0.8;" x="412.231363" xlink:href="#m1de0a41645" y="315"/>
      </g>
     </g>
     <g id="text_5">
      <!-- 800 -->
      <defs>
       <path d="M 31.78125 34.625 
Q 24.75 34.625 20.71875 30.859375 
Q 16.703125 27.09375 16.703125 20.515625 
Q 16.703125 13.921875 20.71875 10.15625 
Q 24.75 6.390625 31.78125 6.390625 
Q 38.8125 6.390625 42.859375 10.171875 
Q 46.921875 13.96875 46.921875 20.515625 
Q 46.921875 27.09375 42.890625 30.859375 
Q 38.875 34.625 31.78125 34.625 
z
M 21.921875 38.8125 
Q 15.578125 40.375 12.03125 44.71875 
Q 8.5 49.078125 8.5 55.328125 
Q 8.5 64.0625 14.71875 69.140625 
Q 20.953125 74.21875 31.78125 74.21875 
Q 42.671875 74.21875 48.875 69.140625 
Q 55.078125 64.0625 55.078125 55.328125 
Q 55.078125 49.078125 51.53125 44.71875 
Q 48 40.375 41.703125 38.8125 
Q 48.828125 37.15625 52.796875 32.3125 
Q 56.78125 27.484375 56.78125 20.515625 
Q 56.78125 9.90625 50.3125 4.234375 
Q 43.84375 -1.421875 31.78125 -1.421875 
Q 19.734375 -1.421875 13.25 4.234375 
Q 6.78125 9.90625 6.78125 20.515625 
Q 6.78125 27.484375 10.78125 32.3125 
Q 14.796875 37.15625 21.921875 38.8125 
z
M 18.3125 54.390625 
Q 18.3125 48.734375 21.84375 45.5625 
Q 25.390625 42.390625 31.78125 42.390625 
Q 38.140625 42.390625 41.71875 45.5625 
Q 45.3125 48.734375 45.3125 54.390625 
Q 45.3125 60.0625 41.71875 63.234375 
Q 38.140625 66.40625 31.78125 66.40625 
Q 25.390625 66.40625 21.84375 63.234375 
Q 18.3125 60.0625 18.3125 54.390625 
z
" id="DejaVuSans-56"/>
      </defs>
      <g transform="translate(402.687613 329.598437)scale(0.1 -0.1)">
       <use xlink:href="#DejaVuSans-56"/>
       <use x="63.623047" xlink:href="#DejaVuSans-48"/>
       <use x="127.246094" xlink:href="#DejaVuSans-48"/>
      </g>
     </g>
    </g>
    <g id="xtick_6">
     <g id="line2d_11">
      <path clip-path="url(#p9fdd98a4e5)" d="M 486.448294 315 
L 486.448294 43.2 
" style="fill:none;stroke:#b0b0b0;stroke-linecap:square;stroke-width:0.8;"/>
     </g>
     <g id="line2d_12">
      <g>
       <use style="stroke:#000000;stroke-width:0.8;" x="486.448294" xlink:href="#m1de0a41645" y="315"/>
      </g>
     </g>
     <g id="text_6">
      <!-- 1000 -->
      <defs>
       <path d="M 12.40625 8.296875 
L 28.515625 8.296875 
L 28.515625 63.921875 
L 10.984375 60.40625 
L 10.984375 69.390625 
L 28.421875 72.90625 
L 38.28125 72.90625 
L 38.28125 8.296875 
L 54.390625 8.296875 
L 54.390625 0 
L 12.40625 0 
z
" id="DejaVuSans-49"/>
      </defs>
      <g transform="translate(473.723294 329.598437)scale(0.1 -0.1)">
       <use xlink:href="#DejaVuSans-49"/>
       <use x="63.623047" xlink:href="#DejaVuSans-48"/>
       <use x="127.246094" xlink:href="#DejaVuSans-48"/>
       <use x="190.869141" xlink:href="#DejaVuSans-48"/>
      </g>
     </g>
    </g>
    <g id="xtick_7">
     <g id="line2d_13">
      <path clip-path="url(#p9fdd98a4e5)" d="M 560.665226 315 
L 560.665226 43.2 
" style="fill:none;stroke:#b0b0b0;stroke-linecap:square;stroke-width:0.8;"/>
     </g>
     <g id="line2d_14">
      <g>
       <use style="stroke:#000000;stroke-width:0.8;" x="560.665226" xlink:href="#m1de0a41645" y="315"/>
      </g>
     </g>
     <g id="text_7">
      <!-- 1200 -->
      <g transform="translate(547.940226 329.598437)scale(0.1 -0.1)">
       <use xlink:href="#DejaVuSans-49"/>
       <use x="63.623047" xlink:href="#DejaVuSans-50"/>
       <use x="127.246094" xlink:href="#DejaVuSans-48"/>
       <use x="190.869141" xlink:href="#DejaVuSans-48"/>
      </g>
     </g>
    </g>
    <g id="xtick_8">
     <g id="line2d_15">
      <path clip-path="url(#p9fdd98a4e5)" d="M 634.882157 315 
L 634.882157 43.2 
" style="fill:none;stroke:#b0b0b0;stroke-linecap:square;stroke-width:0.8;"/>
     </g>
     <g id="line2d_16">
      <g>
       <use style="stroke:#000000;stroke-width:0.8;" x="634.882157" xlink:href="#m1de0a41645" y="315"/>
      </g>
     </g>
     <g id="text_8">
      <!-- 1400 -->
      <g transform="translate(622.157157 329.598437)scale(0.1 -0.1)">
       <use xlink:href="#DejaVuSans-49"/>
       <use x="63.623047" xlink:href="#DejaVuSans-52"/>
       <use x="127.246094" xlink:href="#DejaVuSans-48"/>
       <use x="190.869141" xlink:href="#DejaVuSans-48"/>
      </g>
     </g>
    </g>
    <g id="text_9">
     <!-- epoch -->
     <defs>
      <path d="M 56.203125 29.59375 
L 56.203125 25.203125 
L 14.890625 25.203125 
Q 15.484375 15.921875 20.484375 11.0625 
Q 25.484375 6.203125 34.421875 6.203125 
Q 39.59375 6.203125 44.453125 7.46875 
Q 49.3125 8.734375 54.109375 11.28125 
L 54.109375 2.78125 
Q 49.265625 0.734375 44.1875 -0.34375 
Q 39.109375 -1.421875 33.890625 -1.421875 
Q 20.796875 -1.421875 13.15625 6.1875 
Q 5.515625 13.8125 5.515625 26.8125 
Q 5.515625 40.234375 12.765625 48.109375 
Q 20.015625 56 32.328125 56 
Q 43.359375 56 49.78125 48.890625 
Q 56.203125 41.796875 56.203125 29.59375 
z
M 47.21875 32.234375 
Q 47.125 39.59375 43.09375 43.984375 
Q 39.0625 48.390625 32.421875 48.390625 
Q 24.90625 48.390625 20.390625 44.140625 
Q 15.875 39.890625 15.1875 32.171875 
z
" id="DejaVuSans-101"/>
      <path d="M 18.109375 8.203125 
L 18.109375 -20.796875 
L 9.078125 -20.796875 
L 9.078125 54.6875 
L 18.109375 54.6875 
L 18.109375 46.390625 
Q 20.953125 51.265625 25.265625 53.625 
Q 29.59375 56 35.59375 56 
Q 45.5625 56 51.78125 48.09375 
Q 58.015625 40.1875 58.015625 27.296875 
Q 58.015625 14.40625 51.78125 6.484375 
Q 45.5625 -1.421875 35.59375 -1.421875 
Q 29.59375 -1.421875 25.265625 0.953125 
Q 20.953125 3.328125 18.109375 8.203125 
z
M 48.6875 27.296875 
Q 48.6875 37.203125 44.609375 42.84375 
Q 40.53125 48.484375 33.40625 48.484375 
Q 26.265625 48.484375 22.1875 42.84375 
Q 18.109375 37.203125 18.109375 27.296875 
Q 18.109375 17.390625 22.1875 11.75 
Q 26.265625 6.109375 33.40625 6.109375 
Q 40.53125 6.109375 44.609375 11.75 
Q 48.6875 17.390625 48.6875 27.296875 
z
" id="DejaVuSans-112"/>
      <path d="M 30.609375 48.390625 
Q 23.390625 48.390625 19.1875 42.75 
Q 14.984375 37.109375 14.984375 27.296875 
Q 14.984375 17.484375 19.15625 11.84375 
Q 23.34375 6.203125 30.609375 6.203125 
Q 37.796875 6.203125 41.984375 11.859375 
Q 46.1875 17.53125 46.1875 27.296875 
Q 46.1875 37.015625 41.984375 42.703125 
Q 37.796875 48.390625 30.609375 48.390625 
z
M 30.609375 56 
Q 42.328125 56 49.015625 48.375 
Q 55.71875 40.765625 55.71875 27.296875 
Q 55.71875 13.875 49.015625 6.21875 
Q 42.328125 -1.421875 30.609375 -1.421875 
Q 18.84375 -1.421875 12.171875 6.21875 
Q 5.515625 13.875 5.515625 27.296875 
Q 5.515625 40.765625 12.171875 48.375 
Q 18.84375 56 30.609375 56 
z
" id="DejaVuSans-111"/>
      <path d="M 48.78125 52.59375 
L 48.78125 44.1875 
Q 44.96875 46.296875 41.140625 47.34375 
Q 37.3125 48.390625 33.40625 48.390625 
Q 24.65625 48.390625 19.8125 42.84375 
Q 14.984375 37.3125 14.984375 27.296875 
Q 14.984375 17.28125 19.8125 11.734375 
Q 24.65625 6.203125 33.40625 6.203125 
Q 37.3125 6.203125 41.140625 7.25 
Q 44.96875 8.296875 48.78125 10.40625 
L 48.78125 2.09375 
Q 45.015625 0.34375 40.984375 -0.53125 
Q 36.96875 -1.421875 32.421875 -1.421875 
Q 20.0625 -1.421875 12.78125 6.34375 
Q 5.515625 14.109375 5.515625 27.296875 
Q 5.515625 40.671875 12.859375 48.328125 
Q 20.21875 56 33.015625 56 
Q 37.15625 56 41.109375 55.140625 
Q 45.0625 54.296875 48.78125 52.59375 
z
" id="DejaVuSans-99"/>
      <path d="M 54.890625 33.015625 
L 54.890625 0 
L 45.90625 0 
L 45.90625 32.71875 
Q 45.90625 40.484375 42.875 44.328125 
Q 39.84375 48.1875 33.796875 48.1875 
Q 26.515625 48.1875 22.3125 43.546875 
Q 18.109375 38.921875 18.109375 30.90625 
L 18.109375 0 
L 9.078125 0 
L 9.078125 75.984375 
L 18.109375 75.984375 
L 18.109375 46.1875 
Q 21.34375 51.125 25.703125 53.5625 
Q 30.078125 56 35.796875 56 
Q 45.21875 56 50.046875 50.171875 
Q 54.890625 44.34375 54.890625 33.015625 
z
" id="DejaVuSans-104"/>
     </defs>
     <g transform="translate(353.771875 343.276563)scale(0.1 -0.1)">
      <use xlink:href="#DejaVuSans-101"/>
      <use x="61.523438" xlink:href="#DejaVuSans-112"/>
      <use x="125" xlink:href="#DejaVuSans-111"/>
      <use x="186.181641" xlink:href="#DejaVuSans-99"/>
      <use x="241.162109" xlink:href="#DejaVuSans-104"/>
     </g>
    </g>
   </g>
   <g id="matplotlib.axis_2">
    <g id="ytick_1">
     <g id="line2d_17">
      <path clip-path="url(#p9fdd98a4e5)" d="M 90 304.005223 
L 648 304.005223 
" style="fill:none;stroke:#b0b0b0;stroke-linecap:square;stroke-width:0.8;"/>
     </g>
     <g id="line2d_18">
      <defs>
       <path d="M 0 0 
L -3.5 0 
" id="m3020c92650" style="stroke:#000000;stroke-width:0.8;"/>
      </defs>
      <g>
       <use style="stroke:#000000;stroke-width:0.8;" x="90" xlink:href="#m3020c92650" y="304.005223"/>
      </g>
     </g>
     <g id="text_10">
      <!-- 0.0 -->
      <defs>
       <path d="M 10.6875 12.40625 
L 21 12.40625 
L 21 0 
L 10.6875 0 
z
" id="DejaVuSans-46"/>
      </defs>
      <g transform="translate(67.096875 307.804442)scale(0.1 -0.1)">
       <use xlink:href="#DejaVuSans-48"/>
       <use x="63.623047" xlink:href="#DejaVuSans-46"/>
       <use x="95.410156" xlink:href="#DejaVuSans-48"/>
      </g>
     </g>
    </g>
    <g id="ytick_2">
     <g id="line2d_19">
      <path clip-path="url(#p9fdd98a4e5)" d="M 90 273.074216 
L 648 273.074216 
" style="fill:none;stroke:#b0b0b0;stroke-linecap:square;stroke-width:0.8;"/>
     </g>
     <g id="line2d_20">
      <g>
       <use style="stroke:#000000;stroke-width:0.8;" x="90" xlink:href="#m3020c92650" y="273.074216"/>
      </g>
     </g>
     <g id="text_11">
      <!-- 0.2 -->
      <g transform="translate(67.096875 276.873435)scale(0.1 -0.1)">
       <use xlink:href="#DejaVuSans-48"/>
       <use x="63.623047" xlink:href="#DejaVuSans-46"/>
       <use x="95.410156" xlink:href="#DejaVuSans-50"/>
      </g>
     </g>
    </g>
    <g id="ytick_3">
     <g id="line2d_21">
      <path clip-path="url(#p9fdd98a4e5)" d="M 90 242.143209 
L 648 242.143209 
" style="fill:none;stroke:#b0b0b0;stroke-linecap:square;stroke-width:0.8;"/>
     </g>
     <g id="line2d_22">
      <g>
       <use style="stroke:#000000;stroke-width:0.8;" x="90" xlink:href="#m3020c92650" y="242.143209"/>
      </g>
     </g>
     <g id="text_12">
      <!-- 0.4 -->
      <g transform="translate(67.096875 245.942427)scale(0.1 -0.1)">
       <use xlink:href="#DejaVuSans-48"/>
       <use x="63.623047" xlink:href="#DejaVuSans-46"/>
       <use x="95.410156" xlink:href="#DejaVuSans-52"/>
      </g>
     </g>
    </g>
    <g id="ytick_4">
     <g id="line2d_23">
      <path clip-path="url(#p9fdd98a4e5)" d="M 90 211.212202 
L 648 211.212202 
" style="fill:none;stroke:#b0b0b0;stroke-linecap:square;stroke-width:0.8;"/>
     </g>
     <g id="line2d_24">
      <g>
       <use style="stroke:#000000;stroke-width:0.8;" x="90" xlink:href="#m3020c92650" y="211.212202"/>
      </g>
     </g>
     <g id="text_13">
      <!-- 0.6 -->
      <g transform="translate(67.096875 215.01142)scale(0.1 -0.1)">
       <use xlink:href="#DejaVuSans-48"/>
       <use x="63.623047" xlink:href="#DejaVuSans-46"/>
       <use x="95.410156" xlink:href="#DejaVuSans-54"/>
      </g>
     </g>
    </g>
    <g id="ytick_5">
     <g id="line2d_25">
      <path clip-path="url(#p9fdd98a4e5)" d="M 90 180.281194 
L 648 180.281194 
" style="fill:none;stroke:#b0b0b0;stroke-linecap:square;stroke-width:0.8;"/>
     </g>
     <g id="line2d_26">
      <g>
       <use style="stroke:#000000;stroke-width:0.8;" x="90" xlink:href="#m3020c92650" y="180.281194"/>
      </g>
     </g>
     <g id="text_14">
      <!-- 0.8 -->
      <g transform="translate(67.096875 184.080413)scale(0.1 -0.1)">
       <use xlink:href="#DejaVuSans-48"/>
       <use x="63.623047" xlink:href="#DejaVuSans-46"/>
       <use x="95.410156" xlink:href="#DejaVuSans-56"/>
      </g>
     </g>
    </g>
    <g id="ytick_6">
     <g id="line2d_27">
      <path clip-path="url(#p9fdd98a4e5)" d="M 90 149.350187 
L 648 149.350187 
" style="fill:none;stroke:#b0b0b0;stroke-linecap:square;stroke-width:0.8;"/>
     </g>
     <g id="line2d_28">
      <g>
       <use style="stroke:#000000;stroke-width:0.8;" x="90" xlink:href="#m3020c92650" y="149.350187"/>
      </g>
     </g>
     <g id="text_15">
      <!-- 1.0 -->
      <g transform="translate(67.096875 153.149406)scale(0.1 -0.1)">
       <use xlink:href="#DejaVuSans-49"/>
       <use x="63.623047" xlink:href="#DejaVuSans-46"/>
       <use x="95.410156" xlink:href="#DejaVuSans-48"/>
      </g>
     </g>
    </g>
    <g id="ytick_7">
     <g id="line2d_29">
      <path clip-path="url(#p9fdd98a4e5)" d="M 90 118.41918 
L 648 118.41918 
" style="fill:none;stroke:#b0b0b0;stroke-linecap:square;stroke-width:0.8;"/>
     </g>
     <g id="line2d_30">
      <g>
       <use style="stroke:#000000;stroke-width:0.8;" x="90" xlink:href="#m3020c92650" y="118.41918"/>
      </g>
     </g>
     <g id="text_16">
      <!-- 1.2 -->
      <g transform="translate(67.096875 122.218399)scale(0.1 -0.1)">
       <use xlink:href="#DejaVuSans-49"/>
       <use x="63.623047" xlink:href="#DejaVuSans-46"/>
       <use x="95.410156" xlink:href="#DejaVuSans-50"/>
      </g>
     </g>
    </g>
    <g id="ytick_8">
     <g id="line2d_31">
      <path clip-path="url(#p9fdd98a4e5)" d="M 90 87.488173 
L 648 87.488173 
" style="fill:none;stroke:#b0b0b0;stroke-linecap:square;stroke-width:0.8;"/>
     </g>
     <g id="line2d_32">
      <g>
       <use style="stroke:#000000;stroke-width:0.8;" x="90" xlink:href="#m3020c92650" y="87.488173"/>
      </g>
     </g>
     <g id="text_17">
      <!-- 1.4 -->
      <g transform="translate(67.096875 91.287392)scale(0.1 -0.1)">
       <use xlink:href="#DejaVuSans-49"/>
       <use x="63.623047" xlink:href="#DejaVuSans-46"/>
       <use x="95.410156" xlink:href="#DejaVuSans-52"/>
      </g>
     </g>
    </g>
    <g id="ytick_9">
     <g id="line2d_33">
      <path clip-path="url(#p9fdd98a4e5)" d="M 90 56.557166 
L 648 56.557166 
" style="fill:none;stroke:#b0b0b0;stroke-linecap:square;stroke-width:0.8;"/>
     </g>
     <g id="line2d_34">
      <g>
       <use style="stroke:#000000;stroke-width:0.8;" x="90" xlink:href="#m3020c92650" y="56.557166"/>
      </g>
     </g>
     <g id="text_18">
      <!-- 1.6 -->
      <g transform="translate(67.096875 60.356384)scale(0.1 -0.1)">
       <use xlink:href="#DejaVuSans-49"/>
       <use x="63.623047" xlink:href="#DejaVuSans-46"/>
       <use x="95.410156" xlink:href="#DejaVuSans-54"/>
      </g>
     </g>
    </g>
    <g id="text_19">
     <!-- loss -->
     <defs>
      <path d="M 9.421875 75.984375 
L 18.40625 75.984375 
L 18.40625 0 
L 9.421875 0 
z
" id="DejaVuSans-108"/>
      <path d="M 44.28125 53.078125 
L 44.28125 44.578125 
Q 40.484375 46.53125 36.375 47.5 
Q 32.28125 48.484375 27.875 48.484375 
Q 21.1875 48.484375 17.84375 46.4375 
Q 14.5 44.390625 14.5 40.28125 
Q 14.5 37.15625 16.890625 35.375 
Q 19.28125 33.59375 26.515625 31.984375 
L 29.59375 31.296875 
Q 39.15625 29.25 43.1875 25.515625 
Q 47.21875 21.78125 47.21875 15.09375 
Q 47.21875 7.46875 41.1875 3.015625 
Q 35.15625 -1.421875 24.609375 -1.421875 
Q 20.21875 -1.421875 15.453125 -0.5625 
Q 10.6875 0.296875 5.421875 2 
L 5.421875 11.28125 
Q 10.40625 8.6875 15.234375 7.390625 
Q 20.0625 6.109375 24.8125 6.109375 
Q 31.15625 6.109375 34.5625 8.28125 
Q 37.984375 10.453125 37.984375 14.40625 
Q 37.984375 18.0625 35.515625 20.015625 
Q 33.0625 21.96875 24.703125 23.78125 
L 21.578125 24.515625 
Q 13.234375 26.265625 9.515625 29.90625 
Q 5.8125 33.546875 5.8125 39.890625 
Q 5.8125 47.609375 11.28125 51.796875 
Q 16.75 56 26.8125 56 
Q 31.78125 56 36.171875 55.265625 
Q 40.578125 54.546875 44.28125 53.078125 
z
" id="DejaVuSans-115"/>
     </defs>
     <g transform="translate(61.017187 188.757812)rotate(-90)scale(0.1 -0.1)">
      <use xlink:href="#DejaVuSans-108"/>
      <use x="27.783203" xlink:href="#DejaVuSans-111"/>
      <use x="88.964844" xlink:href="#DejaVuSans-115"/>
      <use x="141.064453" xlink:href="#DejaVuSans-115"/>
     </g>
    </g>
   </g>
   <g id="line2d_35">
    <path clip-path="url(#p9fdd98a4e5)" d="M 115.363636 55.554545 
L 116.105806 74.004205 
L 116.847975 80.41158 
L 117.21906 80.619393 
L 117.590144 85.549888 
L 117.961229 88.404951 
L 118.332314 89.387788 
L 118.703398 93.001723 
L 119.074483 92.940068 
L 119.445568 95.407531 
L 120.187737 103.492773 
L 120.558822 103.465908 
L 120.929906 107.891902 
L 121.300991 109.442757 
L 122.414245 119.340446 
L 122.78533 122.216885 
L 125.382922 149.831156 
L 125.754007 154.364536 
L 126.125091 154.114309 
L 126.867261 163.809133 
L 127.60943 171.235544 
L 128.351599 174.536334 
L 129.093769 181.868245 
L 129.464853 181.804409 
L 129.835938 186.177596 
L 130.207023 186.867029 
L 130.578107 190.410012 
L 130.949192 192.808308 
L 131.691361 199.804468 
L 132.062446 200.012146 
L 132.433531 202.690479 
L 132.804615 206.878383 
L 133.1757 208.575594 
L 133.546785 207.790904 
L 134.288954 215.528991 
L 134.660039 216.084701 
L 135.031123 215.839869 
L 135.402208 218.353402 
L 135.773293 219.674062 
L 136.144377 220.209318 
L 136.515462 223.195518 
L 136.886547 223.525616 
L 137.257631 224.020277 
L 137.628716 225.901074 
L 137.9998 224.941281 
L 138.370885 227.418622 
L 138.74197 228.456203 
L 139.113054 230.16787 
L 139.484139 230.521944 
L 139.855224 231.119641 
L 140.226308 231.935387 
L 140.597393 231.590389 
L 140.968478 235.012805 
L 141.339562 236.370543 
L 141.710647 236.07943 
L 142.081732 237.240628 
L 142.452816 237.770572 
L 142.823901 237.467025 
L 143.194986 241.061763 
L 143.56607 240.500691 
L 143.937155 242.393583 
L 144.30824 241.478378 
L 144.679324 241.0101 
L 145.421494 244.718099 
L 145.792578 243.505087 
L 146.163663 244.04386 
L 146.534748 243.686884 
L 146.905832 245.200064 
L 147.276917 244.925562 
L 147.648002 247.888822 
L 148.019086 248.450021 
L 148.390171 247.248533 
L 148.761256 246.549605 
L 149.13234 249.401729 
L 149.503425 250.598966 
L 149.87451 250.327845 
L 150.245594 249.358052 
L 150.616679 251.661627 
L 151.358848 250.916262 
L 151.729933 253.326124 
L 152.101017 253.882402 
L 152.472102 251.699222 
L 152.843187 253.792147 
L 153.214271 254.163697 
L 153.585356 254.302129 
L 153.956441 255.838527 
L 154.327525 255.51566 
L 154.69861 254.993353 
L 155.069695 257.687663 
L 155.440779 257.674651 
L 155.811864 256.342343 
L 156.182949 255.625862 
L 156.554033 258.946758 
L 157.296203 257.609761 
L 157.667287 257.564733 
L 158.038372 260.607318 
L 158.409457 258.897969 
L 158.780541 258.925586 
L 159.522711 261.901403 
L 159.893795 260.153702 
L 160.26488 260.670597 
L 160.635965 262.024438 
L 161.007049 261.896733 
L 161.378134 262.511121 
L 161.749219 261.848035 
L 162.120303 263.632056 
L 162.491388 263.752 
L 162.862473 262.401764 
L 163.233557 262.247843 
L 163.604642 263.727869 
L 163.975727 264.578118 
L 164.346811 263.841935 
L 164.717896 264.109092 
L 165.088981 264.655286 
L 165.460065 264.880578 
L 165.83115 265.556229 
L 166.202234 264.431242 
L 166.944404 266.553291 
L 167.315488 266.5378 
L 167.686573 266.12354 
L 168.057658 266.55194 
L 168.428742 264.817306 
L 168.799827 268.229509 
L 169.170912 268.519414 
L 169.541996 266.113421 
L 169.913081 268.129736 
L 170.65525 268.74865 
L 171.026335 268.615968 
L 171.39742 266.063996 
L 171.768504 268.905323 
L 172.139589 269.516876 
L 172.510674 267.709291 
L 173.252843 268.37233 
L 173.995012 269.393819 
L 174.366097 269.497578 
L 174.737182 270.637107 
L 175.108266 269.127006 
L 175.479351 269.418075 
L 175.850436 270.729119 
L 176.22152 270.201867 
L 176.592605 270.861302 
L 176.96369 272.502189 
L 177.334774 270.609235 
L 177.705859 270.299169 
L 178.076944 272.846961 
L 178.448028 271.449179 
L 178.819113 272.565538 
L 179.190198 270.97676 
L 179.561282 270.398817 
L 179.932367 273.113176 
L 180.303451 271.869344 
L 180.674536 271.729151 
L 181.045621 272.838001 
L 181.416705 273.475988 
L 181.78779 272.65285 
L 182.158875 274.375273 
L 182.529959 274.224779 
L 182.901044 272.779624 
L 183.272129 273.487085 
L 183.643213 275.843564 
L 184.014298 275.227804 
L 184.385383 274.166424 
L 184.756467 272.508066 
L 185.127552 274.507842 
L 185.498637 274.18703 
L 186.240806 274.883387 
L 186.611891 275.616208 
L 186.982975 273.280741 
L 187.725145 275.292153 
L 188.096229 274.471099 
L 188.467314 275.948077 
L 188.838399 276.59487 
L 189.209483 276.144725 
L 189.580568 276.847326 
L 190.322737 275.582795 
L 190.693822 278.01973 
L 191.064907 275.244289 
L 191.435991 277.78171 
L 191.807076 277.220758 
L 192.178161 277.937965 
L 192.549245 275.618069 
L 192.92033 275.098016 
L 193.291415 277.738092 
L 193.662499 275.162827 
L 194.404668 278.256191 
L 194.775753 277.433876 
L 195.146838 277.733246 
L 195.517922 277.727708 
L 195.889007 277.439967 
L 196.260092 277.546953 
L 196.631176 277.445106 
L 197.74443 278.98782 
L 198.115515 280.513137 
L 198.4866 277.680271 
L 198.857684 279.390278 
L 199.228769 277.344731 
L 199.599854 280.63775 
L 199.970938 278.626455 
L 200.342023 279.395608 
L 200.713108 277.723864 
L 201.084192 278.863175 
L 201.455277 279.373457 
L 201.826362 281.258364 
L 202.197446 280.291944 
L 202.568531 281.078116 
L 202.939616 280.631382 
L 203.3107 279.637467 
L 203.681785 280.673072 
L 204.05287 281.132549 
L 204.795039 278.386273 
L 205.166124 280.609617 
L 205.908293 281.364935 
L 206.279378 279.572679 
L 206.650462 280.785139 
L 207.021547 279.535273 
L 207.392632 281.07373 
L 207.763716 281.706658 
L 208.134801 281.665749 
L 208.505885 280.917097 
L 208.87697 281.697534 
L 209.248055 280.621011 
L 209.619139 279.905761 
L 209.990224 279.736411 
L 210.361309 280.913598 
L 210.732393 280.310609 
L 211.103478 281.093449 
L 211.474563 281.212485 
L 211.845647 282.059275 
L 212.216732 282.298951 
L 212.587817 280.528388 
L 212.958901 280.549173 
L 213.329986 282.51763 
L 213.701071 281.229231 
L 214.44324 282.276006 
L 214.814325 282.470759 
L 215.185409 284.862591 
L 215.556494 282.953484 
L 215.927579 281.771598 
L 216.298663 283.158515 
L 216.669748 282.865975 
L 217.040833 282.424002 
L 217.411917 283.008112 
L 217.783002 283.840681 
L 218.154087 283.548414 
L 218.525171 282.250213 
L 218.896256 284.626368 
L 219.638425 283.288381 
L 220.00951 285.271749 
L 220.380595 281.506735 
L 220.751679 282.959009 
L 221.122764 282.303115 
L 221.493849 282.642197 
L 221.864933 285.14961 
L 222.236018 285.144845 
L 222.607102 282.136247 
L 222.978187 282.885579 
L 223.349272 283.960092 
L 223.720356 282.830835 
L 224.091441 283.728495 
L 224.462526 282.540074 
L 224.83361 284.876966 
L 225.204695 285.190439 
L 225.57578 284.155175 
L 225.946864 283.480507 
L 226.317949 284.259001 
L 226.689034 284.162576 
L 227.060118 284.64788 
L 227.431203 284.779861 
L 227.802288 284.501185 
L 228.173372 286.214586 
L 228.544457 284.312108 
L 228.915542 284.479174 
L 229.657711 285.229211 
L 230.028796 284.681529 
L 230.39988 285.871215 
L 230.770965 284.95341 
L 231.14205 284.386632 
L 231.513134 284.680911 
L 231.884219 285.361585 
L 232.255304 285.144566 
L 232.626388 286.30175 
L 232.997473 284.361726 
L 233.368558 285.805089 
L 233.739642 284.173687 
L 234.110727 287.009091 
L 234.481812 286.464455 
L 234.852896 286.133167 
L 235.223981 285.620138 
L 235.595066 287.369781 
L 235.96615 287.813511 
L 236.337235 286.687607 
L 236.708319 286.946919 
L 237.079404 287.669264 
L 237.450489 286.718148 
L 237.821573 286.973213 
L 238.192658 286.035035 
L 238.563743 286.991055 
L 238.934827 285.091638 
L 239.305912 287.073691 
L 239.676997 287.039554 
L 240.048081 287.284479 
L 240.419166 287.984245 
L 241.161335 286.586606 
L 241.53242 286.412482 
L 241.903505 287.830017 
L 242.274589 288.278605 
L 243.016759 286.553337 
L 243.387843 289.244033 
L 243.758928 287.454324 
L 244.130013 286.993179 
L 244.501097 288.490642 
L 244.872182 288.20207 
L 245.243267 286.465295 
L 245.985436 288.440956 
L 246.356521 287.672683 
L 246.727605 289.259977 
L 247.09869 288.552695 
L 247.840859 287.625247 
L 248.211944 287.867545 
L 248.583029 287.652731 
L 248.954113 288.306384 
L 249.325198 288.185113 
L 249.696283 288.667799 
L 250.067367 289.782921 
L 250.438452 289.222881 
L 250.809536 288.869545 
L 251.180621 288.139917 
L 251.551706 288.045305 
L 251.92279 289.522611 
L 252.293875 288.709551 
L 252.66496 289.041973 
L 253.036044 290.185075 
L 253.407129 288.686723 
L 253.778214 287.678277 
L 254.149298 289.532 
L 254.520383 288.098137 
L 254.891468 287.908357 
L 255.262552 290.372077 
L 255.633637 287.922572 
L 256.004722 290.600386 
L 256.375806 288.708082 
L 256.746891 289.085519 
L 257.117976 290.876651 
L 257.860145 289.274545 
L 258.23123 289.228365 
L 258.602314 289.898082 
L 258.973399 291.708267 
L 259.344484 289.618905 
L 260.086653 290.627171 
L 260.457738 291.693176 
L 260.828822 290.547584 
L 261.199907 290.396905 
L 261.570992 290.630763 
L 261.942076 291.352672 
L 262.313161 289.811853 
L 262.684246 289.683519 
L 263.05533 290.736616 
L 263.426415 291.126204 
L 263.7975 291.086837 
L 264.168584 291.306285 
L 264.539669 290.914852 
L 264.910753 289.610663 
L 265.281838 291.9755 
L 266.024007 289.987771 
L 266.395092 290.657204 
L 266.766177 291.829159 
L 267.137261 290.6013 
L 267.508346 291.505369 
L 267.879431 291.874932 
L 268.250515 290.628824 
L 268.6216 291.913766 
L 268.992685 291.152379 
L 269.363769 292.035443 
L 269.734854 290.854862 
L 270.105939 290.627759 
L 270.477023 293.000953 
L 270.848108 291.574223 
L 271.219193 290.746274 
L 271.590277 292.726354 
L 271.961362 292.527364 
L 272.703531 290.548503 
L 273.074616 292.633549 
L 273.445701 290.851627 
L 273.816785 291.777315 
L 274.18787 291.543228 
L 274.558955 293.401996 
L 274.930039 292.022224 
L 275.301124 291.780099 
L 275.672209 292.396557 
L 276.043293 293.263798 
L 276.785463 292.011224 
L 277.156547 293.808842 
L 277.527632 292.791403 
L 277.898716 292.288981 
L 278.269801 292.460501 
L 278.640886 292.386257 
L 279.01197 292.731585 
L 279.383055 292.747822 
L 279.75414 292.298999 
L 280.125224 293.006636 
L 280.867394 290.853555 
L 281.238478 292.184369 
L 281.609563 292.264566 
L 281.980648 293.885612 
L 282.351732 293.92764 
L 282.722817 291.957102 
L 283.093902 292.608488 
L 283.464986 291.822676 
L 283.836071 293.545254 
L 284.207156 292.295863 
L 284.57824 293.662149 
L 284.949325 293.204853 
L 285.32041 292.071328 
L 285.691494 293.276887 
L 286.062579 294.036059 
L 286.433664 292.96391 
L 287.175833 293.57656 
L 287.546918 293.361225 
L 287.918002 292.761096 
L 288.289087 294.404678 
L 288.660172 294.398042 
L 289.031256 294.116125 
L 289.402341 292.751681 
L 289.773426 292.883449 
L 290.14451 292.558974 
L 290.515595 294.305929 
L 290.88668 293.1384 
L 291.257764 294.342526 
L 291.628849 294.048737 
L 291.999933 293.455663 
L 292.371018 293.72655 
L 292.742103 294.235593 
L 293.113187 293.143729 
L 293.484272 294.31428 
L 293.855357 293.932139 
L 294.226441 293.803348 
L 294.597526 295.140571 
L 294.968611 294.275383 
L 295.339695 293.719945 
L 295.71078 293.769728 
L 296.081865 294.822715 
L 296.452949 293.883044 
L 296.824034 295.804236 
L 297.195119 293.553754 
L 297.566203 294.431872 
L 297.937288 294.279146 
L 298.308373 293.937603 
L 298.679457 294.433753 
L 299.050542 293.008075 
L 299.421627 296.016043 
L 299.792711 295.374807 
L 300.163796 295.572276 
L 300.534881 295.129614 
L 300.905965 295.187685 
L 301.27705 294.248413 
L 302.019219 296.41698 
L 302.390304 294.185832 
L 302.761389 294.010641 
L 303.132473 294.819392 
L 303.503558 293.888494 
L 303.874643 296.187082 
L 304.245727 296.785366 
L 304.616812 295.386926 
L 304.987897 295.780577 
L 305.358981 295.384596 
L 305.730066 293.33102 
L 306.10115 295.661065 
L 306.472235 294.792907 
L 306.84332 295.864353 
L 307.214404 295.600273 
L 307.585489 294.974554 
L 307.956574 295.638157 
L 308.327658 295.991396 
L 308.698743 296.587865 
L 309.069828 296.253033 
L 309.440912 296.49781 
L 309.811997 295.748956 
L 310.554166 295.019449 
L 311.296336 295.684239 
L 311.66742 295.318404 
L 312.038505 295.502433 
L 312.40959 296.634263 
L 312.780674 294.880653 
L 313.151759 295.59811 
L 313.522844 295.976714 
L 313.893928 294.873956 
L 314.636098 295.472486 
L 315.007182 296.182608 
L 315.378267 295.704513 
L 315.749352 295.480406 
L 316.120436 294.172767 
L 316.491521 295.268674 
L 316.862606 295.689833 
L 317.23369 295.810167 
L 317.604775 295.098949 
L 317.97586 296.310806 
L 318.346944 295.896374 
L 319.089114 295.648 
L 319.460198 297.048142 
L 319.831283 295.349703 
L 320.202367 296.375599 
L 320.573452 295.759869 
L 320.944537 295.626385 
L 321.315621 296.157194 
L 321.686706 296.172743 
L 322.057791 297.151761 
L 322.428875 296.621961 
L 322.79996 295.834533 
L 323.171045 296.996549 
L 323.542129 294.292397 
L 323.913214 296.688627 
L 324.284299 295.939621 
L 325.026468 296.541456 
L 325.397553 297.694544 
L 325.768637 296.793926 
L 326.510807 296.837149 
L 326.881891 297.079748 
L 327.252976 296.785758 
L 327.624061 296.661737 
L 327.995145 297.884771 
L 328.36623 295.519975 
L 328.737315 297.849353 
L 329.108399 295.930147 
L 329.479484 296.84002 
L 329.850569 296.408169 
L 330.221653 297.98966 
L 330.592738 296.60782 
L 330.963823 297.042456 
L 331.334907 297.248047 
L 331.705992 296.659279 
L 332.077077 296.644085 
L 332.448161 297.132142 
L 332.819246 297.02925 
L 333.561415 297.998224 
L 333.9325 297.591726 
L 334.303584 296.730312 
L 334.674669 297.661187 
L 335.045754 297.018429 
L 335.416838 296.138316 
L 335.787923 296.495362 
L 336.159008 298.146578 
L 336.530092 297.112803 
L 336.901177 297.764137 
L 337.272262 296.768444 
L 337.643346 297.895158 
L 338.385516 296.467841 
L 338.7566 296.502665 
L 339.127685 297.312658 
L 339.49877 298.564462 
L 339.869854 296.464719 
L 340.612024 297.61501 
L 341.354193 296.936745 
L 341.725278 297.688265 
L 342.838532 296.966609 
L 343.209616 297.211943 
L 343.580701 297.090899 
L 343.951786 297.315889 
L 344.32287 298.206204 
L 344.693955 297.663562 
L 345.06504 296.850529 
L 345.436124 297.098577 
L 345.807209 296.79151 
L 346.178294 298.090801 
L 346.549378 297.476695 
L 346.920463 297.677126 
L 347.291548 298.033155 
L 348.033717 296.888684 
L 348.775886 298.210299 
L 349.146971 297.687844 
L 349.518055 297.840722 
L 349.88914 297.447681 
L 350.260225 298.408693 
L 350.631309 298.452234 
L 351.002394 297.198317 
L 351.373479 298.941053 
L 351.744563 297.341131 
L 352.115648 298.914626 
L 352.486733 298.159875 
L 352.857817 298.481993 
L 353.599987 297.517077 
L 353.971071 297.499298 
L 354.342156 298.306674 
L 354.713241 298.323917 
L 355.084325 297.199325 
L 355.45541 298.189913 
L 355.826495 298.4113 
L 356.197579 299.201633 
L 356.568664 298.121709 
L 356.939749 298.358033 
L 357.310833 298.804392 
L 357.681918 298.784501 
L 358.053003 296.272439 
L 358.424087 297.854144 
L 359.166257 297.075782 
L 359.537341 297.503882 
L 359.908426 297.529264 
L 360.650595 299.255398 
L 361.02168 297.803657 
L 361.392765 297.766707 
L 361.763849 298.182034 
L 362.134934 297.824325 
L 362.506018 298.150737 
L 362.877103 298.719177 
L 363.248188 296.930432 
L 363.619272 298.779611 
L 363.990357 298.81019 
L 364.361442 298.007962 
L 364.732526 298.15476 
L 365.103611 298.149587 
L 365.474696 298.981045 
L 365.84578 298.298342 
L 366.216865 298.131262 
L 366.959034 298.492081 
L 367.330119 297.472153 
L 368.443373 299.851398 
L 369.185542 298.290051 
L 369.556627 298.348468 
L 369.927712 298.921947 
L 370.298796 298.164082 
L 370.669881 298.175828 
L 371.040966 298.697086 
L 371.41205 299.433215 
L 371.783135 298.391375 
L 372.15422 298.389798 
L 372.525304 298.74731 
L 372.896389 298.322071 
L 373.267474 298.984689 
L 373.638558 299.14937 
L 374.009643 298.910653 
L 374.380728 298.275543 
L 374.751812 299.845657 
L 375.122897 298.54801 
L 375.493982 299.07861 
L 375.865066 299.172046 
L 376.236151 299.007483 
L 376.97832 298.015609 
L 377.349405 299.937857 
L 377.720489 298.036148 
L 378.091574 299.237635 
L 378.462659 298.754482 
L 378.833743 299.341807 
L 379.204828 298.996777 
L 379.575913 298.383759 
L 379.946997 298.756467 
L 380.318082 298.783753 
L 380.689167 299.253688 
L 381.060251 298.658635 
L 381.431336 299.559031 
L 381.802421 299.170392 
L 382.173505 298.435605 
L 382.54459 299.249065 
L 382.915675 298.982774 
L 383.286759 298.511512 
L 383.657844 299.642647 
L 384.028929 298.418358 
L 384.400013 298.830962 
L 384.771098 299.679611 
L 385.142183 299.165688 
L 385.513267 299.702043 
L 385.884352 298.959164 
L 386.255437 299.277134 
L 386.626521 297.828717 
L 386.997606 299.152273 
L 387.739775 299.642431 
L 388.11086 298.044001 
L 388.481945 299.597919 
L 388.853029 299.837845 
L 389.224114 298.334577 
L 389.595199 299.714338 
L 390.337368 299.800933 
L 390.708452 299.622176 
L 391.079537 298.799789 
L 391.450622 298.857859 
L 391.821706 298.341381 
L 392.192791 296.998219 
L 392.563876 296.649429 
L 392.93496 298.927443 
L 393.306045 299.778963 
L 393.67713 299.413332 
L 394.048214 298.761725 
L 394.419299 298.685004 
L 395.161468 299.113641 
L 395.532553 299.8783 
L 396.274722 299.153312 
L 396.645807 299.493074 
L 397.387976 299.609834 
L 397.759061 299.053478 
L 398.50123 299.772518 
L 398.872315 299.996233 
L 399.2434 299.336055 
L 399.614484 299.271771 
L 399.985569 299.008248 
L 400.356654 299.399687 
L 400.727738 299.406043 
L 401.098823 299.055781 
L 401.469908 299.861266 
L 401.840992 300.188652 
L 402.212077 299.086393 
L 402.583162 298.585348 
L 402.954246 299.125852 
L 403.325331 298.891207 
L 403.696416 299.389467 
L 404.0675 299.631643 
L 404.438585 299.62234 
L 404.809669 300.094507 
L 405.180754 300.100161 
L 405.551839 298.913508 
L 405.922923 298.461423 
L 406.294008 299.659132 
L 406.665093 299.630643 
L 407.036177 300.75575 
L 407.407262 299.25009 
L 407.778347 299.825697 
L 408.149431 298.596949 
L 408.520516 299.754567 
L 408.891601 299.892083 
L 409.262685 300.489482 
L 409.63377 299.07726 
L 410.004855 299.509129 
L 410.375939 299.049744 
L 410.747024 300.211846 
L 411.118109 299.807262 
L 411.489193 299.66691 
L 411.860278 300.190397 
L 412.231363 298.987729 
L 412.602447 300.162149 
L 412.973532 299.959646 
L 413.344617 298.910422 
L 413.715701 299.193994 
L 414.457871 300.472873 
L 414.828955 299.831537 
L 415.20004 300.178511 
L 415.571125 300.201936 
L 415.942209 299.419068 
L 416.313294 299.253708 
L 416.684379 298.530639 
L 417.055463 298.681638 
L 417.426548 298.482283 
L 417.797633 298.894174 
L 418.168717 299.08515 
L 418.539802 298.900519 
L 418.910886 298.571465 
L 419.281971 299.231471 
L 419.653056 299.556761 
L 420.02414 300.263875 
L 420.395225 300.339437 
L 420.76631 299.871544 
L 421.137394 299.898506 
L 421.508479 299.489068 
L 421.879564 299.665154 
L 422.250648 300.148354 
L 422.621733 300.173635 
L 422.992818 300.918945 
L 423.734987 299.436514 
L 424.106072 300.431182 
L 424.477156 300.218824 
L 424.848241 298.89158 
L 425.219326 299.742091 
L 425.59041 299.116332 
L 425.961495 299.568773 
L 426.33258 300.291872 
L 426.703664 299.854392 
L 427.074749 299.071195 
L 427.445834 300.806204 
L 427.816918 299.882745 
L 428.188003 300.486957 
L 428.559088 300.441077 
L 428.930172 300.735967 
L 429.672342 299.571772 
L 430.043426 300.623839 
L 430.414511 300.541058 
L 430.785596 301.084897 
L 431.15668 300.955588 
L 431.527765 300.45617 
L 432.269934 301.420342 
L 432.641019 299.828711 
L 433.012103 300.046981 
L 433.383188 299.160277 
L 433.754273 300.475703 
L 434.125357 300.418161 
L 434.496442 299.836768 
L 434.867527 300.409787 
L 435.238611 299.145191 
L 435.609696 300.253662 
L 435.980781 299.276494 
L 436.351865 300.064706 
L 436.72295 300.425477 
L 437.094035 299.833105 
L 437.465119 299.526463 
L 438.207289 300.379618 
L 438.578373 299.328588 
L 438.949458 299.165231 
L 439.320543 300.302978 
L 439.691627 299.841376 
L 440.062712 299.923604 
L 440.433797 300.764298 
L 440.804881 300.726369 
L 441.175966 300.401603 
L 441.547051 299.923938 
L 441.918135 299.669828 
L 442.28922 300.643751 
L 442.660305 299.925963 
L 443.031389 300.419624 
L 443.402474 300.173575 
L 444.144643 300.622119 
L 444.515728 299.741337 
L 444.886813 299.640621 
L 445.257897 300.897857 
L 445.628982 299.656606 
L 446.000067 299.567085 
L 446.371151 300.989069 
L 446.742236 299.278182 
L 447.11332 300.17822 
L 447.484405 300.31447 
L 447.85549 300.07786 
L 448.226574 299.300929 
L 448.597659 300.223159 
L 449.339828 300.696395 
L 449.710913 299.897755 
L 450.081998 300.100476 
L 450.453082 301.304136 
L 451.195252 300.243982 
L 451.566336 300.827807 
L 451.937421 300.82935 
L 452.67959 300.359902 
L 453.050675 301.135879 
L 453.42176 300.561304 
L 453.792844 300.515933 
L 454.163929 300.971208 
L 454.906098 299.846796 
L 455.277183 300.681439 
L 456.019352 301.017525 
L 456.390437 300.996441 
L 456.761522 300.369611 
L 457.874776 299.794632 
L 458.24586 300.360631 
L 458.616945 299.255273 
L 459.359114 300.701124 
L 459.730199 300.247543 
L 460.101284 300.882002 
L 460.472368 299.352124 
L 460.843453 299.163917 
L 461.214537 299.472297 
L 461.585622 300.418351 
L 461.956707 299.709908 
L 462.698876 299.816891 
L 463.069961 300.387802 
L 463.441045 301.555078 
L 463.81213 300.642201 
L 464.183215 300.789022 
L 464.554299 300.40779 
L 464.925384 300.624054 
L 465.296469 300.004394 
L 465.667553 300.756966 
L 466.038638 300.517817 
L 466.409723 301.153486 
L 466.780807 299.944958 
L 467.151892 301.252749 
L 467.522977 300.215232 
L 467.894061 301.147308 
L 468.265146 301.097311 
L 468.636231 301.25122 
L 469.007315 300.995466 
L 469.3784 300.258132 
L 469.749485 300.162222 
L 470.120569 300.510808 
L 470.862739 300.804443 
L 471.233823 301.4289 
L 471.604908 301.036187 
L 471.975993 301.193619 
L 472.347077 300.545715 
L 472.718162 300.532448 
L 473.089247 301.054854 
L 473.460331 300.118307 
L 473.831416 301.129434 
L 474.2025 300.562161 
L 474.573585 300.795438 
L 474.94467 300.584706 
L 475.315754 300.946113 
L 476.057924 300.441016 
L 476.429008 300.688656 
L 476.800093 300.199169 
L 477.171178 300.680169 
L 477.542262 299.977232 
L 477.913347 300.23132 
L 478.284432 301.002608 
L 478.655516 301.25668 
L 479.026601 300.458525 
L 479.397686 301.36737 
L 479.76877 301.25089 
L 480.139855 301.48376 
L 480.51094 300.274475 
L 480.882024 301.339771 
L 481.253109 300.635348 
L 481.624194 301.208812 
L 481.995278 300.750013 
L 482.366363 301.173533 
L 482.737448 300.718855 
L 483.108532 301.699361 
L 483.479617 301.081957 
L 483.850702 300.811128 
L 484.592871 301.116846 
L 484.963956 300.963822 
L 485.33504 301.405947 
L 485.706125 301.221491 
L 486.07721 301.537525 
L 486.448294 301.20936 
L 486.819379 300.650828 
L 487.190464 301.123552 
L 487.561548 300.215613 
L 488.303717 301.233327 
L 488.674802 300.533783 
L 489.045887 300.722485 
L 489.416971 301.6187 
L 489.788056 299.944733 
L 490.159141 300.375987 
L 490.530225 299.897063 
L 490.90131 300.5508 
L 491.272395 300.257799 
L 491.643479 300.211196 
L 492.385649 300.531422 
L 492.756733 300.404924 
L 493.127818 300.480658 
L 493.498903 299.662128 
L 493.869987 300.300112 
L 494.241072 300.5047 
L 494.612157 301.053218 
L 494.983241 300.785299 
L 495.354326 301.388476 
L 495.725411 300.285951 
L 496.096495 301.308094 
L 496.46758 300.799006 
L 496.838665 301.656788 
L 497.209749 301.084477 
L 497.580834 301.104801 
L 497.951919 300.151653 
L 498.323003 300.918326 
L 498.694088 301.295109 
L 499.065173 300.719006 
L 499.436257 299.607978 
L 499.807342 300.991297 
L 500.178427 301.035093 
L 500.549511 300.144802 
L 500.920596 300.698863 
L 501.291681 299.514557 
L 501.662765 301.644724 
L 502.03385 299.765968 
L 502.404934 300.697054 
L 502.776019 300.297799 
L 503.518188 301.574854 
L 503.889273 300.939821 
L 504.260358 299.935141 
L 504.631442 300.529331 
L 505.002527 300.255537 
L 505.373612 300.79501 
L 505.744696 301.070871 
L 506.115781 300.450114 
L 506.486866 300.736745 
L 506.85795 300.104745 
L 507.229035 301.18231 
L 507.971204 301.215207 
L 508.342289 301.58936 
L 508.713374 301.317792 
L 509.084458 301.572794 
L 509.455543 301.610087 
L 509.826628 300.680721 
L 510.197712 301.079708 
L 510.568797 300.64314 
L 510.939882 301.307505 
L 511.310966 300.897689 
L 511.682051 299.239048 
L 512.053136 301.236536 
L 512.42422 300.977456 
L 512.795305 301.892182 
L 513.908559 301.094397 
L 514.279644 302.341438 
L 514.650728 300.782205 
L 515.021813 301.942047 
L 515.392898 301.032174 
L 515.763982 301.121282 
L 516.135067 301.600754 
L 516.506151 301.627149 
L 516.877236 300.864346 
L 517.248321 301.518558 
L 517.619405 301.263579 
L 517.99049 302.083869 
L 518.361575 301.600964 
L 518.732659 301.585117 
L 519.103744 300.84646 
L 519.474829 301.480187 
L 519.845913 300.778751 
L 520.959167 301.50878 
L 521.330252 301.173549 
L 521.701337 301.126654 
L 522.072421 302.100192 
L 522.443506 300.637469 
L 522.814591 301.114824 
L 523.185675 300.941632 
L 523.55676 301.827645 
L 523.927845 299.691327 
L 524.298929 300.74853 
L 524.670014 301.212957 
L 525.041099 300.557283 
L 525.412183 301.223564 
L 525.783268 301.390167 
L 526.154353 302.349941 
L 526.525437 301.232038 
L 526.896522 301.954181 
L 527.267607 301.2806 
L 527.638691 301.233879 
L 528.009776 300.622559 
L 528.380861 302.101978 
L 529.12303 300.555701 
L 529.494115 300.91471 
L 529.865199 301.482922 
L 530.607368 300.558846 
L 530.978453 301.697075 
L 531.349538 300.94221 
L 531.720622 300.723287 
L 532.091707 301.214278 
L 532.462792 301.180419 
L 532.833876 301.328479 
L 533.204961 301.272596 
L 533.576046 301.057556 
L 533.94713 301.004201 
L 534.318215 301.476052 
L 534.6893 299.829036 
L 535.060384 300.163944 
L 535.431469 301.157001 
L 535.802554 300.215127 
L 536.173638 301.126425 
L 536.544723 301.223536 
L 536.915808 300.716448 
L 537.286892 300.979702 
L 538.029062 300.847428 
L 538.400146 301.333453 
L 538.771231 301.474863 
L 539.142316 300.381162 
L 539.5134 300.979431 
L 539.884485 301.231389 
L 540.25557 300.820307 
L 540.626654 300.950044 
L 540.997739 301.404221 
L 541.368824 300.924334 
L 541.739908 300.746689 
L 542.482078 300.900563 
L 542.853162 301.503979 
L 543.224247 301.301554 
L 543.595332 301.351734 
L 543.966416 301.0413 
L 544.337501 301.453002 
L 544.708585 300.803391 
L 545.07967 302.021049 
L 545.450755 300.446463 
L 545.821839 302.302932 
L 546.192924 302.645455 
L 546.564009 302.23056 
L 546.935093 300.998623 
L 547.306178 301.513799 
L 547.677263 301.705347 
L 548.048347 301.40136 
L 548.419432 301.3206 
L 549.161601 301.554487 
L 549.532686 301.487581 
L 549.903771 301.07612 
L 550.274855 301.121984 
L 550.64594 301.531361 
L 551.017025 300.920546 
L 551.388109 301.138643 
L 551.759194 300.571839 
L 552.130279 300.356848 
L 552.501363 300.410865 
L 552.872448 300.266292 
L 553.243533 299.869448 
L 553.614617 299.99569 
L 553.985702 299.994228 
L 554.356787 299.55615 
L 554.727871 300.783186 
L 555.098956 300.881952 
L 555.470041 300.651061 
L 555.841125 300.161497 
L 556.21221 300.763659 
L 556.583295 300.441133 
L 556.954379 301.386682 
L 557.325464 301.963276 
L 557.696549 300.775251 
L 558.067633 301.58011 
L 558.809802 301.390319 
L 559.180887 301.595117 
L 559.551972 301.489674 
L 560.294141 301.58393 
L 560.665226 301.231139 
L 561.03631 301.041258 
L 561.407395 301.55588 
L 561.77848 301.870362 
L 562.520649 301.665005 
L 562.891734 301.867311 
L 563.262818 301.528458 
L 563.633903 302.520063 
L 564.004988 302.021792 
L 564.376072 302.121351 
L 564.747157 301.31583 
L 565.118242 301.542334 
L 565.489326 301.281935 
L 565.860411 300.325148 
L 566.231496 301.433493 
L 566.60258 300.719679 
L 566.973665 301.593313 
L 567.34475 301.233809 
L 568.086919 301.942426 
L 568.458004 301.541802 
L 568.829088 301.954821 
L 569.200173 301.404084 
L 569.571258 301.974074 
L 570.313427 301.126991 
L 570.684512 302.119424 
L 571.055596 300.367277 
L 571.426681 301.249777 
L 571.797766 301.696994 
L 572.539935 301.552305 
L 572.911019 302.167391 
L 573.282104 301.518236 
L 573.653189 302.031977 
L 574.395358 301.209475 
L 574.766443 302.182385 
L 575.137527 301.91263 
L 575.508612 301.255521 
L 575.879697 301.731767 
L 576.250781 301.624647 
L 576.621866 301.804801 
L 576.992951 301.187448 
L 577.364035 300.952523 
L 578.106205 301.666307 
L 578.477289 301.318341 
L 578.848374 302.131029 
L 579.219459 301.306877 
L 579.590543 301.523448 
L 579.961628 301.462709 
L 580.332713 302.405241 
L 580.703797 300.546808 
L 581.074882 301.387364 
L 581.445967 301.216487 
L 581.817051 300.469926 
L 582.188136 301.093472 
L 582.559221 300.39131 
L 582.930305 301.025498 
L 583.672475 301.289168 
L 584.043559 301.328294 
L 584.414644 301.859436 
L 584.785729 301.601293 
L 585.156813 301.734597 
L 585.527898 301.31736 
L 585.898983 301.208394 
L 586.270067 301.489808 
L 586.641152 301.246014 
L 587.012236 301.694586 
L 587.383321 301.822019 
L 587.754406 300.944939 
L 588.12549 302.148167 
L 588.496575 301.642049 
L 588.86766 301.952405 
L 589.238744 301.946923 
L 589.609829 301.776653 
L 589.980914 300.479795 
L 590.351998 301.08472 
L 590.723083 301.387345 
L 591.094168 302.093348 
L 591.465252 301.147116 
L 592.207422 301.57232 
L 592.578506 302.24409 
L 592.949591 301.369755 
L 593.320676 301.997551 
L 593.69176 301.339814 
L 594.062845 301.245651 
L 594.43393 300.634003 
L 594.805014 302.266929 
L 595.176099 301.322281 
L 595.547184 300.87446 
L 595.918268 302.344399 
L 596.289353 301.25737 
L 596.660438 301.084339 
L 597.031522 301.126887 
L 597.402607 302.400444 
L 597.773692 301.701118 
L 598.144776 302.071049 
L 598.515861 301.119158 
L 599.25803 301.940818 
L 599.629115 301.730574 
L 600.0002 301.959191 
L 600.371284 301.074981 
L 600.742369 301.891516 
L 601.113453 301.613356 
L 601.484538 301.942594 
L 601.855623 301.584263 
L 602.226707 301.920173 
L 602.597792 301.700674 
L 602.968877 301.080866 
L 603.339961 300.89975 
L 604.082131 301.163903 
L 604.453215 300.070723 
L 604.8243 302.223733 
L 605.195385 302.057549 
L 605.566469 300.551195 
L 605.937554 300.811179 
L 606.308639 301.66997 
L 606.679723 301.244819 
L 607.050808 301.962549 
L 607.421893 301.890735 
L 607.792977 302.345286 
L 608.164062 302.203525 
L 608.906231 301.746449 
L 609.277316 302.323635 
L 609.648401 302.357231 
L 610.019485 302.554973 
L 610.39057 302.270728 
L 610.761655 302.508508 
L 611.132739 301.857524 
L 611.874909 301.551569 
L 612.245993 301.839417 
L 612.617078 302.343388 
L 612.988163 302.23459 
L 613.359247 301.908948 
L 613.730332 301.950118 
L 614.101417 301.487091 
L 614.472501 301.441328 
L 614.843586 302.536198 
L 615.21467 301.620175 
L 615.585755 302.437455 
L 615.95684 301.78937 
L 616.699009 302.467963 
L 617.070094 301.621909 
L 617.441178 302.197536 
L 617.812263 301.406169 
L 618.183348 302.069483 
L 618.554432 302.499676 
L 618.925517 302.482721 
L 619.296602 301.776914 
L 619.667686 302.073833 
L 620.038771 301.408625 
L 620.78094 302.110539 
L 621.152025 302.158288 
L 621.52311 301.618705 
L 621.894194 301.639547 
L 622.265279 301.79216 
L 622.636364 301.62671 
L 622.636364 301.62671 
" style="fill:none;stroke:#1f77b4;stroke-linecap:square;stroke-width:0.5;"/>
   </g>
   <g id="line2d_36">
    <path clip-path="url(#p9fdd98a4e5)" d="M 115.363636 64.549579 
L 115.734721 68.187112 
L 116.47689 78.883415 
L 116.847975 80.076276 
L 117.21906 82.415879 
L 117.590144 86.34108 
L 117.961229 88.287286 
L 118.332314 87.338444 
L 119.445568 96.474433 
L 119.816652 97.926457 
L 120.187737 102.864355 
L 120.558822 101.061089 
L 120.929906 105.982746 
L 122.414245 117.798343 
L 122.78533 123.185853 
L 123.156414 126.638981 
L 123.527499 126.640309 
L 124.269668 136.981926 
L 124.640753 141.550931 
L 125.011837 143.541308 
L 125.382922 149.368368 
L 125.754007 150.450771 
L 126.496176 158.785593 
L 126.867261 160.377274 
L 127.238345 163.570988 
L 127.980515 172.435467 
L 128.351599 174.263702 
L 128.722684 173.763684 
L 129.093769 179.531395 
L 129.464853 181.212858 
L 129.835938 181.970856 
L 130.207023 185.544102 
L 130.578107 190.58669 
L 130.949192 191.111216 
L 131.320277 194.534232 
L 131.691361 196.622644 
L 132.062446 198.023061 
L 132.433531 200.475961 
L 132.804615 200.775819 
L 133.1757 205.216245 
L 133.546785 205.232351 
L 134.288954 210.301713 
L 134.660039 209.946375 
L 135.031123 213.257309 
L 135.402208 214.543561 
L 135.773293 216.908261 
L 136.144377 217.080975 
L 136.515462 216.287217 
L 136.886547 219.076029 
L 137.257631 219.814934 
L 137.628716 222.509332 
L 137.9998 223.645091 
L 138.370885 224.041104 
L 139.113054 225.461115 
L 139.484139 225.814684 
L 139.855224 226.516753 
L 140.226308 227.798669 
L 140.597393 230.72528 
L 140.968478 230.588532 
L 141.339562 233.121469 
L 141.710647 232.600274 
L 142.452816 235.157087 
L 142.823901 234.016595 
L 143.194986 237.732159 
L 143.56607 236.738481 
L 143.937155 235.250366 
L 144.30824 236.805331 
L 144.679324 236.192712 
L 145.050409 239.524988 
L 145.421494 239.165406 
L 146.163663 239.259345 
L 146.534748 242.624039 
L 146.905832 241.578382 
L 147.276917 239.998217 
L 147.648002 242.517809 
L 148.019086 243.464728 
L 148.390171 245.188566 
L 148.761256 244.391553 
L 149.13234 244.054453 
L 149.87451 245.638852 
L 150.245594 246.108748 
L 150.616679 245.096123 
L 150.987764 247.220087 
L 151.358848 246.483396 
L 151.729933 246.801436 
L 152.101017 251.772886 
L 152.472102 247.464198 
L 153.214271 249.52551 
L 153.585356 249.436875 
L 154.327525 250.222601 
L 154.69861 249.313051 
L 155.069695 252.169468 
L 155.440779 250.857593 
L 155.811864 252.713898 
L 156.182949 252.996274 
L 156.554033 251.799335 
L 156.925118 253.46687 
L 157.296203 251.885499 
L 157.667287 253.563839 
L 158.038372 254.496097 
L 158.409457 254.313811 
L 158.780541 254.388278 
L 159.151626 252.169161 
L 159.522711 256.350731 
L 159.893795 254.798817 
L 160.26488 254.441221 
L 160.635965 256.836835 
L 161.378134 256.218509 
L 161.749219 256.730766 
L 162.120303 258.096919 
L 162.491388 254.988411 
L 162.862473 258.885536 
L 163.233557 258.126183 
L 163.604642 257.704351 
L 163.975727 258.884117 
L 164.346811 257.122899 
L 164.717896 257.838986 
L 165.088981 260.064314 
L 165.460065 260.3126 
L 165.83115 259.675279 
L 166.202234 258.52114 
L 166.944404 260.947096 
L 167.315488 260.45483 
L 167.686573 261.525097 
L 168.057658 261.363409 
L 168.428742 260.693631 
L 168.799827 261.135911 
L 169.170912 260.915337 
L 169.541996 261.88654 
L 169.913081 261.443573 
L 170.284166 261.786052 
L 170.65525 262.945913 
L 171.026335 263.055077 
L 171.39742 262.350116 
L 171.768504 261.939131 
L 172.510674 263.649021 
L 172.881758 262.305096 
L 173.252843 264.533994 
L 173.623928 262.624497 
L 173.995012 263.60415 
L 174.366097 263.925676 
L 174.737182 264.627003 
L 175.108266 262.120491 
L 175.850436 263.979242 
L 176.22152 261.723007 
L 176.592605 264.179019 
L 176.96369 264.679517 
L 177.334774 265.38826 
L 177.705859 263.819874 
L 178.076944 264.113045 
L 179.190198 267.73459 
L 179.561282 267.34877 
L 179.932367 266.270466 
L 180.303451 264.787293 
L 180.674536 264.821726 
L 181.045621 266.767255 
L 181.416705 264.614045 
L 181.78779 265.204091 
L 182.158875 265.124079 
L 182.529959 268.569899 
L 183.272129 266.045503 
L 183.643213 268.555742 
L 184.014298 267.867167 
L 184.385383 266.659819 
L 184.756467 267.440244 
L 185.127552 266.337591 
L 185.498637 268.438768 
L 185.869721 268.798023 
L 186.240806 266.251084 
L 186.982975 269.660531 
L 187.35406 268.102187 
L 187.725145 267.65586 
L 188.096229 270.179984 
L 188.467314 268.304021 
L 188.838399 268.167407 
L 189.209483 269.431332 
L 189.580568 268.192749 
L 189.951653 268.189308 
L 190.322737 270.138239 
L 190.693822 268.438466 
L 191.064907 268.32674 
L 191.807076 268.832085 
L 192.178161 268.583297 
L 192.549245 270.65653 
L 192.92033 268.252364 
L 193.291415 269.756551 
L 193.662499 269.438355 
L 194.033584 268.263906 
L 194.775753 271.011111 
L 195.146838 269.659904 
L 195.517922 270.88623 
L 195.889007 269.484126 
L 196.631176 271.058941 
L 197.002261 270.767977 
L 197.373346 269.975628 
L 197.74443 272.296791 
L 198.115515 271.801666 
L 198.4866 271.588267 
L 198.857684 272.445746 
L 199.228769 270.992504 
L 199.599854 273.28332 
L 199.970938 271.510608 
L 200.342023 272.852709 
L 200.713108 272.912242 
L 201.084192 270.914854 
L 201.455277 273.753799 
L 201.826362 272.082676 
L 202.197446 271.403291 
L 202.568531 271.720778 
L 202.939616 270.45546 
L 203.3107 273.075383 
L 203.681785 270.986981 
L 204.05287 273.249814 
L 204.423954 272.332044 
L 204.795039 274.282058 
L 205.166124 273.623391 
L 205.537208 273.912824 
L 205.908293 271.926168 
L 206.279378 274.330447 
L 207.021547 272.316942 
L 207.392632 273.981137 
L 207.763716 271.791824 
L 208.505885 275.452201 
L 208.87697 274.489773 
L 209.248055 272.16136 
L 209.619139 274.816823 
L 209.990224 273.481954 
L 210.361309 275.978768 
L 211.103478 272.359644 
L 211.474563 273.546968 
L 211.845647 276.115033 
L 212.216732 274.332216 
L 212.587817 273.147942 
L 212.958901 273.087187 
L 213.329986 275.646139 
L 213.701071 274.906515 
L 214.072155 274.612968 
L 214.44324 278.059707 
L 215.185409 274.51525 
L 215.556494 276.601849 
L 215.927579 275.946161 
L 216.298663 275.693531 
L 216.669748 276.928674 
L 217.411917 277.191144 
L 217.783002 273.247653 
L 218.154087 276.875974 
L 218.525171 278.214988 
L 218.896256 274.596492 
L 219.267341 279.270589 
L 219.638425 275.891779 
L 220.00951 277.99494 
L 220.380595 274.744761 
L 220.751679 277.54904 
L 221.122764 276.670792 
L 221.493849 277.544008 
L 221.864933 277.070541 
L 222.236018 277.731838 
L 222.607102 277.061839 
L 222.978187 277.112539 
L 223.349272 275.75406 
L 223.720356 276.344478 
L 224.091441 277.393218 
L 224.462526 277.339781 
L 224.83361 275.506756 
L 225.57578 277.547353 
L 225.946864 279.594099 
L 226.317949 277.526593 
L 226.689034 277.181512 
L 227.060118 277.496267 
L 227.431203 278.453286 
L 227.802288 278.047632 
L 228.173372 278.218627 
L 228.544457 280.538533 
L 228.915542 276.342799 
L 229.286626 277.948644 
L 229.657711 277.24896 
L 230.028796 277.290213 
L 230.39988 277.060966 
L 230.770965 278.574311 
L 231.14205 278.337394 
L 231.513134 277.428677 
L 231.884219 277.468504 
L 232.255304 280.027252 
L 232.626388 278.9517 
L 232.997473 278.316403 
L 233.368558 278.917325 
L 233.739642 279.021593 
L 234.110727 279.456241 
L 234.481812 278.510523 
L 234.852896 278.397573 
L 235.223981 281.079342 
L 235.595066 279.699218 
L 235.96615 279.053992 
L 236.337235 276.821565 
L 236.708319 279.227735 
L 237.079404 279.847821 
L 237.450489 279.457918 
L 237.821573 280.523355 
L 238.192658 279.136315 
L 238.934827 281.615365 
L 239.305912 280.833829 
L 239.676997 280.552766 
L 240.048081 281.438335 
L 240.419166 278.5775 
L 240.790251 281.110459 
L 241.161335 279.610889 
L 241.53242 279.63148 
L 241.903505 278.385229 
L 242.274589 280.683703 
L 242.645674 281.867397 
L 243.016759 280.201786 
L 243.387843 277.921143 
L 243.758928 279.866952 
L 244.130013 278.365652 
L 244.501097 281.180906 
L 244.872182 279.970327 
L 245.614351 281.76014 
L 245.985436 281.155115 
L 246.356521 281.516828 
L 246.727605 280.439991 
L 247.09869 280.483876 
L 247.469775 282.602421 
L 247.840859 279.264873 
L 248.211944 279.126621 
L 248.583029 282.056794 
L 248.954113 281.424153 
L 249.325198 283.052947 
L 249.696283 281.088288 
L 250.438452 282.789342 
L 250.809536 279.880978 
L 251.180621 282.662102 
L 251.551706 283.947485 
L 251.92279 281.073182 
L 252.293875 282.513323 
L 252.66496 280.607663 
L 253.036044 282.012274 
L 253.407129 281.142712 
L 253.778214 282.643764 
L 254.149298 280.023323 
L 254.520383 281.239082 
L 255.262552 284.424883 
L 255.633637 282.688696 
L 256.004722 284.238557 
L 256.375806 283.267451 
L 256.746891 283.689498 
L 257.117976 281.904259 
L 257.48906 283.741432 
L 257.860145 281.555289 
L 258.23123 282.309283 
L 258.602314 281.960622 
L 258.973399 284.06925 
L 259.344484 281.141386 
L 259.715568 282.631464 
L 260.086653 281.574645 
L 260.457738 282.961496 
L 260.828822 285.473703 
L 261.570992 281.496446 
L 261.942076 283.451026 
L 262.313161 283.379447 
L 262.684246 283.115154 
L 263.05533 284.386849 
L 263.426415 283.083527 
L 263.7975 282.270511 
L 264.168584 283.998456 
L 264.539669 281.886956 
L 264.910753 282.337964 
L 265.652923 285.464857 
L 266.024007 284.300811 
L 266.395092 283.803141 
L 267.137261 285.758081 
L 267.508346 284.566046 
L 267.879431 283.777022 
L 268.250515 283.35439 
L 268.6216 285.249913 
L 268.992685 285.060967 
L 269.363769 286.091476 
L 269.734854 285.866008 
L 270.105939 286.506836 
L 270.477023 286.239524 
L 270.848108 284.633586 
L 271.590277 286.775862 
L 272.703531 283.81012 
L 273.074616 285.67049 
L 273.445701 285.958765 
L 273.816785 286.55067 
L 274.18787 283.1043 
L 274.558955 285.172929 
L 274.930039 283.063898 
L 275.301124 286.487685 
L 275.672209 285.355168 
L 276.043293 287.717647 
L 276.414378 283.436132 
L 276.785463 285.688252 
L 277.156547 285.97489 
L 277.527632 283.713596 
L 277.898716 284.921138 
L 278.269801 285.715557 
L 278.640886 287.431161 
L 279.01197 286.332806 
L 279.383055 283.515415 
L 279.75414 289.206046 
L 280.125224 287.257875 
L 280.496309 287.14411 
L 280.867394 284.59878 
L 281.238478 285.774845 
L 281.609563 285.313876 
L 282.351732 287.575586 
L 282.722817 286.598164 
L 283.093902 285.101528 
L 283.464986 287.638488 
L 283.836071 287.972228 
L 284.207156 285.861608 
L 284.57824 286.4122 
L 284.949325 285.058693 
L 285.32041 287.391328 
L 285.691494 284.73323 
L 286.062579 286.403124 
L 286.433664 285.367931 
L 286.804748 287.973885 
L 287.175833 286.816118 
L 287.546918 287.828242 
L 287.918002 286.35571 
L 288.289087 287.734854 
L 288.660172 286.642784 
L 289.031256 288.024971 
L 289.402341 286.693019 
L 289.773426 289.22566 
L 290.14451 287.039707 
L 290.515595 286.166749 
L 290.88668 288.438331 
L 291.257764 286.712277 
L 291.628849 288.215767 
L 291.999933 286.551324 
L 292.742103 288.290507 
L 293.484272 287.142755 
L 294.226441 288.65222 
L 294.597526 288.313465 
L 294.968611 286.834123 
L 295.339695 289.060491 
L 295.71078 287.902435 
L 296.081865 289.265946 
L 296.452949 287.330636 
L 296.824034 287.262042 
L 297.195119 289.500306 
L 297.566203 286.400859 
L 298.308373 289.405885 
L 298.679457 286.594656 
L 299.050542 288.870456 
L 299.421627 289.652897 
L 299.792711 287.910506 
L 300.163796 287.026108 
L 300.534881 287.349376 
L 300.905965 289.078516 
L 301.27705 289.825168 
L 301.648135 289.42717 
L 302.019219 287.278496 
L 302.390304 288.873685 
L 302.761389 287.95653 
L 303.132473 290.883867 
L 303.503558 287.759071 
L 303.874643 287.528415 
L 304.245727 289.595194 
L 304.616812 288.491511 
L 304.987897 288.820594 
L 305.358981 286.821624 
L 305.730066 289.88331 
L 306.472235 289.399051 
L 306.84332 289.615756 
L 307.214404 290.072719 
L 307.585489 289.100995 
L 307.956574 289.364384 
L 308.327658 287.917116 
L 308.698743 289.329384 
L 309.440912 289.032871 
L 309.811997 288.481239 
L 310.183082 290.576295 
L 310.554166 290.065458 
L 310.925251 289.103079 
L 311.296336 289.367953 
L 311.66742 287.401722 
L 312.038505 289.891669 
L 312.40959 288.855718 
L 312.780674 288.531623 
L 313.151759 290.322686 
L 313.522844 288.915746 
L 313.893928 288.310867 
L 314.265013 290.196501 
L 314.636098 291.1271 
L 315.007182 290.104608 
L 315.378267 289.840784 
L 315.749352 288.147637 
L 316.120436 289.832218 
L 316.491521 289.610982 
L 316.862606 291.162065 
L 317.23369 289.087275 
L 317.604775 289.52784 
L 317.97586 289.735974 
L 318.346944 290.901208 
L 318.718029 289.876706 
L 319.089114 290.440971 
L 319.831283 290.100634 
L 320.202367 290.387034 
L 320.573452 291.053439 
L 320.944537 288.818116 
L 321.686706 290.905162 
L 322.057791 289.673499 
L 322.428875 290.831059 
L 322.79996 291.016739 
L 323.171045 286.723276 
L 323.542129 290.171387 
L 323.913214 291.525165 
L 324.284299 291.354946 
L 324.655383 290.047331 
L 325.026468 287.438562 
L 325.397553 289.903477 
L 325.768637 288.328387 
L 326.139722 291.539521 
L 326.510807 292.596061 
L 326.881891 291.738835 
L 327.252976 290.60027 
L 327.624061 292.050555 
L 327.995145 289.707342 
L 328.36623 290.284656 
L 328.737315 290.58491 
L 329.108399 290.227707 
L 329.479484 289.105458 
L 329.850569 290.317401 
L 330.221653 290.080198 
L 330.592738 291.220894 
L 330.963823 289.767925 
L 331.334907 291.80529 
L 331.705992 291.209332 
L 332.077077 289.161649 
L 332.448161 290.130442 
L 332.819246 292.761329 
L 333.190331 291.288292 
L 333.561415 293.739419 
L 333.9325 290.778917 
L 334.303584 292.962323 
L 334.674669 291.608185 
L 335.045754 289.525507 
L 335.416838 290.853233 
L 335.787923 290.367708 
L 336.159008 290.706602 
L 336.530092 290.64608 
L 336.901177 289.502764 
L 337.272262 289.771134 
L 337.643346 292.803992 
L 338.014431 291.988302 
L 338.385516 292.374161 
L 338.7566 290.999327 
L 339.127685 291.010239 
L 339.49877 288.300054 
L 340.240939 292.656978 
L 340.612024 290.857555 
L 341.354193 292.734652 
L 341.725278 291.854911 
L 342.096362 291.800404 
L 342.467447 290.679874 
L 342.838532 291.061007 
L 343.209616 292.399922 
L 343.580701 291.183269 
L 343.951786 292.948646 
L 344.32287 291.612427 
L 344.693955 293.191392 
L 345.06504 291.953387 
L 345.436124 292.322754 
L 345.807209 291.643834 
L 346.178294 291.580589 
L 346.549378 293.418256 
L 346.920463 292.926173 
L 347.291548 292.080063 
L 347.662632 293.171349 
L 348.033717 292.967586 
L 348.775886 291.88152 
L 349.146971 291.995464 
L 349.518055 292.681327 
L 349.88914 293.084592 
L 350.260225 292.431533 
L 350.631309 290.198122 
L 351.002394 290.457869 
L 351.373479 294.063871 
L 351.744563 292.005291 
L 352.115648 292.609667 
L 352.486733 292.692724 
L 352.857817 292.425154 
L 353.228902 293.525318 
L 353.971071 291.529937 
L 354.342156 291.02021 
L 354.713241 292.399344 
L 355.084325 292.989219 
L 355.45541 291.770579 
L 355.826495 291.381966 
L 356.197579 292.235686 
L 356.568664 290.237356 
L 356.939749 293.366744 
L 357.310833 293.419263 
L 357.681918 290.799061 
L 358.053003 292.93462 
L 358.424087 290.763181 
L 358.795172 289.765069 
L 359.166257 292.029551 
L 359.537341 293.032248 
L 359.908426 293.229688 
L 360.279511 293.189088 
L 360.650595 292.120241 
L 361.02168 293.087484 
L 361.392765 292.059847 
L 361.763849 294.082452 
L 362.134934 291.788969 
L 362.506018 291.811898 
L 362.877103 291.602728 
L 363.248188 291.896304 
L 363.619272 291.113682 
L 363.990357 293.875707 
L 364.732526 291.763471 
L 365.103611 292.061625 
L 365.474696 293.516021 
L 365.84578 291.471699 
L 366.216865 290.571121 
L 366.58795 292.139731 
L 366.959034 292.366375 
L 367.330119 291.992404 
L 367.701204 294.496615 
L 368.072288 293.91937 
L 368.443373 292.201847 
L 368.814458 293.580137 
L 369.185542 293.152754 
L 369.556627 290.729661 
L 370.298796 292.981722 
L 370.669881 292.826819 
L 371.040966 293.022626 
L 371.41205 292.39102 
L 371.783135 293.084217 
L 372.15422 293.349496 
L 372.525304 291.294794 
L 372.896389 292.575236 
L 373.267474 292.884721 
L 373.638558 294.115576 
L 374.009643 291.821023 
L 374.380728 292.528224 
L 375.122897 292.716944 
L 375.493982 294.380223 
L 375.865066 293.197124 
L 376.236151 292.539646 
L 376.607235 293.443535 
L 376.97832 293.023328 
L 377.349405 291.907151 
L 377.720489 295.641268 
L 378.091574 291.553031 
L 378.462659 292.405101 
L 378.833743 292.264831 
L 379.204828 294.705961 
L 379.946997 291.421198 
L 380.318082 292.967929 
L 380.689167 293.28681 
L 381.060251 293.897665 
L 381.431336 293.573371 
L 381.802421 293.801643 
L 382.173505 293.712884 
L 382.54459 293.756032 
L 382.915675 295.035987 
L 383.657844 290.743365 
L 384.028929 294.512154 
L 384.400013 293.691799 
L 384.771098 293.146056 
L 385.142183 293.407372 
L 385.513267 294.063668 
L 385.884352 294.083654 
L 386.255437 292.648924 
L 386.626521 292.832432 
L 387.368691 293.797053 
L 387.739775 292.000656 
L 388.11086 291.871177 
L 389.224114 293.491646 
L 389.595199 291.996901 
L 389.966283 292.144502 
L 390.337368 293.38921 
L 390.708452 292.272268 
L 391.079537 294.510264 
L 391.450622 292.781217 
L 391.821706 292.797838 
L 392.192791 292.435981 
L 392.563876 293.734246 
L 392.93496 291.281426 
L 393.306045 291.126558 
L 393.67713 289.722809 
L 394.048214 293.818967 
L 394.419299 292.470668 
L 394.790384 294.448852 
L 395.161468 294.749311 
L 395.532553 293.250203 
L 395.903638 294.46108 
L 396.274722 293.418086 
L 396.645807 291.203193 
L 397.016892 294.921625 
L 397.387976 294.314586 
L 397.759061 294.4489 
L 398.130146 293.69592 
L 398.50123 292.661457 
L 398.872315 292.139487 
L 399.2434 293.053833 
L 399.614484 291.186642 
L 399.985569 294.900418 
L 400.356654 295.329521 
L 400.727738 292.875833 
L 401.098823 292.692836 
L 401.469908 294.474161 
L 401.840992 292.54952 
L 402.212077 293.361604 
L 402.583162 293.600851 
L 402.954246 291.842634 
L 403.325331 294.192774 
L 403.696416 293.871765 
L 404.0675 292.737981 
L 404.438585 293.268526 
L 404.809669 294.145235 
L 405.180754 295.678915 
L 405.551839 292.345651 
L 405.922923 295.139983 
L 406.294008 292.290764 
L 406.665093 293.977539 
L 407.036177 293.571113 
L 407.407262 294.040893 
L 407.778347 293.941988 
L 408.149431 292.567625 
L 408.520516 294.470032 
L 408.891601 295.609355 
L 409.262685 292.301618 
L 409.63377 292.177611 
L 410.004855 292.762725 
L 410.375939 293.822024 
L 410.747024 293.385764 
L 411.118109 293.258323 
L 411.489193 295.103842 
L 411.860278 294.724033 
L 412.231363 294.81888 
L 412.602447 293.630821 
L 412.973532 293.177739 
L 413.344617 292.338249 
L 413.715701 292.231075 
L 414.086786 293.716039 
L 414.457871 293.237595 
L 414.828955 295.034624 
L 415.20004 293.325208 
L 415.571125 294.289457 
L 415.942209 292.719701 
L 416.313294 292.504328 
L 416.684379 292.66996 
L 417.055463 293.876525 
L 417.426548 293.673481 
L 417.797633 292.896956 
L 418.539802 292.85206 
L 418.910886 293.774251 
L 419.281971 293.485413 
L 419.653056 293.918126 
L 420.02414 293.475932 
L 420.395225 293.683689 
L 420.76631 294.325901 
L 421.137394 293.877472 
L 421.508479 293.727984 
L 421.879564 295.185757 
L 422.250648 294.354558 
L 422.621733 294.272417 
L 423.363902 292.387351 
L 423.734987 294.428219 
L 424.106072 295.163697 
L 424.477156 292.478475 
L 425.219326 295.884638 
L 425.59041 295.484824 
L 425.961495 295.801213 
L 426.33258 294.693644 
L 426.703664 295.39883 
L 427.074749 294.020116 
L 427.816918 292.491715 
L 428.188003 294.525812 
L 428.559088 294.70408 
L 428.930172 293.956641 
L 429.301257 295.332698 
L 429.672342 294.102221 
L 430.043426 295.484421 
L 430.414511 294.775421 
L 430.785596 293.39362 
L 431.15668 295.222682 
L 431.527765 294.891136 
L 431.89885 295.627567 
L 432.269934 293.655338 
L 432.641019 293.648614 
L 433.012103 295.404852 
L 433.383188 296.410912 
L 433.754273 293.773388 
L 434.125357 293.895011 
L 434.496442 294.613222 
L 434.867527 294.240709 
L 435.238611 294.172497 
L 435.609696 296.114023 
L 436.351865 293.701202 
L 437.094035 294.649288 
L 437.465119 294.597066 
L 437.836204 293.922883 
L 438.207289 294.673069 
L 438.578373 294.257137 
L 438.949458 294.820051 
L 439.320543 293.971725 
L 439.691627 295.768054 
L 440.062712 294.780377 
L 440.433797 295.273149 
L 440.804881 294.671059 
L 441.175966 295.052225 
L 441.547051 293.832715 
L 441.918135 294.822587 
L 442.28922 295.427419 
L 442.660305 295.062043 
L 443.031389 293.606979 
L 443.402474 295.252812 
L 443.773559 294.877906 
L 444.144643 293.405819 
L 444.515728 293.558587 
L 444.886813 295.091551 
L 445.257897 292.190253 
L 445.628982 294.974812 
L 446.000067 295.791156 
L 446.371151 294.749716 
L 446.742236 293.057576 
L 447.11332 294.573234 
L 447.484405 292.541964 
L 447.85549 292.129492 
L 448.226574 293.59963 
L 448.597659 290.826916 
L 449.339828 295.093366 
L 449.710913 294.311154 
L 450.453082 294.671863 
L 450.824167 292.004914 
L 451.195252 294.328011 
L 451.566336 294.68042 
L 451.937421 294.546977 
L 452.308506 295.366005 
L 452.67959 295.637411 
L 453.050675 294.396971 
L 453.792844 295.221085 
L 454.163929 294.438985 
L 454.535014 294.953602 
L 454.906098 295.102359 
L 455.277183 295.052168 
L 455.648268 294.152623 
L 456.019352 295.319026 
L 456.390437 294.638993 
L 456.761522 295.143479 
L 457.132606 297.034479 
L 457.503691 293.367645 
L 457.874776 293.791585 
L 458.24586 293.429676 
L 458.616945 294.082719 
L 458.98803 293.270011 
L 459.359114 293.934274 
L 459.730199 295.23154 
L 460.101284 293.934664 
L 460.472368 293.534573 
L 460.843453 292.474046 
L 461.214537 290.471097 
L 461.585622 293.649934 
L 461.956707 295.368019 
L 462.327791 295.833126 
L 462.698876 296.107605 
L 463.069961 295.840778 
L 463.441045 294.070111 
L 463.81213 296.085527 
L 464.183215 295.145805 
L 464.554299 294.781405 
L 464.925384 296.551846 
L 465.296469 294.559065 
L 465.667553 295.614249 
L 466.038638 294.611598 
L 466.409723 295.461855 
L 467.522977 296.462209 
L 467.894061 295.528939 
L 468.265146 295.800368 
L 469.007315 294.183138 
L 469.3784 295.732814 
L 469.749485 294.915162 
L 470.120569 293.40524 
L 470.491654 293.239257 
L 470.862739 293.854999 
L 471.233823 292.591923 
L 471.975993 295.407511 
L 472.347077 294.892397 
L 473.089247 294.60282 
L 474.2025 296.16205 
L 474.573585 295.457629 
L 474.94467 292.588819 
L 475.315754 295.616663 
L 475.686839 296.266438 
L 476.057924 296.138806 
L 476.429008 293.471874 
L 476.800093 295.685626 
L 477.171178 292.747254 
L 477.542262 294.096279 
L 477.913347 294.997771 
L 478.284432 294.050157 
L 479.026601 295.340159 
L 479.397686 294.515766 
L 479.76877 294.730003 
L 480.139855 295.123094 
L 480.51094 294.639134 
L 480.882024 294.97042 
L 481.253109 296.448094 
L 481.995278 294.005371 
L 482.366363 293.964692 
L 482.737448 294.955012 
L 483.108532 294.977202 
L 483.479617 294.760548 
L 483.850702 292.199842 
L 484.221786 293.958363 
L 484.592871 293.362907 
L 484.963956 294.062177 
L 485.33504 296.682278 
L 485.706125 295.765704 
L 486.07721 295.290131 
L 486.448294 295.950337 
L 486.819379 293.913085 
L 487.190464 295.020853 
L 487.561548 295.566469 
L 487.932633 294.979554 
L 488.303717 293.453143 
L 488.674802 292.782923 
L 489.045887 295.763273 
L 489.416971 295.225248 
L 489.788056 295.865815 
L 490.159141 291.403915 
L 490.530225 296.095883 
L 490.90131 295.174534 
L 491.272395 293.48431 
L 491.643479 295.524902 
L 492.014564 293.883761 
L 492.385649 294.960205 
L 492.756733 295.686132 
L 493.127818 296.749547 
L 493.498903 294.669406 
L 494.241072 295.157925 
L 494.983241 294.837039 
L 495.725411 293.290693 
L 496.096495 293.03158 
L 496.46758 295.176931 
L 496.838665 294.981344 
L 497.951919 295.964053 
L 498.323003 293.294199 
L 498.694088 294.48488 
L 499.065173 294.533026 
L 499.436257 294.346624 
L 499.807342 295.391801 
L 500.178427 293.398396 
L 500.549511 293.166874 
L 500.920596 295.844253 
L 501.291681 293.598913 
L 501.662765 295.177739 
L 502.03385 294.305354 
L 502.404934 295.277228 
L 502.776019 295.431237 
L 503.147104 294.124339 
L 503.518188 293.596943 
L 504.260358 291.982821 
L 505.002527 295.976854 
L 505.373612 294.849977 
L 505.744696 296.569078 
L 506.115781 295.632548 
L 506.486866 295.485629 
L 506.85795 297.018622 
L 507.229035 293.10923 
L 507.60012 295.226265 
L 507.971204 294.592346 
L 508.342289 295.031982 
L 508.713374 294.480914 
L 509.084458 293.710427 
L 509.455543 295.986166 
L 509.826628 295.932355 
L 510.197712 294.041439 
L 510.568797 295.539303 
L 510.939882 296.11462 
L 511.310966 295.828364 
L 511.682051 295.350637 
L 512.053136 296.247412 
L 512.42422 293.953216 
L 512.795305 294.727249 
L 513.16639 295.152505 
L 513.537474 295.297709 
L 513.908559 296.411917 
L 514.279644 295.812828 
L 514.650728 294.150601 
L 515.021813 294.036138 
L 515.392898 295.299102 
L 515.763982 295.052475 
L 516.135067 295.055761 
L 516.506151 293.68357 
L 516.877236 295.445186 
L 517.248321 294.771996 
L 517.619405 295.421279 
L 518.361575 294.646887 
L 518.732659 295.930336 
L 519.103744 295.071007 
L 519.474829 295.700209 
L 519.845913 294.134112 
L 520.216998 295.351311 
L 520.588083 293.398422 
L 520.959167 294.501222 
L 521.330252 293.67686 
L 521.701337 294.160545 
L 522.072421 293.171085 
L 522.443506 294.412869 
L 522.814591 293.110791 
L 523.185675 295.139456 
L 523.55676 295.77779 
L 523.927845 294.827717 
L 524.298929 296.284636 
L 524.670014 294.243177 
L 525.041099 292.933331 
L 525.412183 295.314833 
L 525.783268 295.995778 
L 526.525437 292.782794 
L 527.267607 294.677528 
L 527.638691 295.139318 
L 528.009776 295.019987 
L 528.380861 294.626865 
L 528.751945 295.99672 
L 529.12303 294.615669 
L 529.494115 295.123941 
L 529.865199 297.795595 
L 530.236284 293.752597 
L 530.607368 296.037669 
L 530.978453 294.537502 
L 531.349538 295.178083 
L 531.720622 297.202641 
L 532.091707 294.202649 
L 532.462792 294.275621 
L 532.833876 292.842114 
L 533.204961 295.293227 
L 533.576046 295.206794 
L 533.94713 295.306675 
L 534.318215 295.037388 
L 534.6893 293.620894 
L 535.060384 295.026319 
L 535.431469 292.639031 
L 535.802554 295.70465 
L 536.173638 294.874681 
L 536.544723 296.138694 
L 536.915808 296.372284 
L 537.657977 294.594123 
L 538.029062 297.294782 
L 538.400146 294.62622 
L 538.771231 296.111505 
L 539.142316 293.372673 
L 539.5134 296.654459 
L 539.884485 296.135231 
L 540.25557 293.958162 
L 540.626654 296.646403 
L 540.997739 296.793594 
L 541.368824 296.152219 
L 541.739908 293.07917 
L 542.110993 294.176573 
L 542.482078 296.058752 
L 542.853162 295.628212 
L 543.224247 296.602195 
L 543.595332 296.447805 
L 544.337501 294.448401 
L 544.708585 294.028677 
L 545.07967 294.29324 
L 545.450755 295.377512 
L 545.821839 294.946746 
L 546.564009 295.126495 
L 546.935093 296.254851 
L 547.306178 294.80873 
L 547.677263 294.84016 
L 548.048347 295.523452 
L 548.419432 294.497289 
L 548.790517 295.861223 
L 549.161601 294.527722 
L 549.532686 295.740134 
L 549.903771 294.377468 
L 550.274855 293.973263 
L 550.64594 291.384896 
L 551.017025 295.509936 
L 551.388109 294.471577 
L 551.759194 294.706259 
L 552.130279 295.953903 
L 552.501363 295.456449 
L 552.872448 291.984713 
L 553.243533 292.446518 
L 553.614617 292.256502 
L 553.985702 295.157412 
L 554.356787 294.448352 
L 554.727871 291.444642 
L 555.098956 292.7039 
L 555.470041 295.548987 
L 555.841125 293.133707 
L 556.21221 294.811642 
L 556.583295 293.437927 
L 556.954379 292.883048 
L 557.325464 293.593774 
L 557.696549 294.818766 
L 558.067633 295.022868 
L 558.438718 294.791851 
L 558.809802 294.214885 
L 559.180887 296.185285 
L 559.551972 295.477068 
L 560.294141 295.029155 
L 560.665226 296.041642 
L 561.03631 294.491136 
L 561.407395 294.992872 
L 561.77848 294.048219 
L 562.520649 296.835054 
L 562.891734 295.031514 
L 563.262818 296.272654 
L 563.633903 294.523527 
L 564.376072 295.962298 
L 564.747157 295.691172 
L 565.118242 295.726724 
L 565.860411 296.190481 
L 566.231496 295.951977 
L 566.60258 295.062617 
L 566.973665 297.270101 
L 567.34475 295.747076 
L 567.715834 296.570795 
L 568.086919 296.018071 
L 568.458004 296.535885 
L 568.829088 296.065683 
L 569.200173 293.987573 
L 569.571258 294.906334 
L 569.942342 296.368366 
L 570.313427 296.612172 
L 570.684512 294.652873 
L 571.055596 295.659698 
L 571.426681 294.590208 
L 571.797766 296.169141 
L 572.16885 295.68819 
L 572.539935 294.540126 
L 572.911019 295.688956 
L 573.282104 293.398632 
L 573.653189 296.341351 
L 574.024273 295.344913 
L 574.395358 295.516927 
L 574.766443 296.59208 
L 575.137527 296.946443 
L 575.508612 295.181913 
L 575.879697 295.346584 
L 576.250781 294.970736 
L 576.621866 296.028838 
L 576.992951 295.743324 
L 577.364035 295.033466 
L 577.73512 296.813779 
L 578.106205 295.078545 
L 578.848374 295.917611 
L 579.219459 294.599518 
L 579.590543 295.880073 
L 579.961628 295.136755 
L 580.332713 295.457452 
L 580.703797 296.850911 
L 581.074882 294.346758 
L 581.445967 294.141728 
L 581.817051 295.410266 
L 582.188136 295.397102 
L 582.559221 296.370884 
L 582.930305 296.258011 
L 583.672475 294.168844 
L 584.043559 296.420538 
L 584.414644 295.64187 
L 584.785729 295.719258 
L 585.156813 295.670379 
L 585.527898 296.491087 
L 585.898983 296.615914 
L 586.270067 293.851294 
L 586.641152 294.75984 
L 587.012236 296.620042 
L 587.383321 294.925007 
L 587.754406 295.584232 
L 588.12549 296.555264 
L 588.496575 296.065298 
L 588.86766 296.683724 
L 589.238744 295.556125 
L 589.609829 295.863529 
L 589.980914 296.964462 
L 590.351998 296.214967 
L 591.094168 296.992198 
L 591.465252 296.994008 
L 591.836337 294.564798 
L 592.207422 294.351139 
L 592.578506 295.432329 
L 592.949591 296.892153 
L 593.320676 295.907163 
L 593.69176 296.789499 
L 594.062845 294.655963 
L 594.43393 297.491278 
L 594.805014 293.642873 
L 595.176099 297.616014 
L 595.547184 296.524151 
L 596.289353 296.42099 
L 596.660438 295.829761 
L 597.031522 295.966244 
L 597.402607 295.270888 
L 597.773692 295.827439 
L 598.144776 295.858387 
L 598.515861 296.820734 
L 598.886946 296.519663 
L 599.25803 296.055717 
L 599.629115 296.204585 
L 600.0002 296.141134 
L 600.371284 297.56279 
L 600.742369 295.576532 
L 601.113453 295.086663 
L 601.484538 295.836425 
L 601.855623 296.174234 
L 602.226707 294.761655 
L 602.597792 296.766623 
L 602.968877 292.983414 
L 603.339961 294.560177 
L 603.711046 293.123581 
L 604.082131 294.113713 
L 604.453215 295.813055 
L 604.8243 295.71292 
L 605.195385 294.20898 
L 605.566469 296.243211 
L 605.937554 295.396904 
L 606.308639 295.973765 
L 606.679723 297.062349 
L 607.050808 294.702593 
L 607.421893 295.687538 
L 607.792977 295.810808 
L 608.164062 292.540003 
L 608.535147 296.20355 
L 608.906231 296.741887 
L 609.277316 296.907725 
L 609.648401 297.436475 
L 610.019485 297.238274 
L 610.39057 296.323482 
L 610.761655 296.184662 
L 611.132739 296.682346 
L 611.503824 294.986449 
L 611.874909 296.761122 
L 612.245993 296.521952 
L 612.617078 296.143534 
L 612.988163 297.742982 
L 613.359247 295.156329 
L 613.730332 297.343938 
L 614.101417 296.668854 
L 614.472501 296.263172 
L 614.843586 295.223993 
L 615.21467 295.335064 
L 615.585755 296.407838 
L 615.95684 294.065906 
L 616.327924 297.257575 
L 616.699009 296.580991 
L 617.070094 296.149379 
L 617.441178 294.076742 
L 617.812263 296.848963 
L 618.183348 296.188784 
L 618.554432 296.725341 
L 618.925517 294.941268 
L 619.296602 294.137774 
L 619.667686 295.849184 
L 620.038771 294.29775 
L 620.409856 293.772268 
L 620.78094 297.368401 
L 621.152025 293.455466 
L 621.52311 295.781326 
L 621.894194 295.102981 
L 622.265279 295.463705 
L 622.636364 295.50296 
L 622.636364 295.50296 
" style="fill:none;stroke:#ff7f0e;stroke-linecap:square;stroke-width:0.5;"/>
   </g>
   <g id="patch_3">
    <path d="M 90 315 
L 90 43.2 
" style="fill:none;stroke:#000000;stroke-linecap:square;stroke-linejoin:miter;stroke-width:0.8;"/>
   </g>
   <g id="patch_4">
    <path d="M 648 315 
L 648 43.2 
" style="fill:none;stroke:#000000;stroke-linecap:square;stroke-linejoin:miter;stroke-width:0.8;"/>
   </g>
   <g id="patch_5">
    <path d="M 90 315 
L 648 315 
" style="fill:none;stroke:#000000;stroke-linecap:square;stroke-linejoin:miter;stroke-width:0.8;"/>
   </g>
   <g id="patch_6">
    <path d="M 90 43.2 
L 648 43.2 
" style="fill:none;stroke:#000000;stroke-linecap:square;stroke-linejoin:miter;stroke-width:0.8;"/>
   </g>
   <g id="text_20">
    <!-- loss -->
    <g transform="translate(357.410625 37.2)scale(0.12 -0.12)">
     <use xlink:href="#DejaVuSans-108"/>
     <use x="27.783203" xlink:href="#DejaVuSans-111"/>
     <use x="88.964844" xlink:href="#DejaVuSans-115"/>
     <use x="141.064453" xlink:href="#DejaVuSans-115"/>
    </g>
   </g>
   <g id="legend_1">
    <g id="patch_7">
     <path d="M 568.846875 80.55625 
L 641 80.55625 
Q 643 80.55625 643 78.55625 
L 643 50.2 
Q 643 48.2 641 48.2 
L 568.846875 48.2 
Q 566.846875 48.2 566.846875 50.2 
L 566.846875 78.55625 
Q 566.846875 80.55625 568.846875 80.55625 
z
" style="fill:#ffffff;opacity:0.8;stroke:#cccccc;stroke-linejoin:miter;"/>
    </g>
    <g id="line2d_37">
     <path d="M 570.846875 56.298437 
L 590.846875 56.298437 
" style="fill:none;stroke:#1f77b4;stroke-linecap:square;stroke-width:0.5;"/>
    </g>
    <g id="line2d_38"/>
    <g id="text_21">
     <!-- train -->
     <defs>
      <path d="M 18.3125 70.21875 
L 18.3125 54.6875 
L 36.8125 54.6875 
L 36.8125 47.703125 
L 18.3125 47.703125 
L 18.3125 18.015625 
Q 18.3125 11.328125 20.140625 9.421875 
Q 21.96875 7.515625 27.59375 7.515625 
L 36.8125 7.515625 
L 36.8125 0 
L 27.59375 0 
Q 17.1875 0 13.234375 3.875 
Q 9.28125 7.765625 9.28125 18.015625 
L 9.28125 47.703125 
L 2.6875 47.703125 
L 2.6875 54.6875 
L 9.28125 54.6875 
L 9.28125 70.21875 
z
" id="DejaVuSans-116"/>
      <path d="M 41.109375 46.296875 
Q 39.59375 47.171875 37.8125 47.578125 
Q 36.03125 48 33.890625 48 
Q 26.265625 48 22.1875 43.046875 
Q 18.109375 38.09375 18.109375 28.8125 
L 18.109375 0 
L 9.078125 0 
L 9.078125 54.6875 
L 18.109375 54.6875 
L 18.109375 46.1875 
Q 20.953125 51.171875 25.484375 53.578125 
Q 30.03125 56 36.53125 56 
Q 37.453125 56 38.578125 55.875 
Q 39.703125 55.765625 41.0625 55.515625 
z
" id="DejaVuSans-114"/>
      <path d="M 34.28125 27.484375 
Q 23.390625 27.484375 19.1875 25 
Q 14.984375 22.515625 14.984375 16.5 
Q 14.984375 11.71875 18.140625 8.90625 
Q 21.296875 6.109375 26.703125 6.109375 
Q 34.1875 6.109375 38.703125 11.40625 
Q 43.21875 16.703125 43.21875 25.484375 
L 43.21875 27.484375 
z
M 52.203125 31.203125 
L 52.203125 0 
L 43.21875 0 
L 43.21875 8.296875 
Q 40.140625 3.328125 35.546875 0.953125 
Q 30.953125 -1.421875 24.3125 -1.421875 
Q 15.921875 -1.421875 10.953125 3.296875 
Q 6 8.015625 6 15.921875 
Q 6 25.140625 12.171875 29.828125 
Q 18.359375 34.515625 30.609375 34.515625 
L 43.21875 34.515625 
L 43.21875 35.40625 
Q 43.21875 41.609375 39.140625 45 
Q 35.0625 48.390625 27.6875 48.390625 
Q 23 48.390625 18.546875 47.265625 
Q 14.109375 46.140625 10.015625 43.890625 
L 10.015625 52.203125 
Q 14.9375 54.109375 19.578125 55.046875 
Q 24.21875 56 28.609375 56 
Q 40.484375 56 46.34375 49.84375 
Q 52.203125 43.703125 52.203125 31.203125 
z
" id="DejaVuSans-97"/>
      <path d="M 9.421875 54.6875 
L 18.40625 54.6875 
L 18.40625 0 
L 9.421875 0 
z
M 9.421875 75.984375 
L 18.40625 75.984375 
L 18.40625 64.59375 
L 9.421875 64.59375 
z
" id="DejaVuSans-105"/>
      <path d="M 54.890625 33.015625 
L 54.890625 0 
L 45.90625 0 
L 45.90625 32.71875 
Q 45.90625 40.484375 42.875 44.328125 
Q 39.84375 48.1875 33.796875 48.1875 
Q 26.515625 48.1875 22.3125 43.546875 
Q 18.109375 38.921875 18.109375 30.90625 
L 18.109375 0 
L 9.078125 0 
L 9.078125 54.6875 
L 18.109375 54.6875 
L 18.109375 46.1875 
Q 21.34375 51.125 25.703125 53.5625 
Q 30.078125 56 35.796875 56 
Q 45.21875 56 50.046875 50.171875 
Q 54.890625 44.34375 54.890625 33.015625 
z
" id="DejaVuSans-110"/>
     </defs>
     <g transform="translate(598.846875 59.798437)scale(0.1 -0.1)">
      <use xlink:href="#DejaVuSans-116"/>
      <use x="39.208984" xlink:href="#DejaVuSans-114"/>
      <use x="80.322266" xlink:href="#DejaVuSans-97"/>
      <use x="141.601562" xlink:href="#DejaVuSans-105"/>
      <use x="169.384766" xlink:href="#DejaVuSans-110"/>
     </g>
    </g>
    <g id="line2d_39">
     <path d="M 570.846875 70.976562 
L 590.846875 70.976562 
" style="fill:none;stroke:#ff7f0e;stroke-linecap:square;stroke-width:0.5;"/>
    </g>
    <g id="line2d_40"/>
    <g id="text_22">
     <!-- validate -->
     <defs>
      <path d="M 2.984375 54.6875 
L 12.5 54.6875 
L 29.59375 8.796875 
L 46.6875 54.6875 
L 56.203125 54.6875 
L 35.6875 0 
L 23.484375 0 
z
" id="DejaVuSans-118"/>
      <path d="M 45.40625 46.390625 
L 45.40625 75.984375 
L 54.390625 75.984375 
L 54.390625 0 
L 45.40625 0 
L 45.40625 8.203125 
Q 42.578125 3.328125 38.25 0.953125 
Q 33.9375 -1.421875 27.875 -1.421875 
Q 17.96875 -1.421875 11.734375 6.484375 
Q 5.515625 14.40625 5.515625 27.296875 
Q 5.515625 40.1875 11.734375 48.09375 
Q 17.96875 56 27.875 56 
Q 33.9375 56 38.25 53.625 
Q 42.578125 51.265625 45.40625 46.390625 
z
M 14.796875 27.296875 
Q 14.796875 17.390625 18.875 11.75 
Q 22.953125 6.109375 30.078125 6.109375 
Q 37.203125 6.109375 41.296875 11.75 
Q 45.40625 17.390625 45.40625 27.296875 
Q 45.40625 37.203125 41.296875 42.84375 
Q 37.203125 48.484375 30.078125 48.484375 
Q 22.953125 48.484375 18.875 42.84375 
Q 14.796875 37.203125 14.796875 27.296875 
z
" id="DejaVuSans-100"/>
     </defs>
     <g transform="translate(598.846875 74.476562)scale(0.1 -0.1)">
      <use xlink:href="#DejaVuSans-118"/>
      <use x="59.179688" xlink:href="#DejaVuSans-97"/>
      <use x="120.458984" xlink:href="#DejaVuSans-108"/>
      <use x="148.242188" xlink:href="#DejaVuSans-105"/>
      <use x="176.025391" xlink:href="#DejaVuSans-100"/>
      <use x="239.501953" xlink:href="#DejaVuSans-97"/>
      <use x="300.78125" xlink:href="#DejaVuSans-116"/>
      <use x="339.990234" xlink:href="#DejaVuSans-101"/>
     </g>
    </g>
   </g>
  </g>
 </g>
 <defs>
  <clipPath id="p9fdd98a4e5">
   <rect height="271.8" width="558" x="90" y="43.2"/>
  </clipPath>
 </defs>
</svg>
