<?xml version="1.0" encoding="utf-8" standalone="no"?>
<!DOCTYPE svg PUBLIC "-//W3C//DTD SVG 1.1//EN"
  "http://www.w3.org/Graphics/SVG/1.1/DTD/svg11.dtd">
<!-- Created with matplotlib (https://matplotlib.org/) -->
<svg height="360pt" version="1.1" viewBox="0 0 720 360" width="720pt" xmlns="http://www.w3.org/2000/svg" xmlns:xlink="http://www.w3.org/1999/xlink">
 <defs>
  <style type="text/css">
*{stroke-linecap:butt;stroke-linejoin:round;}
  </style>
 </defs>
 <g id="figure_1">
  <g id="patch_1">
   <path d="M 0 360 
L 720 360 
L 720 0 
L 0 0 
z
" style="fill:#ffffff;"/>
  </g>
  <g id="axes_1">
   <g id="patch_2">
    <path d="M 90 315 
L 648 315 
L 648 43.2 
L 90 43.2 
z
" style="fill:#ffffff;"/>
   </g>
   <g id="matplotlib.axis_1">
    <g id="xtick_1">
     <g id="line2d_1">
      <path clip-path="url(#pf86fd4dc68)" d="M 115.363636 315 
L 115.363636 43.2 
" style="fill:none;stroke:#b0b0b0;stroke-linecap:square;stroke-width:0.8;"/>
     </g>
     <g id="line2d_2">
      <defs>
       <path d="M 0 0 
L 0 3.5 
" id="m26ccc782c9" style="stroke:#000000;stroke-width:0.8;"/>
      </defs>
      <g>
       <use style="stroke:#000000;stroke-width:0.8;" x="115.363636" xlink:href="#m26ccc782c9" y="315"/>
      </g>
     </g>
     <g id="text_1">
      <!-- 0 -->
      <defs>
       <path d="M 31.78125 66.40625 
Q 24.171875 66.40625 20.328125 58.90625 
Q 16.5 51.421875 16.5 36.375 
Q 16.5 21.390625 20.328125 13.890625 
Q 24.171875 6.390625 31.78125 6.390625 
Q 39.453125 6.390625 43.28125 13.890625 
Q 47.125 21.390625 47.125 36.375 
Q 47.125 51.421875 43.28125 58.90625 
Q 39.453125 66.40625 31.78125 66.40625 
z
M 31.78125 74.21875 
Q 44.046875 74.21875 50.515625 64.515625 
Q 56.984375 54.828125 56.984375 36.375 
Q 56.984375 17.96875 50.515625 8.265625 
Q 44.046875 -1.421875 31.78125 -1.421875 
Q 19.53125 -1.421875 13.0625 8.265625 
Q 6.59375 17.96875 6.59375 36.375 
Q 6.59375 54.828125 13.0625 64.515625 
Q 19.53125 74.21875 31.78125 74.21875 
z
" id="DejaVuSans-48"/>
      </defs>
      <g transform="translate(112.182386 329.598437)scale(0.1 -0.1)">
       <use xlink:href="#DejaVuSans-48"/>
      </g>
     </g>
    </g>
    <g id="xtick_2">
     <g id="line2d_3">
      <path clip-path="url(#pf86fd4dc68)" d="M 205.948052 315 
L 205.948052 43.2 
" style="fill:none;stroke:#b0b0b0;stroke-linecap:square;stroke-width:0.8;"/>
     </g>
     <g id="line2d_4">
      <g>
       <use style="stroke:#000000;stroke-width:0.8;" x="205.948052" xlink:href="#m26ccc782c9" y="315"/>
      </g>
     </g>
     <g id="text_2">
      <!-- 200 -->
      <defs>
       <path d="M 19.1875 8.296875 
L 53.609375 8.296875 
L 53.609375 0 
L 7.328125 0 
L 7.328125 8.296875 
Q 12.9375 14.109375 22.625 23.890625 
Q 32.328125 33.6875 34.8125 36.53125 
Q 39.546875 41.84375 41.421875 45.53125 
Q 43.3125 49.21875 43.3125 52.78125 
Q 43.3125 58.59375 39.234375 62.25 
Q 35.15625 65.921875 28.609375 65.921875 
Q 23.96875 65.921875 18.8125 64.3125 
Q 13.671875 62.703125 7.8125 59.421875 
L 7.8125 69.390625 
Q 13.765625 71.78125 18.9375 73 
Q 24.125 74.21875 28.421875 74.21875 
Q 39.75 74.21875 46.484375 68.546875 
Q 53.21875 62.890625 53.21875 53.421875 
Q 53.21875 48.921875 51.53125 44.890625 
Q 49.859375 40.875 45.40625 35.40625 
Q 44.1875 33.984375 37.640625 27.21875 
Q 31.109375 20.453125 19.1875 8.296875 
z
" id="DejaVuSans-50"/>
      </defs>
      <g transform="translate(196.404302 329.598437)scale(0.1 -0.1)">
       <use xlink:href="#DejaVuSans-50"/>
       <use x="63.623047" xlink:href="#DejaVuSans-48"/>
       <use x="127.246094" xlink:href="#DejaVuSans-48"/>
      </g>
     </g>
    </g>
    <g id="xtick_3">
     <g id="line2d_5">
      <path clip-path="url(#pf86fd4dc68)" d="M 296.532468 315 
L 296.532468 43.2 
" style="fill:none;stroke:#b0b0b0;stroke-linecap:square;stroke-width:0.8;"/>
     </g>
     <g id="line2d_6">
      <g>
       <use style="stroke:#000000;stroke-width:0.8;" x="296.532468" xlink:href="#m26ccc782c9" y="315"/>
      </g>
     </g>
     <g id="text_3">
      <!-- 400 -->
      <defs>
       <path d="M 37.796875 64.3125 
L 12.890625 25.390625 
L 37.796875 25.390625 
z
M 35.203125 72.90625 
L 47.609375 72.90625 
L 47.609375 25.390625 
L 58.015625 25.390625 
L 58.015625 17.1875 
L 47.609375 17.1875 
L 47.609375 0 
L 37.796875 0 
L 37.796875 17.1875 
L 4.890625 17.1875 
L 4.890625 26.703125 
z
" id="DejaVuSans-52"/>
      </defs>
      <g transform="translate(286.988718 329.598437)scale(0.1 -0.1)">
       <use xlink:href="#DejaVuSans-52"/>
       <use x="63.623047" xlink:href="#DejaVuSans-48"/>
       <use x="127.246094" xlink:href="#DejaVuSans-48"/>
      </g>
     </g>
    </g>
    <g id="xtick_4">
     <g id="line2d_7">
      <path clip-path="url(#pf86fd4dc68)" d="M 387.116883 315 
L 387.116883 43.2 
" style="fill:none;stroke:#b0b0b0;stroke-linecap:square;stroke-width:0.8;"/>
     </g>
     <g id="line2d_8">
      <g>
       <use style="stroke:#000000;stroke-width:0.8;" x="387.116883" xlink:href="#m26ccc782c9" y="315"/>
      </g>
     </g>
     <g id="text_4">
      <!-- 600 -->
      <defs>
       <path d="M 33.015625 40.375 
Q 26.375 40.375 22.484375 35.828125 
Q 18.609375 31.296875 18.609375 23.390625 
Q 18.609375 15.53125 22.484375 10.953125 
Q 26.375 6.390625 33.015625 6.390625 
Q 39.65625 6.390625 43.53125 10.953125 
Q 47.40625 15.53125 47.40625 23.390625 
Q 47.40625 31.296875 43.53125 35.828125 
Q 39.65625 40.375 33.015625 40.375 
z
M 52.59375 71.296875 
L 52.59375 62.3125 
Q 48.875 64.0625 45.09375 64.984375 
Q 41.3125 65.921875 37.59375 65.921875 
Q 27.828125 65.921875 22.671875 59.328125 
Q 17.53125 52.734375 16.796875 39.40625 
Q 19.671875 43.65625 24.015625 45.921875 
Q 28.375 48.1875 33.59375 48.1875 
Q 44.578125 48.1875 50.953125 41.515625 
Q 57.328125 34.859375 57.328125 23.390625 
Q 57.328125 12.15625 50.6875 5.359375 
Q 44.046875 -1.421875 33.015625 -1.421875 
Q 20.359375 -1.421875 13.671875 8.265625 
Q 6.984375 17.96875 6.984375 36.375 
Q 6.984375 53.65625 15.1875 63.9375 
Q 23.390625 74.21875 37.203125 74.21875 
Q 40.921875 74.21875 44.703125 73.484375 
Q 48.484375 72.75 52.59375 71.296875 
z
" id="DejaVuSans-54"/>
      </defs>
      <g transform="translate(377.573133 329.598437)scale(0.1 -0.1)">
       <use xlink:href="#DejaVuSans-54"/>
       <use x="63.623047" xlink:href="#DejaVuSans-48"/>
       <use x="127.246094" xlink:href="#DejaVuSans-48"/>
      </g>
     </g>
    </g>
    <g id="xtick_5">
     <g id="line2d_9">
      <path clip-path="url(#pf86fd4dc68)" d="M 477.701299 315 
L 477.701299 43.2 
" style="fill:none;stroke:#b0b0b0;stroke-linecap:square;stroke-width:0.8;"/>
     </g>
     <g id="line2d_10">
      <g>
       <use style="stroke:#000000;stroke-width:0.8;" x="477.701299" xlink:href="#m26ccc782c9" y="315"/>
      </g>
     </g>
     <g id="text_5">
      <!-- 800 -->
      <defs>
       <path d="M 31.78125 34.625 
Q 24.75 34.625 20.71875 30.859375 
Q 16.703125 27.09375 16.703125 20.515625 
Q 16.703125 13.921875 20.71875 10.15625 
Q 24.75 6.390625 31.78125 6.390625 
Q 38.8125 6.390625 42.859375 10.171875 
Q 46.921875 13.96875 46.921875 20.515625 
Q 46.921875 27.09375 42.890625 30.859375 
Q 38.875 34.625 31.78125 34.625 
z
M 21.921875 38.8125 
Q 15.578125 40.375 12.03125 44.71875 
Q 8.5 49.078125 8.5 55.328125 
Q 8.5 64.0625 14.71875 69.140625 
Q 20.953125 74.21875 31.78125 74.21875 
Q 42.671875 74.21875 48.875 69.140625 
Q 55.078125 64.0625 55.078125 55.328125 
Q 55.078125 49.078125 51.53125 44.71875 
Q 48 40.375 41.703125 38.8125 
Q 48.828125 37.15625 52.796875 32.3125 
Q 56.78125 27.484375 56.78125 20.515625 
Q 56.78125 9.90625 50.3125 4.234375 
Q 43.84375 -1.421875 31.78125 -1.421875 
Q 19.734375 -1.421875 13.25 4.234375 
Q 6.78125 9.90625 6.78125 20.515625 
Q 6.78125 27.484375 10.78125 32.3125 
Q 14.796875 37.15625 21.921875 38.8125 
z
M 18.3125 54.390625 
Q 18.3125 48.734375 21.84375 45.5625 
Q 25.390625 42.390625 31.78125 42.390625 
Q 38.140625 42.390625 41.71875 45.5625 
Q 45.3125 48.734375 45.3125 54.390625 
Q 45.3125 60.0625 41.71875 63.234375 
Q 38.140625 66.40625 31.78125 66.40625 
Q 25.390625 66.40625 21.84375 63.234375 
Q 18.3125 60.0625 18.3125 54.390625 
z
" id="DejaVuSans-56"/>
      </defs>
      <g transform="translate(468.157549 329.598437)scale(0.1 -0.1)">
       <use xlink:href="#DejaVuSans-56"/>
       <use x="63.623047" xlink:href="#DejaVuSans-48"/>
       <use x="127.246094" xlink:href="#DejaVuSans-48"/>
      </g>
     </g>
    </g>
    <g id="xtick_6">
     <g id="line2d_11">
      <path clip-path="url(#pf86fd4dc68)" d="M 568.285714 315 
L 568.285714 43.2 
" style="fill:none;stroke:#b0b0b0;stroke-linecap:square;stroke-width:0.8;"/>
     </g>
     <g id="line2d_12">
      <g>
       <use style="stroke:#000000;stroke-width:0.8;" x="568.285714" xlink:href="#m26ccc782c9" y="315"/>
      </g>
     </g>
     <g id="text_6">
      <!-- 1000 -->
      <defs>
       <path d="M 12.40625 8.296875 
L 28.515625 8.296875 
L 28.515625 63.921875 
L 10.984375 60.40625 
L 10.984375 69.390625 
L 28.421875 72.90625 
L 38.28125 72.90625 
L 38.28125 8.296875 
L 54.390625 8.296875 
L 54.390625 0 
L 12.40625 0 
z
" id="DejaVuSans-49"/>
      </defs>
      <g transform="translate(555.560714 329.598437)scale(0.1 -0.1)">
       <use xlink:href="#DejaVuSans-49"/>
       <use x="63.623047" xlink:href="#DejaVuSans-48"/>
       <use x="127.246094" xlink:href="#DejaVuSans-48"/>
       <use x="190.869141" xlink:href="#DejaVuSans-48"/>
      </g>
     </g>
    </g>
    <g id="text_7">
     <!-- epoch -->
     <defs>
      <path d="M 56.203125 29.59375 
L 56.203125 25.203125 
L 14.890625 25.203125 
Q 15.484375 15.921875 20.484375 11.0625 
Q 25.484375 6.203125 34.421875 6.203125 
Q 39.59375 6.203125 44.453125 7.46875 
Q 49.3125 8.734375 54.109375 11.28125 
L 54.109375 2.78125 
Q 49.265625 0.734375 44.1875 -0.34375 
Q 39.109375 -1.421875 33.890625 -1.421875 
Q 20.796875 -1.421875 13.15625 6.1875 
Q 5.515625 13.8125 5.515625 26.8125 
Q 5.515625 40.234375 12.765625 48.109375 
Q 20.015625 56 32.328125 56 
Q 43.359375 56 49.78125 48.890625 
Q 56.203125 41.796875 56.203125 29.59375 
z
M 47.21875 32.234375 
Q 47.125 39.59375 43.09375 43.984375 
Q 39.0625 48.390625 32.421875 48.390625 
Q 24.90625 48.390625 20.390625 44.140625 
Q 15.875 39.890625 15.1875 32.171875 
z
" id="DejaVuSans-101"/>
      <path d="M 18.109375 8.203125 
L 18.109375 -20.796875 
L 9.078125 -20.796875 
L 9.078125 54.6875 
L 18.109375 54.6875 
L 18.109375 46.390625 
Q 20.953125 51.265625 25.265625 53.625 
Q 29.59375 56 35.59375 56 
Q 45.5625 56 51.78125 48.09375 
Q 58.015625 40.1875 58.015625 27.296875 
Q 58.015625 14.40625 51.78125 6.484375 
Q 45.5625 -1.421875 35.59375 -1.421875 
Q 29.59375 -1.421875 25.265625 0.953125 
Q 20.953125 3.328125 18.109375 8.203125 
z
M 48.6875 27.296875 
Q 48.6875 37.203125 44.609375 42.84375 
Q 40.53125 48.484375 33.40625 48.484375 
Q 26.265625 48.484375 22.1875 42.84375 
Q 18.109375 37.203125 18.109375 27.296875 
Q 18.109375 17.390625 22.1875 11.75 
Q 26.265625 6.109375 33.40625 6.109375 
Q 40.53125 6.109375 44.609375 11.75 
Q 48.6875 17.390625 48.6875 27.296875 
z
" id="DejaVuSans-112"/>
      <path d="M 30.609375 48.390625 
Q 23.390625 48.390625 19.1875 42.75 
Q 14.984375 37.109375 14.984375 27.296875 
Q 14.984375 17.484375 19.15625 11.84375 
Q 23.34375 6.203125 30.609375 6.203125 
Q 37.796875 6.203125 41.984375 11.859375 
Q 46.1875 17.53125 46.1875 27.296875 
Q 46.1875 37.015625 41.984375 42.703125 
Q 37.796875 48.390625 30.609375 48.390625 
z
M 30.609375 56 
Q 42.328125 56 49.015625 48.375 
Q 55.71875 40.765625 55.71875 27.296875 
Q 55.71875 13.875 49.015625 6.21875 
Q 42.328125 -1.421875 30.609375 -1.421875 
Q 18.84375 -1.421875 12.171875 6.21875 
Q 5.515625 13.875 5.515625 27.296875 
Q 5.515625 40.765625 12.171875 48.375 
Q 18.84375 56 30.609375 56 
z
" id="DejaVuSans-111"/>
      <path d="M 48.78125 52.59375 
L 48.78125 44.1875 
Q 44.96875 46.296875 41.140625 47.34375 
Q 37.3125 48.390625 33.40625 48.390625 
Q 24.65625 48.390625 19.8125 42.84375 
Q 14.984375 37.3125 14.984375 27.296875 
Q 14.984375 17.28125 19.8125 11.734375 
Q 24.65625 6.203125 33.40625 6.203125 
Q 37.3125 6.203125 41.140625 7.25 
Q 44.96875 8.296875 48.78125 10.40625 
L 48.78125 2.09375 
Q 45.015625 0.34375 40.984375 -0.53125 
Q 36.96875 -1.421875 32.421875 -1.421875 
Q 20.0625 -1.421875 12.78125 6.34375 
Q 5.515625 14.109375 5.515625 27.296875 
Q 5.515625 40.671875 12.859375 48.328125 
Q 20.21875 56 33.015625 56 
Q 37.15625 56 41.109375 55.140625 
Q 45.0625 54.296875 48.78125 52.59375 
z
" id="DejaVuSans-99"/>
      <path d="M 54.890625 33.015625 
L 54.890625 0 
L 45.90625 0 
L 45.90625 32.71875 
Q 45.90625 40.484375 42.875 44.328125 
Q 39.84375 48.1875 33.796875 48.1875 
Q 26.515625 48.1875 22.3125 43.546875 
Q 18.109375 38.921875 18.109375 30.90625 
L 18.109375 0 
L 9.078125 0 
L 9.078125 75.984375 
L 18.109375 75.984375 
L 18.109375 46.1875 
Q 21.34375 51.125 25.703125 53.5625 
Q 30.078125 56 35.796875 56 
Q 45.21875 56 50.046875 50.171875 
Q 54.890625 44.34375 54.890625 33.015625 
z
" id="DejaVuSans-104"/>
     </defs>
     <g transform="translate(353.771875 343.276563)scale(0.1 -0.1)">
      <use xlink:href="#DejaVuSans-101"/>
      <use x="61.523438" xlink:href="#DejaVuSans-112"/>
      <use x="125" xlink:href="#DejaVuSans-111"/>
      <use x="186.181641" xlink:href="#DejaVuSans-99"/>
      <use x="241.162109" xlink:href="#DejaVuSans-104"/>
     </g>
    </g>
   </g>
   <g id="matplotlib.axis_2">
    <g id="ytick_1">
     <g id="line2d_13">
      <path clip-path="url(#pf86fd4dc68)" d="M 90 306.306379 
L 648 306.306379 
" style="fill:none;stroke:#b0b0b0;stroke-linecap:square;stroke-width:0.8;"/>
     </g>
     <g id="line2d_14">
      <defs>
       <path d="M 0 0 
L -3.5 0 
" id="m327d301ee6" style="stroke:#000000;stroke-width:0.8;"/>
      </defs>
      <g>
       <use style="stroke:#000000;stroke-width:0.8;" x="90" xlink:href="#m327d301ee6" y="306.306379"/>
      </g>
     </g>
     <g id="text_8">
      <!-- 0.0 -->
      <defs>
       <path d="M 10.6875 12.40625 
L 21 12.40625 
L 21 0 
L 10.6875 0 
z
" id="DejaVuSans-46"/>
      </defs>
      <g transform="translate(67.096875 310.105598)scale(0.1 -0.1)">
       <use xlink:href="#DejaVuSans-48"/>
       <use x="63.623047" xlink:href="#DejaVuSans-46"/>
       <use x="95.410156" xlink:href="#DejaVuSans-48"/>
      </g>
     </g>
    </g>
    <g id="ytick_2">
     <g id="line2d_15">
      <path clip-path="url(#pf86fd4dc68)" d="M 90 275.568795 
L 648 275.568795 
" style="fill:none;stroke:#b0b0b0;stroke-linecap:square;stroke-width:0.8;"/>
     </g>
     <g id="line2d_16">
      <g>
       <use style="stroke:#000000;stroke-width:0.8;" x="90" xlink:href="#m327d301ee6" y="275.568795"/>
      </g>
     </g>
     <g id="text_9">
      <!-- 0.2 -->
      <g transform="translate(67.096875 279.368013)scale(0.1 -0.1)">
       <use xlink:href="#DejaVuSans-48"/>
       <use x="63.623047" xlink:href="#DejaVuSans-46"/>
       <use x="95.410156" xlink:href="#DejaVuSans-50"/>
      </g>
     </g>
    </g>
    <g id="ytick_3">
     <g id="line2d_17">
      <path clip-path="url(#pf86fd4dc68)" d="M 90 244.83121 
L 648 244.83121 
" style="fill:none;stroke:#b0b0b0;stroke-linecap:square;stroke-width:0.8;"/>
     </g>
     <g id="line2d_18">
      <g>
       <use style="stroke:#000000;stroke-width:0.8;" x="90" xlink:href="#m327d301ee6" y="244.83121"/>
      </g>
     </g>
     <g id="text_10">
      <!-- 0.4 -->
      <g transform="translate(67.096875 248.630429)scale(0.1 -0.1)">
       <use xlink:href="#DejaVuSans-48"/>
       <use x="63.623047" xlink:href="#DejaVuSans-46"/>
       <use x="95.410156" xlink:href="#DejaVuSans-52"/>
      </g>
     </g>
    </g>
    <g id="ytick_4">
     <g id="line2d_19">
      <path clip-path="url(#pf86fd4dc68)" d="M 90 214.093626 
L 648 214.093626 
" style="fill:none;stroke:#b0b0b0;stroke-linecap:square;stroke-width:0.8;"/>
     </g>
     <g id="line2d_20">
      <g>
       <use style="stroke:#000000;stroke-width:0.8;" x="90" xlink:href="#m327d301ee6" y="214.093626"/>
      </g>
     </g>
     <g id="text_11">
      <!-- 0.6 -->
      <g transform="translate(67.096875 217.892845)scale(0.1 -0.1)">
       <use xlink:href="#DejaVuSans-48"/>
       <use x="63.623047" xlink:href="#DejaVuSans-46"/>
       <use x="95.410156" xlink:href="#DejaVuSans-54"/>
      </g>
     </g>
    </g>
    <g id="ytick_5">
     <g id="line2d_21">
      <path clip-path="url(#pf86fd4dc68)" d="M 90 183.356042 
L 648 183.356042 
" style="fill:none;stroke:#b0b0b0;stroke-linecap:square;stroke-width:0.8;"/>
     </g>
     <g id="line2d_22">
      <g>
       <use style="stroke:#000000;stroke-width:0.8;" x="90" xlink:href="#m327d301ee6" y="183.356042"/>
      </g>
     </g>
     <g id="text_12">
      <!-- 0.8 -->
      <g transform="translate(67.096875 187.15526)scale(0.1 -0.1)">
       <use xlink:href="#DejaVuSans-48"/>
       <use x="63.623047" xlink:href="#DejaVuSans-46"/>
       <use x="95.410156" xlink:href="#DejaVuSans-56"/>
      </g>
     </g>
    </g>
    <g id="ytick_6">
     <g id="line2d_23">
      <path clip-path="url(#pf86fd4dc68)" d="M 90 152.618457 
L 648 152.618457 
" style="fill:none;stroke:#b0b0b0;stroke-linecap:square;stroke-width:0.8;"/>
     </g>
     <g id="line2d_24">
      <g>
       <use style="stroke:#000000;stroke-width:0.8;" x="90" xlink:href="#m327d301ee6" y="152.618457"/>
      </g>
     </g>
     <g id="text_13">
      <!-- 1.0 -->
      <g transform="translate(67.096875 156.417676)scale(0.1 -0.1)">
       <use xlink:href="#DejaVuSans-49"/>
       <use x="63.623047" xlink:href="#DejaVuSans-46"/>
       <use x="95.410156" xlink:href="#DejaVuSans-48"/>
      </g>
     </g>
    </g>
    <g id="ytick_7">
     <g id="line2d_25">
      <path clip-path="url(#pf86fd4dc68)" d="M 90 121.880873 
L 648 121.880873 
" style="fill:none;stroke:#b0b0b0;stroke-linecap:square;stroke-width:0.8;"/>
     </g>
     <g id="line2d_26">
      <g>
       <use style="stroke:#000000;stroke-width:0.8;" x="90" xlink:href="#m327d301ee6" y="121.880873"/>
      </g>
     </g>
     <g id="text_14">
      <!-- 1.2 -->
      <g transform="translate(67.096875 125.680092)scale(0.1 -0.1)">
       <use xlink:href="#DejaVuSans-49"/>
       <use x="63.623047" xlink:href="#DejaVuSans-46"/>
       <use x="95.410156" xlink:href="#DejaVuSans-50"/>
      </g>
     </g>
    </g>
    <g id="ytick_8">
     <g id="line2d_27">
      <path clip-path="url(#pf86fd4dc68)" d="M 90 91.143289 
L 648 91.143289 
" style="fill:none;stroke:#b0b0b0;stroke-linecap:square;stroke-width:0.8;"/>
     </g>
     <g id="line2d_28">
      <g>
       <use style="stroke:#000000;stroke-width:0.8;" x="90" xlink:href="#m327d301ee6" y="91.143289"/>
      </g>
     </g>
     <g id="text_15">
      <!-- 1.4 -->
      <g transform="translate(67.096875 94.942508)scale(0.1 -0.1)">
       <use xlink:href="#DejaVuSans-49"/>
       <use x="63.623047" xlink:href="#DejaVuSans-46"/>
       <use x="95.410156" xlink:href="#DejaVuSans-52"/>
      </g>
     </g>
    </g>
    <g id="ytick_9">
     <g id="line2d_29">
      <path clip-path="url(#pf86fd4dc68)" d="M 90 60.405704 
L 648 60.405704 
" style="fill:none;stroke:#b0b0b0;stroke-linecap:square;stroke-width:0.8;"/>
     </g>
     <g id="line2d_30">
      <g>
       <use style="stroke:#000000;stroke-width:0.8;" x="90" xlink:href="#m327d301ee6" y="60.405704"/>
      </g>
     </g>
     <g id="text_16">
      <!-- 1.6 -->
      <g transform="translate(67.096875 64.204923)scale(0.1 -0.1)">
       <use xlink:href="#DejaVuSans-49"/>
       <use x="63.623047" xlink:href="#DejaVuSans-46"/>
       <use x="95.410156" xlink:href="#DejaVuSans-54"/>
      </g>
     </g>
    </g>
    <g id="text_17">
     <!-- loss -->
     <defs>
      <path d="M 9.421875 75.984375 
L 18.40625 75.984375 
L 18.40625 0 
L 9.421875 0 
z
" id="DejaVuSans-108"/>
      <path d="M 44.28125 53.078125 
L 44.28125 44.578125 
Q 40.484375 46.53125 36.375 47.5 
Q 32.28125 48.484375 27.875 48.484375 
Q 21.1875 48.484375 17.84375 46.4375 
Q 14.5 44.390625 14.5 40.28125 
Q 14.5 37.15625 16.890625 35.375 
Q 19.28125 33.59375 26.515625 31.984375 
L 29.59375 31.296875 
Q 39.15625 29.25 43.1875 25.515625 
Q 47.21875 21.78125 47.21875 15.09375 
Q 47.21875 7.46875 41.1875 3.015625 
Q 35.15625 -1.421875 24.609375 -1.421875 
Q 20.21875 -1.421875 15.453125 -0.5625 
Q 10.6875 0.296875 5.421875 2 
L 5.421875 11.28125 
Q 10.40625 8.6875 15.234375 7.390625 
Q 20.0625 6.109375 24.8125 6.109375 
Q 31.15625 6.109375 34.5625 8.28125 
Q 37.984375 10.453125 37.984375 14.40625 
Q 37.984375 18.0625 35.515625 20.015625 
Q 33.0625 21.96875 24.703125 23.78125 
L 21.578125 24.515625 
Q 13.234375 26.265625 9.515625 29.90625 
Q 5.8125 33.546875 5.8125 39.890625 
Q 5.8125 47.609375 11.28125 51.796875 
Q 16.75 56 26.8125 56 
Q 31.78125 56 36.171875 55.265625 
Q 40.578125 54.546875 44.28125 53.078125 
z
" id="DejaVuSans-115"/>
     </defs>
     <g transform="translate(61.017187 188.757812)rotate(-90)scale(0.1 -0.1)">
      <use xlink:href="#DejaVuSans-108"/>
      <use x="27.783203" xlink:href="#DejaVuSans-111"/>
      <use x="88.964844" xlink:href="#DejaVuSans-115"/>
      <use x="141.064453" xlink:href="#DejaVuSans-115"/>
     </g>
    </g>
   </g>
   <g id="line2d_31">
    <path clip-path="url(#pf86fd4dc68)" d="M 115.363636 55.554545 
L 115.816558 65.245965 
L 116.269481 69.12989 
L 117.175325 77.758041 
L 117.628247 79.343626 
L 118.081169 80.096716 
L 118.534091 83.748085 
L 118.987013 83.887457 
L 119.439935 86.127585 
L 119.892857 87.348417 
L 120.345779 88.095129 
L 120.798701 91.65175 
L 121.251623 90.221159 
L 121.704545 93.115782 
L 122.157468 93.113854 
L 122.61039 93.462309 
L 123.063312 95.787391 
L 123.516234 96.305618 
L 123.969156 99.223362 
L 124.422078 100.714721 
L 124.875 101.241274 
L 125.780844 104.40358 
L 126.233766 108.501159 
L 126.686688 110.842336 
L 127.13961 114.025845 
L 127.592532 121.066311 
L 128.045455 121.007485 
L 128.498377 123.041666 
L 128.951299 129.136321 
L 129.404221 130.667047 
L 129.857143 137.931788 
L 130.310065 140.300272 
L 130.762987 144.561245 
L 131.215909 147.376356 
L 131.668831 154.249898 
L 132.121753 155.256618 
L 132.574675 162.435588 
L 133.027597 167.515286 
L 133.933442 170.916374 
L 134.386364 173.777442 
L 135.292208 181.355438 
L 135.74513 182.00461 
L 136.198052 185.54262 
L 136.650974 190.203748 
L 137.103896 190.849918 
L 137.556818 192.024559 
L 138.462662 197.522514 
L 138.915584 198.927679 
L 139.368506 202.217054 
L 139.821429 202.788233 
L 140.274351 203.745868 
L 140.727273 207.703965 
L 141.180195 207.465524 
L 142.086039 213.068064 
L 142.538961 211.874343 
L 142.991883 215.009014 
L 143.444805 215.346946 
L 143.897727 218.028264 
L 144.350649 217.796462 
L 144.803571 217.888868 
L 145.256494 221.881151 
L 145.709416 221.403415 
L 146.162338 224.778267 
L 146.61526 224.417976 
L 147.068182 225.063445 
L 147.521104 226.070277 
L 147.974026 225.667702 
L 148.426948 229.495415 
L 148.87987 230.424613 
L 149.332792 232.370724 
L 149.785714 231.33857 
L 150.238636 234.519873 
L 150.691558 232.612274 
L 151.144481 233.943144 
L 151.597403 233.649311 
L 152.050325 236.595564 
L 152.503247 238.784645 
L 152.956169 237.169196 
L 153.409091 239.244393 
L 153.862013 236.423447 
L 154.314935 240.499327 
L 154.767857 240.545787 
L 155.220779 241.207457 
L 155.673701 242.215745 
L 156.126623 244.205628 
L 156.579545 243.978281 
L 157.032468 244.603966 
L 157.48539 244.940377 
L 157.938312 247.009622 
L 158.391234 246.817979 
L 158.844156 249.200136 
L 159.297078 247.731937 
L 159.75 250.015049 
L 160.202922 249.492728 
L 160.655844 249.222044 
L 161.108766 249.677553 
L 162.01461 251.991169 
L 162.467532 252.793521 
L 162.920455 252.885861 
L 163.373377 254.754374 
L 163.826299 253.151259 
L 164.279221 253.578907 
L 164.732143 253.163283 
L 165.185065 254.584326 
L 166.090909 256.346236 
L 166.543831 256.434838 
L 166.996753 257.457343 
L 167.449675 259.360655 
L 167.902597 257.907552 
L 168.355519 258.74743 
L 168.808442 257.767864 
L 169.261364 257.583724 
L 169.714286 259.206999 
L 170.167208 261.941879 
L 170.62013 261.052762 
L 171.073052 262.273176 
L 171.525974 262.040226 
L 171.978896 260.57592 
L 172.431818 262.349332 
L 172.88474 261.473168 
L 173.337662 263.908648 
L 173.790584 261.04536 
L 174.243506 264.203719 
L 174.696429 265.618726 
L 175.149351 263.989789 
L 175.602273 264.497554 
L 176.055195 263.007367 
L 176.508117 267.096236 
L 176.961039 267.147932 
L 177.413961 267.543948 
L 177.866883 263.440859 
L 178.772727 267.593165 
L 179.225649 265.712883 
L 179.678571 270.568487 
L 180.131494 267.187363 
L 180.584416 266.107243 
L 181.037338 268.978466 
L 181.49026 268.048198 
L 181.943182 266.574943 
L 182.396104 269.282849 
L 182.849026 268.492958 
L 183.301948 269.959285 
L 183.75487 271.004249 
L 184.207792 271.326933 
L 184.660714 271.988556 
L 185.113636 271.720129 
L 185.566558 272.792876 
L 186.019481 269.228789 
L 186.472403 272.451359 
L 186.925325 272.696627 
L 187.378247 272.017454 
L 187.831169 273.66219 
L 188.284091 272.966535 
L 188.737013 275.104019 
L 189.189935 272.272642 
L 189.642857 274.720233 
L 190.095779 273.46581 
L 190.548701 274.453426 
L 191.001623 274.079234 
L 191.454545 275.204156 
L 191.907468 274.534883 
L 192.36039 274.407156 
L 192.813312 274.970617 
L 193.266234 273.771309 
L 193.719156 275.101654 
L 194.172078 275.860845 
L 194.625 276.386911 
L 195.077922 275.69687 
L 195.530844 276.479312 
L 195.983766 277.535514 
L 196.436688 276.811188 
L 196.88961 275.287545 
L 197.342532 276.133973 
L 197.795455 276.264857 
L 198.248377 277.49546 
L 198.701299 276.944646 
L 199.154221 276.187222 
L 199.607143 278.62158 
L 200.060065 278.352474 
L 200.512987 277.822069 
L 201.418831 278.930869 
L 201.871753 277.220518 
L 202.324675 278.069717 
L 202.777597 278.568276 
L 203.230519 279.396491 
L 203.683442 278.630679 
L 204.136364 278.317705 
L 204.589286 280.63826 
L 205.042208 279.617023 
L 205.49513 279.159761 
L 205.948052 278.970529 
L 206.853896 279.40031 
L 207.306818 281.664573 
L 207.75974 279.931168 
L 208.212662 280.432236 
L 208.665584 281.347772 
L 209.118506 280.642146 
L 209.571429 281.176303 
L 210.024351 282.503033 
L 210.477273 280.92158 
L 210.930195 280.387418 
L 211.383117 282.622644 
L 211.836039 281.758334 
L 212.288961 282.579192 
L 212.741883 281.662354 
L 213.194805 282.594753 
L 213.647727 282.972119 
L 214.100649 282.068631 
L 214.553571 282.136011 
L 215.006494 281.924574 
L 215.459416 285.564645 
L 215.912338 283.576619 
L 216.36526 282.424991 
L 216.818182 283.77845 
L 217.271104 284.280159 
L 217.724026 285.345565 
L 218.176948 282.673145 
L 218.62987 283.175411 
L 219.082792 283.103442 
L 219.535714 283.986829 
L 219.988636 283.3242 
L 220.441558 284.497098 
L 220.894481 282.66127 
L 221.347403 283.790817 
L 221.800325 283.97091 
L 222.253247 283.429846 
L 222.706169 283.418923 
L 223.159091 284.141712 
L 223.612013 284.598811 
L 224.064935 284.436918 
L 224.517857 283.712292 
L 225.423701 286.272217 
L 225.876623 285.834972 
L 226.329545 285.129853 
L 226.782468 284.880507 
L 227.23539 284.491521 
L 227.688312 284.695624 
L 228.141234 286.042608 
L 228.594156 286.613585 
L 229.047078 286.285345 
L 229.5 285.227987 
L 229.952922 286.437841 
L 230.405844 286.426466 
L 230.858766 286.768144 
L 231.311688 285.273984 
L 232.217532 285.754831 
L 232.670455 286.35051 
L 233.123377 285.732404 
L 233.576299 285.662863 
L 234.029221 285.371295 
L 234.482143 286.303199 
L 234.935065 286.950456 
L 235.387987 286.890777 
L 235.840909 286.034088 
L 236.293831 288.054103 
L 236.746753 289.1115 
L 237.199675 287.001879 
L 237.652597 286.047145 
L 238.105519 288.466493 
L 239.011364 287.574005 
L 239.464286 287.608436 
L 239.917208 289.854629 
L 240.37013 286.143118 
L 240.823052 288.396983 
L 241.275974 287.138038 
L 241.728896 287.130268 
L 242.181818 289.225538 
L 242.63474 287.659587 
L 243.540584 287.985746 
L 243.993506 286.921458 
L 244.899351 289.244463 
L 245.352273 288.737573 
L 245.805195 289.910809 
L 246.711039 289.121338 
L 247.163961 289.368538 
L 247.616883 289.152421 
L 248.522727 289.379876 
L 248.975649 288.000593 
L 249.428571 288.840948 
L 249.881494 288.114181 
L 250.334416 289.854143 
L 250.787338 289.059661 
L 251.24026 287.872647 
L 251.693182 290.207776 
L 252.599026 289.707699 
L 253.051948 288.861852 
L 253.50487 288.585294 
L 253.957792 288.69322 
L 254.410714 290.437822 
L 254.863636 288.234223 
L 255.316558 288.917518 
L 255.769481 290.22623 
L 256.222403 290.408856 
L 256.675325 290.440796 
L 257.128247 290.246727 
L 257.581169 289.211475 
L 258.034091 290.144248 
L 258.487013 290.028978 
L 259.392857 289.189193 
L 259.845779 289.242118 
L 260.298701 290.858511 
L 260.751623 290.160008 
L 261.204545 289.856936 
L 261.657468 290.90989 
L 262.11039 290.069438 
L 263.016234 291.17224 
L 263.922078 291.355142 
L 264.375 290.744332 
L 264.827922 290.853518 
L 265.280844 291.211261 
L 265.733766 291.714501 
L 266.63961 290.409216 
L 267.092532 289.2837 
L 267.998377 291.983223 
L 268.451299 290.402101 
L 268.904221 292.351323 
L 269.357143 290.541729 
L 269.810065 291.569907 
L 270.262987 291.94487 
L 270.715909 290.484511 
L 271.168831 292.214343 
L 271.621753 291.547563 
L 272.074675 289.268502 
L 272.527597 291.743736 
L 272.980519 293.335017 
L 273.433442 292.528814 
L 273.886364 293.685332 
L 274.339286 291.350601 
L 274.792208 293.276838 
L 275.24513 291.809142 
L 275.698052 291.076829 
L 276.150974 290.766942 
L 276.603896 291.169854 
L 277.056818 291.777119 
L 277.50974 290.236429 
L 277.962662 292.026212 
L 278.415584 292.003337 
L 278.868506 293.574664 
L 279.321429 292.676142 
L 279.774351 292.214265 
L 280.227273 293.124575 
L 280.680195 292.491058 
L 281.133117 292.967897 
L 281.586039 292.383069 
L 282.491883 292.271428 
L 282.944805 292.605021 
L 283.397727 292.066424 
L 283.850649 292.91964 
L 284.303571 292.869289 
L 284.756494 292.428887 
L 285.209416 292.872277 
L 285.662338 291.921122 
L 286.11526 292.973797 
L 286.568182 291.752683 
L 287.021104 292.63918 
L 287.474026 291.993542 
L 287.926948 292.861088 
L 288.37987 292.066823 
L 288.832792 292.233196 
L 289.285714 292.852122 
L 289.738636 293.105771 
L 290.191558 292.981059 
L 290.644481 293.625779 
L 291.097403 293.41222 
L 292.003247 294.347378 
L 292.456169 293.954212 
L 292.909091 292.954635 
L 293.362013 293.787363 
L 293.814935 292.911823 
L 294.267857 293.614773 
L 295.173701 293.939284 
L 295.626623 292.563848 
L 296.532468 294.490116 
L 296.98539 293.547727 
L 297.438312 293.397247 
L 297.891234 293.369883 
L 298.344156 294.441195 
L 298.797078 293.945846 
L 299.25 294.126262 
L 300.155844 294.280429 
L 300.608766 295.605559 
L 301.061688 293.026491 
L 301.51461 294.529813 
L 301.967532 294.180951 
L 302.420455 293.563343 
L 302.873377 292.615316 
L 303.326299 294.532679 
L 303.779221 294.216356 
L 304.232143 294.393769 
L 305.137987 293.637938 
L 305.590909 293.609844 
L 306.949675 293.984035 
L 307.402597 295.251472 
L 307.855519 295.238531 
L 308.308442 294.772543 
L 308.761364 293.187172 
L 309.214286 293.63373 
L 309.667208 295.335728 
L 310.12013 293.926141 
L 310.573052 295.04509 
L 311.025974 294.473833 
L 311.478896 294.394285 
L 311.931818 294.178291 
L 312.38474 295.204679 
L 312.837662 295.631014 
L 313.290584 294.913801 
L 313.743506 295.858385 
L 314.196429 294.65433 
L 314.649351 295.232105 
L 315.102273 295.326428 
L 315.555195 295.014325 
L 316.008117 295.618336 
L 316.461039 294.333678 
L 316.913961 295.434571 
L 317.366883 295.20058 
L 317.819805 295.125425 
L 318.272727 294.320746 
L 318.725649 295.7223 
L 319.178571 295.77946 
L 319.631494 294.038625 
L 320.084416 293.821164 
L 320.537338 295.42526 
L 320.99026 296.069543 
L 321.443182 295.252701 
L 321.896104 293.91052 
L 322.349026 295.209971 
L 322.801948 293.640641 
L 323.25487 295.443081 
L 323.707792 295.264137 
L 324.160714 296.185529 
L 324.613636 295.147637 
L 325.066558 295.364367 
L 325.519481 294.296804 
L 325.972403 294.284145 
L 326.425325 297.256288 
L 326.878247 295.170449 
L 327.331169 295.811592 
L 327.784091 296.039379 
L 328.237013 295.280905 
L 328.689935 296.589558 
L 329.142857 296.001054 
L 329.595779 295.696031 
L 330.048701 296.172597 
L 330.501623 297.360024 
L 330.954545 295.41735 
L 331.407468 296.969973 
L 331.86039 296.150448 
L 332.313312 296.039255 
L 332.766234 296.722916 
L 333.219156 295.562781 
L 333.672078 295.375315 
L 334.125 294.956508 
L 334.577922 296.327737 
L 335.030844 295.277888 
L 335.483766 296.92585 
L 335.936688 294.807615 
L 336.38961 294.854213 
L 336.842532 295.742885 
L 337.295455 295.436193 
L 337.748377 294.709082 
L 338.201299 296.016539 
L 338.654221 294.850364 
L 339.107143 295.161796 
L 339.560065 295.966075 
L 340.012987 296.255064 
L 340.465909 294.780981 
L 340.918831 296.33906 
L 341.371753 296.977802 
L 341.824675 296.036298 
L 342.730519 296.476908 
L 343.636364 295.090791 
L 344.089286 296.203838 
L 344.542208 295.552086 
L 344.99513 297.284059 
L 345.448052 296.890465 
L 345.900974 297.398111 
L 346.353896 295.602741 
L 346.806818 296.755456 
L 347.25974 295.146381 
L 347.712662 295.422165 
L 348.165584 296.34928 
L 348.618506 296.617807 
L 349.071429 296.649215 
L 349.524351 297.748272 
L 349.977273 295.586276 
L 350.430195 294.612084 
L 350.883117 296.801231 
L 351.336039 296.204006 
L 351.788961 295.995102 
L 352.241883 296.759109 
L 352.694805 295.379425 
L 353.147727 297.029155 
L 353.600649 296.450158 
L 354.053571 296.28019 
L 354.506494 296.620858 
L 355.86526 296.773988 
L 356.771104 297.829148 
L 357.224026 297.399802 
L 357.676948 297.747427 
L 358.12987 296.53066 
L 358.582792 297.615195 
L 359.035714 297.481914 
L 359.941558 296.676358 
L 360.394481 298.184642 
L 360.847403 295.993366 
L 361.300325 297.41903 
L 361.753247 296.37207 
L 362.206169 296.866894 
L 362.659091 298.259343 
L 363.112013 297.807598 
L 363.564935 298.016386 
L 364.017857 296.779743 
L 364.470779 296.988257 
L 365.376623 297.639029 
L 365.829545 296.975631 
L 366.282468 297.082283 
L 366.73539 297.526944 
L 368.094156 297.169594 
L 368.547078 297.703558 
L 369 296.787357 
L 369.452922 297.445165 
L 369.905844 296.941428 
L 370.358766 295.94026 
L 370.811688 298.733305 
L 371.26461 297.856825 
L 371.717532 297.756774 
L 372.170455 296.05933 
L 372.623377 294.951844 
L 373.076299 298.56707 
L 373.529221 297.209803 
L 373.982143 296.941579 
L 374.435065 299.125137 
L 374.887987 296.424089 
L 375.340909 297.654422 
L 375.793831 298.366028 
L 376.246753 297.163475 
L 376.699675 297.643139 
L 377.152597 296.673254 
L 377.605519 297.136941 
L 378.058442 297.202228 
L 378.511364 297.648166 
L 378.964286 297.449424 
L 379.417208 296.592665 
L 379.87013 297.500614 
L 380.323052 296.298762 
L 381.228896 297.538129 
L 381.681818 297.502607 
L 382.13474 298.596884 
L 382.587662 297.779748 
L 383.040584 298.360889 
L 383.493506 297.481575 
L 383.946429 298.352087 
L 384.852273 296.93818 
L 385.305195 298.668984 
L 385.758117 297.949538 
L 386.211039 296.944428 
L 387.116883 297.995722 
L 387.569805 297.660362 
L 388.022727 297.940402 
L 388.475649 298.083246 
L 388.928571 297.78633 
L 389.381494 298.705012 
L 389.834416 298.683663 
L 390.287338 298.235487 
L 390.74026 298.144605 
L 391.193182 298.65784 
L 391.646104 297.015268 
L 392.099026 298.707298 
L 392.551948 299.151805 
L 393.00487 299.098986 
L 393.457792 298.039441 
L 393.910714 298.313659 
L 394.363636 297.561136 
L 394.816558 296.123885 
L 395.269481 300.095031 
L 395.722403 297.53654 
L 396.628247 299.23929 
L 397.534091 298.423907 
L 397.987013 298.542138 
L 398.892857 298.082407 
L 399.345779 296.555627 
L 399.798701 298.147484 
L 400.251623 298.101453 
L 400.704545 298.945818 
L 401.157468 299.129082 
L 402.063312 297.325689 
L 402.516234 298.988567 
L 402.969156 298.574017 
L 403.422078 298.345006 
L 403.875 298.797813 
L 404.327922 298.437764 
L 404.780844 298.564866 
L 405.233766 297.772822 
L 405.686688 297.973283 
L 406.13961 297.572054 
L 406.592532 298.47661 
L 407.045455 297.725755 
L 407.498377 298.208106 
L 407.951299 298.391453 
L 408.404221 297.627229 
L 408.857143 299.276518 
L 409.310065 297.828096 
L 409.762987 298.577751 
L 410.215909 298.800697 
L 410.668831 298.122524 
L 411.121753 298.535242 
L 411.574675 298.241496 
L 412.027597 299.168725 
L 412.480519 297.712868 
L 412.933442 298.220213 
L 413.386364 298.02346 
L 413.839286 298.940186 
L 414.292208 299.076043 
L 414.74513 298.479288 
L 415.198052 298.404549 
L 415.650974 298.54123 
L 416.103896 297.444844 
L 416.556818 298.823773 
L 417.00974 298.581935 
L 417.462662 297.653097 
L 417.915584 298.667902 
L 418.368506 299.24092 
L 418.821429 298.678959 
L 419.727273 298.684985 
L 420.180195 298.250477 
L 420.633117 298.793722 
L 421.086039 298.348108 
L 421.538961 298.354137 
L 421.991883 299.498957 
L 422.444805 298.466894 
L 422.897727 298.772912 
L 423.350649 299.579036 
L 423.803571 299.352476 
L 424.256494 299.556749 
L 424.709416 298.808268 
L 425.162338 299.069055 
L 425.61526 297.649593 
L 426.068182 298.118097 
L 426.521104 298.991038 
L 426.974026 297.826537 
L 427.426948 298.966791 
L 427.87987 299.53527 
L 428.332792 298.655375 
L 428.785714 299.671605 
L 429.238636 298.829661 
L 429.691558 300.146458 
L 430.144481 297.894461 
L 430.597403 300.00953 
L 431.050325 299.2473 
L 431.503247 299.267425 
L 431.956169 299.962892 
L 432.409091 299.521084 
L 432.862013 298.736628 
L 433.314935 299.542438 
L 433.767857 299.329336 
L 434.220779 298.870589 
L 434.673701 298.145341 
L 435.126623 299.61566 
L 435.579545 299.674095 
L 436.032468 299.209961 
L 436.48539 299.344246 
L 436.938312 300.525727 
L 437.391234 299.146079 
L 437.844156 299.575255 
L 438.297078 299.485611 
L 438.75 299.269363 
L 439.202922 298.905393 
L 439.655844 298.914602 
L 440.108766 299.091719 
L 440.561688 299.826493 
L 441.467532 298.914213 
L 441.920455 300.262097 
L 442.373377 298.866588 
L 442.826299 299.239296 
L 443.279221 299.371276 
L 443.732143 299.719019 
L 444.185065 299.882157 
L 444.637987 299.216345 
L 445.090909 300.441609 
L 445.543831 298.898693 
L 445.996753 298.718403 
L 446.449675 298.92411 
L 446.902597 299.263227 
L 447.355519 298.940615 
L 447.808442 299.045666 
L 448.261364 299.36023 
L 448.714286 300.025142 
L 449.62013 299.341791 
L 450.073052 298.492351 
L 450.525974 299.507568 
L 450.978896 299.294528 
L 451.431818 299.322582 
L 451.88474 299.167234 
L 452.337662 300.257877 
L 453.243506 298.72366 
L 453.696429 300.206091 
L 454.149351 299.807413 
L 454.602273 299.136777 
L 455.055195 300.017109 
L 455.508117 299.711762 
L 455.961039 298.884295 
L 456.413961 299.423351 
L 456.866883 299.359729 
L 457.319805 300.456192 
L 457.772727 299.431637 
L 458.225649 300.866412 
L 458.678571 300.437584 
L 459.131494 299.730382 
L 459.584416 299.525574 
L 460.037338 299.920463 
L 460.49026 300.075274 
L 460.943182 300.838598 
L 461.396104 299.655804 
L 461.849026 299.196407 
L 462.301948 299.8001 
L 462.75487 299.618061 
L 463.207792 299.114963 
L 463.660714 301.164558 
L 464.566558 299.2568 
L 465.925325 299.586839 
L 466.378247 300.227999 
L 466.831169 301.130997 
L 467.284091 300.038356 
L 467.737013 299.426454 
L 468.189935 299.393064 
L 468.642857 300.919085 
L 469.095779 300.048793 
L 469.548701 299.935744 
L 470.001623 300.732118 
L 470.454545 299.636233 
L 470.907468 299.309687 
L 471.36039 300.028305 
L 471.813312 299.50485 
L 472.719156 299.009937 
L 473.172078 299.570701 
L 473.625 299.185428 
L 474.077922 299.695533 
L 474.530844 298.460084 
L 474.983766 300.60556 
L 475.436688 299.391537 
L 475.88961 299.720037 
L 476.342532 299.778532 
L 476.795455 299.013571 
L 477.248377 300.297444 
L 477.701299 299.902207 
L 478.154221 300.139642 
L 478.607143 299.302739 
L 479.060065 300.418141 
L 479.965909 299.570551 
L 480.418831 300.658118 
L 481.777597 300.122264 
L 482.230519 301.03309 
L 483.136364 299.555704 
L 483.589286 300.008197 
L 484.042208 299.787966 
L 484.49513 299.749139 
L 484.948052 300.077887 
L 485.400974 300.931028 
L 485.853896 299.249678 
L 486.306818 301.394636 
L 486.75974 299.328464 
L 487.212662 301.058088 
L 487.665584 299.595454 
L 488.571429 300.424696 
L 489.024351 300.427097 
L 489.930195 298.211029 
L 490.383117 300.100167 
L 490.836039 301.362687 
L 491.288961 301.099115 
L 491.741883 299.208665 
L 492.194805 300.197836 
L 492.647727 300.286549 
L 493.100649 299.936509 
L 493.553571 299.774832 
L 494.006494 301.466469 
L 494.459416 300.110333 
L 494.912338 300.990113 
L 495.36526 300.231294 
L 495.818182 301.129433 
L 496.271104 300.06717 
L 496.724026 300.446264 
L 497.176948 300.074178 
L 497.62987 300.077792 
L 498.082792 299.271732 
L 498.535714 298.957405 
L 498.988636 299.323067 
L 499.441558 301.387578 
L 499.894481 300.455018 
L 500.800325 299.765462 
L 501.253247 299.748159 
L 501.706169 300.416439 
L 502.612013 300.592921 
L 503.064935 300.907629 
L 503.517857 300.512019 
L 503.970779 300.43697 
L 504.423701 299.642294 
L 504.876623 298.471937 
L 505.329545 301.026899 
L 505.782468 300.653009 
L 506.23539 300.816419 
L 506.688312 300.444551 
L 507.141234 300.825154 
L 507.594156 300.245199 
L 508.047078 299.456618 
L 508.5 299.852541 
L 508.952922 299.20996 
L 509.405844 299.335706 
L 509.858766 301.143757 
L 510.311688 301.159274 
L 510.76461 299.80333 
L 511.217532 300.910402 
L 511.670455 300.188281 
L 512.123377 301.060417 
L 512.576299 300.323449 
L 513.029221 299.887816 
L 513.935065 299.785416 
L 514.387987 300.290676 
L 514.840909 299.398197 
L 515.293831 300.090354 
L 515.746753 301.29508 
L 516.199675 299.903707 
L 516.652597 300.524065 
L 517.105519 300.57502 
L 517.558442 300.789294 
L 518.011364 300.121484 
L 518.464286 301.652249 
L 518.917208 301.193322 
L 519.37013 300.456901 
L 519.823052 301.804445 
L 520.275974 301.903498 
L 520.728896 300.508436 
L 521.181818 301.537898 
L 521.63474 299.21429 
L 522.087662 300.789603 
L 522.540584 300.548411 
L 522.993506 299.496189 
L 523.446429 300.665627 
L 523.899351 300.94956 
L 524.352273 300.901139 
L 524.805195 300.317951 
L 525.258117 301.083264 
L 525.711039 301.402974 
L 526.163961 301.381809 
L 526.616883 301.074641 
L 527.069805 300.560604 
L 527.522727 300.698512 
L 527.975649 300.636153 
L 528.428571 300.995725 
L 528.881494 300.524226 
L 529.334416 300.330913 
L 529.787338 299.90984 
L 530.24026 301.312668 
L 530.693182 299.863414 
L 531.146104 301.011107 
L 531.599026 301.256258 
L 532.051948 299.956904 
L 532.50487 300.071665 
L 532.957792 300.699159 
L 533.410714 299.740716 
L 533.863636 300.800363 
L 534.769481 301.406386 
L 535.222403 301.513269 
L 536.128247 300.609923 
L 536.581169 299.223663 
L 537.034091 301.366623 
L 537.487013 300.657731 
L 537.939935 300.792791 
L 538.392857 300.44449 
L 538.845779 299.5661 
L 539.298701 300.783827 
L 540.204545 301.424715 
L 540.657468 300.572817 
L 541.563312 300.760322 
L 542.016234 300.279133 
L 542.469156 301.505293 
L 542.922078 301.78703 
L 543.375 299.87492 
L 543.827922 300.74673 
L 544.280844 300.428518 
L 544.733766 301.002086 
L 545.186688 302.010772 
L 545.63961 301.64865 
L 546.545455 300.623249 
L 546.998377 300.498427 
L 547.451299 301.493966 
L 547.904221 300.832461 
L 548.357143 300.783586 
L 548.810065 301.345586 
L 549.262987 300.562617 
L 549.715909 300.600298 
L 550.168831 301.372516 
L 550.621753 300.930415 
L 551.074675 302.309252 
L 551.527597 301.717666 
L 551.980519 301.657059 
L 552.433442 301.167318 
L 552.886364 301.200995 
L 553.339286 301.631527 
L 553.792208 300.958056 
L 554.24513 301.279961 
L 554.698052 300.253076 
L 555.150974 300.249296 
L 555.603896 300.700612 
L 556.056818 300.746309 
L 556.50974 301.220485 
L 556.962662 301.456805 
L 557.415584 300.56772 
L 557.868506 300.73697 
L 558.321429 299.709109 
L 558.774351 301.197659 
L 559.227273 301.241201 
L 559.680195 302.152586 
L 560.133117 300.964131 
L 561.038961 301.991834 
L 561.491883 301.936763 
L 561.944805 300.425484 
L 562.397727 301.208642 
L 562.850649 301.223951 
L 563.303571 300.997079 
L 563.756494 301.125164 
L 564.209416 300.377394 
L 564.662338 301.32393 
L 565.11526 300.643712 
L 565.568182 301.467684 
L 566.021104 301.340077 
L 566.474026 301.668961 
L 566.926948 299.900619 
L 567.37987 300.911381 
L 567.832792 300.72882 
L 568.285714 301.46905 
L 568.738636 301.033022 
L 569.191558 300.345229 
L 569.644481 301.122217 
L 570.097403 300.060218 
L 570.550325 300.742161 
L 571.003247 300.199099 
L 571.456169 300.964032 
L 571.909091 301.029391 
L 572.362013 300.940226 
L 572.814935 301.965644 
L 573.267857 301.207685 
L 573.720779 300.693228 
L 574.173701 301.872918 
L 574.626623 301.469493 
L 575.079545 301.478099 
L 575.532468 301.934552 
L 575.98539 301.199699 
L 576.438312 301.630968 
L 576.891234 301.614951 
L 577.344156 300.685486 
L 577.797078 301.573905 
L 578.25 300.08519 
L 578.702922 301.279044 
L 579.155844 301.359681 
L 579.608766 299.71223 
L 580.061688 302.645455 
L 580.51461 300.883297 
L 580.967532 301.85743 
L 581.420455 300.981049 
L 581.873377 301.125023 
L 582.326299 300.794813 
L 582.779221 301.607177 
L 583.232143 301.161732 
L 583.685065 300.381334 
L 584.137987 300.452979 
L 584.590909 302.19138 
L 585.043831 301.211028 
L 585.496753 301.912659 
L 586.402597 301.011322 
L 586.855519 300.930321 
L 587.761364 301.298721 
L 588.214286 300.431142 
L 588.667208 301.795854 
L 589.12013 301.009754 
L 589.573052 302.212086 
L 590.025974 301.825811 
L 590.478896 300.860078 
L 590.931818 301.061411 
L 591.38474 301.456588 
L 591.837662 301.203372 
L 592.290584 302.405868 
L 592.743506 301.435169 
L 593.196429 301.440617 
L 593.649351 300.888701 
L 594.102273 302.181208 
L 594.555195 300.8417 
L 595.461039 301.286349 
L 595.913961 300.37166 
L 596.366883 300.946971 
L 596.819805 300.90147 
L 597.272727 302.150995 
L 597.725649 302.465381 
L 598.631494 300.596252 
L 599.084416 300.000645 
L 599.537338 302.408985 
L 599.99026 299.980378 
L 600.443182 301.427217 
L 601.349026 301.712813 
L 601.801948 300.803053 
L 602.25487 301.72784 
L 602.707792 301.327066 
L 603.613636 301.62624 
L 604.066558 301.685222 
L 604.519481 301.898903 
L 604.972403 300.861296 
L 605.425325 301.399449 
L 605.878247 300.751409 
L 606.331169 302.578101 
L 606.784091 302.393879 
L 607.237013 301.278558 
L 607.689935 300.949035 
L 608.142857 301.670619 
L 608.595779 301.718302 
L 609.048701 302.551347 
L 609.954545 301.890213 
L 610.407468 302.278558 
L 611.313312 301.43954 
L 612.219156 302.277247 
L 612.672078 300.977928 
L 613.577922 302.372978 
L 614.030844 302.081044 
L 614.483766 301.948773 
L 614.936688 301.108446 
L 615.38961 302.184451 
L 615.842532 301.980236 
L 616.295455 302.564035 
L 616.748377 301.719255 
L 617.201299 301.138083 
L 617.654221 301.625636 
L 618.107143 301.134717 
L 618.560065 302.059282 
L 619.012987 301.879115 
L 619.465909 301.359384 
L 619.918831 301.491957 
L 620.371753 302.09215 
L 620.824675 301.46726 
L 621.277597 301.721345 
L 621.730519 301.078057 
L 622.183442 301.585672 
L 622.636364 301.621034 
L 622.636364 301.621034 
" style="fill:none;stroke:#1f77b4;stroke-linecap:square;stroke-width:0.5;"/>
   </g>
   <g id="line2d_32">
    <path clip-path="url(#pf86fd4dc68)" d="M 115.363636 61.362587 
L 115.816558 68.496228 
L 116.269481 73.761817 
L 116.722403 74.305779 
L 118.081169 82.947005 
L 118.534091 83.20539 
L 118.987013 84.824283 
L 119.439935 84.736612 
L 119.892857 84.456727 
L 120.345779 85.296334 
L 120.798701 89.685967 
L 121.251623 89.28161 
L 121.704545 89.520689 
L 122.157468 92.676579 
L 122.61039 94.888817 
L 123.063312 94.832472 
L 123.516234 95.049183 
L 123.969156 95.938705 
L 124.422078 98.024473 
L 124.875 101.743643 
L 125.327922 104.379613 
L 126.233766 105.122086 
L 126.686688 110.706757 
L 127.13961 111.414737 
L 128.045455 119.685518 
L 128.498377 122.809395 
L 128.951299 128.806713 
L 129.404221 130.625877 
L 129.857143 137.78187 
L 130.310065 140.482489 
L 130.762987 146.037633 
L 131.215909 148.532239 
L 133.933442 170.379491 
L 134.386364 170.260604 
L 134.839286 173.36414 
L 135.292208 179.699756 
L 135.74513 180.449604 
L 136.198052 184.660961 
L 136.650974 186.880255 
L 137.103896 186.899971 
L 138.00974 192.392846 
L 138.462662 196.922092 
L 138.915584 196.780193 
L 139.368506 198.760628 
L 139.821429 202.160561 
L 140.274351 200.541098 
L 141.180195 205.529761 
L 141.633117 209.772441 
L 142.086039 211.669572 
L 142.538961 208.436277 
L 142.991883 213.046854 
L 143.444805 212.661228 
L 143.897727 214.407274 
L 144.350649 216.839731 
L 144.803571 216.559759 
L 145.256494 216.880509 
L 145.709416 219.552383 
L 146.162338 220.714369 
L 146.61526 221.250971 
L 147.068182 222.476543 
L 147.521104 222.299376 
L 147.974026 224.329019 
L 148.426948 223.355129 
L 148.87987 228.2868 
L 149.332792 227.85192 
L 149.785714 229.148425 
L 150.238636 228.773369 
L 150.691558 231.044895 
L 151.144481 229.717855 
L 151.597403 229.219301 
L 152.050325 231.977443 
L 152.503247 233.220953 
L 152.956169 235.61822 
L 153.409091 234.8189 
L 153.862013 235.416318 
L 154.314935 235.341343 
L 154.767857 233.106406 
L 155.220779 237.524098 
L 155.673701 239.435785 
L 156.126623 240.080614 
L 156.579545 237.773681 
L 157.032468 240.540044 
L 157.48539 241.978279 
L 158.391234 239.705189 
L 158.844156 244.713724 
L 159.297078 242.213344 
L 159.75 244.948831 
L 160.202922 242.294187 
L 160.655844 245.771715 
L 161.108766 245.504123 
L 162.01461 246.265 
L 162.467532 247.215817 
L 162.920455 248.479677 
L 163.373377 247.779399 
L 163.826299 247.429032 
L 164.279221 248.879584 
L 164.732143 248.130933 
L 165.185065 250.268335 
L 165.637987 250.146786 
L 166.090909 252.051424 
L 166.543831 251.383508 
L 166.996753 251.997557 
L 167.449675 252.942272 
L 167.902597 255.053611 
L 168.355519 250.932903 
L 168.808442 253.230695 
L 169.261364 254.146335 
L 169.714286 253.519664 
L 170.167208 253.385457 
L 171.073052 256.317961 
L 171.525974 253.894239 
L 171.978896 255.721039 
L 172.431818 254.389572 
L 172.88474 257.405663 
L 173.337662 258.580507 
L 173.790584 257.699506 
L 174.243506 257.435553 
L 174.696429 257.827684 
L 175.149351 259.842867 
L 175.602273 257.24949 
L 176.055195 257.629968 
L 176.508117 259.685989 
L 176.961039 260.045781 
L 177.413961 260.72221 
L 177.866883 261.028716 
L 178.319805 259.444024 
L 178.772727 261.508512 
L 179.225649 261.950871 
L 179.678571 261.55407 
L 180.131494 261.869649 
L 180.584416 260.936578 
L 181.037338 262.965348 
L 181.49026 261.477091 
L 181.943182 262.048976 
L 182.396104 262.860179 
L 182.849026 264.067928 
L 183.301948 263.765977 
L 183.75487 261.775701 
L 184.207792 262.327603 
L 184.660714 264.513957 
L 185.113636 264.415115 
L 185.566558 263.232103 
L 186.019481 265.54011 
L 186.472403 266.226428 
L 186.925325 263.98917 
L 187.378247 264.763448 
L 187.831169 266.316526 
L 188.284091 266.148869 
L 188.737013 265.368541 
L 189.189935 267.624026 
L 189.642857 266.6399 
L 190.095779 266.516948 
L 190.548701 265.073942 
L 191.001623 267.149731 
L 191.454545 267.195141 
L 191.907468 266.997921 
L 192.36039 266.641453 
L 192.813312 268.405899 
L 193.719156 270.094984 
L 194.625 268.060039 
L 195.077922 269.537597 
L 195.530844 269.209216 
L 195.983766 269.40089 
L 196.436688 268.829765 
L 196.88961 269.765726 
L 197.342532 269.281301 
L 197.795455 267.556705 
L 198.248377 270.204327 
L 198.701299 270.428626 
L 199.154221 270.902876 
L 199.607143 270.400357 
L 200.060065 270.518522 
L 200.512987 271.552215 
L 200.965909 269.192263 
L 201.418831 271.644675 
L 201.871753 270.80511 
L 202.324675 272.131498 
L 202.777597 272.257678 
L 203.230519 271.479284 
L 203.683442 269.073466 
L 204.136364 271.514192 
L 204.589286 271.345902 
L 205.042208 270.847235 
L 205.49513 271.290623 
L 205.948052 273.790028 
L 206.400974 271.533909 
L 206.853896 271.45666 
L 207.306818 275.356972 
L 207.75974 271.430586 
L 208.212662 273.429209 
L 208.665584 270.385171 
L 209.118506 274.344385 
L 209.571429 274.991428 
L 210.477273 271.900324 
L 210.930195 273.087235 
L 211.383117 274.621961 
L 211.836039 272.000032 
L 212.288961 274.988808 
L 212.741883 274.277823 
L 213.194805 274.349672 
L 213.647727 274.067703 
L 214.100649 274.025105 
L 215.006494 273.305648 
L 215.459416 273.389179 
L 216.36526 274.572881 
L 216.818182 275.922773 
L 217.271104 273.280263 
L 217.724026 274.914334 
L 218.176948 274.13758 
L 218.62987 275.260527 
L 219.082792 273.409758 
L 219.535714 275.240709 
L 219.988636 275.726978 
L 220.441558 274.423208 
L 220.894481 276.693947 
L 221.347403 275.275246 
L 221.800325 277.390505 
L 222.253247 274.06144 
L 222.706169 275.39035 
L 223.159091 275.657294 
L 223.612013 275.456649 
L 224.064935 276.484833 
L 224.517857 274.042901 
L 225.423701 276.679596 
L 225.876623 274.982281 
L 226.329545 274.780622 
L 226.782468 278.163876 
L 227.23539 275.897373 
L 227.688312 277.098035 
L 228.141234 277.447698 
L 228.594156 277.511169 
L 229.047078 276.103982 
L 229.5 277.73125 
L 230.405844 274.563763 
L 230.858766 277.188604 
L 231.311688 276.775598 
L 231.76461 276.775179 
L 232.217532 280.333878 
L 232.670455 278.419683 
L 233.123377 277.994618 
L 233.576299 277.219522 
L 234.029221 279.005721 
L 234.935065 280.909104 
L 235.387987 278.975323 
L 236.293831 279.489074 
L 236.746753 280.053672 
L 237.652597 277.092029 
L 238.105519 278.980116 
L 238.558442 279.258174 
L 239.011364 278.623376 
L 239.464286 279.415857 
L 239.917208 279.04354 
L 240.37013 279.297618 
L 240.823052 280.210214 
L 241.275974 278.977655 
L 241.728896 279.108291 
L 242.181818 279.9236 
L 242.63474 279.708694 
L 243.087662 279.933142 
L 243.540584 281.303179 
L 243.993506 279.403597 
L 244.446429 279.324568 
L 244.899351 283.073854 
L 245.352273 280.539337 
L 245.805195 280.286172 
L 246.258117 280.815746 
L 246.711039 278.938374 
L 247.616883 281.854412 
L 248.069805 281.133087 
L 248.522727 281.410654 
L 248.975649 280.961486 
L 249.428571 279.394154 
L 249.881494 280.376982 
L 250.334416 278.819684 
L 251.24026 281.060787 
L 251.693182 283.563618 
L 252.146104 278.681349 
L 252.599026 279.310504 
L 253.051948 281.376635 
L 253.50487 281.171197 
L 253.957792 283.495104 
L 254.410714 282.156673 
L 254.863636 280.188933 
L 255.316558 281.417545 
L 255.769481 281.478082 
L 256.222403 282.178926 
L 257.128247 281.018721 
L 257.581169 281.586448 
L 258.034091 281.761645 
L 258.487013 279.968042 
L 258.939935 281.841798 
L 259.392857 281.161718 
L 259.845779 280.773364 
L 260.298701 281.654788 
L 260.751623 281.597311 
L 261.204545 282.67818 
L 261.657468 283.061947 
L 262.11039 284.202838 
L 262.563312 281.848048 
L 263.016234 282.473821 
L 263.469156 280.194517 
L 263.922078 281.835657 
L 264.827922 282.129113 
L 265.280844 280.144125 
L 265.733766 283.462826 
L 266.186688 280.501202 
L 266.63961 282.919151 
L 267.092532 280.004445 
L 267.545455 284.398148 
L 267.998377 282.243362 
L 268.451299 281.099383 
L 268.904221 283.180428 
L 269.357143 282.800368 
L 269.810065 282.786006 
L 270.262987 281.165624 
L 270.715909 282.461248 
L 271.168831 281.401242 
L 272.074675 280.860254 
L 272.527597 282.645005 
L 272.980519 282.111229 
L 273.433442 281.820833 
L 273.886364 283.646704 
L 274.339286 284.16763 
L 274.792208 283.606553 
L 275.24513 283.643882 
L 275.698052 282.927212 
L 276.603896 284.547874 
L 277.056818 282.60659 
L 277.50974 283.317155 
L 277.962662 282.108167 
L 278.415584 283.264261 
L 278.868506 283.398115 
L 279.321429 282.617088 
L 279.774351 280.441207 
L 280.227273 282.910814 
L 280.680195 281.35152 
L 281.133117 283.712119 
L 281.586039 282.833738 
L 282.038961 282.279818 
L 282.491883 282.56726 
L 282.944805 281.966501 
L 283.397727 282.118374 
L 283.850649 282.425273 
L 284.756494 285.135489 
L 285.209416 284.248727 
L 285.662338 284.513576 
L 286.11526 284.248024 
L 286.568182 279.27426 
L 287.021104 281.813717 
L 287.474026 283.104391 
L 287.926948 283.592782 
L 288.37987 282.738041 
L 288.832792 285.609141 
L 289.285714 284.000057 
L 289.738636 285.157057 
L 290.191558 283.771754 
L 290.644481 283.55057 
L 291.097403 284.095717 
L 291.550325 284.122564 
L 292.003247 282.888114 
L 292.456169 284.374488 
L 292.909091 284.747945 
L 293.362013 284.616773 
L 293.814935 282.625245 
L 294.267857 284.355652 
L 294.720779 282.017831 
L 295.173701 282.224483 
L 295.626623 283.215197 
L 296.079545 284.508655 
L 296.532468 285.201254 
L 297.438312 283.382879 
L 297.891234 285.588382 
L 298.344156 286.871634 
L 298.797078 284.534921 
L 299.25 284.884581 
L 299.702922 284.040637 
L 300.155844 284.171921 
L 300.608766 284.04946 
L 301.061688 285.112395 
L 301.51461 283.994056 
L 301.967532 285.336386 
L 302.420455 284.349472 
L 302.873377 284.599049 
L 303.326299 282.399218 
L 303.779221 284.740942 
L 304.232143 283.486614 
L 304.685065 283.663737 
L 305.590909 285.5411 
L 306.043831 285.193945 
L 306.949675 282.104083 
L 307.402597 285.092019 
L 308.761364 286.455559 
L 309.214286 286.150671 
L 309.667208 286.22778 
L 310.12013 287.714735 
L 310.573052 282.851824 
L 311.025974 285.897553 
L 311.478896 286.372357 
L 311.931818 284.438131 
L 312.38474 284.51809 
L 312.837662 287.295189 
L 313.290584 286.23319 
L 313.743506 286.896503 
L 314.196429 285.46143 
L 314.649351 284.916866 
L 315.102273 282.881994 
L 315.555195 287.45361 
L 316.008117 283.481566 
L 316.461039 285.217857 
L 316.913961 284.645224 
L 317.366883 286.370006 
L 317.819805 284.953636 
L 318.272727 286.395852 
L 318.725649 286.492229 
L 319.178571 282.775228 
L 320.084416 287.503115 
L 320.537338 286.72362 
L 320.99026 283.799278 
L 321.443182 287.210225 
L 321.896104 285.69865 
L 322.349026 285.26217 
L 322.801948 284.182856 
L 323.25487 285.393187 
L 323.707792 284.645682 
L 324.160714 284.558955 
L 324.613636 285.315284 
L 325.066558 284.759132 
L 325.519481 285.037017 
L 325.972403 286.314525 
L 326.425325 285.385379 
L 326.878247 284.889842 
L 327.331169 287.125934 
L 327.784091 285.791762 
L 328.237013 282.674222 
L 328.689935 285.379009 
L 329.142857 286.724029 
L 329.595779 284.525267 
L 330.048701 287.569547 
L 330.501623 287.265477 
L 330.954545 285.147361 
L 331.407468 286.012882 
L 331.86039 285.386956 
L 332.313312 287.910734 
L 332.766234 285.253576 
L 333.219156 285.75043 
L 333.672078 284.684217 
L 334.125 288.535098 
L 334.577922 285.429693 
L 335.030844 287.417385 
L 335.483766 284.897053 
L 336.38961 287.72635 
L 336.842532 284.301017 
L 337.295455 285.685222 
L 337.748377 285.637305 
L 338.201299 285.263698 
L 338.654221 285.144146 
L 339.107143 286.029723 
L 339.560065 287.686426 
L 340.012987 285.919121 
L 340.465909 286.879934 
L 340.918831 286.854913 
L 341.371753 286.619251 
L 341.824675 285.650809 
L 342.277597 286.588484 
L 342.730519 284.610114 
L 343.183442 284.951049 
L 343.636364 287.113001 
L 344.542208 284.827263 
L 344.99513 285.864509 
L 345.448052 285.650747 
L 345.900974 286.497502 
L 346.353896 287.669037 
L 346.806818 286.218322 
L 347.25974 284.287019 
L 347.712662 284.661471 
L 348.165584 284.677381 
L 348.618506 286.063069 
L 349.071429 283.390791 
L 349.524351 286.400573 
L 349.977273 284.466924 
L 350.430195 283.854605 
L 350.883117 284.783213 
L 351.336039 286.695088 
L 351.788961 286.303943 
L 352.241883 288.490502 
L 352.694805 286.233815 
L 353.147727 288.098904 
L 353.600649 285.491886 
L 354.053571 286.442892 
L 354.506494 286.440778 
L 354.959416 285.28561 
L 355.412338 285.830048 
L 355.86526 287.730858 
L 356.318182 285.769063 
L 356.771104 287.778276 
L 357.224026 285.430056 
L 357.676948 286.296626 
L 358.12987 287.48179 
L 358.582792 286.729754 
L 359.035714 286.439589 
L 359.488636 284.886387 
L 359.941558 284.934964 
L 360.394481 286.576055 
L 360.847403 284.776379 
L 361.300325 287.094118 
L 361.753247 285.499798 
L 362.206169 286.578287 
L 362.659091 286.500945 
L 363.112013 287.444752 
L 363.564935 287.696274 
L 364.017857 285.696726 
L 364.470779 287.422296 
L 364.923701 288.03938 
L 365.376623 285.953899 
L 365.829545 285.053561 
L 366.73539 286.470795 
L 367.188312 287.210884 
L 367.641234 287.153039 
L 368.094156 286.485719 
L 368.547078 284.980557 
L 369 287.54443 
L 369.452922 286.956096 
L 369.905844 286.589464 
L 370.811688 286.355637 
L 371.26461 288.180428 
L 371.717532 287.23596 
L 372.170455 287.079426 
L 372.623377 287.953047 
L 373.076299 287.135909 
L 373.529221 286.56771 
L 373.982143 286.624996 
L 374.435065 287.724812 
L 374.887987 286.983216 
L 375.340909 287.464713 
L 375.793831 289.603155 
L 376.246753 285.600006 
L 376.699675 287.952204 
L 377.152597 285.696321 
L 377.605519 286.914831 
L 378.058442 287.812609 
L 378.511364 285.884656 
L 378.964286 287.422424 
L 379.417208 287.076212 
L 379.87013 287.403897 
L 380.323052 286.768089 
L 380.775974 286.603769 
L 381.228896 285.450396 
L 381.681818 287.340475 
L 382.13474 286.572136 
L 382.587662 287.511517 
L 383.040584 286.412128 
L 383.493506 287.898605 
L 383.946429 287.465517 
L 384.399351 286.470453 
L 385.305195 287.386264 
L 386.211039 285.209189 
L 386.663961 286.679498 
L 387.116883 286.5467 
L 387.569805 286.724347 
L 388.022727 288.729039 
L 388.475649 288.638919 
L 388.928571 286.879473 
L 389.381494 289.209153 
L 389.834416 288.022249 
L 390.287338 285.832858 
L 390.74026 288.011222 
L 391.193182 287.23882 
L 391.646104 288.523929 
L 392.099026 286.384505 
L 392.551948 287.104912 
L 393.00487 286.031165 
L 393.910714 286.950562 
L 394.363636 285.883781 
L 394.816558 289.058088 
L 395.269481 289.278184 
L 395.722403 287.046559 
L 396.175325 286.413133 
L 396.628247 287.640834 
L 397.081169 286.977174 
L 397.534091 288.06453 
L 397.987013 286.376014 
L 398.439935 285.868108 
L 398.892857 287.198654 
L 399.345779 286.913264 
L 399.798701 289.555454 
L 400.251623 289.298553 
L 400.704545 286.60373 
L 401.157468 286.217631 
L 401.61039 288.935044 
L 402.063312 287.808906 
L 402.516234 287.376547 
L 402.969156 287.350756 
L 403.422078 286.271383 
L 403.875 288.683451 
L 404.327922 289.111528 
L 404.780844 286.193708 
L 405.233766 286.761732 
L 405.686688 286.951232 
L 406.13961 285.257846 
L 406.592532 287.038192 
L 407.045455 287.886926 
L 407.498377 286.908199 
L 407.951299 285.64825 
L 408.404221 287.988075 
L 408.857143 286.267879 
L 409.310065 286.61485 
L 409.762987 286.317718 
L 410.215909 286.694825 
L 410.668831 287.392308 
L 411.121753 288.842577 
L 411.574675 287.522691 
L 412.027597 285.858918 
L 412.480519 286.568464 
L 412.933442 288.601112 
L 413.386364 285.863567 
L 413.839286 291.119259 
L 414.292208 288.057384 
L 414.74513 288.443613 
L 415.198052 287.227661 
L 416.103896 289.355711 
L 416.556818 286.411475 
L 417.00974 287.015357 
L 417.462662 286.585416 
L 417.915584 288.932741 
L 418.368506 286.418627 
L 418.821429 289.12492 
L 419.274351 290.120418 
L 419.727273 286.677809 
L 420.180195 288.349931 
L 420.633117 286.26158 
L 421.086039 286.901241 
L 421.538961 287.124768 
L 421.991883 287.557303 
L 422.444805 288.39424 
L 422.897727 287.875809 
L 423.350649 287.898781 
L 423.803571 289.609499 
L 424.256494 288.373299 
L 424.709416 286.248214 
L 425.162338 288.290056 
L 425.61526 287.275869 
L 426.068182 287.69101 
L 426.521104 289.268793 
L 426.974026 288.828932 
L 427.426948 288.591298 
L 427.87987 287.411606 
L 428.332792 290.33325 
L 428.785714 288.560908 
L 429.238636 287.752031 
L 429.691558 289.280638 
L 430.597403 286.777551 
L 431.050325 287.833964 
L 431.956169 289.181172 
L 432.409091 287.771775 
L 433.767857 286.302839 
L 434.220779 287.896583 
L 434.673701 288.191106 
L 435.126623 288.71923 
L 435.579545 289.883624 
L 436.032468 286.519951 
L 436.48539 287.924187 
L 436.938312 288.270472 
L 437.391234 289.040989 
L 437.844156 288.509985 
L 438.297078 286.587408 
L 438.75 287.774097 
L 439.202922 287.856864 
L 440.108766 289.786427 
L 440.561688 287.131569 
L 441.01461 289.624708 
L 441.467532 288.541276 
L 441.920455 286.811102 
L 442.373377 289.885449 
L 442.826299 289.75173 
L 443.279221 288.451857 
L 443.732143 288.564933 
L 444.185065 287.763034 
L 444.637987 285.441792 
L 445.090909 288.486121 
L 445.543831 288.502861 
L 445.996753 286.863294 
L 446.449675 287.493613 
L 446.902597 288.565817 
L 447.355519 288.247407 
L 448.261364 286.779784 
L 448.714286 288.637601 
L 449.167208 288.394408 
L 449.62013 288.427181 
L 450.073052 287.52996 
L 450.525974 289.699617 
L 450.978896 289.169379 
L 451.431818 286.647675 
L 452.337662 287.654911 
L 452.790584 285.839771 
L 453.243506 285.143552 
L 453.696429 289.29383 
L 454.149351 287.513791 
L 454.602273 287.792784 
L 455.055195 287.534769 
L 455.508117 289.590655 
L 455.961039 288.034518 
L 456.413961 288.771581 
L 456.866883 287.544301 
L 457.319805 289.927718 
L 457.772727 289.844108 
L 458.225649 289.549396 
L 458.678571 287.912899 
L 459.131494 289.124896 
L 459.584416 286.394819 
L 460.037338 285.960008 
L 460.49026 288.174746 
L 461.396104 288.54206 
L 461.849026 286.211398 
L 462.301948 286.453958 
L 462.75487 289.826668 
L 463.207792 287.814233 
L 463.660714 289.432532 
L 464.113636 288.558638 
L 464.566558 289.26115 
L 465.472403 287.019533 
L 465.925325 289.230318 
L 466.378247 289.454305 
L 466.831169 287.399977 
L 467.284091 287.215183 
L 467.737013 287.668483 
L 468.189935 290.946104 
L 468.642857 288.449131 
L 469.095779 289.655591 
L 469.548701 288.5155 
L 470.001623 286.798026 
L 470.454545 288.239909 
L 470.907468 288.825312 
L 471.36039 288.427043 
L 471.813312 284.923614 
L 472.266234 286.598977 
L 472.719156 287.798171 
L 473.172078 286.589051 
L 473.625 288.449019 
L 474.077922 287.338502 
L 474.530844 289.950344 
L 474.983766 286.636361 
L 475.436688 285.483975 
L 475.88961 287.668366 
L 476.342532 289.111001 
L 476.795455 288.070644 
L 477.248377 288.533286 
L 477.701299 288.421818 
L 478.154221 288.871377 
L 478.607143 288.676662 
L 479.060065 287.060246 
L 479.512987 287.86736 
L 479.965909 287.582248 
L 480.418831 287.694804 
L 480.871753 285.297198 
L 481.324675 287.016571 
L 481.777597 286.587209 
L 482.230519 289.60463 
L 482.683442 288.236326 
L 483.136364 287.915488 
L 483.589286 288.278533 
L 484.042208 288.864443 
L 484.49513 289.700967 
L 484.948052 287.695333 
L 485.853896 289.67187 
L 486.306818 287.969981 
L 486.75974 288.43048 
L 487.212662 285.151482 
L 487.665584 289.910416 
L 488.118506 288.10662 
L 488.571429 287.318705 
L 489.024351 289.565483 
L 489.477273 287.586712 
L 489.930195 288.748925 
L 490.383117 289.415567 
L 490.836039 287.403 
L 491.288961 287.822413 
L 491.741883 290.087118 
L 492.194805 289.048511 
L 493.100649 288.122739 
L 493.553571 289.486666 
L 494.459416 288.718392 
L 494.912338 287.694829 
L 495.36526 288.553542 
L 495.818182 288.530444 
L 496.271104 290.518201 
L 496.724026 289.741154 
L 497.176948 287.840641 
L 497.62987 288.289947 
L 498.082792 287.874519 
L 498.535714 287.976395 
L 498.988636 288.23459 
L 499.441558 288.784661 
L 499.894481 288.215679 
L 500.347403 289.264041 
L 500.800325 292.008197 
L 501.253247 287.969319 
L 501.706169 288.180246 
L 502.159091 289.558429 
L 503.064935 287.833368 
L 503.970779 291.280247 
L 504.423701 288.301548 
L 504.876623 288.45253 
L 505.329545 288.751357 
L 505.782468 289.501032 
L 506.23539 287.266748 
L 506.688312 288.584816 
L 507.141234 287.770707 
L 507.594156 287.515298 
L 508.047078 288.81507 
L 508.5 286.148711 
L 508.952922 287.941907 
L 509.405844 292.442712 
L 509.858766 285.531257 
L 510.311688 288.152679 
L 510.76461 287.012303 
L 511.217532 288.247929 
L 511.670455 287.273524 
L 512.123377 290.398838 
L 512.576299 289.131818 
L 513.029221 289.642733 
L 513.482143 287.248004 
L 513.935065 286.984361 
L 514.840909 286.826916 
L 515.746753 289.325089 
L 516.199675 287.520565 
L 517.105519 287.732913 
L 517.558442 289.755492 
L 518.011364 289.433901 
L 518.464286 288.322659 
L 518.917208 290.459242 
L 519.37013 288.88557 
L 519.823052 288.402117 
L 520.275974 288.43871 
L 520.728896 287.52078 
L 521.181818 287.536316 
L 521.63474 289.200606 
L 522.087662 289.335897 
L 522.540584 290.824319 
L 522.993506 288.887976 
L 523.446429 289.805287 
L 523.899351 289.338475 
L 524.352273 286.086398 
L 525.258117 289.024429 
L 525.711039 286.973396 
L 526.163961 288.710433 
L 526.616883 289.661542 
L 527.069805 287.32058 
L 527.522727 288.884159 
L 527.975649 287.1157 
L 528.428571 287.702841 
L 528.881494 289.664315 
L 529.334416 287.528821 
L 529.787338 288.490614 
L 530.24026 286.197833 
L 530.693182 287.463145 
L 531.146104 286.555322 
L 531.599026 286.725254 
L 532.051948 287.131839 
L 532.50487 288.859307 
L 532.957792 289.278704 
L 533.410714 288.320481 
L 533.863636 291.669533 
L 534.316558 288.683549 
L 534.769481 289.821593 
L 535.222403 289.763048 
L 535.675325 287.136473 
L 536.128247 289.684036 
L 536.581169 286.422816 
L 537.034091 284.774208 
L 537.487013 287.712167 
L 537.939935 287.001972 
L 538.392857 288.484207 
L 538.845779 287.921029 
L 539.298701 288.541599 
L 539.751623 290.017697 
L 540.657468 288.503973 
L 541.563312 290.246386 
L 542.016234 287.128454 
L 542.469156 289.278968 
L 542.922078 289.474936 
L 543.375 290.323236 
L 543.827922 289.03557 
L 544.733766 287.577692 
L 545.186688 288.174037 
L 545.63961 289.36912 
L 546.092532 289.785925 
L 546.545455 286.816061 
L 546.998377 289.867911 
L 547.451299 286.072305 
L 547.904221 288.183013 
L 548.357143 289.275916 
L 548.810065 289.358721 
L 549.262987 289.071073 
L 549.715909 286.016906 
L 550.168831 289.320256 
L 550.621753 286.98098 
L 551.074675 289.180253 
L 551.527597 288.357585 
L 551.980519 286.811963 
L 552.433442 290.012262 
L 552.886364 290.781905 
L 553.339286 290.349097 
L 553.792208 288.250103 
L 554.24513 288.738262 
L 554.698052 289.651393 
L 555.150974 287.644303 
L 555.603896 290.764833 
L 556.056818 287.828624 
L 556.50974 287.081828 
L 556.962662 288.044891 
L 557.415584 287.485998 
L 557.868506 288.442456 
L 558.774351 288.951044 
L 559.227273 289.917379 
L 559.680195 288.954231 
L 560.133117 289.356388 
L 560.586039 287.747823 
L 561.038961 288.411205 
L 561.491883 288.027692 
L 561.944805 288.544823 
L 562.397727 288.411149 
L 562.850649 285.527915 
L 563.303571 290.519363 
L 563.756494 287.666627 
L 564.209416 287.082156 
L 564.662338 289.119434 
L 565.11526 287.932137 
L 565.568182 287.595622 
L 566.021104 290.353895 
L 566.474026 291.362432 
L 566.926948 289.0993 
L 567.37987 290.844663 
L 568.285714 288.01034 
L 568.738636 290.095777 
L 569.191558 288.108218 
L 569.644481 290.314622 
L 570.097403 287.46085 
L 570.550325 287.257357 
L 571.003247 287.471969 
L 571.909091 288.133592 
L 572.362013 289.153831 
L 572.814935 287.993842 
L 573.267857 289.299393 
L 573.720779 287.046365 
L 574.173701 289.482192 
L 574.626623 288.173121 
L 575.079545 287.858682 
L 575.532468 292.005626 
L 575.98539 289.868013 
L 576.438312 289.364897 
L 576.891234 288.100681 
L 577.344156 287.837458 
L 577.797078 288.1897 
L 578.25 290.356639 
L 578.702922 288.65681 
L 579.155844 288.718048 
L 579.608766 287.287015 
L 580.061688 290.952232 
L 580.51461 287.842656 
L 580.967532 289.017014 
L 581.420455 289.067784 
L 581.873377 286.450633 
L 582.326299 289.653223 
L 582.779221 291.171304 
L 583.232143 289.10926 
L 583.685065 288.241018 
L 584.137987 289.884249 
L 584.590909 285.700846 
L 585.043831 289.16695 
L 585.496753 286.825736 
L 585.949675 287.403028 
L 586.402597 288.726473 
L 586.855519 288.574585 
L 587.308442 289.484342 
L 587.761364 288.460541 
L 588.214286 289.96545 
L 588.667208 289.728951 
L 589.12013 286.771059 
L 590.025974 286.777206 
L 590.478896 288.634799 
L 590.931818 287.596196 
L 591.38474 288.531099 
L 591.837662 288.813903 
L 592.290584 288.590584 
L 592.743506 289.486504 
L 593.196429 287.034509 
L 593.649351 288.300882 
L 594.102273 290.201206 
L 594.555195 288.708468 
L 595.008117 288.150574 
L 595.461039 288.472167 
L 595.913961 287.76013 
L 596.366883 289.140911 
L 596.819805 291.766922 
L 597.272727 287.693809 
L 597.725649 289.4405 
L 598.178571 289.009912 
L 598.631494 288.973532 
L 599.084416 287.827672 
L 599.537338 289.578169 
L 599.99026 289.653563 
L 600.443182 288.723931 
L 600.896104 288.35076 
L 601.349026 288.893429 
L 601.801948 289.742638 
L 602.25487 287.72962 
L 603.160714 289.305142 
L 604.066558 290.776072 
L 604.519481 290.791622 
L 604.972403 290.649372 
L 605.425325 288.79099 
L 605.878247 289.551686 
L 606.331169 288.008852 
L 606.784091 286.894418 
L 607.237013 290.866481 
L 607.689935 288.565987 
L 608.142857 287.743388 
L 608.595779 291.0123 
L 609.048701 288.871478 
L 609.501623 291.301703 
L 609.954545 289.22599 
L 610.86039 290.303556 
L 611.313312 289.65172 
L 611.766234 287.97576 
L 612.219156 289.419853 
L 612.672078 287.430158 
L 613.125 289.408411 
L 613.577922 290.053775 
L 614.030844 289.090685 
L 614.483766 288.847294 
L 614.936688 288.014715 
L 615.38961 289.721316 
L 615.842532 290.486278 
L 616.295455 292.426541 
L 616.748377 288.903526 
L 617.201299 290.467499 
L 617.654221 290.365567 
L 618.107143 288.944084 
L 618.560065 288.888923 
L 619.012987 288.479625 
L 619.465909 286.719924 
L 619.918831 288.588005 
L 620.371753 288.760971 
L 620.824675 287.886545 
L 621.277597 286.505317 
L 621.730519 286.343713 
L 622.183442 289.137475 
L 622.636364 288.115312 
L 622.636364 288.115312 
" style="fill:none;stroke:#ff7f0e;stroke-linecap:square;stroke-width:0.5;"/>
   </g>
   <g id="patch_3">
    <path d="M 90 315 
L 90 43.2 
" style="fill:none;stroke:#000000;stroke-linecap:square;stroke-linejoin:miter;stroke-width:0.8;"/>
   </g>
   <g id="patch_4">
    <path d="M 648 315 
L 648 43.2 
" style="fill:none;stroke:#000000;stroke-linecap:square;stroke-linejoin:miter;stroke-width:0.8;"/>
   </g>
   <g id="patch_5">
    <path d="M 90 315 
L 648 315 
" style="fill:none;stroke:#000000;stroke-linecap:square;stroke-linejoin:miter;stroke-width:0.8;"/>
   </g>
   <g id="patch_6">
    <path d="M 90 43.2 
L 648 43.2 
" style="fill:none;stroke:#000000;stroke-linecap:square;stroke-linejoin:miter;stroke-width:0.8;"/>
   </g>
   <g id="text_18">
    <!-- loss -->
    <g transform="translate(357.410625 37.2)scale(0.12 -0.12)">
     <use xlink:href="#DejaVuSans-108"/>
     <use x="27.783203" xlink:href="#DejaVuSans-111"/>
     <use x="88.964844" xlink:href="#DejaVuSans-115"/>
     <use x="141.064453" xlink:href="#DejaVuSans-115"/>
    </g>
   </g>
   <g id="legend_1">
    <g id="patch_7">
     <path d="M 568.846875 80.55625 
L 641 80.55625 
Q 643 80.55625 643 78.55625 
L 643 50.2 
Q 643 48.2 641 48.2 
L 568.846875 48.2 
Q 566.846875 48.2 566.846875 50.2 
L 566.846875 78.55625 
Q 566.846875 80.55625 568.846875 80.55625 
z
" style="fill:#ffffff;opacity:0.8;stroke:#cccccc;stroke-linejoin:miter;"/>
    </g>
    <g id="line2d_33">
     <path d="M 570.846875 56.298437 
L 590.846875 56.298437 
" style="fill:none;stroke:#1f77b4;stroke-linecap:square;stroke-width:0.5;"/>
    </g>
    <g id="line2d_34"/>
    <g id="text_19">
     <!-- train -->
     <defs>
      <path d="M 18.3125 70.21875 
L 18.3125 54.6875 
L 36.8125 54.6875 
L 36.8125 47.703125 
L 18.3125 47.703125 
L 18.3125 18.015625 
Q 18.3125 11.328125 20.140625 9.421875 
Q 21.96875 7.515625 27.59375 7.515625 
L 36.8125 7.515625 
L 36.8125 0 
L 27.59375 0 
Q 17.1875 0 13.234375 3.875 
Q 9.28125 7.765625 9.28125 18.015625 
L 9.28125 47.703125 
L 2.6875 47.703125 
L 2.6875 54.6875 
L 9.28125 54.6875 
L 9.28125 70.21875 
z
" id="DejaVuSans-116"/>
      <path d="M 41.109375 46.296875 
Q 39.59375 47.171875 37.8125 47.578125 
Q 36.03125 48 33.890625 48 
Q 26.265625 48 22.1875 43.046875 
Q 18.109375 38.09375 18.109375 28.8125 
L 18.109375 0 
L 9.078125 0 
L 9.078125 54.6875 
L 18.109375 54.6875 
L 18.109375 46.1875 
Q 20.953125 51.171875 25.484375 53.578125 
Q 30.03125 56 36.53125 56 
Q 37.453125 56 38.578125 55.875 
Q 39.703125 55.765625 41.0625 55.515625 
z
" id="DejaVuSans-114"/>
      <path d="M 34.28125 27.484375 
Q 23.390625 27.484375 19.1875 25 
Q 14.984375 22.515625 14.984375 16.5 
Q 14.984375 11.71875 18.140625 8.90625 
Q 21.296875 6.109375 26.703125 6.109375 
Q 34.1875 6.109375 38.703125 11.40625 
Q 43.21875 16.703125 43.21875 25.484375 
L 43.21875 27.484375 
z
M 52.203125 31.203125 
L 52.203125 0 
L 43.21875 0 
L 43.21875 8.296875 
Q 40.140625 3.328125 35.546875 0.953125 
Q 30.953125 -1.421875 24.3125 -1.421875 
Q 15.921875 -1.421875 10.953125 3.296875 
Q 6 8.015625 6 15.921875 
Q 6 25.140625 12.171875 29.828125 
Q 18.359375 34.515625 30.609375 34.515625 
L 43.21875 34.515625 
L 43.21875 35.40625 
Q 43.21875 41.609375 39.140625 45 
Q 35.0625 48.390625 27.6875 48.390625 
Q 23 48.390625 18.546875 47.265625 
Q 14.109375 46.140625 10.015625 43.890625 
L 10.015625 52.203125 
Q 14.9375 54.109375 19.578125 55.046875 
Q 24.21875 56 28.609375 56 
Q 40.484375 56 46.34375 49.84375 
Q 52.203125 43.703125 52.203125 31.203125 
z
" id="DejaVuSans-97"/>
      <path d="M 9.421875 54.6875 
L 18.40625 54.6875 
L 18.40625 0 
L 9.421875 0 
z
M 9.421875 75.984375 
L 18.40625 75.984375 
L 18.40625 64.59375 
L 9.421875 64.59375 
z
" id="DejaVuSans-105"/>
      <path d="M 54.890625 33.015625 
L 54.890625 0 
L 45.90625 0 
L 45.90625 32.71875 
Q 45.90625 40.484375 42.875 44.328125 
Q 39.84375 48.1875 33.796875 48.1875 
Q 26.515625 48.1875 22.3125 43.546875 
Q 18.109375 38.921875 18.109375 30.90625 
L 18.109375 0 
L 9.078125 0 
L 9.078125 54.6875 
L 18.109375 54.6875 
L 18.109375 46.1875 
Q 21.34375 51.125 25.703125 53.5625 
Q 30.078125 56 35.796875 56 
Q 45.21875 56 50.046875 50.171875 
Q 54.890625 44.34375 54.890625 33.015625 
z
" id="DejaVuSans-110"/>
     </defs>
     <g transform="translate(598.846875 59.798437)scale(0.1 -0.1)">
      <use xlink:href="#DejaVuSans-116"/>
      <use x="39.208984" xlink:href="#DejaVuSans-114"/>
      <use x="80.322266" xlink:href="#DejaVuSans-97"/>
      <use x="141.601562" xlink:href="#DejaVuSans-105"/>
      <use x="169.384766" xlink:href="#DejaVuSans-110"/>
     </g>
    </g>
    <g id="line2d_35">
     <path d="M 570.846875 70.976562 
L 590.846875 70.976562 
" style="fill:none;stroke:#ff7f0e;stroke-linecap:square;stroke-width:0.5;"/>
    </g>
    <g id="line2d_36"/>
    <g id="text_20">
     <!-- validate -->
     <defs>
      <path d="M 2.984375 54.6875 
L 12.5 54.6875 
L 29.59375 8.796875 
L 46.6875 54.6875 
L 56.203125 54.6875 
L 35.6875 0 
L 23.484375 0 
z
" id="DejaVuSans-118"/>
      <path d="M 45.40625 46.390625 
L 45.40625 75.984375 
L 54.390625 75.984375 
L 54.390625 0 
L 45.40625 0 
L 45.40625 8.203125 
Q 42.578125 3.328125 38.25 0.953125 
Q 33.9375 -1.421875 27.875 -1.421875 
Q 17.96875 -1.421875 11.734375 6.484375 
Q 5.515625 14.40625 5.515625 27.296875 
Q 5.515625 40.1875 11.734375 48.09375 
Q 17.96875 56 27.875 56 
Q 33.9375 56 38.25 53.625 
Q 42.578125 51.265625 45.40625 46.390625 
z
M 14.796875 27.296875 
Q 14.796875 17.390625 18.875 11.75 
Q 22.953125 6.109375 30.078125 6.109375 
Q 37.203125 6.109375 41.296875 11.75 
Q 45.40625 17.390625 45.40625 27.296875 
Q 45.40625 37.203125 41.296875 42.84375 
Q 37.203125 48.484375 30.078125 48.484375 
Q 22.953125 48.484375 18.875 42.84375 
Q 14.796875 37.203125 14.796875 27.296875 
z
" id="DejaVuSans-100"/>
     </defs>
     <g transform="translate(598.846875 74.476562)scale(0.1 -0.1)">
      <use xlink:href="#DejaVuSans-118"/>
      <use x="59.179688" xlink:href="#DejaVuSans-97"/>
      <use x="120.458984" xlink:href="#DejaVuSans-108"/>
      <use x="148.242188" xlink:href="#DejaVuSans-105"/>
      <use x="176.025391" xlink:href="#DejaVuSans-100"/>
      <use x="239.501953" xlink:href="#DejaVuSans-97"/>
      <use x="300.78125" xlink:href="#DejaVuSans-116"/>
      <use x="339.990234" xlink:href="#DejaVuSans-101"/>
     </g>
    </g>
   </g>
  </g>
 </g>
 <defs>
  <clipPath id="pf86fd4dc68">
   <rect height="271.8" width="558" x="90" y="43.2"/>
  </clipPath>
 </defs>
</svg>
