<?xml version="1.0" encoding="utf-8" standalone="no"?>
<!DOCTYPE svg PUBLIC "-//W3C//DTD SVG 1.1//EN"
  "http://www.w3.org/Graphics/SVG/1.1/DTD/svg11.dtd">
<!-- Created with matplotlib (https://matplotlib.org/) -->
<svg height="360pt" version="1.1" viewBox="0 0 720 360" width="720pt" xmlns="http://www.w3.org/2000/svg" xmlns:xlink="http://www.w3.org/1999/xlink">
 <defs>
  <style type="text/css">
*{stroke-linecap:butt;stroke-linejoin:round;}
  </style>
 </defs>
 <g id="figure_1">
  <g id="patch_1">
   <path d="M 0 360 
L 720 360 
L 720 0 
L 0 0 
z
" style="fill:#ffffff;"/>
  </g>
  <g id="axes_1">
   <g id="patch_2">
    <path d="M 90 315 
L 648 315 
L 648 43.2 
L 90 43.2 
z
" style="fill:#ffffff;"/>
   </g>
   <g id="matplotlib.axis_1">
    <g id="xtick_1">
     <g id="line2d_1">
      <path clip-path="url(#p7ff9d92f59)" d="M 115.363636 315 
L 115.363636 43.2 
" style="fill:none;stroke:#b0b0b0;stroke-linecap:square;stroke-width:0.8;"/>
     </g>
     <g id="line2d_2">
      <defs>
       <path d="M 0 0 
L 0 3.5 
" id="mb91b535f2e" style="stroke:#000000;stroke-width:0.8;"/>
      </defs>
      <g>
       <use style="stroke:#000000;stroke-width:0.8;" x="115.363636" xlink:href="#mb91b535f2e" y="315"/>
      </g>
     </g>
     <g id="text_1">
      <!-- 0 -->
      <defs>
       <path d="M 31.78125 66.40625 
Q 24.171875 66.40625 20.328125 58.90625 
Q 16.5 51.421875 16.5 36.375 
Q 16.5 21.390625 20.328125 13.890625 
Q 24.171875 6.390625 31.78125 6.390625 
Q 39.453125 6.390625 43.28125 13.890625 
Q 47.125 21.390625 47.125 36.375 
Q 47.125 51.421875 43.28125 58.90625 
Q 39.453125 66.40625 31.78125 66.40625 
z
M 31.78125 74.21875 
Q 44.046875 74.21875 50.515625 64.515625 
Q 56.984375 54.828125 56.984375 36.375 
Q 56.984375 17.96875 50.515625 8.265625 
Q 44.046875 -1.421875 31.78125 -1.421875 
Q 19.53125 -1.421875 13.0625 8.265625 
Q 6.59375 17.96875 6.59375 36.375 
Q 6.59375 54.828125 13.0625 64.515625 
Q 19.53125 74.21875 31.78125 74.21875 
z
" id="DejaVuSans-48"/>
      </defs>
      <g transform="translate(112.182386 329.598437)scale(0.1 -0.1)">
       <use xlink:href="#DejaVuSans-48"/>
      </g>
     </g>
    </g>
    <g id="xtick_2">
     <g id="line2d_3">
      <path clip-path="url(#p7ff9d92f59)" d="M 184.193043 315 
L 184.193043 43.2 
" style="fill:none;stroke:#b0b0b0;stroke-linecap:square;stroke-width:0.8;"/>
     </g>
     <g id="line2d_4">
      <g>
       <use style="stroke:#000000;stroke-width:0.8;" x="184.193043" xlink:href="#mb91b535f2e" y="315"/>
      </g>
     </g>
     <g id="text_2">
      <!-- 100 -->
      <defs>
       <path d="M 12.40625 8.296875 
L 28.515625 8.296875 
L 28.515625 63.921875 
L 10.984375 60.40625 
L 10.984375 69.390625 
L 28.421875 72.90625 
L 38.28125 72.90625 
L 38.28125 8.296875 
L 54.390625 8.296875 
L 54.390625 0 
L 12.40625 0 
z
" id="DejaVuSans-49"/>
      </defs>
      <g transform="translate(174.649293 329.598437)scale(0.1 -0.1)">
       <use xlink:href="#DejaVuSans-49"/>
       <use x="63.623047" xlink:href="#DejaVuSans-48"/>
       <use x="127.246094" xlink:href="#DejaVuSans-48"/>
      </g>
     </g>
    </g>
    <g id="xtick_3">
     <g id="line2d_5">
      <path clip-path="url(#p7ff9d92f59)" d="M 253.02245 315 
L 253.02245 43.2 
" style="fill:none;stroke:#b0b0b0;stroke-linecap:square;stroke-width:0.8;"/>
     </g>
     <g id="line2d_6">
      <g>
       <use style="stroke:#000000;stroke-width:0.8;" x="253.02245" xlink:href="#mb91b535f2e" y="315"/>
      </g>
     </g>
     <g id="text_3">
      <!-- 200 -->
      <defs>
       <path d="M 19.1875 8.296875 
L 53.609375 8.296875 
L 53.609375 0 
L 7.328125 0 
L 7.328125 8.296875 
Q 12.9375 14.109375 22.625 23.890625 
Q 32.328125 33.6875 34.8125 36.53125 
Q 39.546875 41.84375 41.421875 45.53125 
Q 43.3125 49.21875 43.3125 52.78125 
Q 43.3125 58.59375 39.234375 62.25 
Q 35.15625 65.921875 28.609375 65.921875 
Q 23.96875 65.921875 18.8125 64.3125 
Q 13.671875 62.703125 7.8125 59.421875 
L 7.8125 69.390625 
Q 13.765625 71.78125 18.9375 73 
Q 24.125 74.21875 28.421875 74.21875 
Q 39.75 74.21875 46.484375 68.546875 
Q 53.21875 62.890625 53.21875 53.421875 
Q 53.21875 48.921875 51.53125 44.890625 
Q 49.859375 40.875 45.40625 35.40625 
Q 44.1875 33.984375 37.640625 27.21875 
Q 31.109375 20.453125 19.1875 8.296875 
z
" id="DejaVuSans-50"/>
      </defs>
      <g transform="translate(243.4787 329.598437)scale(0.1 -0.1)">
       <use xlink:href="#DejaVuSans-50"/>
       <use x="63.623047" xlink:href="#DejaVuSans-48"/>
       <use x="127.246094" xlink:href="#DejaVuSans-48"/>
      </g>
     </g>
    </g>
    <g id="xtick_4">
     <g id="line2d_7">
      <path clip-path="url(#p7ff9d92f59)" d="M 321.851856 315 
L 321.851856 43.2 
" style="fill:none;stroke:#b0b0b0;stroke-linecap:square;stroke-width:0.8;"/>
     </g>
     <g id="line2d_8">
      <g>
       <use style="stroke:#000000;stroke-width:0.8;" x="321.851856" xlink:href="#mb91b535f2e" y="315"/>
      </g>
     </g>
     <g id="text_4">
      <!-- 300 -->
      <defs>
       <path d="M 40.578125 39.3125 
Q 47.65625 37.796875 51.625 33 
Q 55.609375 28.21875 55.609375 21.1875 
Q 55.609375 10.40625 48.1875 4.484375 
Q 40.765625 -1.421875 27.09375 -1.421875 
Q 22.515625 -1.421875 17.65625 -0.515625 
Q 12.796875 0.390625 7.625 2.203125 
L 7.625 11.71875 
Q 11.71875 9.328125 16.59375 8.109375 
Q 21.484375 6.890625 26.8125 6.890625 
Q 36.078125 6.890625 40.9375 10.546875 
Q 45.796875 14.203125 45.796875 21.1875 
Q 45.796875 27.640625 41.28125 31.265625 
Q 36.765625 34.90625 28.71875 34.90625 
L 20.21875 34.90625 
L 20.21875 43.015625 
L 29.109375 43.015625 
Q 36.375 43.015625 40.234375 45.921875 
Q 44.09375 48.828125 44.09375 54.296875 
Q 44.09375 59.90625 40.109375 62.90625 
Q 36.140625 65.921875 28.71875 65.921875 
Q 24.65625 65.921875 20.015625 65.03125 
Q 15.375 64.15625 9.8125 62.3125 
L 9.8125 71.09375 
Q 15.4375 72.65625 20.34375 73.4375 
Q 25.25 74.21875 29.59375 74.21875 
Q 40.828125 74.21875 47.359375 69.109375 
Q 53.90625 64.015625 53.90625 55.328125 
Q 53.90625 49.265625 50.4375 45.09375 
Q 46.96875 40.921875 40.578125 39.3125 
z
" id="DejaVuSans-51"/>
      </defs>
      <g transform="translate(312.308106 329.598437)scale(0.1 -0.1)">
       <use xlink:href="#DejaVuSans-51"/>
       <use x="63.623047" xlink:href="#DejaVuSans-48"/>
       <use x="127.246094" xlink:href="#DejaVuSans-48"/>
      </g>
     </g>
    </g>
    <g id="xtick_5">
     <g id="line2d_9">
      <path clip-path="url(#p7ff9d92f59)" d="M 390.681263 315 
L 390.681263 43.2 
" style="fill:none;stroke:#b0b0b0;stroke-linecap:square;stroke-width:0.8;"/>
     </g>
     <g id="line2d_10">
      <g>
       <use style="stroke:#000000;stroke-width:0.8;" x="390.681263" xlink:href="#mb91b535f2e" y="315"/>
      </g>
     </g>
     <g id="text_5">
      <!-- 400 -->
      <defs>
       <path d="M 37.796875 64.3125 
L 12.890625 25.390625 
L 37.796875 25.390625 
z
M 35.203125 72.90625 
L 47.609375 72.90625 
L 47.609375 25.390625 
L 58.015625 25.390625 
L 58.015625 17.1875 
L 47.609375 17.1875 
L 47.609375 0 
L 37.796875 0 
L 37.796875 17.1875 
L 4.890625 17.1875 
L 4.890625 26.703125 
z
" id="DejaVuSans-52"/>
      </defs>
      <g transform="translate(381.137513 329.598437)scale(0.1 -0.1)">
       <use xlink:href="#DejaVuSans-52"/>
       <use x="63.623047" xlink:href="#DejaVuSans-48"/>
       <use x="127.246094" xlink:href="#DejaVuSans-48"/>
      </g>
     </g>
    </g>
    <g id="xtick_6">
     <g id="line2d_11">
      <path clip-path="url(#p7ff9d92f59)" d="M 459.51067 315 
L 459.51067 43.2 
" style="fill:none;stroke:#b0b0b0;stroke-linecap:square;stroke-width:0.8;"/>
     </g>
     <g id="line2d_12">
      <g>
       <use style="stroke:#000000;stroke-width:0.8;" x="459.51067" xlink:href="#mb91b535f2e" y="315"/>
      </g>
     </g>
     <g id="text_6">
      <!-- 500 -->
      <defs>
       <path d="M 10.796875 72.90625 
L 49.515625 72.90625 
L 49.515625 64.59375 
L 19.828125 64.59375 
L 19.828125 46.734375 
Q 21.96875 47.46875 24.109375 47.828125 
Q 26.265625 48.1875 28.421875 48.1875 
Q 40.625 48.1875 47.75 41.5 
Q 54.890625 34.8125 54.890625 23.390625 
Q 54.890625 11.625 47.5625 5.09375 
Q 40.234375 -1.421875 26.90625 -1.421875 
Q 22.3125 -1.421875 17.546875 -0.640625 
Q 12.796875 0.140625 7.71875 1.703125 
L 7.71875 11.625 
Q 12.109375 9.234375 16.796875 8.0625 
Q 21.484375 6.890625 26.703125 6.890625 
Q 35.15625 6.890625 40.078125 11.328125 
Q 45.015625 15.765625 45.015625 23.390625 
Q 45.015625 31 40.078125 35.4375 
Q 35.15625 39.890625 26.703125 39.890625 
Q 22.75 39.890625 18.8125 39.015625 
Q 14.890625 38.140625 10.796875 36.28125 
z
" id="DejaVuSans-53"/>
      </defs>
      <g transform="translate(449.96692 329.598437)scale(0.1 -0.1)">
       <use xlink:href="#DejaVuSans-53"/>
       <use x="63.623047" xlink:href="#DejaVuSans-48"/>
       <use x="127.246094" xlink:href="#DejaVuSans-48"/>
      </g>
     </g>
    </g>
    <g id="xtick_7">
     <g id="line2d_13">
      <path clip-path="url(#p7ff9d92f59)" d="M 528.340076 315 
L 528.340076 43.2 
" style="fill:none;stroke:#b0b0b0;stroke-linecap:square;stroke-width:0.8;"/>
     </g>
     <g id="line2d_14">
      <g>
       <use style="stroke:#000000;stroke-width:0.8;" x="528.340076" xlink:href="#mb91b535f2e" y="315"/>
      </g>
     </g>
     <g id="text_7">
      <!-- 600 -->
      <defs>
       <path d="M 33.015625 40.375 
Q 26.375 40.375 22.484375 35.828125 
Q 18.609375 31.296875 18.609375 23.390625 
Q 18.609375 15.53125 22.484375 10.953125 
Q 26.375 6.390625 33.015625 6.390625 
Q 39.65625 6.390625 43.53125 10.953125 
Q 47.40625 15.53125 47.40625 23.390625 
Q 47.40625 31.296875 43.53125 35.828125 
Q 39.65625 40.375 33.015625 40.375 
z
M 52.59375 71.296875 
L 52.59375 62.3125 
Q 48.875 64.0625 45.09375 64.984375 
Q 41.3125 65.921875 37.59375 65.921875 
Q 27.828125 65.921875 22.671875 59.328125 
Q 17.53125 52.734375 16.796875 39.40625 
Q 19.671875 43.65625 24.015625 45.921875 
Q 28.375 48.1875 33.59375 48.1875 
Q 44.578125 48.1875 50.953125 41.515625 
Q 57.328125 34.859375 57.328125 23.390625 
Q 57.328125 12.15625 50.6875 5.359375 
Q 44.046875 -1.421875 33.015625 -1.421875 
Q 20.359375 -1.421875 13.671875 8.265625 
Q 6.984375 17.96875 6.984375 36.375 
Q 6.984375 53.65625 15.1875 63.9375 
Q 23.390625 74.21875 37.203125 74.21875 
Q 40.921875 74.21875 44.703125 73.484375 
Q 48.484375 72.75 52.59375 71.296875 
z
" id="DejaVuSans-54"/>
      </defs>
      <g transform="translate(518.796326 329.598437)scale(0.1 -0.1)">
       <use xlink:href="#DejaVuSans-54"/>
       <use x="63.623047" xlink:href="#DejaVuSans-48"/>
       <use x="127.246094" xlink:href="#DejaVuSans-48"/>
      </g>
     </g>
    </g>
    <g id="xtick_8">
     <g id="line2d_15">
      <path clip-path="url(#p7ff9d92f59)" d="M 597.169483 315 
L 597.169483 43.2 
" style="fill:none;stroke:#b0b0b0;stroke-linecap:square;stroke-width:0.8;"/>
     </g>
     <g id="line2d_16">
      <g>
       <use style="stroke:#000000;stroke-width:0.8;" x="597.169483" xlink:href="#mb91b535f2e" y="315"/>
      </g>
     </g>
     <g id="text_8">
      <!-- 700 -->
      <defs>
       <path d="M 8.203125 72.90625 
L 55.078125 72.90625 
L 55.078125 68.703125 
L 28.609375 0 
L 18.3125 0 
L 43.21875 64.59375 
L 8.203125 64.59375 
z
" id="DejaVuSans-55"/>
      </defs>
      <g transform="translate(587.625733 329.598437)scale(0.1 -0.1)">
       <use xlink:href="#DejaVuSans-55"/>
       <use x="63.623047" xlink:href="#DejaVuSans-48"/>
       <use x="127.246094" xlink:href="#DejaVuSans-48"/>
      </g>
     </g>
    </g>
    <g id="text_9">
     <!-- epoch -->
     <defs>
      <path d="M 56.203125 29.59375 
L 56.203125 25.203125 
L 14.890625 25.203125 
Q 15.484375 15.921875 20.484375 11.0625 
Q 25.484375 6.203125 34.421875 6.203125 
Q 39.59375 6.203125 44.453125 7.46875 
Q 49.3125 8.734375 54.109375 11.28125 
L 54.109375 2.78125 
Q 49.265625 0.734375 44.1875 -0.34375 
Q 39.109375 -1.421875 33.890625 -1.421875 
Q 20.796875 -1.421875 13.15625 6.1875 
Q 5.515625 13.8125 5.515625 26.8125 
Q 5.515625 40.234375 12.765625 48.109375 
Q 20.015625 56 32.328125 56 
Q 43.359375 56 49.78125 48.890625 
Q 56.203125 41.796875 56.203125 29.59375 
z
M 47.21875 32.234375 
Q 47.125 39.59375 43.09375 43.984375 
Q 39.0625 48.390625 32.421875 48.390625 
Q 24.90625 48.390625 20.390625 44.140625 
Q 15.875 39.890625 15.1875 32.171875 
z
" id="DejaVuSans-101"/>
      <path d="M 18.109375 8.203125 
L 18.109375 -20.796875 
L 9.078125 -20.796875 
L 9.078125 54.6875 
L 18.109375 54.6875 
L 18.109375 46.390625 
Q 20.953125 51.265625 25.265625 53.625 
Q 29.59375 56 35.59375 56 
Q 45.5625 56 51.78125 48.09375 
Q 58.015625 40.1875 58.015625 27.296875 
Q 58.015625 14.40625 51.78125 6.484375 
Q 45.5625 -1.421875 35.59375 -1.421875 
Q 29.59375 -1.421875 25.265625 0.953125 
Q 20.953125 3.328125 18.109375 8.203125 
z
M 48.6875 27.296875 
Q 48.6875 37.203125 44.609375 42.84375 
Q 40.53125 48.484375 33.40625 48.484375 
Q 26.265625 48.484375 22.1875 42.84375 
Q 18.109375 37.203125 18.109375 27.296875 
Q 18.109375 17.390625 22.1875 11.75 
Q 26.265625 6.109375 33.40625 6.109375 
Q 40.53125 6.109375 44.609375 11.75 
Q 48.6875 17.390625 48.6875 27.296875 
z
" id="DejaVuSans-112"/>
      <path d="M 30.609375 48.390625 
Q 23.390625 48.390625 19.1875 42.75 
Q 14.984375 37.109375 14.984375 27.296875 
Q 14.984375 17.484375 19.15625 11.84375 
Q 23.34375 6.203125 30.609375 6.203125 
Q 37.796875 6.203125 41.984375 11.859375 
Q 46.1875 17.53125 46.1875 27.296875 
Q 46.1875 37.015625 41.984375 42.703125 
Q 37.796875 48.390625 30.609375 48.390625 
z
M 30.609375 56 
Q 42.328125 56 49.015625 48.375 
Q 55.71875 40.765625 55.71875 27.296875 
Q 55.71875 13.875 49.015625 6.21875 
Q 42.328125 -1.421875 30.609375 -1.421875 
Q 18.84375 -1.421875 12.171875 6.21875 
Q 5.515625 13.875 5.515625 27.296875 
Q 5.515625 40.765625 12.171875 48.375 
Q 18.84375 56 30.609375 56 
z
" id="DejaVuSans-111"/>
      <path d="M 48.78125 52.59375 
L 48.78125 44.1875 
Q 44.96875 46.296875 41.140625 47.34375 
Q 37.3125 48.390625 33.40625 48.390625 
Q 24.65625 48.390625 19.8125 42.84375 
Q 14.984375 37.3125 14.984375 27.296875 
Q 14.984375 17.28125 19.8125 11.734375 
Q 24.65625 6.203125 33.40625 6.203125 
Q 37.3125 6.203125 41.140625 7.25 
Q 44.96875 8.296875 48.78125 10.40625 
L 48.78125 2.09375 
Q 45.015625 0.34375 40.984375 -0.53125 
Q 36.96875 -1.421875 32.421875 -1.421875 
Q 20.0625 -1.421875 12.78125 6.34375 
Q 5.515625 14.109375 5.515625 27.296875 
Q 5.515625 40.671875 12.859375 48.328125 
Q 20.21875 56 33.015625 56 
Q 37.15625 56 41.109375 55.140625 
Q 45.0625 54.296875 48.78125 52.59375 
z
" id="DejaVuSans-99"/>
      <path d="M 54.890625 33.015625 
L 54.890625 0 
L 45.90625 0 
L 45.90625 32.71875 
Q 45.90625 40.484375 42.875 44.328125 
Q 39.84375 48.1875 33.796875 48.1875 
Q 26.515625 48.1875 22.3125 43.546875 
Q 18.109375 38.921875 18.109375 30.90625 
L 18.109375 0 
L 9.078125 0 
L 9.078125 75.984375 
L 18.109375 75.984375 
L 18.109375 46.1875 
Q 21.34375 51.125 25.703125 53.5625 
Q 30.078125 56 35.796875 56 
Q 45.21875 56 50.046875 50.171875 
Q 54.890625 44.34375 54.890625 33.015625 
z
" id="DejaVuSans-104"/>
     </defs>
     <g transform="translate(353.771875 343.276563)scale(0.1 -0.1)">
      <use xlink:href="#DejaVuSans-101"/>
      <use x="61.523438" xlink:href="#DejaVuSans-112"/>
      <use x="125" xlink:href="#DejaVuSans-111"/>
      <use x="186.181641" xlink:href="#DejaVuSans-99"/>
      <use x="241.162109" xlink:href="#DejaVuSans-104"/>
     </g>
    </g>
   </g>
   <g id="matplotlib.axis_2">
    <g id="ytick_1">
     <g id="line2d_17">
      <path clip-path="url(#p7ff9d92f59)" d="M 90 285.706643 
L 648 285.706643 
" style="fill:none;stroke:#b0b0b0;stroke-linecap:square;stroke-width:0.8;"/>
     </g>
     <g id="line2d_18">
      <defs>
       <path d="M 0 0 
L -3.5 0 
" id="m96750ec355" style="stroke:#000000;stroke-width:0.8;"/>
      </defs>
      <g>
       <use style="stroke:#000000;stroke-width:0.8;" x="90" xlink:href="#m96750ec355" y="285.706643"/>
      </g>
     </g>
     <g id="text_10">
      <!-- 0.4 -->
      <defs>
       <path d="M 10.6875 12.40625 
L 21 12.40625 
L 21 0 
L 10.6875 0 
z
" id="DejaVuSans-46"/>
      </defs>
      <g transform="translate(67.096875 289.505861)scale(0.1 -0.1)">
       <use xlink:href="#DejaVuSans-48"/>
       <use x="63.623047" xlink:href="#DejaVuSans-46"/>
       <use x="95.410156" xlink:href="#DejaVuSans-52"/>
      </g>
     </g>
    </g>
    <g id="ytick_2">
     <g id="line2d_19">
      <path clip-path="url(#p7ff9d92f59)" d="M 90 246.210948 
L 648 246.210948 
" style="fill:none;stroke:#b0b0b0;stroke-linecap:square;stroke-width:0.8;"/>
     </g>
     <g id="line2d_20">
      <g>
       <use style="stroke:#000000;stroke-width:0.8;" x="90" xlink:href="#m96750ec355" y="246.210948"/>
      </g>
     </g>
     <g id="text_11">
      <!-- 0.6 -->
      <g transform="translate(67.096875 250.010167)scale(0.1 -0.1)">
       <use xlink:href="#DejaVuSans-48"/>
       <use x="63.623047" xlink:href="#DejaVuSans-46"/>
       <use x="95.410156" xlink:href="#DejaVuSans-54"/>
      </g>
     </g>
    </g>
    <g id="ytick_3">
     <g id="line2d_21">
      <path clip-path="url(#p7ff9d92f59)" d="M 90 206.715253 
L 648 206.715253 
" style="fill:none;stroke:#b0b0b0;stroke-linecap:square;stroke-width:0.8;"/>
     </g>
     <g id="line2d_22">
      <g>
       <use style="stroke:#000000;stroke-width:0.8;" x="90" xlink:href="#m96750ec355" y="206.715253"/>
      </g>
     </g>
     <g id="text_12">
      <!-- 0.8 -->
      <defs>
       <path d="M 31.78125 34.625 
Q 24.75 34.625 20.71875 30.859375 
Q 16.703125 27.09375 16.703125 20.515625 
Q 16.703125 13.921875 20.71875 10.15625 
Q 24.75 6.390625 31.78125 6.390625 
Q 38.8125 6.390625 42.859375 10.171875 
Q 46.921875 13.96875 46.921875 20.515625 
Q 46.921875 27.09375 42.890625 30.859375 
Q 38.875 34.625 31.78125 34.625 
z
M 21.921875 38.8125 
Q 15.578125 40.375 12.03125 44.71875 
Q 8.5 49.078125 8.5 55.328125 
Q 8.5 64.0625 14.71875 69.140625 
Q 20.953125 74.21875 31.78125 74.21875 
Q 42.671875 74.21875 48.875 69.140625 
Q 55.078125 64.0625 55.078125 55.328125 
Q 55.078125 49.078125 51.53125 44.71875 
Q 48 40.375 41.703125 38.8125 
Q 48.828125 37.15625 52.796875 32.3125 
Q 56.78125 27.484375 56.78125 20.515625 
Q 56.78125 9.90625 50.3125 4.234375 
Q 43.84375 -1.421875 31.78125 -1.421875 
Q 19.734375 -1.421875 13.25 4.234375 
Q 6.78125 9.90625 6.78125 20.515625 
Q 6.78125 27.484375 10.78125 32.3125 
Q 14.796875 37.15625 21.921875 38.8125 
z
M 18.3125 54.390625 
Q 18.3125 48.734375 21.84375 45.5625 
Q 25.390625 42.390625 31.78125 42.390625 
Q 38.140625 42.390625 41.71875 45.5625 
Q 45.3125 48.734375 45.3125 54.390625 
Q 45.3125 60.0625 41.71875 63.234375 
Q 38.140625 66.40625 31.78125 66.40625 
Q 25.390625 66.40625 21.84375 63.234375 
Q 18.3125 60.0625 18.3125 54.390625 
z
" id="DejaVuSans-56"/>
      </defs>
      <g transform="translate(67.096875 210.514472)scale(0.1 -0.1)">
       <use xlink:href="#DejaVuSans-48"/>
       <use x="63.623047" xlink:href="#DejaVuSans-46"/>
       <use x="95.410156" xlink:href="#DejaVuSans-56"/>
      </g>
     </g>
    </g>
    <g id="ytick_4">
     <g id="line2d_23">
      <path clip-path="url(#p7ff9d92f59)" d="M 90 167.219558 
L 648 167.219558 
" style="fill:none;stroke:#b0b0b0;stroke-linecap:square;stroke-width:0.8;"/>
     </g>
     <g id="line2d_24">
      <g>
       <use style="stroke:#000000;stroke-width:0.8;" x="90" xlink:href="#m96750ec355" y="167.219558"/>
      </g>
     </g>
     <g id="text_13">
      <!-- 1.0 -->
      <g transform="translate(67.096875 171.018777)scale(0.1 -0.1)">
       <use xlink:href="#DejaVuSans-49"/>
       <use x="63.623047" xlink:href="#DejaVuSans-46"/>
       <use x="95.410156" xlink:href="#DejaVuSans-48"/>
      </g>
     </g>
    </g>
    <g id="ytick_5">
     <g id="line2d_25">
      <path clip-path="url(#p7ff9d92f59)" d="M 90 127.723864 
L 648 127.723864 
" style="fill:none;stroke:#b0b0b0;stroke-linecap:square;stroke-width:0.8;"/>
     </g>
     <g id="line2d_26">
      <g>
       <use style="stroke:#000000;stroke-width:0.8;" x="90" xlink:href="#m96750ec355" y="127.723864"/>
      </g>
     </g>
     <g id="text_14">
      <!-- 1.2 -->
      <g transform="translate(67.096875 131.523082)scale(0.1 -0.1)">
       <use xlink:href="#DejaVuSans-49"/>
       <use x="63.623047" xlink:href="#DejaVuSans-46"/>
       <use x="95.410156" xlink:href="#DejaVuSans-50"/>
      </g>
     </g>
    </g>
    <g id="ytick_6">
     <g id="line2d_27">
      <path clip-path="url(#p7ff9d92f59)" d="M 90 88.228169 
L 648 88.228169 
" style="fill:none;stroke:#b0b0b0;stroke-linecap:square;stroke-width:0.8;"/>
     </g>
     <g id="line2d_28">
      <g>
       <use style="stroke:#000000;stroke-width:0.8;" x="90" xlink:href="#m96750ec355" y="88.228169"/>
      </g>
     </g>
     <g id="text_15">
      <!-- 1.4 -->
      <g transform="translate(67.096875 92.027388)scale(0.1 -0.1)">
       <use xlink:href="#DejaVuSans-49"/>
       <use x="63.623047" xlink:href="#DejaVuSans-46"/>
       <use x="95.410156" xlink:href="#DejaVuSans-52"/>
      </g>
     </g>
    </g>
    <g id="ytick_7">
     <g id="line2d_29">
      <path clip-path="url(#p7ff9d92f59)" d="M 90 48.732474 
L 648 48.732474 
" style="fill:none;stroke:#b0b0b0;stroke-linecap:square;stroke-width:0.8;"/>
     </g>
     <g id="line2d_30">
      <g>
       <use style="stroke:#000000;stroke-width:0.8;" x="90" xlink:href="#m96750ec355" y="48.732474"/>
      </g>
     </g>
     <g id="text_16">
      <!-- 1.6 -->
      <g transform="translate(67.096875 52.531693)scale(0.1 -0.1)">
       <use xlink:href="#DejaVuSans-49"/>
       <use x="63.623047" xlink:href="#DejaVuSans-46"/>
       <use x="95.410156" xlink:href="#DejaVuSans-54"/>
      </g>
     </g>
    </g>
    <g id="text_17">
     <!-- loss -->
     <defs>
      <path d="M 9.421875 75.984375 
L 18.40625 75.984375 
L 18.40625 0 
L 9.421875 0 
z
" id="DejaVuSans-108"/>
      <path d="M 44.28125 53.078125 
L 44.28125 44.578125 
Q 40.484375 46.53125 36.375 47.5 
Q 32.28125 48.484375 27.875 48.484375 
Q 21.1875 48.484375 17.84375 46.4375 
Q 14.5 44.390625 14.5 40.28125 
Q 14.5 37.15625 16.890625 35.375 
Q 19.28125 33.59375 26.515625 31.984375 
L 29.59375 31.296875 
Q 39.15625 29.25 43.1875 25.515625 
Q 47.21875 21.78125 47.21875 15.09375 
Q 47.21875 7.46875 41.1875 3.015625 
Q 35.15625 -1.421875 24.609375 -1.421875 
Q 20.21875 -1.421875 15.453125 -0.5625 
Q 10.6875 0.296875 5.421875 2 
L 5.421875 11.28125 
Q 10.40625 8.6875 15.234375 7.390625 
Q 20.0625 6.109375 24.8125 6.109375 
Q 31.15625 6.109375 34.5625 8.28125 
Q 37.984375 10.453125 37.984375 14.40625 
Q 37.984375 18.0625 35.515625 20.015625 
Q 33.0625 21.96875 24.703125 23.78125 
L 21.578125 24.515625 
Q 13.234375 26.265625 9.515625 29.90625 
Q 5.8125 33.546875 5.8125 39.890625 
Q 5.8125 47.609375 11.28125 51.796875 
Q 16.75 56 26.8125 56 
Q 31.78125 56 36.171875 55.265625 
Q 40.578125 54.546875 44.28125 53.078125 
z
" id="DejaVuSans-115"/>
     </defs>
     <g transform="translate(61.017187 188.757812)rotate(-90)scale(0.1 -0.1)">
      <use xlink:href="#DejaVuSans-108"/>
      <use x="27.783203" xlink:href="#DejaVuSans-111"/>
      <use x="88.964844" xlink:href="#DejaVuSans-115"/>
      <use x="141.064453" xlink:href="#DejaVuSans-115"/>
     </g>
    </g>
   </g>
   <g id="line2d_31">
    <path clip-path="url(#p7ff9d92f59)" d="M 115.363636 55.554545 
L 116.05193 71.297125 
L 116.740224 75.188096 
L 117.428519 80.57359 
L 118.116813 79.933558 
L 118.805107 82.707378 
L 119.493401 83.43195 
L 120.181695 86.721628 
L 120.869989 89.023447 
L 121.558283 85.519146 
L 122.246577 91.497797 
L 122.934871 91.461657 
L 123.623165 91.722389 
L 124.311459 94.735377 
L 124.999753 94.053712 
L 125.688047 95.145715 
L 126.376341 96.871276 
L 127.064636 98.972454 
L 128.441224 103.94051 
L 129.129518 104.466307 
L 129.817812 105.641008 
L 130.506106 107.678886 
L 131.1944 108.863786 
L 131.882694 113.245153 
L 132.570988 115.330071 
L 133.259282 115.968282 
L 133.947576 119.820067 
L 134.63587 122.886293 
L 135.324164 127.429602 
L 136.700752 132.70176 
L 137.389047 133.999017 
L 138.765635 140.986811 
L 139.453929 142.201311 
L 140.142223 144.969135 
L 140.830517 149.314243 
L 141.518811 149.106441 
L 142.207105 155.373686 
L 143.583693 159.765121 
L 144.271987 158.100955 
L 145.648575 166.55842 
L 146.336869 169.09209 
L 147.025163 168.965562 
L 147.713458 175.577382 
L 148.401752 178.465769 
L 149.090046 178.912371 
L 149.77834 177.937521 
L 150.466634 182.256133 
L 151.154928 182.809352 
L 151.843222 184.49693 
L 152.531516 184.533099 
L 153.21981 185.318458 
L 153.908104 189.668723 
L 154.596398 189.317313 
L 155.284692 191.810281 
L 155.972986 190.96349 
L 156.66128 194.160168 
L 157.349574 196.679493 
L 158.037869 200.390686 
L 158.726163 195.56894 
L 159.414457 200.369542 
L 160.102751 199.401228 
L 160.791045 202.408434 
L 161.479339 203.117352 
L 162.167633 206.065738 
L 162.855927 207.68534 
L 163.544221 206.613206 
L 164.232515 209.330548 
L 164.920809 209.433142 
L 165.609103 210.538698 
L 166.297397 210.621946 
L 166.985691 214.367903 
L 167.673985 213.841225 
L 168.36228 214.969929 
L 169.050574 217.516924 
L 169.738868 213.610154 
L 170.427162 216.992636 
L 171.115456 216.834321 
L 171.80375 220.59041 
L 172.492044 215.859972 
L 173.868632 219.958558 
L 174.556926 219.645491 
L 175.24522 218.630776 
L 175.933514 221.820976 
L 176.621808 220.806521 
L 177.310102 223.260508 
L 177.998396 224.002142 
L 178.686691 222.010603 
L 179.374985 223.724989 
L 180.063279 225.071018 
L 180.751573 226.812106 
L 181.439867 226.795845 
L 182.128161 225.946263 
L 182.816455 229.761041 
L 183.504749 227.771754 
L 184.193043 228.598257 
L 184.881337 228.45987 
L 185.569631 230.41603 
L 186.257925 232.79518 
L 186.946219 231.926789 
L 187.634513 232.937589 
L 188.322807 231.897494 
L 189.011102 231.335965 
L 189.699396 235.759132 
L 190.38769 233.165763 
L 191.075984 233.643346 
L 191.764278 233.015456 
L 192.452572 233.466503 
L 193.140866 236.606676 
L 193.82916 238.918716 
L 194.517454 239.319415 
L 195.894042 233.3695 
L 196.582336 235.260501 
L 197.27063 238.826595 
L 197.958924 237.142089 
L 198.647218 238.685837 
L 199.335513 238.860709 
L 200.023807 239.742267 
L 200.712101 237.040225 
L 201.400395 243.277898 
L 202.088689 239.249576 
L 202.776983 238.6535 
L 203.465277 242.608931 
L 204.153571 242.257557 
L 204.841865 243.490752 
L 205.530159 239.153821 
L 206.218453 242.352215 
L 206.906747 241.59041 
L 207.595041 241.084133 
L 208.283335 243.551162 
L 208.971629 243.898144 
L 209.659924 244.372526 
L 210.348218 243.816917 
L 211.036512 246.447556 
L 211.724806 243.349675 
L 213.101394 245.538692 
L 213.789688 245.201127 
L 214.477982 249.329571 
L 215.166276 247.062907 
L 216.542864 246.240235 
L 217.231158 249.902389 
L 217.919452 247.300965 
L 218.607746 246.501664 
L 219.29604 249.067497 
L 219.984335 249.831387 
L 220.672629 249.59742 
L 221.360923 248.434487 
L 222.049217 251.391605 
L 222.737511 250.219104 
L 223.425805 250.733775 
L 224.114099 251.711045 
L 224.802393 250.181799 
L 225.490687 248.151921 
L 226.178981 248.454801 
L 226.867275 252.24383 
L 227.555569 250.11547 
L 228.243863 250.655845 
L 228.932157 253.528146 
L 229.620451 249.707209 
L 230.99704 254.952335 
L 231.685334 253.076597 
L 232.373628 253.635641 
L 233.061922 255.53054 
L 233.750216 254.708988 
L 234.43851 252.021744 
L 235.126804 251.8398 
L 235.815098 256.761684 
L 236.503392 257.798693 
L 237.191686 255.99615 
L 237.87998 255.72765 
L 238.568274 255.167773 
L 239.256568 255.256902 
L 239.944862 259.047815 
L 240.633157 256.208125 
L 241.321451 256.261251 
L 242.009745 256.077881 
L 242.698039 255.526168 
L 243.386333 259.111706 
L 244.074627 259.039153 
L 244.762921 256.49001 
L 245.451215 256.066972 
L 246.139509 256.502947 
L 246.827803 260.919698 
L 247.516097 261.831242 
L 248.204391 257.900279 
L 248.892685 259.103451 
L 249.580979 255.352125 
L 250.269273 256.685795 
L 250.957568 259.956052 
L 251.645862 259.122107 
L 252.334156 257.019026 
L 253.02245 259.186423 
L 253.710744 259.610976 
L 254.399038 258.452528 
L 255.087332 259.458975 
L 255.775626 261.920582 
L 256.46392 256.981376 
L 257.152214 259.87778 
L 257.840508 262.128149 
L 258.528802 263.081658 
L 259.217096 259.741612 
L 259.90539 257.787152 
L 260.593684 263.577964 
L 261.281979 260.702396 
L 261.970273 262.472101 
L 262.658567 261.363096 
L 263.346861 262.491895 
L 264.035155 264.99603 
L 264.723449 262.410744 
L 265.411743 264.967692 
L 266.100037 258.832178 
L 266.788331 265.722448 
L 267.476625 262.962064 
L 268.164919 263.208098 
L 268.853213 266.935932 
L 269.541507 263.793023 
L 270.229801 265.901477 
L 270.918095 265.899922 
L 271.60639 264.864774 
L 272.982978 267.796595 
L 273.671272 263.950895 
L 274.359566 263.3293 
L 275.04786 265.784571 
L 275.736154 267.112136 
L 276.424448 264.400788 
L 277.112742 265.663864 
L 277.801036 265.866458 
L 278.48933 263.064449 
L 279.177624 265.728704 
L 279.865918 264.235037 
L 281.242506 267.799193 
L 281.930801 265.351553 
L 282.619095 266.726124 
L 283.307389 262.899314 
L 283.995683 267.152235 
L 284.683977 266.464404 
L 285.372271 266.174156 
L 286.060565 264.92387 
L 286.748859 268.698051 
L 287.437153 265.732379 
L 288.125447 265.721371 
L 289.502035 270.85266 
L 290.190329 268.671313 
L 290.878623 269.420177 
L 291.566917 267.111762 
L 292.255212 268.294418 
L 292.943506 264.584902 
L 293.6318 268.899794 
L 294.320094 267.293912 
L 295.008388 270.250529 
L 295.696682 268.458221 
L 296.384976 268.821186 
L 297.07327 268.648571 
L 297.761564 269.037479 
L 298.449858 271.62194 
L 299.138152 267.640781 
L 299.826446 268.180047 
L 300.51474 272.208303 
L 301.203034 272.276014 
L 301.891328 268.29721 
L 302.579623 269.600567 
L 303.267917 268.846754 
L 303.956211 271.75117 
L 304.644505 265.87905 
L 305.332799 271.936993 
L 306.021093 268.661993 
L 306.709387 268.874424 
L 307.397681 270.373187 
L 308.085975 272.471356 
L 308.774269 268.976316 
L 309.462563 270.795822 
L 310.150857 271.336483 
L 310.839151 269.801626 
L 311.527445 277.465791 
L 312.215739 274.425357 
L 312.904034 270.497864 
L 313.592328 272.859058 
L 314.280622 271.038922 
L 314.968916 270.571911 
L 315.65721 271.176353 
L 316.345504 272.201651 
L 317.033798 271.20957 
L 317.722092 270.425656 
L 318.410386 271.342286 
L 319.09868 271.829927 
L 319.786974 274.091931 
L 320.475268 273.528704 
L 321.163562 270.015011 
L 321.851856 272.489056 
L 322.54015 274.497908 
L 323.228445 271.084566 
L 323.916739 274.896297 
L 324.605033 274.127065 
L 325.293327 272.436984 
L 325.981621 274.036217 
L 326.669915 273.940032 
L 327.358209 272.686675 
L 328.046503 272.589209 
L 328.734797 272.853014 
L 329.423091 276.186947 
L 330.799679 274.144938 
L 331.487973 277.377579 
L 332.176267 272.134725 
L 332.864561 274.188195 
L 333.552856 272.572621 
L 334.24115 271.2554 
L 334.929444 273.728995 
L 335.617738 274.572176 
L 336.306032 276.132161 
L 336.994326 274.033136 
L 337.68262 275.136737 
L 338.370914 276.822163 
L 339.059208 277.605694 
L 339.747502 272.020342 
L 340.435796 277.307579 
L 341.12409 274.069687 
L 341.812384 277.221482 
L 342.500678 273.32118 
L 343.188972 275.581919 
L 343.877267 272.906667 
L 344.565561 274.415658 
L 345.253855 273.922763 
L 345.942149 278.79116 
L 346.630443 276.937707 
L 347.318737 281.247094 
L 348.007031 278.596951 
L 348.695325 274.657302 
L 349.383619 275.765528 
L 350.071913 278.649401 
L 350.760207 278.262 
L 351.448501 275.76662 
L 352.136795 277.973078 
L 352.825089 275.786275 
L 353.513383 279.126571 
L 354.201678 276.789429 
L 354.889972 277.401712 
L 355.578266 276.710356 
L 356.954854 279.34957 
L 357.643148 278.888796 
L 358.331442 276.833802 
L 359.019736 278.834159 
L 359.70803 276.598321 
L 360.396324 276.06483 
L 361.084618 279.190185 
L 362.461206 277.390412 
L 363.1495 275.830252 
L 363.837794 277.825234 
L 364.526089 279.014188 
L 365.214383 277.69441 
L 365.902677 278.892417 
L 366.590971 275.928338 
L 367.279265 278.439753 
L 367.967559 277.95421 
L 368.655853 277.661979 
L 369.344147 282.024555 
L 370.032441 278.458098 
L 370.720735 277.217049 
L 371.409029 281.903106 
L 372.097323 280.113058 
L 372.785617 282.405644 
L 373.473911 280.156736 
L 374.162206 281.465374 
L 374.8505 279.003199 
L 375.538794 284.099326 
L 376.227088 278.881 
L 376.915382 281.446919 
L 377.603676 277.228944 
L 378.29197 280.537313 
L 378.980264 277.073111 
L 379.668558 280.052022 
L 380.356852 280.62923 
L 381.045146 281.79491 
L 381.73344 280.544661 
L 382.421734 281.675839 
L 383.110028 280.967664 
L 383.798322 281.288255 
L 384.486617 279.695862 
L 385.174911 275.871988 
L 385.863205 279.68696 
L 386.551499 280.196094 
L 387.239793 282.547526 
L 387.928087 282.820037 
L 388.616381 282.122577 
L 389.304675 280.09511 
L 389.992969 278.81815 
L 390.681263 278.028918 
L 391.369557 282.866328 
L 392.057851 281.885601 
L 392.746145 283.652189 
L 393.434439 280.528784 
L 394.122733 281.327569 
L 394.811028 279.90037 
L 395.499322 282.986281 
L 396.187616 281.925722 
L 396.87591 281.701445 
L 397.564204 281.142882 
L 398.252498 282.165539 
L 398.940792 282.552404 
L 399.629086 284.548586 
L 400.31738 283.634755 
L 401.005674 283.195972 
L 401.693968 283.007929 
L 402.382262 281.01633 
L 403.070556 282.468581 
L 403.75885 284.234852 
L 405.135439 281.630345 
L 405.823733 285.579717 
L 406.512027 280.913247 
L 407.200321 280.295205 
L 407.888615 281.371198 
L 408.576909 280.896392 
L 409.265203 282.002351 
L 409.953497 284.685795 
L 410.641791 284.90806 
L 411.330085 283.264278 
L 412.018379 286.104127 
L 412.706673 285.793013 
L 413.394967 283.701082 
L 414.083261 285.469999 
L 414.771555 284.586603 
L 415.45985 284.470062 
L 416.148144 285.801044 
L 416.836438 285.208836 
L 417.524732 285.701906 
L 418.213026 283.830405 
L 418.90132 284.562825 
L 419.589614 286.745926 
L 420.277908 283.925449 
L 420.966202 289.016806 
L 421.654496 283.73418 
L 422.34279 284.261651 
L 423.031084 283.22707 
L 423.719378 283.281898 
L 424.407672 283.896975 
L 425.095966 285.564674 
L 425.784261 284.938459 
L 426.472555 285.656708 
L 427.160849 285.08227 
L 427.849143 287.608184 
L 428.537437 283.626219 
L 429.225731 285.187568 
L 429.914025 285.456492 
L 430.602319 282.151527 
L 431.290613 285.638198 
L 431.978907 286.497137 
L 432.667201 286.561584 
L 433.355495 284.96407 
L 434.043789 284.113449 
L 434.732083 287.712934 
L 435.420377 285.39957 
L 436.108672 285.018999 
L 436.796966 282.972997 
L 437.48526 285.499448 
L 438.173554 288.571467 
L 438.861848 285.588865 
L 439.550142 284.64731 
L 440.238436 287.427801 
L 440.92673 282.362154 
L 441.615024 284.465989 
L 442.303318 287.822889 
L 442.991612 285.293097 
L 443.679906 287.524273 
L 444.3682 287.006568 
L 445.056494 287.333011 
L 445.744788 286.217594 
L 446.433083 287.495809 
L 447.121377 289.289959 
L 447.809671 285.701642 
L 448.497965 287.114198 
L 449.186259 285.906299 
L 449.874553 288.781073 
L 450.562847 286.596322 
L 451.251141 284.962552 
L 451.939435 288.438195 
L 452.627729 287.320495 
L 453.316023 287.068241 
L 454.004317 287.197481 
L 454.692611 287.112203 
L 455.380905 286.404648 
L 456.069199 286.702426 
L 456.757494 285.78854 
L 457.445788 286.684501 
L 458.134082 287.999364 
L 459.51067 288.358586 
L 460.198964 286.411478 
L 460.887258 288.510785 
L 461.575552 291.205331 
L 462.263846 290.218791 
L 462.95214 287.817133 
L 463.640434 288.97758 
L 464.328728 289.321561 
L 465.017022 286.518216 
L 465.705316 289.601291 
L 466.39361 287.266564 
L 467.081905 289.925673 
L 467.770199 290.030199 
L 468.458493 286.911172 
L 469.146787 286.794817 
L 469.835081 288.470888 
L 470.523375 285.628559 
L 471.211669 287.402037 
L 471.899963 290.245638 
L 472.588257 288.902116 
L 473.276551 289.621264 
L 473.964845 284.596247 
L 474.653139 286.441513 
L 475.341433 291.954727 
L 476.029727 291.647046 
L 476.718021 288.49231 
L 477.406316 287.854996 
L 478.09461 291.821118 
L 478.782904 291.741333 
L 479.471198 289.293794 
L 480.159492 289.064024 
L 480.847786 290.000181 
L 481.53608 291.423676 
L 482.224374 291.561024 
L 482.912668 290.141231 
L 483.600962 287.265429 
L 484.289256 290.151033 
L 484.97755 289.154106 
L 485.665844 292.574843 
L 486.354138 291.022982 
L 487.042432 290.330418 
L 487.730727 289.142043 
L 488.419021 291.478176 
L 489.107315 289.930993 
L 489.795609 292.026142 
L 490.483903 288.114963 
L 491.172197 290.183762 
L 491.860491 289.631827 
L 492.548785 288.449321 
L 493.237079 287.867459 
L 493.925373 290.505434 
L 494.613667 288.409352 
L 495.301961 289.153706 
L 495.990255 291.178856 
L 496.678549 290.900288 
L 497.366843 292.422745 
L 498.055138 287.440745 
L 498.743432 287.09744 
L 499.431726 288.798336 
L 500.12002 291.170768 
L 500.808314 292.829266 
L 501.496608 290.774472 
L 502.184902 289.663541 
L 502.873196 288.997618 
L 503.56149 289.498783 
L 504.249784 288.363772 
L 504.938078 292.51044 
L 505.626372 291.830673 
L 506.314666 290.666395 
L 507.00296 292.387207 
L 507.691254 291.15254 
L 508.379549 290.337845 
L 509.067843 288.28077 
L 509.756137 292.759725 
L 510.444431 292.04505 
L 511.821019 294.120637 
L 512.509313 291.640408 
L 513.197607 292.942743 
L 513.885901 288.771267 
L 514.574195 291.060821 
L 515.262489 292.405535 
L 515.950783 290.962624 
L 516.639077 290.837448 
L 517.327371 290.936627 
L 518.015665 294.591829 
L 518.70396 295.396347 
L 520.080548 292.89173 
L 520.768842 289.859907 
L 521.457136 297.597993 
L 522.14543 294.122895 
L 522.833724 289.933857 
L 523.522018 293.160348 
L 524.210312 291.313213 
L 524.898606 293.210266 
L 525.5869 294.154567 
L 526.275194 294.163523 
L 526.963488 293.505313 
L 527.651782 293.539976 
L 529.028371 295.448031 
L 529.716665 292.382893 
L 530.404959 293.629516 
L 531.093253 293.362649 
L 531.781547 292.816528 
L 533.158135 293.266203 
L 533.846429 292.235469 
L 534.534723 291.72141 
L 535.223017 292.164139 
L 535.911311 293.281433 
L 536.599605 293.652804 
L 537.287899 292.200457 
L 537.976193 293.862193 
L 538.664487 295.114561 
L 539.352782 295.036144 
L 540.041076 292.254817 
L 540.72937 290.336118 
L 541.417664 291.707833 
L 542.105958 292.367678 
L 542.794252 290.720015 
L 544.17084 296.635242 
L 544.859134 293.035826 
L 545.547428 296.93928 
L 546.235722 293.899596 
L 546.924016 295.118166 
L 547.61231 294.388959 
L 548.300604 296.258745 
L 548.988898 294.308234 
L 549.677193 295.752878 
L 550.365487 293.138174 
L 551.053781 295.714402 
L 551.742075 293.191502 
L 552.430369 296.198232 
L 553.118663 296.352931 
L 553.806957 291.091646 
L 554.495251 292.320546 
L 555.183545 295.050657 
L 555.871839 295.799551 
L 556.560133 295.826994 
L 557.248427 294.271032 
L 557.936721 293.767271 
L 558.625015 292.346081 
L 559.313309 295.772346 
L 560.001604 297.234683 
L 560.689898 292.487504 
L 561.378192 296.336431 
L 562.066486 293.916572 
L 562.75478 293.422446 
L 563.443074 292.591298 
L 564.131368 295.323406 
L 564.819662 293.36802 
L 565.507956 296.246535 
L 566.19625 297.307821 
L 566.884544 296.659821 
L 567.572838 292.015079 
L 568.261132 292.499956 
L 568.949426 295.519082 
L 569.63772 293.799682 
L 570.326015 293.939041 
L 571.014309 294.460317 
L 571.702603 296.604923 
L 572.390897 294.975552 
L 573.079191 295.506257 
L 573.767485 293.733345 
L 574.455779 295.963596 
L 575.144073 297.061099 
L 575.832367 295.918014 
L 576.520661 293.150213 
L 577.208955 296.683037 
L 577.897249 296.769711 
L 578.585543 294.964099 
L 579.273837 297.341591 
L 579.962131 296.241121 
L 580.650426 295.564395 
L 581.33872 295.368625 
L 582.027014 292.104778 
L 582.715308 294.880988 
L 583.403602 294.754469 
L 584.091896 296.712824 
L 584.78019 295.48005 
L 585.468484 294.012788 
L 586.156778 296.956929 
L 586.845072 296.869675 
L 587.533366 296.145621 
L 588.22166 296.733123 
L 588.909954 299.857834 
L 589.598248 292.758886 
L 590.286542 296.410519 
L 590.974837 295.364675 
L 591.663131 295.531977 
L 592.351425 296.565075 
L 593.039719 296.620931 
L 593.728013 296.129901 
L 594.416307 296.850683 
L 595.104601 294.820306 
L 595.792895 295.684555 
L 596.481189 297.70365 
L 597.169483 296.067158 
L 597.857777 292.916374 
L 598.546071 298.124574 
L 599.234365 295.864474 
L 599.922659 295.269025 
L 600.610953 297.886053 
L 601.299248 293.722205 
L 601.987542 299.602042 
L 602.675836 297.512114 
L 603.36413 296.167999 
L 604.052424 296.871656 
L 604.740718 296.366802 
L 605.429012 293.807033 
L 606.117306 298.1564 
L 606.8056 296.521774 
L 607.493894 296.919128 
L 608.182188 294.247734 
L 608.870482 298.885789 
L 609.558776 297.898428 
L 610.24707 297.617725 
L 610.935364 298.850145 
L 611.623659 297.372544 
L 612.311953 298.478881 
L 613.000247 297.781417 
L 613.688541 297.590933 
L 614.376835 298.180267 
L 615.065129 297.587464 
L 615.753423 295.76686 
L 616.441717 301.55237 
L 617.130011 297.545696 
L 617.818305 296.945875 
L 618.506599 296.109547 
L 619.194893 296.937267 
L 619.883187 299.102705 
L 620.571481 296.889275 
L 621.259776 297.250286 
L 621.94807 296.753092 
L 622.636364 302.645455 
L 622.636364 302.645455 
" style="fill:none;stroke:#1f77b4;stroke-linecap:square;stroke-width:0.5;"/>
   </g>
   <g id="line2d_32">
    <path clip-path="url(#p7ff9d92f59)" d="M 115.363636 65.325026 
L 116.05193 72.366721 
L 116.740224 75.778533 
L 117.428519 79.942944 
L 118.116813 80.118466 
L 118.805107 84.00658 
L 119.493401 82.30726 
L 120.181695 87.251878 
L 120.869989 83.978063 
L 122.246577 86.951643 
L 122.934871 87.590357 
L 123.623165 89.76416 
L 124.311459 91.026065 
L 124.999753 91.469882 
L 125.688047 93.128603 
L 127.064636 94.9841 
L 127.75293 99.438798 
L 128.441224 100.870737 
L 129.129518 100.66896 
L 129.817812 102.159974 
L 130.506106 106.134993 
L 131.1944 108.937786 
L 131.882694 110.524314 
L 132.570988 110.564853 
L 133.259282 114.283517 
L 133.947576 115.683226 
L 134.63587 121.346169 
L 135.324164 124.173784 
L 136.012458 125.622229 
L 136.700752 127.340792 
L 137.389047 131.598381 
L 138.765635 137.702754 
L 139.453929 139.044593 
L 140.142223 140.692952 
L 141.518811 147.960507 
L 142.207105 148.641637 
L 142.895399 151.608945 
L 143.583693 155.878091 
L 144.271987 158.721746 
L 144.960281 158.36358 
L 145.648575 159.71 
L 146.336869 163.843846 
L 147.025163 166.952704 
L 147.713458 170.589915 
L 148.401752 168.396086 
L 149.090046 172.307835 
L 149.77834 174.801556 
L 150.466634 173.869821 
L 151.154928 178.272699 
L 151.843222 180.016549 
L 152.531516 180.211083 
L 153.908104 184.969786 
L 155.284692 186.983046 
L 155.972986 191.571158 
L 156.66128 189.03587 
L 158.037869 191.833801 
L 159.414457 195.732107 
L 160.102751 198.818731 
L 160.791045 197.010317 
L 161.479339 201.347601 
L 162.167633 201.898483 
L 162.855927 202.062535 
L 163.544221 203.146037 
L 164.232515 206.097192 
L 164.920809 203.662307 
L 165.609103 209.6761 
L 166.985691 206.015978 
L 167.673985 207.812588 
L 168.36228 210.722876 
L 169.050574 209.097495 
L 169.738868 210.08131 
L 170.427162 210.513125 
L 171.115456 212.542996 
L 171.80375 212.223084 
L 172.492044 213.071919 
L 173.180338 215.114784 
L 173.868632 215.320964 
L 174.556926 216.174392 
L 175.24522 216.722628 
L 175.933514 218.015696 
L 176.621808 216.914399 
L 177.310102 218.115603 
L 177.998396 221.089118 
L 178.686691 218.5761 
L 179.374985 221.884866 
L 180.063279 222.342281 
L 181.439867 226.215652 
L 182.128161 219.646152 
L 182.816455 227.645924 
L 183.504749 226.686584 
L 184.193043 224.184237 
L 184.881337 225.293054 
L 185.569631 225.476678 
L 186.257925 226.41932 
L 187.634513 227.928825 
L 188.322807 225.73141 
L 189.011102 228.642164 
L 189.699396 228.879527 
L 190.38769 231.912399 
L 191.075984 227.822833 
L 191.764278 231.158784 
L 192.452572 231.622675 
L 193.140866 233.05922 
L 193.82916 232.131738 
L 194.517454 234.460314 
L 195.205748 233.450353 
L 195.894042 235.736961 
L 197.27063 232.425605 
L 197.958924 236.497153 
L 198.647218 233.711913 
L 199.335513 237.055471 
L 200.023807 235.100313 
L 200.712101 235.320398 
L 201.400395 234.89181 
L 202.088689 239.104936 
L 202.776983 235.940077 
L 203.465277 236.868144 
L 204.153571 241.681116 
L 204.841865 239.318631 
L 205.530159 237.991419 
L 206.218453 238.996093 
L 206.906747 237.493033 
L 207.595041 239.879028 
L 208.283335 240.417029 
L 208.971629 238.851304 
L 209.659924 240.866883 
L 210.348218 240.528849 
L 211.724806 239.267168 
L 212.4131 241.060818 
L 213.101394 243.253352 
L 213.789688 242.674665 
L 214.477982 241.591522 
L 215.166276 243.665633 
L 215.85457 244.869571 
L 217.231158 246.179245 
L 217.919452 243.165132 
L 218.607746 243.040873 
L 219.29604 243.42941 
L 219.984335 243.43661 
L 220.672629 245.070281 
L 221.360923 243.999846 
L 222.049217 243.416932 
L 222.737511 247.138537 
L 223.425805 246.234056 
L 224.114099 248.148693 
L 224.802393 246.369882 
L 225.490687 245.712293 
L 226.178981 247.334337 
L 226.867275 248.0429 
L 227.555569 248.468461 
L 228.243863 246.881064 
L 228.932157 246.563537 
L 229.620451 245.435888 
L 230.308746 248.596596 
L 230.99704 247.833169 
L 231.685334 247.498187 
L 232.373628 247.810575 
L 233.061922 251.768208 
L 233.750216 248.92346 
L 234.43851 248.776929 
L 235.126804 249.446365 
L 235.815098 245.882521 
L 236.503392 250.499729 
L 237.191686 247.742194 
L 237.87998 250.727577 
L 238.568274 249.816946 
L 239.256568 250.071062 
L 239.944862 252.684681 
L 240.633157 251.890693 
L 241.321451 250.821739 
L 242.009745 251.401777 
L 242.698039 250.041732 
L 243.386333 252.938592 
L 244.074627 250.459473 
L 244.762921 252.40374 
L 245.451215 254.82261 
L 246.139509 251.905793 
L 246.827803 254.05255 
L 247.516097 254.337414 
L 248.204391 251.625529 
L 248.892685 252.289322 
L 249.580979 254.714883 
L 250.269273 255.0025 
L 250.957568 253.474612 
L 251.645862 253.065247 
L 252.334156 254.130884 
L 253.02245 253.80399 
L 253.710744 258.287186 
L 254.399038 253.957141 
L 255.087332 254.388621 
L 255.775626 251.352437 
L 256.46392 255.725152 
L 257.152214 255.143584 
L 257.840508 250.153084 
L 258.528802 254.742561 
L 259.217096 254.675061 
L 259.90539 254.465104 
L 260.593684 252.784086 
L 261.281979 253.63978 
L 261.970273 251.134865 
L 263.346861 257.279957 
L 264.035155 254.027858 
L 264.723449 255.82618 
L 265.411743 254.438284 
L 266.100037 258.721256 
L 266.788331 255.302363 
L 267.476625 257.716979 
L 268.164919 254.16805 
L 268.853213 254.667036 
L 269.541507 253.667548 
L 270.229801 260.353999 
L 270.918095 257.33878 
L 271.60639 258.632718 
L 272.294684 256.688966 
L 272.982978 259.465769 
L 273.671272 256.506221 
L 275.04786 260.68174 
L 275.736154 256.678118 
L 276.424448 254.4917 
L 277.112742 259.839872 
L 277.801036 260.723071 
L 278.48933 255.058656 
L 279.177624 257.250882 
L 280.554212 259.413616 
L 281.242506 259.087201 
L 281.930801 256.695293 
L 282.619095 255.115523 
L 283.307389 256.618856 
L 283.995683 258.531406 
L 284.683977 259.138246 
L 285.372271 257.561953 
L 286.060565 260.944931 
L 286.748859 258.433146 
L 287.437153 255.031372 
L 288.125447 256.36929 
L 288.813741 258.443764 
L 289.502035 260.024948 
L 290.190329 258.307741 
L 290.878623 257.61905 
L 291.566917 259.261154 
L 292.255212 259.545797 
L 292.943506 257.295425 
L 293.6318 259.794487 
L 294.320094 259.879553 
L 295.008388 258.752499 
L 295.696682 261.548739 
L 297.07327 258.045826 
L 297.761564 258.383294 
L 298.449858 260.340068 
L 299.138152 260.646933 
L 299.826446 257.326674 
L 300.51474 259.619962 
L 301.203034 261.304664 
L 301.891328 261.88722 
L 302.579623 264.339954 
L 303.267917 258.604785 
L 303.956211 253.961722 
L 304.644505 262.775634 
L 305.332799 263.378482 
L 306.021093 262.812953 
L 306.709387 261.340575 
L 307.397681 261.576698 
L 308.085975 257.109463 
L 308.774269 260.819663 
L 309.462563 262.019173 
L 310.150857 263.819042 
L 310.839151 262.106291 
L 311.527445 262.640253 
L 312.215739 260.956704 
L 312.904034 260.221178 
L 313.592328 260.880258 
L 314.280622 258.18727 
L 314.968916 263.223372 
L 315.65721 267.014571 
L 316.345504 261.762546 
L 317.033798 262.696431 
L 317.722092 260.812551 
L 318.410386 260.85379 
L 319.09868 262.895025 
L 319.786974 263.776821 
L 320.475268 261.011047 
L 321.163562 263.461872 
L 321.851856 261.764772 
L 322.54015 257.958856 
L 323.228445 262.440242 
L 323.916739 264.532863 
L 324.605033 261.715704 
L 325.293327 261.920113 
L 325.981621 262.624776 
L 326.669915 263.963266 
L 327.358209 262.559258 
L 328.734797 261.541113 
L 329.423091 259.775347 
L 330.111385 261.63664 
L 330.799679 261.909385 
L 331.487973 264.007608 
L 332.176267 261.080441 
L 332.864561 260.843051 
L 333.552856 261.625851 
L 334.24115 260.869293 
L 334.929444 265.489047 
L 335.617738 262.376 
L 336.306032 257.602149 
L 336.994326 261.083544 
L 337.68262 263.847954 
L 338.370914 262.903084 
L 339.059208 263.219594 
L 339.747502 264.062588 
L 340.435796 262.459325 
L 341.12409 261.760844 
L 341.812384 264.521489 
L 342.500678 259.923506 
L 343.188972 265.146431 
L 343.877267 265.092591 
L 344.565561 264.437579 
L 345.253855 265.423401 
L 345.942149 265.985479 
L 346.630443 261.63982 
L 347.318737 264.687994 
L 348.007031 265.12761 
L 348.695325 261.916141 
L 349.383619 264.245025 
L 350.071913 262.482961 
L 350.760207 263.931907 
L 351.448501 262.86986 
L 352.136795 262.973605 
L 352.825089 262.559167 
L 353.513383 264.425986 
L 354.201678 262.7261 
L 354.889972 267.788483 
L 355.578266 265.385965 
L 356.26656 265.341255 
L 356.954854 263.69135 
L 357.643148 262.901517 
L 358.331442 262.688164 
L 359.019736 260.325371 
L 359.70803 263.918328 
L 360.396324 262.711118 
L 361.084618 265.657074 
L 361.772912 265.328031 
L 362.461206 264.516188 
L 363.1495 264.788579 
L 363.837794 264.067206 
L 364.526089 266.135301 
L 365.214383 264.003617 
L 365.902677 263.342667 
L 366.590971 266.829985 
L 367.279265 263.088887 
L 367.967559 267.512873 
L 368.655853 263.705744 
L 369.344147 267.0392 
L 370.032441 263.869224 
L 370.720735 263.956484 
L 371.409029 265.467648 
L 372.097323 264.520003 
L 372.785617 266.472535 
L 373.473911 267.488283 
L 374.162206 265.616388 
L 374.8505 265.870863 
L 375.538794 266.462795 
L 376.227088 264.576132 
L 376.915382 266.97727 
L 377.603676 267.559207 
L 378.980264 264.622163 
L 379.668558 266.995246 
L 380.356852 264.608482 
L 381.045146 263.811276 
L 381.73344 263.788251 
L 382.421734 266.90825 
L 383.110028 265.401818 
L 383.798322 268.284629 
L 384.486617 264.89674 
L 385.174911 263.214079 
L 385.863205 266.424259 
L 386.551499 267.440928 
L 387.239793 266.788278 
L 387.928087 264.578715 
L 388.616381 265.621801 
L 389.304675 262.669982 
L 389.992969 261.085002 
L 390.681263 262.389964 
L 391.369557 267.316122 
L 392.057851 265.966507 
L 392.746145 262.976754 
L 393.434439 266.610853 
L 394.122733 265.935493 
L 394.811028 266.010851 
L 395.499322 266.562284 
L 396.187616 264.550781 
L 396.87591 264.048825 
L 397.564204 266.850903 
L 398.252498 264.449973 
L 398.940792 266.372439 
L 399.629086 265.539293 
L 400.31738 266.473774 
L 401.005674 269.325692 
L 402.382262 263.834782 
L 403.070556 267.666025 
L 403.75885 266.630175 
L 404.447144 264.505102 
L 405.135439 266.550269 
L 405.823733 263.944383 
L 406.512027 268.274648 
L 407.200321 263.973928 
L 408.576909 267.948292 
L 409.265203 265.720846 
L 409.953497 267.703562 
L 410.641791 266.779642 
L 411.330085 266.302638 
L 412.018379 264.609375 
L 412.706673 264.538471 
L 413.394967 268.864477 
L 414.083261 269.981865 
L 414.771555 268.01993 
L 415.45985 268.733949 
L 416.148144 268.293758 
L 416.836438 265.557583 
L 417.524732 269.097629 
L 418.213026 268.550243 
L 418.90132 267.043824 
L 419.589614 267.04812 
L 420.277908 268.521393 
L 420.966202 268.05896 
L 421.654496 264.900404 
L 422.34279 265.22762 
L 423.031084 265.194179 
L 423.719378 260.604277 
L 424.407672 266.480483 
L 425.095966 267.529585 
L 425.784261 267.634765 
L 426.472555 264.896063 
L 427.160849 270.964249 
L 427.849143 266.960006 
L 428.537437 267.820259 
L 429.225731 266.114033 
L 429.914025 267.282014 
L 430.602319 266.71666 
L 431.290613 266.904609 
L 431.978907 265.20304 
L 432.667201 269.353783 
L 433.355495 268.665647 
L 434.043789 262.876109 
L 434.732083 269.476174 
L 435.420377 269.305734 
L 436.108672 267.699673 
L 436.796966 270.325618 
L 437.48526 266.767312 
L 438.173554 269.837817 
L 438.861848 266.483089 
L 439.550142 264.53425 
L 440.238436 266.624911 
L 440.92673 264.960371 
L 441.615024 267.735075 
L 442.303318 268.759872 
L 442.991612 267.890625 
L 443.679906 270.24431 
L 444.3682 270.136019 
L 445.056494 265.916795 
L 445.744788 267.322202 
L 446.433083 269.060045 
L 447.121377 266.54629 
L 447.809671 268.840727 
L 448.497965 269.941353 
L 449.186259 266.608901 
L 449.874553 265.129429 
L 450.562847 268.921535 
L 451.251141 264.982447 
L 451.939435 262.454798 
L 452.627729 267.302557 
L 453.316023 266.817603 
L 454.004317 266.762022 
L 454.692611 267.254982 
L 455.380905 269.539295 
L 456.069199 269.179216 
L 456.757494 265.619263 
L 457.445788 266.400508 
L 458.134082 269.150892 
L 458.822376 265.837757 
L 459.51067 266.956465 
L 460.198964 267.612347 
L 460.887258 267.091413 
L 461.575552 270.697081 
L 462.263846 266.166235 
L 462.95214 267.904363 
L 463.640434 268.397459 
L 464.328728 268.238713 
L 465.017022 267.478416 
L 465.705316 269.746654 
L 466.39361 264.745849 
L 467.081905 262.92221 
L 467.770199 270.845365 
L 468.458493 262.916692 
L 469.146787 266.508764 
L 469.835081 266.845522 
L 470.523375 267.808647 
L 471.211669 265.493068 
L 471.899963 267.647901 
L 472.588257 267.691895 
L 473.276551 268.897466 
L 473.964845 268.719198 
L 474.653139 265.189663 
L 475.341433 266.753084 
L 476.029727 265.878566 
L 476.718021 265.716588 
L 477.406316 266.926573 
L 478.09461 266.975267 
L 478.782904 270.430265 
L 479.471198 267.351381 
L 480.159492 271.506403 
L 480.847786 265.674152 
L 482.224374 266.864131 
L 482.912668 266.406761 
L 483.600962 269.517497 
L 484.289256 270.113577 
L 484.97755 273.611837 
L 485.665844 267.191529 
L 486.354138 265.935576 
L 487.042432 265.759849 
L 487.730727 270.236995 
L 488.419021 266.781781 
L 489.107315 267.697818 
L 489.795609 267.664685 
L 490.483903 268.335779 
L 491.172197 267.350579 
L 491.860491 265.40646 
L 492.548785 267.710855 
L 493.237079 264.607769 
L 493.925373 264.799328 
L 494.613667 268.789871 
L 495.301961 268.65845 
L 495.990255 270.664179 
L 496.678549 267.021723 
L 497.366843 270.739961 
L 498.055138 268.000013 
L 498.743432 266.067647 
L 499.431726 265.490427 
L 500.808314 270.600294 
L 501.496608 266.159641 
L 502.184902 267.465859 
L 502.873196 269.290872 
L 503.56149 269.32015 
L 504.249784 267.025138 
L 504.938078 270.680817 
L 505.626372 268.441933 
L 506.314666 266.90424 
L 507.00296 269.903275 
L 507.691254 266.209881 
L 508.379549 267.199303 
L 509.067843 271.622058 
L 509.756137 266.234426 
L 510.444431 267.174823 
L 511.132725 265.311201 
L 511.821019 267.126211 
L 512.509313 268.506949 
L 513.197607 266.773324 
L 513.885901 266.774432 
L 514.574195 268.312645 
L 515.262489 269.01987 
L 515.950783 265.970712 
L 516.639077 268.560922 
L 517.327371 268.944377 
L 518.015665 267.228033 
L 518.70396 267.559948 
L 519.392254 265.519421 
L 520.080548 265.343938 
L 520.768842 265.656816 
L 521.457136 264.877329 
L 522.14543 268.26042 
L 522.833724 264.558048 
L 524.210312 268.92408 
L 524.898606 267.680678 
L 525.5869 267.521102 
L 526.275194 267.227876 
L 526.963488 265.88103 
L 527.651782 268.209594 
L 528.340076 265.054943 
L 529.028371 264.989808 
L 529.716665 268.574285 
L 530.404959 265.032073 
L 531.093253 266.322247 
L 531.781547 263.772788 
L 532.469841 270.57087 
L 533.158135 267.607405 
L 533.846429 268.89165 
L 534.534723 265.137395 
L 535.223017 266.775968 
L 535.911311 267.366972 
L 536.599605 268.500385 
L 537.287899 266.851869 
L 537.976193 266.832554 
L 538.664487 267.259417 
L 539.352782 266.129976 
L 540.041076 266.494472 
L 540.72937 268.089415 
L 541.417664 266.14575 
L 542.105958 267.449788 
L 542.794252 267.539595 
L 543.482546 265.669487 
L 544.17084 268.899278 
L 544.859134 265.274475 
L 546.235722 268.952827 
L 546.924016 266.465359 
L 547.61231 269.447955 
L 548.300604 269.123814 
L 549.677193 265.478418 
L 550.365487 266.317876 
L 551.053781 266.249062 
L 551.742075 269.612879 
L 552.430369 270.855895 
L 553.118663 268.431687 
L 553.806957 269.643887 
L 554.495251 265.259614 
L 555.183545 266.133234 
L 555.871839 267.679523 
L 556.560133 266.220819 
L 557.248427 266.485531 
L 557.936721 265.521399 
L 558.625015 268.551775 
L 559.313309 270.388676 
L 560.001604 265.659034 
L 560.689898 266.71794 
L 561.378192 268.334313 
L 562.066486 268.708561 
L 562.75478 268.600916 
L 563.443074 269.93237 
L 564.131368 264.635011 
L 564.819662 268.273202 
L 565.507956 267.076731 
L 566.19625 264.03825 
L 566.884544 265.201497 
L 567.572838 266.9538 
L 568.261132 270.265388 
L 568.949426 265.915069 
L 569.63772 271.299682 
L 570.326015 267.173996 
L 571.014309 266.959906 
L 571.702603 265.787297 
L 572.390897 265.188487 
L 573.079191 264.918755 
L 573.767485 266.963526 
L 574.455779 269.572318 
L 575.144073 265.438996 
L 575.832367 267.752892 
L 576.520661 268.415942 
L 577.208955 269.6796 
L 577.897249 267.215489 
L 578.585543 267.608587 
L 579.273837 266.882367 
L 579.962131 265.265714 
L 580.650426 267.738868 
L 581.33872 263.966557 
L 582.027014 263.622184 
L 582.715308 264.460809 
L 583.403602 264.667032 
L 584.091896 265.150839 
L 584.78019 266.82088 
L 585.468484 272.185387 
L 586.156778 265.65558 
L 586.845072 268.880763 
L 587.533366 263.302934 
L 588.22166 266.128213 
L 588.909954 266.804812 
L 589.598248 265.732221 
L 590.286542 269.71767 
L 590.974837 266.015674 
L 591.663131 268.712667 
L 592.351425 269.2101 
L 593.039719 268.19523 
L 593.728013 264.849503 
L 594.416307 265.894874 
L 595.104601 267.400893 
L 595.792895 266.791074 
L 596.481189 264.811584 
L 597.169483 267.71848 
L 597.857777 267.649876 
L 598.546071 265.391231 
L 599.234365 264.71326 
L 599.922659 265.856669 
L 601.987542 268.061093 
L 602.675836 267.435978 
L 603.36413 262.740297 
L 604.052424 266.052183 
L 604.740718 264.079851 
L 605.429012 266.771658 
L 606.117306 267.022582 
L 606.8056 266.764614 
L 607.493894 266.726248 
L 608.182188 265.71531 
L 608.870482 266.985217 
L 609.558776 270.402577 
L 610.24707 269.840822 
L 610.935364 268.51814 
L 611.623659 266.862643 
L 612.311953 268.429391 
L 613.000247 267.752264 
L 613.688541 264.322585 
L 614.376835 267.244931 
L 615.065129 265.956816 
L 615.753423 263.53776 
L 616.441717 266.763409 
L 617.130011 267.933362 
L 617.818305 264.811477 
L 618.506599 265.822081 
L 619.194893 264.343217 
L 619.883187 266.179084 
L 620.571481 266.161917 
L 621.259776 271.468831 
L 621.94807 265.618355 
L 622.636364 266.281708 
L 622.636364 266.281708 
" style="fill:none;stroke:#ff7f0e;stroke-linecap:square;stroke-width:0.5;"/>
   </g>
   <g id="patch_3">
    <path d="M 90 315 
L 90 43.2 
" style="fill:none;stroke:#000000;stroke-linecap:square;stroke-linejoin:miter;stroke-width:0.8;"/>
   </g>
   <g id="patch_4">
    <path d="M 648 315 
L 648 43.2 
" style="fill:none;stroke:#000000;stroke-linecap:square;stroke-linejoin:miter;stroke-width:0.8;"/>
   </g>
   <g id="patch_5">
    <path d="M 90 315 
L 648 315 
" style="fill:none;stroke:#000000;stroke-linecap:square;stroke-linejoin:miter;stroke-width:0.8;"/>
   </g>
   <g id="patch_6">
    <path d="M 90 43.2 
L 648 43.2 
" style="fill:none;stroke:#000000;stroke-linecap:square;stroke-linejoin:miter;stroke-width:0.8;"/>
   </g>
   <g id="text_18">
    <!-- loss -->
    <g transform="translate(357.410625 37.2)scale(0.12 -0.12)">
     <use xlink:href="#DejaVuSans-108"/>
     <use x="27.783203" xlink:href="#DejaVuSans-111"/>
     <use x="88.964844" xlink:href="#DejaVuSans-115"/>
     <use x="141.064453" xlink:href="#DejaVuSans-115"/>
    </g>
   </g>
   <g id="legend_1">
    <g id="patch_7">
     <path d="M 568.846875 80.55625 
L 641 80.55625 
Q 643 80.55625 643 78.55625 
L 643 50.2 
Q 643 48.2 641 48.2 
L 568.846875 48.2 
Q 566.846875 48.2 566.846875 50.2 
L 566.846875 78.55625 
Q 566.846875 80.55625 568.846875 80.55625 
z
" style="fill:#ffffff;opacity:0.8;stroke:#cccccc;stroke-linejoin:miter;"/>
    </g>
    <g id="line2d_33">
     <path d="M 570.846875 56.298437 
L 590.846875 56.298437 
" style="fill:none;stroke:#1f77b4;stroke-linecap:square;stroke-width:0.5;"/>
    </g>
    <g id="line2d_34"/>
    <g id="text_19">
     <!-- train -->
     <defs>
      <path d="M 18.3125 70.21875 
L 18.3125 54.6875 
L 36.8125 54.6875 
L 36.8125 47.703125 
L 18.3125 47.703125 
L 18.3125 18.015625 
Q 18.3125 11.328125 20.140625 9.421875 
Q 21.96875 7.515625 27.59375 7.515625 
L 36.8125 7.515625 
L 36.8125 0 
L 27.59375 0 
Q 17.1875 0 13.234375 3.875 
Q 9.28125 7.765625 9.28125 18.015625 
L 9.28125 47.703125 
L 2.6875 47.703125 
L 2.6875 54.6875 
L 9.28125 54.6875 
L 9.28125 70.21875 
z
" id="DejaVuSans-116"/>
      <path d="M 41.109375 46.296875 
Q 39.59375 47.171875 37.8125 47.578125 
Q 36.03125 48 33.890625 48 
Q 26.265625 48 22.1875 43.046875 
Q 18.109375 38.09375 18.109375 28.8125 
L 18.109375 0 
L 9.078125 0 
L 9.078125 54.6875 
L 18.109375 54.6875 
L 18.109375 46.1875 
Q 20.953125 51.171875 25.484375 53.578125 
Q 30.03125 56 36.53125 56 
Q 37.453125 56 38.578125 55.875 
Q 39.703125 55.765625 41.0625 55.515625 
z
" id="DejaVuSans-114"/>
      <path d="M 34.28125 27.484375 
Q 23.390625 27.484375 19.1875 25 
Q 14.984375 22.515625 14.984375 16.5 
Q 14.984375 11.71875 18.140625 8.90625 
Q 21.296875 6.109375 26.703125 6.109375 
Q 34.1875 6.109375 38.703125 11.40625 
Q 43.21875 16.703125 43.21875 25.484375 
L 43.21875 27.484375 
z
M 52.203125 31.203125 
L 52.203125 0 
L 43.21875 0 
L 43.21875 8.296875 
Q 40.140625 3.328125 35.546875 0.953125 
Q 30.953125 -1.421875 24.3125 -1.421875 
Q 15.921875 -1.421875 10.953125 3.296875 
Q 6 8.015625 6 15.921875 
Q 6 25.140625 12.171875 29.828125 
Q 18.359375 34.515625 30.609375 34.515625 
L 43.21875 34.515625 
L 43.21875 35.40625 
Q 43.21875 41.609375 39.140625 45 
Q 35.0625 48.390625 27.6875 48.390625 
Q 23 48.390625 18.546875 47.265625 
Q 14.109375 46.140625 10.015625 43.890625 
L 10.015625 52.203125 
Q 14.9375 54.109375 19.578125 55.046875 
Q 24.21875 56 28.609375 56 
Q 40.484375 56 46.34375 49.84375 
Q 52.203125 43.703125 52.203125 31.203125 
z
" id="DejaVuSans-97"/>
      <path d="M 9.421875 54.6875 
L 18.40625 54.6875 
L 18.40625 0 
L 9.421875 0 
z
M 9.421875 75.984375 
L 18.40625 75.984375 
L 18.40625 64.59375 
L 9.421875 64.59375 
z
" id="DejaVuSans-105"/>
      <path d="M 54.890625 33.015625 
L 54.890625 0 
L 45.90625 0 
L 45.90625 32.71875 
Q 45.90625 40.484375 42.875 44.328125 
Q 39.84375 48.1875 33.796875 48.1875 
Q 26.515625 48.1875 22.3125 43.546875 
Q 18.109375 38.921875 18.109375 30.90625 
L 18.109375 0 
L 9.078125 0 
L 9.078125 54.6875 
L 18.109375 54.6875 
L 18.109375 46.1875 
Q 21.34375 51.125 25.703125 53.5625 
Q 30.078125 56 35.796875 56 
Q 45.21875 56 50.046875 50.171875 
Q 54.890625 44.34375 54.890625 33.015625 
z
" id="DejaVuSans-110"/>
     </defs>
     <g transform="translate(598.846875 59.798437)scale(0.1 -0.1)">
      <use xlink:href="#DejaVuSans-116"/>
      <use x="39.208984" xlink:href="#DejaVuSans-114"/>
      <use x="80.322266" xlink:href="#DejaVuSans-97"/>
      <use x="141.601562" xlink:href="#DejaVuSans-105"/>
      <use x="169.384766" xlink:href="#DejaVuSans-110"/>
     </g>
    </g>
    <g id="line2d_35">
     <path d="M 570.846875 70.976562 
L 590.846875 70.976562 
" style="fill:none;stroke:#ff7f0e;stroke-linecap:square;stroke-width:0.5;"/>
    </g>
    <g id="line2d_36"/>
    <g id="text_20">
     <!-- validate -->
     <defs>
      <path d="M 2.984375 54.6875 
L 12.5 54.6875 
L 29.59375 8.796875 
L 46.6875 54.6875 
L 56.203125 54.6875 
L 35.6875 0 
L 23.484375 0 
z
" id="DejaVuSans-118"/>
      <path d="M 45.40625 46.390625 
L 45.40625 75.984375 
L 54.390625 75.984375 
L 54.390625 0 
L 45.40625 0 
L 45.40625 8.203125 
Q 42.578125 3.328125 38.25 0.953125 
Q 33.9375 -1.421875 27.875 -1.421875 
Q 17.96875 -1.421875 11.734375 6.484375 
Q 5.515625 14.40625 5.515625 27.296875 
Q 5.515625 40.1875 11.734375 48.09375 
Q 17.96875 56 27.875 56 
Q 33.9375 56 38.25 53.625 
Q 42.578125 51.265625 45.40625 46.390625 
z
M 14.796875 27.296875 
Q 14.796875 17.390625 18.875 11.75 
Q 22.953125 6.109375 30.078125 6.109375 
Q 37.203125 6.109375 41.296875 11.75 
Q 45.40625 17.390625 45.40625 27.296875 
Q 45.40625 37.203125 41.296875 42.84375 
Q 37.203125 48.484375 30.078125 48.484375 
Q 22.953125 48.484375 18.875 42.84375 
Q 14.796875 37.203125 14.796875 27.296875 
z
" id="DejaVuSans-100"/>
     </defs>
     <g transform="translate(598.846875 74.476562)scale(0.1 -0.1)">
      <use xlink:href="#DejaVuSans-118"/>
      <use x="59.179688" xlink:href="#DejaVuSans-97"/>
      <use x="120.458984" xlink:href="#DejaVuSans-108"/>
      <use x="148.242188" xlink:href="#DejaVuSans-105"/>
      <use x="176.025391" xlink:href="#DejaVuSans-100"/>
      <use x="239.501953" xlink:href="#DejaVuSans-97"/>
      <use x="300.78125" xlink:href="#DejaVuSans-116"/>
      <use x="339.990234" xlink:href="#DejaVuSans-101"/>
     </g>
    </g>
   </g>
  </g>
 </g>
 <defs>
  <clipPath id="p7ff9d92f59">
   <rect height="271.8" width="558" x="90" y="43.2"/>
  </clipPath>
 </defs>
</svg>
