<?xml version="1.0" encoding="utf-8" standalone="no"?>
<!DOCTYPE svg PUBLIC "-//W3C//DTD SVG 1.1//EN"
  "http://www.w3.org/Graphics/SVG/1.1/DTD/svg11.dtd">
<!-- Created with matplotlib (https://matplotlib.org/) -->
<svg height="360pt" version="1.1" viewBox="0 0 720 360" width="720pt" xmlns="http://www.w3.org/2000/svg" xmlns:xlink="http://www.w3.org/1999/xlink">
 <defs>
  <style type="text/css">
*{stroke-linecap:butt;stroke-linejoin:round;}
  </style>
 </defs>
 <g id="figure_1">
  <g id="patch_1">
   <path d="M 0 360 
L 720 360 
L 720 0 
L 0 0 
z
" style="fill:#ffffff;"/>
  </g>
  <g id="axes_1">
   <g id="patch_2">
    <path d="M 90 315 
L 648 315 
L 648 43.2 
L 90 43.2 
z
" style="fill:#ffffff;"/>
   </g>
   <g id="matplotlib.axis_1">
    <g id="xtick_1">
     <g id="line2d_1">
      <path clip-path="url(#pb4360aaff3)" d="M 115.363636 315 
L 115.363636 43.2 
" style="fill:none;stroke:#b0b0b0;stroke-linecap:square;stroke-width:0.8;"/>
     </g>
     <g id="line2d_2">
      <defs>
       <path d="M 0 0 
L 0 3.5 
" id="mf88049d347" style="stroke:#000000;stroke-width:0.8;"/>
      </defs>
      <g>
       <use style="stroke:#000000;stroke-width:0.8;" x="115.363636" xlink:href="#mf88049d347" y="315"/>
      </g>
     </g>
     <g id="text_1">
      <!-- 0 -->
      <defs>
       <path d="M 31.78125 66.40625 
Q 24.171875 66.40625 20.328125 58.90625 
Q 16.5 51.421875 16.5 36.375 
Q 16.5 21.390625 20.328125 13.890625 
Q 24.171875 6.390625 31.78125 6.390625 
Q 39.453125 6.390625 43.28125 13.890625 
Q 47.125 21.390625 47.125 36.375 
Q 47.125 51.421875 43.28125 58.90625 
Q 39.453125 66.40625 31.78125 66.40625 
z
M 31.78125 74.21875 
Q 44.046875 74.21875 50.515625 64.515625 
Q 56.984375 54.828125 56.984375 36.375 
Q 56.984375 17.96875 50.515625 8.265625 
Q 44.046875 -1.421875 31.78125 -1.421875 
Q 19.53125 -1.421875 13.0625 8.265625 
Q 6.59375 17.96875 6.59375 36.375 
Q 6.59375 54.828125 13.0625 64.515625 
Q 19.53125 74.21875 31.78125 74.21875 
z
" id="DejaVuSans-48"/>
      </defs>
      <g transform="translate(112.182386 329.598437)scale(0.1 -0.1)">
       <use xlink:href="#DejaVuSans-48"/>
      </g>
     </g>
    </g>
    <g id="xtick_2">
     <g id="line2d_3">
      <path clip-path="url(#pb4360aaff3)" d="M 230.784052 315 
L 230.784052 43.2 
" style="fill:none;stroke:#b0b0b0;stroke-linecap:square;stroke-width:0.8;"/>
     </g>
     <g id="line2d_4">
      <g>
       <use style="stroke:#000000;stroke-width:0.8;" x="230.784052" xlink:href="#mf88049d347" y="315"/>
      </g>
     </g>
     <g id="text_2">
      <!-- 200 -->
      <defs>
       <path d="M 19.1875 8.296875 
L 53.609375 8.296875 
L 53.609375 0 
L 7.328125 0 
L 7.328125 8.296875 
Q 12.9375 14.109375 22.625 23.890625 
Q 32.328125 33.6875 34.8125 36.53125 
Q 39.546875 41.84375 41.421875 45.53125 
Q 43.3125 49.21875 43.3125 52.78125 
Q 43.3125 58.59375 39.234375 62.25 
Q 35.15625 65.921875 28.609375 65.921875 
Q 23.96875 65.921875 18.8125 64.3125 
Q 13.671875 62.703125 7.8125 59.421875 
L 7.8125 69.390625 
Q 13.765625 71.78125 18.9375 73 
Q 24.125 74.21875 28.421875 74.21875 
Q 39.75 74.21875 46.484375 68.546875 
Q 53.21875 62.890625 53.21875 53.421875 
Q 53.21875 48.921875 51.53125 44.890625 
Q 49.859375 40.875 45.40625 35.40625 
Q 44.1875 33.984375 37.640625 27.21875 
Q 31.109375 20.453125 19.1875 8.296875 
z
" id="DejaVuSans-50"/>
      </defs>
      <g transform="translate(221.240302 329.598437)scale(0.1 -0.1)">
       <use xlink:href="#DejaVuSans-50"/>
       <use x="63.623047" xlink:href="#DejaVuSans-48"/>
       <use x="127.246094" xlink:href="#DejaVuSans-48"/>
      </g>
     </g>
    </g>
    <g id="xtick_3">
     <g id="line2d_5">
      <path clip-path="url(#pb4360aaff3)" d="M 346.204468 315 
L 346.204468 43.2 
" style="fill:none;stroke:#b0b0b0;stroke-linecap:square;stroke-width:0.8;"/>
     </g>
     <g id="line2d_6">
      <g>
       <use style="stroke:#000000;stroke-width:0.8;" x="346.204468" xlink:href="#mf88049d347" y="315"/>
      </g>
     </g>
     <g id="text_3">
      <!-- 400 -->
      <defs>
       <path d="M 37.796875 64.3125 
L 12.890625 25.390625 
L 37.796875 25.390625 
z
M 35.203125 72.90625 
L 47.609375 72.90625 
L 47.609375 25.390625 
L 58.015625 25.390625 
L 58.015625 17.1875 
L 47.609375 17.1875 
L 47.609375 0 
L 37.796875 0 
L 37.796875 17.1875 
L 4.890625 17.1875 
L 4.890625 26.703125 
z
" id="DejaVuSans-52"/>
      </defs>
      <g transform="translate(336.660718 329.598437)scale(0.1 -0.1)">
       <use xlink:href="#DejaVuSans-52"/>
       <use x="63.623047" xlink:href="#DejaVuSans-48"/>
       <use x="127.246094" xlink:href="#DejaVuSans-48"/>
      </g>
     </g>
    </g>
    <g id="xtick_4">
     <g id="line2d_7">
      <path clip-path="url(#pb4360aaff3)" d="M 461.624884 315 
L 461.624884 43.2 
" style="fill:none;stroke:#b0b0b0;stroke-linecap:square;stroke-width:0.8;"/>
     </g>
     <g id="line2d_8">
      <g>
       <use style="stroke:#000000;stroke-width:0.8;" x="461.624884" xlink:href="#mf88049d347" y="315"/>
      </g>
     </g>
     <g id="text_4">
      <!-- 600 -->
      <defs>
       <path d="M 33.015625 40.375 
Q 26.375 40.375 22.484375 35.828125 
Q 18.609375 31.296875 18.609375 23.390625 
Q 18.609375 15.53125 22.484375 10.953125 
Q 26.375 6.390625 33.015625 6.390625 
Q 39.65625 6.390625 43.53125 10.953125 
Q 47.40625 15.53125 47.40625 23.390625 
Q 47.40625 31.296875 43.53125 35.828125 
Q 39.65625 40.375 33.015625 40.375 
z
M 52.59375 71.296875 
L 52.59375 62.3125 
Q 48.875 64.0625 45.09375 64.984375 
Q 41.3125 65.921875 37.59375 65.921875 
Q 27.828125 65.921875 22.671875 59.328125 
Q 17.53125 52.734375 16.796875 39.40625 
Q 19.671875 43.65625 24.015625 45.921875 
Q 28.375 48.1875 33.59375 48.1875 
Q 44.578125 48.1875 50.953125 41.515625 
Q 57.328125 34.859375 57.328125 23.390625 
Q 57.328125 12.15625 50.6875 5.359375 
Q 44.046875 -1.421875 33.015625 -1.421875 
Q 20.359375 -1.421875 13.671875 8.265625 
Q 6.984375 17.96875 6.984375 36.375 
Q 6.984375 53.65625 15.1875 63.9375 
Q 23.390625 74.21875 37.203125 74.21875 
Q 40.921875 74.21875 44.703125 73.484375 
Q 48.484375 72.75 52.59375 71.296875 
z
" id="DejaVuSans-54"/>
      </defs>
      <g transform="translate(452.081134 329.598437)scale(0.1 -0.1)">
       <use xlink:href="#DejaVuSans-54"/>
       <use x="63.623047" xlink:href="#DejaVuSans-48"/>
       <use x="127.246094" xlink:href="#DejaVuSans-48"/>
      </g>
     </g>
    </g>
    <g id="xtick_5">
     <g id="line2d_9">
      <path clip-path="url(#pb4360aaff3)" d="M 577.045299 315 
L 577.045299 43.2 
" style="fill:none;stroke:#b0b0b0;stroke-linecap:square;stroke-width:0.8;"/>
     </g>
     <g id="line2d_10">
      <g>
       <use style="stroke:#000000;stroke-width:0.8;" x="577.045299" xlink:href="#mf88049d347" y="315"/>
      </g>
     </g>
     <g id="text_5">
      <!-- 800 -->
      <defs>
       <path d="M 31.78125 34.625 
Q 24.75 34.625 20.71875 30.859375 
Q 16.703125 27.09375 16.703125 20.515625 
Q 16.703125 13.921875 20.71875 10.15625 
Q 24.75 6.390625 31.78125 6.390625 
Q 38.8125 6.390625 42.859375 10.171875 
Q 46.921875 13.96875 46.921875 20.515625 
Q 46.921875 27.09375 42.890625 30.859375 
Q 38.875 34.625 31.78125 34.625 
z
M 21.921875 38.8125 
Q 15.578125 40.375 12.03125 44.71875 
Q 8.5 49.078125 8.5 55.328125 
Q 8.5 64.0625 14.71875 69.140625 
Q 20.953125 74.21875 31.78125 74.21875 
Q 42.671875 74.21875 48.875 69.140625 
Q 55.078125 64.0625 55.078125 55.328125 
Q 55.078125 49.078125 51.53125 44.71875 
Q 48 40.375 41.703125 38.8125 
Q 48.828125 37.15625 52.796875 32.3125 
Q 56.78125 27.484375 56.78125 20.515625 
Q 56.78125 9.90625 50.3125 4.234375 
Q 43.84375 -1.421875 31.78125 -1.421875 
Q 19.734375 -1.421875 13.25 4.234375 
Q 6.78125 9.90625 6.78125 20.515625 
Q 6.78125 27.484375 10.78125 32.3125 
Q 14.796875 37.15625 21.921875 38.8125 
z
M 18.3125 54.390625 
Q 18.3125 48.734375 21.84375 45.5625 
Q 25.390625 42.390625 31.78125 42.390625 
Q 38.140625 42.390625 41.71875 45.5625 
Q 45.3125 48.734375 45.3125 54.390625 
Q 45.3125 60.0625 41.71875 63.234375 
Q 38.140625 66.40625 31.78125 66.40625 
Q 25.390625 66.40625 21.84375 63.234375 
Q 18.3125 60.0625 18.3125 54.390625 
z
" id="DejaVuSans-56"/>
      </defs>
      <g transform="translate(567.501549 329.598437)scale(0.1 -0.1)">
       <use xlink:href="#DejaVuSans-56"/>
       <use x="63.623047" xlink:href="#DejaVuSans-48"/>
       <use x="127.246094" xlink:href="#DejaVuSans-48"/>
      </g>
     </g>
    </g>
    <g id="text_6">
     <!-- epoch -->
     <defs>
      <path d="M 56.203125 29.59375 
L 56.203125 25.203125 
L 14.890625 25.203125 
Q 15.484375 15.921875 20.484375 11.0625 
Q 25.484375 6.203125 34.421875 6.203125 
Q 39.59375 6.203125 44.453125 7.46875 
Q 49.3125 8.734375 54.109375 11.28125 
L 54.109375 2.78125 
Q 49.265625 0.734375 44.1875 -0.34375 
Q 39.109375 -1.421875 33.890625 -1.421875 
Q 20.796875 -1.421875 13.15625 6.1875 
Q 5.515625 13.8125 5.515625 26.8125 
Q 5.515625 40.234375 12.765625 48.109375 
Q 20.015625 56 32.328125 56 
Q 43.359375 56 49.78125 48.890625 
Q 56.203125 41.796875 56.203125 29.59375 
z
M 47.21875 32.234375 
Q 47.125 39.59375 43.09375 43.984375 
Q 39.0625 48.390625 32.421875 48.390625 
Q 24.90625 48.390625 20.390625 44.140625 
Q 15.875 39.890625 15.1875 32.171875 
z
" id="DejaVuSans-101"/>
      <path d="M 18.109375 8.203125 
L 18.109375 -20.796875 
L 9.078125 -20.796875 
L 9.078125 54.6875 
L 18.109375 54.6875 
L 18.109375 46.390625 
Q 20.953125 51.265625 25.265625 53.625 
Q 29.59375 56 35.59375 56 
Q 45.5625 56 51.78125 48.09375 
Q 58.015625 40.1875 58.015625 27.296875 
Q 58.015625 14.40625 51.78125 6.484375 
Q 45.5625 -1.421875 35.59375 -1.421875 
Q 29.59375 -1.421875 25.265625 0.953125 
Q 20.953125 3.328125 18.109375 8.203125 
z
M 48.6875 27.296875 
Q 48.6875 37.203125 44.609375 42.84375 
Q 40.53125 48.484375 33.40625 48.484375 
Q 26.265625 48.484375 22.1875 42.84375 
Q 18.109375 37.203125 18.109375 27.296875 
Q 18.109375 17.390625 22.1875 11.75 
Q 26.265625 6.109375 33.40625 6.109375 
Q 40.53125 6.109375 44.609375 11.75 
Q 48.6875 17.390625 48.6875 27.296875 
z
" id="DejaVuSans-112"/>
      <path d="M 30.609375 48.390625 
Q 23.390625 48.390625 19.1875 42.75 
Q 14.984375 37.109375 14.984375 27.296875 
Q 14.984375 17.484375 19.15625 11.84375 
Q 23.34375 6.203125 30.609375 6.203125 
Q 37.796875 6.203125 41.984375 11.859375 
Q 46.1875 17.53125 46.1875 27.296875 
Q 46.1875 37.015625 41.984375 42.703125 
Q 37.796875 48.390625 30.609375 48.390625 
z
M 30.609375 56 
Q 42.328125 56 49.015625 48.375 
Q 55.71875 40.765625 55.71875 27.296875 
Q 55.71875 13.875 49.015625 6.21875 
Q 42.328125 -1.421875 30.609375 -1.421875 
Q 18.84375 -1.421875 12.171875 6.21875 
Q 5.515625 13.875 5.515625 27.296875 
Q 5.515625 40.765625 12.171875 48.375 
Q 18.84375 56 30.609375 56 
z
" id="DejaVuSans-111"/>
      <path d="M 48.78125 52.59375 
L 48.78125 44.1875 
Q 44.96875 46.296875 41.140625 47.34375 
Q 37.3125 48.390625 33.40625 48.390625 
Q 24.65625 48.390625 19.8125 42.84375 
Q 14.984375 37.3125 14.984375 27.296875 
Q 14.984375 17.28125 19.8125 11.734375 
Q 24.65625 6.203125 33.40625 6.203125 
Q 37.3125 6.203125 41.140625 7.25 
Q 44.96875 8.296875 48.78125 10.40625 
L 48.78125 2.09375 
Q 45.015625 0.34375 40.984375 -0.53125 
Q 36.96875 -1.421875 32.421875 -1.421875 
Q 20.0625 -1.421875 12.78125 6.34375 
Q 5.515625 14.109375 5.515625 27.296875 
Q 5.515625 40.671875 12.859375 48.328125 
Q 20.21875 56 33.015625 56 
Q 37.15625 56 41.109375 55.140625 
Q 45.0625 54.296875 48.78125 52.59375 
z
" id="DejaVuSans-99"/>
      <path d="M 54.890625 33.015625 
L 54.890625 0 
L 45.90625 0 
L 45.90625 32.71875 
Q 45.90625 40.484375 42.875 44.328125 
Q 39.84375 48.1875 33.796875 48.1875 
Q 26.515625 48.1875 22.3125 43.546875 
Q 18.109375 38.921875 18.109375 30.90625 
L 18.109375 0 
L 9.078125 0 
L 9.078125 75.984375 
L 18.109375 75.984375 
L 18.109375 46.1875 
Q 21.34375 51.125 25.703125 53.5625 
Q 30.078125 56 35.796875 56 
Q 45.21875 56 50.046875 50.171875 
Q 54.890625 44.34375 54.890625 33.015625 
z
" id="DejaVuSans-104"/>
     </defs>
     <g transform="translate(353.771875 343.276563)scale(0.1 -0.1)">
      <use xlink:href="#DejaVuSans-101"/>
      <use x="61.523438" xlink:href="#DejaVuSans-112"/>
      <use x="125" xlink:href="#DejaVuSans-111"/>
      <use x="186.181641" xlink:href="#DejaVuSans-99"/>
      <use x="241.162109" xlink:href="#DejaVuSans-104"/>
     </g>
    </g>
   </g>
   <g id="matplotlib.axis_2">
    <g id="ytick_1">
     <g id="line2d_11">
      <path clip-path="url(#pb4360aaff3)" d="M 90 281.100214 
L 648 281.100214 
" style="fill:none;stroke:#b0b0b0;stroke-linecap:square;stroke-width:0.8;"/>
     </g>
     <g id="line2d_12">
      <defs>
       <path d="M 0 0 
L -3.5 0 
" id="m99665cc782" style="stroke:#000000;stroke-width:0.8;"/>
      </defs>
      <g>
       <use style="stroke:#000000;stroke-width:0.8;" x="90" xlink:href="#m99665cc782" y="281.100214"/>
      </g>
     </g>
     <g id="text_7">
      <!-- 0.3 -->
      <defs>
       <path d="M 10.6875 12.40625 
L 21 12.40625 
L 21 0 
L 10.6875 0 
z
" id="DejaVuSans-46"/>
       <path d="M 40.578125 39.3125 
Q 47.65625 37.796875 51.625 33 
Q 55.609375 28.21875 55.609375 21.1875 
Q 55.609375 10.40625 48.1875 4.484375 
Q 40.765625 -1.421875 27.09375 -1.421875 
Q 22.515625 -1.421875 17.65625 -0.515625 
Q 12.796875 0.390625 7.625 2.203125 
L 7.625 11.71875 
Q 11.71875 9.328125 16.59375 8.109375 
Q 21.484375 6.890625 26.8125 6.890625 
Q 36.078125 6.890625 40.9375 10.546875 
Q 45.796875 14.203125 45.796875 21.1875 
Q 45.796875 27.640625 41.28125 31.265625 
Q 36.765625 34.90625 28.71875 34.90625 
L 20.21875 34.90625 
L 20.21875 43.015625 
L 29.109375 43.015625 
Q 36.375 43.015625 40.234375 45.921875 
Q 44.09375 48.828125 44.09375 54.296875 
Q 44.09375 59.90625 40.109375 62.90625 
Q 36.140625 65.921875 28.71875 65.921875 
Q 24.65625 65.921875 20.015625 65.03125 
Q 15.375 64.15625 9.8125 62.3125 
L 9.8125 71.09375 
Q 15.4375 72.65625 20.34375 73.4375 
Q 25.25 74.21875 29.59375 74.21875 
Q 40.828125 74.21875 47.359375 69.109375 
Q 53.90625 64.015625 53.90625 55.328125 
Q 53.90625 49.265625 50.4375 45.09375 
Q 46.96875 40.921875 40.578125 39.3125 
z
" id="DejaVuSans-51"/>
      </defs>
      <g transform="translate(67.096875 284.899433)scale(0.1 -0.1)">
       <use xlink:href="#DejaVuSans-48"/>
       <use x="63.623047" xlink:href="#DejaVuSans-46"/>
       <use x="95.410156" xlink:href="#DejaVuSans-51"/>
      </g>
     </g>
    </g>
    <g id="ytick_2">
     <g id="line2d_13">
      <path clip-path="url(#pb4360aaff3)" d="M 90 242.279961 
L 648 242.279961 
" style="fill:none;stroke:#b0b0b0;stroke-linecap:square;stroke-width:0.8;"/>
     </g>
     <g id="line2d_14">
      <g>
       <use style="stroke:#000000;stroke-width:0.8;" x="90" xlink:href="#m99665cc782" y="242.279961"/>
      </g>
     </g>
     <g id="text_8">
      <!-- 0.4 -->
      <g transform="translate(67.096875 246.07918)scale(0.1 -0.1)">
       <use xlink:href="#DejaVuSans-48"/>
       <use x="63.623047" xlink:href="#DejaVuSans-46"/>
       <use x="95.410156" xlink:href="#DejaVuSans-52"/>
      </g>
     </g>
    </g>
    <g id="ytick_3">
     <g id="line2d_15">
      <path clip-path="url(#pb4360aaff3)" d="M 90 203.459709 
L 648 203.459709 
" style="fill:none;stroke:#b0b0b0;stroke-linecap:square;stroke-width:0.8;"/>
     </g>
     <g id="line2d_16">
      <g>
       <use style="stroke:#000000;stroke-width:0.8;" x="90" xlink:href="#m99665cc782" y="203.459709"/>
      </g>
     </g>
     <g id="text_9">
      <!-- 0.5 -->
      <defs>
       <path d="M 10.796875 72.90625 
L 49.515625 72.90625 
L 49.515625 64.59375 
L 19.828125 64.59375 
L 19.828125 46.734375 
Q 21.96875 47.46875 24.109375 47.828125 
Q 26.265625 48.1875 28.421875 48.1875 
Q 40.625 48.1875 47.75 41.5 
Q 54.890625 34.8125 54.890625 23.390625 
Q 54.890625 11.625 47.5625 5.09375 
Q 40.234375 -1.421875 26.90625 -1.421875 
Q 22.3125 -1.421875 17.546875 -0.640625 
Q 12.796875 0.140625 7.71875 1.703125 
L 7.71875 11.625 
Q 12.109375 9.234375 16.796875 8.0625 
Q 21.484375 6.890625 26.703125 6.890625 
Q 35.15625 6.890625 40.078125 11.328125 
Q 45.015625 15.765625 45.015625 23.390625 
Q 45.015625 31 40.078125 35.4375 
Q 35.15625 39.890625 26.703125 39.890625 
Q 22.75 39.890625 18.8125 39.015625 
Q 14.890625 38.140625 10.796875 36.28125 
z
" id="DejaVuSans-53"/>
      </defs>
      <g transform="translate(67.096875 207.258927)scale(0.1 -0.1)">
       <use xlink:href="#DejaVuSans-48"/>
       <use x="63.623047" xlink:href="#DejaVuSans-46"/>
       <use x="95.410156" xlink:href="#DejaVuSans-53"/>
      </g>
     </g>
    </g>
    <g id="ytick_4">
     <g id="line2d_17">
      <path clip-path="url(#pb4360aaff3)" d="M 90 164.639456 
L 648 164.639456 
" style="fill:none;stroke:#b0b0b0;stroke-linecap:square;stroke-width:0.8;"/>
     </g>
     <g id="line2d_18">
      <g>
       <use style="stroke:#000000;stroke-width:0.8;" x="90" xlink:href="#m99665cc782" y="164.639456"/>
      </g>
     </g>
     <g id="text_10">
      <!-- 0.6 -->
      <g transform="translate(67.096875 168.438675)scale(0.1 -0.1)">
       <use xlink:href="#DejaVuSans-48"/>
       <use x="63.623047" xlink:href="#DejaVuSans-46"/>
       <use x="95.410156" xlink:href="#DejaVuSans-54"/>
      </g>
     </g>
    </g>
    <g id="ytick_5">
     <g id="line2d_19">
      <path clip-path="url(#pb4360aaff3)" d="M 90 125.819203 
L 648 125.819203 
" style="fill:none;stroke:#b0b0b0;stroke-linecap:square;stroke-width:0.8;"/>
     </g>
     <g id="line2d_20">
      <g>
       <use style="stroke:#000000;stroke-width:0.8;" x="90" xlink:href="#m99665cc782" y="125.819203"/>
      </g>
     </g>
     <g id="text_11">
      <!-- 0.7 -->
      <defs>
       <path d="M 8.203125 72.90625 
L 55.078125 72.90625 
L 55.078125 68.703125 
L 28.609375 0 
L 18.3125 0 
L 43.21875 64.59375 
L 8.203125 64.59375 
z
" id="DejaVuSans-55"/>
      </defs>
      <g transform="translate(67.096875 129.618422)scale(0.1 -0.1)">
       <use xlink:href="#DejaVuSans-48"/>
       <use x="63.623047" xlink:href="#DejaVuSans-46"/>
       <use x="95.410156" xlink:href="#DejaVuSans-55"/>
      </g>
     </g>
    </g>
    <g id="ytick_6">
     <g id="line2d_21">
      <path clip-path="url(#pb4360aaff3)" d="M 90 86.99895 
L 648 86.99895 
" style="fill:none;stroke:#b0b0b0;stroke-linecap:square;stroke-width:0.8;"/>
     </g>
     <g id="line2d_22">
      <g>
       <use style="stroke:#000000;stroke-width:0.8;" x="90" xlink:href="#m99665cc782" y="86.99895"/>
      </g>
     </g>
     <g id="text_12">
      <!-- 0.8 -->
      <g transform="translate(67.096875 90.798169)scale(0.1 -0.1)">
       <use xlink:href="#DejaVuSans-48"/>
       <use x="63.623047" xlink:href="#DejaVuSans-46"/>
       <use x="95.410156" xlink:href="#DejaVuSans-56"/>
      </g>
     </g>
    </g>
    <g id="ytick_7">
     <g id="line2d_23">
      <path clip-path="url(#pb4360aaff3)" d="M 90 48.178697 
L 648 48.178697 
" style="fill:none;stroke:#b0b0b0;stroke-linecap:square;stroke-width:0.8;"/>
     </g>
     <g id="line2d_24">
      <g>
       <use style="stroke:#000000;stroke-width:0.8;" x="90" xlink:href="#m99665cc782" y="48.178697"/>
      </g>
     </g>
     <g id="text_13">
      <!-- 0.9 -->
      <defs>
       <path d="M 10.984375 1.515625 
L 10.984375 10.5 
Q 14.703125 8.734375 18.5 7.8125 
Q 22.3125 6.890625 25.984375 6.890625 
Q 35.75 6.890625 40.890625 13.453125 
Q 46.046875 20.015625 46.78125 33.40625 
Q 43.953125 29.203125 39.59375 26.953125 
Q 35.25 24.703125 29.984375 24.703125 
Q 19.046875 24.703125 12.671875 31.3125 
Q 6.296875 37.9375 6.296875 49.421875 
Q 6.296875 60.640625 12.9375 67.421875 
Q 19.578125 74.21875 30.609375 74.21875 
Q 43.265625 74.21875 49.921875 64.515625 
Q 56.59375 54.828125 56.59375 36.375 
Q 56.59375 19.140625 48.40625 8.859375 
Q 40.234375 -1.421875 26.421875 -1.421875 
Q 22.703125 -1.421875 18.890625 -0.6875 
Q 15.09375 0.046875 10.984375 1.515625 
z
M 30.609375 32.421875 
Q 37.25 32.421875 41.125 36.953125 
Q 45.015625 41.5 45.015625 49.421875 
Q 45.015625 57.28125 41.125 61.84375 
Q 37.25 66.40625 30.609375 66.40625 
Q 23.96875 66.40625 20.09375 61.84375 
Q 16.21875 57.28125 16.21875 49.421875 
Q 16.21875 41.5 20.09375 36.953125 
Q 23.96875 32.421875 30.609375 32.421875 
z
" id="DejaVuSans-57"/>
      </defs>
      <g transform="translate(67.096875 51.977916)scale(0.1 -0.1)">
       <use xlink:href="#DejaVuSans-48"/>
       <use x="63.623047" xlink:href="#DejaVuSans-46"/>
       <use x="95.410156" xlink:href="#DejaVuSans-57"/>
      </g>
     </g>
    </g>
    <g id="text_14">
     <!-- accuracy -->
     <defs>
      <path d="M 34.28125 27.484375 
Q 23.390625 27.484375 19.1875 25 
Q 14.984375 22.515625 14.984375 16.5 
Q 14.984375 11.71875 18.140625 8.90625 
Q 21.296875 6.109375 26.703125 6.109375 
Q 34.1875 6.109375 38.703125 11.40625 
Q 43.21875 16.703125 43.21875 25.484375 
L 43.21875 27.484375 
z
M 52.203125 31.203125 
L 52.203125 0 
L 43.21875 0 
L 43.21875 8.296875 
Q 40.140625 3.328125 35.546875 0.953125 
Q 30.953125 -1.421875 24.3125 -1.421875 
Q 15.921875 -1.421875 10.953125 3.296875 
Q 6 8.015625 6 15.921875 
Q 6 25.140625 12.171875 29.828125 
Q 18.359375 34.515625 30.609375 34.515625 
L 43.21875 34.515625 
L 43.21875 35.40625 
Q 43.21875 41.609375 39.140625 45 
Q 35.0625 48.390625 27.6875 48.390625 
Q 23 48.390625 18.546875 47.265625 
Q 14.109375 46.140625 10.015625 43.890625 
L 10.015625 52.203125 
Q 14.9375 54.109375 19.578125 55.046875 
Q 24.21875 56 28.609375 56 
Q 40.484375 56 46.34375 49.84375 
Q 52.203125 43.703125 52.203125 31.203125 
z
" id="DejaVuSans-97"/>
      <path d="M 8.5 21.578125 
L 8.5 54.6875 
L 17.484375 54.6875 
L 17.484375 21.921875 
Q 17.484375 14.15625 20.5 10.265625 
Q 23.53125 6.390625 29.59375 6.390625 
Q 36.859375 6.390625 41.078125 11.03125 
Q 45.3125 15.671875 45.3125 23.6875 
L 45.3125 54.6875 
L 54.296875 54.6875 
L 54.296875 0 
L 45.3125 0 
L 45.3125 8.40625 
Q 42.046875 3.421875 37.71875 1 
Q 33.40625 -1.421875 27.6875 -1.421875 
Q 18.265625 -1.421875 13.375 4.4375 
Q 8.5 10.296875 8.5 21.578125 
z
M 31.109375 56 
z
" id="DejaVuSans-117"/>
      <path d="M 41.109375 46.296875 
Q 39.59375 47.171875 37.8125 47.578125 
Q 36.03125 48 33.890625 48 
Q 26.265625 48 22.1875 43.046875 
Q 18.109375 38.09375 18.109375 28.8125 
L 18.109375 0 
L 9.078125 0 
L 9.078125 54.6875 
L 18.109375 54.6875 
L 18.109375 46.1875 
Q 20.953125 51.171875 25.484375 53.578125 
Q 30.03125 56 36.53125 56 
Q 37.453125 56 38.578125 55.875 
Q 39.703125 55.765625 41.0625 55.515625 
z
" id="DejaVuSans-114"/>
      <path d="M 32.171875 -5.078125 
Q 28.375 -14.84375 24.75 -17.8125 
Q 21.140625 -20.796875 15.09375 -20.796875 
L 7.90625 -20.796875 
L 7.90625 -13.28125 
L 13.1875 -13.28125 
Q 16.890625 -13.28125 18.9375 -11.515625 
Q 21 -9.765625 23.484375 -3.21875 
L 25.09375 0.875 
L 2.984375 54.6875 
L 12.5 54.6875 
L 29.59375 11.921875 
L 46.6875 54.6875 
L 56.203125 54.6875 
z
" id="DejaVuSans-121"/>
     </defs>
     <g transform="translate(61.017187 201.659375)rotate(-90)scale(0.1 -0.1)">
      <use xlink:href="#DejaVuSans-97"/>
      <use x="61.279297" xlink:href="#DejaVuSans-99"/>
      <use x="116.259766" xlink:href="#DejaVuSans-99"/>
      <use x="171.240234" xlink:href="#DejaVuSans-117"/>
      <use x="234.619141" xlink:href="#DejaVuSans-114"/>
      <use x="275.732422" xlink:href="#DejaVuSans-97"/>
      <use x="337.011719" xlink:href="#DejaVuSans-99"/>
      <use x="391.992188" xlink:href="#DejaVuSans-121"/>
     </g>
    </g>
   </g>
   <g id="line2d_25">
    <path clip-path="url(#pb4360aaff3)" d="M 115.363636 298.763429 
L 115.940738 298.86048 
L 116.517841 294.493201 
L 117.094943 299.054581 
L 117.672045 298.472277 
L 118.249147 300.995594 
L 118.826249 290.417075 
L 119.403351 295.172556 
L 119.980453 296.531265 
L 120.557555 299.442784 
L 121.134657 296.240113 
L 122.288861 297.987024 
L 122.865963 290.805277 
L 123.443065 297.016518 
L 124.59727 285.855695 
L 125.174372 291.581682 
L 125.751474 295.366657 
L 126.328576 295.657809 
L 126.905678 288.961315 
L 127.48278 285.370442 
L 128.059882 291.775784 
L 128.636984 284.691088 
L 129.214086 288.961315 
L 129.791188 284.496986 
L 130.36829 282.750075 
L 130.945392 283.817632 
L 131.522495 279.935607 
L 132.099597 280.809062 
L 132.676699 278.382797 
L 133.253801 277.800493 
L 133.830903 275.762429 
L 134.408005 275.471278 
L 134.985107 272.171556 
L 135.562209 270.327594 
L 136.716413 258.099214 
L 137.293515 261.398936 
L 137.870617 255.964101 
L 138.44772 254.799493 
L 139.024822 251.499771 
L 139.601924 244.609177 
L 140.179026 247.035442 
L 140.756128 235.583468 
L 141.910332 233.642455 
L 142.487434 224.228544 
L 143.064536 221.122924 
L 143.641638 216.173341 
L 144.21874 208.991595 
L 144.795842 207.826987 
L 145.372944 203.362658 
L 145.950047 199.868835 
L 146.527149 201.518696 
L 147.104251 190.940177 
L 147.681353 192.492987 
L 148.258455 189.290316 
L 148.835557 182.884975 
L 149.412659 177.741291 
L 149.989761 184.243683 
L 150.566863 174.732722 
L 151.143965 169.589038 
L 151.721067 171.044798 
L 152.298169 170.850696 
L 152.875271 169.394937 
L 153.452374 167.259823 
L 154.029476 164.057152 
L 154.606578 166.968671 
L 155.760782 161.922038 
L 156.337884 161.242684 
L 156.914986 159.495772 
L 157.492088 155.904899 
L 158.06919 156.196051 
L 158.646292 150.081861 
L 159.223394 154.54619 
L 159.800496 148.237899 
L 160.377599 152.314026 
L 160.954701 148.432 
L 161.531803 150.567114 
L 162.108905 146.490988 
L 163.263109 146.199836 
L 163.840211 143.967671 
L 164.417313 140.862051 
L 164.994415 144.161772 
L 165.571517 143.967671 
L 166.148619 142.026659 
L 166.725721 141.832557 
L 167.302823 137.368228 
L 167.879926 141.250254 
L 168.457028 142.414861 
L 169.03413 137.368228 
L 169.611232 138.338735 
L 170.188334 138.144633 
L 170.765436 134.068507 
L 171.342538 138.726937 
L 171.91964 129.99238 
L 172.496742 136.882975 
L 173.073844 132.515697 
L 173.650946 136.785924 
L 174.228048 133.583254 
L 174.80515 132.903899 
L 175.959355 126.789709 
L 176.536457 130.574684 
L 177.113559 129.89533 
L 177.690661 131.836342 
L 178.267763 127.080861 
L 178.844865 128.633671 
L 179.421967 125.916254 
L 179.999069 126.789709 
L 180.576171 128.342519 
L 181.730375 122.907684 
L 182.307478 122.713583 
L 182.88458 126.401507 
L 184.038784 122.713583 
L 184.615886 122.422431 
L 185.192988 121.451925 
L 186.347192 128.051368 
L 186.924294 121.937178 
L 187.501396 123.101785 
L 188.078498 116.793494 
L 188.6556 121.354874 
L 189.232702 117.861051 
L 189.809805 116.793494 
L 190.386907 117.084646 
L 190.964009 117.66695 
L 191.541111 121.257823 
L 192.118213 116.21119 
L 192.695315 119.316811 
L 193.272417 118.540406 
L 193.849519 114.949532 
L 194.426621 117.958102 
L 195.003723 116.405292 
L 195.580825 118.346304 
L 196.157927 114.755431 
L 196.735029 114.755431 
L 197.312132 115.143634 
L 197.889234 111.843912 
L 198.466336 110.291102 
L 199.62054 112.620317 
L 200.197642 113.202621 
L 200.774744 112.329165 
L 201.351846 114.65838 
L 201.928948 111.940963 
L 202.50605 110.873406 
L 203.083152 110.388153 
L 203.660254 114.852482 
L 204.237357 110.388153 
L 204.814459 111.746861 
L 205.391561 109.99995 
L 205.968663 112.523266 
L 206.545765 111.55276 
L 207.122867 108.544191 
L 207.699969 110.776355 
L 208.277071 107.282532 
L 208.854173 113.202621 
L 209.431275 108.44714 
L 210.008377 109.029444 
L 210.585479 109.99995 
L 211.162581 106.797279 
L 211.739684 109.320596 
L 212.893888 102.527051 
L 213.47099 108.544191 
L 214.048092 108.835342 
L 214.625194 108.155988 
L 215.202296 109.902899 
L 215.779398 106.214975 
L 216.3565 104.371013 
L 216.933602 104.273963 
L 217.510704 109.126494 
L 218.664908 103.206406 
L 219.242011 106.603178 
L 219.819113 106.99138 
L 220.396215 100.683089 
L 220.973317 104.565115 
L 221.550419 103.400507 
L 222.127521 99.615532 
L 222.704623 102.818203 
L 223.281725 104.468064 
L 223.858827 101.750646 
L 224.435929 100.197836 
L 225.013031 101.944748 
L 225.590133 103.206406 
L 226.167235 101.362444 
L 226.744338 101.750646 
L 227.32144 104.371013 
L 227.898542 98.547975 
L 228.475644 101.847697 
L 229.052746 102.915254 
L 229.629848 101.944748 
L 230.20695 98.645026 
L 230.784052 101.750646 
L 231.361154 101.459494 
L 231.938256 98.742077 
L 232.515358 103.88576 
L 233.09246 96.024659 
L 233.669563 98.839127 
L 234.246665 98.936178 
L 234.823767 94.5689 
L 235.400869 100.488988 
L 235.977971 104.468064 
L 237.132175 100.488988 
L 237.709277 101.944748 
L 238.286379 95.733507 
L 238.863481 95.248254 
L 239.440583 101.847697 
L 240.017685 100.488988 
L 240.594787 98.839127 
L 241.17189 96.315811 
L 241.748992 99.615532 
L 242.326094 95.539406 
L 242.903196 95.151203 
L 243.480298 97.092216 
L 244.0574 93.501343 
L 244.634502 101.459494 
L 245.211604 98.645026 
L 245.788706 94.957102 
L 246.365808 97.480418 
L 247.520012 97.868621 
L 248.097114 97.868621 
L 248.674217 96.509912 
L 249.251319 94.083646 
L 249.828421 92.724938 
L 250.405523 97.092216 
L 250.982625 96.21876 
L 251.559727 94.763001 
L 252.136829 95.830558 
L 252.713931 93.016089 
L 253.291033 97.286317 
L 253.868135 93.986596 
L 254.445237 95.054153 
L 255.022339 95.054153 
L 255.599442 92.239684 
L 256.176544 94.5689 
L 256.753646 94.860051 
L 257.330748 95.442355 
L 257.90785 88.260608 
L 258.484952 93.307241 
L 259.062054 93.792494 
L 259.639156 87.775355 
L 260.216258 92.142634 
L 260.79336 93.307241 
L 261.370462 89.619317 
L 261.947564 95.539406 
L 262.524666 92.142634 
L 263.101769 95.054153 
L 263.678871 90.686874 
L 264.255973 90.783925 
L 264.833075 94.5689 
L 265.410177 92.336735 
L 265.987279 90.978026 
L 266.564381 90.589824 
L 267.141483 92.821988 
L 267.718585 88.55176 
L 268.295687 86.319596 
L 268.872789 94.277748 
L 269.449891 95.054153 
L 270.026993 88.745862 
L 270.604096 92.045583 
L 271.181198 93.11314 
L 271.7583 91.075077 
L 272.335402 94.471849 
L 272.912504 87.096001 
L 273.489606 90.880976 
L 274.066708 90.880976 
L 274.64381 91.366229 
L 275.220912 91.269178 
L 275.798014 90.686874 
L 276.375116 90.492773 
L 276.952218 90.00752 
L 277.529321 86.028444 
L 278.106423 86.707798 
L 278.683525 87.872406 
L 279.260627 86.028444 
L 279.837729 87.193051 
L 280.414831 91.56033 
L 280.991933 88.066507 
L 281.569035 87.581254 
L 282.146137 90.978026 
L 282.723239 88.163558 
L 283.300341 88.939963 
L 283.877443 89.425216 
L 284.454545 87.387153 
L 285.031648 86.707798 
L 285.60875 86.99895 
L 286.185852 90.10457 
L 286.762954 86.028444 
L 287.340056 87.678305 
L 287.917158 88.45471 
L 288.49426 87.775355 
L 289.071362 86.9019 
L 289.648464 87.096001 
L 290.802668 92.239684 
L 291.37977 86.610748 
L 291.956872 91.366229 
L 292.533975 84.669735 
L 293.111077 88.357659 
L 293.688179 83.602178 
L 294.265281 87.193051 
L 294.842383 88.357659 
L 295.419485 82.243469 
L 295.996587 89.134064 
L 296.573689 83.116925 
L 297.150791 84.960887 
L 297.727893 86.416646 
L 298.304995 84.669735 
L 298.882097 88.357659 
L 299.4592 83.408077 
L 300.036302 85.057938 
L 301.190506 82.631672 
L 301.767608 83.990381 
L 302.34471 85.057938 
L 302.921812 85.737292 
L 303.498914 83.796279 
L 304.076016 87.872406 
L 304.653118 85.154988 
L 305.23022 84.378583 
L 305.807322 83.213976 
L 306.384424 82.534621 
L 306.961527 82.437571 
L 307.538629 83.89333 
L 308.115731 87.775355 
L 308.692833 84.475634 
L 309.269935 83.796279 
L 309.847037 86.222545 
L 310.424139 80.496558 
L 311.001241 85.931393 
L 311.578343 83.602178 
L 312.155445 82.146419 
L 312.732547 84.087431 
L 313.309649 86.513697 
L 314.463854 80.302457 
L 315.040956 82.534621 
L 315.618058 83.311026 
L 316.19516 83.89333 
L 316.772262 82.631672 
L 317.349364 82.728722 
L 317.926466 84.087431 
L 318.503568 81.272963 
L 319.08067 82.631672 
L 319.657772 81.758216 
L 320.234874 82.146419 
L 320.811976 87.193051 
L 321.389078 82.728722 
L 321.966181 85.057938 
L 322.543283 79.2349 
L 323.120385 77.77914 
L 323.697487 84.669735 
L 324.274589 81.564115 
L 324.851691 83.311026 
L 325.428793 83.311026 
L 326.005895 83.019874 
L 326.582997 83.699229 
L 327.160099 80.399507 
L 328.314303 80.496558 
L 328.891406 82.728722 
L 329.468508 79.137849 
L 330.622712 82.243469 
L 331.199814 84.184482 
L 331.776916 81.272963 
L 332.354018 79.429001 
L 332.93112 83.019874 
L 333.508222 80.690659 
L 334.085324 82.728722 
L 334.662426 83.699229 
L 335.239528 80.593609 
L 335.81663 83.019874 
L 336.393733 79.429001 
L 336.970835 80.399507 
L 337.547937 79.623102 
L 338.125039 79.817203 
L 338.702141 79.526052 
L 339.279243 83.408077 
L 339.856345 79.040798 
L 340.433447 81.370014 
L 341.010549 81.661165 
L 341.587651 81.661165 
L 342.164753 79.526052 
L 342.741855 79.720153 
L 343.318957 80.690659 
L 343.89606 77.876191 
L 344.473162 79.623102 
L 345.050264 78.943748 
L 346.204468 78.361444 
L 346.78157 76.614533 
L 347.358672 78.749647 
L 347.935774 78.749647 
L 349.089978 79.33195 
L 349.66708 77.876191 
L 350.244182 81.758216 
L 350.821285 77.876191 
L 351.398387 77.002735 
L 351.975489 77.876191 
L 352.552591 75.644026 
L 353.129693 76.808634 
L 353.706795 79.720153 
L 354.283897 81.370014 
L 354.860999 77.487988 
L 355.438101 76.323381 
L 356.015203 76.22633 
L 356.592305 76.420431 
L 357.169407 75.061722 
L 357.746509 77.390938 
L 358.323612 80.205406 
L 358.900714 76.808634 
L 359.477816 82.534621 
L 360.054918 79.2349 
L 360.63202 78.652596 
L 361.209122 76.711583 
L 362.363326 74.964672 
L 362.940428 76.614533 
L 363.51753 76.808634 
L 364.094632 74.091216 
L 364.671734 74.867621 
L 365.248836 78.652596 
L 365.825939 77.973241 
L 366.403041 77.487988 
L 366.980143 77.585039 
L 367.557245 77.293887 
L 368.134347 73.12071 
L 368.711449 73.023659 
L 369.288551 74.964672 
L 369.865653 79.914254 
L 370.442755 78.943748 
L 371.019857 75.449925 
L 371.596959 76.905684 
L 372.174061 75.935178 
L 372.751164 76.808634 
L 373.328266 75.838128 
L 373.905368 79.040798 
L 374.48247 74.382368 
L 375.059572 73.994166 
L 375.636674 73.897115 
L 376.213776 74.867621 
L 376.790878 77.77914 
L 377.36798 75.838128 
L 377.945082 76.711583 
L 378.522184 75.449925 
L 379.099286 75.644026 
L 379.676388 73.703014 
L 380.253491 77.68209 
L 380.830593 73.314811 
L 381.984797 76.614533 
L 382.561899 73.897115 
L 383.139001 75.061722 
L 384.293205 72.150204 
L 385.447409 73.897115 
L 386.024511 72.150204 
L 386.601613 76.905684 
L 387.178715 73.314811 
L 388.33292 71.373798 
L 389.487124 76.129279 
L 390.064226 74.576469 
L 390.641328 72.150204 
L 391.21843 77.585039 
L 391.795532 76.711583 
L 392.372634 75.352874 
L 392.949736 75.158773 
L 393.526838 71.373798 
L 394.10394 73.897115 
L 394.681043 74.67352 
L 395.258145 74.479419 
L 395.835247 74.091216 
L 396.412349 73.023659 
L 396.989451 71.66495 
L 397.566553 71.66495 
L 398.143655 69.626887 
L 398.720757 73.21776 
L 399.297859 75.255824 
L 399.874961 71.179697 
L 400.452063 73.21776 
L 401.029165 71.5679 
L 401.606267 74.867621 
L 402.18337 72.150204 
L 402.760472 70.791495 
L 403.337574 71.956102 
L 403.914676 73.800064 
L 404.491778 73.508912 
L 405.06888 72.829558 
L 405.645982 71.762001 
L 406.223084 73.21776 
L 406.800186 73.897115 
L 407.377288 71.66495 
L 407.95439 70.500343 
L 408.531492 75.352874 
L 409.108594 72.732507 
L 409.685697 72.150204 
L 410.262799 72.635457 
L 410.839901 67.879976 
L 411.417003 73.994166 
L 411.994105 70.694444 
L 412.571207 70.403292 
L 413.148309 73.800064 
L 413.725411 70.01509 
L 414.302513 72.635457 
L 414.879615 74.091216 
L 415.456717 73.508912 
L 416.033819 72.635457 
L 416.610922 69.432786 
L 417.188024 71.470849 
L 417.765126 71.179697 
L 418.342228 72.053153 
L 418.91933 71.470849 
L 419.496432 71.470849 
L 420.073534 69.238685 
L 420.650636 71.762001 
L 421.227738 71.276748 
L 421.80484 72.635457 
L 422.381942 73.12071 
L 422.959044 71.082647 
L 423.536146 73.411862 
L 424.113249 71.762001 
L 424.690351 68.268178 
L 425.267453 70.791495 
L 426.421657 66.327166 
L 426.998759 67.782925 
L 427.575861 71.66495 
L 428.152963 72.829558 
L 428.730065 70.500343 
L 429.307167 69.141634 
L 429.884269 69.432786 
L 430.461371 67.00652 
L 431.038473 72.829558 
L 431.615576 70.209191 
L 432.192678 72.053153 
L 432.76978 71.859052 
L 433.346882 72.150204 
L 433.923984 73.023659 
L 434.501086 70.500343 
L 435.078188 70.500343 
L 435.65529 69.626887 
L 436.232392 70.888545 
L 436.809494 67.782925 
L 437.386596 70.694444 
L 437.963698 68.55933 
L 438.5408 68.268178 
L 439.117903 68.947533 
L 439.695005 70.791495 
L 440.272107 71.373798 
L 441.426311 67.200621 
L 442.003413 66.424216 
L 442.580515 69.432786 
L 443.734719 70.694444 
L 444.311821 67.782925 
L 444.888923 68.947533 
L 445.466025 67.782925 
L 446.043128 68.753431 
L 446.62023 69.238685 
L 447.197332 69.335735 
L 447.774434 68.268178 
L 448.351536 69.626887 
L 448.928638 66.521267 
L 449.50574 67.297672 
L 450.659944 66.812419 
L 451.237046 67.394723 
L 451.814148 67.200621 
L 452.39125 66.812419 
L 452.968352 68.753431 
L 453.545455 66.521267 
L 454.122557 68.850482 
L 454.699659 67.00652 
L 455.276761 70.694444 
L 455.853863 68.268178 
L 456.430965 68.656381 
L 457.008067 65.938963 
L 457.585169 69.141634 
L 458.162271 65.45371 
L 458.739373 63.99795 
L 459.316475 67.491773 
L 459.893577 67.394723 
L 460.470679 68.074077 
L 461.047782 67.879976 
L 461.624884 67.977026 
L 462.779088 67.103571 
L 463.35619 66.909469 
L 463.933292 67.103571 
L 465.087496 68.753431 
L 465.664598 65.259609 
L 466.2417 67.782925 
L 466.818802 64.192052 
L 467.395904 64.968457 
L 467.973007 68.55933 
L 468.550109 69.335735 
L 469.127211 69.432786 
L 469.704313 70.306242 
L 470.858517 66.424216 
L 471.435619 62.736292 
L 472.012721 66.715368 
L 472.589823 66.812419 
L 473.166925 66.327166 
L 473.744027 69.335735 
L 474.321129 68.46228 
L 474.898231 66.133064 
L 475.475334 64.774355 
L 476.052436 67.297672 
L 476.629538 72.635457 
L 477.20664 65.45371 
L 477.783742 64.968457 
L 478.360844 65.841912 
L 478.937946 68.268178 
L 479.515048 65.45371 
L 480.09215 63.512697 
L 480.669252 68.656381 
L 481.246354 63.512697 
L 481.823456 66.424216 
L 482.400558 65.356659 
L 482.977661 63.609748 
L 483.554763 64.095001 
L 484.131865 68.171128 
L 484.708967 64.968457 
L 485.286069 67.588824 
L 485.863171 65.259609 
L 486.440273 67.103571 
L 487.017375 68.074077 
L 487.594477 66.812419 
L 488.171579 66.424216 
L 488.748681 65.356659 
L 489.325783 68.656381 
L 489.902886 62.833343 
L 490.479988 66.424216 
L 491.05709 67.879976 
L 491.634192 66.230115 
L 492.211294 68.268178 
L 492.788396 65.162558 
L 493.365498 64.580254 
L 493.9426 67.491773 
L 494.519702 64.677305 
L 495.096804 67.103571 
L 495.673906 65.550761 
L 496.251008 67.103571 
L 496.82811 64.968457 
L 497.405213 68.268178 
L 497.982315 66.909469 
L 498.559417 63.415647 
L 499.136519 66.618318 
L 499.713621 67.977026 
L 500.290723 67.00652 
L 500.867825 66.521267 
L 501.444927 65.647811 
L 502.022029 62.251039 
L 502.599131 64.386153 
L 503.176233 65.259609 
L 504.330437 63.221545 
L 504.90754 64.192052 
L 505.484642 62.44514 
L 506.061744 62.056938 
L 506.638846 69.044583 
L 507.215948 63.415647 
L 507.79305 67.200621 
L 508.370152 63.9009 
L 508.947254 65.647811 
L 509.524356 65.065507 
L 510.101458 63.609748 
L 510.67856 63.318596 
L 511.255662 64.483204 
L 511.832765 62.153988 
L 512.409867 64.289102 
L 512.986969 70.306242 
L 513.564071 63.9009 
L 514.141173 66.327166 
L 514.718275 65.065507 
L 515.295377 66.327166 
L 515.872479 64.677305 
L 516.449581 63.609748 
L 517.026683 65.356659 
L 517.603785 64.192052 
L 518.180887 65.938963 
L 518.757989 63.124495 
L 519.335092 66.521267 
L 519.912194 64.580254 
L 520.489296 64.095001 
L 521.066398 62.930393 
L 522.220602 65.259609 
L 522.797704 61.183482 
L 523.374806 68.850482 
L 523.951908 64.289102 
L 524.52901 64.386153 
L 525.106112 66.812419 
L 525.683214 61.280533 
L 526.260316 64.289102 
L 526.837419 64.580254 
L 527.414521 66.521267 
L 527.991623 65.065507 
L 528.568725 61.668735 
L 529.145827 60.504128 
L 529.722929 60.504128 
L 530.300031 65.162558 
L 531.454235 62.153988 
L 532.031337 62.639242 
L 532.608439 62.833343 
L 533.185541 62.639242 
L 533.762643 61.183482 
L 534.339746 58.369014 
L 535.49395 65.065507 
L 536.071052 62.056938 
L 536.648154 63.9009 
L 537.225256 61.571685 
L 537.802358 63.221545 
L 538.37946 63.609748 
L 538.956562 61.862837 
L 539.533664 59.630672 
L 540.110766 63.221545 
L 540.687868 58.271963 
L 541.264971 64.677305 
L 541.842073 63.609748 
L 542.419175 59.436571 
L 542.996277 63.318596 
L 544.150481 60.310026 
L 544.727583 62.44514 
L 545.304685 59.436571 
L 545.881787 62.251039 
L 546.458889 64.095001 
L 547.035991 64.968457 
L 547.613093 62.542191 
L 548.190195 61.474634 
L 548.767298 63.803849 
L 549.3444 64.095001 
L 549.921502 64.968457 
L 550.498604 63.512697 
L 551.075706 58.369014 
L 551.652808 59.436571 
L 552.22991 61.668735 
L 552.807012 62.056938 
L 553.384114 60.115925 
L 553.961216 61.377583 
L 554.538318 59.824773 
L 555.11542 60.310026 
L 555.692522 62.833343 
L 556.269625 63.027444 
L 556.846727 62.639242 
L 557.423829 63.027444 
L 558.000931 60.698229 
L 558.578033 59.630672 
L 559.155135 61.959887 
L 559.732237 59.33952 
L 560.309339 64.580254 
L 560.886441 60.212976 
L 561.463543 62.056938 
L 562.040645 64.580254 
L 562.617747 63.609748 
L 563.19485 62.056938 
L 563.771952 61.959887 
L 564.349054 61.668735 
L 564.926156 60.989381 
L 565.503258 58.466064 
L 566.08036 62.34809 
L 566.657462 61.086431 
L 567.234564 60.407077 
L 567.811666 60.601178 
L 568.388768 59.727723 
L 568.96587 62.056938 
L 569.542972 57.980811 
L 570.120074 62.542191 
L 570.697177 62.44514 
L 571.274279 62.639242 
L 571.851381 63.512697 
L 572.428483 60.115925 
L 573.005585 63.221545 
L 574.159789 61.183482 
L 574.736891 62.056938 
L 575.313993 62.639242 
L 575.891095 64.095001 
L 576.468197 60.115925 
L 577.045299 61.377583 
L 577.622401 60.115925 
L 578.199504 61.959887 
L 578.776606 60.212976 
L 579.353708 62.153988 
L 579.93081 65.550761 
L 580.507912 60.310026 
L 581.085014 61.086431 
L 581.662116 55.554545 
L 582.239218 59.727723 
L 582.81632 58.466064 
L 583.393422 60.212976 
L 583.970524 60.89233 
L 584.547626 57.980811 
L 585.124729 61.959887 
L 585.701831 59.630672 
L 586.278933 61.280533 
L 586.856035 58.563115 
L 587.433137 59.727723 
L 588.010239 58.563115 
L 588.587341 62.44514 
L 589.164443 59.921824 
L 589.741545 63.221545 
L 590.318647 61.377583 
L 590.895749 57.980811 
L 591.472851 60.212976 
L 592.049953 61.377583 
L 592.627056 62.153988 
L 593.204158 57.592609 
L 593.78126 63.124495 
L 594.358362 60.698229 
L 594.935464 59.242469 
L 595.512566 61.862837 
L 596.089668 63.124495 
L 596.66677 63.803849 
L 597.243872 58.757216 
L 597.820974 60.504128 
L 598.398076 60.018875 
L 598.975178 62.44514 
L 599.55228 62.153988 
L 600.129383 60.698229 
L 600.706485 58.466064 
L 601.283587 56.719153 
L 601.860689 58.174913 
L 602.437791 57.010305 
L 603.014893 61.959887 
L 603.591995 61.862837 
L 604.169097 56.816204 
L 604.746199 60.407077 
L 605.323301 57.78671 
L 605.900403 57.78671 
L 606.477505 59.048368 
L 607.054608 58.466064 
L 607.63171 59.727723 
L 608.208812 59.533621 
L 608.785914 62.153988 
L 609.363016 60.018875 
L 609.940118 59.921824 
L 610.51722 60.018875 
L 611.094322 58.174913 
L 611.671424 61.183482 
L 612.248526 60.698229 
L 612.825628 61.183482 
L 613.40273 59.824773 
L 613.979832 60.407077 
L 614.556935 62.736292 
L 615.134037 60.79528 
L 615.711139 58.271963 
L 616.288241 58.563115 
L 616.865343 61.086431 
L 617.442445 58.369014 
L 618.019547 60.212976 
L 618.596649 58.369014 
L 619.173751 60.212976 
L 619.750853 62.833343 
L 620.327955 59.33952 
L 620.905057 60.212976 
L 621.482159 59.824773 
L 622.059262 56.428001 
L 622.636364 57.204406 
L 622.636364 57.204406 
" style="fill:none;stroke:#1f77b4;stroke-linecap:square;stroke-width:0.5;"/>
   </g>
   <g id="line2d_26">
    <path clip-path="url(#pb4360aaff3)" d="M 115.363636 295.366657 
L 115.940738 302.645455 
L 116.517841 296.725366 
L 117.094943 297.113569 
L 117.672045 296.822417 
L 118.249147 299.733936 
L 118.826249 294.784353 
L 119.403351 299.442784 
L 119.980453 298.472277 
L 120.557555 290.417075 
L 121.134657 291.775784 
L 121.711759 297.016518 
L 122.288861 297.987024 
L 122.865963 299.928037 
L 123.443065 289.64067 
L 124.59727 296.046012 
L 125.751474 290.320024 
L 126.328576 295.172556 
L 126.905678 289.252467 
L 127.48278 289.73772 
L 128.059882 292.066936 
L 128.636984 289.73772 
L 129.214086 287.893758 
L 129.791188 287.214404 
L 130.36829 284.885189 
L 130.945392 284.205834 
L 131.522495 281.97367 
L 132.099597 278.673948 
L 132.676699 277.703442 
L 133.253801 282.361872 
L 133.830903 280.42086 
L 134.408005 276.732936 
L 135.562209 271.20105 
L 136.139311 266.542619 
L 136.716413 264.213404 
L 137.293515 262.757645 
L 137.870617 257.031658 
L 138.44772 256.158202 
L 140.179026 240.241898 
L 140.756128 239.174341 
L 141.33323 237.621531 
L 141.910332 231.798493 
L 142.487434 223.258038 
L 143.064536 226.266607 
L 143.641638 216.755645 
L 144.21874 216.367443 
L 144.795842 208.409291 
L 145.372944 205.20662 
L 145.950047 203.65381 
L 146.527149 203.168557 
L 147.104251 196.569114 
L 147.681353 187.931608 
L 148.258455 193.851696 
L 148.835557 187.446354 
L 149.412659 190.163772 
L 149.989761 181.817418 
L 150.566863 181.623316 
L 151.143965 180.070506 
L 151.721067 174.635671 
L 152.298169 175.606177 
L 152.875271 169.103785 
L 153.452374 165.804063 
L 154.606578 165.512912 
L 155.18368 164.445355 
L 155.760782 159.689874 
L 156.337884 159.981025 
L 156.914986 165.124709 
L 157.492088 156.293101 
L 158.06919 156.584253 
L 158.646292 152.99338 
L 159.223394 157.263608 
L 159.800496 155.322595 
L 160.377599 156.099 
L 160.954701 156.584253 
L 161.531803 149.499557 
L 162.108905 149.305456 
L 162.686007 150.275962 
L 163.263109 148.237899 
L 163.840211 149.693659 
L 164.417313 149.305456 
L 164.994415 150.178912 
L 165.571517 148.237899 
L 166.148619 145.423431 
L 166.725721 149.111355 
L 167.302823 142.31781 
L 167.879926 139.988595 
L 168.457028 147.170342 
L 169.03413 143.579469 
L 169.611232 141.832557 
L 170.188334 140.66795 
L 170.765436 144.938178 
L 171.342538 137.853481 
L 171.91964 136.494773 
L 172.496742 142.900114 
L 173.073844 140.473848 
L 173.650946 137.368228 
L 174.228048 135.718367 
L 174.80515 135.621317 
L 175.382253 133.292102 
L 175.959355 137.271178 
L 176.536457 137.756431 
L 177.113559 133.874405 
L 177.690661 133.292102 
L 178.267763 132.903899 
L 178.844865 130.089431 
L 179.421967 132.321595 
L 179.999069 133.777355 
L 180.576171 128.342519 
L 181.153273 129.410076 
L 181.730375 130.186481 
L 182.307478 128.827773 
L 183.461682 132.709798 
L 184.038784 128.342519 
L 184.615886 129.701228 
L 185.192988 128.827773 
L 185.77009 130.380583 
L 186.347192 127.177912 
L 186.924294 127.469064 
L 187.501396 125.528051 
L 188.078498 128.827773 
L 188.6556 128.245469 
L 189.232702 125.722152 
L 189.809805 127.177912 
L 190.386907 125.722152 
L 190.964009 127.663165 
L 191.541111 126.498557 
L 192.118213 119.025659 
L 192.695315 125.916254 
L 193.272417 122.131279 
L 193.849519 127.857266 
L 194.426621 124.654595 
L 195.003723 122.810633 
L 195.580825 127.469064 
L 196.157927 121.451925 
L 196.735029 120.481418 
L 197.312132 122.713583 
L 197.889234 119.802064 
L 199.043438 120.287317 
L 199.62054 115.920039 
L 200.774744 118.831558 
L 201.928948 123.198836 
L 202.50605 117.181697 
L 203.083152 119.996165 
L 203.660254 118.637456 
L 204.237357 120.287317 
L 204.814459 117.764001 
L 205.391561 120.287317 
L 205.968663 117.181697 
L 206.545765 116.599393 
L 207.122867 119.025659 
L 207.699969 117.569899 
L 208.277071 118.734507 
L 209.431275 117.278747 
L 210.585479 112.523266 
L 211.162581 116.502342 
L 211.739684 116.21119 
L 212.316786 116.11414 
L 212.893888 115.822988 
L 213.47099 115.143634 
L 214.048092 112.911469 
L 214.625194 115.628887 
L 215.202296 115.046583 
L 215.779398 116.21119 
L 216.3565 113.687874 
L 216.933602 113.00852 
L 218.087806 119.122709 
L 218.664908 114.367228 
L 219.242011 113.687874 
L 219.819113 111.843912 
L 220.396215 111.843912 
L 220.973317 113.202621 
L 222.127521 115.240684 
L 222.704623 115.725937 
L 223.281725 112.232115 
L 225.013031 114.464279 
L 225.590133 112.523266 
L 226.167235 115.143634 
L 226.744338 108.155988 
L 227.32144 114.949532 
L 227.898542 112.814418 
L 228.475644 108.641241 
L 229.052746 116.502342 
L 229.629848 108.544191 
L 230.20695 114.270178 
L 231.361154 108.544191 
L 231.938256 110.388153 
L 232.515358 111.843912 
L 233.09246 111.843912 
L 233.669563 112.038013 
L 234.246665 112.426216 
L 234.823767 111.067507 
L 235.400869 110.582254 
L 236.555073 111.649811 
L 237.132175 109.029444 
L 237.709277 111.940963 
L 238.286379 110.582254 
L 238.863481 112.426216 
L 239.440583 106.797279 
L 240.017685 111.940963 
L 240.594787 107.088431 
L 241.17189 107.476634 
L 241.748992 106.603178 
L 242.326094 104.759216 
L 242.903196 109.514697 
L 243.480298 108.932393 
L 244.0574 105.923823 
L 244.634502 108.44714 
L 245.211604 107.379583 
L 245.788706 107.670735 
L 246.365808 111.746861 
L 246.94291 107.767785 
L 247.520012 109.126494 
L 248.097114 109.126494 
L 248.674217 106.603178 
L 249.251319 112.135064 
L 249.828421 103.497558 
L 250.405523 108.350089 
L 250.982625 106.020874 
L 251.559727 107.961887 
L 252.136829 107.088431 
L 252.713931 104.468064 
L 253.868135 109.029444 
L 254.445237 105.34152 
L 255.022339 106.117925 
L 255.599442 105.535621 
L 256.176544 102.915254 
L 256.753646 107.961887 
L 257.330748 104.759216 
L 257.90785 104.565115 
L 258.484952 108.544191 
L 259.062054 111.455709 
L 259.639156 106.89433 
L 260.216258 107.282532 
L 260.79336 106.506127 
L 261.370462 107.961887 
L 261.947564 102.624102 
L 262.524666 102.33295 
L 263.678871 106.603178 
L 264.255973 105.729722 
L 264.833075 106.312026 
L 265.410177 107.670735 
L 265.987279 102.915254 
L 266.564381 103.691659 
L 267.141483 105.826773 
L 267.718585 107.476634 
L 268.295687 107.476634 
L 268.872789 103.982811 
L 269.449891 102.818203 
L 270.026993 106.312026 
L 270.604096 102.430001 
L 271.181198 105.244469 
L 271.7583 105.43857 
L 272.335402 101.944748 
L 272.912504 107.282532 
L 273.489606 104.176912 
L 274.066708 103.497558 
L 274.64381 106.117925 
L 275.220912 103.497558 
L 275.798014 104.371013 
L 276.375116 107.961887 
L 276.952218 104.176912 
L 277.529321 103.594608 
L 278.106423 104.856267 
L 278.683525 103.400507 
L 279.260627 109.514697 
L 279.837729 109.902899 
L 280.414831 103.78871 
L 280.991933 103.206406 
L 281.569035 103.691659 
L 282.146137 103.109355 
L 282.723239 105.632672 
L 283.300341 105.826773 
L 283.877443 105.147418 
L 284.454545 104.662165 
L 285.031648 105.632672 
L 285.60875 103.012305 
L 286.185852 105.826773 
L 286.762954 104.856267 
L 287.340056 100.488988 
L 287.917158 98.839127 
L 288.49426 105.244469 
L 289.071362 104.468064 
L 289.648464 104.662165 
L 290.802668 106.603178 
L 291.37977 104.759216 
L 291.956872 101.653596 
L 293.111077 103.497558 
L 293.688179 101.459494 
L 294.265281 105.050368 
L 294.842383 101.847697 
L 295.419485 105.535621 
L 295.996587 104.856267 
L 296.573689 105.826773 
L 297.150791 99.809634 
L 297.727893 104.176912 
L 298.304995 99.32438 
L 299.4592 103.88576 
L 300.036302 100.003735 
L 300.613404 99.906684 
L 301.190506 103.206406 
L 301.767608 101.750646 
L 302.34471 107.573684 
L 302.921812 100.197836 
L 303.498914 101.071292 
L 304.076016 100.78014 
L 304.653118 103.497558 
L 305.23022 101.944748 
L 305.807322 98.742077 
L 306.384424 104.468064 
L 306.961527 102.041798 
L 307.538629 103.594608 
L 308.115731 100.003735 
L 308.692833 104.856267 
L 309.269935 100.294887 
L 309.847037 99.809634 
L 310.424139 99.809634 
L 311.001241 102.33295 
L 312.155445 100.391937 
L 312.732547 104.953317 
L 313.309649 100.877191 
L 313.886751 102.041798 
L 314.463854 101.847697 
L 315.040956 99.22733 
L 315.618058 105.050368 
L 316.19516 101.653596 
L 316.772262 101.459494 
L 317.349364 100.197836 
L 317.926466 100.100786 
L 318.503568 105.729722 
L 319.08067 98.256824 
L 319.657772 104.468064 
L 320.234874 103.206406 
L 320.811976 100.974241 
L 321.389078 99.32438 
L 321.966181 100.488988 
L 322.543283 99.22733 
L 323.120385 101.168342 
L 324.274589 100.100786 
L 324.851691 98.256824 
L 325.428793 100.197836 
L 326.005895 103.012305 
L 326.582997 101.071292 
L 327.160099 101.750646 
L 327.737201 101.750646 
L 328.314303 98.839127 
L 328.891406 104.176912 
L 329.468508 104.273963 
L 330.04561 99.22733 
L 330.622712 98.742077 
L 331.199814 98.450925 
L 331.776916 101.168342 
L 332.354018 99.32438 
L 332.93112 101.944748 
L 333.508222 99.32438 
L 334.085324 99.906684 
L 334.662426 99.906684 
L 335.239528 96.12171 
L 335.81663 96.315811 
L 336.393733 99.421431 
L 336.970835 100.78014 
L 337.547937 99.518482 
L 338.125039 99.712583 
L 338.702141 99.615532 
L 339.279243 100.197836 
L 339.856345 102.138849 
L 340.433447 98.936178 
L 341.010549 105.826773 
L 341.587651 98.062722 
L 342.164753 96.12171 
L 342.741855 98.256824 
L 343.318957 102.624102 
L 343.89606 99.32438 
L 344.473162 101.362444 
L 345.050264 100.586039 
L 345.627366 95.830558 
L 346.204468 94.471849 
L 346.78157 99.809634 
L 347.358672 96.606963 
L 347.935774 101.944748 
L 348.512876 103.206406 
L 349.089978 99.518482 
L 349.66708 98.839127 
L 350.244182 98.450925 
L 350.821285 98.645026 
L 351.398387 101.750646 
L 351.975489 99.32438 
L 352.552591 100.197836 
L 353.129693 100.683089 
L 353.706795 100.197836 
L 354.283897 98.353874 
L 354.860999 95.636456 
L 355.438101 98.547975 
L 356.015203 99.518482 
L 356.592305 97.868621 
L 357.169407 97.286317 
L 357.746509 95.248254 
L 358.323612 98.645026 
L 358.900714 96.315811 
L 359.477816 97.480418 
L 360.054918 98.353874 
L 360.63202 98.936178 
L 361.209122 97.965672 
L 361.786224 97.577469 
L 362.363326 95.636456 
L 362.940428 101.168342 
L 363.51753 94.180697 
L 364.094632 99.130279 
L 364.671734 95.733507 
L 365.248836 102.235899 
L 365.825939 101.459494 
L 366.403041 98.450925 
L 366.980143 97.092216 
L 367.557245 98.742077 
L 368.134347 99.033229 
L 368.711449 95.927608 
L 369.288551 99.22733 
L 369.865653 98.159773 
L 370.442755 99.421431 
L 371.019857 98.742077 
L 371.596959 96.606963 
L 372.174061 100.197836 
L 373.328266 95.927608 
L 373.905368 102.624102 
L 374.48247 100.294887 
L 375.059572 94.957102 
L 375.636674 96.801064 
L 376.213776 96.12171 
L 376.790878 98.742077 
L 377.36798 99.712583 
L 377.945082 93.889545 
L 378.522184 97.868621 
L 379.099286 99.033229 
L 379.676388 98.159773 
L 380.253491 99.033229 
L 380.830593 98.062722 
L 381.407695 100.100786 
L 382.561899 96.024659 
L 383.139001 97.383368 
L 383.716103 100.197836 
L 384.293205 99.421431 
L 384.870307 95.927608 
L 385.447409 97.480418 
L 386.024511 98.159773 
L 386.601613 96.898115 
L 387.755818 99.809634 
L 388.33292 100.197836 
L 388.910022 95.830558 
L 389.487124 100.197836 
L 390.064226 98.645026 
L 390.641328 100.683089 
L 391.21843 96.606963 
L 391.795532 101.265393 
L 392.372634 97.383368 
L 392.949736 96.315811 
L 393.526838 100.974241 
L 394.10394 99.22733 
L 394.681043 98.645026 
L 395.258145 100.488988 
L 395.835247 96.412862 
L 396.412349 96.704013 
L 396.989451 97.480418 
L 397.566553 98.645026 
L 398.143655 96.995165 
L 398.720757 98.936178 
L 399.297859 99.130279 
L 399.874961 98.256824 
L 400.452063 99.421431 
L 401.029165 98.839127 
L 401.606267 97.383368 
L 402.18337 96.995165 
L 402.760472 102.721153 
L 403.337574 98.742077 
L 403.914676 95.636456 
L 404.491778 94.66595 
L 405.06888 100.78014 
L 406.223084 96.315811 
L 406.800186 100.586039 
L 407.377288 98.256824 
L 408.531492 92.239684 
L 409.108594 98.062722 
L 409.685697 100.003735 
L 410.262799 95.151203 
L 410.839901 95.636456 
L 411.417003 98.645026 
L 412.571207 97.577469 
L 413.148309 98.742077 
L 414.302513 96.024659 
L 414.879615 95.733507 
L 415.456717 98.353874 
L 416.033819 96.12171 
L 416.610922 99.130279 
L 417.188024 96.024659 
L 417.765126 99.22733 
L 418.342228 96.21876 
L 418.91933 99.906684 
L 419.496432 96.412862 
L 420.073534 95.636456 
L 420.650636 92.530836 
L 421.227738 99.130279 
L 421.80484 96.606963 
L 422.381942 98.839127 
L 422.959044 97.480418 
L 423.536146 92.919039 
L 424.113249 98.062722 
L 424.690351 96.898115 
L 425.267453 96.704013 
L 425.844555 100.294887 
L 426.421657 97.092216 
L 426.998759 95.830558 
L 427.575861 95.442355 
L 428.152963 98.062722 
L 428.730065 95.151203 
L 429.307167 96.412862 
L 429.884269 96.509912 
L 430.461371 102.041798 
L 431.038473 94.860051 
L 431.615576 98.353874 
L 432.192678 98.450925 
L 432.76978 101.556545 
L 433.346882 96.509912 
L 433.923984 98.547975 
L 434.501086 91.366229 
L 435.078188 97.965672 
L 435.65529 96.024659 
L 436.232392 97.286317 
L 436.809494 100.391937 
L 437.386596 97.67452 
L 437.963698 96.412862 
L 438.5408 93.307241 
L 439.117903 96.509912 
L 439.695005 96.509912 
L 440.272107 93.501343 
L 440.849209 100.78014 
L 441.426311 91.851482 
L 442.003413 101.265393 
L 442.580515 95.054153 
L 443.157617 93.695444 
L 443.734719 98.062722 
L 444.311821 99.615532 
L 444.888923 93.016089 
L 445.466025 96.509912 
L 446.043128 93.598393 
L 446.62023 97.286317 
L 447.197332 96.801064 
L 447.774434 97.577469 
L 448.351536 95.248254 
L 448.928638 95.927608 
L 449.50574 99.033229 
L 450.082842 97.965672 
L 450.659944 99.712583 
L 451.237046 95.054153 
L 451.814148 99.22733 
L 452.968352 98.062722 
L 453.545455 95.442355 
L 454.122557 95.539406 
L 454.699659 96.509912 
L 455.276761 93.792494 
L 455.853863 94.374798 
L 456.430965 97.868621 
L 457.008067 94.66595 
L 457.585169 95.539406 
L 458.162271 95.539406 
L 458.739373 97.092216 
L 459.316475 94.374798 
L 459.893577 96.024659 
L 460.470679 95.248254 
L 461.047782 94.763001 
L 461.624884 95.636456 
L 462.201986 94.66595 
L 462.779088 91.269178 
L 463.35619 95.733507 
L 463.933292 95.636456 
L 464.510394 95.151203 
L 465.087496 96.801064 
L 465.664598 94.083646 
L 466.2417 98.159773 
L 466.818802 94.5689 
L 467.395904 93.695444 
L 467.973007 97.965672 
L 469.704313 92.433786 
L 470.281415 92.433786 
L 470.858517 91.366229 
L 471.435619 96.801064 
L 472.012721 93.016089 
L 472.589823 95.539406 
L 473.166925 95.830558 
L 473.744027 94.180697 
L 474.321129 95.248254 
L 474.898231 95.345305 
L 475.475334 95.151203 
L 476.052436 97.383368 
L 476.629538 96.606963 
L 477.20664 93.695444 
L 477.783742 96.315811 
L 478.360844 95.054153 
L 478.937946 94.66595 
L 479.515048 98.256824 
L 480.09215 98.936178 
L 480.669252 92.045583 
L 481.246354 97.868621 
L 481.823456 95.636456 
L 482.400558 99.033229 
L 482.977661 97.480418 
L 483.554763 99.130279 
L 484.131865 98.353874 
L 484.708967 95.539406 
L 485.286069 97.577469 
L 485.863171 96.704013 
L 486.440273 94.083646 
L 487.017375 97.868621 
L 487.594477 95.830558 
L 488.171579 95.054153 
L 488.748681 97.868621 
L 489.325783 93.695444 
L 489.902886 96.898115 
L 490.479988 97.577469 
L 491.05709 94.66595 
L 491.634192 99.615532 
L 492.211294 93.598393 
L 492.788396 92.239684 
L 493.365498 96.606963 
L 493.9426 91.948532 
L 494.519702 96.024659 
L 495.096804 92.239684 
L 495.673906 93.404292 
L 496.251008 95.054153 
L 496.82811 98.645026 
L 497.405213 93.404292 
L 497.982315 96.509912 
L 498.559417 94.66595 
L 499.136519 95.442355 
L 499.713621 97.965672 
L 500.290723 98.547975 
L 500.867825 92.627887 
L 501.444927 96.801064 
L 502.022029 97.383368 
L 502.599131 93.792494 
L 503.176233 97.092216 
L 503.753335 93.889545 
L 504.330437 95.345305 
L 504.90754 94.957102 
L 505.484642 95.054153 
L 506.061744 93.695444 
L 506.638846 96.412862 
L 507.215948 93.11314 
L 508.370152 97.189267 
L 509.524356 92.821988 
L 510.101458 94.5689 
L 510.67856 97.67452 
L 511.255662 94.471849 
L 511.832765 93.210191 
L 512.409867 94.860051 
L 512.986969 91.269178 
L 513.564071 98.839127 
L 514.141173 95.054153 
L 514.718275 97.77157 
L 515.295377 96.21876 
L 515.872479 95.927608 
L 516.449581 92.239684 
L 517.026683 93.016089 
L 517.603785 96.12171 
L 518.180887 93.598393 
L 518.757989 93.986596 
L 519.335092 93.016089 
L 519.912194 98.547975 
L 520.489296 91.172127 
L 521.066398 95.539406 
L 521.6435 98.256824 
L 522.220602 93.695444 
L 522.797704 91.754431 
L 523.374806 93.501343 
L 523.951908 93.307241 
L 525.106112 94.5689 
L 525.683214 93.889545 
L 526.260316 91.463279 
L 526.837419 91.172127 
L 527.414521 94.277748 
L 527.991623 94.860051 
L 528.568725 95.248254 
L 529.145827 96.801064 
L 530.300031 92.530836 
L 530.877133 96.412862 
L 531.454235 93.695444 
L 532.031337 93.404292 
L 532.608439 97.092216 
L 533.185541 90.880976 
L 533.762643 94.66595 
L 534.339746 94.763001 
L 534.916848 93.016089 
L 535.49395 90.298672 
L 536.071052 94.277748 
L 536.648154 95.054153 
L 537.225256 94.277748 
L 537.802358 94.860051 
L 538.37946 95.733507 
L 538.956562 93.889545 
L 539.533664 94.957102 
L 540.110766 93.501343 
L 540.687868 95.927608 
L 541.264971 92.821988 
L 541.842073 92.142634 
L 542.419175 94.180697 
L 542.996277 93.695444 
L 543.573379 94.277748 
L 544.150481 92.919039 
L 544.727583 96.898115 
L 545.304685 97.286317 
L 545.881787 96.12171 
L 546.458889 96.412862 
L 547.035991 93.792494 
L 547.613093 92.627887 
L 548.190195 94.5689 
L 548.767298 91.657381 
L 549.3444 94.374798 
L 549.921502 91.657381 
L 550.498604 96.509912 
L 551.075706 93.889545 
L 551.652808 95.345305 
L 552.22991 92.142634 
L 552.807012 94.180697 
L 553.384114 95.636456 
L 553.961216 94.083646 
L 554.538318 90.978026 
L 555.11542 96.801064 
L 555.692522 93.404292 
L 556.269625 92.919039 
L 556.846727 92.724938 
L 557.423829 94.5689 
L 558.000931 97.092216 
L 558.578033 92.336735 
L 559.155135 94.763001 
L 559.732237 91.948532 
L 560.309339 94.860051 
L 560.886441 94.763001 
L 561.463543 95.345305 
L 562.040645 94.277748 
L 562.617747 97.480418 
L 563.19485 91.754431 
L 563.771952 96.606963 
L 564.349054 94.957102 
L 564.926156 94.5689 
L 565.503258 90.589824 
L 566.08036 91.657381 
L 566.657462 95.830558 
L 567.234564 92.724938 
L 567.811666 96.606963 
L 568.388768 89.037013 
L 568.96587 91.851482 
L 569.542972 92.239684 
L 570.120074 92.045583 
L 570.697177 90.783925 
L 571.274279 94.374798 
L 571.851381 93.016089 
L 572.428483 96.606963 
L 573.005585 93.598393 
L 573.582687 94.083646 
L 574.159789 95.248254 
L 574.736891 93.210191 
L 575.313993 92.142634 
L 575.891095 95.345305 
L 576.468197 97.092216 
L 577.045299 89.619317 
L 577.622401 95.345305 
L 578.199504 94.277748 
L 578.776606 95.151203 
L 579.353708 98.645026 
L 579.93081 91.172127 
L 580.507912 92.919039 
L 581.085014 96.995165 
L 581.662116 95.151203 
L 582.239218 91.172127 
L 582.81632 95.054153 
L 583.393422 95.927608 
L 583.970524 94.860051 
L 584.547626 93.501343 
L 585.124729 93.11314 
L 585.701831 91.366229 
L 586.278933 94.5689 
L 586.856035 98.450925 
L 587.433137 96.995165 
L 588.010239 92.433786 
L 588.587341 95.733507 
L 589.164443 97.67452 
L 589.741545 95.054153 
L 590.318647 94.083646 
L 590.895749 96.801064 
L 591.472851 98.353874 
L 592.049953 92.530836 
L 592.627056 95.442355 
L 593.204158 93.889545 
L 593.78126 92.919039 
L 594.358362 93.501343 
L 594.935464 92.433786 
L 595.512566 94.763001 
L 596.089668 94.5689 
L 596.66677 94.860051 
L 597.243872 94.860051 
L 597.820974 96.12171 
L 598.398076 96.704013 
L 598.975178 93.11314 
L 599.55228 94.374798 
L 600.129383 93.986596 
L 600.706485 93.307241 
L 601.283587 96.412862 
L 602.437791 93.792494 
L 603.014893 95.636456 
L 603.591995 95.927608 
L 604.169097 90.880976 
L 604.746199 96.606963 
L 605.323301 92.433786 
L 605.900403 94.763001 
L 607.054608 93.598393 
L 607.63171 92.045583 
L 608.208812 95.733507 
L 608.785914 93.986596 
L 609.363016 96.704013 
L 609.940118 93.016089 
L 610.51722 94.5689 
L 611.094322 95.054153 
L 611.671424 91.269178 
L 612.248526 95.927608 
L 612.825628 90.00752 
L 613.979832 93.404292 
L 614.556935 91.948532 
L 615.711139 91.172127 
L 616.288241 92.627887 
L 616.865343 96.024659 
L 617.442445 93.210191 
L 618.019547 92.919039 
L 618.596649 91.366229 
L 619.173751 95.054153 
L 619.750853 94.66595 
L 620.327955 92.919039 
L 621.482159 93.210191 
L 622.059262 93.210191 
L 622.636364 95.151203 
L 622.636364 95.151203 
" style="fill:none;stroke:#ff7f0e;stroke-linecap:square;stroke-width:0.5;"/>
   </g>
   <g id="patch_3">
    <path d="M 90 315 
L 90 43.2 
" style="fill:none;stroke:#000000;stroke-linecap:square;stroke-linejoin:miter;stroke-width:0.8;"/>
   </g>
   <g id="patch_4">
    <path d="M 648 315 
L 648 43.2 
" style="fill:none;stroke:#000000;stroke-linecap:square;stroke-linejoin:miter;stroke-width:0.8;"/>
   </g>
   <g id="patch_5">
    <path d="M 90 315 
L 648 315 
" style="fill:none;stroke:#000000;stroke-linecap:square;stroke-linejoin:miter;stroke-width:0.8;"/>
   </g>
   <g id="patch_6">
    <path d="M 90 43.2 
L 648 43.2 
" style="fill:none;stroke:#000000;stroke-linecap:square;stroke-linejoin:miter;stroke-width:0.8;"/>
   </g>
   <g id="text_15">
    <!-- accuracy -->
    <g transform="translate(341.92875 37.2)scale(0.12 -0.12)">
     <use xlink:href="#DejaVuSans-97"/>
     <use x="61.279297" xlink:href="#DejaVuSans-99"/>
     <use x="116.259766" xlink:href="#DejaVuSans-99"/>
     <use x="171.240234" xlink:href="#DejaVuSans-117"/>
     <use x="234.619141" xlink:href="#DejaVuSans-114"/>
     <use x="275.732422" xlink:href="#DejaVuSans-97"/>
     <use x="337.011719" xlink:href="#DejaVuSans-99"/>
     <use x="391.992188" xlink:href="#DejaVuSans-121"/>
    </g>
   </g>
   <g id="legend_1">
    <g id="patch_7">
     <path d="M 97 80.55625 
L 169.153125 80.55625 
Q 171.153125 80.55625 171.153125 78.55625 
L 171.153125 50.2 
Q 171.153125 48.2 169.153125 48.2 
L 97 48.2 
Q 95 48.2 95 50.2 
L 95 78.55625 
Q 95 80.55625 97 80.55625 
z
" style="fill:#ffffff;opacity:0.8;stroke:#cccccc;stroke-linejoin:miter;"/>
    </g>
    <g id="line2d_27">
     <path d="M 99 56.298437 
L 119 56.298437 
" style="fill:none;stroke:#1f77b4;stroke-linecap:square;stroke-width:0.5;"/>
    </g>
    <g id="line2d_28"/>
    <g id="text_16">
     <!-- train -->
     <defs>
      <path d="M 18.3125 70.21875 
L 18.3125 54.6875 
L 36.8125 54.6875 
L 36.8125 47.703125 
L 18.3125 47.703125 
L 18.3125 18.015625 
Q 18.3125 11.328125 20.140625 9.421875 
Q 21.96875 7.515625 27.59375 7.515625 
L 36.8125 7.515625 
L 36.8125 0 
L 27.59375 0 
Q 17.1875 0 13.234375 3.875 
Q 9.28125 7.765625 9.28125 18.015625 
L 9.28125 47.703125 
L 2.6875 47.703125 
L 2.6875 54.6875 
L 9.28125 54.6875 
L 9.28125 70.21875 
z
" id="DejaVuSans-116"/>
      <path d="M 9.421875 54.6875 
L 18.40625 54.6875 
L 18.40625 0 
L 9.421875 0 
z
M 9.421875 75.984375 
L 18.40625 75.984375 
L 18.40625 64.59375 
L 9.421875 64.59375 
z
" id="DejaVuSans-105"/>
      <path d="M 54.890625 33.015625 
L 54.890625 0 
L 45.90625 0 
L 45.90625 32.71875 
Q 45.90625 40.484375 42.875 44.328125 
Q 39.84375 48.1875 33.796875 48.1875 
Q 26.515625 48.1875 22.3125 43.546875 
Q 18.109375 38.921875 18.109375 30.90625 
L 18.109375 0 
L 9.078125 0 
L 9.078125 54.6875 
L 18.109375 54.6875 
L 18.109375 46.1875 
Q 21.34375 51.125 25.703125 53.5625 
Q 30.078125 56 35.796875 56 
Q 45.21875 56 50.046875 50.171875 
Q 54.890625 44.34375 54.890625 33.015625 
z
" id="DejaVuSans-110"/>
     </defs>
     <g transform="translate(127 59.798437)scale(0.1 -0.1)">
      <use xlink:href="#DejaVuSans-116"/>
      <use x="39.208984" xlink:href="#DejaVuSans-114"/>
      <use x="80.322266" xlink:href="#DejaVuSans-97"/>
      <use x="141.601562" xlink:href="#DejaVuSans-105"/>
      <use x="169.384766" xlink:href="#DejaVuSans-110"/>
     </g>
    </g>
    <g id="line2d_29">
     <path d="M 99 70.976562 
L 119 70.976562 
" style="fill:none;stroke:#ff7f0e;stroke-linecap:square;stroke-width:0.5;"/>
    </g>
    <g id="line2d_30"/>
    <g id="text_17">
     <!-- validate -->
     <defs>
      <path d="M 2.984375 54.6875 
L 12.5 54.6875 
L 29.59375 8.796875 
L 46.6875 54.6875 
L 56.203125 54.6875 
L 35.6875 0 
L 23.484375 0 
z
" id="DejaVuSans-118"/>
      <path d="M 9.421875 75.984375 
L 18.40625 75.984375 
L 18.40625 0 
L 9.421875 0 
z
" id="DejaVuSans-108"/>
      <path d="M 45.40625 46.390625 
L 45.40625 75.984375 
L 54.390625 75.984375 
L 54.390625 0 
L 45.40625 0 
L 45.40625 8.203125 
Q 42.578125 3.328125 38.25 0.953125 
Q 33.9375 -1.421875 27.875 -1.421875 
Q 17.96875 -1.421875 11.734375 6.484375 
Q 5.515625 14.40625 5.515625 27.296875 
Q 5.515625 40.1875 11.734375 48.09375 
Q 17.96875 56 27.875 56 
Q 33.9375 56 38.25 53.625 
Q 42.578125 51.265625 45.40625 46.390625 
z
M 14.796875 27.296875 
Q 14.796875 17.390625 18.875 11.75 
Q 22.953125 6.109375 30.078125 6.109375 
Q 37.203125 6.109375 41.296875 11.75 
Q 45.40625 17.390625 45.40625 27.296875 
Q 45.40625 37.203125 41.296875 42.84375 
Q 37.203125 48.484375 30.078125 48.484375 
Q 22.953125 48.484375 18.875 42.84375 
Q 14.796875 37.203125 14.796875 27.296875 
z
" id="DejaVuSans-100"/>
     </defs>
     <g transform="translate(127 74.476562)scale(0.1 -0.1)">
      <use xlink:href="#DejaVuSans-118"/>
      <use x="59.179688" xlink:href="#DejaVuSans-97"/>
      <use x="120.458984" xlink:href="#DejaVuSans-108"/>
      <use x="148.242188" xlink:href="#DejaVuSans-105"/>
      <use x="176.025391" xlink:href="#DejaVuSans-100"/>
      <use x="239.501953" xlink:href="#DejaVuSans-97"/>
      <use x="300.78125" xlink:href="#DejaVuSans-116"/>
      <use x="339.990234" xlink:href="#DejaVuSans-101"/>
     </g>
    </g>
   </g>
  </g>
 </g>
 <defs>
  <clipPath id="pb4360aaff3">
   <rect height="271.8" width="558" x="90" y="43.2"/>
  </clipPath>
 </defs>
</svg>
