<?xml version="1.0" encoding="utf-8" standalone="no"?>
<!DOCTYPE svg PUBLIC "-//W3C//DTD SVG 1.1//EN"
  "http://www.w3.org/Graphics/SVG/1.1/DTD/svg11.dtd">
<!-- Created with matplotlib (https://matplotlib.org/) -->
<svg height="360pt" version="1.1" viewBox="0 0 720 360" width="720pt" xmlns="http://www.w3.org/2000/svg" xmlns:xlink="http://www.w3.org/1999/xlink">
 <defs>
  <style type="text/css">
*{stroke-linecap:butt;stroke-linejoin:round;}
  </style>
 </defs>
 <g id="figure_1">
  <g id="patch_1">
   <path d="M 0 360 
L 720 360 
L 720 0 
L 0 0 
z
" style="fill:#ffffff;"/>
  </g>
  <g id="axes_1">
   <g id="patch_2">
    <path d="M 90 315 
L 648 315 
L 648 43.2 
L 90 43.2 
z
" style="fill:#ffffff;"/>
   </g>
   <g id="matplotlib.axis_1">
    <g id="xtick_1">
     <g id="line2d_1">
      <path clip-path="url(#p5e8d1520ce)" d="M 115.363636 315 
L 115.363636 43.2 
" style="fill:none;stroke:#b0b0b0;stroke-linecap:square;stroke-width:0.8;"/>
     </g>
     <g id="line2d_2">
      <defs>
       <path d="M 0 0 
L 0 3.5 
" id="m3ef75d9fb1" style="stroke:#000000;stroke-width:0.8;"/>
      </defs>
      <g>
       <use style="stroke:#000000;stroke-width:0.8;" x="115.363636" xlink:href="#m3ef75d9fb1" y="315"/>
      </g>
     </g>
     <g id="text_1">
      <!-- 0 -->
      <defs>
       <path d="M 31.78125 66.40625 
Q 24.171875 66.40625 20.328125 58.90625 
Q 16.5 51.421875 16.5 36.375 
Q 16.5 21.390625 20.328125 13.890625 
Q 24.171875 6.390625 31.78125 6.390625 
Q 39.453125 6.390625 43.28125 13.890625 
Q 47.125 21.390625 47.125 36.375 
Q 47.125 51.421875 43.28125 58.90625 
Q 39.453125 66.40625 31.78125 66.40625 
z
M 31.78125 74.21875 
Q 44.046875 74.21875 50.515625 64.515625 
Q 56.984375 54.828125 56.984375 36.375 
Q 56.984375 17.96875 50.515625 8.265625 
Q 44.046875 -1.421875 31.78125 -1.421875 
Q 19.53125 -1.421875 13.0625 8.265625 
Q 6.59375 17.96875 6.59375 36.375 
Q 6.59375 54.828125 13.0625 64.515625 
Q 19.53125 74.21875 31.78125 74.21875 
z
" id="DejaVuSans-48"/>
      </defs>
      <g transform="translate(112.182386 329.598437)scale(0.1 -0.1)">
       <use xlink:href="#DejaVuSans-48"/>
      </g>
     </g>
    </g>
    <g id="xtick_2">
     <g id="line2d_3">
      <path clip-path="url(#p5e8d1520ce)" d="M 185.916171 315 
L 185.916171 43.2 
" style="fill:none;stroke:#b0b0b0;stroke-linecap:square;stroke-width:0.8;"/>
     </g>
     <g id="line2d_4">
      <g>
       <use style="stroke:#000000;stroke-width:0.8;" x="185.916171" xlink:href="#m3ef75d9fb1" y="315"/>
      </g>
     </g>
     <g id="text_2">
      <!-- 200 -->
      <defs>
       <path d="M 19.1875 8.296875 
L 53.609375 8.296875 
L 53.609375 0 
L 7.328125 0 
L 7.328125 8.296875 
Q 12.9375 14.109375 22.625 23.890625 
Q 32.328125 33.6875 34.8125 36.53125 
Q 39.546875 41.84375 41.421875 45.53125 
Q 43.3125 49.21875 43.3125 52.78125 
Q 43.3125 58.59375 39.234375 62.25 
Q 35.15625 65.921875 28.609375 65.921875 
Q 23.96875 65.921875 18.8125 64.3125 
Q 13.671875 62.703125 7.8125 59.421875 
L 7.8125 69.390625 
Q 13.765625 71.78125 18.9375 73 
Q 24.125 74.21875 28.421875 74.21875 
Q 39.75 74.21875 46.484375 68.546875 
Q 53.21875 62.890625 53.21875 53.421875 
Q 53.21875 48.921875 51.53125 44.890625 
Q 49.859375 40.875 45.40625 35.40625 
Q 44.1875 33.984375 37.640625 27.21875 
Q 31.109375 20.453125 19.1875 8.296875 
z
" id="DejaVuSans-50"/>
      </defs>
      <g transform="translate(176.372421 329.598437)scale(0.1 -0.1)">
       <use xlink:href="#DejaVuSans-50"/>
       <use x="63.623047" xlink:href="#DejaVuSans-48"/>
       <use x="127.246094" xlink:href="#DejaVuSans-48"/>
      </g>
     </g>
    </g>
    <g id="xtick_3">
     <g id="line2d_5">
      <path clip-path="url(#p5e8d1520ce)" d="M 256.468707 315 
L 256.468707 43.2 
" style="fill:none;stroke:#b0b0b0;stroke-linecap:square;stroke-width:0.8;"/>
     </g>
     <g id="line2d_6">
      <g>
       <use style="stroke:#000000;stroke-width:0.8;" x="256.468707" xlink:href="#m3ef75d9fb1" y="315"/>
      </g>
     </g>
     <g id="text_3">
      <!-- 400 -->
      <defs>
       <path d="M 37.796875 64.3125 
L 12.890625 25.390625 
L 37.796875 25.390625 
z
M 35.203125 72.90625 
L 47.609375 72.90625 
L 47.609375 25.390625 
L 58.015625 25.390625 
L 58.015625 17.1875 
L 47.609375 17.1875 
L 47.609375 0 
L 37.796875 0 
L 37.796875 17.1875 
L 4.890625 17.1875 
L 4.890625 26.703125 
z
" id="DejaVuSans-52"/>
      </defs>
      <g transform="translate(246.924957 329.598437)scale(0.1 -0.1)">
       <use xlink:href="#DejaVuSans-52"/>
       <use x="63.623047" xlink:href="#DejaVuSans-48"/>
       <use x="127.246094" xlink:href="#DejaVuSans-48"/>
      </g>
     </g>
    </g>
    <g id="xtick_4">
     <g id="line2d_7">
      <path clip-path="url(#p5e8d1520ce)" d="M 327.021242 315 
L 327.021242 43.2 
" style="fill:none;stroke:#b0b0b0;stroke-linecap:square;stroke-width:0.8;"/>
     </g>
     <g id="line2d_8">
      <g>
       <use style="stroke:#000000;stroke-width:0.8;" x="327.021242" xlink:href="#m3ef75d9fb1" y="315"/>
      </g>
     </g>
     <g id="text_4">
      <!-- 600 -->
      <defs>
       <path d="M 33.015625 40.375 
Q 26.375 40.375 22.484375 35.828125 
Q 18.609375 31.296875 18.609375 23.390625 
Q 18.609375 15.53125 22.484375 10.953125 
Q 26.375 6.390625 33.015625 6.390625 
Q 39.65625 6.390625 43.53125 10.953125 
Q 47.40625 15.53125 47.40625 23.390625 
Q 47.40625 31.296875 43.53125 35.828125 
Q 39.65625 40.375 33.015625 40.375 
z
M 52.59375 71.296875 
L 52.59375 62.3125 
Q 48.875 64.0625 45.09375 64.984375 
Q 41.3125 65.921875 37.59375 65.921875 
Q 27.828125 65.921875 22.671875 59.328125 
Q 17.53125 52.734375 16.796875 39.40625 
Q 19.671875 43.65625 24.015625 45.921875 
Q 28.375 48.1875 33.59375 48.1875 
Q 44.578125 48.1875 50.953125 41.515625 
Q 57.328125 34.859375 57.328125 23.390625 
Q 57.328125 12.15625 50.6875 5.359375 
Q 44.046875 -1.421875 33.015625 -1.421875 
Q 20.359375 -1.421875 13.671875 8.265625 
Q 6.984375 17.96875 6.984375 36.375 
Q 6.984375 53.65625 15.1875 63.9375 
Q 23.390625 74.21875 37.203125 74.21875 
Q 40.921875 74.21875 44.703125 73.484375 
Q 48.484375 72.75 52.59375 71.296875 
z
" id="DejaVuSans-54"/>
      </defs>
      <g transform="translate(317.477492 329.598437)scale(0.1 -0.1)">
       <use xlink:href="#DejaVuSans-54"/>
       <use x="63.623047" xlink:href="#DejaVuSans-48"/>
       <use x="127.246094" xlink:href="#DejaVuSans-48"/>
      </g>
     </g>
    </g>
    <g id="xtick_5">
     <g id="line2d_9">
      <path clip-path="url(#p5e8d1520ce)" d="M 397.573777 315 
L 397.573777 43.2 
" style="fill:none;stroke:#b0b0b0;stroke-linecap:square;stroke-width:0.8;"/>
     </g>
     <g id="line2d_10">
      <g>
       <use style="stroke:#000000;stroke-width:0.8;" x="397.573777" xlink:href="#m3ef75d9fb1" y="315"/>
      </g>
     </g>
     <g id="text_5">
      <!-- 800 -->
      <defs>
       <path d="M 31.78125 34.625 
Q 24.75 34.625 20.71875 30.859375 
Q 16.703125 27.09375 16.703125 20.515625 
Q 16.703125 13.921875 20.71875 10.15625 
Q 24.75 6.390625 31.78125 6.390625 
Q 38.8125 6.390625 42.859375 10.171875 
Q 46.921875 13.96875 46.921875 20.515625 
Q 46.921875 27.09375 42.890625 30.859375 
Q 38.875 34.625 31.78125 34.625 
z
M 21.921875 38.8125 
Q 15.578125 40.375 12.03125 44.71875 
Q 8.5 49.078125 8.5 55.328125 
Q 8.5 64.0625 14.71875 69.140625 
Q 20.953125 74.21875 31.78125 74.21875 
Q 42.671875 74.21875 48.875 69.140625 
Q 55.078125 64.0625 55.078125 55.328125 
Q 55.078125 49.078125 51.53125 44.71875 
Q 48 40.375 41.703125 38.8125 
Q 48.828125 37.15625 52.796875 32.3125 
Q 56.78125 27.484375 56.78125 20.515625 
Q 56.78125 9.90625 50.3125 4.234375 
Q 43.84375 -1.421875 31.78125 -1.421875 
Q 19.734375 -1.421875 13.25 4.234375 
Q 6.78125 9.90625 6.78125 20.515625 
Q 6.78125 27.484375 10.78125 32.3125 
Q 14.796875 37.15625 21.921875 38.8125 
z
M 18.3125 54.390625 
Q 18.3125 48.734375 21.84375 45.5625 
Q 25.390625 42.390625 31.78125 42.390625 
Q 38.140625 42.390625 41.71875 45.5625 
Q 45.3125 48.734375 45.3125 54.390625 
Q 45.3125 60.0625 41.71875 63.234375 
Q 38.140625 66.40625 31.78125 66.40625 
Q 25.390625 66.40625 21.84375 63.234375 
Q 18.3125 60.0625 18.3125 54.390625 
z
" id="DejaVuSans-56"/>
      </defs>
      <g transform="translate(388.030027 329.598437)scale(0.1 -0.1)">
       <use xlink:href="#DejaVuSans-56"/>
       <use x="63.623047" xlink:href="#DejaVuSans-48"/>
       <use x="127.246094" xlink:href="#DejaVuSans-48"/>
      </g>
     </g>
    </g>
    <g id="xtick_6">
     <g id="line2d_11">
      <path clip-path="url(#p5e8d1520ce)" d="M 468.126312 315 
L 468.126312 43.2 
" style="fill:none;stroke:#b0b0b0;stroke-linecap:square;stroke-width:0.8;"/>
     </g>
     <g id="line2d_12">
      <g>
       <use style="stroke:#000000;stroke-width:0.8;" x="468.126312" xlink:href="#m3ef75d9fb1" y="315"/>
      </g>
     </g>
     <g id="text_6">
      <!-- 1000 -->
      <defs>
       <path d="M 12.40625 8.296875 
L 28.515625 8.296875 
L 28.515625 63.921875 
L 10.984375 60.40625 
L 10.984375 69.390625 
L 28.421875 72.90625 
L 38.28125 72.90625 
L 38.28125 8.296875 
L 54.390625 8.296875 
L 54.390625 0 
L 12.40625 0 
z
" id="DejaVuSans-49"/>
      </defs>
      <g transform="translate(455.401312 329.598437)scale(0.1 -0.1)">
       <use xlink:href="#DejaVuSans-49"/>
       <use x="63.623047" xlink:href="#DejaVuSans-48"/>
       <use x="127.246094" xlink:href="#DejaVuSans-48"/>
       <use x="190.869141" xlink:href="#DejaVuSans-48"/>
      </g>
     </g>
    </g>
    <g id="xtick_7">
     <g id="line2d_13">
      <path clip-path="url(#p5e8d1520ce)" d="M 538.678847 315 
L 538.678847 43.2 
" style="fill:none;stroke:#b0b0b0;stroke-linecap:square;stroke-width:0.8;"/>
     </g>
     <g id="line2d_14">
      <g>
       <use style="stroke:#000000;stroke-width:0.8;" x="538.678847" xlink:href="#m3ef75d9fb1" y="315"/>
      </g>
     </g>
     <g id="text_7">
      <!-- 1200 -->
      <g transform="translate(525.953847 329.598437)scale(0.1 -0.1)">
       <use xlink:href="#DejaVuSans-49"/>
       <use x="63.623047" xlink:href="#DejaVuSans-50"/>
       <use x="127.246094" xlink:href="#DejaVuSans-48"/>
       <use x="190.869141" xlink:href="#DejaVuSans-48"/>
      </g>
     </g>
    </g>
    <g id="xtick_8">
     <g id="line2d_15">
      <path clip-path="url(#p5e8d1520ce)" d="M 609.231382 315 
L 609.231382 43.2 
" style="fill:none;stroke:#b0b0b0;stroke-linecap:square;stroke-width:0.8;"/>
     </g>
     <g id="line2d_16">
      <g>
       <use style="stroke:#000000;stroke-width:0.8;" x="609.231382" xlink:href="#m3ef75d9fb1" y="315"/>
      </g>
     </g>
     <g id="text_8">
      <!-- 1400 -->
      <g transform="translate(596.506382 329.598437)scale(0.1 -0.1)">
       <use xlink:href="#DejaVuSans-49"/>
       <use x="63.623047" xlink:href="#DejaVuSans-52"/>
       <use x="127.246094" xlink:href="#DejaVuSans-48"/>
       <use x="190.869141" xlink:href="#DejaVuSans-48"/>
      </g>
     </g>
    </g>
    <g id="text_9">
     <!-- epoch -->
     <defs>
      <path d="M 56.203125 29.59375 
L 56.203125 25.203125 
L 14.890625 25.203125 
Q 15.484375 15.921875 20.484375 11.0625 
Q 25.484375 6.203125 34.421875 6.203125 
Q 39.59375 6.203125 44.453125 7.46875 
Q 49.3125 8.734375 54.109375 11.28125 
L 54.109375 2.78125 
Q 49.265625 0.734375 44.1875 -0.34375 
Q 39.109375 -1.421875 33.890625 -1.421875 
Q 20.796875 -1.421875 13.15625 6.1875 
Q 5.515625 13.8125 5.515625 26.8125 
Q 5.515625 40.234375 12.765625 48.109375 
Q 20.015625 56 32.328125 56 
Q 43.359375 56 49.78125 48.890625 
Q 56.203125 41.796875 56.203125 29.59375 
z
M 47.21875 32.234375 
Q 47.125 39.59375 43.09375 43.984375 
Q 39.0625 48.390625 32.421875 48.390625 
Q 24.90625 48.390625 20.390625 44.140625 
Q 15.875 39.890625 15.1875 32.171875 
z
" id="DejaVuSans-101"/>
      <path d="M 18.109375 8.203125 
L 18.109375 -20.796875 
L 9.078125 -20.796875 
L 9.078125 54.6875 
L 18.109375 54.6875 
L 18.109375 46.390625 
Q 20.953125 51.265625 25.265625 53.625 
Q 29.59375 56 35.59375 56 
Q 45.5625 56 51.78125 48.09375 
Q 58.015625 40.1875 58.015625 27.296875 
Q 58.015625 14.40625 51.78125 6.484375 
Q 45.5625 -1.421875 35.59375 -1.421875 
Q 29.59375 -1.421875 25.265625 0.953125 
Q 20.953125 3.328125 18.109375 8.203125 
z
M 48.6875 27.296875 
Q 48.6875 37.203125 44.609375 42.84375 
Q 40.53125 48.484375 33.40625 48.484375 
Q 26.265625 48.484375 22.1875 42.84375 
Q 18.109375 37.203125 18.109375 27.296875 
Q 18.109375 17.390625 22.1875 11.75 
Q 26.265625 6.109375 33.40625 6.109375 
Q 40.53125 6.109375 44.609375 11.75 
Q 48.6875 17.390625 48.6875 27.296875 
z
" id="DejaVuSans-112"/>
      <path d="M 30.609375 48.390625 
Q 23.390625 48.390625 19.1875 42.75 
Q 14.984375 37.109375 14.984375 27.296875 
Q 14.984375 17.484375 19.15625 11.84375 
Q 23.34375 6.203125 30.609375 6.203125 
Q 37.796875 6.203125 41.984375 11.859375 
Q 46.1875 17.53125 46.1875 27.296875 
Q 46.1875 37.015625 41.984375 42.703125 
Q 37.796875 48.390625 30.609375 48.390625 
z
M 30.609375 56 
Q 42.328125 56 49.015625 48.375 
Q 55.71875 40.765625 55.71875 27.296875 
Q 55.71875 13.875 49.015625 6.21875 
Q 42.328125 -1.421875 30.609375 -1.421875 
Q 18.84375 -1.421875 12.171875 6.21875 
Q 5.515625 13.875 5.515625 27.296875 
Q 5.515625 40.765625 12.171875 48.375 
Q 18.84375 56 30.609375 56 
z
" id="DejaVuSans-111"/>
      <path d="M 48.78125 52.59375 
L 48.78125 44.1875 
Q 44.96875 46.296875 41.140625 47.34375 
Q 37.3125 48.390625 33.40625 48.390625 
Q 24.65625 48.390625 19.8125 42.84375 
Q 14.984375 37.3125 14.984375 27.296875 
Q 14.984375 17.28125 19.8125 11.734375 
Q 24.65625 6.203125 33.40625 6.203125 
Q 37.3125 6.203125 41.140625 7.25 
Q 44.96875 8.296875 48.78125 10.40625 
L 48.78125 2.09375 
Q 45.015625 0.34375 40.984375 -0.53125 
Q 36.96875 -1.421875 32.421875 -1.421875 
Q 20.0625 -1.421875 12.78125 6.34375 
Q 5.515625 14.109375 5.515625 27.296875 
Q 5.515625 40.671875 12.859375 48.328125 
Q 20.21875 56 33.015625 56 
Q 37.15625 56 41.109375 55.140625 
Q 45.0625 54.296875 48.78125 52.59375 
z
" id="DejaVuSans-99"/>
      <path d="M 54.890625 33.015625 
L 54.890625 0 
L 45.90625 0 
L 45.90625 32.71875 
Q 45.90625 40.484375 42.875 44.328125 
Q 39.84375 48.1875 33.796875 48.1875 
Q 26.515625 48.1875 22.3125 43.546875 
Q 18.109375 38.921875 18.109375 30.90625 
L 18.109375 0 
L 9.078125 0 
L 9.078125 75.984375 
L 18.109375 75.984375 
L 18.109375 46.1875 
Q 21.34375 51.125 25.703125 53.5625 
Q 30.078125 56 35.796875 56 
Q 45.21875 56 50.046875 50.171875 
Q 54.890625 44.34375 54.890625 33.015625 
z
" id="DejaVuSans-104"/>
     </defs>
     <g transform="translate(353.771875 343.276563)scale(0.1 -0.1)">
      <use xlink:href="#DejaVuSans-101"/>
      <use x="61.523438" xlink:href="#DejaVuSans-112"/>
      <use x="125" xlink:href="#DejaVuSans-111"/>
      <use x="186.181641" xlink:href="#DejaVuSans-99"/>
      <use x="241.162109" xlink:href="#DejaVuSans-104"/>
     </g>
    </g>
   </g>
   <g id="matplotlib.axis_2">
    <g id="ytick_1">
     <g id="line2d_17">
      <path clip-path="url(#p5e8d1520ce)" d="M 90 288.080096 
L 648 288.080096 
" style="fill:none;stroke:#b0b0b0;stroke-linecap:square;stroke-width:0.8;"/>
     </g>
     <g id="line2d_18">
      <defs>
       <path d="M 0 0 
L -3.5 0 
" id="m23befd0d2e" style="stroke:#000000;stroke-width:0.8;"/>
      </defs>
      <g>
       <use style="stroke:#000000;stroke-width:0.8;" x="90" xlink:href="#m23befd0d2e" y="288.080096"/>
      </g>
     </g>
     <g id="text_10">
      <!-- 0.3 -->
      <defs>
       <path d="M 10.6875 12.40625 
L 21 12.40625 
L 21 0 
L 10.6875 0 
z
" id="DejaVuSans-46"/>
       <path d="M 40.578125 39.3125 
Q 47.65625 37.796875 51.625 33 
Q 55.609375 28.21875 55.609375 21.1875 
Q 55.609375 10.40625 48.1875 4.484375 
Q 40.765625 -1.421875 27.09375 -1.421875 
Q 22.515625 -1.421875 17.65625 -0.515625 
Q 12.796875 0.390625 7.625 2.203125 
L 7.625 11.71875 
Q 11.71875 9.328125 16.59375 8.109375 
Q 21.484375 6.890625 26.8125 6.890625 
Q 36.078125 6.890625 40.9375 10.546875 
Q 45.796875 14.203125 45.796875 21.1875 
Q 45.796875 27.640625 41.28125 31.265625 
Q 36.765625 34.90625 28.71875 34.90625 
L 20.21875 34.90625 
L 20.21875 43.015625 
L 29.109375 43.015625 
Q 36.375 43.015625 40.234375 45.921875 
Q 44.09375 48.828125 44.09375 54.296875 
Q 44.09375 59.90625 40.109375 62.90625 
Q 36.140625 65.921875 28.71875 65.921875 
Q 24.65625 65.921875 20.015625 65.03125 
Q 15.375 64.15625 9.8125 62.3125 
L 9.8125 71.09375 
Q 15.4375 72.65625 20.34375 73.4375 
Q 25.25 74.21875 29.59375 74.21875 
Q 40.828125 74.21875 47.359375 69.109375 
Q 53.90625 64.015625 53.90625 55.328125 
Q 53.90625 49.265625 50.4375 45.09375 
Q 46.96875 40.921875 40.578125 39.3125 
z
" id="DejaVuSans-51"/>
      </defs>
      <g transform="translate(67.096875 291.879314)scale(0.1 -0.1)">
       <use xlink:href="#DejaVuSans-48"/>
       <use x="63.623047" xlink:href="#DejaVuSans-46"/>
       <use x="95.410156" xlink:href="#DejaVuSans-51"/>
      </g>
     </g>
    </g>
    <g id="ytick_2">
     <g id="line2d_19">
      <path clip-path="url(#p5e8d1520ce)" d="M 90 253.40067 
L 648 253.40067 
" style="fill:none;stroke:#b0b0b0;stroke-linecap:square;stroke-width:0.8;"/>
     </g>
     <g id="line2d_20">
      <g>
       <use style="stroke:#000000;stroke-width:0.8;" x="90" xlink:href="#m23befd0d2e" y="253.40067"/>
      </g>
     </g>
     <g id="text_11">
      <!-- 0.4 -->
      <g transform="translate(67.096875 257.199889)scale(0.1 -0.1)">
       <use xlink:href="#DejaVuSans-48"/>
       <use x="63.623047" xlink:href="#DejaVuSans-46"/>
       <use x="95.410156" xlink:href="#DejaVuSans-52"/>
      </g>
     </g>
    </g>
    <g id="ytick_3">
     <g id="line2d_21">
      <path clip-path="url(#p5e8d1520ce)" d="M 90 218.721244 
L 648 218.721244 
" style="fill:none;stroke:#b0b0b0;stroke-linecap:square;stroke-width:0.8;"/>
     </g>
     <g id="line2d_22">
      <g>
       <use style="stroke:#000000;stroke-width:0.8;" x="90" xlink:href="#m23befd0d2e" y="218.721244"/>
      </g>
     </g>
     <g id="text_12">
      <!-- 0.5 -->
      <defs>
       <path d="M 10.796875 72.90625 
L 49.515625 72.90625 
L 49.515625 64.59375 
L 19.828125 64.59375 
L 19.828125 46.734375 
Q 21.96875 47.46875 24.109375 47.828125 
Q 26.265625 48.1875 28.421875 48.1875 
Q 40.625 48.1875 47.75 41.5 
Q 54.890625 34.8125 54.890625 23.390625 
Q 54.890625 11.625 47.5625 5.09375 
Q 40.234375 -1.421875 26.90625 -1.421875 
Q 22.3125 -1.421875 17.546875 -0.640625 
Q 12.796875 0.140625 7.71875 1.703125 
L 7.71875 11.625 
Q 12.109375 9.234375 16.796875 8.0625 
Q 21.484375 6.890625 26.703125 6.890625 
Q 35.15625 6.890625 40.078125 11.328125 
Q 45.015625 15.765625 45.015625 23.390625 
Q 45.015625 31 40.078125 35.4375 
Q 35.15625 39.890625 26.703125 39.890625 
Q 22.75 39.890625 18.8125 39.015625 
Q 14.890625 38.140625 10.796875 36.28125 
z
" id="DejaVuSans-53"/>
      </defs>
      <g transform="translate(67.096875 222.520463)scale(0.1 -0.1)">
       <use xlink:href="#DejaVuSans-48"/>
       <use x="63.623047" xlink:href="#DejaVuSans-46"/>
       <use x="95.410156" xlink:href="#DejaVuSans-53"/>
      </g>
     </g>
    </g>
    <g id="ytick_4">
     <g id="line2d_23">
      <path clip-path="url(#p5e8d1520ce)" d="M 90 184.041818 
L 648 184.041818 
" style="fill:none;stroke:#b0b0b0;stroke-linecap:square;stroke-width:0.8;"/>
     </g>
     <g id="line2d_24">
      <g>
       <use style="stroke:#000000;stroke-width:0.8;" x="90" xlink:href="#m23befd0d2e" y="184.041818"/>
      </g>
     </g>
     <g id="text_13">
      <!-- 0.6 -->
      <g transform="translate(67.096875 187.841037)scale(0.1 -0.1)">
       <use xlink:href="#DejaVuSans-48"/>
       <use x="63.623047" xlink:href="#DejaVuSans-46"/>
       <use x="95.410156" xlink:href="#DejaVuSans-54"/>
      </g>
     </g>
    </g>
    <g id="ytick_5">
     <g id="line2d_25">
      <path clip-path="url(#p5e8d1520ce)" d="M 90 149.362392 
L 648 149.362392 
" style="fill:none;stroke:#b0b0b0;stroke-linecap:square;stroke-width:0.8;"/>
     </g>
     <g id="line2d_26">
      <g>
       <use style="stroke:#000000;stroke-width:0.8;" x="90" xlink:href="#m23befd0d2e" y="149.362392"/>
      </g>
     </g>
     <g id="text_14">
      <!-- 0.7 -->
      <defs>
       <path d="M 8.203125 72.90625 
L 55.078125 72.90625 
L 55.078125 68.703125 
L 28.609375 0 
L 18.3125 0 
L 43.21875 64.59375 
L 8.203125 64.59375 
z
" id="DejaVuSans-55"/>
      </defs>
      <g transform="translate(67.096875 153.161611)scale(0.1 -0.1)">
       <use xlink:href="#DejaVuSans-48"/>
       <use x="63.623047" xlink:href="#DejaVuSans-46"/>
       <use x="95.410156" xlink:href="#DejaVuSans-55"/>
      </g>
     </g>
    </g>
    <g id="ytick_6">
     <g id="line2d_27">
      <path clip-path="url(#p5e8d1520ce)" d="M 90 114.682967 
L 648 114.682967 
" style="fill:none;stroke:#b0b0b0;stroke-linecap:square;stroke-width:0.8;"/>
     </g>
     <g id="line2d_28">
      <g>
       <use style="stroke:#000000;stroke-width:0.8;" x="90" xlink:href="#m23befd0d2e" y="114.682967"/>
      </g>
     </g>
     <g id="text_15">
      <!-- 0.8 -->
      <g transform="translate(67.096875 118.482185)scale(0.1 -0.1)">
       <use xlink:href="#DejaVuSans-48"/>
       <use x="63.623047" xlink:href="#DejaVuSans-46"/>
       <use x="95.410156" xlink:href="#DejaVuSans-56"/>
      </g>
     </g>
    </g>
    <g id="ytick_7">
     <g id="line2d_29">
      <path clip-path="url(#p5e8d1520ce)" d="M 90 80.003541 
L 648 80.003541 
" style="fill:none;stroke:#b0b0b0;stroke-linecap:square;stroke-width:0.8;"/>
     </g>
     <g id="line2d_30">
      <g>
       <use style="stroke:#000000;stroke-width:0.8;" x="90" xlink:href="#m23befd0d2e" y="80.003541"/>
      </g>
     </g>
     <g id="text_16">
      <!-- 0.9 -->
      <defs>
       <path d="M 10.984375 1.515625 
L 10.984375 10.5 
Q 14.703125 8.734375 18.5 7.8125 
Q 22.3125 6.890625 25.984375 6.890625 
Q 35.75 6.890625 40.890625 13.453125 
Q 46.046875 20.015625 46.78125 33.40625 
Q 43.953125 29.203125 39.59375 26.953125 
Q 35.25 24.703125 29.984375 24.703125 
Q 19.046875 24.703125 12.671875 31.3125 
Q 6.296875 37.9375 6.296875 49.421875 
Q 6.296875 60.640625 12.9375 67.421875 
Q 19.578125 74.21875 30.609375 74.21875 
Q 43.265625 74.21875 49.921875 64.515625 
Q 56.59375 54.828125 56.59375 36.375 
Q 56.59375 19.140625 48.40625 8.859375 
Q 40.234375 -1.421875 26.421875 -1.421875 
Q 22.703125 -1.421875 18.890625 -0.6875 
Q 15.09375 0.046875 10.984375 1.515625 
z
M 30.609375 32.421875 
Q 37.25 32.421875 41.125 36.953125 
Q 45.015625 41.5 45.015625 49.421875 
Q 45.015625 57.28125 41.125 61.84375 
Q 37.25 66.40625 30.609375 66.40625 
Q 23.96875 66.40625 20.09375 61.84375 
Q 16.21875 57.28125 16.21875 49.421875 
Q 16.21875 41.5 20.09375 36.953125 
Q 23.96875 32.421875 30.609375 32.421875 
z
" id="DejaVuSans-57"/>
      </defs>
      <g transform="translate(67.096875 83.802759)scale(0.1 -0.1)">
       <use xlink:href="#DejaVuSans-48"/>
       <use x="63.623047" xlink:href="#DejaVuSans-46"/>
       <use x="95.410156" xlink:href="#DejaVuSans-57"/>
      </g>
     </g>
    </g>
    <g id="ytick_8">
     <g id="line2d_31">
      <path clip-path="url(#p5e8d1520ce)" d="M 90 45.324115 
L 648 45.324115 
" style="fill:none;stroke:#b0b0b0;stroke-linecap:square;stroke-width:0.8;"/>
     </g>
     <g id="line2d_32">
      <g>
       <use style="stroke:#000000;stroke-width:0.8;" x="90" xlink:href="#m23befd0d2e" y="45.324115"/>
      </g>
     </g>
     <g id="text_17">
      <!-- 1.0 -->
      <g transform="translate(67.096875 49.123334)scale(0.1 -0.1)">
       <use xlink:href="#DejaVuSans-49"/>
       <use x="63.623047" xlink:href="#DejaVuSans-46"/>
       <use x="95.410156" xlink:href="#DejaVuSans-48"/>
      </g>
     </g>
    </g>
    <g id="text_18">
     <!-- accuracy -->
     <defs>
      <path d="M 34.28125 27.484375 
Q 23.390625 27.484375 19.1875 25 
Q 14.984375 22.515625 14.984375 16.5 
Q 14.984375 11.71875 18.140625 8.90625 
Q 21.296875 6.109375 26.703125 6.109375 
Q 34.1875 6.109375 38.703125 11.40625 
Q 43.21875 16.703125 43.21875 25.484375 
L 43.21875 27.484375 
z
M 52.203125 31.203125 
L 52.203125 0 
L 43.21875 0 
L 43.21875 8.296875 
Q 40.140625 3.328125 35.546875 0.953125 
Q 30.953125 -1.421875 24.3125 -1.421875 
Q 15.921875 -1.421875 10.953125 3.296875 
Q 6 8.015625 6 15.921875 
Q 6 25.140625 12.171875 29.828125 
Q 18.359375 34.515625 30.609375 34.515625 
L 43.21875 34.515625 
L 43.21875 35.40625 
Q 43.21875 41.609375 39.140625 45 
Q 35.0625 48.390625 27.6875 48.390625 
Q 23 48.390625 18.546875 47.265625 
Q 14.109375 46.140625 10.015625 43.890625 
L 10.015625 52.203125 
Q 14.9375 54.109375 19.578125 55.046875 
Q 24.21875 56 28.609375 56 
Q 40.484375 56 46.34375 49.84375 
Q 52.203125 43.703125 52.203125 31.203125 
z
" id="DejaVuSans-97"/>
      <path d="M 8.5 21.578125 
L 8.5 54.6875 
L 17.484375 54.6875 
L 17.484375 21.921875 
Q 17.484375 14.15625 20.5 10.265625 
Q 23.53125 6.390625 29.59375 6.390625 
Q 36.859375 6.390625 41.078125 11.03125 
Q 45.3125 15.671875 45.3125 23.6875 
L 45.3125 54.6875 
L 54.296875 54.6875 
L 54.296875 0 
L 45.3125 0 
L 45.3125 8.40625 
Q 42.046875 3.421875 37.71875 1 
Q 33.40625 -1.421875 27.6875 -1.421875 
Q 18.265625 -1.421875 13.375 4.4375 
Q 8.5 10.296875 8.5 21.578125 
z
M 31.109375 56 
z
" id="DejaVuSans-117"/>
      <path d="M 41.109375 46.296875 
Q 39.59375 47.171875 37.8125 47.578125 
Q 36.03125 48 33.890625 48 
Q 26.265625 48 22.1875 43.046875 
Q 18.109375 38.09375 18.109375 28.8125 
L 18.109375 0 
L 9.078125 0 
L 9.078125 54.6875 
L 18.109375 54.6875 
L 18.109375 46.1875 
Q 20.953125 51.171875 25.484375 53.578125 
Q 30.03125 56 36.53125 56 
Q 37.453125 56 38.578125 55.875 
Q 39.703125 55.765625 41.0625 55.515625 
z
" id="DejaVuSans-114"/>
      <path d="M 32.171875 -5.078125 
Q 28.375 -14.84375 24.75 -17.8125 
Q 21.140625 -20.796875 15.09375 -20.796875 
L 7.90625 -20.796875 
L 7.90625 -13.28125 
L 13.1875 -13.28125 
Q 16.890625 -13.28125 18.9375 -11.515625 
Q 21 -9.765625 23.484375 -3.21875 
L 25.09375 0.875 
L 2.984375 54.6875 
L 12.5 54.6875 
L 29.59375 11.921875 
L 46.6875 54.6875 
L 56.203125 54.6875 
z
" id="DejaVuSans-121"/>
     </defs>
     <g transform="translate(61.017187 201.659375)rotate(-90)scale(0.1 -0.1)">
      <use xlink:href="#DejaVuSans-97"/>
      <use x="61.279297" xlink:href="#DejaVuSans-99"/>
      <use x="116.259766" xlink:href="#DejaVuSans-99"/>
      <use x="171.240234" xlink:href="#DejaVuSans-117"/>
      <use x="234.619141" xlink:href="#DejaVuSans-114"/>
      <use x="275.732422" xlink:href="#DejaVuSans-97"/>
      <use x="337.011719" xlink:href="#DejaVuSans-99"/>
      <use x="391.992188" xlink:href="#DejaVuSans-121"/>
     </g>
    </g>
   </g>
   <g id="line2d_33">
    <path clip-path="url(#p5e8d1520ce)" d="M 115.363636 302.038565 
L 115.716399 300.564689 
L 116.069162 297.963732 
L 116.421924 300.564689 
L 116.774687 297.010048 
L 117.12745 297.096746 
L 117.480212 295.449474 
L 117.832975 297.703636 
L 118.5385 289.380574 
L 118.891263 288.340191 
L 119.244026 281.230909 
L 119.596788 283.485072 
L 119.949551 280.970813 
L 120.655076 274.468421 
L 121.007839 273.94823 
L 121.360602 271.954163 
L 121.713365 264.064593 
L 122.41889 256.521818 
L 122.771653 253.053876 
L 123.124415 252.446986 
L 123.829941 244.123923 
L 124.182703 239.268804 
L 124.535466 236.754545 
L 124.888229 235.193971 
L 125.240991 230.685646 
L 125.593754 231.63933 
L 125.946517 222.969474 
L 126.299279 220.888708 
L 126.652042 221.582297 
L 127.004805 220.281818 
L 127.357567 213.345933 
L 127.71033 209.617895 
L 128.768618 195.312632 
L 129.121381 190.977703 
L 129.474143 190.457512 
L 130.179669 179.186699 
L 130.532431 174.071483 
L 130.885194 175.805455 
L 131.590719 168.089282 
L 131.943482 160.459809 
L 132.296245 159.592823 
L 132.649007 155.51799 
L 133.00177 155.084498 
L 133.354533 155.778086 
L 133.707295 150.662871 
L 134.412821 148.408708 
L 134.765584 144.940766 
L 135.118346 146.067847 
L 135.823872 143.553589 
L 136.176634 140.779234 
L 136.529397 136.7911 
L 136.88216 138.61177 
L 137.234922 141.819617 
L 137.587685 137.484689 
L 137.940448 137.311292 
L 138.29321 136.270909 
L 138.645973 132.109378 
L 138.998736 136.704402 
L 139.704261 128.554737 
L 140.057024 131.589187 
L 140.409786 129.508421 
L 140.762549 129.768517 
L 141.115312 124.566603 
L 141.468074 133.149761 
L 141.820837 126.127177 
L 142.1736 122.832632 
L 142.526362 126.907464 
L 142.879125 122.225742 
L 143.231888 123.266124 
L 143.58465 119.451388 
L 143.937413 119.88488 
L 144.290176 116.937129 
L 144.642938 119.538086 
L 144.995701 119.017895 
L 145.348464 114.943062 
L 146.053989 119.017895 
L 146.406752 113.209091 
L 146.759514 115.636651 
L 147.112277 114.509569 
L 147.46504 113.989378 
L 148.170565 114.076077 
L 148.523328 110.521435 
L 149.228853 107.140191 
L 149.934379 110.348038 
L 150.287141 109.65445 
L 150.992667 106.099809 
L 151.345429 107.920478 
L 151.698192 108.180574 
L 152.050955 100.984593 
L 152.403717 104.79933 
L 152.75648 101.76488 
L 153.109243 102.111675 
L 153.462005 99.684115 
L 153.814768 102.97866 
L 154.167531 102.805263 
L 154.520293 99.077225 
L 154.873056 98.643732 
L 155.225819 99.770813 
L 155.578581 100.377703 
L 155.931344 100.5511 
L 156.284107 101.244689 
L 156.636869 100.117608 
L 156.989632 95.869378 
L 157.342395 97.169856 
L 157.695157 95.262488 
L 158.04792 95.435885 
L 158.400683 94.308804 
L 158.753445 94.135407 
L 159.106208 94.915694 
L 159.458971 93.788612 
L 159.811733 93.615215 
L 160.164496 94.828995 
L 160.870021 94.048708 
L 161.222784 95.262488 
L 161.575547 93.35512 
L 161.92831 93.788612 
L 162.281072 91.447751 
L 162.633835 90.060574 
L 162.986598 91.967943 
L 163.33936 92.228038 
L 163.692123 89.280287 
L 164.044886 90.060574 
L 164.397648 87.89311 
L 164.750411 87.806411 
L 165.455936 90.580766 
L 165.808699 87.89311 
L 166.161462 88.413301 
L 166.514224 85.552249 
L 166.866987 91.361053 
L 167.21975 91.014258 
L 167.572512 89.10689 
L 167.925275 89.193589 
L 168.278038 86.332536 
L 168.6308 88.066507 
L 168.983563 88.413301 
L 169.336326 87.372919 
L 169.689088 88.846794 
L 170.041851 89.453684 
L 170.394614 85.292153 
L 170.747376 86.592632 
L 171.452902 85.205455 
L 171.805664 85.46555 
L 172.158427 85.205455 
L 172.51119 84.511866 
L 172.863952 82.777895 
L 173.216715 85.812344 
L 173.569478 87.633014 
L 174.275003 83.731579 
L 174.627766 83.731579 
L 175.333291 86.939426 
L 175.686054 88.239904 
L 176.038817 84.165072 
L 176.391579 83.558182 
L 176.744342 85.812344 
L 177.097105 85.638947 
L 177.449867 83.03799 
L 177.80263 83.991675 
L 178.155393 82.691196 
L 178.508155 82.604498 
L 178.860918 84.25177 
L 179.213681 83.298086 
L 179.566443 80.610431 
L 179.919206 81.477416 
L 180.271969 82.951292 
L 180.624731 79.309952 
L 180.977494 80.870526 
L 181.330257 77.315885 
L 181.683019 82.257703 
L 182.035782 81.043923 
L 182.388545 84.165072 
L 182.741307 80.957225 
L 183.09407 80.523732 
L 183.446833 79.830144 
L 183.799595 80.783828 
L 184.152358 81.390718 
L 184.505121 80.870526 
L 184.857883 78.442967 
L 185.210646 81.910909 
L 185.563409 81.130622 
L 185.916171 79.223254 
L 186.268934 81.130622 
L 186.621697 79.396651 
L 186.974459 81.130622 
L 187.327222 79.570048 
L 187.679985 80.176938 
L 188.38551 80.263636 
L 188.738273 78.442967 
L 189.091036 79.309952 
L 189.443798 77.055789 
L 189.796561 77.922775 
L 190.149324 81.650813 
L 190.502086 75.928708 
L 190.854849 79.656746 
L 191.207612 80.957225 
L 191.560374 78.182871 
L 191.913137 78.009474 
L 192.2659 80.437033 
L 192.618662 77.489282 
L 192.971425 80.697129 
L 193.324188 80.523732 
L 193.67695 76.015407 
L 194.382476 80.090239 
L 194.735238 76.708995 
L 195.088001 78.009474 
L 195.440764 76.362201 
L 195.793526 76.882392 
L 196.146289 77.662679 
L 196.499052 77.315885 
L 196.851814 75.668612 
L 197.204577 77.402584 
L 197.55734 74.62823 
L 197.910102 76.188804 
L 198.262865 75.061722 
L 198.615628 75.84201 
L 198.96839 77.315885 
L 199.321153 75.928708 
L 199.673916 76.708995 
L 200.026678 76.969091 
L 200.379441 74.194737 
L 200.732204 76.795694 
L 201.084966 76.622297 
L 201.437729 74.801627 
L 201.790492 76.015407 
L 202.143255 78.876459 
L 202.496017 77.402584 
L 202.84878 75.23512 
L 203.201543 74.801627 
L 203.554305 73.761244 
L 203.907068 74.62823 
L 204.259831 74.62823 
L 204.612593 75.755311 
L 204.965356 75.148421 
L 205.318119 75.928708 
L 205.670881 74.62823 
L 206.023644 74.975024 
L 206.376407 73.674545 
L 206.729169 76.795694 
L 207.081932 74.368134 
L 207.434695 74.194737 
L 207.787457 74.975024 
L 208.14022 73.761244 
L 208.492983 75.668612 
L 208.845745 72.894258 
L 209.198508 75.581914 
L 209.551271 75.581914 
L 209.904033 70.900191 
L 210.256796 76.535598 
L 210.609559 74.194737 
L 210.962321 72.634163 
L 211.315084 75.23512 
L 211.667847 73.674545 
L 212.020609 73.847943 
L 212.373372 74.454833 
L 212.726135 76.4489 
L 213.078897 73.934641 
L 213.43166 72.80756 
L 213.784423 74.888325 
L 214.137185 73.847943 
L 214.489948 72.20067 
L 214.842711 72.80756 
L 215.195474 73.067656 
L 215.548236 72.547464 
L 215.900999 75.84201 
L 216.253762 70.98689 
L 216.606524 74.541531 
L 216.959287 70.640096 
L 217.31205 73.761244 
L 217.664812 71.420383 
L 218.017575 75.321818 
L 218.370338 71.767177 
L 218.7231 72.374067 
L 219.075863 72.460766 
L 219.428626 71.420383 
L 219.781388 72.547464 
L 220.134151 71.246986 
L 220.486914 69.513014 
L 220.839676 72.287368 
L 221.192439 71.767177 
L 221.545202 72.460766 
L 222.250727 72.547464 
L 222.60349 72.634163 
L 222.956252 73.327751 
L 223.309015 71.853876 
L 223.661778 74.281435 
L 224.01454 74.02134 
L 224.367303 72.720861 
L 225.072828 72.374067 
L 225.425591 71.940574 
L 226.131116 69.686411 
L 226.483879 71.940574 
L 226.836642 72.027273 
L 227.189404 71.940574 
L 227.542167 70.726794 
L 227.89493 70.900191 
L 228.247693 72.720861 
L 228.600455 71.246986 
L 228.953218 70.98689 
L 229.305981 71.160287 
L 229.658743 71.073589 
L 230.011506 71.767177 
L 230.364269 72.80756 
L 230.717031 70.813493 
L 231.069794 70.38 
L 231.422557 71.333684 
L 231.775319 71.507081 
L 232.128082 71.246986 
L 232.480845 70.119904 
L 232.833607 70.119904 
L 233.18637 69.599713 
L 233.539133 73.41445 
L 233.891895 70.726794 
L 234.244658 72.634163 
L 234.597421 68.472632 
L 234.950183 68.906124 
L 235.302946 72.027273 
L 235.655709 70.813493 
L 236.008471 71.160287 
L 236.361234 71.940574 
L 236.713997 68.385933 
L 237.066759 72.374067 
L 237.772285 70.813493 
L 238.125047 69.339617 
L 238.47781 72.980957 
L 238.830573 69.77311 
L 239.183335 71.940574 
L 239.536098 71.420383 
L 239.888861 68.992823 
L 240.241623 70.119904 
L 240.594386 69.946507 
L 240.947149 68.039139 
L 241.299911 72.113971 
L 241.652674 69.686411 
L 242.005437 70.726794 
L 242.3582 69.16622 
L 242.710962 70.640096 
L 243.063725 69.859809 
L 243.416488 70.900191 
L 243.76925 69.77311 
L 244.122013 70.466699 
L 244.474776 69.599713 
L 244.827538 69.339617 
L 245.180301 68.819426 
L 245.533064 70.813493 
L 245.885826 70.206603 
L 246.238589 70.98689 
L 246.591352 69.426316 
L 246.944114 70.206603 
L 247.296877 68.212536 
L 247.64964 69.339617 
L 248.002402 67.432249 
L 248.355165 68.472632 
L 248.707928 69.859809 
L 249.06069 67.95244 
L 249.413453 70.553397 
L 249.766216 69.079522 
L 250.118978 68.819426 
L 250.471741 70.98689 
L 250.824504 68.992823 
L 251.177266 68.992823 
L 251.530029 70.293301 
L 251.882792 70.293301 
L 252.235554 67.865742 
L 252.588317 69.079522 
L 252.94108 68.55933 
L 253.293842 68.906124 
L 253.646605 66.045072 
L 253.999368 69.513014 
L 254.35213 69.686411 
L 254.704893 70.293301 
L 255.057656 69.252919 
L 255.410419 68.646029 
L 255.763181 69.339617 
L 256.115944 69.16622 
L 256.468707 68.472632 
L 256.821469 68.646029 
L 257.174232 70.293301 
L 257.526995 70.553397 
L 257.879757 69.252919 
L 258.23252 69.426316 
L 258.585283 67.779043 
L 258.938045 70.900191 
L 259.290808 68.039139 
L 259.643571 70.38 
L 259.996333 69.079522 
L 260.349096 68.906124 
L 260.701859 67.692344 
L 261.054621 69.946507 
L 261.407384 70.466699 
L 261.760147 69.426316 
L 262.112909 67.605646 
L 262.465672 68.039139 
L 262.818435 69.16622 
L 263.171197 68.992823 
L 263.52396 67.258852 
L 263.876723 68.55933 
L 264.582248 67.692344 
L 264.935011 69.426316 
L 265.287773 69.252919 
L 265.640536 68.212536 
L 265.993299 68.819426 
L 266.698824 67.432249 
L 267.051587 68.299234 
L 267.404349 67.34555 
L 267.757112 69.77311 
L 268.109875 66.73866 
L 268.462638 69.16622 
L 268.8154 66.998756 
L 269.168163 66.73866 
L 269.873688 69.513014 
L 270.226451 66.912057 
L 270.579214 68.819426 
L 270.931976 67.085455 
L 271.637502 72.374067 
L 271.990264 67.432249 
L 272.343027 68.039139 
L 272.69579 70.033206 
L 273.048552 67.085455 
L 273.401315 66.825359 
L 273.754078 65.611579 
L 274.459603 68.819426 
L 274.812366 68.125837 
L 275.165128 66.565263 
L 275.517891 69.599713 
L 275.870654 66.218469 
L 276.223416 68.125837 
L 276.576179 66.045072 
L 276.928942 66.218469 
L 277.281704 69.252919 
L 277.634467 66.305167 
L 277.98723 66.478565 
L 278.339992 66.912057 
L 278.692755 66.998756 
L 279.045518 66.825359 
L 279.39828 67.692344 
L 279.751043 66.73866 
L 280.103806 68.732727 
L 280.456568 65.004689 
L 280.809331 67.172153 
L 281.162094 64.484498 
L 281.514856 67.34555 
L 281.867619 66.73866 
L 282.220382 66.651962 
L 282.573145 72.287368 
L 282.925907 67.085455 
L 283.27867 67.172153 
L 283.631433 68.299234 
L 283.984195 65.958373 
L 284.336958 65.784976 
L 284.689721 66.651962 
L 285.042483 65.698278 
L 285.395246 67.085455 
L 285.748009 66.218469 
L 286.100771 64.051005 
L 286.453534 66.391866 
L 286.806297 67.692344 
L 287.159059 66.651962 
L 287.511822 65.958373 
L 287.864585 68.385933 
L 288.57011 65.264785 
L 288.922873 66.825359 
L 289.275635 65.784976 
L 289.981161 68.125837 
L 290.333923 64.397799 
L 290.686686 66.13177 
L 291.039449 66.045072 
L 291.392211 66.565263 
L 291.744974 66.73866 
L 292.097737 68.55933 
L 292.450499 65.784976 
L 292.803262 68.039139 
L 293.508787 66.218469 
L 293.86155 66.305167 
L 294.214313 65.871675 
L 294.567075 65.871675 
L 294.919838 68.212536 
L 295.272601 65.611579 
L 295.625364 65.178086 
L 295.978126 65.351483 
L 296.330889 63.790909 
L 296.683652 65.611579 
L 297.036414 65.091388 
L 297.389177 66.651962 
L 298.094702 64.571196 
L 298.447465 65.958373 
L 298.800228 65.178086 
L 299.15299 63.964306 
L 299.505753 67.34555 
L 300.211278 64.91799 
L 300.916804 66.478565 
L 301.622329 64.3111 
L 301.975092 63.964306 
L 302.680617 68.299234 
L 303.03338 64.397799 
L 303.386142 67.432249 
L 303.738905 66.825359 
L 304.091668 65.871675 
L 304.44443 67.779043 
L 304.797193 65.178086 
L 305.502718 66.565263 
L 305.855481 66.73866 
L 306.561006 64.91799 
L 306.913769 66.045072 
L 307.266532 65.784976 
L 307.619294 64.744593 
L 307.972057 64.397799 
L 308.32482 68.039139 
L 309.383108 64.051005 
L 309.735871 66.565263 
L 310.088633 65.52488 
L 310.441396 63.530813 
L 310.794159 67.865742 
L 311.146921 66.825359 
L 311.499684 66.305167 
L 311.852447 66.73866 
L 312.205209 64.484498 
L 312.557972 64.484498 
L 312.910735 66.912057 
L 313.263497 66.13177 
L 313.61626 68.039139 
L 313.969023 65.52488 
L 314.321785 64.051005 
L 314.674548 65.958373 
L 315.380073 64.137703 
L 315.732836 65.004689 
L 316.085599 65.264785 
L 316.438361 65.091388 
L 316.791124 65.52488 
L 317.143887 64.657895 
L 317.496649 65.611579 
L 317.849412 65.178086 
L 318.202175 65.264785 
L 318.554937 63.964306 
L 318.9077 65.004689 
L 319.260463 66.565263 
L 319.613225 66.565263 
L 319.965988 63.617512 
L 320.318751 65.611579 
L 320.671513 65.958373 
L 321.024276 66.13177 
L 321.377039 64.484498 
L 321.729801 66.825359 
L 322.082564 67.692344 
L 322.435327 63.877608 
L 322.78809 67.779043 
L 323.140852 64.051005 
L 323.493615 63.790909 
L 324.19914 66.305167 
L 324.904666 65.004689 
L 325.257428 64.91799 
L 325.610191 65.52488 
L 325.962954 65.611579 
L 326.315716 63.964306 
L 326.668479 64.571196 
L 327.021242 64.744593 
L 327.374004 63.790909 
L 327.726767 63.357416 
L 328.07953 63.964306 
L 328.432292 65.958373 
L 328.785055 63.444115 
L 329.137818 66.305167 
L 329.49058 64.91799 
L 329.843343 64.3111 
L 330.196106 64.051005 
L 330.548868 62.663828 
L 330.901631 64.831292 
L 331.254394 65.091388 
L 331.607156 64.137703 
L 331.959919 64.397799 
L 332.312682 63.964306 
L 332.665444 65.178086 
L 333.018207 64.224402 
L 333.37097 64.657895 
L 334.076495 63.444115 
L 334.429258 64.91799 
L 334.78202 62.317033 
L 336.193071 63.877608 
L 336.545834 64.051005 
L 336.898597 64.397799 
L 337.251359 66.478565 
L 337.956885 64.3111 
L 338.309647 62.143636 
L 338.66241 64.224402 
L 339.015173 64.91799 
L 339.367935 64.744593 
L 339.720698 62.923923 
L 340.073461 61.970239 
L 340.426223 64.224402 
L 340.778986 61.536746 
L 341.131749 62.923923 
L 341.484511 63.704211 
L 341.837274 62.403732 
L 342.190037 65.871675 
L 342.542799 63.270718 
L 342.895562 62.663828 
L 343.248325 65.52488 
L 343.601087 65.178086 
L 343.95385 65.784976 
L 344.306613 65.004689 
L 344.659375 65.698278 
L 345.364901 63.617512 
L 345.717663 62.923923 
L 346.423189 64.831292 
L 346.775951 62.577129 
L 347.128714 61.883541 
L 347.481477 62.143636 
L 347.834239 62.837225 
L 348.187002 62.923923 
L 348.539765 67.34555 
L 348.892528 61.970239 
L 349.24529 65.178086 
L 349.598053 63.617512 
L 349.950816 63.097321 
L 350.303578 64.397799 
L 350.656341 62.490431 
L 351.009104 62.577129 
L 351.361866 62.317033 
L 351.714629 62.750526 
L 352.067392 62.750526 
L 352.420154 63.790909 
L 352.772917 63.357416 
L 353.12568 62.230335 
L 353.478442 64.3111 
L 353.831205 64.484498 
L 354.183968 63.790909 
L 354.53673 64.571196 
L 354.889493 63.097321 
L 355.242256 63.617512 
L 355.595018 63.010622 
L 355.947781 61.363349 
L 356.300544 62.490431 
L 356.653306 61.623445 
L 357.006069 63.270718 
L 357.358832 62.750526 
L 357.711594 62.663828 
L 358.064357 65.091388 
L 358.41712 61.450048 
L 359.122645 63.964306 
L 359.82817 62.490431 
L 360.180933 63.790909 
L 360.533696 63.097321 
L 360.886458 65.091388 
L 361.239221 62.403732 
L 361.591984 62.490431 
L 361.944746 63.444115 
L 362.297509 61.883541 
L 362.650272 61.710144 
L 363.355797 63.790909 
L 363.70856 63.530813 
L 364.061323 65.004689 
L 364.414085 63.530813 
L 364.766848 63.097321 
L 365.119611 61.710144 
L 365.825136 63.270718 
L 366.177899 63.270718 
L 366.530661 62.577129 
L 366.883424 63.530813 
L 367.236187 62.837225 
L 367.588949 63.530813 
L 367.941712 63.530813 
L 368.294475 62.403732 
L 368.647237 64.397799 
L 369 61.710144 
L 369.352763 62.403732 
L 369.705525 62.056938 
L 370.058288 62.750526 
L 370.411051 62.490431 
L 370.763813 64.051005 
L 371.116576 63.184019 
L 371.469339 63.444115 
L 371.822101 61.970239 
L 372.174864 62.143636 
L 372.527627 63.617512 
L 372.880389 61.970239 
L 373.233152 61.623445 
L 373.585915 63.877608 
L 373.938677 63.444115 
L 374.29144 62.143636 
L 374.644203 62.143636 
L 374.996965 61.276651 
L 375.349728 61.536746 
L 375.702491 63.270718 
L 376.055254 61.623445 
L 376.408016 62.750526 
L 376.760779 62.837225 
L 377.113542 62.663828 
L 377.466304 60.843158 
L 377.819067 62.750526 
L 378.17183 62.230335 
L 378.524592 62.403732 
L 378.877355 60.929856 
L 379.230118 61.796842 
L 379.58288 63.617512 
L 379.935643 63.790909 
L 380.288406 62.577129 
L 380.641168 63.357416 
L 380.993931 61.710144 
L 381.346694 62.663828 
L 381.699456 61.103254 
L 382.052219 62.230335 
L 382.404982 61.970239 
L 382.757744 62.230335 
L 383.110507 62.750526 
L 383.46327 61.016555 
L 383.816032 61.710144 
L 384.168795 63.964306 
L 384.521558 64.137703 
L 384.87432 63.704211 
L 385.227083 61.363349 
L 385.579846 62.317033 
L 385.932608 61.883541 
L 386.285371 62.317033 
L 386.638134 63.357416 
L 386.990896 62.490431 
L 387.343659 62.230335 
L 387.696422 60.322967 
L 388.049184 62.923923 
L 388.401947 61.363349 
L 388.75471 62.143636 
L 389.107472 61.883541 
L 389.812998 62.663828 
L 390.165761 61.970239 
L 390.871286 62.230335 
L 391.224049 61.363349 
L 391.576811 63.270718 
L 391.929574 61.796842 
L 392.282337 62.230335 
L 392.635099 61.103254 
L 392.987862 62.317033 
L 393.340625 61.883541 
L 393.693387 60.236268 
L 394.04615 61.970239 
L 394.398913 61.883541 
L 394.751675 61.016555 
L 395.104438 61.189952 
L 396.162726 60.843158 
L 396.515489 63.444115 
L 396.868251 60.236268 
L 397.221014 62.143636 
L 397.573777 62.056938 
L 397.926539 62.923923 
L 398.279302 61.363349 
L 398.632065 61.883541 
L 398.984827 61.363349 
L 399.33759 59.802775 
L 399.690353 62.230335 
L 400.043115 63.617512 
L 400.395878 62.056938 
L 400.748641 61.276651 
L 401.454166 61.016555 
L 401.806929 64.91799 
L 402.159691 61.796842 
L 402.512454 61.796842 
L 402.865217 62.663828 
L 403.570742 61.016555 
L 403.923505 63.704211 
L 404.276268 62.143636 
L 404.62903 61.710144 
L 404.981793 59.802775 
L 405.687318 63.010622 
L 406.040081 62.403732 
L 406.392844 63.444115 
L 406.745606 60.929856 
L 407.098369 59.802775 
L 407.451132 62.663828 
L 407.803894 60.843158 
L 408.156657 61.883541 
L 408.50942 61.450048 
L 408.862182 61.450048 
L 409.214945 61.883541 
L 409.567708 61.623445 
L 410.273233 63.097321 
L 410.625996 62.837225 
L 411.331521 61.363349 
L 411.684284 59.802775 
L 412.037046 60.756459 
L 412.389809 63.790909 
L 412.742572 60.843158 
L 413.095334 61.536746 
L 413.448097 60.496364 
L 413.80086 61.276651 
L 414.153622 60.929856 
L 414.506385 62.056938 
L 414.859148 61.276651 
L 415.21191 61.189952 
L 415.564673 63.010622 
L 416.622961 63.530813 
L 416.975724 60.409665 
L 417.328487 62.317033 
L 417.681249 62.143636 
L 418.034012 60.669761 
L 418.386775 60.149569 
L 418.739537 61.796842 
L 419.0923 61.536746 
L 419.445063 61.970239 
L 419.797825 60.496364 
L 420.150588 60.583062 
L 420.503351 59.889474 
L 420.856113 61.883541 
L 421.208876 60.843158 
L 421.914401 61.623445 
L 422.267164 60.149569 
L 422.619927 62.056938 
L 422.972689 62.056938 
L 423.325452 59.802775 
L 423.678215 59.802775 
L 424.030977 60.929856 
L 424.38374 63.444115 
L 424.736503 61.450048 
L 425.089265 62.230335 
L 425.442028 60.929856 
L 425.794791 58.935789 
L 426.147553 59.802775 
L 426.500316 60.322967 
L 426.853079 61.623445 
L 427.205841 60.583062 
L 427.911367 61.970239 
L 428.264129 59.802775 
L 428.616892 61.536746 
L 428.969655 60.322967 
L 429.67518 60.929856 
L 430.027943 61.103254 
L 430.380706 60.322967 
L 430.733468 60.583062 
L 431.086231 60.062871 
L 431.438994 60.583062 
L 432.144519 61.970239 
L 432.497282 61.276651 
L 432.850044 61.970239 
L 433.202807 60.843158 
L 433.55557 60.583062 
L 433.908332 61.796842 
L 434.261095 64.571196 
L 434.613858 61.883541 
L 434.96662 61.363349 
L 435.319383 60.496364 
L 435.672146 60.236268 
L 436.024908 61.363349 
L 436.377671 59.629378 
L 436.730434 61.189952 
L 437.083196 60.409665 
L 437.435959 60.583062 
L 437.788722 59.195885 
L 438.141484 62.230335 
L 438.494247 62.577129 
L 438.84701 60.929856 
L 439.199772 60.583062 
L 439.552535 61.710144 
L 439.905298 61.796842 
L 440.25806 59.369282 
L 440.610823 60.669761 
L 440.963586 58.849091 
L 441.316348 62.403732 
L 441.669111 61.363349 
L 442.021874 62.143636 
L 442.374636 60.756459 
L 442.727399 60.496364 
L 443.080162 59.542679 
L 443.432925 61.450048 
L 443.785687 60.756459 
L 444.13845 60.929856 
L 444.491213 61.276651 
L 444.843975 60.929856 
L 445.196738 59.889474 
L 445.549501 60.843158 
L 445.902263 60.062871 
L 446.255026 60.236268 
L 446.607789 61.103254 
L 446.960551 59.976172 
L 447.313314 60.062871 
L 447.666077 60.409665 
L 448.018839 60.583062 
L 448.371602 61.103254 
L 448.724365 58.935789 
L 449.42989 60.929856 
L 449.782653 60.149569 
L 450.135415 58.502297 
L 450.488178 61.623445 
L 450.840941 57.635311 
L 451.193703 58.415598 
L 451.546466 61.103254 
L 451.899229 59.976172 
L 452.251991 61.189952 
L 452.604754 60.496364 
L 452.957517 62.230335 
L 453.310279 61.710144 
L 453.663042 61.710144 
L 454.015805 61.450048 
L 454.368567 59.802775 
L 454.72133 60.756459 
L 455.074093 61.363349 
L 455.426855 59.022488 
L 455.779618 60.843158 
L 456.132381 60.669761 
L 456.485144 62.056938 
L 457.190669 61.796842 
L 457.896194 59.976172 
L 458.248957 61.103254 
L 458.60172 59.369282 
L 458.954482 61.536746 
L 459.307245 61.103254 
L 459.660008 62.143636 
L 460.01277 59.889474 
L 460.365533 59.629378 
L 461.071058 61.016555 
L 461.423821 62.143636 
L 461.776584 59.369282 
L 462.129346 61.450048 
L 462.482109 60.062871 
L 462.834872 62.490431 
L 463.540397 58.242201 
L 463.89316 59.195885 
L 464.245922 60.583062 
L 464.951448 59.109187 
L 465.30421 60.322967 
L 465.656973 60.756459 
L 466.009736 60.149569 
L 466.715261 60.322967 
L 467.068024 59.889474 
L 467.420786 59.109187 
L 467.773549 59.369282 
L 468.126312 59.455981 
L 468.479074 58.155502 
L 468.831837 60.669761 
L 469.1846 58.588995 
L 469.537362 62.490431 
L 469.890125 59.889474 
L 470.242888 59.109187 
L 470.595651 60.236268 
L 471.301176 59.369282 
L 472.006701 61.189952 
L 472.359464 60.236268 
L 473.064989 59.455981 
L 473.417752 60.843158 
L 473.770515 60.236268 
L 474.123277 60.149569 
L 474.47604 58.849091 
L 474.828803 61.103254 
L 475.181565 62.056938 
L 475.534328 59.716077 
L 475.887091 59.455981 
L 476.592616 60.149569 
L 476.945379 59.802775 
L 477.298141 60.843158 
L 477.650904 59.369282 
L 478.003667 59.369282 
L 478.356429 61.970239 
L 478.709192 60.062871 
L 479.061955 59.802775 
L 479.414717 59.369282 
L 479.76748 61.970239 
L 480.120243 59.889474 
L 480.473005 59.455981 
L 480.825768 60.062871 
L 481.178531 58.242201 
L 481.531293 60.583062 
L 481.884056 59.976172 
L 482.236819 58.935789 
L 482.589581 59.889474 
L 482.942344 58.588995 
L 483.295107 59.195885 
L 483.64787 57.808708 
L 484.000632 60.236268 
L 484.353395 59.542679 
L 484.706158 59.195885 
L 485.05892 60.756459 
L 485.411683 59.282584 
L 485.764446 60.669761 
L 486.469971 59.976172 
L 486.822734 58.675694 
L 487.175496 59.976172 
L 487.528259 59.022488 
L 487.881022 59.109187 
L 488.233784 60.149569 
L 488.586547 59.542679 
L 488.93931 60.756459 
L 489.644835 58.675694 
L 489.997598 60.843158 
L 490.35036 59.195885 
L 490.703123 59.369282 
L 491.055886 59.195885 
L 491.408648 59.282584 
L 491.761411 60.149569 
L 492.114174 58.502297 
L 492.466936 59.369282 
L 492.819699 60.669761 
L 493.525224 60.409665 
L 493.877987 60.149569 
L 494.23075 57.635311 
L 494.583512 60.322967 
L 494.936275 57.808708 
L 495.289038 58.242201 
L 495.6418 58.155502 
L 495.994563 58.415598 
L 496.347326 59.716077 
L 496.700089 59.022488 
L 497.052851 60.496364 
L 497.758377 58.762392 
L 498.111139 61.103254 
L 498.463902 60.236268 
L 498.816665 59.889474 
L 499.52219 58.3289 
L 499.874953 59.542679 
L 500.227715 58.415598 
L 500.580478 59.976172 
L 500.933241 60.322967 
L 501.286003 58.3289 
L 501.638766 59.109187 
L 501.991529 58.415598 
L 502.697054 59.629378 
L 503.049817 59.455981 
L 503.402579 58.675694 
L 503.755342 60.496364 
L 504.108105 59.716077 
L 504.460867 59.629378 
L 504.81363 59.369282 
L 505.166393 60.149569 
L 505.519155 58.588995 
L 505.871918 57.808708 
L 506.224681 58.3289 
L 506.577443 58.588995 
L 506.930206 60.583062 
L 507.282969 58.502297 
L 507.635731 59.022488 
L 507.988494 59.109187 
L 508.341257 58.415598 
L 508.694019 57.982105 
L 509.046782 60.583062 
L 509.399545 60.322967 
L 509.752307 59.629378 
L 510.10507 60.236268 
L 510.457833 60.149569 
L 510.810596 59.455981 
L 511.163358 60.409665 
L 511.516121 59.976172 
L 511.868884 59.802775 
L 512.574409 61.623445 
L 512.927172 59.455981 
L 513.279934 58.242201 
L 513.632697 59.282584 
L 513.98546 59.109187 
L 514.690985 60.322967 
L 515.39651 59.716077 
L 515.749273 59.976172 
L 516.102036 58.068804 
L 516.454798 58.675694 
L 516.807561 58.242201 
L 517.160324 58.415598 
L 517.513086 59.195885 
L 517.865849 58.415598 
L 518.218612 58.849091 
L 518.571374 60.843158 
L 518.924137 58.588995 
L 519.2769 57.72201 
L 519.629662 59.716077 
L 519.982425 59.022488 
L 520.335188 58.068804 
L 520.68795 59.369282 
L 521.040713 59.889474 
L 521.393476 59.195885 
L 521.746238 59.195885 
L 522.451764 58.415598 
L 522.804526 58.502297 
L 523.157289 57.808708 
L 523.510052 60.149569 
L 523.862815 60.236268 
L 524.215577 59.889474 
L 524.56834 58.502297 
L 524.921103 60.409665 
L 525.273865 59.455981 
L 525.626628 59.369282 
L 525.979391 59.022488 
L 526.332153 58.3289 
L 526.684916 61.103254 
L 527.037679 60.583062 
L 527.390441 59.455981 
L 527.743204 59.022488 
L 528.095967 59.542679 
L 528.448729 61.189952 
L 528.801492 59.455981 
L 529.154255 59.369282 
L 529.507017 58.242201 
L 529.85978 59.369282 
L 530.212543 59.889474 
L 530.565305 59.542679 
L 530.918068 59.629378 
L 531.270831 58.155502 
L 531.623593 59.802775 
L 531.976356 59.629378 
L 532.329119 58.935789 
L 532.681881 57.461914 
L 533.034644 61.623445 
L 533.387407 60.322967 
L 534.092932 58.849091 
L 534.445695 58.849091 
L 534.798457 58.675694 
L 535.15122 59.976172 
L 535.503983 58.068804 
L 535.856745 59.976172 
L 536.209508 59.802775 
L 536.562271 57.982105 
L 536.915034 57.895407 
L 537.620559 59.889474 
L 537.973322 58.068804 
L 538.326084 58.675694 
L 538.678847 58.675694 
L 539.03161 57.808708 
L 539.384372 58.762392 
L 539.737135 59.369282 
L 540.089898 59.455981 
L 540.44266 58.068804 
L 540.795423 58.415598 
L 541.148186 59.976172 
L 541.500948 59.542679 
L 541.853711 58.155502 
L 542.206474 57.548612 
L 542.559236 58.3289 
L 542.911999 57.72201 
L 543.264762 59.802775 
L 543.617524 59.109187 
L 543.970287 59.889474 
L 544.32305 59.716077 
L 544.675812 58.502297 
L 545.028575 59.455981 
L 545.381338 59.282584 
L 545.7341 56.855024 
L 546.086863 59.022488 
L 546.439626 58.242201 
L 546.792388 56.941722 
L 547.145151 58.3289 
L 547.497914 58.415598 
L 547.850676 57.548612 
L 548.203439 58.762392 
L 548.556202 57.635311 
L 548.908964 57.635311 
L 549.61449 59.195885 
L 549.967252 59.022488 
L 550.320015 58.675694 
L 551.025541 57.808708 
L 551.378303 58.155502 
L 551.731066 57.461914 
L 552.083829 57.201818 
L 552.436591 59.542679 
L 553.142117 57.375215 
L 553.847642 58.762392 
L 554.200405 57.72201 
L 554.553167 58.675694 
L 554.90593 59.976172 
L 555.258693 58.242201 
L 555.611455 59.542679 
L 555.964218 57.548612 
L 556.316981 60.756459 
L 556.669743 57.72201 
L 557.022506 59.976172 
L 557.375269 59.976172 
L 557.728031 57.461914 
L 558.080794 59.195885 
L 558.433557 58.3289 
L 558.786319 59.282584 
L 559.139082 58.675694 
L 559.491845 59.195885 
L 559.844607 61.189952 
L 560.19737 58.849091 
L 560.550133 58.935789 
L 560.902895 58.849091 
L 561.255658 58.155502 
L 561.608421 59.716077 
L 561.961183 56.768325 
L 562.313946 58.588995 
L 562.666709 58.588995 
L 563.019471 59.195885 
L 563.372234 57.808708 
L 563.724997 58.849091 
L 564.07776 57.375215 
L 564.430522 59.542679 
L 564.783285 60.843158 
L 565.136048 57.288517 
L 565.841573 58.502297 
L 566.194336 57.028421 
L 566.547098 58.242201 
L 566.899861 57.288517 
L 567.252624 57.375215 
L 567.605386 56.941722 
L 567.958149 57.461914 
L 568.310912 57.028421 
L 568.663674 57.635311 
L 569.016437 58.762392 
L 569.3692 58.675694 
L 569.721962 57.982105 
L 570.074725 57.028421 
L 570.78025 59.282584 
L 571.133013 57.375215 
L 571.485776 57.11512 
L 571.838538 59.369282 
L 572.191301 58.935789 
L 572.544064 57.982105 
L 572.896826 58.3289 
L 573.602352 59.716077 
L 573.955114 59.455981 
L 574.307877 58.935789 
L 575.013402 57.288517 
L 575.366165 57.461914 
L 575.718928 58.935789 
L 576.07169 59.802775 
L 576.424453 57.895407 
L 576.777216 59.629378 
L 577.129979 58.155502 
L 577.482741 60.149569 
L 577.835504 58.935789 
L 578.188267 58.935789 
L 578.893792 57.201818 
L 579.246555 58.155502 
L 579.599317 57.808708 
L 579.95208 58.675694 
L 580.304843 57.635311 
L 580.657605 58.675694 
L 581.010368 58.762392 
L 581.363131 58.242201 
L 581.715893 58.155502 
L 582.068656 57.11512 
L 582.421419 58.588995 
L 582.774181 56.768325 
L 583.126944 58.588995 
L 583.479707 57.288517 
L 584.185232 59.195885 
L 584.537995 58.3289 
L 584.890757 59.282584 
L 585.24352 59.195885 
L 585.596283 57.982105 
L 585.949045 59.022488 
L 586.301808 59.109187 
L 586.654571 58.242201 
L 587.007333 59.455981 
L 587.360096 57.375215 
L 587.712859 58.415598 
L 588.065621 57.461914 
L 588.418384 58.502297 
L 588.771147 58.415598 
L 589.123909 59.109187 
L 589.829435 56.421531 
L 590.182197 57.028421 
L 590.887723 56.941722 
L 591.240486 56.681627 
L 591.593248 59.109187 
L 591.946011 58.242201 
L 592.298774 58.849091 
L 592.651536 57.375215 
L 593.357062 59.455981 
L 593.709824 57.461914 
L 594.062587 58.242201 
L 594.41535 57.982105 
L 594.768112 57.288517 
L 595.120875 58.415598 
L 595.473638 57.461914 
L 595.8264 60.062871 
L 596.179163 58.762392 
L 596.531926 59.802775 
L 596.884688 58.935789 
L 597.590214 58.849091 
L 597.942976 57.982105 
L 598.295739 59.976172 
L 598.648502 58.155502 
L 599.354027 57.808708 
L 599.70679 57.461914 
L 600.059552 56.681627 
L 600.412315 58.415598 
L 600.765078 57.895407 
L 601.11784 58.242201 
L 601.470603 56.421531 
L 601.823366 58.242201 
L 602.176128 59.195885 
L 602.528891 58.415598 
L 602.881654 57.11512 
L 603.234416 57.028421 
L 603.939942 59.369282 
L 604.292705 57.72201 
L 604.645467 59.109187 
L 604.99823 58.762392 
L 605.350993 59.455981 
L 605.703755 57.028421 
L 606.762043 57.11512 
L 607.114806 57.982105 
L 607.467569 57.201818 
L 607.820331 57.288517 
L 608.173094 56.941722 
L 608.525857 57.895407 
L 608.878619 58.242201 
L 609.231382 57.201818 
L 609.584145 56.855024 
L 609.936907 55.554545 
L 610.28967 56.941722 
L 610.642433 57.72201 
L 610.995195 57.288517 
L 611.347958 57.72201 
L 611.700721 57.461914 
L 612.053483 57.375215 
L 612.406246 59.022488 
L 612.759009 57.895407 
L 613.111771 57.288517 
L 613.464534 57.461914 
L 613.817297 58.3289 
L 614.170059 56.768325 
L 614.522822 56.50823 
L 614.875585 56.594928 
L 615.228347 57.982105 
L 615.58111 57.288517 
L 616.286635 57.548612 
L 616.639398 57.375215 
L 616.992161 57.895407 
L 617.697686 58.3289 
L 618.050449 57.982105 
L 618.403212 57.375215 
L 618.755974 57.635311 
L 619.108737 58.675694 
L 619.4615 57.635311 
L 619.814262 58.675694 
L 620.167025 57.11512 
L 620.519788 58.415598 
L 620.87255 57.028421 
L 621.225313 57.028421 
L 621.578076 58.3289 
L 621.930838 58.675694 
L 622.283601 57.982105 
L 622.636364 56.681627 
L 622.636364 56.681627 
" style="fill:none;stroke:#1f77b4;stroke-linecap:square;stroke-width:0.5;"/>
   </g>
   <g id="line2d_34">
    <path clip-path="url(#p5e8d1520ce)" d="M 115.363636 301.518373 
L 115.716399 299.957799 
L 116.069162 302.645455 
L 116.421924 296.923349 
L 116.774687 299.350909 
L 117.12745 296.143062 
L 117.480212 296.663254 
L 117.832975 297.616938 
L 118.185738 292.06823 
L 118.5385 294.929282 
L 118.891263 289.120478 
L 119.596788 281.7511 
L 119.949551 283.918565 
L 120.302314 274.121627 
L 120.655076 275.508804 
L 121.007839 269.613301 
L 121.713365 266.492153 
L 122.066127 264.411388 
L 122.41889 256.695215 
L 122.771653 255.308038 
L 123.124415 255.308038 
L 123.477178 246.204689 
L 123.829941 246.464785 
L 124.182703 238.228421 
L 124.535466 239.788995 
L 124.888229 238.488517 
L 125.240991 238.835311 
L 125.593754 229.558565 
L 125.946517 227.304402 
L 126.652042 220.19512 
L 127.004805 211.785359 
L 127.357567 209.2711 
L 127.71033 207.797225 
L 128.415855 196.092919 
L 128.768618 196.353014 
L 129.121381 189.503828 
L 129.826906 185.082201 
L 130.179669 179.013301 
L 130.532431 176.759139 
L 130.885194 168.002584 
L 131.237957 169.216364 
L 131.590719 164.361244 
L 131.943482 163.580957 
L 132.296245 158.032249 
L 132.649007 155.171196 
L 133.00177 154.9111 
L 133.354533 152.483541 
L 133.707295 148.32201 
L 134.060058 151.356459 
L 134.412821 147.10823 
L 134.765584 144.247177 
L 135.118346 143.900383 
L 135.471109 138.438373 
L 135.823872 141.559522 
L 136.176634 143.033397 
L 136.529397 140.952632 
L 136.88216 136.531005 
L 137.234922 141.299426 
L 137.587685 136.270909 
L 137.940448 136.097512 
L 138.29321 134.970431 
L 138.645973 131.242392 
L 138.998736 132.889665 
L 139.351498 133.236459 
L 139.704261 132.196077 
L 140.057024 130.115311 
L 140.409786 129.335024 
L 140.762549 127.16756 
L 141.115312 127.601053 
L 141.468074 124.306507 
L 141.820837 128.901531 
L 142.1736 123.52622 
L 142.879125 123.092727 
L 143.58465 119.451388 
L 143.937413 119.971579 
L 144.290176 119.27799 
L 144.642938 119.364689 
L 144.995701 120.231675 
L 145.348464 116.503636 
L 146.053989 113.382488 
L 146.406752 115.116459 
L 146.759514 114.682967 
L 147.112277 113.295789 
L 147.46504 113.989378 
L 148.170565 113.382488 
L 148.523328 107.660383 
L 148.876091 107.83378 
L 149.228853 107.053493 
L 149.581616 108.874163 
L 149.934379 106.273206 
L 150.287141 106.099809 
L 150.639904 108.267273 
L 150.992667 103.845646 
L 151.345429 106.793397 
L 151.698192 102.198373 
L 152.050955 101.071292 
L 152.403717 102.198373 
L 153.109243 101.76488 
L 153.462005 103.58555 
L 153.814768 101.591483 
L 154.167531 101.15799 
L 154.520293 99.944211 
L 154.873056 102.198373 
L 155.225819 98.123541 
L 155.578581 95.609282 
L 156.284107 101.15799 
L 156.636869 95.956077 
L 156.989632 93.441818 
L 157.342395 93.35512 
L 157.695157 96.302871 
L 158.400683 92.661531 
L 158.753445 92.834928 
L 159.106208 95.522584 
L 159.458971 89.280287 
L 159.811733 92.661531 
L 160.164496 92.921627 
L 160.517259 92.228038 
L 160.870021 93.441818 
L 161.222784 90.840861 
L 161.575547 92.488134 
L 161.92831 92.834928 
L 162.281072 93.35512 
L 162.633835 92.74823 
L 162.986598 89.280287 
L 163.692123 90.494067 
L 164.044886 86.505933 
L 164.397648 91.187656 
L 164.750411 89.453684 
L 165.103174 91.621148 
L 165.455936 90.754163 
L 165.808699 91.967943 
L 166.161462 89.366986 
L 166.514224 90.407368 
L 166.866987 87.372919 
L 167.21975 88.153206 
L 167.572512 88.586699 
L 167.925275 84.685263 
L 168.278038 87.112823 
L 168.6308 87.372919 
L 168.983563 87.112823 
L 169.336326 86.159139 
L 169.689088 85.899043 
L 170.041851 85.812344 
L 170.394614 84.338469 
L 170.747376 88.153206 
L 171.100139 86.505933 
L 171.452902 83.731579 
L 171.805664 83.904976 
L 172.158427 83.03799 
L 172.51119 86.07244 
L 172.863952 83.904976 
L 173.216715 85.205455 
L 173.569478 84.771962 
L 174.275003 81.477416 
L 174.627766 84.945359 
L 174.980529 82.344402 
L 175.333291 87.199522 
L 175.686054 83.731579 
L 176.038817 83.03799 
L 176.391579 81.564115 
L 176.744342 85.552249 
L 177.449867 82.344402 
L 177.80263 82.777895 
L 178.155393 85.812344 
L 178.508155 81.217321 
L 178.860918 82.864593 
L 179.213681 81.477416 
L 179.566443 83.211388 
L 179.919206 81.130622 
L 180.271969 81.043923 
L 180.624731 81.650813 
L 180.977494 83.03799 
L 181.330257 78.529665 
L 181.683019 80.870526 
L 182.035782 79.570048 
L 182.388545 80.610431 
L 182.741307 83.298086 
L 183.446833 81.477416 
L 183.799595 81.043923 
L 184.152358 78.876459 
L 184.857883 79.916842 
L 185.210646 78.529665 
L 185.563409 78.963158 
L 185.916171 81.043923 
L 186.268934 79.223254 
L 186.621697 79.830144 
L 186.974459 77.749378 
L 187.327222 79.743445 
L 187.679985 79.570048 
L 188.38551 76.795694 
L 188.738273 80.437033 
L 189.091036 78.442967 
L 189.443798 79.830144 
L 189.796561 78.963158 
L 190.149324 79.830144 
L 190.502086 76.969091 
L 190.854849 78.789761 
L 191.207612 79.309952 
L 191.560374 77.402584 
L 191.913137 81.043923 
L 192.2659 79.309952 
L 192.618662 78.963158 
L 192.971425 79.483349 
L 193.324188 79.223254 
L 193.67695 77.315885 
L 194.029713 81.130622 
L 194.735238 73.587847 
L 195.088001 77.229187 
L 195.440764 78.789761 
L 195.793526 77.749378 
L 196.146289 78.963158 
L 196.499052 78.616364 
L 196.851814 77.749378 
L 197.204577 77.749378 
L 197.55734 74.541531 
L 197.910102 77.402584 
L 198.615628 78.876459 
L 198.96839 77.229187 
L 199.321153 76.882392 
L 199.673916 77.142488 
L 200.026678 76.188804 
L 200.379441 76.4489 
L 200.732204 75.928708 
L 201.790492 77.315885 
L 202.143255 75.495215 
L 202.496017 76.795694 
L 202.84878 76.362201 
L 203.201543 74.368134 
L 203.554305 73.934641 
L 203.907068 73.847943 
L 204.259831 78.009474 
L 204.612593 76.4489 
L 204.965356 77.315885 
L 205.318119 77.229187 
L 205.670881 77.749378 
L 206.023644 75.061722 
L 206.376407 74.888325 
L 206.729169 75.928708 
L 207.081932 77.402584 
L 207.434695 74.281435 
L 207.787457 78.442967 
L 208.14022 76.622297 
L 208.492983 75.755311 
L 208.845745 74.368134 
L 209.551271 76.015407 
L 209.904033 75.321818 
L 210.256796 76.102105 
L 210.609559 76.188804 
L 210.962321 75.755311 
L 211.315084 74.888325 
L 211.667847 73.241053 
L 212.020609 73.847943 
L 212.373372 74.108038 
L 212.726135 75.755311 
L 213.078897 74.714928 
L 213.43166 74.368134 
L 213.784423 73.674545 
L 214.137185 75.668612 
L 214.489948 75.581914 
L 214.842711 72.634163 
L 215.195474 73.847943 
L 215.548236 73.41445 
L 215.900999 72.634163 
L 216.253762 73.587847 
L 216.606524 74.02134 
L 216.959287 72.113971 
L 217.31205 71.767177 
L 217.664812 74.194737 
L 218.017575 75.408517 
L 218.7231 73.41445 
L 219.075863 73.41445 
L 219.428626 72.20067 
L 219.781388 75.495215 
L 220.134151 72.634163 
L 220.486914 71.073589 
L 220.839676 72.287368 
L 221.192439 72.374067 
L 221.897964 73.847943 
L 222.250727 72.80756 
L 222.60349 75.321818 
L 222.956252 72.634163 
L 223.309015 76.622297 
L 223.661778 75.84201 
L 224.01454 72.113971 
L 224.367303 74.108038 
L 224.720066 73.067656 
L 225.072828 71.680478 
L 225.425591 73.847943 
L 225.778354 75.061722 
L 226.131116 73.761244 
L 226.483879 71.073589 
L 226.836642 72.027273 
L 227.189404 73.501148 
L 227.542167 73.501148 
L 228.247693 69.686411 
L 228.600455 71.680478 
L 228.953218 71.853876 
L 229.305981 71.333684 
L 229.658743 72.374067 
L 230.011506 73.934641 
L 230.364269 70.813493 
L 231.069794 69.599713 
L 231.422557 72.027273 
L 231.775319 73.241053 
L 232.128082 73.41445 
L 232.480845 69.513014 
L 232.833607 72.634163 
L 233.18637 70.033206 
L 233.539133 74.108038 
L 233.891895 71.160287 
L 234.244658 71.507081 
L 234.597421 72.113971 
L 234.950183 73.241053 
L 235.302946 70.293301 
L 235.655709 71.160287 
L 236.008471 72.720861 
L 236.361234 72.980957 
L 236.713997 71.073589 
L 237.066759 70.466699 
L 237.419522 71.767177 
L 237.772285 71.680478 
L 238.125047 72.027273 
L 238.47781 69.426316 
L 238.830573 69.686411 
L 239.183335 71.420383 
L 239.536098 71.507081 
L 239.888861 72.634163 
L 240.241623 69.513014 
L 240.594386 73.674545 
L 240.947149 70.900191 
L 241.299911 72.027273 
L 241.652674 70.98689 
L 242.005437 70.553397 
L 242.3582 70.98689 
L 242.710962 70.813493 
L 243.063725 70.119904 
L 243.416488 70.640096 
L 243.76925 71.940574 
L 244.122013 69.252919 
L 244.474776 72.027273 
L 244.827538 72.374067 
L 245.180301 72.287368 
L 245.533064 69.859809 
L 245.885826 72.287368 
L 246.238589 70.38 
L 246.591352 70.553397 
L 246.944114 72.460766 
L 247.296877 71.680478 
L 247.64964 71.940574 
L 248.002402 70.726794 
L 248.355165 70.98689 
L 248.707928 69.686411 
L 249.413453 72.374067 
L 249.766216 71.420383 
L 250.118978 73.241053 
L 250.471741 70.033206 
L 250.824504 70.466699 
L 251.177266 71.246986 
L 251.530029 69.77311 
L 251.882792 72.287368 
L 252.235554 70.98689 
L 252.588317 72.287368 
L 252.94108 67.865742 
L 253.293842 69.426316 
L 253.646605 69.513014 
L 253.999368 70.813493 
L 254.35213 69.16622 
L 254.704893 69.859809 
L 255.057656 71.073589 
L 255.410419 70.033206 
L 255.763181 71.59378 
L 256.115944 70.38 
L 256.468707 71.59378 
L 257.174232 68.819426 
L 257.526995 68.212536 
L 257.879757 70.553397 
L 258.23252 69.686411 
L 258.585283 70.38 
L 258.938045 72.287368 
L 259.290808 70.38 
L 259.643571 71.246986 
L 259.996333 70.726794 
L 260.349096 68.125837 
L 260.701859 70.640096 
L 261.054621 69.339617 
L 261.407384 69.77311 
L 261.760147 68.992823 
L 262.112909 70.900191 
L 262.465672 69.513014 
L 262.818435 69.513014 
L 263.171197 68.646029 
L 263.52396 71.59378 
L 263.876723 72.547464 
L 264.582248 68.125837 
L 264.935011 71.160287 
L 265.993299 69.16622 
L 266.346061 70.293301 
L 266.698824 69.339617 
L 267.051587 72.20067 
L 267.404349 70.38 
L 267.757112 70.726794 
L 268.109875 69.079522 
L 268.462638 68.55933 
L 268.8154 70.119904 
L 269.168163 67.432249 
L 269.520926 70.553397 
L 269.873688 71.333684 
L 270.226451 67.432249 
L 270.579214 68.472632 
L 270.931976 66.565263 
L 271.284739 67.865742 
L 271.637502 71.420383 
L 271.990264 67.605646 
L 272.343027 69.599713 
L 272.69579 69.426316 
L 273.048552 70.38 
L 273.401315 68.472632 
L 273.754078 68.385933 
L 274.10684 72.027273 
L 274.459603 67.692344 
L 274.812366 68.212536 
L 275.165128 69.599713 
L 275.517891 69.252919 
L 275.870654 71.160287 
L 276.223416 70.293301 
L 276.576179 69.77311 
L 276.928942 68.646029 
L 277.634467 69.599713 
L 277.98723 68.906124 
L 278.339992 71.680478 
L 278.692755 68.55933 
L 279.045518 68.472632 
L 279.39828 69.079522 
L 279.751043 67.692344 
L 280.456568 70.38 
L 280.809331 68.55933 
L 281.514856 68.039139 
L 281.867619 69.599713 
L 282.220382 67.605646 
L 282.573145 69.339617 
L 282.925907 69.77311 
L 283.27867 68.819426 
L 283.631433 71.767177 
L 283.984195 68.212536 
L 284.336958 67.34555 
L 284.689721 69.946507 
L 285.042483 67.258852 
L 285.395246 67.95244 
L 285.748009 68.385933 
L 286.100771 67.085455 
L 286.453534 69.77311 
L 286.806297 69.079522 
L 287.159059 68.732727 
L 287.511822 67.518947 
L 287.864585 69.339617 
L 288.217347 67.432249 
L 288.57011 68.385933 
L 289.275635 68.55933 
L 289.981161 66.13177 
L 290.333923 68.55933 
L 290.686686 69.77311 
L 291.039449 67.95244 
L 291.392211 67.085455 
L 291.744974 68.385933 
L 292.097737 67.865742 
L 292.450499 68.55933 
L 292.803262 68.472632 
L 293.156025 69.686411 
L 293.508787 69.513014 
L 293.86155 71.160287 
L 294.214313 68.385933 
L 294.567075 68.299234 
L 294.919838 66.73866 
L 295.272601 69.513014 
L 295.625364 66.825359 
L 295.978126 68.385933 
L 296.330889 68.819426 
L 296.683652 67.518947 
L 297.036414 68.906124 
L 297.389177 68.732727 
L 297.74194 67.172153 
L 298.094702 67.605646 
L 298.447465 68.732727 
L 298.800228 68.039139 
L 299.15299 69.339617 
L 299.505753 69.339617 
L 299.858516 67.605646 
L 300.211278 67.34555 
L 300.564041 67.692344 
L 300.916804 69.426316 
L 301.269566 67.085455 
L 301.622329 69.946507 
L 301.975092 66.825359 
L 302.327854 68.732727 
L 302.680617 68.646029 
L 303.03338 67.692344 
L 303.386142 69.77311 
L 303.738905 69.946507 
L 304.091668 69.77311 
L 304.44443 68.212536 
L 304.797193 68.646029 
L 305.149956 68.125837 
L 305.502718 68.212536 
L 305.855481 68.906124 
L 306.208244 65.784976 
L 306.561006 67.34555 
L 306.913769 66.998756 
L 307.266532 67.34555 
L 307.619294 68.819426 
L 307.972057 68.472632 
L 308.32482 65.871675 
L 308.677583 68.55933 
L 309.030345 68.819426 
L 309.383108 65.871675 
L 309.735871 70.38 
L 310.441396 65.958373 
L 310.794159 72.113971 
L 311.146921 67.432249 
L 311.499684 68.472632 
L 312.205209 67.172153 
L 312.557972 68.039139 
L 312.910735 67.172153 
L 313.263497 68.299234 
L 313.61626 68.299234 
L 313.969023 66.73866 
L 314.321785 69.339617 
L 315.027311 67.95244 
L 315.380073 68.819426 
L 315.732836 67.085455 
L 316.085599 67.172153 
L 316.791124 66.045072 
L 317.143887 68.299234 
L 317.496649 67.779043 
L 317.849412 68.732727 
L 318.202175 66.565263 
L 318.9077 66.651962 
L 319.260463 67.779043 
L 319.613225 66.13177 
L 319.965988 67.95244 
L 320.318751 68.125837 
L 320.671513 68.646029 
L 321.024276 67.172153 
L 321.377039 69.513014 
L 321.729801 67.605646 
L 322.082564 68.039139 
L 322.435327 66.998756 
L 322.78809 67.692344 
L 323.140852 67.172153 
L 323.493615 67.172153 
L 323.846378 68.55933 
L 324.19914 66.391866 
L 324.551903 67.258852 
L 324.904666 68.992823 
L 325.257428 69.16622 
L 325.610191 66.912057 
L 325.962954 66.13177 
L 326.315716 66.998756 
L 326.668479 65.958373 
L 327.021242 67.865742 
L 327.374004 67.692344 
L 327.726767 66.825359 
L 328.07953 68.732727 
L 328.432292 66.478565 
L 328.785055 68.732727 
L 329.137818 68.55933 
L 329.49058 66.73866 
L 330.196106 68.125837 
L 330.548868 67.692344 
L 330.901631 68.55933 
L 331.254394 68.472632 
L 331.607156 66.825359 
L 331.959919 68.212536 
L 332.312682 67.865742 
L 332.665444 66.391866 
L 333.018207 67.605646 
L 333.37097 68.385933 
L 334.076495 68.472632 
L 334.429258 67.95244 
L 334.78202 67.865742 
L 335.134783 66.998756 
L 335.487546 67.34555 
L 335.840309 66.565263 
L 336.193071 67.085455 
L 336.545834 68.385933 
L 336.898597 67.34555 
L 337.251359 66.825359 
L 337.604122 66.73866 
L 338.309647 68.732727 
L 338.66241 65.004689 
L 339.015173 67.95244 
L 339.367935 64.91799 
L 339.720698 66.218469 
L 340.073461 66.651962 
L 340.426223 66.651962 
L 340.778986 67.865742 
L 341.131749 64.744593 
L 341.484511 67.779043 
L 341.837274 68.039139 
L 342.190037 68.732727 
L 342.542799 67.172153 
L 342.895562 68.039139 
L 343.248325 66.13177 
L 343.601087 67.172153 
L 343.95385 66.73866 
L 344.306613 68.906124 
L 344.659375 65.958373 
L 345.012138 66.478565 
L 345.364901 68.819426 
L 346.070426 66.218469 
L 346.423189 69.339617 
L 346.775951 66.565263 
L 347.128714 67.779043 
L 347.481477 66.825359 
L 347.834239 67.779043 
L 348.187002 65.784976 
L 348.539765 65.611579 
L 348.892528 67.518947 
L 349.24529 67.518947 
L 349.598053 68.732727 
L 349.950816 67.34555 
L 350.303578 67.258852 
L 350.656341 66.651962 
L 351.009104 67.692344 
L 351.361866 66.391866 
L 351.714629 66.825359 
L 352.067392 66.912057 
L 352.420154 67.258852 
L 352.772917 64.91799 
L 353.12568 67.865742 
L 353.478442 66.998756 
L 353.831205 67.258852 
L 354.53673 67.172153 
L 354.889493 67.518947 
L 355.242256 65.784976 
L 355.595018 67.258852 
L 355.947781 65.698278 
L 356.300544 66.478565 
L 356.653306 65.438182 
L 357.358832 67.779043 
L 357.711594 66.13177 
L 358.064357 67.605646 
L 358.41712 65.264785 
L 358.769882 66.478565 
L 359.122645 66.218469 
L 359.475408 67.172153 
L 359.82817 67.172153 
L 360.180933 66.998756 
L 360.533696 68.732727 
L 360.886458 66.73866 
L 361.239221 66.13177 
L 361.944746 67.172153 
L 362.297509 68.646029 
L 362.650272 64.137703 
L 363.003035 65.091388 
L 363.355797 65.698278 
L 363.70856 65.091388 
L 364.061323 66.13177 
L 364.414085 65.091388 
L 365.119611 65.958373 
L 365.472373 67.258852 
L 365.825136 66.651962 
L 366.177899 64.91799 
L 366.530661 66.73866 
L 366.883424 66.73866 
L 367.236187 66.565263 
L 367.588949 67.258852 
L 367.941712 64.3111 
L 368.647237 67.692344 
L 369 65.698278 
L 369.352763 66.998756 
L 369.705525 67.34555 
L 370.058288 68.906124 
L 370.411051 66.651962 
L 370.763813 65.264785 
L 371.116576 65.698278 
L 371.469339 65.698278 
L 371.822101 64.744593 
L 372.174864 67.085455 
L 372.527627 65.178086 
L 372.880389 65.178086 
L 373.233152 66.651962 
L 373.585915 66.478565 
L 373.938677 66.998756 
L 374.29144 65.52488 
L 374.644203 65.958373 
L 374.996965 67.605646 
L 375.349728 64.744593 
L 375.702491 66.305167 
L 376.055254 65.698278 
L 376.408016 68.212536 
L 376.760779 65.52488 
L 377.113542 66.825359 
L 377.819067 66.045072 
L 378.17183 66.478565 
L 378.524592 66.478565 
L 378.877355 65.091388 
L 379.230118 65.438182 
L 379.58288 66.391866 
L 379.935643 65.698278 
L 380.641168 67.605646 
L 380.993931 65.611579 
L 381.346694 66.13177 
L 381.699456 67.172153 
L 382.052219 64.657895 
L 382.404982 66.218469 
L 382.757744 66.73866 
L 383.110507 64.484498 
L 383.46327 64.224402 
L 383.816032 66.13177 
L 384.168795 65.091388 
L 384.521558 67.779043 
L 384.87432 65.958373 
L 385.227083 66.73866 
L 385.579846 66.912057 
L 385.932608 66.045072 
L 386.285371 65.871675 
L 386.638134 66.912057 
L 386.990896 64.744593 
L 387.343659 65.958373 
L 387.696422 66.478565 
L 388.049184 66.651962 
L 388.401947 67.865742 
L 388.75471 65.698278 
L 389.460235 64.3111 
L 389.812998 65.958373 
L 390.165761 66.218469 
L 390.518523 64.137703 
L 390.871286 66.13177 
L 391.224049 65.958373 
L 391.576811 66.13177 
L 391.929574 64.3111 
L 392.282337 63.270718 
L 392.635099 66.045072 
L 392.987862 64.657895 
L 393.340625 65.351483 
L 393.693387 65.264785 
L 394.04615 67.34555 
L 394.398913 65.438182 
L 394.751675 64.3111 
L 395.104438 65.004689 
L 395.457201 66.478565 
L 395.809963 65.611579 
L 396.162726 67.95244 
L 396.515489 65.698278 
L 396.868251 64.91799 
L 397.221014 64.571196 
L 397.573777 65.438182 
L 397.926539 65.178086 
L 398.279302 65.178086 
L 398.632065 66.13177 
L 398.984827 64.744593 
L 399.33759 64.224402 
L 399.690353 63.964306 
L 400.395878 68.385933 
L 400.748641 64.91799 
L 401.101403 65.871675 
L 401.454166 66.045072 
L 401.806929 64.831292 
L 402.159691 67.172153 
L 402.512454 66.651962 
L 402.865217 66.565263 
L 403.21798 64.744593 
L 403.570742 65.958373 
L 403.923505 65.351483 
L 404.276268 67.085455 
L 404.981793 65.351483 
L 405.687318 66.912057 
L 406.040081 66.13177 
L 406.392844 67.692344 
L 406.745606 65.004689 
L 407.098369 64.744593 
L 407.451132 66.478565 
L 407.803894 66.391866 
L 408.156657 65.958373 
L 408.50942 67.172153 
L 408.862182 67.692344 
L 409.214945 66.305167 
L 409.567708 66.218469 
L 409.92047 64.91799 
L 410.273233 66.218469 
L 410.978758 66.13177 
L 411.331521 66.651962 
L 411.684284 66.13177 
L 412.389809 64.397799 
L 412.742572 66.912057 
L 413.095334 65.611579 
L 413.448097 65.958373 
L 413.80086 64.831292 
L 414.153622 66.045072 
L 414.506385 65.611579 
L 414.859148 67.258852 
L 415.21191 65.004689 
L 415.564673 65.52488 
L 415.917436 67.518947 
L 416.622961 66.565263 
L 416.975724 66.565263 
L 417.328487 65.698278 
L 417.681249 65.784976 
L 418.034012 65.004689 
L 418.386775 66.478565 
L 419.0923 64.571196 
L 419.797825 66.912057 
L 420.150588 66.565263 
L 420.503351 65.958373 
L 420.856113 63.877608 
L 421.561639 66.565263 
L 421.914401 65.52488 
L 422.267164 65.091388 
L 422.619927 68.125837 
L 422.972689 64.744593 
L 423.325452 65.351483 
L 423.678215 66.565263 
L 424.030977 67.172153 
L 424.38374 66.825359 
L 424.736503 65.784976 
L 425.089265 66.565263 
L 425.442028 65.351483 
L 425.794791 66.825359 
L 426.147553 64.831292 
L 426.500316 65.871675 
L 426.853079 66.391866 
L 427.205841 65.438182 
L 427.558604 65.698278 
L 427.911367 63.790909 
L 428.264129 67.779043 
L 428.616892 64.484498 
L 428.969655 65.52488 
L 429.322417 65.958373 
L 429.67518 65.871675 
L 430.027943 65.611579 
L 430.380706 65.611579 
L 430.733468 64.744593 
L 431.086231 67.34555 
L 431.438994 66.825359 
L 431.791756 65.52488 
L 432.144519 65.958373 
L 432.497282 67.692344 
L 433.202807 65.178086 
L 433.55557 65.698278 
L 434.261095 64.831292 
L 434.613858 64.051005 
L 434.96662 66.912057 
L 435.319383 66.305167 
L 435.672146 64.397799 
L 436.024908 67.432249 
L 436.377671 65.264785 
L 436.730434 65.264785 
L 437.083196 66.73866 
L 437.435959 65.871675 
L 437.788722 66.305167 
L 438.141484 65.351483 
L 438.494247 65.178086 
L 438.84701 66.305167 
L 439.199772 65.091388 
L 439.552535 66.73866 
L 439.905298 67.172153 
L 440.25806 66.13177 
L 440.610823 64.484498 
L 440.963586 65.871675 
L 441.316348 64.657895 
L 441.669111 65.611579 
L 442.021874 66.045072 
L 442.374636 65.52488 
L 442.727399 67.779043 
L 443.080162 67.172153 
L 443.432925 64.051005 
L 443.785687 66.73866 
L 444.13845 63.184019 
L 444.491213 63.357416 
L 444.843975 65.698278 
L 445.196738 66.218469 
L 445.549501 67.172153 
L 445.902263 66.218469 
L 446.607789 65.264785 
L 446.960551 66.045072 
L 447.313314 66.478565 
L 447.666077 65.264785 
L 448.018839 65.091388 
L 448.371602 66.218469 
L 448.724365 63.444115 
L 449.077127 64.137703 
L 449.42989 65.351483 
L 449.782653 64.051005 
L 450.135415 64.224402 
L 450.488178 66.045072 
L 450.840941 66.565263 
L 451.193703 65.178086 
L 451.546466 64.484498 
L 451.899229 66.565263 
L 452.251991 65.351483 
L 452.604754 65.004689 
L 452.957517 66.478565 
L 453.310279 63.790909 
L 453.663042 64.3111 
L 454.015805 65.438182 
L 454.368567 66.998756 
L 454.72133 65.871675 
L 455.074093 64.3111 
L 455.426855 66.565263 
L 455.779618 63.357416 
L 456.132381 66.565263 
L 456.485144 66.825359 
L 456.837906 65.264785 
L 457.190669 64.3111 
L 457.543432 64.571196 
L 457.896194 66.912057 
L 458.248957 64.657895 
L 458.60172 67.085455 
L 458.954482 65.871675 
L 459.307245 65.438182 
L 459.660008 66.912057 
L 460.01277 65.091388 
L 460.365533 66.391866 
L 460.718296 65.004689 
L 461.071058 66.13177 
L 461.423821 64.657895 
L 461.776584 65.611579 
L 462.482109 63.877608 
L 462.834872 65.351483 
L 463.540397 66.73866 
L 464.245922 63.877608 
L 464.598685 66.218469 
L 464.951448 66.651962 
L 465.30421 66.218469 
L 465.656973 64.91799 
L 466.009736 65.958373 
L 466.362498 64.137703 
L 466.715261 66.651962 
L 467.068024 65.958373 
L 467.420786 65.004689 
L 467.773549 65.091388 
L 468.126312 64.224402 
L 468.479074 65.438182 
L 468.831837 65.264785 
L 469.1846 64.484498 
L 469.537362 66.651962 
L 469.890125 66.305167 
L 470.242888 65.438182 
L 470.948413 67.34555 
L 471.301176 63.530813 
L 471.653939 64.744593 
L 472.006701 64.831292 
L 472.359464 65.438182 
L 472.712227 67.258852 
L 473.064989 67.432249 
L 473.770515 63.530813 
L 474.123277 66.478565 
L 474.828803 64.224402 
L 475.181565 67.518947 
L 475.887091 65.264785 
L 476.239853 64.831292 
L 476.592616 66.651962 
L 476.945379 66.218469 
L 477.298141 64.397799 
L 477.650904 64.571196 
L 478.003667 63.790909 
L 478.356429 66.651962 
L 478.709192 66.651962 
L 479.061955 65.698278 
L 479.414717 64.397799 
L 479.76748 66.825359 
L 480.473005 65.004689 
L 480.825768 68.646029 
L 481.178531 64.571196 
L 481.531293 65.784976 
L 481.884056 65.52488 
L 482.236819 65.091388 
L 482.589581 66.218469 
L 482.942344 65.871675 
L 483.295107 65.871675 
L 483.64787 65.091388 
L 484.000632 66.478565 
L 484.353395 66.391866 
L 484.706158 66.825359 
L 485.05892 66.478565 
L 485.411683 63.964306 
L 485.764446 65.438182 
L 486.117208 66.045072 
L 486.469971 63.877608 
L 486.822734 63.704211 
L 487.528259 67.432249 
L 488.233784 64.91799 
L 488.586547 64.831292 
L 488.93931 64.91799 
L 489.292072 63.877608 
L 489.997598 66.825359 
L 490.35036 65.264785 
L 490.703123 66.13177 
L 491.055886 63.877608 
L 491.408648 64.137703 
L 492.114174 65.958373 
L 492.466936 63.790909 
L 492.819699 65.958373 
L 493.525224 65.958373 
L 493.877987 65.264785 
L 494.23075 64.224402 
L 494.583512 65.264785 
L 494.936275 66.73866 
L 495.289038 63.097321 
L 495.6418 63.964306 
L 495.994563 66.13177 
L 496.347326 65.004689 
L 496.700089 67.432249 
L 497.405614 65.438182 
L 498.111139 66.565263 
L 498.816665 64.571196 
L 499.169427 64.571196 
L 499.52219 64.397799 
L 499.874953 65.611579 
L 500.227715 66.391866 
L 500.580478 64.831292 
L 500.933241 64.051005 
L 501.286003 66.478565 
L 501.638766 62.230335 
L 501.991529 63.617512 
L 502.344291 66.218469 
L 502.697054 62.663828 
L 503.049817 63.184019 
L 503.402579 64.91799 
L 503.755342 65.264785 
L 504.108105 64.3111 
L 504.81363 65.52488 
L 505.166393 64.484498 
L 505.519155 65.871675 
L 505.871918 64.657895 
L 506.224681 64.484498 
L 506.577443 65.52488 
L 506.930206 65.784976 
L 507.282969 67.605646 
L 507.635731 64.831292 
L 507.988494 63.964306 
L 508.341257 64.831292 
L 508.694019 66.391866 
L 509.046782 65.091388 
L 509.399545 66.912057 
L 509.752307 64.224402 
L 510.10507 65.611579 
L 510.457833 65.52488 
L 510.810596 65.784976 
L 511.163358 65.351483 
L 511.516121 64.224402 
L 511.868884 64.224402 
L 512.221646 65.004689 
L 512.574409 65.351483 
L 512.927172 66.13177 
L 513.279934 66.478565 
L 513.632697 64.484498 
L 513.98546 67.692344 
L 514.338222 65.091388 
L 514.690985 64.657895 
L 515.043748 64.831292 
L 515.39651 64.831292 
L 515.749273 65.52488 
L 516.102036 64.657895 
L 516.454798 66.651962 
L 516.807561 63.790909 
L 517.160324 65.52488 
L 517.513086 64.571196 
L 517.865849 63.184019 
L 518.571374 66.998756 
L 518.924137 67.258852 
L 519.2769 64.3111 
L 519.629662 65.784976 
L 519.982425 66.478565 
L 520.335188 65.004689 
L 520.68795 64.3111 
L 521.040713 65.004689 
L 521.393476 64.831292 
L 521.746238 65.091388 
L 522.099001 65.784976 
L 522.451764 65.438182 
L 522.804526 65.438182 
L 523.157289 64.397799 
L 523.510052 63.704211 
L 523.862815 62.663828 
L 524.215577 64.571196 
L 524.56834 65.178086 
L 524.921103 64.657895 
L 525.273865 65.958373 
L 525.626628 65.264785 
L 525.979391 65.091388 
L 526.332153 66.045072 
L 526.684916 63.877608 
L 527.390441 66.045072 
L 527.743204 64.224402 
L 528.095967 67.518947 
L 528.448729 66.912057 
L 528.801492 65.438182 
L 529.154255 63.444115 
L 530.212543 66.391866 
L 530.565305 65.264785 
L 530.918068 65.351483 
L 531.270831 64.484498 
L 531.623593 63.270718 
L 531.976356 64.657895 
L 532.329119 63.617512 
L 532.681881 65.178086 
L 533.034644 67.258852 
L 533.387407 63.270718 
L 533.740169 65.438182 
L 534.092932 64.3111 
L 534.445695 61.883541 
L 534.798457 65.351483 
L 535.15122 65.611579 
L 535.503983 63.097321 
L 535.856745 65.611579 
L 536.562271 64.744593 
L 536.915034 65.178086 
L 537.267796 64.657895 
L 537.620559 64.397799 
L 537.973322 66.045072 
L 538.326084 66.391866 
L 538.678847 64.224402 
L 539.384372 64.831292 
L 539.737135 64.224402 
L 540.089898 65.958373 
L 540.44266 65.004689 
L 540.795423 66.998756 
L 541.148186 66.305167 
L 541.500948 64.744593 
L 541.853711 65.351483 
L 542.206474 65.264785 
L 542.559236 64.397799 
L 542.911999 66.305167 
L 543.264762 65.958373 
L 543.617524 66.13177 
L 543.970287 65.52488 
L 544.675812 64.91799 
L 545.028575 64.051005 
L 545.381338 65.611579 
L 545.7341 64.3111 
L 546.086863 65.004689 
L 546.439626 62.663828 
L 546.792388 64.91799 
L 547.145151 64.91799 
L 547.497914 66.045072 
L 547.850676 64.744593 
L 548.203439 64.484498 
L 548.556202 65.351483 
L 548.908964 65.784976 
L 549.261727 65.004689 
L 549.61449 66.391866 
L 549.967252 63.877608 
L 550.320015 65.871675 
L 550.672778 65.351483 
L 551.025541 65.178086 
L 551.378303 66.478565 
L 551.731066 65.178086 
L 552.083829 66.305167 
L 552.436591 64.397799 
L 552.789354 63.444115 
L 553.142117 65.004689 
L 553.494879 63.877608 
L 553.847642 64.051005 
L 554.200405 65.611579 
L 554.553167 65.611579 
L 554.90593 64.657895 
L 555.258693 63.010622 
L 555.611455 64.224402 
L 555.964218 64.744593 
L 556.316981 64.224402 
L 556.669743 65.091388 
L 557.022506 65.611579 
L 557.375269 64.224402 
L 557.728031 65.611579 
L 558.080794 65.178086 
L 558.786319 65.264785 
L 559.139082 64.137703 
L 559.491845 64.91799 
L 559.844607 64.91799 
L 560.19737 63.270718 
L 560.550133 65.004689 
L 561.255658 63.704211 
L 561.608421 63.617512 
L 561.961183 64.91799 
L 562.313946 64.657895 
L 562.666709 65.178086 
L 563.019471 66.478565 
L 563.372234 66.825359 
L 564.07776 64.484498 
L 564.783285 63.964306 
L 565.136048 65.091388 
L 565.48881 66.912057 
L 565.841573 64.91799 
L 566.194336 64.051005 
L 566.547098 64.91799 
L 566.899861 64.91799 
L 567.252624 64.657895 
L 567.605386 65.264785 
L 568.310912 65.351483 
L 568.663674 67.085455 
L 569.016437 64.657895 
L 569.3692 65.784976 
L 569.721962 63.097321 
L 570.074725 63.877608 
L 570.427488 65.438182 
L 571.133013 65.351483 
L 571.485776 64.224402 
L 571.838538 63.790909 
L 572.544064 65.611579 
L 572.896826 64.224402 
L 573.249589 65.698278 
L 573.602352 65.438182 
L 573.955114 64.744593 
L 574.307877 63.704211 
L 574.66064 64.051005 
L 575.013402 63.617512 
L 575.366165 65.264785 
L 575.718928 66.045072 
L 576.07169 62.577129 
L 576.777216 65.438182 
L 577.129979 65.784976 
L 577.482741 66.825359 
L 577.835504 63.964306 
L 578.188267 64.3111 
L 578.541029 66.218469 
L 578.893792 63.530813 
L 579.599317 65.958373 
L 579.95208 63.097321 
L 580.304843 64.657895 
L 580.657605 67.085455 
L 581.010368 63.617512 
L 581.363131 65.784976 
L 581.715893 63.444115 
L 582.068656 65.091388 
L 582.421419 63.964306 
L 582.774181 63.270718 
L 583.126944 64.571196 
L 583.479707 63.617512 
L 583.832469 65.004689 
L 584.185232 67.258852 
L 584.537995 65.351483 
L 584.890757 64.657895 
L 585.24352 65.264785 
L 585.596283 64.91799 
L 585.949045 65.178086 
L 586.301808 64.91799 
L 586.654571 65.178086 
L 587.007333 66.912057 
L 587.360096 65.438182 
L 587.712859 66.478565 
L 588.418384 65.52488 
L 588.771147 64.571196 
L 589.123909 63.964306 
L 589.476672 66.305167 
L 589.829435 65.438182 
L 590.182197 65.351483 
L 590.53496 66.391866 
L 590.887723 63.964306 
L 591.240486 64.224402 
L 591.593248 64.224402 
L 591.946011 64.744593 
L 592.651536 64.484498 
L 593.004299 65.784976 
L 593.357062 63.010622 
L 593.709824 64.91799 
L 594.062587 64.571196 
L 594.41535 65.784976 
L 594.768112 63.790909 
L 595.120875 64.224402 
L 595.473638 65.351483 
L 595.8264 63.704211 
L 596.179163 63.530813 
L 596.884688 63.964306 
L 597.237451 66.305167 
L 597.590214 67.085455 
L 597.942976 64.224402 
L 598.295739 65.178086 
L 598.648502 65.698278 
L 599.001264 65.611579 
L 599.354027 63.790909 
L 599.70679 65.438182 
L 600.059552 65.958373 
L 600.412315 65.52488 
L 600.765078 64.744593 
L 601.11784 64.397799 
L 601.470603 65.611579 
L 601.823366 63.704211 
L 602.176128 65.871675 
L 602.528891 64.831292 
L 602.881654 65.004689 
L 603.234416 63.790909 
L 603.587179 64.831292 
L 603.939942 64.571196 
L 604.292705 66.13177 
L 604.99823 64.484498 
L 605.350993 64.224402 
L 605.703755 64.137703 
L 606.056518 65.091388 
L 606.409281 63.444115 
L 606.762043 65.52488 
L 607.114806 63.704211 
L 607.467569 64.657895 
L 607.820331 65.004689 
L 608.173094 63.877608 
L 608.525857 64.831292 
L 608.878619 64.224402 
L 609.231382 65.784976 
L 609.584145 66.305167 
L 609.936907 65.004689 
L 610.28967 64.831292 
L 610.642433 66.218469 
L 610.995195 65.438182 
L 611.700721 65.351483 
L 612.053483 65.178086 
L 612.406246 64.831292 
L 612.759009 64.3111 
L 613.464534 66.045072 
L 613.817297 65.52488 
L 614.170059 64.571196 
L 614.522822 66.13177 
L 614.875585 65.871675 
L 615.228347 64.397799 
L 615.933873 64.3111 
L 616.286635 65.958373 
L 616.639398 62.837225 
L 617.344924 66.478565 
L 617.697686 62.317033 
L 618.050449 64.91799 
L 618.755974 66.912057 
L 619.4615 63.617512 
L 619.814262 65.698278 
L 620.167025 65.52488 
L 620.519788 66.218469 
L 620.87255 66.13177 
L 621.225313 64.744593 
L 621.578076 63.877608 
L 621.930838 65.958373 
L 622.283601 64.051005 
L 622.636364 64.744593 
L 622.636364 64.744593 
" style="fill:none;stroke:#ff7f0e;stroke-linecap:square;stroke-width:0.5;"/>
   </g>
   <g id="patch_3">
    <path d="M 90 315 
L 90 43.2 
" style="fill:none;stroke:#000000;stroke-linecap:square;stroke-linejoin:miter;stroke-width:0.8;"/>
   </g>
   <g id="patch_4">
    <path d="M 648 315 
L 648 43.2 
" style="fill:none;stroke:#000000;stroke-linecap:square;stroke-linejoin:miter;stroke-width:0.8;"/>
   </g>
   <g id="patch_5">
    <path d="M 90 315 
L 648 315 
" style="fill:none;stroke:#000000;stroke-linecap:square;stroke-linejoin:miter;stroke-width:0.8;"/>
   </g>
   <g id="patch_6">
    <path d="M 90 43.2 
L 648 43.2 
" style="fill:none;stroke:#000000;stroke-linecap:square;stroke-linejoin:miter;stroke-width:0.8;"/>
   </g>
   <g id="text_19">
    <!-- accuracy -->
    <g transform="translate(341.92875 37.2)scale(0.12 -0.12)">
     <use xlink:href="#DejaVuSans-97"/>
     <use x="61.279297" xlink:href="#DejaVuSans-99"/>
     <use x="116.259766" xlink:href="#DejaVuSans-99"/>
     <use x="171.240234" xlink:href="#DejaVuSans-117"/>
     <use x="234.619141" xlink:href="#DejaVuSans-114"/>
     <use x="275.732422" xlink:href="#DejaVuSans-97"/>
     <use x="337.011719" xlink:href="#DejaVuSans-99"/>
     <use x="391.992188" xlink:href="#DejaVuSans-121"/>
    </g>
   </g>
   <g id="legend_1">
    <g id="patch_7">
     <path d="M 97 80.55625 
L 169.153125 80.55625 
Q 171.153125 80.55625 171.153125 78.55625 
L 171.153125 50.2 
Q 171.153125 48.2 169.153125 48.2 
L 97 48.2 
Q 95 48.2 95 50.2 
L 95 78.55625 
Q 95 80.55625 97 80.55625 
z
" style="fill:#ffffff;opacity:0.8;stroke:#cccccc;stroke-linejoin:miter;"/>
    </g>
    <g id="line2d_35">
     <path d="M 99 56.298437 
L 119 56.298437 
" style="fill:none;stroke:#1f77b4;stroke-linecap:square;stroke-width:0.5;"/>
    </g>
    <g id="line2d_36"/>
    <g id="text_20">
     <!-- train -->
     <defs>
      <path d="M 18.3125 70.21875 
L 18.3125 54.6875 
L 36.8125 54.6875 
L 36.8125 47.703125 
L 18.3125 47.703125 
L 18.3125 18.015625 
Q 18.3125 11.328125 20.140625 9.421875 
Q 21.96875 7.515625 27.59375 7.515625 
L 36.8125 7.515625 
L 36.8125 0 
L 27.59375 0 
Q 17.1875 0 13.234375 3.875 
Q 9.28125 7.765625 9.28125 18.015625 
L 9.28125 47.703125 
L 2.6875 47.703125 
L 2.6875 54.6875 
L 9.28125 54.6875 
L 9.28125 70.21875 
z
" id="DejaVuSans-116"/>
      <path d="M 9.421875 54.6875 
L 18.40625 54.6875 
L 18.40625 0 
L 9.421875 0 
z
M 9.421875 75.984375 
L 18.40625 75.984375 
L 18.40625 64.59375 
L 9.421875 64.59375 
z
" id="DejaVuSans-105"/>
      <path d="M 54.890625 33.015625 
L 54.890625 0 
L 45.90625 0 
L 45.90625 32.71875 
Q 45.90625 40.484375 42.875 44.328125 
Q 39.84375 48.1875 33.796875 48.1875 
Q 26.515625 48.1875 22.3125 43.546875 
Q 18.109375 38.921875 18.109375 30.90625 
L 18.109375 0 
L 9.078125 0 
L 9.078125 54.6875 
L 18.109375 54.6875 
L 18.109375 46.1875 
Q 21.34375 51.125 25.703125 53.5625 
Q 30.078125 56 35.796875 56 
Q 45.21875 56 50.046875 50.171875 
Q 54.890625 44.34375 54.890625 33.015625 
z
" id="DejaVuSans-110"/>
     </defs>
     <g transform="translate(127 59.798437)scale(0.1 -0.1)">
      <use xlink:href="#DejaVuSans-116"/>
      <use x="39.208984" xlink:href="#DejaVuSans-114"/>
      <use x="80.322266" xlink:href="#DejaVuSans-97"/>
      <use x="141.601562" xlink:href="#DejaVuSans-105"/>
      <use x="169.384766" xlink:href="#DejaVuSans-110"/>
     </g>
    </g>
    <g id="line2d_37">
     <path d="M 99 70.976562 
L 119 70.976562 
" style="fill:none;stroke:#ff7f0e;stroke-linecap:square;stroke-width:0.5;"/>
    </g>
    <g id="line2d_38"/>
    <g id="text_21">
     <!-- validate -->
     <defs>
      <path d="M 2.984375 54.6875 
L 12.5 54.6875 
L 29.59375 8.796875 
L 46.6875 54.6875 
L 56.203125 54.6875 
L 35.6875 0 
L 23.484375 0 
z
" id="DejaVuSans-118"/>
      <path d="M 9.421875 75.984375 
L 18.40625 75.984375 
L 18.40625 0 
L 9.421875 0 
z
" id="DejaVuSans-108"/>
      <path d="M 45.40625 46.390625 
L 45.40625 75.984375 
L 54.390625 75.984375 
L 54.390625 0 
L 45.40625 0 
L 45.40625 8.203125 
Q 42.578125 3.328125 38.25 0.953125 
Q 33.9375 -1.421875 27.875 -1.421875 
Q 17.96875 -1.421875 11.734375 6.484375 
Q 5.515625 14.40625 5.515625 27.296875 
Q 5.515625 40.1875 11.734375 48.09375 
Q 17.96875 56 27.875 56 
Q 33.9375 56 38.25 53.625 
Q 42.578125 51.265625 45.40625 46.390625 
z
M 14.796875 27.296875 
Q 14.796875 17.390625 18.875 11.75 
Q 22.953125 6.109375 30.078125 6.109375 
Q 37.203125 6.109375 41.296875 11.75 
Q 45.40625 17.390625 45.40625 27.296875 
Q 45.40625 37.203125 41.296875 42.84375 
Q 37.203125 48.484375 30.078125 48.484375 
Q 22.953125 48.484375 18.875 42.84375 
Q 14.796875 37.203125 14.796875 27.296875 
z
" id="DejaVuSans-100"/>
     </defs>
     <g transform="translate(127 74.476562)scale(0.1 -0.1)">
      <use xlink:href="#DejaVuSans-118"/>
      <use x="59.179688" xlink:href="#DejaVuSans-97"/>
      <use x="120.458984" xlink:href="#DejaVuSans-108"/>
      <use x="148.242188" xlink:href="#DejaVuSans-105"/>
      <use x="176.025391" xlink:href="#DejaVuSans-100"/>
      <use x="239.501953" xlink:href="#DejaVuSans-97"/>
      <use x="300.78125" xlink:href="#DejaVuSans-116"/>
      <use x="339.990234" xlink:href="#DejaVuSans-101"/>
     </g>
    </g>
   </g>
  </g>
 </g>
 <defs>
  <clipPath id="p5e8d1520ce">
   <rect height="271.8" width="558" x="90" y="43.2"/>
  </clipPath>
 </defs>
</svg>
