<?xml version="1.0" encoding="utf-8" standalone="no"?>
<!DOCTYPE svg PUBLIC "-//W3C//DTD SVG 1.1//EN"
  "http://www.w3.org/Graphics/SVG/1.1/DTD/svg11.dtd">
<!-- Created with matplotlib (https://matplotlib.org/) -->
<svg height="360pt" version="1.1" viewBox="0 0 720 360" width="720pt" xmlns="http://www.w3.org/2000/svg" xmlns:xlink="http://www.w3.org/1999/xlink">
 <defs>
  <style type="text/css">
*{stroke-linecap:butt;stroke-linejoin:round;}
  </style>
 </defs>
 <g id="figure_1">
  <g id="patch_1">
   <path d="M 0 360 
L 720 360 
L 720 0 
L 0 0 
z
" style="fill:#ffffff;"/>
  </g>
  <g id="axes_1">
   <g id="patch_2">
    <path d="M 90 315 
L 648 315 
L 648 43.2 
L 90 43.2 
z
" style="fill:#ffffff;"/>
   </g>
   <g id="matplotlib.axis_1">
    <g id="xtick_1">
     <g id="line2d_1">
      <path clip-path="url(#p74f15c1cd3)" d="M 115.363636 315 
L 115.363636 43.2 
" style="fill:none;stroke:#b0b0b0;stroke-linecap:square;stroke-width:0.8;"/>
     </g>
     <g id="line2d_2">
      <defs>
       <path d="M 0 0 
L 0 3.5 
" id="m25928fb370" style="stroke:#000000;stroke-width:0.8;"/>
      </defs>
      <g>
       <use style="stroke:#000000;stroke-width:0.8;" x="115.363636" xlink:href="#m25928fb370" y="315"/>
      </g>
     </g>
     <g id="text_1">
      <!-- 0 -->
      <defs>
       <path d="M 31.78125 66.40625 
Q 24.171875 66.40625 20.328125 58.90625 
Q 16.5 51.421875 16.5 36.375 
Q 16.5 21.390625 20.328125 13.890625 
Q 24.171875 6.390625 31.78125 6.390625 
Q 39.453125 6.390625 43.28125 13.890625 
Q 47.125 21.390625 47.125 36.375 
Q 47.125 51.421875 43.28125 58.90625 
Q 39.453125 66.40625 31.78125 66.40625 
z
M 31.78125 74.21875 
Q 44.046875 74.21875 50.515625 64.515625 
Q 56.984375 54.828125 56.984375 36.375 
Q 56.984375 17.96875 50.515625 8.265625 
Q 44.046875 -1.421875 31.78125 -1.421875 
Q 19.53125 -1.421875 13.0625 8.265625 
Q 6.59375 17.96875 6.59375 36.375 
Q 6.59375 54.828125 13.0625 64.515625 
Q 19.53125 74.21875 31.78125 74.21875 
z
" id="DejaVuSans-48"/>
      </defs>
      <g transform="translate(112.182386 329.598437)scale(0.1 -0.1)">
       <use xlink:href="#DejaVuSans-48"/>
      </g>
     </g>
    </g>
    <g id="xtick_2">
     <g id="line2d_3">
      <path clip-path="url(#p74f15c1cd3)" d="M 205.625687 315 
L 205.625687 43.2 
" style="fill:none;stroke:#b0b0b0;stroke-linecap:square;stroke-width:0.8;"/>
     </g>
     <g id="line2d_4">
      <g>
       <use style="stroke:#000000;stroke-width:0.8;" x="205.625687" xlink:href="#m25928fb370" y="315"/>
      </g>
     </g>
     <g id="text_2">
      <!-- 100 -->
      <defs>
       <path d="M 12.40625 8.296875 
L 28.515625 8.296875 
L 28.515625 63.921875 
L 10.984375 60.40625 
L 10.984375 69.390625 
L 28.421875 72.90625 
L 38.28125 72.90625 
L 38.28125 8.296875 
L 54.390625 8.296875 
L 54.390625 0 
L 12.40625 0 
z
" id="DejaVuSans-49"/>
      </defs>
      <g transform="translate(196.081937 329.598437)scale(0.1 -0.1)">
       <use xlink:href="#DejaVuSans-49"/>
       <use x="63.623047" xlink:href="#DejaVuSans-48"/>
       <use x="127.246094" xlink:href="#DejaVuSans-48"/>
      </g>
     </g>
    </g>
    <g id="xtick_3">
     <g id="line2d_5">
      <path clip-path="url(#p74f15c1cd3)" d="M 295.887739 315 
L 295.887739 43.2 
" style="fill:none;stroke:#b0b0b0;stroke-linecap:square;stroke-width:0.8;"/>
     </g>
     <g id="line2d_6">
      <g>
       <use style="stroke:#000000;stroke-width:0.8;" x="295.887739" xlink:href="#m25928fb370" y="315"/>
      </g>
     </g>
     <g id="text_3">
      <!-- 200 -->
      <defs>
       <path d="M 19.1875 8.296875 
L 53.609375 8.296875 
L 53.609375 0 
L 7.328125 0 
L 7.328125 8.296875 
Q 12.9375 14.109375 22.625 23.890625 
Q 32.328125 33.6875 34.8125 36.53125 
Q 39.546875 41.84375 41.421875 45.53125 
Q 43.3125 49.21875 43.3125 52.78125 
Q 43.3125 58.59375 39.234375 62.25 
Q 35.15625 65.921875 28.609375 65.921875 
Q 23.96875 65.921875 18.8125 64.3125 
Q 13.671875 62.703125 7.8125 59.421875 
L 7.8125 69.390625 
Q 13.765625 71.78125 18.9375 73 
Q 24.125 74.21875 28.421875 74.21875 
Q 39.75 74.21875 46.484375 68.546875 
Q 53.21875 62.890625 53.21875 53.421875 
Q 53.21875 48.921875 51.53125 44.890625 
Q 49.859375 40.875 45.40625 35.40625 
Q 44.1875 33.984375 37.640625 27.21875 
Q 31.109375 20.453125 19.1875 8.296875 
z
" id="DejaVuSans-50"/>
      </defs>
      <g transform="translate(286.343989 329.598437)scale(0.1 -0.1)">
       <use xlink:href="#DejaVuSans-50"/>
       <use x="63.623047" xlink:href="#DejaVuSans-48"/>
       <use x="127.246094" xlink:href="#DejaVuSans-48"/>
      </g>
     </g>
    </g>
    <g id="xtick_4">
     <g id="line2d_7">
      <path clip-path="url(#p74f15c1cd3)" d="M 386.14979 315 
L 386.14979 43.2 
" style="fill:none;stroke:#b0b0b0;stroke-linecap:square;stroke-width:0.8;"/>
     </g>
     <g id="line2d_8">
      <g>
       <use style="stroke:#000000;stroke-width:0.8;" x="386.14979" xlink:href="#m25928fb370" y="315"/>
      </g>
     </g>
     <g id="text_4">
      <!-- 300 -->
      <defs>
       <path d="M 40.578125 39.3125 
Q 47.65625 37.796875 51.625 33 
Q 55.609375 28.21875 55.609375 21.1875 
Q 55.609375 10.40625 48.1875 4.484375 
Q 40.765625 -1.421875 27.09375 -1.421875 
Q 22.515625 -1.421875 17.65625 -0.515625 
Q 12.796875 0.390625 7.625 2.203125 
L 7.625 11.71875 
Q 11.71875 9.328125 16.59375 8.109375 
Q 21.484375 6.890625 26.8125 6.890625 
Q 36.078125 6.890625 40.9375 10.546875 
Q 45.796875 14.203125 45.796875 21.1875 
Q 45.796875 27.640625 41.28125 31.265625 
Q 36.765625 34.90625 28.71875 34.90625 
L 20.21875 34.90625 
L 20.21875 43.015625 
L 29.109375 43.015625 
Q 36.375 43.015625 40.234375 45.921875 
Q 44.09375 48.828125 44.09375 54.296875 
Q 44.09375 59.90625 40.109375 62.90625 
Q 36.140625 65.921875 28.71875 65.921875 
Q 24.65625 65.921875 20.015625 65.03125 
Q 15.375 64.15625 9.8125 62.3125 
L 9.8125 71.09375 
Q 15.4375 72.65625 20.34375 73.4375 
Q 25.25 74.21875 29.59375 74.21875 
Q 40.828125 74.21875 47.359375 69.109375 
Q 53.90625 64.015625 53.90625 55.328125 
Q 53.90625 49.265625 50.4375 45.09375 
Q 46.96875 40.921875 40.578125 39.3125 
z
" id="DejaVuSans-51"/>
      </defs>
      <g transform="translate(376.60604 329.598437)scale(0.1 -0.1)">
       <use xlink:href="#DejaVuSans-51"/>
       <use x="63.623047" xlink:href="#DejaVuSans-48"/>
       <use x="127.246094" xlink:href="#DejaVuSans-48"/>
      </g>
     </g>
    </g>
    <g id="xtick_5">
     <g id="line2d_9">
      <path clip-path="url(#p74f15c1cd3)" d="M 476.411841 315 
L 476.411841 43.2 
" style="fill:none;stroke:#b0b0b0;stroke-linecap:square;stroke-width:0.8;"/>
     </g>
     <g id="line2d_10">
      <g>
       <use style="stroke:#000000;stroke-width:0.8;" x="476.411841" xlink:href="#m25928fb370" y="315"/>
      </g>
     </g>
     <g id="text_5">
      <!-- 400 -->
      <defs>
       <path d="M 37.796875 64.3125 
L 12.890625 25.390625 
L 37.796875 25.390625 
z
M 35.203125 72.90625 
L 47.609375 72.90625 
L 47.609375 25.390625 
L 58.015625 25.390625 
L 58.015625 17.1875 
L 47.609375 17.1875 
L 47.609375 0 
L 37.796875 0 
L 37.796875 17.1875 
L 4.890625 17.1875 
L 4.890625 26.703125 
z
" id="DejaVuSans-52"/>
      </defs>
      <g transform="translate(466.868091 329.598437)scale(0.1 -0.1)">
       <use xlink:href="#DejaVuSans-52"/>
       <use x="63.623047" xlink:href="#DejaVuSans-48"/>
       <use x="127.246094" xlink:href="#DejaVuSans-48"/>
      </g>
     </g>
    </g>
    <g id="xtick_6">
     <g id="line2d_11">
      <path clip-path="url(#p74f15c1cd3)" d="M 566.673892 315 
L 566.673892 43.2 
" style="fill:none;stroke:#b0b0b0;stroke-linecap:square;stroke-width:0.8;"/>
     </g>
     <g id="line2d_12">
      <g>
       <use style="stroke:#000000;stroke-width:0.8;" x="566.673892" xlink:href="#m25928fb370" y="315"/>
      </g>
     </g>
     <g id="text_6">
      <!-- 500 -->
      <defs>
       <path d="M 10.796875 72.90625 
L 49.515625 72.90625 
L 49.515625 64.59375 
L 19.828125 64.59375 
L 19.828125 46.734375 
Q 21.96875 47.46875 24.109375 47.828125 
Q 26.265625 48.1875 28.421875 48.1875 
Q 40.625 48.1875 47.75 41.5 
Q 54.890625 34.8125 54.890625 23.390625 
Q 54.890625 11.625 47.5625 5.09375 
Q 40.234375 -1.421875 26.90625 -1.421875 
Q 22.3125 -1.421875 17.546875 -0.640625 
Q 12.796875 0.140625 7.71875 1.703125 
L 7.71875 11.625 
Q 12.109375 9.234375 16.796875 8.0625 
Q 21.484375 6.890625 26.703125 6.890625 
Q 35.15625 6.890625 40.078125 11.328125 
Q 45.015625 15.765625 45.015625 23.390625 
Q 45.015625 31 40.078125 35.4375 
Q 35.15625 39.890625 26.703125 39.890625 
Q 22.75 39.890625 18.8125 39.015625 
Q 14.890625 38.140625 10.796875 36.28125 
z
" id="DejaVuSans-53"/>
      </defs>
      <g transform="translate(557.130142 329.598437)scale(0.1 -0.1)">
       <use xlink:href="#DejaVuSans-53"/>
       <use x="63.623047" xlink:href="#DejaVuSans-48"/>
       <use x="127.246094" xlink:href="#DejaVuSans-48"/>
      </g>
     </g>
    </g>
    <g id="text_7">
     <!-- epoch -->
     <defs>
      <path d="M 56.203125 29.59375 
L 56.203125 25.203125 
L 14.890625 25.203125 
Q 15.484375 15.921875 20.484375 11.0625 
Q 25.484375 6.203125 34.421875 6.203125 
Q 39.59375 6.203125 44.453125 7.46875 
Q 49.3125 8.734375 54.109375 11.28125 
L 54.109375 2.78125 
Q 49.265625 0.734375 44.1875 -0.34375 
Q 39.109375 -1.421875 33.890625 -1.421875 
Q 20.796875 -1.421875 13.15625 6.1875 
Q 5.515625 13.8125 5.515625 26.8125 
Q 5.515625 40.234375 12.765625 48.109375 
Q 20.015625 56 32.328125 56 
Q 43.359375 56 49.78125 48.890625 
Q 56.203125 41.796875 56.203125 29.59375 
z
M 47.21875 32.234375 
Q 47.125 39.59375 43.09375 43.984375 
Q 39.0625 48.390625 32.421875 48.390625 
Q 24.90625 48.390625 20.390625 44.140625 
Q 15.875 39.890625 15.1875 32.171875 
z
" id="DejaVuSans-101"/>
      <path d="M 18.109375 8.203125 
L 18.109375 -20.796875 
L 9.078125 -20.796875 
L 9.078125 54.6875 
L 18.109375 54.6875 
L 18.109375 46.390625 
Q 20.953125 51.265625 25.265625 53.625 
Q 29.59375 56 35.59375 56 
Q 45.5625 56 51.78125 48.09375 
Q 58.015625 40.1875 58.015625 27.296875 
Q 58.015625 14.40625 51.78125 6.484375 
Q 45.5625 -1.421875 35.59375 -1.421875 
Q 29.59375 -1.421875 25.265625 0.953125 
Q 20.953125 3.328125 18.109375 8.203125 
z
M 48.6875 27.296875 
Q 48.6875 37.203125 44.609375 42.84375 
Q 40.53125 48.484375 33.40625 48.484375 
Q 26.265625 48.484375 22.1875 42.84375 
Q 18.109375 37.203125 18.109375 27.296875 
Q 18.109375 17.390625 22.1875 11.75 
Q 26.265625 6.109375 33.40625 6.109375 
Q 40.53125 6.109375 44.609375 11.75 
Q 48.6875 17.390625 48.6875 27.296875 
z
" id="DejaVuSans-112"/>
      <path d="M 30.609375 48.390625 
Q 23.390625 48.390625 19.1875 42.75 
Q 14.984375 37.109375 14.984375 27.296875 
Q 14.984375 17.484375 19.15625 11.84375 
Q 23.34375 6.203125 30.609375 6.203125 
Q 37.796875 6.203125 41.984375 11.859375 
Q 46.1875 17.53125 46.1875 27.296875 
Q 46.1875 37.015625 41.984375 42.703125 
Q 37.796875 48.390625 30.609375 48.390625 
z
M 30.609375 56 
Q 42.328125 56 49.015625 48.375 
Q 55.71875 40.765625 55.71875 27.296875 
Q 55.71875 13.875 49.015625 6.21875 
Q 42.328125 -1.421875 30.609375 -1.421875 
Q 18.84375 -1.421875 12.171875 6.21875 
Q 5.515625 13.875 5.515625 27.296875 
Q 5.515625 40.765625 12.171875 48.375 
Q 18.84375 56 30.609375 56 
z
" id="DejaVuSans-111"/>
      <path d="M 48.78125 52.59375 
L 48.78125 44.1875 
Q 44.96875 46.296875 41.140625 47.34375 
Q 37.3125 48.390625 33.40625 48.390625 
Q 24.65625 48.390625 19.8125 42.84375 
Q 14.984375 37.3125 14.984375 27.296875 
Q 14.984375 17.28125 19.8125 11.734375 
Q 24.65625 6.203125 33.40625 6.203125 
Q 37.3125 6.203125 41.140625 7.25 
Q 44.96875 8.296875 48.78125 10.40625 
L 48.78125 2.09375 
Q 45.015625 0.34375 40.984375 -0.53125 
Q 36.96875 -1.421875 32.421875 -1.421875 
Q 20.0625 -1.421875 12.78125 6.34375 
Q 5.515625 14.109375 5.515625 27.296875 
Q 5.515625 40.671875 12.859375 48.328125 
Q 20.21875 56 33.015625 56 
Q 37.15625 56 41.109375 55.140625 
Q 45.0625 54.296875 48.78125 52.59375 
z
" id="DejaVuSans-99"/>
      <path d="M 54.890625 33.015625 
L 54.890625 0 
L 45.90625 0 
L 45.90625 32.71875 
Q 45.90625 40.484375 42.875 44.328125 
Q 39.84375 48.1875 33.796875 48.1875 
Q 26.515625 48.1875 22.3125 43.546875 
Q 18.109375 38.921875 18.109375 30.90625 
L 18.109375 0 
L 9.078125 0 
L 9.078125 75.984375 
L 18.109375 75.984375 
L 18.109375 46.1875 
Q 21.34375 51.125 25.703125 53.5625 
Q 30.078125 56 35.796875 56 
Q 45.21875 56 50.046875 50.171875 
Q 54.890625 44.34375 54.890625 33.015625 
z
" id="DejaVuSans-104"/>
     </defs>
     <g transform="translate(353.771875 343.276563)scale(0.1 -0.1)">
      <use xlink:href="#DejaVuSans-101"/>
      <use x="61.523438" xlink:href="#DejaVuSans-112"/>
      <use x="125" xlink:href="#DejaVuSans-111"/>
      <use x="186.181641" xlink:href="#DejaVuSans-99"/>
      <use x="241.162109" xlink:href="#DejaVuSans-104"/>
     </g>
    </g>
   </g>
   <g id="matplotlib.axis_2">
    <g id="ytick_1">
     <g id="line2d_13">
      <path clip-path="url(#p74f15c1cd3)" d="M 90 279.051254 
L 648 279.051254 
" style="fill:none;stroke:#b0b0b0;stroke-linecap:square;stroke-width:0.8;"/>
     </g>
     <g id="line2d_14">
      <defs>
       <path d="M 0 0 
L -3.5 0 
" id="m3829a57db2" style="stroke:#000000;stroke-width:0.8;"/>
      </defs>
      <g>
       <use style="stroke:#000000;stroke-width:0.8;" x="90" xlink:href="#m3829a57db2" y="279.051254"/>
      </g>
     </g>
     <g id="text_8">
      <!-- 0.4 -->
      <defs>
       <path d="M 10.6875 12.40625 
L 21 12.40625 
L 21 0 
L 10.6875 0 
z
" id="DejaVuSans-46"/>
      </defs>
      <g transform="translate(67.096875 282.850473)scale(0.1 -0.1)">
       <use xlink:href="#DejaVuSans-48"/>
       <use x="63.623047" xlink:href="#DejaVuSans-46"/>
       <use x="95.410156" xlink:href="#DejaVuSans-52"/>
      </g>
     </g>
    </g>
    <g id="ytick_2">
     <g id="line2d_15">
      <path clip-path="url(#p74f15c1cd3)" d="M 90 240.159716 
L 648 240.159716 
" style="fill:none;stroke:#b0b0b0;stroke-linecap:square;stroke-width:0.8;"/>
     </g>
     <g id="line2d_16">
      <g>
       <use style="stroke:#000000;stroke-width:0.8;" x="90" xlink:href="#m3829a57db2" y="240.159716"/>
      </g>
     </g>
     <g id="text_9">
      <!-- 0.5 -->
      <g transform="translate(67.096875 243.958934)scale(0.1 -0.1)">
       <use xlink:href="#DejaVuSans-48"/>
       <use x="63.623047" xlink:href="#DejaVuSans-46"/>
       <use x="95.410156" xlink:href="#DejaVuSans-53"/>
      </g>
     </g>
    </g>
    <g id="ytick_3">
     <g id="line2d_17">
      <path clip-path="url(#p74f15c1cd3)" d="M 90 201.268177 
L 648 201.268177 
" style="fill:none;stroke:#b0b0b0;stroke-linecap:square;stroke-width:0.8;"/>
     </g>
     <g id="line2d_18">
      <g>
       <use style="stroke:#000000;stroke-width:0.8;" x="90" xlink:href="#m3829a57db2" y="201.268177"/>
      </g>
     </g>
     <g id="text_10">
      <!-- 0.6 -->
      <defs>
       <path d="M 33.015625 40.375 
Q 26.375 40.375 22.484375 35.828125 
Q 18.609375 31.296875 18.609375 23.390625 
Q 18.609375 15.53125 22.484375 10.953125 
Q 26.375 6.390625 33.015625 6.390625 
Q 39.65625 6.390625 43.53125 10.953125 
Q 47.40625 15.53125 47.40625 23.390625 
Q 47.40625 31.296875 43.53125 35.828125 
Q 39.65625 40.375 33.015625 40.375 
z
M 52.59375 71.296875 
L 52.59375 62.3125 
Q 48.875 64.0625 45.09375 64.984375 
Q 41.3125 65.921875 37.59375 65.921875 
Q 27.828125 65.921875 22.671875 59.328125 
Q 17.53125 52.734375 16.796875 39.40625 
Q 19.671875 43.65625 24.015625 45.921875 
Q 28.375 48.1875 33.59375 48.1875 
Q 44.578125 48.1875 50.953125 41.515625 
Q 57.328125 34.859375 57.328125 23.390625 
Q 57.328125 12.15625 50.6875 5.359375 
Q 44.046875 -1.421875 33.015625 -1.421875 
Q 20.359375 -1.421875 13.671875 8.265625 
Q 6.984375 17.96875 6.984375 36.375 
Q 6.984375 53.65625 15.1875 63.9375 
Q 23.390625 74.21875 37.203125 74.21875 
Q 40.921875 74.21875 44.703125 73.484375 
Q 48.484375 72.75 52.59375 71.296875 
z
" id="DejaVuSans-54"/>
      </defs>
      <g transform="translate(67.096875 205.067396)scale(0.1 -0.1)">
       <use xlink:href="#DejaVuSans-48"/>
       <use x="63.623047" xlink:href="#DejaVuSans-46"/>
       <use x="95.410156" xlink:href="#DejaVuSans-54"/>
      </g>
     </g>
    </g>
    <g id="ytick_4">
     <g id="line2d_19">
      <path clip-path="url(#p74f15c1cd3)" d="M 90 162.376638 
L 648 162.376638 
" style="fill:none;stroke:#b0b0b0;stroke-linecap:square;stroke-width:0.8;"/>
     </g>
     <g id="line2d_20">
      <g>
       <use style="stroke:#000000;stroke-width:0.8;" x="90" xlink:href="#m3829a57db2" y="162.376638"/>
      </g>
     </g>
     <g id="text_11">
      <!-- 0.7 -->
      <defs>
       <path d="M 8.203125 72.90625 
L 55.078125 72.90625 
L 55.078125 68.703125 
L 28.609375 0 
L 18.3125 0 
L 43.21875 64.59375 
L 8.203125 64.59375 
z
" id="DejaVuSans-55"/>
      </defs>
      <g transform="translate(67.096875 166.175857)scale(0.1 -0.1)">
       <use xlink:href="#DejaVuSans-48"/>
       <use x="63.623047" xlink:href="#DejaVuSans-46"/>
       <use x="95.410156" xlink:href="#DejaVuSans-55"/>
      </g>
     </g>
    </g>
    <g id="ytick_5">
     <g id="line2d_21">
      <path clip-path="url(#p74f15c1cd3)" d="M 90 123.4851 
L 648 123.4851 
" style="fill:none;stroke:#b0b0b0;stroke-linecap:square;stroke-width:0.8;"/>
     </g>
     <g id="line2d_22">
      <g>
       <use style="stroke:#000000;stroke-width:0.8;" x="90" xlink:href="#m3829a57db2" y="123.4851"/>
      </g>
     </g>
     <g id="text_12">
      <!-- 0.8 -->
      <defs>
       <path d="M 31.78125 34.625 
Q 24.75 34.625 20.71875 30.859375 
Q 16.703125 27.09375 16.703125 20.515625 
Q 16.703125 13.921875 20.71875 10.15625 
Q 24.75 6.390625 31.78125 6.390625 
Q 38.8125 6.390625 42.859375 10.171875 
Q 46.921875 13.96875 46.921875 20.515625 
Q 46.921875 27.09375 42.890625 30.859375 
Q 38.875 34.625 31.78125 34.625 
z
M 21.921875 38.8125 
Q 15.578125 40.375 12.03125 44.71875 
Q 8.5 49.078125 8.5 55.328125 
Q 8.5 64.0625 14.71875 69.140625 
Q 20.953125 74.21875 31.78125 74.21875 
Q 42.671875 74.21875 48.875 69.140625 
Q 55.078125 64.0625 55.078125 55.328125 
Q 55.078125 49.078125 51.53125 44.71875 
Q 48 40.375 41.703125 38.8125 
Q 48.828125 37.15625 52.796875 32.3125 
Q 56.78125 27.484375 56.78125 20.515625 
Q 56.78125 9.90625 50.3125 4.234375 
Q 43.84375 -1.421875 31.78125 -1.421875 
Q 19.734375 -1.421875 13.25 4.234375 
Q 6.78125 9.90625 6.78125 20.515625 
Q 6.78125 27.484375 10.78125 32.3125 
Q 14.796875 37.15625 21.921875 38.8125 
z
M 18.3125 54.390625 
Q 18.3125 48.734375 21.84375 45.5625 
Q 25.390625 42.390625 31.78125 42.390625 
Q 38.140625 42.390625 41.71875 45.5625 
Q 45.3125 48.734375 45.3125 54.390625 
Q 45.3125 60.0625 41.71875 63.234375 
Q 38.140625 66.40625 31.78125 66.40625 
Q 25.390625 66.40625 21.84375 63.234375 
Q 18.3125 60.0625 18.3125 54.390625 
z
" id="DejaVuSans-56"/>
      </defs>
      <g transform="translate(67.096875 127.284318)scale(0.1 -0.1)">
       <use xlink:href="#DejaVuSans-48"/>
       <use x="63.623047" xlink:href="#DejaVuSans-46"/>
       <use x="95.410156" xlink:href="#DejaVuSans-56"/>
      </g>
     </g>
    </g>
    <g id="ytick_6">
     <g id="line2d_23">
      <path clip-path="url(#p74f15c1cd3)" d="M 90 84.593561 
L 648 84.593561 
" style="fill:none;stroke:#b0b0b0;stroke-linecap:square;stroke-width:0.8;"/>
     </g>
     <g id="line2d_24">
      <g>
       <use style="stroke:#000000;stroke-width:0.8;" x="90" xlink:href="#m3829a57db2" y="84.593561"/>
      </g>
     </g>
     <g id="text_13">
      <!-- 0.9 -->
      <defs>
       <path d="M 10.984375 1.515625 
L 10.984375 10.5 
Q 14.703125 8.734375 18.5 7.8125 
Q 22.3125 6.890625 25.984375 6.890625 
Q 35.75 6.890625 40.890625 13.453125 
Q 46.046875 20.015625 46.78125 33.40625 
Q 43.953125 29.203125 39.59375 26.953125 
Q 35.25 24.703125 29.984375 24.703125 
Q 19.046875 24.703125 12.671875 31.3125 
Q 6.296875 37.9375 6.296875 49.421875 
Q 6.296875 60.640625 12.9375 67.421875 
Q 19.578125 74.21875 30.609375 74.21875 
Q 43.265625 74.21875 49.921875 64.515625 
Q 56.59375 54.828125 56.59375 36.375 
Q 56.59375 19.140625 48.40625 8.859375 
Q 40.234375 -1.421875 26.421875 -1.421875 
Q 22.703125 -1.421875 18.890625 -0.6875 
Q 15.09375 0.046875 10.984375 1.515625 
z
M 30.609375 32.421875 
Q 37.25 32.421875 41.125 36.953125 
Q 45.015625 41.5 45.015625 49.421875 
Q 45.015625 57.28125 41.125 61.84375 
Q 37.25 66.40625 30.609375 66.40625 
Q 23.96875 66.40625 20.09375 61.84375 
Q 16.21875 57.28125 16.21875 49.421875 
Q 16.21875 41.5 20.09375 36.953125 
Q 23.96875 32.421875 30.609375 32.421875 
z
" id="DejaVuSans-57"/>
      </defs>
      <g transform="translate(67.096875 88.39278)scale(0.1 -0.1)">
       <use xlink:href="#DejaVuSans-48"/>
       <use x="63.623047" xlink:href="#DejaVuSans-46"/>
       <use x="95.410156" xlink:href="#DejaVuSans-57"/>
      </g>
     </g>
    </g>
    <g id="ytick_7">
     <g id="line2d_25">
      <path clip-path="url(#p74f15c1cd3)" d="M 90 45.702022 
L 648 45.702022 
" style="fill:none;stroke:#b0b0b0;stroke-linecap:square;stroke-width:0.8;"/>
     </g>
     <g id="line2d_26">
      <g>
       <use style="stroke:#000000;stroke-width:0.8;" x="90" xlink:href="#m3829a57db2" y="45.702022"/>
      </g>
     </g>
     <g id="text_14">
      <!-- 1.0 -->
      <g transform="translate(67.096875 49.501241)scale(0.1 -0.1)">
       <use xlink:href="#DejaVuSans-49"/>
       <use x="63.623047" xlink:href="#DejaVuSans-46"/>
       <use x="95.410156" xlink:href="#DejaVuSans-48"/>
      </g>
     </g>
    </g>
    <g id="text_15">
     <!-- accuracy -->
     <defs>
      <path d="M 34.28125 27.484375 
Q 23.390625 27.484375 19.1875 25 
Q 14.984375 22.515625 14.984375 16.5 
Q 14.984375 11.71875 18.140625 8.90625 
Q 21.296875 6.109375 26.703125 6.109375 
Q 34.1875 6.109375 38.703125 11.40625 
Q 43.21875 16.703125 43.21875 25.484375 
L 43.21875 27.484375 
z
M 52.203125 31.203125 
L 52.203125 0 
L 43.21875 0 
L 43.21875 8.296875 
Q 40.140625 3.328125 35.546875 0.953125 
Q 30.953125 -1.421875 24.3125 -1.421875 
Q 15.921875 -1.421875 10.953125 3.296875 
Q 6 8.015625 6 15.921875 
Q 6 25.140625 12.171875 29.828125 
Q 18.359375 34.515625 30.609375 34.515625 
L 43.21875 34.515625 
L 43.21875 35.40625 
Q 43.21875 41.609375 39.140625 45 
Q 35.0625 48.390625 27.6875 48.390625 
Q 23 48.390625 18.546875 47.265625 
Q 14.109375 46.140625 10.015625 43.890625 
L 10.015625 52.203125 
Q 14.9375 54.109375 19.578125 55.046875 
Q 24.21875 56 28.609375 56 
Q 40.484375 56 46.34375 49.84375 
Q 52.203125 43.703125 52.203125 31.203125 
z
" id="DejaVuSans-97"/>
      <path d="M 8.5 21.578125 
L 8.5 54.6875 
L 17.484375 54.6875 
L 17.484375 21.921875 
Q 17.484375 14.15625 20.5 10.265625 
Q 23.53125 6.390625 29.59375 6.390625 
Q 36.859375 6.390625 41.078125 11.03125 
Q 45.3125 15.671875 45.3125 23.6875 
L 45.3125 54.6875 
L 54.296875 54.6875 
L 54.296875 0 
L 45.3125 0 
L 45.3125 8.40625 
Q 42.046875 3.421875 37.71875 1 
Q 33.40625 -1.421875 27.6875 -1.421875 
Q 18.265625 -1.421875 13.375 4.4375 
Q 8.5 10.296875 8.5 21.578125 
z
M 31.109375 56 
z
" id="DejaVuSans-117"/>
      <path d="M 41.109375 46.296875 
Q 39.59375 47.171875 37.8125 47.578125 
Q 36.03125 48 33.890625 48 
Q 26.265625 48 22.1875 43.046875 
Q 18.109375 38.09375 18.109375 28.8125 
L 18.109375 0 
L 9.078125 0 
L 9.078125 54.6875 
L 18.109375 54.6875 
L 18.109375 46.1875 
Q 20.953125 51.171875 25.484375 53.578125 
Q 30.03125 56 36.53125 56 
Q 37.453125 56 38.578125 55.875 
Q 39.703125 55.765625 41.0625 55.515625 
z
" id="DejaVuSans-114"/>
      <path d="M 32.171875 -5.078125 
Q 28.375 -14.84375 24.75 -17.8125 
Q 21.140625 -20.796875 15.09375 -20.796875 
L 7.90625 -20.796875 
L 7.90625 -13.28125 
L 13.1875 -13.28125 
Q 16.890625 -13.28125 18.9375 -11.515625 
Q 21 -9.765625 23.484375 -3.21875 
L 25.09375 0.875 
L 2.984375 54.6875 
L 12.5 54.6875 
L 29.59375 11.921875 
L 46.6875 54.6875 
L 56.203125 54.6875 
z
" id="DejaVuSans-121"/>
     </defs>
     <g transform="translate(61.017187 201.659375)rotate(-90)scale(0.1 -0.1)">
      <use xlink:href="#DejaVuSans-97"/>
      <use x="61.279297" xlink:href="#DejaVuSans-99"/>
      <use x="116.259766" xlink:href="#DejaVuSans-99"/>
      <use x="171.240234" xlink:href="#DejaVuSans-117"/>
      <use x="234.619141" xlink:href="#DejaVuSans-114"/>
      <use x="275.732422" xlink:href="#DejaVuSans-97"/>
      <use x="337.011719" xlink:href="#DejaVuSans-99"/>
      <use x="391.992188" xlink:href="#DejaVuSans-121"/>
     </g>
    </g>
   </g>
   <g id="line2d_27">
    <path clip-path="url(#p74f15c1cd3)" d="M 115.363636 299.274855 
L 116.266257 293.181847 
L 117.168877 290.718716 
L 118.071498 289.811247 
L 118.974118 286.440647 
L 120.779359 283.588601 
L 121.68198 286.051731 
L 122.5846 281.12547 
L 123.487221 281.255108 
L 124.389841 272.439693 
L 125.292462 268.550539 
L 126.195082 275.032462 
L 127.097703 268.939454 
L 128.000324 268.291262 
L 128.902944 269.32837 
L 129.805565 262.58717 
L 130.708185 265.568854 
L 131.610806 266.217047 
L 132.513426 257.271993 
L 134.318667 248.715854 
L 135.221288 248.845493 
L 136.123908 247.938023 
L 137.026529 243.530316 
L 137.929149 241.845016 
L 138.83177 240.418993 
L 139.73439 236.789116 
L 140.637011 231.992493 
L 141.539631 233.418516 
L 142.442252 227.714423 
L 143.344872 226.806954 
L 144.247493 225.640208 
L 145.150113 216.565516 
L 146.052734 209.694677 
L 146.955354 206.842631 
L 147.857975 208.787208 
L 148.760595 199.064323 
L 149.663216 198.286492 
L 150.565836 192.971315 
L 151.468457 192.712039 
L 152.371077 187.656139 
L 153.273698 187.915415 
L 154.176318 185.322646 
L 155.078939 180.396385 
L 155.981559 178.192531 
L 156.88418 168.080731 
L 157.7868 169.117838 
L 158.689421 160.172785 
L 159.592041 159.135677 
L 160.494662 154.857608 
L 161.397282 153.950138 
L 162.299903 152.005561 
L 163.202523 146.820023 
L 164.105144 149.931346 
L 165.007764 145.005084 
L 165.910385 145.264361 
L 166.813005 138.6528 
L 167.715626 133.207984 
L 169.520867 128.800277 
L 170.423488 129.578107 
L 172.228729 122.447992 
L 173.131349 121.281246 
L 174.03397 122.836907 
L 174.93659 122.059077 
L 175.839211 122.447992 
L 176.741831 118.818115 
L 178.547072 120.503415 
L 179.449693 117.392092 
L 180.352313 112.725107 
L 181.254934 112.984384 
L 182.157554 115.188238 
L 183.060175 110.0027 
L 183.962795 109.613784 
L 184.865416 111.688 
L 185.768036 107.021015 
L 186.670657 105.465353 
L 187.573277 105.594992 
L 188.475898 109.09523 
L 189.378518 105.465353 
L 190.281139 103.002223 
L 191.183759 104.168969 
L 192.08638 101.705838 
L 192.989 103.650415 
L 193.891621 102.483669 
L 194.794241 102.35403 
L 195.696862 101.316923 
L 196.599482 100.66873 
L 197.502103 103.520776 
L 198.404723 101.965115 
L 199.307344 102.872584 
L 200.209964 100.798369 
L 201.112585 103.780053 
L 202.015205 100.150176 
L 202.917826 99.501984 
L 203.820446 97.557407 
L 205.625687 99.631623 
L 206.528308 101.187284 
L 207.430929 95.61283 
L 208.333549 92.760784 
L 209.23617 100.409453 
L 210.13879 97.427769 
L 211.041411 95.483192 
L 211.944031 91.982953 
L 212.846652 96.390661 
L 213.749272 92.631146 
L 214.651893 95.742469 
L 215.554513 90.945846 
L 216.457134 94.316446 
L 217.359754 91.594038 
L 218.262375 92.112592 
L 219.164995 94.186807 
L 220.067616 87.315969 
L 220.970236 92.760784 
L 221.872857 92.112592 
L 222.775477 88.741992 
L 223.678098 90.168015 
L 225.483339 92.631146 
L 226.385959 88.612353 
L 227.28858 91.594038 
L 228.1912 89.779099 
L 229.093821 90.427292 
L 229.996441 88.093799 
L 230.899062 87.445607 
L 231.801682 88.093799 
L 232.704303 91.853315 
L 233.606923 87.964161 
L 234.509544 88.612353 
L 235.412164 87.056692 
L 236.314785 85.889946 
L 237.217405 84.982476 
L 238.120026 86.149223 
L 239.022646 86.019584 
L 239.925267 87.445607 
L 240.827887 84.075007 
L 241.730508 83.945369 
L 242.633128 86.278861 
L 243.535749 83.167538 
L 244.438369 84.334284 
L 245.34099 84.593561 
L 246.24361 82.778623 
L 247.146231 83.556453 
L 248.048852 87.056692 
L 248.951472 83.167538 
L 249.854093 84.075007 
L 250.756713 83.686092 
L 251.659334 83.037899 
L 252.561954 80.185853 
L 253.464575 84.852838 
L 254.367195 83.556453 
L 255.269816 80.44513 
L 256.172436 82.778623 
L 257.075057 82.648984 
L 257.977677 82.908261 
L 258.880298 83.556453 
L 259.782918 80.574769 
L 260.685539 82.648984 
L 261.588159 80.834046 
L 262.49078 80.574769 
L 263.3934 80.056215 
L 264.296021 80.574769 
L 265.198641 80.315492 
L 266.101262 80.315492 
L 267.003882 83.167538 
L 267.906503 80.704407 
L 268.809123 80.574769 
L 269.711744 81.871153 
L 270.614364 80.315492 
L 271.516985 81.352599 
L 272.419605 78.111638 
L 273.322226 78.889469 
L 274.224846 79.019107 
L 276.030087 77.07453 
L 276.932708 80.834046 
L 277.835328 77.204169 
L 278.737949 76.037422 
L 279.640569 78.370915 
L 280.54319 78.630192 
L 281.44581 79.796938 
L 282.348431 81.222961 
L 283.251051 79.148746 
L 284.153672 79.019107 
L 285.056292 78.241276 
L 285.958913 83.037899 
L 286.861533 79.278384 
L 287.764154 79.537661 
L 288.666775 79.019107 
L 289.569395 77.333807 
L 291.374636 75.259592 
L 292.277257 74.611399 
L 293.179877 77.07453 
L 294.082498 76.037422 
L 294.985118 76.944892 
L 295.887739 80.44513 
L 296.790359 78.241276 
L 297.69298 73.833569 
L 298.5956 75.000315 
L 299.498221 76.555976 
L 300.400841 75.259592 
L 301.303462 74.870676 
L 302.206082 73.444653 
L 303.108703 76.685615 
L 304.011323 73.833569 
L 304.913944 77.981999 
L 305.816564 74.741038 
L 306.719185 75.38923 
L 307.621805 73.833569 
L 308.524426 76.815253 
L 309.427046 75.648507 
L 310.329667 75.000315 
L 311.232287 77.981999 
L 312.134908 74.741038 
L 313.037528 72.926099 
L 313.940149 73.574292 
L 314.842769 73.70393 
L 315.74539 73.055738 
L 316.64801 75.648507 
L 317.550631 74.611399 
L 318.453251 75.000315 
L 319.355872 73.833569 
L 320.258492 73.444653 
L 321.161113 72.407546 
L 322.063733 74.741038 
L 322.966354 72.926099 
L 323.868974 72.407546 
L 324.771595 72.277907 
L 325.674215 73.315015 
L 326.576836 72.277907 
L 327.479456 73.444653 
L 328.382077 71.500076 
L 329.284698 71.629715 
L 330.187318 74.092846 
L 331.089939 73.055738 
L 331.992559 71.759353 
L 332.89518 70.074053 
L 333.7978 73.963207 
L 334.700421 70.592607 
L 335.603041 75.518869 
L 336.505662 71.888992 
L 337.408282 70.33333 
L 338.310903 70.592607 
L 339.213523 70.592607 
L 340.116144 71.888992 
L 341.018764 71.370438 
L 341.921385 71.759353 
L 342.824005 73.315015 
L 343.726626 73.185376 
L 345.531867 70.981522 
L 346.434487 72.666822 
L 348.239728 68.777669 
L 349.142349 71.888992 
L 350.044969 72.148269 
L 350.94759 72.01863 
L 351.85021 72.01863 
L 352.752831 73.055738 
L 353.655451 68.129476 
L 354.558072 68.777669 
L 355.460692 68.129476 
L 356.363313 70.851884 
L 357.265933 71.370438 
L 358.168554 69.296222 
L 359.071174 69.166584 
L 359.973795 70.462969 
L 360.876415 70.722246 
L 361.779036 69.166584 
L 362.681656 69.944415 
L 363.584277 70.074053 
L 364.486897 69.944415 
L 365.389518 70.203692 
L 367.194759 68.777669 
L 368.097379 71.370438 
L 369 68.259115 
L 369.902621 67.870199 
L 370.805241 68.777669 
L 371.707862 67.870199 
L 372.610482 69.036946 
L 373.513103 67.481284 
L 374.415723 70.722246 
L 375.318344 67.740561 
L 376.220964 66.444176 
L 377.123585 68.518392 
L 378.026205 70.203692 
L 378.928826 67.870199 
L 379.831446 67.481284 
L 380.734067 66.184899 
L 381.636687 66.573815 
L 382.539308 68.388753 
L 383.441928 69.555499 
L 384.344549 67.351646 
L 385.247169 68.129476 
L 386.14979 64.369961 
L 387.05241 68.259115 
L 387.955031 68.259115 
L 388.857651 64.758876 
L 389.760272 67.481284 
L 390.662892 66.184899 
L 391.565513 67.481284 
L 392.468133 68.518392 
L 393.370754 67.999838 
L 394.273374 66.314538 
L 395.175995 67.092369 
L 396.078615 69.425861 
L 396.981236 67.870199 
L 397.883856 64.758876 
L 398.786477 66.833092 
L 399.689097 65.795984 
L 400.591718 66.184899 
L 401.494338 69.036946 
L 402.396959 63.332853 
L 403.299579 66.96273 
L 404.2022 66.573815 
L 405.10482 67.999838 
L 406.007441 67.870199 
L 406.910061 67.351646 
L 407.812682 66.444176 
L 408.715302 64.110684 
L 409.617923 68.907307 
L 410.520544 67.481284 
L 411.423164 67.740561 
L 412.325785 67.610922 
L 413.228405 64.888515 
L 414.131026 67.222007 
L 415.033646 65.27743 
L 415.936267 64.888515 
L 416.838887 64.629238 
L 417.741508 67.610922 
L 419.546749 64.110684 
L 420.449369 66.184899 
L 421.35199 65.925622 
L 422.25461 65.925622 
L 423.157231 63.851407 
L 424.059851 65.27743 
L 424.962472 64.888515 
L 425.865092 67.092369 
L 426.767713 65.536707 
L 427.670333 65.925622 
L 428.572954 65.27743 
L 429.475574 67.610922 
L 430.378195 67.092369 
L 431.280815 65.147792 
L 432.183436 67.999838 
L 433.086056 65.795984 
L 433.988677 64.888515 
L 434.891297 65.925622 
L 435.793918 66.055261 
L 436.696538 65.536707 
L 437.599159 66.444176 
L 438.501779 66.96273 
L 439.4044 64.888515 
L 440.30702 65.147792 
L 441.209641 66.444176 
L 442.112261 65.018153 
L 443.014882 64.758876 
L 443.917502 63.59213 
L 444.820123 65.925622 
L 445.722743 64.240322 
L 446.625364 64.499599 
L 447.527984 62.684661 
L 448.430605 66.703453 
L 449.333225 65.407069 
L 450.235846 67.481284 
L 451.138467 64.499599 
L 452.041087 65.407069 
L 452.943708 65.536707 
L 453.846328 63.59213 
L 454.748949 63.59213 
L 455.651569 62.166107 
L 456.55419 64.110684 
L 457.45681 63.59213 
L 458.359431 66.703453 
L 459.262051 64.110684 
L 460.164672 64.888515 
L 461.067292 63.721769 
L 461.969913 64.240322 
L 462.872533 63.462492 
L 463.775154 62.036469 
L 464.677774 64.110684 
L 465.580395 64.758876 
L 466.483015 63.462492 
L 467.385636 64.629238 
L 468.288256 63.073576 
L 469.190877 65.27743 
L 470.093497 63.462492 
L 470.996118 62.943938 
L 471.898738 64.758876 
L 472.801359 63.59213 
L 473.703979 63.073576 
L 474.6066 66.055261 
L 475.50922 63.332853 
L 476.411841 62.425384 
L 477.314461 62.555022 
L 479.119702 63.851407 
L 480.022323 65.018153 
L 480.924943 63.721769 
L 481.827564 63.203215 
L 483.632805 65.147792 
L 484.535425 63.203215 
L 485.438046 62.814299 
L 486.340666 61.90683 
L 487.243287 65.018153 
L 488.145907 62.943938 
L 489.048528 63.851407 
L 489.951148 63.59213 
L 490.853769 63.462492 
L 491.75639 62.814299 
L 492.65901 63.462492 
L 493.561631 62.943938 
L 494.464251 63.721769 
L 495.366872 63.203215 
L 496.269492 60.610445 
L 497.172113 62.943938 
L 498.074733 64.499599 
L 498.977354 60.22153 
L 499.879974 62.943938 
L 500.782595 62.943938 
L 501.685215 63.462492 
L 502.587836 62.425384 
L 503.490456 64.758876 
L 504.393077 61.647553 
L 505.295697 63.851407 
L 506.198318 62.943938 
L 507.100938 60.091892 
L 508.003559 61.777192 
L 508.906179 61.128999 
L 509.8088 63.462492 
L 510.71142 64.240322 
L 511.614041 61.777192 
L 512.516661 61.388276 
L 513.419282 61.90683 
L 514.321902 60.869722 
L 515.224523 59.573338 
L 516.127143 61.128999 
L 517.029764 62.425384 
L 517.932384 60.610445 
L 518.835005 60.869722 
L 519.737625 62.166107 
L 520.640246 60.610445 
L 521.542866 60.740084 
L 522.445487 62.036469 
L 523.348107 59.573338 
L 524.250728 62.425384 
L 525.153348 61.777192 
L 526.055969 60.480807 
L 526.958589 61.647553 
L 527.86121 60.999361 
L 528.76383 61.517915 
L 529.666451 62.166107 
L 530.569071 61.647553 
L 531.471692 61.90683 
L 532.374313 62.295745 
L 534.179554 60.22153 
L 535.984795 62.166107 
L 536.887415 59.184422 
L 537.790036 60.480807 
L 538.692656 60.740084 
L 539.595277 60.22153 
L 540.497897 60.740084 
L 541.400518 61.647553 
L 542.303138 60.740084 
L 543.205759 57.888038 
L 544.108379 61.258638 
L 545.011 61.517915 
L 545.91362 58.276953 
L 547.718861 59.573338 
L 548.621482 59.573338 
L 549.524102 61.388276 
L 550.426723 59.962253 
L 551.329343 61.517915 
L 552.231964 62.036469 
L 553.134584 60.480807 
L 554.037205 60.22153 
L 554.939825 60.869722 
L 555.842446 60.480807 
L 556.745066 61.128999 
L 557.647687 60.740084 
L 558.550307 59.702976 
L 559.452928 59.832615 
L 560.355548 58.665869 
L 561.258169 59.573338 
L 562.160789 60.091892 
L 563.06341 60.351169 
L 563.96603 59.443699 
L 564.868651 59.832615 
L 565.771271 61.777192 
L 566.673892 58.925145 
L 567.576512 60.610445 
L 568.479133 60.351169 
L 569.381753 62.036469 
L 570.284374 58.147315 
L 572.089615 62.166107 
L 572.992236 60.351169 
L 573.894856 60.480807 
L 574.797477 60.480807 
L 575.700097 62.425384 
L 576.602718 59.573338 
L 577.505338 57.369484 
L 578.407959 59.573338 
L 579.310579 60.610445 
L 580.2132 58.795507 
L 581.11582 59.962253 
L 582.018441 60.351169 
L 582.921061 56.980569 
L 583.823682 59.702976 
L 585.628923 55.554545 
L 586.531543 59.832615 
L 587.434164 60.610445 
L 588.336784 58.53623 
L 589.239405 60.22153 
L 590.142025 60.22153 
L 591.044646 58.147315 
L 591.947266 57.888038 
L 592.849887 59.962253 
L 593.752507 59.184422 
L 594.655128 59.832615 
L 595.557748 56.462015 
L 596.460369 60.740084 
L 597.362989 58.406592 
L 598.26561 58.795507 
L 599.16823 58.925145 
L 600.070851 59.832615 
L 600.973471 60.480807 
L 601.876092 58.276953 
L 602.778712 60.740084 
L 603.681333 60.22153 
L 604.583953 56.591653 
L 605.486574 60.22153 
L 606.389194 57.110207 
L 607.291815 57.499122 
L 608.194435 59.054784 
L 609.097056 57.239845 
L 609.999676 59.184422 
L 610.902297 59.054784 
L 611.804918 59.054784 
L 612.707538 62.036469 
L 613.610159 57.110207 
L 614.512779 59.573338 
L 615.4154 56.980569 
L 616.31802 58.665869 
L 618.123261 60.351169 
L 619.025882 58.925145 
L 619.928502 59.443699 
L 620.831123 61.777192 
L 621.733743 58.276953 
L 622.636364 60.091892 
L 622.636364 60.091892 
" style="fill:none;stroke:#1f77b4;stroke-linecap:square;stroke-width:0.5;"/>
   </g>
   <g id="line2d_28">
    <path clip-path="url(#p74f15c1cd3)" d="M 115.363636 297.97847 
L 116.266257 302.645455 
L 117.168877 296.811724 
L 118.071498 295.904255 
L 118.974118 289.811247 
L 119.876739 290.589078 
L 120.779359 290.589078 
L 121.68198 291.107631 
L 122.5846 289.55197 
L 123.487221 291.366908 
L 124.389841 280.477277 
L 125.292462 282.421854 
L 126.195082 285.922093 
L 127.097703 278.273424 
L 128.000324 283.199685 
L 128.902944 274.254631 
L 129.805565 270.106201 
L 130.708185 278.143785 
L 132.513426 266.605962 
L 133.416047 272.69897 
L 134.318667 262.457531 
L 135.221288 260.383316 
L 136.123908 257.271993 
L 137.026529 259.605485 
L 137.929149 252.605008 
L 138.83177 251.308623 
L 139.73439 254.808862 
L 140.637011 245.345254 
L 141.539631 245.085977 
L 142.442252 240.548631 
L 143.344872 240.030077 
L 144.247493 230.825746 
L 145.150113 228.621893 
L 146.052734 227.455146 
L 146.955354 222.139969 
L 147.857975 215.139493 
L 148.760595 209.046485 
L 149.663216 213.583831 
L 150.565836 208.268654 
L 151.468457 205.416608 
L 152.371077 201.397816 
L 153.273698 199.842154 
L 155.078939 193.230592 
L 155.981559 187.915415 
L 156.88418 183.637346 
L 157.7868 180.7853 
L 158.689421 183.378069 
L 159.592041 172.3588 
L 160.494662 176.636869 
L 161.397282 172.229161 
L 162.299903 162.765554 
L 163.202523 160.5617 
L 164.105144 161.339531 
L 165.007764 155.116884 
L 165.910385 155.635438 
L 166.813005 151.357369 
L 167.715626 152.005561 
L 168.618247 147.986769 
L 169.520867 145.134723 
L 170.423488 143.190146 
L 171.326108 140.208461 
L 172.228729 144.875446 
L 173.131349 134.763646 
L 174.03397 137.356415 
L 174.93659 139.560269 
L 175.839211 137.745331 
L 176.741831 131.133769 
L 177.644452 132.041238 
L 178.547072 131.263407 
L 179.449693 133.5969 
L 180.352313 133.207984 
L 181.254934 129.837384 
L 182.157554 128.670638 
L 183.060175 128.152084 
L 183.962795 124.003654 
L 184.865416 129.448469 
L 185.768036 126.726061 
L 186.670657 126.337146 
L 187.573277 124.911123 
L 188.475898 125.559315 
L 189.378518 122.966546 
L 190.281139 118.558838 
L 191.183759 120.762692 
L 192.08638 119.595946 
L 192.989 121.410884 
L 193.891621 114.799323 
L 194.794241 119.466307 
L 195.696862 121.410884 
L 196.599482 122.57763 
L 197.502103 117.392092 
L 198.404723 113.114023 
L 199.307344 117.781007 
L 200.209964 113.891853 
L 201.112585 115.0586 
L 202.015205 114.669684 
L 202.917826 111.169446 
L 203.820446 113.3733 
L 204.723067 112.206553 
L 205.625687 110.0027 
L 206.528308 112.336192 
L 207.430929 115.577153 
L 208.333549 112.076915 
L 209.23617 114.928961 
L 210.13879 110.910169 
L 211.041411 108.965592 
L 211.944031 110.261977 
L 212.846652 108.576677 
L 213.749272 111.688 
L 214.651893 111.428723 
L 215.554513 107.928484 
L 216.457134 110.0027 
L 217.359754 107.280292 
L 218.262375 108.706315 
L 219.164995 108.965592 
L 220.067616 108.447038 
L 220.970236 108.447038 
L 221.872857 102.483669 
L 222.775477 104.9468 
L 223.678098 108.965592 
L 224.580718 110.261977 
L 225.483339 105.72463 
L 226.385959 105.335715 
L 227.28858 105.983907 
L 228.1912 108.706315 
L 229.093821 104.428246 
L 229.996441 108.187761 
L 230.899062 104.428246 
L 231.801682 104.298607 
L 232.704303 104.9468 
L 233.606923 106.113546 
L 235.412164 101.965115 
L 236.314785 105.335715 
L 237.217405 105.854269 
L 238.120026 101.446561 
L 239.022646 104.168969 
L 239.925267 103.650415 
L 240.827887 103.650415 
L 241.730508 104.428246 
L 242.633128 100.539092 
L 243.535749 100.539092 
L 244.438369 103.909692 
L 245.34099 101.187284 
L 246.24361 102.872584 
L 247.146231 103.780053 
L 248.048852 102.483669 
L 248.951472 101.705838 
L 249.854093 99.761261 
L 250.756713 102.224392 
L 251.659334 102.224392 
L 252.561954 101.057646 
L 253.464575 98.335238 
L 254.367195 102.35403 
L 255.269816 101.316923 
L 256.172436 102.094753 
L 257.075057 101.187284 
L 257.977677 99.631623 
L 258.880298 99.501984 
L 259.782918 99.8909 
L 260.685539 99.501984 
L 261.588159 96.649938 
L 262.49078 97.038853 
L 263.3934 101.965115 
L 264.296021 102.224392 
L 265.198641 99.113069 
L 266.101262 102.742946 
L 267.003882 100.020538 
L 267.906503 99.8909 
L 268.809123 101.187284 
L 269.711744 97.427769 
L 270.614364 99.761261 
L 271.516985 101.187284 
L 272.419605 98.464876 
L 273.322226 99.8909 
L 274.224846 96.5203 
L 275.127467 98.724153 
L 276.030087 95.483192 
L 276.932708 100.928007 
L 277.835328 99.501984 
L 278.737949 97.427769 
L 279.640569 101.965115 
L 280.54319 99.372346 
L 281.44581 95.483192 
L 282.348431 96.779576 
L 283.251051 95.483192 
L 284.153672 94.835 
L 285.056292 97.038853 
L 285.958913 94.964638 
L 286.861533 94.835 
L 287.764154 95.483192 
L 288.666775 95.223915 
L 289.569395 100.409453 
L 290.472016 96.261023 
L 291.374636 98.594515 
L 292.277257 98.853792 
L 293.179877 94.446084 
L 294.082498 94.575723 
L 294.985118 100.66873 
L 295.887739 95.223915 
L 296.790359 95.61283 
L 297.69298 98.594515 
L 298.5956 96.909215 
L 299.498221 95.483192 
L 300.400841 98.075961 
L 301.303462 96.649938 
L 302.206082 97.29813 
L 303.108703 94.057169 
L 304.011323 94.964638 
L 304.913944 99.242707 
L 305.816564 91.853315 
L 306.719185 96.649938 
L 307.621805 93.92753 
L 308.524426 96.390661 
L 309.427046 94.316446 
L 310.329667 94.575723 
L 311.232287 97.168492 
L 313.940149 93.92753 
L 314.842769 95.094276 
L 315.74539 97.946323 
L 316.64801 95.61283 
L 317.550631 97.557407 
L 318.453251 96.779576 
L 319.355872 95.742469 
L 320.258492 93.279338 
L 321.161113 94.835 
L 322.063733 95.223915 
L 322.966354 97.427769 
L 323.868974 91.4644 
L 324.771595 96.390661 
L 326.576836 94.186807 
L 327.479456 94.316446 
L 328.382077 95.872107 
L 329.284698 92.631146 
L 330.187318 89.908738 
L 331.089939 95.61283 
L 331.992559 96.001746 
L 332.89518 94.835 
L 333.7978 96.001746 
L 334.700421 96.131384 
L 335.603041 95.872107 
L 336.505662 93.92753 
L 337.408282 92.760784 
L 338.310903 94.316446 
L 339.213523 91.4644 
L 340.116144 93.408976 
L 341.018764 94.057169 
L 341.921385 91.723676 
L 342.824005 95.094276 
L 343.726626 94.057169 
L 344.629246 94.186807 
L 345.531867 94.575723 
L 346.434487 94.316446 
L 347.337108 91.334761 
L 348.239728 90.816207 
L 349.142349 91.334761 
L 350.044969 93.1497 
L 350.94759 91.4644 
L 351.85021 91.205123 
L 352.752831 90.168015 
L 353.655451 94.446084 
L 354.558072 92.112592 
L 355.460692 90.945846 
L 356.363313 93.020061 
L 357.265933 96.909215 
L 358.168554 96.131384 
L 359.071174 94.705361 
L 359.973795 90.297653 
L 360.876415 93.797892 
L 361.779036 94.057169 
L 362.681656 92.24223 
L 363.584277 94.446084 
L 364.486897 92.890423 
L 365.389518 92.501507 
L 366.292138 92.631146 
L 367.194759 91.594038 
L 368.097379 92.112592 
L 369 91.594038 
L 369.902621 90.816207 
L 370.805241 91.723676 
L 371.707862 91.853315 
L 372.610482 92.760784 
L 373.513103 93.020061 
L 374.415723 88.87163 
L 375.318344 95.094276 
L 376.220964 93.1497 
L 377.123585 88.87163 
L 378.026205 91.853315 
L 378.928826 90.55693 
L 379.831446 95.094276 
L 380.734067 92.631146 
L 381.636687 94.316446 
L 382.539308 92.890423 
L 383.441928 93.668253 
L 384.344549 89.260546 
L 386.14979 93.538615 
L 387.05241 91.334761 
L 387.955031 90.297653 
L 388.857651 91.075484 
L 389.760272 91.075484 
L 390.662892 90.816207 
L 391.565513 91.594038 
L 392.468133 93.1497 
L 393.370754 91.594038 
L 394.273374 92.371869 
L 395.175995 94.446084 
L 396.981236 90.297653 
L 397.883856 91.982953 
L 398.786477 89.260546 
L 399.689097 89.779099 
L 400.591718 91.075484 
L 401.494338 93.538615 
L 402.396959 88.482715 
L 403.299579 93.668253 
L 404.2022 91.853315 
L 405.10482 90.297653 
L 406.007441 89.390184 
L 406.910061 91.723676 
L 407.812682 90.038376 
L 408.715302 91.723676 
L 409.617923 88.093799 
L 410.520544 91.334761 
L 411.423164 90.038376 
L 412.325785 90.297653 
L 413.228405 88.612353 
L 414.131026 92.890423 
L 415.033646 91.594038 
L 415.936267 88.482715 
L 416.838887 93.020061 
L 417.741508 92.890423 
L 418.644128 92.24223 
L 419.546749 92.760784 
L 420.449369 89.260546 
L 421.35199 91.4644 
L 422.25461 92.371869 
L 423.157231 92.631146 
L 424.059851 93.668253 
L 424.962472 88.741992 
L 425.865092 88.612353 
L 427.670333 90.816207 
L 428.572954 91.205123 
L 429.475574 89.390184 
L 430.378195 91.075484 
L 431.280815 89.908738 
L 432.183436 92.24223 
L 433.086056 89.001269 
L 433.988677 91.4644 
L 434.891297 90.168015 
L 435.793918 91.853315 
L 436.696538 87.834523 
L 437.599159 90.427292 
L 438.501779 93.797892 
L 439.4044 90.945846 
L 440.30702 92.501507 
L 441.209641 95.094276 
L 442.112261 88.87163 
L 443.014882 91.334761 
L 443.917502 90.168015 
L 444.820123 88.353076 
L 445.722743 90.038376 
L 446.625364 92.760784 
L 447.527984 90.427292 
L 448.430605 91.205123 
L 449.333225 90.297653 
L 450.235846 93.538615 
L 451.138467 91.075484 
L 452.943708 91.075484 
L 453.846328 90.686569 
L 454.748949 92.760784 
L 455.651569 89.001269 
L 456.55419 89.130907 
L 457.45681 88.612353 
L 458.359431 89.001269 
L 459.262051 88.353076 
L 460.164672 90.168015 
L 461.067292 90.945846 
L 461.969913 87.18633 
L 462.872533 89.779099 
L 464.677774 90.945846 
L 465.580395 90.297653 
L 466.483015 88.87163 
L 467.385636 90.168015 
L 468.288256 90.297653 
L 469.190877 88.482715 
L 470.093497 87.575246 
L 470.996118 90.816207 
L 471.898738 91.723676 
L 473.703979 88.482715 
L 474.6066 89.519823 
L 475.50922 89.649461 
L 476.411841 92.24223 
L 477.314461 89.130907 
L 478.217082 91.075484 
L 479.119702 87.964161 
L 480.022323 91.4644 
L 480.924943 89.390184 
L 481.827564 86.797415 
L 482.730184 89.908738 
L 483.632805 89.260546 
L 484.535425 89.908738 
L 485.438046 90.945846 
L 486.340666 87.704884 
L 487.243287 90.038376 
L 488.145907 89.130907 
L 489.048528 91.205123 
L 489.951148 88.093799 
L 490.853769 89.390184 
L 491.75639 89.649461 
L 492.65901 87.834523 
L 493.561631 88.223438 
L 494.464251 90.038376 
L 495.366872 88.093799 
L 497.172113 91.594038 
L 498.074733 89.260546 
L 498.977354 88.741992 
L 499.879974 87.056692 
L 500.782595 87.704884 
L 501.685215 87.964161 
L 502.587836 90.297653 
L 503.490456 88.093799 
L 504.393077 89.908738 
L 505.295697 91.205123 
L 506.198318 88.353076 
L 507.100938 91.205123 
L 508.003559 89.649461 
L 508.906179 90.038376 
L 509.8088 87.704884 
L 510.71142 88.87163 
L 511.614041 87.445607 
L 512.516661 90.55693 
L 513.419282 87.964161 
L 514.321902 91.205123 
L 515.224523 90.297653 
L 516.127143 86.797415 
L 517.029764 90.816207 
L 517.932384 86.667776 
L 518.835005 92.112592 
L 519.737625 87.18633 
L 520.640246 91.853315 
L 521.542866 87.964161 
L 522.445487 87.18633 
L 523.348107 90.297653 
L 524.250728 89.519823 
L 525.153348 86.927053 
L 526.055969 87.834523 
L 526.958589 91.075484 
L 527.86121 90.297653 
L 528.76383 87.18633 
L 529.666451 90.55693 
L 530.569071 90.686569 
L 531.471692 86.278861 
L 532.374313 89.779099 
L 533.276933 91.4644 
L 534.179554 90.038376 
L 535.082174 86.927053 
L 535.984795 87.834523 
L 536.887415 87.18633 
L 537.790036 89.260546 
L 538.692656 87.056692 
L 539.595277 86.019584 
L 540.497897 87.964161 
L 541.400518 89.260546 
L 542.303138 89.001269 
L 543.205759 88.353076 
L 544.108379 88.741992 
L 545.011 89.260546 
L 545.91362 89.390184 
L 546.816241 86.408499 
L 547.718861 87.056692 
L 548.621482 89.390184 
L 549.524102 89.390184 
L 550.426723 89.649461 
L 551.329343 89.130907 
L 552.231964 87.704884 
L 553.134584 87.704884 
L 554.037205 90.168015 
L 554.939825 92.24223 
L 555.842446 87.964161 
L 556.745066 89.519823 
L 557.647687 90.55693 
L 558.550307 85.889946 
L 559.452928 86.927053 
L 560.355548 87.056692 
L 561.258169 86.797415 
L 562.160789 89.260546 
L 563.06341 86.278861 
L 563.96603 85.889946 
L 564.868651 86.019584 
L 565.771271 89.390184 
L 566.673892 87.834523 
L 567.576512 88.741992 
L 568.479133 87.704884 
L 569.381753 90.038376 
L 570.284374 90.038376 
L 571.186995 90.297653 
L 572.089615 87.18633 
L 572.992236 88.741992 
L 573.894856 92.501507 
L 574.797477 87.575246 
L 575.700097 84.723199 
L 576.602718 89.001269 
L 577.505338 86.149223 
L 578.407959 90.55693 
L 579.310579 87.056692 
L 580.2132 87.18633 
L 581.11582 89.908738 
L 582.018441 87.056692 
L 582.921061 86.667776 
L 583.823682 89.519823 
L 584.726302 88.482715 
L 585.628923 89.260546 
L 586.531543 87.18633 
L 587.434164 88.612353 
L 588.336784 88.223438 
L 589.239405 90.686569 
L 590.142025 90.168015 
L 591.044646 86.408499 
L 591.947266 86.149223 
L 592.849887 90.686569 
L 593.752507 85.112115 
L 594.655128 84.852838 
L 595.557748 91.4644 
L 596.460369 89.779099 
L 597.362989 88.482715 
L 598.26561 89.779099 
L 599.16823 88.223438 
L 600.070851 83.556453 
L 600.973471 91.594038 
L 601.876092 87.704884 
L 602.778712 86.538138 
L 603.681333 87.18633 
L 604.583953 89.519823 
L 605.486574 87.834523 
L 606.389194 87.834523 
L 607.291815 88.741992 
L 608.194435 88.482715 
L 609.097056 87.056692 
L 609.999676 89.130907 
L 610.902297 88.093799 
L 611.804918 91.723676 
L 612.707538 87.315969 
L 613.610159 88.741992 
L 614.512779 88.612353 
L 615.4154 89.001269 
L 616.31802 88.093799 
L 617.220641 85.760307 
L 618.123261 87.445607 
L 619.025882 86.667776 
L 619.928502 87.18633 
L 620.831123 86.797415 
L 621.733743 89.649461 
L 622.636364 89.649461 
L 622.636364 89.649461 
" style="fill:none;stroke:#ff7f0e;stroke-linecap:square;stroke-width:0.5;"/>
   </g>
   <g id="patch_3">
    <path d="M 90 315 
L 90 43.2 
" style="fill:none;stroke:#000000;stroke-linecap:square;stroke-linejoin:miter;stroke-width:0.8;"/>
   </g>
   <g id="patch_4">
    <path d="M 648 315 
L 648 43.2 
" style="fill:none;stroke:#000000;stroke-linecap:square;stroke-linejoin:miter;stroke-width:0.8;"/>
   </g>
   <g id="patch_5">
    <path d="M 90 315 
L 648 315 
" style="fill:none;stroke:#000000;stroke-linecap:square;stroke-linejoin:miter;stroke-width:0.8;"/>
   </g>
   <g id="patch_6">
    <path d="M 90 43.2 
L 648 43.2 
" style="fill:none;stroke:#000000;stroke-linecap:square;stroke-linejoin:miter;stroke-width:0.8;"/>
   </g>
   <g id="text_16">
    <!-- accuracy -->
    <g transform="translate(341.92875 37.2)scale(0.12 -0.12)">
     <use xlink:href="#DejaVuSans-97"/>
     <use x="61.279297" xlink:href="#DejaVuSans-99"/>
     <use x="116.259766" xlink:href="#DejaVuSans-99"/>
     <use x="171.240234" xlink:href="#DejaVuSans-117"/>
     <use x="234.619141" xlink:href="#DejaVuSans-114"/>
     <use x="275.732422" xlink:href="#DejaVuSans-97"/>
     <use x="337.011719" xlink:href="#DejaVuSans-99"/>
     <use x="391.992188" xlink:href="#DejaVuSans-121"/>
    </g>
   </g>
   <g id="legend_1">
    <g id="patch_7">
     <path d="M 97 80.55625 
L 169.153125 80.55625 
Q 171.153125 80.55625 171.153125 78.55625 
L 171.153125 50.2 
Q 171.153125 48.2 169.153125 48.2 
L 97 48.2 
Q 95 48.2 95 50.2 
L 95 78.55625 
Q 95 80.55625 97 80.55625 
z
" style="fill:#ffffff;opacity:0.8;stroke:#cccccc;stroke-linejoin:miter;"/>
    </g>
    <g id="line2d_29">
     <path d="M 99 56.298437 
L 119 56.298437 
" style="fill:none;stroke:#1f77b4;stroke-linecap:square;stroke-width:0.5;"/>
    </g>
    <g id="line2d_30"/>
    <g id="text_17">
     <!-- train -->
     <defs>
      <path d="M 18.3125 70.21875 
L 18.3125 54.6875 
L 36.8125 54.6875 
L 36.8125 47.703125 
L 18.3125 47.703125 
L 18.3125 18.015625 
Q 18.3125 11.328125 20.140625 9.421875 
Q 21.96875 7.515625 27.59375 7.515625 
L 36.8125 7.515625 
L 36.8125 0 
L 27.59375 0 
Q 17.1875 0 13.234375 3.875 
Q 9.28125 7.765625 9.28125 18.015625 
L 9.28125 47.703125 
L 2.6875 47.703125 
L 2.6875 54.6875 
L 9.28125 54.6875 
L 9.28125 70.21875 
z
" id="DejaVuSans-116"/>
      <path d="M 9.421875 54.6875 
L 18.40625 54.6875 
L 18.40625 0 
L 9.421875 0 
z
M 9.421875 75.984375 
L 18.40625 75.984375 
L 18.40625 64.59375 
L 9.421875 64.59375 
z
" id="DejaVuSans-105"/>
      <path d="M 54.890625 33.015625 
L 54.890625 0 
L 45.90625 0 
L 45.90625 32.71875 
Q 45.90625 40.484375 42.875 44.328125 
Q 39.84375 48.1875 33.796875 48.1875 
Q 26.515625 48.1875 22.3125 43.546875 
Q 18.109375 38.921875 18.109375 30.90625 
L 18.109375 0 
L 9.078125 0 
L 9.078125 54.6875 
L 18.109375 54.6875 
L 18.109375 46.1875 
Q 21.34375 51.125 25.703125 53.5625 
Q 30.078125 56 35.796875 56 
Q 45.21875 56 50.046875 50.171875 
Q 54.890625 44.34375 54.890625 33.015625 
z
" id="DejaVuSans-110"/>
     </defs>
     <g transform="translate(127 59.798437)scale(0.1 -0.1)">
      <use xlink:href="#DejaVuSans-116"/>
      <use x="39.208984" xlink:href="#DejaVuSans-114"/>
      <use x="80.322266" xlink:href="#DejaVuSans-97"/>
      <use x="141.601562" xlink:href="#DejaVuSans-105"/>
      <use x="169.384766" xlink:href="#DejaVuSans-110"/>
     </g>
    </g>
    <g id="line2d_31">
     <path d="M 99 70.976562 
L 119 70.976562 
" style="fill:none;stroke:#ff7f0e;stroke-linecap:square;stroke-width:0.5;"/>
    </g>
    <g id="line2d_32"/>
    <g id="text_18">
     <!-- validate -->
     <defs>
      <path d="M 2.984375 54.6875 
L 12.5 54.6875 
L 29.59375 8.796875 
L 46.6875 54.6875 
L 56.203125 54.6875 
L 35.6875 0 
L 23.484375 0 
z
" id="DejaVuSans-118"/>
      <path d="M 9.421875 75.984375 
L 18.40625 75.984375 
L 18.40625 0 
L 9.421875 0 
z
" id="DejaVuSans-108"/>
      <path d="M 45.40625 46.390625 
L 45.40625 75.984375 
L 54.390625 75.984375 
L 54.390625 0 
L 45.40625 0 
L 45.40625 8.203125 
Q 42.578125 3.328125 38.25 0.953125 
Q 33.9375 -1.421875 27.875 -1.421875 
Q 17.96875 -1.421875 11.734375 6.484375 
Q 5.515625 14.40625 5.515625 27.296875 
Q 5.515625 40.1875 11.734375 48.09375 
Q 17.96875 56 27.875 56 
Q 33.9375 56 38.25 53.625 
Q 42.578125 51.265625 45.40625 46.390625 
z
M 14.796875 27.296875 
Q 14.796875 17.390625 18.875 11.75 
Q 22.953125 6.109375 30.078125 6.109375 
Q 37.203125 6.109375 41.296875 11.75 
Q 45.40625 17.390625 45.40625 27.296875 
Q 45.40625 37.203125 41.296875 42.84375 
Q 37.203125 48.484375 30.078125 48.484375 
Q 22.953125 48.484375 18.875 42.84375 
Q 14.796875 37.203125 14.796875 27.296875 
z
" id="DejaVuSans-100"/>
     </defs>
     <g transform="translate(127 74.476562)scale(0.1 -0.1)">
      <use xlink:href="#DejaVuSans-118"/>
      <use x="59.179688" xlink:href="#DejaVuSans-97"/>
      <use x="120.458984" xlink:href="#DejaVuSans-108"/>
      <use x="148.242188" xlink:href="#DejaVuSans-105"/>
      <use x="176.025391" xlink:href="#DejaVuSans-100"/>
      <use x="239.501953" xlink:href="#DejaVuSans-97"/>
      <use x="300.78125" xlink:href="#DejaVuSans-116"/>
      <use x="339.990234" xlink:href="#DejaVuSans-101"/>
     </g>
    </g>
   </g>
  </g>
 </g>
 <defs>
  <clipPath id="p74f15c1cd3">
   <rect height="271.8" width="558" x="90" y="43.2"/>
  </clipPath>
 </defs>
</svg>
