<?xml version="1.0" encoding="utf-8" standalone="no"?>
<!DOCTYPE svg PUBLIC "-//W3C//DTD SVG 1.1//EN"
  "http://www.w3.org/Graphics/SVG/1.1/DTD/svg11.dtd">
<!-- Created with matplotlib (https://matplotlib.org/) -->
<svg height="360pt" version="1.1" viewBox="0 0 720 360" width="720pt" xmlns="http://www.w3.org/2000/svg" xmlns:xlink="http://www.w3.org/1999/xlink">
 <defs>
  <style type="text/css">
*{stroke-linecap:butt;stroke-linejoin:round;}
  </style>
 </defs>
 <g id="figure_1">
  <g id="patch_1">
   <path d="M 0 360 
L 720 360 
L 720 0 
L 0 0 
z
" style="fill:#ffffff;"/>
  </g>
  <g id="axes_1">
   <g id="patch_2">
    <path d="M 90 315 
L 648 315 
L 648 43.2 
L 90 43.2 
z
" style="fill:#ffffff;"/>
   </g>
   <g id="matplotlib.axis_1">
    <g id="xtick_1">
     <g id="line2d_1">
      <path clip-path="url(#p6cacb7e522)" d="M 115.363636 315 
L 115.363636 43.2 
" style="fill:none;stroke:#b0b0b0;stroke-linecap:square;stroke-width:0.8;"/>
     </g>
     <g id="line2d_2">
      <defs>
       <path d="M 0 0 
L 0 3.5 
" id="mbb804471af" style="stroke:#000000;stroke-width:0.8;"/>
      </defs>
      <g>
       <use style="stroke:#000000;stroke-width:0.8;" x="115.363636" xlink:href="#mbb804471af" y="315"/>
      </g>
     </g>
     <g id="text_1">
      <!-- 0 -->
      <defs>
       <path d="M 31.78125 66.40625 
Q 24.171875 66.40625 20.328125 58.90625 
Q 16.5 51.421875 16.5 36.375 
Q 16.5 21.390625 20.328125 13.890625 
Q 24.171875 6.390625 31.78125 6.390625 
Q 39.453125 6.390625 43.28125 13.890625 
Q 47.125 21.390625 47.125 36.375 
Q 47.125 51.421875 43.28125 58.90625 
Q 39.453125 66.40625 31.78125 66.40625 
z
M 31.78125 74.21875 
Q 44.046875 74.21875 50.515625 64.515625 
Q 56.984375 54.828125 56.984375 36.375 
Q 56.984375 17.96875 50.515625 8.265625 
Q 44.046875 -1.421875 31.78125 -1.421875 
Q 19.53125 -1.421875 13.0625 8.265625 
Q 6.59375 17.96875 6.59375 36.375 
Q 6.59375 54.828125 13.0625 64.515625 
Q 19.53125 74.21875 31.78125 74.21875 
z
" id="DejaVuSans-48"/>
      </defs>
      <g transform="translate(112.182386 329.598437)scale(0.1 -0.1)">
       <use xlink:href="#DejaVuSans-48"/>
      </g>
     </g>
    </g>
    <g id="xtick_2">
     <g id="line2d_3">
      <path clip-path="url(#p6cacb7e522)" d="M 202.975506 315 
L 202.975506 43.2 
" style="fill:none;stroke:#b0b0b0;stroke-linecap:square;stroke-width:0.8;"/>
     </g>
     <g id="line2d_4">
      <g>
       <use style="stroke:#000000;stroke-width:0.8;" x="202.975506" xlink:href="#mbb804471af" y="315"/>
      </g>
     </g>
     <g id="text_2">
      <!-- 200 -->
      <defs>
       <path d="M 19.1875 8.296875 
L 53.609375 8.296875 
L 53.609375 0 
L 7.328125 0 
L 7.328125 8.296875 
Q 12.9375 14.109375 22.625 23.890625 
Q 32.328125 33.6875 34.8125 36.53125 
Q 39.546875 41.84375 41.421875 45.53125 
Q 43.3125 49.21875 43.3125 52.78125 
Q 43.3125 58.59375 39.234375 62.25 
Q 35.15625 65.921875 28.609375 65.921875 
Q 23.96875 65.921875 18.8125 64.3125 
Q 13.671875 62.703125 7.8125 59.421875 
L 7.8125 69.390625 
Q 13.765625 71.78125 18.9375 73 
Q 24.125 74.21875 28.421875 74.21875 
Q 39.75 74.21875 46.484375 68.546875 
Q 53.21875 62.890625 53.21875 53.421875 
Q 53.21875 48.921875 51.53125 44.890625 
Q 49.859375 40.875 45.40625 35.40625 
Q 44.1875 33.984375 37.640625 27.21875 
Q 31.109375 20.453125 19.1875 8.296875 
z
" id="DejaVuSans-50"/>
      </defs>
      <g transform="translate(193.431756 329.598437)scale(0.1 -0.1)">
       <use xlink:href="#DejaVuSans-50"/>
       <use x="63.623047" xlink:href="#DejaVuSans-48"/>
       <use x="127.246094" xlink:href="#DejaVuSans-48"/>
      </g>
     </g>
    </g>
    <g id="xtick_3">
     <g id="line2d_5">
      <path clip-path="url(#p6cacb7e522)" d="M 290.587376 315 
L 290.587376 43.2 
" style="fill:none;stroke:#b0b0b0;stroke-linecap:square;stroke-width:0.8;"/>
     </g>
     <g id="line2d_6">
      <g>
       <use style="stroke:#000000;stroke-width:0.8;" x="290.587376" xlink:href="#mbb804471af" y="315"/>
      </g>
     </g>
     <g id="text_3">
      <!-- 400 -->
      <defs>
       <path d="M 37.796875 64.3125 
L 12.890625 25.390625 
L 37.796875 25.390625 
z
M 35.203125 72.90625 
L 47.609375 72.90625 
L 47.609375 25.390625 
L 58.015625 25.390625 
L 58.015625 17.1875 
L 47.609375 17.1875 
L 47.609375 0 
L 37.796875 0 
L 37.796875 17.1875 
L 4.890625 17.1875 
L 4.890625 26.703125 
z
" id="DejaVuSans-52"/>
      </defs>
      <g transform="translate(281.043626 329.598437)scale(0.1 -0.1)">
       <use xlink:href="#DejaVuSans-52"/>
       <use x="63.623047" xlink:href="#DejaVuSans-48"/>
       <use x="127.246094" xlink:href="#DejaVuSans-48"/>
      </g>
     </g>
    </g>
    <g id="xtick_4">
     <g id="line2d_7">
      <path clip-path="url(#p6cacb7e522)" d="M 378.199246 315 
L 378.199246 43.2 
" style="fill:none;stroke:#b0b0b0;stroke-linecap:square;stroke-width:0.8;"/>
     </g>
     <g id="line2d_8">
      <g>
       <use style="stroke:#000000;stroke-width:0.8;" x="378.199246" xlink:href="#mbb804471af" y="315"/>
      </g>
     </g>
     <g id="text_4">
      <!-- 600 -->
      <defs>
       <path d="M 33.015625 40.375 
Q 26.375 40.375 22.484375 35.828125 
Q 18.609375 31.296875 18.609375 23.390625 
Q 18.609375 15.53125 22.484375 10.953125 
Q 26.375 6.390625 33.015625 6.390625 
Q 39.65625 6.390625 43.53125 10.953125 
Q 47.40625 15.53125 47.40625 23.390625 
Q 47.40625 31.296875 43.53125 35.828125 
Q 39.65625 40.375 33.015625 40.375 
z
M 52.59375 71.296875 
L 52.59375 62.3125 
Q 48.875 64.0625 45.09375 64.984375 
Q 41.3125 65.921875 37.59375 65.921875 
Q 27.828125 65.921875 22.671875 59.328125 
Q 17.53125 52.734375 16.796875 39.40625 
Q 19.671875 43.65625 24.015625 45.921875 
Q 28.375 48.1875 33.59375 48.1875 
Q 44.578125 48.1875 50.953125 41.515625 
Q 57.328125 34.859375 57.328125 23.390625 
Q 57.328125 12.15625 50.6875 5.359375 
Q 44.046875 -1.421875 33.015625 -1.421875 
Q 20.359375 -1.421875 13.671875 8.265625 
Q 6.984375 17.96875 6.984375 36.375 
Q 6.984375 53.65625 15.1875 63.9375 
Q 23.390625 74.21875 37.203125 74.21875 
Q 40.921875 74.21875 44.703125 73.484375 
Q 48.484375 72.75 52.59375 71.296875 
z
" id="DejaVuSans-54"/>
      </defs>
      <g transform="translate(368.655496 329.598437)scale(0.1 -0.1)">
       <use xlink:href="#DejaVuSans-54"/>
       <use x="63.623047" xlink:href="#DejaVuSans-48"/>
       <use x="127.246094" xlink:href="#DejaVuSans-48"/>
      </g>
     </g>
    </g>
    <g id="xtick_5">
     <g id="line2d_9">
      <path clip-path="url(#p6cacb7e522)" d="M 465.811116 315 
L 465.811116 43.2 
" style="fill:none;stroke:#b0b0b0;stroke-linecap:square;stroke-width:0.8;"/>
     </g>
     <g id="line2d_10">
      <g>
       <use style="stroke:#000000;stroke-width:0.8;" x="465.811116" xlink:href="#mbb804471af" y="315"/>
      </g>
     </g>
     <g id="text_5">
      <!-- 800 -->
      <defs>
       <path d="M 31.78125 34.625 
Q 24.75 34.625 20.71875 30.859375 
Q 16.703125 27.09375 16.703125 20.515625 
Q 16.703125 13.921875 20.71875 10.15625 
Q 24.75 6.390625 31.78125 6.390625 
Q 38.8125 6.390625 42.859375 10.171875 
Q 46.921875 13.96875 46.921875 20.515625 
Q 46.921875 27.09375 42.890625 30.859375 
Q 38.875 34.625 31.78125 34.625 
z
M 21.921875 38.8125 
Q 15.578125 40.375 12.03125 44.71875 
Q 8.5 49.078125 8.5 55.328125 
Q 8.5 64.0625 14.71875 69.140625 
Q 20.953125 74.21875 31.78125 74.21875 
Q 42.671875 74.21875 48.875 69.140625 
Q 55.078125 64.0625 55.078125 55.328125 
Q 55.078125 49.078125 51.53125 44.71875 
Q 48 40.375 41.703125 38.8125 
Q 48.828125 37.15625 52.796875 32.3125 
Q 56.78125 27.484375 56.78125 20.515625 
Q 56.78125 9.90625 50.3125 4.234375 
Q 43.84375 -1.421875 31.78125 -1.421875 
Q 19.734375 -1.421875 13.25 4.234375 
Q 6.78125 9.90625 6.78125 20.515625 
Q 6.78125 27.484375 10.78125 32.3125 
Q 14.796875 37.15625 21.921875 38.8125 
z
M 18.3125 54.390625 
Q 18.3125 48.734375 21.84375 45.5625 
Q 25.390625 42.390625 31.78125 42.390625 
Q 38.140625 42.390625 41.71875 45.5625 
Q 45.3125 48.734375 45.3125 54.390625 
Q 45.3125 60.0625 41.71875 63.234375 
Q 38.140625 66.40625 31.78125 66.40625 
Q 25.390625 66.40625 21.84375 63.234375 
Q 18.3125 60.0625 18.3125 54.390625 
z
" id="DejaVuSans-56"/>
      </defs>
      <g transform="translate(456.267366 329.598437)scale(0.1 -0.1)">
       <use xlink:href="#DejaVuSans-56"/>
       <use x="63.623047" xlink:href="#DejaVuSans-48"/>
       <use x="127.246094" xlink:href="#DejaVuSans-48"/>
      </g>
     </g>
    </g>
    <g id="xtick_6">
     <g id="line2d_11">
      <path clip-path="url(#p6cacb7e522)" d="M 553.422986 315 
L 553.422986 43.2 
" style="fill:none;stroke:#b0b0b0;stroke-linecap:square;stroke-width:0.8;"/>
     </g>
     <g id="line2d_12">
      <g>
       <use style="stroke:#000000;stroke-width:0.8;" x="553.422986" xlink:href="#mbb804471af" y="315"/>
      </g>
     </g>
     <g id="text_6">
      <!-- 1000 -->
      <defs>
       <path d="M 12.40625 8.296875 
L 28.515625 8.296875 
L 28.515625 63.921875 
L 10.984375 60.40625 
L 10.984375 69.390625 
L 28.421875 72.90625 
L 38.28125 72.90625 
L 38.28125 8.296875 
L 54.390625 8.296875 
L 54.390625 0 
L 12.40625 0 
z
" id="DejaVuSans-49"/>
      </defs>
      <g transform="translate(540.697986 329.598437)scale(0.1 -0.1)">
       <use xlink:href="#DejaVuSans-49"/>
       <use x="63.623047" xlink:href="#DejaVuSans-48"/>
       <use x="127.246094" xlink:href="#DejaVuSans-48"/>
       <use x="190.869141" xlink:href="#DejaVuSans-48"/>
      </g>
     </g>
    </g>
    <g id="xtick_7">
     <g id="line2d_13">
      <path clip-path="url(#p6cacb7e522)" d="M 641.034856 315 
L 641.034856 43.2 
" style="fill:none;stroke:#b0b0b0;stroke-linecap:square;stroke-width:0.8;"/>
     </g>
     <g id="line2d_14">
      <g>
       <use style="stroke:#000000;stroke-width:0.8;" x="641.034856" xlink:href="#mbb804471af" y="315"/>
      </g>
     </g>
     <g id="text_7">
      <!-- 1200 -->
      <g transform="translate(628.309856 329.598437)scale(0.1 -0.1)">
       <use xlink:href="#DejaVuSans-49"/>
       <use x="63.623047" xlink:href="#DejaVuSans-50"/>
       <use x="127.246094" xlink:href="#DejaVuSans-48"/>
       <use x="190.869141" xlink:href="#DejaVuSans-48"/>
      </g>
     </g>
    </g>
    <g id="text_8">
     <!-- epoch -->
     <defs>
      <path d="M 56.203125 29.59375 
L 56.203125 25.203125 
L 14.890625 25.203125 
Q 15.484375 15.921875 20.484375 11.0625 
Q 25.484375 6.203125 34.421875 6.203125 
Q 39.59375 6.203125 44.453125 7.46875 
Q 49.3125 8.734375 54.109375 11.28125 
L 54.109375 2.78125 
Q 49.265625 0.734375 44.1875 -0.34375 
Q 39.109375 -1.421875 33.890625 -1.421875 
Q 20.796875 -1.421875 13.15625 6.1875 
Q 5.515625 13.8125 5.515625 26.8125 
Q 5.515625 40.234375 12.765625 48.109375 
Q 20.015625 56 32.328125 56 
Q 43.359375 56 49.78125 48.890625 
Q 56.203125 41.796875 56.203125 29.59375 
z
M 47.21875 32.234375 
Q 47.125 39.59375 43.09375 43.984375 
Q 39.0625 48.390625 32.421875 48.390625 
Q 24.90625 48.390625 20.390625 44.140625 
Q 15.875 39.890625 15.1875 32.171875 
z
" id="DejaVuSans-101"/>
      <path d="M 18.109375 8.203125 
L 18.109375 -20.796875 
L 9.078125 -20.796875 
L 9.078125 54.6875 
L 18.109375 54.6875 
L 18.109375 46.390625 
Q 20.953125 51.265625 25.265625 53.625 
Q 29.59375 56 35.59375 56 
Q 45.5625 56 51.78125 48.09375 
Q 58.015625 40.1875 58.015625 27.296875 
Q 58.015625 14.40625 51.78125 6.484375 
Q 45.5625 -1.421875 35.59375 -1.421875 
Q 29.59375 -1.421875 25.265625 0.953125 
Q 20.953125 3.328125 18.109375 8.203125 
z
M 48.6875 27.296875 
Q 48.6875 37.203125 44.609375 42.84375 
Q 40.53125 48.484375 33.40625 48.484375 
Q 26.265625 48.484375 22.1875 42.84375 
Q 18.109375 37.203125 18.109375 27.296875 
Q 18.109375 17.390625 22.1875 11.75 
Q 26.265625 6.109375 33.40625 6.109375 
Q 40.53125 6.109375 44.609375 11.75 
Q 48.6875 17.390625 48.6875 27.296875 
z
" id="DejaVuSans-112"/>
      <path d="M 30.609375 48.390625 
Q 23.390625 48.390625 19.1875 42.75 
Q 14.984375 37.109375 14.984375 27.296875 
Q 14.984375 17.484375 19.15625 11.84375 
Q 23.34375 6.203125 30.609375 6.203125 
Q 37.796875 6.203125 41.984375 11.859375 
Q 46.1875 17.53125 46.1875 27.296875 
Q 46.1875 37.015625 41.984375 42.703125 
Q 37.796875 48.390625 30.609375 48.390625 
z
M 30.609375 56 
Q 42.328125 56 49.015625 48.375 
Q 55.71875 40.765625 55.71875 27.296875 
Q 55.71875 13.875 49.015625 6.21875 
Q 42.328125 -1.421875 30.609375 -1.421875 
Q 18.84375 -1.421875 12.171875 6.21875 
Q 5.515625 13.875 5.515625 27.296875 
Q 5.515625 40.765625 12.171875 48.375 
Q 18.84375 56 30.609375 56 
z
" id="DejaVuSans-111"/>
      <path d="M 48.78125 52.59375 
L 48.78125 44.1875 
Q 44.96875 46.296875 41.140625 47.34375 
Q 37.3125 48.390625 33.40625 48.390625 
Q 24.65625 48.390625 19.8125 42.84375 
Q 14.984375 37.3125 14.984375 27.296875 
Q 14.984375 17.28125 19.8125 11.734375 
Q 24.65625 6.203125 33.40625 6.203125 
Q 37.3125 6.203125 41.140625 7.25 
Q 44.96875 8.296875 48.78125 10.40625 
L 48.78125 2.09375 
Q 45.015625 0.34375 40.984375 -0.53125 
Q 36.96875 -1.421875 32.421875 -1.421875 
Q 20.0625 -1.421875 12.78125 6.34375 
Q 5.515625 14.109375 5.515625 27.296875 
Q 5.515625 40.671875 12.859375 48.328125 
Q 20.21875 56 33.015625 56 
Q 37.15625 56 41.109375 55.140625 
Q 45.0625 54.296875 48.78125 52.59375 
z
" id="DejaVuSans-99"/>
      <path d="M 54.890625 33.015625 
L 54.890625 0 
L 45.90625 0 
L 45.90625 32.71875 
Q 45.90625 40.484375 42.875 44.328125 
Q 39.84375 48.1875 33.796875 48.1875 
Q 26.515625 48.1875 22.3125 43.546875 
Q 18.109375 38.921875 18.109375 30.90625 
L 18.109375 0 
L 9.078125 0 
L 9.078125 75.984375 
L 18.109375 75.984375 
L 18.109375 46.1875 
Q 21.34375 51.125 25.703125 53.5625 
Q 30.078125 56 35.796875 56 
Q 45.21875 56 50.046875 50.171875 
Q 54.890625 44.34375 54.890625 33.015625 
z
" id="DejaVuSans-104"/>
     </defs>
     <g transform="translate(353.771875 343.276563)scale(0.1 -0.1)">
      <use xlink:href="#DejaVuSans-101"/>
      <use x="61.523438" xlink:href="#DejaVuSans-112"/>
      <use x="125" xlink:href="#DejaVuSans-111"/>
      <use x="186.181641" xlink:href="#DejaVuSans-99"/>
      <use x="241.162109" xlink:href="#DejaVuSans-104"/>
     </g>
    </g>
   </g>
   <g id="matplotlib.axis_2">
    <g id="ytick_1">
     <g id="line2d_15">
      <path clip-path="url(#p6cacb7e522)" d="M 90 284.102856 
L 648 284.102856 
" style="fill:none;stroke:#b0b0b0;stroke-linecap:square;stroke-width:0.8;"/>
     </g>
     <g id="line2d_16">
      <defs>
       <path d="M 0 0 
L -3.5 0 
" id="mace9ca4d39" style="stroke:#000000;stroke-width:0.8;"/>
      </defs>
      <g>
       <use style="stroke:#000000;stroke-width:0.8;" x="90" xlink:href="#mace9ca4d39" y="284.102856"/>
      </g>
     </g>
     <g id="text_9">
      <!-- 0.3 -->
      <defs>
       <path d="M 10.6875 12.40625 
L 21 12.40625 
L 21 0 
L 10.6875 0 
z
" id="DejaVuSans-46"/>
       <path d="M 40.578125 39.3125 
Q 47.65625 37.796875 51.625 33 
Q 55.609375 28.21875 55.609375 21.1875 
Q 55.609375 10.40625 48.1875 4.484375 
Q 40.765625 -1.421875 27.09375 -1.421875 
Q 22.515625 -1.421875 17.65625 -0.515625 
Q 12.796875 0.390625 7.625 2.203125 
L 7.625 11.71875 
Q 11.71875 9.328125 16.59375 8.109375 
Q 21.484375 6.890625 26.8125 6.890625 
Q 36.078125 6.890625 40.9375 10.546875 
Q 45.796875 14.203125 45.796875 21.1875 
Q 45.796875 27.640625 41.28125 31.265625 
Q 36.765625 34.90625 28.71875 34.90625 
L 20.21875 34.90625 
L 20.21875 43.015625 
L 29.109375 43.015625 
Q 36.375 43.015625 40.234375 45.921875 
Q 44.09375 48.828125 44.09375 54.296875 
Q 44.09375 59.90625 40.109375 62.90625 
Q 36.140625 65.921875 28.71875 65.921875 
Q 24.65625 65.921875 20.015625 65.03125 
Q 15.375 64.15625 9.8125 62.3125 
L 9.8125 71.09375 
Q 15.4375 72.65625 20.34375 73.4375 
Q 25.25 74.21875 29.59375 74.21875 
Q 40.828125 74.21875 47.359375 69.109375 
Q 53.90625 64.015625 53.90625 55.328125 
Q 53.90625 49.265625 50.4375 45.09375 
Q 46.96875 40.921875 40.578125 39.3125 
z
" id="DejaVuSans-51"/>
      </defs>
      <g transform="translate(67.096875 287.902075)scale(0.1 -0.1)">
       <use xlink:href="#DejaVuSans-48"/>
       <use x="63.623047" xlink:href="#DejaVuSans-46"/>
       <use x="95.410156" xlink:href="#DejaVuSans-51"/>
      </g>
     </g>
    </g>
    <g id="ytick_2">
     <g id="line2d_17">
      <path clip-path="url(#p6cacb7e522)" d="M 90 249.604998 
L 648 249.604998 
" style="fill:none;stroke:#b0b0b0;stroke-linecap:square;stroke-width:0.8;"/>
     </g>
     <g id="line2d_18">
      <g>
       <use style="stroke:#000000;stroke-width:0.8;" x="90" xlink:href="#mace9ca4d39" y="249.604998"/>
      </g>
     </g>
     <g id="text_10">
      <!-- 0.4 -->
      <g transform="translate(67.096875 253.404216)scale(0.1 -0.1)">
       <use xlink:href="#DejaVuSans-48"/>
       <use x="63.623047" xlink:href="#DejaVuSans-46"/>
       <use x="95.410156" xlink:href="#DejaVuSans-52"/>
      </g>
     </g>
    </g>
    <g id="ytick_3">
     <g id="line2d_19">
      <path clip-path="url(#p6cacb7e522)" d="M 90 215.107139 
L 648 215.107139 
" style="fill:none;stroke:#b0b0b0;stroke-linecap:square;stroke-width:0.8;"/>
     </g>
     <g id="line2d_20">
      <g>
       <use style="stroke:#000000;stroke-width:0.8;" x="90" xlink:href="#mace9ca4d39" y="215.107139"/>
      </g>
     </g>
     <g id="text_11">
      <!-- 0.5 -->
      <defs>
       <path d="M 10.796875 72.90625 
L 49.515625 72.90625 
L 49.515625 64.59375 
L 19.828125 64.59375 
L 19.828125 46.734375 
Q 21.96875 47.46875 24.109375 47.828125 
Q 26.265625 48.1875 28.421875 48.1875 
Q 40.625 48.1875 47.75 41.5 
Q 54.890625 34.8125 54.890625 23.390625 
Q 54.890625 11.625 47.5625 5.09375 
Q 40.234375 -1.421875 26.90625 -1.421875 
Q 22.3125 -1.421875 17.546875 -0.640625 
Q 12.796875 0.140625 7.71875 1.703125 
L 7.71875 11.625 
Q 12.109375 9.234375 16.796875 8.0625 
Q 21.484375 6.890625 26.703125 6.890625 
Q 35.15625 6.890625 40.078125 11.328125 
Q 45.015625 15.765625 45.015625 23.390625 
Q 45.015625 31 40.078125 35.4375 
Q 35.15625 39.890625 26.703125 39.890625 
Q 22.75 39.890625 18.8125 39.015625 
Q 14.890625 38.140625 10.796875 36.28125 
z
" id="DejaVuSans-53"/>
      </defs>
      <g transform="translate(67.096875 218.906358)scale(0.1 -0.1)">
       <use xlink:href="#DejaVuSans-48"/>
       <use x="63.623047" xlink:href="#DejaVuSans-46"/>
       <use x="95.410156" xlink:href="#DejaVuSans-53"/>
      </g>
     </g>
    </g>
    <g id="ytick_4">
     <g id="line2d_21">
      <path clip-path="url(#p6cacb7e522)" d="M 90 180.609281 
L 648 180.609281 
" style="fill:none;stroke:#b0b0b0;stroke-linecap:square;stroke-width:0.8;"/>
     </g>
     <g id="line2d_22">
      <g>
       <use style="stroke:#000000;stroke-width:0.8;" x="90" xlink:href="#mace9ca4d39" y="180.609281"/>
      </g>
     </g>
     <g id="text_12">
      <!-- 0.6 -->
      <g transform="translate(67.096875 184.4085)scale(0.1 -0.1)">
       <use xlink:href="#DejaVuSans-48"/>
       <use x="63.623047" xlink:href="#DejaVuSans-46"/>
       <use x="95.410156" xlink:href="#DejaVuSans-54"/>
      </g>
     </g>
    </g>
    <g id="ytick_5">
     <g id="line2d_23">
      <path clip-path="url(#p6cacb7e522)" d="M 90 146.111423 
L 648 146.111423 
" style="fill:none;stroke:#b0b0b0;stroke-linecap:square;stroke-width:0.8;"/>
     </g>
     <g id="line2d_24">
      <g>
       <use style="stroke:#000000;stroke-width:0.8;" x="90" xlink:href="#mace9ca4d39" y="146.111423"/>
      </g>
     </g>
     <g id="text_13">
      <!-- 0.7 -->
      <defs>
       <path d="M 8.203125 72.90625 
L 55.078125 72.90625 
L 55.078125 68.703125 
L 28.609375 0 
L 18.3125 0 
L 43.21875 64.59375 
L 8.203125 64.59375 
z
" id="DejaVuSans-55"/>
      </defs>
      <g transform="translate(67.096875 149.910642)scale(0.1 -0.1)">
       <use xlink:href="#DejaVuSans-48"/>
       <use x="63.623047" xlink:href="#DejaVuSans-46"/>
       <use x="95.410156" xlink:href="#DejaVuSans-55"/>
      </g>
     </g>
    </g>
    <g id="ytick_6">
     <g id="line2d_25">
      <path clip-path="url(#p6cacb7e522)" d="M 90 111.613565 
L 648 111.613565 
" style="fill:none;stroke:#b0b0b0;stroke-linecap:square;stroke-width:0.8;"/>
     </g>
     <g id="line2d_26">
      <g>
       <use style="stroke:#000000;stroke-width:0.8;" x="90" xlink:href="#mace9ca4d39" y="111.613565"/>
      </g>
     </g>
     <g id="text_14">
      <!-- 0.8 -->
      <g transform="translate(67.096875 115.412784)scale(0.1 -0.1)">
       <use xlink:href="#DejaVuSans-48"/>
       <use x="63.623047" xlink:href="#DejaVuSans-46"/>
       <use x="95.410156" xlink:href="#DejaVuSans-56"/>
      </g>
     </g>
    </g>
    <g id="ytick_7">
     <g id="line2d_27">
      <path clip-path="url(#p6cacb7e522)" d="M 90 77.115707 
L 648 77.115707 
" style="fill:none;stroke:#b0b0b0;stroke-linecap:square;stroke-width:0.8;"/>
     </g>
     <g id="line2d_28">
      <g>
       <use style="stroke:#000000;stroke-width:0.8;" x="90" xlink:href="#mace9ca4d39" y="77.115707"/>
      </g>
     </g>
     <g id="text_15">
      <!-- 0.9 -->
      <defs>
       <path d="M 10.984375 1.515625 
L 10.984375 10.5 
Q 14.703125 8.734375 18.5 7.8125 
Q 22.3125 6.890625 25.984375 6.890625 
Q 35.75 6.890625 40.890625 13.453125 
Q 46.046875 20.015625 46.78125 33.40625 
Q 43.953125 29.203125 39.59375 26.953125 
Q 35.25 24.703125 29.984375 24.703125 
Q 19.046875 24.703125 12.671875 31.3125 
Q 6.296875 37.9375 6.296875 49.421875 
Q 6.296875 60.640625 12.9375 67.421875 
Q 19.578125 74.21875 30.609375 74.21875 
Q 43.265625 74.21875 49.921875 64.515625 
Q 56.59375 54.828125 56.59375 36.375 
Q 56.59375 19.140625 48.40625 8.859375 
Q 40.234375 -1.421875 26.421875 -1.421875 
Q 22.703125 -1.421875 18.890625 -0.6875 
Q 15.09375 0.046875 10.984375 1.515625 
z
M 30.609375 32.421875 
Q 37.25 32.421875 41.125 36.953125 
Q 45.015625 41.5 45.015625 49.421875 
Q 45.015625 57.28125 41.125 61.84375 
Q 37.25 66.40625 30.609375 66.40625 
Q 23.96875 66.40625 20.09375 61.84375 
Q 16.21875 57.28125 16.21875 49.421875 
Q 16.21875 41.5 20.09375 36.953125 
Q 23.96875 32.421875 30.609375 32.421875 
z
" id="DejaVuSans-57"/>
      </defs>
      <g transform="translate(67.096875 80.914926)scale(0.1 -0.1)">
       <use xlink:href="#DejaVuSans-48"/>
       <use x="63.623047" xlink:href="#DejaVuSans-46"/>
       <use x="95.410156" xlink:href="#DejaVuSans-57"/>
      </g>
     </g>
    </g>
    <g id="text_16">
     <!-- accuracy -->
     <defs>
      <path d="M 34.28125 27.484375 
Q 23.390625 27.484375 19.1875 25 
Q 14.984375 22.515625 14.984375 16.5 
Q 14.984375 11.71875 18.140625 8.90625 
Q 21.296875 6.109375 26.703125 6.109375 
Q 34.1875 6.109375 38.703125 11.40625 
Q 43.21875 16.703125 43.21875 25.484375 
L 43.21875 27.484375 
z
M 52.203125 31.203125 
L 52.203125 0 
L 43.21875 0 
L 43.21875 8.296875 
Q 40.140625 3.328125 35.546875 0.953125 
Q 30.953125 -1.421875 24.3125 -1.421875 
Q 15.921875 -1.421875 10.953125 3.296875 
Q 6 8.015625 6 15.921875 
Q 6 25.140625 12.171875 29.828125 
Q 18.359375 34.515625 30.609375 34.515625 
L 43.21875 34.515625 
L 43.21875 35.40625 
Q 43.21875 41.609375 39.140625 45 
Q 35.0625 48.390625 27.6875 48.390625 
Q 23 48.390625 18.546875 47.265625 
Q 14.109375 46.140625 10.015625 43.890625 
L 10.015625 52.203125 
Q 14.9375 54.109375 19.578125 55.046875 
Q 24.21875 56 28.609375 56 
Q 40.484375 56 46.34375 49.84375 
Q 52.203125 43.703125 52.203125 31.203125 
z
" id="DejaVuSans-97"/>
      <path d="M 8.5 21.578125 
L 8.5 54.6875 
L 17.484375 54.6875 
L 17.484375 21.921875 
Q 17.484375 14.15625 20.5 10.265625 
Q 23.53125 6.390625 29.59375 6.390625 
Q 36.859375 6.390625 41.078125 11.03125 
Q 45.3125 15.671875 45.3125 23.6875 
L 45.3125 54.6875 
L 54.296875 54.6875 
L 54.296875 0 
L 45.3125 0 
L 45.3125 8.40625 
Q 42.046875 3.421875 37.71875 1 
Q 33.40625 -1.421875 27.6875 -1.421875 
Q 18.265625 -1.421875 13.375 4.4375 
Q 8.5 10.296875 8.5 21.578125 
z
M 31.109375 56 
z
" id="DejaVuSans-117"/>
      <path d="M 41.109375 46.296875 
Q 39.59375 47.171875 37.8125 47.578125 
Q 36.03125 48 33.890625 48 
Q 26.265625 48 22.1875 43.046875 
Q 18.109375 38.09375 18.109375 28.8125 
L 18.109375 0 
L 9.078125 0 
L 9.078125 54.6875 
L 18.109375 54.6875 
L 18.109375 46.1875 
Q 20.953125 51.171875 25.484375 53.578125 
Q 30.03125 56 36.53125 56 
Q 37.453125 56 38.578125 55.875 
Q 39.703125 55.765625 41.0625 55.515625 
z
" id="DejaVuSans-114"/>
      <path d="M 32.171875 -5.078125 
Q 28.375 -14.84375 24.75 -17.8125 
Q 21.140625 -20.796875 15.09375 -20.796875 
L 7.90625 -20.796875 
L 7.90625 -13.28125 
L 13.1875 -13.28125 
Q 16.890625 -13.28125 18.9375 -11.515625 
Q 21 -9.765625 23.484375 -3.21875 
L 25.09375 0.875 
L 2.984375 54.6875 
L 12.5 54.6875 
L 29.59375 11.921875 
L 46.6875 54.6875 
L 56.203125 54.6875 
z
" id="DejaVuSans-121"/>
     </defs>
     <g transform="translate(61.017187 201.659375)rotate(-90)scale(0.1 -0.1)">
      <use xlink:href="#DejaVuSans-97"/>
      <use x="61.279297" xlink:href="#DejaVuSans-99"/>
      <use x="116.259766" xlink:href="#DejaVuSans-99"/>
      <use x="171.240234" xlink:href="#DejaVuSans-117"/>
      <use x="234.619141" xlink:href="#DejaVuSans-114"/>
      <use x="275.732422" xlink:href="#DejaVuSans-97"/>
      <use x="337.011719" xlink:href="#DejaVuSans-99"/>
      <use x="391.992188" xlink:href="#DejaVuSans-121"/>
     </g>
    </g>
   </g>
   <g id="line2d_29">
    <path clip-path="url(#p6cacb7e522)" d="M 115.363636 299.540647 
L 116.239755 299.454403 
L 116.677814 296.263351 
L 117.115874 296.953308 
L 117.553933 295.14217 
L 117.991992 299.195669 
L 118.430052 293.072299 
L 118.868111 294.538458 
L 119.306171 297.643265 
L 119.74423 294.02099 
L 120.182289 296.694574 
L 120.620349 296.953308 
L 121.058408 295.31466 
L 121.496467 289.967492 
L 121.934527 293.417277 
L 122.372586 289.881247 
L 122.810645 294.193479 
L 123.248705 285.741504 
L 123.686764 282.981675 
L 124.124823 286.000238 
L 124.562883 286.258972 
L 125.000942 286.172727 
L 125.439001 276.340838 
L 125.877061 275.82337 
L 126.31512 275.995859 
L 126.753179 275.392147 
L 127.629298 267.543884 
L 128.067358 269.010043 
L 128.505417 267.28515 
L 129.381536 257.62575 
L 129.819595 256.159591 
L 130.257654 254.003475 
L 130.695714 245.896478 
L 131.133773 245.465255 
L 131.571832 236.495812 
L 132.009892 238.738172 
L 132.447951 234.857163 
L 133.32407 224.335317 
L 133.762129 219.074393 
L 134.200188 220.454307 
L 134.638248 212.433555 
L 135.076307 210.536173 
L 135.514366 211.053641 
L 135.952426 196.650785 
L 136.390485 192.079819 
L 136.828545 190.268682 
L 137.266604 181.040505 
L 137.704663 183.800333 
L 138.142723 175.607092 
L 138.580782 176.814517 
L 139.018841 168.276297 
L 139.456901 164.999 
L 139.89496 159.910566 
L 140.333019 165.257734 
L 140.771079 157.409472 
L 141.209138 154.994622 
L 141.647197 151.889814 
L 142.085257 152.148548 
L 142.523316 147.922561 
L 142.961375 146.197668 
L 143.399435 147.491337 
L 143.837494 145.162732 
L 144.275553 141.281723 
L 144.713613 140.160543 
L 145.151672 137.14198 
L 145.589732 136.279534 
L 146.027791 135.934555 
L 146.46585 131.622323 
L 146.90391 131.01861 
L 147.341969 128.60376 
L 147.780028 131.449833 
L 148.218088 131.01861 
L 148.656147 128.172537 
L 149.094206 128.862494 
L 149.532266 126.620133 
L 149.970325 126.878867 
L 150.408384 123.256592 
L 150.846444 122.307901 
L 151.284503 121.876678 
L 151.722562 123.170347 
L 152.160622 118.340647 
L 152.598681 119.030604 
L 153.03674 119.203094 
L 153.4748 114.287149 
L 153.912859 119.720562 
L 154.350919 112.82099 
L 154.788978 110.751119 
L 155.227037 110.923608 
L 155.665097 106.870109 
L 156.103156 113.252213 
L 156.541215 107.818801 
L 156.979275 111.096097 
L 157.417334 102.902856 
L 157.855393 105.231461 
L 158.293453 106.525131 
L 158.731512 105.662684 
L 159.169571 102.385388 
L 159.607631 106.266397 
L 160.04569 98.935602 
L 160.483749 101.954165 
L 160.921809 102.730366 
L 161.359868 98.935602 
L 161.797927 97.986911 
L 162.235987 98.1594 
L 162.674046 97.900666 
L 163.112106 95.227082 
L 163.550165 96.520752 
L 163.988224 99.194336 
L 164.426284 96.951975 
L 164.864343 92.898477 
L 165.302402 96.089529 
L 165.740462 92.20852 
L 166.178521 96.003284 
L 166.61658 92.03603 
L 167.05464 93.674679 
L 167.492699 93.243455 
L 167.930758 94.882104 
L 168.368818 95.572061 
L 168.806877 91.691052 
L 169.682996 90.742361 
L 170.121055 86.775107 
L 170.559114 87.033841 
L 170.997174 85.136459 
L 171.435233 87.033841 
L 171.873293 90.052404 
L 172.311352 87.896287 
L 172.749411 88.931223 
L 173.187471 90.91485 
L 173.62553 85.481437 
L 174.063589 86.602618 
L 174.501649 83.756545 
L 174.939708 83.497811 
L 175.377767 86.516373 
L 175.815827 83.929034 
L 176.253886 83.6703 
L 177.130005 88.327511 
L 177.568064 84.79148 
L 178.006123 86.430129 
L 178.444183 81.945407 
L 178.882242 81.945407 
L 179.320301 83.497811 
L 179.758361 80.393003 
L 180.19642 83.756545 
L 180.63448 82.549119 
L 181.072539 82.549119 
L 181.510598 83.6703 
L 181.948658 82.37663 
L 182.386717 84.532746 
L 182.824776 78.8406 
L 183.262836 80.220514 
L 183.700895 79.616802 
L 184.138954 80.996716 
L 184.577014 79.530557 
L 185.015073 80.393003 
L 185.453132 85.481437 
L 185.891192 80.737982 
L 186.329251 79.530557 
L 186.76731 77.288196 
L 187.20537 78.754355 
L 187.643429 76.25326 
L 188.081488 78.236887 
L 188.519548 81.514184 
L 188.957607 80.737982 
L 189.395667 77.374441 
L 189.833726 77.374441 
L 190.271785 78.323132 
L 190.709845 76.080771 
L 191.147904 77.115707 
L 191.585963 76.511994 
L 192.462082 80.651737 
L 192.900141 76.080771 
L 193.338201 78.8406 
L 193.77626 79.444312 
L 194.214319 77.805664 
L 194.652379 77.891909 
L 195.090438 77.201951 
L 195.528497 75.304569 
L 195.966557 77.891909 
L 196.404616 76.25326 
L 196.842675 78.323132 
L 197.280735 78.150643 
L 197.718794 75.045835 
L 198.156854 74.355878 
L 198.594913 75.218325 
L 199.032972 77.460685 
L 199.471032 76.856973 
L 199.909091 73.924655 
L 200.34715 75.477059 
L 200.78521 75.822037 
L 201.661328 74.873346 
L 202.099388 75.13208 
L 202.537447 75.563303 
L 203.413566 72.286007 
L 203.851625 76.167016 
L 204.289684 75.218325 
L 204.727744 73.924655 
L 205.165803 76.339505 
L 206.041922 72.113517 
L 206.479981 75.649548 
L 206.918041 73.665921 
L 207.3561 72.71723 
L 207.794159 72.803475 
L 208.232219 72.71723 
L 208.670278 72.027273 
L 209.108337 72.027273 
L 209.546397 73.062208 
L 209.984456 72.71723 
L 210.422515 74.269634 
L 210.860575 71.59605 
L 211.298634 73.407187 
L 211.736693 72.458496 
L 212.174753 74.700857 
L 213.050871 72.458496 
L 213.488931 74.269634 
L 213.92699 73.579676 
L 214.365049 73.234698 
L 215.241168 72.113517 
L 215.679228 72.458496 
L 216.117287 71.42356 
L 216.555346 72.803475 
L 216.993406 72.286007 
L 217.431465 74.355878 
L 217.869524 72.286007 
L 218.307584 69.439933 
L 218.745643 72.71723 
L 219.183702 70.733603 
L 219.621762 71.164826 
L 220.059821 70.992337 
L 220.49788 71.078582 
L 220.93594 73.234698 
L 221.373999 70.30238 
L 221.812058 70.474869 
L 222.250118 70.129891 
L 222.688177 72.372251 
L 223.126236 70.129891 
L 223.564296 73.579676 
L 224.002355 70.043646 
L 224.440415 71.337316 
L 224.878474 68.836221 
L 225.316533 72.803475 
L 225.754593 71.164826 
L 226.192652 70.906092 
L 226.630711 72.113517 
L 227.068771 69.267444 
L 227.50683 71.078582 
L 227.944889 67.456307 
L 228.382949 69.267444 
L 228.821008 68.318753 
L 229.259067 72.286007 
L 229.697127 71.59605 
L 230.135186 72.544741 
L 230.573245 70.129891 
L 231.011305 70.906092 
L 231.449364 69.612423 
L 231.887423 66.852594 
L 232.325483 70.647358 
L 232.763542 70.906092 
L 233.639661 68.491242 
L 234.07772 69.612423 
L 234.51578 71.682294 
L 234.953839 71.251071 
L 235.391898 68.836221 
L 235.829958 70.043646 
L 236.268017 69.784912 
L 236.706076 68.404998 
L 237.144136 70.388624 
L 237.582195 69.871157 
L 238.020254 68.922465 
L 238.458314 70.733603 
L 238.896373 68.836221 
L 239.772492 69.698667 
L 240.210551 69.353689 
L 240.64861 70.561114 
L 241.08667 69.784912 
L 241.524729 67.025083 
L 241.962789 69.00871 
L 242.400848 69.353689 
L 242.838907 67.801285 
L 243.715026 71.509805 
L 244.153085 71.337316 
L 245.029204 68.404998 
L 245.467263 69.698667 
L 245.905323 69.439933 
L 246.343382 68.663732 
L 246.781441 68.491242 
L 247.219501 69.094955 
L 247.65756 69.00871 
L 248.095619 69.267444 
L 248.533679 66.507615 
L 248.971738 67.025083 
L 249.409797 69.784912 
L 250.285916 65.558924 
L 250.723976 68.922465 
L 251.162035 67.456307 
L 251.600094 67.370062 
L 252.038154 66.766349 
L 252.476213 69.784912 
L 252.914272 68.663732 
L 253.352332 71.164826 
L 253.790391 67.456307 
L 254.22845 65.558924 
L 254.66651 66.59386 
L 255.104569 66.507615 
L 255.542628 68.577487 
L 255.980688 69.00871 
L 256.418747 67.025083 
L 256.856806 68.836221 
L 257.294866 66.248881 
L 257.732925 67.456307 
L 258.170984 65.558924 
L 259.047103 67.456307 
L 259.485163 65.645169 
L 259.923222 66.507615 
L 260.361281 67.628796 
L 260.799341 67.111328 
L 261.2374 69.181199 
L 261.675459 70.474869 
L 262.113519 67.628796 
L 262.551578 66.766349 
L 262.989637 67.197573 
L 263.427697 67.973774 
L 263.865756 65.903903 
L 264.303815 68.577487 
L 264.741875 66.507615 
L 265.179934 67.283817 
L 265.617993 67.111328 
L 266.056053 65.731414 
L 266.494112 66.076392 
L 266.932171 68.491242 
L 268.24635 65.731414 
L 268.684409 68.146264 
L 269.122468 67.628796 
L 269.560528 66.162637 
L 269.998587 63.747787 
L 270.436646 67.111328 
L 270.874706 65.903903 
L 271.312765 66.766349 
L 271.750824 64.351499 
L 272.188884 66.248881 
L 272.626943 64.265255 
L 273.065002 67.88753 
L 273.503062 66.766349 
L 273.941121 67.71504 
L 274.37918 67.456307 
L 274.81724 67.025083 
L 275.255299 66.162637 
L 275.693358 64.955212 
L 276.131418 65.386435 
L 276.569477 67.197573 
L 277.007537 65.990148 
L 277.445596 64.092765 
L 277.883655 63.316564 
L 278.321715 65.30019 
L 278.759774 66.766349 
L 279.197833 65.817658 
L 279.635893 66.59386 
L 280.073952 67.71504 
L 280.512011 66.766349 
L 280.950071 66.852594 
L 281.38813 66.766349 
L 281.826189 64.696478 
L 282.264249 67.542551 
L 282.702308 65.386435 
L 283.140367 65.990148 
L 283.578427 67.283817 
L 284.016486 66.421371 
L 284.454545 67.88753 
L 284.892605 64.523989 
L 285.330664 66.248881 
L 285.768724 66.248881 
L 286.206783 64.351499 
L 286.644842 67.973774 
L 287.082902 65.990148 
L 287.520961 66.852594 
L 287.95902 64.955212 
L 288.39708 66.162637 
L 288.835139 65.731414 
L 289.273198 66.335126 
L 289.711258 64.437744 
L 290.149317 64.782723 
L 290.587376 66.335126 
L 291.025436 65.127701 
L 291.463495 64.868967 
L 291.901554 64.782723 
L 292.339614 65.041456 
L 292.777673 66.162637 
L 293.215732 65.30019 
L 294.091851 64.696478 
L 294.529911 65.903903 
L 294.96797 62.195383 
L 295.406029 65.990148 
L 295.844089 67.025083 
L 296.282148 64.092765 
L 296.720207 65.041456 
L 297.158267 65.47268 
L 297.596326 63.661542 
L 298.034385 67.71504 
L 298.472445 64.006521 
L 298.910504 65.213946 
L 299.348563 64.782723 
L 299.786623 65.213946 
L 300.224682 64.351499 
L 300.662741 66.59386 
L 301.100801 65.558924 
L 301.53886 65.041456 
L 301.976919 65.30019 
L 302.414979 65.903903 
L 302.853038 63.661542 
L 303.291098 65.127701 
L 303.729157 64.696478 
L 304.167216 64.092765 
L 304.605276 64.17901 
L 305.043335 65.041456 
L 305.481394 68.146264 
L 305.919454 65.558924 
L 306.357513 64.782723 
L 306.795572 63.144074 
L 307.233632 65.213946 
L 307.671691 63.834031 
L 308.10975 63.661542 
L 308.54781 66.076392 
L 308.985869 64.955212 
L 309.423928 62.799096 
L 309.861988 64.955212 
L 310.300047 65.558924 
L 310.738106 64.351499 
L 311.176166 65.47268 
L 311.614225 61.936649 
L 312.052285 64.092765 
L 312.490344 64.351499 
L 312.928403 63.144074 
L 313.366463 66.162637 
L 314.242581 64.265255 
L 314.680641 64.782723 
L 315.1187 64.351499 
L 315.556759 65.30019 
L 315.994819 65.731414 
L 316.870937 64.782723 
L 317.308997 66.076392 
L 317.747056 66.59386 
L 318.185115 62.971585 
L 318.623175 63.575297 
L 319.061234 63.402808 
L 319.499293 64.696478 
L 319.937353 64.092765 
L 320.375412 65.731414 
L 320.813472 66.076392 
L 321.251531 62.281628 
L 321.68959 63.834031 
L 322.12765 62.454117 
L 322.565709 64.696478 
L 323.003768 66.335126 
L 323.441828 64.610233 
L 323.879887 64.17901 
L 324.317946 63.230319 
L 324.756006 64.092765 
L 325.632124 66.680105 
L 326.070184 63.920276 
L 326.508243 64.955212 
L 326.946302 63.144074 
L 327.384362 62.88534 
L 327.822421 61.76416 
L 328.69854 64.17901 
L 329.136599 62.88534 
L 329.574659 62.626606 
L 330.012718 62.626606 
L 330.450777 64.868967 
L 330.888837 63.489053 
L 331.326896 64.17901 
L 331.764955 63.747787 
L 332.203015 61.936649 
L 332.641074 65.127701 
L 333.079133 63.575297 
L 333.517193 66.335126 
L 333.955252 62.88534 
L 334.393311 64.006521 
L 334.831371 64.782723 
L 335.26943 64.006521 
L 335.707489 64.265255 
L 336.583608 64.265255 
L 337.021667 64.696478 
L 337.897786 63.230319 
L 338.335846 61.505426 
L 338.773905 62.88534 
L 339.211964 63.747787 
L 339.650024 65.47268 
L 340.088083 61.850405 
L 340.526142 62.281628 
L 340.964202 60.815469 
L 341.402261 63.489053 
L 341.84032 65.30019 
L 342.27838 63.575297 
L 342.716439 61.332937 
L 343.154498 61.246692 
L 343.592558 63.144074 
L 344.030617 65.817658 
L 344.468676 64.782723 
L 344.906736 62.971585 
L 345.344795 63.834031 
L 345.782854 63.489053 
L 346.220914 64.351499 
L 346.658973 62.540362 
L 347.097033 63.575297 
L 347.535092 63.661542 
L 347.973151 65.731414 
L 348.411211 62.281628 
L 348.84927 62.540362 
L 349.287329 64.610233 
L 349.725389 61.074203 
L 350.163448 64.782723 
L 350.601507 62.367872 
L 351.039567 63.05783 
L 351.477626 64.437744 
L 351.915685 63.144074 
L 352.353745 62.281628 
L 352.791804 63.144074 
L 353.229863 62.281628 
L 353.667923 62.971585 
L 354.105982 64.265255 
L 354.544041 61.677915 
L 354.982101 64.265255 
L 355.42016 61.419181 
L 355.85822 63.489053 
L 356.296279 59.694288 
L 356.734338 64.523989 
L 357.172398 62.712851 
L 357.610457 64.868967 
L 358.486576 61.591671 
L 358.924635 64.782723 
L 359.362694 61.591671 
L 360.238813 64.437744 
L 360.676872 63.402808 
L 361.114932 63.834031 
L 361.552991 62.195383 
L 361.99105 61.246692 
L 362.42911 63.230319 
L 362.867169 63.316564 
L 363.305228 62.712851 
L 363.743288 63.316564 
L 364.181347 65.47268 
L 364.619407 62.88534 
L 365.057466 61.505426 
L 365.495525 61.160447 
L 366.371644 63.402808 
L 366.809703 62.88534 
L 367.247763 62.971585 
L 367.685822 63.920276 
L 368.123881 62.367872 
L 368.561941 63.489053 
L 369 65.213946 
L 369.438059 60.729224 
L 369.876119 62.971585 
L 370.314178 62.88534 
L 370.752237 66.766349 
L 371.190297 61.160447 
L 371.628356 61.76416 
L 372.504475 63.575297 
L 372.942534 61.419181 
L 373.380593 62.367872 
L 373.818653 62.712851 
L 374.256712 62.195383 
L 374.694772 62.88534 
L 375.132831 66.076392 
L 376.00895 62.367872 
L 376.447009 62.195383 
L 376.885068 60.901713 
L 377.323128 64.437744 
L 377.761187 63.661542 
L 378.637306 61.246692 
L 379.075365 63.402808 
L 379.513424 60.815469 
L 379.951484 61.677915 
L 380.389543 62.195383 
L 380.827602 62.367872 
L 381.265662 60.125512 
L 381.703721 62.454117 
L 382.14178 61.160447 
L 382.57984 60.47049 
L 383.017899 61.419181 
L 383.455959 62.88534 
L 383.894018 62.626606 
L 384.332077 63.230319 
L 384.770137 61.76416 
L 385.208196 62.109139 
L 385.646255 60.815469 
L 386.084315 61.505426 
L 386.522374 63.316564 
L 386.960433 61.419181 
L 387.398493 62.454117 
L 387.836552 62.109139 
L 388.274611 60.729224 
L 388.712671 62.626606 
L 389.15073 61.850405 
L 389.588789 61.677915 
L 390.026849 61.76416 
L 390.464908 62.540362 
L 390.902967 61.591671 
L 391.341027 63.144074 
L 391.779086 61.936649 
L 392.217146 61.332937 
L 392.655205 62.799096 
L 393.093264 62.454117 
L 393.531324 61.419181 
L 394.407442 64.092765 
L 394.845502 63.661542 
L 395.283561 60.815469 
L 395.72162 60.815469 
L 396.15968 61.936649 
L 396.597739 62.626606 
L 397.035798 65.127701 
L 397.473858 62.712851 
L 397.911917 62.540362 
L 398.349976 62.799096 
L 398.788036 62.626606 
L 399.226095 61.850405 
L 399.664154 64.782723 
L 400.102214 61.160447 
L 400.540273 62.712851 
L 400.978333 62.454117 
L 401.416392 61.936649 
L 401.854451 60.556735 
L 402.292511 62.799096 
L 403.168629 63.05783 
L 403.606689 62.712851 
L 404.044748 61.074203 
L 404.482807 63.05783 
L 404.920867 61.936649 
L 405.358926 58.918087 
L 405.796985 60.125512 
L 406.235045 62.88534 
L 406.673104 60.901713 
L 407.111163 60.729224 
L 407.549223 59.004331 
L 407.987282 61.332937 
L 408.425341 61.160447 
L 408.863401 61.850405 
L 409.30146 62.109139 
L 409.73952 59.608044 
L 410.177579 59.866778 
L 410.615638 61.936649 
L 411.053698 61.936649 
L 411.491757 62.712851 
L 412.367876 60.47049 
L 412.805935 60.987958 
L 413.243994 62.454117 
L 413.682054 60.64298 
L 414.120113 62.454117 
L 414.558172 60.039267 
L 414.996232 61.160447 
L 415.434291 59.521799 
L 415.87235 62.540362 
L 416.31041 61.246692 
L 416.748469 61.591671 
L 417.186528 61.677915 
L 417.624588 60.298001 
L 418.062647 62.281628 
L 418.500707 59.608044 
L 418.938766 60.901713 
L 419.376825 60.556735 
L 419.814885 60.64298 
L 420.252944 60.901713 
L 420.691003 63.316564 
L 421.129063 61.160447 
L 421.567122 59.780533 
L 422.005181 60.039267 
L 422.443241 63.402808 
L 422.8813 62.022894 
L 423.319359 59.34931 
L 423.757419 61.419181 
L 424.195478 60.298001 
L 424.633537 59.780533 
L 425.071597 64.17901 
L 425.509656 60.987958 
L 425.947715 59.521799 
L 426.385775 62.281628 
L 426.823834 64.17901 
L 427.261894 61.505426 
L 427.699953 62.281628 
L 428.138012 61.160447 
L 428.576072 62.195383 
L 429.014131 60.039267 
L 429.45219 59.34931 
L 429.89025 60.298001 
L 430.328309 60.384246 
L 430.766368 60.125512 
L 431.204428 61.591671 
L 431.642487 62.109139 
L 432.080546 60.987958 
L 432.518606 61.677915 
L 432.956665 60.729224 
L 433.394724 61.505426 
L 433.832784 59.780533 
L 434.708902 62.022894 
L 435.146962 57.883151 
L 435.585021 59.521799 
L 436.023081 58.918087 
L 436.46114 60.211756 
L 436.899199 60.211756 
L 437.337259 59.004331 
L 437.775318 59.004331 
L 438.213377 59.780533 
L 438.651437 60.211756 
L 439.089496 61.76416 
L 439.527555 62.281628 
L 439.965615 62.195383 
L 440.403674 61.591671 
L 440.841733 62.195383 
L 441.279793 62.109139 
L 442.155911 59.780533 
L 442.593971 59.866778 
L 443.03203 61.936649 
L 443.470089 59.176821 
L 443.908149 58.314374 
L 444.346208 58.486863 
L 444.784268 61.074203 
L 445.222327 60.47049 
L 446.098446 61.419181 
L 446.536505 59.780533 
L 446.974564 60.815469 
L 447.412624 61.246692 
L 447.850683 60.815469 
L 448.288742 61.419181 
L 448.726802 58.918087 
L 449.164861 61.160447 
L 449.60292 60.815469 
L 450.04098 59.435554 
L 450.479039 59.780533 
L 450.917098 60.901713 
L 451.355158 58.745597 
L 451.793217 61.505426 
L 452.231276 61.160447 
L 452.669336 59.521799 
L 453.107395 60.901713 
L 453.545455 61.677915 
L 453.983514 60.815469 
L 454.421573 60.815469 
L 454.859633 61.074203 
L 455.297692 62.109139 
L 455.735751 62.195383 
L 456.173811 58.918087 
L 456.61187 62.367872 
L 457.049929 61.591671 
L 457.487989 60.298001 
L 457.926048 61.246692 
L 458.364107 61.76416 
L 458.802167 59.694288 
L 459.240226 59.780533 
L 459.678285 60.298001 
L 460.116345 58.918087 
L 460.554404 61.419181 
L 460.992463 62.712851 
L 461.868582 59.953022 
L 462.306642 58.141885 
L 463.18276 61.850405 
L 463.62082 61.332937 
L 464.058879 59.866778 
L 464.496938 61.419181 
L 464.934998 57.883151 
L 465.373057 60.64298 
L 465.811116 60.556735 
L 466.249176 62.109139 
L 466.687235 61.074203 
L 467.125294 61.505426 
L 467.563354 62.454117 
L 468.001413 60.125512 
L 468.439472 60.47049 
L 468.877532 60.556735 
L 469.315591 58.141885 
L 469.75365 61.160447 
L 470.19171 61.332937 
L 470.629769 61.936649 
L 471.505888 59.004331 
L 471.943947 61.332937 
L 472.382007 59.176821 
L 472.820066 59.694288 
L 473.258125 59.176821 
L 473.696185 60.815469 
L 474.134244 58.918087 
L 474.572303 61.850405 
L 475.010363 59.780533 
L 475.448422 61.76416 
L 475.886481 60.384246 
L 476.324541 60.64298 
L 476.7626 59.608044 
L 477.200659 62.109139 
L 477.638719 61.246692 
L 478.076778 61.850405 
L 478.514837 62.712851 
L 478.952897 58.745597 
L 479.390956 59.866778 
L 479.829016 59.090576 
L 480.267075 58.745597 
L 480.705134 61.246692 
L 481.581253 58.745597 
L 482.457372 61.677915 
L 483.33349 59.953022 
L 483.77155 58.400619 
L 484.209609 62.281628 
L 484.647668 59.780533 
L 485.085728 59.176821 
L 485.523787 59.34931 
L 485.961846 61.850405 
L 486.399906 60.211756 
L 486.837965 59.090576 
L 487.276024 58.745597 
L 487.714084 58.745597 
L 488.152143 59.004331 
L 488.590203 59.694288 
L 489.028262 59.608044 
L 489.466321 60.901713 
L 489.904381 58.918087 
L 490.34244 60.211756 
L 490.780499 60.298001 
L 491.218559 61.677915 
L 491.656618 59.435554 
L 492.094677 60.815469 
L 492.970796 60.039267 
L 493.408855 59.176821 
L 493.846915 61.160447 
L 494.284974 58.745597 
L 494.723033 61.074203 
L 495.161093 62.626606 
L 495.599152 59.435554 
L 496.037211 60.298001 
L 496.475271 60.039267 
L 496.91333 61.332937 
L 497.35139 58.400619 
L 497.789449 59.34931 
L 498.227508 60.64298 
L 498.665568 60.987958 
L 499.103627 60.987958 
L 499.541686 58.573108 
L 499.979746 56.848215 
L 500.417805 57.538172 
L 500.855864 59.435554 
L 501.293924 59.435554 
L 501.731983 58.573108 
L 502.170042 58.400619 
L 502.608102 60.556735 
L 503.046161 60.125512 
L 503.48422 60.47049 
L 503.92228 59.435554 
L 504.360339 60.125512 
L 504.798398 61.332937 
L 505.236458 61.850405 
L 505.674517 59.608044 
L 506.112577 62.195383 
L 506.550636 59.263065 
L 506.988695 58.745597 
L 507.426755 59.866778 
L 507.864814 59.866778 
L 508.302873 59.521799 
L 508.740933 57.451928 
L 509.178992 59.090576 
L 509.617051 60.039267 
L 510.055111 59.780533 
L 510.49317 59.694288 
L 510.931229 59.34931 
L 511.369289 57.796906 
L 511.807348 57.279438 
L 512.245407 58.918087 
L 512.683467 58.314374 
L 513.121526 60.384246 
L 513.559585 59.780533 
L 513.997645 58.141885 
L 514.435704 60.64298 
L 514.873764 59.608044 
L 515.311823 62.022894 
L 515.749882 58.745597 
L 516.187942 61.160447 
L 516.626001 61.160447 
L 517.06406 60.384246 
L 517.50212 60.987958 
L 517.940179 58.745597 
L 518.378238 58.659353 
L 518.816298 59.780533 
L 519.254357 60.384246 
L 520.130476 58.400619 
L 520.568535 61.332937 
L 521.006594 57.796906 
L 521.444654 60.47049 
L 521.882713 60.211756 
L 522.320772 58.745597 
L 522.758832 61.332937 
L 523.196891 58.745597 
L 523.634951 60.987958 
L 524.07301 56.848215 
L 524.511069 58.831842 
L 524.949129 59.953022 
L 525.387188 59.34931 
L 525.825247 59.263065 
L 526.263307 59.866778 
L 526.701366 60.125512 
L 527.139425 60.039267 
L 527.577485 58.745597 
L 528.015544 58.486863 
L 528.453603 58.918087 
L 528.891663 58.918087 
L 529.329722 59.608044 
L 529.767781 60.901713 
L 530.205841 56.330747 
L 530.6439 60.125512 
L 531.081959 59.608044 
L 531.520019 59.435554 
L 531.958078 58.05564 
L 532.396138 60.47049 
L 532.834197 60.211756 
L 533.272256 60.47049 
L 533.710316 60.47049 
L 534.148375 60.125512 
L 534.586434 59.176821 
L 535.024494 59.866778 
L 535.462553 57.451928 
L 535.900612 59.780533 
L 536.338672 58.659353 
L 536.776731 60.987958 
L 537.21479 58.745597 
L 537.65285 61.074203 
L 538.090909 58.486863 
L 538.528968 61.850405 
L 538.967028 59.780533 
L 539.405087 60.125512 
L 539.843146 59.694288 
L 540.281206 58.918087 
L 540.719265 59.090576 
L 541.157325 60.901713 
L 541.595384 57.883151 
L 542.033443 61.505426 
L 542.471503 55.554545 
L 542.909562 58.05564 
L 543.347621 59.435554 
L 543.785681 59.34931 
L 544.22374 59.866778 
L 544.661799 59.521799 
L 545.099859 58.400619 
L 545.537918 59.780533 
L 545.975977 61.850405 
L 546.414037 59.263065 
L 547.290155 60.298001 
L 547.728215 59.004331 
L 548.166274 58.228129 
L 548.604333 57.969396 
L 549.042393 59.608044 
L 549.480452 56.93446 
L 549.918512 59.090576 
L 550.356571 57.710662 
L 550.79463 59.004331 
L 551.23269 59.263065 
L 551.670749 59.694288 
L 552.108808 59.780533 
L 552.546868 57.451928 
L 552.984927 61.160447 
L 553.422986 61.936649 
L 554.299105 58.314374 
L 554.737164 59.435554 
L 555.175224 59.694288 
L 555.613283 58.745597 
L 556.051342 60.729224 
L 556.489402 59.521799 
L 556.927461 57.969396 
L 557.36552 58.573108 
L 557.80358 60.039267 
L 558.241639 59.780533 
L 558.679699 57.193194 
L 559.117758 59.004331 
L 559.555817 59.953022 
L 559.993877 59.953022 
L 560.431936 58.400619 
L 560.869995 59.435554 
L 561.308055 59.176821 
L 561.746114 57.538172 
L 562.184173 58.314374 
L 562.622233 60.47049 
L 563.060292 58.400619 
L 563.498351 58.745597 
L 563.936411 58.05564 
L 564.37447 57.883151 
L 564.812529 57.969396 
L 565.250589 58.228129 
L 565.688648 59.090576 
L 566.126707 58.228129 
L 566.564767 59.435554 
L 567.002826 57.969396 
L 567.440886 58.314374 
L 567.878945 59.004331 
L 568.317004 57.193194 
L 568.755064 57.538172 
L 569.193123 59.090576 
L 569.631182 58.659353 
L 570.069242 57.796906 
L 570.507301 58.573108 
L 570.94536 57.538172 
L 571.38342 59.866778 
L 571.821479 57.624417 
L 572.259538 60.384246 
L 572.697598 57.710662 
L 573.135657 58.745597 
L 573.573716 58.745597 
L 574.011776 57.796906 
L 574.449835 57.796906 
L 574.887894 60.211756 
L 575.325954 58.05564 
L 575.764013 57.451928 
L 576.202073 59.521799 
L 576.640132 57.883151 
L 577.078191 57.796906 
L 577.516251 57.969396 
L 577.95431 59.004331 
L 578.392369 59.435554 
L 578.830429 59.090576 
L 579.268488 59.694288 
L 579.706547 59.176821 
L 580.144607 59.521799 
L 580.582666 58.831842 
L 581.020725 59.004331 
L 581.458785 57.193194 
L 582.334903 59.694288 
L 582.772963 58.400619 
L 583.211022 60.556735 
L 583.649081 60.384246 
L 584.087141 58.573108 
L 584.5252 61.419181 
L 584.96326 58.486863 
L 585.401319 59.780533 
L 585.839378 56.76197 
L 586.277438 60.815469 
L 586.715497 57.451928 
L 587.153556 59.521799 
L 587.591616 57.969396 
L 588.029675 58.314374 
L 588.467734 60.039267 
L 588.905794 58.486863 
L 589.343853 57.796906 
L 589.781912 58.918087 
L 590.219972 58.918087 
L 590.658031 58.400619 
L 591.09609 60.384246 
L 591.972209 58.745597 
L 592.410268 58.400619 
L 592.848328 58.573108 
L 593.286387 59.004331 
L 593.724447 58.573108 
L 595.038625 59.521799 
L 595.476684 57.020704 
L 595.914743 57.710662 
L 596.352803 56.93446 
L 596.790862 57.279438 
L 597.228921 58.745597 
L 597.666981 56.503237 
L 598.10504 58.659353 
L 598.981159 59.780533 
L 599.857277 60.384246 
L 600.295337 58.745597 
L 600.733396 58.745597 
L 601.171455 59.866778 
L 601.609515 59.435554 
L 602.047574 59.34931 
L 602.485634 57.279438 
L 602.923693 59.694288 
L 603.361752 59.34931 
L 603.799812 59.34931 
L 604.237871 59.004331 
L 604.67593 57.624417 
L 605.11399 57.969396 
L 605.552049 58.659353 
L 605.990108 57.365683 
L 606.866227 59.866778 
L 607.304286 57.538172 
L 607.742346 58.400619 
L 608.180405 57.279438 
L 608.618464 58.141885 
L 609.056524 57.538172 
L 609.494583 60.298001 
L 609.932642 57.451928 
L 610.808761 60.298001 
L 611.68488 56.675726 
L 612.122939 57.538172 
L 612.560999 57.969396 
L 612.999058 57.106949 
L 613.875177 59.34931 
L 614.313236 57.969396 
L 614.751295 59.090576 
L 615.189355 58.831842 
L 615.627414 57.451928 
L 616.065473 59.694288 
L 616.503533 58.918087 
L 616.941592 59.263065 
L 617.379651 58.141885 
L 617.817711 59.176821 
L 618.25577 58.228129 
L 618.693829 58.918087 
L 619.131889 58.486863 
L 619.569948 59.953022 
L 620.008008 60.729224 
L 620.446067 58.400619 
L 620.884126 57.193194 
L 621.322186 57.710662 
L 621.760245 57.624417 
L 622.198304 59.176821 
L 622.636364 58.659353 
L 622.636364 58.659353 
" style="fill:none;stroke:#1f77b4;stroke-linecap:square;stroke-width:0.5;"/>
   </g>
   <g id="line2d_30">
    <path clip-path="url(#p6cacb7e522)" d="M 115.363636 297.988244 
L 115.801696 297.643265 
L 116.239755 298.85069 
L 116.677814 302.645455 
L 117.115874 299.885626 
L 117.553933 299.454403 
L 117.991992 295.918372 
L 118.430052 294.538458 
L 118.868111 298.419467 
L 119.306171 299.281913 
L 119.74423 297.55702 
L 120.182289 296.522085 
L 120.620349 298.678201 
L 121.058408 294.193479 
L 121.496467 291.60614 
L 121.934527 293.331033 
L 122.372586 288.760067 
L 122.810645 291.951119 
L 123.248705 292.382342 
L 124.562883 282.981675 
L 125.000942 283.326654 
L 125.439001 280.394336 
L 125.877061 282.205474 
L 126.31512 274.184722 
L 126.753179 274.443455 
L 127.191239 269.613755 
L 127.629298 271.856116 
L 128.067358 266.250214 
L 129.381536 257.711994 
L 129.819595 257.194526 
L 130.257654 252.019848 
L 130.695714 252.364826 
L 131.133773 245.292765 
L 131.571832 244.775297 
L 132.009892 233.908472 
L 132.447951 234.167206 
L 132.88601 228.561304 
L 133.32407 227.095145 
L 133.762129 216.659543 
L 134.200188 216.22832 
L 134.638248 210.10495 
L 135.514366 203.636602 
L 136.390485 193.287244 
L 136.828545 194.063446 
L 137.266604 187.681342 
L 137.704663 183.541599 
L 138.142723 177.24574 
L 139.018841 168.793765 
L 139.456901 164.050309 
L 139.89496 160.773013 
L 140.333019 158.616897 
L 140.771079 159.393099 
L 141.209138 153.097239 
L 141.647197 150.078677 
L 142.085257 152.148548 
L 142.523316 151.63108 
L 142.961375 142.489148 
L 143.399435 146.456402 
L 143.837494 143.006616 
L 144.275553 145.162732 
L 144.713613 137.486959 
L 145.151672 136.538267 
L 145.589732 137.228225 
L 146.027791 136.365778 
L 146.90391 132.31228 
L 147.341969 132.829748 
L 147.780028 129.121228 
L 148.656147 126.620133 
L 149.094206 129.983674 
L 149.532266 124.89524 
L 149.970325 122.65288 
L 150.408384 126.275155 
L 150.846444 119.634317 
L 151.284503 119.634317 
L 151.722562 118.685626 
L 152.160622 121.962922 
L 152.598681 118.685626 
L 153.03674 116.874488 
L 153.4748 118.168158 
L 153.912859 115.839553 
L 154.350919 112.217277 
L 154.788978 113.252213 
L 155.227037 111.786054 
L 155.665097 107.301333 
L 156.103156 111.354831 
L 156.541215 106.69762 
L 157.417334 106.007663 
L 157.855393 109.198715 
L 158.293453 105.145217 
L 158.731512 102.644122 
L 159.169571 104.541504 
L 159.607631 101.005474 
L 160.04569 98.504379 
L 160.483749 100.660495 
L 160.921809 102.040409 
L 161.359868 97.728177 
L 161.797927 99.021847 
L 162.235987 97.383198 
L 162.674046 96.779486 
L 163.112106 100.919229 
L 163.550165 96.348263 
L 163.988224 95.054593 
L 164.426284 94.450881 
L 165.302402 90.397382 
L 165.740462 92.20852 
L 166.178521 92.381009 
L 166.61658 92.898477 
L 167.05464 90.138648 
L 167.492699 91.001095 
L 167.930758 90.656116 
L 168.368818 89.707425 
L 168.806877 88.241266 
L 169.244936 91.087339 
L 169.682996 90.138648 
L 170.121055 87.120086 
L 170.559114 85.653927 
L 170.997174 88.155021 
L 171.435233 86.516373 
L 171.873293 88.413755 
L 172.749411 84.618991 
L 173.62553 86.343884 
L 174.063589 83.842789 
L 174.501649 85.653927 
L 174.939708 85.653927 
L 175.377767 84.532746 
L 176.253886 81.514184 
L 176.691945 83.584055 
L 177.130005 82.462875 
L 177.568064 81.686673 
L 178.444183 81.169205 
L 178.882242 80.220514 
L 179.320301 82.635364 
L 179.758361 84.360257 
L 180.19642 79.530557 
L 180.63448 80.134269 
L 181.072539 79.444312 
L 181.510598 79.099334 
L 181.948658 77.201951 
L 182.386717 77.374441 
L 182.824776 77.891909 
L 183.262836 80.220514 
L 183.700895 77.891909 
L 184.138954 76.770728 
L 184.577014 78.236887 
L 185.015073 75.994526 
L 185.453132 78.66811 
L 185.891192 76.167016 
L 186.329251 77.374441 
L 186.76731 77.54693 
L 187.20537 78.409376 
L 187.643429 74.614612 
L 188.081488 76.167016 
L 188.519548 78.581866 
L 188.957607 77.633175 
L 189.395667 78.926844 
L 189.833726 78.495621 
L 190.271785 75.390814 
L 190.709845 73.752166 
L 191.147904 75.218325 
L 191.585963 72.113517 
L 192.024023 78.323132 
L 192.462082 74.0109 
L 192.900141 75.735792 
L 193.77626 73.83841 
L 194.214319 73.83841 
L 194.652379 73.062208 
L 195.528497 75.477059 
L 195.966557 77.201951 
L 196.404616 73.062208 
L 196.842675 72.630985 
L 197.280735 72.458496 
L 197.718794 73.407187 
L 198.156854 72.027273 
L 198.594913 74.0109 
L 199.032972 73.83841 
L 199.471032 73.407187 
L 199.909091 69.00871 
L 200.34715 71.509805 
L 200.78521 70.129891 
L 201.223269 72.544741 
L 201.661328 72.975964 
L 202.099388 74.614612 
L 202.537447 73.148453 
L 202.975506 72.199762 
L 203.413566 72.630985 
L 203.851625 70.992337 
L 204.289684 71.251071 
L 204.727744 71.251071 
L 205.165803 71.078582 
L 205.603862 73.83841 
L 206.041922 72.113517 
L 206.479981 73.924655 
L 206.918041 71.682294 
L 207.3561 72.027273 
L 207.794159 69.267444 
L 208.232219 70.388624 
L 208.670278 70.30238 
L 209.108337 68.663732 
L 209.546397 70.043646 
L 209.984456 68.663732 
L 210.422515 71.941028 
L 210.860575 71.251071 
L 211.298634 74.528367 
L 211.736693 70.30238 
L 212.174753 69.526178 
L 212.612812 72.630985 
L 213.050871 69.526178 
L 213.92699 71.768539 
L 214.365049 68.922465 
L 214.803109 70.733603 
L 215.241168 69.526178 
L 215.679228 69.181199 
L 216.117287 69.181199 
L 216.555346 67.456307 
L 216.993406 67.628796 
L 217.431465 71.164826 
L 217.869524 67.456307 
L 218.745643 68.404998 
L 219.183702 69.698667 
L 219.621762 69.267444 
L 220.059821 68.404998 
L 220.49788 68.749976 
L 220.93594 69.698667 
L 221.373999 68.749976 
L 221.812058 69.00871 
L 222.688177 68.232508 
L 223.126236 66.852594 
L 223.564296 66.421371 
L 224.002355 69.957401 
L 224.440415 68.663732 
L 224.878474 67.88753 
L 225.316533 66.335126 
L 226.192652 68.318753 
L 226.630711 66.076392 
L 227.068771 66.335126 
L 227.50683 65.731414 
L 227.944889 67.628796 
L 228.382949 66.938839 
L 228.821008 69.00871 
L 229.259067 69.957401 
L 229.697127 66.852594 
L 230.135186 66.938839 
L 230.573245 65.386435 
L 231.011305 65.30019 
L 231.449364 68.404998 
L 231.887423 67.111328 
L 232.325483 67.71504 
L 232.763542 69.439933 
L 233.201602 67.801285 
L 233.639661 67.628796 
L 234.07772 64.696478 
L 234.953839 68.749976 
L 235.391898 66.766349 
L 235.829958 68.318753 
L 236.268017 66.680105 
L 236.706076 68.836221 
L 237.144136 67.88753 
L 237.582195 67.370062 
L 238.020254 68.232508 
L 238.458314 65.990148 
L 238.896373 65.47268 
L 239.334432 67.370062 
L 239.772492 67.628796 
L 240.210551 66.335126 
L 240.64861 66.076392 
L 241.08667 66.766349 
L 241.524729 66.248881 
L 241.962789 66.335126 
L 242.400848 68.404998 
L 242.838907 64.868967 
L 243.276967 65.990148 
L 243.715026 66.248881 
L 244.153085 64.782723 
L 244.591145 64.006521 
L 245.029204 64.782723 
L 245.467263 64.696478 
L 245.905323 63.316564 
L 246.343382 67.111328 
L 246.781441 64.523989 
L 247.219501 63.575297 
L 247.65756 67.283817 
L 248.095619 66.766349 
L 248.533679 65.903903 
L 248.971738 66.680105 
L 249.409797 65.041456 
L 249.847857 66.680105 
L 250.285916 65.386435 
L 250.723976 65.558924 
L 251.162035 65.558924 
L 251.600094 64.437744 
L 252.038154 63.661542 
L 252.914272 65.47268 
L 253.352332 65.731414 
L 253.790391 67.801285 
L 254.22845 66.421371 
L 254.66651 66.421371 
L 255.542628 62.971585 
L 255.980688 66.162637 
L 256.418747 64.868967 
L 256.856806 65.817658 
L 257.294866 64.782723 
L 257.732925 65.731414 
L 258.170984 65.731414 
L 258.609044 65.558924 
L 259.047103 66.766349 
L 259.485163 63.489053 
L 259.923222 64.523989 
L 260.361281 66.421371 
L 260.799341 64.351499 
L 261.2374 66.248881 
L 261.675459 63.05783 
L 262.113519 61.850405 
L 262.551578 65.558924 
L 262.989637 64.265255 
L 263.427697 65.47268 
L 263.865756 62.626606 
L 264.303815 63.05783 
L 264.741875 64.092765 
L 265.179934 64.265255 
L 265.617993 63.834031 
L 266.056053 63.747787 
L 266.494112 64.17901 
L 266.932171 63.575297 
L 267.370231 66.421371 
L 268.24635 63.230319 
L 268.684409 64.437744 
L 269.122468 65.213946 
L 269.560528 63.661542 
L 269.998587 63.402808 
L 270.436646 61.246692 
L 270.874706 65.041456 
L 271.312765 64.17901 
L 272.188884 64.955212 
L 272.626943 62.454117 
L 273.503062 65.30019 
L 273.941121 64.610233 
L 274.37918 69.267444 
L 274.81724 62.540362 
L 275.255299 63.747787 
L 275.693358 64.265255 
L 276.131418 64.17901 
L 277.007537 65.127701 
L 277.883655 62.88534 
L 278.321715 63.661542 
L 278.759774 63.316564 
L 279.197833 63.920276 
L 279.635893 62.799096 
L 280.073952 64.006521 
L 280.512011 63.661542 
L 280.950071 64.006521 
L 281.38813 66.162637 
L 281.826189 63.316564 
L 282.264249 62.712851 
L 283.140367 63.489053 
L 283.578427 64.868967 
L 284.016486 63.05783 
L 284.454545 63.834031 
L 284.892605 63.230319 
L 285.330664 64.868967 
L 285.768724 64.523989 
L 286.206783 63.575297 
L 286.644842 65.558924 
L 287.082902 65.903903 
L 287.520961 66.59386 
L 287.95902 62.971585 
L 288.39708 63.402808 
L 288.835139 63.316564 
L 289.273198 60.211756 
L 289.711258 63.05783 
L 290.149317 64.782723 
L 290.587376 64.092765 
L 291.025436 64.610233 
L 291.463495 64.265255 
L 291.901554 61.332937 
L 292.777673 64.868967 
L 293.215732 63.661542 
L 293.653792 63.747787 
L 294.091851 61.591671 
L 294.96797 64.868967 
L 295.406029 63.661542 
L 295.844089 65.127701 
L 296.282148 63.230319 
L 296.720207 62.971585 
L 297.158267 63.489053 
L 297.596326 64.437744 
L 298.034385 63.230319 
L 298.472445 64.782723 
L 298.910504 63.144074 
L 299.348563 63.834031 
L 299.786623 62.626606 
L 300.224682 64.092765 
L 300.662741 63.316564 
L 301.100801 64.265255 
L 301.53886 61.246692 
L 301.976919 64.006521 
L 302.414979 64.523989 
L 302.853038 63.05783 
L 303.291098 63.144074 
L 303.729157 62.195383 
L 304.167216 61.677915 
L 304.605276 64.610233 
L 305.043335 62.367872 
L 305.481394 62.540362 
L 305.919454 64.523989 
L 306.357513 62.626606 
L 306.795572 63.489053 
L 307.233632 63.144074 
L 307.671691 61.677915 
L 308.10975 61.419181 
L 308.54781 63.402808 
L 308.985869 63.144074 
L 309.423928 64.610233 
L 309.861988 62.626606 
L 310.300047 62.195383 
L 310.738106 61.332937 
L 311.176166 62.281628 
L 311.614225 61.76416 
L 312.052285 62.712851 
L 312.490344 61.591671 
L 312.928403 62.367872 
L 313.366463 63.920276 
L 313.804522 61.332937 
L 314.242581 63.316564 
L 314.680641 64.092765 
L 315.1187 62.195383 
L 315.556759 61.936649 
L 315.994819 61.246692 
L 316.432878 62.454117 
L 316.870937 61.246692 
L 317.308997 61.677915 
L 317.747056 63.316564 
L 318.623175 60.987958 
L 319.061234 61.160447 
L 319.499293 64.610233 
L 319.937353 61.850405 
L 320.375412 61.591671 
L 321.251531 63.144074 
L 321.68959 63.661542 
L 322.12765 59.953022 
L 322.565709 60.729224 
L 323.003768 63.144074 
L 323.441828 64.092765 
L 323.879887 61.246692 
L 324.317946 61.677915 
L 324.756006 60.64298 
L 325.194065 61.160447 
L 325.632124 62.454117 
L 326.070184 61.332937 
L 326.946302 60.039267 
L 327.384362 61.936649 
L 327.822421 60.47049 
L 328.26048 63.230319 
L 328.69854 61.074203 
L 329.136599 61.160447 
L 329.574659 61.76416 
L 330.012718 63.489053 
L 330.450777 61.591671 
L 330.888837 63.316564 
L 331.326896 61.074203 
L 332.203015 60.64298 
L 332.641074 61.419181 
L 333.079133 61.591671 
L 333.517193 60.211756 
L 333.955252 63.05783 
L 334.393311 60.901713 
L 334.831371 62.195383 
L 335.26943 62.022894 
L 335.707489 60.815469 
L 336.145549 60.556735 
L 336.583608 61.677915 
L 337.459727 61.591671 
L 337.897786 62.626606 
L 338.335846 61.505426 
L 338.773905 62.367872 
L 339.211964 62.88534 
L 339.650024 62.281628 
L 340.088083 61.074203 
L 340.526142 62.109139 
L 340.964202 61.936649 
L 341.402261 62.022894 
L 341.84032 63.575297 
L 342.27838 60.125512 
L 342.716439 60.556735 
L 343.154498 61.419181 
L 343.592558 60.64298 
L 344.030617 60.384246 
L 344.468676 63.489053 
L 344.906736 63.230319 
L 345.344795 60.901713 
L 345.782854 60.64298 
L 346.220914 60.815469 
L 346.658973 60.64298 
L 347.097033 62.109139 
L 347.535092 59.435554 
L 347.973151 60.987958 
L 348.411211 61.936649 
L 348.84927 62.022894 
L 349.287329 62.799096 
L 349.725389 64.437744 
L 350.163448 61.074203 
L 350.601507 60.901713 
L 351.039567 59.521799 
L 351.477626 59.953022 
L 351.915685 62.88534 
L 352.353745 61.074203 
L 352.791804 60.64298 
L 353.229863 60.384246 
L 353.667923 61.505426 
L 354.105982 60.729224 
L 354.544041 61.332937 
L 355.42016 59.004331 
L 355.85822 60.901713 
L 356.296279 59.694288 
L 356.734338 62.195383 
L 357.172398 61.074203 
L 357.610457 61.332937 
L 358.048516 61.246692 
L 358.486576 61.332937 
L 358.924635 59.780533 
L 359.362694 60.556735 
L 359.800754 62.195383 
L 360.238813 62.022894 
L 360.676872 60.384246 
L 361.114932 61.591671 
L 361.552991 60.125512 
L 361.99105 61.76416 
L 362.42911 59.953022 
L 362.867169 59.694288 
L 363.305228 60.039267 
L 363.743288 60.64298 
L 364.181347 62.367872 
L 364.619407 59.866778 
L 365.057466 60.47049 
L 365.495525 58.573108 
L 365.933585 63.575297 
L 366.371644 61.936649 
L 366.809703 62.281628 
L 367.247763 61.246692 
L 367.685822 59.608044 
L 368.123881 61.936649 
L 368.561941 61.677915 
L 369 61.591671 
L 369.438059 60.47049 
L 369.876119 60.815469 
L 370.314178 60.64298 
L 370.752237 61.677915 
L 371.190297 60.47049 
L 371.628356 61.246692 
L 372.066415 60.298001 
L 372.942534 60.901713 
L 373.380593 61.419181 
L 373.818653 61.160447 
L 374.256712 60.384246 
L 375.132831 61.332937 
L 375.57089 60.47049 
L 376.447009 60.901713 
L 376.885068 60.298001 
L 377.323128 62.022894 
L 377.761187 60.556735 
L 378.199246 60.987958 
L 378.637306 59.263065 
L 379.075365 60.384246 
L 379.513424 61.074203 
L 380.389543 60.64298 
L 380.827602 61.936649 
L 381.265662 62.281628 
L 381.703721 61.76416 
L 382.14178 60.64298 
L 382.57984 62.540362 
L 383.017899 61.419181 
L 383.894018 58.745597 
L 384.332077 60.815469 
L 384.770137 60.384246 
L 385.208196 61.160447 
L 385.646255 61.332937 
L 386.522374 59.953022 
L 386.960433 61.160447 
L 387.398493 61.677915 
L 387.836552 61.76416 
L 388.274611 59.953022 
L 389.15073 60.384246 
L 389.588789 60.64298 
L 390.026849 61.160447 
L 390.464908 61.074203 
L 390.902967 58.831842 
L 391.341027 62.454117 
L 391.779086 60.125512 
L 392.217146 62.540362 
L 392.655205 61.332937 
L 393.531324 60.901713 
L 393.969383 59.953022 
L 394.407442 59.694288 
L 394.845502 60.729224 
L 395.283561 58.141885 
L 395.72162 61.160447 
L 396.15968 59.866778 
L 396.597739 60.729224 
L 397.035798 61.936649 
L 397.473858 61.160447 
L 397.911917 59.780533 
L 398.788036 59.953022 
L 399.226095 60.815469 
L 399.664154 62.799096 
L 400.102214 62.971585 
L 400.540273 61.419181 
L 400.978333 60.298001 
L 401.416392 60.729224 
L 401.854451 59.435554 
L 402.292511 61.76416 
L 402.73057 61.677915 
L 403.168629 61.76416 
L 404.044748 60.384246 
L 404.482807 61.246692 
L 404.920867 61.246692 
L 405.358926 61.936649 
L 406.235045 58.659353 
L 406.673104 59.004331 
L 407.111163 60.125512 
L 407.549223 60.64298 
L 407.987282 59.176821 
L 408.425341 60.384246 
L 408.863401 59.694288 
L 409.30146 60.901713 
L 409.73952 59.176821 
L 410.177579 60.211756 
L 410.615638 58.400619 
L 411.491757 60.384246 
L 411.929816 59.176821 
L 412.367876 58.486863 
L 412.805935 60.384246 
L 413.243994 57.883151 
L 413.682054 60.901713 
L 414.120113 58.573108 
L 414.558172 60.384246 
L 414.996232 60.64298 
L 415.434291 59.780533 
L 416.31041 60.125512 
L 416.748469 62.022894 
L 417.186528 60.987958 
L 417.624588 60.815469 
L 418.062647 60.125512 
L 418.500707 60.64298 
L 418.938766 60.039267 
L 419.376825 60.47049 
L 419.814885 58.400619 
L 420.252944 60.039267 
L 420.691003 60.815469 
L 421.129063 61.074203 
L 421.567122 63.144074 
L 422.005181 59.435554 
L 422.443241 58.745597 
L 422.8813 59.004331 
L 423.319359 60.298001 
L 423.757419 59.866778 
L 424.195478 59.004331 
L 424.633537 61.936649 
L 425.071597 61.419181 
L 425.947715 59.608044 
L 426.385775 60.47049 
L 426.823834 58.573108 
L 427.261894 61.677915 
L 427.699953 60.64298 
L 428.138012 60.987958 
L 428.576072 59.090576 
L 429.014131 59.953022 
L 429.45219 60.211756 
L 429.89025 60.211756 
L 430.328309 58.659353 
L 430.766368 59.953022 
L 431.204428 60.039267 
L 431.642487 58.486863 
L 432.080546 61.074203 
L 432.956665 61.160447 
L 433.832784 59.780533 
L 434.270843 59.608044 
L 434.708902 59.608044 
L 435.146962 59.780533 
L 435.585021 61.246692 
L 436.46114 59.34931 
L 436.899199 58.745597 
L 437.775318 59.780533 
L 438.213377 59.608044 
L 438.651437 60.211756 
L 439.089496 61.76416 
L 439.527555 59.694288 
L 439.965615 60.039267 
L 440.403674 60.556735 
L 440.841733 59.780533 
L 441.279793 60.211756 
L 442.155911 60.556735 
L 442.593971 60.384246 
L 443.03203 59.090576 
L 443.470089 60.556735 
L 443.908149 58.659353 
L 444.346208 59.435554 
L 444.784268 58.745597 
L 445.222327 61.074203 
L 445.660386 60.039267 
L 446.098446 58.573108 
L 446.536505 60.384246 
L 446.974564 59.694288 
L 447.412624 59.521799 
L 447.850683 60.987958 
L 448.288742 60.47049 
L 448.726802 59.521799 
L 449.164861 59.435554 
L 449.60292 60.039267 
L 450.479039 62.367872 
L 450.917098 59.866778 
L 451.355158 61.332937 
L 451.793217 59.521799 
L 452.231276 59.608044 
L 452.669336 61.76416 
L 453.107395 60.901713 
L 453.545455 61.677915 
L 453.983514 61.505426 
L 454.421573 60.384246 
L 454.859633 59.953022 
L 455.297692 60.729224 
L 455.735751 60.901713 
L 456.173811 59.780533 
L 456.61187 62.109139 
L 457.049929 60.64298 
L 457.487989 60.901713 
L 457.926048 58.831842 
L 458.364107 59.608044 
L 458.802167 58.05564 
L 459.240226 58.745597 
L 459.678285 59.694288 
L 460.116345 57.710662 
L 460.554404 59.176821 
L 460.992463 58.573108 
L 461.430523 59.953022 
L 461.868582 59.953022 
L 462.306642 59.263065 
L 462.744701 59.953022 
L 463.18276 60.039267 
L 463.62082 59.521799 
L 464.058879 60.729224 
L 464.496938 59.608044 
L 464.934998 59.953022 
L 465.373057 58.400619 
L 465.811116 59.176821 
L 466.249176 59.694288 
L 466.687235 59.004331 
L 467.125294 60.298001 
L 467.563354 60.987958 
L 468.001413 57.883151 
L 468.877532 60.64298 
L 469.315591 58.486863 
L 470.19171 60.298001 
L 471.067829 59.866778 
L 471.505888 60.125512 
L 471.943947 58.831842 
L 472.382007 58.745597 
L 472.820066 60.901713 
L 473.258125 58.918087 
L 473.696185 59.090576 
L 474.134244 60.125512 
L 474.572303 58.573108 
L 475.010363 59.521799 
L 475.448422 59.866778 
L 475.886481 60.384246 
L 476.324541 60.211756 
L 476.7626 61.677915 
L 477.200659 59.004331 
L 477.638719 59.176821 
L 478.076778 58.659353 
L 478.514837 60.47049 
L 478.952897 61.332937 
L 479.390956 59.780533 
L 479.829016 58.831842 
L 480.267075 59.953022 
L 481.581253 60.47049 
L 482.019312 58.486863 
L 482.457372 59.263065 
L 482.895431 60.298001 
L 483.33349 58.918087 
L 483.77155 59.953022 
L 484.209609 59.34931 
L 484.647668 60.47049 
L 485.085728 60.729224 
L 485.523787 62.109139 
L 485.961846 59.608044 
L 486.399906 58.400619 
L 486.837965 57.969396 
L 487.276024 59.694288 
L 487.714084 59.090576 
L 488.152143 60.039267 
L 488.590203 59.004331 
L 489.466321 60.556735 
L 489.904381 59.608044 
L 490.780499 59.176821 
L 491.218559 59.953022 
L 491.656618 61.074203 
L 492.094677 59.090576 
L 492.532737 59.953022 
L 492.970796 58.659353 
L 493.408855 60.211756 
L 493.846915 58.918087 
L 494.284974 59.004331 
L 494.723033 60.47049 
L 495.161093 60.211756 
L 495.599152 58.918087 
L 496.037211 58.05564 
L 496.475271 58.659353 
L 496.91333 59.694288 
L 497.35139 59.780533 
L 497.789449 59.090576 
L 498.227508 59.521799 
L 498.665568 59.780533 
L 499.103627 59.780533 
L 499.541686 57.710662 
L 500.417805 59.608044 
L 500.855864 59.435554 
L 501.293924 58.228129 
L 501.731983 59.435554 
L 502.170042 59.953022 
L 502.608102 58.05564 
L 503.046161 58.228129 
L 503.48422 59.866778 
L 503.92228 58.400619 
L 504.360339 60.384246 
L 504.798398 59.263065 
L 505.236458 60.039267 
L 505.674517 59.694288 
L 506.112577 61.332937 
L 506.550636 60.64298 
L 506.988695 60.64298 
L 507.426755 59.34931 
L 507.864814 57.624417 
L 508.302873 58.918087 
L 508.740933 59.521799 
L 509.178992 58.573108 
L 509.617051 60.815469 
L 510.055111 61.677915 
L 510.49317 60.125512 
L 510.931229 59.435554 
L 511.369289 57.969396 
L 511.807348 59.34931 
L 512.683467 60.298001 
L 513.121526 58.573108 
L 513.559585 57.796906 
L 513.997645 59.694288 
L 514.435704 60.125512 
L 514.873764 59.004331 
L 515.311823 61.332937 
L 515.749882 60.039267 
L 516.187942 60.47049 
L 516.626001 61.160447 
L 517.06406 58.831842 
L 517.50212 59.694288 
L 517.940179 58.486863 
L 518.378238 59.608044 
L 518.816298 59.004331 
L 519.254357 60.211756 
L 519.692416 59.780533 
L 520.130476 61.246692 
L 520.568535 60.47049 
L 521.006594 57.796906 
L 521.444654 60.298001 
L 521.882713 58.314374 
L 522.320772 59.090576 
L 522.758832 60.125512 
L 523.196891 59.694288 
L 523.634951 60.125512 
L 524.07301 59.004331 
L 524.511069 59.521799 
L 525.387188 59.004331 
L 525.825247 58.486863 
L 526.263307 60.729224 
L 526.701366 59.521799 
L 527.139425 57.624417 
L 527.577485 59.263065 
L 528.015544 60.125512 
L 528.453603 59.780533 
L 528.891663 59.090576 
L 529.329722 59.608044 
L 529.767781 58.831842 
L 530.205841 58.400619 
L 530.6439 58.573108 
L 531.081959 59.694288 
L 531.520019 58.05564 
L 531.958078 57.451928 
L 532.396138 59.953022 
L 532.834197 59.608044 
L 533.272256 59.521799 
L 533.710316 59.866778 
L 534.148375 60.729224 
L 534.586434 58.141885 
L 535.024494 60.901713 
L 535.462553 60.298001 
L 535.900612 58.659353 
L 536.338672 59.004331 
L 536.776731 60.47049 
L 537.21479 59.694288 
L 537.65285 60.729224 
L 538.090909 60.729224 
L 538.528968 59.608044 
L 538.967028 60.729224 
L 539.405087 60.384246 
L 539.843146 60.211756 
L 540.281206 61.76416 
L 540.719265 60.64298 
L 541.157325 60.47049 
L 541.595384 61.246692 
L 542.033443 58.400619 
L 542.471503 60.384246 
L 542.909562 59.263065 
L 543.347621 59.090576 
L 543.785681 59.953022 
L 544.22374 59.780533 
L 544.661799 60.039267 
L 545.099859 59.435554 
L 545.537918 58.314374 
L 545.975977 58.400619 
L 546.414037 60.47049 
L 546.852096 58.573108 
L 547.290155 60.64298 
L 547.728215 57.969396 
L 548.166274 59.34931 
L 548.604333 58.918087 
L 549.042393 58.745597 
L 549.480452 59.866778 
L 549.918512 58.314374 
L 550.356571 58.141885 
L 550.79463 60.211756 
L 551.23269 60.815469 
L 551.670749 60.64298 
L 552.984927 59.004331 
L 553.422986 60.384246 
L 553.861046 58.918087 
L 554.299105 60.211756 
L 554.737164 59.780533 
L 555.613283 60.298001 
L 556.051342 57.969396 
L 556.489402 57.969396 
L 556.927461 60.987958 
L 557.36552 58.141885 
L 557.80358 58.141885 
L 558.241639 59.780533 
L 558.679699 58.659353 
L 559.117758 60.298001 
L 559.555817 58.314374 
L 559.993877 59.263065 
L 560.431936 58.400619 
L 560.869995 59.34931 
L 561.308055 58.05564 
L 561.746114 60.384246 
L 562.184173 60.384246 
L 563.060292 58.314374 
L 563.498351 57.796906 
L 563.936411 58.314374 
L 564.37447 59.866778 
L 564.812529 58.228129 
L 565.688648 59.004331 
L 566.564767 57.969396 
L 567.002826 59.435554 
L 567.440886 59.953022 
L 567.878945 60.039267 
L 568.317004 60.384246 
L 568.755064 58.918087 
L 569.193123 59.34931 
L 569.631182 61.160447 
L 570.507301 59.521799 
L 570.94536 59.34931 
L 571.38342 59.608044 
L 571.821479 59.090576 
L 572.259538 58.05564 
L 572.697598 59.263065 
L 573.573716 58.486863 
L 574.011776 59.608044 
L 574.449835 58.141885 
L 574.887894 58.400619 
L 575.325954 60.125512 
L 575.764013 58.918087 
L 576.202073 59.953022 
L 576.640132 57.710662 
L 577.078191 58.659353 
L 577.516251 58.831842 
L 577.95431 62.109139 
L 578.392369 60.987958 
L 578.830429 59.176821 
L 579.268488 58.573108 
L 579.706547 59.608044 
L 580.144607 59.263065 
L 580.582666 57.538172 
L 581.020725 60.47049 
L 581.458785 58.831842 
L 581.896844 59.521799 
L 582.772963 57.710662 
L 583.211022 58.486863 
L 583.649081 57.365683 
L 584.96326 60.384246 
L 585.401319 56.244503 
L 585.839378 58.486863 
L 586.277438 57.710662 
L 586.715497 59.004331 
L 587.153556 58.228129 
L 588.029675 60.556735 
L 588.467734 60.987958 
L 588.905794 59.866778 
L 589.343853 59.866778 
L 589.781912 60.125512 
L 590.219972 59.780533 
L 590.658031 59.090576 
L 591.09609 60.64298 
L 591.53415 58.314374 
L 591.972209 59.090576 
L 592.410268 60.987958 
L 593.286387 59.004331 
L 593.724447 58.745597 
L 594.162506 59.090576 
L 594.600565 58.918087 
L 595.038625 59.176821 
L 595.476684 59.866778 
L 595.914743 58.486863 
L 596.352803 58.486863 
L 596.790862 59.176821 
L 597.228921 58.228129 
L 597.666981 58.05564 
L 598.10504 57.106949 
L 598.543099 59.953022 
L 598.981159 60.298001 
L 599.419218 59.435554 
L 599.857277 60.556735 
L 600.295337 60.125512 
L 601.171455 61.160447 
L 601.609515 58.314374 
L 602.047574 60.556735 
L 602.485634 59.34931 
L 602.923693 59.004331 
L 603.361752 59.176821 
L 603.799812 57.796906 
L 604.237871 58.659353 
L 604.67593 58.05564 
L 605.11399 59.176821 
L 605.552049 57.969396 
L 605.990108 60.125512 
L 606.428168 59.435554 
L 606.866227 59.004331 
L 607.304286 58.314374 
L 607.742346 59.004331 
L 608.180405 60.039267 
L 608.618464 58.400619 
L 609.056524 59.953022 
L 609.494583 60.47049 
L 610.370702 60.64298 
L 610.808761 60.47049 
L 611.246821 61.160447 
L 611.68488 57.969396 
L 612.122939 58.745597 
L 612.560999 57.969396 
L 612.999058 58.486863 
L 613.437117 57.624417 
L 613.875177 57.796906 
L 614.313236 59.34931 
L 614.751295 57.365683 
L 615.627414 60.211756 
L 616.065473 60.211756 
L 616.503533 58.05564 
L 616.941592 59.694288 
L 617.379651 58.486863 
L 617.817711 59.34931 
L 618.25577 59.866778 
L 618.693829 57.193194 
L 619.131889 59.34931 
L 619.569948 57.710662 
L 620.008008 59.34931 
L 620.446067 58.486863 
L 621.322186 59.608044 
L 621.760245 59.608044 
L 622.198304 58.400619 
L 622.636364 59.176821 
L 622.636364 59.176821 
" style="fill:none;stroke:#ff7f0e;stroke-linecap:square;stroke-width:0.5;"/>
   </g>
   <g id="patch_3">
    <path d="M 90 315 
L 90 43.2 
" style="fill:none;stroke:#000000;stroke-linecap:square;stroke-linejoin:miter;stroke-width:0.8;"/>
   </g>
   <g id="patch_4">
    <path d="M 648 315 
L 648 43.2 
" style="fill:none;stroke:#000000;stroke-linecap:square;stroke-linejoin:miter;stroke-width:0.8;"/>
   </g>
   <g id="patch_5">
    <path d="M 90 315 
L 648 315 
" style="fill:none;stroke:#000000;stroke-linecap:square;stroke-linejoin:miter;stroke-width:0.8;"/>
   </g>
   <g id="patch_6">
    <path d="M 90 43.2 
L 648 43.2 
" style="fill:none;stroke:#000000;stroke-linecap:square;stroke-linejoin:miter;stroke-width:0.8;"/>
   </g>
   <g id="text_17">
    <!-- accuracy -->
    <g transform="translate(341.92875 37.2)scale(0.12 -0.12)">
     <use xlink:href="#DejaVuSans-97"/>
     <use x="61.279297" xlink:href="#DejaVuSans-99"/>
     <use x="116.259766" xlink:href="#DejaVuSans-99"/>
     <use x="171.240234" xlink:href="#DejaVuSans-117"/>
     <use x="234.619141" xlink:href="#DejaVuSans-114"/>
     <use x="275.732422" xlink:href="#DejaVuSans-97"/>
     <use x="337.011719" xlink:href="#DejaVuSans-99"/>
     <use x="391.992188" xlink:href="#DejaVuSans-121"/>
    </g>
   </g>
   <g id="legend_1">
    <g id="patch_7">
     <path d="M 97 80.55625 
L 169.153125 80.55625 
Q 171.153125 80.55625 171.153125 78.55625 
L 171.153125 50.2 
Q 171.153125 48.2 169.153125 48.2 
L 97 48.2 
Q 95 48.2 95 50.2 
L 95 78.55625 
Q 95 80.55625 97 80.55625 
z
" style="fill:#ffffff;opacity:0.8;stroke:#cccccc;stroke-linejoin:miter;"/>
    </g>
    <g id="line2d_31">
     <path d="M 99 56.298437 
L 119 56.298437 
" style="fill:none;stroke:#1f77b4;stroke-linecap:square;stroke-width:0.5;"/>
    </g>
    <g id="line2d_32"/>
    <g id="text_18">
     <!-- train -->
     <defs>
      <path d="M 18.3125 70.21875 
L 18.3125 54.6875 
L 36.8125 54.6875 
L 36.8125 47.703125 
L 18.3125 47.703125 
L 18.3125 18.015625 
Q 18.3125 11.328125 20.140625 9.421875 
Q 21.96875 7.515625 27.59375 7.515625 
L 36.8125 7.515625 
L 36.8125 0 
L 27.59375 0 
Q 17.1875 0 13.234375 3.875 
Q 9.28125 7.765625 9.28125 18.015625 
L 9.28125 47.703125 
L 2.6875 47.703125 
L 2.6875 54.6875 
L 9.28125 54.6875 
L 9.28125 70.21875 
z
" id="DejaVuSans-116"/>
      <path d="M 9.421875 54.6875 
L 18.40625 54.6875 
L 18.40625 0 
L 9.421875 0 
z
M 9.421875 75.984375 
L 18.40625 75.984375 
L 18.40625 64.59375 
L 9.421875 64.59375 
z
" id="DejaVuSans-105"/>
      <path d="M 54.890625 33.015625 
L 54.890625 0 
L 45.90625 0 
L 45.90625 32.71875 
Q 45.90625 40.484375 42.875 44.328125 
Q 39.84375 48.1875 33.796875 48.1875 
Q 26.515625 48.1875 22.3125 43.546875 
Q 18.109375 38.921875 18.109375 30.90625 
L 18.109375 0 
L 9.078125 0 
L 9.078125 54.6875 
L 18.109375 54.6875 
L 18.109375 46.1875 
Q 21.34375 51.125 25.703125 53.5625 
Q 30.078125 56 35.796875 56 
Q 45.21875 56 50.046875 50.171875 
Q 54.890625 44.34375 54.890625 33.015625 
z
" id="DejaVuSans-110"/>
     </defs>
     <g transform="translate(127 59.798437)scale(0.1 -0.1)">
      <use xlink:href="#DejaVuSans-116"/>
      <use x="39.208984" xlink:href="#DejaVuSans-114"/>
      <use x="80.322266" xlink:href="#DejaVuSans-97"/>
      <use x="141.601562" xlink:href="#DejaVuSans-105"/>
      <use x="169.384766" xlink:href="#DejaVuSans-110"/>
     </g>
    </g>
    <g id="line2d_33">
     <path d="M 99 70.976562 
L 119 70.976562 
" style="fill:none;stroke:#ff7f0e;stroke-linecap:square;stroke-width:0.5;"/>
    </g>
    <g id="line2d_34"/>
    <g id="text_19">
     <!-- validate -->
     <defs>
      <path d="M 2.984375 54.6875 
L 12.5 54.6875 
L 29.59375 8.796875 
L 46.6875 54.6875 
L 56.203125 54.6875 
L 35.6875 0 
L 23.484375 0 
z
" id="DejaVuSans-118"/>
      <path d="M 9.421875 75.984375 
L 18.40625 75.984375 
L 18.40625 0 
L 9.421875 0 
z
" id="DejaVuSans-108"/>
      <path d="M 45.40625 46.390625 
L 45.40625 75.984375 
L 54.390625 75.984375 
L 54.390625 0 
L 45.40625 0 
L 45.40625 8.203125 
Q 42.578125 3.328125 38.25 0.953125 
Q 33.9375 -1.421875 27.875 -1.421875 
Q 17.96875 -1.421875 11.734375 6.484375 
Q 5.515625 14.40625 5.515625 27.296875 
Q 5.515625 40.1875 11.734375 48.09375 
Q 17.96875 56 27.875 56 
Q 33.9375 56 38.25 53.625 
Q 42.578125 51.265625 45.40625 46.390625 
z
M 14.796875 27.296875 
Q 14.796875 17.390625 18.875 11.75 
Q 22.953125 6.109375 30.078125 6.109375 
Q 37.203125 6.109375 41.296875 11.75 
Q 45.40625 17.390625 45.40625 27.296875 
Q 45.40625 37.203125 41.296875 42.84375 
Q 37.203125 48.484375 30.078125 48.484375 
Q 22.953125 48.484375 18.875 42.84375 
Q 14.796875 37.203125 14.796875 27.296875 
z
" id="DejaVuSans-100"/>
     </defs>
     <g transform="translate(127 74.476562)scale(0.1 -0.1)">
      <use xlink:href="#DejaVuSans-118"/>
      <use x="59.179688" xlink:href="#DejaVuSans-97"/>
      <use x="120.458984" xlink:href="#DejaVuSans-108"/>
      <use x="148.242188" xlink:href="#DejaVuSans-105"/>
      <use x="176.025391" xlink:href="#DejaVuSans-100"/>
      <use x="239.501953" xlink:href="#DejaVuSans-97"/>
      <use x="300.78125" xlink:href="#DejaVuSans-116"/>
      <use x="339.990234" xlink:href="#DejaVuSans-101"/>
     </g>
    </g>
   </g>
  </g>
 </g>
 <defs>
  <clipPath id="p6cacb7e522">
   <rect height="271.8" width="558" x="90" y="43.2"/>
  </clipPath>
 </defs>
</svg>
