<?xml version="1.0" encoding="utf-8" standalone="no"?>
<!DOCTYPE svg PUBLIC "-//W3C//DTD SVG 1.1//EN"
  "http://www.w3.org/Graphics/SVG/1.1/DTD/svg11.dtd">
<!-- Created with matplotlib (https://matplotlib.org/) -->
<svg height="360pt" version="1.1" viewBox="0 0 720 360" width="720pt" xmlns="http://www.w3.org/2000/svg" xmlns:xlink="http://www.w3.org/1999/xlink">
 <defs>
  <style type="text/css">
*{stroke-linecap:butt;stroke-linejoin:round;}
  </style>
 </defs>
 <g id="figure_1">
  <g id="patch_1">
   <path d="M 0 360 
L 720 360 
L 720 0 
L 0 0 
z
" style="fill:#ffffff;"/>
  </g>
  <g id="axes_1">
   <g id="patch_2">
    <path d="M 90 315 
L 648 315 
L 648 43.2 
L 90 43.2 
z
" style="fill:#ffffff;"/>
   </g>
   <g id="matplotlib.axis_1">
    <g id="xtick_1">
     <g id="line2d_1">
      <path clip-path="url(#p890a63e06e)" d="M 115.363636 315 
L 115.363636 43.2 
" style="fill:none;stroke:#b0b0b0;stroke-linecap:square;stroke-width:0.8;"/>
     </g>
     <g id="line2d_2">
      <defs>
       <path d="M 0 0 
L 0 3.5 
" id="m6ff38a167a" style="stroke:#000000;stroke-width:0.8;"/>
      </defs>
      <g>
       <use style="stroke:#000000;stroke-width:0.8;" x="115.363636" xlink:href="#m6ff38a167a" y="315"/>
      </g>
     </g>
     <g id="text_1">
      <!-- 0 -->
      <defs>
       <path d="M 31.78125 66.40625 
Q 24.171875 66.40625 20.328125 58.90625 
Q 16.5 51.421875 16.5 36.375 
Q 16.5 21.390625 20.328125 13.890625 
Q 24.171875 6.390625 31.78125 6.390625 
Q 39.453125 6.390625 43.28125 13.890625 
Q 47.125 21.390625 47.125 36.375 
Q 47.125 51.421875 43.28125 58.90625 
Q 39.453125 66.40625 31.78125 66.40625 
z
M 31.78125 74.21875 
Q 44.046875 74.21875 50.515625 64.515625 
Q 56.984375 54.828125 56.984375 36.375 
Q 56.984375 17.96875 50.515625 8.265625 
Q 44.046875 -1.421875 31.78125 -1.421875 
Q 19.53125 -1.421875 13.0625 8.265625 
Q 6.59375 17.96875 6.59375 36.375 
Q 6.59375 54.828125 13.0625 64.515625 
Q 19.53125 74.21875 31.78125 74.21875 
z
" id="DejaVuSans-48"/>
      </defs>
      <g transform="translate(112.182386 329.598437)scale(0.1 -0.1)">
       <use xlink:href="#DejaVuSans-48"/>
      </g>
     </g>
    </g>
    <g id="xtick_2">
     <g id="line2d_3">
      <path clip-path="url(#p890a63e06e)" d="M 214.247209 315 
L 214.247209 43.2 
" style="fill:none;stroke:#b0b0b0;stroke-linecap:square;stroke-width:0.8;"/>
     </g>
     <g id="line2d_4">
      <g>
       <use style="stroke:#000000;stroke-width:0.8;" x="214.247209" xlink:href="#m6ff38a167a" y="315"/>
      </g>
     </g>
     <g id="text_2">
      <!-- 200 -->
      <defs>
       <path d="M 19.1875 8.296875 
L 53.609375 8.296875 
L 53.609375 0 
L 7.328125 0 
L 7.328125 8.296875 
Q 12.9375 14.109375 22.625 23.890625 
Q 32.328125 33.6875 34.8125 36.53125 
Q 39.546875 41.84375 41.421875 45.53125 
Q 43.3125 49.21875 43.3125 52.78125 
Q 43.3125 58.59375 39.234375 62.25 
Q 35.15625 65.921875 28.609375 65.921875 
Q 23.96875 65.921875 18.8125 64.3125 
Q 13.671875 62.703125 7.8125 59.421875 
L 7.8125 69.390625 
Q 13.765625 71.78125 18.9375 73 
Q 24.125 74.21875 28.421875 74.21875 
Q 39.75 74.21875 46.484375 68.546875 
Q 53.21875 62.890625 53.21875 53.421875 
Q 53.21875 48.921875 51.53125 44.890625 
Q 49.859375 40.875 45.40625 35.40625 
Q 44.1875 33.984375 37.640625 27.21875 
Q 31.109375 20.453125 19.1875 8.296875 
z
" id="DejaVuSans-50"/>
      </defs>
      <g transform="translate(204.703459 329.598437)scale(0.1 -0.1)">
       <use xlink:href="#DejaVuSans-50"/>
       <use x="63.623047" xlink:href="#DejaVuSans-48"/>
       <use x="127.246094" xlink:href="#DejaVuSans-48"/>
      </g>
     </g>
    </g>
    <g id="xtick_3">
     <g id="line2d_5">
      <path clip-path="url(#p890a63e06e)" d="M 313.130781 315 
L 313.130781 43.2 
" style="fill:none;stroke:#b0b0b0;stroke-linecap:square;stroke-width:0.8;"/>
     </g>
     <g id="line2d_6">
      <g>
       <use style="stroke:#000000;stroke-width:0.8;" x="313.130781" xlink:href="#m6ff38a167a" y="315"/>
      </g>
     </g>
     <g id="text_3">
      <!-- 400 -->
      <defs>
       <path d="M 37.796875 64.3125 
L 12.890625 25.390625 
L 37.796875 25.390625 
z
M 35.203125 72.90625 
L 47.609375 72.90625 
L 47.609375 25.390625 
L 58.015625 25.390625 
L 58.015625 17.1875 
L 47.609375 17.1875 
L 47.609375 0 
L 37.796875 0 
L 37.796875 17.1875 
L 4.890625 17.1875 
L 4.890625 26.703125 
z
" id="DejaVuSans-52"/>
      </defs>
      <g transform="translate(303.587031 329.598437)scale(0.1 -0.1)">
       <use xlink:href="#DejaVuSans-52"/>
       <use x="63.623047" xlink:href="#DejaVuSans-48"/>
       <use x="127.246094" xlink:href="#DejaVuSans-48"/>
      </g>
     </g>
    </g>
    <g id="xtick_4">
     <g id="line2d_7">
      <path clip-path="url(#p890a63e06e)" d="M 412.014354 315 
L 412.014354 43.2 
" style="fill:none;stroke:#b0b0b0;stroke-linecap:square;stroke-width:0.8;"/>
     </g>
     <g id="line2d_8">
      <g>
       <use style="stroke:#000000;stroke-width:0.8;" x="412.014354" xlink:href="#m6ff38a167a" y="315"/>
      </g>
     </g>
     <g id="text_4">
      <!-- 600 -->
      <defs>
       <path d="M 33.015625 40.375 
Q 26.375 40.375 22.484375 35.828125 
Q 18.609375 31.296875 18.609375 23.390625 
Q 18.609375 15.53125 22.484375 10.953125 
Q 26.375 6.390625 33.015625 6.390625 
Q 39.65625 6.390625 43.53125 10.953125 
Q 47.40625 15.53125 47.40625 23.390625 
Q 47.40625 31.296875 43.53125 35.828125 
Q 39.65625 40.375 33.015625 40.375 
z
M 52.59375 71.296875 
L 52.59375 62.3125 
Q 48.875 64.0625 45.09375 64.984375 
Q 41.3125 65.921875 37.59375 65.921875 
Q 27.828125 65.921875 22.671875 59.328125 
Q 17.53125 52.734375 16.796875 39.40625 
Q 19.671875 43.65625 24.015625 45.921875 
Q 28.375 48.1875 33.59375 48.1875 
Q 44.578125 48.1875 50.953125 41.515625 
Q 57.328125 34.859375 57.328125 23.390625 
Q 57.328125 12.15625 50.6875 5.359375 
Q 44.046875 -1.421875 33.015625 -1.421875 
Q 20.359375 -1.421875 13.671875 8.265625 
Q 6.984375 17.96875 6.984375 36.375 
Q 6.984375 53.65625 15.1875 63.9375 
Q 23.390625 74.21875 37.203125 74.21875 
Q 40.921875 74.21875 44.703125 73.484375 
Q 48.484375 72.75 52.59375 71.296875 
z
" id="DejaVuSans-54"/>
      </defs>
      <g transform="translate(402.470604 329.598437)scale(0.1 -0.1)">
       <use xlink:href="#DejaVuSans-54"/>
       <use x="63.623047" xlink:href="#DejaVuSans-48"/>
       <use x="127.246094" xlink:href="#DejaVuSans-48"/>
      </g>
     </g>
    </g>
    <g id="xtick_5">
     <g id="line2d_9">
      <path clip-path="url(#p890a63e06e)" d="M 510.897927 315 
L 510.897927 43.2 
" style="fill:none;stroke:#b0b0b0;stroke-linecap:square;stroke-width:0.8;"/>
     </g>
     <g id="line2d_10">
      <g>
       <use style="stroke:#000000;stroke-width:0.8;" x="510.897927" xlink:href="#m6ff38a167a" y="315"/>
      </g>
     </g>
     <g id="text_5">
      <!-- 800 -->
      <defs>
       <path d="M 31.78125 34.625 
Q 24.75 34.625 20.71875 30.859375 
Q 16.703125 27.09375 16.703125 20.515625 
Q 16.703125 13.921875 20.71875 10.15625 
Q 24.75 6.390625 31.78125 6.390625 
Q 38.8125 6.390625 42.859375 10.171875 
Q 46.921875 13.96875 46.921875 20.515625 
Q 46.921875 27.09375 42.890625 30.859375 
Q 38.875 34.625 31.78125 34.625 
z
M 21.921875 38.8125 
Q 15.578125 40.375 12.03125 44.71875 
Q 8.5 49.078125 8.5 55.328125 
Q 8.5 64.0625 14.71875 69.140625 
Q 20.953125 74.21875 31.78125 74.21875 
Q 42.671875 74.21875 48.875 69.140625 
Q 55.078125 64.0625 55.078125 55.328125 
Q 55.078125 49.078125 51.53125 44.71875 
Q 48 40.375 41.703125 38.8125 
Q 48.828125 37.15625 52.796875 32.3125 
Q 56.78125 27.484375 56.78125 20.515625 
Q 56.78125 9.90625 50.3125 4.234375 
Q 43.84375 -1.421875 31.78125 -1.421875 
Q 19.734375 -1.421875 13.25 4.234375 
Q 6.78125 9.90625 6.78125 20.515625 
Q 6.78125 27.484375 10.78125 32.3125 
Q 14.796875 37.15625 21.921875 38.8125 
z
M 18.3125 54.390625 
Q 18.3125 48.734375 21.84375 45.5625 
Q 25.390625 42.390625 31.78125 42.390625 
Q 38.140625 42.390625 41.71875 45.5625 
Q 45.3125 48.734375 45.3125 54.390625 
Q 45.3125 60.0625 41.71875 63.234375 
Q 38.140625 66.40625 31.78125 66.40625 
Q 25.390625 66.40625 21.84375 63.234375 
Q 18.3125 60.0625 18.3125 54.390625 
z
" id="DejaVuSans-56"/>
      </defs>
      <g transform="translate(501.354177 329.598437)scale(0.1 -0.1)">
       <use xlink:href="#DejaVuSans-56"/>
       <use x="63.623047" xlink:href="#DejaVuSans-48"/>
       <use x="127.246094" xlink:href="#DejaVuSans-48"/>
      </g>
     </g>
    </g>
    <g id="xtick_6">
     <g id="line2d_11">
      <path clip-path="url(#p890a63e06e)" d="M 609.781499 315 
L 609.781499 43.2 
" style="fill:none;stroke:#b0b0b0;stroke-linecap:square;stroke-width:0.8;"/>
     </g>
     <g id="line2d_12">
      <g>
       <use style="stroke:#000000;stroke-width:0.8;" x="609.781499" xlink:href="#m6ff38a167a" y="315"/>
      </g>
     </g>
     <g id="text_6">
      <!-- 1000 -->
      <defs>
       <path d="M 12.40625 8.296875 
L 28.515625 8.296875 
L 28.515625 63.921875 
L 10.984375 60.40625 
L 10.984375 69.390625 
L 28.421875 72.90625 
L 38.28125 72.90625 
L 38.28125 8.296875 
L 54.390625 8.296875 
L 54.390625 0 
L 12.40625 0 
z
" id="DejaVuSans-49"/>
      </defs>
      <g transform="translate(597.056499 329.598437)scale(0.1 -0.1)">
       <use xlink:href="#DejaVuSans-49"/>
       <use x="63.623047" xlink:href="#DejaVuSans-48"/>
       <use x="127.246094" xlink:href="#DejaVuSans-48"/>
       <use x="190.869141" xlink:href="#DejaVuSans-48"/>
      </g>
     </g>
    </g>
    <g id="text_7">
     <!-- epoch -->
     <defs>
      <path d="M 56.203125 29.59375 
L 56.203125 25.203125 
L 14.890625 25.203125 
Q 15.484375 15.921875 20.484375 11.0625 
Q 25.484375 6.203125 34.421875 6.203125 
Q 39.59375 6.203125 44.453125 7.46875 
Q 49.3125 8.734375 54.109375 11.28125 
L 54.109375 2.78125 
Q 49.265625 0.734375 44.1875 -0.34375 
Q 39.109375 -1.421875 33.890625 -1.421875 
Q 20.796875 -1.421875 13.15625 6.1875 
Q 5.515625 13.8125 5.515625 26.8125 
Q 5.515625 40.234375 12.765625 48.109375 
Q 20.015625 56 32.328125 56 
Q 43.359375 56 49.78125 48.890625 
Q 56.203125 41.796875 56.203125 29.59375 
z
M 47.21875 32.234375 
Q 47.125 39.59375 43.09375 43.984375 
Q 39.0625 48.390625 32.421875 48.390625 
Q 24.90625 48.390625 20.390625 44.140625 
Q 15.875 39.890625 15.1875 32.171875 
z
" id="DejaVuSans-101"/>
      <path d="M 18.109375 8.203125 
L 18.109375 -20.796875 
L 9.078125 -20.796875 
L 9.078125 54.6875 
L 18.109375 54.6875 
L 18.109375 46.390625 
Q 20.953125 51.265625 25.265625 53.625 
Q 29.59375 56 35.59375 56 
Q 45.5625 56 51.78125 48.09375 
Q 58.015625 40.1875 58.015625 27.296875 
Q 58.015625 14.40625 51.78125 6.484375 
Q 45.5625 -1.421875 35.59375 -1.421875 
Q 29.59375 -1.421875 25.265625 0.953125 
Q 20.953125 3.328125 18.109375 8.203125 
z
M 48.6875 27.296875 
Q 48.6875 37.203125 44.609375 42.84375 
Q 40.53125 48.484375 33.40625 48.484375 
Q 26.265625 48.484375 22.1875 42.84375 
Q 18.109375 37.203125 18.109375 27.296875 
Q 18.109375 17.390625 22.1875 11.75 
Q 26.265625 6.109375 33.40625 6.109375 
Q 40.53125 6.109375 44.609375 11.75 
Q 48.6875 17.390625 48.6875 27.296875 
z
" id="DejaVuSans-112"/>
      <path d="M 30.609375 48.390625 
Q 23.390625 48.390625 19.1875 42.75 
Q 14.984375 37.109375 14.984375 27.296875 
Q 14.984375 17.484375 19.15625 11.84375 
Q 23.34375 6.203125 30.609375 6.203125 
Q 37.796875 6.203125 41.984375 11.859375 
Q 46.1875 17.53125 46.1875 27.296875 
Q 46.1875 37.015625 41.984375 42.703125 
Q 37.796875 48.390625 30.609375 48.390625 
z
M 30.609375 56 
Q 42.328125 56 49.015625 48.375 
Q 55.71875 40.765625 55.71875 27.296875 
Q 55.71875 13.875 49.015625 6.21875 
Q 42.328125 -1.421875 30.609375 -1.421875 
Q 18.84375 -1.421875 12.171875 6.21875 
Q 5.515625 13.875 5.515625 27.296875 
Q 5.515625 40.765625 12.171875 48.375 
Q 18.84375 56 30.609375 56 
z
" id="DejaVuSans-111"/>
      <path d="M 48.78125 52.59375 
L 48.78125 44.1875 
Q 44.96875 46.296875 41.140625 47.34375 
Q 37.3125 48.390625 33.40625 48.390625 
Q 24.65625 48.390625 19.8125 42.84375 
Q 14.984375 37.3125 14.984375 27.296875 
Q 14.984375 17.28125 19.8125 11.734375 
Q 24.65625 6.203125 33.40625 6.203125 
Q 37.3125 6.203125 41.140625 7.25 
Q 44.96875 8.296875 48.78125 10.40625 
L 48.78125 2.09375 
Q 45.015625 0.34375 40.984375 -0.53125 
Q 36.96875 -1.421875 32.421875 -1.421875 
Q 20.0625 -1.421875 12.78125 6.34375 
Q 5.515625 14.109375 5.515625 27.296875 
Q 5.515625 40.671875 12.859375 48.328125 
Q 20.21875 56 33.015625 56 
Q 37.15625 56 41.109375 55.140625 
Q 45.0625 54.296875 48.78125 52.59375 
z
" id="DejaVuSans-99"/>
      <path d="M 54.890625 33.015625 
L 54.890625 0 
L 45.90625 0 
L 45.90625 32.71875 
Q 45.90625 40.484375 42.875 44.328125 
Q 39.84375 48.1875 33.796875 48.1875 
Q 26.515625 48.1875 22.3125 43.546875 
Q 18.109375 38.921875 18.109375 30.90625 
L 18.109375 0 
L 9.078125 0 
L 9.078125 75.984375 
L 18.109375 75.984375 
L 18.109375 46.1875 
Q 21.34375 51.125 25.703125 53.5625 
Q 30.078125 56 35.796875 56 
Q 45.21875 56 50.046875 50.171875 
Q 54.890625 44.34375 54.890625 33.015625 
z
" id="DejaVuSans-104"/>
     </defs>
     <g transform="translate(353.771875 343.276563)scale(0.1 -0.1)">
      <use xlink:href="#DejaVuSans-101"/>
      <use x="61.523438" xlink:href="#DejaVuSans-112"/>
      <use x="125" xlink:href="#DejaVuSans-111"/>
      <use x="186.181641" xlink:href="#DejaVuSans-99"/>
      <use x="241.162109" xlink:href="#DejaVuSans-104"/>
     </g>
    </g>
   </g>
   <g id="matplotlib.axis_2">
    <g id="ytick_1">
     <g id="line2d_13">
      <path clip-path="url(#p890a63e06e)" d="M 90 285.014994 
L 648 285.014994 
" style="fill:none;stroke:#b0b0b0;stroke-linecap:square;stroke-width:0.8;"/>
     </g>
     <g id="line2d_14">
      <defs>
       <path d="M 0 0 
L -3.5 0 
" id="mb50b024ef8" style="stroke:#000000;stroke-width:0.8;"/>
      </defs>
      <g>
       <use style="stroke:#000000;stroke-width:0.8;" x="90" xlink:href="#mb50b024ef8" y="285.014994"/>
      </g>
     </g>
     <g id="text_8">
      <!-- 0.3 -->
      <defs>
       <path d="M 10.6875 12.40625 
L 21 12.40625 
L 21 0 
L 10.6875 0 
z
" id="DejaVuSans-46"/>
       <path d="M 40.578125 39.3125 
Q 47.65625 37.796875 51.625 33 
Q 55.609375 28.21875 55.609375 21.1875 
Q 55.609375 10.40625 48.1875 4.484375 
Q 40.765625 -1.421875 27.09375 -1.421875 
Q 22.515625 -1.421875 17.65625 -0.515625 
Q 12.796875 0.390625 7.625 2.203125 
L 7.625 11.71875 
Q 11.71875 9.328125 16.59375 8.109375 
Q 21.484375 6.890625 26.8125 6.890625 
Q 36.078125 6.890625 40.9375 10.546875 
Q 45.796875 14.203125 45.796875 21.1875 
Q 45.796875 27.640625 41.28125 31.265625 
Q 36.765625 34.90625 28.71875 34.90625 
L 20.21875 34.90625 
L 20.21875 43.015625 
L 29.109375 43.015625 
Q 36.375 43.015625 40.234375 45.921875 
Q 44.09375 48.828125 44.09375 54.296875 
Q 44.09375 59.90625 40.109375 62.90625 
Q 36.140625 65.921875 28.71875 65.921875 
Q 24.65625 65.921875 20.015625 65.03125 
Q 15.375 64.15625 9.8125 62.3125 
L 9.8125 71.09375 
Q 15.4375 72.65625 20.34375 73.4375 
Q 25.25 74.21875 29.59375 74.21875 
Q 40.828125 74.21875 47.359375 69.109375 
Q 53.90625 64.015625 53.90625 55.328125 
Q 53.90625 49.265625 50.4375 45.09375 
Q 46.96875 40.921875 40.578125 39.3125 
z
" id="DejaVuSans-51"/>
      </defs>
      <g transform="translate(67.096875 288.814212)scale(0.1 -0.1)">
       <use xlink:href="#DejaVuSans-48"/>
       <use x="63.623047" xlink:href="#DejaVuSans-46"/>
       <use x="95.410156" xlink:href="#DejaVuSans-51"/>
      </g>
     </g>
    </g>
    <g id="ytick_2">
     <g id="line2d_15">
      <path clip-path="url(#p890a63e06e)" d="M 90 249.754072 
L 648 249.754072 
" style="fill:none;stroke:#b0b0b0;stroke-linecap:square;stroke-width:0.8;"/>
     </g>
     <g id="line2d_16">
      <g>
       <use style="stroke:#000000;stroke-width:0.8;" x="90" xlink:href="#mb50b024ef8" y="249.754072"/>
      </g>
     </g>
     <g id="text_9">
      <!-- 0.4 -->
      <g transform="translate(67.096875 253.553291)scale(0.1 -0.1)">
       <use xlink:href="#DejaVuSans-48"/>
       <use x="63.623047" xlink:href="#DejaVuSans-46"/>
       <use x="95.410156" xlink:href="#DejaVuSans-52"/>
      </g>
     </g>
    </g>
    <g id="ytick_3">
     <g id="line2d_17">
      <path clip-path="url(#p890a63e06e)" d="M 90 214.49315 
L 648 214.49315 
" style="fill:none;stroke:#b0b0b0;stroke-linecap:square;stroke-width:0.8;"/>
     </g>
     <g id="line2d_18">
      <g>
       <use style="stroke:#000000;stroke-width:0.8;" x="90" xlink:href="#mb50b024ef8" y="214.49315"/>
      </g>
     </g>
     <g id="text_10">
      <!-- 0.5 -->
      <defs>
       <path d="M 10.796875 72.90625 
L 49.515625 72.90625 
L 49.515625 64.59375 
L 19.828125 64.59375 
L 19.828125 46.734375 
Q 21.96875 47.46875 24.109375 47.828125 
Q 26.265625 48.1875 28.421875 48.1875 
Q 40.625 48.1875 47.75 41.5 
Q 54.890625 34.8125 54.890625 23.390625 
Q 54.890625 11.625 47.5625 5.09375 
Q 40.234375 -1.421875 26.90625 -1.421875 
Q 22.3125 -1.421875 17.546875 -0.640625 
Q 12.796875 0.140625 7.71875 1.703125 
L 7.71875 11.625 
Q 12.109375 9.234375 16.796875 8.0625 
Q 21.484375 6.890625 26.703125 6.890625 
Q 35.15625 6.890625 40.078125 11.328125 
Q 45.015625 15.765625 45.015625 23.390625 
Q 45.015625 31 40.078125 35.4375 
Q 35.15625 39.890625 26.703125 39.890625 
Q 22.75 39.890625 18.8125 39.015625 
Q 14.890625 38.140625 10.796875 36.28125 
z
" id="DejaVuSans-53"/>
      </defs>
      <g transform="translate(67.096875 218.292369)scale(0.1 -0.1)">
       <use xlink:href="#DejaVuSans-48"/>
       <use x="63.623047" xlink:href="#DejaVuSans-46"/>
       <use x="95.410156" xlink:href="#DejaVuSans-53"/>
      </g>
     </g>
    </g>
    <g id="ytick_4">
     <g id="line2d_19">
      <path clip-path="url(#p890a63e06e)" d="M 90 179.232228 
L 648 179.232228 
" style="fill:none;stroke:#b0b0b0;stroke-linecap:square;stroke-width:0.8;"/>
     </g>
     <g id="line2d_20">
      <g>
       <use style="stroke:#000000;stroke-width:0.8;" x="90" xlink:href="#mb50b024ef8" y="179.232228"/>
      </g>
     </g>
     <g id="text_11">
      <!-- 0.6 -->
      <g transform="translate(67.096875 183.031447)scale(0.1 -0.1)">
       <use xlink:href="#DejaVuSans-48"/>
       <use x="63.623047" xlink:href="#DejaVuSans-46"/>
       <use x="95.410156" xlink:href="#DejaVuSans-54"/>
      </g>
     </g>
    </g>
    <g id="ytick_5">
     <g id="line2d_21">
      <path clip-path="url(#p890a63e06e)" d="M 90 143.971307 
L 648 143.971307 
" style="fill:none;stroke:#b0b0b0;stroke-linecap:square;stroke-width:0.8;"/>
     </g>
     <g id="line2d_22">
      <g>
       <use style="stroke:#000000;stroke-width:0.8;" x="90" xlink:href="#mb50b024ef8" y="143.971307"/>
      </g>
     </g>
     <g id="text_12">
      <!-- 0.7 -->
      <defs>
       <path d="M 8.203125 72.90625 
L 55.078125 72.90625 
L 55.078125 68.703125 
L 28.609375 0 
L 18.3125 0 
L 43.21875 64.59375 
L 8.203125 64.59375 
z
" id="DejaVuSans-55"/>
      </defs>
      <g transform="translate(67.096875 147.770525)scale(0.1 -0.1)">
       <use xlink:href="#DejaVuSans-48"/>
       <use x="63.623047" xlink:href="#DejaVuSans-46"/>
       <use x="95.410156" xlink:href="#DejaVuSans-55"/>
      </g>
     </g>
    </g>
    <g id="ytick_6">
     <g id="line2d_23">
      <path clip-path="url(#p890a63e06e)" d="M 90 108.710385 
L 648 108.710385 
" style="fill:none;stroke:#b0b0b0;stroke-linecap:square;stroke-width:0.8;"/>
     </g>
     <g id="line2d_24">
      <g>
       <use style="stroke:#000000;stroke-width:0.8;" x="90" xlink:href="#mb50b024ef8" y="108.710385"/>
      </g>
     </g>
     <g id="text_13">
      <!-- 0.8 -->
      <g transform="translate(67.096875 112.509604)scale(0.1 -0.1)">
       <use xlink:href="#DejaVuSans-48"/>
       <use x="63.623047" xlink:href="#DejaVuSans-46"/>
       <use x="95.410156" xlink:href="#DejaVuSans-56"/>
      </g>
     </g>
    </g>
    <g id="ytick_7">
     <g id="line2d_25">
      <path clip-path="url(#p890a63e06e)" d="M 90 73.449463 
L 648 73.449463 
" style="fill:none;stroke:#b0b0b0;stroke-linecap:square;stroke-width:0.8;"/>
     </g>
     <g id="line2d_26">
      <g>
       <use style="stroke:#000000;stroke-width:0.8;" x="90" xlink:href="#mb50b024ef8" y="73.449463"/>
      </g>
     </g>
     <g id="text_14">
      <!-- 0.9 -->
      <defs>
       <path d="M 10.984375 1.515625 
L 10.984375 10.5 
Q 14.703125 8.734375 18.5 7.8125 
Q 22.3125 6.890625 25.984375 6.890625 
Q 35.75 6.890625 40.890625 13.453125 
Q 46.046875 20.015625 46.78125 33.40625 
Q 43.953125 29.203125 39.59375 26.953125 
Q 35.25 24.703125 29.984375 24.703125 
Q 19.046875 24.703125 12.671875 31.3125 
Q 6.296875 37.9375 6.296875 49.421875 
Q 6.296875 60.640625 12.9375 67.421875 
Q 19.578125 74.21875 30.609375 74.21875 
Q 43.265625 74.21875 49.921875 64.515625 
Q 56.59375 54.828125 56.59375 36.375 
Q 56.59375 19.140625 48.40625 8.859375 
Q 40.234375 -1.421875 26.421875 -1.421875 
Q 22.703125 -1.421875 18.890625 -0.6875 
Q 15.09375 0.046875 10.984375 1.515625 
z
M 30.609375 32.421875 
Q 37.25 32.421875 41.125 36.953125 
Q 45.015625 41.5 45.015625 49.421875 
Q 45.015625 57.28125 41.125 61.84375 
Q 37.25 66.40625 30.609375 66.40625 
Q 23.96875 66.40625 20.09375 61.84375 
Q 16.21875 57.28125 16.21875 49.421875 
Q 16.21875 41.5 20.09375 36.953125 
Q 23.96875 32.421875 30.609375 32.421875 
z
" id="DejaVuSans-57"/>
      </defs>
      <g transform="translate(67.096875 77.248682)scale(0.1 -0.1)">
       <use xlink:href="#DejaVuSans-48"/>
       <use x="63.623047" xlink:href="#DejaVuSans-46"/>
       <use x="95.410156" xlink:href="#DejaVuSans-57"/>
      </g>
     </g>
    </g>
    <g id="text_15">
     <!-- accuracy -->
     <defs>
      <path d="M 34.28125 27.484375 
Q 23.390625 27.484375 19.1875 25 
Q 14.984375 22.515625 14.984375 16.5 
Q 14.984375 11.71875 18.140625 8.90625 
Q 21.296875 6.109375 26.703125 6.109375 
Q 34.1875 6.109375 38.703125 11.40625 
Q 43.21875 16.703125 43.21875 25.484375 
L 43.21875 27.484375 
z
M 52.203125 31.203125 
L 52.203125 0 
L 43.21875 0 
L 43.21875 8.296875 
Q 40.140625 3.328125 35.546875 0.953125 
Q 30.953125 -1.421875 24.3125 -1.421875 
Q 15.921875 -1.421875 10.953125 3.296875 
Q 6 8.015625 6 15.921875 
Q 6 25.140625 12.171875 29.828125 
Q 18.359375 34.515625 30.609375 34.515625 
L 43.21875 34.515625 
L 43.21875 35.40625 
Q 43.21875 41.609375 39.140625 45 
Q 35.0625 48.390625 27.6875 48.390625 
Q 23 48.390625 18.546875 47.265625 
Q 14.109375 46.140625 10.015625 43.890625 
L 10.015625 52.203125 
Q 14.9375 54.109375 19.578125 55.046875 
Q 24.21875 56 28.609375 56 
Q 40.484375 56 46.34375 49.84375 
Q 52.203125 43.703125 52.203125 31.203125 
z
" id="DejaVuSans-97"/>
      <path d="M 8.5 21.578125 
L 8.5 54.6875 
L 17.484375 54.6875 
L 17.484375 21.921875 
Q 17.484375 14.15625 20.5 10.265625 
Q 23.53125 6.390625 29.59375 6.390625 
Q 36.859375 6.390625 41.078125 11.03125 
Q 45.3125 15.671875 45.3125 23.6875 
L 45.3125 54.6875 
L 54.296875 54.6875 
L 54.296875 0 
L 45.3125 0 
L 45.3125 8.40625 
Q 42.046875 3.421875 37.71875 1 
Q 33.40625 -1.421875 27.6875 -1.421875 
Q 18.265625 -1.421875 13.375 4.4375 
Q 8.5 10.296875 8.5 21.578125 
z
M 31.109375 56 
z
" id="DejaVuSans-117"/>
      <path d="M 41.109375 46.296875 
Q 39.59375 47.171875 37.8125 47.578125 
Q 36.03125 48 33.890625 48 
Q 26.265625 48 22.1875 43.046875 
Q 18.109375 38.09375 18.109375 28.8125 
L 18.109375 0 
L 9.078125 0 
L 9.078125 54.6875 
L 18.109375 54.6875 
L 18.109375 46.1875 
Q 20.953125 51.171875 25.484375 53.578125 
Q 30.03125 56 36.53125 56 
Q 37.453125 56 38.578125 55.875 
Q 39.703125 55.765625 41.0625 55.515625 
z
" id="DejaVuSans-114"/>
      <path d="M 32.171875 -5.078125 
Q 28.375 -14.84375 24.75 -17.8125 
Q 21.140625 -20.796875 15.09375 -20.796875 
L 7.90625 -20.796875 
L 7.90625 -13.28125 
L 13.1875 -13.28125 
Q 16.890625 -13.28125 18.9375 -11.515625 
Q 21 -9.765625 23.484375 -3.21875 
L 25.09375 0.875 
L 2.984375 54.6875 
L 12.5 54.6875 
L 29.59375 11.921875 
L 46.6875 54.6875 
L 56.203125 54.6875 
z
" id="DejaVuSans-121"/>
     </defs>
     <g transform="translate(61.017187 201.659375)rotate(-90)scale(0.1 -0.1)">
      <use xlink:href="#DejaVuSans-97"/>
      <use x="61.279297" xlink:href="#DejaVuSans-99"/>
      <use x="116.259766" xlink:href="#DejaVuSans-99"/>
      <use x="171.240234" xlink:href="#DejaVuSans-117"/>
      <use x="234.619141" xlink:href="#DejaVuSans-114"/>
      <use x="275.732422" xlink:href="#DejaVuSans-97"/>
      <use x="337.011719" xlink:href="#DejaVuSans-99"/>
      <use x="391.992188" xlink:href="#DejaVuSans-121"/>
     </g>
    </g>
   </g>
   <g id="line2d_27">
    <path clip-path="url(#p890a63e06e)" d="M 115.363636 302.645455 
L 116.352472 295.945879 
L 116.84689 298.325992 
L 117.341308 293.477615 
L 117.835726 296.298489 
L 118.330144 294.535443 
L 118.824561 293.477615 
L 119.318979 287.571411 
L 119.813397 290.127827 
L 120.307815 283.516405 
L 120.802233 278.491723 
L 121.296651 278.491723 
L 121.791069 280.254769 
L 122.285486 272.761823 
L 122.779904 271.8803 
L 123.76874 262.183547 
L 124.757576 256.365495 
L 125.251994 261.566481 
L 125.746411 249.577767 
L 126.240829 245.787218 
L 126.735247 240.145471 
L 127.229665 231.859154 
L 127.724083 236.443074 
L 128.218501 227.8923 
L 128.712919 225.071427 
L 129.207337 223.572838 
L 129.701754 223.837294 
L 130.69059 214.757607 
L 131.185008 213.964236 
L 131.679426 208.410641 
L 132.173844 206.735747 
L 132.668262 204.267483 
L 133.162679 202.945198 
L 133.657097 200.653238 
L 134.151515 196.598232 
L 134.645933 196.598232 
L 135.140351 191.485399 
L 135.634769 187.606697 
L 136.129187 188.311916 
L 136.623604 179.144076 
L 137.118022 182.846473 
L 137.61244 177.821792 
L 138.106858 175.08907 
L 138.601276 175.08907 
L 139.590112 163.629271 
L 140.08453 162.042529 
L 140.578947 160.015026 
L 141.073365 158.957198 
L 141.567783 156.488934 
L 142.062201 155.695563 
L 142.556619 151.464253 
L 143.051037 153.844365 
L 143.545455 148.467074 
L 144.039872 148.995988 
L 145.028708 140.974128 
L 145.523126 141.943804 
L 146.017544 137.712493 
L 146.511962 141.150433 
L 147.00638 136.390209 
L 147.500797 135.596838 
L 147.995215 140.004453 
L 148.489633 137.007275 
L 148.984051 132.24705 
L 149.478469 132.158898 
L 149.972887 129.338024 
L 150.467305 130.748461 
L 150.961722 128.280197 
L 151.45614 128.368349 
L 151.950558 125.811932 
L 152.444976 125.283018 
L 152.939394 123.43182 
L 153.433812 125.194866 
L 154.422648 122.28584 
L 154.917065 123.079211 
L 155.411483 120.434641 
L 155.905901 122.109535 
L 156.400319 114.528437 
L 156.894737 122.021383 
L 157.389155 121.051708 
L 157.883573 116.732245 
L 158.37799 114.704742 
L 158.872408 113.735066 
L 159.366826 111.354954 
L 159.861244 113.206152 
L 160.355662 114.087676 
L 160.85008 110.120822 
L 161.344498 108.710385 
L 161.838915 108.622233 
L 162.333333 110.208974 
L 162.827751 110.208974 
L 163.322169 107.476253 
L 163.816587 105.713207 
L 164.311005 107.211796 
L 164.805423 106.330273 
L 165.299841 104.567227 
L 165.794258 105.713207 
L 166.288676 103.15679 
L 166.783094 105.09614 
L 167.277512 105.360597 
L 167.77193 104.30277 
L 168.266348 102.363419 
L 168.760766 98.661022 
L 169.255183 102.892333 
L 169.749601 100.776678 
L 171.232855 100.86483 
L 171.727273 95.487539 
L 172.221691 95.928301 
L 172.716108 97.515042 
L 173.210526 98.043956 
L 173.704944 96.545367 
L 174.199362 97.955804 
L 174.69378 96.986128 
L 175.188198 96.897976 
L 175.682616 93.460036 
L 176.177033 93.283732 
L 176.671451 89.845792 
L 177.165869 92.314056 
L 177.660287 93.724493 
L 178.154705 88.61166 
L 178.649123 90.991772 
L 179.143541 92.049599 
L 179.637959 88.876116 
L 180.132376 91.608838 
L 180.626794 88.964269 
L 181.121212 90.286553 
L 181.61563 89.669487 
L 182.110048 87.201223 
L 182.604466 91.079924 
L 183.098884 88.61166 
L 183.593301 85.17372 
L 184.087719 88.876116 
L 184.582137 86.584157 
L 185.076555 89.40503 
L 185.570973 86.672309 
L 186.065391 91.344381 
L 186.559809 84.644806 
L 187.054226 87.11307 
L 187.548644 84.732958 
L 188.043062 86.672309 
L 188.53748 84.909263 
L 189.031898 84.380349 
L 189.526316 86.848613 
L 190.020734 84.732958 
L 190.515152 84.292197 
L 191.009569 85.702634 
L 191.503987 81.823932 
L 191.998405 84.204044 
L 192.492823 84.292197 
L 192.987241 83.675131 
L 193.481659 87.289375 
L 193.976077 85.878938 
L 194.470494 85.614481 
L 194.964912 82.705455 
L 195.45933 84.204044 
L 195.953748 86.3197 
L 196.448166 84.468501 
L 196.942584 87.553832 
L 197.437002 84.115892 
L 197.931419 83.146217 
L 198.425837 81.030561 
L 198.920255 83.146217 
L 199.414673 81.206866 
L 199.909091 80.942409 
L 200.403509 82.617303 
L 200.897927 79.267515 
L 201.392344 82.440998 
L 201.886762 80.854257 
L 202.38118 80.237191 
L 202.875598 81.030561 
L 203.370016 80.677952 
L 203.864434 80.5898 
L 204.85327 82.088389 
L 205.347687 80.501648 
L 205.842105 81.823932 
L 206.336523 79.091211 
L 206.830941 79.708277 
L 207.325359 79.972734 
L 207.819777 77.680774 
L 208.314195 80.5898 
L 208.808612 77.945231 
L 209.30303 78.121535 
L 209.797448 77.680774 
L 210.291866 79.972734 
L 210.786284 77.680774 
L 211.280702 80.5898 
L 212.269537 78.033383 
L 212.763955 81.030561 
L 213.258373 79.003058 
L 213.752791 81.206866 
L 214.247209 79.44382 
L 214.741627 80.5898 
L 215.236045 79.796429 
L 215.730463 78.29784 
L 216.719298 76.975555 
L 217.213716 78.650449 
L 217.708134 77.857078 
L 218.202552 78.474145 
L 218.69697 80.5898 
L 219.191388 76.711098 
L 219.685805 80.149038 
L 220.180223 75.476966 
L 220.674641 80.060886 
L 221.169059 75.476966 
L 221.663477 77.063708 
L 222.157895 75.300662 
L 222.652313 76.182185 
L 223.14673 78.033383 
L 223.641148 76.711098 
L 224.135566 78.29784 
L 224.629984 77.592622 
L 225.124402 77.945231 
L 225.61882 77.857078 
L 226.113238 74.771748 
L 226.607656 78.826754 
L 227.102073 76.446642 
L 227.596491 74.771748 
L 228.090909 74.242834 
L 228.585327 75.917728 
L 229.079745 74.507291 
L 229.574163 77.680774 
L 230.068581 78.650449 
L 230.562998 78.209688 
L 231.057416 75.565119 
L 231.551834 76.182185 
L 232.046252 76.534794 
L 232.54067 74.507291 
L 233.035088 77.504469 
L 233.529506 76.534794 
L 234.023923 74.683595 
L 234.518341 75.741423 
L 235.507177 76.975555 
L 236.001595 78.121535 
L 236.496013 74.595443 
L 236.990431 76.182185 
L 237.484848 74.419139 
L 237.979266 73.449463 
L 238.473684 75.829575 
L 238.968102 74.771748 
L 239.46252 77.945231 
L 240.451356 74.419139 
L 240.945774 75.829575 
L 241.440191 72.479788 
L 241.934609 74.8599 
L 242.429027 74.066529 
L 242.923445 72.920549 
L 243.417863 75.300662 
L 243.912281 73.361311 
L 244.406699 77.15186 
L 244.901116 77.15186 
L 245.395534 75.653271 
L 245.889952 73.273159 
L 246.38437 75.300662 
L 246.878788 72.303483 
L 247.373206 74.507291 
L 247.867624 70.628589 
L 248.362041 71.510113 
L 248.856459 74.683595 
L 249.350877 71.510113 
L 249.845295 73.449463 
L 250.339713 73.361311 
L 250.834131 73.625768 
L 251.328549 72.215331 
L 251.822967 72.391636 
L 252.317384 72.744245 
L 252.811802 72.127179 
L 253.30622 73.71392 
L 253.800638 70.628589 
L 254.295056 73.008702 
L 254.789474 72.832397 
L 255.283892 75.300662 
L 255.778309 72.215331 
L 256.272727 74.330986 
L 256.767145 74.595443 
L 257.261563 73.537616 
L 257.755981 73.625768 
L 258.250399 72.039026 
L 258.744817 74.507291 
L 259.239234 70.187828 
L 260.22807 74.771748 
L 260.722488 71.598265 
L 261.216906 72.656092 
L 262.205742 75.212509 
L 262.700159 67.807716 
L 263.194577 71.333808 
L 264.183413 72.744245 
L 264.677831 72.127179 
L 265.172249 70.364133 
L 265.666667 70.893046 
L 266.161085 71.069351 
L 266.655502 70.716742 
L 267.14992 68.777391 
L 267.644338 71.42196 
L 268.138756 69.570762 
L 268.633174 71.774569 
L 269.127592 73.008702 
L 269.62201 72.920549 
L 270.116427 71.42196 
L 270.610845 71.510113 
L 271.105263 69.747066 
L 271.599681 70.187828 
L 272.094099 70.364133 
L 272.588517 72.215331 
L 273.082935 72.391636 
L 273.577352 71.686417 
L 274.07177 71.245656 
L 274.566188 71.510113 
L 275.060606 69.658914 
L 275.555024 71.157503 
L 276.049442 71.510113 
L 276.54386 68.865543 
L 277.038278 70.804894 
L 277.532695 69.306305 
L 278.027113 70.099676 
L 278.521531 70.540437 
L 279.015949 73.625768 
L 279.510367 72.920549 
L 280.004785 72.479788 
L 280.499203 68.865543 
L 280.99362 70.716742 
L 281.488038 70.981199 
L 281.982456 70.27598 
L 282.476874 70.981199 
L 282.971292 70.452285 
L 283.46571 70.452285 
L 283.960128 68.953696 
L 284.454545 69.394457 
L 284.948963 69.394457 
L 285.443381 71.245656 
L 285.937799 70.27598 
L 286.432217 69.835219 
L 286.926635 71.333808 
L 287.421053 69.306305 
L 287.91547 72.039026 
L 288.409888 67.98402 
L 288.904306 67.631411 
L 289.398724 66.83804 
L 289.893142 70.628589 
L 290.38756 70.27598 
L 290.881978 67.631411 
L 291.376396 67.543259 
L 291.870813 69.835219 
L 292.365231 69.48261 
L 292.859649 66.220974 
L 293.354067 65.339451 
L 293.848485 68.953696 
L 294.342903 68.33663 
L 294.837321 71.950874 
L 295.331738 72.127179 
L 295.826156 69.218153 
L 296.320574 70.981199 
L 296.814992 70.981199 
L 297.30941 69.218153 
L 297.803828 68.33663 
L 298.298246 70.628589 
L 298.792663 67.278802 
L 299.781499 71.069351 
L 300.275917 69.923371 
L 300.770335 67.895868 
L 301.264753 68.865543 
L 301.759171 67.19065 
L 302.253589 70.187828 
L 302.748006 69.570762 
L 303.242424 67.455107 
L 303.736842 69.306305 
L 304.23126 65.956517 
L 304.725678 66.485431 
L 305.220096 66.661736 
L 305.714514 70.893046 
L 306.208931 68.424782 
L 306.703349 67.631411 
L 307.197767 67.98402 
L 307.692185 69.923371 
L 308.186603 69.658914 
L 308.681021 68.424782 
L 309.175439 67.719563 
L 309.669856 65.074994 
L 310.164274 66.661736 
L 310.658692 67.455107 
L 311.15311 65.603908 
L 311.647528 68.689239 
L 312.141946 66.926193 
L 312.636364 68.424782 
L 313.130781 68.160325 
L 313.625199 69.747066 
L 314.119617 67.278802 
L 314.614035 69.570762 
L 315.108453 67.895868 
L 315.602871 67.278802 
L 316.097289 68.160325 
L 316.591707 67.278802 
L 317.580542 69.747066 
L 318.07496 68.424782 
L 318.569378 69.306305 
L 319.063796 66.661736 
L 319.558214 68.424782 
L 320.052632 65.339451 
L 320.547049 67.895868 
L 321.041467 65.868365 
L 321.535885 66.573583 
L 322.030303 67.543259 
L 322.524721 67.631411 
L 323.019139 65.69206 
L 323.513557 67.631411 
L 324.007974 68.777391 
L 324.99681 64.457928 
L 325.491228 67.19065 
L 325.985646 65.780213 
L 326.480064 67.98402 
L 326.974482 65.163147 
L 327.4689 67.014345 
L 328.457735 64.369776 
L 328.952153 69.747066 
L 329.446571 65.956517 
L 329.940989 66.661736 
L 330.435407 64.369776 
L 330.929825 65.956517 
L 331.424242 66.397279 
L 331.91866 65.339451 
L 332.907496 67.455107 
L 333.401914 66.83804 
L 333.896332 65.780213 
L 334.39075 64.986842 
L 334.885167 67.455107 
L 335.874003 63.223796 
L 336.368421 66.04467 
L 336.862839 67.19065 
L 337.357257 64.89869 
L 337.851675 67.807716 
L 338.346093 67.278802 
L 338.84051 67.631411 
L 339.334928 66.220974 
L 339.829346 64.017167 
L 340.323764 64.457928 
L 340.818182 64.369776 
L 341.3126 66.309127 
L 341.807018 64.017167 
L 342.795853 66.661736 
L 343.290271 65.074994 
L 344.279107 66.926193 
L 345.267943 64.810537 
L 345.76236 65.339451 
L 346.256778 67.19065 
L 346.751196 63.223796 
L 347.245614 66.132822 
L 347.740032 65.780213 
L 348.23445 64.810537 
L 348.728868 66.83804 
L 349.223285 66.220974 
L 349.717703 66.926193 
L 350.212121 68.160325 
L 350.706539 67.543259 
L 351.200957 63.75271 
L 351.695375 67.807716 
L 352.189793 64.810537 
L 352.684211 64.54608 
L 353.178628 62.959339 
L 353.673046 67.807716 
L 354.167464 66.749888 
L 354.661882 64.634233 
L 355.1563 64.722385 
L 355.650718 67.014345 
L 356.145136 64.986842 
L 356.639553 64.722385 
L 357.628389 67.366954 
L 358.122807 65.780213 
L 358.617225 66.309127 
L 359.111643 64.722385 
L 359.606061 64.193471 
L 360.100478 64.810537 
L 360.594896 63.576405 
L 361.089314 64.369776 
L 361.583732 65.603908 
L 362.07815 65.427604 
L 362.572568 63.311948 
L 363.066986 66.132822 
L 363.561404 64.89869 
L 364.055821 64.54608 
L 364.550239 65.868365 
L 365.044657 64.193471 
L 365.539075 65.515756 
L 366.033493 68.33663 
L 366.527911 63.311948 
L 367.022329 64.986842 
L 367.516746 65.339451 
L 368.011164 66.573583 
L 368.505582 64.017167 
L 369 65.074994 
L 369.494418 62.783034 
L 369.988836 65.251299 
L 370.483254 63.75271 
L 370.977671 66.83804 
L 371.472089 62.60673 
L 371.966507 66.132822 
L 372.460925 62.871187 
L 372.955343 66.220974 
L 373.449761 65.427604 
L 373.944179 64.193471 
L 374.438596 63.664557 
L 374.933014 65.956517 
L 375.427432 64.105319 
L 375.92185 64.986842 
L 376.416268 63.840862 
L 376.910686 65.074994 
L 377.405104 63.135644 
L 377.899522 65.515756 
L 378.393939 64.89869 
L 379.382775 65.339451 
L 379.877193 64.281624 
L 380.371611 65.163147 
L 380.866029 66.661736 
L 381.360447 65.868365 
L 381.854864 63.223796 
L 382.349282 64.634233 
L 382.8437 62.783034 
L 383.832536 62.871187 
L 384.326954 64.193471 
L 384.821372 62.430425 
L 385.315789 65.163147 
L 385.810207 61.284445 
L 386.304625 61.196293 
L 386.799043 64.105319 
L 387.293461 62.783034 
L 387.787879 62.694882 
L 388.282297 62.871187 
L 388.776715 63.75271 
L 389.271132 64.281624 
L 389.76555 62.430425 
L 390.259968 65.780213 
L 390.754386 63.223796 
L 391.248804 64.369776 
L 391.743222 65.074994 
L 392.23764 63.75271 
L 392.732057 65.074994 
L 393.226475 62.254121 
L 393.720893 61.813359 
L 394.215311 64.017167 
L 394.709729 62.430425 
L 395.204147 63.488253 
L 395.698565 61.108141 
L 396.192982 63.488253 
L 396.6874 61.019988 
L 397.676236 64.634233 
L 398.665072 62.60673 
L 399.15949 64.281624 
L 399.653907 63.75271 
L 400.148325 64.986842 
L 400.642743 64.105319 
L 401.137161 62.430425 
L 401.631579 64.986842 
L 402.125997 63.488253 
L 402.620415 63.929014 
L 403.114833 64.017167 
L 403.60925 63.840862 
L 404.598086 61.548902 
L 405.092504 63.75271 
L 405.586922 65.251299 
L 406.575758 62.342273 
L 407.070175 65.074994 
L 407.564593 64.54608 
L 408.059011 65.251299 
L 408.553429 63.400101 
L 409.047847 61.108141 
L 409.542265 63.929014 
L 410.036683 64.634233 
L 410.5311 66.132822 
L 411.025518 65.603908 
L 411.519936 62.077816 
L 412.014354 64.369776 
L 412.508772 64.54608 
L 413.497608 62.430425 
L 413.992026 63.75271 
L 414.486443 61.196293 
L 414.980861 65.427604 
L 415.475279 63.400101 
L 415.969697 64.986842 
L 416.464115 63.929014 
L 416.958533 62.077816 
L 417.947368 62.783034 
L 418.441786 61.901511 
L 418.936204 62.871187 
L 419.430622 61.108141 
L 419.92504 62.783034 
L 420.913876 63.047491 
L 421.902711 61.372598 
L 422.397129 63.311948 
L 422.891547 63.664557 
L 423.385965 62.60673 
L 423.880383 59.609551 
L 424.374801 59.256942 
L 424.869219 60.755531 
L 425.363636 63.75271 
L 425.858054 64.457928 
L 427.341308 62.518577 
L 427.835726 62.959339 
L 428.330144 60.31477 
L 428.824561 63.929014 
L 429.318979 61.989664 
L 429.813397 63.135644 
L 430.307815 63.311948 
L 430.802233 61.284445 
L 431.296651 64.017167 
L 431.791069 63.223796 
L 432.285486 61.813359 
L 432.779904 63.135644 
L 433.274322 60.667379 
L 433.76874 61.548902 
L 434.263158 61.637054 
L 434.757576 62.694882 
L 435.251994 61.372598 
L 435.746411 61.901511 
L 436.735247 60.491074 
L 437.229665 62.60673 
L 437.724083 63.135644 
L 438.218501 60.491074 
L 438.712919 62.518577 
L 439.207337 63.576405 
L 439.701754 62.254121 
L 440.196172 62.518577 
L 440.69059 60.579227 
L 441.185008 63.929014 
L 441.679426 62.165968 
L 442.173844 63.664557 
L 442.668262 62.518577 
L 443.162679 63.135644 
L 443.657097 63.400101 
L 444.151515 60.843684 
L 444.645933 61.637054 
L 445.140351 60.050313 
L 445.634769 62.342273 
L 446.129187 60.138465 
L 447.118022 61.901511 
L 447.61244 59.609551 
L 448.106858 61.901511 
L 448.601276 63.047491 
L 449.095694 61.372598 
L 449.590112 63.311948 
L 450.08453 62.60673 
L 450.578947 61.019988 
L 451.073365 62.959339 
L 451.567783 58.375419 
L 452.062201 61.019988 
L 452.556619 59.609551 
L 453.051037 60.579227 
L 453.545455 60.931836 
L 454.039872 58.375419 
L 454.53429 64.810537 
L 455.028708 60.402922 
L 455.523126 62.165968 
L 456.017544 62.430425 
L 456.511962 60.755531 
L 457.00638 61.196293 
L 457.500797 62.518577 
L 457.995215 61.637054 
L 458.489633 61.196293 
L 458.984051 59.962161 
L 459.478469 62.518577 
L 459.972887 62.254121 
L 460.467305 61.108141 
L 460.961722 61.46075 
L 461.45614 59.345095 
L 462.444976 60.843684 
L 462.939394 61.813359 
L 463.433812 60.31477 
L 463.92823 60.667379 
L 464.422648 61.989664 
L 464.917065 62.254121 
L 465.411483 63.840862 
L 465.905901 62.783034 
L 466.400319 62.694882 
L 466.894737 60.931836 
L 467.389155 64.017167 
L 467.883573 59.874008 
L 468.37799 63.311948 
L 468.872408 62.254121 
L 469.861244 62.342273 
L 470.355662 62.342273 
L 470.85008 59.697704 
L 471.344498 61.813359 
L 471.838915 62.165968 
L 472.333333 60.491074 
L 472.827751 61.901511 
L 473.322169 61.725207 
L 473.816587 61.989664 
L 474.311005 63.75271 
L 474.805423 61.46075 
L 475.299841 60.402922 
L 475.794258 61.989664 
L 476.288676 62.165968 
L 476.783094 58.728028 
L 477.277512 60.491074 
L 477.77193 61.46075 
L 478.760766 61.108141 
L 479.255183 64.634233 
L 479.749601 60.226618 
L 480.244019 61.019988 
L 480.738437 61.46075 
L 481.232855 60.31477 
L 481.727273 60.31477 
L 482.221691 60.491074 
L 482.716108 59.962161 
L 483.210526 61.284445 
L 483.704944 60.31477 
L 484.199362 60.138465 
L 484.69378 61.637054 
L 485.188198 60.931836 
L 485.682616 62.342273 
L 486.177033 60.491074 
L 486.671451 61.989664 
L 487.165869 59.256942 
L 487.660287 61.548902 
L 488.154705 62.694882 
L 488.649123 60.31477 
L 489.143541 60.579227 
L 489.637959 58.816181 
L 490.132376 60.050313 
L 490.626794 60.402922 
L 491.61563 61.46075 
L 492.110048 59.256942 
L 492.604466 60.31477 
L 493.098884 60.31477 
L 493.593301 59.16879 
L 494.087719 61.019988 
L 494.582137 60.138465 
L 495.076555 60.050313 
L 495.570973 61.548902 
L 496.065391 60.31477 
L 496.559809 57.405744 
L 497.054226 61.019988 
L 497.548644 60.138465 
L 498.043062 62.60673 
L 498.53748 61.196293 
L 499.031898 60.226618 
L 499.526316 60.31477 
L 500.020734 63.311948 
L 500.515152 62.871187 
L 501.009569 60.667379 
L 501.503987 58.992485 
L 501.998405 61.725207 
L 502.492823 59.080638 
L 502.987241 61.372598 
L 503.481659 60.755531 
L 503.976077 61.901511 
L 504.470494 58.904333 
L 504.964912 58.992485 
L 505.45933 57.582048 
L 505.953748 61.196293 
L 506.448166 59.433247 
L 506.942584 60.843684 
L 507.437002 64.281624 
L 508.920255 58.639876 
L 509.414673 60.31477 
L 509.909091 59.874008 
L 510.403509 59.874008 
L 510.897927 60.138465 
L 511.392344 59.962161 
L 511.886762 60.050313 
L 512.38118 61.019988 
L 512.875598 60.843684 
L 513.370016 58.639876 
L 513.864434 58.816181 
L 514.358852 61.019988 
L 514.85327 58.463571 
L 515.347687 61.637054 
L 515.842105 59.16879 
L 516.336523 60.402922 
L 516.830941 59.697704 
L 517.325359 58.728028 
L 517.819777 62.60673 
L 518.314195 56.964982 
L 518.808612 59.785856 
L 519.30303 60.402922 
L 519.797448 59.962161 
L 520.291866 60.491074 
L 521.280702 58.551724 
L 521.77512 60.931836 
L 522.269537 58.728028 
L 522.763955 59.080638 
L 523.258373 61.725207 
L 523.752791 59.785856 
L 524.247209 59.697704 
L 524.741627 59.874008 
L 525.236045 59.345095 
L 525.730463 60.138465 
L 526.22488 59.962161 
L 526.719298 58.110962 
L 527.213716 61.548902 
L 527.708134 60.579227 
L 528.202552 61.725207 
L 528.69697 58.287267 
L 529.191388 59.521399 
L 529.685805 60.31477 
L 530.180223 60.755531 
L 530.674641 59.16879 
L 531.169059 59.697704 
L 531.663477 59.256942 
L 532.157895 59.521399 
L 532.652313 59.433247 
L 533.14673 61.284445 
L 533.641148 60.138465 
L 534.135566 58.463571 
L 534.629984 58.728028 
L 535.124402 62.783034 
L 535.61882 59.433247 
L 536.113238 61.725207 
L 536.607656 60.931836 
L 537.102073 60.402922 
L 537.596491 60.226618 
L 538.090909 63.047491 
L 538.585327 59.521399 
L 539.079745 59.697704 
L 539.574163 60.579227 
L 540.068581 58.639876 
L 541.057416 62.077816 
L 541.551834 58.904333 
L 542.046252 59.874008 
L 542.54067 61.284445 
L 543.035088 62.254121 
L 543.529506 59.697704 
L 544.023923 61.46075 
L 544.518341 59.433247 
L 545.012759 59.521399 
L 545.507177 59.962161 
L 546.001595 57.846505 
L 546.496013 58.816181 
L 546.990431 59.433247 
L 547.484848 59.785856 
L 547.979266 58.110962 
L 548.473684 58.639876 
L 548.968102 60.843684 
L 549.46252 59.609551 
L 549.956938 60.843684 
L 550.451356 60.050313 
L 550.945774 60.755531 
L 551.934609 57.229439 
L 552.429027 60.667379 
L 552.923445 58.904333 
L 553.417863 58.816181 
L 553.912281 59.962161 
L 554.406699 60.31477 
L 554.901116 59.785856 
L 555.395534 58.551724 
L 555.889952 60.050313 
L 556.878788 59.697704 
L 557.373206 58.904333 
L 557.867624 59.16879 
L 558.362041 60.843684 
L 558.856459 58.992485 
L 559.350877 58.816181 
L 559.845295 60.31477 
L 560.339713 60.667379 
L 560.834131 58.02281 
L 561.328549 58.816181 
L 561.822967 58.02281 
L 562.317384 57.934658 
L 562.811802 57.582048 
L 563.30622 58.199115 
L 564.295056 60.491074 
L 564.789474 60.491074 
L 565.283892 57.846505 
L 565.778309 58.992485 
L 566.272727 58.551724 
L 566.767145 60.491074 
L 567.261563 58.816181 
L 567.755981 61.989664 
L 568.250399 59.697704 
L 568.744817 62.871187 
L 569.239234 55.554545 
L 569.733652 58.375419 
L 570.22807 58.904333 
L 570.722488 59.16879 
L 571.216906 58.816181 
L 571.711324 57.670201 
L 572.205742 58.287267 
L 572.700159 59.785856 
L 573.194577 58.463571 
L 573.688995 60.138465 
L 574.183413 57.141287 
L 575.666667 61.284445 
L 576.161085 59.609551 
L 576.655502 58.816181 
L 577.14992 59.697704 
L 577.644338 59.433247 
L 578.138756 60.138465 
L 578.633174 58.375419 
L 579.127592 57.934658 
L 579.62201 59.962161 
L 580.116427 58.639876 
L 580.610845 58.639876 
L 581.105263 59.16879 
L 581.599681 59.962161 
L 582.094099 56.788678 
L 582.588517 57.846505 
L 583.082935 58.639876 
L 583.577352 57.934658 
L 584.07177 57.670201 
L 585.060606 59.256942 
L 585.555024 56.436068 
L 586.049442 58.375419 
L 586.54386 59.521399 
L 587.038278 56.700525 
L 587.532695 57.229439 
L 588.027113 59.785856 
L 588.521531 59.521399 
L 589.015949 58.463571 
L 589.510367 60.050313 
L 590.004785 59.609551 
L 590.499203 59.785856 
L 590.99362 58.463571 
L 591.488038 58.904333 
L 591.982456 57.582048 
L 592.476874 60.491074 
L 592.971292 57.229439 
L 593.46571 59.433247 
L 593.960128 59.256942 
L 594.454545 59.433247 
L 594.948963 58.463571 
L 595.443381 56.524221 
L 595.937799 56.87683 
L 596.432217 58.992485 
L 596.926635 57.141287 
L 597.421053 59.874008 
L 597.91547 57.229439 
L 598.409888 58.639876 
L 598.904306 56.524221 
L 599.398724 59.16879 
L 599.893142 60.667379 
L 600.38756 58.551724 
L 600.881978 58.287267 
L 601.376396 59.874008 
L 601.870813 57.582048 
L 602.365231 57.758353 
L 602.859649 58.728028 
L 603.354067 56.788678 
L 603.848485 59.874008 
L 604.342903 57.493896 
L 604.837321 56.436068 
L 605.331738 57.934658 
L 605.826156 58.199115 
L 606.320574 57.758353 
L 606.814992 58.639876 
L 607.30941 58.728028 
L 607.803828 59.345095 
L 608.298246 57.582048 
L 608.792663 58.728028 
L 609.287081 59.16879 
L 609.781499 59.345095 
L 610.770335 58.463571 
L 611.264753 56.612373 
L 611.759171 58.199115 
L 612.253589 57.493896 
L 612.748006 57.758353 
L 613.242424 58.551724 
L 613.736842 59.785856 
L 614.23126 59.16879 
L 614.725678 59.962161 
L 615.220096 58.904333 
L 615.714514 57.317592 
L 616.208931 56.964982 
L 616.703349 58.110962 
L 617.197767 60.755531 
L 617.692185 57.846505 
L 618.186603 57.670201 
L 618.681021 58.816181 
L 619.175439 57.934658 
L 619.669856 56.259764 
L 620.164274 56.524221 
L 620.658692 57.846505 
L 621.15311 61.019988 
L 621.647528 57.229439 
L 622.141946 56.259764 
L 622.636364 56.700525 
L 622.636364 56.700525 
" style="fill:none;stroke:#1f77b4;stroke-linecap:square;stroke-width:0.5;"/>
   </g>
   <g id="line2d_28">
    <path clip-path="url(#p890a63e06e)" d="M 115.363636 301.32317 
L 115.858054 295.328813 
L 116.352472 297.532621 
L 116.84689 291.450112 
L 117.341308 293.742072 
L 117.835726 289.422609 
L 118.330144 294.270986 
L 118.824561 287.395106 
L 119.318979 285.367603 
L 119.813397 283.869014 
L 120.307815 286.249126 
L 121.296651 277.6102 
L 121.791069 275.847154 
L 122.285486 274.789326 
L 122.779904 271.175082 
L 123.274322 269.764645 
L 123.76874 264.21105 
L 124.263158 264.387354 
L 124.757576 261.213872 
L 125.251994 251.076357 
L 125.746411 252.574946 
L 126.240829 245.346457 
L 126.735247 245.875371 
L 127.229665 240.49808 
L 127.724083 236.883836 
L 128.218501 236.619379 
L 128.712919 233.181439 
L 129.207337 225.159579 
L 129.701754 221.545335 
L 130.196172 220.840116 
L 130.69059 217.314024 
L 131.185008 215.198369 
L 131.679426 214.933912 
L 132.173844 208.586946 
L 132.668262 212.5538 
L 133.162679 206.118681 
L 134.151515 196.598232 
L 134.645933 197.303451 
L 135.140351 196.245623 
L 135.634769 192.455074 
L 136.129187 187.077784 
L 136.623604 183.639844 
L 137.118022 187.959307 
L 138.106858 172.620806 
L 138.601276 171.827435 
L 139.095694 172.532653 
L 139.590112 169.799932 
L 140.08453 167.860581 
L 140.578947 160.54394 
L 141.073365 162.042529 
L 141.567783 159.39796 
L 142.062201 157.723066 
L 142.556619 159.486112 
L 143.051037 158.163828 
L 144.53429 149.43675 
L 145.028708 145.558048 
L 145.523126 146.704028 
L 146.017544 146.439571 
L 146.511962 143.354241 
L 147.00638 142.472718 
L 147.500797 146.086962 
L 148.489633 136.213904 
L 148.984051 137.888798 
L 149.478469 133.921944 
L 149.972887 134.715315 
L 150.467305 134.53901 
L 150.961722 129.16172 
L 151.45614 129.16172 
L 152.444976 128.01574 
L 152.939394 125.106714 
L 153.433812 126.693455 
L 153.92823 129.866938 
L 154.422648 127.046064 
L 155.411483 120.787251 
L 155.905901 118.142682 
L 156.400319 120.258337 
L 156.894737 118.583443 
L 157.389155 120.522794 
L 157.883573 114.704742 
L 158.37799 115.498112 
L 158.872408 114.352132 
L 159.366826 116.291483 
L 159.861244 113.911371 
L 160.355662 114.792894 
L 160.85008 109.415603 
L 161.344498 107.123643 
L 161.838915 102.716028 
L 162.333333 104.214617 
L 162.827751 107.652557 
L 163.322169 105.007988 
L 163.816587 104.831684 
L 164.311005 102.980485 
L 164.805423 103.421247 
L 165.299841 101.834505 
L 165.794258 106.682882 
L 166.288676 103.421247 
L 167.277512 101.658201 
L 167.77193 99.366241 
L 168.266348 101.658201 
L 168.760766 98.043956 
L 169.255183 100.335916 
L 169.749601 96.545367 
L 170.244019 95.487539 
L 170.738437 96.457215 
L 171.232855 96.986128 
L 171.727273 95.223082 
L 172.221691 92.666666 
L 172.716108 95.575692 
L 173.210526 87.818289 
L 173.704944 92.402209 
L 174.199362 94.958625 
L 174.69378 89.669487 
L 175.188198 85.878938 
L 175.682616 87.818289 
L 176.177033 84.380349 
L 176.671451 86.584157 
L 177.165869 84.380349 
L 177.660287 85.438177 
L 178.154705 83.498826 
L 178.649123 84.380349 
L 179.143541 87.906441 
L 179.637959 89.933944 
L 180.132376 84.556654 
L 180.626794 85.085567 
L 181.121212 81.559475 
L 181.61563 82.088389 
L 182.110048 83.146217 
L 182.604466 80.501648 
L 183.098884 81.912084 
L 183.593301 81.295018 
L 184.087719 82.529151 
L 184.582137 78.209688 
L 185.076555 82.88176 
L 185.570973 79.620125 
L 186.065391 80.325343 
L 186.559809 77.504469 
L 187.054226 76.887403 
L 187.548644 75.212509 
L 188.043062 79.796429 
L 188.53748 80.942409 
L 189.031898 78.121535 
L 189.526316 76.094032 
L 190.020734 77.416317 
L 190.515152 82.352846 
L 191.009569 80.677952 
L 191.503987 78.033383 
L 191.998405 76.975555 
L 192.492823 76.799251 
L 192.987241 76.182185 
L 193.481659 79.884581 
L 193.976077 77.592622 
L 194.470494 79.003058 
L 195.45933 74.683595 
L 195.953748 77.768926 
L 196.448166 74.419139 
L 196.942584 75.829575 
L 197.437002 78.29784 
L 197.931419 73.625768 
L 198.425837 73.008702 
L 198.920255 74.066529 
L 199.414673 77.504469 
L 199.909091 71.598265 
L 200.403509 70.716742 
L 201.392344 73.71392 
L 201.886762 72.920549 
L 202.38118 71.510113 
L 202.875598 72.832397 
L 203.370016 72.391636 
L 203.864434 73.361311 
L 204.358852 75.741423 
L 204.85327 75.565119 
L 205.347687 70.452285 
L 205.842105 70.981199 
L 206.336523 72.039026 
L 206.830941 70.452285 
L 207.325359 71.510113 
L 207.819777 73.273159 
L 208.314195 72.656092 
L 209.30303 74.507291 
L 209.797448 70.628589 
L 210.291866 74.242834 
L 210.786284 74.330986 
L 211.280702 76.358489 
L 212.269537 70.187828 
L 212.763955 71.157503 
L 213.258373 71.245656 
L 213.752791 72.920549 
L 214.247209 70.716742 
L 215.236045 69.041848 
L 215.730463 69.041848 
L 216.22488 70.452285 
L 216.719298 69.923371 
L 217.213716 67.895868 
L 217.708134 71.510113 
L 218.202552 70.099676 
L 218.69697 69.48261 
L 219.191388 70.011523 
L 219.685805 71.686417 
L 220.180223 71.686417 
L 220.674641 67.455107 
L 221.169059 69.218153 
L 221.663477 69.13 
L 222.157895 66.83804 
L 222.652313 69.48261 
L 223.14673 66.749888 
L 223.641148 70.981199 
L 224.135566 70.011523 
L 224.629984 70.628589 
L 225.124402 71.686417 
L 225.61882 68.953696 
L 226.113238 67.102497 
L 226.607656 70.628589 
L 227.102073 69.306305 
L 227.596491 67.543259 
L 228.090909 68.424782 
L 228.585327 66.397279 
L 229.079745 69.218153 
L 229.574163 66.485431 
L 230.068581 71.157503 
L 230.562998 71.245656 
L 231.057416 67.366954 
L 231.551834 70.893046 
L 232.046252 66.485431 
L 232.54067 68.689239 
L 233.035088 68.160325 
L 233.529506 67.98402 
L 234.023923 67.455107 
L 234.518341 67.366954 
L 235.012759 68.601086 
L 235.507177 65.427604 
L 236.001595 67.98402 
L 236.496013 67.102497 
L 236.990431 69.306305 
L 237.484848 68.601086 
L 237.979266 67.631411 
L 238.473684 65.69206 
L 238.968102 64.722385 
L 239.46252 67.543259 
L 239.956938 66.04467 
L 240.451356 67.98402 
L 240.945774 66.573583 
L 241.440191 65.69206 
L 241.934609 64.369776 
L 242.429027 67.455107 
L 242.923445 69.306305 
L 243.417863 65.69206 
L 243.912281 66.220974 
L 244.406699 67.19065 
L 244.901116 64.634233 
L 245.395534 66.573583 
L 245.889952 67.278802 
L 246.38437 65.868365 
L 246.878788 67.807716 
L 247.373206 65.69206 
L 247.867624 67.895868 
L 248.362041 64.722385 
L 248.856459 65.427604 
L 249.350877 66.397279 
L 249.845295 64.457928 
L 250.339713 66.485431 
L 250.834131 65.251299 
L 251.328549 66.04467 
L 251.822967 65.163147 
L 252.317384 67.719563 
L 252.811802 65.956517 
L 253.30622 67.19065 
L 253.800638 65.074994 
L 254.295056 65.074994 
L 254.789474 64.89869 
L 255.778309 68.33663 
L 256.272727 65.69206 
L 256.767145 67.719563 
L 257.261563 65.956517 
L 257.755981 65.339451 
L 258.250399 65.603908 
L 258.744817 63.664557 
L 259.239234 62.783034 
L 259.733652 64.017167 
L 260.22807 64.281624 
L 260.722488 64.810537 
L 261.216906 63.400101 
L 261.711324 63.135644 
L 262.205742 64.986842 
L 262.700159 64.193471 
L 263.194577 64.986842 
L 263.688995 63.488253 
L 264.183413 66.132822 
L 264.677831 63.664557 
L 265.172249 65.074994 
L 265.666667 64.281624 
L 266.161085 67.455107 
L 266.655502 63.311948 
L 267.14992 63.488253 
L 267.644338 66.661736 
L 268.138756 64.722385 
L 268.633174 64.281624 
L 269.127592 63.223796 
L 269.62201 67.719563 
L 270.116427 64.369776 
L 270.610845 66.132822 
L 271.105263 66.132822 
L 271.599681 67.455107 
L 272.588517 62.518577 
L 273.082935 64.193471 
L 273.577352 64.369776 
L 274.07177 63.75271 
L 274.566188 62.430425 
L 275.060606 63.223796 
L 275.555024 65.780213 
L 276.049442 65.074994 
L 276.54386 62.783034 
L 277.038278 61.196293 
L 277.532695 60.138465 
L 278.521531 67.19065 
L 279.015949 64.89869 
L 279.510367 65.603908 
L 280.004785 63.311948 
L 280.499203 62.871187 
L 280.99362 62.254121 
L 281.488038 64.193471 
L 281.982456 63.840862 
L 282.476874 63.223796 
L 282.971292 63.929014 
L 283.46571 63.047491 
L 283.960128 64.89869 
L 284.454545 61.725207 
L 284.948963 63.223796 
L 285.443381 62.871187 
L 285.937799 63.664557 
L 286.432217 64.89869 
L 286.926635 63.75271 
L 287.421053 64.54608 
L 287.91547 62.518577 
L 288.409888 63.664557 
L 288.904306 62.254121 
L 289.398724 61.548902 
L 289.893142 61.372598 
L 290.38756 61.372598 
L 290.881978 62.430425 
L 291.376396 62.077816 
L 291.870813 64.369776 
L 292.365231 63.840862 
L 292.859649 61.46075 
L 293.354067 61.284445 
L 293.848485 62.430425 
L 294.342903 61.372598 
L 294.837321 61.548902 
L 295.331738 63.664557 
L 295.826156 63.488253 
L 296.320574 61.725207 
L 296.814992 62.60673 
L 297.30941 61.46075 
L 297.803828 61.548902 
L 298.298246 62.871187 
L 298.792663 64.54608 
L 299.287081 62.959339 
L 299.781499 64.634233 
L 300.275917 62.783034 
L 300.770335 63.840862 
L 301.264753 63.488253 
L 302.253589 62.518577 
L 302.748006 62.430425 
L 303.242424 63.135644 
L 303.736842 62.871187 
L 304.23126 59.609551 
L 304.725678 62.342273 
L 305.220096 60.843684 
L 305.714514 63.223796 
L 306.208931 63.311948 
L 306.703349 60.138465 
L 307.197767 62.694882 
L 307.692185 64.017167 
L 308.186603 64.986842 
L 308.681021 61.108141 
L 309.175439 62.518577 
L 309.669856 60.050313 
L 310.164274 59.16879 
L 310.658692 59.697704 
L 311.15311 62.165968 
L 311.647528 60.226618 
L 312.141946 62.165968 
L 312.636364 62.871187 
L 313.130781 60.755531 
L 313.625199 61.284445 
L 314.119617 62.694882 
L 314.614035 61.637054 
L 315.108453 63.047491 
L 315.602871 61.196293 
L 316.097289 62.871187 
L 316.591707 62.430425 
L 317.086124 61.46075 
L 317.580542 60.138465 
L 318.07496 60.579227 
L 318.569378 59.874008 
L 319.063796 62.518577 
L 319.558214 62.077816 
L 320.052632 61.989664 
L 320.547049 61.372598 
L 321.041467 62.783034 
L 321.535885 63.135644 
L 322.030303 60.050313 
L 322.524721 60.931836 
L 323.019139 59.521399 
L 323.513557 63.135644 
L 324.007974 63.840862 
L 324.99681 60.138465 
L 325.491228 59.521399 
L 325.985646 60.931836 
L 326.480064 61.725207 
L 326.974482 61.637054 
L 327.4689 61.901511 
L 327.963317 61.725207 
L 328.952153 59.433247 
L 329.446571 61.196293 
L 329.940989 58.199115 
L 330.435407 60.755531 
L 330.929825 60.931836 
L 331.424242 61.901511 
L 331.91866 64.722385 
L 332.413078 61.548902 
L 332.907496 62.077816 
L 333.401914 60.579227 
L 333.896332 60.843684 
L 334.39075 60.402922 
L 334.885167 61.548902 
L 335.379585 61.901511 
L 335.874003 61.637054 
L 336.368421 61.637054 
L 336.862839 60.050313 
L 337.357257 61.372598 
L 337.851675 63.047491 
L 338.346093 63.135644 
L 338.84051 60.050313 
L 339.334928 61.196293 
L 339.829346 60.931836 
L 340.323764 59.874008 
L 340.818182 61.637054 
L 341.3126 59.256942 
L 341.807018 62.430425 
L 342.301435 62.783034 
L 342.795853 59.256942 
L 343.290271 59.962161 
L 343.784689 61.813359 
L 344.279107 64.54608 
L 344.773525 60.050313 
L 345.267943 59.785856 
L 346.751196 60.226618 
L 347.245614 60.931836 
L 347.740032 59.609551 
L 348.23445 62.342273 
L 348.728868 60.755531 
L 349.223285 61.284445 
L 349.717703 61.372598 
L 350.212121 62.165968 
L 350.706539 60.579227 
L 351.200957 60.755531 
L 351.695375 59.874008 
L 352.189793 59.697704 
L 352.684211 61.019988 
L 353.178628 60.226618 
L 353.673046 61.989664 
L 354.167464 61.548902 
L 354.661882 59.256942 
L 355.1563 58.463571 
L 355.650718 60.667379 
L 356.145136 61.813359 
L 357.133971 60.31477 
L 357.628389 57.934658 
L 358.122807 58.992485 
L 358.617225 59.521399 
L 359.111643 61.637054 
L 360.100478 58.110962 
L 360.594896 58.728028 
L 361.089314 58.904333 
L 362.07815 60.667379 
L 362.572568 61.548902 
L 363.066986 60.138465 
L 364.055821 59.697704 
L 364.550239 62.254121 
L 365.044657 58.816181 
L 365.539075 61.019988 
L 366.033493 61.725207 
L 366.527911 59.785856 
L 367.022329 63.223796 
L 367.516746 61.284445 
L 368.011164 59.962161 
L 368.505582 60.050313 
L 369 59.962161 
L 369.494418 58.199115 
L 369.988836 61.989664 
L 370.483254 59.16879 
L 370.977671 60.931836 
L 371.472089 60.31477 
L 371.966507 61.108141 
L 372.460925 59.521399 
L 372.955343 58.728028 
L 373.449761 60.491074 
L 373.944179 60.579227 
L 374.438596 60.491074 
L 374.933014 61.548902 
L 375.427432 60.226618 
L 375.92185 62.430425 
L 376.416268 59.785856 
L 376.910686 59.874008 
L 377.405104 57.493896 
L 377.899522 61.813359 
L 378.393939 61.989664 
L 378.888357 59.080638 
L 379.877193 60.402922 
L 380.371611 59.080638 
L 380.866029 59.785856 
L 381.854864 59.16879 
L 382.8437 60.755531 
L 383.338118 62.518577 
L 383.832536 60.402922 
L 384.326954 60.138465 
L 384.821372 58.816181 
L 385.315789 60.931836 
L 385.810207 59.521399 
L 386.304625 59.785856 
L 386.799043 59.345095 
L 387.293461 58.639876 
L 387.787879 60.755531 
L 388.282297 58.551724 
L 388.776715 60.226618 
L 389.271132 59.962161 
L 389.76555 58.728028 
L 390.259968 58.463571 
L 390.754386 61.108141 
L 391.248804 60.579227 
L 391.743222 58.639876 
L 392.23764 58.992485 
L 392.732057 58.904333 
L 393.226475 61.989664 
L 393.720893 58.199115 
L 394.215311 59.256942 
L 394.709729 58.639876 
L 395.204147 60.755531 
L 395.698565 58.904333 
L 396.192982 59.609551 
L 396.6874 59.785856 
L 397.181818 57.846505 
L 397.676236 61.813359 
L 398.170654 60.31477 
L 398.665072 59.874008 
L 399.15949 58.551724 
L 399.653907 60.31477 
L 400.148325 57.846505 
L 400.642743 57.846505 
L 401.137161 59.256942 
L 401.631579 59.697704 
L 402.125997 60.491074 
L 402.620415 59.345095 
L 403.114833 60.31477 
L 403.60925 58.02281 
L 404.103668 61.725207 
L 404.598086 59.080638 
L 405.092504 60.579227 
L 405.586922 58.728028 
L 406.08134 59.521399 
L 406.575758 59.962161 
L 407.070175 59.16879 
L 407.564593 59.521399 
L 408.059011 60.755531 
L 408.553429 60.402922 
L 409.047847 59.697704 
L 409.542265 60.138465 
L 410.5311 59.256942 
L 411.025518 59.874008 
L 411.519936 58.463571 
L 412.014354 60.931836 
L 412.508772 60.402922 
L 413.00319 60.667379 
L 413.497608 58.992485 
L 413.992026 59.433247 
L 414.486443 62.342273 
L 414.980861 61.196293 
L 415.475279 63.576405 
L 415.969697 60.050313 
L 416.464115 58.639876 
L 416.958533 60.402922 
L 417.452951 57.582048 
L 417.947368 61.019988 
L 418.441786 58.904333 
L 418.936204 60.402922 
L 419.430622 59.080638 
L 419.92504 57.405744 
L 420.419458 60.579227 
L 420.913876 59.697704 
L 421.408293 60.667379 
L 421.902711 58.110962 
L 422.397129 58.992485 
L 422.891547 57.493896 
L 423.385965 61.813359 
L 423.880383 60.843684 
L 424.374801 58.375419 
L 424.869219 58.639876 
L 425.363636 58.551724 
L 425.858054 59.521399 
L 426.352472 58.199115 
L 426.84689 57.493896 
L 427.341308 58.992485 
L 427.835726 59.521399 
L 428.330144 60.579227 
L 428.824561 60.667379 
L 429.318979 60.491074 
L 429.813397 57.493896 
L 430.802233 59.433247 
L 431.296651 59.521399 
L 431.791069 59.256942 
L 432.285486 59.521399 
L 432.779904 58.375419 
L 433.274322 60.843684 
L 433.76874 58.816181 
L 434.757576 57.934658 
L 435.251994 58.287267 
L 435.746411 59.16879 
L 436.240829 56.87683 
L 437.229665 60.31477 
L 437.724083 58.463571 
L 438.218501 60.755531 
L 438.712919 59.080638 
L 439.207337 61.196293 
L 439.701754 58.287267 
L 440.196172 57.141287 
L 440.69059 58.02281 
L 441.185008 60.667379 
L 441.679426 58.728028 
L 442.173844 58.728028 
L 442.668262 58.904333 
L 443.162679 61.108141 
L 443.657097 59.080638 
L 444.151515 60.491074 
L 444.645933 58.199115 
L 445.140351 59.16879 
L 445.634769 58.816181 
L 446.129187 58.816181 
L 446.623604 59.697704 
L 447.118022 61.196293 
L 447.61244 61.548902 
L 448.106858 59.433247 
L 448.601276 59.962161 
L 449.095694 59.521399 
L 449.590112 57.493896 
L 450.08453 59.080638 
L 450.578947 59.697704 
L 451.073365 59.609551 
L 451.567783 60.226618 
L 452.062201 58.728028 
L 452.556619 60.667379 
L 453.051037 60.226618 
L 453.545455 58.992485 
L 454.53429 61.901511 
L 455.028708 58.199115 
L 455.523126 59.345095 
L 456.017544 58.904333 
L 456.511962 60.138465 
L 457.00638 57.405744 
L 457.500797 59.785856 
L 457.995215 58.110962 
L 458.489633 57.670201 
L 458.984051 59.345095 
L 459.478469 59.697704 
L 459.972887 59.433247 
L 460.961722 58.199115 
L 461.45614 61.372598 
L 461.950558 58.551724 
L 462.444976 59.521399 
L 463.433812 57.670201 
L 463.92823 59.874008 
L 464.422648 59.962161 
L 464.917065 59.521399 
L 465.411483 57.493896 
L 465.905901 59.345095 
L 466.400319 57.934658 
L 466.894737 58.816181 
L 467.389155 58.199115 
L 467.883573 58.287267 
L 468.37799 58.551724 
L 468.872408 59.697704 
L 469.366826 59.609551 
L 469.861244 59.697704 
L 470.355662 60.138465 
L 470.85008 59.345095 
L 471.344498 59.874008 
L 471.838915 61.108141 
L 472.333333 58.110962 
L 472.827751 60.402922 
L 473.322169 58.551724 
L 473.816587 59.433247 
L 474.311005 59.697704 
L 474.805423 59.256942 
L 475.299841 57.934658 
L 475.794258 58.375419 
L 476.288676 57.317592 
L 476.783094 58.992485 
L 477.277512 59.16879 
L 477.77193 58.02281 
L 478.266348 58.992485 
L 478.760766 59.697704 
L 479.255183 59.697704 
L 480.244019 58.904333 
L 480.738437 57.934658 
L 481.232855 59.256942 
L 481.727273 57.758353 
L 482.221691 60.755531 
L 482.716108 57.493896 
L 483.210526 58.904333 
L 483.704944 56.700525 
L 484.199362 59.256942 
L 484.69378 58.551724 
L 485.188198 57.317592 
L 485.682616 61.637054 
L 486.177033 58.992485 
L 486.671451 59.345095 
L 487.165869 58.992485 
L 487.660287 57.934658 
L 488.154705 57.317592 
L 488.649123 58.639876 
L 489.143541 60.31477 
L 489.637959 59.345095 
L 490.132376 59.433247 
L 490.626794 59.345095 
L 491.121212 58.02281 
L 491.61563 59.697704 
L 492.110048 57.317592 
L 492.604466 58.287267 
L 493.098884 57.493896 
L 493.593301 58.639876 
L 494.087719 58.904333 
L 494.582137 57.758353 
L 495.076555 58.110962 
L 495.570973 59.16879 
L 496.065391 59.609551 
L 496.559809 56.524221 
L 497.054226 56.788678 
L 497.548644 59.521399 
L 498.043062 58.463571 
L 498.53748 59.697704 
L 499.031898 57.141287 
L 499.526316 58.639876 
L 500.020734 58.904333 
L 500.515152 58.728028 
L 501.009569 59.256942 
L 501.503987 58.816181 
L 501.998405 57.846505 
L 502.492823 61.548902 
L 502.987241 60.579227 
L 503.481659 58.816181 
L 503.976077 59.521399 
L 504.470494 58.110962 
L 504.964912 58.375419 
L 505.45933 59.609551 
L 505.953748 58.551724 
L 506.448166 58.199115 
L 506.942584 59.256942 
L 507.437002 58.992485 
L 507.931419 59.256942 
L 508.425837 59.962161 
L 508.920255 58.287267 
L 509.414673 60.402922 
L 509.909091 59.609551 
L 510.403509 58.375419 
L 510.897927 58.992485 
L 511.392344 57.405744 
L 511.886762 57.229439 
L 512.38118 56.87683 
L 512.875598 58.199115 
L 513.370016 57.758353 
L 513.864434 59.785856 
L 514.358852 58.463571 
L 514.85327 58.110962 
L 515.347687 59.609551 
L 515.842105 58.551724 
L 516.336523 58.110962 
L 517.325359 59.256942 
L 517.819777 60.843684 
L 518.314195 57.758353 
L 518.808612 58.992485 
L 519.797448 57.934658 
L 520.291866 58.375419 
L 520.786284 58.639876 
L 521.280702 56.87683 
L 521.77512 60.402922 
L 522.269537 59.521399 
L 522.763955 56.87683 
L 523.258373 57.846505 
L 523.752791 58.287267 
L 524.247209 57.670201 
L 524.741627 57.405744 
L 525.236045 56.612373 
L 525.730463 59.256942 
L 526.22488 57.405744 
L 526.719298 58.287267 
L 527.213716 57.229439 
L 527.708134 58.992485 
L 528.202552 57.934658 
L 528.69697 57.670201 
L 529.191388 59.697704 
L 529.685805 60.667379 
L 530.180223 57.493896 
L 530.674641 57.846505 
L 531.169059 59.609551 
L 531.663477 57.846505 
L 532.157895 59.785856 
L 533.641148 58.463571 
L 534.135566 58.199115 
L 534.629984 58.551724 
L 535.124402 58.463571 
L 535.61882 56.612373 
L 536.113238 60.402922 
L 536.607656 60.843684 
L 537.102073 58.904333 
L 537.596491 59.609551 
L 538.090909 59.16879 
L 538.585327 56.788678 
L 539.079745 57.582048 
L 539.574163 58.02281 
L 540.068581 55.819002 
L 540.562998 59.521399 
L 541.057416 57.670201 
L 541.551834 60.755531 
L 542.046252 59.16879 
L 542.54067 58.375419 
L 543.035088 59.080638 
L 543.529506 58.375419 
L 544.023923 58.816181 
L 544.518341 57.846505 
L 545.012759 58.287267 
L 545.507177 56.87683 
L 546.001595 60.138465 
L 546.496013 57.934658 
L 547.484848 59.080638 
L 547.979266 58.375419 
L 548.473684 59.256942 
L 548.968102 58.816181 
L 549.46252 58.639876 
L 549.956938 58.639876 
L 550.451356 58.199115 
L 550.945774 57.405744 
L 551.440191 59.345095 
L 551.934609 57.493896 
L 552.429027 59.433247 
L 552.923445 58.02281 
L 553.417863 57.053135 
L 553.912281 57.670201 
L 554.406699 58.904333 
L 554.901116 58.287267 
L 555.889952 58.551724 
L 556.38437 57.405744 
L 556.878788 59.16879 
L 557.373206 58.287267 
L 557.867624 59.874008 
L 558.362041 56.436068 
L 558.856459 58.728028 
L 559.350877 57.670201 
L 559.845295 55.73085 
L 560.339713 57.141287 
L 560.834131 59.874008 
L 561.328549 57.846505 
L 561.822967 57.141287 
L 562.317384 58.02281 
L 562.811802 57.229439 
L 563.30622 58.375419 
L 565.283892 59.874008 
L 565.778309 57.758353 
L 566.272727 59.256942 
L 566.767145 59.256942 
L 567.261563 59.874008 
L 567.755981 58.375419 
L 568.250399 57.670201 
L 568.744817 59.962161 
L 569.239234 58.199115 
L 569.733652 59.256942 
L 570.22807 58.110962 
L 570.722488 58.992485 
L 571.216906 57.758353 
L 571.711324 58.639876 
L 572.205742 56.347916 
L 572.700159 58.110962 
L 573.194577 58.110962 
L 573.688995 57.758353 
L 574.183413 57.846505 
L 574.677831 58.639876 
L 575.172249 60.491074 
L 575.666667 59.256942 
L 576.161085 57.229439 
L 576.655502 57.846505 
L 577.14992 59.874008 
L 577.644338 58.375419 
L 578.138756 59.609551 
L 578.633174 55.73085 
L 579.127592 58.463571 
L 579.62201 55.73085 
L 580.116427 57.493896 
L 580.610845 58.287267 
L 581.105263 58.375419 
L 581.599681 59.080638 
L 582.094099 56.700525 
L 582.588517 59.16879 
L 583.082935 57.229439 
L 583.577352 58.639876 
L 584.07177 58.375419 
L 584.566188 57.493896 
L 585.060606 59.080638 
L 585.555024 58.728028 
L 586.049442 59.256942 
L 586.54386 57.582048 
L 587.038278 57.670201 
L 587.532695 58.199115 
L 588.027113 57.229439 
L 588.521531 57.758353 
L 589.015949 57.758353 
L 589.510367 56.87683 
L 590.004785 60.050313 
L 590.99362 58.463571 
L 591.488038 57.405744 
L 591.982456 59.609551 
L 592.476874 59.256942 
L 592.971292 59.16879 
L 593.46571 61.196293 
L 593.960128 57.670201 
L 594.454545 59.080638 
L 594.948963 59.256942 
L 595.937799 57.846505 
L 596.432217 58.287267 
L 596.926635 59.697704 
L 597.421053 58.199115 
L 597.91547 58.463571 
L 598.409888 58.287267 
L 598.904306 57.846505 
L 599.398724 55.819002 
L 599.893142 58.728028 
L 600.38756 57.670201 
L 600.881978 57.758353 
L 601.376396 58.551724 
L 601.870813 57.582048 
L 602.365231 58.992485 
L 602.859649 56.524221 
L 603.354067 56.259764 
L 603.848485 55.554545 
L 604.342903 57.493896 
L 604.837321 57.141287 
L 605.331738 58.02281 
L 605.826156 58.551724 
L 606.814992 58.110962 
L 607.30941 59.433247 
L 607.803828 58.551724 
L 608.298246 57.405744 
L 608.792663 59.16879 
L 609.287081 58.375419 
L 609.781499 58.463571 
L 610.275917 58.110962 
L 610.770335 60.050313 
L 611.264753 58.375419 
L 611.759171 57.670201 
L 612.253589 57.758353 
L 612.748006 59.080638 
L 613.242424 57.758353 
L 613.736842 59.345095 
L 614.23126 57.493896 
L 614.725678 60.226618 
L 615.220096 60.138465 
L 615.714514 57.229439 
L 616.208931 58.110962 
L 616.703349 58.199115 
L 617.197767 60.491074 
L 617.692185 57.846505 
L 618.681021 59.256942 
L 619.175439 56.612373 
L 619.669856 58.110962 
L 620.164274 58.463571 
L 620.658692 56.964982 
L 621.15311 56.612373 
L 621.647528 56.524221 
L 622.141946 58.728028 
L 622.636364 58.463571 
L 622.636364 58.463571 
" style="fill:none;stroke:#ff7f0e;stroke-linecap:square;stroke-width:0.5;"/>
   </g>
   <g id="patch_3">
    <path d="M 90 315 
L 90 43.2 
" style="fill:none;stroke:#000000;stroke-linecap:square;stroke-linejoin:miter;stroke-width:0.8;"/>
   </g>
   <g id="patch_4">
    <path d="M 648 315 
L 648 43.2 
" style="fill:none;stroke:#000000;stroke-linecap:square;stroke-linejoin:miter;stroke-width:0.8;"/>
   </g>
   <g id="patch_5">
    <path d="M 90 315 
L 648 315 
" style="fill:none;stroke:#000000;stroke-linecap:square;stroke-linejoin:miter;stroke-width:0.8;"/>
   </g>
   <g id="patch_6">
    <path d="M 90 43.2 
L 648 43.2 
" style="fill:none;stroke:#000000;stroke-linecap:square;stroke-linejoin:miter;stroke-width:0.8;"/>
   </g>
   <g id="text_16">
    <!-- accuracy -->
    <g transform="translate(341.92875 37.2)scale(0.12 -0.12)">
     <use xlink:href="#DejaVuSans-97"/>
     <use x="61.279297" xlink:href="#DejaVuSans-99"/>
     <use x="116.259766" xlink:href="#DejaVuSans-99"/>
     <use x="171.240234" xlink:href="#DejaVuSans-117"/>
     <use x="234.619141" xlink:href="#DejaVuSans-114"/>
     <use x="275.732422" xlink:href="#DejaVuSans-97"/>
     <use x="337.011719" xlink:href="#DejaVuSans-99"/>
     <use x="391.992188" xlink:href="#DejaVuSans-121"/>
    </g>
   </g>
   <g id="legend_1">
    <g id="patch_7">
     <path d="M 97 80.55625 
L 169.153125 80.55625 
Q 171.153125 80.55625 171.153125 78.55625 
L 171.153125 50.2 
Q 171.153125 48.2 169.153125 48.2 
L 97 48.2 
Q 95 48.2 95 50.2 
L 95 78.55625 
Q 95 80.55625 97 80.55625 
z
" style="fill:#ffffff;opacity:0.8;stroke:#cccccc;stroke-linejoin:miter;"/>
    </g>
    <g id="line2d_29">
     <path d="M 99 56.298437 
L 119 56.298437 
" style="fill:none;stroke:#1f77b4;stroke-linecap:square;stroke-width:0.5;"/>
    </g>
    <g id="line2d_30"/>
    <g id="text_17">
     <!-- train -->
     <defs>
      <path d="M 18.3125 70.21875 
L 18.3125 54.6875 
L 36.8125 54.6875 
L 36.8125 47.703125 
L 18.3125 47.703125 
L 18.3125 18.015625 
Q 18.3125 11.328125 20.140625 9.421875 
Q 21.96875 7.515625 27.59375 7.515625 
L 36.8125 7.515625 
L 36.8125 0 
L 27.59375 0 
Q 17.1875 0 13.234375 3.875 
Q 9.28125 7.765625 9.28125 18.015625 
L 9.28125 47.703125 
L 2.6875 47.703125 
L 2.6875 54.6875 
L 9.28125 54.6875 
L 9.28125 70.21875 
z
" id="DejaVuSans-116"/>
      <path d="M 9.421875 54.6875 
L 18.40625 54.6875 
L 18.40625 0 
L 9.421875 0 
z
M 9.421875 75.984375 
L 18.40625 75.984375 
L 18.40625 64.59375 
L 9.421875 64.59375 
z
" id="DejaVuSans-105"/>
      <path d="M 54.890625 33.015625 
L 54.890625 0 
L 45.90625 0 
L 45.90625 32.71875 
Q 45.90625 40.484375 42.875 44.328125 
Q 39.84375 48.1875 33.796875 48.1875 
Q 26.515625 48.1875 22.3125 43.546875 
Q 18.109375 38.921875 18.109375 30.90625 
L 18.109375 0 
L 9.078125 0 
L 9.078125 54.6875 
L 18.109375 54.6875 
L 18.109375 46.1875 
Q 21.34375 51.125 25.703125 53.5625 
Q 30.078125 56 35.796875 56 
Q 45.21875 56 50.046875 50.171875 
Q 54.890625 44.34375 54.890625 33.015625 
z
" id="DejaVuSans-110"/>
     </defs>
     <g transform="translate(127 59.798437)scale(0.1 -0.1)">
      <use xlink:href="#DejaVuSans-116"/>
      <use x="39.208984" xlink:href="#DejaVuSans-114"/>
      <use x="80.322266" xlink:href="#DejaVuSans-97"/>
      <use x="141.601562" xlink:href="#DejaVuSans-105"/>
      <use x="169.384766" xlink:href="#DejaVuSans-110"/>
     </g>
    </g>
    <g id="line2d_31">
     <path d="M 99 70.976562 
L 119 70.976562 
" style="fill:none;stroke:#ff7f0e;stroke-linecap:square;stroke-width:0.5;"/>
    </g>
    <g id="line2d_32"/>
    <g id="text_18">
     <!-- validate -->
     <defs>
      <path d="M 2.984375 54.6875 
L 12.5 54.6875 
L 29.59375 8.796875 
L 46.6875 54.6875 
L 56.203125 54.6875 
L 35.6875 0 
L 23.484375 0 
z
" id="DejaVuSans-118"/>
      <path d="M 9.421875 75.984375 
L 18.40625 75.984375 
L 18.40625 0 
L 9.421875 0 
z
" id="DejaVuSans-108"/>
      <path d="M 45.40625 46.390625 
L 45.40625 75.984375 
L 54.390625 75.984375 
L 54.390625 0 
L 45.40625 0 
L 45.40625 8.203125 
Q 42.578125 3.328125 38.25 0.953125 
Q 33.9375 -1.421875 27.875 -1.421875 
Q 17.96875 -1.421875 11.734375 6.484375 
Q 5.515625 14.40625 5.515625 27.296875 
Q 5.515625 40.1875 11.734375 48.09375 
Q 17.96875 56 27.875 56 
Q 33.9375 56 38.25 53.625 
Q 42.578125 51.265625 45.40625 46.390625 
z
M 14.796875 27.296875 
Q 14.796875 17.390625 18.875 11.75 
Q 22.953125 6.109375 30.078125 6.109375 
Q 37.203125 6.109375 41.296875 11.75 
Q 45.40625 17.390625 45.40625 27.296875 
Q 45.40625 37.203125 41.296875 42.84375 
Q 37.203125 48.484375 30.078125 48.484375 
Q 22.953125 48.484375 18.875 42.84375 
Q 14.796875 37.203125 14.796875 27.296875 
z
" id="DejaVuSans-100"/>
     </defs>
     <g transform="translate(127 74.476562)scale(0.1 -0.1)">
      <use xlink:href="#DejaVuSans-118"/>
      <use x="59.179688" xlink:href="#DejaVuSans-97"/>
      <use x="120.458984" xlink:href="#DejaVuSans-108"/>
      <use x="148.242188" xlink:href="#DejaVuSans-105"/>
      <use x="176.025391" xlink:href="#DejaVuSans-100"/>
      <use x="239.501953" xlink:href="#DejaVuSans-97"/>
      <use x="300.78125" xlink:href="#DejaVuSans-116"/>
      <use x="339.990234" xlink:href="#DejaVuSans-101"/>
     </g>
    </g>
   </g>
  </g>
 </g>
 <defs>
  <clipPath id="p890a63e06e">
   <rect height="271.8" width="558" x="90" y="43.2"/>
  </clipPath>
 </defs>
</svg>
