<?xml version="1.0" encoding="utf-8" standalone="no"?>
<!DOCTYPE svg PUBLIC "-//W3C//DTD SVG 1.1//EN"
  "http://www.w3.org/Graphics/SVG/1.1/DTD/svg11.dtd">
<!-- Created with matplotlib (https://matplotlib.org/) -->
<svg height="360pt" version="1.1" viewBox="0 0 720 360" width="720pt" xmlns="http://www.w3.org/2000/svg" xmlns:xlink="http://www.w3.org/1999/xlink">
 <defs>
  <style type="text/css">
*{stroke-linecap:butt;stroke-linejoin:round;}
  </style>
 </defs>
 <g id="figure_1">
  <g id="patch_1">
   <path d="M 0 360 
L 720 360 
L 720 0 
L 0 0 
z
" style="fill:#ffffff;"/>
  </g>
  <g id="axes_1">
   <g id="patch_2">
    <path d="M 90 315 
L 648 315 
L 648 43.2 
L 90 43.2 
z
" style="fill:#ffffff;"/>
   </g>
   <g id="matplotlib.axis_1">
    <g id="xtick_1">
     <g id="line2d_1">
      <path clip-path="url(#p2f056f7e17)" d="M 115.363636 315 
L 115.363636 43.2 
" style="fill:none;stroke:#b0b0b0;stroke-linecap:square;stroke-width:0.8;"/>
     </g>
     <g id="line2d_2">
      <defs>
       <path d="M 0 0 
L 0 3.5 
" id="me32a09bd2d" style="stroke:#000000;stroke-width:0.8;"/>
      </defs>
      <g>
       <use style="stroke:#000000;stroke-width:0.8;" x="115.363636" xlink:href="#me32a09bd2d" y="315"/>
      </g>
     </g>
     <g id="text_1">
      <!-- 0 -->
      <defs>
       <path d="M 31.78125 66.40625 
Q 24.171875 66.40625 20.328125 58.90625 
Q 16.5 51.421875 16.5 36.375 
Q 16.5 21.390625 20.328125 13.890625 
Q 24.171875 6.390625 31.78125 6.390625 
Q 39.453125 6.390625 43.28125 13.890625 
Q 47.125 21.390625 47.125 36.375 
Q 47.125 51.421875 43.28125 58.90625 
Q 39.453125 66.40625 31.78125 66.40625 
z
M 31.78125 74.21875 
Q 44.046875 74.21875 50.515625 64.515625 
Q 56.984375 54.828125 56.984375 36.375 
Q 56.984375 17.96875 50.515625 8.265625 
Q 44.046875 -1.421875 31.78125 -1.421875 
Q 19.53125 -1.421875 13.0625 8.265625 
Q 6.59375 17.96875 6.59375 36.375 
Q 6.59375 54.828125 13.0625 64.515625 
Q 19.53125 74.21875 31.78125 74.21875 
z
" id="DejaVuSans-48"/>
      </defs>
      <g transform="translate(112.182386 329.598437)scale(0.1 -0.1)">
       <use xlink:href="#DejaVuSans-48"/>
      </g>
     </g>
    </g>
    <g id="xtick_2">
     <g id="line2d_3">
      <path clip-path="url(#p2f056f7e17)" d="M 221.376746 315 
L 221.376746 43.2 
" style="fill:none;stroke:#b0b0b0;stroke-linecap:square;stroke-width:0.8;"/>
     </g>
     <g id="line2d_4">
      <g>
       <use style="stroke:#000000;stroke-width:0.8;" x="221.376746" xlink:href="#me32a09bd2d" y="315"/>
      </g>
     </g>
     <g id="text_2">
      <!-- 200 -->
      <defs>
       <path d="M 19.1875 8.296875 
L 53.609375 8.296875 
L 53.609375 0 
L 7.328125 0 
L 7.328125 8.296875 
Q 12.9375 14.109375 22.625 23.890625 
Q 32.328125 33.6875 34.8125 36.53125 
Q 39.546875 41.84375 41.421875 45.53125 
Q 43.3125 49.21875 43.3125 52.78125 
Q 43.3125 58.59375 39.234375 62.25 
Q 35.15625 65.921875 28.609375 65.921875 
Q 23.96875 65.921875 18.8125 64.3125 
Q 13.671875 62.703125 7.8125 59.421875 
L 7.8125 69.390625 
Q 13.765625 71.78125 18.9375 73 
Q 24.125 74.21875 28.421875 74.21875 
Q 39.75 74.21875 46.484375 68.546875 
Q 53.21875 62.890625 53.21875 53.421875 
Q 53.21875 48.921875 51.53125 44.890625 
Q 49.859375 40.875 45.40625 35.40625 
Q 44.1875 33.984375 37.640625 27.21875 
Q 31.109375 20.453125 19.1875 8.296875 
z
" id="DejaVuSans-50"/>
      </defs>
      <g transform="translate(211.832996 329.598437)scale(0.1 -0.1)">
       <use xlink:href="#DejaVuSans-50"/>
       <use x="63.623047" xlink:href="#DejaVuSans-48"/>
       <use x="127.246094" xlink:href="#DejaVuSans-48"/>
      </g>
     </g>
    </g>
    <g id="xtick_3">
     <g id="line2d_5">
      <path clip-path="url(#p2f056f7e17)" d="M 327.389855 315 
L 327.389855 43.2 
" style="fill:none;stroke:#b0b0b0;stroke-linecap:square;stroke-width:0.8;"/>
     </g>
     <g id="line2d_6">
      <g>
       <use style="stroke:#000000;stroke-width:0.8;" x="327.389855" xlink:href="#me32a09bd2d" y="315"/>
      </g>
     </g>
     <g id="text_3">
      <!-- 400 -->
      <defs>
       <path d="M 37.796875 64.3125 
L 12.890625 25.390625 
L 37.796875 25.390625 
z
M 35.203125 72.90625 
L 47.609375 72.90625 
L 47.609375 25.390625 
L 58.015625 25.390625 
L 58.015625 17.1875 
L 47.609375 17.1875 
L 47.609375 0 
L 37.796875 0 
L 37.796875 17.1875 
L 4.890625 17.1875 
L 4.890625 26.703125 
z
" id="DejaVuSans-52"/>
      </defs>
      <g transform="translate(317.846105 329.598437)scale(0.1 -0.1)">
       <use xlink:href="#DejaVuSans-52"/>
       <use x="63.623047" xlink:href="#DejaVuSans-48"/>
       <use x="127.246094" xlink:href="#DejaVuSans-48"/>
      </g>
     </g>
    </g>
    <g id="xtick_4">
     <g id="line2d_7">
      <path clip-path="url(#p2f056f7e17)" d="M 433.402964 315 
L 433.402964 43.2 
" style="fill:none;stroke:#b0b0b0;stroke-linecap:square;stroke-width:0.8;"/>
     </g>
     <g id="line2d_8">
      <g>
       <use style="stroke:#000000;stroke-width:0.8;" x="433.402964" xlink:href="#me32a09bd2d" y="315"/>
      </g>
     </g>
     <g id="text_4">
      <!-- 600 -->
      <defs>
       <path d="M 33.015625 40.375 
Q 26.375 40.375 22.484375 35.828125 
Q 18.609375 31.296875 18.609375 23.390625 
Q 18.609375 15.53125 22.484375 10.953125 
Q 26.375 6.390625 33.015625 6.390625 
Q 39.65625 6.390625 43.53125 10.953125 
Q 47.40625 15.53125 47.40625 23.390625 
Q 47.40625 31.296875 43.53125 35.828125 
Q 39.65625 40.375 33.015625 40.375 
z
M 52.59375 71.296875 
L 52.59375 62.3125 
Q 48.875 64.0625 45.09375 64.984375 
Q 41.3125 65.921875 37.59375 65.921875 
Q 27.828125 65.921875 22.671875 59.328125 
Q 17.53125 52.734375 16.796875 39.40625 
Q 19.671875 43.65625 24.015625 45.921875 
Q 28.375 48.1875 33.59375 48.1875 
Q 44.578125 48.1875 50.953125 41.515625 
Q 57.328125 34.859375 57.328125 23.390625 
Q 57.328125 12.15625 50.6875 5.359375 
Q 44.046875 -1.421875 33.015625 -1.421875 
Q 20.359375 -1.421875 13.671875 8.265625 
Q 6.984375 17.96875 6.984375 36.375 
Q 6.984375 53.65625 15.1875 63.9375 
Q 23.390625 74.21875 37.203125 74.21875 
Q 40.921875 74.21875 44.703125 73.484375 
Q 48.484375 72.75 52.59375 71.296875 
z
" id="DejaVuSans-54"/>
      </defs>
      <g transform="translate(423.859214 329.598437)scale(0.1 -0.1)">
       <use xlink:href="#DejaVuSans-54"/>
       <use x="63.623047" xlink:href="#DejaVuSans-48"/>
       <use x="127.246094" xlink:href="#DejaVuSans-48"/>
      </g>
     </g>
    </g>
    <g id="xtick_5">
     <g id="line2d_9">
      <path clip-path="url(#p2f056f7e17)" d="M 539.416073 315 
L 539.416073 43.2 
" style="fill:none;stroke:#b0b0b0;stroke-linecap:square;stroke-width:0.8;"/>
     </g>
     <g id="line2d_10">
      <g>
       <use style="stroke:#000000;stroke-width:0.8;" x="539.416073" xlink:href="#me32a09bd2d" y="315"/>
      </g>
     </g>
     <g id="text_5">
      <!-- 800 -->
      <defs>
       <path d="M 31.78125 34.625 
Q 24.75 34.625 20.71875 30.859375 
Q 16.703125 27.09375 16.703125 20.515625 
Q 16.703125 13.921875 20.71875 10.15625 
Q 24.75 6.390625 31.78125 6.390625 
Q 38.8125 6.390625 42.859375 10.171875 
Q 46.921875 13.96875 46.921875 20.515625 
Q 46.921875 27.09375 42.890625 30.859375 
Q 38.875 34.625 31.78125 34.625 
z
M 21.921875 38.8125 
Q 15.578125 40.375 12.03125 44.71875 
Q 8.5 49.078125 8.5 55.328125 
Q 8.5 64.0625 14.71875 69.140625 
Q 20.953125 74.21875 31.78125 74.21875 
Q 42.671875 74.21875 48.875 69.140625 
Q 55.078125 64.0625 55.078125 55.328125 
Q 55.078125 49.078125 51.53125 44.71875 
Q 48 40.375 41.703125 38.8125 
Q 48.828125 37.15625 52.796875 32.3125 
Q 56.78125 27.484375 56.78125 20.515625 
Q 56.78125 9.90625 50.3125 4.234375 
Q 43.84375 -1.421875 31.78125 -1.421875 
Q 19.734375 -1.421875 13.25 4.234375 
Q 6.78125 9.90625 6.78125 20.515625 
Q 6.78125 27.484375 10.78125 32.3125 
Q 14.796875 37.15625 21.921875 38.8125 
z
M 18.3125 54.390625 
Q 18.3125 48.734375 21.84375 45.5625 
Q 25.390625 42.390625 31.78125 42.390625 
Q 38.140625 42.390625 41.71875 45.5625 
Q 45.3125 48.734375 45.3125 54.390625 
Q 45.3125 60.0625 41.71875 63.234375 
Q 38.140625 66.40625 31.78125 66.40625 
Q 25.390625 66.40625 21.84375 63.234375 
Q 18.3125 60.0625 18.3125 54.390625 
z
" id="DejaVuSans-56"/>
      </defs>
      <g transform="translate(529.872323 329.598437)scale(0.1 -0.1)">
       <use xlink:href="#DejaVuSans-56"/>
       <use x="63.623047" xlink:href="#DejaVuSans-48"/>
       <use x="127.246094" xlink:href="#DejaVuSans-48"/>
      </g>
     </g>
    </g>
    <g id="xtick_6">
     <g id="line2d_11">
      <path clip-path="url(#p2f056f7e17)" d="M 645.429182 315 
L 645.429182 43.2 
" style="fill:none;stroke:#b0b0b0;stroke-linecap:square;stroke-width:0.8;"/>
     </g>
     <g id="line2d_12">
      <g>
       <use style="stroke:#000000;stroke-width:0.8;" x="645.429182" xlink:href="#me32a09bd2d" y="315"/>
      </g>
     </g>
     <g id="text_6">
      <!-- 1000 -->
      <defs>
       <path d="M 12.40625 8.296875 
L 28.515625 8.296875 
L 28.515625 63.921875 
L 10.984375 60.40625 
L 10.984375 69.390625 
L 28.421875 72.90625 
L 38.28125 72.90625 
L 38.28125 8.296875 
L 54.390625 8.296875 
L 54.390625 0 
L 12.40625 0 
z
" id="DejaVuSans-49"/>
      </defs>
      <g transform="translate(632.704182 329.598437)scale(0.1 -0.1)">
       <use xlink:href="#DejaVuSans-49"/>
       <use x="63.623047" xlink:href="#DejaVuSans-48"/>
       <use x="127.246094" xlink:href="#DejaVuSans-48"/>
       <use x="190.869141" xlink:href="#DejaVuSans-48"/>
      </g>
     </g>
    </g>
    <g id="text_7">
     <!-- epoch -->
     <defs>
      <path d="M 56.203125 29.59375 
L 56.203125 25.203125 
L 14.890625 25.203125 
Q 15.484375 15.921875 20.484375 11.0625 
Q 25.484375 6.203125 34.421875 6.203125 
Q 39.59375 6.203125 44.453125 7.46875 
Q 49.3125 8.734375 54.109375 11.28125 
L 54.109375 2.78125 
Q 49.265625 0.734375 44.1875 -0.34375 
Q 39.109375 -1.421875 33.890625 -1.421875 
Q 20.796875 -1.421875 13.15625 6.1875 
Q 5.515625 13.8125 5.515625 26.8125 
Q 5.515625 40.234375 12.765625 48.109375 
Q 20.015625 56 32.328125 56 
Q 43.359375 56 49.78125 48.890625 
Q 56.203125 41.796875 56.203125 29.59375 
z
M 47.21875 32.234375 
Q 47.125 39.59375 43.09375 43.984375 
Q 39.0625 48.390625 32.421875 48.390625 
Q 24.90625 48.390625 20.390625 44.140625 
Q 15.875 39.890625 15.1875 32.171875 
z
" id="DejaVuSans-101"/>
      <path d="M 18.109375 8.203125 
L 18.109375 -20.796875 
L 9.078125 -20.796875 
L 9.078125 54.6875 
L 18.109375 54.6875 
L 18.109375 46.390625 
Q 20.953125 51.265625 25.265625 53.625 
Q 29.59375 56 35.59375 56 
Q 45.5625 56 51.78125 48.09375 
Q 58.015625 40.1875 58.015625 27.296875 
Q 58.015625 14.40625 51.78125 6.484375 
Q 45.5625 -1.421875 35.59375 -1.421875 
Q 29.59375 -1.421875 25.265625 0.953125 
Q 20.953125 3.328125 18.109375 8.203125 
z
M 48.6875 27.296875 
Q 48.6875 37.203125 44.609375 42.84375 
Q 40.53125 48.484375 33.40625 48.484375 
Q 26.265625 48.484375 22.1875 42.84375 
Q 18.109375 37.203125 18.109375 27.296875 
Q 18.109375 17.390625 22.1875 11.75 
Q 26.265625 6.109375 33.40625 6.109375 
Q 40.53125 6.109375 44.609375 11.75 
Q 48.6875 17.390625 48.6875 27.296875 
z
" id="DejaVuSans-112"/>
      <path d="M 30.609375 48.390625 
Q 23.390625 48.390625 19.1875 42.75 
Q 14.984375 37.109375 14.984375 27.296875 
Q 14.984375 17.484375 19.15625 11.84375 
Q 23.34375 6.203125 30.609375 6.203125 
Q 37.796875 6.203125 41.984375 11.859375 
Q 46.1875 17.53125 46.1875 27.296875 
Q 46.1875 37.015625 41.984375 42.703125 
Q 37.796875 48.390625 30.609375 48.390625 
z
M 30.609375 56 
Q 42.328125 56 49.015625 48.375 
Q 55.71875 40.765625 55.71875 27.296875 
Q 55.71875 13.875 49.015625 6.21875 
Q 42.328125 -1.421875 30.609375 -1.421875 
Q 18.84375 -1.421875 12.171875 6.21875 
Q 5.515625 13.875 5.515625 27.296875 
Q 5.515625 40.765625 12.171875 48.375 
Q 18.84375 56 30.609375 56 
z
" id="DejaVuSans-111"/>
      <path d="M 48.78125 52.59375 
L 48.78125 44.1875 
Q 44.96875 46.296875 41.140625 47.34375 
Q 37.3125 48.390625 33.40625 48.390625 
Q 24.65625 48.390625 19.8125 42.84375 
Q 14.984375 37.3125 14.984375 27.296875 
Q 14.984375 17.28125 19.8125 11.734375 
Q 24.65625 6.203125 33.40625 6.203125 
Q 37.3125 6.203125 41.140625 7.25 
Q 44.96875 8.296875 48.78125 10.40625 
L 48.78125 2.09375 
Q 45.015625 0.34375 40.984375 -0.53125 
Q 36.96875 -1.421875 32.421875 -1.421875 
Q 20.0625 -1.421875 12.78125 6.34375 
Q 5.515625 14.109375 5.515625 27.296875 
Q 5.515625 40.671875 12.859375 48.328125 
Q 20.21875 56 33.015625 56 
Q 37.15625 56 41.109375 55.140625 
Q 45.0625 54.296875 48.78125 52.59375 
z
" id="DejaVuSans-99"/>
      <path d="M 54.890625 33.015625 
L 54.890625 0 
L 45.90625 0 
L 45.90625 32.71875 
Q 45.90625 40.484375 42.875 44.328125 
Q 39.84375 48.1875 33.796875 48.1875 
Q 26.515625 48.1875 22.3125 43.546875 
Q 18.109375 38.921875 18.109375 30.90625 
L 18.109375 0 
L 9.078125 0 
L 9.078125 75.984375 
L 18.109375 75.984375 
L 18.109375 46.1875 
Q 21.34375 51.125 25.703125 53.5625 
Q 30.078125 56 35.796875 56 
Q 45.21875 56 50.046875 50.171875 
Q 54.890625 44.34375 54.890625 33.015625 
z
" id="DejaVuSans-104"/>
     </defs>
     <g transform="translate(353.771875 343.276563)scale(0.1 -0.1)">
      <use xlink:href="#DejaVuSans-101"/>
      <use x="61.523438" xlink:href="#DejaVuSans-112"/>
      <use x="125" xlink:href="#DejaVuSans-111"/>
      <use x="186.181641" xlink:href="#DejaVuSans-99"/>
      <use x="241.162109" xlink:href="#DejaVuSans-104"/>
     </g>
    </g>
   </g>
   <g id="matplotlib.axis_2">
    <g id="ytick_1">
     <g id="line2d_13">
      <path clip-path="url(#p2f056f7e17)" d="M 90 311.261509 
L 648 311.261509 
" style="fill:none;stroke:#b0b0b0;stroke-linecap:square;stroke-width:0.8;"/>
     </g>
     <g id="line2d_14">
      <defs>
       <path d="M 0 0 
L -3.5 0 
" id="m24d854d691" style="stroke:#000000;stroke-width:0.8;"/>
      </defs>
      <g>
       <use style="stroke:#000000;stroke-width:0.8;" x="90" xlink:href="#m24d854d691" y="311.261509"/>
      </g>
     </g>
     <g id="text_8">
      <!-- 0.3 -->
      <defs>
       <path d="M 10.6875 12.40625 
L 21 12.40625 
L 21 0 
L 10.6875 0 
z
" id="DejaVuSans-46"/>
       <path d="M 40.578125 39.3125 
Q 47.65625 37.796875 51.625 33 
Q 55.609375 28.21875 55.609375 21.1875 
Q 55.609375 10.40625 48.1875 4.484375 
Q 40.765625 -1.421875 27.09375 -1.421875 
Q 22.515625 -1.421875 17.65625 -0.515625 
Q 12.796875 0.390625 7.625 2.203125 
L 7.625 11.71875 
Q 11.71875 9.328125 16.59375 8.109375 
Q 21.484375 6.890625 26.8125 6.890625 
Q 36.078125 6.890625 40.9375 10.546875 
Q 45.796875 14.203125 45.796875 21.1875 
Q 45.796875 27.640625 41.28125 31.265625 
Q 36.765625 34.90625 28.71875 34.90625 
L 20.21875 34.90625 
L 20.21875 43.015625 
L 29.109375 43.015625 
Q 36.375 43.015625 40.234375 45.921875 
Q 44.09375 48.828125 44.09375 54.296875 
Q 44.09375 59.90625 40.109375 62.90625 
Q 36.140625 65.921875 28.71875 65.921875 
Q 24.65625 65.921875 20.015625 65.03125 
Q 15.375 64.15625 9.8125 62.3125 
L 9.8125 71.09375 
Q 15.4375 72.65625 20.34375 73.4375 
Q 25.25 74.21875 29.59375 74.21875 
Q 40.828125 74.21875 47.359375 69.109375 
Q 53.90625 64.015625 53.90625 55.328125 
Q 53.90625 49.265625 50.4375 45.09375 
Q 46.96875 40.921875 40.578125 39.3125 
z
" id="DejaVuSans-51"/>
      </defs>
      <g transform="translate(67.096875 315.060727)scale(0.1 -0.1)">
       <use xlink:href="#DejaVuSans-48"/>
       <use x="63.623047" xlink:href="#DejaVuSans-46"/>
       <use x="95.410156" xlink:href="#DejaVuSans-51"/>
      </g>
     </g>
    </g>
    <g id="ytick_2">
     <g id="line2d_15">
      <path clip-path="url(#p2f056f7e17)" d="M 90 267.451064 
L 648 267.451064 
" style="fill:none;stroke:#b0b0b0;stroke-linecap:square;stroke-width:0.8;"/>
     </g>
     <g id="line2d_16">
      <g>
       <use style="stroke:#000000;stroke-width:0.8;" x="90" xlink:href="#m24d854d691" y="267.451064"/>
      </g>
     </g>
     <g id="text_9">
      <!-- 0.4 -->
      <g transform="translate(67.096875 271.250283)scale(0.1 -0.1)">
       <use xlink:href="#DejaVuSans-48"/>
       <use x="63.623047" xlink:href="#DejaVuSans-46"/>
       <use x="95.410156" xlink:href="#DejaVuSans-52"/>
      </g>
     </g>
    </g>
    <g id="ytick_3">
     <g id="line2d_17">
      <path clip-path="url(#p2f056f7e17)" d="M 90 223.640619 
L 648 223.640619 
" style="fill:none;stroke:#b0b0b0;stroke-linecap:square;stroke-width:0.8;"/>
     </g>
     <g id="line2d_18">
      <g>
       <use style="stroke:#000000;stroke-width:0.8;" x="90" xlink:href="#m24d854d691" y="223.640619"/>
      </g>
     </g>
     <g id="text_10">
      <!-- 0.5 -->
      <defs>
       <path d="M 10.796875 72.90625 
L 49.515625 72.90625 
L 49.515625 64.59375 
L 19.828125 64.59375 
L 19.828125 46.734375 
Q 21.96875 47.46875 24.109375 47.828125 
Q 26.265625 48.1875 28.421875 48.1875 
Q 40.625 48.1875 47.75 41.5 
Q 54.890625 34.8125 54.890625 23.390625 
Q 54.890625 11.625 47.5625 5.09375 
Q 40.234375 -1.421875 26.90625 -1.421875 
Q 22.3125 -1.421875 17.546875 -0.640625 
Q 12.796875 0.140625 7.71875 1.703125 
L 7.71875 11.625 
Q 12.109375 9.234375 16.796875 8.0625 
Q 21.484375 6.890625 26.703125 6.890625 
Q 35.15625 6.890625 40.078125 11.328125 
Q 45.015625 15.765625 45.015625 23.390625 
Q 45.015625 31 40.078125 35.4375 
Q 35.15625 39.890625 26.703125 39.890625 
Q 22.75 39.890625 18.8125 39.015625 
Q 14.890625 38.140625 10.796875 36.28125 
z
" id="DejaVuSans-53"/>
      </defs>
      <g transform="translate(67.096875 227.439838)scale(0.1 -0.1)">
       <use xlink:href="#DejaVuSans-48"/>
       <use x="63.623047" xlink:href="#DejaVuSans-46"/>
       <use x="95.410156" xlink:href="#DejaVuSans-53"/>
      </g>
     </g>
    </g>
    <g id="ytick_4">
     <g id="line2d_19">
      <path clip-path="url(#p2f056f7e17)" d="M 90 179.830174 
L 648 179.830174 
" style="fill:none;stroke:#b0b0b0;stroke-linecap:square;stroke-width:0.8;"/>
     </g>
     <g id="line2d_20">
      <g>
       <use style="stroke:#000000;stroke-width:0.8;" x="90" xlink:href="#m24d854d691" y="179.830174"/>
      </g>
     </g>
     <g id="text_11">
      <!-- 0.6 -->
      <g transform="translate(67.096875 183.629393)scale(0.1 -0.1)">
       <use xlink:href="#DejaVuSans-48"/>
       <use x="63.623047" xlink:href="#DejaVuSans-46"/>
       <use x="95.410156" xlink:href="#DejaVuSans-54"/>
      </g>
     </g>
    </g>
    <g id="ytick_5">
     <g id="line2d_21">
      <path clip-path="url(#p2f056f7e17)" d="M 90 136.019729 
L 648 136.019729 
" style="fill:none;stroke:#b0b0b0;stroke-linecap:square;stroke-width:0.8;"/>
     </g>
     <g id="line2d_22">
      <g>
       <use style="stroke:#000000;stroke-width:0.8;" x="90" xlink:href="#m24d854d691" y="136.019729"/>
      </g>
     </g>
     <g id="text_12">
      <!-- 0.7 -->
      <defs>
       <path d="M 8.203125 72.90625 
L 55.078125 72.90625 
L 55.078125 68.703125 
L 28.609375 0 
L 18.3125 0 
L 43.21875 64.59375 
L 8.203125 64.59375 
z
" id="DejaVuSans-55"/>
      </defs>
      <g transform="translate(67.096875 139.818948)scale(0.1 -0.1)">
       <use xlink:href="#DejaVuSans-48"/>
       <use x="63.623047" xlink:href="#DejaVuSans-46"/>
       <use x="95.410156" xlink:href="#DejaVuSans-55"/>
      </g>
     </g>
    </g>
    <g id="ytick_6">
     <g id="line2d_23">
      <path clip-path="url(#p2f056f7e17)" d="M 90 92.209284 
L 648 92.209284 
" style="fill:none;stroke:#b0b0b0;stroke-linecap:square;stroke-width:0.8;"/>
     </g>
     <g id="line2d_24">
      <g>
       <use style="stroke:#000000;stroke-width:0.8;" x="90" xlink:href="#m24d854d691" y="92.209284"/>
      </g>
     </g>
     <g id="text_13">
      <!-- 0.8 -->
      <g transform="translate(67.096875 96.008503)scale(0.1 -0.1)">
       <use xlink:href="#DejaVuSans-48"/>
       <use x="63.623047" xlink:href="#DejaVuSans-46"/>
       <use x="95.410156" xlink:href="#DejaVuSans-56"/>
      </g>
     </g>
    </g>
    <g id="ytick_7">
     <g id="line2d_25">
      <path clip-path="url(#p2f056f7e17)" d="M 90 48.398839 
L 648 48.398839 
" style="fill:none;stroke:#b0b0b0;stroke-linecap:square;stroke-width:0.8;"/>
     </g>
     <g id="line2d_26">
      <g>
       <use style="stroke:#000000;stroke-width:0.8;" x="90" xlink:href="#m24d854d691" y="48.398839"/>
      </g>
     </g>
     <g id="text_14">
      <!-- 0.9 -->
      <defs>
       <path d="M 10.984375 1.515625 
L 10.984375 10.5 
Q 14.703125 8.734375 18.5 7.8125 
Q 22.3125 6.890625 25.984375 6.890625 
Q 35.75 6.890625 40.890625 13.453125 
Q 46.046875 20.015625 46.78125 33.40625 
Q 43.953125 29.203125 39.59375 26.953125 
Q 35.25 24.703125 29.984375 24.703125 
Q 19.046875 24.703125 12.671875 31.3125 
Q 6.296875 37.9375 6.296875 49.421875 
Q 6.296875 60.640625 12.9375 67.421875 
Q 19.578125 74.21875 30.609375 74.21875 
Q 43.265625 74.21875 49.921875 64.515625 
Q 56.59375 54.828125 56.59375 36.375 
Q 56.59375 19.140625 48.40625 8.859375 
Q 40.234375 -1.421875 26.421875 -1.421875 
Q 22.703125 -1.421875 18.890625 -0.6875 
Q 15.09375 0.046875 10.984375 1.515625 
z
M 30.609375 32.421875 
Q 37.25 32.421875 41.125 36.953125 
Q 45.015625 41.5 45.015625 49.421875 
Q 45.015625 57.28125 41.125 61.84375 
Q 37.25 66.40625 30.609375 66.40625 
Q 23.96875 66.40625 20.09375 61.84375 
Q 16.21875 57.28125 16.21875 49.421875 
Q 16.21875 41.5 20.09375 36.953125 
Q 23.96875 32.421875 30.609375 32.421875 
z
" id="DejaVuSans-57"/>
      </defs>
      <g transform="translate(67.096875 52.198058)scale(0.1 -0.1)">
       <use xlink:href="#DejaVuSans-48"/>
       <use x="63.623047" xlink:href="#DejaVuSans-46"/>
       <use x="95.410156" xlink:href="#DejaVuSans-57"/>
      </g>
     </g>
    </g>
    <g id="text_15">
     <!-- accuracy -->
     <defs>
      <path d="M 34.28125 27.484375 
Q 23.390625 27.484375 19.1875 25 
Q 14.984375 22.515625 14.984375 16.5 
Q 14.984375 11.71875 18.140625 8.90625 
Q 21.296875 6.109375 26.703125 6.109375 
Q 34.1875 6.109375 38.703125 11.40625 
Q 43.21875 16.703125 43.21875 25.484375 
L 43.21875 27.484375 
z
M 52.203125 31.203125 
L 52.203125 0 
L 43.21875 0 
L 43.21875 8.296875 
Q 40.140625 3.328125 35.546875 0.953125 
Q 30.953125 -1.421875 24.3125 -1.421875 
Q 15.921875 -1.421875 10.953125 3.296875 
Q 6 8.015625 6 15.921875 
Q 6 25.140625 12.171875 29.828125 
Q 18.359375 34.515625 30.609375 34.515625 
L 43.21875 34.515625 
L 43.21875 35.40625 
Q 43.21875 41.609375 39.140625 45 
Q 35.0625 48.390625 27.6875 48.390625 
Q 23 48.390625 18.546875 47.265625 
Q 14.109375 46.140625 10.015625 43.890625 
L 10.015625 52.203125 
Q 14.9375 54.109375 19.578125 55.046875 
Q 24.21875 56 28.609375 56 
Q 40.484375 56 46.34375 49.84375 
Q 52.203125 43.703125 52.203125 31.203125 
z
" id="DejaVuSans-97"/>
      <path d="M 8.5 21.578125 
L 8.5 54.6875 
L 17.484375 54.6875 
L 17.484375 21.921875 
Q 17.484375 14.15625 20.5 10.265625 
Q 23.53125 6.390625 29.59375 6.390625 
Q 36.859375 6.390625 41.078125 11.03125 
Q 45.3125 15.671875 45.3125 23.6875 
L 45.3125 54.6875 
L 54.296875 54.6875 
L 54.296875 0 
L 45.3125 0 
L 45.3125 8.40625 
Q 42.046875 3.421875 37.71875 1 
Q 33.40625 -1.421875 27.6875 -1.421875 
Q 18.265625 -1.421875 13.375 4.4375 
Q 8.5 10.296875 8.5 21.578125 
z
M 31.109375 56 
z
" id="DejaVuSans-117"/>
      <path d="M 41.109375 46.296875 
Q 39.59375 47.171875 37.8125 47.578125 
Q 36.03125 48 33.890625 48 
Q 26.265625 48 22.1875 43.046875 
Q 18.109375 38.09375 18.109375 28.8125 
L 18.109375 0 
L 9.078125 0 
L 9.078125 54.6875 
L 18.109375 54.6875 
L 18.109375 46.1875 
Q 20.953125 51.171875 25.484375 53.578125 
Q 30.03125 56 36.53125 56 
Q 37.453125 56 38.578125 55.875 
Q 39.703125 55.765625 41.0625 55.515625 
z
" id="DejaVuSans-114"/>
      <path d="M 32.171875 -5.078125 
Q 28.375 -14.84375 24.75 -17.8125 
Q 21.140625 -20.796875 15.09375 -20.796875 
L 7.90625 -20.796875 
L 7.90625 -13.28125 
L 13.1875 -13.28125 
Q 16.890625 -13.28125 18.9375 -11.515625 
Q 21 -9.765625 23.484375 -3.21875 
L 25.09375 0.875 
L 2.984375 54.6875 
L 12.5 54.6875 
L 29.59375 11.921875 
L 46.6875 54.6875 
L 56.203125 54.6875 
z
" id="DejaVuSans-121"/>
     </defs>
     <g transform="translate(61.017187 201.659375)rotate(-90)scale(0.1 -0.1)">
      <use xlink:href="#DejaVuSans-97"/>
      <use x="61.279297" xlink:href="#DejaVuSans-99"/>
      <use x="116.259766" xlink:href="#DejaVuSans-99"/>
      <use x="171.240234" xlink:href="#DejaVuSans-117"/>
      <use x="234.619141" xlink:href="#DejaVuSans-114"/>
      <use x="275.732422" xlink:href="#DejaVuSans-97"/>
      <use x="337.011719" xlink:href="#DejaVuSans-99"/>
      <use x="391.992188" xlink:href="#DejaVuSans-121"/>
     </g>
    </g>
   </g>
   <g id="line2d_27">
    <path clip-path="url(#p2f056f7e17)" d="M 115.363636 302.353385 
L 115.893702 295.051644 
L 116.423767 292.569052 
L 116.953833 294.467505 
L 117.483899 292.569052 
L 118.013964 302.645455 
L 119.074095 285.413346 
L 120.134226 293.883366 
L 120.664292 290.08646 
L 121.194357 291.984913 
L 121.724423 289.648356 
L 122.784554 298.994584 
L 123.31462 296.804062 
L 123.844685 284.391103 
L 124.374751 287.019729 
L 124.904816 285.559381 
L 125.434882 291.692843 
L 125.964947 288.334043 
L 126.495013 282.054545 
L 127.025078 294.905609 
L 127.555144 282.638685 
L 128.085209 284.245068 
L 128.615275 285.413346 
L 129.145341 282.638685 
L 129.675406 284.391103 
L 130.205472 285.705416 
L 130.735537 281.032302 
L 131.265603 274.022631 
L 131.795668 270.66383 
L 132.325734 278.111605 
L 132.855799 262.631915 
L 133.385865 272.854352 
L 133.91593 258.83501 
L 134.445996 260.295358 
L 134.976062 251.387234 
L 135.506127 255.914313 
L 136.036193 251.241199 
L 136.566258 252.993617 
L 137.096324 248.320503 
L 138.156455 233.863056 
L 138.68652 231.672534 
L 139.746651 223.348549 
L 140.276717 224.224758 
L 140.806783 224.224758 
L 141.336848 212.541973 
L 141.866914 208.599033 
L 142.396979 207.28472 
L 142.927045 207.868859 
L 143.45711 207.868859 
L 143.987176 204.364023 
L 144.517241 202.75764 
L 145.047307 195.16383 
L 145.577372 202.903675 
L 146.107438 195.16383 
L 146.637504 196.770213 
L 147.167569 189.906576 
L 147.697635 186.109671 
L 148.2277 187.423985 
L 148.757766 183.773114 
L 149.287831 182.166731 
L 149.817897 184.211219 
L 150.347962 184.211219 
L 150.878028 179.39207 
L 151.408093 183.773114 
L 151.938159 177.785687 
L 152.468225 188.592263 
L 152.99829 179.976209 
L 153.528356 175.595164 
L 154.058421 173.988781 
L 154.588487 173.258607 
L 155.118552 170.629981 
L 155.648618 177.201547 
L 156.178683 167.125145 
L 156.708749 168.585493 
L 157.238814 168.293424 
L 157.76888 170.629981 
L 158.298946 170.337911 
L 158.829011 168.585493 
L 159.359077 170.483946 
L 159.889142 164.934623 
L 160.419208 163.182205 
L 160.949273 170.92205 
L 161.479339 168.731528 
L 162.009404 164.350484 
L 162.53947 162.598066 
L 163.069535 165.226692 
L 163.599601 163.03617 
L 164.129667 159.3853 
L 164.659732 163.182205 
L 165.189798 162.890135 
L 165.719863 162.890135 
L 166.249929 156.756673 
L 166.779994 159.969439 
L 167.31006 158.217021 
L 167.840125 162.013926 
L 168.370191 164.934623 
L 168.900256 162.305996 
L 169.430322 157.924952 
L 169.960388 155.296325 
L 170.490453 159.09323 
L 171.020519 156.172534 
L 171.550584 155.588395 
L 172.08065 157.778917 
L 172.610715 154.566151 
L 173.140781 153.689942 
L 173.670846 151.645455 
L 174.730977 156.902708 
L 175.261043 155.004255 
L 175.791109 150.623211 
L 176.85124 152.375629 
L 177.381305 152.083559 
L 177.911371 149.600967 
L 178.441436 154.566151 
L 178.971502 153.543907 
L 180.031633 152.083559 
L 180.561698 152.083559 
L 181.091764 150.039072 
L 181.62183 151.645455 
L 182.151895 147.26441 
L 182.681961 147.118375 
L 183.212026 141.569052 
L 183.742092 147.118375 
L 184.272157 143.0294 
L 184.802223 146.534236 
L 185.862354 145.219923 
L 186.392419 140.692843 
L 186.922485 145.950097 
L 187.452551 138.210251 
L 187.982616 142.007157 
L 188.512682 136.603868 
L 189.042747 141.569052 
L 189.572813 142.445261 
L 190.102878 139.816634 
L 190.632944 137.772147 
L 191.163009 138.356286 
L 191.693075 139.962669 
L 192.22314 140.108704 
L 192.753206 140.984913 
L 193.283272 143.175435 
L 193.813337 130.470406 
L 194.343403 139.37853 
L 194.873468 136.749903 
L 195.403534 141.276983 
L 195.933599 136.165764 
L 196.463665 135.72766 
L 196.99373 134.267311 
L 197.523796 136.019729 
L 198.053861 128.864023 
L 198.583927 137.626112 
L 199.113993 129.156093 
L 199.644058 132.222824 
L 200.174124 130.908511 
L 200.704189 137.041973 
L 201.234255 130.032302 
L 201.76432 131.78472 
L 202.294386 131.930754 
L 202.824451 132.222824 
L 203.354517 125.651257 
L 203.884583 126.527466 
L 204.414648 130.908511 
L 204.944714 124.044874 
L 205.474779 137.480077 
L 206.004845 129.010058 
L 206.53491 134.121277 
L 207.064976 126.381431 
L 208.125107 127.695745 
L 208.655172 131.346615 
L 209.185238 127.987814 
L 209.715304 130.178337 
L 210.245369 126.527466 
L 211.3055 135.43559 
L 211.835566 128.717988 
L 212.365631 125.651257 
L 212.895697 133.829207 
L 213.425762 125.213153 
L 213.955828 125.213153 
L 214.485893 126.965571 
L 215.015959 128.133849 
L 215.546025 123.898839 
L 216.07609 125.797292 
L 216.606156 123.168665 
L 217.136221 125.943327 
L 217.666287 125.213153 
L 218.196352 123.022631 
L 218.726418 123.898839 
L 219.256483 125.505222 
L 219.786549 121.562282 
L 220.316614 116.158994 
L 220.84668 122.000387 
L 221.376746 123.752805 
L 221.906811 121.270213 
L 222.436877 124.190909 
L 222.966942 119.517795 
L 223.497008 125.213153 
L 224.027073 120.978143 
L 224.557139 123.460735 
L 225.087204 122.292456 
L 225.61727 119.37176 
L 226.147335 120.101934 
L 226.677401 122.876596 
L 227.207467 122.000387 
L 227.737532 115.282785 
L 228.267598 121.562282 
L 228.797663 124.190909 
L 229.327729 122.438491 
L 229.857794 117.765377 
L 230.38786 114.114507 
L 230.917925 117.181238 
L 231.447991 117.327273 
L 231.978056 116.597099 
L 232.508122 117.911412 
L 233.038188 116.012959 
L 233.568253 111.923985 
L 234.098319 117.181238 
L 234.628384 115.72089 
L 235.15845 110.901741 
L 235.688515 115.13675 
L 236.218581 116.305029 
L 236.748646 116.597099 
L 237.278712 108.565184 
L 237.808777 113.384333 
L 238.338843 111.77795 
L 238.868909 112.070019 
L 239.398974 118.933656 
L 239.92904 116.012959 
L 240.459105 111.77795 
L 240.989171 114.844681 
L 241.519236 109.003288 
L 242.049302 115.282785 
L 242.579367 113.968472 
L 243.109433 110.171567 
L 243.639498 108.857253 
L 244.169564 106.958801 
L 244.69963 113.822437 
L 245.229695 112.508124 
L 245.759761 114.844681 
L 246.289826 108.565184 
L 246.819892 110.171567 
L 247.349957 107.981044 
L 247.880023 106.374662 
L 248.410088 105.790522 
L 248.940154 111.631915 
L 249.470219 108.565184 
L 250.000285 106.958801 
L 250.530351 103.30793 
L 251.060416 110.609671 
L 251.590482 102.723791 
L 252.120547 109.003288 
L 252.650613 105.936557 
L 253.180678 109.441393 
L 253.710744 105.790522 
L 254.240809 106.520696 
L 254.770875 110.755706 
L 255.30094 104.622244 
L 255.831006 107.25087 
L 256.361072 103.015861 
L 256.891137 105.644487 
L 257.421203 102.723791 
L 257.951268 104.622244 
L 258.481334 100.241199 
L 259.011399 106.666731 
L 259.541465 101.409478 
L 260.07153 111.48588 
L 260.601596 103.30793 
L 261.131661 100.971373 
L 261.661727 101.555513 
L 262.191793 108.273114 
L 262.721858 101.993617 
L 263.251924 104.038104 
L 263.781989 98.926886 
L 264.312055 103.30793 
L 264.84212 100.387234 
L 265.372186 100.095164 
L 265.902251 99.072921 
L 266.432317 100.095164 
L 266.962382 101.993617 
L 267.492448 100.387234 
L 268.022514 103.6 
L 268.552579 96.444294 
L 269.082645 101.993617 
L 269.61271 99.511025 
L 270.142776 102.285687 
L 270.672841 95.42205 
L 271.202907 95.860155 
L 271.732972 98.342747 
L 272.263038 94.399807 
L 272.793103 94.691876 
L 273.323169 96.444294 
L 273.853235 97.758607 
L 274.3833 92.793424 
L 274.913366 95.42205 
L 275.443431 96.00619 
L 275.973497 96.298259 
L 276.503562 95.568085 
L 277.033628 99.803095 
L 277.563693 94.691876 
L 278.093759 98.780851 
L 278.623824 93.377563 
L 279.15389 93.231528 
L 279.683956 91.917215 
L 280.214021 95.568085 
L 280.744087 88.558414 
L 281.274152 96.152224 
L 281.804218 94.399807 
L 282.334283 91.333075 
L 282.864349 93.669632 
L 283.394414 94.253772 
L 283.92448 94.253772 
L 284.454545 98.050677 
L 284.984611 89.288588 
L 285.514677 88.850484 
L 286.044742 94.983946 
L 287.104873 89.580658 
L 287.634939 95.568085 
L 288.165004 91.77118 
L 288.69507 96.298259 
L 289.755201 90.894971 
L 290.285266 88.996518 
L 290.815332 97.612573 
L 291.345398 91.625145 
L 291.875463 91.333075 
L 292.405529 89.872727 
L 293.46566 94.107737 
L 293.995725 85.199613 
L 294.525791 91.041006 
L 295.055856 90.164797 
L 295.585922 92.647389 
L 296.115987 90.310832 
L 296.646053 85.199613 
L 297.176119 90.456867 
L 297.706184 85.783752 
L 298.23625 86.367892 
L 298.766315 85.053578 
L 299.296381 90.310832 
L 299.826446 90.310832 
L 300.356512 85.345648 
L 300.886577 90.894971 
L 301.946708 87.82824 
L 302.476774 95.129981 
L 303.00684 87.244101 
L 303.536905 92.209284 
L 304.066971 87.53617 
L 304.597036 90.310832 
L 305.127102 88.558414 
L 305.657167 94.107737 
L 306.187233 88.120309 
L 306.717298 89.726692 
L 307.247364 89.580658 
L 307.777429 88.266344 
L 308.307495 89.288588 
L 308.837561 85.053578 
L 309.367626 87.974275 
L 310.427757 85.637718 
L 310.957823 80.234429 
L 311.487888 88.266344 
L 312.017954 89.580658 
L 312.548019 85.053578 
L 313.078085 86.659961 
L 314.138216 83.009091 
L 314.668282 85.053578 
L 315.198347 80.964603 
L 315.728413 83.739265 
L 316.258478 81.840812 
L 316.788544 78.043907 
L 317.318609 86.221857 
L 317.848675 83.009091 
L 318.37874 87.82824 
L 318.908806 85.491683 
L 319.438871 86.075822 
L 319.968937 81.256673 
L 320.499003 79.94236 
L 321.029068 79.066151 
L 321.559134 80.672534 
L 322.089199 80.088395 
L 322.619265 90.456867 
L 323.14933 86.952031 
L 323.679396 84.469439 
L 324.209461 85.491683 
L 324.739527 84.323404 
L 325.269592 81.694778 
L 325.799658 87.098066 
L 326.329724 84.615474 
L 326.859789 80.380464 
L 327.389855 79.066151 
L 327.91992 82.424952 
L 328.449986 78.043907 
L 328.980051 81.986847 
L 329.510117 79.94236 
L 330.040182 86.075822 
L 330.570248 81.402708 
L 331.100313 78.628046 
L 331.630379 87.53617 
L 332.160445 78.628046 
L 332.69051 83.739265 
L 333.220576 83.447195 
L 333.750641 76.875629 
L 334.280707 79.066151 
L 334.810772 79.796325 
L 335.340838 74.685106 
L 335.870903 79.504255 
L 336.400969 78.774081 
L 337.4611 81.986847 
L 337.991166 78.482012 
L 339.051297 78.774081 
L 339.581362 76.729594 
L 340.641493 85.929787 
L 341.171559 72.786654 
L 341.701624 78.043907 
L 342.23169 79.212186 
L 342.761755 78.920116 
L 343.291821 76.729594 
L 343.821887 81.110638 
L 344.351952 81.548743 
L 344.882018 83.447195 
L 345.412083 81.548743 
L 345.942149 78.628046 
L 346.472214 80.818569 
L 347.00228 78.482012 
L 347.532345 79.504255 
L 348.062411 79.504255 
L 348.592476 81.256673 
L 349.122542 80.088395 
L 349.652608 81.256673 
L 350.712739 75.269246 
L 351.242804 73.662863 
L 351.77287 74.247002 
L 352.302935 77.167698 
L 352.833001 73.224758 
L 353.363066 73.662863 
L 354.423197 77.605803 
L 354.953263 76.145455 
L 355.483329 78.482012 
L 356.013394 74.831141 
L 356.54346 78.189942 
L 357.073525 83.301161 
L 357.603591 73.516828 
L 358.133656 77.167698 
L 358.663722 74.831141 
L 359.193787 73.516828 
L 359.723853 73.370793 
L 360.253918 81.840812 
L 360.783984 77.751838 
L 361.31405 77.167698 
L 361.844115 74.831141 
L 362.374181 77.459768 
L 362.904246 75.269246 
L 363.434312 72.494584 
L 363.964377 72.932689 
L 365.024508 74.247002 
L 365.554574 78.189942 
L 366.084639 75.41528 
L 366.614705 74.831141 
L 367.144771 75.561315 
L 367.674836 75.99942 
L 368.204902 73.808897 
L 368.734967 72.348549 
L 369.265033 77.459768 
L 369.795098 74.685106 
L 370.325164 76.437524 
L 370.855229 76.145455 
L 371.385295 77.313733 
L 371.915361 72.932689 
L 372.445426 74.831141 
L 372.975492 73.808897 
L 373.505557 74.247002 
L 374.035623 71.47234 
L 374.565688 75.41528 
L 375.095754 74.539072 
L 375.625819 77.021663 
L 376.68595 70.596132 
L 377.216016 76.145455 
L 377.746082 75.853385 
L 378.276147 76.875629 
L 378.806213 76.437524 
L 379.336278 78.043907 
L 379.866344 75.41528 
L 380.396409 77.605803 
L 380.926475 77.167698 
L 381.45654 77.021663 
L 381.986606 74.831141 
L 382.516671 77.313733 
L 383.046737 75.123211 
L 383.576803 76.729594 
L 384.106868 72.640619 
L 384.636934 70.596132 
L 385.166999 76.437524 
L 385.697065 80.818569 
L 386.22713 74.685106 
L 386.757196 80.088395 
L 387.287261 71.326306 
L 387.817327 75.123211 
L 388.347392 69.135783 
L 388.877458 74.393037 
L 389.407524 73.078723 
L 389.937589 72.786654 
L 390.467655 75.70735 
L 390.99772 72.202515 
L 391.527786 72.494584 
L 392.587917 74.831141 
L 393.117982 72.786654 
L 393.648048 74.247002 
L 394.178113 73.224758 
L 394.708179 76.875629 
L 395.238245 72.348549 
L 395.76831 73.078723 
L 396.298376 71.326306 
L 396.828441 70.158027 
L 397.358507 68.405609 
L 397.888572 71.76441 
L 398.418638 78.774081 
L 398.948703 74.247002 
L 399.478769 73.808897 
L 400.008834 69.865957 
L 400.5389 79.504255 
L 401.068966 72.05648 
L 401.599031 69.281818 
L 402.129097 70.888201 
L 402.659162 70.158027 
L 403.189228 75.99942 
L 403.719293 68.989749 
L 404.249359 75.561315 
L 404.779424 67.5294 
L 405.30949 71.47234 
L 405.839555 67.237331 
L 406.369621 72.640619 
L 406.899687 72.348549 
L 407.429752 64.024565 
L 407.959818 67.675435 
L 408.489883 72.640619 
L 409.019949 71.326306 
L 409.550014 69.573888 
L 410.08008 73.516828 
L 410.610145 68.989749 
L 411.140211 69.281818 
L 411.670276 73.662863 
L 412.200342 66.361122 
L 412.730408 71.326306 
L 413.260473 71.76441 
L 413.790539 73.078723 
L 414.320604 67.675435 
L 414.85067 69.865957 
L 415.380735 70.158027 
L 415.910801 68.551644 
L 416.440866 67.82147 
L 416.970932 72.202515 
L 417.500997 69.135783 
L 418.031063 66.945261 
L 418.561129 70.158027 
L 419.091194 67.82147 
L 419.62126 73.224758 
L 420.151325 64.462669 
L 420.681391 72.348549 
L 421.211456 69.135783 
L 421.741522 73.370793 
L 422.271587 68.259574 
L 422.801653 70.596132 
L 423.331718 67.091296 
L 424.39185 69.719923 
L 424.921915 74.247002 
L 425.451981 71.76441 
L 425.982046 66.507157 
L 426.512112 71.034236 
L 427.042177 69.427853 
L 427.572243 66.069052 
L 428.102308 71.326306 
L 428.632374 65.338878 
L 429.162439 72.932689 
L 429.692505 67.237331 
L 430.222571 69.719923 
L 430.752636 71.47234 
L 431.282702 67.675435 
L 431.812767 71.47234 
L 432.342833 67.237331 
L 432.872898 70.304062 
L 433.402964 68.843714 
L 433.933029 76.583559 
L 434.463095 71.76441 
L 434.99316 70.011992 
L 435.523226 66.945261 
L 436.053292 71.47234 
L 436.583357 72.348549 
L 437.113423 71.47234 
L 437.643488 67.675435 
L 438.173554 66.799226 
L 438.703619 71.76441 
L 439.233685 66.653191 
L 439.76375 66.069052 
L 440.293816 68.697679 
L 440.823881 69.573888 
L 441.884013 67.675435 
L 442.414078 73.078723 
L 442.944144 64.608704 
L 443.474209 66.215087 
L 444.004275 69.573888 
L 444.53434 68.405609 
L 445.064406 61.688008 
L 445.594471 66.653191 
L 446.124537 72.786654 
L 446.654602 70.596132 
L 447.184668 67.091296 
L 447.714734 72.494584 
L 448.244799 65.484913 
L 448.774865 64.316634 
L 449.30493 68.11354 
L 449.834996 65.192843 
L 450.365061 65.776983 
L 450.895127 69.135783 
L 451.425192 69.281818 
L 451.955258 67.237331 
L 452.485323 69.573888 
L 453.015389 69.865957 
L 453.545455 71.47234 
L 454.07552 67.967505 
L 454.605586 67.967505 
L 455.135651 62.710251 
L 455.665717 69.719923 
L 456.195782 66.069052 
L 456.725848 68.697679 
L 457.255913 63.732495 
L 457.785979 69.865957 
L 458.316044 66.507157 
L 458.84611 60.373694 
L 459.376176 67.383366 
L 459.906241 59.64352 
L 460.436307 71.47234 
L 460.966372 64.462669 
L 461.496438 65.338878 
L 462.026503 65.338878 
L 462.556569 68.11354 
L 463.086634 64.462669 
L 463.6167 69.135783 
L 464.146765 69.865957 
L 464.676831 67.5294 
L 465.206897 69.573888 
L 465.736962 68.259574 
L 466.267028 64.608704 
L 466.797093 71.034236 
L 467.327159 67.82147 
L 467.857224 72.348549 
L 468.38729 68.697679 
L 468.917355 66.799226 
L 469.447421 65.338878 
L 469.977486 64.900774 
L 470.507552 69.427853 
L 471.037618 67.383366 
L 471.567683 67.5294 
L 472.097749 64.900774 
L 473.15788 62.418182 
L 473.687945 66.507157 
L 474.218011 67.967505 
L 474.748076 65.338878 
L 475.278142 63.294391 
L 475.808207 70.158027 
L 476.338273 68.697679 
L 476.868339 69.281818 
L 477.398404 68.259574 
L 477.92847 66.069052 
L 478.458535 66.653191 
L 478.988601 67.675435 
L 479.518666 70.742166 
L 480.048732 65.046809 
L 480.578797 66.507157 
L 481.108863 64.1706 
L 481.638928 70.450097 
L 482.168994 62.272147 
L 482.69906 66.069052 
L 483.229125 67.091296 
L 483.759191 71.618375 
L 484.289256 71.47234 
L 484.819322 67.5294 
L 485.349387 62.564217 
L 485.879453 65.484913 
L 486.409518 67.5294 
L 486.939584 65.923017 
L 487.469649 61.249903 
L 487.999715 64.316634 
L 489.059846 62.710251 
L 489.589912 66.799226 
L 490.119977 62.856286 
L 490.650043 66.945261 
L 491.180108 64.1706 
L 491.710174 63.732495 
L 492.240239 61.249903 
L 492.770305 69.865957 
L 493.30037 63.294391 
L 493.830436 68.11354 
L 494.360502 64.1706 
L 494.890567 65.046809 
L 495.420633 60.519729 
L 495.950698 63.732495 
L 496.480764 62.272147 
L 497.010829 66.507157 
L 497.540895 69.719923 
L 498.07096 63.732495 
L 498.601026 64.316634 
L 499.131091 62.126112 
L 499.661157 64.462669 
L 500.191223 60.957834 
L 500.721288 65.192843 
L 501.251354 64.754739 
L 501.781419 63.002321 
L 502.311485 65.776983 
L 502.84155 64.1706 
L 503.371616 64.608704 
L 503.901681 64.024565 
L 504.431747 61.980077 
L 504.961812 65.776983 
L 506.021944 67.383366 
L 506.552009 65.192843 
L 507.082075 67.5294 
L 507.61214 61.980077 
L 508.142206 64.900774 
L 508.672271 67.091296 
L 509.202337 66.215087 
L 509.732402 67.675435 
L 510.262468 63.440426 
L 510.792533 66.653191 
L 511.322599 63.002321 
L 511.852665 65.338878 
L 512.38273 64.316634 
L 512.912796 61.980077 
L 513.442861 61.541973 
L 513.972927 61.688008 
L 514.502992 62.710251 
L 515.033058 62.418182 
L 515.563123 63.58646 
L 516.093189 59.64352 
L 516.623254 60.665764 
L 517.15332 64.024565 
L 517.683386 64.1706 
L 518.213451 63.58646 
L 518.743517 61.980077 
L 519.273582 59.059381 
L 519.803648 65.776983 
L 520.333713 65.923017 
L 520.863779 64.024565 
L 521.393844 63.58646 
L 521.92391 61.980077 
L 522.453975 66.361122 
L 522.984041 63.294391 
L 523.514107 63.58646 
L 524.044172 61.834043 
L 525.104303 64.316634 
L 526.164434 58.913346 
L 526.6945 61.980077 
L 527.224565 68.697679 
L 527.754631 60.373694 
L 528.284696 64.900774 
L 528.814762 57.452998 
L 529.344828 63.002321 
L 529.874893 59.351451 
L 530.404959 64.462669 
L 530.935024 66.945261 
L 531.46509 67.967505 
L 531.995155 60.22766 
L 532.525221 64.462669 
L 533.055286 64.316634 
L 533.585352 58.913346 
L 534.115417 68.843714 
L 534.645483 61.834043 
L 535.175549 62.710251 
L 535.705614 62.710251 
L 536.23568 60.519729 
L 537.295811 63.294391 
L 537.825876 61.395938 
L 538.355942 65.484913 
L 538.886007 62.710251 
L 539.416073 65.046809 
L 539.946139 63.732495 
L 540.476204 60.373694 
L 541.00627 63.148356 
L 541.536335 56.722824 
L 542.066401 59.789555 
L 542.596466 61.541973 
L 543.126532 61.541973 
L 543.656597 60.957834 
L 544.186663 63.002321 
L 544.716728 62.856286 
L 545.246794 65.338878 
L 545.77686 60.957834 
L 546.306925 60.811799 
L 546.836991 62.710251 
L 547.367056 62.418182 
L 547.897122 60.665764 
L 548.427187 63.58646 
L 548.957253 62.418182 
L 549.487318 59.059381 
L 550.017384 63.58646 
L 550.547449 60.957834 
L 551.077515 60.519729 
L 552.137646 64.754739 
L 552.667712 64.1706 
L 553.197777 57.452998 
L 553.727843 61.541973 
L 554.257908 60.081625 
L 554.787974 62.710251 
L 555.318039 60.081625 
L 555.848105 61.834043 
L 556.37817 63.148356 
L 556.908236 57.160928 
L 557.438302 60.811799 
L 557.968367 65.484913 
L 558.498433 60.22766 
L 559.028498 62.272147 
L 559.558564 63.440426 
L 560.088629 62.126112 
L 560.618695 59.93559 
L 561.14876 64.1706 
L 561.678826 60.081625 
L 562.208891 60.957834 
L 562.738957 59.789555 
L 563.269023 61.395938 
L 563.799088 64.1706 
L 564.329154 59.351451 
L 564.859219 59.789555 
L 565.389285 59.789555 
L 565.91935 59.64352 
L 566.449416 65.192843 
L 566.979481 64.1706 
L 567.509547 62.856286 
L 568.569678 63.148356 
L 569.099744 58.183172 
L 569.629809 59.789555 
L 570.159875 61.980077 
L 570.68994 59.93559 
L 571.220006 63.87853 
L 571.750071 60.811799 
L 572.280137 64.316634 
L 572.810202 59.351451 
L 573.340268 58.913346 
L 573.870333 64.024565 
L 574.400399 63.440426 
L 574.930465 65.484913 
L 575.46053 61.688008 
L 575.990596 58.913346 
L 576.520661 65.923017 
L 577.050727 61.249903 
L 577.580792 61.980077 
L 578.110858 63.732495 
L 578.640923 63.148356 
L 579.170989 62.856286 
L 579.701054 64.900774 
L 580.23112 63.002321 
L 580.761186 56.868859 
L 581.291251 62.126112 
L 581.821317 63.87853 
L 582.351382 60.22766 
L 582.881448 63.294391 
L 583.411513 57.745068 
L 583.941579 63.87853 
L 584.471644 65.338878 
L 585.00171 61.980077 
L 585.531775 62.856286 
L 586.061841 61.395938 
L 586.591907 58.329207 
L 587.121972 59.059381 
L 587.652038 61.395938 
L 588.182103 66.069052 
L 588.712169 59.64352 
L 589.242234 61.249903 
L 589.7723 58.767311 
L 590.302365 62.126112 
L 590.832431 61.103868 
L 591.362496 58.183172 
L 591.892562 60.665764 
L 592.422628 60.811799 
L 593.482759 59.789555 
L 594.012824 60.22766 
L 595.072955 66.215087 
L 595.603021 56.576789 
L 596.133086 58.767311 
L 596.663152 61.541973 
L 597.193217 62.418182 
L 597.723283 65.046809 
L 598.253349 63.294391 
L 598.783414 63.732495 
L 599.31348 58.767311 
L 599.843545 56.576789 
L 600.903676 60.081625 
L 601.433742 59.93559 
L 601.963807 59.64352 
L 602.493873 57.452998 
L 603.023938 60.811799 
L 603.554004 65.923017 
L 604.08407 59.059381 
L 604.614135 62.564217 
L 605.144201 58.037137 
L 605.674266 59.059381 
L 606.204332 60.373694 
L 606.734397 57.745068 
L 607.264463 60.957834 
L 607.794528 62.126112 
L 608.324594 63.002321 
L 608.854659 61.541973 
L 609.384725 56.868859 
L 609.914791 56.430754 
L 610.444856 58.475242 
L 611.504987 58.475242 
L 612.035053 60.373694 
L 612.565118 58.621277 
L 613.095184 61.103868 
L 613.625249 60.373694 
L 614.155315 60.957834 
L 614.68538 57.014894 
L 615.215446 55.70058 
L 616.275577 61.834043 
L 616.805643 62.564217 
L 617.335708 56.430754 
L 618.395839 64.900774 
L 618.925905 59.64352 
L 619.45597 58.767311 
L 619.986036 58.767311 
L 620.516101 55.70058 
L 621.046167 60.665764 
L 621.576233 61.395938 
L 622.106298 55.99265 
L 622.636364 59.93559 
L 622.636364 59.93559 
" style="fill:none;stroke:#1f77b4;stroke-linecap:square;stroke-width:0.5;"/>
   </g>
   <g id="line2d_28">
    <path clip-path="url(#p2f056f7e17)" d="M 115.363636 295.927853 
L 115.893702 297.534236 
L 116.953833 291.108704 
L 117.483899 292.423017 
L 118.013964 298.26441 
L 118.54403 284.829207 
L 119.074095 285.705416 
L 119.604161 296.658027 
L 120.134226 297.388201 
L 120.664292 287.749903 
L 121.194357 297.096132 
L 121.724423 294.759574 
L 122.254488 287.019729 
L 122.784554 290.37853 
L 123.31462 289.064217 
L 123.844685 289.502321 
L 124.374751 288.480077 
L 124.904816 294.61354 
L 125.434882 284.975242 
L 125.964947 289.940426 
L 126.495013 292.130948 
L 127.555144 283.660928 
L 128.085209 288.626112 
L 128.615275 277.089362 
L 129.145341 282.20058 
L 129.675406 281.178337 
L 130.205472 275.921083 
L 130.735537 279.864023 
L 131.265603 279.279884 
L 131.795668 275.190909 
L 132.325734 275.629014 
L 132.855799 273.876596 
L 133.385865 271.101934 
L 133.91593 259.711219 
L 134.445996 268.765377 
L 134.976062 263.216054 
L 136.036193 255.038104 
L 136.566258 245.691876 
L 137.096324 247.00619 
L 137.626389 245.837911 
L 138.156455 235.323404 
L 138.68652 232.986847 
L 139.216586 238.974275 
L 139.746651 228.313733 
L 140.276717 223.494584 
L 140.806783 228.605803 
L 141.336848 215.462669 
L 141.866914 220.135783 
L 142.396979 212.980077 
L 143.45711 208.452998 
L 143.987176 202.027466 
L 144.517241 200.567118 
L 145.047307 205.240232 
L 145.577372 207.28472 
L 146.107438 197.938491 
L 146.637504 192.827273 
L 147.167569 195.455899 
L 147.697635 195.309865 
L 148.2277 191.658994 
L 148.757766 194.433656 
L 149.287831 186.109671 
L 149.817897 185.087427 
L 150.878028 195.017795 
L 151.408093 184.211219 
L 151.938159 183.919149 
L 152.468225 179.684139 
L 152.99829 186.109671 
L 153.528356 179.830174 
L 154.058421 176.325338 
L 154.588487 176.325338 
L 155.118552 179.39207 
L 155.648618 180.852418 
L 156.178683 173.258607 
L 156.708749 178.077756 
L 157.238814 173.550677 
L 157.76888 172.966538 
L 158.298946 172.966538 
L 158.829011 176.033269 
L 159.359077 170.629981 
L 159.889142 170.776015 
L 160.419208 175.15706 
L 160.949273 172.674468 
L 161.479339 173.988781 
L 162.009404 169.169632 
L 162.53947 171.798259 
L 163.069535 163.32824 
L 163.599601 159.531335 
L 164.129667 166.102901 
L 164.659732 163.620309 
L 165.189798 167.855319 
L 165.719863 164.058414 
L 166.249929 169.753772 
L 166.779994 170.337911 
L 167.31006 163.766344 
L 167.840125 161.283752 
L 168.370191 171.50619 
L 168.900256 160.991683 
L 169.960388 159.823404 
L 170.490453 161.429787 
L 171.020519 163.474275 
L 171.550584 163.182205 
L 172.08065 155.44236 
L 172.610715 167.417215 
L 173.140781 160.261509 
L 173.670846 157.632882 
L 174.200912 158.509091 
L 174.730977 157.778917 
L 175.261043 156.610638 
L 175.791109 160.845648 
L 176.321174 153.689942 
L 176.85124 150.331141 
L 177.381305 158.363056 
L 177.911371 156.318569 
L 178.441436 158.947195 
L 178.971502 157.632882 
L 179.501567 159.239265 
L 180.031633 162.159961 
L 180.561698 149.893037 
L 181.091764 159.09323 
L 181.62183 150.331141 
L 182.151895 151.20735 
L 182.681961 155.44236 
L 183.212026 149.016828 
L 183.742092 151.937524 
L 184.272157 152.083559 
L 184.802223 149.893037 
L 185.332288 151.061315 
L 185.862354 151.20735 
L 186.392419 146.97234 
L 186.922485 147.848549 
L 187.452551 145.950097 
L 187.982616 144.489749 
L 188.512682 149.162863 
L 189.042747 145.658027 
L 189.572813 146.242166 
L 190.102878 143.61354 
L 190.632944 150.331141 
L 191.693075 141.569052 
L 192.22314 144.927853 
L 192.753206 144.635783 
L 193.283272 140.400774 
L 193.813337 140.546809 
L 194.343403 148.286654 
L 194.873468 139.6706 
L 195.403534 140.546809 
L 195.933599 142.299226 
L 196.463665 139.08646 
L 196.99373 138.648356 
L 197.523796 139.816634 
L 198.053861 142.591296 
L 198.583927 135.43559 
L 199.113993 140.984913 
L 199.644058 139.08646 
L 200.174124 133.683172 
L 200.704189 137.334043 
L 201.234255 135.289555 
L 201.76432 132.222824 
L 202.294386 140.400774 
L 202.824451 141.715087 
L 203.354517 136.749903 
L 203.884583 135.43559 
L 204.414648 139.524565 
L 204.944714 136.457834 
L 205.474779 137.480077 
L 206.004845 135.72766 
L 206.53491 137.772147 
L 207.064976 125.943327 
L 207.595041 135.581625 
L 208.125107 128.864023 
L 208.655172 132.660928 
L 209.185238 133.975242 
L 209.715304 131.20058 
L 210.245369 131.20058 
L 210.775435 133.683172 
L 211.3055 127.695745 
L 211.835566 131.346615 
L 212.365631 132.368859 
L 212.895697 127.403675 
L 213.425762 130.324371 
L 213.955828 126.819536 
L 214.485893 131.930754 
L 215.015959 126.089362 
L 215.546025 130.616441 
L 216.07609 128.571954 
L 216.606156 128.717988 
L 217.136221 127.841779 
L 217.666287 132.806963 
L 218.196352 124.921083 
L 218.726418 125.213153 
L 219.256483 126.819536 
L 219.786549 124.044874 
L 220.316614 118.787621 
L 220.84668 123.022631 
L 221.376746 124.482979 
L 221.906811 128.425919 
L 222.436877 124.629014 
L 222.966942 122.292456 
L 223.497008 124.190909 
L 224.027073 121.854352 
L 224.557139 118.057447 
L 225.087204 121.854352 
L 225.61727 126.673501 
L 226.147335 119.37176 
L 226.677401 127.111605 
L 227.207467 124.775048 
L 227.737532 128.133849 
L 228.267598 123.752805 
L 228.797663 123.752805 
L 229.327729 121.124178 
L 229.857794 117.765377 
L 230.38786 117.327273 
L 230.917925 120.978143 
L 231.447991 118.787621 
L 231.978056 119.809865 
L 232.508122 116.889168 
L 233.038188 118.495551 
L 233.568253 119.37176 
L 234.628384 117.327273 
L 235.15845 121.124178 
L 235.688515 117.473308 
L 236.218581 115.42882 
L 237.278712 114.114507 
L 237.808777 120.247969 
L 238.338843 111.77795 
L 238.868909 119.225725 
L 239.398974 114.844681 
L 239.92904 122.000387 
L 240.459105 113.822437 
L 240.989171 115.282785 
L 241.519236 113.092263 
L 242.049302 112.216054 
L 243.109433 117.911412 
L 243.639498 112.362089 
L 244.169564 111.77795 
L 244.69963 115.13675 
L 245.229695 110.609671 
L 245.759761 112.800193 
L 246.289826 110.171567 
L 246.819892 115.42882 
L 247.349957 117.911412 
L 247.880023 114.844681 
L 248.410088 116.597099 
L 248.940154 109.733462 
L 249.470219 114.990716 
L 250.000285 106.228627 
L 250.530351 113.092263 
L 251.060416 108.565184 
L 251.590482 107.981044 
L 252.120547 110.755706 
L 252.650613 109.587427 
L 253.180678 109.003288 
L 253.710744 107.83501 
L 254.240809 105.060348 
L 254.770875 108.565184 
L 255.30094 104.914313 
L 255.831006 108.565184 
L 256.361072 106.666731 
L 256.891137 106.082592 
L 257.421203 105.206383 
L 257.951268 106.666731 
L 258.481334 100.241199 
L 259.011399 107.104836 
L 259.541465 105.644487 
L 260.07153 104.768279 
L 260.601596 104.330174 
L 261.131661 111.047776 
L 261.661727 105.060348 
L 262.191793 103.161896 
L 262.721858 101.993617 
L 263.251924 96.590329 
L 263.781989 103.746035 
L 264.312055 105.936557 
L 264.84212 105.206383 
L 265.372186 100.241199 
L 265.902251 104.622244 
L 266.432317 105.352418 
L 266.962382 103.89207 
L 267.492448 95.568085 
L 268.022514 97.028433 
L 268.552579 102.285687 
L 269.082645 98.780851 
L 269.61271 103.453965 
L 270.142776 99.072921 
L 270.672841 97.320503 
L 271.202907 98.634816 
L 271.732972 95.71412 
L 272.263038 100.387234 
L 272.793103 96.882398 
L 273.323169 97.904642 
L 273.853235 99.65706 
L 274.3833 96.882398 
L 274.913366 97.466538 
L 275.443431 96.882398 
L 275.973497 98.342747 
L 276.503562 93.377563 
L 277.033628 98.926886 
L 277.563693 95.860155 
L 278.093759 95.860155 
L 278.623824 96.736364 
L 279.15389 93.523598 
L 279.683956 95.568085 
L 280.214021 95.860155 
L 280.744087 95.860155 
L 281.274152 94.399807 
L 281.804218 94.253772 
L 282.334283 92.06325 
L 282.864349 94.545841 
L 283.394414 93.815667 
L 283.92448 92.793424 
L 284.454545 90.456867 
L 284.984611 98.780851 
L 285.514677 89.726692 
L 286.044742 86.659961 
L 286.574808 87.682205 
L 287.104873 92.209284 
L 287.634939 89.726692 
L 288.165004 97.174468 
L 288.69507 90.164797 
L 289.225135 87.098066 
L 290.285266 96.882398 
L 290.815332 89.580658 
L 291.345398 86.952031 
L 291.875463 96.152224 
L 292.405529 93.669632 
L 292.935594 87.682205 
L 293.46566 86.659961 
L 293.995725 91.47911 
L 294.525791 91.625145 
L 295.055856 93.815667 
L 295.585922 88.850484 
L 296.115987 86.659961 
L 296.646053 91.333075 
L 297.176119 85.491683 
L 297.706184 83.59323 
L 298.23625 84.761509 
L 298.766315 89.434623 
L 299.296381 91.77118 
L 299.826446 90.310832 
L 300.356512 83.301161 
L 300.886577 86.952031 
L 301.416643 82.717021 
L 301.946708 88.850484 
L 302.476774 87.974275 
L 303.00684 84.031335 
L 303.536905 86.805996 
L 304.066971 86.513926 
L 304.597036 88.996518 
L 305.127102 89.726692 
L 305.657167 83.8853 
L 306.187233 83.59323 
L 306.717298 90.456867 
L 307.247364 85.491683 
L 307.777429 83.739265 
L 308.307495 84.469439 
L 308.837561 87.974275 
L 309.367626 86.367892 
L 309.897692 91.625145 
L 310.427757 84.615474 
L 310.957823 85.053578 
L 312.017954 82.717021 
L 312.548019 80.088395 
L 313.078085 82.717021 
L 313.60815 84.031335 
L 314.138216 82.863056 
L 314.668282 79.94236 
L 315.198347 80.964603 
L 315.728413 85.199613 
L 316.258478 83.447195 
L 316.788544 83.447195 
L 317.318609 83.301161 
L 317.848675 80.380464 
L 318.37874 85.345648 
L 318.908806 80.234429 
L 319.438871 82.717021 
L 319.968937 82.570986 
L 320.499003 83.8853 
L 321.029068 78.920116 
L 321.559134 80.234429 
L 322.089199 83.739265 
L 322.619265 85.199613 
L 323.14933 79.65029 
L 323.679396 85.783752 
L 324.209461 83.739265 
L 325.269592 77.605803 
L 325.799658 80.234429 
L 326.329724 83.8853 
L 326.859789 76.437524 
L 327.389855 80.088395 
L 327.91992 81.694778 
L 328.980051 80.234429 
L 329.510117 80.672534 
L 330.040182 78.043907 
L 330.570248 83.301161 
L 331.100313 82.570986 
L 331.630379 82.424952 
L 332.160445 75.41528 
L 332.69051 78.628046 
L 333.220576 83.155126 
L 333.750641 82.717021 
L 334.280707 80.818569 
L 334.810772 74.539072 
L 335.340838 73.954932 
L 335.870903 75.70735 
L 336.400969 79.358221 
L 336.931034 73.808897 
L 337.4611 72.494584 
L 337.991166 79.066151 
L 338.521231 74.539072 
L 339.051297 76.291489 
L 339.581362 78.628046 
L 340.111428 77.459768 
L 340.641493 78.920116 
L 341.171559 81.402708 
L 342.23169 76.437524 
L 342.761755 76.875629 
L 343.291821 80.818569 
L 343.821887 74.685106 
L 344.351952 72.932689 
L 344.882018 77.021663 
L 345.412083 73.808897 
L 346.472214 75.41528 
L 347.00228 83.739265 
L 347.532345 73.954932 
L 348.062411 73.662863 
L 348.592476 76.583559 
L 349.652608 76.875629 
L 350.182673 73.662863 
L 350.712739 72.640619 
L 351.77287 79.94236 
L 352.302935 74.685106 
L 352.833001 74.685106 
L 353.363066 68.551644 
L 353.893132 74.100967 
L 354.423197 76.875629 
L 354.953263 73.224758 
L 355.483329 71.618375 
L 356.013394 71.47234 
L 356.54346 73.370793 
L 357.073525 74.393037 
L 357.603591 72.05648 
L 358.133656 77.459768 
L 358.663722 77.897872 
L 359.193787 70.888201 
L 359.723853 73.370793 
L 360.253918 73.516828 
L 360.783984 71.910445 
L 361.31405 71.618375 
L 361.844115 74.393037 
L 362.904246 68.11354 
L 363.434312 71.47234 
L 363.964377 70.596132 
L 364.494443 72.494584 
L 365.024508 73.662863 
L 366.084639 72.05648 
L 366.614705 70.158027 
L 367.144771 69.427853 
L 367.674836 70.888201 
L 368.204902 72.932689 
L 368.734967 71.326306 
L 369.265033 71.47234 
L 369.795098 73.808897 
L 370.325164 67.5294 
L 370.855229 68.843714 
L 371.385295 72.932689 
L 371.915361 73.224758 
L 372.445426 70.158027 
L 372.975492 74.977176 
L 373.505557 70.011992 
L 374.035623 70.888201 
L 374.565688 72.786654 
L 375.095754 72.494584 
L 375.625819 73.662863 
L 376.155885 70.304062 
L 376.68595 71.034236 
L 377.216016 74.539072 
L 377.746082 71.910445 
L 378.276147 77.605803 
L 378.806213 69.865957 
L 379.336278 72.640619 
L 379.866344 71.326306 
L 380.396409 74.977176 
L 380.926475 72.05648 
L 381.45654 71.76441 
L 381.986606 69.865957 
L 382.516671 70.011992 
L 383.046737 73.516828 
L 383.576803 65.630948 
L 384.106868 69.281818 
L 384.636934 71.034236 
L 385.166999 70.011992 
L 385.697065 72.640619 
L 386.22713 70.742166 
L 386.757196 69.719923 
L 387.287261 70.742166 
L 387.817327 67.82147 
L 388.347392 71.180271 
L 388.877458 68.11354 
L 389.407524 68.259574 
L 389.937589 70.158027 
L 390.467655 70.888201 
L 390.99772 68.697679 
L 391.527786 73.954932 
L 392.057851 73.516828 
L 392.587917 75.853385 
L 393.117982 70.888201 
L 393.648048 72.640619 
L 394.178113 70.158027 
L 394.708179 73.078723 
L 395.238245 69.573888 
L 395.76831 71.180271 
L 396.298376 70.888201 
L 396.828441 69.427853 
L 397.358507 68.551644 
L 397.888572 68.11354 
L 398.418638 72.05648 
L 398.948703 72.05648 
L 399.478769 68.697679 
L 400.008834 67.237331 
L 400.5389 69.573888 
L 401.068966 75.853385 
L 401.599031 69.573888 
L 402.129097 69.135783 
L 402.659162 70.450097 
L 403.189228 66.945261 
L 403.719293 66.945261 
L 404.249359 69.427853 
L 404.779424 68.843714 
L 405.30949 68.989749 
L 406.369621 70.304062 
L 406.899687 72.05648 
L 407.429752 69.719923 
L 407.959818 61.103868 
L 409.019949 74.100967 
L 409.550014 66.799226 
L 410.08008 72.202515 
L 410.610145 72.202515 
L 411.140211 70.011992 
L 411.670276 69.573888 
L 412.200342 68.11354 
L 412.730408 68.259574 
L 413.260473 65.046809 
L 413.790539 73.370793 
L 414.320604 66.069052 
L 414.85067 66.945261 
L 415.380735 65.338878 
L 415.910801 68.551644 
L 416.440866 70.011992 
L 416.970932 65.046809 
L 417.500997 63.002321 
L 418.031063 68.843714 
L 418.561129 67.237331 
L 419.091194 67.091296 
L 419.62126 68.11354 
L 420.151325 64.024565 
L 420.681391 66.507157 
L 421.211456 66.215087 
L 421.741522 66.799226 
L 422.271587 70.742166 
L 422.801653 65.630948 
L 423.331718 67.383366 
L 423.861784 64.024565 
L 424.39185 63.58646 
L 424.921915 66.215087 
L 425.451981 67.5294 
L 425.982046 64.608704 
L 426.512112 67.237331 
L 427.042177 65.484913 
L 427.572243 70.888201 
L 428.102308 66.361122 
L 428.632374 63.002321 
L 429.162439 60.957834 
L 429.692505 68.551644 
L 430.222571 65.484913 
L 430.752636 69.281818 
L 431.282702 67.5294 
L 431.812767 72.494584 
L 432.342833 71.180271 
L 432.872898 65.192843 
L 433.402964 62.856286 
L 433.933029 62.126112 
L 434.99316 69.865957 
L 435.523226 64.316634 
L 436.053292 65.338878 
L 436.583357 66.945261 
L 437.113423 66.215087 
L 437.643488 62.126112 
L 438.173554 65.484913 
L 438.703619 66.653191 
L 439.233685 68.405609 
L 439.76375 64.608704 
L 440.293816 62.418182 
L 440.823881 63.440426 
L 441.353947 61.249903 
L 441.884013 68.697679 
L 442.414078 62.418182 
L 442.944144 63.440426 
L 443.474209 62.856286 
L 444.004275 66.069052 
L 444.53434 65.923017 
L 445.064406 62.272147 
L 445.594471 64.462669 
L 446.124537 64.608704 
L 446.654602 68.697679 
L 447.184668 65.484913 
L 447.714734 64.754739 
L 448.244799 63.002321 
L 448.774865 68.11354 
L 449.30493 68.259574 
L 449.834996 62.418182 
L 450.365061 59.205416 
L 450.895127 64.754739 
L 451.425192 66.507157 
L 451.955258 64.608704 
L 452.485323 65.046809 
L 453.015389 67.091296 
L 454.605586 65.338878 
L 455.135651 65.046809 
L 455.665717 62.856286 
L 456.195782 64.316634 
L 456.725848 63.732495 
L 457.255913 65.630948 
L 458.316044 64.316634 
L 458.84611 65.484913 
L 459.376176 68.11354 
L 459.906241 71.618375 
L 460.436307 64.754739 
L 460.966372 62.272147 
L 461.496438 64.900774 
L 462.026503 62.418182 
L 462.556569 63.294391 
L 463.086634 66.361122 
L 463.6167 67.091296 
L 464.146765 67.237331 
L 464.676831 66.799226 
L 465.206897 61.688008 
L 465.736962 68.259574 
L 466.267028 69.865957 
L 466.797093 64.754739 
L 467.327159 65.630948 
L 467.857224 63.294391 
L 468.38729 68.697679 
L 468.917355 61.249903 
L 469.447421 61.541973 
L 469.977486 64.1706 
L 470.507552 66.215087 
L 471.037618 62.710251 
L 471.567683 60.957834 
L 472.097749 62.710251 
L 472.627814 69.281818 
L 473.15788 59.93559 
L 473.687945 65.630948 
L 474.218011 67.237331 
L 474.748076 61.980077 
L 475.278142 67.383366 
L 475.808207 65.484913 
L 476.338273 67.967505 
L 476.868339 63.58646 
L 477.398404 71.034236 
L 477.92847 66.799226 
L 478.458535 60.665764 
L 478.988601 62.564217 
L 479.518666 71.618375 
L 480.048732 64.024565 
L 480.578797 62.272147 
L 481.108863 67.237331 
L 481.638928 66.507157 
L 482.168994 62.856286 
L 482.69906 62.418182 
L 483.229125 67.383366 
L 483.759191 64.1706 
L 484.289256 63.58646 
L 484.819322 65.192843 
L 485.349387 61.103868 
L 485.879453 69.135783 
L 486.409518 65.192843 
L 486.939584 64.754739 
L 487.469649 61.541973 
L 487.999715 63.148356 
L 488.529781 65.192843 
L 489.059846 66.653191 
L 489.589912 60.811799 
L 490.119977 56.28472 
L 490.650043 66.361122 
L 491.180108 63.732495 
L 491.710174 59.64352 
L 492.240239 62.710251 
L 492.770305 67.967505 
L 493.30037 64.462669 
L 493.830436 63.440426 
L 494.360502 63.58646 
L 495.420633 60.081625 
L 495.950698 62.126112 
L 496.480764 66.507157 
L 497.010829 63.87853 
L 497.540895 65.923017 
L 498.07096 64.608704 
L 498.601026 64.024565 
L 499.131091 64.462669 
L 499.661157 60.373694 
L 500.191223 64.024565 
L 500.721288 62.710251 
L 501.251354 62.126112 
L 501.781419 60.081625 
L 502.311485 61.395938 
L 502.84155 60.373694 
L 503.371616 63.440426 
L 503.901681 59.497485 
L 504.431747 64.754739 
L 504.961812 58.767311 
L 505.491878 61.249903 
L 506.021944 65.338878 
L 506.552009 67.967505 
L 507.082075 64.462669 
L 507.61214 68.551644 
L 508.142206 64.316634 
L 508.672271 64.900774 
L 509.202337 62.710251 
L 509.732402 59.205416 
L 510.262468 65.338878 
L 510.792533 61.834043 
L 511.322599 66.069052 
L 511.852665 61.541973 
L 512.38273 63.148356 
L 512.912796 63.148356 
L 513.442861 62.856286 
L 514.502992 58.913346 
L 515.563123 61.688008 
L 516.093189 60.519729 
L 516.623254 57.745068 
L 517.15332 60.081625 
L 517.683386 64.024565 
L 518.213451 61.249903 
L 518.743517 57.599033 
L 519.273582 62.126112 
L 519.803648 63.148356 
L 520.333713 66.215087 
L 520.863779 63.58646 
L 521.393844 64.316634 
L 521.92391 64.1706 
L 522.453975 63.148356 
L 522.984041 60.811799 
L 523.514107 65.484913 
L 524.044172 61.541973 
L 524.574238 61.103868 
L 525.104303 67.675435 
L 525.634369 63.58646 
L 526.164434 60.373694 
L 526.6945 63.294391 
L 527.224565 63.294391 
L 528.284696 57.160928 
L 528.814762 56.722824 
L 529.344828 65.630948 
L 529.874893 57.306963 
L 530.404959 62.272147 
L 530.935024 62.126112 
L 531.46509 57.745068 
L 531.995155 64.900774 
L 532.525221 65.338878 
L 533.585352 60.22766 
L 534.115417 64.024565 
L 534.645483 60.811799 
L 535.175549 60.22766 
L 535.705614 63.002321 
L 536.23568 61.249903 
L 536.765745 63.58646 
L 537.295811 62.126112 
L 537.825876 64.316634 
L 538.355942 62.418182 
L 538.886007 61.541973 
L 539.416073 66.361122 
L 539.946139 67.091296 
L 540.476204 65.046809 
L 541.00627 59.059381 
L 541.536335 60.081625 
L 542.066401 60.22766 
L 542.596466 58.767311 
L 543.126532 61.541973 
L 543.656597 58.329207 
L 544.186663 61.688008 
L 544.716728 60.957834 
L 545.246794 65.776983 
L 545.77686 65.923017 
L 546.306925 60.22766 
L 546.836991 60.519729 
L 547.367056 63.87853 
L 547.897122 63.58646 
L 548.427187 63.440426 
L 548.957253 65.923017 
L 549.487318 61.395938 
L 550.017384 63.732495 
L 550.547449 63.87853 
L 551.077515 63.294391 
L 551.607581 61.103868 
L 552.137646 60.665764 
L 552.667712 63.87853 
L 553.197777 59.059381 
L 553.727843 61.249903 
L 554.257908 64.608704 
L 554.787974 60.22766 
L 555.318039 58.037137 
L 555.848105 59.64352 
L 556.37817 63.87853 
L 557.438302 62.856286 
L 557.968367 65.923017 
L 558.498433 61.834043 
L 559.028498 59.64352 
L 559.558564 59.351451 
L 560.088629 62.710251 
L 560.618695 65.046809 
L 561.14876 60.373694 
L 561.678826 57.306963 
L 562.208891 58.621277 
L 562.738957 56.722824 
L 563.269023 61.541973 
L 563.799088 61.980077 
L 564.329154 61.688008 
L 564.859219 59.205416 
L 565.389285 64.024565 
L 565.91935 61.688008 
L 566.449416 65.192843 
L 566.979481 64.754739 
L 567.509547 63.732495 
L 568.039612 61.980077 
L 569.099744 60.081625 
L 569.629809 57.599033 
L 570.159875 60.957834 
L 570.68994 59.93559 
L 571.220006 65.192843 
L 571.750071 58.621277 
L 572.280137 62.856286 
L 572.810202 59.497485 
L 573.340268 59.059381 
L 573.870333 63.440426 
L 574.400399 61.688008 
L 574.930465 60.665764 
L 575.46053 60.665764 
L 575.990596 61.541973 
L 576.520661 58.913346 
L 577.050727 63.58646 
L 577.580792 61.103868 
L 578.110858 62.126112 
L 578.640923 61.395938 
L 579.170989 59.497485 
L 579.701054 63.002321 
L 580.23112 56.430754 
L 580.761186 62.272147 
L 581.291251 61.980077 
L 581.821317 63.440426 
L 582.351382 60.957834 
L 582.881448 59.205416 
L 583.411513 62.710251 
L 583.941579 64.1706 
L 584.471644 62.272147 
L 585.00171 64.754739 
L 585.531775 56.576789 
L 586.061841 60.665764 
L 586.591907 58.621277 
L 587.121972 58.913346 
L 587.652038 58.913346 
L 588.712169 60.22766 
L 589.242234 59.93559 
L 589.7723 63.87853 
L 590.302365 64.024565 
L 590.832431 58.037137 
L 591.362496 58.767311 
L 591.892562 56.868859 
L 592.422628 57.599033 
L 592.952693 60.665764 
L 593.482759 59.789555 
L 594.012824 59.497485 
L 594.54289 63.440426 
L 595.072955 57.745068 
L 595.603021 64.1706 
L 596.133086 63.294391 
L 596.663152 59.059381 
L 597.193217 59.205416 
L 598.783414 61.688008 
L 599.31348 62.418182 
L 599.843545 61.834043 
L 600.903676 58.475242 
L 601.433742 58.037137 
L 601.963807 59.351451 
L 602.493873 63.002321 
L 603.023938 65.338878 
L 603.554004 59.351451 
L 604.08407 57.745068 
L 604.614135 60.957834 
L 605.144201 59.64352 
L 605.674266 59.64352 
L 606.204332 59.351451 
L 606.734397 62.710251 
L 607.264463 65.046809 
L 607.794528 63.294391 
L 608.324594 63.148356 
L 608.854659 61.834043 
L 609.384725 58.767311 
L 609.914791 58.621277 
L 610.444856 56.722824 
L 611.504987 61.249903 
L 612.035053 61.541973 
L 612.565118 57.306963 
L 613.095184 63.148356 
L 613.625249 55.554545 
L 614.155315 63.87853 
L 614.68538 62.856286 
L 615.215446 61.541973 
L 615.745512 61.103868 
L 616.275577 63.732495 
L 616.805643 58.183172 
L 617.865774 59.351451 
L 618.395839 56.868859 
L 618.925905 61.395938 
L 619.45597 62.564217 
L 619.986036 61.980077 
L 620.516101 58.475242 
L 621.046167 57.014894 
L 621.576233 61.395938 
L 622.106298 58.913346 
L 622.636364 60.957834 
L 622.636364 60.957834 
" style="fill:none;stroke:#ff7f0e;stroke-linecap:square;stroke-width:0.5;"/>
   </g>
   <g id="patch_3">
    <path d="M 90 315 
L 90 43.2 
" style="fill:none;stroke:#000000;stroke-linecap:square;stroke-linejoin:miter;stroke-width:0.8;"/>
   </g>
   <g id="patch_4">
    <path d="M 648 315 
L 648 43.2 
" style="fill:none;stroke:#000000;stroke-linecap:square;stroke-linejoin:miter;stroke-width:0.8;"/>
   </g>
   <g id="patch_5">
    <path d="M 90 315 
L 648 315 
" style="fill:none;stroke:#000000;stroke-linecap:square;stroke-linejoin:miter;stroke-width:0.8;"/>
   </g>
   <g id="patch_6">
    <path d="M 90 43.2 
L 648 43.2 
" style="fill:none;stroke:#000000;stroke-linecap:square;stroke-linejoin:miter;stroke-width:0.8;"/>
   </g>
   <g id="text_16">
    <!-- accuracy -->
    <g transform="translate(341.92875 37.2)scale(0.12 -0.12)">
     <use xlink:href="#DejaVuSans-97"/>
     <use x="61.279297" xlink:href="#DejaVuSans-99"/>
     <use x="116.259766" xlink:href="#DejaVuSans-99"/>
     <use x="171.240234" xlink:href="#DejaVuSans-117"/>
     <use x="234.619141" xlink:href="#DejaVuSans-114"/>
     <use x="275.732422" xlink:href="#DejaVuSans-97"/>
     <use x="337.011719" xlink:href="#DejaVuSans-99"/>
     <use x="391.992188" xlink:href="#DejaVuSans-121"/>
    </g>
   </g>
   <g id="legend_1">
    <g id="patch_7">
     <path d="M 97 80.55625 
L 169.153125 80.55625 
Q 171.153125 80.55625 171.153125 78.55625 
L 171.153125 50.2 
Q 171.153125 48.2 169.153125 48.2 
L 97 48.2 
Q 95 48.2 95 50.2 
L 95 78.55625 
Q 95 80.55625 97 80.55625 
z
" style="fill:#ffffff;opacity:0.8;stroke:#cccccc;stroke-linejoin:miter;"/>
    </g>
    <g id="line2d_29">
     <path d="M 99 56.298437 
L 119 56.298437 
" style="fill:none;stroke:#1f77b4;stroke-linecap:square;stroke-width:0.5;"/>
    </g>
    <g id="line2d_30"/>
    <g id="text_17">
     <!-- train -->
     <defs>
      <path d="M 18.3125 70.21875 
L 18.3125 54.6875 
L 36.8125 54.6875 
L 36.8125 47.703125 
L 18.3125 47.703125 
L 18.3125 18.015625 
Q 18.3125 11.328125 20.140625 9.421875 
Q 21.96875 7.515625 27.59375 7.515625 
L 36.8125 7.515625 
L 36.8125 0 
L 27.59375 0 
Q 17.1875 0 13.234375 3.875 
Q 9.28125 7.765625 9.28125 18.015625 
L 9.28125 47.703125 
L 2.6875 47.703125 
L 2.6875 54.6875 
L 9.28125 54.6875 
L 9.28125 70.21875 
z
" id="DejaVuSans-116"/>
      <path d="M 9.421875 54.6875 
L 18.40625 54.6875 
L 18.40625 0 
L 9.421875 0 
z
M 9.421875 75.984375 
L 18.40625 75.984375 
L 18.40625 64.59375 
L 9.421875 64.59375 
z
" id="DejaVuSans-105"/>
      <path d="M 54.890625 33.015625 
L 54.890625 0 
L 45.90625 0 
L 45.90625 32.71875 
Q 45.90625 40.484375 42.875 44.328125 
Q 39.84375 48.1875 33.796875 48.1875 
Q 26.515625 48.1875 22.3125 43.546875 
Q 18.109375 38.921875 18.109375 30.90625 
L 18.109375 0 
L 9.078125 0 
L 9.078125 54.6875 
L 18.109375 54.6875 
L 18.109375 46.1875 
Q 21.34375 51.125 25.703125 53.5625 
Q 30.078125 56 35.796875 56 
Q 45.21875 56 50.046875 50.171875 
Q 54.890625 44.34375 54.890625 33.015625 
z
" id="DejaVuSans-110"/>
     </defs>
     <g transform="translate(127 59.798437)scale(0.1 -0.1)">
      <use xlink:href="#DejaVuSans-116"/>
      <use x="39.208984" xlink:href="#DejaVuSans-114"/>
      <use x="80.322266" xlink:href="#DejaVuSans-97"/>
      <use x="141.601562" xlink:href="#DejaVuSans-105"/>
      <use x="169.384766" xlink:href="#DejaVuSans-110"/>
     </g>
    </g>
    <g id="line2d_31">
     <path d="M 99 70.976562 
L 119 70.976562 
" style="fill:none;stroke:#ff7f0e;stroke-linecap:square;stroke-width:0.5;"/>
    </g>
    <g id="line2d_32"/>
    <g id="text_18">
     <!-- validate -->
     <defs>
      <path d="M 2.984375 54.6875 
L 12.5 54.6875 
L 29.59375 8.796875 
L 46.6875 54.6875 
L 56.203125 54.6875 
L 35.6875 0 
L 23.484375 0 
z
" id="DejaVuSans-118"/>
      <path d="M 9.421875 75.984375 
L 18.40625 75.984375 
L 18.40625 0 
L 9.421875 0 
z
" id="DejaVuSans-108"/>
      <path d="M 45.40625 46.390625 
L 45.40625 75.984375 
L 54.390625 75.984375 
L 54.390625 0 
L 45.40625 0 
L 45.40625 8.203125 
Q 42.578125 3.328125 38.25 0.953125 
Q 33.9375 -1.421875 27.875 -1.421875 
Q 17.96875 -1.421875 11.734375 6.484375 
Q 5.515625 14.40625 5.515625 27.296875 
Q 5.515625 40.1875 11.734375 48.09375 
Q 17.96875 56 27.875 56 
Q 33.9375 56 38.25 53.625 
Q 42.578125 51.265625 45.40625 46.390625 
z
M 14.796875 27.296875 
Q 14.796875 17.390625 18.875 11.75 
Q 22.953125 6.109375 30.078125 6.109375 
Q 37.203125 6.109375 41.296875 11.75 
Q 45.40625 17.390625 45.40625 27.296875 
Q 45.40625 37.203125 41.296875 42.84375 
Q 37.203125 48.484375 30.078125 48.484375 
Q 22.953125 48.484375 18.875 42.84375 
Q 14.796875 37.203125 14.796875 27.296875 
z
" id="DejaVuSans-100"/>
     </defs>
     <g transform="translate(127 74.476562)scale(0.1 -0.1)">
      <use xlink:href="#DejaVuSans-118"/>
      <use x="59.179688" xlink:href="#DejaVuSans-97"/>
      <use x="120.458984" xlink:href="#DejaVuSans-108"/>
      <use x="148.242188" xlink:href="#DejaVuSans-105"/>
      <use x="176.025391" xlink:href="#DejaVuSans-100"/>
      <use x="239.501953" xlink:href="#DejaVuSans-97"/>
      <use x="300.78125" xlink:href="#DejaVuSans-116"/>
      <use x="339.990234" xlink:href="#DejaVuSans-101"/>
     </g>
    </g>
   </g>
  </g>
 </g>
 <defs>
  <clipPath id="p2f056f7e17">
   <rect height="271.8" width="558" x="90" y="43.2"/>
  </clipPath>
 </defs>
</svg>
