<?xml version="1.0" encoding="utf-8" standalone="no"?>
<!DOCTYPE svg PUBLIC "-//W3C//DTD SVG 1.1//EN"
  "http://www.w3.org/Graphics/SVG/1.1/DTD/svg11.dtd">
<!-- Created with matplotlib (https://matplotlib.org/) -->
<svg height="360pt" version="1.1" viewBox="0 0 720 360" width="720pt" xmlns="http://www.w3.org/2000/svg" xmlns:xlink="http://www.w3.org/1999/xlink">
 <defs>
  <style type="text/css">
*{stroke-linecap:butt;stroke-linejoin:round;}
  </style>
 </defs>
 <g id="figure_1">
  <g id="patch_1">
   <path d="M 0 360 
L 720 360 
L 720 0 
L 0 0 
z
" style="fill:#ffffff;"/>
  </g>
  <g id="axes_1">
   <g id="patch_2">
    <path d="M 90 315 
L 648 315 
L 648 43.2 
L 90 43.2 
z
" style="fill:#ffffff;"/>
   </g>
   <g id="matplotlib.axis_1">
    <g id="xtick_1">
     <g id="line2d_1">
      <path clip-path="url(#p9727763f2b)" d="M 115.363636 315 
L 115.363636 43.2 
" style="fill:none;stroke:#b0b0b0;stroke-linecap:square;stroke-width:0.8;"/>
     </g>
     <g id="line2d_2">
      <defs>
       <path d="M 0 0 
L 0 3.5 
" id="meda0ec96a5" style="stroke:#000000;stroke-width:0.8;"/>
      </defs>
      <g>
       <use style="stroke:#000000;stroke-width:0.8;" x="115.363636" xlink:href="#meda0ec96a5" y="315"/>
      </g>
     </g>
     <g id="text_1">
      <!-- 0 -->
      <defs>
       <path d="M 31.78125 66.40625 
Q 24.171875 66.40625 20.328125 58.90625 
Q 16.5 51.421875 16.5 36.375 
Q 16.5 21.390625 20.328125 13.890625 
Q 24.171875 6.390625 31.78125 6.390625 
Q 39.453125 6.390625 43.28125 13.890625 
Q 47.125 21.390625 47.125 36.375 
Q 47.125 51.421875 43.28125 58.90625 
Q 39.453125 66.40625 31.78125 66.40625 
z
M 31.78125 74.21875 
Q 44.046875 74.21875 50.515625 64.515625 
Q 56.984375 54.828125 56.984375 36.375 
Q 56.984375 17.96875 50.515625 8.265625 
Q 44.046875 -1.421875 31.78125 -1.421875 
Q 19.53125 -1.421875 13.0625 8.265625 
Q 6.59375 17.96875 6.59375 36.375 
Q 6.59375 54.828125 13.0625 64.515625 
Q 19.53125 74.21875 31.78125 74.21875 
z
" id="DejaVuSans-48"/>
      </defs>
      <g transform="translate(112.182386 329.598437)scale(0.1 -0.1)">
       <use xlink:href="#DejaVuSans-48"/>
      </g>
     </g>
    </g>
    <g id="xtick_2">
     <g id="line2d_3">
      <path clip-path="url(#p9727763f2b)" d="M 204.750901 315 
L 204.750901 43.2 
" style="fill:none;stroke:#b0b0b0;stroke-linecap:square;stroke-width:0.8;"/>
     </g>
     <g id="line2d_4">
      <g>
       <use style="stroke:#000000;stroke-width:0.8;" x="204.750901" xlink:href="#meda0ec96a5" y="315"/>
      </g>
     </g>
     <g id="text_2">
      <!-- 200 -->
      <defs>
       <path d="M 19.1875 8.296875 
L 53.609375 8.296875 
L 53.609375 0 
L 7.328125 0 
L 7.328125 8.296875 
Q 12.9375 14.109375 22.625 23.890625 
Q 32.328125 33.6875 34.8125 36.53125 
Q 39.546875 41.84375 41.421875 45.53125 
Q 43.3125 49.21875 43.3125 52.78125 
Q 43.3125 58.59375 39.234375 62.25 
Q 35.15625 65.921875 28.609375 65.921875 
Q 23.96875 65.921875 18.8125 64.3125 
Q 13.671875 62.703125 7.8125 59.421875 
L 7.8125 69.390625 
Q 13.765625 71.78125 18.9375 73 
Q 24.125 74.21875 28.421875 74.21875 
Q 39.75 74.21875 46.484375 68.546875 
Q 53.21875 62.890625 53.21875 53.421875 
Q 53.21875 48.921875 51.53125 44.890625 
Q 49.859375 40.875 45.40625 35.40625 
Q 44.1875 33.984375 37.640625 27.21875 
Q 31.109375 20.453125 19.1875 8.296875 
z
" id="DejaVuSans-50"/>
      </defs>
      <g transform="translate(195.207151 329.598437)scale(0.1 -0.1)">
       <use xlink:href="#DejaVuSans-50"/>
       <use x="63.623047" xlink:href="#DejaVuSans-48"/>
       <use x="127.246094" xlink:href="#DejaVuSans-48"/>
      </g>
     </g>
    </g>
    <g id="xtick_3">
     <g id="line2d_5">
      <path clip-path="url(#p9727763f2b)" d="M 294.138166 315 
L 294.138166 43.2 
" style="fill:none;stroke:#b0b0b0;stroke-linecap:square;stroke-width:0.8;"/>
     </g>
     <g id="line2d_6">
      <g>
       <use style="stroke:#000000;stroke-width:0.8;" x="294.138166" xlink:href="#meda0ec96a5" y="315"/>
      </g>
     </g>
     <g id="text_3">
      <!-- 400 -->
      <defs>
       <path d="M 37.796875 64.3125 
L 12.890625 25.390625 
L 37.796875 25.390625 
z
M 35.203125 72.90625 
L 47.609375 72.90625 
L 47.609375 25.390625 
L 58.015625 25.390625 
L 58.015625 17.1875 
L 47.609375 17.1875 
L 47.609375 0 
L 37.796875 0 
L 37.796875 17.1875 
L 4.890625 17.1875 
L 4.890625 26.703125 
z
" id="DejaVuSans-52"/>
      </defs>
      <g transform="translate(284.594416 329.598437)scale(0.1 -0.1)">
       <use xlink:href="#DejaVuSans-52"/>
       <use x="63.623047" xlink:href="#DejaVuSans-48"/>
       <use x="127.246094" xlink:href="#DejaVuSans-48"/>
      </g>
     </g>
    </g>
    <g id="xtick_4">
     <g id="line2d_7">
      <path clip-path="url(#p9727763f2b)" d="M 383.525431 315 
L 383.525431 43.2 
" style="fill:none;stroke:#b0b0b0;stroke-linecap:square;stroke-width:0.8;"/>
     </g>
     <g id="line2d_8">
      <g>
       <use style="stroke:#000000;stroke-width:0.8;" x="383.525431" xlink:href="#meda0ec96a5" y="315"/>
      </g>
     </g>
     <g id="text_4">
      <!-- 600 -->
      <defs>
       <path d="M 33.015625 40.375 
Q 26.375 40.375 22.484375 35.828125 
Q 18.609375 31.296875 18.609375 23.390625 
Q 18.609375 15.53125 22.484375 10.953125 
Q 26.375 6.390625 33.015625 6.390625 
Q 39.65625 6.390625 43.53125 10.953125 
Q 47.40625 15.53125 47.40625 23.390625 
Q 47.40625 31.296875 43.53125 35.828125 
Q 39.65625 40.375 33.015625 40.375 
z
M 52.59375 71.296875 
L 52.59375 62.3125 
Q 48.875 64.0625 45.09375 64.984375 
Q 41.3125 65.921875 37.59375 65.921875 
Q 27.828125 65.921875 22.671875 59.328125 
Q 17.53125 52.734375 16.796875 39.40625 
Q 19.671875 43.65625 24.015625 45.921875 
Q 28.375 48.1875 33.59375 48.1875 
Q 44.578125 48.1875 50.953125 41.515625 
Q 57.328125 34.859375 57.328125 23.390625 
Q 57.328125 12.15625 50.6875 5.359375 
Q 44.046875 -1.421875 33.015625 -1.421875 
Q 20.359375 -1.421875 13.671875 8.265625 
Q 6.984375 17.96875 6.984375 36.375 
Q 6.984375 53.65625 15.1875 63.9375 
Q 23.390625 74.21875 37.203125 74.21875 
Q 40.921875 74.21875 44.703125 73.484375 
Q 48.484375 72.75 52.59375 71.296875 
z
" id="DejaVuSans-54"/>
      </defs>
      <g transform="translate(373.981681 329.598437)scale(0.1 -0.1)">
       <use xlink:href="#DejaVuSans-54"/>
       <use x="63.623047" xlink:href="#DejaVuSans-48"/>
       <use x="127.246094" xlink:href="#DejaVuSans-48"/>
      </g>
     </g>
    </g>
    <g id="xtick_5">
     <g id="line2d_9">
      <path clip-path="url(#p9727763f2b)" d="M 472.912695 315 
L 472.912695 43.2 
" style="fill:none;stroke:#b0b0b0;stroke-linecap:square;stroke-width:0.8;"/>
     </g>
     <g id="line2d_10">
      <g>
       <use style="stroke:#000000;stroke-width:0.8;" x="472.912695" xlink:href="#meda0ec96a5" y="315"/>
      </g>
     </g>
     <g id="text_5">
      <!-- 800 -->
      <defs>
       <path d="M 31.78125 34.625 
Q 24.75 34.625 20.71875 30.859375 
Q 16.703125 27.09375 16.703125 20.515625 
Q 16.703125 13.921875 20.71875 10.15625 
Q 24.75 6.390625 31.78125 6.390625 
Q 38.8125 6.390625 42.859375 10.171875 
Q 46.921875 13.96875 46.921875 20.515625 
Q 46.921875 27.09375 42.890625 30.859375 
Q 38.875 34.625 31.78125 34.625 
z
M 21.921875 38.8125 
Q 15.578125 40.375 12.03125 44.71875 
Q 8.5 49.078125 8.5 55.328125 
Q 8.5 64.0625 14.71875 69.140625 
Q 20.953125 74.21875 31.78125 74.21875 
Q 42.671875 74.21875 48.875 69.140625 
Q 55.078125 64.0625 55.078125 55.328125 
Q 55.078125 49.078125 51.53125 44.71875 
Q 48 40.375 41.703125 38.8125 
Q 48.828125 37.15625 52.796875 32.3125 
Q 56.78125 27.484375 56.78125 20.515625 
Q 56.78125 9.90625 50.3125 4.234375 
Q 43.84375 -1.421875 31.78125 -1.421875 
Q 19.734375 -1.421875 13.25 4.234375 
Q 6.78125 9.90625 6.78125 20.515625 
Q 6.78125 27.484375 10.78125 32.3125 
Q 14.796875 37.15625 21.921875 38.8125 
z
M 18.3125 54.390625 
Q 18.3125 48.734375 21.84375 45.5625 
Q 25.390625 42.390625 31.78125 42.390625 
Q 38.140625 42.390625 41.71875 45.5625 
Q 45.3125 48.734375 45.3125 54.390625 
Q 45.3125 60.0625 41.71875 63.234375 
Q 38.140625 66.40625 31.78125 66.40625 
Q 25.390625 66.40625 21.84375 63.234375 
Q 18.3125 60.0625 18.3125 54.390625 
z
" id="DejaVuSans-56"/>
      </defs>
      <g transform="translate(463.368945 329.598437)scale(0.1 -0.1)">
       <use xlink:href="#DejaVuSans-56"/>
       <use x="63.623047" xlink:href="#DejaVuSans-48"/>
       <use x="127.246094" xlink:href="#DejaVuSans-48"/>
      </g>
     </g>
    </g>
    <g id="xtick_6">
     <g id="line2d_11">
      <path clip-path="url(#p9727763f2b)" d="M 562.29996 315 
L 562.29996 43.2 
" style="fill:none;stroke:#b0b0b0;stroke-linecap:square;stroke-width:0.8;"/>
     </g>
     <g id="line2d_12">
      <g>
       <use style="stroke:#000000;stroke-width:0.8;" x="562.29996" xlink:href="#meda0ec96a5" y="315"/>
      </g>
     </g>
     <g id="text_6">
      <!-- 1000 -->
      <defs>
       <path d="M 12.40625 8.296875 
L 28.515625 8.296875 
L 28.515625 63.921875 
L 10.984375 60.40625 
L 10.984375 69.390625 
L 28.421875 72.90625 
L 38.28125 72.90625 
L 38.28125 8.296875 
L 54.390625 8.296875 
L 54.390625 0 
L 12.40625 0 
z
" id="DejaVuSans-49"/>
      </defs>
      <g transform="translate(549.57496 329.598437)scale(0.1 -0.1)">
       <use xlink:href="#DejaVuSans-49"/>
       <use x="63.623047" xlink:href="#DejaVuSans-48"/>
       <use x="127.246094" xlink:href="#DejaVuSans-48"/>
       <use x="190.869141" xlink:href="#DejaVuSans-48"/>
      </g>
     </g>
    </g>
    <g id="text_7">
     <!-- epoch -->
     <defs>
      <path d="M 56.203125 29.59375 
L 56.203125 25.203125 
L 14.890625 25.203125 
Q 15.484375 15.921875 20.484375 11.0625 
Q 25.484375 6.203125 34.421875 6.203125 
Q 39.59375 6.203125 44.453125 7.46875 
Q 49.3125 8.734375 54.109375 11.28125 
L 54.109375 2.78125 
Q 49.265625 0.734375 44.1875 -0.34375 
Q 39.109375 -1.421875 33.890625 -1.421875 
Q 20.796875 -1.421875 13.15625 6.1875 
Q 5.515625 13.8125 5.515625 26.8125 
Q 5.515625 40.234375 12.765625 48.109375 
Q 20.015625 56 32.328125 56 
Q 43.359375 56 49.78125 48.890625 
Q 56.203125 41.796875 56.203125 29.59375 
z
M 47.21875 32.234375 
Q 47.125 39.59375 43.09375 43.984375 
Q 39.0625 48.390625 32.421875 48.390625 
Q 24.90625 48.390625 20.390625 44.140625 
Q 15.875 39.890625 15.1875 32.171875 
z
" id="DejaVuSans-101"/>
      <path d="M 18.109375 8.203125 
L 18.109375 -20.796875 
L 9.078125 -20.796875 
L 9.078125 54.6875 
L 18.109375 54.6875 
L 18.109375 46.390625 
Q 20.953125 51.265625 25.265625 53.625 
Q 29.59375 56 35.59375 56 
Q 45.5625 56 51.78125 48.09375 
Q 58.015625 40.1875 58.015625 27.296875 
Q 58.015625 14.40625 51.78125 6.484375 
Q 45.5625 -1.421875 35.59375 -1.421875 
Q 29.59375 -1.421875 25.265625 0.953125 
Q 20.953125 3.328125 18.109375 8.203125 
z
M 48.6875 27.296875 
Q 48.6875 37.203125 44.609375 42.84375 
Q 40.53125 48.484375 33.40625 48.484375 
Q 26.265625 48.484375 22.1875 42.84375 
Q 18.109375 37.203125 18.109375 27.296875 
Q 18.109375 17.390625 22.1875 11.75 
Q 26.265625 6.109375 33.40625 6.109375 
Q 40.53125 6.109375 44.609375 11.75 
Q 48.6875 17.390625 48.6875 27.296875 
z
" id="DejaVuSans-112"/>
      <path d="M 30.609375 48.390625 
Q 23.390625 48.390625 19.1875 42.75 
Q 14.984375 37.109375 14.984375 27.296875 
Q 14.984375 17.484375 19.15625 11.84375 
Q 23.34375 6.203125 30.609375 6.203125 
Q 37.796875 6.203125 41.984375 11.859375 
Q 46.1875 17.53125 46.1875 27.296875 
Q 46.1875 37.015625 41.984375 42.703125 
Q 37.796875 48.390625 30.609375 48.390625 
z
M 30.609375 56 
Q 42.328125 56 49.015625 48.375 
Q 55.71875 40.765625 55.71875 27.296875 
Q 55.71875 13.875 49.015625 6.21875 
Q 42.328125 -1.421875 30.609375 -1.421875 
Q 18.84375 -1.421875 12.171875 6.21875 
Q 5.515625 13.875 5.515625 27.296875 
Q 5.515625 40.765625 12.171875 48.375 
Q 18.84375 56 30.609375 56 
z
" id="DejaVuSans-111"/>
      <path d="M 48.78125 52.59375 
L 48.78125 44.1875 
Q 44.96875 46.296875 41.140625 47.34375 
Q 37.3125 48.390625 33.40625 48.390625 
Q 24.65625 48.390625 19.8125 42.84375 
Q 14.984375 37.3125 14.984375 27.296875 
Q 14.984375 17.28125 19.8125 11.734375 
Q 24.65625 6.203125 33.40625 6.203125 
Q 37.3125 6.203125 41.140625 7.25 
Q 44.96875 8.296875 48.78125 10.40625 
L 48.78125 2.09375 
Q 45.015625 0.34375 40.984375 -0.53125 
Q 36.96875 -1.421875 32.421875 -1.421875 
Q 20.0625 -1.421875 12.78125 6.34375 
Q 5.515625 14.109375 5.515625 27.296875 
Q 5.515625 40.671875 12.859375 48.328125 
Q 20.21875 56 33.015625 56 
Q 37.15625 56 41.109375 55.140625 
Q 45.0625 54.296875 48.78125 52.59375 
z
" id="DejaVuSans-99"/>
      <path d="M 54.890625 33.015625 
L 54.890625 0 
L 45.90625 0 
L 45.90625 32.71875 
Q 45.90625 40.484375 42.875 44.328125 
Q 39.84375 48.1875 33.796875 48.1875 
Q 26.515625 48.1875 22.3125 43.546875 
Q 18.109375 38.921875 18.109375 30.90625 
L 18.109375 0 
L 9.078125 0 
L 9.078125 75.984375 
L 18.109375 75.984375 
L 18.109375 46.1875 
Q 21.34375 51.125 25.703125 53.5625 
Q 30.078125 56 35.796875 56 
Q 45.21875 56 50.046875 50.171875 
Q 54.890625 44.34375 54.890625 33.015625 
z
" id="DejaVuSans-104"/>
     </defs>
     <g transform="translate(353.771875 343.276563)scale(0.1 -0.1)">
      <use xlink:href="#DejaVuSans-101"/>
      <use x="61.523438" xlink:href="#DejaVuSans-112"/>
      <use x="125" xlink:href="#DejaVuSans-111"/>
      <use x="186.181641" xlink:href="#DejaVuSans-99"/>
      <use x="241.162109" xlink:href="#DejaVuSans-104"/>
     </g>
    </g>
   </g>
   <g id="matplotlib.axis_2">
    <g id="ytick_1">
     <g id="line2d_13">
      <path clip-path="url(#p9727763f2b)" d="M 90 305.22868 
L 648 305.22868 
" style="fill:none;stroke:#b0b0b0;stroke-linecap:square;stroke-width:0.8;"/>
     </g>
     <g id="line2d_14">
      <defs>
       <path d="M 0 0 
L -3.5 0 
" id="mf08784c897" style="stroke:#000000;stroke-width:0.8;"/>
      </defs>
      <g>
       <use style="stroke:#000000;stroke-width:0.8;" x="90" xlink:href="#mf08784c897" y="305.22868"/>
      </g>
     </g>
     <g id="text_8">
      <!-- 0.0 -->
      <defs>
       <path d="M 10.6875 12.40625 
L 21 12.40625 
L 21 0 
L 10.6875 0 
z
" id="DejaVuSans-46"/>
      </defs>
      <g transform="translate(67.096875 309.027899)scale(0.1 -0.1)">
       <use xlink:href="#DejaVuSans-48"/>
       <use x="63.623047" xlink:href="#DejaVuSans-46"/>
       <use x="95.410156" xlink:href="#DejaVuSans-48"/>
      </g>
     </g>
    </g>
    <g id="ytick_2">
     <g id="line2d_15">
      <path clip-path="url(#p9727763f2b)" d="M 90 274.511769 
L 648 274.511769 
" style="fill:none;stroke:#b0b0b0;stroke-linecap:square;stroke-width:0.8;"/>
     </g>
     <g id="line2d_16">
      <g>
       <use style="stroke:#000000;stroke-width:0.8;" x="90" xlink:href="#mf08784c897" y="274.511769"/>
      </g>
     </g>
     <g id="text_9">
      <!-- 0.2 -->
      <g transform="translate(67.096875 278.310988)scale(0.1 -0.1)">
       <use xlink:href="#DejaVuSans-48"/>
       <use x="63.623047" xlink:href="#DejaVuSans-46"/>
       <use x="95.410156" xlink:href="#DejaVuSans-50"/>
      </g>
     </g>
    </g>
    <g id="ytick_3">
     <g id="line2d_17">
      <path clip-path="url(#p9727763f2b)" d="M 90 243.794858 
L 648 243.794858 
" style="fill:none;stroke:#b0b0b0;stroke-linecap:square;stroke-width:0.8;"/>
     </g>
     <g id="line2d_18">
      <g>
       <use style="stroke:#000000;stroke-width:0.8;" x="90" xlink:href="#mf08784c897" y="243.794858"/>
      </g>
     </g>
     <g id="text_10">
      <!-- 0.4 -->
      <g transform="translate(67.096875 247.594077)scale(0.1 -0.1)">
       <use xlink:href="#DejaVuSans-48"/>
       <use x="63.623047" xlink:href="#DejaVuSans-46"/>
       <use x="95.410156" xlink:href="#DejaVuSans-52"/>
      </g>
     </g>
    </g>
    <g id="ytick_4">
     <g id="line2d_19">
      <path clip-path="url(#p9727763f2b)" d="M 90 213.077947 
L 648 213.077947 
" style="fill:none;stroke:#b0b0b0;stroke-linecap:square;stroke-width:0.8;"/>
     </g>
     <g id="line2d_20">
      <g>
       <use style="stroke:#000000;stroke-width:0.8;" x="90" xlink:href="#mf08784c897" y="213.077947"/>
      </g>
     </g>
     <g id="text_11">
      <!-- 0.6 -->
      <g transform="translate(67.096875 216.877165)scale(0.1 -0.1)">
       <use xlink:href="#DejaVuSans-48"/>
       <use x="63.623047" xlink:href="#DejaVuSans-46"/>
       <use x="95.410156" xlink:href="#DejaVuSans-54"/>
      </g>
     </g>
    </g>
    <g id="ytick_5">
     <g id="line2d_21">
      <path clip-path="url(#p9727763f2b)" d="M 90 182.361035 
L 648 182.361035 
" style="fill:none;stroke:#b0b0b0;stroke-linecap:square;stroke-width:0.8;"/>
     </g>
     <g id="line2d_22">
      <g>
       <use style="stroke:#000000;stroke-width:0.8;" x="90" xlink:href="#mf08784c897" y="182.361035"/>
      </g>
     </g>
     <g id="text_12">
      <!-- 0.8 -->
      <g transform="translate(67.096875 186.160254)scale(0.1 -0.1)">
       <use xlink:href="#DejaVuSans-48"/>
       <use x="63.623047" xlink:href="#DejaVuSans-46"/>
       <use x="95.410156" xlink:href="#DejaVuSans-56"/>
      </g>
     </g>
    </g>
    <g id="ytick_6">
     <g id="line2d_23">
      <path clip-path="url(#p9727763f2b)" d="M 90 151.644124 
L 648 151.644124 
" style="fill:none;stroke:#b0b0b0;stroke-linecap:square;stroke-width:0.8;"/>
     </g>
     <g id="line2d_24">
      <g>
       <use style="stroke:#000000;stroke-width:0.8;" x="90" xlink:href="#mf08784c897" y="151.644124"/>
      </g>
     </g>
     <g id="text_13">
      <!-- 1.0 -->
      <g transform="translate(67.096875 155.443343)scale(0.1 -0.1)">
       <use xlink:href="#DejaVuSans-49"/>
       <use x="63.623047" xlink:href="#DejaVuSans-46"/>
       <use x="95.410156" xlink:href="#DejaVuSans-48"/>
      </g>
     </g>
    </g>
    <g id="ytick_7">
     <g id="line2d_25">
      <path clip-path="url(#p9727763f2b)" d="M 90 120.927213 
L 648 120.927213 
" style="fill:none;stroke:#b0b0b0;stroke-linecap:square;stroke-width:0.8;"/>
     </g>
     <g id="line2d_26">
      <g>
       <use style="stroke:#000000;stroke-width:0.8;" x="90" xlink:href="#mf08784c897" y="120.927213"/>
      </g>
     </g>
     <g id="text_14">
      <!-- 1.2 -->
      <g transform="translate(67.096875 124.726432)scale(0.1 -0.1)">
       <use xlink:href="#DejaVuSans-49"/>
       <use x="63.623047" xlink:href="#DejaVuSans-46"/>
       <use x="95.410156" xlink:href="#DejaVuSans-50"/>
      </g>
     </g>
    </g>
    <g id="ytick_8">
     <g id="line2d_27">
      <path clip-path="url(#p9727763f2b)" d="M 90 90.210302 
L 648 90.210302 
" style="fill:none;stroke:#b0b0b0;stroke-linecap:square;stroke-width:0.8;"/>
     </g>
     <g id="line2d_28">
      <g>
       <use style="stroke:#000000;stroke-width:0.8;" x="90" xlink:href="#mf08784c897" y="90.210302"/>
      </g>
     </g>
     <g id="text_15">
      <!-- 1.4 -->
      <g transform="translate(67.096875 94.00952)scale(0.1 -0.1)">
       <use xlink:href="#DejaVuSans-49"/>
       <use x="63.623047" xlink:href="#DejaVuSans-46"/>
       <use x="95.410156" xlink:href="#DejaVuSans-52"/>
      </g>
     </g>
    </g>
    <g id="ytick_9">
     <g id="line2d_29">
      <path clip-path="url(#p9727763f2b)" d="M 90 59.493391 
L 648 59.493391 
" style="fill:none;stroke:#b0b0b0;stroke-linecap:square;stroke-width:0.8;"/>
     </g>
     <g id="line2d_30">
      <g>
       <use style="stroke:#000000;stroke-width:0.8;" x="90" xlink:href="#mf08784c897" y="59.493391"/>
      </g>
     </g>
     <g id="text_16">
      <!-- 1.6 -->
      <g transform="translate(67.096875 63.292609)scale(0.1 -0.1)">
       <use xlink:href="#DejaVuSans-49"/>
       <use x="63.623047" xlink:href="#DejaVuSans-46"/>
       <use x="95.410156" xlink:href="#DejaVuSans-54"/>
      </g>
     </g>
    </g>
    <g id="text_17">
     <!-- loss -->
     <defs>
      <path d="M 9.421875 75.984375 
L 18.40625 75.984375 
L 18.40625 0 
L 9.421875 0 
z
" id="DejaVuSans-108"/>
      <path d="M 44.28125 53.078125 
L 44.28125 44.578125 
Q 40.484375 46.53125 36.375 47.5 
Q 32.28125 48.484375 27.875 48.484375 
Q 21.1875 48.484375 17.84375 46.4375 
Q 14.5 44.390625 14.5 40.28125 
Q 14.5 37.15625 16.890625 35.375 
Q 19.28125 33.59375 26.515625 31.984375 
L 29.59375 31.296875 
Q 39.15625 29.25 43.1875 25.515625 
Q 47.21875 21.78125 47.21875 15.09375 
Q 47.21875 7.46875 41.1875 3.015625 
Q 35.15625 -1.421875 24.609375 -1.421875 
Q 20.21875 -1.421875 15.453125 -0.5625 
Q 10.6875 0.296875 5.421875 2 
L 5.421875 11.28125 
Q 10.40625 8.6875 15.234375 7.390625 
Q 20.0625 6.109375 24.8125 6.109375 
Q 31.15625 6.109375 34.5625 8.28125 
Q 37.984375 10.453125 37.984375 14.40625 
Q 37.984375 18.0625 35.515625 20.015625 
Q 33.0625 21.96875 24.703125 23.78125 
L 21.578125 24.515625 
Q 13.234375 26.265625 9.515625 29.90625 
Q 5.8125 33.546875 5.8125 39.890625 
Q 5.8125 47.609375 11.28125 51.796875 
Q 16.75 56 26.8125 56 
Q 31.78125 56 36.171875 55.265625 
Q 40.578125 54.546875 44.28125 53.078125 
z
" id="DejaVuSans-115"/>
     </defs>
     <g transform="translate(61.017187 188.757812)rotate(-90)scale(0.1 -0.1)">
      <use xlink:href="#DejaVuSans-108"/>
      <use x="27.783203" xlink:href="#DejaVuSans-111"/>
      <use x="88.964844" xlink:href="#DejaVuSans-115"/>
      <use x="141.064453" xlink:href="#DejaVuSans-115"/>
     </g>
    </g>
   </g>
   <g id="line2d_31">
    <path clip-path="url(#p9727763f2b)" d="M 115.363636 55.554545 
L 115.810573 65.859802 
L 116.257509 73.59306 
L 116.704445 78.027339 
L 117.598318 82.91148 
L 118.045254 87.530453 
L 118.492191 90.69387 
L 118.939127 90.991749 
L 119.386063 94.687605 
L 119.833 97.294264 
L 120.279936 98.709188 
L 120.726872 100.630562 
L 121.173809 104.986296 
L 121.620745 105.480874 
L 122.067681 110.003397 
L 122.961554 115.2013 
L 123.40849 118.672339 
L 123.855427 120.486411 
L 124.749299 129.441925 
L 125.196235 132.334482 
L 125.643172 137.413932 
L 126.090108 139.77594 
L 126.537044 144.426698 
L 126.983981 147.8303 
L 127.430917 150.285075 
L 127.877853 154.802486 
L 128.32479 157.7969 
L 129.218662 165.315792 
L 129.665599 168.142838 
L 131.006408 174.389192 
L 131.453344 177.14366 
L 131.90028 182.258737 
L 132.794153 185.126024 
L 133.241089 185.315914 
L 133.688026 185.933501 
L 134.581898 192.743485 
L 135.028835 194.544635 
L 135.475771 195.188227 
L 136.369644 200.812687 
L 136.81658 199.852927 
L 137.263516 202.313799 
L 137.710453 203.449738 
L 138.157389 207.331265 
L 138.604325 205.913083 
L 139.051262 209.680539 
L 139.498198 210.862592 
L 139.945134 210.916845 
L 140.39207 212.16706 
L 140.839007 214.331601 
L 141.285943 218.816416 
L 141.732879 217.960047 
L 142.179816 218.605258 
L 142.626752 219.457278 
L 143.073688 219.39726 
L 143.520625 222.652381 
L 143.967561 224.003577 
L 144.414497 221.876964 
L 144.861434 224.383032 
L 145.30837 225.966181 
L 145.755306 226.693418 
L 146.202243 225.563179 
L 146.649179 230.575607 
L 147.096115 231.457158 
L 147.543052 229.563312 
L 147.989988 231.716352 
L 148.436924 232.508376 
L 148.883861 234.414232 
L 149.330797 232.35847 
L 149.777733 235.555893 
L 150.671606 236.175892 
L 151.118542 238.615669 
L 151.565479 237.02109 
L 152.012415 238.008382 
L 153.353224 240.099752 
L 153.80016 243.035995 
L 154.247097 241.647571 
L 154.694033 244.222971 
L 155.140969 243.119599 
L 155.587905 244.948143 
L 156.034842 245.04493 
L 156.481778 246.768287 
L 156.928714 246.256533 
L 157.375651 248.676585 
L 157.822587 247.711681 
L 158.71646 251.072025 
L 159.163396 251.083706 
L 159.610332 250.790598 
L 160.057269 251.08477 
L 160.504205 251.562246 
L 160.951141 253.419605 
L 161.398078 254.04728 
L 161.845014 253.313066 
L 162.29195 254.218431 
L 162.738887 254.677791 
L 163.185823 256.465139 
L 163.632759 256.966757 
L 164.079696 258.623954 
L 164.526632 256.844191 
L 164.973568 256.22886 
L 165.420505 260.617434 
L 165.867441 260.79457 
L 166.314377 259.596705 
L 166.761314 260.790698 
L 167.20825 260.874707 
L 167.655186 262.915822 
L 168.102123 261.741346 
L 168.549059 263.729156 
L 168.995995 262.48772 
L 169.442932 264.225755 
L 169.889868 267.037553 
L 170.336804 264.816536 
L 170.78374 266.652663 
L 171.230677 265.599879 
L 171.677613 267.02 
L 172.571486 266.420079 
L 173.465358 268.181053 
L 173.912295 268.145281 
L 174.359231 267.633911 
L 174.806167 267.816171 
L 175.253104 268.820283 
L 175.70004 268.918904 
L 176.146976 269.705129 
L 176.593913 269.789915 
L 177.040849 272.511735 
L 177.487785 271.999696 
L 177.934722 271.143355 
L 178.828594 272.50017 
L 179.275531 271.110963 
L 179.722467 270.236837 
L 180.169403 271.56684 
L 180.61634 275.0162 
L 181.063276 274.163506 
L 181.510212 273.934584 
L 181.957149 273.04399 
L 182.404085 274.989631 
L 182.851021 275.369179 
L 183.297958 275.974367 
L 183.744894 276.247679 
L 184.19183 275.534388 
L 185.085703 277.766595 
L 185.532639 274.889671 
L 185.979575 277.10584 
L 186.426512 275.79638 
L 186.873448 276.278509 
L 187.320384 277.758314 
L 187.767321 275.174845 
L 188.214257 278.520281 
L 188.661193 276.335352 
L 189.10813 277.227634 
L 189.555066 279.874277 
L 190.002002 277.395597 
L 190.448939 279.47286 
L 190.895875 278.428174 
L 191.342811 276.934897 
L 192.236684 279.03111 
L 192.68362 278.445606 
L 193.130557 279.933326 
L 193.577493 278.940869 
L 194.024429 279.365264 
L 194.471366 276.658878 
L 194.918302 281.200871 
L 195.365238 280.894334 
L 195.812175 279.458674 
L 196.259111 280.561488 
L 196.706047 280.54873 
L 197.152984 282.101214 
L 197.59992 281.155152 
L 198.046856 282.364175 
L 198.493793 281.567784 
L 198.940729 282.047388 
L 199.387665 283.375279 
L 199.834602 284.017606 
L 200.281538 282.191505 
L 200.728474 283.006489 
L 201.17541 282.631315 
L 201.622347 282.7328 
L 202.069283 282.989452 
L 202.516219 281.663062 
L 202.963156 283.512299 
L 203.410092 283.800321 
L 203.857028 282.976576 
L 204.303965 284.684734 
L 204.750901 285.457688 
L 205.197837 282.553406 
L 205.644774 284.615142 
L 206.09171 283.330519 
L 206.538646 284.205269 
L 206.985583 283.557889 
L 207.432519 283.829476 
L 208.326392 285.452156 
L 208.773328 282.54533 
L 209.220264 284.191373 
L 209.667201 284.17307 
L 210.114137 284.586082 
L 210.561073 282.604726 
L 211.00801 285.047249 
L 211.901882 286.306288 
L 212.348819 286.698626 
L 212.795755 284.479676 
L 213.689628 286.330046 
L 214.136564 288.184631 
L 214.5835 285.479569 
L 215.030437 285.54933 
L 215.477373 285.256892 
L 215.924309 286.131087 
L 216.371245 286.626669 
L 216.818182 285.151613 
L 217.265118 284.893773 
L 217.712054 285.807462 
L 218.158991 287.340248 
L 218.605927 286.088507 
L 219.052863 286.657479 
L 219.4998 288.13739 
L 219.946736 287.490294 
L 220.393672 286.172692 
L 220.840609 287.310901 
L 221.287545 286.837261 
L 222.181418 288.007826 
L 222.628354 288.134412 
L 223.07529 286.757173 
L 223.522227 286.438057 
L 223.969163 287.563905 
L 224.416099 288.067327 
L 224.863036 287.858874 
L 225.309972 287.340664 
L 225.756908 287.280374 
L 226.203845 287.81183 
L 226.650781 289.099112 
L 227.097717 288.381987 
L 227.544654 289.333762 
L 227.99159 289.108527 
L 228.438526 289.633938 
L 229.332399 288.479283 
L 229.779335 288.588005 
L 230.226272 289.581585 
L 230.673208 288.912756 
L 231.120144 289.02393 
L 231.56708 290.517772 
L 232.014017 287.95958 
L 232.460953 288.479445 
L 232.907889 288.420519 
L 233.354826 289.625627 
L 233.801762 290.179066 
L 234.248698 288.881427 
L 234.695635 288.505775 
L 235.142571 287.864325 
L 235.589507 290.665788 
L 236.036444 290.787584 
L 236.48338 288.97038 
L 236.930316 289.082895 
L 237.377253 290.697946 
L 237.824189 288.557234 
L 238.718062 291.010381 
L 239.164998 290.315014 
L 239.611934 288.435383 
L 240.058871 290.40794 
L 240.505807 290.314574 
L 240.952743 291.027406 
L 241.39968 290.62329 
L 241.846616 291.056368 
L 242.293552 291.776809 
L 242.740489 291.79649 
L 243.187425 290.167173 
L 243.634361 290.082618 
L 244.081298 290.411071 
L 244.528234 290.940256 
L 244.97517 290.217281 
L 245.422107 290.164572 
L 245.869043 291.946899 
L 246.315979 290.743892 
L 246.762915 290.849815 
L 247.209852 291.160738 
L 247.656788 290.685 
L 248.103724 290.521063 
L 248.550661 292.113755 
L 248.997597 292.36639 
L 249.444533 291.379624 
L 249.89147 290.857714 
L 250.338406 291.153452 
L 250.785342 292.501543 
L 251.232279 291.407026 
L 251.679215 291.888508 
L 252.126151 290.691619 
L 252.573088 290.569503 
L 253.020024 289.91719 
L 253.46696 291.699958 
L 253.913897 291.561036 
L 254.360833 290.83236 
L 254.807769 292.1711 
L 255.254706 291.968473 
L 255.701642 292.365493 
L 256.148578 291.549878 
L 256.595515 291.815976 
L 257.042451 291.719804 
L 257.489387 292.743461 
L 257.936324 291.362175 
L 258.38326 291.010266 
L 258.830196 292.096098 
L 259.724069 292.684466 
L 260.171005 292.167739 
L 260.617942 291.254789 
L 261.064878 292.464317 
L 261.511814 292.947774 
L 261.958751 291.855823 
L 262.405687 292.304577 
L 262.852623 292.251672 
L 263.746496 293.969166 
L 264.193432 291.552017 
L 264.640368 292.246315 
L 265.087305 293.434284 
L 265.534241 292.886546 
L 265.981177 291.836057 
L 266.428114 293.025305 
L 267.321986 292.192466 
L 267.768923 292.218902 
L 268.215859 293.592991 
L 268.662795 293.636701 
L 269.109732 291.983094 
L 269.556668 293.840529 
L 270.003604 291.924118 
L 270.897477 294.291877 
L 271.344413 293.917833 
L 271.79135 292.91518 
L 272.238286 293.735492 
L 273.132159 293.137005 
L 273.579095 294.324275 
L 274.026031 293.532482 
L 274.472968 293.551584 
L 274.919904 293.219276 
L 275.36684 293.476414 
L 276.260713 292.62935 
L 276.707649 293.773095 
L 277.154586 293.067004 
L 277.601522 293.515196 
L 278.048458 292.968272 
L 278.495394 292.978194 
L 278.942331 292.702872 
L 279.389267 294.448991 
L 279.836203 294.322253 
L 280.28314 292.934545 
L 280.730076 294.34911 
L 281.177012 292.875065 
L 281.623949 294.641923 
L 282.070885 294.294095 
L 282.517821 294.682955 
L 282.964758 294.714695 
L 283.411694 293.594615 
L 283.85863 294.624861 
L 284.305567 294.380506 
L 284.752503 293.77909 
L 285.199439 294.959798 
L 285.646376 294.528923 
L 286.093312 294.308567 
L 286.540248 293.265418 
L 286.987185 294.510683 
L 287.434121 295.143312 
L 287.881057 294.966084 
L 288.327994 293.755104 
L 288.77493 294.208797 
L 289.221866 294.476969 
L 289.668803 295.401985 
L 290.115739 294.674646 
L 290.562675 292.472752 
L 291.009612 294.740092 
L 291.456548 293.706856 
L 291.903484 294.123767 
L 292.350421 294.824048 
L 292.797357 294.204368 
L 293.244293 295.590068 
L 293.691229 294.956561 
L 294.585102 294.234062 
L 295.032038 296.158631 
L 295.478975 294.815838 
L 295.925911 295.709692 
L 296.372847 294.439165 
L 296.819784 295.870298 
L 297.26672 294.764135 
L 297.713656 294.368182 
L 298.160593 295.890593 
L 298.607529 295.246151 
L 299.054465 295.06469 
L 299.501402 295.102566 
L 299.948338 295.482662 
L 300.395274 296.298668 
L 300.842211 294.853188 
L 302.18302 294.935531 
L 302.629956 295.622035 
L 303.523829 295.845591 
L 303.970765 295.240458 
L 304.417701 295.097465 
L 304.864638 294.122327 
L 305.311574 296.539143 
L 306.205447 294.649009 
L 306.652383 296.143023 
L 307.099319 296.15339 
L 307.546256 296.037885 
L 308.440128 295.258694 
L 308.887064 295.339863 
L 309.334001 295.871582 
L 309.780937 295.276546 
L 310.227873 295.478344 
L 310.67481 296.347712 
L 311.121746 295.382561 
L 311.568682 295.940353 
L 312.015619 295.371854 
L 312.462555 295.89659 
L 312.909491 295.999255 
L 313.356428 296.291865 
L 313.803364 295.149174 
L 314.2503 297.751773 
L 314.697237 294.335135 
L 315.144173 296.568104 
L 315.591109 294.76917 
L 316.038046 295.97033 
L 316.484982 295.165627 
L 316.931918 296.957657 
L 317.378855 295.953944 
L 317.825791 295.758547 
L 318.272727 295.812344 
L 318.719664 295.013217 
L 319.1666 296.015179 
L 319.613536 294.872958 
L 320.060473 295.405738 
L 320.507409 296.555331 
L 320.954345 295.95935 
L 321.401282 296.020952 
L 321.848218 297.324843 
L 322.295154 295.501165 
L 322.742091 296.354417 
L 323.189027 295.886244 
L 324.082899 296.999289 
L 324.529836 296.008227 
L 324.976772 295.892635 
L 325.423708 296.304582 
L 325.870645 295.620206 
L 326.317581 296.480262 
L 327.211454 296.034403 
L 327.65839 296.16636 
L 328.105326 297.532059 
L 328.552263 297.532142 
L 328.999199 296.98671 
L 329.446135 296.672137 
L 330.340008 296.790073 
L 331.233881 295.924517 
L 331.680817 296.722696 
L 332.127753 295.984125 
L 332.57469 297.083477 
L 333.021626 296.990943 
L 333.468562 296.267649 
L 333.915499 295.894212 
L 334.362435 296.523763 
L 334.809371 297.619811 
L 335.256308 296.556223 
L 335.703244 296.475947 
L 336.15018 296.229352 
L 336.597117 298.159901 
L 337.044053 296.471278 
L 337.490989 297.945015 
L 337.937926 295.713709 
L 338.384862 297.546485 
L 338.831798 296.489074 
L 339.278734 297.094623 
L 339.725671 296.32321 
L 340.172607 297.127627 
L 340.619543 297.238629 
L 341.06648 296.17907 
L 341.513416 296.953722 
L 341.960352 297.212609 
L 342.407289 297.13207 
L 342.854225 297.554939 
L 343.301161 296.316712 
L 343.748098 296.940606 
L 344.195034 298.111853 
L 344.64197 297.708888 
L 345.088907 296.460892 
L 345.535843 297.390358 
L 345.982779 297.661467 
L 346.429716 296.385801 
L 346.876652 298.10213 
L 347.323588 296.977935 
L 347.770525 297.967083 
L 348.217461 298.020659 
L 348.664397 297.284906 
L 349.111334 298.196473 
L 349.55827 297.32847 
L 350.452143 296.514582 
L 350.899079 297.548236 
L 351.346015 297.871734 
L 351.792952 297.580172 
L 352.239888 298.188175 
L 352.686824 297.859078 
L 353.133761 298.235625 
L 353.580697 296.453221 
L 354.027633 297.276476 
L 354.474569 297.500314 
L 354.921506 297.387626 
L 355.368442 296.687537 
L 356.262315 299.30826 
L 356.709251 298.049109 
L 357.156187 297.154092 
L 357.603124 296.855857 
L 358.05006 297.761871 
L 358.496996 297.353172 
L 358.943933 297.815318 
L 359.390869 296.940652 
L 359.837805 297.813807 
L 360.731678 297.066676 
L 361.178614 298.025245 
L 361.625551 297.412752 
L 362.072487 297.395207 
L 362.519423 297.035445 
L 362.96636 298.096885 
L 363.860232 296.773765 
L 364.307169 298.376354 
L 364.754105 297.20971 
L 365.201041 298.490759 
L 365.647978 297.382104 
L 366.094914 297.142187 
L 366.54185 298.110226 
L 366.988787 298.34287 
L 367.435723 297.380566 
L 367.882659 297.836636 
L 368.329596 297.649004 
L 368.776532 298.081541 
L 369.223468 296.743067 
L 369.670404 298.489549 
L 370.564277 298.607219 
L 371.011213 298.014299 
L 371.45815 297.814191 
L 371.905086 298.473423 
L 372.352022 296.975884 
L 372.798959 297.715153 
L 373.245895 298.706927 
L 373.692831 297.30216 
L 374.139768 296.729137 
L 374.586704 297.275693 
L 375.03364 296.668462 
L 375.480577 298.273819 
L 375.927513 297.950162 
L 376.374449 297.473575 
L 376.821386 298.434897 
L 377.268322 298.627484 
L 377.715258 298.042148 
L 378.162195 297.643821 
L 378.609131 298.401699 
L 379.056067 298.1488 
L 379.503004 297.163591 
L 379.94994 298.774052 
L 380.396876 298.64285 
L 380.843813 298.21307 
L 381.290749 298.380461 
L 381.737685 298.423256 
L 382.184622 297.427839 
L 382.631558 298.299791 
L 383.078494 297.618522 
L 383.525431 299.497647 
L 383.972367 298.077506 
L 384.419303 299.582041 
L 384.866239 298.171632 
L 385.313176 298.393805 
L 385.760112 299.136704 
L 386.207048 298.65987 
L 386.653985 299.168019 
L 387.100921 299.243413 
L 387.547857 298.29573 
L 387.994794 298.434545 
L 388.44173 298.176324 
L 388.888666 298.288199 
L 389.335603 298.212119 
L 389.782539 299.196589 
L 390.229475 299.688748 
L 390.676412 298.479397 
L 391.123348 298.114737 
L 391.570284 298.176118 
L 392.017221 297.672663 
L 392.464157 297.766389 
L 392.911093 298.225917 
L 393.35803 299.004947 
L 393.804966 298.852204 
L 394.251902 298.883838 
L 394.698839 298.388824 
L 395.145775 298.297663 
L 395.592711 297.800295 
L 396.039648 298.478205 
L 396.486584 298.335329 
L 396.93352 298.85634 
L 397.380457 298.704437 
L 397.827393 299.521752 
L 398.274329 298.99273 
L 398.721266 298.986818 
L 399.168202 299.744294 
L 399.615138 298.049652 
L 400.062074 298.546932 
L 400.955947 298.882136 
L 401.402883 299.611119 
L 401.84982 299.929168 
L 402.296756 298.566474 
L 402.743692 299.777534 
L 403.637565 298.17339 
L 404.531438 299.776586 
L 404.978374 298.808282 
L 405.42531 299.092694 
L 405.872247 298.608201 
L 406.319183 298.509128 
L 407.213056 299.162586 
L 407.659992 299.12211 
L 408.553865 299.494161 
L 409.000801 298.880732 
L 409.894674 299.697543 
L 410.34161 298.09337 
L 410.788546 299.11614 
L 411.235483 298.415373 
L 412.129355 299.736768 
L 412.576292 299.163145 
L 413.023228 299.196079 
L 413.470164 299.061452 
L 413.917101 299.688461 
L 414.364037 299.451078 
L 415.257909 299.16524 
L 416.151782 300.275702 
L 416.598718 298.956866 
L 417.045655 299.488831 
L 417.939527 298.91662 
L 418.386464 299.783403 
L 418.8334 299.631147 
L 419.280336 299.70864 
L 419.727273 298.656051 
L 420.174209 299.559736 
L 420.621145 299.660258 
L 421.068082 298.991547 
L 421.515018 299.617365 
L 421.961954 298.593214 
L 422.408891 299.886405 
L 422.855827 298.786235 
L 423.302763 299.566706 
L 423.7497 298.767154 
L 424.196636 298.644298 
L 425.090509 300.17776 
L 425.537445 299.915337 
L 426.431318 300.175603 
L 426.878254 298.27151 
L 427.32519 299.750243 
L 427.772127 299.409841 
L 428.219063 298.75321 
L 428.665999 298.61283 
L 429.112936 298.696064 
L 429.559872 298.368176 
L 430.006808 299.085728 
L 430.453744 299.472109 
L 430.900681 298.99956 
L 431.347617 298.873233 
L 431.794553 299.423207 
L 432.24149 299.348921 
L 432.688426 300.189678 
L 433.135362 299.072441 
L 433.582299 300.08037 
L 434.029235 299.575419 
L 434.476171 299.989813 
L 434.923108 298.820236 
L 435.370044 298.556354 
L 435.81698 300.200831 
L 436.263917 299.58064 
L 436.710853 299.19505 
L 437.157789 299.100741 
L 437.604726 298.55925 
L 438.051662 300.828105 
L 438.498598 299.17425 
L 438.945535 299.62856 
L 439.392471 298.531096 
L 439.839407 299.944286 
L 440.286344 298.626664 
L 440.73328 299.662727 
L 441.180216 299.49859 
L 441.627153 300.410552 
L 442.074089 298.674876 
L 442.521025 300.215646 
L 443.414898 299.031627 
L 443.861834 299.750567 
L 444.755707 299.656682 
L 445.202643 299.199673 
L 445.649579 299.754577 
L 446.096516 299.577311 
L 446.543452 298.958921 
L 446.990388 299.303597 
L 447.437325 299.415604 
L 447.884261 301.11394 
L 448.778134 300.32643 
L 449.22507 300.691672 
L 449.672006 300.842629 
L 450.565879 298.595333 
L 451.459752 300.501058 
L 451.906688 299.803421 
L 452.353624 300.13295 
L 452.800561 300.616696 
L 453.694433 298.581568 
L 454.14137 299.720852 
L 454.588306 299.786596 
L 455.035242 300.073172 
L 455.482179 299.998971 
L 455.929115 300.84194 
L 456.376051 300.135348 
L 456.822988 300.104666 
L 457.269924 298.831501 
L 457.71686 300.567511 
L 458.163797 298.715208 
L 458.610733 300.02332 
L 459.057669 299.780299 
L 459.504606 300.771389 
L 459.951542 300.122694 
L 460.398478 300.847095 
L 460.845414 300.906585 
L 461.292351 299.572587 
L 461.739287 299.579453 
L 462.186223 300.621608 
L 462.63316 300.494505 
L 463.080096 301.05241 
L 463.527032 300.56206 
L 463.973969 299.661488 
L 464.420905 300.332084 
L 464.867841 299.952634 
L 465.314778 300.289015 
L 465.761714 299.753039 
L 466.20865 300.805235 
L 466.655587 299.471419 
L 467.549459 300.061257 
L 467.996396 299.7659 
L 468.890268 300.378642 
L 469.337205 299.58933 
L 469.784141 300.532628 
L 470.231077 300.182281 
L 470.678014 300.384094 
L 471.12495 301.698418 
L 471.571886 300.944107 
L 472.018823 301.288664 
L 472.465759 300.778754 
L 472.912695 300.804462 
L 473.359632 300.40088 
L 473.806568 299.796932 
L 474.253504 300.909791 
L 474.700441 299.503517 
L 475.147377 299.648715 
L 476.041249 300.2137 
L 476.488186 299.933151 
L 476.935122 299.35586 
L 477.382058 299.873612 
L 477.828995 299.984718 
L 478.275931 299.664307 
L 478.722867 300.609015 
L 479.169804 299.327198 
L 479.61674 300.788577 
L 480.063676 299.693476 
L 480.957549 300.822704 
L 481.404485 300.332908 
L 481.851422 299.04395 
L 482.298358 300.033387 
L 482.745294 300.612111 
L 483.192231 300.428047 
L 483.639167 300.388152 
L 484.086103 300.665512 
L 484.53304 300.654271 
L 484.979976 301.110841 
L 485.426912 299.401277 
L 485.873849 300.695926 
L 486.320785 300.310361 
L 487.214658 301.308681 
L 487.661594 299.875797 
L 488.10853 299.98809 
L 488.555467 299.56248 
L 489.002403 300.981462 
L 489.449339 300.141698 
L 489.896276 300.310106 
L 490.343212 300.954057 
L 490.790148 300.901969 
L 491.237085 301.024225 
L 491.684021 299.929601 
L 492.577893 300.683787 
L 493.02483 300.525244 
L 493.471766 300.80244 
L 493.918702 300.42226 
L 494.365639 299.233303 
L 494.812575 300.765783 
L 495.259511 300.344692 
L 495.706448 300.843598 
L 496.153384 300.348981 
L 496.60032 299.363489 
L 497.494193 300.809649 
L 497.941129 300.429079 
L 498.388066 301.257615 
L 498.835002 299.868196 
L 499.281938 300.29621 
L 499.728875 300.940746 
L 500.175811 299.930663 
L 501.069684 300.534868 
L 501.51662 301.009225 
L 501.963556 300.119411 
L 502.410493 300.946764 
L 502.857429 300.247394 
L 503.304365 300.615133 
L 503.751302 300.656436 
L 505.092111 300.322827 
L 505.539047 300.343489 
L 505.985983 301.069346 
L 506.43292 300.391736 
L 506.879856 300.249198 
L 507.326792 301.389526 
L 507.773728 300.81641 
L 508.220665 301.363948 
L 508.667601 299.283208 
L 509.114537 301.318553 
L 509.561474 300.631775 
L 510.00841 301.300308 
L 510.455346 299.996189 
L 510.902283 300.906841 
L 511.349219 300.629211 
L 512.243092 300.685519 
L 512.690028 300.602749 
L 513.136964 301.196434 
L 513.583901 300.059398 
L 514.030837 300.841106 
L 514.477773 300.682483 
L 514.92471 299.925883 
L 515.371646 300.430859 
L 515.818582 300.491607 
L 516.712455 301.007381 
L 517.159391 300.392806 
L 517.606328 301.657488 
L 518.053264 299.844966 
L 518.5002 299.858846 
L 518.947137 301.190812 
L 519.394073 300.307365 
L 519.841009 300.739055 
L 520.287946 300.016395 
L 520.734882 301.756472 
L 521.181818 300.615586 
L 522.075691 301.005248 
L 522.969563 301.658128 
L 523.4165 301.657196 
L 524.757309 300.230943 
L 525.204245 298.366002 
L 525.651181 300.65196 
L 526.545054 301.366128 
L 526.99199 300.916795 
L 527.438927 301.193919 
L 527.885863 300.390242 
L 528.332799 301.010263 
L 528.779736 300.372319 
L 529.226672 301.412814 
L 529.673608 300.785953 
L 530.120545 300.657949 
L 530.567481 301.038162 
L 531.461354 300.38218 
L 531.90829 301.94142 
L 532.355226 301.624704 
L 532.802163 300.921679 
L 533.249099 300.488352 
L 533.696035 301.218109 
L 534.142972 300.523207 
L 534.589908 301.168757 
L 535.036844 300.625781 
L 535.483781 301.256643 
L 535.930717 300.593873 
L 536.377653 301.653635 
L 536.82459 301.150832 
L 537.271526 301.395086 
L 537.718462 301.077935 
L 538.165398 301.037728 
L 538.612335 300.851526 
L 539.059271 300.175922 
L 539.506207 301.356623 
L 539.953144 300.723345 
L 540.40008 301.401374 
L 540.847016 301.824461 
L 541.293953 300.362972 
L 541.740889 300.529707 
L 542.187825 300.905311 
L 543.081698 301.207256 
L 543.528634 300.058851 
L 543.975571 300.222989 
L 544.422507 301.418157 
L 544.869443 300.312343 
L 546.210252 300.798817 
L 546.657189 300.411699 
L 547.551061 301.396171 
L 547.997998 300.54112 
L 548.444934 301.485246 
L 548.89187 301.082338 
L 549.338807 301.50838 
L 549.785743 300.349741 
L 550.232679 301.081563 
L 550.679616 300.610629 
L 551.126552 300.947212 
L 551.573488 301.756411 
L 552.020425 300.446012 
L 552.467361 300.022608 
L 552.914297 300.562172 
L 553.80817 300.632692 
L 554.255106 301.5288 
L 554.702042 299.71394 
L 555.148979 300.709988 
L 555.595915 302.212358 
L 556.042851 301.51614 
L 556.489788 301.690998 
L 556.936724 302.154122 
L 557.38366 300.969509 
L 557.830597 300.942817 
L 558.277533 300.301632 
L 559.171406 302.187683 
L 560.065278 301.09268 
L 560.512215 301.314157 
L 560.959151 301.921475 
L 561.406087 300.049757 
L 561.853024 301.390574 
L 562.29996 300.892872 
L 562.746896 301.655566 
L 563.193833 301.187516 
L 563.640769 300.905984 
L 564.087705 301.414994 
L 564.534642 300.723304 
L 564.981578 300.312113 
L 565.875451 301.369049 
L 566.322387 300.639849 
L 566.769323 300.968624 
L 567.21626 301.744352 
L 567.663196 301.020216 
L 568.110132 300.726853 
L 568.557068 301.111112 
L 569.004005 301.005732 
L 569.897877 301.587533 
L 570.344814 301.51355 
L 570.79175 302.130714 
L 571.238686 301.919129 
L 571.685623 301.480644 
L 572.132559 301.988084 
L 572.579495 301.093759 
L 573.473368 301.658914 
L 573.920304 300.814006 
L 574.367241 300.701884 
L 574.814177 301.724043 
L 575.261113 300.972692 
L 575.70805 301.507219 
L 576.154986 301.65631 
L 576.601922 301.281542 
L 577.048859 301.796584 
L 577.495795 301.826389 
L 577.942731 300.66264 
L 578.389668 301.975474 
L 578.836604 300.989378 
L 579.28354 300.66654 
L 579.730477 301.321095 
L 580.177413 300.141831 
L 580.624349 301.530509 
L 581.071286 301.157587 
L 581.518222 301.498228 
L 581.965158 301.575182 
L 582.412095 301.80926 
L 582.859031 301.378223 
L 583.305967 301.805035 
L 583.752903 301.577311 
L 584.646776 301.508023 
L 585.093712 301.983643 
L 585.540649 300.924272 
L 585.987585 301.069002 
L 586.434521 301.35497 
L 586.881458 301.298611 
L 587.328394 301.013092 
L 588.222267 301.281287 
L 588.669203 301.954754 
L 589.116139 300.903662 
L 589.563076 301.751952 
L 590.010012 301.59313 
L 590.456948 302.354116 
L 590.903885 302.270084 
L 591.350821 301.543311 
L 591.797757 302.118603 
L 592.244694 301.858902 
L 592.69163 302.34039 
L 593.138566 301.59924 
L 593.585503 302.392333 
L 594.032439 301.962441 
L 594.479375 302.068911 
L 594.926312 301.803196 
L 595.373248 302.047944 
L 595.820184 301.96545 
L 596.267121 301.319795 
L 596.714057 302.004165 
L 597.160993 300.753331 
L 597.60793 301.452163 
L 598.054866 300.44632 
L 598.501802 300.2665 
L 598.948738 301.876128 
L 599.395675 301.885801 
L 599.842611 301.588021 
L 600.289547 301.091979 
L 600.736484 301.231701 
L 601.18342 301.777504 
L 601.630356 302.122842 
L 602.077293 301.436744 
L 602.524229 301.84888 
L 602.971165 301.541669 
L 603.418102 301.711097 
L 603.865038 301.728103 
L 604.758911 300.797053 
L 605.205847 300.767538 
L 605.652783 301.878334 
L 606.09972 302.132728 
L 606.546656 301.821495 
L 606.993592 301.96352 
L 607.440529 301.773532 
L 607.887465 301.146602 
L 608.334401 301.29517 
L 608.781338 301.706771 
L 609.228274 301.209693 
L 609.67521 302.645455 
L 610.569083 301.490863 
L 611.016019 302.067194 
L 611.462956 301.993378 
L 611.909892 301.26607 
L 612.356828 301.806047 
L 612.803765 301.304283 
L 613.250701 301.222828 
L 613.697637 301.955655 
L 614.144573 301.590045 
L 614.59151 302.479207 
L 615.485382 301.674881 
L 615.932319 301.001832 
L 616.379255 301.736253 
L 616.826191 301.540356 
L 617.273128 302.170684 
L 617.720064 300.950566 
L 618.167 301.671016 
L 618.613937 301.346032 
L 619.060873 301.77585 
L 619.507809 301.212555 
L 619.954746 300.978284 
L 620.848618 301.568751 
L 621.295555 302.058113 
L 621.742491 302.320582 
L 622.189427 301.175228 
L 622.636364 301.071025 
L 622.636364 301.071025 
" style="fill:none;stroke:#1f77b4;stroke-linecap:square;stroke-width:0.5;"/>
   </g>
   <g id="line2d_32">
    <path clip-path="url(#p9727763f2b)" d="M 115.363636 59.906833 
L 115.810573 68.771818 
L 116.257509 74.51959 
L 117.151382 80.152748 
L 117.598318 82.545874 
L 118.492191 88.707863 
L 119.386063 93.141679 
L 119.833 96.126197 
L 120.279936 96.461812 
L 120.726872 99.867988 
L 121.620745 104.260307 
L 122.067681 107.157469 
L 122.514618 107.863569 
L 122.961554 114.205194 
L 123.855427 119.341302 
L 124.302363 125.322689 
L 124.749299 125.38245 
L 125.196235 130.059801 
L 125.643172 136.558019 
L 126.090108 138.817797 
L 126.537044 142.114241 
L 126.983981 143.251715 
L 127.430917 150.718429 
L 128.32479 156.624935 
L 128.771726 158.388618 
L 129.218662 163.341925 
L 129.665599 166.919961 
L 130.112535 166.707007 
L 131.453344 175.668124 
L 131.90028 177.683248 
L 132.347217 182.310728 
L 132.794153 182.697441 
L 133.241089 180.466786 
L 133.688026 183.981805 
L 134.134962 185.680839 
L 134.581898 189.975232 
L 135.028835 191.85566 
L 135.475771 192.669565 
L 135.922707 193.821929 
L 136.369644 194.418803 
L 137.263516 199.643779 
L 137.710453 199.200619 
L 138.157389 200.936319 
L 139.051262 205.397243 
L 139.498198 208.30221 
L 139.945134 208.913071 
L 140.39207 210.423445 
L 140.839007 212.606539 
L 141.285943 213.373146 
L 141.732879 212.970238 
L 142.179816 214.634272 
L 142.626752 212.985045 
L 143.073688 218.115764 
L 143.520625 215.729429 
L 143.967561 219.99447 
L 144.414497 218.804841 
L 144.861434 221.239818 
L 145.30837 222.257523 
L 145.755306 222.839993 
L 146.202243 226.286119 
L 146.649179 223.726344 
L 147.096115 223.582792 
L 147.543052 227.857887 
L 147.989988 224.921968 
L 148.436924 227.174938 
L 148.883861 228.491538 
L 149.330797 232.370814 
L 149.777733 231.769279 
L 150.22467 233.902601 
L 150.671606 232.708286 
L 151.118542 232.957987 
L 151.565479 236.027873 
L 152.012415 235.837505 
L 152.459351 234.370367 
L 152.906288 236.588479 
L 153.353224 236.822763 
L 153.80016 238.072287 
L 154.247097 238.573856 
L 154.694033 241.199343 
L 155.140969 242.159528 
L 155.587905 240.191096 
L 156.034842 243.778668 
L 156.481778 243.128654 
L 156.928714 243.702683 
L 157.822587 246.212553 
L 158.269523 244.824478 
L 158.71646 246.334039 
L 159.163396 247.263675 
L 159.610332 247.3203 
L 160.057269 249.184152 
L 160.504205 248.490212 
L 160.951141 248.55349 
L 161.398078 249.143273 
L 161.845014 249.066582 
L 162.29195 251.437068 
L 162.738887 251.148373 
L 163.185823 253.406053 
L 163.632759 253.500631 
L 164.079696 255.034096 
L 164.526632 254.416528 
L 164.973568 256.616753 
L 165.420505 257.465546 
L 165.867441 255.624542 
L 166.314377 255.366297 
L 166.761314 256.752741 
L 167.20825 259.014071 
L 167.655186 259.247996 
L 168.102123 260.411473 
L 168.549059 258.636849 
L 168.995995 260.640794 
L 169.442932 259.844334 
L 169.889868 261.259364 
L 170.336804 263.512916 
L 170.78374 263.709778 
L 171.230677 262.503078 
L 171.677613 263.090382 
L 172.124549 263.230751 
L 172.571486 263.869721 
L 173.018422 263.181917 
L 173.465358 264.944993 
L 173.912295 264.927145 
L 174.359231 266.761455 
L 174.806167 264.839914 
L 175.253104 264.978949 
L 175.70004 267.325828 
L 176.146976 266.018152 
L 176.593913 268.065798 
L 177.040849 268.946522 
L 177.487785 266.415513 
L 177.934722 265.576322 
L 178.828594 270.022543 
L 179.275531 266.904244 
L 179.722467 271.31229 
L 180.169403 269.973889 
L 180.61634 269.12477 
L 181.510212 270.142082 
L 181.957149 271.404341 
L 182.404085 272.081471 
L 182.851021 271.08277 
L 183.297958 272.071761 
L 183.744894 271.916359 
L 184.19183 270.445821 
L 185.085703 273.320168 
L 185.532639 274.134653 
L 186.426512 272.632288 
L 186.873448 273.209178 
L 187.320384 273.436339 
L 187.767321 274.192765 
L 188.214257 274.110535 
L 188.661193 273.541264 
L 189.10813 275.144852 
L 190.002002 274.793365 
L 190.448939 275.502541 
L 190.895875 275.225423 
L 191.342811 276.323141 
L 191.789748 274.57847 
L 192.236684 277.027374 
L 192.68362 276.084723 
L 193.130557 277.010394 
L 193.577493 276.035063 
L 194.024429 275.506016 
L 194.471366 276.371597 
L 194.918302 275.014265 
L 195.365238 276.201245 
L 195.812175 275.78777 
L 196.259111 277.289393 
L 196.706047 278.330809 
L 197.152984 276.749375 
L 197.59992 278.171551 
L 198.046856 278.390394 
L 198.493793 277.643129 
L 198.940729 279.259076 
L 199.834602 277.686422 
L 200.728474 279.656408 
L 201.17541 277.692258 
L 201.622347 277.458894 
L 202.069283 280.659952 
L 202.516219 279.591429 
L 202.963156 278.022364 
L 203.857028 279.155397 
L 204.750901 281.301762 
L 205.197837 280.535378 
L 205.644774 280.389654 
L 206.09171 279.187598 
L 206.538646 280.869552 
L 206.985583 282.026317 
L 207.432519 282.136043 
L 207.879455 281.620968 
L 208.773328 281.544699 
L 209.220264 280.26899 
L 209.667201 280.419883 
L 210.114137 281.061412 
L 210.561073 282.675146 
L 211.00801 282.216058 
L 211.454946 283.482016 
L 211.901882 283.361233 
L 212.348819 280.621921 
L 212.795755 280.941678 
L 213.242691 281.580542 
L 213.689628 282.838933 
L 214.136564 281.720441 
L 214.5835 281.670257 
L 215.030437 283.147577 
L 215.477373 281.966882 
L 215.924309 281.490518 
L 216.371245 283.405098 
L 216.818182 283.415456 
L 217.265118 281.823227 
L 217.712054 282.857471 
L 218.158991 282.818682 
L 218.605927 282.55734 
L 219.052863 282.988621 
L 219.4998 284.893195 
L 219.946736 283.381795 
L 220.840609 283.462131 
L 221.287545 284.357879 
L 221.734481 282.861236 
L 222.181418 283.564525 
L 222.628354 283.619471 
L 223.07529 283.221584 
L 223.522227 284.889285 
L 223.969163 283.735049 
L 224.416099 285.281246 
L 224.863036 284.450049 
L 225.309972 283.245949 
L 225.756908 284.598226 
L 226.203845 285.086674 
L 226.650781 283.442201 
L 227.097717 284.061429 
L 227.544654 285.326594 
L 227.99159 282.788252 
L 228.438526 284.446325 
L 228.885463 284.742362 
L 229.332399 286.37511 
L 229.779335 284.669461 
L 230.226272 284.6296 
L 231.120144 284.869371 
L 231.56708 285.669581 
L 232.014017 283.578998 
L 232.460953 286.983574 
L 233.354826 285.742572 
L 233.801762 286.811813 
L 234.248698 283.884902 
L 234.695635 286.64507 
L 235.142571 284.108371 
L 235.589507 285.944239 
L 236.036444 286.398221 
L 236.48338 287.181199 
L 236.930316 286.079774 
L 237.377253 286.32617 
L 237.824189 286.360764 
L 238.271125 287.715969 
L 238.718062 283.981551 
L 239.164998 286.115014 
L 239.611934 287.623886 
L 240.058871 286.125414 
L 240.505807 287.047322 
L 240.952743 286.970447 
L 241.39968 288.569819 
L 241.846616 289.01183 
L 242.293552 286.099708 
L 242.740489 286.452818 
L 243.187425 288.234492 
L 243.634361 286.912711 
L 244.081298 287.710698 
L 244.528234 286.642449 
L 244.97517 288.618152 
L 245.422107 286.927762 
L 245.869043 287.107696 
L 246.315979 288.788545 
L 246.762915 287.077179 
L 247.209852 288.320529 
L 247.656788 287.927721 
L 248.550661 287.865294 
L 248.997597 287.707923 
L 249.444533 285.464229 
L 249.89147 288.464702 
L 250.338406 288.320473 
L 250.785342 287.41411 
L 251.232279 287.315395 
L 251.679215 289.307125 
L 252.126151 288.214808 
L 252.573088 288.144926 
L 253.020024 288.578377 
L 253.46696 288.215611 
L 253.913897 287.249568 
L 254.807769 287.689029 
L 255.254706 287.309903 
L 255.701642 287.902336 
L 256.148578 289.049021 
L 256.595515 287.798098 
L 257.042451 289.867318 
L 257.489387 288.92286 
L 257.936324 289.708465 
L 258.38326 289.110587 
L 258.830196 289.120438 
L 259.277133 288.276126 
L 259.724069 286.765658 
L 260.171005 288.80012 
L 260.617942 288.854933 
L 261.064878 287.844702 
L 261.958751 288.760226 
L 262.405687 288.897671 
L 262.852623 288.128135 
L 263.299559 287.809689 
L 263.746496 288.929484 
L 264.193432 289.206417 
L 264.640368 289.814413 
L 265.534241 288.569125 
L 265.981177 289.839034 
L 266.428114 289.594169 
L 266.87505 288.781884 
L 267.321986 289.327979 
L 267.768923 289.518637 
L 268.215859 288.641587 
L 268.662795 290.808123 
L 269.109732 289.419454 
L 269.556668 288.921066 
L 270.003604 289.173493 
L 270.450541 289.728675 
L 270.897477 288.239085 
L 271.344413 290.006804 
L 271.79135 290.488911 
L 272.238286 288.77193 
L 272.685222 289.861663 
L 273.132159 288.065213 
L 273.579095 289.020546 
L 274.026031 288.875867 
L 274.472968 289.343914 
L 274.919904 290.043268 
L 275.36684 290.503792 
L 275.813777 290.486967 
L 276.260713 291.191342 
L 276.707649 288.566741 
L 277.154586 287.760588 
L 277.601522 289.569481 
L 278.048458 290.625169 
L 278.495394 290.21714 
L 278.942331 289.428221 
L 279.389267 290.171203 
L 279.836203 289.973099 
L 280.28314 289.65256 
L 280.730076 289.965639 
L 281.177012 288.902072 
L 282.070885 290.283017 
L 282.517821 290.647889 
L 282.964758 290.471087 
L 283.411694 289.862147 
L 283.85863 290.215653 
L 284.305567 290.295012 
L 284.752503 290.645082 
L 285.199439 290.387584 
L 285.646376 291.612919 
L 286.093312 289.530247 
L 286.540248 290.106806 
L 286.987185 290.42382 
L 287.434121 290.498371 
L 287.881057 290.23784 
L 288.327994 290.137087 
L 288.77493 290.434415 
L 289.221866 291.127684 
L 289.668803 291.16303 
L 290.115739 289.995766 
L 290.562675 291.057883 
L 291.009612 290.104189 
L 291.456548 289.723659 
L 291.903484 290.363811 
L 292.350421 289.933 
L 292.797357 289.894856 
L 293.244293 290.810383 
L 293.691229 290.56645 
L 294.138166 289.702878 
L 294.585102 292.795491 
L 295.032038 291.023369 
L 295.478975 292.567829 
L 295.925911 291.207732 
L 296.372847 291.912786 
L 296.819784 290.134252 
L 297.26672 290.682894 
L 297.713656 289.347087 
L 298.160593 291.720593 
L 298.607529 290.541311 
L 299.054465 290.270353 
L 299.501402 289.341884 
L 299.948338 292.254291 
L 300.395274 290.363604 
L 300.842211 291.439814 
L 301.289147 291.225353 
L 301.736083 289.274205 
L 302.18302 291.708574 
L 302.629956 291.120858 
L 303.076892 291.257557 
L 303.523829 290.667917 
L 303.970765 291.003141 
L 304.417701 289.335572 
L 304.864638 291.337627 
L 305.311574 291.110779 
L 305.75851 290.01228 
L 306.652383 293.28916 
L 307.546256 290.895368 
L 308.887064 291.562192 
L 309.334001 291.259717 
L 309.780937 290.781727 
L 310.227873 290.014478 
L 310.67481 292.140786 
L 311.121746 289.796031 
L 311.568682 290.401067 
L 312.015619 293.298261 
L 312.462555 290.134942 
L 312.909491 291.731986 
L 313.356428 292.17302 
L 313.803364 289.693348 
L 314.2503 291.541804 
L 314.697237 290.731141 
L 315.144173 292.459928 
L 315.591109 291.735398 
L 316.038046 292.44743 
L 316.484982 291.341489 
L 316.931918 291.103539 
L 317.378855 290.527168 
L 317.825791 292.629264 
L 318.272727 290.158498 
L 318.719664 290.849007 
L 319.1666 291.082367 
L 319.613536 289.914433 
L 320.060473 290.740771 
L 320.507409 292.556655 
L 320.954345 290.203405 
L 321.401282 292.867163 
L 321.848218 290.19816 
L 322.295154 292.297983 
L 322.742091 292.86682 
L 323.189027 291.490004 
L 323.635963 293.068125 
L 324.082899 293.345542 
L 324.529836 292.239993 
L 324.976772 291.632872 
L 325.870645 292.312568 
L 326.317581 291.523448 
L 327.211454 293.24795 
L 327.65839 292.385157 
L 328.105326 292.631272 
L 328.999199 291.037311 
L 329.446135 293.680988 
L 329.893072 291.502207 
L 330.340008 292.467677 
L 330.786944 292.60615 
L 331.233881 292.598121 
L 331.680817 291.00057 
L 332.127753 293.112306 
L 332.57469 292.565927 
L 333.021626 291.096854 
L 333.468562 292.292115 
L 333.915499 291.504998 
L 334.362435 292.328386 
L 335.256308 293.28756 
L 335.703244 292.164289 
L 336.15018 291.527733 
L 336.597117 293.100604 
L 337.044053 291.220733 
L 337.490989 292.436601 
L 337.937926 292.195735 
L 338.384862 291.682392 
L 338.831798 291.425583 
L 339.278734 292.572221 
L 339.725671 293.308569 
L 340.172607 291.915533 
L 340.619543 293.533587 
L 341.06648 293.657306 
L 341.513416 292.414835 
L 341.960352 291.924951 
L 342.407289 293.716995 
L 342.854225 293.787731 
L 343.301161 292.337227 
L 343.748098 294.283357 
L 344.195034 292.513835 
L 344.64197 294.394679 
L 345.088907 293.132249 
L 345.535843 294.246928 
L 345.982779 292.636147 
L 346.429716 293.605025 
L 346.876652 292.85507 
L 347.323588 293.843471 
L 347.770525 292.5141 
L 348.217461 291.858694 
L 348.664397 293.876975 
L 349.111334 292.067247 
L 349.55827 293.987033 
L 350.005206 292.36085 
L 350.452143 293.014624 
L 350.899079 293.173893 
L 351.346015 293.208902 
L 351.792952 292.343738 
L 352.239888 293.401069 
L 352.686824 293.166096 
L 353.133761 293.756238 
L 353.580697 292.58839 
L 354.027633 293.34714 
L 354.474569 292.744981 
L 354.921506 293.214642 
L 355.368442 292.488513 
L 355.815378 292.706341 
L 356.262315 292.415277 
L 356.709251 293.27598 
L 357.156187 293.313061 
L 357.603124 293.805197 
L 358.05006 293.683361 
L 358.496996 292.874647 
L 358.943933 293.297665 
L 359.390869 293.34387 
L 359.837805 294.524402 
L 360.284742 291.932932 
L 360.731678 293.650535 
L 361.178614 293.192314 
L 361.625551 293.193124 
L 362.072487 294.237545 
L 362.519423 294.301321 
L 362.96636 293.924295 
L 363.413296 292.119712 
L 363.860232 294.213749 
L 364.307169 292.988309 
L 364.754105 294.434107 
L 365.201041 292.918906 
L 365.647978 292.310748 
L 366.094914 294.418795 
L 366.54185 293.128686 
L 366.988787 293.958283 
L 367.435723 292.669409 
L 367.882659 293.104741 
L 368.329596 293.892966 
L 368.776532 293.661401 
L 369.223468 293.222737 
L 369.670404 293.708803 
L 370.117341 293.762021 
L 370.564277 293.271348 
L 371.011213 292.077443 
L 371.45815 293.449123 
L 371.905086 292.751544 
L 372.352022 293.92991 
L 372.798959 292.584711 
L 373.245895 292.942928 
L 373.692831 293.856109 
L 374.139768 293.912682 
L 374.586704 294.285104 
L 375.03364 295.15824 
L 375.480577 293.671324 
L 375.927513 294.201055 
L 376.821386 292.561136 
L 377.715258 293.802036 
L 378.162195 295.475794 
L 378.609131 292.795685 
L 379.056067 293.608133 
L 379.503004 293.881784 
L 379.94994 292.099534 
L 380.396876 292.448916 
L 380.843813 294.269065 
L 381.290749 294.435809 
L 382.184622 292.016776 
L 382.631558 293.473941 
L 383.078494 293.50593 
L 383.525431 294.203919 
L 383.972367 293.785588 
L 384.419303 292.714224 
L 384.866239 294.426448 
L 385.313176 292.954093 
L 385.760112 293.128064 
L 386.207048 294.955914 
L 386.653985 292.832917 
L 387.100921 293.03406 
L 387.547857 294.632268 
L 387.994794 293.209498 
L 388.44173 294.78085 
L 388.888666 295.210839 
L 389.335603 294.166442 
L 389.782539 295.161721 
L 390.229475 293.040063 
L 390.676412 293.866676 
L 391.123348 295.501798 
L 392.017221 292.56863 
L 392.464157 294.446294 
L 392.911093 294.407507 
L 393.35803 293.846473 
L 393.804966 294.09146 
L 394.251902 295.559882 
L 394.698839 294.711155 
L 395.145775 293.614553 
L 395.592711 293.83962 
L 396.039648 295.356376 
L 396.486584 294.164793 
L 396.93352 293.95887 
L 397.380457 294.093979 
L 397.827393 293.96751 
L 398.274329 294.679312 
L 399.168202 293.496617 
L 399.615138 295.247666 
L 400.062074 291.609489 
L 400.509011 294.692717 
L 400.955947 293.470934 
L 401.402883 293.826977 
L 402.296756 295.475179 
L 402.743692 294.717931 
L 403.190629 293.271 
L 403.637565 294.258228 
L 404.084501 293.586702 
L 404.531438 293.184097 
L 404.978374 294.365595 
L 405.42531 292.951648 
L 405.872247 293.389494 
L 406.319183 293.652929 
L 406.766119 294.53853 
L 407.213056 294.528926 
L 407.659992 296.172038 
L 408.106928 295.621157 
L 408.553865 294.075676 
L 409.000801 293.50664 
L 409.447737 294.166706 
L 409.894674 293.989808 
L 410.34161 295.051351 
L 410.788546 295.068423 
L 411.235483 294.62089 
L 411.682419 293.795739 
L 412.129355 295.4103 
L 412.576292 293.430417 
L 413.023228 294.768871 
L 413.470164 294.430591 
L 413.917101 295.300895 
L 414.364037 295.530797 
L 414.810973 294.465335 
L 415.257909 294.443781 
L 415.704846 292.3661 
L 416.151782 294.796023 
L 416.598718 293.923762 
L 417.045655 294.982988 
L 417.492591 293.746551 
L 417.939527 293.416974 
L 418.386464 292.897114 
L 419.727273 295.197913 
L 420.174209 292.655772 
L 420.621145 293.462922 
L 421.068082 294.615809 
L 421.515018 294.815607 
L 421.961954 294.179812 
L 422.408891 294.634952 
L 422.855827 293.401866 
L 423.302763 295.212579 
L 423.7497 294.011974 
L 424.196636 295.698393 
L 424.643572 293.904398 
L 425.090509 294.476997 
L 425.537445 294.549182 
L 426.431318 294.144644 
L 426.878254 294.77336 
L 427.32519 293.212427 
L 427.772127 293.388646 
L 428.219063 294.703146 
L 428.665999 294.735078 
L 429.112936 296.16408 
L 429.559872 293.625022 
L 430.006808 294.406885 
L 430.453744 293.843212 
L 430.900681 294.343127 
L 431.347617 293.120517 
L 431.794553 294.24589 
L 432.24149 294.523465 
L 432.688426 295.555783 
L 433.135362 294.815513 
L 433.582299 294.521569 
L 434.029235 294.989699 
L 434.476171 296.411712 
L 434.923108 294.887149 
L 435.370044 293.961259 
L 435.81698 293.817026 
L 436.263917 294.062688 
L 436.710853 293.21739 
L 437.157789 293.112795 
L 437.604726 294.757695 
L 438.051662 295.537671 
L 438.498598 295.406378 
L 439.392471 293.695449 
L 439.839407 294.878107 
L 440.286344 293.388083 
L 440.73328 294.97331 
L 441.180216 295.153353 
L 441.627153 294.14726 
L 442.074089 296.339601 
L 442.521025 294.801076 
L 442.967962 295.077951 
L 443.414898 295.008201 
L 443.861834 294.24423 
L 444.308771 295.295216 
L 444.755707 292.922027 
L 445.202643 293.947877 
L 445.649579 293.594437 
L 446.096516 295.037885 
L 446.543452 293.247888 
L 446.990388 293.303555 
L 447.437325 294.445859 
L 447.884261 294.331025 
L 448.331197 294.971539 
L 448.778134 296.260704 
L 449.22507 292.88351 
L 449.672006 294.626235 
L 450.118943 295.353802 
L 450.565879 294.74117 
L 451.012815 295.115276 
L 451.459752 295.32623 
L 451.906688 296.0315 
L 452.353624 294.030367 
L 452.800561 293.124793 
L 453.247497 295.090093 
L 453.694433 293.758676 
L 454.14137 295.323045 
L 454.588306 292.936306 
L 455.482179 295.916647 
L 455.929115 293.708065 
L 456.376051 295.076979 
L 456.822988 293.924883 
L 457.269924 294.73762 
L 457.71686 293.007973 
L 458.610733 295.643431 
L 459.057669 294.610037 
L 459.504606 296.450959 
L 460.398478 295.381611 
L 460.845414 294.78717 
L 461.292351 295.914856 
L 461.739287 295.008925 
L 462.186223 295.033615 
L 462.63316 294.353574 
L 463.080096 293.039029 
L 463.527032 294.581564 
L 463.973969 295.552091 
L 464.420905 294.921073 
L 464.867841 296.548664 
L 465.314778 293.644883 
L 465.761714 292.600055 
L 466.20865 293.408293 
L 466.655587 295.974364 
L 467.102523 293.128711 
L 467.549459 294.260689 
L 467.996396 296.161553 
L 468.443332 294.97702 
L 468.890268 295.288411 
L 469.337205 295.086854 
L 469.784141 296.35565 
L 470.231077 294.778278 
L 470.678014 294.255133 
L 471.571886 295.025076 
L 472.018823 295.420644 
L 472.465759 296.40133 
L 472.912695 295.071253 
L 473.359632 295.535543 
L 473.806568 294.410731 
L 474.700441 293.624821 
L 475.147377 294.119909 
L 475.594313 293.361962 
L 476.041249 294.670499 
L 476.488186 295.333066 
L 476.935122 295.16395 
L 477.382058 294.048795 
L 477.828995 292.602465 
L 478.275931 295.522827 
L 478.722867 293.854327 
L 479.169804 294.552212 
L 479.61674 294.260145 
L 480.063676 292.824072 
L 480.510613 295.039301 
L 481.404485 295.642076 
L 481.851422 295.327494 
L 482.298358 295.756813 
L 482.745294 293.328627 
L 483.192231 294.756744 
L 483.639167 294.94349 
L 484.086103 294.361421 
L 484.53304 295.055346 
L 484.979976 295.53746 
L 485.426912 294.833114 
L 485.873849 294.608391 
L 486.320785 294.157292 
L 486.767721 294.811594 
L 487.214658 296.760469 
L 488.10853 291.668111 
L 488.555467 294.012634 
L 489.002403 294.456683 
L 489.449339 296.031329 
L 489.896276 296.365684 
L 490.343212 294.269744 
L 490.790148 296.419153 
L 491.237085 296.662868 
L 491.684021 294.142871 
L 492.130957 295.902155 
L 492.577893 293.210287 
L 493.02483 293.163116 
L 493.471766 295.48132 
L 493.918702 295.278727 
L 494.365639 294.150059 
L 494.812575 294.28223 
L 495.259511 293.706216 
L 495.706448 293.722572 
L 496.153384 294.238546 
L 496.60032 297.140698 
L 497.047257 295.561031 
L 497.494193 294.569668 
L 497.941129 295.39224 
L 498.388066 294.102394 
L 498.835002 293.783619 
L 499.728875 295.413325 
L 500.175811 293.98819 
L 500.622747 295.326378 
L 501.069684 293.237085 
L 501.51662 292.182184 
L 501.963556 295.209343 
L 502.410493 293.055588 
L 502.857429 293.371086 
L 503.751302 296.402961 
L 504.198238 296.61429 
L 504.645174 296.27063 
L 505.092111 294.971612 
L 505.539047 294.519671 
L 505.985983 293.486484 
L 506.43292 293.58663 
L 506.879856 294.854988 
L 507.326792 295.045229 
L 507.773728 296.285759 
L 508.667601 293.844307 
L 509.114537 296.335443 
L 509.561474 295.582639 
L 510.00841 295.841635 
L 510.455346 295.583447 
L 510.902283 297.479075 
L 511.349219 295.723472 
L 511.796155 295.350361 
L 512.243092 297.190834 
L 513.136964 294.724879 
L 513.583901 294.972014 
L 514.030837 294.318268 
L 514.477773 296.001219 
L 514.92471 293.731517 
L 515.371646 295.647004 
L 515.818582 295.984765 
L 516.265519 295.787545 
L 516.712455 295.907536 
L 517.159391 296.462465 
L 517.606328 295.257349 
L 518.053264 294.789832 
L 518.5002 293.949427 
L 518.947137 294.506573 
L 519.394073 295.848157 
L 519.841009 293.733648 
L 520.287946 293.410362 
L 520.734882 296.054287 
L 521.181818 294.272431 
L 521.628755 293.5162 
L 522.522627 296.289419 
L 522.969563 294.296161 
L 523.4165 294.348785 
L 523.863436 294.765379 
L 524.310372 295.954752 
L 525.204245 296.644539 
L 525.651181 294.774664 
L 526.098118 294.909189 
L 526.545054 294.245816 
L 526.99199 294.346997 
L 527.438927 296.48522 
L 527.885863 293.998539 
L 528.332799 293.922436 
L 528.779736 295.156264 
L 529.226672 294.224347 
L 529.673608 295.813307 
L 530.120545 294.337398 
L 530.567481 294.608838 
L 531.014417 292.821386 
L 531.461354 294.246991 
L 531.90829 294.019339 
L 532.355226 294.408553 
L 532.802163 293.282453 
L 533.249099 294.054165 
L 533.696035 294.029857 
L 534.142972 296.013635 
L 534.589908 294.517412 
L 535.036844 294.028712 
L 535.483781 293.736808 
L 535.930717 295.586135 
L 536.377653 295.970928 
L 536.82459 294.85199 
L 537.271526 295.923075 
L 537.718462 295.341753 
L 538.165398 296.666557 
L 538.612335 294.964094 
L 539.059271 295.112554 
L 539.506207 294.903319 
L 539.953144 295.219991 
L 540.40008 296.814943 
L 540.847016 295.606781 
L 541.293953 295.242004 
L 541.740889 296.830218 
L 542.187825 293.011633 
L 542.634762 294.558608 
L 543.081698 296.795906 
L 543.528634 296.786321 
L 543.975571 295.399125 
L 544.422507 296.100047 
L 544.869443 296.547257 
L 545.31638 296.563625 
L 546.210252 293.761213 
L 546.657189 296.123588 
L 547.551061 296.261496 
L 547.997998 295.839317 
L 548.444934 296.545706 
L 548.89187 295.260826 
L 549.338807 293.577064 
L 549.785743 294.751479 
L 550.232679 295.351003 
L 550.679616 294.608333 
L 551.126552 295.089753 
L 551.573488 294.51443 
L 552.020425 295.153177 
L 552.467361 295.08745 
L 553.361233 294.219937 
L 553.80817 295.41014 
L 554.255106 295.434974 
L 554.702042 296.286678 
L 555.148979 295.400654 
L 556.042851 296.847509 
L 556.936724 295.531578 
L 557.38366 295.929317 
L 557.830597 293.601965 
L 558.277533 293.532062 
L 559.171406 294.971894 
L 559.618342 296.63569 
L 560.065278 295.616509 
L 560.959151 295.451511 
L 561.406087 294.961848 
L 561.853024 295.902779 
L 562.29996 296.013826 
L 562.746896 295.188919 
L 563.193833 293.664034 
L 563.640769 295.436499 
L 564.087705 294.33229 
L 564.534642 294.123298 
L 564.981578 295.345448 
L 565.428514 295.024934 
L 565.875451 296.558237 
L 566.322387 295.495052 
L 566.769323 295.605684 
L 567.21626 294.598047 
L 567.663196 296.158936 
L 568.110132 295.418948 
L 568.557068 294.938339 
L 569.450941 296.260333 
L 569.897877 295.67918 
L 570.344814 295.827713 
L 570.79175 295.810997 
L 571.238686 295.341246 
L 571.685623 294.424865 
L 572.132559 295.400078 
L 572.579495 295.529883 
L 573.026432 295.461172 
L 573.473368 296.434054 
L 573.920304 294.77584 
L 574.367241 294.032019 
L 574.814177 295.046629 
L 575.261113 293.815062 
L 575.70805 295.174133 
L 576.154986 295.0432 
L 576.601922 293.760663 
L 577.048859 295.155854 
L 577.495795 295.623668 
L 577.942731 296.583276 
L 578.389668 295.539037 
L 578.836604 296.566439 
L 579.28354 294.900537 
L 579.730477 295.015886 
L 580.624349 294.812566 
L 581.071286 296.78998 
L 581.518222 294.550629 
L 581.965158 296.504354 
L 582.412095 296.841725 
L 582.859031 295.784806 
L 583.305967 295.025243 
L 583.752903 292.634416 
L 584.19984 295.30003 
L 584.646776 296.098935 
L 585.540649 292.843679 
L 585.987585 295.146915 
L 586.434521 295.369188 
L 587.328394 294.561737 
L 587.77533 295.680456 
L 588.222267 293.825165 
L 588.669203 295.688831 
L 589.563076 295.757449 
L 590.010012 296.962969 
L 590.456948 297.096544 
L 590.903885 295.871728 
L 591.350821 296.234105 
L 591.797757 296.389671 
L 592.244694 295.803733 
L 592.69163 297.173643 
L 593.138566 295.982784 
L 594.032439 295.516536 
L 594.479375 293.629267 
L 594.926312 296.020057 
L 595.373248 294.903815 
L 595.820184 295.49121 
L 596.267121 294.028482 
L 596.714057 294.250219 
L 597.160993 293.896967 
L 598.054866 297.049587 
L 598.501802 294.54894 
L 598.948738 294.511479 
L 599.842611 295.413859 
L 600.289547 295.31629 
L 600.736484 294.724373 
L 601.18342 295.372349 
L 601.630356 296.393206 
L 602.077293 292.986223 
L 602.524229 295.712396 
L 602.971165 296.361593 
L 603.418102 294.341475 
L 603.865038 296.387078 
L 604.311974 296.968722 
L 605.205847 295.694489 
L 606.09972 295.31472 
L 606.546656 295.274963 
L 606.993592 293.824314 
L 607.440529 295.600254 
L 607.887465 295.017309 
L 608.334401 293.934602 
L 608.781338 296.373693 
L 609.228274 294.88608 
L 609.67521 294.731777 
L 610.122147 295.992606 
L 610.569083 294.814077 
L 611.016019 294.883971 
L 611.462956 293.235305 
L 611.909892 295.804927 
L 612.356828 294.448657 
L 612.803765 295.472447 
L 613.250701 293.836566 
L 613.697637 292.870081 
L 614.59151 296.743135 
L 615.038446 293.982707 
L 615.485382 295.660101 
L 615.932319 295.855129 
L 616.379255 294.68164 
L 616.826191 294.387133 
L 617.273128 295.746517 
L 617.720064 296.088864 
L 618.167 297.097757 
L 618.613937 295.921245 
L 619.060873 296.183441 
L 619.507809 296.149364 
L 620.401682 296.569575 
L 620.848618 293.475561 
L 621.295555 295.93052 
L 621.742491 294.478658 
L 622.189427 294.020227 
L 622.636364 295.236077 
L 622.636364 295.236077 
" style="fill:none;stroke:#ff7f0e;stroke-linecap:square;stroke-width:0.5;"/>
   </g>
   <g id="patch_3">
    <path d="M 90 315 
L 90 43.2 
" style="fill:none;stroke:#000000;stroke-linecap:square;stroke-linejoin:miter;stroke-width:0.8;"/>
   </g>
   <g id="patch_4">
    <path d="M 648 315 
L 648 43.2 
" style="fill:none;stroke:#000000;stroke-linecap:square;stroke-linejoin:miter;stroke-width:0.8;"/>
   </g>
   <g id="patch_5">
    <path d="M 90 315 
L 648 315 
" style="fill:none;stroke:#000000;stroke-linecap:square;stroke-linejoin:miter;stroke-width:0.8;"/>
   </g>
   <g id="patch_6">
    <path d="M 90 43.2 
L 648 43.2 
" style="fill:none;stroke:#000000;stroke-linecap:square;stroke-linejoin:miter;stroke-width:0.8;"/>
   </g>
   <g id="text_18">
    <!-- loss -->
    <g transform="translate(357.410625 37.2)scale(0.12 -0.12)">
     <use xlink:href="#DejaVuSans-108"/>
     <use x="27.783203" xlink:href="#DejaVuSans-111"/>
     <use x="88.964844" xlink:href="#DejaVuSans-115"/>
     <use x="141.064453" xlink:href="#DejaVuSans-115"/>
    </g>
   </g>
   <g id="legend_1">
    <g id="patch_7">
     <path d="M 568.846875 80.55625 
L 641 80.55625 
Q 643 80.55625 643 78.55625 
L 643 50.2 
Q 643 48.2 641 48.2 
L 568.846875 48.2 
Q 566.846875 48.2 566.846875 50.2 
L 566.846875 78.55625 
Q 566.846875 80.55625 568.846875 80.55625 
z
" style="fill:#ffffff;opacity:0.8;stroke:#cccccc;stroke-linejoin:miter;"/>
    </g>
    <g id="line2d_33">
     <path d="M 570.846875 56.298437 
L 590.846875 56.298437 
" style="fill:none;stroke:#1f77b4;stroke-linecap:square;stroke-width:0.5;"/>
    </g>
    <g id="line2d_34"/>
    <g id="text_19">
     <!-- train -->
     <defs>
      <path d="M 18.3125 70.21875 
L 18.3125 54.6875 
L 36.8125 54.6875 
L 36.8125 47.703125 
L 18.3125 47.703125 
L 18.3125 18.015625 
Q 18.3125 11.328125 20.140625 9.421875 
Q 21.96875 7.515625 27.59375 7.515625 
L 36.8125 7.515625 
L 36.8125 0 
L 27.59375 0 
Q 17.1875 0 13.234375 3.875 
Q 9.28125 7.765625 9.28125 18.015625 
L 9.28125 47.703125 
L 2.6875 47.703125 
L 2.6875 54.6875 
L 9.28125 54.6875 
L 9.28125 70.21875 
z
" id="DejaVuSans-116"/>
      <path d="M 41.109375 46.296875 
Q 39.59375 47.171875 37.8125 47.578125 
Q 36.03125 48 33.890625 48 
Q 26.265625 48 22.1875 43.046875 
Q 18.109375 38.09375 18.109375 28.8125 
L 18.109375 0 
L 9.078125 0 
L 9.078125 54.6875 
L 18.109375 54.6875 
L 18.109375 46.1875 
Q 20.953125 51.171875 25.484375 53.578125 
Q 30.03125 56 36.53125 56 
Q 37.453125 56 38.578125 55.875 
Q 39.703125 55.765625 41.0625 55.515625 
z
" id="DejaVuSans-114"/>
      <path d="M 34.28125 27.484375 
Q 23.390625 27.484375 19.1875 25 
Q 14.984375 22.515625 14.984375 16.5 
Q 14.984375 11.71875 18.140625 8.90625 
Q 21.296875 6.109375 26.703125 6.109375 
Q 34.1875 6.109375 38.703125 11.40625 
Q 43.21875 16.703125 43.21875 25.484375 
L 43.21875 27.484375 
z
M 52.203125 31.203125 
L 52.203125 0 
L 43.21875 0 
L 43.21875 8.296875 
Q 40.140625 3.328125 35.546875 0.953125 
Q 30.953125 -1.421875 24.3125 -1.421875 
Q 15.921875 -1.421875 10.953125 3.296875 
Q 6 8.015625 6 15.921875 
Q 6 25.140625 12.171875 29.828125 
Q 18.359375 34.515625 30.609375 34.515625 
L 43.21875 34.515625 
L 43.21875 35.40625 
Q 43.21875 41.609375 39.140625 45 
Q 35.0625 48.390625 27.6875 48.390625 
Q 23 48.390625 18.546875 47.265625 
Q 14.109375 46.140625 10.015625 43.890625 
L 10.015625 52.203125 
Q 14.9375 54.109375 19.578125 55.046875 
Q 24.21875 56 28.609375 56 
Q 40.484375 56 46.34375 49.84375 
Q 52.203125 43.703125 52.203125 31.203125 
z
" id="DejaVuSans-97"/>
      <path d="M 9.421875 54.6875 
L 18.40625 54.6875 
L 18.40625 0 
L 9.421875 0 
z
M 9.421875 75.984375 
L 18.40625 75.984375 
L 18.40625 64.59375 
L 9.421875 64.59375 
z
" id="DejaVuSans-105"/>
      <path d="M 54.890625 33.015625 
L 54.890625 0 
L 45.90625 0 
L 45.90625 32.71875 
Q 45.90625 40.484375 42.875 44.328125 
Q 39.84375 48.1875 33.796875 48.1875 
Q 26.515625 48.1875 22.3125 43.546875 
Q 18.109375 38.921875 18.109375 30.90625 
L 18.109375 0 
L 9.078125 0 
L 9.078125 54.6875 
L 18.109375 54.6875 
L 18.109375 46.1875 
Q 21.34375 51.125 25.703125 53.5625 
Q 30.078125 56 35.796875 56 
Q 45.21875 56 50.046875 50.171875 
Q 54.890625 44.34375 54.890625 33.015625 
z
" id="DejaVuSans-110"/>
     </defs>
     <g transform="translate(598.846875 59.798437)scale(0.1 -0.1)">
      <use xlink:href="#DejaVuSans-116"/>
      <use x="39.208984" xlink:href="#DejaVuSans-114"/>
      <use x="80.322266" xlink:href="#DejaVuSans-97"/>
      <use x="141.601562" xlink:href="#DejaVuSans-105"/>
      <use x="169.384766" xlink:href="#DejaVuSans-110"/>
     </g>
    </g>
    <g id="line2d_35">
     <path d="M 570.846875 70.976562 
L 590.846875 70.976562 
" style="fill:none;stroke:#ff7f0e;stroke-linecap:square;stroke-width:0.5;"/>
    </g>
    <g id="line2d_36"/>
    <g id="text_20">
     <!-- validate -->
     <defs>
      <path d="M 2.984375 54.6875 
L 12.5 54.6875 
L 29.59375 8.796875 
L 46.6875 54.6875 
L 56.203125 54.6875 
L 35.6875 0 
L 23.484375 0 
z
" id="DejaVuSans-118"/>
      <path d="M 45.40625 46.390625 
L 45.40625 75.984375 
L 54.390625 75.984375 
L 54.390625 0 
L 45.40625 0 
L 45.40625 8.203125 
Q 42.578125 3.328125 38.25 0.953125 
Q 33.9375 -1.421875 27.875 -1.421875 
Q 17.96875 -1.421875 11.734375 6.484375 
Q 5.515625 14.40625 5.515625 27.296875 
Q 5.515625 40.1875 11.734375 48.09375 
Q 17.96875 56 27.875 56 
Q 33.9375 56 38.25 53.625 
Q 42.578125 51.265625 45.40625 46.390625 
z
M 14.796875 27.296875 
Q 14.796875 17.390625 18.875 11.75 
Q 22.953125 6.109375 30.078125 6.109375 
Q 37.203125 6.109375 41.296875 11.75 
Q 45.40625 17.390625 45.40625 27.296875 
Q 45.40625 37.203125 41.296875 42.84375 
Q 37.203125 48.484375 30.078125 48.484375 
Q 22.953125 48.484375 18.875 42.84375 
Q 14.796875 37.203125 14.796875 27.296875 
z
" id="DejaVuSans-100"/>
     </defs>
     <g transform="translate(598.846875 74.476562)scale(0.1 -0.1)">
      <use xlink:href="#DejaVuSans-118"/>
      <use x="59.179688" xlink:href="#DejaVuSans-97"/>
      <use x="120.458984" xlink:href="#DejaVuSans-108"/>
      <use x="148.242188" xlink:href="#DejaVuSans-105"/>
      <use x="176.025391" xlink:href="#DejaVuSans-100"/>
      <use x="239.501953" xlink:href="#DejaVuSans-97"/>
      <use x="300.78125" xlink:href="#DejaVuSans-116"/>
      <use x="339.990234" xlink:href="#DejaVuSans-101"/>
     </g>
    </g>
   </g>
  </g>
 </g>
 <defs>
  <clipPath id="p9727763f2b">
   <rect height="271.8" width="558" x="90" y="43.2"/>
  </clipPath>
 </defs>
</svg>
