<?xml version="1.0" encoding="utf-8" standalone="no"?>
<!DOCTYPE svg PUBLIC "-//W3C//DTD SVG 1.1//EN"
  "http://www.w3.org/Graphics/SVG/1.1/DTD/svg11.dtd">
<!-- Created with matplotlib (https://matplotlib.org/) -->
<svg height="360pt" version="1.1" viewBox="0 0 720 360" width="720pt" xmlns="http://www.w3.org/2000/svg" xmlns:xlink="http://www.w3.org/1999/xlink">
 <defs>
  <style type="text/css">
*{stroke-linecap:butt;stroke-linejoin:round;}
  </style>
 </defs>
 <g id="figure_1">
  <g id="patch_1">
   <path d="M 0 360 
L 720 360 
L 720 0 
L 0 0 
z
" style="fill:#ffffff;"/>
  </g>
  <g id="axes_1">
   <g id="patch_2">
    <path d="M 90 315 
L 648 315 
L 648 43.2 
L 90 43.2 
z
" style="fill:#ffffff;"/>
   </g>
   <g id="matplotlib.axis_1">
    <g id="xtick_1">
     <g id="line2d_1">
      <path clip-path="url(#p028e8ca999)" d="M 115.363636 315 
L 115.363636 43.2 
" style="fill:none;stroke:#b0b0b0;stroke-linecap:square;stroke-width:0.8;"/>
     </g>
     <g id="line2d_2">
      <defs>
       <path d="M 0 0 
L 0 3.5 
" id="m1c1a01cec4" style="stroke:#000000;stroke-width:0.8;"/>
      </defs>
      <g>
       <use style="stroke:#000000;stroke-width:0.8;" x="115.363636" xlink:href="#m1c1a01cec4" y="315"/>
      </g>
     </g>
     <g id="text_1">
      <!-- 0 -->
      <defs>
       <path d="M 31.78125 66.40625 
Q 24.171875 66.40625 20.328125 58.90625 
Q 16.5 51.421875 16.5 36.375 
Q 16.5 21.390625 20.328125 13.890625 
Q 24.171875 6.390625 31.78125 6.390625 
Q 39.453125 6.390625 43.28125 13.890625 
Q 47.125 21.390625 47.125 36.375 
Q 47.125 51.421875 43.28125 58.90625 
Q 39.453125 66.40625 31.78125 66.40625 
z
M 31.78125 74.21875 
Q 44.046875 74.21875 50.515625 64.515625 
Q 56.984375 54.828125 56.984375 36.375 
Q 56.984375 17.96875 50.515625 8.265625 
Q 44.046875 -1.421875 31.78125 -1.421875 
Q 19.53125 -1.421875 13.0625 8.265625 
Q 6.59375 17.96875 6.59375 36.375 
Q 6.59375 54.828125 13.0625 64.515625 
Q 19.53125 74.21875 31.78125 74.21875 
z
" id="DejaVuSans-48"/>
      </defs>
      <g transform="translate(112.182386 329.598437)scale(0.1 -0.1)">
       <use xlink:href="#DejaVuSans-48"/>
      </g>
     </g>
    </g>
    <g id="xtick_2">
     <g id="line2d_3">
      <path clip-path="url(#p028e8ca999)" d="M 197.313996 315 
L 197.313996 43.2 
" style="fill:none;stroke:#b0b0b0;stroke-linecap:square;stroke-width:0.8;"/>
     </g>
     <g id="line2d_4">
      <g>
       <use style="stroke:#000000;stroke-width:0.8;" x="197.313996" xlink:href="#m1c1a01cec4" y="315"/>
      </g>
     </g>
     <g id="text_2">
      <!-- 100 -->
      <defs>
       <path d="M 12.40625 8.296875 
L 28.515625 8.296875 
L 28.515625 63.921875 
L 10.984375 60.40625 
L 10.984375 69.390625 
L 28.421875 72.90625 
L 38.28125 72.90625 
L 38.28125 8.296875 
L 54.390625 8.296875 
L 54.390625 0 
L 12.40625 0 
z
" id="DejaVuSans-49"/>
      </defs>
      <g transform="translate(187.770246 329.598437)scale(0.1 -0.1)">
       <use xlink:href="#DejaVuSans-49"/>
       <use x="63.623047" xlink:href="#DejaVuSans-48"/>
       <use x="127.246094" xlink:href="#DejaVuSans-48"/>
      </g>
     </g>
    </g>
    <g id="xtick_3">
     <g id="line2d_5">
      <path clip-path="url(#p028e8ca999)" d="M 279.264356 315 
L 279.264356 43.2 
" style="fill:none;stroke:#b0b0b0;stroke-linecap:square;stroke-width:0.8;"/>
     </g>
     <g id="line2d_6">
      <g>
       <use style="stroke:#000000;stroke-width:0.8;" x="279.264356" xlink:href="#m1c1a01cec4" y="315"/>
      </g>
     </g>
     <g id="text_3">
      <!-- 200 -->
      <defs>
       <path d="M 19.1875 8.296875 
L 53.609375 8.296875 
L 53.609375 0 
L 7.328125 0 
L 7.328125 8.296875 
Q 12.9375 14.109375 22.625 23.890625 
Q 32.328125 33.6875 34.8125 36.53125 
Q 39.546875 41.84375 41.421875 45.53125 
Q 43.3125 49.21875 43.3125 52.78125 
Q 43.3125 58.59375 39.234375 62.25 
Q 35.15625 65.921875 28.609375 65.921875 
Q 23.96875 65.921875 18.8125 64.3125 
Q 13.671875 62.703125 7.8125 59.421875 
L 7.8125 69.390625 
Q 13.765625 71.78125 18.9375 73 
Q 24.125 74.21875 28.421875 74.21875 
Q 39.75 74.21875 46.484375 68.546875 
Q 53.21875 62.890625 53.21875 53.421875 
Q 53.21875 48.921875 51.53125 44.890625 
Q 49.859375 40.875 45.40625 35.40625 
Q 44.1875 33.984375 37.640625 27.21875 
Q 31.109375 20.453125 19.1875 8.296875 
z
" id="DejaVuSans-50"/>
      </defs>
      <g transform="translate(269.720606 329.598437)scale(0.1 -0.1)">
       <use xlink:href="#DejaVuSans-50"/>
       <use x="63.623047" xlink:href="#DejaVuSans-48"/>
       <use x="127.246094" xlink:href="#DejaVuSans-48"/>
      </g>
     </g>
    </g>
    <g id="xtick_4">
     <g id="line2d_7">
      <path clip-path="url(#p028e8ca999)" d="M 361.214716 315 
L 361.214716 43.2 
" style="fill:none;stroke:#b0b0b0;stroke-linecap:square;stroke-width:0.8;"/>
     </g>
     <g id="line2d_8">
      <g>
       <use style="stroke:#000000;stroke-width:0.8;" x="361.214716" xlink:href="#m1c1a01cec4" y="315"/>
      </g>
     </g>
     <g id="text_4">
      <!-- 300 -->
      <defs>
       <path d="M 40.578125 39.3125 
Q 47.65625 37.796875 51.625 33 
Q 55.609375 28.21875 55.609375 21.1875 
Q 55.609375 10.40625 48.1875 4.484375 
Q 40.765625 -1.421875 27.09375 -1.421875 
Q 22.515625 -1.421875 17.65625 -0.515625 
Q 12.796875 0.390625 7.625 2.203125 
L 7.625 11.71875 
Q 11.71875 9.328125 16.59375 8.109375 
Q 21.484375 6.890625 26.8125 6.890625 
Q 36.078125 6.890625 40.9375 10.546875 
Q 45.796875 14.203125 45.796875 21.1875 
Q 45.796875 27.640625 41.28125 31.265625 
Q 36.765625 34.90625 28.71875 34.90625 
L 20.21875 34.90625 
L 20.21875 43.015625 
L 29.109375 43.015625 
Q 36.375 43.015625 40.234375 45.921875 
Q 44.09375 48.828125 44.09375 54.296875 
Q 44.09375 59.90625 40.109375 62.90625 
Q 36.140625 65.921875 28.71875 65.921875 
Q 24.65625 65.921875 20.015625 65.03125 
Q 15.375 64.15625 9.8125 62.3125 
L 9.8125 71.09375 
Q 15.4375 72.65625 20.34375 73.4375 
Q 25.25 74.21875 29.59375 74.21875 
Q 40.828125 74.21875 47.359375 69.109375 
Q 53.90625 64.015625 53.90625 55.328125 
Q 53.90625 49.265625 50.4375 45.09375 
Q 46.96875 40.921875 40.578125 39.3125 
z
" id="DejaVuSans-51"/>
      </defs>
      <g transform="translate(351.670966 329.598437)scale(0.1 -0.1)">
       <use xlink:href="#DejaVuSans-51"/>
       <use x="63.623047" xlink:href="#DejaVuSans-48"/>
       <use x="127.246094" xlink:href="#DejaVuSans-48"/>
      </g>
     </g>
    </g>
    <g id="xtick_5">
     <g id="line2d_9">
      <path clip-path="url(#p028e8ca999)" d="M 443.165076 315 
L 443.165076 43.2 
" style="fill:none;stroke:#b0b0b0;stroke-linecap:square;stroke-width:0.8;"/>
     </g>
     <g id="line2d_10">
      <g>
       <use style="stroke:#000000;stroke-width:0.8;" x="443.165076" xlink:href="#m1c1a01cec4" y="315"/>
      </g>
     </g>
     <g id="text_5">
      <!-- 400 -->
      <defs>
       <path d="M 37.796875 64.3125 
L 12.890625 25.390625 
L 37.796875 25.390625 
z
M 35.203125 72.90625 
L 47.609375 72.90625 
L 47.609375 25.390625 
L 58.015625 25.390625 
L 58.015625 17.1875 
L 47.609375 17.1875 
L 47.609375 0 
L 37.796875 0 
L 37.796875 17.1875 
L 4.890625 17.1875 
L 4.890625 26.703125 
z
" id="DejaVuSans-52"/>
      </defs>
      <g transform="translate(433.621326 329.598437)scale(0.1 -0.1)">
       <use xlink:href="#DejaVuSans-52"/>
       <use x="63.623047" xlink:href="#DejaVuSans-48"/>
       <use x="127.246094" xlink:href="#DejaVuSans-48"/>
      </g>
     </g>
    </g>
    <g id="xtick_6">
     <g id="line2d_11">
      <path clip-path="url(#p028e8ca999)" d="M 525.115435 315 
L 525.115435 43.2 
" style="fill:none;stroke:#b0b0b0;stroke-linecap:square;stroke-width:0.8;"/>
     </g>
     <g id="line2d_12">
      <g>
       <use style="stroke:#000000;stroke-width:0.8;" x="525.115435" xlink:href="#m1c1a01cec4" y="315"/>
      </g>
     </g>
     <g id="text_6">
      <!-- 500 -->
      <defs>
       <path d="M 10.796875 72.90625 
L 49.515625 72.90625 
L 49.515625 64.59375 
L 19.828125 64.59375 
L 19.828125 46.734375 
Q 21.96875 47.46875 24.109375 47.828125 
Q 26.265625 48.1875 28.421875 48.1875 
Q 40.625 48.1875 47.75 41.5 
Q 54.890625 34.8125 54.890625 23.390625 
Q 54.890625 11.625 47.5625 5.09375 
Q 40.234375 -1.421875 26.90625 -1.421875 
Q 22.3125 -1.421875 17.546875 -0.640625 
Q 12.796875 0.140625 7.71875 1.703125 
L 7.71875 11.625 
Q 12.109375 9.234375 16.796875 8.0625 
Q 21.484375 6.890625 26.703125 6.890625 
Q 35.15625 6.890625 40.078125 11.328125 
Q 45.015625 15.765625 45.015625 23.390625 
Q 45.015625 31 40.078125 35.4375 
Q 35.15625 39.890625 26.703125 39.890625 
Q 22.75 39.890625 18.8125 39.015625 
Q 14.890625 38.140625 10.796875 36.28125 
z
" id="DejaVuSans-53"/>
      </defs>
      <g transform="translate(515.571685 329.598437)scale(0.1 -0.1)">
       <use xlink:href="#DejaVuSans-53"/>
       <use x="63.623047" xlink:href="#DejaVuSans-48"/>
       <use x="127.246094" xlink:href="#DejaVuSans-48"/>
      </g>
     </g>
    </g>
    <g id="xtick_7">
     <g id="line2d_13">
      <path clip-path="url(#p028e8ca999)" d="M 607.065795 315 
L 607.065795 43.2 
" style="fill:none;stroke:#b0b0b0;stroke-linecap:square;stroke-width:0.8;"/>
     </g>
     <g id="line2d_14">
      <g>
       <use style="stroke:#000000;stroke-width:0.8;" x="607.065795" xlink:href="#m1c1a01cec4" y="315"/>
      </g>
     </g>
     <g id="text_7">
      <!-- 600 -->
      <defs>
       <path d="M 33.015625 40.375 
Q 26.375 40.375 22.484375 35.828125 
Q 18.609375 31.296875 18.609375 23.390625 
Q 18.609375 15.53125 22.484375 10.953125 
Q 26.375 6.390625 33.015625 6.390625 
Q 39.65625 6.390625 43.53125 10.953125 
Q 47.40625 15.53125 47.40625 23.390625 
Q 47.40625 31.296875 43.53125 35.828125 
Q 39.65625 40.375 33.015625 40.375 
z
M 52.59375 71.296875 
L 52.59375 62.3125 
Q 48.875 64.0625 45.09375 64.984375 
Q 41.3125 65.921875 37.59375 65.921875 
Q 27.828125 65.921875 22.671875 59.328125 
Q 17.53125 52.734375 16.796875 39.40625 
Q 19.671875 43.65625 24.015625 45.921875 
Q 28.375 48.1875 33.59375 48.1875 
Q 44.578125 48.1875 50.953125 41.515625 
Q 57.328125 34.859375 57.328125 23.390625 
Q 57.328125 12.15625 50.6875 5.359375 
Q 44.046875 -1.421875 33.015625 -1.421875 
Q 20.359375 -1.421875 13.671875 8.265625 
Q 6.984375 17.96875 6.984375 36.375 
Q 6.984375 53.65625 15.1875 63.9375 
Q 23.390625 74.21875 37.203125 74.21875 
Q 40.921875 74.21875 44.703125 73.484375 
Q 48.484375 72.75 52.59375 71.296875 
z
" id="DejaVuSans-54"/>
      </defs>
      <g transform="translate(597.522045 329.598437)scale(0.1 -0.1)">
       <use xlink:href="#DejaVuSans-54"/>
       <use x="63.623047" xlink:href="#DejaVuSans-48"/>
       <use x="127.246094" xlink:href="#DejaVuSans-48"/>
      </g>
     </g>
    </g>
    <g id="text_8">
     <!-- epoch -->
     <defs>
      <path d="M 56.203125 29.59375 
L 56.203125 25.203125 
L 14.890625 25.203125 
Q 15.484375 15.921875 20.484375 11.0625 
Q 25.484375 6.203125 34.421875 6.203125 
Q 39.59375 6.203125 44.453125 7.46875 
Q 49.3125 8.734375 54.109375 11.28125 
L 54.109375 2.78125 
Q 49.265625 0.734375 44.1875 -0.34375 
Q 39.109375 -1.421875 33.890625 -1.421875 
Q 20.796875 -1.421875 13.15625 6.1875 
Q 5.515625 13.8125 5.515625 26.8125 
Q 5.515625 40.234375 12.765625 48.109375 
Q 20.015625 56 32.328125 56 
Q 43.359375 56 49.78125 48.890625 
Q 56.203125 41.796875 56.203125 29.59375 
z
M 47.21875 32.234375 
Q 47.125 39.59375 43.09375 43.984375 
Q 39.0625 48.390625 32.421875 48.390625 
Q 24.90625 48.390625 20.390625 44.140625 
Q 15.875 39.890625 15.1875 32.171875 
z
" id="DejaVuSans-101"/>
      <path d="M 18.109375 8.203125 
L 18.109375 -20.796875 
L 9.078125 -20.796875 
L 9.078125 54.6875 
L 18.109375 54.6875 
L 18.109375 46.390625 
Q 20.953125 51.265625 25.265625 53.625 
Q 29.59375 56 35.59375 56 
Q 45.5625 56 51.78125 48.09375 
Q 58.015625 40.1875 58.015625 27.296875 
Q 58.015625 14.40625 51.78125 6.484375 
Q 45.5625 -1.421875 35.59375 -1.421875 
Q 29.59375 -1.421875 25.265625 0.953125 
Q 20.953125 3.328125 18.109375 8.203125 
z
M 48.6875 27.296875 
Q 48.6875 37.203125 44.609375 42.84375 
Q 40.53125 48.484375 33.40625 48.484375 
Q 26.265625 48.484375 22.1875 42.84375 
Q 18.109375 37.203125 18.109375 27.296875 
Q 18.109375 17.390625 22.1875 11.75 
Q 26.265625 6.109375 33.40625 6.109375 
Q 40.53125 6.109375 44.609375 11.75 
Q 48.6875 17.390625 48.6875 27.296875 
z
" id="DejaVuSans-112"/>
      <path d="M 30.609375 48.390625 
Q 23.390625 48.390625 19.1875 42.75 
Q 14.984375 37.109375 14.984375 27.296875 
Q 14.984375 17.484375 19.15625 11.84375 
Q 23.34375 6.203125 30.609375 6.203125 
Q 37.796875 6.203125 41.984375 11.859375 
Q 46.1875 17.53125 46.1875 27.296875 
Q 46.1875 37.015625 41.984375 42.703125 
Q 37.796875 48.390625 30.609375 48.390625 
z
M 30.609375 56 
Q 42.328125 56 49.015625 48.375 
Q 55.71875 40.765625 55.71875 27.296875 
Q 55.71875 13.875 49.015625 6.21875 
Q 42.328125 -1.421875 30.609375 -1.421875 
Q 18.84375 -1.421875 12.171875 6.21875 
Q 5.515625 13.875 5.515625 27.296875 
Q 5.515625 40.765625 12.171875 48.375 
Q 18.84375 56 30.609375 56 
z
" id="DejaVuSans-111"/>
      <path d="M 48.78125 52.59375 
L 48.78125 44.1875 
Q 44.96875 46.296875 41.140625 47.34375 
Q 37.3125 48.390625 33.40625 48.390625 
Q 24.65625 48.390625 19.8125 42.84375 
Q 14.984375 37.3125 14.984375 27.296875 
Q 14.984375 17.28125 19.8125 11.734375 
Q 24.65625 6.203125 33.40625 6.203125 
Q 37.3125 6.203125 41.140625 7.25 
Q 44.96875 8.296875 48.78125 10.40625 
L 48.78125 2.09375 
Q 45.015625 0.34375 40.984375 -0.53125 
Q 36.96875 -1.421875 32.421875 -1.421875 
Q 20.0625 -1.421875 12.78125 6.34375 
Q 5.515625 14.109375 5.515625 27.296875 
Q 5.515625 40.671875 12.859375 48.328125 
Q 20.21875 56 33.015625 56 
Q 37.15625 56 41.109375 55.140625 
Q 45.0625 54.296875 48.78125 52.59375 
z
" id="DejaVuSans-99"/>
      <path d="M 54.890625 33.015625 
L 54.890625 0 
L 45.90625 0 
L 45.90625 32.71875 
Q 45.90625 40.484375 42.875 44.328125 
Q 39.84375 48.1875 33.796875 48.1875 
Q 26.515625 48.1875 22.3125 43.546875 
Q 18.109375 38.921875 18.109375 30.90625 
L 18.109375 0 
L 9.078125 0 
L 9.078125 75.984375 
L 18.109375 75.984375 
L 18.109375 46.1875 
Q 21.34375 51.125 25.703125 53.5625 
Q 30.078125 56 35.796875 56 
Q 45.21875 56 50.046875 50.171875 
Q 54.890625 44.34375 54.890625 33.015625 
z
" id="DejaVuSans-104"/>
     </defs>
     <g transform="translate(353.771875 343.276563)scale(0.1 -0.1)">
      <use xlink:href="#DejaVuSans-101"/>
      <use x="61.523438" xlink:href="#DejaVuSans-112"/>
      <use x="125" xlink:href="#DejaVuSans-111"/>
      <use x="186.181641" xlink:href="#DejaVuSans-99"/>
      <use x="241.162109" xlink:href="#DejaVuSans-104"/>
     </g>
    </g>
   </g>
   <g id="matplotlib.axis_2">
    <g id="ytick_1">
     <g id="line2d_15">
      <path clip-path="url(#p028e8ca999)" d="M 90 282.398522 
L 648 282.398522 
" style="fill:none;stroke:#b0b0b0;stroke-linecap:square;stroke-width:0.8;"/>
     </g>
     <g id="line2d_16">
      <defs>
       <path d="M 0 0 
L -3.5 0 
" id="mffeb6ddb4a" style="stroke:#000000;stroke-width:0.8;"/>
      </defs>
      <g>
       <use style="stroke:#000000;stroke-width:0.8;" x="90" xlink:href="#mffeb6ddb4a" y="282.398522"/>
      </g>
     </g>
     <g id="text_9">
      <!-- 0.2 -->
      <defs>
       <path d="M 10.6875 12.40625 
L 21 12.40625 
L 21 0 
L 10.6875 0 
z
" id="DejaVuSans-46"/>
      </defs>
      <g transform="translate(67.096875 286.197741)scale(0.1 -0.1)">
       <use xlink:href="#DejaVuSans-48"/>
       <use x="63.623047" xlink:href="#DejaVuSans-46"/>
       <use x="95.410156" xlink:href="#DejaVuSans-50"/>
      </g>
     </g>
    </g>
    <g id="ytick_2">
     <g id="line2d_17">
      <path clip-path="url(#p028e8ca999)" d="M 90 248.519876 
L 648 248.519876 
" style="fill:none;stroke:#b0b0b0;stroke-linecap:square;stroke-width:0.8;"/>
     </g>
     <g id="line2d_18">
      <g>
       <use style="stroke:#000000;stroke-width:0.8;" x="90" xlink:href="#mffeb6ddb4a" y="248.519876"/>
      </g>
     </g>
     <g id="text_10">
      <!-- 0.4 -->
      <g transform="translate(67.096875 252.319094)scale(0.1 -0.1)">
       <use xlink:href="#DejaVuSans-48"/>
       <use x="63.623047" xlink:href="#DejaVuSans-46"/>
       <use x="95.410156" xlink:href="#DejaVuSans-52"/>
      </g>
     </g>
    </g>
    <g id="ytick_3">
     <g id="line2d_19">
      <path clip-path="url(#p028e8ca999)" d="M 90 214.641229 
L 648 214.641229 
" style="fill:none;stroke:#b0b0b0;stroke-linecap:square;stroke-width:0.8;"/>
     </g>
     <g id="line2d_20">
      <g>
       <use style="stroke:#000000;stroke-width:0.8;" x="90" xlink:href="#mffeb6ddb4a" y="214.641229"/>
      </g>
     </g>
     <g id="text_11">
      <!-- 0.6 -->
      <g transform="translate(67.096875 218.440448)scale(0.1 -0.1)">
       <use xlink:href="#DejaVuSans-48"/>
       <use x="63.623047" xlink:href="#DejaVuSans-46"/>
       <use x="95.410156" xlink:href="#DejaVuSans-54"/>
      </g>
     </g>
    </g>
    <g id="ytick_4">
     <g id="line2d_21">
      <path clip-path="url(#p028e8ca999)" d="M 90 180.762583 
L 648 180.762583 
" style="fill:none;stroke:#b0b0b0;stroke-linecap:square;stroke-width:0.8;"/>
     </g>
     <g id="line2d_22">
      <g>
       <use style="stroke:#000000;stroke-width:0.8;" x="90" xlink:href="#mffeb6ddb4a" y="180.762583"/>
      </g>
     </g>
     <g id="text_12">
      <!-- 0.8 -->
      <defs>
       <path d="M 31.78125 34.625 
Q 24.75 34.625 20.71875 30.859375 
Q 16.703125 27.09375 16.703125 20.515625 
Q 16.703125 13.921875 20.71875 10.15625 
Q 24.75 6.390625 31.78125 6.390625 
Q 38.8125 6.390625 42.859375 10.171875 
Q 46.921875 13.96875 46.921875 20.515625 
Q 46.921875 27.09375 42.890625 30.859375 
Q 38.875 34.625 31.78125 34.625 
z
M 21.921875 38.8125 
Q 15.578125 40.375 12.03125 44.71875 
Q 8.5 49.078125 8.5 55.328125 
Q 8.5 64.0625 14.71875 69.140625 
Q 20.953125 74.21875 31.78125 74.21875 
Q 42.671875 74.21875 48.875 69.140625 
Q 55.078125 64.0625 55.078125 55.328125 
Q 55.078125 49.078125 51.53125 44.71875 
Q 48 40.375 41.703125 38.8125 
Q 48.828125 37.15625 52.796875 32.3125 
Q 56.78125 27.484375 56.78125 20.515625 
Q 56.78125 9.90625 50.3125 4.234375 
Q 43.84375 -1.421875 31.78125 -1.421875 
Q 19.734375 -1.421875 13.25 4.234375 
Q 6.78125 9.90625 6.78125 20.515625 
Q 6.78125 27.484375 10.78125 32.3125 
Q 14.796875 37.15625 21.921875 38.8125 
z
M 18.3125 54.390625 
Q 18.3125 48.734375 21.84375 45.5625 
Q 25.390625 42.390625 31.78125 42.390625 
Q 38.140625 42.390625 41.71875 45.5625 
Q 45.3125 48.734375 45.3125 54.390625 
Q 45.3125 60.0625 41.71875 63.234375 
Q 38.140625 66.40625 31.78125 66.40625 
Q 25.390625 66.40625 21.84375 63.234375 
Q 18.3125 60.0625 18.3125 54.390625 
z
" id="DejaVuSans-56"/>
      </defs>
      <g transform="translate(67.096875 184.561802)scale(0.1 -0.1)">
       <use xlink:href="#DejaVuSans-48"/>
       <use x="63.623047" xlink:href="#DejaVuSans-46"/>
       <use x="95.410156" xlink:href="#DejaVuSans-56"/>
      </g>
     </g>
    </g>
    <g id="ytick_5">
     <g id="line2d_23">
      <path clip-path="url(#p028e8ca999)" d="M 90 146.883937 
L 648 146.883937 
" style="fill:none;stroke:#b0b0b0;stroke-linecap:square;stroke-width:0.8;"/>
     </g>
     <g id="line2d_24">
      <g>
       <use style="stroke:#000000;stroke-width:0.8;" x="90" xlink:href="#mffeb6ddb4a" y="146.883937"/>
      </g>
     </g>
     <g id="text_13">
      <!-- 1.0 -->
      <g transform="translate(67.096875 150.683156)scale(0.1 -0.1)">
       <use xlink:href="#DejaVuSans-49"/>
       <use x="63.623047" xlink:href="#DejaVuSans-46"/>
       <use x="95.410156" xlink:href="#DejaVuSans-48"/>
      </g>
     </g>
    </g>
    <g id="ytick_6">
     <g id="line2d_25">
      <path clip-path="url(#p028e8ca999)" d="M 90 113.005291 
L 648 113.005291 
" style="fill:none;stroke:#b0b0b0;stroke-linecap:square;stroke-width:0.8;"/>
     </g>
     <g id="line2d_26">
      <g>
       <use style="stroke:#000000;stroke-width:0.8;" x="90" xlink:href="#mffeb6ddb4a" y="113.005291"/>
      </g>
     </g>
     <g id="text_14">
      <!-- 1.2 -->
      <g transform="translate(67.096875 116.804509)scale(0.1 -0.1)">
       <use xlink:href="#DejaVuSans-49"/>
       <use x="63.623047" xlink:href="#DejaVuSans-46"/>
       <use x="95.410156" xlink:href="#DejaVuSans-50"/>
      </g>
     </g>
    </g>
    <g id="ytick_7">
     <g id="line2d_27">
      <path clip-path="url(#p028e8ca999)" d="M 90 79.126644 
L 648 79.126644 
" style="fill:none;stroke:#b0b0b0;stroke-linecap:square;stroke-width:0.8;"/>
     </g>
     <g id="line2d_28">
      <g>
       <use style="stroke:#000000;stroke-width:0.8;" x="90" xlink:href="#mffeb6ddb4a" y="79.126644"/>
      </g>
     </g>
     <g id="text_15">
      <!-- 1.4 -->
      <g transform="translate(67.096875 82.925863)scale(0.1 -0.1)">
       <use xlink:href="#DejaVuSans-49"/>
       <use x="63.623047" xlink:href="#DejaVuSans-46"/>
       <use x="95.410156" xlink:href="#DejaVuSans-52"/>
      </g>
     </g>
    </g>
    <g id="ytick_8">
     <g id="line2d_29">
      <path clip-path="url(#p028e8ca999)" d="M 90 45.247998 
L 648 45.247998 
" style="fill:none;stroke:#b0b0b0;stroke-linecap:square;stroke-width:0.8;"/>
     </g>
     <g id="line2d_30">
      <g>
       <use style="stroke:#000000;stroke-width:0.8;" x="90" xlink:href="#mffeb6ddb4a" y="45.247998"/>
      </g>
     </g>
     <g id="text_16">
      <!-- 1.6 -->
      <g transform="translate(67.096875 49.047217)scale(0.1 -0.1)">
       <use xlink:href="#DejaVuSans-49"/>
       <use x="63.623047" xlink:href="#DejaVuSans-46"/>
       <use x="95.410156" xlink:href="#DejaVuSans-54"/>
      </g>
     </g>
    </g>
    <g id="text_17">
     <!-- loss -->
     <defs>
      <path d="M 9.421875 75.984375 
L 18.40625 75.984375 
L 18.40625 0 
L 9.421875 0 
z
" id="DejaVuSans-108"/>
      <path d="M 44.28125 53.078125 
L 44.28125 44.578125 
Q 40.484375 46.53125 36.375 47.5 
Q 32.28125 48.484375 27.875 48.484375 
Q 21.1875 48.484375 17.84375 46.4375 
Q 14.5 44.390625 14.5 40.28125 
Q 14.5 37.15625 16.890625 35.375 
Q 19.28125 33.59375 26.515625 31.984375 
L 29.59375 31.296875 
Q 39.15625 29.25 43.1875 25.515625 
Q 47.21875 21.78125 47.21875 15.09375 
Q 47.21875 7.46875 41.1875 3.015625 
Q 35.15625 -1.421875 24.609375 -1.421875 
Q 20.21875 -1.421875 15.453125 -0.5625 
Q 10.6875 0.296875 5.421875 2 
L 5.421875 11.28125 
Q 10.40625 8.6875 15.234375 7.390625 
Q 20.0625 6.109375 24.8125 6.109375 
Q 31.15625 6.109375 34.5625 8.28125 
Q 37.984375 10.453125 37.984375 14.40625 
Q 37.984375 18.0625 35.515625 20.015625 
Q 33.0625 21.96875 24.703125 23.78125 
L 21.578125 24.515625 
Q 13.234375 26.265625 9.515625 29.90625 
Q 5.8125 33.546875 5.8125 39.890625 
Q 5.8125 47.609375 11.28125 51.796875 
Q 16.75 56 26.8125 56 
Q 31.78125 56 36.171875 55.265625 
Q 40.578125 54.546875 44.28125 53.078125 
z
" id="DejaVuSans-115"/>
     </defs>
     <g transform="translate(61.017187 188.757812)rotate(-90)scale(0.1 -0.1)">
      <use xlink:href="#DejaVuSans-108"/>
      <use x="27.783203" xlink:href="#DejaVuSans-111"/>
      <use x="88.964844" xlink:href="#DejaVuSans-115"/>
      <use x="141.064453" xlink:href="#DejaVuSans-115"/>
     </g>
    </g>
   </g>
   <g id="line2d_31">
    <path clip-path="url(#p028e8ca999)" d="M 115.363636 55.554545 
L 116.18314 69.967952 
L 117.002644 74.846834 
L 117.822147 80.763061 
L 118.641651 85.661066 
L 119.461154 88.064594 
L 121.100162 93.918026 
L 121.919665 96.296198 
L 122.739169 100.343876 
L 123.558672 101.40431 
L 124.378176 106.026717 
L 126.836687 114.405754 
L 127.65619 117.921943 
L 128.475694 120.642392 
L 129.295198 124.066189 
L 130.114701 128.441569 
L 130.934205 131.69853 
L 131.753708 135.737479 
L 132.573212 137.937826 
L 133.392716 140.959853 
L 134.212219 146.909655 
L 135.031723 149.021594 
L 135.851226 152.8131 
L 136.67073 158.82707 
L 137.490234 162.989384 
L 138.309737 165.698732 
L 139.948744 173.176268 
L 140.768248 177.869745 
L 141.587752 179.477602 
L 142.407255 185.131335 
L 143.226759 186.633698 
L 144.046262 191.836296 
L 145.685269 195.73682 
L 146.504773 198.963165 
L 147.324277 203.5615 
L 148.963284 208.275376 
L 149.782787 212.08998 
L 152.241298 217.432999 
L 153.060802 220.651039 
L 153.880305 222.736752 
L 154.699809 223.612703 
L 155.519313 224.86033 
L 156.338816 227.493389 
L 157.15832 225.769149 
L 157.977823 230.559975 
L 158.797327 230.166884 
L 159.616831 232.412879 
L 161.255838 233.339564 
L 162.075341 235.356206 
L 162.894845 235.315086 
L 163.714349 236.785413 
L 164.533852 239.501899 
L 165.353356 240.216623 
L 166.172859 240.370335 
L 166.992363 241.721873 
L 167.811867 241.804314 
L 168.63137 243.301534 
L 169.450874 242.86352 
L 170.270377 245.06826 
L 171.089881 246.799466 
L 171.909385 247.630456 
L 172.728888 247.884716 
L 173.548392 249.227346 
L 174.367895 247.564105 
L 175.187399 250.198679 
L 176.006903 250.262432 
L 176.826406 252.012834 
L 177.64591 252.673211 
L 178.465413 254.550796 
L 179.284917 252.070806 
L 180.104421 251.69099 
L 180.923924 253.555772 
L 181.743428 254.474682 
L 182.562931 254.603485 
L 183.382435 257.402512 
L 184.201939 257.227671 
L 185.021442 256.931266 
L 185.840946 258.066499 
L 186.660449 259.679611 
L 187.479953 259.260209 
L 188.299457 259.704348 
L 189.11896 259.145606 
L 189.938464 259.632148 
L 190.757967 260.911239 
L 191.577471 261.582628 
L 193.216478 261.639517 
L 194.035982 263.51272 
L 194.855485 264.20261 
L 195.674989 265.631476 
L 196.494493 264.9684 
L 197.313996 266.171119 
L 198.1335 266.521896 
L 198.953003 267.590934 
L 199.772507 265.774509 
L 200.592011 267.982179 
L 201.411514 267.160168 
L 202.231018 267.819028 
L 203.050521 267.739781 
L 203.870025 268.831058 
L 206.328536 270.055128 
L 207.148039 268.673886 
L 207.967543 271.138177 
L 208.787047 271.6507 
L 209.60655 270.88166 
L 210.426054 270.322661 
L 212.065061 273.019663 
L 212.884565 271.844055 
L 213.704068 274.503373 
L 214.523572 272.6048 
L 215.343075 271.811593 
L 216.162579 272.289337 
L 216.982083 274.662991 
L 217.801586 274.72753 
L 218.62109 274.542779 
L 219.440593 275.335124 
L 220.260097 274.063779 
L 221.079601 273.575713 
L 221.899104 276.554339 
L 222.718608 274.029145 
L 223.538111 276.383877 
L 224.357615 275.206348 
L 225.177119 275.696923 
L 225.996622 276.524283 
L 226.816126 275.238437 
L 227.635629 275.590161 
L 228.455133 274.577113 
L 229.274637 276.899498 
L 230.09414 277.487454 
L 230.913644 275.217083 
L 231.733147 276.699288 
L 232.552651 277.565157 
L 233.372155 279.78677 
L 234.191658 277.942947 
L 235.011162 278.892831 
L 235.830665 277.856838 
L 236.650169 279.618886 
L 237.469672 278.175275 
L 238.289176 279.215719 
L 239.10868 279.871827 
L 239.928183 279.418208 
L 241.56719 279.564381 
L 242.386694 278.766474 
L 243.206198 281.852206 
L 244.025701 280.689902 
L 244.845205 281.849329 
L 245.664708 281.402079 
L 246.484212 281.465597 
L 247.303716 282.445799 
L 248.123219 281.222323 
L 248.942723 280.385799 
L 249.762226 281.282908 
L 250.58173 281.118084 
L 251.401234 279.944155 
L 252.220737 282.758776 
L 253.040241 283.294515 
L 253.859744 284.134484 
L 254.679248 280.891807 
L 255.498752 283.112302 
L 256.318255 281.716875 
L 257.137759 284.265842 
L 257.957262 281.894335 
L 258.776766 284.033464 
L 259.59627 283.118226 
L 260.415773 282.969474 
L 261.235277 283.925327 
L 262.05478 283.845794 
L 262.874284 281.874091 
L 263.693788 285.319869 
L 265.332795 282.607888 
L 266.152298 284.96663 
L 266.971802 283.072331 
L 267.791306 284.486383 
L 268.610809 284.392408 
L 269.430313 284.65837 
L 270.249816 283.413544 
L 271.06932 284.804571 
L 271.888824 284.778929 
L 272.708327 285.638667 
L 273.527831 284.69228 
L 274.347334 285.336482 
L 275.166838 285.808874 
L 275.986342 284.63581 
L 276.805845 286.611168 
L 277.625349 286.132756 
L 278.444852 287.501601 
L 279.264356 284.947378 
L 280.08386 285.452935 
L 280.903363 286.262382 
L 281.722867 288.125885 
L 282.54237 285.229167 
L 283.361874 286.744376 
L 284.181378 285.89214 
L 285.000881 285.309829 
L 285.820385 286.38727 
L 286.639888 286.624701 
L 287.459392 287.192455 
L 288.278896 287.553647 
L 289.098399 286.630179 
L 289.917903 288.373987 
L 291.55691 288.702515 
L 292.376414 288.869381 
L 293.195917 287.150701 
L 294.015421 287.151143 
L 294.834924 288.681066 
L 295.654428 286.509836 
L 296.473932 287.63806 
L 297.293435 287.417857 
L 298.932442 289.298933 
L 299.751946 289.310517 
L 300.57145 288.289767 
L 301.390953 288.621809 
L 302.210457 287.463372 
L 303.02996 288.471611 
L 303.849464 290.248798 
L 305.488471 287.619074 
L 306.307975 288.732858 
L 307.127478 288.478309 
L 307.946982 288.699897 
L 308.766486 289.435978 
L 309.585989 287.503369 
L 310.405493 288.106554 
L 311.224996 288.124888 
L 312.0445 289.112007 
L 312.864004 289.846708 
L 314.503011 288.872786 
L 315.322514 290.189923 
L 316.142018 290.071338 
L 316.961522 291.254291 
L 317.781025 289.417191 
L 318.600529 291.745813 
L 320.239536 290.173717 
L 321.05904 289.584818 
L 321.878543 289.943353 
L 322.698047 291.493642 
L 323.51755 291.615701 
L 324.337054 291.472782 
L 325.156557 291.787384 
L 325.976061 290.082425 
L 326.795565 291.826334 
L 327.615068 292.657856 
L 328.434572 289.842979 
L 329.254075 289.913065 
L 330.073579 291.809099 
L 330.893083 290.642154 
L 331.712586 291.542316 
L 332.53209 291.683277 
L 333.351593 291.034571 
L 334.171097 289.969847 
L 334.990601 291.341697 
L 335.810104 289.822209 
L 336.629608 291.258435 
L 337.449111 291.842038 
L 338.268615 292.215498 
L 339.088119 291.371469 
L 339.907622 291.530972 
L 340.727126 290.971284 
L 341.546629 289.761764 
L 343.185637 291.117448 
L 344.00514 290.710622 
L 344.824644 291.917364 
L 345.644147 291.033371 
L 346.463651 291.16826 
L 347.283155 290.133176 
L 348.102658 291.785011 
L 348.922162 291.36999 
L 349.741665 290.523059 
L 350.561169 290.501887 
L 351.380673 293.820076 
L 352.200176 292.383846 
L 353.01968 290.17962 
L 353.839183 291.653852 
L 354.658687 291.584691 
L 355.478191 293.045765 
L 356.297694 292.457058 
L 357.117198 291.377931 
L 357.936701 292.513817 
L 358.756205 291.522317 
L 359.575709 293.666738 
L 360.395212 291.37136 
L 361.214716 292.407741 
L 362.034219 290.634401 
L 362.853723 291.438713 
L 363.673227 292.759436 
L 364.49273 293.735425 
L 365.312234 293.146032 
L 366.131737 292.100677 
L 366.951241 292.940731 
L 367.770745 292.673302 
L 368.590248 294.019219 
L 369.409752 294.167207 
L 370.229255 293.814744 
L 371.048759 295.038289 
L 371.868263 293.701253 
L 372.687766 292.659761 
L 373.50727 292.330137 
L 374.326773 293.6984 
L 375.146277 292.623948 
L 375.965781 294.310763 
L 376.785284 292.50551 
L 377.604788 294.13184 
L 378.424291 292.640315 
L 379.243795 294.30979 
L 380.063299 292.360081 
L 380.882802 294.059762 
L 381.702306 293.897877 
L 382.521809 292.781118 
L 383.341313 294.032387 
L 384.160817 294.304531 
L 384.98032 294.002252 
L 385.799824 294.938817 
L 386.619327 293.501535 
L 387.438831 293.538866 
L 388.258335 295.629462 
L 389.077838 294.401998 
L 389.897342 293.492099 
L 390.716845 295.432365 
L 391.536349 295.794804 
L 392.355853 294.731869 
L 393.175356 295.82633 
L 393.99486 295.693024 
L 394.814363 293.502743 
L 395.633867 293.102193 
L 396.453371 293.406878 
L 397.272874 294.681396 
L 398.092378 294.736348 
L 398.911881 293.341813 
L 399.731385 294.269131 
L 400.550889 293.786279 
L 401.370392 292.99789 
L 402.189896 295.027953 
L 403.009399 295.153435 
L 403.828903 295.404714 
L 404.648407 295.45545 
L 405.46791 294.468719 
L 406.287414 295.808377 
L 407.106917 292.663167 
L 407.926421 295.701686 
L 408.745925 294.618865 
L 409.565428 295.486672 
L 410.384932 296.736303 
L 411.204435 295.422952 
L 412.843443 294.055334 
L 413.662946 294.387305 
L 414.48245 293.088428 
L 415.301953 294.857043 
L 416.121457 295.131294 
L 416.94096 294.456131 
L 417.760464 295.912862 
L 418.579968 296.046904 
L 419.399471 295.459345 
L 420.218975 295.233437 
L 421.038478 295.716221 
L 421.857982 295.300887 
L 422.677486 295.644731 
L 423.496989 296.748669 
L 425.135996 294.544026 
L 425.9555 294.82351 
L 426.775004 297.349861 
L 427.594507 295.352251 
L 428.414011 294.923505 
L 429.233514 297.556734 
L 430.053018 295.282542 
L 430.872522 296.581096 
L 431.692025 296.029115 
L 432.511529 297.122852 
L 433.331032 295.351229 
L 434.150536 296.236394 
L 434.97004 295.499099 
L 435.789543 294.97583 
L 436.609047 294.159742 
L 437.42855 297.205316 
L 438.248054 297.050644 
L 439.067558 294.888715 
L 439.887061 294.459719 
L 440.706565 295.955845 
L 441.526068 295.706731 
L 442.345572 295.661606 
L 443.165076 298.22675 
L 443.984579 297.526634 
L 444.804083 296.070736 
L 445.623586 297.061196 
L 446.44309 296.234348 
L 447.262594 298.113301 
L 448.082097 295.888498 
L 448.901601 296.366091 
L 450.540608 294.038114 
L 452.179615 297.119653 
L 452.999119 296.132421 
L 453.818622 295.718671 
L 454.638126 296.808842 
L 455.45763 294.880465 
L 456.277133 296.239064 
L 457.096637 297.105508 
L 457.91614 295.990627 
L 458.735644 296.913488 
L 459.555148 296.049374 
L 460.374651 297.681888 
L 461.194155 298.115057 
L 462.013658 295.605703 
L 462.833162 297.816739 
L 463.652666 297.224647 
L 464.472169 296.434868 
L 466.111176 297.5113 
L 466.93068 297.517658 
L 467.750184 296.304393 
L 468.569687 298.402509 
L 469.389191 297.835359 
L 470.208694 296.17698 
L 471.028198 296.090565 
L 471.847702 298.467614 
L 472.667205 295.963702 
L 473.486709 295.454641 
L 474.306212 298.582058 
L 475.125716 296.528288 
L 476.764723 297.439347 
L 477.584227 298.298068 
L 478.40373 298.065688 
L 479.223234 298.49307 
L 480.042738 296.806176 
L 480.862241 296.687016 
L 481.681745 295.476146 
L 483.320752 297.967621 
L 484.140256 297.098214 
L 484.959759 298.347431 
L 485.779263 297.253845 
L 486.598766 297.080565 
L 487.41827 296.733238 
L 488.237774 296.99812 
L 489.057277 299.157315 
L 489.876781 295.689264 
L 490.696284 295.535754 
L 491.515788 296.822034 
L 492.335292 296.697706 
L 493.154795 297.496535 
L 493.974299 297.581736 
L 494.793802 298.332636 
L 495.613306 298.744273 
L 496.43281 297.022608 
L 497.252313 297.658157 
L 498.071817 299.086661 
L 498.89132 298.965898 
L 499.710824 296.265251 
L 500.530328 297.443475 
L 501.349831 298.172733 
L 502.169335 298.614684 
L 502.988838 297.337972 
L 504.627845 298.595113 
L 505.447349 298.380082 
L 507.086356 298.464095 
L 507.90586 299.41979 
L 508.725363 296.540822 
L 509.544867 298.140277 
L 511.183874 298.873603 
L 512.003378 299.131297 
L 512.822881 298.873249 
L 513.642385 297.567559 
L 515.281392 299.052987 
L 516.100896 298.236495 
L 516.920399 299.21539 
L 517.739903 298.433941 
L 518.559407 299.143464 
L 519.37891 297.910755 
L 520.198414 298.125697 
L 521.017917 297.54873 
L 521.837421 296.822827 
L 522.656925 298.733307 
L 523.476428 299.204186 
L 524.295932 297.403051 
L 525.115435 299.075908 
L 525.934939 298.216144 
L 526.754443 298.549332 
L 527.573946 296.567638 
L 528.39345 297.28004 
L 529.212953 299.228788 
L 530.032457 298.892063 
L 530.851961 299.945544 
L 531.671464 298.819422 
L 532.490968 299.770188 
L 533.310471 297.961979 
L 534.949479 297.99553 
L 535.768982 298.794945 
L 536.588486 297.952489 
L 537.407989 299.170936 
L 538.227493 298.284082 
L 539.046997 299.438137 
L 539.8665 298.405112 
L 540.686004 298.460879 
L 541.505507 299.557124 
L 542.325011 298.939686 
L 543.144515 299.972007 
L 543.964018 298.061303 
L 544.783522 297.644467 
L 545.603025 298.535159 
L 546.422529 298.32498 
L 547.242033 299.338343 
L 548.061536 298.645869 
L 548.88104 300.526166 
L 549.700543 300.908629 
L 550.520047 300.183251 
L 551.339551 300.490741 
L 552.159054 301.359926 
L 552.978558 299.961054 
L 553.798061 299.033724 
L 554.617565 297.679817 
L 555.437069 298.98958 
L 556.256572 301.123416 
L 557.076076 300.527653 
L 557.895579 298.449905 
L 558.715083 297.8304 
L 559.534587 299.348527 
L 560.35409 299.172792 
L 561.173594 297.739461 
L 561.993097 301.279328 
L 562.812601 297.869397 
L 563.632105 299.72273 
L 564.451608 298.525545 
L 565.271112 299.362578 
L 566.090615 297.989858 
L 567.729623 298.512076 
L 568.549126 298.174386 
L 569.36863 300.206046 
L 570.188133 298.658182 
L 571.007637 298.832883 
L 571.827141 299.540171 
L 572.646644 299.471695 
L 573.466148 299.052725 
L 574.285651 298.163746 
L 575.105155 299.661979 
L 575.924659 299.626387 
L 577.563666 301.544745 
L 578.383169 301.603337 
L 579.202673 299.38376 
L 580.84168 301.228623 
L 581.661184 298.946972 
L 582.480687 299.073765 
L 583.300191 299.378972 
L 584.119695 300.613184 
L 584.939198 299.226259 
L 585.758702 299.878897 
L 586.578205 298.357529 
L 587.397709 301.900238 
L 589.036716 299.792869 
L 589.85622 299.807075 
L 590.675723 300.80226 
L 591.495227 299.360223 
L 592.314731 300.304951 
L 593.134234 301.027049 
L 593.953738 299.886259 
L 594.773241 300.21752 
L 595.592745 299.499692 
L 596.412248 300.475887 
L 597.231752 299.501774 
L 598.051256 299.830469 
L 598.870759 300.685773 
L 599.690263 298.722777 
L 600.509766 299.276326 
L 601.32927 298.773315 
L 602.148774 300.621092 
L 602.968277 301.91944 
L 603.787781 300.029442 
L 604.607284 301.090901 
L 605.426788 300.10956 
L 606.246292 300.763718 
L 607.065795 299.679453 
L 607.885299 302.643159 
L 608.704802 300.041269 
L 609.524306 300.497511 
L 610.34381 301.207853 
L 611.163313 300.627724 
L 611.982817 301.802867 
L 612.80232 299.948426 
L 614.441328 300.815646 
L 615.260831 301.490233 
L 616.080335 300.902819 
L 616.899838 299.993939 
L 617.719342 299.776509 
L 618.538846 300.877392 
L 619.358349 299.926987 
L 620.177853 299.204163 
L 620.997356 299.96228 
L 621.81686 300.112697 
L 622.636364 302.645455 
L 622.636364 302.645455 
" style="fill:none;stroke:#1f77b4;stroke-linecap:square;stroke-width:0.5;"/>
   </g>
   <g id="line2d_32">
    <path clip-path="url(#p028e8ca999)" d="M 115.363636 63.841295 
L 116.18314 71.821897 
L 117.002644 74.795591 
L 117.822147 80.434636 
L 118.641651 84.379753 
L 119.461154 85.651614 
L 120.280658 87.802832 
L 121.100162 92.229431 
L 121.919665 94.432279 
L 122.739169 96.31441 
L 123.558672 100.723018 
L 124.378176 103.471146 
L 125.19768 106.930547 
L 126.017183 109.904696 
L 126.836687 111.727757 
L 127.65619 115.312338 
L 128.475694 116.273587 
L 129.295198 119.376076 
L 130.114701 125.962092 
L 130.934205 127.402696 
L 131.753708 132.287447 
L 132.573212 135.377645 
L 133.392716 139.519056 
L 134.212219 144.948897 
L 135.851226 148.790142 
L 137.490234 156.9501 
L 138.309737 164.14008 
L 139.129241 167.535124 
L 139.948744 169.52352 
L 140.768248 174.046921 
L 141.587752 177.86858 
L 142.407255 180.887461 
L 143.226759 184.732773 
L 144.046262 189.361649 
L 144.865766 189.350466 
L 145.685269 197.049045 
L 146.504773 196.595115 
L 147.324277 198.228559 
L 148.14378 204.093643 
L 148.963284 203.997159 
L 149.782787 207.994617 
L 150.602291 211.016026 
L 151.421795 209.545345 
L 152.241298 214.013791 
L 153.060802 215.070901 
L 153.880305 218.044914 
L 154.699809 219.581181 
L 155.519313 219.535527 
L 157.15832 222.902564 
L 157.977823 223.950386 
L 158.797327 227.072261 
L 159.616831 227.483556 
L 160.436334 229.46315 
L 161.255838 227.85746 
L 162.075341 230.513692 
L 162.894845 229.95183 
L 163.714349 232.087776 
L 164.533852 233.586211 
L 165.353356 235.471879 
L 166.172859 236.244394 
L 166.992363 237.537767 
L 167.811867 237.182993 
L 168.63137 237.395911 
L 169.450874 239.508543 
L 170.270377 239.067353 
L 171.089881 241.856117 
L 171.909385 242.17945 
L 172.728888 243.675976 
L 173.548392 243.412246 
L 174.367895 245.558356 
L 175.187399 245.394671 
L 176.826406 246.006385 
L 177.64591 247.339215 
L 178.465413 248.89499 
L 180.104421 247.557106 
L 180.923924 250.094186 
L 181.743428 248.23861 
L 182.562931 248.953167 
L 183.382435 250.988966 
L 184.201939 251.420992 
L 185.021442 253.128375 
L 185.840946 252.440081 
L 186.660449 251.140004 
L 187.479953 252.400443 
L 188.299457 251.90009 
L 189.11896 253.559556 
L 189.938464 256.986366 
L 190.757967 254.137581 
L 191.577471 255.780736 
L 192.396975 254.239541 
L 193.216478 256.966841 
L 194.035982 258.223809 
L 194.855485 257.962694 
L 195.674989 258.512856 
L 196.494493 257.68504 
L 197.313996 258.363957 
L 198.1335 258.655346 
L 198.953003 257.405367 
L 199.772507 259.5768 
L 200.592011 260.911068 
L 201.411514 261.129126 
L 202.231018 261.647549 
L 203.050521 260.626246 
L 203.870025 262.708586 
L 204.689529 261.988034 
L 205.509032 262.232368 
L 206.328536 261.675168 
L 207.148039 261.450896 
L 207.967543 263.050532 
L 208.787047 265.678598 
L 209.60655 264.375214 
L 210.426054 265.849192 
L 211.245557 264.78883 
L 213.704068 265.594654 
L 214.523572 266.745453 
L 215.343075 266.899314 
L 216.162579 266.887536 
L 217.801586 269.006773 
L 218.62109 268.875543 
L 219.440593 267.83433 
L 220.260097 264.989153 
L 221.079601 269.093624 
L 221.899104 268.425797 
L 222.718608 268.592945 
L 223.538111 269.101735 
L 224.357615 268.355419 
L 225.177119 271.195518 
L 225.996622 268.8365 
L 226.816126 269.945622 
L 227.635629 270.103016 
L 228.455133 269.521173 
L 229.274637 271.388475 
L 230.09414 272.588698 
L 230.913644 272.251763 
L 231.733147 270.758296 
L 232.552651 271.530617 
L 233.372155 270.692031 
L 234.191658 272.312377 
L 235.011162 272.993848 
L 235.830665 274.55104 
L 236.650169 272.729147 
L 237.469672 273.472187 
L 238.289176 273.831042 
L 239.10868 275.110924 
L 239.928183 274.027772 
L 240.747687 275.072202 
L 241.56719 272.467858 
L 242.386694 273.598059 
L 243.206198 273.693971 
L 244.025701 276.174001 
L 244.845205 276.568847 
L 245.664708 274.209009 
L 246.484212 275.523709 
L 247.303716 275.565262 
L 248.123219 274.180907 
L 248.942723 274.936049 
L 249.762226 276.417628 
L 250.58173 276.082912 
L 251.401234 277.946379 
L 252.220737 276.004503 
L 253.040241 277.826948 
L 253.859744 276.289025 
L 254.679248 275.585488 
L 255.498752 276.736407 
L 256.318255 275.753318 
L 257.137759 277.125979 
L 257.957262 277.976722 
L 258.776766 278.418234 
L 259.59627 277.391816 
L 260.415773 277.504818 
L 261.235277 277.746891 
L 262.05478 279.039067 
L 262.874284 276.846305 
L 263.693788 279.442316 
L 264.513291 279.403378 
L 265.332795 279.976122 
L 266.152298 277.927823 
L 266.971802 279.872564 
L 268.610809 278.897969 
L 269.430313 279.475534 
L 270.249816 280.636579 
L 271.06932 279.747853 
L 271.888824 279.234757 
L 272.708327 281.216157 
L 273.527831 278.957529 
L 274.347334 279.466321 
L 275.166838 279.215766 
L 275.986342 279.533604 
L 276.805845 278.964808 
L 277.625349 280.769919 
L 278.444852 279.673257 
L 279.264356 280.442698 
L 280.903363 278.369524 
L 281.722867 279.069523 
L 282.54237 282.933386 
L 283.361874 280.224954 
L 284.181378 280.577851 
L 285.000881 279.082695 
L 285.820385 279.764348 
L 286.639888 280.225013 
L 287.459392 281.309803 
L 288.278896 280.142086 
L 289.098399 280.319337 
L 289.917903 281.982581 
L 290.737406 281.304125 
L 291.55691 280.407738 
L 292.376414 282.099182 
L 293.195917 281.168653 
L 294.015421 282.319005 
L 294.834924 281.913253 
L 295.654428 281.277493 
L 296.473932 282.508905 
L 297.293435 279.896197 
L 298.112939 280.320016 
L 298.932442 281.81969 
L 299.751946 282.075521 
L 300.57145 281.588917 
L 301.390953 279.856581 
L 302.210457 281.568719 
L 303.02996 282.808612 
L 303.849464 281.956721 
L 304.668968 283.067077 
L 305.488471 282.439155 
L 306.307975 280.904395 
L 307.127478 281.54604 
L 307.946982 281.70465 
L 308.766486 282.671077 
L 309.585989 283.288807 
L 310.405493 282.40456 
L 311.224996 284.616703 
L 312.0445 284.004041 
L 312.864004 282.10279 
L 313.683507 284.27897 
L 314.503011 282.810556 
L 315.322514 283.339883 
L 316.142018 283.504967 
L 316.961522 282.763493 
L 317.781025 282.749447 
L 318.600529 285.339774 
L 319.420032 285.184984 
L 321.05904 284.061221 
L 321.878543 283.552727 
L 322.698047 281.779821 
L 323.51755 284.174162 
L 324.337054 285.544795 
L 325.156557 284.516089 
L 325.976061 285.014499 
L 326.795565 283.629905 
L 327.615068 283.505897 
L 328.434572 283.502264 
L 329.254075 283.206311 
L 330.073579 283.803175 
L 330.893083 284.696431 
L 331.712586 283.765897 
L 332.53209 281.706624 
L 333.351593 283.891296 
L 334.171097 283.429516 
L 335.810104 285.73771 
L 336.629608 284.986202 
L 338.268615 283.865478 
L 339.088119 284.767882 
L 339.907622 285.486762 
L 340.727126 283.772737 
L 341.546629 285.349317 
L 342.366133 284.987499 
L 343.185637 286.02314 
L 344.00514 284.436279 
L 344.824644 285.605518 
L 345.644147 286.060706 
L 346.463651 284.847352 
L 347.283155 283.369524 
L 348.102658 285.525812 
L 348.922162 285.595232 
L 349.741665 285.151985 
L 350.561169 285.169658 
L 352.200176 283.39884 
L 353.01968 287.078404 
L 353.839183 285.223541 
L 354.658687 284.928315 
L 355.478191 285.880998 
L 356.297694 285.738963 
L 357.117198 284.951206 
L 357.936701 285.083 
L 358.756205 285.729767 
L 359.575709 287.090671 
L 360.395212 283.478926 
L 361.214716 284.517071 
L 362.034219 284.654495 
L 363.673227 283.788053 
L 364.49273 282.609729 
L 365.312234 285.84397 
L 366.131737 287.120707 
L 366.951241 285.899075 
L 367.770745 286.711347 
L 368.590248 285.639813 
L 369.409752 285.731427 
L 370.229255 284.580181 
L 371.048759 284.214152 
L 371.868263 286.559468 
L 372.687766 285.373414 
L 373.50727 286.467737 
L 374.326773 285.704506 
L 375.965781 285.101939 
L 376.785284 286.459555 
L 377.604788 287.179993 
L 378.424291 284.758426 
L 379.243795 285.478916 
L 380.063299 285.104071 
L 380.882802 284.185429 
L 381.702306 286.944487 
L 382.521809 286.245172 
L 383.341313 284.915113 
L 384.160817 284.36374 
L 384.98032 282.57079 
L 385.799824 286.036258 
L 386.619327 285.777007 
L 387.438831 286.553777 
L 388.258335 286.252287 
L 389.077838 283.781933 
L 389.897342 286.992402 
L 390.716845 285.710061 
L 391.536349 285.535595 
L 392.355853 286.340107 
L 393.175356 285.401264 
L 393.99486 285.250803 
L 394.814363 285.714575 
L 395.633867 285.247035 
L 396.453371 285.805949 
L 397.272874 283.655032 
L 398.092378 286.29135 
L 398.911881 287.361929 
L 399.731385 287.549569 
L 401.370392 286.859943 
L 402.189896 287.298481 
L 403.009399 286.165211 
L 403.828903 286.156539 
L 404.648407 287.401856 
L 405.46791 286.372902 
L 406.287414 284.455909 
L 407.106917 287.167687 
L 407.926421 286.12776 
L 408.745925 285.633064 
L 409.565428 285.340911 
L 410.384932 285.929372 
L 411.204435 286.01884 
L 412.023939 286.350338 
L 412.843443 287.185241 
L 413.662946 286.882788 
L 414.48245 287.459985 
L 415.301953 287.240553 
L 416.121457 285.022761 
L 416.94096 284.184157 
L 417.760464 286.246128 
L 418.579968 284.170886 
L 419.399471 287.453121 
L 420.218975 286.267617 
L 421.038478 287.475682 
L 421.857982 285.960157 
L 422.677486 285.068072 
L 423.496989 286.110802 
L 424.316493 285.266831 
L 425.135996 286.245498 
L 425.9555 285.755052 
L 426.775004 286.734288 
L 427.594507 286.912794 
L 428.414011 286.779846 
L 429.233514 284.242572 
L 430.053018 286.476256 
L 430.872522 285.199313 
L 431.692025 285.513965 
L 433.331032 285.698971 
L 434.150536 287.125793 
L 435.789543 288.033856 
L 436.609047 287.142314 
L 437.42855 286.717301 
L 438.248054 285.753126 
L 439.067558 286.608572 
L 439.887061 288.452183 
L 440.706565 288.237029 
L 441.526068 285.388314 
L 442.345572 284.932445 
L 443.165076 287.244886 
L 443.984579 287.32944 
L 444.804083 286.790269 
L 445.623586 286.439826 
L 446.44309 284.795122 
L 447.262594 287.496512 
L 448.082097 286.013629 
L 448.901601 285.136052 
L 449.721104 285.771554 
L 450.540608 287.647997 
L 451.360112 287.907907 
L 452.179615 283.851661 
L 452.999119 285.193059 
L 453.818622 286.818427 
L 454.638126 286.410719 
L 455.45763 284.477981 
L 456.277133 284.413509 
L 457.096637 287.024586 
L 457.91614 287.464027 
L 458.735644 290.29156 
L 459.555148 288.351972 
L 460.374651 287.905639 
L 461.194155 288.588101 
L 462.013658 287.301078 
L 462.833162 286.465598 
L 463.652666 285.445528 
L 464.472169 286.240846 
L 465.291673 286.340022 
L 466.111176 285.935951 
L 466.93068 287.183532 
L 467.750184 287.651744 
L 468.569687 285.913729 
L 469.389191 285.33633 
L 470.208694 285.190435 
L 471.028198 284.232585 
L 472.667205 286.993294 
L 473.486709 288.431536 
L 474.306212 287.168098 
L 475.125716 286.898371 
L 475.94522 288.184703 
L 476.764723 287.765844 
L 477.584227 285.461202 
L 478.40373 286.573386 
L 479.223234 286.537773 
L 480.042738 286.775527 
L 480.862241 286.384892 
L 481.681745 287.622578 
L 482.501248 287.05572 
L 484.140256 287.988544 
L 484.959759 287.735729 
L 485.779263 286.47757 
L 486.598766 286.869977 
L 487.41827 286.420563 
L 488.237774 288.398937 
L 489.057277 285.415318 
L 489.876781 286.51074 
L 490.696284 285.330868 
L 491.515788 287.574312 
L 492.335292 286.758147 
L 493.154795 286.367679 
L 493.974299 285.842131 
L 494.793802 288.348986 
L 495.613306 288.949069 
L 496.43281 286.750562 
L 497.252313 287.464399 
L 498.071817 287.313238 
L 498.89132 287.303838 
L 499.710824 287.672445 
L 500.530328 286.517086 
L 501.349831 287.516131 
L 502.169335 287.535008 
L 502.988838 287.055448 
L 504.627845 285.812714 
L 505.447349 286.517397 
L 506.266853 286.718686 
L 507.086356 286.347932 
L 507.90586 285.734062 
L 508.725363 286.980114 
L 509.544867 288.953185 
L 510.364371 289.239996 
L 511.183874 285.823537 
L 512.003378 287.761096 
L 512.822881 287.757498 
L 513.642385 287.639226 
L 514.461889 285.165755 
L 516.100896 285.186206 
L 517.739903 287.569788 
L 518.559407 287.181881 
L 519.37891 288.764977 
L 520.198414 286.509763 
L 521.017917 286.943481 
L 521.837421 284.936448 
L 522.656925 286.862923 
L 523.476428 286.703196 
L 524.295932 285.383486 
L 525.934939 285.281152 
L 526.754443 285.265909 
L 527.573946 286.220783 
L 528.39345 284.245025 
L 529.212953 285.624409 
L 530.032457 286.550242 
L 530.851961 285.597864 
L 531.671464 284.933629 
L 532.490968 287.92046 
L 533.310471 284.876723 
L 534.949479 287.855885 
L 535.768982 284.803368 
L 536.588486 286.692404 
L 537.407989 285.81701 
L 538.227493 286.67962 
L 539.046997 287.167762 
L 539.8665 284.812517 
L 540.686004 286.516962 
L 541.505507 285.615431 
L 542.325011 286.004374 
L 543.964018 288.093521 
L 544.783522 288.39496 
L 545.603025 286.957214 
L 546.422529 285.933058 
L 547.242033 287.347964 
L 548.061536 286.973427 
L 548.88104 286.382466 
L 550.520047 287.44225 
L 551.339551 287.870459 
L 552.159054 284.960697 
L 552.978558 284.200325 
L 553.798061 285.204521 
L 554.617565 288.014782 
L 555.437069 286.578208 
L 556.256572 285.718155 
L 557.076076 286.29496 
L 557.895579 287.728476 
L 558.715083 287.380938 
L 559.534587 289.080625 
L 560.35409 287.459997 
L 561.173594 285.068661 
L 561.993097 287.861158 
L 562.812601 284.988025 
L 563.632105 284.940867 
L 564.451608 286.897515 
L 565.271112 286.717441 
L 566.090615 283.847744 
L 566.910119 287.2929 
L 567.729623 286.648223 
L 568.549126 286.993635 
L 569.36863 284.974939 
L 570.188133 285.872612 
L 571.007637 284.090674 
L 571.827141 285.873205 
L 572.646644 288.477856 
L 573.466148 284.244813 
L 574.285651 284.368274 
L 575.105155 286.948028 
L 575.924659 287.589116 
L 576.744162 286.737495 
L 577.563666 285.567874 
L 578.383169 287.210349 
L 579.202673 286.604545 
L 580.022177 282.943037 
L 580.84168 287.170532 
L 581.661184 289.332846 
L 582.480687 286.346224 
L 583.300191 285.392408 
L 584.119695 287.403922 
L 584.939198 285.95133 
L 585.758702 285.272032 
L 586.578205 286.202053 
L 587.397709 284.574621 
L 588.217213 286.022357 
L 589.036716 284.998752 
L 590.675723 286.167018 
L 591.495227 287.071581 
L 592.314731 285.920051 
L 593.134234 287.047578 
L 593.953738 285.449836 
L 594.773241 285.538987 
L 595.592745 285.036735 
L 597.231752 286.262699 
L 598.051256 285.215022 
L 598.870759 285.549267 
L 599.690263 285.564573 
L 600.509766 284.800483 
L 601.32927 288.142816 
L 602.148774 285.869077 
L 602.968277 284.260347 
L 603.787781 285.584417 
L 604.607284 285.929289 
L 605.426788 287.293704 
L 606.246292 285.52796 
L 607.065795 286.239846 
L 607.885299 286.02074 
L 608.704802 284.185711 
L 609.524306 283.056073 
L 610.34381 284.915865 
L 611.163313 286.242423 
L 611.982817 285.484655 
L 612.80232 283.691258 
L 613.621824 285.066151 
L 614.441328 283.17097 
L 615.260831 287.683308 
L 616.080335 284.611278 
L 616.899838 284.559126 
L 617.719342 284.794444 
L 618.538846 287.613702 
L 620.177853 286.698722 
L 620.997356 286.60029 
L 621.81686 285.220443 
L 622.636364 285.082604 
L 622.636364 285.082604 
" style="fill:none;stroke:#ff7f0e;stroke-linecap:square;stroke-width:0.5;"/>
   </g>
   <g id="patch_3">
    <path d="M 90 315 
L 90 43.2 
" style="fill:none;stroke:#000000;stroke-linecap:square;stroke-linejoin:miter;stroke-width:0.8;"/>
   </g>
   <g id="patch_4">
    <path d="M 648 315 
L 648 43.2 
" style="fill:none;stroke:#000000;stroke-linecap:square;stroke-linejoin:miter;stroke-width:0.8;"/>
   </g>
   <g id="patch_5">
    <path d="M 90 315 
L 648 315 
" style="fill:none;stroke:#000000;stroke-linecap:square;stroke-linejoin:miter;stroke-width:0.8;"/>
   </g>
   <g id="patch_6">
    <path d="M 90 43.2 
L 648 43.2 
" style="fill:none;stroke:#000000;stroke-linecap:square;stroke-linejoin:miter;stroke-width:0.8;"/>
   </g>
   <g id="text_18">
    <!-- loss -->
    <g transform="translate(357.410625 37.2)scale(0.12 -0.12)">
     <use xlink:href="#DejaVuSans-108"/>
     <use x="27.783203" xlink:href="#DejaVuSans-111"/>
     <use x="88.964844" xlink:href="#DejaVuSans-115"/>
     <use x="141.064453" xlink:href="#DejaVuSans-115"/>
    </g>
   </g>
   <g id="legend_1">
    <g id="patch_7">
     <path d="M 568.846875 80.55625 
L 641 80.55625 
Q 643 80.55625 643 78.55625 
L 643 50.2 
Q 643 48.2 641 48.2 
L 568.846875 48.2 
Q 566.846875 48.2 566.846875 50.2 
L 566.846875 78.55625 
Q 566.846875 80.55625 568.846875 80.55625 
z
" style="fill:#ffffff;opacity:0.8;stroke:#cccccc;stroke-linejoin:miter;"/>
    </g>
    <g id="line2d_33">
     <path d="M 570.846875 56.298437 
L 590.846875 56.298437 
" style="fill:none;stroke:#1f77b4;stroke-linecap:square;stroke-width:0.5;"/>
    </g>
    <g id="line2d_34"/>
    <g id="text_19">
     <!-- train -->
     <defs>
      <path d="M 18.3125 70.21875 
L 18.3125 54.6875 
L 36.8125 54.6875 
L 36.8125 47.703125 
L 18.3125 47.703125 
L 18.3125 18.015625 
Q 18.3125 11.328125 20.140625 9.421875 
Q 21.96875 7.515625 27.59375 7.515625 
L 36.8125 7.515625 
L 36.8125 0 
L 27.59375 0 
Q 17.1875 0 13.234375 3.875 
Q 9.28125 7.765625 9.28125 18.015625 
L 9.28125 47.703125 
L 2.6875 47.703125 
L 2.6875 54.6875 
L 9.28125 54.6875 
L 9.28125 70.21875 
z
" id="DejaVuSans-116"/>
      <path d="M 41.109375 46.296875 
Q 39.59375 47.171875 37.8125 47.578125 
Q 36.03125 48 33.890625 48 
Q 26.265625 48 22.1875 43.046875 
Q 18.109375 38.09375 18.109375 28.8125 
L 18.109375 0 
L 9.078125 0 
L 9.078125 54.6875 
L 18.109375 54.6875 
L 18.109375 46.1875 
Q 20.953125 51.171875 25.484375 53.578125 
Q 30.03125 56 36.53125 56 
Q 37.453125 56 38.578125 55.875 
Q 39.703125 55.765625 41.0625 55.515625 
z
" id="DejaVuSans-114"/>
      <path d="M 34.28125 27.484375 
Q 23.390625 27.484375 19.1875 25 
Q 14.984375 22.515625 14.984375 16.5 
Q 14.984375 11.71875 18.140625 8.90625 
Q 21.296875 6.109375 26.703125 6.109375 
Q 34.1875 6.109375 38.703125 11.40625 
Q 43.21875 16.703125 43.21875 25.484375 
L 43.21875 27.484375 
z
M 52.203125 31.203125 
L 52.203125 0 
L 43.21875 0 
L 43.21875 8.296875 
Q 40.140625 3.328125 35.546875 0.953125 
Q 30.953125 -1.421875 24.3125 -1.421875 
Q 15.921875 -1.421875 10.953125 3.296875 
Q 6 8.015625 6 15.921875 
Q 6 25.140625 12.171875 29.828125 
Q 18.359375 34.515625 30.609375 34.515625 
L 43.21875 34.515625 
L 43.21875 35.40625 
Q 43.21875 41.609375 39.140625 45 
Q 35.0625 48.390625 27.6875 48.390625 
Q 23 48.390625 18.546875 47.265625 
Q 14.109375 46.140625 10.015625 43.890625 
L 10.015625 52.203125 
Q 14.9375 54.109375 19.578125 55.046875 
Q 24.21875 56 28.609375 56 
Q 40.484375 56 46.34375 49.84375 
Q 52.203125 43.703125 52.203125 31.203125 
z
" id="DejaVuSans-97"/>
      <path d="M 9.421875 54.6875 
L 18.40625 54.6875 
L 18.40625 0 
L 9.421875 0 
z
M 9.421875 75.984375 
L 18.40625 75.984375 
L 18.40625 64.59375 
L 9.421875 64.59375 
z
" id="DejaVuSans-105"/>
      <path d="M 54.890625 33.015625 
L 54.890625 0 
L 45.90625 0 
L 45.90625 32.71875 
Q 45.90625 40.484375 42.875 44.328125 
Q 39.84375 48.1875 33.796875 48.1875 
Q 26.515625 48.1875 22.3125 43.546875 
Q 18.109375 38.921875 18.109375 30.90625 
L 18.109375 0 
L 9.078125 0 
L 9.078125 54.6875 
L 18.109375 54.6875 
L 18.109375 46.1875 
Q 21.34375 51.125 25.703125 53.5625 
Q 30.078125 56 35.796875 56 
Q 45.21875 56 50.046875 50.171875 
Q 54.890625 44.34375 54.890625 33.015625 
z
" id="DejaVuSans-110"/>
     </defs>
     <g transform="translate(598.846875 59.798437)scale(0.1 -0.1)">
      <use xlink:href="#DejaVuSans-116"/>
      <use x="39.208984" xlink:href="#DejaVuSans-114"/>
      <use x="80.322266" xlink:href="#DejaVuSans-97"/>
      <use x="141.601562" xlink:href="#DejaVuSans-105"/>
      <use x="169.384766" xlink:href="#DejaVuSans-110"/>
     </g>
    </g>
    <g id="line2d_35">
     <path d="M 570.846875 70.976562 
L 590.846875 70.976562 
" style="fill:none;stroke:#ff7f0e;stroke-linecap:square;stroke-width:0.5;"/>
    </g>
    <g id="line2d_36"/>
    <g id="text_20">
     <!-- validate -->
     <defs>
      <path d="M 2.984375 54.6875 
L 12.5 54.6875 
L 29.59375 8.796875 
L 46.6875 54.6875 
L 56.203125 54.6875 
L 35.6875 0 
L 23.484375 0 
z
" id="DejaVuSans-118"/>
      <path d="M 45.40625 46.390625 
L 45.40625 75.984375 
L 54.390625 75.984375 
L 54.390625 0 
L 45.40625 0 
L 45.40625 8.203125 
Q 42.578125 3.328125 38.25 0.953125 
Q 33.9375 -1.421875 27.875 -1.421875 
Q 17.96875 -1.421875 11.734375 6.484375 
Q 5.515625 14.40625 5.515625 27.296875 
Q 5.515625 40.1875 11.734375 48.09375 
Q 17.96875 56 27.875 56 
Q 33.9375 56 38.25 53.625 
Q 42.578125 51.265625 45.40625 46.390625 
z
M 14.796875 27.296875 
Q 14.796875 17.390625 18.875 11.75 
Q 22.953125 6.109375 30.078125 6.109375 
Q 37.203125 6.109375 41.296875 11.75 
Q 45.40625 17.390625 45.40625 27.296875 
Q 45.40625 37.203125 41.296875 42.84375 
Q 37.203125 48.484375 30.078125 48.484375 
Q 22.953125 48.484375 18.875 42.84375 
Q 14.796875 37.203125 14.796875 27.296875 
z
" id="DejaVuSans-100"/>
     </defs>
     <g transform="translate(598.846875 74.476562)scale(0.1 -0.1)">
      <use xlink:href="#DejaVuSans-118"/>
      <use x="59.179688" xlink:href="#DejaVuSans-97"/>
      <use x="120.458984" xlink:href="#DejaVuSans-108"/>
      <use x="148.242188" xlink:href="#DejaVuSans-105"/>
      <use x="176.025391" xlink:href="#DejaVuSans-100"/>
      <use x="239.501953" xlink:href="#DejaVuSans-97"/>
      <use x="300.78125" xlink:href="#DejaVuSans-116"/>
      <use x="339.990234" xlink:href="#DejaVuSans-101"/>
     </g>
    </g>
   </g>
  </g>
 </g>
 <defs>
  <clipPath id="p028e8ca999">
   <rect height="271.8" width="558" x="90" y="43.2"/>
  </clipPath>
 </defs>
</svg>
