<?xml version="1.0" encoding="utf-8" standalone="no"?>
<!DOCTYPE svg PUBLIC "-//W3C//DTD SVG 1.1//EN"
  "http://www.w3.org/Graphics/SVG/1.1/DTD/svg11.dtd">
<!-- Created with matplotlib (https://matplotlib.org/) -->
<svg height="360pt" version="1.1" viewBox="0 0 720 360" width="720pt" xmlns="http://www.w3.org/2000/svg" xmlns:xlink="http://www.w3.org/1999/xlink">
 <defs>
  <style type="text/css">
*{stroke-linecap:butt;stroke-linejoin:round;}
  </style>
 </defs>
 <g id="figure_1">
  <g id="patch_1">
   <path d="M 0 360 
L 720 360 
L 720 0 
L 0 0 
z
" style="fill:#ffffff;"/>
  </g>
  <g id="axes_1">
   <g id="patch_2">
    <path d="M 90 315 
L 648 315 
L 648 43.2 
L 90 43.2 
z
" style="fill:#ffffff;"/>
   </g>
   <g id="matplotlib.axis_1">
    <g id="xtick_1">
     <g id="line2d_1">
      <path clip-path="url(#pa01079f33a)" d="M 115.363636 315 
L 115.363636 43.2 
" style="fill:none;stroke:#b0b0b0;stroke-linecap:square;stroke-width:0.8;"/>
     </g>
     <g id="line2d_2">
      <defs>
       <path d="M 0 0 
L 0 3.5 
" id="m45784b5d60" style="stroke:#000000;stroke-width:0.8;"/>
      </defs>
      <g>
       <use style="stroke:#000000;stroke-width:0.8;" x="115.363636" xlink:href="#m45784b5d60" y="315"/>
      </g>
     </g>
     <g id="text_1">
      <!-- 0 -->
      <defs>
       <path d="M 31.78125 66.40625 
Q 24.171875 66.40625 20.328125 58.90625 
Q 16.5 51.421875 16.5 36.375 
Q 16.5 21.390625 20.328125 13.890625 
Q 24.171875 6.390625 31.78125 6.390625 
Q 39.453125 6.390625 43.28125 13.890625 
Q 47.125 21.390625 47.125 36.375 
Q 47.125 51.421875 43.28125 58.90625 
Q 39.453125 66.40625 31.78125 66.40625 
z
M 31.78125 74.21875 
Q 44.046875 74.21875 50.515625 64.515625 
Q 56.984375 54.828125 56.984375 36.375 
Q 56.984375 17.96875 50.515625 8.265625 
Q 44.046875 -1.421875 31.78125 -1.421875 
Q 19.53125 -1.421875 13.0625 8.265625 
Q 6.59375 17.96875 6.59375 36.375 
Q 6.59375 54.828125 13.0625 64.515625 
Q 19.53125 74.21875 31.78125 74.21875 
z
" id="DejaVuSans-48"/>
      </defs>
      <g transform="translate(112.182386 329.598437)scale(0.1 -0.1)">
       <use xlink:href="#DejaVuSans-48"/>
      </g>
     </g>
    </g>
    <g id="xtick_2">
     <g id="line2d_3">
      <path clip-path="url(#pa01079f33a)" d="M 190.403981 315 
L 190.403981 43.2 
" style="fill:none;stroke:#b0b0b0;stroke-linecap:square;stroke-width:0.8;"/>
     </g>
     <g id="line2d_4">
      <g>
       <use style="stroke:#000000;stroke-width:0.8;" x="190.403981" xlink:href="#m45784b5d60" y="315"/>
      </g>
     </g>
     <g id="text_2">
      <!-- 200 -->
      <defs>
       <path d="M 19.1875 8.296875 
L 53.609375 8.296875 
L 53.609375 0 
L 7.328125 0 
L 7.328125 8.296875 
Q 12.9375 14.109375 22.625 23.890625 
Q 32.328125 33.6875 34.8125 36.53125 
Q 39.546875 41.84375 41.421875 45.53125 
Q 43.3125 49.21875 43.3125 52.78125 
Q 43.3125 58.59375 39.234375 62.25 
Q 35.15625 65.921875 28.609375 65.921875 
Q 23.96875 65.921875 18.8125 64.3125 
Q 13.671875 62.703125 7.8125 59.421875 
L 7.8125 69.390625 
Q 13.765625 71.78125 18.9375 73 
Q 24.125 74.21875 28.421875 74.21875 
Q 39.75 74.21875 46.484375 68.546875 
Q 53.21875 62.890625 53.21875 53.421875 
Q 53.21875 48.921875 51.53125 44.890625 
Q 49.859375 40.875 45.40625 35.40625 
Q 44.1875 33.984375 37.640625 27.21875 
Q 31.109375 20.453125 19.1875 8.296875 
z
" id="DejaVuSans-50"/>
      </defs>
      <g transform="translate(180.860231 329.598437)scale(0.1 -0.1)">
       <use xlink:href="#DejaVuSans-50"/>
       <use x="63.623047" xlink:href="#DejaVuSans-48"/>
       <use x="127.246094" xlink:href="#DejaVuSans-48"/>
      </g>
     </g>
    </g>
    <g id="xtick_3">
     <g id="line2d_5">
      <path clip-path="url(#pa01079f33a)" d="M 265.444325 315 
L 265.444325 43.2 
" style="fill:none;stroke:#b0b0b0;stroke-linecap:square;stroke-width:0.8;"/>
     </g>
     <g id="line2d_6">
      <g>
       <use style="stroke:#000000;stroke-width:0.8;" x="265.444325" xlink:href="#m45784b5d60" y="315"/>
      </g>
     </g>
     <g id="text_3">
      <!-- 400 -->
      <defs>
       <path d="M 37.796875 64.3125 
L 12.890625 25.390625 
L 37.796875 25.390625 
z
M 35.203125 72.90625 
L 47.609375 72.90625 
L 47.609375 25.390625 
L 58.015625 25.390625 
L 58.015625 17.1875 
L 47.609375 17.1875 
L 47.609375 0 
L 37.796875 0 
L 37.796875 17.1875 
L 4.890625 17.1875 
L 4.890625 26.703125 
z
" id="DejaVuSans-52"/>
      </defs>
      <g transform="translate(255.900575 329.598437)scale(0.1 -0.1)">
       <use xlink:href="#DejaVuSans-52"/>
       <use x="63.623047" xlink:href="#DejaVuSans-48"/>
       <use x="127.246094" xlink:href="#DejaVuSans-48"/>
      </g>
     </g>
    </g>
    <g id="xtick_4">
     <g id="line2d_7">
      <path clip-path="url(#pa01079f33a)" d="M 340.484669 315 
L 340.484669 43.2 
" style="fill:none;stroke:#b0b0b0;stroke-linecap:square;stroke-width:0.8;"/>
     </g>
     <g id="line2d_8">
      <g>
       <use style="stroke:#000000;stroke-width:0.8;" x="340.484669" xlink:href="#m45784b5d60" y="315"/>
      </g>
     </g>
     <g id="text_4">
      <!-- 600 -->
      <defs>
       <path d="M 33.015625 40.375 
Q 26.375 40.375 22.484375 35.828125 
Q 18.609375 31.296875 18.609375 23.390625 
Q 18.609375 15.53125 22.484375 10.953125 
Q 26.375 6.390625 33.015625 6.390625 
Q 39.65625 6.390625 43.53125 10.953125 
Q 47.40625 15.53125 47.40625 23.390625 
Q 47.40625 31.296875 43.53125 35.828125 
Q 39.65625 40.375 33.015625 40.375 
z
M 52.59375 71.296875 
L 52.59375 62.3125 
Q 48.875 64.0625 45.09375 64.984375 
Q 41.3125 65.921875 37.59375 65.921875 
Q 27.828125 65.921875 22.671875 59.328125 
Q 17.53125 52.734375 16.796875 39.40625 
Q 19.671875 43.65625 24.015625 45.921875 
Q 28.375 48.1875 33.59375 48.1875 
Q 44.578125 48.1875 50.953125 41.515625 
Q 57.328125 34.859375 57.328125 23.390625 
Q 57.328125 12.15625 50.6875 5.359375 
Q 44.046875 -1.421875 33.015625 -1.421875 
Q 20.359375 -1.421875 13.671875 8.265625 
Q 6.984375 17.96875 6.984375 36.375 
Q 6.984375 53.65625 15.1875 63.9375 
Q 23.390625 74.21875 37.203125 74.21875 
Q 40.921875 74.21875 44.703125 73.484375 
Q 48.484375 72.75 52.59375 71.296875 
z
" id="DejaVuSans-54"/>
      </defs>
      <g transform="translate(330.940919 329.598437)scale(0.1 -0.1)">
       <use xlink:href="#DejaVuSans-54"/>
       <use x="63.623047" xlink:href="#DejaVuSans-48"/>
       <use x="127.246094" xlink:href="#DejaVuSans-48"/>
      </g>
     </g>
    </g>
    <g id="xtick_5">
     <g id="line2d_9">
      <path clip-path="url(#pa01079f33a)" d="M 415.525013 315 
L 415.525013 43.2 
" style="fill:none;stroke:#b0b0b0;stroke-linecap:square;stroke-width:0.8;"/>
     </g>
     <g id="line2d_10">
      <g>
       <use style="stroke:#000000;stroke-width:0.8;" x="415.525013" xlink:href="#m45784b5d60" y="315"/>
      </g>
     </g>
     <g id="text_5">
      <!-- 800 -->
      <defs>
       <path d="M 31.78125 34.625 
Q 24.75 34.625 20.71875 30.859375 
Q 16.703125 27.09375 16.703125 20.515625 
Q 16.703125 13.921875 20.71875 10.15625 
Q 24.75 6.390625 31.78125 6.390625 
Q 38.8125 6.390625 42.859375 10.171875 
Q 46.921875 13.96875 46.921875 20.515625 
Q 46.921875 27.09375 42.890625 30.859375 
Q 38.875 34.625 31.78125 34.625 
z
M 21.921875 38.8125 
Q 15.578125 40.375 12.03125 44.71875 
Q 8.5 49.078125 8.5 55.328125 
Q 8.5 64.0625 14.71875 69.140625 
Q 20.953125 74.21875 31.78125 74.21875 
Q 42.671875 74.21875 48.875 69.140625 
Q 55.078125 64.0625 55.078125 55.328125 
Q 55.078125 49.078125 51.53125 44.71875 
Q 48 40.375 41.703125 38.8125 
Q 48.828125 37.15625 52.796875 32.3125 
Q 56.78125 27.484375 56.78125 20.515625 
Q 56.78125 9.90625 50.3125 4.234375 
Q 43.84375 -1.421875 31.78125 -1.421875 
Q 19.734375 -1.421875 13.25 4.234375 
Q 6.78125 9.90625 6.78125 20.515625 
Q 6.78125 27.484375 10.78125 32.3125 
Q 14.796875 37.15625 21.921875 38.8125 
z
M 18.3125 54.390625 
Q 18.3125 48.734375 21.84375 45.5625 
Q 25.390625 42.390625 31.78125 42.390625 
Q 38.140625 42.390625 41.71875 45.5625 
Q 45.3125 48.734375 45.3125 54.390625 
Q 45.3125 60.0625 41.71875 63.234375 
Q 38.140625 66.40625 31.78125 66.40625 
Q 25.390625 66.40625 21.84375 63.234375 
Q 18.3125 60.0625 18.3125 54.390625 
z
" id="DejaVuSans-56"/>
      </defs>
      <g transform="translate(405.981263 329.598437)scale(0.1 -0.1)">
       <use xlink:href="#DejaVuSans-56"/>
       <use x="63.623047" xlink:href="#DejaVuSans-48"/>
       <use x="127.246094" xlink:href="#DejaVuSans-48"/>
      </g>
     </g>
    </g>
    <g id="xtick_6">
     <g id="line2d_11">
      <path clip-path="url(#pa01079f33a)" d="M 490.565358 315 
L 490.565358 43.2 
" style="fill:none;stroke:#b0b0b0;stroke-linecap:square;stroke-width:0.8;"/>
     </g>
     <g id="line2d_12">
      <g>
       <use style="stroke:#000000;stroke-width:0.8;" x="490.565358" xlink:href="#m45784b5d60" y="315"/>
      </g>
     </g>
     <g id="text_6">
      <!-- 1000 -->
      <defs>
       <path d="M 12.40625 8.296875 
L 28.515625 8.296875 
L 28.515625 63.921875 
L 10.984375 60.40625 
L 10.984375 69.390625 
L 28.421875 72.90625 
L 38.28125 72.90625 
L 38.28125 8.296875 
L 54.390625 8.296875 
L 54.390625 0 
L 12.40625 0 
z
" id="DejaVuSans-49"/>
      </defs>
      <g transform="translate(477.840358 329.598437)scale(0.1 -0.1)">
       <use xlink:href="#DejaVuSans-49"/>
       <use x="63.623047" xlink:href="#DejaVuSans-48"/>
       <use x="127.246094" xlink:href="#DejaVuSans-48"/>
       <use x="190.869141" xlink:href="#DejaVuSans-48"/>
      </g>
     </g>
    </g>
    <g id="xtick_7">
     <g id="line2d_13">
      <path clip-path="url(#pa01079f33a)" d="M 565.605702 315 
L 565.605702 43.2 
" style="fill:none;stroke:#b0b0b0;stroke-linecap:square;stroke-width:0.8;"/>
     </g>
     <g id="line2d_14">
      <g>
       <use style="stroke:#000000;stroke-width:0.8;" x="565.605702" xlink:href="#m45784b5d60" y="315"/>
      </g>
     </g>
     <g id="text_7">
      <!-- 1200 -->
      <g transform="translate(552.880702 329.598437)scale(0.1 -0.1)">
       <use xlink:href="#DejaVuSans-49"/>
       <use x="63.623047" xlink:href="#DejaVuSans-50"/>
       <use x="127.246094" xlink:href="#DejaVuSans-48"/>
       <use x="190.869141" xlink:href="#DejaVuSans-48"/>
      </g>
     </g>
    </g>
    <g id="xtick_8">
     <g id="line2d_15">
      <path clip-path="url(#pa01079f33a)" d="M 640.646046 315 
L 640.646046 43.2 
" style="fill:none;stroke:#b0b0b0;stroke-linecap:square;stroke-width:0.8;"/>
     </g>
     <g id="line2d_16">
      <g>
       <use style="stroke:#000000;stroke-width:0.8;" x="640.646046" xlink:href="#m45784b5d60" y="315"/>
      </g>
     </g>
     <g id="text_8">
      <!-- 1400 -->
      <g transform="translate(627.921046 329.598437)scale(0.1 -0.1)">
       <use xlink:href="#DejaVuSans-49"/>
       <use x="63.623047" xlink:href="#DejaVuSans-52"/>
       <use x="127.246094" xlink:href="#DejaVuSans-48"/>
       <use x="190.869141" xlink:href="#DejaVuSans-48"/>
      </g>
     </g>
    </g>
    <g id="text_9">
     <!-- epoch -->
     <defs>
      <path d="M 56.203125 29.59375 
L 56.203125 25.203125 
L 14.890625 25.203125 
Q 15.484375 15.921875 20.484375 11.0625 
Q 25.484375 6.203125 34.421875 6.203125 
Q 39.59375 6.203125 44.453125 7.46875 
Q 49.3125 8.734375 54.109375 11.28125 
L 54.109375 2.78125 
Q 49.265625 0.734375 44.1875 -0.34375 
Q 39.109375 -1.421875 33.890625 -1.421875 
Q 20.796875 -1.421875 13.15625 6.1875 
Q 5.515625 13.8125 5.515625 26.8125 
Q 5.515625 40.234375 12.765625 48.109375 
Q 20.015625 56 32.328125 56 
Q 43.359375 56 49.78125 48.890625 
Q 56.203125 41.796875 56.203125 29.59375 
z
M 47.21875 32.234375 
Q 47.125 39.59375 43.09375 43.984375 
Q 39.0625 48.390625 32.421875 48.390625 
Q 24.90625 48.390625 20.390625 44.140625 
Q 15.875 39.890625 15.1875 32.171875 
z
" id="DejaVuSans-101"/>
      <path d="M 18.109375 8.203125 
L 18.109375 -20.796875 
L 9.078125 -20.796875 
L 9.078125 54.6875 
L 18.109375 54.6875 
L 18.109375 46.390625 
Q 20.953125 51.265625 25.265625 53.625 
Q 29.59375 56 35.59375 56 
Q 45.5625 56 51.78125 48.09375 
Q 58.015625 40.1875 58.015625 27.296875 
Q 58.015625 14.40625 51.78125 6.484375 
Q 45.5625 -1.421875 35.59375 -1.421875 
Q 29.59375 -1.421875 25.265625 0.953125 
Q 20.953125 3.328125 18.109375 8.203125 
z
M 48.6875 27.296875 
Q 48.6875 37.203125 44.609375 42.84375 
Q 40.53125 48.484375 33.40625 48.484375 
Q 26.265625 48.484375 22.1875 42.84375 
Q 18.109375 37.203125 18.109375 27.296875 
Q 18.109375 17.390625 22.1875 11.75 
Q 26.265625 6.109375 33.40625 6.109375 
Q 40.53125 6.109375 44.609375 11.75 
Q 48.6875 17.390625 48.6875 27.296875 
z
" id="DejaVuSans-112"/>
      <path d="M 30.609375 48.390625 
Q 23.390625 48.390625 19.1875 42.75 
Q 14.984375 37.109375 14.984375 27.296875 
Q 14.984375 17.484375 19.15625 11.84375 
Q 23.34375 6.203125 30.609375 6.203125 
Q 37.796875 6.203125 41.984375 11.859375 
Q 46.1875 17.53125 46.1875 27.296875 
Q 46.1875 37.015625 41.984375 42.703125 
Q 37.796875 48.390625 30.609375 48.390625 
z
M 30.609375 56 
Q 42.328125 56 49.015625 48.375 
Q 55.71875 40.765625 55.71875 27.296875 
Q 55.71875 13.875 49.015625 6.21875 
Q 42.328125 -1.421875 30.609375 -1.421875 
Q 18.84375 -1.421875 12.171875 6.21875 
Q 5.515625 13.875 5.515625 27.296875 
Q 5.515625 40.765625 12.171875 48.375 
Q 18.84375 56 30.609375 56 
z
" id="DejaVuSans-111"/>
      <path d="M 48.78125 52.59375 
L 48.78125 44.1875 
Q 44.96875 46.296875 41.140625 47.34375 
Q 37.3125 48.390625 33.40625 48.390625 
Q 24.65625 48.390625 19.8125 42.84375 
Q 14.984375 37.3125 14.984375 27.296875 
Q 14.984375 17.28125 19.8125 11.734375 
Q 24.65625 6.203125 33.40625 6.203125 
Q 37.3125 6.203125 41.140625 7.25 
Q 44.96875 8.296875 48.78125 10.40625 
L 48.78125 2.09375 
Q 45.015625 0.34375 40.984375 -0.53125 
Q 36.96875 -1.421875 32.421875 -1.421875 
Q 20.0625 -1.421875 12.78125 6.34375 
Q 5.515625 14.109375 5.515625 27.296875 
Q 5.515625 40.671875 12.859375 48.328125 
Q 20.21875 56 33.015625 56 
Q 37.15625 56 41.109375 55.140625 
Q 45.0625 54.296875 48.78125 52.59375 
z
" id="DejaVuSans-99"/>
      <path d="M 54.890625 33.015625 
L 54.890625 0 
L 45.90625 0 
L 45.90625 32.71875 
Q 45.90625 40.484375 42.875 44.328125 
Q 39.84375 48.1875 33.796875 48.1875 
Q 26.515625 48.1875 22.3125 43.546875 
Q 18.109375 38.921875 18.109375 30.90625 
L 18.109375 0 
L 9.078125 0 
L 9.078125 75.984375 
L 18.109375 75.984375 
L 18.109375 46.1875 
Q 21.34375 51.125 25.703125 53.5625 
Q 30.078125 56 35.796875 56 
Q 45.21875 56 50.046875 50.171875 
Q 54.890625 44.34375 54.890625 33.015625 
z
" id="DejaVuSans-104"/>
     </defs>
     <g transform="translate(353.771875 343.276563)scale(0.1 -0.1)">
      <use xlink:href="#DejaVuSans-101"/>
      <use x="61.523438" xlink:href="#DejaVuSans-112"/>
      <use x="125" xlink:href="#DejaVuSans-111"/>
      <use x="186.181641" xlink:href="#DejaVuSans-99"/>
      <use x="241.162109" xlink:href="#DejaVuSans-104"/>
     </g>
    </g>
   </g>
   <g id="matplotlib.axis_2">
    <g id="ytick_1">
     <g id="line2d_17">
      <path clip-path="url(#pa01079f33a)" d="M 90 288.472345 
L 648 288.472345 
" style="fill:none;stroke:#b0b0b0;stroke-linecap:square;stroke-width:0.8;"/>
     </g>
     <g id="line2d_18">
      <defs>
       <path d="M 0 0 
L -3.5 0 
" id="ma2f00fef9a" style="stroke:#000000;stroke-width:0.8;"/>
      </defs>
      <g>
       <use style="stroke:#000000;stroke-width:0.8;" x="90" xlink:href="#ma2f00fef9a" y="288.472345"/>
      </g>
     </g>
     <g id="text_10">
      <!-- 0.2 -->
      <defs>
       <path d="M 10.6875 12.40625 
L 21 12.40625 
L 21 0 
L 10.6875 0 
z
" id="DejaVuSans-46"/>
      </defs>
      <g transform="translate(67.096875 292.271564)scale(0.1 -0.1)">
       <use xlink:href="#DejaVuSans-48"/>
       <use x="63.623047" xlink:href="#DejaVuSans-46"/>
       <use x="95.410156" xlink:href="#DejaVuSans-50"/>
      </g>
     </g>
    </g>
    <g id="ytick_2">
     <g id="line2d_19">
      <path clip-path="url(#pa01079f33a)" d="M 90 255.416955 
L 648 255.416955 
" style="fill:none;stroke:#b0b0b0;stroke-linecap:square;stroke-width:0.8;"/>
     </g>
     <g id="line2d_20">
      <g>
       <use style="stroke:#000000;stroke-width:0.8;" x="90" xlink:href="#ma2f00fef9a" y="255.416955"/>
      </g>
     </g>
     <g id="text_11">
      <!-- 0.4 -->
      <g transform="translate(67.096875 259.216174)scale(0.1 -0.1)">
       <use xlink:href="#DejaVuSans-48"/>
       <use x="63.623047" xlink:href="#DejaVuSans-46"/>
       <use x="95.410156" xlink:href="#DejaVuSans-52"/>
      </g>
     </g>
    </g>
    <g id="ytick_3">
     <g id="line2d_21">
      <path clip-path="url(#pa01079f33a)" d="M 90 222.361565 
L 648 222.361565 
" style="fill:none;stroke:#b0b0b0;stroke-linecap:square;stroke-width:0.8;"/>
     </g>
     <g id="line2d_22">
      <g>
       <use style="stroke:#000000;stroke-width:0.8;" x="90" xlink:href="#ma2f00fef9a" y="222.361565"/>
      </g>
     </g>
     <g id="text_12">
      <!-- 0.6 -->
      <g transform="translate(67.096875 226.160783)scale(0.1 -0.1)">
       <use xlink:href="#DejaVuSans-48"/>
       <use x="63.623047" xlink:href="#DejaVuSans-46"/>
       <use x="95.410156" xlink:href="#DejaVuSans-54"/>
      </g>
     </g>
    </g>
    <g id="ytick_4">
     <g id="line2d_23">
      <path clip-path="url(#pa01079f33a)" d="M 90 189.306174 
L 648 189.306174 
" style="fill:none;stroke:#b0b0b0;stroke-linecap:square;stroke-width:0.8;"/>
     </g>
     <g id="line2d_24">
      <g>
       <use style="stroke:#000000;stroke-width:0.8;" x="90" xlink:href="#ma2f00fef9a" y="189.306174"/>
      </g>
     </g>
     <g id="text_13">
      <!-- 0.8 -->
      <g transform="translate(67.096875 193.105393)scale(0.1 -0.1)">
       <use xlink:href="#DejaVuSans-48"/>
       <use x="63.623047" xlink:href="#DejaVuSans-46"/>
       <use x="95.410156" xlink:href="#DejaVuSans-56"/>
      </g>
     </g>
    </g>
    <g id="ytick_5">
     <g id="line2d_25">
      <path clip-path="url(#pa01079f33a)" d="M 90 156.250784 
L 648 156.250784 
" style="fill:none;stroke:#b0b0b0;stroke-linecap:square;stroke-width:0.8;"/>
     </g>
     <g id="line2d_26">
      <g>
       <use style="stroke:#000000;stroke-width:0.8;" x="90" xlink:href="#ma2f00fef9a" y="156.250784"/>
      </g>
     </g>
     <g id="text_14">
      <!-- 1.0 -->
      <g transform="translate(67.096875 160.050003)scale(0.1 -0.1)">
       <use xlink:href="#DejaVuSans-49"/>
       <use x="63.623047" xlink:href="#DejaVuSans-46"/>
       <use x="95.410156" xlink:href="#DejaVuSans-48"/>
      </g>
     </g>
    </g>
    <g id="ytick_6">
     <g id="line2d_27">
      <path clip-path="url(#pa01079f33a)" d="M 90 123.195393 
L 648 123.195393 
" style="fill:none;stroke:#b0b0b0;stroke-linecap:square;stroke-width:0.8;"/>
     </g>
     <g id="line2d_28">
      <g>
       <use style="stroke:#000000;stroke-width:0.8;" x="90" xlink:href="#ma2f00fef9a" y="123.195393"/>
      </g>
     </g>
     <g id="text_15">
      <!-- 1.2 -->
      <g transform="translate(67.096875 126.994612)scale(0.1 -0.1)">
       <use xlink:href="#DejaVuSans-49"/>
       <use x="63.623047" xlink:href="#DejaVuSans-46"/>
       <use x="95.410156" xlink:href="#DejaVuSans-50"/>
      </g>
     </g>
    </g>
    <g id="ytick_7">
     <g id="line2d_29">
      <path clip-path="url(#pa01079f33a)" d="M 90 90.140003 
L 648 90.140003 
" style="fill:none;stroke:#b0b0b0;stroke-linecap:square;stroke-width:0.8;"/>
     </g>
     <g id="line2d_30">
      <g>
       <use style="stroke:#000000;stroke-width:0.8;" x="90" xlink:href="#ma2f00fef9a" y="90.140003"/>
      </g>
     </g>
     <g id="text_16">
      <!-- 1.4 -->
      <g transform="translate(67.096875 93.939222)scale(0.1 -0.1)">
       <use xlink:href="#DejaVuSans-49"/>
       <use x="63.623047" xlink:href="#DejaVuSans-46"/>
       <use x="95.410156" xlink:href="#DejaVuSans-52"/>
      </g>
     </g>
    </g>
    <g id="ytick_8">
     <g id="line2d_31">
      <path clip-path="url(#pa01079f33a)" d="M 90 57.084613 
L 648 57.084613 
" style="fill:none;stroke:#b0b0b0;stroke-linecap:square;stroke-width:0.8;"/>
     </g>
     <g id="line2d_32">
      <g>
       <use style="stroke:#000000;stroke-width:0.8;" x="90" xlink:href="#ma2f00fef9a" y="57.084613"/>
      </g>
     </g>
     <g id="text_17">
      <!-- 1.6 -->
      <g transform="translate(67.096875 60.883832)scale(0.1 -0.1)">
       <use xlink:href="#DejaVuSans-49"/>
       <use x="63.623047" xlink:href="#DejaVuSans-46"/>
       <use x="95.410156" xlink:href="#DejaVuSans-54"/>
      </g>
     </g>
    </g>
    <g id="text_18">
     <!-- loss -->
     <defs>
      <path d="M 9.421875 75.984375 
L 18.40625 75.984375 
L 18.40625 0 
L 9.421875 0 
z
" id="DejaVuSans-108"/>
      <path d="M 44.28125 53.078125 
L 44.28125 44.578125 
Q 40.484375 46.53125 36.375 47.5 
Q 32.28125 48.484375 27.875 48.484375 
Q 21.1875 48.484375 17.84375 46.4375 
Q 14.5 44.390625 14.5 40.28125 
Q 14.5 37.15625 16.890625 35.375 
Q 19.28125 33.59375 26.515625 31.984375 
L 29.59375 31.296875 
Q 39.15625 29.25 43.1875 25.515625 
Q 47.21875 21.78125 47.21875 15.09375 
Q 47.21875 7.46875 41.1875 3.015625 
Q 35.15625 -1.421875 24.609375 -1.421875 
Q 20.21875 -1.421875 15.453125 -0.5625 
Q 10.6875 0.296875 5.421875 2 
L 5.421875 11.28125 
Q 10.40625 8.6875 15.234375 7.390625 
Q 20.0625 6.109375 24.8125 6.109375 
Q 31.15625 6.109375 34.5625 8.28125 
Q 37.984375 10.453125 37.984375 14.40625 
Q 37.984375 18.0625 35.515625 20.015625 
Q 33.0625 21.96875 24.703125 23.78125 
L 21.578125 24.515625 
Q 13.234375 26.265625 9.515625 29.90625 
Q 5.8125 33.546875 5.8125 39.890625 
Q 5.8125 47.609375 11.28125 51.796875 
Q 16.75 56 26.8125 56 
Q 31.78125 56 36.171875 55.265625 
Q 40.578125 54.546875 44.28125 53.078125 
z
" id="DejaVuSans-115"/>
     </defs>
     <g transform="translate(61.017187 188.757812)rotate(-90)scale(0.1 -0.1)">
      <use xlink:href="#DejaVuSans-108"/>
      <use x="27.783203" xlink:href="#DejaVuSans-111"/>
      <use x="88.964844" xlink:href="#DejaVuSans-115"/>
      <use x="141.064453" xlink:href="#DejaVuSans-115"/>
     </g>
    </g>
   </g>
   <g id="line2d_33">
    <path clip-path="url(#pa01079f33a)" d="M 115.363636 55.554545 
L 115.738838 62.853327 
L 116.11404 66.331 
L 116.489242 71.662652 
L 116.864443 72.149738 
L 117.239645 75.145981 
L 117.614847 74.530064 
L 117.990048 76.114652 
L 118.36525 78.431329 
L 118.740452 76.986708 
L 119.115654 76.644369 
L 119.490855 78.771788 
L 119.866057 78.315828 
L 120.241259 82.093803 
L 120.61646 80.196919 
L 122.117267 86.058587 
L 122.492469 86.624331 
L 122.867671 87.659698 
L 123.242873 88.35338 
L 123.618074 90.636912 
L 123.993276 91.574551 
L 124.368478 91.791247 
L 124.743679 93.616735 
L 125.118881 94.665982 
L 125.494083 96.143547 
L 125.869285 101.537468 
L 126.99489 109.355623 
L 127.370091 110.571322 
L 127.745293 118.291776 
L 128.120495 119.888678 
L 129.2461 130.438981 
L 129.621302 135.55572 
L 129.996503 138.324209 
L 130.746907 147.484181 
L 132.622916 160.229384 
L 132.998117 165.934165 
L 133.373319 166.164891 
L 133.748521 167.540566 
L 134.123722 166.072156 
L 134.498924 169.283016 
L 134.874126 175.635325 
L 135.249328 176.527418 
L 135.624529 175.905593 
L 135.999731 180.16877 
L 136.374933 179.806049 
L 136.750134 181.977041 
L 137.125336 186.043809 
L 137.500538 186.093187 
L 137.87574 185.400284 
L 138.250941 189.768516 
L 139.001345 193.8222 
L 139.376547 192.63571 
L 139.751748 196.204734 
L 140.12695 195.770393 
L 140.502152 197.926523 
L 140.877353 201.181416 
L 141.252555 202.93387 
L 142.002959 200.667436 
L 142.37816 205.069088 
L 142.753362 203.385839 
L 143.128564 207.348383 
L 143.503765 209.224818 
L 143.878967 208.78739 
L 144.254169 210.002064 
L 144.629371 212.020898 
L 145.004572 213.172678 
L 146.130178 217.738046 
L 146.505379 216.445445 
L 146.880581 220.22456 
L 147.255783 219.831778 
L 147.630984 216.94847 
L 148.006186 219.074899 
L 148.381388 219.16395 
L 149.131791 223.620975 
L 149.506993 222.756418 
L 149.882195 223.109014 
L 150.257396 222.210015 
L 150.632598 224.106035 
L 151.0078 223.969559 
L 151.758203 228.864479 
L 152.133405 226.600066 
L 152.508607 228.795284 
L 152.883808 228.669327 
L 153.25901 231.471225 
L 153.634212 230.328718 
L 154.009414 231.189063 
L 154.384615 234.842439 
L 154.759817 233.539886 
L 155.135019 235.414121 
L 155.510221 235.4431 
L 155.885422 234.827859 
L 156.260624 236.375227 
L 156.635826 237.054642 
L 157.011027 238.676011 
L 157.386229 238.923805 
L 157.761431 238.362708 
L 158.136633 238.575635 
L 158.511834 236.296663 
L 158.887036 238.408634 
L 159.262238 244.213024 
L 159.637439 239.584873 
L 160.012641 240.369403 
L 160.763045 243.89543 
L 161.138246 244.789984 
L 161.513448 242.283374 
L 161.88865 241.987812 
L 162.263852 243.735262 
L 163.014255 245.505948 
L 163.389457 247.209829 
L 164.13986 245.750133 
L 164.515062 249.153453 
L 164.890264 245.365988 
L 165.640667 249.455608 
L 166.015869 247.718366 
L 166.39107 248.218262 
L 166.766272 249.25679 
L 167.141474 247.808455 
L 167.516676 251.663618 
L 167.891877 253.627877 
L 168.267079 249.179223 
L 168.642281 254.329049 
L 169.017483 254.519806 
L 169.392684 252.414315 
L 169.767886 253.749866 
L 170.143088 251.338548 
L 170.518289 254.127138 
L 170.893491 254.233216 
L 171.268693 257.094876 
L 171.643895 254.931568 
L 172.019096 254.685477 
L 172.394298 256.410389 
L 172.7695 254.860579 
L 173.144701 257.284123 
L 173.519903 256.665192 
L 173.895105 256.948483 
L 174.270307 259.239587 
L 174.645508 260.681337 
L 175.02071 260.480927 
L 175.395912 260.837202 
L 175.771114 262.143504 
L 176.146315 260.595192 
L 176.521517 259.885166 
L 176.896719 261.384214 
L 177.27192 259.749375 
L 177.647122 260.0365 
L 178.022324 261.863283 
L 178.397526 262.44774 
L 178.772727 259.944539 
L 179.147929 260.078044 
L 179.523131 260.510295 
L 179.898332 262.040026 
L 180.273534 262.636303 
L 180.648736 261.264199 
L 181.023938 261.941151 
L 181.399139 262.98822 
L 181.774341 260.043053 
L 182.149543 263.931346 
L 182.524744 265.468684 
L 183.275148 262.502833 
L 183.65035 263.085674 
L 184.025551 268.071748 
L 184.400753 263.520942 
L 184.775955 262.760081 
L 185.151157 267.703639 
L 185.526358 266.297647 
L 185.90156 267.897003 
L 186.276762 268.517347 
L 186.651963 266.610605 
L 187.027165 263.063244 
L 187.402367 263.953063 
L 187.777569 266.348826 
L 188.527972 267.70788 
L 189.278375 265.887645 
L 189.653577 264.450962 
L 190.028779 266.052705 
L 190.403981 266.229266 
L 190.779182 267.632183 
L 191.154384 267.9951 
L 191.529586 268.040778 
L 191.904788 267.370443 
L 192.279989 269.239376 
L 192.655191 268.641292 
L 193.030393 270.666948 
L 193.405594 267.729399 
L 193.780796 269.588197 
L 194.155998 270.138874 
L 194.5312 272.388975 
L 194.906401 269.455289 
L 195.281603 271.894776 
L 195.656805 271.402761 
L 196.032006 269.643009 
L 196.407208 270.08734 
L 196.78241 270.316108 
L 197.157612 270.855303 
L 197.532813 270.924266 
L 197.908015 273.975122 
L 198.283217 274.477271 
L 198.658419 271.552443 
L 199.03362 270.948522 
L 199.408822 272.385738 
L 199.784024 273.154368 
L 200.159225 271.984095 
L 200.534427 271.92637 
L 200.909629 273.068066 
L 201.284831 272.472388 
L 201.660032 273.798099 
L 202.035234 272.627089 
L 202.410436 272.435236 
L 202.785637 271.787385 
L 203.160839 273.960045 
L 203.911243 272.545891 
L 204.286444 270.145889 
L 204.661646 272.850095 
L 205.036848 274.525373 
L 205.412049 274.081112 
L 205.787251 274.002037 
L 206.162453 275.66556 
L 206.537655 275.40636 
L 206.912856 273.863238 
L 207.66326 272.4619 
L 208.038462 275.362847 
L 208.413663 274.900064 
L 208.788865 275.556495 
L 209.164067 274.126863 
L 209.539268 276.102832 
L 209.91447 274.916885 
L 211.040075 277.753077 
L 211.415277 277.205685 
L 211.790479 275.31694 
L 212.16568 274.864397 
L 212.540882 277.419765 
L 212.916084 275.530511 
L 213.291286 275.964527 
L 213.666487 277.278798 
L 214.041689 277.243062 
L 214.416891 278.126885 
L 214.792093 278.52869 
L 215.167294 279.25978 
L 215.542496 278.0135 
L 215.917698 277.553119 
L 216.292899 277.555676 
L 216.668101 276.760973 
L 217.043303 278.595514 
L 217.418505 275.603632 
L 217.793706 277.73673 
L 218.168908 279.094925 
L 218.54411 276.789239 
L 218.919311 278.810207 
L 220.044917 277.285795 
L 220.79532 279.278468 
L 221.170522 278.539095 
L 221.545724 278.688756 
L 221.920925 277.97694 
L 222.296127 277.615725 
L 222.671329 278.306128 
L 223.04653 279.824909 
L 223.421732 278.902808 
L 223.796934 280.787166 
L 224.172136 276.912955 
L 224.547337 279.803364 
L 224.922539 277.675512 
L 225.672942 281.712463 
L 226.048144 278.519141 
L 226.423346 280.038725 
L 226.798548 280.591927 
L 227.173749 279.014285 
L 227.548951 281.107103 
L 227.924153 280.446695 
L 228.299354 278.599748 
L 228.674556 280.61005 
L 229.049758 280.342444 
L 229.42496 281.388125 
L 229.800161 278.875321 
L 230.175363 282.715579 
L 230.550565 281.042826 
L 230.925767 282.099681 
L 231.300968 281.567832 
L 231.67617 279.591945 
L 232.051372 281.075591 
L 232.426573 278.046166 
L 232.801775 279.561199 
L 233.176977 280.325343 
L 233.552179 283.139898 
L 233.92738 283.049879 
L 234.302582 280.462957 
L 234.677784 280.573383 
L 235.052985 280.87638 
L 235.428187 281.993962 
L 235.803389 279.431241 
L 236.178591 279.768632 
L 236.553792 279.139236 
L 236.928994 281.983038 
L 237.304196 278.597088 
L 237.679398 281.00951 
L 238.054599 281.446204 
L 238.429801 282.487754 
L 238.805003 282.734245 
L 239.180204 283.394255 
L 239.555406 282.608243 
L 239.930608 283.755714 
L 240.30581 281.969328 
L 240.681011 281.026642 
L 241.056213 281.908567 
L 241.431415 284.011192 
L 241.806616 282.737015 
L 242.181818 283.124497 
L 242.55702 278.278511 
L 243.307423 282.122325 
L 243.682625 282.730142 
L 244.057827 281.242707 
L 244.433029 280.250551 
L 245.183432 285.559398 
L 245.558634 282.423769 
L 245.933835 282.311234 
L 246.309037 283.962672 
L 246.684239 282.255557 
L 247.059441 284.450321 
L 247.434642 283.37056 
L 247.809844 285.409114 
L 248.185046 281.257611 
L 248.560247 282.633819 
L 248.935449 281.569147 
L 249.310651 283.388659 
L 249.685853 283.921674 
L 250.061054 281.4586 
L 250.436256 284.012048 
L 250.811458 282.004119 
L 251.186659 285.074401 
L 251.561861 283.703823 
L 251.937063 284.816312 
L 252.312265 283.865819 
L 252.687466 286.32167 
L 253.062668 287.062145 
L 253.43787 282.904575 
L 253.813072 282.370722 
L 254.563475 283.589155 
L 254.938677 284.933411 
L 255.313878 284.945101 
L 255.68908 283.894779 
L 256.064282 282.33461 
L 256.439484 284.302216 
L 256.814685 285.37566 
L 257.189887 284.409435 
L 257.565089 281.410448 
L 257.94029 284.768126 
L 258.315492 284.843841 
L 258.690694 284.367734 
L 259.065896 286.134236 
L 259.441097 284.843262 
L 259.816299 285.569286 
L 260.191501 284.620155 
L 260.566703 286.898155 
L 261.317106 283.719268 
L 261.692308 286.170064 
L 262.067509 283.09969 
L 262.442711 284.649633 
L 262.817913 284.220792 
L 263.193115 285.428122 
L 263.568316 282.701475 
L 263.943518 285.51324 
L 264.31872 283.046077 
L 264.693921 286.221376 
L 265.069123 283.902945 
L 265.444325 285.714383 
L 265.819527 284.070973 
L 266.194728 286.086551 
L 266.56993 286.699996 
L 266.945132 285.278622 
L 267.320334 285.511067 
L 267.695535 283.311753 
L 268.070737 288.20046 
L 268.445939 285.827744 
L 268.82114 285.399184 
L 269.196342 287.03873 
L 269.571544 284.89373 
L 269.946746 286.682899 
L 270.321947 286.427983 
L 270.697149 285.378874 
L 271.072351 286.208812 
L 271.447552 287.70159 
L 271.822754 285.082773 
L 272.197956 285.262131 
L 272.573158 286.726662 
L 273.323561 287.574222 
L 273.698763 284.857533 
L 274.073964 286.087949 
L 274.449166 285.896217 
L 274.824368 286.195307 
L 275.19957 285.531456 
L 275.574771 288.786327 
L 275.949973 285.004117 
L 276.325175 286.309771 
L 276.700377 287.06122 
L 277.075578 287.240799 
L 277.45078 286.113971 
L 277.825982 286.219415 
L 278.201183 288.593673 
L 278.576385 286.794909 
L 278.951587 289.12539 
L 279.326789 288.541503 
L 279.70199 287.087037 
L 280.077192 288.578465 
L 280.452394 287.254677 
L 280.827595 287.532153 
L 281.202797 288.068291 
L 281.577999 287.469082 
L 281.953201 288.203103 
L 282.328402 287.851764 
L 282.703604 286.749917 
L 283.078806 288.002244 
L 283.454008 283.596883 
L 283.829209 288.577981 
L 284.204411 287.586722 
L 284.579613 287.741699 
L 284.954814 287.286479 
L 285.705218 287.392137 
L 286.08042 288.241968 
L 286.455621 286.235661 
L 286.830823 287.170831 
L 287.206025 288.826211 
L 287.581226 285.75041 
L 287.956428 289.088197 
L 288.33163 285.940345 
L 288.706832 289.873208 
L 289.082033 288.763543 
L 289.457235 289.642537 
L 290.207639 287.891785 
L 290.58284 287.810997 
L 290.958042 288.417626 
L 291.333244 286.315067 
L 291.708445 288.180163 
L 292.083647 288.468307 
L 292.458849 285.772895 
L 293.209252 289.729144 
L 293.584454 287.74086 
L 293.959656 287.887153 
L 294.334857 290.333951 
L 294.710059 289.087569 
L 295.085261 285.576733 
L 295.460463 290.905702 
L 295.835664 287.870886 
L 296.586068 289.074094 
L 296.961269 288.601564 
L 297.336471 287.717211 
L 297.711673 288.886884 
L 298.086875 285.978554 
L 298.462076 289.792208 
L 299.21248 285.903016 
L 299.962883 287.303348 
L 300.338085 291.102535 
L 300.713287 287.340968 
L 301.088488 288.778578 
L 301.46369 287.958681 
L 301.838892 289.225819 
L 302.214094 287.415246 
L 302.589295 289.733586 
L 302.964497 286.702651 
L 303.339699 288.125927 
L 303.7149 288.703091 
L 304.090102 289.637879 
L 304.465304 290.128821 
L 304.840506 287.685585 
L 305.215707 287.195839 
L 305.590909 287.724014 
L 305.966111 290.258484 
L 306.341313 289.49204 
L 306.716514 287.963416 
L 307.091716 289.151002 
L 307.466918 288.850957 
L 307.842119 289.466 
L 308.217321 289.334604 
L 308.592523 287.531859 
L 308.967725 287.653626 
L 309.342926 287.548623 
L 309.718128 290.478465 
L 310.09333 289.633295 
L 310.468531 289.453607 
L 310.843733 289.718681 
L 311.218935 290.94411 
L 311.594137 290.22927 
L 311.969338 289.050491 
L 312.34454 289.259813 
L 312.719742 287.377648 
L 313.094944 289.56647 
L 313.470145 289.729123 
L 313.845347 289.241741 
L 314.220549 291.528373 
L 314.59575 287.872215 
L 314.970952 290.143179 
L 315.346154 290.213824 
L 315.721356 289.416026 
L 316.096557 288.982666 
L 316.471759 292.872969 
L 316.846961 290.119378 
L 317.222162 289.511449 
L 317.597364 292.104233 
L 318.722969 288.347711 
L 319.098171 290.090548 
L 319.473373 290.546155 
L 319.848575 288.644876 
L 320.223776 290.211497 
L 320.598978 288.556461 
L 320.97418 290.302894 
L 321.349381 292.802182 
L 321.724583 288.088574 
L 322.850188 291.191474 
L 323.22539 290.685364 
L 323.600592 289.924056 
L 323.975793 287.953853 
L 324.350995 288.143459 
L 324.726197 291.142293 
L 325.101399 289.871974 
L 325.4766 289.104455 
L 325.851802 287.008682 
L 326.602205 288.749091 
L 326.977407 290.679144 
L 327.352609 289.424135 
L 327.727811 290.263426 
L 328.103012 289.322607 
L 328.478214 288.702809 
L 328.853416 289.120336 
L 329.228618 290.35027 
L 329.603819 290.285954 
L 329.979021 289.626303 
L 330.354223 289.698138 
L 330.729424 291.01642 
L 331.479828 290.879251 
L 331.85503 291.86267 
L 332.230231 291.740307 
L 332.605433 291.866731 
L 332.980635 290.267772 
L 333.355836 291.630255 
L 333.731038 290.019292 
L 334.10624 292.187411 
L 334.856643 289.883483 
L 335.231845 289.965544 
L 335.982249 292.189505 
L 336.35745 290.856395 
L 336.732652 291.7095 
L 337.107854 291.96781 
L 337.483055 290.699696 
L 337.858257 292.390495 
L 338.233459 290.815896 
L 338.608661 291.905161 
L 338.983862 292.521738 
L 339.359064 291.611117 
L 339.734266 291.738234 
L 340.109467 289.864043 
L 340.484669 290.046895 
L 340.859871 291.12597 
L 341.235073 288.914058 
L 341.610274 291.265502 
L 341.985476 292.226878 
L 342.360678 292.35613 
L 342.73588 290.03185 
L 343.111081 289.583126 
L 343.861485 291.941003 
L 344.236686 291.314182 
L 344.611888 291.371043 
L 344.98709 289.397449 
L 345.362292 292.459771 
L 345.737493 292.4181 
L 346.487897 290.452499 
L 346.863098 292.225618 
L 347.2383 289.236141 
L 347.988704 291.842535 
L 348.363905 289.077188 
L 348.739107 291.079272 
L 349.114309 291.973364 
L 349.48951 292.100241 
L 349.864712 293.098445 
L 350.239914 292.167923 
L 350.615116 290.567472 
L 350.990317 291.494129 
L 351.365519 292.041666 
L 351.740721 290.29069 
L 352.491124 293.178904 
L 352.866326 293.386812 
L 353.241528 290.031859 
L 353.616729 291.322777 
L 353.991931 290.929873 
L 354.367133 291.762208 
L 354.742335 291.572789 
L 355.117536 289.369978 
L 355.492738 292.476101 
L 355.86794 290.176521 
L 356.243141 292.163921 
L 356.618343 290.652149 
L 356.993545 292.806718 
L 357.368747 293.242541 
L 357.743948 291.683251 
L 358.11915 293.731762 
L 358.869554 290.574799 
L 359.244755 290.311165 
L 359.619957 291.44863 
L 359.995159 292.106638 
L 360.37036 292.364434 
L 361.120764 291.794412 
L 361.495966 292.068532 
L 361.871167 292.774667 
L 362.246369 289.875474 
L 362.621571 289.002058 
L 362.996772 292.655515 
L 363.371974 290.539067 
L 363.747176 292.954562 
L 364.122378 292.936951 
L 364.497579 293.625148 
L 365.623185 290.972623 
L 365.998386 292.587238 
L 366.373588 293.355554 
L 366.74879 291.599517 
L 367.123991 293.335322 
L 367.499193 294.528499 
L 368.249597 291.960964 
L 368.624798 291.501609 
L 369 291.304136 
L 369.750403 295.129465 
L 370.125605 291.788457 
L 370.500807 292.569275 
L 370.876009 292.968767 
L 371.25121 292.132954 
L 371.626412 295.009594 
L 372.001614 292.534691 
L 372.376815 292.8909 
L 372.752017 293.551669 
L 373.127219 293.17209 
L 373.502421 294.552549 
L 374.628026 289.59263 
L 375.003228 290.774459 
L 375.378429 292.588365 
L 375.753631 292.066818 
L 376.128833 294.608313 
L 376.504034 292.225704 
L 376.879236 294.117845 
L 377.254438 290.526621 
L 377.62964 292.462991 
L 378.004841 295.376911 
L 378.380043 292.703589 
L 378.755245 294.516241 
L 379.130446 292.551007 
L 379.505648 294.156707 
L 380.256052 292.213583 
L 380.631253 295.014959 
L 381.006455 293.715652 
L 381.381657 294.354876 
L 381.756859 291.029251 
L 382.13206 292.319377 
L 382.507262 292.551454 
L 382.882464 291.910332 
L 383.257665 293.790612 
L 383.632867 293.021715 
L 384.008069 293.278888 
L 384.383271 294.38252 
L 385.133674 290.911451 
L 385.508876 293.029518 
L 386.259279 292.470191 
L 386.634481 293.530833 
L 387.009683 295.053298 
L 387.384884 294.70769 
L 387.760086 291.756165 
L 388.135288 294.752215 
L 388.51049 292.337105 
L 388.885691 293.81723 
L 389.260893 294.397148 
L 389.636095 293.328258 
L 390.011296 294.844386 
L 390.7617 292.472041 
L 391.136902 295.458971 
L 391.512103 293.01147 
L 391.887305 293.247462 
L 392.262507 293.346521 
L 392.637708 293.564507 
L 393.01291 291.22684 
L 393.388112 293.660838 
L 393.763314 294.036594 
L 394.138515 293.812747 
L 394.513717 294.108125 
L 394.888919 293.852978 
L 395.26412 294.35923 
L 395.639322 292.367088 
L 396.014524 293.116157 
L 396.389726 293.39687 
L 396.764927 293.271563 
L 397.140129 292.65237 
L 397.515331 292.410874 
L 397.890533 292.540291 
L 398.265734 291.710426 
L 398.640936 293.696652 
L 399.016138 293.399192 
L 399.391339 294.452496 
L 399.766541 292.929241 
L 400.141743 294.192593 
L 400.892146 293.577392 
L 401.267348 294.85836 
L 401.64255 290.825013 
L 402.017751 293.362807 
L 402.392953 295.129023 
L 402.768155 293.103063 
L 403.143357 294.422148 
L 403.518558 293.144672 
L 403.89376 294.206464 
L 404.268962 296.002126 
L 404.644164 291.443503 
L 405.019365 295.970583 
L 405.394567 293.231996 
L 405.769769 294.313383 
L 406.14497 296.290894 
L 406.520172 294.033774 
L 406.895374 296.753963 
L 407.270576 292.169894 
L 407.645777 294.021138 
L 408.020979 293.158823 
L 408.396181 294.222416 
L 408.771382 292.488594 
L 409.146584 296.984033 
L 409.521786 296.307416 
L 409.896988 292.750869 
L 410.272189 294.015924 
L 410.647391 293.662179 
L 411.022593 296.591313 
L 411.397795 293.701327 
L 411.772996 295.158886 
L 412.148198 294.410856 
L 412.5234 294.431086 
L 412.898601 294.21719 
L 413.273803 293.313814 
L 413.649005 295.109308 
L 414.024207 292.251684 
L 414.399408 295.608803 
L 414.77461 295.994032 
L 415.149812 294.050284 
L 415.525013 293.813936 
L 415.900215 292.875392 
L 416.275417 295.62081 
L 416.650619 294.542226 
L 417.02582 291.866854 
L 417.401022 293.143969 
L 417.776224 296.420336 
L 418.151425 294.422945 
L 418.526627 295.246024 
L 418.901829 294.949637 
L 419.277031 293.706265 
L 419.652232 294.493982 
L 420.027434 295.682543 
L 420.402636 293.840196 
L 420.777838 296.440248 
L 421.153039 293.695539 
L 421.528241 294.101285 
L 421.903443 293.188251 
L 422.278644 291.322221 
L 422.653846 293.889805 
L 423.029048 293.242156 
L 423.40425 294.650284 
L 423.779451 293.104321 
L 424.154653 293.971489 
L 424.529855 294.168903 
L 424.905056 295.042203 
L 425.280258 294.976534 
L 425.65546 294.282865 
L 426.030662 294.28719 
L 426.405863 297.719985 
L 426.781065 294.433953 
L 427.156267 294.684867 
L 427.531469 293.909923 
L 427.90667 296.078596 
L 428.281872 295.140553 
L 428.657074 292.957578 
L 429.032275 294.996675 
L 429.407477 294.684426 
L 429.782679 294.915914 
L 430.157881 295.888511 
L 430.533082 294.313199 
L 430.908284 295.397215 
L 431.658687 294.895865 
L 432.033889 295.528706 
L 432.409091 294.100302 
L 432.784293 293.833973 
L 433.159494 296.400661 
L 433.534696 295.205262 
L 433.909898 295.111245 
L 434.2851 294.553316 
L 434.660301 295.005161 
L 435.035503 296.20403 
L 435.410705 295.539981 
L 435.785906 296.575458 
L 436.161108 294.091681 
L 436.53631 294.719594 
L 436.911512 293.653142 
L 437.286713 297.132129 
L 437.661915 296.69914 
L 438.037117 294.131863 
L 438.412318 296.067521 
L 438.78752 295.659976 
L 439.162722 295.606333 
L 439.537924 294.51452 
L 439.913125 294.87776 
L 440.288327 296.71969 
L 440.663529 294.549482 
L 441.038731 294.785702 
L 441.413932 295.670557 
L 441.789134 294.607351 
L 442.164336 295.612619 
L 442.539537 295.000918 
L 442.914739 293.637005 
L 443.289941 296.116926 
L 443.665143 293.168789 
L 444.040344 294.57975 
L 444.415546 296.550645 
L 444.790748 295.898174 
L 445.165949 294.438345 
L 445.541151 296.148358 
L 445.916353 295.199606 
L 446.291555 296.476759 
L 447.041958 294.787952 
L 447.792361 294.638546 
L 448.167563 295.996015 
L 448.542765 293.694084 
L 448.917967 297.065057 
L 449.293168 297.308763 
L 449.66837 296.069277 
L 450.043572 296.690586 
L 450.418774 297.944771 
L 450.793975 293.820653 
L 451.169177 295.313505 
L 451.544379 295.782405 
L 451.91958 295.972813 
L 452.294782 294.70277 
L 452.669984 297.766087 
L 453.045186 295.918889 
L 453.420387 297.087023 
L 453.795589 293.241273 
L 454.170791 295.196544 
L 454.545992 295.200718 
L 454.921194 294.747907 
L 455.296396 295.195136 
L 455.671598 297.848367 
L 456.046799 298.031991 
L 456.422001 296.098136 
L 456.797203 297.206704 
L 457.172405 297.121929 
L 457.547606 296.724954 
L 457.922808 295.744754 
L 458.29801 296.227555 
L 458.673211 295.354274 
L 459.048413 295.139889 
L 459.798817 295.874467 
L 460.174018 295.74483 
L 460.54922 296.828149 
L 460.924422 296.445685 
L 461.299623 295.163141 
L 461.674825 297.140239 
L 462.050027 293.994241 
L 462.425229 296.066143 
L 462.80043 296.328237 
L 463.175632 296.095657 
L 463.550834 295.259439 
L 463.926036 296.332337 
L 464.301237 295.694579 
L 464.676439 296.884169 
L 465.051641 295.174141 
L 465.426842 295.291651 
L 465.802044 294.255431 
L 466.177246 295.50541 
L 466.552448 294.489214 
L 466.927649 296.524781 
L 467.302851 296.266341 
L 467.678053 298.381205 
L 468.053254 298.753162 
L 468.428456 298.268881 
L 468.803658 296.653549 
L 469.17886 299.31388 
L 469.554061 295.701926 
L 469.929263 295.520418 
L 470.304465 293.827697 
L 470.679666 296.652934 
L 471.054868 296.525285 
L 471.43007 299.667171 
L 471.805272 294.658637 
L 472.180473 296.23215 
L 472.555675 293.974134 
L 472.930877 297.244674 
L 473.306079 296.784128 
L 473.68128 297.086894 
L 474.056482 295.525994 
L 474.806885 296.287854 
L 475.182087 295.314543 
L 475.557289 293.682254 
L 475.932491 297.839577 
L 476.307692 296.937962 
L 476.682894 293.618819 
L 477.058096 296.53359 
L 477.433297 296.868159 
L 477.808499 295.863916 
L 478.183701 295.367772 
L 478.934104 299.221894 
L 479.309306 295.876963 
L 479.684508 295.26774 
L 480.05971 296.947147 
L 480.434911 297.340213 
L 480.810113 293.773674 
L 481.185315 295.377497 
L 481.560516 298.749827 
L 481.935718 297.834136 
L 482.31092 296.026129 
L 482.686122 297.666758 
L 483.061323 294.254132 
L 483.436525 297.996967 
L 483.811727 295.848542 
L 484.186928 297.709854 
L 484.56213 296.00834 
L 484.937332 296.678012 
L 485.312534 296.531538 
L 485.687735 296.567338 
L 486.062937 298.271389 
L 486.438139 296.884909 
L 486.813341 298.553366 
L 487.188542 296.612747 
L 487.563744 298.215014 
L 487.938946 295.474374 
L 488.314147 298.16306 
L 488.689349 297.37994 
L 489.064551 295.812556 
L 489.439753 295.727908 
L 489.814954 297.250782 
L 490.190156 298.072392 
L 490.565358 298.546878 
L 490.940559 298.654506 
L 491.315761 298.087442 
L 491.690963 297.815931 
L 492.066165 296.033079 
L 492.441366 297.095773 
L 492.816568 296.36125 
L 493.19177 296.849471 
L 493.566971 297.74107 
L 493.942173 296.398267 
L 494.317375 296.930798 
L 494.692577 297.85629 
L 495.067778 296.130218 
L 495.44298 298.799053 
L 495.818182 296.269644 
L 496.193384 294.89279 
L 496.568585 294.239075 
L 496.943787 296.602813 
L 497.318989 296.886476 
L 497.69419 296.659473 
L 498.069392 295.576486 
L 498.444594 295.58223 
L 498.819796 295.806522 
L 499.194997 296.710802 
L 499.570199 296.335244 
L 499.945401 297.164251 
L 500.320602 295.719347 
L 500.695804 297.271974 
L 501.071006 294.743648 
L 501.446208 295.478231 
L 501.821409 297.516598 
L 502.196611 296.895254 
L 502.571813 298.041867 
L 502.947015 295.511391 
L 503.322216 298.970215 
L 503.697418 295.966742 
L 504.07262 297.413036 
L 504.447821 295.965481 
L 504.823023 298.151116 
L 505.198225 295.689993 
L 505.573427 297.320799 
L 506.32383 298.776243 
L 506.699032 298.054112 
L 507.074233 296.150135 
L 507.449435 297.442195 
L 507.824637 294.940607 
L 508.57504 298.098518 
L 508.950242 294.636633 
L 509.325444 298.413025 
L 509.700646 295.481219 
L 510.075847 297.224058 
L 510.451049 297.607057 
L 510.826251 295.581062 
L 511.201452 295.225301 
L 511.576654 296.13175 
L 511.951856 299.145751 
L 512.327058 296.049028 
L 512.702259 299.386707 
L 513.077461 296.818927 
L 513.452663 298.345412 
L 513.827864 296.761592 
L 514.203066 298.560591 
L 514.578268 296.539623 
L 514.95347 299.039414 
L 515.328671 297.150368 
L 515.703873 298.450535 
L 516.079075 298.565227 
L 516.454276 296.644276 
L 516.829478 297.527869 
L 517.20468 296.718975 
L 517.579882 297.922229 
L 517.955083 297.339173 
L 518.330285 297.799145 
L 519.080689 295.898912 
L 519.831092 298.154528 
L 520.206294 296.480596 
L 520.581495 298.141909 
L 520.956697 296.228353 
L 521.331899 296.977855 
L 521.707101 298.517727 
L 522.082302 296.461027 
L 522.457504 296.685908 
L 522.832706 295.982048 
L 523.207907 296.809878 
L 523.583109 296.758776 
L 523.958311 297.171552 
L 524.333513 295.801384 
L 524.708714 297.3154 
L 525.083916 297.889931 
L 525.459118 299.750888 
L 525.83432 298.889569 
L 526.209521 297.658407 
L 526.584723 298.506971 
L 526.959925 298.071747 
L 527.335126 298.355502 
L 527.710328 297.482129 
L 528.08553 298.25699 
L 528.460732 296.420878 
L 528.835933 297.902334 
L 529.961538 298.673424 
L 530.33674 296.94324 
L 530.711942 296.944959 
L 531.087144 298.661344 
L 531.462345 299.212439 
L 532.212749 298.488542 
L 532.587951 297.023273 
L 532.963152 298.01108 
L 533.338354 296.175443 
L 533.713556 296.452678 
L 534.088757 296.991622 
L 534.463959 296.750464 
L 534.839161 296.103138 
L 535.589564 300.045806 
L 535.964766 297.273604 
L 536.339968 298.87916 
L 536.715169 297.46404 
L 537.465573 300.205055 
L 537.840775 298.59162 
L 538.215976 299.943283 
L 538.591178 298.727193 
L 538.96638 299.968645 
L 539.341581 297.290075 
L 539.716783 300.555539 
L 540.091985 297.724013 
L 540.467187 298.94712 
L 540.842388 297.260111 
L 541.21759 299.143092 
L 541.592792 297.471814 
L 541.967994 296.621512 
L 542.343195 298.006423 
L 542.718397 297.460263 
L 543.093599 296.549722 
L 543.4688 298.680516 
L 543.844002 299.087592 
L 544.219204 297.538547 
L 544.594406 298.274263 
L 544.969607 299.491021 
L 545.344809 297.420518 
L 545.720011 297.418282 
L 546.845616 299.648004 
L 547.596019 296.778719 
L 547.971221 296.571569 
L 548.346423 299.969674 
L 548.721625 298.629213 
L 549.096826 299.499395 
L 549.472028 297.825771 
L 549.84723 297.213128 
L 550.222431 296.263457 
L 550.597633 297.289317 
L 550.972835 299.590762 
L 551.348037 297.537228 
L 551.723238 298.270566 
L 552.09844 296.634509 
L 552.473642 295.718068 
L 552.848843 297.824093 
L 553.224045 296.869833 
L 553.599247 298.50613 
L 553.974449 298.165822 
L 554.34965 296.343719 
L 554.724852 296.969451 
L 555.100054 298.683607 
L 555.475256 297.622596 
L 555.850457 297.819758 
L 556.225659 296.401242 
L 556.600861 299.603551 
L 556.976062 299.839505 
L 557.351264 299.592275 
L 558.101668 297.236016 
L 558.476869 294.664093 
L 558.852071 297.295984 
L 559.227273 297.495035 
L 559.977676 299.462847 
L 560.352878 298.203368 
L 560.72808 299.344066 
L 561.103281 296.619676 
L 561.478483 298.918603 
L 561.853685 300.263601 
L 562.228886 298.901168 
L 562.604088 301.118222 
L 562.97929 298.531726 
L 563.354492 297.814209 
L 563.729693 299.274509 
L 564.104895 300.027885 
L 564.480097 299.935105 
L 564.855299 298.731634 
L 565.2305 296.546498 
L 565.605702 298.190205 
L 565.980904 296.521832 
L 566.356105 298.358334 
L 566.731307 297.553226 
L 567.106509 297.257236 
L 567.481711 295.643733 
L 567.856912 294.822917 
L 568.232114 297.869259 
L 568.607316 297.097444 
L 568.982517 297.346413 
L 569.357719 297.729054 
L 569.732921 298.451795 
L 570.108123 297.568684 
L 570.483324 299.240389 
L 570.858526 298.977896 
L 571.233728 301.462694 
L 571.60893 299.777343 
L 571.984131 300.227563 
L 572.359333 299.15811 
L 572.734535 296.647931 
L 573.109736 297.935166 
L 573.484938 297.530128 
L 573.86014 296.063579 
L 574.235342 299.28004 
L 574.610543 299.494547 
L 574.985745 300.363506 
L 575.360947 297.602696 
L 575.736148 300.113318 
L 576.11135 297.954839 
L 576.486552 298.425926 
L 576.861754 299.838453 
L 577.236955 297.612808 
L 577.612157 297.616749 
L 577.987359 299.403024 
L 578.362561 296.612126 
L 578.737762 297.573505 
L 579.112964 300.181246 
L 579.488166 296.032176 
L 580.238569 300.060658 
L 580.613771 297.522442 
L 580.988973 299.132016 
L 581.364174 296.900586 
L 582.114578 299.166253 
L 582.864981 298.611812 
L 583.240183 300.507111 
L 583.990586 295.52549 
L 584.365788 296.894406 
L 584.74099 298.729027 
L 585.116192 299.99676 
L 585.491393 300.762851 
L 585.866595 298.280344 
L 586.241797 299.493412 
L 586.616998 299.772174 
L 586.9922 296.281326 
L 587.367402 299.568038 
L 587.742604 299.926114 
L 588.493007 296.046377 
L 588.868209 297.662974 
L 589.24341 298.516126 
L 589.618612 300.303631 
L 589.993814 300.308935 
L 590.369016 298.990834 
L 590.744217 298.714437 
L 591.119419 299.250405 
L 591.494621 299.27213 
L 591.869822 298.273128 
L 592.245024 297.999472 
L 592.995428 298.489455 
L 593.370629 298.199572 
L 593.745831 299.957285 
L 594.121033 296.578104 
L 594.496235 298.535105 
L 594.871436 298.727147 
L 595.246638 300.524207 
L 595.62184 299.39809 
L 595.997041 297.648713 
L 596.372243 300.075511 
L 596.747445 299.424658 
L 597.122647 300.82657 
L 597.497848 297.43859 
L 597.87305 297.319483 
L 598.248252 300.112044 
L 598.623453 298.262213 
L 598.998655 298.014031 
L 599.373857 299.518279 
L 599.749059 296.524849 
L 600.499462 298.174618 
L 600.874664 298.096155 
L 601.249866 300.782588 
L 602.000269 298.50584 
L 602.375471 299.889251 
L 602.750672 297.838529 
L 603.125874 300.096946 
L 603.501076 298.766474 
L 603.876278 300.027918 
L 604.251479 298.579095 
L 605.001883 299.121998 
L 605.377084 301.095482 
L 605.752286 298.672248 
L 606.127488 298.440646 
L 606.50269 300.348435 
L 606.877891 300.232617 
L 607.253093 299.250763 
L 607.628295 299.682847 
L 608.003497 299.777835 
L 608.378698 300.540354 
L 608.7539 299.97521 
L 609.129102 298.114612 
L 609.504303 298.151259 
L 609.879505 302.645455 
L 610.254707 300.223982 
L 610.629909 298.58055 
L 611.00511 299.44117 
L 611.380312 299.385458 
L 611.755514 300.512926 
L 612.130715 299.062027 
L 612.505917 298.955631 
L 612.881119 300.531033 
L 613.256321 299.518104 
L 613.631522 299.559751 
L 614.006724 298.882334 
L 614.381926 302.103964 
L 614.757127 299.607389 
L 615.132329 300.676042 
L 615.507531 298.529837 
L 615.882733 299.877392 
L 616.257934 296.559848 
L 616.633136 299.592516 
L 617.38354 299.144108 
L 617.758741 299.511708 
L 618.133943 300.20258 
L 618.509145 301.208035 
L 618.884346 298.294824 
L 619.259548 299.9005 
L 619.63475 299.137377 
L 620.009952 298.770633 
L 620.385153 299.267937 
L 620.760355 300.705685 
L 621.135557 297.569189 
L 621.510758 299.143826 
L 621.88596 299.610705 
L 622.261162 297.741296 
L 622.636364 301.403696 
L 622.636364 301.403696 
" style="fill:none;stroke:#1f77b4;stroke-linecap:square;stroke-width:0.5;"/>
   </g>
   <g id="line2d_34">
    <path clip-path="url(#pa01079f33a)" d="M 115.363636 58.131415 
L 115.738838 66.83156 
L 116.11404 65.826413 
L 116.489242 69.807492 
L 116.864443 70.292628 
L 117.239645 72.813935 
L 117.614847 74.506521 
L 117.990048 77.116631 
L 118.36525 75.391608 
L 118.740452 75.250934 
L 119.115654 76.639333 
L 119.490855 77.594717 
L 120.241259 80.468484 
L 120.61646 80.105784 
L 120.991662 79.912111 
L 121.366864 82.86004 
L 121.742066 82.505882 
L 122.492469 84.170485 
L 122.867671 85.899952 
L 123.242873 86.719067 
L 123.618074 88.276155 
L 123.993276 89.179055 
L 124.368478 90.44188 
L 124.743679 93.538082 
L 125.118881 93.082716 
L 125.494083 98.999256 
L 125.869285 98.571358 
L 126.244486 102.605894 
L 126.619688 105.070913 
L 126.99489 110.086761 
L 127.370091 111.303587 
L 127.745293 116.91497 
L 128.120495 120.310236 
L 128.870898 125.470994 
L 129.2461 134.036872 
L 129.621302 133.831955 
L 130.371705 144.428976 
L 130.746907 147.680734 
L 131.122109 152.866998 
L 131.49731 155.535348 
L 131.872512 156.262566 
L 132.247714 159.31855 
L 132.622916 159.72244 
L 132.998117 165.18378 
L 133.373319 165.426479 
L 134.498924 171.893825 
L 134.874126 171.148446 
L 135.624529 176.273179 
L 135.999731 179.321686 
L 136.374933 179.827628 
L 137.125336 183.62828 
L 137.500538 183.802564 
L 137.87574 187.022486 
L 138.626143 189.851193 
L 139.001345 193.448485 
L 139.376547 194.489238 
L 139.751748 196.794461 
L 140.12695 196.125743 
L 140.877353 198.555613 
L 141.252555 201.314531 
L 141.627757 205.07778 
L 142.002959 202.674941 
L 142.753362 208.216205 
L 143.128564 208.015779 
L 143.503765 211.797629 
L 143.878967 209.9463 
L 144.254169 212.781118 
L 144.629371 210.638711 
L 145.004572 213.38775 
L 145.379774 213.874445 
L 145.754976 215.399148 
L 146.130178 218.046765 
L 146.505379 218.581889 
L 146.880581 217.556333 
L 147.255783 218.746191 
L 147.630984 222.527925 
L 148.006186 220.373794 
L 148.381388 220.852117 
L 148.75659 220.232354 
L 149.131791 225.511783 
L 149.506993 226.128076 
L 149.882195 225.705149 
L 150.257396 225.839768 
L 150.632598 226.646472 
L 151.0078 225.137864 
L 151.383002 228.024698 
L 151.758203 229.63191 
L 152.133405 228.732037 
L 152.508607 229.9433 
L 152.883808 233.137609 
L 153.25901 232.635719 
L 153.634212 235.073914 
L 154.009414 231.543468 
L 154.384615 233.991915 
L 154.759817 235.536454 
L 155.135019 236.565622 
L 155.510221 238.024937 
L 155.885422 236.848266 
L 156.260624 239.245829 
L 156.635826 239.585924 
L 157.011027 238.349608 
L 157.386229 238.279254 
L 157.761431 239.146407 
L 158.136633 242.80584 
L 158.511834 240.287166 
L 158.887036 241.737949 
L 159.262238 242.388305 
L 159.637439 242.787641 
L 160.012641 243.844331 
L 160.387843 242.994598 
L 160.763045 241.523571 
L 161.138246 245.032042 
L 161.513448 244.986439 
L 161.88865 244.824066 
L 162.263852 244.980834 
L 162.639053 247.544186 
L 163.014255 247.697578 
L 163.389457 248.321081 
L 163.764658 251.214618 
L 164.13986 250.819759 
L 164.515062 249.387915 
L 164.890264 249.671932 
L 165.265465 251.25938 
L 165.640667 251.024932 
L 166.015869 248.199455 
L 166.766272 253.949582 
L 167.141474 251.617323 
L 167.516676 251.524502 
L 167.891877 252.783591 
L 168.267079 253.369679 
L 168.642281 256.006379 
L 169.017483 255.233385 
L 169.392684 253.908131 
L 169.767886 256.772738 
L 170.143088 257.611496 
L 170.518289 256.525058 
L 170.893491 256.819883 
L 171.268693 256.319059 
L 171.643895 257.247447 
L 172.019096 255.334772 
L 172.394298 258.581725 
L 172.7695 259.183252 
L 173.144701 257.982313 
L 173.519903 258.3118 
L 173.895105 257.513012 
L 174.270307 257.334246 
L 174.645508 260.371466 
L 175.02071 258.843771 
L 175.395912 262.22467 
L 176.146315 259.211791 
L 176.521517 261.796495 
L 176.896719 260.558636 
L 177.27192 262.736741 
L 177.647122 258.291345 
L 178.022324 261.766914 
L 178.397526 262.799539 
L 178.772727 263.24395 
L 179.147929 261.859102 
L 179.523131 263.471527 
L 179.898332 261.040702 
L 180.273534 261.45682 
L 180.648736 266.071828 
L 181.023938 262.301051 
L 181.399139 263.104221 
L 181.774341 262.017321 
L 182.149543 263.767124 
L 182.524744 261.99684 
L 182.899946 262.184276 
L 183.275148 265.6753 
L 183.65035 263.090116 
L 184.025551 264.70903 
L 184.400753 264.757234 
L 184.775955 263.573296 
L 185.526358 268.137964 
L 185.90156 264.467146 
L 186.276762 266.933884 
L 186.651963 267.902569 
L 187.027165 266.577442 
L 187.402367 268.134912 
L 187.777569 267.116143 
L 188.15277 267.437385 
L 188.527972 265.545669 
L 188.903174 268.919084 
L 189.278375 263.258856 
L 189.653577 268.164341 
L 190.403981 266.751864 
L 190.779182 268.696988 
L 191.154384 266.870356 
L 191.529586 267.160147 
L 191.904788 269.754777 
L 192.279989 270.669545 
L 192.655191 269.43331 
L 193.030393 269.4821 
L 193.405594 268.692049 
L 193.780796 268.72017 
L 194.5312 270.681357 
L 194.906401 271.164134 
L 195.281603 269.986837 
L 195.656805 272.24855 
L 196.032006 272.234182 
L 196.407208 271.793179 
L 196.78241 270.63333 
L 197.157612 271.102843 
L 197.532813 272.199367 
L 197.908015 270.636373 
L 198.283217 273.065153 
L 198.658419 273.094328 
L 199.03362 270.845787 
L 199.408822 273.384968 
L 199.784024 272.935591 
L 200.159225 269.479591 
L 200.909629 272.274297 
L 201.284831 271.893257 
L 201.660032 272.809806 
L 202.035234 272.13784 
L 202.410436 272.990684 
L 202.785637 273.555243 
L 203.160839 273.585815 
L 203.536041 271.479501 
L 203.911243 272.63946 
L 204.286444 272.381595 
L 204.661646 272.667678 
L 205.036848 273.699493 
L 205.412049 274.27959 
L 205.787251 272.938008 
L 206.162453 272.911865 
L 206.537655 272.533397 
L 206.912856 273.859327 
L 207.66326 273.207613 
L 208.038462 273.554188 
L 208.413663 275.764393 
L 208.788865 275.934219 
L 209.164067 274.820961 
L 209.539268 275.065632 
L 209.91447 274.188651 
L 210.289672 276.844258 
L 210.664874 275.773586 
L 211.040075 275.488591 
L 211.415277 274.979207 
L 211.790479 276.165226 
L 212.16568 275.116812 
L 212.540882 275.416934 
L 212.916084 273.666064 
L 213.291286 277.483363 
L 213.666487 275.099792 
L 214.041689 276.236139 
L 214.416891 275.874966 
L 214.792093 275.929408 
L 215.167294 276.64848 
L 215.542496 276.565168 
L 215.917698 278.318259 
L 216.292899 276.145228 
L 216.668101 277.265922 
L 217.043303 276.454466 
L 217.418505 273.574102 
L 217.793706 276.936563 
L 218.168908 276.583833 
L 218.54411 277.106643 
L 219.294513 276.628963 
L 219.669715 275.595694 
L 220.044917 278.520709 
L 220.420118 276.7143 
L 220.79532 278.520883 
L 221.170522 277.519062 
L 221.545724 276.994345 
L 221.920925 277.929083 
L 222.296127 275.824559 
L 222.671329 275.872297 
L 223.04653 282.175848 
L 223.421732 280.32755 
L 223.796934 276.770376 
L 224.172136 279.155838 
L 224.547337 280.655355 
L 225.297741 276.598727 
L 226.048144 280.849324 
L 226.423346 278.765946 
L 227.173749 281.391893 
L 227.548951 280.725084 
L 227.924153 280.620842 
L 228.299354 278.076683 
L 228.674556 279.558394 
L 229.049758 280.240928 
L 229.42496 280.180213 
L 229.800161 280.536578 
L 230.175363 280.029408 
L 230.550565 279.753854 
L 230.925767 280.459497 
L 231.300968 277.081267 
L 231.67617 277.606453 
L 232.426573 279.95633 
L 232.801775 278.994608 
L 233.176977 280.007789 
L 233.552179 278.673577 
L 233.92738 280.510688 
L 234.302582 280.143316 
L 234.677784 281.521029 
L 235.052985 280.214984 
L 235.428187 279.60332 
L 235.803389 278.338837 
L 236.178591 280.944003 
L 236.553792 279.05845 
L 236.928994 279.052941 
L 237.304196 280.673805 
L 237.679398 280.868825 
L 238.429801 280.119224 
L 238.805003 283.223511 
L 239.180204 279.933641 
L 239.555406 279.884833 
L 239.930608 279.324821 
L 240.30581 281.740388 
L 240.681011 280.467616 
L 241.056213 281.632812 
L 241.431415 283.309391 
L 242.181818 282.649013 
L 242.55702 283.270635 
L 243.307423 280.909057 
L 243.682625 282.210809 
L 244.057827 279.921975 
L 244.433029 280.618436 
L 244.80823 281.981185 
L 245.183432 281.611827 
L 245.558634 280.838103 
L 245.933835 280.459565 
L 246.684239 283.903452 
L 247.059441 281.250314 
L 247.809844 281.811138 
L 248.185046 280.977808 
L 248.560247 282.66323 
L 248.935449 281.941927 
L 249.310651 282.458169 
L 249.685853 281.72626 
L 250.061054 284.638668 
L 250.811458 281.785278 
L 251.186659 281.46115 
L 251.561861 283.372857 
L 251.937063 283.650982 
L 252.312265 283.599054 
L 252.687466 283.078577 
L 253.062668 279.969239 
L 253.43787 281.974926 
L 253.813072 281.043569 
L 254.188273 280.934254 
L 254.563475 281.441877 
L 254.938677 281.420103 
L 255.313878 280.089953 
L 255.68908 280.978016 
L 256.064282 285.247107 
L 256.814685 282.085239 
L 257.189887 282.042515 
L 257.565089 282.913716 
L 257.94029 285.512421 
L 258.315492 284.173383 
L 258.690694 280.667237 
L 259.065896 280.18117 
L 259.441097 280.486753 
L 259.816299 281.463253 
L 260.191501 281.638766 
L 260.566703 282.987986 
L 260.941904 281.473767 
L 261.317106 283.995938 
L 261.692308 284.271182 
L 262.067509 281.938409 
L 262.442711 283.281461 
L 262.817913 282.513437 
L 263.193115 283.20239 
L 263.568316 284.848702 
L 263.943518 285.566876 
L 264.693921 282.671408 
L 265.069123 282.836196 
L 265.444325 285.258278 
L 265.819527 284.469556 
L 266.194728 282.971559 
L 266.945132 284.584655 
L 267.695535 283.896819 
L 268.070737 286.087154 
L 268.445939 282.21506 
L 268.82114 285.475257 
L 269.196342 284.054826 
L 269.571544 283.325841 
L 269.946746 285.41191 
L 270.321947 283.30262 
L 270.697149 283.572669 
L 271.072351 284.510649 
L 271.447552 283.778604 
L 272.197956 283.143271 
L 272.573158 284.641583 
L 272.948359 284.794142 
L 273.323561 283.663331 
L 273.698763 283.73613 
L 274.073964 284.365834 
L 274.449166 284.139915 
L 275.19957 284.365507 
L 275.574771 283.106779 
L 275.949973 285.30048 
L 276.325175 284.112267 
L 276.700377 284.656106 
L 277.075578 282.992001 
L 277.45078 282.429183 
L 277.825982 283.406699 
L 278.201183 283.092834 
L 278.576385 282.989053 
L 278.951587 285.552215 
L 279.326789 283.994768 
L 279.70199 285.283426 
L 280.077192 284.407247 
L 280.452394 286.092339 
L 280.827595 284.257972 
L 281.202797 284.302719 
L 281.577999 284.802866 
L 281.953201 285.626322 
L 282.328402 284.118451 
L 282.703604 285.204634 
L 283.078806 281.779619 
L 283.454008 283.501903 
L 283.829209 283.628044 
L 284.204411 284.67574 
L 284.579613 284.783215 
L 284.954814 283.913798 
L 285.330016 285.999263 
L 285.705218 283.89419 
L 286.455621 286.845808 
L 286.830823 285.638618 
L 287.206025 285.596913 
L 287.581226 285.814521 
L 288.33163 284.010628 
L 289.082033 286.232071 
L 289.457235 285.590154 
L 289.832437 284.601513 
L 290.207639 284.266267 
L 290.58284 286.838119 
L 290.958042 283.859849 
L 291.333244 284.669315 
L 291.708445 286.499069 
L 292.083647 284.389895 
L 292.458849 283.942282 
L 292.834051 285.603135 
L 293.209252 286.283183 
L 293.584454 285.631986 
L 293.959656 285.258242 
L 294.334857 283.233346 
L 294.710059 285.50333 
L 295.085261 286.523247 
L 295.460463 285.565156 
L 295.835664 285.020165 
L 296.210866 285.852201 
L 296.586068 286.159649 
L 296.961269 283.963335 
L 297.711673 286.661185 
L 298.086875 284.948352 
L 298.462076 285.448603 
L 298.837278 287.587602 
L 299.21248 285.189773 
L 299.587682 287.993228 
L 299.962883 283.860964 
L 300.338085 285.389138 
L 300.713287 283.794925 
L 301.088488 284.346785 
L 301.46369 285.691473 
L 301.838892 285.884837 
L 302.214094 285.212818 
L 302.589295 287.286861 
L 302.964497 285.851858 
L 303.339699 288.113757 
L 303.7149 285.205016 
L 304.090102 284.19878 
L 304.465304 283.598007 
L 304.840506 283.764875 
L 305.215707 284.330182 
L 306.716514 288.137244 
L 307.091716 285.39032 
L 307.466918 284.966617 
L 308.217321 286.570569 
L 308.967725 284.832838 
L 309.342926 286.170593 
L 309.718128 285.808773 
L 310.09333 284.190517 
L 310.468531 284.895592 
L 311.218935 288.011888 
L 311.594137 286.644941 
L 311.969338 286.211481 
L 312.34454 286.592862 
L 312.719742 285.993267 
L 313.094944 285.791166 
L 313.470145 287.26343 
L 313.845347 286.505871 
L 314.220549 286.286018 
L 314.59575 287.773216 
L 314.970952 286.779922 
L 315.346154 288.24068 
L 315.721356 288.090887 
L 316.471759 287.034893 
L 316.846961 285.617441 
L 317.222162 286.152246 
L 317.597364 285.473062 
L 317.972566 281.819732 
L 318.347768 284.483089 
L 318.722969 289.381527 
L 319.098171 286.727809 
L 319.473373 287.278464 
L 320.598978 288.11336 
L 320.97418 285.571722 
L 321.349381 285.716769 
L 321.724583 285.990572 
L 322.099785 286.904389 
L 322.474987 286.16604 
L 322.850188 286.854209 
L 323.600592 284.455171 
L 323.975793 284.887053 
L 324.350995 284.762989 
L 324.726197 286.301637 
L 325.101399 287.127861 
L 325.4766 284.859046 
L 325.851802 284.967628 
L 326.227004 286.286123 
L 326.977407 287.511196 
L 327.727811 285.71949 
L 328.103012 287.445936 
L 328.478214 286.303127 
L 328.853416 289.505403 
L 329.228618 286.947846 
L 329.603819 286.232804 
L 329.979021 286.110746 
L 330.354223 287.397915 
L 330.729424 283.421603 
L 331.104626 288.176127 
L 331.479828 287.278095 
L 331.85503 285.803341 
L 332.230231 286.953297 
L 332.605433 286.796949 
L 332.980635 285.850368 
L 333.355836 285.58933 
L 333.731038 285.581066 
L 334.10624 287.292955 
L 334.481442 287.743796 
L 334.856643 285.087707 
L 335.231845 286.351468 
L 335.607047 286.938188 
L 335.982249 288.605962 
L 336.35745 287.263602 
L 336.732652 288.749819 
L 337.483055 287.29586 
L 337.858257 286.648602 
L 338.233459 286.895665 
L 338.608661 289.700273 
L 338.983862 287.640148 
L 339.359064 288.677561 
L 339.734266 286.53363 
L 340.109467 287.429921 
L 340.484669 290.358454 
L 340.859871 287.001235 
L 341.235073 286.854736 
L 341.610274 286.412059 
L 341.985476 285.326154 
L 342.360678 285.552668 
L 342.73588 286.370178 
L 343.111081 286.748395 
L 343.486283 288.230542 
L 343.861485 287.367804 
L 344.236686 287.910057 
L 344.611888 286.757461 
L 344.98709 286.467979 
L 345.362292 286.338241 
L 345.737493 288.367252 
L 346.487897 287.809371 
L 346.863098 287.814782 
L 347.2383 288.427952 
L 347.613502 287.696593 
L 347.988704 289.307198 
L 348.363905 288.704663 
L 348.739107 286.632838 
L 349.48951 288.47256 
L 350.239914 287.150042 
L 350.615116 287.147343 
L 350.990317 289.046845 
L 351.365519 287.677069 
L 351.740721 289.934239 
L 352.866326 286.561918 
L 353.241528 288.57867 
L 353.616729 288.23232 
L 353.991931 287.331777 
L 354.367133 288.570789 
L 354.742335 285.833752 
L 355.117536 289.674564 
L 355.492738 286.961301 
L 355.86794 289.005487 
L 356.243141 285.23898 
L 356.618343 290.315661 
L 356.993545 288.588284 
L 357.368747 287.450039 
L 357.743948 287.285838 
L 358.11915 288.241626 
L 358.869554 287.413824 
L 359.244755 288.618464 
L 359.619957 288.245675 
L 359.995159 289.564893 
L 360.37036 287.072755 
L 361.120764 289.461274 
L 361.495966 288.08458 
L 361.871167 287.85958 
L 362.246369 286.592151 
L 362.621571 286.95333 
L 362.996772 289.078176 
L 363.371974 285.977253 
L 363.747176 288.03935 
L 364.497579 285.704953 
L 364.872781 289.990153 
L 365.247983 289.671673 
L 365.623185 287.092232 
L 365.998386 287.428852 
L 366.373588 289.488231 
L 366.74879 287.734921 
L 367.123991 291.526002 
L 367.499193 287.932733 
L 367.874395 288.245031 
L 368.624798 286.909161 
L 369 287.439793 
L 369.375202 288.501402 
L 369.750403 288.307542 
L 370.125605 289.791684 
L 370.500807 288.262729 
L 370.876009 285.67046 
L 371.25121 289.54588 
L 371.626412 287.035102 
L 372.376815 288.080688 
L 372.752017 289.429325 
L 373.127219 289.801866 
L 373.502421 287.495536 
L 373.877622 290.242448 
L 374.252824 289.713967 
L 374.628026 288.562947 
L 375.378429 287.884012 
L 375.753631 289.804977 
L 376.128833 291.029512 
L 376.504034 291.4148 
L 377.254438 287.720245 
L 377.62964 289.438634 
L 378.004841 290.120516 
L 378.380043 288.778701 
L 378.755245 288.92935 
L 379.130446 287.308154 
L 379.505648 288.804426 
L 379.88085 288.26224 
L 380.256052 288.517937 
L 380.631253 290.965123 
L 381.006455 289.511051 
L 381.381657 289.92327 
L 381.756859 288.101814 
L 382.13206 288.721733 
L 382.507262 291.621265 
L 382.882464 288.353967 
L 383.257665 290.071401 
L 383.632867 289.458613 
L 384.008069 290.058021 
L 384.383271 291.553924 
L 384.758472 286.788464 
L 385.133674 287.490586 
L 385.508876 287.721334 
L 385.884077 287.24022 
L 386.259279 290.646175 
L 386.634481 288.692819 
L 387.009683 287.426681 
L 387.384884 287.634546 
L 387.760086 289.08995 
L 388.51049 287.130906 
L 388.885691 289.080286 
L 389.260893 289.843485 
L 389.636095 289.815684 
L 390.011296 289.073178 
L 390.386498 289.995223 
L 390.7617 288.50028 
L 391.136902 288.228617 
L 391.512103 289.185167 
L 391.887305 287.266875 
L 392.262507 289.371302 
L 392.637708 290.572577 
L 393.01291 292.276075 
L 393.763314 287.072474 
L 394.138515 291.036488 
L 394.513717 290.378157 
L 394.888919 288.140233 
L 395.26412 288.60852 
L 395.639322 290.499849 
L 396.014524 286.791776 
L 396.389726 289.921742 
L 396.764927 288.235546 
L 397.140129 288.990869 
L 397.515331 288.001909 
L 397.890533 289.892064 
L 398.265734 288.689344 
L 398.640936 289.308102 
L 399.016138 290.536381 
L 399.391339 288.86836 
L 399.766541 289.388183 
L 400.141743 289.422384 
L 400.516945 289.852047 
L 400.892146 286.962174 
L 401.267348 287.451643 
L 401.64255 286.959988 
L 402.017751 286.987082 
L 402.392953 288.398891 
L 402.768155 291.447501 
L 403.143357 290.713488 
L 403.518558 287.50885 
L 403.89376 287.384597 
L 404.644164 291.290578 
L 405.019365 290.297246 
L 405.394567 289.793477 
L 405.769769 290.143627 
L 406.14497 289.855753 
L 406.520172 288.43351 
L 406.895374 289.349933 
L 407.270576 290.845929 
L 408.020979 288.841757 
L 408.396181 288.799807 
L 408.771382 290.069217 
L 409.146584 290.123267 
L 409.521786 288.44542 
L 410.272189 290.469591 
L 410.647391 287.850119 
L 411.022593 291.961094 
L 411.397795 291.945464 
L 411.772996 289.19611 
L 412.148198 290.537959 
L 412.5234 288.646554 
L 413.273803 291.83822 
L 413.649005 288.850777 
L 414.024207 290.942669 
L 414.399408 289.764858 
L 414.77461 289.531938 
L 415.149812 287.785955 
L 415.525013 290.803965 
L 416.275417 291.454962 
L 416.650619 289.061068 
L 417.02582 290.99904 
L 417.401022 287.758584 
L 418.151425 290.460905 
L 418.526627 291.164979 
L 418.901829 289.511067 
L 419.277031 290.824593 
L 419.652232 289.305656 
L 420.027434 290.989257 
L 420.402636 287.519237 
L 420.777838 289.799496 
L 421.153039 290.629033 
L 421.528241 289.778729 
L 421.903443 289.81692 
L 422.278644 288.026099 
L 422.653846 288.799469 
L 423.029048 289.0307 
L 423.40425 287.240608 
L 423.779451 290.124138 
L 424.154653 289.521741 
L 424.529855 290.736006 
L 424.905056 288.682166 
L 425.280258 290.678319 
L 425.65546 291.350902 
L 426.030662 289.996895 
L 426.405863 290.313912 
L 426.781065 288.243214 
L 427.156267 289.273347 
L 427.531469 289.013342 
L 427.90667 291.759964 
L 428.281872 289.746141 
L 428.657074 291.556269 
L 429.032275 289.810608 
L 429.407477 290.05391 
L 429.782679 290.077878 
L 430.157881 290.559843 
L 430.533082 290.07096 
L 430.908284 288.12107 
L 431.283486 290.827779 
L 431.658687 289.869534 
L 432.033889 288.091776 
L 432.409091 289.273996 
L 433.159494 290.387731 
L 433.534696 289.795036 
L 433.909898 289.676617 
L 434.2851 289.081566 
L 434.660301 289.042926 
L 435.035503 289.939216 
L 435.410705 290.071116 
L 436.161108 290.055635 
L 436.53631 288.312672 
L 436.911512 290.525622 
L 437.286713 291.199707 
L 437.661915 290.855069 
L 438.037117 289.764698 
L 438.78752 289.576773 
L 439.162722 287.920791 
L 439.537924 288.895119 
L 439.913125 291.243691 
L 440.288327 288.397642 
L 440.663529 291.106059 
L 441.038731 290.282977 
L 441.413932 290.277129 
L 441.789134 289.463716 
L 442.164336 289.070013 
L 442.539537 287.300278 
L 442.914739 289.884384 
L 444.040344 291.345651 
L 444.415546 288.94246 
L 444.790748 289.146856 
L 445.165949 289.01775 
L 445.541151 289.993765 
L 445.916353 287.643168 
L 446.291555 289.572136 
L 446.666756 290.874579 
L 447.041958 289.530206 
L 447.41716 288.823825 
L 447.792361 291.072678 
L 448.167563 290.527649 
L 448.542765 291.44044 
L 448.917967 291.254869 
L 449.293168 289.941488 
L 450.043572 291.047132 
L 450.418774 289.787954 
L 450.793975 290.299917 
L 451.169177 290.297386 
L 451.544379 289.156977 
L 451.91958 290.819588 
L 452.294782 290.524094 
L 452.669984 289.00756 
L 453.045186 290.227921 
L 453.420387 289.135363 
L 453.795589 289.681811 
L 454.170791 290.552514 
L 454.545992 288.795735 
L 454.921194 290.320899 
L 455.296396 289.0282 
L 455.671598 291.152551 
L 456.046799 288.816273 
L 456.422001 292.030865 
L 456.797203 289.447138 
L 457.172405 289.359327 
L 457.547606 288.755174 
L 457.922808 289.0233 
L 458.29801 290.022909 
L 458.673211 289.263286 
L 459.048413 291.353945 
L 459.423615 290.024696 
L 459.798817 287.349744 
L 460.174018 291.165023 
L 460.54922 289.993648 
L 460.924422 289.417378 
L 461.299623 290.121335 
L 461.674825 289.622523 
L 462.050027 291.234558 
L 462.425229 290.836767 
L 463.175632 289.028464 
L 463.550834 291.409387 
L 463.926036 291.426497 
L 464.301237 288.808899 
L 464.676439 290.99952 
L 465.051641 290.590109 
L 465.426842 287.985182 
L 465.802044 291.086096 
L 466.177246 289.898704 
L 466.552448 289.597193 
L 466.927649 289.760453 
L 467.302851 292.181799 
L 467.678053 292.434599 
L 468.053254 291.691584 
L 468.803658 287.443997 
L 469.17886 290.702283 
L 469.554061 292.10499 
L 470.304465 289.581483 
L 470.679666 291.224418 
L 471.054868 290.006844 
L 471.43007 291.220425 
L 471.805272 288.598855 
L 472.180473 289.507655 
L 472.555675 289.721936 
L 472.930877 292.095853 
L 473.306079 291.16795 
L 473.68128 288.270725 
L 474.056482 289.763893 
L 474.806885 291.176353 
L 475.182087 288.84041 
L 475.557289 290.962702 
L 475.932491 290.222669 
L 476.307692 288.161897 
L 476.682894 289.293341 
L 477.058096 289.92499 
L 477.433297 291.188505 
L 477.808499 287.324728 
L 478.183701 288.789783 
L 478.558903 289.34401 
L 478.934104 289.489612 
L 479.309306 289.883212 
L 479.684508 288.002506 
L 480.05971 290.052199 
L 480.434911 289.304628 
L 480.810113 289.498138 
L 481.185315 292.286962 
L 481.560516 290.917304 
L 481.935718 290.507444 
L 482.31092 290.832477 
L 482.686122 288.851352 
L 483.061323 291.529334 
L 483.436525 292.90814 
L 483.811727 288.829241 
L 484.186928 290.545011 
L 484.56213 291.582533 
L 484.937332 290.071051 
L 485.312534 292.141174 
L 485.687735 292.207495 
L 486.062937 288.240536 
L 486.438139 290.477767 
L 487.188542 288.684739 
L 487.563744 287.264284 
L 487.938946 288.733909 
L 488.314147 290.786284 
L 488.689349 289.502769 
L 489.064551 290.861621 
L 489.439753 287.771559 
L 489.814954 289.01267 
L 490.190156 289.193473 
L 490.565358 289.08809 
L 490.940559 292.719025 
L 491.315761 291.539534 
L 491.690963 292.211751 
L 492.066165 290.054435 
L 492.441366 288.728262 
L 492.816568 290.62705 
L 493.566971 290.294529 
L 493.942173 291.022299 
L 494.317375 289.288066 
L 494.692577 293.351189 
L 495.44298 287.55521 
L 495.818182 291.37289 
L 496.193384 289.419373 
L 496.568585 291.420599 
L 496.943787 288.858126 
L 497.318989 291.25142 
L 497.69419 289.426987 
L 498.069392 290.468957 
L 498.444594 293.341389 
L 498.819796 289.547149 
L 499.194997 289.622611 
L 499.570199 291.520714 
L 499.945401 291.802048 
L 500.320602 291.909095 
L 500.695804 289.563551 
L 501.071006 290.051016 
L 501.446208 291.126815 
L 502.196611 289.676468 
L 502.571813 291.228338 
L 503.322216 288.753064 
L 503.697418 291.521805 
L 504.07262 290.556587 
L 504.447821 290.761837 
L 504.823023 289.416356 
L 505.198225 290.338247 
L 505.948628 290.00276 
L 506.32383 288.515566 
L 506.699032 290.712482 
L 507.074233 292.21153 
L 507.449435 291.2451 
L 507.824637 288.673841 
L 508.199839 287.64233 
L 508.950242 290.171939 
L 509.325444 292.235649 
L 509.700646 290.569752 
L 510.075847 290.422213 
L 510.451049 289.387495 
L 510.826251 290.292389 
L 511.201452 288.846138 
L 511.576654 288.481321 
L 511.951856 289.248425 
L 512.327058 291.477554 
L 512.702259 292.140651 
L 513.452663 286.373774 
L 513.827864 289.089962 
L 514.203066 290.786596 
L 514.578268 289.205528 
L 514.95347 289.527685 
L 515.328671 290.659966 
L 515.703873 290.645147 
L 516.079075 290.454711 
L 516.454276 288.199349 
L 516.829478 290.305062 
L 517.20468 291.425645 
L 517.579882 290.265421 
L 517.955083 289.783508 
L 518.330285 291.773677 
L 518.705487 292.450893 
L 519.080689 288.874091 
L 519.45589 290.707574 
L 519.831092 288.604496 
L 520.206294 289.364975 
L 520.956697 293.466628 
L 521.707101 291.189625 
L 522.082302 287.520006 
L 522.457504 290.292776 
L 522.832706 290.824931 
L 523.207907 290.973352 
L 523.583109 288.157651 
L 523.958311 290.101148 
L 524.333513 290.632737 
L 524.708714 292.387311 
L 525.459118 288.857831 
L 525.83432 290.371118 
L 526.209521 291.318297 
L 526.584723 290.786156 
L 526.959925 291.434947 
L 527.710328 288.213497 
L 528.08553 290.286379 
L 528.460732 291.320826 
L 528.835933 294.231007 
L 529.586337 290.823757 
L 529.961538 291.610669 
L 530.33674 290.91982 
L 531.087144 287.149179 
L 531.462345 289.428045 
L 532.212749 292.008883 
L 532.587951 289.29792 
L 532.963152 291.207548 
L 533.338354 290.05076 
L 533.713556 290.422606 
L 534.088757 287.092624 
L 534.463959 289.749838 
L 534.839161 290.793046 
L 535.214363 290.522355 
L 535.964766 288.982625 
L 536.339968 288.167246 
L 536.715169 290.56345 
L 537.090371 290.213224 
L 537.465573 290.018289 
L 537.840775 289.395963 
L 538.215976 291.163696 
L 538.591178 288.595224 
L 538.96638 292.098828 
L 539.341581 291.20515 
L 540.467187 289.711313 
L 540.842388 290.928842 
L 541.21759 289.450328 
L 541.592792 289.919904 
L 541.967994 290.048141 
L 542.343195 289.880406 
L 542.718397 291.938967 
L 543.093599 291.630075 
L 543.4688 289.08953 
L 543.844002 289.025807 
L 544.219204 289.961648 
L 544.594406 291.494276 
L 544.969607 288.449952 
L 545.344809 291.186722 
L 545.720011 291.026831 
L 546.095212 292.225135 
L 546.470414 289.162926 
L 546.845616 292.066168 
L 547.220818 290.561799 
L 547.596019 290.971358 
L 547.971221 288.886338 
L 548.346423 290.381917 
L 548.721625 291.058618 
L 549.096826 290.101135 
L 549.472028 290.223997 
L 549.84723 292.286484 
L 550.222431 288.359485 
L 550.597633 290.948785 
L 550.972835 291.938251 
L 551.723238 289.458711 
L 552.09844 290.946173 
L 552.473642 290.599293 
L 552.848843 288.531866 
L 553.224045 290.238218 
L 553.599247 290.03964 
L 553.974449 291.951761 
L 554.34965 291.80452 
L 554.724852 292.942677 
L 555.100054 291.91198 
L 555.850457 291.34087 
L 556.225659 290.867586 
L 556.600861 292.121859 
L 557.726466 289.442073 
L 558.101668 290.245691 
L 558.476869 290.764332 
L 558.852071 289.835425 
L 559.227273 292.22735 
L 559.602474 290.024264 
L 559.977676 291.683507 
L 560.352878 290.895702 
L 560.72808 290.80351 
L 561.103281 291.597668 
L 561.478483 290.920538 
L 561.853685 293.901552 
L 562.228886 290.766604 
L 562.604088 290.695074 
L 562.97929 289.767743 
L 563.354492 289.696391 
L 563.729693 290.427128 
L 564.104895 290.86161 
L 564.480097 290.538093 
L 564.855299 289.617673 
L 565.2305 290.843868 
L 565.605702 287.210554 
L 565.980904 289.951553 
L 566.356105 291.453664 
L 566.731307 291.660296 
L 567.106509 291.537581 
L 567.481711 288.795081 
L 567.856912 290.591844 
L 568.232114 288.837535 
L 568.607316 289.616739 
L 568.982517 291.901587 
L 569.357719 291.157587 
L 569.732921 290.940398 
L 570.108123 291.847997 
L 570.483324 289.826952 
L 570.858526 289.373934 
L 571.233728 291.57793 
L 571.60893 292.323525 
L 571.984131 289.787089 
L 572.359333 290.750312 
L 572.734535 292.433691 
L 573.109736 292.946389 
L 573.484938 291.866242 
L 573.86014 288.904919 
L 574.610543 291.920413 
L 575.360947 290.013882 
L 575.736148 286.383386 
L 576.11135 288.01563 
L 576.486552 290.3513 
L 576.861754 291.683614 
L 577.236955 290.609703 
L 577.612157 287.828503 
L 578.362561 293.87675 
L 578.737762 292.194474 
L 579.112964 289.26678 
L 579.488166 290.969559 
L 579.863367 289.90456 
L 580.238569 290.640827 
L 580.613771 293.659858 
L 580.988973 292.660939 
L 581.364174 290.808422 
L 581.739376 290.510189 
L 582.489779 292.391623 
L 582.864981 292.433437 
L 583.240183 289.443801 
L 583.615385 292.329652 
L 584.365788 290.711399 
L 584.74099 291.91108 
L 585.116192 291.716202 
L 585.491393 291.3905 
L 585.866595 290.870928 
L 586.241797 291.760183 
L 586.616998 293.295598 
L 586.9922 292.339859 
L 587.367402 289.196857 
L 587.742604 290.168859 
L 588.117805 289.359279 
L 588.493007 289.40143 
L 588.868209 290.300339 
L 589.24341 290.094741 
L 589.618612 290.523735 
L 589.993814 290.486921 
L 590.369016 288.947216 
L 590.744217 290.778882 
L 591.119419 288.403776 
L 591.494621 287.462923 
L 591.869822 291.593683 
L 592.245024 290.899015 
L 592.620226 289.02387 
L 592.995428 289.43881 
L 593.370629 289.547401 
L 593.745831 291.816349 
L 594.121033 289.243226 
L 594.496235 291.099993 
L 594.871436 289.992345 
L 595.246638 291.28108 
L 595.62184 290.906997 
L 595.997041 289.620074 
L 596.372243 292.022717 
L 596.747445 289.685015 
L 597.122647 291.170709 
L 597.497848 290.972734 
L 597.87305 291.189227 
L 598.248252 292.515071 
L 598.623453 290.52315 
L 598.998655 290.605495 
L 599.373857 290.267602 
L 599.749059 287.986274 
L 600.12426 289.820595 
L 600.499462 291.050884 
L 600.874664 290.790325 
L 601.249866 291.982842 
L 601.625067 292.236109 
L 602.000269 290.132976 
L 602.375471 289.34307 
L 602.750672 289.694472 
L 603.125874 289.4274 
L 603.501076 290.22159 
L 603.876278 288.365414 
L 604.251479 292.174511 
L 604.626681 292.164592 
L 605.377084 289.152062 
L 605.752286 291.099375 
L 606.127488 291.21393 
L 606.50269 290.513299 
L 606.877891 292.067544 
L 607.253093 290.273086 
L 607.628295 290.64116 
L 608.003497 289.959922 
L 608.378698 290.930745 
L 608.7539 289.060986 
L 609.129102 288.928002 
L 609.504303 292.569794 
L 609.879505 288.360982 
L 610.629909 291.806312 
L 611.00511 289.701402 
L 611.380312 292.308818 
L 611.755514 290.030548 
L 612.130715 289.877832 
L 612.505917 290.930447 
L 612.881119 287.858458 
L 613.256321 291.510544 
L 613.631522 292.333674 
L 614.006724 289.134793 
L 614.381926 291.769704 
L 614.757127 289.750601 
L 615.132329 290.861628 
L 615.507531 289.748479 
L 615.882733 292.554629 
L 616.257934 290.745612 
L 616.633136 290.854218 
L 617.008338 287.89413 
L 617.38354 292.230604 
L 617.758741 290.124708 
L 618.133943 292.303256 
L 618.884346 288.029242 
L 619.259548 289.705162 
L 619.63475 290.281659 
L 620.009952 289.0118 
L 620.385153 289.158699 
L 620.760355 290.852559 
L 621.135557 290.828122 
L 621.510758 291.189625 
L 621.88596 290.377473 
L 622.261162 291.975762 
L 622.636364 291.441197 
L 622.636364 291.441197 
" style="fill:none;stroke:#ff7f0e;stroke-linecap:square;stroke-width:0.5;"/>
   </g>
   <g id="patch_3">
    <path d="M 90 315 
L 90 43.2 
" style="fill:none;stroke:#000000;stroke-linecap:square;stroke-linejoin:miter;stroke-width:0.8;"/>
   </g>
   <g id="patch_4">
    <path d="M 648 315 
L 648 43.2 
" style="fill:none;stroke:#000000;stroke-linecap:square;stroke-linejoin:miter;stroke-width:0.8;"/>
   </g>
   <g id="patch_5">
    <path d="M 90 315 
L 648 315 
" style="fill:none;stroke:#000000;stroke-linecap:square;stroke-linejoin:miter;stroke-width:0.8;"/>
   </g>
   <g id="patch_6">
    <path d="M 90 43.2 
L 648 43.2 
" style="fill:none;stroke:#000000;stroke-linecap:square;stroke-linejoin:miter;stroke-width:0.8;"/>
   </g>
   <g id="text_19">
    <!-- loss -->
    <g transform="translate(357.410625 37.2)scale(0.12 -0.12)">
     <use xlink:href="#DejaVuSans-108"/>
     <use x="27.783203" xlink:href="#DejaVuSans-111"/>
     <use x="88.964844" xlink:href="#DejaVuSans-115"/>
     <use x="141.064453" xlink:href="#DejaVuSans-115"/>
    </g>
   </g>
   <g id="legend_1">
    <g id="patch_7">
     <path d="M 568.846875 80.55625 
L 641 80.55625 
Q 643 80.55625 643 78.55625 
L 643 50.2 
Q 643 48.2 641 48.2 
L 568.846875 48.2 
Q 566.846875 48.2 566.846875 50.2 
L 566.846875 78.55625 
Q 566.846875 80.55625 568.846875 80.55625 
z
" style="fill:#ffffff;opacity:0.8;stroke:#cccccc;stroke-linejoin:miter;"/>
    </g>
    <g id="line2d_35">
     <path d="M 570.846875 56.298437 
L 590.846875 56.298437 
" style="fill:none;stroke:#1f77b4;stroke-linecap:square;stroke-width:0.5;"/>
    </g>
    <g id="line2d_36"/>
    <g id="text_20">
     <!-- train -->
     <defs>
      <path d="M 18.3125 70.21875 
L 18.3125 54.6875 
L 36.8125 54.6875 
L 36.8125 47.703125 
L 18.3125 47.703125 
L 18.3125 18.015625 
Q 18.3125 11.328125 20.140625 9.421875 
Q 21.96875 7.515625 27.59375 7.515625 
L 36.8125 7.515625 
L 36.8125 0 
L 27.59375 0 
Q 17.1875 0 13.234375 3.875 
Q 9.28125 7.765625 9.28125 18.015625 
L 9.28125 47.703125 
L 2.6875 47.703125 
L 2.6875 54.6875 
L 9.28125 54.6875 
L 9.28125 70.21875 
z
" id="DejaVuSans-116"/>
      <path d="M 41.109375 46.296875 
Q 39.59375 47.171875 37.8125 47.578125 
Q 36.03125 48 33.890625 48 
Q 26.265625 48 22.1875 43.046875 
Q 18.109375 38.09375 18.109375 28.8125 
L 18.109375 0 
L 9.078125 0 
L 9.078125 54.6875 
L 18.109375 54.6875 
L 18.109375 46.1875 
Q 20.953125 51.171875 25.484375 53.578125 
Q 30.03125 56 36.53125 56 
Q 37.453125 56 38.578125 55.875 
Q 39.703125 55.765625 41.0625 55.515625 
z
" id="DejaVuSans-114"/>
      <path d="M 34.28125 27.484375 
Q 23.390625 27.484375 19.1875 25 
Q 14.984375 22.515625 14.984375 16.5 
Q 14.984375 11.71875 18.140625 8.90625 
Q 21.296875 6.109375 26.703125 6.109375 
Q 34.1875 6.109375 38.703125 11.40625 
Q 43.21875 16.703125 43.21875 25.484375 
L 43.21875 27.484375 
z
M 52.203125 31.203125 
L 52.203125 0 
L 43.21875 0 
L 43.21875 8.296875 
Q 40.140625 3.328125 35.546875 0.953125 
Q 30.953125 -1.421875 24.3125 -1.421875 
Q 15.921875 -1.421875 10.953125 3.296875 
Q 6 8.015625 6 15.921875 
Q 6 25.140625 12.171875 29.828125 
Q 18.359375 34.515625 30.609375 34.515625 
L 43.21875 34.515625 
L 43.21875 35.40625 
Q 43.21875 41.609375 39.140625 45 
Q 35.0625 48.390625 27.6875 48.390625 
Q 23 48.390625 18.546875 47.265625 
Q 14.109375 46.140625 10.015625 43.890625 
L 10.015625 52.203125 
Q 14.9375 54.109375 19.578125 55.046875 
Q 24.21875 56 28.609375 56 
Q 40.484375 56 46.34375 49.84375 
Q 52.203125 43.703125 52.203125 31.203125 
z
" id="DejaVuSans-97"/>
      <path d="M 9.421875 54.6875 
L 18.40625 54.6875 
L 18.40625 0 
L 9.421875 0 
z
M 9.421875 75.984375 
L 18.40625 75.984375 
L 18.40625 64.59375 
L 9.421875 64.59375 
z
" id="DejaVuSans-105"/>
      <path d="M 54.890625 33.015625 
L 54.890625 0 
L 45.90625 0 
L 45.90625 32.71875 
Q 45.90625 40.484375 42.875 44.328125 
Q 39.84375 48.1875 33.796875 48.1875 
Q 26.515625 48.1875 22.3125 43.546875 
Q 18.109375 38.921875 18.109375 30.90625 
L 18.109375 0 
L 9.078125 0 
L 9.078125 54.6875 
L 18.109375 54.6875 
L 18.109375 46.1875 
Q 21.34375 51.125 25.703125 53.5625 
Q 30.078125 56 35.796875 56 
Q 45.21875 56 50.046875 50.171875 
Q 54.890625 44.34375 54.890625 33.015625 
z
" id="DejaVuSans-110"/>
     </defs>
     <g transform="translate(598.846875 59.798437)scale(0.1 -0.1)">
      <use xlink:href="#DejaVuSans-116"/>
      <use x="39.208984" xlink:href="#DejaVuSans-114"/>
      <use x="80.322266" xlink:href="#DejaVuSans-97"/>
      <use x="141.601562" xlink:href="#DejaVuSans-105"/>
      <use x="169.384766" xlink:href="#DejaVuSans-110"/>
     </g>
    </g>
    <g id="line2d_37">
     <path d="M 570.846875 70.976562 
L 590.846875 70.976562 
" style="fill:none;stroke:#ff7f0e;stroke-linecap:square;stroke-width:0.5;"/>
    </g>
    <g id="line2d_38"/>
    <g id="text_21">
     <!-- validate -->
     <defs>
      <path d="M 2.984375 54.6875 
L 12.5 54.6875 
L 29.59375 8.796875 
L 46.6875 54.6875 
L 56.203125 54.6875 
L 35.6875 0 
L 23.484375 0 
z
" id="DejaVuSans-118"/>
      <path d="M 45.40625 46.390625 
L 45.40625 75.984375 
L 54.390625 75.984375 
L 54.390625 0 
L 45.40625 0 
L 45.40625 8.203125 
Q 42.578125 3.328125 38.25 0.953125 
Q 33.9375 -1.421875 27.875 -1.421875 
Q 17.96875 -1.421875 11.734375 6.484375 
Q 5.515625 14.40625 5.515625 27.296875 
Q 5.515625 40.1875 11.734375 48.09375 
Q 17.96875 56 27.875 56 
Q 33.9375 56 38.25 53.625 
Q 42.578125 51.265625 45.40625 46.390625 
z
M 14.796875 27.296875 
Q 14.796875 17.390625 18.875 11.75 
Q 22.953125 6.109375 30.078125 6.109375 
Q 37.203125 6.109375 41.296875 11.75 
Q 45.40625 17.390625 45.40625 27.296875 
Q 45.40625 37.203125 41.296875 42.84375 
Q 37.203125 48.484375 30.078125 48.484375 
Q 22.953125 48.484375 18.875 42.84375 
Q 14.796875 37.203125 14.796875 27.296875 
z
" id="DejaVuSans-100"/>
     </defs>
     <g transform="translate(598.846875 74.476562)scale(0.1 -0.1)">
      <use xlink:href="#DejaVuSans-118"/>
      <use x="59.179688" xlink:href="#DejaVuSans-97"/>
      <use x="120.458984" xlink:href="#DejaVuSans-108"/>
      <use x="148.242188" xlink:href="#DejaVuSans-105"/>
      <use x="176.025391" xlink:href="#DejaVuSans-100"/>
      <use x="239.501953" xlink:href="#DejaVuSans-97"/>
      <use x="300.78125" xlink:href="#DejaVuSans-116"/>
      <use x="339.990234" xlink:href="#DejaVuSans-101"/>
     </g>
    </g>
   </g>
  </g>
 </g>
 <defs>
  <clipPath id="pa01079f33a">
   <rect height="271.8" width="558" x="90" y="43.2"/>
  </clipPath>
 </defs>
</svg>
