<?xml version="1.0" encoding="utf-8" standalone="no"?>
<!DOCTYPE svg PUBLIC "-//W3C//DTD SVG 1.1//EN"
  "http://www.w3.org/Graphics/SVG/1.1/DTD/svg11.dtd">
<!-- Created with matplotlib (https://matplotlib.org/) -->
<svg height="360pt" version="1.1" viewBox="0 0 720 360" width="720pt" xmlns="http://www.w3.org/2000/svg" xmlns:xlink="http://www.w3.org/1999/xlink">
 <defs>
  <style type="text/css">
*{stroke-linecap:butt;stroke-linejoin:round;}
  </style>
 </defs>
 <g id="figure_1">
  <g id="patch_1">
   <path d="M 0 360 
L 720 360 
L 720 0 
L 0 0 
z
" style="fill:#ffffff;"/>
  </g>
  <g id="axes_1">
   <g id="patch_2">
    <path d="M 90 315 
L 648 315 
L 648 43.2 
L 90 43.2 
z
" style="fill:#ffffff;"/>
   </g>
   <g id="matplotlib.axis_1">
    <g id="xtick_1">
     <g id="line2d_1">
      <path clip-path="url(#p401719339d)" d="M 115.363636 315 
L 115.363636 43.2 
" style="fill:none;stroke:#b0b0b0;stroke-linecap:square;stroke-width:0.8;"/>
     </g>
     <g id="line2d_2">
      <defs>
       <path d="M 0 0 
L 0 3.5 
" id="m6b84aa8b76" style="stroke:#000000;stroke-width:0.8;"/>
      </defs>
      <g>
       <use style="stroke:#000000;stroke-width:0.8;" x="115.363636" xlink:href="#m6b84aa8b76" y="315"/>
      </g>
     </g>
     <g id="text_1">
      <!-- 0 -->
      <defs>
       <path d="M 31.78125 66.40625 
Q 24.171875 66.40625 20.328125 58.90625 
Q 16.5 51.421875 16.5 36.375 
Q 16.5 21.390625 20.328125 13.890625 
Q 24.171875 6.390625 31.78125 6.390625 
Q 39.453125 6.390625 43.28125 13.890625 
Q 47.125 21.390625 47.125 36.375 
Q 47.125 51.421875 43.28125 58.90625 
Q 39.453125 66.40625 31.78125 66.40625 
z
M 31.78125 74.21875 
Q 44.046875 74.21875 50.515625 64.515625 
Q 56.984375 54.828125 56.984375 36.375 
Q 56.984375 17.96875 50.515625 8.265625 
Q 44.046875 -1.421875 31.78125 -1.421875 
Q 19.53125 -1.421875 13.0625 8.265625 
Q 6.59375 17.96875 6.59375 36.375 
Q 6.59375 54.828125 13.0625 64.515625 
Q 19.53125 74.21875 31.78125 74.21875 
z
" id="DejaVuSans-48"/>
      </defs>
      <g transform="translate(112.182386 329.598437)scale(0.1 -0.1)">
       <use xlink:href="#DejaVuSans-48"/>
      </g>
     </g>
    </g>
    <g id="xtick_2">
     <g id="line2d_3">
      <path clip-path="url(#p401719339d)" d="M 191.075984 315 
L 191.075984 43.2 
" style="fill:none;stroke:#b0b0b0;stroke-linecap:square;stroke-width:0.8;"/>
     </g>
     <g id="line2d_4">
      <g>
       <use style="stroke:#000000;stroke-width:0.8;" x="191.075984" xlink:href="#m6b84aa8b76" y="315"/>
      </g>
     </g>
     <g id="text_2">
      <!-- 200 -->
      <defs>
       <path d="M 19.1875 8.296875 
L 53.609375 8.296875 
L 53.609375 0 
L 7.328125 0 
L 7.328125 8.296875 
Q 12.9375 14.109375 22.625 23.890625 
Q 32.328125 33.6875 34.8125 36.53125 
Q 39.546875 41.84375 41.421875 45.53125 
Q 43.3125 49.21875 43.3125 52.78125 
Q 43.3125 58.59375 39.234375 62.25 
Q 35.15625 65.921875 28.609375 65.921875 
Q 23.96875 65.921875 18.8125 64.3125 
Q 13.671875 62.703125 7.8125 59.421875 
L 7.8125 69.390625 
Q 13.765625 71.78125 18.9375 73 
Q 24.125 74.21875 28.421875 74.21875 
Q 39.75 74.21875 46.484375 68.546875 
Q 53.21875 62.890625 53.21875 53.421875 
Q 53.21875 48.921875 51.53125 44.890625 
Q 49.859375 40.875 45.40625 35.40625 
Q 44.1875 33.984375 37.640625 27.21875 
Q 31.109375 20.453125 19.1875 8.296875 
z
" id="DejaVuSans-50"/>
      </defs>
      <g transform="translate(181.532234 329.598437)scale(0.1 -0.1)">
       <use xlink:href="#DejaVuSans-50"/>
       <use x="63.623047" xlink:href="#DejaVuSans-48"/>
       <use x="127.246094" xlink:href="#DejaVuSans-48"/>
      </g>
     </g>
    </g>
    <g id="xtick_3">
     <g id="line2d_5">
      <path clip-path="url(#p401719339d)" d="M 266.788331 315 
L 266.788331 43.2 
" style="fill:none;stroke:#b0b0b0;stroke-linecap:square;stroke-width:0.8;"/>
     </g>
     <g id="line2d_6">
      <g>
       <use style="stroke:#000000;stroke-width:0.8;" x="266.788331" xlink:href="#m6b84aa8b76" y="315"/>
      </g>
     </g>
     <g id="text_3">
      <!-- 400 -->
      <defs>
       <path d="M 37.796875 64.3125 
L 12.890625 25.390625 
L 37.796875 25.390625 
z
M 35.203125 72.90625 
L 47.609375 72.90625 
L 47.609375 25.390625 
L 58.015625 25.390625 
L 58.015625 17.1875 
L 47.609375 17.1875 
L 47.609375 0 
L 37.796875 0 
L 37.796875 17.1875 
L 4.890625 17.1875 
L 4.890625 26.703125 
z
" id="DejaVuSans-52"/>
      </defs>
      <g transform="translate(257.244581 329.598437)scale(0.1 -0.1)">
       <use xlink:href="#DejaVuSans-52"/>
       <use x="63.623047" xlink:href="#DejaVuSans-48"/>
       <use x="127.246094" xlink:href="#DejaVuSans-48"/>
      </g>
     </g>
    </g>
    <g id="xtick_4">
     <g id="line2d_7">
      <path clip-path="url(#p401719339d)" d="M 342.500678 315 
L 342.500678 43.2 
" style="fill:none;stroke:#b0b0b0;stroke-linecap:square;stroke-width:0.8;"/>
     </g>
     <g id="line2d_8">
      <g>
       <use style="stroke:#000000;stroke-width:0.8;" x="342.500678" xlink:href="#m6b84aa8b76" y="315"/>
      </g>
     </g>
     <g id="text_4">
      <!-- 600 -->
      <defs>
       <path d="M 33.015625 40.375 
Q 26.375 40.375 22.484375 35.828125 
Q 18.609375 31.296875 18.609375 23.390625 
Q 18.609375 15.53125 22.484375 10.953125 
Q 26.375 6.390625 33.015625 6.390625 
Q 39.65625 6.390625 43.53125 10.953125 
Q 47.40625 15.53125 47.40625 23.390625 
Q 47.40625 31.296875 43.53125 35.828125 
Q 39.65625 40.375 33.015625 40.375 
z
M 52.59375 71.296875 
L 52.59375 62.3125 
Q 48.875 64.0625 45.09375 64.984375 
Q 41.3125 65.921875 37.59375 65.921875 
Q 27.828125 65.921875 22.671875 59.328125 
Q 17.53125 52.734375 16.796875 39.40625 
Q 19.671875 43.65625 24.015625 45.921875 
Q 28.375 48.1875 33.59375 48.1875 
Q 44.578125 48.1875 50.953125 41.515625 
Q 57.328125 34.859375 57.328125 23.390625 
Q 57.328125 12.15625 50.6875 5.359375 
Q 44.046875 -1.421875 33.015625 -1.421875 
Q 20.359375 -1.421875 13.671875 8.265625 
Q 6.984375 17.96875 6.984375 36.375 
Q 6.984375 53.65625 15.1875 63.9375 
Q 23.390625 74.21875 37.203125 74.21875 
Q 40.921875 74.21875 44.703125 73.484375 
Q 48.484375 72.75 52.59375 71.296875 
z
" id="DejaVuSans-54"/>
      </defs>
      <g transform="translate(332.956928 329.598437)scale(0.1 -0.1)">
       <use xlink:href="#DejaVuSans-54"/>
       <use x="63.623047" xlink:href="#DejaVuSans-48"/>
       <use x="127.246094" xlink:href="#DejaVuSans-48"/>
      </g>
     </g>
    </g>
    <g id="xtick_5">
     <g id="line2d_9">
      <path clip-path="url(#p401719339d)" d="M 418.213026 315 
L 418.213026 43.2 
" style="fill:none;stroke:#b0b0b0;stroke-linecap:square;stroke-width:0.8;"/>
     </g>
     <g id="line2d_10">
      <g>
       <use style="stroke:#000000;stroke-width:0.8;" x="418.213026" xlink:href="#m6b84aa8b76" y="315"/>
      </g>
     </g>
     <g id="text_5">
      <!-- 800 -->
      <defs>
       <path d="M 31.78125 34.625 
Q 24.75 34.625 20.71875 30.859375 
Q 16.703125 27.09375 16.703125 20.515625 
Q 16.703125 13.921875 20.71875 10.15625 
Q 24.75 6.390625 31.78125 6.390625 
Q 38.8125 6.390625 42.859375 10.171875 
Q 46.921875 13.96875 46.921875 20.515625 
Q 46.921875 27.09375 42.890625 30.859375 
Q 38.875 34.625 31.78125 34.625 
z
M 21.921875 38.8125 
Q 15.578125 40.375 12.03125 44.71875 
Q 8.5 49.078125 8.5 55.328125 
Q 8.5 64.0625 14.71875 69.140625 
Q 20.953125 74.21875 31.78125 74.21875 
Q 42.671875 74.21875 48.875 69.140625 
Q 55.078125 64.0625 55.078125 55.328125 
Q 55.078125 49.078125 51.53125 44.71875 
Q 48 40.375 41.703125 38.8125 
Q 48.828125 37.15625 52.796875 32.3125 
Q 56.78125 27.484375 56.78125 20.515625 
Q 56.78125 9.90625 50.3125 4.234375 
Q 43.84375 -1.421875 31.78125 -1.421875 
Q 19.734375 -1.421875 13.25 4.234375 
Q 6.78125 9.90625 6.78125 20.515625 
Q 6.78125 27.484375 10.78125 32.3125 
Q 14.796875 37.15625 21.921875 38.8125 
z
M 18.3125 54.390625 
Q 18.3125 48.734375 21.84375 45.5625 
Q 25.390625 42.390625 31.78125 42.390625 
Q 38.140625 42.390625 41.71875 45.5625 
Q 45.3125 48.734375 45.3125 54.390625 
Q 45.3125 60.0625 41.71875 63.234375 
Q 38.140625 66.40625 31.78125 66.40625 
Q 25.390625 66.40625 21.84375 63.234375 
Q 18.3125 60.0625 18.3125 54.390625 
z
" id="DejaVuSans-56"/>
      </defs>
      <g transform="translate(408.669276 329.598437)scale(0.1 -0.1)">
       <use xlink:href="#DejaVuSans-56"/>
       <use x="63.623047" xlink:href="#DejaVuSans-48"/>
       <use x="127.246094" xlink:href="#DejaVuSans-48"/>
      </g>
     </g>
    </g>
    <g id="xtick_6">
     <g id="line2d_11">
      <path clip-path="url(#p401719339d)" d="M 493.925373 315 
L 493.925373 43.2 
" style="fill:none;stroke:#b0b0b0;stroke-linecap:square;stroke-width:0.8;"/>
     </g>
     <g id="line2d_12">
      <g>
       <use style="stroke:#000000;stroke-width:0.8;" x="493.925373" xlink:href="#m6b84aa8b76" y="315"/>
      </g>
     </g>
     <g id="text_6">
      <!-- 1000 -->
      <defs>
       <path d="M 12.40625 8.296875 
L 28.515625 8.296875 
L 28.515625 63.921875 
L 10.984375 60.40625 
L 10.984375 69.390625 
L 28.421875 72.90625 
L 38.28125 72.90625 
L 38.28125 8.296875 
L 54.390625 8.296875 
L 54.390625 0 
L 12.40625 0 
z
" id="DejaVuSans-49"/>
      </defs>
      <g transform="translate(481.200373 329.598437)scale(0.1 -0.1)">
       <use xlink:href="#DejaVuSans-49"/>
       <use x="63.623047" xlink:href="#DejaVuSans-48"/>
       <use x="127.246094" xlink:href="#DejaVuSans-48"/>
       <use x="190.869141" xlink:href="#DejaVuSans-48"/>
      </g>
     </g>
    </g>
    <g id="xtick_7">
     <g id="line2d_13">
      <path clip-path="url(#p401719339d)" d="M 569.63772 315 
L 569.63772 43.2 
" style="fill:none;stroke:#b0b0b0;stroke-linecap:square;stroke-width:0.8;"/>
     </g>
     <g id="line2d_14">
      <g>
       <use style="stroke:#000000;stroke-width:0.8;" x="569.63772" xlink:href="#m6b84aa8b76" y="315"/>
      </g>
     </g>
     <g id="text_7">
      <!-- 1200 -->
      <g transform="translate(556.91272 329.598437)scale(0.1 -0.1)">
       <use xlink:href="#DejaVuSans-49"/>
       <use x="63.623047" xlink:href="#DejaVuSans-50"/>
       <use x="127.246094" xlink:href="#DejaVuSans-48"/>
       <use x="190.869141" xlink:href="#DejaVuSans-48"/>
      </g>
     </g>
    </g>
    <g id="xtick_8">
     <g id="line2d_15">
      <path clip-path="url(#p401719339d)" d="M 645.350068 315 
L 645.350068 43.2 
" style="fill:none;stroke:#b0b0b0;stroke-linecap:square;stroke-width:0.8;"/>
     </g>
     <g id="line2d_16">
      <g>
       <use style="stroke:#000000;stroke-width:0.8;" x="645.350068" xlink:href="#m6b84aa8b76" y="315"/>
      </g>
     </g>
     <g id="text_8">
      <!-- 1400 -->
      <g transform="translate(632.625068 329.598437)scale(0.1 -0.1)">
       <use xlink:href="#DejaVuSans-49"/>
       <use x="63.623047" xlink:href="#DejaVuSans-52"/>
       <use x="127.246094" xlink:href="#DejaVuSans-48"/>
       <use x="190.869141" xlink:href="#DejaVuSans-48"/>
      </g>
     </g>
    </g>
    <g id="text_9">
     <!-- epoch -->
     <defs>
      <path d="M 56.203125 29.59375 
L 56.203125 25.203125 
L 14.890625 25.203125 
Q 15.484375 15.921875 20.484375 11.0625 
Q 25.484375 6.203125 34.421875 6.203125 
Q 39.59375 6.203125 44.453125 7.46875 
Q 49.3125 8.734375 54.109375 11.28125 
L 54.109375 2.78125 
Q 49.265625 0.734375 44.1875 -0.34375 
Q 39.109375 -1.421875 33.890625 -1.421875 
Q 20.796875 -1.421875 13.15625 6.1875 
Q 5.515625 13.8125 5.515625 26.8125 
Q 5.515625 40.234375 12.765625 48.109375 
Q 20.015625 56 32.328125 56 
Q 43.359375 56 49.78125 48.890625 
Q 56.203125 41.796875 56.203125 29.59375 
z
M 47.21875 32.234375 
Q 47.125 39.59375 43.09375 43.984375 
Q 39.0625 48.390625 32.421875 48.390625 
Q 24.90625 48.390625 20.390625 44.140625 
Q 15.875 39.890625 15.1875 32.171875 
z
" id="DejaVuSans-101"/>
      <path d="M 18.109375 8.203125 
L 18.109375 -20.796875 
L 9.078125 -20.796875 
L 9.078125 54.6875 
L 18.109375 54.6875 
L 18.109375 46.390625 
Q 20.953125 51.265625 25.265625 53.625 
Q 29.59375 56 35.59375 56 
Q 45.5625 56 51.78125 48.09375 
Q 58.015625 40.1875 58.015625 27.296875 
Q 58.015625 14.40625 51.78125 6.484375 
Q 45.5625 -1.421875 35.59375 -1.421875 
Q 29.59375 -1.421875 25.265625 0.953125 
Q 20.953125 3.328125 18.109375 8.203125 
z
M 48.6875 27.296875 
Q 48.6875 37.203125 44.609375 42.84375 
Q 40.53125 48.484375 33.40625 48.484375 
Q 26.265625 48.484375 22.1875 42.84375 
Q 18.109375 37.203125 18.109375 27.296875 
Q 18.109375 17.390625 22.1875 11.75 
Q 26.265625 6.109375 33.40625 6.109375 
Q 40.53125 6.109375 44.609375 11.75 
Q 48.6875 17.390625 48.6875 27.296875 
z
" id="DejaVuSans-112"/>
      <path d="M 30.609375 48.390625 
Q 23.390625 48.390625 19.1875 42.75 
Q 14.984375 37.109375 14.984375 27.296875 
Q 14.984375 17.484375 19.15625 11.84375 
Q 23.34375 6.203125 30.609375 6.203125 
Q 37.796875 6.203125 41.984375 11.859375 
Q 46.1875 17.53125 46.1875 27.296875 
Q 46.1875 37.015625 41.984375 42.703125 
Q 37.796875 48.390625 30.609375 48.390625 
z
M 30.609375 56 
Q 42.328125 56 49.015625 48.375 
Q 55.71875 40.765625 55.71875 27.296875 
Q 55.71875 13.875 49.015625 6.21875 
Q 42.328125 -1.421875 30.609375 -1.421875 
Q 18.84375 -1.421875 12.171875 6.21875 
Q 5.515625 13.875 5.515625 27.296875 
Q 5.515625 40.765625 12.171875 48.375 
Q 18.84375 56 30.609375 56 
z
" id="DejaVuSans-111"/>
      <path d="M 48.78125 52.59375 
L 48.78125 44.1875 
Q 44.96875 46.296875 41.140625 47.34375 
Q 37.3125 48.390625 33.40625 48.390625 
Q 24.65625 48.390625 19.8125 42.84375 
Q 14.984375 37.3125 14.984375 27.296875 
Q 14.984375 17.28125 19.8125 11.734375 
Q 24.65625 6.203125 33.40625 6.203125 
Q 37.3125 6.203125 41.140625 7.25 
Q 44.96875 8.296875 48.78125 10.40625 
L 48.78125 2.09375 
Q 45.015625 0.34375 40.984375 -0.53125 
Q 36.96875 -1.421875 32.421875 -1.421875 
Q 20.0625 -1.421875 12.78125 6.34375 
Q 5.515625 14.109375 5.515625 27.296875 
Q 5.515625 40.671875 12.859375 48.328125 
Q 20.21875 56 33.015625 56 
Q 37.15625 56 41.109375 55.140625 
Q 45.0625 54.296875 48.78125 52.59375 
z
" id="DejaVuSans-99"/>
      <path d="M 54.890625 33.015625 
L 54.890625 0 
L 45.90625 0 
L 45.90625 32.71875 
Q 45.90625 40.484375 42.875 44.328125 
Q 39.84375 48.1875 33.796875 48.1875 
Q 26.515625 48.1875 22.3125 43.546875 
Q 18.109375 38.921875 18.109375 30.90625 
L 18.109375 0 
L 9.078125 0 
L 9.078125 75.984375 
L 18.109375 75.984375 
L 18.109375 46.1875 
Q 21.34375 51.125 25.703125 53.5625 
Q 30.078125 56 35.796875 56 
Q 45.21875 56 50.046875 50.171875 
Q 54.890625 44.34375 54.890625 33.015625 
z
" id="DejaVuSans-104"/>
     </defs>
     <g transform="translate(353.771875 343.276563)scale(0.1 -0.1)">
      <use xlink:href="#DejaVuSans-101"/>
      <use x="61.523438" xlink:href="#DejaVuSans-112"/>
      <use x="125" xlink:href="#DejaVuSans-111"/>
      <use x="186.181641" xlink:href="#DejaVuSans-99"/>
      <use x="241.162109" xlink:href="#DejaVuSans-104"/>
     </g>
    </g>
   </g>
   <g id="matplotlib.axis_2">
    <g id="ytick_1">
     <g id="line2d_17">
      <path clip-path="url(#p401719339d)" d="M 90 286.661137 
L 648 286.661137 
" style="fill:none;stroke:#b0b0b0;stroke-linecap:square;stroke-width:0.8;"/>
     </g>
     <g id="line2d_18">
      <defs>
       <path d="M 0 0 
L -3.5 0 
" id="md0a17ece74" style="stroke:#000000;stroke-width:0.8;"/>
      </defs>
      <g>
       <use style="stroke:#000000;stroke-width:0.8;" x="90" xlink:href="#md0a17ece74" y="286.661137"/>
      </g>
     </g>
     <g id="text_10">
      <!-- 0.3 -->
      <defs>
       <path d="M 10.6875 12.40625 
L 21 12.40625 
L 21 0 
L 10.6875 0 
z
" id="DejaVuSans-46"/>
       <path d="M 40.578125 39.3125 
Q 47.65625 37.796875 51.625 33 
Q 55.609375 28.21875 55.609375 21.1875 
Q 55.609375 10.40625 48.1875 4.484375 
Q 40.765625 -1.421875 27.09375 -1.421875 
Q 22.515625 -1.421875 17.65625 -0.515625 
Q 12.796875 0.390625 7.625 2.203125 
L 7.625 11.71875 
Q 11.71875 9.328125 16.59375 8.109375 
Q 21.484375 6.890625 26.8125 6.890625 
Q 36.078125 6.890625 40.9375 10.546875 
Q 45.796875 14.203125 45.796875 21.1875 
Q 45.796875 27.640625 41.28125 31.265625 
Q 36.765625 34.90625 28.71875 34.90625 
L 20.21875 34.90625 
L 20.21875 43.015625 
L 29.109375 43.015625 
Q 36.375 43.015625 40.234375 45.921875 
Q 44.09375 48.828125 44.09375 54.296875 
Q 44.09375 59.90625 40.109375 62.90625 
Q 36.140625 65.921875 28.71875 65.921875 
Q 24.65625 65.921875 20.015625 65.03125 
Q 15.375 64.15625 9.8125 62.3125 
L 9.8125 71.09375 
Q 15.4375 72.65625 20.34375 73.4375 
Q 25.25 74.21875 29.59375 74.21875 
Q 40.828125 74.21875 47.359375 69.109375 
Q 53.90625 64.015625 53.90625 55.328125 
Q 53.90625 49.265625 50.4375 45.09375 
Q 46.96875 40.921875 40.578125 39.3125 
z
" id="DejaVuSans-51"/>
      </defs>
      <g transform="translate(67.096875 290.460356)scale(0.1 -0.1)">
       <use xlink:href="#DejaVuSans-48"/>
       <use x="63.623047" xlink:href="#DejaVuSans-46"/>
       <use x="95.410156" xlink:href="#DejaVuSans-51"/>
      </g>
     </g>
    </g>
    <g id="ytick_2">
     <g id="line2d_19">
      <path clip-path="url(#p401719339d)" d="M 90 253.360475 
L 648 253.360475 
" style="fill:none;stroke:#b0b0b0;stroke-linecap:square;stroke-width:0.8;"/>
     </g>
     <g id="line2d_20">
      <g>
       <use style="stroke:#000000;stroke-width:0.8;" x="90" xlink:href="#md0a17ece74" y="253.360475"/>
      </g>
     </g>
     <g id="text_11">
      <!-- 0.4 -->
      <g transform="translate(67.096875 257.159694)scale(0.1 -0.1)">
       <use xlink:href="#DejaVuSans-48"/>
       <use x="63.623047" xlink:href="#DejaVuSans-46"/>
       <use x="95.410156" xlink:href="#DejaVuSans-52"/>
      </g>
     </g>
    </g>
    <g id="ytick_3">
     <g id="line2d_21">
      <path clip-path="url(#p401719339d)" d="M 90 220.059814 
L 648 220.059814 
" style="fill:none;stroke:#b0b0b0;stroke-linecap:square;stroke-width:0.8;"/>
     </g>
     <g id="line2d_22">
      <g>
       <use style="stroke:#000000;stroke-width:0.8;" x="90" xlink:href="#md0a17ece74" y="220.059814"/>
      </g>
     </g>
     <g id="text_12">
      <!-- 0.5 -->
      <defs>
       <path d="M 10.796875 72.90625 
L 49.515625 72.90625 
L 49.515625 64.59375 
L 19.828125 64.59375 
L 19.828125 46.734375 
Q 21.96875 47.46875 24.109375 47.828125 
Q 26.265625 48.1875 28.421875 48.1875 
Q 40.625 48.1875 47.75 41.5 
Q 54.890625 34.8125 54.890625 23.390625 
Q 54.890625 11.625 47.5625 5.09375 
Q 40.234375 -1.421875 26.90625 -1.421875 
Q 22.3125 -1.421875 17.546875 -0.640625 
Q 12.796875 0.140625 7.71875 1.703125 
L 7.71875 11.625 
Q 12.109375 9.234375 16.796875 8.0625 
Q 21.484375 6.890625 26.703125 6.890625 
Q 35.15625 6.890625 40.078125 11.328125 
Q 45.015625 15.765625 45.015625 23.390625 
Q 45.015625 31 40.078125 35.4375 
Q 35.15625 39.890625 26.703125 39.890625 
Q 22.75 39.890625 18.8125 39.015625 
Q 14.890625 38.140625 10.796875 36.28125 
z
" id="DejaVuSans-53"/>
      </defs>
      <g transform="translate(67.096875 223.859033)scale(0.1 -0.1)">
       <use xlink:href="#DejaVuSans-48"/>
       <use x="63.623047" xlink:href="#DejaVuSans-46"/>
       <use x="95.410156" xlink:href="#DejaVuSans-53"/>
      </g>
     </g>
    </g>
    <g id="ytick_4">
     <g id="line2d_23">
      <path clip-path="url(#p401719339d)" d="M 90 186.759152 
L 648 186.759152 
" style="fill:none;stroke:#b0b0b0;stroke-linecap:square;stroke-width:0.8;"/>
     </g>
     <g id="line2d_24">
      <g>
       <use style="stroke:#000000;stroke-width:0.8;" x="90" xlink:href="#md0a17ece74" y="186.759152"/>
      </g>
     </g>
     <g id="text_13">
      <!-- 0.6 -->
      <g transform="translate(67.096875 190.558371)scale(0.1 -0.1)">
       <use xlink:href="#DejaVuSans-48"/>
       <use x="63.623047" xlink:href="#DejaVuSans-46"/>
       <use x="95.410156" xlink:href="#DejaVuSans-54"/>
      </g>
     </g>
    </g>
    <g id="ytick_5">
     <g id="line2d_25">
      <path clip-path="url(#p401719339d)" d="M 90 153.458491 
L 648 153.458491 
" style="fill:none;stroke:#b0b0b0;stroke-linecap:square;stroke-width:0.8;"/>
     </g>
     <g id="line2d_26">
      <g>
       <use style="stroke:#000000;stroke-width:0.8;" x="90" xlink:href="#md0a17ece74" y="153.458491"/>
      </g>
     </g>
     <g id="text_14">
      <!-- 0.7 -->
      <defs>
       <path d="M 8.203125 72.90625 
L 55.078125 72.90625 
L 55.078125 68.703125 
L 28.609375 0 
L 18.3125 0 
L 43.21875 64.59375 
L 8.203125 64.59375 
z
" id="DejaVuSans-55"/>
      </defs>
      <g transform="translate(67.096875 157.257709)scale(0.1 -0.1)">
       <use xlink:href="#DejaVuSans-48"/>
       <use x="63.623047" xlink:href="#DejaVuSans-46"/>
       <use x="95.410156" xlink:href="#DejaVuSans-55"/>
      </g>
     </g>
    </g>
    <g id="ytick_6">
     <g id="line2d_27">
      <path clip-path="url(#p401719339d)" d="M 90 120.157829 
L 648 120.157829 
" style="fill:none;stroke:#b0b0b0;stroke-linecap:square;stroke-width:0.8;"/>
     </g>
     <g id="line2d_28">
      <g>
       <use style="stroke:#000000;stroke-width:0.8;" x="90" xlink:href="#md0a17ece74" y="120.157829"/>
      </g>
     </g>
     <g id="text_15">
      <!-- 0.8 -->
      <g transform="translate(67.096875 123.957048)scale(0.1 -0.1)">
       <use xlink:href="#DejaVuSans-48"/>
       <use x="63.623047" xlink:href="#DejaVuSans-46"/>
       <use x="95.410156" xlink:href="#DejaVuSans-56"/>
      </g>
     </g>
    </g>
    <g id="ytick_7">
     <g id="line2d_29">
      <path clip-path="url(#p401719339d)" d="M 90 86.857167 
L 648 86.857167 
" style="fill:none;stroke:#b0b0b0;stroke-linecap:square;stroke-width:0.8;"/>
     </g>
     <g id="line2d_30">
      <g>
       <use style="stroke:#000000;stroke-width:0.8;" x="90" xlink:href="#md0a17ece74" y="86.857167"/>
      </g>
     </g>
     <g id="text_16">
      <!-- 0.9 -->
      <defs>
       <path d="M 10.984375 1.515625 
L 10.984375 10.5 
Q 14.703125 8.734375 18.5 7.8125 
Q 22.3125 6.890625 25.984375 6.890625 
Q 35.75 6.890625 40.890625 13.453125 
Q 46.046875 20.015625 46.78125 33.40625 
Q 43.953125 29.203125 39.59375 26.953125 
Q 35.25 24.703125 29.984375 24.703125 
Q 19.046875 24.703125 12.671875 31.3125 
Q 6.296875 37.9375 6.296875 49.421875 
Q 6.296875 60.640625 12.9375 67.421875 
Q 19.578125 74.21875 30.609375 74.21875 
Q 43.265625 74.21875 49.921875 64.515625 
Q 56.59375 54.828125 56.59375 36.375 
Q 56.59375 19.140625 48.40625 8.859375 
Q 40.234375 -1.421875 26.421875 -1.421875 
Q 22.703125 -1.421875 18.890625 -0.6875 
Q 15.09375 0.046875 10.984375 1.515625 
z
M 30.609375 32.421875 
Q 37.25 32.421875 41.125 36.953125 
Q 45.015625 41.5 45.015625 49.421875 
Q 45.015625 57.28125 41.125 61.84375 
Q 37.25 66.40625 30.609375 66.40625 
Q 23.96875 66.40625 20.09375 61.84375 
Q 16.21875 57.28125 16.21875 49.421875 
Q 16.21875 41.5 20.09375 36.953125 
Q 23.96875 32.421875 30.609375 32.421875 
z
" id="DejaVuSans-57"/>
      </defs>
      <g transform="translate(67.096875 90.656386)scale(0.1 -0.1)">
       <use xlink:href="#DejaVuSans-48"/>
       <use x="63.623047" xlink:href="#DejaVuSans-46"/>
       <use x="95.410156" xlink:href="#DejaVuSans-57"/>
      </g>
     </g>
    </g>
    <g id="ytick_8">
     <g id="line2d_31">
      <path clip-path="url(#p401719339d)" d="M 90 53.556506 
L 648 53.556506 
" style="fill:none;stroke:#b0b0b0;stroke-linecap:square;stroke-width:0.8;"/>
     </g>
     <g id="line2d_32">
      <g>
       <use style="stroke:#000000;stroke-width:0.8;" x="90" xlink:href="#md0a17ece74" y="53.556506"/>
      </g>
     </g>
     <g id="text_17">
      <!-- 1.0 -->
      <g transform="translate(67.096875 57.355725)scale(0.1 -0.1)">
       <use xlink:href="#DejaVuSans-49"/>
       <use x="63.623047" xlink:href="#DejaVuSans-46"/>
       <use x="95.410156" xlink:href="#DejaVuSans-48"/>
      </g>
     </g>
    </g>
    <g id="text_18">
     <!-- accuracy -->
     <defs>
      <path d="M 34.28125 27.484375 
Q 23.390625 27.484375 19.1875 25 
Q 14.984375 22.515625 14.984375 16.5 
Q 14.984375 11.71875 18.140625 8.90625 
Q 21.296875 6.109375 26.703125 6.109375 
Q 34.1875 6.109375 38.703125 11.40625 
Q 43.21875 16.703125 43.21875 25.484375 
L 43.21875 27.484375 
z
M 52.203125 31.203125 
L 52.203125 0 
L 43.21875 0 
L 43.21875 8.296875 
Q 40.140625 3.328125 35.546875 0.953125 
Q 30.953125 -1.421875 24.3125 -1.421875 
Q 15.921875 -1.421875 10.953125 3.296875 
Q 6 8.015625 6 15.921875 
Q 6 25.140625 12.171875 29.828125 
Q 18.359375 34.515625 30.609375 34.515625 
L 43.21875 34.515625 
L 43.21875 35.40625 
Q 43.21875 41.609375 39.140625 45 
Q 35.0625 48.390625 27.6875 48.390625 
Q 23 48.390625 18.546875 47.265625 
Q 14.109375 46.140625 10.015625 43.890625 
L 10.015625 52.203125 
Q 14.9375 54.109375 19.578125 55.046875 
Q 24.21875 56 28.609375 56 
Q 40.484375 56 46.34375 49.84375 
Q 52.203125 43.703125 52.203125 31.203125 
z
" id="DejaVuSans-97"/>
      <path d="M 8.5 21.578125 
L 8.5 54.6875 
L 17.484375 54.6875 
L 17.484375 21.921875 
Q 17.484375 14.15625 20.5 10.265625 
Q 23.53125 6.390625 29.59375 6.390625 
Q 36.859375 6.390625 41.078125 11.03125 
Q 45.3125 15.671875 45.3125 23.6875 
L 45.3125 54.6875 
L 54.296875 54.6875 
L 54.296875 0 
L 45.3125 0 
L 45.3125 8.40625 
Q 42.046875 3.421875 37.71875 1 
Q 33.40625 -1.421875 27.6875 -1.421875 
Q 18.265625 -1.421875 13.375 4.4375 
Q 8.5 10.296875 8.5 21.578125 
z
M 31.109375 56 
z
" id="DejaVuSans-117"/>
      <path d="M 41.109375 46.296875 
Q 39.59375 47.171875 37.8125 47.578125 
Q 36.03125 48 33.890625 48 
Q 26.265625 48 22.1875 43.046875 
Q 18.109375 38.09375 18.109375 28.8125 
L 18.109375 0 
L 9.078125 0 
L 9.078125 54.6875 
L 18.109375 54.6875 
L 18.109375 46.1875 
Q 20.953125 51.171875 25.484375 53.578125 
Q 30.03125 56 36.53125 56 
Q 37.453125 56 38.578125 55.875 
Q 39.703125 55.765625 41.0625 55.515625 
z
" id="DejaVuSans-114"/>
      <path d="M 32.171875 -5.078125 
Q 28.375 -14.84375 24.75 -17.8125 
Q 21.140625 -20.796875 15.09375 -20.796875 
L 7.90625 -20.796875 
L 7.90625 -13.28125 
L 13.1875 -13.28125 
Q 16.890625 -13.28125 18.9375 -11.515625 
Q 21 -9.765625 23.484375 -3.21875 
L 25.09375 0.875 
L 2.984375 54.6875 
L 12.5 54.6875 
L 29.59375 11.921875 
L 46.6875 54.6875 
L 56.203125 54.6875 
z
" id="DejaVuSans-121"/>
     </defs>
     <g transform="translate(61.017187 201.659375)rotate(-90)scale(0.1 -0.1)">
      <use xlink:href="#DejaVuSans-97"/>
      <use x="61.279297" xlink:href="#DejaVuSans-99"/>
      <use x="116.259766" xlink:href="#DejaVuSans-99"/>
      <use x="171.240234" xlink:href="#DejaVuSans-117"/>
      <use x="234.619141" xlink:href="#DejaVuSans-114"/>
      <use x="275.732422" xlink:href="#DejaVuSans-97"/>
      <use x="337.011719" xlink:href="#DejaVuSans-99"/>
      <use x="391.992188" xlink:href="#DejaVuSans-121"/>
     </g>
    </g>
   </g>
   <g id="line2d_33">
    <path clip-path="url(#p401719339d)" d="M 115.363636 302.645455 
L 115.742198 301.646435 
L 116.12076 296.151826 
L 116.499322 295.985322 
L 116.877883 292.905011 
L 117.256445 291.572985 
L 117.635007 289.408442 
L 118.013569 292.738508 
L 118.39213 292.655256 
L 118.770692 290.573965 
L 119.149254 287.32715 
L 119.527815 285.745369 
L 119.906377 287.077395 
L 120.284939 286.577885 
L 120.663501 278.502475 
L 121.042062 278.502475 
L 121.420624 283.081316 
L 121.799186 281.000025 
L 122.177748 280.25076 
L 122.556309 280.084256 
L 123.313433 271.675839 
L 123.691995 270.676819 
L 124.070556 274.090137 
L 124.449118 268.096018 
L 124.82768 269.17829 
L 125.206242 268.012766 
L 125.584803 264.18319 
L 125.963365 259.021588 
L 126.341927 255.941277 
L 126.720488 260.020608 
L 127.09905 254.525999 
L 127.477612 251.861946 
L 127.856174 251.112681 
L 128.613297 245.618072 
L 128.991859 245.701323 
L 129.370421 238.042171 
L 129.748982 239.124443 
L 130.127544 236.876648 
L 130.506106 237.875668 
L 130.884668 228.884489 
L 131.641791 226.137185 
L 132.020353 222.141105 
L 132.398915 223.223377 
L 132.777476 218.644536 
L 133.5346 212.983423 
L 133.913161 214.981463 
L 134.291723 209.903112 
L 134.670285 210.31937 
L 135.427408 205.157768 
L 135.80597 205.241019 
L 136.184532 199.996165 
L 136.563094 196.416344 
L 136.941655 199.330152 
L 137.320217 193.336033 
L 137.698779 192.67002 
L 138.077341 189.339953 
L 138.455902 187.341914 
L 138.834464 187.924675 
L 139.213026 187.924675 
L 139.591588 186.176391 
L 139.970149 186.592649 
L 140.348711 180.432026 
L 140.727273 180.59853 
L 141.105834 182.679821 
L 141.484396 181.514298 
L 141.862958 175.936437 
L 142.24152 172.023609 
L 142.620081 175.853185 
L 143.377205 168.443788 
L 143.755767 168.194033 
L 144.134328 169.193053 
L 144.891452 164.863967 
L 145.270014 158.869848 
L 145.648575 162.865927 
L 146.027137 159.119603 
L 146.405699 161.950159 
L 146.784261 156.45555 
L 147.162822 155.872789 
L 147.541384 153.874749 
L 147.919946 156.122543 
L 148.298507 152.542722 
L 148.677069 154.041252 
L 149.055631 152.875729 
L 149.812754 148.130385 
L 150.191316 147.714126 
L 150.569878 145.216577 
L 150.94844 139.555464 
L 151.327001 145.216577 
L 151.705563 140.054974 
L 152.462687 136.391901 
L 152.841248 141.137246 
L 153.21981 138.140186 
L 153.598372 133.894352 
L 153.976934 134.060855 
L 154.355495 131.646557 
L 154.734057 133.561345 
L 155.112619 129.565266 
L 155.869742 126.901213 
L 156.248304 129.648518 
L 156.626866 129.815021 
L 157.005427 127.150968 
L 157.383989 126.817961 
L 157.762551 124.570167 
L 158.141113 123.404643 
L 158.519674 119.575067 
L 158.898236 119.408564 
L 159.276798 119.575067 
L 159.65536 120.074577 
L 160.033921 121.156849 
L 160.412483 120.074577 
L 160.791045 117.327273 
L 161.169607 115.995246 
L 161.548168 117.160769 
L 161.92673 114.496716 
L 162.305292 114.496716 
L 162.683853 114.330213 
L 163.062415 115.911995 
L 163.440977 115.745491 
L 163.819539 114.16371 
L 164.1981 111.999167 
L 164.576662 108.585849 
L 164.955224 112.16567 
L 165.333786 108.752352 
L 165.712347 109.917876 
L 166.469471 105.755293 
L 166.848033 112.581928 
L 167.226594 106.587809 
L 167.605156 105.921796 
L 167.983718 105.505538 
L 168.36228 105.255783 
L 168.740841 103.257743 
L 169.119403 104.256763 
L 169.497965 103.507498 
L 169.876526 103.007988 
L 170.255088 104.007008 
L 170.63365 102.425227 
L 171.012212 103.59075 
L 171.390773 99.261664 
L 171.769335 101.259704 
L 172.147897 99.09516 
L 172.526459 98.012889 
L 173.283582 100.427187 
L 173.662144 98.762154 
L 174.040706 95.099081 
L 174.419267 100.010929 
L 174.797829 99.927677 
L 175.176391 98.595651 
L 175.554953 98.262644 
L 175.933514 95.432088 
L 176.312076 95.348836 
L 176.690638 94.849326 
L 177.069199 93.184293 
L 177.447761 98.262644 
L 177.826323 95.681843 
L 178.204885 94.682823 
L 178.583446 95.182333 
L 179.34057 91.685763 
L 179.719132 90.686743 
L 180.097693 92.768035 
L 180.476255 91.103002 
L 180.854817 93.5173 
L 181.233379 89.604472 
L 181.61194 91.51926 
L 181.990502 91.51926 
L 182.369064 92.601531 
L 182.747626 90.436988 
L 183.126187 88.938459 
L 183.504749 91.103002 
L 183.883311 89.854227 
L 184.261872 88.189194 
L 184.640434 92.934538 
L 185.018996 88.5222 
L 185.397558 89.271465 
L 185.776119 87.606432 
L 186.154681 89.687724 
L 186.533243 86.857167 
L 187.290366 88.771955 
L 187.668928 87.023671 
L 188.04749 86.440909 
L 188.426052 87.523181 
L 188.804613 87.023671 
L 189.183175 89.104962 
L 189.940299 86.440909 
L 190.31886 87.523181 
L 190.697422 83.610353 
L 191.075984 84.442869 
L 191.454545 85.858148 
L 191.833107 83.027591 
L 192.211669 86.024651 
L 192.590231 83.860108 
L 192.968792 85.025631 
L 193.347354 85.192134 
L 193.725916 84.526121 
L 194.104478 84.109863 
L 194.483039 85.941399 
L 194.861601 84.442869 
L 195.240163 82.44483 
L 195.618725 84.276366 
L 195.997286 83.943359 
L 196.375848 83.110843 
L 196.75441 82.694585 
L 197.132972 81.029552 
L 197.511533 82.777836 
L 198.268657 80.613293 
L 198.647218 82.861088 
L 199.404342 80.613293 
L 199.782904 80.613293 
L 200.161465 81.862068 
L 200.540027 81.529062 
L 200.918589 82.861088 
L 201.297151 80.363538 
L 201.675712 79.864028 
L 202.054274 82.528081 
L 202.432836 79.114764 
L 202.811398 80.779797 
L 203.189959 81.112803 
L 203.568521 80.197035 
L 203.947083 78.698505 
L 204.325645 82.44483 
L 204.704206 78.865009 
L 205.082768 79.281267 
L 205.46133 77.616234 
L 205.839891 80.9463 
L 206.218453 77.782737 
L 206.597015 80.030532 
L 206.975577 81.362558 
L 207.354138 76.700466 
L 207.7327 79.94728 
L 208.111262 77.44973 
L 208.489824 78.365499 
L 209.246947 78.781757 
L 209.625509 78.115744 
L 210.004071 76.034452 
L 210.382632 77.699485 
L 210.761194 76.367459 
L 211.139756 77.782737 
L 211.518318 80.696545 
L 211.896879 76.200956 
L 212.275441 77.283227 
L 212.654003 74.535923 
L 213.032564 77.116724 
L 213.411126 75.784697 
L 213.789688 76.533962 
L 214.16825 76.117704 
L 214.546811 76.950221 
L 214.925373 77.199975 
L 215.303935 76.367459 
L 215.682497 74.619174 
L 216.061058 75.867949 
L 216.43962 78.282247 
L 216.818182 77.116724 
L 217.575305 74.286168 
L 217.953867 75.784697 
L 218.332429 75.534942 
L 218.710991 72.038373 
L 219.089552 75.867949 
L 219.468114 74.952181 
L 219.846676 75.784697 
L 220.225237 74.535923 
L 220.603799 75.951201 
L 220.982361 73.370399 
L 221.360923 74.452671 
L 221.739484 76.034452 
L 222.118046 75.201936 
L 222.496608 76.284207 
L 223.253731 73.037393 
L 223.632293 72.954141 
L 224.010855 75.784697 
L 224.389417 73.786658 
L 224.767978 74.452671 
L 225.14654 73.370399 
L 225.525102 75.618194 
L 225.903664 74.286168 
L 226.282225 72.204876 
L 226.660787 72.704386 
L 227.039349 74.119664 
L 227.41791 73.786658 
L 227.796472 73.037393 
L 228.175034 75.951201 
L 228.553596 72.870889 
L 228.932157 73.370399 
L 229.310719 70.87285 
L 229.689281 73.953161 
L 230.067843 70.87285 
L 230.446404 72.37138 
L 230.824966 71.455611 
L 231.203528 72.704386 
L 231.58209 72.288128 
L 231.960651 73.037393 
L 232.339213 71.705366 
L 232.717775 69.707327 
L 233.096336 73.953161 
L 233.474898 71.122605 
L 233.85346 74.202916 
L 234.232022 70.290088 
L 235.367707 71.455611 
L 235.746269 70.206837 
L 236.12483 71.87187 
L 236.503392 70.539843 
L 236.881954 70.623095 
L 237.260516 70.290088 
L 237.639077 70.706346 
L 238.396201 69.707327 
L 239.153324 71.039353 
L 239.910448 68.708307 
L 240.289009 70.706346 
L 240.667571 70.456592 
L 241.046133 71.622115 
L 241.424695 70.789598 
L 241.803256 72.038373 
L 242.181818 72.038373 
L 242.56038 71.205856 
L 242.938942 70.789598 
L 244.074627 68.708307 
L 244.453189 70.956101 
L 244.83175 71.538863 
L 245.210312 70.040333 
L 245.588874 69.957082 
L 245.967436 69.624075 
L 246.345997 70.37334 
L 246.724559 70.290088 
L 247.103121 69.624075 
L 247.481682 69.291068 
L 247.860244 70.789598 
L 248.617368 67.37628 
L 249.374491 70.290088 
L 249.753053 68.958062 
L 250.131615 69.957082 
L 250.510176 69.37432 
L 250.888738 70.206837 
L 251.2673 68.208797 
L 251.645862 69.87383 
L 252.024423 67.459532 
L 252.402985 68.458552 
L 252.781547 67.792539 
L 253.160109 68.625055 
L 253.53867 67.959042 
L 253.917232 70.37334 
L 254.295794 68.791558 
L 254.674355 69.707327 
L 255.052917 69.540823 
L 255.431479 68.292049 
L 255.810041 68.042294 
L 256.188602 69.207817 
L 256.567164 69.207817 
L 256.945726 68.458552 
L 257.324288 69.624075 
L 257.702849 67.709287 
L 258.081411 67.792539 
L 258.459973 68.042294 
L 258.838535 67.87579 
L 259.217096 66.960022 
L 259.595658 70.290088 
L 259.97422 68.125545 
L 260.352782 68.791558 
L 260.731343 67.209777 
L 261.109905 67.792539 
L 261.488467 67.542784 
L 261.867028 67.626035 
L 262.24559 68.458552 
L 262.624152 67.626035 
L 263.002714 65.877751 
L 263.381275 67.626035 
L 263.759837 67.209777 
L 264.138399 67.209777 
L 264.516961 69.291068 
L 264.895522 69.291068 
L 265.274084 67.709287 
L 265.652646 67.209777 
L 266.031208 67.959042 
L 266.409769 66.127506 
L 266.788331 66.460512 
L 267.166893 67.542784 
L 267.924016 66.543764 
L 268.302578 67.542784 
L 268.68114 67.459532 
L 269.059701 66.044254 
L 269.816825 68.458552 
L 270.195387 67.293029 
L 270.573948 68.458552 
L 270.95251 68.458552 
L 271.331072 66.044254 
L 271.709634 67.959042 
L 272.088195 65.711247 
L 272.466757 66.627015 
L 272.845319 66.37726 
L 273.223881 66.87677 
L 273.981004 65.627996 
L 274.359566 66.543764 
L 274.738128 66.960022 
L 275.116689 68.125545 
L 275.495251 67.043274 
L 275.873813 67.542784 
L 276.252374 67.126525 
L 276.630936 65.877751 
L 277.009498 66.37726 
L 277.38806 67.459532 
L 277.766621 65.544744 
L 278.145183 66.543764 
L 278.523745 67.209777 
L 278.902307 65.045234 
L 279.280868 65.877751 
L 279.65943 67.043274 
L 280.037992 67.043274 
L 280.416554 66.127506 
L 280.795115 66.793519 
L 281.173677 66.210757 
L 281.552239 64.046214 
L 281.930801 65.627996 
L 282.309362 65.294989 
L 282.687924 65.294989 
L 283.066486 65.711247 
L 283.445047 65.794499 
L 284.202171 65.211737 
L 284.580733 65.045234 
L 284.959294 65.461492 
L 285.337856 65.544744 
L 285.716418 64.961982 
L 286.09498 66.044254 
L 286.473541 66.044254 
L 286.852103 64.628976 
L 287.230665 64.046214 
L 287.609227 65.711247 
L 287.987788 64.878731 
L 288.36635 66.710267 
L 288.744912 64.545724 
L 289.123474 66.793519 
L 289.502035 65.045234 
L 289.880597 64.795479 
L 290.259159 66.793519 
L 290.63772 63.130446 
L 291.016282 65.711247 
L 291.394844 65.544744 
L 291.773406 63.962963 
L 292.151967 64.545724 
L 292.530529 66.37726 
L 292.909091 64.212717 
L 293.287653 63.213698 
L 293.666214 63.879711 
L 294.044776 65.544744 
L 294.423338 65.045234 
L 294.8019 64.129466 
L 295.180461 65.711247 
L 295.559023 64.212717 
L 295.937585 64.878731 
L 296.316147 64.712227 
L 296.694708 63.796459 
L 297.07327 62.464433 
L 297.451832 64.712227 
L 297.830393 63.130446 
L 298.208955 64.795479 
L 298.587517 63.629956 
L 298.966079 63.879711 
L 299.34464 66.127506 
L 299.723202 63.962963 
L 300.101764 63.546704 
L 300.480326 64.712227 
L 300.858887 63.130446 
L 301.237449 62.963943 
L 301.616011 64.295969 
L 301.994573 64.129466 
L 302.373134 64.295969 
L 302.751696 63.546704 
L 303.130258 63.879711 
L 303.50882 65.211737 
L 303.887381 63.713208 
L 304.265943 63.296949 
L 304.644505 64.795479 
L 305.023066 64.712227 
L 305.401628 63.713208 
L 305.78019 64.046214 
L 306.537313 63.130446 
L 306.915875 63.629956 
L 307.294437 63.629956 
L 307.672999 62.297929 
L 308.05156 64.545724 
L 308.430122 65.544744 
L 308.808684 64.712227 
L 309.187246 63.380201 
L 309.565807 64.712227 
L 309.944369 64.129466 
L 310.322931 62.547684 
L 310.701493 62.381181 
L 311.458616 64.046214 
L 311.837178 63.380201 
L 312.215739 61.79842 
L 312.594301 62.547684 
L 312.972863 63.047194 
L 313.351425 64.212717 
L 313.729986 63.796459 
L 314.108548 63.962963 
L 314.48711 62.880691 
L 315.244233 63.047194 
L 315.622795 63.879711 
L 316.001357 63.380201 
L 316.379919 63.879711 
L 316.75848 63.796459 
L 317.137042 62.880691 
L 317.515604 64.878731 
L 317.894166 61.548665 
L 318.272727 63.629956 
L 318.651289 62.381181 
L 319.029851 63.380201 
L 319.408412 60.882651 
L 319.786974 63.047194 
L 320.544098 61.964923 
L 320.922659 63.380201 
L 321.301221 62.464433 
L 321.679783 62.880691 
L 322.058345 63.629956 
L 322.436906 62.297929 
L 322.815468 63.047194 
L 323.19403 62.797439 
L 323.572592 63.296949 
L 323.951153 62.630936 
L 324.329715 64.129466 
L 324.708277 62.297929 
L 325.4654 63.213698 
L 325.843962 62.547684 
L 326.222524 61.29891 
L 326.979647 63.047194 
L 327.358209 62.297929 
L 327.736771 61.79842 
L 328.115332 63.047194 
L 328.493894 63.546704 
L 328.872456 62.797439 
L 329.251018 62.297929 
L 329.629579 62.880691 
L 330.008141 62.048174 
L 330.386703 63.629956 
L 330.765265 63.796459 
L 331.143826 62.547684 
L 331.522388 61.881671 
L 331.90095 62.714188 
L 332.279512 61.132406 
L 332.658073 63.296949 
L 333.036635 61.715168 
L 333.415197 62.297929 
L 333.793758 62.131426 
L 334.17232 61.79842 
L 334.550882 62.381181 
L 334.929444 61.215658 
L 335.308005 61.29891 
L 335.686567 62.714188 
L 336.065129 61.881671 
L 336.822252 62.880691 
L 337.579376 61.29891 
L 338.336499 62.797439 
L 339.093623 61.715168 
L 339.472185 61.79842 
L 339.850746 62.214678 
L 340.229308 61.715168 
L 340.60787 61.881671 
L 340.986431 62.714188 
L 341.364993 62.297929 
L 341.743555 62.297929 
L 342.122117 61.631916 
L 342.500678 62.297929 
L 342.87924 63.546704 
L 343.257802 62.547684 
L 343.636364 62.297929 
L 344.014925 62.630936 
L 344.393487 61.631916 
L 344.772049 63.213698 
L 345.150611 60.7994 
L 345.529172 62.048174 
L 346.286296 60.7994 
L 346.664858 61.382161 
L 347.043419 61.382161 
L 347.421981 60.29989 
L 347.800543 61.631916 
L 348.179104 61.29891 
L 348.557666 62.880691 
L 348.936228 61.382161 
L 349.31479 62.547684 
L 349.693351 61.382161 
L 350.071913 61.049155 
L 350.450475 61.631916 
L 351.207598 60.549645 
L 351.58616 62.131426 
L 351.964722 60.716148 
L 352.721845 61.548665 
L 353.100407 61.715168 
L 353.857531 61.132406 
L 354.236092 62.131426 
L 354.614654 61.964923 
L 354.993216 60.965903 
L 355.371777 62.214678 
L 355.750339 62.048174 
L 356.128901 61.049155 
L 356.507463 61.29891 
L 356.886024 61.382161 
L 357.264586 60.716148 
L 358.02171 61.215658 
L 358.400271 61.132406 
L 358.778833 61.79842 
L 359.157395 60.882651 
L 359.535957 62.131426 
L 359.914518 61.132406 
L 360.29308 61.465413 
L 361.050204 62.630936 
L 361.428765 61.215658 
L 361.807327 61.964923 
L 362.185889 62.131426 
L 363.321574 60.466393 
L 363.700136 60.965903 
L 364.078697 60.716148 
L 364.457259 61.049155 
L 364.835821 62.048174 
L 365.214383 61.964923 
L 365.971506 60.216638 
L 366.350068 60.549645 
L 366.72863 61.049155 
L 367.107191 59.883631 
L 367.864315 61.964923 
L 368.242877 61.715168 
L 368.621438 60.632896 
L 369.378562 60.716148 
L 369.757123 60.466393 
L 370.135685 59.966883 
L 370.514247 59.966883 
L 370.892809 60.632896 
L 371.27137 60.133386 
L 371.649932 61.465413 
L 372.028494 61.548665 
L 372.407056 61.29891 
L 372.785617 60.383141 
L 373.164179 59.80038 
L 373.542741 60.882651 
L 373.921303 60.882651 
L 374.299864 60.133386 
L 374.678426 60.216638 
L 375.056988 61.132406 
L 375.43555 60.050135 
L 375.814111 60.466393 
L 376.192673 60.133386 
L 376.571235 60.632896 
L 376.949796 60.383141 
L 377.328358 62.048174 
L 378.085482 59.966883 
L 378.464043 61.049155 
L 379.221167 60.7994 
L 379.599729 61.548665 
L 379.97829 59.966883 
L 380.356852 60.050135 
L 380.735414 60.7994 
L 381.113976 59.717128 
L 381.492537 60.216638 
L 381.871099 61.132406 
L 382.249661 60.133386 
L 382.628223 60.549645 
L 383.006784 59.467373 
L 383.385346 60.216638 
L 383.763908 58.884612 
L 384.142469 60.383141 
L 384.521031 61.215658 
L 385.278155 58.468353 
L 385.656716 60.965903 
L 386.035278 60.466393 
L 386.41384 61.548665 
L 386.792402 60.050135 
L 387.170963 59.966883 
L 387.549525 60.29989 
L 387.928087 59.217618 
L 388.306649 60.716148 
L 388.68521 60.133386 
L 389.063772 60.466393 
L 389.820896 60.216638 
L 390.199457 59.633877 
L 390.578019 61.548665 
L 391.335142 60.050135 
L 391.713704 59.966883 
L 392.092266 59.550625 
L 392.470828 58.967863 
L 392.849389 60.050135 
L 393.227951 59.384122 
L 393.606513 60.050135 
L 393.985075 58.718108 
L 394.363636 59.384122 
L 394.742198 60.882651 
L 395.12076 60.7994 
L 395.499322 60.29989 
L 395.877883 60.632896 
L 396.256445 60.29989 
L 396.635007 59.717128 
L 397.013569 61.132406 
L 397.39213 58.967863 
L 397.770692 60.632896 
L 398.149254 59.717128 
L 398.527815 59.217618 
L 398.906377 60.383141 
L 399.284939 60.632896 
L 399.663501 60.133386 
L 400.042062 58.634857 
L 400.420624 59.966883 
L 400.799186 59.550625 
L 401.177748 60.716148 
L 401.556309 58.884612 
L 401.934871 58.551605 
L 402.313433 59.217618 
L 402.691995 58.80136 
L 403.070556 59.467373 
L 403.449118 60.383141 
L 403.82768 60.549645 
L 404.206242 58.80136 
L 404.584803 59.217618 
L 404.963365 58.80136 
L 405.341927 59.80038 
L 405.720488 59.633877 
L 406.09905 61.215658 
L 406.477612 60.632896 
L 406.856174 59.217618 
L 407.234735 59.30087 
L 407.613297 58.718108 
L 407.991859 59.384122 
L 408.370421 59.051115 
L 408.748982 59.717128 
L 409.127544 59.633877 
L 409.506106 60.549645 
L 409.884668 58.468353 
L 410.263229 60.549645 
L 410.641791 58.718108 
L 411.020353 60.383141 
L 411.398915 58.967863 
L 411.777476 60.216638 
L 412.156038 58.468353 
L 413.291723 59.80038 
L 413.670285 59.30087 
L 414.048847 59.30087 
L 414.427408 59.717128 
L 414.80597 59.467373 
L 415.184532 59.883631 
L 415.563094 59.966883 
L 415.941655 59.051115 
L 416.320217 58.884612 
L 416.698779 59.467373 
L 417.077341 58.967863 
L 417.455902 59.80038 
L 418.213026 59.80038 
L 418.591588 58.468353 
L 418.970149 58.30185 
L 419.348711 59.467373 
L 419.727273 59.051115 
L 420.105834 59.717128 
L 420.484396 58.551605 
L 420.862958 59.467373 
L 421.24152 58.718108 
L 421.620081 59.467373 
L 421.998643 58.967863 
L 422.377205 58.967863 
L 422.755767 59.384122 
L 423.134328 58.884612 
L 423.51289 59.883631 
L 423.891452 60.050135 
L 424.648575 59.30087 
L 425.405699 58.884612 
L 425.784261 60.383141 
L 426.162822 59.467373 
L 426.541384 59.80038 
L 426.919946 58.80136 
L 427.298507 59.80038 
L 427.677069 58.718108 
L 428.055631 59.134367 
L 428.434193 59.134367 
L 429.94844 58.551605 
L 430.327001 58.967863 
L 430.705563 60.050135 
L 431.084125 59.051115 
L 431.462687 59.966883 
L 431.841248 58.634857 
L 432.21981 59.550625 
L 432.598372 59.883631 
L 432.976934 60.882651 
L 433.355495 59.217618 
L 433.734057 59.80038 
L 434.112619 58.80136 
L 434.49118 59.051115 
L 434.869742 59.550625 
L 435.248304 58.551605 
L 435.626866 59.550625 
L 436.005427 59.550625 
L 436.383989 58.385102 
L 436.762551 59.30087 
L 437.141113 58.468353 
L 437.519674 58.884612 
L 437.898236 59.966883 
L 438.276798 59.467373 
L 438.65536 59.30087 
L 439.412483 58.30185 
L 439.791045 59.384122 
L 440.169607 58.30185 
L 440.92673 60.383141 
L 441.305292 58.718108 
L 441.683853 59.217618 
L 442.062415 58.385102 
L 442.819539 58.80136 
L 443.1981 58.30185 
L 443.576662 58.80136 
L 443.955224 60.383141 
L 444.333786 59.883631 
L 444.712347 58.718108 
L 445.090909 58.80136 
L 445.469471 58.052095 
L 445.848033 58.551605 
L 446.226594 58.30185 
L 446.605156 59.134367 
L 446.983718 58.468353 
L 447.36228 58.967863 
L 447.740841 58.718108 
L 448.119403 58.718108 
L 448.497965 57.635837 
L 448.876526 58.052095 
L 449.255088 58.135347 
L 449.63365 59.384122 
L 450.012212 59.633877 
L 450.390773 59.550625 
L 451.147897 58.468353 
L 451.526459 58.551605 
L 451.90502 58.884612 
L 452.283582 58.468353 
L 452.662144 58.551605 
L 453.040706 59.467373 
L 453.419267 58.80136 
L 453.797829 59.467373 
L 454.176391 58.634857 
L 455.312076 58.468353 
L 455.690638 58.967863 
L 456.069199 58.551605 
L 456.447761 59.384122 
L 456.826323 59.467373 
L 457.204885 58.80136 
L 457.583446 58.80136 
L 457.962008 58.218598 
L 458.34057 58.385102 
L 458.719132 58.884612 
L 459.854817 58.80136 
L 460.233379 58.634857 
L 460.61194 58.634857 
L 460.990502 57.635837 
L 461.369064 59.30087 
L 461.747626 57.469333 
L 462.126187 58.718108 
L 462.504749 57.552585 
L 462.883311 58.967863 
L 463.261872 59.134367 
L 464.018996 57.885592 
L 464.397558 58.30185 
L 464.776119 58.052095 
L 465.154681 58.634857 
L 465.533243 57.386082 
L 465.911805 59.217618 
L 466.290366 58.052095 
L 467.04749 57.885592 
L 467.426052 58.551605 
L 468.183175 58.135347 
L 468.561737 58.30185 
L 468.940299 58.718108 
L 469.31886 57.80234 
L 469.697422 59.467373 
L 470.075984 57.635837 
L 470.454545 58.052095 
L 470.833107 57.719088 
L 471.211669 58.218598 
L 471.590231 58.385102 
L 471.968792 58.884612 
L 472.725916 58.551605 
L 473.104478 59.30087 
L 473.483039 56.969824 
L 473.861601 58.385102 
L 474.240163 57.80234 
L 474.618725 57.719088 
L 474.997286 57.80234 
L 475.75441 58.634857 
L 476.132972 57.719088 
L 476.511533 58.718108 
L 476.890095 58.385102 
L 477.268657 58.551605 
L 478.02578 58.218598 
L 478.404342 56.636817 
L 478.782904 59.051115 
L 479.161465 59.384122 
L 479.540027 57.968843 
L 479.918589 57.30283 
L 480.297151 58.634857 
L 480.675712 57.552585 
L 481.054274 58.218598 
L 481.432836 58.30185 
L 481.811398 56.969824 
L 482.189959 58.385102 
L 482.568521 57.968843 
L 482.947083 58.634857 
L 483.325645 58.052095 
L 483.704206 57.968843 
L 484.46133 58.385102 
L 484.839891 58.967863 
L 485.218453 58.718108 
L 485.597015 58.218598 
L 485.975577 58.634857 
L 486.354138 57.719088 
L 486.7327 57.80234 
L 487.111262 58.468353 
L 487.489824 57.968843 
L 487.868385 57.80234 
L 488.246947 57.968843 
L 488.625509 58.468353 
L 489.004071 58.135347 
L 489.382632 58.135347 
L 489.761194 58.884612 
L 490.139756 58.551605 
L 490.518318 58.052095 
L 490.896879 57.885592 
L 491.275441 59.051115 
L 491.654003 58.468353 
L 492.032564 57.136327 
L 492.411126 58.967863 
L 492.789688 57.635837 
L 493.16825 57.968843 
L 493.546811 58.468353 
L 493.925373 57.80234 
L 494.303935 57.386082 
L 495.061058 58.218598 
L 495.43962 57.30283 
L 495.818182 57.136327 
L 496.196744 57.885592 
L 496.575305 58.385102 
L 496.953867 57.80234 
L 497.332429 58.468353 
L 497.710991 59.384122 
L 498.089552 58.218598 
L 498.468114 57.885592 
L 498.846676 57.968843 
L 499.225237 58.634857 
L 499.603799 57.968843 
L 499.982361 58.634857 
L 500.360923 58.385102 
L 500.739484 59.051115 
L 501.496608 57.219579 
L 501.87517 58.967863 
L 502.253731 57.968843 
L 502.632293 59.217618 
L 503.389417 57.136327 
L 503.767978 57.30283 
L 504.14654 58.30185 
L 505.282225 58.718108 
L 505.660787 58.135347 
L 506.039349 58.551605 
L 506.41791 57.552585 
L 506.796472 57.469333 
L 507.175034 58.385102 
L 507.553596 58.135347 
L 507.932157 56.80332 
L 508.310719 57.552585 
L 508.689281 57.885592 
L 509.067843 58.634857 
L 509.446404 57.386082 
L 509.824966 58.30185 
L 510.203528 58.218598 
L 510.58209 57.053075 
L 510.960651 58.385102 
L 511.339213 57.136327 
L 511.717775 57.386082 
L 512.096336 56.636817 
L 512.474898 58.551605 
L 512.85346 57.219579 
L 513.232022 57.80234 
L 513.610583 57.635837 
L 513.989145 58.30185 
L 514.367707 57.635837 
L 514.746269 58.052095 
L 515.12483 57.719088 
L 515.503392 57.885592 
L 515.881954 57.552585 
L 516.260516 57.053075 
L 516.639077 57.719088 
L 517.017639 57.053075 
L 517.774763 57.219579 
L 518.153324 57.635837 
L 518.531886 56.969824 
L 518.910448 57.968843 
L 519.289009 57.968843 
L 519.667571 57.30283 
L 520.046133 57.968843 
L 520.424695 57.053075 
L 520.803256 58.052095 
L 521.181818 58.218598 
L 521.56038 57.552585 
L 521.938942 57.552585 
L 522.696065 58.468353 
L 523.074627 57.552585 
L 523.453189 58.80136 
L 523.83175 57.552585 
L 524.210312 57.885592 
L 524.588874 57.053075 
L 525.345997 57.635837 
L 525.724559 57.719088 
L 526.103121 57.053075 
L 526.481682 58.385102 
L 526.860244 58.218598 
L 527.238806 57.552585 
L 527.617368 57.552585 
L 527.995929 57.30283 
L 528.374491 57.719088 
L 528.753053 57.719088 
L 529.131615 58.551605 
L 529.510176 57.469333 
L 529.888738 57.219579 
L 530.2673 58.218598 
L 530.645862 58.468353 
L 531.402985 57.719088 
L 531.781547 55.970804 
L 532.160109 57.80234 
L 532.53867 57.552585 
L 532.917232 57.968843 
L 533.295794 57.719088 
L 533.674355 57.219579 
L 534.052917 58.135347 
L 534.431479 57.80234 
L 535.188602 56.137307 
L 535.567164 58.551605 
L 535.945726 56.720069 
L 536.324288 57.552585 
L 536.702849 57.386082 
L 537.081411 58.052095 
L 537.459973 56.886572 
L 537.838535 57.30283 
L 538.217096 56.80332 
L 538.595658 58.135347 
L 538.97422 58.218598 
L 539.352782 57.053075 
L 539.731343 58.80136 
L 540.109905 56.80332 
L 541.24559 57.552585 
L 541.624152 57.469333 
L 542.002714 57.719088 
L 542.381275 57.30283 
L 542.759837 58.468353 
L 543.138399 58.135347 
L 543.516961 57.552585 
L 543.895522 57.719088 
L 544.274084 57.136327 
L 544.652646 57.80234 
L 545.031208 57.30283 
L 545.409769 57.552585 
L 545.788331 57.386082 
L 546.166893 57.719088 
L 546.545455 56.720069 
L 546.924016 57.469333 
L 547.302578 56.553565 
L 547.68114 56.969824 
L 548.059701 57.136327 
L 548.438263 57.136327 
L 548.816825 58.135347 
L 549.195387 57.386082 
L 549.573948 57.053075 
L 549.95251 56.553565 
L 550.331072 57.635837 
L 550.709634 57.136327 
L 551.088195 58.218598 
L 551.466757 57.053075 
L 551.845319 57.386082 
L 552.981004 57.219579 
L 553.738128 57.386082 
L 554.116689 56.220559 
L 554.495251 57.968843 
L 555.252374 57.386082 
L 555.630936 58.135347 
L 556.009498 58.468353 
L 556.766621 57.635837 
L 557.145183 57.552585 
L 557.902307 56.636817 
L 558.280868 57.635837 
L 558.65943 57.219579 
L 559.037992 57.469333 
L 559.416554 57.885592 
L 559.795115 56.553565 
L 560.173677 57.136327 
L 560.552239 57.30283 
L 560.930801 55.887552 
L 561.687924 57.719088 
L 562.066486 56.80332 
L 562.445047 57.552585 
L 562.823609 57.719088 
L 563.202171 57.219579 
L 563.580733 57.30283 
L 563.959294 58.218598 
L 564.337856 57.30283 
L 564.716418 57.219579 
L 565.09498 57.80234 
L 565.473541 57.635837 
L 565.852103 58.218598 
L 566.987788 56.30381 
L 567.36635 57.719088 
L 567.744912 57.552585 
L 568.123474 56.80332 
L 568.502035 57.719088 
L 568.880597 57.719088 
L 569.259159 57.552585 
L 569.63772 58.052095 
L 570.016282 57.552585 
L 570.394844 57.719088 
L 570.773406 57.552585 
L 571.151967 57.136327 
L 571.530529 58.634857 
L 571.909091 57.386082 
L 572.287653 57.386082 
L 572.666214 56.470314 
L 573.044776 57.80234 
L 573.423338 56.553565 
L 573.8019 57.136327 
L 574.180461 57.469333 
L 574.559023 57.386082 
L 574.937585 56.30381 
L 575.694708 57.552585 
L 576.07327 57.053075 
L 576.830393 57.885592 
L 577.208955 57.968843 
L 577.587517 57.136327 
L 577.966079 58.551605 
L 578.34464 57.30283 
L 578.723202 56.80332 
L 579.101764 57.219579 
L 579.480326 56.636817 
L 579.858887 56.969824 
L 580.237449 58.30185 
L 580.616011 56.387062 
L 580.994573 57.80234 
L 581.373134 55.970804 
L 581.751696 58.135347 
L 582.130258 57.386082 
L 582.50882 57.136327 
L 582.887381 56.636817 
L 583.265943 57.053075 
L 584.023066 56.636817 
L 584.401628 56.553565 
L 584.78019 57.136327 
L 585.158752 56.220559 
L 585.537313 57.469333 
L 585.915875 57.635837 
L 586.294437 56.636817 
L 587.05156 56.553565 
L 587.430122 57.386082 
L 587.808684 57.136327 
L 588.187246 57.635837 
L 588.565807 56.969824 
L 588.944369 57.469333 
L 589.322931 56.387062 
L 589.701493 56.387062 
L 590.080054 56.80332 
L 590.458616 57.386082 
L 590.837178 57.552585 
L 591.215739 55.554545 
L 591.594301 57.635837 
L 591.972863 57.635837 
L 592.351425 57.053075 
L 592.729986 56.886572 
L 593.108548 57.30283 
L 593.48711 57.469333 
L 593.865672 57.053075 
L 594.244233 56.220559 
L 594.622795 58.634857 
L 595.001357 57.136327 
L 595.379919 57.136327 
L 595.75848 56.886572 
L 596.137042 57.219579 
L 596.515604 58.80136 
L 596.894166 57.719088 
L 597.272727 57.635837 
L 597.651289 56.80332 
L 598.408412 57.053075 
L 599.165536 56.80332 
L 599.544098 57.635837 
L 599.922659 56.636817 
L 600.301221 57.053075 
L 601.058345 56.80332 
L 601.436906 57.136327 
L 601.815468 57.80234 
L 602.19403 57.635837 
L 602.572592 56.720069 
L 602.951153 57.386082 
L 603.329715 56.886572 
L 603.708277 57.053075 
L 604.086839 56.30381 
L 604.4654 57.80234 
L 605.222524 57.219579 
L 605.601085 57.719088 
L 605.979647 56.80332 
L 606.358209 57.219579 
L 606.736771 57.80234 
L 607.115332 56.553565 
L 607.493894 57.386082 
L 607.872456 56.553565 
L 608.251018 57.469333 
L 608.629579 57.719088 
L 609.386703 56.636817 
L 609.765265 57.219579 
L 610.143826 57.386082 
L 610.522388 56.886572 
L 610.90095 57.885592 
L 611.279512 57.219579 
L 611.658073 57.719088 
L 612.036635 56.886572 
L 612.415197 57.219579 
L 612.793758 57.386082 
L 613.17232 56.80332 
L 613.550882 56.636817 
L 613.929444 56.720069 
L 614.308005 57.469333 
L 614.686567 56.969824 
L 615.065129 56.720069 
L 615.822252 57.469333 
L 616.200814 56.636817 
L 616.579376 56.720069 
L 616.957938 56.969824 
L 617.715061 57.885592 
L 618.093623 56.636817 
L 618.472185 56.80332 
L 618.850746 56.636817 
L 619.229308 57.469333 
L 619.60787 57.219579 
L 619.986431 57.30283 
L 620.364993 56.80332 
L 620.743555 57.136327 
L 621.122117 56.80332 
L 621.500678 56.969824 
L 621.87924 57.469333 
L 622.257802 56.470314 
L 622.636364 56.553565 
L 622.636364 56.553565 
" style="fill:none;stroke:#1f77b4;stroke-linecap:square;stroke-width:0.5;"/>
   </g>
   <g id="line2d_34">
    <path clip-path="url(#p401719339d)" d="M 115.363636 298.066614 
L 115.742198 297.483852 
L 116.12076 295.818819 
L 116.499322 297.234097 
L 116.877883 299.648395 
L 117.256445 294.237037 
L 117.635007 293.654276 
L 118.013569 294.653296 
L 118.39213 291.656236 
L 118.770692 290.990223 
L 119.149254 291.32323 
L 119.527815 287.576905 
L 119.906377 288.159667 
L 120.284939 287.576905 
L 120.663501 284.996104 
L 121.042062 286.411382 
L 121.420624 290.573965 
L 122.556309 278.419223 
L 122.934871 279.834501 
L 123.313433 278.585727 
L 123.691995 276.587687 
L 124.070556 271.592588 
L 124.449118 271.925594 
L 124.82768 270.676819 
L 125.206242 272.092098 
L 125.963365 265.265462 
L 126.341927 267.513257 
L 126.720488 260.520118 
L 127.09905 258.10582 
L 127.477612 256.773793 
L 127.856174 249.697403 
L 128.234735 252.194952 
L 128.613297 248.948138 
L 128.991859 247.865866 
L 129.370421 243.620032 
L 129.748982 244.868807 
L 130.127544 240.123462 
L 130.506106 238.541681 
L 130.884668 238.791436 
L 131.641791 228.717986 
L 132.020353 227.635714 
L 132.398915 220.226317 
L 132.777476 222.057853 
L 133.156038 222.307608 
L 133.5346 217.062754 
L 133.913161 215.314469 
L 134.291723 217.978522 
L 134.670285 215.231218 
L 135.427408 208.737589 
L 135.80597 211.068635 
L 136.184532 208.654337 
L 136.563094 207.572066 
L 137.320217 197.248861 
L 137.698779 200.662178 
L 138.077341 199.579907 
L 138.455902 194.751311 
L 138.834464 194.251801 
L 139.213026 189.17345 
L 139.591588 193.419284 
L 139.970149 188.17443 
L 140.348711 189.589708 
L 140.727273 184.511358 
L 141.105834 184.261603 
L 141.862958 180.432026 
L 142.24152 179.932517 
L 142.620081 179.766013 
L 142.998643 172.439868 
L 143.377205 175.103921 
L 143.755767 171.02459 
L 144.51289 170.941338 
L 144.891452 173.105881 
L 145.270014 164.447709 
L 145.648575 167.611272 
L 146.027137 166.862007 
L 146.405699 163.615192 
L 146.784261 167.361517 
L 147.162822 157.704325 
L 147.541384 159.369358 
L 147.919946 160.368378 
L 148.298507 158.370338 
L 148.677069 154.45751 
L 149.055631 154.540762 
L 149.434193 155.123524 
L 149.812754 151.210696 
L 150.191316 152.875729 
L 150.569878 152.542722 
L 150.94844 147.38112 
L 151.327001 147.797378 
L 151.705563 147.547623 
L 152.084125 147.131365 
L 152.462687 142.635776 
L 152.841248 142.552524 
L 153.21981 142.302769 
L 153.598372 141.803259 
L 153.976934 140.138226 
L 154.355495 141.886511 
L 155.49118 137.640676 
L 155.869742 132.728829 
L 156.248304 132.895332 
L 156.626866 134.726868 
L 157.005427 133.478094 
L 157.762551 129.065756 
L 158.141113 127.733729 
L 158.519674 123.820902 
L 159.276798 126.2352 
L 159.65536 129.815021 
L 160.033921 127.650478 
L 160.412483 122.988385 
L 160.791045 124.153908 
L 161.169607 119.824822 
L 161.548168 120.823842 
L 161.92673 119.575067 
L 162.305292 120.241081 
L 162.683853 115.66224 
L 163.062415 118.576048 
L 163.440977 119.908074 
L 163.819539 116.078498 
L 164.1981 115.66224 
L 164.576662 117.244021 
L 165.333786 112.748432 
L 165.712347 115.079478 
L 166.090909 112.498677 
L 166.469471 113.081438 
L 166.848033 114.579968 
L 167.226594 110.334134 
L 167.605156 109.335114 
L 167.983718 109.335114 
L 168.740841 111.832664 
L 169.497965 105.422286 
L 169.876526 107.503578 
L 170.255088 104.58977 
L 170.63365 106.837564 
L 171.390773 107.087319 
L 171.769335 106.421306 
L 172.147897 106.005048 
L 172.526459 102.341975 
L 172.90502 105.255783 
L 173.283582 104.756273 
L 173.662144 103.09124 
L 174.040706 104.506518 
L 174.419267 104.256763 
L 174.797829 102.674982 
L 175.176391 101.842465 
L 175.554953 103.59075 
L 175.933514 103.174492 
L 176.312076 97.180372 
L 176.690638 99.428167 
L 177.069199 98.262644 
L 177.447761 99.344915 
L 177.826323 97.263624 
L 178.204885 96.930617 
L 178.583446 95.848346 
L 179.34057 98.595651 
L 179.719132 99.511419 
L 180.476255 97.013869 
L 180.854817 96.431108 
L 181.233379 95.182333 
L 181.61194 97.929637 
L 181.990502 95.765094 
L 182.369064 97.846386 
L 182.747626 93.683803 
L 183.126187 96.764114 
L 183.504749 94.433068 
L 184.261872 95.765094 
L 184.640434 92.851286 
L 185.018996 94.51632 
L 185.397558 92.268525 
L 185.776119 92.435028 
L 186.154681 93.683803 
L 186.533243 91.685763 
L 186.911805 92.601531 
L 187.290366 91.602512 
L 187.668928 91.103002 
L 188.04749 92.684783 
L 188.426052 93.5173 
L 188.804613 91.51926 
L 189.183175 91.01975 
L 189.561737 89.854227 
L 189.940299 91.769015 
L 190.31886 88.605452 
L 190.697422 91.436008 
L 191.075984 89.604472 
L 191.454545 88.355697 
L 191.833107 91.769015 
L 192.211669 90.436988 
L 192.590231 87.856187 
L 193.347354 88.771955 
L 193.725916 85.691644 
L 194.104478 90.02073 
L 194.483039 91.01975 
L 194.861601 89.854227 
L 195.240163 83.527101 
L 195.618725 87.856187 
L 195.997286 89.354717 
L 196.75441 88.938459 
L 197.132972 86.690664 
L 197.511533 88.022691 
L 197.890095 88.771955 
L 198.268657 88.272445 
L 198.647218 84.775876 
L 199.02578 86.607412 
L 199.404342 85.858148 
L 199.782904 85.941399 
L 200.161465 86.274406 
L 200.540027 87.273426 
L 200.918589 85.275386 
L 201.297151 85.608393 
L 201.675712 85.025631 
L 202.054274 86.440909 
L 202.432836 86.607412 
L 202.811398 83.027591 
L 203.189959 83.44385 
L 203.568521 85.275386 
L 203.947083 83.610353 
L 204.325645 84.859128 
L 205.082768 82.44483 
L 205.46133 85.358638 
L 205.839891 83.027591 
L 206.218453 83.943359 
L 206.597015 81.862068 
L 206.975577 83.693605 
L 207.354138 82.528081 
L 207.7327 85.275386 
L 208.489824 81.695565 
L 208.868385 83.194095 
L 209.246947 83.027591 
L 209.625509 83.860108 
L 210.004071 84.109863 
L 210.382632 83.776856 
L 210.761194 80.863048 
L 211.139756 84.442869 
L 211.518318 82.694585 
L 211.896879 82.361578 
L 212.275441 82.861088 
L 212.654003 81.196055 
L 213.032564 81.862068 
L 213.411126 80.530042 
L 213.789688 84.193114 
L 214.16825 84.526121 
L 214.546811 80.696545 
L 214.925373 83.860108 
L 215.303935 82.195075 
L 215.682497 82.278326 
L 216.061058 79.364519 
L 216.43962 81.695565 
L 216.818182 82.028571 
L 217.196744 81.529062 
L 217.575305 80.030532 
L 217.953867 82.111823 
L 218.332429 79.031512 
L 218.710991 81.529062 
L 219.089552 79.94728 
L 219.468114 80.530042 
L 219.846676 79.697525 
L 220.603799 78.94826 
L 220.982361 81.279307 
L 221.360923 80.030532 
L 221.739484 80.113783 
L 222.118046 79.531022 
L 222.496608 80.030532 
L 222.87517 78.532002 
L 223.253731 80.613293 
L 223.632293 79.864028 
L 224.010855 79.531022 
L 224.389417 78.198995 
L 224.767978 81.029552 
L 225.14654 78.698505 
L 225.525102 80.197035 
L 225.903664 78.532002 
L 226.282225 79.864028 
L 227.039349 77.616234 
L 227.41791 79.198015 
L 227.796472 79.864028 
L 228.553596 76.866969 
L 228.932157 79.364519 
L 229.310719 77.283227 
L 229.689281 76.866969 
L 230.067843 78.781757 
L 230.446404 77.699485 
L 230.824966 75.701446 
L 231.58209 78.032492 
L 231.960651 78.365499 
L 232.339213 76.034452 
L 232.717775 77.199975 
L 233.096336 75.701446 
L 233.474898 75.867949 
L 233.85346 77.94924 
L 234.232022 78.115744 
L 234.610583 78.781757 
L 234.989145 75.784697 
L 235.367707 76.200956 
L 236.12483 78.032492 
L 236.503392 75.618194 
L 236.881954 75.118684 
L 237.260516 75.701446 
L 237.639077 77.865989 
L 238.017639 74.702426 
L 238.396201 75.867949 
L 238.774763 79.031512 
L 239.153324 76.284207 
L 239.531886 76.617214 
L 240.289009 74.202916 
L 240.667571 74.119664 
L 241.046133 76.117704 
L 241.424695 73.869909 
L 241.803256 74.952181 
L 242.181818 74.369419 
L 242.938942 75.951201 
L 243.317503 74.619174 
L 243.696065 78.032492 
L 244.074627 76.200956 
L 244.453189 75.368439 
L 244.83175 77.782737 
L 245.210312 77.366479 
L 245.588874 75.867949 
L 245.967436 77.033472 
L 246.345997 75.285187 
L 246.724559 75.867949 
L 247.103121 73.786658 
L 247.860244 76.284207 
L 248.238806 75.035432 
L 248.995929 75.867949 
L 249.374491 73.370399 
L 249.753053 74.952181 
L 250.131615 74.868929 
L 250.510176 74.286168 
L 250.888738 74.036413 
L 251.2673 72.704386 
L 251.645862 73.953161 
L 252.781547 74.369419 
L 253.160109 76.200956 
L 253.53867 73.287148 
L 253.917232 73.453651 
L 254.295794 74.202916 
L 254.674355 74.702426 
L 255.052917 72.454631 
L 255.810041 74.868929 
L 256.188602 73.703406 
L 256.567164 71.955121 
L 256.945726 73.287148 
L 257.702849 74.202916 
L 258.081411 72.537883 
L 258.459973 74.286168 
L 258.838535 75.368439 
L 259.217096 72.704386 
L 259.595658 73.869909 
L 260.352782 72.954141 
L 260.731343 73.370399 
L 261.109905 74.535923 
L 261.488467 76.200956 
L 261.867028 72.038373 
L 262.24559 72.038373 
L 262.624152 71.87187 
L 263.381275 73.536903 
L 263.759837 73.869909 
L 264.138399 74.369419 
L 264.516961 73.120644 
L 264.895522 74.036413 
L 265.274084 74.286168 
L 265.652646 72.787638 
L 266.031208 73.453651 
L 266.409769 73.786658 
L 267.545455 73.120644 
L 267.924016 71.37236 
L 268.302578 73.453651 
L 268.68114 72.787638 
L 269.059701 70.37334 
L 269.438263 72.038373 
L 269.816825 71.705366 
L 270.195387 72.621135 
L 270.95251 72.204876 
L 271.331072 73.953161 
L 271.709634 71.87187 
L 272.088195 72.954141 
L 272.466757 71.538863 
L 272.845319 71.955121 
L 273.223881 72.621135 
L 273.602442 72.038373 
L 273.981004 72.121625 
L 274.359566 74.535923 
L 274.738128 73.287148 
L 275.116689 70.37334 
L 275.495251 72.038373 
L 275.873813 72.204876 
L 276.252374 72.787638 
L 276.630936 72.537883 
L 277.009498 71.205856 
L 277.38806 72.288128 
L 277.766621 72.121625 
L 278.145183 71.122605 
L 278.523745 71.37236 
L 278.902307 70.206837 
L 279.280868 71.205856 
L 280.037992 72.038373 
L 280.416554 68.292049 
L 280.795115 71.122605 
L 281.173677 70.040333 
L 281.552239 69.87383 
L 281.930801 71.87187 
L 282.309362 72.454631 
L 282.687924 71.205856 
L 283.066486 71.37236 
L 283.445047 70.206837 
L 283.823609 71.289108 
L 284.202171 71.538863 
L 284.580733 71.289108 
L 285.337856 72.204876 
L 285.716418 71.455611 
L 286.09498 70.956101 
L 286.473541 70.87285 
L 286.852103 70.539843 
L 287.230665 69.790578 
L 287.609227 72.870889 
L 288.36635 69.957082 
L 288.744912 71.705366 
L 289.123474 71.87187 
L 289.502035 69.87383 
L 290.63772 72.454631 
L 291.016282 71.039353 
L 291.394844 70.123585 
L 291.773406 71.039353 
L 292.151967 71.039353 
L 292.530529 70.456592 
L 292.909091 70.623095 
L 293.287653 71.37236 
L 293.666214 69.790578 
L 294.044776 68.791558 
L 294.423338 70.789598 
L 294.8019 69.124565 
L 295.559023 68.292049 
L 295.937585 72.204876 
L 296.316147 70.040333 
L 296.694708 71.122605 
L 297.07327 69.87383 
L 297.451832 70.290088 
L 297.830393 70.123585 
L 298.208955 70.87285 
L 298.966079 69.540823 
L 299.34464 71.622115 
L 299.723202 70.206837 
L 300.101764 69.707327 
L 300.480326 69.790578 
L 300.858887 70.37334 
L 301.237449 70.040333 
L 301.616011 70.290088 
L 301.994573 71.205856 
L 302.373134 70.87285 
L 302.751696 70.789598 
L 303.130258 69.207817 
L 303.50882 70.623095 
L 303.887381 68.042294 
L 304.265943 70.290088 
L 304.644505 68.3753 
L 305.023066 70.539843 
L 305.401628 70.87285 
L 305.78019 68.292049 
L 306.158752 68.125545 
L 306.537313 69.291068 
L 306.915875 68.958062 
L 307.294437 69.37432 
L 307.672999 68.958062 
L 308.05156 69.041313 
L 308.430122 70.623095 
L 308.808684 70.706346 
L 309.187246 69.291068 
L 309.565807 68.958062 
L 309.944369 70.040333 
L 310.322931 68.791558 
L 310.701493 68.87481 
L 311.080054 69.207817 
L 311.458616 69.790578 
L 311.837178 67.542784 
L 312.215739 70.206837 
L 312.594301 68.708307 
L 312.972863 70.87285 
L 313.351425 70.290088 
L 313.729986 68.541803 
L 314.108548 69.041313 
L 314.48711 67.542784 
L 315.244233 70.87285 
L 316.001357 67.293029 
L 316.379919 68.458552 
L 316.75848 67.626035 
L 317.137042 68.292049 
L 317.515604 68.625055 
L 318.272727 70.706346 
L 318.651289 68.87481 
L 319.029851 69.540823 
L 319.408412 68.541803 
L 319.786974 69.207817 
L 320.165536 68.125545 
L 320.544098 67.959042 
L 320.922659 67.626035 
L 321.301221 69.041313 
L 321.679783 67.792539 
L 322.058345 68.208797 
L 322.436906 68.791558 
L 322.815468 68.87481 
L 323.19403 68.791558 
L 323.572592 69.707327 
L 323.951153 69.457572 
L 324.329715 67.459532 
L 325.086839 68.458552 
L 325.4654 67.37628 
L 325.843962 70.956101 
L 326.222524 68.458552 
L 326.601085 67.626035 
L 326.979647 69.707327 
L 327.358209 69.041313 
L 327.736771 68.958062 
L 328.115332 66.960022 
L 328.493894 66.710267 
L 328.872456 68.541803 
L 329.251018 68.458552 
L 330.008141 67.126525 
L 330.386703 67.87579 
L 330.765265 67.209777 
L 331.143826 69.207817 
L 331.522388 67.542784 
L 331.90095 68.541803 
L 332.279512 67.87579 
L 333.036635 67.87579 
L 333.415197 68.625055 
L 333.793758 67.37628 
L 334.550882 68.708307 
L 334.929444 68.3753 
L 335.308005 68.791558 
L 335.686567 69.707327 
L 336.065129 68.541803 
L 336.443691 66.460512 
L 336.822252 67.293029 
L 337.200814 67.792539 
L 337.579376 67.459532 
L 337.957938 67.293029 
L 338.336499 67.792539 
L 338.715061 67.542784 
L 339.093623 66.710267 
L 339.472185 67.87579 
L 339.850746 67.542784 
L 340.229308 66.210757 
L 340.986431 67.459532 
L 341.364993 67.37628 
L 341.743555 66.627015 
L 342.122117 67.209777 
L 342.500678 66.127506 
L 342.87924 67.37628 
L 343.257802 67.626035 
L 343.636364 67.043274 
L 344.014925 67.293029 
L 344.393487 67.959042 
L 344.772049 67.87579 
L 345.150611 67.542784 
L 345.529172 68.208797 
L 345.907734 67.209777 
L 346.286296 67.792539 
L 346.664858 66.044254 
L 347.043419 68.208797 
L 347.421981 68.292049 
L 347.800543 65.794499 
L 348.179104 67.126525 
L 348.557666 67.126525 
L 348.936228 67.792539 
L 349.31479 69.207817 
L 349.693351 67.542784 
L 350.071913 67.37628 
L 350.829037 66.210757 
L 351.207598 68.208797 
L 351.58616 68.125545 
L 351.964722 67.459532 
L 352.343284 66.210757 
L 352.721845 67.709287 
L 353.478969 64.878731 
L 353.857531 66.37726 
L 354.236092 67.209777 
L 354.614654 65.961002 
L 354.993216 65.877751 
L 355.371777 67.959042 
L 355.750339 65.128486 
L 356.507463 66.37726 
L 356.886024 65.544744 
L 357.264586 65.961002 
L 358.02171 67.293029 
L 358.400271 66.87677 
L 358.778833 66.044254 
L 359.157395 68.3753 
L 359.535957 68.458552 
L 359.914518 66.543764 
L 360.29308 67.043274 
L 360.671642 66.210757 
L 361.050204 67.626035 
L 361.428765 65.877751 
L 361.807327 65.794499 
L 362.185889 66.710267 
L 362.943012 65.961002 
L 363.700136 64.961982 
L 364.078697 66.710267 
L 364.457259 67.293029 
L 364.835821 64.961982 
L 365.214383 66.710267 
L 365.592944 67.043274 
L 365.971506 65.961002 
L 366.350068 67.87579 
L 366.72863 66.37726 
L 367.107191 65.794499 
L 367.485753 66.044254 
L 367.864315 67.542784 
L 368.242877 66.87677 
L 368.621438 66.460512 
L 369 67.626035 
L 369.378562 65.544744 
L 370.135685 67.792539 
L 370.514247 65.877751 
L 370.892809 66.210757 
L 371.27137 67.459532 
L 371.649932 64.712227 
L 372.028494 66.87677 
L 372.407056 66.87677 
L 372.785617 67.293029 
L 373.164179 65.711247 
L 373.542741 64.628976 
L 373.921303 65.794499 
L 374.299864 67.626035 
L 374.678426 68.625055 
L 375.056988 66.460512 
L 375.43555 65.627996 
L 375.814111 66.543764 
L 376.192673 66.294009 
L 376.571235 66.460512 
L 376.949796 65.877751 
L 377.328358 65.045234 
L 377.70692 66.460512 
L 378.085482 66.710267 
L 378.464043 64.462472 
L 378.842605 66.210757 
L 379.221167 65.211737 
L 379.97829 66.543764 
L 380.356852 67.459532 
L 380.735414 66.793519 
L 381.113976 66.460512 
L 381.492537 66.294009 
L 381.871099 66.543764 
L 382.249661 64.712227 
L 382.628223 66.210757 
L 383.006784 66.127506 
L 383.385346 65.877751 
L 383.763908 66.294009 
L 384.521031 64.878731 
L 384.899593 65.877751 
L 385.278155 65.378241 
L 385.656716 65.711247 
L 386.035278 66.294009 
L 386.41384 65.877751 
L 386.792402 66.793519 
L 387.170963 65.461492 
L 387.549525 65.544744 
L 387.928087 66.37726 
L 388.306649 66.627015 
L 389.063772 65.627996 
L 389.442334 66.543764 
L 389.820896 65.627996 
L 390.199457 66.460512 
L 390.578019 66.37726 
L 391.335142 65.045234 
L 391.713704 67.293029 
L 392.092266 66.127506 
L 392.470828 65.961002 
L 392.849389 65.544744 
L 393.227951 64.628976 
L 393.606513 65.794499 
L 393.985075 64.795479 
L 394.363636 65.877751 
L 394.742198 64.961982 
L 395.12076 67.37628 
L 395.499322 65.544744 
L 395.877883 65.378241 
L 396.256445 66.210757 
L 396.635007 65.627996 
L 397.013569 65.378241 
L 397.39213 67.293029 
L 397.770692 65.877751 
L 398.149254 65.128486 
L 398.527815 64.628976 
L 398.906377 66.127506 
L 399.284939 66.710267 
L 400.042062 65.294989 
L 400.420624 65.877751 
L 400.799186 67.126525 
L 401.177748 63.380201 
L 401.556309 66.627015 
L 401.934871 65.544744 
L 402.313433 65.045234 
L 402.691995 66.127506 
L 403.070556 64.878731 
L 403.82768 64.712227 
L 404.206242 66.294009 
L 404.584803 65.877751 
L 404.963365 65.128486 
L 406.09905 66.710267 
L 406.477612 67.37628 
L 406.856174 67.626035 
L 407.234735 65.544744 
L 407.991859 65.461492 
L 408.370421 63.629956 
L 408.748982 65.961002 
L 409.127544 65.294989 
L 409.506106 66.294009 
L 409.884668 64.961982 
L 410.641791 63.796459 
L 411.020353 66.210757 
L 411.398915 65.877751 
L 411.777476 66.960022 
L 412.156038 63.713208 
L 412.5346 64.379221 
L 412.913161 64.545724 
L 413.291723 65.961002 
L 413.670285 64.712227 
L 414.048847 64.379221 
L 414.427408 65.045234 
L 415.184532 65.627996 
L 415.563094 64.628976 
L 415.941655 65.128486 
L 416.320217 64.795479 
L 416.698779 64.961982 
L 417.077341 63.213698 
L 417.455902 64.545724 
L 417.834464 64.046214 
L 418.213026 64.795479 
L 418.970149 64.545724 
L 419.348711 64.379221 
L 419.727273 65.544744 
L 420.105834 65.711247 
L 420.484396 63.546704 
L 420.862958 66.044254 
L 421.24152 65.128486 
L 421.620081 67.37628 
L 421.998643 65.544744 
L 422.377205 66.793519 
L 422.755767 65.211737 
L 423.134328 65.128486 
L 423.51289 64.212717 
L 424.270014 66.210757 
L 424.648575 65.128486 
L 425.027137 65.544744 
L 425.405699 65.211737 
L 425.784261 65.211737 
L 426.162822 65.544744 
L 426.541384 65.378241 
L 426.919946 63.463453 
L 427.298507 64.379221 
L 427.677069 65.877751 
L 428.055631 65.961002 
L 428.434193 66.710267 
L 428.812754 63.796459 
L 429.191316 65.544744 
L 429.569878 65.128486 
L 429.94844 65.877751 
L 430.705563 64.545724 
L 431.084125 64.878731 
L 431.462687 64.462472 
L 431.841248 64.379221 
L 432.21981 65.294989 
L 432.598372 64.379221 
L 432.976934 65.128486 
L 433.355495 66.210757 
L 433.734057 66.87677 
L 434.112619 64.961982 
L 434.49118 66.543764 
L 434.869742 66.960022 
L 435.248304 63.130446 
L 435.626866 65.378241 
L 436.005427 65.128486 
L 436.383989 64.712227 
L 436.762551 66.210757 
L 437.141113 65.711247 
L 437.519674 63.380201 
L 438.276798 65.045234 
L 438.65536 63.380201 
L 439.033921 63.047194 
L 439.412483 63.879711 
L 439.791045 64.212717 
L 440.169607 65.627996 
L 440.548168 63.713208 
L 440.92673 66.37726 
L 441.305292 64.628976 
L 441.683853 65.211737 
L 442.062415 65.128486 
L 442.440977 63.879711 
L 442.819539 65.128486 
L 443.1981 63.463453 
L 443.576662 64.046214 
L 443.955224 63.796459 
L 444.712347 65.294989 
L 445.090909 64.212717 
L 445.469471 64.046214 
L 445.848033 64.712227 
L 446.983718 63.380201 
L 447.36228 65.627996 
L 447.740841 64.046214 
L 448.119403 63.380201 
L 448.497965 63.213698 
L 448.876526 63.879711 
L 449.255088 63.713208 
L 449.63365 65.045234 
L 450.012212 62.880691 
L 450.390773 63.296949 
L 450.769335 64.379221 
L 451.147897 64.462472 
L 451.526459 65.461492 
L 451.90502 64.545724 
L 452.283582 64.878731 
L 452.662144 63.713208 
L 453.040706 64.212717 
L 453.419267 63.879711 
L 453.797829 63.879711 
L 454.176391 65.045234 
L 454.554953 64.712227 
L 454.933514 62.963943 
L 455.312076 63.629956 
L 455.690638 63.962963 
L 456.069199 61.964923 
L 456.447761 62.381181 
L 456.826323 63.962963 
L 457.583446 63.380201 
L 457.962008 63.962963 
L 458.34057 63.796459 
L 459.097693 64.961982 
L 459.476255 64.379221 
L 460.233379 64.295969 
L 460.61194 63.713208 
L 460.990502 64.129466 
L 461.369064 63.213698 
L 461.747626 63.713208 
L 462.126187 63.713208 
L 462.504749 64.046214 
L 462.883311 63.047194 
L 463.261872 66.294009 
L 463.640434 64.295969 
L 464.018996 63.296949 
L 464.397558 64.129466 
L 464.776119 62.880691 
L 465.154681 63.130446 
L 465.533243 64.379221 
L 465.911805 64.295969 
L 466.290366 63.130446 
L 466.668928 63.713208 
L 467.04749 63.546704 
L 467.426052 63.047194 
L 467.804613 65.711247 
L 468.183175 64.212717 
L 468.561737 64.545724 
L 468.940299 63.047194 
L 469.697422 64.628976 
L 470.075984 63.629956 
L 470.454545 64.212717 
L 470.833107 65.211737 
L 471.211669 63.962963 
L 471.590231 65.211737 
L 471.968792 64.129466 
L 472.347354 63.463453 
L 472.725916 64.961982 
L 473.104478 64.712227 
L 473.483039 64.129466 
L 473.861601 64.046214 
L 474.240163 64.379221 
L 474.618725 64.129466 
L 474.997286 64.462472 
L 475.375848 65.211737 
L 475.75441 66.87677 
L 476.132972 65.211737 
L 476.890095 63.047194 
L 477.268657 65.211737 
L 478.02578 63.130446 
L 478.404342 63.546704 
L 478.782904 64.545724 
L 479.161465 64.712227 
L 479.540027 62.963943 
L 479.918589 63.213698 
L 480.297151 64.212717 
L 480.675712 63.713208 
L 481.054274 65.711247 
L 481.432836 64.295969 
L 481.811398 64.295969 
L 482.189959 61.964923 
L 482.568521 63.962963 
L 482.947083 63.130446 
L 483.325645 64.712227 
L 483.704206 63.546704 
L 484.082768 63.629956 
L 484.839891 63.296949 
L 485.218453 64.129466 
L 485.597015 64.462472 
L 485.975577 64.379221 
L 486.354138 63.796459 
L 486.7327 63.962963 
L 487.111262 63.796459 
L 487.489824 64.379221 
L 487.868385 62.464433 
L 488.246947 64.046214 
L 488.625509 63.130446 
L 489.004071 63.546704 
L 489.382632 64.129466 
L 489.761194 62.963943 
L 490.139756 63.047194 
L 490.518318 62.880691 
L 490.896879 63.962963 
L 491.275441 62.797439 
L 491.654003 63.463453 
L 492.032564 65.378241 
L 492.411126 62.381181 
L 492.789688 64.712227 
L 493.16825 63.296949 
L 493.546811 64.295969 
L 493.925373 64.545724 
L 494.303935 63.879711 
L 494.682497 63.713208 
L 495.061058 63.713208 
L 495.43962 64.212717 
L 495.818182 64.379221 
L 496.196744 63.713208 
L 496.953867 63.796459 
L 497.332429 64.712227 
L 497.710991 62.880691 
L 498.468114 63.629956 
L 498.846676 63.130446 
L 499.225237 63.713208 
L 499.603799 63.047194 
L 500.360923 64.379221 
L 500.739484 63.047194 
L 501.118046 64.212717 
L 501.496608 63.962963 
L 501.87517 64.961982 
L 502.253731 63.546704 
L 502.632293 64.545724 
L 503.010855 63.546704 
L 503.389417 65.128486 
L 503.767978 64.379221 
L 504.14654 64.295969 
L 504.525102 63.047194 
L 504.903664 64.295969 
L 505.282225 64.545724 
L 505.660787 63.962963 
L 506.039349 64.545724 
L 506.796472 63.380201 
L 507.175034 62.714188 
L 507.553596 63.380201 
L 508.310719 65.794499 
L 508.689281 64.379221 
L 509.067843 65.794499 
L 509.824966 63.380201 
L 510.203528 62.880691 
L 510.58209 63.796459 
L 510.960651 63.962963 
L 511.339213 62.381181 
L 511.717775 61.79842 
L 512.096336 63.380201 
L 512.474898 63.296949 
L 512.85346 63.879711 
L 513.232022 63.879711 
L 513.610583 63.713208 
L 513.989145 63.713208 
L 514.367707 62.547684 
L 515.12483 63.546704 
L 515.503392 63.546704 
L 515.881954 63.380201 
L 517.017639 63.296949 
L 517.396201 63.796459 
L 517.774763 63.130446 
L 518.153324 65.461492 
L 518.531886 62.963943 
L 518.910448 62.297929 
L 519.289009 63.213698 
L 519.667571 63.796459 
L 520.046133 62.963943 
L 520.424695 62.547684 
L 520.803256 63.380201 
L 521.181818 63.047194 
L 521.56038 63.879711 
L 521.938942 62.963943 
L 522.317503 64.129466 
L 522.696065 62.880691 
L 523.074627 62.963943 
L 523.453189 63.546704 
L 523.83175 63.296949 
L 524.210312 63.296949 
L 524.588874 64.545724 
L 524.967436 64.295969 
L 525.345997 63.213698 
L 526.103121 62.880691 
L 526.481682 63.879711 
L 526.860244 63.546704 
L 527.238806 65.211737 
L 527.995929 61.715168 
L 528.374491 62.630936 
L 528.753053 63.962963 
L 529.131615 63.879711 
L 529.510176 64.129466 
L 529.888738 64.545724 
L 530.2673 63.463453 
L 530.645862 63.213698 
L 531.402985 62.381181 
L 531.781547 63.047194 
L 532.160109 62.880691 
L 532.53867 63.296949 
L 532.917232 64.046214 
L 533.295794 64.545724 
L 533.674355 63.380201 
L 534.052917 63.380201 
L 534.431479 64.212717 
L 534.810041 62.797439 
L 535.188602 62.131426 
L 535.567164 63.296949 
L 535.945726 63.213698 
L 536.324288 62.381181 
L 537.081411 63.713208 
L 537.459973 62.963943 
L 537.838535 63.213698 
L 538.217096 63.962963 
L 538.595658 63.047194 
L 538.97422 63.296949 
L 539.352782 65.461492 
L 539.731343 63.713208 
L 540.488467 63.713208 
L 541.24559 62.630936 
L 541.624152 63.629956 
L 542.002714 61.548665 
L 542.381275 64.046214 
L 542.759837 64.628976 
L 543.138399 63.962963 
L 543.895522 62.214678 
L 544.274084 63.796459 
L 544.652646 62.797439 
L 545.031208 62.714188 
L 545.409769 64.212717 
L 545.788331 62.963943 
L 546.166893 63.796459 
L 546.545455 62.963943 
L 546.924016 63.713208 
L 547.302578 62.048174 
L 547.68114 62.630936 
L 548.059701 62.214678 
L 548.438263 64.046214 
L 548.816825 62.547684 
L 549.195387 62.714188 
L 549.573948 64.379221 
L 549.95251 63.047194 
L 550.331072 63.546704 
L 550.709634 62.963943 
L 551.088195 64.295969 
L 551.466757 62.797439 
L 551.845319 62.547684 
L 552.223881 63.130446 
L 552.602442 62.131426 
L 552.981004 62.714188 
L 553.359566 64.545724 
L 553.738128 62.131426 
L 554.495251 63.380201 
L 554.873813 63.047194 
L 555.630936 62.797439 
L 556.009498 61.631916 
L 556.38806 63.296949 
L 556.766621 63.463453 
L 557.523745 62.714188 
L 557.902307 62.963943 
L 558.280868 62.963943 
L 558.65943 62.048174 
L 559.037992 63.629956 
L 559.416554 61.631916 
L 559.795115 64.712227 
L 560.173677 64.129466 
L 560.552239 63.213698 
L 560.930801 63.047194 
L 561.309362 63.130446 
L 561.687924 64.545724 
L 562.066486 62.048174 
L 562.445047 63.962963 
L 562.823609 62.714188 
L 563.202171 64.129466 
L 563.580733 63.713208 
L 563.959294 63.796459 
L 564.337856 63.047194 
L 564.716418 62.714188 
L 565.09498 63.546704 
L 565.473541 63.879711 
L 565.852103 62.464433 
L 566.230665 63.463453 
L 566.609227 62.131426 
L 566.987788 62.048174 
L 567.36635 62.714188 
L 567.744912 62.714188 
L 568.123474 61.631916 
L 568.502035 63.380201 
L 568.880597 63.047194 
L 569.259159 62.880691 
L 569.63772 62.464433 
L 570.016282 64.545724 
L 570.394844 63.296949 
L 570.773406 62.547684 
L 571.151967 63.713208 
L 571.530529 62.381181 
L 571.909091 63.130446 
L 572.287653 62.214678 
L 572.666214 63.296949 
L 573.044776 63.380201 
L 573.423338 63.629956 
L 573.8019 64.212717 
L 574.180461 62.880691 
L 574.559023 64.878731 
L 574.937585 63.879711 
L 575.316147 62.381181 
L 575.694708 64.295969 
L 576.07327 62.714188 
L 576.451832 63.130446 
L 576.830393 63.130446 
L 577.208955 64.712227 
L 577.587517 61.79842 
L 577.966079 63.546704 
L 578.34464 63.463453 
L 578.723202 62.630936 
L 579.101764 63.713208 
L 579.480326 62.797439 
L 579.858887 63.380201 
L 580.616011 63.380201 
L 580.994573 62.630936 
L 581.373134 62.880691 
L 581.751696 62.547684 
L 582.130258 63.962963 
L 582.50882 62.048174 
L 582.887381 63.713208 
L 583.265943 63.546704 
L 583.644505 62.630936 
L 584.023066 62.880691 
L 584.401628 62.547684 
L 584.78019 62.880691 
L 585.158752 62.131426 
L 585.537313 62.714188 
L 585.915875 61.715168 
L 586.294437 62.714188 
L 586.672999 61.881671 
L 587.05156 63.546704 
L 587.430122 63.962963 
L 587.808684 62.797439 
L 588.187246 63.629956 
L 588.565807 63.130446 
L 588.944369 62.381181 
L 589.322931 62.131426 
L 589.701493 63.879711 
L 590.080054 61.964923 
L 590.458616 60.632896 
L 590.837178 63.380201 
L 591.594301 61.132406 
L 591.972863 61.631916 
L 592.351425 62.464433 
L 592.729986 63.879711 
L 593.108548 62.797439 
L 593.48711 64.212717 
L 593.865672 63.546704 
L 594.244233 62.214678 
L 594.622795 62.963943 
L 595.001357 61.715168 
L 595.379919 62.547684 
L 595.75848 63.713208 
L 596.137042 63.380201 
L 596.515604 62.214678 
L 596.894166 63.380201 
L 597.272727 62.630936 
L 597.651289 63.130446 
L 598.029851 61.964923 
L 598.786974 63.463453 
L 599.165536 63.213698 
L 599.544098 62.547684 
L 599.922659 62.880691 
L 600.301221 63.047194 
L 600.679783 63.629956 
L 601.058345 63.463453 
L 601.436906 63.629956 
L 601.815468 62.797439 
L 602.19403 63.047194 
L 602.572592 62.547684 
L 602.951153 63.296949 
L 603.708277 61.215658 
L 604.086839 63.130446 
L 604.4654 62.381181 
L 604.843962 62.381181 
L 605.222524 62.214678 
L 605.601085 62.630936 
L 605.979647 62.464433 
L 606.358209 62.048174 
L 606.736771 62.880691 
L 607.115332 61.79842 
L 607.493894 62.297929 
L 607.872456 62.464433 
L 608.251018 63.796459 
L 608.629579 62.714188 
L 609.008141 62.630936 
L 609.386703 63.546704 
L 609.765265 62.131426 
L 610.143826 63.130446 
L 610.522388 62.048174 
L 610.90095 63.713208 
L 611.279512 61.631916 
L 611.658073 62.797439 
L 612.036635 62.048174 
L 612.415197 62.547684 
L 612.793758 62.214678 
L 613.17232 61.465413 
L 613.550882 62.714188 
L 613.929444 62.963943 
L 614.308005 61.548665 
L 614.686567 62.297929 
L 615.065129 62.797439 
L 615.443691 63.629956 
L 615.822252 61.465413 
L 616.200814 64.628976 
L 616.579376 62.797439 
L 617.336499 63.047194 
L 617.715061 62.963943 
L 618.093623 62.547684 
L 618.472185 64.129466 
L 618.850746 62.297929 
L 619.229308 61.964923 
L 619.60787 63.629956 
L 619.986431 62.797439 
L 620.364993 61.382161 
L 620.743555 63.047194 
L 621.122117 61.964923 
L 621.500678 63.380201 
L 621.87924 63.213698 
L 622.257802 61.049155 
L 622.636364 62.381181 
L 622.636364 62.381181 
" style="fill:none;stroke:#ff7f0e;stroke-linecap:square;stroke-width:0.5;"/>
   </g>
   <g id="patch_3">
    <path d="M 90 315 
L 90 43.2 
" style="fill:none;stroke:#000000;stroke-linecap:square;stroke-linejoin:miter;stroke-width:0.8;"/>
   </g>
   <g id="patch_4">
    <path d="M 648 315 
L 648 43.2 
" style="fill:none;stroke:#000000;stroke-linecap:square;stroke-linejoin:miter;stroke-width:0.8;"/>
   </g>
   <g id="patch_5">
    <path d="M 90 315 
L 648 315 
" style="fill:none;stroke:#000000;stroke-linecap:square;stroke-linejoin:miter;stroke-width:0.8;"/>
   </g>
   <g id="patch_6">
    <path d="M 90 43.2 
L 648 43.2 
" style="fill:none;stroke:#000000;stroke-linecap:square;stroke-linejoin:miter;stroke-width:0.8;"/>
   </g>
   <g id="text_19">
    <!-- accuracy -->
    <g transform="translate(341.92875 37.2)scale(0.12 -0.12)">
     <use xlink:href="#DejaVuSans-97"/>
     <use x="61.279297" xlink:href="#DejaVuSans-99"/>
     <use x="116.259766" xlink:href="#DejaVuSans-99"/>
     <use x="171.240234" xlink:href="#DejaVuSans-117"/>
     <use x="234.619141" xlink:href="#DejaVuSans-114"/>
     <use x="275.732422" xlink:href="#DejaVuSans-97"/>
     <use x="337.011719" xlink:href="#DejaVuSans-99"/>
     <use x="391.992188" xlink:href="#DejaVuSans-121"/>
    </g>
   </g>
   <g id="legend_1">
    <g id="patch_7">
     <path d="M 97 80.55625 
L 169.153125 80.55625 
Q 171.153125 80.55625 171.153125 78.55625 
L 171.153125 50.2 
Q 171.153125 48.2 169.153125 48.2 
L 97 48.2 
Q 95 48.2 95 50.2 
L 95 78.55625 
Q 95 80.55625 97 80.55625 
z
" style="fill:#ffffff;opacity:0.8;stroke:#cccccc;stroke-linejoin:miter;"/>
    </g>
    <g id="line2d_35">
     <path d="M 99 56.298437 
L 119 56.298437 
" style="fill:none;stroke:#1f77b4;stroke-linecap:square;stroke-width:0.5;"/>
    </g>
    <g id="line2d_36"/>
    <g id="text_20">
     <!-- train -->
     <defs>
      <path d="M 18.3125 70.21875 
L 18.3125 54.6875 
L 36.8125 54.6875 
L 36.8125 47.703125 
L 18.3125 47.703125 
L 18.3125 18.015625 
Q 18.3125 11.328125 20.140625 9.421875 
Q 21.96875 7.515625 27.59375 7.515625 
L 36.8125 7.515625 
L 36.8125 0 
L 27.59375 0 
Q 17.1875 0 13.234375 3.875 
Q 9.28125 7.765625 9.28125 18.015625 
L 9.28125 47.703125 
L 2.6875 47.703125 
L 2.6875 54.6875 
L 9.28125 54.6875 
L 9.28125 70.21875 
z
" id="DejaVuSans-116"/>
      <path d="M 9.421875 54.6875 
L 18.40625 54.6875 
L 18.40625 0 
L 9.421875 0 
z
M 9.421875 75.984375 
L 18.40625 75.984375 
L 18.40625 64.59375 
L 9.421875 64.59375 
z
" id="DejaVuSans-105"/>
      <path d="M 54.890625 33.015625 
L 54.890625 0 
L 45.90625 0 
L 45.90625 32.71875 
Q 45.90625 40.484375 42.875 44.328125 
Q 39.84375 48.1875 33.796875 48.1875 
Q 26.515625 48.1875 22.3125 43.546875 
Q 18.109375 38.921875 18.109375 30.90625 
L 18.109375 0 
L 9.078125 0 
L 9.078125 54.6875 
L 18.109375 54.6875 
L 18.109375 46.1875 
Q 21.34375 51.125 25.703125 53.5625 
Q 30.078125 56 35.796875 56 
Q 45.21875 56 50.046875 50.171875 
Q 54.890625 44.34375 54.890625 33.015625 
z
" id="DejaVuSans-110"/>
     </defs>
     <g transform="translate(127 59.798437)scale(0.1 -0.1)">
      <use xlink:href="#DejaVuSans-116"/>
      <use x="39.208984" xlink:href="#DejaVuSans-114"/>
      <use x="80.322266" xlink:href="#DejaVuSans-97"/>
      <use x="141.601562" xlink:href="#DejaVuSans-105"/>
      <use x="169.384766" xlink:href="#DejaVuSans-110"/>
     </g>
    </g>
    <g id="line2d_37">
     <path d="M 99 70.976562 
L 119 70.976562 
" style="fill:none;stroke:#ff7f0e;stroke-linecap:square;stroke-width:0.5;"/>
    </g>
    <g id="line2d_38"/>
    <g id="text_21">
     <!-- validate -->
     <defs>
      <path d="M 2.984375 54.6875 
L 12.5 54.6875 
L 29.59375 8.796875 
L 46.6875 54.6875 
L 56.203125 54.6875 
L 35.6875 0 
L 23.484375 0 
z
" id="DejaVuSans-118"/>
      <path d="M 9.421875 75.984375 
L 18.40625 75.984375 
L 18.40625 0 
L 9.421875 0 
z
" id="DejaVuSans-108"/>
      <path d="M 45.40625 46.390625 
L 45.40625 75.984375 
L 54.390625 75.984375 
L 54.390625 0 
L 45.40625 0 
L 45.40625 8.203125 
Q 42.578125 3.328125 38.25 0.953125 
Q 33.9375 -1.421875 27.875 -1.421875 
Q 17.96875 -1.421875 11.734375 6.484375 
Q 5.515625 14.40625 5.515625 27.296875 
Q 5.515625 40.1875 11.734375 48.09375 
Q 17.96875 56 27.875 56 
Q 33.9375 56 38.25 53.625 
Q 42.578125 51.265625 45.40625 46.390625 
z
M 14.796875 27.296875 
Q 14.796875 17.390625 18.875 11.75 
Q 22.953125 6.109375 30.078125 6.109375 
Q 37.203125 6.109375 41.296875 11.75 
Q 45.40625 17.390625 45.40625 27.296875 
Q 45.40625 37.203125 41.296875 42.84375 
Q 37.203125 48.484375 30.078125 48.484375 
Q 22.953125 48.484375 18.875 42.84375 
Q 14.796875 37.203125 14.796875 27.296875 
z
" id="DejaVuSans-100"/>
     </defs>
     <g transform="translate(127 74.476562)scale(0.1 -0.1)">
      <use xlink:href="#DejaVuSans-118"/>
      <use x="59.179688" xlink:href="#DejaVuSans-97"/>
      <use x="120.458984" xlink:href="#DejaVuSans-108"/>
      <use x="148.242188" xlink:href="#DejaVuSans-105"/>
      <use x="176.025391" xlink:href="#DejaVuSans-100"/>
      <use x="239.501953" xlink:href="#DejaVuSans-97"/>
      <use x="300.78125" xlink:href="#DejaVuSans-116"/>
      <use x="339.990234" xlink:href="#DejaVuSans-101"/>
     </g>
    </g>
   </g>
  </g>
 </g>
 <defs>
  <clipPath id="p401719339d">
   <rect height="271.8" width="558" x="90" y="43.2"/>
  </clipPath>
 </defs>
</svg>
