<?xml version="1.0" encoding="utf-8" standalone="no"?>
<!DOCTYPE svg PUBLIC "-//W3C//DTD SVG 1.1//EN"
  "http://www.w3.org/Graphics/SVG/1.1/DTD/svg11.dtd">
<!-- Created with matplotlib (https://matplotlib.org/) -->
<svg height="360pt" version="1.1" viewBox="0 0 720 360" width="720pt" xmlns="http://www.w3.org/2000/svg" xmlns:xlink="http://www.w3.org/1999/xlink">
 <defs>
  <style type="text/css">
*{stroke-linecap:butt;stroke-linejoin:round;}
  </style>
 </defs>
 <g id="figure_1">
  <g id="patch_1">
   <path d="M 0 360 
L 720 360 
L 720 0 
L 0 0 
z
" style="fill:#ffffff;"/>
  </g>
  <g id="axes_1">
   <g id="patch_2">
    <path d="M 90 315 
L 648 315 
L 648 43.2 
L 90 43.2 
z
" style="fill:#ffffff;"/>
   </g>
   <g id="matplotlib.axis_1">
    <g id="xtick_1">
     <g id="line2d_1">
      <path clip-path="url(#pc67de15a74)" d="M 115.363636 315 
L 115.363636 43.2 
" style="fill:none;stroke:#b0b0b0;stroke-linecap:square;stroke-width:0.8;"/>
     </g>
     <g id="line2d_2">
      <defs>
       <path d="M 0 0 
L 0 3.5 
" id="md5ffe613c5" style="stroke:#000000;stroke-width:0.8;"/>
      </defs>
      <g>
       <use style="stroke:#000000;stroke-width:0.8;" x="115.363636" xlink:href="#md5ffe613c5" y="315"/>
      </g>
     </g>
     <g id="text_1">
      <!-- 0 -->
      <defs>
       <path d="M 31.78125 66.40625 
Q 24.171875 66.40625 20.328125 58.90625 
Q 16.5 51.421875 16.5 36.375 
Q 16.5 21.390625 20.328125 13.890625 
Q 24.171875 6.390625 31.78125 6.390625 
Q 39.453125 6.390625 43.28125 13.890625 
Q 47.125 21.390625 47.125 36.375 
Q 47.125 51.421875 43.28125 58.90625 
Q 39.453125 66.40625 31.78125 66.40625 
z
M 31.78125 74.21875 
Q 44.046875 74.21875 50.515625 64.515625 
Q 56.984375 54.828125 56.984375 36.375 
Q 56.984375 17.96875 50.515625 8.265625 
Q 44.046875 -1.421875 31.78125 -1.421875 
Q 19.53125 -1.421875 13.0625 8.265625 
Q 6.59375 17.96875 6.59375 36.375 
Q 6.59375 54.828125 13.0625 64.515625 
Q 19.53125 74.21875 31.78125 74.21875 
z
" id="DejaVuSans-48"/>
      </defs>
      <g transform="translate(112.182386 329.598437)scale(0.1 -0.1)">
       <use xlink:href="#DejaVuSans-48"/>
      </g>
     </g>
    </g>
    <g id="xtick_2">
     <g id="line2d_3">
      <path clip-path="url(#pc67de15a74)" d="M 196.657343 315 
L 196.657343 43.2 
" style="fill:none;stroke:#b0b0b0;stroke-linecap:square;stroke-width:0.8;"/>
     </g>
     <g id="line2d_4">
      <g>
       <use style="stroke:#000000;stroke-width:0.8;" x="196.657343" xlink:href="#md5ffe613c5" y="315"/>
      </g>
     </g>
     <g id="text_2">
      <!-- 200 -->
      <defs>
       <path d="M 19.1875 8.296875 
L 53.609375 8.296875 
L 53.609375 0 
L 7.328125 0 
L 7.328125 8.296875 
Q 12.9375 14.109375 22.625 23.890625 
Q 32.328125 33.6875 34.8125 36.53125 
Q 39.546875 41.84375 41.421875 45.53125 
Q 43.3125 49.21875 43.3125 52.78125 
Q 43.3125 58.59375 39.234375 62.25 
Q 35.15625 65.921875 28.609375 65.921875 
Q 23.96875 65.921875 18.8125 64.3125 
Q 13.671875 62.703125 7.8125 59.421875 
L 7.8125 69.390625 
Q 13.765625 71.78125 18.9375 73 
Q 24.125 74.21875 28.421875 74.21875 
Q 39.75 74.21875 46.484375 68.546875 
Q 53.21875 62.890625 53.21875 53.421875 
Q 53.21875 48.921875 51.53125 44.890625 
Q 49.859375 40.875 45.40625 35.40625 
Q 44.1875 33.984375 37.640625 27.21875 
Q 31.109375 20.453125 19.1875 8.296875 
z
" id="DejaVuSans-50"/>
      </defs>
      <g transform="translate(187.113593 329.598437)scale(0.1 -0.1)">
       <use xlink:href="#DejaVuSans-50"/>
       <use x="63.623047" xlink:href="#DejaVuSans-48"/>
       <use x="127.246094" xlink:href="#DejaVuSans-48"/>
      </g>
     </g>
    </g>
    <g id="xtick_3">
     <g id="line2d_5">
      <path clip-path="url(#pc67de15a74)" d="M 277.951049 315 
L 277.951049 43.2 
" style="fill:none;stroke:#b0b0b0;stroke-linecap:square;stroke-width:0.8;"/>
     </g>
     <g id="line2d_6">
      <g>
       <use style="stroke:#000000;stroke-width:0.8;" x="277.951049" xlink:href="#md5ffe613c5" y="315"/>
      </g>
     </g>
     <g id="text_3">
      <!-- 400 -->
      <defs>
       <path d="M 37.796875 64.3125 
L 12.890625 25.390625 
L 37.796875 25.390625 
z
M 35.203125 72.90625 
L 47.609375 72.90625 
L 47.609375 25.390625 
L 58.015625 25.390625 
L 58.015625 17.1875 
L 47.609375 17.1875 
L 47.609375 0 
L 37.796875 0 
L 37.796875 17.1875 
L 4.890625 17.1875 
L 4.890625 26.703125 
z
" id="DejaVuSans-52"/>
      </defs>
      <g transform="translate(268.407299 329.598437)scale(0.1 -0.1)">
       <use xlink:href="#DejaVuSans-52"/>
       <use x="63.623047" xlink:href="#DejaVuSans-48"/>
       <use x="127.246094" xlink:href="#DejaVuSans-48"/>
      </g>
     </g>
    </g>
    <g id="xtick_4">
     <g id="line2d_7">
      <path clip-path="url(#pc67de15a74)" d="M 359.244755 315 
L 359.244755 43.2 
" style="fill:none;stroke:#b0b0b0;stroke-linecap:square;stroke-width:0.8;"/>
     </g>
     <g id="line2d_8">
      <g>
       <use style="stroke:#000000;stroke-width:0.8;" x="359.244755" xlink:href="#md5ffe613c5" y="315"/>
      </g>
     </g>
     <g id="text_4">
      <!-- 600 -->
      <defs>
       <path d="M 33.015625 40.375 
Q 26.375 40.375 22.484375 35.828125 
Q 18.609375 31.296875 18.609375 23.390625 
Q 18.609375 15.53125 22.484375 10.953125 
Q 26.375 6.390625 33.015625 6.390625 
Q 39.65625 6.390625 43.53125 10.953125 
Q 47.40625 15.53125 47.40625 23.390625 
Q 47.40625 31.296875 43.53125 35.828125 
Q 39.65625 40.375 33.015625 40.375 
z
M 52.59375 71.296875 
L 52.59375 62.3125 
Q 48.875 64.0625 45.09375 64.984375 
Q 41.3125 65.921875 37.59375 65.921875 
Q 27.828125 65.921875 22.671875 59.328125 
Q 17.53125 52.734375 16.796875 39.40625 
Q 19.671875 43.65625 24.015625 45.921875 
Q 28.375 48.1875 33.59375 48.1875 
Q 44.578125 48.1875 50.953125 41.515625 
Q 57.328125 34.859375 57.328125 23.390625 
Q 57.328125 12.15625 50.6875 5.359375 
Q 44.046875 -1.421875 33.015625 -1.421875 
Q 20.359375 -1.421875 13.671875 8.265625 
Q 6.984375 17.96875 6.984375 36.375 
Q 6.984375 53.65625 15.1875 63.9375 
Q 23.390625 74.21875 37.203125 74.21875 
Q 40.921875 74.21875 44.703125 73.484375 
Q 48.484375 72.75 52.59375 71.296875 
z
" id="DejaVuSans-54"/>
      </defs>
      <g transform="translate(349.701005 329.598437)scale(0.1 -0.1)">
       <use xlink:href="#DejaVuSans-54"/>
       <use x="63.623047" xlink:href="#DejaVuSans-48"/>
       <use x="127.246094" xlink:href="#DejaVuSans-48"/>
      </g>
     </g>
    </g>
    <g id="xtick_5">
     <g id="line2d_9">
      <path clip-path="url(#pc67de15a74)" d="M 440.538462 315 
L 440.538462 43.2 
" style="fill:none;stroke:#b0b0b0;stroke-linecap:square;stroke-width:0.8;"/>
     </g>
     <g id="line2d_10">
      <g>
       <use style="stroke:#000000;stroke-width:0.8;" x="440.538462" xlink:href="#md5ffe613c5" y="315"/>
      </g>
     </g>
     <g id="text_5">
      <!-- 800 -->
      <defs>
       <path d="M 31.78125 34.625 
Q 24.75 34.625 20.71875 30.859375 
Q 16.703125 27.09375 16.703125 20.515625 
Q 16.703125 13.921875 20.71875 10.15625 
Q 24.75 6.390625 31.78125 6.390625 
Q 38.8125 6.390625 42.859375 10.171875 
Q 46.921875 13.96875 46.921875 20.515625 
Q 46.921875 27.09375 42.890625 30.859375 
Q 38.875 34.625 31.78125 34.625 
z
M 21.921875 38.8125 
Q 15.578125 40.375 12.03125 44.71875 
Q 8.5 49.078125 8.5 55.328125 
Q 8.5 64.0625 14.71875 69.140625 
Q 20.953125 74.21875 31.78125 74.21875 
Q 42.671875 74.21875 48.875 69.140625 
Q 55.078125 64.0625 55.078125 55.328125 
Q 55.078125 49.078125 51.53125 44.71875 
Q 48 40.375 41.703125 38.8125 
Q 48.828125 37.15625 52.796875 32.3125 
Q 56.78125 27.484375 56.78125 20.515625 
Q 56.78125 9.90625 50.3125 4.234375 
Q 43.84375 -1.421875 31.78125 -1.421875 
Q 19.734375 -1.421875 13.25 4.234375 
Q 6.78125 9.90625 6.78125 20.515625 
Q 6.78125 27.484375 10.78125 32.3125 
Q 14.796875 37.15625 21.921875 38.8125 
z
M 18.3125 54.390625 
Q 18.3125 48.734375 21.84375 45.5625 
Q 25.390625 42.390625 31.78125 42.390625 
Q 38.140625 42.390625 41.71875 45.5625 
Q 45.3125 48.734375 45.3125 54.390625 
Q 45.3125 60.0625 41.71875 63.234375 
Q 38.140625 66.40625 31.78125 66.40625 
Q 25.390625 66.40625 21.84375 63.234375 
Q 18.3125 60.0625 18.3125 54.390625 
z
" id="DejaVuSans-56"/>
      </defs>
      <g transform="translate(430.994712 329.598437)scale(0.1 -0.1)">
       <use xlink:href="#DejaVuSans-56"/>
       <use x="63.623047" xlink:href="#DejaVuSans-48"/>
       <use x="127.246094" xlink:href="#DejaVuSans-48"/>
      </g>
     </g>
    </g>
    <g id="xtick_6">
     <g id="line2d_11">
      <path clip-path="url(#pc67de15a74)" d="M 521.832168 315 
L 521.832168 43.2 
" style="fill:none;stroke:#b0b0b0;stroke-linecap:square;stroke-width:0.8;"/>
     </g>
     <g id="line2d_12">
      <g>
       <use style="stroke:#000000;stroke-width:0.8;" x="521.832168" xlink:href="#md5ffe613c5" y="315"/>
      </g>
     </g>
     <g id="text_6">
      <!-- 1000 -->
      <defs>
       <path d="M 12.40625 8.296875 
L 28.515625 8.296875 
L 28.515625 63.921875 
L 10.984375 60.40625 
L 10.984375 69.390625 
L 28.421875 72.90625 
L 38.28125 72.90625 
L 38.28125 8.296875 
L 54.390625 8.296875 
L 54.390625 0 
L 12.40625 0 
z
" id="DejaVuSans-49"/>
      </defs>
      <g transform="translate(509.107168 329.598437)scale(0.1 -0.1)">
       <use xlink:href="#DejaVuSans-49"/>
       <use x="63.623047" xlink:href="#DejaVuSans-48"/>
       <use x="127.246094" xlink:href="#DejaVuSans-48"/>
       <use x="190.869141" xlink:href="#DejaVuSans-48"/>
      </g>
     </g>
    </g>
    <g id="xtick_7">
     <g id="line2d_13">
      <path clip-path="url(#pc67de15a74)" d="M 603.125874 315 
L 603.125874 43.2 
" style="fill:none;stroke:#b0b0b0;stroke-linecap:square;stroke-width:0.8;"/>
     </g>
     <g id="line2d_14">
      <g>
       <use style="stroke:#000000;stroke-width:0.8;" x="603.125874" xlink:href="#md5ffe613c5" y="315"/>
      </g>
     </g>
     <g id="text_7">
      <!-- 1200 -->
      <g transform="translate(590.400874 329.598437)scale(0.1 -0.1)">
       <use xlink:href="#DejaVuSans-49"/>
       <use x="63.623047" xlink:href="#DejaVuSans-50"/>
       <use x="127.246094" xlink:href="#DejaVuSans-48"/>
       <use x="190.869141" xlink:href="#DejaVuSans-48"/>
      </g>
     </g>
    </g>
    <g id="text_8">
     <!-- epoch -->
     <defs>
      <path d="M 56.203125 29.59375 
L 56.203125 25.203125 
L 14.890625 25.203125 
Q 15.484375 15.921875 20.484375 11.0625 
Q 25.484375 6.203125 34.421875 6.203125 
Q 39.59375 6.203125 44.453125 7.46875 
Q 49.3125 8.734375 54.109375 11.28125 
L 54.109375 2.78125 
Q 49.265625 0.734375 44.1875 -0.34375 
Q 39.109375 -1.421875 33.890625 -1.421875 
Q 20.796875 -1.421875 13.15625 6.1875 
Q 5.515625 13.8125 5.515625 26.8125 
Q 5.515625 40.234375 12.765625 48.109375 
Q 20.015625 56 32.328125 56 
Q 43.359375 56 49.78125 48.890625 
Q 56.203125 41.796875 56.203125 29.59375 
z
M 47.21875 32.234375 
Q 47.125 39.59375 43.09375 43.984375 
Q 39.0625 48.390625 32.421875 48.390625 
Q 24.90625 48.390625 20.390625 44.140625 
Q 15.875 39.890625 15.1875 32.171875 
z
" id="DejaVuSans-101"/>
      <path d="M 18.109375 8.203125 
L 18.109375 -20.796875 
L 9.078125 -20.796875 
L 9.078125 54.6875 
L 18.109375 54.6875 
L 18.109375 46.390625 
Q 20.953125 51.265625 25.265625 53.625 
Q 29.59375 56 35.59375 56 
Q 45.5625 56 51.78125 48.09375 
Q 58.015625 40.1875 58.015625 27.296875 
Q 58.015625 14.40625 51.78125 6.484375 
Q 45.5625 -1.421875 35.59375 -1.421875 
Q 29.59375 -1.421875 25.265625 0.953125 
Q 20.953125 3.328125 18.109375 8.203125 
z
M 48.6875 27.296875 
Q 48.6875 37.203125 44.609375 42.84375 
Q 40.53125 48.484375 33.40625 48.484375 
Q 26.265625 48.484375 22.1875 42.84375 
Q 18.109375 37.203125 18.109375 27.296875 
Q 18.109375 17.390625 22.1875 11.75 
Q 26.265625 6.109375 33.40625 6.109375 
Q 40.53125 6.109375 44.609375 11.75 
Q 48.6875 17.390625 48.6875 27.296875 
z
" id="DejaVuSans-112"/>
      <path d="M 30.609375 48.390625 
Q 23.390625 48.390625 19.1875 42.75 
Q 14.984375 37.109375 14.984375 27.296875 
Q 14.984375 17.484375 19.15625 11.84375 
Q 23.34375 6.203125 30.609375 6.203125 
Q 37.796875 6.203125 41.984375 11.859375 
Q 46.1875 17.53125 46.1875 27.296875 
Q 46.1875 37.015625 41.984375 42.703125 
Q 37.796875 48.390625 30.609375 48.390625 
z
M 30.609375 56 
Q 42.328125 56 49.015625 48.375 
Q 55.71875 40.765625 55.71875 27.296875 
Q 55.71875 13.875 49.015625 6.21875 
Q 42.328125 -1.421875 30.609375 -1.421875 
Q 18.84375 -1.421875 12.171875 6.21875 
Q 5.515625 13.875 5.515625 27.296875 
Q 5.515625 40.765625 12.171875 48.375 
Q 18.84375 56 30.609375 56 
z
" id="DejaVuSans-111"/>
      <path d="M 48.78125 52.59375 
L 48.78125 44.1875 
Q 44.96875 46.296875 41.140625 47.34375 
Q 37.3125 48.390625 33.40625 48.390625 
Q 24.65625 48.390625 19.8125 42.84375 
Q 14.984375 37.3125 14.984375 27.296875 
Q 14.984375 17.28125 19.8125 11.734375 
Q 24.65625 6.203125 33.40625 6.203125 
Q 37.3125 6.203125 41.140625 7.25 
Q 44.96875 8.296875 48.78125 10.40625 
L 48.78125 2.09375 
Q 45.015625 0.34375 40.984375 -0.53125 
Q 36.96875 -1.421875 32.421875 -1.421875 
Q 20.0625 -1.421875 12.78125 6.34375 
Q 5.515625 14.109375 5.515625 27.296875 
Q 5.515625 40.671875 12.859375 48.328125 
Q 20.21875 56 33.015625 56 
Q 37.15625 56 41.109375 55.140625 
Q 45.0625 54.296875 48.78125 52.59375 
z
" id="DejaVuSans-99"/>
      <path d="M 54.890625 33.015625 
L 54.890625 0 
L 45.90625 0 
L 45.90625 32.71875 
Q 45.90625 40.484375 42.875 44.328125 
Q 39.84375 48.1875 33.796875 48.1875 
Q 26.515625 48.1875 22.3125 43.546875 
Q 18.109375 38.921875 18.109375 30.90625 
L 18.109375 0 
L 9.078125 0 
L 9.078125 75.984375 
L 18.109375 75.984375 
L 18.109375 46.1875 
Q 21.34375 51.125 25.703125 53.5625 
Q 30.078125 56 35.796875 56 
Q 45.21875 56 50.046875 50.171875 
Q 54.890625 44.34375 54.890625 33.015625 
z
" id="DejaVuSans-104"/>
     </defs>
     <g transform="translate(353.771875 343.276563)scale(0.1 -0.1)">
      <use xlink:href="#DejaVuSans-101"/>
      <use x="61.523438" xlink:href="#DejaVuSans-112"/>
      <use x="125" xlink:href="#DejaVuSans-111"/>
      <use x="186.181641" xlink:href="#DejaVuSans-99"/>
      <use x="241.162109" xlink:href="#DejaVuSans-104"/>
     </g>
    </g>
   </g>
   <g id="matplotlib.axis_2">
    <g id="ytick_1">
     <g id="line2d_15">
      <path clip-path="url(#pc67de15a74)" d="M 90 278.947956 
L 648 278.947956 
" style="fill:none;stroke:#b0b0b0;stroke-linecap:square;stroke-width:0.8;"/>
     </g>
     <g id="line2d_16">
      <defs>
       <path d="M 0 0 
L -3.5 0 
" id="m69bdc59f8f" style="stroke:#000000;stroke-width:0.8;"/>
      </defs>
      <g>
       <use style="stroke:#000000;stroke-width:0.8;" x="90" xlink:href="#m69bdc59f8f" y="278.947956"/>
      </g>
     </g>
     <g id="text_9">
      <!-- 0.3 -->
      <defs>
       <path d="M 10.6875 12.40625 
L 21 12.40625 
L 21 0 
L 10.6875 0 
z
" id="DejaVuSans-46"/>
       <path d="M 40.578125 39.3125 
Q 47.65625 37.796875 51.625 33 
Q 55.609375 28.21875 55.609375 21.1875 
Q 55.609375 10.40625 48.1875 4.484375 
Q 40.765625 -1.421875 27.09375 -1.421875 
Q 22.515625 -1.421875 17.65625 -0.515625 
Q 12.796875 0.390625 7.625 2.203125 
L 7.625 11.71875 
Q 11.71875 9.328125 16.59375 8.109375 
Q 21.484375 6.890625 26.8125 6.890625 
Q 36.078125 6.890625 40.9375 10.546875 
Q 45.796875 14.203125 45.796875 21.1875 
Q 45.796875 27.640625 41.28125 31.265625 
Q 36.765625 34.90625 28.71875 34.90625 
L 20.21875 34.90625 
L 20.21875 43.015625 
L 29.109375 43.015625 
Q 36.375 43.015625 40.234375 45.921875 
Q 44.09375 48.828125 44.09375 54.296875 
Q 44.09375 59.90625 40.109375 62.90625 
Q 36.140625 65.921875 28.71875 65.921875 
Q 24.65625 65.921875 20.015625 65.03125 
Q 15.375 64.15625 9.8125 62.3125 
L 9.8125 71.09375 
Q 15.4375 72.65625 20.34375 73.4375 
Q 25.25 74.21875 29.59375 74.21875 
Q 40.828125 74.21875 47.359375 69.109375 
Q 53.90625 64.015625 53.90625 55.328125 
Q 53.90625 49.265625 50.4375 45.09375 
Q 46.96875 40.921875 40.578125 39.3125 
z
" id="DejaVuSans-51"/>
      </defs>
      <g transform="translate(67.096875 282.747175)scale(0.1 -0.1)">
       <use xlink:href="#DejaVuSans-48"/>
       <use x="63.623047" xlink:href="#DejaVuSans-46"/>
       <use x="95.410156" xlink:href="#DejaVuSans-51"/>
      </g>
     </g>
    </g>
    <g id="ytick_2">
     <g id="line2d_17">
      <path clip-path="url(#pc67de15a74)" d="M 90 241.481556 
L 648 241.481556 
" style="fill:none;stroke:#b0b0b0;stroke-linecap:square;stroke-width:0.8;"/>
     </g>
     <g id="line2d_18">
      <g>
       <use style="stroke:#000000;stroke-width:0.8;" x="90" xlink:href="#m69bdc59f8f" y="241.481556"/>
      </g>
     </g>
     <g id="text_10">
      <!-- 0.4 -->
      <g transform="translate(67.096875 245.280775)scale(0.1 -0.1)">
       <use xlink:href="#DejaVuSans-48"/>
       <use x="63.623047" xlink:href="#DejaVuSans-46"/>
       <use x="95.410156" xlink:href="#DejaVuSans-52"/>
      </g>
     </g>
    </g>
    <g id="ytick_3">
     <g id="line2d_19">
      <path clip-path="url(#pc67de15a74)" d="M 90 204.015156 
L 648 204.015156 
" style="fill:none;stroke:#b0b0b0;stroke-linecap:square;stroke-width:0.8;"/>
     </g>
     <g id="line2d_20">
      <g>
       <use style="stroke:#000000;stroke-width:0.8;" x="90" xlink:href="#m69bdc59f8f" y="204.015156"/>
      </g>
     </g>
     <g id="text_11">
      <!-- 0.5 -->
      <defs>
       <path d="M 10.796875 72.90625 
L 49.515625 72.90625 
L 49.515625 64.59375 
L 19.828125 64.59375 
L 19.828125 46.734375 
Q 21.96875 47.46875 24.109375 47.828125 
Q 26.265625 48.1875 28.421875 48.1875 
Q 40.625 48.1875 47.75 41.5 
Q 54.890625 34.8125 54.890625 23.390625 
Q 54.890625 11.625 47.5625 5.09375 
Q 40.234375 -1.421875 26.90625 -1.421875 
Q 22.3125 -1.421875 17.546875 -0.640625 
Q 12.796875 0.140625 7.71875 1.703125 
L 7.71875 11.625 
Q 12.109375 9.234375 16.796875 8.0625 
Q 21.484375 6.890625 26.703125 6.890625 
Q 35.15625 6.890625 40.078125 11.328125 
Q 45.015625 15.765625 45.015625 23.390625 
Q 45.015625 31 40.078125 35.4375 
Q 35.15625 39.890625 26.703125 39.890625 
Q 22.75 39.890625 18.8125 39.015625 
Q 14.890625 38.140625 10.796875 36.28125 
z
" id="DejaVuSans-53"/>
      </defs>
      <g transform="translate(67.096875 207.814375)scale(0.1 -0.1)">
       <use xlink:href="#DejaVuSans-48"/>
       <use x="63.623047" xlink:href="#DejaVuSans-46"/>
       <use x="95.410156" xlink:href="#DejaVuSans-53"/>
      </g>
     </g>
    </g>
    <g id="ytick_4">
     <g id="line2d_21">
      <path clip-path="url(#pc67de15a74)" d="M 90 166.548756 
L 648 166.548756 
" style="fill:none;stroke:#b0b0b0;stroke-linecap:square;stroke-width:0.8;"/>
     </g>
     <g id="line2d_22">
      <g>
       <use style="stroke:#000000;stroke-width:0.8;" x="90" xlink:href="#m69bdc59f8f" y="166.548756"/>
      </g>
     </g>
     <g id="text_12">
      <!-- 0.6 -->
      <g transform="translate(67.096875 170.347975)scale(0.1 -0.1)">
       <use xlink:href="#DejaVuSans-48"/>
       <use x="63.623047" xlink:href="#DejaVuSans-46"/>
       <use x="95.410156" xlink:href="#DejaVuSans-54"/>
      </g>
     </g>
    </g>
    <g id="ytick_5">
     <g id="line2d_23">
      <path clip-path="url(#pc67de15a74)" d="M 90 129.082356 
L 648 129.082356 
" style="fill:none;stroke:#b0b0b0;stroke-linecap:square;stroke-width:0.8;"/>
     </g>
     <g id="line2d_24">
      <g>
       <use style="stroke:#000000;stroke-width:0.8;" x="90" xlink:href="#m69bdc59f8f" y="129.082356"/>
      </g>
     </g>
     <g id="text_13">
      <!-- 0.7 -->
      <defs>
       <path d="M 8.203125 72.90625 
L 55.078125 72.90625 
L 55.078125 68.703125 
L 28.609375 0 
L 18.3125 0 
L 43.21875 64.59375 
L 8.203125 64.59375 
z
" id="DejaVuSans-55"/>
      </defs>
      <g transform="translate(67.096875 132.881575)scale(0.1 -0.1)">
       <use xlink:href="#DejaVuSans-48"/>
       <use x="63.623047" xlink:href="#DejaVuSans-46"/>
       <use x="95.410156" xlink:href="#DejaVuSans-55"/>
      </g>
     </g>
    </g>
    <g id="ytick_6">
     <g id="line2d_25">
      <path clip-path="url(#pc67de15a74)" d="M 90 91.615956 
L 648 91.615956 
" style="fill:none;stroke:#b0b0b0;stroke-linecap:square;stroke-width:0.8;"/>
     </g>
     <g id="line2d_26">
      <g>
       <use style="stroke:#000000;stroke-width:0.8;" x="90" xlink:href="#m69bdc59f8f" y="91.615956"/>
      </g>
     </g>
     <g id="text_14">
      <!-- 0.8 -->
      <g transform="translate(67.096875 95.415174)scale(0.1 -0.1)">
       <use xlink:href="#DejaVuSans-48"/>
       <use x="63.623047" xlink:href="#DejaVuSans-46"/>
       <use x="95.410156" xlink:href="#DejaVuSans-56"/>
      </g>
     </g>
    </g>
    <g id="ytick_7">
     <g id="line2d_27">
      <path clip-path="url(#pc67de15a74)" d="M 90 54.149555 
L 648 54.149555 
" style="fill:none;stroke:#b0b0b0;stroke-linecap:square;stroke-width:0.8;"/>
     </g>
     <g id="line2d_28">
      <g>
       <use style="stroke:#000000;stroke-width:0.8;" x="90" xlink:href="#m69bdc59f8f" y="54.149555"/>
      </g>
     </g>
     <g id="text_15">
      <!-- 0.9 -->
      <defs>
       <path d="M 10.984375 1.515625 
L 10.984375 10.5 
Q 14.703125 8.734375 18.5 7.8125 
Q 22.3125 6.890625 25.984375 6.890625 
Q 35.75 6.890625 40.890625 13.453125 
Q 46.046875 20.015625 46.78125 33.40625 
Q 43.953125 29.203125 39.59375 26.953125 
Q 35.25 24.703125 29.984375 24.703125 
Q 19.046875 24.703125 12.671875 31.3125 
Q 6.296875 37.9375 6.296875 49.421875 
Q 6.296875 60.640625 12.9375 67.421875 
Q 19.578125 74.21875 30.609375 74.21875 
Q 43.265625 74.21875 49.921875 64.515625 
Q 56.59375 54.828125 56.59375 36.375 
Q 56.59375 19.140625 48.40625 8.859375 
Q 40.234375 -1.421875 26.421875 -1.421875 
Q 22.703125 -1.421875 18.890625 -0.6875 
Q 15.09375 0.046875 10.984375 1.515625 
z
M 30.609375 32.421875 
Q 37.25 32.421875 41.125 36.953125 
Q 45.015625 41.5 45.015625 49.421875 
Q 45.015625 57.28125 41.125 61.84375 
Q 37.25 66.40625 30.609375 66.40625 
Q 23.96875 66.40625 20.09375 61.84375 
Q 16.21875 57.28125 16.21875 49.421875 
Q 16.21875 41.5 20.09375 36.953125 
Q 23.96875 32.421875 30.609375 32.421875 
z
" id="DejaVuSans-57"/>
      </defs>
      <g transform="translate(67.096875 57.948774)scale(0.1 -0.1)">
       <use xlink:href="#DejaVuSans-48"/>
       <use x="63.623047" xlink:href="#DejaVuSans-46"/>
       <use x="95.410156" xlink:href="#DejaVuSans-57"/>
      </g>
     </g>
    </g>
    <g id="text_16">
     <!-- accuracy -->
     <defs>
      <path d="M 34.28125 27.484375 
Q 23.390625 27.484375 19.1875 25 
Q 14.984375 22.515625 14.984375 16.5 
Q 14.984375 11.71875 18.140625 8.90625 
Q 21.296875 6.109375 26.703125 6.109375 
Q 34.1875 6.109375 38.703125 11.40625 
Q 43.21875 16.703125 43.21875 25.484375 
L 43.21875 27.484375 
z
M 52.203125 31.203125 
L 52.203125 0 
L 43.21875 0 
L 43.21875 8.296875 
Q 40.140625 3.328125 35.546875 0.953125 
Q 30.953125 -1.421875 24.3125 -1.421875 
Q 15.921875 -1.421875 10.953125 3.296875 
Q 6 8.015625 6 15.921875 
Q 6 25.140625 12.171875 29.828125 
Q 18.359375 34.515625 30.609375 34.515625 
L 43.21875 34.515625 
L 43.21875 35.40625 
Q 43.21875 41.609375 39.140625 45 
Q 35.0625 48.390625 27.6875 48.390625 
Q 23 48.390625 18.546875 47.265625 
Q 14.109375 46.140625 10.015625 43.890625 
L 10.015625 52.203125 
Q 14.9375 54.109375 19.578125 55.046875 
Q 24.21875 56 28.609375 56 
Q 40.484375 56 46.34375 49.84375 
Q 52.203125 43.703125 52.203125 31.203125 
z
" id="DejaVuSans-97"/>
      <path d="M 8.5 21.578125 
L 8.5 54.6875 
L 17.484375 54.6875 
L 17.484375 21.921875 
Q 17.484375 14.15625 20.5 10.265625 
Q 23.53125 6.390625 29.59375 6.390625 
Q 36.859375 6.390625 41.078125 11.03125 
Q 45.3125 15.671875 45.3125 23.6875 
L 45.3125 54.6875 
L 54.296875 54.6875 
L 54.296875 0 
L 45.3125 0 
L 45.3125 8.40625 
Q 42.046875 3.421875 37.71875 1 
Q 33.40625 -1.421875 27.6875 -1.421875 
Q 18.265625 -1.421875 13.375 4.4375 
Q 8.5 10.296875 8.5 21.578125 
z
M 31.109375 56 
z
" id="DejaVuSans-117"/>
      <path d="M 41.109375 46.296875 
Q 39.59375 47.171875 37.8125 47.578125 
Q 36.03125 48 33.890625 48 
Q 26.265625 48 22.1875 43.046875 
Q 18.109375 38.09375 18.109375 28.8125 
L 18.109375 0 
L 9.078125 0 
L 9.078125 54.6875 
L 18.109375 54.6875 
L 18.109375 46.1875 
Q 20.953125 51.171875 25.484375 53.578125 
Q 30.03125 56 36.53125 56 
Q 37.453125 56 38.578125 55.875 
Q 39.703125 55.765625 41.0625 55.515625 
z
" id="DejaVuSans-114"/>
      <path d="M 32.171875 -5.078125 
Q 28.375 -14.84375 24.75 -17.8125 
Q 21.140625 -20.796875 15.09375 -20.796875 
L 7.90625 -20.796875 
L 7.90625 -13.28125 
L 13.1875 -13.28125 
Q 16.890625 -13.28125 18.9375 -11.515625 
Q 21 -9.765625 23.484375 -3.21875 
L 25.09375 0.875 
L 2.984375 54.6875 
L 12.5 54.6875 
L 29.59375 11.921875 
L 46.6875 54.6875 
L 56.203125 54.6875 
z
" id="DejaVuSans-121"/>
     </defs>
     <g transform="translate(61.017187 201.659375)rotate(-90)scale(0.1 -0.1)">
      <use xlink:href="#DejaVuSans-97"/>
      <use x="61.279297" xlink:href="#DejaVuSans-99"/>
      <use x="116.259766" xlink:href="#DejaVuSans-99"/>
      <use x="171.240234" xlink:href="#DejaVuSans-117"/>
      <use x="234.619141" xlink:href="#DejaVuSans-114"/>
      <use x="275.732422" xlink:href="#DejaVuSans-97"/>
      <use x="337.011719" xlink:href="#DejaVuSans-99"/>
      <use x="391.992188" xlink:href="#DejaVuSans-121"/>
     </g>
    </g>
   </g>
   <g id="line2d_29">
    <path clip-path="url(#pc67de15a74)" d="M 115.363636 302.645455 
L 115.770105 295.526839 
L 116.176573 301.053133 
L 116.583042 297.400159 
L 116.98951 291.592866 
L 117.395979 296.369833 
L 117.802448 297.962155 
L 118.208916 298.336819 
L 118.615385 298.336819 
L 119.021853 300.210139 
L 119.428322 294.309181 
L 119.83479 296.931829 
L 120.241259 295.995169 
L 120.647727 294.309181 
L 121.054196 291.405534 
L 121.460664 294.683845 
L 121.867133 292.904191 
L 122.273601 293.278855 
L 123.086538 296.088835 
L 123.493007 296.838163 
L 123.899476 292.061196 
L 124.305944 294.777511 
L 124.712413 296.463499 
L 125.118881 296.463499 
L 125.52535 293.372521 
L 125.931818 294.309181 
L 126.338287 289.532214 
L 126.744755 296.088835 
L 127.151224 297.400159 
L 127.964161 289.906878 
L 128.370629 293.559853 
L 129.590035 286.8159 
L 129.996503 287.471562 
L 130.402972 287.471562 
L 130.809441 286.441236 
L 131.215909 285.036246 
L 132.028846 278.760624 
L 132.435315 280.72761 
L 132.841783 277.355634 
L 133.248252 278.198628 
L 133.65472 273.889992 
L 134.061189 265.366386 
L 134.467657 267.427038 
L 134.874126 260.683086 
L 135.280594 260.214756 
L 135.687063 261.900744 
L 136.906469 244.572534 
L 137.719406 237.64125 
L 138.125874 229.773306 
L 138.532343 230.803632 
L 138.938811 220.406706 
L 139.34528 216.660066 
L 139.751748 211.695768 
L 140.158217 209.916114 
L 140.564685 205.888476 
L 140.971154 196.990206 
L 141.377622 196.802874 
L 141.784091 191.182914 
L 142.190559 187.436274 
L 142.597028 192.400572 
L 143.003497 180.223992 
L 143.409965 185.937618 
L 144.222902 178.444338 
L 144.629371 173.48004 
L 145.035839 175.728024 
L 145.442308 168.890406 
L 145.848776 166.361424 
L 146.255245 162.052788 
L 146.661713 162.802116 
L 147.068182 157.08849 
L 147.47465 162.24012 
L 147.881119 156.901158 
L 148.287587 154.840506 
L 148.694056 154.653174 
L 149.100524 153.622848 
L 149.506993 155.027838 
L 149.913462 147.440892 
L 150.31993 144.44358 
L 150.726399 144.91191 
L 151.132867 142.476594 
L 151.539336 146.223234 
L 151.945804 140.22861 
L 152.352273 139.853946 
L 152.758741 141.258936 
L 153.16521 135.264312 
L 153.978147 136.48197 
L 154.384615 136.388304 
L 154.791084 137.043966 
L 155.197552 136.388304 
L 155.604021 136.388304 
L 156.823427 129.363354 
L 157.229895 127.771032 
L 157.636364 131.049342 
L 158.042832 129.738018 
L 158.449301 126.459708 
L 158.855769 129.269688 
L 159.262238 125.804046 
L 159.668706 121.02708 
L 160.481643 125.991378 
L 160.888112 119.341092 
L 161.29458 124.680054 
L 161.701049 119.809422 
L 162.107517 121.589076 
L 162.513986 114.283128 
L 162.920455 118.779096 
L 163.326923 118.966428 
L 163.733392 119.62209 
L 164.13986 116.905776 
L 164.546329 116.718444 
L 164.952797 114.00213 
L 165.359266 114.283128 
L 165.765734 116.905776 
L 166.172203 115.032456 
L 166.578671 115.87545 
L 166.98514 117.561438 
L 167.391608 113.814798 
L 168.204545 115.219788 
L 168.611014 109.880826 
L 169.017483 109.131498 
L 169.423951 110.442822 
L 169.83042 114.376794 
L 170.236888 109.880826 
L 170.643357 109.974492 
L 171.049825 107.44551 
L 171.456294 110.068158 
L 171.862762 107.820174 
L 172.269231 108.569502 
L 172.675699 108.8505 
L 173.082168 107.539176 
L 173.488636 104.541864 
L 173.895105 103.886202 
L 174.301573 106.696182 
L 174.708042 102.76221 
L 175.11451 105.291192 
L 175.520979 105.478524 
L 175.927448 102.481212 
L 176.333916 102.668544 
L 176.740385 103.136874 
L 177.146853 106.227852 
L 177.553322 107.44551 
L 177.95979 103.324206 
L 178.366259 102.29388 
L 178.772727 100.795224 
L 179.179196 102.012882 
L 179.585664 102.481212 
L 179.992133 98.07891 
L 180.80507 100.607892 
L 181.211538 100.701558 
L 182.024476 97.985244 
L 182.430944 99.390234 
L 182.837413 97.704246 
L 183.243881 98.07891 
L 183.65035 100.701558 
L 184.056818 95.26893 
L 184.463287 96.392922 
L 184.869755 98.640906 
L 185.276224 99.4839 
L 185.682692 94.8006 
L 186.089161 96.392922 
L 186.495629 96.20559 
L 186.902098 93.489276 
L 187.308566 97.797912 
L 187.715035 95.081598 
L 188.121503 95.73726 
L 188.527972 93.957606 
L 188.934441 95.924592 
L 189.340909 92.833614 
L 189.747378 91.99062 
L 190.153846 92.45895 
L 190.560315 94.051272 
L 190.966783 92.646282 
L 191.373252 94.051272 
L 191.77972 97.797912 
L 192.186189 93.770274 
L 192.592657 93.582942 
L 192.999126 87.119988 
L 193.405594 91.99062 
L 193.812063 92.271618 
L 194.218531 90.304632 
L 194.625 94.238604 
L 195.031469 91.99062 
L 195.437937 93.39561 
L 195.844406 89.086974 
L 196.250874 95.549928 
L 196.657343 90.304632 
L 197.063811 91.147626 
L 197.47028 89.742636 
L 197.876748 91.615956 
L 198.283217 89.086974 
L 198.689685 90.960294 
L 199.502622 89.086974 
L 199.909091 91.803288 
L 200.315559 88.150314 
L 200.722028 88.431312 
L 201.128497 87.494652 
L 201.534965 89.64897 
L 201.941434 90.398298 
L 202.347902 87.30732 
L 203.160839 91.52229 
L 203.567308 89.274306 
L 203.973776 86.37066 
L 204.380245 88.71231 
L 204.786713 89.555304 
L 205.193182 89.18064 
L 205.59965 87.681984 
L 206.412587 89.555304 
L 206.819056 86.557992 
L 207.225524 86.745324 
L 207.631993 87.30732 
L 208.038462 86.932656 
L 208.44493 85.246668 
L 208.851399 86.464326 
L 209.257867 87.213654 
L 209.664336 85.246668 
L 210.070804 84.02901 
L 210.477273 88.24398 
L 210.883741 84.591006 
L 211.29021 87.869316 
L 211.696678 83.935344 
L 212.103147 90.023634 
L 212.509615 84.778338 
L 212.916084 87.30732 
L 213.322552 86.651658 
L 213.729021 87.869316 
L 214.13549 85.246668 
L 214.541958 86.183328 
L 214.948427 87.588318 
L 215.354895 83.279682 
L 215.761364 82.062024 
L 216.167832 86.37066 
L 216.574301 87.119988 
L 216.980769 86.651658 
L 217.387238 85.340334 
L 217.793706 85.808664 
L 218.200175 83.09235 
L 218.606643 84.02901 
L 219.41958 85.059336 
L 219.826049 85.246668 
L 220.232517 84.02901 
L 220.638986 82.15569 
L 221.045455 84.02901 
L 221.451923 84.96567 
L 221.858392 84.310008 
L 222.26486 86.745324 
L 222.671329 84.591006 
L 223.077797 87.681984 
L 223.484266 82.530354 
L 223.890734 81.21903 
L 224.297203 84.96567 
L 224.703671 80.938032 
L 225.11014 81.874692 
L 225.516608 80.188704 
L 225.923077 80.001372 
L 226.329545 87.588318 
L 226.736014 83.279682 
L 227.142483 83.279682 
L 227.548951 82.998684 
L 227.95542 83.748012 
L 228.361888 82.436688 
L 228.768357 82.062024 
L 229.174825 79.533042 
L 229.581294 83.186016 
L 229.987762 82.811352 
L 230.394231 82.62402 
L 230.800699 80.7507 
L 231.207168 82.62402 
L 231.613636 85.527666 
L 232.020105 85.059336 
L 232.426573 78.502716 
L 232.833042 82.249356 
L 233.23951 80.7507 
L 233.645979 81.968358 
L 234.052448 81.312696 
L 234.458916 83.09235 
L 234.865385 79.533042 
L 235.271853 81.031698 
L 235.678322 80.095038 
L 236.08479 81.68736 
L 236.491259 81.21903 
L 236.897727 79.81404 
L 237.304196 79.064712 
L 238.117133 81.781026 
L 238.523601 78.971046 
L 238.93007 81.406362 
L 239.336538 76.0674 
L 239.743007 81.125364 
L 240.149476 83.09235 
L 240.555944 81.031698 
L 240.962413 80.469702 
L 241.368881 80.188704 
L 241.77535 82.62402 
L 242.181818 82.249356 
L 242.588287 78.221718 
L 243.401224 84.216342 
L 243.807692 80.376036 
L 244.214161 78.034386 
L 244.620629 77.847054 
L 245.027098 77.847054 
L 245.433566 77.00406 
L 245.840035 82.62402 
L 246.246503 78.502716 
L 246.652972 77.47239 
L 247.059441 79.626708 
L 247.465909 79.907706 
L 247.872378 77.47239 
L 248.278846 80.563368 
L 248.685315 80.188704 
L 249.091783 79.533042 
L 249.498252 76.0674 
L 249.90472 80.938032 
L 250.311189 78.315384 
L 250.717657 77.847054 
L 251.124126 80.28237 
L 251.530594 76.816728 
L 251.937063 80.001372 
L 252.343531 79.626708 
L 252.75 77.00406 
L 253.156469 80.469702 
L 253.562937 80.657034 
L 253.969406 77.191392 
L 254.375874 78.87738 
L 254.782343 79.533042 
L 255.188811 76.442064 
L 256.001748 78.87738 
L 256.814685 79.158378 
L 257.221154 79.81404 
L 257.627622 79.626708 
L 258.034091 75.318072 
L 258.440559 77.191392 
L 259.253497 77.94072 
L 259.659965 80.844366 
L 260.066434 75.880068 
L 260.472902 79.907706 
L 260.879371 78.315384 
L 261.285839 78.034386 
L 261.692308 80.938032 
L 262.098776 76.0674 
L 262.505245 77.659722 
L 262.911713 75.973734 
L 263.72465 79.064712 
L 264.131119 79.907706 
L 264.537587 73.25742 
L 265.350524 80.844366 
L 265.756993 77.097726 
L 266.163462 76.348398 
L 266.56993 80.001372 
L 266.976399 77.378724 
L 267.382867 73.25742 
L 267.789336 77.847054 
L 268.195804 75.786402 
L 268.602273 78.971046 
L 269.008741 76.816728 
L 269.41521 77.191392 
L 269.821678 77.378724 
L 270.228147 77.285058 
L 270.634615 79.626708 
L 271.041084 74.943408 
L 271.447552 76.0674 
L 271.854021 74.568744 
L 272.26049 78.221718 
L 272.666958 74.475078 
L 273.479895 75.880068 
L 273.886364 74.381412 
L 274.292832 78.87738 
L 274.699301 75.224406 
L 275.105769 74.756076 
L 275.512238 77.378724 
L 275.918706 77.191392 
L 276.325175 78.034386 
L 276.731643 74.66241 
L 277.138112 76.910394 
L 277.54458 74.475078 
L 277.951049 73.25742 
L 278.357517 72.695424 
L 278.763986 76.0674 
L 279.170455 76.161066 
L 279.576923 76.629396 
L 279.983392 79.252044 
L 280.38986 74.100414 
L 280.796329 75.59907 
L 281.202797 77.94072 
L 281.609266 73.913082 
L 282.015734 77.285058 
L 282.422203 74.66241 
L 283.23514 76.254732 
L 283.641608 75.505404 
L 284.048077 77.00406 
L 284.454545 76.0674 
L 284.861014 76.254732 
L 285.267483 78.034386 
L 285.673951 73.163754 
L 286.08042 74.19408 
L 286.486888 73.163754 
L 286.893357 74.756076 
L 287.299825 78.596382 
L 288.112762 73.538418 
L 288.519231 73.913082 
L 288.925699 75.786402 
L 289.332168 73.632084 
L 289.738636 74.568744 
L 290.145105 72.601758 
L 290.551573 75.224406 
L 290.958042 72.882756 
L 291.36451 73.163754 
L 291.770979 75.13074 
L 292.177448 75.224406 
L 292.583916 76.161066 
L 292.990385 74.100414 
L 293.396853 73.351086 
L 295.429196 76.816728 
L 295.835664 74.19408 
L 296.242133 76.254732 
L 296.648601 77.191392 
L 297.461538 73.913082 
L 297.868007 74.849742 
L 298.274476 73.72575 
L 298.680944 75.224406 
L 299.087413 77.378724 
L 299.493881 72.601758 
L 299.90035 73.72575 
L 300.306818 71.665098 
L 300.713287 73.444752 
L 301.119755 73.819416 
L 301.526224 73.632084 
L 301.932692 72.32076 
L 302.339161 72.508092 
L 302.745629 75.786402 
L 303.152098 74.287746 
L 303.558566 74.66241 
L 303.965035 74.19408 
L 304.371503 74.568744 
L 304.777972 70.541106 
L 305.184441 73.72575 
L 305.590909 74.475078 
L 305.997378 72.414426 
L 306.403846 73.819416 
L 306.810315 73.070088 
L 307.216783 72.695424 
L 307.623252 75.224406 
L 308.02972 72.78909 
L 308.436189 75.411738 
L 309.249126 73.351086 
L 309.655594 77.847054 
L 310.062063 74.381412 
L 310.468531 72.039762 
L 311.281469 74.568744 
L 311.687937 72.78909 
L 312.094406 74.287746 
L 312.500874 72.133428 
L 313.313811 74.475078 
L 313.72028 71.85243 
L 314.126748 71.290434 
L 314.533217 70.353774 
L 314.939685 69.885444 
L 315.346154 72.227094 
L 316.159091 72.976422 
L 317.378497 70.353774 
L 317.784965 73.070088 
L 318.191434 74.287746 
L 318.597902 72.227094 
L 319.410839 69.97911 
L 319.817308 74.66241 
L 320.223776 72.508092 
L 320.630245 74.381412 
L 321.036713 75.59907 
L 321.443182 72.039762 
L 321.84965 69.604446 
L 322.256119 74.287746 
L 322.662587 70.260108 
L 323.069056 72.882756 
L 323.475524 70.634772 
L 323.881993 72.414426 
L 324.288462 72.227094 
L 324.69493 73.819416 
L 325.101399 73.632084 
L 325.507867 73.163754 
L 325.914336 72.227094 
L 326.320804 71.946096 
L 326.727273 73.351086 
L 327.133741 68.199456 
L 327.54021 73.632084 
L 327.946678 73.444752 
L 328.353147 72.508092 
L 328.759615 72.039762 
L 329.166084 71.290434 
L 329.979021 71.665098 
L 330.38549 66.513468 
L 330.791958 68.855118 
L 331.198427 70.44744 
L 331.604895 69.323448 
L 332.011364 69.604446 
L 332.417832 70.91577 
L 332.824301 71.290434 
L 333.230769 71.85243 
L 333.637238 70.260108 
L 334.043706 71.009436 
L 334.450175 72.601758 
L 335.263112 69.791778 
L 335.66958 70.822104 
L 336.076049 70.822104 
L 337.295455 68.855118 
L 337.701923 72.227094 
L 338.108392 70.541106 
L 338.51486 72.133428 
L 338.921329 71.290434 
L 339.327797 69.885444 
L 339.734266 73.444752 
L 340.140734 69.51078 
L 340.547203 70.634772 
L 340.953671 70.166442 
L 341.36014 72.695424 
L 341.766608 71.85243 
L 342.173077 73.070088 
L 342.579545 71.3841 
L 342.986014 71.571432 
L 343.392483 71.103102 
L 343.798951 68.57412 
L 344.20542 70.541106 
L 344.611888 69.51078 
L 345.018357 68.012124 
L 345.424825 70.91577 
L 345.831294 71.665098 
L 346.237762 69.885444 
L 346.644231 71.946096 
L 347.050699 70.353774 
L 347.457168 72.227094 
L 347.863636 68.012124 
L 348.270105 68.667786 
L 348.676573 66.138804 
L 349.083042 70.44744 
L 349.48951 69.229782 
L 349.895979 69.04245 
L 350.302448 70.634772 
L 350.708916 69.885444 
L 351.115385 66.513468 
L 351.521853 70.91577 
L 352.33479 70.822104 
L 352.741259 67.731126 
L 353.147727 72.133428 
L 353.554196 69.791778 
L 353.960664 69.604446 
L 354.367133 68.293122 
L 354.773601 69.791778 
L 355.18007 71.758764 
L 355.586538 70.260108 
L 355.993007 70.166442 
L 356.399476 69.698112 
L 356.805944 68.761452 
L 357.212413 71.196768 
L 357.618881 69.417114 
L 358.02535 70.072776 
L 358.431818 66.419802 
L 358.838287 70.728438 
L 359.244755 69.51078 
L 359.651224 69.698112 
L 360.057692 69.04245 
L 360.464161 70.260108 
L 360.870629 67.356462 
L 361.277098 69.323448 
L 361.683566 66.513468 
L 362.090035 69.136116 
L 362.496503 67.356462 
L 362.902972 68.293122 
L 363.309441 72.32076 
L 363.715909 65.951472 
L 364.122378 69.791778 
L 364.528846 70.353774 
L 364.935315 71.665098 
L 365.341783 68.012124 
L 365.748252 70.541106 
L 366.15472 70.728438 
L 366.561189 65.389475 
L 366.967657 69.417114 
L 367.374126 68.761452 
L 367.780594 67.543794 
L 368.187063 67.075464 
L 368.593531 69.04245 
L 369 68.386788 
L 369.406469 70.072776 
L 369.812937 66.981798 
L 370.219406 71.571432 
L 370.625874 66.045138 
L 371.032343 70.541106 
L 371.438811 66.888132 
L 371.84528 69.04245 
L 372.251748 67.824792 
L 372.658217 69.229782 
L 373.064685 68.761452 
L 373.471154 71.758764 
L 373.877622 67.450128 
L 374.284091 70.822104 
L 374.690559 67.918458 
L 375.097028 67.450128 
L 375.503497 70.728438 
L 375.909965 67.262796 
L 376.316434 65.764139 
L 376.722902 68.667786 
L 377.129371 68.012124 
L 377.535839 65.389475 
L 378.348776 66.888132 
L 378.755245 68.57412 
L 379.161713 68.386788 
L 379.568182 67.262796 
L 379.97465 65.764139 
L 380.787587 69.323448 
L 381.194056 68.10579 
L 381.600524 69.229782 
L 382.006993 65.857806 
L 382.413462 69.417114 
L 382.81993 65.483141 
L 383.226399 68.293122 
L 383.632867 68.199456 
L 384.039336 68.855118 
L 384.445804 66.419802 
L 384.852273 69.791778 
L 385.258741 68.293122 
L 385.66521 71.009436 
L 386.071678 67.450128 
L 386.478147 68.57412 
L 386.884615 65.202143 
L 387.291084 66.513468 
L 387.697552 68.386788 
L 388.104021 69.136116 
L 388.51049 69.229782 
L 388.916958 68.10579 
L 389.323427 70.91577 
L 389.729895 68.948784 
L 390.136364 69.604446 
L 390.542832 69.229782 
L 390.949301 65.670473 
L 391.355769 66.7008 
L 391.762238 68.855118 
L 392.168706 66.419802 
L 392.575175 69.51078 
L 392.981643 63.235157 
L 393.388112 67.450128 
L 393.79458 65.857806 
L 394.201049 68.199456 
L 394.607517 67.356462 
L 395.013986 65.576807 
L 395.420455 69.04245 
L 395.826923 69.604446 
L 396.233392 68.855118 
L 396.63986 66.419802 
L 397.046329 68.57412 
L 397.452797 68.57412 
L 397.859266 64.827479 
L 398.265734 63.609821 
L 398.672203 66.419802 
L 399.078671 67.63746 
L 399.48514 63.797153 
L 399.891608 69.604446 
L 400.298077 68.293122 
L 400.704545 68.386788 
L 401.111014 68.199456 
L 401.517483 65.014811 
L 402.736888 66.045138 
L 403.143357 68.293122 
L 403.549825 67.16913 
L 403.956294 69.04245 
L 404.362762 69.136116 
L 404.769231 69.97911 
L 405.175699 66.607134 
L 405.582168 65.483141 
L 405.988636 65.483141 
L 406.395105 66.419802 
L 406.801573 70.634772 
L 407.208042 69.698112 
L 407.61451 65.202143 
L 408.020979 71.571432 
L 408.427448 66.794466 
L 408.833916 66.888132 
L 409.240385 65.389475 
L 409.646853 65.108477 
L 410.053322 66.794466 
L 410.45979 66.138804 
L 410.866259 69.698112 
L 411.272727 65.202143 
L 411.679196 67.356462 
L 412.085664 68.10579 
L 412.492133 66.326136 
L 412.898601 65.295809 
L 413.30507 68.948784 
L 413.711538 67.731126 
L 414.118007 64.452815 
L 414.524476 68.012124 
L 414.930944 66.23247 
L 415.337413 65.764139 
L 415.743881 65.764139 
L 416.15035 65.202143 
L 416.556818 62.673161 
L 416.963287 65.483141 
L 417.369755 70.166442 
L 417.776224 63.516155 
L 418.182692 63.328823 
L 418.589161 65.951472 
L 418.995629 65.670473 
L 419.402098 66.794466 
L 419.808566 63.984485 
L 420.215035 63.141491 
L 420.621503 68.386788 
L 421.027972 66.419802 
L 421.434441 69.604446 
L 422.247378 64.546481 
L 422.653846 63.703487 
L 423.060315 64.921145 
L 423.466783 64.921145 
L 423.873252 67.731126 
L 424.27972 65.764139 
L 424.686189 67.543794 
L 425.092657 65.857806 
L 425.499126 62.298497 
L 425.905594 63.141491 
L 426.312063 62.860493 
L 426.718531 66.326136 
L 427.125 64.546481 
L 427.531469 61.642835 
L 427.937937 62.954159 
L 428.344406 63.609821 
L 429.157343 66.045138 
L 429.563811 65.857806 
L 429.97028 62.673161 
L 430.376748 71.196768 
L 430.783217 66.326136 
L 431.189685 64.078151 
L 431.596154 64.733813 
L 432.002622 65.951472 
L 432.409091 64.921145 
L 432.815559 64.265483 
L 433.222028 67.543794 
L 433.628497 66.794466 
L 434.034965 65.576807 
L 434.441434 62.766827 
L 434.847902 65.857806 
L 435.254371 63.797153 
L 435.660839 62.673161 
L 436.067308 64.078151 
L 436.473776 66.419802 
L 437.286713 64.359149 
L 437.693182 68.948784 
L 438.09965 63.235157 
L 438.506119 65.295809 
L 438.912587 63.703487 
L 439.319056 65.483141 
L 439.725524 62.766827 
L 440.131993 66.138804 
L 440.538462 63.609821 
L 440.94493 63.703487 
L 441.757867 66.23247 
L 442.164336 63.797153 
L 442.570804 64.359149 
L 442.977273 63.984485 
L 443.383741 67.731126 
L 443.79021 63.984485 
L 444.196678 63.984485 
L 444.603147 65.295809 
L 445.009615 64.171817 
L 445.416084 60.518843 
L 445.822552 66.23247 
L 446.63549 61.830167 
L 447.854895 67.450128 
L 448.261364 64.359149 
L 448.667832 63.328823 
L 449.074301 64.640147 
L 449.480769 63.984485 
L 449.887238 62.392163 
L 450.293706 65.576807 
L 450.700175 63.890819 
L 451.106643 62.954159 
L 451.513112 62.673161 
L 451.91958 64.827479 
L 452.326049 64.921145 
L 452.732517 63.422489 
L 453.138986 66.607134 
L 453.545455 63.890819 
L 453.951923 66.794466 
L 454.358392 64.827479 
L 455.171329 67.356462 
L 455.577797 63.141491 
L 455.984266 66.23247 
L 456.390734 61.174505 
L 456.797203 65.295809 
L 457.203671 63.141491 
L 457.61014 63.984485 
L 458.016608 62.485829 
L 458.423077 64.546481 
L 458.829545 64.359149 
L 459.236014 63.047825 
L 459.642483 59.394851 
L 460.048951 64.546481 
L 460.45542 66.138804 
L 460.861888 63.047825 
L 461.268357 62.111165 
L 461.674825 60.612509 
L 462.081294 64.921145 
L 462.487762 63.797153 
L 462.894231 62.111165 
L 463.300699 63.797153 
L 463.707168 61.080839 
L 464.113636 63.797153 
L 464.520105 68.480454 
L 464.926573 63.609821 
L 465.333042 64.640147 
L 465.73951 61.642835 
L 466.552448 65.576807 
L 467.771853 62.579495 
L 468.178322 62.298497 
L 468.58479 63.047825 
L 468.991259 63.516155 
L 469.397727 63.516155 
L 469.804196 65.295809 
L 470.210664 60.331511 
L 470.617133 62.673161 
L 471.023601 65.764139 
L 471.43007 67.356462 
L 471.836538 67.918458 
L 472.243007 64.359149 
L 472.649476 63.797153 
L 473.055944 62.298497 
L 473.462413 65.295809 
L 473.868881 63.516155 
L 474.27535 63.890819 
L 474.681818 61.455503 
L 475.088287 63.422489 
L 475.494755 60.893507 
L 475.901224 62.673161 
L 476.307692 63.516155 
L 476.714161 63.703487 
L 477.120629 63.422489 
L 477.527098 62.860493 
L 477.933566 65.576807 
L 478.340035 64.171817 
L 478.746503 63.609821 
L 479.152972 58.926521 
L 479.559441 63.797153 
L 479.965909 61.830167 
L 480.372378 60.518843 
L 480.778846 62.204831 
L 481.185315 59.863181 
L 481.591783 64.733813 
L 481.998252 65.202143 
L 482.40472 61.174505 
L 483.217657 65.014811 
L 483.624126 59.301185 
L 484.030594 63.141491 
L 484.437063 64.640147 
L 484.843531 60.237845 
L 485.25 62.860493 
L 485.656469 63.141491 
L 486.062937 64.171817 
L 486.469406 65.764139 
L 486.875874 63.141491 
L 487.282343 63.422489 
L 487.688811 60.144179 
L 488.501748 65.014811 
L 488.908217 64.171817 
L 489.314685 59.675849 
L 490.127622 66.607134 
L 490.534091 61.830167 
L 490.940559 65.670473 
L 491.753497 63.516155 
L 492.159965 60.518843 
L 492.566434 65.295809 
L 492.972902 60.706175 
L 493.379371 61.455503 
L 493.785839 63.141491 
L 494.192308 60.612509 
L 494.598776 61.361837 
L 495.005245 64.171817 
L 495.411713 65.764139 
L 495.818182 64.359149 
L 496.22465 61.830167 
L 496.631119 64.171817 
L 497.037587 59.675849 
L 497.444056 64.171817 
L 497.850524 61.830167 
L 498.256993 65.295809 
L 498.663462 66.045138 
L 499.06993 65.295809 
L 499.476399 61.080839 
L 499.882867 67.356462 
L 500.289336 64.078151 
L 500.695804 62.204831 
L 501.102273 65.202143 
L 501.508741 64.359149 
L 501.91521 62.766827 
L 502.321678 64.640147 
L 502.728147 63.984485 
L 503.134615 61.642835 
L 503.541084 63.797153 
L 503.947552 62.204831 
L 504.354021 62.485829 
L 504.76049 61.830167 
L 505.166958 65.295809 
L 505.573427 64.171817 
L 505.979895 61.830167 
L 506.386364 62.204831 
L 506.792832 65.014811 
L 507.199301 64.359149 
L 507.605769 63.422489 
L 508.012238 61.080839 
L 508.418706 60.425177 
L 508.825175 62.673161 
L 509.231643 62.485829 
L 509.638112 62.017499 
L 510.04458 61.080839 
L 510.451049 61.268171 
L 510.857517 60.799841 
L 511.263986 64.171817 
L 511.670455 59.301185 
L 512.076923 59.207519 
L 512.483392 59.488517 
L 512.88986 61.080839 
L 513.296329 60.706175 
L 513.702797 60.518843 
L 514.109266 62.860493 
L 514.515734 61.923833 
L 514.922203 63.516155 
L 515.328671 61.174505 
L 515.73514 63.703487 
L 516.141608 61.549169 
L 516.548077 63.047825 
L 516.954545 63.797153 
L 517.361014 60.144179 
L 517.767483 62.204831 
L 518.173951 61.361837 
L 518.58042 59.394851 
L 518.986888 59.207519 
L 519.393357 61.268171 
L 519.799825 61.268171 
L 520.206294 60.799841 
L 520.612762 61.080839 
L 521.019231 63.235157 
L 521.425699 63.141491 
L 521.832168 62.579495 
L 522.238636 60.331511 
L 522.645105 62.017499 
L 523.051573 62.485829 
L 523.458042 63.890819 
L 524.270979 60.237845 
L 525.083916 60.331511 
L 525.490385 63.422489 
L 525.896853 60.987173 
L 526.303322 59.301185 
L 526.70979 60.612509 
L 527.116259 59.956847 
L 527.522727 63.609821 
L 527.929196 63.141491 
L 528.335664 63.890819 
L 528.742133 61.830167 
L 529.148601 61.361837 
L 529.55507 63.235157 
L 529.961538 59.582183 
L 530.368007 60.050513 
L 530.774476 62.673161 
L 531.180944 64.359149 
L 531.587413 61.080839 
L 531.993881 64.733813 
L 532.40035 59.394851 
L 532.806818 58.177193 
L 533.619755 61.642835 
L 534.026224 60.331511 
L 534.432692 63.609821 
L 534.839161 60.612509 
L 535.245629 62.954159 
L 535.652098 59.020187 
L 536.058566 60.893507 
L 536.465035 62.017499 
L 536.871503 62.111165 
L 537.277972 63.422489 
L 537.684441 59.113853 
L 538.090909 57.896195 
L 538.903846 62.860493 
L 539.310315 63.890819 
L 539.716783 60.799841 
L 540.123252 62.485829 
L 540.52972 61.361837 
L 540.936189 61.830167 
L 541.342657 62.111165 
L 542.155594 59.207519 
L 542.562063 60.706175 
L 542.968531 60.987173 
L 543.375 62.766827 
L 543.781469 60.799841 
L 544.187937 62.392163 
L 545.000874 60.518843 
L 545.407343 60.799841 
L 545.813811 59.675849 
L 546.22028 61.736501 
L 547.033217 61.830167 
L 547.439685 59.488517 
L 547.846154 60.987173 
L 548.252622 58.458191 
L 548.659091 63.984485 
L 549.065559 58.083527 
L 549.472028 62.766827 
L 549.878497 62.954159 
L 550.284965 60.331511 
L 550.691434 62.298497 
L 551.097902 60.050513 
L 551.504371 63.235157 
L 551.910839 55.554545 
L 552.317308 58.551857 
L 552.723776 58.832855 
L 553.536713 64.265483 
L 553.943182 62.204831 
L 554.34965 58.926521 
L 554.756119 58.177193 
L 555.162587 60.706175 
L 555.569056 59.113853 
L 555.975524 61.268171 
L 556.381993 59.675849 
L 556.788462 59.113853 
L 557.19493 61.174505 
L 557.601399 61.455503 
L 558.007867 62.392163 
L 558.414336 61.549169 
L 558.820804 58.458191 
L 559.633741 62.298497 
L 560.04021 60.237845 
L 560.446678 59.207519 
L 560.853147 56.584871 
L 561.259615 60.144179 
L 561.666084 61.642835 
L 562.072552 60.050513 
L 562.479021 56.584871 
L 562.88549 61.361837 
L 563.291958 63.047825 
L 563.698427 63.047825 
L 564.104895 61.361837 
L 564.511364 61.830167 
L 564.917832 59.863181 
L 565.324301 62.485829 
L 565.730769 63.890819 
L 566.543706 58.364525 
L 566.950175 60.987173 
L 567.356643 58.083527 
L 567.763112 59.301185 
L 568.16958 60.987173 
L 568.576049 57.989861 
L 568.982517 59.207519 
L 569.388986 61.736501 
L 569.795455 58.458191 
L 570.201923 62.485829 
L 570.608392 61.455503 
L 571.01486 58.083527 
L 571.421329 61.642835 
L 571.827797 59.769515 
L 572.234266 58.458191 
L 572.640734 59.488517 
L 573.047203 61.923833 
L 573.453671 59.488517 
L 573.86014 59.956847 
L 574.266608 58.926521 
L 574.673077 59.956847 
L 575.079545 59.394851 
L 575.486014 57.615197 
L 575.892483 58.177193 
L 576.298951 59.582183 
L 576.70542 60.237845 
L 577.111888 61.642835 
L 577.518357 61.361837 
L 577.924825 61.830167 
L 578.331294 60.237845 
L 578.737762 59.863181 
L 579.144231 62.860493 
L 579.550699 60.518843 
L 579.957168 59.863181 
L 580.363636 58.551857 
L 580.770105 59.488517 
L 581.176573 56.959535 
L 581.583042 58.551857 
L 581.98951 58.832855 
L 582.395979 57.615197 
L 582.802448 60.799841 
L 583.208916 60.331511 
L 583.615385 59.488517 
L 584.021853 59.488517 
L 584.428322 60.799841 
L 584.83479 61.080839 
L 585.241259 60.237845 
L 585.647727 61.736501 
L 586.054196 60.799841 
L 586.460664 57.427865 
L 586.867133 60.050513 
L 587.273601 57.053201 
L 587.68007 61.268171 
L 588.086538 62.204831 
L 588.899476 59.769515 
L 589.305944 60.612509 
L 589.712413 61.736501 
L 590.118881 59.863181 
L 590.52535 59.020187 
L 590.931818 56.303873 
L 591.338287 61.174505 
L 591.744755 58.926521 
L 592.151224 59.394851 
L 592.557692 59.301185 
L 592.964161 59.675849 
L 593.370629 59.394851 
L 593.777098 60.331511 
L 594.183566 59.113853 
L 594.996503 61.268171 
L 595.809441 59.301185 
L 596.215909 58.270859 
L 596.622378 58.832855 
L 597.028846 62.204831 
L 597.435315 56.772203 
L 597.841783 60.799841 
L 598.248252 58.083527 
L 598.65472 57.989861 
L 599.467657 59.956847 
L 599.874126 59.301185 
L 600.280594 61.830167 
L 600.687063 58.645523 
L 601.093531 59.488517 
L 601.5 61.268171 
L 601.906469 58.926521 
L 602.312937 60.799841 
L 602.719406 58.739189 
L 603.125874 60.893507 
L 603.532343 61.642835 
L 603.938811 57.053201 
L 604.34528 58.926521 
L 604.751748 57.708863 
L 605.158217 58.926521 
L 605.564685 58.926521 
L 605.971154 60.050513 
L 606.377622 62.392163 
L 606.784091 60.331511 
L 607.190559 61.361837 
L 607.597028 60.237845 
L 608.003497 55.648211 
L 608.409965 59.113853 
L 608.816434 58.270859 
L 609.222902 60.893507 
L 609.629371 56.116541 
L 610.035839 57.240533 
L 610.442308 62.017499 
L 610.848776 58.364525 
L 611.255245 58.645523 
L 611.661713 56.303873 
L 612.068182 59.582183 
L 612.47465 58.551857 
L 612.881119 56.210207 
L 613.287587 60.987173 
L 613.694056 59.488517 
L 614.100524 57.053201 
L 614.506993 62.485829 
L 614.913462 62.673161 
L 615.726399 57.053201 
L 616.132867 58.458191 
L 616.539336 58.270859 
L 616.945804 59.020187 
L 617.352273 62.860493 
L 617.758741 60.612509 
L 618.16521 59.675849 
L 618.571678 57.334199 
L 618.978147 60.799841 
L 619.384615 56.772203 
L 620.197552 59.207519 
L 620.604021 60.144179 
L 621.01049 57.146867 
L 621.416958 60.706175 
L 621.823427 58.739189 
L 622.229895 58.645523 
L 622.636364 58.832855 
L 622.636364 58.832855 
" style="fill:none;stroke:#1f77b4;stroke-linecap:square;stroke-width:0.5;"/>
   </g>
   <g id="line2d_30">
    <path clip-path="url(#pc67de15a74)" d="M 115.363636 302.551789 
L 115.770105 300.210139 
L 116.176573 294.121849 
L 116.583042 297.025495 
L 116.98951 296.276167 
L 117.802448 298.430485 
L 118.208916 297.681157 
L 118.615385 298.149487 
L 119.021853 298.992481 
L 119.428322 292.154862 
L 119.83479 301.989793 
L 120.241259 294.215515 
L 121.054196 292.435861 
L 121.460664 297.587491 
L 121.867133 297.400159 
L 122.273601 296.557165 
L 122.68007 294.777511 
L 123.086538 295.995169 
L 123.493007 301.334131 
L 123.899476 295.714171 
L 124.712413 291.780198 
L 125.118881 291.686532 
L 125.52535 289.344882 
L 125.931818 292.904191 
L 126.338287 289.719546 
L 126.744755 294.121849 
L 127.151224 289.15755 
L 127.557692 295.339507 
L 127.964161 290.375208 
L 128.370629 291.218202 
L 128.777098 289.532214 
L 129.183566 292.061196 
L 129.590035 289.438548 
L 129.996503 287.846226 
L 130.402972 283.350258 
L 130.809441 287.565228 
L 131.215909 283.818588 
L 131.622378 285.41091 
L 132.028846 283.912254 
L 133.248252 273.421662 
L 133.65472 272.953332 
L 134.061189 263.86773 
L 134.467657 267.801702 
L 134.874126 267.708036 
L 135.280594 260.870418 
L 135.687063 260.402088 
L 136.5 245.415528 
L 136.906469 242.605548 
L 137.312937 237.734916 
L 137.719406 231.08463 
L 138.125874 229.023978 
L 138.532343 223.404018 
L 138.938811 215.817072 
L 139.34528 214.22475 
L 139.751748 207.66813 
L 140.158217 205.420146 
L 140.564685 195.397884 
L 140.971154 201.673506 
L 141.377622 196.42821 
L 141.784091 193.992894 
L 142.190559 187.342608 
L 142.597028 178.16334 
L 143.003497 181.066986 
L 143.409965 177.507678 
L 143.816434 176.29002 
L 144.222902 168.890406 
L 144.629371 168.515742 
L 145.035839 164.11344 
L 145.442308 163.738776 
L 145.848776 168.703074 
L 146.255245 158.680812 
L 146.661713 158.587146 
L 147.068182 155.308836 
L 147.47465 158.118816 
L 147.881119 148.752216 
L 148.287587 154.934172 
L 148.694056 151.749528 
L 149.100524 145.473906 
L 149.506993 143.225922 
L 149.913462 143.600586 
L 150.726399 136.107306 
L 151.539336 143.225922 
L 151.945804 137.980626 
L 152.352273 135.451644 
L 152.758741 130.955676 
L 153.16521 131.986002 
L 153.978147 129.831684 
L 154.384615 127.396368 
L 154.791084 129.363354 
L 155.197552 129.082356 
L 155.604021 130.112682 
L 156.01049 126.834372 
L 156.416958 128.05203 
L 157.229895 120.652416 
L 157.636364 121.214412 
L 158.042832 119.434758 
L 158.449301 119.434758 
L 158.855769 118.966428 
L 159.262238 122.525736 
L 159.668706 118.498098 
L 160.075175 117.186774 
L 160.481643 113.627466 
L 161.29458 119.15376 
L 161.701049 117.467772 
L 162.107517 112.035144 
L 162.513986 113.5338 
L 162.920455 113.5338 
L 163.326923 112.878138 
L 163.733392 114.00213 
L 164.13986 113.5338 
L 164.546329 108.944166 
L 164.952797 113.5338 
L 165.359266 113.627466 
L 165.765734 111.19215 
L 166.172203 105.665856 
L 166.578671 105.57219 
L 166.98514 106.04052 
L 167.391608 107.44551 
L 167.798077 107.632842 
L 168.204545 105.946854 
L 168.611014 104.916528 
L 169.017483 101.919216 
L 169.423951 104.448198 
L 169.83042 105.478524 
L 170.236888 102.855876 
L 170.643357 106.04052 
L 171.049825 102.76221 
L 171.456294 104.448198 
L 171.862762 101.263554 
L 172.269231 101.169888 
L 172.675699 104.260866 
L 173.082168 101.82555 
L 173.895105 98.921904 
L 174.301573 96.392922 
L 174.708042 97.985244 
L 175.520979 93.489276 
L 175.927448 98.359908 
L 176.333916 93.39561 
L 176.740385 92.084286 
L 177.553322 96.861252 
L 177.95979 96.954918 
L 178.366259 91.99062 
L 178.772727 94.987932 
L 179.179196 93.39561 
L 179.585664 94.894266 
L 179.992133 93.020946 
L 180.398601 92.739948 
L 180.80507 94.144938 
L 181.211538 90.866628 
L 181.618007 93.39561 
L 182.024476 93.208278 
L 182.430944 92.45895 
L 182.837413 89.18064 
L 183.243881 88.150314 
L 183.65035 91.803288 
L 184.056818 91.05396 
L 184.463287 95.549928 
L 184.869755 93.770274 
L 185.276224 88.805976 
L 185.682692 89.367972 
L 186.089161 88.805976 
L 186.495629 89.18064 
L 186.902098 90.1173 
L 187.308566 88.431312 
L 187.715035 90.866628 
L 188.121503 86.464326 
L 188.527972 88.431312 
L 188.934441 86.83899 
L 189.340909 84.216342 
L 189.747378 87.962982 
L 190.153846 86.932656 
L 190.560315 85.153002 
L 190.966783 86.183328 
L 191.77972 84.49734 
L 192.186189 81.968358 
L 192.592657 88.056648 
L 192.999126 84.96567 
L 193.405594 88.618644 
L 193.812063 82.811352 
L 194.218531 86.745324 
L 194.625 84.591006 
L 195.031469 87.026322 
L 195.844406 82.15569 
L 196.250874 84.310008 
L 196.657343 84.216342 
L 197.063811 80.469702 
L 197.47028 83.373348 
L 197.876748 84.122676 
L 198.283217 79.439376 
L 198.689685 78.596382 
L 199.096154 82.62402 
L 199.502622 84.02901 
L 199.909091 80.563368 
L 200.315559 79.81404 
L 200.722028 83.467014 
L 201.128497 83.279682 
L 201.534965 78.87738 
L 202.347902 84.684672 
L 202.754371 79.626708 
L 203.160839 80.7507 
L 203.567308 83.841678 
L 203.973776 81.21903 
L 204.380245 80.188704 
L 204.786713 78.40905 
L 205.193182 79.064712 
L 205.59965 80.938032 
L 206.006119 77.191392 
L 206.412587 80.7507 
L 206.819056 78.971046 
L 207.225524 82.15569 
L 207.631993 79.34571 
L 208.038462 81.593694 
L 208.44493 79.34571 
L 208.851399 80.657034 
L 209.257867 80.376036 
L 209.664336 78.596382 
L 210.070804 78.971046 
L 210.477273 78.502716 
L 210.883741 79.533042 
L 211.29021 79.533042 
L 211.696678 81.781026 
L 212.103147 77.659722 
L 212.509615 81.500028 
L 212.916084 79.81404 
L 213.322552 77.285058 
L 213.729021 80.188704 
L 214.13549 78.221718 
L 214.541958 75.224406 
L 214.948427 80.28237 
L 215.354895 77.94072 
L 215.761364 77.659722 
L 216.167832 79.81404 
L 216.574301 80.563368 
L 216.980769 75.692736 
L 217.387238 80.188704 
L 217.793706 76.816728 
L 218.200175 76.0674 
L 218.606643 76.629396 
L 219.013112 80.001372 
L 219.41958 77.097726 
L 219.826049 77.191392 
L 220.232517 76.910394 
L 220.638986 74.381412 
L 221.045455 78.034386 
L 221.451923 77.191392 
L 221.858392 79.064712 
L 222.26486 77.191392 
L 222.671329 77.00406 
L 223.077797 75.973734 
L 223.484266 75.411738 
L 223.890734 76.348398 
L 224.297203 73.25742 
L 224.703671 78.40905 
L 225.11014 79.533042 
L 225.516608 77.378724 
L 225.923077 76.629396 
L 226.329545 78.596382 
L 226.736014 75.692736 
L 227.142483 71.946096 
L 227.548951 75.224406 
L 228.361888 74.756076 
L 228.768357 72.882756 
L 229.174825 74.849742 
L 229.581294 73.72575 
L 229.987762 75.692736 
L 230.394231 75.692736 
L 230.800699 77.94072 
L 231.207168 76.816728 
L 231.613636 74.568744 
L 232.020105 73.163754 
L 232.426573 79.439376 
L 232.833042 78.40905 
L 233.23951 74.849742 
L 233.645979 78.971046 
L 234.052448 77.847054 
L 234.458916 76.0674 
L 235.271853 74.006748 
L 235.678322 73.913082 
L 236.08479 71.477766 
L 236.491259 73.444752 
L 236.897727 75.973734 
L 237.304196 72.508092 
L 237.710664 75.505404 
L 238.117133 73.72575 
L 238.523601 75.505404 
L 238.93007 71.85243 
L 239.336538 74.756076 
L 239.743007 72.32076 
L 240.149476 77.753388 
L 240.555944 74.19408 
L 240.962413 74.475078 
L 241.368881 71.477766 
L 241.77535 72.227094 
L 242.181818 72.32076 
L 242.994755 71.196768 
L 243.401224 71.571432 
L 243.807692 74.756076 
L 244.214161 70.541106 
L 244.620629 72.508092 
L 245.027098 71.3841 
L 245.433566 73.070088 
L 245.840035 68.948784 
L 246.246503 72.508092 
L 246.652972 73.72575 
L 247.059441 71.946096 
L 247.465909 72.976422 
L 247.872378 74.381412 
L 248.278846 73.819416 
L 248.685315 71.3841 
L 249.091783 77.097726 
L 249.498252 73.444752 
L 249.90472 72.508092 
L 250.311189 75.59907 
L 250.717657 74.66241 
L 251.124126 72.508092 
L 251.530594 73.913082 
L 251.937063 74.568744 
L 252.343531 74.100414 
L 252.75 74.100414 
L 253.156469 70.91577 
L 253.562937 71.946096 
L 253.969406 71.103102 
L 254.375874 74.381412 
L 254.782343 70.634772 
L 255.188811 70.634772 
L 255.59528 75.13074 
L 256.001748 70.541106 
L 256.408217 73.25742 
L 256.814685 73.25742 
L 257.221154 72.601758 
L 257.627622 71.290434 
L 258.034091 71.3841 
L 258.440559 72.32076 
L 258.847028 71.009436 
L 259.253497 71.3841 
L 259.659965 69.51078 
L 260.066434 71.196768 
L 260.472902 71.665098 
L 260.879371 71.477766 
L 261.285839 73.070088 
L 261.692308 71.3841 
L 262.098776 70.353774 
L 262.505245 70.541106 
L 263.318182 68.012124 
L 263.72465 69.97911 
L 264.131119 70.541106 
L 264.537587 69.97911 
L 264.944056 71.290434 
L 265.350524 70.634772 
L 265.756993 71.3841 
L 266.163462 70.822104 
L 266.56993 70.91577 
L 266.976399 69.885444 
L 267.382867 69.97911 
L 268.195804 72.133428 
L 268.602273 72.414426 
L 269.008741 74.006748 
L 269.41521 69.04245 
L 269.821678 69.885444 
L 270.228147 72.32076 
L 270.634615 69.604446 
L 271.041084 70.91577 
L 271.447552 70.728438 
L 271.854021 72.78909 
L 272.26049 69.229782 
L 272.666958 71.477766 
L 273.073427 72.227094 
L 273.479895 70.353774 
L 273.886364 67.16913 
L 274.292832 68.667786 
L 274.699301 67.824792 
L 275.105769 72.78909 
L 275.512238 72.78909 
L 275.918706 68.948784 
L 276.325175 70.541106 
L 276.731643 69.136116 
L 277.138112 69.04245 
L 277.54458 70.166442 
L 277.951049 68.480454 
L 278.357517 69.698112 
L 278.763986 69.791778 
L 279.170455 73.163754 
L 279.576923 69.229782 
L 279.983392 70.541106 
L 280.38986 69.97911 
L 280.796329 70.260108 
L 281.202797 71.477766 
L 281.609266 68.386788 
L 282.015734 68.948784 
L 282.828671 68.10579 
L 283.23514 70.44744 
L 283.641608 67.450128 
L 284.048077 71.290434 
L 284.454545 71.103102 
L 284.861014 69.323448 
L 285.267483 72.227094 
L 285.673951 72.414426 
L 286.08042 74.66241 
L 286.486888 70.353774 
L 286.893357 71.571432 
L 287.299825 71.196768 
L 287.706294 69.885444 
L 288.112762 70.353774 
L 288.925699 72.133428 
L 289.332168 69.04245 
L 289.738636 68.386788 
L 290.145105 67.262796 
L 290.551573 66.7008 
L 290.958042 67.63746 
L 291.36451 70.728438 
L 291.770979 67.450128 
L 292.583916 69.323448 
L 292.990385 66.326136 
L 293.396853 69.51078 
L 293.803322 69.136116 
L 294.20979 72.508092 
L 294.616259 70.260108 
L 295.022727 66.045138 
L 295.429196 70.541106 
L 295.835664 67.918458 
L 296.242133 71.758764 
L 296.648601 68.667786 
L 297.05507 69.97911 
L 297.461538 68.761452 
L 297.868007 68.386788 
L 298.274476 69.136116 
L 298.680944 71.290434 
L 299.087413 65.670473 
L 299.493881 66.981798 
L 299.90035 67.731126 
L 300.306818 69.791778 
L 300.713287 69.885444 
L 301.119755 71.196768 
L 301.526224 69.791778 
L 301.932692 72.32076 
L 302.339161 67.918458 
L 302.745629 70.44744 
L 303.152098 69.417114 
L 303.558566 69.51078 
L 303.965035 67.63746 
L 304.371503 67.543794 
L 304.777972 67.918458 
L 305.184441 66.419802 
L 305.590909 68.386788 
L 305.997378 69.604446 
L 306.403846 68.293122 
L 306.810315 70.166442 
L 307.623252 65.670473 
L 308.02972 68.57412 
L 308.436189 70.166442 
L 308.842657 69.604446 
L 309.249126 67.63746 
L 309.655594 69.791778 
L 310.062063 70.166442 
L 310.468531 66.7008 
L 310.875 69.229782 
L 311.281469 66.7008 
L 311.687937 67.731126 
L 312.094406 67.16913 
L 312.500874 69.791778 
L 312.907343 70.728438 
L 313.313811 68.480454 
L 313.72028 69.136116 
L 314.533217 67.16913 
L 314.939685 69.604446 
L 315.346154 69.229782 
L 315.752622 68.386788 
L 316.159091 68.293122 
L 316.565559 66.981798 
L 316.972028 67.543794 
L 317.378497 67.16913 
L 318.191434 66.888132 
L 318.597902 70.353774 
L 319.004371 68.57412 
L 319.410839 67.63746 
L 319.817308 68.386788 
L 320.223776 67.262796 
L 320.630245 64.265483 
L 321.036713 70.541106 
L 321.443182 68.855118 
L 321.84965 69.51078 
L 322.662587 65.202143 
L 323.069056 67.63746 
L 323.475524 67.731126 
L 323.881993 71.758764 
L 324.288462 71.290434 
L 324.69493 68.012124 
L 325.101399 70.260108 
L 325.507867 70.166442 
L 325.914336 68.012124 
L 326.320804 67.63746 
L 326.727273 66.7008 
L 327.133741 69.04245 
L 327.54021 68.012124 
L 327.946678 67.450128 
L 328.353147 70.260108 
L 328.759615 66.794466 
L 329.166084 68.480454 
L 329.572552 66.981798 
L 329.979021 68.293122 
L 330.38549 68.199456 
L 330.791958 67.262796 
L 331.198427 67.356462 
L 331.604895 64.640147 
L 332.011364 67.731126 
L 332.417832 65.295809 
L 332.824301 65.857806 
L 333.230769 67.075464 
L 333.637238 67.918458 
L 334.043706 66.138804 
L 334.450175 68.012124 
L 334.856643 67.450128 
L 335.263112 68.761452 
L 335.66958 65.295809 
L 336.076049 68.10579 
L 336.482517 68.948784 
L 336.888986 65.483141 
L 337.295455 65.014811 
L 337.701923 66.888132 
L 338.108392 67.356462 
L 338.51486 64.827479 
L 338.921329 66.794466 
L 339.327797 66.045138 
L 339.734266 68.10579 
L 340.140734 65.014811 
L 340.547203 70.91577 
L 340.953671 69.417114 
L 341.36014 69.604446 
L 341.766608 70.072776 
L 342.173077 67.731126 
L 342.579545 68.199456 
L 342.986014 67.262796 
L 343.392483 68.012124 
L 343.798951 64.640147 
L 344.20542 65.576807 
L 344.611888 64.640147 
L 345.018357 65.576807 
L 345.424825 68.10579 
L 345.831294 66.888132 
L 346.237762 66.419802 
L 346.644231 68.761452 
L 347.050699 67.731126 
L 347.457168 67.356462 
L 347.863636 66.045138 
L 348.270105 65.295809 
L 348.676573 69.51078 
L 349.083042 63.890819 
L 349.48951 67.262796 
L 349.895979 65.576807 
L 350.302448 68.293122 
L 350.708916 67.262796 
L 351.115385 65.764139 
L 351.521853 65.576807 
L 351.928322 66.045138 
L 352.33479 67.262796 
L 352.741259 66.7008 
L 353.147727 64.733813 
L 353.554196 64.359149 
L 353.960664 70.260108 
L 354.367133 69.51078 
L 354.773601 64.733813 
L 355.18007 66.981798 
L 355.586538 61.642835 
L 355.993007 67.918458 
L 356.399476 64.733813 
L 356.805944 70.728438 
L 357.212413 67.262796 
L 357.618881 68.386788 
L 358.02535 64.265483 
L 358.431818 64.921145 
L 358.838287 68.012124 
L 359.244755 66.326136 
L 359.651224 66.607134 
L 360.057692 65.389475 
L 360.464161 62.017499 
L 360.870629 66.888132 
L 361.277098 66.419802 
L 361.683566 66.794466 
L 362.090035 65.764139 
L 362.496503 62.298497 
L 362.902972 65.295809 
L 363.309441 67.075464 
L 363.715909 62.111165 
L 364.122378 63.984485 
L 364.528846 66.513468 
L 364.935315 64.733813 
L 365.341783 62.298497 
L 365.748252 61.830167 
L 366.15472 65.576807 
L 366.561189 67.075464 
L 366.967657 65.202143 
L 367.374126 68.10579 
L 367.780594 63.984485 
L 368.187063 66.607134 
L 368.593531 66.981798 
L 369 64.359149 
L 369.406469 67.543794 
L 369.812937 65.857806 
L 370.219406 66.138804 
L 370.625874 65.857806 
L 371.032343 65.951472 
L 371.438811 65.108477 
L 371.84528 63.235157 
L 372.251748 66.419802 
L 372.658217 64.546481 
L 373.064685 63.328823 
L 373.471154 63.047825 
L 373.877622 66.23247 
L 374.284091 64.733813 
L 374.690559 67.824792 
L 375.097028 64.546481 
L 375.503497 67.075464 
L 376.316434 64.827479 
L 376.722902 66.981798 
L 377.129371 67.262796 
L 377.535839 66.045138 
L 377.942308 63.516155 
L 378.348776 66.419802 
L 378.755245 65.483141 
L 379.568182 62.204831 
L 379.97465 65.295809 
L 380.381119 64.265483 
L 380.787587 65.202143 
L 381.194056 67.075464 
L 381.600524 66.888132 
L 382.006993 65.202143 
L 382.413462 65.576807 
L 382.81993 62.766827 
L 383.226399 63.516155 
L 383.632867 62.204831 
L 384.039336 66.981798 
L 384.445804 65.951472 
L 384.852273 61.455503 
L 385.258741 65.108477 
L 385.66521 63.328823 
L 386.071678 63.328823 
L 386.478147 66.326136 
L 386.884615 65.389475 
L 387.291084 68.293122 
L 387.697552 63.703487 
L 388.104021 62.673161 
L 388.51049 63.516155 
L 388.916958 63.703487 
L 389.323427 65.483141 
L 389.729895 66.23247 
L 390.136364 63.984485 
L 390.542832 60.893507 
L 390.949301 64.171817 
L 391.355769 63.328823 
L 391.762238 66.419802 
L 392.168706 64.733813 
L 392.575175 68.293122 
L 392.981643 64.452815 
L 393.388112 63.422489 
L 393.79458 65.202143 
L 394.201049 64.827479 
L 394.607517 66.419802 
L 395.013986 64.546481 
L 395.420455 66.794466 
L 395.826923 65.202143 
L 396.233392 66.419802 
L 396.63986 63.235157 
L 397.046329 67.262796 
L 397.452797 64.640147 
L 397.859266 64.921145 
L 398.265734 65.857806 
L 398.672203 67.63746 
L 399.078671 66.981798 
L 399.48514 63.047825 
L 399.891608 67.16913 
L 400.298077 62.017499 
L 400.704545 63.328823 
L 401.111014 66.607134 
L 401.517483 63.797153 
L 401.923951 65.857806 
L 402.33042 65.202143 
L 402.736888 65.108477 
L 403.143357 66.513468 
L 403.549825 66.138804 
L 403.956294 66.326136 
L 404.362762 64.640147 
L 404.769231 65.389475 
L 405.175699 65.389475 
L 405.582168 63.703487 
L 405.988636 64.265483 
L 406.395105 65.857806 
L 406.801573 68.10579 
L 407.208042 63.797153 
L 407.61451 65.389475 
L 408.020979 61.455503 
L 408.427448 65.108477 
L 408.833916 64.733813 
L 409.240385 65.764139 
L 409.646853 67.16913 
L 410.45979 60.799841 
L 410.866259 63.890819 
L 411.272727 65.295809 
L 411.679196 66.138804 
L 412.085664 63.890819 
L 412.492133 63.609821 
L 412.898601 63.516155 
L 413.30507 61.923833 
L 413.711538 64.171817 
L 414.118007 61.080839 
L 414.524476 66.607134 
L 414.930944 65.670473 
L 415.337413 65.295809 
L 415.743881 62.579495 
L 416.15035 62.673161 
L 416.556818 65.014811 
L 416.963287 63.609821 
L 417.369755 64.359149 
L 417.776224 62.485829 
L 418.182692 58.832855 
L 418.589161 66.419802 
L 418.995629 63.984485 
L 419.402098 63.890819 
L 419.808566 65.389475 
L 420.215035 65.014811 
L 420.621503 65.389475 
L 421.027972 62.485829 
L 421.434441 64.546481 
L 422.653846 64.733813 
L 423.060315 63.703487 
L 423.466783 64.546481 
L 423.873252 64.171817 
L 424.686189 65.857806 
L 425.092657 67.16913 
L 425.499126 63.797153 
L 425.905594 67.16913 
L 426.312063 64.265483 
L 426.718531 65.951472 
L 427.125 63.797153 
L 427.531469 64.265483 
L 427.937937 65.576807 
L 428.344406 65.202143 
L 429.157343 63.516155 
L 429.563811 64.921145 
L 429.97028 67.63746 
L 430.376748 66.138804 
L 430.783217 67.262796 
L 431.596154 65.483141 
L 432.002622 68.761452 
L 432.409091 67.918458 
L 432.815559 63.797153 
L 433.628497 64.640147 
L 434.034965 66.419802 
L 434.441434 65.295809 
L 435.254371 61.268171 
L 435.660839 64.359149 
L 436.067308 65.108477 
L 436.473776 63.516155 
L 436.880245 61.268171 
L 437.286713 64.733813 
L 437.693182 66.326136 
L 438.09965 62.017499 
L 438.506119 64.546481 
L 438.912587 65.576807 
L 439.319056 64.640147 
L 439.725524 64.827479 
L 440.131993 64.733813 
L 440.94493 63.235157 
L 441.351399 63.235157 
L 441.757867 61.736501 
L 442.164336 61.642835 
L 442.570804 65.576807 
L 442.977273 66.138804 
L 443.383741 63.141491 
L 443.79021 65.576807 
L 444.603147 65.108477 
L 445.009615 63.422489 
L 445.416084 65.014811 
L 445.822552 63.609821 
L 446.229021 63.890819 
L 446.63549 60.518843 
L 447.041958 62.766827 
L 447.854895 65.670473 
L 448.261364 63.797153 
L 448.667832 64.452815 
L 449.074301 61.923833 
L 449.480769 64.921145 
L 449.887238 65.389475 
L 450.293706 63.984485 
L 450.700175 66.419802 
L 451.106643 65.857806 
L 451.91958 60.987173 
L 452.326049 64.921145 
L 452.732517 63.422489 
L 453.138986 64.733813 
L 453.545455 63.703487 
L 454.358392 64.733813 
L 454.76486 64.921145 
L 455.171329 67.262796 
L 455.577797 64.171817 
L 455.984266 65.670473 
L 456.390734 62.766827 
L 456.797203 64.078151 
L 457.203671 60.706175 
L 457.61014 65.014811 
L 458.016608 63.328823 
L 458.423077 60.425177 
L 458.829545 62.673161 
L 459.236014 63.890819 
L 459.642483 61.923833 
L 460.048951 63.984485 
L 460.45542 60.237845 
L 460.861888 61.642835 
L 461.268357 60.987173 
L 461.674825 63.235157 
L 462.081294 63.141491 
L 462.894231 65.389475 
L 463.300699 65.295809 
L 463.707168 64.265483 
L 464.113636 61.174505 
L 464.520105 65.389475 
L 464.926573 64.078151 
L 465.333042 66.7008 
L 465.73951 67.262796 
L 466.145979 63.235157 
L 466.552448 66.045138 
L 466.958916 65.108477 
L 467.365385 64.546481 
L 467.771853 62.766827 
L 468.58479 64.640147 
L 468.991259 63.984485 
L 469.397727 62.673161 
L 469.804196 65.108477 
L 470.210664 66.419802 
L 470.617133 64.827479 
L 471.023601 61.736501 
L 471.43007 64.452815 
L 471.836538 63.328823 
L 472.243007 62.954159 
L 472.649476 61.361837 
L 473.055944 62.204831 
L 473.462413 65.483141 
L 473.868881 61.174505 
L 474.27535 64.733813 
L 474.681818 63.703487 
L 475.088287 61.642835 
L 475.901224 63.328823 
L 476.307692 65.108477 
L 476.714161 62.766827 
L 477.120629 62.017499 
L 477.527098 62.204831 
L 477.933566 61.455503 
L 478.340035 62.579495 
L 478.746503 62.766827 
L 479.152972 61.174505 
L 479.559441 65.014811 
L 479.965909 61.455503 
L 480.372378 61.830167 
L 480.778846 65.857806 
L 481.185315 63.235157 
L 481.591783 65.670473 
L 481.998252 63.047825 
L 482.40472 59.582183 
L 482.811189 63.890819 
L 483.217657 63.984485 
L 483.624126 60.799841 
L 484.030594 63.609821 
L 484.437063 64.359149 
L 484.843531 67.075464 
L 485.25 67.16913 
L 485.656469 63.797153 
L 486.062937 64.546481 
L 486.469406 63.703487 
L 486.875874 64.078151 
L 487.282343 65.951472 
L 487.688811 66.607134 
L 488.09528 64.359149 
L 488.501748 63.984485 
L 488.908217 62.017499 
L 489.314685 64.078151 
L 489.721154 64.733813 
L 490.127622 65.108477 
L 490.940559 61.830167 
L 491.753497 63.890819 
L 492.159965 61.549169 
L 492.972902 64.546481 
L 493.379371 63.703487 
L 493.785839 62.392163 
L 494.192308 66.326136 
L 494.598776 64.733813 
L 495.005245 61.080839 
L 495.411713 60.893507 
L 495.818182 64.171817 
L 496.22465 63.516155 
L 496.631119 63.703487 
L 497.037587 64.171817 
L 497.444056 63.609821 
L 497.850524 66.23247 
L 498.256993 63.235157 
L 498.663462 66.7008 
L 499.06993 61.455503 
L 499.476399 63.235157 
L 499.882867 66.23247 
L 500.289336 65.857806 
L 500.695804 63.328823 
L 501.102273 65.764139 
L 501.508741 61.642835 
L 501.91521 62.579495 
L 502.321678 64.921145 
L 502.728147 63.235157 
L 503.134615 63.984485 
L 503.541084 65.951472 
L 503.947552 64.359149 
L 504.354021 63.797153 
L 504.76049 62.766827 
L 505.166958 64.078151 
L 505.573427 62.111165 
L 505.979895 62.017499 
L 506.386364 61.642835 
L 506.792832 64.452815 
L 507.199301 63.328823 
L 507.605769 65.389475 
L 508.012238 62.579495 
L 508.418706 64.171817 
L 508.825175 60.144179 
L 509.231643 60.425177 
L 509.638112 61.455503 
L 510.04458 63.516155 
L 510.451049 62.579495 
L 510.857517 62.017499 
L 511.263986 65.014811 
L 511.670455 62.766827 
L 512.483392 65.389475 
L 512.88986 65.108477 
L 513.296329 64.640147 
L 513.702797 62.111165 
L 514.109266 58.458191 
L 514.515734 65.670473 
L 514.922203 65.764139 
L 515.328671 63.235157 
L 515.73514 61.455503 
L 516.141608 63.235157 
L 516.548077 63.609821 
L 516.954545 61.736501 
L 517.767483 64.265483 
L 518.173951 62.111165 
L 518.58042 62.954159 
L 519.393357 63.141491 
L 519.799825 64.078151 
L 520.206294 61.080839 
L 520.612762 64.171817 
L 521.019231 61.549169 
L 521.425699 63.235157 
L 521.832168 64.078151 
L 522.238636 60.612509 
L 522.645105 62.017499 
L 523.051573 63.890819 
L 523.458042 61.455503 
L 523.86451 61.268171 
L 524.270979 65.295809 
L 524.677448 63.235157 
L 525.083916 62.485829 
L 525.490385 65.108477 
L 525.896853 66.7008 
L 526.303322 62.954159 
L 526.70979 64.733813 
L 527.116259 65.108477 
L 527.522727 61.736501 
L 527.929196 64.265483 
L 528.335664 63.703487 
L 528.742133 64.078151 
L 529.148601 62.485829 
L 529.55507 63.235157 
L 529.961538 64.452815 
L 530.774476 62.579495 
L 531.587413 64.265483 
L 531.993881 62.298497 
L 532.806818 65.108477 
L 533.213287 62.673161 
L 533.619755 67.63746 
L 534.026224 62.860493 
L 534.432692 61.736501 
L 534.839161 64.078151 
L 535.245629 62.392163 
L 535.652098 63.609821 
L 536.058566 63.328823 
L 536.465035 62.579495 
L 536.871503 62.579495 
L 537.277972 63.328823 
L 537.684441 62.204831 
L 538.090909 62.860493 
L 538.497378 62.673161 
L 538.903846 58.364525 
L 539.716783 63.890819 
L 540.123252 68.57412 
L 540.52972 62.766827 
L 540.936189 63.235157 
L 541.342657 67.075464 
L 541.749126 62.766827 
L 542.155594 62.860493 
L 542.562063 63.984485 
L 542.968531 63.141491 
L 543.375 63.890819 
L 543.781469 58.645523 
L 544.187937 63.141491 
L 544.594406 62.954159 
L 545.000874 63.328823 
L 545.407343 61.736501 
L 545.813811 62.204831 
L 546.22028 64.359149 
L 546.626748 64.078151 
L 547.033217 65.670473 
L 547.439685 64.733813 
L 547.846154 61.736501 
L 548.252622 65.389475 
L 549.065559 62.766827 
L 549.472028 63.141491 
L 549.878497 63.328823 
L 550.284965 64.359149 
L 550.691434 64.827479 
L 551.097902 61.455503 
L 551.504371 64.171817 
L 551.910839 62.766827 
L 552.317308 65.014811 
L 552.723776 64.452815 
L 553.130245 64.733813 
L 553.536713 61.736501 
L 553.943182 61.268171 
L 554.34965 66.23247 
L 554.756119 63.797153 
L 555.162587 62.954159 
L 555.569056 66.045138 
L 555.975524 61.549169 
L 556.381993 63.235157 
L 556.788462 65.483141 
L 557.19493 62.860493 
L 557.601399 63.984485 
L 558.007867 61.736501 
L 558.414336 65.951472 
L 558.820804 63.422489 
L 559.227273 62.017499 
L 559.633741 62.111165 
L 560.04021 61.830167 
L 560.446678 64.546481 
L 560.853147 62.766827 
L 561.259615 62.392163 
L 561.666084 62.204831 
L 562.072552 62.485829 
L 563.291958 66.326136 
L 563.698427 62.111165 
L 564.104895 63.984485 
L 564.511364 61.174505 
L 564.917832 63.422489 
L 565.324301 63.235157 
L 565.730769 62.579495 
L 566.137238 63.235157 
L 566.543706 62.392163 
L 566.950175 64.640147 
L 567.356643 67.543794 
L 567.763112 60.987173 
L 568.16958 65.295809 
L 568.576049 60.893507 
L 568.982517 62.392163 
L 569.388986 62.673161 
L 570.201923 60.987173 
L 570.608392 65.857806 
L 571.01486 62.579495 
L 571.421329 61.923833 
L 571.827797 62.392163 
L 572.234266 63.328823 
L 572.640734 65.295809 
L 573.047203 60.706175 
L 573.453671 63.141491 
L 573.86014 61.549169 
L 574.266608 63.141491 
L 574.673077 61.736501 
L 575.079545 62.579495 
L 575.486014 61.736501 
L 575.892483 59.488517 
L 576.298951 61.174505 
L 576.70542 61.830167 
L 577.111888 60.987173 
L 577.518357 62.485829 
L 577.924825 61.361837 
L 578.331294 62.485829 
L 578.737762 62.673161 
L 579.144231 60.425177 
L 579.550699 62.111165 
L 579.957168 62.673161 
L 580.363636 61.830167 
L 580.770105 64.078151 
L 581.176573 63.047825 
L 581.583042 63.516155 
L 581.98951 60.612509 
L 582.395979 62.204831 
L 582.802448 61.080839 
L 583.208916 62.860493 
L 583.615385 63.609821 
L 584.021853 58.926521 
L 584.428322 61.080839 
L 584.83479 64.452815 
L 585.241259 62.579495 
L 585.647727 62.017499 
L 586.054196 63.141491 
L 586.460664 60.893507 
L 586.867133 63.047825 
L 587.273601 59.582183 
L 587.68007 62.954159 
L 588.086538 64.078151 
L 588.493007 63.797153 
L 588.899476 62.579495 
L 589.305944 62.392163 
L 589.712413 66.138804 
L 590.118881 62.111165 
L 590.52535 64.827479 
L 590.931818 63.890819 
L 591.338287 63.516155 
L 591.744755 63.609821 
L 592.151224 61.642835 
L 592.557692 60.237845 
L 592.964161 60.893507 
L 593.370629 60.518843 
L 593.777098 60.612509 
L 594.183566 62.204831 
L 594.590035 61.923833 
L 594.996503 61.174505 
L 595.402972 61.174505 
L 595.809441 59.488517 
L 596.622378 65.108477 
L 597.028846 64.921145 
L 597.435315 63.797153 
L 597.841783 63.703487 
L 598.248252 62.860493 
L 598.65472 59.956847 
L 599.061189 59.956847 
L 599.467657 62.673161 
L 599.874126 61.361837 
L 600.280594 64.546481 
L 600.687063 60.987173 
L 601.093531 64.265483 
L 601.5 61.361837 
L 601.906469 61.549169 
L 602.312937 60.612509 
L 602.719406 63.235157 
L 603.125874 63.890819 
L 603.532343 63.797153 
L 603.938811 63.516155 
L 604.34528 61.642835 
L 604.751748 62.766827 
L 605.158217 61.549169 
L 605.564685 60.987173 
L 605.971154 62.111165 
L 606.377622 60.799841 
L 606.784091 59.956847 
L 607.190559 64.171817 
L 607.597028 63.235157 
L 608.003497 63.422489 
L 608.409965 61.455503 
L 608.816434 63.516155 
L 609.222902 61.268171 
L 609.629371 60.893507 
L 610.035839 61.361837 
L 610.442308 62.485829 
L 610.848776 63.141491 
L 611.255245 62.579495 
L 611.661713 61.736501 
L 612.068182 62.204831 
L 612.47465 64.921145 
L 612.881119 62.017499 
L 613.694056 61.923833 
L 614.100524 62.017499 
L 614.506993 62.579495 
L 614.913462 64.265483 
L 615.726399 60.799841 
L 616.132867 62.673161 
L 616.539336 62.860493 
L 616.945804 60.612509 
L 617.352273 61.549169 
L 617.758741 60.893507 
L 618.16521 61.361837 
L 618.571678 60.799841 
L 618.978147 63.703487 
L 619.384615 60.612509 
L 619.791084 62.298497 
L 620.197552 62.673161 
L 620.604021 63.235157 
L 621.01049 63.235157 
L 621.416958 62.392163 
L 621.823427 60.331511 
L 622.229895 64.546481 
L 622.636364 61.923833 
L 622.636364 61.923833 
" style="fill:none;stroke:#ff7f0e;stroke-linecap:square;stroke-width:0.5;"/>
   </g>
   <g id="patch_3">
    <path d="M 90 315 
L 90 43.2 
" style="fill:none;stroke:#000000;stroke-linecap:square;stroke-linejoin:miter;stroke-width:0.8;"/>
   </g>
   <g id="patch_4">
    <path d="M 648 315 
L 648 43.2 
" style="fill:none;stroke:#000000;stroke-linecap:square;stroke-linejoin:miter;stroke-width:0.8;"/>
   </g>
   <g id="patch_5">
    <path d="M 90 315 
L 648 315 
" style="fill:none;stroke:#000000;stroke-linecap:square;stroke-linejoin:miter;stroke-width:0.8;"/>
   </g>
   <g id="patch_6">
    <path d="M 90 43.2 
L 648 43.2 
" style="fill:none;stroke:#000000;stroke-linecap:square;stroke-linejoin:miter;stroke-width:0.8;"/>
   </g>
   <g id="text_17">
    <!-- accuracy -->
    <g transform="translate(341.92875 37.2)scale(0.12 -0.12)">
     <use xlink:href="#DejaVuSans-97"/>
     <use x="61.279297" xlink:href="#DejaVuSans-99"/>
     <use x="116.259766" xlink:href="#DejaVuSans-99"/>
     <use x="171.240234" xlink:href="#DejaVuSans-117"/>
     <use x="234.619141" xlink:href="#DejaVuSans-114"/>
     <use x="275.732422" xlink:href="#DejaVuSans-97"/>
     <use x="337.011719" xlink:href="#DejaVuSans-99"/>
     <use x="391.992188" xlink:href="#DejaVuSans-121"/>
    </g>
   </g>
   <g id="legend_1">
    <g id="patch_7">
     <path d="M 97 80.55625 
L 169.153125 80.55625 
Q 171.153125 80.55625 171.153125 78.55625 
L 171.153125 50.2 
Q 171.153125 48.2 169.153125 48.2 
L 97 48.2 
Q 95 48.2 95 50.2 
L 95 78.55625 
Q 95 80.55625 97 80.55625 
z
" style="fill:#ffffff;opacity:0.8;stroke:#cccccc;stroke-linejoin:miter;"/>
    </g>
    <g id="line2d_31">
     <path d="M 99 56.298437 
L 119 56.298437 
" style="fill:none;stroke:#1f77b4;stroke-linecap:square;stroke-width:0.5;"/>
    </g>
    <g id="line2d_32"/>
    <g id="text_18">
     <!-- train -->
     <defs>
      <path d="M 18.3125 70.21875 
L 18.3125 54.6875 
L 36.8125 54.6875 
L 36.8125 47.703125 
L 18.3125 47.703125 
L 18.3125 18.015625 
Q 18.3125 11.328125 20.140625 9.421875 
Q 21.96875 7.515625 27.59375 7.515625 
L 36.8125 7.515625 
L 36.8125 0 
L 27.59375 0 
Q 17.1875 0 13.234375 3.875 
Q 9.28125 7.765625 9.28125 18.015625 
L 9.28125 47.703125 
L 2.6875 47.703125 
L 2.6875 54.6875 
L 9.28125 54.6875 
L 9.28125 70.21875 
z
" id="DejaVuSans-116"/>
      <path d="M 9.421875 54.6875 
L 18.40625 54.6875 
L 18.40625 0 
L 9.421875 0 
z
M 9.421875 75.984375 
L 18.40625 75.984375 
L 18.40625 64.59375 
L 9.421875 64.59375 
z
" id="DejaVuSans-105"/>
      <path d="M 54.890625 33.015625 
L 54.890625 0 
L 45.90625 0 
L 45.90625 32.71875 
Q 45.90625 40.484375 42.875 44.328125 
Q 39.84375 48.1875 33.796875 48.1875 
Q 26.515625 48.1875 22.3125 43.546875 
Q 18.109375 38.921875 18.109375 30.90625 
L 18.109375 0 
L 9.078125 0 
L 9.078125 54.6875 
L 18.109375 54.6875 
L 18.109375 46.1875 
Q 21.34375 51.125 25.703125 53.5625 
Q 30.078125 56 35.796875 56 
Q 45.21875 56 50.046875 50.171875 
Q 54.890625 44.34375 54.890625 33.015625 
z
" id="DejaVuSans-110"/>
     </defs>
     <g transform="translate(127 59.798437)scale(0.1 -0.1)">
      <use xlink:href="#DejaVuSans-116"/>
      <use x="39.208984" xlink:href="#DejaVuSans-114"/>
      <use x="80.322266" xlink:href="#DejaVuSans-97"/>
      <use x="141.601562" xlink:href="#DejaVuSans-105"/>
      <use x="169.384766" xlink:href="#DejaVuSans-110"/>
     </g>
    </g>
    <g id="line2d_33">
     <path d="M 99 70.976562 
L 119 70.976562 
" style="fill:none;stroke:#ff7f0e;stroke-linecap:square;stroke-width:0.5;"/>
    </g>
    <g id="line2d_34"/>
    <g id="text_19">
     <!-- validate -->
     <defs>
      <path d="M 2.984375 54.6875 
L 12.5 54.6875 
L 29.59375 8.796875 
L 46.6875 54.6875 
L 56.203125 54.6875 
L 35.6875 0 
L 23.484375 0 
z
" id="DejaVuSans-118"/>
      <path d="M 9.421875 75.984375 
L 18.40625 75.984375 
L 18.40625 0 
L 9.421875 0 
z
" id="DejaVuSans-108"/>
      <path d="M 45.40625 46.390625 
L 45.40625 75.984375 
L 54.390625 75.984375 
L 54.390625 0 
L 45.40625 0 
L 45.40625 8.203125 
Q 42.578125 3.328125 38.25 0.953125 
Q 33.9375 -1.421875 27.875 -1.421875 
Q 17.96875 -1.421875 11.734375 6.484375 
Q 5.515625 14.40625 5.515625 27.296875 
Q 5.515625 40.1875 11.734375 48.09375 
Q 17.96875 56 27.875 56 
Q 33.9375 56 38.25 53.625 
Q 42.578125 51.265625 45.40625 46.390625 
z
M 14.796875 27.296875 
Q 14.796875 17.390625 18.875 11.75 
Q 22.953125 6.109375 30.078125 6.109375 
Q 37.203125 6.109375 41.296875 11.75 
Q 45.40625 17.390625 45.40625 27.296875 
Q 45.40625 37.203125 41.296875 42.84375 
Q 37.203125 48.484375 30.078125 48.484375 
Q 22.953125 48.484375 18.875 42.84375 
Q 14.796875 37.203125 14.796875 27.296875 
z
" id="DejaVuSans-100"/>
     </defs>
     <g transform="translate(127 74.476562)scale(0.1 -0.1)">
      <use xlink:href="#DejaVuSans-118"/>
      <use x="59.179688" xlink:href="#DejaVuSans-97"/>
      <use x="120.458984" xlink:href="#DejaVuSans-108"/>
      <use x="148.242188" xlink:href="#DejaVuSans-105"/>
      <use x="176.025391" xlink:href="#DejaVuSans-100"/>
      <use x="239.501953" xlink:href="#DejaVuSans-97"/>
      <use x="300.78125" xlink:href="#DejaVuSans-116"/>
      <use x="339.990234" xlink:href="#DejaVuSans-101"/>
     </g>
    </g>
   </g>
  </g>
 </g>
 <defs>
  <clipPath id="pc67de15a74">
   <rect height="271.8" width="558" x="90" y="43.2"/>
  </clipPath>
 </defs>
</svg>
