<?xml version="1.0" encoding="utf-8" standalone="no"?>
<!DOCTYPE svg PUBLIC "-//W3C//DTD SVG 1.1//EN"
  "http://www.w3.org/Graphics/SVG/1.1/DTD/svg11.dtd">
<!-- Created with matplotlib (https://matplotlib.org/) -->
<svg height="360pt" version="1.1" viewBox="0 0 720 360" width="720pt" xmlns="http://www.w3.org/2000/svg" xmlns:xlink="http://www.w3.org/1999/xlink">
 <defs>
  <style type="text/css">
*{stroke-linecap:butt;stroke-linejoin:round;}
  </style>
 </defs>
 <g id="figure_1">
  <g id="patch_1">
   <path d="M 0 360 
L 720 360 
L 720 0 
L 0 0 
z
" style="fill:#ffffff;"/>
  </g>
  <g id="axes_1">
   <g id="patch_2">
    <path d="M 90 315 
L 648 315 
L 648 43.2 
L 90 43.2 
z
" style="fill:#ffffff;"/>
   </g>
   <g id="matplotlib.axis_1">
    <g id="xtick_1">
     <g id="line2d_1">
      <path clip-path="url(#p24fea74290)" d="M 115.363636 315 
L 115.363636 43.2 
" style="fill:none;stroke:#b0b0b0;stroke-linecap:square;stroke-width:0.8;"/>
     </g>
     <g id="line2d_2">
      <defs>
       <path d="M 0 0 
L 0 3.5 
" id="me8bd566067" style="stroke:#000000;stroke-width:0.8;"/>
      </defs>
      <g>
       <use style="stroke:#000000;stroke-width:0.8;" x="115.363636" xlink:href="#me8bd566067" y="315"/>
      </g>
     </g>
     <g id="text_1">
      <!-- 0 -->
      <defs>
       <path d="M 31.78125 66.40625 
Q 24.171875 66.40625 20.328125 58.90625 
Q 16.5 51.421875 16.5 36.375 
Q 16.5 21.390625 20.328125 13.890625 
Q 24.171875 6.390625 31.78125 6.390625 
Q 39.453125 6.390625 43.28125 13.890625 
Q 47.125 21.390625 47.125 36.375 
Q 47.125 51.421875 43.28125 58.90625 
Q 39.453125 66.40625 31.78125 66.40625 
z
M 31.78125 74.21875 
Q 44.046875 74.21875 50.515625 64.515625 
Q 56.984375 54.828125 56.984375 36.375 
Q 56.984375 17.96875 50.515625 8.265625 
Q 44.046875 -1.421875 31.78125 -1.421875 
Q 19.53125 -1.421875 13.0625 8.265625 
Q 6.59375 17.96875 6.59375 36.375 
Q 6.59375 54.828125 13.0625 64.515625 
Q 19.53125 74.21875 31.78125 74.21875 
z
" id="DejaVuSans-48"/>
      </defs>
      <g transform="translate(112.182386 329.598437)scale(0.1 -0.1)">
       <use xlink:href="#DejaVuSans-48"/>
      </g>
     </g>
    </g>
    <g id="xtick_2">
     <g id="line2d_3">
      <path clip-path="url(#p24fea74290)" d="M 200.619557 315 
L 200.619557 43.2 
" style="fill:none;stroke:#b0b0b0;stroke-linecap:square;stroke-width:0.8;"/>
     </g>
     <g id="line2d_4">
      <g>
       <use style="stroke:#000000;stroke-width:0.8;" x="200.619557" xlink:href="#me8bd566067" y="315"/>
      </g>
     </g>
     <g id="text_2">
      <!-- 200 -->
      <defs>
       <path d="M 19.1875 8.296875 
L 53.609375 8.296875 
L 53.609375 0 
L 7.328125 0 
L 7.328125 8.296875 
Q 12.9375 14.109375 22.625 23.890625 
Q 32.328125 33.6875 34.8125 36.53125 
Q 39.546875 41.84375 41.421875 45.53125 
Q 43.3125 49.21875 43.3125 52.78125 
Q 43.3125 58.59375 39.234375 62.25 
Q 35.15625 65.921875 28.609375 65.921875 
Q 23.96875 65.921875 18.8125 64.3125 
Q 13.671875 62.703125 7.8125 59.421875 
L 7.8125 69.390625 
Q 13.765625 71.78125 18.9375 73 
Q 24.125 74.21875 28.421875 74.21875 
Q 39.75 74.21875 46.484375 68.546875 
Q 53.21875 62.890625 53.21875 53.421875 
Q 53.21875 48.921875 51.53125 44.890625 
Q 49.859375 40.875 45.40625 35.40625 
Q 44.1875 33.984375 37.640625 27.21875 
Q 31.109375 20.453125 19.1875 8.296875 
z
" id="DejaVuSans-50"/>
      </defs>
      <g transform="translate(191.075807 329.598437)scale(0.1 -0.1)">
       <use xlink:href="#DejaVuSans-50"/>
       <use x="63.623047" xlink:href="#DejaVuSans-48"/>
       <use x="127.246094" xlink:href="#DejaVuSans-48"/>
      </g>
     </g>
    </g>
    <g id="xtick_3">
     <g id="line2d_5">
      <path clip-path="url(#p24fea74290)" d="M 285.875477 315 
L 285.875477 43.2 
" style="fill:none;stroke:#b0b0b0;stroke-linecap:square;stroke-width:0.8;"/>
     </g>
     <g id="line2d_6">
      <g>
       <use style="stroke:#000000;stroke-width:0.8;" x="285.875477" xlink:href="#me8bd566067" y="315"/>
      </g>
     </g>
     <g id="text_3">
      <!-- 400 -->
      <defs>
       <path d="M 37.796875 64.3125 
L 12.890625 25.390625 
L 37.796875 25.390625 
z
M 35.203125 72.90625 
L 47.609375 72.90625 
L 47.609375 25.390625 
L 58.015625 25.390625 
L 58.015625 17.1875 
L 47.609375 17.1875 
L 47.609375 0 
L 37.796875 0 
L 37.796875 17.1875 
L 4.890625 17.1875 
L 4.890625 26.703125 
z
" id="DejaVuSans-52"/>
      </defs>
      <g transform="translate(276.331727 329.598437)scale(0.1 -0.1)">
       <use xlink:href="#DejaVuSans-52"/>
       <use x="63.623047" xlink:href="#DejaVuSans-48"/>
       <use x="127.246094" xlink:href="#DejaVuSans-48"/>
      </g>
     </g>
    </g>
    <g id="xtick_4">
     <g id="line2d_7">
      <path clip-path="url(#p24fea74290)" d="M 371.131398 315 
L 371.131398 43.2 
" style="fill:none;stroke:#b0b0b0;stroke-linecap:square;stroke-width:0.8;"/>
     </g>
     <g id="line2d_8">
      <g>
       <use style="stroke:#000000;stroke-width:0.8;" x="371.131398" xlink:href="#me8bd566067" y="315"/>
      </g>
     </g>
     <g id="text_4">
      <!-- 600 -->
      <defs>
       <path d="M 33.015625 40.375 
Q 26.375 40.375 22.484375 35.828125 
Q 18.609375 31.296875 18.609375 23.390625 
Q 18.609375 15.53125 22.484375 10.953125 
Q 26.375 6.390625 33.015625 6.390625 
Q 39.65625 6.390625 43.53125 10.953125 
Q 47.40625 15.53125 47.40625 23.390625 
Q 47.40625 31.296875 43.53125 35.828125 
Q 39.65625 40.375 33.015625 40.375 
z
M 52.59375 71.296875 
L 52.59375 62.3125 
Q 48.875 64.0625 45.09375 64.984375 
Q 41.3125 65.921875 37.59375 65.921875 
Q 27.828125 65.921875 22.671875 59.328125 
Q 17.53125 52.734375 16.796875 39.40625 
Q 19.671875 43.65625 24.015625 45.921875 
Q 28.375 48.1875 33.59375 48.1875 
Q 44.578125 48.1875 50.953125 41.515625 
Q 57.328125 34.859375 57.328125 23.390625 
Q 57.328125 12.15625 50.6875 5.359375 
Q 44.046875 -1.421875 33.015625 -1.421875 
Q 20.359375 -1.421875 13.671875 8.265625 
Q 6.984375 17.96875 6.984375 36.375 
Q 6.984375 53.65625 15.1875 63.9375 
Q 23.390625 74.21875 37.203125 74.21875 
Q 40.921875 74.21875 44.703125 73.484375 
Q 48.484375 72.75 52.59375 71.296875 
z
" id="DejaVuSans-54"/>
      </defs>
      <g transform="translate(361.587648 329.598437)scale(0.1 -0.1)">
       <use xlink:href="#DejaVuSans-54"/>
       <use x="63.623047" xlink:href="#DejaVuSans-48"/>
       <use x="127.246094" xlink:href="#DejaVuSans-48"/>
      </g>
     </g>
    </g>
    <g id="xtick_5">
     <g id="line2d_9">
      <path clip-path="url(#p24fea74290)" d="M 456.387319 315 
L 456.387319 43.2 
" style="fill:none;stroke:#b0b0b0;stroke-linecap:square;stroke-width:0.8;"/>
     </g>
     <g id="line2d_10">
      <g>
       <use style="stroke:#000000;stroke-width:0.8;" x="456.387319" xlink:href="#me8bd566067" y="315"/>
      </g>
     </g>
     <g id="text_5">
      <!-- 800 -->
      <defs>
       <path d="M 31.78125 34.625 
Q 24.75 34.625 20.71875 30.859375 
Q 16.703125 27.09375 16.703125 20.515625 
Q 16.703125 13.921875 20.71875 10.15625 
Q 24.75 6.390625 31.78125 6.390625 
Q 38.8125 6.390625 42.859375 10.171875 
Q 46.921875 13.96875 46.921875 20.515625 
Q 46.921875 27.09375 42.890625 30.859375 
Q 38.875 34.625 31.78125 34.625 
z
M 21.921875 38.8125 
Q 15.578125 40.375 12.03125 44.71875 
Q 8.5 49.078125 8.5 55.328125 
Q 8.5 64.0625 14.71875 69.140625 
Q 20.953125 74.21875 31.78125 74.21875 
Q 42.671875 74.21875 48.875 69.140625 
Q 55.078125 64.0625 55.078125 55.328125 
Q 55.078125 49.078125 51.53125 44.71875 
Q 48 40.375 41.703125 38.8125 
Q 48.828125 37.15625 52.796875 32.3125 
Q 56.78125 27.484375 56.78125 20.515625 
Q 56.78125 9.90625 50.3125 4.234375 
Q 43.84375 -1.421875 31.78125 -1.421875 
Q 19.734375 -1.421875 13.25 4.234375 
Q 6.78125 9.90625 6.78125 20.515625 
Q 6.78125 27.484375 10.78125 32.3125 
Q 14.796875 37.15625 21.921875 38.8125 
z
M 18.3125 54.390625 
Q 18.3125 48.734375 21.84375 45.5625 
Q 25.390625 42.390625 31.78125 42.390625 
Q 38.140625 42.390625 41.71875 45.5625 
Q 45.3125 48.734375 45.3125 54.390625 
Q 45.3125 60.0625 41.71875 63.234375 
Q 38.140625 66.40625 31.78125 66.40625 
Q 25.390625 66.40625 21.84375 63.234375 
Q 18.3125 60.0625 18.3125 54.390625 
z
" id="DejaVuSans-56"/>
      </defs>
      <g transform="translate(446.843569 329.598437)scale(0.1 -0.1)">
       <use xlink:href="#DejaVuSans-56"/>
       <use x="63.623047" xlink:href="#DejaVuSans-48"/>
       <use x="127.246094" xlink:href="#DejaVuSans-48"/>
      </g>
     </g>
    </g>
    <g id="xtick_6">
     <g id="line2d_11">
      <path clip-path="url(#p24fea74290)" d="M 541.643239 315 
L 541.643239 43.2 
" style="fill:none;stroke:#b0b0b0;stroke-linecap:square;stroke-width:0.8;"/>
     </g>
     <g id="line2d_12">
      <g>
       <use style="stroke:#000000;stroke-width:0.8;" x="541.643239" xlink:href="#me8bd566067" y="315"/>
      </g>
     </g>
     <g id="text_6">
      <!-- 1000 -->
      <defs>
       <path d="M 12.40625 8.296875 
L 28.515625 8.296875 
L 28.515625 63.921875 
L 10.984375 60.40625 
L 10.984375 69.390625 
L 28.421875 72.90625 
L 38.28125 72.90625 
L 38.28125 8.296875 
L 54.390625 8.296875 
L 54.390625 0 
L 12.40625 0 
z
" id="DejaVuSans-49"/>
      </defs>
      <g transform="translate(528.918239 329.598437)scale(0.1 -0.1)">
       <use xlink:href="#DejaVuSans-49"/>
       <use x="63.623047" xlink:href="#DejaVuSans-48"/>
       <use x="127.246094" xlink:href="#DejaVuSans-48"/>
       <use x="190.869141" xlink:href="#DejaVuSans-48"/>
      </g>
     </g>
    </g>
    <g id="xtick_7">
     <g id="line2d_13">
      <path clip-path="url(#p24fea74290)" d="M 626.89916 315 
L 626.89916 43.2 
" style="fill:none;stroke:#b0b0b0;stroke-linecap:square;stroke-width:0.8;"/>
     </g>
     <g id="line2d_14">
      <g>
       <use style="stroke:#000000;stroke-width:0.8;" x="626.89916" xlink:href="#me8bd566067" y="315"/>
      </g>
     </g>
     <g id="text_7">
      <!-- 1200 -->
      <g transform="translate(614.17416 329.598437)scale(0.1 -0.1)">
       <use xlink:href="#DejaVuSans-49"/>
       <use x="63.623047" xlink:href="#DejaVuSans-50"/>
       <use x="127.246094" xlink:href="#DejaVuSans-48"/>
       <use x="190.869141" xlink:href="#DejaVuSans-48"/>
      </g>
     </g>
    </g>
    <g id="text_8">
     <!-- epoch -->
     <defs>
      <path d="M 56.203125 29.59375 
L 56.203125 25.203125 
L 14.890625 25.203125 
Q 15.484375 15.921875 20.484375 11.0625 
Q 25.484375 6.203125 34.421875 6.203125 
Q 39.59375 6.203125 44.453125 7.46875 
Q 49.3125 8.734375 54.109375 11.28125 
L 54.109375 2.78125 
Q 49.265625 0.734375 44.1875 -0.34375 
Q 39.109375 -1.421875 33.890625 -1.421875 
Q 20.796875 -1.421875 13.15625 6.1875 
Q 5.515625 13.8125 5.515625 26.8125 
Q 5.515625 40.234375 12.765625 48.109375 
Q 20.015625 56 32.328125 56 
Q 43.359375 56 49.78125 48.890625 
Q 56.203125 41.796875 56.203125 29.59375 
z
M 47.21875 32.234375 
Q 47.125 39.59375 43.09375 43.984375 
Q 39.0625 48.390625 32.421875 48.390625 
Q 24.90625 48.390625 20.390625 44.140625 
Q 15.875 39.890625 15.1875 32.171875 
z
" id="DejaVuSans-101"/>
      <path d="M 18.109375 8.203125 
L 18.109375 -20.796875 
L 9.078125 -20.796875 
L 9.078125 54.6875 
L 18.109375 54.6875 
L 18.109375 46.390625 
Q 20.953125 51.265625 25.265625 53.625 
Q 29.59375 56 35.59375 56 
Q 45.5625 56 51.78125 48.09375 
Q 58.015625 40.1875 58.015625 27.296875 
Q 58.015625 14.40625 51.78125 6.484375 
Q 45.5625 -1.421875 35.59375 -1.421875 
Q 29.59375 -1.421875 25.265625 0.953125 
Q 20.953125 3.328125 18.109375 8.203125 
z
M 48.6875 27.296875 
Q 48.6875 37.203125 44.609375 42.84375 
Q 40.53125 48.484375 33.40625 48.484375 
Q 26.265625 48.484375 22.1875 42.84375 
Q 18.109375 37.203125 18.109375 27.296875 
Q 18.109375 17.390625 22.1875 11.75 
Q 26.265625 6.109375 33.40625 6.109375 
Q 40.53125 6.109375 44.609375 11.75 
Q 48.6875 17.390625 48.6875 27.296875 
z
" id="DejaVuSans-112"/>
      <path d="M 30.609375 48.390625 
Q 23.390625 48.390625 19.1875 42.75 
Q 14.984375 37.109375 14.984375 27.296875 
Q 14.984375 17.484375 19.15625 11.84375 
Q 23.34375 6.203125 30.609375 6.203125 
Q 37.796875 6.203125 41.984375 11.859375 
Q 46.1875 17.53125 46.1875 27.296875 
Q 46.1875 37.015625 41.984375 42.703125 
Q 37.796875 48.390625 30.609375 48.390625 
z
M 30.609375 56 
Q 42.328125 56 49.015625 48.375 
Q 55.71875 40.765625 55.71875 27.296875 
Q 55.71875 13.875 49.015625 6.21875 
Q 42.328125 -1.421875 30.609375 -1.421875 
Q 18.84375 -1.421875 12.171875 6.21875 
Q 5.515625 13.875 5.515625 27.296875 
Q 5.515625 40.765625 12.171875 48.375 
Q 18.84375 56 30.609375 56 
z
" id="DejaVuSans-111"/>
      <path d="M 48.78125 52.59375 
L 48.78125 44.1875 
Q 44.96875 46.296875 41.140625 47.34375 
Q 37.3125 48.390625 33.40625 48.390625 
Q 24.65625 48.390625 19.8125 42.84375 
Q 14.984375 37.3125 14.984375 27.296875 
Q 14.984375 17.28125 19.8125 11.734375 
Q 24.65625 6.203125 33.40625 6.203125 
Q 37.3125 6.203125 41.140625 7.25 
Q 44.96875 8.296875 48.78125 10.40625 
L 48.78125 2.09375 
Q 45.015625 0.34375 40.984375 -0.53125 
Q 36.96875 -1.421875 32.421875 -1.421875 
Q 20.0625 -1.421875 12.78125 6.34375 
Q 5.515625 14.109375 5.515625 27.296875 
Q 5.515625 40.671875 12.859375 48.328125 
Q 20.21875 56 33.015625 56 
Q 37.15625 56 41.109375 55.140625 
Q 45.0625 54.296875 48.78125 52.59375 
z
" id="DejaVuSans-99"/>
      <path d="M 54.890625 33.015625 
L 54.890625 0 
L 45.90625 0 
L 45.90625 32.71875 
Q 45.90625 40.484375 42.875 44.328125 
Q 39.84375 48.1875 33.796875 48.1875 
Q 26.515625 48.1875 22.3125 43.546875 
Q 18.109375 38.921875 18.109375 30.90625 
L 18.109375 0 
L 9.078125 0 
L 9.078125 75.984375 
L 18.109375 75.984375 
L 18.109375 46.1875 
Q 21.34375 51.125 25.703125 53.5625 
Q 30.078125 56 35.796875 56 
Q 45.21875 56 50.046875 50.171875 
Q 54.890625 44.34375 54.890625 33.015625 
z
" id="DejaVuSans-104"/>
     </defs>
     <g transform="translate(353.771875 343.276563)scale(0.1 -0.1)">
      <use xlink:href="#DejaVuSans-101"/>
      <use x="61.523438" xlink:href="#DejaVuSans-112"/>
      <use x="125" xlink:href="#DejaVuSans-111"/>
      <use x="186.181641" xlink:href="#DejaVuSans-99"/>
      <use x="241.162109" xlink:href="#DejaVuSans-104"/>
     </g>
    </g>
   </g>
   <g id="matplotlib.axis_2">
    <g id="ytick_1">
     <g id="line2d_15">
      <path clip-path="url(#p24fea74290)" d="M 90 286.291386 
L 648 286.291386 
" style="fill:none;stroke:#b0b0b0;stroke-linecap:square;stroke-width:0.8;"/>
     </g>
     <g id="line2d_16">
      <defs>
       <path d="M 0 0 
L -3.5 0 
" id="m5ba53a568f" style="stroke:#000000;stroke-width:0.8;"/>
      </defs>
      <g>
       <use style="stroke:#000000;stroke-width:0.8;" x="90" xlink:href="#m5ba53a568f" y="286.291386"/>
      </g>
     </g>
     <g id="text_9">
      <!-- 0.2 -->
      <defs>
       <path d="M 10.6875 12.40625 
L 21 12.40625 
L 21 0 
L 10.6875 0 
z
" id="DejaVuSans-46"/>
      </defs>
      <g transform="translate(67.096875 290.090605)scale(0.1 -0.1)">
       <use xlink:href="#DejaVuSans-48"/>
       <use x="63.623047" xlink:href="#DejaVuSans-46"/>
       <use x="95.410156" xlink:href="#DejaVuSans-50"/>
      </g>
     </g>
    </g>
    <g id="ytick_2">
     <g id="line2d_17">
      <path clip-path="url(#p24fea74290)" d="M 90 253.613397 
L 648 253.613397 
" style="fill:none;stroke:#b0b0b0;stroke-linecap:square;stroke-width:0.8;"/>
     </g>
     <g id="line2d_18">
      <g>
       <use style="stroke:#000000;stroke-width:0.8;" x="90" xlink:href="#m5ba53a568f" y="253.613397"/>
      </g>
     </g>
     <g id="text_10">
      <!-- 0.4 -->
      <g transform="translate(67.096875 257.412616)scale(0.1 -0.1)">
       <use xlink:href="#DejaVuSans-48"/>
       <use x="63.623047" xlink:href="#DejaVuSans-46"/>
       <use x="95.410156" xlink:href="#DejaVuSans-52"/>
      </g>
     </g>
    </g>
    <g id="ytick_3">
     <g id="line2d_19">
      <path clip-path="url(#p24fea74290)" d="M 90 220.935409 
L 648 220.935409 
" style="fill:none;stroke:#b0b0b0;stroke-linecap:square;stroke-width:0.8;"/>
     </g>
     <g id="line2d_20">
      <g>
       <use style="stroke:#000000;stroke-width:0.8;" x="90" xlink:href="#m5ba53a568f" y="220.935409"/>
      </g>
     </g>
     <g id="text_11">
      <!-- 0.6 -->
      <g transform="translate(67.096875 224.734628)scale(0.1 -0.1)">
       <use xlink:href="#DejaVuSans-48"/>
       <use x="63.623047" xlink:href="#DejaVuSans-46"/>
       <use x="95.410156" xlink:href="#DejaVuSans-54"/>
      </g>
     </g>
    </g>
    <g id="ytick_4">
     <g id="line2d_21">
      <path clip-path="url(#p24fea74290)" d="M 90 188.25742 
L 648 188.25742 
" style="fill:none;stroke:#b0b0b0;stroke-linecap:square;stroke-width:0.8;"/>
     </g>
     <g id="line2d_22">
      <g>
       <use style="stroke:#000000;stroke-width:0.8;" x="90" xlink:href="#m5ba53a568f" y="188.25742"/>
      </g>
     </g>
     <g id="text_12">
      <!-- 0.8 -->
      <g transform="translate(67.096875 192.056639)scale(0.1 -0.1)">
       <use xlink:href="#DejaVuSans-48"/>
       <use x="63.623047" xlink:href="#DejaVuSans-46"/>
       <use x="95.410156" xlink:href="#DejaVuSans-56"/>
      </g>
     </g>
    </g>
    <g id="ytick_5">
     <g id="line2d_23">
      <path clip-path="url(#p24fea74290)" d="M 90 155.579432 
L 648 155.579432 
" style="fill:none;stroke:#b0b0b0;stroke-linecap:square;stroke-width:0.8;"/>
     </g>
     <g id="line2d_24">
      <g>
       <use style="stroke:#000000;stroke-width:0.8;" x="90" xlink:href="#m5ba53a568f" y="155.579432"/>
      </g>
     </g>
     <g id="text_13">
      <!-- 1.0 -->
      <g transform="translate(67.096875 159.378651)scale(0.1 -0.1)">
       <use xlink:href="#DejaVuSans-49"/>
       <use x="63.623047" xlink:href="#DejaVuSans-46"/>
       <use x="95.410156" xlink:href="#DejaVuSans-48"/>
      </g>
     </g>
    </g>
    <g id="ytick_6">
     <g id="line2d_25">
      <path clip-path="url(#p24fea74290)" d="M 90 122.901443 
L 648 122.901443 
" style="fill:none;stroke:#b0b0b0;stroke-linecap:square;stroke-width:0.8;"/>
     </g>
     <g id="line2d_26">
      <g>
       <use style="stroke:#000000;stroke-width:0.8;" x="90" xlink:href="#m5ba53a568f" y="122.901443"/>
      </g>
     </g>
     <g id="text_14">
      <!-- 1.2 -->
      <g transform="translate(67.096875 126.700662)scale(0.1 -0.1)">
       <use xlink:href="#DejaVuSans-49"/>
       <use x="63.623047" xlink:href="#DejaVuSans-46"/>
       <use x="95.410156" xlink:href="#DejaVuSans-50"/>
      </g>
     </g>
    </g>
    <g id="ytick_7">
     <g id="line2d_27">
      <path clip-path="url(#p24fea74290)" d="M 90 90.223455 
L 648 90.223455 
" style="fill:none;stroke:#b0b0b0;stroke-linecap:square;stroke-width:0.8;"/>
     </g>
     <g id="line2d_28">
      <g>
       <use style="stroke:#000000;stroke-width:0.8;" x="90" xlink:href="#m5ba53a568f" y="90.223455"/>
      </g>
     </g>
     <g id="text_15">
      <!-- 1.4 -->
      <g transform="translate(67.096875 94.022673)scale(0.1 -0.1)">
       <use xlink:href="#DejaVuSans-49"/>
       <use x="63.623047" xlink:href="#DejaVuSans-46"/>
       <use x="95.410156" xlink:href="#DejaVuSans-52"/>
      </g>
     </g>
    </g>
    <g id="ytick_8">
     <g id="line2d_29">
      <path clip-path="url(#p24fea74290)" d="M 90 57.545466 
L 648 57.545466 
" style="fill:none;stroke:#b0b0b0;stroke-linecap:square;stroke-width:0.8;"/>
     </g>
     <g id="line2d_30">
      <g>
       <use style="stroke:#000000;stroke-width:0.8;" x="90" xlink:href="#m5ba53a568f" y="57.545466"/>
      </g>
     </g>
     <g id="text_16">
      <!-- 1.6 -->
      <g transform="translate(67.096875 61.344685)scale(0.1 -0.1)">
       <use xlink:href="#DejaVuSans-49"/>
       <use x="63.623047" xlink:href="#DejaVuSans-46"/>
       <use x="95.410156" xlink:href="#DejaVuSans-54"/>
      </g>
     </g>
    </g>
    <g id="text_17">
     <!-- loss -->
     <defs>
      <path d="M 9.421875 75.984375 
L 18.40625 75.984375 
L 18.40625 0 
L 9.421875 0 
z
" id="DejaVuSans-108"/>
      <path d="M 44.28125 53.078125 
L 44.28125 44.578125 
Q 40.484375 46.53125 36.375 47.5 
Q 32.28125 48.484375 27.875 48.484375 
Q 21.1875 48.484375 17.84375 46.4375 
Q 14.5 44.390625 14.5 40.28125 
Q 14.5 37.15625 16.890625 35.375 
Q 19.28125 33.59375 26.515625 31.984375 
L 29.59375 31.296875 
Q 39.15625 29.25 43.1875 25.515625 
Q 47.21875 21.78125 47.21875 15.09375 
Q 47.21875 7.46875 41.1875 3.015625 
Q 35.15625 -1.421875 24.609375 -1.421875 
Q 20.21875 -1.421875 15.453125 -0.5625 
Q 10.6875 0.296875 5.421875 2 
L 5.421875 11.28125 
Q 10.40625 8.6875 15.234375 7.390625 
Q 20.0625 6.109375 24.8125 6.109375 
Q 31.15625 6.109375 34.5625 8.28125 
Q 37.984375 10.453125 37.984375 14.40625 
Q 37.984375 18.0625 35.515625 20.015625 
Q 33.0625 21.96875 24.703125 23.78125 
L 21.578125 24.515625 
Q 13.234375 26.265625 9.515625 29.90625 
Q 5.8125 33.546875 5.8125 39.890625 
Q 5.8125 47.609375 11.28125 51.796875 
Q 16.75 56 26.8125 56 
Q 31.78125 56 36.171875 55.265625 
Q 40.578125 54.546875 44.28125 53.078125 
z
" id="DejaVuSans-115"/>
     </defs>
     <g transform="translate(61.017187 188.757812)rotate(-90)scale(0.1 -0.1)">
      <use xlink:href="#DejaVuSans-108"/>
      <use x="27.783203" xlink:href="#DejaVuSans-111"/>
      <use x="88.964844" xlink:href="#DejaVuSans-115"/>
      <use x="141.064453" xlink:href="#DejaVuSans-115"/>
     </g>
    </g>
   </g>
   <g id="line2d_31">
    <path clip-path="url(#p24fea74290)" d="M 115.363636 55.554545 
L 115.789916 61.830976 
L 116.216196 71.290584 
L 116.642475 73.837203 
L 117.068755 73.351085 
L 117.495034 76.015971 
L 117.921314 75.704088 
L 118.347594 78.327584 
L 118.773873 78.423127 
L 119.200153 76.581252 
L 119.626432 81.247345 
L 120.052712 82.164944 
L 120.478992 81.253039 
L 120.905271 83.276843 
L 121.331551 81.71674 
L 121.75783 84.370632 
L 122.18411 85.59014 
L 122.61039 84.844613 
L 123.036669 85.923911 
L 123.462949 85.189594 
L 123.889228 85.518713 
L 124.315508 87.110257 
L 124.741788 89.8117 
L 125.168067 90.296358 
L 126.446906 93.627726 
L 126.873186 94.609951 
L 127.299465 96.214799 
L 127.725745 97.065554 
L 128.578304 99.319094 
L 129.430863 104.448261 
L 129.857143 104.980711 
L 130.283422 109.31185 
L 130.709702 111.727292 
L 131.562261 114.597649 
L 133.26738 132.470931 
L 133.693659 135.571839 
L 136.251337 164.486555 
L 136.677617 172.095435 
L 137.103896 175.245516 
L 137.530176 183.297182 
L 137.956455 184.481759 
L 138.809015 189.66947 
L 139.661574 198.286571 
L 140.514133 205.470139 
L 140.940413 207.576018 
L 141.366692 207.477748 
L 141.792972 207.520737 
L 142.219251 213.201336 
L 142.645531 214.726257 
L 143.071811 217.59519 
L 143.49809 217.224056 
L 143.92437 220.238519 
L 144.350649 221.057405 
L 144.776929 222.980484 
L 145.203209 223.398269 
L 145.629488 225.3777 
L 146.055768 224.384744 
L 146.482047 225.51544 
L 146.908327 227.357547 
L 147.334607 228.687749 
L 147.760886 229.374501 
L 148.187166 232.88978 
L 148.613445 233.349771 
L 149.039725 234.850666 
L 149.466005 235.524564 
L 149.892284 233.792023 
L 150.318564 234.576777 
L 150.744843 238.421728 
L 151.171123 240.232619 
L 151.597403 240.131677 
L 152.023682 241.361985 
L 152.449962 242.078437 
L 152.876241 239.073415 
L 153.302521 241.806004 
L 153.728801 241.6778 
L 154.15508 244.904104 
L 154.58136 246.044996 
L 155.007639 246.726651 
L 155.433919 245.332796 
L 155.860199 245.810265 
L 156.286478 247.650374 
L 156.712758 248.143435 
L 157.139037 247.644119 
L 157.565317 250.995326 
L 157.991597 252.370103 
L 158.417876 252.676557 
L 158.844156 250.253672 
L 159.270435 253.528427 
L 159.696715 253.345206 
L 160.122995 253.71216 
L 160.549274 253.020176 
L 160.975554 255.40396 
L 161.401833 254.918153 
L 161.828113 252.154333 
L 162.254393 256.818511 
L 162.680672 257.650695 
L 163.106952 256.90377 
L 163.533231 258.033338 
L 163.959511 257.839963 
L 164.385791 260.598035 
L 164.81207 257.900617 
L 165.23835 260.869946 
L 165.664629 261.040369 
L 166.090909 258.06812 
L 166.517189 261.147268 
L 166.943468 260.873376 
L 167.369748 261.230205 
L 167.796028 260.897779 
L 168.222307 260.265764 
L 168.648587 261.198401 
L 169.074866 265.447396 
L 169.501146 263.347928 
L 169.927426 265.846646 
L 170.353705 262.900861 
L 170.779985 264.995121 
L 171.206264 265.337726 
L 171.632544 266.862677 
L 172.058824 264.213388 
L 172.911383 266.665399 
L 173.337662 266.945841 
L 173.763942 265.36807 
L 174.190222 265.714467 
L 174.616501 266.928158 
L 175.042781 266.671087 
L 175.46906 268.940927 
L 175.89534 269.133304 
L 176.32162 270.087117 
L 176.747899 269.748567 
L 177.174179 266.315121 
L 177.600458 267.103831 
L 178.026738 270.067172 
L 178.453018 269.263298 
L 178.879297 270.902369 
L 179.305577 271.766047 
L 179.731856 271.28316 
L 180.158136 268.248887 
L 180.584416 271.078234 
L 181.010695 270.997424 
L 181.436975 270.313073 
L 181.863254 273.480416 
L 182.289534 270.57116 
L 182.715814 271.07193 
L 183.142093 273.752726 
L 183.568373 273.272749 
L 183.994652 273.026844 
L 184.420932 272.456114 
L 184.847212 272.628617 
L 185.273491 273.433737 
L 186.12605 274.468009 
L 186.55233 272.309991 
L 186.97861 274.749871 
L 187.404889 274.360997 
L 187.831169 273.12802 
L 188.257448 273.992768 
L 188.683728 276.225235 
L 189.110008 273.494792 
L 189.536287 275.261193 
L 189.962567 273.614206 
L 190.388846 275.700199 
L 190.815126 276.95116 
L 191.241406 276.605512 
L 191.667685 276.541792 
L 192.093965 277.643371 
L 192.520244 277.452231 
L 192.946524 276.087448 
L 193.372804 275.757843 
L 193.799083 275.268377 
L 194.225363 278.570876 
L 194.651642 275.984046 
L 195.077922 277.896651 
L 195.504202 276.789219 
L 195.930481 277.797762 
L 196.356761 277.308087 
L 196.78304 279.132717 
L 197.20932 277.607924 
L 197.6356 277.471604 
L 198.061879 277.074036 
L 198.488159 279.860743 
L 198.914439 277.901273 
L 199.766998 279.582721 
L 200.193277 277.854556 
L 200.619557 278.546855 
L 201.045837 277.971811 
L 201.472116 277.773376 
L 201.898396 279.273796 
L 202.750955 277.589718 
L 203.177235 280.521924 
L 203.603514 281.459605 
L 204.029794 279.203782 
L 204.456073 279.395368 
L 204.882353 279.331511 
L 205.308633 278.900738 
L 205.734912 280.245097 
L 206.161192 280.770394 
L 206.587471 279.817351 
L 207.013751 278.532415 
L 207.440031 281.584973 
L 207.86631 281.193488 
L 208.29259 280.459549 
L 208.718869 280.534226 
L 209.145149 280.264615 
L 209.571429 280.930587 
L 209.997708 283.654093 
L 210.423988 279.995847 
L 210.850267 280.399205 
L 211.276547 281.258627 
L 211.702827 281.764546 
L 212.129106 280.295008 
L 212.555386 280.911149 
L 212.981665 280.383577 
L 213.407945 282.416572 
L 213.834225 279.450801 
L 214.260504 282.852296 
L 214.686784 280.31431 
L 215.113063 280.806664 
L 215.965623 282.431895 
L 216.391902 280.192598 
L 216.818182 280.710312 
L 217.244461 280.700107 
L 217.670741 280.038471 
L 218.097021 281.427357 
L 218.5233 280.539778 
L 218.94958 281.114807 
L 219.375859 283.964214 
L 219.802139 280.331976 
L 220.228419 280.744123 
L 220.654698 282.683679 
L 221.080978 282.247238 
L 221.507257 280.871414 
L 221.933537 283.280575 
L 222.359817 282.613711 
L 222.786096 281.387284 
L 223.212376 282.165097 
L 223.638655 282.067922 
L 224.064935 283.426911 
L 224.491215 285.274463 
L 224.917494 284.331399 
L 225.343774 286.543703 
L 225.770053 285.520643 
L 226.196333 282.421154 
L 226.622613 283.462625 
L 227.048892 282.597419 
L 227.475172 284.246414 
L 227.901451 283.80226 
L 228.327731 284.488553 
L 228.754011 285.469358 
L 229.18029 285.288215 
L 229.60657 285.336328 
L 230.03285 284.59016 
L 230.459129 284.335931 
L 230.885409 283.46292 
L 231.311688 284.741851 
L 231.737968 284.027727 
L 232.164248 283.03341 
L 232.590527 285.263031 
L 233.016807 285.514366 
L 233.443086 283.703231 
L 233.869366 285.2385 
L 234.295646 283.16361 
L 234.721925 287.075587 
L 235.148205 286.457019 
L 235.574484 285.16649 
L 236.427044 285.677903 
L 236.853323 287.42349 
L 237.279603 285.638648 
L 237.705882 285.674368 
L 238.132162 286.580728 
L 238.558442 286.802749 
L 238.984721 286.756863 
L 239.411001 287.773534 
L 239.83728 285.734858 
L 240.26356 285.94435 
L 240.68984 286.739782 
L 241.116119 285.852108 
L 241.542399 287.961231 
L 241.968678 286.882134 
L 242.394958 287.112244 
L 242.821238 289.010628 
L 243.247517 284.432556 
L 243.673797 285.546719 
L 244.100076 284.427129 
L 244.526356 286.261328 
L 244.952636 286.068104 
L 245.378915 286.30589 
L 245.805195 287.996502 
L 246.231474 284.046861 
L 246.657754 286.999731 
L 247.084034 287.98787 
L 247.510313 288.136786 
L 247.936593 286.022281 
L 248.362872 285.880028 
L 248.789152 287.491411 
L 249.215432 285.598982 
L 249.641711 284.94273 
L 250.067991 285.088526 
L 250.49427 285.975354 
L 250.92055 285.669702 
L 251.34683 287.614149 
L 251.773109 285.500464 
L 252.199389 287.822299 
L 252.625668 288.961864 
L 253.051948 285.714483 
L 253.478228 288.790297 
L 253.904507 289.141946 
L 254.330787 286.391005 
L 254.757066 286.969124 
L 255.183346 285.920806 
L 255.609626 285.917986 
L 256.035905 287.785523 
L 256.462185 287.705134 
L 256.888464 288.735002 
L 257.314744 288.260767 
L 258.167303 285.776047 
L 258.593583 289.75041 
L 259.019862 286.519967 
L 259.446142 288.333471 
L 259.872422 287.491682 
L 260.298701 288.253383 
L 260.724981 286.650895 
L 261.151261 289.035432 
L 261.57754 285.926033 
L 262.00382 287.761111 
L 262.430099 288.665496 
L 263.282659 286.361258 
L 263.708938 287.361777 
L 264.135218 289.70076 
L 264.561497 286.843567 
L 264.987777 285.998851 
L 265.414057 290.192194 
L 265.840336 287.112852 
L 266.266616 287.446459 
L 266.692895 289.30833 
L 267.119175 288.760564 
L 267.545455 288.867023 
L 267.971734 287.672431 
L 268.398014 286.139304 
L 268.824293 287.807718 
L 269.250573 288.510778 
L 269.676853 287.613397 
L 270.103132 289.76966 
L 270.529412 289.198981 
L 270.955691 288.110607 
L 271.381971 290.372399 
L 271.808251 287.813853 
L 272.23453 289.181692 
L 272.66081 288.119649 
L 273.087089 289.965849 
L 273.513369 287.550666 
L 273.939649 290.548401 
L 274.365928 288.775456 
L 274.792208 289.243093 
L 275.218487 286.994885 
L 275.644767 289.766691 
L 276.071047 289.004382 
L 276.497326 290.386048 
L 276.923606 289.317881 
L 277.349885 290.57696 
L 277.776165 287.720543 
L 278.202445 287.139396 
L 278.628724 287.208707 
L 279.055004 290.487244 
L 279.481283 288.538945 
L 279.907563 290.777224 
L 280.333843 289.433852 
L 280.760122 289.403637 
L 281.186402 289.25874 
L 281.612681 289.382164 
L 282.038961 286.596403 
L 282.465241 289.664424 
L 283.3178 288.195224 
L 283.744079 287.819153 
L 284.170359 289.578847 
L 284.596639 290.687407 
L 285.022918 288.669122 
L 285.449198 290.288052 
L 285.875477 290.87279 
L 286.301757 290.237548 
L 286.728037 290.37947 
L 287.154316 287.282944 
L 287.580596 290.452033 
L 288.006875 289.418373 
L 288.433155 290.363275 
L 289.285714 291.233938 
L 289.711994 290.105561 
L 290.138273 290.14454 
L 290.564553 287.709547 
L 290.990833 291.344097 
L 291.417112 291.457099 
L 292.269672 290.111158 
L 292.695951 289.83321 
L 293.122231 290.903628 
L 293.54851 287.420217 
L 293.97479 288.737719 
L 294.40107 290.594003 
L 294.827349 291.783329 
L 295.679908 290.937112 
L 296.106188 290.176125 
L 296.532468 288.479112 
L 296.958747 289.892915 
L 297.385027 289.616111 
L 297.811306 290.382606 
L 298.237586 289.643402 
L 298.663866 290.147984 
L 299.090145 290.174991 
L 299.516425 291.36659 
L 299.942704 290.764366 
L 300.368984 291.227671 
L 300.795264 291.965125 
L 301.221543 287.57507 
L 301.647823 292.4782 
L 302.074102 291.339069 
L 302.500382 291.541413 
L 302.926662 290.115521 
L 303.352941 291.245376 
L 303.779221 291.290808 
L 304.2055 292.133215 
L 304.63178 290.96649 
L 305.05806 289.109367 
L 305.484339 293.29735 
L 305.910619 289.468877 
L 306.336898 289.306057 
L 306.763178 291.568415 
L 307.189458 291.359957 
L 307.615737 290.4782 
L 308.042017 288.826157 
L 308.468296 290.509212 
L 308.894576 289.562726 
L 309.320856 289.611953 
L 309.747135 292.21822 
L 310.173415 293.919021 
L 310.599694 291.475398 
L 311.025974 292.464992 
L 311.452254 290.519785 
L 311.878533 291.240391 
L 312.304813 291.284251 
L 313.157372 291.999896 
L 313.583652 292.47514 
L 314.009931 292.336395 
L 314.436211 290.159857 
L 314.86249 291.329718 
L 315.28877 291.488328 
L 315.71505 290.887901 
L 316.141329 292.498853 
L 316.567609 292.618165 
L 316.993888 289.61293 
L 317.420168 291.633449 
L 317.846448 291.923253 
L 318.272727 293.692552 
L 319.125286 292.931063 
L 319.551566 292.180993 
L 319.977846 290.109765 
L 320.404125 290.907674 
L 320.830405 292.467453 
L 321.256684 292.200198 
L 321.682964 292.726485 
L 322.109244 291.492254 
L 322.535523 290.929161 
L 322.961803 294.035396 
L 323.388083 295.959033 
L 323.814362 292.42082 
L 324.240642 294.896187 
L 324.666921 292.234796 
L 325.093201 292.316603 
L 325.519481 292.621093 
L 325.94576 292.709353 
L 326.37204 291.492066 
L 326.798319 293.491067 
L 327.224599 293.139374 
L 327.650879 290.336477 
L 328.077158 289.539669 
L 328.503438 289.922424 
L 328.929717 289.700182 
L 329.782277 293.880965 
L 330.208556 292.476469 
L 330.634836 293.213118 
L 331.061115 292.599519 
L 331.487395 292.847631 
L 331.913675 293.250519 
L 332.339954 293.221177 
L 332.766234 293.779252 
L 333.192513 295.483428 
L 333.618793 293.792072 
L 334.045073 294.16532 
L 334.471352 292.853699 
L 334.897632 292.862238 
L 335.323911 290.480284 
L 335.750191 292.645683 
L 336.176471 292.089128 
L 336.60275 291.063507 
L 337.02903 293.905291 
L 337.455309 293.73778 
L 337.881589 293.402848 
L 338.307869 291.916135 
L 338.734148 293.218111 
L 339.160428 295.583088 
L 339.586707 293.044461 
L 340.012987 292.390866 
L 340.439267 292.197735 
L 340.865546 292.130113 
L 341.291826 291.922014 
L 341.718105 292.943978 
L 342.570665 292.506754 
L 342.996944 294.315358 
L 343.423224 293.992487 
L 343.849503 292.187122 
L 344.275783 293.820586 
L 344.702063 292.937669 
L 345.128342 290.869654 
L 345.554622 292.717204 
L 345.980901 295.358988 
L 346.407181 294.351525 
L 346.833461 294.412311 
L 347.25974 292.540025 
L 347.68602 293.074291 
L 348.112299 292.105833 
L 348.538579 292.774421 
L 348.964859 293.211917 
L 349.391138 295.606503 
L 349.817418 290.569728 
L 350.243697 290.842668 
L 350.669977 293.289424 
L 351.096257 291.099754 
L 351.522536 292.20109 
L 351.948816 295.392768 
L 352.375095 292.837523 
L 352.801375 293.458777 
L 353.227655 292.918765 
L 353.653934 292.826999 
L 354.506494 294.22649 
L 354.932773 294.642838 
L 355.359053 292.421218 
L 355.785332 292.051744 
L 356.211612 292.314595 
L 356.637892 293.946479 
L 357.064171 293.299631 
L 357.490451 293.357293 
L 357.91673 291.794651 
L 358.34301 294.161229 
L 358.76929 292.302367 
L 359.195569 294.345658 
L 359.621849 293.334446 
L 360.048128 293.340905 
L 360.474408 294.901685 
L 360.900688 292.675819 
L 361.326967 294.182181 
L 361.753247 293.026623 
L 362.179526 294.202549 
L 362.605806 291.269208 
L 363.032086 292.915728 
L 363.458365 291.155824 
L 364.310924 295.587231 
L 364.737204 294.131511 
L 365.163484 296.081293 
L 365.589763 293.027705 
L 366.016043 294.848639 
L 366.442322 293.941984 
L 366.868602 296.413477 
L 367.294882 294.156881 
L 367.721161 292.535491 
L 368.147441 293.268902 
L 368.57372 292.710929 
L 369 295.325443 
L 369.42628 293.671953 
L 369.852559 293.206322 
L 370.278839 293.542563 
L 370.705118 294.850945 
L 371.131398 293.500313 
L 371.557678 292.958163 
L 371.983957 293.504286 
L 372.410237 294.266639 
L 372.836516 295.507632 
L 373.262796 294.582476 
L 373.689076 293.248358 
L 374.115355 294.01833 
L 374.541635 293.231654 
L 374.967914 292.817587 
L 375.394194 293.927943 
L 375.820474 293.364878 
L 376.246753 293.975275 
L 376.673033 295.369596 
L 377.099312 294.052241 
L 377.525592 295.15301 
L 377.951872 293.120226 
L 378.378151 291.646683 
L 378.804431 295.637018 
L 379.23071 294.175788 
L 379.65699 294.004534 
L 380.08327 293.601074 
L 380.509549 294.183973 
L 380.935829 293.766828 
L 381.362108 294.070705 
L 381.788388 294.157555 
L 382.214668 292.370137 
L 382.640947 295.962698 
L 383.067227 294.930418 
L 383.493506 293.44051 
L 383.919786 292.902914 
L 384.346066 293.73205 
L 384.772345 293.794523 
L 385.198625 295.845092 
L 386.051184 296.102103 
L 386.477464 294.742102 
L 386.903743 296.380651 
L 387.756303 293.210281 
L 388.608862 293.189648 
L 389.035141 293.96655 
L 389.461421 292.584824 
L 389.887701 293.855855 
L 390.31398 293.385141 
L 390.74026 295.108474 
L 391.166539 293.725432 
L 391.592819 294.107697 
L 392.019099 295.205231 
L 392.445378 295.285523 
L 392.871658 294.922194 
L 393.297937 293.414354 
L 393.724217 295.007808 
L 394.150497 293.795765 
L 394.576776 294.272675 
L 395.003056 295.302185 
L 395.855615 295.93981 
L 396.281895 296.906943 
L 396.708174 292.530107 
L 397.134454 295.521144 
L 397.560733 294.864569 
L 397.987013 294.994635 
L 398.413293 294.815057 
L 398.839572 297.000148 
L 399.265852 297.521006 
L 399.692131 296.480177 
L 400.118411 294.448147 
L 400.97097 294.874927 
L 401.39725 294.742917 
L 401.823529 292.5955 
L 402.249809 296.109701 
L 402.676089 296.413807 
L 403.528648 293.664613 
L 403.954927 294.905773 
L 404.381207 294.414682 
L 404.807487 295.020968 
L 405.233766 296.05055 
L 405.660046 296.494474 
L 406.086325 294.146983 
L 406.512605 293.386091 
L 406.938885 296.128295 
L 407.365164 294.097236 
L 407.791444 295.800597 
L 408.644003 295.233001 
L 409.070283 294.226103 
L 409.496562 295.191345 
L 409.922842 295.803745 
L 410.349121 295.871766 
L 410.775401 295.281683 
L 411.201681 294.412098 
L 411.62796 295.106396 
L 412.05424 294.953787 
L 412.480519 292.385536 
L 412.906799 293.546343 
L 413.333079 296.187538 
L 413.759358 293.802215 
L 414.185638 296.584348 
L 414.611917 295.591544 
L 415.038197 294.965625 
L 415.464477 293.999715 
L 415.890756 294.668092 
L 416.317036 298.06562 
L 416.743316 293.867923 
L 417.169595 295.366746 
L 417.595875 292.517518 
L 418.022154 294.975684 
L 418.448434 295.988545 
L 418.874714 294.613234 
L 419.300993 293.909514 
L 419.727273 296.453138 
L 420.153552 296.357185 
L 420.579832 295.521218 
L 421.006112 294.101357 
L 421.432391 296.042263 
L 421.858671 295.782306 
L 422.28495 296.589797 
L 422.71123 296.373417 
L 423.13751 296.01254 
L 423.563789 296.438519 
L 423.990069 294.556957 
L 424.416348 294.922183 
L 424.842628 297.142681 
L 425.695187 296.138862 
L 426.121467 296.377994 
L 426.547746 295.506253 
L 427.400306 294.756385 
L 427.826585 295.266037 
L 428.252865 297.233775 
L 428.679144 296.802548 
L 429.105424 294.819987 
L 429.531704 296.571105 
L 429.957983 295.247965 
L 430.384263 295.432342 
L 431.236822 293.753745 
L 431.663102 297.030521 
L 432.089381 293.894568 
L 432.515661 296.395264 
L 432.94194 294.724272 
L 433.36822 296.216048 
L 433.7945 295.948178 
L 434.220779 294.063338 
L 434.647059 297.312565 
L 435.073338 297.115273 
L 435.499618 295.400546 
L 435.925898 297.073415 
L 436.352177 294.23998 
L 436.778457 295.420827 
L 437.204736 296.190811 
L 437.631016 296.352607 
L 438.057296 297.521247 
L 438.483575 295.837122 
L 438.909855 296.000669 
L 439.336134 296.479396 
L 439.762414 295.282124 
L 440.188694 297.057877 
L 440.614973 295.783843 
L 441.041253 297.524306 
L 441.467532 294.098796 
L 441.893812 297.396734 
L 442.320092 297.152195 
L 442.746371 294.761758 
L 443.172651 296.224615 
L 443.59893 295.884048 
L 444.02521 296.597666 
L 444.45149 296.401608 
L 444.877769 295.87105 
L 445.304049 298.308295 
L 445.730328 294.77832 
L 446.156608 295.996008 
L 446.582888 296.434612 
L 447.009167 296.655103 
L 447.435447 297.966062 
L 447.861727 296.521377 
L 448.288006 294.611595 
L 448.714286 295.83102 
L 449.140565 295.400569 
L 449.566845 296.462359 
L 449.993125 295.622321 
L 450.419404 296.578327 
L 450.845684 295.823912 
L 451.271963 297.421833 
L 451.698243 295.841323 
L 452.124523 295.877846 
L 452.550802 297.751589 
L 452.977082 298.661786 
L 453.403361 294.383536 
L 453.829641 293.676806 
L 454.255921 295.319046 
L 454.6822 296.279739 
L 455.10848 296.649283 
L 455.534759 294.387343 
L 455.961039 296.290111 
L 456.387319 296.149399 
L 457.239878 293.583593 
L 457.666157 296.62318 
L 458.092437 295.765989 
L 458.518717 294.203452 
L 459.371276 296.049493 
L 459.797555 294.523168 
L 460.223835 296.077984 
L 460.650115 298.313966 
L 461.076394 296.335422 
L 461.502674 297.325767 
L 461.928953 297.086839 
L 462.355233 298.283259 
L 462.781513 294.703104 
L 463.207792 297.473147 
L 463.634072 295.953008 
L 464.060351 296.391222 
L 464.486631 297.943889 
L 465.33919 295.955656 
L 465.76547 294.201277 
L 466.191749 297.074697 
L 466.618029 295.126612 
L 467.044309 294.990451 
L 467.470588 296.831026 
L 467.896868 296.717898 
L 468.323147 296.23089 
L 468.749427 297.682707 
L 469.175707 294.767296 
L 469.601986 296.440664 
L 470.028266 296.728204 
L 470.454545 296.017613 
L 470.880825 296.087272 
L 471.307105 295.105175 
L 471.733384 296.281835 
L 472.159664 295.524932 
L 472.585943 295.581604 
L 473.012223 297.694016 
L 473.438503 299.098526 
L 473.864782 299.148185 
L 474.291062 297.217906 
L 475.143621 296.306745 
L 475.569901 295.900391 
L 475.99618 295.806047 
L 476.42246 296.221467 
L 476.848739 295.576895 
L 477.701299 299.111779 
L 478.127578 296.023851 
L 478.553858 296.679504 
L 478.980138 296.518037 
L 479.406417 297.61149 
L 479.832697 297.083335 
L 480.258976 295.777265 
L 480.685256 297.836044 
L 481.111536 295.107879 
L 481.537815 297.264178 
L 481.964095 296.75768 
L 482.390374 295.244816 
L 482.816654 297.538738 
L 483.242934 295.108027 
L 483.669213 297.124326 
L 484.095493 295.278018 
L 484.948052 298.454682 
L 485.374332 296.298075 
L 485.800611 297.319492 
L 486.226891 296.560504 
L 486.65317 298.707009 
L 487.07945 296.037991 
L 487.50573 297.419416 
L 488.358289 295.875394 
L 488.784568 296.122174 
L 489.210848 296.08691 
L 489.637128 297.988728 
L 490.063407 296.495011 
L 490.489687 296.254929 
L 490.915966 297.584822 
L 491.342246 294.617577 
L 491.768526 296.371507 
L 493.047364 297.305272 
L 493.473644 296.57921 
L 493.899924 297.059593 
L 494.326203 294.528798 
L 494.752483 295.201343 
L 495.178762 297.108419 
L 495.605042 297.114617 
L 496.031322 295.356987 
L 496.883881 297.518259 
L 497.31016 294.692002 
L 497.73644 295.742236 
L 498.16272 298.120112 
L 498.588999 295.969464 
L 499.015279 296.288451 
L 499.441558 297.673375 
L 499.867838 297.775072 
L 500.294118 296.390473 
L 500.720397 297.528621 
L 501.146677 297.942632 
L 501.572956 296.59358 
L 501.999236 296.386023 
L 502.425516 297.327549 
L 502.851795 296.577266 
L 503.278075 297.280197 
L 503.704354 295.380923 
L 504.130634 297.420921 
L 504.556914 297.627894 
L 504.983193 296.42295 
L 505.409473 295.739251 
L 505.835752 299.618112 
L 506.262032 297.800437 
L 507.114591 297.276183 
L 507.96715 295.795834 
L 508.39343 298.302521 
L 508.81971 298.114352 
L 509.245989 295.966529 
L 509.672269 297.477697 
L 510.098549 296.511366 
L 510.524828 298.064838 
L 510.951108 295.711858 
L 511.803667 298.277849 
L 512.229947 298.477138 
L 513.082506 295.924719 
L 513.508785 296.686795 
L 513.935065 296.134903 
L 514.361345 297.406376 
L 514.787624 297.425744 
L 515.213904 298.092381 
L 515.640183 296.951742 
L 516.066463 296.956581 
L 516.492743 296.183809 
L 516.919022 296.576109 
L 517.345302 294.723376 
L 518.197861 298.076521 
L 518.624141 297.141041 
L 519.05042 297.282871 
L 519.4767 297.148048 
L 519.902979 298.438988 
L 520.329259 296.179501 
L 520.755539 297.417065 
L 521.181818 297.891577 
L 521.608098 296.846723 
L 522.034377 297.666014 
L 522.460657 296.61968 
L 522.886937 298.167387 
L 523.313216 298.254185 
L 523.739496 297.469243 
L 524.165775 297.936168 
L 524.592055 298.211998 
L 525.444614 293.829069 
L 525.870894 299.222419 
L 526.297173 298.061115 
L 526.723453 297.926536 
L 527.149733 297.571276 
L 527.576012 297.992292 
L 528.002292 298.01191 
L 528.428571 299.55421 
L 528.854851 298.807585 
L 529.281131 297.683175 
L 529.70741 297.181019 
L 530.13369 297.59119 
L 530.559969 299.265527 
L 530.986249 297.137313 
L 531.412529 298.874387 
L 532.265088 296.13423 
L 532.691367 299.118459 
L 533.117647 298.837676 
L 533.543927 299.313668 
L 533.970206 297.721388 
L 534.396486 297.470225 
L 534.822765 297.959672 
L 535.249045 297.283437 
L 535.675325 299.020227 
L 536.101604 297.834257 
L 536.527884 298.853475 
L 536.954163 299.139522 
L 537.380443 297.58961 
L 537.806723 299.500772 
L 538.233002 297.881566 
L 538.659282 299.274084 
L 539.511841 297.468145 
L 539.938121 296.435802 
L 540.3644 298.497241 
L 540.79068 296.193916 
L 541.21696 298.901606 
L 541.643239 298.216808 
L 542.069519 297.754931 
L 542.495798 299.965124 
L 542.922078 299.630226 
L 543.348358 297.493647 
L 543.774637 299.598298 
L 544.200917 297.837756 
L 544.627196 298.36653 
L 545.053476 298.558495 
L 545.479756 297.643078 
L 545.906035 297.112314 
L 546.332315 295.872171 
L 546.758594 297.782299 
L 547.184874 298.405147 
L 547.611154 297.288087 
L 548.037433 297.738204 
L 548.463713 297.188481 
L 549.316272 298.211401 
L 549.742552 297.597454 
L 550.168831 298.313122 
L 550.595111 298.707218 
L 551.02139 296.267151 
L 551.44767 296.445305 
L 551.87395 298.719567 
L 552.300229 297.963276 
L 552.726509 298.348018 
L 553.152788 299.326528 
L 553.579068 296.125165 
L 554.005348 296.804155 
L 554.431627 299.448489 
L 554.857907 296.53001 
L 555.284186 298.681403 
L 555.710466 298.087763 
L 556.136746 299.294473 
L 556.563025 299.777281 
L 556.989305 297.663947 
L 557.841864 298.391339 
L 558.268144 297.249202 
L 558.694423 297.417804 
L 559.120703 298.444479 
L 559.546982 298.344939 
L 559.973262 296.633098 
L 560.399542 298.657172 
L 560.825821 299.369503 
L 561.252101 297.661387 
L 561.67838 298.251883 
L 562.10466 299.038519 
L 562.53094 298.746808 
L 562.957219 298.761745 
L 563.383499 299.735461 
L 563.809778 295.276575 
L 564.236058 295.344203 
L 564.662338 300.159 
L 565.514897 297.827543 
L 565.941176 297.479645 
L 566.367456 299.685773 
L 566.793736 300.254308 
L 567.220015 297.283259 
L 567.646295 296.224961 
L 568.072574 299.031534 
L 568.498854 297.317904 
L 568.925134 296.720081 
L 569.351413 298.840293 
L 569.777693 299.390471 
L 570.203972 298.816646 
L 570.630252 298.05225 
L 571.056532 298.537207 
L 571.482811 298.773275 
L 571.909091 299.715476 
L 572.335371 298.17089 
L 572.76165 297.285951 
L 573.18793 300.311712 
L 573.614209 299.897651 
L 574.040489 299.704724 
L 574.466769 297.519506 
L 574.893048 298.748587 
L 575.319328 298.996053 
L 575.745607 297.166528 
L 576.171887 300.322134 
L 576.598167 297.874974 
L 577.024446 299.333739 
L 577.877005 301.119944 
L 578.303285 298.109912 
L 578.729565 299.828239 
L 579.155844 299.278775 
L 579.582124 300.41498 
L 580.008403 297.963994 
L 580.434683 296.971208 
L 580.860963 298.72111 
L 581.287242 298.173985 
L 581.713522 299.024259 
L 582.139801 298.666907 
L 582.566081 300.064657 
L 582.992361 299.349764 
L 583.41864 296.596332 
L 583.84492 297.911818 
L 584.271199 298.357107 
L 584.697479 297.304425 
L 585.123759 299.11566 
L 585.550038 299.989584 
L 585.976318 298.462553 
L 586.402597 301.40394 
L 586.828877 296.75376 
L 587.255157 297.121808 
L 587.681436 298.91324 
L 588.107716 301.271708 
L 588.533995 297.979373 
L 588.960275 297.014195 
L 590.665393 298.916956 
L 591.091673 298.092167 
L 591.517953 298.498817 
L 591.944232 299.710883 
L 592.370512 298.676277 
L 592.796791 298.372193 
L 593.223071 300.002798 
L 593.649351 298.087509 
L 594.07563 300.405125 
L 594.50191 298.948081 
L 594.928189 299.073232 
L 595.354469 296.84714 
L 595.780749 299.760242 
L 596.207028 297.36692 
L 596.633308 297.830422 
L 597.059587 298.772177 
L 597.485867 298.999679 
L 598.338426 296.697043 
L 598.764706 298.782024 
L 599.190985 297.830781 
L 599.617265 298.563998 
L 600.043545 298.455189 
L 600.469824 298.733211 
L 600.896104 297.9741 
L 601.322383 297.840341 
L 601.748663 299.214066 
L 602.174943 298.509557 
L 602.601222 297.583229 
L 603.027502 298.933333 
L 603.453782 299.212483 
L 604.306341 299.100904 
L 604.73262 299.459372 
L 605.1589 297.933911 
L 605.58518 297.930827 
L 606.011459 299.228951 
L 606.437739 297.322033 
L 606.864018 297.896881 
L 607.290298 300.30697 
L 608.142857 297.982984 
L 608.569137 298.954143 
L 608.995416 297.362744 
L 609.421696 298.131803 
L 609.847976 299.234831 
L 610.274255 298.804089 
L 610.700535 299.840868 
L 611.126814 298.588621 
L 611.553094 299.45414 
L 611.979374 302.645455 
L 612.405653 298.778325 
L 612.831933 301.004166 
L 613.258212 297.921235 
L 613.684492 297.672321 
L 614.110772 300.791956 
L 614.537051 298.066089 
L 614.963331 296.925247 
L 615.38961 300.346892 
L 615.81589 298.919274 
L 616.24217 297.946689 
L 616.668449 299.483428 
L 617.094729 299.626841 
L 617.521008 297.455824 
L 617.947288 296.899875 
L 618.373568 298.483293 
L 618.799847 299.419988 
L 619.226127 299.154858 
L 619.652406 300.39844 
L 620.078686 299.128863 
L 620.504966 299.406965 
L 620.931245 297.743098 
L 621.357525 297.603944 
L 621.783804 299.29479 
L 622.210084 298.300804 
L 622.636364 301.754579 
L 622.636364 301.754579 
" style="fill:none;stroke:#1f77b4;stroke-linecap:square;stroke-width:0.5;"/>
   </g>
   <g id="line2d_32">
    <path clip-path="url(#p24fea74290)" d="M 115.363636 61.160853 
L 115.789916 67.289102 
L 116.216196 69.295575 
L 116.642475 71.991122 
L 117.068755 70.136667 
L 117.495034 74.680872 
L 117.921314 77.856667 
L 118.347594 74.986647 
L 118.773873 74.234874 
L 119.200153 81.293159 
L 119.626432 78.690844 
L 120.052712 81.842055 
L 120.478992 81.71894 
L 120.905271 81.226289 
L 121.331551 82.381199 
L 121.75783 82.575036 
L 122.18411 84.260598 
L 122.61039 82.622333 
L 123.036669 83.519974 
L 123.462949 86.02331 
L 123.889228 89.471133 
L 124.315508 86.410268 
L 124.741788 89.021429 
L 125.168067 90.787263 
L 125.594347 88.581369 
L 126.020626 91.642557 
L 126.446906 92.099278 
L 126.873186 94.577931 
L 127.299465 95.723372 
L 127.725745 95.999388 
L 128.152024 97.387617 
L 128.578304 97.68325 
L 129.430863 102.595104 
L 129.857143 106.377921 
L 130.283422 106.976357 
L 130.709702 109.814903 
L 131.135982 114.645819 
L 131.562261 116.672885 
L 131.988541 119.582645 
L 133.26738 131.791008 
L 134.119939 141.472456 
L 135.825057 161.125783 
L 136.251337 166.607005 
L 136.677617 169.40406 
L 137.103896 176.596112 
L 137.530176 178.943457 
L 137.956455 185.920238 
L 138.382735 190.713704 
L 138.809015 192.398217 
L 139.235294 193.506629 
L 139.661574 198.372292 
L 140.087853 200.058313 
L 140.514133 203.586028 
L 140.940413 205.114558 
L 141.792972 212.845443 
L 142.219251 213.024667 
L 142.645531 212.616047 
L 143.071811 216.979017 
L 143.49809 218.384999 
L 143.92437 219.051138 
L 144.350649 220.756959 
L 145.203209 222.90546 
L 145.629488 225.05506 
L 146.055768 224.813215 
L 146.482047 226.015401 
L 146.908327 227.593635 
L 147.334607 230.85338 
L 147.760886 230.129748 
L 148.187166 231.561236 
L 148.613445 231.646597 
L 149.039725 234.920016 
L 149.466005 236.104336 
L 149.892284 236.024151 
L 150.318564 235.524736 
L 150.744843 235.491315 
L 151.171123 237.50081 
L 151.597403 240.079074 
L 152.023682 237.750464 
L 152.449962 241.245301 
L 152.876241 243.144141 
L 153.302521 244.101154 
L 153.728801 245.654906 
L 154.15508 243.081014 
L 154.58136 243.97019 
L 155.007639 245.815134 
L 155.433919 246.968119 
L 155.860199 246.768939 
L 156.286478 246.359146 
L 156.712758 246.616474 
L 157.139037 250.28304 
L 157.565317 250.394797 
L 157.991597 252.79762 
L 158.417876 251.754175 
L 159.270435 252.356982 
L 159.696715 252.466392 
L 160.122995 255.737564 
L 160.549274 255.31975 
L 160.975554 255.210178 
L 161.401833 255.426748 
L 161.828113 255.348399 
L 162.254393 257.607657 
L 162.680672 256.211263 
L 163.106952 258.763107 
L 163.533231 258.082788 
L 163.959511 256.62026 
L 164.385791 257.508049 
L 164.81207 259.91528 
L 165.23835 258.594074 
L 165.664629 259.988265 
L 166.090909 260.151567 
L 166.517189 260.173714 
L 166.943468 262.54771 
L 167.369748 262.023844 
L 167.796028 260.758898 
L 168.222307 261.273487 
L 168.648587 264.261229 
L 169.074866 264.7662 
L 169.501146 263.869749 
L 169.927426 264.963314 
L 170.779985 263.977107 
L 171.206264 266.256126 
L 171.632544 264.739435 
L 172.058824 264.968694 
L 172.485103 264.068981 
L 172.911383 266.55703 
L 173.337662 267.880657 
L 173.763942 267.993231 
L 174.616501 270.644298 
L 175.042781 268.010085 
L 175.46906 269.136149 
L 175.89534 268.078189 
L 176.32162 268.702418 
L 176.747899 268.013055 
L 177.174179 269.160719 
L 177.600458 268.755021 
L 178.026738 272.030314 
L 178.453018 271.781955 
L 178.879297 272.234198 
L 179.305577 270.358919 
L 179.731856 270.00833 
L 180.158136 271.296947 
L 180.584416 271.205078 
L 181.010695 271.308658 
L 181.436975 270.795822 
L 181.863254 274.262486 
L 182.289534 273.191081 
L 182.715814 273.156959 
L 183.142093 273.781578 
L 183.568373 273.518811 
L 184.420932 272.166894 
L 184.847212 274.268427 
L 185.273491 274.982757 
L 185.699771 274.210095 
L 186.12605 274.140265 
L 186.55233 277.525148 
L 186.97861 274.974917 
L 187.404889 275.814667 
L 187.831169 274.532425 
L 188.683728 276.367814 
L 189.110008 275.439991 
L 189.536287 276.670585 
L 189.962567 275.418365 
L 190.388846 276.668672 
L 190.815126 279.479735 
L 191.241406 275.283476 
L 191.667685 275.626858 
L 192.093965 276.253592 
L 192.520244 275.755305 
L 192.946524 278.043868 
L 193.372804 276.180566 
L 193.799083 276.22294 
L 194.225363 278.050731 
L 194.651642 276.19965 
L 195.077922 276.612009 
L 195.504202 277.651598 
L 195.930481 277.642719 
L 196.356761 278.501402 
L 197.20932 279.210837 
L 197.6356 280.262221 
L 198.061879 278.854073 
L 198.488159 279.286112 
L 198.914439 278.721966 
L 199.340718 281.43535 
L 199.766998 279.991812 
L 200.193277 280.516652 
L 200.619557 280.831598 
L 201.045837 279.614872 
L 201.472116 280.577951 
L 201.898396 278.396506 
L 202.324675 281.567853 
L 202.750955 278.296796 
L 203.603514 282.00298 
L 204.456073 278.019452 
L 204.882353 280.290293 
L 205.308633 280.975033 
L 205.734912 280.938032 
L 206.161192 279.793296 
L 206.587471 280.527545 
L 207.013751 283.05417 
L 207.440031 283.705478 
L 207.86631 280.804957 
L 208.29259 280.806948 
L 209.145149 284.021566 
L 209.997708 281.989552 
L 210.423988 283.962107 
L 210.850267 284.310918 
L 211.702827 281.884624 
L 212.129106 284.03008 
L 212.555386 281.75587 
L 212.981665 282.139632 
L 213.407945 283.181823 
L 214.260504 282.288597 
L 214.686784 282.589125 
L 215.113063 281.621904 
L 215.539343 281.051003 
L 216.391902 284.165291 
L 216.818182 284.064999 
L 217.244461 284.33976 
L 217.670741 283.761168 
L 218.097021 282.556106 
L 218.5233 283.361936 
L 218.94958 284.507196 
L 219.375859 284.266584 
L 219.802139 280.925295 
L 220.228419 282.474151 
L 220.654698 280.080159 
L 221.080978 283.813015 
L 221.507257 285.360786 
L 221.933537 285.009402 
L 222.359817 283.908378 
L 222.786096 284.627712 
L 223.212376 284.349972 
L 223.638655 285.05868 
L 224.064935 283.696705 
L 224.491215 285.471416 
L 224.917494 285.780034 
L 225.343774 284.165516 
L 225.770053 284.653045 
L 226.196333 286.488367 
L 226.622613 284.873227 
L 227.475172 284.64217 
L 227.901451 287.371727 
L 228.327731 284.31883 
L 229.18029 284.920131 
L 229.60657 286.466539 
L 230.03285 286.077023 
L 230.459129 286.558685 
L 230.885409 285.556951 
L 231.311688 283.530995 
L 231.737968 285.894499 
L 232.164248 286.833254 
L 233.443086 283.929442 
L 233.869366 282.337322 
L 234.295646 285.561825 
L 234.721925 286.500086 
L 235.148205 283.845033 
L 236.000764 288.207151 
L 236.427044 285.983495 
L 237.279603 288.340647 
L 237.705882 287.602046 
L 238.132162 287.784785 
L 238.558442 287.727176 
L 238.984721 288.234519 
L 239.411001 287.628566 
L 239.83728 286.23815 
L 240.26356 287.562495 
L 240.68984 287.22538 
L 241.116119 285.781213 
L 241.542399 287.779804 
L 241.968678 286.619817 
L 242.394958 287.633281 
L 243.247517 286.022274 
L 243.673797 286.95373 
L 244.100076 287.090935 
L 244.526356 287.411485 
L 244.952636 286.863339 
L 245.378915 286.669092 
L 245.805195 288.124398 
L 246.231474 287.047343 
L 246.657754 285.18017 
L 247.084034 286.957821 
L 247.510313 289.417757 
L 247.936593 286.528857 
L 248.789152 288.666896 
L 249.215432 286.81211 
L 249.641711 286.273822 
L 250.067991 288.232776 
L 250.49427 288.837198 
L 250.92055 288.177611 
L 251.34683 288.806374 
L 251.773109 287.904019 
L 252.199389 288.74769 
L 252.625668 288.919615 
L 253.051948 288.593326 
L 253.478228 286.218973 
L 253.904507 288.576126 
L 254.330787 288.692416 
L 254.757066 289.710043 
L 255.183346 286.832878 
L 255.609626 288.379035 
L 256.035905 289.271124 
L 256.462185 289.491374 
L 256.888464 287.857218 
L 257.314744 288.228037 
L 257.741024 288.084979 
L 258.167303 288.805259 
L 258.593583 288.687705 
L 259.019862 290.306903 
L 259.446142 290.479663 
L 259.872422 287.3276 
L 260.298701 288.342134 
L 260.724981 290.496593 
L 261.151261 289.241495 
L 261.57754 289.786605 
L 262.00382 289.667303 
L 262.430099 288.20956 
L 263.282659 287.517252 
L 263.708938 289.827037 
L 264.135218 288.827904 
L 264.987777 290.097016 
L 265.414057 288.322279 
L 265.840336 290.367285 
L 266.266616 289.350782 
L 266.692895 289.390706 
L 267.119175 290.346787 
L 267.545455 287.617193 
L 267.971734 287.447024 
L 268.398014 290.555579 
L 268.824293 288.089204 
L 269.250573 288.614363 
L 269.676853 288.881344 
L 270.103132 290.505719 
L 270.529412 290.664348 
L 270.955691 288.942575 
L 271.381971 289.067482 
L 271.808251 288.736006 
L 272.23453 289.861901 
L 272.66081 290.320363 
L 273.087089 287.229278 
L 273.513369 289.275386 
L 273.939649 290.202625 
L 274.365928 288.7105 
L 274.792208 292.819247 
L 275.218487 290.970419 
L 275.644767 290.978845 
L 276.071047 289.039333 
L 276.923606 289.442536 
L 277.349885 291.841157 
L 277.776165 289.293457 
L 278.202445 290.403056 
L 278.628724 289.64678 
L 279.055004 291.027598 
L 279.481283 286.473827 
L 279.907563 289.570032 
L 280.333843 288.903456 
L 280.760122 290.774185 
L 281.186402 289.508582 
L 281.612681 289.601395 
L 282.038961 290.237562 
L 282.465241 288.640452 
L 282.89152 288.876565 
L 283.3178 289.780402 
L 283.744079 289.084776 
L 284.170359 291.027868 
L 284.596639 290.274991 
L 285.022918 291.816526 
L 285.449198 291.409006 
L 285.875477 292.165479 
L 286.301757 290.356762 
L 286.728037 290.215305 
L 287.154316 288.604689 
L 287.580596 287.934033 
L 288.006875 290.394865 
L 288.433155 291.444222 
L 288.859435 291.791163 
L 289.285714 290.498673 
L 289.711994 290.860668 
L 290.138273 290.098364 
L 290.564553 291.892565 
L 290.990833 290.031806 
L 291.417112 290.871843 
L 291.843392 290.568038 
L 292.269672 290.7754 
L 292.695951 291.405439 
L 293.122231 289.423066 
L 293.54851 292.71799 
L 293.97479 290.117511 
L 294.827349 292.031538 
L 295.253629 291.805803 
L 295.679908 291.975902 
L 296.106188 291.23631 
L 296.958747 292.64647 
L 297.385027 290.616706 
L 297.811306 291.075357 
L 298.237586 289.245875 
L 298.663866 290.256431 
L 299.090145 292.288144 
L 299.516425 289.403174 
L 299.942704 291.43771 
L 300.795264 289.587922 
L 301.221543 292.226796 
L 301.647823 291.371533 
L 302.074102 292.852016 
L 302.500382 292.382534 
L 302.926662 290.886781 
L 303.352941 287.935681 
L 303.779221 290.612525 
L 304.2055 290.751124 
L 304.63178 290.452241 
L 305.05806 293.337691 
L 305.484339 290.223973 
L 305.910619 291.710302 
L 306.336898 289.541081 
L 306.763178 288.361111 
L 307.189458 292.803833 
L 307.615737 291.891357 
L 308.042017 289.696841 
L 308.468296 289.594427 
L 308.894576 290.892756 
L 309.320856 291.138669 
L 309.747135 288.635482 
L 310.173415 294.332991 
L 310.599694 290.822982 
L 311.025974 291.569435 
L 311.452254 291.838938 
L 311.878533 289.788762 
L 312.304813 292.856993 
L 312.731092 290.861694 
L 313.583652 292.291985 
L 314.009931 289.202016 
L 314.436211 290.531569 
L 314.86249 292.540128 
L 315.28877 291.772822 
L 315.71505 294.034963 
L 316.141329 290.859474 
L 316.567609 290.710211 
L 316.993888 291.701494 
L 317.420168 290.088558 
L 318.699007 292.479684 
L 319.125286 290.569212 
L 319.551566 292.720334 
L 319.977846 292.915491 
L 320.404125 290.650967 
L 320.830405 290.748121 
L 321.256684 292.728626 
L 321.682964 292.754923 
L 322.109244 290.980864 
L 322.535523 292.620767 
L 322.961803 292.033443 
L 323.388083 293.080521 
L 323.814362 291.361232 
L 324.240642 293.132774 
L 324.666921 290.963363 
L 325.519481 290.855828 
L 325.94576 293.086422 
L 326.37204 292.982589 
L 326.798319 291.231173 
L 327.224599 292.609951 
L 327.650879 292.845951 
L 328.077158 288.94893 
L 328.503438 291.437054 
L 328.929717 291.861534 
L 329.355997 291.766201 
L 329.782277 292.04669 
L 330.208556 295.459063 
L 330.634836 292.618757 
L 331.061115 293.353298 
L 331.487395 291.572713 
L 331.913675 294.705759 
L 332.339954 295.016919 
L 333.192513 293.009618 
L 333.618793 293.577761 
L 334.045073 292.879875 
L 334.471352 293.541264 
L 334.897632 291.861622 
L 335.323911 292.454092 
L 335.750191 293.364158 
L 336.176471 292.796229 
L 336.60275 292.545972 
L 337.02903 292.993909 
L 337.455309 291.337055 
L 337.881589 293.073442 
L 338.307869 293.474889 
L 338.734148 292.73372 
L 339.160428 291.367149 
L 339.586707 292.26389 
L 340.012987 292.420271 
L 340.439267 292.455515 
L 340.865546 293.754521 
L 341.291826 294.210655 
L 341.718105 292.629736 
L 342.144385 293.025314 
L 342.570665 292.404822 
L 342.996944 291.575934 
L 343.423224 293.09004 
L 343.849503 292.385988 
L 344.275783 292.306029 
L 344.702063 294.266306 
L 345.554622 291.223413 
L 345.980901 293.925293 
L 346.407181 293.639359 
L 346.833461 295.80131 
L 347.25974 292.971343 
L 347.68602 291.169154 
L 348.112299 293.512193 
L 348.538579 292.277523 
L 348.964859 291.610389 
L 349.391138 292.79255 
L 349.817418 292.45263 
L 350.243697 293.937269 
L 350.669977 292.19562 
L 351.096257 292.67713 
L 351.522536 290.939219 
L 351.948816 293.411876 
L 352.375095 292.637846 
L 352.801375 292.124949 
L 353.227655 293.102755 
L 353.653934 292.681188 
L 354.080214 294.38418 
L 354.506494 294.074856 
L 354.932773 293.346101 
L 355.359053 293.324402 
L 355.785332 290.662842 
L 356.211612 292.561939 
L 356.637892 293.133291 
L 357.064171 292.137867 
L 357.490451 293.688347 
L 358.34301 293.01121 
L 358.76929 292.439798 
L 359.621849 293.717295 
L 360.048128 295.322178 
L 360.474408 292.722875 
L 360.900688 293.313968 
L 361.326967 293.324467 
L 361.753247 293.127185 
L 362.179526 294.069772 
L 362.605806 292.231479 
L 363.032086 291.885381 
L 363.458365 293.780361 
L 363.884645 293.916245 
L 364.310924 293.407527 
L 364.737204 294.025326 
L 365.163484 293.062708 
L 365.589763 292.892092 
L 366.016043 294.888812 
L 366.442322 294.5686 
L 366.868602 292.571863 
L 367.294882 293.929642 
L 367.721161 293.584847 
L 368.147441 294.266777 
L 368.57372 293.75218 
L 369 295.593292 
L 369.42628 294.066791 
L 369.852559 293.02638 
L 370.278839 293.869365 
L 370.705118 294.286412 
L 371.131398 293.085212 
L 371.557678 295.510063 
L 371.983957 294.493609 
L 372.410237 292.803718 
L 372.836516 294.217149 
L 373.262796 293.497553 
L 374.115355 293.646297 
L 374.541635 294.185005 
L 374.967914 291.367194 
L 375.394194 293.521299 
L 375.820474 291.493262 
L 376.246753 294.148564 
L 376.673033 294.284622 
L 377.099312 293.038509 
L 377.525592 292.964772 
L 377.951872 294.480416 
L 378.378151 294.86674 
L 378.804431 295.875231 
L 379.23071 293.860261 
L 379.65699 294.569634 
L 380.08327 291.616323 
L 380.509549 293.809882 
L 380.935829 293.486898 
L 381.362108 292.864627 
L 381.788388 293.398782 
L 382.214668 291.841055 
L 382.640947 293.239665 
L 383.067227 293.617536 
L 383.493506 292.263431 
L 384.346066 294.143283 
L 384.772345 292.885206 
L 385.198625 294.416029 
L 385.624905 294.440195 
L 386.051184 293.534548 
L 386.477464 296.39936 
L 386.903743 292.605942 
L 387.330023 292.020917 
L 387.756303 293.950692 
L 388.182582 292.892691 
L 388.608862 294.944803 
L 389.035141 292.168688 
L 389.461421 293.833227 
L 389.887701 293.952748 
L 390.31398 293.452684 
L 390.74026 295.324387 
L 391.592819 293.254467 
L 392.019099 292.04262 
L 392.445378 296.856276 
L 392.871658 294.575644 
L 393.297937 294.121893 
L 393.724217 294.644796 
L 394.150497 294.469949 
L 394.576776 294.812849 
L 395.003056 292.540374 
L 395.429335 291.839032 
L 395.855615 292.230439 
L 396.708174 295.124309 
L 397.134454 293.263131 
L 397.560733 294.261049 
L 397.987013 292.977079 
L 398.413293 294.390338 
L 398.839572 294.968437 
L 399.265852 294.448044 
L 399.692131 292.298177 
L 400.544691 294.148041 
L 400.97097 293.67409 
L 401.39725 293.387042 
L 401.823529 293.680127 
L 402.249809 295.349644 
L 402.676089 293.527662 
L 403.102368 294.614644 
L 403.528648 292.745164 
L 403.954927 294.296867 
L 404.381207 292.409155 
L 404.807487 294.423933 
L 405.233766 294.769404 
L 405.660046 293.882152 
L 406.086325 294.279195 
L 406.512605 293.213247 
L 406.938885 292.90511 
L 407.365164 293.945885 
L 407.791444 292.371847 
L 408.644003 294.872278 
L 409.496562 292.692865 
L 409.922842 294.132779 
L 410.349121 292.519035 
L 410.775401 292.884152 
L 411.201681 293.615249 
L 411.62796 292.902096 
L 412.480519 294.083992 
L 412.906799 295.029593 
L 413.333079 294.558738 
L 413.759358 293.403681 
L 414.185638 294.95964 
L 414.611917 293.640839 
L 415.038197 293.075914 
L 415.464477 293.344937 
L 415.890756 292.95628 
L 416.317036 295.951256 
L 417.169595 294.227854 
L 417.595875 294.942526 
L 418.022154 296.415223 
L 418.448434 293.665338 
L 419.300993 295.029517 
L 419.727273 293.625534 
L 420.153552 295.220112 
L 420.579832 292.517893 
L 421.006112 294.09291 
L 421.432391 294.166907 
L 421.858671 294.555194 
L 422.28495 296.03283 
L 422.71123 295.096248 
L 423.13751 295.343174 
L 423.563789 294.327594 
L 423.990069 292.958645 
L 424.842628 296.935076 
L 425.695187 293.444622 
L 426.121467 292.536572 
L 426.547746 294.480375 
L 426.974026 292.948297 
L 427.400306 293.441987 
L 427.826585 294.59117 
L 428.252865 295.184235 
L 428.679144 294.674906 
L 429.105424 293.280654 
L 429.531704 294.668284 
L 429.957983 292.261272 
L 430.384263 294.752743 
L 430.810542 293.016682 
L 431.236822 295.296783 
L 431.663102 294.037999 
L 432.089381 294.661617 
L 432.515661 294.538411 
L 432.94194 291.019127 
L 433.36822 293.075517 
L 433.7945 293.913963 
L 434.220779 295.478496 
L 435.073338 294.253674 
L 435.499618 295.315676 
L 435.925898 294.061858 
L 436.352177 293.648728 
L 436.778457 294.427234 
L 437.204736 293.68468 
L 437.631016 294.307457 
L 438.057296 295.156883 
L 438.483575 294.423307 
L 438.909855 294.07255 
L 439.336134 295.122448 
L 439.762414 294.193018 
L 440.188694 295.654971 
L 440.614973 293.936142 
L 441.467532 294.608705 
L 441.893812 294.579757 
L 442.320092 294.342564 
L 442.746371 292.26962 
L 443.172651 292.578007 
L 443.59893 293.748751 
L 444.02521 293.63484 
L 444.45149 295.113913 
L 444.877769 294.690488 
L 445.304049 295.001516 
L 445.730328 294.945277 
L 446.156608 293.289686 
L 446.582888 295.396297 
L 447.009167 293.550132 
L 447.435447 292.452337 
L 447.861727 294.546549 
L 448.714286 293.581107 
L 449.140565 295.851388 
L 449.566845 292.131976 
L 449.993125 293.432148 
L 450.419404 293.510754 
L 450.845684 295.804599 
L 451.271963 295.069457 
L 452.124523 295.206288 
L 452.550802 294.74488 
L 453.403361 294.657593 
L 453.829641 295.445732 
L 454.255921 295.37365 
L 454.6822 295.699683 
L 455.10848 292.289079 
L 455.534759 293.198817 
L 455.961039 295.903311 
L 456.387319 293.228065 
L 456.813598 293.650211 
L 457.239878 295.968224 
L 457.666157 293.272027 
L 458.092437 295.093846 
L 458.518717 294.257488 
L 458.944996 294.762895 
L 459.371276 294.58297 
L 459.797555 296.170114 
L 460.223835 292.175876 
L 460.650115 295.428495 
L 461.076394 291.845689 
L 461.502674 291.136439 
L 461.928953 293.656235 
L 462.355233 294.830559 
L 462.781513 293.47266 
L 463.207792 296.786769 
L 463.634072 294.843168 
L 464.060351 294.705386 
L 464.486631 295.907256 
L 464.912911 293.455474 
L 465.33919 294.998118 
L 465.76547 293.899545 
L 466.191749 292.15863 
L 466.618029 294.151617 
L 467.044309 292.703254 
L 467.470588 295.501958 
L 467.896868 294.788548 
L 468.323147 293.793598 
L 468.749427 293.836101 
L 469.175707 292.684787 
L 469.601986 294.573397 
L 470.028266 293.658052 
L 470.454545 296.248431 
L 471.307105 293.639532 
L 471.733384 294.419 
L 472.159664 295.604138 
L 472.585943 293.102237 
L 473.012223 293.533574 
L 473.438503 295.357015 
L 473.864782 294.472081 
L 474.291062 296.187108 
L 474.717341 293.255942 
L 475.143621 297.07756 
L 475.569901 291.80816 
L 475.99618 295.303249 
L 476.42246 293.696828 
L 476.848739 296.533268 
L 477.275019 296.323368 
L 477.701299 296.471712 
L 478.127578 295.824291 
L 478.553858 294.686532 
L 478.980138 293.876839 
L 479.832697 297.068515 
L 480.258976 295.005722 
L 480.685256 294.985611 
L 481.537815 297.5547 
L 482.390374 294.357407 
L 482.816654 294.634904 
L 483.242934 295.754361 
L 483.669213 293.36792 
L 484.095493 294.3562 
L 484.521772 295.846437 
L 484.948052 293.674321 
L 485.374332 295.224183 
L 485.800611 292.7145 
L 486.226891 292.970681 
L 486.65317 294.418916 
L 487.07945 295.200824 
L 487.50573 294.289582 
L 487.932009 294.820519 
L 488.358289 296.098325 
L 488.784568 293.976586 
L 489.637128 295.840788 
L 490.063407 295.216853 
L 490.489687 297.046313 
L 490.915966 294.607854 
L 491.342246 294.504064 
L 491.768526 295.091664 
L 492.621085 293.112459 
L 493.047364 293.993233 
L 493.473644 295.139023 
L 493.899924 294.511545 
L 494.326203 295.446821 
L 494.752483 294.840147 
L 495.178762 295.043233 
L 495.605042 293.403552 
L 496.031322 293.018425 
L 496.457601 295.080891 
L 496.883881 294.567703 
L 497.31016 292.513245 
L 497.73644 297.051155 
L 498.16272 295.112777 
L 499.015279 294.519168 
L 499.441558 295.555241 
L 499.867838 294.554836 
L 500.294118 292.927148 
L 500.720397 293.812887 
L 501.146677 295.384154 
L 501.572956 295.040385 
L 501.999236 295.068645 
L 502.425516 296.818671 
L 502.851795 292.70609 
L 503.278075 296.947006 
L 503.704354 295.193802 
L 504.130634 295.141143 
L 504.556914 294.85227 
L 504.983193 293.648817 
L 505.409473 294.524511 
L 505.835752 293.900232 
L 506.262032 294.265671 
L 506.688312 294.231095 
L 507.114591 295.813562 
L 507.540871 293.368148 
L 507.96715 295.68907 
L 508.39343 295.033707 
L 508.81971 295.49337 
L 509.245989 294.564851 
L 509.672269 295.259745 
L 510.098549 294.73555 
L 510.524828 293.588249 
L 510.951108 294.54094 
L 511.377387 294.476989 
L 511.803667 295.725408 
L 512.229947 296.330797 
L 512.656226 297.135846 
L 513.082506 294.774039 
L 513.508785 293.32995 
L 513.935065 293.226386 
L 514.361345 293.44256 
L 514.787624 294.592286 
L 515.213904 294.287557 
L 515.640183 294.240142 
L 516.066463 297.730645 
L 516.492743 294.735213 
L 516.919022 293.368237 
L 517.345302 294.069226 
L 517.771581 295.097695 
L 518.197861 295.771853 
L 518.624141 294.580834 
L 519.05042 292.991025 
L 519.4767 296.083207 
L 520.329259 297.365013 
L 520.755539 294.375076 
L 521.181818 295.271208 
L 521.608098 297.238068 
L 522.034377 294.787413 
L 522.460657 294.322869 
L 522.886937 294.1276 
L 523.313216 295.364892 
L 523.739496 293.481226 
L 524.165775 294.000141 
L 524.592055 295.030197 
L 525.018335 295.715171 
L 525.444614 294.771866 
L 525.870894 294.360785 
L 526.297173 296.038933 
L 526.723453 295.065954 
L 527.149733 294.710955 
L 527.576012 295.273549 
L 528.002292 293.283687 
L 528.428571 294.865683 
L 528.854851 294.657483 
L 529.281131 294.678985 
L 529.70741 293.365338 
L 530.13369 294.693936 
L 530.559969 293.210466 
L 530.986249 295.169611 
L 531.412529 293.938682 
L 531.838808 295.389611 
L 532.691367 295.951453 
L 533.117647 293.594158 
L 533.543927 295.346318 
L 533.970206 296.038621 
L 534.396486 295.899062 
L 534.822765 296.169783 
L 535.249045 295.1348 
L 535.675325 294.878116 
L 536.101604 294.856285 
L 536.527884 295.132258 
L 536.954163 295.168496 
L 537.380443 295.382208 
L 537.806723 294.754255 
L 538.233002 294.463603 
L 538.659282 294.734088 
L 539.085561 294.113461 
L 539.511841 296.953559 
L 539.938121 292.663951 
L 540.3644 292.276431 
L 540.79068 296.871294 
L 541.21696 293.620133 
L 541.643239 296.010386 
L 542.069519 294.469622 
L 542.495798 294.267047 
L 542.922078 296.554376 
L 543.348358 295.919532 
L 543.774637 293.978832 
L 544.200917 293.597525 
L 544.627196 295.027898 
L 545.053476 294.875064 
L 545.479756 295.84907 
L 545.906035 295.801271 
L 546.332315 294.873146 
L 546.758594 294.639918 
L 547.184874 293.627396 
L 547.611154 294.658772 
L 548.037433 294.710745 
L 548.463713 293.026747 
L 548.889992 295.894207 
L 549.316272 294.627431 
L 550.168831 294.570981 
L 550.595111 295.139257 
L 551.02139 294.878386 
L 551.87395 295.161196 
L 552.300229 293.93094 
L 552.726509 294.594268 
L 553.152788 295.720063 
L 553.579068 295.50774 
L 554.005348 295.839903 
L 554.431627 294.970645 
L 554.857907 295.524423 
L 555.284186 294.125811 
L 555.710466 293.926774 
L 556.136746 295.366256 
L 556.989305 292.9944 
L 557.415584 293.335055 
L 557.841864 294.855864 
L 558.268144 294.16611 
L 558.694423 295.088047 
L 559.120703 295.581002 
L 559.546982 294.868774 
L 559.973262 291.643346 
L 560.399542 295.768856 
L 560.825821 293.276556 
L 561.252101 295.507796 
L 561.67838 294.612767 
L 562.10466 292.815009 
L 562.53094 294.66739 
L 562.957219 295.800737 
L 563.383499 296.604627 
L 563.809778 296.642946 
L 564.236058 295.430809 
L 564.662338 295.029314 
L 565.088617 296.525321 
L 565.514897 297.04698 
L 565.941176 295.647237 
L 566.367456 297.212488 
L 566.793736 294.540569 
L 567.220015 295.853704 
L 567.646295 294.134786 
L 568.072574 295.831933 
L 568.498854 295.018162 
L 569.351413 295.155179 
L 569.777693 293.943231 
L 570.203972 295.364877 
L 570.630252 294.180866 
L 571.056532 294.786973 
L 571.482811 295.873189 
L 572.335371 293.64217 
L 572.76165 294.891064 
L 573.18793 293.970933 
L 573.614209 295.714682 
L 574.040489 293.949777 
L 574.893048 295.273162 
L 575.319328 296.801911 
L 575.745607 293.720668 
L 576.171887 293.674526 
L 576.598167 295.248078 
L 577.024446 295.72316 
L 577.450726 295.420059 
L 577.877005 296.351745 
L 578.303285 294.791709 
L 578.729565 296.614924 
L 579.155844 294.793588 
L 579.582124 293.640275 
L 580.008403 297.253682 
L 580.434683 293.912825 
L 580.860963 293.94195 
L 581.287242 294.902287 
L 581.713522 295.380729 
L 582.139801 296.103759 
L 582.566081 293.045726 
L 582.992361 293.602004 
L 583.41864 294.871034 
L 583.84492 294.325734 
L 584.271199 294.501778 
L 584.697479 294.091786 
L 585.123759 294.507661 
L 585.550038 295.618595 
L 585.976318 294.163347 
L 586.402597 294.944884 
L 586.828877 292.895211 
L 587.681436 295.460118 
L 588.107716 296.343156 
L 588.533995 293.027053 
L 588.960275 294.347779 
L 589.386555 293.12313 
L 589.812834 293.525326 
L 590.665393 295.504598 
L 591.091673 295.351482 
L 591.517953 296.43847 
L 591.944232 292.286638 
L 592.370512 296.561103 
L 592.796791 294.33992 
L 593.223071 294.732237 
L 593.649351 295.429073 
L 594.07563 294.2528 
L 594.928189 295.593168 
L 596.207028 294.28605 
L 596.633308 294.263622 
L 597.485867 295.326719 
L 597.912147 297.495402 
L 598.338426 294.864637 
L 598.764706 295.377692 
L 599.190985 296.400666 
L 599.617265 295.987766 
L 600.043545 294.679964 
L 600.469824 294.555574 
L 600.896104 294.006522 
L 601.322383 295.605702 
L 601.748663 294.535384 
L 602.174943 296.499043 
L 602.601222 295.047813 
L 603.027502 295.753455 
L 603.453782 294.524065 
L 603.880061 295.000832 
L 604.306341 294.441544 
L 604.73262 296.12276 
L 605.1589 293.951447 
L 605.58518 294.063119 
L 606.011459 295.756332 
L 606.437739 295.153596 
L 606.864018 294.294017 
L 607.290298 295.181806 
L 607.716578 294.633745 
L 608.142857 293.013847 
L 608.569137 296.389491 
L 608.995416 297.342943 
L 609.847976 293.953289 
L 610.274255 296.03544 
L 610.700535 294.686464 
L 611.126814 295.19233 
L 611.553094 293.714831 
L 611.979374 293.156408 
L 612.405653 293.883122 
L 613.258212 296.875558 
L 613.684492 297.71287 
L 614.110772 295.014764 
L 614.537051 295.864619 
L 614.963331 294.512259 
L 615.38961 294.44582 
L 615.81589 295.149323 
L 616.24217 293.827035 
L 617.094729 295.55553 
L 617.521008 295.458363 
L 617.947288 295.915675 
L 618.373568 295.637874 
L 618.799847 295.511004 
L 619.226127 293.961236 
L 619.652406 295.738081 
L 620.078686 294.111434 
L 620.504966 294.457322 
L 620.931245 295.765215 
L 621.357525 294.107198 
L 621.783804 294.451093 
L 622.210084 296.324265 
L 622.636364 295.20802 
L 622.636364 295.20802 
" style="fill:none;stroke:#ff7f0e;stroke-linecap:square;stroke-width:0.5;"/>
   </g>
   <g id="patch_3">
    <path d="M 90 315 
L 90 43.2 
" style="fill:none;stroke:#000000;stroke-linecap:square;stroke-linejoin:miter;stroke-width:0.8;"/>
   </g>
   <g id="patch_4">
    <path d="M 648 315 
L 648 43.2 
" style="fill:none;stroke:#000000;stroke-linecap:square;stroke-linejoin:miter;stroke-width:0.8;"/>
   </g>
   <g id="patch_5">
    <path d="M 90 315 
L 648 315 
" style="fill:none;stroke:#000000;stroke-linecap:square;stroke-linejoin:miter;stroke-width:0.8;"/>
   </g>
   <g id="patch_6">
    <path d="M 90 43.2 
L 648 43.2 
" style="fill:none;stroke:#000000;stroke-linecap:square;stroke-linejoin:miter;stroke-width:0.8;"/>
   </g>
   <g id="text_18">
    <!-- loss -->
    <g transform="translate(357.410625 37.2)scale(0.12 -0.12)">
     <use xlink:href="#DejaVuSans-108"/>
     <use x="27.783203" xlink:href="#DejaVuSans-111"/>
     <use x="88.964844" xlink:href="#DejaVuSans-115"/>
     <use x="141.064453" xlink:href="#DejaVuSans-115"/>
    </g>
   </g>
   <g id="legend_1">
    <g id="patch_7">
     <path d="M 568.846875 80.55625 
L 641 80.55625 
Q 643 80.55625 643 78.55625 
L 643 50.2 
Q 643 48.2 641 48.2 
L 568.846875 48.2 
Q 566.846875 48.2 566.846875 50.2 
L 566.846875 78.55625 
Q 566.846875 80.55625 568.846875 80.55625 
z
" style="fill:#ffffff;opacity:0.8;stroke:#cccccc;stroke-linejoin:miter;"/>
    </g>
    <g id="line2d_33">
     <path d="M 570.846875 56.298437 
L 590.846875 56.298437 
" style="fill:none;stroke:#1f77b4;stroke-linecap:square;stroke-width:0.5;"/>
    </g>
    <g id="line2d_34"/>
    <g id="text_19">
     <!-- train -->
     <defs>
      <path d="M 18.3125 70.21875 
L 18.3125 54.6875 
L 36.8125 54.6875 
L 36.8125 47.703125 
L 18.3125 47.703125 
L 18.3125 18.015625 
Q 18.3125 11.328125 20.140625 9.421875 
Q 21.96875 7.515625 27.59375 7.515625 
L 36.8125 7.515625 
L 36.8125 0 
L 27.59375 0 
Q 17.1875 0 13.234375 3.875 
Q 9.28125 7.765625 9.28125 18.015625 
L 9.28125 47.703125 
L 2.6875 47.703125 
L 2.6875 54.6875 
L 9.28125 54.6875 
L 9.28125 70.21875 
z
" id="DejaVuSans-116"/>
      <path d="M 41.109375 46.296875 
Q 39.59375 47.171875 37.8125 47.578125 
Q 36.03125 48 33.890625 48 
Q 26.265625 48 22.1875 43.046875 
Q 18.109375 38.09375 18.109375 28.8125 
L 18.109375 0 
L 9.078125 0 
L 9.078125 54.6875 
L 18.109375 54.6875 
L 18.109375 46.1875 
Q 20.953125 51.171875 25.484375 53.578125 
Q 30.03125 56 36.53125 56 
Q 37.453125 56 38.578125 55.875 
Q 39.703125 55.765625 41.0625 55.515625 
z
" id="DejaVuSans-114"/>
      <path d="M 34.28125 27.484375 
Q 23.390625 27.484375 19.1875 25 
Q 14.984375 22.515625 14.984375 16.5 
Q 14.984375 11.71875 18.140625 8.90625 
Q 21.296875 6.109375 26.703125 6.109375 
Q 34.1875 6.109375 38.703125 11.40625 
Q 43.21875 16.703125 43.21875 25.484375 
L 43.21875 27.484375 
z
M 52.203125 31.203125 
L 52.203125 0 
L 43.21875 0 
L 43.21875 8.296875 
Q 40.140625 3.328125 35.546875 0.953125 
Q 30.953125 -1.421875 24.3125 -1.421875 
Q 15.921875 -1.421875 10.953125 3.296875 
Q 6 8.015625 6 15.921875 
Q 6 25.140625 12.171875 29.828125 
Q 18.359375 34.515625 30.609375 34.515625 
L 43.21875 34.515625 
L 43.21875 35.40625 
Q 43.21875 41.609375 39.140625 45 
Q 35.0625 48.390625 27.6875 48.390625 
Q 23 48.390625 18.546875 47.265625 
Q 14.109375 46.140625 10.015625 43.890625 
L 10.015625 52.203125 
Q 14.9375 54.109375 19.578125 55.046875 
Q 24.21875 56 28.609375 56 
Q 40.484375 56 46.34375 49.84375 
Q 52.203125 43.703125 52.203125 31.203125 
z
" id="DejaVuSans-97"/>
      <path d="M 9.421875 54.6875 
L 18.40625 54.6875 
L 18.40625 0 
L 9.421875 0 
z
M 9.421875 75.984375 
L 18.40625 75.984375 
L 18.40625 64.59375 
L 9.421875 64.59375 
z
" id="DejaVuSans-105"/>
      <path d="M 54.890625 33.015625 
L 54.890625 0 
L 45.90625 0 
L 45.90625 32.71875 
Q 45.90625 40.484375 42.875 44.328125 
Q 39.84375 48.1875 33.796875 48.1875 
Q 26.515625 48.1875 22.3125 43.546875 
Q 18.109375 38.921875 18.109375 30.90625 
L 18.109375 0 
L 9.078125 0 
L 9.078125 54.6875 
L 18.109375 54.6875 
L 18.109375 46.1875 
Q 21.34375 51.125 25.703125 53.5625 
Q 30.078125 56 35.796875 56 
Q 45.21875 56 50.046875 50.171875 
Q 54.890625 44.34375 54.890625 33.015625 
z
" id="DejaVuSans-110"/>
     </defs>
     <g transform="translate(598.846875 59.798437)scale(0.1 -0.1)">
      <use xlink:href="#DejaVuSans-116"/>
      <use x="39.208984" xlink:href="#DejaVuSans-114"/>
      <use x="80.322266" xlink:href="#DejaVuSans-97"/>
      <use x="141.601562" xlink:href="#DejaVuSans-105"/>
      <use x="169.384766" xlink:href="#DejaVuSans-110"/>
     </g>
    </g>
    <g id="line2d_35">
     <path d="M 570.846875 70.976562 
L 590.846875 70.976562 
" style="fill:none;stroke:#ff7f0e;stroke-linecap:square;stroke-width:0.5;"/>
    </g>
    <g id="line2d_36"/>
    <g id="text_20">
     <!-- validate -->
     <defs>
      <path d="M 2.984375 54.6875 
L 12.5 54.6875 
L 29.59375 8.796875 
L 46.6875 54.6875 
L 56.203125 54.6875 
L 35.6875 0 
L 23.484375 0 
z
" id="DejaVuSans-118"/>
      <path d="M 45.40625 46.390625 
L 45.40625 75.984375 
L 54.390625 75.984375 
L 54.390625 0 
L 45.40625 0 
L 45.40625 8.203125 
Q 42.578125 3.328125 38.25 0.953125 
Q 33.9375 -1.421875 27.875 -1.421875 
Q 17.96875 -1.421875 11.734375 6.484375 
Q 5.515625 14.40625 5.515625 27.296875 
Q 5.515625 40.1875 11.734375 48.09375 
Q 17.96875 56 27.875 56 
Q 33.9375 56 38.25 53.625 
Q 42.578125 51.265625 45.40625 46.390625 
z
M 14.796875 27.296875 
Q 14.796875 17.390625 18.875 11.75 
Q 22.953125 6.109375 30.078125 6.109375 
Q 37.203125 6.109375 41.296875 11.75 
Q 45.40625 17.390625 45.40625 27.296875 
Q 45.40625 37.203125 41.296875 42.84375 
Q 37.203125 48.484375 30.078125 48.484375 
Q 22.953125 48.484375 18.875 42.84375 
Q 14.796875 37.203125 14.796875 27.296875 
z
" id="DejaVuSans-100"/>
     </defs>
     <g transform="translate(598.846875 74.476562)scale(0.1 -0.1)">
      <use xlink:href="#DejaVuSans-118"/>
      <use x="59.179688" xlink:href="#DejaVuSans-97"/>
      <use x="120.458984" xlink:href="#DejaVuSans-108"/>
      <use x="148.242188" xlink:href="#DejaVuSans-105"/>
      <use x="176.025391" xlink:href="#DejaVuSans-100"/>
      <use x="239.501953" xlink:href="#DejaVuSans-97"/>
      <use x="300.78125" xlink:href="#DejaVuSans-116"/>
      <use x="339.990234" xlink:href="#DejaVuSans-101"/>
     </g>
    </g>
   </g>
  </g>
 </g>
 <defs>
  <clipPath id="p24fea74290">
   <rect height="271.8" width="558" x="90" y="43.2"/>
  </clipPath>
 </defs>
</svg>
