<?xml version="1.0" encoding="utf-8" standalone="no"?>
<!DOCTYPE svg PUBLIC "-//W3C//DTD SVG 1.1//EN"
  "http://www.w3.org/Graphics/SVG/1.1/DTD/svg11.dtd">
<!-- Created with matplotlib (https://matplotlib.org/) -->
<svg height="360pt" version="1.1" viewBox="0 0 720 360" width="720pt" xmlns="http://www.w3.org/2000/svg" xmlns:xlink="http://www.w3.org/1999/xlink">
 <defs>
  <style type="text/css">
*{stroke-linecap:butt;stroke-linejoin:round;}
  </style>
 </defs>
 <g id="figure_1">
  <g id="patch_1">
   <path d="M 0 360 
L 720 360 
L 720 0 
L 0 0 
z
" style="fill:#ffffff;"/>
  </g>
  <g id="axes_1">
   <g id="patch_2">
    <path d="M 90 315 
L 648 315 
L 648 43.2 
L 90 43.2 
z
" style="fill:#ffffff;"/>
   </g>
   <g id="matplotlib.axis_1">
    <g id="xtick_1">
     <g id="line2d_1">
      <path clip-path="url(#p1e6f228bf7)" d="M 115.363636 315 
L 115.363636 43.2 
" style="fill:none;stroke:#b0b0b0;stroke-linecap:square;stroke-width:0.8;"/>
     </g>
     <g id="line2d_2">
      <defs>
       <path d="M 0 0 
L 0 3.5 
" id="m1815fea8ee" style="stroke:#000000;stroke-width:0.8;"/>
      </defs>
      <g>
       <use style="stroke:#000000;stroke-width:0.8;" x="115.363636" xlink:href="#m1815fea8ee" y="315"/>
      </g>
     </g>
     <g id="text_1">
      <!-- 0 -->
      <defs>
       <path d="M 31.78125 66.40625 
Q 24.171875 66.40625 20.328125 58.90625 
Q 16.5 51.421875 16.5 36.375 
Q 16.5 21.390625 20.328125 13.890625 
Q 24.171875 6.390625 31.78125 6.390625 
Q 39.453125 6.390625 43.28125 13.890625 
Q 47.125 21.390625 47.125 36.375 
Q 47.125 51.421875 43.28125 58.90625 
Q 39.453125 66.40625 31.78125 66.40625 
z
M 31.78125 74.21875 
Q 44.046875 74.21875 50.515625 64.515625 
Q 56.984375 54.828125 56.984375 36.375 
Q 56.984375 17.96875 50.515625 8.265625 
Q 44.046875 -1.421875 31.78125 -1.421875 
Q 19.53125 -1.421875 13.0625 8.265625 
Q 6.59375 17.96875 6.59375 36.375 
Q 6.59375 54.828125 13.0625 64.515625 
Q 19.53125 74.21875 31.78125 74.21875 
z
" id="DejaVuSans-48"/>
      </defs>
      <g transform="translate(112.182386 329.598437)scale(0.1 -0.1)">
       <use xlink:href="#DejaVuSans-48"/>
      </g>
     </g>
    </g>
    <g id="xtick_2">
     <g id="line2d_3">
      <path clip-path="url(#p1e6f228bf7)" d="M 228.090909 315 
L 228.090909 43.2 
" style="fill:none;stroke:#b0b0b0;stroke-linecap:square;stroke-width:0.8;"/>
     </g>
     <g id="line2d_4">
      <g>
       <use style="stroke:#000000;stroke-width:0.8;" x="228.090909" xlink:href="#m1815fea8ee" y="315"/>
      </g>
     </g>
     <g id="text_2">
      <!-- 200 -->
      <defs>
       <path d="M 19.1875 8.296875 
L 53.609375 8.296875 
L 53.609375 0 
L 7.328125 0 
L 7.328125 8.296875 
Q 12.9375 14.109375 22.625 23.890625 
Q 32.328125 33.6875 34.8125 36.53125 
Q 39.546875 41.84375 41.421875 45.53125 
Q 43.3125 49.21875 43.3125 52.78125 
Q 43.3125 58.59375 39.234375 62.25 
Q 35.15625 65.921875 28.609375 65.921875 
Q 23.96875 65.921875 18.8125 64.3125 
Q 13.671875 62.703125 7.8125 59.421875 
L 7.8125 69.390625 
Q 13.765625 71.78125 18.9375 73 
Q 24.125 74.21875 28.421875 74.21875 
Q 39.75 74.21875 46.484375 68.546875 
Q 53.21875 62.890625 53.21875 53.421875 
Q 53.21875 48.921875 51.53125 44.890625 
Q 49.859375 40.875 45.40625 35.40625 
Q 44.1875 33.984375 37.640625 27.21875 
Q 31.109375 20.453125 19.1875 8.296875 
z
" id="DejaVuSans-50"/>
      </defs>
      <g transform="translate(218.547159 329.598437)scale(0.1 -0.1)">
       <use xlink:href="#DejaVuSans-50"/>
       <use x="63.623047" xlink:href="#DejaVuSans-48"/>
       <use x="127.246094" xlink:href="#DejaVuSans-48"/>
      </g>
     </g>
    </g>
    <g id="xtick_3">
     <g id="line2d_5">
      <path clip-path="url(#p1e6f228bf7)" d="M 340.818182 315 
L 340.818182 43.2 
" style="fill:none;stroke:#b0b0b0;stroke-linecap:square;stroke-width:0.8;"/>
     </g>
     <g id="line2d_6">
      <g>
       <use style="stroke:#000000;stroke-width:0.8;" x="340.818182" xlink:href="#m1815fea8ee" y="315"/>
      </g>
     </g>
     <g id="text_3">
      <!-- 400 -->
      <defs>
       <path d="M 37.796875 64.3125 
L 12.890625 25.390625 
L 37.796875 25.390625 
z
M 35.203125 72.90625 
L 47.609375 72.90625 
L 47.609375 25.390625 
L 58.015625 25.390625 
L 58.015625 17.1875 
L 47.609375 17.1875 
L 47.609375 0 
L 37.796875 0 
L 37.796875 17.1875 
L 4.890625 17.1875 
L 4.890625 26.703125 
z
" id="DejaVuSans-52"/>
      </defs>
      <g transform="translate(331.274432 329.598437)scale(0.1 -0.1)">
       <use xlink:href="#DejaVuSans-52"/>
       <use x="63.623047" xlink:href="#DejaVuSans-48"/>
       <use x="127.246094" xlink:href="#DejaVuSans-48"/>
      </g>
     </g>
    </g>
    <g id="xtick_4">
     <g id="line2d_7">
      <path clip-path="url(#p1e6f228bf7)" d="M 453.545455 315 
L 453.545455 43.2 
" style="fill:none;stroke:#b0b0b0;stroke-linecap:square;stroke-width:0.8;"/>
     </g>
     <g id="line2d_8">
      <g>
       <use style="stroke:#000000;stroke-width:0.8;" x="453.545455" xlink:href="#m1815fea8ee" y="315"/>
      </g>
     </g>
     <g id="text_4">
      <!-- 600 -->
      <defs>
       <path d="M 33.015625 40.375 
Q 26.375 40.375 22.484375 35.828125 
Q 18.609375 31.296875 18.609375 23.390625 
Q 18.609375 15.53125 22.484375 10.953125 
Q 26.375 6.390625 33.015625 6.390625 
Q 39.65625 6.390625 43.53125 10.953125 
Q 47.40625 15.53125 47.40625 23.390625 
Q 47.40625 31.296875 43.53125 35.828125 
Q 39.65625 40.375 33.015625 40.375 
z
M 52.59375 71.296875 
L 52.59375 62.3125 
Q 48.875 64.0625 45.09375 64.984375 
Q 41.3125 65.921875 37.59375 65.921875 
Q 27.828125 65.921875 22.671875 59.328125 
Q 17.53125 52.734375 16.796875 39.40625 
Q 19.671875 43.65625 24.015625 45.921875 
Q 28.375 48.1875 33.59375 48.1875 
Q 44.578125 48.1875 50.953125 41.515625 
Q 57.328125 34.859375 57.328125 23.390625 
Q 57.328125 12.15625 50.6875 5.359375 
Q 44.046875 -1.421875 33.015625 -1.421875 
Q 20.359375 -1.421875 13.671875 8.265625 
Q 6.984375 17.96875 6.984375 36.375 
Q 6.984375 53.65625 15.1875 63.9375 
Q 23.390625 74.21875 37.203125 74.21875 
Q 40.921875 74.21875 44.703125 73.484375 
Q 48.484375 72.75 52.59375 71.296875 
z
" id="DejaVuSans-54"/>
      </defs>
      <g transform="translate(444.001705 329.598437)scale(0.1 -0.1)">
       <use xlink:href="#DejaVuSans-54"/>
       <use x="63.623047" xlink:href="#DejaVuSans-48"/>
       <use x="127.246094" xlink:href="#DejaVuSans-48"/>
      </g>
     </g>
    </g>
    <g id="xtick_5">
     <g id="line2d_9">
      <path clip-path="url(#p1e6f228bf7)" d="M 566.272727 315 
L 566.272727 43.2 
" style="fill:none;stroke:#b0b0b0;stroke-linecap:square;stroke-width:0.8;"/>
     </g>
     <g id="line2d_10">
      <g>
       <use style="stroke:#000000;stroke-width:0.8;" x="566.272727" xlink:href="#m1815fea8ee" y="315"/>
      </g>
     </g>
     <g id="text_5">
      <!-- 800 -->
      <defs>
       <path d="M 31.78125 34.625 
Q 24.75 34.625 20.71875 30.859375 
Q 16.703125 27.09375 16.703125 20.515625 
Q 16.703125 13.921875 20.71875 10.15625 
Q 24.75 6.390625 31.78125 6.390625 
Q 38.8125 6.390625 42.859375 10.171875 
Q 46.921875 13.96875 46.921875 20.515625 
Q 46.921875 27.09375 42.890625 30.859375 
Q 38.875 34.625 31.78125 34.625 
z
M 21.921875 38.8125 
Q 15.578125 40.375 12.03125 44.71875 
Q 8.5 49.078125 8.5 55.328125 
Q 8.5 64.0625 14.71875 69.140625 
Q 20.953125 74.21875 31.78125 74.21875 
Q 42.671875 74.21875 48.875 69.140625 
Q 55.078125 64.0625 55.078125 55.328125 
Q 55.078125 49.078125 51.53125 44.71875 
Q 48 40.375 41.703125 38.8125 
Q 48.828125 37.15625 52.796875 32.3125 
Q 56.78125 27.484375 56.78125 20.515625 
Q 56.78125 9.90625 50.3125 4.234375 
Q 43.84375 -1.421875 31.78125 -1.421875 
Q 19.734375 -1.421875 13.25 4.234375 
Q 6.78125 9.90625 6.78125 20.515625 
Q 6.78125 27.484375 10.78125 32.3125 
Q 14.796875 37.15625 21.921875 38.8125 
z
M 18.3125 54.390625 
Q 18.3125 48.734375 21.84375 45.5625 
Q 25.390625 42.390625 31.78125 42.390625 
Q 38.140625 42.390625 41.71875 45.5625 
Q 45.3125 48.734375 45.3125 54.390625 
Q 45.3125 60.0625 41.71875 63.234375 
Q 38.140625 66.40625 31.78125 66.40625 
Q 25.390625 66.40625 21.84375 63.234375 
Q 18.3125 60.0625 18.3125 54.390625 
z
" id="DejaVuSans-56"/>
      </defs>
      <g transform="translate(556.728977 329.598437)scale(0.1 -0.1)">
       <use xlink:href="#DejaVuSans-56"/>
       <use x="63.623047" xlink:href="#DejaVuSans-48"/>
       <use x="127.246094" xlink:href="#DejaVuSans-48"/>
      </g>
     </g>
    </g>
    <g id="text_6">
     <!-- epoch -->
     <defs>
      <path d="M 56.203125 29.59375 
L 56.203125 25.203125 
L 14.890625 25.203125 
Q 15.484375 15.921875 20.484375 11.0625 
Q 25.484375 6.203125 34.421875 6.203125 
Q 39.59375 6.203125 44.453125 7.46875 
Q 49.3125 8.734375 54.109375 11.28125 
L 54.109375 2.78125 
Q 49.265625 0.734375 44.1875 -0.34375 
Q 39.109375 -1.421875 33.890625 -1.421875 
Q 20.796875 -1.421875 13.15625 6.1875 
Q 5.515625 13.8125 5.515625 26.8125 
Q 5.515625 40.234375 12.765625 48.109375 
Q 20.015625 56 32.328125 56 
Q 43.359375 56 49.78125 48.890625 
Q 56.203125 41.796875 56.203125 29.59375 
z
M 47.21875 32.234375 
Q 47.125 39.59375 43.09375 43.984375 
Q 39.0625 48.390625 32.421875 48.390625 
Q 24.90625 48.390625 20.390625 44.140625 
Q 15.875 39.890625 15.1875 32.171875 
z
" id="DejaVuSans-101"/>
      <path d="M 18.109375 8.203125 
L 18.109375 -20.796875 
L 9.078125 -20.796875 
L 9.078125 54.6875 
L 18.109375 54.6875 
L 18.109375 46.390625 
Q 20.953125 51.265625 25.265625 53.625 
Q 29.59375 56 35.59375 56 
Q 45.5625 56 51.78125 48.09375 
Q 58.015625 40.1875 58.015625 27.296875 
Q 58.015625 14.40625 51.78125 6.484375 
Q 45.5625 -1.421875 35.59375 -1.421875 
Q 29.59375 -1.421875 25.265625 0.953125 
Q 20.953125 3.328125 18.109375 8.203125 
z
M 48.6875 27.296875 
Q 48.6875 37.203125 44.609375 42.84375 
Q 40.53125 48.484375 33.40625 48.484375 
Q 26.265625 48.484375 22.1875 42.84375 
Q 18.109375 37.203125 18.109375 27.296875 
Q 18.109375 17.390625 22.1875 11.75 
Q 26.265625 6.109375 33.40625 6.109375 
Q 40.53125 6.109375 44.609375 11.75 
Q 48.6875 17.390625 48.6875 27.296875 
z
" id="DejaVuSans-112"/>
      <path d="M 30.609375 48.390625 
Q 23.390625 48.390625 19.1875 42.75 
Q 14.984375 37.109375 14.984375 27.296875 
Q 14.984375 17.484375 19.15625 11.84375 
Q 23.34375 6.203125 30.609375 6.203125 
Q 37.796875 6.203125 41.984375 11.859375 
Q 46.1875 17.53125 46.1875 27.296875 
Q 46.1875 37.015625 41.984375 42.703125 
Q 37.796875 48.390625 30.609375 48.390625 
z
M 30.609375 56 
Q 42.328125 56 49.015625 48.375 
Q 55.71875 40.765625 55.71875 27.296875 
Q 55.71875 13.875 49.015625 6.21875 
Q 42.328125 -1.421875 30.609375 -1.421875 
Q 18.84375 -1.421875 12.171875 6.21875 
Q 5.515625 13.875 5.515625 27.296875 
Q 5.515625 40.765625 12.171875 48.375 
Q 18.84375 56 30.609375 56 
z
" id="DejaVuSans-111"/>
      <path d="M 48.78125 52.59375 
L 48.78125 44.1875 
Q 44.96875 46.296875 41.140625 47.34375 
Q 37.3125 48.390625 33.40625 48.390625 
Q 24.65625 48.390625 19.8125 42.84375 
Q 14.984375 37.3125 14.984375 27.296875 
Q 14.984375 17.28125 19.8125 11.734375 
Q 24.65625 6.203125 33.40625 6.203125 
Q 37.3125 6.203125 41.140625 7.25 
Q 44.96875 8.296875 48.78125 10.40625 
L 48.78125 2.09375 
Q 45.015625 0.34375 40.984375 -0.53125 
Q 36.96875 -1.421875 32.421875 -1.421875 
Q 20.0625 -1.421875 12.78125 6.34375 
Q 5.515625 14.109375 5.515625 27.296875 
Q 5.515625 40.671875 12.859375 48.328125 
Q 20.21875 56 33.015625 56 
Q 37.15625 56 41.109375 55.140625 
Q 45.0625 54.296875 48.78125 52.59375 
z
" id="DejaVuSans-99"/>
      <path d="M 54.890625 33.015625 
L 54.890625 0 
L 45.90625 0 
L 45.90625 32.71875 
Q 45.90625 40.484375 42.875 44.328125 
Q 39.84375 48.1875 33.796875 48.1875 
Q 26.515625 48.1875 22.3125 43.546875 
Q 18.109375 38.921875 18.109375 30.90625 
L 18.109375 0 
L 9.078125 0 
L 9.078125 75.984375 
L 18.109375 75.984375 
L 18.109375 46.1875 
Q 21.34375 51.125 25.703125 53.5625 
Q 30.078125 56 35.796875 56 
Q 45.21875 56 50.046875 50.171875 
Q 54.890625 44.34375 54.890625 33.015625 
z
" id="DejaVuSans-104"/>
     </defs>
     <g transform="translate(353.771875 343.276563)scale(0.1 -0.1)">
      <use xlink:href="#DejaVuSans-101"/>
      <use x="61.523438" xlink:href="#DejaVuSans-112"/>
      <use x="125" xlink:href="#DejaVuSans-111"/>
      <use x="186.181641" xlink:href="#DejaVuSans-99"/>
      <use x="241.162109" xlink:href="#DejaVuSans-104"/>
     </g>
    </g>
   </g>
   <g id="matplotlib.axis_2">
    <g id="ytick_1">
     <g id="line2d_11">
      <path clip-path="url(#p1e6f228bf7)" d="M 90 287.709325 
L 648 287.709325 
" style="fill:none;stroke:#b0b0b0;stroke-linecap:square;stroke-width:0.8;"/>
     </g>
     <g id="line2d_12">
      <defs>
       <path d="M 0 0 
L -3.5 0 
" id="m73547cc729" style="stroke:#000000;stroke-width:0.8;"/>
      </defs>
      <g>
       <use style="stroke:#000000;stroke-width:0.8;" x="90" xlink:href="#m73547cc729" y="287.709325"/>
      </g>
     </g>
     <g id="text_7">
      <!-- 0.2 -->
      <defs>
       <path d="M 10.6875 12.40625 
L 21 12.40625 
L 21 0 
L 10.6875 0 
z
" id="DejaVuSans-46"/>
      </defs>
      <g transform="translate(67.096875 291.508543)scale(0.1 -0.1)">
       <use xlink:href="#DejaVuSans-48"/>
       <use x="63.623047" xlink:href="#DejaVuSans-46"/>
       <use x="95.410156" xlink:href="#DejaVuSans-50"/>
      </g>
     </g>
    </g>
    <g id="ytick_2">
     <g id="line2d_13">
      <path clip-path="url(#p1e6f228bf7)" d="M 90 255.177571 
L 648 255.177571 
" style="fill:none;stroke:#b0b0b0;stroke-linecap:square;stroke-width:0.8;"/>
     </g>
     <g id="line2d_14">
      <g>
       <use style="stroke:#000000;stroke-width:0.8;" x="90" xlink:href="#m73547cc729" y="255.177571"/>
      </g>
     </g>
     <g id="text_8">
      <!-- 0.4 -->
      <g transform="translate(67.096875 258.976789)scale(0.1 -0.1)">
       <use xlink:href="#DejaVuSans-48"/>
       <use x="63.623047" xlink:href="#DejaVuSans-46"/>
       <use x="95.410156" xlink:href="#DejaVuSans-52"/>
      </g>
     </g>
    </g>
    <g id="ytick_3">
     <g id="line2d_15">
      <path clip-path="url(#p1e6f228bf7)" d="M 90 222.645817 
L 648 222.645817 
" style="fill:none;stroke:#b0b0b0;stroke-linecap:square;stroke-width:0.8;"/>
     </g>
     <g id="line2d_16">
      <g>
       <use style="stroke:#000000;stroke-width:0.8;" x="90" xlink:href="#m73547cc729" y="222.645817"/>
      </g>
     </g>
     <g id="text_9">
      <!-- 0.6 -->
      <g transform="translate(67.096875 226.445035)scale(0.1 -0.1)">
       <use xlink:href="#DejaVuSans-48"/>
       <use x="63.623047" xlink:href="#DejaVuSans-46"/>
       <use x="95.410156" xlink:href="#DejaVuSans-54"/>
      </g>
     </g>
    </g>
    <g id="ytick_4">
     <g id="line2d_17">
      <path clip-path="url(#p1e6f228bf7)" d="M 90 190.114063 
L 648 190.114063 
" style="fill:none;stroke:#b0b0b0;stroke-linecap:square;stroke-width:0.8;"/>
     </g>
     <g id="line2d_18">
      <g>
       <use style="stroke:#000000;stroke-width:0.8;" x="90" xlink:href="#m73547cc729" y="190.114063"/>
      </g>
     </g>
     <g id="text_10">
      <!-- 0.8 -->
      <g transform="translate(67.096875 193.913281)scale(0.1 -0.1)">
       <use xlink:href="#DejaVuSans-48"/>
       <use x="63.623047" xlink:href="#DejaVuSans-46"/>
       <use x="95.410156" xlink:href="#DejaVuSans-56"/>
      </g>
     </g>
    </g>
    <g id="ytick_5">
     <g id="line2d_19">
      <path clip-path="url(#p1e6f228bf7)" d="M 90 157.582309 
L 648 157.582309 
" style="fill:none;stroke:#b0b0b0;stroke-linecap:square;stroke-width:0.8;"/>
     </g>
     <g id="line2d_20">
      <g>
       <use style="stroke:#000000;stroke-width:0.8;" x="90" xlink:href="#m73547cc729" y="157.582309"/>
      </g>
     </g>
     <g id="text_11">
      <!-- 1.0 -->
      <defs>
       <path d="M 12.40625 8.296875 
L 28.515625 8.296875 
L 28.515625 63.921875 
L 10.984375 60.40625 
L 10.984375 69.390625 
L 28.421875 72.90625 
L 38.28125 72.90625 
L 38.28125 8.296875 
L 54.390625 8.296875 
L 54.390625 0 
L 12.40625 0 
z
" id="DejaVuSans-49"/>
      </defs>
      <g transform="translate(67.096875 161.381527)scale(0.1 -0.1)">
       <use xlink:href="#DejaVuSans-49"/>
       <use x="63.623047" xlink:href="#DejaVuSans-46"/>
       <use x="95.410156" xlink:href="#DejaVuSans-48"/>
      </g>
     </g>
    </g>
    <g id="ytick_6">
     <g id="line2d_21">
      <path clip-path="url(#p1e6f228bf7)" d="M 90 125.050555 
L 648 125.050555 
" style="fill:none;stroke:#b0b0b0;stroke-linecap:square;stroke-width:0.8;"/>
     </g>
     <g id="line2d_22">
      <g>
       <use style="stroke:#000000;stroke-width:0.8;" x="90" xlink:href="#m73547cc729" y="125.050555"/>
      </g>
     </g>
     <g id="text_12">
      <!-- 1.2 -->
      <g transform="translate(67.096875 128.849773)scale(0.1 -0.1)">
       <use xlink:href="#DejaVuSans-49"/>
       <use x="63.623047" xlink:href="#DejaVuSans-46"/>
       <use x="95.410156" xlink:href="#DejaVuSans-50"/>
      </g>
     </g>
    </g>
    <g id="ytick_7">
     <g id="line2d_23">
      <path clip-path="url(#p1e6f228bf7)" d="M 90 92.518801 
L 648 92.518801 
" style="fill:none;stroke:#b0b0b0;stroke-linecap:square;stroke-width:0.8;"/>
     </g>
     <g id="line2d_24">
      <g>
       <use style="stroke:#000000;stroke-width:0.8;" x="90" xlink:href="#m73547cc729" y="92.518801"/>
      </g>
     </g>
     <g id="text_13">
      <!-- 1.4 -->
      <g transform="translate(67.096875 96.318019)scale(0.1 -0.1)">
       <use xlink:href="#DejaVuSans-49"/>
       <use x="63.623047" xlink:href="#DejaVuSans-46"/>
       <use x="95.410156" xlink:href="#DejaVuSans-52"/>
      </g>
     </g>
    </g>
    <g id="ytick_8">
     <g id="line2d_25">
      <path clip-path="url(#p1e6f228bf7)" d="M 90 59.987047 
L 648 59.987047 
" style="fill:none;stroke:#b0b0b0;stroke-linecap:square;stroke-width:0.8;"/>
     </g>
     <g id="line2d_26">
      <g>
       <use style="stroke:#000000;stroke-width:0.8;" x="90" xlink:href="#m73547cc729" y="59.987047"/>
      </g>
     </g>
     <g id="text_14">
      <!-- 1.6 -->
      <g transform="translate(67.096875 63.786265)scale(0.1 -0.1)">
       <use xlink:href="#DejaVuSans-49"/>
       <use x="63.623047" xlink:href="#DejaVuSans-46"/>
       <use x="95.410156" xlink:href="#DejaVuSans-54"/>
      </g>
     </g>
    </g>
    <g id="text_15">
     <!-- loss -->
     <defs>
      <path d="M 9.421875 75.984375 
L 18.40625 75.984375 
L 18.40625 0 
L 9.421875 0 
z
" id="DejaVuSans-108"/>
      <path d="M 44.28125 53.078125 
L 44.28125 44.578125 
Q 40.484375 46.53125 36.375 47.5 
Q 32.28125 48.484375 27.875 48.484375 
Q 21.1875 48.484375 17.84375 46.4375 
Q 14.5 44.390625 14.5 40.28125 
Q 14.5 37.15625 16.890625 35.375 
Q 19.28125 33.59375 26.515625 31.984375 
L 29.59375 31.296875 
Q 39.15625 29.25 43.1875 25.515625 
Q 47.21875 21.78125 47.21875 15.09375 
Q 47.21875 7.46875 41.1875 3.015625 
Q 35.15625 -1.421875 24.609375 -1.421875 
Q 20.21875 -1.421875 15.453125 -0.5625 
Q 10.6875 0.296875 5.421875 2 
L 5.421875 11.28125 
Q 10.40625 8.6875 15.234375 7.390625 
Q 20.0625 6.109375 24.8125 6.109375 
Q 31.15625 6.109375 34.5625 8.28125 
Q 37.984375 10.453125 37.984375 14.40625 
Q 37.984375 18.0625 35.515625 20.015625 
Q 33.0625 21.96875 24.703125 23.78125 
L 21.578125 24.515625 
Q 13.234375 26.265625 9.515625 29.90625 
Q 5.8125 33.546875 5.8125 39.890625 
Q 5.8125 47.609375 11.28125 51.796875 
Q 16.75 56 26.8125 56 
Q 31.78125 56 36.171875 55.265625 
Q 40.578125 54.546875 44.28125 53.078125 
z
" id="DejaVuSans-115"/>
     </defs>
     <g transform="translate(61.017187 188.757812)rotate(-90)scale(0.1 -0.1)">
      <use xlink:href="#DejaVuSans-108"/>
      <use x="27.783203" xlink:href="#DejaVuSans-111"/>
      <use x="88.964844" xlink:href="#DejaVuSans-115"/>
      <use x="141.064453" xlink:href="#DejaVuSans-115"/>
     </g>
    </g>
   </g>
   <g id="line2d_27">
    <path clip-path="url(#p1e6f228bf7)" d="M 115.363636 55.554545 
L 115.927273 66.545569 
L 116.490909 71.210973 
L 117.054545 72.49356 
L 117.618182 74.82801 
L 118.181818 80.665106 
L 118.745455 79.341904 
L 119.309091 81.428723 
L 119.872727 82.787016 
L 120.436364 82.967572 
L 121 88.490315 
L 121.563636 84.060312 
L 122.127273 84.774482 
L 122.690909 88.775103 
L 123.254545 86.965018 
L 123.818182 89.356921 
L 124.381818 89.064713 
L 124.945455 91.405328 
L 125.509091 91.229789 
L 126.072727 93.513663 
L 126.636364 92.178646 
L 127.2 94.552525 
L 127.763636 95.190368 
L 128.327273 95.101284 
L 128.890909 95.547949 
L 129.454545 99.092492 
L 130.018182 99.467068 
L 130.581818 100.206252 
L 131.709091 103.566775 
L 132.272727 109.254844 
L 132.836364 108.91263 
L 133.4 111.949741 
L 133.963636 112.604687 
L 134.527273 116.051423 
L 135.090909 118.031095 
L 135.654545 123.086129 
L 136.218182 126.079726 
L 136.781818 128.343009 
L 137.345455 132.556413 
L 138.472727 137.032917 
L 139.036364 140.694595 
L 139.6 145.590974 
L 140.163636 147.354022 
L 140.727273 151.687439 
L 141.290909 153.579508 
L 141.854545 155.911083 
L 142.981818 164.220371 
L 143.545455 164.297939 
L 144.109091 169.036537 
L 144.672727 171.35182 
L 145.236364 175.869339 
L 145.8 175.128568 
L 146.927273 182.594669 
L 147.490909 184.784809 
L 148.054545 185.437137 
L 148.618182 191.071866 
L 149.745455 193.429274 
L 150.309091 197.231603 
L 150.872727 198.161266 
L 151.436364 198.492319 
L 152 202.571035 
L 152.563636 202.24825 
L 153.127273 206.215663 
L 153.690909 207.603888 
L 154.254545 208.323029 
L 154.818182 210.452153 
L 155.381818 209.444942 
L 155.945455 211.913634 
L 156.509091 212.763803 
L 157.072727 214.021184 
L 158.2 214.93735 
L 158.763636 214.500125 
L 159.890909 219.223117 
L 160.454545 217.339121 
L 161.018182 220.943738 
L 161.581818 222.831723 
L 162.145455 221.712799 
L 162.709091 223.795458 
L 163.272727 221.82654 
L 163.836364 223.492292 
L 164.4 224.671131 
L 164.963636 227.408107 
L 165.527273 227.20922 
L 166.090909 228.88213 
L 166.654545 229.873236 
L 167.218182 231.194022 
L 167.781818 230.257385 
L 168.345455 229.803663 
L 168.909091 230.950783 
L 169.472727 232.961042 
L 170.036364 234.216299 
L 170.6 233.492948 
L 171.163636 234.8869 
L 171.727273 234.532599 
L 172.290909 238.679877 
L 172.854545 237.366158 
L 173.418182 237.630647 
L 173.981818 238.093617 
L 174.545455 237.470643 
L 175.109091 238.758993 
L 175.672727 237.633568 
L 176.236364 237.645553 
L 176.8 239.183752 
L 177.363636 239.858076 
L 177.927273 243.860774 
L 178.490909 239.763982 
L 179.054545 243.054667 
L 179.618182 244.702363 
L 180.181818 241.367429 
L 181.309091 244.615055 
L 181.872727 241.551259 
L 182.436364 242.89049 
L 183 245.20998 
L 183.563636 242.6448 
L 184.127273 246.338294 
L 184.690909 246.296618 
L 185.254545 246.51289 
L 185.818182 244.349305 
L 186.381818 246.371418 
L 186.945455 245.854642 
L 187.509091 246.252761 
L 188.072727 249.861725 
L 188.636364 250.30338 
L 189.2 248.098755 
L 189.763636 249.175133 
L 190.327273 249.612729 
L 190.890909 250.284309 
L 191.454545 251.753213 
L 192.018182 248.844411 
L 192.581818 250.024226 
L 193.145455 253.333058 
L 193.709091 249.824319 
L 194.272727 251.126309 
L 194.836364 249.901667 
L 195.4 252.126168 
L 196.527273 253.428088 
L 197.090909 254.596098 
L 197.654545 252.56275 
L 198.218182 254.578391 
L 198.781818 254.880619 
L 199.345455 254.011451 
L 199.909091 254.438253 
L 200.472727 255.653975 
L 201.036364 255.622498 
L 201.6 256.591311 
L 202.163636 255.042093 
L 202.727273 257.124884 
L 203.290909 254.891034 
L 203.854545 253.120341 
L 204.981818 256.815474 
L 205.545455 255.544951 
L 206.109091 258.790346 
L 206.672727 255.936743 
L 207.236364 258.980968 
L 207.8 256.868249 
L 208.363636 258.795337 
L 208.927273 258.29691 
L 209.490909 258.972114 
L 210.618182 259.786346 
L 211.181818 261.497184 
L 211.745455 258.747709 
L 212.309091 259.545795 
L 212.872727 258.657866 
L 213.436364 261.520133 
L 214 261.328102 
L 214.563636 259.636975 
L 215.127273 260.451525 
L 215.690909 262.055243 
L 216.254545 260.350556 
L 216.818182 260.369396 
L 217.381818 260.593327 
L 217.945455 259.760574 
L 218.509091 263.714348 
L 219.072727 262.510253 
L 219.636364 262.038682 
L 220.2 263.445911 
L 221.327273 261.992997 
L 221.890909 262.161969 
L 222.454545 261.54936 
L 223.018182 262.542089 
L 223.581818 261.103288 
L 224.145455 261.041095 
L 224.709091 263.710631 
L 225.272727 261.543734 
L 225.836364 262.621924 
L 226.4 263.242756 
L 226.963636 264.136097 
L 227.527273 262.256163 
L 228.090909 265.46574 
L 228.654545 264.709665 
L 229.218182 265.079345 
L 229.781818 266.428029 
L 230.345455 264.8899 
L 230.909091 265.441232 
L 231.472727 266.513529 
L 232.036364 266.121055 
L 232.6 265.440497 
L 233.163636 264.034712 
L 233.727273 266.444982 
L 234.854545 265.285902 
L 235.981818 267.653539 
L 236.545455 264.947038 
L 237.109091 268.539325 
L 237.672727 265.569573 
L 238.8 267.955079 
L 239.363636 266.343309 
L 239.927273 267.996434 
L 240.490909 267.512513 
L 241.054545 267.721803 
L 241.618182 267.297348 
L 242.745455 268.842478 
L 243.309091 268.828568 
L 243.872727 268.622261 
L 244.436364 269.523753 
L 245 269.861007 
L 245.563636 268.699556 
L 246.127273 270.820402 
L 246.690909 270.448407 
L 247.254545 269.586925 
L 247.818182 270.461609 
L 248.381818 272.402328 
L 249.509091 268.768073 
L 250.072727 271.290266 
L 250.636364 270.911028 
L 251.2 269.500278 
L 251.763636 270.558062 
L 252.327273 272.057475 
L 252.890909 272.61585 
L 253.454545 269.059738 
L 254.018182 270.472589 
L 254.581818 270.289802 
L 255.145455 271.118405 
L 255.709091 272.549669 
L 256.272727 271.763265 
L 256.836364 273.103383 
L 257.4 273.640844 
L 257.963636 272.366724 
L 258.527273 271.58709 
L 259.090909 273.88857 
L 259.654545 269.665638 
L 260.218182 270.270591 
L 260.781818 272.688873 
L 261.345455 272.00641 
L 261.909091 272.828653 
L 262.472727 273.213154 
L 263.036364 270.835253 
L 263.6 271.320704 
L 264.163636 272.673863 
L 264.727273 275.639765 
L 265.854545 273.763234 
L 266.418182 271.833092 
L 266.981818 273.383399 
L 267.545455 274.330621 
L 268.672727 273.352938 
L 269.236364 274.165374 
L 269.8 273.696541 
L 270.363636 273.74286 
L 270.927273 273.616189 
L 271.490909 273.696548 
L 272.618182 273.234913 
L 273.745455 274.261567 
L 274.309091 275.459503 
L 274.872727 274.01403 
L 275.436364 274.426066 
L 276 275.795212 
L 276.563636 276.091979 
L 277.127273 274.942752 
L 277.690909 273.485759 
L 278.254545 277.912794 
L 278.818182 275.136413 
L 279.381818 276.756119 
L 279.945455 275.874532 
L 280.509091 276.266233 
L 281.072727 273.848639 
L 281.636364 273.961044 
L 282.2 278.511803 
L 282.763636 276.473399 
L 283.327273 277.249923 
L 285.018182 277.145401 
L 285.581818 275.813613 
L 286.145455 275.647938 
L 286.709091 276.533422 
L 287.272727 275.521817 
L 287.836364 278.352681 
L 288.4 277.860208 
L 288.963636 277.907587 
L 289.527273 276.860483 
L 290.090909 278.771597 
L 290.654545 277.783244 
L 291.218182 279.098565 
L 291.781818 279.170462 
L 292.345455 278.636426 
L 292.909091 276.988585 
L 293.472727 276.960282 
L 294.036364 278.467675 
L 294.6 278.862837 
L 295.727273 278.544427 
L 296.290909 278.948641 
L 296.854545 277.639279 
L 297.418182 279.51814 
L 297.981818 278.30371 
L 298.545455 278.451482 
L 299.109091 279.803133 
L 299.672727 276.404703 
L 300.236364 278.703743 
L 300.8 278.956745 
L 301.363636 279.656414 
L 301.927273 281.139486 
L 302.490909 278.706851 
L 303.054545 280.718694 
L 303.618182 279.257823 
L 304.181818 280.76952 
L 304.745455 281.002635 
L 305.309091 279.014386 
L 305.872727 282.028767 
L 306.436364 279.550913 
L 307 279.424897 
L 308.127273 281.891395 
L 308.690909 280.059709 
L 309.254545 279.772472 
L 309.818182 278.775779 
L 310.945455 282.075975 
L 311.509091 279.865051 
L 312.072727 281.220741 
L 312.636364 279.787683 
L 313.2 282.07838 
L 313.763636 280.325101 
L 314.327273 282.128918 
L 314.890909 279.884706 
L 315.454545 280.911141 
L 316.018182 279.54574 
L 316.581818 280.143051 
L 317.145455 279.528218 
L 317.709091 280.442184 
L 318.272727 283.906474 
L 318.836364 281.842706 
L 319.4 280.865564 
L 319.963636 282.30906 
L 320.527273 282.17991 
L 321.090909 283.224747 
L 321.654545 282.113743 
L 322.218182 281.96697 
L 322.781818 281.209999 
L 323.345455 281.185884 
L 323.909091 280.463144 
L 324.472727 281.943533 
L 325.036364 284.273204 
L 325.6 281.275826 
L 326.163636 282.296435 
L 326.727273 282.027376 
L 327.290909 283.355148 
L 327.854545 283.427198 
L 328.418182 283.857502 
L 328.981818 282.647493 
L 329.545455 283.790175 
L 330.109091 282.640177 
L 330.672727 282.369623 
L 331.236364 281.259798 
L 331.8 282.123804 
L 332.363636 284.065193 
L 332.927273 281.543801 
L 333.490909 283.510905 
L 334.618182 282.417926 
L 335.181818 284.266127 
L 335.745455 286.673148 
L 336.309091 284.096758 
L 336.872727 284.684748 
L 337.436364 282.455471 
L 338 283.203793 
L 338.563636 282.058291 
L 339.127273 282.798993 
L 339.690909 285.758435 
L 340.254545 283.63658 
L 340.818182 283.285184 
L 341.381818 281.867778 
L 341.945455 285.440277 
L 343.072727 282.936829 
L 343.636364 282.712946 
L 344.2 283.287109 
L 344.763636 285.005463 
L 345.327273 283.00861 
L 345.890909 284.796048 
L 346.454545 282.346911 
L 347.018182 285.507595 
L 347.581818 285.700878 
L 348.145455 282.722999 
L 348.709091 283.800576 
L 349.272727 284.098765 
L 349.836364 284.045866 
L 350.4 286.236552 
L 350.963636 285.216193 
L 351.527273 285.002844 
L 352.090909 284.233069 
L 352.654545 286.525635 
L 353.218182 284.770345 
L 353.781818 285.1904 
L 354.345455 284.455919 
L 354.909091 285.064167 
L 355.472727 286.201915 
L 356.036364 283.532503 
L 356.6 283.514288 
L 357.163636 284.844378 
L 357.727273 286.96976 
L 358.290909 284.366589 
L 358.854545 284.103863 
L 359.418182 284.626158 
L 359.981818 283.655958 
L 360.545455 285.931216 
L 361.109091 285.266129 
L 361.672727 285.385156 
L 362.236364 286.048756 
L 362.8 285.867305 
L 363.363636 284.964065 
L 363.927273 285.493839 
L 364.490909 284.590892 
L 365.054545 286.053259 
L 365.618182 286.821139 
L 366.181818 283.398733 
L 366.745455 285.648588 
L 367.309091 289.304912 
L 367.872727 285.147818 
L 368.436364 286.210032 
L 369 286.425463 
L 369.563636 286.097614 
L 370.127273 286.724673 
L 370.690909 285.093961 
L 371.254545 285.253379 
L 371.818182 284.236691 
L 372.381818 286.268945 
L 372.945455 287.249132 
L 373.509091 284.861713 
L 374.072727 286.531934 
L 374.636364 283.88026 
L 375.2 286.287203 
L 375.763636 287.687331 
L 376.327273 287.760652 
L 376.890909 285.81433 
L 377.454545 285.048315 
L 378.018182 288.819353 
L 378.581818 288.346687 
L 379.709091 289.00004 
L 380.272727 287.533938 
L 380.836364 289.133122 
L 381.4 289.225191 
L 381.963636 286.23811 
L 382.527273 288.721157 
L 383.090909 286.570694 
L 383.654545 288.049993 
L 384.218182 286.591681 
L 384.781818 287.772449 
L 385.345455 289.261152 
L 385.909091 287.204483 
L 386.472727 287.759959 
L 387.036364 289.114215 
L 387.6 286.377119 
L 388.163636 286.671612 
L 388.727273 288.047582 
L 389.290909 288.496105 
L 389.854545 286.931514 
L 390.418182 286.815076 
L 390.981818 288.319517 
L 391.545455 287.815401 
L 392.109091 288.18497 
L 392.672727 288.988542 
L 393.236364 288.37033 
L 393.8 287.039614 
L 394.927273 290.524849 
L 395.490909 288.485174 
L 396.054545 288.673216 
L 396.618182 288.713715 
L 397.181818 289.328572 
L 397.745455 288.959158 
L 398.309091 286.330808 
L 398.872727 289.274786 
L 399.436364 288.177534 
L 400 288.420104 
L 400.563636 289.266501 
L 401.127273 287.571988 
L 401.690909 288.532621 
L 402.254545 287.301024 
L 402.818182 288.150907 
L 403.381818 287.957969 
L 403.945455 288.257495 
L 404.509091 288.958573 
L 405.072727 288.986229 
L 406.2 288.638586 
L 406.763636 289.017461 
L 407.327273 289.546673 
L 407.890909 287.592495 
L 408.454545 290.784089 
L 409.018182 288.982781 
L 409.581818 289.177415 
L 410.145455 290.351633 
L 410.709091 289.654872 
L 411.272727 289.482929 
L 411.836364 289.953624 
L 412.4 290.779607 
L 412.963636 288.782209 
L 413.527273 288.793687 
L 414.090909 290.407267 
L 415.218182 288.601985 
L 415.781818 290.075223 
L 416.345455 289.81757 
L 416.909091 290.371888 
L 417.472727 288.758713 
L 418.036364 288.87785 
L 418.6 290.616663 
L 419.163636 290.018254 
L 419.727273 290.199774 
L 420.290909 292.485784 
L 420.854545 290.417529 
L 421.418182 291.483122 
L 421.981818 289.912494 
L 422.545455 290.4684 
L 423.109091 291.912854 
L 423.672727 291.1067 
L 424.236364 290.669224 
L 424.8 290.01786 
L 425.363636 290.789686 
L 425.927273 289.845349 
L 426.490909 292.434914 
L 427.054545 290.194981 
L 427.618182 290.28719 
L 428.181818 291.070962 
L 428.745455 290.393417 
L 429.309091 291.784437 
L 429.872727 290.855438 
L 430.436364 289.570676 
L 431 290.157232 
L 431.563636 290.91011 
L 432.127273 292.720973 
L 432.690909 289.284195 
L 433.254545 290.105152 
L 433.818182 289.416331 
L 434.381818 290.873988 
L 434.945455 289.837709 
L 435.509091 291.955671 
L 436.072727 290.408288 
L 436.636364 290.574441 
L 437.2 289.305586 
L 437.763636 290.49709 
L 438.327273 291.073844 
L 438.890909 291.020833 
L 439.454545 290.692896 
L 440.581818 294.383661 
L 441.145455 289.95364 
L 441.709091 292.661473 
L 442.272727 292.060901 
L 442.836364 290.26973 
L 443.4 289.658278 
L 443.963636 292.744539 
L 444.527273 292.608148 
L 445.090909 292.706511 
L 445.654545 292.503127 
L 446.218182 290.005682 
L 446.781818 292.182835 
L 447.345455 293.866793 
L 447.909091 290.630994 
L 449.036364 292.622311 
L 449.6 292.269257 
L 450.163636 293.701102 
L 450.727273 290.734021 
L 451.290909 293.563759 
L 451.854545 292.395763 
L 452.981818 290.893825 
L 454.109091 294.707789 
L 454.672727 289.874022 
L 455.236364 289.474531 
L 455.8 292.714247 
L 456.363636 292.669775 
L 456.927273 292.022728 
L 458.054545 292.877294 
L 458.618182 291.35773 
L 459.181818 293.862135 
L 459.745455 294.29813 
L 460.309091 291.620938 
L 460.872727 291.458442 
L 461.436364 292.45983 
L 462 291.740768 
L 462.563636 291.931937 
L 463.127273 290.899371 
L 463.690909 292.452686 
L 464.254545 291.732504 
L 464.818182 293.579294 
L 465.381818 293.474498 
L 465.945455 292.98245 
L 466.509091 291.391054 
L 467.072727 292.560544 
L 467.636364 291.555784 
L 468.2 293.405142 
L 468.763636 292.224627 
L 469.327273 292.550784 
L 469.890909 291.628663 
L 470.454545 293.171425 
L 471.018182 295.437373 
L 471.581818 295.510002 
L 472.145455 292.626698 
L 472.709091 291.607018 
L 473.272727 294.0375 
L 473.836364 294.511864 
L 474.4 293.517632 
L 474.963636 293.185822 
L 475.527273 290.831034 
L 476.090909 292.939664 
L 476.654545 291.807927 
L 477.218182 291.3623 
L 477.781818 291.772205 
L 478.345455 293.2848 
L 478.909091 291.854925 
L 479.472727 293.884685 
L 480.036364 293.572511 
L 480.6 293.659498 
L 481.163636 292.794586 
L 481.727273 293.14631 
L 482.290909 292.939336 
L 482.854545 295.217782 
L 483.418182 292.832603 
L 483.981818 291.39498 
L 485.109091 294.777566 
L 485.672727 292.335064 
L 486.236364 293.489677 
L 486.8 295.359402 
L 487.363636 292.867808 
L 487.927273 293.647615 
L 488.490909 293.899325 
L 489.054545 292.361134 
L 489.618182 293.074214 
L 490.181818 293.134761 
L 490.745455 291.750279 
L 491.309091 291.96112 
L 491.872727 294.542477 
L 492.436364 295.061063 
L 493 291.927589 
L 493.563636 293.438283 
L 494.127273 293.509778 
L 494.690909 293.855197 
L 495.254545 293.710523 
L 495.818182 292.483036 
L 496.381818 292.613406 
L 496.945455 295.764548 
L 497.509091 294.55021 
L 498.072727 295.704815 
L 499.2 292.259203 
L 499.763636 293.850596 
L 500.327273 293.877991 
L 500.890909 294.533699 
L 501.454545 294.176072 
L 502.018182 294.319002 
L 502.581818 294.948898 
L 503.145455 296.514426 
L 503.709091 293.170246 
L 504.272727 295.099895 
L 504.836364 295.323201 
L 505.4 294.856727 
L 505.963636 295.188299 
L 506.527273 293.909463 
L 507.090909 295.278843 
L 507.654545 295.212381 
L 508.218182 297.216402 
L 508.781818 294.054342 
L 509.345455 293.784368 
L 509.909091 296.228007 
L 510.472727 294.619176 
L 511.036364 294.963759 
L 511.6 294.256662 
L 512.163636 294.320725 
L 512.727273 295.187385 
L 513.290909 293.887091 
L 513.854545 294.713601 
L 514.418182 295.014157 
L 514.981818 293.033486 
L 515.545455 295.016059 
L 516.109091 295.518196 
L 516.672727 298.498073 
L 517.236364 293.300563 
L 517.8 296.934741 
L 518.363636 294.44239 
L 518.927273 295.304436 
L 519.490909 296.748063 
L 520.054545 295.957079 
L 520.618182 295.515331 
L 521.181818 294.767502 
L 521.745455 294.231767 
L 522.309091 294.696845 
L 522.872727 294.215355 
L 523.436364 296.296325 
L 524 291.576114 
L 524.563636 295.195133 
L 525.127273 294.756498 
L 525.690909 293.87666 
L 526.254545 293.420508 
L 526.818182 295.522762 
L 527.381818 294.391317 
L 527.945455 296.400615 
L 528.509091 294.499546 
L 529.072727 295.885995 
L 529.636364 295.602285 
L 530.2 295.172699 
L 530.763636 297.63084 
L 531.327273 293.307948 
L 531.890909 295.934193 
L 532.454545 295.801278 
L 533.018182 292.938492 
L 533.581818 294.687448 
L 534.145455 297.032159 
L 534.709091 295.237939 
L 535.272727 296.876604 
L 535.836364 295.905732 
L 536.4 295.741541 
L 536.963636 293.823548 
L 537.527273 294.921108 
L 538.090909 294.960713 
L 538.654545 295.92529 
L 539.781818 296.695335 
L 540.345455 297.558441 
L 541.472727 295.153535 
L 542.036364 295.370412 
L 542.6 294.9035 
L 543.163636 297.798395 
L 543.727273 294.898186 
L 544.290909 297.132159 
L 544.854545 294.365407 
L 545.418182 296.502015 
L 545.981818 297.888881 
L 546.545455 296.766153 
L 547.109091 296.681678 
L 547.672727 294.429999 
L 548.236364 296.95896 
L 548.8 295.071512 
L 549.363636 297.945407 
L 549.927273 295.964753 
L 551.054545 296.426005 
L 551.618182 294.760131 
L 552.181818 296.798754 
L 552.745455 297.26957 
L 553.309091 295.993857 
L 553.872727 296.482913 
L 555 298.20519 
L 555.563636 296.218306 
L 556.127273 297.588185 
L 556.690909 296.550405 
L 557.254545 296.384549 
L 557.818182 295.928781 
L 558.381818 297.60158 
L 558.945455 297.477365 
L 559.509091 297.876615 
L 560.072727 297.185728 
L 560.636364 298.685596 
L 561.2 297.654221 
L 561.763636 297.2776 
L 562.327273 296.562493 
L 562.890909 298.10875 
L 563.454545 296.131266 
L 564.018182 296.60416 
L 564.581818 299.290497 
L 565.145455 298.611689 
L 565.709091 295.000639 
L 566.272727 295.654662 
L 566.836364 297.656396 
L 567.4 297.580292 
L 567.963636 295.854316 
L 568.527273 296.67621 
L 569.090909 295.560141 
L 569.654545 298.470855 
L 570.218182 297.37419 
L 570.781818 297.982304 
L 571.345455 296.696176 
L 571.909091 297.812788 
L 572.472727 296.774904 
L 573.036364 296.110598 
L 573.6 298.496081 
L 574.163636 296.705254 
L 574.727273 297.763093 
L 575.290909 296.113118 
L 575.854545 298.314725 
L 576.418182 298.45136 
L 576.981818 296.063005 
L 577.545455 296.150474 
L 578.109091 297.141259 
L 578.672727 297.827284 
L 579.236364 297.449409 
L 579.8 299.182203 
L 580.363636 295.131661 
L 580.927273 298.361722 
L 581.490909 297.647358 
L 582.054545 297.300651 
L 582.618182 297.8492 
L 583.181818 297.819388 
L 583.745455 298.214259 
L 584.309091 297.79893 
L 584.872727 296.285912 
L 585.436364 298.142372 
L 586 297.77384 
L 586.563636 297.540401 
L 587.127273 299.34644 
L 587.690909 299.102083 
L 588.254545 298.523711 
L 588.818182 299.623409 
L 589.381818 296.098527 
L 589.945455 298.776612 
L 590.509091 296.934869 
L 591.072727 297.165131 
L 591.636364 298.119148 
L 592.2 297.641666 
L 592.763636 297.577743 
L 593.327273 297.214293 
L 593.890909 297.28623 
L 595.018182 299.059012 
L 595.581818 298.41544 
L 596.145455 299.551374 
L 596.709091 298.034574 
L 597.272727 297.434129 
L 598.4 298.401883 
L 599.527273 297.09996 
L 600.090909 296.913971 
L 600.654545 298.586207 
L 601.218182 298.103594 
L 601.781818 297.430967 
L 602.345455 297.377987 
L 602.909091 299.080144 
L 603.472727 297.842589 
L 604.036364 297.274434 
L 604.6 298.914849 
L 605.163636 298.9737 
L 605.727273 299.722372 
L 606.290909 297.935642 
L 606.854545 299.475783 
L 607.418182 297.59903 
L 607.981818 298.148718 
L 608.545455 297.002474 
L 609.109091 296.565308 
L 610.236364 299.015832 
L 610.8 298.631844 
L 611.363636 301.27303 
L 611.927273 298.55982 
L 612.490909 297.447885 
L 613.054545 300.102304 
L 613.618182 298.032834 
L 614.181818 302.645455 
L 614.745455 299.718338 
L 615.309091 298.957012 
L 615.872727 300.072412 
L 616.436364 300.053237 
L 617 299.343992 
L 617.563636 299.109654 
L 618.127273 297.396136 
L 618.690909 300.333781 
L 619.254545 297.504446 
L 619.818182 298.656098 
L 620.381818 298.188053 
L 620.945455 296.941457 
L 621.509091 298.807458 
L 622.072727 299.683411 
L 622.636364 298.719464 
L 622.636364 298.719464 
" style="fill:none;stroke:#1f77b4;stroke-linecap:square;stroke-width:0.5;"/>
   </g>
   <g id="line2d_28">
    <path clip-path="url(#p1e6f228bf7)" d="M 115.363636 63.386775 
L 115.927273 67.965498 
L 116.490909 70.180578 
L 117.054545 74.338663 
L 117.618182 75.243413 
L 118.181818 75.839363 
L 118.745455 82.489328 
L 119.309091 81.710762 
L 119.872727 82.911744 
L 121 83.788729 
L 121.563636 83.643921 
L 122.127273 87.194043 
L 122.690909 87.415821 
L 123.254545 87.423545 
L 123.818182 87.808619 
L 124.381818 89.515818 
L 124.945455 89.513514 
L 125.509091 89.96551 
L 126.072727 90.131534 
L 126.636364 92.247889 
L 127.2 92.730146 
L 127.763636 95.039606 
L 128.327273 94.067169 
L 128.890909 95.929603 
L 129.454545 97.386559 
L 130.018182 99.733231 
L 130.581818 101.375902 
L 131.709091 105.332224 
L 132.272727 107.200147 
L 132.836364 108.18245 
L 133.963636 112.561624 
L 134.527273 116.397418 
L 135.090909 118.698287 
L 135.654545 123.666283 
L 136.218182 124.947441 
L 136.781818 129.034677 
L 137.345455 131.727218 
L 138.472727 139.308901 
L 139.036364 141.856371 
L 139.6 145.861264 
L 140.163636 148.501438 
L 141.854545 158.919953 
L 142.418182 161.772122 
L 142.981818 163.168222 
L 143.545455 166.172987 
L 144.109091 167.522809 
L 144.672727 172.657268 
L 145.236364 175.1781 
L 145.8 176.825591 
L 146.363636 179.767455 
L 146.927273 180.691706 
L 147.490909 185.048849 
L 148.618182 186.846814 
L 149.181818 189.951478 
L 150.309091 194.018335 
L 150.872727 197.123222 
L 151.436364 196.615841 
L 152 198.461917 
L 153.127273 203.167586 
L 153.690909 202.870425 
L 154.254545 204.001246 
L 155.381818 205.559599 
L 155.945455 208.027783 
L 156.509091 207.724715 
L 157.072727 209.333133 
L 157.636364 213.134875 
L 158.2 212.483009 
L 159.327273 214.489903 
L 159.890909 216.44823 
L 160.454545 217.498062 
L 161.018182 213.734776 
L 161.581818 220.059981 
L 162.145455 218.292035 
L 162.709091 218.139569 
L 163.272727 219.339749 
L 163.836364 220.043217 
L 164.4 222.704871 
L 164.963636 220.231604 
L 165.527273 222.65337 
L 166.090909 222.930411 
L 166.654545 225.508061 
L 167.218182 224.270289 
L 167.781818 224.287878 
L 168.345455 223.731633 
L 168.909091 226.851529 
L 169.472727 228.894526 
L 170.036364 224.416443 
L 170.6 225.840856 
L 171.163636 228.095574 
L 171.727273 229.708518 
L 172.290909 227.952854 
L 172.854545 230.595745 
L 173.418182 231.602147 
L 173.981818 231.492246 
L 174.545455 233.020467 
L 175.672727 232.28009 
L 176.236364 234.15974 
L 176.8 234.681609 
L 177.363636 234.526063 
L 177.927273 233.723062 
L 178.490909 232.045136 
L 179.054545 238.015876 
L 179.618182 236.958501 
L 180.181818 236.437277 
L 180.745455 236.856826 
L 181.309091 237.658497 
L 181.872727 235.990405 
L 183 239.438513 
L 183.563636 236.780046 
L 184.127273 239.399489 
L 184.690909 241.04907 
L 185.254545 235.602379 
L 185.818182 239.34651 
L 186.381818 238.250899 
L 186.945455 240.364886 
L 187.509091 241.178727 
L 188.072727 241.398787 
L 189.2 242.699295 
L 190.327273 241.706738 
L 190.890909 244.781364 
L 191.454545 240.394151 
L 192.018182 243.292724 
L 192.581818 244.658784 
L 193.145455 243.543436 
L 193.709091 243.696084 
L 194.272727 246.666176 
L 194.836364 244.892807 
L 195.4 246.203235 
L 195.963636 244.261951 
L 196.527273 243.33838 
L 197.090909 245.042865 
L 197.654545 246.002816 
L 198.218182 245.915426 
L 198.781818 245.980029 
L 199.345455 244.680491 
L 199.909091 246.197013 
L 201.036364 245.374396 
L 202.163636 247.576359 
L 202.727273 249.13866 
L 203.290909 247.620456 
L 203.854545 247.519715 
L 204.418182 250.618664 
L 204.981818 246.761787 
L 205.545455 250.789511 
L 206.109091 251.243865 
L 206.672727 248.833986 
L 207.236364 249.453493 
L 207.8 249.437077 
L 208.363636 249.704364 
L 208.927273 250.189068 
L 209.490909 249.64067 
L 210.054545 248.385823 
L 210.618182 250.489486 
L 211.181818 250.177084 
L 211.745455 250.26971 
L 212.309091 250.10679 
L 212.872727 252.453738 
L 213.436364 250.182669 
L 214 251.507564 
L 214.563636 251.332666 
L 215.127273 250.642585 
L 215.690909 251.613364 
L 216.254545 249.342652 
L 216.818182 254.989198 
L 217.381818 252.036121 
L 217.945455 251.991381 
L 218.509091 252.708281 
L 219.072727 251.29589 
L 219.636364 252.269922 
L 220.2 251.247385 
L 220.763636 251.566256 
L 221.327273 253.115119 
L 221.890909 253.393686 
L 222.454545 251.587448 
L 223.018182 252.739861 
L 224.145455 253.989489 
L 224.709091 255.408815 
L 225.272727 255.784602 
L 225.836364 254.517712 
L 226.4 252.303579 
L 226.963636 254.426167 
L 227.527273 256.038528 
L 228.654545 253.76938 
L 229.218182 252.324206 
L 229.781818 253.621349 
L 230.345455 256.736966 
L 230.909091 253.834178 
L 231.472727 255.765261 
L 232.036364 256.466786 
L 232.6 254.802751 
L 233.163636 255.197692 
L 233.727273 258.003855 
L 234.290909 253.946102 
L 234.854545 256.458025 
L 235.418182 256.732419 
L 235.981818 258.479897 
L 236.545455 255.441657 
L 237.109091 256.117997 
L 237.672727 254.235257 
L 238.236364 257.704983 
L 238.8 255.639194 
L 239.363636 255.676355 
L 239.927273 255.848513 
L 240.490909 258.793177 
L 241.054545 255.049757 
L 241.618182 257.589459 
L 242.181818 257.3761 
L 242.745455 258.279589 
L 243.309091 257.897975 
L 243.872727 261.538408 
L 244.436364 260.829841 
L 245 257.828538 
L 245.563636 259.56876 
L 246.127273 257.275094 
L 246.690909 258.494007 
L 247.254545 258.628325 
L 247.818182 256.310616 
L 248.381818 259.666895 
L 248.945455 259.328495 
L 249.509091 257.909807 
L 250.072727 258.29131 
L 250.636364 256.935264 
L 251.2 257.089708 
L 251.763636 255.81627 
L 252.327273 255.818849 
L 252.890909 261.136971 
L 253.454545 258.632831 
L 254.018182 259.513135 
L 254.581818 259.829017 
L 255.145455 258.787519 
L 255.709091 257.476113 
L 256.272727 258.767607 
L 256.836364 258.800621 
L 257.4 261.04885 
L 257.963636 257.788779 
L 258.527273 256.937879 
L 259.090909 258.608367 
L 259.654545 261.47687 
L 260.218182 260.589092 
L 260.781818 260.445442 
L 261.345455 259.882118 
L 261.909091 260.61259 
L 262.472727 259.381232 
L 263.036364 257.696324 
L 263.6 260.424061 
L 264.163636 260.018037 
L 264.727273 260.345903 
L 265.290909 263.505244 
L 265.854545 259.779174 
L 266.418182 260.519649 
L 266.981818 259.067891 
L 267.545455 261.312754 
L 268.109091 260.696936 
L 268.672727 259.4536 
L 269.236364 260.397176 
L 269.8 261.622752 
L 270.363636 260.938415 
L 270.927273 261.215711 
L 271.490909 258.742446 
L 272.054545 262.198043 
L 272.618182 261.145838 
L 273.181818 261.387722 
L 273.745455 260.581035 
L 274.309091 261.354977 
L 274.872727 263.363634 
L 275.436364 259.089801 
L 276 260.266515 
L 276.563636 260.502831 
L 277.127273 260.997348 
L 277.690909 262.231652 
L 278.254545 262.799321 
L 279.381818 259.46661 
L 279.945455 260.497187 
L 280.509091 261.968539 
L 281.072727 261.628778 
L 281.636364 261.114215 
L 282.2 261.401866 
L 282.763636 263.689569 
L 283.327273 260.349459 
L 283.890909 262.697636 
L 284.454545 263.255412 
L 285.018182 262.793132 
L 285.581818 261.509772 
L 286.145455 263.201308 
L 286.709091 263.23162 
L 287.272727 261.003203 
L 287.836364 260.487523 
L 288.4 261.926062 
L 288.963636 264.32889 
L 289.527273 261.564009 
L 290.090909 264.0113 
L 290.654545 261.845167 
L 291.218182 263.292979 
L 291.781818 260.944261 
L 292.345455 261.422583 
L 292.909091 262.393681 
L 293.472727 261.732063 
L 294.036364 264.051804 
L 294.6 262.030554 
L 295.163636 261.391201 
L 295.727273 262.871251 
L 296.290909 260.04734 
L 296.854545 260.240798 
L 297.418182 262.514932 
L 298.545455 262.95319 
L 299.109091 261.909657 
L 299.672727 264.92365 
L 300.8 263.87043 
L 301.363636 261.698538 
L 301.927273 262.376547 
L 302.490909 261.12503 
L 303.054545 263.345224 
L 303.618182 259.72631 
L 304.181818 262.571375 
L 304.745455 262.470461 
L 305.309091 266.054847 
L 305.872727 261.999658 
L 306.436364 261.233735 
L 307 262.654575 
L 308.127273 264.734399 
L 308.690909 264.299339 
L 309.254545 261.071376 
L 309.818182 262.751044 
L 310.381818 262.283327 
L 310.945455 262.582971 
L 311.509091 262.599914 
L 312.072727 266.017521 
L 312.636364 262.686845 
L 313.2 265.893934 
L 313.763636 261.560681 
L 314.327273 263.498051 
L 314.890909 261.15342 
L 315.454545 262.659722 
L 316.018182 261.772079 
L 316.581818 263.096523 
L 317.145455 267.081577 
L 317.709091 262.064023 
L 318.272727 262.648431 
L 318.836364 262.621638 
L 319.4 261.476908 
L 319.963636 265.995489 
L 320.527273 265.100096 
L 321.090909 264.591963 
L 321.654545 264.435853 
L 322.218182 265.410954 
L 322.781818 263.053498 
L 323.345455 265.393659 
L 323.909091 263.95954 
L 324.472727 266.882124 
L 325.036364 263.931481 
L 325.6 265.161794 
L 326.163636 262.612703 
L 326.727273 267.326141 
L 327.290909 262.939687 
L 327.854545 264.039803 
L 328.418182 266.217942 
L 328.981818 264.021845 
L 329.545455 265.726863 
L 330.109091 263.575449 
L 330.672727 265.244744 
L 331.236364 263.183193 
L 331.8 266.088559 
L 332.363636 263.506758 
L 332.927273 267.09833 
L 333.490909 265.680389 
L 334.054545 263.770154 
L 334.618182 262.714661 
L 335.181818 265.95568 
L 335.745455 267.065385 
L 336.309091 264.418893 
L 336.872727 265.0392 
L 337.436364 263.51192 
L 338 263.878651 
L 338.563636 264.969915 
L 339.127273 263.166327 
L 339.690909 267.819021 
L 340.254545 263.847791 
L 340.818182 266.894297 
L 341.381818 264.144698 
L 341.945455 263.982882 
L 342.509091 260.932185 
L 343.072727 262.816136 
L 343.636364 266.289852 
L 344.2 264.539328 
L 344.763636 267.669599 
L 345.327273 269.438027 
L 345.890909 264.440997 
L 346.454545 267.361505 
L 347.018182 264.13231 
L 347.581818 265.601033 
L 348.145455 264.108127 
L 348.709091 267.634392 
L 349.272727 265.410258 
L 349.836364 267.107346 
L 350.4 265.556459 
L 350.963636 266.275751 
L 351.527273 264.400027 
L 352.090909 264.9924 
L 352.654545 265.083909 
L 353.218182 267.244958 
L 353.781818 265.717803 
L 354.345455 265.505058 
L 354.909091 265.963627 
L 355.472727 264.906084 
L 356.036364 265.010356 
L 356.6 264.738608 
L 357.727273 265.997359 
L 358.290909 268.694452 
L 359.418182 265.2819 
L 359.981818 264.414722 
L 360.545455 267.485744 
L 361.109091 266.083479 
L 361.672727 266.48596 
L 362.236364 265.302074 
L 362.8 264.90801 
L 363.363636 266.208378 
L 363.927273 265.158745 
L 364.490909 265.504063 
L 365.054545 266.099258 
L 365.618182 265.943458 
L 366.181818 264.903298 
L 366.745455 267.983917 
L 367.309091 268.434864 
L 367.872727 265.750988 
L 368.436364 267.547714 
L 369 268.720234 
L 369.563636 269.19186 
L 370.127273 265.050031 
L 370.690909 267.403603 
L 371.254545 265.449984 
L 371.818182 267.934052 
L 372.381818 264.483937 
L 372.945455 263.252124 
L 373.509091 268.38315 
L 374.072727 265.162432 
L 374.636364 266.896524 
L 375.2 269.404227 
L 375.763636 267.036914 
L 376.327273 265.900404 
L 376.890909 263.902959 
L 377.454545 265.635708 
L 378.018182 264.672918 
L 378.581818 266.692848 
L 379.145455 264.869204 
L 379.709091 264.636193 
L 380.272727 265.792401 
L 380.836364 266.57764 
L 381.4 268.83847 
L 381.963636 268.839008 
L 382.527273 264.93746 
L 383.090909 268.033323 
L 383.654545 267.276379 
L 384.218182 267.889381 
L 384.781818 264.253049 
L 385.345455 265.770889 
L 385.909091 266.848752 
L 386.472727 262.96773 
L 387.036364 265.837692 
L 387.6 264.986286 
L 388.163636 267.897233 
L 388.727273 265.220195 
L 389.290909 265.052832 
L 389.854545 266.671393 
L 390.418182 267.811278 
L 390.981818 270.145679 
L 391.545455 265.795212 
L 392.109091 267.641521 
L 392.672727 267.091177 
L 393.236364 266.311862 
L 393.8 266.72943 
L 394.363636 266.239198 
L 394.927273 265.200525 
L 396.054545 267.919921 
L 396.618182 262.8749 
L 397.181818 265.470119 
L 397.745455 266.794733 
L 398.309091 266.372356 
L 398.872727 264.443772 
L 399.436364 265.158926 
L 400 264.695024 
L 400.563636 266.953981 
L 401.127273 265.336285 
L 401.690909 269.343785 
L 402.254545 267.373489 
L 402.818182 264.325054 
L 403.381818 267.300221 
L 403.945455 262.634785 
L 404.509091 267.230998 
L 405.072727 265.060466 
L 405.636364 268.418068 
L 406.2 264.908792 
L 406.763636 266.81696 
L 407.327273 267.067955 
L 407.890909 269.871028 
L 408.454545 265.266132 
L 409.018182 268.700901 
L 409.581818 268.309952 
L 410.145455 268.987531 
L 410.709091 267.804041 
L 411.272727 266.220917 
L 411.836364 266.593073 
L 412.4 268.011314 
L 412.963636 266.637116 
L 413.527273 266.873603 
L 414.090909 265.028922 
L 414.654545 267.383383 
L 415.218182 267.606503 
L 415.781818 264.21924 
L 416.345455 268.011031 
L 416.909091 268.436246 
L 417.472727 267.035435 
L 418.036364 267.622187 
L 418.6 263.325933 
L 419.163636 269.332629 
L 419.727273 268.42218 
L 420.290909 269.215623 
L 420.854545 271.926157 
L 421.418182 265.283228 
L 421.981818 267.973238 
L 422.545455 267.31947 
L 423.109091 266.16498 
L 423.672727 268.738029 
L 424.8 265.856985 
L 425.363636 265.892017 
L 425.927273 264.609603 
L 426.490909 263.709545 
L 427.618182 267.485195 
L 428.181818 267.057798 
L 428.745455 266.854192 
L 429.309091 265.741402 
L 429.872727 269.215975 
L 430.436364 269.653828 
L 431 266.975773 
L 431.563636 266.030691 
L 432.127273 269.317211 
L 432.690909 265.879255 
L 433.254545 267.250069 
L 433.818182 266.035366 
L 434.381818 270.848957 
L 434.945455 267.391719 
L 435.509091 265.790942 
L 436.072727 268.951004 
L 437.2 267.07734 
L 437.763636 268.886077 
L 438.327273 268.319012 
L 438.890909 267.135139 
L 439.454545 265.534637 
L 440.018182 265.82193 
L 440.581818 266.937763 
L 441.145455 266.063463 
L 441.709091 263.65573 
L 442.272727 267.234991 
L 443.963636 269.851138 
L 444.527273 268.123962 
L 445.090909 270.005016 
L 445.654545 266.885827 
L 446.218182 268.696821 
L 446.781818 269.247523 
L 447.345455 267.858157 
L 447.909091 267.403999 
L 448.472727 267.697354 
L 449.036364 267.762877 
L 449.6 264.979529 
L 450.727273 269.659548 
L 451.290909 264.749976 
L 451.854545 268.817954 
L 452.418182 267.715406 
L 452.981818 268.947407 
L 453.545455 266.373667 
L 454.109091 265.726245 
L 454.672727 266.116302 
L 455.236364 267.070711 
L 455.8 270.032083 
L 456.363636 265.345061 
L 456.927273 267.912217 
L 457.490909 269.011654 
L 458.054545 267.492277 
L 458.618182 267.091645 
L 459.745455 268.410142 
L 460.309091 269.826867 
L 460.872727 268.125554 
L 461.436364 267.737079 
L 462 268.648836 
L 462.563636 263.159114 
L 463.127273 267.131633 
L 463.690909 265.973675 
L 464.254545 264.548349 
L 464.818182 266.39904 
L 465.381818 267.515679 
L 465.945455 264.820481 
L 466.509091 268.926062 
L 467.072727 265.072442 
L 467.636364 264.96323 
L 468.763636 267.935869 
L 469.327273 268.403961 
L 469.890909 266.239531 
L 470.454545 267.488806 
L 471.018182 265.588188 
L 471.581818 270.040169 
L 472.145455 267.807597 
L 472.709091 266.151914 
L 473.836364 268.818238 
L 474.4 268.213561 
L 474.963636 265.943905 
L 475.527273 269.931598 
L 476.090909 266.908842 
L 476.654545 266.325501 
L 477.218182 265.367582 
L 477.781818 267.364364 
L 478.345455 264.039118 
L 478.909091 267.286916 
L 479.472727 266.966258 
L 480.036364 267.621775 
L 480.6 267.70047 
L 481.163636 266.529861 
L 481.727273 272.791918 
L 482.854545 266.159226 
L 483.418182 268.508853 
L 483.981818 265.099053 
L 484.545455 267.074701 
L 485.109091 270.922978 
L 485.672727 266.607591 
L 486.236364 264.518564 
L 487.363636 268.30243 
L 487.927273 268.697286 
L 488.490909 268.847464 
L 489.054545 267.81126 
L 489.618182 269.473651 
L 490.181818 265.41335 
L 490.745455 268.281094 
L 491.309091 269.222322 
L 491.872727 269.025842 
L 492.436364 266.52587 
L 493 269.064846 
L 493.563636 268.495351 
L 494.127273 268.886897 
L 494.690909 266.020766 
L 495.254545 269.551891 
L 496.381818 267.270946 
L 496.945455 269.676576 
L 497.509091 265.543295 
L 498.072727 267.366935 
L 498.636364 268.496134 
L 499.2 271.243392 
L 499.763636 266.440963 
L 500.327273 268.376144 
L 500.890909 269.229067 
L 501.454545 269.610814 
L 502.018182 265.218821 
L 503.145455 270.997271 
L 503.709091 268.75281 
L 504.272727 268.164556 
L 504.836364 267.336824 
L 505.4 266.278175 
L 505.963636 267.335359 
L 507.090909 265.026421 
L 507.654545 268.526512 
L 508.218182 267.520753 
L 508.781818 267.461405 
L 509.345455 267.212911 
L 509.909091 268.47771 
L 510.472727 266.674782 
L 511.036364 267.737241 
L 511.6 267.918335 
L 512.163636 269.833509 
L 512.727273 269.09908 
L 513.290909 268.65874 
L 513.854545 269.09892 
L 514.418182 268.707738 
L 514.981818 269.104587 
L 515.545455 267.106992 
L 516.109091 267.255781 
L 516.672727 266.813056 
L 517.236364 266.137646 
L 518.363636 269.314087 
L 518.927273 267.55622 
L 519.490909 267.277303 
L 520.054545 269.578206 
L 520.618182 265.686584 
L 521.181818 267.460447 
L 521.745455 267.984411 
L 522.309091 266.287912 
L 522.872727 266.177845 
L 523.436364 269.996323 
L 524 269.416316 
L 524.563636 268.022762 
L 525.127273 265.818247 
L 525.690909 268.918697 
L 526.254545 270.505163 
L 526.818182 270.661735 
L 527.381818 269.702714 
L 527.945455 267.019937 
L 528.509091 267.369422 
L 529.072727 268.066004 
L 529.636364 268.380542 
L 530.2 266.089399 
L 530.763636 269.496482 
L 531.327273 269.115776 
L 531.890909 268.585928 
L 532.454545 267.022158 
L 533.018182 270.639485 
L 533.581818 266.570018 
L 534.145455 270.076237 
L 534.709091 265.644875 
L 535.272727 271.073344 
L 535.836364 268.166399 
L 536.4 267.638975 
L 536.963636 266.594563 
L 537.527273 266.85036 
L 538.090909 269.880907 
L 538.654545 271.032759 
L 539.218182 269.538815 
L 539.781818 267.650199 
L 540.345455 266.810117 
L 540.909091 269.764364 
L 541.472727 269.774163 
L 542.036364 267.934046 
L 542.6 268.169768 
L 543.163636 265.62834 
L 543.727273 270.487229 
L 544.290909 270.744111 
L 544.854545 269.252757 
L 545.418182 269.428329 
L 545.981818 269.350715 
L 546.545455 267.051231 
L 547.109091 267.464935 
L 547.672727 266.824177 
L 548.236364 265.986397 
L 548.8 268.796785 
L 549.363636 269.088631 
L 550.490909 263.358419 
L 551.054545 267.955785 
L 551.618182 268.257587 
L 552.181818 266.128953 
L 552.745455 266.392098 
L 553.309091 268.658623 
L 553.872727 266.005005 
L 554.436364 266.691438 
L 555 267.937044 
L 555.563636 267.899931 
L 556.127273 268.94657 
L 556.690909 267.403564 
L 557.254545 268.008371 
L 557.818182 269.020198 
L 558.945455 267.559559 
L 559.509091 269.929152 
L 560.072727 269.281472 
L 560.636364 265.375804 
L 561.2 268.899403 
L 561.763636 265.118719 
L 562.327273 269.017786 
L 562.890909 268.07919 
L 563.454545 267.699191 
L 564.018182 265.796796 
L 564.581818 265.500097 
L 565.145455 267.41932 
L 565.709091 265.684929 
L 566.272727 264.742508 
L 567.4 268.075374 
L 567.963636 266.953131 
L 568.527273 267.054641 
L 569.090909 269.726139 
L 569.654545 264.147549 
L 570.218182 264.167884 
L 570.781818 268.393378 
L 571.909091 264.438852 
L 572.472727 268.256578 
L 573.036364 269.2378 
L 573.6 268.982314 
L 574.163636 265.051993 
L 574.727273 267.254542 
L 575.290909 268.361483 
L 575.854545 267.385189 
L 576.981818 268.640563 
L 577.545455 266.866363 
L 578.109091 268.437978 
L 578.672727 266.052601 
L 579.236364 267.879903 
L 579.8 268.774519 
L 580.363636 270.307513 
L 580.927273 267.987869 
L 581.490909 267.722556 
L 582.054545 269.361676 
L 582.618182 265.818694 
L 583.181818 267.887287 
L 583.745455 270.726255 
L 584.309091 266.365644 
L 584.872727 268.69864 
L 585.436364 269.954462 
L 586 269.209783 
L 586.563636 268.802178 
L 587.127273 267.178113 
L 587.690909 264.525596 
L 588.254545 268.357635 
L 588.818182 266.139198 
L 589.381818 270.688448 
L 589.945455 265.047602 
L 590.509091 266.449934 
L 591.072727 265.514819 
L 591.636364 265.69746 
L 592.2 270.522627 
L 592.763636 270.375265 
L 593.327273 270.448141 
L 593.890909 266.105319 
L 595.018182 269.599064 
L 595.581818 270.034329 
L 596.145455 267.499859 
L 596.709091 269.601219 
L 597.836364 265.473995 
L 598.4 268.210242 
L 598.963636 267.974962 
L 599.527273 270.376678 
L 600.090909 269.168364 
L 600.654545 270.714217 
L 601.218182 266.665429 
L 601.781818 269.214657 
L 602.345455 268.666092 
L 602.909091 264.360993 
L 603.472727 267.654268 
L 604.036364 265.923605 
L 604.6 267.286035 
L 605.163636 270.380394 
L 605.727273 268.769796 
L 606.290909 268.461992 
L 606.854545 265.89943 
L 607.418182 269.784301 
L 607.981818 265.255914 
L 608.545455 266.070288 
L 609.109091 269.136848 
L 609.672727 265.454634 
L 610.236364 264.859093 
L 610.8 265.746257 
L 611.363636 270.066925 
L 611.927273 267.524683 
L 612.490909 269.380775 
L 613.054545 265.218126 
L 613.618182 265.912807 
L 614.181818 265.519736 
L 614.745455 265.648953 
L 615.309091 270.127427 
L 615.872727 267.633388 
L 616.436364 263.295403 
L 617 266.387015 
L 617.563636 266.917263 
L 618.127273 269.255879 
L 618.690909 268.777881 
L 619.254545 267.688924 
L 619.818182 269.330316 
L 620.381818 268.960816 
L 620.945455 270.162296 
L 621.509091 267.30812 
L 622.072727 265.783501 
L 622.636364 265.328339 
L 622.636364 265.328339 
" style="fill:none;stroke:#ff7f0e;stroke-linecap:square;stroke-width:0.5;"/>
   </g>
   <g id="patch_3">
    <path d="M 90 315 
L 90 43.2 
" style="fill:none;stroke:#000000;stroke-linecap:square;stroke-linejoin:miter;stroke-width:0.8;"/>
   </g>
   <g id="patch_4">
    <path d="M 648 315 
L 648 43.2 
" style="fill:none;stroke:#000000;stroke-linecap:square;stroke-linejoin:miter;stroke-width:0.8;"/>
   </g>
   <g id="patch_5">
    <path d="M 90 315 
L 648 315 
" style="fill:none;stroke:#000000;stroke-linecap:square;stroke-linejoin:miter;stroke-width:0.8;"/>
   </g>
   <g id="patch_6">
    <path d="M 90 43.2 
L 648 43.2 
" style="fill:none;stroke:#000000;stroke-linecap:square;stroke-linejoin:miter;stroke-width:0.8;"/>
   </g>
   <g id="text_16">
    <!-- loss -->
    <g transform="translate(357.410625 37.2)scale(0.12 -0.12)">
     <use xlink:href="#DejaVuSans-108"/>
     <use x="27.783203" xlink:href="#DejaVuSans-111"/>
     <use x="88.964844" xlink:href="#DejaVuSans-115"/>
     <use x="141.064453" xlink:href="#DejaVuSans-115"/>
    </g>
   </g>
   <g id="legend_1">
    <g id="patch_7">
     <path d="M 568.846875 80.55625 
L 641 80.55625 
Q 643 80.55625 643 78.55625 
L 643 50.2 
Q 643 48.2 641 48.2 
L 568.846875 48.2 
Q 566.846875 48.2 566.846875 50.2 
L 566.846875 78.55625 
Q 566.846875 80.55625 568.846875 80.55625 
z
" style="fill:#ffffff;opacity:0.8;stroke:#cccccc;stroke-linejoin:miter;"/>
    </g>
    <g id="line2d_29">
     <path d="M 570.846875 56.298437 
L 590.846875 56.298437 
" style="fill:none;stroke:#1f77b4;stroke-linecap:square;stroke-width:0.5;"/>
    </g>
    <g id="line2d_30"/>
    <g id="text_17">
     <!-- train -->
     <defs>
      <path d="M 18.3125 70.21875 
L 18.3125 54.6875 
L 36.8125 54.6875 
L 36.8125 47.703125 
L 18.3125 47.703125 
L 18.3125 18.015625 
Q 18.3125 11.328125 20.140625 9.421875 
Q 21.96875 7.515625 27.59375 7.515625 
L 36.8125 7.515625 
L 36.8125 0 
L 27.59375 0 
Q 17.1875 0 13.234375 3.875 
Q 9.28125 7.765625 9.28125 18.015625 
L 9.28125 47.703125 
L 2.6875 47.703125 
L 2.6875 54.6875 
L 9.28125 54.6875 
L 9.28125 70.21875 
z
" id="DejaVuSans-116"/>
      <path d="M 41.109375 46.296875 
Q 39.59375 47.171875 37.8125 47.578125 
Q 36.03125 48 33.890625 48 
Q 26.265625 48 22.1875 43.046875 
Q 18.109375 38.09375 18.109375 28.8125 
L 18.109375 0 
L 9.078125 0 
L 9.078125 54.6875 
L 18.109375 54.6875 
L 18.109375 46.1875 
Q 20.953125 51.171875 25.484375 53.578125 
Q 30.03125 56 36.53125 56 
Q 37.453125 56 38.578125 55.875 
Q 39.703125 55.765625 41.0625 55.515625 
z
" id="DejaVuSans-114"/>
      <path d="M 34.28125 27.484375 
Q 23.390625 27.484375 19.1875 25 
Q 14.984375 22.515625 14.984375 16.5 
Q 14.984375 11.71875 18.140625 8.90625 
Q 21.296875 6.109375 26.703125 6.109375 
Q 34.1875 6.109375 38.703125 11.40625 
Q 43.21875 16.703125 43.21875 25.484375 
L 43.21875 27.484375 
z
M 52.203125 31.203125 
L 52.203125 0 
L 43.21875 0 
L 43.21875 8.296875 
Q 40.140625 3.328125 35.546875 0.953125 
Q 30.953125 -1.421875 24.3125 -1.421875 
Q 15.921875 -1.421875 10.953125 3.296875 
Q 6 8.015625 6 15.921875 
Q 6 25.140625 12.171875 29.828125 
Q 18.359375 34.515625 30.609375 34.515625 
L 43.21875 34.515625 
L 43.21875 35.40625 
Q 43.21875 41.609375 39.140625 45 
Q 35.0625 48.390625 27.6875 48.390625 
Q 23 48.390625 18.546875 47.265625 
Q 14.109375 46.140625 10.015625 43.890625 
L 10.015625 52.203125 
Q 14.9375 54.109375 19.578125 55.046875 
Q 24.21875 56 28.609375 56 
Q 40.484375 56 46.34375 49.84375 
Q 52.203125 43.703125 52.203125 31.203125 
z
" id="DejaVuSans-97"/>
      <path d="M 9.421875 54.6875 
L 18.40625 54.6875 
L 18.40625 0 
L 9.421875 0 
z
M 9.421875 75.984375 
L 18.40625 75.984375 
L 18.40625 64.59375 
L 9.421875 64.59375 
z
" id="DejaVuSans-105"/>
      <path d="M 54.890625 33.015625 
L 54.890625 0 
L 45.90625 0 
L 45.90625 32.71875 
Q 45.90625 40.484375 42.875 44.328125 
Q 39.84375 48.1875 33.796875 48.1875 
Q 26.515625 48.1875 22.3125 43.546875 
Q 18.109375 38.921875 18.109375 30.90625 
L 18.109375 0 
L 9.078125 0 
L 9.078125 54.6875 
L 18.109375 54.6875 
L 18.109375 46.1875 
Q 21.34375 51.125 25.703125 53.5625 
Q 30.078125 56 35.796875 56 
Q 45.21875 56 50.046875 50.171875 
Q 54.890625 44.34375 54.890625 33.015625 
z
" id="DejaVuSans-110"/>
     </defs>
     <g transform="translate(598.846875 59.798437)scale(0.1 -0.1)">
      <use xlink:href="#DejaVuSans-116"/>
      <use x="39.208984" xlink:href="#DejaVuSans-114"/>
      <use x="80.322266" xlink:href="#DejaVuSans-97"/>
      <use x="141.601562" xlink:href="#DejaVuSans-105"/>
      <use x="169.384766" xlink:href="#DejaVuSans-110"/>
     </g>
    </g>
    <g id="line2d_31">
     <path d="M 570.846875 70.976562 
L 590.846875 70.976562 
" style="fill:none;stroke:#ff7f0e;stroke-linecap:square;stroke-width:0.5;"/>
    </g>
    <g id="line2d_32"/>
    <g id="text_18">
     <!-- validate -->
     <defs>
      <path d="M 2.984375 54.6875 
L 12.5 54.6875 
L 29.59375 8.796875 
L 46.6875 54.6875 
L 56.203125 54.6875 
L 35.6875 0 
L 23.484375 0 
z
" id="DejaVuSans-118"/>
      <path d="M 45.40625 46.390625 
L 45.40625 75.984375 
L 54.390625 75.984375 
L 54.390625 0 
L 45.40625 0 
L 45.40625 8.203125 
Q 42.578125 3.328125 38.25 0.953125 
Q 33.9375 -1.421875 27.875 -1.421875 
Q 17.96875 -1.421875 11.734375 6.484375 
Q 5.515625 14.40625 5.515625 27.296875 
Q 5.515625 40.1875 11.734375 48.09375 
Q 17.96875 56 27.875 56 
Q 33.9375 56 38.25 53.625 
Q 42.578125 51.265625 45.40625 46.390625 
z
M 14.796875 27.296875 
Q 14.796875 17.390625 18.875 11.75 
Q 22.953125 6.109375 30.078125 6.109375 
Q 37.203125 6.109375 41.296875 11.75 
Q 45.40625 17.390625 45.40625 27.296875 
Q 45.40625 37.203125 41.296875 42.84375 
Q 37.203125 48.484375 30.078125 48.484375 
Q 22.953125 48.484375 18.875 42.84375 
Q 14.796875 37.203125 14.796875 27.296875 
z
" id="DejaVuSans-100"/>
     </defs>
     <g transform="translate(598.846875 74.476562)scale(0.1 -0.1)">
      <use xlink:href="#DejaVuSans-118"/>
      <use x="59.179688" xlink:href="#DejaVuSans-97"/>
      <use x="120.458984" xlink:href="#DejaVuSans-108"/>
      <use x="148.242188" xlink:href="#DejaVuSans-105"/>
      <use x="176.025391" xlink:href="#DejaVuSans-100"/>
      <use x="239.501953" xlink:href="#DejaVuSans-97"/>
      <use x="300.78125" xlink:href="#DejaVuSans-116"/>
      <use x="339.990234" xlink:href="#DejaVuSans-101"/>
     </g>
    </g>
   </g>
  </g>
 </g>
 <defs>
  <clipPath id="p1e6f228bf7">
   <rect height="271.8" width="558" x="90" y="43.2"/>
  </clipPath>
 </defs>
</svg>
