<?xml version="1.0" encoding="utf-8" standalone="no"?>
<!DOCTYPE svg PUBLIC "-//W3C//DTD SVG 1.1//EN"
  "http://www.w3.org/Graphics/SVG/1.1/DTD/svg11.dtd">
<!-- Created with matplotlib (https://matplotlib.org/) -->
<svg height="360pt" version="1.1" viewBox="0 0 720 360" width="720pt" xmlns="http://www.w3.org/2000/svg" xmlns:xlink="http://www.w3.org/1999/xlink">
 <defs>
  <style type="text/css">
*{stroke-linecap:butt;stroke-linejoin:round;}
  </style>
 </defs>
 <g id="figure_1">
  <g id="patch_1">
   <path d="M 0 360 
L 720 360 
L 720 0 
L 0 0 
z
" style="fill:#ffffff;"/>
  </g>
  <g id="axes_1">
   <g id="patch_2">
    <path d="M 90 315 
L 648 315 
L 648 43.2 
L 90 43.2 
z
" style="fill:#ffffff;"/>
   </g>
   <g id="matplotlib.axis_1">
    <g id="xtick_1">
     <g id="line2d_1">
      <path clip-path="url(#p40a3cf6dd3)" d="M 115.363636 315 
L 115.363636 43.2 
" style="fill:none;stroke:#b0b0b0;stroke-linecap:square;stroke-width:0.8;"/>
     </g>
     <g id="line2d_2">
      <defs>
       <path d="M 0 0 
L 0 3.5 
" id="md42d25755c" style="stroke:#000000;stroke-width:0.8;"/>
      </defs>
      <g>
       <use style="stroke:#000000;stroke-width:0.8;" x="115.363636" xlink:href="#md42d25755c" y="315"/>
      </g>
     </g>
     <g id="text_1">
      <!-- 0 -->
      <defs>
       <path d="M 31.78125 66.40625 
Q 24.171875 66.40625 20.328125 58.90625 
Q 16.5 51.421875 16.5 36.375 
Q 16.5 21.390625 20.328125 13.890625 
Q 24.171875 6.390625 31.78125 6.390625 
Q 39.453125 6.390625 43.28125 13.890625 
Q 47.125 21.390625 47.125 36.375 
Q 47.125 51.421875 43.28125 58.90625 
Q 39.453125 66.40625 31.78125 66.40625 
z
M 31.78125 74.21875 
Q 44.046875 74.21875 50.515625 64.515625 
Q 56.984375 54.828125 56.984375 36.375 
Q 56.984375 17.96875 50.515625 8.265625 
Q 44.046875 -1.421875 31.78125 -1.421875 
Q 19.53125 -1.421875 13.0625 8.265625 
Q 6.59375 17.96875 6.59375 36.375 
Q 6.59375 54.828125 13.0625 64.515625 
Q 19.53125 74.21875 31.78125 74.21875 
z
" id="DejaVuSans-48"/>
      </defs>
      <g transform="translate(112.182386 329.598437)scale(0.1 -0.1)">
       <use xlink:href="#DejaVuSans-48"/>
      </g>
     </g>
    </g>
    <g id="xtick_2">
     <g id="line2d_3">
      <path clip-path="url(#p40a3cf6dd3)" d="M 190.182623 315 
L 190.182623 43.2 
" style="fill:none;stroke:#b0b0b0;stroke-linecap:square;stroke-width:0.8;"/>
     </g>
     <g id="line2d_4">
      <g>
       <use style="stroke:#000000;stroke-width:0.8;" x="190.182623" xlink:href="#md42d25755c" y="315"/>
      </g>
     </g>
     <g id="text_2">
      <!-- 100 -->
      <defs>
       <path d="M 12.40625 8.296875 
L 28.515625 8.296875 
L 28.515625 63.921875 
L 10.984375 60.40625 
L 10.984375 69.390625 
L 28.421875 72.90625 
L 38.28125 72.90625 
L 38.28125 8.296875 
L 54.390625 8.296875 
L 54.390625 0 
L 12.40625 0 
z
" id="DejaVuSans-49"/>
      </defs>
      <g transform="translate(180.638873 329.598437)scale(0.1 -0.1)">
       <use xlink:href="#DejaVuSans-49"/>
       <use x="63.623047" xlink:href="#DejaVuSans-48"/>
       <use x="127.246094" xlink:href="#DejaVuSans-48"/>
      </g>
     </g>
    </g>
    <g id="xtick_3">
     <g id="line2d_5">
      <path clip-path="url(#p40a3cf6dd3)" d="M 265.001609 315 
L 265.001609 43.2 
" style="fill:none;stroke:#b0b0b0;stroke-linecap:square;stroke-width:0.8;"/>
     </g>
     <g id="line2d_6">
      <g>
       <use style="stroke:#000000;stroke-width:0.8;" x="265.001609" xlink:href="#md42d25755c" y="315"/>
      </g>
     </g>
     <g id="text_3">
      <!-- 200 -->
      <defs>
       <path d="M 19.1875 8.296875 
L 53.609375 8.296875 
L 53.609375 0 
L 7.328125 0 
L 7.328125 8.296875 
Q 12.9375 14.109375 22.625 23.890625 
Q 32.328125 33.6875 34.8125 36.53125 
Q 39.546875 41.84375 41.421875 45.53125 
Q 43.3125 49.21875 43.3125 52.78125 
Q 43.3125 58.59375 39.234375 62.25 
Q 35.15625 65.921875 28.609375 65.921875 
Q 23.96875 65.921875 18.8125 64.3125 
Q 13.671875 62.703125 7.8125 59.421875 
L 7.8125 69.390625 
Q 13.765625 71.78125 18.9375 73 
Q 24.125 74.21875 28.421875 74.21875 
Q 39.75 74.21875 46.484375 68.546875 
Q 53.21875 62.890625 53.21875 53.421875 
Q 53.21875 48.921875 51.53125 44.890625 
Q 49.859375 40.875 45.40625 35.40625 
Q 44.1875 33.984375 37.640625 27.21875 
Q 31.109375 20.453125 19.1875 8.296875 
z
" id="DejaVuSans-50"/>
      </defs>
      <g transform="translate(255.457859 329.598437)scale(0.1 -0.1)">
       <use xlink:href="#DejaVuSans-50"/>
       <use x="63.623047" xlink:href="#DejaVuSans-48"/>
       <use x="127.246094" xlink:href="#DejaVuSans-48"/>
      </g>
     </g>
    </g>
    <g id="xtick_4">
     <g id="line2d_7">
      <path clip-path="url(#p40a3cf6dd3)" d="M 339.820595 315 
L 339.820595 43.2 
" style="fill:none;stroke:#b0b0b0;stroke-linecap:square;stroke-width:0.8;"/>
     </g>
     <g id="line2d_8">
      <g>
       <use style="stroke:#000000;stroke-width:0.8;" x="339.820595" xlink:href="#md42d25755c" y="315"/>
      </g>
     </g>
     <g id="text_4">
      <!-- 300 -->
      <defs>
       <path d="M 40.578125 39.3125 
Q 47.65625 37.796875 51.625 33 
Q 55.609375 28.21875 55.609375 21.1875 
Q 55.609375 10.40625 48.1875 4.484375 
Q 40.765625 -1.421875 27.09375 -1.421875 
Q 22.515625 -1.421875 17.65625 -0.515625 
Q 12.796875 0.390625 7.625 2.203125 
L 7.625 11.71875 
Q 11.71875 9.328125 16.59375 8.109375 
Q 21.484375 6.890625 26.8125 6.890625 
Q 36.078125 6.890625 40.9375 10.546875 
Q 45.796875 14.203125 45.796875 21.1875 
Q 45.796875 27.640625 41.28125 31.265625 
Q 36.765625 34.90625 28.71875 34.90625 
L 20.21875 34.90625 
L 20.21875 43.015625 
L 29.109375 43.015625 
Q 36.375 43.015625 40.234375 45.921875 
Q 44.09375 48.828125 44.09375 54.296875 
Q 44.09375 59.90625 40.109375 62.90625 
Q 36.140625 65.921875 28.71875 65.921875 
Q 24.65625 65.921875 20.015625 65.03125 
Q 15.375 64.15625 9.8125 62.3125 
L 9.8125 71.09375 
Q 15.4375 72.65625 20.34375 73.4375 
Q 25.25 74.21875 29.59375 74.21875 
Q 40.828125 74.21875 47.359375 69.109375 
Q 53.90625 64.015625 53.90625 55.328125 
Q 53.90625 49.265625 50.4375 45.09375 
Q 46.96875 40.921875 40.578125 39.3125 
z
" id="DejaVuSans-51"/>
      </defs>
      <g transform="translate(330.276845 329.598437)scale(0.1 -0.1)">
       <use xlink:href="#DejaVuSans-51"/>
       <use x="63.623047" xlink:href="#DejaVuSans-48"/>
       <use x="127.246094" xlink:href="#DejaVuSans-48"/>
      </g>
     </g>
    </g>
    <g id="xtick_5">
     <g id="line2d_9">
      <path clip-path="url(#p40a3cf6dd3)" d="M 414.639582 315 
L 414.639582 43.2 
" style="fill:none;stroke:#b0b0b0;stroke-linecap:square;stroke-width:0.8;"/>
     </g>
     <g id="line2d_10">
      <g>
       <use style="stroke:#000000;stroke-width:0.8;" x="414.639582" xlink:href="#md42d25755c" y="315"/>
      </g>
     </g>
     <g id="text_5">
      <!-- 400 -->
      <defs>
       <path d="M 37.796875 64.3125 
L 12.890625 25.390625 
L 37.796875 25.390625 
z
M 35.203125 72.90625 
L 47.609375 72.90625 
L 47.609375 25.390625 
L 58.015625 25.390625 
L 58.015625 17.1875 
L 47.609375 17.1875 
L 47.609375 0 
L 37.796875 0 
L 37.796875 17.1875 
L 4.890625 17.1875 
L 4.890625 26.703125 
z
" id="DejaVuSans-52"/>
      </defs>
      <g transform="translate(405.095832 329.598437)scale(0.1 -0.1)">
       <use xlink:href="#DejaVuSans-52"/>
       <use x="63.623047" xlink:href="#DejaVuSans-48"/>
       <use x="127.246094" xlink:href="#DejaVuSans-48"/>
      </g>
     </g>
    </g>
    <g id="xtick_6">
     <g id="line2d_11">
      <path clip-path="url(#p40a3cf6dd3)" d="M 489.458568 315 
L 489.458568 43.2 
" style="fill:none;stroke:#b0b0b0;stroke-linecap:square;stroke-width:0.8;"/>
     </g>
     <g id="line2d_12">
      <g>
       <use style="stroke:#000000;stroke-width:0.8;" x="489.458568" xlink:href="#md42d25755c" y="315"/>
      </g>
     </g>
     <g id="text_6">
      <!-- 500 -->
      <defs>
       <path d="M 10.796875 72.90625 
L 49.515625 72.90625 
L 49.515625 64.59375 
L 19.828125 64.59375 
L 19.828125 46.734375 
Q 21.96875 47.46875 24.109375 47.828125 
Q 26.265625 48.1875 28.421875 48.1875 
Q 40.625 48.1875 47.75 41.5 
Q 54.890625 34.8125 54.890625 23.390625 
Q 54.890625 11.625 47.5625 5.09375 
Q 40.234375 -1.421875 26.90625 -1.421875 
Q 22.3125 -1.421875 17.546875 -0.640625 
Q 12.796875 0.140625 7.71875 1.703125 
L 7.71875 11.625 
Q 12.109375 9.234375 16.796875 8.0625 
Q 21.484375 6.890625 26.703125 6.890625 
Q 35.15625 6.890625 40.078125 11.328125 
Q 45.015625 15.765625 45.015625 23.390625 
Q 45.015625 31 40.078125 35.4375 
Q 35.15625 39.890625 26.703125 39.890625 
Q 22.75 39.890625 18.8125 39.015625 
Q 14.890625 38.140625 10.796875 36.28125 
z
" id="DejaVuSans-53"/>
      </defs>
      <g transform="translate(479.914818 329.598437)scale(0.1 -0.1)">
       <use xlink:href="#DejaVuSans-53"/>
       <use x="63.623047" xlink:href="#DejaVuSans-48"/>
       <use x="127.246094" xlink:href="#DejaVuSans-48"/>
      </g>
     </g>
    </g>
    <g id="xtick_7">
     <g id="line2d_13">
      <path clip-path="url(#p40a3cf6dd3)" d="M 564.277554 315 
L 564.277554 43.2 
" style="fill:none;stroke:#b0b0b0;stroke-linecap:square;stroke-width:0.8;"/>
     </g>
     <g id="line2d_14">
      <g>
       <use style="stroke:#000000;stroke-width:0.8;" x="564.277554" xlink:href="#md42d25755c" y="315"/>
      </g>
     </g>
     <g id="text_7">
      <!-- 600 -->
      <defs>
       <path d="M 33.015625 40.375 
Q 26.375 40.375 22.484375 35.828125 
Q 18.609375 31.296875 18.609375 23.390625 
Q 18.609375 15.53125 22.484375 10.953125 
Q 26.375 6.390625 33.015625 6.390625 
Q 39.65625 6.390625 43.53125 10.953125 
Q 47.40625 15.53125 47.40625 23.390625 
Q 47.40625 31.296875 43.53125 35.828125 
Q 39.65625 40.375 33.015625 40.375 
z
M 52.59375 71.296875 
L 52.59375 62.3125 
Q 48.875 64.0625 45.09375 64.984375 
Q 41.3125 65.921875 37.59375 65.921875 
Q 27.828125 65.921875 22.671875 59.328125 
Q 17.53125 52.734375 16.796875 39.40625 
Q 19.671875 43.65625 24.015625 45.921875 
Q 28.375 48.1875 33.59375 48.1875 
Q 44.578125 48.1875 50.953125 41.515625 
Q 57.328125 34.859375 57.328125 23.390625 
Q 57.328125 12.15625 50.6875 5.359375 
Q 44.046875 -1.421875 33.015625 -1.421875 
Q 20.359375 -1.421875 13.671875 8.265625 
Q 6.984375 17.96875 6.984375 36.375 
Q 6.984375 53.65625 15.1875 63.9375 
Q 23.390625 74.21875 37.203125 74.21875 
Q 40.921875 74.21875 44.703125 73.484375 
Q 48.484375 72.75 52.59375 71.296875 
z
" id="DejaVuSans-54"/>
      </defs>
      <g transform="translate(554.733804 329.598437)scale(0.1 -0.1)">
       <use xlink:href="#DejaVuSans-54"/>
       <use x="63.623047" xlink:href="#DejaVuSans-48"/>
       <use x="127.246094" xlink:href="#DejaVuSans-48"/>
      </g>
     </g>
    </g>
    <g id="xtick_8">
     <g id="line2d_15">
      <path clip-path="url(#p40a3cf6dd3)" d="M 639.096541 315 
L 639.096541 43.2 
" style="fill:none;stroke:#b0b0b0;stroke-linecap:square;stroke-width:0.8;"/>
     </g>
     <g id="line2d_16">
      <g>
       <use style="stroke:#000000;stroke-width:0.8;" x="639.096541" xlink:href="#md42d25755c" y="315"/>
      </g>
     </g>
     <g id="text_8">
      <!-- 700 -->
      <defs>
       <path d="M 8.203125 72.90625 
L 55.078125 72.90625 
L 55.078125 68.703125 
L 28.609375 0 
L 18.3125 0 
L 43.21875 64.59375 
L 8.203125 64.59375 
z
" id="DejaVuSans-55"/>
      </defs>
      <g transform="translate(629.552791 329.598437)scale(0.1 -0.1)">
       <use xlink:href="#DejaVuSans-55"/>
       <use x="63.623047" xlink:href="#DejaVuSans-48"/>
       <use x="127.246094" xlink:href="#DejaVuSans-48"/>
      </g>
     </g>
    </g>
    <g id="text_9">
     <!-- epoch -->
     <defs>
      <path d="M 56.203125 29.59375 
L 56.203125 25.203125 
L 14.890625 25.203125 
Q 15.484375 15.921875 20.484375 11.0625 
Q 25.484375 6.203125 34.421875 6.203125 
Q 39.59375 6.203125 44.453125 7.46875 
Q 49.3125 8.734375 54.109375 11.28125 
L 54.109375 2.78125 
Q 49.265625 0.734375 44.1875 -0.34375 
Q 39.109375 -1.421875 33.890625 -1.421875 
Q 20.796875 -1.421875 13.15625 6.1875 
Q 5.515625 13.8125 5.515625 26.8125 
Q 5.515625 40.234375 12.765625 48.109375 
Q 20.015625 56 32.328125 56 
Q 43.359375 56 49.78125 48.890625 
Q 56.203125 41.796875 56.203125 29.59375 
z
M 47.21875 32.234375 
Q 47.125 39.59375 43.09375 43.984375 
Q 39.0625 48.390625 32.421875 48.390625 
Q 24.90625 48.390625 20.390625 44.140625 
Q 15.875 39.890625 15.1875 32.171875 
z
" id="DejaVuSans-101"/>
      <path d="M 18.109375 8.203125 
L 18.109375 -20.796875 
L 9.078125 -20.796875 
L 9.078125 54.6875 
L 18.109375 54.6875 
L 18.109375 46.390625 
Q 20.953125 51.265625 25.265625 53.625 
Q 29.59375 56 35.59375 56 
Q 45.5625 56 51.78125 48.09375 
Q 58.015625 40.1875 58.015625 27.296875 
Q 58.015625 14.40625 51.78125 6.484375 
Q 45.5625 -1.421875 35.59375 -1.421875 
Q 29.59375 -1.421875 25.265625 0.953125 
Q 20.953125 3.328125 18.109375 8.203125 
z
M 48.6875 27.296875 
Q 48.6875 37.203125 44.609375 42.84375 
Q 40.53125 48.484375 33.40625 48.484375 
Q 26.265625 48.484375 22.1875 42.84375 
Q 18.109375 37.203125 18.109375 27.296875 
Q 18.109375 17.390625 22.1875 11.75 
Q 26.265625 6.109375 33.40625 6.109375 
Q 40.53125 6.109375 44.609375 11.75 
Q 48.6875 17.390625 48.6875 27.296875 
z
" id="DejaVuSans-112"/>
      <path d="M 30.609375 48.390625 
Q 23.390625 48.390625 19.1875 42.75 
Q 14.984375 37.109375 14.984375 27.296875 
Q 14.984375 17.484375 19.15625 11.84375 
Q 23.34375 6.203125 30.609375 6.203125 
Q 37.796875 6.203125 41.984375 11.859375 
Q 46.1875 17.53125 46.1875 27.296875 
Q 46.1875 37.015625 41.984375 42.703125 
Q 37.796875 48.390625 30.609375 48.390625 
z
M 30.609375 56 
Q 42.328125 56 49.015625 48.375 
Q 55.71875 40.765625 55.71875 27.296875 
Q 55.71875 13.875 49.015625 6.21875 
Q 42.328125 -1.421875 30.609375 -1.421875 
Q 18.84375 -1.421875 12.171875 6.21875 
Q 5.515625 13.875 5.515625 27.296875 
Q 5.515625 40.765625 12.171875 48.375 
Q 18.84375 56 30.609375 56 
z
" id="DejaVuSans-111"/>
      <path d="M 48.78125 52.59375 
L 48.78125 44.1875 
Q 44.96875 46.296875 41.140625 47.34375 
Q 37.3125 48.390625 33.40625 48.390625 
Q 24.65625 48.390625 19.8125 42.84375 
Q 14.984375 37.3125 14.984375 27.296875 
Q 14.984375 17.28125 19.8125 11.734375 
Q 24.65625 6.203125 33.40625 6.203125 
Q 37.3125 6.203125 41.140625 7.25 
Q 44.96875 8.296875 48.78125 10.40625 
L 48.78125 2.09375 
Q 45.015625 0.34375 40.984375 -0.53125 
Q 36.96875 -1.421875 32.421875 -1.421875 
Q 20.0625 -1.421875 12.78125 6.34375 
Q 5.515625 14.109375 5.515625 27.296875 
Q 5.515625 40.671875 12.859375 48.328125 
Q 20.21875 56 33.015625 56 
Q 37.15625 56 41.109375 55.140625 
Q 45.0625 54.296875 48.78125 52.59375 
z
" id="DejaVuSans-99"/>
      <path d="M 54.890625 33.015625 
L 54.890625 0 
L 45.90625 0 
L 45.90625 32.71875 
Q 45.90625 40.484375 42.875 44.328125 
Q 39.84375 48.1875 33.796875 48.1875 
Q 26.515625 48.1875 22.3125 43.546875 
Q 18.109375 38.921875 18.109375 30.90625 
L 18.109375 0 
L 9.078125 0 
L 9.078125 75.984375 
L 18.109375 75.984375 
L 18.109375 46.1875 
Q 21.34375 51.125 25.703125 53.5625 
Q 30.078125 56 35.796875 56 
Q 45.21875 56 50.046875 50.171875 
Q 54.890625 44.34375 54.890625 33.015625 
z
" id="DejaVuSans-104"/>
     </defs>
     <g transform="translate(353.771875 343.276563)scale(0.1 -0.1)">
      <use xlink:href="#DejaVuSans-101"/>
      <use x="61.523438" xlink:href="#DejaVuSans-112"/>
      <use x="125" xlink:href="#DejaVuSans-111"/>
      <use x="186.181641" xlink:href="#DejaVuSans-99"/>
      <use x="241.162109" xlink:href="#DejaVuSans-104"/>
     </g>
    </g>
   </g>
   <g id="matplotlib.axis_2">
    <g id="ytick_1">
     <g id="line2d_17">
      <path clip-path="url(#p40a3cf6dd3)" d="M 90 285.028684 
L 648 285.028684 
" style="fill:none;stroke:#b0b0b0;stroke-linecap:square;stroke-width:0.8;"/>
     </g>
     <g id="line2d_18">
      <defs>
       <path d="M 0 0 
L -3.5 0 
" id="m4dbcf7a7b7" style="stroke:#000000;stroke-width:0.8;"/>
      </defs>
      <g>
       <use style="stroke:#000000;stroke-width:0.8;" x="90" xlink:href="#m4dbcf7a7b7" y="285.028684"/>
      </g>
     </g>
     <g id="text_10">
      <!-- 0.2 -->
      <defs>
       <path d="M 10.6875 12.40625 
L 21 12.40625 
L 21 0 
L 10.6875 0 
z
" id="DejaVuSans-46"/>
      </defs>
      <g transform="translate(67.096875 288.827902)scale(0.1 -0.1)">
       <use xlink:href="#DejaVuSans-48"/>
       <use x="63.623047" xlink:href="#DejaVuSans-46"/>
       <use x="95.410156" xlink:href="#DejaVuSans-50"/>
      </g>
     </g>
    </g>
    <g id="ytick_2">
     <g id="line2d_19">
      <path clip-path="url(#p40a3cf6dd3)" d="M 90 251.418373 
L 648 251.418373 
" style="fill:none;stroke:#b0b0b0;stroke-linecap:square;stroke-width:0.8;"/>
     </g>
     <g id="line2d_20">
      <g>
       <use style="stroke:#000000;stroke-width:0.8;" x="90" xlink:href="#m4dbcf7a7b7" y="251.418373"/>
      </g>
     </g>
     <g id="text_11">
      <!-- 0.4 -->
      <g transform="translate(67.096875 255.217591)scale(0.1 -0.1)">
       <use xlink:href="#DejaVuSans-48"/>
       <use x="63.623047" xlink:href="#DejaVuSans-46"/>
       <use x="95.410156" xlink:href="#DejaVuSans-52"/>
      </g>
     </g>
    </g>
    <g id="ytick_3">
     <g id="line2d_21">
      <path clip-path="url(#p40a3cf6dd3)" d="M 90 217.808062 
L 648 217.808062 
" style="fill:none;stroke:#b0b0b0;stroke-linecap:square;stroke-width:0.8;"/>
     </g>
     <g id="line2d_22">
      <g>
       <use style="stroke:#000000;stroke-width:0.8;" x="90" xlink:href="#m4dbcf7a7b7" y="217.808062"/>
      </g>
     </g>
     <g id="text_12">
      <!-- 0.6 -->
      <g transform="translate(67.096875 221.607281)scale(0.1 -0.1)">
       <use xlink:href="#DejaVuSans-48"/>
       <use x="63.623047" xlink:href="#DejaVuSans-46"/>
       <use x="95.410156" xlink:href="#DejaVuSans-54"/>
      </g>
     </g>
    </g>
    <g id="ytick_4">
     <g id="line2d_23">
      <path clip-path="url(#p40a3cf6dd3)" d="M 90 184.197751 
L 648 184.197751 
" style="fill:none;stroke:#b0b0b0;stroke-linecap:square;stroke-width:0.8;"/>
     </g>
     <g id="line2d_24">
      <g>
       <use style="stroke:#000000;stroke-width:0.8;" x="90" xlink:href="#m4dbcf7a7b7" y="184.197751"/>
      </g>
     </g>
     <g id="text_13">
      <!-- 0.8 -->
      <defs>
       <path d="M 31.78125 34.625 
Q 24.75 34.625 20.71875 30.859375 
Q 16.703125 27.09375 16.703125 20.515625 
Q 16.703125 13.921875 20.71875 10.15625 
Q 24.75 6.390625 31.78125 6.390625 
Q 38.8125 6.390625 42.859375 10.171875 
Q 46.921875 13.96875 46.921875 20.515625 
Q 46.921875 27.09375 42.890625 30.859375 
Q 38.875 34.625 31.78125 34.625 
z
M 21.921875 38.8125 
Q 15.578125 40.375 12.03125 44.71875 
Q 8.5 49.078125 8.5 55.328125 
Q 8.5 64.0625 14.71875 69.140625 
Q 20.953125 74.21875 31.78125 74.21875 
Q 42.671875 74.21875 48.875 69.140625 
Q 55.078125 64.0625 55.078125 55.328125 
Q 55.078125 49.078125 51.53125 44.71875 
Q 48 40.375 41.703125 38.8125 
Q 48.828125 37.15625 52.796875 32.3125 
Q 56.78125 27.484375 56.78125 20.515625 
Q 56.78125 9.90625 50.3125 4.234375 
Q 43.84375 -1.421875 31.78125 -1.421875 
Q 19.734375 -1.421875 13.25 4.234375 
Q 6.78125 9.90625 6.78125 20.515625 
Q 6.78125 27.484375 10.78125 32.3125 
Q 14.796875 37.15625 21.921875 38.8125 
z
M 18.3125 54.390625 
Q 18.3125 48.734375 21.84375 45.5625 
Q 25.390625 42.390625 31.78125 42.390625 
Q 38.140625 42.390625 41.71875 45.5625 
Q 45.3125 48.734375 45.3125 54.390625 
Q 45.3125 60.0625 41.71875 63.234375 
Q 38.140625 66.40625 31.78125 66.40625 
Q 25.390625 66.40625 21.84375 63.234375 
Q 18.3125 60.0625 18.3125 54.390625 
z
" id="DejaVuSans-56"/>
      </defs>
      <g transform="translate(67.096875 187.99697)scale(0.1 -0.1)">
       <use xlink:href="#DejaVuSans-48"/>
       <use x="63.623047" xlink:href="#DejaVuSans-46"/>
       <use x="95.410156" xlink:href="#DejaVuSans-56"/>
      </g>
     </g>
    </g>
    <g id="ytick_5">
     <g id="line2d_25">
      <path clip-path="url(#p40a3cf6dd3)" d="M 90 150.58744 
L 648 150.58744 
" style="fill:none;stroke:#b0b0b0;stroke-linecap:square;stroke-width:0.8;"/>
     </g>
     <g id="line2d_26">
      <g>
       <use style="stroke:#000000;stroke-width:0.8;" x="90" xlink:href="#m4dbcf7a7b7" y="150.58744"/>
      </g>
     </g>
     <g id="text_14">
      <!-- 1.0 -->
      <g transform="translate(67.096875 154.386659)scale(0.1 -0.1)">
       <use xlink:href="#DejaVuSans-49"/>
       <use x="63.623047" xlink:href="#DejaVuSans-46"/>
       <use x="95.410156" xlink:href="#DejaVuSans-48"/>
      </g>
     </g>
    </g>
    <g id="ytick_6">
     <g id="line2d_27">
      <path clip-path="url(#p40a3cf6dd3)" d="M 90 116.977129 
L 648 116.977129 
" style="fill:none;stroke:#b0b0b0;stroke-linecap:square;stroke-width:0.8;"/>
     </g>
     <g id="line2d_28">
      <g>
       <use style="stroke:#000000;stroke-width:0.8;" x="90" xlink:href="#m4dbcf7a7b7" y="116.977129"/>
      </g>
     </g>
     <g id="text_15">
      <!-- 1.2 -->
      <g transform="translate(67.096875 120.776348)scale(0.1 -0.1)">
       <use xlink:href="#DejaVuSans-49"/>
       <use x="63.623047" xlink:href="#DejaVuSans-46"/>
       <use x="95.410156" xlink:href="#DejaVuSans-50"/>
      </g>
     </g>
    </g>
    <g id="ytick_7">
     <g id="line2d_29">
      <path clip-path="url(#p40a3cf6dd3)" d="M 90 83.366818 
L 648 83.366818 
" style="fill:none;stroke:#b0b0b0;stroke-linecap:square;stroke-width:0.8;"/>
     </g>
     <g id="line2d_30">
      <g>
       <use style="stroke:#000000;stroke-width:0.8;" x="90" xlink:href="#m4dbcf7a7b7" y="83.366818"/>
      </g>
     </g>
     <g id="text_16">
      <!-- 1.4 -->
      <g transform="translate(67.096875 87.166037)scale(0.1 -0.1)">
       <use xlink:href="#DejaVuSans-49"/>
       <use x="63.623047" xlink:href="#DejaVuSans-46"/>
       <use x="95.410156" xlink:href="#DejaVuSans-52"/>
      </g>
     </g>
    </g>
    <g id="ytick_8">
     <g id="line2d_31">
      <path clip-path="url(#p40a3cf6dd3)" d="M 90 49.756508 
L 648 49.756508 
" style="fill:none;stroke:#b0b0b0;stroke-linecap:square;stroke-width:0.8;"/>
     </g>
     <g id="line2d_32">
      <g>
       <use style="stroke:#000000;stroke-width:0.8;" x="90" xlink:href="#m4dbcf7a7b7" y="49.756508"/>
      </g>
     </g>
     <g id="text_17">
      <!-- 1.6 -->
      <g transform="translate(67.096875 53.555726)scale(0.1 -0.1)">
       <use xlink:href="#DejaVuSans-49"/>
       <use x="63.623047" xlink:href="#DejaVuSans-46"/>
       <use x="95.410156" xlink:href="#DejaVuSans-54"/>
      </g>
     </g>
    </g>
    <g id="text_18">
     <!-- loss -->
     <defs>
      <path d="M 9.421875 75.984375 
L 18.40625 75.984375 
L 18.40625 0 
L 9.421875 0 
z
" id="DejaVuSans-108"/>
      <path d="M 44.28125 53.078125 
L 44.28125 44.578125 
Q 40.484375 46.53125 36.375 47.5 
Q 32.28125 48.484375 27.875 48.484375 
Q 21.1875 48.484375 17.84375 46.4375 
Q 14.5 44.390625 14.5 40.28125 
Q 14.5 37.15625 16.890625 35.375 
Q 19.28125 33.59375 26.515625 31.984375 
L 29.59375 31.296875 
Q 39.15625 29.25 43.1875 25.515625 
Q 47.21875 21.78125 47.21875 15.09375 
Q 47.21875 7.46875 41.1875 3.015625 
Q 35.15625 -1.421875 24.609375 -1.421875 
Q 20.21875 -1.421875 15.453125 -0.5625 
Q 10.6875 0.296875 5.421875 2 
L 5.421875 11.28125 
Q 10.40625 8.6875 15.234375 7.390625 
Q 20.0625 6.109375 24.8125 6.109375 
Q 31.15625 6.109375 34.5625 8.28125 
Q 37.984375 10.453125 37.984375 14.40625 
Q 37.984375 18.0625 35.515625 20.015625 
Q 33.0625 21.96875 24.703125 23.78125 
L 21.578125 24.515625 
Q 13.234375 26.265625 9.515625 29.90625 
Q 5.8125 33.546875 5.8125 39.890625 
Q 5.8125 47.609375 11.28125 51.796875 
Q 16.75 56 26.8125 56 
Q 31.78125 56 36.171875 55.265625 
Q 40.578125 54.546875 44.28125 53.078125 
z
" id="DejaVuSans-115"/>
     </defs>
     <g transform="translate(61.017187 188.757812)rotate(-90)scale(0.1 -0.1)">
      <use xlink:href="#DejaVuSans-108"/>
      <use x="27.783203" xlink:href="#DejaVuSans-111"/>
      <use x="88.964844" xlink:href="#DejaVuSans-115"/>
      <use x="141.064453" xlink:href="#DejaVuSans-115"/>
     </g>
    </g>
   </g>
   <g id="line2d_33">
    <path clip-path="url(#p40a3cf6dd3)" d="M 115.363636 55.554545 
L 116.111826 69.984814 
L 117.608206 77.743343 
L 119.104586 82.812663 
L 119.852776 87.735388 
L 120.600965 86.509072 
L 121.349155 88.693268 
L 122.097345 91.324595 
L 122.845535 94.650404 
L 123.593725 95.011232 
L 124.341915 98.613438 
L 125.090105 101.658 
L 125.838294 103.914995 
L 126.586484 107.597234 
L 127.334674 112.315334 
L 128.082864 115.85508 
L 128.831054 118.841598 
L 129.579244 124.681564 
L 130.327434 127.960637 
L 131.075623 135.019853 
L 131.823813 139.561457 
L 132.572003 147.310249 
L 133.320193 149.546921 
L 135.564763 170.237601 
L 136.312953 174.292388 
L 137.061142 177.521405 
L 137.809332 181.523751 
L 138.557522 187.937259 
L 139.305712 192.299792 
L 140.053902 192.777269 
L 140.802092 199.769025 
L 141.550282 200.329865 
L 142.298471 204.019449 
L 143.046661 207.040615 
L 143.794851 210.976311 
L 144.543041 213.023842 
L 145.291231 215.620812 
L 146.787611 218.50881 
L 147.5358 222.037514 
L 148.28399 222.565522 
L 149.03218 221.919058 
L 149.78037 227.358086 
L 150.52856 225.016236 
L 151.27675 228.568096 
L 152.02494 230.59682 
L 152.77313 227.576917 
L 153.521319 232.621384 
L 154.269509 235.394309 
L 155.017699 235.820026 
L 155.765889 237.915106 
L 156.514079 237.02204 
L 157.262269 239.964375 
L 158.758648 241.694278 
L 159.506838 241.83835 
L 160.255028 243.62418 
L 161.003218 243.930655 
L 161.751408 246.439623 
L 162.499598 246.694465 
L 163.247788 248.452842 
L 163.995977 248.876595 
L 164.744167 249.131944 
L 165.492357 251.712508 
L 166.240547 251.652053 
L 166.988737 251.988242 
L 167.736927 252.82171 
L 168.485117 254.554538 
L 169.233307 255.863376 
L 169.981496 256.203434 
L 170.729686 257.338232 
L 171.477876 258.198419 
L 172.226066 258.364119 
L 172.974256 257.319405 
L 173.722446 259.570393 
L 174.470636 260.901157 
L 175.218825 259.390158 
L 175.967015 261.89468 
L 176.715205 259.812185 
L 177.463395 263.083682 
L 178.211585 262.554264 
L 178.959775 264.420804 
L 179.707965 263.635963 
L 180.456154 263.810108 
L 181.204344 267.176761 
L 181.952534 267.212248 
L 182.700724 265.040557 
L 183.448914 266.410816 
L 184.197104 266.117732 
L 184.945294 267.649861 
L 185.693484 267.6174 
L 187.189863 268.075071 
L 187.938053 268.264279 
L 188.686243 270.495663 
L 189.434433 269.305375 
L 190.182623 273.742038 
L 190.930813 271.677617 
L 192.427192 272.273359 
L 193.175382 272.575207 
L 193.923572 274.002268 
L 194.671762 274.598301 
L 195.419952 274.781698 
L 196.168142 273.69304 
L 196.916331 273.667021 
L 197.664521 276.752069 
L 198.412711 273.71592 
L 199.160901 277.040791 
L 199.909091 274.647791 
L 201.405471 274.206214 
L 202.15366 275.633148 
L 202.90185 276.178895 
L 203.65004 277.697156 
L 204.39823 275.845269 
L 205.14642 277.208289 
L 205.89461 277.137978 
L 206.6428 278.094532 
L 207.39099 276.990598 
L 208.139179 277.620415 
L 208.887369 279.019773 
L 209.635559 277.178225 
L 210.383749 277.89935 
L 211.880129 277.535925 
L 212.628319 280.856706 
L 214.124698 277.938752 
L 214.872888 277.720093 
L 215.621078 280.672553 
L 216.369268 279.39735 
L 217.117458 281.001362 
L 217.865648 283.494634 
L 218.613837 280.234553 
L 219.362027 281.847912 
L 220.110217 280.935099 
L 220.858407 280.830852 
L 221.606597 281.902516 
L 222.354787 281.259319 
L 223.102977 280.291393 
L 223.851167 282.848074 
L 224.599356 282.765638 
L 225.347546 281.213084 
L 226.095736 282.226535 
L 226.843926 282.954938 
L 227.592116 283.175417 
L 228.340306 281.141716 
L 229.088496 283.158431 
L 229.836685 281.847226 
L 230.584875 285.011265 
L 231.333065 283.627009 
L 232.081255 284.579584 
L 232.829445 280.355162 
L 233.577635 285.544677 
L 234.325825 282.056288 
L 235.074014 286.661342 
L 235.822204 283.370511 
L 236.570394 282.25038 
L 237.318584 284.321886 
L 238.066774 284.276231 
L 238.814964 284.112319 
L 239.563154 285.645983 
L 240.311344 284.436386 
L 241.059533 285.468234 
L 241.807723 284.39727 
L 242.555913 284.202453 
L 243.304103 284.422662 
L 244.052293 285.089151 
L 244.800483 284.525036 
L 245.548673 284.691543 
L 246.296862 287.016693 
L 247.045052 285.621267 
L 247.793242 286.121198 
L 248.541432 286.776437 
L 249.289622 285.893611 
L 250.037812 286.490977 
L 250.786002 284.199466 
L 251.534191 285.630526 
L 252.282381 286.033371 
L 253.030571 287.585955 
L 253.778761 285.286813 
L 254.526951 287.024907 
L 255.275141 286.767659 
L 256.023331 287.072748 
L 256.771521 286.699571 
L 257.51971 286.007929 
L 258.2679 284.864441 
L 259.01609 289.711876 
L 259.76428 288.028342 
L 260.51247 287.20044 
L 261.26066 288.505429 
L 262.00885 286.459983 
L 262.757039 285.559737 
L 263.505229 285.961161 
L 264.253419 286.984786 
L 265.749799 288.482397 
L 266.497989 288.96926 
L 267.246179 288.273675 
L 267.994368 286.709712 
L 268.742558 285.787667 
L 269.490748 288.491519 
L 270.238938 289.214424 
L 270.987128 288.054811 
L 271.735318 287.784832 
L 272.483508 289.371932 
L 273.231698 288.629288 
L 273.979887 288.612899 
L 274.728077 285.264075 
L 275.476267 288.345918 
L 276.972647 287.831032 
L 277.720837 288.486892 
L 278.469027 289.981164 
L 279.217216 289.098045 
L 279.965406 288.694531 
L 280.713596 288.810979 
L 281.461786 290.075284 
L 282.209976 288.313616 
L 282.958166 287.683108 
L 283.706356 290.747516 
L 284.454545 288.490621 
L 285.202735 290.075865 
L 285.950925 290.15052 
L 286.699115 288.951332 
L 287.447305 288.765068 
L 288.195495 289.434362 
L 288.943685 288.764237 
L 289.691874 288.826758 
L 290.440064 290.366691 
L 291.188254 289.992156 
L 291.936444 288.075629 
L 292.684634 289.348579 
L 293.432824 288.593018 
L 294.181014 288.828086 
L 294.929204 289.219293 
L 295.677393 290.0832 
L 296.425583 291.129828 
L 297.173773 290.327412 
L 298.670153 290.329584 
L 299.418343 291.634687 
L 300.166533 291.359532 
L 300.914722 290.123938 
L 301.662912 291.559804 
L 302.411102 291.410939 
L 303.159292 291.505327 
L 303.907482 290.491818 
L 304.655672 291.300804 
L 305.403862 291.688365 
L 306.152051 291.946462 
L 306.900241 290.953199 
L 307.648431 290.413206 
L 308.396621 292.901056 
L 309.144811 290.222939 
L 309.893001 289.72807 
L 310.641191 289.63208 
L 311.389381 290.713237 
L 312.13757 288.836517 
L 312.88576 290.523858 
L 313.63395 289.370377 
L 314.38214 291.750263 
L 315.13033 292.10869 
L 315.87852 290.66345 
L 316.62671 290.267296 
L 318.123089 292.098398 
L 318.871279 291.374749 
L 319.619469 292.519346 
L 320.367659 294.288612 
L 321.115849 294.451198 
L 321.864039 291.923971 
L 322.612228 292.592543 
L 323.360418 294.61218 
L 324.108608 293.201062 
L 324.856798 292.075279 
L 325.604988 292.742004 
L 326.353178 292.197697 
L 327.101368 290.942125 
L 327.849558 290.725534 
L 328.597747 294.165837 
L 330.094127 291.303939 
L 330.842317 292.782486 
L 332.338697 292.267443 
L 333.086887 292.558851 
L 333.835076 292.26088 
L 335.331456 292.727256 
L 336.079646 293.647844 
L 336.827836 293.937084 
L 337.576026 289.912121 
L 338.324216 292.536617 
L 339.072405 293.413484 
L 339.820595 293.432594 
L 340.568785 292.112973 
L 341.316975 293.365735 
L 342.065165 292.040278 
L 342.813355 291.440424 
L 343.561545 292.349259 
L 344.309735 292.076001 
L 345.057924 294.379907 
L 345.806114 292.644183 
L 346.554304 293.241465 
L 347.302494 290.755958 
L 348.050684 293.828193 
L 348.798874 291.909241 
L 349.547064 292.505734 
L 350.295253 294.049891 
L 351.043443 291.196736 
L 351.791633 294.200339 
L 352.539823 291.945486 
L 354.036203 295.079695 
L 354.784393 293.941133 
L 355.532582 292.457506 
L 356.280772 293.906717 
L 357.028962 291.489906 
L 357.777152 293.277278 
L 358.525342 293.736797 
L 359.273532 293.065194 
L 360.021722 294.702777 
L 360.769912 292.072568 
L 361.518101 293.597256 
L 362.266291 295.422483 
L 363.014481 296.692432 
L 363.762671 293.247956 
L 364.510861 292.63575 
L 365.259051 293.100861 
L 366.007241 293.057375 
L 366.75543 291.036547 
L 367.50362 293.405123 
L 368.25181 294.092044 
L 369 292.667348 
L 369.74819 296.03323 
L 370.49638 294.910559 
L 371.24457 294.478285 
L 371.992759 294.973177 
L 372.740949 294.168916 
L 373.489139 294.7693 
L 374.237329 293.865786 
L 374.985519 293.354943 
L 375.733709 293.172308 
L 376.481899 297.085125 
L 377.230088 294.658283 
L 377.978278 294.345344 
L 378.726468 297.173069 
L 379.474658 294.026605 
L 380.222848 295.413603 
L 381.719228 295.271465 
L 382.467418 294.79414 
L 383.215607 294.071781 
L 383.963797 294.417347 
L 384.711987 294.049493 
L 385.460177 295.723697 
L 386.208367 294.760945 
L 386.956557 294.001428 
L 387.704747 293.846813 
L 388.452936 292.972769 
L 389.949316 296.715963 
L 390.697506 291.741547 
L 392.193886 295.581872 
L 392.942076 295.161265 
L 393.690265 295.024011 
L 394.438455 295.010683 
L 395.186645 296.013926 
L 395.934835 294.951993 
L 396.683025 294.460831 
L 397.431215 294.34849 
L 398.179405 296.522367 
L 398.927595 296.410864 
L 399.675784 295.058514 
L 400.423974 295.026339 
L 401.172164 294.283518 
L 401.920354 296.67795 
L 402.668544 296.309517 
L 403.416734 296.400341 
L 404.164924 293.614765 
L 404.913113 297.664389 
L 405.661303 295.990356 
L 406.409493 296.259743 
L 407.157683 295.129251 
L 408.654063 295.372343 
L 409.402253 294.49486 
L 410.150442 295.558519 
L 410.898632 293.441716 
L 412.395012 296.480221 
L 413.143202 295.892652 
L 414.639582 297.732341 
L 415.387772 296.260791 
L 416.135961 295.41166 
L 416.884151 295.107361 
L 417.632341 296.448616 
L 418.380531 294.204441 
L 419.128721 296.763432 
L 419.876911 298.912761 
L 420.625101 295.133906 
L 421.37329 295.440908 
L 422.12148 293.747633 
L 422.86967 296.078169 
L 423.61786 294.143485 
L 424.36605 296.056938 
L 425.11424 297.321653 
L 425.86243 294.402366 
L 426.610619 293.95499 
L 427.358809 294.306725 
L 428.106999 295.013979 
L 428.855189 297.255667 
L 429.603379 296.270755 
L 430.351569 298.800377 
L 431.099759 295.732758 
L 431.847949 295.225543 
L 432.596138 296.686718 
L 433.344328 297.482263 
L 434.092518 297.51971 
L 434.840708 297.25264 
L 435.588898 297.872001 
L 436.337088 296.437085 
L 437.085278 298.02112 
L 437.833467 295.633585 
L 438.581657 294.147305 
L 439.329847 297.464534 
L 440.078037 296.832091 
L 441.574417 296.089951 
L 442.322607 295.41615 
L 443.070796 296.793995 
L 443.818986 296.331586 
L 444.567176 297.926539 
L 445.315366 298.313552 
L 446.063556 297.062253 
L 446.811746 296.256359 
L 447.559936 295.034667 
L 448.308126 297.696969 
L 449.056315 295.097191 
L 449.804505 297.086651 
L 450.552695 293.62669 
L 451.300885 297.492494 
L 452.049075 296.041636 
L 452.797265 296.467773 
L 453.545455 297.288335 
L 454.293644 299.243896 
L 455.041834 297.327869 
L 455.790024 296.993358 
L 456.538214 298.388493 
L 457.286404 296.990573 
L 458.034594 296.989876 
L 458.782784 297.852215 
L 459.530973 297.978909 
L 460.279163 296.826832 
L 461.027353 297.377936 
L 461.775543 297.718615 
L 462.523733 295.882734 
L 463.271923 298.173372 
L 464.020113 296.186824 
L 464.768302 296.750535 
L 465.516492 297.488244 
L 466.264682 297.792905 
L 467.012872 296.213516 
L 467.761062 297.30869 
L 468.509252 297.358647 
L 469.257442 295.925624 
L 470.005632 297.982041 
L 470.753821 298.319529 
L 471.502011 300.103925 
L 472.250201 297.841053 
L 472.998391 297.587738 
L 473.746581 298.354117 
L 474.494771 296.14396 
L 475.242961 297.926082 
L 475.99115 296.974438 
L 476.73934 298.436708 
L 477.48753 298.871219 
L 478.23572 297.768109 
L 478.98391 299.394301 
L 479.7321 298.550729 
L 480.48029 296.890113 
L 481.228479 296.450316 
L 481.976669 296.765539 
L 482.724859 298.981049 
L 484.221239 296.270146 
L 484.969429 298.963997 
L 485.717619 297.709277 
L 486.465809 298.795014 
L 487.213998 296.211451 
L 487.962188 296.192866 
L 488.710378 296.76794 
L 489.458568 296.489688 
L 490.206758 298.599306 
L 490.954948 297.201245 
L 491.703138 296.818435 
L 492.451327 300.370872 
L 493.199517 297.691464 
L 493.947707 297.728659 
L 494.695897 299.378623 
L 495.444087 296.259363 
L 496.192277 298.849993 
L 496.940467 298.23909 
L 497.688656 298.36651 
L 498.436846 299.04729 
L 499.185036 298.748465 
L 499.933226 297.995612 
L 500.681416 298.957811 
L 501.429606 297.960172 
L 502.177796 298.813439 
L 502.925986 297.767413 
L 503.674175 298.112444 
L 504.422365 297.803044 
L 505.918745 298.958506 
L 506.666935 298.288743 
L 508.163315 299.405737 
L 508.911504 298.54812 
L 509.659694 296.393551 
L 510.407884 301.512634 
L 511.156074 299.15411 
L 511.904264 301.88415 
L 512.652454 298.500828 
L 513.400644 297.8394 
L 514.148833 297.692486 
L 514.897023 297.99144 
L 515.645213 297.96704 
L 516.393403 297.586391 
L 517.141593 299.560897 
L 517.889783 299.090688 
L 518.637973 299.321398 
L 519.386163 300.095177 
L 520.134352 298.399807 
L 520.882542 299.869313 
L 521.630732 299.501606 
L 522.378922 298.797243 
L 523.127112 299.290217 
L 523.875302 297.569787 
L 524.623492 298.270508 
L 525.371681 300.124008 
L 526.119871 298.685488 
L 526.868061 299.842575 
L 527.616251 299.422715 
L 529.112631 297.548525 
L 529.860821 297.973693 
L 530.60901 299.476427 
L 531.3572 299.097241 
L 532.10539 296.824899 
L 532.85358 296.714024 
L 534.34996 299.378017 
L 535.09815 298.843343 
L 535.84634 298.997935 
L 536.594529 298.512141 
L 537.342719 299.555382 
L 538.090909 298.445612 
L 538.839099 299.893479 
L 539.587289 298.304794 
L 540.335479 299.558596 
L 541.083669 299.195613 
L 541.831858 299.551475 
L 542.580048 299.313897 
L 543.328238 300.168394 
L 544.076428 297.499681 
L 544.824618 299.124059 
L 545.572808 295.960335 
L 546.320998 299.369532 
L 547.069187 297.794838 
L 547.817377 298.6596 
L 548.565567 298.70437 
L 549.313757 301.305467 
L 550.061947 297.931409 
L 550.810137 296.941021 
L 551.558327 298.443478 
L 552.306516 298.220192 
L 553.054706 299.018647 
L 553.802896 299.543254 
L 554.551086 298.478003 
L 555.299276 299.238884 
L 556.047466 300.321171 
L 556.795656 300.772503 
L 557.543846 300.458636 
L 558.292035 298.676297 
L 559.040225 300.03371 
L 559.788415 299.292825 
L 560.536605 297.818597 
L 561.284795 298.793816 
L 562.032985 299.181644 
L 562.781175 300.75809 
L 563.529364 302.063785 
L 564.277554 297.475223 
L 565.025744 297.648472 
L 565.773934 299.237701 
L 566.522124 300.0015 
L 567.270314 300.391097 
L 568.018504 298.951576 
L 568.766693 299.595363 
L 569.514883 299.176628 
L 570.263073 300.950544 
L 571.011263 299.356929 
L 571.759453 300.394914 
L 572.507643 298.118468 
L 573.255833 299.050693 
L 574.004023 298.25053 
L 574.752212 299.706961 
L 575.500402 299.819154 
L 576.248592 299.068306 
L 576.996782 299.908464 
L 577.744972 297.893899 
L 578.493162 299.26612 
L 579.241352 298.238613 
L 579.989541 297.63901 
L 580.737731 298.118395 
L 581.485921 299.802003 
L 582.234111 298.34741 
L 582.982301 301.064914 
L 583.730491 299.655545 
L 585.22687 300.065699 
L 585.97506 298.599592 
L 586.72325 300.205156 
L 587.47144 299.156581 
L 588.21963 298.603373 
L 588.96782 302.645455 
L 589.71601 300.161258 
L 590.4642 299.601746 
L 591.212389 299.5525 
L 591.960579 300.516375 
L 592.708769 298.938422 
L 593.456959 299.394673 
L 594.205149 302.182121 
L 594.953339 299.647116 
L 595.701529 298.758674 
L 597.197908 300.176839 
L 597.946098 300.90452 
L 598.694288 300.981146 
L 599.442478 300.649021 
L 600.190668 300.082214 
L 600.938858 300.736677 
L 601.687047 299.109624 
L 602.435237 300.517595 
L 603.183427 301.618807 
L 603.931617 300.121282 
L 604.679807 300.117776 
L 605.427997 299.703402 
L 606.176187 299.532272 
L 606.924377 299.736123 
L 607.672566 301.701929 
L 608.420756 299.997769 
L 609.168946 301.116758 
L 609.917136 300.284984 
L 610.665326 299.858838 
L 611.413516 299.933523 
L 612.161706 300.299864 
L 612.909895 299.476678 
L 613.658085 300.71354 
L 614.406275 301.472431 
L 615.154465 298.102762 
L 615.902655 299.630096 
L 616.650845 300.348501 
L 617.399035 299.185932 
L 618.147224 300.61743 
L 618.895414 297.986165 
L 619.643604 300.204964 
L 620.391794 301.109373 
L 621.139984 300.162951 
L 621.888174 298.642331 
L 622.636364 299.323584 
L 622.636364 299.323584 
" style="fill:none;stroke:#1f77b4;stroke-linecap:square;stroke-width:0.5;"/>
   </g>
   <g id="line2d_34">
    <path clip-path="url(#p40a3cf6dd3)" d="M 115.363636 62.546309 
L 116.111826 72.290971 
L 116.860016 72.399027 
L 117.608206 79.345281 
L 118.356396 81.046067 
L 119.104586 82.090644 
L 119.852776 84.347023 
L 120.600965 83.566106 
L 121.349155 87.681674 
L 122.097345 91.06066 
L 122.845535 92.162557 
L 124.341915 96.87749 
L 125.090105 101.087975 
L 125.838294 101.359624 
L 126.586484 107.410007 
L 127.334674 111.028176 
L 128.082864 113.882041 
L 128.831054 119.956877 
L 130.327434 128.377546 
L 131.075623 136.024234 
L 131.823813 138.720852 
L 133.320193 150.891773 
L 134.068383 155.131484 
L 134.816573 165.316421 
L 135.564763 164.359109 
L 136.312953 172.391758 
L 137.809332 185.809867 
L 138.557522 185.968448 
L 139.305712 193.560512 
L 140.053902 193.123209 
L 140.802092 195.438422 
L 141.550282 202.188301 
L 142.298471 204.476435 
L 143.046661 208.444116 
L 143.794851 205.502201 
L 144.543041 213.624771 
L 145.291231 213.014689 
L 146.039421 214.612657 
L 146.787611 219.747824 
L 147.5358 219.37106 
L 148.28399 220.240716 
L 149.03218 222.287218 
L 149.78037 223.606104 
L 150.52856 225.204115 
L 151.27675 226.210967 
L 152.02494 231.341956 
L 152.77313 230.047352 
L 153.521319 230.338052 
L 154.269509 231.9579 
L 155.017699 235.185237 
L 155.765889 235.68138 
L 156.514079 237.666072 
L 157.262269 238.175749 
L 158.010459 240.336814 
L 158.758648 239.20604 
L 159.506838 240.627189 
L 160.255028 244.858165 
L 161.003218 245.28779 
L 161.751408 244.68163 
L 162.499598 244.554684 
L 163.247788 247.458024 
L 163.995977 246.887427 
L 164.744167 247.118125 
L 165.492357 249.290901 
L 166.240547 250.882996 
L 166.988737 249.923071 
L 167.736927 253.224608 
L 168.485117 253.118172 
L 169.233307 254.229168 
L 169.981496 253.992167 
L 170.729686 254.302533 
L 171.477876 255.979453 
L 172.226066 255.423945 
L 172.974256 258.054404 
L 175.218825 260.185267 
L 175.967015 261.49182 
L 176.715205 259.788464 
L 177.463395 262.838014 
L 178.211585 263.953039 
L 178.959775 259.518431 
L 179.707965 263.96185 
L 180.456154 264.297636 
L 181.204344 266.610032 
L 181.952534 264.182705 
L 182.700724 267.707703 
L 183.448914 265.3048 
L 184.197104 268.280133 
L 184.945294 267.836324 
L 185.693484 268.923858 
L 186.441673 267.04994 
L 187.189863 268.48229 
L 187.938053 268.962934 
L 188.686243 270.418285 
L 189.434433 272.630862 
L 190.182623 270.518332 
L 190.930813 269.978205 
L 191.679002 273.063719 
L 192.427192 270.46677 
L 193.175382 271.786639 
L 193.923572 271.579978 
L 194.671762 272.325212 
L 195.419952 272.29701 
L 196.168142 273.521964 
L 196.916331 273.522163 
L 197.664521 272.466254 
L 198.412711 274.983815 
L 199.160901 275.99237 
L 199.909091 272.504574 
L 200.657281 276.737601 
L 201.405471 275.326373 
L 202.15366 276.082449 
L 202.90185 279.998317 
L 203.65004 274.153682 
L 204.39823 276.050945 
L 205.14642 276.194163 
L 205.89461 278.60089 
L 206.6428 277.000784 
L 208.139179 278.317322 
L 208.887369 277.181618 
L 209.635559 279.306489 
L 210.383749 279.274684 
L 211.131939 278.904111 
L 211.880129 279.234007 
L 212.628319 277.220945 
L 213.376508 279.324158 
L 214.124698 279.131859 
L 214.872888 282.047489 
L 215.621078 279.379465 
L 216.369268 280.494818 
L 217.117458 281.889601 
L 217.865648 281.456805 
L 218.613837 281.917743 
L 219.362027 283.350838 
L 220.110217 280.51914 
L 220.858407 283.136284 
L 221.606597 280.859228 
L 222.354787 281.626177 
L 223.102977 284.103635 
L 223.851167 281.407245 
L 224.599356 281.980347 
L 225.347546 283.793208 
L 226.095736 282.936867 
L 226.843926 283.859533 
L 227.592116 282.467494 
L 229.088496 283.020154 
L 229.836685 282.259842 
L 230.584875 281.903584 
L 231.333065 281.250499 
L 232.081255 284.804147 
L 232.829445 281.918672 
L 233.577635 283.924951 
L 234.325825 284.968575 
L 235.074014 284.030134 
L 235.822204 286.142228 
L 236.570394 283.520181 
L 237.318584 284.482581 
L 238.066774 283.556317 
L 238.814964 286.410052 
L 239.563154 285.768083 
L 240.311344 284.01751 
L 241.059533 287.337325 
L 241.807723 284.885817 
L 242.555913 286.318592 
L 243.304103 286.111919 
L 244.052293 284.640702 
L 244.800483 284.499224 
L 245.548673 287.020757 
L 246.296862 287.380739 
L 247.045052 286.178455 
L 247.793242 285.495914 
L 248.541432 287.232239 
L 249.289622 285.711812 
L 250.037812 287.710485 
L 250.786002 287.945022 
L 251.534191 288.05413 
L 252.282381 287.543868 
L 253.030571 284.921301 
L 253.778761 285.909725 
L 254.526951 286.161213 
L 255.275141 287.173334 
L 256.023331 284.367396 
L 256.771521 283.530276 
L 258.2679 289.458155 
L 259.01609 285.182242 
L 259.76428 286.151032 
L 260.51247 287.335351 
L 261.26066 290.316185 
L 262.00885 288.396569 
L 262.757039 287.044401 
L 263.505229 286.36355 
L 264.253419 287.641233 
L 265.001609 288.680909 
L 266.497989 287.676996 
L 267.246179 286.612223 
L 267.994368 287.84923 
L 268.742558 287.921268 
L 269.490748 286.095842 
L 270.238938 287.69151 
L 271.735318 289.458971 
L 272.483508 288.936708 
L 273.231698 287.597916 
L 273.979887 289.159828 
L 274.728077 289.773215 
L 275.476267 287.757137 
L 276.224457 288.723984 
L 276.972647 289.399101 
L 277.720837 288.462989 
L 278.469027 290.571133 
L 279.217216 287.163765 
L 279.965406 289.801865 
L 280.713596 289.038227 
L 281.461786 286.270618 
L 282.958166 288.340733 
L 283.706356 288.460638 
L 284.454545 288.023309 
L 285.202735 291.246166 
L 285.950925 288.463987 
L 286.699115 289.517905 
L 287.447305 289.124312 
L 288.195495 289.232577 
L 288.943685 289.049553 
L 290.440064 289.92969 
L 291.188254 290.877513 
L 291.936444 289.218453 
L 292.684634 289.65249 
L 293.432824 289.000343 
L 294.181014 289.101163 
L 294.929204 292.432968 
L 295.677393 290.436439 
L 296.425583 289.497322 
L 297.173773 291.737262 
L 297.921963 290.229289 
L 298.670153 290.780445 
L 299.418343 289.866987 
L 300.166533 289.304599 
L 300.914722 289.443564 
L 301.662912 291.572854 
L 302.411102 290.069964 
L 303.159292 290.3852 
L 303.907482 289.399858 
L 304.655672 291.189768 
L 305.403862 291.143995 
L 306.152051 290.655555 
L 306.900241 291.787315 
L 307.648431 290.021851 
L 308.396621 287.756546 
L 309.893001 290.688283 
L 310.641191 291.548275 
L 311.389381 290.765513 
L 312.13757 291.454061 
L 312.88576 290.503535 
L 313.63395 290.728368 
L 314.38214 289.360568 
L 315.87852 291.63743 
L 316.62671 291.620739 
L 317.374899 292.635709 
L 318.123089 289.861611 
L 318.871279 291.887422 
L 319.619469 292.367532 
L 320.367659 290.163164 
L 321.115849 293.072717 
L 322.612228 290.3689 
L 323.360418 291.733068 
L 324.108608 291.55202 
L 324.856798 289.940843 
L 325.604988 290.575734 
L 326.353178 292.559523 
L 327.101368 291.417929 
L 327.849558 291.435372 
L 328.597747 288.824433 
L 329.345937 291.383175 
L 330.094127 292.30955 
L 331.590507 288.933237 
L 332.338697 290.61288 
L 333.086887 291.642635 
L 333.835076 292.005301 
L 334.583266 290.35094 
L 335.331456 292.12816 
L 336.079646 294.194024 
L 336.827836 291.004748 
L 337.576026 292.928937 
L 338.324216 292.471774 
L 339.072405 291.383023 
L 339.820595 290.874834 
L 340.568785 293.108954 
L 341.316975 291.863985 
L 342.065165 292.191923 
L 342.813355 291.307511 
L 343.561545 291.753136 
L 344.309735 292.605861 
L 345.057924 289.872722 
L 345.806114 291.477946 
L 346.554304 292.440094 
L 347.302494 290.04382 
L 348.050684 291.145538 
L 348.798874 290.865726 
L 349.547064 293.805646 
L 350.295253 291.639042 
L 351.043443 292.971918 
L 351.791633 293.177113 
L 352.539823 291.78673 
L 353.288013 291.699681 
L 354.036203 291.042879 
L 354.784393 294.46778 
L 355.532582 292.165143 
L 356.280772 290.79361 
L 357.028962 293.568843 
L 357.777152 292.230625 
L 358.525342 291.659599 
L 359.273532 292.939198 
L 360.021722 293.755592 
L 360.769912 292.223467 
L 361.518101 294.227495 
L 362.266291 294.434591 
L 363.014481 293.492354 
L 363.762671 291.988051 
L 364.510861 292.336779 
L 365.259051 291.35517 
L 366.007241 292.946118 
L 366.75543 293.234206 
L 367.50362 292.286356 
L 368.25181 292.834112 
L 369 291.461416 
L 369.74819 290.940315 
L 370.49638 293.836422 
L 371.24457 290.660769 
L 371.992759 294.556944 
L 372.740949 294.067444 
L 373.489139 293.129265 
L 374.237329 293.138705 
L 374.985519 293.425288 
L 375.733709 292.611923 
L 376.481899 292.149174 
L 377.230088 294.684335 
L 377.978278 293.820419 
L 378.726468 293.329212 
L 379.474658 294.357162 
L 380.222848 292.078633 
L 380.971038 293.514055 
L 381.719228 291.56819 
L 382.467418 292.691588 
L 383.215607 291.716149 
L 383.963797 293.683127 
L 384.711987 292.706654 
L 386.956557 293.495156 
L 387.704747 293.520575 
L 388.452936 292.725326 
L 389.201126 293.106091 
L 389.949316 292.595688 
L 390.697506 291.592812 
L 391.445696 292.624585 
L 392.193886 293.226501 
L 392.942076 292.587308 
L 393.690265 293.845427 
L 394.438455 293.936956 
L 395.186645 291.238341 
L 395.934835 294.539851 
L 396.683025 294.044571 
L 397.431215 292.971831 
L 398.179405 293.030054 
L 398.927595 294.973076 
L 399.675784 293.523037 
L 400.423974 293.321277 
L 401.172164 291.777118 
L 401.920354 292.555517 
L 402.668544 291.244344 
L 403.416734 294.067288 
L 404.164924 292.900285 
L 404.913113 293.660378 
L 405.661303 293.791168 
L 406.409493 294.291134 
L 407.157683 293.273001 
L 407.905873 293.043551 
L 408.654063 293.515229 
L 409.402253 293.466247 
L 410.150442 293.880281 
L 410.898632 292.530329 
L 411.646822 291.845826 
L 412.395012 291.754767 
L 413.143202 293.210252 
L 413.891392 291.900438 
L 414.639582 293.639026 
L 415.387772 291.96693 
L 416.135961 294.459323 
L 416.884151 292.880434 
L 417.632341 293.352585 
L 418.380531 294.391446 
L 419.128721 292.472414 
L 419.876911 292.558619 
L 420.625101 293.053993 
L 421.37329 292.010467 
L 422.12148 294.550423 
L 422.86967 290.134689 
L 423.61786 293.922428 
L 424.36605 294.813774 
L 425.86243 294.492162 
L 426.610619 293.611486 
L 427.358809 293.379579 
L 428.106999 291.847438 
L 428.855189 291.794606 
L 429.603379 293.337285 
L 430.351569 293.176144 
L 431.099759 293.212138 
L 431.847949 292.533796 
L 432.596138 291.575838 
L 433.344328 294.712564 
L 434.092518 292.342907 
L 434.840708 293.08186 
L 435.588898 291.693172 
L 436.337088 294.188222 
L 437.085278 294.045102 
L 437.833467 293.031613 
L 438.581657 292.592979 
L 439.329847 293.878325 
L 440.826227 293.30415 
L 441.574417 293.381609 
L 442.322607 294.63325 
L 443.070796 292.511019 
L 443.818986 292.926011 
L 444.567176 295.401765 
L 445.315366 294.232612 
L 446.063556 291.594886 
L 446.811746 292.551383 
L 447.559936 293.984753 
L 448.308126 293.548191 
L 449.056315 293.336969 
L 449.804505 291.260951 
L 450.552695 293.534026 
L 451.300885 294.261153 
L 452.049075 294.277012 
L 452.797265 294.856276 
L 453.545455 293.669983 
L 454.293644 293.720211 
L 455.041834 292.544784 
L 455.790024 293.636562 
L 456.538214 293.95117 
L 457.286404 292.42996 
L 458.034594 294.467083 
L 458.782784 292.688342 
L 459.530973 293.987224 
L 461.027353 292.781505 
L 461.775543 293.269724 
L 462.523733 294.979545 
L 463.271923 293.360959 
L 464.020113 292.630172 
L 464.768302 293.023231 
L 465.516492 294.126453 
L 466.264682 292.361474 
L 467.012872 294.49299 
L 467.761062 292.489562 
L 468.509252 294.583059 
L 469.257442 293.994621 
L 470.005632 295.442096 
L 470.753821 292.341968 
L 471.502011 294.080944 
L 472.250201 294.573631 
L 472.998391 296.325687 
L 473.746581 295.554723 
L 474.494771 294.463315 
L 475.242961 292.976632 
L 475.99115 293.516344 
L 476.73934 295.322225 
L 477.48753 295.229048 
L 478.23572 293.833328 
L 478.98391 293.605588 
L 479.7321 291.939752 
L 480.48029 294.060275 
L 481.228479 292.717455 
L 481.976669 294.099997 
L 483.473049 294.726187 
L 484.221239 295.063068 
L 484.969429 293.100735 
L 485.717619 293.367441 
L 486.465809 293.204863 
L 487.213998 293.561266 
L 487.962188 293.644868 
L 488.710378 292.863839 
L 489.458568 292.877362 
L 490.954948 293.323566 
L 491.703138 291.262776 
L 492.451327 294.051857 
L 493.199517 293.440209 
L 493.947707 292.505223 
L 494.695897 293.649189 
L 495.444087 295.711686 
L 496.192277 296.190758 
L 496.940467 293.635444 
L 497.688656 296.082985 
L 499.185036 293.544508 
L 499.933226 293.437066 
L 500.681416 295.824974 
L 502.177796 292.756208 
L 502.925986 291.902579 
L 503.674175 293.979317 
L 504.422365 292.699198 
L 505.170555 293.389072 
L 505.918745 294.44422 
L 506.666935 295.208669 
L 507.415125 294.023405 
L 508.163315 293.354542 
L 508.911504 293.822007 
L 509.659694 295.01368 
L 510.407884 294.057364 
L 511.904264 294.220429 
L 512.652454 292.831564 
L 513.400644 293.496754 
L 514.148833 292.511106 
L 514.897023 292.648662 
L 515.645213 292.637013 
L 516.393403 293.063204 
L 517.141593 293.834873 
L 517.889783 293.421008 
L 518.637973 293.519393 
L 520.134352 294.270819 
L 520.882542 292.552412 
L 521.630732 294.312705 
L 522.378922 293.892266 
L 523.127112 293.965244 
L 523.875302 294.723557 
L 524.623492 291.681705 
L 525.371681 294.632248 
L 526.119871 292.962167 
L 526.868061 295.413314 
L 527.616251 294.466827 
L 528.364441 294.482601 
L 529.112631 293.406097 
L 529.860821 291.736168 
L 530.60901 291.947795 
L 531.3572 293.648476 
L 532.10539 294.482155 
L 532.85358 292.479663 
L 533.60177 293.129434 
L 534.34996 291.833028 
L 535.09815 294.258779 
L 536.594529 292.314035 
L 538.090909 293.738503 
L 538.839099 291.476464 
L 539.587289 295.251025 
L 540.335479 295.470996 
L 541.083669 293.556106 
L 541.831858 295.877843 
L 542.580048 295.736915 
L 543.328238 291.342379 
L 544.076428 294.270995 
L 545.572808 292.883613 
L 546.320998 292.042591 
L 547.069187 291.628877 
L 547.817377 291.79966 
L 548.565567 295.507752 
L 549.313757 295.630844 
L 550.061947 295.034788 
L 550.810137 294.626747 
L 551.558327 295.565788 
L 552.306516 292.814311 
L 553.054706 295.507037 
L 553.802896 294.510178 
L 555.299276 293.652106 
L 556.047466 293.852256 
L 556.795656 294.502127 
L 557.543846 293.357897 
L 558.292035 294.30954 
L 559.040225 293.453168 
L 559.788415 294.719597 
L 560.536605 292.805784 
L 561.284795 295.109262 
L 562.032985 293.641512 
L 562.781175 293.711834 
L 563.529364 294.633244 
L 564.277554 294.196728 
L 565.025744 292.776742 
L 565.773934 295.144056 
L 566.522124 293.794049 
L 567.270314 295.16813 
L 568.018504 295.582847 
L 568.766693 294.856803 
L 570.263073 293.805456 
L 571.011263 293.651791 
L 572.507643 292.987911 
L 573.255833 294.079953 
L 574.004023 293.192646 
L 574.752212 293.43187 
L 575.500402 292.108138 
L 576.248592 293.670678 
L 576.996782 294.144053 
L 577.744972 291.991333 
L 578.493162 292.534786 
L 579.241352 295.483346 
L 579.989541 292.663357 
L 580.737731 292.504754 
L 581.485921 293.267181 
L 582.234111 293.00293 
L 582.982301 293.753934 
L 583.730491 292.981451 
L 584.478681 293.338287 
L 585.22687 294.458633 
L 585.97506 293.102374 
L 586.72325 292.532508 
L 587.47144 292.546561 
L 588.21963 294.441119 
L 588.96782 295.373312 
L 589.71601 294.895178 
L 590.4642 292.285357 
L 591.212389 293.294341 
L 591.960579 291.581756 
L 592.708769 294.54172 
L 593.456959 292.640918 
L 594.205149 292.537731 
L 594.953339 294.850241 
L 595.701529 293.705356 
L 596.449718 294.933039 
L 597.197908 293.775091 
L 597.946098 292.892605 
L 598.694288 292.97332 
L 599.442478 292.764132 
L 600.190668 294.927526 
L 600.938858 292.774979 
L 601.687047 292.739934 
L 602.435237 294.177501 
L 603.183427 294.336774 
L 603.931617 291.927899 
L 604.679807 291.070981 
L 605.427997 292.648163 
L 606.176187 294.891561 
L 606.924377 293.440071 
L 607.672566 294.474501 
L 608.420756 292.832581 
L 609.168946 293.242676 
L 609.917136 295.349461 
L 610.665326 293.110186 
L 611.413516 295.659669 
L 612.161706 293.584906 
L 612.909895 292.665839 
L 613.658085 294.642524 
L 614.406275 292.284796 
L 615.154465 294.1756 
L 616.650845 294.604297 
L 618.147224 293.322868 
L 618.895414 290.128666 
L 619.643604 292.820577 
L 620.391794 294.317728 
L 621.139984 292.511303 
L 621.888174 295.744583 
L 622.636364 293.9799 
L 622.636364 293.9799 
" style="fill:none;stroke:#ff7f0e;stroke-linecap:square;stroke-width:0.5;"/>
   </g>
   <g id="patch_3">
    <path d="M 90 315 
L 90 43.2 
" style="fill:none;stroke:#000000;stroke-linecap:square;stroke-linejoin:miter;stroke-width:0.8;"/>
   </g>
   <g id="patch_4">
    <path d="M 648 315 
L 648 43.2 
" style="fill:none;stroke:#000000;stroke-linecap:square;stroke-linejoin:miter;stroke-width:0.8;"/>
   </g>
   <g id="patch_5">
    <path d="M 90 315 
L 648 315 
" style="fill:none;stroke:#000000;stroke-linecap:square;stroke-linejoin:miter;stroke-width:0.8;"/>
   </g>
   <g id="patch_6">
    <path d="M 90 43.2 
L 648 43.2 
" style="fill:none;stroke:#000000;stroke-linecap:square;stroke-linejoin:miter;stroke-width:0.8;"/>
   </g>
   <g id="text_19">
    <!-- loss -->
    <g transform="translate(357.410625 37.2)scale(0.12 -0.12)">
     <use xlink:href="#DejaVuSans-108"/>
     <use x="27.783203" xlink:href="#DejaVuSans-111"/>
     <use x="88.964844" xlink:href="#DejaVuSans-115"/>
     <use x="141.064453" xlink:href="#DejaVuSans-115"/>
    </g>
   </g>
   <g id="legend_1">
    <g id="patch_7">
     <path d="M 568.846875 80.55625 
L 641 80.55625 
Q 643 80.55625 643 78.55625 
L 643 50.2 
Q 643 48.2 641 48.2 
L 568.846875 48.2 
Q 566.846875 48.2 566.846875 50.2 
L 566.846875 78.55625 
Q 566.846875 80.55625 568.846875 80.55625 
z
" style="fill:#ffffff;opacity:0.8;stroke:#cccccc;stroke-linejoin:miter;"/>
    </g>
    <g id="line2d_35">
     <path d="M 570.846875 56.298437 
L 590.846875 56.298437 
" style="fill:none;stroke:#1f77b4;stroke-linecap:square;stroke-width:0.5;"/>
    </g>
    <g id="line2d_36"/>
    <g id="text_20">
     <!-- train -->
     <defs>
      <path d="M 18.3125 70.21875 
L 18.3125 54.6875 
L 36.8125 54.6875 
L 36.8125 47.703125 
L 18.3125 47.703125 
L 18.3125 18.015625 
Q 18.3125 11.328125 20.140625 9.421875 
Q 21.96875 7.515625 27.59375 7.515625 
L 36.8125 7.515625 
L 36.8125 0 
L 27.59375 0 
Q 17.1875 0 13.234375 3.875 
Q 9.28125 7.765625 9.28125 18.015625 
L 9.28125 47.703125 
L 2.6875 47.703125 
L 2.6875 54.6875 
L 9.28125 54.6875 
L 9.28125 70.21875 
z
" id="DejaVuSans-116"/>
      <path d="M 41.109375 46.296875 
Q 39.59375 47.171875 37.8125 47.578125 
Q 36.03125 48 33.890625 48 
Q 26.265625 48 22.1875 43.046875 
Q 18.109375 38.09375 18.109375 28.8125 
L 18.109375 0 
L 9.078125 0 
L 9.078125 54.6875 
L 18.109375 54.6875 
L 18.109375 46.1875 
Q 20.953125 51.171875 25.484375 53.578125 
Q 30.03125 56 36.53125 56 
Q 37.453125 56 38.578125 55.875 
Q 39.703125 55.765625 41.0625 55.515625 
z
" id="DejaVuSans-114"/>
      <path d="M 34.28125 27.484375 
Q 23.390625 27.484375 19.1875 25 
Q 14.984375 22.515625 14.984375 16.5 
Q 14.984375 11.71875 18.140625 8.90625 
Q 21.296875 6.109375 26.703125 6.109375 
Q 34.1875 6.109375 38.703125 11.40625 
Q 43.21875 16.703125 43.21875 25.484375 
L 43.21875 27.484375 
z
M 52.203125 31.203125 
L 52.203125 0 
L 43.21875 0 
L 43.21875 8.296875 
Q 40.140625 3.328125 35.546875 0.953125 
Q 30.953125 -1.421875 24.3125 -1.421875 
Q 15.921875 -1.421875 10.953125 3.296875 
Q 6 8.015625 6 15.921875 
Q 6 25.140625 12.171875 29.828125 
Q 18.359375 34.515625 30.609375 34.515625 
L 43.21875 34.515625 
L 43.21875 35.40625 
Q 43.21875 41.609375 39.140625 45 
Q 35.0625 48.390625 27.6875 48.390625 
Q 23 48.390625 18.546875 47.265625 
Q 14.109375 46.140625 10.015625 43.890625 
L 10.015625 52.203125 
Q 14.9375 54.109375 19.578125 55.046875 
Q 24.21875 56 28.609375 56 
Q 40.484375 56 46.34375 49.84375 
Q 52.203125 43.703125 52.203125 31.203125 
z
" id="DejaVuSans-97"/>
      <path d="M 9.421875 54.6875 
L 18.40625 54.6875 
L 18.40625 0 
L 9.421875 0 
z
M 9.421875 75.984375 
L 18.40625 75.984375 
L 18.40625 64.59375 
L 9.421875 64.59375 
z
" id="DejaVuSans-105"/>
      <path d="M 54.890625 33.015625 
L 54.890625 0 
L 45.90625 0 
L 45.90625 32.71875 
Q 45.90625 40.484375 42.875 44.328125 
Q 39.84375 48.1875 33.796875 48.1875 
Q 26.515625 48.1875 22.3125 43.546875 
Q 18.109375 38.921875 18.109375 30.90625 
L 18.109375 0 
L 9.078125 0 
L 9.078125 54.6875 
L 18.109375 54.6875 
L 18.109375 46.1875 
Q 21.34375 51.125 25.703125 53.5625 
Q 30.078125 56 35.796875 56 
Q 45.21875 56 50.046875 50.171875 
Q 54.890625 44.34375 54.890625 33.015625 
z
" id="DejaVuSans-110"/>
     </defs>
     <g transform="translate(598.846875 59.798437)scale(0.1 -0.1)">
      <use xlink:href="#DejaVuSans-116"/>
      <use x="39.208984" xlink:href="#DejaVuSans-114"/>
      <use x="80.322266" xlink:href="#DejaVuSans-97"/>
      <use x="141.601562" xlink:href="#DejaVuSans-105"/>
      <use x="169.384766" xlink:href="#DejaVuSans-110"/>
     </g>
    </g>
    <g id="line2d_37">
     <path d="M 570.846875 70.976562 
L 590.846875 70.976562 
" style="fill:none;stroke:#ff7f0e;stroke-linecap:square;stroke-width:0.5;"/>
    </g>
    <g id="line2d_38"/>
    <g id="text_21">
     <!-- validate -->
     <defs>
      <path d="M 2.984375 54.6875 
L 12.5 54.6875 
L 29.59375 8.796875 
L 46.6875 54.6875 
L 56.203125 54.6875 
L 35.6875 0 
L 23.484375 0 
z
" id="DejaVuSans-118"/>
      <path d="M 45.40625 46.390625 
L 45.40625 75.984375 
L 54.390625 75.984375 
L 54.390625 0 
L 45.40625 0 
L 45.40625 8.203125 
Q 42.578125 3.328125 38.25 0.953125 
Q 33.9375 -1.421875 27.875 -1.421875 
Q 17.96875 -1.421875 11.734375 6.484375 
Q 5.515625 14.40625 5.515625 27.296875 
Q 5.515625 40.1875 11.734375 48.09375 
Q 17.96875 56 27.875 56 
Q 33.9375 56 38.25 53.625 
Q 42.578125 51.265625 45.40625 46.390625 
z
M 14.796875 27.296875 
Q 14.796875 17.390625 18.875 11.75 
Q 22.953125 6.109375 30.078125 6.109375 
Q 37.203125 6.109375 41.296875 11.75 
Q 45.40625 17.390625 45.40625 27.296875 
Q 45.40625 37.203125 41.296875 42.84375 
Q 37.203125 48.484375 30.078125 48.484375 
Q 22.953125 48.484375 18.875 42.84375 
Q 14.796875 37.203125 14.796875 27.296875 
z
" id="DejaVuSans-100"/>
     </defs>
     <g transform="translate(598.846875 74.476562)scale(0.1 -0.1)">
      <use xlink:href="#DejaVuSans-118"/>
      <use x="59.179688" xlink:href="#DejaVuSans-97"/>
      <use x="120.458984" xlink:href="#DejaVuSans-108"/>
      <use x="148.242188" xlink:href="#DejaVuSans-105"/>
      <use x="176.025391" xlink:href="#DejaVuSans-100"/>
      <use x="239.501953" xlink:href="#DejaVuSans-97"/>
      <use x="300.78125" xlink:href="#DejaVuSans-116"/>
      <use x="339.990234" xlink:href="#DejaVuSans-101"/>
     </g>
    </g>
   </g>
  </g>
 </g>
 <defs>
  <clipPath id="p40a3cf6dd3">
   <rect height="271.8" width="558" x="90" y="43.2"/>
  </clipPath>
 </defs>
</svg>
