<?xml version="1.0" encoding="utf-8" standalone="no"?>
<!DOCTYPE svg PUBLIC "-//W3C//DTD SVG 1.1//EN"
  "http://www.w3.org/Graphics/SVG/1.1/DTD/svg11.dtd">
<!-- Created with matplotlib (https://matplotlib.org/) -->
<svg height="360pt" version="1.1" viewBox="0 0 720 360" width="720pt" xmlns="http://www.w3.org/2000/svg" xmlns:xlink="http://www.w3.org/1999/xlink">
 <defs>
  <style type="text/css">
*{stroke-linecap:butt;stroke-linejoin:round;}
  </style>
 </defs>
 <g id="figure_1">
  <g id="patch_1">
   <path d="M 0 360 
L 720 360 
L 720 0 
L 0 0 
z
" style="fill:#ffffff;"/>
  </g>
  <g id="axes_1">
   <g id="patch_2">
    <path d="M 90 315 
L 648 315 
L 648 43.2 
L 90 43.2 
z
" style="fill:#ffffff;"/>
   </g>
   <g id="matplotlib.axis_1">
    <g id="xtick_1">
     <g id="line2d_1">
      <path clip-path="url(#p3533704bc5)" d="M 115.363636 315 
L 115.363636 43.2 
" style="fill:none;stroke:#b0b0b0;stroke-linecap:square;stroke-width:0.8;"/>
     </g>
     <g id="line2d_2">
      <defs>
       <path d="M 0 0 
L 0 3.5 
" id="md897e5cf0f" style="stroke:#000000;stroke-width:0.8;"/>
      </defs>
      <g>
       <use style="stroke:#000000;stroke-width:0.8;" x="115.363636" xlink:href="#md897e5cf0f" y="315"/>
      </g>
     </g>
     <g id="text_1">
      <!-- 0 -->
      <defs>
       <path d="M 31.78125 66.40625 
Q 24.171875 66.40625 20.328125 58.90625 
Q 16.5 51.421875 16.5 36.375 
Q 16.5 21.390625 20.328125 13.890625 
Q 24.171875 6.390625 31.78125 6.390625 
Q 39.453125 6.390625 43.28125 13.890625 
Q 47.125 21.390625 47.125 36.375 
Q 47.125 51.421875 43.28125 58.90625 
Q 39.453125 66.40625 31.78125 66.40625 
z
M 31.78125 74.21875 
Q 44.046875 74.21875 50.515625 64.515625 
Q 56.984375 54.828125 56.984375 36.375 
Q 56.984375 17.96875 50.515625 8.265625 
Q 44.046875 -1.421875 31.78125 -1.421875 
Q 19.53125 -1.421875 13.0625 8.265625 
Q 6.59375 17.96875 6.59375 36.375 
Q 6.59375 54.828125 13.0625 64.515625 
Q 19.53125 74.21875 31.78125 74.21875 
z
" id="DejaVuSans-48"/>
      </defs>
      <g transform="translate(112.182386 329.598437)scale(0.1 -0.1)">
       <use xlink:href="#DejaVuSans-48"/>
      </g>
     </g>
    </g>
    <g id="xtick_2">
     <g id="line2d_3">
      <path clip-path="url(#p3533704bc5)" d="M 204.358852 315 
L 204.358852 43.2 
" style="fill:none;stroke:#b0b0b0;stroke-linecap:square;stroke-width:0.8;"/>
     </g>
     <g id="line2d_4">
      <g>
       <use style="stroke:#000000;stroke-width:0.8;" x="204.358852" xlink:href="#md897e5cf0f" y="315"/>
      </g>
     </g>
     <g id="text_2">
      <!-- 200 -->
      <defs>
       <path d="M 19.1875 8.296875 
L 53.609375 8.296875 
L 53.609375 0 
L 7.328125 0 
L 7.328125 8.296875 
Q 12.9375 14.109375 22.625 23.890625 
Q 32.328125 33.6875 34.8125 36.53125 
Q 39.546875 41.84375 41.421875 45.53125 
Q 43.3125 49.21875 43.3125 52.78125 
Q 43.3125 58.59375 39.234375 62.25 
Q 35.15625 65.921875 28.609375 65.921875 
Q 23.96875 65.921875 18.8125 64.3125 
Q 13.671875 62.703125 7.8125 59.421875 
L 7.8125 69.390625 
Q 13.765625 71.78125 18.9375 73 
Q 24.125 74.21875 28.421875 74.21875 
Q 39.75 74.21875 46.484375 68.546875 
Q 53.21875 62.890625 53.21875 53.421875 
Q 53.21875 48.921875 51.53125 44.890625 
Q 49.859375 40.875 45.40625 35.40625 
Q 44.1875 33.984375 37.640625 27.21875 
Q 31.109375 20.453125 19.1875 8.296875 
z
" id="DejaVuSans-50"/>
      </defs>
      <g transform="translate(194.815102 329.598437)scale(0.1 -0.1)">
       <use xlink:href="#DejaVuSans-50"/>
       <use x="63.623047" xlink:href="#DejaVuSans-48"/>
       <use x="127.246094" xlink:href="#DejaVuSans-48"/>
      </g>
     </g>
    </g>
    <g id="xtick_3">
     <g id="line2d_5">
      <path clip-path="url(#p3533704bc5)" d="M 293.354067 315 
L 293.354067 43.2 
" style="fill:none;stroke:#b0b0b0;stroke-linecap:square;stroke-width:0.8;"/>
     </g>
     <g id="line2d_6">
      <g>
       <use style="stroke:#000000;stroke-width:0.8;" x="293.354067" xlink:href="#md897e5cf0f" y="315"/>
      </g>
     </g>
     <g id="text_3">
      <!-- 400 -->
      <defs>
       <path d="M 37.796875 64.3125 
L 12.890625 25.390625 
L 37.796875 25.390625 
z
M 35.203125 72.90625 
L 47.609375 72.90625 
L 47.609375 25.390625 
L 58.015625 25.390625 
L 58.015625 17.1875 
L 47.609375 17.1875 
L 47.609375 0 
L 37.796875 0 
L 37.796875 17.1875 
L 4.890625 17.1875 
L 4.890625 26.703125 
z
" id="DejaVuSans-52"/>
      </defs>
      <g transform="translate(283.810317 329.598437)scale(0.1 -0.1)">
       <use xlink:href="#DejaVuSans-52"/>
       <use x="63.623047" xlink:href="#DejaVuSans-48"/>
       <use x="127.246094" xlink:href="#DejaVuSans-48"/>
      </g>
     </g>
    </g>
    <g id="xtick_4">
     <g id="line2d_7">
      <path clip-path="url(#p3533704bc5)" d="M 382.349282 315 
L 382.349282 43.2 
" style="fill:none;stroke:#b0b0b0;stroke-linecap:square;stroke-width:0.8;"/>
     </g>
     <g id="line2d_8">
      <g>
       <use style="stroke:#000000;stroke-width:0.8;" x="382.349282" xlink:href="#md897e5cf0f" y="315"/>
      </g>
     </g>
     <g id="text_4">
      <!-- 600 -->
      <defs>
       <path d="M 33.015625 40.375 
Q 26.375 40.375 22.484375 35.828125 
Q 18.609375 31.296875 18.609375 23.390625 
Q 18.609375 15.53125 22.484375 10.953125 
Q 26.375 6.390625 33.015625 6.390625 
Q 39.65625 6.390625 43.53125 10.953125 
Q 47.40625 15.53125 47.40625 23.390625 
Q 47.40625 31.296875 43.53125 35.828125 
Q 39.65625 40.375 33.015625 40.375 
z
M 52.59375 71.296875 
L 52.59375 62.3125 
Q 48.875 64.0625 45.09375 64.984375 
Q 41.3125 65.921875 37.59375 65.921875 
Q 27.828125 65.921875 22.671875 59.328125 
Q 17.53125 52.734375 16.796875 39.40625 
Q 19.671875 43.65625 24.015625 45.921875 
Q 28.375 48.1875 33.59375 48.1875 
Q 44.578125 48.1875 50.953125 41.515625 
Q 57.328125 34.859375 57.328125 23.390625 
Q 57.328125 12.15625 50.6875 5.359375 
Q 44.046875 -1.421875 33.015625 -1.421875 
Q 20.359375 -1.421875 13.671875 8.265625 
Q 6.984375 17.96875 6.984375 36.375 
Q 6.984375 53.65625 15.1875 63.9375 
Q 23.390625 74.21875 37.203125 74.21875 
Q 40.921875 74.21875 44.703125 73.484375 
Q 48.484375 72.75 52.59375 71.296875 
z
" id="DejaVuSans-54"/>
      </defs>
      <g transform="translate(372.805532 329.598437)scale(0.1 -0.1)">
       <use xlink:href="#DejaVuSans-54"/>
       <use x="63.623047" xlink:href="#DejaVuSans-48"/>
       <use x="127.246094" xlink:href="#DejaVuSans-48"/>
      </g>
     </g>
    </g>
    <g id="xtick_5">
     <g id="line2d_9">
      <path clip-path="url(#p3533704bc5)" d="M 471.344498 315 
L 471.344498 43.2 
" style="fill:none;stroke:#b0b0b0;stroke-linecap:square;stroke-width:0.8;"/>
     </g>
     <g id="line2d_10">
      <g>
       <use style="stroke:#000000;stroke-width:0.8;" x="471.344498" xlink:href="#md897e5cf0f" y="315"/>
      </g>
     </g>
     <g id="text_5">
      <!-- 800 -->
      <defs>
       <path d="M 31.78125 34.625 
Q 24.75 34.625 20.71875 30.859375 
Q 16.703125 27.09375 16.703125 20.515625 
Q 16.703125 13.921875 20.71875 10.15625 
Q 24.75 6.390625 31.78125 6.390625 
Q 38.8125 6.390625 42.859375 10.171875 
Q 46.921875 13.96875 46.921875 20.515625 
Q 46.921875 27.09375 42.890625 30.859375 
Q 38.875 34.625 31.78125 34.625 
z
M 21.921875 38.8125 
Q 15.578125 40.375 12.03125 44.71875 
Q 8.5 49.078125 8.5 55.328125 
Q 8.5 64.0625 14.71875 69.140625 
Q 20.953125 74.21875 31.78125 74.21875 
Q 42.671875 74.21875 48.875 69.140625 
Q 55.078125 64.0625 55.078125 55.328125 
Q 55.078125 49.078125 51.53125 44.71875 
Q 48 40.375 41.703125 38.8125 
Q 48.828125 37.15625 52.796875 32.3125 
Q 56.78125 27.484375 56.78125 20.515625 
Q 56.78125 9.90625 50.3125 4.234375 
Q 43.84375 -1.421875 31.78125 -1.421875 
Q 19.734375 -1.421875 13.25 4.234375 
Q 6.78125 9.90625 6.78125 20.515625 
Q 6.78125 27.484375 10.78125 32.3125 
Q 14.796875 37.15625 21.921875 38.8125 
z
M 18.3125 54.390625 
Q 18.3125 48.734375 21.84375 45.5625 
Q 25.390625 42.390625 31.78125 42.390625 
Q 38.140625 42.390625 41.71875 45.5625 
Q 45.3125 48.734375 45.3125 54.390625 
Q 45.3125 60.0625 41.71875 63.234375 
Q 38.140625 66.40625 31.78125 66.40625 
Q 25.390625 66.40625 21.84375 63.234375 
Q 18.3125 60.0625 18.3125 54.390625 
z
" id="DejaVuSans-56"/>
      </defs>
      <g transform="translate(461.800748 329.598437)scale(0.1 -0.1)">
       <use xlink:href="#DejaVuSans-56"/>
       <use x="63.623047" xlink:href="#DejaVuSans-48"/>
       <use x="127.246094" xlink:href="#DejaVuSans-48"/>
      </g>
     </g>
    </g>
    <g id="xtick_6">
     <g id="line2d_11">
      <path clip-path="url(#p3533704bc5)" d="M 560.339713 315 
L 560.339713 43.2 
" style="fill:none;stroke:#b0b0b0;stroke-linecap:square;stroke-width:0.8;"/>
     </g>
     <g id="line2d_12">
      <g>
       <use style="stroke:#000000;stroke-width:0.8;" x="560.339713" xlink:href="#md897e5cf0f" y="315"/>
      </g>
     </g>
     <g id="text_6">
      <!-- 1000 -->
      <defs>
       <path d="M 12.40625 8.296875 
L 28.515625 8.296875 
L 28.515625 63.921875 
L 10.984375 60.40625 
L 10.984375 69.390625 
L 28.421875 72.90625 
L 38.28125 72.90625 
L 38.28125 8.296875 
L 54.390625 8.296875 
L 54.390625 0 
L 12.40625 0 
z
" id="DejaVuSans-49"/>
      </defs>
      <g transform="translate(547.614713 329.598437)scale(0.1 -0.1)">
       <use xlink:href="#DejaVuSans-49"/>
       <use x="63.623047" xlink:href="#DejaVuSans-48"/>
       <use x="127.246094" xlink:href="#DejaVuSans-48"/>
       <use x="190.869141" xlink:href="#DejaVuSans-48"/>
      </g>
     </g>
    </g>
    <g id="text_7">
     <!-- epoch -->
     <defs>
      <path d="M 56.203125 29.59375 
L 56.203125 25.203125 
L 14.890625 25.203125 
Q 15.484375 15.921875 20.484375 11.0625 
Q 25.484375 6.203125 34.421875 6.203125 
Q 39.59375 6.203125 44.453125 7.46875 
Q 49.3125 8.734375 54.109375 11.28125 
L 54.109375 2.78125 
Q 49.265625 0.734375 44.1875 -0.34375 
Q 39.109375 -1.421875 33.890625 -1.421875 
Q 20.796875 -1.421875 13.15625 6.1875 
Q 5.515625 13.8125 5.515625 26.8125 
Q 5.515625 40.234375 12.765625 48.109375 
Q 20.015625 56 32.328125 56 
Q 43.359375 56 49.78125 48.890625 
Q 56.203125 41.796875 56.203125 29.59375 
z
M 47.21875 32.234375 
Q 47.125 39.59375 43.09375 43.984375 
Q 39.0625 48.390625 32.421875 48.390625 
Q 24.90625 48.390625 20.390625 44.140625 
Q 15.875 39.890625 15.1875 32.171875 
z
" id="DejaVuSans-101"/>
      <path d="M 18.109375 8.203125 
L 18.109375 -20.796875 
L 9.078125 -20.796875 
L 9.078125 54.6875 
L 18.109375 54.6875 
L 18.109375 46.390625 
Q 20.953125 51.265625 25.265625 53.625 
Q 29.59375 56 35.59375 56 
Q 45.5625 56 51.78125 48.09375 
Q 58.015625 40.1875 58.015625 27.296875 
Q 58.015625 14.40625 51.78125 6.484375 
Q 45.5625 -1.421875 35.59375 -1.421875 
Q 29.59375 -1.421875 25.265625 0.953125 
Q 20.953125 3.328125 18.109375 8.203125 
z
M 48.6875 27.296875 
Q 48.6875 37.203125 44.609375 42.84375 
Q 40.53125 48.484375 33.40625 48.484375 
Q 26.265625 48.484375 22.1875 42.84375 
Q 18.109375 37.203125 18.109375 27.296875 
Q 18.109375 17.390625 22.1875 11.75 
Q 26.265625 6.109375 33.40625 6.109375 
Q 40.53125 6.109375 44.609375 11.75 
Q 48.6875 17.390625 48.6875 27.296875 
z
" id="DejaVuSans-112"/>
      <path d="M 30.609375 48.390625 
Q 23.390625 48.390625 19.1875 42.75 
Q 14.984375 37.109375 14.984375 27.296875 
Q 14.984375 17.484375 19.15625 11.84375 
Q 23.34375 6.203125 30.609375 6.203125 
Q 37.796875 6.203125 41.984375 11.859375 
Q 46.1875 17.53125 46.1875 27.296875 
Q 46.1875 37.015625 41.984375 42.703125 
Q 37.796875 48.390625 30.609375 48.390625 
z
M 30.609375 56 
Q 42.328125 56 49.015625 48.375 
Q 55.71875 40.765625 55.71875 27.296875 
Q 55.71875 13.875 49.015625 6.21875 
Q 42.328125 -1.421875 30.609375 -1.421875 
Q 18.84375 -1.421875 12.171875 6.21875 
Q 5.515625 13.875 5.515625 27.296875 
Q 5.515625 40.765625 12.171875 48.375 
Q 18.84375 56 30.609375 56 
z
" id="DejaVuSans-111"/>
      <path d="M 48.78125 52.59375 
L 48.78125 44.1875 
Q 44.96875 46.296875 41.140625 47.34375 
Q 37.3125 48.390625 33.40625 48.390625 
Q 24.65625 48.390625 19.8125 42.84375 
Q 14.984375 37.3125 14.984375 27.296875 
Q 14.984375 17.28125 19.8125 11.734375 
Q 24.65625 6.203125 33.40625 6.203125 
Q 37.3125 6.203125 41.140625 7.25 
Q 44.96875 8.296875 48.78125 10.40625 
L 48.78125 2.09375 
Q 45.015625 0.34375 40.984375 -0.53125 
Q 36.96875 -1.421875 32.421875 -1.421875 
Q 20.0625 -1.421875 12.78125 6.34375 
Q 5.515625 14.109375 5.515625 27.296875 
Q 5.515625 40.671875 12.859375 48.328125 
Q 20.21875 56 33.015625 56 
Q 37.15625 56 41.109375 55.140625 
Q 45.0625 54.296875 48.78125 52.59375 
z
" id="DejaVuSans-99"/>
      <path d="M 54.890625 33.015625 
L 54.890625 0 
L 45.90625 0 
L 45.90625 32.71875 
Q 45.90625 40.484375 42.875 44.328125 
Q 39.84375 48.1875 33.796875 48.1875 
Q 26.515625 48.1875 22.3125 43.546875 
Q 18.109375 38.921875 18.109375 30.90625 
L 18.109375 0 
L 9.078125 0 
L 9.078125 75.984375 
L 18.109375 75.984375 
L 18.109375 46.1875 
Q 21.34375 51.125 25.703125 53.5625 
Q 30.078125 56 35.796875 56 
Q 45.21875 56 50.046875 50.171875 
Q 54.890625 44.34375 54.890625 33.015625 
z
" id="DejaVuSans-104"/>
     </defs>
     <g transform="translate(353.771875 343.276563)scale(0.1 -0.1)">
      <use xlink:href="#DejaVuSans-101"/>
      <use x="61.523438" xlink:href="#DejaVuSans-112"/>
      <use x="125" xlink:href="#DejaVuSans-111"/>
      <use x="186.181641" xlink:href="#DejaVuSans-99"/>
      <use x="241.162109" xlink:href="#DejaVuSans-104"/>
     </g>
    </g>
   </g>
   <g id="matplotlib.axis_2">
    <g id="ytick_1">
     <g id="line2d_13">
      <path clip-path="url(#p3533704bc5)" d="M 90 286.459709 
L 648 286.459709 
" style="fill:none;stroke:#b0b0b0;stroke-linecap:square;stroke-width:0.8;"/>
     </g>
     <g id="line2d_14">
      <defs>
       <path d="M 0 0 
L -3.5 0 
" id="m9d9cf4ce05" style="stroke:#000000;stroke-width:0.8;"/>
      </defs>
      <g>
       <use style="stroke:#000000;stroke-width:0.8;" x="90" xlink:href="#m9d9cf4ce05" y="286.459709"/>
      </g>
     </g>
     <g id="text_8">
      <!-- 0.3 -->
      <defs>
       <path d="M 10.6875 12.40625 
L 21 12.40625 
L 21 0 
L 10.6875 0 
z
" id="DejaVuSans-46"/>
       <path d="M 40.578125 39.3125 
Q 47.65625 37.796875 51.625 33 
Q 55.609375 28.21875 55.609375 21.1875 
Q 55.609375 10.40625 48.1875 4.484375 
Q 40.765625 -1.421875 27.09375 -1.421875 
Q 22.515625 -1.421875 17.65625 -0.515625 
Q 12.796875 0.390625 7.625 2.203125 
L 7.625 11.71875 
Q 11.71875 9.328125 16.59375 8.109375 
Q 21.484375 6.890625 26.8125 6.890625 
Q 36.078125 6.890625 40.9375 10.546875 
Q 45.796875 14.203125 45.796875 21.1875 
Q 45.796875 27.640625 41.28125 31.265625 
Q 36.765625 34.90625 28.71875 34.90625 
L 20.21875 34.90625 
L 20.21875 43.015625 
L 29.109375 43.015625 
Q 36.375 43.015625 40.234375 45.921875 
Q 44.09375 48.828125 44.09375 54.296875 
Q 44.09375 59.90625 40.109375 62.90625 
Q 36.140625 65.921875 28.71875 65.921875 
Q 24.65625 65.921875 20.015625 65.03125 
Q 15.375 64.15625 9.8125 62.3125 
L 9.8125 71.09375 
Q 15.4375 72.65625 20.34375 73.4375 
Q 25.25 74.21875 29.59375 74.21875 
Q 40.828125 74.21875 47.359375 69.109375 
Q 53.90625 64.015625 53.90625 55.328125 
Q 53.90625 49.265625 50.4375 45.09375 
Q 46.96875 40.921875 40.578125 39.3125 
z
" id="DejaVuSans-51"/>
      </defs>
      <g transform="translate(67.096875 290.258927)scale(0.1 -0.1)">
       <use xlink:href="#DejaVuSans-48"/>
       <use x="63.623047" xlink:href="#DejaVuSans-46"/>
       <use x="95.410156" xlink:href="#DejaVuSans-51"/>
      </g>
     </g>
    </g>
    <g id="ytick_2">
     <g id="line2d_15">
      <path clip-path="url(#p3533704bc5)" d="M 90 252.021951 
L 648 252.021951 
" style="fill:none;stroke:#b0b0b0;stroke-linecap:square;stroke-width:0.8;"/>
     </g>
     <g id="line2d_16">
      <g>
       <use style="stroke:#000000;stroke-width:0.8;" x="90" xlink:href="#m9d9cf4ce05" y="252.021951"/>
      </g>
     </g>
     <g id="text_9">
      <!-- 0.4 -->
      <g transform="translate(67.096875 255.82117)scale(0.1 -0.1)">
       <use xlink:href="#DejaVuSans-48"/>
       <use x="63.623047" xlink:href="#DejaVuSans-46"/>
       <use x="95.410156" xlink:href="#DejaVuSans-52"/>
      </g>
     </g>
    </g>
    <g id="ytick_3">
     <g id="line2d_17">
      <path clip-path="url(#p3533704bc5)" d="M 90 217.584194 
L 648 217.584194 
" style="fill:none;stroke:#b0b0b0;stroke-linecap:square;stroke-width:0.8;"/>
     </g>
     <g id="line2d_18">
      <g>
       <use style="stroke:#000000;stroke-width:0.8;" x="90" xlink:href="#m9d9cf4ce05" y="217.584194"/>
      </g>
     </g>
     <g id="text_10">
      <!-- 0.5 -->
      <defs>
       <path d="M 10.796875 72.90625 
L 49.515625 72.90625 
L 49.515625 64.59375 
L 19.828125 64.59375 
L 19.828125 46.734375 
Q 21.96875 47.46875 24.109375 47.828125 
Q 26.265625 48.1875 28.421875 48.1875 
Q 40.625 48.1875 47.75 41.5 
Q 54.890625 34.8125 54.890625 23.390625 
Q 54.890625 11.625 47.5625 5.09375 
Q 40.234375 -1.421875 26.90625 -1.421875 
Q 22.3125 -1.421875 17.546875 -0.640625 
Q 12.796875 0.140625 7.71875 1.703125 
L 7.71875 11.625 
Q 12.109375 9.234375 16.796875 8.0625 
Q 21.484375 6.890625 26.703125 6.890625 
Q 35.15625 6.890625 40.078125 11.328125 
Q 45.015625 15.765625 45.015625 23.390625 
Q 45.015625 31 40.078125 35.4375 
Q 35.15625 39.890625 26.703125 39.890625 
Q 22.75 39.890625 18.8125 39.015625 
Q 14.890625 38.140625 10.796875 36.28125 
z
" id="DejaVuSans-53"/>
      </defs>
      <g transform="translate(67.096875 221.383413)scale(0.1 -0.1)">
       <use xlink:href="#DejaVuSans-48"/>
       <use x="63.623047" xlink:href="#DejaVuSans-46"/>
       <use x="95.410156" xlink:href="#DejaVuSans-53"/>
      </g>
     </g>
    </g>
    <g id="ytick_4">
     <g id="line2d_19">
      <path clip-path="url(#p3533704bc5)" d="M 90 183.146436 
L 648 183.146436 
" style="fill:none;stroke:#b0b0b0;stroke-linecap:square;stroke-width:0.8;"/>
     </g>
     <g id="line2d_20">
      <g>
       <use style="stroke:#000000;stroke-width:0.8;" x="90" xlink:href="#m9d9cf4ce05" y="183.146436"/>
      </g>
     </g>
     <g id="text_11">
      <!-- 0.6 -->
      <g transform="translate(67.096875 186.945655)scale(0.1 -0.1)">
       <use xlink:href="#DejaVuSans-48"/>
       <use x="63.623047" xlink:href="#DejaVuSans-46"/>
       <use x="95.410156" xlink:href="#DejaVuSans-54"/>
      </g>
     </g>
    </g>
    <g id="ytick_5">
     <g id="line2d_21">
      <path clip-path="url(#p3533704bc5)" d="M 90 148.708679 
L 648 148.708679 
" style="fill:none;stroke:#b0b0b0;stroke-linecap:square;stroke-width:0.8;"/>
     </g>
     <g id="line2d_22">
      <g>
       <use style="stroke:#000000;stroke-width:0.8;" x="90" xlink:href="#m9d9cf4ce05" y="148.708679"/>
      </g>
     </g>
     <g id="text_12">
      <!-- 0.7 -->
      <defs>
       <path d="M 8.203125 72.90625 
L 55.078125 72.90625 
L 55.078125 68.703125 
L 28.609375 0 
L 18.3125 0 
L 43.21875 64.59375 
L 8.203125 64.59375 
z
" id="DejaVuSans-55"/>
      </defs>
      <g transform="translate(67.096875 152.507898)scale(0.1 -0.1)">
       <use xlink:href="#DejaVuSans-48"/>
       <use x="63.623047" xlink:href="#DejaVuSans-46"/>
       <use x="95.410156" xlink:href="#DejaVuSans-55"/>
      </g>
     </g>
    </g>
    <g id="ytick_6">
     <g id="line2d_23">
      <path clip-path="url(#p3533704bc5)" d="M 90 114.270922 
L 648 114.270922 
" style="fill:none;stroke:#b0b0b0;stroke-linecap:square;stroke-width:0.8;"/>
     </g>
     <g id="line2d_24">
      <g>
       <use style="stroke:#000000;stroke-width:0.8;" x="90" xlink:href="#m9d9cf4ce05" y="114.270922"/>
      </g>
     </g>
     <g id="text_13">
      <!-- 0.8 -->
      <g transform="translate(67.096875 118.070141)scale(0.1 -0.1)">
       <use xlink:href="#DejaVuSans-48"/>
       <use x="63.623047" xlink:href="#DejaVuSans-46"/>
       <use x="95.410156" xlink:href="#DejaVuSans-56"/>
      </g>
     </g>
    </g>
    <g id="ytick_7">
     <g id="line2d_25">
      <path clip-path="url(#p3533704bc5)" d="M 90 79.833164 
L 648 79.833164 
" style="fill:none;stroke:#b0b0b0;stroke-linecap:square;stroke-width:0.8;"/>
     </g>
     <g id="line2d_26">
      <g>
       <use style="stroke:#000000;stroke-width:0.8;" x="90" xlink:href="#m9d9cf4ce05" y="79.833164"/>
      </g>
     </g>
     <g id="text_14">
      <!-- 0.9 -->
      <defs>
       <path d="M 10.984375 1.515625 
L 10.984375 10.5 
Q 14.703125 8.734375 18.5 7.8125 
Q 22.3125 6.890625 25.984375 6.890625 
Q 35.75 6.890625 40.890625 13.453125 
Q 46.046875 20.015625 46.78125 33.40625 
Q 43.953125 29.203125 39.59375 26.953125 
Q 35.25 24.703125 29.984375 24.703125 
Q 19.046875 24.703125 12.671875 31.3125 
Q 6.296875 37.9375 6.296875 49.421875 
Q 6.296875 60.640625 12.9375 67.421875 
Q 19.578125 74.21875 30.609375 74.21875 
Q 43.265625 74.21875 49.921875 64.515625 
Q 56.59375 54.828125 56.59375 36.375 
Q 56.59375 19.140625 48.40625 8.859375 
Q 40.234375 -1.421875 26.421875 -1.421875 
Q 22.703125 -1.421875 18.890625 -0.6875 
Q 15.09375 0.046875 10.984375 1.515625 
z
M 30.609375 32.421875 
Q 37.25 32.421875 41.125 36.953125 
Q 45.015625 41.5 45.015625 49.421875 
Q 45.015625 57.28125 41.125 61.84375 
Q 37.25 66.40625 30.609375 66.40625 
Q 23.96875 66.40625 20.09375 61.84375 
Q 16.21875 57.28125 16.21875 49.421875 
Q 16.21875 41.5 20.09375 36.953125 
Q 23.96875 32.421875 30.609375 32.421875 
z
" id="DejaVuSans-57"/>
      </defs>
      <g transform="translate(67.096875 83.632383)scale(0.1 -0.1)">
       <use xlink:href="#DejaVuSans-48"/>
       <use x="63.623047" xlink:href="#DejaVuSans-46"/>
       <use x="95.410156" xlink:href="#DejaVuSans-57"/>
      </g>
     </g>
    </g>
    <g id="ytick_8">
     <g id="line2d_27">
      <path clip-path="url(#p3533704bc5)" d="M 90 45.395407 
L 648 45.395407 
" style="fill:none;stroke:#b0b0b0;stroke-linecap:square;stroke-width:0.8;"/>
     </g>
     <g id="line2d_28">
      <g>
       <use style="stroke:#000000;stroke-width:0.8;" x="90" xlink:href="#m9d9cf4ce05" y="45.395407"/>
      </g>
     </g>
     <g id="text_15">
      <!-- 1.0 -->
      <g transform="translate(67.096875 49.194626)scale(0.1 -0.1)">
       <use xlink:href="#DejaVuSans-49"/>
       <use x="63.623047" xlink:href="#DejaVuSans-46"/>
       <use x="95.410156" xlink:href="#DejaVuSans-48"/>
      </g>
     </g>
    </g>
    <g id="text_16">
     <!-- accuracy -->
     <defs>
      <path d="M 34.28125 27.484375 
Q 23.390625 27.484375 19.1875 25 
Q 14.984375 22.515625 14.984375 16.5 
Q 14.984375 11.71875 18.140625 8.90625 
Q 21.296875 6.109375 26.703125 6.109375 
Q 34.1875 6.109375 38.703125 11.40625 
Q 43.21875 16.703125 43.21875 25.484375 
L 43.21875 27.484375 
z
M 52.203125 31.203125 
L 52.203125 0 
L 43.21875 0 
L 43.21875 8.296875 
Q 40.140625 3.328125 35.546875 0.953125 
Q 30.953125 -1.421875 24.3125 -1.421875 
Q 15.921875 -1.421875 10.953125 3.296875 
Q 6 8.015625 6 15.921875 
Q 6 25.140625 12.171875 29.828125 
Q 18.359375 34.515625 30.609375 34.515625 
L 43.21875 34.515625 
L 43.21875 35.40625 
Q 43.21875 41.609375 39.140625 45 
Q 35.0625 48.390625 27.6875 48.390625 
Q 23 48.390625 18.546875 47.265625 
Q 14.109375 46.140625 10.015625 43.890625 
L 10.015625 52.203125 
Q 14.9375 54.109375 19.578125 55.046875 
Q 24.21875 56 28.609375 56 
Q 40.484375 56 46.34375 49.84375 
Q 52.203125 43.703125 52.203125 31.203125 
z
" id="DejaVuSans-97"/>
      <path d="M 8.5 21.578125 
L 8.5 54.6875 
L 17.484375 54.6875 
L 17.484375 21.921875 
Q 17.484375 14.15625 20.5 10.265625 
Q 23.53125 6.390625 29.59375 6.390625 
Q 36.859375 6.390625 41.078125 11.03125 
Q 45.3125 15.671875 45.3125 23.6875 
L 45.3125 54.6875 
L 54.296875 54.6875 
L 54.296875 0 
L 45.3125 0 
L 45.3125 8.40625 
Q 42.046875 3.421875 37.71875 1 
Q 33.40625 -1.421875 27.6875 -1.421875 
Q 18.265625 -1.421875 13.375 4.4375 
Q 8.5 10.296875 8.5 21.578125 
z
M 31.109375 56 
z
" id="DejaVuSans-117"/>
      <path d="M 41.109375 46.296875 
Q 39.59375 47.171875 37.8125 47.578125 
Q 36.03125 48 33.890625 48 
Q 26.265625 48 22.1875 43.046875 
Q 18.109375 38.09375 18.109375 28.8125 
L 18.109375 0 
L 9.078125 0 
L 9.078125 54.6875 
L 18.109375 54.6875 
L 18.109375 46.1875 
Q 20.953125 51.171875 25.484375 53.578125 
Q 30.03125 56 36.53125 56 
Q 37.453125 56 38.578125 55.875 
Q 39.703125 55.765625 41.0625 55.515625 
z
" id="DejaVuSans-114"/>
      <path d="M 32.171875 -5.078125 
Q 28.375 -14.84375 24.75 -17.8125 
Q 21.140625 -20.796875 15.09375 -20.796875 
L 7.90625 -20.796875 
L 7.90625 -13.28125 
L 13.1875 -13.28125 
Q 16.890625 -13.28125 18.9375 -11.515625 
Q 21 -9.765625 23.484375 -3.21875 
L 25.09375 0.875 
L 2.984375 54.6875 
L 12.5 54.6875 
L 29.59375 11.921875 
L 46.6875 54.6875 
L 56.203125 54.6875 
z
" id="DejaVuSans-121"/>
     </defs>
     <g transform="translate(61.017187 201.659375)rotate(-90)scale(0.1 -0.1)">
      <use xlink:href="#DejaVuSans-97"/>
      <use x="61.279297" xlink:href="#DejaVuSans-99"/>
      <use x="116.259766" xlink:href="#DejaVuSans-99"/>
      <use x="171.240234" xlink:href="#DejaVuSans-117"/>
      <use x="234.619141" xlink:href="#DejaVuSans-114"/>
      <use x="275.732422" xlink:href="#DejaVuSans-97"/>
      <use x="337.011719" xlink:href="#DejaVuSans-99"/>
      <use x="391.992188" xlink:href="#DejaVuSans-121"/>
     </g>
    </g>
   </g>
   <g id="line2d_29">
    <path clip-path="url(#p3533704bc5)" d="M 115.363636 301.698416 
L 115.808612 295.930092 
L 116.253589 297.479791 
L 116.698565 295.843997 
L 117.143541 290.333956 
L 117.588517 292.486316 
L 118.033493 292.314127 
L 118.478469 291.280995 
L 119.368421 292.744599 
L 119.813397 292.141939 
L 120.258373 288.525974 
L 120.703349 288.612068 
L 121.148325 284.651726 
L 121.593301 283.188122 
L 122.038278 287.492841 
L 122.483254 282.671555 
L 122.92823 283.704688 
L 123.373206 277.764175 
L 123.818182 275.956193 
L 124.263158 276.214476 
L 124.708134 277.247608 
L 125.15311 275.956193 
L 125.598086 268.207697 
L 126.043062 267.08847 
L 126.488038 266.313621 
L 126.933014 266.657998 
L 127.37799 259.684352 
L 127.822967 260.114824 
L 128.267943 258.909503 
L 128.712919 255.465727 
L 130.047847 241.087963 
L 130.492823 239.538264 
L 130.937799 235.405733 
L 131.382775 229.293031 
L 131.827751 229.379126 
L 132.272727 230.756636 
L 133.162679 222.835952 
L 133.607656 222.835952 
L 134.052632 218.10076 
L 134.497608 217.498099 
L 134.942584 215.862306 
L 135.832536 209.835698 
L 136.277512 208.716471 
L 136.722488 202.948147 
L 137.167464 203.722997 
L 137.61244 195.285746 
L 138.057416 194.166519 
L 138.502392 199.848749 
L 139.837321 185.729268 
L 140.282297 191.239309 
L 140.727273 181.166265 
L 141.172249 181.338454 
L 141.617225 178.497339 
L 142.062201 172.470732 
L 142.507177 175.828413 
L 142.952153 172.729015 
L 143.397129 173.503864 
L 143.842105 169.11305 
L 144.287081 166.35803 
L 144.732057 161.278461 
L 145.177033 158.351251 
L 145.62201 158.52344 
L 146.066986 156.112797 
L 146.511962 158.179062 
L 146.956938 155.510136 
L 147.401914 151.721983 
L 147.84689 149.569623 
L 148.736842 143.543016 
L 149.181818 143.973487 
L 149.626794 145.00662 
L 150.07177 145.350998 
L 150.516746 137.688597 
L 150.961722 136.311086 
L 151.406699 137.774691 
L 151.851675 135.277954 
L 152.296651 139.32439 
L 152.741627 134.41701 
L 153.186603 133.64216 
L 153.631579 131.4898 
L 154.076555 126.840703 
L 154.521531 132.26465 
L 154.966507 128.648685 
L 156.746411 122.449889 
L 157.191388 122.449889 
L 157.636364 120.90019 
L 158.08134 120.383624 
L 158.526316 121.072379 
L 158.971292 121.072379 
L 159.416268 116.939848 
L 159.861244 119.350491 
L 160.30622 116.853754 
L 160.751196 120.039246 
L 161.641148 114.615299 
L 162.086124 119.608774 
L 162.5311 115.304054 
L 162.976077 113.496072 
L 163.421053 112.376845 
L 163.866029 113.926544 
L 164.311005 107.986031 
L 164.755981 112.032468 
L 165.200957 110.052296 
L 165.645933 109.449636 
L 166.090909 110.31058 
L 166.980861 110.224485 
L 167.425837 110.91324 
L 167.870813 105.317105 
L 168.315789 107.038993 
L 168.760766 106.694615 
L 169.205742 105.317105 
L 169.650718 105.919766 
L 170.095694 105.317105 
L 170.54067 104.972727 
L 170.985646 105.144916 
L 171.430622 106.264143 
L 171.875598 103.250839 
L 172.320574 103.681311 
L 172.76555 105.919766 
L 173.210526 100.409724 
L 173.655502 102.648179 
L 174.100478 102.906462 
L 174.545455 101.442857 
L 174.990431 99.462686 
L 175.435407 101.959424 
L 175.880383 101.442857 
L 176.325359 98.257365 
L 176.770335 98.257365 
L 177.215311 99.807064 
L 177.660287 99.376592 
L 178.550239 97.999081 
L 178.995215 98.429553 
L 179.440191 95.932816 
L 179.885167 98.687837 
L 180.77512 95.071872 
L 181.220096 97.568609 
L 181.665072 97.568609 
L 182.110048 94.727494 
L 182.555024 94.383117 
L 183 96.277194 
L 183.444976 95.502344 
L 183.889952 91.283719 
L 184.334928 95.244061 
L 184.779904 95.244061 
L 185.22488 94.469211 
L 185.669856 96.535477 
L 186.114833 94.383117 
L 186.559809 94.297022 
L 187.004785 94.813589 
L 187.449761 92.230757 
L 187.894737 92.316851 
L 188.339713 95.588438 
L 188.784689 93.608267 
L 189.229665 92.316851 
L 189.674641 91.714191 
L 190.119617 93.349984 
L 190.564593 94.297022 
L 191.009569 93.436079 
L 191.454545 93.26389 
L 192.344498 88.270415 
L 192.789474 91.628096 
L 193.23445 92.833418 
L 193.679426 90.681058 
L 194.124402 91.800285 
L 194.569378 91.369813 
L 195.014354 88.184321 
L 195.45933 88.528698 
L 195.904306 89.561831 
L 196.349282 91.11153 
L 197.239234 86.978999 
L 197.684211 87.237282 
L 198.129187 90.078397 
L 198.574163 87.065093 
L 199.464115 90.250586 
L 199.909091 89.045264 
L 200.354067 88.270415 
L 200.799043 90.164492 
L 201.244019 88.786981 
L 201.688995 88.614793 
L 202.133971 88.270415 
L 202.578947 88.442604 
L 203.4689 84.396167 
L 203.913876 85.687583 
L 204.358852 85.601489 
L 204.803828 85.084922 
L 205.248804 85.171017 
L 205.69378 87.495565 
L 206.138756 85.859772 
L 206.583732 84.740545 
L 207.028708 86.376338 
L 207.473684 84.65445 
L 207.91866 84.826639 
L 208.363636 84.740545 
L 208.808612 81.89943 
L 209.253589 83.879601 
L 209.698565 84.568356 
L 210.143541 83.449129 
L 210.588517 82.846468 
L 211.033493 84.05179 
L 211.478469 84.05179 
L 211.923445 82.502091 
L 212.368421 86.634621 
L 212.813397 84.396167 
L 213.258373 83.965695 
L 214.148325 85.257111 
L 215.038278 82.846468 
L 215.483254 80.694108 
L 216.373206 85.084922 
L 216.818182 79.833164 
L 217.263158 85.343206 
L 217.708134 82.760374 
L 218.15311 82.588185 
L 218.598086 82.071619 
L 219.043062 76.561577 
L 219.488038 82.674279 
L 219.933014 82.846468 
L 220.37799 79.660976 
L 221.267943 83.449129 
L 222.157895 78.283465 
L 222.602871 81.641147 
L 223.047847 82.760374 
L 223.492823 82.415996 
L 223.937799 81.727241 
L 224.382775 82.588185 
L 224.827751 80.866297 
L 225.272727 80.349731 
L 225.717703 82.502091 
L 226.607656 79.574881 
L 227.052632 80.694108 
L 227.497608 82.674279 
L 227.942584 79.316598 
L 228.38756 78.800032 
L 228.832536 78.713937 
L 229.277512 81.985524 
L 229.722488 81.813335 
L 230.167464 81.985524 
L 230.61244 80.177542 
L 231.057416 80.349731 
L 231.502392 81.12458 
L 231.947368 80.177542 
L 232.392344 77.939088 
L 232.837321 79.230504 
L 233.282297 77.59471 
L 233.727273 79.144409 
L 234.172249 79.574881 
L 234.617225 79.402692 
L 235.062201 78.713937 
L 235.952153 77.939088 
L 236.397129 78.541748 
L 237.287081 77.422521 
L 237.732057 78.36956 
L 238.177033 80.435825 
L 238.62201 80.091448 
L 239.066986 77.680805 
L 239.511962 77.680805 
L 239.956938 77.939088 
L 240.401914 76.992049 
L 240.84689 75.184067 
L 241.291866 78.627843 
L 242.181818 76.819861 
L 242.626794 77.250333 
L 243.07177 76.905955 
L 243.516746 76.2172 
L 243.961722 76.561577 
L 244.406699 78.713937 
L 244.851675 76.045011 
L 245.296651 78.283465 
L 245.741627 77.680805 
L 246.186603 76.045011 
L 246.631579 76.561577 
L 247.076555 75.700634 
L 247.521531 75.786728 
L 247.966507 76.733766 
L 248.411483 76.389389 
L 248.856459 76.475483 
L 249.301435 78.97222 
L 249.746411 73.28999 
L 250.191388 76.905955 
L 250.636364 75.958917 
L 251.08134 74.06484 
L 251.971292 77.164238 
L 252.416268 76.992049 
L 252.861244 75.700634 
L 253.30622 75.184067 
L 253.751196 73.806557 
L 254.196172 76.131105 
L 254.641148 76.733766 
L 255.5311 76.647672 
L 255.976077 75.786728 
L 256.421053 74.495312 
L 256.866029 74.83969 
L 257.311005 74.495312 
L 257.755981 73.548274 
L 258.645933 76.992049 
L 259.090909 77.164238 
L 259.535885 71.91248 
L 259.980861 75.097973 
L 260.425837 73.031707 
L 260.870813 72.945613 
L 261.760766 76.389389 
L 262.205742 74.495312 
L 262.650718 75.872822 
L 263.095694 75.184067 
L 263.54067 73.031707 
L 263.985646 72.945613 
L 264.430622 73.462179 
L 264.875598 75.44235 
L 265.320574 76.389389 
L 265.76555 73.720462 
L 266.210526 72.859519 
L 266.655502 73.806557 
L 267.100478 76.045011 
L 267.545455 74.495312 
L 267.990431 76.992049 
L 268.435407 72.256858 
L 268.880383 73.117802 
L 269.325359 75.184067 
L 269.770335 73.720462 
L 270.215311 73.031707 
L 270.660287 76.045011 
L 271.105263 73.548274 
L 271.550239 75.011878 
L 271.995215 73.634368 
L 272.440191 73.720462 
L 272.885167 73.28999 
L 273.330144 73.28999 
L 273.77512 73.720462 
L 274.220096 71.740291 
L 274.665072 74.83969 
L 275.110048 75.528445 
L 275.555024 74.150934 
L 276 71.654197 
L 276.444976 73.720462 
L 276.889952 72.342952 
L 277.334928 72.945613 
L 277.779904 73.117802 
L 278.22488 73.462179 
L 278.669856 73.634368 
L 279.114833 72.342952 
L 279.559809 70.621064 
L 280.004785 72.515141 
L 280.449761 73.117802 
L 280.894737 70.707159 
L 281.339713 77.336427 
L 281.784689 70.104498 
L 282.229665 73.462179 
L 282.674641 73.376085 
L 283.119617 72.084669 
L 284.009569 71.654197 
L 284.454545 72.859519 
L 284.899522 71.740291 
L 285.344498 73.634368 
L 285.789474 70.879347 
L 286.23445 71.654197 
L 286.679426 69.329648 
L 287.124402 74.06484 
L 287.569378 71.740291 
L 288.014354 71.482008 
L 288.45933 70.621064 
L 288.904306 70.190592 
L 289.349282 71.826386 
L 289.794258 70.793253 
L 290.239234 69.15746 
L 290.684211 71.654197 
L 291.129187 70.879347 
L 291.574163 73.117802 
L 292.019139 71.568103 
L 292.464115 72.429047 
L 292.909091 70.018404 
L 293.354067 70.707159 
L 293.799043 70.018404 
L 294.244019 71.654197 
L 294.688995 70.879347 
L 295.133971 71.826386 
L 295.578947 71.740291 
L 296.023923 71.223725 
L 296.4689 70.53497 
L 296.913876 70.879347 
L 297.358852 69.329648 
L 297.803828 72.170763 
L 298.248804 68.38261 
L 298.69378 71.91248 
L 299.138756 67.952138 
L 299.583732 71.568103 
L 300.473684 71.137631 
L 300.91866 72.342952 
L 301.363636 72.084669 
L 301.808612 69.932309 
L 302.253589 70.707159 
L 303.143541 69.415743 
L 303.588517 73.203896 
L 304.033493 70.190592 
L 304.478469 71.137631 
L 304.923445 68.813082 
L 305.368421 67.521666 
L 305.813397 69.15746 
L 306.703349 71.051536 
L 307.148325 70.190592 
L 307.593301 69.932309 
L 308.038278 69.329648 
L 308.483254 70.448876 
L 308.92823 69.15746 
L 309.373206 70.190592 
L 309.818182 67.091194 
L 310.708134 71.482008 
L 311.15311 69.415743 
L 311.598086 69.674026 
L 312.043062 69.674026 
L 312.933014 68.899176 
L 313.37799 69.15746 
L 313.822967 68.38261 
L 314.267943 68.985271 
L 314.712919 68.985271 
L 315.157895 68.210421 
L 315.602871 69.76012 
L 316.047847 69.587932 
L 316.492823 69.15746 
L 316.937799 70.793253 
L 317.382775 70.190592 
L 318.272727 67.349477 
L 318.717703 69.243554 
L 319.162679 67.349477 
L 319.607656 68.813082 
L 320.052632 68.38261 
L 320.497608 69.501837 
L 320.942584 68.899176 
L 321.38756 67.177289 
L 321.832536 69.501837 
L 322.277512 68.38261 
L 322.722488 69.76012 
L 323.167464 68.468704 
L 323.61244 68.726988 
L 324.057416 68.813082 
L 324.502392 69.932309 
L 324.947368 66.23025 
L 325.392344 68.985271 
L 325.837321 68.468704 
L 326.282297 69.243554 
L 326.727273 67.607761 
L 327.172249 69.501837 
L 327.617225 67.0051 
L 328.062201 68.210421 
L 328.507177 67.866044 
L 328.952153 68.468704 
L 329.397129 67.0051 
L 330.287081 68.726988 
L 330.732057 68.210421 
L 331.177033 67.521666 
L 331.62201 65.111023 
L 332.066986 69.243554 
L 333.401914 67.779949 
L 333.84689 68.124327 
L 334.291866 70.362781 
L 334.736842 69.243554 
L 335.181818 65.971967 
L 335.626794 66.832911 
L 336.07177 66.144156 
L 336.961722 68.554799 
L 337.406699 68.468704 
L 337.851675 67.779949 
L 338.296651 66.488533 
L 338.741627 66.23025 
L 339.186603 68.210421 
L 339.631579 67.521666 
L 340.076555 69.243554 
L 340.521531 66.746817 
L 340.966507 67.521666 
L 341.856459 68.210421 
L 342.301435 66.919005 
L 342.746411 68.296516 
L 343.191388 66.832911 
L 343.636364 69.415743 
L 344.08134 65.627589 
L 344.526316 65.713684 
L 344.971292 65.455401 
L 345.416268 67.693855 
L 346.30622 65.283212 
L 346.751196 65.283212 
L 347.196172 65.799778 
L 347.641148 66.488533 
L 348.086124 65.111023 
L 348.976077 67.091194 
L 349.421053 65.627589 
L 349.866029 65.197118 
L 350.311005 66.574628 
L 350.755981 66.488533 
L 351.200957 68.296516 
L 351.645933 66.919005 
L 352.090909 66.919005 
L 352.535885 66.058061 
L 352.980861 67.607761 
L 353.425837 66.23025 
L 353.870813 67.091194 
L 354.315789 65.024929 
L 354.760766 69.15746 
L 355.650718 65.713684 
L 356.095694 68.124327 
L 356.54067 65.541495 
L 356.985646 67.435572 
L 357.430622 65.713684 
L 357.875598 65.541495 
L 358.320574 64.163985 
L 358.76555 66.832911 
L 359.210526 67.607761 
L 359.655502 65.885873 
L 360.100478 64.766646 
L 360.545455 66.402439 
L 360.990431 64.250079 
L 361.435407 68.124327 
L 361.880383 65.455401 
L 362.325359 66.23025 
L 362.770335 65.971967 
L 363.215311 67.521666 
L 363.660287 67.607761 
L 364.105263 64.680551 
L 364.550239 65.541495 
L 364.995215 66.660722 
L 365.440191 66.660722 
L 365.885167 65.197118 
L 366.330144 64.938834 
L 366.77512 65.885873 
L 367.220096 66.058061 
L 367.665072 67.435572 
L 368.110048 65.455401 
L 368.555024 66.919005 
L 369 65.455401 
L 369.444976 66.058061 
L 369.889952 65.024929 
L 370.334928 65.197118 
L 370.779904 67.952138 
L 371.22488 65.541495 
L 371.669856 66.058061 
L 372.114833 66.058061 
L 372.559809 63.819607 
L 373.004785 67.0051 
L 373.449761 66.746817 
L 373.894737 64.680551 
L 374.339713 65.971967 
L 374.784689 66.488533 
L 375.229665 66.402439 
L 375.674641 65.455401 
L 376.119617 65.885873 
L 376.564593 65.455401 
L 377.009569 65.541495 
L 377.454545 66.919005 
L 377.899522 63.819607 
L 378.344498 65.024929 
L 378.789474 64.594457 
L 379.23445 65.197118 
L 379.679426 68.554799 
L 380.124402 64.07789 
L 380.569378 63.819607 
L 381.45933 64.508362 
L 381.904306 66.402439 
L 382.349282 64.680551 
L 382.794258 66.832911 
L 383.239234 66.746817 
L 383.684211 64.938834 
L 384.129187 66.316345 
L 384.574163 65.024929 
L 385.019139 65.369306 
L 385.464115 63.130852 
L 385.909091 64.422268 
L 386.354067 64.163985 
L 386.799043 65.197118 
L 387.244019 64.07789 
L 387.688995 64.163985 
L 388.133971 65.455401 
L 388.578947 62.786475 
L 389.023923 65.024929 
L 389.4689 64.422268 
L 389.913876 66.058061 
L 390.803828 65.024929 
L 391.248804 65.713684 
L 391.69378 65.283212 
L 392.138756 63.819607 
L 393.028708 65.369306 
L 393.473684 64.766646 
L 393.91866 65.111023 
L 394.363636 65.885873 
L 394.808612 63.991796 
L 395.253589 64.594457 
L 395.698565 63.991796 
L 396.143541 66.058061 
L 397.033493 65.541495 
L 397.478469 64.07789 
L 397.923445 65.197118 
L 398.368421 62.872569 
L 398.813397 64.250079 
L 399.258373 64.163985 
L 399.703349 65.283212 
L 400.148325 63.044758 
L 400.593301 63.130852 
L 401.038278 65.627589 
L 401.483254 63.130852 
L 401.92823 63.561324 
L 402.373206 63.819607 
L 402.818182 63.130852 
L 403.263158 63.905702 
L 403.708134 62.872569 
L 404.15311 63.733513 
L 404.598086 63.561324 
L 405.043062 62.269908 
L 405.488038 65.971967 
L 405.933014 62.786475 
L 406.37799 62.958663 
L 406.822967 66.574628 
L 407.267943 63.47523 
L 407.712919 64.422268 
L 408.157895 65.024929 
L 408.602871 65.197118 
L 409.047847 64.422268 
L 409.492823 62.528191 
L 409.937799 62.872569 
L 410.382775 64.85274 
L 410.827751 63.561324 
L 411.272727 64.85274 
L 411.717703 62.70038 
L 412.162679 63.389135 
L 412.607656 60.634115 
L 413.052632 63.561324 
L 413.497608 63.819607 
L 413.942584 64.508362 
L 414.38756 63.044758 
L 414.832536 63.561324 
L 415.277512 65.111023 
L 415.722488 62.528191 
L 416.167464 61.753342 
L 416.61244 64.336174 
L 417.057416 65.455401 
L 417.502392 62.958663 
L 417.947368 63.561324 
L 418.392344 64.85274 
L 419.282297 62.011625 
L 419.727273 64.336174 
L 420.172249 61.753342 
L 420.617225 61.839436 
L 421.062201 63.47523 
L 421.507177 60.806303 
L 421.952153 63.561324 
L 422.397129 64.422268 
L 422.842105 61.581153 
L 423.287081 62.70038 
L 423.732057 63.303041 
L 424.177033 62.528191 
L 424.62201 63.647418 
L 425.066986 64.422268 
L 425.511962 61.753342 
L 425.956938 60.806303 
L 426.401914 62.872569 
L 426.84689 62.786475 
L 427.291866 63.733513 
L 427.736842 62.786475 
L 428.181818 61.408964 
L 428.626794 62.528191 
L 429.07177 62.614286 
L 429.516746 62.872569 
L 429.961722 62.183814 
L 430.406699 63.216946 
L 430.851675 63.733513 
L 431.296651 62.958663 
L 431.741627 61.839436 
L 432.186603 63.733513 
L 432.631579 61.581153 
L 433.076555 62.872569 
L 433.521531 62.528191 
L 433.966507 63.47523 
L 434.411483 64.85274 
L 434.856459 64.508362 
L 435.301435 62.528191 
L 435.746411 63.819607 
L 436.191388 61.839436 
L 436.636364 62.872569 
L 437.08134 61.839436 
L 437.526316 62.614286 
L 437.971292 63.733513 
L 438.416268 61.495059 
L 438.861244 62.356003 
L 439.30622 61.581153 
L 439.751196 61.667247 
L 440.196172 61.064587 
L 440.641148 62.872569 
L 441.086124 63.216946 
L 441.5311 62.011625 
L 441.976077 63.130852 
L 442.421053 63.130852 
L 442.866029 62.183814 
L 443.311005 62.097719 
L 443.755981 63.47523 
L 444.200957 63.044758 
L 444.645933 61.236775 
L 445.090909 62.356003 
L 445.535885 62.786475 
L 445.980861 62.442097 
L 446.425837 60.892398 
L 446.870813 63.991796 
L 447.315789 61.925531 
L 447.760766 62.269908 
L 448.205742 61.408964 
L 448.650718 61.064587 
L 449.095694 61.064587 
L 449.54067 63.561324 
L 449.985646 61.408964 
L 450.875598 61.150681 
L 451.320574 63.130852 
L 451.76555 61.581153 
L 452.210526 61.667247 
L 452.655502 62.442097 
L 453.100478 62.442097 
L 453.545455 62.269908 
L 453.990431 61.408964 
L 454.435407 62.442097 
L 454.880383 63.819607 
L 455.325359 61.495059 
L 455.770335 61.236775 
L 456.215311 62.442097 
L 456.660287 61.408964 
L 457.105263 61.32287 
L 457.550239 61.925531 
L 457.995215 62.786475 
L 458.440191 61.667247 
L 458.885167 61.495059 
L 459.330144 60.289737 
L 459.77512 63.561324 
L 460.220096 61.064587 
L 461.110048 61.839436 
L 461.555024 60.117548 
L 462 61.32287 
L 462.444976 61.150681 
L 462.889952 62.614286 
L 463.334928 60.892398 
L 463.779904 62.183814 
L 464.22488 60.203643 
L 464.669856 61.408964 
L 465.114833 63.303041 
L 465.559809 60.54802 
L 466.004785 61.150681 
L 466.449761 63.647418 
L 466.894737 61.581153 
L 467.339713 62.786475 
L 467.784689 61.495059 
L 468.229665 61.150681 
L 468.674641 60.54802 
L 469.119617 63.044758 
L 469.564593 59.94536 
L 470.009569 62.183814 
L 470.454545 63.561324 
L 470.899522 62.097719 
L 471.344498 62.269908 
L 471.789474 61.408964 
L 472.23445 61.581153 
L 472.679426 61.925531 
L 473.124402 61.581153 
L 473.569378 61.925531 
L 474.014354 62.528191 
L 474.45933 60.978492 
L 474.904306 63.47523 
L 475.349282 60.978492 
L 475.794258 61.667247 
L 476.239234 61.150681 
L 476.684211 61.408964 
L 477.129187 60.806303 
L 477.574163 62.183814 
L 478.019139 60.634115 
L 478.464115 62.442097 
L 478.909091 61.064587 
L 479.354067 61.32287 
L 479.799043 62.356003 
L 480.244019 59.514888 
L 480.688995 59.342699 
L 481.133971 62.011625 
L 481.578947 61.150681 
L 482.023923 60.978492 
L 482.4689 63.819607 
L 482.913876 63.044758 
L 483.358852 61.408964 
L 483.803828 61.064587 
L 484.69378 60.978492 
L 485.138756 60.720209 
L 485.583732 61.839436 
L 486.028708 61.925531 
L 486.473684 59.17051 
L 487.363636 60.634115 
L 487.808612 58.998321 
L 488.253589 60.117548 
L 488.698565 60.806303 
L 489.143541 62.011625 
L 489.588517 62.011625 
L 490.033493 59.859265 
L 490.478469 59.600982 
L 490.923445 62.614286 
L 491.368421 62.614286 
L 491.813397 61.667247 
L 492.258373 61.839436 
L 492.703349 62.614286 
L 493.148325 61.064587 
L 494.038278 59.94536 
L 494.483254 59.256604 
L 494.92823 60.031454 
L 495.373206 60.461926 
L 495.818182 62.528191 
L 496.708134 60.375831 
L 497.15311 61.150681 
L 497.598086 60.117548 
L 498.043062 59.859265 
L 498.488038 61.236775 
L 499.37799 61.581153 
L 499.822967 60.375831 
L 500.267943 61.32287 
L 500.712919 63.303041 
L 501.157895 60.978492 
L 501.602871 59.773171 
L 502.047847 60.289737 
L 502.492823 59.773171 
L 502.937799 60.54802 
L 503.382775 60.375831 
L 504.272727 60.461926 
L 504.717703 61.667247 
L 505.162679 58.481755 
L 505.607656 59.859265 
L 506.497608 59.773171 
L 506.942584 60.720209 
L 507.38756 58.912227 
L 507.832536 61.32287 
L 508.277512 57.620811 
L 508.722488 61.32287 
L 509.167464 59.773171 
L 509.61244 60.289737 
L 510.057416 60.203643 
L 510.502392 59.94536 
L 510.947368 60.54802 
L 511.392344 60.634115 
L 511.837321 60.117548 
L 512.282297 61.064587 
L 512.727273 61.495059 
L 513.172249 61.064587 
L 513.617225 58.912227 
L 514.062201 59.342699 
L 514.507177 60.892398 
L 514.952153 60.892398 
L 515.397129 60.375831 
L 515.842105 60.806303 
L 516.287081 59.94536 
L 516.732057 58.39566 
L 517.177033 61.408964 
L 517.62201 60.375831 
L 518.066986 60.031454 
L 518.511962 60.806303 
L 518.956938 60.289737 
L 519.401914 59.428793 
L 519.84689 60.289737 
L 520.736842 61.32287 
L 521.181818 59.514888 
L 521.626794 59.428793 
L 522.07177 61.667247 
L 522.961722 58.826132 
L 523.406699 59.256604 
L 523.851675 61.581153 
L 524.741627 58.826132 
L 525.631579 60.031454 
L 526.076555 60.634115 
L 526.521531 60.203643 
L 526.966507 60.203643 
L 527.411483 58.137377 
L 527.856459 59.600982 
L 528.301435 59.687076 
L 528.746411 59.084416 
L 529.191388 60.203643 
L 529.636364 58.998321 
L 530.08134 58.137377 
L 530.526316 60.720209 
L 530.971292 59.600982 
L 531.416268 60.892398 
L 531.861244 60.375831 
L 532.30622 57.01815 
L 532.751196 59.600982 
L 533.196172 59.859265 
L 533.641148 61.32287 
L 534.086124 58.912227 
L 534.5311 59.859265 
L 534.976077 59.687076 
L 535.421053 58.567849 
L 535.866029 58.653944 
L 536.311005 60.806303 
L 536.755981 58.912227 
L 537.200957 58.912227 
L 537.645933 59.687076 
L 538.090909 60.978492 
L 538.535885 59.600982 
L 538.980861 59.773171 
L 539.870813 59.084416 
L 540.315789 60.461926 
L 541.205742 59.342699 
L 541.650718 58.309566 
L 542.095694 60.634115 
L 542.54067 60.117548 
L 542.985646 59.859265 
L 543.430622 59.94536 
L 543.875598 60.375831 
L 544.320574 59.342699 
L 544.76555 57.534717 
L 545.210526 59.94536 
L 545.655502 57.448622 
L 546.100478 60.031454 
L 546.545455 59.256604 
L 546.990431 57.879094 
L 547.435407 59.600982 
L 548.325359 60.375831 
L 548.770335 60.031454 
L 549.215311 59.859265 
L 549.660287 60.203643 
L 550.105263 59.084416 
L 550.550239 58.912227 
L 550.995215 60.031454 
L 551.440191 57.190339 
L 551.885167 59.514888 
L 552.330144 59.600982 
L 552.77512 59.17051 
L 553.220096 60.289737 
L 553.665072 60.031454 
L 554.110048 58.309566 
L 555 59.94536 
L 555.444976 60.289737 
L 555.889952 58.567849 
L 556.334928 58.567849 
L 556.779904 59.859265 
L 557.22488 59.94536 
L 557.669856 58.653944 
L 558.114833 59.17051 
L 558.559809 59.342699 
L 559.004785 60.289737 
L 559.449761 59.600982 
L 559.894737 57.362528 
L 560.339713 60.461926 
L 560.784689 57.620811 
L 561.674641 59.773171 
L 562.119617 58.998321 
L 562.564593 60.203643 
L 563.009569 60.375831 
L 563.454545 57.276433 
L 563.899522 58.223472 
L 564.344498 58.653944 
L 564.789474 58.567849 
L 565.23445 59.514888 
L 565.679426 60.117548 
L 566.124402 58.051283 
L 566.569378 58.740038 
L 567.014354 58.998321 
L 567.45933 58.826132 
L 567.904306 58.826132 
L 568.349282 59.084416 
L 568.794258 60.375831 
L 569.239234 58.998321 
L 569.684211 59.859265 
L 570.129187 59.600982 
L 570.574163 57.448622 
L 571.019139 58.223472 
L 571.464115 58.740038 
L 571.909091 57.620811 
L 572.354067 57.793 
L 572.799043 59.600982 
L 573.244019 58.826132 
L 573.688995 60.031454 
L 574.578947 58.998321 
L 575.023923 57.534717 
L 575.4689 58.998321 
L 575.913876 56.759867 
L 576.358852 58.912227 
L 576.803828 58.481755 
L 577.248804 59.428793 
L 577.69378 58.998321 
L 578.583732 57.104245 
L 579.028708 58.653944 
L 579.473684 58.998321 
L 579.91866 57.965188 
L 580.363636 58.223472 
L 580.808612 58.223472 
L 581.253589 58.826132 
L 581.698565 56.759867 
L 582.143541 58.137377 
L 582.588517 58.39566 
L 583.033493 57.793 
L 583.478469 59.514888 
L 583.923445 59.514888 
L 584.813397 57.706905 
L 585.258373 58.39566 
L 585.703349 59.342699 
L 586.148325 58.223472 
L 586.593301 59.084416 
L 587.038278 58.653944 
L 587.483254 57.620811 
L 587.92823 58.137377 
L 588.373206 56.587678 
L 588.818182 56.932056 
L 589.263158 58.051283 
L 589.708134 58.826132 
L 590.15311 57.879094 
L 590.598086 58.223472 
L 591.043062 58.137377 
L 591.488038 60.375831 
L 591.933014 56.759867 
L 592.37799 58.740038 
L 592.822967 57.879094 
L 593.267943 59.256604 
L 593.712919 59.256604 
L 594.157895 60.54802 
L 594.602871 58.912227 
L 595.047847 57.706905 
L 595.492823 58.567849 
L 595.937799 61.150681 
L 596.382775 57.448622 
L 596.827751 58.309566 
L 597.272727 57.448622 
L 597.717703 58.567849 
L 598.162679 60.54802 
L 598.607656 57.190339 
L 599.052632 58.223472 
L 599.497608 57.534717 
L 599.942584 60.117548 
L 600.38756 57.362528 
L 600.832536 57.534717 
L 601.277512 57.879094 
L 601.722488 58.481755 
L 602.167464 57.01815 
L 602.61244 56.673773 
L 603.502392 59.600982 
L 603.947368 59.342699 
L 604.392344 57.534717 
L 605.727273 60.806303 
L 606.172249 59.342699 
L 606.617225 57.190339 
L 607.062201 59.600982 
L 607.507177 58.740038 
L 607.952153 57.276433 
L 608.397129 58.137377 
L 608.842105 58.481755 
L 609.287081 58.39566 
L 609.732057 57.190339 
L 610.177033 58.912227 
L 610.62201 58.998321 
L 611.066986 57.534717 
L 611.511962 58.912227 
L 611.956938 58.653944 
L 613.736842 58.39566 
L 614.181818 59.256604 
L 614.626794 58.223472 
L 615.07177 58.481755 
L 615.516746 58.051283 
L 615.961722 59.256604 
L 616.406699 58.653944 
L 616.851675 57.104245 
L 617.296651 59.600982 
L 617.741627 55.554545 
L 618.186603 57.276433 
L 618.631579 58.223472 
L 619.076555 60.203643 
L 619.521531 57.620811 
L 619.966507 57.620811 
L 620.411483 57.01815 
L 620.856459 57.448622 
L 621.301435 58.309566 
L 621.746411 59.514888 
L 622.191388 58.826132 
L 622.636364 57.276433 
L 622.636364 57.276433 
" style="fill:none;stroke:#1f77b4;stroke-linecap:square;stroke-width:0.5;"/>
   </g>
   <g id="line2d_30">
    <path clip-path="url(#p3533704bc5)" d="M 115.363636 302.645455 
L 115.808612 302.214983 
L 116.253589 296.274469 
L 117.143541 300.837472 
L 117.588517 297.479791 
L 118.478469 294.294298 
L 118.923445 294.983054 
L 119.368421 293.088977 
L 119.813397 293.261166 
L 120.258373 290.247862 
L 120.703349 291.108806 
L 121.148325 289.989579 
L 121.593301 289.903484 
L 122.038278 292.658505 
L 122.483254 286.459709 
L 122.92823 287.578936 
L 123.373206 283.446405 
L 123.818182 275.956193 
L 124.263158 278.194647 
L 124.708134 278.022458 
L 125.598086 272.426322 
L 126.043062 265.969243 
L 126.488038 276.30057 
L 127.37799 264.247355 
L 127.822967 263.644694 
L 128.267943 265.108299 
L 128.712919 253.227273 
L 129.157895 252.19414 
L 129.602871 251.677574 
L 130.047847 246.339721 
L 130.492823 245.392683 
L 130.937799 241.260152 
L 131.382775 240.054831 
L 131.827751 232.650713 
L 132.272727 236.869338 
L 132.717703 227.571143 
L 133.162679 222.835952 
L 133.607656 226.451916 
L 134.497608 219.478271 
L 134.942584 221.458442 
L 135.38756 212.41853 
L 135.832536 211.04102 
L 136.277512 210.524454 
L 137.167464 202.431581 
L 137.61244 202.862053 
L 138.057416 202.775958 
L 138.502392 196.491067 
L 138.947368 194.338708 
L 139.392344 189.603516 
L 139.837321 188.3121 
L 140.282297 190.981026 
L 140.727273 188.570383 
L 141.172249 185.212702 
L 141.617225 184.868324 
L 142.507177 175.656224 
L 142.952153 177.550301 
L 143.397129 172.212449 
L 143.842105 168.854767 
L 144.287081 168.854767 
L 144.732057 161.536744 
L 145.177033 167.132879 
L 145.62201 161.278461 
L 146.066986 157.834685 
L 146.511962 158.781723 
L 146.956938 154.132626 
L 147.401914 154.046532 
L 147.84689 153.702154 
L 148.291866 151.119322 
L 148.736842 149.827906 
L 149.181818 149.741812 
L 149.626794 143.973487 
L 150.07177 146.298036 
L 150.516746 146.728508 
L 151.406699 139.32439 
L 151.851675 139.496579 
L 152.296651 141.046278 
L 152.741627 138.635635 
L 153.186603 132.006367 
L 153.631579 135.450143 
L 154.076555 134.072632 
L 154.521531 134.847482 
L 154.966507 130.198385 
L 155.411483 132.178556 
L 155.856459 131.231517 
L 156.746411 130.370573 
L 157.191388 132.350744 
L 157.636364 127.787742 
L 158.08134 128.562591 
L 158.526316 127.873836 
L 158.971292 121.761134 
L 159.416268 123.05255 
L 159.861244 120.125341 
L 160.30622 118.489547 
L 160.751196 124.946627 
L 161.196172 122.105512 
L 161.641148 122.449889 
L 162.086124 123.483022 
L 162.5311 119.52268 
L 162.976077 120.814096 
L 163.421053 118.059075 
L 163.866029 116.164998 
L 164.311005 116.767659 
L 164.755981 123.224739 
L 165.200957 115.390149 
L 165.645933 116.509376 
L 166.090909 114.184827 
L 166.535885 114.098733 
L 166.980861 115.648432 
L 167.425837 112.635128 
L 167.870813 112.893411 
L 168.315789 111.860279 
L 168.760766 115.476243 
L 169.205742 113.237789 
L 169.650718 109.105258 
L 170.095694 110.654957 
L 170.54067 113.409978 
L 171.430622 108.330409 
L 171.875598 109.707919 
L 172.320574 107.297276 
L 172.76555 110.052296 
L 173.210526 107.211182 
L 173.655502 108.502597 
L 174.545455 107.813842 
L 174.990431 109.277447 
L 175.435407 106.952898 
L 175.880383 108.588692 
L 176.325359 107.125087 
L 176.770335 108.072125 
L 177.215311 101.442857 
L 177.660287 107.555559 
L 178.105263 106.608521 
L 178.550239 104.800538 
L 178.995215 105.403199 
L 179.440191 103.8535 
L 179.885167 106.78071 
L 180.330144 105.661482 
L 180.77512 102.820367 
L 181.220096 104.370067 
L 181.665072 102.992556 
L 182.110048 104.283972 
L 182.555024 105.144916 
L 183 107.125087 
L 183.444976 102.045518 
L 183.889952 103.078651 
L 184.779904 102.820367 
L 185.22488 106.350238 
L 185.669856 102.47599 
L 186.114833 101.012385 
L 186.559809 101.356763 
L 187.004785 101.873329 
L 187.449761 102.906462 
L 187.894737 101.528952 
L 188.339713 98.860025 
L 188.784689 101.09848 
L 189.229665 98.773931 
L 189.674641 100.581913 
L 190.119617 101.184574 
L 190.564593 98.773931 
L 191.009569 101.184574 
L 191.454545 97.224232 
L 191.899522 97.482515 
L 192.344498 100.409724 
L 192.789474 100.926291 
L 193.23445 98.687837 
L 193.679426 98.515648 
L 194.124402 99.032214 
L 194.569378 97.654704 
L 195.014354 99.979252 
L 195.45933 97.138137 
L 195.904306 99.032214 
L 196.349282 98.687837 
L 196.794258 100.926291 
L 197.239234 98.687837 
L 197.684211 100.495819 
L 198.129187 100.065347 
L 198.574163 98.687837 
L 199.019139 96.879854 
L 199.464115 95.846722 
L 199.909091 96.879854 
L 200.354067 97.482515 
L 200.799043 96.621571 
L 201.244019 95.41625 
L 201.688995 93.091701 
L 202.133971 94.899683 
L 202.578947 95.157966 
L 203.023923 99.204403 
L 203.4689 94.6414 
L 203.913876 96.191099 
L 204.358852 95.244061 
L 204.803828 96.707666 
L 205.248804 96.621571 
L 206.138756 92.661229 
L 206.583732 96.965949 
L 207.028708 95.502344 
L 207.473684 94.555306 
L 207.91866 95.157966 
L 208.363636 95.157966 
L 208.808612 96.449382 
L 209.253589 94.383117 
L 209.698565 93.349984 
L 210.143541 95.674533 
L 210.588517 95.071872 
L 211.033493 92.144663 
L 211.478469 93.866551 
L 211.923445 93.952645 
L 212.368421 96.105005 
L 212.813397 94.469211 
L 213.258373 93.436079 
L 213.703349 90.681058 
L 214.148325 93.608267 
L 214.593301 92.833418 
L 215.038278 94.727494 
L 215.483254 94.985778 
L 215.92823 95.674533 
L 216.373206 93.780456 
L 216.818182 90.767152 
L 217.708134 94.210928 
L 218.15311 92.230757 
L 218.598086 93.091701 
L 219.043062 94.469211 
L 219.488038 93.26389 
L 219.933014 91.714191 
L 220.37799 93.694362 
L 220.822967 90.939341 
L 221.267943 90.594964 
L 221.712919 90.767152 
L 222.157895 95.244061 
L 222.602871 89.906208 
L 223.047847 91.542002 
L 223.492823 91.11153 
L 223.937799 92.230757 
L 224.382775 91.886379 
L 224.827751 89.561831 
L 225.272727 92.833418 
L 225.717703 90.594964 
L 226.162679 90.078397 
L 226.607656 90.078397 
L 227.052632 92.661229 
L 227.497608 89.992303 
L 227.942584 92.144663 
L 228.38756 91.628096 
L 228.832536 91.542002 
L 229.277512 92.833418 
L 229.722488 92.833418 
L 230.167464 91.886379 
L 230.61244 89.906208 
L 231.057416 91.542002 
L 231.502392 89.992303 
L 231.947368 91.972474 
L 232.392344 91.628096 
L 232.837321 93.177795 
L 233.282297 87.926037 
L 233.727273 91.025436 
L 234.172249 87.151188 
L 234.617225 87.495565 
L 235.062201 87.667754 
L 235.507177 89.561831 
L 235.952153 90.164492 
L 236.397129 88.012132 
L 236.842105 91.455908 
L 237.287081 90.250586 
L 237.732057 88.270415 
L 238.177033 92.144663 
L 238.62201 90.164492 
L 239.066986 89.906208 
L 239.511962 88.184321 
L 239.956938 90.33668 
L 240.84689 88.442604 
L 241.291866 89.217453 
L 241.736842 88.528698 
L 242.181818 90.508869 
L 242.626794 89.647925 
L 243.07177 89.389642 
L 243.516746 89.820114 
L 243.961722 88.184321 
L 244.406699 90.939341 
L 244.851675 89.820114 
L 245.296651 90.681058 
L 245.741627 88.95917 
L 246.186603 89.906208 
L 247.076555 86.290244 
L 247.521531 88.700887 
L 248.411483 89.045264 
L 248.856459 88.098226 
L 249.301435 88.098226 
L 249.746411 87.151188 
L 250.636364 88.700887 
L 251.08134 89.647925 
L 251.526316 87.926037 
L 251.971292 87.667754 
L 252.416268 88.012132 
L 252.861244 87.753849 
L 253.30622 87.839943 
L 253.751196 88.442604 
L 254.641148 86.634621 
L 255.086124 87.839943 
L 255.5311 88.528698 
L 255.976077 87.409471 
L 256.421053 87.839943 
L 256.866029 88.786981 
L 257.311005 88.098226 
L 257.755981 86.20415 
L 258.200957 86.548527 
L 258.645933 86.376338 
L 259.090909 87.667754 
L 259.980861 88.528698 
L 260.425837 87.151188 
L 260.870813 87.753849 
L 261.315789 88.873076 
L 261.760766 86.20415 
L 262.205742 89.389642 
L 262.650718 88.442604 
L 263.095694 86.634621 
L 263.54067 86.031961 
L 263.985646 87.151188 
L 264.430622 89.389642 
L 264.875598 85.4293 
L 265.320574 88.270415 
L 265.76555 88.184321 
L 266.210526 87.58166 
L 266.655502 84.740545 
L 267.100478 86.290244 
L 267.545455 87.323377 
L 267.990431 86.548527 
L 268.435407 85.171017 
L 268.880383 86.290244 
L 269.325359 84.05179 
L 269.770335 85.601489 
L 270.660287 86.031961 
L 271.550239 85.343206 
L 271.995215 86.290244 
L 272.440191 87.58166 
L 272.885167 86.892905 
L 273.330144 85.257111 
L 273.77512 85.859772 
L 274.220096 88.270415 
L 274.665072 89.647925 
L 275.110048 86.892905 
L 275.555024 88.356509 
L 276 84.826639 
L 276.889952 87.409471 
L 277.334928 85.859772 
L 277.779904 83.363035 
L 278.22488 85.945866 
L 278.669856 84.826639 
L 279.114833 83.018657 
L 280.004785 81.641147 
L 280.449761 85.4293 
L 280.894737 85.343206 
L 281.339713 87.495565 
L 281.784689 86.720716 
L 282.229665 85.343206 
L 282.674641 87.495565 
L 283.119617 85.601489 
L 283.564593 85.601489 
L 284.009569 85.4293 
L 284.454545 87.323377 
L 284.899522 85.343206 
L 285.344498 85.171017 
L 285.789474 85.4293 
L 286.23445 86.031961 
L 286.679426 83.27694 
L 287.124402 83.707412 
L 287.569378 85.171017 
L 288.014354 85.773678 
L 288.45933 83.879601 
L 288.904306 85.343206 
L 289.349282 84.912734 
L 289.794258 84.137884 
L 290.239234 85.343206 
L 290.684211 85.257111 
L 291.129187 84.740545 
L 291.574163 85.084922 
L 292.019139 84.826639 
L 292.464115 86.290244 
L 292.909091 84.912734 
L 293.354067 84.482262 
L 293.799043 81.382863 
L 294.244019 85.601489 
L 294.688995 81.12458 
L 295.133971 83.621318 
L 295.578947 83.621318 
L 296.023923 85.773678 
L 296.4689 84.740545 
L 296.913876 83.104751 
L 297.358852 85.945866 
L 297.803828 84.482262 
L 298.248804 84.223978 
L 298.69378 82.329902 
L 299.138756 81.985524 
L 299.583732 84.998828 
L 300.028708 83.879601 
L 300.473684 83.363035 
L 300.91866 83.793506 
L 301.363636 83.363035 
L 302.253589 84.396167 
L 302.698565 83.965695 
L 303.143541 83.104751 
L 303.588517 82.932563 
L 304.033493 84.137884 
L 304.478469 84.137884 
L 304.923445 84.998828 
L 305.368421 82.674279 
L 305.813397 86.20415 
L 306.258373 84.137884 
L 307.148325 81.727241 
L 307.593301 84.137884 
L 308.038278 83.27694 
L 308.483254 82.760374 
L 308.92823 83.018657 
L 309.373206 84.137884 
L 309.818182 84.482262 
L 310.263158 85.515394 
L 310.708134 79.660976 
L 311.15311 82.588185 
L 311.598086 81.12458 
L 312.043062 82.588185 
L 312.488038 85.859772 
L 312.933014 84.826639 
L 313.37799 84.912734 
L 313.822967 83.190846 
L 314.267943 82.415996 
L 314.712919 84.65445 
L 315.157895 85.171017 
L 315.602871 84.826639 
L 316.047847 85.4293 
L 316.492823 81.468958 
L 316.937799 84.826639 
L 317.382775 84.65445 
L 317.827751 82.415996 
L 318.717703 85.773678 
L 319.162679 82.932563 
L 319.607656 84.05179 
L 320.052632 84.568356 
L 320.942584 84.568356 
L 321.38756 83.018657 
L 321.832536 83.793506 
L 322.277512 82.243807 
L 322.722488 84.568356 
L 323.167464 81.641147 
L 323.61244 83.104751 
L 324.057416 80.435825 
L 324.502392 83.707412 
L 324.947368 84.05179 
L 325.392344 81.296769 
L 325.837321 85.257111 
L 326.282297 82.415996 
L 326.727273 84.568356 
L 327.172249 82.071619 
L 327.617225 81.813335 
L 328.507177 83.707412 
L 328.952153 82.329902 
L 329.397129 80.005353 
L 329.842105 83.707412 
L 330.732057 83.104751 
L 331.177033 82.415996 
L 331.62201 81.985524 
L 332.066986 83.27694 
L 332.511962 81.89943 
L 332.956938 84.482262 
L 333.401914 84.05179 
L 333.84689 82.243807 
L 334.291866 81.468958 
L 334.736842 82.674279 
L 335.181818 81.12458 
L 335.626794 83.707412 
L 336.07177 84.223978 
L 336.516746 82.760374 
L 336.961722 83.621318 
L 337.406699 80.52192 
L 337.851675 82.502091 
L 338.296651 81.985524 
L 338.741627 83.621318 
L 339.186603 83.27694 
L 339.631579 84.998828 
L 340.076555 80.866297 
L 340.521531 82.157713 
L 340.966507 82.329902 
L 341.411483 84.310073 
L 341.856459 83.621318 
L 342.301435 81.813335 
L 342.746411 81.985524 
L 343.191388 80.780203 
L 343.636364 84.137884 
L 344.08134 82.243807 
L 344.526316 82.932563 
L 344.971292 83.018657 
L 345.416268 81.382863 
L 345.861244 84.65445 
L 346.30622 84.826639 
L 346.751196 83.793506 
L 347.196172 83.621318 
L 347.641148 81.813335 
L 348.086124 83.707412 
L 348.5311 82.071619 
L 348.976077 83.535223 
L 349.421053 82.932563 
L 349.866029 83.449129 
L 350.311005 81.641147 
L 350.755981 84.310073 
L 351.645933 80.780203 
L 352.090909 83.449129 
L 352.535885 83.27694 
L 352.980861 80.52192 
L 353.870813 83.190846 
L 354.315789 85.171017 
L 354.760766 82.157713 
L 355.205742 83.27694 
L 355.650718 80.091448 
L 356.095694 80.52192 
L 356.54067 82.329902 
L 356.985646 80.694108 
L 357.430622 81.555052 
L 357.875598 81.727241 
L 358.320574 82.157713 
L 358.76555 81.382863 
L 359.210526 81.727241 
L 359.655502 80.52192 
L 360.100478 82.588185 
L 360.545455 82.329902 
L 360.990431 82.674279 
L 361.435407 80.52192 
L 361.880383 83.27694 
L 362.325359 81.555052 
L 362.770335 83.879601 
L 363.215311 79.919259 
L 363.660287 85.171017 
L 364.105263 83.018657 
L 364.550239 83.363035 
L 364.995215 83.190846 
L 365.440191 83.621318 
L 365.885167 81.555052 
L 366.330144 82.071619 
L 366.77512 83.793506 
L 367.220096 81.555052 
L 367.665072 82.502091 
L 368.110048 80.952392 
L 368.555024 82.157713 
L 369 82.760374 
L 369.444976 84.396167 
L 369.889952 78.541748 
L 370.334928 82.502091 
L 370.779904 79.74707 
L 371.22488 81.555052 
L 371.669856 79.230504 
L 372.114833 81.727241 
L 372.559809 81.985524 
L 373.004785 80.694108 
L 373.449761 81.210675 
L 373.894737 81.210675 
L 374.339713 80.866297 
L 374.784689 81.555052 
L 375.229665 78.97222 
L 375.674641 80.263636 
L 376.119617 80.52192 
L 377.009569 78.97222 
L 377.454545 80.866297 
L 377.899522 81.296769 
L 378.344498 81.12458 
L 378.789474 82.157713 
L 379.23445 83.879601 
L 379.679426 80.952392 
L 380.124402 82.846468 
L 380.569378 81.89943 
L 381.014354 79.660976 
L 381.45933 80.694108 
L 381.904306 82.329902 
L 382.349282 81.382863 
L 382.794258 82.071619 
L 383.239234 80.866297 
L 383.684211 81.382863 
L 384.129187 83.190846 
L 384.574163 80.694108 
L 385.019139 81.468958 
L 385.464115 82.932563 
L 385.909091 80.952392 
L 386.799043 81.727241 
L 387.244019 83.965695 
L 387.688995 83.449129 
L 388.133971 82.071619 
L 388.578947 80.091448 
L 389.023923 81.382863 
L 389.4689 79.144409 
L 389.913876 82.588185 
L 390.358852 84.05179 
L 390.803828 79.74707 
L 391.248804 82.588185 
L 391.69378 81.555052 
L 392.138756 83.018657 
L 392.583732 81.12458 
L 393.028708 83.535223 
L 393.473684 82.932563 
L 393.91866 81.468958 
L 394.363636 80.435825 
L 394.808612 79.74707 
L 395.253589 79.919259 
L 395.698565 84.396167 
L 396.143541 80.608014 
L 396.588517 80.435825 
L 397.033493 82.502091 
L 397.478469 82.415996 
L 397.923445 81.89943 
L 398.368421 82.415996 
L 398.813397 80.780203 
L 399.703349 82.415996 
L 400.148325 80.52192 
L 400.593301 80.952392 
L 401.038278 81.985524 
L 401.483254 79.660976 
L 401.92823 80.349731 
L 402.373206 82.329902 
L 402.818182 81.296769 
L 403.263158 81.727241 
L 403.708134 80.005353 
L 404.598086 81.038486 
L 405.043062 80.177542 
L 405.488038 81.382863 
L 405.933014 80.263636 
L 406.37799 80.694108 
L 406.822967 80.005353 
L 407.267943 80.608014 
L 407.712919 79.058315 
L 408.157895 82.588185 
L 408.602871 81.296769 
L 409.047847 84.310073 
L 409.492823 80.694108 
L 409.937799 82.071619 
L 410.382775 80.177542 
L 410.827751 79.058315 
L 411.272727 79.402692 
L 411.717703 83.363035 
L 412.162679 82.329902 
L 412.607656 77.939088 
L 413.052632 79.833164 
L 413.497608 79.230504 
L 414.38756 81.210675 
L 414.832536 82.674279 
L 415.277512 79.488787 
L 415.722488 80.952392 
L 416.167464 80.435825 
L 416.61244 80.608014 
L 417.057416 78.886126 
L 417.502392 81.382863 
L 418.392344 79.488787 
L 418.837321 79.230504 
L 419.727273 82.932563 
L 420.172249 82.329902 
L 420.617225 80.952392 
L 421.507177 80.866297 
L 421.952153 79.488787 
L 422.397129 81.468958 
L 422.842105 79.488787 
L 423.287081 80.349731 
L 423.732057 79.144409 
L 424.177033 80.52192 
L 424.62201 79.833164 
L 425.066986 79.574881 
L 425.511962 79.919259 
L 425.956938 80.780203 
L 426.401914 82.329902 
L 426.84689 79.230504 
L 427.291866 80.866297 
L 428.181818 81.296769 
L 428.626794 80.263636 
L 429.07177 81.12458 
L 429.516746 81.210675 
L 429.961722 80.005353 
L 430.406699 81.210675 
L 430.851675 78.197371 
L 431.296651 82.157713 
L 431.741627 82.157713 
L 432.186603 80.435825 
L 432.631579 80.177542 
L 433.076555 77.164238 
L 433.521531 80.780203 
L 433.966507 79.058315 
L 434.411483 80.349731 
L 434.856459 79.660976 
L 435.301435 79.574881 
L 435.746411 80.52192 
L 436.191388 78.36956 
L 436.636364 80.52192 
L 437.08134 80.866297 
L 437.526316 81.382863 
L 437.971292 79.488787 
L 438.416268 80.866297 
L 438.861244 81.210675 
L 439.30622 78.97222 
L 439.751196 78.627843 
L 440.196172 80.952392 
L 440.641148 80.263636 
L 441.086124 80.435825 
L 441.5311 79.74707 
L 441.976077 83.190846 
L 442.421053 81.985524 
L 442.866029 80.091448 
L 443.311005 80.866297 
L 443.755981 79.74707 
L 444.200957 80.349731 
L 444.645933 79.402692 
L 445.090909 80.263636 
L 445.535885 79.919259 
L 445.980861 76.2172 
L 446.425837 80.608014 
L 446.870813 81.038486 
L 447.315789 80.52192 
L 447.760766 78.541748 
L 448.205742 82.674279 
L 448.650718 80.005353 
L 449.095694 80.694108 
L 449.54067 79.488787 
L 449.985646 79.919259 
L 450.430622 79.144409 
L 450.875598 80.780203 
L 451.320574 79.660976 
L 451.76555 80.091448 
L 452.210526 84.137884 
L 452.655502 79.660976 
L 453.100478 78.283465 
L 453.545455 79.660976 
L 453.990431 79.316598 
L 454.435407 81.555052 
L 454.880383 78.886126 
L 455.325359 80.091448 
L 455.770335 79.488787 
L 456.215311 81.12458 
L 456.660287 80.177542 
L 457.105263 78.886126 
L 457.550239 78.36956 
L 457.995215 81.727241 
L 458.440191 81.813335 
L 458.885167 79.660976 
L 459.330144 78.541748 
L 459.77512 81.382863 
L 460.220096 78.36956 
L 461.110048 81.12458 
L 461.555024 81.468958 
L 462 79.230504 
L 462.444976 78.197371 
L 462.889952 78.541748 
L 463.334928 80.866297 
L 463.779904 80.435825 
L 464.22488 79.144409 
L 464.669856 78.627843 
L 465.114833 78.800032 
L 465.559809 80.091448 
L 466.004785 78.627843 
L 466.449761 80.177542 
L 466.894737 76.389389 
L 467.339713 80.608014 
L 468.229665 79.660976 
L 468.674641 80.780203 
L 469.119617 79.74707 
L 469.564593 78.283465 
L 470.009569 81.813335 
L 470.454545 81.038486 
L 470.899522 79.833164 
L 471.344498 80.694108 
L 471.789474 78.455654 
L 472.23445 81.296769 
L 472.679426 79.230504 
L 473.124402 79.74707 
L 474.014354 80.435825 
L 474.45933 81.727241 
L 474.904306 80.349731 
L 475.349282 77.508616 
L 475.794258 78.627843 
L 476.239234 79.402692 
L 476.684211 78.111277 
L 477.129187 81.382863 
L 477.574163 81.985524 
L 478.019139 80.52192 
L 478.464115 81.296769 
L 478.909091 79.660976 
L 479.354067 80.177542 
L 479.799043 78.800032 
L 480.244019 78.283465 
L 480.688995 80.435825 
L 481.578947 78.886126 
L 482.023923 78.713937 
L 482.4689 78.283465 
L 482.913876 78.283465 
L 483.358852 80.952392 
L 483.803828 78.627843 
L 484.248804 78.197371 
L 484.69378 78.627843 
L 485.138756 77.680805 
L 485.583732 81.210675 
L 486.028708 79.660976 
L 486.473684 80.005353 
L 486.91866 77.422521 
L 487.363636 79.488787 
L 488.253589 80.866297 
L 488.698565 78.886126 
L 489.143541 79.488787 
L 489.588517 78.541748 
L 490.033493 78.197371 
L 490.478469 76.992049 
L 490.923445 76.647672 
L 491.368421 78.025182 
L 491.813397 78.455654 
L 492.258373 81.038486 
L 493.148325 77.59471 
L 493.593301 77.422521 
L 494.038278 79.058315 
L 494.483254 79.402692 
L 494.92823 81.12458 
L 495.373206 77.59471 
L 495.818182 79.74707 
L 496.263158 76.819861 
L 497.15311 78.111277 
L 497.598086 78.886126 
L 498.043062 78.111277 
L 498.488038 79.74707 
L 498.933014 79.144409 
L 499.37799 80.694108 
L 499.822967 79.488787 
L 500.267943 78.800032 
L 500.712919 79.74707 
L 501.157895 78.36956 
L 501.602871 78.97222 
L 502.047847 80.608014 
L 502.492823 79.058315 
L 502.937799 79.058315 
L 503.382775 80.435825 
L 503.827751 75.614539 
L 504.272727 78.800032 
L 504.717703 77.680805 
L 505.162679 79.660976 
L 505.607656 77.078144 
L 506.052632 80.005353 
L 506.497608 78.713937 
L 506.942584 79.660976 
L 507.38756 78.541748 
L 507.832536 78.283465 
L 508.722488 78.886126 
L 509.167464 79.660976 
L 509.61244 76.2172 
L 510.057416 80.091448 
L 510.502392 77.336427 
L 510.947368 79.402692 
L 511.392344 74.83969 
L 512.282297 79.316598 
L 512.727273 77.680805 
L 513.172249 78.800032 
L 513.617225 78.283465 
L 514.062201 77.59471 
L 514.507177 77.59471 
L 514.952153 78.97222 
L 515.397129 79.230504 
L 515.842105 77.59471 
L 516.287081 77.508616 
L 516.732057 79.316598 
L 517.177033 79.230504 
L 517.62201 79.660976 
L 518.066986 78.713937 
L 518.511962 77.422521 
L 518.956938 79.833164 
L 519.401914 79.833164 
L 519.84689 76.905955 
L 520.291866 80.952392 
L 520.736842 78.025182 
L 521.181818 77.59471 
L 521.626794 77.508616 
L 522.07177 77.59471 
L 522.516746 76.475483 
L 522.961722 78.283465 
L 523.406699 78.886126 
L 523.851675 80.263636 
L 524.296651 78.36956 
L 524.741627 77.59471 
L 525.186603 79.660976 
L 525.631579 77.680805 
L 526.076555 79.488787 
L 526.521531 80.349731 
L 526.966507 78.627843 
L 527.411483 79.488787 
L 527.856459 77.164238 
L 528.746411 79.74707 
L 529.191388 78.97222 
L 529.636364 79.488787 
L 530.08134 75.958917 
L 530.526316 75.958917 
L 530.971292 79.144409 
L 531.416268 80.52192 
L 531.861244 79.316598 
L 532.30622 79.230504 
L 532.751196 76.905955 
L 533.196172 78.627843 
L 533.641148 76.992049 
L 534.086124 78.800032 
L 534.5311 76.303294 
L 534.976077 77.766899 
L 535.421053 77.508616 
L 535.866029 78.197371 
L 536.311005 79.230504 
L 536.755981 77.852993 
L 537.200957 77.680805 
L 537.645933 78.025182 
L 538.090909 77.939088 
L 538.535885 77.59471 
L 538.980861 78.886126 
L 539.425837 79.058315 
L 539.870813 76.733766 
L 540.315789 78.541748 
L 540.760766 78.800032 
L 541.205742 78.541748 
L 541.650718 78.541748 
L 542.095694 79.316598 
L 542.54067 77.508616 
L 542.985646 78.025182 
L 543.430622 78.886126 
L 543.875598 80.263636 
L 544.320574 79.574881 
L 544.76555 76.303294 
L 545.210526 76.647672 
L 545.655502 76.2172 
L 546.100478 78.197371 
L 546.545455 76.389389 
L 546.990431 78.541748 
L 547.435407 77.766899 
L 547.880383 78.800032 
L 548.325359 78.713937 
L 548.770335 78.283465 
L 549.215311 79.919259 
L 549.660287 78.713937 
L 550.105263 78.627843 
L 550.550239 76.819861 
L 550.995215 77.766899 
L 551.440191 79.402692 
L 551.885167 77.680805 
L 552.330144 79.833164 
L 552.77512 78.197371 
L 553.220096 79.316598 
L 553.665072 78.025182 
L 554.110048 78.455654 
L 554.555024 79.833164 
L 555 76.733766 
L 555.444976 81.12458 
L 555.889952 76.905955 
L 556.334928 78.713937 
L 556.779904 78.197371 
L 557.22488 79.660976 
L 558.114833 76.303294 
L 558.559809 77.680805 
L 559.004785 77.078144 
L 559.449761 78.886126 
L 559.894737 77.250333 
L 560.339713 78.97222 
L 560.784689 78.97222 
L 561.229665 76.905955 
L 561.674641 78.713937 
L 562.119617 77.939088 
L 563.009569 79.574881 
L 563.454545 78.541748 
L 563.899522 79.833164 
L 564.344498 75.614539 
L 565.23445 78.025182 
L 565.679426 80.952392 
L 566.124402 77.852993 
L 566.569378 76.389389 
L 567.014354 78.283465 
L 567.45933 76.819861 
L 567.904306 77.939088 
L 568.349282 77.766899 
L 568.794258 78.541748 
L 569.239234 78.111277 
L 569.684211 80.263636 
L 570.129187 77.59471 
L 570.574163 78.800032 
L 571.019139 77.508616 
L 571.464115 79.402692 
L 571.909091 79.574881 
L 572.354067 77.680805 
L 572.799043 78.111277 
L 573.244019 78.800032 
L 574.133971 76.992049 
L 574.578947 77.164238 
L 575.023923 76.992049 
L 575.4689 76.303294 
L 575.913876 78.800032 
L 576.358852 76.131105 
L 577.248804 79.919259 
L 577.69378 75.614539 
L 578.138756 78.627843 
L 578.583732 77.59471 
L 579.028708 77.59471 
L 579.473684 76.905955 
L 579.91866 78.455654 
L 580.363636 76.992049 
L 580.808612 78.36956 
L 581.253589 79.058315 
L 581.698565 77.422521 
L 582.143541 79.058315 
L 582.588517 79.488787 
L 583.033493 77.680805 
L 583.478469 77.508616 
L 583.923445 79.919259 
L 584.368421 79.230504 
L 584.813397 77.250333 
L 585.258373 77.336427 
L 585.703349 78.025182 
L 586.148325 77.422521 
L 586.593301 79.660976 
L 587.038278 77.336427 
L 587.483254 76.045011 
L 587.92823 78.111277 
L 588.373206 78.886126 
L 588.818182 77.939088 
L 589.263158 79.574881 
L 589.708134 79.660976 
L 590.15311 76.303294 
L 590.598086 77.766899 
L 591.043062 78.800032 
L 591.488038 76.733766 
L 591.933014 78.886126 
L 592.37799 78.627843 
L 592.822967 77.852993 
L 593.267943 77.422521 
L 594.157895 78.97222 
L 594.602871 78.283465 
L 595.047847 80.005353 
L 595.492823 78.283465 
L 595.937799 78.455654 
L 596.382775 76.475483 
L 596.827751 79.660976 
L 597.272727 78.97222 
L 597.717703 78.713937 
L 598.162679 78.713937 
L 598.607656 78.025182 
L 599.052632 78.713937 
L 599.497608 76.2172 
L 599.942584 78.800032 
L 600.38756 78.713937 
L 600.832536 76.475483 
L 601.277512 76.819861 
L 602.167464 80.694108 
L 602.61244 78.886126 
L 603.057416 81.038486 
L 603.502392 77.336427 
L 603.947368 79.660976 
L 604.392344 78.025182 
L 604.837321 78.111277 
L 605.282297 76.647672 
L 605.727273 78.111277 
L 606.172249 77.680805 
L 606.617225 78.197371 
L 607.062201 76.561577 
L 607.507177 76.647672 
L 608.397129 78.197371 
L 608.842105 78.455654 
L 609.287081 79.488787 
L 609.732057 77.250333 
L 610.177033 78.197371 
L 610.62201 76.647672 
L 611.066986 76.905955 
L 611.511962 77.939088 
L 611.956938 77.422521 
L 612.401914 77.680805 
L 612.84689 79.144409 
L 613.291866 78.713937 
L 613.736842 77.59471 
L 614.181818 77.422521 
L 614.626794 80.52192 
L 615.07177 78.97222 
L 615.516746 78.283465 
L 615.961722 80.349731 
L 616.406699 77.164238 
L 616.851675 77.766899 
L 617.741627 76.561577 
L 618.186603 79.230504 
L 618.631579 78.800032 
L 619.076555 76.131105 
L 619.521531 77.59471 
L 619.966507 76.992049 
L 620.411483 76.992049 
L 620.856459 78.97222 
L 621.301435 77.680805 
L 621.746411 78.025182 
L 622.191388 78.886126 
L 622.636364 78.197371 
L 622.636364 78.197371 
" style="fill:none;stroke:#ff7f0e;stroke-linecap:square;stroke-width:0.5;"/>
   </g>
   <g id="patch_3">
    <path d="M 90 315 
L 90 43.2 
" style="fill:none;stroke:#000000;stroke-linecap:square;stroke-linejoin:miter;stroke-width:0.8;"/>
   </g>
   <g id="patch_4">
    <path d="M 648 315 
L 648 43.2 
" style="fill:none;stroke:#000000;stroke-linecap:square;stroke-linejoin:miter;stroke-width:0.8;"/>
   </g>
   <g id="patch_5">
    <path d="M 90 315 
L 648 315 
" style="fill:none;stroke:#000000;stroke-linecap:square;stroke-linejoin:miter;stroke-width:0.8;"/>
   </g>
   <g id="patch_6">
    <path d="M 90 43.2 
L 648 43.2 
" style="fill:none;stroke:#000000;stroke-linecap:square;stroke-linejoin:miter;stroke-width:0.8;"/>
   </g>
   <g id="text_17">
    <!-- accuracy -->
    <g transform="translate(341.92875 37.2)scale(0.12 -0.12)">
     <use xlink:href="#DejaVuSans-97"/>
     <use x="61.279297" xlink:href="#DejaVuSans-99"/>
     <use x="116.259766" xlink:href="#DejaVuSans-99"/>
     <use x="171.240234" xlink:href="#DejaVuSans-117"/>
     <use x="234.619141" xlink:href="#DejaVuSans-114"/>
     <use x="275.732422" xlink:href="#DejaVuSans-97"/>
     <use x="337.011719" xlink:href="#DejaVuSans-99"/>
     <use x="391.992188" xlink:href="#DejaVuSans-121"/>
    </g>
   </g>
   <g id="legend_1">
    <g id="patch_7">
     <path d="M 97 80.55625 
L 169.153125 80.55625 
Q 171.153125 80.55625 171.153125 78.55625 
L 171.153125 50.2 
Q 171.153125 48.2 169.153125 48.2 
L 97 48.2 
Q 95 48.2 95 50.2 
L 95 78.55625 
Q 95 80.55625 97 80.55625 
z
" style="fill:#ffffff;opacity:0.8;stroke:#cccccc;stroke-linejoin:miter;"/>
    </g>
    <g id="line2d_31">
     <path d="M 99 56.298437 
L 119 56.298437 
" style="fill:none;stroke:#1f77b4;stroke-linecap:square;stroke-width:0.5;"/>
    </g>
    <g id="line2d_32"/>
    <g id="text_18">
     <!-- train -->
     <defs>
      <path d="M 18.3125 70.21875 
L 18.3125 54.6875 
L 36.8125 54.6875 
L 36.8125 47.703125 
L 18.3125 47.703125 
L 18.3125 18.015625 
Q 18.3125 11.328125 20.140625 9.421875 
Q 21.96875 7.515625 27.59375 7.515625 
L 36.8125 7.515625 
L 36.8125 0 
L 27.59375 0 
Q 17.1875 0 13.234375 3.875 
Q 9.28125 7.765625 9.28125 18.015625 
L 9.28125 47.703125 
L 2.6875 47.703125 
L 2.6875 54.6875 
L 9.28125 54.6875 
L 9.28125 70.21875 
z
" id="DejaVuSans-116"/>
      <path d="M 9.421875 54.6875 
L 18.40625 54.6875 
L 18.40625 0 
L 9.421875 0 
z
M 9.421875 75.984375 
L 18.40625 75.984375 
L 18.40625 64.59375 
L 9.421875 64.59375 
z
" id="DejaVuSans-105"/>
      <path d="M 54.890625 33.015625 
L 54.890625 0 
L 45.90625 0 
L 45.90625 32.71875 
Q 45.90625 40.484375 42.875 44.328125 
Q 39.84375 48.1875 33.796875 48.1875 
Q 26.515625 48.1875 22.3125 43.546875 
Q 18.109375 38.921875 18.109375 30.90625 
L 18.109375 0 
L 9.078125 0 
L 9.078125 54.6875 
L 18.109375 54.6875 
L 18.109375 46.1875 
Q 21.34375 51.125 25.703125 53.5625 
Q 30.078125 56 35.796875 56 
Q 45.21875 56 50.046875 50.171875 
Q 54.890625 44.34375 54.890625 33.015625 
z
" id="DejaVuSans-110"/>
     </defs>
     <g transform="translate(127 59.798437)scale(0.1 -0.1)">
      <use xlink:href="#DejaVuSans-116"/>
      <use x="39.208984" xlink:href="#DejaVuSans-114"/>
      <use x="80.322266" xlink:href="#DejaVuSans-97"/>
      <use x="141.601562" xlink:href="#DejaVuSans-105"/>
      <use x="169.384766" xlink:href="#DejaVuSans-110"/>
     </g>
    </g>
    <g id="line2d_33">
     <path d="M 99 70.976562 
L 119 70.976562 
" style="fill:none;stroke:#ff7f0e;stroke-linecap:square;stroke-width:0.5;"/>
    </g>
    <g id="line2d_34"/>
    <g id="text_19">
     <!-- validate -->
     <defs>
      <path d="M 2.984375 54.6875 
L 12.5 54.6875 
L 29.59375 8.796875 
L 46.6875 54.6875 
L 56.203125 54.6875 
L 35.6875 0 
L 23.484375 0 
z
" id="DejaVuSans-118"/>
      <path d="M 9.421875 75.984375 
L 18.40625 75.984375 
L 18.40625 0 
L 9.421875 0 
z
" id="DejaVuSans-108"/>
      <path d="M 45.40625 46.390625 
L 45.40625 75.984375 
L 54.390625 75.984375 
L 54.390625 0 
L 45.40625 0 
L 45.40625 8.203125 
Q 42.578125 3.328125 38.25 0.953125 
Q 33.9375 -1.421875 27.875 -1.421875 
Q 17.96875 -1.421875 11.734375 6.484375 
Q 5.515625 14.40625 5.515625 27.296875 
Q 5.515625 40.1875 11.734375 48.09375 
Q 17.96875 56 27.875 56 
Q 33.9375 56 38.25 53.625 
Q 42.578125 51.265625 45.40625 46.390625 
z
M 14.796875 27.296875 
Q 14.796875 17.390625 18.875 11.75 
Q 22.953125 6.109375 30.078125 6.109375 
Q 37.203125 6.109375 41.296875 11.75 
Q 45.40625 17.390625 45.40625 27.296875 
Q 45.40625 37.203125 41.296875 42.84375 
Q 37.203125 48.484375 30.078125 48.484375 
Q 22.953125 48.484375 18.875 42.84375 
Q 14.796875 37.203125 14.796875 27.296875 
z
" id="DejaVuSans-100"/>
     </defs>
     <g transform="translate(127 74.476562)scale(0.1 -0.1)">
      <use xlink:href="#DejaVuSans-118"/>
      <use x="59.179688" xlink:href="#DejaVuSans-97"/>
      <use x="120.458984" xlink:href="#DejaVuSans-108"/>
      <use x="148.242188" xlink:href="#DejaVuSans-105"/>
      <use x="176.025391" xlink:href="#DejaVuSans-100"/>
      <use x="239.501953" xlink:href="#DejaVuSans-97"/>
      <use x="300.78125" xlink:href="#DejaVuSans-116"/>
      <use x="339.990234" xlink:href="#DejaVuSans-101"/>
     </g>
    </g>
   </g>
  </g>
 </g>
 <defs>
  <clipPath id="p3533704bc5">
   <rect height="271.8" width="558" x="90" y="43.2"/>
  </clipPath>
 </defs>
</svg>
