<?xml version="1.0" encoding="utf-8" standalone="no"?>
<!DOCTYPE svg PUBLIC "-//W3C//DTD SVG 1.1//EN"
  "http://www.w3.org/Graphics/SVG/1.1/DTD/svg11.dtd">
<!-- Created with matplotlib (https://matplotlib.org/) -->
<svg height="360pt" version="1.1" viewBox="0 0 720 360" width="720pt" xmlns="http://www.w3.org/2000/svg" xmlns:xlink="http://www.w3.org/1999/xlink">
 <defs>
  <style type="text/css">
*{stroke-linecap:butt;stroke-linejoin:round;}
  </style>
 </defs>
 <g id="figure_1">
  <g id="patch_1">
   <path d="M 0 360 
L 720 360 
L 720 0 
L 0 0 
z
" style="fill:#ffffff;"/>
  </g>
  <g id="axes_1">
   <g id="patch_2">
    <path d="M 90 315 
L 648 315 
L 648 43.2 
L 90 43.2 
z
" style="fill:#ffffff;"/>
   </g>
   <g id="matplotlib.axis_1">
    <g id="xtick_1">
     <g id="line2d_1">
      <path clip-path="url(#p0fbe4a1ab4)" d="M 115.363636 315 
L 115.363636 43.2 
" style="fill:none;stroke:#b0b0b0;stroke-linecap:square;stroke-width:0.8;"/>
     </g>
     <g id="line2d_2">
      <defs>
       <path d="M 0 0 
L 0 3.5 
" id="m646a6f0bdb" style="stroke:#000000;stroke-width:0.8;"/>
      </defs>
      <g>
       <use style="stroke:#000000;stroke-width:0.8;" x="115.363636" xlink:href="#m646a6f0bdb" y="315"/>
      </g>
     </g>
     <g id="text_1">
      <!-- 0 -->
      <defs>
       <path d="M 31.78125 66.40625 
Q 24.171875 66.40625 20.328125 58.90625 
Q 16.5 51.421875 16.5 36.375 
Q 16.5 21.390625 20.328125 13.890625 
Q 24.171875 6.390625 31.78125 6.390625 
Q 39.453125 6.390625 43.28125 13.890625 
Q 47.125 21.390625 47.125 36.375 
Q 47.125 51.421875 43.28125 58.90625 
Q 39.453125 66.40625 31.78125 66.40625 
z
M 31.78125 74.21875 
Q 44.046875 74.21875 50.515625 64.515625 
Q 56.984375 54.828125 56.984375 36.375 
Q 56.984375 17.96875 50.515625 8.265625 
Q 44.046875 -1.421875 31.78125 -1.421875 
Q 19.53125 -1.421875 13.0625 8.265625 
Q 6.59375 17.96875 6.59375 36.375 
Q 6.59375 54.828125 13.0625 64.515625 
Q 19.53125 74.21875 31.78125 74.21875 
z
" id="DejaVuSans-48"/>
      </defs>
      <g transform="translate(112.182386 329.598437)scale(0.1 -0.1)">
       <use xlink:href="#DejaVuSans-48"/>
      </g>
     </g>
    </g>
    <g id="xtick_2">
     <g id="line2d_3">
      <path clip-path="url(#p0fbe4a1ab4)" d="M 189.743802 315 
L 189.743802 43.2 
" style="fill:none;stroke:#b0b0b0;stroke-linecap:square;stroke-width:0.8;"/>
     </g>
     <g id="line2d_4">
      <g>
       <use style="stroke:#000000;stroke-width:0.8;" x="189.743802" xlink:href="#m646a6f0bdb" y="315"/>
      </g>
     </g>
     <g id="text_2">
      <!-- 100 -->
      <defs>
       <path d="M 12.40625 8.296875 
L 28.515625 8.296875 
L 28.515625 63.921875 
L 10.984375 60.40625 
L 10.984375 69.390625 
L 28.421875 72.90625 
L 38.28125 72.90625 
L 38.28125 8.296875 
L 54.390625 8.296875 
L 54.390625 0 
L 12.40625 0 
z
" id="DejaVuSans-49"/>
      </defs>
      <g transform="translate(180.200052 329.598437)scale(0.1 -0.1)">
       <use xlink:href="#DejaVuSans-49"/>
       <use x="63.623047" xlink:href="#DejaVuSans-48"/>
       <use x="127.246094" xlink:href="#DejaVuSans-48"/>
      </g>
     </g>
    </g>
    <g id="xtick_3">
     <g id="line2d_5">
      <path clip-path="url(#p0fbe4a1ab4)" d="M 264.123967 315 
L 264.123967 43.2 
" style="fill:none;stroke:#b0b0b0;stroke-linecap:square;stroke-width:0.8;"/>
     </g>
     <g id="line2d_6">
      <g>
       <use style="stroke:#000000;stroke-width:0.8;" x="264.123967" xlink:href="#m646a6f0bdb" y="315"/>
      </g>
     </g>
     <g id="text_3">
      <!-- 200 -->
      <defs>
       <path d="M 19.1875 8.296875 
L 53.609375 8.296875 
L 53.609375 0 
L 7.328125 0 
L 7.328125 8.296875 
Q 12.9375 14.109375 22.625 23.890625 
Q 32.328125 33.6875 34.8125 36.53125 
Q 39.546875 41.84375 41.421875 45.53125 
Q 43.3125 49.21875 43.3125 52.78125 
Q 43.3125 58.59375 39.234375 62.25 
Q 35.15625 65.921875 28.609375 65.921875 
Q 23.96875 65.921875 18.8125 64.3125 
Q 13.671875 62.703125 7.8125 59.421875 
L 7.8125 69.390625 
Q 13.765625 71.78125 18.9375 73 
Q 24.125 74.21875 28.421875 74.21875 
Q 39.75 74.21875 46.484375 68.546875 
Q 53.21875 62.890625 53.21875 53.421875 
Q 53.21875 48.921875 51.53125 44.890625 
Q 49.859375 40.875 45.40625 35.40625 
Q 44.1875 33.984375 37.640625 27.21875 
Q 31.109375 20.453125 19.1875 8.296875 
z
" id="DejaVuSans-50"/>
      </defs>
      <g transform="translate(254.580217 329.598437)scale(0.1 -0.1)">
       <use xlink:href="#DejaVuSans-50"/>
       <use x="63.623047" xlink:href="#DejaVuSans-48"/>
       <use x="127.246094" xlink:href="#DejaVuSans-48"/>
      </g>
     </g>
    </g>
    <g id="xtick_4">
     <g id="line2d_7">
      <path clip-path="url(#p0fbe4a1ab4)" d="M 338.504132 315 
L 338.504132 43.2 
" style="fill:none;stroke:#b0b0b0;stroke-linecap:square;stroke-width:0.8;"/>
     </g>
     <g id="line2d_8">
      <g>
       <use style="stroke:#000000;stroke-width:0.8;" x="338.504132" xlink:href="#m646a6f0bdb" y="315"/>
      </g>
     </g>
     <g id="text_4">
      <!-- 300 -->
      <defs>
       <path d="M 40.578125 39.3125 
Q 47.65625 37.796875 51.625 33 
Q 55.609375 28.21875 55.609375 21.1875 
Q 55.609375 10.40625 48.1875 4.484375 
Q 40.765625 -1.421875 27.09375 -1.421875 
Q 22.515625 -1.421875 17.65625 -0.515625 
Q 12.796875 0.390625 7.625 2.203125 
L 7.625 11.71875 
Q 11.71875 9.328125 16.59375 8.109375 
Q 21.484375 6.890625 26.8125 6.890625 
Q 36.078125 6.890625 40.9375 10.546875 
Q 45.796875 14.203125 45.796875 21.1875 
Q 45.796875 27.640625 41.28125 31.265625 
Q 36.765625 34.90625 28.71875 34.90625 
L 20.21875 34.90625 
L 20.21875 43.015625 
L 29.109375 43.015625 
Q 36.375 43.015625 40.234375 45.921875 
Q 44.09375 48.828125 44.09375 54.296875 
Q 44.09375 59.90625 40.109375 62.90625 
Q 36.140625 65.921875 28.71875 65.921875 
Q 24.65625 65.921875 20.015625 65.03125 
Q 15.375 64.15625 9.8125 62.3125 
L 9.8125 71.09375 
Q 15.4375 72.65625 20.34375 73.4375 
Q 25.25 74.21875 29.59375 74.21875 
Q 40.828125 74.21875 47.359375 69.109375 
Q 53.90625 64.015625 53.90625 55.328125 
Q 53.90625 49.265625 50.4375 45.09375 
Q 46.96875 40.921875 40.578125 39.3125 
z
" id="DejaVuSans-51"/>
      </defs>
      <g transform="translate(328.960382 329.598437)scale(0.1 -0.1)">
       <use xlink:href="#DejaVuSans-51"/>
       <use x="63.623047" xlink:href="#DejaVuSans-48"/>
       <use x="127.246094" xlink:href="#DejaVuSans-48"/>
      </g>
     </g>
    </g>
    <g id="xtick_5">
     <g id="line2d_9">
      <path clip-path="url(#p0fbe4a1ab4)" d="M 412.884298 315 
L 412.884298 43.2 
" style="fill:none;stroke:#b0b0b0;stroke-linecap:square;stroke-width:0.8;"/>
     </g>
     <g id="line2d_10">
      <g>
       <use style="stroke:#000000;stroke-width:0.8;" x="412.884298" xlink:href="#m646a6f0bdb" y="315"/>
      </g>
     </g>
     <g id="text_5">
      <!-- 400 -->
      <defs>
       <path d="M 37.796875 64.3125 
L 12.890625 25.390625 
L 37.796875 25.390625 
z
M 35.203125 72.90625 
L 47.609375 72.90625 
L 47.609375 25.390625 
L 58.015625 25.390625 
L 58.015625 17.1875 
L 47.609375 17.1875 
L 47.609375 0 
L 37.796875 0 
L 37.796875 17.1875 
L 4.890625 17.1875 
L 4.890625 26.703125 
z
" id="DejaVuSans-52"/>
      </defs>
      <g transform="translate(403.340548 329.598437)scale(0.1 -0.1)">
       <use xlink:href="#DejaVuSans-52"/>
       <use x="63.623047" xlink:href="#DejaVuSans-48"/>
       <use x="127.246094" xlink:href="#DejaVuSans-48"/>
      </g>
     </g>
    </g>
    <g id="xtick_6">
     <g id="line2d_11">
      <path clip-path="url(#p0fbe4a1ab4)" d="M 487.264463 315 
L 487.264463 43.2 
" style="fill:none;stroke:#b0b0b0;stroke-linecap:square;stroke-width:0.8;"/>
     </g>
     <g id="line2d_12">
      <g>
       <use style="stroke:#000000;stroke-width:0.8;" x="487.264463" xlink:href="#m646a6f0bdb" y="315"/>
      </g>
     </g>
     <g id="text_6">
      <!-- 500 -->
      <defs>
       <path d="M 10.796875 72.90625 
L 49.515625 72.90625 
L 49.515625 64.59375 
L 19.828125 64.59375 
L 19.828125 46.734375 
Q 21.96875 47.46875 24.109375 47.828125 
Q 26.265625 48.1875 28.421875 48.1875 
Q 40.625 48.1875 47.75 41.5 
Q 54.890625 34.8125 54.890625 23.390625 
Q 54.890625 11.625 47.5625 5.09375 
Q 40.234375 -1.421875 26.90625 -1.421875 
Q 22.3125 -1.421875 17.546875 -0.640625 
Q 12.796875 0.140625 7.71875 1.703125 
L 7.71875 11.625 
Q 12.109375 9.234375 16.796875 8.0625 
Q 21.484375 6.890625 26.703125 6.890625 
Q 35.15625 6.890625 40.078125 11.328125 
Q 45.015625 15.765625 45.015625 23.390625 
Q 45.015625 31 40.078125 35.4375 
Q 35.15625 39.890625 26.703125 39.890625 
Q 22.75 39.890625 18.8125 39.015625 
Q 14.890625 38.140625 10.796875 36.28125 
z
" id="DejaVuSans-53"/>
      </defs>
      <g transform="translate(477.720713 329.598437)scale(0.1 -0.1)">
       <use xlink:href="#DejaVuSans-53"/>
       <use x="63.623047" xlink:href="#DejaVuSans-48"/>
       <use x="127.246094" xlink:href="#DejaVuSans-48"/>
      </g>
     </g>
    </g>
    <g id="xtick_7">
     <g id="line2d_13">
      <path clip-path="url(#p0fbe4a1ab4)" d="M 561.644628 315 
L 561.644628 43.2 
" style="fill:none;stroke:#b0b0b0;stroke-linecap:square;stroke-width:0.8;"/>
     </g>
     <g id="line2d_14">
      <g>
       <use style="stroke:#000000;stroke-width:0.8;" x="561.644628" xlink:href="#m646a6f0bdb" y="315"/>
      </g>
     </g>
     <g id="text_7">
      <!-- 600 -->
      <defs>
       <path d="M 33.015625 40.375 
Q 26.375 40.375 22.484375 35.828125 
Q 18.609375 31.296875 18.609375 23.390625 
Q 18.609375 15.53125 22.484375 10.953125 
Q 26.375 6.390625 33.015625 6.390625 
Q 39.65625 6.390625 43.53125 10.953125 
Q 47.40625 15.53125 47.40625 23.390625 
Q 47.40625 31.296875 43.53125 35.828125 
Q 39.65625 40.375 33.015625 40.375 
z
M 52.59375 71.296875 
L 52.59375 62.3125 
Q 48.875 64.0625 45.09375 64.984375 
Q 41.3125 65.921875 37.59375 65.921875 
Q 27.828125 65.921875 22.671875 59.328125 
Q 17.53125 52.734375 16.796875 39.40625 
Q 19.671875 43.65625 24.015625 45.921875 
Q 28.375 48.1875 33.59375 48.1875 
Q 44.578125 48.1875 50.953125 41.515625 
Q 57.328125 34.859375 57.328125 23.390625 
Q 57.328125 12.15625 50.6875 5.359375 
Q 44.046875 -1.421875 33.015625 -1.421875 
Q 20.359375 -1.421875 13.671875 8.265625 
Q 6.984375 17.96875 6.984375 36.375 
Q 6.984375 53.65625 15.1875 63.9375 
Q 23.390625 74.21875 37.203125 74.21875 
Q 40.921875 74.21875 44.703125 73.484375 
Q 48.484375 72.75 52.59375 71.296875 
z
" id="DejaVuSans-54"/>
      </defs>
      <g transform="translate(552.100878 329.598437)scale(0.1 -0.1)">
       <use xlink:href="#DejaVuSans-54"/>
       <use x="63.623047" xlink:href="#DejaVuSans-48"/>
       <use x="127.246094" xlink:href="#DejaVuSans-48"/>
      </g>
     </g>
    </g>
    <g id="xtick_8">
     <g id="line2d_15">
      <path clip-path="url(#p0fbe4a1ab4)" d="M 636.024793 315 
L 636.024793 43.2 
" style="fill:none;stroke:#b0b0b0;stroke-linecap:square;stroke-width:0.8;"/>
     </g>
     <g id="line2d_16">
      <g>
       <use style="stroke:#000000;stroke-width:0.8;" x="636.024793" xlink:href="#m646a6f0bdb" y="315"/>
      </g>
     </g>
     <g id="text_8">
      <!-- 700 -->
      <defs>
       <path d="M 8.203125 72.90625 
L 55.078125 72.90625 
L 55.078125 68.703125 
L 28.609375 0 
L 18.3125 0 
L 43.21875 64.59375 
L 8.203125 64.59375 
z
" id="DejaVuSans-55"/>
      </defs>
      <g transform="translate(626.481043 329.598437)scale(0.1 -0.1)">
       <use xlink:href="#DejaVuSans-55"/>
       <use x="63.623047" xlink:href="#DejaVuSans-48"/>
       <use x="127.246094" xlink:href="#DejaVuSans-48"/>
      </g>
     </g>
    </g>
    <g id="text_9">
     <!-- epoch -->
     <defs>
      <path d="M 56.203125 29.59375 
L 56.203125 25.203125 
L 14.890625 25.203125 
Q 15.484375 15.921875 20.484375 11.0625 
Q 25.484375 6.203125 34.421875 6.203125 
Q 39.59375 6.203125 44.453125 7.46875 
Q 49.3125 8.734375 54.109375 11.28125 
L 54.109375 2.78125 
Q 49.265625 0.734375 44.1875 -0.34375 
Q 39.109375 -1.421875 33.890625 -1.421875 
Q 20.796875 -1.421875 13.15625 6.1875 
Q 5.515625 13.8125 5.515625 26.8125 
Q 5.515625 40.234375 12.765625 48.109375 
Q 20.015625 56 32.328125 56 
Q 43.359375 56 49.78125 48.890625 
Q 56.203125 41.796875 56.203125 29.59375 
z
M 47.21875 32.234375 
Q 47.125 39.59375 43.09375 43.984375 
Q 39.0625 48.390625 32.421875 48.390625 
Q 24.90625 48.390625 20.390625 44.140625 
Q 15.875 39.890625 15.1875 32.171875 
z
" id="DejaVuSans-101"/>
      <path d="M 18.109375 8.203125 
L 18.109375 -20.796875 
L 9.078125 -20.796875 
L 9.078125 54.6875 
L 18.109375 54.6875 
L 18.109375 46.390625 
Q 20.953125 51.265625 25.265625 53.625 
Q 29.59375 56 35.59375 56 
Q 45.5625 56 51.78125 48.09375 
Q 58.015625 40.1875 58.015625 27.296875 
Q 58.015625 14.40625 51.78125 6.484375 
Q 45.5625 -1.421875 35.59375 -1.421875 
Q 29.59375 -1.421875 25.265625 0.953125 
Q 20.953125 3.328125 18.109375 8.203125 
z
M 48.6875 27.296875 
Q 48.6875 37.203125 44.609375 42.84375 
Q 40.53125 48.484375 33.40625 48.484375 
Q 26.265625 48.484375 22.1875 42.84375 
Q 18.109375 37.203125 18.109375 27.296875 
Q 18.109375 17.390625 22.1875 11.75 
Q 26.265625 6.109375 33.40625 6.109375 
Q 40.53125 6.109375 44.609375 11.75 
Q 48.6875 17.390625 48.6875 27.296875 
z
" id="DejaVuSans-112"/>
      <path d="M 30.609375 48.390625 
Q 23.390625 48.390625 19.1875 42.75 
Q 14.984375 37.109375 14.984375 27.296875 
Q 14.984375 17.484375 19.15625 11.84375 
Q 23.34375 6.203125 30.609375 6.203125 
Q 37.796875 6.203125 41.984375 11.859375 
Q 46.1875 17.53125 46.1875 27.296875 
Q 46.1875 37.015625 41.984375 42.703125 
Q 37.796875 48.390625 30.609375 48.390625 
z
M 30.609375 56 
Q 42.328125 56 49.015625 48.375 
Q 55.71875 40.765625 55.71875 27.296875 
Q 55.71875 13.875 49.015625 6.21875 
Q 42.328125 -1.421875 30.609375 -1.421875 
Q 18.84375 -1.421875 12.171875 6.21875 
Q 5.515625 13.875 5.515625 27.296875 
Q 5.515625 40.765625 12.171875 48.375 
Q 18.84375 56 30.609375 56 
z
" id="DejaVuSans-111"/>
      <path d="M 48.78125 52.59375 
L 48.78125 44.1875 
Q 44.96875 46.296875 41.140625 47.34375 
Q 37.3125 48.390625 33.40625 48.390625 
Q 24.65625 48.390625 19.8125 42.84375 
Q 14.984375 37.3125 14.984375 27.296875 
Q 14.984375 17.28125 19.8125 11.734375 
Q 24.65625 6.203125 33.40625 6.203125 
Q 37.3125 6.203125 41.140625 7.25 
Q 44.96875 8.296875 48.78125 10.40625 
L 48.78125 2.09375 
Q 45.015625 0.34375 40.984375 -0.53125 
Q 36.96875 -1.421875 32.421875 -1.421875 
Q 20.0625 -1.421875 12.78125 6.34375 
Q 5.515625 14.109375 5.515625 27.296875 
Q 5.515625 40.671875 12.859375 48.328125 
Q 20.21875 56 33.015625 56 
Q 37.15625 56 41.109375 55.140625 
Q 45.0625 54.296875 48.78125 52.59375 
z
" id="DejaVuSans-99"/>
      <path d="M 54.890625 33.015625 
L 54.890625 0 
L 45.90625 0 
L 45.90625 32.71875 
Q 45.90625 40.484375 42.875 44.328125 
Q 39.84375 48.1875 33.796875 48.1875 
Q 26.515625 48.1875 22.3125 43.546875 
Q 18.109375 38.921875 18.109375 30.90625 
L 18.109375 0 
L 9.078125 0 
L 9.078125 75.984375 
L 18.109375 75.984375 
L 18.109375 46.1875 
Q 21.34375 51.125 25.703125 53.5625 
Q 30.078125 56 35.796875 56 
Q 45.21875 56 50.046875 50.171875 
Q 54.890625 44.34375 54.890625 33.015625 
z
" id="DejaVuSans-104"/>
     </defs>
     <g transform="translate(353.771875 343.276563)scale(0.1 -0.1)">
      <use xlink:href="#DejaVuSans-101"/>
      <use x="61.523438" xlink:href="#DejaVuSans-112"/>
      <use x="125" xlink:href="#DejaVuSans-111"/>
      <use x="186.181641" xlink:href="#DejaVuSans-99"/>
      <use x="241.162109" xlink:href="#DejaVuSans-104"/>
     </g>
    </g>
   </g>
   <g id="matplotlib.axis_2">
    <g id="ytick_1">
     <g id="line2d_17">
      <path clip-path="url(#p0fbe4a1ab4)" d="M 90 291.500139 
L 648 291.500139 
" style="fill:none;stroke:#b0b0b0;stroke-linecap:square;stroke-width:0.8;"/>
     </g>
     <g id="line2d_18">
      <defs>
       <path d="M 0 0 
L -3.5 0 
" id="m1a2b6d6604" style="stroke:#000000;stroke-width:0.8;"/>
      </defs>
      <g>
       <use style="stroke:#000000;stroke-width:0.8;" x="90" xlink:href="#m1a2b6d6604" y="291.500139"/>
      </g>
     </g>
     <g id="text_10">
      <!-- 0.4 -->
      <defs>
       <path d="M 10.6875 12.40625 
L 21 12.40625 
L 21 0 
L 10.6875 0 
z
" id="DejaVuSans-46"/>
      </defs>
      <g transform="translate(67.096875 295.299358)scale(0.1 -0.1)">
       <use xlink:href="#DejaVuSans-48"/>
       <use x="63.623047" xlink:href="#DejaVuSans-46"/>
       <use x="95.410156" xlink:href="#DejaVuSans-52"/>
      </g>
     </g>
    </g>
    <g id="ytick_2">
     <g id="line2d_19">
      <path clip-path="url(#p0fbe4a1ab4)" d="M 90 253.123652 
L 648 253.123652 
" style="fill:none;stroke:#b0b0b0;stroke-linecap:square;stroke-width:0.8;"/>
     </g>
     <g id="line2d_20">
      <g>
       <use style="stroke:#000000;stroke-width:0.8;" x="90" xlink:href="#m1a2b6d6604" y="253.123652"/>
      </g>
     </g>
     <g id="text_11">
      <!-- 0.6 -->
      <g transform="translate(67.096875 256.922871)scale(0.1 -0.1)">
       <use xlink:href="#DejaVuSans-48"/>
       <use x="63.623047" xlink:href="#DejaVuSans-46"/>
       <use x="95.410156" xlink:href="#DejaVuSans-54"/>
      </g>
     </g>
    </g>
    <g id="ytick_3">
     <g id="line2d_21">
      <path clip-path="url(#p0fbe4a1ab4)" d="M 90 214.747165 
L 648 214.747165 
" style="fill:none;stroke:#b0b0b0;stroke-linecap:square;stroke-width:0.8;"/>
     </g>
     <g id="line2d_22">
      <g>
       <use style="stroke:#000000;stroke-width:0.8;" x="90" xlink:href="#m1a2b6d6604" y="214.747165"/>
      </g>
     </g>
     <g id="text_12">
      <!-- 0.8 -->
      <defs>
       <path d="M 31.78125 34.625 
Q 24.75 34.625 20.71875 30.859375 
Q 16.703125 27.09375 16.703125 20.515625 
Q 16.703125 13.921875 20.71875 10.15625 
Q 24.75 6.390625 31.78125 6.390625 
Q 38.8125 6.390625 42.859375 10.171875 
Q 46.921875 13.96875 46.921875 20.515625 
Q 46.921875 27.09375 42.890625 30.859375 
Q 38.875 34.625 31.78125 34.625 
z
M 21.921875 38.8125 
Q 15.578125 40.375 12.03125 44.71875 
Q 8.5 49.078125 8.5 55.328125 
Q 8.5 64.0625 14.71875 69.140625 
Q 20.953125 74.21875 31.78125 74.21875 
Q 42.671875 74.21875 48.875 69.140625 
Q 55.078125 64.0625 55.078125 55.328125 
Q 55.078125 49.078125 51.53125 44.71875 
Q 48 40.375 41.703125 38.8125 
Q 48.828125 37.15625 52.796875 32.3125 
Q 56.78125 27.484375 56.78125 20.515625 
Q 56.78125 9.90625 50.3125 4.234375 
Q 43.84375 -1.421875 31.78125 -1.421875 
Q 19.734375 -1.421875 13.25 4.234375 
Q 6.78125 9.90625 6.78125 20.515625 
Q 6.78125 27.484375 10.78125 32.3125 
Q 14.796875 37.15625 21.921875 38.8125 
z
M 18.3125 54.390625 
Q 18.3125 48.734375 21.84375 45.5625 
Q 25.390625 42.390625 31.78125 42.390625 
Q 38.140625 42.390625 41.71875 45.5625 
Q 45.3125 48.734375 45.3125 54.390625 
Q 45.3125 60.0625 41.71875 63.234375 
Q 38.140625 66.40625 31.78125 66.40625 
Q 25.390625 66.40625 21.84375 63.234375 
Q 18.3125 60.0625 18.3125 54.390625 
z
" id="DejaVuSans-56"/>
      </defs>
      <g transform="translate(67.096875 218.546383)scale(0.1 -0.1)">
       <use xlink:href="#DejaVuSans-48"/>
       <use x="63.623047" xlink:href="#DejaVuSans-46"/>
       <use x="95.410156" xlink:href="#DejaVuSans-56"/>
      </g>
     </g>
    </g>
    <g id="ytick_4">
     <g id="line2d_23">
      <path clip-path="url(#p0fbe4a1ab4)" d="M 90 176.370677 
L 648 176.370677 
" style="fill:none;stroke:#b0b0b0;stroke-linecap:square;stroke-width:0.8;"/>
     </g>
     <g id="line2d_24">
      <g>
       <use style="stroke:#000000;stroke-width:0.8;" x="90" xlink:href="#m1a2b6d6604" y="176.370677"/>
      </g>
     </g>
     <g id="text_13">
      <!-- 1.0 -->
      <g transform="translate(67.096875 180.169896)scale(0.1 -0.1)">
       <use xlink:href="#DejaVuSans-49"/>
       <use x="63.623047" xlink:href="#DejaVuSans-46"/>
       <use x="95.410156" xlink:href="#DejaVuSans-48"/>
      </g>
     </g>
    </g>
    <g id="ytick_5">
     <g id="line2d_25">
      <path clip-path="url(#p0fbe4a1ab4)" d="M 90 137.99419 
L 648 137.99419 
" style="fill:none;stroke:#b0b0b0;stroke-linecap:square;stroke-width:0.8;"/>
     </g>
     <g id="line2d_26">
      <g>
       <use style="stroke:#000000;stroke-width:0.8;" x="90" xlink:href="#m1a2b6d6604" y="137.99419"/>
      </g>
     </g>
     <g id="text_14">
      <!-- 1.2 -->
      <g transform="translate(67.096875 141.793409)scale(0.1 -0.1)">
       <use xlink:href="#DejaVuSans-49"/>
       <use x="63.623047" xlink:href="#DejaVuSans-46"/>
       <use x="95.410156" xlink:href="#DejaVuSans-50"/>
      </g>
     </g>
    </g>
    <g id="ytick_6">
     <g id="line2d_27">
      <path clip-path="url(#p0fbe4a1ab4)" d="M 90 99.617702 
L 648 99.617702 
" style="fill:none;stroke:#b0b0b0;stroke-linecap:square;stroke-width:0.8;"/>
     </g>
     <g id="line2d_28">
      <g>
       <use style="stroke:#000000;stroke-width:0.8;" x="90" xlink:href="#m1a2b6d6604" y="99.617702"/>
      </g>
     </g>
     <g id="text_15">
      <!-- 1.4 -->
      <g transform="translate(67.096875 103.416921)scale(0.1 -0.1)">
       <use xlink:href="#DejaVuSans-49"/>
       <use x="63.623047" xlink:href="#DejaVuSans-46"/>
       <use x="95.410156" xlink:href="#DejaVuSans-52"/>
      </g>
     </g>
    </g>
    <g id="ytick_7">
     <g id="line2d_29">
      <path clip-path="url(#p0fbe4a1ab4)" d="M 90 61.241215 
L 648 61.241215 
" style="fill:none;stroke:#b0b0b0;stroke-linecap:square;stroke-width:0.8;"/>
     </g>
     <g id="line2d_30">
      <g>
       <use style="stroke:#000000;stroke-width:0.8;" x="90" xlink:href="#m1a2b6d6604" y="61.241215"/>
      </g>
     </g>
     <g id="text_16">
      <!-- 1.6 -->
      <g transform="translate(67.096875 65.040434)scale(0.1 -0.1)">
       <use xlink:href="#DejaVuSans-49"/>
       <use x="63.623047" xlink:href="#DejaVuSans-46"/>
       <use x="95.410156" xlink:href="#DejaVuSans-54"/>
      </g>
     </g>
    </g>
    <g id="text_17">
     <!-- loss -->
     <defs>
      <path d="M 9.421875 75.984375 
L 18.40625 75.984375 
L 18.40625 0 
L 9.421875 0 
z
" id="DejaVuSans-108"/>
      <path d="M 44.28125 53.078125 
L 44.28125 44.578125 
Q 40.484375 46.53125 36.375 47.5 
Q 32.28125 48.484375 27.875 48.484375 
Q 21.1875 48.484375 17.84375 46.4375 
Q 14.5 44.390625 14.5 40.28125 
Q 14.5 37.15625 16.890625 35.375 
Q 19.28125 33.59375 26.515625 31.984375 
L 29.59375 31.296875 
Q 39.15625 29.25 43.1875 25.515625 
Q 47.21875 21.78125 47.21875 15.09375 
Q 47.21875 7.46875 41.1875 3.015625 
Q 35.15625 -1.421875 24.609375 -1.421875 
Q 20.21875 -1.421875 15.453125 -0.5625 
Q 10.6875 0.296875 5.421875 2 
L 5.421875 11.28125 
Q 10.40625 8.6875 15.234375 7.390625 
Q 20.0625 6.109375 24.8125 6.109375 
Q 31.15625 6.109375 34.5625 8.28125 
Q 37.984375 10.453125 37.984375 14.40625 
Q 37.984375 18.0625 35.515625 20.015625 
Q 33.0625 21.96875 24.703125 23.78125 
L 21.578125 24.515625 
Q 13.234375 26.265625 9.515625 29.90625 
Q 5.8125 33.546875 5.8125 39.890625 
Q 5.8125 47.609375 11.28125 51.796875 
Q 16.75 56 26.8125 56 
Q 31.78125 56 36.171875 55.265625 
Q 40.578125 54.546875 44.28125 53.078125 
z
" id="DejaVuSans-115"/>
     </defs>
     <g transform="translate(61.017187 188.757812)rotate(-90)scale(0.1 -0.1)">
      <use xlink:href="#DejaVuSans-108"/>
      <use x="27.783203" xlink:href="#DejaVuSans-111"/>
      <use x="88.964844" xlink:href="#DejaVuSans-115"/>
      <use x="141.064453" xlink:href="#DejaVuSans-115"/>
     </g>
    </g>
   </g>
   <g id="line2d_31">
    <path clip-path="url(#p0fbe4a1ab4)" d="M 115.363636 55.554545 
L 116.107438 66.149272 
L 116.85124 71.231452 
L 117.595041 74.452175 
L 118.338843 81.386396 
L 119.082645 82.571553 
L 119.826446 86.143064 
L 120.570248 87.026748 
L 121.31405 85.9658 
L 122.057851 88.971636 
L 122.801653 88.154749 
L 124.289256 91.304557 
L 125.033058 91.830814 
L 125.77686 89.956304 
L 126.520661 94.66501 
L 127.264463 94.348194 
L 128.008264 97.021458 
L 128.752066 94.67421 
L 130.239669 98.883975 
L 130.983471 96.122418 
L 131.727273 97.099115 
L 132.471074 101.080881 
L 133.214876 102.110453 
L 134.702479 99.833112 
L 136.190083 105.682973 
L 136.933884 105.618111 
L 137.677686 106.862154 
L 138.421488 109.898396 
L 139.909091 113.458512 
L 140.652893 113.311117 
L 141.396694 116.386183 
L 142.140496 121.272194 
L 142.884298 122.908218 
L 144.371901 128.559313 
L 145.115702 133.204877 
L 146.603306 140.354929 
L 147.347107 142.555519 
L 148.090909 145.372688 
L 148.834711 151.042135 
L 149.578512 152.62825 
L 150.322314 154.897588 
L 151.066116 160.308215 
L 151.809917 164.612546 
L 152.553719 164.501866 
L 153.297521 171.868581 
L 154.041322 172.7035 
L 154.785124 173.922519 
L 155.528926 177.965981 
L 157.016529 181.593994 
L 157.760331 184.941189 
L 158.504132 186.694842 
L 159.247934 190.115607 
L 159.991736 190.553546 
L 160.735537 193.469881 
L 161.479339 194.666853 
L 162.22314 194.868723 
L 162.966942 196.372912 
L 163.710744 198.45854 
L 164.454545 200.128824 
L 165.198347 200.879588 
L 165.942149 203.315724 
L 166.68595 202.813945 
L 167.429752 207.348111 
L 168.173554 205.262596 
L 169.661157 209.252918 
L 170.404959 208.695241 
L 171.14876 209.872922 
L 171.892562 213.433148 
L 172.636364 211.219866 
L 173.380165 215.218976 
L 174.123967 217.405458 
L 174.867769 217.18129 
L 175.61157 218.905084 
L 176.355372 214.80036 
L 177.099174 220.910532 
L 177.842975 223.269699 
L 178.586777 218.429681 
L 179.330579 221.405676 
L 180.07438 219.277239 
L 180.818182 222.122838 
L 181.561983 222.53174 
L 182.305785 222.731747 
L 183.049587 223.382934 
L 183.793388 227.004176 
L 184.53719 223.037037 
L 185.280992 226.942155 
L 186.024793 228.019366 
L 187.512397 225.727119 
L 188.256198 228.853414 
L 189 230.211824 
L 189.743802 229.196281 
L 190.487603 232.04052 
L 191.231405 229.330355 
L 191.975207 231.872268 
L 192.719008 231.34269 
L 193.46281 230.423576 
L 194.206612 233.144903 
L 194.950413 232.941136 
L 195.694215 233.363837 
L 196.438017 235.791798 
L 197.181818 233.832445 
L 197.92562 233.955453 
L 198.669421 235.440231 
L 199.413223 238.153641 
L 200.157025 236.196914 
L 200.900826 236.037812 
L 202.38843 238.244828 
L 203.132231 237.248958 
L 203.876033 239.38705 
L 204.619835 237.080833 
L 205.363636 240.055344 
L 206.107438 240.791369 
L 206.85124 241.276314 
L 207.595041 239.84621 
L 208.338843 240.938557 
L 209.082645 241.713819 
L 209.826446 241.383055 
L 210.570248 241.447198 
L 211.31405 241.81628 
L 212.057851 243.155395 
L 212.801653 244.025413 
L 213.545455 244.095721 
L 214.289256 243.03603 
L 215.033058 243.792043 
L 215.77686 245.252202 
L 216.520661 242.662894 
L 217.264463 245.450499 
L 218.008264 245.76494 
L 218.752066 243.292837 
L 219.495868 247.894634 
L 220.239669 243.074707 
L 220.983471 245.909417 
L 221.727273 244.446804 
L 222.471074 251.473543 
L 223.214876 249.198792 
L 223.958678 244.634777 
L 224.702479 249.353631 
L 225.446281 250.041967 
L 226.190083 251.377331 
L 226.933884 250.853497 
L 227.677686 248.172586 
L 228.421488 248.794747 
L 229.165289 248.55143 
L 229.909091 249.152533 
L 230.652893 248.033874 
L 232.140496 251.808042 
L 232.884298 251.740758 
L 233.628099 250.828484 
L 234.371901 250.319553 
L 235.115702 252.122756 
L 235.859504 250.971016 
L 236.603306 251.87849 
L 237.347107 251.725232 
L 238.090909 253.605822 
L 238.834711 255.17031 
L 239.578512 252.262666 
L 240.322314 255.623025 
L 241.066116 253.117729 
L 241.809917 253.746098 
L 242.553719 254.02127 
L 243.297521 253.324445 
L 244.041322 255.869163 
L 244.785124 254.258213 
L 246.272727 257.240871 
L 247.016529 253.359161 
L 247.760331 256.413104 
L 248.504132 256.052864 
L 249.247934 254.907386 
L 249.991736 256.60658 
L 250.735537 257.602393 
L 251.479339 255.927807 
L 252.22314 256.344536 
L 252.966942 259.659613 
L 253.710744 256.485015 
L 254.454545 255.376709 
L 255.198347 257.30199 
L 255.942149 261.322773 
L 256.68595 255.030042 
L 257.429752 257.95658 
L 258.173554 256.44468 
L 258.917355 256.406095 
L 259.661157 259.452386 
L 260.404959 261.667261 
L 261.14876 257.740628 
L 261.892562 257.9554 
L 262.636364 259.672437 
L 263.380165 260.328876 
L 264.123967 259.669336 
L 264.867769 258.805324 
L 265.61157 261.71958 
L 266.355372 259.475186 
L 267.099174 262.232782 
L 267.842975 262.602336 
L 268.586777 262.016518 
L 269.330579 261.087551 
L 270.07438 260.673733 
L 270.818182 263.157472 
L 271.561983 260.224039 
L 272.305785 263.211337 
L 273.049587 262.65893 
L 273.793388 263.751695 
L 274.53719 262.724777 
L 275.280992 263.662906 
L 276.024793 259.542155 
L 276.768595 262.29016 
L 277.512397 260.834495 
L 278.256198 265.928785 
L 279 266.732832 
L 279.743802 264.034218 
L 280.487603 266.699144 
L 281.231405 266.2652 
L 281.975207 264.922016 
L 282.719008 264.211208 
L 283.46281 265.50136 
L 284.950413 264.473402 
L 285.694215 265.521516 
L 286.438017 266.159548 
L 287.181818 267.963392 
L 287.92562 267.559774 
L 288.669421 266.822205 
L 290.157025 266.36376 
L 290.900826 268.826191 
L 291.644628 266.147579 
L 292.38843 267.695418 
L 293.132231 265.256835 
L 293.876033 268.275176 
L 294.619835 266.809188 
L 295.363636 269.626633 
L 296.107438 265.771393 
L 296.85124 265.856885 
L 297.595041 269.296631 
L 298.338843 264.075536 
L 299.082645 267.952716 
L 299.826446 267.477457 
L 300.570248 268.263731 
L 301.31405 269.875566 
L 302.057851 268.362891 
L 302.801653 271.424264 
L 303.545455 269.899338 
L 304.289256 267.808833 
L 305.033058 267.362005 
L 305.77686 268.749894 
L 306.520661 268.637999 
L 307.264463 269.248846 
L 308.008264 270.59375 
L 308.752066 268.118228 
L 309.495868 271.279327 
L 310.983471 270.020446 
L 311.727273 270.201562 
L 312.471074 270.552581 
L 313.214876 271.52123 
L 313.958678 271.626016 
L 314.702479 272.302419 
L 315.446281 271.882807 
L 316.190083 271.018872 
L 316.933884 269.028669 
L 317.677686 269.906115 
L 318.421488 270.992008 
L 319.165289 272.83675 
L 319.909091 272.870314 
L 320.652893 273.846581 
L 321.396694 269.847489 
L 322.140496 271.1606 
L 322.884298 274.844529 
L 323.628099 271.100657 
L 324.371901 271.870501 
L 325.115702 269.487957 
L 325.859504 273.40031 
L 326.603306 271.356522 
L 327.347107 271.732527 
L 328.090909 272.331591 
L 328.834711 271.71386 
L 329.578512 271.503333 
L 330.322314 272.410709 
L 331.066116 272.22393 
L 331.809917 272.747345 
L 332.553719 272.113678 
L 333.297521 276.23766 
L 334.041322 273.285568 
L 334.785124 272.089105 
L 335.528926 276.162901 
L 336.272727 275.601132 
L 337.016529 274.154589 
L 337.760331 272.375971 
L 338.504132 276.668932 
L 339.247934 276.01338 
L 339.991736 276.979264 
L 340.735537 277.142076 
L 341.479339 273.156539 
L 342.22314 276.952516 
L 342.966942 277.094711 
L 343.710744 273.220217 
L 344.454545 276.923635 
L 345.198347 279.001855 
L 345.942149 275.839234 
L 346.68595 275.052436 
L 347.429752 276.373734 
L 348.173554 274.875439 
L 348.917355 277.538617 
L 349.661157 275.840391 
L 350.404959 277.897774 
L 351.14876 277.185317 
L 351.892562 277.463322 
L 352.636364 275.740561 
L 353.380165 279.315847 
L 354.123967 276.412682 
L 354.867769 276.849096 
L 355.61157 275.685787 
L 357.099174 279.062741 
L 357.842975 279.729227 
L 358.586777 275.425151 
L 359.330579 279.256253 
L 360.07438 280.172362 
L 360.818182 276.526019 
L 361.561983 277.466857 
L 362.305785 280.183363 
L 363.049587 281.618943 
L 363.793388 278.321013 
L 364.53719 278.27561 
L 365.280992 279.800398 
L 366.024793 277.518958 
L 366.768595 279.114212 
L 367.512397 278.511211 
L 368.256198 276.717697 
L 369 277.533453 
L 369.743802 279.737731 
L 370.487603 278.886505 
L 371.231405 281.273469 
L 371.975207 279.672842 
L 372.719008 278.427029 
L 373.46281 279.98582 
L 374.206612 282.258172 
L 374.950413 284.905733 
L 375.694215 280.41691 
L 376.438017 280.104469 
L 377.92562 277.69915 
L 378.669421 282.664189 
L 379.413223 283.060348 
L 380.157025 280.465013 
L 380.900826 280.755553 
L 381.644628 280.554217 
L 382.38843 280.485889 
L 383.132231 283.205811 
L 383.876033 282.305383 
L 384.619835 284.610034 
L 385.363636 280.778887 
L 386.107438 278.462225 
L 386.85124 281.842662 
L 387.595041 281.134869 
L 388.338843 280.98959 
L 389.082645 278.64166 
L 389.826446 283.426589 
L 390.570248 278.980765 
L 391.31405 283.887673 
L 392.057851 281.430726 
L 392.801653 281.787633 
L 393.545455 280.336188 
L 394.289256 282.988831 
L 395.033058 283.2391 
L 395.77686 279.754019 
L 396.520661 284.028615 
L 397.264463 283.592881 
L 398.008264 284.075652 
L 398.752066 284.039659 
L 399.495868 281.410581 
L 400.239669 285.36217 
L 400.983471 284.643283 
L 401.727273 284.157713 
L 402.471074 284.459865 
L 403.214876 285.247928 
L 403.958678 282.813903 
L 404.702479 283.091921 
L 405.446281 284.177183 
L 406.190083 281.241782 
L 406.933884 282.394158 
L 407.677686 284.697451 
L 409.165289 287.70789 
L 409.909091 281.884931 
L 410.652893 284.428041 
L 411.396694 285.511648 
L 412.140496 285.639293 
L 412.884298 284.209386 
L 413.628099 285.103197 
L 414.371901 283.26473 
L 415.115702 282.733248 
L 415.859504 285.726159 
L 416.603306 282.033826 
L 417.347107 282.908817 
L 418.090909 286.09787 
L 418.834711 283.329282 
L 419.578512 287.742373 
L 420.322314 285.57895 
L 421.066116 285.647938 
L 421.809917 283.437048 
L 422.553719 285.07699 
L 423.297521 285.131652 
L 424.041322 285.429659 
L 424.785124 284.28323 
L 425.528926 286.441503 
L 426.272727 284.624629 
L 427.016529 286.625261 
L 427.760331 287.336713 
L 428.504132 287.740607 
L 429.247934 284.784617 
L 429.991736 285.320649 
L 430.735537 285.189511 
L 431.479339 286.527123 
L 432.22314 286.043569 
L 432.966942 288.311415 
L 433.710744 288.059232 
L 434.454545 286.910614 
L 435.198347 286.400708 
L 435.942149 286.829923 
L 436.68595 287.016175 
L 437.429752 283.466955 
L 438.173554 288.604874 
L 438.917355 286.999447 
L 439.661157 287.798869 
L 440.404959 287.691329 
L 441.892562 283.399619 
L 443.380165 288.614043 
L 444.123967 290.05565 
L 444.867769 289.558566 
L 445.61157 289.437566 
L 447.099174 287.026911 
L 447.842975 287.87583 
L 448.586777 290.916879 
L 449.330579 288.563819 
L 450.07438 288.653529 
L 450.818182 287.990401 
L 451.561983 290.687346 
L 452.305785 288.00784 
L 453.049587 289.052295 
L 454.53719 287.159954 
L 455.280992 288.463034 
L 456.024793 287.4986 
L 456.768595 288.912277 
L 457.512397 287.185881 
L 458.256198 287.493988 
L 459 290.184338 
L 459.743802 288.208445 
L 461.231405 289.127734 
L 461.975207 289.572103 
L 462.719008 287.368298 
L 463.46281 287.590555 
L 464.206612 289.112592 
L 464.950413 289.162797 
L 465.694215 291.240715 
L 466.438017 289.450751 
L 467.181818 289.908612 
L 467.92562 292.349834 
L 468.669421 289.203252 
L 469.413223 290.111889 
L 470.157025 290.513159 
L 470.900826 291.532002 
L 471.644628 292.128333 
L 472.38843 289.361093 
L 473.132231 289.82871 
L 473.876033 292.681613 
L 474.619835 290.183719 
L 475.363636 289.928697 
L 476.107438 291.070542 
L 476.85124 292.84056 
L 477.595041 292.466353 
L 478.338843 290.812533 
L 479.082645 290.730728 
L 480.570248 291.770209 
L 481.31405 294.228861 
L 482.057851 291.051423 
L 482.801653 291.907868 
L 483.545455 290.113992 
L 484.289256 287.648159 
L 485.033058 291.841571 
L 485.77686 291.583153 
L 486.520661 290.366066 
L 487.264463 292.765364 
L 488.008264 292.684288 
L 488.752066 290.88582 
L 489.495868 290.3512 
L 490.239669 292.310338 
L 490.983471 293.30937 
L 491.727273 290.673199 
L 492.471074 293.969163 
L 493.214876 289.5166 
L 493.958678 291.190617 
L 494.702479 293.259888 
L 495.446281 290.476831 
L 496.190083 290.179197 
L 496.933884 293.50812 
L 497.677686 291.319035 
L 498.421488 291.327571 
L 499.165289 292.471514 
L 499.909091 292.034963 
L 500.652893 293.530317 
L 501.396694 292.733276 
L 502.140496 294.209208 
L 502.884298 290.372098 
L 503.628099 293.549642 
L 504.371901 292.571624 
L 505.115702 290.705334 
L 505.859504 292.550592 
L 506.603306 291.086167 
L 507.347107 293.41413 
L 508.090909 292.716293 
L 508.834711 294.013642 
L 509.578512 291.714125 
L 510.322314 291.575688 
L 511.066116 294.706493 
L 511.809917 296.071538 
L 512.553719 294.099114 
L 513.297521 293.521993 
L 514.041322 292.119272 
L 514.785124 296.282105 
L 515.528926 297.598175 
L 516.272727 294.595906 
L 517.016529 294.328093 
L 517.760331 294.422159 
L 518.504132 292.335529 
L 519.247934 295.125703 
L 519.991736 295.38718 
L 520.735537 297.138082 
L 521.479339 294.065362 
L 522.22314 294.293669 
L 522.966942 293.032105 
L 523.710744 294.646134 
L 524.454545 293.539194 
L 525.198347 293.414671 
L 525.942149 294.990433 
L 526.68595 291.974572 
L 527.429752 293.608202 
L 528.173554 294.736688 
L 528.917355 293.112503 
L 529.661157 295.11935 
L 530.404959 295.556053 
L 531.14876 296.489888 
L 531.892562 294.313646 
L 532.636364 294.9001 
L 533.380165 296.744054 
L 534.123967 297.87895 
L 534.867769 295.596877 
L 535.61157 294.635918 
L 536.355372 294.415343 
L 537.099174 294.365064 
L 537.842975 296.995778 
L 538.586777 294.767965 
L 539.330579 297.468616 
L 540.07438 293.759162 
L 540.818182 295.4989 
L 541.561983 293.426918 
L 542.305785 298.940271 
L 543.049587 295.380082 
L 543.793388 294.747316 
L 544.53719 298.528301 
L 545.280992 294.57522 
L 546.024793 296.168216 
L 546.768595 295.741954 
L 547.512397 293.014202 
L 548.256198 295.988254 
L 549 298.146032 
L 549.743802 293.703646 
L 550.487603 296.059826 
L 551.231405 293.947181 
L 551.975207 296.772315 
L 552.719008 297.116968 
L 553.46281 294.685554 
L 554.206612 295.611412 
L 554.950413 295.562504 
L 555.694215 297.739444 
L 557.181818 298.545978 
L 557.92562 297.984511 
L 558.669421 298.271846 
L 559.413223 296.024276 
L 560.157025 298.234646 
L 560.900826 297.72605 
L 561.644628 297.878134 
L 562.38843 297.44479 
L 563.132231 298.190963 
L 563.876033 301.448295 
L 564.619835 297.926678 
L 565.363636 296.504419 
L 566.107438 295.664409 
L 566.85124 299.046014 
L 567.595041 298.322673 
L 568.338843 297.326077 
L 569.082645 297.227715 
L 569.826446 299.965486 
L 570.570248 296.426447 
L 571.31405 296.221175 
L 572.057851 298.089984 
L 573.545455 295.622215 
L 574.289256 300.355293 
L 575.033058 298.469905 
L 575.77686 295.9089 
L 576.520661 298.032916 
L 577.264463 298.922993 
L 578.008264 297.953851 
L 578.752066 298.920326 
L 579.495868 297.596677 
L 580.239669 297.484656 
L 580.983471 298.763864 
L 581.727273 295.418156 
L 582.471074 293.827934 
L 583.214876 298.6923 
L 583.958678 299.033813 
L 584.702479 296.421273 
L 585.446281 298.559608 
L 586.190083 298.162928 
L 586.933884 296.058528 
L 587.677686 298.698091 
L 588.421488 299.096184 
L 589.165289 297.329666 
L 589.909091 298.481499 
L 590.652893 296.432361 
L 591.396694 299.982439 
L 592.140496 300.888781 
L 592.884298 298.459818 
L 593.628099 297.226478 
L 594.371901 297.165754 
L 595.115702 299.703155 
L 595.859504 297.870404 
L 596.603306 300.582476 
L 597.347107 298.828182 
L 598.090909 300.508721 
L 598.834711 299.309662 
L 599.578512 296.464142 
L 600.322314 299.023666 
L 601.066116 300.02313 
L 601.809917 297.819217 
L 602.553719 298.436881 
L 603.297521 299.657445 
L 604.041322 300.312686 
L 604.785124 302.008446 
L 605.528926 301.261166 
L 606.272727 299.450962 
L 607.016529 300.641389 
L 607.760331 298.235324 
L 608.504132 301.536506 
L 609.247934 300.98507 
L 609.991736 297.345953 
L 611.479339 302.645455 
L 612.22314 302.266946 
L 612.966942 299.028322 
L 613.710744 301.250308 
L 614.454545 299.189477 
L 615.198347 298.483735 
L 615.942149 296.968096 
L 616.68595 301.996959 
L 617.429752 300.022991 
L 618.173554 298.369938 
L 618.917355 299.080288 
L 620.404959 301.014653 
L 621.14876 299.374259 
L 621.892562 298.253234 
L 622.636364 301.291931 
L 622.636364 301.291931 
" style="fill:none;stroke:#1f77b4;stroke-linecap:square;stroke-width:0.5;"/>
   </g>
   <g id="line2d_32">
    <path clip-path="url(#p0fbe4a1ab4)" d="M 115.363636 63.757846 
L 116.107438 68.630126 
L 116.85124 76.104734 
L 117.595041 78.194059 
L 118.338843 81.301273 
L 119.082645 82.935213 
L 119.826446 85.654057 
L 120.570248 86.885695 
L 121.31405 85.646198 
L 122.057851 88.109159 
L 122.801653 86.794179 
L 123.545455 89.102634 
L 125.77686 92.706307 
L 126.520661 92.842771 
L 127.264463 92.7955 
L 128.008264 93.905595 
L 128.752066 93.861749 
L 129.495868 94.416642 
L 130.239669 95.43755 
L 130.983471 98.634663 
L 132.471074 98.570613 
L 133.214876 97.952271 
L 133.958678 102.977645 
L 134.702479 98.912957 
L 135.446281 99.732959 
L 136.190083 103.996422 
L 136.933884 103.789748 
L 137.677686 106.368593 
L 138.421488 106.761753 
L 139.165289 112.139432 
L 139.909091 111.075819 
L 140.652893 113.383085 
L 141.396694 116.938559 
L 142.140496 118.042572 
L 142.884298 122.844418 
L 143.628099 125.141113 
L 144.371901 128.313883 
L 145.115702 129.987103 
L 145.859504 133.082623 
L 146.603306 138.739331 
L 147.347107 139.484829 
L 148.090909 145.691756 
L 148.834711 150.111122 
L 149.578512 151.852343 
L 150.322314 159.116151 
L 151.066116 159.115434 
L 151.809917 161.314499 
L 152.553719 164.448797 
L 153.297521 168.489863 
L 154.041322 170.998492 
L 154.785124 172.4109 
L 155.528926 174.716514 
L 156.272727 178.23903 
L 157.016529 177.739133 
L 158.504132 184.141365 
L 159.247934 183.966311 
L 159.991736 188.917178 
L 160.735537 190.099789 
L 161.479339 193.464247 
L 162.22314 192.401622 
L 162.966942 192.835179 
L 163.710744 196.38079 
L 164.454545 197.325089 
L 165.198347 194.746582 
L 165.942149 198.964984 
L 166.68595 200.75169 
L 167.429752 204.820806 
L 168.173554 202.591969 
L 168.917355 205.335449 
L 169.661157 204.467259 
L 170.404959 205.697965 
L 171.14876 208.046292 
L 171.892562 206.692171 
L 172.636364 207.526746 
L 174.123967 212.359926 
L 174.867769 212.433309 
L 175.61157 212.739953 
L 176.355372 214.214105 
L 177.099174 213.483743 
L 177.842975 214.743525 
L 178.586777 214.939671 
L 179.330579 214.842903 
L 180.07438 216.208258 
L 180.818182 214.794804 
L 181.561983 217.185717 
L 182.305785 217.412947 
L 183.049587 218.27101 
L 183.793388 221.407553 
L 184.53719 217.829113 
L 185.280992 222.383089 
L 186.024793 218.822539 
L 186.768595 221.547712 
L 187.512397 220.178248 
L 188.256198 223.14562 
L 189 221.179826 
L 189.743802 224.048259 
L 190.487603 224.404727 
L 191.231405 225.113236 
L 191.975207 226.45555 
L 192.719008 225.921411 
L 193.46281 224.476155 
L 194.206612 226.677543 
L 195.694215 228.72325 
L 196.438017 228.020097 
L 197.181818 231.06492 
L 197.92562 227.477094 
L 198.669421 229.933135 
L 199.413223 228.826724 
L 200.157025 229.532165 
L 200.900826 230.752222 
L 201.644628 229.872818 
L 202.38843 229.490328 
L 203.132231 230.313347 
L 203.876033 231.906667 
L 204.619835 231.123837 
L 205.363636 232.402478 
L 206.107438 234.01912 
L 206.85124 232.946362 
L 207.595041 232.558078 
L 208.338843 233.258133 
L 209.082645 233.675815 
L 209.826446 233.60683 
L 210.570248 231.093851 
L 211.31405 233.97857 
L 212.057851 234.014887 
L 212.801653 234.204123 
L 213.545455 233.769636 
L 214.289256 234.891851 
L 215.033058 233.761139 
L 216.520661 234.707006 
L 217.264463 237.957297 
L 218.008264 238.090204 
L 218.752066 239.393206 
L 219.495868 238.699734 
L 220.239669 240.43469 
L 220.983471 238.531378 
L 221.727273 239.591076 
L 222.471074 237.896826 
L 223.214876 237.301612 
L 223.958678 240.355424 
L 224.702479 237.295044 
L 225.446281 239.528716 
L 226.190083 239.519746 
L 226.933884 240.812404 
L 227.677686 241.17952 
L 228.421488 237.679235 
L 229.165289 237.647505 
L 230.652893 240.694136 
L 231.396694 240.082464 
L 232.140496 238.976 
L 232.884298 239.846119 
L 233.628099 240.250986 
L 234.371901 244.808828 
L 235.115702 241.287278 
L 235.859504 241.95381 
L 236.603306 242.336214 
L 238.090909 243.28626 
L 238.834711 242.539181 
L 239.578512 242.844567 
L 240.322314 242.944394 
L 241.066116 243.343304 
L 241.809917 245.535042 
L 242.553719 243.468032 
L 243.297521 243.692381 
L 244.041322 243.630629 
L 244.785124 244.998644 
L 245.528926 244.671998 
L 246.272727 244.874341 
L 247.016529 243.693098 
L 247.760331 245.882163 
L 248.504132 242.526657 
L 249.247934 245.593298 
L 249.991736 244.532535 
L 250.735537 244.728826 
L 251.479339 243.679836 
L 252.22314 242.384407 
L 252.966942 243.783025 
L 253.710744 247.831221 
L 254.454545 244.322933 
L 255.198347 247.275753 
L 255.942149 245.588022 
L 256.68595 246.891723 
L 257.429752 245.059646 
L 258.173554 244.239888 
L 258.917355 246.792401 
L 259.661157 245.762802 
L 260.404959 247.482859 
L 261.14876 244.762303 
L 261.892562 245.317755 
L 262.636364 242.462163 
L 263.380165 244.148583 
L 264.123967 248.631946 
L 264.867769 248.793633 
L 265.61157 246.831602 
L 266.355372 248.75327 
L 267.099174 247.591791 
L 267.842975 248.751057 
L 268.586777 248.394089 
L 269.330579 246.353235 
L 270.07438 248.361599 
L 270.818182 249.757817 
L 271.561983 245.176965 
L 272.305785 249.746116 
L 273.049587 252.70918 
L 273.793388 248.578987 
L 274.53719 249.530803 
L 275.280992 249.827883 
L 276.024793 246.987931 
L 276.768595 248.421197 
L 277.512397 247.612586 
L 278.256198 251.081046 
L 279 247.413694 
L 279.743802 248.251872 
L 280.487603 250.769759 
L 281.231405 249.867241 
L 281.975207 248.3289 
L 282.719008 250.511234 
L 283.46281 248.075073 
L 284.206612 248.006187 
L 284.950413 249.280543 
L 285.694215 248.216996 
L 286.438017 250.829541 
L 287.181818 247.706648 
L 287.92562 246.822645 
L 288.669421 250.577885 
L 289.413223 249.473623 
L 290.157025 250.185482 
L 290.900826 247.639004 
L 291.644628 251.332871 
L 292.38843 249.883231 
L 293.132231 249.253948 
L 294.619835 249.211969 
L 295.363636 248.016061 
L 296.107438 252.492773 
L 296.85124 252.213685 
L 297.595041 251.750111 
L 298.338843 250.131783 
L 299.082645 249.417434 
L 299.826446 251.004946 
L 300.570248 250.380671 
L 301.31405 252.355648 
L 302.057851 253.009022 
L 302.801653 250.203395 
L 303.545455 250.695158 
L 304.289256 252.260123 
L 305.033058 252.439794 
L 305.77686 251.660326 
L 306.520661 250.307495 
L 307.264463 257.283834 
L 308.008264 251.16062 
L 308.752066 252.763149 
L 309.495868 251.482788 
L 310.239669 250.54664 
L 310.983471 253.88969 
L 311.727273 254.913157 
L 312.471074 251.218396 
L 313.214876 250.952557 
L 313.958678 250.323152 
L 314.702479 252.592379 
L 315.446281 252.754877 
L 316.190083 251.168221 
L 316.933884 251.362827 
L 317.677686 253.727544 
L 318.421488 252.312931 
L 319.165289 251.896753 
L 319.909091 253.194227 
L 321.396694 249.819774 
L 322.140496 254.853654 
L 322.884298 256.801861 
L 323.628099 253.585891 
L 324.371901 252.027639 
L 325.115702 255.770053 
L 325.859504 251.873772 
L 326.603306 251.628779 
L 327.347107 253.956992 
L 328.090909 251.185419 
L 328.834711 253.419996 
L 329.578512 252.047705 
L 330.322314 253.51318 
L 331.066116 253.628732 
L 331.809917 250.602009 
L 332.553719 254.65968 
L 333.297521 256.38995 
L 334.041322 250.829963 
L 335.528926 252.344908 
L 336.272727 252.191906 
L 337.016529 255.914492 
L 337.760331 254.147548 
L 338.504132 256.810974 
L 339.247934 255.055973 
L 339.991736 254.456507 
L 340.735537 251.879464 
L 341.479339 254.039478 
L 342.22314 252.820242 
L 342.966942 254.61704 
L 343.710744 255.14229 
L 344.454545 250.741285 
L 345.198347 253.781513 
L 345.942149 253.540622 
L 346.68595 256.408808 
L 347.429752 254.874011 
L 348.173554 257.126352 
L 348.917355 252.972544 
L 349.661157 252.182207 
L 350.404959 256.26657 
L 351.14876 257.807745 
L 351.892562 252.320344 
L 352.636364 253.733958 
L 353.380165 252.437366 
L 354.123967 252.545995 
L 354.867769 254.242834 
L 355.61157 254.021828 
L 356.355372 253.087451 
L 357.099174 253.349033 
L 357.842975 254.280771 
L 358.586777 255.418783 
L 359.330579 256.180044 
L 360.07438 254.247243 
L 360.818182 255.830091 
L 361.561983 254.05722 
L 362.305785 254.04686 
L 363.049587 252.885744 
L 363.793388 255.995478 
L 364.53719 254.899657 
L 365.280992 257.160604 
L 366.024793 253.703379 
L 366.768595 251.46093 
L 367.512397 255.431328 
L 368.256198 254.441896 
L 369 253.944917 
L 369.743802 256.952644 
L 370.487603 252.901302 
L 371.231405 254.225487 
L 371.975207 255.781534 
L 372.719008 258.270894 
L 373.46281 254.271031 
L 374.206612 256.347087 
L 374.950413 256.97648 
L 375.694215 251.399848 
L 376.438017 255.562898 
L 377.181818 254.206177 
L 377.92562 255.546272 
L 378.669421 255.484756 
L 379.413223 255.137184 
L 380.157025 258.505417 
L 380.900826 252.602111 
L 381.644628 254.2784 
L 382.38843 255.65155 
L 383.132231 254.47937 
L 383.876033 255.966552 
L 384.619835 254.240698 
L 385.363636 260.330775 
L 386.107438 256.034478 
L 386.85124 256.697398 
L 387.595041 257.878997 
L 388.338843 256.620576 
L 389.082645 253.86921 
L 389.826446 255.565124 
L 390.570248 254.902668 
L 391.31405 257.606254 
L 392.057851 254.441189 
L 392.801653 254.871583 
L 393.545455 256.832896 
L 394.289256 252.990316 
L 395.033058 255.95716 
L 395.77686 254.992791 
L 396.520661 256.755786 
L 397.264463 259.68796 
L 398.008264 255.119284 
L 398.752066 253.542534 
L 399.495868 259.192935 
L 400.239669 253.290836 
L 400.983471 255.614171 
L 401.727273 254.468332 
L 402.471074 259.274602 
L 403.214876 256.334237 
L 403.958678 257.478162 
L 404.702479 254.757085 
L 405.446281 253.898863 
L 406.190083 259.377868 
L 406.933884 257.909053 
L 407.677686 258.937023 
L 408.421488 256.775045 
L 409.165289 256.179372 
L 409.909091 257.198673 
L 410.652893 254.385796 
L 411.396694 257.84894 
L 412.140496 256.710174 
L 412.884298 256.484869 
L 413.628099 256.596905 
L 414.371901 255.047414 
L 415.115702 256.87352 
L 415.859504 255.143616 
L 416.603306 254.963261 
L 417.347107 255.351627 
L 418.090909 253.14499 
L 418.834711 253.826956 
L 419.578512 257.331431 
L 420.322314 256.246742 
L 421.066116 258.722432 
L 421.809917 257.558526 
L 422.553719 256.026703 
L 423.297521 256.616968 
L 424.041322 254.265056 
L 424.785124 255.572924 
L 425.528926 258.99116 
L 426.272727 254.191816 
L 427.016529 259.71712 
L 427.760331 257.742892 
L 428.504132 259.551126 
L 429.247934 253.633471 
L 429.991736 257.636128 
L 430.735537 253.846258 
L 431.479339 254.364409 
L 432.22314 258.336281 
L 432.966942 258.383368 
L 433.710744 256.59747 
L 434.454545 258.254267 
L 435.198347 260.614658 
L 435.942149 257.110862 
L 436.68595 262.996233 
L 437.429752 256.616242 
L 438.917355 259.324678 
L 439.661157 255.805526 
L 440.404959 258.660005 
L 441.14876 255.369789 
L 441.892562 258.715846 
L 443.380165 253.869329 
L 444.123967 257.237643 
L 444.867769 257.596494 
L 445.61157 256.916305 
L 446.355372 258.362764 
L 447.099174 255.919167 
L 447.842975 258.565878 
L 448.586777 257.388838 
L 449.330579 257.744529 
L 450.07438 255.47058 
L 450.818182 257.088955 
L 451.561983 255.660802 
L 452.305785 257.364016 
L 453.049587 257.99602 
L 453.793388 257.466549 
L 454.53719 254.55938 
L 455.280992 256.695359 
L 456.024793 256.659069 
L 456.768595 259.230492 
L 457.512397 255.32854 
L 458.256198 257.369374 
L 459 260.792443 
L 459.743802 257.435671 
L 460.487603 261.141976 
L 461.231405 257.765837 
L 461.975207 258.471896 
L 462.719008 256.807321 
L 463.46281 258.628522 
L 464.206612 253.64383 
L 464.950413 261.812086 
L 465.694215 257.953678 
L 466.438017 256.991709 
L 467.181818 258.014193 
L 467.92562 252.880861 
L 468.669421 257.461749 
L 469.413223 256.94376 
L 470.157025 255.250412 
L 470.900826 256.7678 
L 471.644628 256.37781 
L 472.38843 255.548624 
L 473.132231 256.762339 
L 473.876033 259.768935 
L 474.619835 255.632749 
L 475.363636 255.74542 
L 476.107438 257.318036 
L 476.85124 257.620581 
L 477.595041 257.166203 
L 478.338843 258.420574 
L 479.082645 254.510033 
L 479.826446 259.510691 
L 480.570248 255.848659 
L 481.31405 255.8349 
L 482.057851 259.723038 
L 482.801653 255.794943 
L 483.545455 258.614862 
L 484.289256 256.305524 
L 485.033058 256.635024 
L 485.77686 258.953483 
L 486.520661 259.311407 
L 487.264463 256.328275 
L 488.008264 257.671613 
L 488.752066 253.196897 
L 489.495868 255.412063 
L 490.239669 257.193606 
L 490.983471 255.177313 
L 491.727273 259.185867 
L 492.471074 257.192249 
L 493.214876 254.772797 
L 493.958678 255.487611 
L 495.446281 258.601862 
L 496.190083 256.127787 
L 496.933884 256.947967 
L 497.677686 255.777497 
L 498.421488 254.283054 
L 499.165289 252.444767 
L 499.909091 257.687377 
L 500.652893 255.090496 
L 501.396694 255.728922 
L 502.140496 257.062751 
L 502.884298 253.469238 
L 503.628099 256.757447 
L 504.371901 257.850351 
L 505.115702 256.917016 
L 505.859504 255.512597 
L 506.603306 255.883986 
L 507.347107 255.614749 
L 508.090909 253.954972 
L 508.834711 258.49478 
L 509.578512 256.817265 
L 510.322314 260.145214 
L 511.066116 257.257284 
L 511.809917 254.887432 
L 512.553719 258.815076 
L 513.297521 260.302466 
L 514.041322 256.02922 
L 514.785124 254.694623 
L 516.272727 259.517058 
L 517.016529 256.353639 
L 517.760331 256.99733 
L 518.504132 252.119516 
L 519.247934 259.184771 
L 519.991736 253.883049 
L 520.735537 256.806677 
L 521.479339 259.075349 
L 522.22314 257.412652 
L 522.966942 258.416113 
L 524.454545 255.338104 
L 525.198347 255.693159 
L 525.942149 258.907833 
L 526.68595 257.768288 
L 527.429752 252.554855 
L 528.173554 258.581578 
L 529.661157 257.258597 
L 530.404959 260.732165 
L 531.14876 259.142968 
L 531.892562 256.545047 
L 532.636364 254.828531 
L 533.380165 260.680137 
L 534.123967 255.745022 
L 534.867769 257.686218 
L 535.61157 259.085279 
L 537.099174 256.846292 
L 537.842975 253.159605 
L 538.586777 256.672389 
L 540.07438 257.20629 
L 540.818182 259.087328 
L 541.561983 257.993078 
L 542.305785 255.696148 
L 543.049587 258.537475 
L 543.793388 260.509948 
L 544.53719 255.802388 
L 545.280992 258.769669 
L 546.024793 258.292353 
L 546.768595 254.750304 
L 547.512397 256.95679 
L 548.256198 259.963819 
L 549.743802 260.66479 
L 550.487603 259.172981 
L 551.231405 258.687102 
L 551.975207 256.891395 
L 552.719008 254.366045 
L 553.46281 261.365383 
L 554.206612 258.994417 
L 555.694215 258.159349 
L 556.438017 258.131643 
L 557.181818 261.876385 
L 557.92562 255.406932 
L 558.669421 253.894626 
L 559.413223 253.916218 
L 560.157025 257.524056 
L 560.900826 254.073113 
L 561.644628 256.783085 
L 562.38843 256.038 
L 563.132231 256.016214 
L 563.876033 256.110217 
L 564.619835 260.882756 
L 565.363636 255.988681 
L 566.85124 256.997344 
L 567.595041 256.337713 
L 568.338843 258.294975 
L 569.082645 255.150234 
L 569.826446 254.95832 
L 570.570248 258.020582 
L 571.31405 254.729293 
L 572.057851 259.41749 
L 572.801653 252.603931 
L 573.545455 250.926852 
L 574.289256 255.665864 
L 575.033058 254.55271 
L 575.77686 254.545438 
L 576.520661 259.710444 
L 577.264463 259.140108 
L 578.008264 258.851788 
L 578.752066 257.473764 
L 579.495868 258.841875 
L 580.239669 257.304565 
L 580.983471 251.609593 
L 581.727273 260.702327 
L 582.471074 255.999157 
L 583.214876 258.786864 
L 583.958678 259.066094 
L 584.702479 258.033242 
L 585.446281 254.685564 
L 586.190083 259.665712 
L 586.933884 260.854495 
L 587.677686 259.773939 
L 588.421488 257.732744 
L 589.165289 254.339384 
L 589.909091 257.405641 
L 590.652893 254.931409 
L 591.396694 257.245335 
L 592.140496 252.34581 
L 592.884298 254.752418 
L 593.628099 258.169462 
L 594.371901 257.967679 
L 595.115702 254.682819 
L 595.859504 255.802207 
L 596.603306 254.922174 
L 597.347107 257.92757 
L 598.090909 254.082471 
L 598.834711 255.189467 
L 599.578512 262.499714 
L 600.322314 258.221927 
L 601.066116 256.88078 
L 601.809917 254.384641 
L 602.553719 261.784556 
L 603.297521 253.805431 
L 604.041322 257.501395 
L 604.785124 251.678224 
L 605.528926 257.825806 
L 606.272727 253.990649 
L 607.016529 253.46187 
L 607.760331 255.2772 
L 608.504132 255.363616 
L 609.247934 251.856141 
L 609.991736 260.687856 
L 610.735537 257.935719 
L 612.22314 257.140107 
L 612.966942 251.401638 
L 613.710744 258.569825 
L 614.454545 256.15142 
L 615.198347 256.060216 
L 615.942149 253.661621 
L 616.68595 256.542922 
L 617.429752 253.506773 
L 618.173554 255.634238 
L 618.917355 254.346256 
L 619.661157 257.23892 
L 621.14876 256.323797 
L 622.636364 251.577987 
L 622.636364 251.577987 
" style="fill:none;stroke:#ff7f0e;stroke-linecap:square;stroke-width:0.5;"/>
   </g>
   <g id="patch_3">
    <path d="M 90 315 
L 90 43.2 
" style="fill:none;stroke:#000000;stroke-linecap:square;stroke-linejoin:miter;stroke-width:0.8;"/>
   </g>
   <g id="patch_4">
    <path d="M 648 315 
L 648 43.2 
" style="fill:none;stroke:#000000;stroke-linecap:square;stroke-linejoin:miter;stroke-width:0.8;"/>
   </g>
   <g id="patch_5">
    <path d="M 90 315 
L 648 315 
" style="fill:none;stroke:#000000;stroke-linecap:square;stroke-linejoin:miter;stroke-width:0.8;"/>
   </g>
   <g id="patch_6">
    <path d="M 90 43.2 
L 648 43.2 
" style="fill:none;stroke:#000000;stroke-linecap:square;stroke-linejoin:miter;stroke-width:0.8;"/>
   </g>
   <g id="text_18">
    <!-- loss -->
    <g transform="translate(357.410625 37.2)scale(0.12 -0.12)">
     <use xlink:href="#DejaVuSans-108"/>
     <use x="27.783203" xlink:href="#DejaVuSans-111"/>
     <use x="88.964844" xlink:href="#DejaVuSans-115"/>
     <use x="141.064453" xlink:href="#DejaVuSans-115"/>
    </g>
   </g>
   <g id="legend_1">
    <g id="patch_7">
     <path d="M 568.846875 80.55625 
L 641 80.55625 
Q 643 80.55625 643 78.55625 
L 643 50.2 
Q 643 48.2 641 48.2 
L 568.846875 48.2 
Q 566.846875 48.2 566.846875 50.2 
L 566.846875 78.55625 
Q 566.846875 80.55625 568.846875 80.55625 
z
" style="fill:#ffffff;opacity:0.8;stroke:#cccccc;stroke-linejoin:miter;"/>
    </g>
    <g id="line2d_33">
     <path d="M 570.846875 56.298437 
L 590.846875 56.298437 
" style="fill:none;stroke:#1f77b4;stroke-linecap:square;stroke-width:0.5;"/>
    </g>
    <g id="line2d_34"/>
    <g id="text_19">
     <!-- train -->
     <defs>
      <path d="M 18.3125 70.21875 
L 18.3125 54.6875 
L 36.8125 54.6875 
L 36.8125 47.703125 
L 18.3125 47.703125 
L 18.3125 18.015625 
Q 18.3125 11.328125 20.140625 9.421875 
Q 21.96875 7.515625 27.59375 7.515625 
L 36.8125 7.515625 
L 36.8125 0 
L 27.59375 0 
Q 17.1875 0 13.234375 3.875 
Q 9.28125 7.765625 9.28125 18.015625 
L 9.28125 47.703125 
L 2.6875 47.703125 
L 2.6875 54.6875 
L 9.28125 54.6875 
L 9.28125 70.21875 
z
" id="DejaVuSans-116"/>
      <path d="M 41.109375 46.296875 
Q 39.59375 47.171875 37.8125 47.578125 
Q 36.03125 48 33.890625 48 
Q 26.265625 48 22.1875 43.046875 
Q 18.109375 38.09375 18.109375 28.8125 
L 18.109375 0 
L 9.078125 0 
L 9.078125 54.6875 
L 18.109375 54.6875 
L 18.109375 46.1875 
Q 20.953125 51.171875 25.484375 53.578125 
Q 30.03125 56 36.53125 56 
Q 37.453125 56 38.578125 55.875 
Q 39.703125 55.765625 41.0625 55.515625 
z
" id="DejaVuSans-114"/>
      <path d="M 34.28125 27.484375 
Q 23.390625 27.484375 19.1875 25 
Q 14.984375 22.515625 14.984375 16.5 
Q 14.984375 11.71875 18.140625 8.90625 
Q 21.296875 6.109375 26.703125 6.109375 
Q 34.1875 6.109375 38.703125 11.40625 
Q 43.21875 16.703125 43.21875 25.484375 
L 43.21875 27.484375 
z
M 52.203125 31.203125 
L 52.203125 0 
L 43.21875 0 
L 43.21875 8.296875 
Q 40.140625 3.328125 35.546875 0.953125 
Q 30.953125 -1.421875 24.3125 -1.421875 
Q 15.921875 -1.421875 10.953125 3.296875 
Q 6 8.015625 6 15.921875 
Q 6 25.140625 12.171875 29.828125 
Q 18.359375 34.515625 30.609375 34.515625 
L 43.21875 34.515625 
L 43.21875 35.40625 
Q 43.21875 41.609375 39.140625 45 
Q 35.0625 48.390625 27.6875 48.390625 
Q 23 48.390625 18.546875 47.265625 
Q 14.109375 46.140625 10.015625 43.890625 
L 10.015625 52.203125 
Q 14.9375 54.109375 19.578125 55.046875 
Q 24.21875 56 28.609375 56 
Q 40.484375 56 46.34375 49.84375 
Q 52.203125 43.703125 52.203125 31.203125 
z
" id="DejaVuSans-97"/>
      <path d="M 9.421875 54.6875 
L 18.40625 54.6875 
L 18.40625 0 
L 9.421875 0 
z
M 9.421875 75.984375 
L 18.40625 75.984375 
L 18.40625 64.59375 
L 9.421875 64.59375 
z
" id="DejaVuSans-105"/>
      <path d="M 54.890625 33.015625 
L 54.890625 0 
L 45.90625 0 
L 45.90625 32.71875 
Q 45.90625 40.484375 42.875 44.328125 
Q 39.84375 48.1875 33.796875 48.1875 
Q 26.515625 48.1875 22.3125 43.546875 
Q 18.109375 38.921875 18.109375 30.90625 
L 18.109375 0 
L 9.078125 0 
L 9.078125 54.6875 
L 18.109375 54.6875 
L 18.109375 46.1875 
Q 21.34375 51.125 25.703125 53.5625 
Q 30.078125 56 35.796875 56 
Q 45.21875 56 50.046875 50.171875 
Q 54.890625 44.34375 54.890625 33.015625 
z
" id="DejaVuSans-110"/>
     </defs>
     <g transform="translate(598.846875 59.798437)scale(0.1 -0.1)">
      <use xlink:href="#DejaVuSans-116"/>
      <use x="39.208984" xlink:href="#DejaVuSans-114"/>
      <use x="80.322266" xlink:href="#DejaVuSans-97"/>
      <use x="141.601562" xlink:href="#DejaVuSans-105"/>
      <use x="169.384766" xlink:href="#DejaVuSans-110"/>
     </g>
    </g>
    <g id="line2d_35">
     <path d="M 570.846875 70.976562 
L 590.846875 70.976562 
" style="fill:none;stroke:#ff7f0e;stroke-linecap:square;stroke-width:0.5;"/>
    </g>
    <g id="line2d_36"/>
    <g id="text_20">
     <!-- validate -->
     <defs>
      <path d="M 2.984375 54.6875 
L 12.5 54.6875 
L 29.59375 8.796875 
L 46.6875 54.6875 
L 56.203125 54.6875 
L 35.6875 0 
L 23.484375 0 
z
" id="DejaVuSans-118"/>
      <path d="M 45.40625 46.390625 
L 45.40625 75.984375 
L 54.390625 75.984375 
L 54.390625 0 
L 45.40625 0 
L 45.40625 8.203125 
Q 42.578125 3.328125 38.25 0.953125 
Q 33.9375 -1.421875 27.875 -1.421875 
Q 17.96875 -1.421875 11.734375 6.484375 
Q 5.515625 14.40625 5.515625 27.296875 
Q 5.515625 40.1875 11.734375 48.09375 
Q 17.96875 56 27.875 56 
Q 33.9375 56 38.25 53.625 
Q 42.578125 51.265625 45.40625 46.390625 
z
M 14.796875 27.296875 
Q 14.796875 17.390625 18.875 11.75 
Q 22.953125 6.109375 30.078125 6.109375 
Q 37.203125 6.109375 41.296875 11.75 
Q 45.40625 17.390625 45.40625 27.296875 
Q 45.40625 37.203125 41.296875 42.84375 
Q 37.203125 48.484375 30.078125 48.484375 
Q 22.953125 48.484375 18.875 42.84375 
Q 14.796875 37.203125 14.796875 27.296875 
z
" id="DejaVuSans-100"/>
     </defs>
     <g transform="translate(598.846875 74.476562)scale(0.1 -0.1)">
      <use xlink:href="#DejaVuSans-118"/>
      <use x="59.179688" xlink:href="#DejaVuSans-97"/>
      <use x="120.458984" xlink:href="#DejaVuSans-108"/>
      <use x="148.242188" xlink:href="#DejaVuSans-105"/>
      <use x="176.025391" xlink:href="#DejaVuSans-100"/>
      <use x="239.501953" xlink:href="#DejaVuSans-97"/>
      <use x="300.78125" xlink:href="#DejaVuSans-116"/>
      <use x="339.990234" xlink:href="#DejaVuSans-101"/>
     </g>
    </g>
   </g>
  </g>
 </g>
 <defs>
  <clipPath id="p0fbe4a1ab4">
   <rect height="271.8" width="558" x="90" y="43.2"/>
  </clipPath>
 </defs>
</svg>
