<?xml version="1.0" encoding="utf-8" standalone="no"?>
<!DOCTYPE svg PUBLIC "-//W3C//DTD SVG 1.1//EN"
  "http://www.w3.org/Graphics/SVG/1.1/DTD/svg11.dtd">
<!-- Created with matplotlib (https://matplotlib.org/) -->
<svg height="360pt" version="1.1" viewBox="0 0 720 360" width="720pt" xmlns="http://www.w3.org/2000/svg" xmlns:xlink="http://www.w3.org/1999/xlink">
 <defs>
  <style type="text/css">
*{stroke-linecap:butt;stroke-linejoin:round;}
  </style>
 </defs>
 <g id="figure_1">
  <g id="patch_1">
   <path d="M 0 360 
L 720 360 
L 720 0 
L 0 0 
z
" style="fill:#ffffff;"/>
  </g>
  <g id="axes_1">
   <g id="patch_2">
    <path d="M 90 315 
L 648 315 
L 648 43.2 
L 90 43.2 
z
" style="fill:#ffffff;"/>
   </g>
   <g id="matplotlib.axis_1">
    <g id="xtick_1">
     <g id="line2d_1">
      <path clip-path="url(#p455c7bdce5)" d="M 115.363636 315 
L 115.363636 43.2 
" style="fill:none;stroke:#b0b0b0;stroke-linecap:square;stroke-width:0.8;"/>
     </g>
     <g id="line2d_2">
      <defs>
       <path d="M 0 0 
L 0 3.5 
" id="m17bbbae19e" style="stroke:#000000;stroke-width:0.8;"/>
      </defs>
      <g>
       <use style="stroke:#000000;stroke-width:0.8;" x="115.363636" xlink:href="#m17bbbae19e" y="315"/>
      </g>
     </g>
     <g id="text_1">
      <!-- 0 -->
      <defs>
       <path d="M 31.78125 66.40625 
Q 24.171875 66.40625 20.328125 58.90625 
Q 16.5 51.421875 16.5 36.375 
Q 16.5 21.390625 20.328125 13.890625 
Q 24.171875 6.390625 31.78125 6.390625 
Q 39.453125 6.390625 43.28125 13.890625 
Q 47.125 21.390625 47.125 36.375 
Q 47.125 51.421875 43.28125 58.90625 
Q 39.453125 66.40625 31.78125 66.40625 
z
M 31.78125 74.21875 
Q 44.046875 74.21875 50.515625 64.515625 
Q 56.984375 54.828125 56.984375 36.375 
Q 56.984375 17.96875 50.515625 8.265625 
Q 44.046875 -1.421875 31.78125 -1.421875 
Q 19.53125 -1.421875 13.0625 8.265625 
Q 6.59375 17.96875 6.59375 36.375 
Q 6.59375 54.828125 13.0625 64.515625 
Q 19.53125 74.21875 31.78125 74.21875 
z
" id="DejaVuSans-48"/>
      </defs>
      <g transform="translate(112.182386 329.598437)scale(0.1 -0.1)">
       <use xlink:href="#DejaVuSans-48"/>
      </g>
     </g>
    </g>
    <g id="xtick_2">
     <g id="line2d_3">
      <path clip-path="url(#p455c7bdce5)" d="M 194.31659 315 
L 194.31659 43.2 
" style="fill:none;stroke:#b0b0b0;stroke-linecap:square;stroke-width:0.8;"/>
     </g>
     <g id="line2d_4">
      <g>
       <use style="stroke:#000000;stroke-width:0.8;" x="194.31659" xlink:href="#m17bbbae19e" y="315"/>
      </g>
     </g>
     <g id="text_2">
      <!-- 200 -->
      <defs>
       <path d="M 19.1875 8.296875 
L 53.609375 8.296875 
L 53.609375 0 
L 7.328125 0 
L 7.328125 8.296875 
Q 12.9375 14.109375 22.625 23.890625 
Q 32.328125 33.6875 34.8125 36.53125 
Q 39.546875 41.84375 41.421875 45.53125 
Q 43.3125 49.21875 43.3125 52.78125 
Q 43.3125 58.59375 39.234375 62.25 
Q 35.15625 65.921875 28.609375 65.921875 
Q 23.96875 65.921875 18.8125 64.3125 
Q 13.671875 62.703125 7.8125 59.421875 
L 7.8125 69.390625 
Q 13.765625 71.78125 18.9375 73 
Q 24.125 74.21875 28.421875 74.21875 
Q 39.75 74.21875 46.484375 68.546875 
Q 53.21875 62.890625 53.21875 53.421875 
Q 53.21875 48.921875 51.53125 44.890625 
Q 49.859375 40.875 45.40625 35.40625 
Q 44.1875 33.984375 37.640625 27.21875 
Q 31.109375 20.453125 19.1875 8.296875 
z
" id="DejaVuSans-50"/>
      </defs>
      <g transform="translate(184.77284 329.598437)scale(0.1 -0.1)">
       <use xlink:href="#DejaVuSans-50"/>
       <use x="63.623047" xlink:href="#DejaVuSans-48"/>
       <use x="127.246094" xlink:href="#DejaVuSans-48"/>
      </g>
     </g>
    </g>
    <g id="xtick_3">
     <g id="line2d_5">
      <path clip-path="url(#p455c7bdce5)" d="M 273.269544 315 
L 273.269544 43.2 
" style="fill:none;stroke:#b0b0b0;stroke-linecap:square;stroke-width:0.8;"/>
     </g>
     <g id="line2d_6">
      <g>
       <use style="stroke:#000000;stroke-width:0.8;" x="273.269544" xlink:href="#m17bbbae19e" y="315"/>
      </g>
     </g>
     <g id="text_3">
      <!-- 400 -->
      <defs>
       <path d="M 37.796875 64.3125 
L 12.890625 25.390625 
L 37.796875 25.390625 
z
M 35.203125 72.90625 
L 47.609375 72.90625 
L 47.609375 25.390625 
L 58.015625 25.390625 
L 58.015625 17.1875 
L 47.609375 17.1875 
L 47.609375 0 
L 37.796875 0 
L 37.796875 17.1875 
L 4.890625 17.1875 
L 4.890625 26.703125 
z
" id="DejaVuSans-52"/>
      </defs>
      <g transform="translate(263.725794 329.598437)scale(0.1 -0.1)">
       <use xlink:href="#DejaVuSans-52"/>
       <use x="63.623047" xlink:href="#DejaVuSans-48"/>
       <use x="127.246094" xlink:href="#DejaVuSans-48"/>
      </g>
     </g>
    </g>
    <g id="xtick_4">
     <g id="line2d_7">
      <path clip-path="url(#p455c7bdce5)" d="M 352.222497 315 
L 352.222497 43.2 
" style="fill:none;stroke:#b0b0b0;stroke-linecap:square;stroke-width:0.8;"/>
     </g>
     <g id="line2d_8">
      <g>
       <use style="stroke:#000000;stroke-width:0.8;" x="352.222497" xlink:href="#m17bbbae19e" y="315"/>
      </g>
     </g>
     <g id="text_4">
      <!-- 600 -->
      <defs>
       <path d="M 33.015625 40.375 
Q 26.375 40.375 22.484375 35.828125 
Q 18.609375 31.296875 18.609375 23.390625 
Q 18.609375 15.53125 22.484375 10.953125 
Q 26.375 6.390625 33.015625 6.390625 
Q 39.65625 6.390625 43.53125 10.953125 
Q 47.40625 15.53125 47.40625 23.390625 
Q 47.40625 31.296875 43.53125 35.828125 
Q 39.65625 40.375 33.015625 40.375 
z
M 52.59375 71.296875 
L 52.59375 62.3125 
Q 48.875 64.0625 45.09375 64.984375 
Q 41.3125 65.921875 37.59375 65.921875 
Q 27.828125 65.921875 22.671875 59.328125 
Q 17.53125 52.734375 16.796875 39.40625 
Q 19.671875 43.65625 24.015625 45.921875 
Q 28.375 48.1875 33.59375 48.1875 
Q 44.578125 48.1875 50.953125 41.515625 
Q 57.328125 34.859375 57.328125 23.390625 
Q 57.328125 12.15625 50.6875 5.359375 
Q 44.046875 -1.421875 33.015625 -1.421875 
Q 20.359375 -1.421875 13.671875 8.265625 
Q 6.984375 17.96875 6.984375 36.375 
Q 6.984375 53.65625 15.1875 63.9375 
Q 23.390625 74.21875 37.203125 74.21875 
Q 40.921875 74.21875 44.703125 73.484375 
Q 48.484375 72.75 52.59375 71.296875 
z
" id="DejaVuSans-54"/>
      </defs>
      <g transform="translate(342.678747 329.598437)scale(0.1 -0.1)">
       <use xlink:href="#DejaVuSans-54"/>
       <use x="63.623047" xlink:href="#DejaVuSans-48"/>
       <use x="127.246094" xlink:href="#DejaVuSans-48"/>
      </g>
     </g>
    </g>
    <g id="xtick_5">
     <g id="line2d_9">
      <path clip-path="url(#p455c7bdce5)" d="M 431.175451 315 
L 431.175451 43.2 
" style="fill:none;stroke:#b0b0b0;stroke-linecap:square;stroke-width:0.8;"/>
     </g>
     <g id="line2d_10">
      <g>
       <use style="stroke:#000000;stroke-width:0.8;" x="431.175451" xlink:href="#m17bbbae19e" y="315"/>
      </g>
     </g>
     <g id="text_5">
      <!-- 800 -->
      <defs>
       <path d="M 31.78125 34.625 
Q 24.75 34.625 20.71875 30.859375 
Q 16.703125 27.09375 16.703125 20.515625 
Q 16.703125 13.921875 20.71875 10.15625 
Q 24.75 6.390625 31.78125 6.390625 
Q 38.8125 6.390625 42.859375 10.171875 
Q 46.921875 13.96875 46.921875 20.515625 
Q 46.921875 27.09375 42.890625 30.859375 
Q 38.875 34.625 31.78125 34.625 
z
M 21.921875 38.8125 
Q 15.578125 40.375 12.03125 44.71875 
Q 8.5 49.078125 8.5 55.328125 
Q 8.5 64.0625 14.71875 69.140625 
Q 20.953125 74.21875 31.78125 74.21875 
Q 42.671875 74.21875 48.875 69.140625 
Q 55.078125 64.0625 55.078125 55.328125 
Q 55.078125 49.078125 51.53125 44.71875 
Q 48 40.375 41.703125 38.8125 
Q 48.828125 37.15625 52.796875 32.3125 
Q 56.78125 27.484375 56.78125 20.515625 
Q 56.78125 9.90625 50.3125 4.234375 
Q 43.84375 -1.421875 31.78125 -1.421875 
Q 19.734375 -1.421875 13.25 4.234375 
Q 6.78125 9.90625 6.78125 20.515625 
Q 6.78125 27.484375 10.78125 32.3125 
Q 14.796875 37.15625 21.921875 38.8125 
z
M 18.3125 54.390625 
Q 18.3125 48.734375 21.84375 45.5625 
Q 25.390625 42.390625 31.78125 42.390625 
Q 38.140625 42.390625 41.71875 45.5625 
Q 45.3125 48.734375 45.3125 54.390625 
Q 45.3125 60.0625 41.71875 63.234375 
Q 38.140625 66.40625 31.78125 66.40625 
Q 25.390625 66.40625 21.84375 63.234375 
Q 18.3125 60.0625 18.3125 54.390625 
z
" id="DejaVuSans-56"/>
      </defs>
      <g transform="translate(421.631701 329.598437)scale(0.1 -0.1)">
       <use xlink:href="#DejaVuSans-56"/>
       <use x="63.623047" xlink:href="#DejaVuSans-48"/>
       <use x="127.246094" xlink:href="#DejaVuSans-48"/>
      </g>
     </g>
    </g>
    <g id="xtick_6">
     <g id="line2d_11">
      <path clip-path="url(#p455c7bdce5)" d="M 510.128405 315 
L 510.128405 43.2 
" style="fill:none;stroke:#b0b0b0;stroke-linecap:square;stroke-width:0.8;"/>
     </g>
     <g id="line2d_12">
      <g>
       <use style="stroke:#000000;stroke-width:0.8;" x="510.128405" xlink:href="#m17bbbae19e" y="315"/>
      </g>
     </g>
     <g id="text_6">
      <!-- 1000 -->
      <defs>
       <path d="M 12.40625 8.296875 
L 28.515625 8.296875 
L 28.515625 63.921875 
L 10.984375 60.40625 
L 10.984375 69.390625 
L 28.421875 72.90625 
L 38.28125 72.90625 
L 38.28125 8.296875 
L 54.390625 8.296875 
L 54.390625 0 
L 12.40625 0 
z
" id="DejaVuSans-49"/>
      </defs>
      <g transform="translate(497.403405 329.598437)scale(0.1 -0.1)">
       <use xlink:href="#DejaVuSans-49"/>
       <use x="63.623047" xlink:href="#DejaVuSans-48"/>
       <use x="127.246094" xlink:href="#DejaVuSans-48"/>
       <use x="190.869141" xlink:href="#DejaVuSans-48"/>
      </g>
     </g>
    </g>
    <g id="xtick_7">
     <g id="line2d_13">
      <path clip-path="url(#p455c7bdce5)" d="M 589.081358 315 
L 589.081358 43.2 
" style="fill:none;stroke:#b0b0b0;stroke-linecap:square;stroke-width:0.8;"/>
     </g>
     <g id="line2d_14">
      <g>
       <use style="stroke:#000000;stroke-width:0.8;" x="589.081358" xlink:href="#m17bbbae19e" y="315"/>
      </g>
     </g>
     <g id="text_7">
      <!-- 1200 -->
      <g transform="translate(576.356358 329.598437)scale(0.1 -0.1)">
       <use xlink:href="#DejaVuSans-49"/>
       <use x="63.623047" xlink:href="#DejaVuSans-50"/>
       <use x="127.246094" xlink:href="#DejaVuSans-48"/>
       <use x="190.869141" xlink:href="#DejaVuSans-48"/>
      </g>
     </g>
    </g>
    <g id="text_8">
     <!-- epoch -->
     <defs>
      <path d="M 56.203125 29.59375 
L 56.203125 25.203125 
L 14.890625 25.203125 
Q 15.484375 15.921875 20.484375 11.0625 
Q 25.484375 6.203125 34.421875 6.203125 
Q 39.59375 6.203125 44.453125 7.46875 
Q 49.3125 8.734375 54.109375 11.28125 
L 54.109375 2.78125 
Q 49.265625 0.734375 44.1875 -0.34375 
Q 39.109375 -1.421875 33.890625 -1.421875 
Q 20.796875 -1.421875 13.15625 6.1875 
Q 5.515625 13.8125 5.515625 26.8125 
Q 5.515625 40.234375 12.765625 48.109375 
Q 20.015625 56 32.328125 56 
Q 43.359375 56 49.78125 48.890625 
Q 56.203125 41.796875 56.203125 29.59375 
z
M 47.21875 32.234375 
Q 47.125 39.59375 43.09375 43.984375 
Q 39.0625 48.390625 32.421875 48.390625 
Q 24.90625 48.390625 20.390625 44.140625 
Q 15.875 39.890625 15.1875 32.171875 
z
" id="DejaVuSans-101"/>
      <path d="M 18.109375 8.203125 
L 18.109375 -20.796875 
L 9.078125 -20.796875 
L 9.078125 54.6875 
L 18.109375 54.6875 
L 18.109375 46.390625 
Q 20.953125 51.265625 25.265625 53.625 
Q 29.59375 56 35.59375 56 
Q 45.5625 56 51.78125 48.09375 
Q 58.015625 40.1875 58.015625 27.296875 
Q 58.015625 14.40625 51.78125 6.484375 
Q 45.5625 -1.421875 35.59375 -1.421875 
Q 29.59375 -1.421875 25.265625 0.953125 
Q 20.953125 3.328125 18.109375 8.203125 
z
M 48.6875 27.296875 
Q 48.6875 37.203125 44.609375 42.84375 
Q 40.53125 48.484375 33.40625 48.484375 
Q 26.265625 48.484375 22.1875 42.84375 
Q 18.109375 37.203125 18.109375 27.296875 
Q 18.109375 17.390625 22.1875 11.75 
Q 26.265625 6.109375 33.40625 6.109375 
Q 40.53125 6.109375 44.609375 11.75 
Q 48.6875 17.390625 48.6875 27.296875 
z
" id="DejaVuSans-112"/>
      <path d="M 30.609375 48.390625 
Q 23.390625 48.390625 19.1875 42.75 
Q 14.984375 37.109375 14.984375 27.296875 
Q 14.984375 17.484375 19.15625 11.84375 
Q 23.34375 6.203125 30.609375 6.203125 
Q 37.796875 6.203125 41.984375 11.859375 
Q 46.1875 17.53125 46.1875 27.296875 
Q 46.1875 37.015625 41.984375 42.703125 
Q 37.796875 48.390625 30.609375 48.390625 
z
M 30.609375 56 
Q 42.328125 56 49.015625 48.375 
Q 55.71875 40.765625 55.71875 27.296875 
Q 55.71875 13.875 49.015625 6.21875 
Q 42.328125 -1.421875 30.609375 -1.421875 
Q 18.84375 -1.421875 12.171875 6.21875 
Q 5.515625 13.875 5.515625 27.296875 
Q 5.515625 40.765625 12.171875 48.375 
Q 18.84375 56 30.609375 56 
z
" id="DejaVuSans-111"/>
      <path d="M 48.78125 52.59375 
L 48.78125 44.1875 
Q 44.96875 46.296875 41.140625 47.34375 
Q 37.3125 48.390625 33.40625 48.390625 
Q 24.65625 48.390625 19.8125 42.84375 
Q 14.984375 37.3125 14.984375 27.296875 
Q 14.984375 17.28125 19.8125 11.734375 
Q 24.65625 6.203125 33.40625 6.203125 
Q 37.3125 6.203125 41.140625 7.25 
Q 44.96875 8.296875 48.78125 10.40625 
L 48.78125 2.09375 
Q 45.015625 0.34375 40.984375 -0.53125 
Q 36.96875 -1.421875 32.421875 -1.421875 
Q 20.0625 -1.421875 12.78125 6.34375 
Q 5.515625 14.109375 5.515625 27.296875 
Q 5.515625 40.671875 12.859375 48.328125 
Q 20.21875 56 33.015625 56 
Q 37.15625 56 41.109375 55.140625 
Q 45.0625 54.296875 48.78125 52.59375 
z
" id="DejaVuSans-99"/>
      <path d="M 54.890625 33.015625 
L 54.890625 0 
L 45.90625 0 
L 45.90625 32.71875 
Q 45.90625 40.484375 42.875 44.328125 
Q 39.84375 48.1875 33.796875 48.1875 
Q 26.515625 48.1875 22.3125 43.546875 
Q 18.109375 38.921875 18.109375 30.90625 
L 18.109375 0 
L 9.078125 0 
L 9.078125 75.984375 
L 18.109375 75.984375 
L 18.109375 46.1875 
Q 21.34375 51.125 25.703125 53.5625 
Q 30.078125 56 35.796875 56 
Q 45.21875 56 50.046875 50.171875 
Q 54.890625 44.34375 54.890625 33.015625 
z
" id="DejaVuSans-104"/>
     </defs>
     <g transform="translate(353.771875 343.276563)scale(0.1 -0.1)">
      <use xlink:href="#DejaVuSans-101"/>
      <use x="61.523438" xlink:href="#DejaVuSans-112"/>
      <use x="125" xlink:href="#DejaVuSans-111"/>
      <use x="186.181641" xlink:href="#DejaVuSans-99"/>
      <use x="241.162109" xlink:href="#DejaVuSans-104"/>
     </g>
    </g>
   </g>
   <g id="matplotlib.axis_2">
    <g id="ytick_1">
     <g id="line2d_15">
      <path clip-path="url(#p455c7bdce5)" d="M 90 291.225642 
L 648 291.225642 
" style="fill:none;stroke:#b0b0b0;stroke-linecap:square;stroke-width:0.8;"/>
     </g>
     <g id="line2d_16">
      <defs>
       <path d="M 0 0 
L -3.5 0 
" id="m5144e20279" style="stroke:#000000;stroke-width:0.8;"/>
      </defs>
      <g>
       <use style="stroke:#000000;stroke-width:0.8;" x="90" xlink:href="#m5144e20279" y="291.225642"/>
      </g>
     </g>
     <g id="text_9">
      <!-- 0.3 -->
      <defs>
       <path d="M 10.6875 12.40625 
L 21 12.40625 
L 21 0 
L 10.6875 0 
z
" id="DejaVuSans-46"/>
       <path d="M 40.578125 39.3125 
Q 47.65625 37.796875 51.625 33 
Q 55.609375 28.21875 55.609375 21.1875 
Q 55.609375 10.40625 48.1875 4.484375 
Q 40.765625 -1.421875 27.09375 -1.421875 
Q 22.515625 -1.421875 17.65625 -0.515625 
Q 12.796875 0.390625 7.625 2.203125 
L 7.625 11.71875 
Q 11.71875 9.328125 16.59375 8.109375 
Q 21.484375 6.890625 26.8125 6.890625 
Q 36.078125 6.890625 40.9375 10.546875 
Q 45.796875 14.203125 45.796875 21.1875 
Q 45.796875 27.640625 41.28125 31.265625 
Q 36.765625 34.90625 28.71875 34.90625 
L 20.21875 34.90625 
L 20.21875 43.015625 
L 29.109375 43.015625 
Q 36.375 43.015625 40.234375 45.921875 
Q 44.09375 48.828125 44.09375 54.296875 
Q 44.09375 59.90625 40.109375 62.90625 
Q 36.140625 65.921875 28.71875 65.921875 
Q 24.65625 65.921875 20.015625 65.03125 
Q 15.375 64.15625 9.8125 62.3125 
L 9.8125 71.09375 
Q 15.4375 72.65625 20.34375 73.4375 
Q 25.25 74.21875 29.59375 74.21875 
Q 40.828125 74.21875 47.359375 69.109375 
Q 53.90625 64.015625 53.90625 55.328125 
Q 53.90625 49.265625 50.4375 45.09375 
Q 46.96875 40.921875 40.578125 39.3125 
z
" id="DejaVuSans-51"/>
      </defs>
      <g transform="translate(67.096875 295.024861)scale(0.1 -0.1)">
       <use xlink:href="#DejaVuSans-48"/>
       <use x="63.623047" xlink:href="#DejaVuSans-46"/>
       <use x="95.410156" xlink:href="#DejaVuSans-51"/>
      </g>
     </g>
    </g>
    <g id="ytick_2">
     <g id="line2d_17">
      <path clip-path="url(#p455c7bdce5)" d="M 90 257.38916 
L 648 257.38916 
" style="fill:none;stroke:#b0b0b0;stroke-linecap:square;stroke-width:0.8;"/>
     </g>
     <g id="line2d_18">
      <g>
       <use style="stroke:#000000;stroke-width:0.8;" x="90" xlink:href="#m5144e20279" y="257.38916"/>
      </g>
     </g>
     <g id="text_10">
      <!-- 0.4 -->
      <g transform="translate(67.096875 261.188379)scale(0.1 -0.1)">
       <use xlink:href="#DejaVuSans-48"/>
       <use x="63.623047" xlink:href="#DejaVuSans-46"/>
       <use x="95.410156" xlink:href="#DejaVuSans-52"/>
      </g>
     </g>
    </g>
    <g id="ytick_3">
     <g id="line2d_19">
      <path clip-path="url(#p455c7bdce5)" d="M 90 223.552678 
L 648 223.552678 
" style="fill:none;stroke:#b0b0b0;stroke-linecap:square;stroke-width:0.8;"/>
     </g>
     <g id="line2d_20">
      <g>
       <use style="stroke:#000000;stroke-width:0.8;" x="90" xlink:href="#m5144e20279" y="223.552678"/>
      </g>
     </g>
     <g id="text_11">
      <!-- 0.5 -->
      <defs>
       <path d="M 10.796875 72.90625 
L 49.515625 72.90625 
L 49.515625 64.59375 
L 19.828125 64.59375 
L 19.828125 46.734375 
Q 21.96875 47.46875 24.109375 47.828125 
Q 26.265625 48.1875 28.421875 48.1875 
Q 40.625 48.1875 47.75 41.5 
Q 54.890625 34.8125 54.890625 23.390625 
Q 54.890625 11.625 47.5625 5.09375 
Q 40.234375 -1.421875 26.90625 -1.421875 
Q 22.3125 -1.421875 17.546875 -0.640625 
Q 12.796875 0.140625 7.71875 1.703125 
L 7.71875 11.625 
Q 12.109375 9.234375 16.796875 8.0625 
Q 21.484375 6.890625 26.703125 6.890625 
Q 35.15625 6.890625 40.078125 11.328125 
Q 45.015625 15.765625 45.015625 23.390625 
Q 45.015625 31 40.078125 35.4375 
Q 35.15625 39.890625 26.703125 39.890625 
Q 22.75 39.890625 18.8125 39.015625 
Q 14.890625 38.140625 10.796875 36.28125 
z
" id="DejaVuSans-53"/>
      </defs>
      <g transform="translate(67.096875 227.351897)scale(0.1 -0.1)">
       <use xlink:href="#DejaVuSans-48"/>
       <use x="63.623047" xlink:href="#DejaVuSans-46"/>
       <use x="95.410156" xlink:href="#DejaVuSans-53"/>
      </g>
     </g>
    </g>
    <g id="ytick_4">
     <g id="line2d_21">
      <path clip-path="url(#p455c7bdce5)" d="M 90 189.716196 
L 648 189.716196 
" style="fill:none;stroke:#b0b0b0;stroke-linecap:square;stroke-width:0.8;"/>
     </g>
     <g id="line2d_22">
      <g>
       <use style="stroke:#000000;stroke-width:0.8;" x="90" xlink:href="#m5144e20279" y="189.716196"/>
      </g>
     </g>
     <g id="text_12">
      <!-- 0.6 -->
      <g transform="translate(67.096875 193.515415)scale(0.1 -0.1)">
       <use xlink:href="#DejaVuSans-48"/>
       <use x="63.623047" xlink:href="#DejaVuSans-46"/>
       <use x="95.410156" xlink:href="#DejaVuSans-54"/>
      </g>
     </g>
    </g>
    <g id="ytick_5">
     <g id="line2d_23">
      <path clip-path="url(#p455c7bdce5)" d="M 90 155.879714 
L 648 155.879714 
" style="fill:none;stroke:#b0b0b0;stroke-linecap:square;stroke-width:0.8;"/>
     </g>
     <g id="line2d_24">
      <g>
       <use style="stroke:#000000;stroke-width:0.8;" x="90" xlink:href="#m5144e20279" y="155.879714"/>
      </g>
     </g>
     <g id="text_13">
      <!-- 0.7 -->
      <defs>
       <path d="M 8.203125 72.90625 
L 55.078125 72.90625 
L 55.078125 68.703125 
L 28.609375 0 
L 18.3125 0 
L 43.21875 64.59375 
L 8.203125 64.59375 
z
" id="DejaVuSans-55"/>
      </defs>
      <g transform="translate(67.096875 159.678933)scale(0.1 -0.1)">
       <use xlink:href="#DejaVuSans-48"/>
       <use x="63.623047" xlink:href="#DejaVuSans-46"/>
       <use x="95.410156" xlink:href="#DejaVuSans-55"/>
      </g>
     </g>
    </g>
    <g id="ytick_6">
     <g id="line2d_25">
      <path clip-path="url(#p455c7bdce5)" d="M 90 122.043232 
L 648 122.043232 
" style="fill:none;stroke:#b0b0b0;stroke-linecap:square;stroke-width:0.8;"/>
     </g>
     <g id="line2d_26">
      <g>
       <use style="stroke:#000000;stroke-width:0.8;" x="90" xlink:href="#m5144e20279" y="122.043232"/>
      </g>
     </g>
     <g id="text_14">
      <!-- 0.8 -->
      <g transform="translate(67.096875 125.842451)scale(0.1 -0.1)">
       <use xlink:href="#DejaVuSans-48"/>
       <use x="63.623047" xlink:href="#DejaVuSans-46"/>
       <use x="95.410156" xlink:href="#DejaVuSans-56"/>
      </g>
     </g>
    </g>
    <g id="ytick_7">
     <g id="line2d_27">
      <path clip-path="url(#p455c7bdce5)" d="M 90 88.20675 
L 648 88.20675 
" style="fill:none;stroke:#b0b0b0;stroke-linecap:square;stroke-width:0.8;"/>
     </g>
     <g id="line2d_28">
      <g>
       <use style="stroke:#000000;stroke-width:0.8;" x="90" xlink:href="#m5144e20279" y="88.20675"/>
      </g>
     </g>
     <g id="text_15">
      <!-- 0.9 -->
      <defs>
       <path d="M 10.984375 1.515625 
L 10.984375 10.5 
Q 14.703125 8.734375 18.5 7.8125 
Q 22.3125 6.890625 25.984375 6.890625 
Q 35.75 6.890625 40.890625 13.453125 
Q 46.046875 20.015625 46.78125 33.40625 
Q 43.953125 29.203125 39.59375 26.953125 
Q 35.25 24.703125 29.984375 24.703125 
Q 19.046875 24.703125 12.671875 31.3125 
Q 6.296875 37.9375 6.296875 49.421875 
Q 6.296875 60.640625 12.9375 67.421875 
Q 19.578125 74.21875 30.609375 74.21875 
Q 43.265625 74.21875 49.921875 64.515625 
Q 56.59375 54.828125 56.59375 36.375 
Q 56.59375 19.140625 48.40625 8.859375 
Q 40.234375 -1.421875 26.421875 -1.421875 
Q 22.703125 -1.421875 18.890625 -0.6875 
Q 15.09375 0.046875 10.984375 1.515625 
z
M 30.609375 32.421875 
Q 37.25 32.421875 41.125 36.953125 
Q 45.015625 41.5 45.015625 49.421875 
Q 45.015625 57.28125 41.125 61.84375 
Q 37.25 66.40625 30.609375 66.40625 
Q 23.96875 66.40625 20.09375 61.84375 
Q 16.21875 57.28125 16.21875 49.421875 
Q 16.21875 41.5 20.09375 36.953125 
Q 23.96875 32.421875 30.609375 32.421875 
z
" id="DejaVuSans-57"/>
      </defs>
      <g transform="translate(67.096875 92.005969)scale(0.1 -0.1)">
       <use xlink:href="#DejaVuSans-48"/>
       <use x="63.623047" xlink:href="#DejaVuSans-46"/>
       <use x="95.410156" xlink:href="#DejaVuSans-57"/>
      </g>
     </g>
    </g>
    <g id="ytick_8">
     <g id="line2d_29">
      <path clip-path="url(#p455c7bdce5)" d="M 90 54.370269 
L 648 54.370269 
" style="fill:none;stroke:#b0b0b0;stroke-linecap:square;stroke-width:0.8;"/>
     </g>
     <g id="line2d_30">
      <g>
       <use style="stroke:#000000;stroke-width:0.8;" x="90" xlink:href="#m5144e20279" y="54.370269"/>
      </g>
     </g>
     <g id="text_16">
      <!-- 1.0 -->
      <g transform="translate(67.096875 58.169487)scale(0.1 -0.1)">
       <use xlink:href="#DejaVuSans-49"/>
       <use x="63.623047" xlink:href="#DejaVuSans-46"/>
       <use x="95.410156" xlink:href="#DejaVuSans-48"/>
      </g>
     </g>
    </g>
    <g id="text_17">
     <!-- accuracy -->
     <defs>
      <path d="M 34.28125 27.484375 
Q 23.390625 27.484375 19.1875 25 
Q 14.984375 22.515625 14.984375 16.5 
Q 14.984375 11.71875 18.140625 8.90625 
Q 21.296875 6.109375 26.703125 6.109375 
Q 34.1875 6.109375 38.703125 11.40625 
Q 43.21875 16.703125 43.21875 25.484375 
L 43.21875 27.484375 
z
M 52.203125 31.203125 
L 52.203125 0 
L 43.21875 0 
L 43.21875 8.296875 
Q 40.140625 3.328125 35.546875 0.953125 
Q 30.953125 -1.421875 24.3125 -1.421875 
Q 15.921875 -1.421875 10.953125 3.296875 
Q 6 8.015625 6 15.921875 
Q 6 25.140625 12.171875 29.828125 
Q 18.359375 34.515625 30.609375 34.515625 
L 43.21875 34.515625 
L 43.21875 35.40625 
Q 43.21875 41.609375 39.140625 45 
Q 35.0625 48.390625 27.6875 48.390625 
Q 23 48.390625 18.546875 47.265625 
Q 14.109375 46.140625 10.015625 43.890625 
L 10.015625 52.203125 
Q 14.9375 54.109375 19.578125 55.046875 
Q 24.21875 56 28.609375 56 
Q 40.484375 56 46.34375 49.84375 
Q 52.203125 43.703125 52.203125 31.203125 
z
" id="DejaVuSans-97"/>
      <path d="M 8.5 21.578125 
L 8.5 54.6875 
L 17.484375 54.6875 
L 17.484375 21.921875 
Q 17.484375 14.15625 20.5 10.265625 
Q 23.53125 6.390625 29.59375 6.390625 
Q 36.859375 6.390625 41.078125 11.03125 
Q 45.3125 15.671875 45.3125 23.6875 
L 45.3125 54.6875 
L 54.296875 54.6875 
L 54.296875 0 
L 45.3125 0 
L 45.3125 8.40625 
Q 42.046875 3.421875 37.71875 1 
Q 33.40625 -1.421875 27.6875 -1.421875 
Q 18.265625 -1.421875 13.375 4.4375 
Q 8.5 10.296875 8.5 21.578125 
z
M 31.109375 56 
z
" id="DejaVuSans-117"/>
      <path d="M 41.109375 46.296875 
Q 39.59375 47.171875 37.8125 47.578125 
Q 36.03125 48 33.890625 48 
Q 26.265625 48 22.1875 43.046875 
Q 18.109375 38.09375 18.109375 28.8125 
L 18.109375 0 
L 9.078125 0 
L 9.078125 54.6875 
L 18.109375 54.6875 
L 18.109375 46.1875 
Q 20.953125 51.171875 25.484375 53.578125 
Q 30.03125 56 36.53125 56 
Q 37.453125 56 38.578125 55.875 
Q 39.703125 55.765625 41.0625 55.515625 
z
" id="DejaVuSans-114"/>
      <path d="M 32.171875 -5.078125 
Q 28.375 -14.84375 24.75 -17.8125 
Q 21.140625 -20.796875 15.09375 -20.796875 
L 7.90625 -20.796875 
L 7.90625 -13.28125 
L 13.1875 -13.28125 
Q 16.890625 -13.28125 18.9375 -11.515625 
Q 21 -9.765625 23.484375 -3.21875 
L 25.09375 0.875 
L 2.984375 54.6875 
L 12.5 54.6875 
L 29.59375 11.921875 
L 46.6875 54.6875 
L 56.203125 54.6875 
z
" id="DejaVuSans-121"/>
     </defs>
     <g transform="translate(61.017187 201.659375)rotate(-90)scale(0.1 -0.1)">
      <use xlink:href="#DejaVuSans-97"/>
      <use x="61.279297" xlink:href="#DejaVuSans-99"/>
      <use x="116.259766" xlink:href="#DejaVuSans-99"/>
      <use x="171.240234" xlink:href="#DejaVuSans-117"/>
      <use x="234.619141" xlink:href="#DejaVuSans-114"/>
      <use x="275.732422" xlink:href="#DejaVuSans-97"/>
      <use x="337.011719" xlink:href="#DejaVuSans-99"/>
      <use x="391.992188" xlink:href="#DejaVuSans-121"/>
     </g>
    </g>
   </g>
   <g id="line2d_31">
    <path clip-path="url(#p455c7bdce5)" d="M 115.363636 299.177215 
L 115.758401 302.645455 
L 116.153166 294.863064 
L 116.547931 298.585077 
L 116.942695 292.579101 
L 117.33746 288.857088 
L 117.732225 293.086648 
L 118.12699 284.881302 
L 118.521755 281.413062 
L 118.916519 275.322495 
L 119.311284 273.799854 
L 119.706049 273.799854 
L 120.100814 271.769665 
L 121.285108 264.241048 
L 121.679873 255.358971 
L 122.074637 250.36809 
L 122.469402 250.621864 
L 123.258932 245.377209 
L 123.653696 245.377209 
L 124.048461 235.310856 
L 124.443226 234.634126 
L 125.232756 224.990729 
L 126.022285 215.601105 
L 126.41705 212.640413 
L 126.811815 205.957708 
L 127.206579 208.833808 
L 127.601344 200.374688 
L 127.996109 200.628462 
L 128.390874 201.305191 
L 129.180403 190.223743 
L 129.575168 191.577203 
L 129.969933 189.377831 
L 130.364698 180.15739 
L 130.759462 185.402045 
L 131.154227 174.405188 
L 131.548992 175.504874 
L 131.943757 168.90676 
L 132.338521 166.961162 
L 132.733286 169.414307 
L 133.128051 161.293551 
L 133.522816 166.453615 
L 133.91758 160.701413 
L 134.312345 158.248268 
L 134.70711 158.248268 
L 135.101875 150.804242 
L 135.49664 152.74984 
L 135.891404 144.290719 
L 136.286169 148.689462 
L 136.680934 148.435688 
L 137.075699 148.520279 
L 137.470463 143.867763 
L 137.865228 143.275625 
L 138.259993 142.091348 
L 138.654758 138.200153 
L 139.049522 139.130656 
L 139.444287 133.632227 
L 139.839052 135.408643 
L 140.233817 133.293863 
L 140.628582 136.254555 
L 141.023346 132.363359 
L 141.418111 130.079397 
L 141.812876 130.163988 
L 142.207641 129.402667 
L 142.602405 128.302982 
L 142.99717 125.426881 
L 143.391935 127.795434 
L 144.181464 122.804553 
L 144.576229 124.834742 
L 144.970994 122.212415 
L 145.365759 118.828767 
L 145.760524 120.097635 
L 146.155288 116.206439 
L 146.550053 118.405811 
L 146.944818 115.191345 
L 147.339583 117.898263 
L 147.734347 114.85298 
L 148.129112 116.544804 
L 148.523877 117.559899 
L 148.918642 116.375622 
L 149.313406 113.41493 
L 149.708171 111.638514 
L 150.497701 111.638514 
L 150.892466 111.807697 
L 151.28723 107.83191 
L 151.681995 108.931596 
L 152.07676 106.478451 
L 152.471525 109.100778 
L 153.261054 106.39386 
L 153.655819 111.638514 
L 154.050584 104.702035 
L 154.445348 107.070589 
L 154.840113 103.263985 
L 155.234878 103.263985 
L 155.629643 103.686941 
L 156.024407 105.0404 
L 156.419172 104.786627 
L 156.813937 102.164299 
L 157.208702 101.741343 
L 157.603467 103.856123 
L 157.998231 97.173418 
L 158.392996 101.402978 
L 158.787761 99.880337 
L 159.57729 99.880337 
L 159.972055 99.034425 
L 160.36682 99.37279 
L 160.761585 98.949833 
L 161.156349 97.596374 
L 161.551114 97.511783 
L 161.945879 99.626563 
L 162.340644 97.004236 
L 162.735409 93.451405 
L 163.130173 98.780651 
L 163.524938 96.327506 
L 164.314468 93.451405 
L 164.709232 96.242915 
L 165.103997 93.451405 
L 165.498762 93.197632 
L 165.893527 97.850148 
L 166.288291 92.35172 
L 167.077821 93.874361 
L 167.472586 91.590399 
L 167.867351 93.620588 
L 168.262115 93.451405 
L 168.65688 92.774676 
L 169.051645 91.252034 
L 169.44641 90.913669 
L 169.841174 91.67499 
L 170.235939 90.406122 
L 170.630704 92.182537 
L 171.025469 90.067757 
L 171.420233 89.052663 
L 171.814998 90.321531 
L 172.209763 90.236939 
L 172.604528 89.983166 
L 172.999293 88.88348 
L 173.394057 89.306436 
L 173.788822 88.122159 
L 174.183587 89.391027 
L 174.578352 88.291342 
L 174.973116 88.122159 
L 175.367881 87.44543 
L 175.762646 86.261153 
L 176.157411 88.88348 
L 176.552175 89.813983 
L 176.94694 92.182537 
L 177.341705 87.868386 
L 177.73647 86.176562 
L 178.525999 83.892599 
L 178.920764 85.669014 
L 179.315529 86.261153 
L 180.105058 83.97719 
L 180.499823 86.684109 
L 180.894588 87.44543 
L 181.289353 85.753606 
L 181.684117 86.7687 
L 182.078882 83.385052 
L 182.473647 86.09197 
L 182.868412 84.823102 
L 183.263177 85.076876 
L 183.657941 83.723417 
L 184.052706 83.554234 
L 184.447471 84.65392 
L 184.842236 84.315555 
L 185.237 82.792913 
L 186.02653 82.369957 
L 186.421295 82.877505 
L 186.816059 85.076876 
L 187.605589 81.86241 
L 188.000354 82.792913 
L 188.395119 82.792913 
L 188.789883 84.230964 
L 189.184648 80.847316 
L 189.579413 81.86241 
L 189.974178 80.762724 
L 190.368942 82.031593 
L 191.158472 80.508951 
L 191.553237 82.116184 
L 191.948001 82.031593 
L 192.342766 81.270272 
L 192.737531 81.693228 
L 193.132296 81.016498 
L 193.52706 79.832221 
L 193.921825 81.608637 
L 194.31659 79.324674 
L 194.711355 80.255177 
L 195.10612 79.409265 
L 195.500884 80.678133 
L 195.895649 80.255177 
L 196.290414 82.369957 
L 196.685179 81.439454 
L 197.079943 81.270272 
L 197.474708 81.777819 
L 197.869473 79.493856 
L 198.264238 80.42436 
L 198.659002 78.647944 
L 199.053767 78.055806 
L 199.448532 79.409265 
L 199.843297 79.493856 
L 200.238062 76.95612 
L 200.632826 80.170586 
L 201.027591 77.379076 
L 201.422356 80.762724 
L 201.817121 78.647944 
L 202.60665 77.886624 
L 203.39618 77.463667 
L 203.790944 79.155492 
L 204.185709 77.971215 
L 204.580474 79.578448 
L 205.370004 77.802032 
L 205.764768 76.279391 
L 206.159533 75.771843 
L 206.554298 78.140397 
L 206.949063 77.886624 
L 207.343827 78.055806 
L 207.738592 76.702347 
L 208.133357 77.040711 
L 208.528122 76.279391 
L 208.922886 74.587567 
L 209.317651 76.617755 
L 209.712416 75.856435 
L 210.107181 78.055806 
L 210.501946 77.379076 
L 210.89671 75.095114 
L 211.291475 77.548259 
L 211.68624 76.702347 
L 212.081005 74.587567 
L 212.475769 74.84134 
L 212.870534 76.617755 
L 213.265299 75.348887 
L 213.660064 76.617755 
L 214.054828 75.095114 
L 214.449593 75.51807 
L 214.844358 77.040711 
L 215.239123 76.448573 
L 215.633888 77.717441 
L 216.423417 74.756749 
L 216.818182 75.602661 
L 217.212947 78.394171 
L 217.607711 75.264296 
L 218.002476 77.125303 
L 218.397241 76.279391 
L 218.792006 74.587567 
L 219.18677 75.348887 
L 219.581535 75.348887 
L 219.9763 75.179705 
L 220.371065 74.080019 
L 220.76583 74.84134 
L 221.160594 74.84134 
L 221.555359 72.980334 
L 221.950124 73.487881 
L 222.344889 74.84134 
L 222.739653 72.388195 
L 223.134418 75.095114 
L 223.529183 72.219013 
L 223.923948 76.617755 
L 224.318712 73.064925 
L 225.108242 75.687252 
L 226.292536 71.542283 
L 226.687301 74.502975 
L 227.082066 74.249202 
L 227.476831 74.164611 
L 227.871595 73.741654 
L 228.26636 74.502975 
L 228.661125 72.04983 
L 229.05589 73.234107 
L 229.450654 73.910837 
L 229.845419 71.880648 
L 230.240184 71.796057 
L 230.634949 73.657063 
L 231.029713 74.333793 
L 231.424478 72.557378 
L 231.819243 71.711466 
L 232.214008 72.303604 
L 232.608773 72.557378 
L 233.003537 73.064925 
L 233.398302 72.388195 
L 233.793067 72.557378 
L 234.187832 73.572472 
L 234.582596 71.457692 
L 234.977361 71.119327 
L 235.372126 70.61178 
L 235.766891 71.626874 
L 236.161655 74.164611 
L 236.55642 71.034736 
L 236.951185 71.711466 
L 237.34595 71.796057 
L 237.740715 72.980334 
L 238.135479 69.173729 
L 238.925009 70.950145 
L 239.319774 73.234107 
L 239.714538 72.895742 
L 240.109303 70.865554 
L 240.504068 70.104233 
L 240.898833 70.527189 
L 241.293597 73.40329 
L 241.688362 71.373101 
L 242.083127 70.527189 
L 242.477892 70.950145 
L 242.872657 71.965239 
L 243.267421 69.765868 
L 244.056951 70.188824 
L 244.451716 72.219013 
L 244.84648 71.28851 
L 245.241245 68.666182 
L 245.63601 70.865554 
L 246.030775 70.104233 
L 246.425539 70.780962 
L 246.820304 69.089138 
L 247.215069 71.457692 
L 247.609834 72.219013 
L 248.004599 68.497 
L 248.399363 71.542283 
L 248.794128 72.134422 
L 249.188893 69.258321 
L 249.583658 71.542283 
L 249.978422 68.835365 
L 250.373187 70.865554 
L 250.767952 71.28851 
L 251.162717 68.666182 
L 251.557481 70.696371 
L 251.952246 70.780962 
L 252.347011 69.173729 
L 252.741776 69.512094 
L 253.136541 68.835365 
L 253.531305 68.412409 
L 253.92607 70.104233 
L 254.320835 68.666182 
L 254.7156 68.074044 
L 255.110364 68.919956 
L 255.505129 68.327817 
L 255.899894 70.019641 
L 256.294659 67.651088 
L 256.689423 70.865554 
L 257.084188 69.004547 
L 257.478953 68.497 
L 257.873718 69.004547 
L 258.268482 69.173729 
L 258.663247 70.780962 
L 259.058012 69.342912 
L 259.452777 68.750773 
L 259.847542 69.004547 
L 260.242306 69.004547 
L 260.637071 69.173729 
L 261.031836 68.497 
L 261.426601 68.497 
L 261.821365 70.104233 
L 262.21613 68.919956 
L 262.610895 66.466811 
L 263.00566 68.581591 
L 263.400424 69.427503 
L 263.795189 67.989453 
L 264.189954 67.566497 
L 264.584719 67.481905 
L 264.979484 70.358006 
L 265.374248 67.989453 
L 265.769013 69.850459 
L 266.163778 67.058949 
L 266.558543 67.82027 
L 266.953307 69.681277 
L 267.348072 67.651088 
L 267.742837 67.904861 
L 268.137602 67.058949 
L 268.532366 67.481905 
L 268.927131 67.651088 
L 269.321896 68.919956 
L 269.716661 65.70549 
L 270.111426 65.536308 
L 270.50619 67.651088 
L 270.900955 67.312723 
L 271.29572 69.089138 
L 271.690485 65.282534 
L 272.085249 67.735679 
L 272.480014 67.989453 
L 272.874779 67.143541 
L 273.269544 66.635993 
L 273.664308 66.974358 
L 274.059073 68.835365 
L 274.453838 66.974358 
L 274.848603 67.82027 
L 275.243368 67.058949 
L 275.638132 66.805176 
L 276.032897 67.312723 
L 276.427662 67.058949 
L 276.822427 68.919956 
L 277.217191 66.043855 
L 277.611956 67.143541 
L 278.006721 66.043855 
L 278.401486 67.143541 
L 278.79625 66.128446 
L 279.191015 66.213037 
L 279.58578 68.581591 
L 279.980545 66.551402 
L 280.37531 67.143541 
L 281.164839 66.889767 
L 281.559604 64.352031 
L 281.954369 66.466811 
L 282.349133 65.451716 
L 282.743898 65.536308 
L 283.138663 66.213037 
L 283.533428 67.143541 
L 283.928192 64.944169 
L 284.322957 67.143541 
L 284.717722 65.367125 
L 285.112487 66.635993 
L 285.507252 66.297628 
L 285.902016 65.197943 
L 286.296781 65.70549 
L 287.086311 67.481905 
L 287.481075 66.38222 
L 287.87584 66.213037 
L 288.270605 64.182848 
L 288.66537 66.043855 
L 289.060134 65.197943 
L 289.454899 65.197943 
L 289.849664 66.720584 
L 290.244429 67.228132 
L 290.639193 65.70549 
L 291.033958 66.635993 
L 291.823488 65.282534 
L 292.218253 66.043855 
L 292.613017 64.26744 
L 293.007782 64.26744 
L 293.402547 65.282534 
L 293.797312 65.197943 
L 294.192076 66.466811 
L 294.586841 66.128446 
L 294.981606 64.521213 
L 295.376371 66.128446 
L 296.1659 63.59071 
L 296.560665 65.536308 
L 297.350195 64.182848 
L 297.744959 64.013666 
L 298.139724 63.506119 
L 298.534489 66.38222 
L 298.929254 64.605804 
L 299.324018 65.02876 
L 299.718783 64.944169 
L 300.113548 62.744798 
L 300.508313 63.083163 
L 300.903077 63.759892 
L 301.297842 64.859578 
L 301.692607 64.436622 
L 302.087372 63.759892 
L 302.482137 65.113352 
L 302.876901 64.859578 
L 303.271666 65.113352 
L 303.666431 65.959264 
L 304.061196 64.352031 
L 304.45596 66.043855 
L 304.850725 62.91398 
L 305.24549 64.013666 
L 305.640255 64.013666 
L 306.035019 62.998571 
L 306.429784 64.690396 
L 306.824549 64.013666 
L 307.219314 63.083163 
L 307.614079 64.521213 
L 308.008843 64.859578 
L 308.798373 63.506119 
L 309.193138 64.182848 
L 309.587902 64.352031 
L 309.982667 63.336936 
L 310.377432 62.998571 
L 310.772197 63.336936 
L 311.561726 64.352031 
L 311.956491 62.744798 
L 312.351256 62.068068 
L 313.140785 63.929075 
L 313.53555 62.406433 
L 313.930315 64.098257 
L 314.32508 63.336936 
L 314.719844 63.167754 
L 315.114609 62.575615 
L 315.509374 63.675301 
L 315.904139 63.336936 
L 316.298903 64.182848 
L 316.693668 64.605804 
L 317.088433 62.321842 
L 317.483198 62.660207 
L 318.272727 62.829389 
L 318.667492 63.59071 
L 319.062257 63.336936 
L 319.457022 62.91398 
L 319.851786 63.336936 
L 320.641316 62.575615 
L 321.036081 63.336936 
L 321.82561 61.814295 
L 322.220375 62.575615 
L 322.61514 62.829389 
L 323.009904 62.660207 
L 323.404669 63.929075 
L 323.799434 61.814295 
L 324.194199 62.152659 
L 324.588964 61.47593 
L 324.983728 61.814295 
L 325.378493 62.91398 
L 325.773258 61.560521 
L 326.168023 63.336936 
L 326.562787 63.083163 
L 326.957552 62.491024 
L 327.352317 62.744798 
L 327.747082 63.844484 
L 328.141846 63.083163 
L 328.536611 64.098257 
L 328.931376 62.491024 
L 329.326141 61.729703 
L 329.720906 62.91398 
L 330.11567 61.137565 
L 330.510435 62.152659 
L 330.9052 61.898886 
L 331.299965 62.152659 
L 331.694729 62.068068 
L 332.089494 62.152659 
L 332.484259 63.252345 
L 332.879024 62.406433 
L 333.273788 61.898886 
L 333.668553 62.321842 
L 334.063318 60.545427 
L 334.458083 62.998571 
L 334.852848 62.744798 
L 335.247612 62.152659 
L 335.642377 62.660207 
L 336.037142 62.152659 
L 336.431907 61.983477 
L 336.826671 61.391339 
L 337.221436 61.814295 
L 337.616201 60.545427 
L 338.800495 62.068068 
L 339.19526 61.391339 
L 339.590025 61.306747 
L 339.98479 60.376244 
L 340.379554 61.222156 
L 340.774319 60.545427 
L 341.169084 60.883791 
L 341.563849 59.530332 
L 341.958613 60.883791 
L 342.353378 61.560521 
L 342.748143 61.306747 
L 343.142908 61.898886 
L 343.537672 62.152659 
L 343.932437 60.883791 
L 344.327202 61.729703 
L 344.721967 61.391339 
L 345.116732 60.460835 
L 345.511496 61.137565 
L 345.906261 60.7992 
L 346.301026 59.868697 
L 346.695791 61.898886 
L 347.090555 61.47593 
L 347.48532 60.460835 
L 347.880085 61.052974 
L 348.27485 62.406433 
L 348.669614 60.460835 
L 349.064379 59.868697 
L 350.248674 61.137565 
L 351.038203 59.868697 
L 351.432968 60.545427 
L 351.827733 60.545427 
L 352.222497 59.614923 
L 352.617262 59.445741 
L 353.012027 60.883791 
L 354.196321 60.207062 
L 354.591086 60.291653 
L 354.985851 60.7992 
L 355.380615 59.445741 
L 355.77538 61.47593 
L 356.170145 59.699514 
L 356.56491 59.868697 
L 356.959675 60.7992 
L 357.354439 60.376244 
L 357.749204 62.406433 
L 358.143969 59.699514 
L 358.538734 61.47593 
L 358.933498 60.545427 
L 359.328263 62.660207 
L 360.117793 59.022785 
L 360.512557 61.306747 
L 360.907322 59.784106 
L 361.302087 59.784106 
L 361.696852 60.460835 
L 362.091617 59.191967 
L 362.486381 58.853602 
L 362.881146 59.953288 
L 363.275911 60.376244 
L 363.670676 62.237251 
L 364.06544 60.122471 
L 365.249735 59.445741 
L 365.644499 60.630018 
L 366.039264 59.445741 
L 366.434029 60.883791 
L 367.223559 59.868697 
L 367.618323 60.122471 
L 368.013088 60.630018 
L 368.407853 60.545427 
L 368.802618 59.614923 
L 369.986912 60.376244 
L 370.381677 59.699514 
L 370.776441 61.052974 
L 371.565971 59.107376 
L 371.960736 60.037879 
L 372.355501 60.037879 
L 372.750265 59.445741 
L 373.14503 60.7992 
L 373.93456 59.445741 
L 374.329324 60.207062 
L 374.724089 60.460835 
L 375.118854 59.191967 
L 375.513619 59.614923 
L 375.908383 58.769011 
L 376.303148 59.445741 
L 376.697913 59.784106 
L 377.092678 61.052974 
L 377.487443 60.122471 
L 377.882207 59.784106 
L 378.276972 58.092282 
L 378.671737 59.445741 
L 379.066502 61.645112 
L 379.461266 59.445741 
L 379.856031 60.545427 
L 380.250796 59.699514 
L 380.645561 59.868697 
L 381.040325 59.445741 
L 381.43509 58.853602 
L 381.829855 59.276558 
L 382.22462 58.68442 
L 382.619385 59.445741 
L 383.014149 59.445741 
L 383.408914 58.68442 
L 383.803679 59.445741 
L 384.198444 59.953288 
L 384.593208 58.261464 
L 385.777503 60.968383 
L 386.567032 58.515238 
L 386.961797 59.784106 
L 387.356562 59.191967 
L 387.751326 59.784106 
L 388.146091 59.530332 
L 388.540856 59.614923 
L 388.935621 59.107376 
L 389.330386 58.853602 
L 389.72515 59.276558 
L 390.119915 59.276558 
L 390.51468 58.599829 
L 390.909445 58.938194 
L 391.304209 59.530332 
L 391.698974 58.599829 
L 392.093739 59.614923 
L 393.278033 58.853602 
L 393.672798 58.769011 
L 394.067563 60.376244 
L 394.462328 59.107376 
L 394.857092 58.938194 
L 395.646622 59.191967 
L 396.041387 58.853602 
L 396.436151 59.445741 
L 397.225681 59.868697 
L 397.620446 60.968383 
L 398.01521 58.430646 
L 398.409975 59.530332 
L 399.199505 58.515238 
L 399.59427 59.191967 
L 399.989034 59.022785 
L 400.383799 59.614923 
L 400.778564 59.530332 
L 401.173329 59.614923 
L 401.568093 59.530332 
L 402.357623 58.938194 
L 402.752388 58.515238 
L 403.147152 58.430646 
L 403.541917 59.699514 
L 403.936682 58.515238 
L 404.331447 57.923099 
L 404.726212 59.276558 
L 405.120976 59.022785 
L 405.515741 59.022785 
L 405.910506 58.00769 
L 406.700035 58.769011 
L 407.0948 59.191967 
L 407.489565 59.36115 
L 407.88433 58.261464 
L 408.279094 58.515238 
L 408.673859 58.938194 
L 409.068624 59.191967 
L 409.463389 58.261464 
L 409.858154 59.36115 
L 410.647683 58.853602 
L 411.042448 58.176873 
L 411.437213 59.191967 
L 411.831977 58.092282 
L 412.226742 58.261464 
L 412.621507 58.00769 
L 413.016272 58.599829 
L 413.411036 58.853602 
L 413.805801 58.769011 
L 414.200566 58.853602 
L 414.595331 59.699514 
L 414.990096 58.68442 
L 415.38486 59.191967 
L 415.779625 58.261464 
L 416.17439 58.092282 
L 416.569155 58.68442 
L 416.963919 58.68442 
L 417.358684 58.261464 
L 417.753449 59.107376 
L 418.148214 59.276558 
L 418.542978 57.838508 
L 418.937743 57.753917 
L 419.332508 58.00769 
L 420.122037 57.24637 
L 420.516802 58.430646 
L 420.911567 57.923099 
L 421.306332 58.261464 
L 421.701097 57.584734 
L 422.095861 58.68442 
L 422.490626 58.261464 
L 422.885391 59.107376 
L 423.280156 58.853602 
L 423.67492 58.430646 
L 424.46445 58.430646 
L 424.859215 58.00769 
L 425.253979 58.346055 
L 425.648744 59.107376 
L 426.043509 58.430646 
L 426.438274 58.430646 
L 426.833039 58.261464 
L 427.227803 57.584734 
L 427.622568 58.938194 
L 428.017333 58.430646 
L 428.412098 59.107376 
L 429.201627 57.838508 
L 429.596392 58.092282 
L 429.991157 58.853602 
L 430.385921 58.092282 
L 430.780686 57.753917 
L 431.175451 58.68442 
L 431.964981 58.430646 
L 432.359745 58.346055 
L 432.75451 59.022785 
L 433.149275 57.753917 
L 433.54404 58.68442 
L 433.938804 59.107376 
L 434.333569 58.853602 
L 434.728334 58.176873 
L 435.123099 57.753917 
L 435.912628 58.68442 
L 436.702158 58.346055 
L 437.096923 57.669326 
L 437.491687 58.176873 
L 437.886452 58.092282 
L 438.281217 58.769011 
L 438.675982 59.022785 
L 439.465511 58.261464 
L 439.860276 59.191967 
L 440.255041 58.176873 
L 440.649805 58.599829 
L 441.04457 59.953288 
L 441.439335 58.430646 
L 441.8341 58.599829 
L 442.228865 58.599829 
L 442.623629 57.669326 
L 443.018394 58.430646 
L 443.413159 58.430646 
L 443.807924 56.823414 
L 444.202688 59.614923 
L 444.597453 58.430646 
L 444.992218 58.430646 
L 445.386983 57.923099 
L 445.781747 58.346055 
L 446.176512 58.515238 
L 446.966042 58.430646 
L 447.360807 58.092282 
L 447.755571 58.769011 
L 448.150336 58.68442 
L 448.545101 57.330961 
L 448.939866 58.092282 
L 449.33463 59.276558 
L 449.729395 57.753917 
L 450.12416 57.753917 
L 450.518925 58.00769 
L 450.913689 58.68442 
L 451.308454 57.24637 
L 451.703219 58.261464 
L 452.097984 57.330961 
L 452.492748 58.599829 
L 453.282278 57.500143 
L 453.677043 57.923099 
L 454.071808 57.584734 
L 454.466572 58.769011 
L 454.861337 57.330961 
L 455.256102 58.00769 
L 455.650867 57.161778 
L 456.045631 57.753917 
L 456.440396 58.092282 
L 456.835161 57.923099 
L 457.229926 58.00769 
L 457.62469 58.261464 
L 458.019455 58.176873 
L 458.41422 58.68442 
L 458.808985 57.838508 
L 459.20375 58.261464 
L 459.598514 58.261464 
L 460.782809 57.161778 
L 461.177573 57.415552 
L 461.572338 57.500143 
L 461.967103 57.24637 
L 462.361868 58.430646 
L 462.756632 57.330961 
L 463.151397 57.669326 
L 463.546162 57.753917 
L 463.940927 58.346055 
L 465.125221 57.584734 
L 465.519986 57.838508 
L 465.914751 57.753917 
L 466.309515 58.092282 
L 466.70428 57.838508 
L 467.099045 57.753917 
L 467.49381 58.176873 
L 467.888574 57.161778 
L 468.283339 57.584734 
L 468.678104 57.077187 
L 469.072869 56.231275 
L 469.467634 57.500143 
L 469.862398 57.838508 
L 470.257163 57.584734 
L 470.651928 57.077187 
L 471.046693 57.669326 
L 471.836222 57.753917 
L 472.230987 57.330961 
L 472.625752 57.923099 
L 473.020516 57.753917 
L 473.415281 57.330961 
L 473.810046 58.176873 
L 474.204811 57.330961 
L 474.99434 57.669326 
L 475.389105 57.669326 
L 475.78387 57.500143 
L 476.178635 56.654231 
L 476.573399 58.515238 
L 476.968164 56.823414 
L 477.362929 57.669326 
L 477.757694 58.176873 
L 478.152458 57.24637 
L 478.547223 56.738822 
L 478.941988 56.56964 
L 479.336753 57.500143 
L 479.731518 56.823414 
L 480.521047 58.261464 
L 480.915812 57.584734 
L 481.310577 57.500143 
L 481.705341 58.00769 
L 482.494871 57.330961 
L 482.889636 58.00769 
L 483.2844 58.176873 
L 483.679165 57.584734 
L 484.07393 57.669326 
L 484.468695 57.161778 
L 484.863459 57.753917 
L 485.652989 57.330961 
L 486.047754 57.500143 
L 486.442519 57.838508 
L 486.837283 57.500143 
L 487.626813 56.315866 
L 488.021578 56.992596 
L 488.416342 57.077187 
L 488.811107 56.908005 
L 489.205872 56.485049 
L 489.600637 56.654231 
L 489.995401 57.077187 
L 490.390166 57.669326 
L 490.784931 56.231275 
L 491.179696 56.823414 
L 491.969225 57.24637 
L 492.36399 57.500143 
L 492.758755 56.738822 
L 493.15352 57.669326 
L 493.548284 56.485049 
L 493.943049 57.923099 
L 494.337814 57.077187 
L 494.732579 56.738822 
L 495.127343 57.669326 
L 495.522108 56.992596 
L 495.916873 57.077187 
L 496.311638 57.584734 
L 496.706403 57.753917 
L 497.101167 57.584734 
L 497.890697 56.823414 
L 498.285462 56.823414 
L 498.680226 58.00769 
L 499.074991 57.161778 
L 499.469756 57.330961 
L 499.864521 56.992596 
L 500.65405 57.584734 
L 501.048815 57.584734 
L 501.44358 57.330961 
L 501.838345 56.485049 
L 502.233109 57.077187 
L 502.627874 55.977501 
L 503.022639 57.415552 
L 503.417404 57.161778 
L 503.812168 57.415552 
L 504.601698 56.908005 
L 504.996463 57.415552 
L 505.391227 56.485049 
L 505.785992 57.24637 
L 506.180757 57.753917 
L 506.575522 57.161778 
L 506.970287 57.330961 
L 507.365051 58.176873 
L 507.759816 57.077187 
L 508.154581 57.584734 
L 508.549346 56.485049 
L 508.94411 57.415552 
L 509.338875 57.077187 
L 509.73364 56.485049 
L 510.128405 57.584734 
L 510.917934 56.823414 
L 511.312699 56.823414 
L 511.707464 57.24637 
L 512.102229 57.24637 
L 512.496993 57.923099 
L 512.891758 57.500143 
L 513.286523 57.838508 
L 513.681288 57.669326 
L 514.076052 56.908005 
L 514.470817 57.24637 
L 514.865582 57.330961 
L 515.260347 56.908005 
L 515.655111 57.584734 
L 516.444641 57.161778 
L 516.839406 57.500143 
L 517.23417 57.077187 
L 517.628935 57.24637 
L 518.0237 56.56964 
L 518.418465 56.908005 
L 518.81323 56.400458 
L 519.207994 57.753917 
L 519.602759 56.485049 
L 520.392289 56.400458 
L 520.787053 57.161778 
L 521.181818 56.738822 
L 521.576583 56.485049 
L 521.971348 56.823414 
L 522.366112 56.823414 
L 522.760877 57.161778 
L 523.155642 56.992596 
L 523.550407 57.077187 
L 523.945172 57.669326 
L 524.339936 57.24637 
L 524.734701 57.077187 
L 525.129466 57.077187 
L 525.524231 56.56964 
L 525.918995 56.823414 
L 526.31376 56.908005 
L 526.708525 56.738822 
L 527.10329 56.315866 
L 527.498054 57.415552 
L 527.892819 56.908005 
L 528.287584 57.330961 
L 528.682349 56.400458 
L 529.077114 57.077187 
L 529.471878 56.908005 
L 529.866643 57.669326 
L 530.261408 56.823414 
L 530.656173 56.908005 
L 531.050937 56.56964 
L 532.235232 56.738822 
L 532.629996 55.977501 
L 533.024761 57.24637 
L 534.209056 55.554545 
L 534.60382 56.823414 
L 535.39335 57.077187 
L 536.182879 56.146684 
L 536.577644 56.823414 
L 537.367174 56.315866 
L 537.761938 55.639137 
L 538.156703 56.231275 
L 538.551468 57.838508 
L 538.946233 57.077187 
L 539.340998 56.56964 
L 540.130527 56.823414 
L 540.525292 57.161778 
L 540.920057 56.654231 
L 541.314821 57.077187 
L 541.709586 57.330961 
L 542.104351 56.56964 
L 542.499116 58.00769 
L 542.89388 56.992596 
L 543.288645 56.56964 
L 543.68341 56.992596 
L 544.078175 56.908005 
L 544.47294 55.977501 
L 544.867704 56.738822 
L 545.262469 56.992596 
L 545.657234 56.908005 
L 546.051999 55.89291 
L 546.446763 56.400458 
L 546.841528 56.654231 
L 547.236293 57.330961 
L 547.631058 55.723728 
L 548.025822 56.56964 
L 549.210117 56.738822 
L 549.604881 57.161778 
L 549.999646 56.823414 
L 550.394411 57.753917 
L 550.789176 56.231275 
L 551.183941 57.077187 
L 551.578705 56.485049 
L 551.97347 56.738822 
L 552.368235 56.654231 
L 552.763 57.077187 
L 553.157764 55.977501 
L 553.552529 57.24637 
L 553.947294 56.823414 
L 554.342059 57.24637 
L 554.736823 56.654231 
L 555.131588 56.56964 
L 555.526353 57.077187 
L 555.921118 56.56964 
L 556.315883 56.992596 
L 556.710647 56.062093 
L 557.105412 57.077187 
L 557.500177 56.315866 
L 557.894942 56.485049 
L 558.289706 57.500143 
L 558.684471 56.654231 
L 559.474001 56.908005 
L 559.868765 56.738822 
L 560.26353 56.315866 
L 560.658295 57.161778 
L 561.05306 56.908005 
L 561.447825 57.415552 
L 561.842589 57.330961 
L 562.237354 56.823414 
L 562.632119 56.738822 
L 563.421648 56.992596 
L 563.816413 56.400458 
L 564.211178 56.315866 
L 564.605943 57.24637 
L 565.000707 57.753917 
L 565.790237 56.908005 
L 566.185002 56.992596 
L 566.579767 56.738822 
L 566.974531 56.908005 
L 567.369296 56.654231 
L 567.764061 56.654231 
L 568.158826 57.500143 
L 568.55359 57.669326 
L 568.948355 57.24637 
L 569.737885 56.062093 
L 570.132649 56.738822 
L 570.527414 56.56964 
L 570.922179 56.738822 
L 571.711709 56.315866 
L 572.106473 57.077187 
L 572.501238 56.231275 
L 572.896003 56.485049 
L 573.290768 56.992596 
L 573.685532 56.231275 
L 574.080297 56.654231 
L 574.475062 56.231275 
L 574.869827 56.738822 
L 575.264591 56.146684 
L 575.659356 57.161778 
L 576.054121 56.654231 
L 576.448886 56.908005 
L 576.843651 56.231275 
L 577.238415 56.823414 
L 577.63318 56.485049 
L 578.027945 57.24637 
L 578.42271 56.231275 
L 578.817474 57.415552 
L 579.212239 56.992596 
L 579.607004 56.400458 
L 580.001769 56.654231 
L 580.396533 56.654231 
L 580.791298 56.992596 
L 581.580828 56.908005 
L 581.975593 56.654231 
L 582.370357 57.24637 
L 582.765122 56.56964 
L 583.554652 56.823414 
L 583.949416 57.24637 
L 584.344181 56.485049 
L 584.738946 56.146684 
L 585.133711 56.654231 
L 585.528475 55.89291 
L 586.318005 56.315866 
L 586.71277 56.823414 
L 587.107534 56.908005 
L 587.502299 56.146684 
L 587.897064 56.654231 
L 588.291829 56.738822 
L 588.686594 56.231275 
L 589.476123 56.485049 
L 589.870888 56.400458 
L 590.265653 56.908005 
L 590.660417 56.315866 
L 591.055182 55.977501 
L 591.449947 56.315866 
L 592.239476 56.062093 
L 592.634241 56.654231 
L 593.029006 56.146684 
L 593.423771 56.654231 
L 593.818536 56.908005 
L 594.2133 56.485049 
L 594.608065 57.077187 
L 595.00283 56.738822 
L 595.397595 57.669326 
L 595.792359 56.654231 
L 596.187124 56.062093 
L 596.976654 56.823414 
L 597.371418 55.977501 
L 597.766183 56.992596 
L 598.160948 55.977501 
L 598.555713 56.654231 
L 598.950478 56.231275 
L 599.345242 56.062093 
L 599.740007 56.146684 
L 600.529537 56.738822 
L 600.924301 56.146684 
L 601.319066 56.654231 
L 601.713831 56.231275 
L 602.108596 56.485049 
L 602.50336 56.908005 
L 602.898125 57.161778 
L 603.29289 58.515238 
L 603.687655 56.400458 
L 604.08242 56.738822 
L 604.477184 56.485049 
L 604.871949 56.56964 
L 605.266714 56.062093 
L 606.056243 55.977501 
L 606.451008 56.315866 
L 606.845773 56.400458 
L 607.240538 56.315866 
L 607.635302 57.077187 
L 608.424832 56.146684 
L 608.819597 57.161778 
L 609.214362 56.231275 
L 609.609126 55.977501 
L 610.003891 56.56964 
L 610.398656 56.231275 
L 610.793421 55.639137 
L 611.188185 55.89291 
L 611.58295 56.56964 
L 611.977715 56.062093 
L 612.37248 56.738822 
L 612.767244 55.723728 
L 613.162009 56.146684 
L 613.951539 56.062093 
L 614.346304 55.977501 
L 614.741068 56.400458 
L 615.135833 56.062093 
L 615.530598 56.992596 
L 615.925363 56.400458 
L 616.320127 57.500143 
L 616.714892 57.24637 
L 617.109657 57.415552 
L 617.899186 56.823414 
L 618.293951 56.908005 
L 618.688716 56.400458 
L 619.083481 56.146684 
L 619.87301 56.315866 
L 620.267775 55.808319 
L 620.66254 55.977501 
L 621.057305 56.485049 
L 621.452069 56.56964 
L 621.846834 56.400458 
L 622.241599 56.908005 
L 622.636364 56.146684 
L 622.636364 56.146684 
" style="fill:none;stroke:#1f77b4;stroke-linecap:square;stroke-width:0.5;"/>
   </g>
   <g id="line2d_32">
    <path clip-path="url(#p455c7bdce5)" d="M 115.363636 298.162121 
L 115.758401 300.107718 
L 116.153166 294.524699 
L 116.547931 295.370611 
L 116.942695 287.165264 
L 117.33746 291.81778 
L 117.732225 285.388849 
L 118.12699 284.881302 
L 118.521755 289.364635 
L 118.916519 277.77564 
L 119.311284 276.845137 
L 119.706049 276.591363 
L 120.100814 267.963061 
L 120.495578 265.08696 
L 120.890343 267.709287 
L 122.469402 248.845448 
L 122.864167 251.383184 
L 123.258932 241.401422 
L 123.653696 240.217145 
L 124.048461 234.464944 
L 124.443226 233.788214 
L 125.232756 223.975634 
L 125.62752 226.005823 
L 126.022285 219.576891 
L 126.811815 215.347331 
L 127.206579 209.425947 
L 127.601344 207.818714 
L 127.996109 207.818714 
L 128.390874 201.305191 
L 128.785638 197.329405 
L 129.180403 196.483493 
L 129.575168 191.492611 
L 129.969933 189.124058 
L 130.364698 182.695126 
L 130.759462 187.263051 
L 131.154227 181.849214 
L 131.548992 182.864309 
L 131.943757 175.92783 
L 132.338521 174.743553 
L 132.733286 170.091037 
L 133.128051 168.483804 
L 133.522816 165.353929 
L 133.91758 165.015564 
L 134.312345 155.118393 
L 134.70711 157.571538 
L 135.101875 153.172796 
L 135.49664 152.496066 
L 135.891404 148.774053 
L 136.286169 153.003613 
L 136.680934 151.39638 
L 137.075699 146.236317 
L 137.470463 145.644179 
L 137.865228 146.913047 
L 138.259993 143.360216 
L 138.654758 141.837574 
L 139.049522 145.221222 
L 139.839052 139.638203 
L 140.233817 134.731913 
L 140.628582 135.747008 
L 141.023346 136.254555 
L 141.418111 134.478139 
L 141.812876 128.21839 
L 142.207641 129.994806 
L 142.602405 130.248579 
L 142.99717 127.880026 
L 143.391935 127.626252 
L 143.7867 128.89512 
L 144.181464 126.188201 
L 144.576229 124.411786 
L 144.970994 126.188201 
L 145.365759 123.735056 
L 145.760524 122.719962 
L 146.155288 125.596063 
L 146.550053 119.674679 
L 146.944818 119.843861 
L 147.339583 120.774364 
L 147.734347 122.55078 
L 148.129112 118.997949 
L 148.523877 120.436 
L 149.313406 118.152037 
L 149.708171 118.067446 
L 150.102936 114.514615 
L 150.497701 114.007068 
L 150.892466 115.445118 
L 151.28723 113.837886 
L 151.681995 114.007068 
L 152.07676 114.599206 
L 152.471525 111.723105 
L 152.866289 111.130967 
L 153.261054 111.300149 
L 153.655819 108.931596 
L 154.050584 111.300149 
L 154.445348 109.100778 
L 154.840113 110.62342 
L 155.234878 107.578136 
L 155.629643 108.931596 
L 156.024407 110.708011 
L 156.419172 105.632539 
L 156.813937 107.239772 
L 157.208702 107.324363 
L 157.603467 105.0404 
L 157.998231 108.085684 
L 158.392996 104.955809 
L 159.182526 107.070589 
L 159.57729 102.164299 
L 159.972055 104.532853 
L 160.36682 99.119016 
L 160.761585 101.656752 
L 161.551114 100.726249 
L 161.945879 102.418073 
L 162.340644 100.472475 
L 162.735409 103.60235 
L 163.130173 100.303293 
L 163.524938 101.402978 
L 163.919703 101.233796 
L 164.314468 101.656752 
L 164.709232 99.203607 
L 165.103997 98.611469 
L 165.498762 96.919645 
L 165.893527 97.173418 
L 166.288291 100.557066 
L 166.683056 100.303293 
L 167.077821 98.188513 
L 167.472586 98.273104 
L 167.867351 98.949833 
L 168.262115 97.934739 
L 168.65688 94.889456 
L 169.051645 96.412097 
L 169.841174 97.850148 
L 170.235939 99.541972 
L 171.025469 92.436311 
L 171.814998 95.819959 
L 172.209763 94.551091 
L 172.604528 96.327506 
L 172.999293 95.143229 
L 173.394057 93.282223 
L 173.788822 97.427192 
L 174.183587 93.197632 
L 174.578352 94.212726 
L 174.973116 94.297317 
L 175.367881 95.566185 
L 175.762646 91.505807 
L 176.157411 92.774676 
L 176.552175 93.028449 
L 176.94694 94.128135 
L 178.131235 90.152348 
L 178.525999 94.551091 
L 178.920764 89.813983 
L 179.315529 92.013355 
L 179.710294 90.321531 
L 180.105058 91.167443 
L 180.499823 91.082851 
L 180.894588 92.013355 
L 181.289353 89.306436 
L 181.684117 90.490713 
L 182.078882 90.321531 
L 182.473647 90.659895 
L 182.868412 87.360838 
L 183.263177 91.505807 
L 183.657941 92.267128 
L 184.052706 87.868386 
L 184.447471 91.590399 
L 184.842236 91.082851 
L 185.237 91.082851 
L 185.631765 88.714298 
L 186.02653 90.913669 
L 186.421295 90.575304 
L 186.816059 86.514926 
L 187.210824 91.167443 
L 187.605589 88.375933 
L 188.395119 89.221845 
L 188.789883 89.475619 
L 189.184648 88.20675 
L 189.579413 89.729392 
L 189.974178 85.584423 
L 190.368942 85.669014 
L 190.763707 85.161467 
L 191.158472 86.430335 
L 191.553237 83.723417 
L 191.948001 85.33065 
L 192.342766 84.992285 
L 192.737531 86.09197 
L 193.132296 86.176562 
L 193.52706 87.276247 
L 193.921825 87.107065 
L 194.31659 85.753606 
L 194.711355 86.261153 
L 195.10612 86.176562 
L 195.500884 85.499832 
L 195.895649 86.684109 
L 196.290414 83.808008 
L 196.685179 86.684109 
L 197.079943 86.7687 
L 197.474708 86.599518 
L 197.869473 85.246058 
L 198.264238 87.868386 
L 198.659002 86.684109 
L 199.053767 82.623731 
L 199.448532 83.215869 
L 199.843297 87.44543 
L 200.632826 81.86241 
L 201.027591 84.907694 
L 201.422356 85.753606 
L 201.817121 84.823102 
L 202.211885 83.469643 
L 202.60665 84.738511 
L 203.001415 84.569329 
L 203.39618 82.031593 
L 203.790944 83.385052 
L 204.185709 81.86241 
L 204.580474 81.947001 
L 204.975239 84.569329 
L 205.370004 84.061781 
L 205.764768 81.101089 
L 206.159533 83.808008 
L 206.554298 82.877505 
L 206.949063 84.484737 
L 207.343827 81.270272 
L 207.738592 82.962096 
L 208.133357 81.777819 
L 208.528122 82.877505 
L 209.317651 80.593542 
L 209.712416 79.578448 
L 210.107181 79.493856 
L 210.501946 84.061781 
L 210.89671 82.454549 
L 211.291475 79.578448 
L 211.68624 82.031593 
L 212.081005 81.777819 
L 212.475769 81.693228 
L 212.870534 80.847316 
L 213.265299 82.623731 
L 213.660064 80.001404 
L 214.054828 82.454549 
L 214.449593 81.608637 
L 214.844358 81.524045 
L 215.239123 80.678133 
L 215.633888 81.270272 
L 216.028652 80.847316 
L 216.423417 82.031593 
L 216.818182 80.001404 
L 217.212947 80.42436 
L 217.607711 82.53914 
L 218.002476 77.886624 
L 218.397241 81.354863 
L 218.792006 82.53914 
L 219.18677 79.832221 
L 219.581535 81.270272 
L 219.9763 81.18568 
L 220.371065 79.663039 
L 221.160594 78.394171 
L 221.555359 81.608637 
L 221.950124 78.901718 
L 222.344889 77.886624 
L 222.739653 81.270272 
L 223.134418 77.040711 
L 223.529183 80.001404 
L 223.923948 78.901718 
L 224.318712 79.832221 
L 224.713477 79.493856 
L 225.108242 79.324674 
L 225.503007 78.901718 
L 225.897771 78.817127 
L 226.292536 78.901718 
L 226.687301 80.931907 
L 227.082066 79.916812 
L 227.476831 77.548259 
L 227.871595 79.409265 
L 228.26636 76.871529 
L 229.05589 77.971215 
L 229.450654 76.871529 
L 229.845419 77.294485 
L 230.240184 80.339768 
L 230.634949 77.125303 
L 231.029713 78.30958 
L 231.424478 78.140397 
L 231.819243 78.478762 
L 232.214008 77.209894 
L 232.608773 79.916812 
L 233.003537 77.125303 
L 233.398302 78.30958 
L 233.793067 78.394171 
L 234.187832 75.264296 
L 234.582596 79.578448 
L 234.977361 77.379076 
L 235.372126 77.040711 
L 235.766891 79.155492 
L 236.161655 76.448573 
L 236.951185 77.379076 
L 237.34595 78.901718 
L 237.740715 76.617755 
L 238.135479 75.771843 
L 238.530244 81.101089 
L 238.925009 77.040711 
L 239.319774 77.971215 
L 239.714538 76.871529 
L 240.109303 76.871529 
L 240.504068 76.025617 
L 240.898833 78.140397 
L 241.293597 76.95612 
L 241.688362 76.533164 
L 242.083127 78.394171 
L 242.477892 75.264296 
L 242.872657 77.040711 
L 243.267421 75.264296 
L 243.662186 76.533164 
L 244.056951 75.51807 
L 244.451716 76.025617 
L 244.84648 75.095114 
L 245.241245 77.717441 
L 245.63601 76.95612 
L 246.030775 75.348887 
L 246.425539 77.040711 
L 246.820304 76.702347 
L 247.215069 75.264296 
L 247.609834 77.125303 
L 248.004599 76.871529 
L 248.399363 77.125303 
L 248.794128 75.602661 
L 249.583658 73.657063 
L 249.978422 75.433479 
L 250.373187 74.587567 
L 250.767952 75.602661 
L 251.162717 75.51807 
L 251.557481 74.672158 
L 251.952246 75.179705 
L 252.347011 76.871529 
L 252.741776 75.602661 
L 253.136541 75.095114 
L 253.531305 74.84134 
L 253.92607 73.910837 
L 254.320835 72.472786 
L 254.7156 75.771843 
L 255.110364 75.771843 
L 255.505129 76.194799 
L 255.899894 75.687252 
L 256.294659 73.234107 
L 256.689423 73.741654 
L 257.084188 71.373101 
L 257.478953 74.502975 
L 257.873718 75.264296 
L 258.268482 75.010523 
L 258.663247 75.348887 
L 259.058012 73.657063 
L 259.452777 73.487881 
L 259.847542 72.811151 
L 260.242306 75.179705 
L 260.637071 76.533164 
L 261.031836 76.110208 
L 261.426601 72.72656 
L 262.610895 74.587567 
L 263.00566 74.84134 
L 263.400424 73.910837 
L 263.795189 70.950145 
L 264.189954 73.657063 
L 264.584719 74.418384 
L 264.979484 74.587567 
L 265.374248 71.626874 
L 265.769013 74.502975 
L 266.163778 72.04983 
L 266.558543 74.249202 
L 266.953307 74.249202 
L 267.348072 74.418384 
L 267.742837 72.811151 
L 268.137602 74.756749 
L 268.532366 74.080019 
L 268.927131 70.950145 
L 269.321896 72.72656 
L 269.716661 70.865554 
L 270.111426 73.910837 
L 270.50619 73.318698 
L 270.900955 72.04983 
L 271.29572 72.134422 
L 271.690485 70.865554 
L 272.480014 72.980334 
L 272.874779 72.811151 
L 273.269544 71.203918 
L 273.664308 71.796057 
L 274.059073 71.542283 
L 274.453838 73.149516 
L 274.848603 72.303604 
L 275.243368 70.950145 
L 275.638132 71.203918 
L 276.032897 70.104233 
L 276.427662 72.04983 
L 276.822427 72.303604 
L 277.217191 71.796057 
L 277.611956 73.995428 
L 278.006721 71.796057 
L 278.401486 71.626874 
L 278.79625 71.034736 
L 279.191015 71.965239 
L 279.58578 71.203918 
L 279.980545 72.980334 
L 280.37531 71.119327 
L 280.770074 71.203918 
L 281.164839 71.880648 
L 281.559604 70.358006 
L 281.954369 70.950145 
L 282.349133 69.681277 
L 282.743898 72.219013 
L 283.138663 72.303604 
L 283.533428 69.765868 
L 283.928192 73.40329 
L 284.322957 71.034736 
L 284.717722 74.249202 
L 285.112487 72.811151 
L 285.507252 70.442597 
L 285.902016 69.681277 
L 286.296781 69.93505 
L 286.691546 72.134422 
L 287.086311 70.104233 
L 287.481075 71.626874 
L 287.87584 69.512094 
L 288.270605 71.880648 
L 288.66537 70.019641 
L 289.060134 72.219013 
L 289.454899 69.089138 
L 290.244429 71.28851 
L 290.639193 69.596685 
L 291.033958 71.203918 
L 291.428723 69.596685 
L 291.823488 71.119327 
L 292.218253 70.527189 
L 292.613017 69.681277 
L 293.402547 71.711466 
L 293.797312 69.512094 
L 294.192076 69.512094 
L 294.586841 70.780962 
L 295.376371 69.850459 
L 295.771135 70.019641 
L 296.1659 70.527189 
L 296.95543 68.327817 
L 297.350195 69.342912 
L 297.744959 68.919956 
L 298.139724 68.666182 
L 298.534489 70.188824 
L 298.929254 68.074044 
L 299.718783 68.074044 
L 300.113548 69.765868 
L 300.508313 69.427503 
L 300.903077 68.497 
L 301.297842 68.581591 
L 301.692607 69.004547 
L 302.087372 68.919956 
L 302.482137 71.626874 
L 302.876901 69.089138 
L 303.271666 70.61178 
L 303.666431 67.735679 
L 304.061196 70.61178 
L 304.45596 68.412409 
L 304.850725 69.004547 
L 305.24549 68.750773 
L 305.640255 68.835365 
L 306.035019 72.04983 
L 306.429784 67.82027 
L 306.824549 67.735679 
L 307.219314 66.297628 
L 308.008843 69.681277 
L 308.403608 68.497 
L 308.798373 68.750773 
L 309.587902 67.82027 
L 309.982667 68.074044 
L 310.377432 67.82027 
L 310.772197 67.82027 
L 311.166961 67.651088 
L 311.561726 68.919956 
L 311.956491 66.889767 
L 312.351256 67.735679 
L 312.746021 67.481905 
L 313.140785 68.581591 
L 313.53555 67.058949 
L 314.32508 66.38222 
L 314.719844 67.735679 
L 315.114609 67.735679 
L 315.509374 68.919956 
L 315.904139 67.481905 
L 316.298903 67.566497 
L 316.693668 66.128446 
L 317.483198 68.412409 
L 317.877963 67.481905 
L 318.272727 67.143541 
L 318.667492 67.904861 
L 319.062257 67.312723 
L 319.851786 68.581591 
L 320.246551 68.412409 
L 320.641316 67.82027 
L 321.036081 68.919956 
L 321.430845 67.397314 
L 321.82561 68.243226 
L 322.220375 67.566497 
L 322.61514 67.651088 
L 323.009904 66.889767 
L 323.404669 68.835365 
L 323.799434 65.536308 
L 324.194199 67.228132 
L 324.588964 67.312723 
L 324.983728 66.466811 
L 325.378493 66.805176 
L 325.773258 65.536308 
L 326.168023 66.720584 
L 326.562787 65.959264 
L 326.957552 66.551402 
L 327.747082 67.989453 
L 328.141846 67.397314 
L 328.536611 67.566497 
L 328.931376 66.297628 
L 329.326141 67.735679 
L 329.720906 66.466811 
L 330.11567 66.466811 
L 330.510435 67.228132 
L 330.9052 66.720584 
L 331.299965 66.466811 
L 331.694729 66.635993 
L 332.089494 66.297628 
L 332.484259 67.143541 
L 333.273788 64.690396 
L 333.668553 67.481905 
L 334.063318 67.312723 
L 334.458083 66.128446 
L 334.852848 65.790081 
L 335.247612 66.466811 
L 335.642377 65.113352 
L 336.037142 65.70549 
L 336.431907 65.620899 
L 336.826671 64.859578 
L 337.221436 64.352031 
L 337.616201 65.536308 
L 338.40573 65.620899 
L 338.800495 65.874672 
L 339.19526 65.282534 
L 339.590025 65.790081 
L 339.98479 63.929075 
L 340.379554 65.790081 
L 340.774319 65.451716 
L 341.169084 64.352031 
L 341.563849 65.367125 
L 341.958613 65.197943 
L 342.353378 66.889767 
L 342.748143 64.352031 
L 343.142908 65.451716 
L 343.537672 65.70549 
L 343.932437 65.113352 
L 344.327202 65.282534 
L 344.721967 64.859578 
L 345.116732 65.367125 
L 345.511496 65.620899 
L 345.906261 66.466811 
L 346.301026 64.352031 
L 346.695791 64.690396 
L 347.090555 65.874672 
L 347.48532 65.282534 
L 347.880085 65.620899 
L 348.27485 65.282534 
L 348.669614 65.536308 
L 349.064379 64.26744 
L 349.459144 65.536308 
L 349.853909 64.521213 
L 350.643438 65.113352 
L 351.038203 63.844484 
L 351.432968 65.874672 
L 351.827733 64.352031 
L 352.222497 65.874672 
L 352.617262 63.59071 
L 353.012027 64.013666 
L 353.406792 66.38222 
L 353.801556 64.352031 
L 354.196321 66.128446 
L 354.591086 64.690396 
L 354.985851 64.521213 
L 355.77538 65.02876 
L 356.170145 64.436622 
L 356.56491 66.213037 
L 356.959675 65.451716 
L 357.354439 66.213037 
L 357.749204 64.859578 
L 358.143969 67.228132 
L 358.538734 65.451716 
L 358.933498 67.735679 
L 359.723028 63.759892 
L 360.117793 65.874672 
L 360.512557 64.605804 
L 360.907322 64.774987 
L 361.302087 64.690396 
L 361.696852 65.282534 
L 362.091617 63.929075 
L 362.881146 64.859578 
L 363.275911 64.859578 
L 363.670676 65.874672 
L 364.06544 64.605804 
L 364.460205 66.213037 
L 364.85497 64.013666 
L 365.249735 62.91398 
L 365.644499 64.859578 
L 366.039264 63.506119 
L 366.434029 63.506119 
L 366.828794 63.167754 
L 367.223559 64.182848 
L 367.618323 63.759892 
L 368.013088 64.182848 
L 368.407853 63.336936 
L 368.802618 64.182848 
L 369.197382 64.436622 
L 369.592147 63.675301 
L 369.986912 65.02876 
L 370.381677 63.336936 
L 370.776441 64.944169 
L 371.171206 64.774987 
L 371.960736 63.59071 
L 372.355501 65.282534 
L 372.750265 65.197943 
L 373.14503 64.774987 
L 373.539795 63.844484 
L 373.93456 63.675301 
L 374.329324 64.26744 
L 374.724089 63.336936 
L 375.118854 64.859578 
L 375.513619 63.336936 
L 376.303148 65.02876 
L 376.697913 63.59071 
L 377.487443 62.660207 
L 377.882207 63.759892 
L 378.276972 63.336936 
L 378.671737 64.013666 
L 379.066502 63.167754 
L 379.461266 64.521213 
L 380.250796 61.47593 
L 380.645561 62.575615 
L 381.040325 62.406433 
L 381.43509 65.197943 
L 381.829855 63.759892 
L 382.22462 63.252345 
L 382.619385 63.167754 
L 383.014149 63.59071 
L 383.408914 61.983477 
L 383.803679 62.575615 
L 384.198444 61.729703 
L 384.593208 62.744798 
L 384.987973 64.182848 
L 385.382738 64.521213 
L 385.777503 63.252345 
L 386.172267 62.829389 
L 386.567032 62.829389 
L 386.961797 62.406433 
L 387.356562 65.02876 
L 388.146091 63.252345 
L 388.540856 62.829389 
L 388.935621 63.929075 
L 389.330386 63.421527 
L 389.72515 62.152659 
L 390.119915 62.152659 
L 390.51468 62.744798 
L 390.909445 62.744798 
L 391.304209 61.983477 
L 391.698974 62.744798 
L 392.488504 63.336936 
L 392.883268 63.252345 
L 393.278033 65.620899 
L 393.672798 63.675301 
L 394.067563 64.690396 
L 394.462328 62.575615 
L 394.857092 63.083163 
L 395.251857 62.068068 
L 395.646622 62.152659 
L 396.041387 62.998571 
L 396.436151 63.252345 
L 396.830916 63.929075 
L 397.225681 61.137565 
L 398.01521 64.013666 
L 398.409975 61.983477 
L 398.80474 62.068068 
L 399.199505 63.252345 
L 399.59427 63.421527 
L 399.989034 64.013666 
L 400.383799 62.744798 
L 400.778564 63.252345 
L 401.173329 62.491024 
L 401.568093 63.083163 
L 401.962858 62.068068 
L 402.357623 62.744798 
L 403.147152 63.336936 
L 403.541917 60.883791 
L 403.936682 62.91398 
L 404.331447 63.167754 
L 404.726212 61.983477 
L 405.120976 63.929075 
L 405.515741 61.814295 
L 405.910506 61.898886 
L 406.305271 62.998571 
L 406.700035 62.068068 
L 407.0948 61.729703 
L 407.489565 60.968383 
L 407.88433 62.744798 
L 408.279094 61.560521 
L 408.673859 61.645112 
L 409.068624 61.052974 
L 409.463389 62.829389 
L 409.858154 62.998571 
L 410.252918 62.91398 
L 410.647683 63.506119 
L 411.437213 61.137565 
L 411.831977 61.391339 
L 412.226742 62.575615 
L 412.621507 62.91398 
L 413.016272 59.953288 
L 413.411036 62.660207 
L 413.805801 62.575615 
L 414.200566 61.306747 
L 414.595331 62.237251 
L 414.990096 62.406433 
L 415.38486 61.306747 
L 415.779625 62.998571 
L 416.17439 63.252345 
L 416.569155 63.929075 
L 416.963919 62.744798 
L 417.358684 62.491024 
L 417.753449 61.391339 
L 418.148214 61.645112 
L 418.542978 62.237251 
L 418.937743 61.560521 
L 419.332508 62.491024 
L 419.727273 62.491024 
L 420.122037 62.152659 
L 420.911567 60.207062 
L 421.306332 63.252345 
L 421.701097 61.47593 
L 422.095861 61.645112 
L 422.885391 63.083163 
L 423.67492 62.491024 
L 424.069685 60.883791 
L 424.46445 61.983477 
L 425.253979 62.406433 
L 425.648744 61.560521 
L 426.043509 62.406433 
L 426.438274 61.306747 
L 426.833039 61.391339 
L 427.227803 61.306747 
L 427.622568 61.814295 
L 428.017333 61.983477 
L 428.412098 63.759892 
L 428.806862 61.645112 
L 429.201627 61.391339 
L 429.596392 62.744798 
L 429.991157 60.207062 
L 430.385921 62.575615 
L 430.780686 62.660207 
L 431.175451 61.729703 
L 431.570216 61.645112 
L 431.964981 60.883791 
L 432.359745 60.630018 
L 432.75451 60.968383 
L 433.149275 61.814295 
L 433.54404 61.645112 
L 433.938804 60.968383 
L 434.333569 62.237251 
L 434.728334 62.068068 
L 435.517863 61.137565 
L 435.912628 62.237251 
L 436.307393 62.237251 
L 436.702158 61.222156 
L 437.096923 62.068068 
L 437.491687 62.406433 
L 437.886452 60.714609 
L 438.281217 61.898886 
L 438.675982 61.560521 
L 439.070746 61.645112 
L 439.465511 62.829389 
L 440.255041 61.222156 
L 440.649805 61.222156 
L 441.04457 62.068068 
L 441.439335 61.814295 
L 441.8341 61.306747 
L 442.228865 62.406433 
L 442.623629 62.237251 
L 443.018394 60.630018 
L 443.413159 62.068068 
L 444.202688 60.630018 
L 444.597453 61.47593 
L 445.386983 62.575615 
L 445.781747 61.306747 
L 446.176512 61.052974 
L 446.571277 62.491024 
L 446.966042 62.406433 
L 447.360807 62.068068 
L 447.755571 61.052974 
L 448.150336 61.391339 
L 448.545101 61.560521 
L 448.939866 61.222156 
L 449.33463 62.068068 
L 449.729395 62.321842 
L 450.12416 61.137565 
L 450.518925 60.883791 
L 450.913689 60.460835 
L 451.308454 61.391339 
L 451.703219 61.645112 
L 452.097984 61.560521 
L 452.887513 59.868697 
L 453.282278 61.391339 
L 453.677043 61.391339 
L 454.071808 62.744798 
L 454.466572 61.137565 
L 454.861337 61.052974 
L 455.256102 59.953288 
L 455.650867 60.968383 
L 456.045631 61.391339 
L 456.440396 61.560521 
L 456.835161 60.883791 
L 457.229926 61.052974 
L 457.62469 60.968383 
L 458.41422 60.037879 
L 458.808985 60.122471 
L 459.20375 61.47593 
L 459.598514 61.306747 
L 459.993279 62.491024 
L 460.388044 61.645112 
L 460.782809 61.306747 
L 461.177573 61.222156 
L 461.572338 60.883791 
L 461.967103 61.814295 
L 462.361868 60.630018 
L 462.756632 60.460835 
L 463.151397 61.47593 
L 463.546162 60.376244 
L 463.940927 59.614923 
L 464.335692 60.207062 
L 464.730456 60.291653 
L 465.125221 59.953288 
L 465.519986 61.222156 
L 465.914751 59.699514 
L 466.309515 60.968383 
L 466.70428 60.714609 
L 467.099045 61.052974 
L 467.49381 59.784106 
L 467.888574 60.291653 
L 468.283339 61.222156 
L 468.678104 60.291653 
L 469.072869 60.630018 
L 469.467634 61.306747 
L 469.862398 60.376244 
L 470.257163 60.630018 
L 470.651928 62.237251 
L 471.046693 60.460835 
L 472.230987 60.376244 
L 472.625752 61.222156 
L 473.020516 60.291653 
L 473.415281 60.714609 
L 473.810046 61.898886 
L 474.204811 60.714609 
L 474.599576 61.391339 
L 474.99434 60.883791 
L 475.389105 61.983477 
L 475.78387 59.530332 
L 476.178635 60.122471 
L 476.573399 61.052974 
L 476.968164 60.207062 
L 477.362929 61.814295 
L 477.757694 61.052974 
L 478.152458 59.868697 
L 478.547223 59.784106 
L 478.941988 60.291653 
L 479.336753 59.868697 
L 479.731518 61.645112 
L 480.126282 60.037879 
L 480.521047 60.714609 
L 480.915812 62.321842 
L 481.310577 60.7992 
L 481.705341 60.7992 
L 482.100106 61.222156 
L 482.494871 61.137565 
L 482.889636 59.868697 
L 483.2844 60.122471 
L 483.679165 61.137565 
L 484.07393 61.306747 
L 484.468695 59.445741 
L 484.863459 61.137565 
L 485.258224 61.222156 
L 485.652989 60.714609 
L 486.047754 59.445741 
L 486.442519 60.460835 
L 486.837283 60.545427 
L 487.232048 61.137565 
L 487.626813 60.883791 
L 488.021578 61.306747 
L 488.416342 60.630018 
L 488.811107 60.968383 
L 489.205872 60.207062 
L 489.600637 60.630018 
L 489.995401 59.868697 
L 490.390166 59.953288 
L 490.784931 60.7992 
L 491.179696 60.883791 
L 491.574461 60.291653 
L 491.969225 60.545427 
L 492.36399 60.630018 
L 492.758755 60.122471 
L 493.15352 60.037879 
L 493.548284 60.7992 
L 493.943049 60.291653 
L 494.337814 61.137565 
L 494.732579 59.530332 
L 495.127343 60.207062 
L 495.916873 62.152659 
L 496.311638 59.953288 
L 496.706403 61.306747 
L 497.101167 60.630018 
L 497.495932 60.714609 
L 497.890697 60.968383 
L 498.285462 59.36115 
L 499.074991 59.614923 
L 499.469756 60.630018 
L 499.864521 60.291653 
L 500.259285 60.883791 
L 501.048815 59.36115 
L 501.44358 61.306747 
L 501.838345 60.037879 
L 502.627874 60.883791 
L 503.022639 60.376244 
L 503.417404 60.883791 
L 503.812168 61.137565 
L 504.206933 60.291653 
L 504.601698 59.784106 
L 504.996463 62.321842 
L 505.391227 60.7992 
L 505.785992 60.883791 
L 506.180757 61.137565 
L 506.575522 60.460835 
L 507.365051 60.714609 
L 507.759816 60.968383 
L 508.154581 60.883791 
L 508.549346 59.784106 
L 508.94411 60.714609 
L 509.338875 60.968383 
L 509.73364 60.207062 
L 510.128405 61.814295 
L 510.523169 59.953288 
L 510.917934 60.291653 
L 511.312699 60.291653 
L 511.707464 59.614923 
L 512.102229 60.714609 
L 512.496993 59.36115 
L 512.891758 60.207062 
L 513.286523 60.714609 
L 513.681288 60.207062 
L 514.076052 60.460835 
L 514.470817 61.137565 
L 514.865582 60.545427 
L 515.260347 61.137565 
L 515.655111 59.784106 
L 516.049876 61.306747 
L 516.444641 60.207062 
L 516.839406 61.137565 
L 517.23417 60.968383 
L 517.628935 61.052974 
L 518.0237 59.784106 
L 518.418465 60.7992 
L 518.81323 60.122471 
L 519.207994 60.968383 
L 519.602759 61.222156 
L 519.997524 60.376244 
L 520.392289 60.291653 
L 520.787053 59.953288 
L 521.181818 60.122471 
L 521.576583 60.545427 
L 521.971348 61.222156 
L 522.366112 60.037879 
L 522.760877 60.291653 
L 523.155642 59.191967 
L 523.550407 59.614923 
L 523.945172 58.515238 
L 524.339936 60.037879 
L 525.129466 59.614923 
L 525.524231 60.376244 
L 525.918995 59.530332 
L 526.31376 60.207062 
L 526.708525 59.614923 
L 527.10329 60.037879 
L 527.498054 59.445741 
L 527.892819 59.191967 
L 528.287584 60.883791 
L 528.682349 59.784106 
L 529.077114 60.460835 
L 529.471878 59.445741 
L 529.866643 59.445741 
L 530.261408 60.037879 
L 531.050937 60.460835 
L 531.445702 60.7992 
L 531.840467 58.853602 
L 532.235232 60.291653 
L 532.629996 60.545427 
L 533.024761 59.191967 
L 533.419526 59.868697 
L 533.814291 59.191967 
L 534.209056 60.460835 
L 534.60382 59.107376 
L 535.39335 59.276558 
L 535.788115 59.784106 
L 536.182879 59.784106 
L 536.577644 60.630018 
L 536.972409 60.883791 
L 537.367174 60.037879 
L 537.761938 59.784106 
L 538.156703 60.460835 
L 538.551468 60.460835 
L 538.946233 59.191967 
L 539.340998 59.530332 
L 539.735762 60.545427 
L 540.130527 61.222156 
L 540.920057 59.445741 
L 541.314821 60.545427 
L 541.709586 60.883791 
L 542.104351 61.391339 
L 542.89388 58.853602 
L 543.288645 60.207062 
L 543.68341 61.137565 
L 544.078175 59.445741 
L 544.47294 59.868697 
L 544.867704 60.460835 
L 545.262469 59.276558 
L 545.657234 60.460835 
L 546.051999 59.868697 
L 546.446763 59.868697 
L 546.841528 60.291653 
L 547.236293 59.953288 
L 547.631058 59.953288 
L 548.025822 60.7992 
L 548.420587 59.614923 
L 548.815352 60.207062 
L 549.210117 59.614923 
L 549.604881 60.460835 
L 549.999646 59.868697 
L 550.394411 60.545427 
L 550.789176 60.122471 
L 551.183941 60.714609 
L 551.578705 59.868697 
L 551.97347 60.545427 
L 552.368235 60.545427 
L 552.763 59.445741 
L 553.552529 60.376244 
L 553.947294 58.599829 
L 554.342059 59.614923 
L 554.736823 59.868697 
L 555.131588 59.445741 
L 555.526353 58.769011 
L 555.921118 59.699514 
L 556.315883 59.699514 
L 556.710647 59.953288 
L 557.105412 61.052974 
L 557.500177 60.460835 
L 557.894942 60.122471 
L 558.289706 59.276558 
L 558.684471 59.107376 
L 559.474001 60.207062 
L 559.868765 59.868697 
L 560.26353 59.784106 
L 560.658295 59.530332 
L 561.447825 60.376244 
L 561.842589 60.376244 
L 562.237354 60.968383 
L 562.632119 60.122471 
L 563.026884 59.784106 
L 563.421648 60.7992 
L 563.816413 60.291653 
L 564.211178 60.630018 
L 564.605943 59.191967 
L 565.000707 59.868697 
L 565.395472 59.445741 
L 565.790237 60.291653 
L 566.185002 60.376244 
L 566.579767 60.630018 
L 566.974531 59.445741 
L 567.369296 59.276558 
L 567.764061 61.052974 
L 568.158826 61.560521 
L 568.55359 59.36115 
L 568.948355 59.953288 
L 569.34312 59.614923 
L 570.132649 61.306747 
L 570.527414 59.530332 
L 571.711709 59.022785 
L 572.106473 59.530332 
L 572.501238 59.699514 
L 572.896003 59.36115 
L 573.290768 59.36115 
L 573.685532 59.699514 
L 574.080297 59.191967 
L 574.475062 59.445741 
L 574.869827 60.122471 
L 575.264591 59.107376 
L 575.659356 60.037879 
L 576.054121 59.022785 
L 576.448886 59.191967 
L 576.843651 59.784106 
L 577.238415 58.599829 
L 577.63318 59.191967 
L 578.027945 60.7992 
L 578.42271 59.868697 
L 578.817474 60.376244 
L 579.212239 59.614923 
L 579.607004 60.7992 
L 580.001769 59.784106 
L 580.396533 60.207062 
L 580.791298 59.191967 
L 581.186063 59.191967 
L 581.580828 59.614923 
L 581.975593 59.868697 
L 582.765122 59.614923 
L 583.159887 59.784106 
L 583.554652 59.445741 
L 583.949416 60.207062 
L 584.344181 60.037879 
L 584.738946 60.630018 
L 585.133711 59.022785 
L 585.92324 60.207062 
L 586.318005 59.530332 
L 586.71277 59.276558 
L 587.107534 58.261464 
L 587.502299 59.022785 
L 587.897064 59.022785 
L 588.291829 59.868697 
L 588.686594 59.530332 
L 589.081358 60.207062 
L 589.476123 59.699514 
L 589.870888 60.291653 
L 590.265653 59.784106 
L 591.055182 59.36115 
L 591.449947 59.276558 
L 591.844712 59.953288 
L 592.239476 59.445741 
L 592.634241 59.276558 
L 593.029006 59.784106 
L 593.423771 58.938194 
L 593.818536 59.953288 
L 594.2133 59.614923 
L 594.608065 58.430646 
L 595.00283 59.445741 
L 595.397595 59.868697 
L 595.792359 59.191967 
L 596.187124 59.953288 
L 596.581889 59.36115 
L 597.371418 59.445741 
L 598.160948 58.515238 
L 598.555713 59.36115 
L 598.950478 59.868697 
L 599.345242 59.445741 
L 599.740007 60.545427 
L 600.134772 58.599829 
L 600.529537 59.614923 
L 600.924301 59.868697 
L 601.713831 58.938194 
L 602.108596 60.7992 
L 602.50336 59.191967 
L 602.898125 60.460835 
L 603.687655 59.530332 
L 604.08242 60.037879 
L 604.477184 59.530332 
L 604.871949 60.122471 
L 605.266714 59.276558 
L 605.661479 60.207062 
L 606.056243 58.769011 
L 606.845773 61.137565 
L 607.240538 60.291653 
L 607.635302 61.306747 
L 608.030067 59.276558 
L 608.424832 60.714609 
L 608.819597 61.137565 
L 609.214362 58.515238 
L 609.609126 59.36115 
L 610.003891 59.530332 
L 610.398656 59.868697 
L 610.793421 59.953288 
L 611.188185 59.868697 
L 611.58295 59.107376 
L 611.977715 59.699514 
L 612.37248 59.107376 
L 612.767244 60.376244 
L 613.162009 60.460835 
L 613.556774 58.769011 
L 613.951539 59.530332 
L 615.530598 59.530332 
L 615.925363 60.291653 
L 616.320127 59.530332 
L 616.714892 60.376244 
L 617.109657 60.207062 
L 617.504422 59.022785 
L 618.293951 61.222156 
L 618.688716 59.614923 
L 619.083481 59.953288 
L 619.478245 59.530332 
L 619.87301 59.276558 
L 620.267775 58.769011 
L 620.66254 60.037879 
L 621.057305 58.599829 
L 621.452069 60.207062 
L 621.846834 61.052974 
L 622.241599 60.122471 
L 622.636364 58.853602 
L 622.636364 58.853602 
" style="fill:none;stroke:#ff7f0e;stroke-linecap:square;stroke-width:0.5;"/>
   </g>
   <g id="patch_3">
    <path d="M 90 315 
L 90 43.2 
" style="fill:none;stroke:#000000;stroke-linecap:square;stroke-linejoin:miter;stroke-width:0.8;"/>
   </g>
   <g id="patch_4">
    <path d="M 648 315 
L 648 43.2 
" style="fill:none;stroke:#000000;stroke-linecap:square;stroke-linejoin:miter;stroke-width:0.8;"/>
   </g>
   <g id="patch_5">
    <path d="M 90 315 
L 648 315 
" style="fill:none;stroke:#000000;stroke-linecap:square;stroke-linejoin:miter;stroke-width:0.8;"/>
   </g>
   <g id="patch_6">
    <path d="M 90 43.2 
L 648 43.2 
" style="fill:none;stroke:#000000;stroke-linecap:square;stroke-linejoin:miter;stroke-width:0.8;"/>
   </g>
   <g id="text_18">
    <!-- accuracy -->
    <g transform="translate(341.92875 37.2)scale(0.12 -0.12)">
     <use xlink:href="#DejaVuSans-97"/>
     <use x="61.279297" xlink:href="#DejaVuSans-99"/>
     <use x="116.259766" xlink:href="#DejaVuSans-99"/>
     <use x="171.240234" xlink:href="#DejaVuSans-117"/>
     <use x="234.619141" xlink:href="#DejaVuSans-114"/>
     <use x="275.732422" xlink:href="#DejaVuSans-97"/>
     <use x="337.011719" xlink:href="#DejaVuSans-99"/>
     <use x="391.992188" xlink:href="#DejaVuSans-121"/>
    </g>
   </g>
   <g id="legend_1">
    <g id="patch_7">
     <path d="M 97 80.55625 
L 169.153125 80.55625 
Q 171.153125 80.55625 171.153125 78.55625 
L 171.153125 50.2 
Q 171.153125 48.2 169.153125 48.2 
L 97 48.2 
Q 95 48.2 95 50.2 
L 95 78.55625 
Q 95 80.55625 97 80.55625 
z
" style="fill:#ffffff;opacity:0.8;stroke:#cccccc;stroke-linejoin:miter;"/>
    </g>
    <g id="line2d_33">
     <path d="M 99 56.298437 
L 119 56.298437 
" style="fill:none;stroke:#1f77b4;stroke-linecap:square;stroke-width:0.5;"/>
    </g>
    <g id="line2d_34"/>
    <g id="text_19">
     <!-- train -->
     <defs>
      <path d="M 18.3125 70.21875 
L 18.3125 54.6875 
L 36.8125 54.6875 
L 36.8125 47.703125 
L 18.3125 47.703125 
L 18.3125 18.015625 
Q 18.3125 11.328125 20.140625 9.421875 
Q 21.96875 7.515625 27.59375 7.515625 
L 36.8125 7.515625 
L 36.8125 0 
L 27.59375 0 
Q 17.1875 0 13.234375 3.875 
Q 9.28125 7.765625 9.28125 18.015625 
L 9.28125 47.703125 
L 2.6875 47.703125 
L 2.6875 54.6875 
L 9.28125 54.6875 
L 9.28125 70.21875 
z
" id="DejaVuSans-116"/>
      <path d="M 9.421875 54.6875 
L 18.40625 54.6875 
L 18.40625 0 
L 9.421875 0 
z
M 9.421875 75.984375 
L 18.40625 75.984375 
L 18.40625 64.59375 
L 9.421875 64.59375 
z
" id="DejaVuSans-105"/>
      <path d="M 54.890625 33.015625 
L 54.890625 0 
L 45.90625 0 
L 45.90625 32.71875 
Q 45.90625 40.484375 42.875 44.328125 
Q 39.84375 48.1875 33.796875 48.1875 
Q 26.515625 48.1875 22.3125 43.546875 
Q 18.109375 38.921875 18.109375 30.90625 
L 18.109375 0 
L 9.078125 0 
L 9.078125 54.6875 
L 18.109375 54.6875 
L 18.109375 46.1875 
Q 21.34375 51.125 25.703125 53.5625 
Q 30.078125 56 35.796875 56 
Q 45.21875 56 50.046875 50.171875 
Q 54.890625 44.34375 54.890625 33.015625 
z
" id="DejaVuSans-110"/>
     </defs>
     <g transform="translate(127 59.798437)scale(0.1 -0.1)">
      <use xlink:href="#DejaVuSans-116"/>
      <use x="39.208984" xlink:href="#DejaVuSans-114"/>
      <use x="80.322266" xlink:href="#DejaVuSans-97"/>
      <use x="141.601562" xlink:href="#DejaVuSans-105"/>
      <use x="169.384766" xlink:href="#DejaVuSans-110"/>
     </g>
    </g>
    <g id="line2d_35">
     <path d="M 99 70.976562 
L 119 70.976562 
" style="fill:none;stroke:#ff7f0e;stroke-linecap:square;stroke-width:0.5;"/>
    </g>
    <g id="line2d_36"/>
    <g id="text_20">
     <!-- validate -->
     <defs>
      <path d="M 2.984375 54.6875 
L 12.5 54.6875 
L 29.59375 8.796875 
L 46.6875 54.6875 
L 56.203125 54.6875 
L 35.6875 0 
L 23.484375 0 
z
" id="DejaVuSans-118"/>
      <path d="M 9.421875 75.984375 
L 18.40625 75.984375 
L 18.40625 0 
L 9.421875 0 
z
" id="DejaVuSans-108"/>
      <path d="M 45.40625 46.390625 
L 45.40625 75.984375 
L 54.390625 75.984375 
L 54.390625 0 
L 45.40625 0 
L 45.40625 8.203125 
Q 42.578125 3.328125 38.25 0.953125 
Q 33.9375 -1.421875 27.875 -1.421875 
Q 17.96875 -1.421875 11.734375 6.484375 
Q 5.515625 14.40625 5.515625 27.296875 
Q 5.515625 40.1875 11.734375 48.09375 
Q 17.96875 56 27.875 56 
Q 33.9375 56 38.25 53.625 
Q 42.578125 51.265625 45.40625 46.390625 
z
M 14.796875 27.296875 
Q 14.796875 17.390625 18.875 11.75 
Q 22.953125 6.109375 30.078125 6.109375 
Q 37.203125 6.109375 41.296875 11.75 
Q 45.40625 17.390625 45.40625 27.296875 
Q 45.40625 37.203125 41.296875 42.84375 
Q 37.203125 48.484375 30.078125 48.484375 
Q 22.953125 48.484375 18.875 42.84375 
Q 14.796875 37.203125 14.796875 27.296875 
z
" id="DejaVuSans-100"/>
     </defs>
     <g transform="translate(127 74.476562)scale(0.1 -0.1)">
      <use xlink:href="#DejaVuSans-118"/>
      <use x="59.179688" xlink:href="#DejaVuSans-97"/>
      <use x="120.458984" xlink:href="#DejaVuSans-108"/>
      <use x="148.242188" xlink:href="#DejaVuSans-105"/>
      <use x="176.025391" xlink:href="#DejaVuSans-100"/>
      <use x="239.501953" xlink:href="#DejaVuSans-97"/>
      <use x="300.78125" xlink:href="#DejaVuSans-116"/>
      <use x="339.990234" xlink:href="#DejaVuSans-101"/>
     </g>
    </g>
   </g>
  </g>
 </g>
 <defs>
  <clipPath id="p455c7bdce5">
   <rect height="271.8" width="558" x="90" y="43.2"/>
  </clipPath>
 </defs>
</svg>
