<?xml version="1.0" encoding="utf-8" standalone="no"?>
<!DOCTYPE svg PUBLIC "-//W3C//DTD SVG 1.1//EN"
  "http://www.w3.org/Graphics/SVG/1.1/DTD/svg11.dtd">
<!-- Created with matplotlib (https://matplotlib.org/) -->
<svg height="360pt" version="1.1" viewBox="0 0 720 360" width="720pt" xmlns="http://www.w3.org/2000/svg" xmlns:xlink="http://www.w3.org/1999/xlink">
 <defs>
  <style type="text/css">
*{stroke-linecap:butt;stroke-linejoin:round;}
  </style>
 </defs>
 <g id="figure_1">
  <g id="patch_1">
   <path d="M 0 360 
L 720 360 
L 720 0 
L 0 0 
z
" style="fill:#ffffff;"/>
  </g>
  <g id="axes_1">
   <g id="patch_2">
    <path d="M 90 315 
L 648 315 
L 648 43.2 
L 90 43.2 
z
" style="fill:#ffffff;"/>
   </g>
   <g id="matplotlib.axis_1">
    <g id="xtick_1">
     <g id="line2d_1">
      <path clip-path="url(#pe6200039af)" d="M 115.363636 315 
L 115.363636 43.2 
" style="fill:none;stroke:#b0b0b0;stroke-linecap:square;stroke-width:0.8;"/>
     </g>
     <g id="line2d_2">
      <defs>
       <path d="M 0 0 
L 0 3.5 
" id="m873f5fcf27" style="stroke:#000000;stroke-width:0.8;"/>
      </defs>
      <g>
       <use style="stroke:#000000;stroke-width:0.8;" x="115.363636" xlink:href="#m873f5fcf27" y="315"/>
      </g>
     </g>
     <g id="text_1">
      <!-- 0 -->
      <defs>
       <path d="M 31.78125 66.40625 
Q 24.171875 66.40625 20.328125 58.90625 
Q 16.5 51.421875 16.5 36.375 
Q 16.5 21.390625 20.328125 13.890625 
Q 24.171875 6.390625 31.78125 6.390625 
Q 39.453125 6.390625 43.28125 13.890625 
Q 47.125 21.390625 47.125 36.375 
Q 47.125 51.421875 43.28125 58.90625 
Q 39.453125 66.40625 31.78125 66.40625 
z
M 31.78125 74.21875 
Q 44.046875 74.21875 50.515625 64.515625 
Q 56.984375 54.828125 56.984375 36.375 
Q 56.984375 17.96875 50.515625 8.265625 
Q 44.046875 -1.421875 31.78125 -1.421875 
Q 19.53125 -1.421875 13.0625 8.265625 
Q 6.59375 17.96875 6.59375 36.375 
Q 6.59375 54.828125 13.0625 64.515625 
Q 19.53125 74.21875 31.78125 74.21875 
z
" id="DejaVuSans-48"/>
      </defs>
      <g transform="translate(112.182386 329.598437)scale(0.1 -0.1)">
       <use xlink:href="#DejaVuSans-48"/>
      </g>
     </g>
    </g>
    <g id="xtick_2">
     <g id="line2d_3">
      <path clip-path="url(#pe6200039af)" d="M 212.822374 315 
L 212.822374 43.2 
" style="fill:none;stroke:#b0b0b0;stroke-linecap:square;stroke-width:0.8;"/>
     </g>
     <g id="line2d_4">
      <g>
       <use style="stroke:#000000;stroke-width:0.8;" x="212.822374" xlink:href="#m873f5fcf27" y="315"/>
      </g>
     </g>
     <g id="text_2">
      <!-- 200 -->
      <defs>
       <path d="M 19.1875 8.296875 
L 53.609375 8.296875 
L 53.609375 0 
L 7.328125 0 
L 7.328125 8.296875 
Q 12.9375 14.109375 22.625 23.890625 
Q 32.328125 33.6875 34.8125 36.53125 
Q 39.546875 41.84375 41.421875 45.53125 
Q 43.3125 49.21875 43.3125 52.78125 
Q 43.3125 58.59375 39.234375 62.25 
Q 35.15625 65.921875 28.609375 65.921875 
Q 23.96875 65.921875 18.8125 64.3125 
Q 13.671875 62.703125 7.8125 59.421875 
L 7.8125 69.390625 
Q 13.765625 71.78125 18.9375 73 
Q 24.125 74.21875 28.421875 74.21875 
Q 39.75 74.21875 46.484375 68.546875 
Q 53.21875 62.890625 53.21875 53.421875 
Q 53.21875 48.921875 51.53125 44.890625 
Q 49.859375 40.875 45.40625 35.40625 
Q 44.1875 33.984375 37.640625 27.21875 
Q 31.109375 20.453125 19.1875 8.296875 
z
" id="DejaVuSans-50"/>
      </defs>
      <g transform="translate(203.278624 329.598437)scale(0.1 -0.1)">
       <use xlink:href="#DejaVuSans-50"/>
       <use x="63.623047" xlink:href="#DejaVuSans-48"/>
       <use x="127.246094" xlink:href="#DejaVuSans-48"/>
      </g>
     </g>
    </g>
    <g id="xtick_3">
     <g id="line2d_5">
      <path clip-path="url(#pe6200039af)" d="M 310.281111 315 
L 310.281111 43.2 
" style="fill:none;stroke:#b0b0b0;stroke-linecap:square;stroke-width:0.8;"/>
     </g>
     <g id="line2d_6">
      <g>
       <use style="stroke:#000000;stroke-width:0.8;" x="310.281111" xlink:href="#m873f5fcf27" y="315"/>
      </g>
     </g>
     <g id="text_3">
      <!-- 400 -->
      <defs>
       <path d="M 37.796875 64.3125 
L 12.890625 25.390625 
L 37.796875 25.390625 
z
M 35.203125 72.90625 
L 47.609375 72.90625 
L 47.609375 25.390625 
L 58.015625 25.390625 
L 58.015625 17.1875 
L 47.609375 17.1875 
L 47.609375 0 
L 37.796875 0 
L 37.796875 17.1875 
L 4.890625 17.1875 
L 4.890625 26.703125 
z
" id="DejaVuSans-52"/>
      </defs>
      <g transform="translate(300.737361 329.598437)scale(0.1 -0.1)">
       <use xlink:href="#DejaVuSans-52"/>
       <use x="63.623047" xlink:href="#DejaVuSans-48"/>
       <use x="127.246094" xlink:href="#DejaVuSans-48"/>
      </g>
     </g>
    </g>
    <g id="xtick_4">
     <g id="line2d_7">
      <path clip-path="url(#pe6200039af)" d="M 407.739848 315 
L 407.739848 43.2 
" style="fill:none;stroke:#b0b0b0;stroke-linecap:square;stroke-width:0.8;"/>
     </g>
     <g id="line2d_8">
      <g>
       <use style="stroke:#000000;stroke-width:0.8;" x="407.739848" xlink:href="#m873f5fcf27" y="315"/>
      </g>
     </g>
     <g id="text_4">
      <!-- 600 -->
      <defs>
       <path d="M 33.015625 40.375 
Q 26.375 40.375 22.484375 35.828125 
Q 18.609375 31.296875 18.609375 23.390625 
Q 18.609375 15.53125 22.484375 10.953125 
Q 26.375 6.390625 33.015625 6.390625 
Q 39.65625 6.390625 43.53125 10.953125 
Q 47.40625 15.53125 47.40625 23.390625 
Q 47.40625 31.296875 43.53125 35.828125 
Q 39.65625 40.375 33.015625 40.375 
z
M 52.59375 71.296875 
L 52.59375 62.3125 
Q 48.875 64.0625 45.09375 64.984375 
Q 41.3125 65.921875 37.59375 65.921875 
Q 27.828125 65.921875 22.671875 59.328125 
Q 17.53125 52.734375 16.796875 39.40625 
Q 19.671875 43.65625 24.015625 45.921875 
Q 28.375 48.1875 33.59375 48.1875 
Q 44.578125 48.1875 50.953125 41.515625 
Q 57.328125 34.859375 57.328125 23.390625 
Q 57.328125 12.15625 50.6875 5.359375 
Q 44.046875 -1.421875 33.015625 -1.421875 
Q 20.359375 -1.421875 13.671875 8.265625 
Q 6.984375 17.96875 6.984375 36.375 
Q 6.984375 53.65625 15.1875 63.9375 
Q 23.390625 74.21875 37.203125 74.21875 
Q 40.921875 74.21875 44.703125 73.484375 
Q 48.484375 72.75 52.59375 71.296875 
z
" id="DejaVuSans-54"/>
      </defs>
      <g transform="translate(398.196098 329.598437)scale(0.1 -0.1)">
       <use xlink:href="#DejaVuSans-54"/>
       <use x="63.623047" xlink:href="#DejaVuSans-48"/>
       <use x="127.246094" xlink:href="#DejaVuSans-48"/>
      </g>
     </g>
    </g>
    <g id="xtick_5">
     <g id="line2d_9">
      <path clip-path="url(#pe6200039af)" d="M 505.198585 315 
L 505.198585 43.2 
" style="fill:none;stroke:#b0b0b0;stroke-linecap:square;stroke-width:0.8;"/>
     </g>
     <g id="line2d_10">
      <g>
       <use style="stroke:#000000;stroke-width:0.8;" x="505.198585" xlink:href="#m873f5fcf27" y="315"/>
      </g>
     </g>
     <g id="text_5">
      <!-- 800 -->
      <defs>
       <path d="M 31.78125 34.625 
Q 24.75 34.625 20.71875 30.859375 
Q 16.703125 27.09375 16.703125 20.515625 
Q 16.703125 13.921875 20.71875 10.15625 
Q 24.75 6.390625 31.78125 6.390625 
Q 38.8125 6.390625 42.859375 10.171875 
Q 46.921875 13.96875 46.921875 20.515625 
Q 46.921875 27.09375 42.890625 30.859375 
Q 38.875 34.625 31.78125 34.625 
z
M 21.921875 38.8125 
Q 15.578125 40.375 12.03125 44.71875 
Q 8.5 49.078125 8.5 55.328125 
Q 8.5 64.0625 14.71875 69.140625 
Q 20.953125 74.21875 31.78125 74.21875 
Q 42.671875 74.21875 48.875 69.140625 
Q 55.078125 64.0625 55.078125 55.328125 
Q 55.078125 49.078125 51.53125 44.71875 
Q 48 40.375 41.703125 38.8125 
Q 48.828125 37.15625 52.796875 32.3125 
Q 56.78125 27.484375 56.78125 20.515625 
Q 56.78125 9.90625 50.3125 4.234375 
Q 43.84375 -1.421875 31.78125 -1.421875 
Q 19.734375 -1.421875 13.25 4.234375 
Q 6.78125 9.90625 6.78125 20.515625 
Q 6.78125 27.484375 10.78125 32.3125 
Q 14.796875 37.15625 21.921875 38.8125 
z
M 18.3125 54.390625 
Q 18.3125 48.734375 21.84375 45.5625 
Q 25.390625 42.390625 31.78125 42.390625 
Q 38.140625 42.390625 41.71875 45.5625 
Q 45.3125 48.734375 45.3125 54.390625 
Q 45.3125 60.0625 41.71875 63.234375 
Q 38.140625 66.40625 31.78125 66.40625 
Q 25.390625 66.40625 21.84375 63.234375 
Q 18.3125 60.0625 18.3125 54.390625 
z
" id="DejaVuSans-56"/>
      </defs>
      <g transform="translate(495.654835 329.598437)scale(0.1 -0.1)">
       <use xlink:href="#DejaVuSans-56"/>
       <use x="63.623047" xlink:href="#DejaVuSans-48"/>
       <use x="127.246094" xlink:href="#DejaVuSans-48"/>
      </g>
     </g>
    </g>
    <g id="xtick_6">
     <g id="line2d_11">
      <path clip-path="url(#pe6200039af)" d="M 602.657323 315 
L 602.657323 43.2 
" style="fill:none;stroke:#b0b0b0;stroke-linecap:square;stroke-width:0.8;"/>
     </g>
     <g id="line2d_12">
      <g>
       <use style="stroke:#000000;stroke-width:0.8;" x="602.657323" xlink:href="#m873f5fcf27" y="315"/>
      </g>
     </g>
     <g id="text_6">
      <!-- 1000 -->
      <defs>
       <path d="M 12.40625 8.296875 
L 28.515625 8.296875 
L 28.515625 63.921875 
L 10.984375 60.40625 
L 10.984375 69.390625 
L 28.421875 72.90625 
L 38.28125 72.90625 
L 38.28125 8.296875 
L 54.390625 8.296875 
L 54.390625 0 
L 12.40625 0 
z
" id="DejaVuSans-49"/>
      </defs>
      <g transform="translate(589.932323 329.598437)scale(0.1 -0.1)">
       <use xlink:href="#DejaVuSans-49"/>
       <use x="63.623047" xlink:href="#DejaVuSans-48"/>
       <use x="127.246094" xlink:href="#DejaVuSans-48"/>
       <use x="190.869141" xlink:href="#DejaVuSans-48"/>
      </g>
     </g>
    </g>
    <g id="text_7">
     <!-- epoch -->
     <defs>
      <path d="M 56.203125 29.59375 
L 56.203125 25.203125 
L 14.890625 25.203125 
Q 15.484375 15.921875 20.484375 11.0625 
Q 25.484375 6.203125 34.421875 6.203125 
Q 39.59375 6.203125 44.453125 7.46875 
Q 49.3125 8.734375 54.109375 11.28125 
L 54.109375 2.78125 
Q 49.265625 0.734375 44.1875 -0.34375 
Q 39.109375 -1.421875 33.890625 -1.421875 
Q 20.796875 -1.421875 13.15625 6.1875 
Q 5.515625 13.8125 5.515625 26.8125 
Q 5.515625 40.234375 12.765625 48.109375 
Q 20.015625 56 32.328125 56 
Q 43.359375 56 49.78125 48.890625 
Q 56.203125 41.796875 56.203125 29.59375 
z
M 47.21875 32.234375 
Q 47.125 39.59375 43.09375 43.984375 
Q 39.0625 48.390625 32.421875 48.390625 
Q 24.90625 48.390625 20.390625 44.140625 
Q 15.875 39.890625 15.1875 32.171875 
z
" id="DejaVuSans-101"/>
      <path d="M 18.109375 8.203125 
L 18.109375 -20.796875 
L 9.078125 -20.796875 
L 9.078125 54.6875 
L 18.109375 54.6875 
L 18.109375 46.390625 
Q 20.953125 51.265625 25.265625 53.625 
Q 29.59375 56 35.59375 56 
Q 45.5625 56 51.78125 48.09375 
Q 58.015625 40.1875 58.015625 27.296875 
Q 58.015625 14.40625 51.78125 6.484375 
Q 45.5625 -1.421875 35.59375 -1.421875 
Q 29.59375 -1.421875 25.265625 0.953125 
Q 20.953125 3.328125 18.109375 8.203125 
z
M 48.6875 27.296875 
Q 48.6875 37.203125 44.609375 42.84375 
Q 40.53125 48.484375 33.40625 48.484375 
Q 26.265625 48.484375 22.1875 42.84375 
Q 18.109375 37.203125 18.109375 27.296875 
Q 18.109375 17.390625 22.1875 11.75 
Q 26.265625 6.109375 33.40625 6.109375 
Q 40.53125 6.109375 44.609375 11.75 
Q 48.6875 17.390625 48.6875 27.296875 
z
" id="DejaVuSans-112"/>
      <path d="M 30.609375 48.390625 
Q 23.390625 48.390625 19.1875 42.75 
Q 14.984375 37.109375 14.984375 27.296875 
Q 14.984375 17.484375 19.15625 11.84375 
Q 23.34375 6.203125 30.609375 6.203125 
Q 37.796875 6.203125 41.984375 11.859375 
Q 46.1875 17.53125 46.1875 27.296875 
Q 46.1875 37.015625 41.984375 42.703125 
Q 37.796875 48.390625 30.609375 48.390625 
z
M 30.609375 56 
Q 42.328125 56 49.015625 48.375 
Q 55.71875 40.765625 55.71875 27.296875 
Q 55.71875 13.875 49.015625 6.21875 
Q 42.328125 -1.421875 30.609375 -1.421875 
Q 18.84375 -1.421875 12.171875 6.21875 
Q 5.515625 13.875 5.515625 27.296875 
Q 5.515625 40.765625 12.171875 48.375 
Q 18.84375 56 30.609375 56 
z
" id="DejaVuSans-111"/>
      <path d="M 48.78125 52.59375 
L 48.78125 44.1875 
Q 44.96875 46.296875 41.140625 47.34375 
Q 37.3125 48.390625 33.40625 48.390625 
Q 24.65625 48.390625 19.8125 42.84375 
Q 14.984375 37.3125 14.984375 27.296875 
Q 14.984375 17.28125 19.8125 11.734375 
Q 24.65625 6.203125 33.40625 6.203125 
Q 37.3125 6.203125 41.140625 7.25 
Q 44.96875 8.296875 48.78125 10.40625 
L 48.78125 2.09375 
Q 45.015625 0.34375 40.984375 -0.53125 
Q 36.96875 -1.421875 32.421875 -1.421875 
Q 20.0625 -1.421875 12.78125 6.34375 
Q 5.515625 14.109375 5.515625 27.296875 
Q 5.515625 40.671875 12.859375 48.328125 
Q 20.21875 56 33.015625 56 
Q 37.15625 56 41.109375 55.140625 
Q 45.0625 54.296875 48.78125 52.59375 
z
" id="DejaVuSans-99"/>
      <path d="M 54.890625 33.015625 
L 54.890625 0 
L 45.90625 0 
L 45.90625 32.71875 
Q 45.90625 40.484375 42.875 44.328125 
Q 39.84375 48.1875 33.796875 48.1875 
Q 26.515625 48.1875 22.3125 43.546875 
Q 18.109375 38.921875 18.109375 30.90625 
L 18.109375 0 
L 9.078125 0 
L 9.078125 75.984375 
L 18.109375 75.984375 
L 18.109375 46.1875 
Q 21.34375 51.125 25.703125 53.5625 
Q 30.078125 56 35.796875 56 
Q 45.21875 56 50.046875 50.171875 
Q 54.890625 44.34375 54.890625 33.015625 
z
" id="DejaVuSans-104"/>
     </defs>
     <g transform="translate(353.771875 343.276563)scale(0.1 -0.1)">
      <use xlink:href="#DejaVuSans-101"/>
      <use x="61.523438" xlink:href="#DejaVuSans-112"/>
      <use x="125" xlink:href="#DejaVuSans-111"/>
      <use x="186.181641" xlink:href="#DejaVuSans-99"/>
      <use x="241.162109" xlink:href="#DejaVuSans-104"/>
     </g>
    </g>
   </g>
   <g id="matplotlib.axis_2">
    <g id="ytick_1">
     <g id="line2d_13">
      <path clip-path="url(#pe6200039af)" d="M 90 307.064225 
L 648 307.064225 
" style="fill:none;stroke:#b0b0b0;stroke-linecap:square;stroke-width:0.8;"/>
     </g>
     <g id="line2d_14">
      <defs>
       <path d="M 0 0 
L -3.5 0 
" id="m0baf0bce01" style="stroke:#000000;stroke-width:0.8;"/>
      </defs>
      <g>
       <use style="stroke:#000000;stroke-width:0.8;" x="90" xlink:href="#m0baf0bce01" y="307.064225"/>
      </g>
     </g>
     <g id="text_8">
      <!-- 0.0 -->
      <defs>
       <path d="M 10.6875 12.40625 
L 21 12.40625 
L 21 0 
L 10.6875 0 
z
" id="DejaVuSans-46"/>
      </defs>
      <g transform="translate(67.096875 310.863443)scale(0.1 -0.1)">
       <use xlink:href="#DejaVuSans-48"/>
       <use x="63.623047" xlink:href="#DejaVuSans-46"/>
       <use x="95.410156" xlink:href="#DejaVuSans-48"/>
      </g>
     </g>
    </g>
    <g id="ytick_2">
     <g id="line2d_15">
      <path clip-path="url(#pe6200039af)" d="M 90 269.41957 
L 648 269.41957 
" style="fill:none;stroke:#b0b0b0;stroke-linecap:square;stroke-width:0.8;"/>
     </g>
     <g id="line2d_16">
      <g>
       <use style="stroke:#000000;stroke-width:0.8;" x="90" xlink:href="#m0baf0bce01" y="269.41957"/>
      </g>
     </g>
     <g id="text_9">
      <!-- 0.2 -->
      <g transform="translate(67.096875 273.218788)scale(0.1 -0.1)">
       <use xlink:href="#DejaVuSans-48"/>
       <use x="63.623047" xlink:href="#DejaVuSans-46"/>
       <use x="95.410156" xlink:href="#DejaVuSans-50"/>
      </g>
     </g>
    </g>
    <g id="ytick_3">
     <g id="line2d_17">
      <path clip-path="url(#pe6200039af)" d="M 90 231.774915 
L 648 231.774915 
" style="fill:none;stroke:#b0b0b0;stroke-linecap:square;stroke-width:0.8;"/>
     </g>
     <g id="line2d_18">
      <g>
       <use style="stroke:#000000;stroke-width:0.8;" x="90" xlink:href="#m0baf0bce01" y="231.774915"/>
      </g>
     </g>
     <g id="text_10">
      <!-- 0.4 -->
      <g transform="translate(67.096875 235.574134)scale(0.1 -0.1)">
       <use xlink:href="#DejaVuSans-48"/>
       <use x="63.623047" xlink:href="#DejaVuSans-46"/>
       <use x="95.410156" xlink:href="#DejaVuSans-52"/>
      </g>
     </g>
    </g>
    <g id="ytick_4">
     <g id="line2d_19">
      <path clip-path="url(#pe6200039af)" d="M 90 194.13026 
L 648 194.13026 
" style="fill:none;stroke:#b0b0b0;stroke-linecap:square;stroke-width:0.8;"/>
     </g>
     <g id="line2d_20">
      <g>
       <use style="stroke:#000000;stroke-width:0.8;" x="90" xlink:href="#m0baf0bce01" y="194.13026"/>
      </g>
     </g>
     <g id="text_11">
      <!-- 0.6 -->
      <g transform="translate(67.096875 197.929479)scale(0.1 -0.1)">
       <use xlink:href="#DejaVuSans-48"/>
       <use x="63.623047" xlink:href="#DejaVuSans-46"/>
       <use x="95.410156" xlink:href="#DejaVuSans-54"/>
      </g>
     </g>
    </g>
    <g id="ytick_5">
     <g id="line2d_21">
      <path clip-path="url(#pe6200039af)" d="M 90 156.485605 
L 648 156.485605 
" style="fill:none;stroke:#b0b0b0;stroke-linecap:square;stroke-width:0.8;"/>
     </g>
     <g id="line2d_22">
      <g>
       <use style="stroke:#000000;stroke-width:0.8;" x="90" xlink:href="#m0baf0bce01" y="156.485605"/>
      </g>
     </g>
     <g id="text_12">
      <!-- 0.8 -->
      <g transform="translate(67.096875 160.284824)scale(0.1 -0.1)">
       <use xlink:href="#DejaVuSans-48"/>
       <use x="63.623047" xlink:href="#DejaVuSans-46"/>
       <use x="95.410156" xlink:href="#DejaVuSans-56"/>
      </g>
     </g>
    </g>
    <g id="ytick_6">
     <g id="line2d_23">
      <path clip-path="url(#pe6200039af)" d="M 90 118.84095 
L 648 118.84095 
" style="fill:none;stroke:#b0b0b0;stroke-linecap:square;stroke-width:0.8;"/>
     </g>
     <g id="line2d_24">
      <g>
       <use style="stroke:#000000;stroke-width:0.8;" x="90" xlink:href="#m0baf0bce01" y="118.84095"/>
      </g>
     </g>
     <g id="text_13">
      <!-- 1.0 -->
      <g transform="translate(67.096875 122.640169)scale(0.1 -0.1)">
       <use xlink:href="#DejaVuSans-49"/>
       <use x="63.623047" xlink:href="#DejaVuSans-46"/>
       <use x="95.410156" xlink:href="#DejaVuSans-48"/>
      </g>
     </g>
    </g>
    <g id="ytick_7">
     <g id="line2d_25">
      <path clip-path="url(#pe6200039af)" d="M 90 81.196295 
L 648 81.196295 
" style="fill:none;stroke:#b0b0b0;stroke-linecap:square;stroke-width:0.8;"/>
     </g>
     <g id="line2d_26">
      <g>
       <use style="stroke:#000000;stroke-width:0.8;" x="90" xlink:href="#m0baf0bce01" y="81.196295"/>
      </g>
     </g>
     <g id="text_14">
      <!-- 1.2 -->
      <g transform="translate(67.096875 84.995514)scale(0.1 -0.1)">
       <use xlink:href="#DejaVuSans-49"/>
       <use x="63.623047" xlink:href="#DejaVuSans-46"/>
       <use x="95.410156" xlink:href="#DejaVuSans-50"/>
      </g>
     </g>
    </g>
    <g id="ytick_8">
     <g id="line2d_27">
      <path clip-path="url(#pe6200039af)" d="M 90 43.551641 
L 648 43.551641 
" style="fill:none;stroke:#b0b0b0;stroke-linecap:square;stroke-width:0.8;"/>
     </g>
     <g id="line2d_28">
      <g>
       <use style="stroke:#000000;stroke-width:0.8;" x="90" xlink:href="#m0baf0bce01" y="43.551641"/>
      </g>
     </g>
     <g id="text_15">
      <!-- 1.4 -->
      <g transform="translate(67.096875 47.350859)scale(0.1 -0.1)">
       <use xlink:href="#DejaVuSans-49"/>
       <use x="63.623047" xlink:href="#DejaVuSans-46"/>
       <use x="95.410156" xlink:href="#DejaVuSans-52"/>
      </g>
     </g>
    </g>
    <g id="text_16">
     <!-- loss -->
     <defs>
      <path d="M 9.421875 75.984375 
L 18.40625 75.984375 
L 18.40625 0 
L 9.421875 0 
z
" id="DejaVuSans-108"/>
      <path d="M 44.28125 53.078125 
L 44.28125 44.578125 
Q 40.484375 46.53125 36.375 47.5 
Q 32.28125 48.484375 27.875 48.484375 
Q 21.1875 48.484375 17.84375 46.4375 
Q 14.5 44.390625 14.5 40.28125 
Q 14.5 37.15625 16.890625 35.375 
Q 19.28125 33.59375 26.515625 31.984375 
L 29.59375 31.296875 
Q 39.15625 29.25 43.1875 25.515625 
Q 47.21875 21.78125 47.21875 15.09375 
Q 47.21875 7.46875 41.1875 3.015625 
Q 35.15625 -1.421875 24.609375 -1.421875 
Q 20.21875 -1.421875 15.453125 -0.5625 
Q 10.6875 0.296875 5.421875 2 
L 5.421875 11.28125 
Q 10.40625 8.6875 15.234375 7.390625 
Q 20.0625 6.109375 24.8125 6.109375 
Q 31.15625 6.109375 34.5625 8.28125 
Q 37.984375 10.453125 37.984375 14.40625 
Q 37.984375 18.0625 35.515625 20.015625 
Q 33.0625 21.96875 24.703125 23.78125 
L 21.578125 24.515625 
Q 13.234375 26.265625 9.515625 29.90625 
Q 5.8125 33.546875 5.8125 39.890625 
Q 5.8125 47.609375 11.28125 51.796875 
Q 16.75 56 26.8125 56 
Q 31.78125 56 36.171875 55.265625 
Q 40.578125 54.546875 44.28125 53.078125 
z
" id="DejaVuSans-115"/>
     </defs>
     <g transform="translate(61.017187 188.757812)rotate(-90)scale(0.1 -0.1)">
      <use xlink:href="#DejaVuSans-108"/>
      <use x="27.783203" xlink:href="#DejaVuSans-111"/>
      <use x="88.964844" xlink:href="#DejaVuSans-115"/>
      <use x="141.064453" xlink:href="#DejaVuSans-115"/>
     </g>
    </g>
   </g>
   <g id="line2d_29">
    <path clip-path="url(#pe6200039af)" d="M 115.363636 55.554545 
L 115.85093 72.182327 
L 117.312811 83.839906 
L 117.800105 84.136905 
L 118.287398 86.436112 
L 118.774692 84.225024 
L 119.261986 89.035146 
L 119.74928 88.591919 
L 120.236573 90.692446 
L 120.723867 91.066968 
L 121.211161 91.63752 
L 121.698454 91.453152 
L 122.185748 93.189054 
L 122.673042 93.464771 
L 123.160335 95.598269 
L 123.647629 96.547344 
L 124.622216 94.141057 
L 125.10951 96.000549 
L 125.596804 96.731931 
L 126.084097 98.12051 
L 126.571391 98.756061 
L 127.058685 97.667351 
L 127.545979 98.971804 
L 128.033272 98.215135 
L 128.520566 102.454615 
L 129.00786 103.879994 
L 129.495153 103.339902 
L 129.982447 102.172474 
L 130.469741 101.821897 
L 130.957034 102.828719 
L 131.444328 103.299461 
L 131.931622 102.472621 
L 132.418915 105.523764 
L 132.906209 105.806534 
L 133.393503 107.057015 
L 133.880796 106.841141 
L 134.36809 108.757443 
L 134.855384 108.557373 
L 135.342677 110.651455 
L 135.829971 111.368042 
L 136.317265 110.053536 
L 136.804559 111.382186 
L 137.291852 114.901164 
L 137.779146 114.26697 
L 138.26644 117.381293 
L 138.753733 119.470071 
L 139.241027 119.836229 
L 140.215614 118.352929 
L 140.702908 122.462278 
L 141.190202 121.581539 
L 141.677495 122.217422 
L 142.164789 125.086153 
L 142.652083 127.059916 
L 143.139376 126.922947 
L 144.601258 132.837531 
L 145.088551 133.066954 
L 145.575845 136.916167 
L 146.063139 137.2418 
L 146.550432 140.278645 
L 147.037726 145.280352 
L 147.52502 141.55503 
L 148.499607 148.619305 
L 148.986901 148.457664 
L 149.474194 153.109969 
L 149.961488 153.485271 
L 150.448782 155.347098 
L 150.936075 158.03585 
L 151.423369 161.446998 
L 151.910663 167.877546 
L 152.397957 165.7812 
L 152.88525 171.30189 
L 153.372544 167.287636 
L 153.859838 174.737951 
L 155.321719 180.255613 
L 155.809012 184.336628 
L 156.296306 185.156683 
L 156.7836 184.156385 
L 157.270893 186.463572 
L 157.758187 192.514788 
L 158.245481 194.06859 
L 158.732774 192.634478 
L 159.220068 196.154222 
L 159.707362 197.096758 
L 160.194655 201.668703 
L 160.681949 204.632375 
L 161.169243 201.960578 
L 161.656537 203.264061 
L 162.14383 208.48078 
L 162.631124 209.549351 
L 163.118418 209.614328 
L 163.605711 210.887415 
L 164.093005 209.69435 
L 164.580299 213.010791 
L 165.067592 217.850789 
L 165.554886 219.204515 
L 166.04218 219.311697 
L 166.529473 214.373616 
L 167.016767 218.96356 
L 167.504061 221.194046 
L 168.478648 224.237622 
L 169.453236 226.35592 
L 169.940529 227.854532 
L 170.427823 227.146289 
L 170.915117 225.739058 
L 171.40241 228.133815 
L 171.889704 235.103134 
L 172.376998 230.892503 
L 172.864291 234.564872 
L 173.351585 233.964161 
L 173.838879 235.161148 
L 174.326172 229.237624 
L 174.813466 237.461202 
L 175.30076 235.839117 
L 175.788053 233.053085 
L 176.275347 235.794876 
L 176.762641 234.657391 
L 177.249935 241.8317 
L 177.737228 240.590306 
L 178.224522 238.612865 
L 178.711816 238.996915 
L 179.199109 240.41125 
L 179.686403 240.446359 
L 180.173697 241.302672 
L 180.66099 241.646814 
L 181.148284 243.637695 
L 181.635578 243.500845 
L 182.122871 244.089797 
L 182.610165 242.252942 
L 183.097459 238.496563 
L 184.072046 247.981589 
L 184.55934 244.952233 
L 185.046633 243.943187 
L 185.533927 248.261637 
L 186.021221 248.940661 
L 186.508515 245.427255 
L 186.995808 248.950498 
L 187.483102 246.700734 
L 188.457689 249.25833 
L 188.944983 248.955474 
L 189.432277 249.362751 
L 189.91957 250.966285 
L 190.406864 250.257543 
L 190.894158 251.828201 
L 191.381451 250.5895 
L 191.868745 251.377022 
L 192.356039 251.143509 
L 192.843332 251.099182 
L 193.330626 253.45849 
L 193.81792 253.971325 
L 194.305214 252.138109 
L 194.792507 255.951438 
L 195.279801 251.404897 
L 195.767095 254.621017 
L 196.254388 254.259592 
L 196.741682 256.047465 
L 197.228976 256.522787 
L 197.716269 257.159999 
L 198.203563 257.048979 
L 199.17815 254.964602 
L 199.665444 256.683468 
L 200.152738 257.015482 
L 200.640031 252.169706 
L 201.127325 258.633581 
L 201.614619 256.082486 
L 202.101912 259.082212 
L 202.589206 255.782514 
L 203.0765 259.196923 
L 203.563794 257.59559 
L 204.051087 258.065445 
L 204.538381 257.377621 
L 205.025675 260.601504 
L 205.512968 257.987298 
L 206.000262 260.048096 
L 206.487556 258.463811 
L 206.974849 259.778135 
L 207.462143 258.212874 
L 208.43673 261.591811 
L 208.924024 260.985737 
L 209.411318 259.169068 
L 209.898611 263.926325 
L 210.385905 262.67251 
L 210.873199 265.211899 
L 211.360493 264.081192 
L 211.847786 264.865401 
L 212.33508 263.924755 
L 212.822374 264.359031 
L 213.309667 265.133834 
L 213.796961 264.513154 
L 214.284255 263.700189 
L 214.771548 264.569239 
L 215.258842 261.950096 
L 215.746136 263.963529 
L 216.233429 267.041719 
L 216.720723 265.218609 
L 217.208017 266.033761 
L 217.69531 264.828426 
L 218.182604 266.428595 
L 218.669898 265.036891 
L 219.157192 266.391562 
L 219.644485 268.75729 
L 220.131779 266.119399 
L 220.619073 268.63076 
L 221.106366 268.733412 
L 221.59366 265.361822 
L 222.080954 267.677296 
L 222.568247 267.476017 
L 223.055541 268.14794 
L 223.542835 267.35484 
L 224.030128 268.320237 
L 224.517422 267.048593 
L 225.004716 268.660802 
L 225.492009 269.347517 
L 225.979303 265.634625 
L 226.466597 266.860866 
L 226.95389 270.948131 
L 227.441184 269.072552 
L 227.928478 269.154037 
L 228.415772 270.134185 
L 228.903065 272.241241 
L 229.390359 268.408091 
L 229.877653 269.394673 
L 230.364946 271.729506 
L 230.85224 271.516135 
L 231.339534 270.778023 
L 231.826827 271.176209 
L 232.314121 272.620575 
L 232.801415 270.65429 
L 233.288708 270.621572 
L 233.776002 270.786227 
L 234.263296 270.373242 
L 234.750589 271.642793 
L 235.237883 270.26533 
L 235.725177 270.675304 
L 236.699764 271.967206 
L 237.187058 270.764273 
L 237.674352 273.765605 
L 238.161645 271.264194 
L 238.648939 275.093648 
L 239.136233 271.887282 
L 239.623526 274.992199 
L 240.11082 274.015945 
L 240.598114 272.268947 
L 241.085407 274.476176 
L 241.572701 272.849391 
L 242.059995 271.866477 
L 242.547288 273.865954 
L 243.034582 274.472726 
L 243.521876 276.700983 
L 244.00917 274.470023 
L 244.496463 274.921943 
L 244.983757 275.80395 
L 245.471051 272.974704 
L 245.958344 273.467825 
L 246.445638 275.829393 
L 246.932932 272.710437 
L 247.420225 276.316351 
L 247.907519 273.89583 
L 248.394813 275.993397 
L 248.882106 276.296588 
L 249.3694 275.753766 
L 249.856694 274.96477 
L 250.831281 275.162594 
L 251.318575 277.726074 
L 251.805868 275.699984 
L 252.293162 278.085534 
L 252.780456 276.840611 
L 253.26775 277.932207 
L 253.755043 277.565805 
L 254.242337 275.876655 
L 255.216924 279.066502 
L 255.704218 277.673305 
L 256.191512 277.306708 
L 256.678805 277.994842 
L 257.166099 277.975326 
L 257.653393 275.965816 
L 258.140686 278.828947 
L 258.62798 279.44448 
L 259.115274 278.0627 
L 259.602567 274.619907 
L 260.089861 278.35201 
L 260.577155 278.455243 
L 261.064449 278.056354 
L 261.551742 275.350937 
L 262.039036 277.352035 
L 262.52633 276.431712 
L 263.013623 279.004622 
L 263.500917 280.03494 
L 263.988211 280.341049 
L 264.475504 277.669319 
L 264.962798 277.453186 
L 265.450092 280.292911 
L 265.937385 278.655894 
L 266.424679 280.038984 
L 266.911973 279.333615 
L 267.399266 278.267682 
L 267.88656 280.220284 
L 268.373854 280.779535 
L 268.861147 279.73274 
L 269.348441 281.434738 
L 269.835735 278.279635 
L 270.323029 280.019241 
L 270.810322 279.113545 
L 271.297616 275.348113 
L 271.78491 279.681591 
L 272.272203 282.56318 
L 272.759497 280.801401 
L 273.246791 278.164929 
L 273.734084 278.949429 
L 274.221378 282.224795 
L 274.708672 279.91851 
L 275.195965 283.789765 
L 275.683259 282.03026 
L 276.170553 280.846528 
L 276.657846 282.735775 
L 277.14514 282.736943 
L 277.632434 280.623815 
L 278.119728 279.407629 
L 278.607021 282.937511 
L 279.581609 281.532581 
L 280.068902 283.124015 
L 280.556196 279.640551 
L 281.04349 280.980973 
L 281.530783 281.523112 
L 282.018077 282.939028 
L 282.505371 282.186034 
L 282.992664 283.555078 
L 283.479958 282.480629 
L 283.967252 284.09604 
L 284.454545 283.47954 
L 284.941839 281.634623 
L 285.429133 283.828871 
L 286.40372 283.462127 
L 286.891014 283.64978 
L 287.378308 284.63518 
L 287.865601 283.339474 
L 288.352895 284.091024 
L 288.840189 284.261757 
L 289.327482 282.630855 
L 289.814776 284.968531 
L 290.30207 284.203547 
L 290.789363 284.614025 
L 291.276657 284.180714 
L 291.763951 283.490371 
L 292.251244 285.473791 
L 292.738538 285.068367 
L 293.225832 285.695854 
L 293.713125 281.657911 
L 294.200419 282.260966 
L 294.687713 283.333394 
L 295.175007 283.131675 
L 295.6623 285.53289 
L 296.149594 283.950348 
L 296.636888 285.426653 
L 297.124181 285.705829 
L 298.098769 283.866992 
L 298.586062 284.201849 
L 299.073356 287.18721 
L 299.56065 282.18675 
L 300.047943 285.912512 
L 301.022531 284.444272 
L 301.509824 287.095975 
L 301.997118 286.731925 
L 302.484412 286.082336 
L 302.971706 281.191532 
L 303.458999 282.938121 
L 303.946293 286.720798 
L 304.92088 285.574005 
L 305.408174 286.030863 
L 305.895468 285.980388 
L 306.382761 286.068831 
L 306.870055 284.881759 
L 307.844642 287.446821 
L 308.331936 287.861678 
L 308.81923 286.023023 
L 310.281111 287.361704 
L 310.768405 286.221584 
L 311.255698 289.176479 
L 311.742992 285.443819 
L 312.230286 287.0044 
L 312.717579 285.291085 
L 313.204873 288.874885 
L 313.692167 288.503043 
L 314.17946 286.012799 
L 314.666754 287.348316 
L 315.154048 287.919008 
L 315.641341 285.591457 
L 316.128635 288.576175 
L 316.615929 288.518903 
L 317.103222 289.502282 
L 317.590516 289.378105 
L 318.07781 288.318504 
L 318.565103 286.187681 
L 319.052397 287.803617 
L 319.539691 288.519422 
L 320.026985 288.507757 
L 320.514278 288.347596 
L 321.001572 287.94837 
L 321.488866 286.988487 
L 321.976159 285.536623 
L 322.463453 289.565125 
L 322.950747 288.72857 
L 323.43804 288.829709 
L 323.925334 285.713994 
L 324.412628 288.83571 
L 324.899921 286.930987 
L 325.387215 288.669831 
L 325.874509 289.275807 
L 326.361802 289.231591 
L 326.849096 289.780419 
L 327.33639 286.385262 
L 327.823684 288.388541 
L 328.310977 288.068812 
L 328.798271 286.891987 
L 329.285565 290.201412 
L 329.772858 290.835387 
L 330.260152 288.930037 
L 330.747446 289.965436 
L 331.234739 289.446582 
L 331.722033 287.404365 
L 332.209327 289.074996 
L 332.69662 289.087796 
L 333.183914 288.964537 
L 333.671208 289.457288 
L 334.158501 290.814114 
L 334.645795 290.212114 
L 335.133089 288.455859 
L 335.620382 289.502486 
L 336.59497 287.526014 
L 337.082264 290.533147 
L 337.569557 290.391547 
L 338.056851 289.132128 
L 338.544145 288.281276 
L 339.031438 291.576035 
L 339.518732 288.949438 
L 340.006026 290.648479 
L 340.493319 290.981146 
L 340.980613 290.514686 
L 341.467907 290.923557 
L 341.9552 290.091156 
L 342.442494 290.040422 
L 342.929788 292.124295 
L 343.417081 291.403023 
L 343.904375 291.758777 
L 344.391669 290.00308 
L 344.878963 290.731479 
L 345.366256 290.089377 
L 345.85355 290.073598 
L 346.340844 289.293441 
L 346.828137 290.726913 
L 347.315431 292.703736 
L 347.802725 289.439456 
L 348.290018 291.478341 
L 348.777312 290.816395 
L 349.264606 289.464867 
L 349.751899 291.428745 
L 350.239193 289.367326 
L 350.726487 289.284911 
L 351.21378 290.916193 
L 351.701074 290.959834 
L 352.188368 291.238352 
L 352.675662 292.537994 
L 353.162955 291.028567 
L 353.650249 290.540913 
L 354.624836 291.756356 
L 355.11213 290.243258 
L 355.599424 292.408014 
L 356.086717 292.37829 
L 356.574011 291.867098 
L 357.548598 290.633399 
L 358.035892 290.779506 
L 358.523186 291.117645 
L 359.010479 293.745509 
L 359.497773 289.82997 
L 359.985067 292.344755 
L 360.47236 291.166391 
L 360.959654 290.889319 
L 361.446948 292.280249 
L 361.934242 291.035853 
L 362.421535 293.907815 
L 362.908829 291.915326 
L 363.396123 290.876081 
L 363.883416 292.053907 
L 364.37071 293.593443 
L 364.858004 293.522396 
L 365.345297 292.709713 
L 365.832591 292.765479 
L 366.319885 293.474359 
L 366.807178 290.973584 
L 367.294472 291.465442 
L 367.781766 292.244508 
L 368.269059 293.436472 
L 368.756353 291.643531 
L 369.243647 290.814629 
L 369.730941 292.635784 
L 370.218234 291.915516 
L 370.705528 294.039256 
L 371.192822 292.632765 
L 371.680115 294.30804 
L 372.167409 292.473652 
L 372.654703 293.433297 
L 373.141996 292.853818 
L 373.62929 293.298289 
L 374.116584 294.222291 
L 374.603877 294.827435 
L 375.578465 292.916128 
L 376.065758 293.029126 
L 376.553052 293.38345 
L 377.040346 291.795694 
L 377.52764 292.617487 
L 378.014933 292.257982 
L 378.989521 293.711853 
L 379.476814 293.863576 
L 379.964108 292.576834 
L 380.938695 294.489216 
L 381.913283 293.700472 
L 382.400576 292.204409 
L 382.88787 292.377372 
L 383.375164 293.348392 
L 383.862457 292.369931 
L 384.349751 294.909839 
L 384.837045 292.126243 
L 385.324338 292.433144 
L 385.811632 294.217435 
L 386.298926 293.120669 
L 386.78622 293.151761 
L 387.273513 294.375004 
L 387.760807 294.135583 
L 388.248101 294.466481 
L 388.735394 293.502955 
L 389.222688 294.098528 
L 389.709982 293.06905 
L 390.197275 293.001396 
L 390.684569 294.588053 
L 391.171863 293.003181 
L 391.659156 291.852612 
L 392.14645 293.395908 
L 392.633744 294.402629 
L 393.121037 294.105207 
L 393.608331 293.6075 
L 394.095625 296.485002 
L 394.582919 293.327072 
L 395.070212 294.462316 
L 396.532093 295.892366 
L 397.019387 295.187267 
L 397.506681 293.92553 
L 397.993974 294.890373 
L 398.481268 293.459644 
L 398.968562 294.876181 
L 399.455855 293.157735 
L 400.430443 296.017739 
L 400.917736 293.094551 
L 401.40503 294.782839 
L 401.892324 294.700216 
L 402.379618 293.269601 
L 402.866911 296.220044 
L 403.354205 296.699101 
L 403.841499 293.422118 
L 404.328792 294.337866 
L 404.816086 294.171493 
L 405.30338 295.772989 
L 405.790673 293.787761 
L 406.277967 294.964961 
L 406.765261 294.475095 
L 407.252554 297.541374 
L 407.739848 295.455129 
L 408.227142 295.784172 
L 408.714435 294.04155 
L 409.201729 295.470787 
L 409.689023 294.815997 
L 410.66361 294.177028 
L 411.150904 295.597665 
L 411.638198 294.371637 
L 412.612785 294.749556 
L 413.100079 297.295214 
L 413.587372 296.964502 
L 414.074666 294.22607 
L 414.56196 294.18056 
L 415.049253 295.14329 
L 415.536547 295.776875 
L 416.023841 293.722346 
L 416.511134 293.482488 
L 416.998428 294.77907 
L 417.485722 295.031375 
L 417.973015 296.546428 
L 418.460309 295.994628 
L 418.947603 294.198533 
L 419.434897 294.960341 
L 419.92219 296.241833 
L 420.409484 296.571152 
L 420.896778 296.126843 
L 421.384071 294.238001 
L 421.871365 295.747787 
L 422.358659 296.268207 
L 422.845952 297.932632 
L 423.333246 297.284428 
L 423.82054 296.247571 
L 424.307833 296.780285 
L 424.795127 294.815406 
L 425.282421 295.736688 
L 425.769714 295.766901 
L 426.257008 296.424752 
L 426.744302 295.646049 
L 427.231595 295.083294 
L 427.718889 297.220585 
L 428.206183 293.997601 
L 428.693477 294.745952 
L 429.18077 297.255835 
L 429.668064 294.810997 
L 430.155358 296.319715 
L 430.642651 296.902134 
L 431.129945 297.234831 
L 431.617239 293.981772 
L 432.104532 296.566407 
L 432.591826 297.724839 
L 433.07912 297.341365 
L 433.566413 296.063295 
L 434.053707 295.707018 
L 434.541001 297.326916 
L 435.028294 294.623119 
L 435.515588 295.40167 
L 436.002882 294.233051 
L 436.490176 295.049637 
L 436.977469 297.543554 
L 437.464763 297.007068 
L 437.952057 298.067605 
L 438.43935 296.177972 
L 438.926644 296.221843 
L 439.413938 295.45853 
L 439.901231 297.150791 
L 440.388525 296.93477 
L 440.875819 297.520169 
L 441.363112 295.580273 
L 441.850406 296.366728 
L 442.3377 297.936064 
L 442.824993 296.617759 
L 443.312287 293.164965 
L 443.799581 297.382908 
L 444.286875 295.565023 
L 444.774168 297.39039 
L 445.261462 296.224225 
L 445.748756 297.588129 
L 446.236049 297.717007 
L 446.723343 297.160811 
L 447.210637 297.379651 
L 447.69793 296.825391 
L 448.185224 294.918054 
L 448.672518 297.022809 
L 449.647105 297.686663 
L 450.134399 298.107685 
L 450.621692 299.277967 
L 451.59628 296.166881 
L 452.083573 297.184412 
L 452.570867 297.783104 
L 453.058161 295.705471 
L 453.545455 296.942677 
L 454.032748 296.992556 
L 454.520042 296.869147 
L 455.494629 297.966744 
L 455.981923 297.124199 
L 456.469217 296.705043 
L 456.95651 297.492544 
L 457.443804 297.977544 
L 457.931098 296.13014 
L 458.418391 297.818783 
L 458.905685 297.294998 
L 459.392979 298.491303 
L 460.367566 295.954339 
L 460.85486 296.913821 
L 461.342154 298.497318 
L 461.829447 299.379186 
L 462.316741 296.797138 
L 462.804035 298.112289 
L 463.291328 296.2151 
L 463.778622 298.390358 
L 464.265916 297.449885 
L 464.753209 298.257646 
L 465.240503 296.640604 
L 465.727797 298.018573 
L 466.21509 295.208779 
L 466.702384 297.261281 
L 467.189678 298.677277 
L 467.676971 296.499097 
L 468.164265 296.756732 
L 468.651559 298.985515 
L 469.138853 296.507713 
L 469.626146 297.734859 
L 470.11344 297.952073 
L 470.600734 296.893424 
L 471.088027 298.320488 
L 471.575321 295.115548 
L 472.062615 298.536178 
L 472.549908 298.984954 
L 473.037202 298.338034 
L 473.524496 297.278448 
L 474.011789 297.113718 
L 474.499083 299.376918 
L 474.986377 298.518216 
L 475.47367 299.301237 
L 475.960964 298.589333 
L 476.448258 297.054412 
L 476.935551 297.921164 
L 477.422845 297.818463 
L 477.910139 299.028103 
L 478.397433 296.180738 
L 478.884726 298.503773 
L 479.37202 298.100478 
L 479.859314 298.325008 
L 480.833901 298.332324 
L 481.321195 297.815593 
L 481.808488 299.668865 
L 482.783076 297.723 
L 483.270369 297.722135 
L 484.244957 299.053337 
L 484.73225 299.103356 
L 485.219544 298.426553 
L 485.706838 298.215174 
L 486.194132 298.532701 
L 486.681425 299.404675 
L 487.168719 298.418242 
L 487.656013 298.27715 
L 488.143306 297.714583 
L 488.6306 298.609962 
L 489.605187 297.570176 
L 490.092481 298.170686 
L 490.579775 299.890464 
L 491.067068 298.260564 
L 491.554362 297.425509 
L 492.041656 297.94399 
L 492.528949 298.790903 
L 493.016243 298.550217 
L 493.503537 297.436632 
L 493.99083 297.45868 
L 494.478124 297.067631 
L 494.965418 298.936925 
L 495.452712 297.191556 
L 495.940005 298.695234 
L 496.427299 298.537714 
L 496.914593 299.688784 
L 497.401886 299.471579 
L 497.88918 296.935182 
L 498.376474 300.208533 
L 498.863767 300.372645 
L 499.351061 298.094567 
L 499.838355 297.379263 
L 500.325648 299.684681 
L 500.812942 299.706122 
L 501.300236 298.688563 
L 502.274823 299.702069 
L 502.762117 298.411713 
L 503.249411 299.249046 
L 503.736704 298.760038 
L 504.223998 299.862699 
L 504.711292 298.622583 
L 505.198585 297.908489 
L 505.685879 298.885102 
L 506.173173 298.264091 
L 506.660466 299.037758 
L 507.14776 300.981037 
L 507.635054 298.248737 
L 508.122347 297.620849 
L 508.609641 297.253356 
L 509.096935 299.617285 
L 509.584228 297.704199 
L 510.071522 299.356768 
L 511.04611 298.610422 
L 511.533403 299.169409 
L 512.020697 298.933838 
L 512.507991 298.296122 
L 512.995284 298.979594 
L 513.482578 300.074758 
L 513.969872 300.426149 
L 514.457165 299.305334 
L 514.944459 298.813323 
L 515.431753 299.066815 
L 515.919046 298.728153 
L 516.40634 298.695489 
L 516.893634 298.317684 
L 517.380927 300.256854 
L 517.868221 299.033074 
L 518.355515 298.673479 
L 518.842808 299.673598 
L 519.330102 298.264987 
L 519.817396 299.428129 
L 520.30469 298.814601 
L 520.791983 299.524124 
L 521.279277 299.753664 
L 521.766571 299.512402 
L 522.253864 298.206338 
L 522.741158 299.142375 
L 523.228452 299.666877 
L 523.715745 298.931087 
L 524.203039 298.865632 
L 525.177626 299.368589 
L 525.66492 298.701663 
L 526.152214 298.767958 
L 526.639507 299.721302 
L 527.126801 299.592143 
L 527.614095 298.353959 
L 528.101389 299.74374 
L 528.588682 300.318022 
L 529.075976 299.042348 
L 529.56327 300.81308 
L 530.050563 298.884965 
L 530.537857 298.552035 
L 531.025151 298.885199 
L 531.512444 301.272393 
L 531.999738 298.829922 
L 532.487032 299.19897 
L 532.974325 298.479999 
L 533.461619 300.525824 
L 533.948913 299.080668 
L 534.436206 298.440534 
L 534.9235 299.851553 
L 535.410794 298.86497 
L 535.898088 298.498221 
L 536.385381 299.127953 
L 536.872675 299.158469 
L 537.359969 301.185486 
L 537.847262 300.232217 
L 538.334556 300.679792 
L 538.82185 300.408382 
L 539.309143 299.282843 
L 539.796437 300.08419 
L 540.283731 298.182027 
L 540.771024 299.461041 
L 541.745612 298.575764 
L 542.232905 298.513605 
L 542.720199 298.895496 
L 543.207493 300.491071 
L 543.694786 298.701115 
L 544.18208 298.390777 
L 544.669374 298.394364 
L 545.643961 300.619382 
L 546.618549 298.307349 
L 547.593136 300.779732 
L 548.08043 300.564583 
L 548.567723 299.673525 
L 549.055017 299.097693 
L 549.542311 300.52861 
L 550.029604 299.515008 
L 550.516898 300.329459 
L 551.004192 298.602718 
L 551.491485 299.465489 
L 551.978779 299.81934 
L 552.466073 299.049457 
L 552.953367 299.014143 
L 553.44066 300.099605 
L 553.927954 300.280851 
L 554.902541 298.904163 
L 555.389835 297.627431 
L 555.877129 301.531934 
L 556.364422 299.323813 
L 556.851716 300.373339 
L 557.33901 299.037106 
L 557.826303 300.469003 
L 558.313597 299.560802 
L 558.800891 299.563057 
L 559.288184 299.714469 
L 560.262772 299.065342 
L 561.237359 299.445 
L 561.724653 300.032237 
L 562.211947 299.255539 
L 562.69924 300.358559 
L 563.186534 299.265113 
L 563.673828 299.1704 
L 564.161121 299.641153 
L 564.648415 300.514495 
L 565.135709 300.26541 
L 565.623002 301.365445 
L 566.110296 298.945191 
L 566.59759 301.313952 
L 567.084883 300.584967 
L 567.572177 300.542847 
L 568.059471 300.384056 
L 568.546764 301.082082 
L 569.034058 300.839575 
L 569.521352 300.737382 
L 570.008646 299.23382 
L 570.495939 300.4805 
L 570.983233 299.89558 
L 571.470527 302.388205 
L 572.445114 299.949917 
L 572.932408 300.502557 
L 573.419701 299.97123 
L 573.906995 301.645264 
L 574.394289 301.971294 
L 574.881582 299.44382 
L 575.368876 301.861141 
L 575.85617 301.572189 
L 576.343463 300.850641 
L 576.830757 300.656346 
L 577.805345 301.024071 
L 578.292638 300.123078 
L 579.754519 301.816656 
L 580.241813 300.446099 
L 580.729107 300.040901 
L 581.2164 298.597036 
L 581.703694 299.019363 
L 582.190988 300.206418 
L 582.678281 300.629147 
L 583.165575 299.839886 
L 583.652869 300.626726 
L 584.140162 300.991026 
L 584.627456 300.317719 
L 585.11475 300.351183 
L 585.602043 300.136664 
L 586.089337 299.718622 
L 586.576631 302.022846 
L 587.063925 300.768942 
L 587.551218 300.700173 
L 588.038512 301.59179 
L 588.525806 301.494669 
L 589.013099 301.693827 
L 589.500393 300.119744 
L 589.987687 301.603882 
L 590.47498 301.607846 
L 590.962274 299.683769 
L 591.449568 301.837884 
L 591.936861 299.144354 
L 592.424155 301.162305 
L 592.911449 301.815758 
L 593.886036 299.252991 
L 594.37333 300.88332 
L 594.860624 298.216197 
L 595.347917 299.864751 
L 595.835211 300.990611 
L 596.322505 299.761778 
L 596.809798 300.749112 
L 597.297092 301.286218 
L 597.784386 300.659559 
L 598.271679 300.302897 
L 599.246267 301.080052 
L 599.73356 300.958576 
L 600.220854 300.664465 
L 600.708148 299.352662 
L 601.195441 299.821299 
L 601.682735 300.696701 
L 602.170029 300.663172 
L 602.657323 300.023197 
L 603.63191 302.3973 
L 604.606497 300.796009 
L 605.093791 300.958992 
L 605.581085 302.645455 
L 606.068378 299.935653 
L 606.555672 301.828421 
L 607.042966 301.241877 
L 607.530259 300.37575 
L 608.017553 302.116065 
L 608.99214 300.211788 
L 609.479434 300.598976 
L 609.966728 301.62322 
L 610.454021 302.077447 
L 610.941315 301.268826 
L 611.428609 301.05133 
L 611.915903 301.531889 
L 612.403196 300.125135 
L 612.89049 301.358005 
L 613.377784 300.555624 
L 613.865077 301.363062 
L 614.352371 299.803555 
L 615.326958 300.312648 
L 615.814252 301.986959 
L 616.301546 301.89439 
L 616.788839 301.477316 
L 617.276133 301.831592 
L 617.763427 300.686851 
L 618.25072 300.864089 
L 618.738014 301.922483 
L 619.225308 302.278116 
L 619.712602 300.57965 
L 620.199895 301.091083 
L 620.687189 300.771415 
L 621.174483 302.641366 
L 621.661776 300.968542 
L 622.14907 300.411614 
L 622.636364 301.269324 
L 622.636364 301.269324 
" style="fill:none;stroke:#1f77b4;stroke-linecap:square;stroke-width:0.5;"/>
   </g>
   <g id="line2d_30">
    <path clip-path="url(#pe6200039af)" d="M 115.363636 68.912485 
L 115.85093 71.946742 
L 116.338224 75.744991 
L 116.825517 81.46018 
L 117.312811 82.907218 
L 118.287398 83.987792 
L 118.774692 83.208296 
L 119.261986 83.863912 
L 119.74928 85.697479 
L 120.236573 90.840216 
L 121.211161 87.847271 
L 121.698454 89.795214 
L 122.185748 90.850151 
L 122.673042 91.493654 
L 123.160335 90.229612 
L 123.647629 90.416208 
L 124.134923 91.017117 
L 124.622216 92.938529 
L 125.10951 93.914192 
L 125.596804 91.550409 
L 126.084097 90.207021 
L 127.058685 95.160436 
L 127.545979 95.043608 
L 128.033272 95.892576 
L 128.520566 94.927485 
L 129.00786 97.997739 
L 129.495153 98.488478 
L 129.982447 95.995682 
L 130.957034 100.046124 
L 131.444328 98.58225 
L 131.931622 98.622645 
L 132.418915 96.950354 
L 133.393503 102.143779 
L 133.880796 100.012757 
L 134.36809 103.432881 
L 134.855384 104.744931 
L 135.342677 103.921371 
L 135.829971 105.067716 
L 136.317265 104.294645 
L 136.804559 104.800081 
L 137.291852 111.066058 
L 137.779146 108.070759 
L 138.26644 108.563746 
L 139.241027 111.57028 
L 139.728321 114.96199 
L 140.215614 113.094978 
L 140.702908 113.500023 
L 141.190202 115.411349 
L 141.677495 117.903611 
L 142.164789 118.234405 
L 143.139376 123.09468 
L 143.62667 122.384415 
L 144.113964 124.618668 
L 144.601258 128.899642 
L 145.088551 127.037434 
L 145.575845 131.670902 
L 146.063139 133.072811 
L 146.550432 135.002695 
L 147.037726 138.361787 
L 147.52502 139.635302 
L 148.012313 143.297365 
L 148.499607 143.28099 
L 148.986901 147.088478 
L 149.474194 147.022726 
L 149.961488 147.642662 
L 150.448782 148.568668 
L 150.936075 153.511431 
L 151.423369 156.552369 
L 151.910663 156.579607 
L 152.397957 159.381131 
L 152.88525 160.873622 
L 153.859838 166.025005 
L 154.347131 172.97938 
L 154.834425 167.730479 
L 155.321719 175.247711 
L 155.809012 174.76452 
L 157.270893 184.018842 
L 157.758187 183.340261 
L 158.732774 188.865944 
L 159.220068 193.406242 
L 159.707362 190.888317 
L 160.194655 194.581021 
L 160.681949 195.246525 
L 161.169243 196.232469 
L 161.656537 201.646028 
L 162.14383 199.727137 
L 162.631124 201.247095 
L 163.118418 204.810269 
L 163.605711 202.863092 
L 164.093005 205.283577 
L 164.580299 210.631444 
L 165.067592 208.419887 
L 165.554886 209.544601 
L 166.04218 211.489674 
L 166.529473 210.775723 
L 167.016767 210.385957 
L 167.504061 212.337397 
L 167.991354 213.57809 
L 168.478648 216.190027 
L 168.965942 218.104374 
L 169.453236 217.951774 
L 169.940529 216.019048 
L 170.427823 216.645099 
L 170.915117 219.046039 
L 171.40241 217.182961 
L 171.889704 220.396873 
L 172.376998 221.544402 
L 172.864291 221.618922 
L 173.351585 220.354619 
L 173.838879 220.480004 
L 174.326172 222.363855 
L 174.813466 225.165673 
L 175.30076 223.571145 
L 176.762641 226.015354 
L 177.249935 225.725783 
L 177.737228 223.32669 
L 178.224522 222.438549 
L 178.711816 224.424392 
L 179.199109 229.883005 
L 180.173697 228.120513 
L 180.66099 226.423836 
L 181.148284 230.54726 
L 181.635578 232.821018 
L 182.122871 229.995147 
L 183.097459 231.594827 
L 183.584752 231.118872 
L 184.072046 233.469388 
L 184.55934 230.036971 
L 185.046633 237.48609 
L 185.533927 231.735826 
L 186.021221 233.423823 
L 186.508515 234.161381 
L 186.995808 235.936704 
L 187.483102 235.975497 
L 187.970396 235.479108 
L 188.457689 233.318039 
L 188.944983 237.839258 
L 189.432277 235.306118 
L 190.406864 233.198699 
L 190.894158 236.029501 
L 191.381451 236.752024 
L 191.868745 235.907077 
L 192.356039 238.334332 
L 192.843332 234.74331 
L 193.330626 237.447056 
L 193.81792 235.671836 
L 194.305214 236.105431 
L 194.792507 238.792708 
L 195.279801 240.362809 
L 195.767095 240.275291 
L 196.254388 238.808427 
L 196.741682 239.65658 
L 197.228976 242.303698 
L 197.716269 237.667995 
L 198.203563 240.113934 
L 198.690857 238.916417 
L 199.17815 238.783155 
L 199.665444 242.113896 
L 200.152738 239.928367 
L 200.640031 240.898314 
L 201.127325 240.984101 
L 201.614619 242.516799 
L 202.101912 242.942373 
L 202.589206 240.326807 
L 203.0765 241.451934 
L 203.563794 245.471347 
L 204.051087 245.400789 
L 204.538381 245.100931 
L 205.025675 246.137079 
L 206.000262 242.407166 
L 206.487556 245.030977 
L 206.974849 243.507847 
L 207.462143 244.466309 
L 207.949437 246.204347 
L 208.43673 246.355425 
L 208.924024 243.880926 
L 209.411318 246.756595 
L 209.898611 248.240296 
L 210.385905 248.109895 
L 210.873199 242.749447 
L 211.360493 243.701157 
L 211.847786 245.524155 
L 212.33508 241.796205 
L 212.822374 243.078752 
L 213.309667 243.368511 
L 213.796961 245.851203 
L 214.284255 246.905953 
L 214.771548 245.943491 
L 215.258842 247.910841 
L 215.746136 249.150356 
L 216.233429 244.606921 
L 216.720723 245.188091 
L 217.208017 246.004954 
L 217.69531 250.752987 
L 218.182604 249.206906 
L 218.669898 250.107203 
L 219.157192 247.211906 
L 219.644485 250.349925 
L 220.131779 247.074498 
L 220.619073 247.792701 
L 221.106366 247.090256 
L 221.59366 252.00766 
L 222.080954 246.353544 
L 222.568247 249.092816 
L 223.055541 246.71885 
L 223.542835 252.352394 
L 224.030128 246.963341 
L 224.517422 250.907064 
L 225.004716 244.073277 
L 225.492009 251.885891 
L 225.979303 247.945521 
L 226.466597 249.092944 
L 226.95389 251.19717 
L 227.441184 248.527111 
L 227.928478 249.02002 
L 228.415772 249.679794 
L 229.390359 251.715796 
L 229.877653 250.534125 
L 230.364946 246.452312 
L 230.85224 250.046505 
L 231.339534 250.035197 
L 231.826827 252.01531 
L 232.314121 252.556408 
L 232.801415 249.932699 
L 233.288708 249.644769 
L 233.776002 254.555156 
L 234.263296 251.566186 
L 234.750589 252.71575 
L 235.237883 251.021039 
L 235.725177 251.265858 
L 236.212471 252.925792 
L 236.699764 254.158159 
L 237.187058 254.857681 
L 237.674352 253.472331 
L 238.161645 253.256805 
L 238.648939 258.636949 
L 239.136233 250.199424 
L 239.623526 255.404725 
L 240.11082 251.918134 
L 240.598114 253.572545 
L 241.085407 252.539922 
L 241.572701 249.853841 
L 242.059995 249.401015 
L 242.547288 250.265405 
L 243.034582 252.348736 
L 243.521876 253.781014 
L 244.00917 252.995456 
L 244.496463 254.527729 
L 244.983757 249.283846 
L 245.471051 256.722179 
L 245.958344 255.128546 
L 246.445638 256.467044 
L 247.420225 254.037592 
L 247.907519 255.597917 
L 248.394813 252.783228 
L 248.882106 253.848746 
L 249.856694 257.317017 
L 250.343987 254.530354 
L 250.831281 255.706996 
L 251.318575 254.295836 
L 251.805868 251.669628 
L 252.293162 255.389871 
L 252.780456 252.272782 
L 253.26775 256.453578 
L 253.755043 249.767172 
L 254.242337 254.768347 
L 254.729631 255.202886 
L 255.216924 254.543356 
L 255.704218 252.880507 
L 256.191512 258.995366 
L 256.678805 253.711379 
L 257.166099 254.504007 
L 257.653393 254.767418 
L 258.140686 253.003059 
L 258.62798 256.463731 
L 259.115274 251.30156 
L 259.602567 256.687153 
L 260.089861 258.445669 
L 260.577155 256.988617 
L 261.064449 257.276165 
L 261.551742 253.970066 
L 262.039036 253.596639 
L 262.52633 257.511479 
L 263.500917 253.313695 
L 264.475504 256.807651 
L 264.962798 262.041643 
L 265.937385 255.794121 
L 266.424679 254.225963 
L 266.911973 257.406824 
L 267.88656 256.223664 
L 268.373854 258.992071 
L 268.861147 254.580526 
L 269.348441 258.735619 
L 269.835735 258.766695 
L 270.810322 257.954613 
L 271.297616 255.519909 
L 271.78491 258.471159 
L 272.272203 259.31098 
L 272.759497 262.287438 
L 273.246791 260.502384 
L 273.734084 256.959745 
L 274.221378 257.512291 
L 274.708672 259.670253 
L 275.683259 256.30659 
L 276.170553 255.225371 
L 276.657846 257.729304 
L 277.14514 256.859196 
L 277.632434 260.148483 
L 278.119728 257.638726 
L 278.607021 260.143396 
L 279.094315 254.937282 
L 279.581609 258.319057 
L 280.068902 257.392707 
L 280.556196 259.883259 
L 281.04349 260.063016 
L 281.530783 258.817186 
L 282.018077 262.236634 
L 282.505371 261.188123 
L 282.992664 257.176104 
L 283.479958 259.598642 
L 283.967252 263.4733 
L 284.454545 256.915124 
L 284.941839 260.40461 
L 285.429133 258.806521 
L 285.916427 258.46755 
L 286.40372 261.897309 
L 286.891014 258.884939 
L 287.378308 258.491368 
L 287.865601 259.240424 
L 288.352895 257.36528 
L 288.840189 259.667235 
L 289.327482 260.508745 
L 289.814776 257.558276 
L 290.30207 257.758539 
L 290.789363 258.260226 
L 291.276657 259.321821 
L 291.763951 258.011904 
L 292.251244 257.077245 
L 292.738538 258.516879 
L 293.225832 261.408293 
L 293.713125 261.239356 
L 294.200419 263.333362 
L 294.687713 259.656377 
L 295.175007 263.57866 
L 295.6623 257.730273 
L 296.149594 261.404578 
L 296.636888 261.401183 
L 297.124181 260.587697 
L 297.611475 262.615198 
L 298.098769 259.271095 
L 298.586062 261.765671 
L 299.073356 256.885754 
L 299.56065 258.174258 
L 300.047943 262.817143 
L 300.535237 259.378638 
L 301.022531 261.149492 
L 301.509824 259.992884 
L 301.997118 262.975066 
L 302.484412 263.60345 
L 302.971706 260.177293 
L 303.458999 262.647372 
L 303.946293 260.440539 
L 304.433587 263.485626 
L 304.92088 260.88622 
L 305.408174 258.992071 
L 305.895468 264.693914 
L 306.382761 259.062025 
L 306.870055 259.658187 
L 307.357349 262.658454 
L 307.844642 264.489477 
L 308.331936 262.082026 
L 308.81923 261.187539 
L 309.306523 258.512857 
L 309.793817 257.084948 
L 310.281111 260.475243 
L 310.768405 265.610902 
L 311.255698 263.522101 
L 311.742992 257.139376 
L 312.230286 261.61673 
L 312.717579 261.45537 
L 313.204873 261.137503 
L 313.692167 260.263736 
L 314.17946 261.909345 
L 314.666754 263.950192 
L 315.154048 263.869047 
L 315.641341 260.671884 
L 316.128635 262.634282 
L 316.615929 259.830999 
L 317.103222 261.808598 
L 317.590516 261.628219 
L 318.07781 263.856156 
L 318.565103 260.483082 
L 319.052397 259.641759 
L 319.539691 261.39196 
L 320.026985 262.274329 
L 320.514278 260.28094 
L 321.001572 259.739725 
L 321.488866 261.132783 
L 321.976159 261.193546 
L 322.463453 260.132774 
L 322.950747 261.804093 
L 323.43804 265.8128 
L 323.925334 263.159256 
L 324.412628 259.870176 
L 324.899921 259.674018 
L 325.387215 262.974213 
L 325.874509 260.890932 
L 326.361802 262.245767 
L 326.849096 265.424084 
L 327.33639 260.13417 
L 327.823684 262.268796 
L 328.310977 258.916373 
L 328.798271 259.343285 
L 329.285565 264.251371 
L 329.772858 259.102543 
L 330.260152 262.648562 
L 330.747446 264.892625 
L 331.234739 262.484037 
L 331.722033 261.934778 
L 332.209327 259.880453 
L 332.69662 261.422246 
L 333.183914 262.149244 
L 333.671208 259.70906 
L 334.158501 261.064748 
L 334.645795 263.720819 
L 335.133089 262.411457 
L 335.620382 261.654305 
L 336.107676 263.175581 
L 336.59497 262.617083 
L 337.082264 265.750204 
L 337.569557 263.669058 
L 338.056851 262.546823 
L 338.544145 261.047574 
L 339.031438 261.503164 
L 339.518732 260.772987 
L 340.006026 262.645873 
L 340.493319 262.830341 
L 340.980613 262.483692 
L 341.467907 260.193811 
L 341.9552 263.558717 
L 342.442494 265.044364 
L 342.929788 263.710661 
L 343.417081 264.892119 
L 343.904375 264.58834 
L 344.391669 261.735529 
L 345.366256 264.632852 
L 345.85355 260.038954 
L 346.340844 262.415886 
L 346.828137 264.00211 
L 347.315431 263.899479 
L 347.802725 262.614127 
L 348.290018 262.927364 
L 348.777312 258.6313 
L 349.264606 265.061496 
L 349.751899 263.133496 
L 350.239193 265.222381 
L 350.726487 266.222732 
L 351.21378 265.092141 
L 351.701074 258.512786 
L 352.188368 264.031691 
L 352.675662 262.677814 
L 353.162955 259.848307 
L 353.650249 265.970614 
L 354.137543 261.028374 
L 354.624836 262.474457 
L 355.11213 262.442846 
L 355.599424 264.664879 
L 356.574011 262.269328 
L 357.061305 262.308897 
L 357.548598 260.148224 
L 358.035892 264.523307 
L 358.523186 263.271052 
L 359.010479 263.738767 
L 359.497773 265.344257 
L 359.985067 265.165095 
L 360.47236 263.737387 
L 360.959654 266.485417 
L 361.446948 262.891997 
L 361.934242 265.754398 
L 362.421535 261.427492 
L 362.908829 265.586441 
L 363.396123 260.217382 
L 363.883416 258.768198 
L 364.37071 260.359079 
L 364.858004 263.084293 
L 365.345297 265.143797 
L 365.832591 260.356404 
L 366.319885 266.52593 
L 366.807178 259.887213 
L 367.294472 263.98756 
L 367.781766 264.89935 
L 368.269059 261.429254 
L 368.756353 265.089138 
L 369.243647 261.840482 
L 370.218234 265.335603 
L 370.705528 264.749157 
L 371.192822 265.714868 
L 372.167409 259.765998 
L 372.654703 261.141608 
L 373.141996 260.39556 
L 373.62929 258.715613 
L 374.116584 267.58905 
L 375.091171 260.44806 
L 376.065758 264.981924 
L 376.553052 263.684035 
L 377.040346 265.382687 
L 377.52764 265.218327 
L 378.014933 262.347195 
L 378.502227 267.009955 
L 379.476814 262.139782 
L 379.964108 263.062364 
L 380.451402 267.787176 
L 380.938695 263.084439 
L 381.425989 266.284497 
L 381.913283 265.583627 
L 382.400576 266.819026 
L 382.88787 263.995303 
L 383.375164 265.544277 
L 383.862457 266.363502 
L 384.349751 262.470444 
L 384.837045 264.808933 
L 385.324338 262.458431 
L 385.811632 263.825426 
L 386.298926 262.602172 
L 386.78622 266.408445 
L 387.273513 265.851477 
L 387.760807 265.928447 
L 388.735394 266.659744 
L 389.222688 266.656902 
L 389.709982 263.828993 
L 390.197275 264.410799 
L 390.684569 262.261823 
L 391.171863 266.02242 
L 391.659156 265.827338 
L 392.14645 263.551166 
L 392.633744 266.391897 
L 393.121037 266.878829 
L 393.608331 264.138103 
L 394.095625 265.917421 
L 394.582919 266.436563 
L 395.070212 266.107754 
L 395.557506 264.77468 
L 396.0448 262.495825 
L 396.532093 263.385788 
L 397.019387 263.617733 
L 397.506681 264.036761 
L 397.993974 266.061916 
L 398.481268 263.96474 
L 398.968562 267.520146 
L 399.455855 263.115221 
L 399.943149 260.377753 
L 400.430443 263.835458 
L 400.917736 261.425752 
L 401.40503 266.881236 
L 401.892324 262.869922 
L 402.379618 265.601016 
L 402.866911 265.540414 
L 403.354205 262.888911 
L 403.841499 264.363988 
L 404.328792 266.427424 
L 404.816086 266.196235 
L 405.30338 268.656016 
L 405.790673 262.129472 
L 406.277967 265.931743 
L 406.765261 264.954758 
L 407.252554 266.763323 
L 407.739848 266.499197 
L 408.227142 268.069237 
L 408.714435 267.359982 
L 409.201729 267.288229 
L 409.689023 269.431874 
L 410.176316 270.636055 
L 410.66361 267.256416 
L 411.150904 265.312708 
L 411.638198 265.271593 
L 412.125491 266.533769 
L 412.612785 264.033875 
L 413.100079 265.983352 
L 413.587372 266.093512 
L 414.074666 263.017363 
L 414.56196 265.647701 
L 415.536547 264.9085 
L 416.023841 264.119137 
L 416.511134 270.246426 
L 416.998428 267.066816 
L 417.485722 262.638275 
L 417.973015 267.135844 
L 418.460309 263.134248 
L 418.947603 261.715696 
L 419.434897 264.988248 
L 419.92219 264.090641 
L 420.409484 262.830306 
L 420.896778 265.569121 
L 421.384071 262.201252 
L 421.871365 269.563614 
L 422.358659 263.331264 
L 423.333246 266.561486 
L 423.82054 263.477728 
L 424.307833 268.747702 
L 424.795127 265.485104 
L 425.282421 264.898307 
L 425.769714 267.785123 
L 426.257008 267.359725 
L 426.744302 268.214442 
L 427.231595 267.839911 
L 427.718889 262.073107 
L 428.206183 263.58831 
L 428.693477 266.424028 
L 429.18077 266.682714 
L 429.668064 261.380414 
L 430.155358 264.520927 
L 430.642651 260.585304 
L 431.129945 268.251042 
L 431.617239 265.385488 
L 432.104532 263.330057 
L 432.591826 265.469148 
L 433.07912 266.188605 
L 433.566413 263.748024 
L 434.053707 264.798829 
L 434.541001 267.75702 
L 435.028294 266.093431 
L 435.515588 261.09519 
L 436.002882 264.652139 
L 436.490176 262.558132 
L 436.977469 261.617965 
L 437.464763 269.111679 
L 437.952057 267.285639 
L 438.43935 269.08451 
L 439.413938 264.32023 
L 439.901231 264.103728 
L 440.388525 268.901346 
L 440.875819 269.002929 
L 441.363112 267.046055 
L 441.850406 264.442323 
L 442.3377 269.268045 
L 442.824993 262.013723 
L 443.312287 268.882664 
L 443.799581 259.565607 
L 444.286875 267.486082 
L 444.774168 267.884015 
L 445.261462 268.459549 
L 445.748756 266.478869 
L 446.236049 265.294233 
L 446.723343 261.794327 
L 447.210637 261.156995 
L 447.69793 265.052954 
L 448.185224 264.901925 
L 448.672518 263.874233 
L 449.159811 268.483023 
L 449.647105 264.809703 
L 450.134399 265.756004 
L 450.621692 265.322999 
L 451.108986 266.263562 
L 451.59628 262.665201 
L 452.083573 265.152702 
L 452.570867 264.591484 
L 453.058161 264.343963 
L 453.545455 263.044183 
L 454.032748 262.384155 
L 454.520042 268.205781 
L 455.007336 263.952879 
L 455.494629 267.773437 
L 455.981923 269.224432 
L 456.469217 267.045379 
L 456.95651 262.38278 
L 457.443804 265.804624 
L 457.931098 264.90146 
L 458.418391 265.700919 
L 458.905685 265.414922 
L 459.880272 264.231856 
L 460.367566 263.806961 
L 460.85486 264.483641 
L 461.342154 267.91157 
L 461.829447 270.133979 
L 462.316741 268.192167 
L 462.804035 267.368483 
L 463.291328 266.259328 
L 463.778622 259.594827 
L 464.265916 264.033336 
L 464.753209 265.915393 
L 465.240503 267.002727 
L 465.727797 262.028519 
L 466.21509 265.691718 
L 466.702384 260.067906 
L 467.189678 268.155115 
L 467.676971 262.661344 
L 468.164265 268.825547 
L 468.651559 265.959646 
L 469.138853 267.300721 
L 469.626146 267.633623 
L 470.11344 266.636596 
L 470.600734 262.249711 
L 471.088027 269.875525 
L 471.575321 259.831634 
L 472.062615 264.533792 
L 472.549908 263.907463 
L 473.037202 265.2707 
L 473.524496 263.928983 
L 474.011789 264.640616 
L 474.499083 262.919108 
L 474.986377 265.949272 
L 475.47367 261.8497 
L 475.960964 268.325197 
L 476.448258 265.210489 
L 476.935551 267.932206 
L 477.422845 262.64968 
L 477.910139 264.67056 
L 478.397433 265.680746 
L 478.884726 269.557237 
L 479.37202 270.15757 
L 479.859314 264.357884 
L 480.346607 262.738272 
L 480.833901 263.32169 
L 481.321195 264.775185 
L 481.808488 263.326508 
L 482.295782 263.01299 
L 482.783076 263.464863 
L 483.270369 267.023834 
L 483.757663 266.04139 
L 484.244957 263.315059 
L 484.73225 264.668889 
L 485.219544 263.871332 
L 485.706838 265.305921 
L 486.194132 267.465511 
L 486.681425 271.026733 
L 487.168719 265.247191 
L 487.656013 264.873287 
L 488.143306 266.373658 
L 488.6306 260.759302 
L 489.117894 263.306648 
L 489.605187 268.450278 
L 490.092481 265.388218 
L 490.579775 268.017255 
L 491.067068 262.396944 
L 491.554362 265.232433 
L 492.041656 264.941076 
L 492.528949 263.95182 
L 493.016243 267.589102 
L 493.503537 267.583959 
L 493.99083 267.12546 
L 494.478124 265.745724 
L 494.965418 261.362194 
L 495.452712 263.586978 
L 495.940005 264.151052 
L 496.427299 262.365002 
L 496.914593 265.156344 
L 497.401886 268.764545 
L 498.376474 266.037888 
L 498.863767 265.249058 
L 499.351061 264.020794 
L 499.838355 267.436287 
L 500.325648 265.660072 
L 500.812942 271.387907 
L 501.300236 263.363194 
L 501.787529 265.647893 
L 502.274823 265.143874 
L 502.762117 266.694108 
L 503.249411 265.798366 
L 504.223998 260.334059 
L 504.711292 266.428719 
L 505.198585 262.935762 
L 505.685879 261.697649 
L 506.173173 265.196982 
L 506.660466 267.195526 
L 507.635054 261.493257 
L 508.122347 265.25267 
L 508.609641 261.226181 
L 509.096935 267.155669 
L 509.584228 264.174262 
L 510.071522 266.595316 
L 511.04611 266.979919 
L 511.533403 265.884422 
L 512.020697 263.859121 
L 512.507991 266.033894 
L 512.995284 265.609263 
L 513.482578 266.37711 
L 513.969872 266.267309 
L 514.457165 267.61039 
L 514.944459 265.987415 
L 515.431753 265.830865 
L 515.919046 266.623224 
L 516.40634 265.690816 
L 516.893634 267.198094 
L 517.380927 269.532095 
L 517.868221 258.566041 
L 518.355515 266.109895 
L 518.842808 266.917569 
L 519.330102 266.736637 
L 519.817396 265.924874 
L 520.30469 269.378581 
L 520.791983 263.090853 
L 521.279277 263.974152 
L 521.766571 266.010842 
L 522.253864 261.999053 
L 522.741158 264.938171 
L 523.228452 265.281159 
L 523.715745 267.068654 
L 524.203039 265.293126 
L 524.690333 266.10484 
L 525.66492 263.509443 
L 526.152214 266.257609 
L 526.639507 268.286627 
L 527.126801 266.95075 
L 527.614095 263.501722 
L 528.101389 264.408126 
L 528.588682 263.156037 
L 529.075976 268.650202 
L 529.56327 264.707279 
L 530.050563 264.648368 
L 530.537857 262.952933 
L 531.025151 264.250699 
L 531.512444 266.856407 
L 531.999738 266.06695 
L 532.487032 262.464615 
L 532.974325 266.528966 
L 533.461619 260.5153 
L 534.436206 265.005708 
L 534.9235 263.440302 
L 535.410794 261.069561 
L 535.898088 263.764575 
L 536.385381 264.169157 
L 536.872675 267.958216 
L 537.359969 262.924237 
L 537.847262 264.298984 
L 538.334556 267.257511 
L 538.82185 265.041891 
L 539.309143 264.56407 
L 539.796437 262.985931 
L 540.283731 263.338919 
L 540.771024 268.510897 
L 541.258318 262.890775 
L 541.745612 266.331182 
L 542.232905 262.047094 
L 542.720199 264.548937 
L 543.207493 262.172665 
L 543.694786 267.681999 
L 544.18208 264.260392 
L 544.669374 266.778342 
L 545.156668 266.74001 
L 545.643961 263.230818 
L 546.131255 266.862712 
L 546.618549 262.959494 
L 547.105842 266.433985 
L 547.593136 266.84329 
L 548.08043 266.52788 
L 548.567723 265.661223 
L 549.055017 265.876788 
L 549.542311 262.481168 
L 550.029604 263.583485 
L 550.516898 264.133004 
L 551.004192 263.64769 
L 551.491485 267.111605 
L 551.978779 266.850559 
L 552.466073 264.822558 
L 552.953367 263.311027 
L 553.44066 264.786233 
L 553.927954 262.151875 
L 554.415248 265.224176 
L 554.902541 262.922473 
L 555.389835 263.625145 
L 555.877129 259.606523 
L 556.364422 265.291075 
L 556.851716 263.549937 
L 557.33901 261.269397 
L 557.826303 261.765192 
L 558.313597 268.553884 
L 558.800891 266.854211 
L 559.288184 264.117315 
L 559.775478 265.612739 
L 560.262772 261.821762 
L 560.750065 264.235413 
L 561.237359 268.684265 
L 561.724653 264.253682 
L 562.211947 266.300189 
L 562.69924 266.197778 
L 563.186534 266.42267 
L 563.673828 264.270386 
L 564.161121 269.300441 
L 564.648415 261.043873 
L 565.135709 269.0862 
L 565.623002 267.737532 
L 566.110296 264.758222 
L 566.59759 269.3616 
L 567.084883 268.698437 
L 567.572177 264.497115 
L 568.059471 265.466313 
L 568.546764 262.178026 
L 569.034058 262.96361 
L 569.521352 265.931306 
L 570.008646 265.73819 
L 570.495939 267.509562 
L 570.983233 268.140407 
L 571.470527 266.264676 
L 571.95782 262.494674 
L 572.445114 261.018032 
L 572.932408 264.455005 
L 573.419701 265.745386 
L 573.906995 266.306678 
L 574.394289 262.136962 
L 574.881582 267.925748 
L 575.368876 265.857645 
L 575.85617 261.46517 
L 576.343463 260.402669 
L 576.830757 266.54791 
L 577.318051 265.726068 
L 577.805345 267.538251 
L 578.292638 268.821593 
L 578.779932 264.353601 
L 579.267226 266.158918 
L 579.754519 264.658793 
L 580.241813 261.485953 
L 581.2164 265.131573 
L 581.703694 263.065707 
L 582.190988 262.463676 
L 582.678281 267.765284 
L 583.165575 265.17835 
L 583.652869 264.043027 
L 584.140162 262.338249 
L 584.627456 264.804409 
L 585.11475 261.381911 
L 586.089337 268.842343 
L 586.576631 260.910244 
L 587.063925 266.453672 
L 587.551218 263.311325 
L 588.038512 266.236241 
L 588.525806 267.689283 
L 589.013099 267.246573 
L 589.500393 266.143262 
L 589.987687 266.921471 
L 590.47498 263.6797 
L 591.449568 265.45761 
L 591.936861 268.060479 
L 592.424155 261.620554 
L 592.911449 264.537632 
L 593.398742 263.291379 
L 593.886036 260.682582 
L 594.37333 266.181464 
L 594.860624 267.486885 
L 595.347917 267.925481 
L 595.835211 266.085645 
L 596.322505 263.21086 
L 596.809798 264.021872 
L 597.297092 263.977206 
L 597.784386 264.682045 
L 598.271679 263.860356 
L 598.758973 264.454612 
L 599.246267 267.293584 
L 599.73356 264.101533 
L 600.220854 266.189056 
L 600.708148 267.580708 
L 601.195441 264.874704 
L 601.682735 265.192804 
L 602.170029 262.71318 
L 602.657323 266.3155 
L 603.144616 266.47294 
L 603.63191 259.574764 
L 604.119204 265.187918 
L 604.606497 268.794089 
L 605.093791 264.098099 
L 605.581085 267.518494 
L 606.068378 260.511656 
L 606.555672 263.074535 
L 607.042966 264.038283 
L 607.530259 263.70905 
L 608.017553 264.297977 
L 608.99214 259.81514 
L 609.479434 260.361166 
L 609.966728 265.130252 
L 610.454021 264.457637 
L 610.941315 262.716832 
L 611.428609 265.680499 
L 611.915903 262.126712 
L 612.403196 266.47896 
L 612.89049 267.231882 
L 613.865077 263.849827 
L 614.352371 268.886879 
L 614.839665 262.923374 
L 615.326958 267.369966 
L 616.301546 258.291877 
L 616.788839 265.013053 
L 617.276133 263.12657 
L 617.763427 262.09988 
L 618.25072 264.534241 
L 618.738014 261.352985 
L 619.225308 264.650266 
L 619.712602 264.839625 
L 620.199895 260.905898 
L 620.687189 266.757182 
L 621.174483 264.398428 
L 621.661776 264.023145 
L 622.14907 267.654939 
L 622.636364 262.822112 
L 622.636364 262.822112 
" style="fill:none;stroke:#ff7f0e;stroke-linecap:square;stroke-width:0.5;"/>
   </g>
   <g id="patch_3">
    <path d="M 90 315 
L 90 43.2 
" style="fill:none;stroke:#000000;stroke-linecap:square;stroke-linejoin:miter;stroke-width:0.8;"/>
   </g>
   <g id="patch_4">
    <path d="M 648 315 
L 648 43.2 
" style="fill:none;stroke:#000000;stroke-linecap:square;stroke-linejoin:miter;stroke-width:0.8;"/>
   </g>
   <g id="patch_5">
    <path d="M 90 315 
L 648 315 
" style="fill:none;stroke:#000000;stroke-linecap:square;stroke-linejoin:miter;stroke-width:0.8;"/>
   </g>
   <g id="patch_6">
    <path d="M 90 43.2 
L 648 43.2 
" style="fill:none;stroke:#000000;stroke-linecap:square;stroke-linejoin:miter;stroke-width:0.8;"/>
   </g>
   <g id="text_17">
    <!-- loss -->
    <g transform="translate(357.410625 37.2)scale(0.12 -0.12)">
     <use xlink:href="#DejaVuSans-108"/>
     <use x="27.783203" xlink:href="#DejaVuSans-111"/>
     <use x="88.964844" xlink:href="#DejaVuSans-115"/>
     <use x="141.064453" xlink:href="#DejaVuSans-115"/>
    </g>
   </g>
   <g id="legend_1">
    <g id="patch_7">
     <path d="M 568.846875 80.55625 
L 641 80.55625 
Q 643 80.55625 643 78.55625 
L 643 50.2 
Q 643 48.2 641 48.2 
L 568.846875 48.2 
Q 566.846875 48.2 566.846875 50.2 
L 566.846875 78.55625 
Q 566.846875 80.55625 568.846875 80.55625 
z
" style="fill:#ffffff;opacity:0.8;stroke:#cccccc;stroke-linejoin:miter;"/>
    </g>
    <g id="line2d_31">
     <path d="M 570.846875 56.298437 
L 590.846875 56.298437 
" style="fill:none;stroke:#1f77b4;stroke-linecap:square;stroke-width:0.5;"/>
    </g>
    <g id="line2d_32"/>
    <g id="text_18">
     <!-- train -->
     <defs>
      <path d="M 18.3125 70.21875 
L 18.3125 54.6875 
L 36.8125 54.6875 
L 36.8125 47.703125 
L 18.3125 47.703125 
L 18.3125 18.015625 
Q 18.3125 11.328125 20.140625 9.421875 
Q 21.96875 7.515625 27.59375 7.515625 
L 36.8125 7.515625 
L 36.8125 0 
L 27.59375 0 
Q 17.1875 0 13.234375 3.875 
Q 9.28125 7.765625 9.28125 18.015625 
L 9.28125 47.703125 
L 2.6875 47.703125 
L 2.6875 54.6875 
L 9.28125 54.6875 
L 9.28125 70.21875 
z
" id="DejaVuSans-116"/>
      <path d="M 41.109375 46.296875 
Q 39.59375 47.171875 37.8125 47.578125 
Q 36.03125 48 33.890625 48 
Q 26.265625 48 22.1875 43.046875 
Q 18.109375 38.09375 18.109375 28.8125 
L 18.109375 0 
L 9.078125 0 
L 9.078125 54.6875 
L 18.109375 54.6875 
L 18.109375 46.1875 
Q 20.953125 51.171875 25.484375 53.578125 
Q 30.03125 56 36.53125 56 
Q 37.453125 56 38.578125 55.875 
Q 39.703125 55.765625 41.0625 55.515625 
z
" id="DejaVuSans-114"/>
      <path d="M 34.28125 27.484375 
Q 23.390625 27.484375 19.1875 25 
Q 14.984375 22.515625 14.984375 16.5 
Q 14.984375 11.71875 18.140625 8.90625 
Q 21.296875 6.109375 26.703125 6.109375 
Q 34.1875 6.109375 38.703125 11.40625 
Q 43.21875 16.703125 43.21875 25.484375 
L 43.21875 27.484375 
z
M 52.203125 31.203125 
L 52.203125 0 
L 43.21875 0 
L 43.21875 8.296875 
Q 40.140625 3.328125 35.546875 0.953125 
Q 30.953125 -1.421875 24.3125 -1.421875 
Q 15.921875 -1.421875 10.953125 3.296875 
Q 6 8.015625 6 15.921875 
Q 6 25.140625 12.171875 29.828125 
Q 18.359375 34.515625 30.609375 34.515625 
L 43.21875 34.515625 
L 43.21875 35.40625 
Q 43.21875 41.609375 39.140625 45 
Q 35.0625 48.390625 27.6875 48.390625 
Q 23 48.390625 18.546875 47.265625 
Q 14.109375 46.140625 10.015625 43.890625 
L 10.015625 52.203125 
Q 14.9375 54.109375 19.578125 55.046875 
Q 24.21875 56 28.609375 56 
Q 40.484375 56 46.34375 49.84375 
Q 52.203125 43.703125 52.203125 31.203125 
z
" id="DejaVuSans-97"/>
      <path d="M 9.421875 54.6875 
L 18.40625 54.6875 
L 18.40625 0 
L 9.421875 0 
z
M 9.421875 75.984375 
L 18.40625 75.984375 
L 18.40625 64.59375 
L 9.421875 64.59375 
z
" id="DejaVuSans-105"/>
      <path d="M 54.890625 33.015625 
L 54.890625 0 
L 45.90625 0 
L 45.90625 32.71875 
Q 45.90625 40.484375 42.875 44.328125 
Q 39.84375 48.1875 33.796875 48.1875 
Q 26.515625 48.1875 22.3125 43.546875 
Q 18.109375 38.921875 18.109375 30.90625 
L 18.109375 0 
L 9.078125 0 
L 9.078125 54.6875 
L 18.109375 54.6875 
L 18.109375 46.1875 
Q 21.34375 51.125 25.703125 53.5625 
Q 30.078125 56 35.796875 56 
Q 45.21875 56 50.046875 50.171875 
Q 54.890625 44.34375 54.890625 33.015625 
z
" id="DejaVuSans-110"/>
     </defs>
     <g transform="translate(598.846875 59.798437)scale(0.1 -0.1)">
      <use xlink:href="#DejaVuSans-116"/>
      <use x="39.208984" xlink:href="#DejaVuSans-114"/>
      <use x="80.322266" xlink:href="#DejaVuSans-97"/>
      <use x="141.601562" xlink:href="#DejaVuSans-105"/>
      <use x="169.384766" xlink:href="#DejaVuSans-110"/>
     </g>
    </g>
    <g id="line2d_33">
     <path d="M 570.846875 70.976562 
L 590.846875 70.976562 
" style="fill:none;stroke:#ff7f0e;stroke-linecap:square;stroke-width:0.5;"/>
    </g>
    <g id="line2d_34"/>
    <g id="text_19">
     <!-- validate -->
     <defs>
      <path d="M 2.984375 54.6875 
L 12.5 54.6875 
L 29.59375 8.796875 
L 46.6875 54.6875 
L 56.203125 54.6875 
L 35.6875 0 
L 23.484375 0 
z
" id="DejaVuSans-118"/>
      <path d="M 45.40625 46.390625 
L 45.40625 75.984375 
L 54.390625 75.984375 
L 54.390625 0 
L 45.40625 0 
L 45.40625 8.203125 
Q 42.578125 3.328125 38.25 0.953125 
Q 33.9375 -1.421875 27.875 -1.421875 
Q 17.96875 -1.421875 11.734375 6.484375 
Q 5.515625 14.40625 5.515625 27.296875 
Q 5.515625 40.1875 11.734375 48.09375 
Q 17.96875 56 27.875 56 
Q 33.9375 56 38.25 53.625 
Q 42.578125 51.265625 45.40625 46.390625 
z
M 14.796875 27.296875 
Q 14.796875 17.390625 18.875 11.75 
Q 22.953125 6.109375 30.078125 6.109375 
Q 37.203125 6.109375 41.296875 11.75 
Q 45.40625 17.390625 45.40625 27.296875 
Q 45.40625 37.203125 41.296875 42.84375 
Q 37.203125 48.484375 30.078125 48.484375 
Q 22.953125 48.484375 18.875 42.84375 
Q 14.796875 37.203125 14.796875 27.296875 
z
" id="DejaVuSans-100"/>
     </defs>
     <g transform="translate(598.846875 74.476562)scale(0.1 -0.1)">
      <use xlink:href="#DejaVuSans-118"/>
      <use x="59.179688" xlink:href="#DejaVuSans-97"/>
      <use x="120.458984" xlink:href="#DejaVuSans-108"/>
      <use x="148.242188" xlink:href="#DejaVuSans-105"/>
      <use x="176.025391" xlink:href="#DejaVuSans-100"/>
      <use x="239.501953" xlink:href="#DejaVuSans-97"/>
      <use x="300.78125" xlink:href="#DejaVuSans-116"/>
      <use x="339.990234" xlink:href="#DejaVuSans-101"/>
     </g>
    </g>
   </g>
  </g>
 </g>
 <defs>
  <clipPath id="pe6200039af">
   <rect height="271.8" width="558" x="90" y="43.2"/>
  </clipPath>
 </defs>
</svg>
