<?xml version="1.0" encoding="utf-8" standalone="no"?>
<!DOCTYPE svg PUBLIC "-//W3C//DTD SVG 1.1//EN"
  "http://www.w3.org/Graphics/SVG/1.1/DTD/svg11.dtd">
<!-- Created with matplotlib (https://matplotlib.org/) -->
<svg height="360pt" version="1.1" viewBox="0 0 720 360" width="720pt" xmlns="http://www.w3.org/2000/svg" xmlns:xlink="http://www.w3.org/1999/xlink">
 <defs>
  <style type="text/css">
*{stroke-linecap:butt;stroke-linejoin:round;}
  </style>
 </defs>
 <g id="figure_1">
  <g id="patch_1">
   <path d="M 0 360 
L 720 360 
L 720 0 
L 0 0 
z
" style="fill:#ffffff;"/>
  </g>
  <g id="axes_1">
   <g id="patch_2">
    <path d="M 90 315 
L 648 315 
L 648 43.2 
L 90 43.2 
z
" style="fill:#ffffff;"/>
   </g>
   <g id="matplotlib.axis_1">
    <g id="xtick_1">
     <g id="line2d_1">
      <path clip-path="url(#p1f4f912e87)" d="M 115.363636 315 
L 115.363636 43.2 
" style="fill:none;stroke:#b0b0b0;stroke-linecap:square;stroke-width:0.8;"/>
     </g>
     <g id="line2d_2">
      <defs>
       <path d="M 0 0 
L 0 3.5 
" id="m2221d99499" style="stroke:#000000;stroke-width:0.8;"/>
      </defs>
      <g>
       <use style="stroke:#000000;stroke-width:0.8;" x="115.363636" xlink:href="#m2221d99499" y="315"/>
      </g>
     </g>
     <g id="text_1">
      <!-- 0 -->
      <defs>
       <path d="M 31.78125 66.40625 
Q 24.171875 66.40625 20.328125 58.90625 
Q 16.5 51.421875 16.5 36.375 
Q 16.5 21.390625 20.328125 13.890625 
Q 24.171875 6.390625 31.78125 6.390625 
Q 39.453125 6.390625 43.28125 13.890625 
Q 47.125 21.390625 47.125 36.375 
Q 47.125 51.421875 43.28125 58.90625 
Q 39.453125 66.40625 31.78125 66.40625 
z
M 31.78125 74.21875 
Q 44.046875 74.21875 50.515625 64.515625 
Q 56.984375 54.828125 56.984375 36.375 
Q 56.984375 17.96875 50.515625 8.265625 
Q 44.046875 -1.421875 31.78125 -1.421875 
Q 19.53125 -1.421875 13.0625 8.265625 
Q 6.59375 17.96875 6.59375 36.375 
Q 6.59375 54.828125 13.0625 64.515625 
Q 19.53125 74.21875 31.78125 74.21875 
z
" id="DejaVuSans-48"/>
      </defs>
      <g transform="translate(112.182386 329.598437)scale(0.1 -0.1)">
       <use xlink:href="#DejaVuSans-48"/>
      </g>
     </g>
    </g>
    <g id="xtick_2">
     <g id="line2d_3">
      <path clip-path="url(#p1f4f912e87)" d="M 209.827831 315 
L 209.827831 43.2 
" style="fill:none;stroke:#b0b0b0;stroke-linecap:square;stroke-width:0.8;"/>
     </g>
     <g id="line2d_4">
      <g>
       <use style="stroke:#000000;stroke-width:0.8;" x="209.827831" xlink:href="#m2221d99499" y="315"/>
      </g>
     </g>
     <g id="text_2">
      <!-- 200 -->
      <defs>
       <path d="M 19.1875 8.296875 
L 53.609375 8.296875 
L 53.609375 0 
L 7.328125 0 
L 7.328125 8.296875 
Q 12.9375 14.109375 22.625 23.890625 
Q 32.328125 33.6875 34.8125 36.53125 
Q 39.546875 41.84375 41.421875 45.53125 
Q 43.3125 49.21875 43.3125 52.78125 
Q 43.3125 58.59375 39.234375 62.25 
Q 35.15625 65.921875 28.609375 65.921875 
Q 23.96875 65.921875 18.8125 64.3125 
Q 13.671875 62.703125 7.8125 59.421875 
L 7.8125 69.390625 
Q 13.765625 71.78125 18.9375 73 
Q 24.125 74.21875 28.421875 74.21875 
Q 39.75 74.21875 46.484375 68.546875 
Q 53.21875 62.890625 53.21875 53.421875 
Q 53.21875 48.921875 51.53125 44.890625 
Q 49.859375 40.875 45.40625 35.40625 
Q 44.1875 33.984375 37.640625 27.21875 
Q 31.109375 20.453125 19.1875 8.296875 
z
" id="DejaVuSans-50"/>
      </defs>
      <g transform="translate(200.284081 329.598437)scale(0.1 -0.1)">
       <use xlink:href="#DejaVuSans-50"/>
       <use x="63.623047" xlink:href="#DejaVuSans-48"/>
       <use x="127.246094" xlink:href="#DejaVuSans-48"/>
      </g>
     </g>
    </g>
    <g id="xtick_3">
     <g id="line2d_5">
      <path clip-path="url(#p1f4f912e87)" d="M 304.292026 315 
L 304.292026 43.2 
" style="fill:none;stroke:#b0b0b0;stroke-linecap:square;stroke-width:0.8;"/>
     </g>
     <g id="line2d_6">
      <g>
       <use style="stroke:#000000;stroke-width:0.8;" x="304.292026" xlink:href="#m2221d99499" y="315"/>
      </g>
     </g>
     <g id="text_3">
      <!-- 400 -->
      <defs>
       <path d="M 37.796875 64.3125 
L 12.890625 25.390625 
L 37.796875 25.390625 
z
M 35.203125 72.90625 
L 47.609375 72.90625 
L 47.609375 25.390625 
L 58.015625 25.390625 
L 58.015625 17.1875 
L 47.609375 17.1875 
L 47.609375 0 
L 37.796875 0 
L 37.796875 17.1875 
L 4.890625 17.1875 
L 4.890625 26.703125 
z
" id="DejaVuSans-52"/>
      </defs>
      <g transform="translate(294.748276 329.598437)scale(0.1 -0.1)">
       <use xlink:href="#DejaVuSans-52"/>
       <use x="63.623047" xlink:href="#DejaVuSans-48"/>
       <use x="127.246094" xlink:href="#DejaVuSans-48"/>
      </g>
     </g>
    </g>
    <g id="xtick_4">
     <g id="line2d_7">
      <path clip-path="url(#p1f4f912e87)" d="M 398.756221 315 
L 398.756221 43.2 
" style="fill:none;stroke:#b0b0b0;stroke-linecap:square;stroke-width:0.8;"/>
     </g>
     <g id="line2d_8">
      <g>
       <use style="stroke:#000000;stroke-width:0.8;" x="398.756221" xlink:href="#m2221d99499" y="315"/>
      </g>
     </g>
     <g id="text_4">
      <!-- 600 -->
      <defs>
       <path d="M 33.015625 40.375 
Q 26.375 40.375 22.484375 35.828125 
Q 18.609375 31.296875 18.609375 23.390625 
Q 18.609375 15.53125 22.484375 10.953125 
Q 26.375 6.390625 33.015625 6.390625 
Q 39.65625 6.390625 43.53125 10.953125 
Q 47.40625 15.53125 47.40625 23.390625 
Q 47.40625 31.296875 43.53125 35.828125 
Q 39.65625 40.375 33.015625 40.375 
z
M 52.59375 71.296875 
L 52.59375 62.3125 
Q 48.875 64.0625 45.09375 64.984375 
Q 41.3125 65.921875 37.59375 65.921875 
Q 27.828125 65.921875 22.671875 59.328125 
Q 17.53125 52.734375 16.796875 39.40625 
Q 19.671875 43.65625 24.015625 45.921875 
Q 28.375 48.1875 33.59375 48.1875 
Q 44.578125 48.1875 50.953125 41.515625 
Q 57.328125 34.859375 57.328125 23.390625 
Q 57.328125 12.15625 50.6875 5.359375 
Q 44.046875 -1.421875 33.015625 -1.421875 
Q 20.359375 -1.421875 13.671875 8.265625 
Q 6.984375 17.96875 6.984375 36.375 
Q 6.984375 53.65625 15.1875 63.9375 
Q 23.390625 74.21875 37.203125 74.21875 
Q 40.921875 74.21875 44.703125 73.484375 
Q 48.484375 72.75 52.59375 71.296875 
z
" id="DejaVuSans-54"/>
      </defs>
      <g transform="translate(389.212471 329.598437)scale(0.1 -0.1)">
       <use xlink:href="#DejaVuSans-54"/>
       <use x="63.623047" xlink:href="#DejaVuSans-48"/>
       <use x="127.246094" xlink:href="#DejaVuSans-48"/>
      </g>
     </g>
    </g>
    <g id="xtick_5">
     <g id="line2d_9">
      <path clip-path="url(#p1f4f912e87)" d="M 493.220416 315 
L 493.220416 43.2 
" style="fill:none;stroke:#b0b0b0;stroke-linecap:square;stroke-width:0.8;"/>
     </g>
     <g id="line2d_10">
      <g>
       <use style="stroke:#000000;stroke-width:0.8;" x="493.220416" xlink:href="#m2221d99499" y="315"/>
      </g>
     </g>
     <g id="text_5">
      <!-- 800 -->
      <defs>
       <path d="M 31.78125 34.625 
Q 24.75 34.625 20.71875 30.859375 
Q 16.703125 27.09375 16.703125 20.515625 
Q 16.703125 13.921875 20.71875 10.15625 
Q 24.75 6.390625 31.78125 6.390625 
Q 38.8125 6.390625 42.859375 10.171875 
Q 46.921875 13.96875 46.921875 20.515625 
Q 46.921875 27.09375 42.890625 30.859375 
Q 38.875 34.625 31.78125 34.625 
z
M 21.921875 38.8125 
Q 15.578125 40.375 12.03125 44.71875 
Q 8.5 49.078125 8.5 55.328125 
Q 8.5 64.0625 14.71875 69.140625 
Q 20.953125 74.21875 31.78125 74.21875 
Q 42.671875 74.21875 48.875 69.140625 
Q 55.078125 64.0625 55.078125 55.328125 
Q 55.078125 49.078125 51.53125 44.71875 
Q 48 40.375 41.703125 38.8125 
Q 48.828125 37.15625 52.796875 32.3125 
Q 56.78125 27.484375 56.78125 20.515625 
Q 56.78125 9.90625 50.3125 4.234375 
Q 43.84375 -1.421875 31.78125 -1.421875 
Q 19.734375 -1.421875 13.25 4.234375 
Q 6.78125 9.90625 6.78125 20.515625 
Q 6.78125 27.484375 10.78125 32.3125 
Q 14.796875 37.15625 21.921875 38.8125 
z
M 18.3125 54.390625 
Q 18.3125 48.734375 21.84375 45.5625 
Q 25.390625 42.390625 31.78125 42.390625 
Q 38.140625 42.390625 41.71875 45.5625 
Q 45.3125 48.734375 45.3125 54.390625 
Q 45.3125 60.0625 41.71875 63.234375 
Q 38.140625 66.40625 31.78125 66.40625 
Q 25.390625 66.40625 21.84375 63.234375 
Q 18.3125 60.0625 18.3125 54.390625 
z
" id="DejaVuSans-56"/>
      </defs>
      <g transform="translate(483.676666 329.598437)scale(0.1 -0.1)">
       <use xlink:href="#DejaVuSans-56"/>
       <use x="63.623047" xlink:href="#DejaVuSans-48"/>
       <use x="127.246094" xlink:href="#DejaVuSans-48"/>
      </g>
     </g>
    </g>
    <g id="xtick_6">
     <g id="line2d_11">
      <path clip-path="url(#p1f4f912e87)" d="M 587.684611 315 
L 587.684611 43.2 
" style="fill:none;stroke:#b0b0b0;stroke-linecap:square;stroke-width:0.8;"/>
     </g>
     <g id="line2d_12">
      <g>
       <use style="stroke:#000000;stroke-width:0.8;" x="587.684611" xlink:href="#m2221d99499" y="315"/>
      </g>
     </g>
     <g id="text_6">
      <!-- 1000 -->
      <defs>
       <path d="M 12.40625 8.296875 
L 28.515625 8.296875 
L 28.515625 63.921875 
L 10.984375 60.40625 
L 10.984375 69.390625 
L 28.421875 72.90625 
L 38.28125 72.90625 
L 38.28125 8.296875 
L 54.390625 8.296875 
L 54.390625 0 
L 12.40625 0 
z
" id="DejaVuSans-49"/>
      </defs>
      <g transform="translate(574.959611 329.598437)scale(0.1 -0.1)">
       <use xlink:href="#DejaVuSans-49"/>
       <use x="63.623047" xlink:href="#DejaVuSans-48"/>
       <use x="127.246094" xlink:href="#DejaVuSans-48"/>
       <use x="190.869141" xlink:href="#DejaVuSans-48"/>
      </g>
     </g>
    </g>
    <g id="text_7">
     <!-- epoch -->
     <defs>
      <path d="M 56.203125 29.59375 
L 56.203125 25.203125 
L 14.890625 25.203125 
Q 15.484375 15.921875 20.484375 11.0625 
Q 25.484375 6.203125 34.421875 6.203125 
Q 39.59375 6.203125 44.453125 7.46875 
Q 49.3125 8.734375 54.109375 11.28125 
L 54.109375 2.78125 
Q 49.265625 0.734375 44.1875 -0.34375 
Q 39.109375 -1.421875 33.890625 -1.421875 
Q 20.796875 -1.421875 13.15625 6.1875 
Q 5.515625 13.8125 5.515625 26.8125 
Q 5.515625 40.234375 12.765625 48.109375 
Q 20.015625 56 32.328125 56 
Q 43.359375 56 49.78125 48.890625 
Q 56.203125 41.796875 56.203125 29.59375 
z
M 47.21875 32.234375 
Q 47.125 39.59375 43.09375 43.984375 
Q 39.0625 48.390625 32.421875 48.390625 
Q 24.90625 48.390625 20.390625 44.140625 
Q 15.875 39.890625 15.1875 32.171875 
z
" id="DejaVuSans-101"/>
      <path d="M 18.109375 8.203125 
L 18.109375 -20.796875 
L 9.078125 -20.796875 
L 9.078125 54.6875 
L 18.109375 54.6875 
L 18.109375 46.390625 
Q 20.953125 51.265625 25.265625 53.625 
Q 29.59375 56 35.59375 56 
Q 45.5625 56 51.78125 48.09375 
Q 58.015625 40.1875 58.015625 27.296875 
Q 58.015625 14.40625 51.78125 6.484375 
Q 45.5625 -1.421875 35.59375 -1.421875 
Q 29.59375 -1.421875 25.265625 0.953125 
Q 20.953125 3.328125 18.109375 8.203125 
z
M 48.6875 27.296875 
Q 48.6875 37.203125 44.609375 42.84375 
Q 40.53125 48.484375 33.40625 48.484375 
Q 26.265625 48.484375 22.1875 42.84375 
Q 18.109375 37.203125 18.109375 27.296875 
Q 18.109375 17.390625 22.1875 11.75 
Q 26.265625 6.109375 33.40625 6.109375 
Q 40.53125 6.109375 44.609375 11.75 
Q 48.6875 17.390625 48.6875 27.296875 
z
" id="DejaVuSans-112"/>
      <path d="M 30.609375 48.390625 
Q 23.390625 48.390625 19.1875 42.75 
Q 14.984375 37.109375 14.984375 27.296875 
Q 14.984375 17.484375 19.15625 11.84375 
Q 23.34375 6.203125 30.609375 6.203125 
Q 37.796875 6.203125 41.984375 11.859375 
Q 46.1875 17.53125 46.1875 27.296875 
Q 46.1875 37.015625 41.984375 42.703125 
Q 37.796875 48.390625 30.609375 48.390625 
z
M 30.609375 56 
Q 42.328125 56 49.015625 48.375 
Q 55.71875 40.765625 55.71875 27.296875 
Q 55.71875 13.875 49.015625 6.21875 
Q 42.328125 -1.421875 30.609375 -1.421875 
Q 18.84375 -1.421875 12.171875 6.21875 
Q 5.515625 13.875 5.515625 27.296875 
Q 5.515625 40.765625 12.171875 48.375 
Q 18.84375 56 30.609375 56 
z
" id="DejaVuSans-111"/>
      <path d="M 48.78125 52.59375 
L 48.78125 44.1875 
Q 44.96875 46.296875 41.140625 47.34375 
Q 37.3125 48.390625 33.40625 48.390625 
Q 24.65625 48.390625 19.8125 42.84375 
Q 14.984375 37.3125 14.984375 27.296875 
Q 14.984375 17.28125 19.8125 11.734375 
Q 24.65625 6.203125 33.40625 6.203125 
Q 37.3125 6.203125 41.140625 7.25 
Q 44.96875 8.296875 48.78125 10.40625 
L 48.78125 2.09375 
Q 45.015625 0.34375 40.984375 -0.53125 
Q 36.96875 -1.421875 32.421875 -1.421875 
Q 20.0625 -1.421875 12.78125 6.34375 
Q 5.515625 14.109375 5.515625 27.296875 
Q 5.515625 40.671875 12.859375 48.328125 
Q 20.21875 56 33.015625 56 
Q 37.15625 56 41.109375 55.140625 
Q 45.0625 54.296875 48.78125 52.59375 
z
" id="DejaVuSans-99"/>
      <path d="M 54.890625 33.015625 
L 54.890625 0 
L 45.90625 0 
L 45.90625 32.71875 
Q 45.90625 40.484375 42.875 44.328125 
Q 39.84375 48.1875 33.796875 48.1875 
Q 26.515625 48.1875 22.3125 43.546875 
Q 18.109375 38.921875 18.109375 30.90625 
L 18.109375 0 
L 9.078125 0 
L 9.078125 75.984375 
L 18.109375 75.984375 
L 18.109375 46.1875 
Q 21.34375 51.125 25.703125 53.5625 
Q 30.078125 56 35.796875 56 
Q 45.21875 56 50.046875 50.171875 
Q 54.890625 44.34375 54.890625 33.015625 
z
" id="DejaVuSans-104"/>
     </defs>
     <g transform="translate(353.771875 343.276563)scale(0.1 -0.1)">
      <use xlink:href="#DejaVuSans-101"/>
      <use x="61.523438" xlink:href="#DejaVuSans-112"/>
      <use x="125" xlink:href="#DejaVuSans-111"/>
      <use x="186.181641" xlink:href="#DejaVuSans-99"/>
      <use x="241.162109" xlink:href="#DejaVuSans-104"/>
     </g>
    </g>
   </g>
   <g id="matplotlib.axis_2">
    <g id="ytick_1">
     <g id="line2d_13">
      <path clip-path="url(#p1f4f912e87)" d="M 90 285.535966 
L 648 285.535966 
" style="fill:none;stroke:#b0b0b0;stroke-linecap:square;stroke-width:0.8;"/>
     </g>
     <g id="line2d_14">
      <defs>
       <path d="M 0 0 
L -3.5 0 
" id="m029788d03e" style="stroke:#000000;stroke-width:0.8;"/>
      </defs>
      <g>
       <use style="stroke:#000000;stroke-width:0.8;" x="90" xlink:href="#m029788d03e" y="285.535966"/>
      </g>
     </g>
     <g id="text_8">
      <!-- 0.3 -->
      <defs>
       <path d="M 10.6875 12.40625 
L 21 12.40625 
L 21 0 
L 10.6875 0 
z
" id="DejaVuSans-46"/>
       <path d="M 40.578125 39.3125 
Q 47.65625 37.796875 51.625 33 
Q 55.609375 28.21875 55.609375 21.1875 
Q 55.609375 10.40625 48.1875 4.484375 
Q 40.765625 -1.421875 27.09375 -1.421875 
Q 22.515625 -1.421875 17.65625 -0.515625 
Q 12.796875 0.390625 7.625 2.203125 
L 7.625 11.71875 
Q 11.71875 9.328125 16.59375 8.109375 
Q 21.484375 6.890625 26.8125 6.890625 
Q 36.078125 6.890625 40.9375 10.546875 
Q 45.796875 14.203125 45.796875 21.1875 
Q 45.796875 27.640625 41.28125 31.265625 
Q 36.765625 34.90625 28.71875 34.90625 
L 20.21875 34.90625 
L 20.21875 43.015625 
L 29.109375 43.015625 
Q 36.375 43.015625 40.234375 45.921875 
Q 44.09375 48.828125 44.09375 54.296875 
Q 44.09375 59.90625 40.109375 62.90625 
Q 36.140625 65.921875 28.71875 65.921875 
Q 24.65625 65.921875 20.015625 65.03125 
Q 15.375 64.15625 9.8125 62.3125 
L 9.8125 71.09375 
Q 15.4375 72.65625 20.34375 73.4375 
Q 25.25 74.21875 29.59375 74.21875 
Q 40.828125 74.21875 47.359375 69.109375 
Q 53.90625 64.015625 53.90625 55.328125 
Q 53.90625 49.265625 50.4375 45.09375 
Q 46.96875 40.921875 40.578125 39.3125 
z
" id="DejaVuSans-51"/>
      </defs>
      <g transform="translate(67.096875 289.335185)scale(0.1 -0.1)">
       <use xlink:href="#DejaVuSans-48"/>
       <use x="63.623047" xlink:href="#DejaVuSans-46"/>
       <use x="95.410156" xlink:href="#DejaVuSans-51"/>
      </g>
     </g>
    </g>
    <g id="ytick_2">
     <g id="line2d_15">
      <path clip-path="url(#p1f4f912e87)" d="M 90 252.313659 
L 648 252.313659 
" style="fill:none;stroke:#b0b0b0;stroke-linecap:square;stroke-width:0.8;"/>
     </g>
     <g id="line2d_16">
      <g>
       <use style="stroke:#000000;stroke-width:0.8;" x="90" xlink:href="#m029788d03e" y="252.313659"/>
      </g>
     </g>
     <g id="text_9">
      <!-- 0.4 -->
      <g transform="translate(67.096875 256.112878)scale(0.1 -0.1)">
       <use xlink:href="#DejaVuSans-48"/>
       <use x="63.623047" xlink:href="#DejaVuSans-46"/>
       <use x="95.410156" xlink:href="#DejaVuSans-52"/>
      </g>
     </g>
    </g>
    <g id="ytick_3">
     <g id="line2d_17">
      <path clip-path="url(#p1f4f912e87)" d="M 90 219.091352 
L 648 219.091352 
" style="fill:none;stroke:#b0b0b0;stroke-linecap:square;stroke-width:0.8;"/>
     </g>
     <g id="line2d_18">
      <g>
       <use style="stroke:#000000;stroke-width:0.8;" x="90" xlink:href="#m029788d03e" y="219.091352"/>
      </g>
     </g>
     <g id="text_10">
      <!-- 0.5 -->
      <defs>
       <path d="M 10.796875 72.90625 
L 49.515625 72.90625 
L 49.515625 64.59375 
L 19.828125 64.59375 
L 19.828125 46.734375 
Q 21.96875 47.46875 24.109375 47.828125 
Q 26.265625 48.1875 28.421875 48.1875 
Q 40.625 48.1875 47.75 41.5 
Q 54.890625 34.8125 54.890625 23.390625 
Q 54.890625 11.625 47.5625 5.09375 
Q 40.234375 -1.421875 26.90625 -1.421875 
Q 22.3125 -1.421875 17.546875 -0.640625 
Q 12.796875 0.140625 7.71875 1.703125 
L 7.71875 11.625 
Q 12.109375 9.234375 16.796875 8.0625 
Q 21.484375 6.890625 26.703125 6.890625 
Q 35.15625 6.890625 40.078125 11.328125 
Q 45.015625 15.765625 45.015625 23.390625 
Q 45.015625 31 40.078125 35.4375 
Q 35.15625 39.890625 26.703125 39.890625 
Q 22.75 39.890625 18.8125 39.015625 
Q 14.890625 38.140625 10.796875 36.28125 
z
" id="DejaVuSans-53"/>
      </defs>
      <g transform="translate(67.096875 222.890571)scale(0.1 -0.1)">
       <use xlink:href="#DejaVuSans-48"/>
       <use x="63.623047" xlink:href="#DejaVuSans-46"/>
       <use x="95.410156" xlink:href="#DejaVuSans-53"/>
      </g>
     </g>
    </g>
    <g id="ytick_4">
     <g id="line2d_19">
      <path clip-path="url(#p1f4f912e87)" d="M 90 185.869045 
L 648 185.869045 
" style="fill:none;stroke:#b0b0b0;stroke-linecap:square;stroke-width:0.8;"/>
     </g>
     <g id="line2d_20">
      <g>
       <use style="stroke:#000000;stroke-width:0.8;" x="90" xlink:href="#m029788d03e" y="185.869045"/>
      </g>
     </g>
     <g id="text_11">
      <!-- 0.6 -->
      <g transform="translate(67.096875 189.668264)scale(0.1 -0.1)">
       <use xlink:href="#DejaVuSans-48"/>
       <use x="63.623047" xlink:href="#DejaVuSans-46"/>
       <use x="95.410156" xlink:href="#DejaVuSans-54"/>
      </g>
     </g>
    </g>
    <g id="ytick_5">
     <g id="line2d_21">
      <path clip-path="url(#p1f4f912e87)" d="M 90 152.646738 
L 648 152.646738 
" style="fill:none;stroke:#b0b0b0;stroke-linecap:square;stroke-width:0.8;"/>
     </g>
     <g id="line2d_22">
      <g>
       <use style="stroke:#000000;stroke-width:0.8;" x="90" xlink:href="#m029788d03e" y="152.646738"/>
      </g>
     </g>
     <g id="text_12">
      <!-- 0.7 -->
      <defs>
       <path d="M 8.203125 72.90625 
L 55.078125 72.90625 
L 55.078125 68.703125 
L 28.609375 0 
L 18.3125 0 
L 43.21875 64.59375 
L 8.203125 64.59375 
z
" id="DejaVuSans-55"/>
      </defs>
      <g transform="translate(67.096875 156.445957)scale(0.1 -0.1)">
       <use xlink:href="#DejaVuSans-48"/>
       <use x="63.623047" xlink:href="#DejaVuSans-46"/>
       <use x="95.410156" xlink:href="#DejaVuSans-55"/>
      </g>
     </g>
    </g>
    <g id="ytick_6">
     <g id="line2d_23">
      <path clip-path="url(#p1f4f912e87)" d="M 90 119.424431 
L 648 119.424431 
" style="fill:none;stroke:#b0b0b0;stroke-linecap:square;stroke-width:0.8;"/>
     </g>
     <g id="line2d_24">
      <g>
       <use style="stroke:#000000;stroke-width:0.8;" x="90" xlink:href="#m029788d03e" y="119.424431"/>
      </g>
     </g>
     <g id="text_13">
      <!-- 0.8 -->
      <g transform="translate(67.096875 123.22365)scale(0.1 -0.1)">
       <use xlink:href="#DejaVuSans-48"/>
       <use x="63.623047" xlink:href="#DejaVuSans-46"/>
       <use x="95.410156" xlink:href="#DejaVuSans-56"/>
      </g>
     </g>
    </g>
    <g id="ytick_7">
     <g id="line2d_25">
      <path clip-path="url(#p1f4f912e87)" d="M 90 86.202124 
L 648 86.202124 
" style="fill:none;stroke:#b0b0b0;stroke-linecap:square;stroke-width:0.8;"/>
     </g>
     <g id="line2d_26">
      <g>
       <use style="stroke:#000000;stroke-width:0.8;" x="90" xlink:href="#m029788d03e" y="86.202124"/>
      </g>
     </g>
     <g id="text_14">
      <!-- 0.9 -->
      <defs>
       <path d="M 10.984375 1.515625 
L 10.984375 10.5 
Q 14.703125 8.734375 18.5 7.8125 
Q 22.3125 6.890625 25.984375 6.890625 
Q 35.75 6.890625 40.890625 13.453125 
Q 46.046875 20.015625 46.78125 33.40625 
Q 43.953125 29.203125 39.59375 26.953125 
Q 35.25 24.703125 29.984375 24.703125 
Q 19.046875 24.703125 12.671875 31.3125 
Q 6.296875 37.9375 6.296875 49.421875 
Q 6.296875 60.640625 12.9375 67.421875 
Q 19.578125 74.21875 30.609375 74.21875 
Q 43.265625 74.21875 49.921875 64.515625 
Q 56.59375 54.828125 56.59375 36.375 
Q 56.59375 19.140625 48.40625 8.859375 
Q 40.234375 -1.421875 26.421875 -1.421875 
Q 22.703125 -1.421875 18.890625 -0.6875 
Q 15.09375 0.046875 10.984375 1.515625 
z
M 30.609375 32.421875 
Q 37.25 32.421875 41.125 36.953125 
Q 45.015625 41.5 45.015625 49.421875 
Q 45.015625 57.28125 41.125 61.84375 
Q 37.25 66.40625 30.609375 66.40625 
Q 23.96875 66.40625 20.09375 61.84375 
Q 16.21875 57.28125 16.21875 49.421875 
Q 16.21875 41.5 20.09375 36.953125 
Q 23.96875 32.421875 30.609375 32.421875 
z
" id="DejaVuSans-57"/>
      </defs>
      <g transform="translate(67.096875 90.001343)scale(0.1 -0.1)">
       <use xlink:href="#DejaVuSans-48"/>
       <use x="63.623047" xlink:href="#DejaVuSans-46"/>
       <use x="95.410156" xlink:href="#DejaVuSans-57"/>
      </g>
     </g>
    </g>
    <g id="ytick_8">
     <g id="line2d_27">
      <path clip-path="url(#p1f4f912e87)" d="M 90 52.979817 
L 648 52.979817 
" style="fill:none;stroke:#b0b0b0;stroke-linecap:square;stroke-width:0.8;"/>
     </g>
     <g id="line2d_28">
      <g>
       <use style="stroke:#000000;stroke-width:0.8;" x="90" xlink:href="#m029788d03e" y="52.979817"/>
      </g>
     </g>
     <g id="text_15">
      <!-- 1.0 -->
      <g transform="translate(67.096875 56.779035)scale(0.1 -0.1)">
       <use xlink:href="#DejaVuSans-49"/>
       <use x="63.623047" xlink:href="#DejaVuSans-46"/>
       <use x="95.410156" xlink:href="#DejaVuSans-48"/>
      </g>
     </g>
    </g>
    <g id="text_16">
     <!-- accuracy -->
     <defs>
      <path d="M 34.28125 27.484375 
Q 23.390625 27.484375 19.1875 25 
Q 14.984375 22.515625 14.984375 16.5 
Q 14.984375 11.71875 18.140625 8.90625 
Q 21.296875 6.109375 26.703125 6.109375 
Q 34.1875 6.109375 38.703125 11.40625 
Q 43.21875 16.703125 43.21875 25.484375 
L 43.21875 27.484375 
z
M 52.203125 31.203125 
L 52.203125 0 
L 43.21875 0 
L 43.21875 8.296875 
Q 40.140625 3.328125 35.546875 0.953125 
Q 30.953125 -1.421875 24.3125 -1.421875 
Q 15.921875 -1.421875 10.953125 3.296875 
Q 6 8.015625 6 15.921875 
Q 6 25.140625 12.171875 29.828125 
Q 18.359375 34.515625 30.609375 34.515625 
L 43.21875 34.515625 
L 43.21875 35.40625 
Q 43.21875 41.609375 39.140625 45 
Q 35.0625 48.390625 27.6875 48.390625 
Q 23 48.390625 18.546875 47.265625 
Q 14.109375 46.140625 10.015625 43.890625 
L 10.015625 52.203125 
Q 14.9375 54.109375 19.578125 55.046875 
Q 24.21875 56 28.609375 56 
Q 40.484375 56 46.34375 49.84375 
Q 52.203125 43.703125 52.203125 31.203125 
z
" id="DejaVuSans-97"/>
      <path d="M 8.5 21.578125 
L 8.5 54.6875 
L 17.484375 54.6875 
L 17.484375 21.921875 
Q 17.484375 14.15625 20.5 10.265625 
Q 23.53125 6.390625 29.59375 6.390625 
Q 36.859375 6.390625 41.078125 11.03125 
Q 45.3125 15.671875 45.3125 23.6875 
L 45.3125 54.6875 
L 54.296875 54.6875 
L 54.296875 0 
L 45.3125 0 
L 45.3125 8.40625 
Q 42.046875 3.421875 37.71875 1 
Q 33.40625 -1.421875 27.6875 -1.421875 
Q 18.265625 -1.421875 13.375 4.4375 
Q 8.5 10.296875 8.5 21.578125 
z
M 31.109375 56 
z
" id="DejaVuSans-117"/>
      <path d="M 41.109375 46.296875 
Q 39.59375 47.171875 37.8125 47.578125 
Q 36.03125 48 33.890625 48 
Q 26.265625 48 22.1875 43.046875 
Q 18.109375 38.09375 18.109375 28.8125 
L 18.109375 0 
L 9.078125 0 
L 9.078125 54.6875 
L 18.109375 54.6875 
L 18.109375 46.1875 
Q 20.953125 51.171875 25.484375 53.578125 
Q 30.03125 56 36.53125 56 
Q 37.453125 56 38.578125 55.875 
Q 39.703125 55.765625 41.0625 55.515625 
z
" id="DejaVuSans-114"/>
      <path d="M 32.171875 -5.078125 
Q 28.375 -14.84375 24.75 -17.8125 
Q 21.140625 -20.796875 15.09375 -20.796875 
L 7.90625 -20.796875 
L 7.90625 -13.28125 
L 13.1875 -13.28125 
Q 16.890625 -13.28125 18.9375 -11.515625 
Q 21 -9.765625 23.484375 -3.21875 
L 25.09375 0.875 
L 2.984375 54.6875 
L 12.5 54.6875 
L 29.59375 11.921875 
L 46.6875 54.6875 
L 56.203125 54.6875 
z
" id="DejaVuSans-121"/>
     </defs>
     <g transform="translate(61.017187 201.659375)rotate(-90)scale(0.1 -0.1)">
      <use xlink:href="#DejaVuSans-97"/>
      <use x="61.279297" xlink:href="#DejaVuSans-99"/>
      <use x="116.259766" xlink:href="#DejaVuSans-99"/>
      <use x="171.240234" xlink:href="#DejaVuSans-117"/>
      <use x="234.619141" xlink:href="#DejaVuSans-114"/>
      <use x="275.732422" xlink:href="#DejaVuSans-97"/>
      <use x="337.011719" xlink:href="#DejaVuSans-99"/>
      <use x="391.992188" xlink:href="#DejaVuSans-121"/>
     </g>
    </g>
   </g>
   <g id="line2d_29">
    <path clip-path="url(#p1f4f912e87)" d="M 115.363636 302.645455 
L 115.835957 296.748495 
L 116.308278 299.489335 
L 116.780599 296.084049 
L 117.25292 294.422934 
L 117.725241 291.183759 
L 118.197562 294.007655 
L 118.669883 289.356532 
L 119.142204 291.515982 
L 119.614525 290.602368 
L 120.086846 291.848205 
L 120.559167 280.55262 
L 121.031488 284.373186 
L 121.503809 281.383178 
L 121.97613 284.539297 
L 122.448451 283.625684 
L 122.920772 275.403163 
L 123.393093 277.396501 
L 123.865414 273.575936 
L 124.337735 274.655661 
L 124.810056 270.419817 
L 125.282377 267.512865 
L 125.754698 263.360076 
L 126.227019 267.01453 
L 126.69934 268.177311 
L 127.171661 260.702292 
L 127.643982 259.290344 
L 128.116303 247.413369 
L 128.588624 250.071154 
L 129.060945 250.320321 
L 130.005587 242.263911 
L 130.477908 236.865286 
L 130.950229 234.705837 
L 131.89487 223.244141 
L 132.367191 222.330527 
L 133.311833 214.108006 
L 133.784154 207.131322 
L 134.256475 197.912131 
L 134.728796 198.576578 
L 136.145759 185.785989 
L 136.61808 179.639862 
L 137.090401 180.387364 
L 137.562722 175.237907 
L 138.035043 172.247899 
L 138.507364 172.247899 
L 138.979685 165.686494 
L 139.452006 168.759557 
L 139.924327 159.789534 
L 140.396648 161.782872 
L 140.868969 157.796196 
L 141.34129 157.962307 
L 141.813611 153.643407 
L 142.285932 151.567013 
L 142.758253 150.155065 
L 143.230574 151.317846 
L 144.175216 143.17838 
L 144.647537 137.945867 
L 145.119858 141.268098 
L 145.592179 138.111979 
L 146.0645 140.105317 
L 146.536821 136.533919 
L 147.009142 136.866142 
L 147.481463 136.367807 
L 147.953784 131.467517 
L 148.898426 127.48084 
L 149.370747 129.723346 
L 149.843068 124.241665 
L 150.315389 125.653613 
L 150.787709 125.736669 
L 151.26003 126.816394 
L 151.732351 121.168602 
L 152.204672 123.909442 
L 152.676993 121.833048 
L 153.149314 118.012483 
L 153.621635 121.00249 
L 154.093956 115.936089 
L 154.566277 118.593873 
L 155.038598 112.779969 
L 155.510919 116.185256 
L 155.98324 118.095539 
L 156.455561 113.444416 
L 156.927882 111.866356 
L 157.400203 112.115523 
L 157.872524 112.946081 
L 158.344845 111.700244 
L 158.817166 107.879679 
L 159.289487 107.215233 
L 159.761808 108.710237 
L 160.234129 108.045791 
L 160.70645 107.630512 
L 161.178771 104.059114 
L 161.651092 105.221895 
L 162.123413 104.640504 
L 162.595734 104.889672 
L 163.068055 106.384675 
L 163.540376 105.969396 
L 164.485018 100.40466 
L 165.42966 101.235218 
L 165.901981 104.225225 
L 166.374302 100.736883 
L 166.846623 99.657158 
L 167.318944 99.407991 
L 167.791265 97.331597 
L 168.263586 99.574102 
L 168.735907 96.584095 
L 169.208228 97.580764 
L 169.680549 95.670481 
L 170.62519 96.417983 
L 171.097511 95.587426 
L 171.569832 97.331597 
L 172.042153 93.594087 
L 172.514474 91.849916 
L 172.986795 92.265195 
L 173.459116 94.092422 
L 173.931437 92.265195 
L 174.403758 91.351581 
L 174.876079 91.434637 
L 175.3484 89.773522 
L 175.820721 90.687135 
L 176.293042 89.02602 
L 176.765363 90.853247 
L 177.237684 91.434637 
L 177.710005 89.02602 
L 178.182326 88.029351 
L 178.654647 89.939633 
L 179.126968 89.358243 
L 179.599289 86.534347 
L 180.07161 88.610741 
L 180.543931 89.192131 
L 181.016252 85.28851 
L 181.488573 86.119068 
L 181.960894 85.620733 
L 182.433215 85.537678 
L 182.905536 83.959618 
L 183.377857 85.620733 
L 183.850178 84.042674 
L 184.322499 84.042674 
L 184.79482 86.368235 
L 185.739462 80.38822 
L 186.211783 84.208785 
L 186.684104 83.212116 
L 187.156425 83.378228 
L 187.628746 80.637387 
L 188.573388 85.205455 
L 189.045708 83.627395 
L 189.518029 81.301833 
L 189.99035 82.879893 
L 190.462671 79.972941 
L 190.934992 83.793506 
L 191.407313 81.301833 
L 191.879634 80.886555 
L 192.351955 81.800168 
L 192.824276 79.308495 
L 193.296597 79.142383 
L 193.768918 80.720443 
L 194.241239 80.554332 
L 194.71356 77.979603 
L 195.185881 79.059328 
L 195.658202 77.730435 
L 196.130523 78.477937 
L 196.602844 79.889885 
L 197.075165 77.813491 
L 197.547486 78.644049 
L 198.492128 76.484599 
L 198.964449 77.065989 
L 199.43677 76.899878 
L 199.909091 76.318487 
L 200.381412 78.560993 
L 200.853733 76.733766 
L 201.326054 78.644049 
L 201.798375 76.899878 
L 202.270696 78.145714 
L 202.743017 75.654041 
L 203.215338 76.65071 
L 203.687659 75.903209 
L 204.15998 76.401543 
L 204.632301 74.740428 
L 205.104622 74.823484 
L 205.576943 75.404874 
L 206.049264 74.657372 
L 206.521585 75.404874 
L 206.993906 76.567655 
L 207.466227 75.820153 
L 207.938547 74.491261 
L 208.410868 76.733766 
L 208.883189 73.577647 
L 209.35551 74.906539 
L 209.827831 74.408205 
L 210.300152 73.577647 
L 210.772473 75.986264 
L 211.244794 73.494591 
L 211.717115 73.245424 
L 212.661757 73.494591 
L 213.134078 72.913201 
L 213.606399 73.660703 
L 214.07872 74.657372 
L 214.551041 72.580978 
L 215.023362 73.32848 
L 215.495683 71.501253 
L 215.968004 71.916532 
L 216.440325 71.335141 
L 216.912646 72.165699 
L 217.384967 73.32848 
L 217.857288 73.245424 
L 218.329609 71.16903 
L 218.80193 70.753751 
L 219.274251 73.577647 
L 219.746572 74.159037 
L 220.218893 71.833476 
L 220.691214 71.584309 
L 221.163535 71.833476 
L 221.635856 72.248755 
L 222.108177 71.999587 
L 222.580498 69.674026 
L 223.052819 71.002918 
L 223.52514 72.747089 
L 223.997461 71.085974 
L 224.469782 68.262078 
L 224.942103 71.252086 
L 225.414424 69.341803 
L 225.886745 68.345134 
L 226.359066 68.843468 
L 226.831386 68.926524 
L 227.776028 71.584309 
L 228.248349 71.501253 
L 228.72067 71.667364 
L 229.192991 69.175691 
L 229.665312 70.006249 
L 230.137633 69.507914 
L 230.609954 69.424859 
L 231.082275 72.082643 
L 231.554596 69.258747 
L 232.026917 69.674026 
L 232.499238 69.507914 
L 232.971559 70.919862 
L 233.44388 71.16903 
L 233.916201 68.760413 
L 234.388522 67.182353 
L 234.860843 67.43152 
L 235.333164 68.012911 
L 235.805485 68.926524 
L 236.277806 68.012911 
L 236.750127 69.757082 
L 237.222448 67.182353 
L 237.694769 68.012911 
L 238.16709 67.846799 
L 238.639411 67.846799 
L 239.111732 68.594301 
L 239.584053 68.262078 
L 240.056374 68.262078 
L 240.528695 67.680688 
L 241.001016 67.846799 
L 241.473337 69.757082 
L 241.945658 68.179022 
L 242.8903 69.175691 
L 243.362621 68.345134 
L 243.834942 67.182353 
L 244.307263 68.594301 
L 244.779584 67.182353 
L 245.251905 67.514576 
L 245.724225 66.019572 
L 246.196546 67.514576 
L 246.668867 67.680688 
L 247.141188 67.265409 
L 248.08583 68.012911 
L 248.558151 67.763743 
L 249.030472 67.929855 
L 249.502793 67.43152 
L 249.975114 65.687349 
L 250.447435 67.016241 
L 250.919756 67.348464 
L 251.392077 68.012911 
L 252.336719 66.933186 
L 252.80904 66.600963 
L 253.281361 65.687349 
L 253.753682 66.517907 
L 254.226003 66.351795 
L 254.698324 67.348464 
L 255.170645 65.189015 
L 255.642966 67.43152 
L 256.115287 68.428189 
L 256.587608 67.182353 
L 257.059929 66.434851 
L 257.53225 66.434851 
L 258.004571 65.604293 
L 258.476892 65.438182 
L 258.949213 67.43152 
L 259.421534 66.85013 
L 259.893855 65.687349 
L 260.366176 65.521238 
L 260.838497 66.933186 
L 261.783139 64.441513 
L 262.25546 65.853461 
L 262.727781 64.69068 
L 263.200102 65.189015 
L 263.672423 67.265409 
L 264.144744 64.441513 
L 264.617064 67.182353 
L 265.561706 65.27207 
L 266.034027 65.687349 
L 266.506348 65.521238 
L 266.978669 64.607624 
L 267.45099 64.773736 
L 267.923311 65.936516 
L 268.867953 63.943178 
L 269.340274 65.604293 
L 269.812595 66.019572 
L 270.284916 66.102628 
L 270.757237 63.777066 
L 271.229558 65.022903 
L 271.701879 64.773736 
L 272.1742 63.943178 
L 272.646521 65.355126 
L 273.118842 65.770405 
L 273.591163 66.767074 
L 274.063484 65.604293 
L 274.535805 63.943178 
L 275.008126 63.943178 
L 275.480447 66.019572 
L 275.952768 64.192345 
L 276.425089 64.856791 
L 276.89741 64.192345 
L 277.369731 64.939847 
L 277.842052 64.69068 
L 278.314373 65.521238 
L 278.786694 64.10929 
L 279.259015 63.361788 
L 279.731336 65.604293 
L 280.203657 62.697341 
L 280.675978 65.189015 
L 281.148299 64.524568 
L 281.62062 63.278732 
L 282.092941 63.361788 
L 282.565262 65.687349 
L 283.037583 64.026234 
L 283.509904 64.441513 
L 283.982224 64.441513 
L 284.454545 65.022903 
L 284.926866 63.860122 
L 285.399187 63.195676 
L 285.871508 64.192345 
L 286.343829 61.700672 
L 286.81615 64.607624 
L 287.288471 63.361788 
L 287.760792 64.773736 
L 288.233113 64.10929 
L 288.705434 63.860122 
L 289.177755 62.697341 
L 289.650076 64.10929 
L 290.122397 63.527899 
L 291.067039 63.195676 
L 291.53936 63.444843 
L 292.011681 62.448174 
L 292.484002 64.275401 
L 292.956323 62.032895 
L 293.428644 63.527899 
L 293.900965 64.524568 
L 294.373286 63.11262 
L 294.845607 64.69068 
L 295.317928 64.441513 
L 295.790249 62.365118 
L 296.26257 62.863453 
L 296.734891 63.777066 
L 297.207212 62.697341 
L 297.679533 63.610955 
L 298.151854 63.278732 
L 298.624175 64.10929 
L 299.096496 63.694011 
L 299.568817 64.192345 
L 300.041138 63.860122 
L 300.513459 62.282063 
L 300.98578 64.441513 
L 301.458101 63.943178 
L 301.930422 63.11262 
L 302.875063 64.358457 
L 303.819705 62.697341 
L 304.292026 64.275401 
L 304.764347 62.448174 
L 305.236668 62.946509 
L 305.708989 63.11262 
L 306.18131 63.029565 
L 306.653631 62.53123 
L 307.125952 60.787059 
L 307.598273 61.451505 
L 308.070594 63.278732 
L 308.542915 60.95317 
L 309.015236 62.365118 
L 309.487557 63.11262 
L 309.959878 63.195676 
L 310.432199 61.866784 
L 310.90452 63.610955 
L 311.849162 60.454836 
L 312.321483 62.115951 
L 312.793804 61.202338 
L 313.266125 62.863453 
L 314.683088 61.202338 
L 315.155409 61.783728 
L 315.62773 62.115951 
L 316.100051 61.866784 
L 316.572372 63.278732 
L 317.044693 61.368449 
L 317.517014 62.365118 
L 317.989335 61.119282 
L 318.933977 61.451505 
L 319.406298 61.119282 
L 319.878619 63.029565 
L 320.35094 61.94984 
L 320.823261 62.282063 
L 321.295582 61.119282 
L 321.767902 61.119282 
L 322.240223 62.946509 
L 322.712544 61.700672 
L 323.184865 61.94984 
L 323.657186 61.94984 
L 324.129507 62.697341 
L 324.601828 60.95317 
L 325.074149 61.866784 
L 325.54647 63.527899 
L 326.018791 61.368449 
L 327.908075 61.036226 
L 328.380396 61.617617 
L 328.852717 61.202338 
L 329.325038 61.119282 
L 329.797359 60.787059 
L 330.26968 61.783728 
L 330.742001 61.783728 
L 331.214322 61.94984 
L 331.686643 61.451505 
L 332.158964 61.368449 
L 332.631285 61.451505 
L 333.103606 62.780397 
L 333.575927 61.119282 
L 334.048248 61.783728 
L 334.520569 62.115951 
L 334.99289 60.870115 
L 335.465211 61.700672 
L 335.937532 60.537892 
L 336.409853 61.202338 
L 337.354495 60.95317 
L 337.826816 63.029565 
L 338.299137 61.202338 
L 338.771458 60.37178 
L 339.243779 60.37178 
L 339.7161 60.537892 
L 340.188421 60.870115 
L 340.660741 61.036226 
L 341.133062 60.787059 
L 341.605383 61.036226 
L 342.077704 60.95317 
L 342.550025 62.863453 
L 343.022346 61.285393 
L 343.494667 61.036226 
L 344.439309 60.870115 
L 344.91163 62.448174 
L 345.383951 60.288724 
L 345.856272 60.95317 
L 346.800914 60.537892 
L 347.745556 61.368449 
L 348.217877 60.95317 
L 348.690198 61.451505 
L 349.162519 60.288724 
L 349.63484 60.122613 
L 350.107161 59.624278 
L 350.579482 61.451505 
L 351.051803 60.454836 
L 351.524124 60.37178 
L 351.996445 59.956501 
L 352.468766 60.620947 
L 352.941087 61.036226 
L 353.413408 59.873445 
L 353.885729 60.537892 
L 354.35805 62.032895 
L 354.830371 60.454836 
L 355.302692 60.288724 
L 355.775013 60.95317 
L 356.247334 60.870115 
L 356.719655 59.042888 
L 357.664297 60.787059 
L 358.136618 60.039557 
L 358.608939 59.624278 
L 359.08126 60.205668 
L 359.55358 59.707334 
L 360.025901 61.368449 
L 360.498222 59.79039 
L 360.970543 59.79039 
L 361.442864 60.704003 
L 361.915185 60.537892 
L 362.387506 60.122613 
L 362.859827 59.292055 
L 363.332148 60.122613 
L 364.27679 61.202338 
L 364.749111 59.873445 
L 365.221432 60.537892 
L 365.693753 60.122613 
L 366.638395 61.783728 
L 367.110716 60.122613 
L 367.583037 59.79039 
L 368.055358 60.537892 
L 368.527679 60.704003 
L 369 58.876776 
L 369.472321 60.37178 
L 369.944642 60.620947 
L 370.416963 59.042888 
L 370.889284 60.537892 
L 371.361605 59.292055 
L 371.833926 60.039557 
L 372.306247 59.79039 
L 372.778568 60.454836 
L 373.250889 62.448174 
L 374.195531 60.039557 
L 374.667852 60.122613 
L 375.140173 59.125943 
L 375.612494 60.537892 
L 376.084815 60.37178 
L 376.557136 60.95317 
L 377.029457 60.870115 
L 377.501778 60.122613 
L 377.974099 59.956501 
L 378.44642 59.375111 
L 378.91874 58.129274 
L 379.391061 59.873445 
L 379.863382 59.541222 
L 380.808024 59.458167 
L 381.280345 59.125943 
L 381.752666 59.042888 
L 382.224987 60.454836 
L 382.697308 59.292055 
L 383.169629 59.458167 
L 383.64195 59.125943 
L 384.114271 61.119282 
L 384.586592 59.208999 
L 385.058913 58.876776 
L 386.003555 60.122613 
L 386.475876 59.707334 
L 386.948197 58.710665 
L 387.420518 58.959832 
L 387.892839 61.451505 
L 388.36516 58.876776 
L 388.837481 60.205668 
L 389.309802 59.624278 
L 390.254444 60.537892 
L 390.726765 59.208999 
L 391.199086 61.036226 
L 391.671407 60.37178 
L 392.143728 58.959832 
L 392.616049 60.37178 
L 393.08837 59.042888 
L 393.560691 60.288724 
L 394.033012 59.79039 
L 394.505333 60.537892 
L 394.977654 59.956501 
L 395.922296 59.541222 
L 396.394617 60.37178 
L 396.866938 60.205668 
L 397.339259 60.205668 
L 397.811579 60.620947 
L 398.2839 59.624278 
L 398.756221 59.292055 
L 399.228542 59.79039 
L 399.700863 59.125943 
L 400.173184 59.541222 
L 400.645505 61.866784 
L 401.117826 59.458167 
L 401.590147 58.876776 
L 402.062468 58.046218 
L 402.534789 59.458167 
L 403.00711 58.710665 
L 403.479431 60.37178 
L 403.951752 58.959832 
L 404.424073 59.541222 
L 404.896394 59.375111 
L 405.841036 58.461497 
L 406.785678 60.039557 
L 407.257999 60.039557 
L 407.73032 58.129274 
L 408.674962 59.541222 
L 409.147283 59.042888 
L 409.619604 59.541222 
L 410.091925 58.710665 
L 410.564246 59.042888 
L 411.036567 59.541222 
L 411.508888 59.208999 
L 411.981209 59.292055 
L 412.45353 59.125943 
L 413.398172 59.541222 
L 413.870493 59.458167 
L 414.342814 58.21233 
L 414.815135 59.458167 
L 415.287456 57.713995 
L 415.759777 58.959832 
L 416.232098 58.627609 
L 416.704418 59.458167 
L 417.176739 58.544553 
L 417.64906 59.707334 
L 418.121381 59.375111 
L 418.593702 58.627609 
L 419.066023 56.966494 
L 419.538344 59.458167 
L 420.010665 58.378442 
L 420.482986 59.292055 
L 420.955307 59.042888 
L 421.427628 58.295386 
L 421.899949 58.959832 
L 422.37227 58.461497 
L 422.844591 58.876776 
L 423.316912 58.710665 
L 423.789233 58.959832 
L 424.733875 58.959832 
L 425.206196 60.288724 
L 425.678517 58.79372 
L 426.150838 59.042888 
L 426.623159 59.125943 
L 427.09548 59.624278 
L 427.567801 60.288724 
L 428.040122 58.544553 
L 428.512443 58.959832 
L 428.984764 58.378442 
L 429.457085 58.959832 
L 429.929406 59.956501 
L 430.401727 59.541222 
L 430.874048 57.713995 
L 431.346369 57.797051 
L 431.81869 58.544553 
L 432.291011 57.880107 
L 432.763332 58.79372 
L 433.235653 58.876776 
L 434.180295 58.461497 
L 434.652616 57.797051 
L 435.124937 59.125943 
L 435.597257 59.707334 
L 436.069578 58.544553 
L 436.541899 58.79372 
L 437.01422 58.378442 
L 437.958862 57.963163 
L 438.903504 59.125943 
L 439.375825 58.627609 
L 439.848146 58.710665 
L 440.320467 59.458167 
L 440.792788 59.125943 
L 441.265109 59.458167 
L 441.73743 58.544553 
L 442.209751 58.79372 
L 442.682072 58.710665 
L 443.154393 59.042888 
L 443.626714 57.63094 
L 444.099035 59.707334 
L 444.571356 58.627609 
L 445.043677 58.461497 
L 445.515998 59.208999 
L 445.988319 58.295386 
L 446.46064 58.295386 
L 446.932961 58.876776 
L 447.405282 57.63094 
L 447.877603 58.876776 
L 448.349924 57.880107 
L 448.822245 58.544553 
L 449.294566 58.710665 
L 449.766887 57.963163 
L 450.239208 58.627609 
L 450.711529 57.797051 
L 451.18385 57.880107 
L 452.128492 58.959832 
L 452.600813 58.544553 
L 453.073134 57.381772 
L 454.490096 59.292055 
L 454.962417 58.710665 
L 455.434738 57.381772 
L 455.907059 59.624278 
L 456.37938 58.627609 
L 456.851701 59.208999 
L 457.324022 59.208999 
L 457.796343 57.797051 
L 458.268664 58.627609 
L 458.740985 58.461497 
L 459.213306 57.797051 
L 459.685627 57.797051 
L 460.157948 59.125943 
L 460.630269 58.295386 
L 461.574911 57.381772 
L 462.047232 57.880107 
L 462.519553 58.876776 
L 462.991874 58.21233 
L 463.464195 58.710665 
L 464.408837 58.295386 
L 464.881158 58.295386 
L 465.353479 57.963163 
L 466.298121 58.378442 
L 467.242763 58.461497 
L 467.715084 58.21233 
L 468.187405 58.544553 
L 468.659726 58.21233 
L 469.132047 57.381772 
L 469.604368 57.880107 
L 470.076689 58.21233 
L 470.54901 57.963163 
L 471.021331 58.21233 
L 471.493652 57.797051 
L 471.965973 57.880107 
L 472.438294 58.461497 
L 472.910615 57.132605 
L 473.382936 58.295386 
L 473.855256 57.880107 
L 474.327577 57.298717 
L 474.799898 57.797051 
L 475.272219 57.215661 
L 475.74454 58.046218 
L 476.216861 58.046218 
L 476.689182 57.63094 
L 477.161503 57.713995 
L 477.633824 57.963163 
L 478.106145 59.375111 
L 478.578466 57.713995 
L 479.050787 56.883438 
L 479.523108 56.800382 
L 479.995429 58.627609 
L 480.46775 58.129274 
L 480.940071 58.046218 
L 481.412392 57.63094 
L 482.357034 59.042888 
L 482.829355 57.963163 
L 483.301676 58.129274 
L 483.773997 58.461497 
L 484.246318 57.963163 
L 484.718639 58.959832 
L 485.19096 57.963163 
L 485.663281 57.797051 
L 486.135602 59.125943 
L 486.607923 57.797051 
L 487.080244 58.129274 
L 487.552565 57.797051 
L 488.497207 58.295386 
L 488.969528 58.710665 
L 489.91417 57.797051 
L 490.386491 58.710665 
L 490.858812 57.963163 
L 491.331133 56.966494 
L 491.803454 58.627609 
L 492.275775 57.132605 
L 492.748095 57.713995 
L 493.220416 57.797051 
L 493.692737 58.544553 
L 494.165058 58.876776 
L 494.637379 58.544553 
L 495.1097 58.959832 
L 495.582021 57.713995 
L 496.054342 57.381772 
L 496.998984 57.63094 
L 497.471305 58.378442 
L 497.943626 58.627609 
L 498.415947 59.042888 
L 498.888268 58.046218 
L 499.360589 58.295386 
L 499.83291 57.713995 
L 500.305231 57.797051 
L 500.777552 57.63094 
L 501.249873 58.295386 
L 501.722194 56.63427 
L 502.194515 56.966494 
L 502.666836 58.710665 
L 503.139157 57.797051 
L 503.611478 57.381772 
L 504.083799 58.129274 
L 504.55612 57.464828 
L 505.028441 57.63094 
L 505.500762 58.129274 
L 505.973083 57.963163 
L 506.445404 57.547884 
L 507.862367 57.713995 
L 508.334688 58.21233 
L 508.807009 58.959832 
L 509.27933 58.627609 
L 509.751651 57.381772 
L 510.223972 58.295386 
L 511.168614 57.298717 
L 511.640934 57.298717 
L 512.113255 58.959832 
L 512.585576 59.042888 
L 513.057897 58.295386 
L 513.530218 58.710665 
L 514.002539 57.381772 
L 514.47486 58.378442 
L 514.947181 57.547884 
L 515.419502 57.464828 
L 515.891823 57.132605 
L 516.364144 58.710665 
L 516.836465 57.547884 
L 517.308786 57.797051 
L 517.781107 57.049549 
L 518.253428 57.464828 
L 518.725749 57.547884 
L 519.19807 57.797051 
L 519.670391 57.464828 
L 520.615033 57.63094 
L 521.087354 56.302047 
L 521.559675 56.468159 
L 522.031996 58.21233 
L 522.504317 57.298717 
L 522.976638 57.547884 
L 523.92128 57.298717 
L 524.393601 58.129274 
L 524.865922 57.797051 
L 525.338243 58.129274 
L 525.810564 56.966494 
L 526.282885 57.547884 
L 526.755206 56.883438 
L 527.227527 57.963163 
L 527.699848 57.63094 
L 528.172169 57.880107 
L 528.64449 57.049549 
L 529.116811 57.215661 
L 529.589132 58.129274 
L 530.061453 57.63094 
L 530.533773 57.298717 
L 531.006094 57.132605 
L 531.478415 58.21233 
L 531.950736 56.717326 
L 532.423057 58.21233 
L 532.895378 57.797051 
L 533.367699 57.797051 
L 533.84002 56.966494 
L 534.312341 57.547884 
L 534.784662 56.717326 
L 535.256983 57.797051 
L 535.729304 58.129274 
L 536.201625 57.049549 
L 536.673946 58.378442 
L 537.146267 57.381772 
L 537.618588 58.046218 
L 538.090909 57.215661 
L 539.035551 56.63427 
L 539.507872 57.547884 
L 539.980193 57.132605 
L 540.452514 56.302047 
L 540.924835 57.381772 
L 541.397156 57.713995 
L 541.869477 57.63094 
L 542.341798 56.717326 
L 542.814119 57.049549 
L 543.28644 58.046218 
L 543.758761 57.298717 
L 544.231082 57.132605 
L 544.703403 58.129274 
L 545.175724 57.464828 
L 546.120366 57.215661 
L 546.592687 57.381772 
L 547.065008 58.129274 
L 547.537329 57.049549 
L 548.00965 57.049549 
L 548.481971 56.302047 
L 548.954292 57.547884 
L 549.426612 58.129274 
L 549.898933 57.049549 
L 550.371254 56.800382 
L 550.843575 56.883438 
L 551.315896 57.547884 
L 551.788217 56.551215 
L 552.260538 57.381772 
L 552.732859 56.966494 
L 553.677501 55.969824 
L 554.149822 57.381772 
L 554.622143 57.713995 
L 555.094464 56.63427 
L 555.566785 56.302047 
L 556.039106 58.129274 
L 556.983748 56.385103 
L 557.456069 57.298717 
L 557.92839 56.218992 
L 558.400711 56.135936 
L 558.873032 56.966494 
L 559.345353 56.717326 
L 559.817674 57.298717 
L 560.762316 57.547884 
L 561.234637 56.468159 
L 561.706958 57.464828 
L 562.179279 56.05288 
L 562.6516 57.464828 
L 563.123921 57.132605 
L 563.596242 57.547884 
L 564.068563 57.63094 
L 564.540884 57.132605 
L 565.013205 57.963163 
L 565.485526 57.215661 
L 565.957847 56.883438 
L 566.430168 57.381772 
L 566.902489 56.63427 
L 567.37481 57.547884 
L 567.847131 56.302047 
L 568.319451 57.464828 
L 568.791772 57.132605 
L 569.736414 56.717326 
L 570.208735 56.468159 
L 570.681056 57.132605 
L 571.153377 56.717326 
L 571.625698 57.880107 
L 572.098019 56.551215 
L 572.57034 56.63427 
L 573.042661 56.05288 
L 573.987303 56.800382 
L 574.459624 56.468159 
L 574.931945 56.302047 
L 575.404266 57.049549 
L 575.876587 56.302047 
L 576.348908 56.63427 
L 576.821229 57.547884 
L 577.765871 57.132605 
L 578.238192 57.963163 
L 578.710513 56.551215 
L 579.182834 57.049549 
L 579.655155 57.132605 
L 580.127476 56.302047 
L 581.072118 57.381772 
L 581.544439 56.966494 
L 582.01676 56.800382 
L 582.489081 56.883438 
L 583.433723 56.63427 
L 583.906044 56.63427 
L 584.378365 57.381772 
L 584.850686 56.05288 
L 585.323007 57.298717 
L 585.795328 56.717326 
L 586.267649 57.797051 
L 586.73997 57.132605 
L 587.212291 57.464828 
L 587.684611 56.883438 
L 588.156932 56.883438 
L 588.629253 57.381772 
L 589.101574 56.63427 
L 589.573895 57.049549 
L 590.046216 55.803713 
L 590.990858 56.800382 
L 591.463179 58.79372 
L 591.9355 57.049549 
L 592.407821 56.468159 
L 592.880142 57.215661 
L 593.352463 57.215661 
L 593.824784 56.468159 
L 594.297105 56.883438 
L 595.241747 56.218992 
L 595.714068 56.800382 
L 596.186389 57.132605 
L 596.65871 57.880107 
L 597.131031 56.302047 
L 598.075673 57.963163 
L 598.547994 56.883438 
L 599.020315 56.551215 
L 599.492636 57.963163 
L 599.964957 57.132605 
L 600.437278 57.381772 
L 600.909599 56.468159 
L 601.38192 56.468159 
L 601.854241 56.218992 
L 602.326562 57.132605 
L 602.798883 57.132605 
L 603.271204 56.883438 
L 603.743525 57.132605 
L 604.215846 56.218992 
L 604.688167 56.302047 
L 605.632809 57.547884 
L 606.10513 55.554545 
L 606.57745 55.637601 
L 607.049771 57.298717 
L 607.522092 57.464828 
L 607.994413 56.63427 
L 608.466734 57.298717 
L 609.883697 56.05288 
L 610.356018 55.803713 
L 610.828339 56.883438 
L 611.30066 56.05288 
L 611.772981 56.218992 
L 612.245302 57.132605 
L 612.717623 57.797051 
L 613.189944 55.803713 
L 613.662265 56.385103 
L 614.134586 56.468159 
L 614.606907 57.547884 
L 615.079228 56.551215 
L 615.551549 56.551215 
L 616.02387 57.880107 
L 616.496191 55.637601 
L 616.968512 57.298717 
L 617.440833 57.381772 
L 617.913154 56.551215 
L 618.385475 57.547884 
L 618.857796 56.218992 
L 619.330117 56.385103 
L 619.802438 57.547884 
L 620.274759 57.63094 
L 620.74708 57.215661 
L 621.219401 57.547884 
L 622.164043 56.218992 
L 622.636364 55.969824 
L 622.636364 55.969824 
" style="fill:none;stroke:#1f77b4;stroke-linecap:square;stroke-width:0.5;"/>
   </g>
   <g id="line2d_30">
    <path clip-path="url(#p1f4f912e87)" d="M 115.363636 298.575722 
L 115.835957 297.994332 
L 116.308278 298.575722 
L 116.780599 293.758487 
L 117.25292 294.422934 
L 117.725241 298.658778 
L 118.197562 289.522643 
L 118.669883 294.256822 
L 119.614525 290.76848 
L 120.086846 291.432926 
L 120.559167 289.19042 
L 121.031488 287.695416 
L 121.503809 290.187089 
L 121.97613 281.881513 
L 122.448451 283.376516 
L 122.920772 282.961238 
L 123.393093 283.542628 
L 123.865414 278.144003 
L 124.337735 277.728724 
L 124.810056 273.908159 
L 125.282377 269.090924 
L 125.754698 267.678976 
L 126.227019 269.340092 
L 127.171661 261.034515 
L 127.643982 258.625898 
L 128.116303 255.0545 
L 128.588624 253.310328 
L 129.060945 246.167532 
L 129.533266 246.99809 
L 130.005587 246.665867 
L 130.477908 239.440015 
L 131.42255 228.974989 
L 132.367191 224.157754 
L 132.839512 215.686066 
L 133.311833 217.596348 
L 134.256475 204.473537 
L 134.728796 202.812422 
L 135.673438 189.938778 
L 136.145759 190.271001 
L 136.61808 184.955432 
L 137.090401 180.968755 
L 137.562722 175.404018 
L 138.035043 176.234576 
L 139.452006 168.344278 
L 139.924327 163.610099 
L 140.396648 165.105103 
L 140.868969 158.460642 
L 141.34129 158.792865 
L 141.813611 156.550359 
L 142.285932 148.244782 
L 142.758253 152.065348 
L 143.702895 148.244782 
L 144.175216 149.241451 
L 144.647537 147.082002 
L 145.119858 141.185042 
L 145.592179 140.271429 
L 146.0645 141.01893 
L 146.536821 141.517265 
L 147.009142 134.955859 
L 147.481463 133.045577 
L 147.953784 137.364477 
L 148.426105 135.371138 
L 148.898426 132.713354 
L 149.370747 128.809733 
L 149.843068 135.288083 
L 150.315389 127.979175 
L 150.787709 128.47751 
L 151.26003 132.713354 
L 151.732351 128.726677 
L 152.204672 129.141956 
L 152.676993 124.407777 
L 153.149314 125.736669 
L 154.093956 120.005821 
L 154.566277 119.424431 
L 155.038598 122.248327 
L 155.510919 123.494163 
L 155.98324 118.427762 
L 156.927882 118.344706 
L 157.400203 117.264981 
L 157.872524 115.52081 
L 158.344845 111.035798 
L 159.289487 115.52081 
L 159.761808 111.035798 
L 160.234129 112.281635 
L 160.70645 109.291627 
L 161.178771 107.796623 
L 161.651092 109.374683 
L 162.123413 108.876348 
L 162.595734 108.544125 
L 163.068055 106.716898 
L 163.540376 106.716898 
L 164.012697 108.46107 
L 164.485018 104.474393 
L 164.957339 104.059114 
L 165.42966 104.640504 
L 165.901981 99.657158 
L 166.374302 104.391337 
L 166.846623 101.152162 
L 167.318944 100.653827 
L 167.791265 101.484385 
L 168.263586 101.733552 
L 168.735907 102.979389 
L 169.208228 100.072437 
L 169.680549 100.072437 
L 170.152869 96.999374 
L 170.62519 100.155493 
L 171.097511 100.155493 
L 171.569832 97.996043 
L 172.042153 97.331597 
L 172.514474 99.158824 
L 172.986795 100.487716 
L 173.459116 99.574102 
L 173.931437 96.002704 
L 174.403758 95.836593 
L 174.876079 95.836593 
L 175.3484 96.833262 
L 176.293042 92.348251 
L 176.765363 93.760199 
L 177.237684 93.760199 
L 177.710005 90.936303 
L 178.182326 92.182139 
L 178.654647 92.182139 
L 179.126968 92.597418 
L 179.599289 92.514362 
L 180.07161 91.932972 
L 180.543931 90.687135 
L 181.016252 91.351581 
L 181.488573 89.358243 
L 181.960894 90.022689 
L 182.433215 87.780183 
L 182.905536 89.358243 
L 183.377857 89.856578 
L 183.850178 86.617403 
L 184.322499 88.527685 
L 184.79482 89.524354 
L 185.267141 87.946295 
L 185.739462 87.531016 
L 186.211783 90.354912 
L 186.684104 88.112406 
L 187.156425 85.28851 
L 187.628746 85.537678 
L 188.101067 85.454622 
L 188.573388 85.869901 
L 189.045708 84.873231 
L 189.518029 85.205455 
L 189.99035 83.627395 
L 190.462671 84.541008 
L 190.934992 86.28518 
L 191.407313 85.454622 
L 191.879634 81.634057 
L 192.351955 85.703789 
L 192.824276 83.12906 
L 193.296597 84.624064 
L 193.768918 84.042674 
L 194.241239 85.205455 
L 194.71356 85.122399 
L 195.185881 84.457953 
L 195.658202 81.384889 
L 196.130523 84.12573 
L 196.602844 82.630726 
L 197.075165 82.464614 
L 198.019807 85.371566 
L 198.492128 82.796837 
L 198.964449 83.544339 
L 199.43677 81.883224 
L 199.909091 81.883224 
L 200.853733 82.464614 
L 201.326054 80.803499 
L 201.798375 81.467945 
L 202.270696 80.720443 
L 202.743017 81.883224 
L 203.215338 79.308495 
L 203.687659 81.052666 
L 204.15998 81.384889 
L 204.632301 80.803499 
L 205.104622 79.474607 
L 205.576943 79.308495 
L 206.049264 79.80683 
L 206.521585 79.972941 
L 206.993906 79.308495 
L 207.466227 79.059328 
L 207.938547 80.471276 
L 208.410868 79.889885 
L 208.883189 79.80683 
L 209.35551 78.644049 
L 209.827831 80.720443 
L 210.300152 77.564324 
L 210.772473 80.96961 
L 211.244794 81.301833 
L 211.717115 77.896547 
L 212.189436 77.64738 
L 212.661757 78.477937 
L 213.134078 77.398212 
L 213.606399 78.22877 
L 214.07872 75.072651 
L 214.551041 78.394882 
L 215.023362 78.394882 
L 215.495683 77.564324 
L 215.968004 75.820153 
L 216.440325 78.560993 
L 216.912646 77.813491 
L 217.384967 79.059328 
L 217.857288 76.567655 
L 218.329609 76.152376 
L 218.80193 78.477937 
L 219.274251 77.232101 
L 219.746572 76.899878 
L 220.218893 75.321818 
L 221.635856 77.813491 
L 222.108177 78.145714 
L 222.580498 75.986264 
L 223.052819 75.820153 
L 223.52514 76.816822 
L 223.997461 77.232101 
L 224.469782 73.826814 
L 224.942103 76.235432 
L 225.414424 74.574316 
L 225.886745 77.481268 
L 226.359066 73.660703 
L 226.831386 76.235432 
L 227.303707 75.903209 
L 227.776028 75.404874 
L 228.248349 76.401543 
L 228.72067 74.657372 
L 229.192991 73.743759 
L 230.137633 77.149045 
L 230.609954 73.162368 
L 231.082275 74.325149 
L 231.554596 72.996257 
L 232.026917 75.737097 
L 232.499238 74.823484 
L 232.971559 76.152376 
L 233.44388 74.989595 
L 233.916201 74.823484 
L 234.388522 74.159037 
L 234.860843 73.826814 
L 235.333164 74.408205 
L 235.805485 73.826814 
L 236.277806 73.992926 
L 236.750127 72.747089 
L 237.222448 74.574316 
L 237.694769 73.411536 
L 238.16709 74.823484 
L 239.111732 74.408205 
L 239.584053 71.667364 
L 240.056374 73.245424 
L 240.528695 71.085974 
L 241.001016 75.48793 
L 241.473337 73.411536 
L 241.945658 72.996257 
L 242.417979 73.743759 
L 242.8903 72.580978 
L 243.362621 71.916532 
L 243.834942 73.743759 
L 244.307263 74.823484 
L 244.779584 73.411536 
L 245.251905 74.325149 
L 245.724225 73.743759 
L 246.196546 71.916532 
L 246.668867 71.252086 
L 247.141188 74.075982 
L 247.613509 73.32848 
L 248.08583 71.002918 
L 248.558151 73.32848 
L 249.030472 71.999587 
L 249.502793 71.833476 
L 249.975114 72.830145 
L 250.447435 72.830145 
L 250.919756 71.584309 
L 251.392077 73.079312 
L 251.864398 73.079312 
L 252.336719 72.497922 
L 252.80904 71.667364 
L 253.281361 72.331811 
L 253.753682 71.667364 
L 254.226003 72.497922 
L 254.698324 72.580978 
L 255.170645 71.75042 
L 255.642966 70.504584 
L 256.115287 71.085974 
L 256.587608 70.421528 
L 257.059929 70.919862 
L 257.53225 70.919862 
L 258.004571 71.75042 
L 258.476892 71.418197 
L 258.949213 69.175691 
L 259.421534 72.580978 
L 259.893855 71.75042 
L 260.366176 72.913201 
L 260.838497 74.657372 
L 261.310818 70.172361 
L 261.783139 72.497922 
L 262.25546 71.999587 
L 262.727781 70.504584 
L 263.200102 70.919862 
L 263.672423 70.836807 
L 264.144744 72.580978 
L 264.617064 69.923193 
L 265.089385 72.913201 
L 265.561706 71.085974 
L 266.034027 71.418197 
L 266.506348 72.580978 
L 266.978669 70.670695 
L 267.45099 70.504584 
L 267.923311 71.16903 
L 268.395632 72.082643 
L 268.867953 70.089305 
L 269.340274 70.504584 
L 269.812595 71.418197 
L 270.284916 70.421528 
L 270.757237 68.843468 
L 271.229558 68.677357 
L 271.701879 71.335141 
L 272.1742 70.587639 
L 272.646521 69.00958 
L 273.118842 70.172361 
L 273.591163 70.919862 
L 274.063484 71.418197 
L 274.535805 71.335141 
L 275.008126 70.836807 
L 275.480447 69.674026 
L 275.952768 69.507914 
L 276.425089 69.59097 
L 277.842052 71.16903 
L 278.314373 69.840138 
L 278.786694 69.092636 
L 279.731336 69.674026 
L 280.203657 69.175691 
L 280.675978 69.923193 
L 281.62062 69.507914 
L 282.092941 69.674026 
L 282.565262 68.843468 
L 283.037583 68.594301 
L 283.509904 68.179022 
L 283.982224 69.507914 
L 284.454545 68.843468 
L 284.926866 69.757082 
L 285.871508 69.674026 
L 286.343829 68.677357 
L 286.81615 68.012911 
L 287.288471 68.594301 
L 287.760792 70.006249 
L 288.705434 69.840138 
L 289.177755 68.179022 
L 289.650076 69.424859 
L 290.122397 68.843468 
L 290.594718 69.59097 
L 291.067039 70.587639 
L 291.53936 68.262078 
L 292.011681 69.341803 
L 292.484002 68.428189 
L 292.956323 69.175691 
L 293.428644 68.760413 
L 294.373286 69.00958 
L 294.845607 68.095966 
L 295.317928 70.172361 
L 295.790249 68.926524 
L 296.26257 68.843468 
L 297.207212 68.262078 
L 297.679533 69.424859 
L 298.624175 69.840138 
L 299.096496 68.926524 
L 299.568817 69.175691 
L 300.041138 68.760413 
L 300.513459 70.421528 
L 300.98578 67.929855 
L 301.458101 68.345134 
L 301.930422 69.341803 
L 302.402743 67.016241 
L 302.875063 69.092636 
L 303.347384 69.757082 
L 303.819705 68.760413 
L 304.292026 68.926524 
L 304.764347 67.514576 
L 305.236668 69.00958 
L 305.708989 68.511245 
L 306.18131 69.341803 
L 306.653631 67.43152 
L 307.125952 68.095966 
L 307.598273 67.680688 
L 308.070594 69.757082 
L 308.542915 68.926524 
L 309.015236 66.767074 
L 309.487557 67.265409 
L 309.959878 66.767074 
L 310.432199 68.843468 
L 310.90452 66.684018 
L 311.849162 69.092636 
L 312.793804 67.182353 
L 313.738446 68.262078 
L 314.210767 68.511245 
L 314.683088 66.600963 
L 315.155409 65.687349 
L 315.62773 67.265409 
L 316.100051 68.179022 
L 316.572372 67.846799 
L 317.044693 67.265409 
L 317.517014 67.846799 
L 317.989335 69.175691 
L 318.461656 68.926524 
L 318.933977 66.268739 
L 319.406298 66.85013 
L 319.878619 67.846799 
L 320.35094 66.517907 
L 320.823261 69.175691 
L 321.295582 68.428189 
L 321.767902 67.43152 
L 322.712544 66.85013 
L 323.184865 66.351795 
L 323.657186 67.929855 
L 324.129507 66.102628 
L 325.074149 66.767074 
L 325.54647 67.763743 
L 326.018791 67.265409 
L 326.491112 67.929855 
L 326.963433 67.597632 
L 327.435754 67.099297 
L 327.908075 67.763743 
L 328.380396 66.767074 
L 328.852717 67.597632 
L 329.325038 66.85013 
L 329.797359 68.262078 
L 330.26968 67.348464 
L 330.742001 67.348464 
L 331.214322 68.345134 
L 331.686643 65.438182 
L 332.158964 67.846799 
L 332.631285 66.600963 
L 333.103606 66.268739 
L 334.048248 66.019572 
L 334.520569 66.767074 
L 334.99289 66.517907 
L 335.465211 68.095966 
L 335.937532 66.933186 
L 336.409853 66.600963 
L 336.882174 67.597632 
L 337.354495 67.182353 
L 337.826816 66.019572 
L 338.299137 67.265409 
L 338.771458 67.265409 
L 339.243779 66.767074 
L 339.7161 67.929855 
L 340.188421 67.763743 
L 340.660741 66.434851 
L 341.133062 66.019572 
L 341.605383 64.939847 
L 343.022346 66.933186 
L 343.494667 67.846799 
L 343.966988 68.012911 
L 344.439309 67.348464 
L 344.91163 68.760413 
L 345.383951 66.85013 
L 345.856272 66.85013 
L 346.328593 67.763743 
L 346.800914 66.434851 
L 347.273235 66.434851 
L 348.690198 66.85013 
L 349.162519 67.763743 
L 349.63484 67.016241 
L 350.107161 66.019572 
L 350.579482 68.677357 
L 351.051803 69.59097 
L 351.524124 66.102628 
L 351.996445 65.687349 
L 352.468766 66.684018 
L 352.941087 66.85013 
L 353.413408 65.189015 
L 354.35805 66.434851 
L 354.830371 65.105959 
L 355.302692 66.933186 
L 355.775013 67.514576 
L 356.247334 66.600963 
L 356.719655 67.099297 
L 357.191976 66.185684 
L 357.664297 65.853461 
L 358.136618 65.853461 
L 358.608939 67.680688 
L 359.08126 68.012911 
L 359.55358 66.185684 
L 360.025901 66.933186 
L 360.498222 66.933186 
L 360.970543 66.351795 
L 361.442864 68.760413 
L 361.915185 66.434851 
L 362.387506 66.019572 
L 363.332148 66.767074 
L 363.804469 65.189015 
L 364.27679 67.846799 
L 365.221432 65.438182 
L 365.693753 66.102628 
L 366.166074 65.105959 
L 366.638395 67.763743 
L 367.110716 65.853461 
L 367.583037 65.687349 
L 368.055358 66.019572 
L 368.527679 65.770405 
L 369 65.189015 
L 369.472321 66.434851 
L 369.944642 67.182353 
L 370.416963 65.936516 
L 370.889284 66.517907 
L 371.361605 65.355126 
L 371.833926 67.182353 
L 372.306247 65.189015 
L 372.778568 65.189015 
L 373.250889 66.517907 
L 373.72321 65.521238 
L 374.195531 66.684018 
L 374.667852 65.936516 
L 375.140173 66.684018 
L 375.612494 68.179022 
L 376.084815 65.438182 
L 376.557136 66.85013 
L 377.029457 65.853461 
L 377.974099 68.095966 
L 378.44642 64.856791 
L 378.91874 66.933186 
L 379.391061 66.185684 
L 379.863382 66.019572 
L 380.335703 68.179022 
L 380.808024 66.767074 
L 381.280345 66.85013 
L 381.752666 66.600963 
L 382.224987 65.355126 
L 382.697308 65.355126 
L 383.169629 66.185684 
L 383.64195 65.604293 
L 384.114271 66.102628 
L 384.586592 65.438182 
L 385.058913 65.521238 
L 385.531234 66.019572 
L 386.003555 64.10929 
L 386.475876 65.604293 
L 387.420518 65.936516 
L 387.892839 65.521238 
L 388.36516 65.770405 
L 388.837481 66.268739 
L 389.309802 65.105959 
L 389.782123 64.69068 
L 390.254444 65.770405 
L 390.726765 65.936516 
L 391.199086 64.275401 
L 391.671407 65.189015 
L 392.143728 64.69068 
L 392.616049 65.770405 
L 393.08837 66.268739 
L 393.560691 66.102628 
L 394.033012 65.27207 
L 394.505333 65.521238 
L 394.977654 64.524568 
L 395.449975 64.69068 
L 395.922296 65.022903 
L 396.394617 66.351795 
L 396.866938 64.856791 
L 397.339259 65.438182 
L 397.811579 64.939847 
L 398.2839 65.604293 
L 398.756221 64.856791 
L 399.700863 66.019572 
L 400.645505 66.351795 
L 401.117826 64.69068 
L 401.590147 65.189015 
L 402.062468 66.684018 
L 402.534789 66.268739 
L 403.00711 66.102628 
L 403.479431 66.268739 
L 403.951752 65.687349 
L 404.424073 64.607624 
L 404.896394 64.773736 
L 405.368715 64.773736 
L 405.841036 65.022903 
L 406.313357 65.604293 
L 406.785678 65.521238 
L 407.257999 64.856791 
L 407.73032 65.27207 
L 408.202641 65.105959 
L 408.674962 65.521238 
L 409.147283 66.102628 
L 409.619604 64.607624 
L 410.091925 65.687349 
L 410.564246 65.189015 
L 411.036567 65.936516 
L 411.508888 65.355126 
L 411.981209 65.438182 
L 412.925851 64.441513 
L 413.398172 64.939847 
L 413.870493 66.019572 
L 414.342814 64.939847 
L 414.815135 64.441513 
L 415.287456 65.521238 
L 415.759777 64.856791 
L 416.232098 64.607624 
L 416.704418 65.521238 
L 417.176739 64.275401 
L 417.64906 65.105959 
L 418.121381 64.10929 
L 418.593702 64.607624 
L 419.066023 65.936516 
L 419.538344 65.604293 
L 420.010665 66.351795 
L 420.482986 63.029565 
L 420.955307 64.607624 
L 421.427628 63.610955 
L 421.899949 65.438182 
L 422.37227 66.434851 
L 422.844591 65.521238 
L 423.316912 65.770405 
L 423.789233 64.69068 
L 424.733875 65.189015 
L 425.206196 65.770405 
L 425.678517 63.527899 
L 426.150838 63.777066 
L 426.623159 65.022903 
L 427.09548 64.441513 
L 427.567801 65.189015 
L 428.040122 65.521238 
L 428.512443 64.441513 
L 429.457085 64.856791 
L 429.929406 65.936516 
L 430.874048 64.939847 
L 431.346369 65.105959 
L 432.291011 64.358457 
L 432.763332 66.351795 
L 433.235653 65.438182 
L 433.707974 65.355126 
L 434.180295 65.022903 
L 434.652616 64.275401 
L 435.124937 64.10929 
L 435.597257 64.607624 
L 436.069578 66.517907 
L 436.541899 64.275401 
L 437.01422 64.69068 
L 437.486541 63.777066 
L 437.958862 65.189015 
L 438.431183 64.607624 
L 438.903504 64.773736 
L 439.375825 64.192345 
L 440.320467 65.853461 
L 440.792788 64.856791 
L 441.265109 65.521238 
L 441.73743 65.936516 
L 442.209751 66.019572 
L 442.682072 65.105959 
L 443.154393 65.27207 
L 443.626714 64.939847 
L 444.099035 65.105959 
L 444.571356 64.939847 
L 445.043677 65.022903 
L 445.515998 63.943178 
L 445.988319 64.10929 
L 446.46064 63.860122 
L 446.932961 63.11262 
L 447.405282 65.853461 
L 447.877603 64.607624 
L 448.349924 64.441513 
L 448.822245 66.185684 
L 449.294566 64.10929 
L 449.766887 66.019572 
L 450.239208 65.438182 
L 450.711529 63.527899 
L 451.18385 64.275401 
L 451.656171 63.943178 
L 453.073134 65.770405 
L 453.545455 65.189015 
L 454.017776 62.115951 
L 454.490096 65.521238 
L 454.962417 63.860122 
L 455.434738 65.022903 
L 455.907059 63.943178 
L 456.37938 66.351795 
L 456.851701 65.189015 
L 457.324022 63.527899 
L 457.796343 66.517907 
L 458.268664 65.521238 
L 458.740985 64.026234 
L 459.213306 65.022903 
L 459.685627 64.607624 
L 460.157948 63.860122 
L 460.630269 62.780397 
L 461.10259 64.10929 
L 461.574911 64.026234 
L 462.047232 62.946509 
L 462.519553 64.773736 
L 462.991874 64.192345 
L 463.464195 62.863453 
L 463.936516 65.355126 
L 464.408837 66.684018 
L 464.881158 66.517907 
L 465.353479 63.610955 
L 465.8258 64.026234 
L 466.298121 64.773736 
L 466.770442 64.026234 
L 467.242763 65.438182 
L 467.715084 65.853461 
L 468.187405 64.773736 
L 468.659726 65.022903 
L 469.132047 64.192345 
L 469.604368 64.192345 
L 470.076689 63.11262 
L 470.54901 64.441513 
L 471.021331 64.192345 
L 471.493652 65.687349 
L 471.965973 63.860122 
L 472.438294 64.192345 
L 472.910615 65.355126 
L 473.382936 63.943178 
L 473.855256 64.441513 
L 474.327577 65.770405 
L 474.799898 65.604293 
L 475.272219 65.022903 
L 475.74454 63.361788 
L 476.216861 64.69068 
L 476.689182 63.195676 
L 477.633824 65.438182 
L 478.106145 63.610955 
L 478.578466 63.943178 
L 479.050787 63.029565 
L 479.523108 64.524568 
L 479.995429 64.524568 
L 480.46775 64.10929 
L 480.940071 64.026234 
L 481.412392 64.856791 
L 481.884713 62.53123 
L 482.829355 64.524568 
L 483.301676 64.773736 
L 483.773997 64.856791 
L 484.246318 66.268739 
L 484.718639 64.10929 
L 485.19096 64.192345 
L 485.663281 64.69068 
L 486.135602 63.777066 
L 486.607923 65.189015 
L 487.080244 63.610955 
L 487.552565 63.777066 
L 488.024886 64.10929 
L 488.497207 64.192345 
L 488.969528 65.355126 
L 489.441849 64.358457 
L 489.91417 64.69068 
L 490.386491 64.69068 
L 490.858812 64.275401 
L 491.331133 64.192345 
L 491.803454 64.441513 
L 492.275775 64.026234 
L 492.748095 64.358457 
L 493.220416 64.939847 
L 493.692737 64.69068 
L 494.165058 66.019572 
L 494.637379 63.527899 
L 495.1097 65.022903 
L 495.582021 63.610955 
L 496.054342 64.524568 
L 496.526663 63.610955 
L 497.471305 64.773736 
L 497.943626 64.026234 
L 498.415947 65.770405 
L 499.360589 63.278732 
L 499.83291 64.441513 
L 500.305231 63.694011 
L 501.249873 64.026234 
L 501.722194 64.69068 
L 502.194515 64.441513 
L 502.666836 64.69068 
L 503.139157 64.275401 
L 503.611478 64.026234 
L 504.083799 63.943178 
L 504.55612 63.029565 
L 505.028441 63.278732 
L 505.500762 62.282063 
L 505.973083 64.524568 
L 506.445404 63.610955 
L 506.917725 64.10929 
L 507.390046 63.527899 
L 507.862367 63.860122 
L 508.807009 63.610955 
L 509.27933 64.358457 
L 509.751651 63.943178 
L 510.223972 63.361788 
L 510.696293 63.860122 
L 511.168614 64.026234 
L 511.640934 63.11262 
L 512.113255 64.358457 
L 512.585576 64.773736 
L 513.057897 64.358457 
L 513.530218 64.275401 
L 514.002539 63.278732 
L 514.47486 65.022903 
L 514.947181 63.444843 
L 515.419502 64.69068 
L 515.891823 64.524568 
L 516.364144 62.697341 
L 516.836465 64.192345 
L 517.308786 63.694011 
L 517.781107 63.943178 
L 518.253428 63.777066 
L 518.725749 63.860122 
L 519.19807 64.441513 
L 519.670391 62.780397 
L 520.142712 62.697341 
L 520.615033 63.527899 
L 521.087354 63.195676 
L 521.559675 64.441513 
L 522.031996 64.275401 
L 522.504317 63.361788 
L 523.448959 62.53123 
L 523.92128 64.275401 
L 524.393601 63.694011 
L 524.865922 64.026234 
L 525.338243 63.610955 
L 525.810564 64.773736 
L 526.282885 64.358457 
L 526.755206 64.773736 
L 527.227527 65.355126 
L 527.699848 63.860122 
L 528.172169 64.10929 
L 528.64449 65.189015 
L 529.116811 63.777066 
L 529.589132 64.524568 
L 530.061453 63.777066 
L 530.533773 63.860122 
L 531.478415 63.361788 
L 531.950736 64.192345 
L 532.895378 63.029565 
L 533.84002 64.358457 
L 534.312341 64.026234 
L 534.784662 63.943178 
L 535.256983 64.856791 
L 535.729304 62.946509 
L 536.201625 63.694011 
L 536.673946 64.773736 
L 537.146267 64.192345 
L 537.618588 63.11262 
L 538.090909 64.441513 
L 538.56323 61.866784 
L 539.035551 63.610955 
L 539.507872 63.361788 
L 539.980193 63.527899 
L 540.452514 63.860122 
L 540.924835 62.365118 
L 541.397156 63.195676 
L 541.869477 62.946509 
L 542.341798 64.026234 
L 542.814119 64.10929 
L 543.758761 63.777066 
L 544.231082 64.856791 
L 544.703403 64.026234 
L 545.648045 63.029565 
L 546.120366 63.943178 
L 546.592687 65.189015 
L 547.065008 65.022903 
L 547.537329 63.943178 
L 548.481971 63.029565 
L 548.954292 63.943178 
L 549.426612 63.694011 
L 549.898933 64.026234 
L 550.371254 62.946509 
L 550.843575 63.694011 
L 551.315896 63.610955 
L 551.788217 63.11262 
L 552.260538 63.777066 
L 552.732859 63.610955 
L 553.20518 63.029565 
L 553.677501 64.607624 
L 554.149822 63.610955 
L 554.622143 63.444843 
L 555.094464 63.694011 
L 555.566785 64.358457 
L 556.039106 61.94984 
L 556.511427 64.275401 
L 556.983748 64.192345 
L 557.456069 62.365118 
L 557.92839 62.53123 
L 558.400711 63.444843 
L 558.873032 63.777066 
L 559.345353 64.275401 
L 559.817674 64.192345 
L 560.289995 64.69068 
L 560.762316 62.115951 
L 561.234637 63.860122 
L 562.179279 64.607624 
L 562.6516 63.777066 
L 563.123921 64.69068 
L 563.596242 62.697341 
L 564.068563 63.029565 
L 564.540884 64.607624 
L 565.013205 63.029565 
L 565.485526 62.863453 
L 565.957847 63.527899 
L 566.430168 63.361788 
L 566.902489 64.358457 
L 567.37481 64.939847 
L 567.847131 62.863453 
L 568.319451 62.282063 
L 568.791772 64.10929 
L 569.264093 63.527899 
L 569.736414 62.115951 
L 570.208735 62.863453 
L 570.681056 62.946509 
L 571.153377 65.438182 
L 571.625698 63.195676 
L 572.098019 63.444843 
L 572.57034 64.275401 
L 573.042661 64.192345 
L 573.514982 63.943178 
L 573.987303 63.029565 
L 574.459624 63.278732 
L 574.931945 63.11262 
L 575.404266 64.10929 
L 575.876587 62.282063 
L 576.348908 63.527899 
L 576.821229 64.441513 
L 577.29355 63.694011 
L 577.765871 64.10929 
L 578.238192 63.527899 
L 578.710513 63.610955 
L 579.182834 63.943178 
L 579.655155 63.195676 
L 580.127476 63.278732 
L 580.599797 64.524568 
L 581.544439 62.946509 
L 582.01676 62.53123 
L 582.961402 64.856791 
L 583.433723 65.438182 
L 583.906044 63.943178 
L 584.378365 63.610955 
L 584.850686 62.53123 
L 585.323007 64.939847 
L 585.795328 62.614286 
L 586.267649 62.53123 
L 586.73997 63.444843 
L 587.212291 63.943178 
L 587.684611 63.694011 
L 588.156932 63.694011 
L 588.629253 62.697341 
L 589.101574 63.195676 
L 589.573895 62.53123 
L 590.046216 64.10929 
L 590.518537 63.029565 
L 590.990858 64.441513 
L 591.463179 62.697341 
L 591.9355 63.527899 
L 592.407821 63.943178 
L 592.880142 62.614286 
L 593.352463 63.943178 
L 593.824784 63.195676 
L 594.297105 62.946509 
L 594.769426 63.860122 
L 595.241747 62.282063 
L 595.714068 65.604293 
L 596.186389 63.361788 
L 596.65871 64.441513 
L 597.131031 63.11262 
L 597.603352 63.444843 
L 598.075673 63.029565 
L 598.547994 63.11262 
L 599.020315 63.610955 
L 599.492636 65.27207 
L 599.964957 63.610955 
L 600.437278 64.773736 
L 600.909599 62.946509 
L 601.38192 63.777066 
L 601.854241 63.11262 
L 602.326562 63.610955 
L 602.798883 64.856791 
L 603.271204 63.694011 
L 603.743525 63.943178 
L 604.215846 63.610955 
L 604.688167 63.029565 
L 605.160488 64.192345 
L 605.632809 63.943178 
L 606.10513 64.441513 
L 606.57745 64.192345 
L 607.049771 63.195676 
L 607.522092 63.278732 
L 607.994413 62.032895 
L 608.466734 63.195676 
L 608.939055 62.032895 
L 609.411376 63.610955 
L 609.883697 64.10929 
L 610.356018 64.026234 
L 610.828339 63.444843 
L 611.30066 63.860122 
L 611.772981 62.780397 
L 612.245302 62.282063 
L 612.717623 63.278732 
L 613.189944 63.278732 
L 613.662265 62.780397 
L 614.134586 62.863453 
L 614.606907 62.448174 
L 615.079228 63.278732 
L 615.551549 63.278732 
L 616.02387 63.777066 
L 616.496191 63.278732 
L 616.968512 63.777066 
L 617.440833 62.946509 
L 617.913154 63.029565 
L 618.385475 62.697341 
L 618.857796 62.946509 
L 619.330117 63.361788 
L 619.802438 65.189015 
L 620.274759 63.527899 
L 621.219401 64.524568 
L 621.691722 63.11262 
L 622.636364 63.694011 
L 622.636364 63.694011 
" style="fill:none;stroke:#ff7f0e;stroke-linecap:square;stroke-width:0.5;"/>
   </g>
   <g id="patch_3">
    <path d="M 90 315 
L 90 43.2 
" style="fill:none;stroke:#000000;stroke-linecap:square;stroke-linejoin:miter;stroke-width:0.8;"/>
   </g>
   <g id="patch_4">
    <path d="M 648 315 
L 648 43.2 
" style="fill:none;stroke:#000000;stroke-linecap:square;stroke-linejoin:miter;stroke-width:0.8;"/>
   </g>
   <g id="patch_5">
    <path d="M 90 315 
L 648 315 
" style="fill:none;stroke:#000000;stroke-linecap:square;stroke-linejoin:miter;stroke-width:0.8;"/>
   </g>
   <g id="patch_6">
    <path d="M 90 43.2 
L 648 43.2 
" style="fill:none;stroke:#000000;stroke-linecap:square;stroke-linejoin:miter;stroke-width:0.8;"/>
   </g>
   <g id="text_17">
    <!-- accuracy -->
    <g transform="translate(341.92875 37.2)scale(0.12 -0.12)">
     <use xlink:href="#DejaVuSans-97"/>
     <use x="61.279297" xlink:href="#DejaVuSans-99"/>
     <use x="116.259766" xlink:href="#DejaVuSans-99"/>
     <use x="171.240234" xlink:href="#DejaVuSans-117"/>
     <use x="234.619141" xlink:href="#DejaVuSans-114"/>
     <use x="275.732422" xlink:href="#DejaVuSans-97"/>
     <use x="337.011719" xlink:href="#DejaVuSans-99"/>
     <use x="391.992188" xlink:href="#DejaVuSans-121"/>
    </g>
   </g>
   <g id="legend_1">
    <g id="patch_7">
     <path d="M 97 80.55625 
L 169.153125 80.55625 
Q 171.153125 80.55625 171.153125 78.55625 
L 171.153125 50.2 
Q 171.153125 48.2 169.153125 48.2 
L 97 48.2 
Q 95 48.2 95 50.2 
L 95 78.55625 
Q 95 80.55625 97 80.55625 
z
" style="fill:#ffffff;opacity:0.8;stroke:#cccccc;stroke-linejoin:miter;"/>
    </g>
    <g id="line2d_31">
     <path d="M 99 56.298437 
L 119 56.298437 
" style="fill:none;stroke:#1f77b4;stroke-linecap:square;stroke-width:0.5;"/>
    </g>
    <g id="line2d_32"/>
    <g id="text_18">
     <!-- train -->
     <defs>
      <path d="M 18.3125 70.21875 
L 18.3125 54.6875 
L 36.8125 54.6875 
L 36.8125 47.703125 
L 18.3125 47.703125 
L 18.3125 18.015625 
Q 18.3125 11.328125 20.140625 9.421875 
Q 21.96875 7.515625 27.59375 7.515625 
L 36.8125 7.515625 
L 36.8125 0 
L 27.59375 0 
Q 17.1875 0 13.234375 3.875 
Q 9.28125 7.765625 9.28125 18.015625 
L 9.28125 47.703125 
L 2.6875 47.703125 
L 2.6875 54.6875 
L 9.28125 54.6875 
L 9.28125 70.21875 
z
" id="DejaVuSans-116"/>
      <path d="M 9.421875 54.6875 
L 18.40625 54.6875 
L 18.40625 0 
L 9.421875 0 
z
M 9.421875 75.984375 
L 18.40625 75.984375 
L 18.40625 64.59375 
L 9.421875 64.59375 
z
" id="DejaVuSans-105"/>
      <path d="M 54.890625 33.015625 
L 54.890625 0 
L 45.90625 0 
L 45.90625 32.71875 
Q 45.90625 40.484375 42.875 44.328125 
Q 39.84375 48.1875 33.796875 48.1875 
Q 26.515625 48.1875 22.3125 43.546875 
Q 18.109375 38.921875 18.109375 30.90625 
L 18.109375 0 
L 9.078125 0 
L 9.078125 54.6875 
L 18.109375 54.6875 
L 18.109375 46.1875 
Q 21.34375 51.125 25.703125 53.5625 
Q 30.078125 56 35.796875 56 
Q 45.21875 56 50.046875 50.171875 
Q 54.890625 44.34375 54.890625 33.015625 
z
" id="DejaVuSans-110"/>
     </defs>
     <g transform="translate(127 59.798437)scale(0.1 -0.1)">
      <use xlink:href="#DejaVuSans-116"/>
      <use x="39.208984" xlink:href="#DejaVuSans-114"/>
      <use x="80.322266" xlink:href="#DejaVuSans-97"/>
      <use x="141.601562" xlink:href="#DejaVuSans-105"/>
      <use x="169.384766" xlink:href="#DejaVuSans-110"/>
     </g>
    </g>
    <g id="line2d_33">
     <path d="M 99 70.976562 
L 119 70.976562 
" style="fill:none;stroke:#ff7f0e;stroke-linecap:square;stroke-width:0.5;"/>
    </g>
    <g id="line2d_34"/>
    <g id="text_19">
     <!-- validate -->
     <defs>
      <path d="M 2.984375 54.6875 
L 12.5 54.6875 
L 29.59375 8.796875 
L 46.6875 54.6875 
L 56.203125 54.6875 
L 35.6875 0 
L 23.484375 0 
z
" id="DejaVuSans-118"/>
      <path d="M 9.421875 75.984375 
L 18.40625 75.984375 
L 18.40625 0 
L 9.421875 0 
z
" id="DejaVuSans-108"/>
      <path d="M 45.40625 46.390625 
L 45.40625 75.984375 
L 54.390625 75.984375 
L 54.390625 0 
L 45.40625 0 
L 45.40625 8.203125 
Q 42.578125 3.328125 38.25 0.953125 
Q 33.9375 -1.421875 27.875 -1.421875 
Q 17.96875 -1.421875 11.734375 6.484375 
Q 5.515625 14.40625 5.515625 27.296875 
Q 5.515625 40.1875 11.734375 48.09375 
Q 17.96875 56 27.875 56 
Q 33.9375 56 38.25 53.625 
Q 42.578125 51.265625 45.40625 46.390625 
z
M 14.796875 27.296875 
Q 14.796875 17.390625 18.875 11.75 
Q 22.953125 6.109375 30.078125 6.109375 
Q 37.203125 6.109375 41.296875 11.75 
Q 45.40625 17.390625 45.40625 27.296875 
Q 45.40625 37.203125 41.296875 42.84375 
Q 37.203125 48.484375 30.078125 48.484375 
Q 22.953125 48.484375 18.875 42.84375 
Q 14.796875 37.203125 14.796875 27.296875 
z
" id="DejaVuSans-100"/>
     </defs>
     <g transform="translate(127 74.476562)scale(0.1 -0.1)">
      <use xlink:href="#DejaVuSans-118"/>
      <use x="59.179688" xlink:href="#DejaVuSans-97"/>
      <use x="120.458984" xlink:href="#DejaVuSans-108"/>
      <use x="148.242188" xlink:href="#DejaVuSans-105"/>
      <use x="176.025391" xlink:href="#DejaVuSans-100"/>
      <use x="239.501953" xlink:href="#DejaVuSans-97"/>
      <use x="300.78125" xlink:href="#DejaVuSans-116"/>
      <use x="339.990234" xlink:href="#DejaVuSans-101"/>
     </g>
    </g>
   </g>
  </g>
 </g>
 <defs>
  <clipPath id="p1f4f912e87">
   <rect height="271.8" width="558" x="90" y="43.2"/>
  </clipPath>
 </defs>
</svg>
