<?xml version="1.0" encoding="utf-8" standalone="no"?>
<!DOCTYPE svg PUBLIC "-//W3C//DTD SVG 1.1//EN"
  "http://www.w3.org/Graphics/SVG/1.1/DTD/svg11.dtd">
<!-- Created with matplotlib (https://matplotlib.org/) -->
<svg height="360pt" version="1.1" viewBox="0 0 720 360" width="720pt" xmlns="http://www.w3.org/2000/svg" xmlns:xlink="http://www.w3.org/1999/xlink">
 <defs>
  <style type="text/css">
*{stroke-linecap:butt;stroke-linejoin:round;}
  </style>
 </defs>
 <g id="figure_1">
  <g id="patch_1">
   <path d="M 0 360 
L 720 360 
L 720 0 
L 0 0 
z
" style="fill:#ffffff;"/>
  </g>
  <g id="axes_1">
   <g id="patch_2">
    <path d="M 90 315 
L 648 315 
L 648 43.2 
L 90 43.2 
z
" style="fill:#ffffff;"/>
   </g>
   <g id="matplotlib.axis_1">
    <g id="xtick_1">
     <g id="line2d_1">
      <path clip-path="url(#p1adc961feb)" d="M 115.363636 315 
L 115.363636 43.2 
" style="fill:none;stroke:#b0b0b0;stroke-linecap:square;stroke-width:0.8;"/>
     </g>
     <g id="line2d_2">
      <defs>
       <path d="M 0 0 
L 0 3.5 
" id="me9cd29efe0" style="stroke:#000000;stroke-width:0.8;"/>
      </defs>
      <g>
       <use style="stroke:#000000;stroke-width:0.8;" x="115.363636" xlink:href="#me9cd29efe0" y="315"/>
      </g>
     </g>
     <g id="text_1">
      <!-- 0 -->
      <defs>
       <path d="M 31.78125 66.40625 
Q 24.171875 66.40625 20.328125 58.90625 
Q 16.5 51.421875 16.5 36.375 
Q 16.5 21.390625 20.328125 13.890625 
Q 24.171875 6.390625 31.78125 6.390625 
Q 39.453125 6.390625 43.28125 13.890625 
Q 47.125 21.390625 47.125 36.375 
Q 47.125 51.421875 43.28125 58.90625 
Q 39.453125 66.40625 31.78125 66.40625 
z
M 31.78125 74.21875 
Q 44.046875 74.21875 50.515625 64.515625 
Q 56.984375 54.828125 56.984375 36.375 
Q 56.984375 17.96875 50.515625 8.265625 
Q 44.046875 -1.421875 31.78125 -1.421875 
Q 19.53125 -1.421875 13.0625 8.265625 
Q 6.59375 17.96875 6.59375 36.375 
Q 6.59375 54.828125 13.0625 64.515625 
Q 19.53125 74.21875 31.78125 74.21875 
z
" id="DejaVuSans-48"/>
      </defs>
      <g transform="translate(112.182386 329.598437)scale(0.1 -0.1)">
       <use xlink:href="#DejaVuSans-48"/>
      </g>
     </g>
    </g>
    <g id="xtick_2">
     <g id="line2d_3">
      <path clip-path="url(#p1adc961feb)" d="M 184.380334 315 
L 184.380334 43.2 
" style="fill:none;stroke:#b0b0b0;stroke-linecap:square;stroke-width:0.8;"/>
     </g>
     <g id="line2d_4">
      <g>
       <use style="stroke:#000000;stroke-width:0.8;" x="184.380334" xlink:href="#me9cd29efe0" y="315"/>
      </g>
     </g>
     <g id="text_2">
      <!-- 100 -->
      <defs>
       <path d="M 12.40625 8.296875 
L 28.515625 8.296875 
L 28.515625 63.921875 
L 10.984375 60.40625 
L 10.984375 69.390625 
L 28.421875 72.90625 
L 38.28125 72.90625 
L 38.28125 8.296875 
L 54.390625 8.296875 
L 54.390625 0 
L 12.40625 0 
z
" id="DejaVuSans-49"/>
      </defs>
      <g transform="translate(174.836584 329.598437)scale(0.1 -0.1)">
       <use xlink:href="#DejaVuSans-49"/>
       <use x="63.623047" xlink:href="#DejaVuSans-48"/>
       <use x="127.246094" xlink:href="#DejaVuSans-48"/>
      </g>
     </g>
    </g>
    <g id="xtick_3">
     <g id="line2d_5">
      <path clip-path="url(#p1adc961feb)" d="M 253.397032 315 
L 253.397032 43.2 
" style="fill:none;stroke:#b0b0b0;stroke-linecap:square;stroke-width:0.8;"/>
     </g>
     <g id="line2d_6">
      <g>
       <use style="stroke:#000000;stroke-width:0.8;" x="253.397032" xlink:href="#me9cd29efe0" y="315"/>
      </g>
     </g>
     <g id="text_3">
      <!-- 200 -->
      <defs>
       <path d="M 19.1875 8.296875 
L 53.609375 8.296875 
L 53.609375 0 
L 7.328125 0 
L 7.328125 8.296875 
Q 12.9375 14.109375 22.625 23.890625 
Q 32.328125 33.6875 34.8125 36.53125 
Q 39.546875 41.84375 41.421875 45.53125 
Q 43.3125 49.21875 43.3125 52.78125 
Q 43.3125 58.59375 39.234375 62.25 
Q 35.15625 65.921875 28.609375 65.921875 
Q 23.96875 65.921875 18.8125 64.3125 
Q 13.671875 62.703125 7.8125 59.421875 
L 7.8125 69.390625 
Q 13.765625 71.78125 18.9375 73 
Q 24.125 74.21875 28.421875 74.21875 
Q 39.75 74.21875 46.484375 68.546875 
Q 53.21875 62.890625 53.21875 53.421875 
Q 53.21875 48.921875 51.53125 44.890625 
Q 49.859375 40.875 45.40625 35.40625 
Q 44.1875 33.984375 37.640625 27.21875 
Q 31.109375 20.453125 19.1875 8.296875 
z
" id="DejaVuSans-50"/>
      </defs>
      <g transform="translate(243.853282 329.598437)scale(0.1 -0.1)">
       <use xlink:href="#DejaVuSans-50"/>
       <use x="63.623047" xlink:href="#DejaVuSans-48"/>
       <use x="127.246094" xlink:href="#DejaVuSans-48"/>
      </g>
     </g>
    </g>
    <g id="xtick_4">
     <g id="line2d_7">
      <path clip-path="url(#p1adc961feb)" d="M 322.413729 315 
L 322.413729 43.2 
" style="fill:none;stroke:#b0b0b0;stroke-linecap:square;stroke-width:0.8;"/>
     </g>
     <g id="line2d_8">
      <g>
       <use style="stroke:#000000;stroke-width:0.8;" x="322.413729" xlink:href="#me9cd29efe0" y="315"/>
      </g>
     </g>
     <g id="text_4">
      <!-- 300 -->
      <defs>
       <path d="M 40.578125 39.3125 
Q 47.65625 37.796875 51.625 33 
Q 55.609375 28.21875 55.609375 21.1875 
Q 55.609375 10.40625 48.1875 4.484375 
Q 40.765625 -1.421875 27.09375 -1.421875 
Q 22.515625 -1.421875 17.65625 -0.515625 
Q 12.796875 0.390625 7.625 2.203125 
L 7.625 11.71875 
Q 11.71875 9.328125 16.59375 8.109375 
Q 21.484375 6.890625 26.8125 6.890625 
Q 36.078125 6.890625 40.9375 10.546875 
Q 45.796875 14.203125 45.796875 21.1875 
Q 45.796875 27.640625 41.28125 31.265625 
Q 36.765625 34.90625 28.71875 34.90625 
L 20.21875 34.90625 
L 20.21875 43.015625 
L 29.109375 43.015625 
Q 36.375 43.015625 40.234375 45.921875 
Q 44.09375 48.828125 44.09375 54.296875 
Q 44.09375 59.90625 40.109375 62.90625 
Q 36.140625 65.921875 28.71875 65.921875 
Q 24.65625 65.921875 20.015625 65.03125 
Q 15.375 64.15625 9.8125 62.3125 
L 9.8125 71.09375 
Q 15.4375 72.65625 20.34375 73.4375 
Q 25.25 74.21875 29.59375 74.21875 
Q 40.828125 74.21875 47.359375 69.109375 
Q 53.90625 64.015625 53.90625 55.328125 
Q 53.90625 49.265625 50.4375 45.09375 
Q 46.96875 40.921875 40.578125 39.3125 
z
" id="DejaVuSans-51"/>
      </defs>
      <g transform="translate(312.869979 329.598437)scale(0.1 -0.1)">
       <use xlink:href="#DejaVuSans-51"/>
       <use x="63.623047" xlink:href="#DejaVuSans-48"/>
       <use x="127.246094" xlink:href="#DejaVuSans-48"/>
      </g>
     </g>
    </g>
    <g id="xtick_5">
     <g id="line2d_9">
      <path clip-path="url(#p1adc961feb)" d="M 391.430427 315 
L 391.430427 43.2 
" style="fill:none;stroke:#b0b0b0;stroke-linecap:square;stroke-width:0.8;"/>
     </g>
     <g id="line2d_10">
      <g>
       <use style="stroke:#000000;stroke-width:0.8;" x="391.430427" xlink:href="#me9cd29efe0" y="315"/>
      </g>
     </g>
     <g id="text_5">
      <!-- 400 -->
      <defs>
       <path d="M 37.796875 64.3125 
L 12.890625 25.390625 
L 37.796875 25.390625 
z
M 35.203125 72.90625 
L 47.609375 72.90625 
L 47.609375 25.390625 
L 58.015625 25.390625 
L 58.015625 17.1875 
L 47.609375 17.1875 
L 47.609375 0 
L 37.796875 0 
L 37.796875 17.1875 
L 4.890625 17.1875 
L 4.890625 26.703125 
z
" id="DejaVuSans-52"/>
      </defs>
      <g transform="translate(381.886677 329.598437)scale(0.1 -0.1)">
       <use xlink:href="#DejaVuSans-52"/>
       <use x="63.623047" xlink:href="#DejaVuSans-48"/>
       <use x="127.246094" xlink:href="#DejaVuSans-48"/>
      </g>
     </g>
    </g>
    <g id="xtick_6">
     <g id="line2d_11">
      <path clip-path="url(#p1adc961feb)" d="M 460.447124 315 
L 460.447124 43.2 
" style="fill:none;stroke:#b0b0b0;stroke-linecap:square;stroke-width:0.8;"/>
     </g>
     <g id="line2d_12">
      <g>
       <use style="stroke:#000000;stroke-width:0.8;" x="460.447124" xlink:href="#me9cd29efe0" y="315"/>
      </g>
     </g>
     <g id="text_6">
      <!-- 500 -->
      <defs>
       <path d="M 10.796875 72.90625 
L 49.515625 72.90625 
L 49.515625 64.59375 
L 19.828125 64.59375 
L 19.828125 46.734375 
Q 21.96875 47.46875 24.109375 47.828125 
Q 26.265625 48.1875 28.421875 48.1875 
Q 40.625 48.1875 47.75 41.5 
Q 54.890625 34.8125 54.890625 23.390625 
Q 54.890625 11.625 47.5625 5.09375 
Q 40.234375 -1.421875 26.90625 -1.421875 
Q 22.3125 -1.421875 17.546875 -0.640625 
Q 12.796875 0.140625 7.71875 1.703125 
L 7.71875 11.625 
Q 12.109375 9.234375 16.796875 8.0625 
Q 21.484375 6.890625 26.703125 6.890625 
Q 35.15625 6.890625 40.078125 11.328125 
Q 45.015625 15.765625 45.015625 23.390625 
Q 45.015625 31 40.078125 35.4375 
Q 35.15625 39.890625 26.703125 39.890625 
Q 22.75 39.890625 18.8125 39.015625 
Q 14.890625 38.140625 10.796875 36.28125 
z
" id="DejaVuSans-53"/>
      </defs>
      <g transform="translate(450.903374 329.598437)scale(0.1 -0.1)">
       <use xlink:href="#DejaVuSans-53"/>
       <use x="63.623047" xlink:href="#DejaVuSans-48"/>
       <use x="127.246094" xlink:href="#DejaVuSans-48"/>
      </g>
     </g>
    </g>
    <g id="xtick_7">
     <g id="line2d_13">
      <path clip-path="url(#p1adc961feb)" d="M 529.463822 315 
L 529.463822 43.2 
" style="fill:none;stroke:#b0b0b0;stroke-linecap:square;stroke-width:0.8;"/>
     </g>
     <g id="line2d_14">
      <g>
       <use style="stroke:#000000;stroke-width:0.8;" x="529.463822" xlink:href="#me9cd29efe0" y="315"/>
      </g>
     </g>
     <g id="text_7">
      <!-- 600 -->
      <defs>
       <path d="M 33.015625 40.375 
Q 26.375 40.375 22.484375 35.828125 
Q 18.609375 31.296875 18.609375 23.390625 
Q 18.609375 15.53125 22.484375 10.953125 
Q 26.375 6.390625 33.015625 6.390625 
Q 39.65625 6.390625 43.53125 10.953125 
Q 47.40625 15.53125 47.40625 23.390625 
Q 47.40625 31.296875 43.53125 35.828125 
Q 39.65625 40.375 33.015625 40.375 
z
M 52.59375 71.296875 
L 52.59375 62.3125 
Q 48.875 64.0625 45.09375 64.984375 
Q 41.3125 65.921875 37.59375 65.921875 
Q 27.828125 65.921875 22.671875 59.328125 
Q 17.53125 52.734375 16.796875 39.40625 
Q 19.671875 43.65625 24.015625 45.921875 
Q 28.375 48.1875 33.59375 48.1875 
Q 44.578125 48.1875 50.953125 41.515625 
Q 57.328125 34.859375 57.328125 23.390625 
Q 57.328125 12.15625 50.6875 5.359375 
Q 44.046875 -1.421875 33.015625 -1.421875 
Q 20.359375 -1.421875 13.671875 8.265625 
Q 6.984375 17.96875 6.984375 36.375 
Q 6.984375 53.65625 15.1875 63.9375 
Q 23.390625 74.21875 37.203125 74.21875 
Q 40.921875 74.21875 44.703125 73.484375 
Q 48.484375 72.75 52.59375 71.296875 
z
" id="DejaVuSans-54"/>
      </defs>
      <g transform="translate(519.920072 329.598437)scale(0.1 -0.1)">
       <use xlink:href="#DejaVuSans-54"/>
       <use x="63.623047" xlink:href="#DejaVuSans-48"/>
       <use x="127.246094" xlink:href="#DejaVuSans-48"/>
      </g>
     </g>
    </g>
    <g id="xtick_8">
     <g id="line2d_15">
      <path clip-path="url(#p1adc961feb)" d="M 598.480519 315 
L 598.480519 43.2 
" style="fill:none;stroke:#b0b0b0;stroke-linecap:square;stroke-width:0.8;"/>
     </g>
     <g id="line2d_16">
      <g>
       <use style="stroke:#000000;stroke-width:0.8;" x="598.480519" xlink:href="#me9cd29efe0" y="315"/>
      </g>
     </g>
     <g id="text_8">
      <!-- 700 -->
      <defs>
       <path d="M 8.203125 72.90625 
L 55.078125 72.90625 
L 55.078125 68.703125 
L 28.609375 0 
L 18.3125 0 
L 43.21875 64.59375 
L 8.203125 64.59375 
z
" id="DejaVuSans-55"/>
      </defs>
      <g transform="translate(588.936769 329.598437)scale(0.1 -0.1)">
       <use xlink:href="#DejaVuSans-55"/>
       <use x="63.623047" xlink:href="#DejaVuSans-48"/>
       <use x="127.246094" xlink:href="#DejaVuSans-48"/>
      </g>
     </g>
    </g>
    <g id="text_9">
     <!-- epoch -->
     <defs>
      <path d="M 56.203125 29.59375 
L 56.203125 25.203125 
L 14.890625 25.203125 
Q 15.484375 15.921875 20.484375 11.0625 
Q 25.484375 6.203125 34.421875 6.203125 
Q 39.59375 6.203125 44.453125 7.46875 
Q 49.3125 8.734375 54.109375 11.28125 
L 54.109375 2.78125 
Q 49.265625 0.734375 44.1875 -0.34375 
Q 39.109375 -1.421875 33.890625 -1.421875 
Q 20.796875 -1.421875 13.15625 6.1875 
Q 5.515625 13.8125 5.515625 26.8125 
Q 5.515625 40.234375 12.765625 48.109375 
Q 20.015625 56 32.328125 56 
Q 43.359375 56 49.78125 48.890625 
Q 56.203125 41.796875 56.203125 29.59375 
z
M 47.21875 32.234375 
Q 47.125 39.59375 43.09375 43.984375 
Q 39.0625 48.390625 32.421875 48.390625 
Q 24.90625 48.390625 20.390625 44.140625 
Q 15.875 39.890625 15.1875 32.171875 
z
" id="DejaVuSans-101"/>
      <path d="M 18.109375 8.203125 
L 18.109375 -20.796875 
L 9.078125 -20.796875 
L 9.078125 54.6875 
L 18.109375 54.6875 
L 18.109375 46.390625 
Q 20.953125 51.265625 25.265625 53.625 
Q 29.59375 56 35.59375 56 
Q 45.5625 56 51.78125 48.09375 
Q 58.015625 40.1875 58.015625 27.296875 
Q 58.015625 14.40625 51.78125 6.484375 
Q 45.5625 -1.421875 35.59375 -1.421875 
Q 29.59375 -1.421875 25.265625 0.953125 
Q 20.953125 3.328125 18.109375 8.203125 
z
M 48.6875 27.296875 
Q 48.6875 37.203125 44.609375 42.84375 
Q 40.53125 48.484375 33.40625 48.484375 
Q 26.265625 48.484375 22.1875 42.84375 
Q 18.109375 37.203125 18.109375 27.296875 
Q 18.109375 17.390625 22.1875 11.75 
Q 26.265625 6.109375 33.40625 6.109375 
Q 40.53125 6.109375 44.609375 11.75 
Q 48.6875 17.390625 48.6875 27.296875 
z
" id="DejaVuSans-112"/>
      <path d="M 30.609375 48.390625 
Q 23.390625 48.390625 19.1875 42.75 
Q 14.984375 37.109375 14.984375 27.296875 
Q 14.984375 17.484375 19.15625 11.84375 
Q 23.34375 6.203125 30.609375 6.203125 
Q 37.796875 6.203125 41.984375 11.859375 
Q 46.1875 17.53125 46.1875 27.296875 
Q 46.1875 37.015625 41.984375 42.703125 
Q 37.796875 48.390625 30.609375 48.390625 
z
M 30.609375 56 
Q 42.328125 56 49.015625 48.375 
Q 55.71875 40.765625 55.71875 27.296875 
Q 55.71875 13.875 49.015625 6.21875 
Q 42.328125 -1.421875 30.609375 -1.421875 
Q 18.84375 -1.421875 12.171875 6.21875 
Q 5.515625 13.875 5.515625 27.296875 
Q 5.515625 40.765625 12.171875 48.375 
Q 18.84375 56 30.609375 56 
z
" id="DejaVuSans-111"/>
      <path d="M 48.78125 52.59375 
L 48.78125 44.1875 
Q 44.96875 46.296875 41.140625 47.34375 
Q 37.3125 48.390625 33.40625 48.390625 
Q 24.65625 48.390625 19.8125 42.84375 
Q 14.984375 37.3125 14.984375 27.296875 
Q 14.984375 17.28125 19.8125 11.734375 
Q 24.65625 6.203125 33.40625 6.203125 
Q 37.3125 6.203125 41.140625 7.25 
Q 44.96875 8.296875 48.78125 10.40625 
L 48.78125 2.09375 
Q 45.015625 0.34375 40.984375 -0.53125 
Q 36.96875 -1.421875 32.421875 -1.421875 
Q 20.0625 -1.421875 12.78125 6.34375 
Q 5.515625 14.109375 5.515625 27.296875 
Q 5.515625 40.671875 12.859375 48.328125 
Q 20.21875 56 33.015625 56 
Q 37.15625 56 41.109375 55.140625 
Q 45.0625 54.296875 48.78125 52.59375 
z
" id="DejaVuSans-99"/>
      <path d="M 54.890625 33.015625 
L 54.890625 0 
L 45.90625 0 
L 45.90625 32.71875 
Q 45.90625 40.484375 42.875 44.328125 
Q 39.84375 48.1875 33.796875 48.1875 
Q 26.515625 48.1875 22.3125 43.546875 
Q 18.109375 38.921875 18.109375 30.90625 
L 18.109375 0 
L 9.078125 0 
L 9.078125 75.984375 
L 18.109375 75.984375 
L 18.109375 46.1875 
Q 21.34375 51.125 25.703125 53.5625 
Q 30.078125 56 35.796875 56 
Q 45.21875 56 50.046875 50.171875 
Q 54.890625 44.34375 54.890625 33.015625 
z
" id="DejaVuSans-104"/>
     </defs>
     <g transform="translate(353.771875 343.276563)scale(0.1 -0.1)">
      <use xlink:href="#DejaVuSans-101"/>
      <use x="61.523438" xlink:href="#DejaVuSans-112"/>
      <use x="125" xlink:href="#DejaVuSans-111"/>
      <use x="186.181641" xlink:href="#DejaVuSans-99"/>
      <use x="241.162109" xlink:href="#DejaVuSans-104"/>
     </g>
    </g>
   </g>
   <g id="matplotlib.axis_2">
    <g id="ytick_1">
     <g id="line2d_17">
      <path clip-path="url(#p1adc961feb)" d="M 90 307.305818 
L 648 307.305818 
" style="fill:none;stroke:#b0b0b0;stroke-linecap:square;stroke-width:0.8;"/>
     </g>
     <g id="line2d_18">
      <defs>
       <path d="M 0 0 
L -3.5 0 
" id="m1a2f8c0653" style="stroke:#000000;stroke-width:0.8;"/>
      </defs>
      <g>
       <use style="stroke:#000000;stroke-width:0.8;" x="90" xlink:href="#m1a2f8c0653" y="307.305818"/>
      </g>
     </g>
     <g id="text_10">
      <!-- 0.2 -->
      <defs>
       <path d="M 10.6875 12.40625 
L 21 12.40625 
L 21 0 
L 10.6875 0 
z
" id="DejaVuSans-46"/>
      </defs>
      <g transform="translate(67.096875 311.105036)scale(0.1 -0.1)">
       <use xlink:href="#DejaVuSans-48"/>
       <use x="63.623047" xlink:href="#DejaVuSans-46"/>
       <use x="95.410156" xlink:href="#DejaVuSans-50"/>
      </g>
     </g>
    </g>
    <g id="ytick_2">
     <g id="line2d_19">
      <path clip-path="url(#p1adc961feb)" d="M 90 270.689354 
L 648 270.689354 
" style="fill:none;stroke:#b0b0b0;stroke-linecap:square;stroke-width:0.8;"/>
     </g>
     <g id="line2d_20">
      <g>
       <use style="stroke:#000000;stroke-width:0.8;" x="90" xlink:href="#m1a2f8c0653" y="270.689354"/>
      </g>
     </g>
     <g id="text_11">
      <!-- 0.4 -->
      <g transform="translate(67.096875 274.488573)scale(0.1 -0.1)">
       <use xlink:href="#DejaVuSans-48"/>
       <use x="63.623047" xlink:href="#DejaVuSans-46"/>
       <use x="95.410156" xlink:href="#DejaVuSans-52"/>
      </g>
     </g>
    </g>
    <g id="ytick_3">
     <g id="line2d_21">
      <path clip-path="url(#p1adc961feb)" d="M 90 234.072891 
L 648 234.072891 
" style="fill:none;stroke:#b0b0b0;stroke-linecap:square;stroke-width:0.8;"/>
     </g>
     <g id="line2d_22">
      <g>
       <use style="stroke:#000000;stroke-width:0.8;" x="90" xlink:href="#m1a2f8c0653" y="234.072891"/>
      </g>
     </g>
     <g id="text_12">
      <!-- 0.6 -->
      <g transform="translate(67.096875 237.872109)scale(0.1 -0.1)">
       <use xlink:href="#DejaVuSans-48"/>
       <use x="63.623047" xlink:href="#DejaVuSans-46"/>
       <use x="95.410156" xlink:href="#DejaVuSans-54"/>
      </g>
     </g>
    </g>
    <g id="ytick_4">
     <g id="line2d_23">
      <path clip-path="url(#p1adc961feb)" d="M 90 197.456427 
L 648 197.456427 
" style="fill:none;stroke:#b0b0b0;stroke-linecap:square;stroke-width:0.8;"/>
     </g>
     <g id="line2d_24">
      <g>
       <use style="stroke:#000000;stroke-width:0.8;" x="90" xlink:href="#m1a2f8c0653" y="197.456427"/>
      </g>
     </g>
     <g id="text_13">
      <!-- 0.8 -->
      <defs>
       <path d="M 31.78125 34.625 
Q 24.75 34.625 20.71875 30.859375 
Q 16.703125 27.09375 16.703125 20.515625 
Q 16.703125 13.921875 20.71875 10.15625 
Q 24.75 6.390625 31.78125 6.390625 
Q 38.8125 6.390625 42.859375 10.171875 
Q 46.921875 13.96875 46.921875 20.515625 
Q 46.921875 27.09375 42.890625 30.859375 
Q 38.875 34.625 31.78125 34.625 
z
M 21.921875 38.8125 
Q 15.578125 40.375 12.03125 44.71875 
Q 8.5 49.078125 8.5 55.328125 
Q 8.5 64.0625 14.71875 69.140625 
Q 20.953125 74.21875 31.78125 74.21875 
Q 42.671875 74.21875 48.875 69.140625 
Q 55.078125 64.0625 55.078125 55.328125 
Q 55.078125 49.078125 51.53125 44.71875 
Q 48 40.375 41.703125 38.8125 
Q 48.828125 37.15625 52.796875 32.3125 
Q 56.78125 27.484375 56.78125 20.515625 
Q 56.78125 9.90625 50.3125 4.234375 
Q 43.84375 -1.421875 31.78125 -1.421875 
Q 19.734375 -1.421875 13.25 4.234375 
Q 6.78125 9.90625 6.78125 20.515625 
Q 6.78125 27.484375 10.78125 32.3125 
Q 14.796875 37.15625 21.921875 38.8125 
z
M 18.3125 54.390625 
Q 18.3125 48.734375 21.84375 45.5625 
Q 25.390625 42.390625 31.78125 42.390625 
Q 38.140625 42.390625 41.71875 45.5625 
Q 45.3125 48.734375 45.3125 54.390625 
Q 45.3125 60.0625 41.71875 63.234375 
Q 38.140625 66.40625 31.78125 66.40625 
Q 25.390625 66.40625 21.84375 63.234375 
Q 18.3125 60.0625 18.3125 54.390625 
z
" id="DejaVuSans-56"/>
      </defs>
      <g transform="translate(67.096875 201.255646)scale(0.1 -0.1)">
       <use xlink:href="#DejaVuSans-48"/>
       <use x="63.623047" xlink:href="#DejaVuSans-46"/>
       <use x="95.410156" xlink:href="#DejaVuSans-56"/>
      </g>
     </g>
    </g>
    <g id="ytick_5">
     <g id="line2d_25">
      <path clip-path="url(#p1adc961feb)" d="M 90 160.839964 
L 648 160.839964 
" style="fill:none;stroke:#b0b0b0;stroke-linecap:square;stroke-width:0.8;"/>
     </g>
     <g id="line2d_26">
      <g>
       <use style="stroke:#000000;stroke-width:0.8;" x="90" xlink:href="#m1a2f8c0653" y="160.839964"/>
      </g>
     </g>
     <g id="text_14">
      <!-- 1.0 -->
      <g transform="translate(67.096875 164.639183)scale(0.1 -0.1)">
       <use xlink:href="#DejaVuSans-49"/>
       <use x="63.623047" xlink:href="#DejaVuSans-46"/>
       <use x="95.410156" xlink:href="#DejaVuSans-48"/>
      </g>
     </g>
    </g>
    <g id="ytick_6">
     <g id="line2d_27">
      <path clip-path="url(#p1adc961feb)" d="M 90 124.2235 
L 648 124.2235 
" style="fill:none;stroke:#b0b0b0;stroke-linecap:square;stroke-width:0.8;"/>
     </g>
     <g id="line2d_28">
      <g>
       <use style="stroke:#000000;stroke-width:0.8;" x="90" xlink:href="#m1a2f8c0653" y="124.2235"/>
      </g>
     </g>
     <g id="text_15">
      <!-- 1.2 -->
      <g transform="translate(67.096875 128.022719)scale(0.1 -0.1)">
       <use xlink:href="#DejaVuSans-49"/>
       <use x="63.623047" xlink:href="#DejaVuSans-46"/>
       <use x="95.410156" xlink:href="#DejaVuSans-50"/>
      </g>
     </g>
    </g>
    <g id="ytick_7">
     <g id="line2d_29">
      <path clip-path="url(#p1adc961feb)" d="M 90 87.607037 
L 648 87.607037 
" style="fill:none;stroke:#b0b0b0;stroke-linecap:square;stroke-width:0.8;"/>
     </g>
     <g id="line2d_30">
      <g>
       <use style="stroke:#000000;stroke-width:0.8;" x="90" xlink:href="#m1a2f8c0653" y="87.607037"/>
      </g>
     </g>
     <g id="text_16">
      <!-- 1.4 -->
      <g transform="translate(67.096875 91.406256)scale(0.1 -0.1)">
       <use xlink:href="#DejaVuSans-49"/>
       <use x="63.623047" xlink:href="#DejaVuSans-46"/>
       <use x="95.410156" xlink:href="#DejaVuSans-52"/>
      </g>
     </g>
    </g>
    <g id="ytick_8">
     <g id="line2d_31">
      <path clip-path="url(#p1adc961feb)" d="M 90 50.990573 
L 648 50.990573 
" style="fill:none;stroke:#b0b0b0;stroke-linecap:square;stroke-width:0.8;"/>
     </g>
     <g id="line2d_32">
      <g>
       <use style="stroke:#000000;stroke-width:0.8;" x="90" xlink:href="#m1a2f8c0653" y="50.990573"/>
      </g>
     </g>
     <g id="text_17">
      <!-- 1.6 -->
      <g transform="translate(67.096875 54.789792)scale(0.1 -0.1)">
       <use xlink:href="#DejaVuSans-49"/>
       <use x="63.623047" xlink:href="#DejaVuSans-46"/>
       <use x="95.410156" xlink:href="#DejaVuSans-54"/>
      </g>
     </g>
    </g>
    <g id="text_18">
     <!-- loss -->
     <defs>
      <path d="M 9.421875 75.984375 
L 18.40625 75.984375 
L 18.40625 0 
L 9.421875 0 
z
" id="DejaVuSans-108"/>
      <path d="M 44.28125 53.078125 
L 44.28125 44.578125 
Q 40.484375 46.53125 36.375 47.5 
Q 32.28125 48.484375 27.875 48.484375 
Q 21.1875 48.484375 17.84375 46.4375 
Q 14.5 44.390625 14.5 40.28125 
Q 14.5 37.15625 16.890625 35.375 
Q 19.28125 33.59375 26.515625 31.984375 
L 29.59375 31.296875 
Q 39.15625 29.25 43.1875 25.515625 
Q 47.21875 21.78125 47.21875 15.09375 
Q 47.21875 7.46875 41.1875 3.015625 
Q 35.15625 -1.421875 24.609375 -1.421875 
Q 20.21875 -1.421875 15.453125 -0.5625 
Q 10.6875 0.296875 5.421875 2 
L 5.421875 11.28125 
Q 10.40625 8.6875 15.234375 7.390625 
Q 20.0625 6.109375 24.8125 6.109375 
Q 31.15625 6.109375 34.5625 8.28125 
Q 37.984375 10.453125 37.984375 14.40625 
Q 37.984375 18.0625 35.515625 20.015625 
Q 33.0625 21.96875 24.703125 23.78125 
L 21.578125 24.515625 
Q 13.234375 26.265625 9.515625 29.90625 
Q 5.8125 33.546875 5.8125 39.890625 
Q 5.8125 47.609375 11.28125 51.796875 
Q 16.75 56 26.8125 56 
Q 31.78125 56 36.171875 55.265625 
Q 40.578125 54.546875 44.28125 53.078125 
z
" id="DejaVuSans-115"/>
     </defs>
     <g transform="translate(61.017187 188.757812)rotate(-90)scale(0.1 -0.1)">
      <use xlink:href="#DejaVuSans-108"/>
      <use x="27.783203" xlink:href="#DejaVuSans-111"/>
      <use x="88.964844" xlink:href="#DejaVuSans-115"/>
      <use x="141.064453" xlink:href="#DejaVuSans-115"/>
     </g>
    </g>
   </g>
   <g id="line2d_33">
    <path clip-path="url(#p1adc961feb)" d="M 115.363636 55.554545 
L 116.053803 72.690468 
L 116.74397 74.393049 
L 118.124304 79.446083 
L 118.814471 80.855953 
L 119.504638 83.172295 
L 120.194805 82.569421 
L 121.575139 86.96614 
L 122.265306 86.127175 
L 122.955473 89.516699 
L 123.64564 89.658894 
L 124.335807 91.652677 
L 125.025974 90.778977 
L 125.716141 94.202851 
L 126.406308 95.10586 
L 127.096475 97.854056 
L 127.786642 99.770083 
L 128.476809 98.983452 
L 129.166976 100.707713 
L 129.857143 106.169497 
L 130.54731 108.305326 
L 131.237477 114.832668 
L 131.927644 118.918788 
L 132.617811 122.227926 
L 133.307978 129.513054 
L 134.688312 137.772704 
L 135.378479 144.928208 
L 136.068646 150.274429 
L 136.758813 154.677567 
L 137.44898 157.212254 
L 138.139147 165.021117 
L 138.829314 168.50037 
L 139.519481 172.61391 
L 140.209647 172.518966 
L 140.899814 180.033888 
L 141.589981 178.754412 
L 142.280148 182.944382 
L 142.970315 185.27476 
L 143.660482 189.890134 
L 144.350649 190.183496 
L 145.730983 195.353454 
L 146.42115 200.258779 
L 147.111317 199.051833 
L 147.801484 200.722637 
L 149.871985 208.537605 
L 150.562152 209.13099 
L 151.252319 211.026858 
L 151.942486 214.243606 
L 152.632653 212.132537 
L 153.32282 217.410651 
L 154.012987 219.040576 
L 154.703154 219.507194 
L 155.393321 221.770257 
L 156.083488 220.016388 
L 156.773655 221.335615 
L 157.463822 224.09424 
L 158.153989 223.669031 
L 158.844156 226.296527 
L 159.534323 226.761875 
L 160.22449 225.517966 
L 160.914657 227.342855 
L 161.604824 229.861432 
L 162.294991 230.592303 
L 162.985158 231.074639 
L 163.675325 232.498255 
L 164.365492 234.344069 
L 165.055659 237.752358 
L 165.745826 234.725568 
L 166.435993 236.279307 
L 167.12616 238.561163 
L 167.816327 236.596113 
L 168.506494 236.46906 
L 169.19666 238.023656 
L 169.886827 241.035 
L 170.576994 241.104984 
L 171.267161 239.914369 
L 171.957328 242.22402 
L 172.647495 240.691668 
L 173.337662 241.331796 
L 174.027829 244.525151 
L 174.717996 244.548177 
L 175.408163 243.408286 
L 176.09833 245.814659 
L 176.788497 245.244933 
L 177.478664 248.93404 
L 178.168831 248.058869 
L 178.858998 247.413195 
L 179.549165 247.440873 
L 181.619666 250.601436 
L 182.309833 248.197107 
L 183 249.277169 
L 183.690167 247.611111 
L 185.070501 253.413568 
L 185.760668 251.292789 
L 186.450835 252.92434 
L 187.141002 253.435211 
L 187.831169 253.750679 
L 189.211503 255.884291 
L 189.90167 254.446971 
L 190.591837 256.100212 
L 191.282004 255.901498 
L 191.972171 255.129952 
L 192.662338 255.968781 
L 193.352505 257.276932 
L 194.732839 258.466145 
L 196.113173 255.935544 
L 196.80334 257.735337 
L 197.493506 256.159184 
L 198.183673 261.551851 
L 198.87384 258.261691 
L 199.564007 259.329154 
L 200.254174 262.3688 
L 200.944341 259.954455 
L 201.634508 260.948528 
L 202.324675 260.776873 
L 203.014842 262.890328 
L 203.705009 262.230295 
L 204.395176 260.355982 
L 205.77551 265.254367 
L 206.465677 264.33602 
L 207.155844 263.631415 
L 207.846011 265.555252 
L 208.536178 262.935163 
L 209.226345 264.275139 
L 209.916512 263.499749 
L 210.606679 262.108121 
L 211.296846 265.057394 
L 211.987013 263.409399 
L 212.67718 265.987031 
L 213.367347 263.261627 
L 214.057514 263.490717 
L 214.747681 266.68052 
L 215.437848 266.953455 
L 216.128015 265.034687 
L 216.818182 263.779081 
L 217.508349 267.482183 
L 218.198516 262.258148 
L 218.888683 267.001287 
L 219.57885 264.051984 
L 220.269017 268.968739 
L 220.959184 265.686465 
L 221.649351 265.190621 
L 222.339518 267.109643 
L 223.029685 266.278644 
L 223.719852 268.239611 
L 224.410019 265.094239 
L 225.100186 268.682361 
L 225.790353 268.116589 
L 226.480519 267.971814 
L 227.170686 265.4664 
L 227.860853 268.815805 
L 228.55102 266.874579 
L 229.241187 268.335158 
L 229.931354 266.515253 
L 230.621521 267.789664 
L 231.311688 267.351329 
L 232.001855 271.439203 
L 232.692022 269.780695 
L 233.382189 271.262631 
L 234.072356 269.729515 
L 234.762523 270.153659 
L 235.45269 270.738744 
L 236.142857 270.077251 
L 236.833024 268.603306 
L 237.523191 270.625456 
L 238.213358 269.415678 
L 238.903525 267.859282 
L 239.593692 270.705379 
L 240.283859 269.632609 
L 240.974026 272.599807 
L 241.664193 274.11588 
L 242.35436 270.928804 
L 243.044527 273.016574 
L 243.734694 271.079305 
L 244.424861 273.086154 
L 245.115028 273.102021 
L 245.805195 269.304291 
L 246.495362 266.774981 
L 247.185529 271.602598 
L 247.875696 271.973683 
L 248.565863 273.729868 
L 249.25603 272.483905 
L 249.946197 272.830913 
L 250.636364 269.325687 
L 251.326531 273.979094 
L 252.016698 272.137952 
L 252.706865 276.489991 
L 254.087199 273.381599 
L 254.777365 273.511176 
L 255.467532 273.919714 
L 256.157699 277.129387 
L 256.847866 275.912979 
L 257.538033 273.226764 
L 258.918367 273.760931 
L 259.608534 275.95082 
L 260.298701 272.740147 
L 260.988868 275.404424 
L 261.679035 274.858052 
L 262.369202 279.138225 
L 263.059369 274.048953 
L 263.749536 274.880163 
L 264.439703 273.951854 
L 265.12987 275.315456 
L 265.820037 275.362808 
L 266.510204 272.756899 
L 267.200371 276.784702 
L 267.890538 271.08485 
L 268.580705 275.841329 
L 269.270872 274.682901 
L 269.961039 275.598934 
L 270.651206 276.969932 
L 271.341373 275.769356 
L 272.03154 276.995675 
L 272.721707 276.36492 
L 273.411874 276.286707 
L 274.102041 277.369712 
L 274.792208 275.019751 
L 275.482375 274.312459 
L 276.172542 276.471857 
L 276.862709 275.706682 
L 277.552876 278.054681 
L 278.243043 278.35533 
L 278.93321 275.578053 
L 279.623377 275.380041 
L 280.313544 277.917735 
L 281.003711 278.54585 
L 281.693878 277.648927 
L 282.384045 280.267617 
L 283.074212 277.481561 
L 283.764378 281.526296 
L 284.454545 279.752371 
L 285.834879 279.787582 
L 286.525046 275.258978 
L 287.215213 276.678854 
L 288.595547 280.332077 
L 289.285714 277.334469 
L 289.975881 280.036024 
L 290.666048 276.904315 
L 291.356215 280.783273 
L 292.046382 278.984582 
L 292.736549 279.873624 
L 293.426716 277.807509 
L 294.116883 277.639266 
L 294.80705 280.378651 
L 295.497217 279.400051 
L 296.877551 279.785795 
L 297.567718 275.660448 
L 298.257885 279.820133 
L 298.948052 280.550572 
L 299.638219 279.318341 
L 300.328386 276.705184 
L 301.018553 283.544558 
L 301.70872 277.663683 
L 302.398887 280.419997 
L 303.089054 281.251996 
L 303.779221 280.646717 
L 304.469388 280.41357 
L 305.159555 279.585551 
L 305.849722 282.637256 
L 306.539889 280.788047 
L 307.230056 280.464748 
L 307.920223 280.430241 
L 308.61039 279.274824 
L 309.300557 282.073926 
L 309.990724 281.3012 
L 310.680891 283.152507 
L 311.371058 281.347357 
L 312.061224 280.328566 
L 312.751391 282.942831 
L 313.441558 281.682489 
L 314.131725 282.537715 
L 314.821892 281.274711 
L 315.512059 282.689766 
L 316.202226 281.388499 
L 316.892393 283.977061 
L 318.272727 279.661846 
L 318.962894 279.780116 
L 319.653061 281.044457 
L 320.343228 281.03546 
L 321.033395 284.799828 
L 321.723562 281.751419 
L 322.413729 280.467698 
L 323.103896 284.60299 
L 323.794063 285.031255 
L 324.48423 283.420346 
L 325.174397 284.982825 
L 325.864564 282.65994 
L 326.554731 282.777688 
L 327.935065 280.62795 
L 328.625232 281.869486 
L 329.315399 279.881062 
L 330.005566 284.615286 
L 330.695733 280.198619 
L 331.3859 285.194374 
L 332.076067 280.748901 
L 332.766234 280.741701 
L 333.456401 282.688612 
L 334.146568 282.691094 
L 334.836735 284.635265 
L 335.526902 281.950655 
L 336.217069 282.373017 
L 336.907236 281.923867 
L 337.597403 281.024511 
L 338.977737 284.356913 
L 339.667904 285.062957 
L 340.358071 283.66718 
L 341.048237 283.72331 
L 341.738404 284.044697 
L 342.428571 283.439044 
L 343.118738 286.375399 
L 343.808905 286.707379 
L 344.499072 282.757931 
L 345.189239 285.43196 
L 345.879406 284.997977 
L 346.569573 282.799642 
L 347.25974 285.755117 
L 347.949907 284.683351 
L 348.640074 284.237704 
L 349.330241 284.553891 
L 350.020408 282.767175 
L 350.710575 283.211541 
L 351.400742 284.664284 
L 352.090909 283.999312 
L 352.781076 283.519774 
L 353.471243 284.247306 
L 354.16141 283.052461 
L 354.851577 287.655553 
L 355.541744 283.330198 
L 356.231911 283.998698 
L 356.922078 283.062512 
L 357.612245 287.67 
L 358.302412 285.541321 
L 358.992579 286.245183 
L 359.682746 284.916422 
L 360.372913 285.591775 
L 361.06308 287.074507 
L 361.753247 285.018418 
L 362.443414 288.188139 
L 363.133581 285.54574 
L 363.823748 283.832657 
L 364.513915 284.454183 
L 365.204082 284.334011 
L 366.584416 286.981858 
L 367.274583 284.215666 
L 367.96475 286.83805 
L 368.654917 285.916014 
L 369.345083 284.767655 
L 370.03525 288.508721 
L 370.725417 284.398724 
L 371.415584 287.499862 
L 372.105751 285.178344 
L 372.795918 286.149361 
L 373.486085 289.218803 
L 374.176252 284.691063 
L 374.866419 287.739376 
L 375.556586 289.847368 
L 376.246753 287.531097 
L 376.93692 287.315063 
L 377.627087 287.694458 
L 378.317254 286.117508 
L 379.007421 289.138532 
L 379.697588 288.969182 
L 380.387755 286.33839 
L 381.077922 287.159275 
L 381.768089 287.637429 
L 382.458256 286.793683 
L 383.148423 288.647659 
L 383.83859 289.951861 
L 384.528757 286.061044 
L 385.218924 284.596221 
L 386.599258 289.479691 
L 387.289425 286.243638 
L 387.979592 287.227281 
L 388.669759 286.465034 
L 389.359926 285.052902 
L 390.050093 285.146764 
L 390.74026 288.630355 
L 391.430427 288.702552 
L 392.120594 285.636155 
L 392.810761 287.982351 
L 394.191095 290.017197 
L 394.881262 288.933373 
L 395.571429 286.817555 
L 396.261596 288.116001 
L 396.951763 286.786768 
L 397.641929 288.2354 
L 398.332096 288.161549 
L 399.022263 290.564768 
L 399.71243 289.156968 
L 400.402597 290.443188 
L 401.092764 289.036898 
L 401.782931 288.038026 
L 402.473098 288.890506 
L 403.163265 288.246633 
L 403.853432 286.976468 
L 404.543599 285.225075 
L 405.233766 289.675988 
L 405.923933 288.014547 
L 406.6141 289.131054 
L 407.994434 287.180593 
L 408.684601 291.482889 
L 409.374768 289.20931 
L 410.064935 290.591962 
L 410.755102 289.84909 
L 411.445269 291.574076 
L 412.135436 291.280898 
L 412.825603 287.548257 
L 413.51577 290.325582 
L 414.205937 290.411985 
L 414.896104 287.044902 
L 415.586271 289.519966 
L 416.276438 288.014837 
L 416.966605 291.114314 
L 417.656772 288.255945 
L 418.346939 290.35593 
L 419.037106 289.075407 
L 420.41744 290.265431 
L 421.107607 287.562261 
L 421.797774 289.618167 
L 422.487941 289.063124 
L 423.178108 288.776253 
L 423.868275 287.161907 
L 424.558442 289.838905 
L 425.248609 287.730039 
L 425.938776 289.56105 
L 426.628942 289.691503 
L 427.319109 288.050806 
L 428.009276 290.939709 
L 428.699443 289.367637 
L 429.38961 289.016337 
L 430.079777 289.717317 
L 430.769944 290.644984 
L 431.460111 290.010569 
L 432.150278 288.665562 
L 432.840445 291.137189 
L 433.530612 291.822546 
L 434.220779 290.947977 
L 434.910946 292.210406 
L 435.601113 290.57841 
L 436.29128 289.603456 
L 436.981447 287.584215 
L 437.671614 288.381871 
L 439.051948 291.305673 
L 439.742115 290.343264 
L 440.432282 289.800237 
L 441.122449 292.102494 
L 441.812616 291.280108 
L 442.502783 292.183196 
L 443.19295 293.669818 
L 443.883117 289.635714 
L 444.573284 292.759806 
L 445.263451 291.222025 
L 445.953618 294.320756 
L 446.643785 289.393899 
L 447.333952 293.242293 
L 448.714286 291.018749 
L 449.404453 292.196926 
L 450.09462 291.780659 
L 450.784787 293.430487 
L 452.165121 289.80246 
L 452.855288 290.881654 
L 453.545455 290.884636 
L 454.235622 292.42838 
L 454.925788 293.357017 
L 455.615955 290.745602 
L 456.306122 292.227131 
L 456.996289 290.836283 
L 457.686456 294.083663 
L 458.376623 290.632169 
L 459.06679 291.979928 
L 459.756957 290.970434 
L 460.447124 290.861812 
L 461.137291 291.370344 
L 461.827458 292.514826 
L 462.517625 289.727443 
L 463.207792 292.042142 
L 463.897959 295.391336 
L 464.588126 291.773824 
L 465.278293 292.747797 
L 465.96846 292.422466 
L 466.658627 295.349129 
L 467.348794 292.357558 
L 468.038961 292.807195 
L 468.729128 294.188397 
L 469.419295 290.82535 
L 470.109462 290.205761 
L 470.799629 291.643151 
L 471.489796 293.899034 
L 473.560297 294.612088 
L 474.250464 296.650856 
L 474.940631 294.223428 
L 475.630798 294.413627 
L 476.320965 290.958587 
L 477.011132 293.50925 
L 477.701299 292.400151 
L 478.391466 294.386503 
L 479.081633 292.559123 
L 479.7718 293.538159 
L 480.461967 290.464713 
L 481.152134 291.408699 
L 481.842301 294.176734 
L 482.532468 293.496774 
L 483.222635 294.178377 
L 483.912801 294.636332 
L 484.602968 295.417923 
L 485.293135 294.852059 
L 485.983302 293.774676 
L 486.673469 294.224919 
L 487.363636 292.123216 
L 488.053803 295.325775 
L 488.74397 293.269363 
L 489.434137 290.237739 
L 490.124304 290.222299 
L 490.814471 295.83672 
L 491.504638 290.835363 
L 492.194805 294.319918 
L 492.884972 294.212377 
L 493.575139 294.722162 
L 494.265306 293.693899 
L 494.955473 295.216644 
L 495.64564 291.964924 
L 496.335807 293.983313 
L 497.025974 293.927898 
L 498.406308 290.586751 
L 499.096475 293.671041 
L 499.786642 291.709383 
L 500.476809 293.632387 
L 501.166976 293.944848 
L 501.857143 292.361745 
L 502.54731 294.594014 
L 503.237477 292.677253 
L 503.927644 293.833905 
L 504.617811 294.364647 
L 505.307978 292.022586 
L 505.998145 294.70502 
L 506.688312 292.327723 
L 507.378479 294.056501 
L 508.068646 294.378085 
L 508.758813 292.846713 
L 509.44898 291.935973 
L 510.139147 291.915163 
L 511.519481 296.853545 
L 512.899814 297.467791 
L 513.589981 294.423645 
L 514.280148 293.743523 
L 514.970315 295.842937 
L 515.660482 295.495239 
L 516.350649 296.776387 
L 517.040816 295.918631 
L 517.730983 295.490806 
L 518.42115 292.965592 
L 519.111317 294.342914 
L 519.801484 295.017629 
L 520.491651 294.49838 
L 521.181818 293.133222 
L 521.871985 296.584919 
L 523.252319 294.837669 
L 523.942486 296.69073 
L 524.632653 296.277214 
L 525.32282 293.574565 
L 526.012987 293.695275 
L 526.703154 297.080259 
L 527.393321 293.941609 
L 528.083488 298.648659 
L 528.773655 294.509465 
L 529.463822 292.518992 
L 530.153989 297.031928 
L 530.844156 295.246322 
L 532.22449 296.586757 
L 532.914657 294.842591 
L 533.604824 294.648595 
L 534.294991 296.728888 
L 534.985158 296.580524 
L 535.675325 294.415579 
L 536.365492 297.104716 
L 537.055659 295.271933 
L 537.745826 294.953563 
L 538.435993 295.736706 
L 539.12616 294.995882 
L 540.506494 296.475425 
L 541.19666 296.779122 
L 541.886827 293.896101 
L 542.576994 296.34187 
L 543.267161 294.133249 
L 543.957328 296.549657 
L 544.647495 297.692069 
L 545.337662 297.803415 
L 546.027829 295.085031 
L 546.717996 297.42529 
L 547.408163 295.370988 
L 548.09833 296.436374 
L 548.788497 295.429569 
L 549.478664 293.922999 
L 550.168831 296.155205 
L 550.858998 294.870197 
L 551.549165 294.294866 
L 552.239332 298.556231 
L 552.929499 297.522788 
L 553.619666 297.781949 
L 554.309833 298.595435 
L 555 294.268493 
L 555.690167 296.332618 
L 556.380334 296.237274 
L 557.070501 296.289428 
L 557.760668 297.594031 
L 558.450835 295.106591 
L 559.141002 294.608877 
L 559.831169 298.849106 
L 560.521336 299.532284 
L 561.211503 297.341137 
L 561.90167 297.572819 
L 562.591837 298.180859 
L 563.282004 297.811875 
L 563.972171 296.230353 
L 564.662338 297.564218 
L 565.352505 295.988186 
L 566.042672 295.644339 
L 566.732839 294.328617 
L 567.423006 294.557848 
L 568.113173 295.014886 
L 568.80334 298.66143 
L 570.183673 295.411971 
L 570.87384 295.255066 
L 571.564007 297.057248 
L 572.254174 295.94918 
L 572.944341 295.984739 
L 573.634508 295.125105 
L 574.324675 297.67297 
L 575.014842 297.548899 
L 575.705009 295.16938 
L 576.395176 298.096858 
L 577.085343 297.974339 
L 577.77551 298.808284 
L 578.465677 296.653744 
L 579.155844 298.584549 
L 579.846011 297.247638 
L 580.536178 296.696185 
L 581.226345 299.768852 
L 581.916512 296.584959 
L 582.606679 296.217225 
L 583.296846 297.210883 
L 583.987013 296.569126 
L 584.67718 297.208773 
L 585.367347 296.260416 
L 586.057514 296.037073 
L 586.747681 299.279556 
L 587.437848 296.283999 
L 588.128015 294.740214 
L 588.818182 297.814459 
L 589.508349 300.086912 
L 590.198516 296.650771 
L 590.888683 298.286016 
L 591.57885 298.048876 
L 592.269017 297.033739 
L 592.959184 298.250199 
L 593.649351 294.820347 
L 594.339518 297.025518 
L 595.029685 297.846617 
L 595.719852 298.25364 
L 596.410019 296.784591 
L 597.100186 296.671647 
L 598.480519 298.963379 
L 599.170686 298.455186 
L 599.860853 298.613241 
L 600.55102 297.911966 
L 601.241187 297.490493 
L 601.931354 295.99468 
L 602.621521 300.964082 
L 603.311688 299.263759 
L 604.001855 297.156155 
L 604.692022 300.623387 
L 606.072356 297.616953 
L 606.762523 299.490428 
L 607.45269 296.753015 
L 608.142857 299.381294 
L 608.833024 300.154674 
L 609.523191 296.818523 
L 610.213358 296.673536 
L 610.903525 301.940487 
L 611.593692 297.47443 
L 612.283859 298.559492 
L 612.974026 299.355084 
L 613.664193 298.660713 
L 614.35436 301.813924 
L 615.044527 296.729708 
L 615.734694 301.198505 
L 616.424861 294.990127 
L 617.115028 299.89779 
L 617.805195 298.118923 
L 618.495362 300.725831 
L 619.185529 300.762954 
L 619.875696 302.645455 
L 620.565863 299.668575 
L 621.25603 298.645129 
L 621.946197 299.147347 
L 622.636364 298.040926 
L 622.636364 298.040926 
" style="fill:none;stroke:#1f77b4;stroke-linecap:square;stroke-width:0.5;"/>
   </g>
   <g id="line2d_34">
    <path clip-path="url(#p1adc961feb)" d="M 115.363636 64.924815 
L 116.053803 74.188086 
L 116.74397 73.498985 
L 117.434137 80.005878 
L 118.124304 77.332462 
L 118.814471 80.504626 
L 119.504638 80.481902 
L 121.575139 84.747518 
L 122.265306 85.946637 
L 122.955473 85.612173 
L 123.64564 87.879209 
L 124.335807 90.971997 
L 125.025974 88.754234 
L 126.406308 93.756667 
L 127.786642 96.390491 
L 128.476809 98.861632 
L 129.166976 100.536902 
L 129.857143 106.636972 
L 130.54731 109.840037 
L 131.237477 117.091275 
L 131.927644 117.032228 
L 132.617811 122.706912 
L 133.998145 135.729029 
L 135.378479 144.588476 
L 136.758813 158.235604 
L 137.44898 159.510662 
L 138.829314 170.31127 
L 139.519481 174.255104 
L 140.209647 177.250884 
L 140.899814 178.397652 
L 141.589981 182.794485 
L 142.280148 185.723575 
L 142.970315 187.940446 
L 143.660482 191.214093 
L 144.350649 193.800387 
L 145.040816 193.632135 
L 145.730983 199.950938 
L 146.42115 199.648078 
L 147.111317 203.023578 
L 147.801484 203.563067 
L 148.491651 202.456339 
L 149.181818 206.922754 
L 149.871985 209.252682 
L 150.562152 213.232953 
L 151.252319 212.510066 
L 151.942486 215.664881 
L 152.632653 214.963844 
L 153.32282 214.736367 
L 154.012987 219.646285 
L 154.703154 220.716547 
L 155.393321 222.280166 
L 156.083488 222.68345 
L 156.773655 225.192829 
L 157.463822 225.321542 
L 158.844156 229.792566 
L 159.534323 229.214861 
L 160.22449 228.870029 
L 160.914657 229.213069 
L 161.604824 233.703982 
L 162.294991 231.295263 
L 162.985158 233.952107 
L 163.675325 232.353449 
L 164.365492 234.966118 
L 165.055659 235.535676 
L 165.745826 239.556265 
L 166.435993 238.95616 
L 167.12616 239.999449 
L 167.816327 239.237409 
L 168.506494 242.720605 
L 169.886827 242.463513 
L 170.576994 243.954069 
L 171.267161 246.080298 
L 171.957328 243.950824 
L 172.647495 245.378646 
L 173.337662 244.697366 
L 174.027829 248.039973 
L 174.717996 247.181718 
L 175.408163 251.126182 
L 176.788497 248.078472 
L 177.478664 249.536149 
L 178.168831 251.322034 
L 178.858998 247.762759 
L 179.549165 251.581772 
L 180.239332 250.182316 
L 180.929499 253.423117 
L 181.619666 250.6353 
L 182.309833 256.038806 
L 183 255.88966 
L 183.690167 254.500048 
L 184.380334 253.894132 
L 185.070501 256.357236 
L 185.760668 256.778506 
L 186.450835 256.250605 
L 187.141002 257.388166 
L 187.831169 259.832714 
L 188.521336 255.467497 
L 189.211503 260.258356 
L 190.591837 258.344811 
L 191.282004 257.755081 
L 191.972171 258.627995 
L 192.662338 259.315577 
L 193.352505 258.20432 
L 194.732839 263.934519 
L 195.423006 261.688192 
L 196.113173 262.10559 
L 196.80334 263.425804 
L 197.493506 263.393127 
L 198.183673 263.052561 
L 198.87384 263.489617 
L 199.564007 265.463606 
L 200.254174 261.839062 
L 200.944341 264.567666 
L 201.634508 264.089151 
L 202.324675 265.201709 
L 203.014842 265.788873 
L 203.705009 264.046679 
L 204.395176 265.537446 
L 205.085343 267.657635 
L 205.77551 265.563795 
L 206.465677 267.296792 
L 207.155844 266.62399 
L 207.846011 266.267529 
L 208.536178 267.627024 
L 209.916512 266.079086 
L 210.606679 270.141466 
L 211.296846 269.365872 
L 211.987013 270.950025 
L 212.67718 267.71933 
L 213.367347 272.10953 
L 214.057514 270.728805 
L 214.747681 272.804844 
L 215.437848 268.671204 
L 216.128015 272.061211 
L 216.818182 270.422785 
L 217.508349 270.460895 
L 218.198516 272.17197 
L 218.888683 269.268156 
L 219.57885 274.123172 
L 220.269017 274.627742 
L 220.959184 272.790974 
L 221.649351 271.613464 
L 222.339518 271.231608 
L 223.029685 273.973375 
L 223.719852 270.994491 
L 224.410019 272.05209 
L 225.100186 271.752183 
L 225.790353 272.264499 
L 226.480519 272.133087 
L 227.170686 274.07805 
L 227.860853 271.285706 
L 228.55102 274.081034 
L 229.241187 272.298609 
L 229.931354 272.933548 
L 230.621521 271.070101 
L 231.311688 272.697586 
L 232.001855 274.751857 
L 232.692022 273.773489 
L 233.382189 273.41831 
L 234.072356 275.624011 
L 234.762523 273.889252 
L 235.45269 275.771231 
L 236.142857 273.358984 
L 236.833024 276.159049 
L 237.523191 274.144865 
L 238.213358 275.599333 
L 238.903525 274.152889 
L 239.593692 276.241727 
L 240.283859 274.704121 
L 240.974026 277.132301 
L 241.664193 276.469912 
L 242.35436 273.781819 
L 243.044527 276.44017 
L 243.734694 277.200488 
L 244.424861 275.896925 
L 245.115028 277.122298 
L 245.805195 277.272068 
L 246.495362 276.466064 
L 247.185529 276.149922 
L 247.875696 274.284413 
L 248.565863 274.689949 
L 249.25603 275.519254 
L 249.946197 277.227202 
L 250.636364 274.12623 
L 251.326531 275.436447 
L 252.016698 275.689988 
L 252.706865 278.160525 
L 253.397032 277.045006 
L 254.087199 276.557009 
L 254.777365 278.949278 
L 255.467532 277.78822 
L 256.157699 275.223229 
L 256.847866 277.85105 
L 257.538033 279.292979 
L 258.2282 276.941426 
L 258.918367 278.733344 
L 259.608534 278.332491 
L 260.298701 277.133747 
L 260.988868 278.488116 
L 261.679035 277.67813 
L 262.369202 274.894863 
L 263.059369 277.81866 
L 263.749536 277.356175 
L 264.439703 278.292519 
L 265.12987 278.352856 
L 265.820037 278.237494 
L 266.510204 278.781835 
L 267.200371 278.032731 
L 267.890538 278.334254 
L 268.580705 278.285701 
L 269.270872 279.301698 
L 269.961039 277.117089 
L 270.651206 277.375094 
L 271.341373 280.697998 
L 272.03154 278.551817 
L 272.721707 280.264095 
L 273.411874 278.864582 
L 274.102041 278.903048 
L 274.792208 282.795907 
L 275.482375 279.757134 
L 276.172542 280.239035 
L 276.862709 282.811952 
L 277.552876 281.391831 
L 278.243043 279.379686 
L 278.93321 280.428444 
L 279.623377 278.190787 
L 280.313544 282.473094 
L 281.003711 280.786115 
L 281.693878 280.890676 
L 282.384045 279.799354 
L 283.074212 280.277422 
L 283.764378 282.301551 
L 284.454545 280.715132 
L 285.144712 281.287699 
L 285.834879 282.289692 
L 286.525046 279.675647 
L 287.215213 280.87262 
L 287.90538 281.840482 
L 288.595547 278.994921 
L 289.285714 281.185869 
L 289.975881 280.159645 
L 290.666048 280.415153 
L 292.046382 281.457046 
L 292.736549 279.597619 
L 293.426716 281.103354 
L 294.116883 280.307192 
L 294.80705 278.819941 
L 295.497217 282.944947 
L 296.187384 280.620797 
L 296.877551 281.681388 
L 298.257885 282.683651 
L 298.948052 280.947297 
L 299.638219 281.844795 
L 300.328386 279.641549 
L 301.018553 279.543776 
L 301.70872 280.735683 
L 303.089054 284.78173 
L 303.779221 283.524802 
L 304.469388 283.742951 
L 305.159555 280.912121 
L 305.849722 282.216317 
L 306.539889 287.29252 
L 307.230056 282.551615 
L 307.920223 283.500878 
L 308.61039 282.251487 
L 309.300557 282.806771 
L 309.990724 283.822997 
L 310.680891 282.63483 
L 311.371058 283.523196 
L 312.061224 282.030656 
L 312.751391 282.348933 
L 313.441558 280.370717 
L 314.131725 282.867761 
L 315.512059 281.688457 
L 316.202226 283.711019 
L 316.892393 282.269455 
L 317.58256 282.705674 
L 318.272727 281.964539 
L 318.962894 283.109127 
L 319.653061 281.23795 
L 320.343228 282.953487 
L 321.033395 284.293087 
L 321.723562 283.227268 
L 322.413729 284.021856 
L 323.103896 283.267282 
L 323.794063 285.329129 
L 324.48423 284.702037 
L 325.174397 284.855647 
L 325.864564 283.549531 
L 326.554731 284.766596 
L 327.244898 284.254683 
L 327.935065 283.074489 
L 328.625232 283.491316 
L 329.315399 284.244692 
L 330.005566 283.439413 
L 331.3859 283.927908 
L 332.076067 284.298624 
L 332.766234 282.359416 
L 333.456401 283.216084 
L 334.836735 284.370823 
L 335.526902 283.319864 
L 336.217069 282.730864 
L 337.597403 285.936256 
L 338.28757 282.275737 
L 338.977737 285.831368 
L 339.667904 285.191212 
L 340.358071 286.30875 
L 341.048237 282.906761 
L 341.738404 285.076604 
L 342.428571 283.681005 
L 343.118738 283.299389 
L 343.808905 285.243363 
L 344.499072 282.231242 
L 345.189239 283.469081 
L 345.879406 283.133028 
L 346.569573 285.036292 
L 347.25974 285.087066 
L 347.949907 282.812007 
L 348.640074 283.321686 
L 350.020408 286.668174 
L 350.710575 285.785098 
L 351.400742 283.755217 
L 352.090909 283.868078 
L 352.781076 283.528775 
L 353.471243 284.919503 
L 354.16141 286.847179 
L 354.851577 283.414789 
L 355.541744 284.964237 
L 356.922078 282.616296 
L 357.612245 284.776758 
L 358.302412 285.970236 
L 358.992579 283.995977 
L 359.682746 284.45054 
L 360.372913 286.769035 
L 361.06308 283.938939 
L 361.753247 284.329439 
L 362.443414 283.368376 
L 363.133581 282.924976 
L 363.823748 282.647605 
L 364.513915 286.642478 
L 365.204082 285.794586 
L 365.894249 284.52777 
L 366.584416 285.888738 
L 367.274583 285.67841 
L 367.96475 287.604878 
L 368.654917 285.158327 
L 369.345083 287.662342 
L 370.03525 284 
L 370.725417 285.31071 
L 371.415584 285.71257 
L 372.105751 286.796432 
L 372.795918 281.573695 
L 373.486085 287.450275 
L 374.176252 286.065488 
L 374.866419 288.975408 
L 375.556586 286.533604 
L 376.246753 285.33473 
L 376.93692 285.265683 
L 377.627087 286.902374 
L 378.317254 286.287772 
L 379.007421 286.694086 
L 379.697588 285.670413 
L 380.387755 284.357696 
L 381.768089 286.482578 
L 383.148423 284.35286 
L 383.83859 285.187393 
L 384.528757 285.20288 
L 385.218924 286.049128 
L 385.909091 288.466751 
L 386.599258 286.490017 
L 387.289425 285.667506 
L 387.979592 284.148311 
L 388.669759 284.564087 
L 389.359926 285.373682 
L 390.050093 283.640629 
L 390.74026 284.76405 
L 391.430427 287.328085 
L 392.120594 286.059851 
L 392.810761 289.59654 
L 393.500928 286.753446 
L 394.191095 286.564203 
L 394.881262 285.806005 
L 395.571429 285.706978 
L 396.261596 284.840182 
L 396.951763 285.9444 
L 397.641929 289.001707 
L 398.332096 286.766336 
L 399.71243 287.055561 
L 400.402597 282.239064 
L 401.092764 286.3565 
L 401.782931 285.968761 
L 402.473098 288.199548 
L 403.163265 286.44941 
L 403.853432 287.124878 
L 404.543599 288.808538 
L 405.233766 285.047837 
L 405.923933 286.045719 
L 406.6141 287.786592 
L 407.304267 289.209899 
L 407.994434 285.150078 
L 408.684601 286.372348 
L 409.374768 286.337233 
L 410.064935 286.428554 
L 410.755102 285.474828 
L 411.445269 287.369496 
L 412.135436 287.172188 
L 412.825603 286.000126 
L 413.51577 286.144323 
L 414.205937 283.262522 
L 414.896104 284.656535 
L 415.586271 285.38683 
L 416.276438 283.972114 
L 416.966605 287.147146 
L 417.656772 289.052371 
L 418.346939 288.454351 
L 419.037106 284.927643 
L 419.727273 287.475374 
L 420.41744 285.207004 
L 421.107607 289.210842 
L 421.797774 286.761353 
L 422.487941 287.67866 
L 423.178108 286.498194 
L 423.868275 284.393191 
L 424.558442 284.633434 
L 425.248609 287.036175 
L 425.938776 286.024346 
L 426.628942 288.12143 
L 427.319109 285.090594 
L 428.009276 286.47557 
L 428.699443 286.264389 
L 429.38961 285.668348 
L 430.079777 285.871728 
L 430.769944 288.133724 
L 431.460111 288.357382 
L 432.150278 285.321414 
L 432.840445 286.090268 
L 434.220779 288.502602 
L 434.910946 288.600336 
L 435.601113 287.143513 
L 436.29128 284.274585 
L 436.981447 286.480762 
L 437.671614 288.032198 
L 438.361781 287.078199 
L 439.051948 287.851957 
L 439.742115 285.612441 
L 440.432282 287.407525 
L 441.122449 285.057163 
L 441.812616 288.152359 
L 442.502783 288.536404 
L 443.19295 288.406142 
L 443.883117 285.078928 
L 444.573284 288.915854 
L 445.263451 285.373509 
L 445.953618 287.266892 
L 446.643785 288.596932 
L 448.024119 287.19987 
L 448.714286 287.164404 
L 449.404453 289.151424 
L 450.09462 289.950181 
L 451.474954 286.562653 
L 452.165121 289.084892 
L 452.855288 289.275841 
L 453.545455 289.974262 
L 454.235622 287.919229 
L 455.615955 288.00043 
L 456.306122 287.73684 
L 456.996289 286.63801 
L 457.686456 284.368846 
L 458.376623 283.757249 
L 459.06679 286.36725 
L 459.756957 286.811323 
L 460.447124 288.48615 
L 461.137291 288.538998 
L 461.827458 289.031601 
L 462.517625 289.164793 
L 463.207792 287.85223 
L 463.897959 288.807555 
L 464.588126 287.47371 
L 465.278293 288.110048 
L 465.96846 288.273883 
L 466.658627 289.605746 
L 467.348794 287.665659 
L 468.729128 288.823742 
L 469.419295 288.020071 
L 470.109462 286.835593 
L 470.799629 289.298233 
L 471.489796 287.179058 
L 472.179963 288.294281 
L 472.87013 288.270682 
L 473.560297 287.245623 
L 474.250464 287.059319 
L 474.940631 287.781109 
L 475.630798 289.962713 
L 476.320965 289.140074 
L 477.011132 287.895517 
L 477.701299 288.625132 
L 478.391466 288.804307 
L 479.081633 286.995727 
L 479.7718 284.602728 
L 480.461967 284.680335 
L 481.152134 288.436461 
L 482.532468 287.94694 
L 483.222635 288.233439 
L 483.912801 288.972901 
L 484.602968 291.181839 
L 485.293135 287.699554 
L 485.983302 288.491773 
L 486.673469 288.527752 
L 487.363636 287.259727 
L 488.053803 288.645394 
L 488.74397 288.462074 
L 489.434137 289.76363 
L 490.124304 287.08375 
L 490.814471 290.147791 
L 491.504638 287.994788 
L 492.194805 287.245791 
L 492.884972 287.878006 
L 493.575139 287.87983 
L 494.265306 286.526374 
L 494.955473 286.564729 
L 495.64564 288.152088 
L 496.335807 289.408717 
L 497.025974 290.407734 
L 497.716141 285.782573 
L 498.406308 285.490599 
L 499.096475 287.801295 
L 499.786642 286.566064 
L 500.476809 286.988477 
L 501.166976 286.725314 
L 501.857143 286.933943 
L 502.54731 286.291985 
L 503.237477 287.304417 
L 503.927644 286.56034 
L 504.617811 288.723974 
L 505.307978 288.392525 
L 505.998145 287.712359 
L 506.688312 286.277825 
L 507.378479 286.939937 
L 508.068646 289.048666 
L 508.758813 285.907036 
L 509.44898 288.535002 
L 510.139147 287.400321 
L 510.829314 287.693513 
L 512.209647 289.290071 
L 513.589981 287.599231 
L 514.280148 287.126588 
L 514.970315 287.389668 
L 515.660482 289.286898 
L 516.350649 287.342638 
L 517.040816 286.802797 
L 517.730983 287.554665 
L 518.42115 288.852085 
L 519.111317 288.9312 
L 519.801484 286.558975 
L 520.491651 287.844973 
L 521.181818 289.763852 
L 521.871985 290.972839 
L 522.562152 286.849128 
L 523.252319 285.483781 
L 523.942486 290.605385 
L 524.632653 287.202216 
L 525.32282 290.08409 
L 526.012987 289.572068 
L 526.703154 289.709702 
L 527.393321 287.346785 
L 528.083488 288.918376 
L 528.773655 289.702344 
L 529.463822 289.229225 
L 530.153989 288.39817 
L 530.844156 290.699658 
L 531.534323 288.644078 
L 532.22449 287.09083 
L 533.604824 288.201844 
L 534.294991 286.50272 
L 534.985158 288.214733 
L 535.675325 287.151374 
L 536.365492 288.392662 
L 537.055659 286.1772 
L 537.745826 287.586717 
L 538.435993 287.343249 
L 539.12616 286.672452 
L 539.816327 285.186723 
L 540.506494 289.274894 
L 541.19666 289.302002 
L 541.886827 286.295861 
L 542.576994 284.747322 
L 543.957328 288.382197 
L 544.647495 287.228853 
L 545.337662 288.199803 
L 546.027829 288.753653 
L 546.717996 288.091694 
L 547.408163 289.487877 
L 548.09833 285.840248 
L 548.788497 287.819928 
L 549.478664 286.438362 
L 550.168831 289.693917 
L 550.858998 287.395474 
L 552.239332 289.834469 
L 552.929499 288.707319 
L 553.619666 287.197297 
L 554.309833 287.608768 
L 555 287.483709 
L 555.690167 285.129041 
L 556.380334 287.349718 
L 557.070501 284.216234 
L 557.760668 288.885511 
L 558.450835 285.954168 
L 559.141002 285.753761 
L 559.831169 289.271069 
L 561.211503 286.423788 
L 561.90167 286.83458 
L 562.591837 290.974985 
L 563.282004 287.156842 
L 563.972171 289.323973 
L 564.662338 285.912043 
L 565.352505 285.007277 
L 566.042672 287.226525 
L 566.732839 288.178387 
L 567.423006 286.357574 
L 568.113173 287.83657 
L 568.80334 289.002709 
L 569.493506 285.714355 
L 570.183673 285.288529 
L 570.87384 287.745245 
L 571.564007 286.792136 
L 572.254174 286.614858 
L 572.944341 288.502581 
L 573.634508 287.819202 
L 574.324675 290.209553 
L 575.014842 289.013973 
L 575.705009 287.530735 
L 576.395176 286.821654 
L 577.77551 289.939853 
L 578.465677 287.173944 
L 579.155844 285.53652 
L 579.846011 287.765606 
L 580.536178 288.420879 
L 581.226345 286.324332 
L 581.916512 288.412047 
L 582.606679 286.021135 
L 583.987013 286.761811 
L 584.67718 287.561543 
L 585.367347 286.31273 
L 586.057514 288.242011 
L 586.747681 287.248922 
L 587.437848 287.780129 
L 588.128015 287.036622 
L 588.818182 288.270897 
L 589.508349 287.67313 
L 590.198516 287.50905 
L 590.888683 283.613702 
L 591.57885 290.385631 
L 592.959184 286.280215 
L 593.649351 290.392004 
L 594.339518 287.114999 
L 595.029685 288.113444 
L 595.719852 290.627458 
L 596.410019 288.983856 
L 597.100186 285.910174 
L 597.790353 289.451341 
L 598.480519 289.169468 
L 599.170686 289.029241 
L 599.860853 285.448869 
L 600.55102 289.034664 
L 601.241187 288.984323 
L 601.931354 287.72334 
L 602.621521 285.53323 
L 603.311688 289.363242 
L 604.001855 287.343606 
L 604.692022 287.994309 
L 605.382189 289.941125 
L 606.072356 289.146612 
L 606.762523 288.871702 
L 607.45269 289.407197 
L 608.142857 288.603856 
L 608.833024 288.396272 
L 609.523191 286.258335 
L 610.213358 287.746137 
L 610.903525 284.813155 
L 611.593692 290.984969 
L 612.283859 288.93953 
L 612.974026 288.55979 
L 613.664193 285.982676 
L 614.35436 283.923185 
L 615.044527 289.141975 
L 615.734694 287.931131 
L 616.424861 286.035133 
L 617.115028 288.198324 
L 617.805195 289.185891 
L 618.495362 288.29651 
L 619.185529 288.030097 
L 619.875696 288.258516 
L 620.565863 288.132637 
L 621.25603 290.223771 
L 621.946197 288.670815 
L 622.636364 288.440017 
L 622.636364 288.440017 
" style="fill:none;stroke:#ff7f0e;stroke-linecap:square;stroke-width:0.5;"/>
   </g>
   <g id="patch_3">
    <path d="M 90 315 
L 90 43.2 
" style="fill:none;stroke:#000000;stroke-linecap:square;stroke-linejoin:miter;stroke-width:0.8;"/>
   </g>
   <g id="patch_4">
    <path d="M 648 315 
L 648 43.2 
" style="fill:none;stroke:#000000;stroke-linecap:square;stroke-linejoin:miter;stroke-width:0.8;"/>
   </g>
   <g id="patch_5">
    <path d="M 90 315 
L 648 315 
" style="fill:none;stroke:#000000;stroke-linecap:square;stroke-linejoin:miter;stroke-width:0.8;"/>
   </g>
   <g id="patch_6">
    <path d="M 90 43.2 
L 648 43.2 
" style="fill:none;stroke:#000000;stroke-linecap:square;stroke-linejoin:miter;stroke-width:0.8;"/>
   </g>
   <g id="text_19">
    <!-- loss -->
    <g transform="translate(357.410625 37.2)scale(0.12 -0.12)">
     <use xlink:href="#DejaVuSans-108"/>
     <use x="27.783203" xlink:href="#DejaVuSans-111"/>
     <use x="88.964844" xlink:href="#DejaVuSans-115"/>
     <use x="141.064453" xlink:href="#DejaVuSans-115"/>
    </g>
   </g>
   <g id="legend_1">
    <g id="patch_7">
     <path d="M 568.846875 80.55625 
L 641 80.55625 
Q 643 80.55625 643 78.55625 
L 643 50.2 
Q 643 48.2 641 48.2 
L 568.846875 48.2 
Q 566.846875 48.2 566.846875 50.2 
L 566.846875 78.55625 
Q 566.846875 80.55625 568.846875 80.55625 
z
" style="fill:#ffffff;opacity:0.8;stroke:#cccccc;stroke-linejoin:miter;"/>
    </g>
    <g id="line2d_35">
     <path d="M 570.846875 56.298437 
L 590.846875 56.298437 
" style="fill:none;stroke:#1f77b4;stroke-linecap:square;stroke-width:0.5;"/>
    </g>
    <g id="line2d_36"/>
    <g id="text_20">
     <!-- train -->
     <defs>
      <path d="M 18.3125 70.21875 
L 18.3125 54.6875 
L 36.8125 54.6875 
L 36.8125 47.703125 
L 18.3125 47.703125 
L 18.3125 18.015625 
Q 18.3125 11.328125 20.140625 9.421875 
Q 21.96875 7.515625 27.59375 7.515625 
L 36.8125 7.515625 
L 36.8125 0 
L 27.59375 0 
Q 17.1875 0 13.234375 3.875 
Q 9.28125 7.765625 9.28125 18.015625 
L 9.28125 47.703125 
L 2.6875 47.703125 
L 2.6875 54.6875 
L 9.28125 54.6875 
L 9.28125 70.21875 
z
" id="DejaVuSans-116"/>
      <path d="M 41.109375 46.296875 
Q 39.59375 47.171875 37.8125 47.578125 
Q 36.03125 48 33.890625 48 
Q 26.265625 48 22.1875 43.046875 
Q 18.109375 38.09375 18.109375 28.8125 
L 18.109375 0 
L 9.078125 0 
L 9.078125 54.6875 
L 18.109375 54.6875 
L 18.109375 46.1875 
Q 20.953125 51.171875 25.484375 53.578125 
Q 30.03125 56 36.53125 56 
Q 37.453125 56 38.578125 55.875 
Q 39.703125 55.765625 41.0625 55.515625 
z
" id="DejaVuSans-114"/>
      <path d="M 34.28125 27.484375 
Q 23.390625 27.484375 19.1875 25 
Q 14.984375 22.515625 14.984375 16.5 
Q 14.984375 11.71875 18.140625 8.90625 
Q 21.296875 6.109375 26.703125 6.109375 
Q 34.1875 6.109375 38.703125 11.40625 
Q 43.21875 16.703125 43.21875 25.484375 
L 43.21875 27.484375 
z
M 52.203125 31.203125 
L 52.203125 0 
L 43.21875 0 
L 43.21875 8.296875 
Q 40.140625 3.328125 35.546875 0.953125 
Q 30.953125 -1.421875 24.3125 -1.421875 
Q 15.921875 -1.421875 10.953125 3.296875 
Q 6 8.015625 6 15.921875 
Q 6 25.140625 12.171875 29.828125 
Q 18.359375 34.515625 30.609375 34.515625 
L 43.21875 34.515625 
L 43.21875 35.40625 
Q 43.21875 41.609375 39.140625 45 
Q 35.0625 48.390625 27.6875 48.390625 
Q 23 48.390625 18.546875 47.265625 
Q 14.109375 46.140625 10.015625 43.890625 
L 10.015625 52.203125 
Q 14.9375 54.109375 19.578125 55.046875 
Q 24.21875 56 28.609375 56 
Q 40.484375 56 46.34375 49.84375 
Q 52.203125 43.703125 52.203125 31.203125 
z
" id="DejaVuSans-97"/>
      <path d="M 9.421875 54.6875 
L 18.40625 54.6875 
L 18.40625 0 
L 9.421875 0 
z
M 9.421875 75.984375 
L 18.40625 75.984375 
L 18.40625 64.59375 
L 9.421875 64.59375 
z
" id="DejaVuSans-105"/>
      <path d="M 54.890625 33.015625 
L 54.890625 0 
L 45.90625 0 
L 45.90625 32.71875 
Q 45.90625 40.484375 42.875 44.328125 
Q 39.84375 48.1875 33.796875 48.1875 
Q 26.515625 48.1875 22.3125 43.546875 
Q 18.109375 38.921875 18.109375 30.90625 
L 18.109375 0 
L 9.078125 0 
L 9.078125 54.6875 
L 18.109375 54.6875 
L 18.109375 46.1875 
Q 21.34375 51.125 25.703125 53.5625 
Q 30.078125 56 35.796875 56 
Q 45.21875 56 50.046875 50.171875 
Q 54.890625 44.34375 54.890625 33.015625 
z
" id="DejaVuSans-110"/>
     </defs>
     <g transform="translate(598.846875 59.798437)scale(0.1 -0.1)">
      <use xlink:href="#DejaVuSans-116"/>
      <use x="39.208984" xlink:href="#DejaVuSans-114"/>
      <use x="80.322266" xlink:href="#DejaVuSans-97"/>
      <use x="141.601562" xlink:href="#DejaVuSans-105"/>
      <use x="169.384766" xlink:href="#DejaVuSans-110"/>
     </g>
    </g>
    <g id="line2d_37">
     <path d="M 570.846875 70.976562 
L 590.846875 70.976562 
" style="fill:none;stroke:#ff7f0e;stroke-linecap:square;stroke-width:0.5;"/>
    </g>
    <g id="line2d_38"/>
    <g id="text_21">
     <!-- validate -->
     <defs>
      <path d="M 2.984375 54.6875 
L 12.5 54.6875 
L 29.59375 8.796875 
L 46.6875 54.6875 
L 56.203125 54.6875 
L 35.6875 0 
L 23.484375 0 
z
" id="DejaVuSans-118"/>
      <path d="M 45.40625 46.390625 
L 45.40625 75.984375 
L 54.390625 75.984375 
L 54.390625 0 
L 45.40625 0 
L 45.40625 8.203125 
Q 42.578125 3.328125 38.25 0.953125 
Q 33.9375 -1.421875 27.875 -1.421875 
Q 17.96875 -1.421875 11.734375 6.484375 
Q 5.515625 14.40625 5.515625 27.296875 
Q 5.515625 40.1875 11.734375 48.09375 
Q 17.96875 56 27.875 56 
Q 33.9375 56 38.25 53.625 
Q 42.578125 51.265625 45.40625 46.390625 
z
M 14.796875 27.296875 
Q 14.796875 17.390625 18.875 11.75 
Q 22.953125 6.109375 30.078125 6.109375 
Q 37.203125 6.109375 41.296875 11.75 
Q 45.40625 17.390625 45.40625 27.296875 
Q 45.40625 37.203125 41.296875 42.84375 
Q 37.203125 48.484375 30.078125 48.484375 
Q 22.953125 48.484375 18.875 42.84375 
Q 14.796875 37.203125 14.796875 27.296875 
z
" id="DejaVuSans-100"/>
     </defs>
     <g transform="translate(598.846875 74.476562)scale(0.1 -0.1)">
      <use xlink:href="#DejaVuSans-118"/>
      <use x="59.179688" xlink:href="#DejaVuSans-97"/>
      <use x="120.458984" xlink:href="#DejaVuSans-108"/>
      <use x="148.242188" xlink:href="#DejaVuSans-105"/>
      <use x="176.025391" xlink:href="#DejaVuSans-100"/>
      <use x="239.501953" xlink:href="#DejaVuSans-97"/>
      <use x="300.78125" xlink:href="#DejaVuSans-116"/>
      <use x="339.990234" xlink:href="#DejaVuSans-101"/>
     </g>
    </g>
   </g>
  </g>
 </g>
 <defs>
  <clipPath id="p1adc961feb">
   <rect height="271.8" width="558" x="90" y="43.2"/>
  </clipPath>
 </defs>
</svg>
