<?xml version="1.0" encoding="utf-8" standalone="no"?>
<!DOCTYPE svg PUBLIC "-//W3C//DTD SVG 1.1//EN"
  "http://www.w3.org/Graphics/SVG/1.1/DTD/svg11.dtd">
<!-- Created with matplotlib (https://matplotlib.org/) -->
<svg height="360pt" version="1.1" viewBox="0 0 720 360" width="720pt" xmlns="http://www.w3.org/2000/svg" xmlns:xlink="http://www.w3.org/1999/xlink">
 <defs>
  <style type="text/css">
*{stroke-linecap:butt;stroke-linejoin:round;}
  </style>
 </defs>
 <g id="figure_1">
  <g id="patch_1">
   <path d="M 0 360 
L 720 360 
L 720 0 
L 0 0 
z
" style="fill:#ffffff;"/>
  </g>
  <g id="axes_1">
   <g id="patch_2">
    <path d="M 90 315 
L 648 315 
L 648 43.2 
L 90 43.2 
z
" style="fill:#ffffff;"/>
   </g>
   <g id="matplotlib.axis_1">
    <g id="xtick_1">
     <g id="line2d_1">
      <path clip-path="url(#p6f09dc4eda)" d="M 115.363636 315 
L 115.363636 43.2 
" style="fill:none;stroke:#b0b0b0;stroke-linecap:square;stroke-width:0.8;"/>
     </g>
     <g id="line2d_2">
      <defs>
       <path d="M 0 0 
L 0 3.5 
" id="m62b776a622" style="stroke:#000000;stroke-width:0.8;"/>
      </defs>
      <g>
       <use style="stroke:#000000;stroke-width:0.8;" x="115.363636" xlink:href="#m62b776a622" y="315"/>
      </g>
     </g>
     <g id="text_1">
      <!-- 0 -->
      <defs>
       <path d="M 31.78125 66.40625 
Q 24.171875 66.40625 20.328125 58.90625 
Q 16.5 51.421875 16.5 36.375 
Q 16.5 21.390625 20.328125 13.890625 
Q 24.171875 6.390625 31.78125 6.390625 
Q 39.453125 6.390625 43.28125 13.890625 
Q 47.125 21.390625 47.125 36.375 
Q 47.125 51.421875 43.28125 58.90625 
Q 39.453125 66.40625 31.78125 66.40625 
z
M 31.78125 74.21875 
Q 44.046875 74.21875 50.515625 64.515625 
Q 56.984375 54.828125 56.984375 36.375 
Q 56.984375 17.96875 50.515625 8.265625 
Q 44.046875 -1.421875 31.78125 -1.421875 
Q 19.53125 -1.421875 13.0625 8.265625 
Q 6.59375 17.96875 6.59375 36.375 
Q 6.59375 54.828125 13.0625 64.515625 
Q 19.53125 74.21875 31.78125 74.21875 
z
" id="DejaVuSans-48"/>
      </defs>
      <g transform="translate(112.182386 329.598437)scale(0.1 -0.1)">
       <use xlink:href="#DejaVuSans-48"/>
      </g>
     </g>
    </g>
    <g id="xtick_2">
     <g id="line2d_3">
      <path clip-path="url(#p6f09dc4eda)" d="M 234.581669 315 
L 234.581669 43.2 
" style="fill:none;stroke:#b0b0b0;stroke-linecap:square;stroke-width:0.8;"/>
     </g>
     <g id="line2d_4">
      <g>
       <use style="stroke:#000000;stroke-width:0.8;" x="234.581669" xlink:href="#m62b776a622" y="315"/>
      </g>
     </g>
     <g id="text_2">
      <!-- 200 -->
      <defs>
       <path d="M 19.1875 8.296875 
L 53.609375 8.296875 
L 53.609375 0 
L 7.328125 0 
L 7.328125 8.296875 
Q 12.9375 14.109375 22.625 23.890625 
Q 32.328125 33.6875 34.8125 36.53125 
Q 39.546875 41.84375 41.421875 45.53125 
Q 43.3125 49.21875 43.3125 52.78125 
Q 43.3125 58.59375 39.234375 62.25 
Q 35.15625 65.921875 28.609375 65.921875 
Q 23.96875 65.921875 18.8125 64.3125 
Q 13.671875 62.703125 7.8125 59.421875 
L 7.8125 69.390625 
Q 13.765625 71.78125 18.9375 73 
Q 24.125 74.21875 28.421875 74.21875 
Q 39.75 74.21875 46.484375 68.546875 
Q 53.21875 62.890625 53.21875 53.421875 
Q 53.21875 48.921875 51.53125 44.890625 
Q 49.859375 40.875 45.40625 35.40625 
Q 44.1875 33.984375 37.640625 27.21875 
Q 31.109375 20.453125 19.1875 8.296875 
z
" id="DejaVuSans-50"/>
      </defs>
      <g transform="translate(225.037919 329.598437)scale(0.1 -0.1)">
       <use xlink:href="#DejaVuSans-50"/>
       <use x="63.623047" xlink:href="#DejaVuSans-48"/>
       <use x="127.246094" xlink:href="#DejaVuSans-48"/>
      </g>
     </g>
    </g>
    <g id="xtick_3">
     <g id="line2d_5">
      <path clip-path="url(#p6f09dc4eda)" d="M 353.799701 315 
L 353.799701 43.2 
" style="fill:none;stroke:#b0b0b0;stroke-linecap:square;stroke-width:0.8;"/>
     </g>
     <g id="line2d_6">
      <g>
       <use style="stroke:#000000;stroke-width:0.8;" x="353.799701" xlink:href="#m62b776a622" y="315"/>
      </g>
     </g>
     <g id="text_3">
      <!-- 400 -->
      <defs>
       <path d="M 37.796875 64.3125 
L 12.890625 25.390625 
L 37.796875 25.390625 
z
M 35.203125 72.90625 
L 47.609375 72.90625 
L 47.609375 25.390625 
L 58.015625 25.390625 
L 58.015625 17.1875 
L 47.609375 17.1875 
L 47.609375 0 
L 37.796875 0 
L 37.796875 17.1875 
L 4.890625 17.1875 
L 4.890625 26.703125 
z
" id="DejaVuSans-52"/>
      </defs>
      <g transform="translate(344.255951 329.598437)scale(0.1 -0.1)">
       <use xlink:href="#DejaVuSans-52"/>
       <use x="63.623047" xlink:href="#DejaVuSans-48"/>
       <use x="127.246094" xlink:href="#DejaVuSans-48"/>
      </g>
     </g>
    </g>
    <g id="xtick_4">
     <g id="line2d_7">
      <path clip-path="url(#p6f09dc4eda)" d="M 473.017733 315 
L 473.017733 43.2 
" style="fill:none;stroke:#b0b0b0;stroke-linecap:square;stroke-width:0.8;"/>
     </g>
     <g id="line2d_8">
      <g>
       <use style="stroke:#000000;stroke-width:0.8;" x="473.017733" xlink:href="#m62b776a622" y="315"/>
      </g>
     </g>
     <g id="text_4">
      <!-- 600 -->
      <defs>
       <path d="M 33.015625 40.375 
Q 26.375 40.375 22.484375 35.828125 
Q 18.609375 31.296875 18.609375 23.390625 
Q 18.609375 15.53125 22.484375 10.953125 
Q 26.375 6.390625 33.015625 6.390625 
Q 39.65625 6.390625 43.53125 10.953125 
Q 47.40625 15.53125 47.40625 23.390625 
Q 47.40625 31.296875 43.53125 35.828125 
Q 39.65625 40.375 33.015625 40.375 
z
M 52.59375 71.296875 
L 52.59375 62.3125 
Q 48.875 64.0625 45.09375 64.984375 
Q 41.3125 65.921875 37.59375 65.921875 
Q 27.828125 65.921875 22.671875 59.328125 
Q 17.53125 52.734375 16.796875 39.40625 
Q 19.671875 43.65625 24.015625 45.921875 
Q 28.375 48.1875 33.59375 48.1875 
Q 44.578125 48.1875 50.953125 41.515625 
Q 57.328125 34.859375 57.328125 23.390625 
Q 57.328125 12.15625 50.6875 5.359375 
Q 44.046875 -1.421875 33.015625 -1.421875 
Q 20.359375 -1.421875 13.671875 8.265625 
Q 6.984375 17.96875 6.984375 36.375 
Q 6.984375 53.65625 15.1875 63.9375 
Q 23.390625 74.21875 37.203125 74.21875 
Q 40.921875 74.21875 44.703125 73.484375 
Q 48.484375 72.75 52.59375 71.296875 
z
" id="DejaVuSans-54"/>
      </defs>
      <g transform="translate(463.473983 329.598437)scale(0.1 -0.1)">
       <use xlink:href="#DejaVuSans-54"/>
       <use x="63.623047" xlink:href="#DejaVuSans-48"/>
       <use x="127.246094" xlink:href="#DejaVuSans-48"/>
      </g>
     </g>
    </g>
    <g id="xtick_5">
     <g id="line2d_9">
      <path clip-path="url(#p6f09dc4eda)" d="M 592.235765 315 
L 592.235765 43.2 
" style="fill:none;stroke:#b0b0b0;stroke-linecap:square;stroke-width:0.8;"/>
     </g>
     <g id="line2d_10">
      <g>
       <use style="stroke:#000000;stroke-width:0.8;" x="592.235765" xlink:href="#m62b776a622" y="315"/>
      </g>
     </g>
     <g id="text_5">
      <!-- 800 -->
      <defs>
       <path d="M 31.78125 34.625 
Q 24.75 34.625 20.71875 30.859375 
Q 16.703125 27.09375 16.703125 20.515625 
Q 16.703125 13.921875 20.71875 10.15625 
Q 24.75 6.390625 31.78125 6.390625 
Q 38.8125 6.390625 42.859375 10.171875 
Q 46.921875 13.96875 46.921875 20.515625 
Q 46.921875 27.09375 42.890625 30.859375 
Q 38.875 34.625 31.78125 34.625 
z
M 21.921875 38.8125 
Q 15.578125 40.375 12.03125 44.71875 
Q 8.5 49.078125 8.5 55.328125 
Q 8.5 64.0625 14.71875 69.140625 
Q 20.953125 74.21875 31.78125 74.21875 
Q 42.671875 74.21875 48.875 69.140625 
Q 55.078125 64.0625 55.078125 55.328125 
Q 55.078125 49.078125 51.53125 44.71875 
Q 48 40.375 41.703125 38.8125 
Q 48.828125 37.15625 52.796875 32.3125 
Q 56.78125 27.484375 56.78125 20.515625 
Q 56.78125 9.90625 50.3125 4.234375 
Q 43.84375 -1.421875 31.78125 -1.421875 
Q 19.734375 -1.421875 13.25 4.234375 
Q 6.78125 9.90625 6.78125 20.515625 
Q 6.78125 27.484375 10.78125 32.3125 
Q 14.796875 37.15625 21.921875 38.8125 
z
M 18.3125 54.390625 
Q 18.3125 48.734375 21.84375 45.5625 
Q 25.390625 42.390625 31.78125 42.390625 
Q 38.140625 42.390625 41.71875 45.5625 
Q 45.3125 48.734375 45.3125 54.390625 
Q 45.3125 60.0625 41.71875 63.234375 
Q 38.140625 66.40625 31.78125 66.40625 
Q 25.390625 66.40625 21.84375 63.234375 
Q 18.3125 60.0625 18.3125 54.390625 
z
" id="DejaVuSans-56"/>
      </defs>
      <g transform="translate(582.692015 329.598437)scale(0.1 -0.1)">
       <use xlink:href="#DejaVuSans-56"/>
       <use x="63.623047" xlink:href="#DejaVuSans-48"/>
       <use x="127.246094" xlink:href="#DejaVuSans-48"/>
      </g>
     </g>
    </g>
    <g id="text_6">
     <!-- epoch -->
     <defs>
      <path d="M 56.203125 29.59375 
L 56.203125 25.203125 
L 14.890625 25.203125 
Q 15.484375 15.921875 20.484375 11.0625 
Q 25.484375 6.203125 34.421875 6.203125 
Q 39.59375 6.203125 44.453125 7.46875 
Q 49.3125 8.734375 54.109375 11.28125 
L 54.109375 2.78125 
Q 49.265625 0.734375 44.1875 -0.34375 
Q 39.109375 -1.421875 33.890625 -1.421875 
Q 20.796875 -1.421875 13.15625 6.1875 
Q 5.515625 13.8125 5.515625 26.8125 
Q 5.515625 40.234375 12.765625 48.109375 
Q 20.015625 56 32.328125 56 
Q 43.359375 56 49.78125 48.890625 
Q 56.203125 41.796875 56.203125 29.59375 
z
M 47.21875 32.234375 
Q 47.125 39.59375 43.09375 43.984375 
Q 39.0625 48.390625 32.421875 48.390625 
Q 24.90625 48.390625 20.390625 44.140625 
Q 15.875 39.890625 15.1875 32.171875 
z
" id="DejaVuSans-101"/>
      <path d="M 18.109375 8.203125 
L 18.109375 -20.796875 
L 9.078125 -20.796875 
L 9.078125 54.6875 
L 18.109375 54.6875 
L 18.109375 46.390625 
Q 20.953125 51.265625 25.265625 53.625 
Q 29.59375 56 35.59375 56 
Q 45.5625 56 51.78125 48.09375 
Q 58.015625 40.1875 58.015625 27.296875 
Q 58.015625 14.40625 51.78125 6.484375 
Q 45.5625 -1.421875 35.59375 -1.421875 
Q 29.59375 -1.421875 25.265625 0.953125 
Q 20.953125 3.328125 18.109375 8.203125 
z
M 48.6875 27.296875 
Q 48.6875 37.203125 44.609375 42.84375 
Q 40.53125 48.484375 33.40625 48.484375 
Q 26.265625 48.484375 22.1875 42.84375 
Q 18.109375 37.203125 18.109375 27.296875 
Q 18.109375 17.390625 22.1875 11.75 
Q 26.265625 6.109375 33.40625 6.109375 
Q 40.53125 6.109375 44.609375 11.75 
Q 48.6875 17.390625 48.6875 27.296875 
z
" id="DejaVuSans-112"/>
      <path d="M 30.609375 48.390625 
Q 23.390625 48.390625 19.1875 42.75 
Q 14.984375 37.109375 14.984375 27.296875 
Q 14.984375 17.484375 19.15625 11.84375 
Q 23.34375 6.203125 30.609375 6.203125 
Q 37.796875 6.203125 41.984375 11.859375 
Q 46.1875 17.53125 46.1875 27.296875 
Q 46.1875 37.015625 41.984375 42.703125 
Q 37.796875 48.390625 30.609375 48.390625 
z
M 30.609375 56 
Q 42.328125 56 49.015625 48.375 
Q 55.71875 40.765625 55.71875 27.296875 
Q 55.71875 13.875 49.015625 6.21875 
Q 42.328125 -1.421875 30.609375 -1.421875 
Q 18.84375 -1.421875 12.171875 6.21875 
Q 5.515625 13.875 5.515625 27.296875 
Q 5.515625 40.765625 12.171875 48.375 
Q 18.84375 56 30.609375 56 
z
" id="DejaVuSans-111"/>
      <path d="M 48.78125 52.59375 
L 48.78125 44.1875 
Q 44.96875 46.296875 41.140625 47.34375 
Q 37.3125 48.390625 33.40625 48.390625 
Q 24.65625 48.390625 19.8125 42.84375 
Q 14.984375 37.3125 14.984375 27.296875 
Q 14.984375 17.28125 19.8125 11.734375 
Q 24.65625 6.203125 33.40625 6.203125 
Q 37.3125 6.203125 41.140625 7.25 
Q 44.96875 8.296875 48.78125 10.40625 
L 48.78125 2.09375 
Q 45.015625 0.34375 40.984375 -0.53125 
Q 36.96875 -1.421875 32.421875 -1.421875 
Q 20.0625 -1.421875 12.78125 6.34375 
Q 5.515625 14.109375 5.515625 27.296875 
Q 5.515625 40.671875 12.859375 48.328125 
Q 20.21875 56 33.015625 56 
Q 37.15625 56 41.109375 55.140625 
Q 45.0625 54.296875 48.78125 52.59375 
z
" id="DejaVuSans-99"/>
      <path d="M 54.890625 33.015625 
L 54.890625 0 
L 45.90625 0 
L 45.90625 32.71875 
Q 45.90625 40.484375 42.875 44.328125 
Q 39.84375 48.1875 33.796875 48.1875 
Q 26.515625 48.1875 22.3125 43.546875 
Q 18.109375 38.921875 18.109375 30.90625 
L 18.109375 0 
L 9.078125 0 
L 9.078125 75.984375 
L 18.109375 75.984375 
L 18.109375 46.1875 
Q 21.34375 51.125 25.703125 53.5625 
Q 30.078125 56 35.796875 56 
Q 45.21875 56 50.046875 50.171875 
Q 54.890625 44.34375 54.890625 33.015625 
z
" id="DejaVuSans-104"/>
     </defs>
     <g transform="translate(353.771875 343.276563)scale(0.1 -0.1)">
      <use xlink:href="#DejaVuSans-101"/>
      <use x="61.523438" xlink:href="#DejaVuSans-112"/>
      <use x="125" xlink:href="#DejaVuSans-111"/>
      <use x="186.181641" xlink:href="#DejaVuSans-99"/>
      <use x="241.162109" xlink:href="#DejaVuSans-104"/>
     </g>
    </g>
   </g>
   <g id="matplotlib.axis_2">
    <g id="ytick_1">
     <g id="line2d_11">
      <path clip-path="url(#p6f09dc4eda)" d="M 90 314.803081 
L 648 314.803081 
" style="fill:none;stroke:#b0b0b0;stroke-linecap:square;stroke-width:0.8;"/>
     </g>
     <g id="line2d_12">
      <defs>
       <path d="M 0 0 
L -3.5 0 
" id="m7dd19c4227" style="stroke:#000000;stroke-width:0.8;"/>
      </defs>
      <g>
       <use style="stroke:#000000;stroke-width:0.8;" x="90" xlink:href="#m7dd19c4227" y="314.803081"/>
      </g>
     </g>
     <g id="text_7">
      <!-- 0.2 -->
      <defs>
       <path d="M 10.6875 12.40625 
L 21 12.40625 
L 21 0 
L 10.6875 0 
z
" id="DejaVuSans-46"/>
      </defs>
      <g transform="translate(67.096875 318.602299)scale(0.1 -0.1)">
       <use xlink:href="#DejaVuSans-48"/>
       <use x="63.623047" xlink:href="#DejaVuSans-46"/>
       <use x="95.410156" xlink:href="#DejaVuSans-50"/>
      </g>
     </g>
    </g>
    <g id="ytick_2">
     <g id="line2d_13">
      <path clip-path="url(#p6f09dc4eda)" d="M 90 280.556246 
L 648 280.556246 
" style="fill:none;stroke:#b0b0b0;stroke-linecap:square;stroke-width:0.8;"/>
     </g>
     <g id="line2d_14">
      <g>
       <use style="stroke:#000000;stroke-width:0.8;" x="90" xlink:href="#m7dd19c4227" y="280.556246"/>
      </g>
     </g>
     <g id="text_8">
      <!-- 0.3 -->
      <defs>
       <path d="M 40.578125 39.3125 
Q 47.65625 37.796875 51.625 33 
Q 55.609375 28.21875 55.609375 21.1875 
Q 55.609375 10.40625 48.1875 4.484375 
Q 40.765625 -1.421875 27.09375 -1.421875 
Q 22.515625 -1.421875 17.65625 -0.515625 
Q 12.796875 0.390625 7.625 2.203125 
L 7.625 11.71875 
Q 11.71875 9.328125 16.59375 8.109375 
Q 21.484375 6.890625 26.8125 6.890625 
Q 36.078125 6.890625 40.9375 10.546875 
Q 45.796875 14.203125 45.796875 21.1875 
Q 45.796875 27.640625 41.28125 31.265625 
Q 36.765625 34.90625 28.71875 34.90625 
L 20.21875 34.90625 
L 20.21875 43.015625 
L 29.109375 43.015625 
Q 36.375 43.015625 40.234375 45.921875 
Q 44.09375 48.828125 44.09375 54.296875 
Q 44.09375 59.90625 40.109375 62.90625 
Q 36.140625 65.921875 28.71875 65.921875 
Q 24.65625 65.921875 20.015625 65.03125 
Q 15.375 64.15625 9.8125 62.3125 
L 9.8125 71.09375 
Q 15.4375 72.65625 20.34375 73.4375 
Q 25.25 74.21875 29.59375 74.21875 
Q 40.828125 74.21875 47.359375 69.109375 
Q 53.90625 64.015625 53.90625 55.328125 
Q 53.90625 49.265625 50.4375 45.09375 
Q 46.96875 40.921875 40.578125 39.3125 
z
" id="DejaVuSans-51"/>
      </defs>
      <g transform="translate(67.096875 284.355465)scale(0.1 -0.1)">
       <use xlink:href="#DejaVuSans-48"/>
       <use x="63.623047" xlink:href="#DejaVuSans-46"/>
       <use x="95.410156" xlink:href="#DejaVuSans-51"/>
      </g>
     </g>
    </g>
    <g id="ytick_3">
     <g id="line2d_15">
      <path clip-path="url(#p6f09dc4eda)" d="M 90 246.309412 
L 648 246.309412 
" style="fill:none;stroke:#b0b0b0;stroke-linecap:square;stroke-width:0.8;"/>
     </g>
     <g id="line2d_16">
      <g>
       <use style="stroke:#000000;stroke-width:0.8;" x="90" xlink:href="#m7dd19c4227" y="246.309412"/>
      </g>
     </g>
     <g id="text_9">
      <!-- 0.4 -->
      <g transform="translate(67.096875 250.108631)scale(0.1 -0.1)">
       <use xlink:href="#DejaVuSans-48"/>
       <use x="63.623047" xlink:href="#DejaVuSans-46"/>
       <use x="95.410156" xlink:href="#DejaVuSans-52"/>
      </g>
     </g>
    </g>
    <g id="ytick_4">
     <g id="line2d_17">
      <path clip-path="url(#p6f09dc4eda)" d="M 90 212.062578 
L 648 212.062578 
" style="fill:none;stroke:#b0b0b0;stroke-linecap:square;stroke-width:0.8;"/>
     </g>
     <g id="line2d_18">
      <g>
       <use style="stroke:#000000;stroke-width:0.8;" x="90" xlink:href="#m7dd19c4227" y="212.062578"/>
      </g>
     </g>
     <g id="text_10">
      <!-- 0.5 -->
      <defs>
       <path d="M 10.796875 72.90625 
L 49.515625 72.90625 
L 49.515625 64.59375 
L 19.828125 64.59375 
L 19.828125 46.734375 
Q 21.96875 47.46875 24.109375 47.828125 
Q 26.265625 48.1875 28.421875 48.1875 
Q 40.625 48.1875 47.75 41.5 
Q 54.890625 34.8125 54.890625 23.390625 
Q 54.890625 11.625 47.5625 5.09375 
Q 40.234375 -1.421875 26.90625 -1.421875 
Q 22.3125 -1.421875 17.546875 -0.640625 
Q 12.796875 0.140625 7.71875 1.703125 
L 7.71875 11.625 
Q 12.109375 9.234375 16.796875 8.0625 
Q 21.484375 6.890625 26.703125 6.890625 
Q 35.15625 6.890625 40.078125 11.328125 
Q 45.015625 15.765625 45.015625 23.390625 
Q 45.015625 31 40.078125 35.4375 
Q 35.15625 39.890625 26.703125 39.890625 
Q 22.75 39.890625 18.8125 39.015625 
Q 14.890625 38.140625 10.796875 36.28125 
z
" id="DejaVuSans-53"/>
      </defs>
      <g transform="translate(67.096875 215.861797)scale(0.1 -0.1)">
       <use xlink:href="#DejaVuSans-48"/>
       <use x="63.623047" xlink:href="#DejaVuSans-46"/>
       <use x="95.410156" xlink:href="#DejaVuSans-53"/>
      </g>
     </g>
    </g>
    <g id="ytick_5">
     <g id="line2d_19">
      <path clip-path="url(#p6f09dc4eda)" d="M 90 177.815744 
L 648 177.815744 
" style="fill:none;stroke:#b0b0b0;stroke-linecap:square;stroke-width:0.8;"/>
     </g>
     <g id="line2d_20">
      <g>
       <use style="stroke:#000000;stroke-width:0.8;" x="90" xlink:href="#m7dd19c4227" y="177.815744"/>
      </g>
     </g>
     <g id="text_11">
      <!-- 0.6 -->
      <g transform="translate(67.096875 181.614962)scale(0.1 -0.1)">
       <use xlink:href="#DejaVuSans-48"/>
       <use x="63.623047" xlink:href="#DejaVuSans-46"/>
       <use x="95.410156" xlink:href="#DejaVuSans-54"/>
      </g>
     </g>
    </g>
    <g id="ytick_6">
     <g id="line2d_21">
      <path clip-path="url(#p6f09dc4eda)" d="M 90 143.568909 
L 648 143.568909 
" style="fill:none;stroke:#b0b0b0;stroke-linecap:square;stroke-width:0.8;"/>
     </g>
     <g id="line2d_22">
      <g>
       <use style="stroke:#000000;stroke-width:0.8;" x="90" xlink:href="#m7dd19c4227" y="143.568909"/>
      </g>
     </g>
     <g id="text_12">
      <!-- 0.7 -->
      <defs>
       <path d="M 8.203125 72.90625 
L 55.078125 72.90625 
L 55.078125 68.703125 
L 28.609375 0 
L 18.3125 0 
L 43.21875 64.59375 
L 8.203125 64.59375 
z
" id="DejaVuSans-55"/>
      </defs>
      <g transform="translate(67.096875 147.368128)scale(0.1 -0.1)">
       <use xlink:href="#DejaVuSans-48"/>
       <use x="63.623047" xlink:href="#DejaVuSans-46"/>
       <use x="95.410156" xlink:href="#DejaVuSans-55"/>
      </g>
     </g>
    </g>
    <g id="ytick_7">
     <g id="line2d_23">
      <path clip-path="url(#p6f09dc4eda)" d="M 90 109.322075 
L 648 109.322075 
" style="fill:none;stroke:#b0b0b0;stroke-linecap:square;stroke-width:0.8;"/>
     </g>
     <g id="line2d_24">
      <g>
       <use style="stroke:#000000;stroke-width:0.8;" x="90" xlink:href="#m7dd19c4227" y="109.322075"/>
      </g>
     </g>
     <g id="text_13">
      <!-- 0.8 -->
      <g transform="translate(67.096875 113.121294)scale(0.1 -0.1)">
       <use xlink:href="#DejaVuSans-48"/>
       <use x="63.623047" xlink:href="#DejaVuSans-46"/>
       <use x="95.410156" xlink:href="#DejaVuSans-56"/>
      </g>
     </g>
    </g>
    <g id="ytick_8">
     <g id="line2d_25">
      <path clip-path="url(#p6f09dc4eda)" d="M 90 75.075241 
L 648 75.075241 
" style="fill:none;stroke:#b0b0b0;stroke-linecap:square;stroke-width:0.8;"/>
     </g>
     <g id="line2d_26">
      <g>
       <use style="stroke:#000000;stroke-width:0.8;" x="90" xlink:href="#m7dd19c4227" y="75.075241"/>
      </g>
     </g>
     <g id="text_14">
      <!-- 0.9 -->
      <defs>
       <path d="M 10.984375 1.515625 
L 10.984375 10.5 
Q 14.703125 8.734375 18.5 7.8125 
Q 22.3125 6.890625 25.984375 6.890625 
Q 35.75 6.890625 40.890625 13.453125 
Q 46.046875 20.015625 46.78125 33.40625 
Q 43.953125 29.203125 39.59375 26.953125 
Q 35.25 24.703125 29.984375 24.703125 
Q 19.046875 24.703125 12.671875 31.3125 
Q 6.296875 37.9375 6.296875 49.421875 
Q 6.296875 60.640625 12.9375 67.421875 
Q 19.578125 74.21875 30.609375 74.21875 
Q 43.265625 74.21875 49.921875 64.515625 
Q 56.59375 54.828125 56.59375 36.375 
Q 56.59375 19.140625 48.40625 8.859375 
Q 40.234375 -1.421875 26.421875 -1.421875 
Q 22.703125 -1.421875 18.890625 -0.6875 
Q 15.09375 0.046875 10.984375 1.515625 
z
M 30.609375 32.421875 
Q 37.25 32.421875 41.125 36.953125 
Q 45.015625 41.5 45.015625 49.421875 
Q 45.015625 57.28125 41.125 61.84375 
Q 37.25 66.40625 30.609375 66.40625 
Q 23.96875 66.40625 20.09375 61.84375 
Q 16.21875 57.28125 16.21875 49.421875 
Q 16.21875 41.5 20.09375 36.953125 
Q 23.96875 32.421875 30.609375 32.421875 
z
" id="DejaVuSans-57"/>
      </defs>
      <g transform="translate(67.096875 78.87446)scale(0.1 -0.1)">
       <use xlink:href="#DejaVuSans-48"/>
       <use x="63.623047" xlink:href="#DejaVuSans-46"/>
       <use x="95.410156" xlink:href="#DejaVuSans-57"/>
      </g>
     </g>
    </g>
    <g id="text_15">
     <!-- accuracy -->
     <defs>
      <path d="M 34.28125 27.484375 
Q 23.390625 27.484375 19.1875 25 
Q 14.984375 22.515625 14.984375 16.5 
Q 14.984375 11.71875 18.140625 8.90625 
Q 21.296875 6.109375 26.703125 6.109375 
Q 34.1875 6.109375 38.703125 11.40625 
Q 43.21875 16.703125 43.21875 25.484375 
L 43.21875 27.484375 
z
M 52.203125 31.203125 
L 52.203125 0 
L 43.21875 0 
L 43.21875 8.296875 
Q 40.140625 3.328125 35.546875 0.953125 
Q 30.953125 -1.421875 24.3125 -1.421875 
Q 15.921875 -1.421875 10.953125 3.296875 
Q 6 8.015625 6 15.921875 
Q 6 25.140625 12.171875 29.828125 
Q 18.359375 34.515625 30.609375 34.515625 
L 43.21875 34.515625 
L 43.21875 35.40625 
Q 43.21875 41.609375 39.140625 45 
Q 35.0625 48.390625 27.6875 48.390625 
Q 23 48.390625 18.546875 47.265625 
Q 14.109375 46.140625 10.015625 43.890625 
L 10.015625 52.203125 
Q 14.9375 54.109375 19.578125 55.046875 
Q 24.21875 56 28.609375 56 
Q 40.484375 56 46.34375 49.84375 
Q 52.203125 43.703125 52.203125 31.203125 
z
" id="DejaVuSans-97"/>
      <path d="M 8.5 21.578125 
L 8.5 54.6875 
L 17.484375 54.6875 
L 17.484375 21.921875 
Q 17.484375 14.15625 20.5 10.265625 
Q 23.53125 6.390625 29.59375 6.390625 
Q 36.859375 6.390625 41.078125 11.03125 
Q 45.3125 15.671875 45.3125 23.6875 
L 45.3125 54.6875 
L 54.296875 54.6875 
L 54.296875 0 
L 45.3125 0 
L 45.3125 8.40625 
Q 42.046875 3.421875 37.71875 1 
Q 33.40625 -1.421875 27.6875 -1.421875 
Q 18.265625 -1.421875 13.375 4.4375 
Q 8.5 10.296875 8.5 21.578125 
z
M 31.109375 56 
z
" id="DejaVuSans-117"/>
      <path d="M 41.109375 46.296875 
Q 39.59375 47.171875 37.8125 47.578125 
Q 36.03125 48 33.890625 48 
Q 26.265625 48 22.1875 43.046875 
Q 18.109375 38.09375 18.109375 28.8125 
L 18.109375 0 
L 9.078125 0 
L 9.078125 54.6875 
L 18.109375 54.6875 
L 18.109375 46.1875 
Q 20.953125 51.171875 25.484375 53.578125 
Q 30.03125 56 36.53125 56 
Q 37.453125 56 38.578125 55.875 
Q 39.703125 55.765625 41.0625 55.515625 
z
" id="DejaVuSans-114"/>
      <path d="M 32.171875 -5.078125 
Q 28.375 -14.84375 24.75 -17.8125 
Q 21.140625 -20.796875 15.09375 -20.796875 
L 7.90625 -20.796875 
L 7.90625 -13.28125 
L 13.1875 -13.28125 
Q 16.890625 -13.28125 18.9375 -11.515625 
Q 21 -9.765625 23.484375 -3.21875 
L 25.09375 0.875 
L 2.984375 54.6875 
L 12.5 54.6875 
L 29.59375 11.921875 
L 46.6875 54.6875 
L 56.203125 54.6875 
z
" id="DejaVuSans-121"/>
     </defs>
     <g transform="translate(61.017187 201.659375)rotate(-90)scale(0.1 -0.1)">
      <use xlink:href="#DejaVuSans-97"/>
      <use x="61.279297" xlink:href="#DejaVuSans-99"/>
      <use x="116.259766" xlink:href="#DejaVuSans-99"/>
      <use x="171.240234" xlink:href="#DejaVuSans-117"/>
      <use x="234.619141" xlink:href="#DejaVuSans-114"/>
      <use x="275.732422" xlink:href="#DejaVuSans-97"/>
      <use x="337.011719" xlink:href="#DejaVuSans-99"/>
      <use x="391.992188" xlink:href="#DejaVuSans-121"/>
     </g>
    </g>
   </g>
   <g id="line2d_27">
    <path clip-path="url(#p6f09dc4eda)" d="M 115.363636 293.826895 
L 116.555817 295.881705 
L 117.151907 295.796088 
L 117.747997 291.515233 
L 118.344087 292.371404 
L 118.940177 295.796088 
L 119.536267 288.775487 
L 120.132358 292.713873 
L 120.728448 290.402211 
L 121.324538 289.54604 
L 121.920628 290.316594 
L 122.516718 292.285787 
L 123.112808 286.806294 
L 123.708899 290.915914 
L 124.304989 286.806294 
L 124.901079 284.751484 
L 125.497169 284.837101 
L 126.093259 279.87131 
L 126.689349 281.241183 
L 127.28544 280.385012 
L 128.47762 272.337006 
L 129.07371 272.080155 
L 130.26589 266.172576 
L 130.861981 266.686279 
L 131.458071 258.381421 
L 132.054161 262.062956 
L 132.650251 256.412228 
L 133.246341 252.816311 
L 133.842431 247.165583 
L 134.438522 246.309412 
L 135.034612 241.942941 
L 135.630702 241.771707 
L 136.226792 236.292213 
L 137.418972 228.672293 
L 138.015062 225.247609 
L 138.611153 220.367435 
L 139.207243 212.148195 
L 139.803333 212.918749 
L 140.399423 204.014572 
L 140.995513 200.761123 
L 141.591603 194.08299 
L 142.187694 190.743924 
L 142.783784 182.695918 
L 143.379874 181.326044 
L 143.975964 177.130807 
L 144.572054 171.908165 
L 145.168144 173.192421 
L 145.764235 165.315649 
L 146.956415 161.548497 
L 147.552505 160.435475 
L 148.148595 154.185428 
L 148.744685 152.216235 
L 149.340776 149.562105 
L 149.936866 148.705935 
L 150.532956 148.705935 
L 151.725136 142.113419 
L 152.321226 141.685334 
L 152.917317 137.490096 
L 153.513407 140.572311 
L 154.109497 133.55171 
L 154.705587 134.921584 
L 155.301677 137.404479 
L 155.897767 133.294859 
L 156.493857 131.154432 
L 157.089948 125.33247 
L 157.686038 128.329068 
L 158.282128 124.990002 
L 158.878218 124.561916 
L 159.474308 121.907787 
L 160.070398 124.733151 
L 160.666489 118.311869 
L 161.262579 119.938594 
L 161.858669 122.421489 
L 162.454759 120.281062 
L 163.050849 116.770762 
L 163.646939 120.281062 
L 164.24303 117.284464 
L 164.83912 112.575524 
L 165.43521 114.544717 
L 166.62739 109.835778 
L 167.22348 113.346078 
L 167.819571 108.209053 
L 168.415661 111.376885 
L 169.011751 108.209053 
L 169.607841 110.606332 
L 170.800021 105.298072 
L 171.396112 105.811775 
L 171.992202 104.270667 
L 172.588292 102.215857 
L 173.184382 105.212455 
L 173.780472 100.760367 
L 174.376562 102.301474 
L 174.972652 98.277471 
L 175.568743 99.133642 
L 176.164833 102.643943 
L 176.760923 97.250066 
L 177.357013 100.161047 
L 177.953103 95.109639 
L 178.549193 95.537724 
L 179.145284 93.911 
L 179.741374 94.852788 
L 180.337464 92.797978 
L 180.933554 94.253468 
L 181.529644 94.082234 
L 182.125734 89.030826 
L 182.721825 91.941807 
L 183.317915 92.284275 
L 183.914005 91.171253 
L 184.510095 91.000019 
L 185.106185 91.171253 
L 185.702275 90.400699 
L 186.298366 88.174655 
L 187.490546 88.859592 
L 188.086636 91.428104 
L 188.682726 87.575335 
L 189.278816 90.486316 
L 189.874907 84.321886 
L 190.470997 88.174655 
L 191.067087 88.174655 
L 191.663177 86.291079 
L 192.259267 88.773975 
L 193.451447 83.551332 
L 194.047538 85.862994 
L 194.643628 86.976016 
L 195.239718 85.606143 
L 195.835808 82.095842 
L 196.431898 84.407503 
L 197.027988 83.465715 
L 197.624079 83.465715 
L 198.220169 84.407503 
L 198.816259 81.068437 
L 199.412349 80.212266 
L 200.008439 82.181459 
L 200.604529 79.955415 
L 201.20062 81.924608 
L 201.79671 80.212266 
L 202.3928 82.010225 
L 202.98889 81.753374 
L 203.58498 81.325288 
L 204.18107 77.729371 
L 204.777161 80.297883 
L 205.373251 80.126649 
L 205.969341 80.297883 
L 206.565431 77.900605 
L 207.161521 79.784181 
L 207.757611 78.499924 
L 208.353702 78.499924 
L 208.949792 77.130051 
L 209.545882 79.612947 
L 210.141972 78.32869 
L 210.738062 77.472519 
L 211.334152 79.013627 
L 211.930242 77.900605 
L 212.526333 74.81839 
L 213.122423 78.32869 
L 213.718513 77.814988 
L 214.314603 78.32869 
L 214.910693 76.701966 
L 215.506783 76.188263 
L 216.102874 79.955415 
L 216.698964 74.81839 
L 217.295054 76.188263 
L 217.891144 74.21907 
L 218.487234 75.931412 
L 219.083324 77.215668 
L 219.679415 77.558136 
L 220.275505 75.503326 
L 220.871595 75.075241 
L 221.467685 74.81839 
L 222.063775 77.472519 
L 222.659865 74.304687 
L 223.255956 74.989624 
L 223.852046 74.904007 
L 224.448136 73.106048 
L 225.044226 72.934814 
L 225.640316 74.047836 
L 226.236406 74.047836 
L 226.832497 72.76358 
L 227.428587 73.277282 
L 228.024677 71.736175 
L 228.620767 73.790985 
L 229.216857 73.876602 
L 229.812947 71.222472 
L 230.409037 74.133453 
L 231.005128 74.304687 
L 231.601218 73.962219 
L 232.197308 75.417709 
L 232.793398 72.16426 
L 233.389488 75.417709 
L 233.985578 73.705368 
L 234.581669 75.674561 
L 235.177759 73.191665 
L 235.773849 72.592345 
L 236.369939 72.934814 
L 236.966029 72.592345 
L 237.562119 74.732773 
L 238.15821 74.304687 
L 238.7543 71.821792 
L 239.35039 73.106048 
L 239.94648 73.277282 
L 240.54257 74.732773 
L 241.13866 70.623153 
L 241.734751 70.794387 
L 242.926931 70.623153 
L 243.523021 71.479323 
L 244.119111 70.623153 
L 244.715201 70.451918 
L 245.311292 71.736175 
L 245.907382 69.253279 
L 246.503472 70.10945 
L 247.099562 74.047836 
L 247.695652 70.10945 
L 248.291742 69.51013 
L 248.887832 71.051238 
L 249.483923 71.222472 
L 250.080013 70.880004 
L 250.676103 71.821792 
L 251.272193 71.907409 
L 251.868283 70.965621 
L 252.464373 72.677963 
L 253.060464 71.308089 
L 253.656554 71.56494 
L 254.252644 69.681365 
L 254.848734 70.537535 
L 255.444824 69.51013 
L 256.040914 70.195067 
L 256.637005 68.225874 
L 257.233095 68.568342 
L 257.829185 67.969023 
L 258.425275 71.222472 
L 259.021365 70.537535 
L 259.617455 68.140257 
L 260.213546 66.856001 
L 260.809636 68.739577 
L 261.405726 68.225874 
L 262.001816 68.311491 
L 262.597906 68.910811 
L 263.193996 69.338896 
L 263.790087 68.482725 
L 264.386177 70.965621 
L 264.982267 67.626555 
L 265.578357 70.451918 
L 266.770537 67.797789 
L 267.366627 67.797789 
L 267.962718 70.195067 
L 268.558808 68.311491 
L 269.154898 68.140257 
L 269.750988 68.140257 
L 270.347078 70.10945 
L 270.943168 66.513532 
L 271.539259 71.136855 
L 272.135349 70.195067 
L 272.731439 68.482725 
L 273.327529 68.05464 
L 273.923619 68.568342 
L 274.519709 68.05464 
L 275.1158 68.739577 
L 275.71189 72.506728 
L 276.30798 69.082045 
L 276.90407 69.51013 
L 277.50016 66.171064 
L 278.09625 67.883406 
L 278.692341 65.229276 
L 279.288431 68.05464 
L 279.884521 66.941618 
L 280.480611 67.969023 
L 281.076701 69.424513 
L 281.672791 68.140257 
L 282.268882 69.082045 
L 282.864972 66.427915 
L 283.461062 66.085447 
L 284.057152 66.513532 
L 284.653242 67.540937 
L 285.249332 66.085447 
L 285.845422 66.941618 
L 286.441513 66.427915 
L 287.037603 67.027235 
L 287.633693 66.342298 
L 288.229783 62.831998 
L 288.825873 67.712172 
L 289.421963 67.369703 
L 290.018054 68.05464 
L 290.614144 66.599149 
L 291.210234 65.657362 
L 291.806324 67.883406 
L 292.402414 65.914213 
L 292.998504 66.256681 
L 293.594595 64.801191 
L 294.190685 65.99983 
L 294.786775 65.828596 
L 295.382865 65.99983 
L 295.978955 65.742979 
L 296.575045 70.023833 
L 297.767226 65.914213 
L 298.363316 65.914213 
L 298.959406 67.626555 
L 299.555496 65.571744 
L 300.151586 65.828596 
L 301.343767 68.140257 
L 301.939857 64.972425 
L 302.535947 67.45532 
L 303.132037 66.770384 
L 303.728127 66.941618 
L 304.324217 64.715574 
L 304.920308 64.972425 
L 305.516398 64.458722 
L 306.112488 67.112852 
L 306.708578 64.972425 
L 307.900758 66.856001 
L 308.496849 65.828596 
L 309.092939 66.770384 
L 309.689029 64.972425 
L 310.285119 65.229276 
L 310.881209 63.859403 
L 311.477299 67.626555 
L 312.07339 64.886808 
L 313.26557 66.256681 
L 313.86166 64.544339 
L 314.45775 65.828596 
L 315.05384 67.969023 
L 315.649931 65.143659 
L 316.246021 67.969023 
L 316.842111 65.828596 
L 317.438201 66.427915 
L 318.034291 64.715574 
L 318.630381 65.657362 
L 319.226472 64.715574 
L 319.822562 66.770384 
L 320.418652 64.886808 
L 321.014742 63.516934 
L 321.610832 65.40051 
L 322.206922 66.427915 
L 322.803012 65.314893 
L 323.399103 65.143659 
L 323.995193 63.773786 
L 324.591283 61.462124 
L 325.187373 64.458722 
L 325.783463 64.972425 
L 326.379553 64.116254 
L 326.975644 65.828596 
L 327.571734 65.571744 
L 328.167824 65.914213 
L 328.763914 65.99983 
L 329.360004 64.201871 
L 329.956094 64.801191 
L 330.552185 63.688169 
L 331.148275 64.030637 
L 331.744365 63.174466 
L 332.340455 63.174466 
L 332.936545 62.917615 
L 333.532635 64.287488 
L 334.128726 67.027235 
L 334.724816 62.232678 
L 335.320906 64.972425 
L 335.916996 63.431317 
L 336.513086 64.201871 
L 337.109176 64.544339 
L 337.705267 63.260083 
L 338.301357 63.94502 
L 338.897447 64.287488 
L 339.493537 64.801191 
L 340.089627 63.516934 
L 340.685717 65.229276 
L 341.281807 61.633359 
L 341.877898 64.201871 
L 342.473988 63.688169 
L 343.070078 65.40051 
L 343.666168 63.088849 
L 344.262258 65.143659 
L 344.858348 63.602552 
L 345.454439 64.201871 
L 346.050529 64.287488 
L 346.646619 62.403912 
L 347.242709 66.256681 
L 347.838799 65.314893 
L 348.434889 63.516934 
L 349.62707 62.061444 
L 350.22316 65.058042 
L 350.81925 63.94502 
L 351.41534 62.318295 
L 352.01143 64.544339 
L 352.607521 63.688169 
L 353.203611 64.458722 
L 353.799701 65.486127 
L 354.395791 63.516934 
L 354.991881 65.143659 
L 355.587971 62.489529 
L 356.184062 61.975827 
L 356.780152 63.088849 
L 357.376242 62.489529 
L 357.972332 63.431317 
L 358.568422 65.828596 
L 359.164512 63.516934 
L 359.760602 63.516934 
L 360.356693 65.486127 
L 360.952783 62.232678 
L 361.548873 63.516934 
L 362.144963 63.94502 
L 362.741053 61.633359 
L 363.337143 64.458722 
L 363.933234 64.030637 
L 364.529324 63.859403 
L 365.125414 63.94502 
L 365.721504 62.575146 
L 366.317594 65.143659 
L 366.913684 61.633359 
L 367.509775 64.287488 
L 368.105865 63.003232 
L 368.701955 62.575146 
L 369.298045 63.260083 
L 369.894135 65.143659 
L 370.490225 62.147061 
L 371.086316 63.260083 
L 371.682406 62.232678 
L 372.278496 64.030637 
L 372.874586 62.403912 
L 373.470676 63.688169 
L 374.066766 63.773786 
L 374.662857 62.831998 
L 375.258947 62.575146 
L 375.855037 62.147061 
L 376.451127 62.061444 
L 377.047217 64.287488 
L 377.643307 63.174466 
L 378.239398 62.318295 
L 378.835488 62.831998 
L 379.431578 63.516934 
L 380.027668 60.691571 
L 380.623758 64.201871 
L 381.219848 63.516934 
L 381.815938 64.116254 
L 383.008119 63.602552 
L 383.604209 63.94502 
L 384.200299 62.746381 
L 384.796389 62.917615 
L 385.392479 63.773786 
L 385.98857 65.742979 
L 386.58466 63.3457 
L 387.18075 63.174466 
L 387.77684 63.859403 
L 388.37293 61.547741 
L 389.565111 62.831998 
L 390.161201 61.547741 
L 390.757291 61.975827 
L 391.353381 61.547741 
L 391.949471 62.061444 
L 392.545561 61.633359 
L 393.141652 61.975827 
L 393.737742 64.116254 
L 394.333832 61.205273 
L 394.929922 63.773786 
L 395.526012 62.575146 
L 396.122102 62.660764 
L 396.718193 64.373105 
L 397.314283 62.061444 
L 397.910373 61.29089 
L 398.506463 61.547741 
L 399.102553 63.088849 
L 399.698643 61.034039 
L 400.294733 61.29089 
L 400.890824 61.89021 
L 401.486914 62.318295 
L 402.083004 61.975827 
L 402.679094 63.003232 
L 403.275184 63.174466 
L 403.871274 61.462124 
L 404.467365 61.547741 
L 405.063455 61.376507 
L 405.659545 60.948422 
L 406.255635 60.948422 
L 406.851725 60.605954 
L 407.447815 62.147061 
L 408.043906 59.407314 
L 408.639996 60.177868 
L 409.832176 60.263485 
L 410.428266 63.3457 
L 411.024356 61.034039 
L 411.620447 63.602552 
L 412.216537 60.862805 
L 413.408717 62.746381 
L 414.004807 61.89021 
L 414.600897 61.89021 
L 415.196988 62.831998 
L 415.793078 64.458722 
L 416.389168 61.718976 
L 416.985258 60.777188 
L 417.581348 61.633359 
L 418.177438 61.547741 
L 418.773528 62.489529 
L 419.369619 62.660764 
L 419.965709 58.979229 
L 420.561799 61.975827 
L 421.753979 61.119656 
L 422.350069 60.177868 
L 422.94616 61.462124 
L 423.54225 61.119656 
L 424.13834 62.831998 
L 424.73443 62.660764 
L 425.33052 61.718976 
L 425.92661 61.804593 
L 426.522701 60.605954 
L 427.118791 61.205273 
L 427.714881 60.862805 
L 428.310971 63.516934 
L 428.907061 60.263485 
L 429.503151 60.862805 
L 430.099242 62.746381 
L 430.695332 61.975827 
L 431.291422 63.773786 
L 431.887512 63.859403 
L 432.483602 61.633359 
L 433.079692 62.660764 
L 433.675783 62.746381 
L 434.271873 60.177868 
L 434.867963 63.431317 
L 435.464053 61.034039 
L 436.060143 61.034039 
L 436.656233 63.003232 
L 437.252323 61.718976 
L 437.848414 62.575146 
L 438.444504 63.003232 
L 439.040594 61.975827 
L 439.636684 62.403912 
L 440.232774 62.660764 
L 440.828864 61.376507 
L 441.424955 62.489529 
L 442.021045 60.177868 
L 442.617135 61.633359 
L 443.213225 60.092251 
L 444.405405 61.975827 
L 445.597586 62.575146 
L 446.193676 63.003232 
L 446.789766 59.921017 
L 447.385856 64.287488 
L 447.981946 59.921017 
L 448.578037 61.034039 
L 449.174127 60.777188 
L 449.770217 59.578548 
L 450.366307 62.403912 
L 450.962397 61.804593 
L 451.558487 62.061444 
L 452.154578 60.263485 
L 452.750668 60.520336 
L 453.346758 60.605954 
L 453.942848 61.29089 
L 454.538938 62.660764 
L 455.135028 60.777188 
L 455.731118 61.718976 
L 456.327209 61.205273 
L 456.923299 60.349102 
L 457.519389 61.633359 
L 458.115479 61.462124 
L 458.711569 63.773786 
L 459.307659 60.691571 
L 459.90375 60.520336 
L 460.49984 59.064846 
L 461.09593 61.462124 
L 461.69202 60.691571 
L 462.28811 59.407314 
L 462.8842 60.948422 
L 463.480291 60.092251 
L 464.076381 61.975827 
L 464.672471 60.605954 
L 465.268561 60.177868 
L 465.864651 63.003232 
L 466.460741 59.578548 
L 467.056832 60.177868 
L 467.652922 62.232678 
L 468.249012 61.462124 
L 468.845102 61.034039 
L 469.441192 61.975827 
L 470.037282 60.263485 
L 470.633373 59.921017 
L 471.229463 58.893612 
L 471.825553 59.150463 
L 472.421643 62.831998 
L 473.017733 59.492931 
L 473.613823 60.434719 
L 474.209913 59.921017 
L 474.806004 58.722378 
L 475.402094 60.948422 
L 475.998184 60.349102 
L 476.594274 58.893612 
L 477.190364 58.551143 
L 477.786454 59.749783 
L 478.382545 60.349102 
L 478.978635 60.520336 
L 479.574725 61.718976 
L 480.170815 59.8354 
L 480.766905 60.605954 
L 481.362995 58.551143 
L 481.959086 61.89021 
L 482.555176 62.147061 
L 483.151266 61.633359 
L 483.747356 59.23608 
L 484.343446 60.349102 
L 484.939536 63.516934 
L 485.535627 60.691571 
L 486.131717 61.462124 
L 487.323897 60.006634 
L 487.919987 61.29089 
L 488.516077 59.064846 
L 489.112168 61.718976 
L 489.708258 61.376507 
L 490.304348 62.318295 
L 490.900438 59.664166 
L 491.496528 59.8354 
L 492.092618 60.948422 
L 492.688708 59.23608 
L 493.284799 58.465526 
L 493.880889 58.465526 
L 494.476979 61.804593 
L 495.073069 58.123058 
L 495.669159 60.520336 
L 496.86134 59.407314 
L 497.45743 60.520336 
L 498.05352 60.605954 
L 498.64961 60.006634 
L 499.2457 60.006634 
L 499.84179 60.520336 
L 500.437881 61.547741 
L 501.033971 58.807995 
L 501.630061 60.605954 
L 502.226151 60.349102 
L 502.822241 59.749783 
L 503.418331 59.921017 
L 504.014422 60.349102 
L 505.206602 59.749783 
L 505.802692 60.006634 
L 506.994872 60.862805 
L 507.590963 60.691571 
L 508.187053 61.376507 
L 508.783143 57.951824 
L 509.379233 61.205273 
L 509.975323 60.948422 
L 510.571413 61.804593 
L 511.167503 61.804593 
L 511.763594 58.208675 
L 512.359684 60.349102 
L 512.955774 60.177868 
L 513.551864 60.777188 
L 514.147954 60.092251 
L 514.744044 61.034039 
L 515.340135 60.349102 
L 515.936225 58.636761 
L 516.532315 62.232678 
L 517.128405 61.119656 
L 517.724495 60.948422 
L 518.320585 61.462124 
L 518.916676 60.263485 
L 519.512766 59.8354 
L 520.108856 60.006634 
L 520.704946 60.691571 
L 521.301036 61.89021 
L 521.897126 58.979229 
L 522.493217 59.407314 
L 523.089307 58.208675 
L 523.685397 60.006634 
L 524.281487 60.520336 
L 524.877577 59.23608 
L 525.473667 59.8354 
L 526.069758 57.438121 
L 526.665848 61.804593 
L 527.261938 60.177868 
L 527.858028 59.407314 
L 528.454118 59.578548 
L 529.050208 58.294292 
L 529.646298 59.749783 
L 530.242389 60.263485 
L 530.838479 59.749783 
L 531.434569 58.636761 
L 532.030659 61.804593 
L 532.626749 59.8354 
L 533.222839 60.177868 
L 534.41502 58.037441 
L 535.01111 59.492931 
L 535.6072 59.064846 
L 536.20329 60.862805 
L 536.79938 60.177868 
L 537.395471 58.807995 
L 537.991561 59.921017 
L 539.183741 58.722378 
L 539.779831 60.006634 
L 540.375921 58.893612 
L 540.972012 59.321697 
L 541.568102 58.465526 
L 542.164192 59.578548 
L 542.760282 61.89021 
L 543.356372 58.893612 
L 543.952462 59.921017 
L 544.548553 60.691571 
L 545.144643 61.205273 
L 545.740733 58.722378 
L 546.336823 60.349102 
L 546.932913 60.605954 
L 548.125093 60.177868 
L 548.721184 59.150463 
L 549.317274 58.551143 
L 549.913364 58.636761 
L 550.509454 62.660764 
L 551.105544 59.321697 
L 551.701634 59.150463 
L 552.297725 58.379909 
L 552.893815 60.862805 
L 553.489905 58.037441 
L 554.085995 58.379909 
L 554.682085 59.492931 
L 555.874266 59.150463 
L 556.470356 60.520336 
L 557.066446 59.23608 
L 557.662536 60.177868 
L 558.258626 58.037441 
L 558.854716 58.893612 
L 559.450807 60.434719 
L 560.046897 60.691571 
L 560.642987 60.605954 
L 561.239077 61.034039 
L 561.835167 59.064846 
L 562.431257 58.722378 
L 563.027348 59.749783 
L 563.623438 57.609356 
L 564.219528 57.78059 
L 564.815618 59.321697 
L 565.411708 59.064846 
L 566.007798 58.123058 
L 566.603888 58.722378 
L 567.199979 58.979229 
L 567.796069 58.123058 
L 568.392159 60.092251 
L 568.988249 60.006634 
L 569.584339 61.547741 
L 570.77652 58.807995 
L 571.37261 58.465526 
L 571.9687 60.092251 
L 572.56479 59.664166 
L 573.16088 58.807995 
L 573.75697 58.807995 
L 574.353061 57.438121 
L 574.949151 60.006634 
L 575.545241 59.921017 
L 576.141331 61.205273 
L 576.737421 59.8354 
L 577.929602 58.465526 
L 578.525692 58.722378 
L 579.121782 59.921017 
L 579.717872 58.379909 
L 580.313962 59.321697 
L 580.910052 57.609356 
L 581.506143 60.349102 
L 582.102233 60.605954 
L 582.698323 60.605954 
L 583.294413 58.636761 
L 583.890503 61.29089 
L 584.486593 59.8354 
L 585.082683 59.23608 
L 585.678774 58.037441 
L 586.274864 57.523738 
L 586.870954 60.520336 
L 587.467044 59.8354 
L 588.063134 61.547741 
L 588.659224 59.064846 
L 589.255315 58.037441 
L 589.851405 58.465526 
L 590.447495 59.064846 
L 591.043585 57.352504 
L 591.639675 58.551143 
L 592.235765 58.294292 
L 592.831856 60.605954 
L 593.427946 58.123058 
L 594.024036 58.807995 
L 594.620126 58.123058 
L 595.216216 59.578548 
L 595.812306 56.838802 
L 596.408397 58.465526 
L 597.004487 58.037441 
L 598.196667 60.862805 
L 598.792757 59.150463 
L 599.984938 58.379909 
L 600.581028 58.379909 
L 601.177118 59.321697 
L 601.773208 57.266887 
L 602.369298 59.921017 
L 602.965388 57.951824 
L 603.561478 58.551143 
L 604.157569 57.352504 
L 604.753659 58.893612 
L 605.349749 58.123058 
L 605.945839 58.893612 
L 606.541929 58.722378 
L 607.138019 60.177868 
L 607.73411 57.866207 
L 608.3302 58.465526 
L 609.52238 58.893612 
L 610.11847 58.979229 
L 610.71456 58.551143 
L 611.310651 57.78059 
L 611.906741 59.150463 
L 612.502831 56.667568 
L 613.098921 60.177868 
L 613.695011 58.893612 
L 614.291101 58.979229 
L 614.887192 57.866207 
L 615.483282 58.551143 
L 616.079372 57.694973 
L 616.675462 58.123058 
L 617.271552 57.609356 
L 618.463733 60.948422 
L 619.059823 58.807995 
L 619.655913 59.492931 
L 620.252003 58.551143 
L 620.848093 59.23608 
L 621.444183 57.523738 
L 622.040273 59.578548 
L 622.636364 58.465526 
L 622.636364 58.465526 
" style="fill:none;stroke:#1f77b4;stroke-linecap:square;stroke-width:0.5;"/>
   </g>
   <g id="line2d_28">
    <path clip-path="url(#p6f09dc4eda)" d="M 115.363636 302.645455 
L 115.959727 296.138556 
L 116.555817 291.943319 
L 117.151907 294.768683 
L 117.747997 296.566641 
L 118.344087 294.683066 
L 118.940177 295.196768 
L 119.536267 293.998129 
L 120.132358 296.652259 
L 120.728448 291.172765 
L 121.324538 289.203572 
L 121.920628 292.285787 
L 122.516718 288.176167 
L 123.112808 286.549442 
L 123.708899 290.402211 
L 124.304989 283.38161 
L 124.901079 282.782291 
L 125.497169 284.837101 
L 126.093259 286.206974 
L 126.689349 281.155566 
L 127.28544 278.587053 
L 127.88153 280.727481 
L 128.47762 273.878114 
L 129.07371 273.535645 
L 129.6698 266.34381 
L 130.26589 268.227386 
L 131.458071 258.809507 
L 132.054161 257.268399 
L 132.650251 259.151975 
L 133.246341 251.36082 
L 133.842431 250.076564 
L 134.438522 247.85052 
L 135.034612 243.655283 
L 135.630702 235.949745 
L 136.226792 235.436042 
L 136.822882 227.816122 
L 137.418972 226.7031 
L 138.015062 223.192799 
L 138.611153 214.374239 
L 139.207243 213.004366 
L 139.803333 205.812531 
L 140.399423 204.785126 
L 141.591603 191.856946 
L 142.187694 192.285031 
L 143.379874 182.952769 
L 143.975964 180.384256 
L 144.572054 170.623909 
L 145.168144 170.110206 
L 146.956415 158.038197 
L 147.552505 159.493687 
L 148.744685 150.418276 
L 149.340776 152.815555 
L 149.936866 148.020998 
L 150.532956 147.507295 
L 151.129046 145.366868 
L 151.725136 141.942185 
L 152.321226 143.568909 
L 152.917317 138.945587 
L 153.513407 140.572311 
L 154.109497 137.062011 
L 154.705587 132.181837 
L 155.301677 129.698942 
L 155.897767 130.04141 
L 156.493857 127.729749 
L 157.089948 131.240049 
L 157.686038 127.900983 
L 158.282128 126.103024 
L 159.474308 124.818768 
L 160.070398 123.87698 
L 160.666489 117.11323 
L 161.262579 120.794765 
L 161.858669 117.71255 
L 162.454759 120.452296 
L 163.050849 113.346078 
L 163.646939 118.56872 
L 164.24303 112.917993 
L 164.83912 115.743357 
L 165.43521 114.4591 
L 166.0313 112.147439 
L 166.62739 113.089227 
L 167.22348 110.263863 
L 167.819571 109.407692 
L 168.415661 104.527518 
L 169.011751 109.407692 
L 169.607841 105.640541 
L 170.203931 106.068626 
L 170.800021 106.924797 
L 171.396112 103.243262 
L 171.992202 101.959006 
L 172.588292 101.102835 
L 173.184382 103.414496 
L 173.780472 100.246664 
L 174.376562 103.328879 
L 175.568743 100.246664 
L 176.164833 99.390493 
L 176.760923 97.250066 
L 177.357013 98.962408 
L 177.953103 95.280873 
L 178.549193 95.109639 
L 179.145284 94.253468 
L 179.741374 93.739766 
L 180.337464 95.537724 
L 181.529644 92.541126 
L 182.125734 91.941807 
L 182.721825 91.000019 
L 183.317915 89.544528 
L 183.914005 88.945209 
L 184.510095 87.14725 
L 185.106185 87.318484 
L 185.702275 88.345889 
L 186.298366 88.688358 
L 186.894456 87.917804 
L 187.490546 88.174655 
L 188.086636 85.178057 
L 188.682726 89.116443 
L 189.278816 85.006823 
L 189.874907 88.003421 
L 190.470997 84.749972 
L 191.067087 87.917804 
L 191.663177 86.976016 
L 192.259267 84.321886 
L 192.855357 85.006823 
L 193.451447 84.578737 
L 194.643628 82.609545 
L 195.239718 79.784181 
L 195.835808 81.667757 
L 196.431898 82.010225 
L 197.027988 82.609545 
L 197.624079 81.068437 
L 198.220169 78.671159 
L 198.816259 82.866396 
L 199.412349 84.150652 
L 200.008439 80.554734 
L 200.604529 81.838991 
L 201.20062 78.071839 
L 201.79671 80.811586 
L 202.3928 77.986222 
L 202.98889 81.924608 
L 203.58498 76.787583 
L 204.18107 77.814988 
L 205.373251 76.787583 
L 205.969341 78.756776 
L 206.565431 77.130051 
L 207.161521 74.989624 
L 207.757611 77.900605 
L 208.353702 77.472519 
L 208.949792 76.359497 
L 209.545882 73.962219 
L 210.738062 77.814988 
L 211.334152 75.588943 
L 211.930242 75.931412 
L 212.526333 74.732773 
L 213.122423 77.301285 
L 214.314603 73.191665 
L 214.910693 76.27388 
L 215.506783 74.647156 
L 216.102874 72.078643 
L 216.698964 72.421111 
L 217.295054 73.790985 
L 217.891144 73.962219 
L 218.487234 74.304687 
L 219.083324 71.907409 
L 219.679415 72.592345 
L 220.275505 72.934814 
L 221.467685 70.451918 
L 222.063775 71.308089 
L 222.659865 73.020431 
L 223.255956 72.421111 
L 224.448136 72.934814 
L 225.044226 71.736175 
L 225.640316 73.362899 
L 226.236406 70.880004 
L 226.832497 69.51013 
L 227.428587 71.136855 
L 228.024677 71.393706 
L 228.620767 70.965621 
L 229.216857 69.167662 
L 229.812947 72.421111 
L 230.409037 69.595747 
L 231.005128 71.051238 
L 232.197308 68.568342 
L 232.793398 70.70877 
L 233.389488 71.051238 
L 233.985578 70.537535 
L 234.581669 69.253279 
L 235.177759 70.10945 
L 235.773849 69.595747 
L 236.369939 68.568342 
L 236.966029 68.910811 
L 237.562119 68.996428 
L 238.7543 68.65396 
L 239.35039 73.619751 
L 239.94648 70.195067 
L 240.54257 65.99983 
L 241.13866 68.225874 
L 241.734751 67.883406 
L 242.330841 68.910811 
L 242.926931 67.027235 
L 243.523021 66.085447 
L 244.119111 71.136855 
L 244.715201 71.393706 
L 245.311292 67.027235 
L 245.907382 67.626555 
L 246.503472 68.482725 
L 247.099562 68.482725 
L 247.695652 66.856001 
L 248.291742 66.513532 
L 248.887832 66.599149 
L 249.483923 69.595747 
L 250.080013 67.45532 
L 250.676103 68.825194 
L 251.272193 67.45532 
L 252.464373 66.684767 
L 253.060464 67.883406 
L 253.656554 67.112852 
L 254.252644 67.027235 
L 254.848734 67.45532 
L 255.444824 66.427915 
L 256.040914 68.140257 
L 256.637005 66.684767 
L 257.233095 66.171064 
L 257.829185 64.886808 
L 258.425275 68.910811 
L 259.021365 66.171064 
L 259.617455 64.972425 
L 260.213546 66.256681 
L 260.809636 69.082045 
L 261.405726 66.256681 
L 262.001816 67.626555 
L 262.597906 66.171064 
L 263.193996 67.969023 
L 263.790087 65.742979 
L 264.386177 66.171064 
L 264.982267 69.082045 
L 265.578357 65.314893 
L 266.174447 66.256681 
L 266.770537 66.427915 
L 267.962718 65.742979 
L 268.558808 66.085447 
L 269.154898 68.739577 
L 269.750988 66.856001 
L 270.347078 66.599149 
L 270.943168 66.684767 
L 271.539259 64.972425 
L 272.135349 68.140257 
L 272.731439 65.742979 
L 273.327529 67.027235 
L 273.923619 64.972425 
L 274.519709 67.45532 
L 275.1158 67.027235 
L 275.71189 65.828596 
L 276.30798 67.027235 
L 276.90407 67.027235 
L 277.50016 64.544339 
L 278.09625 68.225874 
L 278.692341 64.886808 
L 279.288431 63.859403 
L 279.884521 64.629957 
L 280.480611 66.941618 
L 281.076701 68.397108 
L 281.672791 64.373105 
L 282.268882 63.94502 
L 282.864972 65.657362 
L 283.461062 64.030637 
L 284.057152 64.972425 
L 284.653242 63.431317 
L 285.249332 63.688169 
L 285.845422 64.801191 
L 287.037603 62.831998 
L 287.633693 65.40051 
L 288.229783 64.201871 
L 288.825873 61.718976 
L 289.421963 64.886808 
L 290.018054 64.373105 
L 290.614144 63.260083 
L 291.806324 63.516934 
L 292.402414 64.116254 
L 292.998504 62.831998 
L 293.594595 63.773786 
L 294.190685 63.602552 
L 294.786775 64.458722 
L 295.382865 62.831998 
L 295.978955 66.427915 
L 296.575045 64.373105 
L 297.171136 65.914213 
L 297.767226 63.602552 
L 298.363316 64.373105 
L 298.959406 62.917615 
L 299.555496 63.94502 
L 300.151586 63.003232 
L 300.747677 63.3457 
L 301.343767 62.746381 
L 301.939857 63.859403 
L 303.132037 64.801191 
L 303.728127 63.088849 
L 304.324217 63.174466 
L 304.920308 64.287488 
L 305.516398 64.116254 
L 306.112488 63.003232 
L 306.708578 62.746381 
L 307.304668 61.547741 
L 307.900758 62.746381 
L 308.496849 64.287488 
L 309.092939 63.260083 
L 309.689029 62.489529 
L 310.285119 63.773786 
L 311.477299 63.088849 
L 312.66948 63.431317 
L 313.26557 62.232678 
L 313.86166 61.376507 
L 315.05384 65.657362 
L 315.649931 63.431317 
L 316.246021 62.318295 
L 316.842111 63.688169 
L 317.438201 62.318295 
L 318.034291 63.3457 
L 318.630381 61.376507 
L 319.226472 64.544339 
L 319.822562 61.89021 
L 320.418652 62.232678 
L 321.014742 63.688169 
L 321.610832 62.403912 
L 322.206922 63.260083 
L 322.803012 62.575146 
L 323.995193 62.660764 
L 324.591283 61.205273 
L 325.187373 63.003232 
L 325.783463 64.116254 
L 326.379553 61.205273 
L 326.975644 61.547741 
L 327.571734 60.777188 
L 328.167824 60.605954 
L 328.763914 62.575146 
L 329.360004 63.174466 
L 329.956094 62.831998 
L 330.552185 61.804593 
L 331.148275 61.205273 
L 332.340455 61.462124 
L 332.936545 60.177868 
L 333.532635 61.034039 
L 334.128726 60.177868 
L 335.320906 61.89021 
L 335.916996 61.376507 
L 336.513086 61.205273 
L 337.109176 61.89021 
L 337.705267 60.177868 
L 338.897447 63.94502 
L 339.493537 62.232678 
L 340.089627 62.831998 
L 341.281807 62.232678 
L 341.877898 62.831998 
L 342.473988 62.318295 
L 343.070078 60.349102 
L 343.666168 62.917615 
L 344.262258 62.403912 
L 345.454439 59.921017 
L 346.050529 62.489529 
L 346.646619 63.602552 
L 347.242709 60.520336 
L 347.838799 60.691571 
L 348.434889 61.89021 
L 349.03098 60.092251 
L 349.62707 60.948422 
L 350.22316 62.318295 
L 350.81925 62.318295 
L 351.41534 59.321697 
L 352.01143 62.746381 
L 352.607521 62.147061 
L 353.203611 62.061444 
L 354.395791 61.205273 
L 354.991881 61.718976 
L 355.587971 60.691571 
L 356.184062 61.29089 
L 356.780152 60.434719 
L 357.376242 61.205273 
L 357.972332 63.431317 
L 359.164512 61.205273 
L 359.760602 61.718976 
L 360.356693 64.030637 
L 360.952783 61.29089 
L 361.548873 59.664166 
L 362.144963 61.89021 
L 362.741053 60.520336 
L 363.337143 60.948422 
L 363.933234 62.917615 
L 364.529324 60.777188 
L 365.125414 61.119656 
L 365.721504 61.205273 
L 366.317594 60.263485 
L 366.913684 59.8354 
L 367.509775 63.688169 
L 368.105865 60.092251 
L 368.701955 60.092251 
L 369.298045 59.921017 
L 369.894135 61.376507 
L 370.490225 61.034039 
L 371.086316 59.921017 
L 371.682406 61.547741 
L 372.874586 59.150463 
L 373.470676 61.034039 
L 374.066766 61.718976 
L 374.662857 61.29089 
L 375.258947 61.804593 
L 376.451127 60.092251 
L 377.047217 62.061444 
L 377.643307 61.975827 
L 378.239398 61.119656 
L 378.835488 61.034039 
L 379.431578 62.147061 
L 380.027668 62.147061 
L 380.623758 61.89021 
L 381.219848 59.407314 
L 382.412029 60.948422 
L 383.008119 59.321697 
L 383.604209 62.318295 
L 384.200299 61.29089 
L 384.796389 59.921017 
L 385.392479 59.8354 
L 385.98857 59.921017 
L 386.58466 62.147061 
L 387.18075 62.061444 
L 387.77684 60.177868 
L 388.37293 58.893612 
L 388.96902 60.520336 
L 389.565111 60.520336 
L 390.161201 59.921017 
L 390.757291 58.379909 
L 391.353381 59.8354 
L 391.949471 59.23608 
L 392.545561 60.862805 
L 393.141652 60.349102 
L 393.737742 61.718976 
L 394.333832 62.061444 
L 394.929922 60.092251 
L 395.526012 58.722378 
L 396.122102 59.921017 
L 397.314283 59.749783 
L 397.910373 59.407314 
L 398.506463 59.578548 
L 399.102553 60.605954 
L 399.698643 61.376507 
L 400.294733 60.092251 
L 400.890824 59.664166 
L 401.486914 58.893612 
L 402.083004 60.177868 
L 402.679094 58.807995 
L 403.275184 60.349102 
L 404.467365 58.465526 
L 405.063455 59.321697 
L 405.659545 59.492931 
L 406.255635 58.123058 
L 406.851725 59.578548 
L 407.447815 57.438121 
L 408.043906 58.893612 
L 408.639996 60.862805 
L 409.236086 60.520336 
L 409.832176 59.492931 
L 410.428266 59.150463 
L 411.024356 59.321697 
L 411.620447 60.520336 
L 412.216537 59.23608 
L 412.812627 58.379909 
L 414.004807 59.749783 
L 414.600897 59.150463 
L 415.196988 59.749783 
L 415.793078 60.862805 
L 416.389168 61.376507 
L 416.985258 59.407314 
L 417.581348 60.691571 
L 418.177438 58.551143 
L 418.773528 60.006634 
L 419.369619 60.862805 
L 419.965709 59.921017 
L 420.561799 59.321697 
L 421.157889 60.777188 
L 421.753979 58.807995 
L 422.350069 58.551143 
L 422.94616 59.23608 
L 423.54225 59.064846 
L 424.13834 59.578548 
L 424.73443 59.921017 
L 425.33052 60.006634 
L 426.522701 58.465526 
L 427.118791 60.434719 
L 427.714881 60.605954 
L 428.310971 58.551143 
L 428.907061 58.037441 
L 429.503151 58.037441 
L 430.099242 58.465526 
L 430.695332 60.006634 
L 431.887512 61.718976 
L 432.483602 59.321697 
L 433.079692 59.407314 
L 434.271873 60.349102 
L 434.867963 59.921017 
L 435.464053 60.006634 
L 436.060143 59.578548 
L 436.656233 57.866207 
L 437.252323 59.407314 
L 437.848414 58.551143 
L 438.444504 59.064846 
L 439.040594 58.636761 
L 439.636684 60.691571 
L 440.232774 60.177868 
L 440.828864 58.722378 
L 441.424955 58.807995 
L 442.021045 59.749783 
L 443.213225 59.150463 
L 443.809315 59.664166 
L 444.405405 58.294292 
L 445.001496 59.578548 
L 445.597586 60.520336 
L 446.193676 59.150463 
L 446.789766 58.465526 
L 447.385856 58.636761 
L 447.981946 59.664166 
L 448.578037 59.578548 
L 449.174127 58.807995 
L 449.770217 60.777188 
L 450.366307 58.979229 
L 450.962397 58.979229 
L 451.558487 58.465526 
L 452.154578 60.006634 
L 452.750668 61.119656 
L 453.346758 58.722378 
L 453.942848 56.838802 
L 454.538938 59.23608 
L 455.135028 60.092251 
L 455.731118 60.263485 
L 456.327209 58.893612 
L 457.519389 58.465526 
L 458.115479 58.551143 
L 458.711569 57.866207 
L 459.307659 59.407314 
L 459.90375 59.664166 
L 460.49984 60.605954 
L 461.09593 60.349102 
L 461.69202 59.23608 
L 462.28811 58.465526 
L 462.8842 59.064846 
L 463.480291 62.660764 
L 464.076381 59.23608 
L 464.672471 58.379909 
L 465.268561 58.893612 
L 465.864651 58.465526 
L 466.460741 60.092251 
L 467.056832 59.492931 
L 467.652922 57.78059 
L 468.249012 60.948422 
L 468.845102 57.694973 
L 469.441192 59.8354 
L 470.037282 59.321697 
L 470.633373 59.150463 
L 471.229463 58.807995 
L 471.825553 59.321697 
L 472.421643 58.208675 
L 473.017733 58.979229 
L 473.613823 56.667568 
L 474.209913 59.664166 
L 475.402094 60.434719 
L 475.998184 60.006634 
L 476.594274 58.807995 
L 477.190364 58.208675 
L 477.786454 59.664166 
L 478.382545 59.492931 
L 478.978635 58.979229 
L 479.574725 60.092251 
L 480.170815 59.150463 
L 480.766905 58.722378 
L 481.362995 59.150463 
L 481.959086 58.551143 
L 482.555176 59.492931 
L 483.151266 60.691571 
L 483.747356 58.379909 
L 484.343446 58.551143 
L 484.939536 56.496333 
L 485.535627 59.749783 
L 486.131717 58.294292 
L 486.727807 59.578548 
L 487.323897 57.78059 
L 488.516077 59.8354 
L 489.112168 59.664166 
L 489.708258 58.123058 
L 490.304348 57.438121 
L 490.900438 59.8354 
L 491.496528 57.523738 
L 492.092618 57.866207 
L 492.688708 58.465526 
L 493.284799 61.119656 
L 493.880889 58.465526 
L 494.476979 57.866207 
L 495.073069 57.609356 
L 495.669159 60.605954 
L 496.265249 57.866207 
L 496.86134 60.434719 
L 497.45743 60.862805 
L 498.05352 57.010036 
L 498.64961 56.924419 
L 499.2457 58.893612 
L 499.84179 58.636761 
L 500.437881 60.263485 
L 501.033971 57.609356 
L 501.630061 59.150463 
L 502.226151 58.893612 
L 502.822241 57.438121 
L 503.418331 58.722378 
L 504.014422 58.294292 
L 504.610512 58.294292 
L 505.206602 58.465526 
L 505.802692 59.064846 
L 506.398782 60.177868 
L 506.994872 58.123058 
L 507.590963 58.208675 
L 508.187053 57.694973 
L 508.783143 57.866207 
L 509.379233 59.921017 
L 509.975323 58.893612 
L 510.571413 56.667568 
L 511.167503 58.379909 
L 511.763594 58.379909 
L 512.359684 57.438121 
L 512.955774 59.321697 
L 513.551864 59.321697 
L 514.744044 58.551143 
L 515.340135 58.208675 
L 515.936225 59.578548 
L 516.532315 57.78059 
L 517.128405 57.438121 
L 517.724495 59.150463 
L 518.320585 57.866207 
L 518.916676 57.609356 
L 520.108856 58.979229 
L 520.704946 59.150463 
L 521.301036 59.150463 
L 521.897126 58.551143 
L 522.493217 56.153865 
L 523.089307 57.951824 
L 523.685397 58.379909 
L 524.281487 58.294292 
L 524.877577 59.749783 
L 525.473667 58.123058 
L 526.069758 58.551143 
L 526.665848 55.897014 
L 527.261938 60.177868 
L 527.858028 57.609356 
L 528.454118 58.379909 
L 529.050208 57.866207 
L 529.646298 58.807995 
L 530.242389 59.064846 
L 530.838479 57.866207 
L 531.434569 57.010036 
L 532.030659 57.609356 
L 532.626749 57.523738 
L 533.222839 57.78059 
L 533.81893 57.523738 
L 534.41502 58.037441 
L 535.01111 58.294292 
L 535.6072 57.694973 
L 536.20329 56.325099 
L 536.79938 58.551143 
L 537.395471 58.208675 
L 537.991561 58.123058 
L 538.587651 59.407314 
L 539.183741 59.150463 
L 539.779831 58.123058 
L 540.375921 59.8354 
L 540.972012 57.266887 
L 541.568102 58.722378 
L 542.164192 58.636761 
L 542.760282 57.694973 
L 543.952462 58.636761 
L 544.548553 58.551143 
L 545.144643 59.578548 
L 545.740733 58.123058 
L 546.336823 58.636761 
L 546.932913 57.78059 
L 547.529003 58.465526 
L 548.125093 57.866207 
L 548.721184 60.092251 
L 549.317274 60.263485 
L 549.913364 58.208675 
L 550.509454 58.294292 
L 551.105544 59.492931 
L 552.297725 58.379909 
L 552.893815 60.349102 
L 553.489905 57.866207 
L 554.085995 57.866207 
L 554.682085 57.523738 
L 555.278175 58.551143 
L 555.874266 56.753185 
L 556.470356 58.294292 
L 557.066446 57.18127 
L 557.662536 57.694973 
L 558.258626 58.722378 
L 558.854716 58.208675 
L 560.046897 58.465526 
L 560.642987 58.294292 
L 561.239077 57.866207 
L 561.835167 58.037441 
L 562.431257 56.410716 
L 563.027348 58.636761 
L 563.623438 57.951824 
L 564.219528 58.208675 
L 564.815618 57.951824 
L 565.411708 56.496333 
L 566.007798 57.095653 
L 566.603888 58.636761 
L 567.199979 57.694973 
L 567.796069 58.037441 
L 568.392159 56.753185 
L 568.988249 58.807995 
L 569.584339 59.064846 
L 570.180429 57.266887 
L 570.77652 60.434719 
L 571.37261 57.866207 
L 571.9687 57.609356 
L 572.56479 58.893612 
L 573.16088 57.609356 
L 573.75697 57.266887 
L 574.949151 61.462124 
L 575.545241 58.294292 
L 576.141331 57.095653 
L 576.737421 59.321697 
L 577.333511 57.18127 
L 577.929602 57.438121 
L 578.525692 58.465526 
L 579.121782 59.921017 
L 579.717872 60.605954 
L 580.313962 57.095653 
L 580.910052 58.379909 
L 581.506143 58.551143 
L 582.102233 57.095653 
L 582.698323 57.010036 
L 583.294413 57.095653 
L 583.890503 57.609356 
L 584.486593 58.807995 
L 585.082683 57.18127 
L 585.678774 59.921017 
L 586.274864 57.951824 
L 586.870954 58.379909 
L 587.467044 57.523738 
L 588.063134 58.465526 
L 588.659224 58.722378 
L 589.255315 58.037441 
L 589.851405 58.123058 
L 590.447495 58.037441 
L 591.043585 58.807995 
L 591.639675 58.037441 
L 592.235765 59.407314 
L 592.831856 57.866207 
L 593.427946 57.266887 
L 594.024036 56.924419 
L 594.620126 56.325099 
L 595.216216 57.694973 
L 595.812306 58.636761 
L 597.004487 57.095653 
L 597.600577 57.78059 
L 598.196667 58.636761 
L 598.792757 56.753185 
L 599.388847 57.866207 
L 599.984938 58.551143 
L 600.581028 57.694973 
L 601.177118 59.064846 
L 601.773208 57.523738 
L 602.369298 58.208675 
L 602.965388 58.037441 
L 603.561478 58.807995 
L 604.157569 57.352504 
L 605.349749 57.266887 
L 605.945839 58.893612 
L 606.541929 58.551143 
L 607.138019 58.722378 
L 607.73411 57.78059 
L 608.3302 57.18127 
L 608.92629 57.352504 
L 609.52238 57.18127 
L 610.11847 56.325099 
L 610.71456 56.924419 
L 611.310651 55.554545 
L 611.906741 58.208675 
L 612.502831 57.010036 
L 613.098921 56.153865 
L 613.695011 56.753185 
L 614.291101 58.294292 
L 614.887192 58.379909 
L 615.483282 55.897014 
L 616.079372 58.208675 
L 616.675462 57.438121 
L 617.271552 58.123058 
L 617.867642 56.838802 
L 619.059823 57.609356 
L 619.655913 56.924419 
L 620.252003 57.523738 
L 620.848093 57.352504 
L 621.444183 56.667568 
L 622.040273 56.410716 
L 622.636364 57.78059 
L 622.636364 57.78059 
" style="fill:none;stroke:#ff7f0e;stroke-linecap:square;stroke-width:0.5;"/>
   </g>
   <g id="patch_3">
    <path d="M 90 315 
L 90 43.2 
" style="fill:none;stroke:#000000;stroke-linecap:square;stroke-linejoin:miter;stroke-width:0.8;"/>
   </g>
   <g id="patch_4">
    <path d="M 648 315 
L 648 43.2 
" style="fill:none;stroke:#000000;stroke-linecap:square;stroke-linejoin:miter;stroke-width:0.8;"/>
   </g>
   <g id="patch_5">
    <path d="M 90 315 
L 648 315 
" style="fill:none;stroke:#000000;stroke-linecap:square;stroke-linejoin:miter;stroke-width:0.8;"/>
   </g>
   <g id="patch_6">
    <path d="M 90 43.2 
L 648 43.2 
" style="fill:none;stroke:#000000;stroke-linecap:square;stroke-linejoin:miter;stroke-width:0.8;"/>
   </g>
   <g id="text_16">
    <!-- accuracy -->
    <g transform="translate(341.92875 37.2)scale(0.12 -0.12)">
     <use xlink:href="#DejaVuSans-97"/>
     <use x="61.279297" xlink:href="#DejaVuSans-99"/>
     <use x="116.259766" xlink:href="#DejaVuSans-99"/>
     <use x="171.240234" xlink:href="#DejaVuSans-117"/>
     <use x="234.619141" xlink:href="#DejaVuSans-114"/>
     <use x="275.732422" xlink:href="#DejaVuSans-97"/>
     <use x="337.011719" xlink:href="#DejaVuSans-99"/>
     <use x="391.992188" xlink:href="#DejaVuSans-121"/>
    </g>
   </g>
   <g id="legend_1">
    <g id="patch_7">
     <path d="M 97 80.55625 
L 169.153125 80.55625 
Q 171.153125 80.55625 171.153125 78.55625 
L 171.153125 50.2 
Q 171.153125 48.2 169.153125 48.2 
L 97 48.2 
Q 95 48.2 95 50.2 
L 95 78.55625 
Q 95 80.55625 97 80.55625 
z
" style="fill:#ffffff;opacity:0.8;stroke:#cccccc;stroke-linejoin:miter;"/>
    </g>
    <g id="line2d_29">
     <path d="M 99 56.298437 
L 119 56.298437 
" style="fill:none;stroke:#1f77b4;stroke-linecap:square;stroke-width:0.5;"/>
    </g>
    <g id="line2d_30"/>
    <g id="text_17">
     <!-- train -->
     <defs>
      <path d="M 18.3125 70.21875 
L 18.3125 54.6875 
L 36.8125 54.6875 
L 36.8125 47.703125 
L 18.3125 47.703125 
L 18.3125 18.015625 
Q 18.3125 11.328125 20.140625 9.421875 
Q 21.96875 7.515625 27.59375 7.515625 
L 36.8125 7.515625 
L 36.8125 0 
L 27.59375 0 
Q 17.1875 0 13.234375 3.875 
Q 9.28125 7.765625 9.28125 18.015625 
L 9.28125 47.703125 
L 2.6875 47.703125 
L 2.6875 54.6875 
L 9.28125 54.6875 
L 9.28125 70.21875 
z
" id="DejaVuSans-116"/>
      <path d="M 9.421875 54.6875 
L 18.40625 54.6875 
L 18.40625 0 
L 9.421875 0 
z
M 9.421875 75.984375 
L 18.40625 75.984375 
L 18.40625 64.59375 
L 9.421875 64.59375 
z
" id="DejaVuSans-105"/>
      <path d="M 54.890625 33.015625 
L 54.890625 0 
L 45.90625 0 
L 45.90625 32.71875 
Q 45.90625 40.484375 42.875 44.328125 
Q 39.84375 48.1875 33.796875 48.1875 
Q 26.515625 48.1875 22.3125 43.546875 
Q 18.109375 38.921875 18.109375 30.90625 
L 18.109375 0 
L 9.078125 0 
L 9.078125 54.6875 
L 18.109375 54.6875 
L 18.109375 46.1875 
Q 21.34375 51.125 25.703125 53.5625 
Q 30.078125 56 35.796875 56 
Q 45.21875 56 50.046875 50.171875 
Q 54.890625 44.34375 54.890625 33.015625 
z
" id="DejaVuSans-110"/>
     </defs>
     <g transform="translate(127 59.798437)scale(0.1 -0.1)">
      <use xlink:href="#DejaVuSans-116"/>
      <use x="39.208984" xlink:href="#DejaVuSans-114"/>
      <use x="80.322266" xlink:href="#DejaVuSans-97"/>
      <use x="141.601562" xlink:href="#DejaVuSans-105"/>
      <use x="169.384766" xlink:href="#DejaVuSans-110"/>
     </g>
    </g>
    <g id="line2d_31">
     <path d="M 99 70.976562 
L 119 70.976562 
" style="fill:none;stroke:#ff7f0e;stroke-linecap:square;stroke-width:0.5;"/>
    </g>
    <g id="line2d_32"/>
    <g id="text_18">
     <!-- validate -->
     <defs>
      <path d="M 2.984375 54.6875 
L 12.5 54.6875 
L 29.59375 8.796875 
L 46.6875 54.6875 
L 56.203125 54.6875 
L 35.6875 0 
L 23.484375 0 
z
" id="DejaVuSans-118"/>
      <path d="M 9.421875 75.984375 
L 18.40625 75.984375 
L 18.40625 0 
L 9.421875 0 
z
" id="DejaVuSans-108"/>
      <path d="M 45.40625 46.390625 
L 45.40625 75.984375 
L 54.390625 75.984375 
L 54.390625 0 
L 45.40625 0 
L 45.40625 8.203125 
Q 42.578125 3.328125 38.25 0.953125 
Q 33.9375 -1.421875 27.875 -1.421875 
Q 17.96875 -1.421875 11.734375 6.484375 
Q 5.515625 14.40625 5.515625 27.296875 
Q 5.515625 40.1875 11.734375 48.09375 
Q 17.96875 56 27.875 56 
Q 33.9375 56 38.25 53.625 
Q 42.578125 51.265625 45.40625 46.390625 
z
M 14.796875 27.296875 
Q 14.796875 17.390625 18.875 11.75 
Q 22.953125 6.109375 30.078125 6.109375 
Q 37.203125 6.109375 41.296875 11.75 
Q 45.40625 17.390625 45.40625 27.296875 
Q 45.40625 37.203125 41.296875 42.84375 
Q 37.203125 48.484375 30.078125 48.484375 
Q 22.953125 48.484375 18.875 42.84375 
Q 14.796875 37.203125 14.796875 27.296875 
z
" id="DejaVuSans-100"/>
     </defs>
     <g transform="translate(127 74.476562)scale(0.1 -0.1)">
      <use xlink:href="#DejaVuSans-118"/>
      <use x="59.179688" xlink:href="#DejaVuSans-97"/>
      <use x="120.458984" xlink:href="#DejaVuSans-108"/>
      <use x="148.242188" xlink:href="#DejaVuSans-105"/>
      <use x="176.025391" xlink:href="#DejaVuSans-100"/>
      <use x="239.501953" xlink:href="#DejaVuSans-97"/>
      <use x="300.78125" xlink:href="#DejaVuSans-116"/>
      <use x="339.990234" xlink:href="#DejaVuSans-101"/>
     </g>
    </g>
   </g>
  </g>
 </g>
 <defs>
  <clipPath id="p6f09dc4eda">
   <rect height="271.8" width="558" x="90" y="43.2"/>
  </clipPath>
 </defs>
</svg>
