<?xml version="1.0" encoding="utf-8" standalone="no"?>
<!DOCTYPE svg PUBLIC "-//W3C//DTD SVG 1.1//EN"
  "http://www.w3.org/Graphics/SVG/1.1/DTD/svg11.dtd">
<!-- Created with matplotlib (https://matplotlib.org/) -->
<svg height="360pt" version="1.1" viewBox="0 0 720 360" width="720pt" xmlns="http://www.w3.org/2000/svg" xmlns:xlink="http://www.w3.org/1999/xlink">
 <defs>
  <style type="text/css">
*{stroke-linecap:butt;stroke-linejoin:round;}
  </style>
 </defs>
 <g id="figure_1">
  <g id="patch_1">
   <path d="M 0 360 
L 720 360 
L 720 0 
L 0 0 
z
" style="fill:#ffffff;"/>
  </g>
  <g id="axes_1">
   <g id="patch_2">
    <path d="M 90 315 
L 648 315 
L 648 43.2 
L 90 43.2 
z
" style="fill:#ffffff;"/>
   </g>
   <g id="matplotlib.axis_1">
    <g id="xtick_1">
     <g id="line2d_1">
      <path clip-path="url(#p1db6488373)" d="M 115.363636 315 
L 115.363636 43.2 
" style="fill:none;stroke:#b0b0b0;stroke-linecap:square;stroke-width:0.8;"/>
     </g>
     <g id="line2d_2">
      <defs>
       <path d="M 0 0 
L 0 3.5 
" id="mf0157bf26f" style="stroke:#000000;stroke-width:0.8;"/>
      </defs>
      <g>
       <use style="stroke:#000000;stroke-width:0.8;" x="115.363636" xlink:href="#mf0157bf26f" y="315"/>
      </g>
     </g>
     <g id="text_1">
      <!-- 0 -->
      <defs>
       <path d="M 31.78125 66.40625 
Q 24.171875 66.40625 20.328125 58.90625 
Q 16.5 51.421875 16.5 36.375 
Q 16.5 21.390625 20.328125 13.890625 
Q 24.171875 6.390625 31.78125 6.390625 
Q 39.453125 6.390625 43.28125 13.890625 
Q 47.125 21.390625 47.125 36.375 
Q 47.125 51.421875 43.28125 58.90625 
Q 39.453125 66.40625 31.78125 66.40625 
z
M 31.78125 74.21875 
Q 44.046875 74.21875 50.515625 64.515625 
Q 56.984375 54.828125 56.984375 36.375 
Q 56.984375 17.96875 50.515625 8.265625 
Q 44.046875 -1.421875 31.78125 -1.421875 
Q 19.53125 -1.421875 13.0625 8.265625 
Q 6.59375 17.96875 6.59375 36.375 
Q 6.59375 54.828125 13.0625 64.515625 
Q 19.53125 74.21875 31.78125 74.21875 
z
" id="DejaVuSans-48"/>
      </defs>
      <g transform="translate(112.182386 329.598437)scale(0.1 -0.1)">
       <use xlink:href="#DejaVuSans-48"/>
      </g>
     </g>
    </g>
    <g id="xtick_2">
     <g id="line2d_3">
      <path clip-path="url(#p1db6488373)" d="M 201.488038 315 
L 201.488038 43.2 
" style="fill:none;stroke:#b0b0b0;stroke-linecap:square;stroke-width:0.8;"/>
     </g>
     <g id="line2d_4">
      <g>
       <use style="stroke:#000000;stroke-width:0.8;" x="201.488038" xlink:href="#mf0157bf26f" y="315"/>
      </g>
     </g>
     <g id="text_2">
      <!-- 200 -->
      <defs>
       <path d="M 19.1875 8.296875 
L 53.609375 8.296875 
L 53.609375 0 
L 7.328125 0 
L 7.328125 8.296875 
Q 12.9375 14.109375 22.625 23.890625 
Q 32.328125 33.6875 34.8125 36.53125 
Q 39.546875 41.84375 41.421875 45.53125 
Q 43.3125 49.21875 43.3125 52.78125 
Q 43.3125 58.59375 39.234375 62.25 
Q 35.15625 65.921875 28.609375 65.921875 
Q 23.96875 65.921875 18.8125 64.3125 
Q 13.671875 62.703125 7.8125 59.421875 
L 7.8125 69.390625 
Q 13.765625 71.78125 18.9375 73 
Q 24.125 74.21875 28.421875 74.21875 
Q 39.75 74.21875 46.484375 68.546875 
Q 53.21875 62.890625 53.21875 53.421875 
Q 53.21875 48.921875 51.53125 44.890625 
Q 49.859375 40.875 45.40625 35.40625 
Q 44.1875 33.984375 37.640625 27.21875 
Q 31.109375 20.453125 19.1875 8.296875 
z
" id="DejaVuSans-50"/>
      </defs>
      <g transform="translate(191.944288 329.598437)scale(0.1 -0.1)">
       <use xlink:href="#DejaVuSans-50"/>
       <use x="63.623047" xlink:href="#DejaVuSans-48"/>
       <use x="127.246094" xlink:href="#DejaVuSans-48"/>
      </g>
     </g>
    </g>
    <g id="xtick_3">
     <g id="line2d_5">
      <path clip-path="url(#p1db6488373)" d="M 287.61244 315 
L 287.61244 43.2 
" style="fill:none;stroke:#b0b0b0;stroke-linecap:square;stroke-width:0.8;"/>
     </g>
     <g id="line2d_6">
      <g>
       <use style="stroke:#000000;stroke-width:0.8;" x="287.61244" xlink:href="#mf0157bf26f" y="315"/>
      </g>
     </g>
     <g id="text_3">
      <!-- 400 -->
      <defs>
       <path d="M 37.796875 64.3125 
L 12.890625 25.390625 
L 37.796875 25.390625 
z
M 35.203125 72.90625 
L 47.609375 72.90625 
L 47.609375 25.390625 
L 58.015625 25.390625 
L 58.015625 17.1875 
L 47.609375 17.1875 
L 47.609375 0 
L 37.796875 0 
L 37.796875 17.1875 
L 4.890625 17.1875 
L 4.890625 26.703125 
z
" id="DejaVuSans-52"/>
      </defs>
      <g transform="translate(278.06869 329.598437)scale(0.1 -0.1)">
       <use xlink:href="#DejaVuSans-52"/>
       <use x="63.623047" xlink:href="#DejaVuSans-48"/>
       <use x="127.246094" xlink:href="#DejaVuSans-48"/>
      </g>
     </g>
    </g>
    <g id="xtick_4">
     <g id="line2d_7">
      <path clip-path="url(#p1db6488373)" d="M 373.736842 315 
L 373.736842 43.2 
" style="fill:none;stroke:#b0b0b0;stroke-linecap:square;stroke-width:0.8;"/>
     </g>
     <g id="line2d_8">
      <g>
       <use style="stroke:#000000;stroke-width:0.8;" x="373.736842" xlink:href="#mf0157bf26f" y="315"/>
      </g>
     </g>
     <g id="text_4">
      <!-- 600 -->
      <defs>
       <path d="M 33.015625 40.375 
Q 26.375 40.375 22.484375 35.828125 
Q 18.609375 31.296875 18.609375 23.390625 
Q 18.609375 15.53125 22.484375 10.953125 
Q 26.375 6.390625 33.015625 6.390625 
Q 39.65625 6.390625 43.53125 10.953125 
Q 47.40625 15.53125 47.40625 23.390625 
Q 47.40625 31.296875 43.53125 35.828125 
Q 39.65625 40.375 33.015625 40.375 
z
M 52.59375 71.296875 
L 52.59375 62.3125 
Q 48.875 64.0625 45.09375 64.984375 
Q 41.3125 65.921875 37.59375 65.921875 
Q 27.828125 65.921875 22.671875 59.328125 
Q 17.53125 52.734375 16.796875 39.40625 
Q 19.671875 43.65625 24.015625 45.921875 
Q 28.375 48.1875 33.59375 48.1875 
Q 44.578125 48.1875 50.953125 41.515625 
Q 57.328125 34.859375 57.328125 23.390625 
Q 57.328125 12.15625 50.6875 5.359375 
Q 44.046875 -1.421875 33.015625 -1.421875 
Q 20.359375 -1.421875 13.671875 8.265625 
Q 6.984375 17.96875 6.984375 36.375 
Q 6.984375 53.65625 15.1875 63.9375 
Q 23.390625 74.21875 37.203125 74.21875 
Q 40.921875 74.21875 44.703125 73.484375 
Q 48.484375 72.75 52.59375 71.296875 
z
" id="DejaVuSans-54"/>
      </defs>
      <g transform="translate(364.193092 329.598437)scale(0.1 -0.1)">
       <use xlink:href="#DejaVuSans-54"/>
       <use x="63.623047" xlink:href="#DejaVuSans-48"/>
       <use x="127.246094" xlink:href="#DejaVuSans-48"/>
      </g>
     </g>
    </g>
    <g id="xtick_5">
     <g id="line2d_9">
      <path clip-path="url(#p1db6488373)" d="M 459.861244 315 
L 459.861244 43.2 
" style="fill:none;stroke:#b0b0b0;stroke-linecap:square;stroke-width:0.8;"/>
     </g>
     <g id="line2d_10">
      <g>
       <use style="stroke:#000000;stroke-width:0.8;" x="459.861244" xlink:href="#mf0157bf26f" y="315"/>
      </g>
     </g>
     <g id="text_5">
      <!-- 800 -->
      <defs>
       <path d="M 31.78125 34.625 
Q 24.75 34.625 20.71875 30.859375 
Q 16.703125 27.09375 16.703125 20.515625 
Q 16.703125 13.921875 20.71875 10.15625 
Q 24.75 6.390625 31.78125 6.390625 
Q 38.8125 6.390625 42.859375 10.171875 
Q 46.921875 13.96875 46.921875 20.515625 
Q 46.921875 27.09375 42.890625 30.859375 
Q 38.875 34.625 31.78125 34.625 
z
M 21.921875 38.8125 
Q 15.578125 40.375 12.03125 44.71875 
Q 8.5 49.078125 8.5 55.328125 
Q 8.5 64.0625 14.71875 69.140625 
Q 20.953125 74.21875 31.78125 74.21875 
Q 42.671875 74.21875 48.875 69.140625 
Q 55.078125 64.0625 55.078125 55.328125 
Q 55.078125 49.078125 51.53125 44.71875 
Q 48 40.375 41.703125 38.8125 
Q 48.828125 37.15625 52.796875 32.3125 
Q 56.78125 27.484375 56.78125 20.515625 
Q 56.78125 9.90625 50.3125 4.234375 
Q 43.84375 -1.421875 31.78125 -1.421875 
Q 19.734375 -1.421875 13.25 4.234375 
Q 6.78125 9.90625 6.78125 20.515625 
Q 6.78125 27.484375 10.78125 32.3125 
Q 14.796875 37.15625 21.921875 38.8125 
z
M 18.3125 54.390625 
Q 18.3125 48.734375 21.84375 45.5625 
Q 25.390625 42.390625 31.78125 42.390625 
Q 38.140625 42.390625 41.71875 45.5625 
Q 45.3125 48.734375 45.3125 54.390625 
Q 45.3125 60.0625 41.71875 63.234375 
Q 38.140625 66.40625 31.78125 66.40625 
Q 25.390625 66.40625 21.84375 63.234375 
Q 18.3125 60.0625 18.3125 54.390625 
z
" id="DejaVuSans-56"/>
      </defs>
      <g transform="translate(450.317494 329.598437)scale(0.1 -0.1)">
       <use xlink:href="#DejaVuSans-56"/>
       <use x="63.623047" xlink:href="#DejaVuSans-48"/>
       <use x="127.246094" xlink:href="#DejaVuSans-48"/>
      </g>
     </g>
    </g>
    <g id="xtick_6">
     <g id="line2d_11">
      <path clip-path="url(#p1db6488373)" d="M 545.985646 315 
L 545.985646 43.2 
" style="fill:none;stroke:#b0b0b0;stroke-linecap:square;stroke-width:0.8;"/>
     </g>
     <g id="line2d_12">
      <g>
       <use style="stroke:#000000;stroke-width:0.8;" x="545.985646" xlink:href="#mf0157bf26f" y="315"/>
      </g>
     </g>
     <g id="text_6">
      <!-- 1000 -->
      <defs>
       <path d="M 12.40625 8.296875 
L 28.515625 8.296875 
L 28.515625 63.921875 
L 10.984375 60.40625 
L 10.984375 69.390625 
L 28.421875 72.90625 
L 38.28125 72.90625 
L 38.28125 8.296875 
L 54.390625 8.296875 
L 54.390625 0 
L 12.40625 0 
z
" id="DejaVuSans-49"/>
      </defs>
      <g transform="translate(533.260646 329.598437)scale(0.1 -0.1)">
       <use xlink:href="#DejaVuSans-49"/>
       <use x="63.623047" xlink:href="#DejaVuSans-48"/>
       <use x="127.246094" xlink:href="#DejaVuSans-48"/>
       <use x="190.869141" xlink:href="#DejaVuSans-48"/>
      </g>
     </g>
    </g>
    <g id="xtick_7">
     <g id="line2d_13">
      <path clip-path="url(#p1db6488373)" d="M 632.110048 315 
L 632.110048 43.2 
" style="fill:none;stroke:#b0b0b0;stroke-linecap:square;stroke-width:0.8;"/>
     </g>
     <g id="line2d_14">
      <g>
       <use style="stroke:#000000;stroke-width:0.8;" x="632.110048" xlink:href="#mf0157bf26f" y="315"/>
      </g>
     </g>
     <g id="text_7">
      <!-- 1200 -->
      <g transform="translate(619.385048 329.598437)scale(0.1 -0.1)">
       <use xlink:href="#DejaVuSans-49"/>
       <use x="63.623047" xlink:href="#DejaVuSans-50"/>
       <use x="127.246094" xlink:href="#DejaVuSans-48"/>
       <use x="190.869141" xlink:href="#DejaVuSans-48"/>
      </g>
     </g>
    </g>
    <g id="text_8">
     <!-- epoch -->
     <defs>
      <path d="M 56.203125 29.59375 
L 56.203125 25.203125 
L 14.890625 25.203125 
Q 15.484375 15.921875 20.484375 11.0625 
Q 25.484375 6.203125 34.421875 6.203125 
Q 39.59375 6.203125 44.453125 7.46875 
Q 49.3125 8.734375 54.109375 11.28125 
L 54.109375 2.78125 
Q 49.265625 0.734375 44.1875 -0.34375 
Q 39.109375 -1.421875 33.890625 -1.421875 
Q 20.796875 -1.421875 13.15625 6.1875 
Q 5.515625 13.8125 5.515625 26.8125 
Q 5.515625 40.234375 12.765625 48.109375 
Q 20.015625 56 32.328125 56 
Q 43.359375 56 49.78125 48.890625 
Q 56.203125 41.796875 56.203125 29.59375 
z
M 47.21875 32.234375 
Q 47.125 39.59375 43.09375 43.984375 
Q 39.0625 48.390625 32.421875 48.390625 
Q 24.90625 48.390625 20.390625 44.140625 
Q 15.875 39.890625 15.1875 32.171875 
z
" id="DejaVuSans-101"/>
      <path d="M 18.109375 8.203125 
L 18.109375 -20.796875 
L 9.078125 -20.796875 
L 9.078125 54.6875 
L 18.109375 54.6875 
L 18.109375 46.390625 
Q 20.953125 51.265625 25.265625 53.625 
Q 29.59375 56 35.59375 56 
Q 45.5625 56 51.78125 48.09375 
Q 58.015625 40.1875 58.015625 27.296875 
Q 58.015625 14.40625 51.78125 6.484375 
Q 45.5625 -1.421875 35.59375 -1.421875 
Q 29.59375 -1.421875 25.265625 0.953125 
Q 20.953125 3.328125 18.109375 8.203125 
z
M 48.6875 27.296875 
Q 48.6875 37.203125 44.609375 42.84375 
Q 40.53125 48.484375 33.40625 48.484375 
Q 26.265625 48.484375 22.1875 42.84375 
Q 18.109375 37.203125 18.109375 27.296875 
Q 18.109375 17.390625 22.1875 11.75 
Q 26.265625 6.109375 33.40625 6.109375 
Q 40.53125 6.109375 44.609375 11.75 
Q 48.6875 17.390625 48.6875 27.296875 
z
" id="DejaVuSans-112"/>
      <path d="M 30.609375 48.390625 
Q 23.390625 48.390625 19.1875 42.75 
Q 14.984375 37.109375 14.984375 27.296875 
Q 14.984375 17.484375 19.15625 11.84375 
Q 23.34375 6.203125 30.609375 6.203125 
Q 37.796875 6.203125 41.984375 11.859375 
Q 46.1875 17.53125 46.1875 27.296875 
Q 46.1875 37.015625 41.984375 42.703125 
Q 37.796875 48.390625 30.609375 48.390625 
z
M 30.609375 56 
Q 42.328125 56 49.015625 48.375 
Q 55.71875 40.765625 55.71875 27.296875 
Q 55.71875 13.875 49.015625 6.21875 
Q 42.328125 -1.421875 30.609375 -1.421875 
Q 18.84375 -1.421875 12.171875 6.21875 
Q 5.515625 13.875 5.515625 27.296875 
Q 5.515625 40.765625 12.171875 48.375 
Q 18.84375 56 30.609375 56 
z
" id="DejaVuSans-111"/>
      <path d="M 48.78125 52.59375 
L 48.78125 44.1875 
Q 44.96875 46.296875 41.140625 47.34375 
Q 37.3125 48.390625 33.40625 48.390625 
Q 24.65625 48.390625 19.8125 42.84375 
Q 14.984375 37.3125 14.984375 27.296875 
Q 14.984375 17.28125 19.8125 11.734375 
Q 24.65625 6.203125 33.40625 6.203125 
Q 37.3125 6.203125 41.140625 7.25 
Q 44.96875 8.296875 48.78125 10.40625 
L 48.78125 2.09375 
Q 45.015625 0.34375 40.984375 -0.53125 
Q 36.96875 -1.421875 32.421875 -1.421875 
Q 20.0625 -1.421875 12.78125 6.34375 
Q 5.515625 14.109375 5.515625 27.296875 
Q 5.515625 40.671875 12.859375 48.328125 
Q 20.21875 56 33.015625 56 
Q 37.15625 56 41.109375 55.140625 
Q 45.0625 54.296875 48.78125 52.59375 
z
" id="DejaVuSans-99"/>
      <path d="M 54.890625 33.015625 
L 54.890625 0 
L 45.90625 0 
L 45.90625 32.71875 
Q 45.90625 40.484375 42.875 44.328125 
Q 39.84375 48.1875 33.796875 48.1875 
Q 26.515625 48.1875 22.3125 43.546875 
Q 18.109375 38.921875 18.109375 30.90625 
L 18.109375 0 
L 9.078125 0 
L 9.078125 75.984375 
L 18.109375 75.984375 
L 18.109375 46.1875 
Q 21.34375 51.125 25.703125 53.5625 
Q 30.078125 56 35.796875 56 
Q 45.21875 56 50.046875 50.171875 
Q 54.890625 44.34375 54.890625 33.015625 
z
" id="DejaVuSans-104"/>
     </defs>
     <g transform="translate(353.771875 343.276563)scale(0.1 -0.1)">
      <use xlink:href="#DejaVuSans-101"/>
      <use x="61.523438" xlink:href="#DejaVuSans-112"/>
      <use x="125" xlink:href="#DejaVuSans-111"/>
      <use x="186.181641" xlink:href="#DejaVuSans-99"/>
      <use x="241.162109" xlink:href="#DejaVuSans-104"/>
     </g>
    </g>
   </g>
   <g id="matplotlib.axis_2">
    <g id="ytick_1">
     <g id="line2d_15">
      <path clip-path="url(#p1db6488373)" d="M 90 286.755364 
L 648 286.755364 
" style="fill:none;stroke:#b0b0b0;stroke-linecap:square;stroke-width:0.8;"/>
     </g>
     <g id="line2d_16">
      <defs>
       <path d="M 0 0 
L -3.5 0 
" id="m0e67871a0e" style="stroke:#000000;stroke-width:0.8;"/>
      </defs>
      <g>
       <use style="stroke:#000000;stroke-width:0.8;" x="90" xlink:href="#m0e67871a0e" y="286.755364"/>
      </g>
     </g>
     <g id="text_9">
      <!-- 0.3 -->
      <defs>
       <path d="M 10.6875 12.40625 
L 21 12.40625 
L 21 0 
L 10.6875 0 
z
" id="DejaVuSans-46"/>
       <path d="M 40.578125 39.3125 
Q 47.65625 37.796875 51.625 33 
Q 55.609375 28.21875 55.609375 21.1875 
Q 55.609375 10.40625 48.1875 4.484375 
Q 40.765625 -1.421875 27.09375 -1.421875 
Q 22.515625 -1.421875 17.65625 -0.515625 
Q 12.796875 0.390625 7.625 2.203125 
L 7.625 11.71875 
Q 11.71875 9.328125 16.59375 8.109375 
Q 21.484375 6.890625 26.8125 6.890625 
Q 36.078125 6.890625 40.9375 10.546875 
Q 45.796875 14.203125 45.796875 21.1875 
Q 45.796875 27.640625 41.28125 31.265625 
Q 36.765625 34.90625 28.71875 34.90625 
L 20.21875 34.90625 
L 20.21875 43.015625 
L 29.109375 43.015625 
Q 36.375 43.015625 40.234375 45.921875 
Q 44.09375 48.828125 44.09375 54.296875 
Q 44.09375 59.90625 40.109375 62.90625 
Q 36.140625 65.921875 28.71875 65.921875 
Q 24.65625 65.921875 20.015625 65.03125 
Q 15.375 64.15625 9.8125 62.3125 
L 9.8125 71.09375 
Q 15.4375 72.65625 20.34375 73.4375 
Q 25.25 74.21875 29.59375 74.21875 
Q 40.828125 74.21875 47.359375 69.109375 
Q 53.90625 64.015625 53.90625 55.328125 
Q 53.90625 49.265625 50.4375 45.09375 
Q 46.96875 40.921875 40.578125 39.3125 
z
" id="DejaVuSans-51"/>
      </defs>
      <g transform="translate(67.096875 290.554583)scale(0.1 -0.1)">
       <use xlink:href="#DejaVuSans-48"/>
       <use x="63.623047" xlink:href="#DejaVuSans-46"/>
       <use x="95.410156" xlink:href="#DejaVuSans-51"/>
      </g>
     </g>
    </g>
    <g id="ytick_2">
     <g id="line2d_17">
      <path clip-path="url(#p1db6488373)" d="M 90 251.444051 
L 648 251.444051 
" style="fill:none;stroke:#b0b0b0;stroke-linecap:square;stroke-width:0.8;"/>
     </g>
     <g id="line2d_18">
      <g>
       <use style="stroke:#000000;stroke-width:0.8;" x="90" xlink:href="#m0e67871a0e" y="251.444051"/>
      </g>
     </g>
     <g id="text_10">
      <!-- 0.4 -->
      <g transform="translate(67.096875 255.24327)scale(0.1 -0.1)">
       <use xlink:href="#DejaVuSans-48"/>
       <use x="63.623047" xlink:href="#DejaVuSans-46"/>
       <use x="95.410156" xlink:href="#DejaVuSans-52"/>
      </g>
     </g>
    </g>
    <g id="ytick_3">
     <g id="line2d_19">
      <path clip-path="url(#p1db6488373)" d="M 90 216.132739 
L 648 216.132739 
" style="fill:none;stroke:#b0b0b0;stroke-linecap:square;stroke-width:0.8;"/>
     </g>
     <g id="line2d_20">
      <g>
       <use style="stroke:#000000;stroke-width:0.8;" x="90" xlink:href="#m0e67871a0e" y="216.132739"/>
      </g>
     </g>
     <g id="text_11">
      <!-- 0.5 -->
      <defs>
       <path d="M 10.796875 72.90625 
L 49.515625 72.90625 
L 49.515625 64.59375 
L 19.828125 64.59375 
L 19.828125 46.734375 
Q 21.96875 47.46875 24.109375 47.828125 
Q 26.265625 48.1875 28.421875 48.1875 
Q 40.625 48.1875 47.75 41.5 
Q 54.890625 34.8125 54.890625 23.390625 
Q 54.890625 11.625 47.5625 5.09375 
Q 40.234375 -1.421875 26.90625 -1.421875 
Q 22.3125 -1.421875 17.546875 -0.640625 
Q 12.796875 0.140625 7.71875 1.703125 
L 7.71875 11.625 
Q 12.109375 9.234375 16.796875 8.0625 
Q 21.484375 6.890625 26.703125 6.890625 
Q 35.15625 6.890625 40.078125 11.328125 
Q 45.015625 15.765625 45.015625 23.390625 
Q 45.015625 31 40.078125 35.4375 
Q 35.15625 39.890625 26.703125 39.890625 
Q 22.75 39.890625 18.8125 39.015625 
Q 14.890625 38.140625 10.796875 36.28125 
z
" id="DejaVuSans-53"/>
      </defs>
      <g transform="translate(67.096875 219.931958)scale(0.1 -0.1)">
       <use xlink:href="#DejaVuSans-48"/>
       <use x="63.623047" xlink:href="#DejaVuSans-46"/>
       <use x="95.410156" xlink:href="#DejaVuSans-53"/>
      </g>
     </g>
    </g>
    <g id="ytick_4">
     <g id="line2d_21">
      <path clip-path="url(#p1db6488373)" d="M 90 180.821426 
L 648 180.821426 
" style="fill:none;stroke:#b0b0b0;stroke-linecap:square;stroke-width:0.8;"/>
     </g>
     <g id="line2d_22">
      <g>
       <use style="stroke:#000000;stroke-width:0.8;" x="90" xlink:href="#m0e67871a0e" y="180.821426"/>
      </g>
     </g>
     <g id="text_12">
      <!-- 0.6 -->
      <g transform="translate(67.096875 184.620645)scale(0.1 -0.1)">
       <use xlink:href="#DejaVuSans-48"/>
       <use x="63.623047" xlink:href="#DejaVuSans-46"/>
       <use x="95.410156" xlink:href="#DejaVuSans-54"/>
      </g>
     </g>
    </g>
    <g id="ytick_5">
     <g id="line2d_23">
      <path clip-path="url(#p1db6488373)" d="M 90 145.510114 
L 648 145.510114 
" style="fill:none;stroke:#b0b0b0;stroke-linecap:square;stroke-width:0.8;"/>
     </g>
     <g id="line2d_24">
      <g>
       <use style="stroke:#000000;stroke-width:0.8;" x="90" xlink:href="#m0e67871a0e" y="145.510114"/>
      </g>
     </g>
     <g id="text_13">
      <!-- 0.7 -->
      <defs>
       <path d="M 8.203125 72.90625 
L 55.078125 72.90625 
L 55.078125 68.703125 
L 28.609375 0 
L 18.3125 0 
L 43.21875 64.59375 
L 8.203125 64.59375 
z
" id="DejaVuSans-55"/>
      </defs>
      <g transform="translate(67.096875 149.309333)scale(0.1 -0.1)">
       <use xlink:href="#DejaVuSans-48"/>
       <use x="63.623047" xlink:href="#DejaVuSans-46"/>
       <use x="95.410156" xlink:href="#DejaVuSans-55"/>
      </g>
     </g>
    </g>
    <g id="ytick_6">
     <g id="line2d_25">
      <path clip-path="url(#p1db6488373)" d="M 90 110.198802 
L 648 110.198802 
" style="fill:none;stroke:#b0b0b0;stroke-linecap:square;stroke-width:0.8;"/>
     </g>
     <g id="line2d_26">
      <g>
       <use style="stroke:#000000;stroke-width:0.8;" x="90" xlink:href="#m0e67871a0e" y="110.198802"/>
      </g>
     </g>
     <g id="text_14">
      <!-- 0.8 -->
      <g transform="translate(67.096875 113.99802)scale(0.1 -0.1)">
       <use xlink:href="#DejaVuSans-48"/>
       <use x="63.623047" xlink:href="#DejaVuSans-46"/>
       <use x="95.410156" xlink:href="#DejaVuSans-56"/>
      </g>
     </g>
    </g>
    <g id="ytick_7">
     <g id="line2d_27">
      <path clip-path="url(#p1db6488373)" d="M 90 74.887489 
L 648 74.887489 
" style="fill:none;stroke:#b0b0b0;stroke-linecap:square;stroke-width:0.8;"/>
     </g>
     <g id="line2d_28">
      <g>
       <use style="stroke:#000000;stroke-width:0.8;" x="90" xlink:href="#m0e67871a0e" y="74.887489"/>
      </g>
     </g>
     <g id="text_15">
      <!-- 0.9 -->
      <defs>
       <path d="M 10.984375 1.515625 
L 10.984375 10.5 
Q 14.703125 8.734375 18.5 7.8125 
Q 22.3125 6.890625 25.984375 6.890625 
Q 35.75 6.890625 40.890625 13.453125 
Q 46.046875 20.015625 46.78125 33.40625 
Q 43.953125 29.203125 39.59375 26.953125 
Q 35.25 24.703125 29.984375 24.703125 
Q 19.046875 24.703125 12.671875 31.3125 
Q 6.296875 37.9375 6.296875 49.421875 
Q 6.296875 60.640625 12.9375 67.421875 
Q 19.578125 74.21875 30.609375 74.21875 
Q 43.265625 74.21875 49.921875 64.515625 
Q 56.59375 54.828125 56.59375 36.375 
Q 56.59375 19.140625 48.40625 8.859375 
Q 40.234375 -1.421875 26.421875 -1.421875 
Q 22.703125 -1.421875 18.890625 -0.6875 
Q 15.09375 0.046875 10.984375 1.515625 
z
M 30.609375 32.421875 
Q 37.25 32.421875 41.125 36.953125 
Q 45.015625 41.5 45.015625 49.421875 
Q 45.015625 57.28125 41.125 61.84375 
Q 37.25 66.40625 30.609375 66.40625 
Q 23.96875 66.40625 20.09375 61.84375 
Q 16.21875 57.28125 16.21875 49.421875 
Q 16.21875 41.5 20.09375 36.953125 
Q 23.96875 32.421875 30.609375 32.421875 
z
" id="DejaVuSans-57"/>
      </defs>
      <g transform="translate(67.096875 78.686708)scale(0.1 -0.1)">
       <use xlink:href="#DejaVuSans-48"/>
       <use x="63.623047" xlink:href="#DejaVuSans-46"/>
       <use x="95.410156" xlink:href="#DejaVuSans-57"/>
      </g>
     </g>
    </g>
    <g id="text_16">
     <!-- accuracy -->
     <defs>
      <path d="M 34.28125 27.484375 
Q 23.390625 27.484375 19.1875 25 
Q 14.984375 22.515625 14.984375 16.5 
Q 14.984375 11.71875 18.140625 8.90625 
Q 21.296875 6.109375 26.703125 6.109375 
Q 34.1875 6.109375 38.703125 11.40625 
Q 43.21875 16.703125 43.21875 25.484375 
L 43.21875 27.484375 
z
M 52.203125 31.203125 
L 52.203125 0 
L 43.21875 0 
L 43.21875 8.296875 
Q 40.140625 3.328125 35.546875 0.953125 
Q 30.953125 -1.421875 24.3125 -1.421875 
Q 15.921875 -1.421875 10.953125 3.296875 
Q 6 8.015625 6 15.921875 
Q 6 25.140625 12.171875 29.828125 
Q 18.359375 34.515625 30.609375 34.515625 
L 43.21875 34.515625 
L 43.21875 35.40625 
Q 43.21875 41.609375 39.140625 45 
Q 35.0625 48.390625 27.6875 48.390625 
Q 23 48.390625 18.546875 47.265625 
Q 14.109375 46.140625 10.015625 43.890625 
L 10.015625 52.203125 
Q 14.9375 54.109375 19.578125 55.046875 
Q 24.21875 56 28.609375 56 
Q 40.484375 56 46.34375 49.84375 
Q 52.203125 43.703125 52.203125 31.203125 
z
" id="DejaVuSans-97"/>
      <path d="M 8.5 21.578125 
L 8.5 54.6875 
L 17.484375 54.6875 
L 17.484375 21.921875 
Q 17.484375 14.15625 20.5 10.265625 
Q 23.53125 6.390625 29.59375 6.390625 
Q 36.859375 6.390625 41.078125 11.03125 
Q 45.3125 15.671875 45.3125 23.6875 
L 45.3125 54.6875 
L 54.296875 54.6875 
L 54.296875 0 
L 45.3125 0 
L 45.3125 8.40625 
Q 42.046875 3.421875 37.71875 1 
Q 33.40625 -1.421875 27.6875 -1.421875 
Q 18.265625 -1.421875 13.375 4.4375 
Q 8.5 10.296875 8.5 21.578125 
z
M 31.109375 56 
z
" id="DejaVuSans-117"/>
      <path d="M 41.109375 46.296875 
Q 39.59375 47.171875 37.8125 47.578125 
Q 36.03125 48 33.890625 48 
Q 26.265625 48 22.1875 43.046875 
Q 18.109375 38.09375 18.109375 28.8125 
L 18.109375 0 
L 9.078125 0 
L 9.078125 54.6875 
L 18.109375 54.6875 
L 18.109375 46.1875 
Q 20.953125 51.171875 25.484375 53.578125 
Q 30.03125 56 36.53125 56 
Q 37.453125 56 38.578125 55.875 
Q 39.703125 55.765625 41.0625 55.515625 
z
" id="DejaVuSans-114"/>
      <path d="M 32.171875 -5.078125 
Q 28.375 -14.84375 24.75 -17.8125 
Q 21.140625 -20.796875 15.09375 -20.796875 
L 7.90625 -20.796875 
L 7.90625 -13.28125 
L 13.1875 -13.28125 
Q 16.890625 -13.28125 18.9375 -11.515625 
Q 21 -9.765625 23.484375 -3.21875 
L 25.09375 0.875 
L 2.984375 54.6875 
L 12.5 54.6875 
L 29.59375 11.921875 
L 46.6875 54.6875 
L 56.203125 54.6875 
z
" id="DejaVuSans-121"/>
     </defs>
     <g transform="translate(61.017187 201.659375)rotate(-90)scale(0.1 -0.1)">
      <use xlink:href="#DejaVuSans-97"/>
      <use x="61.279297" xlink:href="#DejaVuSans-99"/>
      <use x="116.259766" xlink:href="#DejaVuSans-99"/>
      <use x="171.240234" xlink:href="#DejaVuSans-117"/>
      <use x="234.619141" xlink:href="#DejaVuSans-114"/>
      <use x="275.732422" xlink:href="#DejaVuSans-97"/>
      <use x="337.011719" xlink:href="#DejaVuSans-99"/>
      <use x="391.992188" xlink:href="#DejaVuSans-121"/>
     </g>
    </g>
   </g>
   <g id="line2d_29">
    <path clip-path="url(#p1db6488373)" d="M 115.363636 301.144724 
L 115.794258 302.645455 
L 116.22488 294.347296 
L 116.655502 301.056445 
L 117.086124 290.55133 
L 117.516746 292.228617 
L 117.947368 292.316896 
L 118.37799 287.020199 
L 118.808612 283.577346 
L 119.239234 282.87112 
L 119.669856 278.192371 
L 120.100478 277.486144 
L 120.5311 271.04183 
L 120.961722 272.630839 
L 121.392344 270.953552 
L 121.822967 262.037445 
L 122.253589 258.329757 
L 122.684211 251.355773 
L 123.114833 253.209617 
L 123.545455 246.853581 
L 123.976077 246.588746 
L 124.406699 247.559807 
L 124.837321 237.14297 
L 125.267943 234.406343 
L 125.698565 235.730517 
L 126.129187 231.846273 
L 127.421053 216.044461 
L 127.851675 218.339696 
L 128.282297 215.426513 
L 128.712919 208.099415 
L 129.143541 215.0734 
L 130.004785 203.597223 
L 130.435407 202.449605 
L 130.866029 202.979275 
L 131.296651 200.860596 
L 131.727273 196.181847 
L 132.157895 197.241187 
L 132.588517 196.534961 
L 133.449761 185.147062 
L 133.880383 188.85475 
L 134.311005 181.439374 
L 134.741627 184.882227 
L 135.172249 179.408974 
L 135.602871 171.110816 
L 136.033493 172.611546 
L 136.464115 173.670886 
L 136.894737 171.37565 
L 137.325359 167.756241 
L 137.755981 165.902397 
L 138.186603 162.636101 
L 138.617225 160.693978 
L 139.047847 155.309003 
L 139.478469 155.926951 
L 139.909091 157.869073 
L 140.770335 156.280064 
L 141.200957 150.453698 
L 141.631579 150.630254 
L 142.062201 148.423297 
L 142.492823 144.539053 
L 142.923445 144.539053 
L 143.354067 138.53613 
L 143.784689 140.654809 
L 144.215311 138.977521 
L 144.645933 138.447852 
L 145.076555 140.831365 
L 145.507177 138.53613 
L 145.937799 135.622947 
L 146.368421 129.531745 
L 146.799043 132.444928 
L 147.229665 134.033937 
L 147.660287 132.091815 
L 148.090909 127.059953 
L 148.521531 129.355189 
L 148.952153 126.353727 
L 149.382775 131.473867 
L 149.813397 129.620023 
L 150.674641 122.910874 
L 151.105263 122.292926 
L 151.535885 125.206109 
L 151.966507 121.410143 
L 152.397129 122.557761 
L 152.827751 119.644578 
L 153.258373 120.085969 
L 153.688995 119.379743 
L 154.119617 116.643116 
L 154.550239 115.672055 
L 154.980861 117.879012 
L 155.411483 116.466559 
L 155.842105 116.290003 
L 156.272727 111.522976 
L 156.703349 110.728471 
L 157.133971 108.080123 
L 157.564593 110.640193 
L 157.995215 109.669132 
L 158.425837 111.258141 
L 159.287081 106.226279 
L 159.717703 108.786349 
L 160.148325 105.873166 
L 160.578947 106.226279 
L 161.009569 102.783426 
L 161.440191 106.579392 
L 161.870813 103.224817 
L 162.301435 104.019322 
L 162.732057 103.754487 
L 163.162679 101.724087 
L 163.593301 103.313096 
L 164.023923 102.430313 
L 164.454545 100.753025 
L 164.885167 102.959982 
L 165.315789 99.605408 
L 165.746411 100.488191 
L 166.177033 96.603946 
L 166.607656 97.751564 
L 167.038278 97.575007 
L 167.4689 100.488191 
L 167.899522 96.42739 
L 168.330144 98.192955 
L 168.760766 95.103215 
L 169.191388 97.575007 
L 169.62201 98.104677 
L 170.052632 93.602485 
L 170.483254 95.544607 
L 171.344498 91.836919 
L 171.77512 90.512745 
L 172.205742 94.396989 
L 172.636364 92.631424 
L 173.066986 92.27831 
L 173.497608 90.77758 
L 173.92823 90.601023 
L 174.358852 89.894797 
L 174.789474 88.482344 
L 175.220096 89.983075 
L 175.650718 92.631424 
L 176.08134 88.923736 
L 176.511962 91.836919 
L 176.942584 91.748641 
L 177.373206 87.952675 
L 177.803828 85.392605 
L 178.23445 91.395528 
L 179.095694 86.275387 
L 179.526316 86.6285 
L 179.956938 87.246448 
L 180.38756 86.981614 
L 180.818182 88.923736 
L 181.248804 88.305788 
L 181.679426 85.745718 
L 182.110048 90.601023 
L 182.54067 89.629962 
L 182.971292 85.304326 
L 183.832536 89.541684 
L 184.263158 85.569161 
L 184.69378 88.394066 
L 185.124402 86.275387 
L 185.555024 87.246448 
L 185.985646 86.187109 
L 186.416268 84.774657 
L 186.84689 85.480883 
L 187.708134 87.68784 
L 188.138756 82.655978 
L 188.569378 82.832534 
L 189 83.891874 
L 189.430622 82.744256 
L 189.861244 87.423005 
L 190.291866 85.039491 
L 190.722488 84.686378 
L 191.15311 82.479421 
L 191.583732 83.538761 
L 192.014354 82.744256 
L 192.444976 85.12777 
L 192.875598 82.744256 
L 193.30622 81.50836 
L 193.736842 83.538761 
L 194.167464 82.655978 
L 194.598086 83.980152 
L 195.028708 86.716779 
L 195.45933 82.832534 
L 195.889952 82.920813 
L 196.320574 83.273926 
L 196.751196 80.713856 
L 197.181818 80.449021 
L 197.61244 81.596638 
L 198.043062 83.715317 
L 198.473684 82.832534 
L 198.904306 83.273926 
L 199.334928 79.742795 
L 199.76555 83.450482 
L 200.196172 82.302865 
L 200.626794 78.330342 
L 201.057416 81.155247 
L 201.488038 80.095908 
L 201.91866 82.214586 
L 202.349282 82.744256 
L 202.779904 78.065507 
L 203.210526 79.566238 
L 203.641148 78.506899 
L 204.07177 79.831073 
L 204.502392 80.095908 
L 204.933014 81.684917 
L 205.363636 76.211663 
L 205.794258 78.771733 
L 206.22488 79.036568 
L 206.655502 79.124847 
L 207.086124 79.389681 
L 207.516746 77.359281 
L 207.947368 76.476498 
L 208.37799 76.829611 
L 208.808612 80.537299 
L 209.239234 77.977229 
L 209.669856 80.184186 
L 210.100478 79.831073 
L 210.5311 79.831073 
L 210.961722 77.800672 
L 211.392344 77.977229 
L 211.822967 79.919351 
L 212.253589 79.47796 
L 212.684211 77.447559 
L 213.114833 79.389681 
L 213.545455 77.977229 
L 213.976077 79.919351 
L 214.406699 77.712394 
L 214.837321 77.006168 
L 215.267943 80.802134 
L 215.698565 80.97869 
L 216.129187 75.593715 
L 216.559809 75.417159 
L 216.990431 79.831073 
L 217.421053 76.741333 
L 217.851675 79.47796 
L 218.282297 76.829611 
L 218.712919 79.919351 
L 219.574163 77.447559 
L 220.004785 75.064046 
L 220.435407 78.242064 
L 220.866029 76.829611 
L 221.296651 81.155247 
L 221.727273 78.242064 
L 222.157895 78.41862 
L 222.588517 76.38822 
L 223.019139 77.447559 
L 223.880383 75.064046 
L 224.311005 77.712394 
L 225.172249 74.887489 
L 225.602871 74.975767 
L 226.033493 77.094446 
L 226.894737 77.888951 
L 227.325359 79.124847 
L 227.755981 76.564776 
L 228.186603 74.887489 
L 228.617225 75.85855 
L 229.047847 75.85855 
L 229.478469 74.887489 
L 229.909091 77.182724 
L 230.339713 73.475037 
L 230.770335 75.85855 
L 231.200957 75.770272 
L 231.631579 76.476498 
L 232.062201 78.242064 
L 232.492823 75.417159 
L 232.923445 77.006168 
L 233.354067 75.064046 
L 233.784689 75.32888 
L 234.215311 75.770272 
L 234.645933 76.741333 
L 235.076555 76.38822 
L 235.507177 76.91789 
L 235.937799 76.476498 
L 236.368421 74.534376 
L 236.799043 76.299942 
L 237.229665 74.269541 
L 237.660287 73.651593 
L 238.090909 73.739871 
L 238.952153 76.741333 
L 239.382775 74.269541 
L 239.813397 73.210202 
L 240.244019 73.29848 
L 240.674641 76.123385 
L 241.105263 73.651593 
L 241.535885 77.535837 
L 241.966507 73.916428 
L 242.397129 73.651593 
L 242.827751 75.593715 
L 243.258373 75.152324 
L 243.688995 76.211663 
L 244.119617 76.653055 
L 244.550239 72.062584 
L 244.980861 74.269541 
L 245.411483 74.004706 
L 245.842105 74.534376 
L 246.272727 75.240602 
L 246.703349 71.974306 
L 247.133971 76.829611 
L 247.564593 72.857089 
L 247.995215 72.945367 
L 248.425837 73.386758 
L 248.856459 71.709471 
L 249.287081 73.651593 
L 249.717703 73.916428 
L 250.148325 71.26808 
L 250.578947 75.32888 
L 251.009569 74.799211 
L 251.440191 77.094446 
L 251.870813 73.386758 
L 252.301435 75.417159 
L 252.732057 69.67907 
L 253.162679 71.444636 
L 253.593301 71.621193 
L 254.023923 73.563315 
L 254.454545 72.503975 
L 254.885167 72.857089 
L 255.315789 72.327419 
L 255.746411 72.239141 
L 256.177033 72.503975 
L 256.607656 72.592254 
L 257.038278 70.297018 
L 257.4689 72.945367 
L 257.899522 74.269541 
L 258.330144 72.857089 
L 258.760766 73.82815 
L 259.191388 71.797749 
L 259.62201 70.473575 
L 260.052632 72.503975 
L 260.483254 72.680532 
L 260.913876 69.061122 
L 261.344498 71.356358 
L 261.77512 72.327419 
L 262.205742 70.826688 
L 262.636364 72.857089 
L 263.066986 73.210202 
L 263.497608 71.003245 
L 263.92823 73.29848 
L 264.789474 75.85855 
L 265.220096 71.886027 
L 265.650718 72.239141 
L 266.08134 73.033645 
L 266.511962 73.475037 
L 266.942584 71.621193 
L 267.373206 73.121923 
L 268.23445 70.120462 
L 268.665072 74.357819 
L 269.095694 72.239141 
L 269.526316 72.857089 
L 269.956938 71.974306 
L 270.38756 73.386758 
L 270.818182 70.297018 
L 271.248804 72.415697 
L 271.679426 72.680532 
L 272.110048 70.385297 
L 272.54067 69.943905 
L 272.971292 73.210202 
L 273.401914 70.914966 
L 273.832536 70.914966 
L 274.263158 72.062584 
L 274.69378 71.621193 
L 275.124402 72.327419 
L 275.555024 69.414236 
L 275.985646 68.531453 
L 276.416268 72.150862 
L 276.84689 68.619731 
L 277.277512 72.945367 
L 277.708134 68.972844 
L 278.569378 71.356358 
L 279 71.356358 
L 279.430622 71.797749 
L 279.861244 70.120462 
L 280.291866 73.033645 
L 280.722488 71.091523 
L 281.15311 70.20874 
L 281.583732 68.972844 
L 282.014354 72.415697 
L 282.444976 69.325957 
L 282.875598 69.414236 
L 283.30622 71.709471 
L 283.736842 71.091523 
L 284.167464 69.502514 
L 284.598086 70.032184 
L 285.028708 69.767349 
L 285.45933 70.297018 
L 285.889952 71.444636 
L 286.320574 68.354896 
L 286.751196 72.150862 
L 287.181818 70.73841 
L 287.61244 70.826688 
L 288.043062 68.354896 
L 288.473684 68.619731 
L 288.904306 65.706548 
L 289.334928 69.149401 
L 289.76555 68.796288 
L 290.196172 67.472113 
L 290.626794 71.179801 
L 291.057416 67.736948 
L 291.488038 68.354896 
L 291.91866 68.001783 
L 292.349282 71.356358 
L 292.779904 73.29848 
L 293.210526 71.444636 
L 293.641148 71.444636 
L 294.07177 69.149401 
L 294.502392 67.472113 
L 294.933014 68.796288 
L 295.363636 68.090061 
L 296.22488 70.120462 
L 296.655502 70.120462 
L 297.086124 68.884566 
L 297.947368 73.210202 
L 298.37799 69.237679 
L 298.808612 70.032184 
L 299.239234 68.972844 
L 299.669856 68.443175 
L 300.100478 71.091523 
L 300.961722 67.383835 
L 301.392344 69.767349 
L 301.822967 68.443175 
L 302.253589 68.001783 
L 302.684211 67.119 
L 303.114833 67.119 
L 303.545455 68.531453 
L 303.976077 67.560392 
L 304.406699 65.971383 
L 304.837321 67.383835 
L 305.267943 70.473575 
L 305.698565 69.767349 
L 306.129187 70.20874 
L 306.559809 66.765887 
L 306.990431 70.032184 
L 307.421053 71.356358 
L 307.851675 70.20874 
L 308.282297 66.236217 
L 308.712919 66.324496 
L 309.143541 67.825227 
L 309.574163 70.650132 
L 310.004785 65.883104 
L 310.435407 65.000322 
L 310.866029 65.529991 
L 311.296651 66.412774 
L 311.727273 66.677609 
L 312.157895 68.884566 
L 312.588517 66.059661 
L 313.019139 68.090061 
L 313.449761 66.589331 
L 313.880383 69.325957 
L 314.311005 68.090061 
L 314.741627 68.443175 
L 315.172249 71.444636 
L 315.602871 67.472113 
L 316.033493 67.913505 
L 316.464115 68.001783 
L 316.894737 66.501052 
L 317.325359 67.295557 
L 317.755981 66.589331 
L 318.186603 67.030722 
L 318.617225 66.324496 
L 319.047847 66.412774 
L 319.478469 68.884566 
L 319.909091 68.17834 
L 320.339713 69.149401 
L 320.770335 66.589331 
L 321.200957 66.677609 
L 321.631579 69.325957 
L 322.062201 69.590792 
L 322.492823 66.589331 
L 322.923445 66.412774 
L 323.354067 66.589331 
L 323.784689 67.560392 
L 324.215311 67.383835 
L 324.645933 67.825227 
L 325.076555 66.677609 
L 325.507177 67.825227 
L 326.368421 64.382374 
L 326.799043 66.765887 
L 327.229665 66.412774 
L 327.660287 68.619731 
L 328.090909 65.883104 
L 328.521531 66.412774 
L 328.952153 68.001783 
L 329.382775 67.207279 
L 329.813397 69.149401 
L 330.244019 68.443175 
L 330.674641 65.794826 
L 331.105263 65.706548 
L 331.535885 66.589331 
L 331.966507 68.619731 
L 332.397129 66.854165 
L 332.827751 65.794826 
L 333.258373 66.854165 
L 333.688995 66.765887 
L 334.119617 67.119 
L 334.550239 68.796288 
L 334.980861 64.912043 
L 335.411483 66.059661 
L 335.842105 66.677609 
L 336.703349 63.676147 
L 337.133971 65.000322 
L 337.564593 70.73841 
L 337.995215 68.001783 
L 338.425837 66.677609 
L 339.287081 65.61827 
L 339.717703 68.266618 
L 340.148325 67.030722 
L 340.578947 65.176878 
L 341.009569 65.441713 
L 341.440191 66.854165 
L 341.870813 66.059661 
L 342.301435 66.589331 
L 342.732057 68.17834 
L 343.162679 63.499591 
L 343.593301 65.61827 
L 344.023923 65.706548 
L 344.454545 67.030722 
L 344.885167 64.470652 
L 345.315789 68.354896 
L 345.746411 66.324496 
L 346.177033 67.64867 
L 346.607656 67.207279 
L 347.038278 66.324496 
L 347.4689 65.883104 
L 347.899522 65.883104 
L 348.330144 66.501052 
L 348.760766 64.02926 
L 349.191388 65.61827 
L 349.62201 66.501052 
L 350.052632 68.354896 
L 350.913876 62.616808 
L 351.344498 66.147939 
L 351.77512 65.176878 
L 352.205742 67.472113 
L 352.636364 65.883104 
L 353.066986 66.147939 
L 353.92823 63.146478 
L 354.358852 66.412774 
L 354.789474 64.823765 
L 355.220096 65.794826 
L 355.650718 65.883104 
L 356.08134 67.736948 
L 356.511962 62.793365 
L 356.942584 65.883104 
L 357.373206 64.912043 
L 357.803828 65.265156 
L 358.23445 67.913505 
L 358.665072 64.205817 
L 359.095694 66.765887 
L 359.526316 64.294095 
L 359.956938 64.294095 
L 360.38756 63.411312 
L 360.818182 66.854165 
L 361.248804 63.764426 
L 361.679426 66.324496 
L 362.110048 65.794826 
L 362.54067 66.677609 
L 362.971292 65.971383 
L 363.401914 64.205817 
L 363.832536 66.854165 
L 364.263158 65.529991 
L 364.69378 65.794826 
L 365.124402 63.852704 
L 365.555024 65.794826 
L 365.985646 66.147939 
L 366.416268 64.823765 
L 366.84689 64.823765 
L 367.277512 65.353435 
L 367.708134 65.0886 
L 368.138756 64.294095 
L 368.569378 66.677609 
L 369 64.117539 
L 369.430622 64.470652 
L 369.861244 63.676147 
L 370.722488 64.470652 
L 371.15311 63.323034 
L 371.583732 66.765887 
L 372.444976 62.616808 
L 372.875598 65.0886 
L 373.30622 65.441713 
L 373.736842 65.176878 
L 374.167464 63.499591 
L 374.598086 63.323034 
L 375.028708 66.147939 
L 375.45933 63.058199 
L 375.889952 64.647208 
L 376.320574 63.234756 
L 376.751196 64.735487 
L 377.181818 65.529991 
L 377.61244 65.000322 
L 378.043062 64.294095 
L 378.473684 62.440251 
L 378.904306 64.823765 
L 379.334928 63.852704 
L 379.76555 63.499591 
L 380.196172 64.117539 
L 380.626794 65.529991 
L 381.057416 61.557469 
L 381.488038 64.735487 
L 381.91866 64.823765 
L 382.349282 66.677609 
L 382.779904 63.676147 
L 383.210526 66.589331 
L 383.641148 63.940982 
L 384.07177 63.499591 
L 384.502392 62.793365 
L 384.933014 62.969921 
L 385.363636 64.470652 
L 385.794258 63.676147 
L 386.22488 64.117539 
L 386.655502 63.587869 
L 387.086124 63.587869 
L 387.516746 63.764426 
L 387.947368 63.234756 
L 388.37799 65.353435 
L 388.808612 65.353435 
L 389.239234 63.587869 
L 389.669856 64.117539 
L 390.100478 65.883104 
L 390.5311 63.146478 
L 390.961722 65.000322 
L 391.392344 63.940982 
L 391.822967 63.587869 
L 392.253589 63.940982 
L 392.684211 64.647208 
L 393.114833 63.058199 
L 393.545455 64.823765 
L 393.976077 62.263695 
L 394.406699 64.823765 
L 394.837321 62.52853 
L 395.267943 64.647208 
L 395.698565 62.616808 
L 396.129187 64.912043 
L 396.559809 62.881643 
L 396.990431 62.705086 
L 397.421053 63.587869 
L 398.282297 63.676147 
L 398.712919 61.822303 
L 399.574163 66.589331 
L 400.004785 61.910582 
L 400.435407 64.294095 
L 401.296651 63.146478 
L 401.727273 64.294095 
L 402.157895 63.234756 
L 402.588517 64.117539 
L 403.019139 62.705086 
L 403.449761 62.087138 
L 403.880383 64.02926 
L 404.311005 63.676147 
L 404.741627 61.910582 
L 405.172249 65.0886 
L 405.602871 64.294095 
L 406.033493 64.470652 
L 406.464115 64.823765 
L 406.894737 63.587869 
L 407.755981 66.147939 
L 408.186603 62.969921 
L 408.617225 65.000322 
L 409.047847 64.735487 
L 409.478469 62.705086 
L 409.909091 63.323034 
L 410.339713 64.823765 
L 410.770335 62.705086 
L 411.200957 62.881643 
L 411.631579 62.705086 
L 412.062201 64.117539 
L 412.492823 60.409851 
L 412.923445 63.676147 
L 413.354067 63.058199 
L 413.784689 63.852704 
L 414.215311 62.087138 
L 414.645933 63.852704 
L 415.507177 64.647208 
L 415.937799 63.499591 
L 416.368421 61.99886 
L 416.799043 64.294095 
L 417.229665 62.52853 
L 418.090909 65.529991 
L 418.521531 62.351973 
L 418.952153 63.411312 
L 419.382775 63.499591 
L 419.813397 62.440251 
L 420.244019 62.52853 
L 420.674641 60.674686 
L 421.105263 62.705086 
L 421.535885 63.058199 
L 421.966507 63.058199 
L 422.397129 65.000322 
L 422.827751 60.145016 
L 423.688995 63.146478 
L 424.119617 62.969921 
L 424.550239 64.02926 
L 424.980861 61.99886 
L 425.411483 58.37945 
L 425.842105 65.529991 
L 426.272727 62.440251 
L 426.703349 63.411312 
L 427.133971 63.499591 
L 427.564593 63.058199 
L 427.995215 63.676147 
L 428.425837 62.263695 
L 428.856459 63.499591 
L 429.287081 63.587869 
L 429.717703 63.323034 
L 430.148325 65.0886 
L 430.578947 66.236217 
L 431.009569 61.46919 
L 431.440191 62.705086 
L 431.870813 66.854165 
L 432.732057 63.058199 
L 433.162679 61.557469 
L 433.593301 62.616808 
L 434.023923 61.822303 
L 434.454545 61.910582 
L 434.885167 63.234756 
L 435.746411 59.703625 
L 436.177033 62.440251 
L 436.607656 62.793365 
L 437.038278 64.294095 
L 437.4689 64.912043 
L 437.899522 64.205817 
L 438.330144 65.176878 
L 438.760766 65.000322 
L 439.191388 62.263695 
L 439.62201 64.382374 
L 440.052632 63.764426 
L 440.483254 60.409851 
L 440.913876 61.645747 
L 441.344498 63.411312 
L 442.205742 63.323034 
L 442.636364 60.939521 
L 443.066986 62.616808 
L 443.497608 62.616808 
L 443.92823 64.470652 
L 444.358852 64.382374 
L 444.789474 62.087138 
L 445.220096 62.969921 
L 445.650718 63.499591 
L 446.08134 58.820842 
L 446.511962 63.852704 
L 447.373206 61.204355 
L 447.803828 64.117539 
L 448.23445 62.969921 
L 448.665072 61.204355 
L 449.095694 64.470652 
L 449.526316 57.938059 
L 449.956938 60.321573 
L 450.38756 64.02926 
L 450.818182 61.204355 
L 451.248804 62.969921 
L 451.679426 61.645747 
L 452.110048 61.99886 
L 452.54067 63.676147 
L 453.401914 60.851242 
L 453.832536 63.499591 
L 454.69378 59.43879 
L 455.124402 63.764426 
L 455.555024 61.46919 
L 455.985646 62.969921 
L 456.416268 62.263695 
L 456.84689 61.292634 
L 457.277512 61.46919 
L 457.708134 63.234756 
L 458.138756 62.793365 
L 458.569378 62.705086 
L 459.430622 60.233294 
L 460.291866 61.910582 
L 460.722488 61.822303 
L 461.15311 62.705086 
L 461.583732 62.351973 
L 462.014354 61.292634 
L 462.444976 60.674686 
L 462.875598 62.263695 
L 463.30622 62.263695 
L 463.736842 60.674686 
L 464.167464 61.910582 
L 464.598086 62.793365 
L 465.028708 60.586407 
L 465.45933 61.292634 
L 465.889952 62.705086 
L 466.320574 59.96846 
L 466.751196 61.204355 
L 467.181818 60.586407 
L 467.61244 61.027799 
L 468.043062 60.498129 
L 468.473684 61.734025 
L 469.334928 58.90912 
L 469.76555 61.292634 
L 470.196172 62.440251 
L 471.057416 60.586407 
L 471.488038 61.734025 
L 471.91866 62.087138 
L 472.349282 58.026337 
L 472.779904 61.380912 
L 473.210526 59.527068 
L 473.641148 62.351973 
L 474.07177 62.705086 
L 474.502392 61.46919 
L 474.933014 61.46919 
L 475.363636 61.204355 
L 475.794258 61.204355 
L 476.22488 61.734025 
L 476.655502 62.52853 
L 477.086124 60.498129 
L 477.516746 62.881643 
L 477.947368 59.615346 
L 478.37799 61.557469 
L 478.808612 61.027799 
L 479.239234 61.910582 
L 479.669856 61.910582 
L 480.100478 61.292634 
L 480.5311 61.292634 
L 480.961722 59.96846 
L 481.392344 65.353435 
L 481.822967 58.202894 
L 482.253589 60.321573 
L 482.684211 60.498129 
L 483.114833 58.556007 
L 483.545455 60.851242 
L 483.976077 61.910582 
L 484.406699 59.703625 
L 484.837321 61.645747 
L 485.267943 61.204355 
L 485.698565 60.321573 
L 486.129187 63.234756 
L 486.990431 60.056738 
L 487.421053 60.939521 
L 487.851675 60.498129 
L 488.282297 60.851242 
L 488.712919 60.851242 
L 489.143541 61.910582 
L 489.574163 59.96846 
L 490.004785 60.586407 
L 490.435407 63.411312 
L 490.866029 60.145016 
L 491.296651 61.910582 
L 491.727273 61.027799 
L 492.157895 60.939521 
L 492.588517 61.204355 
L 493.019139 63.587869 
L 493.449761 59.262233 
L 493.880383 59.527068 
L 494.311005 60.498129 
L 494.741627 62.087138 
L 495.172249 62.440251 
L 495.602871 61.116077 
L 496.033493 60.674686 
L 496.464115 62.263695 
L 496.894737 61.99886 
L 497.325359 60.762964 
L 497.755981 60.233294 
L 498.186603 59.085677 
L 498.617225 60.674686 
L 499.047847 59.703625 
L 499.478469 62.705086 
L 499.909091 61.645747 
L 500.339713 61.204355 
L 500.770335 61.557469 
L 501.200957 60.056738 
L 502.062201 59.43879 
L 502.492823 62.440251 
L 502.923445 63.411312 
L 503.354067 59.880181 
L 503.784689 59.615346 
L 504.215311 58.997398 
L 504.645933 62.793365 
L 505.507177 59.880181 
L 505.937799 60.056738 
L 506.368421 59.085677 
L 506.799043 61.204355 
L 507.229665 60.674686 
L 507.660287 58.997398 
L 508.090909 61.116077 
L 508.521531 59.085677 
L 508.952153 58.732564 
L 509.382775 62.263695 
L 509.813397 63.146478 
L 510.244019 59.880181 
L 510.674641 61.557469 
L 511.105263 61.910582 
L 511.535885 60.498129 
L 511.966507 59.96846 
L 512.397129 60.674686 
L 512.827751 61.99886 
L 513.258373 60.498129 
L 513.688995 63.411312 
L 514.119617 60.498129 
L 514.550239 59.262233 
L 514.980861 60.145016 
L 515.411483 58.820842 
L 515.842105 59.43879 
L 516.272727 61.99886 
L 516.703349 58.556007 
L 517.133971 60.145016 
L 517.564593 60.409851 
L 517.995215 62.616808 
L 518.425837 60.233294 
L 518.856459 60.586407 
L 519.287081 60.674686 
L 519.717703 58.556007 
L 520.148325 59.085677 
L 520.578947 61.027799 
L 521.009569 62.175417 
L 521.440191 61.734025 
L 521.870813 60.145016 
L 522.301435 59.880181 
L 522.732057 59.350512 
L 523.162679 60.851242 
L 523.593301 63.323034 
L 524.023923 61.380912 
L 524.454545 61.645747 
L 524.885167 60.409851 
L 525.315789 63.323034 
L 525.746411 59.615346 
L 526.177033 58.90912 
L 526.607656 60.851242 
L 527.038278 59.615346 
L 527.4689 59.085677 
L 527.899522 61.557469 
L 528.330144 60.762964 
L 528.760766 59.615346 
L 529.191388 61.292634 
L 529.62201 60.586407 
L 530.052632 60.939521 
L 530.483254 60.586407 
L 530.913876 59.96846 
L 531.344498 60.851242 
L 531.77512 60.674686 
L 532.205742 60.939521 
L 532.636364 58.732564 
L 533.066986 61.116077 
L 533.497608 58.820842 
L 533.92823 60.762964 
L 534.358852 59.791903 
L 534.789474 59.262233 
L 535.220096 58.467729 
L 535.650718 61.557469 
L 536.08134 60.762964 
L 536.511962 60.321573 
L 536.942584 61.46919 
L 537.373206 58.90912 
L 537.803828 58.820842 
L 538.665072 60.498129 
L 539.095694 58.114616 
L 539.526316 60.586407 
L 539.956938 60.939521 
L 540.38756 60.762964 
L 540.818182 59.96846 
L 541.248804 59.96846 
L 541.679426 58.90912 
L 542.110048 60.674686 
L 542.54067 60.233294 
L 542.971292 60.498129 
L 543.401914 60.498129 
L 543.832536 58.732564 
L 544.263158 59.703625 
L 544.69378 59.703625 
L 545.124402 60.939521 
L 545.555024 61.292634 
L 545.985646 58.644285 
L 546.416268 60.321573 
L 546.84689 57.496668 
L 547.708134 61.99886 
L 548.138756 58.90912 
L 548.569378 60.409851 
L 549.430622 58.820842 
L 549.861244 58.026337 
L 550.291866 58.467729 
L 551.15311 61.734025 
L 551.583732 60.321573 
L 552.014354 60.498129 
L 552.444976 59.615346 
L 552.875598 60.586407 
L 553.30622 58.732564 
L 553.736842 59.085677 
L 554.167464 60.321573 
L 554.598086 60.674686 
L 555.028708 58.90912 
L 555.45933 59.43879 
L 555.889952 59.527068 
L 556.320574 59.350512 
L 556.751196 59.527068 
L 557.181818 62.351973 
L 557.61244 60.851242 
L 558.043062 58.556007 
L 558.473684 61.027799 
L 558.904306 58.467729 
L 559.334928 60.321573 
L 559.76555 61.116077 
L 560.196172 61.204355 
L 560.626794 57.408389 
L 561.057416 59.615346 
L 561.488038 58.467729 
L 561.91866 60.056738 
L 562.349282 59.527068 
L 562.779904 59.43879 
L 563.210526 58.291172 
L 563.641148 58.202894 
L 564.07177 60.145016 
L 564.502392 59.350512 
L 564.933014 59.96846 
L 565.363636 59.703625 
L 565.794258 58.90912 
L 566.22488 60.321573 
L 567.086124 59.173955 
L 567.516746 59.350512 
L 567.947368 58.291172 
L 568.37799 60.056738 
L 568.808612 58.732564 
L 569.239234 58.997398 
L 569.669856 58.467729 
L 570.100478 60.145016 
L 570.5311 60.409851 
L 570.961722 56.87872 
L 571.392344 58.732564 
L 571.822967 59.880181 
L 572.253589 58.820842 
L 572.684211 60.056738 
L 573.545455 56.702163 
L 574.406699 60.939521 
L 574.837321 58.291172 
L 575.267943 57.143555 
L 576.129187 59.880181 
L 576.559809 59.173955 
L 576.990431 58.820842 
L 577.421053 60.409851 
L 577.851675 61.027799 
L 578.282297 58.820842 
L 578.712919 59.43879 
L 579.143541 58.467729 
L 579.574163 61.99886 
L 580.435407 58.644285 
L 580.866029 58.467729 
L 581.296651 57.584946 
L 581.727273 59.173955 
L 582.157895 56.702163 
L 582.588517 59.173955 
L 583.019139 60.939521 
L 583.449761 58.732564 
L 583.880383 59.880181 
L 584.311005 56.702163 
L 584.741627 58.556007 
L 585.172249 58.202894 
L 585.602871 58.644285 
L 586.033493 59.262233 
L 586.464115 58.37945 
L 586.894737 61.99886 
L 587.325359 58.90912 
L 587.755981 58.997398 
L 588.617225 60.851242 
L 589.047847 59.43879 
L 589.478469 58.997398 
L 589.909091 60.939521 
L 590.339713 60.145016 
L 590.770335 58.820842 
L 591.631579 60.233294 
L 592.062201 58.37945 
L 592.492823 59.527068 
L 592.923445 58.732564 
L 593.354067 60.586407 
L 593.784689 58.997398 
L 594.215311 59.173955 
L 594.645933 60.498129 
L 595.076555 60.321573 
L 595.507177 57.761502 
L 595.937799 59.350512 
L 596.368421 58.820842 
L 596.799043 59.085677 
L 597.229665 58.90912 
L 598.090909 60.056738 
L 598.521531 56.172493 
L 598.952153 59.085677 
L 599.382775 58.732564 
L 599.813397 58.202894 
L 600.244019 61.116077 
L 600.674641 59.085677 
L 601.105263 58.997398 
L 601.535885 57.143555 
L 601.966507 58.644285 
L 602.397129 58.997398 
L 602.827751 57.761502 
L 603.258373 58.556007 
L 603.688995 60.409851 
L 604.119617 56.437328 
L 604.550239 59.173955 
L 604.980861 58.556007 
L 605.411483 57.673224 
L 605.842105 59.43879 
L 606.703349 56.172493 
L 607.133971 55.554545 
L 607.564593 59.703625 
L 607.995215 58.820842 
L 608.425837 59.173955 
L 608.856459 58.820842 
L 609.717703 59.615346 
L 610.148325 57.938059 
L 610.578947 59.527068 
L 611.009569 60.586407 
L 611.440191 58.820842 
L 611.870813 55.81938 
L 612.301435 58.467729 
L 612.732057 57.761502 
L 613.162679 57.496668 
L 613.593301 59.615346 
L 614.023923 60.233294 
L 614.454545 59.173955 
L 614.885167 59.703625 
L 615.315789 59.703625 
L 615.746411 58.291172 
L 616.177033 58.732564 
L 616.607656 61.557469 
L 617.038278 59.791903 
L 617.4689 59.173955 
L 617.899522 55.81938 
L 618.760766 61.116077 
L 619.191388 58.467729 
L 619.62201 58.202894 
L 620.052632 58.467729 
L 620.483254 58.291172 
L 620.913876 59.262233 
L 621.344498 61.645747 
L 621.77512 58.556007 
L 622.205742 60.145016 
L 622.636364 58.114616 
L 622.636364 58.114616 
" style="fill:none;stroke:#1f77b4;stroke-linecap:square;stroke-width:0.5;"/>
   </g>
   <g id="line2d_30">
    <path clip-path="url(#p1db6488373)" d="M 115.363636 301.674393 
L 115.794258 298.937767 
L 116.22488 293.552792 
L 116.655502 297.083923 
L 117.086124 295.936305 
L 117.516746 290.02166 
L 117.947368 294.259018 
L 118.37799 291.169278 
L 118.808612 284.283572 
L 119.239234 284.724963 
L 119.669856 279.957936 
L 120.100478 276.515083 
L 120.5311 276.779918 
L 120.961722 276.338527 
L 121.392344 266.892751 
L 121.822967 264.774072 
L 122.253589 264.067846 
L 122.684211 255.681409 
L 123.114833 254.180678 
L 123.545455 254.180678 
L 123.976077 249.325373 
L 124.406699 241.821719 
L 124.837321 244.116954 
L 125.267943 235.200848 
L 125.698565 235.112569 
L 126.129187 225.137124 
L 126.559809 228.579977 
L 126.990431 222.577053 
L 127.421053 222.665332 
L 128.282297 212.425051 
L 128.712919 216.221017 
L 129.143541 212.248495 
L 129.574163 210.747764 
L 130.004785 208.805642 
L 130.435407 207.746302 
L 130.866029 204.480006 
L 131.296651 203.685501 
L 131.727273 197.682578 
L 132.157895 196.623239 
L 132.588517 196.093569 
L 133.019139 192.032768 
L 133.449761 195.828734 
L 133.880383 186.559515 
L 134.311005 185.235341 
L 134.741627 184.440836 
L 135.172249 184.087723 
L 135.602871 180.556592 
L 136.033493 172.964659 
L 136.464115 170.139754 
L 136.894737 173.317773 
L 137.325359 168.109354 
L 137.755981 170.316311 
L 138.186603 167.491406 
L 138.617225 163.871996 
L 139.047847 164.931336 
L 139.478469 161.841596 
L 139.909091 161.13537 
L 140.339713 155.309003 
L 140.770335 159.281526 
L 141.200957 154.867612 
L 141.631579 155.220725 
L 142.062201 155.220725 
L 142.492823 150.277141 
L 142.923445 149.217802 
L 143.354067 148.77641 
L 143.784689 145.686671 
L 144.215311 143.744548 
L 144.645933 138.447852 
L 145.076555 141.978983 
L 145.507177 141.802426 
L 145.937799 138.712686 
L 146.368421 139.948582 
L 146.799043 135.711225 
L 147.229665 141.184478 
L 147.660287 134.122216 
L 148.090909 134.828442 
L 148.952153 123.6171 
L 149.382775 130.855919 
L 149.813397 129.355189 
L 150.244019 127.148232 
L 150.674641 125.824057 
L 151.105263 125.824057 
L 151.535885 122.204648 
L 151.966507 125.470944 
L 152.827751 122.381204 
L 153.258373 119.291464 
L 153.688995 117.879012 
L 154.119617 118.850073 
L 154.550239 121.763256 
L 154.980861 112.582315 
L 155.411483 111.787811 
L 155.842105 116.201725 
L 156.272727 115.40722 
L 156.703349 111.258141 
L 157.133971 115.054107 
L 157.564593 108.874627 
L 157.995215 106.579392 
L 158.425837 108.521514 
L 158.856459 108.609792 
L 159.287081 104.63727 
L 159.717703 105.520053 
L 160.148325 102.871704 
L 160.578947 105.343496 
L 161.009569 105.961444 
L 161.440191 100.664747 
L 161.870813 101.01786 
L 162.301435 100.841304 
L 162.732057 98.810903 
L 163.162679 101.282695 
L 163.593301 98.546068 
L 164.023923 98.016399 
L 164.454545 93.867319 
L 164.885167 97.92812 
L 165.315789 90.512745 
L 165.746411 96.692224 
L 166.177033 92.454867 
L 166.607656 91.925197 
L 167.038278 92.984537 
L 167.899522 90.512745 
L 168.330144 90.865858 
L 168.760766 93.072815 
L 169.191388 92.013476 
L 169.62201 88.129231 
L 170.483254 85.745718 
L 170.913876 85.12777 
L 171.344498 87.334727 
L 171.77512 84.5981 
L 172.205742 86.451944 
L 172.636364 84.774657 
L 173.066986 84.421543 
L 173.497608 88.129231 
L 173.92823 87.334727 
L 174.358852 84.5981 
L 174.789474 83.538761 
L 175.220096 83.891874 
L 176.08134 80.537299 
L 176.511962 81.596638 
L 176.942584 82.214586 
L 177.373206 83.362204 
L 177.803828 83.185647 
L 178.23445 80.272464 
L 178.665072 81.861473 
L 179.095694 78.595177 
L 179.526316 81.949752 
L 179.956938 77.447559 
L 180.38756 79.566238 
L 180.818182 79.124847 
L 181.248804 76.741333 
L 181.679426 78.595177 
L 182.110048 78.94829 
L 182.54067 81.155247 
L 182.971292 77.006168 
L 183.401914 75.417159 
L 183.832536 78.506899 
L 184.263158 82.655978 
L 184.69378 79.124847 
L 185.124402 78.330342 
L 185.555024 76.829611 
L 185.985646 77.094446 
L 186.416268 74.622654 
L 186.84689 75.505437 
L 187.277512 76.123385 
L 187.708134 77.182724 
L 188.138756 74.887489 
L 188.569378 74.710932 
L 189 76.653055 
L 189.430622 76.91789 
L 189.861244 75.770272 
L 190.291866 76.829611 
L 190.722488 77.535837 
L 191.583732 75.85855 
L 192.014354 70.826688 
L 192.875598 74.799211 
L 193.30622 75.85855 
L 193.736842 70.650132 
L 194.167464 76.653055 
L 194.598086 72.857089 
L 195.028708 72.239141 
L 195.45933 72.415697 
L 195.889952 71.886027 
L 196.320574 73.82815 
L 196.751196 73.210202 
L 197.181818 71.532914 
L 197.61244 70.73841 
L 198.043062 68.796288 
L 198.473684 73.121923 
L 198.904306 73.563315 
L 199.334928 71.974306 
L 199.76555 74.710932 
L 200.196172 73.121923 
L 200.626794 70.914966 
L 201.057416 73.475037 
L 201.488038 70.473575 
L 201.91866 68.443175 
L 202.349282 72.592254 
L 202.779904 72.945367 
L 203.641148 69.237679 
L 204.07177 71.003245 
L 204.502392 71.444636 
L 204.933014 71.444636 
L 205.363636 73.651593 
L 205.794258 72.503975 
L 206.22488 72.327419 
L 206.655502 69.237679 
L 207.086124 71.091523 
L 207.516746 69.414236 
L 207.947368 68.972844 
L 208.37799 72.150862 
L 208.808612 72.415697 
L 209.239234 69.061122 
L 209.669856 70.20874 
L 210.100478 69.061122 
L 210.5311 70.385297 
L 210.961722 70.032184 
L 211.392344 70.473575 
L 211.822967 71.621193 
L 212.253589 68.884566 
L 212.684211 70.297018 
L 213.114833 67.913505 
L 213.545455 68.443175 
L 213.976077 70.20874 
L 214.406699 67.736948 
L 214.837321 72.503975 
L 215.267943 73.121923 
L 215.698565 69.67907 
L 216.129187 69.414236 
L 216.559809 70.914966 
L 216.990431 68.884566 
L 217.421053 67.913505 
L 217.851675 71.179801 
L 218.282297 72.680532 
L 218.712919 70.650132 
L 219.143541 67.383835 
L 219.574163 70.73841 
L 220.004785 70.297018 
L 220.435407 70.73841 
L 220.866029 72.945367 
L 221.727273 69.149401 
L 222.157895 72.150862 
L 222.588517 69.237679 
L 223.019139 69.061122 
L 223.449761 69.237679 
L 223.880383 68.266618 
L 224.311005 67.825227 
L 224.741627 69.061122 
L 225.172249 72.327419 
L 225.602871 66.942444 
L 226.033493 69.325957 
L 226.464115 68.443175 
L 226.894737 69.061122 
L 227.325359 68.354896 
L 227.755981 67.913505 
L 228.186603 68.443175 
L 228.617225 69.855627 
L 229.047847 68.17834 
L 229.478469 68.796288 
L 230.339713 67.207279 
L 230.770335 65.529991 
L 231.200957 68.17834 
L 232.062201 64.823765 
L 232.492823 66.677609 
L 232.923445 67.030722 
L 233.354067 67.913505 
L 233.784689 66.677609 
L 234.215311 69.855627 
L 234.645933 67.560392 
L 235.076555 67.736948 
L 235.507177 71.356358 
L 236.368421 65.61827 
L 236.799043 67.472113 
L 237.229665 68.090061 
L 237.660287 67.207279 
L 238.090909 65.441713 
L 238.521531 66.677609 
L 238.952153 69.767349 
L 239.382775 65.529991 
L 239.813397 69.237679 
L 240.244019 67.119 
L 240.674641 67.560392 
L 241.105263 67.64867 
L 241.535885 68.001783 
L 241.966507 67.295557 
L 242.397129 68.796288 
L 243.258373 66.501052 
L 243.688995 68.531453 
L 244.119617 65.61827 
L 244.550239 65.000322 
L 244.980861 65.794826 
L 245.411483 63.499591 
L 245.842105 66.059661 
L 246.272727 64.823765 
L 246.703349 64.823765 
L 247.133971 66.147939 
L 247.564593 64.470652 
L 247.995215 66.589331 
L 248.425837 66.765887 
L 248.856459 65.353435 
L 249.287081 66.942444 
L 249.717703 65.176878 
L 250.148325 66.236217 
L 251.009569 65.000322 
L 251.440191 66.765887 
L 251.870813 66.854165 
L 252.301435 65.61827 
L 252.732057 67.64867 
L 253.593301 63.058199 
L 254.023923 65.61827 
L 254.454545 64.470652 
L 254.885167 67.64867 
L 255.315789 65.353435 
L 255.746411 67.207279 
L 256.177033 67.736948 
L 256.607656 64.647208 
L 257.038278 66.677609 
L 257.4689 67.119 
L 257.899522 64.912043 
L 258.330144 64.912043 
L 259.191388 62.881643 
L 259.62201 67.295557 
L 260.052632 65.883104 
L 260.483254 65.000322 
L 260.913876 66.147939 
L 261.344498 63.676147 
L 261.77512 63.058199 
L 262.205742 64.205817 
L 262.636364 66.147939 
L 263.066986 65.265156 
L 263.497608 63.587869 
L 263.92823 63.499591 
L 264.358852 64.55893 
L 264.789474 65.176878 
L 265.220096 65.0886 
L 265.650718 65.883104 
L 266.08134 63.940982 
L 266.511962 64.470652 
L 266.942584 65.529991 
L 267.373206 65.706548 
L 267.803828 64.02926 
L 268.665072 63.058199 
L 269.095694 63.411312 
L 269.526316 63.323034 
L 269.956938 65.176878 
L 270.38756 65.883104 
L 270.818182 64.117539 
L 271.248804 65.0886 
L 271.679426 63.764426 
L 272.110048 63.587869 
L 272.54067 64.735487 
L 272.971292 63.852704 
L 273.401914 63.234756 
L 273.832536 63.499591 
L 274.263158 65.529991 
L 274.69378 64.912043 
L 275.124402 63.764426 
L 275.985646 66.236217 
L 276.416268 65.706548 
L 276.84689 64.470652 
L 277.277512 64.735487 
L 277.708134 61.822303 
L 278.138756 65.353435 
L 279 63.764426 
L 279.430622 64.823765 
L 279.861244 63.499591 
L 280.291866 63.940982 
L 281.15311 64.294095 
L 281.583732 63.234756 
L 282.014354 65.0886 
L 282.444976 64.02926 
L 282.875598 64.205817 
L 283.30622 63.499591 
L 283.736842 63.764426 
L 284.167464 62.881643 
L 284.598086 62.351973 
L 285.028708 60.762964 
L 285.45933 63.411312 
L 285.889952 62.616808 
L 286.320574 62.793365 
L 286.751196 65.000322 
L 287.181818 61.99886 
L 287.61244 62.351973 
L 288.473684 64.382374 
L 288.904306 63.411312 
L 289.334928 63.411312 
L 289.76555 62.175417 
L 290.196172 61.557469 
L 291.057416 63.587869 
L 291.488038 62.793365 
L 291.91866 63.499591 
L 292.349282 61.910582 
L 292.779904 63.323034 
L 293.210526 63.764426 
L 293.641148 65.883104 
L 294.07177 62.52853 
L 294.502392 63.234756 
L 294.933014 61.822303 
L 295.363636 63.146478 
L 295.794258 65.176878 
L 296.22488 64.912043 
L 297.086124 63.058199 
L 297.516746 63.764426 
L 297.947368 63.499591 
L 298.37799 63.940982 
L 298.808612 63.676147 
L 299.239234 63.852704 
L 299.669856 61.292634 
L 300.100478 63.146478 
L 300.5311 64.117539 
L 300.961722 61.292634 
L 301.392344 63.323034 
L 301.822967 61.292634 
L 302.253589 63.852704 
L 302.684211 63.411312 
L 303.114833 61.910582 
L 303.545455 63.323034 
L 303.976077 61.204355 
L 304.406699 61.204355 
L 304.837321 61.99886 
L 305.267943 64.823765 
L 305.698565 62.087138 
L 306.129187 62.793365 
L 306.559809 63.234756 
L 306.990431 65.176878 
L 307.421053 63.058199 
L 307.851675 61.734025 
L 308.282297 62.175417 
L 308.712919 62.793365 
L 309.143541 62.087138 
L 309.574163 61.645747 
L 310.004785 61.99886 
L 310.435407 63.146478 
L 310.866029 62.881643 
L 311.296651 62.351973 
L 312.157895 60.498129 
L 312.588517 65.794826 
L 313.019139 62.881643 
L 313.449761 62.616808 
L 313.880383 63.499591 
L 314.311005 63.764426 
L 314.741627 61.645747 
L 315.602871 62.440251 
L 316.894737 62.351973 
L 317.325359 64.912043 
L 317.755981 60.498129 
L 318.186603 62.175417 
L 318.617225 61.645747 
L 319.047847 62.705086 
L 319.478469 64.294095 
L 319.909091 63.940982 
L 320.339713 61.46919 
L 320.770335 62.52853 
L 321.200957 61.116077 
L 321.631579 63.146478 
L 322.062201 64.02926 
L 322.492823 62.351973 
L 322.923445 64.205817 
L 323.354067 58.90912 
L 323.784689 61.292634 
L 324.215311 62.440251 
L 324.645933 60.498129 
L 325.076555 61.027799 
L 325.507177 61.116077 
L 325.937799 61.645747 
L 326.368421 60.762964 
L 326.799043 62.616808 
L 327.229665 60.409851 
L 327.660287 60.674686 
L 328.090909 61.380912 
L 328.521531 61.380912 
L 329.382775 64.470652 
L 329.813397 63.323034 
L 330.244019 63.587869 
L 330.674641 61.910582 
L 331.105263 58.820842 
L 331.535885 62.263695 
L 331.966507 60.145016 
L 332.397129 62.793365 
L 332.827751 62.087138 
L 333.258373 64.823765 
L 333.688995 60.409851 
L 334.119617 62.440251 
L 334.550239 61.822303 
L 334.980861 60.851242 
L 335.411483 61.292634 
L 335.842105 60.145016 
L 336.272727 61.46919 
L 336.703349 64.205817 
L 337.133971 61.204355 
L 337.564593 61.734025 
L 337.995215 63.323034 
L 338.425837 62.175417 
L 338.856459 60.145016 
L 339.287081 60.939521 
L 339.717703 63.764426 
L 340.148325 63.146478 
L 340.578947 63.411312 
L 341.009569 61.734025 
L 341.870813 60.233294 
L 342.301435 60.233294 
L 342.732057 61.46919 
L 343.162679 59.791903 
L 344.454545 63.676147 
L 344.885167 61.292634 
L 345.315789 62.440251 
L 346.177033 61.99886 
L 346.607656 62.705086 
L 347.038278 60.145016 
L 347.4689 61.380912 
L 347.899522 61.734025 
L 348.330144 61.557469 
L 348.760766 59.96846 
L 349.191388 63.146478 
L 349.62201 62.175417 
L 350.052632 60.321573 
L 350.483254 61.822303 
L 350.913876 60.498129 
L 351.344498 63.587869 
L 351.77512 59.791903 
L 352.205742 63.852704 
L 352.636364 62.087138 
L 353.066986 61.822303 
L 353.497608 60.762964 
L 353.92823 58.997398 
L 354.358852 60.409851 
L 354.789474 60.233294 
L 355.220096 61.204355 
L 356.08134 60.145016 
L 356.511962 61.027799 
L 356.942584 60.233294 
L 357.373206 62.52853 
L 357.803828 60.586407 
L 358.23445 60.145016 
L 358.665072 60.409851 
L 359.095694 61.204355 
L 359.526316 61.204355 
L 359.956938 60.233294 
L 360.38756 60.762964 
L 360.818182 61.557469 
L 361.248804 61.46919 
L 361.679426 62.263695 
L 362.110048 60.498129 
L 362.54067 61.204355 
L 362.971292 61.645747 
L 363.401914 60.409851 
L 363.832536 62.175417 
L 364.263158 62.263695 
L 364.69378 59.880181 
L 365.124402 61.822303 
L 365.985646 62.969921 
L 366.416268 62.263695 
L 366.84689 61.204355 
L 367.277512 60.498129 
L 367.708134 60.851242 
L 368.138756 62.52853 
L 368.569378 61.204355 
L 369.430622 60.586407 
L 369.861244 59.96846 
L 370.291866 60.145016 
L 370.722488 62.351973 
L 371.15311 61.292634 
L 371.583732 61.116077 
L 372.014354 58.90912 
L 372.444976 60.498129 
L 372.875598 60.851242 
L 373.30622 59.880181 
L 373.736842 59.527068 
L 374.167464 60.233294 
L 374.598086 61.292634 
L 375.028708 60.762964 
L 375.45933 60.851242 
L 375.889952 61.645747 
L 376.320574 59.615346 
L 376.751196 62.175417 
L 377.181818 61.116077 
L 377.61244 59.085677 
L 378.043062 59.791903 
L 378.473684 61.204355 
L 378.904306 61.380912 
L 379.334928 61.99886 
L 379.76555 60.762964 
L 380.196172 59.085677 
L 380.626794 58.90912 
L 381.057416 61.027799 
L 381.488038 62.087138 
L 382.349282 59.085677 
L 382.779904 61.557469 
L 383.210526 60.674686 
L 383.641148 60.586407 
L 384.07177 60.939521 
L 384.502392 59.527068 
L 384.933014 59.615346 
L 385.363636 61.380912 
L 385.794258 59.43879 
L 386.22488 59.350512 
L 386.655502 60.145016 
L 387.086124 59.615346 
L 387.516746 61.204355 
L 387.947368 60.674686 
L 388.37799 61.116077 
L 388.808612 59.085677 
L 389.239234 61.910582 
L 389.669856 61.292634 
L 390.100478 61.46919 
L 390.5311 61.204355 
L 390.961722 58.37945 
L 391.392344 60.056738 
L 391.822967 59.96846 
L 392.253589 60.586407 
L 392.684211 59.173955 
L 393.545455 59.43879 
L 393.976077 61.116077 
L 394.406699 59.791903 
L 395.267943 59.96846 
L 395.698565 58.997398 
L 396.129187 61.380912 
L 396.559809 60.762964 
L 397.421053 60.145016 
L 397.851675 61.204355 
L 398.282297 60.233294 
L 398.712919 58.820842 
L 399.143541 60.321573 
L 399.574163 60.233294 
L 400.435407 62.705086 
L 400.866029 61.910582 
L 401.296651 59.791903 
L 401.727273 63.323034 
L 402.157895 60.145016 
L 402.588517 60.498129 
L 403.019139 59.615346 
L 403.449761 60.321573 
L 404.311005 57.849781 
L 404.741627 59.085677 
L 405.172249 60.939521 
L 405.602871 59.527068 
L 406.033493 58.90912 
L 406.464115 60.939521 
L 406.894737 59.791903 
L 407.325359 59.791903 
L 407.755981 60.233294 
L 408.186603 58.997398 
L 408.617225 61.99886 
L 409.047847 60.851242 
L 409.478469 61.027799 
L 409.909091 59.703625 
L 410.339713 60.586407 
L 410.770335 60.233294 
L 411.200957 59.173955 
L 411.631579 62.263695 
L 412.492823 59.527068 
L 412.923445 59.350512 
L 413.354067 59.703625 
L 413.784689 58.90912 
L 414.215311 60.498129 
L 414.645933 60.233294 
L 415.076555 61.99886 
L 415.507177 60.321573 
L 415.937799 61.116077 
L 416.368421 62.351973 
L 416.799043 59.880181 
L 417.229665 60.939521 
L 417.660287 60.145016 
L 418.090909 60.674686 
L 418.521531 59.880181 
L 418.952153 58.644285 
L 419.382775 59.350512 
L 419.813397 58.90912 
L 420.244019 61.380912 
L 420.674641 59.96846 
L 421.105263 61.46919 
L 421.535885 60.233294 
L 421.966507 62.087138 
L 422.397129 60.586407 
L 422.827751 61.380912 
L 423.258373 58.820842 
L 423.688995 60.674686 
L 424.119617 58.732564 
L 424.980861 62.087138 
L 425.411483 61.734025 
L 425.842105 62.881643 
L 426.272727 61.910582 
L 426.703349 59.43879 
L 427.133971 61.910582 
L 427.564593 59.262233 
L 428.425837 60.674686 
L 428.856459 60.674686 
L 429.287081 60.145016 
L 429.717703 59.085677 
L 430.148325 61.46919 
L 430.578947 59.43879 
L 431.009569 61.645747 
L 431.440191 62.793365 
L 431.870813 60.145016 
L 432.301435 59.615346 
L 432.732057 58.732564 
L 433.162679 59.703625 
L 433.593301 59.43879 
L 434.023923 60.851242 
L 434.454545 59.262233 
L 434.885167 59.880181 
L 435.315789 59.791903 
L 435.746411 59.43879 
L 436.177033 61.380912 
L 436.607656 60.939521 
L 437.038278 58.644285 
L 437.4689 59.791903 
L 437.899522 60.498129 
L 438.330144 60.321573 
L 438.760766 59.615346 
L 439.191388 58.644285 
L 439.62201 59.880181 
L 440.052632 60.762964 
L 440.483254 58.556007 
L 440.913876 59.527068 
L 441.344498 58.997398 
L 441.77512 61.116077 
L 442.205742 60.233294 
L 442.636364 61.380912 
L 443.066986 59.085677 
L 443.497608 58.114616 
L 443.92823 58.37945 
L 444.358852 60.586407 
L 444.789474 60.321573 
L 445.220096 60.586407 
L 445.650718 59.262233 
L 446.08134 58.997398 
L 446.511962 59.96846 
L 447.373206 57.673224 
L 447.803828 58.202894 
L 448.23445 59.703625 
L 448.665072 60.321573 
L 449.095694 58.820842 
L 449.956938 60.586407 
L 450.818182 58.467729 
L 451.248804 60.674686 
L 451.679426 60.056738 
L 452.110048 58.90912 
L 452.54067 59.527068 
L 452.971292 60.409851 
L 453.401914 58.820842 
L 453.832536 59.703625 
L 454.263158 59.527068 
L 454.69378 60.056738 
L 455.124402 59.96846 
L 455.555024 59.262233 
L 455.985646 60.056738 
L 456.416268 59.527068 
L 456.84689 61.645747 
L 457.708134 59.527068 
L 458.138756 59.262233 
L 458.569378 60.851242 
L 459 59.615346 
L 459.430622 59.880181 
L 459.861244 59.703625 
L 460.291866 60.409851 
L 460.722488 58.997398 
L 461.15311 60.674686 
L 461.583732 60.762964 
L 462.014354 59.262233 
L 462.875598 60.851242 
L 463.30622 58.467729 
L 463.736842 61.734025 
L 464.167464 60.409851 
L 464.598086 59.615346 
L 465.028708 61.027799 
L 465.45933 59.527068 
L 465.889952 60.851242 
L 466.320574 59.96846 
L 466.751196 57.584946 
L 467.181818 59.615346 
L 467.61244 59.173955 
L 468.043062 60.233294 
L 468.473684 58.644285 
L 468.904306 61.027799 
L 469.334928 59.085677 
L 469.76555 59.880181 
L 470.196172 59.96846 
L 470.626794 60.762964 
L 471.057416 60.321573 
L 471.488038 58.467729 
L 471.91866 60.145016 
L 472.349282 59.43879 
L 473.210526 60.145016 
L 473.641148 59.350512 
L 474.07177 60.674686 
L 474.502392 60.409851 
L 474.933014 58.997398 
L 475.363636 60.233294 
L 475.794258 59.350512 
L 476.22488 60.409851 
L 476.655502 58.37945 
L 477.086124 58.202894 
L 477.516746 61.380912 
L 477.947368 60.586407 
L 478.37799 57.055276 
L 478.808612 58.202894 
L 479.239234 61.027799 
L 479.669856 59.615346 
L 480.100478 60.321573 
L 480.961722 58.997398 
L 481.392344 59.085677 
L 481.822967 61.645747 
L 482.253589 58.026337 
L 482.684211 58.026337 
L 483.114833 58.732564 
L 483.976077 59.527068 
L 484.406699 60.498129 
L 485.267943 56.966998 
L 486.129187 59.262233 
L 486.559809 57.673224 
L 486.990431 59.173955 
L 487.421053 58.644285 
L 487.851675 59.703625 
L 488.282297 58.997398 
L 488.712919 58.997398 
L 489.143541 61.027799 
L 489.574163 61.910582 
L 490.004785 60.145016 
L 490.435407 60.586407 
L 490.866029 58.202894 
L 491.296651 59.43879 
L 491.727273 59.96846 
L 492.157895 59.880181 
L 492.588517 59.085677 
L 493.019139 62.087138 
L 493.449761 60.321573 
L 493.880383 60.674686 
L 494.311005 58.467729 
L 494.741627 61.46919 
L 495.172249 59.791903 
L 495.602871 58.820842 
L 496.033493 60.851242 
L 496.464115 60.586407 
L 496.894737 59.527068 
L 497.325359 60.409851 
L 498.186603 59.615346 
L 498.617225 59.880181 
L 499.047847 59.350512 
L 499.478469 58.291172 
L 499.909091 59.615346 
L 500.339713 59.96846 
L 500.770335 59.43879 
L 501.200957 59.791903 
L 501.631579 60.762964 
L 502.062201 59.615346 
L 502.492823 58.997398 
L 502.923445 59.791903 
L 503.354067 59.96846 
L 503.784689 58.114616 
L 504.215311 60.056738 
L 504.645933 57.496668 
L 505.076555 58.997398 
L 505.507177 59.262233 
L 505.937799 58.114616 
L 506.368421 58.820842 
L 506.799043 58.997398 
L 507.229665 59.880181 
L 507.660287 59.173955 
L 508.090909 60.674686 
L 508.521531 59.173955 
L 508.952153 59.791903 
L 509.382775 60.939521 
L 509.813397 59.085677 
L 510.244019 61.116077 
L 510.674641 59.615346 
L 511.105263 60.498129 
L 511.535885 61.027799 
L 512.397129 59.350512 
L 512.827751 60.586407 
L 513.258373 58.114616 
L 513.688995 60.409851 
L 514.119617 59.262233 
L 514.550239 59.43879 
L 514.980861 57.584946 
L 515.411483 58.644285 
L 515.842105 58.202894 
L 516.272727 60.409851 
L 516.703349 57.231833 
L 517.133971 58.37945 
L 517.564593 58.026337 
L 517.995215 58.026337 
L 518.425837 57.231833 
L 518.856459 57.761502 
L 519.287081 57.055276 
L 519.717703 59.262233 
L 520.578947 59.173955 
L 521.009569 59.527068 
L 521.440191 59.43879 
L 521.870813 58.90912 
L 522.732057 61.910582 
L 523.162679 58.37945 
L 523.593301 60.851242 
L 524.023923 59.262233 
L 524.454545 60.145016 
L 524.885167 58.644285 
L 525.315789 59.173955 
L 525.746411 59.527068 
L 526.177033 59.085677 
L 526.607656 59.791903 
L 527.038278 58.026337 
L 527.4689 59.43879 
L 527.899522 60.233294 
L 528.330144 59.173955 
L 528.760766 60.409851 
L 529.191388 59.085677 
L 529.62201 58.556007 
L 530.052632 58.202894 
L 530.483254 58.026337 
L 530.913876 58.820842 
L 531.344498 60.056738 
L 531.77512 57.849781 
L 532.205742 58.202894 
L 532.636364 59.43879 
L 533.066986 57.849781 
L 533.497608 59.880181 
L 533.92823 58.291172 
L 534.358852 60.674686 
L 534.789474 58.644285 
L 535.220096 60.056738 
L 535.650718 60.056738 
L 536.08134 58.820842 
L 536.511962 59.085677 
L 536.942584 58.37945 
L 537.373206 61.027799 
L 537.803828 59.527068 
L 538.23445 59.43879 
L 538.665072 58.997398 
L 539.095694 57.320111 
L 539.526316 59.173955 
L 539.956938 58.026337 
L 540.38756 58.997398 
L 540.818182 61.027799 
L 541.248804 58.820842 
L 541.679426 60.762964 
L 542.110048 59.791903 
L 542.54067 59.96846 
L 542.971292 58.202894 
L 543.401914 57.849781 
L 543.832536 58.997398 
L 544.263158 57.673224 
L 544.69378 59.43879 
L 545.124402 59.173955 
L 545.555024 57.673224 
L 545.985646 59.791903 
L 546.416268 58.90912 
L 546.84689 60.674686 
L 547.277512 61.204355 
L 547.708134 60.674686 
L 548.138756 60.321573 
L 548.569378 60.409851 
L 549 60.762964 
L 549.430622 57.761502 
L 549.861244 59.96846 
L 550.291866 58.026337 
L 550.722488 59.350512 
L 551.15311 59.96846 
L 551.583732 59.791903 
L 552.014354 60.851242 
L 552.875598 59.96846 
L 553.30622 59.703625 
L 553.736842 59.615346 
L 555.028708 60.056738 
L 555.45933 58.644285 
L 555.889952 59.262233 
L 556.751196 58.556007 
L 557.181818 59.173955 
L 557.61244 60.409851 
L 558.043062 58.997398 
L 558.473684 58.820842 
L 558.904306 59.96846 
L 559.334928 60.409851 
L 559.76555 60.321573 
L 560.196172 58.997398 
L 560.626794 59.173955 
L 561.057416 58.732564 
L 561.488038 59.085677 
L 561.91866 58.114616 
L 562.349282 59.262233 
L 562.779904 59.791903 
L 563.210526 60.498129 
L 563.641148 60.674686 
L 564.07177 58.732564 
L 564.502392 59.527068 
L 565.363636 59.880181 
L 565.794258 60.233294 
L 566.22488 59.350512 
L 566.655502 59.173955 
L 567.086124 57.938059 
L 567.516746 58.026337 
L 567.947368 60.056738 
L 568.37799 59.703625 
L 568.808612 57.231833 
L 569.239234 58.997398 
L 569.669856 57.849781 
L 570.100478 59.703625 
L 570.5311 59.173955 
L 570.961722 59.085677 
L 571.392344 57.055276 
L 571.822967 59.350512 
L 572.253589 59.173955 
L 573.114833 59.262233 
L 573.545455 58.997398 
L 573.976077 58.90912 
L 574.406699 59.173955 
L 574.837321 59.615346 
L 575.267943 60.409851 
L 575.698565 59.615346 
L 576.129187 61.116077 
L 576.559809 58.90912 
L 576.990431 59.262233 
L 577.421053 59.791903 
L 577.851675 59.703625 
L 578.282297 57.761502 
L 578.712919 61.116077 
L 579.143541 59.085677 
L 579.574163 60.851242 
L 580.004785 60.056738 
L 580.866029 57.761502 
L 581.296651 59.173955 
L 581.727273 58.997398 
L 582.157895 58.202894 
L 582.588517 58.556007 
L 583.019139 58.644285 
L 583.449761 57.938059 
L 583.880383 60.145016 
L 584.311005 57.938059 
L 584.741627 60.145016 
L 585.172249 57.408389 
L 585.602871 59.615346 
L 586.033493 58.820842 
L 586.464115 60.674686 
L 586.894737 58.467729 
L 587.325359 57.496668 
L 587.755981 59.085677 
L 588.186603 58.291172 
L 588.617225 58.467729 
L 589.047847 58.202894 
L 589.478469 59.703625 
L 590.339713 58.026337 
L 590.770335 61.380912 
L 591.200957 58.467729 
L 591.631579 60.056738 
L 592.062201 58.732564 
L 592.492823 59.791903 
L 592.923445 59.96846 
L 593.354067 57.496668 
L 593.784689 57.761502 
L 594.215311 58.820842 
L 594.645933 58.467729 
L 595.076555 58.997398 
L 595.507177 58.114616 
L 595.937799 59.085677 
L 596.368421 58.644285 
L 596.799043 58.732564 
L 597.229665 60.409851 
L 597.660287 58.820842 
L 598.090909 58.556007 
L 598.521531 57.143555 
L 599.813397 61.910582 
L 600.244019 59.791903 
L 600.674641 58.997398 
L 601.105263 59.262233 
L 601.535885 61.027799 
L 601.966507 59.615346 
L 603.688995 60.586407 
L 604.119617 60.145016 
L 604.550239 59.085677 
L 604.980861 60.409851 
L 605.411483 59.615346 
L 605.842105 59.085677 
L 606.272727 57.849781 
L 606.703349 59.262233 
L 607.133971 58.556007 
L 607.564593 58.732564 
L 607.995215 59.703625 
L 608.425837 58.820842 
L 608.856459 59.43879 
L 609.287081 57.584946 
L 609.717703 58.291172 
L 610.148325 58.556007 
L 610.578947 58.467729 
L 611.009569 59.43879 
L 611.440191 58.820842 
L 611.870813 60.145016 
L 612.301435 57.673224 
L 612.732057 58.026337 
L 613.162679 58.997398 
L 613.593301 59.085677 
L 614.023923 59.350512 
L 614.454545 58.644285 
L 614.885167 58.556007 
L 615.315789 58.291172 
L 615.746411 59.880181 
L 616.607656 59.791903 
L 617.038278 58.37945 
L 617.4689 57.408389 
L 617.899522 57.143555 
L 618.330144 57.761502 
L 618.760766 59.262233 
L 619.191388 59.262233 
L 619.62201 57.408389 
L 620.052632 58.820842 
L 620.483254 59.350512 
L 620.913876 58.026337 
L 621.344498 60.321573 
L 621.77512 58.644285 
L 622.205742 60.056738 
L 622.636364 60.233294 
L 622.636364 60.233294 
" style="fill:none;stroke:#ff7f0e;stroke-linecap:square;stroke-width:0.5;"/>
   </g>
   <g id="patch_3">
    <path d="M 90 315 
L 90 43.2 
" style="fill:none;stroke:#000000;stroke-linecap:square;stroke-linejoin:miter;stroke-width:0.8;"/>
   </g>
   <g id="patch_4">
    <path d="M 648 315 
L 648 43.2 
" style="fill:none;stroke:#000000;stroke-linecap:square;stroke-linejoin:miter;stroke-width:0.8;"/>
   </g>
   <g id="patch_5">
    <path d="M 90 315 
L 648 315 
" style="fill:none;stroke:#000000;stroke-linecap:square;stroke-linejoin:miter;stroke-width:0.8;"/>
   </g>
   <g id="patch_6">
    <path d="M 90 43.2 
L 648 43.2 
" style="fill:none;stroke:#000000;stroke-linecap:square;stroke-linejoin:miter;stroke-width:0.8;"/>
   </g>
   <g id="text_17">
    <!-- accuracy -->
    <g transform="translate(341.92875 37.2)scale(0.12 -0.12)">
     <use xlink:href="#DejaVuSans-97"/>
     <use x="61.279297" xlink:href="#DejaVuSans-99"/>
     <use x="116.259766" xlink:href="#DejaVuSans-99"/>
     <use x="171.240234" xlink:href="#DejaVuSans-117"/>
     <use x="234.619141" xlink:href="#DejaVuSans-114"/>
     <use x="275.732422" xlink:href="#DejaVuSans-97"/>
     <use x="337.011719" xlink:href="#DejaVuSans-99"/>
     <use x="391.992188" xlink:href="#DejaVuSans-121"/>
    </g>
   </g>
   <g id="legend_1">
    <g id="patch_7">
     <path d="M 97 80.55625 
L 169.153125 80.55625 
Q 171.153125 80.55625 171.153125 78.55625 
L 171.153125 50.2 
Q 171.153125 48.2 169.153125 48.2 
L 97 48.2 
Q 95 48.2 95 50.2 
L 95 78.55625 
Q 95 80.55625 97 80.55625 
z
" style="fill:#ffffff;opacity:0.8;stroke:#cccccc;stroke-linejoin:miter;"/>
    </g>
    <g id="line2d_31">
     <path d="M 99 56.298437 
L 119 56.298437 
" style="fill:none;stroke:#1f77b4;stroke-linecap:square;stroke-width:0.5;"/>
    </g>
    <g id="line2d_32"/>
    <g id="text_18">
     <!-- train -->
     <defs>
      <path d="M 18.3125 70.21875 
L 18.3125 54.6875 
L 36.8125 54.6875 
L 36.8125 47.703125 
L 18.3125 47.703125 
L 18.3125 18.015625 
Q 18.3125 11.328125 20.140625 9.421875 
Q 21.96875 7.515625 27.59375 7.515625 
L 36.8125 7.515625 
L 36.8125 0 
L 27.59375 0 
Q 17.1875 0 13.234375 3.875 
Q 9.28125 7.765625 9.28125 18.015625 
L 9.28125 47.703125 
L 2.6875 47.703125 
L 2.6875 54.6875 
L 9.28125 54.6875 
L 9.28125 70.21875 
z
" id="DejaVuSans-116"/>
      <path d="M 9.421875 54.6875 
L 18.40625 54.6875 
L 18.40625 0 
L 9.421875 0 
z
M 9.421875 75.984375 
L 18.40625 75.984375 
L 18.40625 64.59375 
L 9.421875 64.59375 
z
" id="DejaVuSans-105"/>
      <path d="M 54.890625 33.015625 
L 54.890625 0 
L 45.90625 0 
L 45.90625 32.71875 
Q 45.90625 40.484375 42.875 44.328125 
Q 39.84375 48.1875 33.796875 48.1875 
Q 26.515625 48.1875 22.3125 43.546875 
Q 18.109375 38.921875 18.109375 30.90625 
L 18.109375 0 
L 9.078125 0 
L 9.078125 54.6875 
L 18.109375 54.6875 
L 18.109375 46.1875 
Q 21.34375 51.125 25.703125 53.5625 
Q 30.078125 56 35.796875 56 
Q 45.21875 56 50.046875 50.171875 
Q 54.890625 44.34375 54.890625 33.015625 
z
" id="DejaVuSans-110"/>
     </defs>
     <g transform="translate(127 59.798437)scale(0.1 -0.1)">
      <use xlink:href="#DejaVuSans-116"/>
      <use x="39.208984" xlink:href="#DejaVuSans-114"/>
      <use x="80.322266" xlink:href="#DejaVuSans-97"/>
      <use x="141.601562" xlink:href="#DejaVuSans-105"/>
      <use x="169.384766" xlink:href="#DejaVuSans-110"/>
     </g>
    </g>
    <g id="line2d_33">
     <path d="M 99 70.976562 
L 119 70.976562 
" style="fill:none;stroke:#ff7f0e;stroke-linecap:square;stroke-width:0.5;"/>
    </g>
    <g id="line2d_34"/>
    <g id="text_19">
     <!-- validate -->
     <defs>
      <path d="M 2.984375 54.6875 
L 12.5 54.6875 
L 29.59375 8.796875 
L 46.6875 54.6875 
L 56.203125 54.6875 
L 35.6875 0 
L 23.484375 0 
z
" id="DejaVuSans-118"/>
      <path d="M 9.421875 75.984375 
L 18.40625 75.984375 
L 18.40625 0 
L 9.421875 0 
z
" id="DejaVuSans-108"/>
      <path d="M 45.40625 46.390625 
L 45.40625 75.984375 
L 54.390625 75.984375 
L 54.390625 0 
L 45.40625 0 
L 45.40625 8.203125 
Q 42.578125 3.328125 38.25 0.953125 
Q 33.9375 -1.421875 27.875 -1.421875 
Q 17.96875 -1.421875 11.734375 6.484375 
Q 5.515625 14.40625 5.515625 27.296875 
Q 5.515625 40.1875 11.734375 48.09375 
Q 17.96875 56 27.875 56 
Q 33.9375 56 38.25 53.625 
Q 42.578125 51.265625 45.40625 46.390625 
z
M 14.796875 27.296875 
Q 14.796875 17.390625 18.875 11.75 
Q 22.953125 6.109375 30.078125 6.109375 
Q 37.203125 6.109375 41.296875 11.75 
Q 45.40625 17.390625 45.40625 27.296875 
Q 45.40625 37.203125 41.296875 42.84375 
Q 37.203125 48.484375 30.078125 48.484375 
Q 22.953125 48.484375 18.875 42.84375 
Q 14.796875 37.203125 14.796875 27.296875 
z
" id="DejaVuSans-100"/>
     </defs>
     <g transform="translate(127 74.476562)scale(0.1 -0.1)">
      <use xlink:href="#DejaVuSans-118"/>
      <use x="59.179688" xlink:href="#DejaVuSans-97"/>
      <use x="120.458984" xlink:href="#DejaVuSans-108"/>
      <use x="148.242188" xlink:href="#DejaVuSans-105"/>
      <use x="176.025391" xlink:href="#DejaVuSans-100"/>
      <use x="239.501953" xlink:href="#DejaVuSans-97"/>
      <use x="300.78125" xlink:href="#DejaVuSans-116"/>
      <use x="339.990234" xlink:href="#DejaVuSans-101"/>
     </g>
    </g>
   </g>
  </g>
 </g>
 <defs>
  <clipPath id="p1db6488373">
   <rect height="271.8" width="558" x="90" y="43.2"/>
  </clipPath>
 </defs>
</svg>
