<?xml version="1.0" encoding="utf-8" standalone="no"?>
<!DOCTYPE svg PUBLIC "-//W3C//DTD SVG 1.1//EN"
  "http://www.w3.org/Graphics/SVG/1.1/DTD/svg11.dtd">
<!-- Created with matplotlib (https://matplotlib.org/) -->
<svg height="360pt" version="1.1" viewBox="0 0 720 360" width="720pt" xmlns="http://www.w3.org/2000/svg" xmlns:xlink="http://www.w3.org/1999/xlink">
 <defs>
  <style type="text/css">
*{stroke-linecap:butt;stroke-linejoin:round;}
  </style>
 </defs>
 <g id="figure_1">
  <g id="patch_1">
   <path d="M 0 360 
L 720 360 
L 720 0 
L 0 0 
z
" style="fill:#ffffff;"/>
  </g>
  <g id="axes_1">
   <g id="patch_2">
    <path d="M 90 315 
L 648 315 
L 648 43.2 
L 90 43.2 
z
" style="fill:#ffffff;"/>
   </g>
   <g id="matplotlib.axis_1">
    <g id="xtick_1">
     <g id="line2d_1">
      <path clip-path="url(#pc577938eea)" d="M 115.363636 315 
L 115.363636 43.2 
" style="fill:none;stroke:#b0b0b0;stroke-linecap:square;stroke-width:0.8;"/>
     </g>
     <g id="line2d_2">
      <defs>
       <path d="M 0 0 
L 0 3.5 
" id="m52f9ec5534" style="stroke:#000000;stroke-width:0.8;"/>
      </defs>
      <g>
       <use style="stroke:#000000;stroke-width:0.8;" x="115.363636" xlink:href="#m52f9ec5534" y="315"/>
      </g>
     </g>
     <g id="text_1">
      <!-- 0 -->
      <defs>
       <path d="M 31.78125 66.40625 
Q 24.171875 66.40625 20.328125 58.90625 
Q 16.5 51.421875 16.5 36.375 
Q 16.5 21.390625 20.328125 13.890625 
Q 24.171875 6.390625 31.78125 6.390625 
Q 39.453125 6.390625 43.28125 13.890625 
Q 47.125 21.390625 47.125 36.375 
Q 47.125 51.421875 43.28125 58.90625 
Q 39.453125 66.40625 31.78125 66.40625 
z
M 31.78125 74.21875 
Q 44.046875 74.21875 50.515625 64.515625 
Q 56.984375 54.828125 56.984375 36.375 
Q 56.984375 17.96875 50.515625 8.265625 
Q 44.046875 -1.421875 31.78125 -1.421875 
Q 19.53125 -1.421875 13.0625 8.265625 
Q 6.59375 17.96875 6.59375 36.375 
Q 6.59375 54.828125 13.0625 64.515625 
Q 19.53125 74.21875 31.78125 74.21875 
z
" id="DejaVuSans-48"/>
      </defs>
      <g transform="translate(112.182386 329.598437)scale(0.1 -0.1)">
       <use xlink:href="#DejaVuSans-48"/>
      </g>
     </g>
    </g>
    <g id="xtick_2">
     <g id="line2d_3">
      <path clip-path="url(#pc577938eea)" d="M 182.197988 315 
L 182.197988 43.2 
" style="fill:none;stroke:#b0b0b0;stroke-linecap:square;stroke-width:0.8;"/>
     </g>
     <g id="line2d_4">
      <g>
       <use style="stroke:#000000;stroke-width:0.8;" x="182.197988" xlink:href="#m52f9ec5534" y="315"/>
      </g>
     </g>
     <g id="text_2">
      <!-- 100 -->
      <defs>
       <path d="M 12.40625 8.296875 
L 28.515625 8.296875 
L 28.515625 63.921875 
L 10.984375 60.40625 
L 10.984375 69.390625 
L 28.421875 72.90625 
L 38.28125 72.90625 
L 38.28125 8.296875 
L 54.390625 8.296875 
L 54.390625 0 
L 12.40625 0 
z
" id="DejaVuSans-49"/>
      </defs>
      <g transform="translate(172.654238 329.598437)scale(0.1 -0.1)">
       <use xlink:href="#DejaVuSans-49"/>
       <use x="63.623047" xlink:href="#DejaVuSans-48"/>
       <use x="127.246094" xlink:href="#DejaVuSans-48"/>
      </g>
     </g>
    </g>
    <g id="xtick_3">
     <g id="line2d_5">
      <path clip-path="url(#pc577938eea)" d="M 249.032339 315 
L 249.032339 43.2 
" style="fill:none;stroke:#b0b0b0;stroke-linecap:square;stroke-width:0.8;"/>
     </g>
     <g id="line2d_6">
      <g>
       <use style="stroke:#000000;stroke-width:0.8;" x="249.032339" xlink:href="#m52f9ec5534" y="315"/>
      </g>
     </g>
     <g id="text_3">
      <!-- 200 -->
      <defs>
       <path d="M 19.1875 8.296875 
L 53.609375 8.296875 
L 53.609375 0 
L 7.328125 0 
L 7.328125 8.296875 
Q 12.9375 14.109375 22.625 23.890625 
Q 32.328125 33.6875 34.8125 36.53125 
Q 39.546875 41.84375 41.421875 45.53125 
Q 43.3125 49.21875 43.3125 52.78125 
Q 43.3125 58.59375 39.234375 62.25 
Q 35.15625 65.921875 28.609375 65.921875 
Q 23.96875 65.921875 18.8125 64.3125 
Q 13.671875 62.703125 7.8125 59.421875 
L 7.8125 69.390625 
Q 13.765625 71.78125 18.9375 73 
Q 24.125 74.21875 28.421875 74.21875 
Q 39.75 74.21875 46.484375 68.546875 
Q 53.21875 62.890625 53.21875 53.421875 
Q 53.21875 48.921875 51.53125 44.890625 
Q 49.859375 40.875 45.40625 35.40625 
Q 44.1875 33.984375 37.640625 27.21875 
Q 31.109375 20.453125 19.1875 8.296875 
z
" id="DejaVuSans-50"/>
      </defs>
      <g transform="translate(239.488589 329.598437)scale(0.1 -0.1)">
       <use xlink:href="#DejaVuSans-50"/>
       <use x="63.623047" xlink:href="#DejaVuSans-48"/>
       <use x="127.246094" xlink:href="#DejaVuSans-48"/>
      </g>
     </g>
    </g>
    <g id="xtick_4">
     <g id="line2d_7">
      <path clip-path="url(#pc577938eea)" d="M 315.866691 315 
L 315.866691 43.2 
" style="fill:none;stroke:#b0b0b0;stroke-linecap:square;stroke-width:0.8;"/>
     </g>
     <g id="line2d_8">
      <g>
       <use style="stroke:#000000;stroke-width:0.8;" x="315.866691" xlink:href="#m52f9ec5534" y="315"/>
      </g>
     </g>
     <g id="text_4">
      <!-- 300 -->
      <defs>
       <path d="M 40.578125 39.3125 
Q 47.65625 37.796875 51.625 33 
Q 55.609375 28.21875 55.609375 21.1875 
Q 55.609375 10.40625 48.1875 4.484375 
Q 40.765625 -1.421875 27.09375 -1.421875 
Q 22.515625 -1.421875 17.65625 -0.515625 
Q 12.796875 0.390625 7.625 2.203125 
L 7.625 11.71875 
Q 11.71875 9.328125 16.59375 8.109375 
Q 21.484375 6.890625 26.8125 6.890625 
Q 36.078125 6.890625 40.9375 10.546875 
Q 45.796875 14.203125 45.796875 21.1875 
Q 45.796875 27.640625 41.28125 31.265625 
Q 36.765625 34.90625 28.71875 34.90625 
L 20.21875 34.90625 
L 20.21875 43.015625 
L 29.109375 43.015625 
Q 36.375 43.015625 40.234375 45.921875 
Q 44.09375 48.828125 44.09375 54.296875 
Q 44.09375 59.90625 40.109375 62.90625 
Q 36.140625 65.921875 28.71875 65.921875 
Q 24.65625 65.921875 20.015625 65.03125 
Q 15.375 64.15625 9.8125 62.3125 
L 9.8125 71.09375 
Q 15.4375 72.65625 20.34375 73.4375 
Q 25.25 74.21875 29.59375 74.21875 
Q 40.828125 74.21875 47.359375 69.109375 
Q 53.90625 64.015625 53.90625 55.328125 
Q 53.90625 49.265625 50.4375 45.09375 
Q 46.96875 40.921875 40.578125 39.3125 
z
" id="DejaVuSans-51"/>
      </defs>
      <g transform="translate(306.322941 329.598437)scale(0.1 -0.1)">
       <use xlink:href="#DejaVuSans-51"/>
       <use x="63.623047" xlink:href="#DejaVuSans-48"/>
       <use x="127.246094" xlink:href="#DejaVuSans-48"/>
      </g>
     </g>
    </g>
    <g id="xtick_5">
     <g id="line2d_9">
      <path clip-path="url(#pc577938eea)" d="M 382.701042 315 
L 382.701042 43.2 
" style="fill:none;stroke:#b0b0b0;stroke-linecap:square;stroke-width:0.8;"/>
     </g>
     <g id="line2d_10">
      <g>
       <use style="stroke:#000000;stroke-width:0.8;" x="382.701042" xlink:href="#m52f9ec5534" y="315"/>
      </g>
     </g>
     <g id="text_5">
      <!-- 400 -->
      <defs>
       <path d="M 37.796875 64.3125 
L 12.890625 25.390625 
L 37.796875 25.390625 
z
M 35.203125 72.90625 
L 47.609375 72.90625 
L 47.609375 25.390625 
L 58.015625 25.390625 
L 58.015625 17.1875 
L 47.609375 17.1875 
L 47.609375 0 
L 37.796875 0 
L 37.796875 17.1875 
L 4.890625 17.1875 
L 4.890625 26.703125 
z
" id="DejaVuSans-52"/>
      </defs>
      <g transform="translate(373.157292 329.598437)scale(0.1 -0.1)">
       <use xlink:href="#DejaVuSans-52"/>
       <use x="63.623047" xlink:href="#DejaVuSans-48"/>
       <use x="127.246094" xlink:href="#DejaVuSans-48"/>
      </g>
     </g>
    </g>
    <g id="xtick_6">
     <g id="line2d_11">
      <path clip-path="url(#pc577938eea)" d="M 449.535393 315 
L 449.535393 43.2 
" style="fill:none;stroke:#b0b0b0;stroke-linecap:square;stroke-width:0.8;"/>
     </g>
     <g id="line2d_12">
      <g>
       <use style="stroke:#000000;stroke-width:0.8;" x="449.535393" xlink:href="#m52f9ec5534" y="315"/>
      </g>
     </g>
     <g id="text_6">
      <!-- 500 -->
      <defs>
       <path d="M 10.796875 72.90625 
L 49.515625 72.90625 
L 49.515625 64.59375 
L 19.828125 64.59375 
L 19.828125 46.734375 
Q 21.96875 47.46875 24.109375 47.828125 
Q 26.265625 48.1875 28.421875 48.1875 
Q 40.625 48.1875 47.75 41.5 
Q 54.890625 34.8125 54.890625 23.390625 
Q 54.890625 11.625 47.5625 5.09375 
Q 40.234375 -1.421875 26.90625 -1.421875 
Q 22.3125 -1.421875 17.546875 -0.640625 
Q 12.796875 0.140625 7.71875 1.703125 
L 7.71875 11.625 
Q 12.109375 9.234375 16.796875 8.0625 
Q 21.484375 6.890625 26.703125 6.890625 
Q 35.15625 6.890625 40.078125 11.328125 
Q 45.015625 15.765625 45.015625 23.390625 
Q 45.015625 31 40.078125 35.4375 
Q 35.15625 39.890625 26.703125 39.890625 
Q 22.75 39.890625 18.8125 39.015625 
Q 14.890625 38.140625 10.796875 36.28125 
z
" id="DejaVuSans-53"/>
      </defs>
      <g transform="translate(439.991643 329.598437)scale(0.1 -0.1)">
       <use xlink:href="#DejaVuSans-53"/>
       <use x="63.623047" xlink:href="#DejaVuSans-48"/>
       <use x="127.246094" xlink:href="#DejaVuSans-48"/>
      </g>
     </g>
    </g>
    <g id="xtick_7">
     <g id="line2d_13">
      <path clip-path="url(#pc577938eea)" d="M 516.369745 315 
L 516.369745 43.2 
" style="fill:none;stroke:#b0b0b0;stroke-linecap:square;stroke-width:0.8;"/>
     </g>
     <g id="line2d_14">
      <g>
       <use style="stroke:#000000;stroke-width:0.8;" x="516.369745" xlink:href="#m52f9ec5534" y="315"/>
      </g>
     </g>
     <g id="text_7">
      <!-- 600 -->
      <defs>
       <path d="M 33.015625 40.375 
Q 26.375 40.375 22.484375 35.828125 
Q 18.609375 31.296875 18.609375 23.390625 
Q 18.609375 15.53125 22.484375 10.953125 
Q 26.375 6.390625 33.015625 6.390625 
Q 39.65625 6.390625 43.53125 10.953125 
Q 47.40625 15.53125 47.40625 23.390625 
Q 47.40625 31.296875 43.53125 35.828125 
Q 39.65625 40.375 33.015625 40.375 
z
M 52.59375 71.296875 
L 52.59375 62.3125 
Q 48.875 64.0625 45.09375 64.984375 
Q 41.3125 65.921875 37.59375 65.921875 
Q 27.828125 65.921875 22.671875 59.328125 
Q 17.53125 52.734375 16.796875 39.40625 
Q 19.671875 43.65625 24.015625 45.921875 
Q 28.375 48.1875 33.59375 48.1875 
Q 44.578125 48.1875 50.953125 41.515625 
Q 57.328125 34.859375 57.328125 23.390625 
Q 57.328125 12.15625 50.6875 5.359375 
Q 44.046875 -1.421875 33.015625 -1.421875 
Q 20.359375 -1.421875 13.671875 8.265625 
Q 6.984375 17.96875 6.984375 36.375 
Q 6.984375 53.65625 15.1875 63.9375 
Q 23.390625 74.21875 37.203125 74.21875 
Q 40.921875 74.21875 44.703125 73.484375 
Q 48.484375 72.75 52.59375 71.296875 
z
" id="DejaVuSans-54"/>
      </defs>
      <g transform="translate(506.825995 329.598437)scale(0.1 -0.1)">
       <use xlink:href="#DejaVuSans-54"/>
       <use x="63.623047" xlink:href="#DejaVuSans-48"/>
       <use x="127.246094" xlink:href="#DejaVuSans-48"/>
      </g>
     </g>
    </g>
    <g id="xtick_8">
     <g id="line2d_15">
      <path clip-path="url(#pc577938eea)" d="M 583.204096 315 
L 583.204096 43.2 
" style="fill:none;stroke:#b0b0b0;stroke-linecap:square;stroke-width:0.8;"/>
     </g>
     <g id="line2d_16">
      <g>
       <use style="stroke:#000000;stroke-width:0.8;" x="583.204096" xlink:href="#m52f9ec5534" y="315"/>
      </g>
     </g>
     <g id="text_8">
      <!-- 700 -->
      <defs>
       <path d="M 8.203125 72.90625 
L 55.078125 72.90625 
L 55.078125 68.703125 
L 28.609375 0 
L 18.3125 0 
L 43.21875 64.59375 
L 8.203125 64.59375 
z
" id="DejaVuSans-55"/>
      </defs>
      <g transform="translate(573.660346 329.598437)scale(0.1 -0.1)">
       <use xlink:href="#DejaVuSans-55"/>
       <use x="63.623047" xlink:href="#DejaVuSans-48"/>
       <use x="127.246094" xlink:href="#DejaVuSans-48"/>
      </g>
     </g>
    </g>
    <g id="text_9">
     <!-- epoch -->
     <defs>
      <path d="M 56.203125 29.59375 
L 56.203125 25.203125 
L 14.890625 25.203125 
Q 15.484375 15.921875 20.484375 11.0625 
Q 25.484375 6.203125 34.421875 6.203125 
Q 39.59375 6.203125 44.453125 7.46875 
Q 49.3125 8.734375 54.109375 11.28125 
L 54.109375 2.78125 
Q 49.265625 0.734375 44.1875 -0.34375 
Q 39.109375 -1.421875 33.890625 -1.421875 
Q 20.796875 -1.421875 13.15625 6.1875 
Q 5.515625 13.8125 5.515625 26.8125 
Q 5.515625 40.234375 12.765625 48.109375 
Q 20.015625 56 32.328125 56 
Q 43.359375 56 49.78125 48.890625 
Q 56.203125 41.796875 56.203125 29.59375 
z
M 47.21875 32.234375 
Q 47.125 39.59375 43.09375 43.984375 
Q 39.0625 48.390625 32.421875 48.390625 
Q 24.90625 48.390625 20.390625 44.140625 
Q 15.875 39.890625 15.1875 32.171875 
z
" id="DejaVuSans-101"/>
      <path d="M 18.109375 8.203125 
L 18.109375 -20.796875 
L 9.078125 -20.796875 
L 9.078125 54.6875 
L 18.109375 54.6875 
L 18.109375 46.390625 
Q 20.953125 51.265625 25.265625 53.625 
Q 29.59375 56 35.59375 56 
Q 45.5625 56 51.78125 48.09375 
Q 58.015625 40.1875 58.015625 27.296875 
Q 58.015625 14.40625 51.78125 6.484375 
Q 45.5625 -1.421875 35.59375 -1.421875 
Q 29.59375 -1.421875 25.265625 0.953125 
Q 20.953125 3.328125 18.109375 8.203125 
z
M 48.6875 27.296875 
Q 48.6875 37.203125 44.609375 42.84375 
Q 40.53125 48.484375 33.40625 48.484375 
Q 26.265625 48.484375 22.1875 42.84375 
Q 18.109375 37.203125 18.109375 27.296875 
Q 18.109375 17.390625 22.1875 11.75 
Q 26.265625 6.109375 33.40625 6.109375 
Q 40.53125 6.109375 44.609375 11.75 
Q 48.6875 17.390625 48.6875 27.296875 
z
" id="DejaVuSans-112"/>
      <path d="M 30.609375 48.390625 
Q 23.390625 48.390625 19.1875 42.75 
Q 14.984375 37.109375 14.984375 27.296875 
Q 14.984375 17.484375 19.15625 11.84375 
Q 23.34375 6.203125 30.609375 6.203125 
Q 37.796875 6.203125 41.984375 11.859375 
Q 46.1875 17.53125 46.1875 27.296875 
Q 46.1875 37.015625 41.984375 42.703125 
Q 37.796875 48.390625 30.609375 48.390625 
z
M 30.609375 56 
Q 42.328125 56 49.015625 48.375 
Q 55.71875 40.765625 55.71875 27.296875 
Q 55.71875 13.875 49.015625 6.21875 
Q 42.328125 -1.421875 30.609375 -1.421875 
Q 18.84375 -1.421875 12.171875 6.21875 
Q 5.515625 13.875 5.515625 27.296875 
Q 5.515625 40.765625 12.171875 48.375 
Q 18.84375 56 30.609375 56 
z
" id="DejaVuSans-111"/>
      <path d="M 48.78125 52.59375 
L 48.78125 44.1875 
Q 44.96875 46.296875 41.140625 47.34375 
Q 37.3125 48.390625 33.40625 48.390625 
Q 24.65625 48.390625 19.8125 42.84375 
Q 14.984375 37.3125 14.984375 27.296875 
Q 14.984375 17.28125 19.8125 11.734375 
Q 24.65625 6.203125 33.40625 6.203125 
Q 37.3125 6.203125 41.140625 7.25 
Q 44.96875 8.296875 48.78125 10.40625 
L 48.78125 2.09375 
Q 45.015625 0.34375 40.984375 -0.53125 
Q 36.96875 -1.421875 32.421875 -1.421875 
Q 20.0625 -1.421875 12.78125 6.34375 
Q 5.515625 14.109375 5.515625 27.296875 
Q 5.515625 40.671875 12.859375 48.328125 
Q 20.21875 56 33.015625 56 
Q 37.15625 56 41.109375 55.140625 
Q 45.0625 54.296875 48.78125 52.59375 
z
" id="DejaVuSans-99"/>
      <path d="M 54.890625 33.015625 
L 54.890625 0 
L 45.90625 0 
L 45.90625 32.71875 
Q 45.90625 40.484375 42.875 44.328125 
Q 39.84375 48.1875 33.796875 48.1875 
Q 26.515625 48.1875 22.3125 43.546875 
Q 18.109375 38.921875 18.109375 30.90625 
L 18.109375 0 
L 9.078125 0 
L 9.078125 75.984375 
L 18.109375 75.984375 
L 18.109375 46.1875 
Q 21.34375 51.125 25.703125 53.5625 
Q 30.078125 56 35.796875 56 
Q 45.21875 56 50.046875 50.171875 
Q 54.890625 44.34375 54.890625 33.015625 
z
" id="DejaVuSans-104"/>
     </defs>
     <g transform="translate(353.771875 343.276563)scale(0.1 -0.1)">
      <use xlink:href="#DejaVuSans-101"/>
      <use x="61.523438" xlink:href="#DejaVuSans-112"/>
      <use x="125" xlink:href="#DejaVuSans-111"/>
      <use x="186.181641" xlink:href="#DejaVuSans-99"/>
      <use x="241.162109" xlink:href="#DejaVuSans-104"/>
     </g>
    </g>
   </g>
   <g id="matplotlib.axis_2">
    <g id="ytick_1">
     <g id="line2d_17">
      <path clip-path="url(#pc577938eea)" d="M 90 285.427832 
L 648 285.427832 
" style="fill:none;stroke:#b0b0b0;stroke-linecap:square;stroke-width:0.8;"/>
     </g>
     <g id="line2d_18">
      <defs>
       <path d="M 0 0 
L -3.5 0 
" id="md308a68a08" style="stroke:#000000;stroke-width:0.8;"/>
      </defs>
      <g>
       <use style="stroke:#000000;stroke-width:0.8;" x="90" xlink:href="#md308a68a08" y="285.427832"/>
      </g>
     </g>
     <g id="text_10">
      <!-- 0.4 -->
      <defs>
       <path d="M 10.6875 12.40625 
L 21 12.40625 
L 21 0 
L 10.6875 0 
z
" id="DejaVuSans-46"/>
      </defs>
      <g transform="translate(67.096875 289.227051)scale(0.1 -0.1)">
       <use xlink:href="#DejaVuSans-48"/>
       <use x="63.623047" xlink:href="#DejaVuSans-46"/>
       <use x="95.410156" xlink:href="#DejaVuSans-52"/>
      </g>
     </g>
    </g>
    <g id="ytick_2">
     <g id="line2d_19">
      <path clip-path="url(#pc577938eea)" d="M 90 244.962498 
L 648 244.962498 
" style="fill:none;stroke:#b0b0b0;stroke-linecap:square;stroke-width:0.8;"/>
     </g>
     <g id="line2d_20">
      <g>
       <use style="stroke:#000000;stroke-width:0.8;" x="90" xlink:href="#md308a68a08" y="244.962498"/>
      </g>
     </g>
     <g id="text_11">
      <!-- 0.6 -->
      <g transform="translate(67.096875 248.761717)scale(0.1 -0.1)">
       <use xlink:href="#DejaVuSans-48"/>
       <use x="63.623047" xlink:href="#DejaVuSans-46"/>
       <use x="95.410156" xlink:href="#DejaVuSans-54"/>
      </g>
     </g>
    </g>
    <g id="ytick_3">
     <g id="line2d_21">
      <path clip-path="url(#pc577938eea)" d="M 90 204.497164 
L 648 204.497164 
" style="fill:none;stroke:#b0b0b0;stroke-linecap:square;stroke-width:0.8;"/>
     </g>
     <g id="line2d_22">
      <g>
       <use style="stroke:#000000;stroke-width:0.8;" x="90" xlink:href="#md308a68a08" y="204.497164"/>
      </g>
     </g>
     <g id="text_12">
      <!-- 0.8 -->
      <defs>
       <path d="M 31.78125 34.625 
Q 24.75 34.625 20.71875 30.859375 
Q 16.703125 27.09375 16.703125 20.515625 
Q 16.703125 13.921875 20.71875 10.15625 
Q 24.75 6.390625 31.78125 6.390625 
Q 38.8125 6.390625 42.859375 10.171875 
Q 46.921875 13.96875 46.921875 20.515625 
Q 46.921875 27.09375 42.890625 30.859375 
Q 38.875 34.625 31.78125 34.625 
z
M 21.921875 38.8125 
Q 15.578125 40.375 12.03125 44.71875 
Q 8.5 49.078125 8.5 55.328125 
Q 8.5 64.0625 14.71875 69.140625 
Q 20.953125 74.21875 31.78125 74.21875 
Q 42.671875 74.21875 48.875 69.140625 
Q 55.078125 64.0625 55.078125 55.328125 
Q 55.078125 49.078125 51.53125 44.71875 
Q 48 40.375 41.703125 38.8125 
Q 48.828125 37.15625 52.796875 32.3125 
Q 56.78125 27.484375 56.78125 20.515625 
Q 56.78125 9.90625 50.3125 4.234375 
Q 43.84375 -1.421875 31.78125 -1.421875 
Q 19.734375 -1.421875 13.25 4.234375 
Q 6.78125 9.90625 6.78125 20.515625 
Q 6.78125 27.484375 10.78125 32.3125 
Q 14.796875 37.15625 21.921875 38.8125 
z
M 18.3125 54.390625 
Q 18.3125 48.734375 21.84375 45.5625 
Q 25.390625 42.390625 31.78125 42.390625 
Q 38.140625 42.390625 41.71875 45.5625 
Q 45.3125 48.734375 45.3125 54.390625 
Q 45.3125 60.0625 41.71875 63.234375 
Q 38.140625 66.40625 31.78125 66.40625 
Q 25.390625 66.40625 21.84375 63.234375 
Q 18.3125 60.0625 18.3125 54.390625 
z
" id="DejaVuSans-56"/>
      </defs>
      <g transform="translate(67.096875 208.296383)scale(0.1 -0.1)">
       <use xlink:href="#DejaVuSans-48"/>
       <use x="63.623047" xlink:href="#DejaVuSans-46"/>
       <use x="95.410156" xlink:href="#DejaVuSans-56"/>
      </g>
     </g>
    </g>
    <g id="ytick_4">
     <g id="line2d_23">
      <path clip-path="url(#pc577938eea)" d="M 90 164.03183 
L 648 164.03183 
" style="fill:none;stroke:#b0b0b0;stroke-linecap:square;stroke-width:0.8;"/>
     </g>
     <g id="line2d_24">
      <g>
       <use style="stroke:#000000;stroke-width:0.8;" x="90" xlink:href="#md308a68a08" y="164.03183"/>
      </g>
     </g>
     <g id="text_13">
      <!-- 1.0 -->
      <g transform="translate(67.096875 167.831048)scale(0.1 -0.1)">
       <use xlink:href="#DejaVuSans-49"/>
       <use x="63.623047" xlink:href="#DejaVuSans-46"/>
       <use x="95.410156" xlink:href="#DejaVuSans-48"/>
      </g>
     </g>
    </g>
    <g id="ytick_5">
     <g id="line2d_25">
      <path clip-path="url(#pc577938eea)" d="M 90 123.566496 
L 648 123.566496 
" style="fill:none;stroke:#b0b0b0;stroke-linecap:square;stroke-width:0.8;"/>
     </g>
     <g id="line2d_26">
      <g>
       <use style="stroke:#000000;stroke-width:0.8;" x="90" xlink:href="#md308a68a08" y="123.566496"/>
      </g>
     </g>
     <g id="text_14">
      <!-- 1.2 -->
      <g transform="translate(67.096875 127.365714)scale(0.1 -0.1)">
       <use xlink:href="#DejaVuSans-49"/>
       <use x="63.623047" xlink:href="#DejaVuSans-46"/>
       <use x="95.410156" xlink:href="#DejaVuSans-50"/>
      </g>
     </g>
    </g>
    <g id="ytick_6">
     <g id="line2d_27">
      <path clip-path="url(#pc577938eea)" d="M 90 83.101161 
L 648 83.101161 
" style="fill:none;stroke:#b0b0b0;stroke-linecap:square;stroke-width:0.8;"/>
     </g>
     <g id="line2d_28">
      <g>
       <use style="stroke:#000000;stroke-width:0.8;" x="90" xlink:href="#md308a68a08" y="83.101161"/>
      </g>
     </g>
     <g id="text_15">
      <!-- 1.4 -->
      <g transform="translate(67.096875 86.90038)scale(0.1 -0.1)">
       <use xlink:href="#DejaVuSans-49"/>
       <use x="63.623047" xlink:href="#DejaVuSans-46"/>
       <use x="95.410156" xlink:href="#DejaVuSans-52"/>
      </g>
     </g>
    </g>
    <g id="text_16">
     <!-- loss -->
     <defs>
      <path d="M 9.421875 75.984375 
L 18.40625 75.984375 
L 18.40625 0 
L 9.421875 0 
z
" id="DejaVuSans-108"/>
      <path d="M 44.28125 53.078125 
L 44.28125 44.578125 
Q 40.484375 46.53125 36.375 47.5 
Q 32.28125 48.484375 27.875 48.484375 
Q 21.1875 48.484375 17.84375 46.4375 
Q 14.5 44.390625 14.5 40.28125 
Q 14.5 37.15625 16.890625 35.375 
Q 19.28125 33.59375 26.515625 31.984375 
L 29.59375 31.296875 
Q 39.15625 29.25 43.1875 25.515625 
Q 47.21875 21.78125 47.21875 15.09375 
Q 47.21875 7.46875 41.1875 3.015625 
Q 35.15625 -1.421875 24.609375 -1.421875 
Q 20.21875 -1.421875 15.453125 -0.5625 
Q 10.6875 0.296875 5.421875 2 
L 5.421875 11.28125 
Q 10.40625 8.6875 15.234375 7.390625 
Q 20.0625 6.109375 24.8125 6.109375 
Q 31.15625 6.109375 34.5625 8.28125 
Q 37.984375 10.453125 37.984375 14.40625 
Q 37.984375 18.0625 35.515625 20.015625 
Q 33.0625 21.96875 24.703125 23.78125 
L 21.578125 24.515625 
Q 13.234375 26.265625 9.515625 29.90625 
Q 5.8125 33.546875 5.8125 39.890625 
Q 5.8125 47.609375 11.28125 51.796875 
Q 16.75 56 26.8125 56 
Q 31.78125 56 36.171875 55.265625 
Q 40.578125 54.546875 44.28125 53.078125 
z
" id="DejaVuSans-115"/>
     </defs>
     <g transform="translate(61.017187 188.757812)rotate(-90)scale(0.1 -0.1)">
      <use xlink:href="#DejaVuSans-108"/>
      <use x="27.783203" xlink:href="#DejaVuSans-111"/>
      <use x="88.964844" xlink:href="#DejaVuSans-115"/>
      <use x="141.064453" xlink:href="#DejaVuSans-115"/>
     </g>
    </g>
   </g>
   <g id="line2d_29">
    <path clip-path="url(#pc577938eea)" d="M 115.363636 55.554545 
L 116.03198 65.832032 
L 116.700323 66.927324 
L 117.368667 71.517339 
L 118.03701 74.892359 
L 118.705354 76.456583 
L 119.373697 78.881873 
L 120.042041 79.617211 
L 120.710384 82.454439 
L 122.047072 83.987524 
L 122.715415 84.116133 
L 123.383759 85.551857 
L 124.052102 88.733709 
L 124.720446 89.763326 
L 125.388789 91.055752 
L 126.057133 92.708128 
L 126.725476 93.56442 
L 127.39382 96.99998 
L 128.062163 96.666189 
L 129.39885 101.638987 
L 130.735537 107.123939 
L 131.403881 108.17827 
L 132.072224 112.364785 
L 132.740568 115.145998 
L 133.408911 115.119143 
L 134.077255 123.244743 
L 134.745598 122.096089 
L 135.413942 126.466647 
L 136.082285 127.614406 
L 136.750629 133.462926 
L 138.087316 135.433646 
L 138.755659 140.058048 
L 139.424003 145.536307 
L 140.092346 147.187907 
L 140.76069 149.563532 
L 141.429033 149.648259 
L 142.097377 157.167712 
L 142.76572 156.21813 
L 143.434064 158.942661 
L 144.102407 161.14018 
L 144.770751 167.812643 
L 145.439095 164.097975 
L 146.107438 167.533347 
L 146.775782 169.701061 
L 147.444125 172.619717 
L 148.112469 176.528309 
L 148.780812 176.301775 
L 149.449156 179.442149 
L 150.117499 179.962999 
L 150.785843 181.525367 
L 151.454186 181.28389 
L 152.12253 186.637866 
L 152.790873 188.705937 
L 153.459217 188.752956 
L 154.12756 192.486932 
L 154.795904 191.601261 
L 155.464247 194.55293 
L 156.132591 196.47741 
L 156.800934 197.65769 
L 157.469278 195.872779 
L 158.137621 202.55892 
L 158.805965 199.474353 
L 159.474308 199.691862 
L 160.142652 203.041548 
L 160.810995 205.714111 
L 162.147682 207.105593 
L 162.816026 206.63054 
L 163.484369 209.866156 
L 164.152713 207.860715 
L 164.821056 210.693281 
L 165.4894 211.659977 
L 166.157743 212.071108 
L 166.826087 212.204692 
L 167.49443 214.388707 
L 168.162774 215.148327 
L 168.831117 218.755312 
L 169.499461 217.420009 
L 170.167805 217.145285 
L 170.836148 218.669775 
L 171.504492 216.356161 
L 172.172835 220.111375 
L 172.841179 218.827144 
L 173.509522 223.46288 
L 174.177866 221.439978 
L 175.514553 226.36292 
L 176.182896 221.075748 
L 176.85124 228.164634 
L 177.519583 224.140912 
L 178.187927 226.556649 
L 178.85627 227.742123 
L 179.524614 229.747115 
L 180.192957 227.433357 
L 180.861301 227.132875 
L 181.529644 227.478771 
L 182.197988 229.959068 
L 182.866331 225.40146 
L 183.534675 230.759474 
L 184.203018 231.09927 
L 184.871362 229.993545 
L 185.539705 230.261945 
L 186.208049 231.597174 
L 186.876392 230.663196 
L 187.544736 233.434288 
L 188.213079 232.236876 
L 188.881423 235.935126 
L 189.549766 234.167823 
L 190.21811 236.974087 
L 190.886453 234.408951 
L 191.554797 235.787754 
L 192.22314 234.298238 
L 192.891484 237.03412 
L 193.559828 235.646596 
L 194.228171 233.886329 
L 194.896515 235.319274 
L 195.564858 235.147271 
L 196.233202 237.894763 
L 196.901545 238.226601 
L 197.569889 241.983203 
L 198.238232 237.167654 
L 198.906576 238.650597 
L 199.574919 239.535849 
L 200.243263 242.720852 
L 200.911606 241.143466 
L 201.57995 240.4361 
L 202.248293 241.276763 
L 202.916637 240.802756 
L 203.58498 241.941043 
L 204.253324 238.219855 
L 204.921667 240.591328 
L 205.590011 238.882094 
L 206.258354 241.598742 
L 206.926698 242.226437 
L 207.595041 244.380151 
L 208.263385 245.749184 
L 208.931728 242.700961 
L 210.268415 247.347983 
L 210.936759 244.165902 
L 211.605102 244.756704 
L 212.273446 244.792589 
L 212.941789 245.702046 
L 213.610133 248.661544 
L 214.278476 246.280778 
L 214.94682 246.337175 
L 215.615163 248.778617 
L 216.283507 244.977319 
L 216.951851 248.518205 
L 217.620194 248.863587 
L 218.956881 246.611673 
L 219.625225 249.044723 
L 220.293568 246.940045 
L 220.961912 249.525853 
L 221.630255 248.044758 
L 222.298599 247.953398 
L 222.966942 249.40551 
L 223.635286 249.019548 
L 224.303629 249.155196 
L 224.971973 250.184782 
L 226.30866 252.762472 
L 226.977003 248.87702 
L 227.645347 251.276374 
L 228.31369 250.973104 
L 228.982034 253.415308 
L 229.650377 254.335235 
L 230.318721 252.912252 
L 230.987064 253.314689 
L 231.655408 252.756015 
L 232.323751 249.396199 
L 232.992095 254.731383 
L 233.660438 255.225454 
L 234.328782 254.828261 
L 234.997125 254.029433 
L 235.665469 252.057677 
L 236.333812 253.465104 
L 237.002156 256.528152 
L 237.670499 256.559756 
L 238.338843 254.792411 
L 239.007186 254.827826 
L 239.67553 256.688557 
L 240.343874 256.825513 
L 241.012217 257.690056 
L 241.680561 253.495493 
L 242.348904 254.49524 
L 243.017248 256.597668 
L 243.685591 256.920444 
L 244.353935 253.164856 
L 245.022278 257.517505 
L 245.690622 254.279864 
L 246.358965 258.70104 
L 247.027309 255.484944 
L 247.695652 255.742416 
L 248.363996 257.409461 
L 249.032339 258.26071 
L 249.700683 257.764343 
L 250.369026 257.005345 
L 251.03737 257.006916 
L 251.705713 256.154725 
L 252.374057 262.536082 
L 253.0424 258.57062 
L 253.710744 259.053931 
L 254.379087 256.569187 
L 255.047431 260.932833 
L 255.715774 260.646169 
L 256.384118 261.682904 
L 257.052461 259.075631 
L 257.720805 258.323647 
L 258.389148 260.7999 
L 259.057492 257.002477 
L 259.725835 262.733457 
L 260.394179 262.504108 
L 261.062522 258.859469 
L 261.730866 256.751333 
L 262.399209 259.486256 
L 263.067553 260.578053 
L 263.735897 261.92432 
L 264.40424 262.960315 
L 265.072584 261.028753 
L 265.740927 262.050893 
L 266.409271 263.586544 
L 267.077614 260.630894 
L 267.745958 261.754894 
L 268.414301 261.001513 
L 269.082645 265.7483 
L 269.750988 263.255362 
L 270.419332 263.591127 
L 271.087675 262.965512 
L 271.756019 260.649856 
L 272.424362 264.022869 
L 273.092706 264.089233 
L 273.761049 263.495481 
L 274.429393 263.612774 
L 275.097736 263.431342 
L 275.76608 264.693485 
L 276.434423 263.676649 
L 277.102767 263.322419 
L 277.77111 266.703338 
L 278.439454 264.286284 
L 279.107797 265.096167 
L 279.776141 265.647926 
L 280.444484 264.146034 
L 281.112828 263.600783 
L 281.781171 264.930741 
L 282.449515 262.121645 
L 283.117858 263.090574 
L 283.786202 265.926431 
L 284.454545 265.585671 
L 285.791232 267.274424 
L 286.459576 263.510972 
L 287.12792 265.930047 
L 287.796263 267.158258 
L 288.464607 266.36899 
L 289.13295 264.786902 
L 289.801294 266.062093 
L 290.469637 269.383308 
L 291.137981 267.443116 
L 291.806324 268.456721 
L 292.474668 265.764991 
L 293.143011 269.409016 
L 293.811355 262.888354 
L 294.479698 267.561524 
L 295.148042 269.645064 
L 295.816385 269.101919 
L 296.484729 271.302743 
L 297.153072 269.108987 
L 298.489759 266.147763 
L 299.158103 267.77064 
L 299.826446 267.580544 
L 300.49479 263.632481 
L 301.163133 269.331513 
L 301.831477 270.813086 
L 302.49982 270.803404 
L 303.168164 272.403325 
L 303.836507 267.710017 
L 304.504851 269.700748 
L 305.173194 270.244845 
L 305.841538 266.345874 
L 307.178225 269.818449 
L 307.846568 270.077297 
L 308.514912 272.364201 
L 309.183255 267.187566 
L 309.851599 268.648116 
L 310.519943 271.018432 
L 311.188286 269.170747 
L 311.85663 271.567993 
L 312.524973 270.846207 
L 313.193317 270.913932 
L 313.86166 269.398503 
L 314.530004 269.850235 
L 315.198347 271.639041 
L 315.866691 270.659155 
L 316.535034 269.18805 
L 317.203378 270.99535 
L 317.871721 274.17066 
L 318.540065 272.415168 
L 319.208408 272.974824 
L 319.876752 270.253773 
L 320.545095 272.666898 
L 321.213439 273.009023 
L 321.881782 273.033431 
L 322.550126 273.668911 
L 323.218469 270.247038 
L 323.886813 273.536304 
L 324.555156 269.822214 
L 325.2235 272.576915 
L 325.891843 272.414161 
L 326.560187 272.384132 
L 327.22853 273.299218 
L 327.896874 269.528492 
L 328.565217 273.820532 
L 329.233561 272.903753 
L 329.901904 273.608246 
L 330.570248 274.031067 
L 331.238591 275.458283 
L 331.906935 273.673652 
L 332.575278 272.60104 
L 333.243622 275.426875 
L 333.911966 275.781936 
L 334.580309 271.589031 
L 335.248653 274.958828 
L 335.916996 273.711464 
L 336.58534 275.456521 
L 337.253683 274.663987 
L 337.922027 274.288066 
L 339.258714 275.933105 
L 339.927057 275.760059 
L 340.595401 273.064728 
L 341.263744 273.67795 
L 341.932088 275.707105 
L 342.600431 273.548897 
L 343.268775 277.693679 
L 343.937118 279.138057 
L 345.273805 275.648289 
L 345.942149 277.641977 
L 346.610492 275.717451 
L 347.278836 276.822068 
L 348.615523 274.82229 
L 349.283866 272.011179 
L 349.95221 275.702774 
L 351.288897 278.735177 
L 351.95724 278.938847 
L 352.625584 279.528296 
L 353.293927 277.047614 
L 353.962271 276.509576 
L 354.630614 274.647496 
L 355.298958 280.111076 
L 355.967301 275.734524 
L 356.635645 277.085743 
L 357.303989 276.381335 
L 358.640676 280.174072 
L 359.309019 277.64798 
L 359.977363 277.870974 
L 360.645706 280.311098 
L 361.31405 277.412181 
L 361.982393 275.711505 
L 362.650737 280.097671 
L 363.31908 277.747586 
L 363.987424 277.652945 
L 364.655767 278.524168 
L 365.324111 278.112452 
L 365.992454 280.327164 
L 366.660798 275.682683 
L 367.329141 278.524088 
L 367.997485 280.113791 
L 368.665828 275.091876 
L 369.334172 281.070283 
L 370.002515 277.814838 
L 370.670859 278.135914 
L 371.339202 280.243106 
L 372.007546 275.861962 
L 372.675889 277.418917 
L 373.344233 278.350723 
L 374.012576 278.420251 
L 374.68092 279.097335 
L 375.349263 278.855742 
L 376.017607 278.485403 
L 376.68595 276.722475 
L 377.354294 279.384684 
L 378.022637 275.920566 
L 378.690981 281.022389 
L 379.359324 278.078185 
L 380.027668 278.794262 
L 380.696011 281.227528 
L 381.364355 282.108698 
L 382.032699 278.997452 
L 382.701042 280.566209 
L 383.369386 279.324268 
L 384.037729 280.291613 
L 384.706073 279.452565 
L 385.374416 276.632409 
L 386.04276 279.835944 
L 386.711103 278.571776 
L 387.379447 279.860323 
L 388.04779 279.793917 
L 388.716134 280.615812 
L 389.384477 282.643363 
L 390.052821 279.822275 
L 390.721164 279.914613 
L 391.389508 282.388626 
L 392.057851 281.481729 
L 392.726195 278.269255 
L 393.394538 282.361211 
L 394.062882 277.93387 
L 394.731225 279.353745 
L 395.399569 278.726342 
L 396.067912 282.0104 
L 396.736256 281.966607 
L 397.404599 282.642459 
L 398.072943 281.115548 
L 398.741286 279.269623 
L 399.40963 282.297575 
L 400.077973 281.189854 
L 400.746317 284.609933 
L 401.41466 279.052541 
L 402.083004 282.11507 
L 402.751347 280.509916 
L 403.419691 280.386705 
L 404.088034 279.622626 
L 404.756378 281.412497 
L 405.424722 282.079594 
L 406.093065 281.037448 
L 406.761409 281.391602 
L 407.429752 282.233497 
L 408.098096 283.564211 
L 408.766439 283.896268 
L 409.434783 281.79853 
L 410.103126 281.096758 
L 410.77147 281.097365 
L 411.439813 283.665878 
L 412.108157 282.24856 
L 412.7765 281.602347 
L 413.444844 283.427774 
L 414.113187 283.412924 
L 414.781531 284.159532 
L 415.449874 284.072018 
L 416.118218 284.352997 
L 416.786561 282.491407 
L 417.454905 279.040674 
L 418.791592 285.215812 
L 419.459935 285.738889 
L 420.128279 282.196686 
L 420.796622 284.225285 
L 421.464966 284.503384 
L 422.133309 283.683517 
L 422.801653 286.402611 
L 423.469996 282.246879 
L 424.13834 284.239924 
L 424.806683 283.627375 
L 425.475027 285.643911 
L 426.14337 284.477188 
L 426.811714 282.30563 
L 427.480057 286.768917 
L 428.148401 285.598208 
L 428.816745 285.422368 
L 429.485088 284.530857 
L 430.821775 284.977868 
L 431.490119 283.485063 
L 432.158462 283.796211 
L 432.826806 282.98131 
L 433.495149 287.410763 
L 434.163493 284.084208 
L 434.831836 285.784735 
L 435.50018 286.846032 
L 436.168523 285.576654 
L 436.836867 282.524772 
L 437.50521 287.666947 
L 438.173554 286.765534 
L 438.841897 289.58752 
L 440.178584 284.245212 
L 440.846928 285.48274 
L 441.515271 287.008223 
L 442.183615 285.397367 
L 442.851958 288.474707 
L 443.520302 287.268427 
L 444.188645 287.094336 
L 444.856989 285.423739 
L 445.525332 287.078444 
L 446.193676 284.845847 
L 446.862019 283.916666 
L 447.530363 287.280753 
L 448.198706 286.520662 
L 449.535393 287.206643 
L 450.203737 288.685826 
L 450.87208 286.69832 
L 451.540424 286.851768 
L 452.208768 286.26791 
L 452.877111 283.72148 
L 453.545455 287.39115 
L 454.213798 287.221366 
L 455.550485 288.110676 
L 456.218829 287.008764 
L 456.887172 285.499852 
L 457.555516 285.525008 
L 458.223859 286.254715 
L 458.892203 287.368796 
L 459.560546 288.973179 
L 460.22889 283.895336 
L 460.897233 286.787654 
L 461.565577 288.786653 
L 463.570607 287.928889 
L 464.238951 286.590787 
L 464.907294 288.530199 
L 465.575638 288.432901 
L 466.243981 290.084868 
L 466.912325 288.328369 
L 467.580668 287.917903 
L 468.249012 286.780217 
L 468.917355 288.384231 
L 469.585699 287.920292 
L 470.254042 287.058171 
L 470.922386 287.080455 
L 471.590729 286.794313 
L 472.259073 289.821174 
L 472.927416 286.681345 
L 473.59576 288.504043 
L 474.264103 289.711384 
L 474.932447 288.321593 
L 475.600791 287.388435 
L 476.269134 290.327037 
L 476.937478 289.311189 
L 477.605821 287.272539 
L 478.274165 289.139114 
L 478.942508 289.984954 
L 479.610852 287.645847 
L 480.279195 287.857453 
L 480.947539 289.606298 
L 481.615882 287.412823 
L 482.284226 286.774687 
L 482.952569 288.449737 
L 483.620913 288.797718 
L 484.289256 290.954933 
L 485.625943 289.033816 
L 486.294287 289.934789 
L 486.96263 292.67415 
L 487.630974 289.02687 
L 488.299317 289.714901 
L 488.967661 292.214978 
L 489.636004 288.925144 
L 490.304348 292.418981 
L 490.972691 291.498083 
L 491.641035 288.91401 
L 492.309378 290.682532 
L 492.977722 291.183257 
L 493.646065 288.486457 
L 494.314409 291.875339 
L 494.982752 291.815978 
L 495.651096 289.810833 
L 496.319439 292.452777 
L 497.656126 288.987327 
L 498.32447 290.532794 
L 498.992814 288.296705 
L 499.661157 290.055874 
L 500.329501 290.493127 
L 500.997844 287.84348 
L 501.666188 291.142951 
L 502.334531 291.682596 
L 503.002875 291.339104 
L 503.671218 287.017337 
L 504.339562 288.690191 
L 505.007905 288.365535 
L 505.676249 292.082124 
L 506.344592 291.752516 
L 507.012936 286.640084 
L 507.681279 292.656409 
L 508.349623 290.584601 
L 509.017966 290.435737 
L 509.68631 286.816183 
L 510.354653 292.33318 
L 511.022997 295.303944 
L 511.69134 290.93903 
L 512.359684 292.103349 
L 513.028027 294.086363 
L 513.696371 292.840637 
L 514.364714 291.28783 
L 515.033058 294.609325 
L 515.701401 291.926482 
L 516.369745 292.009637 
L 517.038088 293.024621 
L 517.706432 291.474439 
L 518.374775 295.579623 
L 519.043119 292.664156 
L 519.711462 291.950377 
L 520.379806 291.759888 
L 521.048149 294.828589 
L 521.716493 291.147109 
L 522.384837 291.01124 
L 523.05318 291.840831 
L 523.721524 290.717795 
L 524.389867 291.809387 
L 525.058211 288.764565 
L 525.726554 290.46941 
L 526.394898 291.556199 
L 527.063241 290.522077 
L 527.731585 293.940276 
L 528.399928 295.029147 
L 529.068272 292.293175 
L 529.736615 292.329819 
L 530.404959 294.055717 
L 531.073302 292.059211 
L 531.741646 292.766606 
L 532.409989 290.157175 
L 533.078333 293.456591 
L 533.746676 292.257299 
L 534.41502 292.852646 
L 535.083363 290.086234 
L 535.751707 290.296614 
L 536.42005 292.836224 
L 537.088394 289.83633 
L 537.756737 293.052491 
L 538.425081 292.049815 
L 539.093424 296.336753 
L 539.761768 292.598596 
L 540.430111 289.619266 
L 541.098455 293.609525 
L 542.435142 295.061119 
L 543.103485 296.387291 
L 543.771829 294.138909 
L 544.440172 292.492995 
L 545.108516 292.26594 
L 545.77686 293.370257 
L 546.445203 292.670906 
L 547.113547 294.773386 
L 547.78189 294.211716 
L 548.450234 294.263682 
L 549.118577 291.928315 
L 549.786921 295.900499 
L 550.455264 291.62996 
L 551.123608 294.568073 
L 552.460295 292.799413 
L 553.128638 296.293436 
L 553.796982 293.16548 
L 554.465325 294.136115 
L 555.133669 297.102876 
L 556.470356 293.133493 
L 557.138699 295.209237 
L 557.807043 290.91899 
L 558.475386 296.590577 
L 559.14373 294.911085 
L 559.812073 294.261873 
L 560.480417 292.723154 
L 561.14876 296.443412 
L 561.817104 292.714124 
L 562.485447 292.790646 
L 563.153791 292.512064 
L 563.822134 293.607261 
L 564.490478 299.396345 
L 565.158821 294.380636 
L 565.827165 296.426497 
L 566.495508 293.304028 
L 567.163852 294.719713 
L 567.832195 298.516985 
L 568.500539 297.164321 
L 569.168883 296.680533 
L 569.837226 294.801345 
L 570.50557 293.853667 
L 571.173913 295.462795 
L 571.842257 295.841153 
L 572.5106 292.818634 
L 573.178944 293.557669 
L 573.847287 296.281028 
L 574.515631 296.023944 
L 575.183974 295.298813 
L 575.852318 295.676965 
L 576.520661 296.216471 
L 577.189005 294.237719 
L 577.857348 296.629214 
L 578.525692 293.369778 
L 579.194035 299.160969 
L 579.862379 290.587341 
L 580.530722 296.855938 
L 581.199066 296.516317 
L 581.867409 296.399298 
L 582.535753 294.861765 
L 583.204096 292.138089 
L 583.87244 293.886237 
L 584.540783 294.639173 
L 585.209127 296.325006 
L 585.87747 293.903969 
L 586.545814 294.429691 
L 587.214157 293.791792 
L 587.882501 298.105608 
L 588.550844 297.245432 
L 589.219188 294.667586 
L 589.887531 295.342429 
L 590.555875 297.841322 
L 591.224218 293.662759 
L 591.892562 296.866249 
L 592.560905 294.435909 
L 593.229249 296.471936 
L 593.897593 294.110242 
L 594.565936 295.38841 
L 595.23428 295.491089 
L 595.902623 297.502503 
L 596.570967 297.719797 
L 597.23931 298.446091 
L 597.907654 296.737945 
L 599.244341 296.171714 
L 599.912684 299.832456 
L 600.581028 296.695423 
L 601.249371 296.456745 
L 601.917715 297.453912 
L 602.586058 297.732132 
L 603.254402 297.636595 
L 603.922745 294.875377 
L 604.591089 296.925423 
L 605.259432 294.76775 
L 605.927776 297.233824 
L 606.596119 296.129565 
L 607.264463 298.241957 
L 607.932806 295.289041 
L 608.60115 298.048219 
L 609.269493 296.530774 
L 609.937837 294.595506 
L 610.60618 298.35411 
L 611.274524 297.928102 
L 611.942867 296.564767 
L 612.611211 296.223862 
L 613.279554 298.106673 
L 613.947898 294.257641 
L 614.616241 294.937766 
L 615.284585 297.385426 
L 615.952928 295.505353 
L 616.621272 298.56747 
L 617.289616 298.506789 
L 617.957959 299.026674 
L 618.626303 301.554146 
L 619.294646 299.362516 
L 619.96299 295.715386 
L 620.631333 295.981242 
L 621.299677 298.353524 
L 621.96802 302.645455 
L 622.636364 298.687314 
L 622.636364 298.687314 
" style="fill:none;stroke:#1f77b4;stroke-linecap:square;stroke-width:0.5;"/>
   </g>
   <g id="line2d_30">
    <path clip-path="url(#pc577938eea)" d="M 115.363636 58.808154 
L 116.700323 69.307782 
L 117.368667 69.132199 
L 118.705354 77.806744 
L 119.373697 78.345076 
L 120.042041 80.950062 
L 120.710384 79.968231 
L 121.378728 79.499498 
L 122.047072 81.665104 
L 122.715415 80.31868 
L 123.383759 83.96008 
L 124.052102 84.588257 
L 124.720446 87.464309 
L 125.388789 88.98757 
L 126.057133 88.166929 
L 126.725476 91.92181 
L 127.39382 93.403394 
L 128.062163 95.717844 
L 128.730507 93.409555 
L 129.39885 97.524644 
L 130.067194 98.321095 
L 130.735537 104.304066 
L 131.403881 104.147521 
L 132.072224 106.00068 
L 132.740568 109.908505 
L 133.408911 115.647001 
L 134.077255 115.551966 
L 135.413942 119.550161 
L 136.082285 122.30268 
L 136.750629 127.800754 
L 137.418972 130.750874 
L 138.087316 132.266812 
L 139.424003 139.418189 
L 140.092346 141.680688 
L 140.76069 145.287732 
L 141.429033 143.667322 
L 142.097377 147.4268 
L 142.76572 150.180913 
L 143.434064 154.044948 
L 144.770751 157.288737 
L 145.439095 160.610474 
L 146.107438 165.474248 
L 146.775782 163.989776 
L 147.444125 166.801174 
L 148.112469 171.377024 
L 148.780812 172.915029 
L 149.449156 173.923036 
L 150.117499 176.21397 
L 150.785843 177.775236 
L 151.454186 180.222251 
L 152.12253 180.836667 
L 152.790873 183.173043 
L 153.459217 182.808876 
L 154.12756 187.80352 
L 154.795904 189.164781 
L 155.464247 192.217917 
L 156.800934 189.016232 
L 157.469278 194.849545 
L 158.137621 195.000512 
L 158.805965 197.221927 
L 160.142652 198.567429 
L 160.810995 201.30782 
L 161.479339 201.098189 
L 162.147682 203.366142 
L 162.816026 202.902934 
L 164.152713 206.925341 
L 164.821056 205.345646 
L 165.4894 206.441492 
L 166.157743 210.864042 
L 166.826087 210.822415 
L 167.49443 210.660995 
L 168.162774 213.206851 
L 168.831117 212.697304 
L 169.499461 215.014293 
L 170.167805 214.682144 
L 170.836148 217.32682 
L 171.504492 214.862453 
L 172.172835 217.679366 
L 172.841179 215.87964 
L 173.509522 219.22254 
L 174.177866 217.524824 
L 174.846209 219.141645 
L 175.514553 220.374195 
L 176.182896 219.706207 
L 176.85124 222.221375 
L 177.519583 220.28064 
L 178.187927 221.328932 
L 178.85627 224.293385 
L 179.524614 225.866554 
L 180.192957 223.490085 
L 180.861301 222.156641 
L 181.529644 226.005796 
L 182.197988 224.865758 
L 182.866331 226.65726 
L 183.534675 229.501569 
L 184.203018 225.418245 
L 184.871362 227.385686 
L 185.539705 230.852598 
L 186.208049 225.598971 
L 186.876392 229.821987 
L 187.544736 230.12702 
L 188.213079 226.908682 
L 188.881423 230.367653 
L 189.549766 230.105485 
L 190.21811 232.837245 
L 190.886453 232.605353 
L 191.554797 231.924706 
L 192.22314 234.424026 
L 192.891484 231.533734 
L 193.559828 233.815777 
L 194.228171 232.848988 
L 194.896515 232.527194 
L 195.564858 234.102862 
L 196.233202 237.549635 
L 196.901545 234.717383 
L 197.569889 234.39544 
L 198.238232 232.754127 
L 198.906576 236.37631 
L 199.574919 235.230748 
L 200.243263 237.29393 
L 200.911606 234.648609 
L 201.57995 236.824542 
L 202.248293 237.073781 
L 202.916637 237.139424 
L 203.58498 239.225882 
L 204.253324 238.293225 
L 204.921667 240.368924 
L 205.590011 236.727275 
L 206.258354 237.864703 
L 206.926698 243.021074 
L 207.595041 239.666065 
L 208.263385 240.22639 
L 208.931728 242.419961 
L 209.600072 241.980984 
L 210.268415 241.227451 
L 210.936759 241.532712 
L 211.605102 238.590126 
L 212.273446 243.816643 
L 212.941789 241.844394 
L 213.610133 241.451774 
L 214.278476 244.676865 
L 214.94682 244.238827 
L 215.615163 239.06925 
L 216.283507 242.267956 
L 217.620194 241.506926 
L 218.288538 243.461814 
L 218.956881 243.405352 
L 219.625225 242.196166 
L 220.293568 245.369627 
L 220.961912 246.092823 
L 221.630255 242.864266 
L 222.298599 244.591198 
L 222.966942 245.920257 
L 223.635286 242.110016 
L 224.303629 244.450871 
L 224.971973 245.997115 
L 225.640316 244.331918 
L 226.30866 244.14101 
L 226.977003 247.197985 
L 227.645347 243.914051 
L 228.31369 246.132576 
L 228.982034 249.235348 
L 229.650377 247.529027 
L 230.318721 246.589582 
L 230.987064 244.635406 
L 231.655408 250.50796 
L 232.323751 247.105709 
L 232.992095 247.828787 
L 233.660438 247.915631 
L 234.328782 248.748162 
L 234.997125 250.652674 
L 235.665469 248.414798 
L 236.333812 248.729065 
L 237.002156 247.641353 
L 237.670499 249.269404 
L 238.338843 248.309882 
L 239.007186 247.719089 
L 239.67553 249.248983 
L 240.343874 248.834835 
L 241.680561 249.717379 
L 242.348904 249.243303 
L 243.017248 251.338964 
L 243.685591 249.361195 
L 245.022278 251.113799 
L 245.690622 252.496522 
L 246.358965 250.95938 
L 247.027309 251.237384 
L 247.695652 253.328829 
L 248.363996 252.374376 
L 249.032339 252.364551 
L 249.700683 248.789638 
L 250.369026 251.571538 
L 251.03737 250.175354 
L 251.705713 252.706533 
L 252.374057 253.305899 
L 253.0424 250.694778 
L 253.710744 250.660854 
L 254.379087 252.465723 
L 255.715774 254.3118 
L 257.052461 253.040758 
L 257.720805 255.125553 
L 258.389148 254.960198 
L 259.057492 256.026498 
L 259.725835 254.446121 
L 260.394179 254.534834 
L 261.062522 253.280221 
L 261.730866 256.11541 
L 262.399209 254.459003 
L 263.067553 254.162393 
L 263.735897 254.585975 
L 264.40424 255.307378 
L 265.072584 253.30781 
L 265.740927 254.095593 
L 266.409271 252.452449 
L 267.077614 255.147837 
L 267.745958 251.769627 
L 268.414301 254.620117 
L 269.082645 254.21066 
L 269.750988 254.423748 
L 270.419332 256.841407 
L 271.087675 254.115751 
L 271.756019 254.694812 
L 272.424362 255.044031 
L 273.092706 258.740717 
L 273.761049 254.644807 
L 274.429393 257.847843 
L 275.097736 254.202242 
L 275.76608 258.095169 
L 276.434423 254.881371 
L 277.102767 260.437679 
L 277.77111 258.296049 
L 278.439454 257.175466 
L 279.107797 258.488583 
L 280.444484 256.503705 
L 281.112828 258.273332 
L 281.781171 256.76502 
L 282.449515 256.52378 
L 283.117858 257.582038 
L 283.786202 257.962566 
L 284.454545 255.877875 
L 285.122889 257.558978 
L 285.791232 256.994813 
L 286.459576 257.705744 
L 287.12792 258.714959 
L 287.796263 258.90452 
L 288.464607 253.264693 
L 289.13295 261.283686 
L 289.801294 257.582216 
L 290.469637 259.640946 
L 291.137981 258.618986 
L 291.806324 256.49834 
L 292.474668 260.345264 
L 293.143011 257.4452 
L 293.811355 258.052014 
L 294.479698 259.939617 
L 295.148042 258.784668 
L 295.816385 261.173138 
L 296.484729 258.764843 
L 297.153072 259.709017 
L 297.821416 256.979013 
L 298.489759 260.138791 
L 299.158103 258.863411 
L 299.826446 263.135561 
L 300.49479 257.318298 
L 301.163133 260.277393 
L 301.831477 257.921691 
L 302.49982 256.821023 
L 303.168164 257.077762 
L 303.836507 261.485053 
L 304.504851 259.119133 
L 305.841538 261.499227 
L 306.509881 259.306173 
L 307.178225 255.052904 
L 307.846568 257.979853 
L 308.514912 258.791101 
L 309.183255 259.079702 
L 309.851599 258.942302 
L 312.524973 263.921911 
L 313.193317 259.097757 
L 313.86166 261.051185 
L 314.530004 258.176814 
L 315.198347 260.408489 
L 316.535034 256.137033 
L 317.203378 260.609081 
L 317.871721 260.125048 
L 318.540065 259.880367 
L 319.208408 258.404516 
L 319.876752 257.579733 
L 320.545095 261.594546 
L 321.213439 261.344858 
L 321.881782 261.249966 
L 322.550126 260.606606 
L 323.218469 256.590035 
L 323.886813 260.414919 
L 324.555156 260.99831 
L 325.2235 258.505688 
L 325.891843 258.334939 
L 326.560187 262.363978 
L 327.22853 260.432322 
L 327.896874 260.885269 
L 328.565217 260.974246 
L 329.233561 262.949912 
L 329.901904 259.836374 
L 330.570248 262.352676 
L 331.238591 266.363369 
L 331.906935 262.982887 
L 333.243622 264.209796 
L 333.911966 257.594298 
L 334.580309 261.716535 
L 335.916996 259.223615 
L 336.58534 263.90888 
L 337.253683 257.44604 
L 337.922027 262.746906 
L 338.59037 263.18377 
L 339.258714 263.162707 
L 339.927057 260.246867 
L 340.595401 260.270727 
L 341.263744 265.569924 
L 341.932088 262.615818 
L 342.600431 263.514029 
L 343.268775 261.941556 
L 343.937118 263.822983 
L 344.605462 259.060507 
L 345.273805 262.581237 
L 345.942149 257.17353 
L 347.278836 263.584589 
L 347.947179 260.179935 
L 348.615523 261.7443 
L 349.283866 264.405645 
L 349.95221 262.27744 
L 350.620553 262.655426 
L 351.288897 261.877568 
L 351.95724 259.60287 
L 352.625584 264.546988 
L 353.293927 264.658901 
L 353.962271 261.714806 
L 354.630614 261.751972 
L 355.298958 262.590033 
L 355.967301 262.368741 
L 356.635645 261.413128 
L 357.303989 262.752011 
L 357.972332 263.068896 
L 359.309019 265.911875 
L 359.977363 264.548492 
L 360.645706 263.585792 
L 361.31405 262.193429 
L 361.982393 265.224539 
L 362.650737 264.821474 
L 363.31908 265.897784 
L 363.987424 263.2416 
L 364.655767 261.581665 
L 365.324111 262.607607 
L 366.660798 266.480184 
L 367.329141 263.588543 
L 367.997485 264.925613 
L 368.665828 260.696554 
L 369.334172 262.010796 
L 370.002515 263.788034 
L 370.670859 263.946839 
L 372.007546 262.422861 
L 372.675889 263.347432 
L 373.344233 260.667644 
L 374.012576 262.880058 
L 374.68092 260.341576 
L 375.349263 264.116498 
L 376.017607 261.364912 
L 376.68595 262.510331 
L 377.354294 264.876593 
L 378.022637 264.349596 
L 378.690981 262.07439 
L 379.359324 264.053219 
L 380.027668 261.239028 
L 380.696011 265.062239 
L 381.364355 264.934311 
L 382.032699 263.67127 
L 382.701042 263.453768 
L 383.369386 260.125357 
L 384.037729 265.019575 
L 384.706073 261.43277 
L 385.374416 263.325429 
L 386.04276 262.807197 
L 386.711103 264.005058 
L 387.379447 259.903533 
L 388.04779 260.493093 
L 388.716134 259.392071 
L 389.384477 263.208684 
L 390.052821 263.88458 
L 390.721164 262.364985 
L 391.389508 261.819178 
L 392.057851 265.041482 
L 392.726195 265.771012 
L 393.394538 263.613728 
L 394.062882 265.369758 
L 395.399569 261.017996 
L 396.067912 262.039887 
L 396.736256 266.723405 
L 397.404599 261.283008 
L 398.072943 264.367283 
L 399.40963 264.395384 
L 400.077973 261.517762 
L 400.746317 264.318672 
L 401.41466 263.197138 
L 402.083004 266.419428 
L 402.751347 264.489806 
L 403.419691 264.546607 
L 404.088034 263.969934 
L 404.756378 264.185909 
L 405.424722 263.392329 
L 406.093065 264.973096 
L 406.761409 263.655735 
L 407.429752 263.270259 
L 408.098096 265.24007 
L 408.766439 263.033016 
L 409.434783 264.04771 
L 410.103126 263.951824 
L 410.77147 265.53578 
L 411.439813 264.618729 
L 412.108157 265.728069 
L 412.7765 262.086027 
L 413.444844 260.469387 
L 414.113187 268.515339 
L 414.781531 264.310583 
L 415.449874 264.139696 
L 416.786561 264.286251 
L 417.454905 264.806642 
L 418.123248 262.973155 
L 418.791592 264.657303 
L 419.459935 263.039822 
L 420.128279 263.967846 
L 420.796622 264.674139 
L 421.464966 264.103969 
L 422.133309 267.746833 
L 422.801653 263.855797 
L 423.469996 264.247818 
L 424.13834 266.475043 
L 424.806683 265.737862 
L 425.475027 264.724165 
L 426.14337 267.275878 
L 426.811714 263.232956 
L 427.480057 265.154326 
L 428.148401 263.997795 
L 429.485088 263.403187 
L 430.153432 267.165849 
L 430.821775 266.669383 
L 431.490119 265.977433 
L 432.158462 265.054555 
L 432.826806 264.44081 
L 433.495149 262.302596 
L 434.163493 265.349734 
L 434.831836 267.206089 
L 435.50018 261.183968 
L 436.168523 266.487741 
L 436.836867 261.667661 
L 437.50521 268.741116 
L 438.841897 267.213289 
L 439.510241 264.604229 
L 440.178584 265.310113 
L 440.846928 267.042865 
L 441.515271 264.602773 
L 442.183615 263.980848 
L 442.851958 264.414837 
L 443.520302 263.876371 
L 444.188645 267.594787 
L 444.856989 263.942374 
L 445.525332 262.87706 
L 446.193676 266.15777 
L 446.862019 265.03382 
L 447.530363 264.40485 
L 448.198706 264.514603 
L 448.86705 264.802739 
L 449.535393 267.113378 
L 450.87208 260.368062 
L 451.540424 263.790892 
L 452.208768 266.143882 
L 452.877111 262.778946 
L 453.545455 262.782047 
L 454.213798 264.779121 
L 454.882142 265.001804 
L 455.550485 261.357122 
L 456.218829 266.067729 
L 456.887172 265.676998 
L 458.223859 266.737967 
L 458.892203 266.664009 
L 459.560546 267.92289 
L 460.22889 263.761613 
L 460.897233 268.87901 
L 462.23392 266.501478 
L 462.902264 262.399829 
L 463.570607 265.023885 
L 464.238951 267.083043 
L 464.907294 265.451071 
L 465.575638 261.706544 
L 466.243981 266.910553 
L 466.912325 265.492141 
L 467.580668 265.656146 
L 468.249012 263.290002 
L 468.917355 266.307725 
L 469.585699 264.290784 
L 470.254042 265.847088 
L 470.922386 265.695696 
L 471.590729 263.522683 
L 472.259073 265.708065 
L 472.927416 264.353875 
L 473.59576 267.349589 
L 474.264103 264.067872 
L 475.600791 265.062636 
L 476.269134 265.235156 
L 476.937478 266.693852 
L 477.605821 263.544532 
L 478.274165 266.682459 
L 478.942508 265.418898 
L 479.610852 265.65724 
L 480.279195 265.516643 
L 480.947539 263.272732 
L 481.615882 261.503785 
L 482.284226 265.066472 
L 482.952569 266.747312 
L 483.620913 267.55538 
L 484.289256 264.867176 
L 484.9576 265.581606 
L 485.625943 264.512704 
L 486.294287 269.561048 
L 486.96263 266.435496 
L 487.630974 262.395618 
L 488.967661 270.604307 
L 489.636004 265.935288 
L 490.304348 262.835853 
L 490.972691 261.452344 
L 491.641035 265.796711 
L 492.309378 263.913409 
L 492.977722 267.682418 
L 493.646065 265.127493 
L 494.314409 266.395315 
L 494.982752 266.693693 
L 495.651096 265.043003 
L 496.319439 266.775668 
L 496.987783 265.070973 
L 497.656126 262.695717 
L 498.32447 265.246125 
L 498.992814 261.933907 
L 499.661157 261.576223 
L 500.329501 263.463804 
L 500.997844 263.049219 
L 501.666188 262.9341 
L 502.334531 261.866536 
L 503.002875 265.749908 
L 503.671218 264.716949 
L 504.339562 260.339155 
L 505.007905 263.814583 
L 505.676249 266.00902 
L 506.344592 262.783053 
L 507.012936 266.587044 
L 507.681279 263.013968 
L 508.349623 265.258412 
L 509.017966 265.903498 
L 509.68631 267.147792 
L 510.354653 267.515532 
L 511.022997 263.914106 
L 511.69134 263.199216 
L 512.359684 266.449678 
L 513.028027 268.332434 
L 513.696371 260.077004 
L 514.364714 265.757038 
L 515.033058 266.158439 
L 515.701401 265.940803 
L 516.369745 265.156151 
L 517.038088 267.58128 
L 517.706432 261.068678 
L 518.374775 265.156496 
L 519.043119 265.905994 
L 519.711462 264.516248 
L 520.379806 266.920108 
L 521.048149 265.185395 
L 521.716493 264.293722 
L 522.384837 265.144123 
L 523.05318 268.115351 
L 523.721524 264.587943 
L 524.389867 268.422029 
L 525.058211 263.135229 
L 525.726554 262.677688 
L 526.394898 264.309196 
L 527.731585 262.115275 
L 528.399928 266.373542 
L 529.068272 267.93338 
L 529.736615 266.726754 
L 530.404959 264.269533 
L 531.073302 267.042942 
L 531.741646 264.065832 
L 532.409989 263.945674 
L 533.078333 264.12033 
L 533.746676 266.211343 
L 535.083363 265.585147 
L 535.751707 264.694121 
L 536.42005 265.223366 
L 537.088394 269.530896 
L 537.756737 264.775372 
L 538.425081 265.116025 
L 539.093424 265.815668 
L 539.761768 263.958418 
L 540.430111 267.728095 
L 541.098455 264.915737 
L 541.766798 263.264851 
L 542.435142 262.770027 
L 543.103485 267.334522 
L 543.771829 263.908784 
L 544.440172 265.463955 
L 545.108516 261.986842 
L 545.77686 263.738443 
L 546.445203 266.259238 
L 547.113547 265.373676 
L 547.78189 264.925234 
L 548.450234 266.465073 
L 549.118577 262.633863 
L 549.786921 262.923176 
L 550.455264 266.12157 
L 551.123608 266.919286 
L 551.791951 266.385932 
L 552.460295 264.384964 
L 553.128638 266.472403 
L 553.796982 265.967789 
L 554.465325 261.453902 
L 555.133669 265.267785 
L 555.802012 264.841204 
L 556.470356 261.683989 
L 557.138699 265.313043 
L 557.807043 267.555319 
L 558.475386 262.699095 
L 559.812073 266.456133 
L 560.480417 264.204378 
L 561.14876 263.414342 
L 561.817104 265.858919 
L 562.485447 264.871084 
L 563.153791 265.724473 
L 563.822134 266.379976 
L 564.490478 267.853664 
L 565.158821 265.513697 
L 565.827165 261.794434 
L 566.495508 266.033569 
L 567.163852 264.523045 
L 567.832195 266.863468 
L 568.500539 260.386245 
L 569.168883 260.677627 
L 569.837226 265.209053 
L 570.50557 260.879704 
L 571.173913 264.957057 
L 571.842257 263.922563 
L 572.5106 267.311862 
L 573.178944 264.446892 
L 573.847287 263.109179 
L 574.515631 263.856024 
L 575.183974 264.305347 
L 575.852318 262.947946 
L 576.520661 265.765265 
L 577.189005 264.008982 
L 577.857348 265.720909 
L 578.525692 263.665202 
L 579.194035 260.424726 
L 579.862379 266.552588 
L 580.530722 261.147191 
L 581.199066 264.88952 
L 581.867409 260.748002 
L 582.535753 265.841898 
L 583.204096 267.331054 
L 583.87244 262.507823 
L 584.540783 260.397804 
L 585.209127 261.931924 
L 586.545814 266.971651 
L 587.214157 264.384374 
L 587.882501 265.874148 
L 588.550844 266.670847 
L 589.219188 264.119513 
L 589.887531 264.880454 
L 590.555875 262.450923 
L 591.224218 261.328335 
L 591.892562 268.110743 
L 592.560905 263.050263 
L 593.229249 264.776663 
L 593.897593 263.239137 
L 594.565936 265.688171 
L 595.23428 264.524563 
L 595.902623 265.353529 
L 596.570967 264.692073 
L 597.23931 262.204677 
L 597.907654 264.337661 
L 598.575997 264.995755 
L 599.244341 262.970321 
L 599.912684 266.621172 
L 600.581028 265.735455 
L 601.249371 267.669646 
L 601.917715 261.209091 
L 603.254402 264.26126 
L 603.922745 263.934766 
L 604.591089 266.926667 
L 605.259432 266.503807 
L 605.927776 263.204754 
L 606.596119 265.53217 
L 607.264463 264.912243 
L 607.932806 267.856902 
L 608.60115 260.619083 
L 609.269493 262.629116 
L 609.937837 267.21733 
L 610.60618 264.317026 
L 611.274524 264.310696 
L 611.942867 262.783415 
L 612.611211 263.114144 
L 613.279554 267.147396 
L 613.947898 265.441315 
L 614.616241 262.218233 
L 615.284585 262.405524 
L 615.952928 261.47937 
L 616.621272 264.255622 
L 617.289616 263.549208 
L 617.957959 265.938192 
L 618.626303 263.023389 
L 619.294646 264.417898 
L 619.96299 264.624653 
L 620.631333 266.210976 
L 621.299677 264.533178 
L 621.96802 266.328666 
L 622.636364 263.775167 
L 622.636364 263.775167 
" style="fill:none;stroke:#ff7f0e;stroke-linecap:square;stroke-width:0.5;"/>
   </g>
   <g id="patch_3">
    <path d="M 90 315 
L 90 43.2 
" style="fill:none;stroke:#000000;stroke-linecap:square;stroke-linejoin:miter;stroke-width:0.8;"/>
   </g>
   <g id="patch_4">
    <path d="M 648 315 
L 648 43.2 
" style="fill:none;stroke:#000000;stroke-linecap:square;stroke-linejoin:miter;stroke-width:0.8;"/>
   </g>
   <g id="patch_5">
    <path d="M 90 315 
L 648 315 
" style="fill:none;stroke:#000000;stroke-linecap:square;stroke-linejoin:miter;stroke-width:0.8;"/>
   </g>
   <g id="patch_6">
    <path d="M 90 43.2 
L 648 43.2 
" style="fill:none;stroke:#000000;stroke-linecap:square;stroke-linejoin:miter;stroke-width:0.8;"/>
   </g>
   <g id="text_17">
    <!-- loss -->
    <g transform="translate(357.410625 37.2)scale(0.12 -0.12)">
     <use xlink:href="#DejaVuSans-108"/>
     <use x="27.783203" xlink:href="#DejaVuSans-111"/>
     <use x="88.964844" xlink:href="#DejaVuSans-115"/>
     <use x="141.064453" xlink:href="#DejaVuSans-115"/>
    </g>
   </g>
   <g id="legend_1">
    <g id="patch_7">
     <path d="M 568.846875 80.55625 
L 641 80.55625 
Q 643 80.55625 643 78.55625 
L 643 50.2 
Q 643 48.2 641 48.2 
L 568.846875 48.2 
Q 566.846875 48.2 566.846875 50.2 
L 566.846875 78.55625 
Q 566.846875 80.55625 568.846875 80.55625 
z
" style="fill:#ffffff;opacity:0.8;stroke:#cccccc;stroke-linejoin:miter;"/>
    </g>
    <g id="line2d_31">
     <path d="M 570.846875 56.298437 
L 590.846875 56.298437 
" style="fill:none;stroke:#1f77b4;stroke-linecap:square;stroke-width:0.5;"/>
    </g>
    <g id="line2d_32"/>
    <g id="text_18">
     <!-- train -->
     <defs>
      <path d="M 18.3125 70.21875 
L 18.3125 54.6875 
L 36.8125 54.6875 
L 36.8125 47.703125 
L 18.3125 47.703125 
L 18.3125 18.015625 
Q 18.3125 11.328125 20.140625 9.421875 
Q 21.96875 7.515625 27.59375 7.515625 
L 36.8125 7.515625 
L 36.8125 0 
L 27.59375 0 
Q 17.1875 0 13.234375 3.875 
Q 9.28125 7.765625 9.28125 18.015625 
L 9.28125 47.703125 
L 2.6875 47.703125 
L 2.6875 54.6875 
L 9.28125 54.6875 
L 9.28125 70.21875 
z
" id="DejaVuSans-116"/>
      <path d="M 41.109375 46.296875 
Q 39.59375 47.171875 37.8125 47.578125 
Q 36.03125 48 33.890625 48 
Q 26.265625 48 22.1875 43.046875 
Q 18.109375 38.09375 18.109375 28.8125 
L 18.109375 0 
L 9.078125 0 
L 9.078125 54.6875 
L 18.109375 54.6875 
L 18.109375 46.1875 
Q 20.953125 51.171875 25.484375 53.578125 
Q 30.03125 56 36.53125 56 
Q 37.453125 56 38.578125 55.875 
Q 39.703125 55.765625 41.0625 55.515625 
z
" id="DejaVuSans-114"/>
      <path d="M 34.28125 27.484375 
Q 23.390625 27.484375 19.1875 25 
Q 14.984375 22.515625 14.984375 16.5 
Q 14.984375 11.71875 18.140625 8.90625 
Q 21.296875 6.109375 26.703125 6.109375 
Q 34.1875 6.109375 38.703125 11.40625 
Q 43.21875 16.703125 43.21875 25.484375 
L 43.21875 27.484375 
z
M 52.203125 31.203125 
L 52.203125 0 
L 43.21875 0 
L 43.21875 8.296875 
Q 40.140625 3.328125 35.546875 0.953125 
Q 30.953125 -1.421875 24.3125 -1.421875 
Q 15.921875 -1.421875 10.953125 3.296875 
Q 6 8.015625 6 15.921875 
Q 6 25.140625 12.171875 29.828125 
Q 18.359375 34.515625 30.609375 34.515625 
L 43.21875 34.515625 
L 43.21875 35.40625 
Q 43.21875 41.609375 39.140625 45 
Q 35.0625 48.390625 27.6875 48.390625 
Q 23 48.390625 18.546875 47.265625 
Q 14.109375 46.140625 10.015625 43.890625 
L 10.015625 52.203125 
Q 14.9375 54.109375 19.578125 55.046875 
Q 24.21875 56 28.609375 56 
Q 40.484375 56 46.34375 49.84375 
Q 52.203125 43.703125 52.203125 31.203125 
z
" id="DejaVuSans-97"/>
      <path d="M 9.421875 54.6875 
L 18.40625 54.6875 
L 18.40625 0 
L 9.421875 0 
z
M 9.421875 75.984375 
L 18.40625 75.984375 
L 18.40625 64.59375 
L 9.421875 64.59375 
z
" id="DejaVuSans-105"/>
      <path d="M 54.890625 33.015625 
L 54.890625 0 
L 45.90625 0 
L 45.90625 32.71875 
Q 45.90625 40.484375 42.875 44.328125 
Q 39.84375 48.1875 33.796875 48.1875 
Q 26.515625 48.1875 22.3125 43.546875 
Q 18.109375 38.921875 18.109375 30.90625 
L 18.109375 0 
L 9.078125 0 
L 9.078125 54.6875 
L 18.109375 54.6875 
L 18.109375 46.1875 
Q 21.34375 51.125 25.703125 53.5625 
Q 30.078125 56 35.796875 56 
Q 45.21875 56 50.046875 50.171875 
Q 54.890625 44.34375 54.890625 33.015625 
z
" id="DejaVuSans-110"/>
     </defs>
     <g transform="translate(598.846875 59.798437)scale(0.1 -0.1)">
      <use xlink:href="#DejaVuSans-116"/>
      <use x="39.208984" xlink:href="#DejaVuSans-114"/>
      <use x="80.322266" xlink:href="#DejaVuSans-97"/>
      <use x="141.601562" xlink:href="#DejaVuSans-105"/>
      <use x="169.384766" xlink:href="#DejaVuSans-110"/>
     </g>
    </g>
    <g id="line2d_33">
     <path d="M 570.846875 70.976562 
L 590.846875 70.976562 
" style="fill:none;stroke:#ff7f0e;stroke-linecap:square;stroke-width:0.5;"/>
    </g>
    <g id="line2d_34"/>
    <g id="text_19">
     <!-- validate -->
     <defs>
      <path d="M 2.984375 54.6875 
L 12.5 54.6875 
L 29.59375 8.796875 
L 46.6875 54.6875 
L 56.203125 54.6875 
L 35.6875 0 
L 23.484375 0 
z
" id="DejaVuSans-118"/>
      <path d="M 45.40625 46.390625 
L 45.40625 75.984375 
L 54.390625 75.984375 
L 54.390625 0 
L 45.40625 0 
L 45.40625 8.203125 
Q 42.578125 3.328125 38.25 0.953125 
Q 33.9375 -1.421875 27.875 -1.421875 
Q 17.96875 -1.421875 11.734375 6.484375 
Q 5.515625 14.40625 5.515625 27.296875 
Q 5.515625 40.1875 11.734375 48.09375 
Q 17.96875 56 27.875 56 
Q 33.9375 56 38.25 53.625 
Q 42.578125 51.265625 45.40625 46.390625 
z
M 14.796875 27.296875 
Q 14.796875 17.390625 18.875 11.75 
Q 22.953125 6.109375 30.078125 6.109375 
Q 37.203125 6.109375 41.296875 11.75 
Q 45.40625 17.390625 45.40625 27.296875 
Q 45.40625 37.203125 41.296875 42.84375 
Q 37.203125 48.484375 30.078125 48.484375 
Q 22.953125 48.484375 18.875 42.84375 
Q 14.796875 37.203125 14.796875 27.296875 
z
" id="DejaVuSans-100"/>
     </defs>
     <g transform="translate(598.846875 74.476562)scale(0.1 -0.1)">
      <use xlink:href="#DejaVuSans-118"/>
      <use x="59.179688" xlink:href="#DejaVuSans-97"/>
      <use x="120.458984" xlink:href="#DejaVuSans-108"/>
      <use x="148.242188" xlink:href="#DejaVuSans-105"/>
      <use x="176.025391" xlink:href="#DejaVuSans-100"/>
      <use x="239.501953" xlink:href="#DejaVuSans-97"/>
      <use x="300.78125" xlink:href="#DejaVuSans-116"/>
      <use x="339.990234" xlink:href="#DejaVuSans-101"/>
     </g>
    </g>
   </g>
  </g>
 </g>
 <defs>
  <clipPath id="pc577938eea">
   <rect height="271.8" width="558" x="90" y="43.2"/>
  </clipPath>
 </defs>
</svg>
