<?xml version="1.0" encoding="utf-8" standalone="no"?>
<!DOCTYPE svg PUBLIC "-//W3C//DTD SVG 1.1//EN"
  "http://www.w3.org/Graphics/SVG/1.1/DTD/svg11.dtd">
<!-- Created with matplotlib (https://matplotlib.org/) -->
<svg height="360pt" version="1.1" viewBox="0 0 720 360" width="720pt" xmlns="http://www.w3.org/2000/svg" xmlns:xlink="http://www.w3.org/1999/xlink">
 <defs>
  <style type="text/css">
*{stroke-linecap:butt;stroke-linejoin:round;}
  </style>
 </defs>
 <g id="figure_1">
  <g id="patch_1">
   <path d="M 0 360 
L 720 360 
L 720 0 
L 0 0 
z
" style="fill:#ffffff;"/>
  </g>
  <g id="axes_1">
   <g id="patch_2">
    <path d="M 90 315 
L 648 315 
L 648 43.2 
L 90 43.2 
z
" style="fill:#ffffff;"/>
   </g>
   <g id="matplotlib.axis_1">
    <g id="xtick_1">
     <g id="line2d_1">
      <path clip-path="url(#pc691c5a6b6)" d="M 115.363636 315 
L 115.363636 43.2 
" style="fill:none;stroke:#b0b0b0;stroke-linecap:square;stroke-width:0.8;"/>
     </g>
     <g id="line2d_2">
      <defs>
       <path d="M 0 0 
L 0 3.5 
" id="me0abf4b429" style="stroke:#000000;stroke-width:0.8;"/>
      </defs>
      <g>
       <use style="stroke:#000000;stroke-width:0.8;" x="115.363636" xlink:href="#me0abf4b429" y="315"/>
      </g>
     </g>
     <g id="text_1">
      <!-- 0 -->
      <defs>
       <path d="M 31.78125 66.40625 
Q 24.171875 66.40625 20.328125 58.90625 
Q 16.5 51.421875 16.5 36.375 
Q 16.5 21.390625 20.328125 13.890625 
Q 24.171875 6.390625 31.78125 6.390625 
Q 39.453125 6.390625 43.28125 13.890625 
Q 47.125 21.390625 47.125 36.375 
Q 47.125 51.421875 43.28125 58.90625 
Q 39.453125 66.40625 31.78125 66.40625 
z
M 31.78125 74.21875 
Q 44.046875 74.21875 50.515625 64.515625 
Q 56.984375 54.828125 56.984375 36.375 
Q 56.984375 17.96875 50.515625 8.265625 
Q 44.046875 -1.421875 31.78125 -1.421875 
Q 19.53125 -1.421875 13.0625 8.265625 
Q 6.59375 17.96875 6.59375 36.375 
Q 6.59375 54.828125 13.0625 64.515625 
Q 19.53125 74.21875 31.78125 74.21875 
z
" id="DejaVuSans-48"/>
      </defs>
      <g transform="translate(112.182386 329.598437)scale(0.1 -0.1)">
       <use xlink:href="#DejaVuSans-48"/>
      </g>
     </g>
    </g>
    <g id="xtick_2">
     <g id="line2d_3">
      <path clip-path="url(#pc691c5a6b6)" d="M 216.112937 315 
L 216.112937 43.2 
" style="fill:none;stroke:#b0b0b0;stroke-linecap:square;stroke-width:0.8;"/>
     </g>
     <g id="line2d_4">
      <g>
       <use style="stroke:#000000;stroke-width:0.8;" x="216.112937" xlink:href="#me0abf4b429" y="315"/>
      </g>
     </g>
     <g id="text_2">
      <!-- 200 -->
      <defs>
       <path d="M 19.1875 8.296875 
L 53.609375 8.296875 
L 53.609375 0 
L 7.328125 0 
L 7.328125 8.296875 
Q 12.9375 14.109375 22.625 23.890625 
Q 32.328125 33.6875 34.8125 36.53125 
Q 39.546875 41.84375 41.421875 45.53125 
Q 43.3125 49.21875 43.3125 52.78125 
Q 43.3125 58.59375 39.234375 62.25 
Q 35.15625 65.921875 28.609375 65.921875 
Q 23.96875 65.921875 18.8125 64.3125 
Q 13.671875 62.703125 7.8125 59.421875 
L 7.8125 69.390625 
Q 13.765625 71.78125 18.9375 73 
Q 24.125 74.21875 28.421875 74.21875 
Q 39.75 74.21875 46.484375 68.546875 
Q 53.21875 62.890625 53.21875 53.421875 
Q 53.21875 48.921875 51.53125 44.890625 
Q 49.859375 40.875 45.40625 35.40625 
Q 44.1875 33.984375 37.640625 27.21875 
Q 31.109375 20.453125 19.1875 8.296875 
z
" id="DejaVuSans-50"/>
      </defs>
      <g transform="translate(206.569187 329.598437)scale(0.1 -0.1)">
       <use xlink:href="#DejaVuSans-50"/>
       <use x="63.623047" xlink:href="#DejaVuSans-48"/>
       <use x="127.246094" xlink:href="#DejaVuSans-48"/>
      </g>
     </g>
    </g>
    <g id="xtick_3">
     <g id="line2d_5">
      <path clip-path="url(#pc691c5a6b6)" d="M 316.862237 315 
L 316.862237 43.2 
" style="fill:none;stroke:#b0b0b0;stroke-linecap:square;stroke-width:0.8;"/>
     </g>
     <g id="line2d_6">
      <g>
       <use style="stroke:#000000;stroke-width:0.8;" x="316.862237" xlink:href="#me0abf4b429" y="315"/>
      </g>
     </g>
     <g id="text_3">
      <!-- 400 -->
      <defs>
       <path d="M 37.796875 64.3125 
L 12.890625 25.390625 
L 37.796875 25.390625 
z
M 35.203125 72.90625 
L 47.609375 72.90625 
L 47.609375 25.390625 
L 58.015625 25.390625 
L 58.015625 17.1875 
L 47.609375 17.1875 
L 47.609375 0 
L 37.796875 0 
L 37.796875 17.1875 
L 4.890625 17.1875 
L 4.890625 26.703125 
z
" id="DejaVuSans-52"/>
      </defs>
      <g transform="translate(307.318487 329.598437)scale(0.1 -0.1)">
       <use xlink:href="#DejaVuSans-52"/>
       <use x="63.623047" xlink:href="#DejaVuSans-48"/>
       <use x="127.246094" xlink:href="#DejaVuSans-48"/>
      </g>
     </g>
    </g>
    <g id="xtick_4">
     <g id="line2d_7">
      <path clip-path="url(#pc691c5a6b6)" d="M 417.611537 315 
L 417.611537 43.2 
" style="fill:none;stroke:#b0b0b0;stroke-linecap:square;stroke-width:0.8;"/>
     </g>
     <g id="line2d_8">
      <g>
       <use style="stroke:#000000;stroke-width:0.8;" x="417.611537" xlink:href="#me0abf4b429" y="315"/>
      </g>
     </g>
     <g id="text_4">
      <!-- 600 -->
      <defs>
       <path d="M 33.015625 40.375 
Q 26.375 40.375 22.484375 35.828125 
Q 18.609375 31.296875 18.609375 23.390625 
Q 18.609375 15.53125 22.484375 10.953125 
Q 26.375 6.390625 33.015625 6.390625 
Q 39.65625 6.390625 43.53125 10.953125 
Q 47.40625 15.53125 47.40625 23.390625 
Q 47.40625 31.296875 43.53125 35.828125 
Q 39.65625 40.375 33.015625 40.375 
z
M 52.59375 71.296875 
L 52.59375 62.3125 
Q 48.875 64.0625 45.09375 64.984375 
Q 41.3125 65.921875 37.59375 65.921875 
Q 27.828125 65.921875 22.671875 59.328125 
Q 17.53125 52.734375 16.796875 39.40625 
Q 19.671875 43.65625 24.015625 45.921875 
Q 28.375 48.1875 33.59375 48.1875 
Q 44.578125 48.1875 50.953125 41.515625 
Q 57.328125 34.859375 57.328125 23.390625 
Q 57.328125 12.15625 50.6875 5.359375 
Q 44.046875 -1.421875 33.015625 -1.421875 
Q 20.359375 -1.421875 13.671875 8.265625 
Q 6.984375 17.96875 6.984375 36.375 
Q 6.984375 53.65625 15.1875 63.9375 
Q 23.390625 74.21875 37.203125 74.21875 
Q 40.921875 74.21875 44.703125 73.484375 
Q 48.484375 72.75 52.59375 71.296875 
z
" id="DejaVuSans-54"/>
      </defs>
      <g transform="translate(408.067787 329.598437)scale(0.1 -0.1)">
       <use xlink:href="#DejaVuSans-54"/>
       <use x="63.623047" xlink:href="#DejaVuSans-48"/>
       <use x="127.246094" xlink:href="#DejaVuSans-48"/>
      </g>
     </g>
    </g>
    <g id="xtick_5">
     <g id="line2d_9">
      <path clip-path="url(#pc691c5a6b6)" d="M 518.360838 315 
L 518.360838 43.2 
" style="fill:none;stroke:#b0b0b0;stroke-linecap:square;stroke-width:0.8;"/>
     </g>
     <g id="line2d_10">
      <g>
       <use style="stroke:#000000;stroke-width:0.8;" x="518.360838" xlink:href="#me0abf4b429" y="315"/>
      </g>
     </g>
     <g id="text_5">
      <!-- 800 -->
      <defs>
       <path d="M 31.78125 34.625 
Q 24.75 34.625 20.71875 30.859375 
Q 16.703125 27.09375 16.703125 20.515625 
Q 16.703125 13.921875 20.71875 10.15625 
Q 24.75 6.390625 31.78125 6.390625 
Q 38.8125 6.390625 42.859375 10.171875 
Q 46.921875 13.96875 46.921875 20.515625 
Q 46.921875 27.09375 42.890625 30.859375 
Q 38.875 34.625 31.78125 34.625 
z
M 21.921875 38.8125 
Q 15.578125 40.375 12.03125 44.71875 
Q 8.5 49.078125 8.5 55.328125 
Q 8.5 64.0625 14.71875 69.140625 
Q 20.953125 74.21875 31.78125 74.21875 
Q 42.671875 74.21875 48.875 69.140625 
Q 55.078125 64.0625 55.078125 55.328125 
Q 55.078125 49.078125 51.53125 44.71875 
Q 48 40.375 41.703125 38.8125 
Q 48.828125 37.15625 52.796875 32.3125 
Q 56.78125 27.484375 56.78125 20.515625 
Q 56.78125 9.90625 50.3125 4.234375 
Q 43.84375 -1.421875 31.78125 -1.421875 
Q 19.734375 -1.421875 13.25 4.234375 
Q 6.78125 9.90625 6.78125 20.515625 
Q 6.78125 27.484375 10.78125 32.3125 
Q 14.796875 37.15625 21.921875 38.8125 
z
M 18.3125 54.390625 
Q 18.3125 48.734375 21.84375 45.5625 
Q 25.390625 42.390625 31.78125 42.390625 
Q 38.140625 42.390625 41.71875 45.5625 
Q 45.3125 48.734375 45.3125 54.390625 
Q 45.3125 60.0625 41.71875 63.234375 
Q 38.140625 66.40625 31.78125 66.40625 
Q 25.390625 66.40625 21.84375 63.234375 
Q 18.3125 60.0625 18.3125 54.390625 
z
" id="DejaVuSans-56"/>
      </defs>
      <g transform="translate(508.817088 329.598437)scale(0.1 -0.1)">
       <use xlink:href="#DejaVuSans-56"/>
       <use x="63.623047" xlink:href="#DejaVuSans-48"/>
       <use x="127.246094" xlink:href="#DejaVuSans-48"/>
      </g>
     </g>
    </g>
    <g id="xtick_6">
     <g id="line2d_11">
      <path clip-path="url(#pc691c5a6b6)" d="M 619.110138 315 
L 619.110138 43.2 
" style="fill:none;stroke:#b0b0b0;stroke-linecap:square;stroke-width:0.8;"/>
     </g>
     <g id="line2d_12">
      <g>
       <use style="stroke:#000000;stroke-width:0.8;" x="619.110138" xlink:href="#me0abf4b429" y="315"/>
      </g>
     </g>
     <g id="text_6">
      <!-- 1000 -->
      <defs>
       <path d="M 12.40625 8.296875 
L 28.515625 8.296875 
L 28.515625 63.921875 
L 10.984375 60.40625 
L 10.984375 69.390625 
L 28.421875 72.90625 
L 38.28125 72.90625 
L 38.28125 8.296875 
L 54.390625 8.296875 
L 54.390625 0 
L 12.40625 0 
z
" id="DejaVuSans-49"/>
      </defs>
      <g transform="translate(606.385138 329.598437)scale(0.1 -0.1)">
       <use xlink:href="#DejaVuSans-49"/>
       <use x="63.623047" xlink:href="#DejaVuSans-48"/>
       <use x="127.246094" xlink:href="#DejaVuSans-48"/>
       <use x="190.869141" xlink:href="#DejaVuSans-48"/>
      </g>
     </g>
    </g>
    <g id="text_7">
     <!-- epoch -->
     <defs>
      <path d="M 56.203125 29.59375 
L 56.203125 25.203125 
L 14.890625 25.203125 
Q 15.484375 15.921875 20.484375 11.0625 
Q 25.484375 6.203125 34.421875 6.203125 
Q 39.59375 6.203125 44.453125 7.46875 
Q 49.3125 8.734375 54.109375 11.28125 
L 54.109375 2.78125 
Q 49.265625 0.734375 44.1875 -0.34375 
Q 39.109375 -1.421875 33.890625 -1.421875 
Q 20.796875 -1.421875 13.15625 6.1875 
Q 5.515625 13.8125 5.515625 26.8125 
Q 5.515625 40.234375 12.765625 48.109375 
Q 20.015625 56 32.328125 56 
Q 43.359375 56 49.78125 48.890625 
Q 56.203125 41.796875 56.203125 29.59375 
z
M 47.21875 32.234375 
Q 47.125 39.59375 43.09375 43.984375 
Q 39.0625 48.390625 32.421875 48.390625 
Q 24.90625 48.390625 20.390625 44.140625 
Q 15.875 39.890625 15.1875 32.171875 
z
" id="DejaVuSans-101"/>
      <path d="M 18.109375 8.203125 
L 18.109375 -20.796875 
L 9.078125 -20.796875 
L 9.078125 54.6875 
L 18.109375 54.6875 
L 18.109375 46.390625 
Q 20.953125 51.265625 25.265625 53.625 
Q 29.59375 56 35.59375 56 
Q 45.5625 56 51.78125 48.09375 
Q 58.015625 40.1875 58.015625 27.296875 
Q 58.015625 14.40625 51.78125 6.484375 
Q 45.5625 -1.421875 35.59375 -1.421875 
Q 29.59375 -1.421875 25.265625 0.953125 
Q 20.953125 3.328125 18.109375 8.203125 
z
M 48.6875 27.296875 
Q 48.6875 37.203125 44.609375 42.84375 
Q 40.53125 48.484375 33.40625 48.484375 
Q 26.265625 48.484375 22.1875 42.84375 
Q 18.109375 37.203125 18.109375 27.296875 
Q 18.109375 17.390625 22.1875 11.75 
Q 26.265625 6.109375 33.40625 6.109375 
Q 40.53125 6.109375 44.609375 11.75 
Q 48.6875 17.390625 48.6875 27.296875 
z
" id="DejaVuSans-112"/>
      <path d="M 30.609375 48.390625 
Q 23.390625 48.390625 19.1875 42.75 
Q 14.984375 37.109375 14.984375 27.296875 
Q 14.984375 17.484375 19.15625 11.84375 
Q 23.34375 6.203125 30.609375 6.203125 
Q 37.796875 6.203125 41.984375 11.859375 
Q 46.1875 17.53125 46.1875 27.296875 
Q 46.1875 37.015625 41.984375 42.703125 
Q 37.796875 48.390625 30.609375 48.390625 
z
M 30.609375 56 
Q 42.328125 56 49.015625 48.375 
Q 55.71875 40.765625 55.71875 27.296875 
Q 55.71875 13.875 49.015625 6.21875 
Q 42.328125 -1.421875 30.609375 -1.421875 
Q 18.84375 -1.421875 12.171875 6.21875 
Q 5.515625 13.875 5.515625 27.296875 
Q 5.515625 40.765625 12.171875 48.375 
Q 18.84375 56 30.609375 56 
z
" id="DejaVuSans-111"/>
      <path d="M 48.78125 52.59375 
L 48.78125 44.1875 
Q 44.96875 46.296875 41.140625 47.34375 
Q 37.3125 48.390625 33.40625 48.390625 
Q 24.65625 48.390625 19.8125 42.84375 
Q 14.984375 37.3125 14.984375 27.296875 
Q 14.984375 17.28125 19.8125 11.734375 
Q 24.65625 6.203125 33.40625 6.203125 
Q 37.3125 6.203125 41.140625 7.25 
Q 44.96875 8.296875 48.78125 10.40625 
L 48.78125 2.09375 
Q 45.015625 0.34375 40.984375 -0.53125 
Q 36.96875 -1.421875 32.421875 -1.421875 
Q 20.0625 -1.421875 12.78125 6.34375 
Q 5.515625 14.109375 5.515625 27.296875 
Q 5.515625 40.671875 12.859375 48.328125 
Q 20.21875 56 33.015625 56 
Q 37.15625 56 41.109375 55.140625 
Q 45.0625 54.296875 48.78125 52.59375 
z
" id="DejaVuSans-99"/>
      <path d="M 54.890625 33.015625 
L 54.890625 0 
L 45.90625 0 
L 45.90625 32.71875 
Q 45.90625 40.484375 42.875 44.328125 
Q 39.84375 48.1875 33.796875 48.1875 
Q 26.515625 48.1875 22.3125 43.546875 
Q 18.109375 38.921875 18.109375 30.90625 
L 18.109375 0 
L 9.078125 0 
L 9.078125 75.984375 
L 18.109375 75.984375 
L 18.109375 46.1875 
Q 21.34375 51.125 25.703125 53.5625 
Q 30.078125 56 35.796875 56 
Q 45.21875 56 50.046875 50.171875 
Q 54.890625 44.34375 54.890625 33.015625 
z
" id="DejaVuSans-104"/>
     </defs>
     <g transform="translate(353.771875 343.276563)scale(0.1 -0.1)">
      <use xlink:href="#DejaVuSans-101"/>
      <use x="61.523438" xlink:href="#DejaVuSans-112"/>
      <use x="125" xlink:href="#DejaVuSans-111"/>
      <use x="186.181641" xlink:href="#DejaVuSans-99"/>
      <use x="241.162109" xlink:href="#DejaVuSans-104"/>
     </g>
    </g>
   </g>
   <g id="matplotlib.axis_2">
    <g id="ytick_1">
     <g id="line2d_13">
      <path clip-path="url(#pc691c5a6b6)" d="M 90 286.847017 
L 648 286.847017 
" style="fill:none;stroke:#b0b0b0;stroke-linecap:square;stroke-width:0.8;"/>
     </g>
     <g id="line2d_14">
      <defs>
       <path d="M 0 0 
L -3.5 0 
" id="m8207d17441" style="stroke:#000000;stroke-width:0.8;"/>
      </defs>
      <g>
       <use style="stroke:#000000;stroke-width:0.8;" x="90" xlink:href="#m8207d17441" y="286.847017"/>
      </g>
     </g>
     <g id="text_8">
      <!-- 0.3 -->
      <defs>
       <path d="M 10.6875 12.40625 
L 21 12.40625 
L 21 0 
L 10.6875 0 
z
" id="DejaVuSans-46"/>
       <path d="M 40.578125 39.3125 
Q 47.65625 37.796875 51.625 33 
Q 55.609375 28.21875 55.609375 21.1875 
Q 55.609375 10.40625 48.1875 4.484375 
Q 40.765625 -1.421875 27.09375 -1.421875 
Q 22.515625 -1.421875 17.65625 -0.515625 
Q 12.796875 0.390625 7.625 2.203125 
L 7.625 11.71875 
Q 11.71875 9.328125 16.59375 8.109375 
Q 21.484375 6.890625 26.8125 6.890625 
Q 36.078125 6.890625 40.9375 10.546875 
Q 45.796875 14.203125 45.796875 21.1875 
Q 45.796875 27.640625 41.28125 31.265625 
Q 36.765625 34.90625 28.71875 34.90625 
L 20.21875 34.90625 
L 20.21875 43.015625 
L 29.109375 43.015625 
Q 36.375 43.015625 40.234375 45.921875 
Q 44.09375 48.828125 44.09375 54.296875 
Q 44.09375 59.90625 40.109375 62.90625 
Q 36.140625 65.921875 28.71875 65.921875 
Q 24.65625 65.921875 20.015625 65.03125 
Q 15.375 64.15625 9.8125 62.3125 
L 9.8125 71.09375 
Q 15.4375 72.65625 20.34375 73.4375 
Q 25.25 74.21875 29.59375 74.21875 
Q 40.828125 74.21875 47.359375 69.109375 
Q 53.90625 64.015625 53.90625 55.328125 
Q 53.90625 49.265625 50.4375 45.09375 
Q 46.96875 40.921875 40.578125 39.3125 
z
" id="DejaVuSans-51"/>
      </defs>
      <g transform="translate(67.096875 290.646236)scale(0.1 -0.1)">
       <use xlink:href="#DejaVuSans-48"/>
       <use x="63.623047" xlink:href="#DejaVuSans-46"/>
       <use x="95.410156" xlink:href="#DejaVuSans-51"/>
      </g>
     </g>
    </g>
    <g id="ytick_2">
     <g id="line2d_15">
      <path clip-path="url(#pc691c5a6b6)" d="M 90 253.41117 
L 648 253.41117 
" style="fill:none;stroke:#b0b0b0;stroke-linecap:square;stroke-width:0.8;"/>
     </g>
     <g id="line2d_16">
      <g>
       <use style="stroke:#000000;stroke-width:0.8;" x="90" xlink:href="#m8207d17441" y="253.41117"/>
      </g>
     </g>
     <g id="text_9">
      <!-- 0.4 -->
      <g transform="translate(67.096875 257.210389)scale(0.1 -0.1)">
       <use xlink:href="#DejaVuSans-48"/>
       <use x="63.623047" xlink:href="#DejaVuSans-46"/>
       <use x="95.410156" xlink:href="#DejaVuSans-52"/>
      </g>
     </g>
    </g>
    <g id="ytick_3">
     <g id="line2d_17">
      <path clip-path="url(#pc691c5a6b6)" d="M 90 219.975323 
L 648 219.975323 
" style="fill:none;stroke:#b0b0b0;stroke-linecap:square;stroke-width:0.8;"/>
     </g>
     <g id="line2d_18">
      <g>
       <use style="stroke:#000000;stroke-width:0.8;" x="90" xlink:href="#m8207d17441" y="219.975323"/>
      </g>
     </g>
     <g id="text_10">
      <!-- 0.5 -->
      <defs>
       <path d="M 10.796875 72.90625 
L 49.515625 72.90625 
L 49.515625 64.59375 
L 19.828125 64.59375 
L 19.828125 46.734375 
Q 21.96875 47.46875 24.109375 47.828125 
Q 26.265625 48.1875 28.421875 48.1875 
Q 40.625 48.1875 47.75 41.5 
Q 54.890625 34.8125 54.890625 23.390625 
Q 54.890625 11.625 47.5625 5.09375 
Q 40.234375 -1.421875 26.90625 -1.421875 
Q 22.3125 -1.421875 17.546875 -0.640625 
Q 12.796875 0.140625 7.71875 1.703125 
L 7.71875 11.625 
Q 12.109375 9.234375 16.796875 8.0625 
Q 21.484375 6.890625 26.703125 6.890625 
Q 35.15625 6.890625 40.078125 11.328125 
Q 45.015625 15.765625 45.015625 23.390625 
Q 45.015625 31 40.078125 35.4375 
Q 35.15625 39.890625 26.703125 39.890625 
Q 22.75 39.890625 18.8125 39.015625 
Q 14.890625 38.140625 10.796875 36.28125 
z
" id="DejaVuSans-53"/>
      </defs>
      <g transform="translate(67.096875 223.774542)scale(0.1 -0.1)">
       <use xlink:href="#DejaVuSans-48"/>
       <use x="63.623047" xlink:href="#DejaVuSans-46"/>
       <use x="95.410156" xlink:href="#DejaVuSans-53"/>
      </g>
     </g>
    </g>
    <g id="ytick_4">
     <g id="line2d_19">
      <path clip-path="url(#pc691c5a6b6)" d="M 90 186.539476 
L 648 186.539476 
" style="fill:none;stroke:#b0b0b0;stroke-linecap:square;stroke-width:0.8;"/>
     </g>
     <g id="line2d_20">
      <g>
       <use style="stroke:#000000;stroke-width:0.8;" x="90" xlink:href="#m8207d17441" y="186.539476"/>
      </g>
     </g>
     <g id="text_11">
      <!-- 0.6 -->
      <g transform="translate(67.096875 190.338695)scale(0.1 -0.1)">
       <use xlink:href="#DejaVuSans-48"/>
       <use x="63.623047" xlink:href="#DejaVuSans-46"/>
       <use x="95.410156" xlink:href="#DejaVuSans-54"/>
      </g>
     </g>
    </g>
    <g id="ytick_5">
     <g id="line2d_21">
      <path clip-path="url(#pc691c5a6b6)" d="M 90 153.103629 
L 648 153.103629 
" style="fill:none;stroke:#b0b0b0;stroke-linecap:square;stroke-width:0.8;"/>
     </g>
     <g id="line2d_22">
      <g>
       <use style="stroke:#000000;stroke-width:0.8;" x="90" xlink:href="#m8207d17441" y="153.103629"/>
      </g>
     </g>
     <g id="text_12">
      <!-- 0.7 -->
      <defs>
       <path d="M 8.203125 72.90625 
L 55.078125 72.90625 
L 55.078125 68.703125 
L 28.609375 0 
L 18.3125 0 
L 43.21875 64.59375 
L 8.203125 64.59375 
z
" id="DejaVuSans-55"/>
      </defs>
      <g transform="translate(67.096875 156.902848)scale(0.1 -0.1)">
       <use xlink:href="#DejaVuSans-48"/>
       <use x="63.623047" xlink:href="#DejaVuSans-46"/>
       <use x="95.410156" xlink:href="#DejaVuSans-55"/>
      </g>
     </g>
    </g>
    <g id="ytick_6">
     <g id="line2d_23">
      <path clip-path="url(#pc691c5a6b6)" d="M 90 119.667782 
L 648 119.667782 
" style="fill:none;stroke:#b0b0b0;stroke-linecap:square;stroke-width:0.8;"/>
     </g>
     <g id="line2d_24">
      <g>
       <use style="stroke:#000000;stroke-width:0.8;" x="90" xlink:href="#m8207d17441" y="119.667782"/>
      </g>
     </g>
     <g id="text_13">
      <!-- 0.8 -->
      <g transform="translate(67.096875 123.467001)scale(0.1 -0.1)">
       <use xlink:href="#DejaVuSans-48"/>
       <use x="63.623047" xlink:href="#DejaVuSans-46"/>
       <use x="95.410156" xlink:href="#DejaVuSans-56"/>
      </g>
     </g>
    </g>
    <g id="ytick_7">
     <g id="line2d_25">
      <path clip-path="url(#pc691c5a6b6)" d="M 90 86.231935 
L 648 86.231935 
" style="fill:none;stroke:#b0b0b0;stroke-linecap:square;stroke-width:0.8;"/>
     </g>
     <g id="line2d_26">
      <g>
       <use style="stroke:#000000;stroke-width:0.8;" x="90" xlink:href="#m8207d17441" y="86.231935"/>
      </g>
     </g>
     <g id="text_14">
      <!-- 0.9 -->
      <defs>
       <path d="M 10.984375 1.515625 
L 10.984375 10.5 
Q 14.703125 8.734375 18.5 7.8125 
Q 22.3125 6.890625 25.984375 6.890625 
Q 35.75 6.890625 40.890625 13.453125 
Q 46.046875 20.015625 46.78125 33.40625 
Q 43.953125 29.203125 39.59375 26.953125 
Q 35.25 24.703125 29.984375 24.703125 
Q 19.046875 24.703125 12.671875 31.3125 
Q 6.296875 37.9375 6.296875 49.421875 
Q 6.296875 60.640625 12.9375 67.421875 
Q 19.578125 74.21875 30.609375 74.21875 
Q 43.265625 74.21875 49.921875 64.515625 
Q 56.59375 54.828125 56.59375 36.375 
Q 56.59375 19.140625 48.40625 8.859375 
Q 40.234375 -1.421875 26.421875 -1.421875 
Q 22.703125 -1.421875 18.890625 -0.6875 
Q 15.09375 0.046875 10.984375 1.515625 
z
M 30.609375 32.421875 
Q 37.25 32.421875 41.125 36.953125 
Q 45.015625 41.5 45.015625 49.421875 
Q 45.015625 57.28125 41.125 61.84375 
Q 37.25 66.40625 30.609375 66.40625 
Q 23.96875 66.40625 20.09375 61.84375 
Q 16.21875 57.28125 16.21875 49.421875 
Q 16.21875 41.5 20.09375 36.953125 
Q 23.96875 32.421875 30.609375 32.421875 
z
" id="DejaVuSans-57"/>
      </defs>
      <g transform="translate(67.096875 90.031154)scale(0.1 -0.1)">
       <use xlink:href="#DejaVuSans-48"/>
       <use x="63.623047" xlink:href="#DejaVuSans-46"/>
       <use x="95.410156" xlink:href="#DejaVuSans-57"/>
      </g>
     </g>
    </g>
    <g id="ytick_8">
     <g id="line2d_27">
      <path clip-path="url(#pc691c5a6b6)" d="M 90 52.796088 
L 648 52.796088 
" style="fill:none;stroke:#b0b0b0;stroke-linecap:square;stroke-width:0.8;"/>
     </g>
     <g id="line2d_28">
      <g>
       <use style="stroke:#000000;stroke-width:0.8;" x="90" xlink:href="#m8207d17441" y="52.796088"/>
      </g>
     </g>
     <g id="text_15">
      <!-- 1.0 -->
      <g transform="translate(67.096875 56.595307)scale(0.1 -0.1)">
       <use xlink:href="#DejaVuSans-49"/>
       <use x="63.623047" xlink:href="#DejaVuSans-46"/>
       <use x="95.410156" xlink:href="#DejaVuSans-48"/>
      </g>
     </g>
    </g>
    <g id="text_16">
     <!-- accuracy -->
     <defs>
      <path d="M 34.28125 27.484375 
Q 23.390625 27.484375 19.1875 25 
Q 14.984375 22.515625 14.984375 16.5 
Q 14.984375 11.71875 18.140625 8.90625 
Q 21.296875 6.109375 26.703125 6.109375 
Q 34.1875 6.109375 38.703125 11.40625 
Q 43.21875 16.703125 43.21875 25.484375 
L 43.21875 27.484375 
z
M 52.203125 31.203125 
L 52.203125 0 
L 43.21875 0 
L 43.21875 8.296875 
Q 40.140625 3.328125 35.546875 0.953125 
Q 30.953125 -1.421875 24.3125 -1.421875 
Q 15.921875 -1.421875 10.953125 3.296875 
Q 6 8.015625 6 15.921875 
Q 6 25.140625 12.171875 29.828125 
Q 18.359375 34.515625 30.609375 34.515625 
L 43.21875 34.515625 
L 43.21875 35.40625 
Q 43.21875 41.609375 39.140625 45 
Q 35.0625 48.390625 27.6875 48.390625 
Q 23 48.390625 18.546875 47.265625 
Q 14.109375 46.140625 10.015625 43.890625 
L 10.015625 52.203125 
Q 14.9375 54.109375 19.578125 55.046875 
Q 24.21875 56 28.609375 56 
Q 40.484375 56 46.34375 49.84375 
Q 52.203125 43.703125 52.203125 31.203125 
z
" id="DejaVuSans-97"/>
      <path d="M 8.5 21.578125 
L 8.5 54.6875 
L 17.484375 54.6875 
L 17.484375 21.921875 
Q 17.484375 14.15625 20.5 10.265625 
Q 23.53125 6.390625 29.59375 6.390625 
Q 36.859375 6.390625 41.078125 11.03125 
Q 45.3125 15.671875 45.3125 23.6875 
L 45.3125 54.6875 
L 54.296875 54.6875 
L 54.296875 0 
L 45.3125 0 
L 45.3125 8.40625 
Q 42.046875 3.421875 37.71875 1 
Q 33.40625 -1.421875 27.6875 -1.421875 
Q 18.265625 -1.421875 13.375 4.4375 
Q 8.5 10.296875 8.5 21.578125 
z
M 31.109375 56 
z
" id="DejaVuSans-117"/>
      <path d="M 41.109375 46.296875 
Q 39.59375 47.171875 37.8125 47.578125 
Q 36.03125 48 33.890625 48 
Q 26.265625 48 22.1875 43.046875 
Q 18.109375 38.09375 18.109375 28.8125 
L 18.109375 0 
L 9.078125 0 
L 9.078125 54.6875 
L 18.109375 54.6875 
L 18.109375 46.1875 
Q 20.953125 51.171875 25.484375 53.578125 
Q 30.03125 56 36.53125 56 
Q 37.453125 56 38.578125 55.875 
Q 39.703125 55.765625 41.0625 55.515625 
z
" id="DejaVuSans-114"/>
      <path d="M 32.171875 -5.078125 
Q 28.375 -14.84375 24.75 -17.8125 
Q 21.140625 -20.796875 15.09375 -20.796875 
L 7.90625 -20.796875 
L 7.90625 -13.28125 
L 13.1875 -13.28125 
Q 16.890625 -13.28125 18.9375 -11.515625 
Q 21 -9.765625 23.484375 -3.21875 
L 25.09375 0.875 
L 2.984375 54.6875 
L 12.5 54.6875 
L 29.59375 11.921875 
L 46.6875 54.6875 
L 56.203125 54.6875 
z
" id="DejaVuSans-121"/>
     </defs>
     <g transform="translate(61.017187 201.659375)rotate(-90)scale(0.1 -0.1)">
      <use xlink:href="#DejaVuSans-97"/>
      <use x="61.279297" xlink:href="#DejaVuSans-99"/>
      <use x="116.259766" xlink:href="#DejaVuSans-99"/>
      <use x="171.240234" xlink:href="#DejaVuSans-117"/>
      <use x="234.619141" xlink:href="#DejaVuSans-114"/>
      <use x="275.732422" xlink:href="#DejaVuSans-97"/>
      <use x="337.011719" xlink:href="#DejaVuSans-99"/>
      <use x="391.992188" xlink:href="#DejaVuSans-121"/>
     </g>
    </g>
   </g>
   <g id="line2d_29">
    <path clip-path="url(#pc691c5a6b6)" d="M 115.363636 302.645455 
L 115.867383 298.549563 
L 116.371129 299.636228 
L 116.874876 293.784955 
L 117.378622 293.617776 
L 117.882369 297.880846 
L 118.386115 290.274191 
L 118.889862 289.103937 
L 119.393608 293.617776 
L 119.897355 290.357781 
L 120.401101 285.676762 
L 120.904848 285.175225 
L 121.408594 282.751126 
L 121.912341 281.74805 
L 122.416087 277.40139 
L 122.919834 281.246512 
L 123.42358 275.646008 
L 123.927327 276.314725 
L 124.93482 269.627556 
L 125.438566 269.460376 
L 125.942313 266.952688 
L 126.949806 263.609103 
L 127.453552 257.507061 
L 127.957299 255.417321 
L 128.461045 257.925009 
L 128.964792 245.386567 
L 129.468538 245.052208 
L 129.972285 238.448628 
L 130.476031 236.609657 
L 130.979778 232.931714 
L 131.483524 230.591204 
L 131.987271 226.160955 
L 132.491017 217.885582 
L 132.994764 212.034309 
L 133.49851 210.028158 
L 134.002257 207.353291 
L 134.506003 201.836376 
L 135.00975 198.158433 
L 135.513496 198.409202 
L 136.017243 188.127679 
L 136.520989 189.381523 
L 137.024736 181.022561 
L 137.528482 182.527174 
L 138.032229 181.524099 
L 138.535975 170.657449 
L 139.039722 172.412831 
L 139.543468 168.985656 
L 140.047215 162.967204 
L 140.550961 163.8031 
L 141.054708 161.128232 
L 141.558454 159.289261 
L 142.062201 158.119006 
L 143.069694 153.187219 
L 143.57344 149.843634 
L 144.077187 149.676455 
L 144.580933 149.258507 
L 145.588426 140.983134 
L 146.595919 143.072875 
L 147.099666 136.218526 
L 147.603412 137.63955 
L 148.107159 136.636474 
L 148.610905 135.38263 
L 149.114652 135.967757 
L 149.618398 134.546734 
L 150.122145 132.540583 
L 150.625891 128.77905 
L 151.129638 128.026744 
L 151.633384 131.03597 
L 152.640877 123.178546 
L 153.144624 123.930853 
L 153.64837 124.014442 
L 154.152117 122.008291 
L 154.655864 123.596494 
L 155.15961 120.16932 
L 156.167103 116.574966 
L 156.67085 117.9124 
L 157.174596 114.401636 
L 157.678343 116.240608 
L 158.182089 117.578042 
L 158.685836 116.240608 
L 159.693329 110.054976 
L 160.197075 111.225231 
L 160.700822 113.48215 
L 161.204568 110.556514 
L 161.708315 110.389334 
L 162.212061 110.389334 
L 162.715808 108.299594 
L 163.219554 107.129339 
L 163.723301 105.624726 
L 164.227047 107.463698 
L 164.730794 103.702165 
L 165.23454 106.126264 
L 165.738287 105.541137 
L 166.242033 105.373957 
L 166.74578 103.200627 
L 167.249526 103.785755 
L 167.753273 102.782679 
L 168.257019 102.281142 
L 168.760766 97.767302 
L 169.264512 95.176024 
L 169.768259 99.773453 
L 170.272005 99.522684 
L 170.775752 97.600123 
L 171.279498 99.021147 
L 171.783245 96.680637 
L 172.286991 96.847816 
L 172.790738 98.26884 
L 173.798231 97.182175 
L 174.301977 94.507307 
L 174.805724 94.256538 
L 175.30947 95.761151 
L 175.813217 94.925255 
L 176.316963 91.74885 
L 176.82071 93.253463 
L 177.324456 90.996543 
L 177.828203 91.832439 
L 178.331949 91.498081 
L 178.835696 91.74885 
L 179.339442 88.070907 
L 179.843189 91.414491 
L 180.346935 89.073982 
L 180.850682 88.656034 
L 181.354428 90.745774 
L 181.858175 86.482704 
L 182.361921 85.22886 
L 182.865668 87.987317 
L 183.369414 87.40219 
L 183.873161 87.903727 
L 184.376907 85.897577 
L 184.880654 85.22886 
L 185.3844 86.148345 
L 185.888147 85.479628 
L 186.391893 85.06168 
L 186.89564 86.148345 
L 187.399386 84.894501 
L 187.903133 83.222709 
L 188.406879 83.05553 
L 188.910626 87.067831 
L 189.414372 83.139119 
L 189.918119 83.807836 
L 190.421865 83.640657 
L 190.925612 84.978091 
L 191.429358 82.386813 
L 191.933105 82.553992 
L 192.436851 81.968865 
L 192.940598 83.05553 
L 193.444344 79.711945 
L 193.948091 80.380662 
L 194.451837 82.386813 
L 194.955584 81.300148 
L 195.45933 80.71502 
L 195.963077 81.550916 
L 196.466823 83.640657 
L 197.474316 80.046303 
L 197.978063 80.046303 
L 198.481809 80.297072 
L 198.985556 80.129893 
L 199.489302 80.213483 
L 199.993049 78.040153 
L 200.496795 80.464251 
L 201.000542 77.371436 
L 201.504288 78.123742 
L 202.008035 75.699643 
L 202.511781 78.040153 
L 203.015528 75.699643 
L 203.519274 78.708869 
L 204.023021 79.293997 
L 204.526767 75.866822 
L 205.030514 78.207332 
L 205.53426 77.622204 
L 206.038007 75.950412 
L 206.541753 74.947337 
L 207.0455 75.699643 
L 207.549246 78.290921 
L 208.052993 76.284771 
L 208.556739 75.365285 
L 209.060486 74.696568 
L 209.564232 75.950412 
L 210.067979 76.619129 
L 210.571725 73.944261 
L 211.075472 73.526313 
L 211.579218 75.950412 
L 212.082965 77.622204 
L 212.586711 74.947337 
L 213.090458 74.780157 
L 213.594204 73.442724 
L 214.097951 74.529389 
L 214.601697 74.27862 
L 215.105444 71.102214 
L 215.60919 71.687342 
L 216.112937 75.198106 
L 216.616683 76.619129 
L 217.12043 74.863747 
L 217.624176 75.448874 
L 218.127923 72.857596 
L 218.631669 74.19503 
L 219.639162 74.19503 
L 220.142909 72.941186 
L 220.646655 74.27862 
L 221.150402 73.693492 
L 221.654148 71.018625 
L 222.157895 72.941186 
L 223.165388 72.356059 
L 223.669134 72.356059 
L 224.172881 70.851445 
L 224.676627 72.439648 
L 225.180374 71.352983 
L 225.68412 71.436573 
L 226.187867 70.935035 
L 226.691613 71.520162 
L 227.19536 70.935035 
L 227.699106 69.597601 
L 228.202853 72.523238 
L 228.706599 69.597601 
L 229.210346 72.439648 
L 229.714092 71.436573 
L 230.217839 71.018625 
L 230.721585 72.356059 
L 231.225332 72.356059 
L 231.729078 71.102214 
L 232.232825 70.767856 
L 232.736571 69.93196 
L 233.240318 70.182729 
L 233.744064 71.436573 
L 234.247811 71.185804 
L 234.751557 69.514012 
L 235.255304 69.681191 
L 235.75905 71.770931 
L 236.262797 70.851445 
L 236.766543 68.845295 
L 237.27029 68.845295 
L 237.774036 69.179653 
L 238.277783 67.925809 
L 238.781529 68.176578 
L 239.285276 69.93196 
L 239.789022 70.517087 
L 240.292769 67.173502 
L 240.796515 69.84837 
L 241.300262 69.84837 
L 241.804008 68.427347 
L 242.307755 66.671965 
L 242.811501 68.343757 
L 243.315248 68.343757 
L 243.818994 69.681191 
L 244.826487 67.75863 
L 245.330234 67.173502 
L 245.83398 67.67504 
L 246.337727 68.761705 
L 246.841473 68.678115 
L 247.34522 69.012474 
L 247.848966 69.681191 
L 248.352713 67.089913 
L 248.856459 68.928884 
L 249.360206 67.59145 
L 249.863952 68.510936 
L 250.367699 67.925809 
L 250.871445 68.678115 
L 251.878938 67.340682 
L 252.382685 68.092988 
L 252.886431 66.504785 
L 253.390178 66.922733 
L 253.893924 68.343757 
L 254.397671 67.67504 
L 254.901417 67.59145 
L 255.90891 66.504785 
L 256.412657 65.41812 
L 257.42015 66.170427 
L 257.923896 67.75863 
L 258.427643 66.839144 
L 258.931389 64.916583 
L 259.435136 67.507861 
L 259.938882 65.752479 
L 260.442629 66.421196 
L 260.946375 66.337606 
L 261.450122 66.588375 
L 261.953868 64.164276 
L 262.457615 67.089913 
L 262.961361 64.749403 
L 263.968854 67.424271 
L 264.976347 66.170427 
L 265.480094 67.006323 
L 265.98384 65.334531 
L 266.487587 66.839144 
L 266.991333 67.173502 
L 267.49508 66.337606 
L 267.998826 67.424271 
L 268.502573 65.167351 
L 269.006319 66.504785 
L 269.510066 64.415045 
L 270.013812 66.839144 
L 270.517559 65.41812 
L 271.021305 65.668889 
L 271.525052 64.832993 
L 272.028798 66.003248 
L 272.532545 64.916583 
L 273.036291 67.006323 
L 273.540038 64.080686 
L 274.043784 65.752479 
L 274.547531 63.411969 
L 275.051277 65.5853 
L 275.555024 66.839144 
L 276.05877 65.083762 
L 276.562517 65.334531 
L 277.066263 66.504785 
L 277.57001 65.250941 
L 278.073756 65.334531 
L 278.577503 64.415045 
L 279.081249 66.086837 
L 279.584996 65.334531 
L 280.592489 65.5853 
L 281.096235 64.665814 
L 281.599982 65.41812 
L 282.103728 65.000172 
L 282.607475 64.331455 
L 283.111221 64.832993 
L 283.614968 65.5853 
L 284.118714 64.749403 
L 285.629954 64.665814 
L 286.1337 64.415045 
L 286.637447 64.582224 
L 287.141193 64.498635 
L 287.64494 65.41812 
L 288.148686 64.331455 
L 288.652433 64.832993 
L 289.156179 63.746328 
L 289.659926 63.662738 
L 290.163672 64.415045 
L 290.667419 63.495559 
L 291.171165 65.000172 
L 291.674912 65.50171 
L 292.178658 63.32838 
L 292.682405 63.077611 
L 293.186151 62.994021 
L 293.689898 62.576073 
L 294.193644 64.164276 
L 295.201137 63.662738 
L 295.704884 63.997097 
L 296.20863 63.495559 
L 296.712377 63.579149 
L 297.216123 64.080686 
L 297.71987 64.164276 
L 298.223617 65.083762 
L 298.727363 64.582224 
L 299.23111 64.247866 
L 299.734856 63.32838 
L 300.238603 64.080686 
L 301.246096 63.077611 
L 301.749842 63.495559 
L 302.253589 64.498635 
L 302.757335 64.331455 
L 303.261082 62.659663 
L 303.764828 62.074536 
L 304.268575 62.994021 
L 304.772321 62.241715 
L 305.276068 63.913507 
L 305.779814 62.826842 
L 306.283561 64.164276 
L 306.787307 64.080686 
L 307.291054 63.495559 
L 307.7948 60.486333 
L 308.298547 63.24479 
L 308.802293 63.997097 
L 309.30604 63.746328 
L 309.809786 60.987871 
L 310.313533 63.24479 
L 310.817279 63.495559 
L 311.321026 62.241715 
L 311.824772 62.408894 
L 312.328519 62.241715 
L 312.832265 62.576073 
L 313.336012 63.161201 
L 313.839758 62.910432 
L 314.343505 63.495559 
L 314.847251 61.907356 
L 315.350998 63.24479 
L 315.854744 62.743253 
L 316.358491 63.161201 
L 316.862237 62.492484 
L 317.365984 60.820691 
L 317.86973 62.659663 
L 318.373477 62.325304 
L 318.877223 61.489408 
L 319.38097 60.904281 
L 319.884716 62.659663 
L 320.388463 61.489408 
L 320.892209 61.990946 
L 321.395956 62.994021 
L 321.899702 61.322229 
L 322.907195 62.408894 
L 323.410942 60.820691 
L 323.914688 61.322229 
L 324.418435 61.656588 
L 324.922181 61.489408 
L 325.425928 62.492484 
L 325.929674 63.161201 
L 326.433421 61.572998 
L 326.937167 61.823767 
L 327.440914 62.826842 
L 327.94466 62.074536 
L 328.448407 61.572998 
L 328.952153 61.322229 
L 329.959646 62.492484 
L 330.463393 64.415045 
L 330.967139 61.823767 
L 331.470886 63.32838 
L 331.974632 62.743253 
L 332.478379 62.994021 
L 332.982125 61.238639 
L 333.485872 61.405819 
L 333.989618 61.15505 
L 334.493365 60.653512 
L 335.500858 62.826842 
L 336.508351 62.826842 
L 337.012097 60.402743 
L 337.515844 60.904281 
L 338.01959 63.161201 
L 338.523337 60.737102 
L 339.027083 61.15505 
L 339.53083 60.151974 
L 340.034576 60.820691 
L 340.538323 61.907356 
L 341.042069 60.904281 
L 341.545816 62.241715 
L 342.553309 60.904281 
L 343.057055 61.907356 
L 343.560802 61.572998 
L 344.064548 62.743253 
L 344.568295 60.486333 
L 345.072041 61.15505 
L 345.575788 60.486333 
L 346.079534 61.15505 
L 346.583281 62.158125 
L 347.087027 60.653512 
L 347.590774 61.990946 
L 348.09452 62.241715 
L 348.598267 61.823767 
L 349.102013 60.486333 
L 349.60576 61.656588 
L 350.109506 60.987871 
L 350.613253 61.823767 
L 351.116999 63.24479 
L 351.620746 60.820691 
L 352.124492 61.740177 
L 352.628239 59.650437 
L 353.131985 60.402743 
L 353.635732 62.074536 
L 354.139478 60.319154 
L 354.643225 59.566847 
L 355.146971 61.07146 
L 355.650718 61.990946 
L 356.154464 60.737102 
L 356.658211 59.984795 
L 357.161957 61.322229 
L 357.665704 60.653512 
L 358.16945 61.15505 
L 358.673197 59.734026 
L 359.176943 60.402743 
L 359.68069 60.486333 
L 360.184436 61.238639 
L 360.688183 61.15505 
L 361.191929 62.994021 
L 361.695676 60.737102 
L 362.199422 60.402743 
L 362.703169 61.740177 
L 363.710662 60.486333 
L 364.214408 60.737102 
L 364.718155 60.402743 
L 365.221901 60.486333 
L 365.725648 61.15505 
L 366.229394 60.402743 
L 366.733141 61.238639 
L 367.740634 60.235564 
L 368.24438 58.98172 
L 368.748127 61.07146 
L 369.251873 61.238639 
L 369.75562 59.650437 
L 370.259366 61.238639 
L 370.763113 60.904281 
L 371.266859 60.068385 
L 371.770606 60.486333 
L 372.274352 60.486333 
L 372.778099 60.737102 
L 373.281845 61.405819 
L 373.785592 60.402743 
L 374.289338 61.07146 
L 374.793085 60.068385 
L 375.296831 58.730951 
L 375.800578 59.734026 
L 376.304324 61.15505 
L 376.808071 60.319154 
L 377.311817 60.653512 
L 377.815564 59.734026 
L 378.31931 59.650437 
L 379.326803 59.901206 
L 379.83055 60.653512 
L 380.334296 60.987871 
L 380.838043 59.483257 
L 381.341789 58.563772 
L 381.845536 61.322229 
L 382.349282 60.737102 
L 382.853029 61.322229 
L 383.356775 59.984795 
L 383.860522 59.566847 
L 384.364268 60.820691 
L 384.868015 60.904281 
L 385.371761 59.901206 
L 385.875508 60.653512 
L 386.379254 60.737102 
L 386.883001 59.817616 
L 387.386747 59.148899 
L 387.890494 60.904281 
L 388.39424 60.569922 
L 388.897987 59.399668 
L 389.401733 59.650437 
L 389.90548 60.653512 
L 390.409226 60.653512 
L 390.912973 61.07146 
L 391.416719 58.814541 
L 391.920466 61.07146 
L 392.424212 60.653512 
L 392.927959 59.734026 
L 393.431705 60.653512 
L 393.935452 59.734026 
L 394.439198 59.566847 
L 394.942945 60.569922 
L 395.446691 59.232489 
L 395.950438 60.569922 
L 396.454184 59.065309 
L 396.957931 60.151974 
L 397.461677 59.734026 
L 397.965424 61.07146 
L 398.46917 60.151974 
L 398.972917 60.904281 
L 399.476663 60.653512 
L 399.98041 59.316078 
L 400.484156 59.148899 
L 400.987903 58.647361 
L 401.995396 59.734026 
L 403.002889 60.151974 
L 403.506635 58.814541 
L 404.010382 60.235564 
L 404.514128 60.904281 
L 405.017875 57.477107 
L 405.521621 59.650437 
L 406.025368 59.148899 
L 406.529114 59.316078 
L 407.032861 59.734026 
L 407.536607 59.734026 
L 408.040354 59.148899 
L 408.5441 60.569922 
L 409.047847 59.065309 
L 410.559086 59.065309 
L 411.062833 60.486333 
L 411.566579 59.483257 
L 412.070326 58.229413 
L 412.574072 59.901206 
L 413.077819 59.148899 
L 413.581565 59.316078 
L 414.085312 60.402743 
L 414.589058 58.563772 
L 415.092805 60.737102 
L 415.596551 60.569922 
L 416.100298 58.730951 
L 416.604044 58.563772 
L 417.611537 60.235564 
L 418.115284 58.480182 
L 418.61903 59.232489 
L 419.122777 58.89813 
L 419.626523 58.98172 
L 420.13027 59.734026 
L 420.634016 60.068385 
L 421.137763 59.065309 
L 421.641509 59.984795 
L 422.145256 60.486333 
L 422.649002 59.232489 
L 423.656495 58.814541 
L 424.160242 59.232489 
L 424.663988 58.89813 
L 425.167735 59.232489 
L 425.671481 58.229413 
L 426.175228 59.399668 
L 426.678974 59.148899 
L 427.182721 59.232489 
L 427.686467 58.480182 
L 428.190214 58.229413 
L 428.69396 58.480182 
L 429.197707 59.316078 
L 429.701453 58.647361 
L 430.2052 57.309927 
L 430.708946 58.647361 
L 431.212693 58.563772 
L 431.716439 58.145824 
L 432.220186 59.483257 
L 432.723932 59.316078 
L 433.227679 58.814541 
L 433.731425 59.232489 
L 434.235172 59.483257 
L 434.738918 58.145824 
L 435.746411 59.399668 
L 436.250158 58.89813 
L 436.753904 58.229413 
L 437.257651 58.480182 
L 437.761397 59.817616 
L 438.265144 59.232489 
L 438.76889 59.399668 
L 439.272637 59.817616 
L 439.776383 59.483257 
L 440.28013 58.396592 
L 440.783877 58.89813 
L 441.287623 57.811465 
L 441.79137 58.647361 
L 442.295116 58.313003 
L 442.798863 58.89813 
L 443.302609 58.647361 
L 443.806356 57.978644 
L 444.310102 57.644286 
L 444.813849 59.065309 
L 445.317595 58.396592 
L 445.821342 58.730951 
L 446.325088 58.145824 
L 446.828835 58.062234 
L 447.332581 59.984795 
L 447.836328 58.563772 
L 448.340074 58.647361 
L 448.843821 57.393517 
L 449.851314 58.313003 
L 450.35506 58.480182 
L 450.858807 57.978644 
L 451.362553 58.563772 
L 451.8663 58.89813 
L 452.370046 57.978644 
L 452.873793 58.563772 
L 453.377539 58.145824 
L 454.385032 58.89813 
L 454.888779 58.563772 
L 455.392525 57.895055 
L 455.896272 57.811465 
L 456.400018 58.480182 
L 456.903765 58.814541 
L 457.407511 59.399668 
L 457.911258 58.396592 
L 458.415004 59.065309 
L 459.422497 57.727876 
L 459.926244 58.145824 
L 460.933737 58.396592 
L 461.437483 58.062234 
L 461.94123 57.895055 
L 462.444976 59.734026 
L 462.948723 57.727876 
L 463.452469 59.065309 
L 463.956216 59.232489 
L 464.459962 58.480182 
L 464.963709 58.563772 
L 465.467455 57.477107 
L 465.971202 57.309927 
L 466.474948 59.065309 
L 466.978695 58.229413 
L 467.482441 58.563772 
L 467.986188 57.644286 
L 468.489934 57.560696 
L 468.993681 58.480182 
L 469.497427 58.814541 
L 470.001174 57.811465 
L 470.50492 57.560696 
L 471.008667 58.145824 
L 471.512413 59.065309 
L 472.01616 58.89813 
L 472.519906 56.223262 
L 473.023653 57.978644 
L 473.527399 57.811465 
L 474.534892 59.148899 
L 475.038639 58.145824 
L 475.542385 58.563772 
L 476.046132 57.895055 
L 476.549878 57.644286 
L 477.053625 57.560696 
L 477.557371 59.148899 
L 478.061118 57.644286 
L 479.068611 57.727876 
L 479.572357 58.89813 
L 480.076104 58.89813 
L 481.083597 57.309927 
L 481.587343 58.145824 
L 482.09109 58.480182 
L 482.594836 57.142748 
L 483.098583 57.560696 
L 483.602329 57.644286 
L 484.106076 58.480182 
L 484.609822 58.062234 
L 485.113569 57.226338 
L 486.121062 58.229413 
L 486.624808 57.142748 
L 487.128555 58.229413 
L 487.632301 57.727876 
L 488.136048 57.895055 
L 488.639794 57.477107 
L 489.143541 57.978644 
L 489.647287 57.811465 
L 490.65478 58.563772 
L 491.158527 57.644286 
L 491.662273 58.563772 
L 492.16602 57.059159 
L 492.669766 58.145824 
L 493.173513 57.309927 
L 493.677259 57.393517 
L 494.684752 58.145824 
L 495.188499 57.309927 
L 495.692245 59.232489 
L 496.195992 56.223262 
L 496.699738 56.7248 
L 497.203485 57.059159 
L 497.707231 57.727876 
L 498.210978 59.065309 
L 498.714724 58.062234 
L 499.218471 57.727876 
L 499.722217 56.557621 
L 500.225964 57.727876 
L 500.72971 57.727876 
L 501.233457 56.891979 
L 501.737203 58.647361 
L 502.24095 58.145824 
L 502.744696 57.477107 
L 503.248443 58.062234 
L 503.752189 57.811465 
L 504.255936 57.059159 
L 504.759682 57.477107 
L 506.774668 57.811465 
L 507.278415 57.560696 
L 507.782161 57.059159 
L 508.285908 56.7248 
L 508.789654 56.891979 
L 509.293401 58.145824 
L 509.797147 57.811465 
L 510.300894 59.148899 
L 510.80464 57.477107 
L 511.308387 57.895055 
L 511.812133 58.480182 
L 512.31588 57.226338 
L 512.819626 57.644286 
L 513.323373 55.972494 
L 514.330866 58.145824 
L 514.834612 57.644286 
L 515.338359 57.644286 
L 515.842105 57.895055 
L 516.345852 57.727876 
L 516.849598 58.145824 
L 517.353345 57.059159 
L 517.857091 57.811465 
L 518.360838 57.644286 
L 518.864584 57.644286 
L 519.368331 57.226338 
L 519.872077 57.727876 
L 520.375824 57.393517 
L 520.87957 57.811465 
L 521.383317 56.64121 
L 521.887063 58.313003 
L 522.39081 57.309927 
L 522.894556 56.80839 
L 523.902049 58.062234 
L 524.405796 56.7248 
L 524.909542 56.975569 
L 525.413289 58.145824 
L 525.917035 57.142748 
L 526.420782 56.64121 
L 526.924528 57.477107 
L 527.428275 57.727876 
L 527.932021 58.145824 
L 528.435768 57.811465 
L 528.939514 56.891979 
L 529.443261 57.560696 
L 529.947007 57.727876 
L 530.450754 57.393517 
L 530.9545 57.811465 
L 531.458247 56.975569 
L 531.961993 56.7248 
L 532.46574 56.80839 
L 532.969486 57.477107 
L 533.473233 58.480182 
L 533.976979 57.560696 
L 534.480726 57.226338 
L 534.984472 58.062234 
L 535.488219 56.474031 
L 535.991965 57.059159 
L 536.495712 57.309927 
L 536.999458 57.895055 
L 537.503205 56.891979 
L 538.006951 57.226338 
L 538.510698 56.975569 
L 539.014444 57.309927 
L 539.518191 57.477107 
L 540.021937 58.229413 
L 540.525684 57.059159 
L 541.02943 58.062234 
L 541.533177 58.313003 
L 542.036923 56.474031 
L 543.044416 57.142748 
L 543.548163 57.727876 
L 544.051909 57.393517 
L 544.555656 56.557621 
L 545.059402 58.814541 
L 545.563149 58.563772 
L 546.066895 56.64121 
L 546.570642 58.145824 
L 547.074388 58.145824 
L 547.578135 56.80839 
L 548.081881 56.390442 
L 548.585628 56.891979 
L 549.089374 57.142748 
L 549.593121 56.80839 
L 550.096867 57.309927 
L 550.600614 56.7248 
L 551.10436 57.393517 
L 551.608107 56.80839 
L 552.111853 57.727876 
L 552.6156 56.891979 
L 553.119346 57.393517 
L 553.623093 57.226338 
L 554.126839 57.477107 
L 554.630586 57.560696 
L 555.134332 58.647361 
L 555.638079 57.727876 
L 556.141825 58.313003 
L 556.645572 55.554545 
L 557.149318 57.059159 
L 557.653065 56.557621 
L 558.156811 57.142748 
L 558.660558 56.64121 
L 559.164304 57.811465 
L 560.171797 56.80839 
L 560.675544 57.059159 
L 561.17929 57.727876 
L 561.683037 56.7248 
L 562.186783 57.309927 
L 562.69053 57.644286 
L 563.194276 58.145824 
L 564.201769 57.560696 
L 564.705516 56.306852 
L 565.209262 58.062234 
L 565.713009 56.80839 
L 566.216755 56.64121 
L 566.720502 57.309927 
L 567.224248 57.560696 
L 567.727995 57.309927 
L 568.231741 56.557621 
L 568.735488 58.145824 
L 569.239234 57.811465 
L 569.742981 57.309927 
L 571.25422 57.477107 
L 571.757967 56.474031 
L 572.261713 57.560696 
L 572.76546 56.80839 
L 573.269206 56.306852 
L 573.772953 56.056083 
L 574.276699 57.226338 
L 574.780446 57.644286 
L 575.284192 57.560696 
L 575.787939 57.059159 
L 576.291685 56.139673 
L 576.795432 57.393517 
L 577.299178 57.978644 
L 577.802925 56.975569 
L 578.306671 56.223262 
L 578.810418 57.059159 
L 579.314164 57.142748 
L 579.817911 56.891979 
L 580.321657 57.393517 
L 580.825404 57.059159 
L 581.832897 57.560696 
L 582.336643 56.64121 
L 582.84039 56.891979 
L 583.344136 56.390442 
L 583.847883 56.80839 
L 584.35163 56.64121 
L 584.855376 57.142748 
L 585.359123 56.223262 
L 585.862869 57.477107 
L 586.366616 56.891979 
L 586.870362 55.638135 
L 587.374109 57.477107 
L 587.877855 57.644286 
L 588.885348 57.059159 
L 589.389095 57.059159 
L 590.396588 56.80839 
L 590.900334 57.811465 
L 591.404081 57.727876 
L 591.907827 56.975569 
L 592.411574 57.727876 
L 592.91532 56.139673 
L 593.419067 57.226338 
L 593.922813 56.891979 
L 594.42656 56.390442 
L 594.930306 57.226338 
L 595.434053 57.727876 
L 595.937799 57.309927 
L 596.441546 58.062234 
L 596.945292 57.309927 
L 597.449039 57.393517 
L 597.952785 57.644286 
L 598.456532 57.644286 
L 598.960278 56.557621 
L 599.464025 56.7248 
L 599.967771 56.7248 
L 600.471518 57.477107 
L 600.975264 56.223262 
L 601.479011 56.80839 
L 601.982757 56.139673 
L 602.486504 56.891979 
L 602.99025 56.557621 
L 603.493997 56.975569 
L 603.997743 57.226338 
L 604.50149 56.056083 
L 605.005236 57.393517 
L 605.508983 56.557621 
L 606.012729 57.059159 
L 607.020222 56.474031 
L 607.523969 56.557621 
L 608.027715 56.223262 
L 608.531462 57.727876 
L 609.035208 58.563772 
L 609.538955 56.80839 
L 610.042701 58.062234 
L 610.546448 56.64121 
L 611.050194 57.142748 
L 611.553941 57.226338 
L 612.057687 56.474031 
L 612.561434 57.059159 
L 613.06518 56.7248 
L 613.568927 57.393517 
L 614.072673 56.390442 
L 614.57642 56.7248 
L 615.080166 56.80839 
L 615.583913 56.474031 
L 616.087659 56.64121 
L 616.591406 56.056083 
L 617.095152 55.972494 
L 617.598899 56.975569 
L 618.102645 57.393517 
L 619.110138 56.80839 
L 619.613885 56.80839 
L 620.117631 56.306852 
L 620.621378 57.059159 
L 621.125124 56.474031 
L 621.628871 57.895055 
L 622.132617 56.390442 
L 622.636364 57.142748 
L 622.636364 57.142748 
" style="fill:none;stroke:#1f77b4;stroke-linecap:square;stroke-width:0.5;"/>
   </g>
   <g id="line2d_30">
    <path clip-path="url(#pc691c5a6b6)" d="M 115.363636 299.886997 
L 115.867383 298.465974 
L 116.371129 298.883922 
L 116.874876 297.964436 
L 117.378622 295.122389 
L 117.882369 294.202903 
L 118.386115 288.518809 
L 118.889862 289.438295 
L 119.393608 288.43522 
L 119.897355 291.026498 
L 120.401101 289.939833 
L 120.904848 281.83164 
L 121.408594 287.850092 
L 121.912341 281.246512 
L 122.416087 285.843941 
L 122.919834 279.65831 
L 123.42358 280.577796 
L 123.927327 277.150621 
L 124.431073 277.3178 
L 124.93482 269.209608 
L 125.438566 268.540891 
L 125.942313 269.794735 
L 127.453552 258.760905 
L 127.957299 258.092188 
L 128.461045 251.572198 
L 128.964792 252.157326 
L 129.972285 242.711699 
L 130.476031 232.095817 
L 130.979778 235.021454 
L 131.483524 229.003002 
L 131.987271 229.170181 
L 132.491017 223.318908 
L 132.994764 214.876356 
L 133.49851 216.130201 
L 134.002257 206.684574 
L 134.506003 200.582532 
L 135.00975 202.170734 
L 135.513496 193.143056 
L 136.017243 188.127679 
L 136.520989 185.536401 
L 137.024736 186.288707 
L 137.528482 179.01641 
L 138.032229 179.768717 
L 138.535975 178.431283 
L 139.039722 177.678977 
L 139.543468 168.902067 
L 140.047215 168.066171 
L 140.550961 171.075397 
L 141.054708 164.889765 
L 142.062201 159.790798 
L 142.565947 155.778497 
L 143.069694 158.871313 
L 143.57344 154.023115 
L 144.077187 154.441063 
L 144.580933 149.843634 
L 145.08468 148.004662 
L 145.588426 148.339021 
L 146.092173 140.899545 
L 146.595919 146.750818 
L 147.099666 143.825181 
L 147.603412 143.992361 
L 148.107159 138.726215 
L 148.610905 138.475446 
L 149.114652 135.633399 
L 149.618398 131.955456 
L 150.122145 133.627248 
L 150.625891 137.723139 
L 151.129638 127.358027 
L 151.633384 131.871866 
L 152.137131 128.444692 
L 152.640877 129.614946 
L 153.144624 125.769824 
L 153.64837 126.438541 
L 154.152117 123.596494 
L 154.655864 126.522131 
L 156.167103 119.333424 
L 156.67085 123.178546 
L 157.174596 116.491377 
L 157.678343 121.088806 
L 158.182089 120.670857 
L 158.685836 115.488301 
L 159.189582 116.658556 
L 159.693329 118.163169 
L 160.197075 117.578042 
L 160.700822 117.410862 
L 161.204568 115.73907 
L 161.708315 116.742145 
L 162.212061 111.893948 
L 162.715808 113.56574 
L 163.219554 112.562665 
L 163.723301 110.974462 
L 164.227047 107.212929 
L 164.730794 108.466773 
L 165.23454 110.222155 
L 165.738287 109.051901 
L 166.242033 104.78883 
L 166.74578 105.123189 
L 167.249526 104.287292 
L 167.753273 105.373957 
L 168.257019 104.454472 
L 168.760766 105.039599 
L 169.264512 102.53191 
L 169.768259 102.448321 
L 170.272005 102.782679 
L 170.775752 100.44217 
L 171.279498 100.860118 
L 172.286991 99.773453 
L 172.790738 101.779604 
L 173.294484 100.107812 
L 173.798231 100.609349 
L 174.301977 98.18525 
L 174.805724 100.943708 
L 175.30947 98.35243 
L 175.813217 97.014996 
L 176.316963 98.603198 
L 176.82071 94.841666 
L 177.324456 95.593972 
L 177.828203 95.928331 
L 178.331949 96.09551 
L 178.835696 99.522684 
L 179.339442 94.590897 
L 179.843189 94.423718 
L 180.346935 92.501156 
L 180.850682 93.83859 
L 181.354428 88.823213 
L 182.361921 94.925255 
L 182.865668 95.176024 
L 183.369414 92.250388 
L 184.376907 92.333977 
L 184.880654 88.405265 
L 185.3844 89.993468 
L 185.888147 85.813987 
L 186.89564 91.66526 
L 187.399386 90.912954 
L 187.903133 87.652959 
L 188.406879 86.817062 
L 189.414372 89.241161 
L 189.918119 87.820138 
L 190.421865 89.993468 
L 190.925612 86.900652 
L 191.933105 88.990392 
L 192.940598 85.646808 
L 193.444344 86.566294 
L 193.948091 85.813987 
L 194.451837 82.88835 
L 194.955584 84.142195 
L 195.45933 86.733473 
L 195.963077 85.312449 
L 196.466823 83.05553 
L 196.97057 83.807836 
L 197.474316 85.396039 
L 197.978063 82.303223 
L 198.481809 84.225784 
L 198.985556 83.640657 
L 199.489302 84.643732 
L 199.993049 83.306298 
L 200.496795 82.804761 
L 201.000542 84.058605 
L 201.504288 82.553992 
L 202.008035 83.389888 
L 202.511781 82.88835 
L 203.015528 84.058605 
L 204.023021 80.547841 
L 204.526767 82.219633 
L 205.030514 82.219633 
L 205.53426 79.962714 
L 206.541753 81.132968 
L 207.0455 80.79861 
L 207.549246 82.052454 
L 208.052993 80.547841 
L 208.556739 79.711945 
L 209.060486 83.139119 
L 209.564232 80.297072 
L 210.067979 82.303223 
L 210.571725 80.129893 
L 211.075472 80.129893 
L 211.579218 81.383737 
L 212.082965 81.718096 
L 212.586711 79.962714 
L 213.090458 79.962714 
L 213.594204 80.464251 
L 214.601697 76.535539 
L 215.105444 80.631431 
L 215.60919 78.876049 
L 216.112937 77.789384 
L 216.616683 77.789384 
L 217.12043 78.54169 
L 217.624176 77.538615 
L 218.127923 79.043228 
L 218.631669 79.628355 
L 219.135416 78.207332 
L 219.639162 78.62528 
L 220.142909 78.207332 
L 220.646655 79.795535 
L 221.150402 77.037077 
L 221.654148 76.535539 
L 222.157895 76.619129 
L 222.661641 77.872973 
L 223.165388 78.290921 
L 223.669134 76.117591 
L 224.172881 77.538615 
L 224.676627 74.696568 
L 225.180374 78.458101 
L 225.68412 78.207332 
L 226.187867 76.45195 
L 226.691613 75.365285 
L 227.19536 77.455025 
L 227.699106 74.27862 
L 228.706599 76.619129 
L 229.210346 76.702719 
L 229.714092 74.612978 
L 230.217839 77.956563 
L 230.721585 73.275544 
L 231.225332 76.034002 
L 231.729078 75.198106 
L 232.232825 78.290921 
L 232.736571 76.786308 
L 233.240318 75.699643 
L 233.744064 75.281695 
L 234.247811 75.198106 
L 234.751557 75.950412 
L 235.255304 75.281695 
L 235.75905 77.705794 
L 236.262797 73.108365 
L 236.766543 74.780157 
L 237.27029 76.869898 
L 237.774036 75.198106 
L 238.277783 75.114516 
L 238.781529 75.532464 
L 239.285276 74.027851 
L 239.789022 73.526313 
L 240.292769 75.365285 
L 240.796515 75.783233 
L 241.300262 73.860672 
L 241.804008 74.027851 
L 242.307755 73.609903 
L 242.811501 72.690417 
L 243.315248 73.526313 
L 243.818994 72.941186 
L 244.322741 74.445799 
L 245.330234 73.777082 
L 245.83398 73.275544 
L 246.337727 73.275544 
L 246.841473 72.356059 
L 247.34522 74.529389 
L 247.848966 74.780157 
L 248.352713 72.272469 
L 248.856459 73.777082 
L 249.360206 73.108365 
L 249.863952 73.860672 
L 250.367699 72.941186 
L 250.871445 73.024775 
L 251.375192 72.857596 
L 251.878938 75.030926 
L 253.390178 71.854521 
L 253.893924 73.693492 
L 254.397671 72.0217 
L 254.901417 71.770931 
L 255.405164 72.690417 
L 255.90891 70.015549 
L 256.412657 70.767856 
L 256.916403 73.944261 
L 257.42015 71.352983 
L 257.923896 70.767856 
L 258.427643 72.690417 
L 258.931389 71.352983 
L 259.435136 70.349908 
L 259.938882 71.687342 
L 260.442629 70.851445 
L 260.946375 72.606827 
L 261.450122 70.935035 
L 261.953868 70.767856 
L 262.457615 72.272469 
L 262.961361 71.352983 
L 263.465108 72.857596 
L 263.968854 71.185804 
L 264.472601 71.854521 
L 264.976347 70.935035 
L 265.480094 70.684266 
L 265.98384 70.851445 
L 266.487587 70.266318 
L 266.991333 70.099139 
L 267.49508 70.851445 
L 267.998826 72.10529 
L 268.502573 71.520162 
L 269.006319 69.346832 
L 269.510066 71.854521 
L 270.013812 72.10529 
L 270.517559 71.352983 
L 271.021305 69.346832 
L 271.525052 70.767856 
L 272.028798 70.684266 
L 272.532545 72.356059 
L 273.036291 70.015549 
L 273.540038 69.597601 
L 274.043784 70.935035 
L 274.547531 70.684266 
L 275.051277 69.76478 
L 275.555024 71.018625 
L 276.05877 70.684266 
L 276.562517 71.018625 
L 277.066263 69.514012 
L 277.57001 70.767856 
L 278.073756 70.182729 
L 278.577503 72.523238 
L 279.584996 67.842219 
L 280.088742 68.678115 
L 281.096235 71.352983 
L 281.599982 69.179653 
L 282.103728 68.845295 
L 282.607475 69.93196 
L 283.111221 70.433497 
L 283.614968 70.349908 
L 284.118714 70.935035 
L 285.126207 69.263243 
L 285.629954 71.102214 
L 286.1337 70.266318 
L 286.637447 69.012474 
L 287.141193 69.430422 
L 287.64494 68.928884 
L 288.148686 71.185804 
L 288.652433 70.182729 
L 289.156179 68.510936 
L 289.659926 70.266318 
L 290.163672 68.678115 
L 290.667419 70.015549 
L 291.171165 69.514012 
L 291.674912 68.761705 
L 292.178658 69.179653 
L 292.682405 69.76478 
L 293.186151 70.099139 
L 293.689898 69.514012 
L 294.193644 69.430422 
L 294.697391 68.594526 
L 295.201137 69.096063 
L 295.704884 69.096063 
L 296.20863 69.93196 
L 296.712377 67.340682 
L 297.216123 69.179653 
L 297.71987 67.925809 
L 298.223617 69.514012 
L 298.727363 69.681191 
L 299.23111 70.266318 
L 299.734856 68.761705 
L 300.238603 68.928884 
L 300.742349 70.182729 
L 301.246096 69.597601 
L 301.749842 70.851445 
L 302.253589 69.096063 
L 302.757335 69.012474 
L 303.764828 70.182729 
L 304.268575 67.67504 
L 304.772321 67.75863 
L 305.276068 68.928884 
L 305.779814 67.006323 
L 306.283561 69.430422 
L 306.787307 69.263243 
L 307.291054 69.597601 
L 307.7948 69.681191 
L 308.298547 69.096063 
L 308.802293 69.096063 
L 309.30604 70.182729 
L 309.809786 68.260167 
L 311.824772 67.925809 
L 312.328519 68.260167 
L 312.832265 68.176578 
L 313.336012 66.839144 
L 313.839758 69.179653 
L 314.343505 68.594526 
L 314.847251 68.845295 
L 315.350998 68.009398 
L 315.854744 68.427347 
L 316.358491 66.755554 
L 316.862237 69.263243 
L 317.365984 68.928884 
L 317.86973 68.343757 
L 318.373477 69.096063 
L 318.877223 67.925809 
L 319.38097 68.092988 
L 319.884716 69.012474 
L 320.388463 67.75863 
L 321.395956 68.510936 
L 321.899702 68.427347 
L 322.907195 68.510936 
L 323.410942 66.671965 
L 323.914688 68.176578 
L 324.418435 66.839144 
L 324.922181 67.173502 
L 325.425928 67.842219 
L 325.929674 67.257092 
L 326.433421 67.507861 
L 326.937167 67.173502 
L 327.440914 67.925809 
L 327.94466 67.75863 
L 328.448407 66.337606 
L 328.952153 68.510936 
L 329.959646 68.009398 
L 330.463393 67.925809 
L 330.967139 67.67504 
L 331.470886 67.089913 
L 331.974632 65.167351 
L 332.478379 67.67504 
L 332.982125 66.839144 
L 334.493365 66.671965 
L 334.997111 68.928884 
L 335.500858 67.59145 
L 336.004604 68.260167 
L 336.508351 68.343757 
L 337.012097 67.75863 
L 337.515844 68.427347 
L 338.01959 67.67504 
L 338.523337 67.842219 
L 339.027083 67.507861 
L 339.53083 65.5853 
L 340.034576 68.176578 
L 341.042069 65.50171 
L 341.545816 67.507861 
L 342.049562 67.006323 
L 342.553309 67.424271 
L 343.057055 67.67504 
L 343.560802 68.510936 
L 344.064548 67.925809 
L 344.568295 66.421196 
L 345.072041 68.343757 
L 345.575788 68.343757 
L 346.079534 68.092988 
L 346.583281 67.507861 
L 347.087027 68.009398 
L 347.590774 67.67504 
L 348.09452 67.173502 
L 348.598267 67.67504 
L 349.102013 68.510936 
L 350.109506 66.086837 
L 350.613253 66.922733 
L 351.116999 66.254016 
L 351.620746 66.421196 
L 352.124492 65.919658 
L 352.628239 67.424271 
L 353.635732 65.50171 
L 354.139478 65.50171 
L 354.643225 65.167351 
L 355.146971 67.842219 
L 355.650718 65.919658 
L 356.154464 67.340682 
L 356.658211 65.836068 
L 357.161957 67.59145 
L 357.665704 66.588375 
L 358.16945 65.167351 
L 358.673197 66.839144 
L 359.176943 64.832993 
L 359.68069 66.003248 
L 360.688183 66.421196 
L 361.191929 67.424271 
L 361.695676 65.5853 
L 362.199422 66.003248 
L 362.703169 66.086837 
L 363.206915 67.75863 
L 363.710662 66.003248 
L 364.214408 67.67504 
L 364.718155 66.337606 
L 365.725648 65.668889 
L 366.229394 68.092988 
L 366.733141 67.173502 
L 367.236887 66.003248 
L 367.740634 66.588375 
L 368.24438 65.250941 
L 368.748127 65.668889 
L 369.251873 67.006323 
L 369.75562 66.671965 
L 370.259366 66.922733 
L 370.763113 65.919658 
L 371.266859 66.588375 
L 371.770606 66.755554 
L 372.274352 66.671965 
L 372.778099 65.000172 
L 373.281845 65.919658 
L 373.785592 65.50171 
L 374.289338 66.839144 
L 374.793085 65.41812 
L 375.296831 66.588375 
L 375.800578 64.498635 
L 376.304324 65.41812 
L 376.808071 67.006323 
L 377.311817 66.504785 
L 377.815564 65.5853 
L 378.31931 65.668889 
L 378.823057 66.839144 
L 379.326803 67.59145 
L 379.83055 64.665814 
L 380.334296 64.916583 
L 381.845536 67.59145 
L 382.349282 67.257092 
L 382.853029 65.919658 
L 383.356775 66.671965 
L 383.860522 68.427347 
L 384.364268 65.836068 
L 384.868015 66.504785 
L 385.371761 66.922733 
L 385.875508 65.334531 
L 386.883001 66.086837 
L 387.386747 65.668889 
L 387.890494 66.170427 
L 388.39424 67.925809 
L 388.897987 66.337606 
L 389.401733 66.504785 
L 389.90548 64.582224 
L 390.409226 65.668889 
L 391.416719 66.254016 
L 391.920466 66.337606 
L 392.424212 65.334531 
L 392.927959 67.424271 
L 393.431705 65.000172 
L 393.935452 63.997097 
L 394.439198 65.668889 
L 394.942945 64.832993 
L 395.446691 66.504785 
L 395.950438 67.424271 
L 396.957931 65.250941 
L 397.461677 66.337606 
L 397.965424 64.749403 
L 398.46917 65.5853 
L 398.972917 67.089913 
L 399.98041 64.415045 
L 400.484156 64.832993 
L 400.987903 64.164276 
L 401.491649 67.424271 
L 401.995396 65.752479 
L 402.499142 66.588375 
L 403.002889 64.582224 
L 403.506635 65.5853 
L 404.010382 66.254016 
L 404.514128 65.41812 
L 405.017875 66.421196 
L 405.521621 64.582224 
L 406.529114 66.170427 
L 407.032861 65.752479 
L 407.536607 66.170427 
L 408.040354 65.334531 
L 408.5441 66.504785 
L 409.551593 63.746328 
L 410.05534 65.334531 
L 410.559086 66.337606 
L 411.062833 66.421196 
L 411.566579 65.668889 
L 412.070326 65.5853 
L 412.574072 64.415045 
L 413.077819 64.832993 
L 414.085312 66.839144 
L 414.589058 64.415045 
L 415.092805 66.588375 
L 415.596551 64.164276 
L 416.100298 65.836068 
L 416.604044 66.421196 
L 417.107791 65.668889 
L 417.611537 66.922733 
L 418.115284 65.836068 
L 418.61903 66.170427 
L 419.122777 64.498635 
L 419.626523 66.170427 
L 420.13027 64.832993 
L 420.634016 65.250941 
L 421.137763 64.331455 
L 421.641509 66.755554 
L 422.145256 65.919658 
L 422.649002 65.752479 
L 423.152749 65.752479 
L 423.656495 64.582224 
L 424.160242 66.337606 
L 424.663988 64.749403 
L 425.167735 65.250941 
L 425.671481 64.749403 
L 426.175228 66.086837 
L 426.678974 65.250941 
L 427.182721 65.668889 
L 427.686467 64.080686 
L 428.190214 64.164276 
L 428.69396 63.997097 
L 429.701453 64.582224 
L 430.2052 63.495559 
L 430.708946 65.167351 
L 431.212693 64.832993 
L 431.716439 64.832993 
L 432.220186 64.080686 
L 432.723932 64.415045 
L 433.227679 66.755554 
L 434.235172 63.411969 
L 434.738918 64.916583 
L 435.242665 65.752479 
L 435.746411 64.415045 
L 436.250158 65.334531 
L 436.753904 65.250941 
L 437.257651 64.080686 
L 437.761397 65.41812 
L 438.265144 65.919658 
L 438.76889 64.582224 
L 439.272637 65.5853 
L 439.776383 64.498635 
L 440.28013 64.498635 
L 440.783877 65.250941 
L 441.79137 65.50171 
L 442.295116 65.167351 
L 442.798863 64.498635 
L 443.302609 64.164276 
L 443.806356 65.50171 
L 444.310102 64.331455 
L 444.813849 65.919658 
L 445.317595 65.167351 
L 445.821342 65.752479 
L 446.325088 64.582224 
L 446.828835 65.334531 
L 447.332581 64.331455 
L 447.836328 63.077611 
L 448.340074 65.5853 
L 448.843821 64.665814 
L 449.851314 64.247866 
L 450.858807 65.167351 
L 451.8663 63.913507 
L 452.370046 63.829918 
L 452.873793 64.749403 
L 453.377539 65.000172 
L 453.881286 63.997097 
L 454.385032 64.080686 
L 454.888779 64.749403 
L 455.392525 63.662738 
L 455.896272 62.910432 
L 456.400018 64.498635 
L 456.903765 64.582224 
L 457.407511 65.919658 
L 457.911258 64.582224 
L 458.415004 65.41812 
L 458.918751 65.000172 
L 459.422497 64.080686 
L 459.926244 64.665814 
L 460.42999 64.832993 
L 460.933737 64.582224 
L 461.437483 63.997097 
L 461.94123 64.582224 
L 462.444976 64.331455 
L 462.948723 63.662738 
L 463.452469 63.24479 
L 463.956216 64.415045 
L 464.963709 65.167351 
L 465.467455 63.662738 
L 465.971202 64.498635 
L 466.474948 63.913507 
L 466.978695 63.913507 
L 467.482441 64.832993 
L 467.986188 66.170427 
L 468.489934 65.083762 
L 468.993681 63.662738 
L 469.497427 65.334531 
L 470.001174 63.662738 
L 470.50492 63.411969 
L 471.008667 65.000172 
L 471.512413 63.24479 
L 472.01616 64.331455 
L 472.519906 64.832993 
L 473.023653 65.50171 
L 473.527399 64.665814 
L 474.031146 64.415045 
L 474.534892 66.504785 
L 475.038639 64.247866 
L 475.542385 63.997097 
L 476.046132 64.582224 
L 476.549878 63.32838 
L 477.053625 65.334531 
L 477.557371 64.415045 
L 478.061118 64.080686 
L 478.564864 62.994021 
L 479.068611 64.916583 
L 479.572357 63.997097 
L 480.076104 64.331455 
L 480.57985 63.662738 
L 481.083597 64.080686 
L 481.587343 64.331455 
L 482.09109 63.411969 
L 482.594836 63.32838 
L 483.098583 65.083762 
L 484.106076 63.077611 
L 484.609822 65.752479 
L 485.617315 62.910432 
L 486.624808 64.832993 
L 487.632301 64.247866 
L 488.136048 63.662738 
L 488.639794 64.247866 
L 489.143541 64.582224 
L 489.647287 64.498635 
L 490.151034 63.829918 
L 490.65478 65.083762 
L 491.158527 65.41812 
L 491.662273 64.498635 
L 492.16602 65.50171 
L 492.669766 63.411969 
L 493.173513 63.746328 
L 493.677259 65.167351 
L 494.684752 63.32838 
L 495.188499 64.415045 
L 495.692245 63.161201 
L 496.195992 64.498635 
L 496.699738 62.743253 
L 497.203485 64.415045 
L 497.707231 63.411969 
L 498.210978 65.167351 
L 498.714724 64.832993 
L 499.218471 64.080686 
L 499.722217 63.829918 
L 500.225964 63.829918 
L 500.72971 64.164276 
L 501.233457 64.080686 
L 501.737203 64.749403 
L 502.24095 63.997097 
L 502.744696 65.167351 
L 503.248443 63.997097 
L 503.752189 65.000172 
L 504.255936 64.080686 
L 504.759682 64.582224 
L 505.263429 64.916583 
L 505.767175 64.415045 
L 506.270922 64.916583 
L 506.774668 65.083762 
L 507.278415 64.832993 
L 507.782161 64.832993 
L 508.285908 62.743253 
L 508.789654 65.000172 
L 509.293401 62.743253 
L 509.797147 65.668889 
L 510.300894 63.32838 
L 510.80464 65.083762 
L 511.308387 63.32838 
L 511.812133 64.665814 
L 512.31588 64.164276 
L 512.819626 63.997097 
L 513.323373 64.331455 
L 513.827119 64.415045 
L 514.330866 62.659663 
L 514.834612 65.836068 
L 515.338359 64.832993 
L 516.345852 64.582224 
L 516.849598 63.495559 
L 517.353345 64.080686 
L 517.857091 64.080686 
L 518.360838 65.000172 
L 518.864584 64.164276 
L 519.368331 63.662738 
L 519.872077 65.41812 
L 520.375824 63.997097 
L 520.87957 64.749403 
L 521.383317 63.32838 
L 521.887063 63.161201 
L 522.39081 62.743253 
L 522.894556 65.41812 
L 523.398303 65.5853 
L 523.902049 63.077611 
L 524.405796 62.408894 
L 524.909542 63.495559 
L 525.413289 65.000172 
L 525.917035 63.24479 
L 526.420782 63.662738 
L 526.924528 64.582224 
L 527.428275 63.161201 
L 527.932021 63.495559 
L 528.435768 62.994021 
L 528.939514 62.743253 
L 529.443261 64.665814 
L 529.947007 63.411969 
L 530.9545 63.746328 
L 531.458247 64.498635 
L 531.961993 64.665814 
L 532.46574 62.910432 
L 532.969486 63.913507 
L 533.473233 63.913507 
L 533.976979 63.161201 
L 534.480726 63.077611 
L 534.984472 63.579149 
L 535.488219 63.579149 
L 535.991965 64.331455 
L 536.495712 64.331455 
L 536.999458 63.579149 
L 537.503205 63.579149 
L 538.006951 63.161201 
L 538.510698 64.247866 
L 539.014444 63.913507 
L 539.518191 64.331455 
L 540.021937 65.000172 
L 540.525684 63.161201 
L 541.02943 64.415045 
L 541.533177 63.913507 
L 542.036923 64.415045 
L 542.54067 63.32838 
L 543.044416 65.167351 
L 544.051909 64.247866 
L 544.555656 62.325304 
L 545.059402 62.826842 
L 545.563149 62.576073 
L 546.066895 65.919658 
L 546.570642 63.662738 
L 547.074388 63.077611 
L 547.578135 63.746328 
L 548.081881 62.994021 
L 548.585628 63.32838 
L 549.089374 64.665814 
L 549.593121 63.913507 
L 550.096867 64.665814 
L 550.600614 63.579149 
L 551.10436 63.746328 
L 551.608107 63.579149 
L 552.6156 64.749403 
L 553.119346 64.582224 
L 553.623093 62.826842 
L 554.126839 64.665814 
L 554.630586 63.161201 
L 555.134332 63.077611 
L 555.638079 63.829918 
L 556.141825 62.743253 
L 556.645572 62.826842 
L 557.149318 64.498635 
L 557.653065 63.077611 
L 558.156811 65.167351 
L 558.660558 64.749403 
L 559.164304 65.000172 
L 559.668051 63.077611 
L 560.171797 64.247866 
L 560.675544 62.743253 
L 561.17929 64.498635 
L 561.683037 64.247866 
L 562.186783 64.331455 
L 562.69053 65.083762 
L 563.194276 62.408894 
L 563.698023 64.331455 
L 564.201769 63.579149 
L 564.705516 63.662738 
L 565.209262 63.913507 
L 565.713009 64.331455 
L 566.216755 62.743253 
L 566.720502 64.080686 
L 567.224248 63.495559 
L 567.727995 64.582224 
L 568.231741 64.080686 
L 568.735488 62.743253 
L 569.239234 64.080686 
L 569.742981 64.916583 
L 570.246727 64.331455 
L 570.750474 64.749403 
L 571.25422 63.161201 
L 571.757967 64.080686 
L 572.76546 62.659663 
L 573.269206 64.916583 
L 573.772953 64.164276 
L 574.276699 62.659663 
L 574.780446 63.997097 
L 575.284192 63.495559 
L 575.787939 63.579149 
L 576.291685 64.247866 
L 576.795432 63.746328 
L 577.299178 63.746328 
L 577.802925 63.997097 
L 578.306671 63.495559 
L 579.314164 62.994021 
L 579.817911 64.164276 
L 580.321657 64.247866 
L 580.825404 62.325304 
L 581.32915 64.498635 
L 581.832897 63.997097 
L 582.336643 64.582224 
L 582.84039 63.829918 
L 583.344136 63.579149 
L 583.847883 63.913507 
L 584.35163 64.832993 
L 584.855376 63.077611 
L 585.359123 62.826842 
L 585.862869 62.994021 
L 586.366616 63.829918 
L 587.374109 62.826842 
L 587.877855 63.32838 
L 588.885348 63.32838 
L 589.389095 64.415045 
L 589.892841 63.579149 
L 590.396588 64.832993 
L 590.900334 65.083762 
L 591.404081 63.32838 
L 591.907827 63.997097 
L 593.419067 62.659663 
L 593.922813 63.913507 
L 594.42656 63.746328 
L 594.930306 63.997097 
L 595.434053 66.086837 
L 595.937799 63.746328 
L 596.441546 62.826842 
L 596.945292 63.077611 
L 597.449039 65.000172 
L 597.952785 62.994021 
L 598.960278 63.161201 
L 599.464025 63.662738 
L 599.967771 63.997097 
L 600.471518 63.579149 
L 600.975264 62.492484 
L 601.479011 64.665814 
L 601.982757 64.164276 
L 602.486504 62.994021 
L 602.99025 63.746328 
L 603.493997 63.913507 
L 603.997743 64.665814 
L 604.50149 63.829918 
L 605.005236 62.408894 
L 605.508983 64.331455 
L 606.012729 62.743253 
L 606.516476 63.495559 
L 607.020222 63.077611 
L 607.523969 63.495559 
L 608.027715 64.331455 
L 608.531462 62.910432 
L 609.035208 63.24479 
L 609.538955 65.083762 
L 610.042701 65.000172 
L 610.546448 63.662738 
L 611.050194 65.167351 
L 611.553941 62.994021 
L 612.057687 63.746328 
L 612.561434 64.080686 
L 613.06518 62.241715 
L 613.568927 63.746328 
L 614.072673 64.331455 
L 614.57642 62.910432 
L 615.080166 62.325304 
L 615.583913 62.826842 
L 616.087659 62.826842 
L 616.591406 63.24479 
L 617.095152 63.077611 
L 617.598899 64.080686 
L 618.102645 64.247866 
L 618.606392 63.913507 
L 619.110138 62.910432 
L 619.613885 64.164276 
L 620.117631 62.826842 
L 621.125124 62.743253 
L 621.628871 64.665814 
L 622.132617 65.083762 
L 622.636364 62.994021 
L 622.636364 62.994021 
" style="fill:none;stroke:#ff7f0e;stroke-linecap:square;stroke-width:0.5;"/>
   </g>
   <g id="patch_3">
    <path d="M 90 315 
L 90 43.2 
" style="fill:none;stroke:#000000;stroke-linecap:square;stroke-linejoin:miter;stroke-width:0.8;"/>
   </g>
   <g id="patch_4">
    <path d="M 648 315 
L 648 43.2 
" style="fill:none;stroke:#000000;stroke-linecap:square;stroke-linejoin:miter;stroke-width:0.8;"/>
   </g>
   <g id="patch_5">
    <path d="M 90 315 
L 648 315 
" style="fill:none;stroke:#000000;stroke-linecap:square;stroke-linejoin:miter;stroke-width:0.8;"/>
   </g>
   <g id="patch_6">
    <path d="M 90 43.2 
L 648 43.2 
" style="fill:none;stroke:#000000;stroke-linecap:square;stroke-linejoin:miter;stroke-width:0.8;"/>
   </g>
   <g id="text_17">
    <!-- accuracy -->
    <g transform="translate(341.92875 37.2)scale(0.12 -0.12)">
     <use xlink:href="#DejaVuSans-97"/>
     <use x="61.279297" xlink:href="#DejaVuSans-99"/>
     <use x="116.259766" xlink:href="#DejaVuSans-99"/>
     <use x="171.240234" xlink:href="#DejaVuSans-117"/>
     <use x="234.619141" xlink:href="#DejaVuSans-114"/>
     <use x="275.732422" xlink:href="#DejaVuSans-97"/>
     <use x="337.011719" xlink:href="#DejaVuSans-99"/>
     <use x="391.992188" xlink:href="#DejaVuSans-121"/>
    </g>
   </g>
   <g id="legend_1">
    <g id="patch_7">
     <path d="M 97 80.55625 
L 169.153125 80.55625 
Q 171.153125 80.55625 171.153125 78.55625 
L 171.153125 50.2 
Q 171.153125 48.2 169.153125 48.2 
L 97 48.2 
Q 95 48.2 95 50.2 
L 95 78.55625 
Q 95 80.55625 97 80.55625 
z
" style="fill:#ffffff;opacity:0.8;stroke:#cccccc;stroke-linejoin:miter;"/>
    </g>
    <g id="line2d_31">
     <path d="M 99 56.298437 
L 119 56.298437 
" style="fill:none;stroke:#1f77b4;stroke-linecap:square;stroke-width:0.5;"/>
    </g>
    <g id="line2d_32"/>
    <g id="text_18">
     <!-- train -->
     <defs>
      <path d="M 18.3125 70.21875 
L 18.3125 54.6875 
L 36.8125 54.6875 
L 36.8125 47.703125 
L 18.3125 47.703125 
L 18.3125 18.015625 
Q 18.3125 11.328125 20.140625 9.421875 
Q 21.96875 7.515625 27.59375 7.515625 
L 36.8125 7.515625 
L 36.8125 0 
L 27.59375 0 
Q 17.1875 0 13.234375 3.875 
Q 9.28125 7.765625 9.28125 18.015625 
L 9.28125 47.703125 
L 2.6875 47.703125 
L 2.6875 54.6875 
L 9.28125 54.6875 
L 9.28125 70.21875 
z
" id="DejaVuSans-116"/>
      <path d="M 9.421875 54.6875 
L 18.40625 54.6875 
L 18.40625 0 
L 9.421875 0 
z
M 9.421875 75.984375 
L 18.40625 75.984375 
L 18.40625 64.59375 
L 9.421875 64.59375 
z
" id="DejaVuSans-105"/>
      <path d="M 54.890625 33.015625 
L 54.890625 0 
L 45.90625 0 
L 45.90625 32.71875 
Q 45.90625 40.484375 42.875 44.328125 
Q 39.84375 48.1875 33.796875 48.1875 
Q 26.515625 48.1875 22.3125 43.546875 
Q 18.109375 38.921875 18.109375 30.90625 
L 18.109375 0 
L 9.078125 0 
L 9.078125 54.6875 
L 18.109375 54.6875 
L 18.109375 46.1875 
Q 21.34375 51.125 25.703125 53.5625 
Q 30.078125 56 35.796875 56 
Q 45.21875 56 50.046875 50.171875 
Q 54.890625 44.34375 54.890625 33.015625 
z
" id="DejaVuSans-110"/>
     </defs>
     <g transform="translate(127 59.798437)scale(0.1 -0.1)">
      <use xlink:href="#DejaVuSans-116"/>
      <use x="39.208984" xlink:href="#DejaVuSans-114"/>
      <use x="80.322266" xlink:href="#DejaVuSans-97"/>
      <use x="141.601562" xlink:href="#DejaVuSans-105"/>
      <use x="169.384766" xlink:href="#DejaVuSans-110"/>
     </g>
    </g>
    <g id="line2d_33">
     <path d="M 99 70.976562 
L 119 70.976562 
" style="fill:none;stroke:#ff7f0e;stroke-linecap:square;stroke-width:0.5;"/>
    </g>
    <g id="line2d_34"/>
    <g id="text_19">
     <!-- validate -->
     <defs>
      <path d="M 2.984375 54.6875 
L 12.5 54.6875 
L 29.59375 8.796875 
L 46.6875 54.6875 
L 56.203125 54.6875 
L 35.6875 0 
L 23.484375 0 
z
" id="DejaVuSans-118"/>
      <path d="M 9.421875 75.984375 
L 18.40625 75.984375 
L 18.40625 0 
L 9.421875 0 
z
" id="DejaVuSans-108"/>
      <path d="M 45.40625 46.390625 
L 45.40625 75.984375 
L 54.390625 75.984375 
L 54.390625 0 
L 45.40625 0 
L 45.40625 8.203125 
Q 42.578125 3.328125 38.25 0.953125 
Q 33.9375 -1.421875 27.875 -1.421875 
Q 17.96875 -1.421875 11.734375 6.484375 
Q 5.515625 14.40625 5.515625 27.296875 
Q 5.515625 40.1875 11.734375 48.09375 
Q 17.96875 56 27.875 56 
Q 33.9375 56 38.25 53.625 
Q 42.578125 51.265625 45.40625 46.390625 
z
M 14.796875 27.296875 
Q 14.796875 17.390625 18.875 11.75 
Q 22.953125 6.109375 30.078125 6.109375 
Q 37.203125 6.109375 41.296875 11.75 
Q 45.40625 17.390625 45.40625 27.296875 
Q 45.40625 37.203125 41.296875 42.84375 
Q 37.203125 48.484375 30.078125 48.484375 
Q 22.953125 48.484375 18.875 42.84375 
Q 14.796875 37.203125 14.796875 27.296875 
z
" id="DejaVuSans-100"/>
     </defs>
     <g transform="translate(127 74.476562)scale(0.1 -0.1)">
      <use xlink:href="#DejaVuSans-118"/>
      <use x="59.179688" xlink:href="#DejaVuSans-97"/>
      <use x="120.458984" xlink:href="#DejaVuSans-108"/>
      <use x="148.242188" xlink:href="#DejaVuSans-105"/>
      <use x="176.025391" xlink:href="#DejaVuSans-100"/>
      <use x="239.501953" xlink:href="#DejaVuSans-97"/>
      <use x="300.78125" xlink:href="#DejaVuSans-116"/>
      <use x="339.990234" xlink:href="#DejaVuSans-101"/>
     </g>
    </g>
   </g>
  </g>
 </g>
 <defs>
  <clipPath id="pc691c5a6b6">
   <rect height="271.8" width="558" x="90" y="43.2"/>
  </clipPath>
 </defs>
</svg>
