<?xml version="1.0" encoding="utf-8" standalone="no"?>
<!DOCTYPE svg PUBLIC "-//W3C//DTD SVG 1.1//EN"
  "http://www.w3.org/Graphics/SVG/1.1/DTD/svg11.dtd">
<!-- Created with matplotlib (https://matplotlib.org/) -->
<svg height="360pt" version="1.1" viewBox="0 0 720 360" width="720pt" xmlns="http://www.w3.org/2000/svg" xmlns:xlink="http://www.w3.org/1999/xlink">
 <defs>
  <style type="text/css">
*{stroke-linecap:butt;stroke-linejoin:round;}
  </style>
 </defs>
 <g id="figure_1">
  <g id="patch_1">
   <path d="M 0 360 
L 720 360 
L 720 0 
L 0 0 
z
" style="fill:#ffffff;"/>
  </g>
  <g id="axes_1">
   <g id="patch_2">
    <path d="M 90 315 
L 648 315 
L 648 43.2 
L 90 43.2 
z
" style="fill:#ffffff;"/>
   </g>
   <g id="matplotlib.axis_1">
    <g id="xtick_1">
     <g id="line2d_1">
      <path clip-path="url(#p50d0061589)" d="M 115.363636 315 
L 115.363636 43.2 
" style="fill:none;stroke:#b0b0b0;stroke-linecap:square;stroke-width:0.8;"/>
     </g>
     <g id="line2d_2">
      <defs>
       <path d="M 0 0 
L 0 3.5 
" id="m934b90def7" style="stroke:#000000;stroke-width:0.8;"/>
      </defs>
      <g>
       <use style="stroke:#000000;stroke-width:0.8;" x="115.363636" xlink:href="#m934b90def7" y="315"/>
      </g>
     </g>
     <g id="text_1">
      <!-- 0 -->
      <defs>
       <path d="M 31.78125 66.40625 
Q 24.171875 66.40625 20.328125 58.90625 
Q 16.5 51.421875 16.5 36.375 
Q 16.5 21.390625 20.328125 13.890625 
Q 24.171875 6.390625 31.78125 6.390625 
Q 39.453125 6.390625 43.28125 13.890625 
Q 47.125 21.390625 47.125 36.375 
Q 47.125 51.421875 43.28125 58.90625 
Q 39.453125 66.40625 31.78125 66.40625 
z
M 31.78125 74.21875 
Q 44.046875 74.21875 50.515625 64.515625 
Q 56.984375 54.828125 56.984375 36.375 
Q 56.984375 17.96875 50.515625 8.265625 
Q 44.046875 -1.421875 31.78125 -1.421875 
Q 19.53125 -1.421875 13.0625 8.265625 
Q 6.59375 17.96875 6.59375 36.375 
Q 6.59375 54.828125 13.0625 64.515625 
Q 19.53125 74.21875 31.78125 74.21875 
z
" id="DejaVuSans-48"/>
      </defs>
      <g transform="translate(112.182386 329.598437)scale(0.1 -0.1)">
       <use xlink:href="#DejaVuSans-48"/>
      </g>
     </g>
    </g>
    <g id="xtick_2">
     <g id="line2d_3">
      <path clip-path="url(#p50d0061589)" d="M 214.53719 315 
L 214.53719 43.2 
" style="fill:none;stroke:#b0b0b0;stroke-linecap:square;stroke-width:0.8;"/>
     </g>
     <g id="line2d_4">
      <g>
       <use style="stroke:#000000;stroke-width:0.8;" x="214.53719" xlink:href="#m934b90def7" y="315"/>
      </g>
     </g>
     <g id="text_2">
      <!-- 200 -->
      <defs>
       <path d="M 19.1875 8.296875 
L 53.609375 8.296875 
L 53.609375 0 
L 7.328125 0 
L 7.328125 8.296875 
Q 12.9375 14.109375 22.625 23.890625 
Q 32.328125 33.6875 34.8125 36.53125 
Q 39.546875 41.84375 41.421875 45.53125 
Q 43.3125 49.21875 43.3125 52.78125 
Q 43.3125 58.59375 39.234375 62.25 
Q 35.15625 65.921875 28.609375 65.921875 
Q 23.96875 65.921875 18.8125 64.3125 
Q 13.671875 62.703125 7.8125 59.421875 
L 7.8125 69.390625 
Q 13.765625 71.78125 18.9375 73 
Q 24.125 74.21875 28.421875 74.21875 
Q 39.75 74.21875 46.484375 68.546875 
Q 53.21875 62.890625 53.21875 53.421875 
Q 53.21875 48.921875 51.53125 44.890625 
Q 49.859375 40.875 45.40625 35.40625 
Q 44.1875 33.984375 37.640625 27.21875 
Q 31.109375 20.453125 19.1875 8.296875 
z
" id="DejaVuSans-50"/>
      </defs>
      <g transform="translate(204.99344 329.598437)scale(0.1 -0.1)">
       <use xlink:href="#DejaVuSans-50"/>
       <use x="63.623047" xlink:href="#DejaVuSans-48"/>
       <use x="127.246094" xlink:href="#DejaVuSans-48"/>
      </g>
     </g>
    </g>
    <g id="xtick_3">
     <g id="line2d_5">
      <path clip-path="url(#p50d0061589)" d="M 313.710744 315 
L 313.710744 43.2 
" style="fill:none;stroke:#b0b0b0;stroke-linecap:square;stroke-width:0.8;"/>
     </g>
     <g id="line2d_6">
      <g>
       <use style="stroke:#000000;stroke-width:0.8;" x="313.710744" xlink:href="#m934b90def7" y="315"/>
      </g>
     </g>
     <g id="text_3">
      <!-- 400 -->
      <defs>
       <path d="M 37.796875 64.3125 
L 12.890625 25.390625 
L 37.796875 25.390625 
z
M 35.203125 72.90625 
L 47.609375 72.90625 
L 47.609375 25.390625 
L 58.015625 25.390625 
L 58.015625 17.1875 
L 47.609375 17.1875 
L 47.609375 0 
L 37.796875 0 
L 37.796875 17.1875 
L 4.890625 17.1875 
L 4.890625 26.703125 
z
" id="DejaVuSans-52"/>
      </defs>
      <g transform="translate(304.166994 329.598437)scale(0.1 -0.1)">
       <use xlink:href="#DejaVuSans-52"/>
       <use x="63.623047" xlink:href="#DejaVuSans-48"/>
       <use x="127.246094" xlink:href="#DejaVuSans-48"/>
      </g>
     </g>
    </g>
    <g id="xtick_4">
     <g id="line2d_7">
      <path clip-path="url(#p50d0061589)" d="M 412.884298 315 
L 412.884298 43.2 
" style="fill:none;stroke:#b0b0b0;stroke-linecap:square;stroke-width:0.8;"/>
     </g>
     <g id="line2d_8">
      <g>
       <use style="stroke:#000000;stroke-width:0.8;" x="412.884298" xlink:href="#m934b90def7" y="315"/>
      </g>
     </g>
     <g id="text_4">
      <!-- 600 -->
      <defs>
       <path d="M 33.015625 40.375 
Q 26.375 40.375 22.484375 35.828125 
Q 18.609375 31.296875 18.609375 23.390625 
Q 18.609375 15.53125 22.484375 10.953125 
Q 26.375 6.390625 33.015625 6.390625 
Q 39.65625 6.390625 43.53125 10.953125 
Q 47.40625 15.53125 47.40625 23.390625 
Q 47.40625 31.296875 43.53125 35.828125 
Q 39.65625 40.375 33.015625 40.375 
z
M 52.59375 71.296875 
L 52.59375 62.3125 
Q 48.875 64.0625 45.09375 64.984375 
Q 41.3125 65.921875 37.59375 65.921875 
Q 27.828125 65.921875 22.671875 59.328125 
Q 17.53125 52.734375 16.796875 39.40625 
Q 19.671875 43.65625 24.015625 45.921875 
Q 28.375 48.1875 33.59375 48.1875 
Q 44.578125 48.1875 50.953125 41.515625 
Q 57.328125 34.859375 57.328125 23.390625 
Q 57.328125 12.15625 50.6875 5.359375 
Q 44.046875 -1.421875 33.015625 -1.421875 
Q 20.359375 -1.421875 13.671875 8.265625 
Q 6.984375 17.96875 6.984375 36.375 
Q 6.984375 53.65625 15.1875 63.9375 
Q 23.390625 74.21875 37.203125 74.21875 
Q 40.921875 74.21875 44.703125 73.484375 
Q 48.484375 72.75 52.59375 71.296875 
z
" id="DejaVuSans-54"/>
      </defs>
      <g transform="translate(403.340548 329.598437)scale(0.1 -0.1)">
       <use xlink:href="#DejaVuSans-54"/>
       <use x="63.623047" xlink:href="#DejaVuSans-48"/>
       <use x="127.246094" xlink:href="#DejaVuSans-48"/>
      </g>
     </g>
    </g>
    <g id="xtick_5">
     <g id="line2d_9">
      <path clip-path="url(#p50d0061589)" d="M 512.057851 315 
L 512.057851 43.2 
" style="fill:none;stroke:#b0b0b0;stroke-linecap:square;stroke-width:0.8;"/>
     </g>
     <g id="line2d_10">
      <g>
       <use style="stroke:#000000;stroke-width:0.8;" x="512.057851" xlink:href="#m934b90def7" y="315"/>
      </g>
     </g>
     <g id="text_5">
      <!-- 800 -->
      <defs>
       <path d="M 31.78125 34.625 
Q 24.75 34.625 20.71875 30.859375 
Q 16.703125 27.09375 16.703125 20.515625 
Q 16.703125 13.921875 20.71875 10.15625 
Q 24.75 6.390625 31.78125 6.390625 
Q 38.8125 6.390625 42.859375 10.171875 
Q 46.921875 13.96875 46.921875 20.515625 
Q 46.921875 27.09375 42.890625 30.859375 
Q 38.875 34.625 31.78125 34.625 
z
M 21.921875 38.8125 
Q 15.578125 40.375 12.03125 44.71875 
Q 8.5 49.078125 8.5 55.328125 
Q 8.5 64.0625 14.71875 69.140625 
Q 20.953125 74.21875 31.78125 74.21875 
Q 42.671875 74.21875 48.875 69.140625 
Q 55.078125 64.0625 55.078125 55.328125 
Q 55.078125 49.078125 51.53125 44.71875 
Q 48 40.375 41.703125 38.8125 
Q 48.828125 37.15625 52.796875 32.3125 
Q 56.78125 27.484375 56.78125 20.515625 
Q 56.78125 9.90625 50.3125 4.234375 
Q 43.84375 -1.421875 31.78125 -1.421875 
Q 19.734375 -1.421875 13.25 4.234375 
Q 6.78125 9.90625 6.78125 20.515625 
Q 6.78125 27.484375 10.78125 32.3125 
Q 14.796875 37.15625 21.921875 38.8125 
z
M 18.3125 54.390625 
Q 18.3125 48.734375 21.84375 45.5625 
Q 25.390625 42.390625 31.78125 42.390625 
Q 38.140625 42.390625 41.71875 45.5625 
Q 45.3125 48.734375 45.3125 54.390625 
Q 45.3125 60.0625 41.71875 63.234375 
Q 38.140625 66.40625 31.78125 66.40625 
Q 25.390625 66.40625 21.84375 63.234375 
Q 18.3125 60.0625 18.3125 54.390625 
z
" id="DejaVuSans-56"/>
      </defs>
      <g transform="translate(502.514101 329.598437)scale(0.1 -0.1)">
       <use xlink:href="#DejaVuSans-56"/>
       <use x="63.623047" xlink:href="#DejaVuSans-48"/>
       <use x="127.246094" xlink:href="#DejaVuSans-48"/>
      </g>
     </g>
    </g>
    <g id="xtick_6">
     <g id="line2d_11">
      <path clip-path="url(#p50d0061589)" d="M 611.231405 315 
L 611.231405 43.2 
" style="fill:none;stroke:#b0b0b0;stroke-linecap:square;stroke-width:0.8;"/>
     </g>
     <g id="line2d_12">
      <g>
       <use style="stroke:#000000;stroke-width:0.8;" x="611.231405" xlink:href="#m934b90def7" y="315"/>
      </g>
     </g>
     <g id="text_6">
      <!-- 1000 -->
      <defs>
       <path d="M 12.40625 8.296875 
L 28.515625 8.296875 
L 28.515625 63.921875 
L 10.984375 60.40625 
L 10.984375 69.390625 
L 28.421875 72.90625 
L 38.28125 72.90625 
L 38.28125 8.296875 
L 54.390625 8.296875 
L 54.390625 0 
L 12.40625 0 
z
" id="DejaVuSans-49"/>
      </defs>
      <g transform="translate(598.506405 329.598437)scale(0.1 -0.1)">
       <use xlink:href="#DejaVuSans-49"/>
       <use x="63.623047" xlink:href="#DejaVuSans-48"/>
       <use x="127.246094" xlink:href="#DejaVuSans-48"/>
       <use x="190.869141" xlink:href="#DejaVuSans-48"/>
      </g>
     </g>
    </g>
    <g id="text_7">
     <!-- epoch -->
     <defs>
      <path d="M 56.203125 29.59375 
L 56.203125 25.203125 
L 14.890625 25.203125 
Q 15.484375 15.921875 20.484375 11.0625 
Q 25.484375 6.203125 34.421875 6.203125 
Q 39.59375 6.203125 44.453125 7.46875 
Q 49.3125 8.734375 54.109375 11.28125 
L 54.109375 2.78125 
Q 49.265625 0.734375 44.1875 -0.34375 
Q 39.109375 -1.421875 33.890625 -1.421875 
Q 20.796875 -1.421875 13.15625 6.1875 
Q 5.515625 13.8125 5.515625 26.8125 
Q 5.515625 40.234375 12.765625 48.109375 
Q 20.015625 56 32.328125 56 
Q 43.359375 56 49.78125 48.890625 
Q 56.203125 41.796875 56.203125 29.59375 
z
M 47.21875 32.234375 
Q 47.125 39.59375 43.09375 43.984375 
Q 39.0625 48.390625 32.421875 48.390625 
Q 24.90625 48.390625 20.390625 44.140625 
Q 15.875 39.890625 15.1875 32.171875 
z
" id="DejaVuSans-101"/>
      <path d="M 18.109375 8.203125 
L 18.109375 -20.796875 
L 9.078125 -20.796875 
L 9.078125 54.6875 
L 18.109375 54.6875 
L 18.109375 46.390625 
Q 20.953125 51.265625 25.265625 53.625 
Q 29.59375 56 35.59375 56 
Q 45.5625 56 51.78125 48.09375 
Q 58.015625 40.1875 58.015625 27.296875 
Q 58.015625 14.40625 51.78125 6.484375 
Q 45.5625 -1.421875 35.59375 -1.421875 
Q 29.59375 -1.421875 25.265625 0.953125 
Q 20.953125 3.328125 18.109375 8.203125 
z
M 48.6875 27.296875 
Q 48.6875 37.203125 44.609375 42.84375 
Q 40.53125 48.484375 33.40625 48.484375 
Q 26.265625 48.484375 22.1875 42.84375 
Q 18.109375 37.203125 18.109375 27.296875 
Q 18.109375 17.390625 22.1875 11.75 
Q 26.265625 6.109375 33.40625 6.109375 
Q 40.53125 6.109375 44.609375 11.75 
Q 48.6875 17.390625 48.6875 27.296875 
z
" id="DejaVuSans-112"/>
      <path d="M 30.609375 48.390625 
Q 23.390625 48.390625 19.1875 42.75 
Q 14.984375 37.109375 14.984375 27.296875 
Q 14.984375 17.484375 19.15625 11.84375 
Q 23.34375 6.203125 30.609375 6.203125 
Q 37.796875 6.203125 41.984375 11.859375 
Q 46.1875 17.53125 46.1875 27.296875 
Q 46.1875 37.015625 41.984375 42.703125 
Q 37.796875 48.390625 30.609375 48.390625 
z
M 30.609375 56 
Q 42.328125 56 49.015625 48.375 
Q 55.71875 40.765625 55.71875 27.296875 
Q 55.71875 13.875 49.015625 6.21875 
Q 42.328125 -1.421875 30.609375 -1.421875 
Q 18.84375 -1.421875 12.171875 6.21875 
Q 5.515625 13.875 5.515625 27.296875 
Q 5.515625 40.765625 12.171875 48.375 
Q 18.84375 56 30.609375 56 
z
" id="DejaVuSans-111"/>
      <path d="M 48.78125 52.59375 
L 48.78125 44.1875 
Q 44.96875 46.296875 41.140625 47.34375 
Q 37.3125 48.390625 33.40625 48.390625 
Q 24.65625 48.390625 19.8125 42.84375 
Q 14.984375 37.3125 14.984375 27.296875 
Q 14.984375 17.28125 19.8125 11.734375 
Q 24.65625 6.203125 33.40625 6.203125 
Q 37.3125 6.203125 41.140625 7.25 
Q 44.96875 8.296875 48.78125 10.40625 
L 48.78125 2.09375 
Q 45.015625 0.34375 40.984375 -0.53125 
Q 36.96875 -1.421875 32.421875 -1.421875 
Q 20.0625 -1.421875 12.78125 6.34375 
Q 5.515625 14.109375 5.515625 27.296875 
Q 5.515625 40.671875 12.859375 48.328125 
Q 20.21875 56 33.015625 56 
Q 37.15625 56 41.109375 55.140625 
Q 45.0625 54.296875 48.78125 52.59375 
z
" id="DejaVuSans-99"/>
      <path d="M 54.890625 33.015625 
L 54.890625 0 
L 45.90625 0 
L 45.90625 32.71875 
Q 45.90625 40.484375 42.875 44.328125 
Q 39.84375 48.1875 33.796875 48.1875 
Q 26.515625 48.1875 22.3125 43.546875 
Q 18.109375 38.921875 18.109375 30.90625 
L 18.109375 0 
L 9.078125 0 
L 9.078125 75.984375 
L 18.109375 75.984375 
L 18.109375 46.1875 
Q 21.34375 51.125 25.703125 53.5625 
Q 30.078125 56 35.796875 56 
Q 45.21875 56 50.046875 50.171875 
Q 54.890625 44.34375 54.890625 33.015625 
z
" id="DejaVuSans-104"/>
     </defs>
     <g transform="translate(353.771875 343.276563)scale(0.1 -0.1)">
      <use xlink:href="#DejaVuSans-101"/>
      <use x="61.523438" xlink:href="#DejaVuSans-112"/>
      <use x="125" xlink:href="#DejaVuSans-111"/>
      <use x="186.181641" xlink:href="#DejaVuSans-99"/>
      <use x="241.162109" xlink:href="#DejaVuSans-104"/>
     </g>
    </g>
   </g>
   <g id="matplotlib.axis_2">
    <g id="ytick_1">
     <g id="line2d_13">
      <path clip-path="url(#p50d0061589)" d="M 90 288.648193 
L 648 288.648193 
" style="fill:none;stroke:#b0b0b0;stroke-linecap:square;stroke-width:0.8;"/>
     </g>
     <g id="line2d_14">
      <defs>
       <path d="M 0 0 
L -3.5 0 
" id="m2e8a3c3482" style="stroke:#000000;stroke-width:0.8;"/>
      </defs>
      <g>
       <use style="stroke:#000000;stroke-width:0.8;" x="90" xlink:href="#m2e8a3c3482" y="288.648193"/>
      </g>
     </g>
     <g id="text_8">
      <!-- 0.2 -->
      <defs>
       <path d="M 10.6875 12.40625 
L 21 12.40625 
L 21 0 
L 10.6875 0 
z
" id="DejaVuSans-46"/>
      </defs>
      <g transform="translate(67.096875 292.447412)scale(0.1 -0.1)">
       <use xlink:href="#DejaVuSans-48"/>
       <use x="63.623047" xlink:href="#DejaVuSans-46"/>
       <use x="95.410156" xlink:href="#DejaVuSans-50"/>
      </g>
     </g>
    </g>
    <g id="ytick_2">
     <g id="line2d_15">
      <path clip-path="url(#p50d0061589)" d="M 90 256.571508 
L 648 256.571508 
" style="fill:none;stroke:#b0b0b0;stroke-linecap:square;stroke-width:0.8;"/>
     </g>
     <g id="line2d_16">
      <g>
       <use style="stroke:#000000;stroke-width:0.8;" x="90" xlink:href="#m2e8a3c3482" y="256.571508"/>
      </g>
     </g>
     <g id="text_9">
      <!-- 0.4 -->
      <g transform="translate(67.096875 260.370727)scale(0.1 -0.1)">
       <use xlink:href="#DejaVuSans-48"/>
       <use x="63.623047" xlink:href="#DejaVuSans-46"/>
       <use x="95.410156" xlink:href="#DejaVuSans-52"/>
      </g>
     </g>
    </g>
    <g id="ytick_3">
     <g id="line2d_17">
      <path clip-path="url(#p50d0061589)" d="M 90 224.494824 
L 648 224.494824 
" style="fill:none;stroke:#b0b0b0;stroke-linecap:square;stroke-width:0.8;"/>
     </g>
     <g id="line2d_18">
      <g>
       <use style="stroke:#000000;stroke-width:0.8;" x="90" xlink:href="#m2e8a3c3482" y="224.494824"/>
      </g>
     </g>
     <g id="text_10">
      <!-- 0.6 -->
      <g transform="translate(67.096875 228.294043)scale(0.1 -0.1)">
       <use xlink:href="#DejaVuSans-48"/>
       <use x="63.623047" xlink:href="#DejaVuSans-46"/>
       <use x="95.410156" xlink:href="#DejaVuSans-54"/>
      </g>
     </g>
    </g>
    <g id="ytick_4">
     <g id="line2d_19">
      <path clip-path="url(#p50d0061589)" d="M 90 192.41814 
L 648 192.41814 
" style="fill:none;stroke:#b0b0b0;stroke-linecap:square;stroke-width:0.8;"/>
     </g>
     <g id="line2d_20">
      <g>
       <use style="stroke:#000000;stroke-width:0.8;" x="90" xlink:href="#m2e8a3c3482" y="192.41814"/>
      </g>
     </g>
     <g id="text_11">
      <!-- 0.8 -->
      <g transform="translate(67.096875 196.217358)scale(0.1 -0.1)">
       <use xlink:href="#DejaVuSans-48"/>
       <use x="63.623047" xlink:href="#DejaVuSans-46"/>
       <use x="95.410156" xlink:href="#DejaVuSans-56"/>
      </g>
     </g>
    </g>
    <g id="ytick_5">
     <g id="line2d_21">
      <path clip-path="url(#p50d0061589)" d="M 90 160.341455 
L 648 160.341455 
" style="fill:none;stroke:#b0b0b0;stroke-linecap:square;stroke-width:0.8;"/>
     </g>
     <g id="line2d_22">
      <g>
       <use style="stroke:#000000;stroke-width:0.8;" x="90" xlink:href="#m2e8a3c3482" y="160.341455"/>
      </g>
     </g>
     <g id="text_12">
      <!-- 1.0 -->
      <g transform="translate(67.096875 164.140674)scale(0.1 -0.1)">
       <use xlink:href="#DejaVuSans-49"/>
       <use x="63.623047" xlink:href="#DejaVuSans-46"/>
       <use x="95.410156" xlink:href="#DejaVuSans-48"/>
      </g>
     </g>
    </g>
    <g id="ytick_6">
     <g id="line2d_23">
      <path clip-path="url(#p50d0061589)" d="M 90 128.264771 
L 648 128.264771 
" style="fill:none;stroke:#b0b0b0;stroke-linecap:square;stroke-width:0.8;"/>
     </g>
     <g id="line2d_24">
      <g>
       <use style="stroke:#000000;stroke-width:0.8;" x="90" xlink:href="#m2e8a3c3482" y="128.264771"/>
      </g>
     </g>
     <g id="text_13">
      <!-- 1.2 -->
      <g transform="translate(67.096875 132.06399)scale(0.1 -0.1)">
       <use xlink:href="#DejaVuSans-49"/>
       <use x="63.623047" xlink:href="#DejaVuSans-46"/>
       <use x="95.410156" xlink:href="#DejaVuSans-50"/>
      </g>
     </g>
    </g>
    <g id="ytick_7">
     <g id="line2d_25">
      <path clip-path="url(#p50d0061589)" d="M 90 96.188086 
L 648 96.188086 
" style="fill:none;stroke:#b0b0b0;stroke-linecap:square;stroke-width:0.8;"/>
     </g>
     <g id="line2d_26">
      <g>
       <use style="stroke:#000000;stroke-width:0.8;" x="90" xlink:href="#m2e8a3c3482" y="96.188086"/>
      </g>
     </g>
     <g id="text_14">
      <!-- 1.4 -->
      <g transform="translate(67.096875 99.987305)scale(0.1 -0.1)">
       <use xlink:href="#DejaVuSans-49"/>
       <use x="63.623047" xlink:href="#DejaVuSans-46"/>
       <use x="95.410156" xlink:href="#DejaVuSans-52"/>
      </g>
     </g>
    </g>
    <g id="ytick_8">
     <g id="line2d_27">
      <path clip-path="url(#p50d0061589)" d="M 90 64.111402 
L 648 64.111402 
" style="fill:none;stroke:#b0b0b0;stroke-linecap:square;stroke-width:0.8;"/>
     </g>
     <g id="line2d_28">
      <g>
       <use style="stroke:#000000;stroke-width:0.8;" x="90" xlink:href="#m2e8a3c3482" y="64.111402"/>
      </g>
     </g>
     <g id="text_15">
      <!-- 1.6 -->
      <g transform="translate(67.096875 67.910621)scale(0.1 -0.1)">
       <use xlink:href="#DejaVuSans-49"/>
       <use x="63.623047" xlink:href="#DejaVuSans-46"/>
       <use x="95.410156" xlink:href="#DejaVuSans-54"/>
      </g>
     </g>
    </g>
    <g id="text_16">
     <!-- loss -->
     <defs>
      <path d="M 9.421875 75.984375 
L 18.40625 75.984375 
L 18.40625 0 
L 9.421875 0 
z
" id="DejaVuSans-108"/>
      <path d="M 44.28125 53.078125 
L 44.28125 44.578125 
Q 40.484375 46.53125 36.375 47.5 
Q 32.28125 48.484375 27.875 48.484375 
Q 21.1875 48.484375 17.84375 46.4375 
Q 14.5 44.390625 14.5 40.28125 
Q 14.5 37.15625 16.890625 35.375 
Q 19.28125 33.59375 26.515625 31.984375 
L 29.59375 31.296875 
Q 39.15625 29.25 43.1875 25.515625 
Q 47.21875 21.78125 47.21875 15.09375 
Q 47.21875 7.46875 41.1875 3.015625 
Q 35.15625 -1.421875 24.609375 -1.421875 
Q 20.21875 -1.421875 15.453125 -0.5625 
Q 10.6875 0.296875 5.421875 2 
L 5.421875 11.28125 
Q 10.40625 8.6875 15.234375 7.390625 
Q 20.0625 6.109375 24.8125 6.109375 
Q 31.15625 6.109375 34.5625 8.28125 
Q 37.984375 10.453125 37.984375 14.40625 
Q 37.984375 18.0625 35.515625 20.015625 
Q 33.0625 21.96875 24.703125 23.78125 
L 21.578125 24.515625 
Q 13.234375 26.265625 9.515625 29.90625 
Q 5.8125 33.546875 5.8125 39.890625 
Q 5.8125 47.609375 11.28125 51.796875 
Q 16.75 56 26.8125 56 
Q 31.78125 56 36.171875 55.265625 
Q 40.578125 54.546875 44.28125 53.078125 
z
" id="DejaVuSans-115"/>
     </defs>
     <g transform="translate(61.017187 188.757812)rotate(-90)scale(0.1 -0.1)">
      <use xlink:href="#DejaVuSans-108"/>
      <use x="27.783203" xlink:href="#DejaVuSans-111"/>
      <use x="88.964844" xlink:href="#DejaVuSans-115"/>
      <use x="141.064453" xlink:href="#DejaVuSans-115"/>
     </g>
    </g>
   </g>
   <g id="line2d_29">
    <path clip-path="url(#p50d0061589)" d="M 115.363636 55.554545 
L 115.859504 65.771904 
L 116.355372 69.248894 
L 116.85124 75.741474 
L 117.347107 79.531908 
L 118.338843 84.244179 
L 118.834711 84.701059 
L 119.330579 85.601012 
L 119.826446 87.037323 
L 120.322314 87.32776 
L 120.818182 89.499743 
L 121.31405 90.923632 
L 121.809917 91.473572 
L 122.305785 93.184243 
L 122.801653 93.012129 
L 123.297521 93.730959 
L 123.793388 95.937498 
L 124.289256 92.835237 
L 125.280992 96.768221 
L 125.77686 96.199779 
L 126.272727 97.794532 
L 126.768595 97.080655 
L 127.264463 98.259716 
L 128.256198 102.142001 
L 128.752066 101.943774 
L 129.247934 105.025309 
L 129.743802 106.227549 
L 130.239669 105.969764 
L 130.735537 107.479471 
L 131.231405 110.117047 
L 131.727273 111.996968 
L 132.22314 114.702244 
L 132.719008 116.016373 
L 133.214876 116.500444 
L 133.710744 123.603554 
L 134.206612 123.939334 
L 134.702479 127.618735 
L 135.694215 133.153778 
L 136.190083 137.003621 
L 136.68595 137.110312 
L 137.181818 137.978657 
L 137.677686 145.093489 
L 138.669421 149.137734 
L 139.165289 153.250977 
L 139.661157 155.426241 
L 140.157025 159.054117 
L 141.14876 164.694074 
L 141.644628 164.457875 
L 142.140496 169.286223 
L 142.636364 172.651127 
L 143.132231 173.330962 
L 143.628099 178.358572 
L 144.123967 179.839555 
L 144.619835 182.059567 
L 145.115702 183.685364 
L 145.61157 188.182746 
L 146.107438 188.488301 
L 146.603306 190.042555 
L 147.099174 194.227312 
L 147.595041 195.690641 
L 148.090909 196.456325 
L 148.586777 200.974854 
L 149.082645 203.040523 
L 149.578512 202.844001 
L 150.07438 205.553516 
L 150.570248 207.24669 
L 151.066116 210.130649 
L 151.561983 210.315645 
L 152.057851 209.925671 
L 153.049587 212.941735 
L 153.545455 215.84317 
L 154.041322 216.775728 
L 154.53719 218.49411 
L 155.033058 216.856676 
L 155.528926 221.03029 
L 156.024793 221.298187 
L 156.520661 219.345979 
L 157.016529 223.936005 
L 157.512397 222.13431 
L 158.008264 224.445001 
L 158.504132 223.780627 
L 159 224.800087 
L 159.495868 228.529585 
L 159.991736 226.706648 
L 160.487603 230.479887 
L 160.983471 228.539832 
L 161.479339 231.959169 
L 161.975207 229.840703 
L 162.471074 232.89897 
L 162.966942 235.087831 
L 163.46281 232.586592 
L 163.958678 235.997602 
L 164.454545 235.515734 
L 164.950413 237.660619 
L 165.446281 237.109954 
L 165.942149 236.791648 
L 166.438017 235.358559 
L 166.933884 235.700749 
L 167.429752 237.94322 
L 167.92562 237.609335 
L 168.421488 237.649255 
L 168.917355 240.327428 
L 169.413223 240.759165 
L 169.909091 240.417001 
L 170.404959 240.905284 
L 170.900826 242.285694 
L 171.396694 241.522978 
L 171.892562 243.035863 
L 172.38843 240.703984 
L 172.884298 242.147168 
L 173.380165 245.139956 
L 173.876033 243.909723 
L 174.371901 244.549757 
L 174.867769 243.638157 
L 175.363636 244.698753 
L 175.859504 248.004734 
L 176.355372 245.486819 
L 176.85124 247.406932 
L 177.347107 246.082603 
L 178.338843 248.93565 
L 178.834711 249.862706 
L 179.330579 248.033635 
L 179.826446 248.601149 
L 180.322314 247.357509 
L 180.818182 249.661205 
L 181.31405 251.123694 
L 181.809917 250.922801 
L 182.305785 253.696114 
L 182.801653 251.244488 
L 183.297521 253.51763 
L 183.793388 251.348763 
L 184.289256 251.097407 
L 184.785124 251.282673 
L 185.280992 253.489153 
L 185.77686 252.663472 
L 186.768595 255.440082 
L 187.264463 255.661731 
L 187.760331 252.804036 
L 188.256198 254.007171 
L 188.752066 252.4449 
L 189.247934 253.565607 
L 189.743802 252.953936 
L 190.239669 254.995364 
L 190.735537 255.225174 
L 191.231405 256.419314 
L 191.727273 256.612451 
L 192.22314 258.569093 
L 192.719008 257.944612 
L 193.214876 257.782277 
L 193.710744 259.858667 
L 194.206612 258.638792 
L 194.702479 256.473323 
L 195.198347 256.368178 
L 195.694215 259.226975 
L 196.190083 258.343696 
L 196.68595 258.220533 
L 197.181818 258.746259 
L 197.677686 257.326802 
L 198.669421 260.823815 
L 199.165289 261.122744 
L 199.661157 257.735857 
L 200.157025 259.911943 
L 200.652893 259.739116 
L 201.14876 259.034713 
L 201.644628 262.112217 
L 202.140496 260.302467 
L 202.636364 261.865248 
L 203.132231 261.569889 
L 203.628099 263.093922 
L 204.123967 261.933321 
L 204.619835 262.045396 
L 205.115702 262.811346 
L 205.61157 262.370695 
L 206.107438 262.3757 
L 206.603306 260.56794 
L 207.099174 265.173134 
L 207.595041 263.410863 
L 208.090909 264.183357 
L 208.586777 262.398438 
L 209.082645 265.311967 
L 209.578512 263.742264 
L 210.07438 263.166231 
L 210.570248 263.65108 
L 211.066116 264.455715 
L 211.561983 264.108448 
L 212.057851 264.848099 
L 212.553719 264.231897 
L 213.049587 264.093767 
L 213.545455 265.254082 
L 214.041322 265.418684 
L 215.033058 263.443681 
L 215.528926 264.451865 
L 216.024793 267.144466 
L 216.520661 267.144045 
L 217.016529 265.066322 
L 217.512397 268.443354 
L 218.008264 269.203105 
L 219 266.187721 
L 219.495868 264.709658 
L 219.991736 268.094612 
L 220.487603 268.108231 
L 220.983471 266.641982 
L 221.479339 266.625472 
L 221.975207 265.787907 
L 222.471074 266.891328 
L 222.966942 266.917787 
L 223.46281 267.581725 
L 223.958678 270.530302 
L 224.454545 268.938131 
L 224.950413 269.245588 
L 225.446281 268.682635 
L 225.942149 267.887376 
L 226.438017 270.350654 
L 226.933884 270.683355 
L 227.429752 270.438395 
L 228.421488 268.586275 
L 228.917355 269.844723 
L 229.413223 269.087252 
L 229.909091 270.174156 
L 230.404959 269.088665 
L 230.900826 270.758976 
L 231.396694 271.701556 
L 231.892562 270.902895 
L 232.884298 270.682745 
L 233.380165 269.804255 
L 233.876033 270.125877 
L 234.371901 270.817334 
L 234.867769 272.692842 
L 235.363636 270.821503 
L 235.859504 269.575382 
L 236.355372 273.787238 
L 236.85124 273.156865 
L 237.347107 273.271897 
L 237.842975 271.319407 
L 238.338843 271.054968 
L 238.834711 271.315571 
L 239.330579 272.952598 
L 239.826446 273.344508 
L 240.322314 271.037297 
L 240.818182 272.454956 
L 241.31405 273.000987 
L 241.809917 273.758067 
L 242.801653 272.075521 
L 243.793388 274.5605 
L 244.289256 272.110378 
L 245.280992 274.652767 
L 245.77686 273.479026 
L 246.272727 272.637189 
L 246.768595 274.518665 
L 247.264463 274.255475 
L 247.760331 273.539896 
L 248.256198 275.345761 
L 248.752066 274.059767 
L 249.247934 273.460891 
L 249.743802 276.06222 
L 250.735537 273.015332 
L 251.727273 274.001798 
L 252.22314 276.531758 
L 252.719008 275.564661 
L 253.214876 273.390998 
L 254.206612 276.4304 
L 254.702479 274.871158 
L 255.198347 274.84338 
L 255.694215 275.379809 
L 256.190083 274.71866 
L 256.68595 275.504185 
L 257.181818 277.485022 
L 257.677686 277.428315 
L 258.173554 276.792209 
L 258.669421 277.64635 
L 259.661157 272.588116 
L 260.157025 275.38663 
L 260.652893 276.707586 
L 261.14876 277.690727 
L 261.644628 276.663516 
L 262.140496 279.917649 
L 263.132231 275.594612 
L 263.628099 275.928142 
L 264.123967 278.135305 
L 264.619835 278.521439 
L 265.115702 276.58685 
L 265.61157 279.921952 
L 266.107438 275.94728 
L 266.603306 277.516412 
L 267.099174 277.81473 
L 267.595041 279.570532 
L 268.090909 280.681021 
L 268.586777 278.113999 
L 269.082645 277.854223 
L 269.578512 278.470858 
L 270.07438 280.141468 
L 270.570248 280.610029 
L 271.066116 277.288025 
L 271.561983 278.313988 
L 272.057851 278.730531 
L 272.553719 280.256211 
L 273.049587 279.216662 
L 273.545455 278.637708 
L 274.041322 278.684507 
L 274.53719 277.572019 
L 275.033058 276.781465 
L 275.528926 280.505225 
L 276.024793 280.539674 
L 276.520661 279.599087 
L 277.016529 280.244129 
L 277.512397 279.112923 
L 278.008264 280.527797 
L 278.504132 278.435574 
L 279 278.854726 
L 279.495868 280.470883 
L 279.991736 279.131001 
L 280.487603 279.176246 
L 280.983471 278.901294 
L 281.975207 281.023908 
L 282.471074 279.620354 
L 282.966942 280.742632 
L 283.46281 279.950271 
L 283.958678 278.814491 
L 284.454545 281.470461 
L 284.950413 282.060603 
L 285.446281 280.780651 
L 285.942149 280.898138 
L 286.438017 282.122481 
L 286.933884 280.744385 
L 287.429752 280.267111 
L 287.92562 281.383918 
L 288.917355 280.687145 
L 289.413223 281.0801 
L 289.909091 280.448388 
L 290.404959 280.716033 
L 290.900826 281.701781 
L 291.396694 281.395749 
L 291.892562 281.394876 
L 292.38843 280.361007 
L 292.884298 280.352924 
L 293.380165 280.732165 
L 293.876033 283.835791 
L 294.371901 282.038016 
L 294.867769 282.413563 
L 295.363636 285.156641 
L 295.859504 281.985436 
L 296.355372 282.104374 
L 296.85124 279.934401 
L 297.347107 281.988676 
L 297.842975 283.138298 
L 298.338843 281.030296 
L 299.330579 282.155955 
L 299.826446 281.512556 
L 300.322314 282.690322 
L 300.818182 280.772471 
L 301.31405 283.33577 
L 301.809917 281.300552 
L 302.305785 283.165699 
L 302.801653 281.756176 
L 303.297521 284.352477 
L 303.793388 282.229 
L 304.289256 283.988145 
L 304.785124 282.141887 
L 305.280992 283.392922 
L 305.77686 279.903476 
L 306.272727 282.313144 
L 306.768595 282.915095 
L 307.264463 281.718109 
L 307.760331 281.464736 
L 308.256198 284.20405 
L 308.752066 284.267446 
L 309.247934 284.157877 
L 309.743802 283.877577 
L 310.239669 283.996913 
L 310.735537 285.314861 
L 311.727273 283.742204 
L 312.22314 284.238139 
L 312.719008 284.270594 
L 313.214876 285.63985 
L 313.710744 284.794275 
L 314.206612 284.278928 
L 314.702479 283.335448 
L 315.198347 284.856966 
L 315.694215 283.947445 
L 316.190083 285.550877 
L 316.68595 285.417848 
L 317.181818 285.614436 
L 317.677686 284.36777 
L 318.173554 284.626332 
L 318.669421 286.018059 
L 319.165289 282.884912 
L 319.661157 285.726081 
L 320.157025 286.99702 
L 320.652893 283.438817 
L 321.14876 285.012795 
L 321.644628 285.26638 
L 322.140496 283.809855 
L 322.636364 285.175574 
L 323.132231 285.698185 
L 323.628099 285.242437 
L 324.123967 285.298078 
L 324.619835 283.928095 
L 325.115702 284.364124 
L 326.107438 286.598896 
L 326.603306 285.389571 
L 327.099174 288.323833 
L 327.595041 286.96325 
L 328.586777 285.20641 
L 329.082645 285.5814 
L 329.578512 287.783901 
L 330.07438 285.10838 
L 330.570248 285.503463 
L 331.066116 284.833967 
L 332.057851 286.586129 
L 332.553719 285.364245 
L 333.049587 286.674583 
L 333.545455 286.540993 
L 334.041322 285.306458 
L 334.53719 286.715538 
L 335.033058 284.864353 
L 335.528926 284.190367 
L 336.024793 288.526309 
L 336.520661 286.636532 
L 337.016529 286.830084 
L 337.512397 286.575683 
L 338.008264 286.468933 
L 338.504132 287.543241 
L 339 285.90339 
L 339.495868 288.401868 
L 339.991736 288.167379 
L 340.487603 286.258949 
L 340.983471 287.534327 
L 341.479339 288.244255 
L 341.975207 286.364352 
L 342.471074 285.661887 
L 342.966942 288.529547 
L 343.46281 286.080587 
L 343.958678 286.303883 
L 344.454545 288.508331 
L 344.950413 288.016699 
L 345.446281 287.320153 
L 345.942149 287.124912 
L 346.438017 288.422204 
L 346.933884 285.244803 
L 347.429752 288.204299 
L 347.92562 287.160747 
L 348.421488 286.688401 
L 348.917355 288.822337 
L 349.413223 289.578622 
L 349.909091 287.330183 
L 350.404959 286.526729 
L 350.900826 289.241047 
L 351.396694 288.125616 
L 351.892562 287.975989 
L 352.38843 288.988706 
L 352.884298 288.941619 
L 353.380165 289.467919 
L 353.876033 286.163038 
L 354.371901 289.093282 
L 354.867769 289.322156 
L 355.363636 289.686113 
L 355.859504 286.579886 
L 356.355372 286.730184 
L 356.85124 288.363099 
L 357.347107 289.046502 
L 357.842975 288.579246 
L 358.338843 289.019216 
L 358.834711 288.438957 
L 359.330579 290.647625 
L 359.826446 286.545053 
L 360.322314 289.595664 
L 360.818182 287.120082 
L 361.31405 287.569184 
L 362.305785 291.216634 
L 362.801653 288.988983 
L 363.297521 288.596181 
L 363.793388 291.306876 
L 364.289256 288.944299 
L 364.785124 288.236705 
L 365.280992 289.286163 
L 365.77686 289.007222 
L 366.272727 289.102609 
L 366.768595 288.221813 
L 367.264463 291.017061 
L 367.760331 288.735276 
L 368.256198 290.130982 
L 368.752066 289.833646 
L 369.247934 291.817148 
L 370.239669 290.222222 
L 370.735537 287.455006 
L 371.231405 288.740438 
L 371.727273 291.72745 
L 372.22314 289.731963 
L 372.719008 289.740594 
L 373.214876 288.702651 
L 373.710744 290.99883 
L 374.206612 289.00064 
L 374.702479 290.629981 
L 375.198347 289.891374 
L 375.694215 288.086764 
L 376.190083 291.91176 
L 376.68595 290.616768 
L 377.181818 289.008179 
L 377.677686 290.573083 
L 378.173554 291.127916 
L 378.669421 291.098659 
L 379.165289 291.929331 
L 379.661157 290.755204 
L 380.157025 291.09484 
L 380.652893 290.570207 
L 381.14876 290.605321 
L 381.644628 291.246512 
L 382.140496 289.413204 
L 382.636364 288.758617 
L 383.132231 290.579018 
L 383.628099 288.581597 
L 384.123967 289.638601 
L 385.115702 291.052052 
L 386.107438 291.504732 
L 386.603306 292.174397 
L 387.099174 292.352123 
L 387.595041 290.931895 
L 388.586777 293.458818 
L 389.082645 292.786095 
L 389.578512 291.714494 
L 390.07438 292.461469 
L 390.570248 291.531911 
L 391.066116 289.689154 
L 391.561983 291.763995 
L 392.057851 289.920326 
L 392.553719 291.853991 
L 393.049587 293.019859 
L 393.545455 291.247131 
L 394.041322 290.447042 
L 394.53719 290.006405 
L 395.033058 290.408007 
L 395.528926 292.091836 
L 396.024793 292.031842 
L 396.520661 291.147247 
L 397.016529 292.798656 
L 397.512397 290.483785 
L 398.008264 291.256538 
L 398.504132 293.258895 
L 399 290.038694 
L 399.495868 293.3172 
L 399.991736 292.299497 
L 400.487603 291.999572 
L 400.983471 292.271854 
L 401.479339 291.630762 
L 401.975207 292.559501 
L 402.471074 292.027922 
L 402.966942 293.483465 
L 403.46281 291.376596 
L 403.958678 292.738271 
L 404.454545 290.524871 
L 404.950413 293.096773 
L 405.446281 292.673737 
L 405.942149 291.463997 
L 406.438017 291.65785 
L 406.933884 292.755317 
L 407.429752 291.660145 
L 407.92562 292.387223 
L 408.421488 292.718713 
L 408.917355 294.953342 
L 409.413223 292.915162 
L 409.909091 293.316829 
L 410.404959 293.281871 
L 410.900826 292.602491 
L 411.396694 294.022557 
L 411.892562 293.51253 
L 412.38843 293.558771 
L 412.884298 292.221044 
L 413.380165 295.01636 
L 413.876033 294.220894 
L 414.867769 291.695413 
L 415.363636 291.076597 
L 415.859504 291.883402 
L 416.355372 295.473388 
L 416.85124 293.78103 
L 417.347107 292.545873 
L 417.842975 293.4622 
L 418.338843 292.836152 
L 418.834711 293.555385 
L 419.330579 291.989092 
L 419.826446 293.426556 
L 420.322314 293.937328 
L 420.818182 291.805197 
L 421.31405 293.452413 
L 421.809917 293.321514 
L 422.305785 292.715677 
L 422.801653 293.093399 
L 423.297521 293.217154 
L 423.793388 293.033885 
L 424.289256 293.081409 
L 424.785124 293.635195 
L 425.280992 293.761858 
L 425.77686 294.00406 
L 426.272727 292.324859 
L 426.768595 293.189201 
L 427.264463 293.282935 
L 427.760331 292.644577 
L 428.256198 292.797183 
L 428.752066 295.262023 
L 429.247934 295.419638 
L 430.239669 294.209835 
L 430.735537 292.8035 
L 431.231405 291.83081 
L 431.727273 290.488837 
L 432.22314 292.610434 
L 432.719008 292.575219 
L 433.214876 295.919724 
L 433.710744 292.816201 
L 434.206612 294.271515 
L 434.702479 293.094317 
L 435.198347 294.397282 
L 435.694215 294.114978 
L 436.190083 294.243274 
L 436.68595 294.866736 
L 437.181818 293.504955 
L 437.677686 293.650553 
L 438.173554 294.238644 
L 438.669421 294.018659 
L 439.165289 294.52026 
L 439.661157 294.241316 
L 440.157025 293.124366 
L 440.652893 294.54561 
L 441.14876 293.377169 
L 441.644628 293.951876 
L 442.140496 293.727934 
L 442.636364 293.966762 
L 443.132231 296.015761 
L 443.628099 293.503132 
L 444.123967 295.365108 
L 445.115702 294.46419 
L 445.61157 293.286761 
L 446.107438 293.276794 
L 446.603306 293.986986 
L 447.099174 296.708898 
L 447.595041 293.66243 
L 448.090909 293.888428 
L 448.586777 294.899301 
L 449.082645 295.416203 
L 449.578512 295.323031 
L 450.07438 293.887557 
L 450.570248 295.365684 
L 451.066116 294.744041 
L 451.561983 293.842491 
L 452.057851 293.527732 
L 452.553719 293.400186 
L 453.049587 293.545502 
L 453.545455 295.427424 
L 454.041322 295.231597 
L 455.033058 295.537992 
L 455.528926 294.983307 
L 456.520661 294.777276 
L 457.016529 296.416957 
L 458.008264 294.208015 
L 458.504132 294.919569 
L 459 294.679614 
L 459.495868 294.788996 
L 459.991736 295.347541 
L 460.487603 294.126158 
L 460.983471 296.244075 
L 461.479339 294.118437 
L 461.975207 295.060405 
L 462.471074 296.436898 
L 462.966942 294.297414 
L 463.46281 297.260244 
L 463.958678 297.147473 
L 464.454545 295.330013 
L 464.950413 294.042245 
L 465.446281 296.781271 
L 465.942149 296.171294 
L 466.438017 294.938273 
L 466.933884 296.388725 
L 467.429752 297.099901 
L 467.92562 295.768726 
L 468.421488 297.540123 
L 468.917355 295.705689 
L 469.413223 296.846493 
L 469.909091 295.266481 
L 470.404959 294.518792 
L 470.900826 297.377951 
L 471.396694 293.315165 
L 471.892562 295.691999 
L 472.38843 295.263285 
L 472.884298 295.866035 
L 473.380165 295.01506 
L 473.876033 295.317683 
L 474.371901 293.868298 
L 474.867769 294.871219 
L 475.363636 295.468933 
L 475.859504 295.775871 
L 476.355372 295.849316 
L 476.85124 295.411184 
L 477.347107 294.048383 
L 477.842975 297.800055 
L 478.338843 296.118447 
L 478.834711 298.089328 
L 479.330579 297.079725 
L 479.826446 298.704948 
L 480.322314 295.154099 
L 480.818182 296.521343 
L 481.31405 295.160602 
L 481.809917 296.993682 
L 482.305785 294.044992 
L 482.801653 297.915441 
L 483.297521 295.772277 
L 483.793388 295.896769 
L 484.289256 294.603477 
L 484.785124 297.876807 
L 485.280992 296.833612 
L 485.77686 295.523499 
L 486.272727 295.832738 
L 486.768595 297.22753 
L 487.264463 295.813259 
L 487.760331 296.276426 
L 488.256198 298.556362 
L 488.752066 296.707205 
L 489.247934 296.005193 
L 490.239669 297.429592 
L 490.735537 296.696954 
L 491.231405 294.882037 
L 491.727273 297.335151 
L 492.22314 296.578497 
L 492.719008 296.776526 
L 493.214876 296.002288 
L 493.710744 298.183457 
L 494.206612 297.05235 
L 494.702479 297.01566 
L 495.198347 297.607338 
L 495.694215 297.068359 
L 496.190083 297.696297 
L 496.68595 296.076061 
L 497.181818 296.760271 
L 497.677686 294.995303 
L 498.173554 296.65192 
L 498.669421 297.002758 
L 499.165289 296.851009 
L 499.661157 297.16983 
L 500.157025 299.862345 
L 500.652893 295.897012 
L 501.14876 296.368032 
L 501.644628 294.413673 
L 502.140496 296.570932 
L 502.636364 297.107864 
L 503.132231 297.951345 
L 503.628099 297.623234 
L 504.123967 297.148439 
L 504.619835 298.170599 
L 505.115702 296.835839 
L 505.61157 297.548739 
L 506.107438 297.62666 
L 506.603306 299.5675 
L 507.099174 298.926143 
L 507.595041 295.43172 
L 508.090909 299.009035 
L 508.586777 297.609124 
L 509.082645 299.032248 
L 509.578512 297.227834 
L 510.07438 298.306708 
L 510.570248 298.267286 
L 511.066116 299.009262 
L 511.561983 297.538381 
L 513.049587 297.128774 
L 513.545455 299.105499 
L 514.041322 297.574534 
L 514.53719 299.372697 
L 515.033058 299.901359 
L 515.528926 295.158542 
L 516.024793 298.205728 
L 516.520661 294.805156 
L 517.016529 296.021178 
L 517.512397 296.292247 
L 518.008264 298.732587 
L 518.504132 297.760607 
L 519 297.127377 
L 519.495868 297.18483 
L 519.991736 298.768614 
L 520.487603 295.774964 
L 520.983471 297.542218 
L 521.479339 296.169718 
L 521.975207 297.189644 
L 522.471074 299.846237 
L 522.966942 299.615186 
L 523.46281 298.453957 
L 523.958678 298.762099 
L 524.454545 298.220247 
L 524.950413 296.732992 
L 525.446281 296.895495 
L 525.942149 298.25075 
L 526.438017 298.422723 
L 526.933884 297.99162 
L 527.92562 298.751858 
L 528.421488 298.455186 
L 528.917355 299.478584 
L 529.413223 298.975623 
L 529.909091 301.278701 
L 530.404959 294.024695 
L 530.900826 300.915079 
L 531.396694 297.452058 
L 531.892562 296.512763 
L 532.38843 298.544409 
L 532.884298 297.362932 
L 533.380165 296.737814 
L 533.876033 299.119132 
L 534.371901 300.207908 
L 534.867769 298.970422 
L 535.363636 300.384579 
L 535.859504 296.823709 
L 536.355372 297.668314 
L 536.85124 299.18139 
L 537.347107 296.096109 
L 537.842975 298.428939 
L 538.338843 296.477187 
L 538.834711 298.968189 
L 539.330579 298.600188 
L 539.826446 299.421149 
L 540.322314 299.046379 
L 540.818182 298.481761 
L 542.305785 299.638611 
L 542.801653 299.556407 
L 543.297521 297.853553 
L 543.793388 297.317793 
L 544.785124 299.746008 
L 545.280992 297.055208 
L 545.77686 299.69111 
L 546.272727 300.0225 
L 546.768595 299.603354 
L 547.264463 298.6665 
L 547.760331 299.972537 
L 548.256198 299.868069 
L 548.752066 298.924571 
L 549.247934 300.203721 
L 549.743802 298.430676 
L 550.239669 298.289713 
L 550.735537 297.385088 
L 551.231405 298.4737 
L 552.719008 297.603848 
L 553.214876 298.4885 
L 554.206612 299.090883 
L 554.702479 298.101242 
L 555.198347 298.775769 
L 555.694215 299.05032 
L 556.190083 299.03156 
L 556.68595 297.981519 
L 557.181818 297.897918 
L 557.677686 299.220313 
L 558.173554 300.010185 
L 558.669421 297.004856 
L 559.165289 298.37857 
L 559.661157 299.190816 
L 560.157025 301.01284 
L 561.14876 297.147713 
L 561.644628 299.981463 
L 562.140496 298.857071 
L 562.636364 299.507798 
L 563.132231 296.859259 
L 563.628099 298.699255 
L 564.123967 301.028038 
L 564.619835 299.325138 
L 565.115702 298.698024 
L 565.61157 299.286304 
L 566.107438 299.503352 
L 566.603306 298.162146 
L 567.099174 299.038381 
L 567.595041 299.308362 
L 568.090909 299.799272 
L 568.586777 299.931083 
L 569.082645 299.642767 
L 569.578512 298.680288 
L 570.07438 298.704614 
L 570.570248 298.043299 
L 571.066116 299.273191 
L 571.561983 299.519936 
L 572.057851 299.135702 
L 572.553719 297.563456 
L 573.049587 298.896817 
L 573.545455 297.393843 
L 574.041322 298.021241 
L 574.53719 299.747181 
L 575.033058 298.854143 
L 575.528926 299.508003 
L 576.024793 300.409945 
L 576.520661 300.115256 
L 577.016529 300.052654 
L 577.512397 298.392632 
L 578.008264 301.428226 
L 578.504132 300.249474 
L 579 302.645455 
L 579.991736 299.13098 
L 580.487603 299.320266 
L 580.983471 299.157932 
L 581.479339 299.766914 
L 581.975207 299.597479 
L 582.471074 298.323686 
L 582.966942 299.647833 
L 583.46281 299.287081 
L 583.958678 299.403178 
L 584.454545 299.224661 
L 584.950413 299.972249 
L 585.446281 300.078978 
L 585.942149 297.855246 
L 586.438017 300.730428 
L 586.933884 298.002538 
L 587.429752 298.872952 
L 587.92562 300.040548 
L 588.421488 299.76766 
L 588.917355 301.138082 
L 589.413223 299.223244 
L 589.909091 298.283415 
L 590.404959 299.243731 
L 590.900826 298.678593 
L 591.396694 298.317045 
L 592.38843 300.527272 
L 592.884298 300.116477 
L 593.380165 298.946877 
L 593.876033 301.133821 
L 594.371901 301.305338 
L 594.867769 301.188057 
L 595.363636 301.471984 
L 595.859504 299.657693 
L 596.355372 301.774621 
L 596.85124 298.533789 
L 597.842975 299.78634 
L 598.338843 301.433262 
L 598.834711 298.832499 
L 599.330579 298.819384 
L 599.826446 302.426883 
L 600.322314 299.371832 
L 600.818182 301.758545 
L 601.31405 298.953455 
L 601.809917 300.739343 
L 602.305785 301.432405 
L 602.801653 299.793466 
L 603.297521 301.678195 
L 603.793388 301.187423 
L 604.289256 301.000466 
L 604.785124 300.644812 
L 605.280992 302.253518 
L 605.77686 298.382705 
L 606.272727 299.499221 
L 606.768595 300.940752 
L 607.264463 300.21156 
L 607.760331 301.126181 
L 608.256198 301.394105 
L 608.752066 297.61729 
L 609.247934 298.58678 
L 609.743802 299.883791 
L 610.239669 298.984163 
L 610.735537 301.183162 
L 611.231405 301.094108 
L 611.727273 299.372556 
L 612.22314 299.784907 
L 612.719008 301.660814 
L 613.214876 301.51657 
L 613.710744 299.972495 
L 614.206612 299.262183 
L 614.702479 299.03346 
L 615.198347 299.077603 
L 615.694215 300.338873 
L 616.190083 298.118107 
L 616.68595 300.850891 
L 617.181818 299.473453 
L 617.677686 300.038907 
L 618.173554 302.174548 
L 618.669421 300.094058 
L 619.165289 302.217854 
L 619.661157 300.763501 
L 620.157025 299.932973 
L 621.14876 301.74564 
L 621.644628 300.295881 
L 622.140496 299.865696 
L 622.636364 300.6728 
L 622.636364 300.6728 
" style="fill:none;stroke:#1f77b4;stroke-linecap:square;stroke-width:0.5;"/>
   </g>
   <g id="line2d_30">
    <path clip-path="url(#p50d0061589)" d="M 115.363636 61.019912 
L 116.355372 76.789408 
L 116.85124 77.00452 
L 117.347107 81.794422 
L 117.842975 80.201108 
L 118.338843 85.518526 
L 118.834711 84.322024 
L 119.330579 87.788019 
L 119.826446 86.520196 
L 120.322314 89.08451 
L 120.818182 89.847117 
L 121.31405 90.244104 
L 121.809917 90.108031 
L 122.305785 90.822251 
L 122.801653 90.290007 
L 123.297521 90.460344 
L 124.289256 93.994221 
L 124.785124 94.469864 
L 125.280992 96.538312 
L 125.77686 96.767946 
L 126.272727 97.994946 
L 126.768595 97.614831 
L 127.760331 98.058211 
L 128.256198 101.776937 
L 128.752066 102.458688 
L 129.247934 100.825093 
L 130.239669 106.79267 
L 130.735537 107.771708 
L 131.231405 109.933353 
L 131.727273 111.12277 
L 132.22314 114.324797 
L 133.214876 117.759243 
L 133.710744 118.437966 
L 134.206612 123.989471 
L 134.702479 124.791686 
L 135.198347 131.902402 
L 135.694215 130.995641 
L 136.190083 133.5962 
L 136.68595 138.79883 
L 137.181818 140.909788 
L 137.677686 143.788151 
L 138.173554 147.636561 
L 138.669421 149.419651 
L 140.157025 158.217883 
L 140.652893 163.22634 
L 141.14876 163.517038 
L 142.636364 173.134493 
L 143.132231 172.640225 
L 143.628099 177.639857 
L 144.123967 178.700247 
L 144.619835 180.446387 
L 145.115702 183.559255 
L 145.61157 184.12094 
L 146.107438 188.749768 
L 146.603306 190.996972 
L 147.099174 191.589127 
L 147.595041 193.877792 
L 148.090909 197.155452 
L 148.586777 195.547188 
L 149.082645 199.978229 
L 149.578512 201.958512 
L 150.07438 200.357563 
L 151.561983 207.755603 
L 152.057851 207.554547 
L 152.553719 210.376098 
L 153.049587 211.709241 
L 153.545455 214.931425 
L 154.53719 213.348512 
L 155.033058 214.417219 
L 155.528926 218.389241 
L 156.024793 217.500786 
L 156.520661 218.677267 
L 157.016529 219.217015 
L 157.512397 220.799877 
L 158.008264 218.730708 
L 158.504132 220.590815 
L 159 221.01752 
L 159.495868 225.298608 
L 159.991736 224.534232 
L 160.487603 224.394187 
L 160.983471 224.545314 
L 161.479339 227.747143 
L 161.975207 227.213403 
L 162.471074 228.681671 
L 162.966942 227.783883 
L 163.46281 230.308389 
L 163.958678 229.452996 
L 164.454545 230.172824 
L 165.446281 230.689282 
L 165.942149 229.611672 
L 166.933884 232.826155 
L 167.429752 232.923816 
L 167.92562 234.883034 
L 168.421488 233.939022 
L 168.917355 234.922581 
L 169.413223 234.641147 
L 169.909091 236.195499 
L 170.900826 237.437175 
L 171.396694 235.651407 
L 171.892562 237.084229 
L 172.38843 236.879328 
L 172.884298 234.590987 
L 173.380165 238.060848 
L 173.876033 242.39728 
L 174.371901 239.589013 
L 174.867769 238.81567 
L 175.363636 239.721604 
L 175.859504 239.438188 
L 176.355372 241.505784 
L 176.85124 238.468666 
L 177.347107 239.959362 
L 177.842975 238.659801 
L 178.338843 240.904047 
L 178.834711 241.513662 
L 179.330579 240.73164 
L 179.826446 241.612156 
L 180.322314 241.869236 
L 180.818182 243.313386 
L 181.31405 243.358772 
L 182.305785 244.156556 
L 182.801653 244.033507 
L 183.297521 244.708385 
L 183.793388 244.084636 
L 184.289256 246.369175 
L 184.785124 246.270548 
L 185.77686 245.491919 
L 186.272727 243.317331 
L 186.768595 247.232569 
L 187.264463 246.049929 
L 187.760331 247.15005 
L 188.256198 246.237522 
L 188.752066 247.464343 
L 189.247934 246.307499 
L 189.743802 248.73307 
L 190.239669 247.888648 
L 190.735537 247.929963 
L 191.231405 245.531431 
L 191.727273 246.991768 
L 192.22314 247.688579 
L 192.719008 246.96029 
L 193.214876 249.056617 
L 193.710744 248.737021 
L 194.206612 251.042134 
L 194.702479 248.783183 
L 195.198347 250.976233 
L 195.694215 250.568693 
L 196.190083 251.405187 
L 196.68595 251.91661 
L 197.181818 250.721177 
L 197.677686 251.866654 
L 198.173554 248.251013 
L 198.669421 250.39656 
L 199.165289 250.94272 
L 199.661157 251.923816 
L 200.157025 250.447413 
L 200.652893 251.689337 
L 201.14876 249.088158 
L 201.644628 251.318356 
L 202.140496 252.044981 
L 202.636364 254.236264 
L 203.132231 253.387888 
L 203.628099 252.154687 
L 204.123967 251.598508 
L 204.619835 252.456869 
L 205.115702 253.854746 
L 205.61157 251.73266 
L 206.107438 253.766708 
L 206.603306 253.987657 
L 207.099174 254.756996 
L 207.595041 251.245104 
L 208.090909 252.528365 
L 208.586777 255.070507 
L 209.082645 253.423408 
L 209.578512 255.403985 
L 210.07438 251.784235 
L 210.570248 254.692224 
L 211.066116 254.979042 
L 211.561983 253.968885 
L 212.057851 253.756601 
L 212.553719 253.930926 
L 213.049587 252.7818 
L 213.545455 253.880877 
L 214.041322 255.821066 
L 214.53719 255.14932 
L 215.033058 256.216348 
L 215.528926 254.908954 
L 216.024793 255.934699 
L 216.520661 256.049112 
L 217.016529 255.571561 
L 217.512397 256.500603 
L 218.504132 256.460621 
L 219.991736 255.192819 
L 220.487603 256.832822 
L 220.983471 256.399355 
L 221.479339 256.149601 
L 221.975207 257.781497 
L 222.471074 257.423361 
L 222.966942 258.964075 
L 223.46281 256.788741 
L 223.958678 257.288308 
L 224.454545 257.990272 
L 224.950413 258.219496 
L 225.446281 260.192239 
L 225.942149 257.82941 
L 226.438017 257.418656 
L 226.933884 256.69739 
L 227.429752 259.51471 
L 227.92562 258.894111 
L 228.421488 259.904388 
L 228.917355 257.330898 
L 229.909091 259.38734 
L 230.404959 254.491456 
L 230.900826 257.707564 
L 231.396694 258.388118 
L 231.892562 260.825593 
L 232.38843 258.636476 
L 232.884298 258.230533 
L 233.380165 258.323072 
L 233.876033 259.673774 
L 234.371901 258.652746 
L 234.867769 258.270721 
L 235.363636 259.176002 
L 235.859504 261.44622 
L 236.355372 259.476391 
L 236.85124 259.837832 
L 237.347107 256.17236 
L 237.842975 259.224994 
L 238.338843 256.408816 
L 238.834711 260.34782 
L 239.330579 260.429642 
L 239.826446 258.205007 
L 240.322314 262.767354 
L 240.818182 261.024602 
L 241.31405 259.814441 
L 241.809917 259.625744 
L 242.305785 257.944715 
L 242.801653 261.88996 
L 243.297521 262.059696 
L 243.793388 256.633531 
L 245.280992 262.679773 
L 245.77686 260.097365 
L 246.272727 261.674264 
L 246.768595 262.796544 
L 247.264463 261.003243 
L 247.760331 258.701853 
L 248.256198 260.865668 
L 248.752066 258.348428 
L 249.247934 258.813611 
L 250.239669 260.669339 
L 250.735537 258.944194 
L 251.231405 260.640698 
L 251.727273 261.443426 
L 252.22314 258.224869 
L 252.719008 260.254966 
L 253.214876 261.806284 
L 253.710744 262.209632 
L 254.206612 264.622263 
L 254.702479 262.404063 
L 255.198347 262.177525 
L 255.694215 259.953535 
L 256.68595 264.520338 
L 257.181818 261.073543 
L 257.677686 259.306776 
L 258.669421 263.416842 
L 259.165289 263.619901 
L 260.157025 260.929592 
L 260.652893 262.363265 
L 261.14876 261.245654 
L 261.644628 261.416507 
L 262.140496 263.203167 
L 262.636364 260.267 
L 263.132231 262.640685 
L 263.628099 261.579286 
L 264.123967 261.040805 
L 265.115702 262.712887 
L 265.61157 264.65824 
L 266.107438 262.025377 
L 266.603306 262.97124 
L 267.099174 266.226262 
L 267.595041 263.399177 
L 268.090909 261.769099 
L 268.586777 260.930774 
L 269.082645 261.05226 
L 269.578512 265.225305 
L 270.07438 263.326501 
L 270.570248 264.301404 
L 271.066116 263.541057 
L 271.561983 262.542673 
L 272.057851 264.236283 
L 272.553719 263.998437 
L 273.049587 262.580322 
L 273.545455 262.381705 
L 274.041322 263.071507 
L 274.53719 263.530243 
L 275.033058 265.140508 
L 275.528926 264.350451 
L 276.024793 264.006921 
L 276.520661 264.752714 
L 277.016529 266.597385 
L 277.512397 265.103238 
L 278.008264 265.438895 
L 278.504132 264.061154 
L 279 264.75109 
L 279.495868 263.835484 
L 279.991736 265.273908 
L 280.487603 262.056354 
L 280.983471 263.000675 
L 281.479339 265.830013 
L 281.975207 263.682793 
L 282.471074 263.360867 
L 282.966942 264.38273 
L 283.46281 264.725143 
L 283.958678 264.697197 
L 284.454545 265.676954 
L 284.950413 265.89511 
L 285.446281 261.251286 
L 285.942149 264.982975 
L 286.438017 264.46357 
L 286.933884 266.206259 
L 287.429752 262.626456 
L 287.92562 266.13194 
L 288.421488 264.608112 
L 288.917355 265.653795 
L 289.413223 263.167958 
L 289.909091 265.378595 
L 290.404959 264.514572 
L 290.900826 265.312948 
L 291.396694 265.23831 
L 291.892562 263.135905 
L 292.38843 263.483312 
L 292.884298 265.627205 
L 293.380165 265.223689 
L 293.876033 266.415433 
L 294.371901 266.130253 
L 294.867769 266.041739 
L 295.363636 266.45403 
L 295.859504 267.329538 
L 296.355372 266.823822 
L 296.85124 268.08451 
L 297.347107 264.224935 
L 297.842975 265.029953 
L 298.834711 267.100227 
L 299.330579 264.284219 
L 299.826446 269.875168 
L 300.322314 267.284776 
L 300.818182 265.291017 
L 301.31405 268.223633 
L 301.809917 268.020009 
L 302.305785 265.514904 
L 303.297521 268.024298 
L 303.793388 266.191082 
L 304.289256 266.154745 
L 304.785124 266.82854 
L 305.77686 265.150733 
L 306.272727 264.712258 
L 306.768595 265.33942 
L 307.760331 269.197885 
L 308.256198 268.483682 
L 308.752066 263.365636 
L 309.247934 267.362451 
L 309.743802 263.474434 
L 310.239669 265.629697 
L 310.735537 264.053241 
L 311.727273 266.284444 
L 312.22314 268.198834 
L 312.719008 266.334234 
L 313.214876 268.173317 
L 313.710744 267.76566 
L 314.206612 269.803898 
L 314.702479 265.744919 
L 315.198347 265.626108 
L 315.694215 267.587354 
L 316.190083 266.933573 
L 316.68595 264.899165 
L 317.181818 267.186103 
L 317.677686 265.026426 
L 318.173554 268.372596 
L 318.669421 268.731055 
L 319.165289 266.683267 
L 319.661157 265.486291 
L 320.157025 268.610133 
L 320.652893 264.610864 
L 321.14876 266.341984 
L 321.644628 266.948198 
L 322.140496 266.050264 
L 322.636364 264.291027 
L 323.132231 267.577178 
L 323.628099 266.270314 
L 324.123967 263.624368 
L 324.619835 267.753656 
L 325.115702 266.792806 
L 325.61157 263.815224 
L 326.107438 269.039942 
L 326.603306 268.196525 
L 327.099174 268.530936 
L 327.595041 269.619564 
L 328.090909 265.639941 
L 328.586777 268.833025 
L 329.082645 266.554807 
L 329.578512 266.544383 
L 330.07438 269.146507 
L 330.570248 266.08218 
L 331.066116 270.293519 
L 331.561983 267.699816 
L 332.057851 267.020891 
L 332.553719 267.665451 
L 333.049587 265.512198 
L 333.545455 266.856053 
L 334.041322 270.270781 
L 334.53719 267.973392 
L 335.033058 265.061156 
L 335.528926 267.912461 
L 336.024793 267.63863 
L 336.520661 268.054307 
L 337.016529 267.63135 
L 337.512397 268.353079 
L 338.008264 264.891523 
L 338.504132 269.314565 
L 339 267.323234 
L 339.495868 266.000651 
L 339.991736 263.814898 
L 340.487603 267.8604 
L 340.983471 266.304647 
L 341.479339 267.903789 
L 341.975207 266.028357 
L 342.471074 266.325007 
L 343.958678 269.968943 
L 344.454545 268.363739 
L 344.950413 267.587399 
L 345.446281 268.780255 
L 345.942149 265.527839 
L 346.438017 270.586246 
L 346.933884 266.847654 
L 347.429752 267.024539 
L 347.92562 266.568966 
L 348.421488 268.000506 
L 348.917355 264.550342 
L 349.413223 265.400466 
L 349.909091 265.943434 
L 350.404959 268.854528 
L 350.900826 268.852073 
L 351.396694 268.565992 
L 352.38843 266.559765 
L 352.884298 268.677973 
L 353.380165 269.376071 
L 353.876033 270.615064 
L 354.371901 267.51229 
L 354.867769 269.162832 
L 355.363636 269.371194 
L 355.859504 269.313462 
L 356.355372 266.207511 
L 356.85124 269.810832 
L 357.347107 270.27317 
L 357.842975 266.918504 
L 358.338843 270.018061 
L 358.834711 268.590827 
L 359.330579 270.584962 
L 359.826446 268.818301 
L 360.322314 268.319989 
L 360.818182 266.358314 
L 361.31405 271.27039 
L 361.809917 271.422369 
L 362.305785 269.042819 
L 362.801653 267.667217 
L 363.297521 270.588853 
L 363.793388 270.370711 
L 364.289256 269.840727 
L 364.785124 265.610096 
L 365.280992 266.871685 
L 365.77686 270.058468 
L 366.272727 269.07515 
L 366.768595 270.568842 
L 367.264463 270.737136 
L 367.760331 268.054657 
L 368.256198 270.356648 
L 368.752066 270.360394 
L 369.743802 267.723028 
L 370.239669 267.601317 
L 370.735537 269.782843 
L 371.231405 267.032971 
L 371.727273 265.290085 
L 372.22314 265.421862 
L 373.214876 269.97574 
L 373.710744 270.023861 
L 374.206612 267.409737 
L 374.702479 269.451302 
L 375.198347 268.916071 
L 375.694215 270.410117 
L 376.190083 267.71515 
L 376.68595 267.478697 
L 377.181818 265.859046 
L 377.677686 270.611303 
L 378.173554 267.282732 
L 378.669421 270.111184 
L 379.165289 266.499453 
L 379.661157 269.019337 
L 380.157025 267.915088 
L 380.652893 267.964378 
L 381.14876 268.232887 
L 381.644628 268.121581 
L 382.140496 270.553984 
L 382.636364 269.482361 
L 383.132231 266.114669 
L 383.628099 267.092904 
L 384.123967 268.370138 
L 384.619835 267.464449 
L 385.115702 269.166812 
L 385.61157 267.792826 
L 386.107438 270.618292 
L 386.603306 268.235372 
L 387.099174 268.676754 
L 387.595041 270.450546 
L 388.586777 264.744959 
L 389.082645 270.574398 
L 389.578512 269.745114 
L 390.07438 267.815679 
L 390.570248 268.948648 
L 391.066116 269.063428 
L 391.561983 268.784885 
L 392.057851 268.869426 
L 392.553719 269.514252 
L 393.049587 269.164573 
L 393.545455 270.904875 
L 394.041322 265.318072 
L 394.53719 269.039278 
L 395.033058 268.804725 
L 395.528926 265.943018 
L 396.024793 267.580001 
L 396.520661 268.7553 
L 397.016529 267.914666 
L 397.512397 265.359442 
L 398.008264 269.173591 
L 398.504132 268.76233 
L 399 269.723022 
L 399.991736 267.825821 
L 400.487603 269.145387 
L 401.479339 270.145326 
L 401.975207 269.687775 
L 402.471074 269.79524 
L 402.966942 267.211019 
L 403.46281 267.342618 
L 403.958678 269.046768 
L 404.454545 268.073775 
L 404.950413 267.915849 
L 405.446281 268.762199 
L 405.942149 267.744663 
L 406.438017 271.557091 
L 406.933884 269.346773 
L 407.429752 268.676119 
L 407.92562 266.596943 
L 408.421488 268.902794 
L 408.917355 268.694974 
L 409.413223 269.101775 
L 409.909091 267.871551 
L 410.404959 267.915759 
L 410.900826 267.18018 
L 411.396694 269.643058 
L 411.892562 269.46236 
L 412.38843 268.819384 
L 412.884298 269.005325 
L 413.876033 266.440788 
L 414.371901 270.666161 
L 414.867769 267.479088 
L 415.363636 269.144273 
L 415.859504 269.27061 
L 416.355372 265.753383 
L 416.85124 266.49633 
L 417.347107 268.611701 
L 417.842975 271.761578 
L 418.338843 271.410749 
L 418.834711 265.562906 
L 419.330579 268.142753 
L 419.826446 269.377297 
L 420.322314 269.931065 
L 420.818182 269.052777 
L 421.31405 270.573599 
L 421.809917 267.244344 
L 422.305785 268.470004 
L 422.801653 267.726858 
L 423.297521 270.522064 
L 423.793388 265.653191 
L 424.289256 266.263604 
L 424.785124 270.038983 
L 425.280992 268.579362 
L 425.77686 267.765437 
L 426.272727 268.687708 
L 427.264463 268.98682 
L 427.760331 268.1938 
L 428.256198 269.215748 
L 428.752066 266.777289 
L 429.247934 266.990219 
L 429.743802 267.611796 
L 430.239669 270.235629 
L 430.735537 271.127101 
L 431.231405 268.781524 
L 431.727273 269.795029 
L 432.22314 269.450832 
L 432.719008 270.053569 
L 433.214876 267.064881 
L 433.710744 270.16285 
L 434.206612 270.085398 
L 434.702479 267.676741 
L 435.198347 268.068799 
L 436.190083 269.527613 
L 436.68595 269.14477 
L 437.181818 270.280796 
L 437.677686 268.480146 
L 438.173554 267.910954 
L 438.669421 269.246819 
L 439.165289 268.957667 
L 439.661157 265.1973 
L 440.157025 268.467887 
L 440.652893 266.379027 
L 441.14876 268.038003 
L 441.644628 267.384096 
L 442.140496 269.367363 
L 442.636364 269.436716 
L 443.132231 270.167598 
L 443.628099 270.179799 
L 444.123967 270.917971 
L 444.619835 270.134462 
L 445.115702 266.871911 
L 445.61157 270.014045 
L 446.107438 271.213888 
L 446.603306 271.974896 
L 447.099174 268.251384 
L 447.595041 269.001757 
L 448.090909 272.073373 
L 448.586777 268.200621 
L 449.082645 267.051069 
L 449.578512 270.804234 
L 450.07438 266.90247 
L 451.066116 268.522753 
L 451.561983 266.986078 
L 452.057851 268.455915 
L 452.553719 267.95387 
L 453.049587 271.67138 
L 453.545455 271.459981 
L 454.041322 268.458155 
L 454.53719 272.884741 
L 455.033058 268.200778 
L 455.528926 268.566392 
L 456.024793 271.885899 
L 456.520661 265.48509 
L 457.512397 271.495383 
L 458.504132 269.811714 
L 459 270.01748 
L 459.495868 266.801662 
L 459.991736 267.707902 
L 460.487603 267.51194 
L 460.983471 266.583359 
L 461.479339 267.60638 
L 461.975207 267.592704 
L 462.471074 270.540831 
L 462.966942 269.669511 
L 463.46281 269.21918 
L 463.958678 272.170382 
L 464.454545 269.711925 
L 464.950413 270.21278 
L 465.446281 267.344484 
L 465.942149 270.125538 
L 466.438017 271.176724 
L 466.933884 268.10998 
L 467.429752 267.575493 
L 467.92562 271.602499 
L 468.421488 269.838739 
L 468.917355 267.124718 
L 469.413223 270.88569 
L 469.909091 267.401474 
L 470.404959 266.49508 
L 470.900826 269.027112 
L 471.396694 268.123084 
L 471.892562 270.102389 
L 472.38843 269.565969 
L 472.884298 265.064238 
L 473.380165 270.68288 
L 473.876033 269.947957 
L 474.371901 267.201928 
L 474.867769 272.192285 
L 475.363636 269.181585 
L 475.859504 270.542727 
L 476.355372 273.143052 
L 476.85124 269.08411 
L 477.347107 269.762778 
L 477.842975 267.087977 
L 478.338843 273.050722 
L 478.834711 269.97288 
L 479.330579 269.428848 
L 479.826446 271.89257 
L 480.322314 269.469582 
L 480.818182 269.606846 
L 481.31405 271.416081 
L 481.809917 268.057475 
L 482.305785 269.603649 
L 482.801653 268.811032 
L 483.297521 269.991325 
L 483.793388 268.372123 
L 484.289256 269.273387 
L 484.785124 267.64559 
L 485.280992 270.307705 
L 485.77686 268.130157 
L 486.272727 268.157854 
L 487.264463 270.286685 
L 487.760331 269.467984 
L 488.256198 270.46902 
L 488.752066 268.316128 
L 489.247934 268.37874 
L 489.743802 269.796266 
L 490.239669 270.643757 
L 490.735537 267.160257 
L 491.231405 267.164572 
L 491.727273 268.405292 
L 492.22314 269.194713 
L 492.719008 270.291509 
L 493.214876 269.178263 
L 493.710744 273.00301 
L 494.206612 271.796218 
L 494.702479 268.565504 
L 495.198347 272.009714 
L 495.694215 271.915886 
L 496.190083 269.336963 
L 496.68595 268.818419 
L 497.181818 267.465316 
L 497.677686 270.55909 
L 498.173554 268.068982 
L 498.669421 273.515216 
L 499.165289 273.238012 
L 499.661157 268.732493 
L 500.157025 268.147399 
L 500.652893 268.567272 
L 501.14876 267.969782 
L 501.644628 270.548378 
L 502.140496 270.755557 
L 502.636364 270.811518 
L 503.132231 264.579576 
L 503.628099 271.27329 
L 504.123967 272.749849 
L 504.619835 269.306386 
L 505.115702 270.581138 
L 505.61157 272.775632 
L 506.107438 268.053248 
L 506.603306 271.708865 
L 507.099174 270.15611 
L 507.595041 271.439211 
L 508.090909 267.543361 
L 508.586777 269.252886 
L 509.082645 268.729298 
L 509.578512 270.165105 
L 510.07438 272.109099 
L 510.570248 268.929469 
L 511.066116 267.359393 
L 511.561983 269.496605 
L 512.057851 266.29596 
L 512.553719 267.342771 
L 513.049587 270.561849 
L 513.545455 271.22576 
L 514.041322 272.102537 
L 514.53719 268.07271 
L 515.033058 268.962066 
L 515.528926 270.562778 
L 516.024793 270.411445 
L 516.520661 267.062608 
L 517.016529 267.222395 
L 517.512397 269.800822 
L 518.008264 270.405569 
L 518.504132 267.943599 
L 519 271.706654 
L 519.495868 269.064564 
L 519.991736 270.348798 
L 520.487603 268.618254 
L 521.479339 271.138966 
L 521.975207 269.660208 
L 522.471074 270.027143 
L 522.966942 269.6493 
L 523.46281 268.826552 
L 523.958678 266.613769 
L 524.454545 267.398765 
L 525.446281 273.032693 
L 525.942149 269.259263 
L 526.438017 269.326314 
L 526.933884 268.99371 
L 527.429752 270.29801 
L 527.92562 268.901679 
L 528.421488 269.229721 
L 528.917355 270.484921 
L 529.413223 271.281727 
L 529.909091 269.106249 
L 530.404959 272.031725 
L 530.900826 268.895308 
L 531.396694 268.902413 
L 531.892562 270.316619 
L 532.38843 266.668118 
L 532.884298 267.640679 
L 533.380165 269.587071 
L 533.876033 270.319054 
L 534.371901 270.305294 
L 534.867769 266.746051 
L 535.363636 270.089729 
L 535.859504 269.175315 
L 536.355372 267.894094 
L 536.85124 272.453747 
L 537.347107 270.235195 
L 537.842975 267.506441 
L 538.338843 270.894442 
L 538.834711 266.625575 
L 539.330579 271.447686 
L 539.826446 265.804871 
L 540.322314 266.098152 
L 540.818182 270.034712 
L 541.31405 268.47867 
L 541.809917 268.467285 
L 542.305785 265.259741 
L 542.801653 269.997998 
L 543.297521 271.53573 
L 543.793388 269.310391 
L 544.289256 268.869346 
L 544.785124 269.330395 
L 545.280992 271.359781 
L 545.77686 270.614207 
L 546.272727 268.934514 
L 546.768595 266.156807 
L 547.264463 269.03154 
L 547.760331 265.84225 
L 548.256198 265.857191 
L 548.752066 269.882608 
L 549.247934 270.929925 
L 549.743802 270.17755 
L 550.735537 270.65727 
L 551.231405 270.074356 
L 551.727273 270.513583 
L 552.22314 266.538053 
L 552.719008 271.227019 
L 553.214876 270.029174 
L 553.710744 266.369248 
L 554.206612 268.657342 
L 554.702479 269.892941 
L 555.198347 269.718417 
L 555.694215 267.847274 
L 556.190083 269.491059 
L 556.68595 267.71476 
L 557.181818 269.86703 
L 557.677686 270.797021 
L 558.173554 270.628599 
L 558.669421 269.088457 
L 559.165289 270.937586 
L 559.661157 270.138562 
L 560.157025 272.067741 
L 560.652893 271.477615 
L 561.14876 269.438291 
L 561.644628 269.620856 
L 562.140496 264.352694 
L 562.636364 269.426568 
L 563.132231 268.752284 
L 563.628099 269.569738 
L 564.123967 270.166264 
L 564.619835 268.036987 
L 565.115702 270.841901 
L 566.107438 267.394197 
L 566.603306 267.691225 
L 567.099174 272.831378 
L 567.595041 271.290892 
L 568.090909 268.61215 
L 568.586777 272.432924 
L 569.082645 272.316426 
L 569.578512 267.46556 
L 570.07438 266.640147 
L 570.570248 266.963395 
L 571.066116 270.325423 
L 571.561983 270.835252 
L 572.057851 272.45612 
L 572.553719 269.521766 
L 573.049587 269.856035 
L 573.545455 268.432041 
L 574.041322 268.545794 
L 574.53719 270.673987 
L 575.033058 265.105461 
L 575.528926 268.620193 
L 576.024793 268.784804 
L 576.520661 269.153382 
L 577.016529 271.554893 
L 577.512397 268.641431 
L 578.008264 268.616924 
L 578.504132 268.704076 
L 579 269.387116 
L 579.495868 268.381425 
L 579.991736 266.537274 
L 580.487603 269.290267 
L 580.983471 270.129555 
L 581.479339 271.248453 
L 581.975207 270.236306 
L 582.471074 271.382716 
L 582.966942 269.665627 
L 583.46281 269.914747 
L 583.958678 269.508269 
L 584.454545 269.462553 
L 584.950413 272.836077 
L 585.446281 268.431588 
L 586.438017 268.703114 
L 586.933884 267.760872 
L 587.429752 268.270549 
L 587.92562 268.230261 
L 588.421488 267.818351 
L 588.917355 269.309812 
L 589.413223 268.013418 
L 589.909091 269.894092 
L 590.404959 270.147497 
L 590.900826 268.618026 
L 591.396694 269.143969 
L 591.892562 270.744773 
L 592.38843 269.609262 
L 592.884298 269.700915 
L 593.380165 266.456247 
L 593.876033 268.395998 
L 594.371901 271.389339 
L 594.867769 270.813639 
L 595.363636 267.815724 
L 595.859504 268.998025 
L 596.355372 272.770717 
L 597.347107 269.300042 
L 597.842975 266.606937 
L 598.338843 267.810329 
L 598.834711 271.387486 
L 599.330579 267.401202 
L 599.826446 271.28124 
L 600.322314 267.613784 
L 600.818182 268.103703 
L 601.31405 271.785664 
L 602.305785 271.533418 
L 602.801653 270.682476 
L 603.297521 272.103302 
L 603.793388 269.798409 
L 604.289256 269.592398 
L 604.785124 268.217709 
L 605.77686 267.994797 
L 606.272727 270.300793 
L 606.768595 270.358701 
L 607.264463 272.973763 
L 607.760331 270.202477 
L 608.256198 270.982174 
L 608.752066 267.116466 
L 609.247934 268.087048 
L 609.743802 269.602553 
L 610.239669 268.636753 
L 610.735537 266.894785 
L 611.231405 271.49298 
L 611.727273 268.225783 
L 612.719008 270.482786 
L 613.214876 267.548895 
L 613.710744 266.254026 
L 614.206612 271.031454 
L 614.702479 267.659804 
L 615.198347 268.517649 
L 615.694215 270.173586 
L 616.190083 270.349446 
L 616.68595 271.741205 
L 617.181818 266.815453 
L 617.677686 266.941569 
L 618.173554 270.347791 
L 618.669421 270.187131 
L 619.165289 266.952792 
L 619.661157 267.153145 
L 620.157025 265.272654 
L 620.652893 269.137581 
L 621.14876 266.706546 
L 621.644628 266.032862 
L 622.140496 269.551736 
L 622.636364 267.060034 
L 622.636364 267.060034 
" style="fill:none;stroke:#ff7f0e;stroke-linecap:square;stroke-width:0.5;"/>
   </g>
   <g id="patch_3">
    <path d="M 90 315 
L 90 43.2 
" style="fill:none;stroke:#000000;stroke-linecap:square;stroke-linejoin:miter;stroke-width:0.8;"/>
   </g>
   <g id="patch_4">
    <path d="M 648 315 
L 648 43.2 
" style="fill:none;stroke:#000000;stroke-linecap:square;stroke-linejoin:miter;stroke-width:0.8;"/>
   </g>
   <g id="patch_5">
    <path d="M 90 315 
L 648 315 
" style="fill:none;stroke:#000000;stroke-linecap:square;stroke-linejoin:miter;stroke-width:0.8;"/>
   </g>
   <g id="patch_6">
    <path d="M 90 43.2 
L 648 43.2 
" style="fill:none;stroke:#000000;stroke-linecap:square;stroke-linejoin:miter;stroke-width:0.8;"/>
   </g>
   <g id="text_17">
    <!-- loss -->
    <g transform="translate(357.410625 37.2)scale(0.12 -0.12)">
     <use xlink:href="#DejaVuSans-108"/>
     <use x="27.783203" xlink:href="#DejaVuSans-111"/>
     <use x="88.964844" xlink:href="#DejaVuSans-115"/>
     <use x="141.064453" xlink:href="#DejaVuSans-115"/>
    </g>
   </g>
   <g id="legend_1">
    <g id="patch_7">
     <path d="M 568.846875 80.55625 
L 641 80.55625 
Q 643 80.55625 643 78.55625 
L 643 50.2 
Q 643 48.2 641 48.2 
L 568.846875 48.2 
Q 566.846875 48.2 566.846875 50.2 
L 566.846875 78.55625 
Q 566.846875 80.55625 568.846875 80.55625 
z
" style="fill:#ffffff;opacity:0.8;stroke:#cccccc;stroke-linejoin:miter;"/>
    </g>
    <g id="line2d_31">
     <path d="M 570.846875 56.298437 
L 590.846875 56.298437 
" style="fill:none;stroke:#1f77b4;stroke-linecap:square;stroke-width:0.5;"/>
    </g>
    <g id="line2d_32"/>
    <g id="text_18">
     <!-- train -->
     <defs>
      <path d="M 18.3125 70.21875 
L 18.3125 54.6875 
L 36.8125 54.6875 
L 36.8125 47.703125 
L 18.3125 47.703125 
L 18.3125 18.015625 
Q 18.3125 11.328125 20.140625 9.421875 
Q 21.96875 7.515625 27.59375 7.515625 
L 36.8125 7.515625 
L 36.8125 0 
L 27.59375 0 
Q 17.1875 0 13.234375 3.875 
Q 9.28125 7.765625 9.28125 18.015625 
L 9.28125 47.703125 
L 2.6875 47.703125 
L 2.6875 54.6875 
L 9.28125 54.6875 
L 9.28125 70.21875 
z
" id="DejaVuSans-116"/>
      <path d="M 41.109375 46.296875 
Q 39.59375 47.171875 37.8125 47.578125 
Q 36.03125 48 33.890625 48 
Q 26.265625 48 22.1875 43.046875 
Q 18.109375 38.09375 18.109375 28.8125 
L 18.109375 0 
L 9.078125 0 
L 9.078125 54.6875 
L 18.109375 54.6875 
L 18.109375 46.1875 
Q 20.953125 51.171875 25.484375 53.578125 
Q 30.03125 56 36.53125 56 
Q 37.453125 56 38.578125 55.875 
Q 39.703125 55.765625 41.0625 55.515625 
z
" id="DejaVuSans-114"/>
      <path d="M 34.28125 27.484375 
Q 23.390625 27.484375 19.1875 25 
Q 14.984375 22.515625 14.984375 16.5 
Q 14.984375 11.71875 18.140625 8.90625 
Q 21.296875 6.109375 26.703125 6.109375 
Q 34.1875 6.109375 38.703125 11.40625 
Q 43.21875 16.703125 43.21875 25.484375 
L 43.21875 27.484375 
z
M 52.203125 31.203125 
L 52.203125 0 
L 43.21875 0 
L 43.21875 8.296875 
Q 40.140625 3.328125 35.546875 0.953125 
Q 30.953125 -1.421875 24.3125 -1.421875 
Q 15.921875 -1.421875 10.953125 3.296875 
Q 6 8.015625 6 15.921875 
Q 6 25.140625 12.171875 29.828125 
Q 18.359375 34.515625 30.609375 34.515625 
L 43.21875 34.515625 
L 43.21875 35.40625 
Q 43.21875 41.609375 39.140625 45 
Q 35.0625 48.390625 27.6875 48.390625 
Q 23 48.390625 18.546875 47.265625 
Q 14.109375 46.140625 10.015625 43.890625 
L 10.015625 52.203125 
Q 14.9375 54.109375 19.578125 55.046875 
Q 24.21875 56 28.609375 56 
Q 40.484375 56 46.34375 49.84375 
Q 52.203125 43.703125 52.203125 31.203125 
z
" id="DejaVuSans-97"/>
      <path d="M 9.421875 54.6875 
L 18.40625 54.6875 
L 18.40625 0 
L 9.421875 0 
z
M 9.421875 75.984375 
L 18.40625 75.984375 
L 18.40625 64.59375 
L 9.421875 64.59375 
z
" id="DejaVuSans-105"/>
      <path d="M 54.890625 33.015625 
L 54.890625 0 
L 45.90625 0 
L 45.90625 32.71875 
Q 45.90625 40.484375 42.875 44.328125 
Q 39.84375 48.1875 33.796875 48.1875 
Q 26.515625 48.1875 22.3125 43.546875 
Q 18.109375 38.921875 18.109375 30.90625 
L 18.109375 0 
L 9.078125 0 
L 9.078125 54.6875 
L 18.109375 54.6875 
L 18.109375 46.1875 
Q 21.34375 51.125 25.703125 53.5625 
Q 30.078125 56 35.796875 56 
Q 45.21875 56 50.046875 50.171875 
Q 54.890625 44.34375 54.890625 33.015625 
z
" id="DejaVuSans-110"/>
     </defs>
     <g transform="translate(598.846875 59.798437)scale(0.1 -0.1)">
      <use xlink:href="#DejaVuSans-116"/>
      <use x="39.208984" xlink:href="#DejaVuSans-114"/>
      <use x="80.322266" xlink:href="#DejaVuSans-97"/>
      <use x="141.601562" xlink:href="#DejaVuSans-105"/>
      <use x="169.384766" xlink:href="#DejaVuSans-110"/>
     </g>
    </g>
    <g id="line2d_33">
     <path d="M 570.846875 70.976562 
L 590.846875 70.976562 
" style="fill:none;stroke:#ff7f0e;stroke-linecap:square;stroke-width:0.5;"/>
    </g>
    <g id="line2d_34"/>
    <g id="text_19">
     <!-- validate -->
     <defs>
      <path d="M 2.984375 54.6875 
L 12.5 54.6875 
L 29.59375 8.796875 
L 46.6875 54.6875 
L 56.203125 54.6875 
L 35.6875 0 
L 23.484375 0 
z
" id="DejaVuSans-118"/>
      <path d="M 45.40625 46.390625 
L 45.40625 75.984375 
L 54.390625 75.984375 
L 54.390625 0 
L 45.40625 0 
L 45.40625 8.203125 
Q 42.578125 3.328125 38.25 0.953125 
Q 33.9375 -1.421875 27.875 -1.421875 
Q 17.96875 -1.421875 11.734375 6.484375 
Q 5.515625 14.40625 5.515625 27.296875 
Q 5.515625 40.1875 11.734375 48.09375 
Q 17.96875 56 27.875 56 
Q 33.9375 56 38.25 53.625 
Q 42.578125 51.265625 45.40625 46.390625 
z
M 14.796875 27.296875 
Q 14.796875 17.390625 18.875 11.75 
Q 22.953125 6.109375 30.078125 6.109375 
Q 37.203125 6.109375 41.296875 11.75 
Q 45.40625 17.390625 45.40625 27.296875 
Q 45.40625 37.203125 41.296875 42.84375 
Q 37.203125 48.484375 30.078125 48.484375 
Q 22.953125 48.484375 18.875 42.84375 
Q 14.796875 37.203125 14.796875 27.296875 
z
" id="DejaVuSans-100"/>
     </defs>
     <g transform="translate(598.846875 74.476562)scale(0.1 -0.1)">
      <use xlink:href="#DejaVuSans-118"/>
      <use x="59.179688" xlink:href="#DejaVuSans-97"/>
      <use x="120.458984" xlink:href="#DejaVuSans-108"/>
      <use x="148.242188" xlink:href="#DejaVuSans-105"/>
      <use x="176.025391" xlink:href="#DejaVuSans-100"/>
      <use x="239.501953" xlink:href="#DejaVuSans-97"/>
      <use x="300.78125" xlink:href="#DejaVuSans-116"/>
      <use x="339.990234" xlink:href="#DejaVuSans-101"/>
     </g>
    </g>
   </g>
  </g>
 </g>
 <defs>
  <clipPath id="p50d0061589">
   <rect height="271.8" width="558" x="90" y="43.2"/>
  </clipPath>
 </defs>
</svg>
