<?xml version="1.0" encoding="utf-8" standalone="no"?>
<!DOCTYPE svg PUBLIC "-//W3C//DTD SVG 1.1//EN"
  "http://www.w3.org/Graphics/SVG/1.1/DTD/svg11.dtd">
<!-- Created with matplotlib (https://matplotlib.org/) -->
<svg height="360pt" version="1.1" viewBox="0 0 720 360" width="720pt" xmlns="http://www.w3.org/2000/svg" xmlns:xlink="http://www.w3.org/1999/xlink">
 <defs>
  <style type="text/css">
*{stroke-linecap:butt;stroke-linejoin:round;}
  </style>
 </defs>
 <g id="figure_1">
  <g id="patch_1">
   <path d="M 0 360 
L 720 360 
L 720 0 
L 0 0 
z
" style="fill:#ffffff;"/>
  </g>
  <g id="axes_1">
   <g id="patch_2">
    <path d="M 90 315 
L 648 315 
L 648 43.2 
L 90 43.2 
z
" style="fill:#ffffff;"/>
   </g>
   <g id="matplotlib.axis_1">
    <g id="xtick_1">
     <g id="line2d_1">
      <path clip-path="url(#pce395e5b9f)" d="M 115.363636 315 
L 115.363636 43.2 
" style="fill:none;stroke:#b0b0b0;stroke-linecap:square;stroke-width:0.8;"/>
     </g>
     <g id="line2d_2">
      <defs>
       <path d="M 0 0 
L 0 3.5 
" id="m3aee38a69f" style="stroke:#000000;stroke-width:0.8;"/>
      </defs>
      <g>
       <use style="stroke:#000000;stroke-width:0.8;" x="115.363636" xlink:href="#m3aee38a69f" y="315"/>
      </g>
     </g>
     <g id="text_1">
      <!-- 0 -->
      <defs>
       <path d="M 31.78125 66.40625 
Q 24.171875 66.40625 20.328125 58.90625 
Q 16.5 51.421875 16.5 36.375 
Q 16.5 21.390625 20.328125 13.890625 
Q 24.171875 6.390625 31.78125 6.390625 
Q 39.453125 6.390625 43.28125 13.890625 
Q 47.125 21.390625 47.125 36.375 
Q 47.125 51.421875 43.28125 58.90625 
Q 39.453125 66.40625 31.78125 66.40625 
z
M 31.78125 74.21875 
Q 44.046875 74.21875 50.515625 64.515625 
Q 56.984375 54.828125 56.984375 36.375 
Q 56.984375 17.96875 50.515625 8.265625 
Q 44.046875 -1.421875 31.78125 -1.421875 
Q 19.53125 -1.421875 13.0625 8.265625 
Q 6.59375 17.96875 6.59375 36.375 
Q 6.59375 54.828125 13.0625 64.515625 
Q 19.53125 74.21875 31.78125 74.21875 
z
" id="DejaVuSans-48"/>
      </defs>
      <g transform="translate(112.182386 329.598437)scale(0.1 -0.1)">
       <use xlink:href="#DejaVuSans-48"/>
      </g>
     </g>
    </g>
    <g id="xtick_2">
     <g id="line2d_3">
      <path clip-path="url(#pce395e5b9f)" d="M 214.53719 315 
L 214.53719 43.2 
" style="fill:none;stroke:#b0b0b0;stroke-linecap:square;stroke-width:0.8;"/>
     </g>
     <g id="line2d_4">
      <g>
       <use style="stroke:#000000;stroke-width:0.8;" x="214.53719" xlink:href="#m3aee38a69f" y="315"/>
      </g>
     </g>
     <g id="text_2">
      <!-- 200 -->
      <defs>
       <path d="M 19.1875 8.296875 
L 53.609375 8.296875 
L 53.609375 0 
L 7.328125 0 
L 7.328125 8.296875 
Q 12.9375 14.109375 22.625 23.890625 
Q 32.328125 33.6875 34.8125 36.53125 
Q 39.546875 41.84375 41.421875 45.53125 
Q 43.3125 49.21875 43.3125 52.78125 
Q 43.3125 58.59375 39.234375 62.25 
Q 35.15625 65.921875 28.609375 65.921875 
Q 23.96875 65.921875 18.8125 64.3125 
Q 13.671875 62.703125 7.8125 59.421875 
L 7.8125 69.390625 
Q 13.765625 71.78125 18.9375 73 
Q 24.125 74.21875 28.421875 74.21875 
Q 39.75 74.21875 46.484375 68.546875 
Q 53.21875 62.890625 53.21875 53.421875 
Q 53.21875 48.921875 51.53125 44.890625 
Q 49.859375 40.875 45.40625 35.40625 
Q 44.1875 33.984375 37.640625 27.21875 
Q 31.109375 20.453125 19.1875 8.296875 
z
" id="DejaVuSans-50"/>
      </defs>
      <g transform="translate(204.99344 329.598437)scale(0.1 -0.1)">
       <use xlink:href="#DejaVuSans-50"/>
       <use x="63.623047" xlink:href="#DejaVuSans-48"/>
       <use x="127.246094" xlink:href="#DejaVuSans-48"/>
      </g>
     </g>
    </g>
    <g id="xtick_3">
     <g id="line2d_5">
      <path clip-path="url(#pce395e5b9f)" d="M 313.710744 315 
L 313.710744 43.2 
" style="fill:none;stroke:#b0b0b0;stroke-linecap:square;stroke-width:0.8;"/>
     </g>
     <g id="line2d_6">
      <g>
       <use style="stroke:#000000;stroke-width:0.8;" x="313.710744" xlink:href="#m3aee38a69f" y="315"/>
      </g>
     </g>
     <g id="text_3">
      <!-- 400 -->
      <defs>
       <path d="M 37.796875 64.3125 
L 12.890625 25.390625 
L 37.796875 25.390625 
z
M 35.203125 72.90625 
L 47.609375 72.90625 
L 47.609375 25.390625 
L 58.015625 25.390625 
L 58.015625 17.1875 
L 47.609375 17.1875 
L 47.609375 0 
L 37.796875 0 
L 37.796875 17.1875 
L 4.890625 17.1875 
L 4.890625 26.703125 
z
" id="DejaVuSans-52"/>
      </defs>
      <g transform="translate(304.166994 329.598437)scale(0.1 -0.1)">
       <use xlink:href="#DejaVuSans-52"/>
       <use x="63.623047" xlink:href="#DejaVuSans-48"/>
       <use x="127.246094" xlink:href="#DejaVuSans-48"/>
      </g>
     </g>
    </g>
    <g id="xtick_4">
     <g id="line2d_7">
      <path clip-path="url(#pce395e5b9f)" d="M 412.884298 315 
L 412.884298 43.2 
" style="fill:none;stroke:#b0b0b0;stroke-linecap:square;stroke-width:0.8;"/>
     </g>
     <g id="line2d_8">
      <g>
       <use style="stroke:#000000;stroke-width:0.8;" x="412.884298" xlink:href="#m3aee38a69f" y="315"/>
      </g>
     </g>
     <g id="text_4">
      <!-- 600 -->
      <defs>
       <path d="M 33.015625 40.375 
Q 26.375 40.375 22.484375 35.828125 
Q 18.609375 31.296875 18.609375 23.390625 
Q 18.609375 15.53125 22.484375 10.953125 
Q 26.375 6.390625 33.015625 6.390625 
Q 39.65625 6.390625 43.53125 10.953125 
Q 47.40625 15.53125 47.40625 23.390625 
Q 47.40625 31.296875 43.53125 35.828125 
Q 39.65625 40.375 33.015625 40.375 
z
M 52.59375 71.296875 
L 52.59375 62.3125 
Q 48.875 64.0625 45.09375 64.984375 
Q 41.3125 65.921875 37.59375 65.921875 
Q 27.828125 65.921875 22.671875 59.328125 
Q 17.53125 52.734375 16.796875 39.40625 
Q 19.671875 43.65625 24.015625 45.921875 
Q 28.375 48.1875 33.59375 48.1875 
Q 44.578125 48.1875 50.953125 41.515625 
Q 57.328125 34.859375 57.328125 23.390625 
Q 57.328125 12.15625 50.6875 5.359375 
Q 44.046875 -1.421875 33.015625 -1.421875 
Q 20.359375 -1.421875 13.671875 8.265625 
Q 6.984375 17.96875 6.984375 36.375 
Q 6.984375 53.65625 15.1875 63.9375 
Q 23.390625 74.21875 37.203125 74.21875 
Q 40.921875 74.21875 44.703125 73.484375 
Q 48.484375 72.75 52.59375 71.296875 
z
" id="DejaVuSans-54"/>
      </defs>
      <g transform="translate(403.340548 329.598437)scale(0.1 -0.1)">
       <use xlink:href="#DejaVuSans-54"/>
       <use x="63.623047" xlink:href="#DejaVuSans-48"/>
       <use x="127.246094" xlink:href="#DejaVuSans-48"/>
      </g>
     </g>
    </g>
    <g id="xtick_5">
     <g id="line2d_9">
      <path clip-path="url(#pce395e5b9f)" d="M 512.057851 315 
L 512.057851 43.2 
" style="fill:none;stroke:#b0b0b0;stroke-linecap:square;stroke-width:0.8;"/>
     </g>
     <g id="line2d_10">
      <g>
       <use style="stroke:#000000;stroke-width:0.8;" x="512.057851" xlink:href="#m3aee38a69f" y="315"/>
      </g>
     </g>
     <g id="text_5">
      <!-- 800 -->
      <defs>
       <path d="M 31.78125 34.625 
Q 24.75 34.625 20.71875 30.859375 
Q 16.703125 27.09375 16.703125 20.515625 
Q 16.703125 13.921875 20.71875 10.15625 
Q 24.75 6.390625 31.78125 6.390625 
Q 38.8125 6.390625 42.859375 10.171875 
Q 46.921875 13.96875 46.921875 20.515625 
Q 46.921875 27.09375 42.890625 30.859375 
Q 38.875 34.625 31.78125 34.625 
z
M 21.921875 38.8125 
Q 15.578125 40.375 12.03125 44.71875 
Q 8.5 49.078125 8.5 55.328125 
Q 8.5 64.0625 14.71875 69.140625 
Q 20.953125 74.21875 31.78125 74.21875 
Q 42.671875 74.21875 48.875 69.140625 
Q 55.078125 64.0625 55.078125 55.328125 
Q 55.078125 49.078125 51.53125 44.71875 
Q 48 40.375 41.703125 38.8125 
Q 48.828125 37.15625 52.796875 32.3125 
Q 56.78125 27.484375 56.78125 20.515625 
Q 56.78125 9.90625 50.3125 4.234375 
Q 43.84375 -1.421875 31.78125 -1.421875 
Q 19.734375 -1.421875 13.25 4.234375 
Q 6.78125 9.90625 6.78125 20.515625 
Q 6.78125 27.484375 10.78125 32.3125 
Q 14.796875 37.15625 21.921875 38.8125 
z
M 18.3125 54.390625 
Q 18.3125 48.734375 21.84375 45.5625 
Q 25.390625 42.390625 31.78125 42.390625 
Q 38.140625 42.390625 41.71875 45.5625 
Q 45.3125 48.734375 45.3125 54.390625 
Q 45.3125 60.0625 41.71875 63.234375 
Q 38.140625 66.40625 31.78125 66.40625 
Q 25.390625 66.40625 21.84375 63.234375 
Q 18.3125 60.0625 18.3125 54.390625 
z
" id="DejaVuSans-56"/>
      </defs>
      <g transform="translate(502.514101 329.598437)scale(0.1 -0.1)">
       <use xlink:href="#DejaVuSans-56"/>
       <use x="63.623047" xlink:href="#DejaVuSans-48"/>
       <use x="127.246094" xlink:href="#DejaVuSans-48"/>
      </g>
     </g>
    </g>
    <g id="xtick_6">
     <g id="line2d_11">
      <path clip-path="url(#pce395e5b9f)" d="M 611.231405 315 
L 611.231405 43.2 
" style="fill:none;stroke:#b0b0b0;stroke-linecap:square;stroke-width:0.8;"/>
     </g>
     <g id="line2d_12">
      <g>
       <use style="stroke:#000000;stroke-width:0.8;" x="611.231405" xlink:href="#m3aee38a69f" y="315"/>
      </g>
     </g>
     <g id="text_6">
      <!-- 1000 -->
      <defs>
       <path d="M 12.40625 8.296875 
L 28.515625 8.296875 
L 28.515625 63.921875 
L 10.984375 60.40625 
L 10.984375 69.390625 
L 28.421875 72.90625 
L 38.28125 72.90625 
L 38.28125 8.296875 
L 54.390625 8.296875 
L 54.390625 0 
L 12.40625 0 
z
" id="DejaVuSans-49"/>
      </defs>
      <g transform="translate(598.506405 329.598437)scale(0.1 -0.1)">
       <use xlink:href="#DejaVuSans-49"/>
       <use x="63.623047" xlink:href="#DejaVuSans-48"/>
       <use x="127.246094" xlink:href="#DejaVuSans-48"/>
       <use x="190.869141" xlink:href="#DejaVuSans-48"/>
      </g>
     </g>
    </g>
    <g id="text_7">
     <!-- epoch -->
     <defs>
      <path d="M 56.203125 29.59375 
L 56.203125 25.203125 
L 14.890625 25.203125 
Q 15.484375 15.921875 20.484375 11.0625 
Q 25.484375 6.203125 34.421875 6.203125 
Q 39.59375 6.203125 44.453125 7.46875 
Q 49.3125 8.734375 54.109375 11.28125 
L 54.109375 2.78125 
Q 49.265625 0.734375 44.1875 -0.34375 
Q 39.109375 -1.421875 33.890625 -1.421875 
Q 20.796875 -1.421875 13.15625 6.1875 
Q 5.515625 13.8125 5.515625 26.8125 
Q 5.515625 40.234375 12.765625 48.109375 
Q 20.015625 56 32.328125 56 
Q 43.359375 56 49.78125 48.890625 
Q 56.203125 41.796875 56.203125 29.59375 
z
M 47.21875 32.234375 
Q 47.125 39.59375 43.09375 43.984375 
Q 39.0625 48.390625 32.421875 48.390625 
Q 24.90625 48.390625 20.390625 44.140625 
Q 15.875 39.890625 15.1875 32.171875 
z
" id="DejaVuSans-101"/>
      <path d="M 18.109375 8.203125 
L 18.109375 -20.796875 
L 9.078125 -20.796875 
L 9.078125 54.6875 
L 18.109375 54.6875 
L 18.109375 46.390625 
Q 20.953125 51.265625 25.265625 53.625 
Q 29.59375 56 35.59375 56 
Q 45.5625 56 51.78125 48.09375 
Q 58.015625 40.1875 58.015625 27.296875 
Q 58.015625 14.40625 51.78125 6.484375 
Q 45.5625 -1.421875 35.59375 -1.421875 
Q 29.59375 -1.421875 25.265625 0.953125 
Q 20.953125 3.328125 18.109375 8.203125 
z
M 48.6875 27.296875 
Q 48.6875 37.203125 44.609375 42.84375 
Q 40.53125 48.484375 33.40625 48.484375 
Q 26.265625 48.484375 22.1875 42.84375 
Q 18.109375 37.203125 18.109375 27.296875 
Q 18.109375 17.390625 22.1875 11.75 
Q 26.265625 6.109375 33.40625 6.109375 
Q 40.53125 6.109375 44.609375 11.75 
Q 48.6875 17.390625 48.6875 27.296875 
z
" id="DejaVuSans-112"/>
      <path d="M 30.609375 48.390625 
Q 23.390625 48.390625 19.1875 42.75 
Q 14.984375 37.109375 14.984375 27.296875 
Q 14.984375 17.484375 19.15625 11.84375 
Q 23.34375 6.203125 30.609375 6.203125 
Q 37.796875 6.203125 41.984375 11.859375 
Q 46.1875 17.53125 46.1875 27.296875 
Q 46.1875 37.015625 41.984375 42.703125 
Q 37.796875 48.390625 30.609375 48.390625 
z
M 30.609375 56 
Q 42.328125 56 49.015625 48.375 
Q 55.71875 40.765625 55.71875 27.296875 
Q 55.71875 13.875 49.015625 6.21875 
Q 42.328125 -1.421875 30.609375 -1.421875 
Q 18.84375 -1.421875 12.171875 6.21875 
Q 5.515625 13.875 5.515625 27.296875 
Q 5.515625 40.765625 12.171875 48.375 
Q 18.84375 56 30.609375 56 
z
" id="DejaVuSans-111"/>
      <path d="M 48.78125 52.59375 
L 48.78125 44.1875 
Q 44.96875 46.296875 41.140625 47.34375 
Q 37.3125 48.390625 33.40625 48.390625 
Q 24.65625 48.390625 19.8125 42.84375 
Q 14.984375 37.3125 14.984375 27.296875 
Q 14.984375 17.28125 19.8125 11.734375 
Q 24.65625 6.203125 33.40625 6.203125 
Q 37.3125 6.203125 41.140625 7.25 
Q 44.96875 8.296875 48.78125 10.40625 
L 48.78125 2.09375 
Q 45.015625 0.34375 40.984375 -0.53125 
Q 36.96875 -1.421875 32.421875 -1.421875 
Q 20.0625 -1.421875 12.78125 6.34375 
Q 5.515625 14.109375 5.515625 27.296875 
Q 5.515625 40.671875 12.859375 48.328125 
Q 20.21875 56 33.015625 56 
Q 37.15625 56 41.109375 55.140625 
Q 45.0625 54.296875 48.78125 52.59375 
z
" id="DejaVuSans-99"/>
      <path d="M 54.890625 33.015625 
L 54.890625 0 
L 45.90625 0 
L 45.90625 32.71875 
Q 45.90625 40.484375 42.875 44.328125 
Q 39.84375 48.1875 33.796875 48.1875 
Q 26.515625 48.1875 22.3125 43.546875 
Q 18.109375 38.921875 18.109375 30.90625 
L 18.109375 0 
L 9.078125 0 
L 9.078125 75.984375 
L 18.109375 75.984375 
L 18.109375 46.1875 
Q 21.34375 51.125 25.703125 53.5625 
Q 30.078125 56 35.796875 56 
Q 45.21875 56 50.046875 50.171875 
Q 54.890625 44.34375 54.890625 33.015625 
z
" id="DejaVuSans-104"/>
     </defs>
     <g transform="translate(353.771875 343.276563)scale(0.1 -0.1)">
      <use xlink:href="#DejaVuSans-101"/>
      <use x="61.523438" xlink:href="#DejaVuSans-112"/>
      <use x="125" xlink:href="#DejaVuSans-111"/>
      <use x="186.181641" xlink:href="#DejaVuSans-99"/>
      <use x="241.162109" xlink:href="#DejaVuSans-104"/>
     </g>
    </g>
   </g>
   <g id="matplotlib.axis_2">
    <g id="ytick_1">
     <g id="line2d_13">
      <path clip-path="url(#pce395e5b9f)" d="M 90 284.044423 
L 648 284.044423 
" style="fill:none;stroke:#b0b0b0;stroke-linecap:square;stroke-width:0.8;"/>
     </g>
     <g id="line2d_14">
      <defs>
       <path d="M 0 0 
L -3.5 0 
" id="mb6a2e61eca" style="stroke:#000000;stroke-width:0.8;"/>
      </defs>
      <g>
       <use style="stroke:#000000;stroke-width:0.8;" x="90" xlink:href="#mb6a2e61eca" y="284.044423"/>
      </g>
     </g>
     <g id="text_8">
      <!-- 0.3 -->
      <defs>
       <path d="M 10.6875 12.40625 
L 21 12.40625 
L 21 0 
L 10.6875 0 
z
" id="DejaVuSans-46"/>
       <path d="M 40.578125 39.3125 
Q 47.65625 37.796875 51.625 33 
Q 55.609375 28.21875 55.609375 21.1875 
Q 55.609375 10.40625 48.1875 4.484375 
Q 40.765625 -1.421875 27.09375 -1.421875 
Q 22.515625 -1.421875 17.65625 -0.515625 
Q 12.796875 0.390625 7.625 2.203125 
L 7.625 11.71875 
Q 11.71875 9.328125 16.59375 8.109375 
Q 21.484375 6.890625 26.8125 6.890625 
Q 36.078125 6.890625 40.9375 10.546875 
Q 45.796875 14.203125 45.796875 21.1875 
Q 45.796875 27.640625 41.28125 31.265625 
Q 36.765625 34.90625 28.71875 34.90625 
L 20.21875 34.90625 
L 20.21875 43.015625 
L 29.109375 43.015625 
Q 36.375 43.015625 40.234375 45.921875 
Q 44.09375 48.828125 44.09375 54.296875 
Q 44.09375 59.90625 40.109375 62.90625 
Q 36.140625 65.921875 28.71875 65.921875 
Q 24.65625 65.921875 20.015625 65.03125 
Q 15.375 64.15625 9.8125 62.3125 
L 9.8125 71.09375 
Q 15.4375 72.65625 20.34375 73.4375 
Q 25.25 74.21875 29.59375 74.21875 
Q 40.828125 74.21875 47.359375 69.109375 
Q 53.90625 64.015625 53.90625 55.328125 
Q 53.90625 49.265625 50.4375 45.09375 
Q 46.96875 40.921875 40.578125 39.3125 
z
" id="DejaVuSans-51"/>
      </defs>
      <g transform="translate(67.096875 287.843642)scale(0.1 -0.1)">
       <use xlink:href="#DejaVuSans-48"/>
       <use x="63.623047" xlink:href="#DejaVuSans-46"/>
       <use x="95.410156" xlink:href="#DejaVuSans-51"/>
      </g>
     </g>
    </g>
    <g id="ytick_2">
     <g id="line2d_15">
      <path clip-path="url(#pce395e5b9f)" d="M 90 249.437853 
L 648 249.437853 
" style="fill:none;stroke:#b0b0b0;stroke-linecap:square;stroke-width:0.8;"/>
     </g>
     <g id="line2d_16">
      <g>
       <use style="stroke:#000000;stroke-width:0.8;" x="90" xlink:href="#mb6a2e61eca" y="249.437853"/>
      </g>
     </g>
     <g id="text_9">
      <!-- 0.4 -->
      <g transform="translate(67.096875 253.237072)scale(0.1 -0.1)">
       <use xlink:href="#DejaVuSans-48"/>
       <use x="63.623047" xlink:href="#DejaVuSans-46"/>
       <use x="95.410156" xlink:href="#DejaVuSans-52"/>
      </g>
     </g>
    </g>
    <g id="ytick_3">
     <g id="line2d_17">
      <path clip-path="url(#pce395e5b9f)" d="M 90 214.831283 
L 648 214.831283 
" style="fill:none;stroke:#b0b0b0;stroke-linecap:square;stroke-width:0.8;"/>
     </g>
     <g id="line2d_18">
      <g>
       <use style="stroke:#000000;stroke-width:0.8;" x="90" xlink:href="#mb6a2e61eca" y="214.831283"/>
      </g>
     </g>
     <g id="text_10">
      <!-- 0.5 -->
      <defs>
       <path d="M 10.796875 72.90625 
L 49.515625 72.90625 
L 49.515625 64.59375 
L 19.828125 64.59375 
L 19.828125 46.734375 
Q 21.96875 47.46875 24.109375 47.828125 
Q 26.265625 48.1875 28.421875 48.1875 
Q 40.625 48.1875 47.75 41.5 
Q 54.890625 34.8125 54.890625 23.390625 
Q 54.890625 11.625 47.5625 5.09375 
Q 40.234375 -1.421875 26.90625 -1.421875 
Q 22.3125 -1.421875 17.546875 -0.640625 
Q 12.796875 0.140625 7.71875 1.703125 
L 7.71875 11.625 
Q 12.109375 9.234375 16.796875 8.0625 
Q 21.484375 6.890625 26.703125 6.890625 
Q 35.15625 6.890625 40.078125 11.328125 
Q 45.015625 15.765625 45.015625 23.390625 
Q 45.015625 31 40.078125 35.4375 
Q 35.15625 39.890625 26.703125 39.890625 
Q 22.75 39.890625 18.8125 39.015625 
Q 14.890625 38.140625 10.796875 36.28125 
z
" id="DejaVuSans-53"/>
      </defs>
      <g transform="translate(67.096875 218.630502)scale(0.1 -0.1)">
       <use xlink:href="#DejaVuSans-48"/>
       <use x="63.623047" xlink:href="#DejaVuSans-46"/>
       <use x="95.410156" xlink:href="#DejaVuSans-53"/>
      </g>
     </g>
    </g>
    <g id="ytick_4">
     <g id="line2d_19">
      <path clip-path="url(#pce395e5b9f)" d="M 90 180.224714 
L 648 180.224714 
" style="fill:none;stroke:#b0b0b0;stroke-linecap:square;stroke-width:0.8;"/>
     </g>
     <g id="line2d_20">
      <g>
       <use style="stroke:#000000;stroke-width:0.8;" x="90" xlink:href="#mb6a2e61eca" y="180.224714"/>
      </g>
     </g>
     <g id="text_11">
      <!-- 0.6 -->
      <g transform="translate(67.096875 184.023932)scale(0.1 -0.1)">
       <use xlink:href="#DejaVuSans-48"/>
       <use x="63.623047" xlink:href="#DejaVuSans-46"/>
       <use x="95.410156" xlink:href="#DejaVuSans-54"/>
      </g>
     </g>
    </g>
    <g id="ytick_5">
     <g id="line2d_21">
      <path clip-path="url(#pce395e5b9f)" d="M 90 145.618144 
L 648 145.618144 
" style="fill:none;stroke:#b0b0b0;stroke-linecap:square;stroke-width:0.8;"/>
     </g>
     <g id="line2d_22">
      <g>
       <use style="stroke:#000000;stroke-width:0.8;" x="90" xlink:href="#mb6a2e61eca" y="145.618144"/>
      </g>
     </g>
     <g id="text_12">
      <!-- 0.7 -->
      <defs>
       <path d="M 8.203125 72.90625 
L 55.078125 72.90625 
L 55.078125 68.703125 
L 28.609375 0 
L 18.3125 0 
L 43.21875 64.59375 
L 8.203125 64.59375 
z
" id="DejaVuSans-55"/>
      </defs>
      <g transform="translate(67.096875 149.417362)scale(0.1 -0.1)">
       <use xlink:href="#DejaVuSans-48"/>
       <use x="63.623047" xlink:href="#DejaVuSans-46"/>
       <use x="95.410156" xlink:href="#DejaVuSans-55"/>
      </g>
     </g>
    </g>
    <g id="ytick_6">
     <g id="line2d_23">
      <path clip-path="url(#pce395e5b9f)" d="M 90 111.011574 
L 648 111.011574 
" style="fill:none;stroke:#b0b0b0;stroke-linecap:square;stroke-width:0.8;"/>
     </g>
     <g id="line2d_24">
      <g>
       <use style="stroke:#000000;stroke-width:0.8;" x="90" xlink:href="#mb6a2e61eca" y="111.011574"/>
      </g>
     </g>
     <g id="text_13">
      <!-- 0.8 -->
      <g transform="translate(67.096875 114.810792)scale(0.1 -0.1)">
       <use xlink:href="#DejaVuSans-48"/>
       <use x="63.623047" xlink:href="#DejaVuSans-46"/>
       <use x="95.410156" xlink:href="#DejaVuSans-56"/>
      </g>
     </g>
    </g>
    <g id="ytick_7">
     <g id="line2d_25">
      <path clip-path="url(#pce395e5b9f)" d="M 90 76.405004 
L 648 76.405004 
" style="fill:none;stroke:#b0b0b0;stroke-linecap:square;stroke-width:0.8;"/>
     </g>
     <g id="line2d_26">
      <g>
       <use style="stroke:#000000;stroke-width:0.8;" x="90" xlink:href="#mb6a2e61eca" y="76.405004"/>
      </g>
     </g>
     <g id="text_14">
      <!-- 0.9 -->
      <defs>
       <path d="M 10.984375 1.515625 
L 10.984375 10.5 
Q 14.703125 8.734375 18.5 7.8125 
Q 22.3125 6.890625 25.984375 6.890625 
Q 35.75 6.890625 40.890625 13.453125 
Q 46.046875 20.015625 46.78125 33.40625 
Q 43.953125 29.203125 39.59375 26.953125 
Q 35.25 24.703125 29.984375 24.703125 
Q 19.046875 24.703125 12.671875 31.3125 
Q 6.296875 37.9375 6.296875 49.421875 
Q 6.296875 60.640625 12.9375 67.421875 
Q 19.578125 74.21875 30.609375 74.21875 
Q 43.265625 74.21875 49.921875 64.515625 
Q 56.59375 54.828125 56.59375 36.375 
Q 56.59375 19.140625 48.40625 8.859375 
Q 40.234375 -1.421875 26.421875 -1.421875 
Q 22.703125 -1.421875 18.890625 -0.6875 
Q 15.09375 0.046875 10.984375 1.515625 
z
M 30.609375 32.421875 
Q 37.25 32.421875 41.125 36.953125 
Q 45.015625 41.5 45.015625 49.421875 
Q 45.015625 57.28125 41.125 61.84375 
Q 37.25 66.40625 30.609375 66.40625 
Q 23.96875 66.40625 20.09375 61.84375 
Q 16.21875 57.28125 16.21875 49.421875 
Q 16.21875 41.5 20.09375 36.953125 
Q 23.96875 32.421875 30.609375 32.421875 
z
" id="DejaVuSans-57"/>
      </defs>
      <g transform="translate(67.096875 80.204223)scale(0.1 -0.1)">
       <use xlink:href="#DejaVuSans-48"/>
       <use x="63.623047" xlink:href="#DejaVuSans-46"/>
       <use x="95.410156" xlink:href="#DejaVuSans-57"/>
      </g>
     </g>
    </g>
    <g id="text_15">
     <!-- accuracy -->
     <defs>
      <path d="M 34.28125 27.484375 
Q 23.390625 27.484375 19.1875 25 
Q 14.984375 22.515625 14.984375 16.5 
Q 14.984375 11.71875 18.140625 8.90625 
Q 21.296875 6.109375 26.703125 6.109375 
Q 34.1875 6.109375 38.703125 11.40625 
Q 43.21875 16.703125 43.21875 25.484375 
L 43.21875 27.484375 
z
M 52.203125 31.203125 
L 52.203125 0 
L 43.21875 0 
L 43.21875 8.296875 
Q 40.140625 3.328125 35.546875 0.953125 
Q 30.953125 -1.421875 24.3125 -1.421875 
Q 15.921875 -1.421875 10.953125 3.296875 
Q 6 8.015625 6 15.921875 
Q 6 25.140625 12.171875 29.828125 
Q 18.359375 34.515625 30.609375 34.515625 
L 43.21875 34.515625 
L 43.21875 35.40625 
Q 43.21875 41.609375 39.140625 45 
Q 35.0625 48.390625 27.6875 48.390625 
Q 23 48.390625 18.546875 47.265625 
Q 14.109375 46.140625 10.015625 43.890625 
L 10.015625 52.203125 
Q 14.9375 54.109375 19.578125 55.046875 
Q 24.21875 56 28.609375 56 
Q 40.484375 56 46.34375 49.84375 
Q 52.203125 43.703125 52.203125 31.203125 
z
" id="DejaVuSans-97"/>
      <path d="M 8.5 21.578125 
L 8.5 54.6875 
L 17.484375 54.6875 
L 17.484375 21.921875 
Q 17.484375 14.15625 20.5 10.265625 
Q 23.53125 6.390625 29.59375 6.390625 
Q 36.859375 6.390625 41.078125 11.03125 
Q 45.3125 15.671875 45.3125 23.6875 
L 45.3125 54.6875 
L 54.296875 54.6875 
L 54.296875 0 
L 45.3125 0 
L 45.3125 8.40625 
Q 42.046875 3.421875 37.71875 1 
Q 33.40625 -1.421875 27.6875 -1.421875 
Q 18.265625 -1.421875 13.375 4.4375 
Q 8.5 10.296875 8.5 21.578125 
z
M 31.109375 56 
z
" id="DejaVuSans-117"/>
      <path d="M 41.109375 46.296875 
Q 39.59375 47.171875 37.8125 47.578125 
Q 36.03125 48 33.890625 48 
Q 26.265625 48 22.1875 43.046875 
Q 18.109375 38.09375 18.109375 28.8125 
L 18.109375 0 
L 9.078125 0 
L 9.078125 54.6875 
L 18.109375 54.6875 
L 18.109375 46.1875 
Q 20.953125 51.171875 25.484375 53.578125 
Q 30.03125 56 36.53125 56 
Q 37.453125 56 38.578125 55.875 
Q 39.703125 55.765625 41.0625 55.515625 
z
" id="DejaVuSans-114"/>
      <path d="M 32.171875 -5.078125 
Q 28.375 -14.84375 24.75 -17.8125 
Q 21.140625 -20.796875 15.09375 -20.796875 
L 7.90625 -20.796875 
L 7.90625 -13.28125 
L 13.1875 -13.28125 
Q 16.890625 -13.28125 18.9375 -11.515625 
Q 21 -9.765625 23.484375 -3.21875 
L 25.09375 0.875 
L 2.984375 54.6875 
L 12.5 54.6875 
L 29.59375 11.921875 
L 46.6875 54.6875 
L 56.203125 54.6875 
z
" id="DejaVuSans-121"/>
     </defs>
     <g transform="translate(61.017187 201.659375)rotate(-90)scale(0.1 -0.1)">
      <use xlink:href="#DejaVuSans-97"/>
      <use x="61.279297" xlink:href="#DejaVuSans-99"/>
      <use x="116.259766" xlink:href="#DejaVuSans-99"/>
      <use x="171.240234" xlink:href="#DejaVuSans-117"/>
      <use x="234.619141" xlink:href="#DejaVuSans-114"/>
      <use x="275.732422" xlink:href="#DejaVuSans-97"/>
      <use x="337.011719" xlink:href="#DejaVuSans-99"/>
      <use x="391.992188" xlink:href="#DejaVuSans-121"/>
     </g>
    </g>
   </g>
   <g id="line2d_27">
    <path clip-path="url(#pce395e5b9f)" d="M 115.363636 299.011765 
L 115.859504 295.897173 
L 116.355372 302.385905 
L 116.85124 293.128648 
L 117.347107 293.042131 
L 117.842975 293.907296 
L 118.338843 295.205042 
L 118.834711 294.685943 
L 119.330579 292.523033 
L 119.826446 290.879221 
L 120.322314 292.003934 
L 120.818182 291.052254 
L 121.31405 287.591597 
L 121.809917 290.273606 
L 122.801653 281.621963 
L 123.297521 285.861268 
L 123.793388 280.237701 
L 124.289256 288.370244 
L 124.785124 279.28602 
L 125.280992 276.690527 
L 125.77686 284.13094 
L 126.272727 280.583766 
L 126.768595 281.189381 
L 127.264463 277.901757 
L 127.760331 276.344461 
L 128.256198 273.748969 
L 128.752066 272.970321 
L 129.247934 267.952368 
L 129.743802 265.789458 
L 130.239669 270.115279 
L 130.735537 264.491711 
L 132.719008 252.379412 
L 133.214876 254.455806 
L 133.710744 244.852483 
L 134.206612 245.112032 
L 134.702479 234.03793 
L 135.198347 235.422193 
L 135.694215 230.577273 
L 136.190083 234.297479 
L 136.68595 230.750306 
L 137.181818 229.971658 
L 137.677686 219.50317 
L 138.173554 218.811039 
L 138.669421 212.149274 
L 139.165289 213.533537 
L 139.661157 209.207716 
L 140.157025 202.459435 
L 140.652893 203.584148 
L 141.14876 196.749351 
L 141.644628 196.835867 
L 142.140496 190.779717 
L 142.636364 188.011192 
L 143.132231 186.886478 
L 144.123967 181.176394 
L 145.115702 169.583193 
L 145.61157 166.382086 
L 146.107438 165.603438 
L 146.603306 165.776471 
L 147.595041 157.989992 
L 148.586777 148.905768 
L 149.082645 147.781054 
L 149.578512 147.867571 
L 150.570248 145.358594 
L 151.066116 141.465355 
L 151.561983 141.811421 
L 152.057851 139.129412 
L 152.553719 139.994576 
L 153.049587 138.43728 
L 153.545455 134.890107 
L 154.041322 134.457525 
L 154.53719 133.159778 
L 155.033058 132.554163 
L 155.528926 127.017112 
L 156.024793 130.131704 
L 156.520661 130.910351 
L 157.512397 126.238464 
L 158.008264 124.854202 
L 158.504132 126.930596 
L 159 125.546333 
L 159.495868 121.826127 
L 159.991736 123.469939 
L 160.487603 122.085676 
L 160.983471 123.469939 
L 161.479339 118.625019 
L 161.975207 120.441864 
L 162.471074 116.116043 
L 162.966942 114.818296 
L 163.46281 121.73961 
L 163.958678 114.558747 
L 164.454545 115.423911 
L 164.950413 113.174484 
L 165.446281 115.683461 
L 165.942149 115.856494 
L 166.438017 115.683461 
L 166.933884 116.894691 
L 167.429752 113.001451 
L 167.92562 116.202559 
L 168.917355 110.146409 
L 169.413223 109.454278 
L 169.909091 110.752024 
L 170.404959 111.184607 
L 170.900826 108.93518 
L 171.396694 108.848663 
L 171.892562 112.395837 
L 172.38843 111.963254 
L 172.884298 108.416081 
L 173.380165 106.166654 
L 173.876033 110.578992 
L 174.371901 106.080138 
L 174.867769 107.4644 
L 175.363636 107.204851 
L 175.859504 103.311612 
L 176.355372 104.09026 
L 176.85124 102.619481 
L 177.347107 105.561039 
L 177.842975 104.782391 
L 178.338843 105.214973 
L 178.834711 102.186898 
L 179.330579 103.398128 
L 179.826446 101.494767 
L 180.322314 103.311612 
L 180.818182 102.619481 
L 181.31405 101.581283 
L 181.809917 99.677922 
L 182.305785 101.321734 
L 183.297521 101.754316 
L 183.793388 101.235218 
L 184.785124 98.899274 
L 185.280992 100.370053 
L 185.77686 101.408251 
L 186.768595 95.698167 
L 187.264463 96.044232 
L 187.760331 99.331856 
L 188.256198 99.24534 
L 188.752066 98.899274 
L 189.247934 98.03411 
L 189.743802 99.764439 
L 190.239669 96.649847 
L 190.735537 96.649847 
L 191.231405 95.265584 
L 191.727273 95.784683 
L 192.22314 93.275707 
L 192.719008 95.438617 
L 193.214876 94.140871 
L 193.710744 95.006035 
L 194.206612 94.746486 
L 194.702479 95.61165 
L 195.198347 97.168946 
L 195.694215 93.708289 
L 196.190083 96.217265 
L 196.68595 96.995913 
L 197.181818 93.881322 
L 197.677686 96.649847 
L 198.173554 92.324026 
L 198.669421 89.5555 
L 199.165289 91.285829 
L 199.661157 94.227387 
L 200.157025 93.794805 
L 200.652893 91.891444 
L 201.14876 94.486937 
L 201.644628 92.064477 
L 202.140496 92.410542 
L 202.636364 91.372345 
L 203.132231 90.074599 
L 203.628099 91.02628 
L 204.123967 90.507181 
L 204.619835 90.247632 
L 205.115702 88.60382 
L 205.61157 91.285829 
L 206.107438 92.670092 
L 206.603306 90.334148 
L 207.099174 89.209435 
L 207.595041 91.372345 
L 208.090909 90.247632 
L 208.586777 89.988083 
L 209.578512 87.911688 
L 210.07438 89.468984 
L 210.570248 88.34427 
L 211.066116 90.161115 
L 211.561983 89.642017 
L 212.057851 89.81505 
L 212.553719 89.642017 
L 213.049587 89.122918 
L 213.545455 87.13304 
L 214.041322 87.652139 
L 215.033058 90.074599 
L 215.528926 88.60382 
L 216.024793 86.613942 
L 216.520661 86.267876 
L 217.016529 88.60382 
L 217.512397 84.364515 
L 218.008264 84.191482 
L 218.504132 87.306073 
L 219 87.825172 
L 219.495868 87.738655 
L 219.991736 84.537548 
L 220.487603 82.980252 
L 220.983471 86.354393 
L 221.479339 86.008327 
L 221.975207 87.738655 
L 222.966942 84.97013 
L 223.46281 85.402712 
L 223.958678 83.326318 
L 224.454545 85.229679 
L 224.950413 84.537548 
L 225.446281 84.364515 
L 225.942149 85.316196 
L 226.438017 83.066769 
L 226.933884 83.326318 
L 227.429752 82.288121 
L 227.92562 84.018449 
L 228.421488 85.056646 
L 228.917355 83.412834 
L 229.413223 84.710581 
L 229.909091 83.499351 
L 230.900826 82.720703 
L 231.396694 83.412834 
L 231.892562 82.028571 
L 232.38843 81.942055 
L 232.884298 84.710581 
L 233.380165 85.489228 
L 233.876033 85.056646 
L 234.371901 82.374637 
L 234.867769 81.855539 
L 235.363636 82.201604 
L 235.859504 85.662261 
L 236.355372 81.249924 
L 236.85124 81.769022 
L 237.347107 80.211727 
L 237.842975 82.980252 
L 238.338843 83.931933 
L 238.834711 80.990374 
L 239.330579 81.942055 
L 239.826446 79.260046 
L 240.322314 81.769022 
L 240.818182 80.817341 
L 241.31405 81.942055 
L 241.809917 82.028571 
L 242.305785 82.893736 
L 242.801653 82.201604 
L 243.297521 79.692628 
L 243.793388 79.952177 
L 244.289256 81.595989 
L 244.785124 80.557792 
L 245.280992 79.779144 
L 245.77686 79.346562 
L 246.272727 82.54767 
L 246.768595 79.865661 
L 247.264463 79.087013 
L 247.760331 80.12521 
L 248.256198 79.779144 
L 248.752066 81.942055 
L 249.247934 81.422956 
L 249.743802 77.097135 
L 250.735537 83.585867 
L 251.231405 80.12521 
L 251.727273 80.211727 
L 252.22314 78.048816 
L 252.719008 80.038694 
L 253.214876 80.557792 
L 253.710744 79.779144 
L 254.206612 78.567914 
L 254.702479 79.519595 
L 255.198347 80.038694 
L 255.694215 75.972422 
L 256.190083 79.173529 
L 256.68595 78.827464 
L 257.181818 76.75107 
L 257.677686 77.443201 
L 258.173554 77.529717 
L 258.669421 76.664553 
L 259.165289 78.740947 
L 259.661157 80.038694 
L 260.157025 78.91398 
L 260.652893 76.664553 
L 261.14876 76.924102 
L 261.644628 77.010619 
L 262.140496 75.972422 
L 262.636364 76.405004 
L 263.132231 77.616234 
L 263.628099 79.173529 
L 264.619835 76.231971 
L 265.115702 77.70275 
L 265.61157 75.193774 
L 266.107438 79.346562 
L 266.603306 76.49152 
L 267.099174 76.578037 
L 267.595041 77.097135 
L 268.090909 73.722995 
L 269.082645 77.789267 
L 269.578512 76.49152 
L 270.07438 76.75107 
L 270.570248 74.588159 
L 271.066116 78.654431 
L 271.561983 75.366807 
L 272.057851 76.49152 
L 272.553719 74.847708 
L 273.049587 75.020741 
L 273.545455 74.934225 
L 274.041322 77.097135 
L 274.53719 78.740947 
L 275.033058 78.308365 
L 275.528926 76.318487 
L 276.024793 76.145455 
L 276.520661 74.32861 
L 277.016529 74.847708 
L 277.512397 75.53984 
L 278.008264 75.193774 
L 278.504132 75.107257 
L 279 75.366807 
L 279.495868 74.32861 
L 279.991736 75.885905 
L 280.487603 75.626356 
L 280.983471 75.712872 
L 281.479339 76.578037 
L 281.975207 73.636478 
L 282.471074 76.924102 
L 282.966942 73.549962 
L 283.46281 73.809511 
L 283.958678 76.058938 
L 284.454545 73.203896 
L 284.950413 75.712872 
L 285.446281 75.53984 
L 285.942149 73.203896 
L 286.438017 71.733117 
L 286.933884 74.155577 
L 287.429752 74.847708 
L 287.92562 74.674675 
L 288.421488 75.626356 
L 288.917355 73.809511 
L 289.413223 73.463445 
L 289.909091 74.588159 
L 290.404959 74.155577 
L 290.900826 72.771314 
L 291.396694 73.896028 
L 291.892562 73.636478 
L 292.38843 74.242093 
L 292.884298 75.28029 
L 293.380165 75.453323 
L 293.876033 71.819633 
L 294.371901 73.11738 
L 295.363636 69.829756 
L 295.859504 71.387051 
L 296.85124 76.578037 
L 297.347107 73.722995 
L 297.842975 72.684798 
L 298.338843 74.32861 
L 298.834711 73.030863 
L 299.330579 73.982544 
L 299.826446 73.982544 
L 300.322314 73.463445 
L 300.818182 75.020741 
L 301.31405 71.819633 
L 301.809917 74.242093 
L 302.305785 70.435371 
L 302.801653 73.203896 
L 303.297521 72.425248 
L 303.793388 74.415126 
L 304.289256 71.560084 
L 304.785124 72.511765 
L 305.280992 71.90615 
L 305.77686 75.366807 
L 306.272727 71.6466 
L 307.264463 73.809511 
L 307.760331 74.501642 
L 308.256198 70.521887 
L 308.752066 70.348854 
L 309.743802 72.771314 
L 310.239669 71.819633 
L 310.735537 69.916272 
L 311.231405 70.435371 
L 311.727273 71.387051 
L 312.22314 71.387051 
L 312.719008 71.127502 
L 313.214876 69.48369 
L 313.710744 69.916272 
L 314.206612 71.387051 
L 314.702479 71.300535 
L 315.198347 71.90615 
L 315.694215 72.165699 
L 316.190083 70.781436 
L 317.181818 70.175821 
L 317.677686 71.387051 
L 318.173554 69.570206 
L 318.669421 70.002788 
L 319.165289 73.11738 
L 319.661157 70.262338 
L 320.157025 68.27246 
L 320.652893 69.656723 
L 321.14876 69.916272 
L 321.644628 70.348854 
L 322.140496 71.300535 
L 322.636364 70.348854 
L 323.132231 71.300535 
L 324.123967 69.570206 
L 324.619835 72.165699 
L 325.115702 72.771314 
L 325.61157 71.560084 
L 326.107438 68.358976 
L 326.603306 71.127502 
L 327.099174 69.137624 
L 327.595041 69.916272 
L 328.090909 70.262338 
L 328.586777 70.348854 
L 329.082645 71.300535 
L 329.578512 70.348854 
L 330.07438 68.878075 
L 330.570248 69.310657 
L 331.066116 70.954469 
L 331.561983 69.656723 
L 332.057851 70.002788 
L 332.553719 69.743239 
L 333.049587 71.040985 
L 333.545455 67.839878 
L 334.041322 70.348854 
L 334.53719 69.656723 
L 335.033058 70.348854 
L 335.528926 71.733117 
L 336.024793 67.580328 
L 336.520661 70.954469 
L 337.016529 68.705042 
L 337.512397 67.580328 
L 338.008264 67.666845 
L 338.504132 67.580328 
L 339 70.089305 
L 339.495868 68.185943 
L 339.991736 69.051108 
L 340.487603 70.521887 
L 340.983471 66.974714 
L 341.479339 68.099427 
L 341.975207 70.954469 
L 342.966942 67.580328 
L 343.46281 69.137624 
L 343.958678 68.705042 
L 344.454545 67.839878 
L 344.950413 67.493812 
L 345.446281 68.358976 
L 345.942149 69.570206 
L 346.438017 66.628648 
L 346.933884 71.127502 
L 347.429752 68.185943 
L 347.92562 70.089305 
L 348.421488 70.521887 
L 348.917355 69.656723 
L 349.413223 66.109549 
L 349.909091 69.397173 
L 350.900826 68.445493 
L 351.396694 68.358976 
L 351.892562 68.532009 
L 352.38843 67.753361 
L 352.884298 67.666845 
L 353.380165 66.628648 
L 353.876033 71.040985 
L 354.371901 66.974714 
L 354.867769 67.06123 
L 355.363636 66.542131 
L 355.859504 70.089305 
L 356.355372 70.089305 
L 356.85124 67.839878 
L 357.347107 67.926394 
L 357.842975 67.234263 
L 358.338843 65.330901 
L 358.834711 68.705042 
L 359.330579 67.06123 
L 359.826446 69.48369 
L 360.322314 68.012911 
L 360.818182 67.666845 
L 361.31405 66.109549 
L 361.809917 67.753361 
L 362.305785 65.157869 
L 362.801653 67.234263 
L 363.297521 68.27246 
L 363.793388 66.282582 
L 364.289256 67.493812 
L 364.785124 69.224141 
L 365.280992 66.109549 
L 365.77686 66.196066 
L 366.272727 67.06123 
L 366.768595 68.27246 
L 367.264463 64.811803 
L 367.760331 66.888197 
L 368.256198 66.455615 
L 368.752066 66.196066 
L 369.247934 64.552254 
L 370.735537 68.358976 
L 371.231405 68.27246 
L 371.727273 63.773606 
L 372.22314 66.455615 
L 372.719008 66.542131 
L 373.214876 66.974714 
L 373.710744 64.725286 
L 374.206612 68.705042 
L 374.702479 66.109549 
L 375.198347 66.801681 
L 375.694215 66.974714 
L 376.190083 66.282582 
L 376.68595 66.542131 
L 377.181818 68.185943 
L 377.677686 67.666845 
L 378.173554 66.023033 
L 378.669421 66.715164 
L 379.165289 63.773606 
L 379.661157 65.503934 
L 380.157025 65.763484 
L 380.652893 66.282582 
L 381.14876 66.109549 
L 381.644628 64.898319 
L 382.140496 66.888197 
L 382.636364 67.580328 
L 383.132231 66.542131 
L 383.628099 66.974714 
L 384.123967 66.888197 
L 384.619835 66.542131 
L 385.115702 65.85 
L 385.61157 66.715164 
L 386.107438 67.06123 
L 386.603306 66.455615 
L 387.099174 64.725286 
L 387.595041 67.234263 
L 388.586777 63.167991 
L 389.082645 65.157869 
L 389.578512 65.590451 
L 390.07438 64.63877 
L 390.570248 65.936516 
L 391.066116 65.071352 
L 391.561983 65.85 
L 392.057851 67.147746 
L 392.553719 62.821925 
L 393.545455 64.898319 
L 394.041322 66.715164 
L 394.53719 67.407296 
L 395.033058 67.753361 
L 395.528926 66.888197 
L 396.024793 65.763484 
L 396.520661 65.676967 
L 397.016529 64.465737 
L 397.512397 66.628648 
L 398.008264 64.725286 
L 398.504132 63.860122 
L 399 67.06123 
L 399.495868 66.282582 
L 399.991736 63.946639 
L 400.487603 64.379221 
L 400.983471 65.936516 
L 401.479339 66.542131 
L 401.975207 64.898319 
L 402.471074 65.503934 
L 402.966942 64.465737 
L 403.46281 66.369099 
L 403.958678 64.63877 
L 404.454545 65.503934 
L 404.950413 63.167991 
L 405.446281 64.811803 
L 405.942149 64.119672 
L 406.438017 65.071352 
L 406.933884 64.63877 
L 407.429752 65.763484 
L 407.92562 65.330901 
L 408.917355 62.475859 
L 409.413223 65.676967 
L 409.909091 64.033155 
L 410.900826 63.341024 
L 411.396694 62.475859 
L 411.892562 65.503934 
L 412.38843 63.42754 
L 412.884298 64.725286 
L 413.380165 61.178113 
L 413.876033 63.860122 
L 414.371901 64.119672 
L 414.867769 65.763484 
L 415.363636 64.898319 
L 415.859504 64.898319 
L 416.355372 62.21631 
L 416.85124 62.735409 
L 417.347107 64.292704 
L 417.842975 64.206188 
L 418.338843 64.725286 
L 418.834711 62.302827 
L 419.330579 64.63877 
L 419.826446 64.119672 
L 420.322314 63.254507 
L 420.818182 65.417418 
L 421.809917 64.119672 
L 422.305785 63.081474 
L 422.801653 64.811803 
L 423.297521 62.994958 
L 423.793388 65.330901 
L 424.289256 65.417418 
L 424.785124 63.860122 
L 425.280992 63.341024 
L 425.77686 63.341024 
L 426.272727 65.244385 
L 427.264463 63.254507 
L 427.760331 63.860122 
L 428.256198 63.946639 
L 428.752066 62.908442 
L 429.247934 63.167991 
L 429.743802 62.735409 
L 430.239669 62.994958 
L 430.735537 65.417418 
L 431.231405 64.465737 
L 431.727273 64.984836 
L 432.22314 64.465737 
L 432.719008 64.63877 
L 433.214876 62.562376 
L 433.710744 65.763484 
L 434.206612 61.610695 
L 434.702479 64.63877 
L 435.198347 63.081474 
L 435.694215 62.735409 
L 436.190083 63.42754 
L 436.68595 62.302827 
L 437.181818 63.600573 
L 437.677686 62.648892 
L 438.173554 64.898319 
L 438.669421 63.167991 
L 439.165289 63.167991 
L 439.661157 62.21631 
L 440.157025 63.860122 
L 440.652893 62.994958 
L 441.14876 62.562376 
L 441.644628 63.081474 
L 442.140496 62.302827 
L 442.636364 63.254507 
L 443.132231 63.167991 
L 443.628099 64.292704 
L 444.123967 62.043277 
L 444.619835 62.475859 
L 445.115702 62.562376 
L 446.107438 63.773606 
L 446.603306 64.119672 
L 447.099174 61.351146 
L 447.595041 63.167991 
L 448.090909 63.600573 
L 448.586777 62.821925 
L 449.082645 62.648892 
L 450.07438 64.552254 
L 450.570248 60.659015 
L 451.066116 62.735409 
L 451.561983 62.043277 
L 452.057851 64.119672 
L 452.553719 63.860122 
L 453.049587 63.167991 
L 453.545455 63.167991 
L 454.041322 62.302827 
L 454.53719 62.389343 
L 455.033058 61.870244 
L 455.528926 61.956761 
L 456.024793 62.648892 
L 456.520661 62.043277 
L 457.016529 61.178113 
L 457.512397 63.081474 
L 458.008264 63.167991 
L 458.504132 62.21631 
L 459 62.302827 
L 459.495868 62.562376 
L 459.991736 61.870244 
L 460.487603 63.42754 
L 460.983471 61.783728 
L 461.479339 62.562376 
L 461.975207 62.908442 
L 462.471074 62.735409 
L 462.966942 62.129794 
L 463.46281 60.918564 
L 463.958678 61.264629 
L 464.454545 62.735409 
L 464.950413 63.687089 
L 465.446281 61.783728 
L 465.942149 61.264629 
L 466.438017 62.302827 
L 466.933884 60.659015 
L 467.429752 61.091597 
L 467.92562 61.783728 
L 468.421488 59.707334 
L 468.917355 61.697212 
L 469.413223 60.139916 
L 469.909091 63.42754 
L 470.404959 62.562376 
L 470.900826 61.178113 
L 471.396694 63.42754 
L 471.892562 62.821925 
L 472.38843 63.600573 
L 472.884298 62.735409 
L 473.380165 62.129794 
L 473.876033 62.043277 
L 474.371901 64.811803 
L 474.867769 62.908442 
L 475.363636 62.475859 
L 475.859504 62.562376 
L 476.355372 61.351146 
L 477.347107 62.389343 
L 477.842975 60.572498 
L 478.338843 62.908442 
L 478.834711 59.79385 
L 479.330579 61.437662 
L 479.826446 60.745531 
L 480.322314 62.389343 
L 480.818182 62.302827 
L 481.31405 63.687089 
L 481.809917 61.610695 
L 482.305785 62.21631 
L 482.801653 60.745531 
L 483.297521 61.351146 
L 483.793388 61.178113 
L 484.289256 62.475859 
L 484.785124 60.485982 
L 485.280992 60.832047 
L 485.77686 61.351146 
L 486.272727 62.21631 
L 486.768595 61.00508 
L 487.264463 64.984836 
L 487.760331 61.178113 
L 488.256198 59.447785 
L 488.752066 61.437662 
L 489.247934 61.610695 
L 489.743802 62.043277 
L 490.239669 60.918564 
L 490.735537 60.832047 
L 491.231405 62.21631 
L 491.727273 59.79385 
L 492.22314 61.351146 
L 492.719008 61.437662 
L 493.214876 61.783728 
L 493.710744 60.399465 
L 494.206612 61.00508 
L 494.702479 60.485982 
L 495.694215 61.091597 
L 496.190083 59.015202 
L 496.68595 62.21631 
L 497.181818 60.832047 
L 497.677686 62.389343 
L 498.173554 62.21631 
L 498.669421 61.870244 
L 499.165289 60.659015 
L 499.661157 60.832047 
L 500.157025 58.84217 
L 500.652893 60.572498 
L 501.14876 61.351146 
L 501.644628 63.773606 
L 502.140496 61.610695 
L 502.636364 61.178113 
L 503.132231 60.226432 
L 503.628099 61.870244 
L 504.123967 59.966883 
L 504.619835 59.707334 
L 505.115702 60.572498 
L 505.61157 60.312949 
L 506.107438 60.226432 
L 506.603306 60.312949 
L 507.099174 58.84217 
L 507.595041 62.648892 
L 508.090909 61.437662 
L 508.586777 60.832047 
L 509.082645 59.447785 
L 509.578512 61.264629 
L 510.07438 58.323071 
L 510.570248 59.79385 
L 511.066116 59.534301 
L 511.561983 60.399465 
L 512.057851 60.572498 
L 512.553719 59.79385 
L 513.049587 60.572498 
L 513.545455 58.669137 
L 514.041322 61.00508 
L 514.53719 58.323071 
L 515.033058 56.765775 
L 515.528926 62.994958 
L 516.024793 60.832047 
L 516.520661 62.735409 
L 517.016529 61.264629 
L 517.512397 60.485982 
L 518.008264 59.188235 
L 518.504132 60.832047 
L 519 60.918564 
L 519.991736 60.139916 
L 520.487603 62.562376 
L 520.983471 60.918564 
L 521.479339 61.437662 
L 521.975207 60.659015 
L 522.471074 58.84217 
L 522.966942 58.928686 
L 523.46281 59.447785 
L 523.958678 59.101719 
L 524.950413 61.178113 
L 525.942149 58.928686 
L 526.438017 59.966883 
L 526.933884 60.226432 
L 527.429752 60.0534 
L 528.421488 59.274752 
L 528.917355 57.803972 
L 529.413223 59.101719 
L 529.909091 57.025325 
L 530.404959 62.908442 
L 530.900826 58.063522 
L 531.396694 58.323071 
L 531.892562 60.572498 
L 532.38843 59.274752 
L 532.884298 60.139916 
L 533.380165 61.610695 
L 533.876033 59.707334 
L 534.371901 58.84217 
L 534.867769 59.361268 
L 535.363636 58.150038 
L 535.859504 61.697212 
L 536.85124 58.755653 
L 537.347107 61.697212 
L 537.842975 60.745531 
L 538.338843 60.485982 
L 538.834711 59.015202 
L 539.330579 59.966883 
L 539.826446 59.620817 
L 540.322314 59.880367 
L 540.818182 59.447785 
L 541.809917 59.707334 
L 542.305785 59.447785 
L 542.801653 57.977005 
L 543.297521 60.832047 
L 543.793388 59.274752 
L 544.289256 58.928686 
L 544.785124 57.890489 
L 545.280992 59.620817 
L 545.77686 58.84217 
L 546.768595 58.755653 
L 547.264463 58.669137 
L 547.760331 58.409587 
L 548.256198 58.58262 
L 548.752066 59.188235 
L 549.247934 57.977005 
L 549.743802 58.150038 
L 550.239669 60.139916 
L 550.735537 59.274752 
L 551.231405 59.880367 
L 551.727273 59.015202 
L 552.22314 59.79385 
L 552.719008 62.389343 
L 553.214876 59.707334 
L 553.710744 59.274752 
L 554.206612 60.918564 
L 554.702479 59.101719 
L 555.198347 59.620817 
L 556.190083 57.544423 
L 556.68595 59.880367 
L 557.181818 59.015202 
L 557.677686 59.79385 
L 558.173554 58.669137 
L 558.669421 61.524179 
L 559.165289 60.312949 
L 559.661157 59.620817 
L 560.157025 57.803972 
L 561.14876 61.091597 
L 561.644628 57.717456 
L 562.140496 59.707334 
L 562.636364 59.447785 
L 563.132231 61.00508 
L 563.628099 59.966883 
L 564.123967 57.803972 
L 564.619835 58.323071 
L 565.115702 59.707334 
L 566.107438 58.236555 
L 566.603306 59.015202 
L 567.099174 58.58262 
L 567.595041 60.832047 
L 568.090909 59.447785 
L 568.586777 59.534301 
L 569.082645 60.0534 
L 569.578512 59.79385 
L 570.07438 60.312949 
L 570.570248 59.361268 
L 571.066116 59.966883 
L 571.561983 58.669137 
L 572.057851 59.880367 
L 572.553719 59.79385 
L 573.049587 57.890489 
L 573.545455 60.399465 
L 574.041322 57.977005 
L 574.53719 58.063522 
L 575.033058 59.015202 
L 575.528926 58.84217 
L 576.024793 57.717456 
L 576.520661 58.150038 
L 577.016529 58.150038 
L 577.512397 59.447785 
L 578.008264 57.977005 
L 578.504132 57.977005 
L 579 55.554545 
L 579.495868 58.236555 
L 579.991736 59.361268 
L 580.487603 58.755653 
L 580.983471 59.447785 
L 581.479339 58.323071 
L 582.471074 59.447785 
L 582.966942 57.717456 
L 583.46281 58.928686 
L 583.958678 58.755653 
L 584.454545 59.79385 
L 584.950413 58.58262 
L 585.446281 58.150038 
L 585.942149 59.361268 
L 586.438017 57.890489 
L 586.933884 61.178113 
L 587.429752 59.966883 
L 587.92562 58.150038 
L 588.421488 59.015202 
L 588.917355 57.284874 
L 589.413223 59.447785 
L 589.909091 59.447785 
L 590.404959 59.015202 
L 590.900826 59.274752 
L 591.396694 59.880367 
L 592.38843 58.236555 
L 592.884298 57.890489 
L 593.380165 58.928686 
L 593.876033 57.457907 
L 594.371901 56.765775 
L 595.363636 57.803972 
L 595.859504 58.150038 
L 596.355372 55.900611 
L 596.85124 58.755653 
L 597.347107 58.496104 
L 597.842975 58.755653 
L 598.338843 57.111841 
L 598.834711 60.226432 
L 599.330579 58.496104 
L 599.826446 57.37139 
L 600.322314 57.717456 
L 600.818182 55.641062 
L 601.31405 58.928686 
L 601.809917 58.58262 
L 602.305785 57.284874 
L 602.801653 58.236555 
L 603.297521 57.37139 
L 603.793388 57.63094 
L 604.289256 58.150038 
L 604.785124 57.111841 
L 605.280992 57.025325 
L 605.77686 59.620817 
L 606.272727 59.015202 
L 606.768595 57.37139 
L 607.264463 58.063522 
L 607.760331 56.852292 
L 608.256198 56.592743 
L 608.752066 59.79385 
L 609.247934 59.880367 
L 609.743802 58.236555 
L 610.239669 59.880367 
L 610.735537 57.284874 
L 611.231405 58.323071 
L 611.727273 59.966883 
L 612.22314 58.409587 
L 612.719008 58.409587 
L 613.214876 57.803972 
L 613.710744 58.755653 
L 615.694215 58.323071 
L 616.190083 59.966883 
L 616.68595 57.977005 
L 617.181818 58.928686 
L 617.677686 59.015202 
L 618.173554 56.765775 
L 618.669421 57.63094 
L 619.165289 57.198358 
L 619.661157 58.323071 
L 620.157025 58.669137 
L 620.652893 58.409587 
L 621.14876 56.16016 
L 621.644628 58.409587 
L 622.140496 59.447785 
L 622.636364 58.323071 
L 622.636364 58.323071 
" style="fill:none;stroke:#1f77b4;stroke-linecap:square;stroke-width:0.5;"/>
   </g>
   <g id="line2d_28">
    <path clip-path="url(#pce395e5b9f)" d="M 115.363636 302.645455 
L 116.355372 296.243239 
L 116.85124 294.080328 
L 117.347107 295.810657 
L 117.842975 294.858976 
L 118.338843 291.13877 
L 118.834711 295.032009 
L 119.330579 290.360122 
L 119.826446 293.56123 
L 120.322314 287.764629 
L 120.818182 286.466883 
L 121.31405 288.71631 
L 121.809917 288.543277 
L 122.801653 290.792704 
L 123.297521 289.581474 
L 123.793388 283.611841 
L 124.289256 281.968029 
L 124.785124 285.601719 
L 125.280992 281.362414 
L 125.77686 281.70848 
L 126.768595 278.420856 
L 127.264463 278.247823 
L 127.760331 278.939954 
L 128.256198 271.326509 
L 128.752066 273.748969 
L 129.247934 272.537739 
L 130.239669 263.972613 
L 130.735537 264.232162 
L 131.231405 260.944538 
L 131.727273 261.550153 
L 132.22314 257.483881 
L 132.719008 256.272651 
L 133.214876 252.465928 
L 133.710744 252.379412 
L 134.206612 240.959244 
L 134.702479 241.824408 
L 135.198347 234.643545 
L 135.694215 233.172765 
L 136.190083 235.854775 
L 136.68595 225.472804 
L 137.181818 222.963827 
L 137.677686 226.164935 
L 138.173554 217.426776 
L 139.165289 214.225668 
L 139.661157 203.584148 
L 140.157025 205.574026 
L 140.652893 199.604393 
L 141.14876 201.507754 
L 141.644628 196.403285 
L 142.140496 194.153858 
L 142.636364 190.174102 
L 143.132231 187.492093 
L 143.628099 182.560657 
L 144.123967 179.532582 
L 144.619835 172.351719 
L 145.115702 171.400038 
L 145.61157 171.83262 
L 146.107438 164.565241 
L 146.603306 166.209053 
L 147.099174 163.354011 
L 148.090909 155.221467 
L 148.586777 156.259664 
L 149.082645 150.722613 
L 149.578512 148.12712 
L 150.07438 148.12712 
L 151.561983 141.465355 
L 152.057851 142.676585 
L 152.553719 142.590069 
L 153.049587 137.399083 
L 153.545455 134.284492 
L 154.041322 136.27437 
L 154.53719 136.966501 
L 155.033058 135.236173 
L 155.528926 131.515966 
L 156.024793 134.803591 
L 156.520661 129.266539 
L 157.016529 128.228342 
L 157.512397 128.228342 
L 158.008264 132.64068 
L 158.504132 128.833957 
L 159 129.00699 
L 159.495868 122.172193 
L 159.991736 127.79576 
L 160.487603 127.882277 
L 160.983471 127.622727 
L 161.479339 119.5767 
L 161.975207 122.518258 
L 162.471074 120.614897 
L 162.966942 121.826127 
L 163.46281 120.52838 
L 163.958678 121.220512 
L 164.454545 119.663216 
L 165.446281 118.711536 
L 165.942149 121.566578 
L 166.933884 116.202559 
L 167.429752 114.472231 
L 167.92562 113.347517 
L 168.421488 114.991329 
L 168.917355 115.250879 
L 169.413223 116.462108 
L 169.909091 114.212681 
L 170.404959 113.693583 
L 170.900826 111.444156 
L 171.396694 114.126165 
L 171.892562 112.222804 
L 172.38843 114.818296 
L 172.884298 113.001451 
L 173.380165 113.780099 
L 173.876033 110.232926 
L 174.371901 109.454278 
L 174.867769 109.800344 
L 175.363636 108.502597 
L 175.859504 111.357639 
L 176.355372 111.703705 
L 176.85124 114.472231 
L 177.347107 109.713827 
L 177.842975 113.347517 
L 178.338843 109.367762 
L 178.834711 110.752024 
L 179.330579 108.156532 
L 179.826446 108.329565 
L 180.322314 109.540794 
L 180.818182 107.118335 
L 181.31405 107.031818 
L 181.809917 109.713827 
L 182.305785 103.657678 
L 182.801653 105.647555 
L 183.297521 104.263293 
L 183.793388 108.93518 
L 184.289256 106.25317 
L 185.280992 104.349809 
L 185.77686 103.917227 
L 186.272727 107.291367 
L 186.768595 101.408251 
L 187.760331 105.993621 
L 188.256198 103.138579 
L 188.752066 103.311612 
L 189.247934 104.176776 
L 189.743802 104.436325 
L 190.239669 101.840833 
L 190.735537 101.754316 
L 191.231405 103.138579 
L 191.727273 103.83071 
L 192.22314 102.532964 
L 192.719008 104.955424 
L 193.214876 102.446448 
L 193.710744 101.494767 
L 194.206612 98.812758 
L 194.702479 103.138579 
L 195.198347 102.619481 
L 195.694215 100.716119 
L 196.190083 99.850955 
L 196.68595 100.802636 
L 197.181818 98.03411 
L 197.677686 99.072307 
L 198.173554 101.581283 
L 198.669421 100.110504 
L 199.165289 102.619481 
L 199.661157 98.899274 
L 200.157025 97.947594 
L 200.652893 100.629603 
L 201.14876 101.6678 
L 201.644628 99.418373 
L 202.140496 99.331856 
L 202.636364 99.072307 
L 203.132231 98.380176 
L 203.628099 99.072307 
L 204.123967 97.601528 
L 204.619835 100.802636 
L 205.115702 96.736364 
L 205.61157 99.418373 
L 206.107438 97.428495 
L 206.603306 97.601528 
L 207.099174 95.525134 
L 207.595041 98.466692 
L 208.090909 97.341979 
L 208.586777 94.919519 
L 209.082645 98.985791 
L 209.578512 96.736364 
L 210.07438 98.553209 
L 210.570248 98.03411 
L 211.066116 94.573453 
L 211.561983 94.746486 
L 212.057851 97.688044 
L 212.553719 96.995913 
L 213.545455 97.082429 
L 214.53719 93.967838 
L 215.528926 95.957716 
L 216.024793 94.40042 
L 216.520661 96.303782 
L 217.016529 95.525134 
L 217.512397 95.525134 
L 218.504132 94.227387 
L 219 95.352101 
L 219.495868 94.746486 
L 220.487603 94.140871 
L 220.983471 94.833002 
L 221.479339 95.265584 
L 221.975207 91.372345 
L 222.471074 93.881322 
L 222.966942 92.150993 
L 223.46281 96.303782 
L 223.958678 95.265584 
L 224.454545 95.61165 
L 224.950413 92.929641 
L 225.446281 90.939763 
L 225.942149 91.804927 
L 226.438017 92.064477 
L 226.933884 94.573453 
L 227.429752 92.497059 
L 227.92562 91.545378 
L 228.421488 90.853247 
L 228.917355 92.497059 
L 229.413223 93.448739 
L 229.909091 90.074599 
L 230.404959 94.746486 
L 230.900826 93.18919 
L 231.396694 93.362223 
L 231.892562 90.507181 
L 232.38843 91.372345 
L 232.884298 92.497059 
L 233.380165 93.102674 
L 234.371901 91.804927 
L 234.867769 95.525134 
L 235.363636 92.23751 
L 235.859504 91.02628 
L 236.355372 92.324026 
L 236.85124 91.02628 
L 237.347107 92.756608 
L 237.842975 90.420665 
L 238.338843 92.497059 
L 238.834711 89.036402 
L 239.330579 89.382468 
L 239.826446 91.02628 
L 240.322314 89.728533 
L 241.31405 91.112796 
L 241.809917 92.583575 
L 242.305785 93.535256 
L 242.801653 90.420665 
L 243.297521 88.949885 
L 243.793388 94.140871 
L 244.289256 90.76673 
L 244.785124 89.382468 
L 245.280992 91.97796 
L 245.77686 91.97796 
L 246.272727 88.430787 
L 246.768595 89.81505 
L 247.264463 88.60382 
L 247.760331 90.334148 
L 248.256198 89.122918 
L 248.752066 90.593697 
L 249.247934 91.112796 
L 249.743802 92.150993 
L 250.239669 88.34427 
L 251.231405 91.199312 
L 251.727273 89.901566 
L 252.22314 91.804927 
L 252.719008 89.642017 
L 253.214876 89.382468 
L 253.710744 88.690336 
L 254.206612 88.34427 
L 254.702479 88.690336 
L 255.198347 90.939763 
L 255.694215 89.295951 
L 256.190083 89.209435 
L 256.68595 88.776853 
L 257.181818 89.122918 
L 257.677686 91.458862 
L 258.173554 89.209435 
L 258.669421 88.690336 
L 259.165289 87.39259 
L 259.661157 90.074599 
L 260.652893 87.13304 
L 261.14876 89.988083 
L 261.644628 90.247632 
L 262.140496 85.316196 
L 262.636364 90.074599 
L 263.132231 88.690336 
L 263.628099 88.517303 
L 264.123967 90.76673 
L 264.619835 85.662261 
L 265.115702 88.084721 
L 265.61157 88.690336 
L 266.107438 88.34427 
L 266.603306 88.430787 
L 267.099174 85.056646 
L 267.595041 88.430787 
L 268.090909 90.161115 
L 268.586777 90.420665 
L 269.082645 90.161115 
L 269.578512 87.046524 
L 270.07438 88.430787 
L 270.570248 86.786975 
L 271.066116 85.921811 
L 271.561983 89.036402 
L 272.057851 86.094843 
L 272.553719 87.306073 
L 273.049587 87.046524 
L 273.545455 89.468984 
L 274.041322 87.652139 
L 274.53719 86.786975 
L 275.033058 85.056646 
L 275.528926 87.565623 
L 276.024793 87.046524 
L 276.520661 85.921811 
L 277.016529 86.354393 
L 277.512397 85.835294 
L 278.008264 85.662261 
L 278.504132 86.354393 
L 279 85.921811 
L 279.495868 87.046524 
L 279.991736 85.143163 
L 280.487603 86.786975 
L 280.983471 85.662261 
L 281.479339 86.700458 
L 281.975207 89.036402 
L 282.471074 86.440909 
L 282.966942 86.440909 
L 283.46281 82.980252 
L 283.958678 87.046524 
L 284.454545 84.451031 
L 285.446281 89.901566 
L 285.942149 83.931933 
L 286.438017 85.835294 
L 286.933884 85.489228 
L 287.429752 84.364515 
L 287.92562 85.143163 
L 288.421488 87.39259 
L 288.917355 85.575745 
L 289.413223 85.229679 
L 289.909091 87.306073 
L 290.404959 88.60382 
L 290.900826 85.402712 
L 291.396694 84.018449 
L 291.892562 86.613942 
L 292.38843 86.873491 
L 292.884298 84.624064 
L 293.380165 85.662261 
L 293.876033 85.921811 
L 294.867769 84.364515 
L 295.363636 82.374637 
L 295.859504 86.008327 
L 296.355372 84.364515 
L 296.85124 84.797097 
L 297.347107 87.998205 
L 297.842975 86.18136 
L 298.338843 87.13304 
L 298.834711 84.104966 
L 299.330579 85.575745 
L 299.826446 81.942055 
L 300.322314 82.893736 
L 300.818182 86.786975 
L 301.31405 83.7589 
L 301.809917 83.499351 
L 302.305785 85.316196 
L 302.801653 83.585867 
L 303.297521 82.807219 
L 303.793388 83.931933 
L 304.289256 84.451031 
L 305.280992 82.461154 
L 305.77686 86.440909 
L 306.272727 85.921811 
L 306.768595 83.672383 
L 307.264463 82.374637 
L 307.760331 84.364515 
L 308.256198 84.191482 
L 309.247934 84.364515 
L 309.743802 85.143163 
L 310.239669 87.652139 
L 311.231405 86.267876 
L 311.727273 86.440909 
L 312.22314 83.931933 
L 312.719008 82.893736 
L 313.214876 85.229679 
L 313.710744 84.364515 
L 314.206612 81.076891 
L 314.702479 83.585867 
L 315.198347 84.883613 
L 315.694215 84.277998 
L 316.190083 84.451031 
L 316.68595 85.921811 
L 317.181818 83.931933 
L 317.677686 85.143163 
L 318.173554 84.710581 
L 318.669421 82.288121 
L 319.165289 83.7589 
L 319.661157 82.980252 
L 320.157025 83.7589 
L 320.652893 86.008327 
L 321.14876 82.54767 
L 321.644628 82.720703 
L 322.636364 85.056646 
L 323.132231 83.585867 
L 324.123967 87.39259 
L 324.619835 83.239801 
L 325.115702 80.903858 
L 325.61157 85.662261 
L 326.107438 81.595989 
L 326.603306 82.54767 
L 327.099174 81.249924 
L 327.595041 82.54767 
L 328.090909 86.527426 
L 328.586777 82.461154 
L 329.082645 85.402712 
L 329.578512 82.288121 
L 330.07438 81.769022 
L 330.570248 82.720703 
L 331.066116 81.163407 
L 331.561983 83.7589 
L 332.057851 83.7589 
L 332.553719 83.326318 
L 333.049587 84.191482 
L 333.545455 84.537548 
L 334.041322 79.606112 
L 334.53719 81.769022 
L 335.033058 85.575745 
L 335.528926 83.239801 
L 336.024793 82.201604 
L 336.520661 82.374637 
L 337.016529 82.980252 
L 337.512397 80.903858 
L 338.008264 84.451031 
L 338.504132 83.412834 
L 339 85.056646 
L 339.495868 82.374637 
L 339.991736 84.710581 
L 340.487603 81.769022 
L 341.479339 83.066769 
L 341.975207 85.316196 
L 342.471074 82.807219 
L 342.966942 83.585867 
L 343.46281 81.595989 
L 343.958678 81.769022 
L 344.454545 83.239801 
L 344.950413 83.7589 
L 345.446281 83.845416 
L 345.942149 84.104966 
L 346.438017 81.769022 
L 346.933884 82.893736 
L 347.92562 82.201604 
L 348.421488 81.249924 
L 349.413223 85.489228 
L 349.909091 85.489228 
L 350.404959 82.201604 
L 350.900826 82.115088 
L 351.396694 83.845416 
L 351.892562 82.201604 
L 352.38843 84.624064 
L 352.884298 82.893736 
L 353.380165 82.115088 
L 353.876033 81.595989 
L 354.371901 83.585867 
L 354.867769 83.239801 
L 355.363636 84.277998 
L 355.859504 83.931933 
L 356.355372 82.461154 
L 356.85124 82.115088 
L 357.347107 80.384759 
L 358.338843 81.769022 
L 358.834711 81.682506 
L 359.330579 79.433079 
L 359.826446 81.163407 
L 360.322314 81.076891 
L 360.818182 82.201604 
L 361.31405 79.952177 
L 361.809917 79.692628 
L 362.305785 81.33644 
L 362.801653 81.422956 
L 363.297521 80.990374 
L 363.793388 80.817341 
L 364.785124 83.931933 
L 365.280992 84.018449 
L 365.77686 81.509473 
L 366.272727 80.471276 
L 366.768595 81.855539 
L 367.264463 80.12521 
L 367.760331 82.893736 
L 368.256198 81.249924 
L 368.752066 80.384759 
L 369.247934 78.394882 
L 369.743802 81.855539 
L 370.239669 82.54767 
L 370.735537 81.509473 
L 371.231405 82.028571 
L 371.727273 82.980252 
L 372.22314 81.769022 
L 372.719008 79.865661 
L 373.214876 79.346562 
L 373.710744 79.779144 
L 374.206612 83.239801 
L 374.702479 82.634186 
L 375.198347 82.374637 
L 375.694215 80.644309 
L 376.190083 81.855539 
L 376.68595 81.076891 
L 377.181818 82.374637 
L 377.677686 80.12521 
L 378.173554 81.163407 
L 378.669421 80.557792 
L 379.165289 82.028571 
L 379.661157 80.471276 
L 380.157025 80.817341 
L 380.652893 82.115088 
L 381.14876 80.644309 
L 381.644628 83.585867 
L 382.140496 79.173529 
L 382.636364 80.557792 
L 383.132231 84.710581 
L 383.628099 83.499351 
L 384.123967 80.990374 
L 384.619835 81.942055 
L 385.115702 79.433079 
L 385.61157 80.471276 
L 386.107438 81.163407 
L 386.603306 80.903858 
L 387.099174 83.7589 
L 387.595041 81.163407 
L 388.090909 82.374637 
L 388.586777 85.662261 
L 389.082645 81.249924 
L 389.578512 81.33644 
L 390.07438 83.585867 
L 390.570248 81.076891 
L 391.066116 80.644309 
L 391.561983 81.163407 
L 392.057851 79.433079 
L 392.553719 82.028571 
L 393.049587 81.595989 
L 393.545455 78.91398 
L 394.041322 83.7589 
L 395.033058 79.000497 
L 395.528926 81.682506 
L 396.024793 81.509473 
L 396.520661 80.990374 
L 397.016529 80.298243 
L 397.512397 83.066769 
L 398.008264 79.952177 
L 398.504132 81.682506 
L 399 79.519595 
L 399.495868 81.509473 
L 399.991736 81.163407 
L 400.487603 79.433079 
L 400.983471 81.595989 
L 401.479339 79.519595 
L 401.975207 79.952177 
L 402.471074 78.135332 
L 402.966942 82.461154 
L 403.46281 81.163407 
L 403.958678 80.298243 
L 404.454545 80.730825 
L 404.950413 81.422956 
L 405.446281 81.769022 
L 405.942149 81.422956 
L 406.438017 80.817341 
L 407.429752 80.471276 
L 407.92562 81.076891 
L 408.421488 80.211727 
L 408.917355 81.855539 
L 409.413223 80.730825 
L 409.909091 80.730825 
L 410.404959 79.952177 
L 410.900826 78.740947 
L 411.396694 80.817341 
L 411.892562 79.606112 
L 412.38843 81.769022 
L 413.380165 80.384759 
L 413.876033 80.990374 
L 414.371901 78.567914 
L 414.867769 81.249924 
L 415.363636 79.692628 
L 415.859504 81.076891 
L 416.355372 82.028571 
L 416.85124 80.730825 
L 417.347107 80.471276 
L 418.338843 77.789267 
L 418.834711 81.163407 
L 419.330579 80.12521 
L 419.826446 79.865661 
L 420.322314 79.952177 
L 420.818182 80.990374 
L 421.31405 77.962299 
L 421.809917 81.076891 
L 422.305785 81.422956 
L 422.801653 81.942055 
L 423.297521 78.91398 
L 424.289256 81.769022 
L 424.785124 78.048816 
L 425.280992 80.12521 
L 425.77686 80.903858 
L 426.272727 80.817341 
L 427.264463 78.827464 
L 427.760331 79.865661 
L 428.256198 80.211727 
L 428.752066 79.000497 
L 429.247934 83.499351 
L 429.743802 80.557792 
L 430.239669 78.481398 
L 430.735537 79.346562 
L 431.231405 79.000497 
L 431.727273 77.616234 
L 432.22314 80.990374 
L 432.719008 80.557792 
L 433.214876 81.422956 
L 433.710744 80.557792 
L 434.206612 79.000497 
L 434.702479 79.692628 
L 435.198347 79.260046 
L 436.190083 80.384759 
L 436.68595 79.519595 
L 437.181818 80.12521 
L 437.677686 78.394882 
L 438.173554 79.606112 
L 438.669421 78.654431 
L 439.165289 79.692628 
L 439.661157 81.682506 
L 440.157025 79.692628 
L 440.652893 81.509473 
L 441.14876 79.346562 
L 441.644628 81.33644 
L 442.140496 76.924102 
L 442.636364 78.567914 
L 443.132231 78.481398 
L 443.628099 79.952177 
L 444.619835 79.692628 
L 445.115702 80.471276 
L 445.61157 79.865661 
L 446.107438 80.644309 
L 446.603306 77.616234 
L 447.099174 80.817341 
L 447.595041 80.730825 
L 448.090909 77.183652 
L 448.586777 80.817341 
L 449.082645 81.076891 
L 449.578512 77.443201 
L 450.07438 82.634186 
L 450.570248 80.211727 
L 451.066116 79.000497 
L 451.561983 80.990374 
L 452.057851 80.038694 
L 452.553719 78.567914 
L 453.049587 79.692628 
L 453.545455 78.567914 
L 454.041322 79.173529 
L 454.53719 78.394882 
L 455.033058 80.211727 
L 455.528926 81.422956 
L 456.024793 78.394882 
L 456.520661 81.942055 
L 457.016529 78.740947 
L 457.512397 80.12521 
L 458.008264 78.567914 
L 458.504132 79.000497 
L 459 77.875783 
L 459.495868 80.557792 
L 459.991736 78.654431 
L 460.487603 79.260046 
L 460.983471 80.817341 
L 461.479339 80.903858 
L 462.471074 80.211727 
L 462.966942 80.990374 
L 463.46281 80.038694 
L 463.958678 79.433079 
L 464.454545 77.616234 
L 464.950413 79.519595 
L 465.446281 79.865661 
L 465.942149 77.443201 
L 466.438017 78.654431 
L 466.933884 81.33644 
L 467.429752 80.211727 
L 467.92562 77.616234 
L 468.421488 77.875783 
L 468.917355 77.529717 
L 469.413223 79.433079 
L 469.909091 80.557792 
L 470.404959 80.730825 
L 470.900826 80.471276 
L 471.396694 78.91398 
L 472.38843 79.692628 
L 472.884298 81.769022 
L 473.380165 77.010619 
L 473.876033 79.519595 
L 474.867769 78.221849 
L 475.363636 79.173529 
L 475.859504 79.260046 
L 476.355372 77.356684 
L 476.85124 79.173529 
L 477.347107 78.654431 
L 477.842975 78.91398 
L 478.338843 77.875783 
L 478.834711 79.260046 
L 479.826446 77.962299 
L 480.322314 81.595989 
L 480.818182 78.740947 
L 481.31405 77.183652 
L 481.809917 79.606112 
L 482.305785 78.048816 
L 482.801653 79.346562 
L 483.297521 76.75107 
L 483.793388 79.865661 
L 484.289256 78.394882 
L 484.785124 79.606112 
L 485.280992 79.087013 
L 485.77686 78.740947 
L 486.272727 80.384759 
L 486.768595 79.087013 
L 487.264463 78.740947 
L 487.760331 80.384759 
L 488.256198 77.789267 
L 489.247934 78.740947 
L 490.239669 77.097135 
L 490.735537 79.692628 
L 491.231405 80.730825 
L 491.727273 79.000497 
L 492.22314 78.740947 
L 492.719008 77.270168 
L 493.214876 79.519595 
L 493.710744 76.664553 
L 494.206612 76.924102 
L 494.702479 80.12521 
L 495.198347 76.578037 
L 495.694215 78.740947 
L 496.190083 79.087013 
L 496.68595 78.221849 
L 497.181818 79.519595 
L 497.677686 77.097135 
L 498.173554 79.952177 
L 498.669421 76.405004 
L 499.165289 77.183652 
L 499.661157 78.567914 
L 500.157025 79.173529 
L 500.652893 78.481398 
L 501.14876 81.682506 
L 501.644628 77.875783 
L 502.140496 77.70275 
L 502.636364 77.962299 
L 503.132231 80.471276 
L 503.628099 78.221849 
L 504.123967 78.135332 
L 504.619835 80.990374 
L 505.115702 77.70275 
L 505.61157 76.924102 
L 506.107438 79.000497 
L 506.603306 77.875783 
L 507.099174 78.394882 
L 507.595041 77.70275 
L 508.090909 80.298243 
L 508.586777 78.654431 
L 509.082645 78.654431 
L 509.578512 76.924102 
L 510.07438 76.058938 
L 510.570248 79.865661 
L 511.066116 79.173529 
L 511.561983 78.221849 
L 512.057851 81.33644 
L 512.553719 79.865661 
L 513.049587 77.183652 
L 513.545455 77.270168 
L 514.041322 78.481398 
L 514.53719 78.221849 
L 515.033058 77.789267 
L 515.528926 77.529717 
L 516.024793 79.606112 
L 516.520661 78.481398 
L 517.016529 79.865661 
L 517.512397 79.952177 
L 518.008264 78.827464 
L 518.504132 79.087013 
L 519 77.270168 
L 519.495868 77.70275 
L 519.991736 78.481398 
L 520.487603 78.91398 
L 520.983471 79.000497 
L 521.479339 77.789267 
L 521.975207 77.616234 
L 522.471074 77.875783 
L 522.966942 78.394882 
L 523.46281 78.048816 
L 523.958678 80.384759 
L 524.454545 78.221849 
L 524.950413 79.000497 
L 525.446281 75.712872 
L 525.942149 77.443201 
L 526.438017 77.097135 
L 526.933884 79.087013 
L 527.429752 76.664553 
L 527.92562 79.433079 
L 528.421488 78.654431 
L 528.917355 77.270168 
L 529.413223 76.924102 
L 529.909091 77.962299 
L 530.404959 77.875783 
L 530.900826 80.12521 
L 531.396694 76.145455 
L 531.892562 76.405004 
L 532.38843 80.038694 
L 532.884298 78.135332 
L 533.380165 79.000497 
L 533.876033 78.567914 
L 534.371901 76.664553 
L 534.867769 77.789267 
L 535.363636 78.308365 
L 535.859504 78.308365 
L 536.355372 78.048816 
L 536.85124 77.616234 
L 537.347107 77.875783 
L 537.842975 79.779144 
L 538.338843 76.318487 
L 538.834711 79.779144 
L 539.330579 77.183652 
L 539.826446 79.260046 
L 540.322314 77.789267 
L 540.818182 78.827464 
L 541.31405 79.433079 
L 541.809917 78.308365 
L 542.305785 80.038694 
L 542.801653 77.010619 
L 543.297521 76.924102 
L 543.793388 79.260046 
L 544.289256 76.924102 
L 544.785124 76.664553 
L 545.280992 77.356684 
L 545.77686 77.529717 
L 546.272727 77.529717 
L 546.768595 76.664553 
L 547.264463 76.837586 
L 547.760331 81.33644 
L 548.256198 80.471276 
L 548.752066 77.356684 
L 549.247934 77.183652 
L 549.743802 78.308365 
L 550.239669 76.49152 
L 550.735537 79.000497 
L 551.231405 78.567914 
L 551.727273 78.394882 
L 552.22314 81.249924 
L 552.719008 75.972422 
L 553.214876 78.048816 
L 553.710744 79.606112 
L 554.206612 80.038694 
L 554.702479 78.654431 
L 555.198347 79.173529 
L 555.694215 79.346562 
L 556.190083 77.010619 
L 556.68595 77.962299 
L 557.677686 77.183652 
L 558.173554 77.616234 
L 558.669421 78.654431 
L 559.165289 76.318487 
L 559.661157 77.789267 
L 560.157025 77.443201 
L 560.652893 76.231971 
L 561.14876 78.394882 
L 561.644628 78.135332 
L 562.140496 81.249924 
L 562.636364 80.12521 
L 563.132231 78.394882 
L 563.628099 77.356684 
L 564.123967 78.654431 
L 564.619835 77.097135 
L 565.115702 76.75107 
L 565.61157 79.865661 
L 566.107438 76.49152 
L 566.603306 80.12521 
L 567.099174 75.107257 
L 567.595041 75.53984 
L 568.090909 79.173529 
L 568.586777 74.934225 
L 569.082645 77.097135 
L 569.578512 79.779144 
L 570.07438 77.443201 
L 570.570248 80.298243 
L 571.066116 77.010619 
L 571.561983 76.231971 
L 572.057851 75.020741 
L 572.553719 77.70275 
L 573.049587 77.097135 
L 573.545455 78.91398 
L 574.041322 78.221849 
L 574.53719 76.924102 
L 575.033058 80.557792 
L 575.528926 77.443201 
L 576.024793 77.529717 
L 576.520661 76.578037 
L 577.016529 75.193774 
L 578.008264 78.221849 
L 578.504132 79.173529 
L 579 78.654431 
L 579.495868 79.173529 
L 579.991736 78.221849 
L 580.487603 78.135332 
L 581.479339 76.924102 
L 581.975207 78.740947 
L 582.471074 74.847708 
L 582.966942 77.616234 
L 583.46281 77.70275 
L 583.958678 76.837586 
L 584.454545 78.048816 
L 584.950413 77.529717 
L 585.446281 77.616234 
L 585.942149 78.048816 
L 586.438017 77.356684 
L 586.933884 79.952177 
L 587.429752 79.260046 
L 587.92562 79.519595 
L 588.421488 77.962299 
L 588.917355 77.529717 
L 589.413223 78.394882 
L 589.909091 76.49152 
L 590.404959 76.49152 
L 590.900826 78.91398 
L 591.396694 77.529717 
L 591.892562 77.616234 
L 592.38843 77.097135 
L 592.884298 78.481398 
L 593.380165 78.394882 
L 594.371901 76.49152 
L 594.867769 75.28029 
L 595.363636 79.087013 
L 595.859504 77.529717 
L 596.355372 74.415126 
L 596.85124 76.318487 
L 597.347107 76.49152 
L 597.842975 77.875783 
L 598.338843 77.789267 
L 598.834711 76.837586 
L 599.330579 78.221849 
L 599.826446 76.49152 
L 600.322314 76.49152 
L 600.818182 76.837586 
L 601.31405 76.75107 
L 601.809917 77.616234 
L 602.305785 74.674675 
L 602.801653 77.183652 
L 603.297521 74.588159 
L 603.793388 76.231971 
L 604.785124 78.048816 
L 605.280992 77.356684 
L 605.77686 78.308365 
L 606.272727 78.048816 
L 606.768595 75.453323 
L 607.264463 75.885905 
L 607.760331 77.270168 
L 608.256198 76.231971 
L 608.752066 78.740947 
L 609.247934 77.270168 
L 609.743802 77.789267 
L 610.239669 77.270168 
L 610.735537 79.173529 
L 611.231405 75.28029 
L 611.727273 77.010619 
L 612.22314 79.173529 
L 612.719008 75.193774 
L 613.214876 78.221849 
L 613.710744 78.827464 
L 614.206612 77.356684 
L 614.702479 77.529717 
L 615.198347 76.318487 
L 615.694215 76.49152 
L 616.190083 77.356684 
L 616.68595 77.616234 
L 617.181818 79.952177 
L 617.677686 77.183652 
L 618.669421 77.270168 
L 619.165289 77.962299 
L 619.661157 78.048816 
L 620.157025 79.519595 
L 620.652893 77.010619 
L 621.14876 77.443201 
L 621.644628 79.087013 
L 622.140496 77.097135 
L 622.636364 78.135332 
L 622.636364 78.135332 
" style="fill:none;stroke:#ff7f0e;stroke-linecap:square;stroke-width:0.5;"/>
   </g>
   <g id="patch_3">
    <path d="M 90 315 
L 90 43.2 
" style="fill:none;stroke:#000000;stroke-linecap:square;stroke-linejoin:miter;stroke-width:0.8;"/>
   </g>
   <g id="patch_4">
    <path d="M 648 315 
L 648 43.2 
" style="fill:none;stroke:#000000;stroke-linecap:square;stroke-linejoin:miter;stroke-width:0.8;"/>
   </g>
   <g id="patch_5">
    <path d="M 90 315 
L 648 315 
" style="fill:none;stroke:#000000;stroke-linecap:square;stroke-linejoin:miter;stroke-width:0.8;"/>
   </g>
   <g id="patch_6">
    <path d="M 90 43.2 
L 648 43.2 
" style="fill:none;stroke:#000000;stroke-linecap:square;stroke-linejoin:miter;stroke-width:0.8;"/>
   </g>
   <g id="text_16">
    <!-- accuracy -->
    <g transform="translate(341.92875 37.2)scale(0.12 -0.12)">
     <use xlink:href="#DejaVuSans-97"/>
     <use x="61.279297" xlink:href="#DejaVuSans-99"/>
     <use x="116.259766" xlink:href="#DejaVuSans-99"/>
     <use x="171.240234" xlink:href="#DejaVuSans-117"/>
     <use x="234.619141" xlink:href="#DejaVuSans-114"/>
     <use x="275.732422" xlink:href="#DejaVuSans-97"/>
     <use x="337.011719" xlink:href="#DejaVuSans-99"/>
     <use x="391.992188" xlink:href="#DejaVuSans-121"/>
    </g>
   </g>
   <g id="legend_1">
    <g id="patch_7">
     <path d="M 97 80.55625 
L 169.153125 80.55625 
Q 171.153125 80.55625 171.153125 78.55625 
L 171.153125 50.2 
Q 171.153125 48.2 169.153125 48.2 
L 97 48.2 
Q 95 48.2 95 50.2 
L 95 78.55625 
Q 95 80.55625 97 80.55625 
z
" style="fill:#ffffff;opacity:0.8;stroke:#cccccc;stroke-linejoin:miter;"/>
    </g>
    <g id="line2d_29">
     <path d="M 99 56.298437 
L 119 56.298437 
" style="fill:none;stroke:#1f77b4;stroke-linecap:square;stroke-width:0.5;"/>
    </g>
    <g id="line2d_30"/>
    <g id="text_17">
     <!-- train -->
     <defs>
      <path d="M 18.3125 70.21875 
L 18.3125 54.6875 
L 36.8125 54.6875 
L 36.8125 47.703125 
L 18.3125 47.703125 
L 18.3125 18.015625 
Q 18.3125 11.328125 20.140625 9.421875 
Q 21.96875 7.515625 27.59375 7.515625 
L 36.8125 7.515625 
L 36.8125 0 
L 27.59375 0 
Q 17.1875 0 13.234375 3.875 
Q 9.28125 7.765625 9.28125 18.015625 
L 9.28125 47.703125 
L 2.6875 47.703125 
L 2.6875 54.6875 
L 9.28125 54.6875 
L 9.28125 70.21875 
z
" id="DejaVuSans-116"/>
      <path d="M 9.421875 54.6875 
L 18.40625 54.6875 
L 18.40625 0 
L 9.421875 0 
z
M 9.421875 75.984375 
L 18.40625 75.984375 
L 18.40625 64.59375 
L 9.421875 64.59375 
z
" id="DejaVuSans-105"/>
      <path d="M 54.890625 33.015625 
L 54.890625 0 
L 45.90625 0 
L 45.90625 32.71875 
Q 45.90625 40.484375 42.875 44.328125 
Q 39.84375 48.1875 33.796875 48.1875 
Q 26.515625 48.1875 22.3125 43.546875 
Q 18.109375 38.921875 18.109375 30.90625 
L 18.109375 0 
L 9.078125 0 
L 9.078125 54.6875 
L 18.109375 54.6875 
L 18.109375 46.1875 
Q 21.34375 51.125 25.703125 53.5625 
Q 30.078125 56 35.796875 56 
Q 45.21875 56 50.046875 50.171875 
Q 54.890625 44.34375 54.890625 33.015625 
z
" id="DejaVuSans-110"/>
     </defs>
     <g transform="translate(127 59.798437)scale(0.1 -0.1)">
      <use xlink:href="#DejaVuSans-116"/>
      <use x="39.208984" xlink:href="#DejaVuSans-114"/>
      <use x="80.322266" xlink:href="#DejaVuSans-97"/>
      <use x="141.601562" xlink:href="#DejaVuSans-105"/>
      <use x="169.384766" xlink:href="#DejaVuSans-110"/>
     </g>
    </g>
    <g id="line2d_31">
     <path d="M 99 70.976562 
L 119 70.976562 
" style="fill:none;stroke:#ff7f0e;stroke-linecap:square;stroke-width:0.5;"/>
    </g>
    <g id="line2d_32"/>
    <g id="text_18">
     <!-- validate -->
     <defs>
      <path d="M 2.984375 54.6875 
L 12.5 54.6875 
L 29.59375 8.796875 
L 46.6875 54.6875 
L 56.203125 54.6875 
L 35.6875 0 
L 23.484375 0 
z
" id="DejaVuSans-118"/>
      <path d="M 9.421875 75.984375 
L 18.40625 75.984375 
L 18.40625 0 
L 9.421875 0 
z
" id="DejaVuSans-108"/>
      <path d="M 45.40625 46.390625 
L 45.40625 75.984375 
L 54.390625 75.984375 
L 54.390625 0 
L 45.40625 0 
L 45.40625 8.203125 
Q 42.578125 3.328125 38.25 0.953125 
Q 33.9375 -1.421875 27.875 -1.421875 
Q 17.96875 -1.421875 11.734375 6.484375 
Q 5.515625 14.40625 5.515625 27.296875 
Q 5.515625 40.1875 11.734375 48.09375 
Q 17.96875 56 27.875 56 
Q 33.9375 56 38.25 53.625 
Q 42.578125 51.265625 45.40625 46.390625 
z
M 14.796875 27.296875 
Q 14.796875 17.390625 18.875 11.75 
Q 22.953125 6.109375 30.078125 6.109375 
Q 37.203125 6.109375 41.296875 11.75 
Q 45.40625 17.390625 45.40625 27.296875 
Q 45.40625 37.203125 41.296875 42.84375 
Q 37.203125 48.484375 30.078125 48.484375 
Q 22.953125 48.484375 18.875 42.84375 
Q 14.796875 37.203125 14.796875 27.296875 
z
" id="DejaVuSans-100"/>
     </defs>
     <g transform="translate(127 74.476562)scale(0.1 -0.1)">
      <use xlink:href="#DejaVuSans-118"/>
      <use x="59.179688" xlink:href="#DejaVuSans-97"/>
      <use x="120.458984" xlink:href="#DejaVuSans-108"/>
      <use x="148.242188" xlink:href="#DejaVuSans-105"/>
      <use x="176.025391" xlink:href="#DejaVuSans-100"/>
      <use x="239.501953" xlink:href="#DejaVuSans-97"/>
      <use x="300.78125" xlink:href="#DejaVuSans-116"/>
      <use x="339.990234" xlink:href="#DejaVuSans-101"/>
     </g>
    </g>
   </g>
  </g>
 </g>
 <defs>
  <clipPath id="pce395e5b9f">
   <rect height="271.8" width="558" x="90" y="43.2"/>
  </clipPath>
 </defs>
</svg>
