<?xml version="1.0" encoding="utf-8" standalone="no"?>
<!DOCTYPE svg PUBLIC "-//W3C//DTD SVG 1.1//EN"
  "http://www.w3.org/Graphics/SVG/1.1/DTD/svg11.dtd">
<!-- Created with matplotlib (https://matplotlib.org/) -->
<svg height="360pt" version="1.1" viewBox="0 0 720 360" width="720pt" xmlns="http://www.w3.org/2000/svg" xmlns:xlink="http://www.w3.org/1999/xlink">
 <defs>
  <style type="text/css">
*{stroke-linecap:butt;stroke-linejoin:round;}
  </style>
 </defs>
 <g id="figure_1">
  <g id="patch_1">
   <path d="M 0 360 
L 720 360 
L 720 0 
L 0 0 
z
" style="fill:#ffffff;"/>
  </g>
  <g id="axes_1">
   <g id="patch_2">
    <path d="M 90 315 
L 648 315 
L 648 43.2 
L 90 43.2 
z
" style="fill:#ffffff;"/>
   </g>
   <g id="matplotlib.axis_1">
    <g id="xtick_1">
     <g id="line2d_1">
      <path clip-path="url(#p176af76d0a)" d="M 115.363636 315 
L 115.363636 43.2 
" style="fill:none;stroke:#b0b0b0;stroke-linecap:square;stroke-width:0.8;"/>
     </g>
     <g id="line2d_2">
      <defs>
       <path d="M 0 0 
L 0 3.5 
" id="mdfd1af225c" style="stroke:#000000;stroke-width:0.8;"/>
      </defs>
      <g>
       <use style="stroke:#000000;stroke-width:0.8;" x="115.363636" xlink:href="#mdfd1af225c" y="315"/>
      </g>
     </g>
     <g id="text_1">
      <!-- 0 -->
      <defs>
       <path d="M 31.78125 66.40625 
Q 24.171875 66.40625 20.328125 58.90625 
Q 16.5 51.421875 16.5 36.375 
Q 16.5 21.390625 20.328125 13.890625 
Q 24.171875 6.390625 31.78125 6.390625 
Q 39.453125 6.390625 43.28125 13.890625 
Q 47.125 21.390625 47.125 36.375 
Q 47.125 51.421875 43.28125 58.90625 
Q 39.453125 66.40625 31.78125 66.40625 
z
M 31.78125 74.21875 
Q 44.046875 74.21875 50.515625 64.515625 
Q 56.984375 54.828125 56.984375 36.375 
Q 56.984375 17.96875 50.515625 8.265625 
Q 44.046875 -1.421875 31.78125 -1.421875 
Q 19.53125 -1.421875 13.0625 8.265625 
Q 6.59375 17.96875 6.59375 36.375 
Q 6.59375 54.828125 13.0625 64.515625 
Q 19.53125 74.21875 31.78125 74.21875 
z
" id="DejaVuSans-48"/>
      </defs>
      <g transform="translate(112.182386 329.598437)scale(0.1 -0.1)">
       <use xlink:href="#DejaVuSans-48"/>
      </g>
     </g>
    </g>
    <g id="xtick_2">
     <g id="line2d_3">
      <path clip-path="url(#p176af76d0a)" d="M 183.362661 315 
L 183.362661 43.2 
" style="fill:none;stroke:#b0b0b0;stroke-linecap:square;stroke-width:0.8;"/>
     </g>
     <g id="line2d_4">
      <g>
       <use style="stroke:#000000;stroke-width:0.8;" x="183.362661" xlink:href="#mdfd1af225c" y="315"/>
      </g>
     </g>
     <g id="text_2">
      <!-- 200 -->
      <defs>
       <path d="M 19.1875 8.296875 
L 53.609375 8.296875 
L 53.609375 0 
L 7.328125 0 
L 7.328125 8.296875 
Q 12.9375 14.109375 22.625 23.890625 
Q 32.328125 33.6875 34.8125 36.53125 
Q 39.546875 41.84375 41.421875 45.53125 
Q 43.3125 49.21875 43.3125 52.78125 
Q 43.3125 58.59375 39.234375 62.25 
Q 35.15625 65.921875 28.609375 65.921875 
Q 23.96875 65.921875 18.8125 64.3125 
Q 13.671875 62.703125 7.8125 59.421875 
L 7.8125 69.390625 
Q 13.765625 71.78125 18.9375 73 
Q 24.125 74.21875 28.421875 74.21875 
Q 39.75 74.21875 46.484375 68.546875 
Q 53.21875 62.890625 53.21875 53.421875 
Q 53.21875 48.921875 51.53125 44.890625 
Q 49.859375 40.875 45.40625 35.40625 
Q 44.1875 33.984375 37.640625 27.21875 
Q 31.109375 20.453125 19.1875 8.296875 
z
" id="DejaVuSans-50"/>
      </defs>
      <g transform="translate(173.818911 329.598437)scale(0.1 -0.1)">
       <use xlink:href="#DejaVuSans-50"/>
       <use x="63.623047" xlink:href="#DejaVuSans-48"/>
       <use x="127.246094" xlink:href="#DejaVuSans-48"/>
      </g>
     </g>
    </g>
    <g id="xtick_3">
     <g id="line2d_5">
      <path clip-path="url(#p176af76d0a)" d="M 251.361687 315 
L 251.361687 43.2 
" style="fill:none;stroke:#b0b0b0;stroke-linecap:square;stroke-width:0.8;"/>
     </g>
     <g id="line2d_6">
      <g>
       <use style="stroke:#000000;stroke-width:0.8;" x="251.361687" xlink:href="#mdfd1af225c" y="315"/>
      </g>
     </g>
     <g id="text_3">
      <!-- 400 -->
      <defs>
       <path d="M 37.796875 64.3125 
L 12.890625 25.390625 
L 37.796875 25.390625 
z
M 35.203125 72.90625 
L 47.609375 72.90625 
L 47.609375 25.390625 
L 58.015625 25.390625 
L 58.015625 17.1875 
L 47.609375 17.1875 
L 47.609375 0 
L 37.796875 0 
L 37.796875 17.1875 
L 4.890625 17.1875 
L 4.890625 26.703125 
z
" id="DejaVuSans-52"/>
      </defs>
      <g transform="translate(241.817937 329.598437)scale(0.1 -0.1)">
       <use xlink:href="#DejaVuSans-52"/>
       <use x="63.623047" xlink:href="#DejaVuSans-48"/>
       <use x="127.246094" xlink:href="#DejaVuSans-48"/>
      </g>
     </g>
    </g>
    <g id="xtick_4">
     <g id="line2d_7">
      <path clip-path="url(#p176af76d0a)" d="M 319.360712 315 
L 319.360712 43.2 
" style="fill:none;stroke:#b0b0b0;stroke-linecap:square;stroke-width:0.8;"/>
     </g>
     <g id="line2d_8">
      <g>
       <use style="stroke:#000000;stroke-width:0.8;" x="319.360712" xlink:href="#mdfd1af225c" y="315"/>
      </g>
     </g>
     <g id="text_4">
      <!-- 600 -->
      <defs>
       <path d="M 33.015625 40.375 
Q 26.375 40.375 22.484375 35.828125 
Q 18.609375 31.296875 18.609375 23.390625 
Q 18.609375 15.53125 22.484375 10.953125 
Q 26.375 6.390625 33.015625 6.390625 
Q 39.65625 6.390625 43.53125 10.953125 
Q 47.40625 15.53125 47.40625 23.390625 
Q 47.40625 31.296875 43.53125 35.828125 
Q 39.65625 40.375 33.015625 40.375 
z
M 52.59375 71.296875 
L 52.59375 62.3125 
Q 48.875 64.0625 45.09375 64.984375 
Q 41.3125 65.921875 37.59375 65.921875 
Q 27.828125 65.921875 22.671875 59.328125 
Q 17.53125 52.734375 16.796875 39.40625 
Q 19.671875 43.65625 24.015625 45.921875 
Q 28.375 48.1875 33.59375 48.1875 
Q 44.578125 48.1875 50.953125 41.515625 
Q 57.328125 34.859375 57.328125 23.390625 
Q 57.328125 12.15625 50.6875 5.359375 
Q 44.046875 -1.421875 33.015625 -1.421875 
Q 20.359375 -1.421875 13.671875 8.265625 
Q 6.984375 17.96875 6.984375 36.375 
Q 6.984375 53.65625 15.1875 63.9375 
Q 23.390625 74.21875 37.203125 74.21875 
Q 40.921875 74.21875 44.703125 73.484375 
Q 48.484375 72.75 52.59375 71.296875 
z
" id="DejaVuSans-54"/>
      </defs>
      <g transform="translate(309.816962 329.598437)scale(0.1 -0.1)">
       <use xlink:href="#DejaVuSans-54"/>
       <use x="63.623047" xlink:href="#DejaVuSans-48"/>
       <use x="127.246094" xlink:href="#DejaVuSans-48"/>
      </g>
     </g>
    </g>
    <g id="xtick_5">
     <g id="line2d_9">
      <path clip-path="url(#p176af76d0a)" d="M 387.359737 315 
L 387.359737 43.2 
" style="fill:none;stroke:#b0b0b0;stroke-linecap:square;stroke-width:0.8;"/>
     </g>
     <g id="line2d_10">
      <g>
       <use style="stroke:#000000;stroke-width:0.8;" x="387.359737" xlink:href="#mdfd1af225c" y="315"/>
      </g>
     </g>
     <g id="text_5">
      <!-- 800 -->
      <defs>
       <path d="M 31.78125 34.625 
Q 24.75 34.625 20.71875 30.859375 
Q 16.703125 27.09375 16.703125 20.515625 
Q 16.703125 13.921875 20.71875 10.15625 
Q 24.75 6.390625 31.78125 6.390625 
Q 38.8125 6.390625 42.859375 10.171875 
Q 46.921875 13.96875 46.921875 20.515625 
Q 46.921875 27.09375 42.890625 30.859375 
Q 38.875 34.625 31.78125 34.625 
z
M 21.921875 38.8125 
Q 15.578125 40.375 12.03125 44.71875 
Q 8.5 49.078125 8.5 55.328125 
Q 8.5 64.0625 14.71875 69.140625 
Q 20.953125 74.21875 31.78125 74.21875 
Q 42.671875 74.21875 48.875 69.140625 
Q 55.078125 64.0625 55.078125 55.328125 
Q 55.078125 49.078125 51.53125 44.71875 
Q 48 40.375 41.703125 38.8125 
Q 48.828125 37.15625 52.796875 32.3125 
Q 56.78125 27.484375 56.78125 20.515625 
Q 56.78125 9.90625 50.3125 4.234375 
Q 43.84375 -1.421875 31.78125 -1.421875 
Q 19.734375 -1.421875 13.25 4.234375 
Q 6.78125 9.90625 6.78125 20.515625 
Q 6.78125 27.484375 10.78125 32.3125 
Q 14.796875 37.15625 21.921875 38.8125 
z
M 18.3125 54.390625 
Q 18.3125 48.734375 21.84375 45.5625 
Q 25.390625 42.390625 31.78125 42.390625 
Q 38.140625 42.390625 41.71875 45.5625 
Q 45.3125 48.734375 45.3125 54.390625 
Q 45.3125 60.0625 41.71875 63.234375 
Q 38.140625 66.40625 31.78125 66.40625 
Q 25.390625 66.40625 21.84375 63.234375 
Q 18.3125 60.0625 18.3125 54.390625 
z
" id="DejaVuSans-56"/>
      </defs>
      <g transform="translate(377.815987 329.598437)scale(0.1 -0.1)">
       <use xlink:href="#DejaVuSans-56"/>
       <use x="63.623047" xlink:href="#DejaVuSans-48"/>
       <use x="127.246094" xlink:href="#DejaVuSans-48"/>
      </g>
     </g>
    </g>
    <g id="xtick_6">
     <g id="line2d_11">
      <path clip-path="url(#p176af76d0a)" d="M 455.358762 315 
L 455.358762 43.2 
" style="fill:none;stroke:#b0b0b0;stroke-linecap:square;stroke-width:0.8;"/>
     </g>
     <g id="line2d_12">
      <g>
       <use style="stroke:#000000;stroke-width:0.8;" x="455.358762" xlink:href="#mdfd1af225c" y="315"/>
      </g>
     </g>
     <g id="text_6">
      <!-- 1000 -->
      <defs>
       <path d="M 12.40625 8.296875 
L 28.515625 8.296875 
L 28.515625 63.921875 
L 10.984375 60.40625 
L 10.984375 69.390625 
L 28.421875 72.90625 
L 38.28125 72.90625 
L 38.28125 8.296875 
L 54.390625 8.296875 
L 54.390625 0 
L 12.40625 0 
z
" id="DejaVuSans-49"/>
      </defs>
      <g transform="translate(442.633762 329.598437)scale(0.1 -0.1)">
       <use xlink:href="#DejaVuSans-49"/>
       <use x="63.623047" xlink:href="#DejaVuSans-48"/>
       <use x="127.246094" xlink:href="#DejaVuSans-48"/>
       <use x="190.869141" xlink:href="#DejaVuSans-48"/>
      </g>
     </g>
    </g>
    <g id="xtick_7">
     <g id="line2d_13">
      <path clip-path="url(#p176af76d0a)" d="M 523.357787 315 
L 523.357787 43.2 
" style="fill:none;stroke:#b0b0b0;stroke-linecap:square;stroke-width:0.8;"/>
     </g>
     <g id="line2d_14">
      <g>
       <use style="stroke:#000000;stroke-width:0.8;" x="523.357787" xlink:href="#mdfd1af225c" y="315"/>
      </g>
     </g>
     <g id="text_7">
      <!-- 1200 -->
      <g transform="translate(510.632787 329.598437)scale(0.1 -0.1)">
       <use xlink:href="#DejaVuSans-49"/>
       <use x="63.623047" xlink:href="#DejaVuSans-50"/>
       <use x="127.246094" xlink:href="#DejaVuSans-48"/>
       <use x="190.869141" xlink:href="#DejaVuSans-48"/>
      </g>
     </g>
    </g>
    <g id="xtick_8">
     <g id="line2d_15">
      <path clip-path="url(#p176af76d0a)" d="M 591.356812 315 
L 591.356812 43.2 
" style="fill:none;stroke:#b0b0b0;stroke-linecap:square;stroke-width:0.8;"/>
     </g>
     <g id="line2d_16">
      <g>
       <use style="stroke:#000000;stroke-width:0.8;" x="591.356812" xlink:href="#mdfd1af225c" y="315"/>
      </g>
     </g>
     <g id="text_8">
      <!-- 1400 -->
      <g transform="translate(578.631812 329.598437)scale(0.1 -0.1)">
       <use xlink:href="#DejaVuSans-49"/>
       <use x="63.623047" xlink:href="#DejaVuSans-52"/>
       <use x="127.246094" xlink:href="#DejaVuSans-48"/>
       <use x="190.869141" xlink:href="#DejaVuSans-48"/>
      </g>
     </g>
    </g>
    <g id="text_9">
     <!-- epoch -->
     <defs>
      <path d="M 56.203125 29.59375 
L 56.203125 25.203125 
L 14.890625 25.203125 
Q 15.484375 15.921875 20.484375 11.0625 
Q 25.484375 6.203125 34.421875 6.203125 
Q 39.59375 6.203125 44.453125 7.46875 
Q 49.3125 8.734375 54.109375 11.28125 
L 54.109375 2.78125 
Q 49.265625 0.734375 44.1875 -0.34375 
Q 39.109375 -1.421875 33.890625 -1.421875 
Q 20.796875 -1.421875 13.15625 6.1875 
Q 5.515625 13.8125 5.515625 26.8125 
Q 5.515625 40.234375 12.765625 48.109375 
Q 20.015625 56 32.328125 56 
Q 43.359375 56 49.78125 48.890625 
Q 56.203125 41.796875 56.203125 29.59375 
z
M 47.21875 32.234375 
Q 47.125 39.59375 43.09375 43.984375 
Q 39.0625 48.390625 32.421875 48.390625 
Q 24.90625 48.390625 20.390625 44.140625 
Q 15.875 39.890625 15.1875 32.171875 
z
" id="DejaVuSans-101"/>
      <path d="M 18.109375 8.203125 
L 18.109375 -20.796875 
L 9.078125 -20.796875 
L 9.078125 54.6875 
L 18.109375 54.6875 
L 18.109375 46.390625 
Q 20.953125 51.265625 25.265625 53.625 
Q 29.59375 56 35.59375 56 
Q 45.5625 56 51.78125 48.09375 
Q 58.015625 40.1875 58.015625 27.296875 
Q 58.015625 14.40625 51.78125 6.484375 
Q 45.5625 -1.421875 35.59375 -1.421875 
Q 29.59375 -1.421875 25.265625 0.953125 
Q 20.953125 3.328125 18.109375 8.203125 
z
M 48.6875 27.296875 
Q 48.6875 37.203125 44.609375 42.84375 
Q 40.53125 48.484375 33.40625 48.484375 
Q 26.265625 48.484375 22.1875 42.84375 
Q 18.109375 37.203125 18.109375 27.296875 
Q 18.109375 17.390625 22.1875 11.75 
Q 26.265625 6.109375 33.40625 6.109375 
Q 40.53125 6.109375 44.609375 11.75 
Q 48.6875 17.390625 48.6875 27.296875 
z
" id="DejaVuSans-112"/>
      <path d="M 30.609375 48.390625 
Q 23.390625 48.390625 19.1875 42.75 
Q 14.984375 37.109375 14.984375 27.296875 
Q 14.984375 17.484375 19.15625 11.84375 
Q 23.34375 6.203125 30.609375 6.203125 
Q 37.796875 6.203125 41.984375 11.859375 
Q 46.1875 17.53125 46.1875 27.296875 
Q 46.1875 37.015625 41.984375 42.703125 
Q 37.796875 48.390625 30.609375 48.390625 
z
M 30.609375 56 
Q 42.328125 56 49.015625 48.375 
Q 55.71875 40.765625 55.71875 27.296875 
Q 55.71875 13.875 49.015625 6.21875 
Q 42.328125 -1.421875 30.609375 -1.421875 
Q 18.84375 -1.421875 12.171875 6.21875 
Q 5.515625 13.875 5.515625 27.296875 
Q 5.515625 40.765625 12.171875 48.375 
Q 18.84375 56 30.609375 56 
z
" id="DejaVuSans-111"/>
      <path d="M 48.78125 52.59375 
L 48.78125 44.1875 
Q 44.96875 46.296875 41.140625 47.34375 
Q 37.3125 48.390625 33.40625 48.390625 
Q 24.65625 48.390625 19.8125 42.84375 
Q 14.984375 37.3125 14.984375 27.296875 
Q 14.984375 17.28125 19.8125 11.734375 
Q 24.65625 6.203125 33.40625 6.203125 
Q 37.3125 6.203125 41.140625 7.25 
Q 44.96875 8.296875 48.78125 10.40625 
L 48.78125 2.09375 
Q 45.015625 0.34375 40.984375 -0.53125 
Q 36.96875 -1.421875 32.421875 -1.421875 
Q 20.0625 -1.421875 12.78125 6.34375 
Q 5.515625 14.109375 5.515625 27.296875 
Q 5.515625 40.671875 12.859375 48.328125 
Q 20.21875 56 33.015625 56 
Q 37.15625 56 41.109375 55.140625 
Q 45.0625 54.296875 48.78125 52.59375 
z
" id="DejaVuSans-99"/>
      <path d="M 54.890625 33.015625 
L 54.890625 0 
L 45.90625 0 
L 45.90625 32.71875 
Q 45.90625 40.484375 42.875 44.328125 
Q 39.84375 48.1875 33.796875 48.1875 
Q 26.515625 48.1875 22.3125 43.546875 
Q 18.109375 38.921875 18.109375 30.90625 
L 18.109375 0 
L 9.078125 0 
L 9.078125 75.984375 
L 18.109375 75.984375 
L 18.109375 46.1875 
Q 21.34375 51.125 25.703125 53.5625 
Q 30.078125 56 35.796875 56 
Q 45.21875 56 50.046875 50.171875 
Q 54.890625 44.34375 54.890625 33.015625 
z
" id="DejaVuSans-104"/>
     </defs>
     <g transform="translate(353.771875 343.276563)scale(0.1 -0.1)">
      <use xlink:href="#DejaVuSans-101"/>
      <use x="61.523438" xlink:href="#DejaVuSans-112"/>
      <use x="125" xlink:href="#DejaVuSans-111"/>
      <use x="186.181641" xlink:href="#DejaVuSans-99"/>
      <use x="241.162109" xlink:href="#DejaVuSans-104"/>
     </g>
    </g>
   </g>
   <g id="matplotlib.axis_2">
    <g id="ytick_1">
     <g id="line2d_17">
      <path clip-path="url(#p176af76d0a)" d="M 90 285.084854 
L 648 285.084854 
" style="fill:none;stroke:#b0b0b0;stroke-linecap:square;stroke-width:0.8;"/>
     </g>
     <g id="line2d_18">
      <defs>
       <path d="M 0 0 
L -3.5 0 
" id="m5f0fad019b" style="stroke:#000000;stroke-width:0.8;"/>
      </defs>
      <g>
       <use style="stroke:#000000;stroke-width:0.8;" x="90" xlink:href="#m5f0fad019b" y="285.084854"/>
      </g>
     </g>
     <g id="text_10">
      <!-- 0.3 -->
      <defs>
       <path d="M 10.6875 12.40625 
L 21 12.40625 
L 21 0 
L 10.6875 0 
z
" id="DejaVuSans-46"/>
       <path d="M 40.578125 39.3125 
Q 47.65625 37.796875 51.625 33 
Q 55.609375 28.21875 55.609375 21.1875 
Q 55.609375 10.40625 48.1875 4.484375 
Q 40.765625 -1.421875 27.09375 -1.421875 
Q 22.515625 -1.421875 17.65625 -0.515625 
Q 12.796875 0.390625 7.625 2.203125 
L 7.625 11.71875 
Q 11.71875 9.328125 16.59375 8.109375 
Q 21.484375 6.890625 26.8125 6.890625 
Q 36.078125 6.890625 40.9375 10.546875 
Q 45.796875 14.203125 45.796875 21.1875 
Q 45.796875 27.640625 41.28125 31.265625 
Q 36.765625 34.90625 28.71875 34.90625 
L 20.21875 34.90625 
L 20.21875 43.015625 
L 29.109375 43.015625 
Q 36.375 43.015625 40.234375 45.921875 
Q 44.09375 48.828125 44.09375 54.296875 
Q 44.09375 59.90625 40.109375 62.90625 
Q 36.140625 65.921875 28.71875 65.921875 
Q 24.65625 65.921875 20.015625 65.03125 
Q 15.375 64.15625 9.8125 62.3125 
L 9.8125 71.09375 
Q 15.4375 72.65625 20.34375 73.4375 
Q 25.25 74.21875 29.59375 74.21875 
Q 40.828125 74.21875 47.359375 69.109375 
Q 53.90625 64.015625 53.90625 55.328125 
Q 53.90625 49.265625 50.4375 45.09375 
Q 46.96875 40.921875 40.578125 39.3125 
z
" id="DejaVuSans-51"/>
      </defs>
      <g transform="translate(67.096875 288.884072)scale(0.1 -0.1)">
       <use xlink:href="#DejaVuSans-48"/>
       <use x="63.623047" xlink:href="#DejaVuSans-46"/>
       <use x="95.410156" xlink:href="#DejaVuSans-51"/>
      </g>
     </g>
    </g>
    <g id="ytick_2">
     <g id="line2d_19">
      <path clip-path="url(#p176af76d0a)" d="M 90 251.951644 
L 648 251.951644 
" style="fill:none;stroke:#b0b0b0;stroke-linecap:square;stroke-width:0.8;"/>
     </g>
     <g id="line2d_20">
      <g>
       <use style="stroke:#000000;stroke-width:0.8;" x="90" xlink:href="#m5f0fad019b" y="251.951644"/>
      </g>
     </g>
     <g id="text_11">
      <!-- 0.4 -->
      <g transform="translate(67.096875 255.750863)scale(0.1 -0.1)">
       <use xlink:href="#DejaVuSans-48"/>
       <use x="63.623047" xlink:href="#DejaVuSans-46"/>
       <use x="95.410156" xlink:href="#DejaVuSans-52"/>
      </g>
     </g>
    </g>
    <g id="ytick_3">
     <g id="line2d_21">
      <path clip-path="url(#p176af76d0a)" d="M 90 218.818435 
L 648 218.818435 
" style="fill:none;stroke:#b0b0b0;stroke-linecap:square;stroke-width:0.8;"/>
     </g>
     <g id="line2d_22">
      <g>
       <use style="stroke:#000000;stroke-width:0.8;" x="90" xlink:href="#m5f0fad019b" y="218.818435"/>
      </g>
     </g>
     <g id="text_12">
      <!-- 0.5 -->
      <defs>
       <path d="M 10.796875 72.90625 
L 49.515625 72.90625 
L 49.515625 64.59375 
L 19.828125 64.59375 
L 19.828125 46.734375 
Q 21.96875 47.46875 24.109375 47.828125 
Q 26.265625 48.1875 28.421875 48.1875 
Q 40.625 48.1875 47.75 41.5 
Q 54.890625 34.8125 54.890625 23.390625 
Q 54.890625 11.625 47.5625 5.09375 
Q 40.234375 -1.421875 26.90625 -1.421875 
Q 22.3125 -1.421875 17.546875 -0.640625 
Q 12.796875 0.140625 7.71875 1.703125 
L 7.71875 11.625 
Q 12.109375 9.234375 16.796875 8.0625 
Q 21.484375 6.890625 26.703125 6.890625 
Q 35.15625 6.890625 40.078125 11.328125 
Q 45.015625 15.765625 45.015625 23.390625 
Q 45.015625 31 40.078125 35.4375 
Q 35.15625 39.890625 26.703125 39.890625 
Q 22.75 39.890625 18.8125 39.015625 
Q 14.890625 38.140625 10.796875 36.28125 
z
" id="DejaVuSans-53"/>
      </defs>
      <g transform="translate(67.096875 222.617654)scale(0.1 -0.1)">
       <use xlink:href="#DejaVuSans-48"/>
       <use x="63.623047" xlink:href="#DejaVuSans-46"/>
       <use x="95.410156" xlink:href="#DejaVuSans-53"/>
      </g>
     </g>
    </g>
    <g id="ytick_4">
     <g id="line2d_23">
      <path clip-path="url(#p176af76d0a)" d="M 90 185.685225 
L 648 185.685225 
" style="fill:none;stroke:#b0b0b0;stroke-linecap:square;stroke-width:0.8;"/>
     </g>
     <g id="line2d_24">
      <g>
       <use style="stroke:#000000;stroke-width:0.8;" x="90" xlink:href="#m5f0fad019b" y="185.685225"/>
      </g>
     </g>
     <g id="text_13">
      <!-- 0.6 -->
      <g transform="translate(67.096875 189.484444)scale(0.1 -0.1)">
       <use xlink:href="#DejaVuSans-48"/>
       <use x="63.623047" xlink:href="#DejaVuSans-46"/>
       <use x="95.410156" xlink:href="#DejaVuSans-54"/>
      </g>
     </g>
    </g>
    <g id="ytick_5">
     <g id="line2d_25">
      <path clip-path="url(#p176af76d0a)" d="M 90 152.552016 
L 648 152.552016 
" style="fill:none;stroke:#b0b0b0;stroke-linecap:square;stroke-width:0.8;"/>
     </g>
     <g id="line2d_26">
      <g>
       <use style="stroke:#000000;stroke-width:0.8;" x="90" xlink:href="#m5f0fad019b" y="152.552016"/>
      </g>
     </g>
     <g id="text_14">
      <!-- 0.7 -->
      <defs>
       <path d="M 8.203125 72.90625 
L 55.078125 72.90625 
L 55.078125 68.703125 
L 28.609375 0 
L 18.3125 0 
L 43.21875 64.59375 
L 8.203125 64.59375 
z
" id="DejaVuSans-55"/>
      </defs>
      <g transform="translate(67.096875 156.351235)scale(0.1 -0.1)">
       <use xlink:href="#DejaVuSans-48"/>
       <use x="63.623047" xlink:href="#DejaVuSans-46"/>
       <use x="95.410156" xlink:href="#DejaVuSans-55"/>
      </g>
     </g>
    </g>
    <g id="ytick_6">
     <g id="line2d_27">
      <path clip-path="url(#p176af76d0a)" d="M 90 119.418807 
L 648 119.418807 
" style="fill:none;stroke:#b0b0b0;stroke-linecap:square;stroke-width:0.8;"/>
     </g>
     <g id="line2d_28">
      <g>
       <use style="stroke:#000000;stroke-width:0.8;" x="90" xlink:href="#m5f0fad019b" y="119.418807"/>
      </g>
     </g>
     <g id="text_15">
      <!-- 0.8 -->
      <g transform="translate(67.096875 123.218025)scale(0.1 -0.1)">
       <use xlink:href="#DejaVuSans-48"/>
       <use x="63.623047" xlink:href="#DejaVuSans-46"/>
       <use x="95.410156" xlink:href="#DejaVuSans-56"/>
      </g>
     </g>
    </g>
    <g id="ytick_7">
     <g id="line2d_29">
      <path clip-path="url(#p176af76d0a)" d="M 90 86.285597 
L 648 86.285597 
" style="fill:none;stroke:#b0b0b0;stroke-linecap:square;stroke-width:0.8;"/>
     </g>
     <g id="line2d_30">
      <g>
       <use style="stroke:#000000;stroke-width:0.8;" x="90" xlink:href="#m5f0fad019b" y="86.285597"/>
      </g>
     </g>
     <g id="text_16">
      <!-- 0.9 -->
      <defs>
       <path d="M 10.984375 1.515625 
L 10.984375 10.5 
Q 14.703125 8.734375 18.5 7.8125 
Q 22.3125 6.890625 25.984375 6.890625 
Q 35.75 6.890625 40.890625 13.453125 
Q 46.046875 20.015625 46.78125 33.40625 
Q 43.953125 29.203125 39.59375 26.953125 
Q 35.25 24.703125 29.984375 24.703125 
Q 19.046875 24.703125 12.671875 31.3125 
Q 6.296875 37.9375 6.296875 49.421875 
Q 6.296875 60.640625 12.9375 67.421875 
Q 19.578125 74.21875 30.609375 74.21875 
Q 43.265625 74.21875 49.921875 64.515625 
Q 56.59375 54.828125 56.59375 36.375 
Q 56.59375 19.140625 48.40625 8.859375 
Q 40.234375 -1.421875 26.421875 -1.421875 
Q 22.703125 -1.421875 18.890625 -0.6875 
Q 15.09375 0.046875 10.984375 1.515625 
z
M 30.609375 32.421875 
Q 37.25 32.421875 41.125 36.953125 
Q 45.015625 41.5 45.015625 49.421875 
Q 45.015625 57.28125 41.125 61.84375 
Q 37.25 66.40625 30.609375 66.40625 
Q 23.96875 66.40625 20.09375 61.84375 
Q 16.21875 57.28125 16.21875 49.421875 
Q 16.21875 41.5 20.09375 36.953125 
Q 23.96875 32.421875 30.609375 32.421875 
z
" id="DejaVuSans-57"/>
      </defs>
      <g transform="translate(67.096875 90.084816)scale(0.1 -0.1)">
       <use xlink:href="#DejaVuSans-48"/>
       <use x="63.623047" xlink:href="#DejaVuSans-46"/>
       <use x="95.410156" xlink:href="#DejaVuSans-57"/>
      </g>
     </g>
    </g>
    <g id="ytick_8">
     <g id="line2d_31">
      <path clip-path="url(#p176af76d0a)" d="M 90 53.152388 
L 648 53.152388 
" style="fill:none;stroke:#b0b0b0;stroke-linecap:square;stroke-width:0.8;"/>
     </g>
     <g id="line2d_32">
      <g>
       <use style="stroke:#000000;stroke-width:0.8;" x="90" xlink:href="#m5f0fad019b" y="53.152388"/>
      </g>
     </g>
     <g id="text_17">
      <!-- 1.0 -->
      <g transform="translate(67.096875 56.951607)scale(0.1 -0.1)">
       <use xlink:href="#DejaVuSans-49"/>
       <use x="63.623047" xlink:href="#DejaVuSans-46"/>
       <use x="95.410156" xlink:href="#DejaVuSans-48"/>
      </g>
     </g>
    </g>
    <g id="text_18">
     <!-- accuracy -->
     <defs>
      <path d="M 34.28125 27.484375 
Q 23.390625 27.484375 19.1875 25 
Q 14.984375 22.515625 14.984375 16.5 
Q 14.984375 11.71875 18.140625 8.90625 
Q 21.296875 6.109375 26.703125 6.109375 
Q 34.1875 6.109375 38.703125 11.40625 
Q 43.21875 16.703125 43.21875 25.484375 
L 43.21875 27.484375 
z
M 52.203125 31.203125 
L 52.203125 0 
L 43.21875 0 
L 43.21875 8.296875 
Q 40.140625 3.328125 35.546875 0.953125 
Q 30.953125 -1.421875 24.3125 -1.421875 
Q 15.921875 -1.421875 10.953125 3.296875 
Q 6 8.015625 6 15.921875 
Q 6 25.140625 12.171875 29.828125 
Q 18.359375 34.515625 30.609375 34.515625 
L 43.21875 34.515625 
L 43.21875 35.40625 
Q 43.21875 41.609375 39.140625 45 
Q 35.0625 48.390625 27.6875 48.390625 
Q 23 48.390625 18.546875 47.265625 
Q 14.109375 46.140625 10.015625 43.890625 
L 10.015625 52.203125 
Q 14.9375 54.109375 19.578125 55.046875 
Q 24.21875 56 28.609375 56 
Q 40.484375 56 46.34375 49.84375 
Q 52.203125 43.703125 52.203125 31.203125 
z
" id="DejaVuSans-97"/>
      <path d="M 8.5 21.578125 
L 8.5 54.6875 
L 17.484375 54.6875 
L 17.484375 21.921875 
Q 17.484375 14.15625 20.5 10.265625 
Q 23.53125 6.390625 29.59375 6.390625 
Q 36.859375 6.390625 41.078125 11.03125 
Q 45.3125 15.671875 45.3125 23.6875 
L 45.3125 54.6875 
L 54.296875 54.6875 
L 54.296875 0 
L 45.3125 0 
L 45.3125 8.40625 
Q 42.046875 3.421875 37.71875 1 
Q 33.40625 -1.421875 27.6875 -1.421875 
Q 18.265625 -1.421875 13.375 4.4375 
Q 8.5 10.296875 8.5 21.578125 
z
M 31.109375 56 
z
" id="DejaVuSans-117"/>
      <path d="M 41.109375 46.296875 
Q 39.59375 47.171875 37.8125 47.578125 
Q 36.03125 48 33.890625 48 
Q 26.265625 48 22.1875 43.046875 
Q 18.109375 38.09375 18.109375 28.8125 
L 18.109375 0 
L 9.078125 0 
L 9.078125 54.6875 
L 18.109375 54.6875 
L 18.109375 46.1875 
Q 20.953125 51.171875 25.484375 53.578125 
Q 30.03125 56 36.53125 56 
Q 37.453125 56 38.578125 55.875 
Q 39.703125 55.765625 41.0625 55.515625 
z
" id="DejaVuSans-114"/>
      <path d="M 32.171875 -5.078125 
Q 28.375 -14.84375 24.75 -17.8125 
Q 21.140625 -20.796875 15.09375 -20.796875 
L 7.90625 -20.796875 
L 7.90625 -13.28125 
L 13.1875 -13.28125 
Q 16.890625 -13.28125 18.9375 -11.515625 
Q 21 -9.765625 23.484375 -3.21875 
L 25.09375 0.875 
L 2.984375 54.6875 
L 12.5 54.6875 
L 29.59375 11.921875 
L 46.6875 54.6875 
L 56.203125 54.6875 
z
" id="DejaVuSans-121"/>
     </defs>
     <g transform="translate(61.017187 201.659375)rotate(-90)scale(0.1 -0.1)">
      <use xlink:href="#DejaVuSans-97"/>
      <use x="61.279297" xlink:href="#DejaVuSans-99"/>
      <use x="116.259766" xlink:href="#DejaVuSans-99"/>
      <use x="171.240234" xlink:href="#DejaVuSans-117"/>
      <use x="234.619141" xlink:href="#DejaVuSans-114"/>
      <use x="275.732422" xlink:href="#DejaVuSans-97"/>
      <use x="337.011719" xlink:href="#DejaVuSans-99"/>
      <use x="391.992188" xlink:href="#DejaVuSans-121"/>
     </g>
    </g>
   </g>
   <g id="line2d_33">
    <path clip-path="url(#p176af76d0a)" d="M 115.363636 298.338137 
L 115.703631 297.426974 
L 116.043627 301.15446 
L 116.723617 291.794328 
L 117.063612 290.469 
L 117.403607 291.628662 
L 117.743602 287.901176 
L 118.083597 286.990013 
L 118.423592 285.25052 
L 118.763588 282.931195 
L 119.103583 285.499019 
L 119.443578 280.363371 
L 119.783573 283.262527 
L 120.123568 278.375379 
L 120.463563 280.280538 
L 120.803558 280.114872 
L 121.143553 277.215716 
L 121.823544 274.233727 
L 122.163539 270.671907 
L 122.503534 270.340575 
L 122.843529 270.257742 
L 123.183524 263.713934 
L 123.523519 266.447423 
L 123.863515 263.134102 
L 124.20351 262.388605 
L 124.543505 258.826785 
L 124.8835 256.75596 
L 125.223495 259.903614 
L 125.56349 251.040481 
L 125.903485 252.034477 
L 126.24348 250.709149 
L 126.583476 247.644327 
L 126.923471 243.171344 
L 127.263466 244.331006 
L 127.603461 243.005678 
L 127.943456 239.029692 
L 128.283451 237.455865 
L 128.623446 237.0417 
L 128.963441 234.888041 
L 129.303437 235.13654 
L 129.643432 233.562713 
L 129.983427 228.509899 
L 130.323422 227.433069 
L 130.663417 227.515902 
L 131.003412 226.190574 
L 131.343407 227.681568 
L 131.683402 220.226596 
L 132.023398 218.901268 
L 132.363393 213.268622 
L 132.703388 209.955301 
L 133.043383 216.49911 
L 133.383378 211.197797 
L 133.723373 211.363463 
L 134.063368 206.64198 
L 134.403363 212.026127 
L 134.743359 203.411492 
L 135.083354 205.896483 
L 135.763344 199.104175 
L 136.103339 201.4235 
L 136.443334 200.59517 
L 136.783329 198.193012 
L 137.123324 193.720029 
L 137.46332 196.702017 
L 137.803315 194.29986 
L 138.14331 194.879691 
L 138.483305 192.063368 
L 138.8233 193.388697 
L 139.163295 180.88091 
L 139.50329 184.856895 
L 139.843285 184.691229 
L 140.183281 176.325094 
L 140.523276 181.874906 
L 140.863271 180.466745 
L 141.203266 176.656426 
L 141.543261 179.472749 
L 141.883256 169.532786 
L 142.223251 170.19545 
L 142.563246 172.514775 
L 142.903242 171.355112 
L 143.243237 167.047795 
L 143.583232 164.314305 
L 143.923227 167.876125 
L 144.263222 164.148639 
L 144.603217 167.296294 
L 145.283207 156.445168 
L 145.623203 157.853329 
L 145.963198 155.368339 
L 146.303193 154.622842 
L 146.643188 156.528001 
L 146.983183 152.717682 
L 147.323178 150.315524 
L 147.663173 149.238695 
L 148.683159 148.82453 
L 149.363149 143.026218 
L 149.703144 142.943385 
L 150.383134 140.624061 
L 150.723129 140.458395 
L 151.063125 139.298732 
L 151.40312 138.636068 
L 151.743115 134.742916 
L 152.08311 135.40558 
L 152.423105 133.831753 
L 152.7631 134.245918 
L 153.103095 132.340758 
L 153.44309 128.778938 
L 153.783086 128.033441 
L 154.123081 128.613272 
L 154.463076 130.849764 
L 154.803071 126.873779 
L 155.483061 124.554454 
L 155.823056 124.223122 
L 156.163051 125.382784 
L 156.503047 125.299951 
L 156.843042 123.808957 
L 157.183037 128.613272 
L 157.523032 123.477625 
L 157.863027 122.317962 
L 158.203022 119.50164 
L 158.543017 121.572465 
L 158.883012 120.826968 
L 159.223008 115.856987 
L 159.563003 118.756142 
L 159.902998 115.691321 
L 160.242993 116.188319 
L 160.922983 113.537662 
L 161.262978 116.022653 
L 161.602973 113.868994 
L 161.942969 114.614491 
L 162.282964 112.874998 
L 162.622959 109.975842 
L 162.962954 109.64451 
L 163.302949 109.975842 
L 163.642944 110.638506 
L 163.982939 111.963834 
L 164.322934 107.325185 
L 164.66293 110.224341 
L 165.002925 106.91102 
L 165.34292 107.73935 
L 165.682915 104.343196 
L 166.02291 104.094697 
L 166.362905 102.355204 
L 166.7029 103.846198 
L 167.042895 104.094697 
L 167.382891 104.508862 
L 167.722886 105.668525 
L 168.062881 103.514866 
L 168.402876 103.846198 
L 168.742871 104.343196 
L 169.082866 102.189538 
L 169.422861 101.44404 
L 169.762856 103.266367 
L 170.102852 99.78738 
L 170.782842 101.361207 
L 171.122837 100.947042 
L 171.462832 99.041883 
L 171.802827 97.965053 
L 172.142822 97.799387 
L 172.482817 96.474059 
L 172.822813 98.544885 
L 173.162808 97.219556 
L 173.502803 97.965053 
L 173.842798 97.136723 
L 174.182793 99.041883 
L 174.522788 98.379219 
L 174.862783 98.876217 
L 175.202778 98.462052 
L 175.542774 96.22556 
L 175.882769 96.556892 
L 176.222764 94.486066 
L 176.562759 97.302389 
L 176.902754 93.49207 
L 177.242749 95.562896 
L 177.582744 92.995072 
L 177.922739 94.983065 
L 178.262735 91.255579 
L 178.60273 91.255579 
L 178.942725 92.415241 
L 179.622715 92.66374 
L 180.302705 91.255579 
L 180.6427 92.083909 
L 180.982696 95.148731 
L 181.322691 92.166742 
L 181.662686 90.261582 
L 182.002681 91.338412 
L 182.342676 90.592914 
L 183.362661 86.699762 
L 183.702657 88.439256 
L 184.042652 92.746573 
L 184.722642 87.776592 
L 185.402632 89.10192 
L 185.742627 88.025091 
L 186.082622 84.628937 
L 186.422618 87.610926 
L 186.762613 89.516085 
L 187.102608 89.516085 
L 187.442603 86.285597 
L 187.782598 86.119931 
L 188.122593 86.699762 
L 188.462588 86.119931 
L 188.802583 84.71177 
L 189.142579 88.107924 
L 189.482574 85.871432 
L 189.822569 84.463271 
L 190.162564 86.202764 
L 190.502559 86.451263 
L 190.842554 83.966273 
L 191.182549 86.285597 
L 191.86254 82.972276 
L 192.202535 84.794603 
L 192.54253 84.463271 
L 192.882525 83.220775 
L 193.22252 85.5401 
L 193.562515 85.622933 
L 193.90251 83.883439 
L 194.242505 86.36843 
L 194.582501 82.392445 
L 194.922496 82.972276 
L 195.262491 84.214772 
L 195.602486 80.818618 
L 195.942481 82.143946 
L 196.282476 82.723777 
L 196.622471 80.404453 
L 196.962466 83.800606 
L 197.302462 82.061113 
L 197.642457 82.392445 
L 197.982452 80.487286 
L 198.322447 80.901451 
L 198.662442 80.652952 
L 199.002437 82.226779 
L 199.342432 81.564115 
L 199.682427 81.398449 
L 200.022423 81.481282 
L 200.362418 79.741788 
L 200.702413 78.830625 
L 201.042408 80.07312 
L 201.382403 79.410456 
L 201.722398 81.481282 
L 202.062393 80.321619 
L 202.402388 80.238786 
L 203.082379 80.984284 
L 203.422374 79.493289 
L 204.102364 79.990287 
L 204.442359 78.499293 
L 204.782354 78.996291 
L 205.12235 78.996291 
L 205.462345 80.818618 
L 205.80234 80.818618 
L 206.142335 76.5113 
L 206.48233 80.735785 
L 206.822325 76.428467 
L 207.16232 77.422464 
L 207.502315 77.670963 
L 207.842311 78.167961 
L 208.182306 77.919462 
L 208.522301 77.339631 
L 208.862296 75.848636 
L 209.202291 79.161957 
L 209.542286 77.836629 
L 209.882281 78.333627 
L 210.222276 76.428467 
L 210.562272 76.759799 
L 210.902267 76.428467 
L 211.242262 77.008299 
L 211.582257 75.848636 
L 211.922252 76.925466 
L 212.262247 77.505297 
L 212.602242 76.925466 
L 212.942237 78.333627 
L 213.282233 76.428467 
L 213.622228 76.5113 
L 213.962223 74.771807 
L 214.302218 76.594133 
L 214.642213 76.5113 
L 214.982208 76.925466 
L 215.322203 77.008299 
L 215.662198 74.440475 
L 216.002194 75.931469 
L 216.342189 75.931469 
L 217.022179 74.274809 
L 217.362174 75.268805 
L 217.702169 73.777811 
L 218.042164 73.115146 
L 218.382159 74.191976 
L 218.722155 76.097135 
L 219.06215 75.020306 
L 219.402145 74.357642 
L 219.74214 72.94948 
L 220.082135 72.535315 
L 220.42213 74.85464 
L 220.762125 73.612145 
L 221.10212 73.612145 
L 221.442116 73.115146 
L 221.782111 73.612145 
L 222.122106 75.434471 
L 222.462101 72.94948 
L 222.802096 71.955484 
L 223.142091 76.345634 
L 223.822081 71.955484 
L 224.162077 74.771807 
L 224.502072 74.109143 
L 224.842067 72.866647 
L 225.182062 74.771807 
L 225.522057 74.191976 
L 225.862052 73.115146 
L 226.202047 74.771807 
L 226.542042 74.274809 
L 226.882038 74.191976 
L 227.222033 72.535315 
L 227.562028 74.440475 
L 227.902023 73.280812 
L 228.242018 71.29282 
L 228.582013 71.458486 
L 229.262003 73.280812 
L 229.601999 72.369649 
L 229.941994 72.203983 
L 230.281989 70.795822 
L 230.961979 73.446479 
L 231.301974 71.458486 
L 231.641969 70.547323 
L 231.981964 70.215991 
L 232.32196 70.381657 
L 232.661955 71.706985 
L 233.00195 74.688974 
L 233.341945 72.700981 
L 233.68194 69.967492 
L 234.021935 69.553326 
L 234.36193 72.618148 
L 234.701925 70.630156 
L 235.041921 71.955484 
L 235.381916 70.133158 
L 236.061906 69.801825 
L 236.401901 71.624152 
L 236.741896 71.127154 
L 237.081891 70.298824 
L 237.421886 69.801825 
L 237.761882 69.967492 
L 238.101877 70.961488 
L 238.441872 68.642163 
L 238.781867 70.961488 
L 239.121862 70.133158 
L 239.461857 69.884659 
L 239.801852 71.789818 
L 240.141847 70.381657 
L 240.481843 71.29282 
L 240.821838 71.127154 
L 241.161833 69.884659 
L 241.501828 70.381657 
L 241.841823 69.636159 
L 242.181818 69.553326 
L 242.521813 69.056328 
L 242.861808 71.789818 
L 243.541799 69.221994 
L 243.881794 70.46449 
L 244.221789 70.630156 
L 244.561784 69.884659 
L 244.901779 71.541319 
L 245.241774 69.221994 
L 245.581769 68.227998 
L 245.921765 68.393664 
L 246.26176 70.795822 
L 246.601755 70.133158 
L 246.94175 67.979499 
L 247.281745 68.724996 
L 247.62174 68.227998 
L 247.961735 68.310831 
L 248.30173 68.973495 
L 248.641726 68.393664 
L 248.981721 69.718992 
L 249.321716 68.642163 
L 250.001706 68.062332 
L 250.341701 69.304827 
L 250.681696 68.807829 
L 251.021691 68.807829 
L 251.361687 67.813833 
L 251.701682 68.145165 
L 252.041677 67.896666 
L 252.381672 67.482501 
L 252.721667 69.636159 
L 253.061662 68.227998 
L 253.401657 69.470493 
L 253.741652 67.648167 
L 254.081648 68.227998 
L 255.101633 66.571338 
L 255.441628 67.731 
L 255.781623 67.151169 
L 256.121618 67.896666 
L 256.801609 66.322839 
L 257.141604 66.405672 
L 257.481599 68.642163 
L 257.821594 67.151169 
L 258.161589 68.476497 
L 258.501584 67.813833 
L 259.181574 65.494508 
L 259.52157 66.90267 
L 259.861565 66.488505 
L 260.20156 67.068336 
L 260.541555 66.90267 
L 260.88155 67.234002 
L 261.221545 66.985503 
L 261.56154 67.482501 
L 261.901535 66.488505 
L 262.241531 67.151169 
L 262.581526 67.151169 
L 262.921521 66.737004 
L 263.261516 66.737004 
L 263.601511 67.565334 
L 263.941506 67.896666 
L 264.281501 68.393664 
L 264.621496 66.157172 
L 264.961492 67.896666 
L 265.301487 67.565334 
L 265.641482 65.577341 
L 265.981477 66.405672 
L 266.321472 66.571338 
L 266.661467 67.565334 
L 267.001462 67.399668 
L 267.681453 68.393664 
L 268.021448 65.328842 
L 268.701438 67.068336 
L 269.041433 67.482501 
L 269.381428 67.151169 
L 269.721423 67.234002 
L 270.061418 64.749011 
L 270.401414 65.82584 
L 270.741409 66.074339 
L 271.081404 65.660174 
L 271.421399 66.157172 
L 271.761394 66.240005 
L 272.101389 65.82584 
L 272.441384 64.666178 
L 273.121375 66.571338 
L 273.46137 66.322839 
L 273.801365 65.411675 
L 274.14136 67.068336 
L 274.481355 65.246009 
L 274.82135 66.405672 
L 275.161345 65.82584 
L 275.50134 66.157172 
L 275.841336 64.831844 
L 276.521326 66.405672 
L 277.201316 66.654171 
L 277.881306 65.660174 
L 278.221301 65.743007 
L 278.561297 66.488505 
L 278.901292 64.831844 
L 279.241287 64.500512 
L 279.581282 64.831844 
L 279.921277 66.737004 
L 280.261272 66.405672 
L 280.601267 66.737004 
L 280.941262 65.328842 
L 281.281258 65.328842 
L 281.621253 66.654171 
L 281.961248 64.831844 
L 282.301243 64.003514 
L 282.641238 66.571338 
L 282.981233 65.577341 
L 283.321228 65.163176 
L 283.661223 64.003514 
L 284.001219 65.246009 
L 284.341214 64.99751 
L 284.681209 65.82584 
L 285.021204 63.589349 
L 285.361199 65.494508 
L 285.701194 65.411675 
L 286.041189 65.660174 
L 286.381184 65.080343 
L 286.72118 65.080343 
L 287.061175 64.417679 
L 287.40117 64.831844 
L 287.741165 63.837848 
L 288.08116 66.074339 
L 288.421155 64.334846 
L 288.76115 64.831844 
L 289.101146 66.737004 
L 289.781136 64.417679 
L 290.121131 64.417679 
L 290.461126 65.328842 
L 290.801121 63.672182 
L 291.141116 64.252013 
L 291.481111 65.82584 
L 291.821107 63.589349 
L 292.501097 65.328842 
L 292.841092 64.831844 
L 293.181087 64.583345 
L 293.521082 63.837848 
L 293.861077 64.334846 
L 294.201072 64.086347 
L 294.541068 65.991506 
L 294.881063 62.926685 
L 295.221058 63.423683 
L 295.561053 63.423683 
L 295.901048 65.328842 
L 296.241043 65.660174 
L 296.581038 65.163176 
L 296.921033 63.589349 
L 297.261029 62.678185 
L 297.601024 63.506516 
L 297.941019 63.672182 
L 298.621009 63.092351 
L 298.961004 64.16918 
L 299.300999 65.743007 
L 299.640994 62.595352 
L 299.98099 63.175184 
L 300.320985 64.500512 
L 300.66098 63.258017 
L 301.000975 64.003514 
L 301.34097 63.34085 
L 302.02096 64.16918 
L 302.360955 65.246009 
L 302.700951 63.506516 
L 303.040946 64.086347 
L 303.380941 63.506516 
L 303.720936 64.666178 
L 304.060931 64.086347 
L 304.400926 62.843852 
L 304.740921 63.258017 
L 305.080916 64.334846 
L 305.420912 64.003514 
L 305.760907 62.181187 
L 306.100902 64.914677 
L 306.440897 64.749011 
L 306.780892 64.914677 
L 307.120887 64.16918 
L 307.800877 63.672182 
L 308.140873 63.837848 
L 308.480868 63.009518 
L 308.820863 64.417679 
L 309.500853 62.761018 
L 309.840848 63.920681 
L 310.180843 62.346853 
L 310.520838 63.920681 
L 310.860834 63.755015 
L 311.200829 61.767022 
L 311.880819 64.16918 
L 312.220814 62.429686 
L 312.560809 62.429686 
L 312.900804 62.678185 
L 313.240799 62.429686 
L 313.580795 61.684189 
L 313.92079 62.098354 
L 314.260785 63.258017 
L 314.940775 62.843852 
L 315.28077 61.932688 
L 315.620765 61.352857 
L 315.96076 62.926685 
L 316.300756 62.595352 
L 316.640751 63.175184 
L 316.980746 62.843852 
L 317.320741 64.16918 
L 317.660736 62.346853 
L 318.000731 63.672182 
L 318.340726 62.181187 
L 318.680721 63.423683 
L 319.020717 62.926685 
L 319.360712 62.015521 
L 319.700707 62.26402 
L 320.040702 63.009518 
L 320.380697 63.258017 
L 321.060687 62.678185 
L 321.400682 61.187191 
L 321.740678 62.843852 
L 322.080673 61.187191 
L 322.760663 63.175184 
L 323.100658 60.855859 
L 323.780648 62.181187 
L 324.120643 61.352857 
L 324.460639 61.849855 
L 324.800634 63.175184 
L 325.140629 62.098354 
L 325.480624 61.684189 
L 325.820619 62.015521 
L 326.500609 61.518523 
L 326.840604 61.601356 
L 327.1806 63.175184 
L 327.520595 62.429686 
L 327.86059 63.506516 
L 328.200585 63.009518 
L 328.54058 61.352857 
L 328.880575 63.092351 
L 329.22057 63.175184 
L 329.560565 61.518523 
L 329.900561 62.015521 
L 330.240556 62.26402 
L 330.580551 62.843852 
L 330.920546 61.352857 
L 331.260541 62.926685 
L 331.600536 62.595352 
L 331.940531 61.518523 
L 332.280526 62.926685 
L 332.620522 62.098354 
L 332.960517 62.181187 
L 333.300512 61.518523 
L 333.640507 62.098354 
L 333.980502 60.938692 
L 334.320497 62.015521 
L 334.660492 61.104358 
L 335.000487 61.849855 
L 335.340483 60.193195 
L 335.680478 61.849855 
L 336.020473 62.429686 
L 336.360468 62.429686 
L 336.700463 61.352857 
L 337.040458 61.352857 
L 337.380453 62.26402 
L 338.060444 61.021525 
L 338.400439 61.104358 
L 338.740434 61.518523 
L 339.080429 60.60736 
L 339.420424 61.518523 
L 339.760419 61.932688 
L 340.100414 63.175184 
L 340.440409 61.601356 
L 340.780405 61.43569 
L 341.1204 62.761018 
L 341.460395 61.684189 
L 342.140385 60.773026 
L 342.48038 61.849855 
L 342.820375 61.021525 
L 343.16037 60.60736 
L 343.500366 60.855859 
L 343.840361 60.110362 
L 344.180356 61.187191 
L 344.520351 60.524527 
L 345.200341 61.684189 
L 345.540336 61.270024 
L 346.220327 62.512519 
L 346.560322 61.352857 
L 346.900317 61.104358 
L 347.240312 61.104358 
L 347.580307 60.773026 
L 347.920302 62.595352 
L 348.260297 59.696197 
L 348.600292 60.193195 
L 348.940288 59.613364 
L 349.280283 62.015521 
L 349.960273 60.358861 
L 350.300268 60.110362 
L 350.640263 60.193195 
L 350.980258 61.104358 
L 351.320253 62.512519 
L 351.660249 60.60736 
L 352.000244 60.110362 
L 352.340239 60.938692 
L 352.680234 60.855859 
L 353.020229 60.358861 
L 353.360224 61.104358 
L 353.700219 61.187191 
L 354.040214 60.773026 
L 354.38021 60.855859 
L 354.720205 60.524527 
L 355.0602 60.60736 
L 355.400195 60.193195 
L 355.74019 61.43569 
L 356.080185 60.938692 
L 356.42018 61.518523 
L 356.760175 60.60736 
L 357.100171 60.441694 
L 357.440166 60.110362 
L 357.780161 62.429686 
L 358.120156 60.193195 
L 358.460151 61.601356 
L 358.800146 60.358861 
L 359.140141 61.187191 
L 359.480136 60.193195 
L 359.820132 62.015521 
L 360.160127 60.110362 
L 361.180112 61.352857 
L 361.520107 61.270024 
L 361.860102 59.77903 
L 362.200097 62.761018 
L 362.540093 61.684189 
L 362.880088 59.861863 
L 363.220083 60.938692 
L 363.560078 60.773026 
L 363.900073 60.358861 
L 364.240068 62.26402 
L 364.580063 60.855859 
L 364.920058 60.855859 
L 365.260054 61.601356 
L 365.600049 61.849855 
L 365.940044 60.60736 
L 366.280039 60.027529 
L 366.620034 60.276028 
L 366.960029 60.193195 
L 367.300024 60.60736 
L 367.640019 60.110362 
L 367.980015 59.282032 
L 368.660005 61.43569 
L 369 59.447698 
L 369.339995 59.77903 
L 369.67999 60.60736 
L 370.019985 60.855859 
L 370.359981 61.270024 
L 371.039971 60.524527 
L 371.379966 59.77903 
L 371.719961 60.60736 
L 372.059956 59.696197 
L 372.399951 59.77903 
L 372.739946 60.938692 
L 373.079942 60.276028 
L 373.419937 59.944696 
L 374.099927 59.861863 
L 374.439922 60.441694 
L 374.779917 59.944696 
L 375.119912 59.696197 
L 375.459907 60.358861 
L 375.799903 61.43569 
L 376.139898 60.027529 
L 376.479893 59.77903 
L 376.819888 60.938692 
L 377.159883 59.77903 
L 377.499878 60.60736 
L 377.839873 59.447698 
L 378.179868 58.7022 
L 378.859859 61.270024 
L 379.199854 59.944696 
L 379.539849 60.690193 
L 379.879844 59.199198 
L 380.219839 59.364865 
L 380.899829 60.441694 
L 381.239825 59.696197 
L 381.919815 61.104358 
L 382.25981 59.116365 
L 382.599805 60.193195 
L 382.9398 60.441694 
L 383.279795 59.696197 
L 383.61979 61.601356 
L 383.959786 60.938692 
L 384.299781 59.613364 
L 384.639776 61.270024 
L 384.979771 59.613364 
L 385.319766 59.199198 
L 385.659761 60.110362 
L 385.999756 59.613364 
L 386.679747 60.938692 
L 387.019742 60.027529 
L 387.359737 59.861863 
L 387.699732 61.021525 
L 388.039727 59.116365 
L 388.379722 59.861863 
L 388.719717 59.77903 
L 389.059712 59.530531 
L 389.399708 60.358861 
L 389.739703 59.77903 
L 390.079698 60.358861 
L 390.419693 59.530531 
L 390.759688 60.773026 
L 391.439678 58.867866 
L 391.779673 61.021525 
L 392.119669 59.944696 
L 392.459664 60.110362 
L 392.799659 59.199198 
L 393.139654 59.364865 
L 393.479649 60.358861 
L 393.819644 59.116365 
L 394.159639 59.944696 
L 394.499634 60.358861 
L 394.83963 60.027529 
L 395.179625 58.7022 
L 395.51962 59.447698 
L 396.19961 59.033532 
L 396.539605 59.861863 
L 396.8796 58.536534 
L 397.219595 59.696197 
L 397.559591 59.447698 
L 397.899586 59.447698 
L 398.239581 58.950699 
L 398.579576 60.193195 
L 398.919571 58.536534 
L 399.259566 61.187191 
L 399.599561 57.542538 
L 400.279552 59.447698 
L 400.619547 59.199198 
L 401.299537 59.613364 
L 401.639532 60.855859 
L 401.979527 60.524527 
L 402.319522 60.358861 
L 402.659517 58.867866 
L 402.999513 60.110362 
L 403.339508 59.944696 
L 403.679503 57.376872 
L 404.359493 59.447698 
L 404.699488 59.364865 
L 405.039483 58.785033 
L 405.379478 59.116365 
L 405.719474 58.453701 
L 406.059469 58.619367 
L 406.399464 60.855859 
L 406.739459 59.116365 
L 407.079454 58.288035 
L 407.419449 58.785033 
L 407.759444 60.524527 
L 408.099439 58.619367 
L 408.439435 60.358861 
L 408.77943 59.116365 
L 409.119425 58.370868 
L 409.45942 59.696197 
L 409.799415 59.364865 
L 410.13941 60.441694 
L 410.479405 58.205202 
L 411.159396 60.855859 
L 411.499391 58.453701 
L 411.839386 58.950699 
L 412.179381 60.110362 
L 412.519376 58.785033 
L 412.859371 59.199198 
L 413.199366 58.205202 
L 413.539361 59.77903 
L 413.879357 59.199198 
L 414.219352 59.116365 
L 414.559347 58.453701 
L 414.899342 59.033532 
L 415.239337 57.791037 
L 415.579332 58.453701 
L 415.919327 59.364865 
L 416.259322 58.205202 
L 416.599318 59.861863 
L 416.939313 58.536534 
L 417.279308 58.7022 
L 417.959298 58.619367 
L 418.299293 59.696197 
L 418.639288 59.282032 
L 418.979283 58.122369 
L 419.319279 59.364865 
L 419.659274 58.370868 
L 419.999269 59.696197 
L 420.339264 59.364865 
L 420.679259 60.027529 
L 421.019254 58.122369 
L 421.359249 59.282032 
L 421.699244 58.950699 
L 422.03924 59.282032 
L 422.379235 58.950699 
L 422.71923 59.033532 
L 423.059225 59.77903 
L 423.39922 59.530531 
L 423.739215 60.193195 
L 424.07921 59.033532 
L 424.419205 59.282032 
L 424.759201 59.199198 
L 425.099196 58.536534 
L 425.439191 60.193195 
L 425.779186 59.199198 
L 426.119181 59.77903 
L 426.459176 59.116365 
L 426.799171 59.116365 
L 427.139166 58.288035 
L 427.819157 59.613364 
L 428.159152 58.122369 
L 428.499147 59.282032 
L 428.839142 58.122369 
L 429.519132 59.530531 
L 429.859127 59.282032 
L 430.199123 58.122369 
L 430.539118 58.453701 
L 430.879113 58.288035 
L 431.219108 60.110362 
L 431.559103 59.116365 
L 432.239093 58.619367 
L 432.579088 58.536534 
L 432.919084 57.376872 
L 433.259079 58.288035 
L 433.599074 58.122369 
L 434.279064 59.613364 
L 434.619059 59.282032 
L 434.959054 58.370868 
L 435.299049 59.613364 
L 435.639045 58.536534 
L 435.97904 57.956703 
L 436.319035 58.950699 
L 436.65903 58.785033 
L 436.999025 60.193195 
L 437.33902 60.027529 
L 437.679015 58.867866 
L 438.01901 58.7022 
L 438.359006 59.282032 
L 438.699001 58.205202 
L 439.038996 59.033532 
L 439.378991 58.453701 
L 439.718986 58.205202 
L 440.058981 58.205202 
L 440.398976 59.530531 
L 440.738971 58.950699 
L 441.078967 57.211206 
L 441.418962 58.288035 
L 441.758957 58.453701 
L 442.098952 58.288035 
L 442.438947 58.619367 
L 442.778942 59.199198 
L 443.458932 58.785033 
L 443.798928 57.211206 
L 444.138923 58.950699 
L 444.478918 58.205202 
L 444.818913 59.199198 
L 445.158908 59.116365 
L 445.498903 59.696197 
L 446.178893 58.122369 
L 446.858884 58.619367 
L 447.198879 59.199198 
L 447.878869 57.708204 
L 448.218864 59.944696 
L 448.558859 58.039536 
L 448.898854 59.282032 
L 449.23885 58.453701 
L 449.578845 59.364865 
L 449.91884 57.128373 
L 450.258835 58.536534 
L 450.59883 58.7022 
L 450.938825 58.453701 
L 451.27882 58.7022 
L 451.618816 59.77903 
L 451.958811 59.282032 
L 452.298806 57.87387 
L 452.638801 58.370868 
L 452.978796 58.453701 
L 453.318791 58.785033 
L 453.658786 58.205202 
L 453.998781 57.87387 
L 454.338777 58.288035 
L 454.678772 58.950699 
L 455.358762 57.625371 
L 455.698757 58.453701 
L 456.038752 57.708204 
L 456.378747 59.199198 
L 456.718742 57.04554 
L 457.058738 58.950699 
L 457.398733 58.619367 
L 457.738728 57.956703 
L 458.078723 57.87387 
L 458.418718 59.613364 
L 458.758713 57.956703 
L 459.098708 57.211206 
L 459.438703 59.944696 
L 459.778699 57.708204 
L 460.118694 58.122369 
L 460.458689 57.625371 
L 460.798684 58.7022 
L 461.138679 58.039536 
L 461.478674 59.530531 
L 461.818669 57.87387 
L 462.158664 57.459705 
L 462.49866 58.785033 
L 462.838655 58.453701 
L 463.17865 59.364865 
L 463.85864 56.714208 
L 464.198635 59.696197 
L 464.53863 58.039536 
L 464.878625 57.542538 
L 465.558616 59.033532 
L 465.898611 58.453701 
L 466.238606 56.714208 
L 466.578601 58.453701 
L 466.918596 57.542538 
L 467.258591 58.536534 
L 467.598586 57.294039 
L 467.938582 59.033532 
L 468.278577 59.199198 
L 468.618572 58.288035 
L 468.958567 58.453701 
L 469.298562 57.791037 
L 469.638557 58.288035 
L 469.978552 58.536534 
L 470.318547 58.039536 
L 470.658543 59.77903 
L 470.998538 59.282032 
L 471.338533 59.447698 
L 471.678528 58.453701 
L 472.018523 59.033532 
L 472.358518 58.122369 
L 472.698513 59.530531 
L 473.038508 57.87387 
L 473.378504 57.625371 
L 473.718499 59.199198 
L 474.058494 57.87387 
L 474.398489 58.536534 
L 474.738484 59.447698 
L 475.078479 57.625371 
L 475.418474 58.453701 
L 475.758469 56.879874 
L 476.098465 58.122369 
L 476.43846 56.797041 
L 476.778455 57.791037 
L 477.11845 57.956703 
L 477.458445 57.459705 
L 477.79844 57.625371 
L 478.47843 57.708204 
L 478.818426 58.205202 
L 479.158421 58.122369 
L 479.498416 57.791037 
L 479.838411 58.205202 
L 480.178406 57.128373 
L 480.518401 58.288035 
L 480.858396 58.619367 
L 481.198391 58.122369 
L 481.538387 58.122369 
L 481.878382 59.033532 
L 482.218377 58.536534 
L 482.558372 57.542538 
L 482.898367 59.77903 
L 483.578357 57.791037 
L 483.918352 57.542538 
L 484.258348 57.625371 
L 484.598343 56.962707 
L 484.938338 57.708204 
L 485.278333 57.791037 
L 485.618328 58.122369 
L 485.958323 57.625371 
L 486.298318 57.625371 
L 486.638313 56.879874 
L 486.978309 59.033532 
L 487.318304 58.7022 
L 487.658299 56.797041 
L 487.998294 58.039536 
L 488.678284 56.879874 
L 489.018279 56.879874 
L 489.358274 58.453701 
L 489.69827 57.791037 
L 490.038265 59.364865 
L 490.37826 57.294039 
L 490.718255 58.122369 
L 491.05825 57.708204 
L 491.398245 59.696197 
L 491.73824 57.625371 
L 492.078235 58.288035 
L 492.418231 58.122369 
L 492.758226 56.962707 
L 493.098221 56.548542 
L 493.438216 58.370868 
L 493.778211 57.211206 
L 494.118206 58.205202 
L 494.458201 58.370868 
L 494.798196 58.7022 
L 495.138192 58.122369 
L 495.478187 58.370868 
L 495.818182 56.879874 
L 496.158177 58.536534 
L 496.498172 56.465709 
L 496.838167 58.370868 
L 497.178162 56.962707 
L 497.518157 57.791037 
L 497.858153 57.791037 
L 498.198148 57.956703 
L 498.538143 57.459705 
L 498.878138 58.122369 
L 499.218133 59.199198 
L 499.558128 58.288035 
L 499.898123 58.205202 
L 500.238118 57.708204 
L 500.578114 57.542538 
L 500.918109 57.956703 
L 501.258104 56.879874 
L 501.598099 57.791037 
L 501.938094 58.288035 
L 502.278089 57.294039 
L 502.618084 57.791037 
L 502.958079 57.128373 
L 503.298075 56.714208 
L 503.63807 58.039536 
L 503.978065 57.87387 
L 504.31806 57.542538 
L 504.658055 58.039536 
L 504.99805 57.294039 
L 505.338045 57.211206 
L 505.67804 57.791037 
L 506.018036 57.625371 
L 506.358031 56.879874 
L 506.698026 57.625371 
L 507.038021 56.797041 
L 507.378016 57.376872 
L 507.718011 56.879874 
L 508.398001 58.122369 
L 509.077992 57.625371 
L 509.417987 56.797041 
L 509.757982 56.548542 
L 510.097977 57.542538 
L 510.437972 56.879874 
L 510.777967 56.879874 
L 511.117962 57.791037 
L 511.457958 56.631375 
L 511.797953 57.459705 
L 512.137948 57.211206 
L 512.477943 58.950699 
L 512.817938 57.459705 
L 513.157933 58.039536 
L 513.497928 56.962707 
L 513.837923 57.708204 
L 514.177919 58.122369 
L 514.857909 58.039536 
L 515.197904 56.962707 
L 515.537899 57.542538 
L 515.877894 56.714208 
L 516.217889 57.211206 
L 516.557884 58.370868 
L 516.89788 57.211206 
L 517.237875 57.04554 
L 517.57787 57.211206 
L 517.917865 57.87387 
L 518.25786 57.376872 
L 518.597855 58.122369 
L 518.93785 57.625371 
L 519.277845 57.459705 
L 519.617841 58.7022 
L 519.957836 56.714208 
L 520.297831 57.542538 
L 520.637826 56.134377 
L 520.977821 59.116365 
L 521.317816 58.039536 
L 521.997806 57.04554 
L 522.337802 58.039536 
L 522.677797 57.294039 
L 523.017792 58.122369 
L 523.357787 56.879874 
L 523.697782 57.294039 
L 524.037777 57.211206 
L 524.377772 58.122369 
L 524.717767 58.370868 
L 525.057763 57.459705 
L 525.397758 57.708204 
L 525.737753 57.542538 
L 526.077748 56.714208 
L 526.417743 57.956703 
L 526.757738 58.619367 
L 527.097733 57.87387 
L 527.437728 56.465709 
L 527.777724 57.956703 
L 528.457714 57.211206 
L 528.797709 57.542538 
L 529.137704 57.294039 
L 529.477699 56.382876 
L 529.817694 57.791037 
L 530.157689 56.797041 
L 530.497685 57.956703 
L 530.83768 57.128373 
L 531.177675 57.625371 
L 531.857665 56.962707 
L 532.19766 57.128373 
L 532.537655 57.459705 
L 532.87765 57.459705 
L 533.217646 57.708204 
L 533.557641 56.548542 
L 533.897636 56.631375 
L 534.237631 58.122369 
L 534.577626 57.376872 
L 534.917621 57.459705 
L 535.257616 57.708204 
L 535.597612 56.797041 
L 535.937607 58.288035 
L 536.277602 57.625371 
L 536.617597 57.376872 
L 536.957592 57.956703 
L 537.297587 57.87387 
L 537.637582 58.453701 
L 537.977577 57.459705 
L 538.317573 57.708204 
L 538.657568 56.797041 
L 538.997563 56.962707 
L 539.337558 57.459705 
L 539.677553 56.051544 
L 540.017548 56.548542 
L 540.357543 57.459705 
L 540.697538 56.879874 
L 541.037534 56.797041 
L 541.377529 56.134377 
L 541.717524 56.714208 
L 542.057519 56.962707 
L 542.397514 57.376872 
L 542.737509 58.370868 
L 543.077504 56.962707 
L 543.417499 56.631375 
L 543.757495 57.211206 
L 544.09749 58.370868 
L 544.437485 57.128373 
L 544.77748 57.791037 
L 545.117475 57.459705 
L 545.45747 57.376872 
L 545.797465 56.962707 
L 546.13746 57.625371 
L 546.477456 56.879874 
L 546.817451 57.04554 
L 547.157446 57.956703 
L 547.497441 56.879874 
L 547.837436 57.542538 
L 548.177431 56.631375 
L 548.857421 57.376872 
L 549.197417 57.211206 
L 549.537412 57.625371 
L 549.877407 56.21721 
L 550.217402 56.797041 
L 550.557397 56.879874 
L 550.897392 58.122369 
L 551.237387 56.714208 
L 551.577382 56.21721 
L 551.917378 58.619367 
L 552.597368 57.376872 
L 552.937363 57.708204 
L 553.277358 56.714208 
L 553.617353 57.211206 
L 553.957348 56.962707 
L 554.297343 57.791037 
L 554.637339 56.548542 
L 554.977334 56.300043 
L 555.317329 57.625371 
L 555.657324 57.128373 
L 555.997319 56.382876 
L 556.337314 56.548542 
L 556.677309 56.382876 
L 557.017304 56.051544 
L 557.3573 56.382876 
L 557.697295 57.376872 
L 558.03729 56.051544 
L 558.377285 56.300043 
L 558.71728 58.205202 
L 559.057275 57.87387 
L 559.39727 56.631375 
L 560.077261 56.714208 
L 560.417256 57.294039 
L 560.757251 56.714208 
L 561.097246 56.714208 
L 561.437241 57.542538 
L 561.777236 57.211206 
L 562.117231 56.051544 
L 562.457226 56.382876 
L 562.797222 58.039536 
L 563.137217 56.962707 
L 563.477212 56.548542 
L 563.817207 56.382876 
L 564.157202 56.382876 
L 564.497197 56.631375 
L 564.837192 57.211206 
L 565.177187 57.459705 
L 565.517183 56.134377 
L 565.857178 57.791037 
L 566.197173 56.300043 
L 566.537168 57.542538 
L 566.877163 56.714208 
L 567.217158 57.459705 
L 567.557153 56.300043 
L 567.897148 56.879874 
L 568.237144 56.465709 
L 568.577139 56.548542 
L 568.917134 55.885878 
L 569.257129 56.548542 
L 569.597124 56.134377 
L 569.937119 56.300043 
L 570.277114 56.714208 
L 570.617109 56.382876 
L 570.957105 56.714208 
L 571.2971 56.465709 
L 571.637095 56.797041 
L 571.97709 57.376872 
L 572.65708 56.631375 
L 572.997075 56.548542 
L 573.677066 56.962707 
L 574.017061 56.21721 
L 574.697051 57.211206 
L 575.037046 56.631375 
L 575.377041 57.87387 
L 576.057031 56.465709 
L 576.737022 57.294039 
L 577.077017 56.21721 
L 577.417012 57.542538 
L 577.757007 56.300043 
L 578.097002 56.051544 
L 578.436997 57.211206 
L 578.776992 56.714208 
L 579.116988 56.797041 
L 579.456983 56.548542 
L 579.796978 57.625371 
L 580.136973 56.465709 
L 580.476968 58.122369 
L 580.816963 56.465709 
L 581.156958 55.968711 
L 581.496953 56.21721 
L 581.836949 55.885878 
L 582.176944 56.631375 
L 582.856934 56.631375 
L 583.196929 56.465709 
L 583.536924 56.962707 
L 583.876919 57.708204 
L 584.216914 57.708204 
L 584.55691 56.797041 
L 584.896905 56.879874 
L 585.2369 56.631375 
L 585.576895 57.542538 
L 585.91689 57.04554 
L 586.256885 56.879874 
L 586.59688 55.803045 
L 586.936875 56.797041 
L 587.276871 56.962707 
L 587.616866 58.122369 
L 587.956861 57.294039 
L 588.296856 56.962707 
L 588.636851 57.376872 
L 588.976846 56.631375 
L 589.316841 56.382876 
L 589.656836 55.803045 
L 589.996832 57.625371 
L 590.676822 56.714208 
L 591.016817 55.554545 
L 591.356812 57.128373 
L 592.036802 57.128373 
L 592.376797 56.631375 
L 592.716793 56.631375 
L 593.056788 56.382876 
L 594.076773 56.631375 
L 594.416768 55.968711 
L 594.756763 56.631375 
L 595.096758 55.885878 
L 595.436754 56.382876 
L 595.776749 55.803045 
L 596.116744 55.720212 
L 597.136729 57.294039 
L 597.476724 55.885878 
L 598.156715 57.708204 
L 598.49671 56.051544 
L 598.836705 56.631375 
L 599.1767 56.879874 
L 599.516695 57.625371 
L 600.196685 56.134377 
L 600.876676 57.459705 
L 601.216671 56.797041 
L 601.556666 56.879874 
L 601.896661 56.714208 
L 602.236656 57.791037 
L 602.576651 56.879874 
L 602.916646 57.294039 
L 603.596637 56.382876 
L 603.936632 56.879874 
L 604.276627 56.631375 
L 604.616622 56.631375 
L 604.956617 57.708204 
L 605.296612 56.879874 
L 605.636607 56.548542 
L 605.976602 56.879874 
L 606.316598 56.631375 
L 606.656593 56.051544 
L 606.996588 56.714208 
L 607.336583 55.968711 
L 608.016573 57.459705 
L 608.356568 56.300043 
L 608.696563 57.542538 
L 609.036559 56.382876 
L 609.716549 57.376872 
L 610.056544 57.294039 
L 610.736534 56.879874 
L 611.076529 56.21721 
L 611.416524 56.879874 
L 612.096515 57.128373 
L 612.43651 57.376872 
L 612.776505 56.879874 
L 613.1165 57.708204 
L 613.456495 56.797041 
L 613.79649 57.625371 
L 614.136485 56.879874 
L 615.156471 56.382876 
L 615.496466 57.625371 
L 615.836461 57.128373 
L 616.176456 57.376872 
L 616.516451 56.548542 
L 616.856447 56.879874 
L 617.196442 56.714208 
L 617.536437 56.051544 
L 617.876432 55.637378 
L 618.216427 56.382876 
L 618.556422 56.21721 
L 618.896417 56.879874 
L 619.236412 56.21721 
L 619.576408 57.625371 
L 619.916403 56.879874 
L 620.256398 56.797041 
L 620.596393 56.300043 
L 620.936388 55.554545 
L 621.276383 56.465709 
L 621.616378 57.708204 
L 621.956373 56.134377 
L 622.636364 56.051544 
L 622.636364 56.051544 
" style="fill:none;stroke:#1f77b4;stroke-linecap:square;stroke-width:0.5;"/>
   </g>
   <g id="line2d_34">
    <path clip-path="url(#p176af76d0a)" d="M 115.363636 302.645455 
L 115.703631 300.160464 
L 116.043627 296.598644 
L 116.383622 296.350145 
L 116.723617 295.770314 
L 117.063612 293.699488 
L 117.403607 294.941983 
L 117.743602 292.042828 
L 118.083597 292.208494 
L 118.423592 288.81234 
L 118.763588 291.545829 
L 119.443578 285.830351 
L 119.783573 286.161683 
L 120.123568 286.07885 
L 120.463563 286.493015 
L 120.803558 282.102865 
L 121.143553 279.452208 
L 121.483549 281.605867 
L 121.823544 278.872377 
L 122.163539 274.399394 
L 122.503534 272.328568 
L 122.843529 276.967217 
L 123.183524 270.340575 
L 123.523519 271.748737 
L 123.863515 266.778755 
L 124.20351 267.855585 
L 124.543505 265.370594 
L 125.223495 258.246954 
L 125.56349 259.903614 
L 125.903485 255.927629 
L 126.24348 254.685134 
L 126.583476 256.258961 
L 126.923471 252.779974 
L 127.263466 252.862807 
L 127.603461 248.389824 
L 127.943456 247.72716 
L 128.283451 241.017685 
L 128.623446 241.43185 
L 128.963441 240.520687 
L 129.303437 240.272188 
L 129.643432 239.77519 
L 129.983427 238.201362 
L 130.323422 229.91806 
L 130.663417 234.391043 
L 131.003412 231.326221 
L 131.343407 229.91806 
L 131.683402 224.285414 
L 132.023398 228.924064 
L 132.363393 228.509899 
L 132.703388 223.374251 
L 133.043383 221.551925 
L 133.383378 216.996108 
L 133.723373 220.972093 
L 134.063368 213.434288 
L 134.403363 219.978097 
L 134.743359 213.434288 
L 135.083354 210.783631 
L 135.423349 212.026127 
L 135.763344 203.659991 
L 136.103339 212.10896 
L 136.443334 207.71881 
L 136.783329 206.559147 
L 137.123324 207.71881 
L 137.46332 202.665995 
L 137.803315 202.500329 
L 138.14331 197.530348 
L 138.483305 197.613181 
L 138.8233 199.601173 
L 139.163295 195.376689 
L 139.50329 189.329878 
L 139.843285 189.90971 
L 140.183281 194.134194 
L 140.523276 184.277064 
L 140.863271 187.424719 
L 141.203266 192.3947 
L 141.543261 186.182224 
L 141.883256 182.703237 
L 142.223251 182.454737 
L 143.243237 177.898921 
L 143.583232 177.484756 
L 143.923227 175.248264 
L 144.263222 168.787289 
L 144.943212 173.177439 
L 145.283207 168.53879 
L 145.623203 168.29029 
L 145.963198 159.344324 
L 146.303193 161.415149 
L 146.643188 159.095825 
L 147.323178 160.089821 
L 147.663173 160.255487 
L 148.003168 158.847326 
L 148.343164 153.628845 
L 148.683159 155.451172 
L 149.023154 149.238695 
L 149.363149 152.883348 
L 150.043139 147.416369 
L 150.383134 152.966181 
L 150.723129 146.505205 
L 151.063125 147.085036 
L 151.40312 153.049014 
L 151.743115 152.717682 
L 152.08311 146.339539 
L 152.423105 146.505205 
L 152.7631 141.949389 
L 153.44309 138.884567 
L 153.783086 139.547231 
L 154.123081 143.274717 
L 154.463076 139.630064 
L 154.803071 139.547231 
L 155.143066 137.807738 
L 155.483061 134.908582 
L 155.823056 134.411584 
L 156.163051 133.169088 
L 156.503047 133.914586 
L 156.843042 135.239914 
L 157.183037 131.429595 
L 157.523032 131.760927 
L 157.863027 128.861771 
L 158.203022 128.696105 
L 158.543017 133.334755 
L 159.223008 126.293948 
L 159.563003 126.128281 
L 159.902998 123.477625 
L 160.242993 123.726124 
L 160.582988 124.471621 
L 160.922983 121.738131 
L 161.262978 123.394792 
L 161.602973 121.655298 
L 161.942969 121.820964 
L 162.282964 120.247137 
L 162.622959 119.832972 
L 162.962954 124.637287 
L 163.302949 117.347981 
L 163.642944 120.744135 
L 163.982939 118.590476 
L 164.66293 121.406799 
L 165.34292 119.004641 
L 165.682915 112.874998 
L 166.02291 117.016649 
L 166.362905 114.531658 
L 166.7029 116.105486 
L 167.042895 115.93982 
L 167.382891 119.087474 
L 167.722886 113.537662 
L 168.062881 116.436818 
L 168.402876 114.531658 
L 168.742871 116.436818 
L 169.082866 112.129501 
L 169.422861 113.786161 
L 169.762856 109.313178 
L 170.102852 107.822183 
L 170.782842 114.531658 
L 171.122837 112.129501 
L 171.462832 110.969838 
L 171.802827 112.460833 
L 172.482817 106.08269 
L 172.822813 105.420026 
L 173.162808 109.230345 
L 173.502803 108.56768 
L 174.182793 107.905016 
L 174.522788 105.171527 
L 174.862783 105.502859 
L 175.202778 107.159519 
L 175.542774 106.662521 
L 175.882769 103.846198 
L 176.222764 105.834191 
L 176.562759 107.159519 
L 176.902754 106.579688 
L 177.242749 102.272371 
L 177.582744 104.923027 
L 177.922739 102.189538 
L 178.262735 106.08269 
L 178.60273 106.414022 
L 178.942725 101.858206 
L 179.28272 105.088694 
L 179.622715 102.603703 
L 179.96271 103.514866 
L 180.302705 101.112708 
L 180.6427 101.44404 
L 180.982696 104.343196 
L 181.322691 101.361207 
L 181.662686 100.450044 
L 182.342676 103.432033 
L 182.682671 100.864209 
L 183.022666 101.278374 
L 183.362661 100.450044 
L 183.702657 98.627718 
L 184.042652 98.793384 
L 184.382647 99.870213 
L 184.722642 100.201545 
L 185.062637 103.3492 
L 185.402632 100.035879 
L 185.742627 98.710551 
L 186.082622 95.645729 
L 186.422618 97.88222 
L 186.762613 95.894228 
L 187.442603 99.124716 
L 187.782598 97.799387 
L 188.122593 97.716554 
L 188.462588 98.213553 
L 188.802583 95.148731 
L 189.142579 95.811395 
L 189.482574 98.047887 
L 189.822569 96.391226 
L 190.162564 96.308393 
L 190.502559 96.888224 
L 190.842554 96.142727 
L 191.182549 95.065898 
L 191.522544 96.391226 
L 191.86254 93.989068 
L 192.202535 94.983065 
L 192.54253 96.639725 
L 192.882525 93.077905 
L 193.22252 95.065898 
L 193.562515 92.166742 
L 193.90251 91.669744 
L 194.242505 94.403233 
L 194.582501 93.160738 
L 194.922496 92.498074 
L 195.262491 93.077905 
L 195.602486 93.326404 
L 195.942481 91.338412 
L 196.282476 90.261582 
L 196.622471 92.829406 
L 196.962466 92.249575 
L 197.302462 94.900232 
L 197.642457 93.243571 
L 198.322447 94.651733 
L 199.342432 88.27359 
L 199.682427 93.740569 
L 200.022423 90.427248 
L 200.362418 90.427248 
L 200.702413 94.983065 
L 201.042408 91.669744 
L 201.382403 90.510081 
L 201.722398 87.528093 
L 202.062393 91.752577 
L 202.402388 90.675747 
L 202.742384 89.019087 
L 203.082379 91.00708 
L 203.422374 91.752577 
L 203.762369 90.178749 
L 204.102364 89.433252 
L 204.782354 90.013083 
L 205.12235 92.995072 
L 205.462345 88.107924 
L 205.80234 89.267586 
L 206.142335 92.829406 
L 206.48233 89.681751 
L 206.822325 90.510081 
L 207.16232 88.853421 
L 207.502315 87.776592 
L 207.842311 89.764584 
L 208.182306 89.433252 
L 208.522301 89.350419 
L 208.862296 88.770588 
L 209.542286 91.586911 
L 209.882281 86.699762 
L 210.222276 87.942258 
L 210.562272 85.871432 
L 210.902267 88.190757 
L 211.242262 88.025091 
L 211.582257 86.534096 
L 211.922252 86.202764 
L 212.262247 85.705766 
L 212.602242 84.960269 
L 212.942237 87.031094 
L 213.282233 87.113927 
L 213.962223 86.119931 
L 214.642213 88.522089 
L 214.982208 87.031094 
L 215.322203 84.380438 
L 216.002194 87.279593 
L 216.342189 83.966273 
L 216.682184 85.374434 
L 217.022179 83.386441 
L 217.362174 86.451263 
L 217.702169 87.942258 
L 218.042164 84.380438 
L 218.382159 86.119931 
L 218.722155 87.113927 
L 219.402145 85.5401 
L 219.74214 85.954265 
L 220.082135 87.610926 
L 220.42213 85.043102 
L 220.762125 84.546104 
L 221.442116 85.5401 
L 221.782111 81.398449 
L 222.122106 84.794603 
L 222.462101 82.80661 
L 222.802096 84.214772 
L 223.142091 83.63494 
L 223.482086 84.877436 
L 223.822081 84.546104 
L 224.162077 83.63494 
L 224.502072 84.794603 
L 224.842067 85.374434 
L 225.182062 83.552107 
L 225.522057 86.699762 
L 225.862052 82.723777 
L 226.202047 81.067117 
L 226.542042 80.735785 
L 227.222033 82.723777 
L 227.562028 85.871432 
L 227.902023 82.640944 
L 228.242018 82.309612 
L 228.582013 84.049106 
L 228.922008 82.889443 
L 229.262003 83.055109 
L 229.941994 81.895447 
L 230.281989 84.71177 
L 230.621984 83.469274 
L 230.961979 82.889443 
L 231.301974 81.481282 
L 231.641969 83.717773 
L 231.981964 83.552107 
L 232.32196 80.735785 
L 232.661955 85.374434 
L 233.00195 81.97828 
L 233.341945 80.652952 
L 233.68194 80.652952 
L 234.021935 84.214772 
L 234.36193 79.741788 
L 234.701925 82.143946 
L 235.041921 83.386441 
L 235.381916 82.226779 
L 235.721911 80.652952 
L 236.061906 82.226779 
L 236.401901 81.729781 
L 236.741896 82.061113 
L 237.081891 81.646948 
L 237.421886 79.079124 
L 237.761882 82.392445 
L 238.101877 81.564115 
L 238.441872 79.990287 
L 239.121862 83.055109 
L 239.461857 81.729781 
L 239.801852 82.80661 
L 240.141847 78.499293 
L 240.481843 81.398449 
L 240.821838 81.481282 
L 241.161833 80.155953 
L 241.501828 80.901451 
L 241.841823 79.161957 
L 242.181818 81.232783 
L 242.521813 78.582126 
L 242.861808 80.984284 
L 243.201804 80.984284 
L 243.541799 81.481282 
L 243.881794 79.327623 
L 244.221789 80.652952 
L 244.901779 81.646948 
L 245.241774 79.161957 
L 245.581769 79.990287 
L 245.921765 78.167961 
L 246.26176 80.238786 
L 246.601755 80.487286 
L 246.94175 78.41646 
L 247.281745 80.238786 
L 247.62174 81.315616 
L 247.961735 77.670963 
L 248.30173 78.333627 
L 248.641726 79.327623 
L 248.981721 82.309612 
L 249.661711 77.505297 
L 250.341701 81.481282 
L 250.681696 79.327623 
L 251.021691 79.24479 
L 251.361687 80.155953 
L 251.701682 79.990287 
L 252.041677 77.919462 
L 252.381672 80.652952 
L 252.721667 81.067117 
L 253.061662 79.161957 
L 253.401657 79.327623 
L 253.741652 77.58813 
L 254.081648 78.41646 
L 254.421643 81.481282 
L 254.761638 81.067117 
L 255.101633 78.830625 
L 255.441628 79.741788 
L 255.781623 79.907454 
L 256.121618 81.97828 
L 256.461613 76.842632 
L 256.801609 79.493289 
L 257.141604 77.422464 
L 257.481599 78.250794 
L 257.821594 77.670963 
L 258.161589 78.499293 
L 258.501584 80.652952 
L 258.841579 80.984284 
L 259.181574 77.505297 
L 259.52157 78.499293 
L 259.861565 78.41646 
L 260.20156 77.422464 
L 260.541555 78.830625 
L 260.88155 78.664959 
L 261.221545 75.931469 
L 261.56154 78.085128 
L 261.901535 78.002295 
L 262.241531 77.422464 
L 262.581526 76.097135 
L 262.921521 76.428467 
L 263.261516 77.505297 
L 263.601511 78.085128 
L 263.941506 76.5113 
L 264.621496 79.493289 
L 264.961492 77.58813 
L 265.301487 76.5113 
L 265.641482 78.747792 
L 265.981477 76.759799 
L 266.321472 76.428467 
L 266.661467 77.256798 
L 267.001462 75.848636 
L 267.341457 78.085128 
L 267.681453 76.014302 
L 268.021448 76.842632 
L 268.361443 78.002295 
L 268.701438 76.5113 
L 269.041433 78.250794 
L 269.381428 76.676966 
L 269.721423 79.741788 
L 270.061418 77.422464 
L 270.401414 73.860644 
L 270.741409 78.41646 
L 271.081404 75.268805 
L 271.421399 76.345634 
L 271.761394 75.848636 
L 272.441384 78.333627 
L 272.781379 77.091132 
L 273.121375 76.428467 
L 273.46137 76.759799 
L 273.801365 76.759799 
L 274.14136 78.913458 
L 274.481355 75.517304 
L 274.82135 77.339631 
L 275.161345 76.676966 
L 275.50134 77.008299 
L 275.841336 75.931469 
L 276.181331 75.351638 
L 276.521326 76.759799 
L 276.861321 76.676966 
L 277.201316 74.937473 
L 277.541311 74.688974 
L 277.881306 78.002295 
L 278.221301 75.434471 
L 278.561297 76.759799 
L 278.901292 74.85464 
L 279.241287 75.351638 
L 279.581282 77.256798 
L 280.261272 75.600137 
L 280.601267 77.339631 
L 281.281258 73.363646 
L 281.621253 75.848636 
L 281.961248 77.256798 
L 282.301243 75.268805 
L 283.321228 77.173965 
L 283.661223 74.85464 
L 284.001219 75.600137 
L 284.341214 75.765803 
L 284.681209 74.85464 
L 285.021204 75.517304 
L 285.361199 73.860644 
L 285.701194 75.931469 
L 286.041189 73.777811 
L 286.381184 74.440475 
L 286.72118 74.109143 
L 287.061175 75.434471 
L 287.40117 75.185972 
L 287.741165 74.440475 
L 288.08116 74.937473 
L 288.421155 74.357642 
L 288.76115 76.262801 
L 289.101146 74.274809 
L 289.781136 75.68297 
L 290.121131 74.85464 
L 290.801121 76.428467 
L 291.141116 73.943477 
L 291.481111 75.351638 
L 291.821107 74.85464 
L 292.161102 77.091132 
L 292.501097 77.58813 
L 292.841092 75.020306 
L 293.181087 75.103139 
L 293.521082 71.541319 
L 293.861077 74.688974 
L 294.201072 74.109143 
L 294.541068 75.103139 
L 294.881063 77.505297 
L 295.221058 74.937473 
L 295.561053 74.440475 
L 295.901048 73.529312 
L 296.241043 73.032313 
L 296.581038 74.771807 
L 296.921033 74.85464 
L 297.261029 74.688974 
L 297.601024 74.357642 
L 297.941019 72.866647 
L 298.281014 76.428467 
L 298.621009 72.866647 
L 298.961004 74.357642 
L 299.300999 72.618148 
L 299.640994 74.02631 
L 299.98099 76.345634 
L 300.320985 74.357642 
L 300.66098 73.363646 
L 301.000975 73.280812 
L 301.34097 75.103139 
L 301.680965 73.612145 
L 302.02096 73.115146 
L 302.360955 74.191976 
L 302.700951 73.197979 
L 303.040946 73.860644 
L 303.380941 74.02631 
L 303.720936 73.446479 
L 304.060931 73.115146 
L 304.400926 73.115146 
L 304.740921 74.771807 
L 305.080916 72.038317 
L 305.420912 73.943477 
L 305.760907 72.535315 
L 306.100902 75.68297 
L 306.440897 75.103139 
L 306.780892 71.541319 
L 307.120887 74.109143 
L 307.460882 73.860644 
L 307.800877 73.446479 
L 308.140873 74.937473 
L 308.820863 73.280812 
L 309.160858 73.446479 
L 309.500853 72.94948 
L 309.840848 74.191976 
L 310.180843 74.191976 
L 310.520838 72.369649 
L 310.860834 73.612145 
L 311.200829 73.777811 
L 311.540824 74.771807 
L 311.880819 73.115146 
L 312.220814 72.783814 
L 312.900804 74.191976 
L 313.240799 75.434471 
L 313.92079 71.872651 
L 314.260785 71.872651 
L 314.60078 71.624152 
L 314.940775 72.286816 
L 315.28077 71.789818 
L 315.620765 72.783814 
L 315.96076 73.197979 
L 316.300756 71.458486 
L 316.640751 74.357642 
L 316.980746 75.268805 
L 317.320741 74.02631 
L 317.660736 71.789818 
L 318.000731 72.452482 
L 318.340726 75.103139 
L 318.680721 72.866647 
L 319.020717 73.446479 
L 319.360712 73.197979 
L 319.700707 73.529312 
L 320.040702 72.369649 
L 320.380697 74.02631 
L 320.720692 71.872651 
L 321.060687 73.943477 
L 321.400682 72.038317 
L 321.740678 71.458486 
L 322.080673 72.866647 
L 322.420668 73.115146 
L 322.760663 72.783814 
L 323.440653 74.85464 
L 324.120643 71.375653 
L 324.460639 72.12115 
L 324.800634 71.541319 
L 325.140629 73.694978 
L 325.480624 72.700981 
L 325.820619 73.943477 
L 326.500609 71.044321 
L 326.840604 72.203983 
L 327.1806 73.860644 
L 327.520595 73.280812 
L 327.86059 73.777811 
L 328.200585 73.446479 
L 328.54058 72.286816 
L 328.880575 72.038317 
L 329.22057 74.191976 
L 329.560565 70.795822 
L 329.900561 73.529312 
L 330.240556 71.29282 
L 330.920546 72.369649 
L 331.260541 72.12115 
L 331.600536 72.038317 
L 331.940531 73.280812 
L 332.280526 71.044321 
L 332.620522 73.363646 
L 332.960517 72.866647 
L 333.300512 71.044321 
L 333.640507 71.872651 
L 333.980502 70.961488 
L 334.320497 71.872651 
L 334.660492 73.612145 
L 335.000487 71.955484 
L 335.340483 73.032313 
L 335.680478 71.624152 
L 336.360468 72.783814 
L 336.700463 72.369649 
L 337.040458 71.127154 
L 337.380453 72.700981 
L 337.720448 69.636159 
L 338.400439 73.943477 
L 338.740434 72.369649 
L 339.080429 71.706985 
L 339.420424 71.375653 
L 339.760419 70.215991 
L 340.100414 71.872651 
L 340.440409 71.209987 
L 341.1204 72.203983 
L 341.460395 71.458486 
L 342.140385 72.452482 
L 342.48038 71.29282 
L 342.820375 74.523308 
L 343.16037 71.789818 
L 343.500366 71.458486 
L 343.840361 72.12115 
L 344.180356 71.541319 
L 344.520351 71.29282 
L 344.860346 70.46449 
L 345.200341 70.712989 
L 345.540336 70.381657 
L 345.880331 72.038317 
L 346.220327 71.624152 
L 346.560322 71.955484 
L 346.900317 70.630156 
L 347.240312 70.547323 
L 347.580307 72.452482 
L 347.920302 70.547323 
L 348.260297 71.209987 
L 348.600292 72.369649 
L 348.940288 70.133158 
L 349.280283 71.789818 
L 349.620278 71.955484 
L 349.960273 68.973495 
L 350.640263 73.032313 
L 350.980258 73.115146 
L 351.320253 70.795822 
L 352.340239 71.127154 
L 352.680234 73.032313 
L 353.020229 72.286816 
L 353.700219 70.298824 
L 354.040214 71.541319 
L 354.38021 71.541319 
L 354.720205 69.718992 
L 355.0602 73.197979 
L 355.400195 70.712989 
L 355.74019 72.700981 
L 356.080185 71.541319 
L 356.42018 72.286816 
L 356.760175 72.286816 
L 357.100171 70.298824 
L 357.440166 71.541319 
L 357.780161 71.458486 
L 358.120156 71.789818 
L 358.460151 70.381657 
L 358.800146 69.967492 
L 359.140141 71.044321 
L 359.480136 69.636159 
L 359.820132 69.139161 
L 360.160127 70.878655 
L 360.500122 70.547323 
L 360.840117 70.630156 
L 361.180112 70.133158 
L 361.520107 71.458486 
L 361.860102 71.955484 
L 362.200097 69.967492 
L 362.540093 73.446479 
L 362.880088 70.46449 
L 363.220083 71.044321 
L 363.560078 70.961488 
L 363.900073 71.706985 
L 364.240068 70.795822 
L 364.580063 72.12115 
L 364.920058 72.783814 
L 365.260054 70.630156 
L 365.600049 70.46449 
L 365.940044 71.789818 
L 366.620034 68.642163 
L 366.960029 68.807829 
L 367.300024 71.375653 
L 367.640019 70.961488 
L 367.980015 71.955484 
L 368.32001 69.801825 
L 368.660005 71.29282 
L 369 70.133158 
L 369.339995 70.630156 
L 369.67999 72.369649 
L 370.019985 70.298824 
L 370.359981 71.872651 
L 370.699976 70.133158 
L 371.039971 69.056328 
L 371.379966 71.541319 
L 371.719961 70.215991 
L 372.059956 71.955484 
L 372.399951 70.630156 
L 372.739946 70.050325 
L 373.079942 70.381657 
L 373.419937 68.55933 
L 373.759932 71.29282 
L 374.099927 72.038317 
L 374.439922 70.133158 
L 374.779917 71.872651 
L 375.119912 71.706985 
L 375.459907 69.636159 
L 375.799903 69.553326 
L 376.139898 70.381657 
L 376.479893 70.381657 
L 376.819888 70.961488 
L 377.159883 70.630156 
L 377.499878 72.038317 
L 377.839873 70.381657 
L 378.179868 71.458486 
L 379.199854 70.133158 
L 379.539849 68.890662 
L 379.879844 70.630156 
L 380.219839 70.381657 
L 380.559834 69.221994 
L 380.899829 69.056328 
L 381.239825 69.139161 
L 381.57982 68.724996 
L 381.919815 71.375653 
L 382.25981 70.547323 
L 382.599805 71.29282 
L 382.9398 69.636159 
L 383.279795 72.12115 
L 383.61979 72.700981 
L 383.959786 69.221994 
L 384.299781 70.961488 
L 384.639776 68.145165 
L 384.979771 70.547323 
L 385.319766 70.630156 
L 385.659761 71.789818 
L 385.999756 68.642163 
L 386.339751 70.961488 
L 386.679747 70.878655 
L 387.019742 69.304827 
L 387.359737 70.215991 
L 387.699732 68.310831 
L 388.039727 69.718992 
L 388.379722 68.310831 
L 388.719717 69.884659 
L 389.059712 69.636159 
L 389.399708 70.050325 
L 389.739703 69.221994 
L 390.079698 69.718992 
L 390.419693 69.056328 
L 390.759688 70.961488 
L 391.099683 68.724996 
L 391.779673 71.127154 
L 392.119669 71.29282 
L 392.459664 71.127154 
L 393.139654 68.227998 
L 393.479649 70.712989 
L 393.819644 70.298824 
L 394.159639 70.133158 
L 394.499634 70.381657 
L 394.83963 68.062332 
L 395.179625 69.636159 
L 395.51962 69.056328 
L 395.859615 72.12115 
L 396.19961 69.304827 
L 396.539605 69.056328 
L 396.8796 69.967492 
L 397.219595 69.718992 
L 397.899586 70.133158 
L 398.239581 69.884659 
L 398.579576 69.470493 
L 398.919571 67.813833 
L 399.259566 68.476497 
L 399.599561 70.050325 
L 399.939556 68.890662 
L 400.279552 69.636159 
L 400.619547 71.872651 
L 400.959542 69.38766 
L 401.299537 69.38766 
L 401.639532 67.316835 
L 401.979527 70.298824 
L 402.659517 71.044321 
L 402.999513 68.973495 
L 403.339508 71.127154 
L 403.679503 70.630156 
L 404.019498 69.221994 
L 404.359493 71.127154 
L 404.699488 69.470493 
L 405.039483 68.393664 
L 405.379478 70.381657 
L 405.719474 68.062332 
L 406.059469 69.38766 
L 406.399464 71.624152 
L 406.739459 69.221994 
L 407.079454 68.807829 
L 407.419449 70.050325 
L 407.759444 69.801825 
L 408.099439 70.630156 
L 408.439435 70.298824 
L 408.77943 68.227998 
L 409.119425 69.056328 
L 409.45942 69.221994 
L 409.799415 71.29282 
L 410.13941 69.139161 
L 410.479405 68.724996 
L 410.8194 69.470493 
L 411.159396 69.470493 
L 411.499391 70.298824 
L 411.839386 69.304827 
L 412.179381 68.807829 
L 412.519376 69.801825 
L 412.859371 70.133158 
L 413.199366 68.393664 
L 414.559347 71.127154 
L 414.899342 69.884659 
L 415.239337 69.38766 
L 415.579332 70.547323 
L 415.919327 68.890662 
L 416.259322 69.139161 
L 416.599318 70.133158 
L 416.939313 69.884659 
L 417.279308 69.801825 
L 417.619303 68.062332 
L 417.959298 68.724996 
L 418.299293 68.227998 
L 418.639288 68.807829 
L 418.979283 69.967492 
L 419.319279 68.642163 
L 419.659274 70.215991 
L 419.999269 68.890662 
L 420.679259 69.221994 
L 421.019254 69.221994 
L 421.359249 68.476497 
L 421.699244 69.139161 
L 422.03924 67.482501 
L 422.379235 66.405672 
L 422.71923 69.470493 
L 423.059225 68.476497 
L 423.39922 70.46449 
L 423.739215 67.979499 
L 424.07921 69.718992 
L 424.419205 67.813833 
L 424.759201 69.139161 
L 425.099196 68.973495 
L 425.439191 68.973495 
L 425.779186 69.139161 
L 426.459176 69.884659 
L 426.799171 71.044321 
L 427.139166 67.648167 
L 427.479162 69.056328 
L 427.819157 68.890662 
L 428.159152 70.050325 
L 428.499147 68.476497 
L 428.839142 69.718992 
L 429.179137 68.393664 
L 429.859127 69.056328 
L 430.199123 68.642163 
L 430.539118 68.890662 
L 430.879113 69.884659 
L 431.219108 69.718992 
L 431.559103 66.240005 
L 431.899098 69.38766 
L 432.239093 68.062332 
L 432.579088 69.801825 
L 432.919084 68.145165 
L 433.259079 69.139161 
L 433.599074 68.476497 
L 433.939069 70.215991 
L 434.279064 68.062332 
L 434.959054 68.724996 
L 435.639045 69.470493 
L 435.97904 68.890662 
L 436.319035 69.139161 
L 436.65903 69.884659 
L 436.999025 68.393664 
L 437.33902 69.967492 
L 437.679015 68.062332 
L 438.01901 70.133158 
L 438.359006 67.731 
L 438.699001 69.139161 
L 439.038996 69.221994 
L 439.378991 67.565334 
L 439.718986 69.221994 
L 440.058981 68.973495 
L 440.398976 68.890662 
L 440.738971 68.973495 
L 441.078967 67.813833 
L 441.418962 68.393664 
L 441.758957 67.399668 
L 442.098952 67.979499 
L 442.438947 67.316835 
L 442.778942 67.731 
L 443.118937 68.973495 
L 443.458932 67.979499 
L 443.798928 69.304827 
L 444.138923 67.896666 
L 444.478918 67.399668 
L 444.818913 69.221994 
L 445.158908 69.304827 
L 445.498903 68.393664 
L 445.838898 68.393664 
L 446.178893 67.399668 
L 446.518889 69.139161 
L 446.858884 67.979499 
L 447.198879 68.393664 
L 447.538874 67.648167 
L 448.218864 70.878655 
L 448.558859 67.813833 
L 448.898854 67.979499 
L 449.23885 67.896666 
L 449.578845 66.654171 
L 449.91884 66.654171 
L 450.258835 68.393664 
L 450.59883 68.642163 
L 450.938825 67.565334 
L 451.27882 67.068336 
L 451.618816 67.151169 
L 452.298806 68.973495 
L 452.638801 67.482501 
L 452.978796 68.476497 
L 453.318791 67.648167 
L 453.658786 68.145165 
L 453.998781 69.884659 
L 454.338777 67.731 
L 454.678772 69.718992 
L 455.018767 67.813833 
L 455.358762 70.381657 
L 456.038752 66.737004 
L 456.378747 68.642163 
L 456.718742 68.807829 
L 457.058738 68.476497 
L 457.398733 66.985503 
L 457.738728 67.813833 
L 458.078723 68.973495 
L 458.758713 68.476497 
L 459.098708 67.731 
L 460.118694 68.724996 
L 460.458689 68.062332 
L 460.798684 68.227998 
L 461.478674 69.470493 
L 461.818669 67.316835 
L 462.158664 66.654171 
L 462.49866 68.062332 
L 462.838655 68.310831 
L 463.17865 69.056328 
L 463.518645 67.896666 
L 463.85864 69.718992 
L 464.198635 67.316835 
L 464.53863 66.571338 
L 464.878625 68.642163 
L 465.218621 67.151169 
L 465.558616 68.807829 
L 465.898611 67.399668 
L 466.238606 68.890662 
L 466.578601 67.151169 
L 466.918596 68.310831 
L 467.258591 67.399668 
L 467.598586 68.393664 
L 467.938582 67.813833 
L 468.278577 68.807829 
L 468.618572 68.642163 
L 468.958567 67.648167 
L 469.298562 67.399668 
L 469.638557 68.890662 
L 469.978552 68.807829 
L 470.318547 69.470493 
L 470.658543 68.807829 
L 470.998538 68.890662 
L 471.338533 68.807829 
L 471.678528 67.565334 
L 472.358518 67.813833 
L 472.698513 69.967492 
L 473.038508 67.151169 
L 473.378504 68.890662 
L 473.718499 67.896666 
L 474.398489 68.393664 
L 474.738484 69.139161 
L 475.418474 66.654171 
L 475.758469 68.642163 
L 476.098465 69.139161 
L 476.43846 66.90267 
L 476.778455 69.056328 
L 477.11845 69.139161 
L 477.458445 66.819837 
L 477.79844 67.648167 
L 478.138435 67.565334 
L 478.47843 68.642163 
L 478.818426 68.890662 
L 479.158421 68.310831 
L 479.498416 68.227998 
L 479.838411 68.476497 
L 480.178406 69.139161 
L 480.518401 67.896666 
L 480.858396 69.38766 
L 481.198391 67.896666 
L 481.878382 68.642163 
L 482.218377 68.55933 
L 482.558372 68.062332 
L 482.898367 68.55933 
L 483.238362 66.737004 
L 483.578357 66.654171 
L 483.918352 68.393664 
L 484.258348 67.896666 
L 484.598343 69.553326 
L 484.938338 68.476497 
L 485.278333 68.145165 
L 485.618328 67.068336 
L 485.958323 68.393664 
L 486.298318 68.476497 
L 486.638313 67.068336 
L 486.978309 66.90267 
L 487.318304 67.399668 
L 487.658299 69.38766 
L 487.998294 67.813833 
L 488.338289 67.813833 
L 488.678284 67.482501 
L 489.018279 66.654171 
L 489.358274 66.819837 
L 490.038265 69.884659 
L 490.37826 67.813833 
L 490.718255 67.896666 
L 491.05825 67.482501 
L 491.73824 69.056328 
L 492.418231 67.565334 
L 492.758226 67.399668 
L 493.098221 67.648167 
L 493.438216 67.648167 
L 493.778211 68.807829 
L 494.118206 67.399668 
L 494.458201 67.068336 
L 494.798196 67.068336 
L 495.138192 65.991506 
L 495.478187 67.648167 
L 495.818182 68.724996 
L 496.158177 69.38766 
L 496.838167 67.068336 
L 497.178162 67.731 
L 497.518157 68.724996 
L 498.198148 66.985503 
L 498.538143 66.654171 
L 498.878138 68.807829 
L 499.218133 67.482501 
L 499.558128 67.068336 
L 499.898123 68.062332 
L 500.238118 70.712989 
L 500.578114 69.056328 
L 500.918109 66.240005 
L 501.598099 69.304827 
L 501.938094 67.316835 
L 502.618084 68.724996 
L 502.958079 68.062332 
L 503.298075 66.654171 
L 503.63807 67.316835 
L 503.978065 68.227998 
L 504.31806 68.145165 
L 504.658055 66.90267 
L 504.99805 67.399668 
L 505.338045 67.482501 
L 505.67804 68.724996 
L 506.018036 68.890662 
L 506.358031 68.642163 
L 507.038021 66.985503 
L 507.378016 67.151169 
L 507.718011 67.565334 
L 508.058006 66.322839 
L 508.398001 68.310831 
L 508.737997 68.393664 
L 509.077992 67.482501 
L 509.417987 67.979499 
L 509.757982 67.813833 
L 510.097977 67.813833 
L 510.437972 66.737004 
L 510.777967 67.399668 
L 511.117962 67.731 
L 511.457958 67.234002 
L 511.797953 68.807829 
L 512.137948 68.476497 
L 512.477943 68.724996 
L 512.817938 67.482501 
L 513.157933 68.062332 
L 513.497928 67.565334 
L 513.837923 68.642163 
L 514.177919 68.642163 
L 514.517914 66.405672 
L 514.857909 65.991506 
L 515.537899 68.227998 
L 515.877894 68.476497 
L 516.217889 66.819837 
L 516.557884 68.227998 
L 516.89788 67.068336 
L 517.237875 67.565334 
L 517.57787 68.310831 
L 517.917865 66.571338 
L 518.25786 66.157172 
L 518.597855 66.985503 
L 518.93785 66.737004 
L 519.277845 68.062332 
L 519.617841 67.482501 
L 519.957836 66.157172 
L 520.297831 67.068336 
L 520.637826 69.470493 
L 521.317816 67.482501 
L 521.657811 67.316835 
L 521.997806 66.90267 
L 522.337802 69.139161 
L 522.677797 68.393664 
L 523.017792 65.163176 
L 523.357787 65.82584 
L 523.697782 67.482501 
L 524.037777 66.90267 
L 524.377772 67.979499 
L 524.717767 67.399668 
L 525.057763 68.55933 
L 525.397758 68.973495 
L 525.737753 67.648167 
L 526.077748 67.896666 
L 526.417743 65.82584 
L 526.757738 67.896666 
L 527.097733 66.157172 
L 527.437728 65.991506 
L 527.777724 67.068336 
L 528.117719 66.571338 
L 528.457714 67.482501 
L 528.797709 68.724996 
L 529.137704 67.648167 
L 529.477699 68.642163 
L 529.817694 65.908673 
L 530.157689 69.38766 
L 530.497685 67.399668 
L 530.83768 67.648167 
L 531.177675 66.90267 
L 531.51767 66.90267 
L 531.857665 66.074339 
L 532.19766 66.737004 
L 532.537655 66.571338 
L 532.87765 67.731 
L 533.217646 67.234002 
L 533.557641 67.399668 
L 533.897636 68.062332 
L 534.237631 64.914677 
L 534.577626 66.737004 
L 535.257616 66.654171 
L 535.597612 67.316835 
L 535.937607 66.737004 
L 536.617597 66.819837 
L 536.957592 68.310831 
L 537.297587 66.157172 
L 537.637582 64.99751 
L 537.977577 68.062332 
L 538.317573 67.731 
L 538.657568 67.234002 
L 538.997563 64.99751 
L 539.337558 66.737004 
L 539.677553 67.565334 
L 540.017548 66.074339 
L 540.357543 66.074339 
L 541.037534 67.731 
L 541.377529 66.488505 
L 541.717524 66.322839 
L 542.057519 68.062332 
L 542.397514 67.979499 
L 543.077504 67.151169 
L 543.757495 68.310831 
L 544.09749 66.654171 
L 544.437485 66.405672 
L 544.77748 67.234002 
L 545.117475 68.642163 
L 545.45747 66.157172 
L 545.797465 66.737004 
L 546.13746 67.731 
L 546.477456 66.488505 
L 546.817451 66.819837 
L 547.157446 67.316835 
L 547.497441 65.743007 
L 547.837436 68.393664 
L 548.517426 66.985503 
L 548.857421 67.813833 
L 549.197417 66.322839 
L 549.537412 68.476497 
L 549.877407 65.82584 
L 550.217402 66.405672 
L 550.557397 67.316835 
L 550.897392 67.068336 
L 551.237387 68.973495 
L 551.577382 66.737004 
L 551.917378 66.654171 
L 552.257373 65.991506 
L 552.597368 68.55933 
L 552.937363 66.985503 
L 553.277358 68.062332 
L 553.617353 67.813833 
L 553.957348 69.884659 
L 554.297343 66.074339 
L 554.637339 66.654171 
L 554.977334 67.979499 
L 555.317329 66.488505 
L 555.657324 65.743007 
L 555.997319 65.82584 
L 556.337314 68.476497 
L 556.677309 66.571338 
L 557.017304 67.896666 
L 557.3573 67.565334 
L 557.697295 66.90267 
L 558.03729 65.411675 
L 558.377285 66.240005 
L 558.71728 66.240005 
L 559.057275 67.648167 
L 559.39727 67.896666 
L 559.737265 68.310831 
L 560.077261 66.90267 
L 560.417256 67.731 
L 560.757251 65.660174 
L 561.097246 66.90267 
L 561.437241 65.494508 
L 561.777236 66.322839 
L 562.457226 66.737004 
L 562.797222 68.642163 
L 563.137217 66.074339 
L 563.477212 67.731 
L 564.157202 67.399668 
L 564.497197 65.411675 
L 564.837192 66.90267 
L 565.177187 65.411675 
L 565.517183 66.985503 
L 565.857178 66.405672 
L 566.197173 66.157172 
L 566.537168 67.482501 
L 566.877163 66.157172 
L 567.217158 66.405672 
L 567.557153 65.82584 
L 567.897148 67.151169 
L 568.237144 66.571338 
L 568.577139 66.90267 
L 568.917134 68.476497 
L 569.257129 65.82584 
L 569.597124 67.896666 
L 569.937119 67.316835 
L 570.277114 67.068336 
L 570.617109 67.565334 
L 570.957105 66.654171 
L 571.2971 66.90267 
L 571.637095 67.482501 
L 571.97709 66.571338 
L 572.317085 66.819837 
L 572.65708 67.648167 
L 572.997075 67.482501 
L 573.33707 66.074339 
L 573.677066 65.577341 
L 574.017061 67.399668 
L 574.357056 67.316835 
L 574.697051 66.985503 
L 575.037046 67.151169 
L 575.377041 66.819837 
L 575.717036 67.151169 
L 576.057031 68.393664 
L 576.737022 65.743007 
L 577.077017 66.240005 
L 577.417012 65.328842 
L 578.097002 66.90267 
L 578.436997 68.55933 
L 578.776992 65.743007 
L 579.116988 66.074339 
L 579.456983 66.074339 
L 579.796978 65.577341 
L 580.136973 67.896666 
L 580.816963 65.163176 
L 581.156958 66.571338 
L 581.496953 66.985503 
L 581.836949 67.648167 
L 582.176944 65.080343 
L 582.856934 67.979499 
L 583.196929 65.494508 
L 583.536924 67.399668 
L 583.876919 67.234002 
L 584.216914 65.743007 
L 584.55691 65.82584 
L 584.896905 67.234002 
L 585.2369 66.322839 
L 585.576895 66.90267 
L 585.91689 66.322839 
L 586.256885 66.737004 
L 586.59688 65.494508 
L 587.276871 67.482501 
L 587.616866 65.494508 
L 587.956861 67.482501 
L 588.296856 67.316835 
L 588.636851 66.985503 
L 588.976846 65.82584 
L 589.316841 66.654171 
L 589.996832 66.074339 
L 590.336827 66.240005 
L 590.676822 68.145165 
L 591.016817 66.405672 
L 591.356812 66.322839 
L 591.696807 67.234002 
L 592.036802 67.316835 
L 592.376797 69.139161 
L 592.716793 65.411675 
L 593.056788 65.82584 
L 593.396783 65.82584 
L 593.736778 65.328842 
L 594.076773 66.488505 
L 594.416768 66.737004 
L 594.756763 65.163176 
L 595.096758 65.163176 
L 595.436754 66.322839 
L 595.776749 68.807829 
L 596.116744 64.417679 
L 596.456739 66.819837 
L 596.796734 65.246009 
L 597.136729 64.500512 
L 597.476724 66.571338 
L 597.816719 66.90267 
L 598.156715 64.914677 
L 598.49671 65.82584 
L 598.836705 64.914677 
L 599.1767 67.565334 
L 599.516695 66.322839 
L 599.85669 67.151169 
L 600.53668 65.743007 
L 600.876676 66.322839 
L 601.216671 66.157172 
L 601.556666 67.731 
L 602.236656 65.908673 
L 602.576651 67.316835 
L 603.256641 65.246009 
L 603.596637 65.743007 
L 603.936632 66.737004 
L 604.276627 67.234002 
L 604.616622 66.90267 
L 604.956617 65.080343 
L 605.296612 67.648167 
L 605.976602 67.399668 
L 606.316598 66.488505 
L 606.656593 66.322839 
L 606.996588 66.571338 
L 607.336583 66.571338 
L 607.676578 67.151169 
L 608.016573 65.660174 
L 608.356568 66.819837 
L 608.696563 64.831844 
L 609.036559 68.310831 
L 609.376554 67.151169 
L 610.056544 65.494508 
L 610.396539 65.82584 
L 610.736534 67.234002 
L 611.416524 64.417679 
L 611.75652 66.654171 
L 612.096515 66.405672 
L 612.43651 66.654171 
L 612.776505 67.151169 
L 613.456495 66.571338 
L 613.79649 67.151169 
L 614.136485 66.157172 
L 614.476481 67.399668 
L 614.816476 66.322839 
L 615.156471 67.316835 
L 615.496466 64.831844 
L 615.836461 66.571338 
L 616.176456 67.234002 
L 616.516451 66.405672 
L 616.856447 66.488505 
L 617.196442 65.991506 
L 617.536437 67.316835 
L 617.876432 67.151169 
L 618.216427 66.405672 
L 618.556422 66.074339 
L 619.236412 66.488505 
L 619.576408 67.151169 
L 619.916403 66.488505 
L 620.256398 66.074339 
L 620.596393 65.908673 
L 620.936388 66.405672 
L 621.276383 67.316835 
L 621.616378 66.488505 
L 621.956373 66.654171 
L 622.296369 65.660174 
L 622.636364 66.157172 
L 622.636364 66.157172 
" style="fill:none;stroke:#ff7f0e;stroke-linecap:square;stroke-width:0.5;"/>
   </g>
   <g id="patch_3">
    <path d="M 90 315 
L 90 43.2 
" style="fill:none;stroke:#000000;stroke-linecap:square;stroke-linejoin:miter;stroke-width:0.8;"/>
   </g>
   <g id="patch_4">
    <path d="M 648 315 
L 648 43.2 
" style="fill:none;stroke:#000000;stroke-linecap:square;stroke-linejoin:miter;stroke-width:0.8;"/>
   </g>
   <g id="patch_5">
    <path d="M 90 315 
L 648 315 
" style="fill:none;stroke:#000000;stroke-linecap:square;stroke-linejoin:miter;stroke-width:0.8;"/>
   </g>
   <g id="patch_6">
    <path d="M 90 43.2 
L 648 43.2 
" style="fill:none;stroke:#000000;stroke-linecap:square;stroke-linejoin:miter;stroke-width:0.8;"/>
   </g>
   <g id="text_19">
    <!-- accuracy -->
    <g transform="translate(341.92875 37.2)scale(0.12 -0.12)">
     <use xlink:href="#DejaVuSans-97"/>
     <use x="61.279297" xlink:href="#DejaVuSans-99"/>
     <use x="116.259766" xlink:href="#DejaVuSans-99"/>
     <use x="171.240234" xlink:href="#DejaVuSans-117"/>
     <use x="234.619141" xlink:href="#DejaVuSans-114"/>
     <use x="275.732422" xlink:href="#DejaVuSans-97"/>
     <use x="337.011719" xlink:href="#DejaVuSans-99"/>
     <use x="391.992188" xlink:href="#DejaVuSans-121"/>
    </g>
   </g>
   <g id="legend_1">
    <g id="patch_7">
     <path d="M 97 80.55625 
L 169.153125 80.55625 
Q 171.153125 80.55625 171.153125 78.55625 
L 171.153125 50.2 
Q 171.153125 48.2 169.153125 48.2 
L 97 48.2 
Q 95 48.2 95 50.2 
L 95 78.55625 
Q 95 80.55625 97 80.55625 
z
" style="fill:#ffffff;opacity:0.8;stroke:#cccccc;stroke-linejoin:miter;"/>
    </g>
    <g id="line2d_35">
     <path d="M 99 56.298437 
L 119 56.298437 
" style="fill:none;stroke:#1f77b4;stroke-linecap:square;stroke-width:0.5;"/>
    </g>
    <g id="line2d_36"/>
    <g id="text_20">
     <!-- train -->
     <defs>
      <path d="M 18.3125 70.21875 
L 18.3125 54.6875 
L 36.8125 54.6875 
L 36.8125 47.703125 
L 18.3125 47.703125 
L 18.3125 18.015625 
Q 18.3125 11.328125 20.140625 9.421875 
Q 21.96875 7.515625 27.59375 7.515625 
L 36.8125 7.515625 
L 36.8125 0 
L 27.59375 0 
Q 17.1875 0 13.234375 3.875 
Q 9.28125 7.765625 9.28125 18.015625 
L 9.28125 47.703125 
L 2.6875 47.703125 
L 2.6875 54.6875 
L 9.28125 54.6875 
L 9.28125 70.21875 
z
" id="DejaVuSans-116"/>
      <path d="M 9.421875 54.6875 
L 18.40625 54.6875 
L 18.40625 0 
L 9.421875 0 
z
M 9.421875 75.984375 
L 18.40625 75.984375 
L 18.40625 64.59375 
L 9.421875 64.59375 
z
" id="DejaVuSans-105"/>
      <path d="M 54.890625 33.015625 
L 54.890625 0 
L 45.90625 0 
L 45.90625 32.71875 
Q 45.90625 40.484375 42.875 44.328125 
Q 39.84375 48.1875 33.796875 48.1875 
Q 26.515625 48.1875 22.3125 43.546875 
Q 18.109375 38.921875 18.109375 30.90625 
L 18.109375 0 
L 9.078125 0 
L 9.078125 54.6875 
L 18.109375 54.6875 
L 18.109375 46.1875 
Q 21.34375 51.125 25.703125 53.5625 
Q 30.078125 56 35.796875 56 
Q 45.21875 56 50.046875 50.171875 
Q 54.890625 44.34375 54.890625 33.015625 
z
" id="DejaVuSans-110"/>
     </defs>
     <g transform="translate(127 59.798437)scale(0.1 -0.1)">
      <use xlink:href="#DejaVuSans-116"/>
      <use x="39.208984" xlink:href="#DejaVuSans-114"/>
      <use x="80.322266" xlink:href="#DejaVuSans-97"/>
      <use x="141.601562" xlink:href="#DejaVuSans-105"/>
      <use x="169.384766" xlink:href="#DejaVuSans-110"/>
     </g>
    </g>
    <g id="line2d_37">
     <path d="M 99 70.976562 
L 119 70.976562 
" style="fill:none;stroke:#ff7f0e;stroke-linecap:square;stroke-width:0.5;"/>
    </g>
    <g id="line2d_38"/>
    <g id="text_21">
     <!-- validate -->
     <defs>
      <path d="M 2.984375 54.6875 
L 12.5 54.6875 
L 29.59375 8.796875 
L 46.6875 54.6875 
L 56.203125 54.6875 
L 35.6875 0 
L 23.484375 0 
z
" id="DejaVuSans-118"/>
      <path d="M 9.421875 75.984375 
L 18.40625 75.984375 
L 18.40625 0 
L 9.421875 0 
z
" id="DejaVuSans-108"/>
      <path d="M 45.40625 46.390625 
L 45.40625 75.984375 
L 54.390625 75.984375 
L 54.390625 0 
L 45.40625 0 
L 45.40625 8.203125 
Q 42.578125 3.328125 38.25 0.953125 
Q 33.9375 -1.421875 27.875 -1.421875 
Q 17.96875 -1.421875 11.734375 6.484375 
Q 5.515625 14.40625 5.515625 27.296875 
Q 5.515625 40.1875 11.734375 48.09375 
Q 17.96875 56 27.875 56 
Q 33.9375 56 38.25 53.625 
Q 42.578125 51.265625 45.40625 46.390625 
z
M 14.796875 27.296875 
Q 14.796875 17.390625 18.875 11.75 
Q 22.953125 6.109375 30.078125 6.109375 
Q 37.203125 6.109375 41.296875 11.75 
Q 45.40625 17.390625 45.40625 27.296875 
Q 45.40625 37.203125 41.296875 42.84375 
Q 37.203125 48.484375 30.078125 48.484375 
Q 22.953125 48.484375 18.875 42.84375 
Q 14.796875 37.203125 14.796875 27.296875 
z
" id="DejaVuSans-100"/>
     </defs>
     <g transform="translate(127 74.476562)scale(0.1 -0.1)">
      <use xlink:href="#DejaVuSans-118"/>
      <use x="59.179688" xlink:href="#DejaVuSans-97"/>
      <use x="120.458984" xlink:href="#DejaVuSans-108"/>
      <use x="148.242188" xlink:href="#DejaVuSans-105"/>
      <use x="176.025391" xlink:href="#DejaVuSans-100"/>
      <use x="239.501953" xlink:href="#DejaVuSans-97"/>
      <use x="300.78125" xlink:href="#DejaVuSans-116"/>
      <use x="339.990234" xlink:href="#DejaVuSans-101"/>
     </g>
    </g>
   </g>
  </g>
 </g>
 <defs>
  <clipPath id="p176af76d0a">
   <rect height="271.8" width="558" x="90" y="43.2"/>
  </clipPath>
 </defs>
</svg>
