<?xml version="1.0" encoding="utf-8" standalone="no"?>
<!DOCTYPE svg PUBLIC "-//W3C//DTD SVG 1.1//EN"
  "http://www.w3.org/Graphics/SVG/1.1/DTD/svg11.dtd">
<!-- Created with matplotlib (https://matplotlib.org/) -->
<svg height="360pt" version="1.1" viewBox="0 0 720 360" width="720pt" xmlns="http://www.w3.org/2000/svg" xmlns:xlink="http://www.w3.org/1999/xlink">
 <defs>
  <style type="text/css">
*{stroke-linecap:butt;stroke-linejoin:round;}
  </style>
 </defs>
 <g id="figure_1">
  <g id="patch_1">
   <path d="M 0 360 
L 720 360 
L 720 0 
L 0 0 
z
" style="fill:#ffffff;"/>
  </g>
  <g id="axes_1">
   <g id="patch_2">
    <path d="M 90 315 
L 648 315 
L 648 43.2 
L 90 43.2 
z
" style="fill:#ffffff;"/>
   </g>
   <g id="matplotlib.axis_1">
    <g id="xtick_1">
     <g id="line2d_1">
      <path clip-path="url(#p00fe1c894a)" d="M 115.363636 315 
L 115.363636 43.2 
" style="fill:none;stroke:#b0b0b0;stroke-linecap:square;stroke-width:0.8;"/>
     </g>
     <g id="line2d_2">
      <defs>
       <path d="M 0 0 
L 0 3.5 
" id="m8c44603daf" style="stroke:#000000;stroke-width:0.8;"/>
      </defs>
      <g>
       <use style="stroke:#000000;stroke-width:0.8;" x="115.363636" xlink:href="#m8c44603daf" y="315"/>
      </g>
     </g>
     <g id="text_1">
      <!-- 0 -->
      <defs>
       <path d="M 31.78125 66.40625 
Q 24.171875 66.40625 20.328125 58.90625 
Q 16.5 51.421875 16.5 36.375 
Q 16.5 21.390625 20.328125 13.890625 
Q 24.171875 6.390625 31.78125 6.390625 
Q 39.453125 6.390625 43.28125 13.890625 
Q 47.125 21.390625 47.125 36.375 
Q 47.125 51.421875 43.28125 58.90625 
Q 39.453125 66.40625 31.78125 66.40625 
z
M 31.78125 74.21875 
Q 44.046875 74.21875 50.515625 64.515625 
Q 56.984375 54.828125 56.984375 36.375 
Q 56.984375 17.96875 50.515625 8.265625 
Q 44.046875 -1.421875 31.78125 -1.421875 
Q 19.53125 -1.421875 13.0625 8.265625 
Q 6.59375 17.96875 6.59375 36.375 
Q 6.59375 54.828125 13.0625 64.515625 
Q 19.53125 74.21875 31.78125 74.21875 
z
" id="DejaVuSans-48"/>
      </defs>
      <g transform="translate(112.182386 329.598437)scale(0.1 -0.1)">
       <use xlink:href="#DejaVuSans-48"/>
      </g>
     </g>
    </g>
    <g id="xtick_2">
     <g id="line2d_3">
      <path clip-path="url(#p00fe1c894a)" d="M 188.457689 315 
L 188.457689 43.2 
" style="fill:none;stroke:#b0b0b0;stroke-linecap:square;stroke-width:0.8;"/>
     </g>
     <g id="line2d_4">
      <g>
       <use style="stroke:#000000;stroke-width:0.8;" x="188.457689" xlink:href="#m8c44603daf" y="315"/>
      </g>
     </g>
     <g id="text_2">
      <!-- 200 -->
      <defs>
       <path d="M 19.1875 8.296875 
L 53.609375 8.296875 
L 53.609375 0 
L 7.328125 0 
L 7.328125 8.296875 
Q 12.9375 14.109375 22.625 23.890625 
Q 32.328125 33.6875 34.8125 36.53125 
Q 39.546875 41.84375 41.421875 45.53125 
Q 43.3125 49.21875 43.3125 52.78125 
Q 43.3125 58.59375 39.234375 62.25 
Q 35.15625 65.921875 28.609375 65.921875 
Q 23.96875 65.921875 18.8125 64.3125 
Q 13.671875 62.703125 7.8125 59.421875 
L 7.8125 69.390625 
Q 13.765625 71.78125 18.9375 73 
Q 24.125 74.21875 28.421875 74.21875 
Q 39.75 74.21875 46.484375 68.546875 
Q 53.21875 62.890625 53.21875 53.421875 
Q 53.21875 48.921875 51.53125 44.890625 
Q 49.859375 40.875 45.40625 35.40625 
Q 44.1875 33.984375 37.640625 27.21875 
Q 31.109375 20.453125 19.1875 8.296875 
z
" id="DejaVuSans-50"/>
      </defs>
      <g transform="translate(178.913939 329.598437)scale(0.1 -0.1)">
       <use xlink:href="#DejaVuSans-50"/>
       <use x="63.623047" xlink:href="#DejaVuSans-48"/>
       <use x="127.246094" xlink:href="#DejaVuSans-48"/>
      </g>
     </g>
    </g>
    <g id="xtick_3">
     <g id="line2d_5">
      <path clip-path="url(#p00fe1c894a)" d="M 261.551742 315 
L 261.551742 43.2 
" style="fill:none;stroke:#b0b0b0;stroke-linecap:square;stroke-width:0.8;"/>
     </g>
     <g id="line2d_6">
      <g>
       <use style="stroke:#000000;stroke-width:0.8;" x="261.551742" xlink:href="#m8c44603daf" y="315"/>
      </g>
     </g>
     <g id="text_3">
      <!-- 400 -->
      <defs>
       <path d="M 37.796875 64.3125 
L 12.890625 25.390625 
L 37.796875 25.390625 
z
M 35.203125 72.90625 
L 47.609375 72.90625 
L 47.609375 25.390625 
L 58.015625 25.390625 
L 58.015625 17.1875 
L 47.609375 17.1875 
L 47.609375 0 
L 37.796875 0 
L 37.796875 17.1875 
L 4.890625 17.1875 
L 4.890625 26.703125 
z
" id="DejaVuSans-52"/>
      </defs>
      <g transform="translate(252.007992 329.598437)scale(0.1 -0.1)">
       <use xlink:href="#DejaVuSans-52"/>
       <use x="63.623047" xlink:href="#DejaVuSans-48"/>
       <use x="127.246094" xlink:href="#DejaVuSans-48"/>
      </g>
     </g>
    </g>
    <g id="xtick_4">
     <g id="line2d_7">
      <path clip-path="url(#p00fe1c894a)" d="M 334.645795 315 
L 334.645795 43.2 
" style="fill:none;stroke:#b0b0b0;stroke-linecap:square;stroke-width:0.8;"/>
     </g>
     <g id="line2d_8">
      <g>
       <use style="stroke:#000000;stroke-width:0.8;" x="334.645795" xlink:href="#m8c44603daf" y="315"/>
      </g>
     </g>
     <g id="text_4">
      <!-- 600 -->
      <defs>
       <path d="M 33.015625 40.375 
Q 26.375 40.375 22.484375 35.828125 
Q 18.609375 31.296875 18.609375 23.390625 
Q 18.609375 15.53125 22.484375 10.953125 
Q 26.375 6.390625 33.015625 6.390625 
Q 39.65625 6.390625 43.53125 10.953125 
Q 47.40625 15.53125 47.40625 23.390625 
Q 47.40625 31.296875 43.53125 35.828125 
Q 39.65625 40.375 33.015625 40.375 
z
M 52.59375 71.296875 
L 52.59375 62.3125 
Q 48.875 64.0625 45.09375 64.984375 
Q 41.3125 65.921875 37.59375 65.921875 
Q 27.828125 65.921875 22.671875 59.328125 
Q 17.53125 52.734375 16.796875 39.40625 
Q 19.671875 43.65625 24.015625 45.921875 
Q 28.375 48.1875 33.59375 48.1875 
Q 44.578125 48.1875 50.953125 41.515625 
Q 57.328125 34.859375 57.328125 23.390625 
Q 57.328125 12.15625 50.6875 5.359375 
Q 44.046875 -1.421875 33.015625 -1.421875 
Q 20.359375 -1.421875 13.671875 8.265625 
Q 6.984375 17.96875 6.984375 36.375 
Q 6.984375 53.65625 15.1875 63.9375 
Q 23.390625 74.21875 37.203125 74.21875 
Q 40.921875 74.21875 44.703125 73.484375 
Q 48.484375 72.75 52.59375 71.296875 
z
" id="DejaVuSans-54"/>
      </defs>
      <g transform="translate(325.102045 329.598437)scale(0.1 -0.1)">
       <use xlink:href="#DejaVuSans-54"/>
       <use x="63.623047" xlink:href="#DejaVuSans-48"/>
       <use x="127.246094" xlink:href="#DejaVuSans-48"/>
      </g>
     </g>
    </g>
    <g id="xtick_5">
     <g id="line2d_9">
      <path clip-path="url(#p00fe1c894a)" d="M 407.739848 315 
L 407.739848 43.2 
" style="fill:none;stroke:#b0b0b0;stroke-linecap:square;stroke-width:0.8;"/>
     </g>
     <g id="line2d_10">
      <g>
       <use style="stroke:#000000;stroke-width:0.8;" x="407.739848" xlink:href="#m8c44603daf" y="315"/>
      </g>
     </g>
     <g id="text_5">
      <!-- 800 -->
      <defs>
       <path d="M 31.78125 34.625 
Q 24.75 34.625 20.71875 30.859375 
Q 16.703125 27.09375 16.703125 20.515625 
Q 16.703125 13.921875 20.71875 10.15625 
Q 24.75 6.390625 31.78125 6.390625 
Q 38.8125 6.390625 42.859375 10.171875 
Q 46.921875 13.96875 46.921875 20.515625 
Q 46.921875 27.09375 42.890625 30.859375 
Q 38.875 34.625 31.78125 34.625 
z
M 21.921875 38.8125 
Q 15.578125 40.375 12.03125 44.71875 
Q 8.5 49.078125 8.5 55.328125 
Q 8.5 64.0625 14.71875 69.140625 
Q 20.953125 74.21875 31.78125 74.21875 
Q 42.671875 74.21875 48.875 69.140625 
Q 55.078125 64.0625 55.078125 55.328125 
Q 55.078125 49.078125 51.53125 44.71875 
Q 48 40.375 41.703125 38.8125 
Q 48.828125 37.15625 52.796875 32.3125 
Q 56.78125 27.484375 56.78125 20.515625 
Q 56.78125 9.90625 50.3125 4.234375 
Q 43.84375 -1.421875 31.78125 -1.421875 
Q 19.734375 -1.421875 13.25 4.234375 
Q 6.78125 9.90625 6.78125 20.515625 
Q 6.78125 27.484375 10.78125 32.3125 
Q 14.796875 37.15625 21.921875 38.8125 
z
M 18.3125 54.390625 
Q 18.3125 48.734375 21.84375 45.5625 
Q 25.390625 42.390625 31.78125 42.390625 
Q 38.140625 42.390625 41.71875 45.5625 
Q 45.3125 48.734375 45.3125 54.390625 
Q 45.3125 60.0625 41.71875 63.234375 
Q 38.140625 66.40625 31.78125 66.40625 
Q 25.390625 66.40625 21.84375 63.234375 
Q 18.3125 60.0625 18.3125 54.390625 
z
" id="DejaVuSans-56"/>
      </defs>
      <g transform="translate(398.196098 329.598437)scale(0.1 -0.1)">
       <use xlink:href="#DejaVuSans-56"/>
       <use x="63.623047" xlink:href="#DejaVuSans-48"/>
       <use x="127.246094" xlink:href="#DejaVuSans-48"/>
      </g>
     </g>
    </g>
    <g id="xtick_6">
     <g id="line2d_11">
      <path clip-path="url(#p00fe1c894a)" d="M 480.833901 315 
L 480.833901 43.2 
" style="fill:none;stroke:#b0b0b0;stroke-linecap:square;stroke-width:0.8;"/>
     </g>
     <g id="line2d_12">
      <g>
       <use style="stroke:#000000;stroke-width:0.8;" x="480.833901" xlink:href="#m8c44603daf" y="315"/>
      </g>
     </g>
     <g id="text_6">
      <!-- 1000 -->
      <defs>
       <path d="M 12.40625 8.296875 
L 28.515625 8.296875 
L 28.515625 63.921875 
L 10.984375 60.40625 
L 10.984375 69.390625 
L 28.421875 72.90625 
L 38.28125 72.90625 
L 38.28125 8.296875 
L 54.390625 8.296875 
L 54.390625 0 
L 12.40625 0 
z
" id="DejaVuSans-49"/>
      </defs>
      <g transform="translate(468.108901 329.598437)scale(0.1 -0.1)">
       <use xlink:href="#DejaVuSans-49"/>
       <use x="63.623047" xlink:href="#DejaVuSans-48"/>
       <use x="127.246094" xlink:href="#DejaVuSans-48"/>
       <use x="190.869141" xlink:href="#DejaVuSans-48"/>
      </g>
     </g>
    </g>
    <g id="xtick_7">
     <g id="line2d_13">
      <path clip-path="url(#p00fe1c894a)" d="M 553.927954 315 
L 553.927954 43.2 
" style="fill:none;stroke:#b0b0b0;stroke-linecap:square;stroke-width:0.8;"/>
     </g>
     <g id="line2d_14">
      <g>
       <use style="stroke:#000000;stroke-width:0.8;" x="553.927954" xlink:href="#m8c44603daf" y="315"/>
      </g>
     </g>
     <g id="text_7">
      <!-- 1200 -->
      <g transform="translate(541.202954 329.598437)scale(0.1 -0.1)">
       <use xlink:href="#DejaVuSans-49"/>
       <use x="63.623047" xlink:href="#DejaVuSans-50"/>
       <use x="127.246094" xlink:href="#DejaVuSans-48"/>
       <use x="190.869141" xlink:href="#DejaVuSans-48"/>
      </g>
     </g>
    </g>
    <g id="xtick_8">
     <g id="line2d_15">
      <path clip-path="url(#p00fe1c894a)" d="M 627.022007 315 
L 627.022007 43.2 
" style="fill:none;stroke:#b0b0b0;stroke-linecap:square;stroke-width:0.8;"/>
     </g>
     <g id="line2d_16">
      <g>
       <use style="stroke:#000000;stroke-width:0.8;" x="627.022007" xlink:href="#m8c44603daf" y="315"/>
      </g>
     </g>
     <g id="text_8">
      <!-- 1400 -->
      <g transform="translate(614.297007 329.598437)scale(0.1 -0.1)">
       <use xlink:href="#DejaVuSans-49"/>
       <use x="63.623047" xlink:href="#DejaVuSans-52"/>
       <use x="127.246094" xlink:href="#DejaVuSans-48"/>
       <use x="190.869141" xlink:href="#DejaVuSans-48"/>
      </g>
     </g>
    </g>
    <g id="text_9">
     <!-- epoch -->
     <defs>
      <path d="M 56.203125 29.59375 
L 56.203125 25.203125 
L 14.890625 25.203125 
Q 15.484375 15.921875 20.484375 11.0625 
Q 25.484375 6.203125 34.421875 6.203125 
Q 39.59375 6.203125 44.453125 7.46875 
Q 49.3125 8.734375 54.109375 11.28125 
L 54.109375 2.78125 
Q 49.265625 0.734375 44.1875 -0.34375 
Q 39.109375 -1.421875 33.890625 -1.421875 
Q 20.796875 -1.421875 13.15625 6.1875 
Q 5.515625 13.8125 5.515625 26.8125 
Q 5.515625 40.234375 12.765625 48.109375 
Q 20.015625 56 32.328125 56 
Q 43.359375 56 49.78125 48.890625 
Q 56.203125 41.796875 56.203125 29.59375 
z
M 47.21875 32.234375 
Q 47.125 39.59375 43.09375 43.984375 
Q 39.0625 48.390625 32.421875 48.390625 
Q 24.90625 48.390625 20.390625 44.140625 
Q 15.875 39.890625 15.1875 32.171875 
z
" id="DejaVuSans-101"/>
      <path d="M 18.109375 8.203125 
L 18.109375 -20.796875 
L 9.078125 -20.796875 
L 9.078125 54.6875 
L 18.109375 54.6875 
L 18.109375 46.390625 
Q 20.953125 51.265625 25.265625 53.625 
Q 29.59375 56 35.59375 56 
Q 45.5625 56 51.78125 48.09375 
Q 58.015625 40.1875 58.015625 27.296875 
Q 58.015625 14.40625 51.78125 6.484375 
Q 45.5625 -1.421875 35.59375 -1.421875 
Q 29.59375 -1.421875 25.265625 0.953125 
Q 20.953125 3.328125 18.109375 8.203125 
z
M 48.6875 27.296875 
Q 48.6875 37.203125 44.609375 42.84375 
Q 40.53125 48.484375 33.40625 48.484375 
Q 26.265625 48.484375 22.1875 42.84375 
Q 18.109375 37.203125 18.109375 27.296875 
Q 18.109375 17.390625 22.1875 11.75 
Q 26.265625 6.109375 33.40625 6.109375 
Q 40.53125 6.109375 44.609375 11.75 
Q 48.6875 17.390625 48.6875 27.296875 
z
" id="DejaVuSans-112"/>
      <path d="M 30.609375 48.390625 
Q 23.390625 48.390625 19.1875 42.75 
Q 14.984375 37.109375 14.984375 27.296875 
Q 14.984375 17.484375 19.15625 11.84375 
Q 23.34375 6.203125 30.609375 6.203125 
Q 37.796875 6.203125 41.984375 11.859375 
Q 46.1875 17.53125 46.1875 27.296875 
Q 46.1875 37.015625 41.984375 42.703125 
Q 37.796875 48.390625 30.609375 48.390625 
z
M 30.609375 56 
Q 42.328125 56 49.015625 48.375 
Q 55.71875 40.765625 55.71875 27.296875 
Q 55.71875 13.875 49.015625 6.21875 
Q 42.328125 -1.421875 30.609375 -1.421875 
Q 18.84375 -1.421875 12.171875 6.21875 
Q 5.515625 13.875 5.515625 27.296875 
Q 5.515625 40.765625 12.171875 48.375 
Q 18.84375 56 30.609375 56 
z
" id="DejaVuSans-111"/>
      <path d="M 48.78125 52.59375 
L 48.78125 44.1875 
Q 44.96875 46.296875 41.140625 47.34375 
Q 37.3125 48.390625 33.40625 48.390625 
Q 24.65625 48.390625 19.8125 42.84375 
Q 14.984375 37.3125 14.984375 27.296875 
Q 14.984375 17.28125 19.8125 11.734375 
Q 24.65625 6.203125 33.40625 6.203125 
Q 37.3125 6.203125 41.140625 7.25 
Q 44.96875 8.296875 48.78125 10.40625 
L 48.78125 2.09375 
Q 45.015625 0.34375 40.984375 -0.53125 
Q 36.96875 -1.421875 32.421875 -1.421875 
Q 20.0625 -1.421875 12.78125 6.34375 
Q 5.515625 14.109375 5.515625 27.296875 
Q 5.515625 40.671875 12.859375 48.328125 
Q 20.21875 56 33.015625 56 
Q 37.15625 56 41.109375 55.140625 
Q 45.0625 54.296875 48.78125 52.59375 
z
" id="DejaVuSans-99"/>
      <path d="M 54.890625 33.015625 
L 54.890625 0 
L 45.90625 0 
L 45.90625 32.71875 
Q 45.90625 40.484375 42.875 44.328125 
Q 39.84375 48.1875 33.796875 48.1875 
Q 26.515625 48.1875 22.3125 43.546875 
Q 18.109375 38.921875 18.109375 30.90625 
L 18.109375 0 
L 9.078125 0 
L 9.078125 75.984375 
L 18.109375 75.984375 
L 18.109375 46.1875 
Q 21.34375 51.125 25.703125 53.5625 
Q 30.078125 56 35.796875 56 
Q 45.21875 56 50.046875 50.171875 
Q 54.890625 44.34375 54.890625 33.015625 
z
" id="DejaVuSans-104"/>
     </defs>
     <g transform="translate(353.771875 343.276563)scale(0.1 -0.1)">
      <use xlink:href="#DejaVuSans-101"/>
      <use x="61.523438" xlink:href="#DejaVuSans-112"/>
      <use x="125" xlink:href="#DejaVuSans-111"/>
      <use x="186.181641" xlink:href="#DejaVuSans-99"/>
      <use x="241.162109" xlink:href="#DejaVuSans-104"/>
     </g>
    </g>
   </g>
   <g id="matplotlib.axis_2">
    <g id="ytick_1">
     <g id="line2d_17">
      <path clip-path="url(#p00fe1c894a)" d="M 90 280.635834 
L 648 280.635834 
" style="fill:none;stroke:#b0b0b0;stroke-linecap:square;stroke-width:0.8;"/>
     </g>
     <g id="line2d_18">
      <defs>
       <path d="M 0 0 
L -3.5 0 
" id="m61fc4c3d21" style="stroke:#000000;stroke-width:0.8;"/>
      </defs>
      <g>
       <use style="stroke:#000000;stroke-width:0.8;" x="90" xlink:href="#m61fc4c3d21" y="280.635834"/>
      </g>
     </g>
     <g id="text_10">
      <!-- 0.3 -->
      <defs>
       <path d="M 10.6875 12.40625 
L 21 12.40625 
L 21 0 
L 10.6875 0 
z
" id="DejaVuSans-46"/>
       <path d="M 40.578125 39.3125 
Q 47.65625 37.796875 51.625 33 
Q 55.609375 28.21875 55.609375 21.1875 
Q 55.609375 10.40625 48.1875 4.484375 
Q 40.765625 -1.421875 27.09375 -1.421875 
Q 22.515625 -1.421875 17.65625 -0.515625 
Q 12.796875 0.390625 7.625 2.203125 
L 7.625 11.71875 
Q 11.71875 9.328125 16.59375 8.109375 
Q 21.484375 6.890625 26.8125 6.890625 
Q 36.078125 6.890625 40.9375 10.546875 
Q 45.796875 14.203125 45.796875 21.1875 
Q 45.796875 27.640625 41.28125 31.265625 
Q 36.765625 34.90625 28.71875 34.90625 
L 20.21875 34.90625 
L 20.21875 43.015625 
L 29.109375 43.015625 
Q 36.375 43.015625 40.234375 45.921875 
Q 44.09375 48.828125 44.09375 54.296875 
Q 44.09375 59.90625 40.109375 62.90625 
Q 36.140625 65.921875 28.71875 65.921875 
Q 24.65625 65.921875 20.015625 65.03125 
Q 15.375 64.15625 9.8125 62.3125 
L 9.8125 71.09375 
Q 15.4375 72.65625 20.34375 73.4375 
Q 25.25 74.21875 29.59375 74.21875 
Q 40.828125 74.21875 47.359375 69.109375 
Q 53.90625 64.015625 53.90625 55.328125 
Q 53.90625 49.265625 50.4375 45.09375 
Q 46.96875 40.921875 40.578125 39.3125 
z
" id="DejaVuSans-51"/>
      </defs>
      <g transform="translate(67.096875 284.435053)scale(0.1 -0.1)">
       <use xlink:href="#DejaVuSans-48"/>
       <use x="63.623047" xlink:href="#DejaVuSans-46"/>
       <use x="95.410156" xlink:href="#DejaVuSans-51"/>
      </g>
     </g>
    </g>
    <g id="ytick_2">
     <g id="line2d_19">
      <path clip-path="url(#p00fe1c894a)" d="M 90 243.012551 
L 648 243.012551 
" style="fill:none;stroke:#b0b0b0;stroke-linecap:square;stroke-width:0.8;"/>
     </g>
     <g id="line2d_20">
      <g>
       <use style="stroke:#000000;stroke-width:0.8;" x="90" xlink:href="#m61fc4c3d21" y="243.012551"/>
      </g>
     </g>
     <g id="text_11">
      <!-- 0.4 -->
      <g transform="translate(67.096875 246.81177)scale(0.1 -0.1)">
       <use xlink:href="#DejaVuSans-48"/>
       <use x="63.623047" xlink:href="#DejaVuSans-46"/>
       <use x="95.410156" xlink:href="#DejaVuSans-52"/>
      </g>
     </g>
    </g>
    <g id="ytick_3">
     <g id="line2d_21">
      <path clip-path="url(#p00fe1c894a)" d="M 90 205.389269 
L 648 205.389269 
" style="fill:none;stroke:#b0b0b0;stroke-linecap:square;stroke-width:0.8;"/>
     </g>
     <g id="line2d_22">
      <g>
       <use style="stroke:#000000;stroke-width:0.8;" x="90" xlink:href="#m61fc4c3d21" y="205.389269"/>
      </g>
     </g>
     <g id="text_12">
      <!-- 0.5 -->
      <defs>
       <path d="M 10.796875 72.90625 
L 49.515625 72.90625 
L 49.515625 64.59375 
L 19.828125 64.59375 
L 19.828125 46.734375 
Q 21.96875 47.46875 24.109375 47.828125 
Q 26.265625 48.1875 28.421875 48.1875 
Q 40.625 48.1875 47.75 41.5 
Q 54.890625 34.8125 54.890625 23.390625 
Q 54.890625 11.625 47.5625 5.09375 
Q 40.234375 -1.421875 26.90625 -1.421875 
Q 22.3125 -1.421875 17.546875 -0.640625 
Q 12.796875 0.140625 7.71875 1.703125 
L 7.71875 11.625 
Q 12.109375 9.234375 16.796875 8.0625 
Q 21.484375 6.890625 26.703125 6.890625 
Q 35.15625 6.890625 40.078125 11.328125 
Q 45.015625 15.765625 45.015625 23.390625 
Q 45.015625 31 40.078125 35.4375 
Q 35.15625 39.890625 26.703125 39.890625 
Q 22.75 39.890625 18.8125 39.015625 
Q 14.890625 38.140625 10.796875 36.28125 
z
" id="DejaVuSans-53"/>
      </defs>
      <g transform="translate(67.096875 209.188488)scale(0.1 -0.1)">
       <use xlink:href="#DejaVuSans-48"/>
       <use x="63.623047" xlink:href="#DejaVuSans-46"/>
       <use x="95.410156" xlink:href="#DejaVuSans-53"/>
      </g>
     </g>
    </g>
    <g id="ytick_4">
     <g id="line2d_23">
      <path clip-path="url(#p00fe1c894a)" d="M 90 167.765986 
L 648 167.765986 
" style="fill:none;stroke:#b0b0b0;stroke-linecap:square;stroke-width:0.8;"/>
     </g>
     <g id="line2d_24">
      <g>
       <use style="stroke:#000000;stroke-width:0.8;" x="90" xlink:href="#m61fc4c3d21" y="167.765986"/>
      </g>
     </g>
     <g id="text_13">
      <!-- 0.6 -->
      <g transform="translate(67.096875 171.565205)scale(0.1 -0.1)">
       <use xlink:href="#DejaVuSans-48"/>
       <use x="63.623047" xlink:href="#DejaVuSans-46"/>
       <use x="95.410156" xlink:href="#DejaVuSans-54"/>
      </g>
     </g>
    </g>
    <g id="ytick_5">
     <g id="line2d_25">
      <path clip-path="url(#p00fe1c894a)" d="M 90 130.142703 
L 648 130.142703 
" style="fill:none;stroke:#b0b0b0;stroke-linecap:square;stroke-width:0.8;"/>
     </g>
     <g id="line2d_26">
      <g>
       <use style="stroke:#000000;stroke-width:0.8;" x="90" xlink:href="#m61fc4c3d21" y="130.142703"/>
      </g>
     </g>
     <g id="text_14">
      <!-- 0.7 -->
      <defs>
       <path d="M 8.203125 72.90625 
L 55.078125 72.90625 
L 55.078125 68.703125 
L 28.609375 0 
L 18.3125 0 
L 43.21875 64.59375 
L 8.203125 64.59375 
z
" id="DejaVuSans-55"/>
      </defs>
      <g transform="translate(67.096875 133.941922)scale(0.1 -0.1)">
       <use xlink:href="#DejaVuSans-48"/>
       <use x="63.623047" xlink:href="#DejaVuSans-46"/>
       <use x="95.410156" xlink:href="#DejaVuSans-55"/>
      </g>
     </g>
    </g>
    <g id="ytick_6">
     <g id="line2d_27">
      <path clip-path="url(#p00fe1c894a)" d="M 90 92.519421 
L 648 92.519421 
" style="fill:none;stroke:#b0b0b0;stroke-linecap:square;stroke-width:0.8;"/>
     </g>
     <g id="line2d_28">
      <g>
       <use style="stroke:#000000;stroke-width:0.8;" x="90" xlink:href="#m61fc4c3d21" y="92.519421"/>
      </g>
     </g>
     <g id="text_15">
      <!-- 0.8 -->
      <g transform="translate(67.096875 96.318639)scale(0.1 -0.1)">
       <use xlink:href="#DejaVuSans-48"/>
       <use x="63.623047" xlink:href="#DejaVuSans-46"/>
       <use x="95.410156" xlink:href="#DejaVuSans-56"/>
      </g>
     </g>
    </g>
    <g id="ytick_7">
     <g id="line2d_29">
      <path clip-path="url(#p00fe1c894a)" d="M 90 54.896138 
L 648 54.896138 
" style="fill:none;stroke:#b0b0b0;stroke-linecap:square;stroke-width:0.8;"/>
     </g>
     <g id="line2d_30">
      <g>
       <use style="stroke:#000000;stroke-width:0.8;" x="90" xlink:href="#m61fc4c3d21" y="54.896138"/>
      </g>
     </g>
     <g id="text_16">
      <!-- 0.9 -->
      <defs>
       <path d="M 10.984375 1.515625 
L 10.984375 10.5 
Q 14.703125 8.734375 18.5 7.8125 
Q 22.3125 6.890625 25.984375 6.890625 
Q 35.75 6.890625 40.890625 13.453125 
Q 46.046875 20.015625 46.78125 33.40625 
Q 43.953125 29.203125 39.59375 26.953125 
Q 35.25 24.703125 29.984375 24.703125 
Q 19.046875 24.703125 12.671875 31.3125 
Q 6.296875 37.9375 6.296875 49.421875 
Q 6.296875 60.640625 12.9375 67.421875 
Q 19.578125 74.21875 30.609375 74.21875 
Q 43.265625 74.21875 49.921875 64.515625 
Q 56.59375 54.828125 56.59375 36.375 
Q 56.59375 19.140625 48.40625 8.859375 
Q 40.234375 -1.421875 26.421875 -1.421875 
Q 22.703125 -1.421875 18.890625 -0.6875 
Q 15.09375 0.046875 10.984375 1.515625 
z
M 30.609375 32.421875 
Q 37.25 32.421875 41.125 36.953125 
Q 45.015625 41.5 45.015625 49.421875 
Q 45.015625 57.28125 41.125 61.84375 
Q 37.25 66.40625 30.609375 66.40625 
Q 23.96875 66.40625 20.09375 61.84375 
Q 16.21875 57.28125 16.21875 49.421875 
Q 16.21875 41.5 20.09375 36.953125 
Q 23.96875 32.421875 30.609375 32.421875 
z
" id="DejaVuSans-57"/>
      </defs>
      <g transform="translate(67.096875 58.695357)scale(0.1 -0.1)">
       <use xlink:href="#DejaVuSans-48"/>
       <use x="63.623047" xlink:href="#DejaVuSans-46"/>
       <use x="95.410156" xlink:href="#DejaVuSans-57"/>
      </g>
     </g>
    </g>
    <g id="text_17">
     <!-- accuracy -->
     <defs>
      <path d="M 34.28125 27.484375 
Q 23.390625 27.484375 19.1875 25 
Q 14.984375 22.515625 14.984375 16.5 
Q 14.984375 11.71875 18.140625 8.90625 
Q 21.296875 6.109375 26.703125 6.109375 
Q 34.1875 6.109375 38.703125 11.40625 
Q 43.21875 16.703125 43.21875 25.484375 
L 43.21875 27.484375 
z
M 52.203125 31.203125 
L 52.203125 0 
L 43.21875 0 
L 43.21875 8.296875 
Q 40.140625 3.328125 35.546875 0.953125 
Q 30.953125 -1.421875 24.3125 -1.421875 
Q 15.921875 -1.421875 10.953125 3.296875 
Q 6 8.015625 6 15.921875 
Q 6 25.140625 12.171875 29.828125 
Q 18.359375 34.515625 30.609375 34.515625 
L 43.21875 34.515625 
L 43.21875 35.40625 
Q 43.21875 41.609375 39.140625 45 
Q 35.0625 48.390625 27.6875 48.390625 
Q 23 48.390625 18.546875 47.265625 
Q 14.109375 46.140625 10.015625 43.890625 
L 10.015625 52.203125 
Q 14.9375 54.109375 19.578125 55.046875 
Q 24.21875 56 28.609375 56 
Q 40.484375 56 46.34375 49.84375 
Q 52.203125 43.703125 52.203125 31.203125 
z
" id="DejaVuSans-97"/>
      <path d="M 8.5 21.578125 
L 8.5 54.6875 
L 17.484375 54.6875 
L 17.484375 21.921875 
Q 17.484375 14.15625 20.5 10.265625 
Q 23.53125 6.390625 29.59375 6.390625 
Q 36.859375 6.390625 41.078125 11.03125 
Q 45.3125 15.671875 45.3125 23.6875 
L 45.3125 54.6875 
L 54.296875 54.6875 
L 54.296875 0 
L 45.3125 0 
L 45.3125 8.40625 
Q 42.046875 3.421875 37.71875 1 
Q 33.40625 -1.421875 27.6875 -1.421875 
Q 18.265625 -1.421875 13.375 4.4375 
Q 8.5 10.296875 8.5 21.578125 
z
M 31.109375 56 
z
" id="DejaVuSans-117"/>
      <path d="M 41.109375 46.296875 
Q 39.59375 47.171875 37.8125 47.578125 
Q 36.03125 48 33.890625 48 
Q 26.265625 48 22.1875 43.046875 
Q 18.109375 38.09375 18.109375 28.8125 
L 18.109375 0 
L 9.078125 0 
L 9.078125 54.6875 
L 18.109375 54.6875 
L 18.109375 46.1875 
Q 20.953125 51.171875 25.484375 53.578125 
Q 30.03125 56 36.53125 56 
Q 37.453125 56 38.578125 55.875 
Q 39.703125 55.765625 41.0625 55.515625 
z
" id="DejaVuSans-114"/>
      <path d="M 32.171875 -5.078125 
Q 28.375 -14.84375 24.75 -17.8125 
Q 21.140625 -20.796875 15.09375 -20.796875 
L 7.90625 -20.796875 
L 7.90625 -13.28125 
L 13.1875 -13.28125 
Q 16.890625 -13.28125 18.9375 -11.515625 
Q 21 -9.765625 23.484375 -3.21875 
L 25.09375 0.875 
L 2.984375 54.6875 
L 12.5 54.6875 
L 29.59375 11.921875 
L 46.6875 54.6875 
L 56.203125 54.6875 
z
" id="DejaVuSans-121"/>
     </defs>
     <g transform="translate(61.017187 201.659375)rotate(-90)scale(0.1 -0.1)">
      <use xlink:href="#DejaVuSans-97"/>
      <use x="61.279297" xlink:href="#DejaVuSans-99"/>
      <use x="116.259766" xlink:href="#DejaVuSans-99"/>
      <use x="171.240234" xlink:href="#DejaVuSans-117"/>
      <use x="234.619141" xlink:href="#DejaVuSans-114"/>
      <use x="275.732422" xlink:href="#DejaVuSans-97"/>
      <use x="337.011719" xlink:href="#DejaVuSans-99"/>
      <use x="391.992188" xlink:href="#DejaVuSans-121"/>
     </g>
    </g>
   </g>
   <g id="line2d_31">
    <path clip-path="url(#p00fe1c894a)" d="M 115.363636 296.155438 
L 115.729107 295.873264 
L 116.094577 298.600952 
L 116.460047 299.259359 
L 116.825517 298.977184 
L 117.190988 296.531671 
L 117.556458 296.813846 
L 117.921928 293.898041 
L 118.287398 298.506893 
L 118.652869 293.239634 
L 119.018339 300.105883 
L 119.383809 300.952407 
L 120.11475 295.308914 
L 120.48022 299.72965 
L 121.211161 296.719788 
L 121.576631 299.72965 
L 121.942101 298.883126 
L 122.307571 298.412835 
L 122.673042 301.422698 
L 123.038512 300.482116 
L 123.403982 291.170353 
L 123.769452 294.086158 
L 124.134923 291.076295 
L 124.500393 297.378195 
L 124.865863 297.754428 
L 125.231334 299.917767 
L 125.962274 292.957459 
L 126.327744 292.39311 
L 126.693215 296.343555 
L 127.058685 289.947597 
L 127.424155 292.581226 
L 127.789625 289.195131 
L 128.155096 287.878316 
L 128.886036 295.02674 
L 129.616977 289.947597 
L 129.982447 291.828761 
L 130.347917 285.526861 
L 130.713387 286.467443 
L 131.078858 282.328882 
L 131.444328 282.328882 
L 131.809798 279.78931 
L 132.175269 284.962512 
L 132.906209 274.522051 
L 133.271679 271.794363 
L 134.00262 262.294484 
L 134.36809 255.616351 
L 134.73356 256.1807 
L 135.099031 247.151113 
L 135.464501 243.388784 
L 135.829971 238.309641 
L 136.195441 226.176132 
L 136.560912 224.012794 
L 136.926382 218.745534 
L 137.291852 216.770312 
L 137.657323 207.92884 
L 138.022793 203.696221 
L 138.753733 200.122009 
L 139.119204 190.998363 
L 139.484674 192.597353 
L 140.215614 184.88458 
L 140.581085 181.21631 
L 140.946555 173.691653 
L 141.312025 175.008468 
L 141.677495 169.929325 
L 142.042966 172.374838 
L 142.408436 170.587732 
L 142.773906 166.355113 
L 143.504847 161.087853 
L 143.870317 159.488864 
L 144.235787 162.028435 
L 144.601258 154.503779 
L 144.966728 150.647392 
L 145.332198 154.409721 
L 145.697668 148.295937 
L 146.063139 150.835509 
L 146.428609 149.612752 
L 147.159549 142.93462 
L 147.52502 145.944482 
L 147.89049 144.157376 
L 148.25596 143.498969 
L 148.62143 141.053455 
L 148.986901 143.875202 
L 149.352371 139.454466 
L 149.717841 138.513884 
L 150.083312 136.06837 
L 150.448782 137.761418 
L 150.814252 132.588217 
L 151.179722 130.33082 
L 151.545193 133.058508 
L 152.276133 129.108063 
L 152.641603 130.142703 
L 153.007074 130.236762 
L 153.372544 129.484296 
L 153.738014 132.4001 
L 154.103484 127.226899 
L 154.468955 129.390238 
L 154.834425 125.910084 
L 155.199895 127.132841 
L 155.565365 126.192259 
L 155.930836 120.736883 
L 156.296306 122.335872 
L 156.661776 121.583407 
L 157.027247 121.583407 
L 157.392717 123.464571 
L 157.758187 121.207174 
L 158.123657 123.276454 
L 158.854598 116.69238 
L 159.585538 121.677465 
L 159.951009 114.811216 
L 160.316479 119.608184 
L 160.681949 117.256729 
L 161.047419 115.939914 
L 161.41289 119.514126 
L 161.77836 118.009195 
L 162.14383 119.231951 
L 162.5093 121.019057 
L 162.874771 112.741935 
L 163.240241 116.128031 
L 163.605711 114.623099 
L 163.971182 111.613237 
L 164.336652 114.05875 
L 164.702122 112.271644 
L 165.067592 115.469623 
L 165.433063 111.142946 
L 165.798533 108.415258 
L 166.529473 112.083528 
L 166.894944 107.286559 
L 167.260414 107.944967 
L 167.625884 105.969744 
L 167.991354 104.935104 
L 168.356825 106.345977 
L 168.722295 105.969744 
L 169.087765 103.242056 
L 169.453236 106.816268 
L 169.818706 105.217279 
L 170.184176 102.207416 
L 170.549646 105.875686 
L 170.915117 105.405395 
L 171.280587 101.925241 
L 171.646057 103.806406 
L 172.011527 102.865823 
L 172.376998 99.667844 
L 172.742468 104.08858 
L 173.107938 103.806406 
L 173.473408 100.796543 
L 173.838879 102.677707 
L 174.204349 98.727262 
L 174.569819 97.974797 
L 174.935289 96.469865 
L 175.30076 100.326252 
L 175.66623 99.103495 
L 176.0317 97.128273 
L 176.762641 102.113358 
L 177.128111 96.375807 
L 177.493581 100.138135 
L 177.859052 98.162913 
L 178.224522 99.479728 
L 178.589992 97.222331 
L 178.955462 94.212468 
L 179.320933 94.682759 
L 180.051873 95.905516 
L 180.417343 98.539146 
L 180.782814 97.78668 
L 181.148284 93.365945 
L 181.513754 97.78668 
L 181.879225 91.766955 
L 182.244695 96.187691 
L 182.610165 95.341167 
L 182.975635 91.202606 
L 183.706576 95.341167 
L 184.072046 94.024352 
L 184.437516 90.45014 
L 184.802987 97.78668 
L 185.168457 94.682759 
L 185.533927 94.024352 
L 185.899397 91.766955 
L 186.264868 94.306527 
L 186.630338 92.801595 
L 186.995808 94.682759 
L 187.361278 94.776818 
L 187.726749 91.955071 
L 188.092219 93.836236 
L 188.457689 93.08377 
L 188.82316 91.390722 
L 189.18863 93.08377 
L 189.91957 89.509558 
L 190.285041 92.425362 
L 190.650511 92.04913 
L 191.015981 88.004627 
L 191.381451 91.861013 
L 191.746922 91.296664 
L 192.112392 90.262024 
L 192.477862 91.578839 
L 193.208803 92.331304 
L 193.574273 92.237246 
L 193.939743 88.192743 
L 194.305214 90.920431 
L 194.670684 86.875928 
L 195.036154 90.356082 
L 195.401624 90.920431 
L 195.767095 89.227383 
L 196.132565 92.613479 
L 196.498035 90.732315 
L 196.863505 87.628394 
L 197.228976 87.534336 
L 197.594446 88.474918 
L 197.959916 90.45014 
L 198.325386 89.885791 
L 198.690857 87.628394 
L 199.056327 87.722452 
L 199.421797 84.242299 
L 199.787267 89.885791 
L 200.152738 88.757092 
L 200.518208 89.133325 
L 201.249149 84.054182 
L 201.614619 83.677949 
L 201.980089 92.237246 
L 202.345559 92.989712 
L 202.71103 86.78187 
L 203.0765 84.430415 
L 203.44197 86.311579 
L 203.80744 86.405637 
L 204.538381 88.568976 
L 204.903851 87.910569 
L 205.269321 84.994764 
L 205.634792 85.74723 
L 206.000262 84.14824 
L 206.365732 86.593754 
L 206.731203 85.370997 
L 207.096673 86.123463 
L 207.462143 88.38086 
L 207.827613 86.78187 
L 208.193084 88.945209 
L 208.558554 87.628394 
L 208.924024 87.252161 
L 209.289494 84.054182 
L 209.654965 88.568976 
L 210.020435 85.74723 
L 210.751375 82.643309 
L 211.116846 85.559113 
L 211.482316 84.994764 
L 211.847786 85.370997 
L 212.213256 83.866066 
L 212.578727 84.14824 
L 212.944197 83.866066 
L 213.309667 86.405637 
L 213.675138 83.489833 
L 214.040608 85.465055 
L 214.406078 86.029404 
L 214.771548 85.841288 
L 215.137019 84.806648 
L 215.867959 87.064045 
L 216.233429 85.370997 
L 216.5989 87.722452 
L 216.96437 84.336357 
L 217.32984 79.633446 
L 217.69531 83.1136 
L 218.060781 83.301716 
L 218.426251 82.549251 
L 219.157192 86.029404 
L 219.522662 85.653172 
L 219.888132 81.232436 
L 220.253602 81.514611 
L 220.619073 83.301716 
L 220.984543 85.74723 
L 221.350013 85.74723 
L 221.715483 81.326494 
L 222.080954 82.737367 
L 222.811894 80.009679 
L 223.177364 81.608669 
L 223.542835 80.574028 
L 223.908305 83.866066 
L 224.273775 80.103737 
L 224.639245 87.346219 
L 225.004716 85.74723 
L 225.370186 85.841288 
L 225.735656 82.925484 
L 226.101127 83.1136 
L 226.466597 82.925484 
L 226.832067 83.1136 
L 227.197537 80.197796 
L 227.563008 80.668087 
L 227.928478 78.975039 
L 228.293948 84.14824 
L 228.659418 83.019542 
L 229.024889 85.182881 
L 229.390359 79.727505 
L 229.755829 79.44533 
L 230.121299 79.44533 
L 230.48677 81.984902 
L 230.85224 81.420552 
L 231.21771 82.173018 
L 231.583181 79.257214 
L 231.948651 78.598806 
L 232.314121 80.385912 
L 233.045062 80.574028 
L 233.410532 83.395775 
L 233.776002 78.034457 
L 234.141472 81.984902 
L 234.506943 80.197796 
L 234.872413 80.385912 
L 235.237883 79.727505 
L 235.603353 81.326494 
L 235.968824 81.232436 
L 236.334294 84.994764 
L 236.699764 83.1136 
L 237.065234 82.07896 
L 237.430705 82.361134 
L 237.796175 80.197796 
L 238.161645 79.351272 
L 238.527116 82.831425 
L 238.892586 76.623584 
L 239.258056 78.034457 
L 239.623526 80.47997 
L 239.988997 81.232436 
L 240.354467 77.281991 
L 240.719937 80.762145 
L 241.085407 81.044319 
L 241.450878 77.84634 
L 241.816348 78.975039 
L 242.181818 79.257214 
L 242.912759 78.222573 
L 243.278229 80.103737 
L 243.643699 78.316631 
L 244.00917 78.316631 
L 244.37464 81.232436 
L 244.74011 79.44533 
L 245.10558 78.975039 
L 245.471051 78.316631 
L 245.836521 79.915621 
L 246.201991 77.564166 
L 246.567461 81.326494 
L 246.932932 77.940399 
L 247.298402 79.727505 
L 247.663872 78.692864 
L 248.029342 81.514611 
L 248.760283 77.093875 
L 249.125753 79.539388 
L 249.491223 75.683002 
L 249.856694 78.786923 
L 250.222164 79.163155 
L 250.587634 78.316631 
L 251.318575 79.821563 
L 251.684045 78.598806 
L 252.049515 78.034457 
L 252.414986 78.128515 
L 252.780456 76.905758 
L 253.145926 77.940399 
L 253.511396 78.128515 
L 253.876867 78.975039 
L 254.242337 77.752282 
L 254.607807 77.940399 
L 254.973277 79.633446 
L 255.338748 76.435467 
L 255.704218 80.668087 
L 256.069688 73.989954 
L 256.435159 77.658224 
L 256.800629 76.623584 
L 257.89704 78.880981 
L 258.26251 81.044319 
L 258.62798 79.727505 
L 258.99345 77.093875 
L 259.358921 81.984902 
L 259.724391 80.856203 
L 260.089861 81.138378 
L 260.455331 73.237488 
L 260.820802 76.8117 
L 261.186272 81.796785 
L 261.551742 80.950261 
L 261.917212 76.905758 
L 262.648153 79.915621 
L 263.013623 77.940399 
L 263.379094 78.034457 
L 263.744564 75.965176 
L 264.110034 77.281991 
L 264.475504 77.940399 
L 264.840975 76.623584 
L 265.206445 77.470108 
L 265.571915 81.138378 
L 265.937385 77.376049 
L 266.302856 76.623584 
L 266.668326 78.316631 
L 267.033796 75.494885 
L 267.399266 77.093875 
L 267.764737 77.376049 
L 268.130207 78.128515 
L 268.495677 75.77706 
L 268.861147 76.341409 
L 269.226618 78.880981 
L 269.592088 77.564166 
L 269.957558 79.633446 
L 270.323029 76.717642 
L 270.688499 75.306769 
L 271.053969 73.237488 
L 271.78491 76.999817 
L 272.51585 79.539388 
L 272.88132 76.999817 
L 273.246791 76.341409 
L 273.612261 76.529526 
L 273.977731 78.316631 
L 274.343201 75.118652 
L 274.708672 76.247351 
L 275.074142 73.895896 
L 275.439612 74.366187 
L 275.805083 75.024594 
L 276.170553 76.247351 
L 276.536023 75.77706 
L 276.901493 76.8117 
L 277.266964 74.554303 
L 277.632434 75.77706 
L 277.997904 72.767197 
L 278.363374 77.281991 
L 278.728845 78.316631 
L 279.094315 72.955314 
L 279.459785 78.222573 
L 279.825255 74.272129 
L 280.190726 75.871118 
L 280.556196 74.930536 
L 280.921666 78.41069 
L 281.287136 73.519663 
L 281.652607 70.321684 
L 282.018077 73.14343 
L 282.383547 78.41069 
L 282.749018 74.084012 
L 283.114488 71.826615 
L 283.479958 75.400827 
L 283.845428 73.801838 
L 284.210899 73.519663 
L 284.576369 77.470108 
L 284.941839 79.821563 
L 285.307309 77.093875 
L 285.67278 75.588943 
L 286.03825 79.821563 
L 286.40372 75.118652 
L 286.76919 76.717642 
L 287.134661 79.351272 
L 287.500131 76.341409 
L 287.865601 75.683002 
L 288.231072 75.871118 
L 288.596542 75.77706 
L 288.962012 75.400827 
L 289.327482 73.895896 
L 290.058423 74.836478 
L 290.423893 75.212711 
L 290.789363 73.707779 
L 291.885774 75.588943 
L 292.251244 74.74242 
L 292.616715 75.965176 
L 292.982185 72.014732 
L 293.347655 76.905758 
L 293.713125 73.14343 
L 294.078596 74.084012 
L 294.444066 73.895896 
L 294.809536 74.554303 
L 295.175007 74.930536 
L 295.540477 71.920673 
L 295.905947 78.222573 
L 296.271417 73.331547 
L 296.636888 73.989954 
L 297.002358 74.17807 
L 297.367828 73.519663 
L 297.733298 75.118652 
L 298.098769 75.400827 
L 298.464239 74.554303 
L 298.829709 72.390964 
L 299.195179 72.390964 
L 299.56065 74.272129 
L 299.92612 74.648361 
L 300.29159 73.14343 
L 300.657061 75.588943 
L 301.022531 71.920673 
L 301.388001 74.272129 
L 301.753471 73.801838 
L 302.118942 74.836478 
L 302.484412 75.212711 
L 302.849882 75.212711 
L 303.215352 74.460245 
L 303.580823 70.415742 
L 303.946293 75.494885 
L 304.311763 76.905758 
L 304.677233 74.74242 
L 305.042704 75.024594 
L 305.773644 72.485023 
L 306.139114 78.128515 
L 306.504585 73.989954 
L 306.870055 72.673139 
L 307.235525 71.826615 
L 307.600996 76.529526 
L 307.966466 74.554303 
L 308.331936 75.965176 
L 308.697406 73.895896 
L 309.062877 75.77706 
L 309.428347 71.168208 
L 309.793817 72.861255 
L 310.159287 70.697917 
L 310.524758 73.895896 
L 310.890228 73.049372 
L 311.255698 72.861255 
L 311.621168 76.529526 
L 311.986639 76.247351 
L 312.352109 74.17807 
L 312.717579 73.613721 
L 313.08305 73.425605 
L 313.44852 69.945451 
L 313.81399 73.989954 
L 314.17946 69.192985 
L 314.910401 72.296906 
L 315.275871 76.435467 
L 315.641341 70.415742 
L 316.006812 74.74242 
L 316.372282 70.5098 
L 316.737752 70.980091 
L 317.103222 71.07415 
L 317.468693 75.588943 
L 317.834163 74.084012 
L 318.199633 69.569218 
L 318.565103 70.415742 
L 318.930574 72.202848 
L 319.296044 72.296906 
L 319.661514 70.227626 
L 320.026985 73.237488 
L 320.392455 72.767197 
L 320.757925 72.014732 
L 321.123395 71.826615 
L 321.488866 71.262266 
L 321.854336 70.980091 
L 322.219806 73.425605 
L 322.585276 70.886033 
L 322.950747 73.613721 
L 323.316217 74.084012 
L 323.681687 70.980091 
L 324.047157 75.024594 
L 324.412628 70.603859 
L 324.778098 73.989954 
L 325.143568 72.579081 
L 325.874509 71.168208 
L 326.239979 73.707779 
L 326.605449 67.970229 
L 326.97092 70.5098 
L 327.33639 70.697917 
L 327.70186 72.390964 
L 328.06733 69.757335 
L 328.432801 75.118652 
L 328.798271 75.212711 
L 329.163741 69.47516 
L 329.529211 73.049372 
L 329.894682 70.133567 
L 330.260152 72.485023 
L 330.625622 73.049372 
L 330.991092 71.638499 
L 331.356563 73.049372 
L 331.722033 72.390964 
L 332.087503 69.851393 
L 332.452974 70.603859 
L 332.818444 75.024594 
L 333.183914 72.485023 
L 333.549384 72.579081 
L 333.914855 72.390964 
L 334.280325 70.133567 
L 334.645795 72.955314 
L 335.376736 70.133567 
L 335.742206 74.554303 
L 336.473146 71.544441 
L 336.838617 73.613721 
L 337.204087 70.886033 
L 337.935028 70.980091 
L 338.300498 72.296906 
L 338.665968 73.14343 
L 339.031438 68.534578 
L 339.396909 74.460245 
L 339.762379 71.450382 
L 340.127849 75.306769 
L 340.493319 68.628636 
L 340.85879 70.886033 
L 341.22426 72.390964 
L 341.58973 70.886033 
L 341.9552 70.039509 
L 342.320671 71.544441 
L 342.686141 70.886033 
L 343.051611 69.47516 
L 343.782552 69.381102 
L 344.148022 69.47516 
L 344.513492 69.287044 
L 344.878963 71.544441 
L 345.244433 71.544441 
L 345.975373 73.519663 
L 346.340844 68.816753 
L 346.706314 70.227626 
L 347.071784 69.851393 
L 347.437254 70.5098 
L 347.802725 70.321684 
L 348.168195 68.064287 
L 348.533665 72.485023 
L 348.899135 72.202848 
L 349.264606 68.816753 
L 349.630076 69.945451 
L 349.995546 71.920673 
L 350.361017 68.628636 
L 351.091957 70.603859 
L 351.457427 70.133567 
L 351.822898 69.47516 
L 352.188368 68.064287 
L 352.553838 74.460245 
L 352.919308 71.07415 
L 353.284779 72.296906 
L 353.650249 70.5098 
L 354.015719 71.732557 
L 354.381189 69.004869 
L 354.74666 71.638499 
L 355.11213 70.415742 
L 355.4776 73.895896 
L 355.84307 72.10879 
L 356.208541 69.757335 
L 356.574011 70.133567 
L 356.939481 72.296906 
L 357.304952 68.910811 
L 358.035892 72.390964 
L 358.401362 69.569218 
L 358.766833 68.722694 
L 359.132303 68.816753 
L 359.497773 68.064287 
L 359.863243 70.886033 
L 360.228714 72.390964 
L 360.594184 68.252403 
L 360.959654 71.826615 
L 361.325124 69.192985 
L 361.690595 69.47516 
L 362.056065 68.064287 
L 362.421535 72.579081 
L 362.787006 70.697917 
L 363.152476 67.593996 
L 363.517946 71.826615 
L 363.883416 66.371239 
L 364.614357 70.227626 
L 364.979827 69.851393 
L 365.345297 66.747472 
L 365.710768 67.40588 
L 366.076238 71.07415 
L 366.807178 68.252403 
L 367.172649 70.133567 
L 367.538119 67.217763 
L 367.903589 70.133567 
L 368.269059 68.252403 
L 368.63453 69.287044 
L 369 69.287044 
L 369.36547 69.945451 
L 369.730941 66.371239 
L 370.096411 69.851393 
L 370.461881 71.732557 
L 371.192822 67.688054 
L 371.558292 67.688054 
L 371.923762 71.732557 
L 372.289232 70.321684 
L 372.654703 70.415742 
L 373.020173 70.980091 
L 373.385643 70.227626 
L 373.751113 70.886033 
L 374.116584 70.791975 
L 374.482054 71.826615 
L 374.847524 69.569218 
L 375.212994 68.910811 
L 375.578465 71.450382 
L 375.943935 66.559356 
L 376.309405 71.638499 
L 376.674876 68.628636 
L 377.040346 70.321684 
L 377.771286 67.593996 
L 378.136757 70.039509 
L 378.502227 67.123705 
L 378.867697 67.970229 
L 379.233167 65.618774 
L 379.598638 65.995006 
L 379.964108 64.866308 
L 380.329578 68.252403 
L 380.695048 70.415742 
L 381.060519 67.876171 
L 381.791459 69.192985 
L 382.15693 68.628636 
L 382.5224 69.47516 
L 382.88787 69.663276 
L 383.25334 69.287044 
L 383.618811 70.133567 
L 384.349751 67.123705 
L 384.715221 71.638499 
L 385.080692 65.242541 
L 385.446162 69.381102 
L 385.811632 67.970229 
L 386.177102 69.851393 
L 386.542573 68.816753 
L 386.908043 64.866308 
L 387.273513 66.465297 
L 387.638983 64.301959 
L 388.004454 68.910811 
L 388.369924 67.593996 
L 388.735394 68.158345 
L 389.100865 69.098927 
L 389.466335 68.346462 
L 389.831805 68.252403 
L 390.197275 66.371239 
L 390.562746 70.886033 
L 390.928216 68.722694 
L 391.293686 68.158345 
L 391.659156 68.346462 
L 392.024627 69.569218 
L 392.390097 67.499938 
L 392.755567 68.534578 
L 393.121037 70.980091 
L 393.486508 68.534578 
L 393.851978 67.876171 
L 394.217448 67.876171 
L 394.582919 69.192985 
L 394.948389 68.816753 
L 395.313859 65.430657 
L 395.679329 68.158345 
L 396.0448 66.84153 
L 396.41027 69.757335 
L 396.77574 70.980091 
L 397.14121 65.524715 
L 398.237621 68.910811 
L 398.603091 66.277181 
L 398.968562 68.064287 
L 399.334032 69.192985 
L 399.699502 67.593996 
L 400.064972 69.569218 
L 400.430443 67.876171 
L 400.795913 70.697917 
L 401.161383 65.995006 
L 401.526854 67.782112 
L 401.892324 66.183123 
L 402.257794 63.925726 
L 402.623264 68.910811 
L 402.988735 67.217763 
L 403.354205 70.697917 
L 403.719675 67.311821 
L 404.085145 66.371239 
L 404.450616 67.499938 
L 404.816086 67.217763 
L 405.181556 67.782112 
L 405.547026 65.430657 
L 405.912497 68.064287 
L 406.277967 67.782112 
L 406.643437 64.866308 
L 407.008908 65.618774 
L 407.374378 65.430657 
L 407.739848 68.628636 
L 408.105318 64.960366 
L 408.470789 67.40588 
L 408.836259 65.054424 
L 409.201729 64.866308 
L 409.567199 69.47516 
L 410.66361 66.653414 
L 411.02908 64.960366 
L 411.394551 64.960366 
L 411.760021 67.123705 
L 412.125491 64.584133 
L 412.490961 65.524715 
L 412.856432 65.430657 
L 413.221902 66.089065 
L 413.587372 63.17326 
L 413.952843 67.593996 
L 414.318313 69.851393 
L 414.683783 67.311821 
L 415.049253 63.831668 
L 415.414724 66.465297 
L 415.780194 66.371239 
L 416.145664 62.13862 
L 416.511134 65.054424 
L 416.876605 62.13862 
L 417.242075 67.123705 
L 417.607545 62.702969 
L 417.973015 66.935588 
L 418.338486 66.84153 
L 418.703956 65.712832 
L 419.069426 68.346462 
L 419.434897 66.089065 
L 419.800367 68.252403 
L 420.165837 67.029647 
L 420.531307 65.336599 
L 420.896778 65.524715 
L 421.262248 66.277181 
L 421.627718 67.499938 
L 421.993188 66.84153 
L 422.358659 64.301959 
L 422.724129 65.336599 
L 423.089599 70.321684 
L 423.455069 66.747472 
L 424.18601 63.455435 
L 424.55148 63.17326 
L 424.91695 67.970229 
L 425.282421 64.960366 
L 425.647891 65.900948 
L 426.013361 69.192985 
L 426.378832 66.089065 
L 426.744302 69.945451 
L 427.109772 66.371239 
L 427.475242 67.40588 
L 427.840713 64.678192 
L 428.206183 64.2079 
L 428.571653 65.242541 
L 428.937123 65.524715 
L 429.302594 63.925726 
L 429.668064 65.336599 
L 430.033534 63.925726 
L 430.399004 64.678192 
L 430.764475 63.925726 
L 431.129945 65.430657 
L 431.495415 64.584133 
L 431.860886 65.054424 
L 432.226356 65.995006 
L 432.591826 66.371239 
L 433.322767 63.737609 
L 433.688237 67.499938 
L 434.053707 63.925726 
L 434.419177 66.84153 
L 434.784648 68.44052 
L 435.150118 67.311821 
L 435.515588 62.420795 
L 435.881058 64.584133 
L 436.246529 64.584133 
L 436.611999 66.84153 
L 436.977469 67.029647 
L 437.342939 64.113842 
L 437.70841 68.44052 
L 438.07388 66.653414 
L 438.43935 63.549493 
L 438.804821 67.123705 
L 439.170291 65.712832 
L 439.535761 61.950504 
L 439.901231 65.618774 
L 440.632172 60.351514 
L 440.997642 66.465297 
L 441.363112 63.267318 
L 441.728583 64.584133 
L 442.094053 64.866308 
L 442.459523 66.84153 
L 442.824993 61.762387 
L 443.190464 69.47516 
L 443.555934 63.831668 
L 443.921404 65.054424 
L 444.286875 64.77225 
L 444.652345 61.386154 
L 445.017815 65.712832 
L 445.383285 63.831668 
L 445.748756 64.490075 
L 446.114226 64.584133 
L 446.479696 65.712832 
L 446.845166 63.831668 
L 447.210637 66.183123 
L 447.576107 61.386154 
L 447.941577 63.925726 
L 448.307047 62.891086 
L 448.672518 65.618774 
L 449.037988 66.277181 
L 449.403458 63.737609 
L 449.768928 64.960366 
L 450.134399 61.950504 
L 451.23081 65.054424 
L 451.59628 61.856445 
L 451.96175 66.277181 
L 452.32722 65.148483 
L 452.692691 64.490075 
L 453.058161 67.123705 
L 453.423631 61.480212 
L 453.789101 60.727747 
L 454.154572 63.267318 
L 454.520042 64.866308 
L 454.885512 62.044562 
L 455.250982 65.242541 
L 455.616453 64.396017 
L 455.981923 65.430657 
L 456.347393 65.054424 
L 456.712864 65.618774 
L 457.078334 66.465297 
L 457.809274 64.019784 
L 458.174745 63.267318 
L 458.540215 65.80689 
L 458.905685 63.643551 
L 459.271155 62.985144 
L 459.636626 65.900948 
L 460.002096 62.326736 
L 460.367566 64.490075 
L 460.733036 62.702969 
L 461.098507 68.346462 
L 461.463977 64.113842 
L 461.829447 68.628636 
L 462.194917 62.608911 
L 462.560388 63.267318 
L 462.925858 61.198038 
L 463.291328 65.524715 
L 463.656799 66.183123 
L 464.022269 64.019784 
L 464.387739 65.148483 
L 464.753209 65.618774 
L 465.11868 62.608911 
L 465.48415 62.891086 
L 465.84962 63.361377 
L 466.21509 60.53963 
L 466.580561 60.915863 
L 466.946031 62.514853 
L 467.311501 62.985144 
L 468.042442 60.633689 
L 468.407912 65.995006 
L 469.138853 62.797027 
L 469.504323 64.960366 
L 469.869793 62.420795 
L 470.235263 63.549493 
L 470.600734 67.123705 
L 471.331674 63.361377 
L 471.697144 65.336599 
L 472.062615 65.80689 
L 472.793555 63.267318 
L 473.159025 65.054424 
L 473.524496 63.455435 
L 473.889966 61.10398 
L 474.255436 61.762387 
L 474.620906 65.148483 
L 474.986377 63.643551 
L 475.351847 63.455435 
L 475.717317 64.113842 
L 476.082788 61.856445 
L 476.448258 60.445572 
L 476.813728 59.693107 
L 477.179198 62.044562 
L 477.544669 62.797027 
L 477.910139 65.995006 
L 478.275609 62.702969 
L 478.641079 64.396017 
L 479.00655 60.821805 
L 479.37202 63.831668 
L 479.73749 62.044562 
L 480.10296 63.831668 
L 480.468431 60.727747 
L 481.199371 65.80689 
L 481.930312 62.702969 
L 482.295782 61.574271 
L 482.661252 62.326736 
L 483.026723 62.326736 
L 483.392193 62.514853 
L 483.757663 63.549493 
L 484.123133 66.089065 
L 484.488604 62.514853 
L 484.854074 62.891086 
L 485.219544 64.301959 
L 485.585014 63.925726 
L 485.950485 61.292096 
L 486.315955 64.866308 
L 486.681425 63.643551 
L 487.046895 64.960366 
L 487.412366 63.361377 
L 487.777836 63.925726 
L 488.143306 60.069339 
L 488.508777 63.267318 
L 488.874247 64.490075 
L 489.239717 63.455435 
L 489.605187 63.925726 
L 489.970658 65.242541 
L 490.336128 64.584133 
L 490.701598 63.17326 
L 491.067068 62.608911 
L 491.432539 62.326736 
L 491.798009 65.430657 
L 492.163479 61.856445 
L 492.528949 63.549493 
L 492.89442 62.326736 
L 493.25989 62.420795 
L 493.62536 61.574271 
L 493.99083 61.856445 
L 494.356301 64.2079 
L 494.721771 59.034699 
L 495.087241 63.831668 
L 495.452712 60.915863 
L 495.818182 60.445572 
L 496.549122 63.831668 
L 496.914593 64.960366 
L 497.280063 61.480212 
L 497.645533 61.856445 
L 498.011003 62.702969 
L 498.376474 64.396017 
L 498.741944 64.2079 
L 499.107414 59.599048 
L 499.472884 63.925726 
L 499.838355 63.925726 
L 500.203825 61.480212 
L 500.569295 65.900948 
L 500.934766 63.643551 
L 501.665706 65.148483 
L 502.031176 63.831668 
L 502.396647 63.455435 
L 503.127587 62.13862 
L 503.493057 63.17326 
L 503.858528 64.678192 
L 504.589468 64.019784 
L 505.320409 61.198038 
L 505.685879 63.361377 
L 506.051349 60.821805 
L 506.78229 62.232678 
L 507.14776 59.410932 
L 507.51323 59.787165 
L 507.878701 64.2079 
L 508.244171 62.044562 
L 508.609641 62.13862 
L 508.975111 61.480212 
L 509.340582 61.386154 
L 509.706052 65.524715 
L 510.071522 63.361377 
L 510.436992 61.950504 
L 511.167933 64.113842 
L 511.898873 60.821805 
L 512.264344 61.574271 
L 512.629814 63.643551 
L 512.995284 62.891086 
L 513.360755 63.079202 
L 513.726225 62.797027 
L 514.091695 62.044562 
L 514.457165 62.985144 
L 514.822636 62.13862 
L 515.188106 60.821805 
L 515.553576 61.386154 
L 515.919046 61.574271 
L 516.284517 64.113842 
L 516.649987 63.17326 
L 517.015457 62.891086 
L 517.380927 59.410932 
L 517.746398 63.455435 
L 518.477338 62.608911 
L 518.842808 61.856445 
L 519.208279 63.17326 
L 519.573749 60.53963 
L 519.939219 62.797027 
L 520.30469 65.80689 
L 520.67016 60.069339 
L 521.03563 61.762387 
L 521.4011 62.326736 
L 521.766571 61.668329 
L 522.132041 58.282233 
L 522.497511 62.13862 
L 522.862981 62.326736 
L 523.228452 58.846583 
L 523.959392 63.455435 
L 524.324862 59.693107 
L 524.690333 62.985144 
L 525.421273 59.316874 
L 525.786744 60.163398 
L 526.152214 61.950504 
L 526.517684 66.277181 
L 526.883154 62.044562 
L 527.248625 61.292096 
L 527.614095 59.50499 
L 527.979565 61.762387 
L 528.345035 62.608911 
L 528.710506 61.762387 
L 529.075976 63.643551 
L 529.441446 59.975281 
L 529.806916 64.490075 
L 530.172387 63.267318 
L 530.537857 65.524715 
L 530.903327 60.351514 
L 531.268797 62.13862 
L 531.634268 63.267318 
L 531.999738 59.693107 
L 532.365208 60.445572 
L 532.730679 62.797027 
L 533.096149 61.668329 
L 533.461619 62.044562 
L 534.19256 63.831668 
L 534.55803 60.351514 
L 534.9235 61.668329 
L 535.654441 60.53963 
L 536.019911 60.53963 
L 536.385381 61.009921 
L 536.750851 59.693107 
L 537.116322 60.53963 
L 537.481792 60.351514 
L 537.847262 60.351514 
L 538.212733 60.915863 
L 538.578203 60.445572 
L 538.943673 59.50499 
L 539.309143 59.599048 
L 539.674614 65.054424 
L 540.040084 62.797027 
L 540.405554 65.054424 
L 540.771024 66.559356 
L 541.136495 61.198038 
L 541.501965 64.113842 
L 541.867435 62.891086 
L 542.232905 63.549493 
L 542.598376 63.361377 
L 542.963846 58.188175 
L 543.694786 64.77225 
L 544.060257 60.351514 
L 544.425727 60.445572 
L 544.791197 63.361377 
L 545.156668 60.351514 
L 545.522138 60.821805 
L 545.887608 61.574271 
L 546.253078 59.975281 
L 546.618549 60.069339 
L 546.984019 60.727747 
L 547.349489 57.43571 
L 547.714959 61.480212 
L 548.08043 61.198038 
L 548.4459 63.361377 
L 548.81137 60.257456 
L 549.17684 61.762387 
L 549.542311 62.514853 
L 549.907781 59.881223 
L 550.273251 61.386154 
L 550.638722 59.50499 
L 551.004192 59.787165 
L 551.369662 62.891086 
L 552.100603 62.891086 
L 552.466073 60.727747 
L 552.831543 60.257456 
L 553.197013 58.846583 
L 553.562484 62.985144 
L 554.293424 60.727747 
L 554.658894 62.13862 
L 555.024365 62.985144 
L 555.389835 60.163398 
L 555.755305 60.821805 
L 556.486246 58.188175 
L 556.851716 61.762387 
L 557.217186 62.13862 
L 557.948127 59.128757 
L 558.313597 61.480212 
L 558.679067 59.50499 
L 559.044538 62.044562 
L 559.410008 61.292096 
L 559.775478 59.693107 
L 560.140948 60.069339 
L 560.506419 62.13862 
L 560.871889 61.856445 
L 561.237359 58.376292 
L 561.602829 62.420795 
L 561.9683 63.737609 
L 562.33377 59.599048 
L 562.69924 60.727747 
L 563.064711 63.079202 
L 563.430181 61.574271 
L 563.795651 62.797027 
L 564.161121 59.316874 
L 564.526592 60.633689 
L 564.892062 61.009921 
L 565.257532 58.000059 
L 565.623002 59.599048 
L 565.988473 59.599048 
L 566.353943 59.034699 
L 566.719413 59.50499 
L 567.084883 60.163398 
L 567.450354 59.881223 
L 567.815824 58.188175 
L 568.181294 58.094117 
L 568.546764 62.326736 
L 568.912235 62.13862 
L 569.277705 61.574271 
L 569.643175 57.529768 
L 570.008646 60.53963 
L 570.374116 60.351514 
L 570.739586 61.950504 
L 571.105056 57.623826 
L 571.470527 58.47035 
L 571.835997 58.188175 
L 572.201467 59.222816 
L 572.566937 63.361377 
L 572.932408 60.727747 
L 573.297878 60.257456 
L 573.663348 61.762387 
L 574.028818 59.881223 
L 574.394289 61.668329 
L 575.125229 56.495128 
L 575.4907 60.351514 
L 575.85617 59.787165 
L 576.22164 60.445572 
L 576.58711 59.222816 
L 576.952581 59.034699 
L 577.318051 58.658466 
L 577.683521 57.717884 
L 578.048991 59.693107 
L 578.414462 57.811942 
L 578.779932 59.881223 
L 579.145402 60.445572 
L 579.510872 57.811942 
L 580.241813 62.326736 
L 580.607283 62.13862 
L 580.972753 58.47035 
L 581.338224 63.549493 
L 581.703694 58.000059 
L 582.069164 61.10398 
L 582.434635 59.787165 
L 582.800105 60.351514 
L 583.165575 58.376292 
L 583.531045 61.762387 
L 583.896516 60.53963 
L 584.261986 62.514853 
L 584.627456 60.915863 
L 584.992926 56.683244 
L 585.358397 55.554545 
L 585.723867 56.495128 
L 586.089337 61.292096 
L 586.454807 58.940641 
L 586.820278 60.915863 
L 587.185748 61.10398 
L 587.551218 60.069339 
L 587.916688 62.232678 
L 588.282159 57.247593 
L 588.647629 59.410932 
L 589.013099 62.797027 
L 589.37857 60.727747 
L 589.74404 61.292096 
L 590.10951 62.13862 
L 590.840451 57.623826 
L 591.205921 60.53963 
L 591.571391 60.445572 
L 591.936861 58.658466 
L 592.302332 55.930778 
L 592.667802 59.975281 
L 593.033272 60.821805 
L 593.398742 56.777302 
L 593.764213 58.846583 
L 594.129683 63.079202 
L 594.495153 60.915863 
L 594.860624 62.608911 
L 595.226094 60.069339 
L 595.591564 60.53963 
L 595.957034 59.599048 
L 596.322505 59.410932 
L 596.687975 58.658466 
L 597.053445 60.915863 
L 597.418915 60.821805 
L 597.784386 60.351514 
L 598.149856 58.376292 
L 598.515326 58.658466 
L 598.880796 60.727747 
L 599.246267 58.940641 
L 599.977207 59.222816 
L 600.342677 56.87136 
L 600.708148 62.13862 
L 601.073618 58.658466 
L 601.439088 60.351514 
L 601.804559 59.034699 
L 602.170029 59.316874 
L 602.535499 60.727747 
L 602.900969 57.341651 
L 603.26644 56.87136 
L 603.63191 60.53963 
L 603.99738 60.351514 
L 604.36285 58.940641 
L 604.728321 59.787165 
L 605.093791 60.351514 
L 605.459261 59.222816 
L 605.824731 60.53963 
L 606.190202 60.257456 
L 606.555672 61.386154 
L 607.286613 57.247593 
L 607.652083 61.198038 
L 608.017553 57.906001 
L 608.748494 59.787165 
L 609.113964 59.410932 
L 609.479434 59.787165 
L 609.844904 59.881223 
L 610.210375 58.752524 
L 610.575845 60.069339 
L 610.941315 56.589186 
L 611.306785 61.668329 
L 611.672256 57.247593 
L 612.037726 59.50499 
L 612.403196 56.118895 
L 612.768666 59.410932 
L 613.134137 59.50499 
L 613.499607 59.034699 
L 613.865077 58.188175 
L 614.230548 58.094117 
L 614.596018 63.549493 
L 614.961488 56.024836 
L 615.326958 58.752524 
L 615.692429 58.846583 
L 616.057899 57.529768 
L 616.423369 56.965419 
L 616.788839 56.683244 
L 617.15431 61.10398 
L 617.51978 57.906001 
L 617.88525 58.47035 
L 618.25072 61.009921 
L 618.616191 57.153535 
L 618.981661 59.128757 
L 619.347131 59.222816 
L 619.712602 59.975281 
L 620.078072 59.316874 
L 620.443542 56.965419 
L 620.809012 59.881223 
L 621.174483 58.752524 
L 621.539953 60.257456 
L 622.270893 56.965419 
L 622.636364 59.975281 
L 622.636364 59.975281 
" style="fill:none;stroke:#1f77b4;stroke-linecap:square;stroke-width:0.5;"/>
   </g>
   <g id="line2d_32">
    <path clip-path="url(#p00fe1c894a)" d="M 115.363636 300.76429 
L 115.729107 298.600952 
L 116.460047 296.155438 
L 116.825517 295.591089 
L 117.190988 293.051517 
L 117.556458 298.130661 
L 117.921928 298.412835 
L 118.287398 298.977184 
L 118.652869 295.685147 
L 119.018339 298.977184 
L 119.383809 299.447476 
L 119.74928 300.105883 
L 120.11475 302.645455 
L 120.48022 294.462391 
L 120.84569 298.789068 
L 121.211161 296.813846 
L 121.576631 297.09602 
L 121.942101 297.566311 
L 122.673042 299.165301 
L 123.038512 298.318777 
L 123.403982 296.249496 
L 123.769452 301.234581 
L 124.500393 294.744565 
L 124.865863 295.873264 
L 125.231334 292.769343 
L 125.596804 295.02674 
L 125.962274 294.650507 
L 126.327744 301.234581 
L 127.058685 291.734703 
L 127.424155 295.402973 
L 127.789625 295.779205 
L 128.155096 291.828761 
L 128.520566 291.170353 
L 128.886036 291.640644 
L 129.251506 289.477306 
L 129.616977 290.323829 
L 129.982447 292.204994 
L 130.347917 291.640644 
L 131.078858 285.903094 
L 131.444328 280.541776 
L 132.175269 275.462633 
L 132.540739 277.155681 
L 132.906209 273.957701 
L 133.271679 269.348849 
L 133.63715 262.858833 
L 134.00262 263.329124 
L 134.36809 251.007499 
L 135.099031 246.304589 
L 136.560912 218.275243 
L 136.926382 215.923788 
L 137.291852 207.740724 
L 137.657323 209.151597 
L 138.022793 203.978396 
L 138.388263 196.453739 
L 138.753733 196.359681 
L 139.119204 191.280538 
L 139.484674 189.305315 
L 140.215614 181.028193 
L 140.581085 182.721241 
L 140.946555 171.998605 
L 141.312025 169.64715 
L 141.677495 168.330335 
L 142.042966 168.424394 
L 142.408436 161.181912 
L 142.773906 162.122494 
L 143.139376 159.206689 
L 143.504847 159.206689 
L 143.870317 153.092906 
L 144.235787 152.904789 
L 144.601258 151.117683 
L 144.966728 145.756366 
L 145.332198 149.518694 
L 145.697668 147.825646 
L 146.428609 142.652445 
L 146.794079 138.325767 
L 147.159549 141.429688 
L 147.52502 141.33563 
L 147.89049 140.489106 
L 148.25596 131.459518 
L 148.62143 131.647635 
L 148.986901 135.127788 
L 149.352371 130.895169 
L 149.717841 134.281264 
L 150.083312 133.058508 
L 150.448782 127.320957 
L 150.814252 129.014005 
L 151.545193 124.781386 
L 151.910663 125.533851 
L 152.276133 126.004142 
L 152.641603 125.721968 
L 153.007074 123.464571 
L 153.372544 125.721968 
L 153.738014 122.42993 
L 154.103484 122.42993 
L 154.834425 123.370513 
L 155.199895 119.984417 
L 155.565365 122.053698 
L 155.930836 122.335872 
L 156.296306 119.514126 
L 156.661776 114.529041 
L 157.027247 117.915137 
L 157.392717 114.529041 
L 157.758187 115.469623 
L 158.489128 110.578596 
L 158.854598 114.811216 
L 159.220068 113.682517 
L 159.585538 113.682517 
L 159.951009 114.246866 
L 160.316479 108.415258 
L 160.681949 105.781628 
L 161.047419 114.340925 
L 161.41289 112.459761 
L 162.14383 110.108305 
L 162.5093 107.850908 
L 162.874771 108.979607 
L 163.240241 108.509316 
L 163.605711 106.251919 
L 164.336652 106.157861 
L 164.702122 105.593511 
L 165.067592 103.900464 
L 165.433063 105.311337 
L 165.798533 102.583649 
L 166.164003 104.558871 
L 166.529473 100.890601 
L 166.894944 102.771765 
L 167.260414 107.850908 
L 167.625884 100.42031 
L 168.356825 98.633204 
L 168.722295 99.761903 
L 169.087765 97.316389 
L 169.453236 97.974797 
L 169.818706 95.7174 
L 170.549646 97.692622 
L 170.915117 93.554061 
L 171.280587 95.435225 
L 171.646057 93.742177 
L 172.011527 99.197553 
L 172.376998 94.776818 
L 172.742468 93.271886 
L 173.107938 95.529283 
L 173.473408 95.15305 
L 173.838879 95.905516 
L 174.204349 90.544198 
L 174.569819 93.742177 
L 174.935289 91.955071 
L 175.30076 91.390722 
L 175.66623 91.672897 
L 176.0317 96.563924 
L 176.397171 91.955071 
L 176.762641 89.979849 
L 177.128111 92.425362 
L 177.493581 91.955071 
L 177.859052 92.707537 
L 178.224522 90.732315 
L 178.589992 90.356082 
L 178.955462 93.365945 
L 179.320933 91.48478 
L 179.686403 87.81651 
L 180.051873 88.004627 
L 180.417343 88.004627 
L 180.782814 89.697674 
L 181.148284 89.791733 
L 181.513754 89.227383 
L 181.879225 87.440278 
L 182.244695 88.004627 
L 182.610165 92.519421 
L 182.975635 86.78187 
L 183.341106 91.48478 
L 183.706576 88.38086 
L 184.072046 88.945209 
L 184.437516 86.311579 
L 184.802987 84.900706 
L 185.168457 86.217521 
L 185.533927 83.866066 
L 185.899397 85.841288 
L 186.264868 85.653172 
L 186.630338 86.311579 
L 186.995808 85.276939 
L 187.361278 85.841288 
L 187.726749 87.440278 
L 188.092219 85.465055 
L 188.457689 85.276939 
L 188.82316 83.395775 
L 189.18863 86.029404 
L 189.5541 85.182881 
L 189.91957 81.514611 
L 190.650511 83.677949 
L 191.015981 80.47997 
L 191.381451 84.054182 
L 191.746922 84.618531 
L 192.112392 82.455193 
L 192.477862 82.549251 
L 192.843332 84.994764 
L 193.574273 79.727505 
L 193.939743 82.455193 
L 194.305214 79.539388 
L 194.670684 80.009679 
L 195.036154 82.925484 
L 195.401624 79.44533 
L 195.767095 81.890843 
L 196.132565 80.47997 
L 196.498035 83.019542 
L 196.863505 82.549251 
L 197.228976 83.301716 
L 197.594446 81.326494 
L 197.959916 76.435467 
L 198.690857 80.950261 
L 199.056327 79.821563 
L 199.421797 80.103737 
L 199.787267 79.539388 
L 200.152738 80.103737 
L 200.518208 81.984902 
L 200.883678 79.915621 
L 201.249149 81.044319 
L 201.614619 80.385912 
L 201.980089 81.138378 
L 202.345559 81.138378 
L 202.71103 82.455193 
L 203.0765 83.207658 
L 203.44197 79.44533 
L 203.80744 80.574028 
L 204.172911 76.435467 
L 204.538381 79.44533 
L 204.903851 77.187933 
L 205.269321 76.717642 
L 205.634792 78.128515 
L 206.000262 78.504748 
L 206.365732 76.059235 
L 206.731203 76.435467 
L 207.096673 76.529526 
L 207.462143 75.212711 
L 207.827613 77.470108 
L 208.193084 75.683002 
L 208.558554 78.034457 
L 208.924024 77.658224 
L 209.289494 78.222573 
L 209.654965 77.752282 
L 210.020435 78.880981 
L 210.385905 81.796785 
L 210.751375 77.658224 
L 211.116846 75.683002 
L 211.482316 76.341409 
L 211.847786 76.623584 
L 212.213256 75.871118 
L 212.578727 74.74242 
L 212.944197 77.093875 
L 213.309667 78.128515 
L 213.675138 78.316631 
L 214.040608 79.257214 
L 214.406078 74.836478 
L 214.771548 77.470108 
L 215.137019 76.341409 
L 215.502489 75.683002 
L 215.867959 75.871118 
L 216.233429 76.529526 
L 216.96437 74.366187 
L 217.32984 74.554303 
L 217.69531 75.306769 
L 218.060781 75.118652 
L 218.426251 74.272129 
L 218.791721 74.084012 
L 219.157192 75.024594 
L 219.522662 75.306769 
L 219.888132 77.940399 
L 220.253602 75.306769 
L 220.619073 75.024594 
L 220.984543 75.494885 
L 221.350013 73.519663 
L 222.080954 75.494885 
L 222.446424 74.648361 
L 222.811894 77.093875 
L 223.177364 74.74242 
L 223.542835 75.024594 
L 223.908305 75.77706 
L 224.639245 73.331547 
L 225.004716 73.707779 
L 225.370186 73.895896 
L 225.735656 71.544441 
L 226.101127 75.77706 
L 226.466597 72.767197 
L 226.832067 74.272129 
L 227.197537 73.14343 
L 227.563008 72.861255 
L 227.928478 75.024594 
L 228.293948 75.77706 
L 228.659418 72.861255 
L 229.390359 73.14343 
L 229.755829 72.579081 
L 230.48677 74.554303 
L 230.85224 73.14343 
L 231.21771 72.673139 
L 231.583181 72.390964 
L 231.948651 72.485023 
L 232.314121 70.886033 
L 232.679591 74.648361 
L 233.045062 72.014732 
L 233.410532 72.861255 
L 233.776002 77.281991 
L 234.141472 71.732557 
L 234.506943 71.732557 
L 234.872413 73.989954 
L 235.237883 74.17807 
L 235.603353 75.588943 
L 235.968824 71.732557 
L 236.334294 72.296906 
L 236.699764 71.262266 
L 237.065234 74.084012 
L 237.430705 75.494885 
L 237.796175 72.861255 
L 238.161645 73.707779 
L 238.527116 70.133567 
L 238.892586 73.14343 
L 239.258056 73.237488 
L 239.623526 71.920673 
L 239.988997 69.47516 
L 240.354467 72.767197 
L 240.719937 72.485023 
L 241.085407 70.415742 
L 241.450878 70.886033 
L 241.816348 74.17807 
L 242.181818 72.296906 
L 242.547288 72.10879 
L 242.912759 71.356324 
L 243.278229 71.450382 
L 243.643699 70.415742 
L 244.00917 72.10879 
L 244.37464 72.10879 
L 244.74011 71.262266 
L 245.10558 69.569218 
L 245.471051 69.381102 
L 245.836521 71.638499 
L 246.201991 74.836478 
L 246.567461 71.920673 
L 246.932932 71.262266 
L 247.298402 71.732557 
L 247.663872 73.425605 
L 248.029342 70.039509 
L 248.394813 68.346462 
L 248.760283 72.10879 
L 249.125753 73.049372 
L 249.856694 70.603859 
L 250.222164 70.5098 
L 250.587634 69.663276 
L 250.953105 69.663276 
L 251.318575 71.638499 
L 251.684045 72.10879 
L 252.049515 71.638499 
L 252.414986 70.133567 
L 252.780456 70.227626 
L 253.145926 69.945451 
L 253.511396 72.861255 
L 253.876867 67.311821 
L 254.242337 69.381102 
L 254.607807 72.10879 
L 254.973277 67.499938 
L 255.338748 70.039509 
L 255.704218 69.757335 
L 256.069688 70.415742 
L 256.435159 70.227626 
L 256.800629 71.920673 
L 257.166099 71.262266 
L 257.531569 70.133567 
L 257.89704 69.381102 
L 258.26251 71.168208 
L 258.62798 71.262266 
L 258.99345 71.920673 
L 259.358921 70.791975 
L 259.724391 72.861255 
L 260.089861 70.980091 
L 260.455331 74.648361 
L 260.820802 72.390964 
L 261.186272 69.192985 
L 261.551742 72.955314 
L 261.917212 72.485023 
L 262.282683 72.767197 
L 262.648153 70.133567 
L 263.013623 71.450382 
L 263.379094 71.732557 
L 263.744564 73.519663 
L 264.110034 71.07415 
L 264.475504 71.732557 
L 264.840975 67.123705 
L 265.206445 69.381102 
L 265.571915 69.004869 
L 265.937385 70.603859 
L 266.302856 68.722694 
L 267.033796 70.603859 
L 267.399266 69.569218 
L 267.764737 69.851393 
L 268.130207 69.004869 
L 268.495677 69.569218 
L 268.861147 70.5098 
L 269.226618 70.791975 
L 269.592088 71.262266 
L 269.957558 69.945451 
L 270.323029 70.415742 
L 270.688499 72.390964 
L 271.053969 72.579081 
L 271.419439 71.638499 
L 271.78491 70.133567 
L 272.15038 71.826615 
L 272.51585 69.192985 
L 272.88132 71.07415 
L 273.246791 68.44052 
L 273.612261 69.004869 
L 273.977731 71.920673 
L 274.343201 71.544441 
L 274.708672 69.757335 
L 275.074142 71.544441 
L 275.439612 68.44052 
L 276.170553 69.945451 
L 276.536023 72.202848 
L 276.901493 71.826615 
L 277.266964 69.663276 
L 277.632434 65.618774 
L 277.997904 68.252403 
L 278.363374 68.252403 
L 278.728845 70.321684 
L 279.094315 69.192985 
L 279.459785 68.816753 
L 279.825255 68.816753 
L 280.190726 71.262266 
L 280.556196 72.10879 
L 280.921666 68.346462 
L 281.287136 70.227626 
L 281.652607 69.569218 
L 282.018077 69.287044 
L 282.383547 68.064287 
L 282.749018 70.980091 
L 283.114488 69.945451 
L 283.479958 67.217763 
L 283.845428 71.826615 
L 284.210899 71.544441 
L 284.576369 70.697917 
L 284.941839 69.004869 
L 285.307309 70.133567 
L 285.67278 68.158345 
L 286.03825 70.886033 
L 286.40372 70.697917 
L 286.76919 71.920673 
L 287.500131 68.722694 
L 287.865601 66.277181 
L 288.231072 69.192985 
L 288.596542 69.47516 
L 288.962012 70.697917 
L 289.327482 67.499938 
L 289.692953 68.064287 
L 290.058423 66.559356 
L 290.423893 69.381102 
L 290.789363 69.757335 
L 291.154834 68.44052 
L 291.520304 69.945451 
L 291.885774 70.886033 
L 292.251244 68.628636 
L 292.616715 69.851393 
L 293.347655 67.688054 
L 293.713125 70.5098 
L 294.078596 70.5098 
L 294.444066 71.356324 
L 294.809536 67.311821 
L 295.540477 67.593996 
L 295.905947 68.252403 
L 296.271417 70.791975 
L 296.636888 67.688054 
L 297.002358 69.569218 
L 297.367828 66.183123 
L 297.733298 70.133567 
L 298.098769 69.004869 
L 298.464239 68.44052 
L 298.829709 67.029647 
L 299.195179 71.07415 
L 299.92612 66.653414 
L 300.29159 66.653414 
L 300.657061 66.371239 
L 301.022531 68.534578 
L 301.388001 69.945451 
L 301.753471 67.123705 
L 302.118942 67.499938 
L 302.484412 67.688054 
L 302.849882 73.049372 
L 303.580823 70.039509 
L 303.946293 66.465297 
L 304.311763 69.47516 
L 304.677233 74.554303 
L 305.408174 68.722694 
L 305.773644 70.886033 
L 306.139114 71.920673 
L 306.504585 68.816753 
L 306.870055 67.123705 
L 307.235525 67.688054 
L 307.600996 65.712832 
L 307.966466 68.44052 
L 308.331936 68.816753 
L 308.697406 68.534578 
L 309.062877 68.722694 
L 309.428347 67.217763 
L 309.793817 70.697917 
L 310.159287 68.158345 
L 310.524758 69.569218 
L 310.890228 68.816753 
L 311.255698 67.688054 
L 311.621168 68.064287 
L 311.986639 68.910811 
L 312.352109 68.252403 
L 312.717579 69.47516 
L 313.08305 68.534578 
L 313.44852 66.277181 
L 313.81399 65.148483 
L 314.17946 68.158345 
L 314.544931 68.064287 
L 314.910401 66.277181 
L 315.275871 70.603859 
L 315.641341 64.77225 
L 316.006812 69.192985 
L 316.372282 65.524715 
L 316.737752 67.593996 
L 317.103222 66.089065 
L 317.468693 67.876171 
L 317.834163 66.935588 
L 318.199633 68.910811 
L 318.565103 67.123705 
L 318.930574 68.346462 
L 319.296044 66.653414 
L 319.661514 63.079202 
L 320.392455 71.544441 
L 320.757925 68.722694 
L 321.123395 68.158345 
L 321.488866 69.569218 
L 322.219806 65.336599 
L 322.585276 68.722694 
L 322.950747 68.252403 
L 323.316217 69.569218 
L 323.681687 67.782112 
L 324.047157 68.346462 
L 324.412628 68.44052 
L 324.778098 67.688054 
L 325.143568 72.390964 
L 325.509039 66.183123 
L 325.874509 71.544441 
L 326.239979 67.782112 
L 326.605449 67.029647 
L 326.97092 67.782112 
L 327.33639 68.158345 
L 327.70186 67.593996 
L 328.06733 66.653414 
L 328.432801 66.653414 
L 328.798271 69.945451 
L 329.163741 68.252403 
L 329.529211 65.524715 
L 329.894682 65.242541 
L 330.260152 67.593996 
L 330.991092 67.876171 
L 331.356563 67.217763 
L 331.722033 64.77225 
L 332.087503 67.688054 
L 332.452974 68.722694 
L 332.818444 66.935588 
L 333.183914 66.84153 
L 333.549384 67.876171 
L 333.914855 66.277181 
L 334.280325 66.183123 
L 334.645795 66.465297 
L 335.011265 66.559356 
L 335.376736 66.089065 
L 336.107676 68.722694 
L 336.838617 62.608911 
L 337.204087 67.876171 
L 337.569557 66.747472 
L 337.935028 68.534578 
L 338.300498 66.277181 
L 338.665968 68.534578 
L 339.031438 66.559356 
L 339.396909 67.593996 
L 339.762379 67.688054 
L 340.127849 67.593996 
L 340.85879 66.747472 
L 341.22426 67.029647 
L 341.58973 65.900948 
L 342.320671 67.311821 
L 342.686141 67.593996 
L 343.051611 63.549493 
L 343.417081 68.722694 
L 343.782552 70.321684 
L 344.148022 64.396017 
L 344.513492 69.569218 
L 344.878963 68.44052 
L 345.244433 69.098927 
L 345.609903 68.252403 
L 345.975373 66.559356 
L 346.340844 66.653414 
L 346.706314 65.524715 
L 347.071784 67.029647 
L 347.437254 66.935588 
L 347.802725 67.970229 
L 348.168195 67.123705 
L 348.533665 67.029647 
L 348.899135 64.678192 
L 349.264606 67.876171 
L 349.630076 65.336599 
L 349.995546 67.499938 
L 350.361017 67.40588 
L 350.726487 66.935588 
L 351.091957 65.712832 
L 351.457427 67.593996 
L 351.822898 67.593996 
L 352.188368 70.133567 
L 352.553838 67.029647 
L 352.919308 67.499938 
L 353.284779 66.935588 
L 353.650249 65.148483 
L 354.015719 68.534578 
L 354.74666 65.618774 
L 355.4776 69.381102 
L 355.84307 67.217763 
L 356.574011 65.430657 
L 356.939481 69.004869 
L 357.304952 64.678192 
L 357.670422 66.465297 
L 358.035892 71.07415 
L 358.401362 67.782112 
L 358.766833 66.935588 
L 359.132303 64.113842 
L 359.497773 63.267318 
L 359.863243 67.029647 
L 360.228714 67.970229 
L 360.594184 66.089065 
L 360.959654 67.217763 
L 361.325124 65.900948 
L 361.690595 65.524715 
L 362.056065 65.430657 
L 362.787006 67.688054 
L 363.152476 67.688054 
L 363.517946 67.123705 
L 363.883416 66.183123 
L 364.248887 65.712832 
L 364.614357 65.430657 
L 364.979827 69.287044 
L 365.345297 69.663276 
L 365.710768 67.029647 
L 366.076238 65.995006 
L 366.441708 66.653414 
L 366.807178 68.158345 
L 367.172649 65.336599 
L 367.538119 64.301959 
L 367.903589 67.311821 
L 368.269059 64.77225 
L 368.63453 66.277181 
L 369 64.960366 
L 369.730941 64.301959 
L 370.096411 65.712832 
L 370.461881 65.900948 
L 370.827351 64.301959 
L 371.192822 64.2079 
L 371.558292 68.064287 
L 371.923762 65.336599 
L 372.289232 68.064287 
L 372.654703 67.217763 
L 373.020173 65.430657 
L 373.385643 66.653414 
L 373.751113 63.737609 
L 374.482054 68.158345 
L 374.847524 68.722694 
L 375.212994 66.183123 
L 375.578465 66.183123 
L 375.943935 65.618774 
L 376.309405 65.430657 
L 376.674876 68.346462 
L 377.040346 64.866308 
L 377.405816 64.77225 
L 377.771286 62.985144 
L 378.136757 66.84153 
L 378.502227 66.277181 
L 378.867697 67.029647 
L 379.233167 65.618774 
L 379.598638 63.737609 
L 379.964108 64.866308 
L 380.329578 66.747472 
L 380.695048 65.148483 
L 381.060519 65.712832 
L 381.425989 67.593996 
L 381.791459 66.371239 
L 382.15693 66.653414 
L 382.5224 66.371239 
L 382.88787 67.029647 
L 383.618811 66.089065 
L 383.984281 67.123705 
L 384.349751 67.593996 
L 384.715221 64.584133 
L 385.080692 67.40588 
L 385.446162 66.559356 
L 385.811632 66.935588 
L 386.177102 65.995006 
L 386.542573 67.593996 
L 386.908043 66.935588 
L 387.273513 63.549493 
L 387.638983 67.123705 
L 388.004454 66.465297 
L 388.369924 68.44052 
L 388.735394 63.17326 
L 389.100865 67.311821 
L 389.466335 65.242541 
L 389.831805 65.336599 
L 390.197275 67.499938 
L 390.562746 64.77225 
L 390.928216 66.653414 
L 391.293686 65.995006 
L 391.659156 67.40588 
L 392.024627 64.584133 
L 392.390097 67.40588 
L 392.755567 65.712832 
L 393.121037 65.995006 
L 393.486508 63.361377 
L 393.851978 67.593996 
L 394.217448 69.192985 
L 394.582919 67.593996 
L 394.948389 64.396017 
L 395.313859 65.054424 
L 395.679329 65.995006 
L 396.0448 68.158345 
L 396.41027 67.782112 
L 396.77574 62.514853 
L 397.14121 64.490075 
L 397.506681 65.054424 
L 397.872151 67.311821 
L 398.237621 62.326736 
L 398.603091 66.653414 
L 398.968562 65.430657 
L 399.334032 67.688054 
L 399.699502 64.584133 
L 400.064972 65.80689 
L 400.430443 67.688054 
L 400.795913 66.84153 
L 401.526854 65.900948 
L 401.892324 66.84153 
L 402.257794 65.242541 
L 402.623264 66.465297 
L 402.988735 64.866308 
L 403.354205 67.029647 
L 403.719675 67.970229 
L 404.085145 65.430657 
L 404.450616 64.113842 
L 404.816086 65.80689 
L 405.181556 66.559356 
L 405.547026 63.643551 
L 405.912497 63.737609 
L 406.643437 67.123705 
L 407.008908 66.84153 
L 407.374378 63.737609 
L 407.739848 63.455435 
L 408.105318 66.089065 
L 408.470789 66.277181 
L 408.836259 64.490075 
L 409.201729 65.618774 
L 409.567199 63.925726 
L 409.93267 63.267318 
L 410.29814 63.737609 
L 410.66361 66.84153 
L 411.02908 65.054424 
L 411.394551 62.608911 
L 411.760021 65.242541 
L 412.125491 65.900948 
L 412.490961 67.123705 
L 412.856432 61.292096 
L 413.221902 65.336599 
L 413.587372 63.455435 
L 413.952843 64.866308 
L 414.318313 67.970229 
L 414.683783 67.499938 
L 415.414724 62.702969 
L 415.780194 63.737609 
L 416.145664 67.123705 
L 416.876605 61.950504 
L 417.242075 65.618774 
L 417.607545 67.688054 
L 417.973015 67.876171 
L 418.338486 63.361377 
L 418.703956 64.396017 
L 419.069426 64.396017 
L 419.434897 66.465297 
L 420.165837 65.712832 
L 420.531307 64.490075 
L 420.896778 66.747472 
L 421.262248 63.737609 
L 421.627718 65.054424 
L 421.993188 65.80689 
L 422.724129 64.490075 
L 423.089599 67.217763 
L 423.455069 64.960366 
L 423.82054 66.747472 
L 424.18601 66.371239 
L 424.55148 65.712832 
L 424.91695 65.712832 
L 425.282421 64.019784 
L 425.647891 66.183123 
L 426.013361 65.900948 
L 426.378832 66.089065 
L 426.744302 63.549493 
L 427.109772 66.371239 
L 427.475242 67.123705 
L 428.206183 64.019784 
L 428.571653 65.80689 
L 428.937123 65.900948 
L 429.302594 62.326736 
L 429.668064 66.277181 
L 430.033534 66.935588 
L 430.399004 65.054424 
L 430.764475 65.054424 
L 431.129945 64.301959 
L 431.495415 65.900948 
L 431.860886 65.80689 
L 432.226356 63.549493 
L 432.591826 65.900948 
L 432.957296 65.618774 
L 433.688237 62.608911 
L 434.053707 64.584133 
L 434.419177 62.608911 
L 434.784648 65.900948 
L 435.150118 67.782112 
L 436.246529 64.2079 
L 436.611999 64.77225 
L 436.977469 68.064287 
L 437.342939 67.123705 
L 437.70841 66.747472 
L 438.07388 68.064287 
L 438.43935 67.123705 
L 438.804821 63.925726 
L 439.535761 65.336599 
L 439.901231 63.361377 
L 440.266702 63.17326 
L 440.632172 66.277181 
L 440.997642 63.925726 
L 441.363112 62.608911 
L 441.728583 64.77225 
L 442.094053 63.361377 
L 442.459523 65.618774 
L 442.824993 63.925726 
L 443.190464 60.821805 
L 443.555934 66.84153 
L 443.921404 66.465297 
L 444.286875 65.618774 
L 444.652345 65.430657 
L 445.017815 63.925726 
L 445.748756 66.277181 
L 446.114226 64.866308 
L 446.479696 65.80689 
L 446.845166 61.668329 
L 447.210637 61.668329 
L 447.576107 66.183123 
L 447.941577 62.514853 
L 448.307047 65.712832 
L 448.672518 65.054424 
L 449.037988 66.653414 
L 449.403458 67.688054 
L 449.768928 64.584133 
L 450.134399 65.242541 
L 450.499869 63.079202 
L 450.865339 63.361377 
L 451.23081 62.608911 
L 451.59628 63.267318 
L 451.96175 66.653414 
L 452.32722 64.396017 
L 452.692691 64.301959 
L 453.058161 64.396017 
L 453.423631 63.361377 
L 453.789101 67.970229 
L 454.154572 67.499938 
L 454.520042 64.678192 
L 454.885512 65.995006 
L 455.616453 63.549493 
L 455.981923 68.628636 
L 456.347393 65.148483 
L 456.712864 65.80689 
L 457.078334 64.678192 
L 457.443804 64.490075 
L 457.809274 63.925726 
L 458.540215 65.712832 
L 459.271155 64.019784 
L 459.636626 65.242541 
L 460.002096 65.618774 
L 460.367566 66.559356 
L 460.733036 63.267318 
L 461.098507 63.925726 
L 461.463977 65.336599 
L 461.829447 68.252403 
L 462.194917 63.361377 
L 462.560388 64.2079 
L 462.925858 62.985144 
L 463.291328 62.702969 
L 463.656799 63.079202 
L 464.022269 65.618774 
L 464.387739 64.019784 
L 464.753209 67.40588 
L 465.11868 64.396017 
L 465.84962 64.584133 
L 466.21509 62.702969 
L 466.580561 64.960366 
L 466.946031 65.054424 
L 467.311501 62.608911 
L 467.676971 64.301959 
L 468.042442 62.326736 
L 468.773382 64.396017 
L 469.138853 62.985144 
L 469.504323 64.678192 
L 469.869793 65.054424 
L 470.235263 66.84153 
L 470.600734 64.584133 
L 470.966204 64.960366 
L 471.331674 63.831668 
L 471.697144 64.019784 
L 472.062615 63.079202 
L 472.428085 65.148483 
L 473.159025 61.198038 
L 473.889966 64.77225 
L 474.255436 63.737609 
L 474.620906 64.678192 
L 474.986377 61.292096 
L 475.351847 64.584133 
L 476.082788 63.267318 
L 476.448258 61.856445 
L 476.813728 64.2079 
L 477.179198 62.608911 
L 477.544669 64.960366 
L 477.910139 65.054424 
L 478.275609 67.311821 
L 478.641079 63.267318 
L 479.00655 63.549493 
L 479.37202 65.995006 
L 479.73749 64.960366 
L 480.10296 65.054424 
L 480.468431 66.371239 
L 480.833901 64.490075 
L 481.199371 64.490075 
L 481.564841 66.277181 
L 481.930312 62.608911 
L 482.295782 63.643551 
L 482.661252 61.762387 
L 483.026723 64.396017 
L 483.757663 64.960366 
L 484.123133 63.831668 
L 484.488604 65.712832 
L 484.854074 62.13862 
L 485.219544 64.866308 
L 485.585014 63.831668 
L 485.950485 65.430657 
L 486.315955 65.995006 
L 487.046895 63.549493 
L 487.412366 67.123705 
L 487.777836 67.123705 
L 488.143306 63.549493 
L 488.508777 66.277181 
L 488.874247 64.866308 
L 489.239717 65.524715 
L 489.605187 62.232678 
L 489.970658 65.995006 
L 490.336128 64.490075 
L 490.701598 64.2079 
L 491.067068 64.678192 
L 491.432539 62.797027 
L 491.798009 65.712832 
L 492.163479 64.301959 
L 492.528949 61.198038 
L 492.89442 64.960366 
L 493.25989 63.643551 
L 493.62536 63.549493 
L 493.99083 61.668329 
L 494.356301 63.831668 
L 494.721771 63.549493 
L 495.087241 63.549493 
L 495.452712 66.183123 
L 495.818182 62.232678 
L 496.183652 65.336599 
L 496.549122 61.009921 
L 496.914593 63.267318 
L 497.645533 65.618774 
L 498.011003 62.891086 
L 498.376474 64.113842 
L 498.741944 64.019784 
L 499.107414 64.2079 
L 499.472884 64.113842 
L 499.838355 62.232678 
L 500.203825 63.267318 
L 500.569295 60.727747 
L 500.934766 62.420795 
L 501.300236 62.326736 
L 501.665706 62.797027 
L 502.031176 62.514853 
L 502.396647 65.995006 
L 502.762117 62.326736 
L 503.127587 65.995006 
L 503.493057 64.019784 
L 503.858528 63.361377 
L 504.223998 65.524715 
L 504.589468 64.960366 
L 504.954938 65.900948 
L 505.320409 62.420795 
L 505.685879 67.029647 
L 506.051349 63.643551 
L 506.416819 63.831668 
L 506.78229 62.13862 
L 507.14776 64.866308 
L 507.51323 65.148483 
L 507.878701 63.643551 
L 508.244171 63.549493 
L 508.609641 65.430657 
L 508.975111 65.054424 
L 509.340582 64.301959 
L 509.706052 63.17326 
L 510.071522 63.361377 
L 510.436992 64.584133 
L 510.802463 62.420795 
L 511.167933 62.985144 
L 511.533403 65.900948 
L 511.898873 64.396017 
L 512.264344 63.737609 
L 512.629814 65.900948 
L 512.995284 62.702969 
L 513.360755 67.40588 
L 513.726225 62.420795 
L 514.457165 66.559356 
L 514.822636 66.935588 
L 515.188106 63.455435 
L 515.553576 65.524715 
L 515.919046 64.960366 
L 516.284517 65.524715 
L 516.649987 65.148483 
L 517.015457 64.960366 
L 517.380927 61.668329 
L 517.746398 63.925726 
L 518.111868 63.17326 
L 518.477338 63.17326 
L 518.842808 64.301959 
L 519.208279 63.831668 
L 519.573749 64.584133 
L 519.939219 63.455435 
L 520.30469 66.747472 
L 520.67016 63.361377 
L 521.03563 66.465297 
L 521.4011 64.490075 
L 521.766571 63.267318 
L 522.132041 63.17326 
L 522.497511 65.712832 
L 522.862981 64.113842 
L 523.228452 63.831668 
L 523.593922 64.77225 
L 523.959392 62.044562 
L 524.324862 62.891086 
L 524.690333 63.17326 
L 525.055803 63.737609 
L 525.421273 63.079202 
L 525.786744 64.584133 
L 526.152214 63.267318 
L 526.517684 62.420795 
L 526.883154 63.17326 
L 527.248625 66.183123 
L 527.614095 64.113842 
L 527.979565 62.797027 
L 528.345035 63.455435 
L 528.710506 63.549493 
L 529.075976 64.2079 
L 529.441446 65.430657 
L 529.806916 65.995006 
L 530.537857 62.702969 
L 530.903327 64.301959 
L 531.268797 59.693107 
L 531.999738 66.935588 
L 532.365208 62.13862 
L 532.730679 62.232678 
L 533.096149 62.797027 
L 533.461619 64.019784 
L 533.827089 62.514853 
L 534.19256 65.524715 
L 534.55803 64.77225 
L 534.9235 64.678192 
L 535.28897 63.079202 
L 535.654441 65.900948 
L 536.019911 62.891086 
L 536.385381 62.232678 
L 536.750851 61.950504 
L 537.116322 62.232678 
L 537.481792 61.480212 
L 537.847262 62.420795 
L 538.578203 65.80689 
L 538.943673 63.361377 
L 539.309143 65.524715 
L 539.674614 68.534578 
L 540.040084 65.900948 
L 540.405554 64.960366 
L 540.771024 63.17326 
L 541.501965 64.019784 
L 541.867435 65.430657 
L 542.598376 63.643551 
L 542.963846 63.925726 
L 543.329316 63.079202 
L 543.694786 63.361377 
L 544.060257 62.514853 
L 544.425727 62.326736 
L 544.791197 61.856445 
L 545.156668 64.301959 
L 545.522138 64.396017 
L 545.887608 62.326736 
L 546.253078 64.301959 
L 546.618549 63.925726 
L 546.984019 63.925726 
L 547.349489 64.2079 
L 547.714959 63.361377 
L 548.08043 64.113842 
L 548.4459 64.301959 
L 548.81137 64.77225 
L 549.17684 65.900948 
L 549.907781 61.198038 
L 550.273251 61.009921 
L 550.638722 65.148483 
L 551.004192 64.396017 
L 551.369662 64.2079 
L 552.100603 64.866308 
L 552.466073 62.232678 
L 552.831543 67.029647 
L 553.197013 62.985144 
L 553.562484 63.831668 
L 553.927954 62.514853 
L 554.293424 64.77225 
L 554.658894 63.549493 
L 555.024365 63.737609 
L 555.389835 60.257456 
L 555.755305 64.113842 
L 556.120775 59.034699 
L 556.486246 65.054424 
L 556.851716 63.17326 
L 557.217186 63.361377 
L 557.582657 64.77225 
L 557.948127 65.618774 
L 558.313597 61.480212 
L 558.679067 65.80689 
L 559.044538 64.301959 
L 559.410008 65.430657 
L 559.775478 63.831668 
L 560.140948 63.361377 
L 560.506419 64.019784 
L 560.871889 64.019784 
L 561.237359 66.183123 
L 561.602829 62.797027 
L 561.9683 65.148483 
L 562.33377 65.242541 
L 562.69924 62.13862 
L 563.064711 62.514853 
L 563.430181 62.608911 
L 563.795651 62.420795 
L 564.161121 66.559356 
L 564.526592 63.925726 
L 564.892062 63.17326 
L 565.257532 61.480212 
L 565.623002 64.678192 
L 565.988473 61.009921 
L 566.353943 66.935588 
L 567.084883 63.455435 
L 567.450354 65.148483 
L 567.815824 62.232678 
L 568.181294 60.821805 
L 568.546764 64.019784 
L 568.912235 63.643551 
L 569.277705 61.950504 
L 569.643175 63.455435 
L 570.008646 65.618774 
L 570.374116 64.77225 
L 570.739586 65.148483 
L 571.105056 61.009921 
L 571.470527 64.584133 
L 572.201467 66.371239 
L 572.566937 62.13862 
L 572.932408 64.77225 
L 573.297878 63.455435 
L 573.663348 64.490075 
L 574.028818 63.925726 
L 574.394289 64.396017 
L 574.759759 66.183123 
L 575.125229 60.445572 
L 575.4907 63.737609 
L 575.85617 65.336599 
L 576.22164 61.762387 
L 576.58711 66.277181 
L 576.952581 65.242541 
L 577.318051 68.064287 
L 577.683521 62.797027 
L 578.048991 62.420795 
L 578.414462 65.242541 
L 578.779932 63.455435 
L 579.145402 64.584133 
L 579.510872 62.985144 
L 579.876343 63.737609 
L 580.607283 63.267318 
L 580.972753 64.019784 
L 581.338224 64.2079 
L 581.703694 63.831668 
L 582.069164 64.019784 
L 582.434635 63.17326 
L 582.800105 63.079202 
L 583.531045 64.77225 
L 583.896516 65.242541 
L 584.261986 62.514853 
L 584.627456 62.326736 
L 584.992926 64.301959 
L 585.358397 62.702969 
L 585.723867 63.831668 
L 586.089337 62.985144 
L 586.454807 64.678192 
L 586.820278 63.737609 
L 587.551218 66.277181 
L 587.916688 65.80689 
L 588.282159 64.301959 
L 588.647629 60.633689 
L 589.013099 64.113842 
L 589.37857 60.163398 
L 589.74404 65.618774 
L 590.10951 63.267318 
L 590.47498 62.891086 
L 590.840451 62.985144 
L 591.205921 62.514853 
L 591.571391 66.089065 
L 591.936861 64.019784 
L 592.302332 63.361377 
L 592.667802 64.866308 
L 593.033272 65.242541 
L 593.398742 62.797027 
L 593.764213 63.17326 
L 594.129683 64.396017 
L 594.860624 62.420795 
L 595.226094 63.549493 
L 595.591564 66.089065 
L 595.957034 62.702969 
L 596.322505 62.514853 
L 596.687975 65.336599 
L 597.053445 63.549493 
L 597.418915 64.584133 
L 597.784386 63.455435 
L 598.149856 63.549493 
L 598.515326 62.232678 
L 598.880796 64.019784 
L 599.246267 62.326736 
L 599.611737 66.183123 
L 599.977207 61.950504 
L 600.342677 60.915863 
L 600.708148 62.608911 
L 601.073618 62.985144 
L 601.439088 64.77225 
L 601.804559 65.430657 
L 602.170029 64.584133 
L 602.535499 62.891086 
L 602.900969 65.524715 
L 603.26644 64.301959 
L 603.63191 65.430657 
L 603.99738 63.549493 
L 604.36285 62.608911 
L 605.093791 67.782112 
L 605.824731 62.608911 
L 606.190202 65.80689 
L 606.555672 62.797027 
L 606.921142 65.336599 
L 607.286613 65.712832 
L 607.652083 63.737609 
L 608.383023 62.326736 
L 608.748494 63.737609 
L 609.113964 61.009921 
L 609.479434 64.584133 
L 609.844904 63.737609 
L 610.210375 63.455435 
L 610.575845 63.737609 
L 610.941315 61.856445 
L 611.306785 62.232678 
L 611.672256 61.856445 
L 612.037726 61.668329 
L 612.403196 64.396017 
L 613.134137 64.113842 
L 613.499607 62.232678 
L 613.865077 62.232678 
L 614.230548 62.985144 
L 614.596018 65.900948 
L 614.961488 62.985144 
L 615.326958 62.702969 
L 615.692429 64.584133 
L 616.057899 65.054424 
L 616.423369 62.514853 
L 616.788839 64.396017 
L 617.15431 60.727747 
L 617.51978 63.549493 
L 618.25072 65.80689 
L 618.616191 61.950504 
L 619.347131 64.490075 
L 620.078072 60.257456 
L 620.443542 64.019784 
L 620.809012 63.549493 
L 621.174483 64.960366 
L 621.539953 64.960366 
L 621.905423 61.668329 
L 622.270893 60.727747 
L 622.636364 62.797027 
L 622.636364 62.797027 
" style="fill:none;stroke:#ff7f0e;stroke-linecap:square;stroke-width:0.5;"/>
   </g>
   <g id="patch_3">
    <path d="M 90 315 
L 90 43.2 
" style="fill:none;stroke:#000000;stroke-linecap:square;stroke-linejoin:miter;stroke-width:0.8;"/>
   </g>
   <g id="patch_4">
    <path d="M 648 315 
L 648 43.2 
" style="fill:none;stroke:#000000;stroke-linecap:square;stroke-linejoin:miter;stroke-width:0.8;"/>
   </g>
   <g id="patch_5">
    <path d="M 90 315 
L 648 315 
" style="fill:none;stroke:#000000;stroke-linecap:square;stroke-linejoin:miter;stroke-width:0.8;"/>
   </g>
   <g id="patch_6">
    <path d="M 90 43.2 
L 648 43.2 
" style="fill:none;stroke:#000000;stroke-linecap:square;stroke-linejoin:miter;stroke-width:0.8;"/>
   </g>
   <g id="text_18">
    <!-- accuracy -->
    <g transform="translate(341.92875 37.2)scale(0.12 -0.12)">
     <use xlink:href="#DejaVuSans-97"/>
     <use x="61.279297" xlink:href="#DejaVuSans-99"/>
     <use x="116.259766" xlink:href="#DejaVuSans-99"/>
     <use x="171.240234" xlink:href="#DejaVuSans-117"/>
     <use x="234.619141" xlink:href="#DejaVuSans-114"/>
     <use x="275.732422" xlink:href="#DejaVuSans-97"/>
     <use x="337.011719" xlink:href="#DejaVuSans-99"/>
     <use x="391.992188" xlink:href="#DejaVuSans-121"/>
    </g>
   </g>
   <g id="legend_1">
    <g id="patch_7">
     <path d="M 97 80.55625 
L 169.153125 80.55625 
Q 171.153125 80.55625 171.153125 78.55625 
L 171.153125 50.2 
Q 171.153125 48.2 169.153125 48.2 
L 97 48.2 
Q 95 48.2 95 50.2 
L 95 78.55625 
Q 95 80.55625 97 80.55625 
z
" style="fill:#ffffff;opacity:0.8;stroke:#cccccc;stroke-linejoin:miter;"/>
    </g>
    <g id="line2d_33">
     <path d="M 99 56.298437 
L 119 56.298437 
" style="fill:none;stroke:#1f77b4;stroke-linecap:square;stroke-width:0.5;"/>
    </g>
    <g id="line2d_34"/>
    <g id="text_19">
     <!-- train -->
     <defs>
      <path d="M 18.3125 70.21875 
L 18.3125 54.6875 
L 36.8125 54.6875 
L 36.8125 47.703125 
L 18.3125 47.703125 
L 18.3125 18.015625 
Q 18.3125 11.328125 20.140625 9.421875 
Q 21.96875 7.515625 27.59375 7.515625 
L 36.8125 7.515625 
L 36.8125 0 
L 27.59375 0 
Q 17.1875 0 13.234375 3.875 
Q 9.28125 7.765625 9.28125 18.015625 
L 9.28125 47.703125 
L 2.6875 47.703125 
L 2.6875 54.6875 
L 9.28125 54.6875 
L 9.28125 70.21875 
z
" id="DejaVuSans-116"/>
      <path d="M 9.421875 54.6875 
L 18.40625 54.6875 
L 18.40625 0 
L 9.421875 0 
z
M 9.421875 75.984375 
L 18.40625 75.984375 
L 18.40625 64.59375 
L 9.421875 64.59375 
z
" id="DejaVuSans-105"/>
      <path d="M 54.890625 33.015625 
L 54.890625 0 
L 45.90625 0 
L 45.90625 32.71875 
Q 45.90625 40.484375 42.875 44.328125 
Q 39.84375 48.1875 33.796875 48.1875 
Q 26.515625 48.1875 22.3125 43.546875 
Q 18.109375 38.921875 18.109375 30.90625 
L 18.109375 0 
L 9.078125 0 
L 9.078125 54.6875 
L 18.109375 54.6875 
L 18.109375 46.1875 
Q 21.34375 51.125 25.703125 53.5625 
Q 30.078125 56 35.796875 56 
Q 45.21875 56 50.046875 50.171875 
Q 54.890625 44.34375 54.890625 33.015625 
z
" id="DejaVuSans-110"/>
     </defs>
     <g transform="translate(127 59.798437)scale(0.1 -0.1)">
      <use xlink:href="#DejaVuSans-116"/>
      <use x="39.208984" xlink:href="#DejaVuSans-114"/>
      <use x="80.322266" xlink:href="#DejaVuSans-97"/>
      <use x="141.601562" xlink:href="#DejaVuSans-105"/>
      <use x="169.384766" xlink:href="#DejaVuSans-110"/>
     </g>
    </g>
    <g id="line2d_35">
     <path d="M 99 70.976562 
L 119 70.976562 
" style="fill:none;stroke:#ff7f0e;stroke-linecap:square;stroke-width:0.5;"/>
    </g>
    <g id="line2d_36"/>
    <g id="text_20">
     <!-- validate -->
     <defs>
      <path d="M 2.984375 54.6875 
L 12.5 54.6875 
L 29.59375 8.796875 
L 46.6875 54.6875 
L 56.203125 54.6875 
L 35.6875 0 
L 23.484375 0 
z
" id="DejaVuSans-118"/>
      <path d="M 9.421875 75.984375 
L 18.40625 75.984375 
L 18.40625 0 
L 9.421875 0 
z
" id="DejaVuSans-108"/>
      <path d="M 45.40625 46.390625 
L 45.40625 75.984375 
L 54.390625 75.984375 
L 54.390625 0 
L 45.40625 0 
L 45.40625 8.203125 
Q 42.578125 3.328125 38.25 0.953125 
Q 33.9375 -1.421875 27.875 -1.421875 
Q 17.96875 -1.421875 11.734375 6.484375 
Q 5.515625 14.40625 5.515625 27.296875 
Q 5.515625 40.1875 11.734375 48.09375 
Q 17.96875 56 27.875 56 
Q 33.9375 56 38.25 53.625 
Q 42.578125 51.265625 45.40625 46.390625 
z
M 14.796875 27.296875 
Q 14.796875 17.390625 18.875 11.75 
Q 22.953125 6.109375 30.078125 6.109375 
Q 37.203125 6.109375 41.296875 11.75 
Q 45.40625 17.390625 45.40625 27.296875 
Q 45.40625 37.203125 41.296875 42.84375 
Q 37.203125 48.484375 30.078125 48.484375 
Q 22.953125 48.484375 18.875 42.84375 
Q 14.796875 37.203125 14.796875 27.296875 
z
" id="DejaVuSans-100"/>
     </defs>
     <g transform="translate(127 74.476562)scale(0.1 -0.1)">
      <use xlink:href="#DejaVuSans-118"/>
      <use x="59.179688" xlink:href="#DejaVuSans-97"/>
      <use x="120.458984" xlink:href="#DejaVuSans-108"/>
      <use x="148.242188" xlink:href="#DejaVuSans-105"/>
      <use x="176.025391" xlink:href="#DejaVuSans-100"/>
      <use x="239.501953" xlink:href="#DejaVuSans-97"/>
      <use x="300.78125" xlink:href="#DejaVuSans-116"/>
      <use x="339.990234" xlink:href="#DejaVuSans-101"/>
     </g>
    </g>
   </g>
  </g>
 </g>
 <defs>
  <clipPath id="p00fe1c894a">
   <rect height="271.8" width="558" x="90" y="43.2"/>
  </clipPath>
 </defs>
</svg>
