<?xml version="1.0" encoding="utf-8" standalone="no"?>
<!DOCTYPE svg PUBLIC "-//W3C//DTD SVG 1.1//EN"
  "http://www.w3.org/Graphics/SVG/1.1/DTD/svg11.dtd">
<!-- Created with matplotlib (https://matplotlib.org/) -->
<svg height="360pt" version="1.1" viewBox="0 0 720 360" width="720pt" xmlns="http://www.w3.org/2000/svg" xmlns:xlink="http://www.w3.org/1999/xlink">
 <defs>
  <style type="text/css">
*{stroke-linecap:butt;stroke-linejoin:round;}
  </style>
 </defs>
 <g id="figure_1">
  <g id="patch_1">
   <path d="M 0 360 
L 720 360 
L 720 0 
L 0 0 
z
" style="fill:#ffffff;"/>
  </g>
  <g id="axes_1">
   <g id="patch_2">
    <path d="M 90 315 
L 648 315 
L 648 43.2 
L 90 43.2 
z
" style="fill:#ffffff;"/>
   </g>
   <g id="matplotlib.axis_1">
    <g id="xtick_1">
     <g id="line2d_1">
      <path clip-path="url(#pf217b0afb8)" d="M 115.363636 315 
L 115.363636 43.2 
" style="fill:none;stroke:#b0b0b0;stroke-linecap:square;stroke-width:0.8;"/>
     </g>
     <g id="line2d_2">
      <defs>
       <path d="M 0 0 
L 0 3.5 
" id="m53903d16c1" style="stroke:#000000;stroke-width:0.8;"/>
      </defs>
      <g>
       <use style="stroke:#000000;stroke-width:0.8;" x="115.363636" xlink:href="#m53903d16c1" y="315"/>
      </g>
     </g>
     <g id="text_1">
      <!-- 0 -->
      <defs>
       <path d="M 31.78125 66.40625 
Q 24.171875 66.40625 20.328125 58.90625 
Q 16.5 51.421875 16.5 36.375 
Q 16.5 21.390625 20.328125 13.890625 
Q 24.171875 6.390625 31.78125 6.390625 
Q 39.453125 6.390625 43.28125 13.890625 
Q 47.125 21.390625 47.125 36.375 
Q 47.125 51.421875 43.28125 58.90625 
Q 39.453125 66.40625 31.78125 66.40625 
z
M 31.78125 74.21875 
Q 44.046875 74.21875 50.515625 64.515625 
Q 56.984375 54.828125 56.984375 36.375 
Q 56.984375 17.96875 50.515625 8.265625 
Q 44.046875 -1.421875 31.78125 -1.421875 
Q 19.53125 -1.421875 13.0625 8.265625 
Q 6.59375 17.96875 6.59375 36.375 
Q 6.59375 54.828125 13.0625 64.515625 
Q 19.53125 74.21875 31.78125 74.21875 
z
" id="DejaVuSans-48"/>
      </defs>
      <g transform="translate(112.182386 329.598437)scale(0.1 -0.1)">
       <use xlink:href="#DejaVuSans-48"/>
      </g>
     </g>
    </g>
    <g id="xtick_2">
     <g id="line2d_3">
      <path clip-path="url(#pf217b0afb8)" d="M 188.457689 315 
L 188.457689 43.2 
" style="fill:none;stroke:#b0b0b0;stroke-linecap:square;stroke-width:0.8;"/>
     </g>
     <g id="line2d_4">
      <g>
       <use style="stroke:#000000;stroke-width:0.8;" x="188.457689" xlink:href="#m53903d16c1" y="315"/>
      </g>
     </g>
     <g id="text_2">
      <!-- 200 -->
      <defs>
       <path d="M 19.1875 8.296875 
L 53.609375 8.296875 
L 53.609375 0 
L 7.328125 0 
L 7.328125 8.296875 
Q 12.9375 14.109375 22.625 23.890625 
Q 32.328125 33.6875 34.8125 36.53125 
Q 39.546875 41.84375 41.421875 45.53125 
Q 43.3125 49.21875 43.3125 52.78125 
Q 43.3125 58.59375 39.234375 62.25 
Q 35.15625 65.921875 28.609375 65.921875 
Q 23.96875 65.921875 18.8125 64.3125 
Q 13.671875 62.703125 7.8125 59.421875 
L 7.8125 69.390625 
Q 13.765625 71.78125 18.9375 73 
Q 24.125 74.21875 28.421875 74.21875 
Q 39.75 74.21875 46.484375 68.546875 
Q 53.21875 62.890625 53.21875 53.421875 
Q 53.21875 48.921875 51.53125 44.890625 
Q 49.859375 40.875 45.40625 35.40625 
Q 44.1875 33.984375 37.640625 27.21875 
Q 31.109375 20.453125 19.1875 8.296875 
z
" id="DejaVuSans-50"/>
      </defs>
      <g transform="translate(178.913939 329.598437)scale(0.1 -0.1)">
       <use xlink:href="#DejaVuSans-50"/>
       <use x="63.623047" xlink:href="#DejaVuSans-48"/>
       <use x="127.246094" xlink:href="#DejaVuSans-48"/>
      </g>
     </g>
    </g>
    <g id="xtick_3">
     <g id="line2d_5">
      <path clip-path="url(#pf217b0afb8)" d="M 261.551742 315 
L 261.551742 43.2 
" style="fill:none;stroke:#b0b0b0;stroke-linecap:square;stroke-width:0.8;"/>
     </g>
     <g id="line2d_6">
      <g>
       <use style="stroke:#000000;stroke-width:0.8;" x="261.551742" xlink:href="#m53903d16c1" y="315"/>
      </g>
     </g>
     <g id="text_3">
      <!-- 400 -->
      <defs>
       <path d="M 37.796875 64.3125 
L 12.890625 25.390625 
L 37.796875 25.390625 
z
M 35.203125 72.90625 
L 47.609375 72.90625 
L 47.609375 25.390625 
L 58.015625 25.390625 
L 58.015625 17.1875 
L 47.609375 17.1875 
L 47.609375 0 
L 37.796875 0 
L 37.796875 17.1875 
L 4.890625 17.1875 
L 4.890625 26.703125 
z
" id="DejaVuSans-52"/>
      </defs>
      <g transform="translate(252.007992 329.598437)scale(0.1 -0.1)">
       <use xlink:href="#DejaVuSans-52"/>
       <use x="63.623047" xlink:href="#DejaVuSans-48"/>
       <use x="127.246094" xlink:href="#DejaVuSans-48"/>
      </g>
     </g>
    </g>
    <g id="xtick_4">
     <g id="line2d_7">
      <path clip-path="url(#pf217b0afb8)" d="M 334.645795 315 
L 334.645795 43.2 
" style="fill:none;stroke:#b0b0b0;stroke-linecap:square;stroke-width:0.8;"/>
     </g>
     <g id="line2d_8">
      <g>
       <use style="stroke:#000000;stroke-width:0.8;" x="334.645795" xlink:href="#m53903d16c1" y="315"/>
      </g>
     </g>
     <g id="text_4">
      <!-- 600 -->
      <defs>
       <path d="M 33.015625 40.375 
Q 26.375 40.375 22.484375 35.828125 
Q 18.609375 31.296875 18.609375 23.390625 
Q 18.609375 15.53125 22.484375 10.953125 
Q 26.375 6.390625 33.015625 6.390625 
Q 39.65625 6.390625 43.53125 10.953125 
Q 47.40625 15.53125 47.40625 23.390625 
Q 47.40625 31.296875 43.53125 35.828125 
Q 39.65625 40.375 33.015625 40.375 
z
M 52.59375 71.296875 
L 52.59375 62.3125 
Q 48.875 64.0625 45.09375 64.984375 
Q 41.3125 65.921875 37.59375 65.921875 
Q 27.828125 65.921875 22.671875 59.328125 
Q 17.53125 52.734375 16.796875 39.40625 
Q 19.671875 43.65625 24.015625 45.921875 
Q 28.375 48.1875 33.59375 48.1875 
Q 44.578125 48.1875 50.953125 41.515625 
Q 57.328125 34.859375 57.328125 23.390625 
Q 57.328125 12.15625 50.6875 5.359375 
Q 44.046875 -1.421875 33.015625 -1.421875 
Q 20.359375 -1.421875 13.671875 8.265625 
Q 6.984375 17.96875 6.984375 36.375 
Q 6.984375 53.65625 15.1875 63.9375 
Q 23.390625 74.21875 37.203125 74.21875 
Q 40.921875 74.21875 44.703125 73.484375 
Q 48.484375 72.75 52.59375 71.296875 
z
" id="DejaVuSans-54"/>
      </defs>
      <g transform="translate(325.102045 329.598437)scale(0.1 -0.1)">
       <use xlink:href="#DejaVuSans-54"/>
       <use x="63.623047" xlink:href="#DejaVuSans-48"/>
       <use x="127.246094" xlink:href="#DejaVuSans-48"/>
      </g>
     </g>
    </g>
    <g id="xtick_5">
     <g id="line2d_9">
      <path clip-path="url(#pf217b0afb8)" d="M 407.739848 315 
L 407.739848 43.2 
" style="fill:none;stroke:#b0b0b0;stroke-linecap:square;stroke-width:0.8;"/>
     </g>
     <g id="line2d_10">
      <g>
       <use style="stroke:#000000;stroke-width:0.8;" x="407.739848" xlink:href="#m53903d16c1" y="315"/>
      </g>
     </g>
     <g id="text_5">
      <!-- 800 -->
      <defs>
       <path d="M 31.78125 34.625 
Q 24.75 34.625 20.71875 30.859375 
Q 16.703125 27.09375 16.703125 20.515625 
Q 16.703125 13.921875 20.71875 10.15625 
Q 24.75 6.390625 31.78125 6.390625 
Q 38.8125 6.390625 42.859375 10.171875 
Q 46.921875 13.96875 46.921875 20.515625 
Q 46.921875 27.09375 42.890625 30.859375 
Q 38.875 34.625 31.78125 34.625 
z
M 21.921875 38.8125 
Q 15.578125 40.375 12.03125 44.71875 
Q 8.5 49.078125 8.5 55.328125 
Q 8.5 64.0625 14.71875 69.140625 
Q 20.953125 74.21875 31.78125 74.21875 
Q 42.671875 74.21875 48.875 69.140625 
Q 55.078125 64.0625 55.078125 55.328125 
Q 55.078125 49.078125 51.53125 44.71875 
Q 48 40.375 41.703125 38.8125 
Q 48.828125 37.15625 52.796875 32.3125 
Q 56.78125 27.484375 56.78125 20.515625 
Q 56.78125 9.90625 50.3125 4.234375 
Q 43.84375 -1.421875 31.78125 -1.421875 
Q 19.734375 -1.421875 13.25 4.234375 
Q 6.78125 9.90625 6.78125 20.515625 
Q 6.78125 27.484375 10.78125 32.3125 
Q 14.796875 37.15625 21.921875 38.8125 
z
M 18.3125 54.390625 
Q 18.3125 48.734375 21.84375 45.5625 
Q 25.390625 42.390625 31.78125 42.390625 
Q 38.140625 42.390625 41.71875 45.5625 
Q 45.3125 48.734375 45.3125 54.390625 
Q 45.3125 60.0625 41.71875 63.234375 
Q 38.140625 66.40625 31.78125 66.40625 
Q 25.390625 66.40625 21.84375 63.234375 
Q 18.3125 60.0625 18.3125 54.390625 
z
" id="DejaVuSans-56"/>
      </defs>
      <g transform="translate(398.196098 329.598437)scale(0.1 -0.1)">
       <use xlink:href="#DejaVuSans-56"/>
       <use x="63.623047" xlink:href="#DejaVuSans-48"/>
       <use x="127.246094" xlink:href="#DejaVuSans-48"/>
      </g>
     </g>
    </g>
    <g id="xtick_6">
     <g id="line2d_11">
      <path clip-path="url(#pf217b0afb8)" d="M 480.833901 315 
L 480.833901 43.2 
" style="fill:none;stroke:#b0b0b0;stroke-linecap:square;stroke-width:0.8;"/>
     </g>
     <g id="line2d_12">
      <g>
       <use style="stroke:#000000;stroke-width:0.8;" x="480.833901" xlink:href="#m53903d16c1" y="315"/>
      </g>
     </g>
     <g id="text_6">
      <!-- 1000 -->
      <defs>
       <path d="M 12.40625 8.296875 
L 28.515625 8.296875 
L 28.515625 63.921875 
L 10.984375 60.40625 
L 10.984375 69.390625 
L 28.421875 72.90625 
L 38.28125 72.90625 
L 38.28125 8.296875 
L 54.390625 8.296875 
L 54.390625 0 
L 12.40625 0 
z
" id="DejaVuSans-49"/>
      </defs>
      <g transform="translate(468.108901 329.598437)scale(0.1 -0.1)">
       <use xlink:href="#DejaVuSans-49"/>
       <use x="63.623047" xlink:href="#DejaVuSans-48"/>
       <use x="127.246094" xlink:href="#DejaVuSans-48"/>
       <use x="190.869141" xlink:href="#DejaVuSans-48"/>
      </g>
     </g>
    </g>
    <g id="xtick_7">
     <g id="line2d_13">
      <path clip-path="url(#pf217b0afb8)" d="M 553.927954 315 
L 553.927954 43.2 
" style="fill:none;stroke:#b0b0b0;stroke-linecap:square;stroke-width:0.8;"/>
     </g>
     <g id="line2d_14">
      <g>
       <use style="stroke:#000000;stroke-width:0.8;" x="553.927954" xlink:href="#m53903d16c1" y="315"/>
      </g>
     </g>
     <g id="text_7">
      <!-- 1200 -->
      <g transform="translate(541.202954 329.598437)scale(0.1 -0.1)">
       <use xlink:href="#DejaVuSans-49"/>
       <use x="63.623047" xlink:href="#DejaVuSans-50"/>
       <use x="127.246094" xlink:href="#DejaVuSans-48"/>
       <use x="190.869141" xlink:href="#DejaVuSans-48"/>
      </g>
     </g>
    </g>
    <g id="xtick_8">
     <g id="line2d_15">
      <path clip-path="url(#pf217b0afb8)" d="M 627.022007 315 
L 627.022007 43.2 
" style="fill:none;stroke:#b0b0b0;stroke-linecap:square;stroke-width:0.8;"/>
     </g>
     <g id="line2d_16">
      <g>
       <use style="stroke:#000000;stroke-width:0.8;" x="627.022007" xlink:href="#m53903d16c1" y="315"/>
      </g>
     </g>
     <g id="text_8">
      <!-- 1400 -->
      <g transform="translate(614.297007 329.598437)scale(0.1 -0.1)">
       <use xlink:href="#DejaVuSans-49"/>
       <use x="63.623047" xlink:href="#DejaVuSans-52"/>
       <use x="127.246094" xlink:href="#DejaVuSans-48"/>
       <use x="190.869141" xlink:href="#DejaVuSans-48"/>
      </g>
     </g>
    </g>
    <g id="text_9">
     <!-- epoch -->
     <defs>
      <path d="M 56.203125 29.59375 
L 56.203125 25.203125 
L 14.890625 25.203125 
Q 15.484375 15.921875 20.484375 11.0625 
Q 25.484375 6.203125 34.421875 6.203125 
Q 39.59375 6.203125 44.453125 7.46875 
Q 49.3125 8.734375 54.109375 11.28125 
L 54.109375 2.78125 
Q 49.265625 0.734375 44.1875 -0.34375 
Q 39.109375 -1.421875 33.890625 -1.421875 
Q 20.796875 -1.421875 13.15625 6.1875 
Q 5.515625 13.8125 5.515625 26.8125 
Q 5.515625 40.234375 12.765625 48.109375 
Q 20.015625 56 32.328125 56 
Q 43.359375 56 49.78125 48.890625 
Q 56.203125 41.796875 56.203125 29.59375 
z
M 47.21875 32.234375 
Q 47.125 39.59375 43.09375 43.984375 
Q 39.0625 48.390625 32.421875 48.390625 
Q 24.90625 48.390625 20.390625 44.140625 
Q 15.875 39.890625 15.1875 32.171875 
z
" id="DejaVuSans-101"/>
      <path d="M 18.109375 8.203125 
L 18.109375 -20.796875 
L 9.078125 -20.796875 
L 9.078125 54.6875 
L 18.109375 54.6875 
L 18.109375 46.390625 
Q 20.953125 51.265625 25.265625 53.625 
Q 29.59375 56 35.59375 56 
Q 45.5625 56 51.78125 48.09375 
Q 58.015625 40.1875 58.015625 27.296875 
Q 58.015625 14.40625 51.78125 6.484375 
Q 45.5625 -1.421875 35.59375 -1.421875 
Q 29.59375 -1.421875 25.265625 0.953125 
Q 20.953125 3.328125 18.109375 8.203125 
z
M 48.6875 27.296875 
Q 48.6875 37.203125 44.609375 42.84375 
Q 40.53125 48.484375 33.40625 48.484375 
Q 26.265625 48.484375 22.1875 42.84375 
Q 18.109375 37.203125 18.109375 27.296875 
Q 18.109375 17.390625 22.1875 11.75 
Q 26.265625 6.109375 33.40625 6.109375 
Q 40.53125 6.109375 44.609375 11.75 
Q 48.6875 17.390625 48.6875 27.296875 
z
" id="DejaVuSans-112"/>
      <path d="M 30.609375 48.390625 
Q 23.390625 48.390625 19.1875 42.75 
Q 14.984375 37.109375 14.984375 27.296875 
Q 14.984375 17.484375 19.15625 11.84375 
Q 23.34375 6.203125 30.609375 6.203125 
Q 37.796875 6.203125 41.984375 11.859375 
Q 46.1875 17.53125 46.1875 27.296875 
Q 46.1875 37.015625 41.984375 42.703125 
Q 37.796875 48.390625 30.609375 48.390625 
z
M 30.609375 56 
Q 42.328125 56 49.015625 48.375 
Q 55.71875 40.765625 55.71875 27.296875 
Q 55.71875 13.875 49.015625 6.21875 
Q 42.328125 -1.421875 30.609375 -1.421875 
Q 18.84375 -1.421875 12.171875 6.21875 
Q 5.515625 13.875 5.515625 27.296875 
Q 5.515625 40.765625 12.171875 48.375 
Q 18.84375 56 30.609375 56 
z
" id="DejaVuSans-111"/>
      <path d="M 48.78125 52.59375 
L 48.78125 44.1875 
Q 44.96875 46.296875 41.140625 47.34375 
Q 37.3125 48.390625 33.40625 48.390625 
Q 24.65625 48.390625 19.8125 42.84375 
Q 14.984375 37.3125 14.984375 27.296875 
Q 14.984375 17.28125 19.8125 11.734375 
Q 24.65625 6.203125 33.40625 6.203125 
Q 37.3125 6.203125 41.140625 7.25 
Q 44.96875 8.296875 48.78125 10.40625 
L 48.78125 2.09375 
Q 45.015625 0.34375 40.984375 -0.53125 
Q 36.96875 -1.421875 32.421875 -1.421875 
Q 20.0625 -1.421875 12.78125 6.34375 
Q 5.515625 14.109375 5.515625 27.296875 
Q 5.515625 40.671875 12.859375 48.328125 
Q 20.21875 56 33.015625 56 
Q 37.15625 56 41.109375 55.140625 
Q 45.0625 54.296875 48.78125 52.59375 
z
" id="DejaVuSans-99"/>
      <path d="M 54.890625 33.015625 
L 54.890625 0 
L 45.90625 0 
L 45.90625 32.71875 
Q 45.90625 40.484375 42.875 44.328125 
Q 39.84375 48.1875 33.796875 48.1875 
Q 26.515625 48.1875 22.3125 43.546875 
Q 18.109375 38.921875 18.109375 30.90625 
L 18.109375 0 
L 9.078125 0 
L 9.078125 75.984375 
L 18.109375 75.984375 
L 18.109375 46.1875 
Q 21.34375 51.125 25.703125 53.5625 
Q 30.078125 56 35.796875 56 
Q 45.21875 56 50.046875 50.171875 
Q 54.890625 44.34375 54.890625 33.015625 
z
" id="DejaVuSans-104"/>
     </defs>
     <g transform="translate(353.771875 343.276563)scale(0.1 -0.1)">
      <use xlink:href="#DejaVuSans-101"/>
      <use x="61.523438" xlink:href="#DejaVuSans-112"/>
      <use x="125" xlink:href="#DejaVuSans-111"/>
      <use x="186.181641" xlink:href="#DejaVuSans-99"/>
      <use x="241.162109" xlink:href="#DejaVuSans-104"/>
     </g>
    </g>
   </g>
   <g id="matplotlib.axis_2">
    <g id="ytick_1">
     <g id="line2d_17">
      <path clip-path="url(#pf217b0afb8)" d="M 90 313.316561 
L 648 313.316561 
" style="fill:none;stroke:#b0b0b0;stroke-linecap:square;stroke-width:0.8;"/>
     </g>
     <g id="line2d_18">
      <defs>
       <path d="M 0 0 
L -3.5 0 
" id="m262e5ddacb" style="stroke:#000000;stroke-width:0.8;"/>
      </defs>
      <g>
       <use style="stroke:#000000;stroke-width:0.8;" x="90" xlink:href="#m262e5ddacb" y="313.316561"/>
      </g>
     </g>
     <g id="text_10">
      <!-- 0.2 -->
      <defs>
       <path d="M 10.6875 12.40625 
L 21 12.40625 
L 21 0 
L 10.6875 0 
z
" id="DejaVuSans-46"/>
      </defs>
      <g transform="translate(67.096875 317.11578)scale(0.1 -0.1)">
       <use xlink:href="#DejaVuSans-48"/>
       <use x="63.623047" xlink:href="#DejaVuSans-46"/>
       <use x="95.410156" xlink:href="#DejaVuSans-50"/>
      </g>
     </g>
    </g>
    <g id="ytick_2">
     <g id="line2d_19">
      <path clip-path="url(#pf217b0afb8)" d="M 90 277.039631 
L 648 277.039631 
" style="fill:none;stroke:#b0b0b0;stroke-linecap:square;stroke-width:0.8;"/>
     </g>
     <g id="line2d_20">
      <g>
       <use style="stroke:#000000;stroke-width:0.8;" x="90" xlink:href="#m262e5ddacb" y="277.039631"/>
      </g>
     </g>
     <g id="text_11">
      <!-- 0.4 -->
      <g transform="translate(67.096875 280.83885)scale(0.1 -0.1)">
       <use xlink:href="#DejaVuSans-48"/>
       <use x="63.623047" xlink:href="#DejaVuSans-46"/>
       <use x="95.410156" xlink:href="#DejaVuSans-52"/>
      </g>
     </g>
    </g>
    <g id="ytick_3">
     <g id="line2d_21">
      <path clip-path="url(#pf217b0afb8)" d="M 90 240.762701 
L 648 240.762701 
" style="fill:none;stroke:#b0b0b0;stroke-linecap:square;stroke-width:0.8;"/>
     </g>
     <g id="line2d_22">
      <g>
       <use style="stroke:#000000;stroke-width:0.8;" x="90" xlink:href="#m262e5ddacb" y="240.762701"/>
      </g>
     </g>
     <g id="text_12">
      <!-- 0.6 -->
      <g transform="translate(67.096875 244.56192)scale(0.1 -0.1)">
       <use xlink:href="#DejaVuSans-48"/>
       <use x="63.623047" xlink:href="#DejaVuSans-46"/>
       <use x="95.410156" xlink:href="#DejaVuSans-54"/>
      </g>
     </g>
    </g>
    <g id="ytick_4">
     <g id="line2d_23">
      <path clip-path="url(#pf217b0afb8)" d="M 90 204.485771 
L 648 204.485771 
" style="fill:none;stroke:#b0b0b0;stroke-linecap:square;stroke-width:0.8;"/>
     </g>
     <g id="line2d_24">
      <g>
       <use style="stroke:#000000;stroke-width:0.8;" x="90" xlink:href="#m262e5ddacb" y="204.485771"/>
      </g>
     </g>
     <g id="text_13">
      <!-- 0.8 -->
      <g transform="translate(67.096875 208.284989)scale(0.1 -0.1)">
       <use xlink:href="#DejaVuSans-48"/>
       <use x="63.623047" xlink:href="#DejaVuSans-46"/>
       <use x="95.410156" xlink:href="#DejaVuSans-56"/>
      </g>
     </g>
    </g>
    <g id="ytick_5">
     <g id="line2d_25">
      <path clip-path="url(#pf217b0afb8)" d="M 90 168.208841 
L 648 168.208841 
" style="fill:none;stroke:#b0b0b0;stroke-linecap:square;stroke-width:0.8;"/>
     </g>
     <g id="line2d_26">
      <g>
       <use style="stroke:#000000;stroke-width:0.8;" x="90" xlink:href="#m262e5ddacb" y="168.208841"/>
      </g>
     </g>
     <g id="text_14">
      <!-- 1.0 -->
      <g transform="translate(67.096875 172.008059)scale(0.1 -0.1)">
       <use xlink:href="#DejaVuSans-49"/>
       <use x="63.623047" xlink:href="#DejaVuSans-46"/>
       <use x="95.410156" xlink:href="#DejaVuSans-48"/>
      </g>
     </g>
    </g>
    <g id="ytick_6">
     <g id="line2d_27">
      <path clip-path="url(#pf217b0afb8)" d="M 90 131.93191 
L 648 131.93191 
" style="fill:none;stroke:#b0b0b0;stroke-linecap:square;stroke-width:0.8;"/>
     </g>
     <g id="line2d_28">
      <g>
       <use style="stroke:#000000;stroke-width:0.8;" x="90" xlink:href="#m262e5ddacb" y="131.93191"/>
      </g>
     </g>
     <g id="text_15">
      <!-- 1.2 -->
      <g transform="translate(67.096875 135.731129)scale(0.1 -0.1)">
       <use xlink:href="#DejaVuSans-49"/>
       <use x="63.623047" xlink:href="#DejaVuSans-46"/>
       <use x="95.410156" xlink:href="#DejaVuSans-50"/>
      </g>
     </g>
    </g>
    <g id="ytick_7">
     <g id="line2d_29">
      <path clip-path="url(#pf217b0afb8)" d="M 90 95.65498 
L 648 95.65498 
" style="fill:none;stroke:#b0b0b0;stroke-linecap:square;stroke-width:0.8;"/>
     </g>
     <g id="line2d_30">
      <g>
       <use style="stroke:#000000;stroke-width:0.8;" x="90" xlink:href="#m262e5ddacb" y="95.65498"/>
      </g>
     </g>
     <g id="text_16">
      <!-- 1.4 -->
      <g transform="translate(67.096875 99.454199)scale(0.1 -0.1)">
       <use xlink:href="#DejaVuSans-49"/>
       <use x="63.623047" xlink:href="#DejaVuSans-46"/>
       <use x="95.410156" xlink:href="#DejaVuSans-52"/>
      </g>
     </g>
    </g>
    <g id="ytick_8">
     <g id="line2d_31">
      <path clip-path="url(#pf217b0afb8)" d="M 90 59.37805 
L 648 59.37805 
" style="fill:none;stroke:#b0b0b0;stroke-linecap:square;stroke-width:0.8;"/>
     </g>
     <g id="line2d_32">
      <g>
       <use style="stroke:#000000;stroke-width:0.8;" x="90" xlink:href="#m262e5ddacb" y="59.37805"/>
      </g>
     </g>
     <g id="text_17">
      <!-- 1.6 -->
      <g transform="translate(67.096875 63.177269)scale(0.1 -0.1)">
       <use xlink:href="#DejaVuSans-49"/>
       <use x="63.623047" xlink:href="#DejaVuSans-46"/>
       <use x="95.410156" xlink:href="#DejaVuSans-54"/>
      </g>
     </g>
    </g>
    <g id="text_18">
     <!-- loss -->
     <defs>
      <path d="M 9.421875 75.984375 
L 18.40625 75.984375 
L 18.40625 0 
L 9.421875 0 
z
" id="DejaVuSans-108"/>
      <path d="M 44.28125 53.078125 
L 44.28125 44.578125 
Q 40.484375 46.53125 36.375 47.5 
Q 32.28125 48.484375 27.875 48.484375 
Q 21.1875 48.484375 17.84375 46.4375 
Q 14.5 44.390625 14.5 40.28125 
Q 14.5 37.15625 16.890625 35.375 
Q 19.28125 33.59375 26.515625 31.984375 
L 29.59375 31.296875 
Q 39.15625 29.25 43.1875 25.515625 
Q 47.21875 21.78125 47.21875 15.09375 
Q 47.21875 7.46875 41.1875 3.015625 
Q 35.15625 -1.421875 24.609375 -1.421875 
Q 20.21875 -1.421875 15.453125 -0.5625 
Q 10.6875 0.296875 5.421875 2 
L 5.421875 11.28125 
Q 10.40625 8.6875 15.234375 7.390625 
Q 20.0625 6.109375 24.8125 6.109375 
Q 31.15625 6.109375 34.5625 8.28125 
Q 37.984375 10.453125 37.984375 14.40625 
Q 37.984375 18.0625 35.515625 20.015625 
Q 33.0625 21.96875 24.703125 23.78125 
L 21.578125 24.515625 
Q 13.234375 26.265625 9.515625 29.90625 
Q 5.8125 33.546875 5.8125 39.890625 
Q 5.8125 47.609375 11.28125 51.796875 
Q 16.75 56 26.8125 56 
Q 31.78125 56 36.171875 55.265625 
Q 40.578125 54.546875 44.28125 53.078125 
z
" id="DejaVuSans-115"/>
     </defs>
     <g transform="translate(61.017187 188.757812)rotate(-90)scale(0.1 -0.1)">
      <use xlink:href="#DejaVuSans-108"/>
      <use x="27.783203" xlink:href="#DejaVuSans-111"/>
      <use x="88.964844" xlink:href="#DejaVuSans-115"/>
      <use x="141.064453" xlink:href="#DejaVuSans-115"/>
     </g>
    </g>
   </g>
   <g id="line2d_33">
    <path clip-path="url(#pf217b0afb8)" d="M 115.363636 55.554545 
L 115.729107 64.895036 
L 116.094577 65.92545 
L 116.460047 69.980029 
L 116.825517 71.362825 
L 117.190988 76.253711 
L 117.921928 80.123487 
L 118.287398 79.194749 
L 118.652869 81.382585 
L 119.018339 78.826855 
L 119.383809 79.23647 
L 119.74928 81.235679 
L 120.11475 83.928117 
L 120.48022 82.23641 
L 120.84569 83.597168 
L 121.211161 83.501952 
L 121.576631 83.984774 
L 121.942101 84.176584 
L 122.307571 83.684978 
L 123.038512 86.94268 
L 123.403982 89.846963 
L 123.769452 86.837412 
L 124.134923 90.21425 
L 124.500393 87.924245 
L 124.865863 88.265467 
L 125.231334 87.740604 
L 125.596804 89.176939 
L 125.962274 91.355309 
L 126.327744 89.686189 
L 126.693215 90.282254 
L 127.058685 92.690209 
L 127.424155 92.20332 
L 127.789625 93.217265 
L 128.155096 93.143488 
L 128.886036 92.773431 
L 129.251506 94.257946 
L 129.616977 94.312638 
L 129.982447 94.593006 
L 130.347917 96.184277 
L 130.713387 96.086557 
L 131.078858 96.750859 
L 131.444328 97.90189 
L 131.809798 98.278423 
L 132.175269 98.279325 
L 132.540739 99.190136 
L 132.906209 102.091777 
L 133.271679 102.964616 
L 133.63715 104.604349 
L 134.00262 108.456545 
L 134.36809 109.599359 
L 134.73356 109.948347 
L 135.099031 114.550962 
L 135.464501 117.367645 
L 135.829971 121.76349 
L 136.195441 128.510772 
L 136.560912 130.950192 
L 136.926382 135.272855 
L 137.291852 138.267097 
L 138.022793 149.501364 
L 138.388263 151.790944 
L 138.753733 152.487183 
L 139.119204 157.636553 
L 139.484674 160.680823 
L 139.850144 164.751218 
L 140.215614 165.340419 
L 140.946555 176.784838 
L 141.312025 177.846827 
L 141.677495 180.791549 
L 142.042966 180.384674 
L 142.408436 185.206721 
L 142.773906 185.808198 
L 143.139376 192.164589 
L 143.504847 192.893031 
L 143.870317 193.338577 
L 144.235787 195.826112 
L 144.601258 197.505767 
L 144.966728 200.673066 
L 145.332198 199.873935 
L 145.697668 204.425032 
L 146.063139 205.98379 
L 146.428609 205.01793 
L 146.794079 205.248985 
L 147.159549 209.51998 
L 147.52502 209.505187 
L 147.89049 213.337503 
L 148.25596 212.295585 
L 148.62143 212.83858 
L 148.986901 214.405237 
L 149.352371 217.23756 
L 149.717841 215.079804 
L 150.083312 217.464717 
L 150.448782 217.239997 
L 150.814252 221.861243 
L 151.179722 223.554467 
L 151.545193 223.878157 
L 151.910663 224.053256 
L 152.641603 225.223749 
L 153.007074 226.081814 
L 153.372544 225.807767 
L 153.738014 224.203024 
L 154.103484 227.709544 
L 154.468955 227.585597 
L 154.834425 230.214576 
L 155.199895 228.880044 
L 155.930836 233.680558 
L 156.296306 231.556988 
L 156.661776 235.023562 
L 157.027247 234.273754 
L 157.392717 233.905867 
L 157.758187 234.949485 
L 158.123657 231.947581 
L 158.489128 235.11729 
L 158.854598 237.027558 
L 159.220068 236.23164 
L 159.585538 234.579879 
L 159.951009 239.063416 
L 160.316479 237.00717 
L 160.681949 238.850821 
L 161.047419 238.369692 
L 161.41289 238.10171 
L 161.77836 238.029194 
L 162.14383 238.368923 
L 162.5093 237.3779 
L 162.874771 241.006213 
L 163.240241 239.312318 
L 163.605711 241.806266 
L 163.971182 242.763648 
L 164.336652 241.862969 
L 164.702122 244.123692 
L 165.067592 241.432378 
L 165.433063 244.650622 
L 165.798533 246.403504 
L 166.164003 245.177079 
L 166.529473 244.718115 
L 166.894944 248.856051 
L 167.260414 244.901798 
L 167.991354 248.85513 
L 168.356825 247.066591 
L 168.722295 246.674204 
L 169.087765 249.892376 
L 169.453236 247.9901 
L 169.818706 247.728032 
L 170.549646 251.276475 
L 170.915117 251.255083 
L 171.280587 250.999834 
L 171.646057 251.871386 
L 172.011527 251.136337 
L 172.376998 253.24054 
L 172.742468 248.913594 
L 173.107938 248.806879 
L 173.473408 252.240355 
L 173.838879 252.31129 
L 174.569819 256.762771 
L 174.935289 255.473441 
L 175.30076 251.392099 
L 175.66623 254.119616 
L 176.0317 255.705906 
L 176.397171 255.160094 
L 176.762641 251.686718 
L 177.128111 257.089717 
L 177.493581 254.339573 
L 177.859052 255.412973 
L 178.224522 253.097218 
L 178.589992 256.70006 
L 178.955462 257.393545 
L 179.320933 258.396823 
L 179.686403 258.034587 
L 180.051873 257.229727 
L 180.417343 255.43406 
L 180.782814 256.715249 
L 181.148284 259.248143 
L 181.513754 257.085922 
L 181.879225 260.921326 
L 182.244695 257.832051 
L 182.610165 257.216402 
L 182.975635 260.411937 
L 183.341106 259.695276 
L 183.706576 258.420478 
L 184.072046 258.841132 
L 184.437516 260.437973 
L 184.802987 257.056307 
L 185.168457 257.010159 
L 185.533927 257.508346 
L 185.899397 259.957218 
L 186.264868 258.540866 
L 186.630338 259.291454 
L 186.995808 257.045233 
L 187.361278 260.972345 
L 187.726749 261.492565 
L 188.092219 259.791881 
L 188.457689 260.13499 
L 188.82316 261.249672 
L 189.18863 261.422588 
L 189.5541 262.039513 
L 189.91957 262.418531 
L 190.285041 261.849832 
L 190.650511 261.033744 
L 191.015981 264.196958 
L 191.381451 262.453014 
L 191.746922 263.802241 
L 192.112392 262.370219 
L 192.477862 260.258976 
L 192.843332 259.915939 
L 193.208803 262.422337 
L 193.574273 262.623444 
L 193.939743 264.893855 
L 194.305214 263.005432 
L 194.670684 265.532508 
L 195.036154 263.230891 
L 195.401624 264.283247 
L 195.767095 264.470723 
L 196.132565 264.481997 
L 196.498035 263.36779 
L 196.863505 265.769024 
L 197.228976 265.650065 
L 197.594446 265.949347 
L 197.959916 263.502547 
L 198.325386 263.774237 
L 198.690857 266.318609 
L 199.056327 264.142577 
L 199.421797 269.8238 
L 200.152738 263.079229 
L 200.518208 264.550905 
L 200.883678 267.09062 
L 201.614619 268.071634 
L 201.980089 262.544181 
L 202.345559 262.721069 
L 202.71103 266.227084 
L 203.0765 268.220629 
L 203.44197 267.240972 
L 203.80744 267.526453 
L 204.172911 266.29042 
L 204.903851 266.433996 
L 205.269321 267.893659 
L 206.000262 267.148127 
L 206.365732 267.19596 
L 206.731203 268.338734 
L 207.096673 268.270561 
L 207.462143 264.452897 
L 207.827613 267.569984 
L 208.558554 264.605558 
L 208.924024 265.899578 
L 209.289494 268.455118 
L 209.654965 267.359888 
L 210.020435 266.974593 
L 210.385905 268.30374 
L 210.751375 270.739225 
L 211.116846 268.278076 
L 211.482316 268.789868 
L 212.578727 268.52856 
L 212.944197 267.478007 
L 213.309667 267.912313 
L 213.675138 268.810541 
L 214.040608 266.72816 
L 214.406078 266.885486 
L 214.771548 267.857909 
L 215.137019 267.794314 
L 215.502489 268.684194 
L 215.867959 267.012598 
L 216.233429 270.125575 
L 216.5989 267.276012 
L 216.96437 268.8985 
L 217.32984 272.05657 
L 217.69531 272.103677 
L 218.060781 270.779252 
L 218.426251 270.602627 
L 219.157192 266.864823 
L 219.522662 267.913558 
L 219.888132 272.241978 
L 220.619073 269.695414 
L 220.984543 267.424113 
L 221.350013 270.150755 
L 221.715483 271.602613 
L 222.080954 270.447823 
L 222.446424 272.427238 
L 222.811894 272.148532 
L 223.177364 270.922936 
L 223.542835 274.382348 
L 223.908305 269.512006 
L 224.273775 273.346521 
L 224.639245 270.041392 
L 225.004716 271.182984 
L 225.370186 269.864741 
L 225.735656 271.031606 
L 226.101127 271.69015 
L 226.466597 270.696057 
L 226.832067 270.935376 
L 227.197537 273.967279 
L 227.563008 273.399024 
L 227.928478 274.176795 
L 228.293948 271.327895 
L 228.659418 270.361444 
L 229.024889 270.945938 
L 229.755829 274.062769 
L 230.121299 273.169766 
L 230.48677 273.069117 
L 230.85224 271.842917 
L 231.21771 272.108382 
L 231.583181 274.469949 
L 231.948651 274.308958 
L 232.314121 271.999519 
L 232.679591 272.446557 
L 233.045062 273.264306 
L 233.410532 271.89862 
L 233.776002 274.851654 
L 234.141472 271.531989 
L 234.506943 274.771853 
L 234.872413 271.621982 
L 235.237883 273.191574 
L 235.603353 273.422259 
L 236.334294 270.020462 
L 236.699764 271.252906 
L 237.065234 270.546726 
L 237.430705 272.087097 
L 237.796175 272.527836 
L 238.161645 275.395514 
L 238.527116 274.051946 
L 238.892586 275.059359 
L 239.258056 275.650454 
L 239.623526 271.364137 
L 239.988997 272.727857 
L 240.354467 276.674027 
L 240.719937 275.022762 
L 241.085407 272.753221 
L 241.450878 275.562191 
L 241.816348 274.658125 
L 242.181818 275.992698 
L 242.547288 275.814102 
L 242.912759 275.509889 
L 243.278229 275.879587 
L 243.643699 273.741977 
L 244.00917 275.202076 
L 244.37464 273.245294 
L 244.74011 276.112632 
L 245.10558 275.830721 
L 245.471051 275.991803 
L 245.836521 275.927441 
L 246.201991 277.482348 
L 246.567461 275.561043 
L 246.932932 275.46938 
L 247.298402 274.624338 
L 247.663872 276.144059 
L 248.029342 273.329125 
L 248.760283 276.350626 
L 249.125753 277.151316 
L 249.856694 274.992327 
L 250.222164 275.305651 
L 250.587634 273.070061 
L 250.953105 275.506789 
L 251.318575 274.218243 
L 251.684045 277.715149 
L 252.049515 276.049704 
L 252.414986 277.104811 
L 252.780456 279.062846 
L 253.511396 274.942566 
L 253.876867 276.65356 
L 254.607807 275.280114 
L 254.973277 276.864655 
L 255.338748 277.115422 
L 255.704218 277.044271 
L 256.069688 279.417367 
L 256.435159 275.387629 
L 256.800629 277.999586 
L 257.166099 278.314134 
L 257.531569 277.15302 
L 258.26251 276.406103 
L 258.62798 275.328652 
L 258.99345 277.538257 
L 259.358921 275.362949 
L 259.724391 276.724192 
L 260.089861 272.653846 
L 260.455331 279.901293 
L 260.820802 275.703879 
L 261.186272 273.056778 
L 261.917212 277.039013 
L 262.282683 277.855099 
L 262.648153 274.505872 
L 263.013623 277.375329 
L 263.379094 276.317633 
L 263.744564 277.509333 
L 264.110034 279.141937 
L 264.840975 276.580503 
L 265.206445 277.407599 
L 265.571915 276.900136 
L 265.937385 277.872246 
L 266.302856 277.679919 
L 266.668326 275.065426 
L 267.033796 278.553738 
L 267.399266 278.623958 
L 267.764737 277.909892 
L 268.130207 275.564925 
L 268.495677 277.643535 
L 268.861147 275.7861 
L 269.226618 278.998702 
L 269.592088 278.495139 
L 269.957558 277.387117 
L 270.688499 278.598174 
L 271.053969 280.175411 
L 271.419439 278.794071 
L 271.78491 276.638896 
L 272.51585 277.016453 
L 273.246791 279.005461 
L 273.612261 279.403551 
L 273.977731 278.513771 
L 274.343201 279.988364 
L 274.708672 277.658756 
L 275.074142 280.962274 
L 275.439612 278.884648 
L 275.805083 279.67256 
L 276.170553 280.030375 
L 276.536023 281.047459 
L 276.901493 278.572976 
L 277.266964 280.436704 
L 277.632434 278.772659 
L 277.997904 281.50403 
L 278.363374 277.80202 
L 278.728845 277.089054 
L 279.094315 282.010278 
L 279.459785 280.12315 
L 279.825255 280.667404 
L 280.190726 278.94242 
L 280.556196 280.682398 
L 280.921666 278.612201 
L 281.287136 280.745059 
L 281.652607 281.719602 
L 282.018077 280.965095 
L 282.383547 277.593486 
L 282.749018 281.275006 
L 283.114488 282.905857 
L 283.479958 280.083097 
L 283.845428 279.388678 
L 284.210899 281.24625 
L 284.576369 278.44417 
L 284.941839 276.800301 
L 285.307309 276.979841 
L 285.67278 278.549549 
L 286.03825 277.463708 
L 286.40372 281.317365 
L 287.134661 277.502897 
L 287.500131 279.941268 
L 287.865601 281.199109 
L 288.231072 281.039592 
L 288.596542 280.005826 
L 288.962012 279.334183 
L 289.327482 281.820007 
L 289.692953 279.907679 
L 290.058423 279.826201 
L 290.423893 281.92802 
L 290.789363 282.667456 
L 291.154834 279.810254 
L 291.520304 280.513659 
L 291.885774 280.708056 
L 292.251244 280.41715 
L 292.616715 279.203106 
L 292.982185 283.566465 
L 293.347655 277.905068 
L 293.713125 282.860885 
L 294.078596 281.666272 
L 294.444066 282.004264 
L 294.809536 279.013967 
L 295.175007 282.270731 
L 295.540477 282.226569 
L 295.905947 276.218797 
L 296.271417 282.754282 
L 296.636888 279.754962 
L 297.733298 283.082765 
L 298.098769 279.778444 
L 298.464239 283.917765 
L 298.829709 282.468639 
L 299.195179 283.70875 
L 299.56065 282.907026 
L 299.92612 280.474019 
L 300.29159 281.278988 
L 300.657061 279.881803 
L 301.022531 284.100829 
L 301.388001 280.898758 
L 301.753471 282.44191 
L 302.118942 281.027918 
L 302.484412 280.536219 
L 302.849882 281.932789 
L 303.215352 280.193827 
L 303.580823 284.090664 
L 303.946293 278.701252 
L 304.311763 280.804808 
L 304.677233 281.137188 
L 305.042704 278.386661 
L 305.408174 280.86757 
L 305.773644 281.877785 
L 306.139114 278.576863 
L 306.504585 282.530599 
L 306.870055 281.935899 
L 307.235525 282.124547 
L 307.600996 281.740059 
L 307.966466 281.752356 
L 308.331936 279.997569 
L 308.697406 280.066803 
L 309.062877 279.662182 
L 309.428347 283.030874 
L 309.793817 281.990965 
L 310.159287 284.5233 
L 310.524758 282.054046 
L 311.255698 282.541443 
L 311.621168 279.279145 
L 311.986639 280.152621 
L 312.352109 283.423592 
L 312.717579 283.360998 
L 313.08305 282.647869 
L 313.44852 286.716876 
L 313.81399 282.450381 
L 314.17946 286.233286 
L 314.544931 284.850709 
L 314.910401 284.704372 
L 315.275871 280.509211 
L 315.641341 284.606463 
L 316.006812 282.61379 
L 316.372282 285.526161 
L 316.737752 283.64936 
L 317.103222 283.233514 
L 317.468693 279.439794 
L 317.834163 281.739365 
L 318.199633 285.135123 
L 318.565103 284.112907 
L 318.930574 284.803929 
L 319.296044 283.717033 
L 319.661514 286.055563 
L 320.026985 282.350918 
L 320.392455 285.038957 
L 320.757925 283.051218 
L 321.123395 284.158173 
L 321.488866 284.509323 
L 321.854336 285.342374 
L 322.219806 281.716753 
L 322.585276 283.555536 
L 322.950747 282.228676 
L 323.316217 281.969939 
L 323.681687 282.7405 
L 324.047157 279.366813 
L 324.412628 283.899788 
L 324.778098 282.431956 
L 325.143568 282.93883 
L 325.509039 282.959807 
L 325.874509 284.985792 
L 326.239979 284.462157 
L 326.605449 288.021899 
L 326.97092 284.404071 
L 327.33639 285.280495 
L 327.70186 283.970503 
L 328.06733 286.233066 
L 328.432801 280.227062 
L 328.798271 282.249799 
L 329.163741 286.251491 
L 329.529211 283.416424 
L 329.894682 283.958372 
L 330.260152 285.269213 
L 330.625622 284.043583 
L 330.991092 285.889421 
L 331.356563 282.363073 
L 332.087503 286.311185 
L 332.452974 285.304276 
L 332.818444 280.98004 
L 333.183914 284.144661 
L 333.549384 284.038488 
L 333.914855 283.317847 
L 334.280325 285.613135 
L 335.011265 283.693098 
L 335.376736 286.607145 
L 335.742206 285.014291 
L 336.107676 284.230929 
L 336.473146 284.594001 
L 336.838617 284.342201 
L 337.204087 284.448995 
L 337.569557 282.93332 
L 337.935028 284.556688 
L 338.300498 282.899308 
L 338.665968 282.003532 
L 339.031438 285.794606 
L 339.396909 284.460312 
L 339.762379 285.09729 
L 340.127849 279.615153 
L 340.493319 285.647643 
L 340.85879 286.017402 
L 341.22426 285.255499 
L 341.58973 286.392165 
L 341.9552 286.10671 
L 342.320671 284.817954 
L 342.686141 286.725052 
L 343.051611 286.139967 
L 343.417081 287.716332 
L 343.782552 288.340125 
L 344.148022 285.683487 
L 344.513492 286.240819 
L 344.878963 284.705724 
L 345.244433 284.421813 
L 345.609903 282.255907 
L 345.975373 282.7245 
L 346.340844 286.996933 
L 346.706314 286.805 
L 347.071784 286.311819 
L 347.437254 285.280789 
L 347.802725 284.869858 
L 348.168195 287.557147 
L 348.533665 286.776036 
L 348.899135 284.432207 
L 349.264606 287.535895 
L 349.630076 286.549532 
L 349.995546 284.939948 
L 350.361017 287.300721 
L 350.726487 288.615998 
L 351.091957 284.573177 
L 351.822898 287.064696 
L 352.188368 287.46877 
L 352.553838 284.453432 
L 352.919308 287.287248 
L 353.284779 284.338738 
L 353.650249 287.651996 
L 354.015719 285.803736 
L 354.381189 286.7227 
L 354.74666 284.180664 
L 355.11213 285.595924 
L 355.4776 284.294799 
L 355.84307 284.630252 
L 356.208541 287.028024 
L 356.574011 286.854748 
L 356.939481 284.02276 
L 357.304952 286.3817 
L 357.670422 287.125418 
L 358.035892 285.237232 
L 358.401362 287.852579 
L 359.132303 286.942387 
L 359.497773 285.703705 
L 359.863243 285.09407 
L 360.228714 284.733147 
L 360.594184 288.11163 
L 360.959654 286.103936 
L 361.325124 287.176377 
L 361.690595 286.475369 
L 362.056065 289.032145 
L 362.421535 285.075587 
L 362.787006 286.46506 
L 363.152476 288.365748 
L 363.517946 285.307299 
L 363.883416 288.329437 
L 364.248887 288.392892 
L 364.614357 286.952521 
L 364.979827 286.455478 
L 365.345297 288.253277 
L 365.710768 287.676603 
L 366.076238 284.998413 
L 366.441708 285.466383 
L 366.807178 287.783082 
L 367.172649 286.515275 
L 367.538119 288.799965 
L 367.903589 284.74317 
L 368.269059 286.796036 
L 368.63453 287.492979 
L 369 285.907125 
L 369.36547 289.427162 
L 369.730941 288.46221 
L 370.096411 289.250436 
L 370.461881 285.826617 
L 371.192822 289.715132 
L 371.558292 289.121216 
L 371.923762 286.149143 
L 372.289232 286.50948 
L 372.654703 287.812573 
L 373.020173 286.705049 
L 373.385643 286.239309 
L 373.751113 287.581845 
L 374.116584 284.636152 
L 374.482054 285.627316 
L 374.847524 287.595016 
L 375.212994 285.158467 
L 375.578465 286.336534 
L 375.943935 289.423492 
L 376.309405 285.466197 
L 376.674876 286.685832 
L 377.040346 287.06728 
L 377.405816 287.086441 
L 377.771286 288.323881 
L 378.136757 286.201341 
L 378.502227 290.565591 
L 378.867697 289.109625 
L 379.233167 291.334558 
L 379.598638 291.655053 
L 379.964108 289.196712 
L 380.329578 289.511276 
L 380.695048 287.113506 
L 381.060519 287.23085 
L 381.425989 287.510917 
L 381.791459 288.429855 
L 382.15693 288.849951 
L 382.5224 285.951539 
L 383.25334 288.958868 
L 383.618811 287.981512 
L 383.984281 287.459213 
L 384.349751 289.453182 
L 384.715221 284.959075 
L 385.080692 290.425825 
L 385.446162 287.272995 
L 385.811632 287.087275 
L 386.177102 286.735323 
L 386.542573 288.041633 
L 386.908043 291.485785 
L 387.273513 289.794898 
L 387.638983 291.257226 
L 388.004454 289.766883 
L 388.369924 289.961931 
L 388.735394 288.972194 
L 389.100865 287.246899 
L 389.831805 288.533526 
L 390.197275 288.265213 
L 390.562746 287.244222 
L 390.928216 288.818399 
L 391.293686 289.556323 
L 391.659156 288.919432 
L 392.024627 288.736984 
L 392.390097 289.480968 
L 392.755567 285.570443 
L 393.121037 284.43229 
L 393.486508 288.736931 
L 393.851978 288.781771 
L 394.217448 288.613406 
L 394.582919 288.935913 
L 394.948389 286.050182 
L 395.313859 292.376203 
L 395.679329 287.811442 
L 396.0448 289.720716 
L 396.41027 284.981143 
L 396.77574 286.309315 
L 397.14121 291.172618 
L 398.237621 288.700592 
L 398.603091 289.410767 
L 398.968562 288.717396 
L 399.334032 287.09833 
L 399.699502 288.768276 
L 400.064972 288.104157 
L 400.430443 288.682564 
L 400.795913 287.759308 
L 401.161383 290.464079 
L 401.526854 290.180769 
L 401.892324 291.230662 
L 402.257794 290.447119 
L 402.623264 287.745896 
L 402.988735 289.686283 
L 403.354205 286.253084 
L 403.719675 290.104356 
L 404.085145 288.811312 
L 404.450616 289.059391 
L 404.816086 289.651843 
L 405.181556 288.484506 
L 405.547026 290.997626 
L 405.912497 288.299504 
L 406.277967 288.891794 
L 406.643437 291.850544 
L 407.008908 290.478954 
L 407.374378 292.020559 
L 407.739848 289.519136 
L 408.105318 290.855575 
L 408.470789 290.526302 
L 408.836259 291.09598 
L 409.201729 293.101658 
L 409.567199 289.385711 
L 410.29814 288.992376 
L 410.66361 289.167191 
L 411.02908 292.112534 
L 411.394551 288.37239 
L 411.760021 290.115714 
L 412.125491 292.45209 
L 412.490961 291.649501 
L 412.856432 291.423169 
L 413.221902 290.561235 
L 413.587372 292.312422 
L 413.952843 288.107784 
L 414.318313 286.730412 
L 415.049253 293.042464 
L 415.780194 289.919589 
L 416.145664 292.409432 
L 416.511134 290.80533 
L 416.876605 294.622875 
L 417.242075 291.098637 
L 417.607545 293.518267 
L 417.973015 289.640867 
L 418.338486 290.086975 
L 418.703956 292.149949 
L 419.069426 288.967709 
L 419.800367 291.588098 
L 420.165837 289.654904 
L 420.531307 291.070071 
L 420.896778 291.698836 
L 421.262248 289.231301 
L 421.627718 288.810611 
L 422.358659 291.647446 
L 422.724129 290.937625 
L 423.089599 287.899828 
L 423.455069 290.575181 
L 423.82054 294.248026 
L 424.18601 292.179857 
L 424.55148 293.396384 
L 424.91695 289.384089 
L 425.282421 289.044359 
L 425.647891 292.987814 
L 426.378832 290.595028 
L 426.744302 288.346159 
L 427.109772 292.372712 
L 427.475242 290.537946 
L 427.840713 291.426412 
L 428.206183 292.798101 
L 428.571653 290.162545 
L 428.937123 290.417169 
L 429.302594 291.007388 
L 429.668064 292.492378 
L 430.033534 294.476237 
L 430.399004 291.786923 
L 430.764475 293.415339 
L 431.129945 293.132948 
L 431.495415 291.792092 
L 431.860886 292.39071 
L 432.226356 292.551897 
L 432.591826 291.19034 
L 432.957296 291.738352 
L 433.322767 292.936704 
L 433.688237 288.996343 
L 434.053707 294.110777 
L 434.419177 290.635049 
L 434.784648 291.289033 
L 435.150118 289.428798 
L 435.515588 294.296061 
L 435.881058 292.471 
L 436.246529 291.677819 
L 436.977469 288.559157 
L 437.342939 292.776531 
L 437.70841 288.5599 
L 438.07388 288.371846 
L 438.43935 292.761788 
L 438.804821 291.954208 
L 439.170291 290.707678 
L 439.535761 296.087919 
L 439.901231 291.855349 
L 440.266702 293.706895 
L 440.632172 293.640334 
L 440.997642 291.133099 
L 441.363112 292.420659 
L 441.728583 292.860244 
L 442.094053 292.345027 
L 442.459523 292.982264 
L 442.824993 294.040439 
L 443.190464 287.924312 
L 443.555934 293.625238 
L 443.921404 293.073596 
L 444.286875 293.372314 
L 444.652345 295.998443 
L 445.017815 291.108077 
L 445.383285 293.301156 
L 445.748756 289.031698 
L 446.114226 291.971356 
L 446.479696 290.783133 
L 446.845166 292.161381 
L 447.210637 292.263766 
L 447.576107 294.740657 
L 447.941577 293.303891 
L 448.307047 294.285313 
L 448.672518 290.368815 
L 449.037988 290.306594 
L 450.134399 295.931989 
L 450.499869 293.042049 
L 451.23081 295.40507 
L 451.59628 294.897763 
L 451.96175 291.565333 
L 452.692691 292.731358 
L 453.058161 292.53874 
L 453.423631 295.190898 
L 453.789101 293.534593 
L 454.154572 293.221124 
L 454.520042 293.32837 
L 454.885512 294.192615 
L 455.250982 292.680576 
L 455.616453 293.295071 
L 455.981923 291.345788 
L 456.347393 292.619169 
L 456.712864 291.581019 
L 457.078334 291.805423 
L 457.443804 293.566216 
L 457.809274 293.097592 
L 458.174745 292.298903 
L 458.540215 292.003108 
L 458.905685 292.575487 
L 459.271155 293.370964 
L 459.636626 290.846179 
L 460.002096 293.074463 
L 460.367566 291.598001 
L 460.733036 293.455916 
L 461.098507 289.388928 
L 461.463977 294.231329 
L 461.829447 289.656651 
L 462.194917 294.537511 
L 462.560388 292.854019 
L 462.925858 296.788966 
L 463.656799 289.959118 
L 464.022269 293.000273 
L 464.387739 291.05721 
L 464.753209 291.502217 
L 465.11868 294.680169 
L 465.48415 293.776771 
L 465.84962 293.411666 
L 466.21509 295.215671 
L 466.580561 295.544554 
L 466.946031 295.505841 
L 467.311501 293.016957 
L 467.676971 293.841821 
L 468.042442 295.465452 
L 468.407912 292.882727 
L 468.773382 293.052128 
L 469.138853 294.895487 
L 469.504323 292.493714 
L 469.869793 294.703612 
L 470.600734 290.816051 
L 470.966204 291.92593 
L 471.331674 295.038562 
L 471.697144 292.116731 
L 472.062615 290.595402 
L 472.428085 293.862312 
L 472.793555 293.125766 
L 473.159025 292.116467 
L 473.889966 297.029937 
L 474.255436 293.37499 
L 474.620906 293.401894 
L 474.986377 293.005609 
L 475.351847 294.438678 
L 475.717317 293.204492 
L 476.082788 293.821347 
L 476.448258 295.795885 
L 476.813728 296.491523 
L 477.179198 296.16282 
L 477.544669 294.40875 
L 477.910139 291.784383 
L 478.275609 292.575763 
L 478.641079 294.579576 
L 479.00655 297.358647 
L 479.37202 293.50316 
L 479.73749 294.400635 
L 480.10296 292.282995 
L 480.468431 294.64651 
L 480.833901 293.213427 
L 481.199371 292.789767 
L 481.564841 293.620421 
L 481.930312 293.099615 
L 482.295782 294.458257 
L 482.661252 294.58124 
L 483.026723 294.909187 
L 483.392193 294.097917 
L 483.757663 295.057777 
L 484.123133 290.333027 
L 484.488604 295.795719 
L 484.854074 296.282851 
L 485.219544 292.925739 
L 485.585014 293.351842 
L 485.950485 294.12085 
L 486.315955 292.86199 
L 487.046895 295.592839 
L 487.412366 295.489553 
L 487.777836 293.415792 
L 488.143306 296.079568 
L 488.508777 293.961954 
L 488.874247 293.994616 
L 489.239717 294.313156 
L 489.605187 292.807 
L 490.336128 294.712834 
L 490.701598 292.641104 
L 491.067068 294.697002 
L 491.432539 294.84714 
L 491.798009 294.029324 
L 492.163479 296.781086 
L 492.528949 292.34574 
L 492.89442 293.706084 
L 493.62536 295.090814 
L 493.99083 294.960405 
L 494.356301 294.244772 
L 494.721771 297.784254 
L 495.087241 294.582491 
L 495.452712 295.78684 
L 495.818182 296.010693 
L 496.183652 294.868424 
L 496.549122 291.914402 
L 496.914593 291.729444 
L 497.280063 294.198311 
L 497.645533 294.473502 
L 498.011003 293.862283 
L 498.376474 294.836137 
L 498.741944 293.080131 
L 499.107414 297.924952 
L 499.472884 294.701991 
L 499.838355 294.668873 
L 500.203825 297.089245 
L 500.569295 292.270537 
L 500.934766 293.559485 
L 501.300236 293.849384 
L 501.665706 292.189381 
L 502.031176 295.284247 
L 502.396647 293.508671 
L 503.127587 296.029875 
L 503.493057 294.667775 
L 503.858528 294.930455 
L 504.223998 293.465548 
L 504.589468 293.709417 
L 504.954938 294.559405 
L 505.320409 295.905269 
L 505.685879 296.145838 
L 506.051349 297.790496 
L 506.416819 295.87498 
L 507.14776 297.680689 
L 507.51323 296.542853 
L 507.878701 292.104261 
L 508.244171 293.19797 
L 508.975111 297.418899 
L 509.340582 295.989598 
L 509.706052 291.869918 
L 510.071522 293.968515 
L 511.167933 294.516915 
L 511.533403 295.390343 
L 511.898873 297.820691 
L 512.264344 296.81055 
L 512.629814 294.922925 
L 512.995284 293.810043 
L 513.360755 295.252446 
L 513.726225 295.862927 
L 514.091695 294.632654 
L 514.457165 293.890969 
L 514.822636 296.49112 
L 515.188106 296.762024 
L 515.553576 294.736016 
L 515.919046 294.85734 
L 516.284517 295.269725 
L 516.649987 295.172439 
L 517.015457 295.466384 
L 517.380927 299.859617 
L 517.746398 293.623765 
L 518.111868 296.149695 
L 518.477338 293.94168 
L 518.842808 295.00418 
L 519.208279 294.000287 
L 519.573749 295.520153 
L 519.939219 296.323307 
L 520.30469 294.243959 
L 520.67016 297.763984 
L 521.03563 296.356075 
L 521.4011 294.087881 
L 522.132041 299.074295 
L 522.497511 294.137552 
L 522.862981 295.695158 
L 523.228452 298.991344 
L 523.959392 294.35647 
L 524.324862 299.592853 
L 524.690333 294.148775 
L 525.421273 298.374615 
L 525.786744 297.533617 
L 526.517684 293.734102 
L 526.883154 295.422617 
L 527.248625 295.56492 
L 527.614095 297.420651 
L 527.979565 298.212826 
L 528.345035 295.187075 
L 528.710506 295.028322 
L 529.075976 294.097204 
L 529.441446 297.848321 
L 529.806916 294.879226 
L 530.172387 296.344569 
L 530.537857 294.550002 
L 530.903327 297.470856 
L 531.634268 295.510267 
L 531.999738 297.762692 
L 532.365208 297.503272 
L 532.730679 292.443394 
L 533.096149 296.096267 
L 533.461619 297.194931 
L 533.827089 293.433003 
L 534.19256 296.321053 
L 534.55803 298.082752 
L 534.9235 295.328596 
L 535.28897 297.058094 
L 535.654441 296.408329 
L 536.019911 299.378737 
L 536.385381 296.06482 
L 536.750851 294.431397 
L 537.481792 298.317743 
L 537.847262 296.48437 
L 538.212733 297.182015 
L 538.578203 296.323014 
L 538.943673 298.197128 
L 539.309143 297.437806 
L 539.674614 294.85221 
L 540.040084 295.04297 
L 540.405554 294.455374 
L 540.771024 291.965607 
L 541.136495 296.417245 
L 541.867435 295.025464 
L 542.232905 293.306681 
L 542.598376 298.143006 
L 542.963846 300.268778 
L 543.329316 298.197048 
L 543.694786 293.740583 
L 544.060257 297.348497 
L 544.425727 299.448468 
L 544.791197 295.138382 
L 545.156668 298.283672 
L 545.522138 297.041705 
L 545.887608 297.196926 
L 546.253078 298.096516 
L 546.618549 299.353009 
L 546.984019 296.623733 
L 547.349489 297.97161 
L 548.08043 295.358755 
L 548.4459 295.675728 
L 549.17684 297.320533 
L 549.542311 296.764422 
L 549.907781 298.312565 
L 550.273251 297.230145 
L 550.638722 297.802487 
L 551.735132 294.541425 
L 552.466073 295.335471 
L 552.831543 298.050154 
L 553.197013 298.494179 
L 553.562484 293.510965 
L 553.927954 296.383698 
L 554.293424 297.100152 
L 555.024365 294.721909 
L 555.389835 297.472521 
L 555.755305 297.453031 
L 556.120775 298.77312 
L 556.486246 298.627909 
L 556.851716 296.306983 
L 557.217186 296.650407 
L 557.582657 297.6584 
L 557.948127 298.122945 
L 558.313597 295.702549 
L 558.679067 298.364561 
L 559.044538 297.003969 
L 559.410008 296.513469 
L 559.775478 297.023272 
L 560.140948 297.924645 
L 560.506419 296.650223 
L 560.871889 296.734985 
L 561.237359 298.880146 
L 561.9683 294.518576 
L 562.33377 296.111508 
L 562.69924 296.51162 
L 563.064711 295.237264 
L 563.430181 298.72386 
L 563.795651 296.789776 
L 564.161121 298.030644 
L 564.892062 299.031606 
L 565.623002 296.696442 
L 566.353943 299.276663 
L 566.719413 298.146082 
L 567.084883 298.851181 
L 567.450354 297.923721 
L 567.815824 299.860096 
L 568.181294 299.108138 
L 568.546764 295.895086 
L 568.912235 297.818848 
L 569.277705 295.787722 
L 569.643175 299.921059 
L 570.008646 297.033343 
L 570.374116 297.687972 
L 570.739586 297.997676 
L 571.105056 298.733393 
L 571.470527 297.969316 
L 572.201467 299.395138 
L 572.932408 293.324604 
L 573.297878 296.414884 
L 573.663348 295.845206 
L 574.028818 295.890477 
L 574.394289 295.064993 
L 574.759759 299.450505 
L 575.125229 299.837547 
L 575.4907 297.832903 
L 575.85617 299.572126 
L 576.22164 298.967391 
L 576.58711 297.617741 
L 576.952581 297.706031 
L 577.318051 301.414902 
L 578.048991 296.848541 
L 578.414462 297.903763 
L 578.779932 297.460576 
L 579.145402 297.925188 
L 579.510872 299.621963 
L 579.876343 296.648589 
L 580.241813 295.441931 
L 580.607283 296.047208 
L 580.972753 298.629638 
L 581.338224 294.866641 
L 581.703694 296.580513 
L 582.069164 299.000362 
L 582.434635 297.25622 
L 582.800105 296.703094 
L 583.165575 297.827386 
L 583.531045 297.550377 
L 583.896516 299.261458 
L 584.261986 296.176911 
L 584.627456 297.077726 
L 584.992926 299.582212 
L 585.358397 299.580977 
L 585.723867 301.211592 
L 586.089337 297.906517 
L 586.454807 297.441312 
L 586.820278 298.012811 
L 587.185748 295.97597 
L 587.551218 296.381988 
L 587.916688 295.179003 
L 588.282159 298.960131 
L 588.647629 298.503304 
L 589.013099 293.25622 
L 589.37857 296.646177 
L 589.74404 298.942505 
L 590.10951 297.562131 
L 590.47498 297.582393 
L 590.840451 299.445436 
L 591.205921 296.734444 
L 591.571391 298.683381 
L 591.936861 298.273583 
L 592.302332 302.645455 
L 592.667802 297.406404 
L 593.033272 297.988836 
L 593.398742 300.441525 
L 594.129683 297.32457 
L 594.495153 296.967385 
L 594.860624 296.04284 
L 595.226094 297.69136 
L 595.591564 298.30295 
L 595.957034 299.239283 
L 596.322505 298.068724 
L 596.687975 297.853826 
L 597.053445 297.290461 
L 597.418915 299.160039 
L 597.784386 297.760313 
L 598.149856 297.83417 
L 598.515326 299.806808 
L 598.880796 297.138808 
L 599.246267 300.839715 
L 599.611737 297.462291 
L 599.977207 298.001975 
L 600.342677 300.759895 
L 600.708148 296.462876 
L 601.073618 299.612909 
L 601.439088 298.525064 
L 601.804559 296.96603 
L 602.170029 297.282939 
L 602.535499 296.815509 
L 602.900969 299.215213 
L 603.26644 299.001018 
L 603.63191 297.421949 
L 603.99738 297.619568 
L 604.36285 297.386497 
L 605.093791 298.919538 
L 605.459261 297.628038 
L 605.824731 297.698248 
L 606.190202 297.436096 
L 606.555672 296.832227 
L 606.921142 298.193797 
L 607.286613 297.952043 
L 607.652083 298.86011 
L 608.017553 299.36072 
L 608.383023 298.618582 
L 608.748494 298.550308 
L 609.113964 299.278025 
L 609.479434 298.954262 
L 609.844904 296.62417 
L 610.210375 300.561237 
L 610.575845 298.632799 
L 610.941315 301.764878 
L 611.306785 297.113913 
L 611.672256 300.207147 
L 612.037726 299.488557 
L 612.403196 300.630321 
L 612.768666 298.097013 
L 613.134137 298.449636 
L 613.499607 298.544188 
L 613.865077 299.29269 
L 614.596018 294.36841 
L 614.961488 301.450639 
L 615.326958 298.897029 
L 616.057899 301.029727 
L 616.423369 299.917999 
L 616.788839 300.006301 
L 617.15431 297.169493 
L 617.51978 301.006613 
L 618.25072 298.259397 
L 618.616191 299.369188 
L 618.981661 298.757584 
L 619.347131 299.592776 
L 619.712602 297.990034 
L 620.078072 298.022335 
L 620.443542 299.9202 
L 620.809012 298.195863 
L 621.174483 299.481726 
L 621.539953 297.763731 
L 621.905423 299.279183 
L 622.270893 299.84932 
L 622.636364 298.365918 
L 622.636364 298.365918 
" style="fill:none;stroke:#1f77b4;stroke-linecap:square;stroke-width:0.5;"/>
   </g>
   <g id="line2d_34">
    <path clip-path="url(#pf217b0afb8)" d="M 115.363636 56.619793 
L 115.729107 65.329361 
L 116.094577 70.667665 
L 116.825517 76.310008 
L 117.190988 74.72903 
L 117.556458 78.680714 
L 117.921928 79.7989 
L 118.287398 77.98343 
L 118.652869 80.523154 
L 119.018339 81.118879 
L 119.383809 81.320204 
L 119.74928 82.319083 
L 120.11475 82.411699 
L 120.48022 83.585766 
L 120.84569 84.246086 
L 121.211161 83.808103 
L 121.576631 85.024685 
L 121.942101 85.445924 
L 122.307571 85.423097 
L 122.673042 86.039612 
L 123.038512 86.422532 
L 123.403982 86.083102 
L 124.134923 87.663719 
L 124.500393 89.695249 
L 124.865863 90.240391 
L 125.231334 90.311837 
L 125.596804 90.894206 
L 125.962274 91.185314 
L 126.327744 89.267293 
L 126.693215 91.529468 
L 127.058685 92.006102 
L 127.424155 91.492765 
L 127.789625 93.070416 
L 128.155096 92.216696 
L 128.520566 93.534364 
L 128.886036 93.070371 
L 129.251506 94.98645 
L 129.616977 94.070515 
L 129.982447 93.820307 
L 130.347917 94.14893 
L 130.713387 95.071053 
L 131.078858 95.454901 
L 132.175269 100.281374 
L 132.540739 100.550215 
L 132.906209 100.59003 
L 133.271679 104.555228 
L 133.63715 105.42323 
L 134.00262 107.611435 
L 134.36809 111.703339 
L 134.73356 113.294349 
L 135.464501 121.123432 
L 137.291852 144.269994 
L 137.657323 144.89461 
L 138.022793 145.821612 
L 138.388263 153.671548 
L 138.753733 156.010495 
L 139.484674 163.909178 
L 139.850144 164.563112 
L 140.581085 172.350214 
L 140.946555 178.533264 
L 141.312025 178.6401 
L 141.677495 182.035139 
L 142.042966 184.039819 
L 142.408436 187.861645 
L 142.773906 187.600155 
L 143.139376 194.249043 
L 143.504847 193.993202 
L 143.870317 195.21703 
L 144.235787 200.635978 
L 144.601258 200.781423 
L 144.966728 204.633069 
L 145.332198 203.172717 
L 145.697668 206.012366 
L 146.063139 207.704586 
L 146.794079 213.577424 
L 147.159549 212.201498 
L 147.52502 217.202051 
L 147.89049 216.445772 
L 148.25596 219.79536 
L 148.62143 218.981244 
L 149.352371 223.312655 
L 149.717841 222.264341 
L 150.083312 223.118477 
L 150.448782 225.749655 
L 150.814252 225.555889 
L 151.179722 227.906248 
L 151.545193 228.667995 
L 151.910663 228.127876 
L 152.276133 229.807251 
L 152.641603 228.72799 
L 153.007074 230.935809 
L 153.372544 230.355286 
L 153.738014 230.468248 
L 154.103484 232.659648 
L 154.468955 230.775535 
L 155.199895 234.334222 
L 155.565365 234.110134 
L 155.930836 234.294568 
L 156.296306 234.611582 
L 156.661776 239.691197 
L 157.027247 237.051164 
L 157.392717 239.879285 
L 157.758187 238.797558 
L 158.489128 242.755779 
L 158.854598 240.702785 
L 159.220068 239.648694 
L 159.585538 240.761738 
L 159.951009 244.106063 
L 160.316479 244.343409 
L 161.047419 240.905382 
L 161.41289 242.293774 
L 161.77836 242.321246 
L 162.14383 244.410097 
L 162.5093 245.366676 
L 162.874771 247.051772 
L 163.240241 247.2787 
L 163.605711 247.024579 
L 163.971182 247.788321 
L 164.702122 248.036613 
L 165.067592 251.792419 
L 165.433063 250.218953 
L 165.798533 251.021213 
L 166.164003 249.587226 
L 166.529473 252.660217 
L 166.894944 249.96877 
L 167.260414 250.73355 
L 167.625884 252.59023 
L 167.991354 255.149172 
L 168.356825 253.858533 
L 168.722295 253.795145 
L 169.818706 256.265448 
L 170.184176 256.285071 
L 170.549646 254.873319 
L 170.915117 258.073526 
L 171.646057 257.528741 
L 172.011527 256.449625 
L 172.376998 258.875417 
L 172.742468 258.623092 
L 173.107938 256.568192 
L 173.473408 258.667085 
L 173.838879 258.987877 
L 174.204349 261.484731 
L 174.569819 258.991276 
L 174.935289 261.569651 
L 175.30076 261.255258 
L 175.66623 261.301104 
L 176.0317 258.212456 
L 176.397171 262.771116 
L 177.128111 263.35029 
L 177.493581 262.152529 
L 177.859052 262.518679 
L 178.224522 263.832257 
L 178.589992 262.371603 
L 178.955462 262.022816 
L 179.320933 262.747116 
L 179.686403 266.318313 
L 180.051873 264.772131 
L 180.417343 264.182948 
L 180.782814 264.826546 
L 181.148284 263.609154 
L 181.513754 264.668455 
L 181.879225 267.063691 
L 182.244695 265.481653 
L 182.610165 263.242012 
L 182.975635 266.329899 
L 183.341106 265.584794 
L 184.072046 264.898729 
L 185.168457 267.193463 
L 185.533927 266.453694 
L 185.899397 268.181802 
L 186.264868 265.843428 
L 186.630338 267.4659 
L 186.995808 268.239177 
L 187.361278 267.882019 
L 187.726749 267.835666 
L 188.092219 268.443633 
L 188.457689 267.537032 
L 188.82316 268.122395 
L 189.18863 266.501716 
L 189.5541 267.985173 
L 189.91957 270.526561 
L 190.285041 269.92997 
L 190.650511 268.504142 
L 191.015981 271.636679 
L 191.381451 269.269942 
L 191.746922 269.025215 
L 192.112392 271.365928 
L 192.477862 270.22482 
L 192.843332 267.483579 
L 193.208803 271.570858 
L 193.574273 271.844787 
L 193.939743 270.026901 
L 194.305214 271.983342 
L 194.670684 271.820402 
L 195.036154 268.781871 
L 195.401624 269.793127 
L 195.767095 272.993833 
L 197.228976 268.794169 
L 197.594446 271.496248 
L 197.959916 273.10269 
L 198.325386 272.731836 
L 198.690857 271.979663 
L 199.056327 272.336679 
L 199.421797 272.165653 
L 199.787267 272.160373 
L 200.152738 274.603758 
L 200.518208 271.341528 
L 200.883678 272.262404 
L 201.249149 271.880724 
L 201.614619 274.51821 
L 201.980089 272.856222 
L 202.345559 272.201581 
L 202.71103 272.360732 
L 203.0765 272.226534 
L 203.44197 272.822949 
L 203.80744 272.494923 
L 204.172911 274.438563 
L 204.538381 273.196056 
L 204.903851 275.547865 
L 205.269321 274.407951 
L 206.000262 275.156044 
L 206.365732 276.474713 
L 206.731203 275.039431 
L 207.096673 276.520471 
L 207.462143 275.746395 
L 207.827613 275.998437 
L 208.193084 275.564643 
L 208.558554 276.399502 
L 208.924024 275.561261 
L 209.289494 275.938534 
L 209.654965 274.127545 
L 210.385905 274.467165 
L 210.751375 275.340392 
L 211.116846 276.510785 
L 211.482316 276.288894 
L 211.847786 277.13172 
L 212.213256 275.368781 
L 212.578727 277.750178 
L 212.944197 275.770037 
L 213.675138 276.129702 
L 214.040608 274.395624 
L 214.406078 275.308564 
L 214.771548 275.425266 
L 215.137019 277.118238 
L 215.502489 275.624999 
L 216.233429 278.105465 
L 216.5989 276.505089 
L 216.96437 276.815371 
L 217.32984 277.934554 
L 217.69531 275.786943 
L 218.060781 277.231693 
L 218.426251 279.65983 
L 218.791721 277.651492 
L 219.522662 279.044667 
L 219.888132 274.785694 
L 220.253602 278.752441 
L 220.619073 277.705135 
L 220.984543 277.890971 
L 221.350013 278.936182 
L 221.715483 278.183693 
L 222.080954 276.760574 
L 222.446424 276.335555 
L 223.542835 278.631515 
L 223.908305 278.709243 
L 224.273775 278.606328 
L 224.639245 277.207671 
L 225.004716 278.48769 
L 225.370186 280.264479 
L 225.735656 279.701599 
L 226.101127 276.959953 
L 226.466597 279.694877 
L 226.832067 278.403193 
L 227.197537 279.665249 
L 227.563008 281.584042 
L 227.928478 278.475517 
L 228.293948 278.628531 
L 228.659418 280.609028 
L 229.024889 281.395053 
L 229.390359 279.499086 
L 229.755829 278.810011 
L 230.121299 279.550962 
L 230.48677 277.946798 
L 230.85224 279.722769 
L 231.21771 278.810351 
L 231.583181 280.288312 
L 231.948651 279.484959 
L 232.314121 281.754129 
L 232.679591 278.112525 
L 233.045062 278.615504 
L 233.410532 280.815202 
L 233.776002 277.412043 
L 234.141472 280.304089 
L 234.506943 281.175711 
L 234.872413 280.866932 
L 235.237883 280.068164 
L 235.603353 280.051914 
L 235.968824 280.24941 
L 236.334294 280.650487 
L 236.699764 281.246437 
L 237.065234 277.824616 
L 237.430705 277.816765 
L 237.796175 280.875141 
L 238.161645 280.311097 
L 238.527116 283.613185 
L 238.892586 280.579007 
L 239.258056 278.989233 
L 239.623526 281.377164 
L 239.988997 282.707286 
L 240.354467 280.298101 
L 240.719937 279.49742 
L 241.085407 283.793543 
L 241.450878 281.751189 
L 242.181818 280.053563 
L 242.547288 280.548213 
L 242.912759 281.2821 
L 243.278229 280.90225 
L 243.643699 282.985205 
L 244.00917 280.833328 
L 244.37464 281.050443 
L 245.10558 283.698372 
L 245.471051 283.091488 
L 246.201991 279.037948 
L 246.567461 281.537289 
L 246.932932 282.365573 
L 247.298402 280.346211 
L 247.663872 280.693693 
L 248.029342 281.963037 
L 248.394813 284.177302 
L 248.760283 281.477486 
L 249.125753 281.684193 
L 249.491223 281.384835 
L 249.856694 282.994595 
L 250.222164 282.924835 
L 250.587634 282.206301 
L 250.953105 281.985838 
L 251.318575 280.851089 
L 252.049515 281.867117 
L 252.414986 284.231733 
L 252.780456 284.513176 
L 253.145926 283.825867 
L 253.511396 281.162395 
L 253.876867 285.04723 
L 254.607807 280.52995 
L 254.973277 282.876757 
L 255.338748 282.72932 
L 255.704218 283.187177 
L 256.069688 281.624813 
L 256.435159 283.674178 
L 256.800629 283.449917 
L 257.166099 284.186073 
L 257.531569 282.5433 
L 257.89704 283.260028 
L 258.26251 281.25827 
L 258.62798 283.283923 
L 258.99345 279.465596 
L 259.358921 283.834043 
L 259.724391 282.054175 
L 260.089861 284.224604 
L 260.455331 281.410809 
L 260.820802 283.002321 
L 261.186272 282.98702 
L 261.551742 281.116867 
L 261.917212 282.316773 
L 262.282683 281.955433 
L 262.648153 281.951131 
L 263.013623 284.078001 
L 263.379094 284.398325 
L 263.744564 282.864203 
L 264.110034 282.789251 
L 264.475504 283.218849 
L 265.206445 285.003727 
L 265.571915 285.126526 
L 265.937385 284.340384 
L 266.302856 285.94989 
L 266.668326 283.62237 
L 267.033796 283.38631 
L 267.399266 281.99451 
L 267.764737 281.606164 
L 268.130207 285.73682 
L 268.495677 283.319786 
L 268.861147 282.765057 
L 269.226618 283.949137 
L 269.592088 283.053092 
L 269.957558 284.149958 
L 270.323029 283.378314 
L 270.688499 285.205736 
L 271.053969 281.830056 
L 271.419439 283.589114 
L 271.78491 283.751455 
L 272.15038 282.800028 
L 272.51585 284.916714 
L 272.88132 282.843471 
L 273.246791 284.93301 
L 273.612261 285.567813 
L 273.977731 281.612933 
L 274.343201 283.688403 
L 274.708672 284.448571 
L 275.074142 283.204329 
L 275.439612 286.557233 
L 275.805083 283.737036 
L 276.170553 284.087569 
L 276.536023 282.862686 
L 276.901493 283.958359 
L 277.266964 282.411194 
L 277.632434 285.671329 
L 277.997904 287.691577 
L 278.728845 282.443116 
L 279.094315 286.210255 
L 279.459785 284.030888 
L 279.825255 285.044373 
L 280.190726 284.916428 
L 280.556196 285.145604 
L 280.921666 286.432233 
L 281.287136 283.833492 
L 282.383547 287.843294 
L 282.749018 281.948317 
L 283.114488 284.35422 
L 283.479958 285.666815 
L 283.845428 283.937504 
L 284.210899 284.240331 
L 284.576369 283.75091 
L 284.941839 285.028873 
L 285.307309 283.693957 
L 285.67278 285.858168 
L 286.03825 283.830121 
L 286.40372 284.380939 
L 286.76919 282.760818 
L 287.134661 284.750801 
L 287.500131 284.086153 
L 287.865601 287.812244 
L 288.231072 286.029237 
L 288.596542 287.383695 
L 288.962012 285.1679 
L 289.327482 285.13861 
L 289.692953 285.512648 
L 290.058423 284.721421 
L 290.423893 284.993641 
L 290.789363 285.639553 
L 291.154834 285.394082 
L 291.520304 284.487191 
L 291.885774 282.716812 
L 292.251244 285.41751 
L 292.616715 283.51316 
L 292.982185 285.378733 
L 293.347655 286.022177 
L 293.713125 284.909443 
L 294.078596 282.533407 
L 294.444066 285.538744 
L 294.809536 285.737885 
L 295.175007 286.067189 
L 295.540477 285.86644 
L 295.905947 286.964742 
L 296.271417 284.799409 
L 296.636888 287.704143 
L 297.002358 286.497199 
L 297.367828 286.91523 
L 297.733298 286.857415 
L 298.098769 285.643799 
L 298.464239 286.476332 
L 298.829709 288.007319 
L 299.195179 283.223382 
L 299.56065 285.489889 
L 299.92612 287.01255 
L 300.29159 286.911657 
L 300.657061 286.955697 
L 301.022531 287.318227 
L 301.388001 285.12635 
L 302.118942 286.488218 
L 302.484412 285.203628 
L 302.849882 282.674937 
L 303.215352 281.813468 
L 303.580823 283.617406 
L 303.946293 286.360455 
L 304.311763 285.837002 
L 304.677233 279.618356 
L 305.042704 284.181966 
L 305.408174 285.069231 
L 305.773644 284.793465 
L 306.139114 283.358164 
L 306.504585 287.200534 
L 306.870055 285.708787 
L 307.600996 288.334903 
L 307.966466 286.029203 
L 308.331936 286.23271 
L 308.697406 286.750226 
L 309.062877 286.438506 
L 309.428347 287.857573 
L 309.793817 285.699284 
L 310.159287 286.806593 
L 310.524758 285.523983 
L 311.255698 286.237361 
L 311.621168 285.319439 
L 311.986639 286.848574 
L 312.352109 287.31909 
L 312.717579 286.028081 
L 313.44852 288.860167 
L 313.81399 287.634912 
L 314.17946 287.697532 
L 314.544931 287.598266 
L 314.910401 289.018664 
L 315.275871 284.885675 
L 315.641341 287.808607 
L 316.006812 286.286166 
L 316.372282 288.575759 
L 316.737752 286.661815 
L 317.103222 287.067483 
L 317.468693 287.124135 
L 317.834163 287.887443 
L 318.199633 286.557637 
L 318.565103 287.792188 
L 319.296044 286.428784 
L 319.661514 288.897764 
L 320.026985 288.3812 
L 320.392455 284.266642 
L 320.757925 285.737079 
L 321.123395 288.41987 
L 321.488866 283.814974 
L 321.854336 287.327724 
L 322.219806 288.882797 
L 322.585276 285.178651 
L 322.950747 287.721362 
L 323.316217 286.962576 
L 323.681687 285.540323 
L 324.047157 285.993128 
L 324.412628 286.768778 
L 324.778098 288.24285 
L 325.143568 283.979821 
L 325.509039 288.971327 
L 325.874509 285.46347 
L 326.239979 287.634076 
L 326.605449 287.750891 
L 326.97092 286.110905 
L 327.33639 286.928765 
L 327.70186 288.445217 
L 328.06733 288.277044 
L 328.432801 288.666891 
L 328.798271 284.205504 
L 329.894682 288.804681 
L 330.260152 287.851209 
L 330.625622 288.251517 
L 331.356563 287.470555 
L 331.722033 290.937044 
L 332.452974 286.464615 
L 332.818444 288.656601 
L 333.549384 287.563048 
L 333.914855 289.188257 
L 334.280325 289.412467 
L 334.645795 288.105791 
L 335.011265 288.364177 
L 335.376736 287.843505 
L 335.742206 286.647463 
L 336.107676 286.308322 
L 336.838617 290.955058 
L 337.204087 286.643681 
L 337.569557 288.702655 
L 337.935028 286.689487 
L 338.300498 288.909622 
L 338.665968 287.654992 
L 339.031438 287.448987 
L 339.396909 287.460458 
L 339.762379 285.552016 
L 340.127849 287.230731 
L 340.493319 285.275764 
L 340.85879 288.352699 
L 341.22426 288.438784 
L 341.58973 288.363427 
L 341.9552 286.719554 
L 342.320671 289.014017 
L 342.686141 288.25956 
L 343.051611 290.909861 
L 343.417081 286.391632 
L 343.782552 286.533871 
L 344.148022 288.103248 
L 344.513492 286.661863 
L 344.878963 285.678928 
L 345.244433 286.540195 
L 345.609903 286.192576 
L 345.975373 287.548365 
L 346.340844 287.594643 
L 346.706314 289.732288 
L 347.071784 287.469171 
L 347.437254 288.653644 
L 347.802725 286.256919 
L 348.168195 289.117157 
L 348.533665 287.906991 
L 348.899135 288.6965 
L 349.264606 287.210331 
L 349.630076 290.678679 
L 349.995546 286.724064 
L 350.361017 288.199963 
L 350.726487 287.479741 
L 351.091957 289.044199 
L 351.457427 286.960159 
L 351.822898 287.561231 
L 352.553838 287.068685 
L 352.919308 288.758269 
L 353.284779 288.818018 
L 354.015719 287.170846 
L 354.381189 287.760662 
L 354.74666 289.497997 
L 355.11213 287.522001 
L 355.4776 289.134244 
L 355.84307 288.860363 
L 356.208541 287.476537 
L 356.574011 289.006743 
L 356.939481 286.607167 
L 357.304952 288.978681 
L 357.670422 288.224093 
L 358.035892 288.085215 
L 358.401362 287.573897 
L 359.132303 290.647826 
L 359.497773 290.001679 
L 360.228714 287.123168 
L 360.594184 288.265947 
L 360.959654 288.754978 
L 361.325124 287.445818 
L 361.690595 286.894323 
L 362.056065 288.857907 
L 362.421535 287.719946 
L 363.152476 289.330022 
L 363.517946 288.258822 
L 363.883416 287.724928 
L 364.248887 289.323017 
L 364.614357 289.589219 
L 364.979827 286.881402 
L 365.345297 286.165742 
L 365.710768 287.549696 
L 366.076238 289.41697 
L 366.441708 290.093203 
L 366.807178 288.252967 
L 367.172649 289.935785 
L 367.538119 289.880186 
L 367.903589 288.8677 
L 368.269059 289.444196 
L 368.63453 288.157039 
L 369 289.808415 
L 369.36547 289.211492 
L 369.730941 289.33895 
L 370.096411 289.887284 
L 370.827351 289.049836 
L 371.192822 290.715663 
L 371.558292 289.033441 
L 371.923762 290.665513 
L 372.289232 287.471642 
L 372.654703 287.131742 
L 373.020173 289.152484 
L 373.385643 287.398469 
L 373.751113 288.727891 
L 374.116584 287.760707 
L 374.482054 287.736915 
L 374.847524 287.91451 
L 375.212994 291.578714 
L 375.578465 287.12631 
L 375.943935 289.393631 
L 376.309405 289.115609 
L 376.674876 286.193162 
L 377.040346 289.518735 
L 377.405816 291.083807 
L 377.771286 291.647733 
L 378.136757 287.249624 
L 378.502227 289.650331 
L 378.867697 288.7447 
L 379.233167 289.431282 
L 379.598638 289.172014 
L 379.964108 291.779952 
L 380.329578 287.100135 
L 380.695048 289.186033 
L 381.060519 289.614678 
L 381.425989 288.252879 
L 381.791459 286.074859 
L 382.5224 290.405458 
L 382.88787 288.215471 
L 383.25334 288.086052 
L 383.618811 289.316391 
L 384.349751 287.920519 
L 384.715221 290.325949 
L 385.080692 286.983321 
L 385.446162 289.605142 
L 385.811632 288.737832 
L 386.177102 289.006591 
L 386.908043 288.351555 
L 387.273513 290.995879 
L 387.638983 288.253358 
L 388.369924 287.294529 
L 388.735394 290.463833 
L 389.100865 287.261422 
L 389.466335 289.72459 
L 389.831805 288.532854 
L 390.197275 289.558503 
L 390.562746 289.453753 
L 390.928216 288.617535 
L 391.293686 288.244221 
L 391.659156 288.132087 
L 392.024627 288.87698 
L 392.390097 288.333551 
L 392.755567 288.815466 
L 393.121037 288.020561 
L 393.486508 290.477644 
L 393.851978 289.775969 
L 394.217448 286.724037 
L 394.582919 288.87545 
L 394.948389 292.781655 
L 395.313859 290.395178 
L 395.679329 289.38801 
L 396.0448 289.042621 
L 396.41027 287.056271 
L 396.77574 291.151357 
L 397.14121 289.336772 
L 397.506681 290.048846 
L 397.872151 289.660826 
L 398.237621 293.810957 
L 398.603091 288.568321 
L 398.968562 288.271566 
L 399.334032 288.704897 
L 399.699502 290.767231 
L 400.064972 290.452904 
L 400.430443 288.034043 
L 400.795913 288.381749 
L 401.526854 287.378882 
L 401.892324 289.280777 
L 402.257794 290.14544 
L 402.623264 289.63051 
L 402.988735 289.628036 
L 403.354205 288.49737 
L 403.719675 288.998603 
L 404.085145 291.37645 
L 404.450616 289.976008 
L 404.816086 290.814676 
L 405.181556 290.22074 
L 405.547026 292.577823 
L 405.912497 291.774841 
L 406.277967 290.15074 
L 406.643437 289.290435 
L 407.008908 290.048659 
L 407.374378 290.059197 
L 407.739848 291.235255 
L 408.105318 289.469031 
L 408.470789 288.357026 
L 408.836259 289.165571 
L 409.201729 288.006331 
L 409.567199 288.715974 
L 409.93267 291.821296 
L 410.29814 289.377924 
L 410.66361 289.338888 
L 411.02908 290.759689 
L 411.394551 291.257486 
L 411.760021 289.22702 
L 412.125491 289.577329 
L 412.490961 288.244034 
L 412.856432 293.39742 
L 413.221902 289.312036 
L 413.587372 291.012699 
L 413.952843 290.766183 
L 414.318313 287.574323 
L 415.049253 290.761032 
L 415.414724 291.203172 
L 415.780194 289.75987 
L 416.145664 289.193049 
L 416.511134 292.100782 
L 416.876605 293.432624 
L 417.242075 289.92631 
L 417.607545 288.524956 
L 417.973015 288.879838 
L 418.338486 291.086765 
L 418.703956 289.608068 
L 419.069426 290.608322 
L 419.434897 289.487328 
L 419.800367 289.49457 
L 420.165837 291.098975 
L 420.531307 289.599111 
L 421.262248 292.323505 
L 421.627718 289.584249 
L 421.993188 289.682028 
L 422.358659 291.646423 
L 422.724129 291.475233 
L 423.089599 288.490626 
L 423.455069 290.517056 
L 423.82054 288.396171 
L 424.18601 289.102862 
L 424.55148 291.307084 
L 424.91695 291.552706 
L 425.282421 291.647136 
L 425.647891 291.037481 
L 426.013361 291.41978 
L 426.378832 289.618291 
L 426.744302 290.881583 
L 427.109772 289.949427 
L 427.475242 289.804438 
L 427.840713 289.833046 
L 428.937123 291.543584 
L 429.302594 289.949855 
L 429.668064 289.023657 
L 430.033534 289.722057 
L 430.399004 289.064859 
L 430.764475 288.155086 
L 431.129945 290.022856 
L 431.495415 289.80405 
L 431.860886 289.757907 
L 432.226356 290.5459 
L 432.591826 290.702902 
L 432.957296 290.16191 
L 433.322767 290.799245 
L 433.688237 293.281086 
L 434.053707 291.812798 
L 434.419177 293.023596 
L 434.784648 289.356992 
L 435.150118 289.072527 
L 435.515588 289.374971 
L 435.881058 290.019011 
L 436.246529 291.793304 
L 436.611999 291.082375 
L 436.977469 284.821819 
L 437.342939 288.402975 
L 437.70841 290.016443 
L 438.07388 288.848812 
L 438.43935 288.45073 
L 438.804821 290.534227 
L 439.170291 291.093029 
L 439.535761 290.043426 
L 439.901231 293.153077 
L 440.632172 289.88002 
L 440.997642 291.449627 
L 441.363112 290.995151 
L 441.728583 291.44544 
L 442.094053 292.650568 
L 442.459523 292.14718 
L 442.824993 292.162445 
L 443.190464 293.734375 
L 443.555934 290.030543 
L 443.921404 289.411148 
L 444.286875 291.889755 
L 444.652345 290.661503 
L 445.017815 292.128493 
L 445.383285 291.833086 
L 446.114226 288.75859 
L 446.845166 292.44718 
L 447.210637 292.424739 
L 447.576107 289.304067 
L 447.941577 293.050551 
L 448.307047 291.332015 
L 448.672518 292.213657 
L 449.037988 290.45803 
L 449.403458 289.941303 
L 449.768928 291.082562 
L 450.134399 291.280553 
L 450.865339 292.381351 
L 451.23081 291.904955 
L 451.96175 290.621394 
L 452.32722 290.792873 
L 452.692691 292.232559 
L 453.058161 290.317136 
L 453.423631 290.741771 
L 453.789101 288.251154 
L 454.154572 289.832107 
L 454.520042 290.810971 
L 454.885512 289.691549 
L 455.616453 291.801166 
L 455.981923 287.695811 
L 456.347393 289.292759 
L 456.712864 289.802791 
L 457.078334 291.936321 
L 457.443804 291.224332 
L 457.809274 291.549016 
L 458.174745 288.868256 
L 458.540215 291.924781 
L 458.905685 292.745233 
L 459.271155 292.552426 
L 459.636626 289.165592 
L 460.002096 290.538256 
L 460.367566 289.20204 
L 460.733036 292.965895 
L 461.098507 290.975137 
L 461.463977 290.588431 
L 461.829447 288.315438 
L 462.194917 291.203585 
L 462.560388 290.821624 
L 462.925858 292.782555 
L 463.291328 292.177407 
L 463.656799 292.306706 
L 464.022269 290.471851 
L 464.387739 291.204747 
L 464.753209 289.494779 
L 465.11868 291.771002 
L 465.84962 289.916222 
L 466.21509 290.742751 
L 466.580561 290.078865 
L 466.946031 290.222939 
L 467.676971 292.872548 
L 468.042442 292.328152 
L 468.407912 290.58147 
L 468.773382 291.005541 
L 469.138853 290.744379 
L 469.504323 291.475382 
L 470.235263 288.359771 
L 470.600734 291.753848 
L 470.966204 290.611393 
L 471.331674 291.424125 
L 471.697144 291.086778 
L 472.062615 290.312683 
L 472.793555 292.698196 
L 473.159025 294.29581 
L 473.524496 290.514604 
L 474.620906 292.557497 
L 474.986377 293.806817 
L 475.351847 290.212119 
L 475.717317 289.746099 
L 476.082788 292.529833 
L 476.448258 292.340352 
L 476.813728 290.440922 
L 477.179198 291.894819 
L 477.544669 290.865455 
L 477.910139 291.743229 
L 478.275609 285.589272 
L 478.641079 292.33355 
L 479.00655 291.184301 
L 479.37202 287.870706 
L 479.73749 291.488996 
L 480.468431 289.761423 
L 480.833901 290.153048 
L 481.199371 289.924109 
L 481.564841 290.590459 
L 481.930312 290.114909 
L 482.661252 292.636232 
L 483.392193 289.927583 
L 483.757663 292.451799 
L 484.123133 292.280671 
L 484.488604 291.732378 
L 484.854074 292.643807 
L 485.219544 290.819794 
L 485.585014 291.441402 
L 485.950485 291.422608 
L 486.315955 288.071184 
L 486.681425 291.328093 
L 487.046895 291.71154 
L 487.412366 285.923107 
L 487.777836 290.138514 
L 488.143306 291.605609 
L 488.508777 288.491695 
L 488.874247 291.324843 
L 489.239717 290.780036 
L 489.970658 290.492507 
L 490.336128 291.3124 
L 490.701598 290.922278 
L 491.067068 289.803011 
L 491.432539 292.733394 
L 491.798009 291.842426 
L 492.163479 290.325941 
L 492.528949 292.766045 
L 492.89442 289.005167 
L 493.25989 289.797663 
L 493.62536 291.693095 
L 493.99083 292.051279 
L 494.356301 291.924146 
L 494.721771 292.28471 
L 495.087241 290.482269 
L 495.452712 292.604934 
L 495.818182 291.17327 
L 496.183652 292.636718 
L 496.549122 292.563983 
L 497.280063 291.006737 
L 497.645533 291.368617 
L 498.011003 292.150122 
L 498.376474 291.584849 
L 498.741944 292.254799 
L 499.107414 290.885918 
L 499.472884 289.95764 
L 499.838355 292.315812 
L 500.203825 291.441599 
L 500.569295 293.8196 
L 500.934766 291.879908 
L 501.300236 293.496253 
L 501.665706 291.840735 
L 502.031176 291.351529 
L 502.396647 290.312779 
L 502.762117 293.093288 
L 503.127587 290.631598 
L 503.493057 291.850047 
L 503.858528 290.479094 
L 504.223998 289.644224 
L 504.589468 291.788388 
L 504.954938 289.749665 
L 505.320409 291.779138 
L 505.685879 289.808601 
L 506.051349 292.081227 
L 506.416819 292.566342 
L 506.78229 294.367204 
L 507.14776 292.094981 
L 507.51323 291.561478 
L 507.878701 290.563818 
L 508.244171 290.462314 
L 508.609641 288.704475 
L 508.975111 289.445973 
L 509.340582 291.951438 
L 509.706052 293.577012 
L 510.071522 291.826319 
L 510.436992 292.168786 
L 510.802463 292.997548 
L 511.167933 292.24707 
L 511.533403 288.818549 
L 511.898873 290.690422 
L 512.264344 293.461156 
L 512.629814 291.648701 
L 512.995284 292.879574 
L 513.360755 288.545124 
L 513.726225 291.334348 
L 514.091695 290.940493 
L 514.457165 289.932361 
L 514.822636 291.642162 
L 515.188106 291.844511 
L 515.553576 289.255275 
L 515.919046 292.570571 
L 516.649987 288.065827 
L 517.380927 293.161358 
L 517.746398 289.612015 
L 518.111868 289.736422 
L 518.477338 291.540514 
L 518.842808 291.587683 
L 519.208279 290.005217 
L 519.573749 291.337749 
L 519.939219 290.886618 
L 520.30469 287.949746 
L 520.67016 290.396275 
L 521.03563 288.545283 
L 521.4011 288.988508 
L 521.766571 293.158879 
L 522.132041 292.114475 
L 522.497511 290.412395 
L 522.862981 292.201487 
L 523.228452 289.025044 
L 523.959392 292.836291 
L 524.324862 292.421822 
L 524.690333 294.55625 
L 525.055803 291.648369 
L 525.421273 291.977998 
L 525.786744 291.717011 
L 526.152214 290.990014 
L 526.517684 291.48359 
L 526.883154 291.423372 
L 527.248625 289.200903 
L 527.614095 290.857838 
L 527.979565 291.762036 
L 528.345035 292.322268 
L 528.710506 292.336175 
L 529.075976 290.287356 
L 529.441446 290.384914 
L 529.806916 292.965561 
L 530.172387 292.380832 
L 530.537857 294.056574 
L 530.903327 291.075837 
L 531.268797 296.780294 
L 531.634268 290.423852 
L 531.999738 289.729327 
L 532.365208 293.728063 
L 532.730679 292.962371 
L 533.096149 292.955663 
L 533.461619 290.486408 
L 533.827089 292.723958 
L 534.19256 290.529931 
L 534.55803 291.889536 
L 534.9235 290.602258 
L 535.28897 292.650647 
L 535.654441 291.265935 
L 536.019911 291.028438 
L 537.116322 295.625591 
L 537.847262 291.14372 
L 538.212733 290.68308 
L 538.578203 290.453726 
L 538.943673 293.287616 
L 539.309143 289.634114 
L 539.674614 288.887976 
L 540.040084 290.210817 
L 540.405554 292.753414 
L 540.771024 293.1768 
L 541.136495 290.15662 
L 541.501965 290.04589 
L 541.867435 291.524101 
L 542.232905 291.487402 
L 542.598376 292.001961 
L 542.963846 291.88001 
L 543.329316 293.876589 
L 543.694786 289.876692 
L 544.060257 291.957041 
L 544.425727 292.305375 
L 544.791197 293.52381 
L 545.156668 290.551947 
L 545.522138 291.505826 
L 546.253078 292.340984 
L 546.618549 292.48141 
L 546.984019 290.471625 
L 547.349489 290.358162 
L 547.714959 291.570947 
L 548.08043 291.076296 
L 548.4459 293.077561 
L 549.17684 292.257342 
L 549.542311 292.235944 
L 549.907781 293.332101 
L 550.273251 290.579235 
L 550.638722 290.599231 
L 551.004192 291.555293 
L 551.369662 292.869453 
L 551.735132 290.350825 
L 552.466073 293.780501 
L 552.831543 291.420102 
L 553.197013 292.411759 
L 553.562484 291.765823 
L 553.927954 291.749849 
L 554.293424 292.408934 
L 554.658894 291.734388 
L 555.024365 291.992032 
L 555.389835 293.770683 
L 555.755305 292.033561 
L 556.120775 293.367482 
L 556.486246 288.696302 
L 556.851716 292.481162 
L 557.217186 292.092385 
L 557.582657 289.634021 
L 557.948127 290.846988 
L 558.313597 292.52621 
L 558.679067 292.436815 
L 559.044538 290.463866 
L 559.410008 289.285433 
L 559.775478 289.199707 
L 560.140948 293.238235 
L 560.506419 291.243106 
L 560.871889 290.481525 
L 561.237359 291.133129 
L 561.602829 293.199973 
L 562.33377 290.222522 
L 562.69924 291.839107 
L 563.064711 290.484452 
L 563.430181 293.555058 
L 563.795651 294.217364 
L 564.161121 291.366277 
L 564.526592 290.827572 
L 564.892062 293.146477 
L 565.257532 294.030111 
L 565.623002 291.860193 
L 565.988473 292.633329 
L 566.353943 289.989265 
L 567.084883 291.708266 
L 567.450354 290.861725 
L 567.815824 292.019253 
L 568.181294 292.391289 
L 568.546764 291.577334 
L 568.912235 291.547117 
L 569.277705 292.267929 
L 569.643175 292.525009 
L 570.008646 292.624522 
L 570.374116 287.773035 
L 570.739586 289.45575 
L 571.105056 294.507023 
L 571.470527 291.430019 
L 571.835997 290.589624 
L 572.201467 290.119389 
L 572.566937 292.595142 
L 572.932408 290.599784 
L 573.297878 292.073187 
L 573.663348 293.033404 
L 574.028818 292.694541 
L 574.394289 290.052811 
L 574.759759 290.300276 
L 575.125229 294.012634 
L 575.4907 293.99872 
L 575.85617 289.612996 
L 576.22164 291.300586 
L 576.58711 288.903416 
L 576.952581 291.038426 
L 577.318051 288.721728 
L 577.683521 293.684259 
L 578.414462 290.538341 
L 578.779932 291.493646 
L 579.145402 291.262663 
L 579.510872 293.34591 
L 579.876343 290.626431 
L 580.241813 288.808954 
L 580.607283 292.955141 
L 580.972753 292.186386 
L 581.338224 292.409838 
L 581.703694 291.203204 
L 582.434635 292.688981 
L 582.800105 292.117315 
L 583.165575 291.242235 
L 583.531045 292.048189 
L 583.896516 290.368626 
L 584.261986 293.616624 
L 584.627456 292.346377 
L 584.992926 292.223125 
L 585.358397 292.894987 
L 585.723867 291.039996 
L 586.089337 293.028147 
L 586.454807 290.507916 
L 587.551218 291.741186 
L 587.916688 293.263719 
L 588.282159 292.522642 
L 588.647629 293.341617 
L 589.013099 293.327582 
L 589.37857 292.548952 
L 589.74404 288.985336 
L 590.10951 291.867849 
L 590.47498 291.589772 
L 590.840451 291.035672 
L 591.205921 291.474129 
L 591.571391 289.795755 
L 591.936861 291.703304 
L 592.302332 292.976113 
L 592.667802 290.220396 
L 593.033272 288.672056 
L 593.398742 290.372397 
L 593.764213 293.259769 
L 594.129683 291.523744 
L 594.495153 292.720998 
L 594.860624 292.700197 
L 595.226094 291.640765 
L 595.591564 289.680218 
L 595.957034 290.646094 
L 596.322505 291.183116 
L 596.687975 291.39268 
L 597.053445 292.859379 
L 597.418915 290.803576 
L 597.784386 292.773984 
L 598.149856 291.095613 
L 598.515326 293.260709 
L 598.880796 293.3709 
L 599.246267 290.85811 
L 599.611737 290.579356 
L 599.977207 291.359537 
L 600.342677 294.557693 
L 600.708148 293.817584 
L 601.073618 291.496121 
L 601.439088 291.493207 
L 601.804559 290.548687 
L 602.535499 293.475392 
L 602.900969 292.159867 
L 603.26644 292.903627 
L 603.63191 288.642807 
L 603.99738 292.431613 
L 604.36285 292.629997 
L 604.728321 288.331158 
L 605.459261 291.636839 
L 605.824731 291.574915 
L 606.190202 291.797573 
L 606.555672 291.623096 
L 606.921142 290.935162 
L 607.286613 289.447021 
L 607.652083 292.045428 
L 608.383023 291.398661 
L 608.748494 290.395517 
L 609.113964 292.817718 
L 609.479434 292.085893 
L 609.844904 290.066046 
L 610.210375 292.621392 
L 610.575845 291.314786 
L 610.941315 292.256999 
L 611.306785 291.696561 
L 611.672256 291.383905 
L 612.037726 292.373704 
L 612.403196 289.499716 
L 612.768666 289.917104 
L 613.134137 291.993587 
L 613.499607 291.237555 
L 614.230548 291.83274 
L 614.596018 290.246816 
L 615.326958 294.35842 
L 615.692429 292.307027 
L 616.423369 292.278096 
L 616.788839 291.730148 
L 617.15431 294.612075 
L 617.51978 291.607628 
L 617.88525 291.320257 
L 618.25072 290.519711 
L 618.616191 292.701267 
L 618.981661 291.471131 
L 619.347131 292.083366 
L 619.712602 292.329892 
L 620.078072 294.569516 
L 620.443542 292.509338 
L 620.809012 292.059132 
L 621.174483 289.153081 
L 621.539953 291.844297 
L 621.905423 292.661024 
L 622.270893 294.103954 
L 622.636364 292.666507 
L 622.636364 292.666507 
" style="fill:none;stroke:#ff7f0e;stroke-linecap:square;stroke-width:0.5;"/>
   </g>
   <g id="patch_3">
    <path d="M 90 315 
L 90 43.2 
" style="fill:none;stroke:#000000;stroke-linecap:square;stroke-linejoin:miter;stroke-width:0.8;"/>
   </g>
   <g id="patch_4">
    <path d="M 648 315 
L 648 43.2 
" style="fill:none;stroke:#000000;stroke-linecap:square;stroke-linejoin:miter;stroke-width:0.8;"/>
   </g>
   <g id="patch_5">
    <path d="M 90 315 
L 648 315 
" style="fill:none;stroke:#000000;stroke-linecap:square;stroke-linejoin:miter;stroke-width:0.8;"/>
   </g>
   <g id="patch_6">
    <path d="M 90 43.2 
L 648 43.2 
" style="fill:none;stroke:#000000;stroke-linecap:square;stroke-linejoin:miter;stroke-width:0.8;"/>
   </g>
   <g id="text_19">
    <!-- loss -->
    <g transform="translate(357.410625 37.2)scale(0.12 -0.12)">
     <use xlink:href="#DejaVuSans-108"/>
     <use x="27.783203" xlink:href="#DejaVuSans-111"/>
     <use x="88.964844" xlink:href="#DejaVuSans-115"/>
     <use x="141.064453" xlink:href="#DejaVuSans-115"/>
    </g>
   </g>
   <g id="legend_1">
    <g id="patch_7">
     <path d="M 568.846875 80.55625 
L 641 80.55625 
Q 643 80.55625 643 78.55625 
L 643 50.2 
Q 643 48.2 641 48.2 
L 568.846875 48.2 
Q 566.846875 48.2 566.846875 50.2 
L 566.846875 78.55625 
Q 566.846875 80.55625 568.846875 80.55625 
z
" style="fill:#ffffff;opacity:0.8;stroke:#cccccc;stroke-linejoin:miter;"/>
    </g>
    <g id="line2d_35">
     <path d="M 570.846875 56.298437 
L 590.846875 56.298437 
" style="fill:none;stroke:#1f77b4;stroke-linecap:square;stroke-width:0.5;"/>
    </g>
    <g id="line2d_36"/>
    <g id="text_20">
     <!-- train -->
     <defs>
      <path d="M 18.3125 70.21875 
L 18.3125 54.6875 
L 36.8125 54.6875 
L 36.8125 47.703125 
L 18.3125 47.703125 
L 18.3125 18.015625 
Q 18.3125 11.328125 20.140625 9.421875 
Q 21.96875 7.515625 27.59375 7.515625 
L 36.8125 7.515625 
L 36.8125 0 
L 27.59375 0 
Q 17.1875 0 13.234375 3.875 
Q 9.28125 7.765625 9.28125 18.015625 
L 9.28125 47.703125 
L 2.6875 47.703125 
L 2.6875 54.6875 
L 9.28125 54.6875 
L 9.28125 70.21875 
z
" id="DejaVuSans-116"/>
      <path d="M 41.109375 46.296875 
Q 39.59375 47.171875 37.8125 47.578125 
Q 36.03125 48 33.890625 48 
Q 26.265625 48 22.1875 43.046875 
Q 18.109375 38.09375 18.109375 28.8125 
L 18.109375 0 
L 9.078125 0 
L 9.078125 54.6875 
L 18.109375 54.6875 
L 18.109375 46.1875 
Q 20.953125 51.171875 25.484375 53.578125 
Q 30.03125 56 36.53125 56 
Q 37.453125 56 38.578125 55.875 
Q 39.703125 55.765625 41.0625 55.515625 
z
" id="DejaVuSans-114"/>
      <path d="M 34.28125 27.484375 
Q 23.390625 27.484375 19.1875 25 
Q 14.984375 22.515625 14.984375 16.5 
Q 14.984375 11.71875 18.140625 8.90625 
Q 21.296875 6.109375 26.703125 6.109375 
Q 34.1875 6.109375 38.703125 11.40625 
Q 43.21875 16.703125 43.21875 25.484375 
L 43.21875 27.484375 
z
M 52.203125 31.203125 
L 52.203125 0 
L 43.21875 0 
L 43.21875 8.296875 
Q 40.140625 3.328125 35.546875 0.953125 
Q 30.953125 -1.421875 24.3125 -1.421875 
Q 15.921875 -1.421875 10.953125 3.296875 
Q 6 8.015625 6 15.921875 
Q 6 25.140625 12.171875 29.828125 
Q 18.359375 34.515625 30.609375 34.515625 
L 43.21875 34.515625 
L 43.21875 35.40625 
Q 43.21875 41.609375 39.140625 45 
Q 35.0625 48.390625 27.6875 48.390625 
Q 23 48.390625 18.546875 47.265625 
Q 14.109375 46.140625 10.015625 43.890625 
L 10.015625 52.203125 
Q 14.9375 54.109375 19.578125 55.046875 
Q 24.21875 56 28.609375 56 
Q 40.484375 56 46.34375 49.84375 
Q 52.203125 43.703125 52.203125 31.203125 
z
" id="DejaVuSans-97"/>
      <path d="M 9.421875 54.6875 
L 18.40625 54.6875 
L 18.40625 0 
L 9.421875 0 
z
M 9.421875 75.984375 
L 18.40625 75.984375 
L 18.40625 64.59375 
L 9.421875 64.59375 
z
" id="DejaVuSans-105"/>
      <path d="M 54.890625 33.015625 
L 54.890625 0 
L 45.90625 0 
L 45.90625 32.71875 
Q 45.90625 40.484375 42.875 44.328125 
Q 39.84375 48.1875 33.796875 48.1875 
Q 26.515625 48.1875 22.3125 43.546875 
Q 18.109375 38.921875 18.109375 30.90625 
L 18.109375 0 
L 9.078125 0 
L 9.078125 54.6875 
L 18.109375 54.6875 
L 18.109375 46.1875 
Q 21.34375 51.125 25.703125 53.5625 
Q 30.078125 56 35.796875 56 
Q 45.21875 56 50.046875 50.171875 
Q 54.890625 44.34375 54.890625 33.015625 
z
" id="DejaVuSans-110"/>
     </defs>
     <g transform="translate(598.846875 59.798437)scale(0.1 -0.1)">
      <use xlink:href="#DejaVuSans-116"/>
      <use x="39.208984" xlink:href="#DejaVuSans-114"/>
      <use x="80.322266" xlink:href="#DejaVuSans-97"/>
      <use x="141.601562" xlink:href="#DejaVuSans-105"/>
      <use x="169.384766" xlink:href="#DejaVuSans-110"/>
     </g>
    </g>
    <g id="line2d_37">
     <path d="M 570.846875 70.976562 
L 590.846875 70.976562 
" style="fill:none;stroke:#ff7f0e;stroke-linecap:square;stroke-width:0.5;"/>
    </g>
    <g id="line2d_38"/>
    <g id="text_21">
     <!-- validate -->
     <defs>
      <path d="M 2.984375 54.6875 
L 12.5 54.6875 
L 29.59375 8.796875 
L 46.6875 54.6875 
L 56.203125 54.6875 
L 35.6875 0 
L 23.484375 0 
z
" id="DejaVuSans-118"/>
      <path d="M 45.40625 46.390625 
L 45.40625 75.984375 
L 54.390625 75.984375 
L 54.390625 0 
L 45.40625 0 
L 45.40625 8.203125 
Q 42.578125 3.328125 38.25 0.953125 
Q 33.9375 -1.421875 27.875 -1.421875 
Q 17.96875 -1.421875 11.734375 6.484375 
Q 5.515625 14.40625 5.515625 27.296875 
Q 5.515625 40.1875 11.734375 48.09375 
Q 17.96875 56 27.875 56 
Q 33.9375 56 38.25 53.625 
Q 42.578125 51.265625 45.40625 46.390625 
z
M 14.796875 27.296875 
Q 14.796875 17.390625 18.875 11.75 
Q 22.953125 6.109375 30.078125 6.109375 
Q 37.203125 6.109375 41.296875 11.75 
Q 45.40625 17.390625 45.40625 27.296875 
Q 45.40625 37.203125 41.296875 42.84375 
Q 37.203125 48.484375 30.078125 48.484375 
Q 22.953125 48.484375 18.875 42.84375 
Q 14.796875 37.203125 14.796875 27.296875 
z
" id="DejaVuSans-100"/>
     </defs>
     <g transform="translate(598.846875 74.476562)scale(0.1 -0.1)">
      <use xlink:href="#DejaVuSans-118"/>
      <use x="59.179688" xlink:href="#DejaVuSans-97"/>
      <use x="120.458984" xlink:href="#DejaVuSans-108"/>
      <use x="148.242188" xlink:href="#DejaVuSans-105"/>
      <use x="176.025391" xlink:href="#DejaVuSans-100"/>
      <use x="239.501953" xlink:href="#DejaVuSans-97"/>
      <use x="300.78125" xlink:href="#DejaVuSans-116"/>
      <use x="339.990234" xlink:href="#DejaVuSans-101"/>
     </g>
    </g>
   </g>
  </g>
 </g>
 <defs>
  <clipPath id="pf217b0afb8">
   <rect height="271.8" width="558" x="90" y="43.2"/>
  </clipPath>
 </defs>
</svg>
