<?xml version="1.0" encoding="utf-8" standalone="no"?>
<!DOCTYPE svg PUBLIC "-//W3C//DTD SVG 1.1//EN"
  "http://www.w3.org/Graphics/SVG/1.1/DTD/svg11.dtd">
<!-- Created with matplotlib (https://matplotlib.org/) -->
<svg height="360pt" version="1.1" viewBox="0 0 720 360" width="720pt" xmlns="http://www.w3.org/2000/svg" xmlns:xlink="http://www.w3.org/1999/xlink">
 <defs>
  <style type="text/css">
*{stroke-linecap:butt;stroke-linejoin:round;}
  </style>
 </defs>
 <g id="figure_1">
  <g id="patch_1">
   <path d="M 0 360 
L 720 360 
L 720 0 
L 0 0 
z
" style="fill:#ffffff;"/>
  </g>
  <g id="axes_1">
   <g id="patch_2">
    <path d="M 90 315 
L 648 315 
L 648 43.2 
L 90 43.2 
z
" style="fill:#ffffff;"/>
   </g>
   <g id="matplotlib.axis_1">
    <g id="xtick_1">
     <g id="line2d_1">
      <path clip-path="url(#pbeff68ad28)" d="M 115.363636 315 
L 115.363636 43.2 
" style="fill:none;stroke:#b0b0b0;stroke-linecap:square;stroke-width:0.8;"/>
     </g>
     <g id="line2d_2">
      <defs>
       <path d="M 0 0 
L 0 3.5 
" id="medc81ee412" style="stroke:#000000;stroke-width:0.8;"/>
      </defs>
      <g>
       <use style="stroke:#000000;stroke-width:0.8;" x="115.363636" xlink:href="#medc81ee412" y="315"/>
      </g>
     </g>
     <g id="text_1">
      <!-- 0 -->
      <defs>
       <path d="M 31.78125 66.40625 
Q 24.171875 66.40625 20.328125 58.90625 
Q 16.5 51.421875 16.5 36.375 
Q 16.5 21.390625 20.328125 13.890625 
Q 24.171875 6.390625 31.78125 6.390625 
Q 39.453125 6.390625 43.28125 13.890625 
Q 47.125 21.390625 47.125 36.375 
Q 47.125 51.421875 43.28125 58.90625 
Q 39.453125 66.40625 31.78125 66.40625 
z
M 31.78125 74.21875 
Q 44.046875 74.21875 50.515625 64.515625 
Q 56.984375 54.828125 56.984375 36.375 
Q 56.984375 17.96875 50.515625 8.265625 
Q 44.046875 -1.421875 31.78125 -1.421875 
Q 19.53125 -1.421875 13.0625 8.265625 
Q 6.59375 17.96875 6.59375 36.375 
Q 6.59375 54.828125 13.0625 64.515625 
Q 19.53125 74.21875 31.78125 74.21875 
z
" id="DejaVuSans-48"/>
      </defs>
      <g transform="translate(112.182386 329.598437)scale(0.1 -0.1)">
       <use xlink:href="#DejaVuSans-48"/>
      </g>
     </g>
    </g>
    <g id="xtick_2">
     <g id="line2d_3">
      <path clip-path="url(#pbeff68ad28)" d="M 214.247209 315 
L 214.247209 43.2 
" style="fill:none;stroke:#b0b0b0;stroke-linecap:square;stroke-width:0.8;"/>
     </g>
     <g id="line2d_4">
      <g>
       <use style="stroke:#000000;stroke-width:0.8;" x="214.247209" xlink:href="#medc81ee412" y="315"/>
      </g>
     </g>
     <g id="text_2">
      <!-- 200 -->
      <defs>
       <path d="M 19.1875 8.296875 
L 53.609375 8.296875 
L 53.609375 0 
L 7.328125 0 
L 7.328125 8.296875 
Q 12.9375 14.109375 22.625 23.890625 
Q 32.328125 33.6875 34.8125 36.53125 
Q 39.546875 41.84375 41.421875 45.53125 
Q 43.3125 49.21875 43.3125 52.78125 
Q 43.3125 58.59375 39.234375 62.25 
Q 35.15625 65.921875 28.609375 65.921875 
Q 23.96875 65.921875 18.8125 64.3125 
Q 13.671875 62.703125 7.8125 59.421875 
L 7.8125 69.390625 
Q 13.765625 71.78125 18.9375 73 
Q 24.125 74.21875 28.421875 74.21875 
Q 39.75 74.21875 46.484375 68.546875 
Q 53.21875 62.890625 53.21875 53.421875 
Q 53.21875 48.921875 51.53125 44.890625 
Q 49.859375 40.875 45.40625 35.40625 
Q 44.1875 33.984375 37.640625 27.21875 
Q 31.109375 20.453125 19.1875 8.296875 
z
" id="DejaVuSans-50"/>
      </defs>
      <g transform="translate(204.703459 329.598437)scale(0.1 -0.1)">
       <use xlink:href="#DejaVuSans-50"/>
       <use x="63.623047" xlink:href="#DejaVuSans-48"/>
       <use x="127.246094" xlink:href="#DejaVuSans-48"/>
      </g>
     </g>
    </g>
    <g id="xtick_3">
     <g id="line2d_5">
      <path clip-path="url(#pbeff68ad28)" d="M 313.130781 315 
L 313.130781 43.2 
" style="fill:none;stroke:#b0b0b0;stroke-linecap:square;stroke-width:0.8;"/>
     </g>
     <g id="line2d_6">
      <g>
       <use style="stroke:#000000;stroke-width:0.8;" x="313.130781" xlink:href="#medc81ee412" y="315"/>
      </g>
     </g>
     <g id="text_3">
      <!-- 400 -->
      <defs>
       <path d="M 37.796875 64.3125 
L 12.890625 25.390625 
L 37.796875 25.390625 
z
M 35.203125 72.90625 
L 47.609375 72.90625 
L 47.609375 25.390625 
L 58.015625 25.390625 
L 58.015625 17.1875 
L 47.609375 17.1875 
L 47.609375 0 
L 37.796875 0 
L 37.796875 17.1875 
L 4.890625 17.1875 
L 4.890625 26.703125 
z
" id="DejaVuSans-52"/>
      </defs>
      <g transform="translate(303.587031 329.598437)scale(0.1 -0.1)">
       <use xlink:href="#DejaVuSans-52"/>
       <use x="63.623047" xlink:href="#DejaVuSans-48"/>
       <use x="127.246094" xlink:href="#DejaVuSans-48"/>
      </g>
     </g>
    </g>
    <g id="xtick_4">
     <g id="line2d_7">
      <path clip-path="url(#pbeff68ad28)" d="M 412.014354 315 
L 412.014354 43.2 
" style="fill:none;stroke:#b0b0b0;stroke-linecap:square;stroke-width:0.8;"/>
     </g>
     <g id="line2d_8">
      <g>
       <use style="stroke:#000000;stroke-width:0.8;" x="412.014354" xlink:href="#medc81ee412" y="315"/>
      </g>
     </g>
     <g id="text_4">
      <!-- 600 -->
      <defs>
       <path d="M 33.015625 40.375 
Q 26.375 40.375 22.484375 35.828125 
Q 18.609375 31.296875 18.609375 23.390625 
Q 18.609375 15.53125 22.484375 10.953125 
Q 26.375 6.390625 33.015625 6.390625 
Q 39.65625 6.390625 43.53125 10.953125 
Q 47.40625 15.53125 47.40625 23.390625 
Q 47.40625 31.296875 43.53125 35.828125 
Q 39.65625 40.375 33.015625 40.375 
z
M 52.59375 71.296875 
L 52.59375 62.3125 
Q 48.875 64.0625 45.09375 64.984375 
Q 41.3125 65.921875 37.59375 65.921875 
Q 27.828125 65.921875 22.671875 59.328125 
Q 17.53125 52.734375 16.796875 39.40625 
Q 19.671875 43.65625 24.015625 45.921875 
Q 28.375 48.1875 33.59375 48.1875 
Q 44.578125 48.1875 50.953125 41.515625 
Q 57.328125 34.859375 57.328125 23.390625 
Q 57.328125 12.15625 50.6875 5.359375 
Q 44.046875 -1.421875 33.015625 -1.421875 
Q 20.359375 -1.421875 13.671875 8.265625 
Q 6.984375 17.96875 6.984375 36.375 
Q 6.984375 53.65625 15.1875 63.9375 
Q 23.390625 74.21875 37.203125 74.21875 
Q 40.921875 74.21875 44.703125 73.484375 
Q 48.484375 72.75 52.59375 71.296875 
z
" id="DejaVuSans-54"/>
      </defs>
      <g transform="translate(402.470604 329.598437)scale(0.1 -0.1)">
       <use xlink:href="#DejaVuSans-54"/>
       <use x="63.623047" xlink:href="#DejaVuSans-48"/>
       <use x="127.246094" xlink:href="#DejaVuSans-48"/>
      </g>
     </g>
    </g>
    <g id="xtick_5">
     <g id="line2d_9">
      <path clip-path="url(#pbeff68ad28)" d="M 510.897927 315 
L 510.897927 43.2 
" style="fill:none;stroke:#b0b0b0;stroke-linecap:square;stroke-width:0.8;"/>
     </g>
     <g id="line2d_10">
      <g>
       <use style="stroke:#000000;stroke-width:0.8;" x="510.897927" xlink:href="#medc81ee412" y="315"/>
      </g>
     </g>
     <g id="text_5">
      <!-- 800 -->
      <defs>
       <path d="M 31.78125 34.625 
Q 24.75 34.625 20.71875 30.859375 
Q 16.703125 27.09375 16.703125 20.515625 
Q 16.703125 13.921875 20.71875 10.15625 
Q 24.75 6.390625 31.78125 6.390625 
Q 38.8125 6.390625 42.859375 10.171875 
Q 46.921875 13.96875 46.921875 20.515625 
Q 46.921875 27.09375 42.890625 30.859375 
Q 38.875 34.625 31.78125 34.625 
z
M 21.921875 38.8125 
Q 15.578125 40.375 12.03125 44.71875 
Q 8.5 49.078125 8.5 55.328125 
Q 8.5 64.0625 14.71875 69.140625 
Q 20.953125 74.21875 31.78125 74.21875 
Q 42.671875 74.21875 48.875 69.140625 
Q 55.078125 64.0625 55.078125 55.328125 
Q 55.078125 49.078125 51.53125 44.71875 
Q 48 40.375 41.703125 38.8125 
Q 48.828125 37.15625 52.796875 32.3125 
Q 56.78125 27.484375 56.78125 20.515625 
Q 56.78125 9.90625 50.3125 4.234375 
Q 43.84375 -1.421875 31.78125 -1.421875 
Q 19.734375 -1.421875 13.25 4.234375 
Q 6.78125 9.90625 6.78125 20.515625 
Q 6.78125 27.484375 10.78125 32.3125 
Q 14.796875 37.15625 21.921875 38.8125 
z
M 18.3125 54.390625 
Q 18.3125 48.734375 21.84375 45.5625 
Q 25.390625 42.390625 31.78125 42.390625 
Q 38.140625 42.390625 41.71875 45.5625 
Q 45.3125 48.734375 45.3125 54.390625 
Q 45.3125 60.0625 41.71875 63.234375 
Q 38.140625 66.40625 31.78125 66.40625 
Q 25.390625 66.40625 21.84375 63.234375 
Q 18.3125 60.0625 18.3125 54.390625 
z
" id="DejaVuSans-56"/>
      </defs>
      <g transform="translate(501.354177 329.598437)scale(0.1 -0.1)">
       <use xlink:href="#DejaVuSans-56"/>
       <use x="63.623047" xlink:href="#DejaVuSans-48"/>
       <use x="127.246094" xlink:href="#DejaVuSans-48"/>
      </g>
     </g>
    </g>
    <g id="xtick_6">
     <g id="line2d_11">
      <path clip-path="url(#pbeff68ad28)" d="M 609.781499 315 
L 609.781499 43.2 
" style="fill:none;stroke:#b0b0b0;stroke-linecap:square;stroke-width:0.8;"/>
     </g>
     <g id="line2d_12">
      <g>
       <use style="stroke:#000000;stroke-width:0.8;" x="609.781499" xlink:href="#medc81ee412" y="315"/>
      </g>
     </g>
     <g id="text_6">
      <!-- 1000 -->
      <defs>
       <path d="M 12.40625 8.296875 
L 28.515625 8.296875 
L 28.515625 63.921875 
L 10.984375 60.40625 
L 10.984375 69.390625 
L 28.421875 72.90625 
L 38.28125 72.90625 
L 38.28125 8.296875 
L 54.390625 8.296875 
L 54.390625 0 
L 12.40625 0 
z
" id="DejaVuSans-49"/>
      </defs>
      <g transform="translate(597.056499 329.598437)scale(0.1 -0.1)">
       <use xlink:href="#DejaVuSans-49"/>
       <use x="63.623047" xlink:href="#DejaVuSans-48"/>
       <use x="127.246094" xlink:href="#DejaVuSans-48"/>
       <use x="190.869141" xlink:href="#DejaVuSans-48"/>
      </g>
     </g>
    </g>
    <g id="text_7">
     <!-- epoch -->
     <defs>
      <path d="M 56.203125 29.59375 
L 56.203125 25.203125 
L 14.890625 25.203125 
Q 15.484375 15.921875 20.484375 11.0625 
Q 25.484375 6.203125 34.421875 6.203125 
Q 39.59375 6.203125 44.453125 7.46875 
Q 49.3125 8.734375 54.109375 11.28125 
L 54.109375 2.78125 
Q 49.265625 0.734375 44.1875 -0.34375 
Q 39.109375 -1.421875 33.890625 -1.421875 
Q 20.796875 -1.421875 13.15625 6.1875 
Q 5.515625 13.8125 5.515625 26.8125 
Q 5.515625 40.234375 12.765625 48.109375 
Q 20.015625 56 32.328125 56 
Q 43.359375 56 49.78125 48.890625 
Q 56.203125 41.796875 56.203125 29.59375 
z
M 47.21875 32.234375 
Q 47.125 39.59375 43.09375 43.984375 
Q 39.0625 48.390625 32.421875 48.390625 
Q 24.90625 48.390625 20.390625 44.140625 
Q 15.875 39.890625 15.1875 32.171875 
z
" id="DejaVuSans-101"/>
      <path d="M 18.109375 8.203125 
L 18.109375 -20.796875 
L 9.078125 -20.796875 
L 9.078125 54.6875 
L 18.109375 54.6875 
L 18.109375 46.390625 
Q 20.953125 51.265625 25.265625 53.625 
Q 29.59375 56 35.59375 56 
Q 45.5625 56 51.78125 48.09375 
Q 58.015625 40.1875 58.015625 27.296875 
Q 58.015625 14.40625 51.78125 6.484375 
Q 45.5625 -1.421875 35.59375 -1.421875 
Q 29.59375 -1.421875 25.265625 0.953125 
Q 20.953125 3.328125 18.109375 8.203125 
z
M 48.6875 27.296875 
Q 48.6875 37.203125 44.609375 42.84375 
Q 40.53125 48.484375 33.40625 48.484375 
Q 26.265625 48.484375 22.1875 42.84375 
Q 18.109375 37.203125 18.109375 27.296875 
Q 18.109375 17.390625 22.1875 11.75 
Q 26.265625 6.109375 33.40625 6.109375 
Q 40.53125 6.109375 44.609375 11.75 
Q 48.6875 17.390625 48.6875 27.296875 
z
" id="DejaVuSans-112"/>
      <path d="M 30.609375 48.390625 
Q 23.390625 48.390625 19.1875 42.75 
Q 14.984375 37.109375 14.984375 27.296875 
Q 14.984375 17.484375 19.15625 11.84375 
Q 23.34375 6.203125 30.609375 6.203125 
Q 37.796875 6.203125 41.984375 11.859375 
Q 46.1875 17.53125 46.1875 27.296875 
Q 46.1875 37.015625 41.984375 42.703125 
Q 37.796875 48.390625 30.609375 48.390625 
z
M 30.609375 56 
Q 42.328125 56 49.015625 48.375 
Q 55.71875 40.765625 55.71875 27.296875 
Q 55.71875 13.875 49.015625 6.21875 
Q 42.328125 -1.421875 30.609375 -1.421875 
Q 18.84375 -1.421875 12.171875 6.21875 
Q 5.515625 13.875 5.515625 27.296875 
Q 5.515625 40.765625 12.171875 48.375 
Q 18.84375 56 30.609375 56 
z
" id="DejaVuSans-111"/>
      <path d="M 48.78125 52.59375 
L 48.78125 44.1875 
Q 44.96875 46.296875 41.140625 47.34375 
Q 37.3125 48.390625 33.40625 48.390625 
Q 24.65625 48.390625 19.8125 42.84375 
Q 14.984375 37.3125 14.984375 27.296875 
Q 14.984375 17.28125 19.8125 11.734375 
Q 24.65625 6.203125 33.40625 6.203125 
Q 37.3125 6.203125 41.140625 7.25 
Q 44.96875 8.296875 48.78125 10.40625 
L 48.78125 2.09375 
Q 45.015625 0.34375 40.984375 -0.53125 
Q 36.96875 -1.421875 32.421875 -1.421875 
Q 20.0625 -1.421875 12.78125 6.34375 
Q 5.515625 14.109375 5.515625 27.296875 
Q 5.515625 40.671875 12.859375 48.328125 
Q 20.21875 56 33.015625 56 
Q 37.15625 56 41.109375 55.140625 
Q 45.0625 54.296875 48.78125 52.59375 
z
" id="DejaVuSans-99"/>
      <path d="M 54.890625 33.015625 
L 54.890625 0 
L 45.90625 0 
L 45.90625 32.71875 
Q 45.90625 40.484375 42.875 44.328125 
Q 39.84375 48.1875 33.796875 48.1875 
Q 26.515625 48.1875 22.3125 43.546875 
Q 18.109375 38.921875 18.109375 30.90625 
L 18.109375 0 
L 9.078125 0 
L 9.078125 75.984375 
L 18.109375 75.984375 
L 18.109375 46.1875 
Q 21.34375 51.125 25.703125 53.5625 
Q 30.078125 56 35.796875 56 
Q 45.21875 56 50.046875 50.171875 
Q 54.890625 44.34375 54.890625 33.015625 
z
" id="DejaVuSans-104"/>
     </defs>
     <g transform="translate(353.771875 343.276563)scale(0.1 -0.1)">
      <use xlink:href="#DejaVuSans-101"/>
      <use x="61.523438" xlink:href="#DejaVuSans-112"/>
      <use x="125" xlink:href="#DejaVuSans-111"/>
      <use x="186.181641" xlink:href="#DejaVuSans-99"/>
      <use x="241.162109" xlink:href="#DejaVuSans-104"/>
     </g>
    </g>
   </g>
   <g id="matplotlib.axis_2">
    <g id="ytick_1">
     <g id="line2d_13">
      <path clip-path="url(#pbeff68ad28)" d="M 90 284.46944 
L 648 284.46944 
" style="fill:none;stroke:#b0b0b0;stroke-linecap:square;stroke-width:0.8;"/>
     </g>
     <g id="line2d_14">
      <defs>
       <path d="M 0 0 
L -3.5 0 
" id="md9632d147f" style="stroke:#000000;stroke-width:0.8;"/>
      </defs>
      <g>
       <use style="stroke:#000000;stroke-width:0.8;" x="90" xlink:href="#md9632d147f" y="284.46944"/>
      </g>
     </g>
     <g id="text_8">
      <!-- 0.3 -->
      <defs>
       <path d="M 10.6875 12.40625 
L 21 12.40625 
L 21 0 
L 10.6875 0 
z
" id="DejaVuSans-46"/>
       <path d="M 40.578125 39.3125 
Q 47.65625 37.796875 51.625 33 
Q 55.609375 28.21875 55.609375 21.1875 
Q 55.609375 10.40625 48.1875 4.484375 
Q 40.765625 -1.421875 27.09375 -1.421875 
Q 22.515625 -1.421875 17.65625 -0.515625 
Q 12.796875 0.390625 7.625 2.203125 
L 7.625 11.71875 
Q 11.71875 9.328125 16.59375 8.109375 
Q 21.484375 6.890625 26.8125 6.890625 
Q 36.078125 6.890625 40.9375 10.546875 
Q 45.796875 14.203125 45.796875 21.1875 
Q 45.796875 27.640625 41.28125 31.265625 
Q 36.765625 34.90625 28.71875 34.90625 
L 20.21875 34.90625 
L 20.21875 43.015625 
L 29.109375 43.015625 
Q 36.375 43.015625 40.234375 45.921875 
Q 44.09375 48.828125 44.09375 54.296875 
Q 44.09375 59.90625 40.109375 62.90625 
Q 36.140625 65.921875 28.71875 65.921875 
Q 24.65625 65.921875 20.015625 65.03125 
Q 15.375 64.15625 9.8125 62.3125 
L 9.8125 71.09375 
Q 15.4375 72.65625 20.34375 73.4375 
Q 25.25 74.21875 29.59375 74.21875 
Q 40.828125 74.21875 47.359375 69.109375 
Q 53.90625 64.015625 53.90625 55.328125 
Q 53.90625 49.265625 50.4375 45.09375 
Q 46.96875 40.921875 40.578125 39.3125 
z
" id="DejaVuSans-51"/>
      </defs>
      <g transform="translate(67.096875 288.268659)scale(0.1 -0.1)">
       <use xlink:href="#DejaVuSans-48"/>
       <use x="63.623047" xlink:href="#DejaVuSans-46"/>
       <use x="95.410156" xlink:href="#DejaVuSans-51"/>
      </g>
     </g>
    </g>
    <g id="ytick_2">
     <g id="line2d_15">
      <path clip-path="url(#pbeff68ad28)" d="M 90 250.175074 
L 648 250.175074 
" style="fill:none;stroke:#b0b0b0;stroke-linecap:square;stroke-width:0.8;"/>
     </g>
     <g id="line2d_16">
      <g>
       <use style="stroke:#000000;stroke-width:0.8;" x="90" xlink:href="#md9632d147f" y="250.175074"/>
      </g>
     </g>
     <g id="text_9">
      <!-- 0.4 -->
      <g transform="translate(67.096875 253.974293)scale(0.1 -0.1)">
       <use xlink:href="#DejaVuSans-48"/>
       <use x="63.623047" xlink:href="#DejaVuSans-46"/>
       <use x="95.410156" xlink:href="#DejaVuSans-52"/>
      </g>
     </g>
    </g>
    <g id="ytick_3">
     <g id="line2d_17">
      <path clip-path="url(#pbeff68ad28)" d="M 90 215.880708 
L 648 215.880708 
" style="fill:none;stroke:#b0b0b0;stroke-linecap:square;stroke-width:0.8;"/>
     </g>
     <g id="line2d_18">
      <g>
       <use style="stroke:#000000;stroke-width:0.8;" x="90" xlink:href="#md9632d147f" y="215.880708"/>
      </g>
     </g>
     <g id="text_10">
      <!-- 0.5 -->
      <defs>
       <path d="M 10.796875 72.90625 
L 49.515625 72.90625 
L 49.515625 64.59375 
L 19.828125 64.59375 
L 19.828125 46.734375 
Q 21.96875 47.46875 24.109375 47.828125 
Q 26.265625 48.1875 28.421875 48.1875 
Q 40.625 48.1875 47.75 41.5 
Q 54.890625 34.8125 54.890625 23.390625 
Q 54.890625 11.625 47.5625 5.09375 
Q 40.234375 -1.421875 26.90625 -1.421875 
Q 22.3125 -1.421875 17.546875 -0.640625 
Q 12.796875 0.140625 7.71875 1.703125 
L 7.71875 11.625 
Q 12.109375 9.234375 16.796875 8.0625 
Q 21.484375 6.890625 26.703125 6.890625 
Q 35.15625 6.890625 40.078125 11.328125 
Q 45.015625 15.765625 45.015625 23.390625 
Q 45.015625 31 40.078125 35.4375 
Q 35.15625 39.890625 26.703125 39.890625 
Q 22.75 39.890625 18.8125 39.015625 
Q 14.890625 38.140625 10.796875 36.28125 
z
" id="DejaVuSans-53"/>
      </defs>
      <g transform="translate(67.096875 219.679927)scale(0.1 -0.1)">
       <use xlink:href="#DejaVuSans-48"/>
       <use x="63.623047" xlink:href="#DejaVuSans-46"/>
       <use x="95.410156" xlink:href="#DejaVuSans-53"/>
      </g>
     </g>
    </g>
    <g id="ytick_4">
     <g id="line2d_19">
      <path clip-path="url(#pbeff68ad28)" d="M 90 181.586342 
L 648 181.586342 
" style="fill:none;stroke:#b0b0b0;stroke-linecap:square;stroke-width:0.8;"/>
     </g>
     <g id="line2d_20">
      <g>
       <use style="stroke:#000000;stroke-width:0.8;" x="90" xlink:href="#md9632d147f" y="181.586342"/>
      </g>
     </g>
     <g id="text_11">
      <!-- 0.6 -->
      <g transform="translate(67.096875 185.38556)scale(0.1 -0.1)">
       <use xlink:href="#DejaVuSans-48"/>
       <use x="63.623047" xlink:href="#DejaVuSans-46"/>
       <use x="95.410156" xlink:href="#DejaVuSans-54"/>
      </g>
     </g>
    </g>
    <g id="ytick_5">
     <g id="line2d_21">
      <path clip-path="url(#pbeff68ad28)" d="M 90 147.291975 
L 648 147.291975 
" style="fill:none;stroke:#b0b0b0;stroke-linecap:square;stroke-width:0.8;"/>
     </g>
     <g id="line2d_22">
      <g>
       <use style="stroke:#000000;stroke-width:0.8;" x="90" xlink:href="#md9632d147f" y="147.291975"/>
      </g>
     </g>
     <g id="text_12">
      <!-- 0.7 -->
      <defs>
       <path d="M 8.203125 72.90625 
L 55.078125 72.90625 
L 55.078125 68.703125 
L 28.609375 0 
L 18.3125 0 
L 43.21875 64.59375 
L 8.203125 64.59375 
z
" id="DejaVuSans-55"/>
      </defs>
      <g transform="translate(67.096875 151.091194)scale(0.1 -0.1)">
       <use xlink:href="#DejaVuSans-48"/>
       <use x="63.623047" xlink:href="#DejaVuSans-46"/>
       <use x="95.410156" xlink:href="#DejaVuSans-55"/>
      </g>
     </g>
    </g>
    <g id="ytick_6">
     <g id="line2d_23">
      <path clip-path="url(#pbeff68ad28)" d="M 90 112.997609 
L 648 112.997609 
" style="fill:none;stroke:#b0b0b0;stroke-linecap:square;stroke-width:0.8;"/>
     </g>
     <g id="line2d_24">
      <g>
       <use style="stroke:#000000;stroke-width:0.8;" x="90" xlink:href="#md9632d147f" y="112.997609"/>
      </g>
     </g>
     <g id="text_13">
      <!-- 0.8 -->
      <g transform="translate(67.096875 116.796828)scale(0.1 -0.1)">
       <use xlink:href="#DejaVuSans-48"/>
       <use x="63.623047" xlink:href="#DejaVuSans-46"/>
       <use x="95.410156" xlink:href="#DejaVuSans-56"/>
      </g>
     </g>
    </g>
    <g id="ytick_7">
     <g id="line2d_25">
      <path clip-path="url(#pbeff68ad28)" d="M 90 78.703243 
L 648 78.703243 
" style="fill:none;stroke:#b0b0b0;stroke-linecap:square;stroke-width:0.8;"/>
     </g>
     <g id="line2d_26">
      <g>
       <use style="stroke:#000000;stroke-width:0.8;" x="90" xlink:href="#md9632d147f" y="78.703243"/>
      </g>
     </g>
     <g id="text_14">
      <!-- 0.9 -->
      <defs>
       <path d="M 10.984375 1.515625 
L 10.984375 10.5 
Q 14.703125 8.734375 18.5 7.8125 
Q 22.3125 6.890625 25.984375 6.890625 
Q 35.75 6.890625 40.890625 13.453125 
Q 46.046875 20.015625 46.78125 33.40625 
Q 43.953125 29.203125 39.59375 26.953125 
Q 35.25 24.703125 29.984375 24.703125 
Q 19.046875 24.703125 12.671875 31.3125 
Q 6.296875 37.9375 6.296875 49.421875 
Q 6.296875 60.640625 12.9375 67.421875 
Q 19.578125 74.21875 30.609375 74.21875 
Q 43.265625 74.21875 49.921875 64.515625 
Q 56.59375 54.828125 56.59375 36.375 
Q 56.59375 19.140625 48.40625 8.859375 
Q 40.234375 -1.421875 26.421875 -1.421875 
Q 22.703125 -1.421875 18.890625 -0.6875 
Q 15.09375 0.046875 10.984375 1.515625 
z
M 30.609375 32.421875 
Q 37.25 32.421875 41.125 36.953125 
Q 45.015625 41.5 45.015625 49.421875 
Q 45.015625 57.28125 41.125 61.84375 
Q 37.25 66.40625 30.609375 66.40625 
Q 23.96875 66.40625 20.09375 61.84375 
Q 16.21875 57.28125 16.21875 49.421875 
Q 16.21875 41.5 20.09375 36.953125 
Q 23.96875 32.421875 30.609375 32.421875 
z
" id="DejaVuSans-57"/>
      </defs>
      <g transform="translate(67.096875 82.502461)scale(0.1 -0.1)">
       <use xlink:href="#DejaVuSans-48"/>
       <use x="63.623047" xlink:href="#DejaVuSans-46"/>
       <use x="95.410156" xlink:href="#DejaVuSans-57"/>
      </g>
     </g>
    </g>
    <g id="ytick_8">
     <g id="line2d_27">
      <path clip-path="url(#pbeff68ad28)" d="M 90 44.408876 
L 648 44.408876 
" style="fill:none;stroke:#b0b0b0;stroke-linecap:square;stroke-width:0.8;"/>
     </g>
     <g id="line2d_28">
      <g>
       <use style="stroke:#000000;stroke-width:0.8;" x="90" xlink:href="#md9632d147f" y="44.408876"/>
      </g>
     </g>
     <g id="text_15">
      <!-- 1.0 -->
      <g transform="translate(67.096875 48.208095)scale(0.1 -0.1)">
       <use xlink:href="#DejaVuSans-49"/>
       <use x="63.623047" xlink:href="#DejaVuSans-46"/>
       <use x="95.410156" xlink:href="#DejaVuSans-48"/>
      </g>
     </g>
    </g>
    <g id="text_16">
     <!-- accuracy -->
     <defs>
      <path d="M 34.28125 27.484375 
Q 23.390625 27.484375 19.1875 25 
Q 14.984375 22.515625 14.984375 16.5 
Q 14.984375 11.71875 18.140625 8.90625 
Q 21.296875 6.109375 26.703125 6.109375 
Q 34.1875 6.109375 38.703125 11.40625 
Q 43.21875 16.703125 43.21875 25.484375 
L 43.21875 27.484375 
z
M 52.203125 31.203125 
L 52.203125 0 
L 43.21875 0 
L 43.21875 8.296875 
Q 40.140625 3.328125 35.546875 0.953125 
Q 30.953125 -1.421875 24.3125 -1.421875 
Q 15.921875 -1.421875 10.953125 3.296875 
Q 6 8.015625 6 15.921875 
Q 6 25.140625 12.171875 29.828125 
Q 18.359375 34.515625 30.609375 34.515625 
L 43.21875 34.515625 
L 43.21875 35.40625 
Q 43.21875 41.609375 39.140625 45 
Q 35.0625 48.390625 27.6875 48.390625 
Q 23 48.390625 18.546875 47.265625 
Q 14.109375 46.140625 10.015625 43.890625 
L 10.015625 52.203125 
Q 14.9375 54.109375 19.578125 55.046875 
Q 24.21875 56 28.609375 56 
Q 40.484375 56 46.34375 49.84375 
Q 52.203125 43.703125 52.203125 31.203125 
z
" id="DejaVuSans-97"/>
      <path d="M 8.5 21.578125 
L 8.5 54.6875 
L 17.484375 54.6875 
L 17.484375 21.921875 
Q 17.484375 14.15625 20.5 10.265625 
Q 23.53125 6.390625 29.59375 6.390625 
Q 36.859375 6.390625 41.078125 11.03125 
Q 45.3125 15.671875 45.3125 23.6875 
L 45.3125 54.6875 
L 54.296875 54.6875 
L 54.296875 0 
L 45.3125 0 
L 45.3125 8.40625 
Q 42.046875 3.421875 37.71875 1 
Q 33.40625 -1.421875 27.6875 -1.421875 
Q 18.265625 -1.421875 13.375 4.4375 
Q 8.5 10.296875 8.5 21.578125 
z
M 31.109375 56 
z
" id="DejaVuSans-117"/>
      <path d="M 41.109375 46.296875 
Q 39.59375 47.171875 37.8125 47.578125 
Q 36.03125 48 33.890625 48 
Q 26.265625 48 22.1875 43.046875 
Q 18.109375 38.09375 18.109375 28.8125 
L 18.109375 0 
L 9.078125 0 
L 9.078125 54.6875 
L 18.109375 54.6875 
L 18.109375 46.1875 
Q 20.953125 51.171875 25.484375 53.578125 
Q 30.03125 56 36.53125 56 
Q 37.453125 56 38.578125 55.875 
Q 39.703125 55.765625 41.0625 55.515625 
z
" id="DejaVuSans-114"/>
      <path d="M 32.171875 -5.078125 
Q 28.375 -14.84375 24.75 -17.8125 
Q 21.140625 -20.796875 15.09375 -20.796875 
L 7.90625 -20.796875 
L 7.90625 -13.28125 
L 13.1875 -13.28125 
Q 16.890625 -13.28125 18.9375 -11.515625 
Q 21 -9.765625 23.484375 -3.21875 
L 25.09375 0.875 
L 2.984375 54.6875 
L 12.5 54.6875 
L 29.59375 11.921875 
L 46.6875 54.6875 
L 56.203125 54.6875 
z
" id="DejaVuSans-121"/>
     </defs>
     <g transform="translate(61.017187 201.659375)rotate(-90)scale(0.1 -0.1)">
      <use xlink:href="#DejaVuSans-97"/>
      <use x="61.279297" xlink:href="#DejaVuSans-99"/>
      <use x="116.259766" xlink:href="#DejaVuSans-99"/>
      <use x="171.240234" xlink:href="#DejaVuSans-117"/>
      <use x="234.619141" xlink:href="#DejaVuSans-114"/>
      <use x="275.732422" xlink:href="#DejaVuSans-97"/>
      <use x="337.011719" xlink:href="#DejaVuSans-99"/>
      <use x="391.992188" xlink:href="#DejaVuSans-121"/>
     </g>
    </g>
   </g>
   <g id="line2d_29">
    <path clip-path="url(#pbeff68ad28)" d="M 115.363636 302.645455 
L 115.858054 296.043789 
L 116.352472 295.357902 
L 116.84689 298.701602 
L 117.341308 297.329828 
L 117.835726 291.842729 
L 118.330144 287.813141 
L 118.824561 289.184916 
L 119.318979 292.785824 
L 119.813397 292.442881 
L 120.307815 291.756993 
L 120.802233 286.527102 
L 121.296651 289.013444 
L 121.791069 283.440609 
L 122.285486 285.669743 
L 122.779904 285.841215 
L 123.76874 278.467926 
L 124.263158 284.212233 
L 124.757576 281.468683 
L 125.251994 276.667472 
L 125.746411 273.238035 
L 126.240829 277.181888 
L 126.735247 274.352602 
L 127.229665 269.465655 
L 127.724083 269.722863 
L 128.218501 263.035461 
L 128.712919 267.236521 
L 129.207337 259.606025 
L 129.701754 259.948969 
L 130.196172 258.062778 
L 130.69059 251.118169 
L 131.185008 252.232736 
L 133.162679 234.485402 
L 133.657097 232.684947 
L 134.151515 235.428497 
L 134.645933 224.111356 
L 135.140351 223.425468 
L 135.634769 226.254754 
L 136.129187 222.482373 
L 136.623604 216.823803 
L 137.118022 220.25324 
L 137.61244 211.508176 
L 138.106858 212.279799 
L 138.601276 211.250968 
L 139.095694 209.193306 
L 139.590112 200.448243 
L 140.08453 202.763113 
L 140.578947 198.219109 
L 141.073365 197.018806 
L 141.567783 197.104542 
L 142.062201 192.560539 
L 143.051037 189.302574 
L 143.545455 189.045366 
L 144.039872 181.757813 
L 144.53429 182.615173 
L 145.028708 178.499849 
L 146.017544 173.870109 
L 146.511962 173.612901 
L 147.00638 175.241884 
L 147.500797 168.468746 
L 147.995215 165.982405 
L 148.489633 160.752514 
L 148.984051 157.237341 
L 149.478469 156.980134 
L 149.972887 153.207753 
L 150.467305 156.894398 
L 150.961722 154.065113 
L 151.45614 153.722169 
L 151.950558 152.350394 
L 152.444976 147.463447 
L 152.939394 145.491521 
L 153.433812 149.178165 
L 153.92823 142.490764 
L 154.422648 144.205482 
L 154.917065 144.205482 
L 155.411483 137.089401 
L 155.905901 138.632648 
L 156.400319 135.546155 
L 157.389155 136.48925 
L 157.883573 131.602303 
L 158.37799 132.631134 
L 158.872408 135.803363 
L 159.366826 128.430074 
L 159.861244 126.886827 
L 160.355662 130.487736 
L 160.85008 126.458148 
L 161.344498 128.430074 
L 161.838915 123.285919 
L 162.333333 126.458148 
L 162.827751 126.886827 
L 164.311005 120.285162 
L 164.805423 119.942218 
L 165.299841 120.885313 
L 165.794258 121.571201 
L 166.288676 116.855725 
L 166.783094 117.284405 
L 167.277512 116.427046 
L 167.77193 118.313236 
L 168.266348 116.084102 
L 168.760766 116.255574 
L 169.255183 114.112176 
L 169.749601 113.59776 
L 170.244019 110.939947 
L 170.738437 115.91263 
L 171.232855 111.025683 
L 171.727273 111.454363 
L 172.221691 112.14025 
L 172.716108 108.710813 
L 173.210526 111.625834 
L 173.704944 108.110662 
L 174.199362 110.168324 
L 174.69378 106.481679 
L 175.188198 109.482436 
L 175.682616 104.766961 
L 176.177033 107.853454 
L 176.671451 107.253303 
L 177.165869 107.253303 
L 177.660287 102.795035 
L 178.154705 106.053 
L 178.649123 102.623563 
L 179.637959 105.195641 
L 180.132376 103.909602 
L 180.626794 100.823109 
L 181.121212 102.023412 
L 181.61563 101.937676 
L 182.110048 102.023412 
L 182.604466 99.794278 
L 183.098884 99.708542 
L 183.593301 99.365598 
L 184.087719 102.366355 
L 184.582137 97.908088 
L 185.076555 101.937676 
L 185.570973 99.96575 
L 186.065391 99.708542 
L 186.559809 96.536313 
L 187.054226 99.708542 
L 187.548644 98.765447 
L 188.043062 97.2222 
L 188.53748 96.19337 
L 189.031898 96.021898 
L 189.526316 96.450577 
L 190.020734 98.07956 
L 190.515152 94.650123 
L 191.009569 97.65088 
L 191.503987 94.135708 
L 191.998405 94.392915 
L 192.492823 92.763933 
L 192.987241 94.478651 
L 193.481659 96.964993 
L 193.976077 96.279105 
L 194.470494 96.964993 
L 194.964912 96.879257 
L 195.45933 92.163781 
L 195.953748 93.192612 
L 196.448166 91.820838 
L 196.942584 91.820838 
L 197.437002 92.420989 
L 197.931419 90.449063 
L 198.425837 91.392158 
L 198.920255 93.8785 
L 199.414673 93.192612 
L 199.909091 90.449063 
L 200.403509 91.049215 
L 200.897927 91.306422 
L 201.392344 91.049215 
L 201.886762 88.134193 
L 202.38118 89.67744 
L 202.875598 91.735102 
L 203.370016 89.67744 
L 203.864434 90.963479 
L 204.358852 90.191855 
L 204.85327 90.534799 
L 205.347687 90.277591 
L 205.842105 88.477137 
L 206.336523 88.991553 
L 207.325359 87.105362 
L 208.314195 87.105362 
L 208.808612 85.647852 
L 209.30303 87.105362 
L 209.797448 89.163024 
L 210.291866 88.820081 
L 210.786284 84.704757 
L 211.280702 83.59019 
L 211.77512 88.305665 
L 212.269537 87.705514 
L 212.763955 85.304908 
L 213.258373 91.13495 
L 213.752791 85.733588 
L 214.247209 86.676683 
L 215.236045 84.790493 
L 215.730463 85.47638 
L 216.22488 87.534042 
L 216.719298 82.904303 
L 217.213716 85.819324 
L 217.708134 83.675926 
L 218.202552 85.304908 
L 218.69697 83.16151 
L 219.191388 86.162267 
L 219.685805 85.562116 
L 220.180223 82.046943 
L 220.674641 83.847398 
L 221.169059 83.59019 
L 221.663477 83.075774 
L 222.157895 83.247246 
L 222.652313 84.018869 
L 224.135566 84.704757 
L 224.629984 83.59019 
L 225.124402 82.046943 
L 225.61882 83.247246 
L 226.113238 82.218415 
L 226.607656 81.789736 
L 227.102073 80.503697 
L 227.596491 81.618264 
L 228.090909 81.361056 
L 228.585327 80.589433 
L 229.079745 83.675926 
L 229.574163 80.160753 
L 230.068581 79.81781 
L 230.562998 82.475623 
L 231.551834 79.217658 
L 232.046252 81.704 
L 232.54067 82.304151 
L 233.035088 81.189584 
L 233.529506 81.618264 
L 234.023923 79.732074 
L 234.518341 80.846641 
L 235.012759 80.846641 
L 235.507177 81.446792 
L 236.001595 81.361056 
L 236.496013 81.018112 
L 236.990431 81.961207 
L 237.484848 78.874715 
L 237.979266 82.561359 
L 238.473684 79.474866 
L 238.968102 79.217658 
L 239.46252 81.961207 
L 239.956938 81.361056 
L 240.451356 77.845884 
L 240.945774 80.675169 
L 241.440191 79.732074 
L 241.934609 79.646338 
L 242.429027 80.932377 
L 242.923445 78.788979 
L 243.417863 77.845884 
L 243.912281 79.38913 
L 244.406699 79.217658 
L 244.901116 75.61675 
L 245.395534 77.07426 
L 245.889952 77.50294 
L 246.38437 77.674412 
L 246.878788 77.50294 
L 247.373206 79.131922 
L 247.867624 77.245732 
L 248.362041 77.07426 
L 248.856459 78.617507 
L 249.350877 78.617507 
L 249.845295 79.303394 
L 250.339713 76.645581 
L 250.834131 75.873957 
L 251.328549 78.874715 
L 251.822967 79.303394 
L 252.317384 77.417204 
L 252.811802 77.845884 
L 253.30622 76.302637 
L 253.800638 77.931619 
L 254.295056 78.274563 
L 254.789474 77.417204 
L 255.283892 79.131922 
L 255.778309 78.274563 
L 256.272727 78.788979 
L 256.767145 75.959693 
L 257.261563 76.817053 
L 257.755981 76.216901 
L 258.250399 76.131165 
L 258.744817 77.674412 
L 259.239234 77.674412 
L 259.733652 76.817053 
L 260.22807 76.474109 
L 260.722488 78.360299 
L 261.711324 74.845126 
L 262.205742 76.645581 
L 262.700159 76.474109 
L 263.688995 75.61675 
L 264.183413 74.416447 
L 264.677831 75.788222 
L 265.172249 75.873957 
L 265.666667 74.330711 
L 266.161085 75.873957 
L 266.655502 74.930862 
L 267.14992 76.302637 
L 267.644338 74.587919 
L 268.138756 75.273806 
L 268.633174 75.102334 
L 269.62201 74.502183 
L 270.116427 73.130408 
L 270.610845 74.845126 
L 271.105263 73.30188 
L 271.599681 76.902788 
L 272.094099 75.702486 
L 272.588517 73.644824 
L 273.082935 75.016598 
L 273.577352 73.473352 
L 274.07177 72.701729 
L 274.566188 76.559845 
L 275.060606 74.759391 
L 275.555024 75.873957 
L 276.049442 72.444521 
L 276.54386 72.530257 
L 277.038278 73.387616 
L 277.532695 73.30188 
L 278.027113 76.045429 
L 278.521531 75.102334 
L 279.015949 73.73056 
L 279.510367 73.987767 
L 280.004785 73.130408 
L 280.499203 75.18807 
L 280.99362 71.072746 
L 281.488038 73.387616 
L 281.982456 72.358785 
L 282.476874 75.18807 
L 282.971292 72.958936 
L 283.46571 72.787465 
L 283.960128 71.930105 
L 284.454545 73.644824 
L 284.948963 74.759391 
L 285.443381 75.102334 
L 285.937799 73.216144 
L 286.432217 73.473352 
L 286.926635 72.444521 
L 287.421053 71.158482 
L 287.91547 73.902031 
L 288.409888 73.216144 
L 288.904306 72.101577 
L 289.398724 73.73056 
L 289.893142 74.073503 
L 290.38756 72.530257 
L 290.881978 71.587162 
L 291.376396 73.216144 
L 291.870813 73.987767 
L 292.365231 72.8732 
L 292.859649 72.530257 
L 293.354067 69.186556 
L 293.848485 74.073503 
L 294.342903 73.902031 
L 294.837321 68.929348 
L 295.331738 72.958936 
L 295.826156 69.700972 
L 296.320574 72.787465 
L 296.814992 69.358028 
L 297.30941 70.901274 
L 297.803828 72.015841 
L 298.298246 72.101577 
L 298.792663 72.530257 
L 299.287081 74.330711 
L 299.781499 69.358028 
L 300.275917 69.700972 
L 300.770335 71.758634 
L 301.264753 70.558331 
L 301.759171 72.273049 
L 302.253589 71.329954 
L 302.748006 70.729803 
L 303.242424 72.787465 
L 303.736842 71.844369 
L 304.23126 70.644067 
L 304.725678 71.672898 
L 305.220096 73.644824 
L 305.714514 69.358028 
L 306.208931 69.443764 
L 306.703349 69.872443 
L 307.197767 74.759391 
L 307.692185 69.443764 
L 308.186603 69.615236 
L 308.681021 72.187313 
L 309.175439 71.844369 
L 309.669856 72.101577 
L 310.164274 70.386859 
L 310.658692 69.872443 
L 311.15311 71.844369 
L 311.647528 70.215387 
L 312.141946 70.043915 
L 312.636364 71.587162 
L 313.625199 68.243461 
L 314.119617 70.043915 
L 314.614035 69.272292 
L 315.108453 70.901274 
L 315.602871 70.386859 
L 316.097289 73.473352 
L 316.591707 70.215387 
L 317.086124 70.301123 
L 317.580542 71.41569 
L 318.07496 68.672141 
L 318.569378 70.558331 
L 319.063796 68.757876 
L 319.558214 69.358028 
L 320.052632 71.072746 
L 320.547049 70.386859 
L 321.041467 71.587162 
L 321.535885 69.700972 
L 322.030303 69.872443 
L 323.019139 72.273049 
L 323.513557 69.186556 
L 324.007974 70.386859 
L 324.502392 67.729045 
L 324.99681 71.41569 
L 325.491228 71.329954 
L 325.985646 71.41569 
L 326.480064 68.757876 
L 326.974482 68.414933 
L 327.4689 67.21463 
L 328.457735 70.558331 
L 328.952153 67.814781 
L 329.446571 68.071989 
L 329.940989 70.901274 
L 330.435407 69.186556 
L 330.929825 68.672141 
L 331.424242 67.64331 
L 331.91866 68.157725 
L 332.413078 70.129651 
L 332.907496 69.186556 
L 333.401914 67.729045 
L 333.896332 67.300366 
L 334.39075 66.700214 
L 334.885167 68.157725 
L 335.379585 67.043158 
L 336.368421 68.843612 
L 336.862839 68.586405 
L 337.357257 67.386102 
L 337.851675 69.186556 
L 338.346093 70.215387 
L 338.84051 68.071989 
L 339.334928 68.843612 
L 339.829346 68.414933 
L 340.323764 68.329197 
L 340.818182 66.957422 
L 341.3126 68.414933 
L 341.807018 69.10082 
L 342.301435 68.586405 
L 342.795853 67.21463 
L 343.290271 69.700972 
L 343.784689 69.700972 
L 344.279107 67.900517 
L 344.773525 69.443764 
L 345.267943 68.500669 
L 345.76236 67.300366 
L 346.256778 69.872443 
L 346.751196 66.185799 
L 347.245614 66.100063 
L 347.740032 67.729045 
L 348.23445 65.156968 
L 348.728868 67.814781 
L 349.223285 65.32844 
L 349.717703 64.985496 
L 350.212121 69.700972 
L 350.706539 66.443007 
L 351.200957 66.014327 
L 351.695375 69.272292 
L 352.189793 67.900517 
L 352.684211 68.586405 
L 353.178628 66.700214 
L 353.673046 66.614479 
L 354.167464 67.64331 
L 354.661882 68.243461 
L 355.1563 66.185799 
L 355.650718 67.471838 
L 356.145136 67.900517 
L 356.639553 65.757119 
L 357.133971 66.185799 
L 357.628389 68.243461 
L 358.122807 66.700214 
L 358.617225 66.014327 
L 359.111643 68.586405 
L 359.606061 67.300366 
L 360.100478 68.586405 
L 360.594896 68.500669 
L 361.089314 70.043915 
L 361.583732 67.729045 
L 362.07815 66.443007 
L 362.572568 66.357271 
L 363.066986 68.243461 
L 363.561404 66.185799 
L 364.055821 65.928591 
L 364.550239 65.499912 
L 365.044657 67.386102 
L 365.539075 66.528743 
L 366.527911 65.414176 
L 367.022329 68.071989 
L 367.516746 69.015084 
L 368.011164 67.557574 
L 368.505582 67.900517 
L 369 65.071232 
L 369.494418 69.700972 
L 369.988836 64.213873 
L 370.483254 66.78595 
L 370.977671 67.557574 
L 371.472089 65.242704 
L 371.966507 67.128894 
L 372.460925 66.357271 
L 372.955343 67.814781 
L 373.944179 65.671384 
L 374.438596 65.414176 
L 374.933014 67.386102 
L 375.427432 65.071232 
L 375.92185 66.100063 
L 376.416268 66.357271 
L 376.910686 64.642553 
L 377.405104 66.357271 
L 377.899522 66.614479 
L 378.393939 65.671384 
L 378.888357 68.071989 
L 379.382775 64.89976 
L 379.877193 65.757119 
L 380.371611 66.014327 
L 381.360447 65.757119 
L 381.854864 66.014327 
L 383.338118 63.785193 
L 383.832536 65.928591 
L 384.326954 67.386102 
L 384.821372 66.185799 
L 385.315789 66.185799 
L 385.810207 64.728288 
L 386.304625 66.614479 
L 386.799043 66.100063 
L 387.293461 64.814024 
L 387.787879 64.728288 
L 388.282297 63.185042 
L 388.776715 64.985496 
L 389.271132 63.527986 
L 389.76555 62.584891 
L 390.259968 65.32844 
L 390.754386 64.213873 
L 391.743222 64.556817 
L 392.23764 63.613722 
L 392.732057 65.156968 
L 393.226475 63.527986 
L 393.720893 63.01357 
L 394.215311 64.471081 
L 394.709729 66.528743 
L 395.204147 64.728288 
L 395.698565 66.014327 
L 396.192982 62.842098 
L 396.6874 65.499912 
L 397.181818 66.614479 
L 397.676236 65.842855 
L 398.170654 63.613722 
L 399.15949 66.271535 
L 399.653907 64.385345 
L 400.148325 64.128137 
L 400.642743 66.957422 
L 401.137161 63.44225 
L 401.631579 65.071232 
L 402.125997 65.156968 
L 403.114833 64.128137 
L 403.60925 62.670626 
L 404.103668 62.584891 
L 404.598086 65.242704 
L 405.092504 63.785193 
L 405.586922 63.870929 
L 406.08134 63.185042 
L 407.070175 64.556817 
L 407.564593 65.842855 
L 408.059011 62.842098 
L 408.553429 65.499912 
L 409.047847 63.099306 
L 409.542265 62.756362 
L 410.036683 64.471081 
L 410.5311 61.213116 
L 411.519936 64.128137 
L 412.014354 63.870929 
L 412.508772 65.757119 
L 413.00319 62.927834 
L 413.992026 64.042401 
L 414.486443 61.470324 
L 414.980861 65.156968 
L 415.475279 64.89976 
L 415.969697 64.128137 
L 416.464115 64.642553 
L 416.958533 65.32844 
L 417.947368 61.727531 
L 418.441786 65.585648 
L 419.430622 63.613722 
L 419.92504 64.471081 
L 420.419458 63.185042 
L 420.913876 61.55606 
L 421.408293 64.985496 
L 421.902711 62.070475 
L 422.891547 63.613722 
L 423.385965 62.327683 
L 423.880383 62.413419 
L 424.374801 64.556817 
L 424.869219 63.270778 
L 425.363636 61.470324 
L 425.858054 62.499155 
L 426.352472 64.213873 
L 426.84689 65.32844 
L 427.341308 64.642553 
L 427.835726 60.527229 
L 428.330144 63.785193 
L 428.824561 62.756362 
L 429.318979 66.614479 
L 429.813397 64.471081 
L 430.307815 64.385345 
L 430.802233 63.870929 
L 431.296651 64.385345 
L 431.791069 65.156968 
L 432.285486 61.813267 
L 432.779904 63.270778 
L 433.274322 61.384588 
L 433.76874 64.728288 
L 434.757576 61.899003 
L 435.251994 64.985496 
L 435.746411 63.44225 
L 436.240829 63.356514 
L 436.735247 63.099306 
L 437.229665 64.728288 
L 437.724083 65.585648 
L 438.218501 63.785193 
L 439.207337 64.985496 
L 439.701754 63.699457 
L 440.196172 63.613722 
L 440.69059 63.956665 
L 441.185008 62.156211 
L 441.679426 64.556817 
L 442.173844 61.984739 
L 442.668262 62.327683 
L 443.162679 61.813267 
L 443.657097 61.813267 
L 444.151515 61.984739 
L 444.645933 63.527986 
L 445.140351 62.413419 
L 445.634769 64.042401 
L 446.129187 62.413419 
L 446.623604 64.814024 
L 447.61244 61.899003 
L 448.106858 62.327683 
L 448.601276 62.156211 
L 449.095694 62.413419 
L 449.590112 61.899003 
L 450.08453 62.241947 
L 450.578947 61.384588 
L 451.073365 61.813267 
L 451.567783 63.870929 
L 452.062201 63.099306 
L 452.556619 63.01357 
L 453.051037 62.070475 
L 453.545455 63.870929 
L 454.039872 63.270778 
L 454.53429 61.298852 
L 455.028708 64.814024 
L 455.523126 63.699457 
L 456.017544 63.099306 
L 456.511962 61.12738 
L 457.00638 62.584891 
L 457.500797 60.527229 
L 457.995215 63.699457 
L 458.489633 62.413419 
L 458.984051 62.670626 
L 459.478469 62.070475 
L 459.972887 62.070475 
L 460.467305 63.270778 
L 460.961722 60.784436 
L 461.45614 61.298852 
L 461.950558 62.584891 
L 462.444976 60.441493 
L 462.939394 61.470324 
L 463.433812 63.01357 
L 463.92823 61.384588 
L 464.422648 61.213116 
L 464.917065 61.470324 
L 465.411483 60.955908 
L 465.905901 63.870929 
L 466.400319 61.55606 
L 466.894737 62.070475 
L 467.389155 61.899003 
L 467.883573 62.070475 
L 468.37799 60.955908 
L 468.872408 60.527229 
L 469.366826 60.527229 
L 469.861244 59.927077 
L 470.355662 62.756362 
L 470.85008 62.413419 
L 471.344498 60.012813 
L 471.838915 60.012813 
L 472.333333 60.184285 
L 473.322169 62.756362 
L 473.816587 61.55606 
L 474.311005 62.842098 
L 474.805423 61.727531 
L 475.299841 61.727531 
L 475.794258 62.670626 
L 476.288676 61.213116 
L 476.783094 62.241947 
L 477.277512 60.527229 
L 477.77193 62.241947 
L 478.266348 61.641795 
L 478.760766 60.6987 
L 479.255183 61.813267 
L 479.749601 61.641795 
L 480.244019 60.955908 
L 480.738437 63.270778 
L 481.232855 60.955908 
L 481.727273 59.24119 
L 482.716108 62.156211 
L 483.210526 61.813267 
L 483.704944 62.756362 
L 484.199362 60.784436 
L 484.69378 61.984739 
L 485.188198 62.070475 
L 485.682616 62.670626 
L 486.177033 61.041644 
L 486.671451 60.870172 
L 487.165869 62.327683 
L 487.660287 60.270021 
L 488.154705 61.55606 
L 488.649123 61.984739 
L 489.143541 61.298852 
L 489.637959 61.899003 
L 490.132376 61.813267 
L 490.626794 61.899003 
L 491.121212 59.927077 
L 492.110048 62.927834 
L 492.604466 63.185042 
L 493.098884 61.470324 
L 493.593301 60.270021 
L 494.087719 61.12738 
L 494.582137 60.184285 
L 495.076555 58.983982 
L 495.570973 61.55606 
L 496.065391 61.727531 
L 496.559809 59.755605 
L 497.054226 60.270021 
L 498.043062 61.984739 
L 498.53748 62.241947 
L 499.031898 60.955908 
L 499.526316 60.527229 
L 500.020734 61.384588 
L 500.515152 60.184285 
L 501.009569 61.213116 
L 501.503987 61.041644 
L 501.998405 61.298852 
L 502.492823 59.24119 
L 502.987241 60.612964 
L 503.481659 59.927077 
L 504.470494 60.955908 
L 504.964912 60.355757 
L 505.45933 60.270021 
L 505.953748 59.927077 
L 506.448166 60.355757 
L 506.942584 59.755605 
L 507.437002 61.641795 
L 507.931419 61.470324 
L 508.425837 60.784436 
L 508.920255 58.469567 
L 509.414673 60.6987 
L 509.909091 60.784436 
L 510.403509 59.841341 
L 511.392344 59.412662 
L 511.886762 61.298852 
L 512.38118 59.412662 
L 512.875598 61.041644 
L 513.370016 61.384588 
L 513.864434 60.441493 
L 514.358852 62.241947 
L 514.85327 60.270021 
L 515.347687 58.898246 
L 515.842105 60.012813 
L 516.336523 60.012813 
L 516.830941 61.470324 
L 517.325359 61.213116 
L 517.819777 60.527229 
L 518.314195 60.270021 
L 518.808612 59.584133 
L 519.30303 60.6987 
L 519.797448 60.098549 
L 520.291866 60.098549 
L 520.786284 60.441493 
L 521.280702 60.184285 
L 521.77512 58.81251 
L 522.269537 60.870172 
L 522.763955 57.869415 
L 523.258373 60.441493 
L 523.752791 61.041644 
L 524.247209 58.040887 
L 524.741627 60.612964 
L 525.730463 60.527229 
L 526.22488 61.899003 
L 526.719298 58.298095 
L 527.213716 60.270021 
L 527.708134 60.184285 
L 528.202552 59.841341 
L 528.69697 59.069718 
L 529.191388 59.24119 
L 529.685805 58.81251 
L 530.180223 60.012813 
L 531.169059 59.669869 
L 531.663477 58.298095 
L 532.157895 60.184285 
L 532.652313 58.898246 
L 533.14673 59.24119 
L 533.641148 60.012813 
L 534.135566 60.012813 
L 534.629984 58.040887 
L 535.124402 60.870172 
L 535.61882 59.755605 
L 536.113238 59.584133 
L 536.607656 58.383831 
L 537.102073 60.612964 
L 537.596491 58.898246 
L 538.090909 60.184285 
L 538.585327 58.983982 
L 539.079745 58.555303 
L 539.574163 59.326926 
L 540.068581 61.984739 
L 540.562998 58.555303 
L 541.057416 59.927077 
L 541.551834 59.412662 
L 542.046252 59.498398 
L 542.54067 57.869415 
L 543.035088 59.755605 
L 543.529506 60.6987 
L 544.023923 61.213116 
L 544.518341 58.898246 
L 545.012759 59.155454 
L 545.507177 58.212359 
L 546.001595 59.669869 
L 546.496013 58.298095 
L 546.990431 59.412662 
L 547.484848 58.983982 
L 547.979266 58.983982 
L 548.473684 60.012813 
L 548.968102 59.669869 
L 549.46252 59.155454 
L 549.956938 59.927077 
L 550.451356 58.81251 
L 550.945774 59.841341 
L 551.440191 57.955151 
L 551.934609 57.697943 
L 552.429027 58.983982 
L 552.923445 61.213116 
L 553.417863 57.955151 
L 553.912281 57.612207 
L 554.406699 60.184285 
L 554.901116 59.584133 
L 555.395534 58.469567 
L 555.889952 60.270021 
L 556.38437 58.726774 
L 556.878788 59.069718 
L 557.373206 58.469567 
L 557.867624 59.669869 
L 558.362041 58.555303 
L 558.856459 60.355757 
L 559.350877 60.012813 
L 559.845295 58.983982 
L 560.834131 59.069718 
L 561.328549 57.697943 
L 561.822967 59.069718 
L 562.317384 59.326926 
L 562.811802 59.069718 
L 563.30622 58.983982 
L 563.800638 60.184285 
L 564.295056 58.81251 
L 564.789474 60.870172 
L 565.283892 58.983982 
L 565.778309 57.955151 
L 566.272727 57.955151 
L 567.261563 59.498398 
L 567.755981 58.641038 
L 568.250399 60.184285 
L 568.744817 57.955151 
L 569.239234 59.155454 
L 569.733652 59.412662 
L 570.22807 58.469567 
L 570.722488 60.270021 
L 571.216906 59.155454 
L 572.205742 59.069718 
L 572.700159 57.526472 
L 573.194577 59.069718 
L 573.688995 58.383831 
L 574.183413 58.040887 
L 574.677831 60.184285 
L 575.172249 58.983982 
L 575.666667 59.927077 
L 576.161085 57.183528 
L 576.655502 56.669112 
L 577.14992 60.012813 
L 577.644338 57.783679 
L 578.138756 59.155454 
L 578.633174 61.12738 
L 579.127592 57.183528 
L 579.62201 60.612964 
L 580.610845 58.555303 
L 581.105263 56.497641 
L 581.599681 58.555303 
L 582.094099 58.383831 
L 582.588517 58.383831 
L 583.082935 58.555303 
L 583.577352 57.697943 
L 584.07177 58.040887 
L 584.566188 57.869415 
L 585.555024 58.555303 
L 586.049442 59.927077 
L 586.54386 58.298095 
L 587.038278 57.955151 
L 587.532695 58.898246 
L 588.027113 58.212359 
L 589.015949 59.326926 
L 589.510367 58.298095 
L 590.004785 57.012056 
L 590.499203 57.183528 
L 591.488038 59.755605 
L 591.982456 58.555303 
L 592.476874 58.040887 
L 592.971292 58.641038 
L 593.46571 57.955151 
L 593.960128 58.81251 
L 594.454545 59.24119 
L 594.948963 59.412662 
L 595.443381 58.469567 
L 595.937799 59.498398 
L 596.432217 59.584133 
L 596.926635 58.126623 
L 597.421053 59.069718 
L 597.91547 58.81251 
L 598.409888 57.097792 
L 598.904306 59.326926 
L 599.398724 58.641038 
L 599.893142 59.069718 
L 600.38756 57.955151 
L 600.881978 57.869415 
L 601.376396 59.498398 
L 602.365231 58.555303 
L 602.859649 58.383831 
L 603.354067 57.955151 
L 603.848485 58.726774 
L 604.342903 57.097792 
L 604.837321 59.412662 
L 605.331738 58.641038 
L 605.826156 58.383831 
L 606.320574 58.726774 
L 606.814992 56.754848 
L 607.30941 56.669112 
L 607.803828 57.869415 
L 608.298246 58.469567 
L 608.792663 56.669112 
L 609.287081 57.869415 
L 609.781499 57.955151 
L 610.275917 58.726774 
L 611.264753 58.383831 
L 611.759171 57.955151 
L 612.253589 58.040887 
L 612.748006 58.383831 
L 613.242424 57.612207 
L 613.736842 57.183528 
L 614.23126 58.469567 
L 614.725678 57.526472 
L 615.220096 58.983982 
L 615.714514 58.298095 
L 616.208931 59.669869 
L 616.703349 56.411905 
L 617.197767 57.612207 
L 617.692185 56.840584 
L 618.186603 57.697943 
L 618.681021 57.440736 
L 619.175439 58.383831 
L 619.669856 57.526472 
L 620.164274 57.869415 
L 620.658692 57.440736 
L 621.15311 55.554545 
L 621.647528 58.898246 
L 622.141946 57.355 
L 622.636364 57.269264 
L 622.636364 57.269264 
" style="fill:none;stroke:#1f77b4;stroke-linecap:square;stroke-width:0.5;"/>
   </g>
   <g id="line2d_30">
    <path clip-path="url(#pbeff68ad28)" d="M 115.363636 299.816169 
L 115.858054 299.216018 
L 116.352472 298.187187 
L 116.84689 300.330585 
L 117.341308 297.415564 
L 117.835726 300.416321 
L 118.824561 292.614352 
L 119.318979 292.957296 
L 119.813397 295.272166 
L 120.307815 294.157599 
L 120.802233 296.129525 
L 121.296651 290.899634 
L 121.791069 291.928465 
L 122.285486 292.014201 
L 122.779904 287.813141 
L 123.274322 288.070349 
L 123.76874 290.385219 
L 124.263158 282.840458 
L 125.251994 279.839701 
L 125.746411 279.496757 
L 126.240829 276.92468 
L 126.735247 276.667472 
L 127.229665 275.895849 
L 127.724083 271.780525 
L 128.712919 266.63637 
L 129.207337 265.521803 
L 129.701754 264.75018 
L 130.69059 257.719835 
L 131.185008 252.57568 
L 131.679426 253.004359 
L 132.668262 248.37462 
L 133.162679 239.286613 
L 133.657097 238.429254 
L 134.151515 235.77144 
L 134.645933 235.085553 
L 135.140351 229.598454 
L 135.634769 227.026377 
L 136.129187 223.682676 
L 136.623604 224.454299 
L 137.118022 218.881465 
L 137.61244 217.423954 
L 138.106858 215.366292 
L 138.601276 211.936856 
L 139.095694 211.165232 
L 140.08453 202.677377 
L 140.578947 206.621229 
L 141.073365 196.675863 
L 141.567783 202.677377 
L 142.062201 198.990732 
L 142.556619 192.046123 
L 143.051037 189.38831 
L 143.545455 184.930042 
L 144.039872 186.987704 
L 144.53429 184.415627 
L 145.028708 184.75857 
L 145.523126 181.41487 
L 146.017544 176.442187 
L 146.511962 173.01275 
L 147.00638 171.383768 
L 147.500797 170.269201 
L 147.995215 167.182708 
L 148.489633 168.211539 
L 148.984051 168.640218 
L 149.478469 161.095458 
L 149.972887 157.666021 
L 150.467305 160.83825 
L 151.45614 153.893641 
L 151.950558 155.265415 
L 152.444976 155.17968 
L 152.939394 151.578771 
L 153.433812 146.34888 
L 153.92823 147.806391 
L 154.422648 145.062841 
L 154.917065 141.547669 
L 155.411483 143.776803 
L 155.905901 141.290461 
L 156.400319 141.804877 
L 156.894737 143.433859 
L 157.389155 137.603817 
L 157.883573 137.603817 
L 158.37799 133.488493 
L 158.872408 135.117475 
L 159.366826 132.974077 
L 159.861244 133.317021 
L 160.355662 133.059813 
L 160.85008 130.144792 
L 161.344498 131.087887 
L 161.838915 127.058299 
L 162.333333 128.601546 
L 162.827751 129.544641 
L 163.322169 128.858753 
L 163.816587 127.658451 
L 164.311005 127.144035 
L 164.805423 126.372412 
L 165.299841 124.400486 
L 165.794258 124.657694 
L 166.288676 123.714598 
L 166.783094 125.515053 
L 167.277512 120.713841 
L 167.77193 125.943732 
L 168.266348 121.485465 
L 168.760766 120.971049 
L 169.255183 121.056785 
L 169.749601 119.170595 
L 170.244019 120.285162 
L 170.738437 119.170595 
L 171.232855 119.942218 
L 171.727273 115.91263 
L 172.221691 118.827651 
L 172.716108 117.541613 
L 173.210526 118.827651 
L 173.704944 113.426289 
L 174.199362 113.512024 
L 174.69378 116.34131 
L 175.188198 115.91263 
L 175.682616 115.655422 
L 176.177033 114.883799 
L 177.165869 111.540098 
L 177.660287 114.712327 
L 178.154705 112.397458 
L 178.649123 110.768475 
L 179.143541 110.854211 
L 179.637959 110.768475 
L 180.132376 109.396701 
L 180.626794 110.25406 
L 181.121212 106.996095 
L 181.61563 110.339796 
L 182.110048 107.93919 
L 182.604466 108.539341 
L 183.098884 108.196398 
L 183.593301 108.539341 
L 184.087719 110.082588 
L 184.582137 107.081831 
L 185.076555 108.453605 
L 185.570973 107.081831 
L 186.065391 108.282134 
L 186.559809 105.452848 
L 187.054226 107.51051 
L 187.548644 103.823866 
L 188.53748 104.509753 
L 189.031898 105.281377 
L 189.526316 107.167567 
L 190.020734 103.652394 
L 190.515152 104.509753 
L 191.009569 102.452091 
L 191.503987 104.081074 
L 191.998405 103.995338 
L 192.492823 103.73813 
L 192.987241 102.623563 
L 193.481659 100.994581 
L 193.976077 103.73813 
L 194.470494 101.85194 
L 194.964912 102.452091 
L 195.45933 100.565901 
L 195.953748 101.937676 
L 196.448166 102.795035 
L 196.942584 99.365598 
L 197.437002 102.452091 
L 197.931419 100.651637 
L 198.425837 99.622806 
L 198.920255 99.880014 
L 199.414673 101.680468 
L 199.909091 101.251789 
L 200.403509 98.336767 
L 200.897927 100.051486 
L 201.392344 101.080317 
L 201.886762 99.279862 
L 202.38118 97.993824 
L 202.875598 98.508239 
L 203.370016 101.508996 
L 203.864434 97.993824 
L 204.358852 98.851183 
L 205.347687 96.793521 
L 205.842105 99.108391 
L 206.336523 97.2222 
L 206.830941 97.565144 
L 207.325359 97.2222 
L 207.819777 95.33601 
L 208.314195 95.250274 
L 208.808612 94.907331 
L 209.30303 97.050729 
L 209.797448 97.479408 
L 210.291866 98.07956 
L 210.786284 97.393672 
L 211.280702 98.336767 
L 211.77512 96.964993 
L 212.269537 96.707785 
L 212.763955 97.2222 
L 213.258373 96.450577 
L 213.752791 94.392915 
L 214.247209 94.564387 
L 214.741627 96.536313 
L 215.236045 94.307179 
L 215.730463 93.621292 
L 216.22488 94.307179 
L 216.719298 94.392915 
L 217.213716 96.364841 
L 218.202552 92.163781 
L 218.69697 92.506725 
L 219.191388 96.536313 
L 219.685805 94.650123 
L 220.180223 94.993067 
L 220.674641 93.964236 
L 221.169059 92.335253 
L 221.663477 92.592461 
L 222.157895 95.250274 
L 222.652313 93.364084 
L 223.14673 93.8785 
L 223.641148 93.535556 
L 224.135566 94.221443 
L 225.124402 92.678197 
L 225.61882 94.821595 
L 226.113238 95.507482 
L 226.607656 91.049215 
L 227.102073 92.420989 
L 227.596491 91.906574 
L 228.090909 92.849669 
L 228.585327 93.535556 
L 229.079745 88.905817 
L 229.574163 90.963479 
L 230.068581 90.877743 
L 230.562998 92.335253 
L 231.057416 93.278348 
L 231.551834 89.591704 
L 232.046252 91.220686 
L 232.54067 91.306422 
L 233.035088 90.020384 
L 233.529506 92.592461 
L 234.023923 89.67744 
L 234.518341 91.99231 
L 235.012759 88.305665 
L 235.507177 90.106119 
L 236.001595 89.077288 
L 236.496013 93.44982 
L 236.990431 88.905817 
L 237.484848 92.249517 
L 237.979266 88.477137 
L 238.473684 90.449063 
L 238.968102 91.820838 
L 239.46252 89.505968 
L 239.956938 88.477137 
L 240.451356 90.020384 
L 240.945774 90.620535 
L 241.440191 87.79125 
L 241.934609 89.505968 
L 242.429027 89.591704 
L 242.923445 92.420989 
L 243.417863 88.219929 
L 243.912281 92.078046 
L 244.406699 86.762419 
L 244.901116 85.304908 
L 245.395534 90.963479 
L 245.889952 88.905817 
L 246.38437 90.020384 
L 246.878788 90.706271 
L 247.373206 89.763176 
L 247.867624 90.706271 
L 248.362041 92.163781 
L 248.856459 90.277591 
L 249.845295 90.449063 
L 250.339713 87.448306 
L 250.834131 88.048458 
L 251.328549 87.79125 
L 251.822967 86.162267 
L 252.317384 88.648609 
L 253.30622 90.877743 
L 253.800638 88.048458 
L 254.295056 90.191855 
L 254.789474 87.276834 
L 255.283892 88.391401 
L 255.778309 90.877743 
L 256.272727 87.79125 
L 256.767145 86.676683 
L 257.261563 88.648609 
L 257.755981 87.534042 
L 258.250399 85.733588 
L 258.744817 87.79125 
L 259.239234 83.675926 
L 260.22807 87.619778 
L 260.722488 88.048458 
L 261.216906 88.648609 
L 261.711324 84.876229 
L 262.205742 87.876986 
L 262.700159 85.304908 
L 263.194577 85.990796 
L 263.688995 86.248003 
L 264.183413 87.962722 
L 264.677831 88.991553 
L 266.161085 87.105362 
L 266.655502 88.391401 
L 267.14992 87.276834 
L 267.644338 87.191098 
L 268.138756 86.419475 
L 268.633174 88.991553 
L 269.127592 86.333739 
L 269.62201 88.048458 
L 270.610845 85.990796 
L 271.105263 89.67744 
L 271.599681 86.333739 
L 272.094099 87.105362 
L 273.082935 89.591704 
L 273.577352 86.076531 
L 274.07177 85.990796 
L 274.566188 89.163024 
L 275.060606 85.562116 
L 275.555024 87.705514 
L 276.049442 86.762419 
L 276.54386 86.676683 
L 277.038278 84.790493 
L 277.532695 87.962722 
L 278.027113 87.105362 
L 278.521531 85.990796 
L 279.015949 83.933134 
L 279.510367 83.075774 
L 280.004785 87.876986 
L 280.499203 84.533285 
L 280.99362 87.276834 
L 281.488038 85.0477 
L 281.982456 84.876229 
L 282.476874 86.419475 
L 282.971292 86.505211 
L 283.46571 85.133436 
L 283.960128 86.933891 
L 284.454545 85.304908 
L 284.948963 86.076531 
L 285.443381 83.675926 
L 285.937799 85.0477 
L 286.432217 85.304908 
L 286.926635 85.819324 
L 287.421053 87.019627 
L 287.91547 86.248003 
L 288.409888 83.59019 
L 288.904306 85.304908 
L 289.398724 85.304908 
L 289.893142 83.847398 
L 290.38756 87.276834 
L 290.881978 85.47638 
L 291.376396 87.191098 
L 291.870813 84.104605 
L 292.365231 85.733588 
L 292.859649 84.619021 
L 293.354067 84.790493 
L 293.848485 84.704757 
L 294.342903 83.847398 
L 294.837321 84.447549 
L 295.331738 87.79125 
L 295.826156 86.419475 
L 296.320574 83.675926 
L 296.814992 84.447549 
L 297.30941 87.619778 
L 298.298246 84.361813 
L 298.792663 85.0477 
L 299.287081 85.390644 
L 299.781499 84.704757 
L 300.770335 87.276834 
L 301.264753 83.761662 
L 301.759171 83.761662 
L 302.253589 83.075774 
L 302.748006 84.190341 
L 303.242424 83.761662 
L 303.736842 84.876229 
L 304.23126 83.418718 
L 304.725678 83.59019 
L 305.220096 85.219172 
L 305.714514 85.733588 
L 306.208931 84.018869 
L 306.703349 84.961965 
L 307.197767 84.790493 
L 307.692185 82.732831 
L 308.186603 81.875472 
L 308.681021 81.618264 
L 309.175439 83.332982 
L 309.669856 82.647095 
L 311.15311 85.133436 
L 311.647528 85.304908 
L 312.141946 83.847398 
L 312.636364 83.418718 
L 313.130781 83.59019 
L 313.625199 82.904303 
L 314.119617 84.190341 
L 314.614035 84.619021 
L 315.108453 86.076531 
L 315.602871 85.562116 
L 316.097289 83.59019 
L 316.591707 85.647852 
L 317.086124 84.704757 
L 317.580542 82.132679 
L 318.07496 83.247246 
L 318.569378 83.675926 
L 319.063796 87.105362 
L 319.558214 83.675926 
L 320.052632 86.248003 
L 320.547049 80.846641 
L 321.041467 81.961207 
L 321.535885 84.790493 
L 322.030303 81.961207 
L 322.524721 85.733588 
L 323.019139 81.704 
L 323.513557 82.046943 
L 324.007974 82.818567 
L 324.502392 83.847398 
L 324.99681 81.961207 
L 325.491228 83.504454 
L 325.985646 83.933134 
L 326.480064 83.504454 
L 326.974482 82.732831 
L 327.4689 80.760905 
L 327.963317 82.218415 
L 328.457735 84.619021 
L 328.952153 82.647095 
L 329.446571 83.332982 
L 329.940989 82.990038 
L 330.435407 83.933134 
L 330.929825 82.904303 
L 331.424242 83.16151 
L 331.91866 82.818567 
L 332.907496 84.961965 
L 333.401914 83.59019 
L 333.896332 82.818567 
L 334.39075 84.190341 
L 334.885167 81.704 
L 335.379585 82.132679 
L 335.874003 83.332982 
L 336.368421 84.104605 
L 336.862839 81.532528 
L 337.357257 82.132679 
L 337.851675 82.218415 
L 338.346093 81.103848 
L 338.84051 79.474866 
L 339.334928 80.503697 
L 339.829346 83.675926 
L 340.323764 79.81781 
L 340.818182 85.0477 
L 341.3126 81.446792 
L 341.807018 83.16151 
L 342.301435 82.732831 
L 342.795853 83.16151 
L 343.290271 83.16151 
L 343.784689 81.532528 
L 344.279107 84.104605 
L 344.773525 81.875472 
L 345.267943 81.446792 
L 345.76236 79.81781 
L 346.256778 83.16151 
L 346.751196 81.189584 
L 347.740032 82.218415 
L 348.23445 81.103848 
L 348.728868 84.104605 
L 349.223285 81.618264 
L 349.717703 82.389887 
L 350.212121 82.218415 
L 350.706539 83.16151 
L 351.200957 78.446035 
L 351.695375 80.760905 
L 352.189793 82.304151 
L 352.684211 84.790493 
L 353.178628 81.961207 
L 353.673046 82.647095 
L 354.167464 83.761662 
L 354.661882 81.446792 
L 355.1563 82.046943 
L 355.650718 82.990038 
L 356.145136 81.361056 
L 356.639553 81.961207 
L 357.133971 81.875472 
L 357.628389 83.504454 
L 358.122807 83.933134 
L 358.617225 79.38913 
L 359.111643 80.332225 
L 359.606061 81.961207 
L 360.100478 82.218415 
L 360.594896 79.989281 
L 361.089314 79.474866 
L 362.572568 82.818567 
L 363.066986 82.818567 
L 363.561404 83.504454 
L 364.055821 82.132679 
L 364.550239 81.446792 
L 365.044657 79.303394 
L 365.539075 81.103848 
L 366.033493 80.846641 
L 366.527911 83.847398 
L 367.022329 82.218415 
L 367.516746 81.961207 
L 368.011164 81.189584 
L 368.505582 81.532528 
L 369 82.732831 
L 369.494418 80.332225 
L 369.988836 79.303394 
L 370.483254 81.446792 
L 370.977671 80.503697 
L 371.472089 83.675926 
L 371.966507 79.81781 
L 372.460925 82.304151 
L 372.955343 80.589433 
L 373.449761 82.218415 
L 373.944179 82.389887 
L 374.438596 81.532528 
L 374.933014 81.875472 
L 375.427432 82.389887 
L 375.92185 81.446792 
L 376.416268 79.131922 
L 376.910686 80.675169 
L 377.405104 81.532528 
L 377.899522 79.560602 
L 378.393939 82.304151 
L 378.888357 81.103848 
L 379.382775 78.788979 
L 379.877193 82.904303 
L 380.371611 82.561359 
L 380.866029 81.875472 
L 381.360447 79.474866 
L 382.349282 80.503697 
L 382.8437 82.475623 
L 383.832536 82.990038 
L 384.326954 81.018112 
L 384.821372 80.417961 
L 385.315789 82.046943 
L 386.304625 79.303394 
L 386.799043 83.847398 
L 387.293461 78.360299 
L 387.787879 81.361056 
L 388.282297 81.532528 
L 388.776715 79.131922 
L 389.271132 81.704 
L 389.76555 80.932377 
L 390.259968 83.675926 
L 390.754386 82.475623 
L 391.248804 78.617507 
L 391.743222 81.103848 
L 392.23764 79.989281 
L 392.732057 80.760905 
L 393.226475 78.788979 
L 393.720893 82.046943 
L 394.709729 80.417961 
L 395.204147 81.361056 
L 395.698565 82.561359 
L 396.192982 80.332225 
L 396.6874 80.503697 
L 397.181818 79.732074 
L 397.676236 81.532528 
L 398.665072 79.81781 
L 399.15949 80.846641 
L 399.653907 78.703243 
L 400.148325 81.103848 
L 400.642743 80.075017 
L 401.137161 79.303394 
L 401.631579 79.989281 
L 402.125997 81.704 
L 402.620415 80.075017 
L 403.114833 81.618264 
L 403.60925 79.38913 
L 404.103668 81.789736 
L 404.598086 79.131922 
L 405.092504 81.789736 
L 406.08134 78.531771 
L 406.575758 79.38913 
L 407.070175 81.618264 
L 407.564593 80.417961 
L 408.553429 78.531771 
L 409.047847 78.788979 
L 409.542265 79.303394 
L 410.5311 79.646338 
L 411.025518 80.246489 
L 411.519936 77.931619 
L 412.014354 77.931619 
L 412.508772 78.703243 
L 413.00319 81.875472 
L 413.497608 81.361056 
L 413.992026 79.560602 
L 414.486443 80.246489 
L 414.980861 80.589433 
L 415.475279 78.446035 
L 415.969697 79.38913 
L 416.464115 81.018112 
L 416.958533 79.646338 
L 417.452951 80.332225 
L 417.947368 80.246489 
L 418.441786 80.503697 
L 418.936204 78.703243 
L 419.430622 80.589433 
L 419.92504 79.217658 
L 420.419458 79.474866 
L 420.913876 80.589433 
L 421.408293 81.27532 
L 421.902711 78.617507 
L 422.397129 80.675169 
L 422.891547 79.217658 
L 423.385965 78.96045 
L 423.880383 78.96045 
L 424.374801 80.503697 
L 424.869219 80.503697 
L 425.363636 79.38913 
L 425.858054 78.617507 
L 426.84689 79.732074 
L 427.341308 79.474866 
L 427.835726 79.046186 
L 428.330144 79.131922 
L 428.824561 82.818567 
L 429.318979 81.789736 
L 429.813397 78.96045 
L 430.307815 79.38913 
L 430.802233 79.474866 
L 431.296651 77.760148 
L 431.791069 79.046186 
L 432.285486 81.361056 
L 432.779904 82.389887 
L 433.76874 78.788979 
L 434.263158 77.674412 
L 434.757576 79.217658 
L 435.251994 79.131922 
L 435.746411 78.017355 
L 436.240829 80.075017 
L 436.735247 79.732074 
L 437.229665 80.760905 
L 438.218501 78.017355 
L 438.712919 78.274563 
L 439.207337 79.732074 
L 439.701754 77.845884 
L 440.196172 79.646338 
L 440.69059 80.846641 
L 441.185008 78.531771 
L 441.679426 77.760148 
L 442.173844 78.617507 
L 442.668262 78.017355 
L 443.162679 79.732074 
L 443.657097 79.217658 
L 444.151515 78.96045 
L 444.645933 81.618264 
L 445.140351 79.38913 
L 445.634769 80.503697 
L 446.129187 77.331468 
L 446.623604 79.131922 
L 447.118022 80.160753 
L 447.61244 78.188827 
L 448.106858 80.760905 
L 448.601276 77.931619 
L 449.095694 80.160753 
L 449.590112 78.446035 
L 450.08453 79.732074 
L 451.073365 79.81781 
L 451.567783 77.50294 
L 452.062201 78.96045 
L 452.556619 81.27532 
L 453.051037 77.760148 
L 453.545455 82.304151 
L 454.039872 79.732074 
L 454.53429 78.017355 
L 455.028708 81.018112 
L 455.523126 79.560602 
L 456.017544 79.903546 
L 456.511962 78.103091 
L 457.00638 79.903546 
L 457.500797 79.131922 
L 457.995215 77.50294 
L 458.489633 81.618264 
L 458.984051 79.474866 
L 459.478469 79.217658 
L 459.972887 79.474866 
L 460.467305 79.217658 
L 460.961722 78.446035 
L 461.950558 80.503697 
L 462.444976 80.760905 
L 463.433812 77.331468 
L 463.92823 78.96045 
L 464.422648 78.96045 
L 464.917065 78.788979 
L 465.411483 79.903546 
L 465.905901 78.360299 
L 466.400319 78.446035 
L 466.894737 77.331468 
L 467.389155 77.245732 
L 467.883573 79.81781 
L 468.37799 79.732074 
L 469.366826 80.332225 
L 469.861244 79.217658 
L 470.355662 79.474866 
L 470.85008 79.474866 
L 471.344498 78.788979 
L 471.838915 78.788979 
L 472.333333 78.446035 
L 472.827751 78.617507 
L 473.322169 77.588676 
L 473.816587 78.874715 
L 474.311005 79.046186 
L 474.805423 79.81781 
L 475.299841 78.703243 
L 475.794258 78.017355 
L 476.783094 80.246489 
L 477.277512 79.046186 
L 477.77193 79.732074 
L 478.266348 79.989281 
L 478.760766 79.046186 
L 479.255183 77.331468 
L 479.749601 81.532528 
L 480.244019 80.846641 
L 481.232855 77.50294 
L 482.221691 80.417961 
L 482.716108 79.303394 
L 483.210526 80.589433 
L 483.704944 78.446035 
L 484.199362 78.874715 
L 484.69378 77.50294 
L 485.188198 80.075017 
L 485.682616 81.018112 
L 486.177033 78.703243 
L 486.671451 77.07426 
L 487.165869 78.617507 
L 487.660287 78.788979 
L 488.154705 78.617507 
L 488.649123 78.96045 
L 489.143541 80.417961 
L 489.637959 77.588676 
L 490.132376 76.902788 
L 490.626794 80.332225 
L 491.121212 78.531771 
L 492.110048 76.817053 
L 492.604466 78.531771 
L 493.098884 78.788979 
L 493.593301 79.303394 
L 494.087719 78.96045 
L 494.582137 79.303394 
L 495.076555 80.332225 
L 496.065391 77.674412 
L 496.559809 77.07426 
L 497.054226 77.760148 
L 497.548644 77.50294 
L 498.043062 77.931619 
L 498.53748 81.018112 
L 499.031898 76.902788 
L 499.526316 78.188827 
L 500.020734 77.07426 
L 501.009569 78.446035 
L 501.503987 76.817053 
L 502.492823 79.217658 
L 502.987241 76.388373 
L 503.481659 76.388373 
L 503.976077 79.646338 
L 504.470494 78.617507 
L 504.964912 78.188827 
L 505.45933 79.646338 
L 505.953748 75.273806 
L 506.448166 79.903546 
L 507.437002 77.760148 
L 507.931419 79.732074 
L 508.425837 78.188827 
L 508.920255 80.075017 
L 509.414673 78.703243 
L 509.909091 79.732074 
L 510.403509 78.446035 
L 510.897927 80.332225 
L 511.392344 77.674412 
L 511.886762 77.245732 
L 512.38118 76.645581 
L 512.875598 77.50294 
L 513.370016 77.674412 
L 513.864434 76.559845 
L 514.358852 78.274563 
L 515.347687 77.331468 
L 515.842105 76.474109 
L 516.336523 78.274563 
L 516.830941 78.874715 
L 517.325359 77.159996 
L 517.819777 78.446035 
L 518.314195 76.474109 
L 518.808612 78.96045 
L 519.30303 77.845884 
L 519.797448 78.531771 
L 520.291866 78.274563 
L 520.786284 77.159996 
L 521.280702 76.559845 
L 521.77512 78.360299 
L 522.269537 79.38913 
L 522.763955 77.417204 
L 523.258373 79.303394 
L 523.752791 77.674412 
L 524.247209 80.417961 
L 524.741627 77.674412 
L 525.236045 77.159996 
L 525.730463 78.96045 
L 526.22488 76.216901 
L 526.719298 77.07426 
L 527.213716 79.646338 
L 527.708134 77.50294 
L 528.202552 77.417204 
L 528.69697 79.81781 
L 529.191388 75.61675 
L 529.685805 78.446035 
L 530.180223 78.788979 
L 530.674641 77.931619 
L 531.169059 78.274563 
L 531.663477 79.217658 
L 532.157895 78.017355 
L 532.652313 78.874715 
L 533.14673 78.360299 
L 533.641148 77.331468 
L 534.629984 79.217658 
L 535.124402 78.274563 
L 535.61882 75.61675 
L 536.113238 80.160753 
L 536.607656 79.732074 
L 537.596491 78.188827 
L 538.090909 78.531771 
L 538.585327 78.531771 
L 539.079745 76.474109 
L 539.574163 79.560602 
L 540.562998 76.559845 
L 541.057416 77.50294 
L 541.551834 78.788979 
L 542.046252 76.817053 
L 542.54067 77.760148 
L 543.035088 79.303394 
L 543.529506 75.531014 
L 544.518341 79.303394 
L 545.507177 77.331468 
L 546.001595 77.417204 
L 546.990431 78.103091 
L 547.484848 77.674412 
L 547.979266 80.417961 
L 548.473684 77.588676 
L 548.968102 76.817053 
L 549.46252 79.646338 
L 549.956938 77.588676 
L 550.451356 76.388373 
L 550.945774 76.474109 
L 551.440191 78.446035 
L 551.934609 77.588676 
L 552.429027 77.331468 
L 552.923445 77.760148 
L 553.417863 75.873957 
L 554.406699 77.588676 
L 554.901116 77.588676 
L 555.395534 78.103091 
L 555.889952 78.446035 
L 556.38437 76.302637 
L 556.878788 79.81781 
L 557.373206 77.760148 
L 557.867624 77.245732 
L 558.362041 79.81781 
L 558.856459 76.302637 
L 559.350877 79.474866 
L 559.845295 77.331468 
L 560.339713 78.274563 
L 560.834131 73.73056 
L 561.328549 78.874715 
L 561.822967 77.588676 
L 562.317384 78.874715 
L 562.811802 76.388373 
L 563.30622 79.303394 
L 563.800638 75.61675 
L 564.295056 79.474866 
L 564.789474 76.559845 
L 565.283892 76.559845 
L 565.778309 77.845884 
L 566.272727 76.045429 
L 566.767145 77.760148 
L 567.261563 75.873957 
L 567.755981 79.131922 
L 568.250399 76.988524 
L 568.744817 76.817053 
L 569.239234 78.017355 
L 569.733652 78.103091 
L 570.22807 76.045429 
L 570.722488 78.188827 
L 571.216906 75.359542 
L 571.711324 78.617507 
L 572.205742 77.07426 
L 572.700159 77.50294 
L 573.194577 75.445278 
L 573.688995 77.245732 
L 574.183413 76.731317 
L 574.677831 77.07426 
L 575.172249 79.046186 
L 575.666667 80.246489 
L 576.161085 77.417204 
L 576.655502 77.931619 
L 577.14992 75.788222 
L 577.644338 78.188827 
L 578.138756 75.788222 
L 578.633174 79.303394 
L 579.127592 75.959693 
L 579.62201 78.446035 
L 580.116427 78.703243 
L 580.610845 77.931619 
L 581.105263 78.703243 
L 581.599681 77.931619 
L 582.094099 78.188827 
L 582.588517 77.588676 
L 583.082935 77.760148 
L 583.577352 74.244975 
L 584.07177 77.245732 
L 584.566188 78.446035 
L 585.060606 78.103091 
L 585.555024 77.245732 
L 586.049442 77.50294 
L 586.54386 78.274563 
L 587.038278 74.845126 
L 587.532695 77.159996 
L 588.027113 76.731317 
L 588.521531 77.331468 
L 589.015949 77.245732 
L 590.004785 76.645581 
L 590.499203 74.845126 
L 590.99362 76.131165 
L 591.488038 76.474109 
L 591.982456 77.417204 
L 592.476874 76.131165 
L 593.46571 77.331468 
L 593.960128 78.788979 
L 594.454545 78.103091 
L 594.948963 76.817053 
L 595.443381 77.588676 
L 595.937799 76.388373 
L 596.926635 77.417204 
L 597.421053 76.388373 
L 597.91547 77.245732 
L 598.409888 78.703243 
L 598.904306 77.07426 
L 599.398724 78.703243 
L 599.893142 75.959693 
L 600.38756 76.988524 
L 600.881978 76.559845 
L 601.376396 76.474109 
L 601.870813 78.96045 
L 602.365231 78.360299 
L 602.859649 77.331468 
L 603.354067 76.559845 
L 603.848485 79.046186 
L 604.342903 78.703243 
L 604.837321 76.388373 
L 605.826156 78.188827 
L 606.320574 79.474866 
L 606.814992 78.96045 
L 607.803828 76.216901 
L 608.298246 78.274563 
L 608.792663 75.016598 
L 609.781499 75.959693 
L 610.275917 77.674412 
L 610.770335 75.788222 
L 611.264753 78.703243 
L 611.759171 79.38913 
L 612.253589 78.617507 
L 612.748006 75.18807 
L 613.242424 76.731317 
L 613.736842 74.330711 
L 614.23126 75.273806 
L 614.725678 77.245732 
L 615.220096 77.331468 
L 616.208931 79.217658 
L 616.703349 77.674412 
L 617.197767 80.075017 
L 617.692185 78.617507 
L 618.186603 76.474109 
L 618.681021 77.245732 
L 619.175439 76.045429 
L 619.669856 78.017355 
L 620.164274 77.417204 
L 620.658692 77.931619 
L 621.15311 77.159996 
L 621.647528 75.273806 
L 622.141946 75.359542 
L 622.636364 76.817053 
L 622.636364 76.817053 
" style="fill:none;stroke:#ff7f0e;stroke-linecap:square;stroke-width:0.5;"/>
   </g>
   <g id="patch_3">
    <path d="M 90 315 
L 90 43.2 
" style="fill:none;stroke:#000000;stroke-linecap:square;stroke-linejoin:miter;stroke-width:0.8;"/>
   </g>
   <g id="patch_4">
    <path d="M 648 315 
L 648 43.2 
" style="fill:none;stroke:#000000;stroke-linecap:square;stroke-linejoin:miter;stroke-width:0.8;"/>
   </g>
   <g id="patch_5">
    <path d="M 90 315 
L 648 315 
" style="fill:none;stroke:#000000;stroke-linecap:square;stroke-linejoin:miter;stroke-width:0.8;"/>
   </g>
   <g id="patch_6">
    <path d="M 90 43.2 
L 648 43.2 
" style="fill:none;stroke:#000000;stroke-linecap:square;stroke-linejoin:miter;stroke-width:0.8;"/>
   </g>
   <g id="text_17">
    <!-- accuracy -->
    <g transform="translate(341.92875 37.2)scale(0.12 -0.12)">
     <use xlink:href="#DejaVuSans-97"/>
     <use x="61.279297" xlink:href="#DejaVuSans-99"/>
     <use x="116.259766" xlink:href="#DejaVuSans-99"/>
     <use x="171.240234" xlink:href="#DejaVuSans-117"/>
     <use x="234.619141" xlink:href="#DejaVuSans-114"/>
     <use x="275.732422" xlink:href="#DejaVuSans-97"/>
     <use x="337.011719" xlink:href="#DejaVuSans-99"/>
     <use x="391.992188" xlink:href="#DejaVuSans-121"/>
    </g>
   </g>
   <g id="legend_1">
    <g id="patch_7">
     <path d="M 97 80.55625 
L 169.153125 80.55625 
Q 171.153125 80.55625 171.153125 78.55625 
L 171.153125 50.2 
Q 171.153125 48.2 169.153125 48.2 
L 97 48.2 
Q 95 48.2 95 50.2 
L 95 78.55625 
Q 95 80.55625 97 80.55625 
z
" style="fill:#ffffff;opacity:0.8;stroke:#cccccc;stroke-linejoin:miter;"/>
    </g>
    <g id="line2d_31">
     <path d="M 99 56.298437 
L 119 56.298437 
" style="fill:none;stroke:#1f77b4;stroke-linecap:square;stroke-width:0.5;"/>
    </g>
    <g id="line2d_32"/>
    <g id="text_18">
     <!-- train -->
     <defs>
      <path d="M 18.3125 70.21875 
L 18.3125 54.6875 
L 36.8125 54.6875 
L 36.8125 47.703125 
L 18.3125 47.703125 
L 18.3125 18.015625 
Q 18.3125 11.328125 20.140625 9.421875 
Q 21.96875 7.515625 27.59375 7.515625 
L 36.8125 7.515625 
L 36.8125 0 
L 27.59375 0 
Q 17.1875 0 13.234375 3.875 
Q 9.28125 7.765625 9.28125 18.015625 
L 9.28125 47.703125 
L 2.6875 47.703125 
L 2.6875 54.6875 
L 9.28125 54.6875 
L 9.28125 70.21875 
z
" id="DejaVuSans-116"/>
      <path d="M 9.421875 54.6875 
L 18.40625 54.6875 
L 18.40625 0 
L 9.421875 0 
z
M 9.421875 75.984375 
L 18.40625 75.984375 
L 18.40625 64.59375 
L 9.421875 64.59375 
z
" id="DejaVuSans-105"/>
      <path d="M 54.890625 33.015625 
L 54.890625 0 
L 45.90625 0 
L 45.90625 32.71875 
Q 45.90625 40.484375 42.875 44.328125 
Q 39.84375 48.1875 33.796875 48.1875 
Q 26.515625 48.1875 22.3125 43.546875 
Q 18.109375 38.921875 18.109375 30.90625 
L 18.109375 0 
L 9.078125 0 
L 9.078125 54.6875 
L 18.109375 54.6875 
L 18.109375 46.1875 
Q 21.34375 51.125 25.703125 53.5625 
Q 30.078125 56 35.796875 56 
Q 45.21875 56 50.046875 50.171875 
Q 54.890625 44.34375 54.890625 33.015625 
z
" id="DejaVuSans-110"/>
     </defs>
     <g transform="translate(127 59.798437)scale(0.1 -0.1)">
      <use xlink:href="#DejaVuSans-116"/>
      <use x="39.208984" xlink:href="#DejaVuSans-114"/>
      <use x="80.322266" xlink:href="#DejaVuSans-97"/>
      <use x="141.601562" xlink:href="#DejaVuSans-105"/>
      <use x="169.384766" xlink:href="#DejaVuSans-110"/>
     </g>
    </g>
    <g id="line2d_33">
     <path d="M 99 70.976562 
L 119 70.976562 
" style="fill:none;stroke:#ff7f0e;stroke-linecap:square;stroke-width:0.5;"/>
    </g>
    <g id="line2d_34"/>
    <g id="text_19">
     <!-- validate -->
     <defs>
      <path d="M 2.984375 54.6875 
L 12.5 54.6875 
L 29.59375 8.796875 
L 46.6875 54.6875 
L 56.203125 54.6875 
L 35.6875 0 
L 23.484375 0 
z
" id="DejaVuSans-118"/>
      <path d="M 9.421875 75.984375 
L 18.40625 75.984375 
L 18.40625 0 
L 9.421875 0 
z
" id="DejaVuSans-108"/>
      <path d="M 45.40625 46.390625 
L 45.40625 75.984375 
L 54.390625 75.984375 
L 54.390625 0 
L 45.40625 0 
L 45.40625 8.203125 
Q 42.578125 3.328125 38.25 0.953125 
Q 33.9375 -1.421875 27.875 -1.421875 
Q 17.96875 -1.421875 11.734375 6.484375 
Q 5.515625 14.40625 5.515625 27.296875 
Q 5.515625 40.1875 11.734375 48.09375 
Q 17.96875 56 27.875 56 
Q 33.9375 56 38.25 53.625 
Q 42.578125 51.265625 45.40625 46.390625 
z
M 14.796875 27.296875 
Q 14.796875 17.390625 18.875 11.75 
Q 22.953125 6.109375 30.078125 6.109375 
Q 37.203125 6.109375 41.296875 11.75 
Q 45.40625 17.390625 45.40625 27.296875 
Q 45.40625 37.203125 41.296875 42.84375 
Q 37.203125 48.484375 30.078125 48.484375 
Q 22.953125 48.484375 18.875 42.84375 
Q 14.796875 37.203125 14.796875 27.296875 
z
" id="DejaVuSans-100"/>
     </defs>
     <g transform="translate(127 74.476562)scale(0.1 -0.1)">
      <use xlink:href="#DejaVuSans-118"/>
      <use x="59.179688" xlink:href="#DejaVuSans-97"/>
      <use x="120.458984" xlink:href="#DejaVuSans-108"/>
      <use x="148.242188" xlink:href="#DejaVuSans-105"/>
      <use x="176.025391" xlink:href="#DejaVuSans-100"/>
      <use x="239.501953" xlink:href="#DejaVuSans-97"/>
      <use x="300.78125" xlink:href="#DejaVuSans-116"/>
      <use x="339.990234" xlink:href="#DejaVuSans-101"/>
     </g>
    </g>
   </g>
  </g>
 </g>
 <defs>
  <clipPath id="pbeff68ad28">
   <rect height="271.8" width="558" x="90" y="43.2"/>
  </clipPath>
 </defs>
</svg>
