<?xml version="1.0" encoding="utf-8" standalone="no"?>
<!DOCTYPE svg PUBLIC "-//W3C//DTD SVG 1.1//EN"
  "http://www.w3.org/Graphics/SVG/1.1/DTD/svg11.dtd">
<!-- Created with matplotlib (https://matplotlib.org/) -->
<svg height="360pt" version="1.1" viewBox="0 0 720 360" width="720pt" xmlns="http://www.w3.org/2000/svg" xmlns:xlink="http://www.w3.org/1999/xlink">
 <defs>
  <style type="text/css">
*{stroke-linecap:butt;stroke-linejoin:round;}
  </style>
 </defs>
 <g id="figure_1">
  <g id="patch_1">
   <path d="M 0 360 
L 720 360 
L 720 0 
L 0 0 
z
" style="fill:#ffffff;"/>
  </g>
  <g id="axes_1">
   <g id="patch_2">
    <path d="M 90 315 
L 648 315 
L 648 43.2 
L 90 43.2 
z
" style="fill:#ffffff;"/>
   </g>
   <g id="matplotlib.axis_1">
    <g id="xtick_1">
     <g id="line2d_1">
      <path clip-path="url(#p952e6c553f)" d="M 115.363636 315 
L 115.363636 43.2 
" style="fill:none;stroke:#b0b0b0;stroke-linecap:square;stroke-width:0.8;"/>
     </g>
     <g id="line2d_2">
      <defs>
       <path d="M 0 0 
L 0 3.5 
" id="m785999e235" style="stroke:#000000;stroke-width:0.8;"/>
      </defs>
      <g>
       <use style="stroke:#000000;stroke-width:0.8;" x="115.363636" xlink:href="#m785999e235" y="315"/>
      </g>
     </g>
     <g id="text_1">
      <!-- 0 -->
      <defs>
       <path d="M 31.78125 66.40625 
Q 24.171875 66.40625 20.328125 58.90625 
Q 16.5 51.421875 16.5 36.375 
Q 16.5 21.390625 20.328125 13.890625 
Q 24.171875 6.390625 31.78125 6.390625 
Q 39.453125 6.390625 43.28125 13.890625 
Q 47.125 21.390625 47.125 36.375 
Q 47.125 51.421875 43.28125 58.90625 
Q 39.453125 66.40625 31.78125 66.40625 
z
M 31.78125 74.21875 
Q 44.046875 74.21875 50.515625 64.515625 
Q 56.984375 54.828125 56.984375 36.375 
Q 56.984375 17.96875 50.515625 8.265625 
Q 44.046875 -1.421875 31.78125 -1.421875 
Q 19.53125 -1.421875 13.0625 8.265625 
Q 6.59375 17.96875 6.59375 36.375 
Q 6.59375 54.828125 13.0625 64.515625 
Q 19.53125 74.21875 31.78125 74.21875 
z
" id="DejaVuSans-48"/>
      </defs>
      <g transform="translate(112.182386 329.598437)scale(0.1 -0.1)">
       <use xlink:href="#DejaVuSans-48"/>
      </g>
     </g>
    </g>
    <g id="xtick_2">
     <g id="line2d_3">
      <path clip-path="url(#p952e6c553f)" d="M 206.846545 315 
L 206.846545 43.2 
" style="fill:none;stroke:#b0b0b0;stroke-linecap:square;stroke-width:0.8;"/>
     </g>
     <g id="line2d_4">
      <g>
       <use style="stroke:#000000;stroke-width:0.8;" x="206.846545" xlink:href="#m785999e235" y="315"/>
      </g>
     </g>
     <g id="text_2">
      <!-- 200 -->
      <defs>
       <path d="M 19.1875 8.296875 
L 53.609375 8.296875 
L 53.609375 0 
L 7.328125 0 
L 7.328125 8.296875 
Q 12.9375 14.109375 22.625 23.890625 
Q 32.328125 33.6875 34.8125 36.53125 
Q 39.546875 41.84375 41.421875 45.53125 
Q 43.3125 49.21875 43.3125 52.78125 
Q 43.3125 58.59375 39.234375 62.25 
Q 35.15625 65.921875 28.609375 65.921875 
Q 23.96875 65.921875 18.8125 64.3125 
Q 13.671875 62.703125 7.8125 59.421875 
L 7.8125 69.390625 
Q 13.765625 71.78125 18.9375 73 
Q 24.125 74.21875 28.421875 74.21875 
Q 39.75 74.21875 46.484375 68.546875 
Q 53.21875 62.890625 53.21875 53.421875 
Q 53.21875 48.921875 51.53125 44.890625 
Q 49.859375 40.875 45.40625 35.40625 
Q 44.1875 33.984375 37.640625 27.21875 
Q 31.109375 20.453125 19.1875 8.296875 
z
" id="DejaVuSans-50"/>
      </defs>
      <g transform="translate(197.302795 329.598437)scale(0.1 -0.1)">
       <use xlink:href="#DejaVuSans-50"/>
       <use x="63.623047" xlink:href="#DejaVuSans-48"/>
       <use x="127.246094" xlink:href="#DejaVuSans-48"/>
      </g>
     </g>
    </g>
    <g id="xtick_3">
     <g id="line2d_5">
      <path clip-path="url(#p952e6c553f)" d="M 298.329453 315 
L 298.329453 43.2 
" style="fill:none;stroke:#b0b0b0;stroke-linecap:square;stroke-width:0.8;"/>
     </g>
     <g id="line2d_6">
      <g>
       <use style="stroke:#000000;stroke-width:0.8;" x="298.329453" xlink:href="#m785999e235" y="315"/>
      </g>
     </g>
     <g id="text_3">
      <!-- 400 -->
      <defs>
       <path d="M 37.796875 64.3125 
L 12.890625 25.390625 
L 37.796875 25.390625 
z
M 35.203125 72.90625 
L 47.609375 72.90625 
L 47.609375 25.390625 
L 58.015625 25.390625 
L 58.015625 17.1875 
L 47.609375 17.1875 
L 47.609375 0 
L 37.796875 0 
L 37.796875 17.1875 
L 4.890625 17.1875 
L 4.890625 26.703125 
z
" id="DejaVuSans-52"/>
      </defs>
      <g transform="translate(288.785703 329.598437)scale(0.1 -0.1)">
       <use xlink:href="#DejaVuSans-52"/>
       <use x="63.623047" xlink:href="#DejaVuSans-48"/>
       <use x="127.246094" xlink:href="#DejaVuSans-48"/>
      </g>
     </g>
    </g>
    <g id="xtick_4">
     <g id="line2d_7">
      <path clip-path="url(#p952e6c553f)" d="M 389.812362 315 
L 389.812362 43.2 
" style="fill:none;stroke:#b0b0b0;stroke-linecap:square;stroke-width:0.8;"/>
     </g>
     <g id="line2d_8">
      <g>
       <use style="stroke:#000000;stroke-width:0.8;" x="389.812362" xlink:href="#m785999e235" y="315"/>
      </g>
     </g>
     <g id="text_4">
      <!-- 600 -->
      <defs>
       <path d="M 33.015625 40.375 
Q 26.375 40.375 22.484375 35.828125 
Q 18.609375 31.296875 18.609375 23.390625 
Q 18.609375 15.53125 22.484375 10.953125 
Q 26.375 6.390625 33.015625 6.390625 
Q 39.65625 6.390625 43.53125 10.953125 
Q 47.40625 15.53125 47.40625 23.390625 
Q 47.40625 31.296875 43.53125 35.828125 
Q 39.65625 40.375 33.015625 40.375 
z
M 52.59375 71.296875 
L 52.59375 62.3125 
Q 48.875 64.0625 45.09375 64.984375 
Q 41.3125 65.921875 37.59375 65.921875 
Q 27.828125 65.921875 22.671875 59.328125 
Q 17.53125 52.734375 16.796875 39.40625 
Q 19.671875 43.65625 24.015625 45.921875 
Q 28.375 48.1875 33.59375 48.1875 
Q 44.578125 48.1875 50.953125 41.515625 
Q 57.328125 34.859375 57.328125 23.390625 
Q 57.328125 12.15625 50.6875 5.359375 
Q 44.046875 -1.421875 33.015625 -1.421875 
Q 20.359375 -1.421875 13.671875 8.265625 
Q 6.984375 17.96875 6.984375 36.375 
Q 6.984375 53.65625 15.1875 63.9375 
Q 23.390625 74.21875 37.203125 74.21875 
Q 40.921875 74.21875 44.703125 73.484375 
Q 48.484375 72.75 52.59375 71.296875 
z
" id="DejaVuSans-54"/>
      </defs>
      <g transform="translate(380.268612 329.598437)scale(0.1 -0.1)">
       <use xlink:href="#DejaVuSans-54"/>
       <use x="63.623047" xlink:href="#DejaVuSans-48"/>
       <use x="127.246094" xlink:href="#DejaVuSans-48"/>
      </g>
     </g>
    </g>
    <g id="xtick_5">
     <g id="line2d_9">
      <path clip-path="url(#p952e6c553f)" d="M 481.29527 315 
L 481.29527 43.2 
" style="fill:none;stroke:#b0b0b0;stroke-linecap:square;stroke-width:0.8;"/>
     </g>
     <g id="line2d_10">
      <g>
       <use style="stroke:#000000;stroke-width:0.8;" x="481.29527" xlink:href="#m785999e235" y="315"/>
      </g>
     </g>
     <g id="text_5">
      <!-- 800 -->
      <defs>
       <path d="M 31.78125 34.625 
Q 24.75 34.625 20.71875 30.859375 
Q 16.703125 27.09375 16.703125 20.515625 
Q 16.703125 13.921875 20.71875 10.15625 
Q 24.75 6.390625 31.78125 6.390625 
Q 38.8125 6.390625 42.859375 10.171875 
Q 46.921875 13.96875 46.921875 20.515625 
Q 46.921875 27.09375 42.890625 30.859375 
Q 38.875 34.625 31.78125 34.625 
z
M 21.921875 38.8125 
Q 15.578125 40.375 12.03125 44.71875 
Q 8.5 49.078125 8.5 55.328125 
Q 8.5 64.0625 14.71875 69.140625 
Q 20.953125 74.21875 31.78125 74.21875 
Q 42.671875 74.21875 48.875 69.140625 
Q 55.078125 64.0625 55.078125 55.328125 
Q 55.078125 49.078125 51.53125 44.71875 
Q 48 40.375 41.703125 38.8125 
Q 48.828125 37.15625 52.796875 32.3125 
Q 56.78125 27.484375 56.78125 20.515625 
Q 56.78125 9.90625 50.3125 4.234375 
Q 43.84375 -1.421875 31.78125 -1.421875 
Q 19.734375 -1.421875 13.25 4.234375 
Q 6.78125 9.90625 6.78125 20.515625 
Q 6.78125 27.484375 10.78125 32.3125 
Q 14.796875 37.15625 21.921875 38.8125 
z
M 18.3125 54.390625 
Q 18.3125 48.734375 21.84375 45.5625 
Q 25.390625 42.390625 31.78125 42.390625 
Q 38.140625 42.390625 41.71875 45.5625 
Q 45.3125 48.734375 45.3125 54.390625 
Q 45.3125 60.0625 41.71875 63.234375 
Q 38.140625 66.40625 31.78125 66.40625 
Q 25.390625 66.40625 21.84375 63.234375 
Q 18.3125 60.0625 18.3125 54.390625 
z
" id="DejaVuSans-56"/>
      </defs>
      <g transform="translate(471.75152 329.598437)scale(0.1 -0.1)">
       <use xlink:href="#DejaVuSans-56"/>
       <use x="63.623047" xlink:href="#DejaVuSans-48"/>
       <use x="127.246094" xlink:href="#DejaVuSans-48"/>
      </g>
     </g>
    </g>
    <g id="xtick_6">
     <g id="line2d_11">
      <path clip-path="url(#p952e6c553f)" d="M 572.778179 315 
L 572.778179 43.2 
" style="fill:none;stroke:#b0b0b0;stroke-linecap:square;stroke-width:0.8;"/>
     </g>
     <g id="line2d_12">
      <g>
       <use style="stroke:#000000;stroke-width:0.8;" x="572.778179" xlink:href="#m785999e235" y="315"/>
      </g>
     </g>
     <g id="text_6">
      <!-- 1000 -->
      <defs>
       <path d="M 12.40625 8.296875 
L 28.515625 8.296875 
L 28.515625 63.921875 
L 10.984375 60.40625 
L 10.984375 69.390625 
L 28.421875 72.90625 
L 38.28125 72.90625 
L 38.28125 8.296875 
L 54.390625 8.296875 
L 54.390625 0 
L 12.40625 0 
z
" id="DejaVuSans-49"/>
      </defs>
      <g transform="translate(560.053179 329.598437)scale(0.1 -0.1)">
       <use xlink:href="#DejaVuSans-49"/>
       <use x="63.623047" xlink:href="#DejaVuSans-48"/>
       <use x="127.246094" xlink:href="#DejaVuSans-48"/>
       <use x="190.869141" xlink:href="#DejaVuSans-48"/>
      </g>
     </g>
    </g>
    <g id="text_7">
     <!-- epoch -->
     <defs>
      <path d="M 56.203125 29.59375 
L 56.203125 25.203125 
L 14.890625 25.203125 
Q 15.484375 15.921875 20.484375 11.0625 
Q 25.484375 6.203125 34.421875 6.203125 
Q 39.59375 6.203125 44.453125 7.46875 
Q 49.3125 8.734375 54.109375 11.28125 
L 54.109375 2.78125 
Q 49.265625 0.734375 44.1875 -0.34375 
Q 39.109375 -1.421875 33.890625 -1.421875 
Q 20.796875 -1.421875 13.15625 6.1875 
Q 5.515625 13.8125 5.515625 26.8125 
Q 5.515625 40.234375 12.765625 48.109375 
Q 20.015625 56 32.328125 56 
Q 43.359375 56 49.78125 48.890625 
Q 56.203125 41.796875 56.203125 29.59375 
z
M 47.21875 32.234375 
Q 47.125 39.59375 43.09375 43.984375 
Q 39.0625 48.390625 32.421875 48.390625 
Q 24.90625 48.390625 20.390625 44.140625 
Q 15.875 39.890625 15.1875 32.171875 
z
" id="DejaVuSans-101"/>
      <path d="M 18.109375 8.203125 
L 18.109375 -20.796875 
L 9.078125 -20.796875 
L 9.078125 54.6875 
L 18.109375 54.6875 
L 18.109375 46.390625 
Q 20.953125 51.265625 25.265625 53.625 
Q 29.59375 56 35.59375 56 
Q 45.5625 56 51.78125 48.09375 
Q 58.015625 40.1875 58.015625 27.296875 
Q 58.015625 14.40625 51.78125 6.484375 
Q 45.5625 -1.421875 35.59375 -1.421875 
Q 29.59375 -1.421875 25.265625 0.953125 
Q 20.953125 3.328125 18.109375 8.203125 
z
M 48.6875 27.296875 
Q 48.6875 37.203125 44.609375 42.84375 
Q 40.53125 48.484375 33.40625 48.484375 
Q 26.265625 48.484375 22.1875 42.84375 
Q 18.109375 37.203125 18.109375 27.296875 
Q 18.109375 17.390625 22.1875 11.75 
Q 26.265625 6.109375 33.40625 6.109375 
Q 40.53125 6.109375 44.609375 11.75 
Q 48.6875 17.390625 48.6875 27.296875 
z
" id="DejaVuSans-112"/>
      <path d="M 30.609375 48.390625 
Q 23.390625 48.390625 19.1875 42.75 
Q 14.984375 37.109375 14.984375 27.296875 
Q 14.984375 17.484375 19.15625 11.84375 
Q 23.34375 6.203125 30.609375 6.203125 
Q 37.796875 6.203125 41.984375 11.859375 
Q 46.1875 17.53125 46.1875 27.296875 
Q 46.1875 37.015625 41.984375 42.703125 
Q 37.796875 48.390625 30.609375 48.390625 
z
M 30.609375 56 
Q 42.328125 56 49.015625 48.375 
Q 55.71875 40.765625 55.71875 27.296875 
Q 55.71875 13.875 49.015625 6.21875 
Q 42.328125 -1.421875 30.609375 -1.421875 
Q 18.84375 -1.421875 12.171875 6.21875 
Q 5.515625 13.875 5.515625 27.296875 
Q 5.515625 40.765625 12.171875 48.375 
Q 18.84375 56 30.609375 56 
z
" id="DejaVuSans-111"/>
      <path d="M 48.78125 52.59375 
L 48.78125 44.1875 
Q 44.96875 46.296875 41.140625 47.34375 
Q 37.3125 48.390625 33.40625 48.390625 
Q 24.65625 48.390625 19.8125 42.84375 
Q 14.984375 37.3125 14.984375 27.296875 
Q 14.984375 17.28125 19.8125 11.734375 
Q 24.65625 6.203125 33.40625 6.203125 
Q 37.3125 6.203125 41.140625 7.25 
Q 44.96875 8.296875 48.78125 10.40625 
L 48.78125 2.09375 
Q 45.015625 0.34375 40.984375 -0.53125 
Q 36.96875 -1.421875 32.421875 -1.421875 
Q 20.0625 -1.421875 12.78125 6.34375 
Q 5.515625 14.109375 5.515625 27.296875 
Q 5.515625 40.671875 12.859375 48.328125 
Q 20.21875 56 33.015625 56 
Q 37.15625 56 41.109375 55.140625 
Q 45.0625 54.296875 48.78125 52.59375 
z
" id="DejaVuSans-99"/>
      <path d="M 54.890625 33.015625 
L 54.890625 0 
L 45.90625 0 
L 45.90625 32.71875 
Q 45.90625 40.484375 42.875 44.328125 
Q 39.84375 48.1875 33.796875 48.1875 
Q 26.515625 48.1875 22.3125 43.546875 
Q 18.109375 38.921875 18.109375 30.90625 
L 18.109375 0 
L 9.078125 0 
L 9.078125 75.984375 
L 18.109375 75.984375 
L 18.109375 46.1875 
Q 21.34375 51.125 25.703125 53.5625 
Q 30.078125 56 35.796875 56 
Q 45.21875 56 50.046875 50.171875 
Q 54.890625 44.34375 54.890625 33.015625 
z
" id="DejaVuSans-104"/>
     </defs>
     <g transform="translate(353.771875 343.276563)scale(0.1 -0.1)">
      <use xlink:href="#DejaVuSans-101"/>
      <use x="61.523438" xlink:href="#DejaVuSans-112"/>
      <use x="125" xlink:href="#DejaVuSans-111"/>
      <use x="186.181641" xlink:href="#DejaVuSans-99"/>
      <use x="241.162109" xlink:href="#DejaVuSans-104"/>
     </g>
    </g>
   </g>
   <g id="matplotlib.axis_2">
    <g id="ytick_1">
     <g id="line2d_13">
      <path clip-path="url(#p952e6c553f)" d="M 90 285.617994 
L 648 285.617994 
" style="fill:none;stroke:#b0b0b0;stroke-linecap:square;stroke-width:0.8;"/>
     </g>
     <g id="line2d_14">
      <defs>
       <path d="M 0 0 
L -3.5 0 
" id="m208b2b33b2" style="stroke:#000000;stroke-width:0.8;"/>
      </defs>
      <g>
       <use style="stroke:#000000;stroke-width:0.8;" x="90" xlink:href="#m208b2b33b2" y="285.617994"/>
      </g>
     </g>
     <g id="text_8">
      <!-- 0.2 -->
      <defs>
       <path d="M 10.6875 12.40625 
L 21 12.40625 
L 21 0 
L 10.6875 0 
z
" id="DejaVuSans-46"/>
      </defs>
      <g transform="translate(67.096875 289.417213)scale(0.1 -0.1)">
       <use xlink:href="#DejaVuSans-48"/>
       <use x="63.623047" xlink:href="#DejaVuSans-46"/>
       <use x="95.410156" xlink:href="#DejaVuSans-50"/>
      </g>
     </g>
    </g>
    <g id="ytick_2">
     <g id="line2d_15">
      <path clip-path="url(#p952e6c553f)" d="M 90 252.709952 
L 648 252.709952 
" style="fill:none;stroke:#b0b0b0;stroke-linecap:square;stroke-width:0.8;"/>
     </g>
     <g id="line2d_16">
      <g>
       <use style="stroke:#000000;stroke-width:0.8;" x="90" xlink:href="#m208b2b33b2" y="252.709952"/>
      </g>
     </g>
     <g id="text_9">
      <!-- 0.4 -->
      <g transform="translate(67.096875 256.509171)scale(0.1 -0.1)">
       <use xlink:href="#DejaVuSans-48"/>
       <use x="63.623047" xlink:href="#DejaVuSans-46"/>
       <use x="95.410156" xlink:href="#DejaVuSans-52"/>
      </g>
     </g>
    </g>
    <g id="ytick_3">
     <g id="line2d_17">
      <path clip-path="url(#p952e6c553f)" d="M 90 219.80191 
L 648 219.80191 
" style="fill:none;stroke:#b0b0b0;stroke-linecap:square;stroke-width:0.8;"/>
     </g>
     <g id="line2d_18">
      <g>
       <use style="stroke:#000000;stroke-width:0.8;" x="90" xlink:href="#m208b2b33b2" y="219.80191"/>
      </g>
     </g>
     <g id="text_10">
      <!-- 0.6 -->
      <g transform="translate(67.096875 223.601129)scale(0.1 -0.1)">
       <use xlink:href="#DejaVuSans-48"/>
       <use x="63.623047" xlink:href="#DejaVuSans-46"/>
       <use x="95.410156" xlink:href="#DejaVuSans-54"/>
      </g>
     </g>
    </g>
    <g id="ytick_4">
     <g id="line2d_19">
      <path clip-path="url(#p952e6c553f)" d="M 90 186.893868 
L 648 186.893868 
" style="fill:none;stroke:#b0b0b0;stroke-linecap:square;stroke-width:0.8;"/>
     </g>
     <g id="line2d_20">
      <g>
       <use style="stroke:#000000;stroke-width:0.8;" x="90" xlink:href="#m208b2b33b2" y="186.893868"/>
      </g>
     </g>
     <g id="text_11">
      <!-- 0.8 -->
      <g transform="translate(67.096875 190.693087)scale(0.1 -0.1)">
       <use xlink:href="#DejaVuSans-48"/>
       <use x="63.623047" xlink:href="#DejaVuSans-46"/>
       <use x="95.410156" xlink:href="#DejaVuSans-56"/>
      </g>
     </g>
    </g>
    <g id="ytick_5">
     <g id="line2d_21">
      <path clip-path="url(#p952e6c553f)" d="M 90 153.985826 
L 648 153.985826 
" style="fill:none;stroke:#b0b0b0;stroke-linecap:square;stroke-width:0.8;"/>
     </g>
     <g id="line2d_22">
      <g>
       <use style="stroke:#000000;stroke-width:0.8;" x="90" xlink:href="#m208b2b33b2" y="153.985826"/>
      </g>
     </g>
     <g id="text_12">
      <!-- 1.0 -->
      <g transform="translate(67.096875 157.785045)scale(0.1 -0.1)">
       <use xlink:href="#DejaVuSans-49"/>
       <use x="63.623047" xlink:href="#DejaVuSans-46"/>
       <use x="95.410156" xlink:href="#DejaVuSans-48"/>
      </g>
     </g>
    </g>
    <g id="ytick_6">
     <g id="line2d_23">
      <path clip-path="url(#p952e6c553f)" d="M 90 121.077785 
L 648 121.077785 
" style="fill:none;stroke:#b0b0b0;stroke-linecap:square;stroke-width:0.8;"/>
     </g>
     <g id="line2d_24">
      <g>
       <use style="stroke:#000000;stroke-width:0.8;" x="90" xlink:href="#m208b2b33b2" y="121.077785"/>
      </g>
     </g>
     <g id="text_13">
      <!-- 1.2 -->
      <g transform="translate(67.096875 124.877003)scale(0.1 -0.1)">
       <use xlink:href="#DejaVuSans-49"/>
       <use x="63.623047" xlink:href="#DejaVuSans-46"/>
       <use x="95.410156" xlink:href="#DejaVuSans-50"/>
      </g>
     </g>
    </g>
    <g id="ytick_7">
     <g id="line2d_25">
      <path clip-path="url(#p952e6c553f)" d="M 90 88.169743 
L 648 88.169743 
" style="fill:none;stroke:#b0b0b0;stroke-linecap:square;stroke-width:0.8;"/>
     </g>
     <g id="line2d_26">
      <g>
       <use style="stroke:#000000;stroke-width:0.8;" x="90" xlink:href="#m208b2b33b2" y="88.169743"/>
      </g>
     </g>
     <g id="text_14">
      <!-- 1.4 -->
      <g transform="translate(67.096875 91.968961)scale(0.1 -0.1)">
       <use xlink:href="#DejaVuSans-49"/>
       <use x="63.623047" xlink:href="#DejaVuSans-46"/>
       <use x="95.410156" xlink:href="#DejaVuSans-52"/>
      </g>
     </g>
    </g>
    <g id="ytick_8">
     <g id="line2d_27">
      <path clip-path="url(#p952e6c553f)" d="M 90 55.261701 
L 648 55.261701 
" style="fill:none;stroke:#b0b0b0;stroke-linecap:square;stroke-width:0.8;"/>
     </g>
     <g id="line2d_28">
      <g>
       <use style="stroke:#000000;stroke-width:0.8;" x="90" xlink:href="#m208b2b33b2" y="55.261701"/>
      </g>
     </g>
     <g id="text_15">
      <!-- 1.6 -->
      <g transform="translate(67.096875 59.06092)scale(0.1 -0.1)">
       <use xlink:href="#DejaVuSans-49"/>
       <use x="63.623047" xlink:href="#DejaVuSans-46"/>
       <use x="95.410156" xlink:href="#DejaVuSans-54"/>
      </g>
     </g>
    </g>
    <g id="text_16">
     <!-- loss -->
     <defs>
      <path d="M 9.421875 75.984375 
L 18.40625 75.984375 
L 18.40625 0 
L 9.421875 0 
z
" id="DejaVuSans-108"/>
      <path d="M 44.28125 53.078125 
L 44.28125 44.578125 
Q 40.484375 46.53125 36.375 47.5 
Q 32.28125 48.484375 27.875 48.484375 
Q 21.1875 48.484375 17.84375 46.4375 
Q 14.5 44.390625 14.5 40.28125 
Q 14.5 37.15625 16.890625 35.375 
Q 19.28125 33.59375 26.515625 31.984375 
L 29.59375 31.296875 
Q 39.15625 29.25 43.1875 25.515625 
Q 47.21875 21.78125 47.21875 15.09375 
Q 47.21875 7.46875 41.1875 3.015625 
Q 35.15625 -1.421875 24.609375 -1.421875 
Q 20.21875 -1.421875 15.453125 -0.5625 
Q 10.6875 0.296875 5.421875 2 
L 5.421875 11.28125 
Q 10.40625 8.6875 15.234375 7.390625 
Q 20.0625 6.109375 24.8125 6.109375 
Q 31.15625 6.109375 34.5625 8.28125 
Q 37.984375 10.453125 37.984375 14.40625 
Q 37.984375 18.0625 35.515625 20.015625 
Q 33.0625 21.96875 24.703125 23.78125 
L 21.578125 24.515625 
Q 13.234375 26.265625 9.515625 29.90625 
Q 5.8125 33.546875 5.8125 39.890625 
Q 5.8125 47.609375 11.28125 51.796875 
Q 16.75 56 26.8125 56 
Q 31.78125 56 36.171875 55.265625 
Q 40.578125 54.546875 44.28125 53.078125 
z
" id="DejaVuSans-115"/>
     </defs>
     <g transform="translate(61.017187 188.757812)rotate(-90)scale(0.1 -0.1)">
      <use xlink:href="#DejaVuSans-108"/>
      <use x="27.783203" xlink:href="#DejaVuSans-111"/>
      <use x="88.964844" xlink:href="#DejaVuSans-115"/>
      <use x="141.064453" xlink:href="#DejaVuSans-115"/>
     </g>
    </g>
   </g>
   <g id="line2d_29">
    <path clip-path="url(#p952e6c553f)" d="M 115.363636 55.554545 
L 115.821051 65.028202 
L 116.278465 66.736405 
L 116.73588 72.803852 
L 117.193295 74.903676 
L 117.650709 79.413626 
L 118.108124 75.527381 
L 118.565538 79.663124 
L 119.022953 81.15005 
L 119.480367 81.990824 
L 119.937782 81.0473 
L 120.395196 86.693002 
L 120.852611 86.435213 
L 121.310025 90.22027 
L 121.76744 91.818358 
L 122.682269 100.003289 
L 123.139684 100.880132 
L 123.597098 104.037666 
L 124.054513 108.321962 
L 124.511927 110.229739 
L 124.969342 119.304946 
L 125.884171 126.544368 
L 126.341585 128.353263 
L 127.256414 139.957344 
L 127.713829 141.763959 
L 128.171244 147.822546 
L 129.086073 156.744842 
L 129.543487 159.394403 
L 130.000902 163.385989 
L 130.458316 171.898408 
L 130.915731 170.124152 
L 131.373145 174.993716 
L 131.83056 178.094441 
L 132.287974 178.676196 
L 132.745389 184.226079 
L 133.202804 185.074954 
L 133.660218 189.434643 
L 134.117633 191.316524 
L 134.575047 195.618785 
L 135.032462 197.309792 
L 135.489876 201.707213 
L 135.947291 200.307327 
L 136.404705 205.726863 
L 136.86212 207.563615 
L 137.319534 207.862612 
L 137.776949 210.985573 
L 138.234363 215.060881 
L 138.691778 217.32869 
L 139.149193 217.348 
L 140.064022 223.422243 
L 140.521436 224.982257 
L 140.978851 225.319881 
L 141.436265 228.282641 
L 141.89368 228.33507 
L 142.351094 229.450306 
L 142.808509 229.409411 
L 143.265923 233.804016 
L 143.723338 232.541257 
L 144.180753 234.592959 
L 144.638167 235.963817 
L 145.095582 236.779476 
L 145.552996 236.435569 
L 146.010411 238.795292 
L 146.467825 239.460212 
L 146.92524 239.745043 
L 147.840069 243.379545 
L 148.297483 240.788386 
L 148.754898 243.546896 
L 149.212312 244.208174 
L 149.669727 244.55764 
L 150.127142 245.894402 
L 150.584556 245.211612 
L 151.041971 246.95341 
L 151.499385 247.85388 
L 151.9568 249.875758 
L 152.414214 247.382367 
L 152.871629 249.631485 
L 153.329043 247.980208 
L 153.786458 250.644722 
L 154.243872 249.826797 
L 154.701287 251.066273 
L 155.158702 251.119826 
L 155.616116 254.879887 
L 156.073531 252.927334 
L 156.530945 254.027568 
L 156.98836 254.223674 
L 157.445774 253.315244 
L 157.903189 254.119332 
L 158.360603 256.327527 
L 158.818018 256.561708 
L 159.275432 257.109961 
L 159.732847 255.210618 
L 160.190261 258.028959 
L 160.647676 257.587028 
L 161.105091 260.166509 
L 161.562505 256.769892 
L 162.01992 260.249525 
L 162.477334 260.619319 
L 162.934749 261.28838 
L 163.392163 258.396522 
L 163.849578 261.486617 
L 164.306992 260.694814 
L 164.764407 261.907948 
L 165.221821 259.135756 
L 165.679236 261.616978 
L 166.136651 261.569528 
L 166.594065 262.490198 
L 167.05148 263.057638 
L 167.508894 264.320268 
L 167.966309 262.818461 
L 168.423723 264.037481 
L 168.881138 266.038751 
L 169.338552 265.152447 
L 169.795967 265.737156 
L 170.253381 265.275976 
L 170.710796 267.86452 
L 171.168211 264.791457 
L 171.625625 265.749906 
L 172.08304 267.374008 
L 172.540454 266.201176 
L 172.997869 266.779533 
L 173.455283 269.420721 
L 173.912698 269.488373 
L 174.370112 267.298148 
L 174.827527 267.981162 
L 175.742356 270.505321 
L 176.19977 266.613537 
L 176.657185 267.821428 
L 177.1146 270.044866 
L 177.572014 268.859568 
L 178.029429 268.735202 
L 178.486843 272.088421 
L 178.944258 269.356838 
L 179.401672 268.968993 
L 179.859087 272.722226 
L 180.316501 272.335914 
L 180.773916 272.22889 
L 181.23133 268.964506 
L 181.688745 272.119995 
L 182.14616 271.937073 
L 182.603574 272.797807 
L 183.060989 272.86374 
L 183.518403 273.426034 
L 183.975818 273.658558 
L 184.433232 273.035533 
L 184.890647 272.790952 
L 185.348061 272.918596 
L 185.805476 275.689433 
L 186.26289 274.220862 
L 186.720305 276.044379 
L 187.177719 272.960389 
L 188.549963 275.421881 
L 189.007378 275.303821 
L 189.464792 277.593194 
L 189.922207 274.916738 
L 190.379621 276.404148 
L 190.837036 276.677396 
L 191.29445 277.534626 
L 191.751865 273.197932 
L 192.666694 275.502187 
L 193.124109 275.621791 
L 193.581523 276.612229 
L 194.038938 276.447512 
L 194.496352 274.607255 
L 195.411181 278.964865 
L 195.868596 277.931048 
L 196.32601 277.309106 
L 196.783425 276.213034 
L 197.240839 279.659575 
L 197.698254 279.190248 
L 198.155668 276.981352 
L 198.613083 276.395367 
L 199.527912 279.564976 
L 199.985327 279.931217 
L 200.442741 279.927889 
L 200.900156 279.387896 
L 201.35757 276.131017 
L 202.272399 278.753503 
L 202.729814 280.421875 
L 203.187228 279.334343 
L 203.644643 280.238248 
L 204.559472 277.661928 
L 205.016887 281.035689 
L 205.474301 278.201251 
L 206.38913 280.022493 
L 207.303959 278.697667 
L 207.761374 283.235518 
L 208.218788 283.085854 
L 208.676203 279.380495 
L 209.133618 279.327573 
L 209.591032 281.989263 
L 210.048447 280.172123 
L 210.505861 280.675083 
L 210.963276 282.469901 
L 211.42069 279.496876 
L 211.878105 281.211941 
L 212.335519 280.789697 
L 212.792934 280.951424 
L 213.250348 281.79562 
L 213.707763 281.654302 
L 214.165177 281.166602 
L 214.622592 279.925135 
L 215.080007 282.630426 
L 215.537421 282.853035 
L 215.994836 283.774382 
L 216.45225 281.387981 
L 216.909665 280.468329 
L 217.367079 283.604653 
L 217.824494 282.130135 
L 218.281908 281.07924 
L 218.739323 282.768369 
L 219.196737 281.572491 
L 219.654152 281.230919 
L 220.111567 281.537937 
L 220.568981 280.666227 
L 221.026396 284.406939 
L 221.48381 283.430942 
L 221.941225 284.223396 
L 222.398639 281.251042 
L 222.856054 281.276475 
L 223.770883 285.179218 
L 224.228297 283.836584 
L 224.685712 284.721184 
L 225.143126 283.443392 
L 225.600541 284.074387 
L 226.057956 282.438196 
L 226.51537 285.619225 
L 226.972785 284.758401 
L 227.430199 284.820265 
L 227.887614 283.507081 
L 228.345028 284.417652 
L 228.802443 281.550037 
L 229.259857 283.26066 
L 229.717272 284.357216 
L 230.174686 282.307857 
L 230.632101 284.620037 
L 231.089516 282.174899 
L 231.54693 282.46587 
L 232.004345 283.984421 
L 232.461759 283.981173 
L 232.919174 285.237225 
L 233.376588 282.831779 
L 233.834003 286.459113 
L 234.291417 287.592162 
L 235.206246 283.316192 
L 235.663661 287.560913 
L 236.121075 285.219653 
L 236.57849 285.709969 
L 237.035905 284.643569 
L 237.493319 285.920427 
L 237.950734 284.578784 
L 238.408148 283.883708 
L 238.865563 284.932943 
L 239.322977 285.365096 
L 240.237806 282.607763 
L 240.695221 284.36224 
L 241.152635 284.632507 
L 241.61005 283.963751 
L 242.067465 284.933559 
L 242.524879 286.882802 
L 242.982294 285.111773 
L 243.439708 284.689613 
L 243.897123 286.079829 
L 244.354537 285.797653 
L 244.811952 285.240937 
L 245.269366 285.029841 
L 246.184195 285.510262 
L 246.64161 282.829909 
L 247.099025 285.008345 
L 247.556439 285.086171 
L 248.013854 286.656506 
L 248.471268 286.14656 
L 248.928683 285.846726 
L 249.386097 287.47072 
L 249.843512 288.031018 
L 250.300926 288.325292 
L 250.758341 286.89613 
L 251.215755 287.620415 
L 251.67317 287.992678 
L 252.130584 287.831094 
L 252.587999 285.49328 
L 253.045414 286.059812 
L 253.502828 287.651801 
L 253.960243 285.866361 
L 254.417657 288.375654 
L 254.875072 285.19259 
L 255.332486 286.802375 
L 255.789901 286.044088 
L 256.247315 285.742102 
L 256.70473 286.646443 
L 257.162144 286.752062 
L 257.619559 287.302344 
L 258.076974 286.568381 
L 258.534388 286.981904 
L 258.991803 285.264566 
L 259.449217 287.192355 
L 259.906632 283.790188 
L 260.364046 287.116986 
L 260.821461 288.17699 
L 261.278875 288.806839 
L 261.73629 287.308952 
L 262.193704 287.683464 
L 262.651119 287.631662 
L 263.108533 288.265541 
L 263.565948 289.356448 
L 264.023363 290.111538 
L 264.480777 286.679545 
L 264.938192 287.415698 
L 265.395606 289.778826 
L 265.853021 289.683633 
L 266.76785 285.925058 
L 267.225264 288.367418 
L 267.682679 289.423786 
L 268.140093 286.469498 
L 268.597508 288.574122 
L 269.054923 288.949001 
L 269.512337 287.887063 
L 269.969752 289.192479 
L 270.427166 287.206161 
L 270.884581 290.427124 
L 271.341995 289.191745 
L 271.79941 288.958754 
L 272.256824 289.619773 
L 272.714239 289.704493 
L 273.171653 288.378107 
L 273.629068 287.926701 
L 274.086482 290.051842 
L 275.001312 287.636496 
L 275.916141 290.766902 
L 276.373555 289.012015 
L 276.83097 289.469188 
L 277.288384 288.235176 
L 277.745799 289.462706 
L 278.203213 289.420515 
L 278.660628 287.931812 
L 279.118042 291.012265 
L 279.575457 290.571825 
L 280.032872 288.991039 
L 280.490286 290.926327 
L 280.947701 290.469437 
L 281.405115 288.748939 
L 281.86253 290.46286 
L 282.319944 286.960044 
L 282.777359 289.677001 
L 283.234773 289.64398 
L 283.692188 289.799806 
L 284.149602 291.896744 
L 284.607017 289.510576 
L 285.064432 288.679833 
L 285.521846 291.452928 
L 285.979261 289.961155 
L 286.436675 291.489402 
L 287.351504 287.722043 
L 287.808919 290.618279 
L 288.266333 291.3135 
L 288.723748 290.778393 
L 289.181162 291.274724 
L 289.638577 288.913187 
L 290.095991 290.708464 
L 291.010821 292.294399 
L 291.468235 290.789436 
L 291.92565 291.909966 
L 292.383064 288.846142 
L 292.840479 291.312897 
L 293.297893 290.467914 
L 293.755308 291.157787 
L 294.212722 289.832284 
L 295.127551 292.211864 
L 295.584966 292.002057 
L 296.042381 291.358526 
L 296.499795 290.301206 
L 296.95721 289.534747 
L 297.872039 290.835852 
L 298.329453 290.048303 
L 298.786868 291.612166 
L 299.244282 289.172782 
L 299.701697 290.639022 
L 300.159111 288.499978 
L 300.616526 289.90303 
L 301.531355 291.364271 
L 301.98877 290.46107 
L 302.446184 290.153595 
L 303.361013 291.095475 
L 303.818428 288.690652 
L 304.275842 292.662949 
L 304.733257 293.050498 
L 305.190671 290.480506 
L 305.648086 291.062321 
L 306.1055 291.121056 
L 306.562915 291.590131 
L 307.02033 292.416577 
L 307.477744 291.036104 
L 307.935159 292.004059 
L 308.392573 290.02084 
L 308.849988 291.394984 
L 309.307402 290.740612 
L 309.764817 293.148615 
L 310.222231 292.880769 
L 310.679646 290.97928 
L 311.13706 290.677452 
L 311.594475 293.807109 
L 312.051889 290.675628 
L 312.509304 291.639052 
L 312.966719 291.723038 
L 313.424133 291.553802 
L 313.881548 291.572912 
L 314.338962 293.197205 
L 314.796377 292.79078 
L 315.253791 293.292551 
L 315.711206 292.760058 
L 316.16862 289.958908 
L 316.626035 290.95423 
L 317.083449 291.586418 
L 317.540864 291.929652 
L 318.455693 289.545644 
L 318.913108 290.412713 
L 319.370522 293.316974 
L 319.827937 290.644376 
L 320.285351 292.518011 
L 320.742766 292.511122 
L 321.20018 291.571302 
L 321.657595 292.470112 
L 322.115009 292.903811 
L 322.572424 291.297294 
L 323.029839 291.848775 
L 323.487253 291.655943 
L 323.944668 292.158104 
L 324.402082 292.209678 
L 324.859497 290.757548 
L 325.316911 291.824191 
L 325.774326 291.568705 
L 326.23174 292.180268 
L 326.689155 293.629851 
L 327.146569 292.551561 
L 327.603984 292.018716 
L 328.061398 291.988866 
L 328.518813 291.134141 
L 328.976228 291.837624 
L 329.433642 291.154779 
L 329.891057 293.186318 
L 330.348471 292.121341 
L 330.805886 293.178718 
L 331.2633 291.242355 
L 331.720715 293.645194 
L 332.178129 291.531892 
L 332.635544 293.170291 
L 333.092958 292.800968 
L 333.550373 291.576464 
L 334.007788 291.329378 
L 334.465202 293.029241 
L 334.922617 291.382347 
L 335.380031 293.0097 
L 335.837446 292.748171 
L 336.752275 293.789754 
L 337.667104 291.04697 
L 338.124518 294.069502 
L 338.581933 289.906714 
L 339.039347 293.908229 
L 339.496762 291.313192 
L 339.954177 292.403146 
L 340.411591 292.258994 
L 340.869006 293.008496 
L 341.32642 291.837895 
L 341.783835 292.025276 
L 342.241249 291.524544 
L 342.698664 294.413632 
L 343.156078 293.330284 
L 343.613493 294.397542 
L 344.070907 294.990944 
L 344.528322 292.484495 
L 344.985737 293.989983 
L 345.443151 293.993799 
L 346.35798 290.73379 
L 346.815395 290.653815 
L 347.272809 292.285115 
L 347.730224 290.74708 
L 349.102467 292.589013 
L 349.559882 292.498494 
L 350.017296 293.424936 
L 350.474711 294.014415 
L 350.932126 292.719593 
L 351.38954 292.382327 
L 351.846955 294.523254 
L 352.304369 291.862034 
L 352.761784 293.61573 
L 353.676613 295.565702 
L 354.134027 293.866921 
L 354.591442 293.159671 
L 355.048856 293.684104 
L 355.506271 292.935642 
L 355.963686 295.721765 
L 356.4211 296.155991 
L 356.878515 294.520725 
L 357.335929 296.119995 
L 357.793344 293.295376 
L 358.250758 292.885933 
L 358.708173 292.21366 
L 359.165587 292.579791 
L 359.623002 293.351666 
L 360.080416 291.958805 
L 360.537831 295.349389 
L 360.995246 294.985728 
L 361.45266 293.485437 
L 361.910075 293.10909 
L 362.367489 292.024332 
L 362.824904 292.14547 
L 363.282318 292.754542 
L 363.739733 295.344076 
L 364.197147 294.907986 
L 364.654562 293.594195 
L 365.111976 293.750145 
L 365.569391 294.685144 
L 366.026805 293.948701 
L 366.48422 293.786161 
L 366.941635 293.315409 
L 367.399049 295.167448 
L 367.856464 294.001279 
L 368.313878 295.127555 
L 368.771293 293.867177 
L 369.686122 296.51183 
L 370.143536 292.815292 
L 370.600951 293.019733 
L 371.058365 296.028763 
L 371.51578 294.947342 
L 371.973195 295.075321 
L 372.430609 293.439551 
L 372.888024 295.14615 
L 373.345438 295.284322 
L 373.802853 293.62948 
L 374.260267 294.926632 
L 374.717682 296.73685 
L 375.175096 294.544475 
L 375.632511 294.261364 
L 376.089925 295.26396 
L 377.004754 293.943689 
L 377.462169 293.867938 
L 377.919584 297.625365 
L 378.376998 296.007102 
L 378.834413 296.492875 
L 379.291827 294.298262 
L 379.749242 296.279305 
L 380.206656 295.784433 
L 380.664071 294.890191 
L 381.121485 295.881894 
L 381.5789 294.1851 
L 382.036314 293.675337 
L 382.493729 292.893599 
L 382.951144 294.438476 
L 383.408558 293.822089 
L 383.865973 294.115982 
L 384.323387 293.993325 
L 384.780802 295.337606 
L 385.238216 295.021284 
L 385.695631 292.093184 
L 386.153045 294.955554 
L 386.61046 295.646546 
L 387.067874 293.592708 
L 387.525289 294.434601 
L 387.982704 295.577596 
L 388.440118 295.991404 
L 388.897533 293.742012 
L 390.269776 297.270877 
L 390.727191 298.365801 
L 391.184605 295.205032 
L 392.099434 296.42978 
L 392.556849 292.93065 
L 393.014263 294.869021 
L 393.471678 295.473139 
L 393.929093 296.779245 
L 394.386507 295.876248 
L 394.843922 295.339254 
L 395.301336 298.204223 
L 395.758751 293.823029 
L 396.216165 297.351609 
L 396.67358 295.418957 
L 397.130994 294.740771 
L 397.588409 296.344641 
L 398.045823 296.249332 
L 398.960653 293.775103 
L 399.418067 296.701687 
L 400.332896 293.783844 
L 400.790311 293.030802 
L 401.247725 295.088623 
L 402.162554 295.710051 
L 402.619969 293.202372 
L 403.077383 294.183554 
L 403.534798 295.496787 
L 403.992212 294.73724 
L 404.449627 295.609968 
L 405.364456 296.541102 
L 405.821871 294.970335 
L 406.279285 298.446943 
L 406.7367 293.649913 
L 407.194114 295.163712 
L 407.651529 293.888071 
L 408.108943 296.879302 
L 408.566358 296.739839 
L 409.023772 294.989477 
L 409.481187 294.423838 
L 409.938602 296.018658 
L 410.396016 295.997129 
L 410.853431 296.1276 
L 411.310845 294.281184 
L 412.225674 296.561401 
L 412.683089 294.868031 
L 413.140503 296.257304 
L 413.597918 295.529513 
L 414.055332 293.766058 
L 414.512747 297.742128 
L 414.970161 295.500183 
L 415.427576 295.153235 
L 415.884991 296.058833 
L 416.342405 296.304593 
L 416.79982 295.86981 
L 417.257234 294.939427 
L 417.714649 296.948988 
L 418.172063 297.638704 
L 418.629478 298.016731 
L 419.086892 296.089246 
L 419.544307 298.261552 
L 420.459136 294.489331 
L 420.916551 297.333892 
L 421.373965 295.940679 
L 421.83138 295.51098 
L 422.288794 295.815152 
L 422.746209 295.740804 
L 423.203623 296.943815 
L 423.661038 295.941663 
L 424.118452 296.936712 
L 424.575867 297.533457 
L 425.033281 296.257851 
L 425.490696 297.107775 
L 425.948111 294.315207 
L 426.405525 296.023971 
L 426.86294 295.574085 
L 427.320354 296.264729 
L 427.777769 298.115508 
L 428.235183 296.165059 
L 429.150012 295.411241 
L 429.607427 296.348124 
L 430.064841 296.397751 
L 430.522256 296.945038 
L 430.97967 297.259678 
L 431.437085 295.159765 
L 431.8945 297.953427 
L 432.351914 296.437227 
L 433.266743 296.519436 
L 433.724158 296.623255 
L 434.181572 297.636573 
L 434.638987 296.250115 
L 435.096401 294.089058 
L 436.468645 298.321515 
L 436.92606 297.291404 
L 437.383474 296.875217 
L 437.840889 297.431439 
L 438.298303 296.073686 
L 438.755718 298.020866 
L 439.213132 295.021633 
L 439.670547 296.909642 
L 440.127961 297.031851 
L 440.585376 296.328422 
L 441.04279 297.896055 
L 441.500205 297.513511 
L 441.957619 297.916882 
L 442.415034 297.425721 
L 442.872449 295.429185 
L 443.329863 296.762648 
L 443.787278 296.8849 
L 444.244692 296.86723 
L 444.702107 294.472533 
L 445.159521 295.825043 
L 445.616936 295.667267 
L 446.07435 295.898125 
L 446.531765 295.309865 
L 446.989179 297.052715 
L 447.446594 297.138866 
L 447.904009 296.50037 
L 448.361423 298.202251 
L 448.818838 296.843148 
L 449.276252 297.480225 
L 449.733667 296.328127 
L 450.191081 296.730463 
L 450.648496 295.839607 
L 451.10591 296.356635 
L 451.563325 298.223777 
L 452.020739 299.007207 
L 452.478154 297.170253 
L 452.935568 297.639718 
L 453.392983 297.283164 
L 453.850398 297.916096 
L 454.765227 297.605064 
L 455.222641 296.343394 
L 455.680056 297.99941 
L 456.594885 296.592451 
L 457.052299 296.999054 
L 457.509714 297.684956 
L 457.967128 295.676021 
L 458.424543 296.916532 
L 458.881958 298.625879 
L 459.339372 297.733174 
L 459.796787 297.883803 
L 460.254201 298.673712 
L 460.711616 294.910336 
L 461.16903 297.518105 
L 461.626445 297.847407 
L 462.083859 297.267566 
L 462.541274 297.702307 
L 462.998688 298.30794 
L 463.456103 298.387761 
L 463.913518 297.480437 
L 464.370932 296.826512 
L 464.828347 298.387504 
L 465.285761 298.511483 
L 465.743176 294.93047 
L 466.20059 296.753826 
L 466.658005 296.720428 
L 467.115419 296.004169 
L 467.572834 297.393862 
L 468.030248 297.856378 
L 468.487663 298.100976 
L 468.945077 297.481815 
L 469.402492 297.984136 
L 469.859907 298.136902 
L 470.317321 299.670336 
L 470.774736 297.427085 
L 471.23215 298.627285 
L 471.689565 299.463053 
L 472.604394 296.874348 
L 473.061808 299.42495 
L 473.519223 297.913239 
L 474.434052 298.130307 
L 474.891467 298.123218 
L 475.348881 299.807104 
L 475.806296 298.652427 
L 476.26371 296.279035 
L 476.721125 299.272439 
L 477.178539 297.348131 
L 477.635954 297.854015 
L 478.093368 297.96903 
L 478.550783 297.399988 
L 479.008197 297.251867 
L 479.465612 299.544253 
L 479.923026 298.572613 
L 480.380441 299.046139 
L 480.837856 298.3525 
L 481.29527 298.397373 
L 481.752685 299.187789 
L 482.210099 299.755354 
L 482.667514 298.162076 
L 483.124928 297.022611 
L 483.582343 298.799808 
L 484.039757 298.816183 
L 484.497172 298.250848 
L 484.954586 299.251065 
L 485.412001 298.16476 
L 485.869416 298.930913 
L 486.32683 296.09893 
L 486.784245 297.225349 
L 487.241659 296.5908 
L 487.699074 298.266217 
L 488.156488 298.621041 
L 488.613903 298.219188 
L 489.071317 300.419742 
L 489.528732 297.503384 
L 489.986146 297.079372 
L 490.443561 297.86944 
L 490.900975 296.492484 
L 491.35839 296.794088 
L 492.273219 298.091507 
L 492.730634 298.457132 
L 493.188048 297.995462 
L 493.645463 298.473479 
L 494.102877 299.945492 
L 494.560292 297.821442 
L 495.017706 298.956835 
L 495.475121 299.763795 
L 495.932535 295.695235 
L 496.38995 296.883116 
L 496.847365 297.51621 
L 497.304779 299.150541 
L 497.762194 297.925077 
L 498.219608 297.940841 
L 498.677023 299.995889 
L 499.134437 297.453004 
L 499.591852 298.836739 
L 500.049266 299.358247 
L 500.506681 297.280084 
L 500.964095 300.731651 
L 501.878925 296.772482 
L 502.336339 299.479748 
L 502.793754 297.505433 
L 503.251168 297.057709 
L 503.708583 298.113168 
L 504.165997 297.708508 
L 504.623412 297.049243 
L 505.080826 299.344042 
L 505.538241 296.966386 
L 505.995655 296.457271 
L 506.45307 298.776699 
L 506.910484 298.830245 
L 507.367899 297.506469 
L 507.825314 298.876441 
L 508.282728 297.325102 
L 508.740143 298.339401 
L 509.197557 297.829723 
L 509.654972 297.028307 
L 510.112386 298.003179 
L 510.569801 297.923549 
L 511.027215 296.599178 
L 511.48463 299.238695 
L 511.942044 299.843119 
L 512.399459 297.329753 
L 512.856874 297.937202 
L 513.314288 299.458082 
L 513.771703 299.75598 
L 514.229117 300.311298 
L 514.686532 300.011714 
L 515.143946 296.458193 
L 515.601361 296.14924 
L 516.058775 299.342728 
L 516.51619 299.266421 
L 516.973604 299.798416 
L 517.431019 298.8019 
L 517.888433 299.404215 
L 518.345848 299.514108 
L 518.803263 299.913827 
L 519.260677 299.564232 
L 519.718092 297.553449 
L 520.175506 296.665882 
L 520.632921 298.419117 
L 521.54775 300.100211 
L 522.005164 299.069714 
L 522.462579 298.38701 
L 522.919993 299.150768 
L 523.377408 298.259888 
L 523.834823 296.962103 
L 524.292237 298.051256 
L 524.749652 300.937307 
L 525.207066 299.676402 
L 525.664481 298.819415 
L 526.121895 299.082996 
L 526.57931 299.91711 
L 527.036724 298.492081 
L 527.494139 300.196293 
L 527.951553 301.027495 
L 528.408968 298.109776 
L 528.866382 300.281948 
L 529.323797 299.517385 
L 529.781212 299.378462 
L 530.238626 297.724834 
L 530.696041 299.238485 
L 531.153455 300.292654 
L 531.61087 299.492174 
L 532.068284 299.896919 
L 532.525699 298.360178 
L 532.983113 299.745624 
L 533.897942 299.603148 
L 534.355357 299.273257 
L 534.812772 299.923189 
L 535.270186 298.558826 
L 535.727601 298.533951 
L 536.185015 299.867946 
L 536.64243 300.826305 
L 537.099844 298.720717 
L 537.557259 299.655161 
L 538.014673 300.965546 
L 538.472088 297.996305 
L 538.929502 297.297312 
L 539.386917 298.806819 
L 539.844332 297.86346 
L 540.301746 299.695166 
L 540.759161 300.13268 
L 541.216575 299.005847 
L 541.67399 299.493345 
L 542.131404 298.584301 
L 542.588819 300.518355 
L 543.046233 298.43225 
L 543.503648 298.82501 
L 543.961062 297.969989 
L 544.418477 300.027417 
L 544.875891 299.689935 
L 545.333306 298.922048 
L 545.790721 299.589579 
L 546.248135 299.387283 
L 546.70555 300.190051 
L 547.162964 299.720992 
L 547.620379 298.37303 
L 548.077793 300.268176 
L 548.535208 298.732392 
L 548.992622 298.339755 
L 549.450037 300.319622 
L 549.907451 297.287551 
L 550.364866 298.367401 
L 550.822281 299.927422 
L 551.279695 298.381379 
L 551.73711 299.638416 
L 552.194524 299.278715 
L 552.651939 300.691822 
L 553.109353 300.508758 
L 553.566768 298.603696 
L 554.024182 299.395245 
L 554.481597 298.01783 
L 554.939011 299.63669 
L 555.396426 299.077567 
L 556.76867 299.795873 
L 557.226084 300.327056 
L 557.683499 300.265778 
L 558.140913 300.324189 
L 558.598328 300.248772 
L 559.055742 299.823825 
L 559.513157 299.076725 
L 559.970571 300.298139 
L 560.427986 300.088408 
L 560.8854 301.364506 
L 561.342815 297.915232 
L 561.80023 299.568773 
L 562.257644 298.846888 
L 562.715059 299.844012 
L 563.172473 301.1312 
L 563.629888 300.965514 
L 564.087302 299.907223 
L 564.544717 299.173056 
L 565.002131 299.923092 
L 565.459546 299.435165 
L 565.91696 302.645455 
L 566.374375 299.093479 
L 566.831789 300.628238 
L 567.289204 299.219154 
L 567.746619 299.107016 
L 568.204033 300.443266 
L 568.661448 301.199003 
L 569.118862 300.007508 
L 569.576277 300.173508 
L 570.033691 299.697428 
L 570.491106 298.534831 
L 570.94852 299.202935 
L 571.405935 298.917006 
L 571.863349 300.344387 
L 572.320764 300.666937 
L 572.778179 301.463486 
L 573.235593 300.163554 
L 573.693008 299.611317 
L 574.150422 300.418075 
L 574.607837 300.061133 
L 575.065251 299.265815 
L 575.522666 300.902563 
L 575.98008 299.739604 
L 576.437495 300.57964 
L 576.894909 300.841471 
L 577.352324 300.959865 
L 577.809739 301.206967 
L 578.267153 298.485216 
L 578.724568 300.97976 
L 579.181982 300.134129 
L 579.639397 299.962903 
L 580.096811 301.172507 
L 580.554226 299.674337 
L 581.01164 301.070593 
L 582.383884 299.632316 
L 582.841298 300.586131 
L 583.298713 299.665709 
L 583.756128 299.443635 
L 584.213542 300.740748 
L 584.670957 300.938271 
L 585.128371 299.160991 
L 585.585786 300.418842 
L 586.500615 300.91235 
L 586.958029 300.380596 
L 587.415444 300.278493 
L 587.872858 300.781493 
L 588.787688 300.462378 
L 589.245102 301.361207 
L 589.702517 299.901653 
L 590.159931 300.678172 
L 590.617346 299.661691 
L 591.07476 300.988237 
L 591.532175 301.03764 
L 591.989589 300.38743 
L 592.447004 300.327073 
L 592.904418 300.699855 
L 593.361833 300.770881 
L 593.819247 302.032898 
L 594.276662 301.133826 
L 594.734077 300.618848 
L 595.191491 298.6643 
L 595.648906 298.949944 
L 596.10632 298.117087 
L 596.563735 301.573546 
L 597.021149 301.092623 
L 597.478564 299.879017 
L 597.935978 299.761347 
L 598.850807 301.743035 
L 599.308222 298.46343 
L 599.765637 301.410412 
L 600.223051 299.894253 
L 600.680466 299.828876 
L 601.13788 301.328926 
L 601.595295 301.642758 
L 602.052709 299.735821 
L 602.510124 301.239471 
L 602.967538 301.371032 
L 603.424953 301.25098 
L 604.339782 300.159582 
L 604.797196 301.59246 
L 605.254611 299.806264 
L 605.712026 300.192939 
L 606.16944 301.684208 
L 606.626855 299.688185 
L 607.084269 299.741686 
L 607.999098 301.719226 
L 608.456513 301.537136 
L 608.913927 299.728845 
L 609.371342 300.39937 
L 609.828756 301.273476 
L 610.286171 300.488377 
L 610.743586 300.704704 
L 611.201 302.009116 
L 611.658415 301.922899 
L 612.115829 300.701292 
L 612.573244 300.894029 
L 613.030658 302.013023 
L 613.488073 302.379773 
L 613.945487 299.209555 
L 614.402902 301.938245 
L 614.860316 297.999021 
L 615.317731 299.656666 
L 615.775146 301.763078 
L 616.23256 298.123979 
L 616.689975 300.070074 
L 617.147389 299.415702 
L 617.604804 301.200568 
L 618.062218 301.364162 
L 618.519633 301.3938 
L 619.434462 300.671289 
L 619.891876 299.571234 
L 620.349291 302.21441 
L 620.806705 301.480961 
L 621.26412 301.151993 
L 621.721535 299.57754 
L 622.178949 300.288292 
L 622.636364 300.357213 
L 622.636364 300.357213 
" style="fill:none;stroke:#1f77b4;stroke-linecap:square;stroke-width:0.5;"/>
   </g>
   <g id="line2d_30">
    <path clip-path="url(#p952e6c553f)" d="M 115.363636 60.277373 
L 115.821051 67.364576 
L 116.73588 73.011438 
L 117.193295 73.880663 
L 118.108124 78.294457 
L 118.565538 80.343172 
L 119.022953 80.187711 
L 119.480367 84.500173 
L 119.937782 84.640359 
L 120.395196 84.526232 
L 121.310025 89.749962 
L 121.76744 92.222827 
L 122.224854 95.800707 
L 122.682269 98.32208 
L 123.139684 102.871116 
L 124.054513 107.663524 
L 124.511927 113.69177 
L 124.969342 115.556267 
L 125.426756 120.545424 
L 125.884171 128.046511 
L 126.341585 128.201937 
L 126.799 134.751657 
L 127.256414 138.105523 
L 128.171244 148.545668 
L 128.628658 153.772097 
L 129.086073 157.504416 
L 129.543487 159.083 
L 130.000902 163.460348 
L 130.458316 170.6163 
L 130.915731 170.911101 
L 131.373145 176.584779 
L 131.83056 173.542851 
L 132.287974 180.633126 
L 132.745389 183.529599 
L 133.660218 190.351394 
L 135.032462 196.541385 
L 135.489876 200.245204 
L 135.947291 201.441782 
L 136.404705 204.574133 
L 136.86212 210.071649 
L 137.319534 208.989519 
L 138.234363 216.011196 
L 138.691778 216.424767 
L 139.149193 219.556533 
L 139.606607 221.84705 
L 140.064022 225.447714 
L 140.521436 222.966096 
L 141.436265 229.160872 
L 141.89368 228.670899 
L 142.351094 228.665168 
L 142.808509 230.066572 
L 143.265923 233.944171 
L 143.723338 232.312258 
L 144.180753 234.89981 
L 145.552996 237.352302 
L 146.010411 239.970811 
L 146.467825 240.543382 
L 146.92524 237.975118 
L 147.840069 240.752501 
L 148.297483 241.341211 
L 148.754898 243.100713 
L 149.212312 245.333751 
L 149.669727 244.133437 
L 150.127142 243.842151 
L 150.584556 246.797349 
L 151.041971 247.403879 
L 151.499385 245.926007 
L 151.9568 248.531233 
L 152.414214 248.44975 
L 152.871629 246.958863 
L 153.329043 251.841011 
L 153.786458 251.899815 
L 154.243872 248.295035 
L 155.158702 252.766897 
L 155.616116 250.890013 
L 156.073531 253.352835 
L 156.530945 254.982955 
L 156.98836 257.196178 
L 157.445774 253.901356 
L 157.903189 256.351379 
L 158.360603 257.160951 
L 158.818018 257.613506 
L 159.275432 256.55886 
L 159.732847 256.340989 
L 160.190261 255.478453 
L 160.647676 253.20369 
L 161.105091 257.71279 
L 161.562505 257.862835 
L 162.477334 261.422095 
L 162.934749 261.065468 
L 163.392163 259.66506 
L 163.849578 261.403753 
L 164.306992 260.351992 
L 164.764407 261.985115 
L 165.679236 262.547139 
L 166.136651 262.038421 
L 166.594065 264.104797 
L 167.508894 264.115107 
L 168.423723 262.515096 
L 168.881138 264.228066 
L 169.338552 268.152371 
L 169.795967 264.146287 
L 170.253381 266.247992 
L 170.710796 265.383221 
L 171.168211 263.272966 
L 171.625625 265.938525 
L 172.08304 264.946832 
L 172.540454 265.419614 
L 172.997869 265.641653 
L 173.455283 266.630356 
L 173.912698 267.007321 
L 174.370112 268.151812 
L 174.827527 267.544926 
L 175.284941 267.794544 
L 175.742356 265.34944 
L 176.19977 267.213036 
L 176.657185 265.832445 
L 177.1146 267.935528 
L 177.572014 266.255458 
L 178.029429 271.636532 
L 178.486843 269.769014 
L 178.944258 269.097607 
L 179.859087 270.065999 
L 180.316501 268.732959 
L 180.773916 271.998625 
L 181.23133 271.360169 
L 181.688745 271.080434 
L 182.14616 272.668535 
L 182.603574 272.209772 
L 183.060989 273.244346 
L 183.518403 273.781334 
L 183.975818 273.34521 
L 184.433232 274.727243 
L 184.890647 274.245208 
L 185.348061 272.456283 
L 185.805476 271.846069 
L 186.26289 273.738318 
L 186.720305 274.406598 
L 187.177719 272.238794 
L 187.635134 273.914616 
L 188.092549 274.052716 
L 188.549963 275.317208 
L 189.007378 274.888247 
L 189.464792 272.419474 
L 189.922207 274.943711 
L 190.379621 273.177326 
L 190.837036 272.632643 
L 191.29445 273.428792 
L 191.751865 271.973375 
L 192.209279 272.51308 
L 193.124109 274.276336 
L 193.581523 275.728716 
L 194.038938 272.228245 
L 194.496352 275.823115 
L 194.953767 276.460795 
L 195.411181 272.39503 
L 195.868596 275.899608 
L 196.32601 274.753025 
L 196.783425 274.213441 
L 197.240839 276.692268 
L 197.698254 277.010568 
L 198.155668 275.268779 
L 198.613083 276.697655 
L 199.070498 274.118795 
L 199.527912 277.035883 
L 199.985327 275.735589 
L 200.442741 277.03217 
L 200.900156 277.560325 
L 201.35757 275.684684 
L 202.272399 277.147096 
L 202.729814 279.171851 
L 203.187228 279.4585 
L 203.644643 278.870607 
L 204.102058 276.768161 
L 204.559472 276.389529 
L 205.016887 278.605594 
L 205.474301 276.739906 
L 205.931716 278.329179 
L 206.38913 278.610259 
L 207.303959 277.408283 
L 208.218788 278.939531 
L 208.676203 280.30841 
L 209.133618 277.167626 
L 209.591032 279.017967 
L 210.048447 279.429338 
L 210.505861 278.665879 
L 210.963276 279.720928 
L 211.42069 279.327325 
L 211.878105 277.769025 
L 212.335519 279.868954 
L 212.792934 279.973287 
L 213.250348 281.733057 
L 213.707763 278.846371 
L 214.165177 280.264729 
L 214.622592 281.133649 
L 215.080007 278.658092 
L 215.537421 281.046764 
L 215.994836 280.48148 
L 216.45225 278.913642 
L 216.909665 279.598943 
L 217.367079 278.556647 
L 218.281908 280.9384 
L 218.739323 279.112486 
L 219.196737 278.210444 
L 219.654152 277.555863 
L 220.111567 280.306418 
L 220.568981 281.665309 
L 221.026396 282.337856 
L 221.48381 278.693356 
L 221.941225 279.408755 
L 222.398639 279.041644 
L 222.856054 282.295915 
L 223.313468 280.283634 
L 223.770883 282.203895 
L 224.228297 280.773242 
L 224.685712 283.960868 
L 225.143126 280.162043 
L 225.600541 279.011866 
L 226.057956 281.796161 
L 226.51537 280.090534 
L 226.972785 280.675975 
L 227.430199 281.794997 
L 227.887614 281.147613 
L 228.345028 280.927939 
L 228.802443 279.839916 
L 229.259857 282.078867 
L 229.717272 280.985919 
L 230.174686 282.512857 
L 230.632101 282.208902 
L 231.089516 282.349943 
L 231.54693 283.003098 
L 232.004345 280.485675 
L 232.461759 284.222626 
L 232.919174 281.736118 
L 233.376588 282.334498 
L 233.834003 284.741328 
L 234.291417 283.730512 
L 234.748832 283.356875 
L 235.206246 283.539406 
L 235.663661 283.13744 
L 236.121075 282.343772 
L 237.035905 281.367888 
L 237.493319 282.851209 
L 237.950734 280.339913 
L 238.408148 283.066262 
L 238.865563 283.779242 
L 239.322977 282.607968 
L 239.780392 281.858946 
L 240.237806 282.385396 
L 240.695221 280.67688 
L 241.152635 283.925991 
L 241.61005 283.310744 
L 242.067465 284.347161 
L 242.524879 282.219076 
L 242.982294 283.782776 
L 243.439708 284.205199 
L 243.897123 284.359986 
L 244.354537 281.161646 
L 245.269366 285.648462 
L 245.726781 283.171649 
L 246.184195 282.114879 
L 246.64161 282.674612 
L 247.099025 281.592574 
L 247.556439 282.261417 
L 248.013854 283.389815 
L 248.471268 285.274276 
L 248.928683 283.515192 
L 249.386097 284.289321 
L 249.843512 284.666768 
L 250.300926 284.557196 
L 250.758341 285.846654 
L 251.215755 283.677506 
L 251.67317 285.007006 
L 252.130584 283.928917 
L 252.587999 286.54422 
L 253.502828 283.183302 
L 253.960243 285.333754 
L 254.417657 284.611407 
L 254.875072 285.589936 
L 255.789901 282.270624 
L 256.247315 285.58608 
L 256.70473 282.668543 
L 257.162144 285.007971 
L 257.619559 286.331966 
L 258.076974 283.407329 
L 258.534388 285.398647 
L 259.449217 284.42351 
L 259.906632 285.155197 
L 260.364046 283.995664 
L 260.821461 285.125174 
L 261.278875 284.761546 
L 261.73629 286.275704 
L 262.193704 285.329152 
L 262.651119 286.164925 
L 263.108533 285.730046 
L 264.023363 286.041054 
L 264.480777 284.220467 
L 264.938192 285.731749 
L 265.395606 285.948462 
L 265.853021 287.267392 
L 266.310435 285.741293 
L 266.76785 283.754952 
L 267.225264 285.230793 
L 267.682679 281.401538 
L 268.140093 285.295603 
L 269.054923 285.641923 
L 269.512337 286.163478 
L 269.969752 283.205912 
L 270.427166 286.035244 
L 270.884581 283.569857 
L 271.341995 285.92904 
L 271.79941 285.0786 
L 272.256824 285.171121 
L 272.714239 284.990799 
L 273.171653 286.551533 
L 273.629068 286.152527 
L 274.086482 284.453807 
L 274.543897 285.088027 
L 275.001312 286.161 
L 275.458726 284.994503 
L 275.916141 285.666232 
L 276.373555 284.639655 
L 276.83097 285.169297 
L 277.288384 287.090999 
L 277.745799 288.040442 
L 278.203213 284.678622 
L 278.660628 284.934724 
L 279.118042 288.139272 
L 279.575457 286.921757 
L 280.032872 284.351881 
L 280.490286 286.502671 
L 280.947701 285.091626 
L 281.405115 284.878823 
L 281.86253 283.301691 
L 283.234773 287.799529 
L 283.692188 284.651003 
L 284.149602 288.5606 
L 284.607017 287.987537 
L 285.064432 286.780254 
L 285.521846 286.976864 
L 285.979261 286.992089 
L 286.436675 286.35085 
L 286.89409 287.1072 
L 287.351504 285.97368 
L 287.808919 286.442751 
L 288.266333 288.269615 
L 288.723748 287.774633 
L 289.181162 286.200948 
L 289.638577 286.473121 
L 290.553406 287.226762 
L 291.010821 289.422441 
L 291.468235 287.31666 
L 291.92565 287.561746 
L 292.383064 286.39949 
L 292.840479 285.99357 
L 293.297893 284.844227 
L 293.755308 288.507517 
L 294.212722 286.469134 
L 294.670137 287.769237 
L 295.127551 288.476135 
L 295.584966 286.593864 
L 296.042381 288.270186 
L 296.499795 288.58878 
L 296.95721 286.058896 
L 297.414624 288.032456 
L 297.872039 283.316643 
L 298.329453 288.491715 
L 299.244282 286.159063 
L 299.701697 288.605981 
L 300.159111 284.381099 
L 300.616526 285.788467 
L 301.07394 287.717226 
L 301.531355 285.551844 
L 301.98877 288.665155 
L 302.446184 288.488063 
L 302.903599 289.180269 
L 303.361013 288.33129 
L 303.818428 287.020074 
L 304.275842 286.657053 
L 304.733257 289.022035 
L 305.190671 286.646852 
L 305.648086 288.092043 
L 306.1055 286.915654 
L 307.02033 288.69572 
L 307.477744 287.302492 
L 307.935159 287.405502 
L 308.392573 287.727966 
L 308.849988 290.359779 
L 309.307402 288.833095 
L 310.222231 287.282939 
L 310.679646 288.735618 
L 311.13706 289.118483 
L 311.594475 286.50268 
L 312.051889 286.878286 
L 312.509304 289.531882 
L 312.966719 289.414201 
L 313.424133 287.673106 
L 313.881548 287.330755 
L 314.796377 289.965668 
L 315.253791 289.734661 
L 315.711206 287.923337 
L 316.16862 288.890112 
L 316.626035 287.379058 
L 317.083449 287.856072 
L 317.540864 285.971247 
L 317.998279 286.293105 
L 318.455693 287.268742 
L 318.913108 286.882595 
L 319.370522 285.533623 
L 319.827937 287.309729 
L 320.285351 286.698019 
L 320.742766 289.234837 
L 321.20018 287.38684 
L 321.657595 287.666697 
L 322.115009 289.959107 
L 322.572424 290.628238 
L 323.029839 288.816776 
L 323.487253 287.966299 
L 323.944668 289.281275 
L 324.402082 287.945042 
L 324.859497 288.883285 
L 325.316911 287.893326 
L 325.774326 289.213834 
L 326.23174 289.842055 
L 326.689155 285.870835 
L 327.146569 287.620454 
L 327.603984 288.730998 
L 328.061398 288.583709 
L 328.518813 289.753158 
L 328.976228 288.696826 
L 329.433642 287.254141 
L 329.891057 288.786522 
L 330.348471 285.808485 
L 331.2633 289.461028 
L 331.720715 289.666493 
L 332.178129 285.856473 
L 332.635544 289.34722 
L 333.092958 287.939483 
L 333.550373 288.008155 
L 334.007788 285.477043 
L 334.922617 289.631324 
L 335.380031 288.034531 
L 335.837446 288.424401 
L 336.29486 289.676764 
L 336.752275 291.643607 
L 337.209689 288.916428 
L 337.667104 289.70092 
L 338.124518 290.864582 
L 339.039347 285.548004 
L 339.954177 289.869675 
L 340.411591 288.597455 
L 340.869006 288.725517 
L 341.32642 291.30435 
L 341.783835 288.584883 
L 342.241249 290.635049 
L 342.698664 287.786225 
L 343.156078 290.9434 
L 343.613493 289.159481 
L 344.070907 289.629509 
L 344.528322 290.427691 
L 344.985737 288.463583 
L 345.443151 289.230148 
L 345.900566 288.878366 
L 346.35798 288.914835 
L 346.815395 286.362989 
L 347.272809 286.630343 
L 347.730224 290.6239 
L 349.102467 289.136134 
L 349.559882 289.215406 
L 350.017296 288.630145 
L 350.474711 289.8917 
L 350.932126 289.301331 
L 351.38954 289.254171 
L 351.846955 287.394115 
L 352.304369 287.425395 
L 352.761784 290.6547 
L 353.676613 288.112229 
L 354.134027 288.32857 
L 354.591442 288.319861 
L 355.048856 287.704099 
L 355.963686 290.733398 
L 356.4211 290.325005 
L 356.878515 288.882074 
L 357.335929 288.433513 
L 357.793344 291.329528 
L 358.250758 287.321316 
L 358.708173 289.292185 
L 359.165587 287.683714 
L 359.623002 288.252015 
L 360.080416 291.660988 
L 360.537831 288.702206 
L 360.995246 289.411447 
L 361.45266 290.490696 
L 361.910075 289.824198 
L 362.367489 289.987821 
L 362.824904 288.974454 
L 363.739733 290.710184 
L 364.197147 289.467715 
L 364.654562 287.422417 
L 365.111976 290.48499 
L 365.569391 289.302382 
L 366.48422 290.631959 
L 366.941635 288.414824 
L 367.399049 289.099628 
L 367.856464 290.713672 
L 368.313878 288.844273 
L 368.771293 289.22402 
L 369.228707 291.321535 
L 369.686122 290.077636 
L 370.600951 288.994473 
L 371.058365 290.241321 
L 371.51578 291.042467 
L 371.973195 290.387183 
L 372.888024 290.163435 
L 373.345438 288.825027 
L 373.802853 291.576474 
L 374.260267 290.629844 
L 374.717682 290.606718 
L 375.175096 289.523126 
L 375.632511 287.946047 
L 376.089925 289.579775 
L 376.54734 290.14537 
L 377.004754 292.03024 
L 377.462169 290.012893 
L 377.919584 291.999595 
L 378.376998 290.722655 
L 378.834413 291.034601 
L 379.291827 290.34358 
L 379.749242 290.341897 
L 380.206656 289.945687 
L 380.664071 290.644773 
L 381.121485 290.244771 
L 381.5789 289.346626 
L 382.036314 290.120181 
L 382.493729 291.246342 
L 382.951144 291.349686 
L 383.408558 289.271752 
L 383.865973 291.805074 
L 384.323387 289.902087 
L 384.780802 288.96256 
L 385.238216 290.042929 
L 385.695631 288.083798 
L 386.153045 292.055101 
L 386.61046 290.087882 
L 387.067874 290.71767 
L 387.525289 289.417586 
L 387.982704 291.688286 
L 388.440118 290.467338 
L 388.897533 289.888337 
L 389.354947 291.920408 
L 389.812362 290.878869 
L 390.269776 288.08357 
L 390.727191 292.0636 
L 391.184605 288.723932 
L 391.64202 287.836549 
L 392.556849 289.514446 
L 393.014263 288.251262 
L 393.471678 289.897987 
L 393.929093 286.629796 
L 394.843922 293.667046 
L 395.301336 291.101303 
L 395.758751 289.658155 
L 396.216165 290.600014 
L 396.67358 290.866733 
L 397.130994 293.268165 
L 397.588409 289.63031 
L 398.045823 290.697626 
L 398.503238 292.129354 
L 398.960653 287.665928 
L 399.418067 289.889966 
L 399.875482 288.043633 
L 400.332896 289.609138 
L 400.790311 291.883613 
L 401.247725 292.028776 
L 401.70514 290.892614 
L 402.162554 290.41853 
L 402.619969 290.755171 
L 403.077383 287.95778 
L 403.534798 290.954865 
L 403.992212 291.251214 
L 404.449627 291.838196 
L 404.907042 292.715062 
L 405.821871 288.031457 
L 406.279285 292.115249 
L 406.7367 290.087636 
L 407.194114 291.133591 
L 407.651529 290.341425 
L 408.566358 291.217311 
L 409.023772 290.966076 
L 409.481187 290.971589 
L 409.938602 290.590031 
L 410.396016 288.641713 
L 410.853431 290.412731 
L 411.310845 291.520661 
L 412.225674 289.167448 
L 412.683089 291.939849 
L 413.140503 289.970343 
L 413.597918 290.782073 
L 414.055332 287.519636 
L 414.512747 291.985734 
L 414.970161 291.876138 
L 415.427576 289.846735 
L 415.884991 292.44376 
L 416.342405 293.69869 
L 416.79982 289.442016 
L 417.257234 289.323901 
L 417.714649 290.155791 
L 418.172063 288.574598 
L 418.629478 292.32484 
L 419.086892 291.738303 
L 419.544307 288.852396 
L 420.001721 292.591993 
L 420.459136 292.700246 
L 420.916551 291.604263 
L 421.373965 289.513222 
L 421.83138 291.200419 
L 422.288794 291.822173 
L 422.746209 291.347042 
L 423.203623 292.926842 
L 423.661038 292.381371 
L 424.118452 289.605168 
L 424.575867 292.030445 
L 425.033281 291.048391 
L 425.490696 289.743444 
L 425.948111 289.995497 
L 426.405525 288.895081 
L 426.86294 292.062393 
L 427.320354 291.896254 
L 427.777769 288.895576 
L 428.235183 289.811224 
L 428.692598 289.788722 
L 429.150012 289.154499 
L 429.607427 291.404573 
L 430.064841 290.380492 
L 430.522256 289.784436 
L 430.97967 291.280425 
L 431.437085 289.72485 
L 431.8945 292.991838 
L 432.351914 290.209362 
L 432.809329 289.40759 
L 433.266743 290.433811 
L 433.724158 290.656075 
L 434.181572 292.364703 
L 434.638987 291.457379 
L 435.096401 289.167579 
L 435.553816 292.01603 
L 436.01123 290.415504 
L 436.468645 290.354614 
L 436.92606 290.672427 
L 437.383474 293.118453 
L 438.298303 289.149346 
L 439.213132 290.911629 
L 439.670547 289.715143 
L 440.585376 291.660729 
L 441.04279 292.058994 
L 441.500205 291.296201 
L 441.957619 291.643459 
L 442.415034 288.055547 
L 442.872449 291.288806 
L 443.329863 290.721003 
L 443.787278 288.974368 
L 444.244692 290.083853 
L 444.702107 290.128185 
L 445.159521 288.243703 
L 445.616936 290.541809 
L 446.07435 291.588854 
L 446.531765 291.022427 
L 446.989179 293.170087 
L 447.446594 291.91518 
L 447.904009 290.22557 
L 448.361423 292.061739 
L 448.818838 292.007035 
L 449.276252 291.065714 
L 449.733667 291.206074 
L 450.191081 291.193604 
L 450.648496 293.022554 
L 451.10591 292.584517 
L 452.020739 290.765564 
L 452.478154 292.230628 
L 452.935568 290.27546 
L 453.392983 294.61702 
L 453.850398 292.394113 
L 454.307812 291.987882 
L 454.765227 289.397228 
L 455.222641 291.985591 
L 455.680056 290.5885 
L 456.13747 291.3403 
L 456.594885 292.508293 
L 457.052299 291.842119 
L 457.509714 290.665841 
L 457.967128 291.172696 
L 458.424543 293.136217 
L 458.881958 289.744207 
L 459.339372 290.34957 
L 459.796787 292.577629 
L 460.254201 292.777137 
L 460.711616 290.41712 
L 461.16903 291.592032 
L 462.083859 293.053141 
L 462.541274 292.232086 
L 462.998688 292.230998 
L 463.456103 291.053608 
L 463.913518 291.519703 
L 464.370932 290.819093 
L 464.828347 291.572659 
L 465.285761 291.84907 
L 465.743176 291.932513 
L 466.20059 289.111622 
L 466.658005 291.41525 
L 467.115419 291.872929 
L 467.572834 289.510724 
L 468.030248 291.326676 
L 468.487663 292.306487 
L 468.945077 292.160003 
L 469.402492 290.435416 
L 469.859907 293.083451 
L 470.317321 292.096195 
L 470.774736 292.777966 
L 471.23215 290.790361 
L 471.689565 292.677119 
L 472.146979 292.649983 
L 472.604394 289.575552 
L 473.061808 291.392268 
L 473.519223 290.682571 
L 473.976637 291.492255 
L 474.434052 290.216316 
L 474.891467 292.178538 
L 475.348881 293.209579 
L 475.806296 289.019452 
L 476.26371 290.576377 
L 476.721125 293.220617 
L 477.178539 292.220055 
L 477.635954 292.610522 
L 478.550783 289.596195 
L 479.008197 293.408176 
L 479.923026 291.560445 
L 480.380441 293.319392 
L 480.837856 291.335747 
L 481.29527 291.541812 
L 481.752685 292.979255 
L 482.210099 292.048706 
L 482.667514 292.89164 
L 483.124928 291.115786 
L 484.039757 293.966525 
L 484.497172 291.02332 
L 484.954586 291.646113 
L 485.412001 292.518049 
L 485.869416 291.792803 
L 486.32683 294.188752 
L 487.241659 291.835365 
L 487.699074 291.904663 
L 488.156488 293.383654 
L 488.613903 292.742036 
L 489.071317 292.93298 
L 489.528732 293.467344 
L 489.986146 292.575977 
L 490.443561 291.23906 
L 490.900975 292.860729 
L 491.35839 289.157296 
L 491.815805 291.540082 
L 492.273219 291.204611 
L 492.730634 292.598892 
L 493.188048 292.966822 
L 493.645463 293.779475 
L 494.102877 290.643073 
L 494.560292 292.214396 
L 495.017706 290.809347 
L 495.475121 287.341675 
L 495.932535 292.991305 
L 496.38995 290.426951 
L 496.847365 291.297526 
L 497.304779 294.155422 
L 497.762194 291.729632 
L 498.219608 290.822992 
L 498.677023 292.76641 
L 499.134437 292.217901 
L 499.591852 292.515157 
L 500.049266 292.286602 
L 500.506681 291.418788 
L 500.964095 293.787035 
L 501.42151 290.356962 
L 501.878925 292.00157 
L 502.336339 291.818228 
L 502.793754 292.50804 
L 503.251168 292.319294 
L 503.708583 293.874873 
L 504.165997 290.833853 
L 504.623412 289.52042 
L 505.080826 290.720895 
L 505.538241 290.448849 
L 505.995655 291.190399 
L 506.45307 293.390022 
L 506.910484 290.798523 
L 507.367899 291.735193 
L 507.825314 291.742635 
L 508.282728 295.429048 
L 508.740143 290.200617 
L 509.197557 291.314525 
L 509.654972 293.739701 
L 510.112386 292.632855 
L 510.569801 289.231637 
L 511.027215 290.488575 
L 511.48463 289.827302 
L 511.942044 293.208864 
L 512.399459 293.281761 
L 512.856874 291.597052 
L 513.314288 292.261663 
L 513.771703 291.770086 
L 514.229117 290.101387 
L 514.686532 291.175197 
L 515.143946 291.28787 
L 515.601361 289.183811 
L 516.058775 291.310698 
L 516.51619 292.261982 
L 516.973604 290.044725 
L 517.431019 290.910104 
L 517.888433 292.238249 
L 518.345848 292.823568 
L 518.803263 291.353653 
L 519.260677 292.978927 
L 519.718092 291.712139 
L 520.175506 291.47154 
L 520.632921 292.305988 
L 521.090335 290.944399 
L 521.54775 290.311037 
L 522.005164 291.058541 
L 522.462579 293.774787 
L 522.919993 291.244151 
L 523.377408 290.6831 
L 523.834823 293.667965 
L 524.292237 290.857812 
L 524.749652 291.21842 
L 525.207066 292.707547 
L 525.664481 291.469172 
L 526.121895 292.423863 
L 527.036724 291.860879 
L 527.494139 291.767502 
L 527.951553 291.365654 
L 528.408968 292.652975 
L 528.866382 293.469267 
L 529.323797 289.749709 
L 529.781212 291.836974 
L 530.238626 291.790469 
L 530.696041 291.461951 
L 531.153455 291.640855 
L 531.61087 294.577491 
L 532.525699 291.238385 
L 532.983113 292.042942 
L 533.440528 290.85683 
L 533.897942 291.311188 
L 534.355357 291.200913 
L 534.812772 293.132962 
L 535.270186 290.091115 
L 536.185015 292.426609 
L 536.64243 290.889004 
L 537.099844 291.101623 
L 537.557259 289.996541 
L 538.014673 291.210214 
L 538.472088 290.967007 
L 538.929502 290.920375 
L 539.386917 287.849307 
L 539.844332 290.614125 
L 540.301746 288.738054 
L 540.759161 291.703988 
L 541.216575 293.077755 
L 541.67399 290.101197 
L 542.131404 290.189721 
L 542.588819 291.001256 
L 543.046233 292.779979 
L 543.503648 293.902243 
L 543.961062 293.81494 
L 544.418477 292.569655 
L 544.875891 294.658621 
L 545.333306 292.003362 
L 545.790721 292.606578 
L 546.248135 292.006292 
L 546.70555 292.391568 
L 547.162964 292.364105 
L 547.620379 290.252612 
L 548.077793 293.160426 
L 548.535208 292.182292 
L 548.992622 290.532133 
L 549.450037 291.152376 
L 549.907451 293.870752 
L 550.364866 292.682994 
L 550.822281 290.668626 
L 551.279695 291.047181 
L 551.73711 292.644497 
L 552.651939 289.960654 
L 553.109353 291.676997 
L 553.566768 292.178675 
L 554.024182 290.027341 
L 554.481597 291.808172 
L 554.939011 291.524171 
L 555.396426 294.541174 
L 555.85384 294.386874 
L 556.311255 293.581008 
L 557.226084 291.256358 
L 557.683499 292.800094 
L 558.140913 292.27977 
L 558.598328 290.859153 
L 559.055742 290.516358 
L 559.513157 292.265191 
L 559.970571 291.943922 
L 560.427986 291.306012 
L 560.8854 291.399394 
L 561.342815 292.563779 
L 561.80023 290.929827 
L 562.257644 290.353918 
L 562.715059 291.12382 
L 563.172473 292.818704 
L 563.629888 292.071421 
L 564.544717 294.361536 
L 565.002131 290.610605 
L 565.459546 292.365254 
L 565.91696 292.711166 
L 566.374375 293.331095 
L 566.831789 289.626856 
L 567.289204 291.178029 
L 567.746619 290.39513 
L 568.204033 292.899147 
L 568.661448 291.727546 
L 569.118862 291.532983 
L 569.576277 290.414991 
L 570.033691 291.660616 
L 570.491106 291.683344 
L 570.94852 291.243467 
L 571.405935 292.028532 
L 571.863349 289.800524 
L 572.320764 292.928208 
L 572.778179 292.248095 
L 573.235593 290.422466 
L 573.693008 293.241676 
L 574.150422 294.140312 
L 574.607837 290.974269 
L 575.522666 294.612938 
L 575.98008 290.576038 
L 576.437495 290.103536 
L 576.894909 290.93003 
L 577.352324 289.201459 
L 577.809739 288.798797 
L 578.267153 291.593225 
L 578.724568 291.086718 
L 579.181982 291.029526 
L 579.639397 293.804859 
L 580.096811 290.945507 
L 580.554226 292.884008 
L 581.01164 290.216463 
L 581.469055 291.479137 
L 581.926469 295.354268 
L 582.383884 292.292707 
L 582.841298 292.089357 
L 583.298713 291.493443 
L 583.756128 292.854715 
L 584.213542 291.954085 
L 584.670957 293.961299 
L 585.128371 293.749683 
L 586.0432 291.376186 
L 586.500615 294.068634 
L 586.958029 292.047263 
L 587.415444 291.982902 
L 587.872858 292.099826 
L 588.330273 292.666981 
L 588.787688 292.670324 
L 589.245102 292.920688 
L 589.702517 291.643342 
L 590.159931 292.056603 
L 590.617346 292.121873 
L 591.07476 292.024913 
L 591.532175 290.386515 
L 591.989589 289.645694 
L 592.447004 294.995202 
L 592.904418 291.133936 
L 593.361833 292.623412 
L 593.819247 292.029211 
L 594.276662 291.708657 
L 594.734077 292.644169 
L 595.648906 290.428878 
L 596.563735 293.173423 
L 597.478564 292.237333 
L 597.935978 290.44328 
L 598.850807 294.754646 
L 599.308222 291.765632 
L 599.765637 293.290006 
L 600.223051 292.442799 
L 600.680466 290.312246 
L 601.13788 292.352078 
L 601.595295 293.09711 
L 602.052709 292.685463 
L 602.510124 294.127096 
L 602.967538 293.957749 
L 604.339782 291.236774 
L 605.254611 291.758087 
L 605.712026 292.977685 
L 606.16944 291.224712 
L 606.626855 292.522366 
L 607.084269 292.249196 
L 607.541684 290.547983 
L 607.999098 290.005779 
L 608.456513 290.569515 
L 608.913927 290.846442 
L 609.371342 290.206201 
L 609.828756 292.212365 
L 610.286171 292.655204 
L 610.743586 293.939373 
L 611.201 291.391027 
L 611.658415 292.377352 
L 612.115829 293.050521 
L 612.573244 290.959881 
L 613.030658 289.836308 
L 613.488073 291.081619 
L 613.945487 290.904329 
L 614.402902 293.427772 
L 614.860316 292.8271 
L 615.317731 291.58574 
L 615.775146 287.468882 
L 616.23256 291.187111 
L 616.689975 293.144797 
L 617.147389 292.650598 
L 617.604804 292.833632 
L 618.062218 291.398093 
L 618.519633 292.272273 
L 618.977047 292.874579 
L 619.434462 291.039501 
L 619.891876 292.644762 
L 620.349291 290.551218 
L 620.806705 293.576596 
L 621.26412 293.243428 
L 621.721535 291.966511 
L 622.178949 292.939503 
L 622.636364 292.189855 
L 622.636364 292.189855 
" style="fill:none;stroke:#ff7f0e;stroke-linecap:square;stroke-width:0.5;"/>
   </g>
   <g id="patch_3">
    <path d="M 90 315 
L 90 43.2 
" style="fill:none;stroke:#000000;stroke-linecap:square;stroke-linejoin:miter;stroke-width:0.8;"/>
   </g>
   <g id="patch_4">
    <path d="M 648 315 
L 648 43.2 
" style="fill:none;stroke:#000000;stroke-linecap:square;stroke-linejoin:miter;stroke-width:0.8;"/>
   </g>
   <g id="patch_5">
    <path d="M 90 315 
L 648 315 
" style="fill:none;stroke:#000000;stroke-linecap:square;stroke-linejoin:miter;stroke-width:0.8;"/>
   </g>
   <g id="patch_6">
    <path d="M 90 43.2 
L 648 43.2 
" style="fill:none;stroke:#000000;stroke-linecap:square;stroke-linejoin:miter;stroke-width:0.8;"/>
   </g>
   <g id="text_17">
    <!-- loss -->
    <g transform="translate(357.410625 37.2)scale(0.12 -0.12)">
     <use xlink:href="#DejaVuSans-108"/>
     <use x="27.783203" xlink:href="#DejaVuSans-111"/>
     <use x="88.964844" xlink:href="#DejaVuSans-115"/>
     <use x="141.064453" xlink:href="#DejaVuSans-115"/>
    </g>
   </g>
   <g id="legend_1">
    <g id="patch_7">
     <path d="M 568.846875 80.55625 
L 641 80.55625 
Q 643 80.55625 643 78.55625 
L 643 50.2 
Q 643 48.2 641 48.2 
L 568.846875 48.2 
Q 566.846875 48.2 566.846875 50.2 
L 566.846875 78.55625 
Q 566.846875 80.55625 568.846875 80.55625 
z
" style="fill:#ffffff;opacity:0.8;stroke:#cccccc;stroke-linejoin:miter;"/>
    </g>
    <g id="line2d_31">
     <path d="M 570.846875 56.298437 
L 590.846875 56.298437 
" style="fill:none;stroke:#1f77b4;stroke-linecap:square;stroke-width:0.5;"/>
    </g>
    <g id="line2d_32"/>
    <g id="text_18">
     <!-- train -->
     <defs>
      <path d="M 18.3125 70.21875 
L 18.3125 54.6875 
L 36.8125 54.6875 
L 36.8125 47.703125 
L 18.3125 47.703125 
L 18.3125 18.015625 
Q 18.3125 11.328125 20.140625 9.421875 
Q 21.96875 7.515625 27.59375 7.515625 
L 36.8125 7.515625 
L 36.8125 0 
L 27.59375 0 
Q 17.1875 0 13.234375 3.875 
Q 9.28125 7.765625 9.28125 18.015625 
L 9.28125 47.703125 
L 2.6875 47.703125 
L 2.6875 54.6875 
L 9.28125 54.6875 
L 9.28125 70.21875 
z
" id="DejaVuSans-116"/>
      <path d="M 41.109375 46.296875 
Q 39.59375 47.171875 37.8125 47.578125 
Q 36.03125 48 33.890625 48 
Q 26.265625 48 22.1875 43.046875 
Q 18.109375 38.09375 18.109375 28.8125 
L 18.109375 0 
L 9.078125 0 
L 9.078125 54.6875 
L 18.109375 54.6875 
L 18.109375 46.1875 
Q 20.953125 51.171875 25.484375 53.578125 
Q 30.03125 56 36.53125 56 
Q 37.453125 56 38.578125 55.875 
Q 39.703125 55.765625 41.0625 55.515625 
z
" id="DejaVuSans-114"/>
      <path d="M 34.28125 27.484375 
Q 23.390625 27.484375 19.1875 25 
Q 14.984375 22.515625 14.984375 16.5 
Q 14.984375 11.71875 18.140625 8.90625 
Q 21.296875 6.109375 26.703125 6.109375 
Q 34.1875 6.109375 38.703125 11.40625 
Q 43.21875 16.703125 43.21875 25.484375 
L 43.21875 27.484375 
z
M 52.203125 31.203125 
L 52.203125 0 
L 43.21875 0 
L 43.21875 8.296875 
Q 40.140625 3.328125 35.546875 0.953125 
Q 30.953125 -1.421875 24.3125 -1.421875 
Q 15.921875 -1.421875 10.953125 3.296875 
Q 6 8.015625 6 15.921875 
Q 6 25.140625 12.171875 29.828125 
Q 18.359375 34.515625 30.609375 34.515625 
L 43.21875 34.515625 
L 43.21875 35.40625 
Q 43.21875 41.609375 39.140625 45 
Q 35.0625 48.390625 27.6875 48.390625 
Q 23 48.390625 18.546875 47.265625 
Q 14.109375 46.140625 10.015625 43.890625 
L 10.015625 52.203125 
Q 14.9375 54.109375 19.578125 55.046875 
Q 24.21875 56 28.609375 56 
Q 40.484375 56 46.34375 49.84375 
Q 52.203125 43.703125 52.203125 31.203125 
z
" id="DejaVuSans-97"/>
      <path d="M 9.421875 54.6875 
L 18.40625 54.6875 
L 18.40625 0 
L 9.421875 0 
z
M 9.421875 75.984375 
L 18.40625 75.984375 
L 18.40625 64.59375 
L 9.421875 64.59375 
z
" id="DejaVuSans-105"/>
      <path d="M 54.890625 33.015625 
L 54.890625 0 
L 45.90625 0 
L 45.90625 32.71875 
Q 45.90625 40.484375 42.875 44.328125 
Q 39.84375 48.1875 33.796875 48.1875 
Q 26.515625 48.1875 22.3125 43.546875 
Q 18.109375 38.921875 18.109375 30.90625 
L 18.109375 0 
L 9.078125 0 
L 9.078125 54.6875 
L 18.109375 54.6875 
L 18.109375 46.1875 
Q 21.34375 51.125 25.703125 53.5625 
Q 30.078125 56 35.796875 56 
Q 45.21875 56 50.046875 50.171875 
Q 54.890625 44.34375 54.890625 33.015625 
z
" id="DejaVuSans-110"/>
     </defs>
     <g transform="translate(598.846875 59.798437)scale(0.1 -0.1)">
      <use xlink:href="#DejaVuSans-116"/>
      <use x="39.208984" xlink:href="#DejaVuSans-114"/>
      <use x="80.322266" xlink:href="#DejaVuSans-97"/>
      <use x="141.601562" xlink:href="#DejaVuSans-105"/>
      <use x="169.384766" xlink:href="#DejaVuSans-110"/>
     </g>
    </g>
    <g id="line2d_33">
     <path d="M 570.846875 70.976562 
L 590.846875 70.976562 
" style="fill:none;stroke:#ff7f0e;stroke-linecap:square;stroke-width:0.5;"/>
    </g>
    <g id="line2d_34"/>
    <g id="text_19">
     <!-- validate -->
     <defs>
      <path d="M 2.984375 54.6875 
L 12.5 54.6875 
L 29.59375 8.796875 
L 46.6875 54.6875 
L 56.203125 54.6875 
L 35.6875 0 
L 23.484375 0 
z
" id="DejaVuSans-118"/>
      <path d="M 45.40625 46.390625 
L 45.40625 75.984375 
L 54.390625 75.984375 
L 54.390625 0 
L 45.40625 0 
L 45.40625 8.203125 
Q 42.578125 3.328125 38.25 0.953125 
Q 33.9375 -1.421875 27.875 -1.421875 
Q 17.96875 -1.421875 11.734375 6.484375 
Q 5.515625 14.40625 5.515625 27.296875 
Q 5.515625 40.1875 11.734375 48.09375 
Q 17.96875 56 27.875 56 
Q 33.9375 56 38.25 53.625 
Q 42.578125 51.265625 45.40625 46.390625 
z
M 14.796875 27.296875 
Q 14.796875 17.390625 18.875 11.75 
Q 22.953125 6.109375 30.078125 6.109375 
Q 37.203125 6.109375 41.296875 11.75 
Q 45.40625 17.390625 45.40625 27.296875 
Q 45.40625 37.203125 41.296875 42.84375 
Q 37.203125 48.484375 30.078125 48.484375 
Q 22.953125 48.484375 18.875 42.84375 
Q 14.796875 37.203125 14.796875 27.296875 
z
" id="DejaVuSans-100"/>
     </defs>
     <g transform="translate(598.846875 74.476562)scale(0.1 -0.1)">
      <use xlink:href="#DejaVuSans-118"/>
      <use x="59.179688" xlink:href="#DejaVuSans-97"/>
      <use x="120.458984" xlink:href="#DejaVuSans-108"/>
      <use x="148.242188" xlink:href="#DejaVuSans-105"/>
      <use x="176.025391" xlink:href="#DejaVuSans-100"/>
      <use x="239.501953" xlink:href="#DejaVuSans-97"/>
      <use x="300.78125" xlink:href="#DejaVuSans-116"/>
      <use x="339.990234" xlink:href="#DejaVuSans-101"/>
     </g>
    </g>
   </g>
  </g>
 </g>
 <defs>
  <clipPath id="p952e6c553f">
   <rect height="271.8" width="558" x="90" y="43.2"/>
  </clipPath>
 </defs>
</svg>
