<?xml version="1.0" encoding="utf-8" standalone="no"?>
<!DOCTYPE svg PUBLIC "-//W3C//DTD SVG 1.1//EN"
  "http://www.w3.org/Graphics/SVG/1.1/DTD/svg11.dtd">
<!-- Created with matplotlib (https://matplotlib.org/) -->
<svg height="360pt" version="1.1" viewBox="0 0 720 360" width="720pt" xmlns="http://www.w3.org/2000/svg" xmlns:xlink="http://www.w3.org/1999/xlink">
 <defs>
  <style type="text/css">
*{stroke-linecap:butt;stroke-linejoin:round;}
  </style>
 </defs>
 <g id="figure_1">
  <g id="patch_1">
   <path d="M 0 360 
L 720 360 
L 720 0 
L 0 0 
z
" style="fill:#ffffff;"/>
  </g>
  <g id="axes_1">
   <g id="patch_2">
    <path d="M 90 315 
L 648 315 
L 648 43.2 
L 90 43.2 
z
" style="fill:#ffffff;"/>
   </g>
   <g id="matplotlib.axis_1">
    <g id="xtick_1">
     <g id="line2d_1">
      <path clip-path="url(#pc56dade63e)" d="M 115.363636 315 
L 115.363636 43.2 
" style="fill:none;stroke:#b0b0b0;stroke-linecap:square;stroke-width:0.8;"/>
     </g>
     <g id="line2d_2">
      <defs>
       <path d="M 0 0 
L 0 3.5 
" id="mee15057cdb" style="stroke:#000000;stroke-width:0.8;"/>
      </defs>
      <g>
       <use style="stroke:#000000;stroke-width:0.8;" x="115.363636" xlink:href="#mee15057cdb" y="315"/>
      </g>
     </g>
     <g id="text_1">
      <!-- 0 -->
      <defs>
       <path d="M 31.78125 66.40625 
Q 24.171875 66.40625 20.328125 58.90625 
Q 16.5 51.421875 16.5 36.375 
Q 16.5 21.390625 20.328125 13.890625 
Q 24.171875 6.390625 31.78125 6.390625 
Q 39.453125 6.390625 43.28125 13.890625 
Q 47.125 21.390625 47.125 36.375 
Q 47.125 51.421875 43.28125 58.90625 
Q 39.453125 66.40625 31.78125 66.40625 
z
M 31.78125 74.21875 
Q 44.046875 74.21875 50.515625 64.515625 
Q 56.984375 54.828125 56.984375 36.375 
Q 56.984375 17.96875 50.515625 8.265625 
Q 44.046875 -1.421875 31.78125 -1.421875 
Q 19.53125 -1.421875 13.0625 8.265625 
Q 6.59375 17.96875 6.59375 36.375 
Q 6.59375 54.828125 13.0625 64.515625 
Q 19.53125 74.21875 31.78125 74.21875 
z
" id="DejaVuSans-48"/>
      </defs>
      <g transform="translate(112.182386 329.598437)scale(0.1 -0.1)">
       <use xlink:href="#DejaVuSans-48"/>
      </g>
     </g>
    </g>
    <g id="xtick_2">
     <g id="line2d_3">
      <path clip-path="url(#pc56dade63e)" d="M 206.846545 315 
L 206.846545 43.2 
" style="fill:none;stroke:#b0b0b0;stroke-linecap:square;stroke-width:0.8;"/>
     </g>
     <g id="line2d_4">
      <g>
       <use style="stroke:#000000;stroke-width:0.8;" x="206.846545" xlink:href="#mee15057cdb" y="315"/>
      </g>
     </g>
     <g id="text_2">
      <!-- 200 -->
      <defs>
       <path d="M 19.1875 8.296875 
L 53.609375 8.296875 
L 53.609375 0 
L 7.328125 0 
L 7.328125 8.296875 
Q 12.9375 14.109375 22.625 23.890625 
Q 32.328125 33.6875 34.8125 36.53125 
Q 39.546875 41.84375 41.421875 45.53125 
Q 43.3125 49.21875 43.3125 52.78125 
Q 43.3125 58.59375 39.234375 62.25 
Q 35.15625 65.921875 28.609375 65.921875 
Q 23.96875 65.921875 18.8125 64.3125 
Q 13.671875 62.703125 7.8125 59.421875 
L 7.8125 69.390625 
Q 13.765625 71.78125 18.9375 73 
Q 24.125 74.21875 28.421875 74.21875 
Q 39.75 74.21875 46.484375 68.546875 
Q 53.21875 62.890625 53.21875 53.421875 
Q 53.21875 48.921875 51.53125 44.890625 
Q 49.859375 40.875 45.40625 35.40625 
Q 44.1875 33.984375 37.640625 27.21875 
Q 31.109375 20.453125 19.1875 8.296875 
z
" id="DejaVuSans-50"/>
      </defs>
      <g transform="translate(197.302795 329.598437)scale(0.1 -0.1)">
       <use xlink:href="#DejaVuSans-50"/>
       <use x="63.623047" xlink:href="#DejaVuSans-48"/>
       <use x="127.246094" xlink:href="#DejaVuSans-48"/>
      </g>
     </g>
    </g>
    <g id="xtick_3">
     <g id="line2d_5">
      <path clip-path="url(#pc56dade63e)" d="M 298.329453 315 
L 298.329453 43.2 
" style="fill:none;stroke:#b0b0b0;stroke-linecap:square;stroke-width:0.8;"/>
     </g>
     <g id="line2d_6">
      <g>
       <use style="stroke:#000000;stroke-width:0.8;" x="298.329453" xlink:href="#mee15057cdb" y="315"/>
      </g>
     </g>
     <g id="text_3">
      <!-- 400 -->
      <defs>
       <path d="M 37.796875 64.3125 
L 12.890625 25.390625 
L 37.796875 25.390625 
z
M 35.203125 72.90625 
L 47.609375 72.90625 
L 47.609375 25.390625 
L 58.015625 25.390625 
L 58.015625 17.1875 
L 47.609375 17.1875 
L 47.609375 0 
L 37.796875 0 
L 37.796875 17.1875 
L 4.890625 17.1875 
L 4.890625 26.703125 
z
" id="DejaVuSans-52"/>
      </defs>
      <g transform="translate(288.785703 329.598437)scale(0.1 -0.1)">
       <use xlink:href="#DejaVuSans-52"/>
       <use x="63.623047" xlink:href="#DejaVuSans-48"/>
       <use x="127.246094" xlink:href="#DejaVuSans-48"/>
      </g>
     </g>
    </g>
    <g id="xtick_4">
     <g id="line2d_7">
      <path clip-path="url(#pc56dade63e)" d="M 389.812362 315 
L 389.812362 43.2 
" style="fill:none;stroke:#b0b0b0;stroke-linecap:square;stroke-width:0.8;"/>
     </g>
     <g id="line2d_8">
      <g>
       <use style="stroke:#000000;stroke-width:0.8;" x="389.812362" xlink:href="#mee15057cdb" y="315"/>
      </g>
     </g>
     <g id="text_4">
      <!-- 600 -->
      <defs>
       <path d="M 33.015625 40.375 
Q 26.375 40.375 22.484375 35.828125 
Q 18.609375 31.296875 18.609375 23.390625 
Q 18.609375 15.53125 22.484375 10.953125 
Q 26.375 6.390625 33.015625 6.390625 
Q 39.65625 6.390625 43.53125 10.953125 
Q 47.40625 15.53125 47.40625 23.390625 
Q 47.40625 31.296875 43.53125 35.828125 
Q 39.65625 40.375 33.015625 40.375 
z
M 52.59375 71.296875 
L 52.59375 62.3125 
Q 48.875 64.0625 45.09375 64.984375 
Q 41.3125 65.921875 37.59375 65.921875 
Q 27.828125 65.921875 22.671875 59.328125 
Q 17.53125 52.734375 16.796875 39.40625 
Q 19.671875 43.65625 24.015625 45.921875 
Q 28.375 48.1875 33.59375 48.1875 
Q 44.578125 48.1875 50.953125 41.515625 
Q 57.328125 34.859375 57.328125 23.390625 
Q 57.328125 12.15625 50.6875 5.359375 
Q 44.046875 -1.421875 33.015625 -1.421875 
Q 20.359375 -1.421875 13.671875 8.265625 
Q 6.984375 17.96875 6.984375 36.375 
Q 6.984375 53.65625 15.1875 63.9375 
Q 23.390625 74.21875 37.203125 74.21875 
Q 40.921875 74.21875 44.703125 73.484375 
Q 48.484375 72.75 52.59375 71.296875 
z
" id="DejaVuSans-54"/>
      </defs>
      <g transform="translate(380.268612 329.598437)scale(0.1 -0.1)">
       <use xlink:href="#DejaVuSans-54"/>
       <use x="63.623047" xlink:href="#DejaVuSans-48"/>
       <use x="127.246094" xlink:href="#DejaVuSans-48"/>
      </g>
     </g>
    </g>
    <g id="xtick_5">
     <g id="line2d_9">
      <path clip-path="url(#pc56dade63e)" d="M 481.29527 315 
L 481.29527 43.2 
" style="fill:none;stroke:#b0b0b0;stroke-linecap:square;stroke-width:0.8;"/>
     </g>
     <g id="line2d_10">
      <g>
       <use style="stroke:#000000;stroke-width:0.8;" x="481.29527" xlink:href="#mee15057cdb" y="315"/>
      </g>
     </g>
     <g id="text_5">
      <!-- 800 -->
      <defs>
       <path d="M 31.78125 34.625 
Q 24.75 34.625 20.71875 30.859375 
Q 16.703125 27.09375 16.703125 20.515625 
Q 16.703125 13.921875 20.71875 10.15625 
Q 24.75 6.390625 31.78125 6.390625 
Q 38.8125 6.390625 42.859375 10.171875 
Q 46.921875 13.96875 46.921875 20.515625 
Q 46.921875 27.09375 42.890625 30.859375 
Q 38.875 34.625 31.78125 34.625 
z
M 21.921875 38.8125 
Q 15.578125 40.375 12.03125 44.71875 
Q 8.5 49.078125 8.5 55.328125 
Q 8.5 64.0625 14.71875 69.140625 
Q 20.953125 74.21875 31.78125 74.21875 
Q 42.671875 74.21875 48.875 69.140625 
Q 55.078125 64.0625 55.078125 55.328125 
Q 55.078125 49.078125 51.53125 44.71875 
Q 48 40.375 41.703125 38.8125 
Q 48.828125 37.15625 52.796875 32.3125 
Q 56.78125 27.484375 56.78125 20.515625 
Q 56.78125 9.90625 50.3125 4.234375 
Q 43.84375 -1.421875 31.78125 -1.421875 
Q 19.734375 -1.421875 13.25 4.234375 
Q 6.78125 9.90625 6.78125 20.515625 
Q 6.78125 27.484375 10.78125 32.3125 
Q 14.796875 37.15625 21.921875 38.8125 
z
M 18.3125 54.390625 
Q 18.3125 48.734375 21.84375 45.5625 
Q 25.390625 42.390625 31.78125 42.390625 
Q 38.140625 42.390625 41.71875 45.5625 
Q 45.3125 48.734375 45.3125 54.390625 
Q 45.3125 60.0625 41.71875 63.234375 
Q 38.140625 66.40625 31.78125 66.40625 
Q 25.390625 66.40625 21.84375 63.234375 
Q 18.3125 60.0625 18.3125 54.390625 
z
" id="DejaVuSans-56"/>
      </defs>
      <g transform="translate(471.75152 329.598437)scale(0.1 -0.1)">
       <use xlink:href="#DejaVuSans-56"/>
       <use x="63.623047" xlink:href="#DejaVuSans-48"/>
       <use x="127.246094" xlink:href="#DejaVuSans-48"/>
      </g>
     </g>
    </g>
    <g id="xtick_6">
     <g id="line2d_11">
      <path clip-path="url(#pc56dade63e)" d="M 572.778179 315 
L 572.778179 43.2 
" style="fill:none;stroke:#b0b0b0;stroke-linecap:square;stroke-width:0.8;"/>
     </g>
     <g id="line2d_12">
      <g>
       <use style="stroke:#000000;stroke-width:0.8;" x="572.778179" xlink:href="#mee15057cdb" y="315"/>
      </g>
     </g>
     <g id="text_6">
      <!-- 1000 -->
      <defs>
       <path d="M 12.40625 8.296875 
L 28.515625 8.296875 
L 28.515625 63.921875 
L 10.984375 60.40625 
L 10.984375 69.390625 
L 28.421875 72.90625 
L 38.28125 72.90625 
L 38.28125 8.296875 
L 54.390625 8.296875 
L 54.390625 0 
L 12.40625 0 
z
" id="DejaVuSans-49"/>
      </defs>
      <g transform="translate(560.053179 329.598437)scale(0.1 -0.1)">
       <use xlink:href="#DejaVuSans-49"/>
       <use x="63.623047" xlink:href="#DejaVuSans-48"/>
       <use x="127.246094" xlink:href="#DejaVuSans-48"/>
       <use x="190.869141" xlink:href="#DejaVuSans-48"/>
      </g>
     </g>
    </g>
    <g id="text_7">
     <!-- epoch -->
     <defs>
      <path d="M 56.203125 29.59375 
L 56.203125 25.203125 
L 14.890625 25.203125 
Q 15.484375 15.921875 20.484375 11.0625 
Q 25.484375 6.203125 34.421875 6.203125 
Q 39.59375 6.203125 44.453125 7.46875 
Q 49.3125 8.734375 54.109375 11.28125 
L 54.109375 2.78125 
Q 49.265625 0.734375 44.1875 -0.34375 
Q 39.109375 -1.421875 33.890625 -1.421875 
Q 20.796875 -1.421875 13.15625 6.1875 
Q 5.515625 13.8125 5.515625 26.8125 
Q 5.515625 40.234375 12.765625 48.109375 
Q 20.015625 56 32.328125 56 
Q 43.359375 56 49.78125 48.890625 
Q 56.203125 41.796875 56.203125 29.59375 
z
M 47.21875 32.234375 
Q 47.125 39.59375 43.09375 43.984375 
Q 39.0625 48.390625 32.421875 48.390625 
Q 24.90625 48.390625 20.390625 44.140625 
Q 15.875 39.890625 15.1875 32.171875 
z
" id="DejaVuSans-101"/>
      <path d="M 18.109375 8.203125 
L 18.109375 -20.796875 
L 9.078125 -20.796875 
L 9.078125 54.6875 
L 18.109375 54.6875 
L 18.109375 46.390625 
Q 20.953125 51.265625 25.265625 53.625 
Q 29.59375 56 35.59375 56 
Q 45.5625 56 51.78125 48.09375 
Q 58.015625 40.1875 58.015625 27.296875 
Q 58.015625 14.40625 51.78125 6.484375 
Q 45.5625 -1.421875 35.59375 -1.421875 
Q 29.59375 -1.421875 25.265625 0.953125 
Q 20.953125 3.328125 18.109375 8.203125 
z
M 48.6875 27.296875 
Q 48.6875 37.203125 44.609375 42.84375 
Q 40.53125 48.484375 33.40625 48.484375 
Q 26.265625 48.484375 22.1875 42.84375 
Q 18.109375 37.203125 18.109375 27.296875 
Q 18.109375 17.390625 22.1875 11.75 
Q 26.265625 6.109375 33.40625 6.109375 
Q 40.53125 6.109375 44.609375 11.75 
Q 48.6875 17.390625 48.6875 27.296875 
z
" id="DejaVuSans-112"/>
      <path d="M 30.609375 48.390625 
Q 23.390625 48.390625 19.1875 42.75 
Q 14.984375 37.109375 14.984375 27.296875 
Q 14.984375 17.484375 19.15625 11.84375 
Q 23.34375 6.203125 30.609375 6.203125 
Q 37.796875 6.203125 41.984375 11.859375 
Q 46.1875 17.53125 46.1875 27.296875 
Q 46.1875 37.015625 41.984375 42.703125 
Q 37.796875 48.390625 30.609375 48.390625 
z
M 30.609375 56 
Q 42.328125 56 49.015625 48.375 
Q 55.71875 40.765625 55.71875 27.296875 
Q 55.71875 13.875 49.015625 6.21875 
Q 42.328125 -1.421875 30.609375 -1.421875 
Q 18.84375 -1.421875 12.171875 6.21875 
Q 5.515625 13.875 5.515625 27.296875 
Q 5.515625 40.765625 12.171875 48.375 
Q 18.84375 56 30.609375 56 
z
" id="DejaVuSans-111"/>
      <path d="M 48.78125 52.59375 
L 48.78125 44.1875 
Q 44.96875 46.296875 41.140625 47.34375 
Q 37.3125 48.390625 33.40625 48.390625 
Q 24.65625 48.390625 19.8125 42.84375 
Q 14.984375 37.3125 14.984375 27.296875 
Q 14.984375 17.28125 19.8125 11.734375 
Q 24.65625 6.203125 33.40625 6.203125 
Q 37.3125 6.203125 41.140625 7.25 
Q 44.96875 8.296875 48.78125 10.40625 
L 48.78125 2.09375 
Q 45.015625 0.34375 40.984375 -0.53125 
Q 36.96875 -1.421875 32.421875 -1.421875 
Q 20.0625 -1.421875 12.78125 6.34375 
Q 5.515625 14.109375 5.515625 27.296875 
Q 5.515625 40.671875 12.859375 48.328125 
Q 20.21875 56 33.015625 56 
Q 37.15625 56 41.109375 55.140625 
Q 45.0625 54.296875 48.78125 52.59375 
z
" id="DejaVuSans-99"/>
      <path d="M 54.890625 33.015625 
L 54.890625 0 
L 45.90625 0 
L 45.90625 32.71875 
Q 45.90625 40.484375 42.875 44.328125 
Q 39.84375 48.1875 33.796875 48.1875 
Q 26.515625 48.1875 22.3125 43.546875 
Q 18.109375 38.921875 18.109375 30.90625 
L 18.109375 0 
L 9.078125 0 
L 9.078125 75.984375 
L 18.109375 75.984375 
L 18.109375 46.1875 
Q 21.34375 51.125 25.703125 53.5625 
Q 30.078125 56 35.796875 56 
Q 45.21875 56 50.046875 50.171875 
Q 54.890625 44.34375 54.890625 33.015625 
z
" id="DejaVuSans-104"/>
     </defs>
     <g transform="translate(353.771875 343.276563)scale(0.1 -0.1)">
      <use xlink:href="#DejaVuSans-101"/>
      <use x="61.523438" xlink:href="#DejaVuSans-112"/>
      <use x="125" xlink:href="#DejaVuSans-111"/>
      <use x="186.181641" xlink:href="#DejaVuSans-99"/>
      <use x="241.162109" xlink:href="#DejaVuSans-104"/>
     </g>
    </g>
   </g>
   <g id="matplotlib.axis_2">
    <g id="ytick_1">
     <g id="line2d_13">
      <path clip-path="url(#pc56dade63e)" d="M 90 284.253296 
L 648 284.253296 
" style="fill:none;stroke:#b0b0b0;stroke-linecap:square;stroke-width:0.8;"/>
     </g>
     <g id="line2d_14">
      <defs>
       <path d="M 0 0 
L -3.5 0 
" id="m187d9508f0" style="stroke:#000000;stroke-width:0.8;"/>
      </defs>
      <g>
       <use style="stroke:#000000;stroke-width:0.8;" x="90" xlink:href="#m187d9508f0" y="284.253296"/>
      </g>
     </g>
     <g id="text_8">
      <!-- 0.3 -->
      <defs>
       <path d="M 10.6875 12.40625 
L 21 12.40625 
L 21 0 
L 10.6875 0 
z
" id="DejaVuSans-46"/>
       <path d="M 40.578125 39.3125 
Q 47.65625 37.796875 51.625 33 
Q 55.609375 28.21875 55.609375 21.1875 
Q 55.609375 10.40625 48.1875 4.484375 
Q 40.765625 -1.421875 27.09375 -1.421875 
Q 22.515625 -1.421875 17.65625 -0.515625 
Q 12.796875 0.390625 7.625 2.203125 
L 7.625 11.71875 
Q 11.71875 9.328125 16.59375 8.109375 
Q 21.484375 6.890625 26.8125 6.890625 
Q 36.078125 6.890625 40.9375 10.546875 
Q 45.796875 14.203125 45.796875 21.1875 
Q 45.796875 27.640625 41.28125 31.265625 
Q 36.765625 34.90625 28.71875 34.90625 
L 20.21875 34.90625 
L 20.21875 43.015625 
L 29.109375 43.015625 
Q 36.375 43.015625 40.234375 45.921875 
Q 44.09375 48.828125 44.09375 54.296875 
Q 44.09375 59.90625 40.109375 62.90625 
Q 36.140625 65.921875 28.71875 65.921875 
Q 24.65625 65.921875 20.015625 65.03125 
Q 15.375 64.15625 9.8125 62.3125 
L 9.8125 71.09375 
Q 15.4375 72.65625 20.34375 73.4375 
Q 25.25 74.21875 29.59375 74.21875 
Q 40.828125 74.21875 47.359375 69.109375 
Q 53.90625 64.015625 53.90625 55.328125 
Q 53.90625 49.265625 50.4375 45.09375 
Q 46.96875 40.921875 40.578125 39.3125 
z
" id="DejaVuSans-51"/>
      </defs>
      <g transform="translate(67.096875 288.052515)scale(0.1 -0.1)">
       <use xlink:href="#DejaVuSans-48"/>
       <use x="63.623047" xlink:href="#DejaVuSans-46"/>
       <use x="95.410156" xlink:href="#DejaVuSans-51"/>
      </g>
     </g>
    </g>
    <g id="ytick_2">
     <g id="line2d_15">
      <path clip-path="url(#pc56dade63e)" d="M 90 249.875431 
L 648 249.875431 
" style="fill:none;stroke:#b0b0b0;stroke-linecap:square;stroke-width:0.8;"/>
     </g>
     <g id="line2d_16">
      <g>
       <use style="stroke:#000000;stroke-width:0.8;" x="90" xlink:href="#m187d9508f0" y="249.875431"/>
      </g>
     </g>
     <g id="text_9">
      <!-- 0.4 -->
      <g transform="translate(67.096875 253.67465)scale(0.1 -0.1)">
       <use xlink:href="#DejaVuSans-48"/>
       <use x="63.623047" xlink:href="#DejaVuSans-46"/>
       <use x="95.410156" xlink:href="#DejaVuSans-52"/>
      </g>
     </g>
    </g>
    <g id="ytick_3">
     <g id="line2d_17">
      <path clip-path="url(#pc56dade63e)" d="M 90 215.497565 
L 648 215.497565 
" style="fill:none;stroke:#b0b0b0;stroke-linecap:square;stroke-width:0.8;"/>
     </g>
     <g id="line2d_18">
      <g>
       <use style="stroke:#000000;stroke-width:0.8;" x="90" xlink:href="#m187d9508f0" y="215.497565"/>
      </g>
     </g>
     <g id="text_10">
      <!-- 0.5 -->
      <defs>
       <path d="M 10.796875 72.90625 
L 49.515625 72.90625 
L 49.515625 64.59375 
L 19.828125 64.59375 
L 19.828125 46.734375 
Q 21.96875 47.46875 24.109375 47.828125 
Q 26.265625 48.1875 28.421875 48.1875 
Q 40.625 48.1875 47.75 41.5 
Q 54.890625 34.8125 54.890625 23.390625 
Q 54.890625 11.625 47.5625 5.09375 
Q 40.234375 -1.421875 26.90625 -1.421875 
Q 22.3125 -1.421875 17.546875 -0.640625 
Q 12.796875 0.140625 7.71875 1.703125 
L 7.71875 11.625 
Q 12.109375 9.234375 16.796875 8.0625 
Q 21.484375 6.890625 26.703125 6.890625 
Q 35.15625 6.890625 40.078125 11.328125 
Q 45.015625 15.765625 45.015625 23.390625 
Q 45.015625 31 40.078125 35.4375 
Q 35.15625 39.890625 26.703125 39.890625 
Q 22.75 39.890625 18.8125 39.015625 
Q 14.890625 38.140625 10.796875 36.28125 
z
" id="DejaVuSans-53"/>
      </defs>
      <g transform="translate(67.096875 219.296784)scale(0.1 -0.1)">
       <use xlink:href="#DejaVuSans-48"/>
       <use x="63.623047" xlink:href="#DejaVuSans-46"/>
       <use x="95.410156" xlink:href="#DejaVuSans-53"/>
      </g>
     </g>
    </g>
    <g id="ytick_4">
     <g id="line2d_19">
      <path clip-path="url(#pc56dade63e)" d="M 90 181.1197 
L 648 181.1197 
" style="fill:none;stroke:#b0b0b0;stroke-linecap:square;stroke-width:0.8;"/>
     </g>
     <g id="line2d_20">
      <g>
       <use style="stroke:#000000;stroke-width:0.8;" x="90" xlink:href="#m187d9508f0" y="181.1197"/>
      </g>
     </g>
     <g id="text_11">
      <!-- 0.6 -->
      <g transform="translate(67.096875 184.918918)scale(0.1 -0.1)">
       <use xlink:href="#DejaVuSans-48"/>
       <use x="63.623047" xlink:href="#DejaVuSans-46"/>
       <use x="95.410156" xlink:href="#DejaVuSans-54"/>
      </g>
     </g>
    </g>
    <g id="ytick_5">
     <g id="line2d_21">
      <path clip-path="url(#pc56dade63e)" d="M 90 146.741834 
L 648 146.741834 
" style="fill:none;stroke:#b0b0b0;stroke-linecap:square;stroke-width:0.8;"/>
     </g>
     <g id="line2d_22">
      <g>
       <use style="stroke:#000000;stroke-width:0.8;" x="90" xlink:href="#m187d9508f0" y="146.741834"/>
      </g>
     </g>
     <g id="text_12">
      <!-- 0.7 -->
      <defs>
       <path d="M 8.203125 72.90625 
L 55.078125 72.90625 
L 55.078125 68.703125 
L 28.609375 0 
L 18.3125 0 
L 43.21875 64.59375 
L 8.203125 64.59375 
z
" id="DejaVuSans-55"/>
      </defs>
      <g transform="translate(67.096875 150.541053)scale(0.1 -0.1)">
       <use xlink:href="#DejaVuSans-48"/>
       <use x="63.623047" xlink:href="#DejaVuSans-46"/>
       <use x="95.410156" xlink:href="#DejaVuSans-55"/>
      </g>
     </g>
    </g>
    <g id="ytick_6">
     <g id="line2d_23">
      <path clip-path="url(#pc56dade63e)" d="M 90 112.363968 
L 648 112.363968 
" style="fill:none;stroke:#b0b0b0;stroke-linecap:square;stroke-width:0.8;"/>
     </g>
     <g id="line2d_24">
      <g>
       <use style="stroke:#000000;stroke-width:0.8;" x="90" xlink:href="#m187d9508f0" y="112.363968"/>
      </g>
     </g>
     <g id="text_13">
      <!-- 0.8 -->
      <g transform="translate(67.096875 116.163187)scale(0.1 -0.1)">
       <use xlink:href="#DejaVuSans-48"/>
       <use x="63.623047" xlink:href="#DejaVuSans-46"/>
       <use x="95.410156" xlink:href="#DejaVuSans-56"/>
      </g>
     </g>
    </g>
    <g id="ytick_7">
     <g id="line2d_25">
      <path clip-path="url(#pc56dade63e)" d="M 90 77.986103 
L 648 77.986103 
" style="fill:none;stroke:#b0b0b0;stroke-linecap:square;stroke-width:0.8;"/>
     </g>
     <g id="line2d_26">
      <g>
       <use style="stroke:#000000;stroke-width:0.8;" x="90" xlink:href="#m187d9508f0" y="77.986103"/>
      </g>
     </g>
     <g id="text_14">
      <!-- 0.9 -->
      <defs>
       <path d="M 10.984375 1.515625 
L 10.984375 10.5 
Q 14.703125 8.734375 18.5 7.8125 
Q 22.3125 6.890625 25.984375 6.890625 
Q 35.75 6.890625 40.890625 13.453125 
Q 46.046875 20.015625 46.78125 33.40625 
Q 43.953125 29.203125 39.59375 26.953125 
Q 35.25 24.703125 29.984375 24.703125 
Q 19.046875 24.703125 12.671875 31.3125 
Q 6.296875 37.9375 6.296875 49.421875 
Q 6.296875 60.640625 12.9375 67.421875 
Q 19.578125 74.21875 30.609375 74.21875 
Q 43.265625 74.21875 49.921875 64.515625 
Q 56.59375 54.828125 56.59375 36.375 
Q 56.59375 19.140625 48.40625 8.859375 
Q 40.234375 -1.421875 26.421875 -1.421875 
Q 22.703125 -1.421875 18.890625 -0.6875 
Q 15.09375 0.046875 10.984375 1.515625 
z
M 30.609375 32.421875 
Q 37.25 32.421875 41.125 36.953125 
Q 45.015625 41.5 45.015625 49.421875 
Q 45.015625 57.28125 41.125 61.84375 
Q 37.25 66.40625 30.609375 66.40625 
Q 23.96875 66.40625 20.09375 61.84375 
Q 16.21875 57.28125 16.21875 49.421875 
Q 16.21875 41.5 20.09375 36.953125 
Q 23.96875 32.421875 30.609375 32.421875 
z
" id="DejaVuSans-57"/>
      </defs>
      <g transform="translate(67.096875 81.785322)scale(0.1 -0.1)">
       <use xlink:href="#DejaVuSans-48"/>
       <use x="63.623047" xlink:href="#DejaVuSans-46"/>
       <use x="95.410156" xlink:href="#DejaVuSans-57"/>
      </g>
     </g>
    </g>
    <g id="ytick_8">
     <g id="line2d_27">
      <path clip-path="url(#pc56dade63e)" d="M 90 43.608237 
L 648 43.608237 
" style="fill:none;stroke:#b0b0b0;stroke-linecap:square;stroke-width:0.8;"/>
     </g>
     <g id="line2d_28">
      <g>
       <use style="stroke:#000000;stroke-width:0.8;" x="90" xlink:href="#m187d9508f0" y="43.608237"/>
      </g>
     </g>
     <g id="text_15">
      <!-- 1.0 -->
      <g transform="translate(67.096875 47.407456)scale(0.1 -0.1)">
       <use xlink:href="#DejaVuSans-49"/>
       <use x="63.623047" xlink:href="#DejaVuSans-46"/>
       <use x="95.410156" xlink:href="#DejaVuSans-48"/>
      </g>
     </g>
    </g>
    <g id="text_16">
     <!-- accuracy -->
     <defs>
      <path d="M 34.28125 27.484375 
Q 23.390625 27.484375 19.1875 25 
Q 14.984375 22.515625 14.984375 16.5 
Q 14.984375 11.71875 18.140625 8.90625 
Q 21.296875 6.109375 26.703125 6.109375 
Q 34.1875 6.109375 38.703125 11.40625 
Q 43.21875 16.703125 43.21875 25.484375 
L 43.21875 27.484375 
z
M 52.203125 31.203125 
L 52.203125 0 
L 43.21875 0 
L 43.21875 8.296875 
Q 40.140625 3.328125 35.546875 0.953125 
Q 30.953125 -1.421875 24.3125 -1.421875 
Q 15.921875 -1.421875 10.953125 3.296875 
Q 6 8.015625 6 15.921875 
Q 6 25.140625 12.171875 29.828125 
Q 18.359375 34.515625 30.609375 34.515625 
L 43.21875 34.515625 
L 43.21875 35.40625 
Q 43.21875 41.609375 39.140625 45 
Q 35.0625 48.390625 27.6875 48.390625 
Q 23 48.390625 18.546875 47.265625 
Q 14.109375 46.140625 10.015625 43.890625 
L 10.015625 52.203125 
Q 14.9375 54.109375 19.578125 55.046875 
Q 24.21875 56 28.609375 56 
Q 40.484375 56 46.34375 49.84375 
Q 52.203125 43.703125 52.203125 31.203125 
z
" id="DejaVuSans-97"/>
      <path d="M 8.5 21.578125 
L 8.5 54.6875 
L 17.484375 54.6875 
L 17.484375 21.921875 
Q 17.484375 14.15625 20.5 10.265625 
Q 23.53125 6.390625 29.59375 6.390625 
Q 36.859375 6.390625 41.078125 11.03125 
Q 45.3125 15.671875 45.3125 23.6875 
L 45.3125 54.6875 
L 54.296875 54.6875 
L 54.296875 0 
L 45.3125 0 
L 45.3125 8.40625 
Q 42.046875 3.421875 37.71875 1 
Q 33.40625 -1.421875 27.6875 -1.421875 
Q 18.265625 -1.421875 13.375 4.4375 
Q 8.5 10.296875 8.5 21.578125 
z
M 31.109375 56 
z
" id="DejaVuSans-117"/>
      <path d="M 41.109375 46.296875 
Q 39.59375 47.171875 37.8125 47.578125 
Q 36.03125 48 33.890625 48 
Q 26.265625 48 22.1875 43.046875 
Q 18.109375 38.09375 18.109375 28.8125 
L 18.109375 0 
L 9.078125 0 
L 9.078125 54.6875 
L 18.109375 54.6875 
L 18.109375 46.1875 
Q 20.953125 51.171875 25.484375 53.578125 
Q 30.03125 56 36.53125 56 
Q 37.453125 56 38.578125 55.875 
Q 39.703125 55.765625 41.0625 55.515625 
z
" id="DejaVuSans-114"/>
      <path d="M 32.171875 -5.078125 
Q 28.375 -14.84375 24.75 -17.8125 
Q 21.140625 -20.796875 15.09375 -20.796875 
L 7.90625 -20.796875 
L 7.90625 -13.28125 
L 13.1875 -13.28125 
Q 16.890625 -13.28125 18.9375 -11.515625 
Q 21 -9.765625 23.484375 -3.21875 
L 25.09375 0.875 
L 2.984375 54.6875 
L 12.5 54.6875 
L 29.59375 11.921875 
L 46.6875 54.6875 
L 56.203125 54.6875 
z
" id="DejaVuSans-121"/>
     </defs>
     <g transform="translate(61.017187 201.659375)rotate(-90)scale(0.1 -0.1)">
      <use xlink:href="#DejaVuSans-97"/>
      <use x="61.279297" xlink:href="#DejaVuSans-99"/>
      <use x="116.259766" xlink:href="#DejaVuSans-99"/>
      <use x="171.240234" xlink:href="#DejaVuSans-117"/>
      <use x="234.619141" xlink:href="#DejaVuSans-114"/>
      <use x="275.732422" xlink:href="#DejaVuSans-97"/>
      <use x="337.011719" xlink:href="#DejaVuSans-99"/>
      <use x="391.992188" xlink:href="#DejaVuSans-121"/>
     </g>
    </g>
   </g>
   <g id="line2d_29">
    <path clip-path="url(#pc56dade63e)" d="M 115.363636 299.379557 
L 115.821051 296.887162 
L 116.278465 296.629328 
L 116.73588 295.168269 
L 117.193295 295.941771 
L 117.650709 284.68302 
L 118.108124 296.973107 
L 118.565538 286.917581 
L 119.022953 287.08947 
L 119.937782 288.37864 
L 120.395196 280.127953 
L 120.852611 279.440395 
L 121.310025 272.306988 
L 121.76744 275.830719 
L 122.224854 270.158372 
L 122.682269 261.306071 
L 123.139684 260.704458 
L 123.597098 255.461834 
L 124.054513 258.469897 
L 124.511927 250.477043 
L 124.969342 244.804696 
L 125.426756 243.687415 
L 125.884171 245.234419 
L 127.256414 226.670372 
L 127.713829 227.271984 
L 128.171244 226.584427 
L 129.086073 215.841344 
L 129.543487 214.552174 
L 130.000902 212.231668 
L 130.458316 205.356095 
L 130.915731 201.57453 
L 131.373145 202.176142 
L 131.83056 194.097344 
L 132.287974 197.105407 
L 133.202804 186.018545 
L 133.660218 182.838593 
L 134.117633 185.159099 
L 134.575047 173.212791 
L 135.032462 175.361407 
L 135.489876 174.072237 
L 135.947291 173.38468 
L 136.404705 164.876158 
L 136.86212 162.125929 
L 137.319534 161.352427 
L 137.776949 158.258419 
L 138.234363 150.523399 
L 138.691778 150.867178 
L 139.149193 151.812569 
L 139.606607 151.125012 
L 140.064022 141.585154 
L 140.521436 141.671099 
L 140.978851 141.928933 
L 141.436265 139.436538 
L 141.89368 138.233312 
L 142.351094 136.428474 
L 142.808509 140.21004 
L 143.265923 132.30313 
L 143.723338 134.279858 
L 144.638167 129.638846 
L 145.095582 129.037233 
L 145.552996 130.756126 
L 146.010411 126.544838 
L 146.467825 126.458893 
L 146.92524 125.771336 
L 147.382654 123.192996 
L 147.840069 122.419494 
L 148.297483 123.966498 
L 148.754898 120.270877 
L 149.212312 121.474103 
L 149.669727 123.708664 
L 150.127142 116.145534 
L 150.584556 118.809818 
L 151.041971 118.46604 
L 151.499385 117.950372 
L 151.9568 112.278024 
L 152.414214 116.747146 
L 152.871629 112.363968 
L 153.329043 114.856364 
L 153.786458 110.816964 
L 154.243872 112.02019 
L 154.701287 111.246688 
L 155.158702 109.012126 
L 155.616116 106.090008 
L 156.073531 109.26996 
L 156.530945 106.004063 
L 156.98836 106.949455 
L 157.445774 105.832174 
L 157.903189 105.230561 
L 158.360603 103.081945 
L 158.818018 105.058672 
L 159.275432 101.105217 
L 159.732847 105.058672 
L 160.190261 101.70683 
L 160.647676 104.457059 
L 161.105091 100.41766 
L 161.562505 101.277107 
L 162.01992 99.644158 
L 162.477334 96.292316 
L 162.934749 96.893929 
L 163.392163 102.222498 
L 163.849578 95.862593 
L 164.306992 96.72204 
L 164.764407 96.034482 
L 165.221821 98.698767 
L 165.679236 96.55015 
L 166.136651 97.065818 
L 166.594065 94.745312 
L 167.05148 93.97181 
L 167.508894 94.831257 
L 167.966309 96.034482 
L 168.423723 92.338862 
L 168.881138 90.877802 
L 169.338552 91.651304 
L 169.795967 91.823194 
L 170.710796 91.049692 
L 171.168211 94.831257 
L 171.625625 92.424806 
L 172.08304 91.823194 
L 172.540454 90.448079 
L 172.997869 91.049692 
L 173.912698 87.955684 
L 174.370112 91.56536 
L 174.827527 90.877802 
L 175.284941 86.838403 
L 175.742356 87.52596 
L 176.657185 90.448079 
L 177.1146 85.635178 
L 177.572014 89.072964 
L 178.029429 89.244854 
L 178.486843 86.064901 
L 178.944258 88.557296 
L 179.401672 86.580569 
L 179.859087 85.463289 
L 180.316501 83.658451 
L 180.773916 83.142783 
L 181.23133 88.81513 
L 181.688745 84.346008 
L 182.14616 86.838403 
L 182.603574 83.314672 
L 183.060989 83.83034 
L 183.518403 83.142783 
L 183.975818 82.970893 
L 184.433232 84.260063 
L 185.348061 85.807067 
L 185.805476 83.228727 
L 186.26289 83.142783 
L 186.720305 79.704996 
L 187.177719 85.377344 
L 187.635134 83.83034 
L 188.092549 81.595779 
L 189.007378 82.283336 
L 189.464792 80.650387 
L 189.922207 83.744395 
L 190.379621 80.908221 
L 190.837036 82.627115 
L 191.29445 79.876885 
L 191.751865 84.431953 
L 192.209279 81.767668 
L 192.666694 79.790941 
L 193.124109 80.736332 
L 193.581523 80.306609 
L 194.038938 81.080111 
L 194.496352 82.369281 
L 194.953767 80.822277 
L 195.411181 77.470435 
L 196.32601 80.306609 
L 196.783425 79.447162 
L 197.240839 77.470435 
L 197.698254 77.556379 
L 198.155668 78.243937 
L 198.613083 79.790941 
L 199.070498 79.103383 
L 199.527912 77.212601 
L 199.985327 77.900158 
L 200.442741 77.728269 
L 200.900156 78.243937 
L 201.35757 80.478498 
L 201.814985 77.728269 
L 202.272399 78.587715 
L 202.729814 76.954767 
L 203.187228 77.38449 
L 203.644643 75.321818 
L 204.102058 78.157992 
L 204.559472 78.415826 
L 205.016887 76.09532 
L 205.474301 78.845549 
L 205.931716 78.501771 
L 206.846545 77.212601 
L 207.303959 77.298545 
L 207.761374 72.743478 
L 208.218788 73.259146 
L 208.676203 76.868822 
L 209.133618 77.470435 
L 209.591032 76.09532 
L 210.048447 77.470435 
L 210.963276 74.290482 
L 211.42069 77.814213 
L 211.878105 75.407763 
L 212.335519 75.837486 
L 212.792934 76.009375 
L 213.250348 74.462372 
L 213.707763 75.751542 
L 214.622592 75.321818 
L 215.080007 74.290482 
L 215.537421 73.774814 
L 215.994836 72.829423 
L 216.45225 74.376427 
L 216.909665 76.610988 
L 217.367079 73.860759 
L 217.824494 74.720206 
L 218.281908 75.923431 
L 218.739323 73.946704 
L 219.196737 75.923431 
L 219.654152 76.181265 
L 220.111567 75.837486 
L 220.568981 77.900158 
L 221.026396 72.3997 
L 221.48381 72.829423 
L 221.941225 73.774814 
L 222.856054 76.267209 
L 223.770883 73.431036 
L 224.228297 74.118593 
L 224.685712 74.376427 
L 225.143126 74.032648 
L 225.600541 74.118593 
L 226.057956 74.376427 
L 226.51537 70.337028 
L 226.972785 73.860759 
L 227.430199 72.743478 
L 227.887614 74.290482 
L 228.345028 71.368364 
L 228.802443 76.09532 
L 229.259857 72.829423 
L 229.717272 72.915368 
L 230.174686 74.290482 
L 230.632101 70.766751 
L 231.089516 74.462372 
L 231.54693 74.032648 
L 232.004345 74.118593 
L 232.461759 73.431036 
L 232.919174 73.259146 
L 233.376588 74.80615 
L 233.834003 69.993249 
L 234.748832 71.024585 
L 235.206246 74.97804 
L 235.663661 70.680806 
L 236.57849 72.485644 
L 237.493319 70.251083 
L 237.950734 72.141866 
L 238.408148 71.626198 
L 238.865563 72.141866 
L 239.322977 70.422972 
L 239.780392 72.3997 
L 240.237806 75.751542 
L 240.695221 72.571589 
L 241.152635 71.712142 
L 241.61005 72.657534 
L 242.067465 71.884032 
L 242.524879 68.3603 
L 242.982294 72.743478 
L 243.439708 73.51698 
L 243.897123 72.571589 
L 244.354537 70.594862 
L 244.811952 71.11053 
L 245.726781 73.860759 
L 246.184195 70.422972 
L 246.64161 73.431036 
L 247.099025 73.946704 
L 247.556439 73.345091 
L 248.013854 70.594862 
L 248.471268 72.3997 
L 248.928683 71.626198 
L 249.386097 68.53219 
L 249.843512 69.391636 
L 250.300926 69.047858 
L 250.758341 70.079194 
L 251.67317 69.735415 
L 252.130584 68.618134 
L 252.587999 72.915368 
L 253.045414 71.282419 
L 253.502828 70.337028 
L 253.960243 72.313755 
L 254.417657 67.930577 
L 254.875072 71.454308 
L 255.332486 70.766751 
L 255.789901 70.852696 
L 256.247315 72.829423 
L 256.70473 71.368364 
L 257.162144 70.422972 
L 257.619559 70.508917 
L 258.076974 70.251083 
L 258.534388 68.790024 
L 258.991803 70.422972 
L 259.449217 68.188411 
L 259.906632 71.712142 
L 260.364046 68.961913 
L 260.821461 70.337028 
L 261.278875 69.047858 
L 261.73629 70.337028 
L 262.193704 70.079194 
L 262.651119 70.594862 
L 263.108533 69.133802 
L 263.565948 68.188411 
L 264.023363 67.758688 
L 264.480777 69.305692 
L 264.938192 69.993249 
L 265.395606 67.500854 
L 265.853021 67.500854 
L 266.310435 71.024585 
L 266.76785 72.571589 
L 267.225264 67.844632 
L 267.682679 68.274356 
L 268.140093 68.875968 
L 268.597508 68.790024 
L 269.054923 67.328964 
L 269.512337 69.735415 
L 269.969752 68.016522 
L 270.427166 68.3603 
L 270.884581 68.446245 
L 271.341995 68.274356 
L 271.79941 69.477581 
L 272.256824 69.047858 
L 272.714239 67.157075 
L 273.629068 68.704079 
L 274.086482 67.414909 
L 274.543897 67.414909 
L 275.001312 69.563526 
L 275.458726 67.586798 
L 275.916141 66.641407 
L 276.373555 69.219747 
L 276.83097 68.446245 
L 277.288384 68.790024 
L 277.745799 68.618134 
L 278.203213 67.758688 
L 278.660628 69.993249 
L 279.118042 66.813296 
L 279.575457 66.469518 
L 280.032872 67.500854 
L 280.490286 66.211684 
L 280.947701 66.985186 
L 281.405115 68.704079 
L 281.86253 66.125739 
L 282.319944 69.133802 
L 282.777359 67.758688 
L 283.234773 68.188411 
L 283.692188 67.586798 
L 284.149602 65.008458 
L 285.064432 67.930577 
L 285.521846 66.039794 
L 285.979261 66.985186 
L 286.436675 65.78196 
L 287.351504 69.907304 
L 287.808919 66.125739 
L 288.266333 64.836569 
L 288.723748 65.95385 
L 289.181162 65.438182 
L 289.638577 68.016522 
L 290.095991 65.95385 
L 290.553406 66.813296 
L 291.010821 65.78196 
L 291.468235 66.211684 
L 291.92565 65.524126 
L 292.383064 69.305692 
L 292.840479 65.867905 
L 293.297893 67.758688 
L 293.755308 66.211684 
L 294.212722 67.157075 
L 294.670137 66.899241 
L 295.127551 64.063067 
L 295.584966 66.211684 
L 296.042381 65.867905 
L 296.499795 67.758688 
L 296.95721 68.188411 
L 297.414624 67.844632 
L 297.872039 66.297628 
L 298.329453 67.328964 
L 298.786868 66.383573 
L 299.244282 67.672743 
L 299.701697 66.383573 
L 300.159111 69.563526 
L 300.616526 67.586798 
L 301.07394 67.157075 
L 301.531355 66.125739 
L 302.446184 67.500854 
L 302.903599 68.274356 
L 303.361013 65.867905 
L 303.818428 67.930577 
L 304.275842 65.352237 
L 304.733257 65.524126 
L 305.190671 67.328964 
L 305.648086 67.328964 
L 306.1055 65.352237 
L 306.562915 65.95385 
L 307.02033 64.578735 
L 307.477744 65.094403 
L 307.935159 64.492791 
L 308.392573 66.813296 
L 308.849988 66.297628 
L 309.307402 66.985186 
L 310.222231 65.610071 
L 310.679646 64.836569 
L 311.13706 65.867905 
L 311.594475 63.547399 
L 312.051889 67.24302 
L 312.509304 66.211684 
L 312.966719 65.696016 
L 313.424133 65.352237 
L 313.881548 64.578735 
L 314.338962 62.687953 
L 314.796377 64.492791 
L 315.253791 64.234957 
L 315.711206 66.039794 
L 316.16862 66.813296 
L 316.626035 66.211684 
L 317.083449 65.094403 
L 317.540864 66.039794 
L 318.455693 66.297628 
L 318.913108 67.500854 
L 319.370522 64.063067 
L 319.827937 65.696016 
L 320.285351 64.149012 
L 320.742766 65.610071 
L 321.657595 65.696016 
L 322.115009 65.610071 
L 322.572424 66.211684 
L 323.029839 65.094403 
L 323.944668 64.836569 
L 324.402082 63.633344 
L 324.859497 66.899241 
L 325.316911 65.352237 
L 325.774326 66.383573 
L 326.23174 63.289565 
L 326.689155 63.289565 
L 327.146569 66.383573 
L 327.603984 64.578735 
L 328.061398 63.805233 
L 328.518813 65.524126 
L 328.976228 64.922514 
L 329.433642 65.95385 
L 329.891057 64.492791 
L 330.348471 66.469518 
L 330.805886 65.008458 
L 331.2633 66.899241 
L 331.720715 63.37551 
L 332.178129 65.438182 
L 332.635544 63.891178 
L 333.550373 65.95385 
L 334.007788 65.180348 
L 334.465202 63.633344 
L 334.922617 65.524126 
L 335.380031 63.547399 
L 335.837446 64.922514 
L 336.29486 63.633344 
L 337.209689 65.438182 
L 337.667104 64.406846 
L 338.124518 63.031731 
L 338.581933 68.016522 
L 339.039347 64.320901 
L 339.496762 65.180348 
L 339.954177 65.524126 
L 340.411591 65.352237 
L 340.869006 64.578735 
L 341.32642 65.524126 
L 341.783835 65.524126 
L 342.241249 66.641407 
L 342.698664 63.633344 
L 343.156078 64.234957 
L 343.613493 63.031731 
L 344.070907 62.773897 
L 344.528322 64.492791 
L 344.985737 63.031731 
L 345.443151 63.289565 
L 345.900566 65.867905 
L 346.35798 66.125739 
L 346.815395 66.039794 
L 347.272809 65.352237 
L 347.730224 65.867905 
L 348.187638 64.66468 
L 348.645053 65.524126 
L 349.559882 65.008458 
L 350.017296 63.891178 
L 350.474711 63.719289 
L 350.932126 64.320901 
L 351.38954 65.180348 
L 351.846955 63.289565 
L 352.304369 64.578735 
L 352.761784 64.063067 
L 353.219198 63.031731 
L 353.676613 61.055004 
L 354.134027 63.633344 
L 354.591442 63.719289 
L 355.048856 64.66468 
L 355.506271 64.406846 
L 355.963686 62.859842 
L 356.4211 60.883115 
L 356.878515 63.289565 
L 357.335929 62.344174 
L 357.793344 65.180348 
L 358.250758 63.805233 
L 358.708173 65.094403 
L 359.623002 64.149012 
L 360.080416 64.750625 
L 360.537831 63.633344 
L 360.995246 61.656617 
L 361.45266 64.234957 
L 361.910075 63.37551 
L 362.367489 65.867905 
L 362.824904 64.149012 
L 363.282318 64.320901 
L 363.739733 63.461455 
L 364.197147 62.344174 
L 364.654562 64.063067 
L 365.111976 62.687953 
L 365.569391 62.344174 
L 366.026805 63.461455 
L 366.48422 65.008458 
L 366.941635 64.149012 
L 367.399049 62.602008 
L 367.856464 63.461455 
L 368.313878 63.461455 
L 368.771293 64.578735 
L 369.228707 62.516063 
L 369.686122 61.140949 
L 370.143536 64.063067 
L 370.600951 63.461455 
L 371.058365 62.602008 
L 371.51578 63.977123 
L 371.973195 63.37551 
L 372.430609 63.461455 
L 372.888024 63.289565 
L 373.345438 62.08634 
L 373.802853 65.352237 
L 374.260267 62.516063 
L 374.717682 61.226893 
L 375.175096 62.859842 
L 375.632511 62.516063 
L 376.54734 62.08634 
L 377.004754 63.891178 
L 377.462169 63.461455 
L 377.919584 59.937723 
L 378.376998 60.883115 
L 378.834413 61.226893 
L 379.749242 63.203621 
L 380.206656 61.570672 
L 381.121485 62.172285 
L 382.036314 64.578735 
L 382.493729 64.234957 
L 382.951144 63.031731 
L 383.408558 63.805233 
L 383.865973 63.547399 
L 384.323387 64.149012 
L 384.780802 61.742561 
L 385.238216 62.687953 
L 385.695631 64.750625 
L 386.153045 62.602008 
L 386.61046 62.516063 
L 387.067874 64.66468 
L 387.525289 62.344174 
L 387.982704 62.258229 
L 388.440118 61.226893 
L 388.897533 63.289565 
L 389.354947 62.773897 
L 389.812362 62.687953 
L 390.269776 61.742561 
L 390.727191 59.765834 
L 391.184605 63.031731 
L 392.099434 60.969059 
L 392.556849 63.461455 
L 393.014263 63.289565 
L 393.471678 61.398783 
L 393.929093 61.570672 
L 394.386507 62.172285 
L 394.843922 62.430119 
L 395.301336 59.508 
L 395.758751 62.000395 
L 396.216165 61.055004 
L 396.67358 62.859842 
L 397.130994 62.516063 
L 397.588409 61.914451 
L 398.045823 60.711225 
L 398.503238 61.914451 
L 398.960653 63.633344 
L 399.418067 61.656617 
L 399.875482 62.08634 
L 400.332896 63.633344 
L 400.790311 64.578735 
L 401.70514 62.516063 
L 402.162554 62.859842 
L 402.619969 65.008458 
L 403.077383 63.117676 
L 403.534798 62.344174 
L 403.992212 63.37551 
L 404.449627 61.484727 
L 404.907042 62.172285 
L 405.364456 61.742561 
L 405.821871 61.742561 
L 406.279285 60.453391 
L 406.7367 63.289565 
L 407.194114 62.08634 
L 407.651529 63.461455 
L 408.108943 60.023668 
L 409.023772 63.891178 
L 409.481187 62.430119 
L 410.396016 61.312838 
L 410.853431 60.625281 
L 411.310845 62.602008 
L 411.76826 61.656617 
L 412.225674 61.570672 
L 412.683089 61.828506 
L 413.140503 62.602008 
L 413.597918 62.172285 
L 414.055332 62.516063 
L 414.512747 60.883115 
L 415.427576 63.633344 
L 415.884991 63.031731 
L 416.342405 61.828506 
L 416.79982 61.570672 
L 417.257234 62.687953 
L 417.714649 61.398783 
L 418.172063 59.765834 
L 418.629478 60.367447 
L 419.086892 62.172285 
L 419.544307 61.055004 
L 420.001721 62.000395 
L 420.459136 62.172285 
L 420.916551 60.281502 
L 421.373965 62.344174 
L 421.83138 62.430119 
L 422.746209 61.484727 
L 423.203623 61.398783 
L 423.661038 62.344174 
L 424.118452 61.140949 
L 424.575867 60.711225 
L 425.033281 61.484727 
L 425.490696 59.765834 
L 425.948111 63.547399 
L 426.405525 62.08634 
L 426.86294 62.773897 
L 427.777769 60.453391 
L 428.235183 62.516063 
L 428.692598 62.945787 
L 429.150012 60.883115 
L 429.607427 62.258229 
L 430.064841 61.828506 
L 430.522256 60.367447 
L 430.97967 61.312838 
L 431.437085 63.203621 
L 431.8945 59.851779 
L 432.351914 62.172285 
L 432.809329 60.969059 
L 433.266743 61.484727 
L 433.724158 61.055004 
L 434.181572 61.484727 
L 434.638987 62.344174 
L 435.096401 63.977123 
L 435.553816 62.430119 
L 436.01123 61.742561 
L 436.468645 59.851779 
L 436.92606 60.195557 
L 437.383474 62.344174 
L 437.840889 61.226893 
L 438.298303 61.398783 
L 438.755718 59.078277 
L 439.213132 62.602008 
L 440.127961 59.508 
L 440.585376 62.000395 
L 441.04279 59.679889 
L 441.500205 60.109613 
L 441.957619 58.820443 
L 442.415034 59.765834 
L 442.872449 61.140949 
L 443.329863 61.398783 
L 443.787278 61.140949 
L 444.244692 61.484727 
L 444.702107 63.461455 
L 445.159521 61.140949 
L 445.616936 61.742561 
L 446.07435 61.828506 
L 446.531765 61.398783 
L 446.989179 61.484727 
L 447.446594 60.625281 
L 448.361423 60.367447 
L 448.818838 60.79717 
L 449.276252 60.883115 
L 449.733667 61.828506 
L 450.191081 61.484727 
L 450.648496 62.000395 
L 451.10591 62.000395 
L 451.563325 58.906387 
L 452.020739 59.078277 
L 452.478154 60.109613 
L 452.935568 59.336111 
L 453.392983 59.679889 
L 453.850398 59.593945 
L 454.307812 60.281502 
L 454.765227 60.023668 
L 455.222641 60.625281 
L 455.680056 59.679889 
L 456.13747 60.969059 
L 456.594885 61.742561 
L 457.052299 61.140949 
L 457.509714 58.562609 
L 457.967128 62.08634 
L 458.881958 59.078277 
L 459.339372 60.969059 
L 459.796787 59.765834 
L 460.254201 59.679889 
L 460.711616 62.08634 
L 461.16903 60.453391 
L 461.626445 59.508 
L 462.083859 60.711225 
L 462.541274 60.367447 
L 462.998688 59.336111 
L 463.913518 60.625281 
L 464.370932 61.828506 
L 464.828347 59.593945 
L 465.285761 59.336111 
L 465.743176 62.000395 
L 466.20059 61.398783 
L 466.658005 61.055004 
L 467.115419 59.422055 
L 467.572834 61.055004 
L 468.487663 59.765834 
L 468.945077 60.281502 
L 469.402492 60.539336 
L 469.859907 59.851779 
L 470.317321 57.703162 
L 470.774736 58.992332 
L 471.23215 59.593945 
L 471.689565 59.508 
L 472.146979 60.109613 
L 472.604394 60.367447 
L 473.061808 58.21883 
L 473.519223 60.023668 
L 473.976637 60.711225 
L 474.434052 59.937723 
L 474.891467 59.593945 
L 475.348881 58.648553 
L 475.806296 59.164221 
L 476.26371 62.602008 
L 476.721125 58.648553 
L 477.635954 60.711225 
L 478.093368 60.711225 
L 478.550783 60.195557 
L 479.008197 61.312838 
L 479.465612 58.476664 
L 479.923026 58.906387 
L 480.380441 58.992332 
L 480.837856 59.508 
L 481.29527 59.336111 
L 481.752685 60.023668 
L 482.210099 57.789107 
L 482.667514 60.109613 
L 483.124928 60.883115 
L 483.582343 58.562609 
L 484.039757 59.765834 
L 484.497172 59.593945 
L 484.954586 59.078277 
L 485.412001 59.164221 
L 485.869416 59.508 
L 486.32683 60.711225 
L 486.784245 60.281502 
L 487.241659 60.453391 
L 487.699074 58.820443 
L 488.156488 59.851779 
L 488.613903 60.023668 
L 489.071317 58.734498 
L 489.986146 61.312838 
L 490.443561 59.593945 
L 490.900975 59.851779 
L 491.35839 62.430119 
L 491.815805 59.508 
L 492.273219 59.250166 
L 492.730634 59.164221 
L 493.188048 59.765834 
L 493.645463 59.164221 
L 494.102877 58.046941 
L 494.560292 59.851779 
L 495.017706 59.164221 
L 495.475121 58.820443 
L 495.932535 59.765834 
L 496.38995 60.969059 
L 496.847365 60.023668 
L 497.304779 59.593945 
L 497.762194 59.422055 
L 498.219608 60.109613 
L 498.677023 56.242103 
L 499.134437 60.969059 
L 499.591852 59.078277 
L 500.049266 58.906387 
L 500.506681 60.367447 
L 500.964095 56.585881 
L 501.42151 58.304775 
L 501.878925 60.539336 
L 502.336339 58.21883 
L 502.793754 60.367447 
L 503.251168 60.453391 
L 503.708583 59.250166 
L 504.165997 60.79717 
L 504.623412 60.023668 
L 505.080826 58.132885 
L 505.538241 61.055004 
L 505.995655 61.312838 
L 506.910484 59.078277 
L 507.367899 59.679889 
L 507.825314 59.164221 
L 508.282728 61.055004 
L 508.740143 59.422055 
L 509.197557 60.281502 
L 509.654972 60.453391 
L 510.112386 59.422055 
L 511.027215 61.484727 
L 511.48463 58.906387 
L 511.942044 58.648553 
L 512.399459 60.539336 
L 513.314288 59.422055 
L 513.771703 58.992332 
L 514.686532 57.617217 
L 515.143946 60.539336 
L 515.601361 60.969059 
L 516.058775 58.820443 
L 516.51619 58.648553 
L 516.973604 58.648553 
L 517.431019 59.422055 
L 517.888433 58.992332 
L 518.803263 58.390719 
L 519.260677 58.648553 
L 519.718092 60.79717 
L 520.175506 61.398783 
L 521.54775 58.046941 
L 522.005164 58.820443 
L 522.919993 58.562609 
L 523.377408 60.969059 
L 523.834823 59.422055 
L 524.292237 60.281502 
L 524.749652 57.531273 
L 525.207066 58.562609 
L 525.664481 58.476664 
L 526.121895 57.703162 
L 526.57931 57.445328 
L 527.036724 60.281502 
L 527.494139 59.078277 
L 527.951553 58.476664 
L 528.408968 59.593945 
L 528.866382 58.390719 
L 529.323797 59.078277 
L 529.781212 58.906387 
L 530.238626 59.937723 
L 530.696041 57.445328 
L 531.153455 57.960996 
L 531.61087 59.336111 
L 532.068284 57.960996 
L 532.525699 59.679889 
L 532.983113 57.703162 
L 533.440528 58.562609 
L 533.897942 58.304775 
L 535.270186 59.078277 
L 535.727601 59.679889 
L 536.185015 57.875051 
L 536.64243 57.875051 
L 537.099844 59.508 
L 537.557259 58.132885 
L 538.014673 57.703162 
L 538.472088 60.109613 
L 538.929502 60.539336 
L 539.386917 59.851779 
L 539.844332 59.422055 
L 540.301746 59.508 
L 540.759161 58.21883 
L 541.216575 59.164221 
L 541.67399 58.562609 
L 542.131404 58.820443 
L 542.588819 57.617217 
L 543.046233 59.078277 
L 543.503648 59.250166 
L 543.961062 60.79717 
L 544.418477 57.960996 
L 544.875891 58.132885 
L 545.333306 58.820443 
L 545.790721 57.617217 
L 546.248135 57.445328 
L 546.70555 60.023668 
L 547.162964 58.820443 
L 547.620379 59.851779 
L 548.077793 57.445328 
L 548.535208 59.078277 
L 548.992622 59.765834 
L 549.450037 57.703162 
L 549.907451 60.367447 
L 550.364866 59.765834 
L 550.822281 57.703162 
L 551.279695 59.851779 
L 551.73711 58.820443 
L 552.194524 58.734498 
L 552.651939 57.960996 
L 553.109353 58.648553 
L 553.566768 58.390719 
L 554.024182 58.648553 
L 554.481597 60.539336 
L 554.939011 56.92966 
L 555.396426 59.422055 
L 556.311255 58.992332 
L 556.76867 58.648553 
L 557.683499 58.734498 
L 558.140913 58.648553 
L 558.598328 57.960996 
L 559.055742 58.648553 
L 559.513157 58.820443 
L 560.427986 56.92966 
L 560.8854 56.92966 
L 561.342815 59.937723 
L 561.80023 58.476664 
L 562.257644 58.648553 
L 562.715059 58.132885 
L 563.172473 56.843715 
L 563.629888 57.187494 
L 564.087302 56.92966 
L 564.544717 57.703162 
L 565.459546 58.562609 
L 565.91696 56.499937 
L 566.374375 58.132885 
L 566.831789 57.617217 
L 567.289204 59.250166 
L 567.746619 58.734498 
L 568.204033 57.875051 
L 568.661448 58.132885 
L 569.118862 57.960996 
L 569.576277 57.617217 
L 570.033691 58.132885 
L 570.491106 59.078277 
L 570.94852 58.476664 
L 571.405935 59.250166 
L 571.863349 57.101549 
L 572.320764 57.960996 
L 572.778179 57.359383 
L 573.235593 57.703162 
L 573.693008 58.304775 
L 574.150422 57.875051 
L 574.607837 57.187494 
L 575.065251 58.304775 
L 575.522666 57.960996 
L 575.98008 58.304775 
L 576.437495 57.789107 
L 576.894909 58.390719 
L 577.352324 57.703162 
L 577.809739 56.585881 
L 578.267153 60.109613 
L 578.724568 57.015605 
L 579.181982 58.734498 
L 579.639397 58.132885 
L 580.096811 58.21883 
L 580.554226 57.960996 
L 581.01164 57.359383 
L 581.469055 57.531273 
L 581.926469 58.304775 
L 582.383884 58.648553 
L 582.841298 57.617217 
L 583.298713 59.765834 
L 583.756128 59.508 
L 584.213542 58.734498 
L 584.670957 58.304775 
L 585.128371 59.508 
L 585.585786 57.359383 
L 586.500615 57.617217 
L 586.958029 57.617217 
L 587.415444 57.875051 
L 587.872858 57.960996 
L 588.330273 58.648553 
L 588.787688 57.101549 
L 589.245102 58.21883 
L 589.702517 57.531273 
L 590.159931 56.585881 
L 590.617346 59.250166 
L 591.07476 56.585881 
L 591.989589 57.101549 
L 592.447004 56.757771 
L 592.904418 57.617217 
L 593.361833 57.273439 
L 593.819247 56.070213 
L 594.734077 57.875051 
L 595.191491 57.960996 
L 595.648906 58.992332 
L 596.10632 58.390719 
L 596.563735 56.328047 
L 597.021149 56.499937 
L 597.478564 58.734498 
L 597.935978 58.820443 
L 598.850807 56.843715 
L 599.308222 58.992332 
L 599.765637 56.585881 
L 600.223051 57.703162 
L 600.680466 58.21883 
L 601.13788 56.585881 
L 601.595295 55.554545 
L 602.052709 58.648553 
L 602.510124 56.92966 
L 602.967538 57.273439 
L 603.424953 56.671826 
L 603.882367 57.960996 
L 604.339782 58.820443 
L 604.797196 57.617217 
L 605.712026 58.046941 
L 606.16944 55.554545 
L 606.626855 57.445328 
L 607.084269 58.390719 
L 607.541684 57.359383 
L 607.999098 56.671826 
L 608.456513 57.359383 
L 608.913927 59.164221 
L 609.371342 57.187494 
L 609.828756 58.132885 
L 610.743586 58.476664 
L 611.201 56.242103 
L 611.658415 58.390719 
L 612.115829 57.875051 
L 612.573244 58.046941 
L 613.030658 56.499937 
L 613.488073 56.328047 
L 613.945487 58.820443 
L 614.402902 56.070213 
L 614.860316 58.734498 
L 615.317731 59.679889 
L 615.775146 56.671826 
L 616.23256 58.046941 
L 616.689975 58.390719 
L 617.147389 58.476664 
L 617.604804 55.812379 
L 618.062218 56.499937 
L 618.519633 56.499937 
L 618.977047 57.359383 
L 619.434462 57.187494 
L 619.891876 58.304775 
L 620.349291 57.101549 
L 620.806705 58.132885 
L 621.26412 55.898324 
L 621.721535 57.703162 
L 622.178949 58.476664 
L 622.636364 58.562609 
L 622.636364 58.562609 
" style="fill:none;stroke:#1f77b4;stroke-linecap:square;stroke-width:0.5;"/>
   </g>
   <g id="line2d_30">
    <path clip-path="url(#pc56dade63e)" d="M 115.363636 302.645455 
L 115.821051 298.176332 
L 116.278465 297.832553 
L 116.73588 292.074261 
L 117.193295 290.95698 
L 117.650709 295.512047 
L 118.108124 288.034862 
L 118.565538 286.315968 
L 119.022953 285.370577 
L 119.480367 283.995462 
L 119.937782 280.299842 
L 120.395196 281.073344 
L 121.76744 270.330261 
L 122.224854 268.439478 
L 122.682269 263.626577 
L 123.139684 260.704458 
L 123.597098 261.993628 
L 124.054513 258.555842 
L 124.511927 251.852158 
L 124.969342 248.586261 
L 125.426756 242.398245 
L 125.884171 238.186957 
L 126.341585 240.937186 
L 127.713829 228.131431 
L 128.171244 220.224522 
L 128.628658 217.560237 
L 129.086073 215.58351 
L 129.543487 217.044569 
L 130.000902 215.411621 
L 130.458316 206.473375 
L 131.373145 201.144806 
L 131.83056 195.300569 
L 132.287974 198.394577 
L 132.745389 190.401723 
L 133.202804 187.565549 
L 133.660218 182.494814 
L 134.117633 180.518087 
L 134.575047 174.759794 
L 135.032462 173.900348 
L 135.489876 172.09551 
L 135.947291 166.251273 
L 136.404705 165.735605 
L 136.86212 158.08653 
L 137.319534 162.383763 
L 138.234363 148.031004 
L 138.691778 152.156348 
L 139.149193 146.655889 
L 139.606607 148.804506 
L 140.064022 142.61649 
L 140.521436 142.788379 
L 140.978851 143.733771 
L 141.436265 137.287921 
L 141.89368 137.975478 
L 142.351094 135.654972 
L 142.808509 135.912806 
L 143.265923 131.271794 
L 143.723338 136.858198 
L 144.180753 129.638846 
L 144.638167 128.177787 
L 145.095582 127.919953 
L 146.010411 125.083779 
L 146.92524 126.974561 
L 148.297483 119.669265 
L 148.754898 120.270877 
L 149.212312 116.317423 
L 149.669727 114.168806 
L 150.127142 119.067652 
L 150.584556 117.348759 
L 151.041971 114.512585 
L 151.499385 119.411431 
L 151.9568 112.363968 
L 152.871629 115.8877 
L 153.329043 109.527794 
L 153.786458 110.73102 
L 154.243872 113.30936 
L 154.701287 112.879636 
L 155.158702 106.347842 
L 155.616116 111.332632 
L 156.073531 108.840237 
L 156.98836 101.534941 
L 157.445774 104.113281 
L 157.903189 102.308443 
L 158.360603 103.941391 
L 158.818018 101.70683 
L 159.275432 102.824111 
L 159.732847 102.480332 
L 160.190261 100.41766 
L 160.647676 105.058672 
L 161.105091 101.363051 
L 161.562505 99.987937 
L 162.01992 97.409597 
L 162.477334 95.862593 
L 162.934749 97.925265 
L 163.392163 94.1437 
L 163.849578 95.948538 
L 164.306992 95.175036 
L 164.764407 95.518814 
L 165.221821 94.487478 
L 165.679236 94.1437 
L 166.136651 94.315589 
L 166.594065 92.424806 
L 167.05148 90.018356 
L 167.508894 92.510751 
L 167.966309 92.768585 
L 168.423723 97.065818 
L 168.881138 92.510751 
L 169.338552 86.322735 
L 169.795967 91.56536 
L 170.253381 92.940474 
L 170.710796 91.479415 
L 171.168211 91.995083 
L 171.625625 90.791858 
L 172.08304 92.252917 
L 172.540454 90.190245 
L 172.997869 91.135636 
L 173.455283 92.596696 
L 174.370112 87.783794 
L 175.284941 89.330798 
L 175.742356 91.307526 
L 176.19977 87.783794 
L 176.657185 89.674577 
L 177.1146 87.611905 
L 177.572014 88.901075 
L 178.029429 84.002229 
L 178.486843 87.69785 
L 178.944258 86.666514 
L 179.401672 86.150846 
L 179.859087 86.752458 
L 180.316501 87.869739 
L 180.773916 85.11951 
L 181.23133 85.807067 
L 181.688745 84.431953 
L 182.603574 83.056838 
L 183.060989 83.658451 
L 183.518403 80.564443 
L 183.975818 83.486561 
L 184.433232 79.189328 
L 185.348061 84.346008 
L 185.805476 84.775731 
L 186.720305 80.306609 
L 187.177719 82.197391 
L 187.635134 82.713059 
L 188.092549 81.337945 
L 188.549963 81.681723 
L 189.007378 82.369281 
L 189.464792 83.314672 
L 189.922207 81.939557 
L 190.379621 82.713059 
L 190.837036 83.744395 
L 191.29445 81.767668 
L 191.751865 82.283336 
L 192.209279 80.392553 
L 192.666694 83.916285 
L 193.124109 81.681723 
L 193.581523 81.080111 
L 194.038938 84.346008 
L 194.953767 79.704996 
L 195.411181 82.283336 
L 195.868596 80.048775 
L 196.32601 79.447162 
L 196.783425 80.392553 
L 197.240839 76.782877 
L 197.698254 79.876885 
L 198.155668 80.564443 
L 198.613083 78.759605 
L 199.070498 81.595779 
L 199.527912 78.072047 
L 199.985327 79.361217 
L 200.442741 79.790941 
L 200.900156 77.040711 
L 201.35757 78.67366 
L 201.814985 79.533107 
L 202.272399 78.67366 
L 202.729814 77.126656 
L 203.187228 77.642324 
L 203.644643 77.556379 
L 204.559472 78.845549 
L 205.016887 75.837486 
L 205.474301 77.298545 
L 205.931716 78.072047 
L 206.38913 76.696933 
L 206.846545 77.642324 
L 207.303959 79.447162 
L 208.218788 76.868822 
L 208.676203 77.040711 
L 209.133618 78.072047 
L 209.591032 75.923431 
L 210.048447 77.986103 
L 210.505861 76.610988 
L 210.963276 76.09532 
L 211.42069 76.439099 
L 211.878105 78.072047 
L 212.335519 76.696933 
L 212.792934 77.986103 
L 213.250348 74.376427 
L 213.707763 76.696933 
L 214.165177 75.665597 
L 214.622592 75.751542 
L 215.080007 75.579652 
L 215.537421 74.204538 
L 215.994836 76.868822 
L 216.45225 75.149929 
L 217.367079 78.501771 
L 217.824494 76.868822 
L 218.281908 74.720206 
L 218.739323 76.181265 
L 219.196737 76.353154 
L 219.654152 77.642324 
L 220.111567 75.407763 
L 220.568981 74.720206 
L 221.026396 73.774814 
L 221.48381 76.782877 
L 221.941225 76.267209 
L 222.398639 77.642324 
L 222.856054 73.860759 
L 223.313468 75.751542 
L 223.770883 73.774814 
L 224.228297 75.321818 
L 224.685712 70.422972 
L 225.143126 76.009375 
L 225.600541 76.610988 
L 226.057956 74.290482 
L 226.51537 75.235874 
L 226.972785 75.923431 
L 227.430199 74.290482 
L 227.887614 75.751542 
L 228.345028 74.97804 
L 228.802443 74.548316 
L 229.259857 72.141866 
L 229.717272 73.774814 
L 230.174686 73.860759 
L 230.632101 73.602925 
L 231.089516 74.032648 
L 231.54693 72.829423 
L 232.004345 74.892095 
L 232.461759 70.93864 
L 232.919174 74.720206 
L 233.376588 73.431036 
L 233.834003 71.798087 
L 234.291417 72.313755 
L 234.748832 71.969976 
L 235.206246 74.118593 
L 236.121075 72.141866 
L 237.035905 74.204538 
L 237.493319 73.51698 
L 237.950734 75.235874 
L 238.865563 70.422972 
L 239.322977 73.431036 
L 239.780392 73.774814 
L 240.237806 73.602925 
L 240.695221 74.97804 
L 241.152635 72.313755 
L 241.61005 71.969976 
L 242.524879 73.946704 
L 242.982294 71.798087 
L 243.439708 72.657534 
L 243.897123 72.22781 
L 244.354537 74.204538 
L 244.811952 73.602925 
L 245.269366 71.11053 
L 246.184195 73.087257 
L 246.64161 72.657534 
L 247.099025 72.055921 
L 247.556439 74.290482 
L 248.013854 71.196474 
L 248.471268 69.82136 
L 248.928683 72.915368 
L 249.386097 72.915368 
L 249.843512 71.368364 
L 250.300926 71.798087 
L 250.758341 70.337028 
L 251.215755 72.571589 
L 251.67317 71.368364 
L 252.130584 72.055921 
L 252.587999 69.82136 
L 253.502828 71.969976 
L 253.960243 71.712142 
L 254.417657 71.024585 
L 254.875072 71.368364 
L 255.789901 74.032648 
L 256.247315 70.93864 
L 256.70473 73.68887 
L 257.162144 69.82136 
L 257.619559 70.508917 
L 258.076974 71.884032 
L 258.534388 71.024585 
L 258.991803 72.3997 
L 259.906632 71.11053 
L 260.364046 71.282419 
L 260.821461 69.907304 
L 261.278875 70.508917 
L 261.73629 69.047858 
L 262.193704 70.079194 
L 262.651119 69.82136 
L 263.108533 70.508917 
L 263.565948 70.508917 
L 264.023363 69.305692 
L 264.480777 70.165138 
L 264.938192 71.712142 
L 265.395606 69.219747 
L 265.853021 69.907304 
L 266.310435 71.798087 
L 266.76785 72.22781 
L 267.225264 70.422972 
L 267.682679 73.774814 
L 268.140093 70.165138 
L 268.597508 68.875968 
L 269.054923 68.618134 
L 269.512337 68.188411 
L 269.969752 72.485644 
L 270.427166 70.337028 
L 270.884581 70.079194 
L 271.341995 71.11053 
L 271.79941 71.454308 
L 272.256824 70.251083 
L 272.714239 70.337028 
L 273.171653 69.993249 
L 273.629068 70.337028 
L 274.086482 70.422972 
L 274.543897 71.540253 
L 275.001312 71.282419 
L 275.458726 70.337028 
L 275.916141 70.852696 
L 276.373555 71.626198 
L 276.83097 70.251083 
L 277.288384 69.82136 
L 277.745799 68.53219 
L 278.660628 70.93864 
L 279.118042 67.844632 
L 280.032872 69.993249 
L 280.490286 69.993249 
L 280.947701 70.422972 
L 281.405115 70.594862 
L 281.86253 71.798087 
L 282.319944 71.024585 
L 283.234773 67.07113 
L 283.692188 71.11053 
L 284.149602 67.672743 
L 284.607017 67.07113 
L 285.064432 67.844632 
L 285.521846 69.563526 
L 285.979261 69.735415 
L 286.436675 69.305692 
L 286.89409 67.07113 
L 287.351504 69.477581 
L 288.266333 67.586798 
L 288.723748 68.3603 
L 289.181162 69.563526 
L 289.638577 68.102466 
L 290.095991 68.961913 
L 291.010821 67.328964 
L 291.468235 68.618134 
L 291.92565 67.24302 
L 292.383064 69.133802 
L 292.840479 68.102466 
L 293.297893 68.790024 
L 293.755308 68.3603 
L 294.212722 68.446245 
L 295.127551 67.500854 
L 295.584966 69.82136 
L 296.499795 66.469518 
L 296.95721 68.274356 
L 297.414624 67.844632 
L 297.872039 70.422972 
L 298.329453 66.555462 
L 298.786868 70.079194 
L 299.244282 69.219747 
L 299.701697 66.985186 
L 300.159111 70.680806 
L 300.616526 69.907304 
L 301.07394 68.274356 
L 301.531355 69.82136 
L 301.98877 66.727352 
L 302.446184 67.414909 
L 302.903599 66.125739 
L 303.361013 68.961913 
L 303.818428 68.875968 
L 304.275842 69.477581 
L 304.733257 65.266292 
L 305.190671 69.563526 
L 305.648086 66.813296 
L 306.1055 68.790024 
L 307.02033 67.844632 
L 307.477744 68.704079 
L 307.935159 67.930577 
L 308.392573 68.016522 
L 308.849988 65.008458 
L 309.307402 67.758688 
L 309.764817 68.3603 
L 310.222231 70.165138 
L 310.679646 66.383573 
L 311.13706 67.844632 
L 311.594475 68.274356 
L 312.051889 68.53219 
L 312.509304 65.266292 
L 312.966719 66.125739 
L 313.881548 69.305692 
L 314.338962 69.219747 
L 314.796377 64.66468 
L 315.253791 67.157075 
L 315.711206 68.274356 
L 316.16862 66.555462 
L 316.626035 68.446245 
L 317.083449 68.274356 
L 317.540864 70.079194 
L 317.998279 69.047858 
L 318.455693 69.391636 
L 318.913108 68.188411 
L 319.370522 68.53219 
L 319.827937 67.758688 
L 320.285351 67.414909 
L 320.742766 65.867905 
L 321.20018 67.844632 
L 322.115009 67.758688 
L 322.572424 66.641407 
L 323.029839 66.813296 
L 323.487253 67.758688 
L 323.944668 65.78196 
L 324.402082 66.297628 
L 324.859497 66.125739 
L 325.316911 68.3603 
L 325.774326 66.813296 
L 326.23174 65.867905 
L 326.689155 68.188411 
L 327.146569 69.305692 
L 327.603984 66.813296 
L 328.061398 66.985186 
L 328.518813 66.469518 
L 328.976228 67.157075 
L 329.433642 67.414909 
L 329.891057 67.157075 
L 330.348471 68.016522 
L 330.805886 67.328964 
L 331.2633 66.985186 
L 331.720715 66.985186 
L 332.178129 69.219747 
L 332.635544 66.555462 
L 333.092958 68.188411 
L 333.550373 69.047858 
L 334.007788 69.219747 
L 334.465202 69.047858 
L 334.922617 67.758688 
L 335.380031 68.188411 
L 335.837446 67.586798 
L 336.29486 65.610071 
L 336.752275 64.406846 
L 337.209689 66.899241 
L 337.667104 66.297628 
L 338.124518 66.039794 
L 338.581933 67.844632 
L 339.039347 70.508917 
L 339.496762 68.704079 
L 339.954177 65.867905 
L 340.411591 68.446245 
L 340.869006 67.328964 
L 341.32642 65.266292 
L 341.783835 66.985186 
L 342.241249 65.78196 
L 342.698664 68.790024 
L 343.156078 63.461455 
L 343.613493 66.727352 
L 344.070907 66.813296 
L 344.528322 65.78196 
L 344.985737 68.875968 
L 345.443151 67.24302 
L 345.900566 67.844632 
L 346.35798 67.157075 
L 346.815395 67.844632 
L 347.272809 67.586798 
L 347.730224 63.719289 
L 348.187638 67.672743 
L 348.645053 66.211684 
L 349.102467 66.641407 
L 349.559882 67.586798 
L 350.017296 65.180348 
L 350.474711 65.696016 
L 350.932126 65.95385 
L 351.846955 68.875968 
L 352.304369 68.016522 
L 352.761784 66.211684 
L 353.219198 65.524126 
L 353.676613 66.985186 
L 354.134027 66.727352 
L 354.591442 67.157075 
L 355.048856 66.469518 
L 355.506271 67.24302 
L 355.963686 65.094403 
L 356.878515 66.641407 
L 357.335929 65.95385 
L 357.793344 65.008458 
L 358.250758 68.102466 
L 358.708173 65.610071 
L 359.165587 68.188411 
L 359.623002 66.985186 
L 360.080416 64.149012 
L 360.537831 67.157075 
L 360.995246 65.094403 
L 361.45266 66.039794 
L 362.367489 66.641407 
L 362.824904 67.328964 
L 363.739733 64.922514 
L 364.654562 69.391636 
L 365.111976 63.977123 
L 366.026805 66.727352 
L 366.48422 65.352237 
L 366.941635 66.383573 
L 367.856464 64.406846 
L 368.313878 66.125739 
L 368.771293 65.352237 
L 369.228707 65.352237 
L 369.686122 66.383573 
L 370.143536 65.438182 
L 370.600951 65.438182 
L 371.058365 67.758688 
L 371.51578 65.524126 
L 371.973195 65.524126 
L 372.430609 65.180348 
L 372.888024 66.469518 
L 373.345438 67.07113 
L 373.802853 65.266292 
L 374.260267 65.78196 
L 374.717682 64.66468 
L 375.632511 67.07113 
L 376.089925 65.094403 
L 376.54734 66.555462 
L 377.004754 64.406846 
L 377.462169 64.149012 
L 377.919584 65.094403 
L 378.376998 65.094403 
L 378.834413 64.66468 
L 379.291827 66.039794 
L 379.749242 65.610071 
L 380.206656 65.008458 
L 381.121485 66.641407 
L 381.5789 66.297628 
L 382.036314 67.414909 
L 382.493729 65.524126 
L 382.951144 65.438182 
L 383.408558 66.813296 
L 383.865973 65.094403 
L 384.323387 65.352237 
L 384.780802 66.469518 
L 385.695631 66.039794 
L 386.153045 65.78196 
L 386.61046 65.352237 
L 387.067874 66.297628 
L 387.525289 66.383573 
L 387.982704 64.406846 
L 388.440118 65.266292 
L 388.897533 65.438182 
L 389.354947 63.977123 
L 389.812362 64.66468 
L 390.269776 64.922514 
L 390.727191 64.320901 
L 391.184605 65.78196 
L 391.64202 66.211684 
L 392.099434 67.328964 
L 392.556849 66.297628 
L 393.014263 67.24302 
L 393.471678 66.469518 
L 393.929093 68.102466 
L 394.386507 66.383573 
L 394.843922 62.172285 
L 395.301336 65.352237 
L 395.758751 64.406846 
L 396.216165 64.836569 
L 396.67358 64.922514 
L 397.130994 62.859842 
L 397.588409 65.610071 
L 398.045823 66.125739 
L 398.503238 62.859842 
L 398.960653 67.07113 
L 399.418067 65.524126 
L 399.875482 67.157075 
L 400.332896 66.641407 
L 400.790311 64.578735 
L 401.247725 65.094403 
L 401.70514 64.66468 
L 402.162554 65.867905 
L 402.619969 66.727352 
L 403.077383 68.961913 
L 403.534798 64.66468 
L 404.907042 64.234957 
L 405.821871 67.24302 
L 406.279285 64.406846 
L 406.7367 64.578735 
L 407.194114 65.610071 
L 407.651529 67.24302 
L 408.108943 64.66468 
L 408.566358 63.719289 
L 409.023772 65.78196 
L 409.481187 64.750625 
L 409.938602 65.867905 
L 410.396016 66.211684 
L 411.310845 64.149012 
L 411.76826 66.383573 
L 412.225674 65.266292 
L 412.683089 64.922514 
L 413.140503 66.211684 
L 413.597918 64.492791 
L 414.055332 67.672743 
L 414.512747 62.773897 
L 414.970161 64.836569 
L 415.427576 66.297628 
L 415.884991 63.37551 
L 416.342405 63.719289 
L 416.79982 66.383573 
L 417.257234 64.320901 
L 417.714649 66.125739 
L 418.172063 65.78196 
L 418.629478 62.687953 
L 419.086892 63.461455 
L 419.544307 65.867905 
L 420.001721 63.805233 
L 420.459136 64.66468 
L 420.916551 65.094403 
L 421.373965 66.039794 
L 422.288794 63.547399 
L 422.746209 63.891178 
L 423.203623 63.977123 
L 423.661038 63.633344 
L 424.118452 66.727352 
L 424.575867 62.602008 
L 425.033281 65.610071 
L 425.490696 65.696016 
L 425.948111 63.547399 
L 426.405525 65.610071 
L 426.86294 63.977123 
L 427.320354 65.008458 
L 427.777769 67.930577 
L 428.235183 66.297628 
L 428.692598 66.297628 
L 429.150012 66.727352 
L 429.607427 64.320901 
L 430.522256 67.07113 
L 430.97967 65.696016 
L 431.437085 66.813296 
L 431.8945 63.805233 
L 432.351914 64.406846 
L 432.809329 65.95385 
L 433.266743 64.66468 
L 433.724158 63.977123 
L 434.181572 62.602008 
L 434.638987 64.922514 
L 435.096401 65.524126 
L 435.553816 64.406846 
L 436.01123 65.438182 
L 436.468645 65.696016 
L 436.92606 65.266292 
L 437.383474 63.461455 
L 438.755718 65.696016 
L 439.213132 64.836569 
L 439.670547 66.899241 
L 440.127961 65.867905 
L 440.585376 63.633344 
L 441.04279 63.37551 
L 441.500205 64.922514 
L 441.957619 64.922514 
L 442.415034 66.125739 
L 442.872449 63.547399 
L 443.329863 63.977123 
L 443.787278 66.555462 
L 444.244692 66.125739 
L 444.702107 65.95385 
L 445.159521 67.500854 
L 445.616936 66.211684 
L 446.07435 64.406846 
L 446.531765 65.610071 
L 446.989179 63.117676 
L 447.446594 64.66468 
L 447.904009 65.696016 
L 448.361423 64.063067 
L 448.818838 64.063067 
L 449.276252 64.836569 
L 449.733667 64.406846 
L 450.648496 63.031731 
L 451.10591 63.461455 
L 451.563325 63.461455 
L 452.020739 65.266292 
L 452.478154 63.719289 
L 452.935568 64.836569 
L 453.392983 62.687953 
L 454.307812 63.719289 
L 454.765227 64.922514 
L 455.222641 63.633344 
L 455.680056 64.492791 
L 456.13747 64.922514 
L 456.594885 63.289565 
L 457.052299 63.977123 
L 457.509714 65.094403 
L 457.967128 63.37551 
L 458.424543 63.37551 
L 458.881958 64.66468 
L 459.339372 64.149012 
L 459.796787 64.320901 
L 460.254201 63.547399 
L 460.711616 63.289565 
L 461.16903 64.149012 
L 461.626445 63.719289 
L 462.083859 63.031731 
L 462.998688 64.406846 
L 463.456103 64.836569 
L 463.913518 65.78196 
L 464.370932 64.063067 
L 464.828347 64.234957 
L 465.285761 63.547399 
L 465.743176 64.578735 
L 466.20059 66.211684 
L 466.658005 64.836569 
L 467.115419 64.149012 
L 468.030248 64.66468 
L 468.487663 63.547399 
L 468.945077 63.977123 
L 469.402492 63.37551 
L 470.317321 63.031731 
L 470.774736 64.149012 
L 471.23215 63.719289 
L 471.689565 63.547399 
L 472.146979 62.859842 
L 472.604394 65.610071 
L 473.061808 64.063067 
L 473.519223 63.289565 
L 473.976637 64.750625 
L 474.434052 63.891178 
L 474.891467 63.891178 
L 475.348881 64.492791 
L 475.806296 66.469518 
L 476.721125 63.117676 
L 477.178539 63.977123 
L 477.635954 62.687953 
L 478.550783 65.696016 
L 479.008197 62.687953 
L 479.923026 64.750625 
L 480.380441 62.859842 
L 481.29527 64.320901 
L 481.752685 63.117676 
L 482.210099 64.750625 
L 482.667514 62.344174 
L 483.124928 65.008458 
L 483.582343 62.172285 
L 484.039757 64.149012 
L 484.497172 65.008458 
L 484.954586 63.633344 
L 485.869416 63.891178 
L 486.32683 61.312838 
L 486.784245 63.633344 
L 487.699074 64.234957 
L 488.156488 64.578735 
L 488.613903 64.406846 
L 489.071317 61.656617 
L 489.528732 63.117676 
L 489.986146 63.547399 
L 490.443561 65.094403 
L 490.900975 63.37551 
L 491.35839 66.899241 
L 491.815805 65.696016 
L 492.730634 62.602008 
L 493.188048 63.031731 
L 493.645463 63.031731 
L 494.102877 65.352237 
L 494.560292 62.258229 
L 495.475121 67.586798 
L 495.932535 63.461455 
L 496.38995 65.094403 
L 497.304779 62.430119 
L 497.762194 63.891178 
L 498.219608 63.805233 
L 498.677023 62.516063 
L 499.134437 62.945787 
L 499.591852 62.602008 
L 500.506681 64.149012 
L 500.964095 63.719289 
L 501.42151 63.977123 
L 501.878925 65.438182 
L 502.336339 63.37551 
L 502.793754 62.773897 
L 503.251168 64.149012 
L 503.708583 61.742561 
L 504.623412 66.641407 
L 505.080826 64.750625 
L 505.538241 66.211684 
L 505.995655 64.578735 
L 506.45307 62.000395 
L 507.367899 65.094403 
L 508.282728 61.656617 
L 508.740143 65.008458 
L 509.197557 63.117676 
L 509.654972 62.687953 
L 510.112386 62.945787 
L 510.569801 64.66468 
L 511.027215 64.406846 
L 511.48463 65.180348 
L 511.942044 63.633344 
L 512.399459 63.633344 
L 512.856874 64.836569 
L 513.314288 64.149012 
L 513.771703 64.922514 
L 514.229117 64.320901 
L 514.686532 64.578735 
L 515.143946 64.234957 
L 515.601361 66.727352 
L 516.058775 63.547399 
L 516.51619 63.461455 
L 516.973604 65.867905 
L 517.431019 64.406846 
L 517.888433 64.578735 
L 518.345848 62.687953 
L 518.803263 64.578735 
L 519.260677 62.945787 
L 519.718092 64.578735 
L 520.175506 65.008458 
L 520.632921 63.891178 
L 521.090335 65.180348 
L 521.54775 65.696016 
L 522.462579 61.742561 
L 522.919993 64.922514 
L 523.377408 63.633344 
L 523.834823 61.226893 
L 524.292237 64.66468 
L 524.749652 64.320901 
L 525.207066 63.289565 
L 525.664481 64.406846 
L 526.121895 63.289565 
L 526.57931 63.805233 
L 527.494139 63.117676 
L 527.951553 63.37551 
L 528.408968 62.945787 
L 528.866382 62.859842 
L 529.323797 64.66468 
L 529.781212 64.578735 
L 530.238626 62.687953 
L 530.696041 64.406846 
L 531.153455 64.149012 
L 531.61087 61.656617 
L 532.068284 62.945787 
L 532.525699 63.719289 
L 532.983113 63.547399 
L 533.440528 65.094403 
L 533.897942 64.66468 
L 534.355357 64.836569 
L 534.812772 63.37551 
L 535.270186 64.234957 
L 535.727601 63.633344 
L 536.185015 62.08634 
L 536.64243 64.836569 
L 537.099844 62.773897 
L 537.557259 63.805233 
L 538.014673 62.773897 
L 538.472088 63.977123 
L 538.929502 63.805233 
L 539.386917 66.727352 
L 539.844332 65.180348 
L 540.301746 65.094403 
L 540.759161 65.524126 
L 541.216575 62.945787 
L 542.131404 65.78196 
L 542.588819 64.578735 
L 543.046233 62.773897 
L 543.503648 64.234957 
L 543.961062 62.602008 
L 544.418477 62.344174 
L 544.875891 61.226893 
L 545.333306 63.289565 
L 545.790721 62.258229 
L 546.248135 63.719289 
L 546.70555 63.37551 
L 547.162964 63.289565 
L 547.620379 64.406846 
L 548.077793 61.656617 
L 548.535208 63.37551 
L 548.992622 63.977123 
L 549.450037 64.063067 
L 549.907451 62.000395 
L 550.364866 64.063067 
L 550.822281 64.836569 
L 551.279695 64.406846 
L 551.73711 62.859842 
L 552.194524 64.578735 
L 552.651939 64.492791 
L 553.109353 62.859842 
L 553.566768 62.602008 
L 554.024182 66.039794 
L 554.481597 64.492791 
L 554.939011 63.891178 
L 555.396426 62.258229 
L 555.85384 61.914451 
L 556.311255 62.945787 
L 556.76867 62.172285 
L 557.226084 65.008458 
L 557.683499 63.117676 
L 558.140913 62.773897 
L 558.598328 64.149012 
L 559.055742 64.063067 
L 559.513157 62.516063 
L 559.970571 63.37551 
L 560.8854 64.406846 
L 561.342815 62.859842 
L 561.80023 65.352237 
L 562.257644 64.063067 
L 562.715059 65.438182 
L 563.172473 62.344174 
L 563.629888 64.492791 
L 564.087302 62.687953 
L 564.544717 62.000395 
L 565.002131 64.320901 
L 565.459546 62.945787 
L 565.91696 63.977123 
L 566.374375 63.289565 
L 566.831789 63.719289 
L 567.289204 65.094403 
L 567.746619 65.094403 
L 568.204033 63.547399 
L 568.661448 65.094403 
L 569.118862 64.234957 
L 569.576277 64.922514 
L 570.033691 63.203621 
L 570.491106 62.773897 
L 570.94852 63.977123 
L 571.405935 63.289565 
L 571.863349 64.750625 
L 572.320764 62.859842 
L 572.778179 62.687953 
L 573.235593 64.578735 
L 573.693008 62.516063 
L 574.150422 62.344174 
L 574.607837 64.063067 
L 575.065251 62.344174 
L 575.522666 62.344174 
L 575.98008 64.149012 
L 576.437495 64.578735 
L 576.894909 63.977123 
L 577.352324 65.524126 
L 577.809739 65.524126 
L 578.267153 63.461455 
L 578.724568 63.891178 
L 579.181982 63.719289 
L 579.639397 62.945787 
L 580.096811 63.977123 
L 580.554226 62.687953 
L 581.01164 64.149012 
L 581.926469 61.570672 
L 582.383884 62.344174 
L 582.841298 64.922514 
L 583.298713 63.805233 
L 583.756128 63.031731 
L 584.213542 64.578735 
L 584.670957 62.172285 
L 585.128371 63.289565 
L 585.585786 62.945787 
L 586.0432 63.37551 
L 586.500615 61.055004 
L 586.958029 63.977123 
L 587.415444 62.687953 
L 587.872858 63.203621 
L 588.330273 62.08634 
L 589.245102 63.117676 
L 590.159931 62.859842 
L 590.617346 62.172285 
L 591.07476 62.687953 
L 591.532175 64.836569 
L 591.989589 66.383573 
L 592.447004 61.570672 
L 592.904418 63.805233 
L 593.361833 62.344174 
L 593.819247 63.461455 
L 594.276662 63.37551 
L 594.734077 62.602008 
L 595.191491 62.773897 
L 595.648906 64.234957 
L 596.10632 62.258229 
L 597.021149 62.859842 
L 597.478564 64.063067 
L 597.935978 65.610071 
L 598.393393 61.914451 
L 598.850807 60.883115 
L 599.308222 62.344174 
L 599.765637 61.312838 
L 600.680466 64.578735 
L 601.595295 63.461455 
L 602.052709 63.289565 
L 602.510124 62.08634 
L 602.967538 62.945787 
L 603.424953 63.289565 
L 603.882367 62.258229 
L 604.339782 63.805233 
L 604.797196 63.891178 
L 605.254611 62.430119 
L 605.712026 62.859842 
L 606.16944 63.547399 
L 606.626855 63.461455 
L 607.084269 62.602008 
L 607.541684 64.406846 
L 607.999098 63.461455 
L 608.456513 63.203621 
L 608.913927 64.320901 
L 609.371342 64.406846 
L 609.828756 63.633344 
L 610.286171 64.063067 
L 611.658415 62.602008 
L 612.115829 62.172285 
L 612.573244 63.891178 
L 613.030658 63.461455 
L 613.488073 63.37551 
L 613.945487 64.578735 
L 614.402902 61.398783 
L 614.860316 62.516063 
L 615.317731 62.859842 
L 615.775146 65.867905 
L 616.23256 63.37551 
L 616.689975 62.945787 
L 617.147389 63.117676 
L 617.604804 62.859842 
L 618.062218 64.320901 
L 618.519633 62.08634 
L 619.434462 63.633344 
L 619.891876 62.08634 
L 620.349291 65.95385 
L 620.806705 62.172285 
L 621.26412 62.08634 
L 621.721535 64.063067 
L 622.178949 62.258229 
L 622.636364 63.461455 
L 622.636364 63.461455 
" style="fill:none;stroke:#ff7f0e;stroke-linecap:square;stroke-width:0.5;"/>
   </g>
   <g id="patch_3">
    <path d="M 90 315 
L 90 43.2 
" style="fill:none;stroke:#000000;stroke-linecap:square;stroke-linejoin:miter;stroke-width:0.8;"/>
   </g>
   <g id="patch_4">
    <path d="M 648 315 
L 648 43.2 
" style="fill:none;stroke:#000000;stroke-linecap:square;stroke-linejoin:miter;stroke-width:0.8;"/>
   </g>
   <g id="patch_5">
    <path d="M 90 315 
L 648 315 
" style="fill:none;stroke:#000000;stroke-linecap:square;stroke-linejoin:miter;stroke-width:0.8;"/>
   </g>
   <g id="patch_6">
    <path d="M 90 43.2 
L 648 43.2 
" style="fill:none;stroke:#000000;stroke-linecap:square;stroke-linejoin:miter;stroke-width:0.8;"/>
   </g>
   <g id="text_17">
    <!-- accuracy -->
    <g transform="translate(341.92875 37.2)scale(0.12 -0.12)">
     <use xlink:href="#DejaVuSans-97"/>
     <use x="61.279297" xlink:href="#DejaVuSans-99"/>
     <use x="116.259766" xlink:href="#DejaVuSans-99"/>
     <use x="171.240234" xlink:href="#DejaVuSans-117"/>
     <use x="234.619141" xlink:href="#DejaVuSans-114"/>
     <use x="275.732422" xlink:href="#DejaVuSans-97"/>
     <use x="337.011719" xlink:href="#DejaVuSans-99"/>
     <use x="391.992188" xlink:href="#DejaVuSans-121"/>
    </g>
   </g>
   <g id="legend_1">
    <g id="patch_7">
     <path d="M 97 80.55625 
L 169.153125 80.55625 
Q 171.153125 80.55625 171.153125 78.55625 
L 171.153125 50.2 
Q 171.153125 48.2 169.153125 48.2 
L 97 48.2 
Q 95 48.2 95 50.2 
L 95 78.55625 
Q 95 80.55625 97 80.55625 
z
" style="fill:#ffffff;opacity:0.8;stroke:#cccccc;stroke-linejoin:miter;"/>
    </g>
    <g id="line2d_31">
     <path d="M 99 56.298437 
L 119 56.298437 
" style="fill:none;stroke:#1f77b4;stroke-linecap:square;stroke-width:0.5;"/>
    </g>
    <g id="line2d_32"/>
    <g id="text_18">
     <!-- train -->
     <defs>
      <path d="M 18.3125 70.21875 
L 18.3125 54.6875 
L 36.8125 54.6875 
L 36.8125 47.703125 
L 18.3125 47.703125 
L 18.3125 18.015625 
Q 18.3125 11.328125 20.140625 9.421875 
Q 21.96875 7.515625 27.59375 7.515625 
L 36.8125 7.515625 
L 36.8125 0 
L 27.59375 0 
Q 17.1875 0 13.234375 3.875 
Q 9.28125 7.765625 9.28125 18.015625 
L 9.28125 47.703125 
L 2.6875 47.703125 
L 2.6875 54.6875 
L 9.28125 54.6875 
L 9.28125 70.21875 
z
" id="DejaVuSans-116"/>
      <path d="M 9.421875 54.6875 
L 18.40625 54.6875 
L 18.40625 0 
L 9.421875 0 
z
M 9.421875 75.984375 
L 18.40625 75.984375 
L 18.40625 64.59375 
L 9.421875 64.59375 
z
" id="DejaVuSans-105"/>
      <path d="M 54.890625 33.015625 
L 54.890625 0 
L 45.90625 0 
L 45.90625 32.71875 
Q 45.90625 40.484375 42.875 44.328125 
Q 39.84375 48.1875 33.796875 48.1875 
Q 26.515625 48.1875 22.3125 43.546875 
Q 18.109375 38.921875 18.109375 30.90625 
L 18.109375 0 
L 9.078125 0 
L 9.078125 54.6875 
L 18.109375 54.6875 
L 18.109375 46.1875 
Q 21.34375 51.125 25.703125 53.5625 
Q 30.078125 56 35.796875 56 
Q 45.21875 56 50.046875 50.171875 
Q 54.890625 44.34375 54.890625 33.015625 
z
" id="DejaVuSans-110"/>
     </defs>
     <g transform="translate(127 59.798437)scale(0.1 -0.1)">
      <use xlink:href="#DejaVuSans-116"/>
      <use x="39.208984" xlink:href="#DejaVuSans-114"/>
      <use x="80.322266" xlink:href="#DejaVuSans-97"/>
      <use x="141.601562" xlink:href="#DejaVuSans-105"/>
      <use x="169.384766" xlink:href="#DejaVuSans-110"/>
     </g>
    </g>
    <g id="line2d_33">
     <path d="M 99 70.976562 
L 119 70.976562 
" style="fill:none;stroke:#ff7f0e;stroke-linecap:square;stroke-width:0.5;"/>
    </g>
    <g id="line2d_34"/>
    <g id="text_19">
     <!-- validate -->
     <defs>
      <path d="M 2.984375 54.6875 
L 12.5 54.6875 
L 29.59375 8.796875 
L 46.6875 54.6875 
L 56.203125 54.6875 
L 35.6875 0 
L 23.484375 0 
z
" id="DejaVuSans-118"/>
      <path d="M 9.421875 75.984375 
L 18.40625 75.984375 
L 18.40625 0 
L 9.421875 0 
z
" id="DejaVuSans-108"/>
      <path d="M 45.40625 46.390625 
L 45.40625 75.984375 
L 54.390625 75.984375 
L 54.390625 0 
L 45.40625 0 
L 45.40625 8.203125 
Q 42.578125 3.328125 38.25 0.953125 
Q 33.9375 -1.421875 27.875 -1.421875 
Q 17.96875 -1.421875 11.734375 6.484375 
Q 5.515625 14.40625 5.515625 27.296875 
Q 5.515625 40.1875 11.734375 48.09375 
Q 17.96875 56 27.875 56 
Q 33.9375 56 38.25 53.625 
Q 42.578125 51.265625 45.40625 46.390625 
z
M 14.796875 27.296875 
Q 14.796875 17.390625 18.875 11.75 
Q 22.953125 6.109375 30.078125 6.109375 
Q 37.203125 6.109375 41.296875 11.75 
Q 45.40625 17.390625 45.40625 27.296875 
Q 45.40625 37.203125 41.296875 42.84375 
Q 37.203125 48.484375 30.078125 48.484375 
Q 22.953125 48.484375 18.875 42.84375 
Q 14.796875 37.203125 14.796875 27.296875 
z
" id="DejaVuSans-100"/>
     </defs>
     <g transform="translate(127 74.476562)scale(0.1 -0.1)">
      <use xlink:href="#DejaVuSans-118"/>
      <use x="59.179688" xlink:href="#DejaVuSans-97"/>
      <use x="120.458984" xlink:href="#DejaVuSans-108"/>
      <use x="148.242188" xlink:href="#DejaVuSans-105"/>
      <use x="176.025391" xlink:href="#DejaVuSans-100"/>
      <use x="239.501953" xlink:href="#DejaVuSans-97"/>
      <use x="300.78125" xlink:href="#DejaVuSans-116"/>
      <use x="339.990234" xlink:href="#DejaVuSans-101"/>
     </g>
    </g>
   </g>
  </g>
 </g>
 <defs>
  <clipPath id="pc56dade63e">
   <rect height="271.8" width="558" x="90" y="43.2"/>
  </clipPath>
 </defs>
</svg>
