<?xml version="1.0" encoding="utf-8" standalone="no"?>
<!DOCTYPE svg PUBLIC "-//W3C//DTD SVG 1.1//EN"
  "http://www.w3.org/Graphics/SVG/1.1/DTD/svg11.dtd">
<!-- Created with matplotlib (https://matplotlib.org/) -->
<svg height="360pt" version="1.1" viewBox="0 0 720 360" width="720pt" xmlns="http://www.w3.org/2000/svg" xmlns:xlink="http://www.w3.org/1999/xlink">
 <defs>
  <style type="text/css">
*{stroke-linecap:butt;stroke-linejoin:round;}
  </style>
 </defs>
 <g id="figure_1">
  <g id="patch_1">
   <path d="M 0 360 
L 720 360 
L 720 0 
L 0 0 
z
" style="fill:#ffffff;"/>
  </g>
  <g id="axes_1">
   <g id="patch_2">
    <path d="M 90 315 
L 648 315 
L 648 43.2 
L 90 43.2 
z
" style="fill:#ffffff;"/>
   </g>
   <g id="matplotlib.axis_1">
    <g id="xtick_1">
     <g id="line2d_1">
      <path clip-path="url(#pb60f67abbc)" d="M 115.363636 315 
L 115.363636 43.2 
" style="fill:none;stroke:#b0b0b0;stroke-linecap:square;stroke-width:0.8;"/>
     </g>
     <g id="line2d_2">
      <defs>
       <path d="M 0 0 
L 0 3.5 
" id="mdbcfc3f653" style="stroke:#000000;stroke-width:0.8;"/>
      </defs>
      <g>
       <use style="stroke:#000000;stroke-width:0.8;" x="115.363636" xlink:href="#mdbcfc3f653" y="315"/>
      </g>
     </g>
     <g id="text_1">
      <!-- 0 -->
      <defs>
       <path d="M 31.78125 66.40625 
Q 24.171875 66.40625 20.328125 58.90625 
Q 16.5 51.421875 16.5 36.375 
Q 16.5 21.390625 20.328125 13.890625 
Q 24.171875 6.390625 31.78125 6.390625 
Q 39.453125 6.390625 43.28125 13.890625 
Q 47.125 21.390625 47.125 36.375 
Q 47.125 51.421875 43.28125 58.90625 
Q 39.453125 66.40625 31.78125 66.40625 
z
M 31.78125 74.21875 
Q 44.046875 74.21875 50.515625 64.515625 
Q 56.984375 54.828125 56.984375 36.375 
Q 56.984375 17.96875 50.515625 8.265625 
Q 44.046875 -1.421875 31.78125 -1.421875 
Q 19.53125 -1.421875 13.0625 8.265625 
Q 6.59375 17.96875 6.59375 36.375 
Q 6.59375 54.828125 13.0625 64.515625 
Q 19.53125 74.21875 31.78125 74.21875 
z
" id="DejaVuSans-48"/>
      </defs>
      <g transform="translate(112.182386 329.598437)scale(0.1 -0.1)">
       <use xlink:href="#DejaVuSans-48"/>
      </g>
     </g>
    </g>
    <g id="xtick_2">
     <g id="line2d_3">
      <path clip-path="url(#pb60f67abbc)" d="M 191.990937 315 
L 191.990937 43.2 
" style="fill:none;stroke:#b0b0b0;stroke-linecap:square;stroke-width:0.8;"/>
     </g>
     <g id="line2d_4">
      <g>
       <use style="stroke:#000000;stroke-width:0.8;" x="191.990937" xlink:href="#mdbcfc3f653" y="315"/>
      </g>
     </g>
     <g id="text_2">
      <!-- 100 -->
      <defs>
       <path d="M 12.40625 8.296875 
L 28.515625 8.296875 
L 28.515625 63.921875 
L 10.984375 60.40625 
L 10.984375 69.390625 
L 28.421875 72.90625 
L 38.28125 72.90625 
L 38.28125 8.296875 
L 54.390625 8.296875 
L 54.390625 0 
L 12.40625 0 
z
" id="DejaVuSans-49"/>
      </defs>
      <g transform="translate(182.447187 329.598437)scale(0.1 -0.1)">
       <use xlink:href="#DejaVuSans-49"/>
       <use x="63.623047" xlink:href="#DejaVuSans-48"/>
       <use x="127.246094" xlink:href="#DejaVuSans-48"/>
      </g>
     </g>
    </g>
    <g id="xtick_3">
     <g id="line2d_5">
      <path clip-path="url(#pb60f67abbc)" d="M 268.618237 315 
L 268.618237 43.2 
" style="fill:none;stroke:#b0b0b0;stroke-linecap:square;stroke-width:0.8;"/>
     </g>
     <g id="line2d_6">
      <g>
       <use style="stroke:#000000;stroke-width:0.8;" x="268.618237" xlink:href="#mdbcfc3f653" y="315"/>
      </g>
     </g>
     <g id="text_3">
      <!-- 200 -->
      <defs>
       <path d="M 19.1875 8.296875 
L 53.609375 8.296875 
L 53.609375 0 
L 7.328125 0 
L 7.328125 8.296875 
Q 12.9375 14.109375 22.625 23.890625 
Q 32.328125 33.6875 34.8125 36.53125 
Q 39.546875 41.84375 41.421875 45.53125 
Q 43.3125 49.21875 43.3125 52.78125 
Q 43.3125 58.59375 39.234375 62.25 
Q 35.15625 65.921875 28.609375 65.921875 
Q 23.96875 65.921875 18.8125 64.3125 
Q 13.671875 62.703125 7.8125 59.421875 
L 7.8125 69.390625 
Q 13.765625 71.78125 18.9375 73 
Q 24.125 74.21875 28.421875 74.21875 
Q 39.75 74.21875 46.484375 68.546875 
Q 53.21875 62.890625 53.21875 53.421875 
Q 53.21875 48.921875 51.53125 44.890625 
Q 49.859375 40.875 45.40625 35.40625 
Q 44.1875 33.984375 37.640625 27.21875 
Q 31.109375 20.453125 19.1875 8.296875 
z
" id="DejaVuSans-50"/>
      </defs>
      <g transform="translate(259.074487 329.598437)scale(0.1 -0.1)">
       <use xlink:href="#DejaVuSans-50"/>
       <use x="63.623047" xlink:href="#DejaVuSans-48"/>
       <use x="127.246094" xlink:href="#DejaVuSans-48"/>
      </g>
     </g>
    </g>
    <g id="xtick_4">
     <g id="line2d_7">
      <path clip-path="url(#pb60f67abbc)" d="M 345.245537 315 
L 345.245537 43.2 
" style="fill:none;stroke:#b0b0b0;stroke-linecap:square;stroke-width:0.8;"/>
     </g>
     <g id="line2d_8">
      <g>
       <use style="stroke:#000000;stroke-width:0.8;" x="345.245537" xlink:href="#mdbcfc3f653" y="315"/>
      </g>
     </g>
     <g id="text_4">
      <!-- 300 -->
      <defs>
       <path d="M 40.578125 39.3125 
Q 47.65625 37.796875 51.625 33 
Q 55.609375 28.21875 55.609375 21.1875 
Q 55.609375 10.40625 48.1875 4.484375 
Q 40.765625 -1.421875 27.09375 -1.421875 
Q 22.515625 -1.421875 17.65625 -0.515625 
Q 12.796875 0.390625 7.625 2.203125 
L 7.625 11.71875 
Q 11.71875 9.328125 16.59375 8.109375 
Q 21.484375 6.890625 26.8125 6.890625 
Q 36.078125 6.890625 40.9375 10.546875 
Q 45.796875 14.203125 45.796875 21.1875 
Q 45.796875 27.640625 41.28125 31.265625 
Q 36.765625 34.90625 28.71875 34.90625 
L 20.21875 34.90625 
L 20.21875 43.015625 
L 29.109375 43.015625 
Q 36.375 43.015625 40.234375 45.921875 
Q 44.09375 48.828125 44.09375 54.296875 
Q 44.09375 59.90625 40.109375 62.90625 
Q 36.140625 65.921875 28.71875 65.921875 
Q 24.65625 65.921875 20.015625 65.03125 
Q 15.375 64.15625 9.8125 62.3125 
L 9.8125 71.09375 
Q 15.4375 72.65625 20.34375 73.4375 
Q 25.25 74.21875 29.59375 74.21875 
Q 40.828125 74.21875 47.359375 69.109375 
Q 53.90625 64.015625 53.90625 55.328125 
Q 53.90625 49.265625 50.4375 45.09375 
Q 46.96875 40.921875 40.578125 39.3125 
z
" id="DejaVuSans-51"/>
      </defs>
      <g transform="translate(335.701787 329.598437)scale(0.1 -0.1)">
       <use xlink:href="#DejaVuSans-51"/>
       <use x="63.623047" xlink:href="#DejaVuSans-48"/>
       <use x="127.246094" xlink:href="#DejaVuSans-48"/>
      </g>
     </g>
    </g>
    <g id="xtick_5">
     <g id="line2d_9">
      <path clip-path="url(#pb60f67abbc)" d="M 421.872837 315 
L 421.872837 43.2 
" style="fill:none;stroke:#b0b0b0;stroke-linecap:square;stroke-width:0.8;"/>
     </g>
     <g id="line2d_10">
      <g>
       <use style="stroke:#000000;stroke-width:0.8;" x="421.872837" xlink:href="#mdbcfc3f653" y="315"/>
      </g>
     </g>
     <g id="text_5">
      <!-- 400 -->
      <defs>
       <path d="M 37.796875 64.3125 
L 12.890625 25.390625 
L 37.796875 25.390625 
z
M 35.203125 72.90625 
L 47.609375 72.90625 
L 47.609375 25.390625 
L 58.015625 25.390625 
L 58.015625 17.1875 
L 47.609375 17.1875 
L 47.609375 0 
L 37.796875 0 
L 37.796875 17.1875 
L 4.890625 17.1875 
L 4.890625 26.703125 
z
" id="DejaVuSans-52"/>
      </defs>
      <g transform="translate(412.329087 329.598437)scale(0.1 -0.1)">
       <use xlink:href="#DejaVuSans-52"/>
       <use x="63.623047" xlink:href="#DejaVuSans-48"/>
       <use x="127.246094" xlink:href="#DejaVuSans-48"/>
      </g>
     </g>
    </g>
    <g id="xtick_6">
     <g id="line2d_11">
      <path clip-path="url(#pb60f67abbc)" d="M 498.500137 315 
L 498.500137 43.2 
" style="fill:none;stroke:#b0b0b0;stroke-linecap:square;stroke-width:0.8;"/>
     </g>
     <g id="line2d_12">
      <g>
       <use style="stroke:#000000;stroke-width:0.8;" x="498.500137" xlink:href="#mdbcfc3f653" y="315"/>
      </g>
     </g>
     <g id="text_6">
      <!-- 500 -->
      <defs>
       <path d="M 10.796875 72.90625 
L 49.515625 72.90625 
L 49.515625 64.59375 
L 19.828125 64.59375 
L 19.828125 46.734375 
Q 21.96875 47.46875 24.109375 47.828125 
Q 26.265625 48.1875 28.421875 48.1875 
Q 40.625 48.1875 47.75 41.5 
Q 54.890625 34.8125 54.890625 23.390625 
Q 54.890625 11.625 47.5625 5.09375 
Q 40.234375 -1.421875 26.90625 -1.421875 
Q 22.3125 -1.421875 17.546875 -0.640625 
Q 12.796875 0.140625 7.71875 1.703125 
L 7.71875 11.625 
Q 12.109375 9.234375 16.796875 8.0625 
Q 21.484375 6.890625 26.703125 6.890625 
Q 35.15625 6.890625 40.078125 11.328125 
Q 45.015625 15.765625 45.015625 23.390625 
Q 45.015625 31 40.078125 35.4375 
Q 35.15625 39.890625 26.703125 39.890625 
Q 22.75 39.890625 18.8125 39.015625 
Q 14.890625 38.140625 10.796875 36.28125 
z
" id="DejaVuSans-53"/>
      </defs>
      <g transform="translate(488.956387 329.598437)scale(0.1 -0.1)">
       <use xlink:href="#DejaVuSans-53"/>
       <use x="63.623047" xlink:href="#DejaVuSans-48"/>
       <use x="127.246094" xlink:href="#DejaVuSans-48"/>
      </g>
     </g>
    </g>
    <g id="xtick_7">
     <g id="line2d_13">
      <path clip-path="url(#pb60f67abbc)" d="M 575.127438 315 
L 575.127438 43.2 
" style="fill:none;stroke:#b0b0b0;stroke-linecap:square;stroke-width:0.8;"/>
     </g>
     <g id="line2d_14">
      <g>
       <use style="stroke:#000000;stroke-width:0.8;" x="575.127438" xlink:href="#mdbcfc3f653" y="315"/>
      </g>
     </g>
     <g id="text_7">
      <!-- 600 -->
      <defs>
       <path d="M 33.015625 40.375 
Q 26.375 40.375 22.484375 35.828125 
Q 18.609375 31.296875 18.609375 23.390625 
Q 18.609375 15.53125 22.484375 10.953125 
Q 26.375 6.390625 33.015625 6.390625 
Q 39.65625 6.390625 43.53125 10.953125 
Q 47.40625 15.53125 47.40625 23.390625 
Q 47.40625 31.296875 43.53125 35.828125 
Q 39.65625 40.375 33.015625 40.375 
z
M 52.59375 71.296875 
L 52.59375 62.3125 
Q 48.875 64.0625 45.09375 64.984375 
Q 41.3125 65.921875 37.59375 65.921875 
Q 27.828125 65.921875 22.671875 59.328125 
Q 17.53125 52.734375 16.796875 39.40625 
Q 19.671875 43.65625 24.015625 45.921875 
Q 28.375 48.1875 33.59375 48.1875 
Q 44.578125 48.1875 50.953125 41.515625 
Q 57.328125 34.859375 57.328125 23.390625 
Q 57.328125 12.15625 50.6875 5.359375 
Q 44.046875 -1.421875 33.015625 -1.421875 
Q 20.359375 -1.421875 13.671875 8.265625 
Q 6.984375 17.96875 6.984375 36.375 
Q 6.984375 53.65625 15.1875 63.9375 
Q 23.390625 74.21875 37.203125 74.21875 
Q 40.921875 74.21875 44.703125 73.484375 
Q 48.484375 72.75 52.59375 71.296875 
z
" id="DejaVuSans-54"/>
      </defs>
      <g transform="translate(565.583688 329.598437)scale(0.1 -0.1)">
       <use xlink:href="#DejaVuSans-54"/>
       <use x="63.623047" xlink:href="#DejaVuSans-48"/>
       <use x="127.246094" xlink:href="#DejaVuSans-48"/>
      </g>
     </g>
    </g>
    <g id="text_8">
     <!-- epoch -->
     <defs>
      <path d="M 56.203125 29.59375 
L 56.203125 25.203125 
L 14.890625 25.203125 
Q 15.484375 15.921875 20.484375 11.0625 
Q 25.484375 6.203125 34.421875 6.203125 
Q 39.59375 6.203125 44.453125 7.46875 
Q 49.3125 8.734375 54.109375 11.28125 
L 54.109375 2.78125 
Q 49.265625 0.734375 44.1875 -0.34375 
Q 39.109375 -1.421875 33.890625 -1.421875 
Q 20.796875 -1.421875 13.15625 6.1875 
Q 5.515625 13.8125 5.515625 26.8125 
Q 5.515625 40.234375 12.765625 48.109375 
Q 20.015625 56 32.328125 56 
Q 43.359375 56 49.78125 48.890625 
Q 56.203125 41.796875 56.203125 29.59375 
z
M 47.21875 32.234375 
Q 47.125 39.59375 43.09375 43.984375 
Q 39.0625 48.390625 32.421875 48.390625 
Q 24.90625 48.390625 20.390625 44.140625 
Q 15.875 39.890625 15.1875 32.171875 
z
" id="DejaVuSans-101"/>
      <path d="M 18.109375 8.203125 
L 18.109375 -20.796875 
L 9.078125 -20.796875 
L 9.078125 54.6875 
L 18.109375 54.6875 
L 18.109375 46.390625 
Q 20.953125 51.265625 25.265625 53.625 
Q 29.59375 56 35.59375 56 
Q 45.5625 56 51.78125 48.09375 
Q 58.015625 40.1875 58.015625 27.296875 
Q 58.015625 14.40625 51.78125 6.484375 
Q 45.5625 -1.421875 35.59375 -1.421875 
Q 29.59375 -1.421875 25.265625 0.953125 
Q 20.953125 3.328125 18.109375 8.203125 
z
M 48.6875 27.296875 
Q 48.6875 37.203125 44.609375 42.84375 
Q 40.53125 48.484375 33.40625 48.484375 
Q 26.265625 48.484375 22.1875 42.84375 
Q 18.109375 37.203125 18.109375 27.296875 
Q 18.109375 17.390625 22.1875 11.75 
Q 26.265625 6.109375 33.40625 6.109375 
Q 40.53125 6.109375 44.609375 11.75 
Q 48.6875 17.390625 48.6875 27.296875 
z
" id="DejaVuSans-112"/>
      <path d="M 30.609375 48.390625 
Q 23.390625 48.390625 19.1875 42.75 
Q 14.984375 37.109375 14.984375 27.296875 
Q 14.984375 17.484375 19.15625 11.84375 
Q 23.34375 6.203125 30.609375 6.203125 
Q 37.796875 6.203125 41.984375 11.859375 
Q 46.1875 17.53125 46.1875 27.296875 
Q 46.1875 37.015625 41.984375 42.703125 
Q 37.796875 48.390625 30.609375 48.390625 
z
M 30.609375 56 
Q 42.328125 56 49.015625 48.375 
Q 55.71875 40.765625 55.71875 27.296875 
Q 55.71875 13.875 49.015625 6.21875 
Q 42.328125 -1.421875 30.609375 -1.421875 
Q 18.84375 -1.421875 12.171875 6.21875 
Q 5.515625 13.875 5.515625 27.296875 
Q 5.515625 40.765625 12.171875 48.375 
Q 18.84375 56 30.609375 56 
z
" id="DejaVuSans-111"/>
      <path d="M 48.78125 52.59375 
L 48.78125 44.1875 
Q 44.96875 46.296875 41.140625 47.34375 
Q 37.3125 48.390625 33.40625 48.390625 
Q 24.65625 48.390625 19.8125 42.84375 
Q 14.984375 37.3125 14.984375 27.296875 
Q 14.984375 17.28125 19.8125 11.734375 
Q 24.65625 6.203125 33.40625 6.203125 
Q 37.3125 6.203125 41.140625 7.25 
Q 44.96875 8.296875 48.78125 10.40625 
L 48.78125 2.09375 
Q 45.015625 0.34375 40.984375 -0.53125 
Q 36.96875 -1.421875 32.421875 -1.421875 
Q 20.0625 -1.421875 12.78125 6.34375 
Q 5.515625 14.109375 5.515625 27.296875 
Q 5.515625 40.671875 12.859375 48.328125 
Q 20.21875 56 33.015625 56 
Q 37.15625 56 41.109375 55.140625 
Q 45.0625 54.296875 48.78125 52.59375 
z
" id="DejaVuSans-99"/>
      <path d="M 54.890625 33.015625 
L 54.890625 0 
L 45.90625 0 
L 45.90625 32.71875 
Q 45.90625 40.484375 42.875 44.328125 
Q 39.84375 48.1875 33.796875 48.1875 
Q 26.515625 48.1875 22.3125 43.546875 
Q 18.109375 38.921875 18.109375 30.90625 
L 18.109375 0 
L 9.078125 0 
L 9.078125 75.984375 
L 18.109375 75.984375 
L 18.109375 46.1875 
Q 21.34375 51.125 25.703125 53.5625 
Q 30.078125 56 35.796875 56 
Q 45.21875 56 50.046875 50.171875 
Q 54.890625 44.34375 54.890625 33.015625 
z
" id="DejaVuSans-104"/>
     </defs>
     <g transform="translate(353.771875 343.276563)scale(0.1 -0.1)">
      <use xlink:href="#DejaVuSans-101"/>
      <use x="61.523438" xlink:href="#DejaVuSans-112"/>
      <use x="125" xlink:href="#DejaVuSans-111"/>
      <use x="186.181641" xlink:href="#DejaVuSans-99"/>
      <use x="241.162109" xlink:href="#DejaVuSans-104"/>
     </g>
    </g>
   </g>
   <g id="matplotlib.axis_2">
    <g id="ytick_1">
     <g id="line2d_15">
      <path clip-path="url(#pb60f67abbc)" d="M 90 288.171873 
L 648 288.171873 
" style="fill:none;stroke:#b0b0b0;stroke-linecap:square;stroke-width:0.8;"/>
     </g>
     <g id="line2d_16">
      <defs>
       <path d="M 0 0 
L -3.5 0 
" id="m5104bc1624" style="stroke:#000000;stroke-width:0.8;"/>
      </defs>
      <g>
       <use style="stroke:#000000;stroke-width:0.8;" x="90" xlink:href="#m5104bc1624" y="288.171873"/>
      </g>
     </g>
     <g id="text_9">
      <!-- 0.3 -->
      <defs>
       <path d="M 10.6875 12.40625 
L 21 12.40625 
L 21 0 
L 10.6875 0 
z
" id="DejaVuSans-46"/>
      </defs>
      <g transform="translate(67.096875 291.971091)scale(0.1 -0.1)">
       <use xlink:href="#DejaVuSans-48"/>
       <use x="63.623047" xlink:href="#DejaVuSans-46"/>
       <use x="95.410156" xlink:href="#DejaVuSans-51"/>
      </g>
     </g>
    </g>
    <g id="ytick_2">
     <g id="line2d_17">
      <path clip-path="url(#pb60f67abbc)" d="M 90 253.504611 
L 648 253.504611 
" style="fill:none;stroke:#b0b0b0;stroke-linecap:square;stroke-width:0.8;"/>
     </g>
     <g id="line2d_18">
      <g>
       <use style="stroke:#000000;stroke-width:0.8;" x="90" xlink:href="#m5104bc1624" y="253.504611"/>
      </g>
     </g>
     <g id="text_10">
      <!-- 0.4 -->
      <g transform="translate(67.096875 257.30383)scale(0.1 -0.1)">
       <use xlink:href="#DejaVuSans-48"/>
       <use x="63.623047" xlink:href="#DejaVuSans-46"/>
       <use x="95.410156" xlink:href="#DejaVuSans-52"/>
      </g>
     </g>
    </g>
    <g id="ytick_3">
     <g id="line2d_19">
      <path clip-path="url(#pb60f67abbc)" d="M 90 218.837349 
L 648 218.837349 
" style="fill:none;stroke:#b0b0b0;stroke-linecap:square;stroke-width:0.8;"/>
     </g>
     <g id="line2d_20">
      <g>
       <use style="stroke:#000000;stroke-width:0.8;" x="90" xlink:href="#m5104bc1624" y="218.837349"/>
      </g>
     </g>
     <g id="text_11">
      <!-- 0.5 -->
      <g transform="translate(67.096875 222.636568)scale(0.1 -0.1)">
       <use xlink:href="#DejaVuSans-48"/>
       <use x="63.623047" xlink:href="#DejaVuSans-46"/>
       <use x="95.410156" xlink:href="#DejaVuSans-53"/>
      </g>
     </g>
    </g>
    <g id="ytick_4">
     <g id="line2d_21">
      <path clip-path="url(#pb60f67abbc)" d="M 90 184.170087 
L 648 184.170087 
" style="fill:none;stroke:#b0b0b0;stroke-linecap:square;stroke-width:0.8;"/>
     </g>
     <g id="line2d_22">
      <g>
       <use style="stroke:#000000;stroke-width:0.8;" x="90" xlink:href="#m5104bc1624" y="184.170087"/>
      </g>
     </g>
     <g id="text_12">
      <!-- 0.6 -->
      <g transform="translate(67.096875 187.969306)scale(0.1 -0.1)">
       <use xlink:href="#DejaVuSans-48"/>
       <use x="63.623047" xlink:href="#DejaVuSans-46"/>
       <use x="95.410156" xlink:href="#DejaVuSans-54"/>
      </g>
     </g>
    </g>
    <g id="ytick_5">
     <g id="line2d_23">
      <path clip-path="url(#pb60f67abbc)" d="M 90 149.502825 
L 648 149.502825 
" style="fill:none;stroke:#b0b0b0;stroke-linecap:square;stroke-width:0.8;"/>
     </g>
     <g id="line2d_24">
      <g>
       <use style="stroke:#000000;stroke-width:0.8;" x="90" xlink:href="#m5104bc1624" y="149.502825"/>
      </g>
     </g>
     <g id="text_13">
      <!-- 0.7 -->
      <defs>
       <path d="M 8.203125 72.90625 
L 55.078125 72.90625 
L 55.078125 68.703125 
L 28.609375 0 
L 18.3125 0 
L 43.21875 64.59375 
L 8.203125 64.59375 
z
" id="DejaVuSans-55"/>
      </defs>
      <g transform="translate(67.096875 153.302044)scale(0.1 -0.1)">
       <use xlink:href="#DejaVuSans-48"/>
       <use x="63.623047" xlink:href="#DejaVuSans-46"/>
       <use x="95.410156" xlink:href="#DejaVuSans-55"/>
      </g>
     </g>
    </g>
    <g id="ytick_6">
     <g id="line2d_25">
      <path clip-path="url(#pb60f67abbc)" d="M 90 114.835563 
L 648 114.835563 
" style="fill:none;stroke:#b0b0b0;stroke-linecap:square;stroke-width:0.8;"/>
     </g>
     <g id="line2d_26">
      <g>
       <use style="stroke:#000000;stroke-width:0.8;" x="90" xlink:href="#m5104bc1624" y="114.835563"/>
      </g>
     </g>
     <g id="text_14">
      <!-- 0.8 -->
      <defs>
       <path d="M 31.78125 34.625 
Q 24.75 34.625 20.71875 30.859375 
Q 16.703125 27.09375 16.703125 20.515625 
Q 16.703125 13.921875 20.71875 10.15625 
Q 24.75 6.390625 31.78125 6.390625 
Q 38.8125 6.390625 42.859375 10.171875 
Q 46.921875 13.96875 46.921875 20.515625 
Q 46.921875 27.09375 42.890625 30.859375 
Q 38.875 34.625 31.78125 34.625 
z
M 21.921875 38.8125 
Q 15.578125 40.375 12.03125 44.71875 
Q 8.5 49.078125 8.5 55.328125 
Q 8.5 64.0625 14.71875 69.140625 
Q 20.953125 74.21875 31.78125 74.21875 
Q 42.671875 74.21875 48.875 69.140625 
Q 55.078125 64.0625 55.078125 55.328125 
Q 55.078125 49.078125 51.53125 44.71875 
Q 48 40.375 41.703125 38.8125 
Q 48.828125 37.15625 52.796875 32.3125 
Q 56.78125 27.484375 56.78125 20.515625 
Q 56.78125 9.90625 50.3125 4.234375 
Q 43.84375 -1.421875 31.78125 -1.421875 
Q 19.734375 -1.421875 13.25 4.234375 
Q 6.78125 9.90625 6.78125 20.515625 
Q 6.78125 27.484375 10.78125 32.3125 
Q 14.796875 37.15625 21.921875 38.8125 
z
M 18.3125 54.390625 
Q 18.3125 48.734375 21.84375 45.5625 
Q 25.390625 42.390625 31.78125 42.390625 
Q 38.140625 42.390625 41.71875 45.5625 
Q 45.3125 48.734375 45.3125 54.390625 
Q 45.3125 60.0625 41.71875 63.234375 
Q 38.140625 66.40625 31.78125 66.40625 
Q 25.390625 66.40625 21.84375 63.234375 
Q 18.3125 60.0625 18.3125 54.390625 
z
" id="DejaVuSans-56"/>
      </defs>
      <g transform="translate(67.096875 118.634782)scale(0.1 -0.1)">
       <use xlink:href="#DejaVuSans-48"/>
       <use x="63.623047" xlink:href="#DejaVuSans-46"/>
       <use x="95.410156" xlink:href="#DejaVuSans-56"/>
      </g>
     </g>
    </g>
    <g id="ytick_7">
     <g id="line2d_27">
      <path clip-path="url(#pb60f67abbc)" d="M 90 80.168301 
L 648 80.168301 
" style="fill:none;stroke:#b0b0b0;stroke-linecap:square;stroke-width:0.8;"/>
     </g>
     <g id="line2d_28">
      <g>
       <use style="stroke:#000000;stroke-width:0.8;" x="90" xlink:href="#m5104bc1624" y="80.168301"/>
      </g>
     </g>
     <g id="text_15">
      <!-- 0.9 -->
      <defs>
       <path d="M 10.984375 1.515625 
L 10.984375 10.5 
Q 14.703125 8.734375 18.5 7.8125 
Q 22.3125 6.890625 25.984375 6.890625 
Q 35.75 6.890625 40.890625 13.453125 
Q 46.046875 20.015625 46.78125 33.40625 
Q 43.953125 29.203125 39.59375 26.953125 
Q 35.25 24.703125 29.984375 24.703125 
Q 19.046875 24.703125 12.671875 31.3125 
Q 6.296875 37.9375 6.296875 49.421875 
Q 6.296875 60.640625 12.9375 67.421875 
Q 19.578125 74.21875 30.609375 74.21875 
Q 43.265625 74.21875 49.921875 64.515625 
Q 56.59375 54.828125 56.59375 36.375 
Q 56.59375 19.140625 48.40625 8.859375 
Q 40.234375 -1.421875 26.421875 -1.421875 
Q 22.703125 -1.421875 18.890625 -0.6875 
Q 15.09375 0.046875 10.984375 1.515625 
z
M 30.609375 32.421875 
Q 37.25 32.421875 41.125 36.953125 
Q 45.015625 41.5 45.015625 49.421875 
Q 45.015625 57.28125 41.125 61.84375 
Q 37.25 66.40625 30.609375 66.40625 
Q 23.96875 66.40625 20.09375 61.84375 
Q 16.21875 57.28125 16.21875 49.421875 
Q 16.21875 41.5 20.09375 36.953125 
Q 23.96875 32.421875 30.609375 32.421875 
z
" id="DejaVuSans-57"/>
      </defs>
      <g transform="translate(67.096875 83.96752)scale(0.1 -0.1)">
       <use xlink:href="#DejaVuSans-48"/>
       <use x="63.623047" xlink:href="#DejaVuSans-46"/>
       <use x="95.410156" xlink:href="#DejaVuSans-57"/>
      </g>
     </g>
    </g>
    <g id="ytick_8">
     <g id="line2d_29">
      <path clip-path="url(#pb60f67abbc)" d="M 90 45.50104 
L 648 45.50104 
" style="fill:none;stroke:#b0b0b0;stroke-linecap:square;stroke-width:0.8;"/>
     </g>
     <g id="line2d_30">
      <g>
       <use style="stroke:#000000;stroke-width:0.8;" x="90" xlink:href="#m5104bc1624" y="45.50104"/>
      </g>
     </g>
     <g id="text_16">
      <!-- 1.0 -->
      <g transform="translate(67.096875 49.300258)scale(0.1 -0.1)">
       <use xlink:href="#DejaVuSans-49"/>
       <use x="63.623047" xlink:href="#DejaVuSans-46"/>
       <use x="95.410156" xlink:href="#DejaVuSans-48"/>
      </g>
     </g>
    </g>
    <g id="text_17">
     <!-- accuracy -->
     <defs>
      <path d="M 34.28125 27.484375 
Q 23.390625 27.484375 19.1875 25 
Q 14.984375 22.515625 14.984375 16.5 
Q 14.984375 11.71875 18.140625 8.90625 
Q 21.296875 6.109375 26.703125 6.109375 
Q 34.1875 6.109375 38.703125 11.40625 
Q 43.21875 16.703125 43.21875 25.484375 
L 43.21875 27.484375 
z
M 52.203125 31.203125 
L 52.203125 0 
L 43.21875 0 
L 43.21875 8.296875 
Q 40.140625 3.328125 35.546875 0.953125 
Q 30.953125 -1.421875 24.3125 -1.421875 
Q 15.921875 -1.421875 10.953125 3.296875 
Q 6 8.015625 6 15.921875 
Q 6 25.140625 12.171875 29.828125 
Q 18.359375 34.515625 30.609375 34.515625 
L 43.21875 34.515625 
L 43.21875 35.40625 
Q 43.21875 41.609375 39.140625 45 
Q 35.0625 48.390625 27.6875 48.390625 
Q 23 48.390625 18.546875 47.265625 
Q 14.109375 46.140625 10.015625 43.890625 
L 10.015625 52.203125 
Q 14.9375 54.109375 19.578125 55.046875 
Q 24.21875 56 28.609375 56 
Q 40.484375 56 46.34375 49.84375 
Q 52.203125 43.703125 52.203125 31.203125 
z
" id="DejaVuSans-97"/>
      <path d="M 8.5 21.578125 
L 8.5 54.6875 
L 17.484375 54.6875 
L 17.484375 21.921875 
Q 17.484375 14.15625 20.5 10.265625 
Q 23.53125 6.390625 29.59375 6.390625 
Q 36.859375 6.390625 41.078125 11.03125 
Q 45.3125 15.671875 45.3125 23.6875 
L 45.3125 54.6875 
L 54.296875 54.6875 
L 54.296875 0 
L 45.3125 0 
L 45.3125 8.40625 
Q 42.046875 3.421875 37.71875 1 
Q 33.40625 -1.421875 27.6875 -1.421875 
Q 18.265625 -1.421875 13.375 4.4375 
Q 8.5 10.296875 8.5 21.578125 
z
M 31.109375 56 
z
" id="DejaVuSans-117"/>
      <path d="M 41.109375 46.296875 
Q 39.59375 47.171875 37.8125 47.578125 
Q 36.03125 48 33.890625 48 
Q 26.265625 48 22.1875 43.046875 
Q 18.109375 38.09375 18.109375 28.8125 
L 18.109375 0 
L 9.078125 0 
L 9.078125 54.6875 
L 18.109375 54.6875 
L 18.109375 46.1875 
Q 20.953125 51.171875 25.484375 53.578125 
Q 30.03125 56 36.53125 56 
Q 37.453125 56 38.578125 55.875 
Q 39.703125 55.765625 41.0625 55.515625 
z
" id="DejaVuSans-114"/>
      <path d="M 32.171875 -5.078125 
Q 28.375 -14.84375 24.75 -17.8125 
Q 21.140625 -20.796875 15.09375 -20.796875 
L 7.90625 -20.796875 
L 7.90625 -13.28125 
L 13.1875 -13.28125 
Q 16.890625 -13.28125 18.9375 -11.515625 
Q 21 -9.765625 23.484375 -3.21875 
L 25.09375 0.875 
L 2.984375 54.6875 
L 12.5 54.6875 
L 29.59375 11.921875 
L 46.6875 54.6875 
L 56.203125 54.6875 
z
" id="DejaVuSans-121"/>
     </defs>
     <g transform="translate(61.017187 201.659375)rotate(-90)scale(0.1 -0.1)">
      <use xlink:href="#DejaVuSans-97"/>
      <use x="61.279297" xlink:href="#DejaVuSans-99"/>
      <use x="116.259766" xlink:href="#DejaVuSans-99"/>
      <use x="171.240234" xlink:href="#DejaVuSans-117"/>
      <use x="234.619141" xlink:href="#DejaVuSans-114"/>
      <use x="275.732422" xlink:href="#DejaVuSans-97"/>
      <use x="337.011719" xlink:href="#DejaVuSans-99"/>
      <use x="391.992188" xlink:href="#DejaVuSans-121"/>
     </g>
    </g>
   </g>
   <g id="line2d_31">
    <path clip-path="url(#pb60f67abbc)" d="M 115.363636 301.692105 
L 116.129909 293.198626 
L 116.896182 281.585093 
L 117.662455 280.198402 
L 118.428728 275.951663 
L 119.195001 269.191547 
L 119.961274 261.218077 
L 120.727547 258.358027 
L 121.49382 257.404678 
L 122.260093 249.084535 
L 123.026366 246.05115 
L 123.792639 238.251016 
L 124.558912 236.690989 
L 125.325185 231.92424 
L 126.857731 221.437394 
L 127.624004 217.103986 
L 128.390277 215.543959 
L 129.15655 210.430538 
L 129.922823 203.497086 
L 130.689096 202.890408 
L 131.455369 193.530248 
L 132.221642 192.576898 
L 132.987915 185.643446 
L 133.754188 183.910083 
L 134.520461 180.010016 
L 135.286734 178.969998 
L 136.053007 173.596572 
L 136.81928 170.909859 
L 137.585553 163.456398 
L 138.351826 161.549699 
L 139.118099 159.296327 
L 139.884372 152.016202 
L 140.650645 153.316224 
L 141.416918 153.922901 
L 142.183191 147.422789 
L 143.715737 143.782727 
L 144.48201 137.455952 
L 145.248283 141.702691 
L 146.014556 138.842642 
L 146.780829 134.942575 
L 147.547102 134.509234 
L 148.313375 128.702468 
L 149.079648 126.102423 
L 149.845921 126.969105 
L 150.612194 128.702468 
L 151.378467 122.115688 
L 152.14474 123.242374 
L 152.911013 117.782281 
L 153.677286 120.295657 
L 154.443559 120.989002 
L 155.209832 118.042285 
L 155.976105 116.222254 
L 156.742378 118.822298 
L 158.274924 113.015532 
L 159.041197 115.182236 
L 159.80747 112.582191 
L 160.573743 112.062182 
L 161.340016 111.975514 
L 162.106289 107.988779 
L 162.872562 110.328819 
L 163.638835 110.502156 
L 164.405108 106.948761 
L 165.171381 104.348717 
L 165.937654 106.602089 
L 166.703927 106.948761 
L 167.4702 105.388734 
L 168.236473 103.482035 
L 169.002746 102.268681 
L 169.76902 102.78869 
L 170.535293 99.148627 
L 171.301566 98.975291 
L 172.067839 98.108609 
L 172.834112 97.415264 
L 173.600385 96.895255 
L 174.366658 96.808587 
L 175.132931 97.501932 
L 175.899204 97.761937 
L 176.665477 94.901888 
L 177.43175 95.595233 
L 178.198023 95.595233 
L 178.964296 95.421897 
L 179.730569 92.995188 
L 180.496842 92.041839 
L 181.263115 91.608498 
L 182.029388 93.341861 
L 182.795661 92.475179 
L 183.561934 92.90852 
L 184.328207 90.048471 
L 185.09448 90.135139 
L 185.860753 88.575112 
L 187.393299 91.608498 
L 188.925845 87.968435 
L 189.692118 86.841749 
L 190.458391 88.575112 
L 191.224664 85.975068 
L 191.990937 85.195054 
L 192.75721 88.055103 
L 193.523483 85.455059 
L 194.289756 85.455059 
L 195.056029 84.241705 
L 196.588575 83.201687 
L 197.354848 83.115019 
L 198.121121 85.455059 
L 198.887394 86.32174 
L 199.653667 82.508342 
L 200.41994 83.461691 
L 201.186213 80.341638 
L 201.952486 79.994965 
L 202.718759 82.335005 
L 203.485032 81.121651 
L 204.251305 83.115019 
L 205.017578 82.508342 
L 205.783851 80.861647 
L 206.550124 81.034983 
L 207.316397 80.948315 
L 208.08267 81.034983 
L 208.848943 80.774978 
L 209.615216 80.774978 
L 210.381489 82.681678 
L 211.147762 81.728328 
L 212.680308 81.294987 
L 213.446581 79.821629 
L 214.212854 79.648292 
L 214.979127 80.601642 
L 215.7454 78.954947 
L 216.511673 79.908297 
L 218.044219 76.96158 
L 218.810492 76.354903 
L 219.576765 77.134916 
L 220.343038 78.694943 
L 221.109311 76.441571 
L 221.875584 77.134916 
L 222.641857 76.441571 
L 223.40813 74.188199 
L 224.174403 76.354903 
L 224.940676 76.96158 
L 225.706949 75.05488 
L 226.473222 75.748226 
L 227.239495 75.574889 
L 228.005768 76.701575 
L 229.538314 75.834894 
L 230.304587 72.628172 
L 231.07086 74.188199 
L 231.837133 72.021495 
L 232.603406 73.928194 
L 233.369679 72.281499 
L 234.135952 72.108163 
L 234.902225 72.541504 
L 235.668498 73.841526 
L 236.434771 74.881544 
L 237.201044 75.574889 
L 237.967317 72.974845 
L 238.73359 74.361535 
L 239.499863 73.581522 
L 240.266136 70.3748 
L 241.032409 71.588154 
L 241.798682 73.321517 
L 242.564955 73.66819 
L 243.331228 73.494853 
L 244.097501 70.634804 
L 244.863774 73.148181 
L 245.630047 71.154813 
L 246.39632 74.014862 
L 247.162593 73.494853 
L 247.928866 75.834894 
L 248.695139 69.594787 
L 249.461412 74.448203 
L 250.227685 67.861423 
L 250.993958 68.728105 
L 251.760231 72.021495 
L 253.292777 71.76149 
L 254.05905 68.728105 
L 254.825323 69.854791 
L 255.591596 69.854791 
L 256.357869 70.894809 
L 257.124142 68.814773 
L 257.890415 70.461468 
L 258.656688 71.501486 
L 259.422961 69.161446 
L 260.189234 69.854791 
L 260.955507 67.601419 
L 261.72178 68.03476 
L 262.488053 71.32815 
L 263.254326 69.161446 
L 264.020599 71.32815 
L 264.786872 70.461468 
L 265.553145 71.068145 
L 266.319418 69.334782 
L 267.085691 68.988109 
L 267.851964 70.808141 
L 268.618237 70.894809 
L 270.150783 67.601419 
L 270.917056 71.068145 
L 271.683329 68.554769 
L 272.449602 70.201464 
L 273.215875 68.901441 
L 273.982148 70.288132 
L 274.748421 70.114795 
L 275.514694 67.861423 
L 276.280967 69.941459 
L 277.04724 67.514751 
L 277.813513 68.901441 
L 278.579786 68.121428 
L 279.346059 67.688087 
L 280.112332 68.208096 
L 280.878605 66.561401 
L 281.644878 68.728105 
L 282.411151 66.908074 
L 283.177424 68.381432 
L 283.943697 68.728105 
L 284.70997 66.908074 
L 285.476243 67.688087 
L 286.242516 65.954724 
L 287.008789 67.08141 
L 287.775062 65.608051 
L 288.541335 68.121428 
L 289.307608 67.08141 
L 290.073881 67.428083 
L 290.840154 65.348047 
L 291.606427 68.468101 
L 292.3727 68.208096 
L 293.138973 67.341414 
L 293.905246 68.208096 
L 294.671519 66.734737 
L 295.437792 67.08141 
L 296.204065 64.74137 
L 296.970338 65.954724 
L 298.502884 67.688087 
L 299.269157 65.868056 
L 300.03543 68.294764 
L 300.801703 66.734737 
L 302.334249 67.861423 
L 303.100522 65.261379 
L 303.866795 65.434715 
L 304.633068 65.001374 
L 305.399341 65.434715 
L 306.165614 64.828038 
L 306.931887 66.214728 
L 307.69816 66.648069 
L 308.464433 64.134693 
L 309.230706 65.868056 
L 309.996979 66.994742 
L 310.763252 62.921339 
L 311.529525 66.648069 
L 312.295798 66.648069 
L 313.062071 65.174711 
L 313.828344 66.301397 
L 315.36089 63.961356 
L 316.127163 66.041392 
L 316.893436 65.781388 
L 317.659709 66.821406 
L 318.425982 66.648069 
L 319.192255 64.481365 
L 319.958528 65.088042 
L 320.724801 63.701352 
L 321.491074 66.388065 
L 322.257347 65.088042 
L 323.02362 65.781388 
L 323.789893 65.954724 
L 324.556166 65.608051 
L 325.322439 63.961356 
L 326.088712 65.174711 
L 326.854985 64.568034 
L 327.621258 67.168078 
L 329.153804 65.434715 
L 329.920077 65.434715 
L 331.452623 64.481365 
L 332.218896 65.261379 
L 332.985169 66.474733 
L 334.517715 65.174711 
L 336.050261 66.301397 
L 336.816534 65.608051 
L 337.582807 66.214728 
L 338.34908 64.654702 
L 339.115353 63.78802 
L 339.881626 65.348047 
L 340.647899 64.308029 
L 341.414172 65.868056 
L 342.180445 64.221361 
L 342.946718 64.481365 
L 343.712991 63.008007 
L 344.479264 62.661334 
L 345.245537 65.348047 
L 346.01181 62.574666 
L 346.778083 64.394697 
L 347.544356 64.134693 
L 348.310629 63.354679 
L 349.076902 62.921339 
L 349.843175 64.481365 
L 350.609448 63.961356 
L 351.375721 64.394697 
L 352.141994 62.40133 
L 352.908267 63.78802 
L 353.67454 63.78802 
L 354.440813 61.534648 
L 355.207086 62.40133 
L 355.973359 64.654702 
L 356.739632 63.008007 
L 357.505905 63.008007 
L 358.272178 62.661334 
L 359.038451 63.874688 
L 359.804724 63.874688 
L 360.570997 64.308029 
L 361.33727 63.874688 
L 362.103543 63.094675 
L 362.869816 62.921339 
L 363.636089 64.914706 
L 364.402362 61.274644 
L 365.168635 61.44798 
L 365.934908 64.221361 
L 366.701181 62.227993 
L 367.467454 63.701352 
L 368.233727 62.574666 
L 369 62.054657 
L 369.766273 65.781388 
L 370.532546 62.748002 
L 371.298819 62.227993 
L 372.065092 62.83467 
L 372.831365 62.921339 
L 373.597638 62.574666 
L 374.363911 63.354679 
L 375.130184 63.528016 
L 375.896457 64.308029 
L 376.66273 63.441348 
L 377.429003 62.748002 
L 378.195276 63.701352 
L 378.961549 61.881321 
L 379.727822 63.78802 
L 380.494095 62.141325 
L 381.260368 63.354679 
L 382.026641 62.227993 
L 382.792914 62.40133 
L 383.559187 64.221361 
L 384.32546 62.40133 
L 385.091733 62.314662 
L 385.858006 62.054657 
L 386.624279 63.701352 
L 387.390552 63.874688 
L 388.156825 63.701352 
L 388.923098 63.268011 
L 389.689371 62.314662 
L 390.455644 63.701352 
L 391.221917 63.008007 
L 391.98819 62.141325 
L 393.520736 61.707984 
L 394.287009 62.487998 
L 395.053282 61.881321 
L 395.819555 61.534648 
L 396.585828 61.967989 
L 397.352101 60.841303 
L 398.118374 61.014639 
L 398.884647 62.227993 
L 399.65092 61.187976 
L 400.417193 62.748002 
L 401.183466 60.234626 
L 402.716012 63.094675 
L 403.482285 59.714617 
L 404.248558 62.314662 
L 405.014831 60.407962 
L 405.781104 61.794653 
L 406.547377 63.528016 
L 407.31365 62.574666 
L 408.079923 62.83467 
L 408.846196 61.187976 
L 410.378742 61.967989 
L 411.145015 62.574666 
L 411.911288 61.534648 
L 412.677561 64.048025 
L 413.443834 62.574666 
L 414.97638 60.407962 
L 415.742653 62.574666 
L 416.508926 60.061289 
L 417.275199 60.841303 
L 418.041472 60.234626 
L 418.807745 60.841303 
L 419.574018 60.147958 
L 420.340291 62.83467 
L 421.106564 63.441348 
L 421.872837 60.407962 
L 422.63911 60.061289 
L 423.405383 62.314662 
L 424.171656 60.061289 
L 424.937929 62.487998 
L 425.704202 60.927971 
L 426.470475 63.874688 
L 427.236748 58.587931 
L 428.003021 63.354679 
L 428.769294 59.10794 
L 429.535567 59.887953 
L 430.30184 60.234626 
L 431.068113 61.274644 
L 431.834386 63.614684 
L 432.600659 62.574666 
L 433.366932 60.667967 
L 434.133205 61.44798 
L 434.899478 60.407962 
L 435.665751 60.754635 
L 436.432024 62.314662 
L 437.198297 60.407962 
L 437.96457 62.141325 
L 438.730843 58.934603 
L 439.497116 60.927971 
L 440.263389 60.927971 
L 441.029662 59.367944 
L 441.795935 61.621316 
L 442.562208 59.541281 
L 443.328481 60.147958 
L 444.094754 59.974621 
L 444.861027 61.794653 
L 446.393573 60.234626 
L 447.159846 60.754635 
L 447.926119 63.008007 
L 448.692392 61.187976 
L 449.458665 60.667967 
L 450.224938 58.761267 
L 450.991211 59.541281 
L 451.757484 59.887953 
L 452.523757 59.801285 
L 453.29003 60.581298 
L 454.056303 60.407962 
L 454.822576 62.40133 
L 455.588849 60.49463 
L 456.355122 60.147958 
L 457.121395 60.147958 
L 457.887668 61.274644 
L 458.653941 59.974621 
L 459.420214 59.367944 
L 460.186487 60.321294 
L 460.95276 60.321294 
L 461.719033 58.587931 
L 462.485306 60.754635 
L 463.251579 59.887953 
L 464.017852 60.321294 
L 464.784125 58.15459 
L 465.550398 58.15459 
L 466.316671 59.887953 
L 467.082944 59.021272 
L 467.849217 59.281276 
L 468.61549 59.194608 
L 469.381763 60.061289 
L 470.148036 60.321294 
L 470.914309 58.847935 
L 471.680582 59.194608 
L 472.446855 58.847935 
L 473.213128 58.327926 
L 473.979401 60.321294 
L 474.745674 59.194608 
L 475.511947 58.501263 
L 476.27822 61.794653 
L 477.044493 58.414595 
L 477.810766 58.761267 
L 478.577039 58.15459 
L 480.109585 60.147958 
L 480.875858 59.887953 
L 481.642131 60.407962 
L 482.408404 60.147958 
L 483.174677 61.361312 
L 483.94095 61.534648 
L 484.707223 59.541281 
L 485.473496 58.934603 
L 487.006042 59.714617 
L 487.772315 59.974621 
L 488.538588 60.061289 
L 489.304861 59.974621 
L 490.071134 58.414595 
L 490.837407 59.10794 
L 491.60368 61.101307 
L 492.369953 58.501263 
L 493.136226 59.627949 
L 493.902499 58.501263 
L 494.668772 59.627949 
L 495.435045 59.367944 
L 496.201318 60.407962 
L 496.967591 60.061289 
L 497.733864 59.10794 
L 498.500137 60.754635 
L 499.26641 57.374577 
L 500.032683 58.587931 
L 500.798956 59.021272 
L 501.565229 60.234626 
L 502.331502 58.761267 
L 503.097775 59.281276 
L 503.864048 60.754635 
L 504.630321 60.147958 
L 505.396594 58.501263 
L 506.162867 57.721249 
L 506.92914 59.627949 
L 507.695413 58.847935 
L 508.461686 59.714617 
L 509.227959 58.674599 
L 509.994232 58.067922 
L 510.760505 59.021272 
L 511.526778 60.321294 
L 512.293051 60.147958 
L 513.059324 60.49463 
L 513.825597 59.714617 
L 514.59187 61.014639 
L 515.358143 59.714617 
L 516.890689 58.674599 
L 517.656962 61.101307 
L 518.423235 59.454612 
L 519.955781 58.761267 
L 520.722054 59.801285 
L 521.488327 58.587931 
L 522.2546 59.714617 
L 523.020873 59.454612 
L 523.787146 59.627949 
L 524.553419 58.067922 
L 525.319692 59.454612 
L 526.085965 58.847935 
L 526.852238 58.501263 
L 528.384784 59.974621 
L 529.151057 57.721249 
L 529.91733 57.894586 
L 530.683603 59.454612 
L 531.449876 59.281276 
L 532.216149 58.067922 
L 532.982422 58.241258 
L 533.748695 59.714617 
L 534.514968 57.807917 
L 535.281241 59.627949 
L 536.047514 59.974621 
L 536.813787 59.541281 
L 537.58006 58.674599 
L 538.346333 60.234626 
L 539.112606 57.20124 
L 539.878879 58.067922 
L 540.645152 56.507895 
L 541.411425 57.634581 
L 542.177698 59.021272 
L 542.943971 58.761267 
L 543.710244 59.627949 
L 544.476517 57.981254 
L 545.24279 58.847935 
L 546.009063 58.587931 
L 547.541609 59.10794 
L 548.307882 57.20124 
L 549.074155 57.894586 
L 549.840428 58.934603 
L 550.606701 59.454612 
L 551.372974 59.194608 
L 552.139247 59.10794 
L 552.90552 58.241258 
L 553.671793 58.15459 
L 554.438066 61.101307 
L 555.204339 57.114572 
L 555.970612 57.027904 
L 557.503158 58.501263 
L 558.269431 57.894586 
L 559.035704 58.15459 
L 559.801977 58.587931 
L 560.56825 56.681231 
L 561.334523 59.801285 
L 562.100796 57.287909 
L 562.867069 58.414595 
L 563.633342 56.247891 
L 564.399615 56.941236 
L 565.165888 58.501263 
L 565.932161 58.847935 
L 566.698434 57.634581 
L 567.464707 58.067922 
L 568.23098 57.287909 
L 568.997254 57.287909 
L 569.763527 56.854568 
L 570.5298 56.941236 
L 572.062346 59.974621 
L 572.828619 57.374577 
L 573.594892 58.761267 
L 574.361165 59.281276 
L 575.127438 56.854568 
L 575.893711 58.241258 
L 576.659984 56.941236 
L 577.426257 57.721249 
L 578.19253 57.461245 
L 578.958803 59.021272 
L 579.725076 57.20124 
L 580.491349 58.15459 
L 581.257622 57.287909 
L 582.023895 57.981254 
L 582.790168 57.634581 
L 583.556441 59.021272 
L 584.322714 58.847935 
L 585.088987 58.327926 
L 585.85526 57.20124 
L 586.621533 58.674599 
L 587.387806 56.7679 
L 588.154079 57.374577 
L 588.920352 57.461245 
L 589.686625 57.894586 
L 590.452898 60.147958 
L 591.219171 58.327926 
L 591.985444 57.721249 
L 592.751717 59.887953 
L 593.51799 57.894586 
L 594.284263 58.414595 
L 595.050536 57.287909 
L 595.816809 57.461245 
L 597.349355 57.027904 
L 598.115628 59.974621 
L 598.881901 58.501263 
L 599.648174 59.281276 
L 600.414447 55.901218 
L 601.18072 58.15459 
L 601.946993 56.421227 
L 602.713266 58.414595 
L 603.479539 56.074554 
L 604.245812 58.067922 
L 605.012085 57.20124 
L 605.778358 56.074554 
L 606.544631 58.067922 
L 607.310904 57.547913 
L 608.077177 57.981254 
L 608.84345 57.114572 
L 609.609723 58.501263 
L 610.375996 57.027904 
L 611.142269 57.20124 
L 611.908542 55.641214 
L 612.674815 57.634581 
L 613.441088 58.15459 
L 614.207361 55.81455 
L 615.739907 57.894586 
L 616.50618 58.414595 
L 617.272453 57.027904 
L 618.038726 56.7679 
L 618.804999 55.554545 
L 619.571272 58.501263 
L 620.337545 57.461245 
L 621.103818 55.727882 
L 621.870091 56.941236 
L 622.636364 57.721249 
L 622.636364 57.721249 
" style="fill:none;stroke:#1f77b4;stroke-linecap:square;stroke-width:0.5;"/>
   </g>
   <g id="line2d_32">
    <path clip-path="url(#pb60f67abbc)" d="M 115.363636 302.645455 
L 116.129909 293.45863 
L 118.428728 271.531587 
L 119.195001 270.491569 
L 119.961274 267.458184 
L 120.727547 259.484713 
L 123.026366 243.017764 
L 123.792639 243.624441 
L 124.558912 235.564303 
L 125.325185 232.357581 
L 126.091458 231.057559 
L 126.857731 227.24416 
L 127.624004 222.304075 
L 128.390277 221.350725 
L 129.15655 212.163901 
L 129.922823 210.517206 
L 130.689096 210.083865 
L 131.455369 201.157045 
L 132.221642 198.557001 
L 132.987915 198.990342 
L 134.520461 182.523392 
L 135.286734 179.750011 
L 136.053007 178.796661 
L 136.81928 172.903227 
L 137.585553 172.29655 
L 138.351826 163.36973 
L 139.118099 167.963142 
L 139.884372 157.476295 
L 140.650645 158.169641 
L 141.416918 155.309592 
L 142.183191 150.109502 
L 142.949464 152.276206 
L 143.715737 147.422789 
L 144.48201 144.996081 
L 145.248283 145.949431 
L 146.014556 140.749342 
L 146.780829 141.442687 
L 147.547102 134.682571 
L 148.313375 133.555885 
L 149.079648 137.629288 
L 149.845921 131.215845 
L 150.612194 134.162562 
L 152.14474 127.055773 
L 152.911013 128.095791 
L 153.677286 126.27576 
L 154.443559 128.789136 
L 155.209832 121.422343 
L 155.976105 123.155706 
L 156.742378 120.208989 
L 157.508651 124.802401 
L 158.274924 117.782281 
L 159.041197 117.522276 
L 161.340016 115.962249 
L 162.106289 117.522276 
L 162.872562 113.622209 
L 163.638835 112.842196 
L 164.405108 112.322187 
L 165.171381 114.662227 
L 165.937654 111.282169 
L 166.703927 113.1022 
L 167.4702 108.942129 
L 168.236473 108.855461 
L 169.002746 109.635474 
L 169.76902 110.76216 
L 170.535293 103.222031 
L 171.301566 108.162115 
L 172.067839 107.382102 
L 172.834112 102.442017 
L 173.600385 102.268681 
L 175.132931 103.395367 
L 175.899204 98.888623 
L 177.43175 102.355349 
L 178.198023 99.668636 
L 178.964296 101.055327 
L 179.730569 98.801955 
L 180.496842 102.442017 
L 182.029388 96.288578 
L 182.795661 99.408632 
L 183.561934 95.161892 
L 184.328207 95.24856 
L 185.09448 93.86187 
L 185.860753 93.081856 
L 186.627026 94.208542 
L 187.393299 94.901888 
L 188.159572 93.428529 
L 188.925845 94.035206 
L 189.692118 93.86187 
L 190.458391 92.648516 
L 191.224664 91.001821 
L 191.990937 93.515197 
L 192.75721 89.181789 
L 193.523483 92.648516 
L 194.289756 88.835117 
L 195.056029 89.268458 
L 195.822302 87.968435 
L 196.588575 91.175157 
L 197.354848 88.921785 
L 198.121121 89.701798 
L 198.887394 87.881767 
L 199.653667 89.008453 
L 200.41994 87.535095 
L 201.186213 87.968435 
L 201.952486 88.055103 
L 202.718759 86.668413 
L 203.485032 87.101754 
L 204.251305 88.661781 
L 205.017578 83.9817 
L 205.783851 87.27509 
L 206.550124 85.801731 
L 207.316397 85.801731 
L 208.08267 82.075001 
L 208.848943 82.59501 
L 209.615216 81.901664 
L 210.381489 83.721696 
L 211.147762 86.408409 
L 211.914035 83.375023 
L 213.446581 82.855014 
L 214.979127 83.548359 
L 216.511673 81.64166 
L 217.277946 84.241705 
L 218.044219 80.514974 
L 218.810492 79.041615 
L 219.576765 85.021718 
L 220.343038 81.208319 
L 221.109311 79.041615 
L 221.875584 82.421673 
L 222.641857 82.508342 
L 223.40813 81.381656 
L 224.174403 82.508342 
L 224.940676 79.734961 
L 225.706949 79.128284 
L 226.473222 81.121651 
L 227.239495 78.868279 
L 228.005768 78.868279 
L 228.772041 81.294987 
L 229.538314 78.088266 
L 230.304587 78.174934 
L 231.07086 80.774978 
L 231.837133 78.261602 
L 233.369679 76.96158 
L 234.135952 77.741593 
L 234.902225 79.734961 
L 236.434771 74.274867 
L 237.201044 79.128284 
L 237.967317 76.788243 
L 239.499863 78.261602 
L 240.266136 75.574889 
L 241.032409 76.181566 
L 241.798682 75.141548 
L 242.564955 77.39492 
L 243.331228 75.834894 
L 244.097501 75.574889 
L 244.863774 79.30162 
L 245.630047 75.574889 
L 246.39632 75.748226 
L 247.162593 75.748226 
L 247.928866 75.574889 
L 248.695139 75.921562 
L 249.461412 75.314885 
L 250.993958 75.05488 
L 251.760231 75.314885 
L 252.526504 74.448203 
L 253.292777 75.574889 
L 254.05905 76.00823 
L 254.825323 74.188199 
L 255.591596 75.661557 
L 256.357869 73.321517 
L 257.124142 76.701575 
L 257.890415 76.354903 
L 258.656688 73.754858 
L 259.422961 72.454836 
L 260.189234 73.66819 
L 260.955507 72.801508 
L 261.72178 72.541504 
L 262.488053 73.754858 
L 263.254326 72.541504 
L 264.020599 74.794876 
L 264.786872 74.361535 
L 265.553145 72.628172 
L 266.319418 74.621539 
L 267.085691 72.454836 
L 267.851964 70.981477 
L 268.618237 73.061513 
L 269.38451 74.361535 
L 270.150783 73.148181 
L 270.917056 71.32815 
L 271.683329 74.621539 
L 272.449602 72.454836 
L 273.215875 73.581522 
L 273.982148 71.934827 
L 275.514694 72.628172 
L 276.280967 71.414818 
L 277.04724 71.154813 
L 277.813513 71.588154 
L 278.579786 71.414818 
L 279.346059 74.014862 
L 280.112332 70.721473 
L 280.878605 72.368167 
L 281.644878 72.108163 
L 282.411151 71.32815 
L 283.177424 71.76149 
L 283.943697 71.934827 
L 284.70997 72.71484 
L 285.476243 70.3748 
L 286.242516 72.021495 
L 287.008789 70.894809 
L 287.775062 71.32815 
L 288.541335 70.721473 
L 289.307608 70.721473 
L 290.840154 72.888176 
L 291.606427 72.281499 
L 293.138973 72.194831 
L 293.905246 72.194831 
L 294.671519 71.32815 
L 295.437792 70.634804 
L 296.204065 73.581522 
L 296.970338 70.114795 
L 297.736611 70.114795 
L 298.502884 71.068145 
L 299.269157 72.368167 
L 300.03543 71.588154 
L 300.801703 70.201464 
L 301.567976 71.501486 
L 302.334249 71.501486 
L 303.100522 72.021495 
L 303.866795 71.588154 
L 304.633068 72.108163 
L 305.399341 72.888176 
L 306.165614 70.808141 
L 307.69816 70.721473 
L 308.464433 70.201464 
L 309.230706 70.808141 
L 309.996979 70.028127 
L 310.763252 69.941459 
L 311.529525 71.068145 
L 312.295798 71.068145 
L 313.062071 68.554769 
L 313.828344 70.461468 
L 314.594617 70.028127 
L 315.36089 68.728105 
L 316.127163 70.634804 
L 316.893436 70.3748 
L 317.659709 69.768123 
L 318.425982 72.368167 
L 319.192255 68.468101 
L 319.958528 71.154813 
L 320.724801 70.028127 
L 321.491074 68.381432 
L 322.257347 70.114795 
L 323.02362 69.42145 
L 323.789893 70.634804 
L 324.556166 69.508118 
L 325.322439 68.728105 
L 326.088712 69.248114 
L 326.854985 72.801508 
L 327.621258 69.768123 
L 329.153804 70.114795 
L 329.920077 66.561401 
L 330.68635 69.508118 
L 331.452623 71.154813 
L 332.218896 69.594787 
L 332.985169 68.554769 
L 333.751442 69.681455 
L 334.517715 71.068145 
L 336.050261 68.03476 
L 336.816534 70.114795 
L 337.582807 70.894809 
L 338.34908 70.808141 
L 339.115353 69.508118 
L 339.881626 71.32815 
L 340.647899 72.021495 
L 342.180445 67.948092 
L 342.946718 69.248114 
L 343.712991 70.201464 
L 344.479264 71.674822 
L 345.245537 67.861423 
L 346.01181 69.161446 
L 346.778083 69.334782 
L 347.544356 68.814773 
L 348.310629 69.681455 
L 349.076902 68.468101 
L 349.843175 69.508118 
L 350.609448 68.641437 
L 351.375721 68.988109 
L 352.141994 68.294764 
L 352.908267 68.641437 
L 353.67454 68.554769 
L 354.440813 68.208096 
L 355.207086 68.468101 
L 355.973359 68.554769 
L 356.739632 69.594787 
L 357.505905 68.814773 
L 358.272178 68.988109 
L 359.038451 67.341414 
L 359.804724 68.814773 
L 360.570997 67.688087 
L 361.33727 69.681455 
L 362.103543 69.594787 
L 362.869816 68.208096 
L 363.636089 66.561401 
L 364.402362 71.068145 
L 365.934908 67.774755 
L 366.701181 69.854791 
L 367.467454 68.468101 
L 368.233727 69.854791 
L 369 67.514751 
L 369.766273 70.288132 
L 370.532546 68.814773 
L 371.298819 67.948092 
L 372.065092 69.074778 
L 372.831365 69.854791 
L 373.597638 68.294764 
L 374.363911 66.994742 
L 375.130184 68.814773 
L 375.896457 68.208096 
L 376.66273 69.594787 
L 377.429003 66.388065 
L 378.195276 69.508118 
L 378.961549 71.241481 
L 379.727822 68.121428 
L 380.494095 68.988109 
L 381.260368 69.161446 
L 382.026641 68.814773 
L 382.792914 68.641437 
L 383.559187 66.12806 
L 384.32546 68.988109 
L 385.091733 67.428083 
L 385.858006 68.468101 
L 386.624279 66.214728 
L 387.390552 68.294764 
L 388.156825 67.774755 
L 388.923098 68.988109 
L 389.689371 69.42145 
L 390.455644 67.774755 
L 391.221917 69.508118 
L 391.98819 67.341414 
L 392.754463 68.554769 
L 393.520736 68.208096 
L 394.287009 68.208096 
L 395.053282 65.868056 
L 395.819555 67.254746 
L 396.585828 67.601419 
L 397.352101 66.12806 
L 398.118374 66.821406 
L 398.884647 66.648069 
L 399.65092 66.908074 
L 400.417193 69.334782 
L 402.716012 66.648069 
L 405.014831 67.774755 
L 405.781104 67.168078 
L 406.547377 66.214728 
L 407.31365 67.601419 
L 408.079923 64.914706 
L 408.846196 67.601419 
L 409.612469 68.03476 
L 410.378742 67.688087 
L 411.145015 68.468101 
L 411.911288 68.554769 
L 412.677561 67.254746 
L 413.443834 68.901441 
L 414.210107 68.121428 
L 414.97638 67.774755 
L 415.742653 68.728105 
L 417.275199 69.334782 
L 418.041472 66.041392 
L 418.807745 67.601419 
L 419.574018 65.608051 
L 420.340291 68.468101 
L 421.106564 68.208096 
L 421.872837 68.121428 
L 422.63911 68.294764 
L 423.405383 67.514751 
L 424.171656 68.208096 
L 424.937929 67.428083 
L 425.704202 65.69472 
L 426.470475 70.808141 
L 427.236748 67.514751 
L 428.003021 66.041392 
L 428.769294 67.514751 
L 429.535567 67.168078 
L 430.30184 70.461468 
L 431.068113 66.561401 
L 431.834386 67.861423 
L 432.600659 65.348047 
L 433.366932 66.301397 
L 434.899478 66.12806 
L 435.665751 67.861423 
L 436.432024 69.161446 
L 437.198297 68.381432 
L 437.96457 66.994742 
L 438.730843 67.428083 
L 439.497116 67.08141 
L 440.263389 66.561401 
L 441.029662 66.301397 
L 442.562208 66.734737 
L 443.328481 66.301397 
L 444.094754 67.948092 
L 444.861027 67.168078 
L 445.6273 68.294764 
L 446.393573 68.121428 
L 447.159846 67.254746 
L 447.926119 69.074778 
L 448.692392 69.161446 
L 449.458665 67.948092 
L 450.224938 67.514751 
L 450.991211 66.821406 
L 451.757484 67.774755 
L 452.523757 69.681455 
L 453.29003 67.168078 
L 454.056303 67.948092 
L 455.588849 66.474733 
L 456.355122 66.908074 
L 457.121395 67.168078 
L 457.887668 66.041392 
L 458.653941 67.514751 
L 459.420214 67.08141 
L 460.186487 69.42145 
L 460.95276 66.041392 
L 461.719033 65.69472 
L 462.485306 66.561401 
L 463.251579 66.908074 
L 464.017852 67.601419 
L 464.784125 67.514751 
L 465.550398 66.994742 
L 466.316671 67.688087 
L 467.082944 66.388065 
L 467.849217 66.388065 
L 468.61549 67.168078 
L 469.381763 64.221361 
L 470.148036 68.468101 
L 470.914309 67.168078 
L 471.680582 69.074778 
L 472.446855 69.074778 
L 473.213128 67.861423 
L 473.979401 68.381432 
L 474.745674 66.301397 
L 475.511947 66.561401 
L 476.27822 69.248114 
L 477.044493 68.03476 
L 477.810766 67.948092 
L 478.577039 68.381432 
L 479.343312 67.341414 
L 480.875858 67.341414 
L 481.642131 65.868056 
L 482.408404 67.254746 
L 483.174677 67.948092 
L 483.94095 66.908074 
L 484.707223 67.428083 
L 485.473496 67.08141 
L 487.006042 67.601419 
L 487.772315 66.734737 
L 488.538588 67.254746 
L 489.304861 68.988109 
L 490.071134 65.954724 
L 490.837407 66.474733 
L 491.60368 67.168078 
L 492.369953 69.508118 
L 493.136226 67.08141 
L 493.902499 66.908074 
L 494.668772 66.214728 
L 495.435045 68.121428 
L 496.201318 66.301397 
L 496.967591 66.908074 
L 497.733864 68.294764 
L 498.500137 67.341414 
L 499.26641 67.861423 
L 500.032683 65.608051 
L 500.798956 67.168078 
L 501.565229 66.994742 
L 503.097775 65.174711 
L 503.864048 67.601419 
L 504.630321 67.948092 
L 505.396594 66.994742 
L 506.162867 66.561401 
L 506.92914 67.601419 
L 507.695413 66.301397 
L 508.461686 65.69472 
L 509.227959 66.908074 
L 509.994232 67.168078 
L 510.760505 68.814773 
L 511.526778 66.214728 
L 512.293051 66.908074 
L 513.059324 66.474733 
L 513.825597 68.728105 
L 514.59187 66.994742 
L 515.358143 66.388065 
L 516.124416 67.601419 
L 516.890689 66.561401 
L 517.656962 68.468101 
L 518.423235 66.821406 
L 519.189508 65.781388 
L 519.955781 67.514751 
L 520.722054 67.514751 
L 521.488327 68.641437 
L 522.2546 67.948092 
L 523.020873 66.041392 
L 523.787146 66.041392 
L 524.553419 67.168078 
L 525.319692 67.774755 
L 526.085965 65.434715 
L 526.852238 66.561401 
L 527.618511 68.468101 
L 528.384784 64.308029 
L 529.151057 66.561401 
L 529.91733 67.428083 
L 530.683603 67.514751 
L 531.449876 65.608051 
L 532.216149 65.781388 
L 532.982422 67.168078 
L 533.748695 66.734737 
L 534.514968 66.908074 
L 535.281241 66.648069 
L 536.047514 67.428083 
L 536.813787 67.168078 
L 537.58006 65.261379 
L 538.346333 66.821406 
L 539.112606 67.08141 
L 539.878879 66.12806 
L 540.645152 67.601419 
L 541.411425 66.214728 
L 542.177698 67.514751 
L 542.943971 65.521383 
L 543.710244 67.774755 
L 544.476517 66.12806 
L 545.24279 67.08141 
L 546.009063 66.214728 
L 546.775336 68.121428 
L 547.541609 69.681455 
L 548.307882 65.174711 
L 549.074155 68.554769 
L 549.840428 65.781388 
L 550.606701 67.601419 
L 551.372974 67.774755 
L 552.139247 65.261379 
L 552.90552 65.608051 
L 553.671793 68.03476 
L 554.438066 66.388065 
L 555.970612 66.821406 
L 556.736885 66.12806 
L 557.503158 67.341414 
L 558.269431 69.074778 
L 559.035704 66.12806 
L 559.801977 67.861423 
L 560.56825 66.821406 
L 561.334523 66.994742 
L 562.100796 66.041392 
L 562.867069 67.168078 
L 564.399615 67.08141 
L 565.165888 66.301397 
L 565.932161 66.908074 
L 566.698434 65.868056 
L 567.464707 65.434715 
L 568.23098 67.254746 
L 568.997254 65.781388 
L 569.763527 66.994742 
L 570.5298 65.954724 
L 571.296073 67.514751 
L 572.062346 66.561401 
L 572.828619 68.468101 
L 573.594892 66.214728 
L 574.361165 65.261379 
L 575.127438 68.988109 
L 575.893711 65.954724 
L 576.659984 66.561401 
L 577.426257 66.388065 
L 578.19253 64.914706 
L 578.958803 68.03476 
L 579.725076 65.954724 
L 580.491349 67.514751 
L 581.257622 65.781388 
L 582.023895 66.908074 
L 582.790168 66.908074 
L 583.556441 66.12806 
L 584.322714 67.254746 
L 585.088987 67.514751 
L 586.621533 66.474733 
L 587.387806 66.821406 
L 588.920352 66.908074 
L 589.686625 66.648069 
L 590.452898 65.434715 
L 591.219171 66.648069 
L 591.985444 68.468101 
L 592.751717 65.69472 
L 593.51799 66.474733 
L 595.050536 67.168078 
L 595.816809 65.434715 
L 596.583082 67.601419 
L 597.349355 66.041392 
L 598.881901 67.08141 
L 599.648174 67.341414 
L 600.414447 67.428083 
L 601.18072 67.254746 
L 601.946993 67.514751 
L 602.713266 66.214728 
L 603.479539 65.868056 
L 604.245812 66.821406 
L 605.012085 67.514751 
L 605.778358 67.08141 
L 606.544631 67.168078 
L 607.310904 68.121428 
L 608.077177 66.561401 
L 609.609723 66.994742 
L 610.375996 66.561401 
L 611.142269 68.03476 
L 611.908542 67.948092 
L 612.674815 66.648069 
L 613.441088 67.168078 
L 614.207361 66.214728 
L 614.973634 66.821406 
L 615.739907 66.561401 
L 617.272453 67.774755 
L 618.038726 66.388065 
L 618.804999 66.648069 
L 619.571272 66.561401 
L 620.337545 67.601419 
L 621.103818 66.908074 
L 621.870091 66.388065 
L 622.636364 65.261379 
L 622.636364 65.261379 
" style="fill:none;stroke:#ff7f0e;stroke-linecap:square;stroke-width:0.5;"/>
   </g>
   <g id="patch_3">
    <path d="M 90 315 
L 90 43.2 
" style="fill:none;stroke:#000000;stroke-linecap:square;stroke-linejoin:miter;stroke-width:0.8;"/>
   </g>
   <g id="patch_4">
    <path d="M 648 315 
L 648 43.2 
" style="fill:none;stroke:#000000;stroke-linecap:square;stroke-linejoin:miter;stroke-width:0.8;"/>
   </g>
   <g id="patch_5">
    <path d="M 90 315 
L 648 315 
" style="fill:none;stroke:#000000;stroke-linecap:square;stroke-linejoin:miter;stroke-width:0.8;"/>
   </g>
   <g id="patch_6">
    <path d="M 90 43.2 
L 648 43.2 
" style="fill:none;stroke:#000000;stroke-linecap:square;stroke-linejoin:miter;stroke-width:0.8;"/>
   </g>
   <g id="text_18">
    <!-- accuracy -->
    <g transform="translate(341.92875 37.2)scale(0.12 -0.12)">
     <use xlink:href="#DejaVuSans-97"/>
     <use x="61.279297" xlink:href="#DejaVuSans-99"/>
     <use x="116.259766" xlink:href="#DejaVuSans-99"/>
     <use x="171.240234" xlink:href="#DejaVuSans-117"/>
     <use x="234.619141" xlink:href="#DejaVuSans-114"/>
     <use x="275.732422" xlink:href="#DejaVuSans-97"/>
     <use x="337.011719" xlink:href="#DejaVuSans-99"/>
     <use x="391.992188" xlink:href="#DejaVuSans-121"/>
    </g>
   </g>
   <g id="legend_1">
    <g id="patch_7">
     <path d="M 97 80.55625 
L 169.153125 80.55625 
Q 171.153125 80.55625 171.153125 78.55625 
L 171.153125 50.2 
Q 171.153125 48.2 169.153125 48.2 
L 97 48.2 
Q 95 48.2 95 50.2 
L 95 78.55625 
Q 95 80.55625 97 80.55625 
z
" style="fill:#ffffff;opacity:0.8;stroke:#cccccc;stroke-linejoin:miter;"/>
    </g>
    <g id="line2d_33">
     <path d="M 99 56.298437 
L 119 56.298437 
" style="fill:none;stroke:#1f77b4;stroke-linecap:square;stroke-width:0.5;"/>
    </g>
    <g id="line2d_34"/>
    <g id="text_19">
     <!-- train -->
     <defs>
      <path d="M 18.3125 70.21875 
L 18.3125 54.6875 
L 36.8125 54.6875 
L 36.8125 47.703125 
L 18.3125 47.703125 
L 18.3125 18.015625 
Q 18.3125 11.328125 20.140625 9.421875 
Q 21.96875 7.515625 27.59375 7.515625 
L 36.8125 7.515625 
L 36.8125 0 
L 27.59375 0 
Q 17.1875 0 13.234375 3.875 
Q 9.28125 7.765625 9.28125 18.015625 
L 9.28125 47.703125 
L 2.6875 47.703125 
L 2.6875 54.6875 
L 9.28125 54.6875 
L 9.28125 70.21875 
z
" id="DejaVuSans-116"/>
      <path d="M 9.421875 54.6875 
L 18.40625 54.6875 
L 18.40625 0 
L 9.421875 0 
z
M 9.421875 75.984375 
L 18.40625 75.984375 
L 18.40625 64.59375 
L 9.421875 64.59375 
z
" id="DejaVuSans-105"/>
      <path d="M 54.890625 33.015625 
L 54.890625 0 
L 45.90625 0 
L 45.90625 32.71875 
Q 45.90625 40.484375 42.875 44.328125 
Q 39.84375 48.1875 33.796875 48.1875 
Q 26.515625 48.1875 22.3125 43.546875 
Q 18.109375 38.921875 18.109375 30.90625 
L 18.109375 0 
L 9.078125 0 
L 9.078125 54.6875 
L 18.109375 54.6875 
L 18.109375 46.1875 
Q 21.34375 51.125 25.703125 53.5625 
Q 30.078125 56 35.796875 56 
Q 45.21875 56 50.046875 50.171875 
Q 54.890625 44.34375 54.890625 33.015625 
z
" id="DejaVuSans-110"/>
     </defs>
     <g transform="translate(127 59.798437)scale(0.1 -0.1)">
      <use xlink:href="#DejaVuSans-116"/>
      <use x="39.208984" xlink:href="#DejaVuSans-114"/>
      <use x="80.322266" xlink:href="#DejaVuSans-97"/>
      <use x="141.601562" xlink:href="#DejaVuSans-105"/>
      <use x="169.384766" xlink:href="#DejaVuSans-110"/>
     </g>
    </g>
    <g id="line2d_35">
     <path d="M 99 70.976562 
L 119 70.976562 
" style="fill:none;stroke:#ff7f0e;stroke-linecap:square;stroke-width:0.5;"/>
    </g>
    <g id="line2d_36"/>
    <g id="text_20">
     <!-- validate -->
     <defs>
      <path d="M 2.984375 54.6875 
L 12.5 54.6875 
L 29.59375 8.796875 
L 46.6875 54.6875 
L 56.203125 54.6875 
L 35.6875 0 
L 23.484375 0 
z
" id="DejaVuSans-118"/>
      <path d="M 9.421875 75.984375 
L 18.40625 75.984375 
L 18.40625 0 
L 9.421875 0 
z
" id="DejaVuSans-108"/>
      <path d="M 45.40625 46.390625 
L 45.40625 75.984375 
L 54.390625 75.984375 
L 54.390625 0 
L 45.40625 0 
L 45.40625 8.203125 
Q 42.578125 3.328125 38.25 0.953125 
Q 33.9375 -1.421875 27.875 -1.421875 
Q 17.96875 -1.421875 11.734375 6.484375 
Q 5.515625 14.40625 5.515625 27.296875 
Q 5.515625 40.1875 11.734375 48.09375 
Q 17.96875 56 27.875 56 
Q 33.9375 56 38.25 53.625 
Q 42.578125 51.265625 45.40625 46.390625 
z
M 14.796875 27.296875 
Q 14.796875 17.390625 18.875 11.75 
Q 22.953125 6.109375 30.078125 6.109375 
Q 37.203125 6.109375 41.296875 11.75 
Q 45.40625 17.390625 45.40625 27.296875 
Q 45.40625 37.203125 41.296875 42.84375 
Q 37.203125 48.484375 30.078125 48.484375 
Q 22.953125 48.484375 18.875 42.84375 
Q 14.796875 37.203125 14.796875 27.296875 
z
" id="DejaVuSans-100"/>
     </defs>
     <g transform="translate(127 74.476562)scale(0.1 -0.1)">
      <use xlink:href="#DejaVuSans-118"/>
      <use x="59.179688" xlink:href="#DejaVuSans-97"/>
      <use x="120.458984" xlink:href="#DejaVuSans-108"/>
      <use x="148.242188" xlink:href="#DejaVuSans-105"/>
      <use x="176.025391" xlink:href="#DejaVuSans-100"/>
      <use x="239.501953" xlink:href="#DejaVuSans-97"/>
      <use x="300.78125" xlink:href="#DejaVuSans-116"/>
      <use x="339.990234" xlink:href="#DejaVuSans-101"/>
     </g>
    </g>
   </g>
  </g>
 </g>
 <defs>
  <clipPath id="pb60f67abbc">
   <rect height="271.8" width="558" x="90" y="43.2"/>
  </clipPath>
 </defs>
</svg>
