<?xml version="1.0" encoding="utf-8" standalone="no"?>
<!DOCTYPE svg PUBLIC "-//W3C//DTD SVG 1.1//EN"
  "http://www.w3.org/Graphics/SVG/1.1/DTD/svg11.dtd">
<!-- Created with matplotlib (https://matplotlib.org/) -->
<svg height="360pt" version="1.1" viewBox="0 0 720 360" width="720pt" xmlns="http://www.w3.org/2000/svg" xmlns:xlink="http://www.w3.org/1999/xlink">
 <defs>
  <style type="text/css">
*{stroke-linecap:butt;stroke-linejoin:round;}
  </style>
 </defs>
 <g id="figure_1">
  <g id="patch_1">
   <path d="M 0 360 
L 720 360 
L 720 0 
L 0 0 
z
" style="fill:#ffffff;"/>
  </g>
  <g id="axes_1">
   <g id="patch_2">
    <path d="M 90 315 
L 648 315 
L 648 43.2 
L 90 43.2 
z
" style="fill:#ffffff;"/>
   </g>
   <g id="matplotlib.axis_1">
    <g id="xtick_1">
     <g id="line2d_1">
      <path clip-path="url(#p757238f2c8)" d="M 115.363636 315 
L 115.363636 43.2 
" style="fill:none;stroke:#b0b0b0;stroke-linecap:square;stroke-width:0.8;"/>
     </g>
     <g id="line2d_2">
      <defs>
       <path d="M 0 0 
L 0 3.5 
" id="m54dc1b4add" style="stroke:#000000;stroke-width:0.8;"/>
      </defs>
      <g>
       <use style="stroke:#000000;stroke-width:0.8;" x="115.363636" xlink:href="#m54dc1b4add" y="315"/>
      </g>
     </g>
     <g id="text_1">
      <!-- 0 -->
      <defs>
       <path d="M 31.78125 66.40625 
Q 24.171875 66.40625 20.328125 58.90625 
Q 16.5 51.421875 16.5 36.375 
Q 16.5 21.390625 20.328125 13.890625 
Q 24.171875 6.390625 31.78125 6.390625 
Q 39.453125 6.390625 43.28125 13.890625 
Q 47.125 21.390625 47.125 36.375 
Q 47.125 51.421875 43.28125 58.90625 
Q 39.453125 66.40625 31.78125 66.40625 
z
M 31.78125 74.21875 
Q 44.046875 74.21875 50.515625 64.515625 
Q 56.984375 54.828125 56.984375 36.375 
Q 56.984375 17.96875 50.515625 8.265625 
Q 44.046875 -1.421875 31.78125 -1.421875 
Q 19.53125 -1.421875 13.0625 8.265625 
Q 6.59375 17.96875 6.59375 36.375 
Q 6.59375 54.828125 13.0625 64.515625 
Q 19.53125 74.21875 31.78125 74.21875 
z
" id="DejaVuSans-48"/>
      </defs>
      <g transform="translate(112.182386 329.598437)scale(0.1 -0.1)">
       <use xlink:href="#DejaVuSans-48"/>
      </g>
     </g>
    </g>
    <g id="xtick_2">
     <g id="line2d_3">
      <path clip-path="url(#p757238f2c8)" d="M 226.121874 315 
L 226.121874 43.2 
" style="fill:none;stroke:#b0b0b0;stroke-linecap:square;stroke-width:0.8;"/>
     </g>
     <g id="line2d_4">
      <g>
       <use style="stroke:#000000;stroke-width:0.8;" x="226.121874" xlink:href="#m54dc1b4add" y="315"/>
      </g>
     </g>
     <g id="text_2">
      <!-- 100 -->
      <defs>
       <path d="M 12.40625 8.296875 
L 28.515625 8.296875 
L 28.515625 63.921875 
L 10.984375 60.40625 
L 10.984375 69.390625 
L 28.421875 72.90625 
L 38.28125 72.90625 
L 38.28125 8.296875 
L 54.390625 8.296875 
L 54.390625 0 
L 12.40625 0 
z
" id="DejaVuSans-49"/>
      </defs>
      <g transform="translate(216.578124 329.598437)scale(0.1 -0.1)">
       <use xlink:href="#DejaVuSans-49"/>
       <use x="63.623047" xlink:href="#DejaVuSans-48"/>
       <use x="127.246094" xlink:href="#DejaVuSans-48"/>
      </g>
     </g>
    </g>
    <g id="xtick_3">
     <g id="line2d_5">
      <path clip-path="url(#p757238f2c8)" d="M 336.880111 315 
L 336.880111 43.2 
" style="fill:none;stroke:#b0b0b0;stroke-linecap:square;stroke-width:0.8;"/>
     </g>
     <g id="line2d_6">
      <g>
       <use style="stroke:#000000;stroke-width:0.8;" x="336.880111" xlink:href="#m54dc1b4add" y="315"/>
      </g>
     </g>
     <g id="text_3">
      <!-- 200 -->
      <defs>
       <path d="M 19.1875 8.296875 
L 53.609375 8.296875 
L 53.609375 0 
L 7.328125 0 
L 7.328125 8.296875 
Q 12.9375 14.109375 22.625 23.890625 
Q 32.328125 33.6875 34.8125 36.53125 
Q 39.546875 41.84375 41.421875 45.53125 
Q 43.3125 49.21875 43.3125 52.78125 
Q 43.3125 58.59375 39.234375 62.25 
Q 35.15625 65.921875 28.609375 65.921875 
Q 23.96875 65.921875 18.8125 64.3125 
Q 13.671875 62.703125 7.8125 59.421875 
L 7.8125 69.390625 
Q 13.765625 71.78125 18.9375 73 
Q 24.125 74.21875 28.421875 74.21875 
Q 39.75 74.21875 46.484375 68.546875 
Q 53.21875 62.890625 53.21875 53.421875 
Q 53.21875 48.921875 51.53125 44.890625 
Q 49.859375 40.875 45.40625 35.40625 
Q 44.1875 33.984375 37.640625 27.21875 
Q 31.109375 20.453125 19.1875 8.296875 
z
" id="DejaVuSans-50"/>
      </defs>
      <g transform="translate(327.336361 329.598437)scale(0.1 -0.1)">
       <use xlink:href="#DejaVuSans-50"/>
       <use x="63.623047" xlink:href="#DejaVuSans-48"/>
       <use x="127.246094" xlink:href="#DejaVuSans-48"/>
      </g>
     </g>
    </g>
    <g id="xtick_4">
     <g id="line2d_7">
      <path clip-path="url(#p757238f2c8)" d="M 447.638349 315 
L 447.638349 43.2 
" style="fill:none;stroke:#b0b0b0;stroke-linecap:square;stroke-width:0.8;"/>
     </g>
     <g id="line2d_8">
      <g>
       <use style="stroke:#000000;stroke-width:0.8;" x="447.638349" xlink:href="#m54dc1b4add" y="315"/>
      </g>
     </g>
     <g id="text_4">
      <!-- 300 -->
      <defs>
       <path d="M 40.578125 39.3125 
Q 47.65625 37.796875 51.625 33 
Q 55.609375 28.21875 55.609375 21.1875 
Q 55.609375 10.40625 48.1875 4.484375 
Q 40.765625 -1.421875 27.09375 -1.421875 
Q 22.515625 -1.421875 17.65625 -0.515625 
Q 12.796875 0.390625 7.625 2.203125 
L 7.625 11.71875 
Q 11.71875 9.328125 16.59375 8.109375 
Q 21.484375 6.890625 26.8125 6.890625 
Q 36.078125 6.890625 40.9375 10.546875 
Q 45.796875 14.203125 45.796875 21.1875 
Q 45.796875 27.640625 41.28125 31.265625 
Q 36.765625 34.90625 28.71875 34.90625 
L 20.21875 34.90625 
L 20.21875 43.015625 
L 29.109375 43.015625 
Q 36.375 43.015625 40.234375 45.921875 
Q 44.09375 48.828125 44.09375 54.296875 
Q 44.09375 59.90625 40.109375 62.90625 
Q 36.140625 65.921875 28.71875 65.921875 
Q 24.65625 65.921875 20.015625 65.03125 
Q 15.375 64.15625 9.8125 62.3125 
L 9.8125 71.09375 
Q 15.4375 72.65625 20.34375 73.4375 
Q 25.25 74.21875 29.59375 74.21875 
Q 40.828125 74.21875 47.359375 69.109375 
Q 53.90625 64.015625 53.90625 55.328125 
Q 53.90625 49.265625 50.4375 45.09375 
Q 46.96875 40.921875 40.578125 39.3125 
z
" id="DejaVuSans-51"/>
      </defs>
      <g transform="translate(438.094599 329.598437)scale(0.1 -0.1)">
       <use xlink:href="#DejaVuSans-51"/>
       <use x="63.623047" xlink:href="#DejaVuSans-48"/>
       <use x="127.246094" xlink:href="#DejaVuSans-48"/>
      </g>
     </g>
    </g>
    <g id="xtick_5">
     <g id="line2d_9">
      <path clip-path="url(#p757238f2c8)" d="M 558.396586 315 
L 558.396586 43.2 
" style="fill:none;stroke:#b0b0b0;stroke-linecap:square;stroke-width:0.8;"/>
     </g>
     <g id="line2d_10">
      <g>
       <use style="stroke:#000000;stroke-width:0.8;" x="558.396586" xlink:href="#m54dc1b4add" y="315"/>
      </g>
     </g>
     <g id="text_5">
      <!-- 400 -->
      <defs>
       <path d="M 37.796875 64.3125 
L 12.890625 25.390625 
L 37.796875 25.390625 
z
M 35.203125 72.90625 
L 47.609375 72.90625 
L 47.609375 25.390625 
L 58.015625 25.390625 
L 58.015625 17.1875 
L 47.609375 17.1875 
L 47.609375 0 
L 37.796875 0 
L 37.796875 17.1875 
L 4.890625 17.1875 
L 4.890625 26.703125 
z
" id="DejaVuSans-52"/>
      </defs>
      <g transform="translate(548.852836 329.598437)scale(0.1 -0.1)">
       <use xlink:href="#DejaVuSans-52"/>
       <use x="63.623047" xlink:href="#DejaVuSans-48"/>
       <use x="127.246094" xlink:href="#DejaVuSans-48"/>
      </g>
     </g>
    </g>
    <g id="text_6">
     <!-- epoch -->
     <defs>
      <path d="M 56.203125 29.59375 
L 56.203125 25.203125 
L 14.890625 25.203125 
Q 15.484375 15.921875 20.484375 11.0625 
Q 25.484375 6.203125 34.421875 6.203125 
Q 39.59375 6.203125 44.453125 7.46875 
Q 49.3125 8.734375 54.109375 11.28125 
L 54.109375 2.78125 
Q 49.265625 0.734375 44.1875 -0.34375 
Q 39.109375 -1.421875 33.890625 -1.421875 
Q 20.796875 -1.421875 13.15625 6.1875 
Q 5.515625 13.8125 5.515625 26.8125 
Q 5.515625 40.234375 12.765625 48.109375 
Q 20.015625 56 32.328125 56 
Q 43.359375 56 49.78125 48.890625 
Q 56.203125 41.796875 56.203125 29.59375 
z
M 47.21875 32.234375 
Q 47.125 39.59375 43.09375 43.984375 
Q 39.0625 48.390625 32.421875 48.390625 
Q 24.90625 48.390625 20.390625 44.140625 
Q 15.875 39.890625 15.1875 32.171875 
z
" id="DejaVuSans-101"/>
      <path d="M 18.109375 8.203125 
L 18.109375 -20.796875 
L 9.078125 -20.796875 
L 9.078125 54.6875 
L 18.109375 54.6875 
L 18.109375 46.390625 
Q 20.953125 51.265625 25.265625 53.625 
Q 29.59375 56 35.59375 56 
Q 45.5625 56 51.78125 48.09375 
Q 58.015625 40.1875 58.015625 27.296875 
Q 58.015625 14.40625 51.78125 6.484375 
Q 45.5625 -1.421875 35.59375 -1.421875 
Q 29.59375 -1.421875 25.265625 0.953125 
Q 20.953125 3.328125 18.109375 8.203125 
z
M 48.6875 27.296875 
Q 48.6875 37.203125 44.609375 42.84375 
Q 40.53125 48.484375 33.40625 48.484375 
Q 26.265625 48.484375 22.1875 42.84375 
Q 18.109375 37.203125 18.109375 27.296875 
Q 18.109375 17.390625 22.1875 11.75 
Q 26.265625 6.109375 33.40625 6.109375 
Q 40.53125 6.109375 44.609375 11.75 
Q 48.6875 17.390625 48.6875 27.296875 
z
" id="DejaVuSans-112"/>
      <path d="M 30.609375 48.390625 
Q 23.390625 48.390625 19.1875 42.75 
Q 14.984375 37.109375 14.984375 27.296875 
Q 14.984375 17.484375 19.15625 11.84375 
Q 23.34375 6.203125 30.609375 6.203125 
Q 37.796875 6.203125 41.984375 11.859375 
Q 46.1875 17.53125 46.1875 27.296875 
Q 46.1875 37.015625 41.984375 42.703125 
Q 37.796875 48.390625 30.609375 48.390625 
z
M 30.609375 56 
Q 42.328125 56 49.015625 48.375 
Q 55.71875 40.765625 55.71875 27.296875 
Q 55.71875 13.875 49.015625 6.21875 
Q 42.328125 -1.421875 30.609375 -1.421875 
Q 18.84375 -1.421875 12.171875 6.21875 
Q 5.515625 13.875 5.515625 27.296875 
Q 5.515625 40.765625 12.171875 48.375 
Q 18.84375 56 30.609375 56 
z
" id="DejaVuSans-111"/>
      <path d="M 48.78125 52.59375 
L 48.78125 44.1875 
Q 44.96875 46.296875 41.140625 47.34375 
Q 37.3125 48.390625 33.40625 48.390625 
Q 24.65625 48.390625 19.8125 42.84375 
Q 14.984375 37.3125 14.984375 27.296875 
Q 14.984375 17.28125 19.8125 11.734375 
Q 24.65625 6.203125 33.40625 6.203125 
Q 37.3125 6.203125 41.140625 7.25 
Q 44.96875 8.296875 48.78125 10.40625 
L 48.78125 2.09375 
Q 45.015625 0.34375 40.984375 -0.53125 
Q 36.96875 -1.421875 32.421875 -1.421875 
Q 20.0625 -1.421875 12.78125 6.34375 
Q 5.515625 14.109375 5.515625 27.296875 
Q 5.515625 40.671875 12.859375 48.328125 
Q 20.21875 56 33.015625 56 
Q 37.15625 56 41.109375 55.140625 
Q 45.0625 54.296875 48.78125 52.59375 
z
" id="DejaVuSans-99"/>
      <path d="M 54.890625 33.015625 
L 54.890625 0 
L 45.90625 0 
L 45.90625 32.71875 
Q 45.90625 40.484375 42.875 44.328125 
Q 39.84375 48.1875 33.796875 48.1875 
Q 26.515625 48.1875 22.3125 43.546875 
Q 18.109375 38.921875 18.109375 30.90625 
L 18.109375 0 
L 9.078125 0 
L 9.078125 75.984375 
L 18.109375 75.984375 
L 18.109375 46.1875 
Q 21.34375 51.125 25.703125 53.5625 
Q 30.078125 56 35.796875 56 
Q 45.21875 56 50.046875 50.171875 
Q 54.890625 44.34375 54.890625 33.015625 
z
" id="DejaVuSans-104"/>
     </defs>
     <g transform="translate(353.771875 343.276563)scale(0.1 -0.1)">
      <use xlink:href="#DejaVuSans-101"/>
      <use x="61.523438" xlink:href="#DejaVuSans-112"/>
      <use x="125" xlink:href="#DejaVuSans-111"/>
      <use x="186.181641" xlink:href="#DejaVuSans-99"/>
      <use x="241.162109" xlink:href="#DejaVuSans-104"/>
     </g>
    </g>
   </g>
   <g id="matplotlib.axis_2">
    <g id="ytick_1">
     <g id="line2d_11">
      <path clip-path="url(#p757238f2c8)" d="M 90 274.897668 
L 648 274.897668 
" style="fill:none;stroke:#b0b0b0;stroke-linecap:square;stroke-width:0.8;"/>
     </g>
     <g id="line2d_12">
      <defs>
       <path d="M 0 0 
L -3.5 0 
" id="me530cd4e5e" style="stroke:#000000;stroke-width:0.8;"/>
      </defs>
      <g>
       <use style="stroke:#000000;stroke-width:0.8;" x="90" xlink:href="#me530cd4e5e" y="274.897668"/>
      </g>
     </g>
     <g id="text_7">
      <!-- 0.2 -->
      <defs>
       <path d="M 10.6875 12.40625 
L 21 12.40625 
L 21 0 
L 10.6875 0 
z
" id="DejaVuSans-46"/>
      </defs>
      <g transform="translate(67.096875 278.696887)scale(0.1 -0.1)">
       <use xlink:href="#DejaVuSans-48"/>
       <use x="63.623047" xlink:href="#DejaVuSans-46"/>
       <use x="95.410156" xlink:href="#DejaVuSans-50"/>
      </g>
     </g>
    </g>
    <g id="ytick_2">
     <g id="line2d_13">
      <path clip-path="url(#p757238f2c8)" d="M 90 232.631544 
L 648 232.631544 
" style="fill:none;stroke:#b0b0b0;stroke-linecap:square;stroke-width:0.8;"/>
     </g>
     <g id="line2d_14">
      <g>
       <use style="stroke:#000000;stroke-width:0.8;" x="90" xlink:href="#me530cd4e5e" y="232.631544"/>
      </g>
     </g>
     <g id="text_8">
      <!-- 0.4 -->
      <g transform="translate(67.096875 236.430762)scale(0.1 -0.1)">
       <use xlink:href="#DejaVuSans-48"/>
       <use x="63.623047" xlink:href="#DejaVuSans-46"/>
       <use x="95.410156" xlink:href="#DejaVuSans-52"/>
      </g>
     </g>
    </g>
    <g id="ytick_3">
     <g id="line2d_15">
      <path clip-path="url(#p757238f2c8)" d="M 90 190.365419 
L 648 190.365419 
" style="fill:none;stroke:#b0b0b0;stroke-linecap:square;stroke-width:0.8;"/>
     </g>
     <g id="line2d_16">
      <g>
       <use style="stroke:#000000;stroke-width:0.8;" x="90" xlink:href="#me530cd4e5e" y="190.365419"/>
      </g>
     </g>
     <g id="text_9">
      <!-- 0.6 -->
      <defs>
       <path d="M 33.015625 40.375 
Q 26.375 40.375 22.484375 35.828125 
Q 18.609375 31.296875 18.609375 23.390625 
Q 18.609375 15.53125 22.484375 10.953125 
Q 26.375 6.390625 33.015625 6.390625 
Q 39.65625 6.390625 43.53125 10.953125 
Q 47.40625 15.53125 47.40625 23.390625 
Q 47.40625 31.296875 43.53125 35.828125 
Q 39.65625 40.375 33.015625 40.375 
z
M 52.59375 71.296875 
L 52.59375 62.3125 
Q 48.875 64.0625 45.09375 64.984375 
Q 41.3125 65.921875 37.59375 65.921875 
Q 27.828125 65.921875 22.671875 59.328125 
Q 17.53125 52.734375 16.796875 39.40625 
Q 19.671875 43.65625 24.015625 45.921875 
Q 28.375 48.1875 33.59375 48.1875 
Q 44.578125 48.1875 50.953125 41.515625 
Q 57.328125 34.859375 57.328125 23.390625 
Q 57.328125 12.15625 50.6875 5.359375 
Q 44.046875 -1.421875 33.015625 -1.421875 
Q 20.359375 -1.421875 13.671875 8.265625 
Q 6.984375 17.96875 6.984375 36.375 
Q 6.984375 53.65625 15.1875 63.9375 
Q 23.390625 74.21875 37.203125 74.21875 
Q 40.921875 74.21875 44.703125 73.484375 
Q 48.484375 72.75 52.59375 71.296875 
z
" id="DejaVuSans-54"/>
      </defs>
      <g transform="translate(67.096875 194.164638)scale(0.1 -0.1)">
       <use xlink:href="#DejaVuSans-48"/>
       <use x="63.623047" xlink:href="#DejaVuSans-46"/>
       <use x="95.410156" xlink:href="#DejaVuSans-54"/>
      </g>
     </g>
    </g>
    <g id="ytick_4">
     <g id="line2d_17">
      <path clip-path="url(#p757238f2c8)" d="M 90 148.099295 
L 648 148.099295 
" style="fill:none;stroke:#b0b0b0;stroke-linecap:square;stroke-width:0.8;"/>
     </g>
     <g id="line2d_18">
      <g>
       <use style="stroke:#000000;stroke-width:0.8;" x="90" xlink:href="#me530cd4e5e" y="148.099295"/>
      </g>
     </g>
     <g id="text_10">
      <!-- 0.8 -->
      <defs>
       <path d="M 31.78125 34.625 
Q 24.75 34.625 20.71875 30.859375 
Q 16.703125 27.09375 16.703125 20.515625 
Q 16.703125 13.921875 20.71875 10.15625 
Q 24.75 6.390625 31.78125 6.390625 
Q 38.8125 6.390625 42.859375 10.171875 
Q 46.921875 13.96875 46.921875 20.515625 
Q 46.921875 27.09375 42.890625 30.859375 
Q 38.875 34.625 31.78125 34.625 
z
M 21.921875 38.8125 
Q 15.578125 40.375 12.03125 44.71875 
Q 8.5 49.078125 8.5 55.328125 
Q 8.5 64.0625 14.71875 69.140625 
Q 20.953125 74.21875 31.78125 74.21875 
Q 42.671875 74.21875 48.875 69.140625 
Q 55.078125 64.0625 55.078125 55.328125 
Q 55.078125 49.078125 51.53125 44.71875 
Q 48 40.375 41.703125 38.8125 
Q 48.828125 37.15625 52.796875 32.3125 
Q 56.78125 27.484375 56.78125 20.515625 
Q 56.78125 9.90625 50.3125 4.234375 
Q 43.84375 -1.421875 31.78125 -1.421875 
Q 19.734375 -1.421875 13.25 4.234375 
Q 6.78125 9.90625 6.78125 20.515625 
Q 6.78125 27.484375 10.78125 32.3125 
Q 14.796875 37.15625 21.921875 38.8125 
z
M 18.3125 54.390625 
Q 18.3125 48.734375 21.84375 45.5625 
Q 25.390625 42.390625 31.78125 42.390625 
Q 38.140625 42.390625 41.71875 45.5625 
Q 45.3125 48.734375 45.3125 54.390625 
Q 45.3125 60.0625 41.71875 63.234375 
Q 38.140625 66.40625 31.78125 66.40625 
Q 25.390625 66.40625 21.84375 63.234375 
Q 18.3125 60.0625 18.3125 54.390625 
z
" id="DejaVuSans-56"/>
      </defs>
      <g transform="translate(67.096875 151.898514)scale(0.1 -0.1)">
       <use xlink:href="#DejaVuSans-48"/>
       <use x="63.623047" xlink:href="#DejaVuSans-46"/>
       <use x="95.410156" xlink:href="#DejaVuSans-56"/>
      </g>
     </g>
    </g>
    <g id="ytick_5">
     <g id="line2d_19">
      <path clip-path="url(#p757238f2c8)" d="M 90 105.833171 
L 648 105.833171 
" style="fill:none;stroke:#b0b0b0;stroke-linecap:square;stroke-width:0.8;"/>
     </g>
     <g id="line2d_20">
      <g>
       <use style="stroke:#000000;stroke-width:0.8;" x="90" xlink:href="#me530cd4e5e" y="105.833171"/>
      </g>
     </g>
     <g id="text_11">
      <!-- 1.0 -->
      <g transform="translate(67.096875 109.632389)scale(0.1 -0.1)">
       <use xlink:href="#DejaVuSans-49"/>
       <use x="63.623047" xlink:href="#DejaVuSans-46"/>
       <use x="95.410156" xlink:href="#DejaVuSans-48"/>
      </g>
     </g>
    </g>
    <g id="ytick_6">
     <g id="line2d_21">
      <path clip-path="url(#p757238f2c8)" d="M 90 63.567046 
L 648 63.567046 
" style="fill:none;stroke:#b0b0b0;stroke-linecap:square;stroke-width:0.8;"/>
     </g>
     <g id="line2d_22">
      <g>
       <use style="stroke:#000000;stroke-width:0.8;" x="90" xlink:href="#me530cd4e5e" y="63.567046"/>
      </g>
     </g>
     <g id="text_12">
      <!-- 1.2 -->
      <g transform="translate(67.096875 67.366265)scale(0.1 -0.1)">
       <use xlink:href="#DejaVuSans-49"/>
       <use x="63.623047" xlink:href="#DejaVuSans-46"/>
       <use x="95.410156" xlink:href="#DejaVuSans-50"/>
      </g>
     </g>
    </g>
    <g id="text_13">
     <!-- loss -->
     <defs>
      <path d="M 9.421875 75.984375 
L 18.40625 75.984375 
L 18.40625 0 
L 9.421875 0 
z
" id="DejaVuSans-108"/>
      <path d="M 44.28125 53.078125 
L 44.28125 44.578125 
Q 40.484375 46.53125 36.375 47.5 
Q 32.28125 48.484375 27.875 48.484375 
Q 21.1875 48.484375 17.84375 46.4375 
Q 14.5 44.390625 14.5 40.28125 
Q 14.5 37.15625 16.890625 35.375 
Q 19.28125 33.59375 26.515625 31.984375 
L 29.59375 31.296875 
Q 39.15625 29.25 43.1875 25.515625 
Q 47.21875 21.78125 47.21875 15.09375 
Q 47.21875 7.46875 41.1875 3.015625 
Q 35.15625 -1.421875 24.609375 -1.421875 
Q 20.21875 -1.421875 15.453125 -0.5625 
Q 10.6875 0.296875 5.421875 2 
L 5.421875 11.28125 
Q 10.40625 8.6875 15.234375 7.390625 
Q 20.0625 6.109375 24.8125 6.109375 
Q 31.15625 6.109375 34.5625 8.28125 
Q 37.984375 10.453125 37.984375 14.40625 
Q 37.984375 18.0625 35.515625 20.015625 
Q 33.0625 21.96875 24.703125 23.78125 
L 21.578125 24.515625 
Q 13.234375 26.265625 9.515625 29.90625 
Q 5.8125 33.546875 5.8125 39.890625 
Q 5.8125 47.609375 11.28125 51.796875 
Q 16.75 56 26.8125 56 
Q 31.78125 56 36.171875 55.265625 
Q 40.578125 54.546875 44.28125 53.078125 
z
" id="DejaVuSans-115"/>
     </defs>
     <g transform="translate(61.017187 188.757812)rotate(-90)scale(0.1 -0.1)">
      <use xlink:href="#DejaVuSans-108"/>
      <use x="27.783203" xlink:href="#DejaVuSans-111"/>
      <use x="88.964844" xlink:href="#DejaVuSans-115"/>
      <use x="141.064453" xlink:href="#DejaVuSans-115"/>
     </g>
    </g>
   </g>
   <g id="line2d_23">
    <path clip-path="url(#p757238f2c8)" d="M 115.363636 57.683583 
L 116.471219 69.024329 
L 118.686383 83.373893 
L 119.793966 83.114061 
L 120.901548 87.214119 
L 122.009131 89.456626 
L 123.116713 92.002181 
L 126.43946 96.433325 
L 127.547042 99.419816 
L 128.654625 99.558968 
L 129.762207 102.751186 
L 130.86979 102.374296 
L 131.977372 103.558122 
L 134.192537 107.455299 
L 135.300119 108.4212 
L 136.407701 111.563161 
L 137.515284 109.303636 
L 138.622866 113.349484 
L 139.730449 116.408373 
L 140.838031 118.089663 
L 141.945613 121.734867 
L 143.053196 119.331908 
L 144.160778 122.200526 
L 145.26836 125.534709 
L 146.375943 124.792443 
L 147.483525 127.410798 
L 148.591108 129.373671 
L 150.806272 134.675422 
L 151.913855 135.632624 
L 154.129019 145.336786 
L 155.236602 144.982968 
L 156.344184 147.640573 
L 157.451767 149.057456 
L 158.559349 153.824049 
L 159.666931 156.845586 
L 160.774514 161.255548 
L 161.882096 163.515007 
L 162.989678 162.05571 
L 164.097261 165.108695 
L 165.204843 170.467571 
L 166.312426 171.783449 
L 167.420008 173.55724 
L 168.52759 178.182713 
L 169.635173 179.227164 
L 170.742755 183.287904 
L 172.95792 188.662213 
L 174.065502 192.537892 
L 175.173085 192.281708 
L 176.280667 196.760691 
L 177.388249 201.927191 
L 178.495832 198.586001 
L 179.603414 198.363249 
L 180.710996 205.098234 
L 181.818579 209.284742 
L 184.033744 209.661993 
L 185.141326 211.711101 
L 186.248908 215.764965 
L 187.356491 216.852128 
L 188.464073 220.16639 
L 189.571655 221.161712 
L 190.679238 221.605931 
L 191.78682 225.853494 
L 192.894403 226.433957 
L 194.001985 228.704947 
L 196.21715 232.811189 
L 197.324732 232.528261 
L 198.432314 233.35114 
L 199.539897 233.869969 
L 200.647479 235.481411 
L 202.862644 240.694428 
L 203.970226 239.037649 
L 205.077809 242.396146 
L 206.185391 243.218879 
L 207.292973 244.576702 
L 208.400556 243.331244 
L 209.508138 243.492769 
L 210.615721 245.09072 
L 211.723303 248.429844 
L 212.830885 247.318322 
L 213.938468 246.765808 
L 215.04605 248.92403 
L 216.153632 246.796674 
L 218.368797 253.066259 
L 219.47638 250.320832 
L 220.583962 251.926265 
L 221.691544 251.867266 
L 223.906709 254.194644 
L 225.014291 253.458032 
L 226.121874 255.182418 
L 227.229456 256.095286 
L 228.337039 254.880614 
L 229.444621 257.158893 
L 230.552203 253.850357 
L 231.659786 258.677015 
L 232.767368 257.09746 
L 233.87495 256.978562 
L 234.982533 259.755102 
L 236.090115 258.558462 
L 237.197697 258.631687 
L 238.30528 259.782701 
L 239.412862 259.419083 
L 240.520445 262.947875 
L 241.628027 261.278516 
L 242.735609 262.079342 
L 243.843192 262.221365 
L 244.950774 261.219406 
L 246.058356 260.662629 
L 247.165939 262.367696 
L 248.273521 263.844169 
L 249.381104 260.584696 
L 250.488686 263.449892 
L 251.596268 264.674439 
L 252.703851 264.536379 
L 253.811433 262.120319 
L 254.919015 266.572819 
L 256.026598 264.017012 
L 257.13418 267.03907 
L 258.241763 266.334343 
L 259.349345 265.344938 
L 260.456927 266.622807 
L 261.56451 267.600352 
L 262.672092 266.003984 
L 263.779674 268.292338 
L 264.887257 267.404217 
L 265.994839 269.065181 
L 267.102422 268.76545 
L 268.210004 270.558765 
L 269.317586 268.408507 
L 270.425169 269.574247 
L 271.532751 271.156136 
L 272.640333 269.991263 
L 273.747916 271.741828 
L 274.855498 270.446485 
L 275.963081 273.04971 
L 277.070663 270.490751 
L 278.178245 270.847103 
L 279.285828 272.036978 
L 280.39341 274.681073 
L 281.500992 271.174515 
L 282.608575 272.779789 
L 283.716157 271.71451 
L 284.82374 272.939331 
L 285.931322 272.67246 
L 287.038904 274.989933 
L 288.146487 276.065173 
L 289.254069 272.192611 
L 290.361651 272.856269 
L 291.469234 275.386316 
L 292.576816 274.79711 
L 293.684399 274.006312 
L 294.791981 274.586966 
L 295.899563 277.222897 
L 297.007146 272.931661 
L 298.114728 278.505737 
L 300.329893 275.73024 
L 302.545058 276.275623 
L 304.760222 275.926744 
L 305.867805 278.277304 
L 306.975387 277.383581 
L 308.082969 277.83338 
L 309.190552 280.272507 
L 310.298134 276.897175 
L 311.405717 278.055917 
L 312.513299 277.814235 
L 313.620881 280.192359 
L 314.728464 277.05588 
L 315.836046 277.052672 
L 316.943628 280.680029 
L 318.051211 280.856792 
L 319.158793 279.665883 
L 320.266376 281.753192 
L 321.373958 279.20198 
L 322.48154 278.509366 
L 323.589123 280.19986 
L 324.696705 279.670268 
L 325.804287 280.737466 
L 326.91187 279.726303 
L 328.019452 279.677054 
L 329.127035 280.62999 
L 331.342199 281.585581 
L 332.449782 278.711955 
L 333.557364 280.719303 
L 334.664946 281.194843 
L 335.772529 281.244825 
L 336.880111 282.254183 
L 337.987694 281.428775 
L 339.095276 283.729276 
L 340.202858 282.917226 
L 341.310441 280.851542 
L 342.418023 281.684833 
L 343.525605 284.632991 
L 344.633188 282.758294 
L 345.74077 283.493129 
L 346.848353 282.660975 
L 347.955935 283.901598 
L 349.063517 284.283754 
L 350.1711 284.477788 
L 351.278682 284.489769 
L 353.493847 282.327589 
L 354.601429 285.940642 
L 355.709012 284.697533 
L 356.816594 285.110069 
L 357.924176 283.954968 
L 359.031759 285.027183 
L 360.139341 283.315079 
L 361.246923 285.082365 
L 362.354506 284.258839 
L 363.462088 285.399551 
L 364.569671 286.974258 
L 365.677253 285.772382 
L 366.784835 286.623655 
L 367.892418 282.801295 
L 369 284.746436 
L 370.107582 287.365165 
L 371.215165 285.845076 
L 372.322747 285.153248 
L 373.430329 285.990099 
L 374.537912 286.512593 
L 375.645494 288.461229 
L 376.753077 286.006193 
L 377.860659 285.818457 
L 378.968241 287.231149 
L 380.075824 286.905839 
L 381.183406 287.760111 
L 382.290988 287.204538 
L 383.398571 288.170235 
L 384.506153 285.364637 
L 385.613736 286.114533 
L 386.721318 288.4313 
L 387.8289 286.916614 
L 388.936483 288.106007 
L 390.044065 285.256683 
L 391.151647 287.443371 
L 392.25923 285.842504 
L 393.366812 288.043425 
L 394.474395 286.743765 
L 395.581977 286.891757 
L 396.689559 290.572603 
L 397.797142 289.883249 
L 398.904724 288.090938 
L 400.012306 287.527779 
L 401.119889 288.243276 
L 402.227471 288.662439 
L 403.335054 288.615297 
L 404.442636 287.90009 
L 405.550218 287.357194 
L 406.657801 288.091339 
L 407.765383 289.831839 
L 408.872965 291.826445 
L 409.980548 288.36404 
L 411.08813 290.219647 
L 412.195713 290.604623 
L 413.303295 291.276501 
L 414.410877 289.146163 
L 415.51846 290.228649 
L 416.626042 289.541288 
L 417.733624 288.340679 
L 418.841207 290.563292 
L 419.948789 289.887737 
L 421.056372 289.452017 
L 422.163954 289.78245 
L 423.271536 289.653839 
L 424.379119 292.634165 
L 425.486701 290.891756 
L 426.594283 290.283934 
L 427.701866 289.928056 
L 428.809448 290.006916 
L 429.917031 289.660061 
L 431.024613 290.234813 
L 432.132195 291.648349 
L 433.239778 290.660667 
L 434.34736 290.750908 
L 435.454942 293.606886 
L 436.562525 290.924234 
L 437.670107 289.235785 
L 438.77769 292.534654 
L 439.885272 292.940905 
L 440.992854 291.591344 
L 442.100437 293.722747 
L 443.208019 290.430924 
L 444.315601 290.821678 
L 445.423184 290.537804 
L 446.530766 293.202069 
L 447.638349 293.698385 
L 448.745931 294.338263 
L 449.853513 292.544559 
L 450.961096 294.754637 
L 452.068678 292.107856 
L 453.17626 294.286348 
L 454.283843 294.411742 
L 455.391425 294.280329 
L 456.499008 292.789 
L 457.60659 292.304086 
L 458.714172 293.257756 
L 459.821755 292.297317 
L 460.929337 294.136151 
L 462.036919 292.495979 
L 463.144502 292.22501 
L 464.252084 293.135287 
L 465.359667 293.834772 
L 466.467249 295.276469 
L 467.574831 294.584625 
L 468.682414 294.669442 
L 469.789996 292.950456 
L 470.897578 293.823204 
L 472.005161 295.157242 
L 473.112743 294.513444 
L 474.220326 295.006002 
L 475.327908 294.262592 
L 476.43549 294.119906 
L 477.543073 292.914859 
L 478.650655 294.411988 
L 479.758237 294.961982 
L 481.973402 295.37515 
L 483.080985 294.583151 
L 484.188567 293.089962 
L 485.296149 293.417589 
L 486.403732 293.41723 
L 487.511314 294.756101 
L 488.618896 294.23638 
L 489.726479 294.058313 
L 490.834061 294.544118 
L 491.941644 293.454169 
L 493.049226 293.728749 
L 494.156808 295.639773 
L 495.264391 293.35389 
L 496.371973 296.660226 
L 497.479555 292.546993 
L 498.587138 295.043062 
L 499.69472 294.441143 
L 500.802303 295.186536 
L 501.909885 295.254072 
L 503.017467 296.565518 
L 504.12505 294.142418 
L 505.232632 295.759532 
L 506.340214 296.779933 
L 507.447797 296.206317 
L 508.555379 296.325853 
L 509.662961 295.095546 
L 510.770544 296.281095 
L 511.878126 294.962473 
L 514.093291 296.341219 
L 516.308456 296.277062 
L 517.416038 296.257083 
L 518.52362 296.57587 
L 519.631203 296.567599 
L 520.738785 297.239711 
L 521.846368 297.130313 
L 522.95395 297.46852 
L 524.061532 297.265846 
L 526.276697 297.099785 
L 527.384279 296.152799 
L 528.491862 296.020282 
L 529.599444 297.071394 
L 530.707027 297.714899 
L 531.814609 297.549225 
L 532.922191 296.876975 
L 534.029774 296.478949 
L 535.137356 295.304132 
L 536.244938 297.095949 
L 537.352521 296.254434 
L 539.567686 295.414729 
L 540.675268 296.492752 
L 541.78285 297.29621 
L 542.890433 297.77999 
L 543.998015 295.587526 
L 545.105597 298.457521 
L 546.21318 296.523106 
L 547.320762 298.258245 
L 548.428345 298.329007 
L 549.535927 298.93459 
L 550.643509 296.064022 
L 551.751092 297.696395 
L 552.858674 296.650727 
L 553.966256 300.049518 
L 555.073839 297.654293 
L 556.181421 298.953664 
L 557.289004 297.602972 
L 558.396586 298.653201 
L 559.504168 297.366357 
L 560.611751 298.473662 
L 561.719333 297.134409 
L 562.826915 300.56912 
L 563.934498 299.903638 
L 565.04208 296.504575 
L 566.149663 298.380983 
L 567.257245 299.245208 
L 568.364827 298.68337 
L 569.47241 298.836774 
L 570.579992 298.408842 
L 572.795157 298.588108 
L 573.902739 298.929587 
L 575.010322 298.485265 
L 576.117904 298.395564 
L 577.225486 299.681645 
L 578.333069 299.284598 
L 579.440651 300.039892 
L 580.548233 298.423321 
L 581.655816 299.205786 
L 583.870981 299.493742 
L 584.978563 300.846578 
L 586.086145 298.039291 
L 587.193728 299.923658 
L 588.30131 299.402242 
L 589.408892 300.718296 
L 590.516475 301.128896 
L 591.624057 299.712145 
L 592.73164 301.425484 
L 593.839222 298.630444 
L 594.946804 299.157811 
L 596.054387 299.872346 
L 597.161969 300.758184 
L 598.269551 298.387242 
L 599.377134 299.253424 
L 600.484716 301.557981 
L 601.592299 299.283926 
L 602.699881 299.711799 
L 603.807463 301.429596 
L 604.915046 301.188807 
L 606.022628 299.361414 
L 607.13021 299.456135 
L 608.237793 297.156355 
L 609.345375 300.949048 
L 610.452958 300.322078 
L 611.56054 299.168707 
L 612.668122 299.802994 
L 614.883287 301.315003 
L 615.990869 302.645455 
L 617.098452 300.004552 
L 618.206034 300.489191 
L 619.313617 301.394961 
L 620.421199 300.334944 
L 621.528781 301.137614 
L 622.636364 301.332376 
L 622.636364 301.332376 
" style="fill:none;stroke:#1f77b4;stroke-linecap:square;stroke-width:0.5;"/>
   </g>
   <g id="line2d_24">
    <path clip-path="url(#p757238f2c8)" d="M 115.363636 55.554545 
L 116.471219 68.35005 
L 118.686383 74.117721 
L 119.793966 79.179326 
L 120.901548 79.460986 
L 122.009131 81.57122 
L 124.224295 86.574184 
L 125.331878 86.099149 
L 128.654625 91.24438 
L 129.762207 92.207293 
L 130.86979 94.169625 
L 131.977372 96.677342 
L 133.084954 96.397072 
L 134.192537 96.620282 
L 135.300119 97.672644 
L 136.407701 102.051843 
L 137.515284 101.310331 
L 138.622866 105.484423 
L 139.730449 105.54176 
L 140.838031 104.972953 
L 143.053196 111.356695 
L 144.160778 112.2267 
L 145.26836 112.735068 
L 146.375943 113.468742 
L 147.483525 117.330702 
L 148.591108 119.272498 
L 149.69869 122.047247 
L 150.806272 123.39863 
L 151.913855 124.31895 
L 153.021437 128.001315 
L 154.129019 129.780125 
L 155.236602 132.23415 
L 156.344184 132.550407 
L 157.451767 136.714724 
L 158.559349 138.619373 
L 159.666931 141.81087 
L 160.774514 144.270424 
L 161.882096 145.474081 
L 162.989678 151.917615 
L 164.097261 151.607742 
L 165.204843 155.524886 
L 166.312426 155.415545 
L 167.420008 160.027899 
L 168.52759 162.033177 
L 169.635173 166.918592 
L 170.742755 168.625493 
L 171.850337 168.39664 
L 172.95792 172.102278 
L 174.065502 174.749072 
L 175.173085 178.598619 
L 176.280667 180.807538 
L 177.388249 184.366687 
L 178.495832 183.236223 
L 179.603414 186.281671 
L 180.710996 190.024586 
L 181.818579 188.814367 
L 182.926161 192.854621 
L 184.033744 194.10006 
L 185.141326 200.720978 
L 186.248908 199.914213 
L 188.464073 199.486482 
L 189.571655 202.67293 
L 190.679238 203.880316 
L 191.78682 206.058122 
L 192.894403 208.946501 
L 194.001985 208.271238 
L 196.21715 214.726766 
L 197.324732 213.238261 
L 198.432314 213.676919 
L 199.539897 215.07261 
L 200.647479 215.533844 
L 201.755062 213.64717 
L 203.970226 220.120603 
L 205.077809 219.863965 
L 206.185391 218.967295 
L 207.292973 218.972011 
L 208.400556 221.751109 
L 209.508138 219.374226 
L 210.615721 222.902242 
L 211.723303 221.46347 
L 212.830885 223.293934 
L 213.938468 223.933712 
L 215.04605 226.173523 
L 216.153632 225.742342 
L 218.368797 229.324488 
L 219.47638 227.510308 
L 220.583962 226.346091 
L 221.691544 229.120428 
L 222.799127 229.622872 
L 223.906709 230.329525 
L 225.014291 232.952983 
L 226.121874 230.782207 
L 228.337039 231.87031 
L 229.444621 228.227798 
L 230.552203 230.470071 
L 231.659786 234.766251 
L 232.767368 234.873722 
L 233.87495 227.211067 
L 234.982533 233.263758 
L 236.090115 231.856987 
L 237.197697 234.997452 
L 238.30528 234.328572 
L 240.520445 235.954865 
L 241.628027 235.495322 
L 242.735609 234.200865 
L 243.843192 235.094742 
L 244.950774 234.211779 
L 246.058356 239.626325 
L 248.273521 237.250221 
L 249.381104 236.248659 
L 250.488686 235.726987 
L 251.596268 236.046333 
L 252.703851 237.092424 
L 253.811433 236.50644 
L 254.919015 235.108339 
L 256.026598 237.267454 
L 257.13418 238.205347 
L 258.241763 236.406673 
L 259.349345 240.085881 
L 260.456927 238.302812 
L 261.56451 237.060417 
L 262.672092 239.262401 
L 263.779674 240.407302 
L 264.887257 239.741626 
L 265.994839 237.071638 
L 267.102422 239.112505 
L 268.210004 240.549592 
L 269.317586 240.933729 
L 270.425169 240.917191 
L 271.532751 244.067248 
L 272.640333 241.430884 
L 273.747916 240.938604 
L 274.855498 241.991149 
L 275.963081 242.325927 
L 277.070663 240.59673 
L 278.178245 241.929999 
L 279.285828 242.831923 
L 280.39341 241.021626 
L 281.500992 244.523847 
L 282.608575 241.274867 
L 283.716157 244.758595 
L 284.82374 241.773708 
L 285.931322 239.212472 
L 287.038904 244.294512 
L 288.146487 243.655033 
L 289.254069 242.619765 
L 290.361651 242.407607 
L 291.469234 241.705438 
L 292.576816 243.098714 
L 293.684399 243.057469 
L 294.791981 244.716643 
L 295.899563 245.057214 
L 297.007146 243.782976 
L 298.114728 241.172777 
L 299.22231 241.5353 
L 300.329893 238.897191 
L 301.437475 238.914559 
L 302.545058 246.429781 
L 303.65264 239.847035 
L 305.867805 244.355842 
L 306.975387 244.226902 
L 308.082969 243.285227 
L 309.190552 248.523525 
L 310.298134 246.436348 
L 311.405717 243.21789 
L 312.513299 245.869094 
L 313.620881 243.048453 
L 314.728464 242.148116 
L 315.836046 245.585101 
L 316.943628 246.536242 
L 318.051211 244.958635 
L 319.158793 246.488016 
L 320.266376 245.475336 
L 321.373958 242.572342 
L 322.48154 245.651013 
L 323.589123 243.286746 
L 324.696705 246.220881 
L 325.804287 245.624534 
L 326.91187 245.81565 
L 328.019452 247.501039 
L 329.127035 245.405809 
L 330.234617 246.543191 
L 331.342199 246.202391 
L 332.449782 242.756031 
L 333.557364 245.922055 
L 334.664946 244.611367 
L 335.772529 244.208822 
L 336.880111 245.360187 
L 337.987694 246.85143 
L 339.095276 248.850324 
L 340.202858 245.822001 
L 341.310441 246.862596 
L 342.418023 245.752418 
L 343.525605 245.635275 
L 344.633188 246.375447 
L 345.74077 243.52513 
L 346.848353 249.587608 
L 347.955935 248.666201 
L 349.063517 247.895164 
L 350.1711 247.924086 
L 351.278682 245.298598 
L 353.493847 248.262305 
L 354.601429 242.468854 
L 355.709012 242.652153 
L 356.816594 243.939728 
L 357.924176 245.822376 
L 359.031759 247.993154 
L 360.139341 247.493366 
L 361.246923 249.359861 
L 362.354506 244.058998 
L 363.462088 246.44327 
L 364.569671 246.618465 
L 365.677253 246.656261 
L 366.784835 249.083454 
L 367.892418 244.395209 
L 369 249.433155 
L 370.107582 249.469551 
L 371.215165 251.97007 
L 372.322747 250.985763 
L 373.430329 246.714098 
L 374.537912 248.27389 
L 375.645494 246.667166 
L 377.860659 247.999361 
L 378.968241 249.404476 
L 380.075824 248.737312 
L 381.183406 247.407286 
L 382.290988 249.275608 
L 383.398571 246.298341 
L 384.506153 246.678474 
L 385.613736 247.210674 
L 386.721318 248.506097 
L 387.8289 250.034471 
L 388.936483 245.963976 
L 390.044065 250.029962 
L 391.151647 247.748808 
L 392.25923 248.926511 
L 393.366812 248.926517 
L 394.474395 250.547492 
L 395.581977 244.446543 
L 396.689559 246.15998 
L 397.797142 247.213539 
L 398.904724 249.199712 
L 400.012306 248.149335 
L 401.119889 253.791719 
L 402.227471 248.561059 
L 403.335054 246.148628 
L 404.442636 244.632226 
L 405.550218 245.284416 
L 406.657801 249.154748 
L 407.765383 243.59596 
L 408.872965 248.287555 
L 409.980548 249.403215 
L 411.08813 248.512355 
L 412.195713 243.440091 
L 413.303295 247.988771 
L 414.410877 248.793602 
L 415.51846 248.74008 
L 416.626042 244.697949 
L 417.733624 250.291104 
L 418.841207 251.641286 
L 419.948789 243.3735 
L 421.056372 249.624401 
L 422.163954 250.438411 
L 423.271536 248.337043 
L 424.379119 246.737065 
L 425.486701 247.039914 
L 426.594283 249.062704 
L 427.701866 248.063558 
L 428.809448 249.276516 
L 429.917031 249.765953 
L 432.132195 245.130486 
L 433.239778 248.083868 
L 434.34736 245.884873 
L 435.454942 249.339818 
L 436.562525 246.282318 
L 437.670107 247.923943 
L 438.77769 247.582448 
L 439.885272 246.752363 
L 440.992854 247.394844 
L 442.100437 247.608357 
L 443.208019 248.910009 
L 444.315601 245.12553 
L 445.423184 250.095899 
L 446.530766 247.65632 
L 447.638349 248.727647 
L 448.745931 250.349516 
L 449.853513 248.222512 
L 450.961096 247.217555 
L 452.068678 251.213 
L 453.17626 251.966024 
L 454.283843 247.928667 
L 455.391425 250.270534 
L 456.499008 246.030401 
L 457.60659 250.822144 
L 458.714172 251.839071 
L 459.821755 245.587977 
L 460.929337 243.350697 
L 462.036919 247.23133 
L 463.144502 245.326424 
L 464.252084 250.39625 
L 465.359667 246.483712 
L 466.467249 244.274616 
L 467.574831 246.085352 
L 468.682414 249.263699 
L 469.789996 247.704831 
L 470.897578 249.343542 
L 472.005161 249.48071 
L 473.112743 247.811607 
L 474.220326 249.433249 
L 475.327908 248.965018 
L 476.43549 248.016165 
L 477.543073 248.101116 
L 478.650655 246.447448 
L 479.758237 244.361882 
L 480.86582 251.309349 
L 481.973402 246.193736 
L 483.080985 250.6739 
L 484.188567 249.476939 
L 485.296149 249.004092 
L 486.403732 250.584404 
L 487.511314 245.860001 
L 488.618896 248.384903 
L 489.726479 250.346335 
L 490.834061 247.327513 
L 491.941644 250.160293 
L 493.049226 252.334322 
L 494.156808 247.589958 
L 496.371973 247.799137 
L 497.479555 250.99176 
L 498.587138 251.10857 
L 499.69472 251.774104 
L 500.802303 249.763275 
L 501.909885 252.66687 
L 503.017467 251.509903 
L 504.12505 246.009232 
L 505.232632 245.792116 
L 506.340214 245.729443 
L 507.447797 251.587128 
L 508.555379 248.634162 
L 509.662961 243.140689 
L 510.770544 248.808955 
L 511.878126 250.575931 
L 512.985709 248.31058 
L 514.093291 249.619071 
L 515.200873 243.725241 
L 516.308456 241.279281 
L 517.416038 247.867922 
L 518.52362 249.87594 
L 519.631203 245.179195 
L 520.738785 249.364122 
L 521.846368 247.759149 
L 522.95395 247.400537 
L 524.061532 249.260822 
L 525.169115 246.084895 
L 526.276697 244.91139 
L 527.384279 250.411164 
L 528.491862 248.689527 
L 529.599444 247.671589 
L 530.707027 251.451968 
L 531.814609 247.6559 
L 532.922191 244.673956 
L 534.029774 246.625099 
L 535.137356 248.061736 
L 536.244938 246.13759 
L 537.352521 245.85823 
L 538.460103 248.914453 
L 539.567686 248.092301 
L 540.675268 249.694239 
L 541.78285 246.125862 
L 542.890433 245.190223 
L 543.998015 246.320424 
L 545.105597 243.437363 
L 546.21318 249.491647 
L 547.320762 249.453263 
L 548.428345 248.267575 
L 549.535927 242.966389 
L 550.643509 250.807314 
L 551.751092 244.501931 
L 552.858674 249.142007 
L 553.966256 247.276992 
L 555.073839 246.687553 
L 556.181421 246.850247 
L 557.289004 248.442664 
L 558.396586 246.819599 
L 559.504168 248.7994 
L 560.611751 249.261919 
L 561.719333 249.399699 
L 562.826915 250.690673 
L 563.934498 250.126093 
L 565.04208 245.322385 
L 566.149663 248.398007 
L 567.257245 247.319219 
L 568.364827 245.754198 
L 569.47241 250.085196 
L 570.579992 245.759184 
L 571.687574 247.709612 
L 572.795157 244.174385 
L 573.902739 245.266772 
L 575.010322 245.421475 
L 576.117904 248.164361 
L 577.225486 247.514233 
L 578.333069 247.171628 
L 579.440651 248.007176 
L 580.548233 244.59964 
L 581.655816 244.172416 
L 582.763398 246.460948 
L 583.870981 245.675984 
L 584.978563 247.096784 
L 586.086145 249.707757 
L 587.193728 246.605853 
L 588.30131 246.906332 
L 589.408892 244.757436 
L 590.516475 245.392413 
L 591.624057 244.522179 
L 592.73164 243.913867 
L 593.839222 247.114748 
L 594.946804 245.601604 
L 596.054387 246.500157 
L 597.161969 245.793699 
L 598.269551 245.332987 
L 599.377134 248.890478 
L 600.484716 243.014203 
L 601.592299 243.281335 
L 602.699881 244.771955 
L 603.807463 246.858589 
L 604.915046 242.841986 
L 606.022628 246.757755 
L 607.13021 247.539714 
L 608.237793 241.240385 
L 609.345375 243.088933 
L 612.668122 246.477565 
L 613.775705 245.334165 
L 614.883287 248.002089 
L 615.990869 245.026171 
L 617.098452 246.218702 
L 618.206034 242.837777 
L 619.313617 242.311255 
L 620.421199 244.597525 
L 621.528781 240.657194 
L 622.636364 244.277209 
L 622.636364 244.277209 
" style="fill:none;stroke:#ff7f0e;stroke-linecap:square;stroke-width:0.5;"/>
   </g>
   <g id="patch_3">
    <path d="M 90 315 
L 90 43.2 
" style="fill:none;stroke:#000000;stroke-linecap:square;stroke-linejoin:miter;stroke-width:0.8;"/>
   </g>
   <g id="patch_4">
    <path d="M 648 315 
L 648 43.2 
" style="fill:none;stroke:#000000;stroke-linecap:square;stroke-linejoin:miter;stroke-width:0.8;"/>
   </g>
   <g id="patch_5">
    <path d="M 90 315 
L 648 315 
" style="fill:none;stroke:#000000;stroke-linecap:square;stroke-linejoin:miter;stroke-width:0.8;"/>
   </g>
   <g id="patch_6">
    <path d="M 90 43.2 
L 648 43.2 
" style="fill:none;stroke:#000000;stroke-linecap:square;stroke-linejoin:miter;stroke-width:0.8;"/>
   </g>
   <g id="text_14">
    <!-- loss -->
    <g transform="translate(357.410625 37.2)scale(0.12 -0.12)">
     <use xlink:href="#DejaVuSans-108"/>
     <use x="27.783203" xlink:href="#DejaVuSans-111"/>
     <use x="88.964844" xlink:href="#DejaVuSans-115"/>
     <use x="141.064453" xlink:href="#DejaVuSans-115"/>
    </g>
   </g>
   <g id="legend_1">
    <g id="patch_7">
     <path d="M 568.846875 80.55625 
L 641 80.55625 
Q 643 80.55625 643 78.55625 
L 643 50.2 
Q 643 48.2 641 48.2 
L 568.846875 48.2 
Q 566.846875 48.2 566.846875 50.2 
L 566.846875 78.55625 
Q 566.846875 80.55625 568.846875 80.55625 
z
" style="fill:#ffffff;opacity:0.8;stroke:#cccccc;stroke-linejoin:miter;"/>
    </g>
    <g id="line2d_25">
     <path d="M 570.846875 56.298437 
L 590.846875 56.298437 
" style="fill:none;stroke:#1f77b4;stroke-linecap:square;stroke-width:0.5;"/>
    </g>
    <g id="line2d_26"/>
    <g id="text_15">
     <!-- train -->
     <defs>
      <path d="M 18.3125 70.21875 
L 18.3125 54.6875 
L 36.8125 54.6875 
L 36.8125 47.703125 
L 18.3125 47.703125 
L 18.3125 18.015625 
Q 18.3125 11.328125 20.140625 9.421875 
Q 21.96875 7.515625 27.59375 7.515625 
L 36.8125 7.515625 
L 36.8125 0 
L 27.59375 0 
Q 17.1875 0 13.234375 3.875 
Q 9.28125 7.765625 9.28125 18.015625 
L 9.28125 47.703125 
L 2.6875 47.703125 
L 2.6875 54.6875 
L 9.28125 54.6875 
L 9.28125 70.21875 
z
" id="DejaVuSans-116"/>
      <path d="M 41.109375 46.296875 
Q 39.59375 47.171875 37.8125 47.578125 
Q 36.03125 48 33.890625 48 
Q 26.265625 48 22.1875 43.046875 
Q 18.109375 38.09375 18.109375 28.8125 
L 18.109375 0 
L 9.078125 0 
L 9.078125 54.6875 
L 18.109375 54.6875 
L 18.109375 46.1875 
Q 20.953125 51.171875 25.484375 53.578125 
Q 30.03125 56 36.53125 56 
Q 37.453125 56 38.578125 55.875 
Q 39.703125 55.765625 41.0625 55.515625 
z
" id="DejaVuSans-114"/>
      <path d="M 34.28125 27.484375 
Q 23.390625 27.484375 19.1875 25 
Q 14.984375 22.515625 14.984375 16.5 
Q 14.984375 11.71875 18.140625 8.90625 
Q 21.296875 6.109375 26.703125 6.109375 
Q 34.1875 6.109375 38.703125 11.40625 
Q 43.21875 16.703125 43.21875 25.484375 
L 43.21875 27.484375 
z
M 52.203125 31.203125 
L 52.203125 0 
L 43.21875 0 
L 43.21875 8.296875 
Q 40.140625 3.328125 35.546875 0.953125 
Q 30.953125 -1.421875 24.3125 -1.421875 
Q 15.921875 -1.421875 10.953125 3.296875 
Q 6 8.015625 6 15.921875 
Q 6 25.140625 12.171875 29.828125 
Q 18.359375 34.515625 30.609375 34.515625 
L 43.21875 34.515625 
L 43.21875 35.40625 
Q 43.21875 41.609375 39.140625 45 
Q 35.0625 48.390625 27.6875 48.390625 
Q 23 48.390625 18.546875 47.265625 
Q 14.109375 46.140625 10.015625 43.890625 
L 10.015625 52.203125 
Q 14.9375 54.109375 19.578125 55.046875 
Q 24.21875 56 28.609375 56 
Q 40.484375 56 46.34375 49.84375 
Q 52.203125 43.703125 52.203125 31.203125 
z
" id="DejaVuSans-97"/>
      <path d="M 9.421875 54.6875 
L 18.40625 54.6875 
L 18.40625 0 
L 9.421875 0 
z
M 9.421875 75.984375 
L 18.40625 75.984375 
L 18.40625 64.59375 
L 9.421875 64.59375 
z
" id="DejaVuSans-105"/>
      <path d="M 54.890625 33.015625 
L 54.890625 0 
L 45.90625 0 
L 45.90625 32.71875 
Q 45.90625 40.484375 42.875 44.328125 
Q 39.84375 48.1875 33.796875 48.1875 
Q 26.515625 48.1875 22.3125 43.546875 
Q 18.109375 38.921875 18.109375 30.90625 
L 18.109375 0 
L 9.078125 0 
L 9.078125 54.6875 
L 18.109375 54.6875 
L 18.109375 46.1875 
Q 21.34375 51.125 25.703125 53.5625 
Q 30.078125 56 35.796875 56 
Q 45.21875 56 50.046875 50.171875 
Q 54.890625 44.34375 54.890625 33.015625 
z
" id="DejaVuSans-110"/>
     </defs>
     <g transform="translate(598.846875 59.798437)scale(0.1 -0.1)">
      <use xlink:href="#DejaVuSans-116"/>
      <use x="39.208984" xlink:href="#DejaVuSans-114"/>
      <use x="80.322266" xlink:href="#DejaVuSans-97"/>
      <use x="141.601562" xlink:href="#DejaVuSans-105"/>
      <use x="169.384766" xlink:href="#DejaVuSans-110"/>
     </g>
    </g>
    <g id="line2d_27">
     <path d="M 570.846875 70.976562 
L 590.846875 70.976562 
" style="fill:none;stroke:#ff7f0e;stroke-linecap:square;stroke-width:0.5;"/>
    </g>
    <g id="line2d_28"/>
    <g id="text_16">
     <!-- validate -->
     <defs>
      <path d="M 2.984375 54.6875 
L 12.5 54.6875 
L 29.59375 8.796875 
L 46.6875 54.6875 
L 56.203125 54.6875 
L 35.6875 0 
L 23.484375 0 
z
" id="DejaVuSans-118"/>
      <path d="M 45.40625 46.390625 
L 45.40625 75.984375 
L 54.390625 75.984375 
L 54.390625 0 
L 45.40625 0 
L 45.40625 8.203125 
Q 42.578125 3.328125 38.25 0.953125 
Q 33.9375 -1.421875 27.875 -1.421875 
Q 17.96875 -1.421875 11.734375 6.484375 
Q 5.515625 14.40625 5.515625 27.296875 
Q 5.515625 40.1875 11.734375 48.09375 
Q 17.96875 56 27.875 56 
Q 33.9375 56 38.25 53.625 
Q 42.578125 51.265625 45.40625 46.390625 
z
M 14.796875 27.296875 
Q 14.796875 17.390625 18.875 11.75 
Q 22.953125 6.109375 30.078125 6.109375 
Q 37.203125 6.109375 41.296875 11.75 
Q 45.40625 17.390625 45.40625 27.296875 
Q 45.40625 37.203125 41.296875 42.84375 
Q 37.203125 48.484375 30.078125 48.484375 
Q 22.953125 48.484375 18.875 42.84375 
Q 14.796875 37.203125 14.796875 27.296875 
z
" id="DejaVuSans-100"/>
     </defs>
     <g transform="translate(598.846875 74.476562)scale(0.1 -0.1)">
      <use xlink:href="#DejaVuSans-118"/>
      <use x="59.179688" xlink:href="#DejaVuSans-97"/>
      <use x="120.458984" xlink:href="#DejaVuSans-108"/>
      <use x="148.242188" xlink:href="#DejaVuSans-105"/>
      <use x="176.025391" xlink:href="#DejaVuSans-100"/>
      <use x="239.501953" xlink:href="#DejaVuSans-97"/>
      <use x="300.78125" xlink:href="#DejaVuSans-116"/>
      <use x="339.990234" xlink:href="#DejaVuSans-101"/>
     </g>
    </g>
   </g>
  </g>
 </g>
 <defs>
  <clipPath id="p757238f2c8">
   <rect height="271.8" width="558" x="90" y="43.2"/>
  </clipPath>
 </defs>
</svg>
