<?xml version="1.0" encoding="utf-8" standalone="no"?>
<!DOCTYPE svg PUBLIC "-//W3C//DTD SVG 1.1//EN"
  "http://www.w3.org/Graphics/SVG/1.1/DTD/svg11.dtd">
<!-- Created with matplotlib (https://matplotlib.org/) -->
<svg height="360pt" version="1.1" viewBox="0 0 720 360" width="720pt" xmlns="http://www.w3.org/2000/svg" xmlns:xlink="http://www.w3.org/1999/xlink">
 <defs>
  <style type="text/css">
*{stroke-linecap:butt;stroke-linejoin:round;}
  </style>
 </defs>
 <g id="figure_1">
  <g id="patch_1">
   <path d="M 0 360 
L 720 360 
L 720 0 
L 0 0 
z
" style="fill:#ffffff;"/>
  </g>
  <g id="axes_1">
   <g id="patch_2">
    <path d="M 90 315 
L 648 315 
L 648 43.2 
L 90 43.2 
z
" style="fill:#ffffff;"/>
   </g>
   <g id="matplotlib.axis_1">
    <g id="xtick_1">
     <g id="line2d_1">
      <path clip-path="url(#p69d3a497bc)" d="M 115.363636 315 
L 115.363636 43.2 
" style="fill:none;stroke:#b0b0b0;stroke-linecap:square;stroke-width:0.8;"/>
     </g>
     <g id="line2d_2">
      <defs>
       <path d="M 0 0 
L 0 3.5 
" id="m7df793645f" style="stroke:#000000;stroke-width:0.8;"/>
      </defs>
      <g>
       <use style="stroke:#000000;stroke-width:0.8;" x="115.363636" xlink:href="#m7df793645f" y="315"/>
      </g>
     </g>
     <g id="text_1">
      <!-- 0 -->
      <defs>
       <path d="M 31.78125 66.40625 
Q 24.171875 66.40625 20.328125 58.90625 
Q 16.5 51.421875 16.5 36.375 
Q 16.5 21.390625 20.328125 13.890625 
Q 24.171875 6.390625 31.78125 6.390625 
Q 39.453125 6.390625 43.28125 13.890625 
Q 47.125 21.390625 47.125 36.375 
Q 47.125 51.421875 43.28125 58.90625 
Q 39.453125 66.40625 31.78125 66.40625 
z
M 31.78125 74.21875 
Q 44.046875 74.21875 50.515625 64.515625 
Q 56.984375 54.828125 56.984375 36.375 
Q 56.984375 17.96875 50.515625 8.265625 
Q 44.046875 -1.421875 31.78125 -1.421875 
Q 19.53125 -1.421875 13.0625 8.265625 
Q 6.59375 17.96875 6.59375 36.375 
Q 6.59375 54.828125 13.0625 64.515625 
Q 19.53125 74.21875 31.78125 74.21875 
z
" id="DejaVuSans-48"/>
      </defs>
      <g transform="translate(112.182386 329.598437)scale(0.1 -0.1)">
       <use xlink:href="#DejaVuSans-48"/>
      </g>
     </g>
    </g>
    <g id="xtick_2">
     <g id="line2d_3">
      <path clip-path="url(#p69d3a497bc)" d="M 183.408268 315 
L 183.408268 43.2 
" style="fill:none;stroke:#b0b0b0;stroke-linecap:square;stroke-width:0.8;"/>
     </g>
     <g id="line2d_4">
      <g>
       <use style="stroke:#000000;stroke-width:0.8;" x="183.408268" xlink:href="#m7df793645f" y="315"/>
      </g>
     </g>
     <g id="text_2">
      <!-- 200 -->
      <defs>
       <path d="M 19.1875 8.296875 
L 53.609375 8.296875 
L 53.609375 0 
L 7.328125 0 
L 7.328125 8.296875 
Q 12.9375 14.109375 22.625 23.890625 
Q 32.328125 33.6875 34.8125 36.53125 
Q 39.546875 41.84375 41.421875 45.53125 
Q 43.3125 49.21875 43.3125 52.78125 
Q 43.3125 58.59375 39.234375 62.25 
Q 35.15625 65.921875 28.609375 65.921875 
Q 23.96875 65.921875 18.8125 64.3125 
Q 13.671875 62.703125 7.8125 59.421875 
L 7.8125 69.390625 
Q 13.765625 71.78125 18.9375 73 
Q 24.125 74.21875 28.421875 74.21875 
Q 39.75 74.21875 46.484375 68.546875 
Q 53.21875 62.890625 53.21875 53.421875 
Q 53.21875 48.921875 51.53125 44.890625 
Q 49.859375 40.875 45.40625 35.40625 
Q 44.1875 33.984375 37.640625 27.21875 
Q 31.109375 20.453125 19.1875 8.296875 
z
" id="DejaVuSans-50"/>
      </defs>
      <g transform="translate(173.864518 329.598437)scale(0.1 -0.1)">
       <use xlink:href="#DejaVuSans-50"/>
       <use x="63.623047" xlink:href="#DejaVuSans-48"/>
       <use x="127.246094" xlink:href="#DejaVuSans-48"/>
      </g>
     </g>
    </g>
    <g id="xtick_3">
     <g id="line2d_5">
      <path clip-path="url(#p69d3a497bc)" d="M 251.452899 315 
L 251.452899 43.2 
" style="fill:none;stroke:#b0b0b0;stroke-linecap:square;stroke-width:0.8;"/>
     </g>
     <g id="line2d_6">
      <g>
       <use style="stroke:#000000;stroke-width:0.8;" x="251.452899" xlink:href="#m7df793645f" y="315"/>
      </g>
     </g>
     <g id="text_3">
      <!-- 400 -->
      <defs>
       <path d="M 37.796875 64.3125 
L 12.890625 25.390625 
L 37.796875 25.390625 
z
M 35.203125 72.90625 
L 47.609375 72.90625 
L 47.609375 25.390625 
L 58.015625 25.390625 
L 58.015625 17.1875 
L 47.609375 17.1875 
L 47.609375 0 
L 37.796875 0 
L 37.796875 17.1875 
L 4.890625 17.1875 
L 4.890625 26.703125 
z
" id="DejaVuSans-52"/>
      </defs>
      <g transform="translate(241.909149 329.598437)scale(0.1 -0.1)">
       <use xlink:href="#DejaVuSans-52"/>
       <use x="63.623047" xlink:href="#DejaVuSans-48"/>
       <use x="127.246094" xlink:href="#DejaVuSans-48"/>
      </g>
     </g>
    </g>
    <g id="xtick_4">
     <g id="line2d_7">
      <path clip-path="url(#p69d3a497bc)" d="M 319.497531 315 
L 319.497531 43.2 
" style="fill:none;stroke:#b0b0b0;stroke-linecap:square;stroke-width:0.8;"/>
     </g>
     <g id="line2d_8">
      <g>
       <use style="stroke:#000000;stroke-width:0.8;" x="319.497531" xlink:href="#m7df793645f" y="315"/>
      </g>
     </g>
     <g id="text_4">
      <!-- 600 -->
      <defs>
       <path d="M 33.015625 40.375 
Q 26.375 40.375 22.484375 35.828125 
Q 18.609375 31.296875 18.609375 23.390625 
Q 18.609375 15.53125 22.484375 10.953125 
Q 26.375 6.390625 33.015625 6.390625 
Q 39.65625 6.390625 43.53125 10.953125 
Q 47.40625 15.53125 47.40625 23.390625 
Q 47.40625 31.296875 43.53125 35.828125 
Q 39.65625 40.375 33.015625 40.375 
z
M 52.59375 71.296875 
L 52.59375 62.3125 
Q 48.875 64.0625 45.09375 64.984375 
Q 41.3125 65.921875 37.59375 65.921875 
Q 27.828125 65.921875 22.671875 59.328125 
Q 17.53125 52.734375 16.796875 39.40625 
Q 19.671875 43.65625 24.015625 45.921875 
Q 28.375 48.1875 33.59375 48.1875 
Q 44.578125 48.1875 50.953125 41.515625 
Q 57.328125 34.859375 57.328125 23.390625 
Q 57.328125 12.15625 50.6875 5.359375 
Q 44.046875 -1.421875 33.015625 -1.421875 
Q 20.359375 -1.421875 13.671875 8.265625 
Q 6.984375 17.96875 6.984375 36.375 
Q 6.984375 53.65625 15.1875 63.9375 
Q 23.390625 74.21875 37.203125 74.21875 
Q 40.921875 74.21875 44.703125 73.484375 
Q 48.484375 72.75 52.59375 71.296875 
z
" id="DejaVuSans-54"/>
      </defs>
      <g transform="translate(309.953781 329.598437)scale(0.1 -0.1)">
       <use xlink:href="#DejaVuSans-54"/>
       <use x="63.623047" xlink:href="#DejaVuSans-48"/>
       <use x="127.246094" xlink:href="#DejaVuSans-48"/>
      </g>
     </g>
    </g>
    <g id="xtick_5">
     <g id="line2d_9">
      <path clip-path="url(#p69d3a497bc)" d="M 387.542162 315 
L 387.542162 43.2 
" style="fill:none;stroke:#b0b0b0;stroke-linecap:square;stroke-width:0.8;"/>
     </g>
     <g id="line2d_10">
      <g>
       <use style="stroke:#000000;stroke-width:0.8;" x="387.542162" xlink:href="#m7df793645f" y="315"/>
      </g>
     </g>
     <g id="text_5">
      <!-- 800 -->
      <defs>
       <path d="M 31.78125 34.625 
Q 24.75 34.625 20.71875 30.859375 
Q 16.703125 27.09375 16.703125 20.515625 
Q 16.703125 13.921875 20.71875 10.15625 
Q 24.75 6.390625 31.78125 6.390625 
Q 38.8125 6.390625 42.859375 10.171875 
Q 46.921875 13.96875 46.921875 20.515625 
Q 46.921875 27.09375 42.890625 30.859375 
Q 38.875 34.625 31.78125 34.625 
z
M 21.921875 38.8125 
Q 15.578125 40.375 12.03125 44.71875 
Q 8.5 49.078125 8.5 55.328125 
Q 8.5 64.0625 14.71875 69.140625 
Q 20.953125 74.21875 31.78125 74.21875 
Q 42.671875 74.21875 48.875 69.140625 
Q 55.078125 64.0625 55.078125 55.328125 
Q 55.078125 49.078125 51.53125 44.71875 
Q 48 40.375 41.703125 38.8125 
Q 48.828125 37.15625 52.796875 32.3125 
Q 56.78125 27.484375 56.78125 20.515625 
Q 56.78125 9.90625 50.3125 4.234375 
Q 43.84375 -1.421875 31.78125 -1.421875 
Q 19.734375 -1.421875 13.25 4.234375 
Q 6.78125 9.90625 6.78125 20.515625 
Q 6.78125 27.484375 10.78125 32.3125 
Q 14.796875 37.15625 21.921875 38.8125 
z
M 18.3125 54.390625 
Q 18.3125 48.734375 21.84375 45.5625 
Q 25.390625 42.390625 31.78125 42.390625 
Q 38.140625 42.390625 41.71875 45.5625 
Q 45.3125 48.734375 45.3125 54.390625 
Q 45.3125 60.0625 41.71875 63.234375 
Q 38.140625 66.40625 31.78125 66.40625 
Q 25.390625 66.40625 21.84375 63.234375 
Q 18.3125 60.0625 18.3125 54.390625 
z
" id="DejaVuSans-56"/>
      </defs>
      <g transform="translate(377.998412 329.598437)scale(0.1 -0.1)">
       <use xlink:href="#DejaVuSans-56"/>
       <use x="63.623047" xlink:href="#DejaVuSans-48"/>
       <use x="127.246094" xlink:href="#DejaVuSans-48"/>
      </g>
     </g>
    </g>
    <g id="xtick_6">
     <g id="line2d_11">
      <path clip-path="url(#p69d3a497bc)" d="M 455.586793 315 
L 455.586793 43.2 
" style="fill:none;stroke:#b0b0b0;stroke-linecap:square;stroke-width:0.8;"/>
     </g>
     <g id="line2d_12">
      <g>
       <use style="stroke:#000000;stroke-width:0.8;" x="455.586793" xlink:href="#m7df793645f" y="315"/>
      </g>
     </g>
     <g id="text_6">
      <!-- 1000 -->
      <defs>
       <path d="M 12.40625 8.296875 
L 28.515625 8.296875 
L 28.515625 63.921875 
L 10.984375 60.40625 
L 10.984375 69.390625 
L 28.421875 72.90625 
L 38.28125 72.90625 
L 38.28125 8.296875 
L 54.390625 8.296875 
L 54.390625 0 
L 12.40625 0 
z
" id="DejaVuSans-49"/>
      </defs>
      <g transform="translate(442.861793 329.598437)scale(0.1 -0.1)">
       <use xlink:href="#DejaVuSans-49"/>
       <use x="63.623047" xlink:href="#DejaVuSans-48"/>
       <use x="127.246094" xlink:href="#DejaVuSans-48"/>
       <use x="190.869141" xlink:href="#DejaVuSans-48"/>
      </g>
     </g>
    </g>
    <g id="xtick_7">
     <g id="line2d_13">
      <path clip-path="url(#p69d3a497bc)" d="M 523.631425 315 
L 523.631425 43.2 
" style="fill:none;stroke:#b0b0b0;stroke-linecap:square;stroke-width:0.8;"/>
     </g>
     <g id="line2d_14">
      <g>
       <use style="stroke:#000000;stroke-width:0.8;" x="523.631425" xlink:href="#m7df793645f" y="315"/>
      </g>
     </g>
     <g id="text_7">
      <!-- 1200 -->
      <g transform="translate(510.906425 329.598437)scale(0.1 -0.1)">
       <use xlink:href="#DejaVuSans-49"/>
       <use x="63.623047" xlink:href="#DejaVuSans-50"/>
       <use x="127.246094" xlink:href="#DejaVuSans-48"/>
       <use x="190.869141" xlink:href="#DejaVuSans-48"/>
      </g>
     </g>
    </g>
    <g id="xtick_8">
     <g id="line2d_15">
      <path clip-path="url(#p69d3a497bc)" d="M 591.676056 315 
L 591.676056 43.2 
" style="fill:none;stroke:#b0b0b0;stroke-linecap:square;stroke-width:0.8;"/>
     </g>
     <g id="line2d_16">
      <g>
       <use style="stroke:#000000;stroke-width:0.8;" x="591.676056" xlink:href="#m7df793645f" y="315"/>
      </g>
     </g>
     <g id="text_8">
      <!-- 1400 -->
      <g transform="translate(578.951056 329.598437)scale(0.1 -0.1)">
       <use xlink:href="#DejaVuSans-49"/>
       <use x="63.623047" xlink:href="#DejaVuSans-52"/>
       <use x="127.246094" xlink:href="#DejaVuSans-48"/>
       <use x="190.869141" xlink:href="#DejaVuSans-48"/>
      </g>
     </g>
    </g>
    <g id="text_9">
     <!-- epoch -->
     <defs>
      <path d="M 56.203125 29.59375 
L 56.203125 25.203125 
L 14.890625 25.203125 
Q 15.484375 15.921875 20.484375 11.0625 
Q 25.484375 6.203125 34.421875 6.203125 
Q 39.59375 6.203125 44.453125 7.46875 
Q 49.3125 8.734375 54.109375 11.28125 
L 54.109375 2.78125 
Q 49.265625 0.734375 44.1875 -0.34375 
Q 39.109375 -1.421875 33.890625 -1.421875 
Q 20.796875 -1.421875 13.15625 6.1875 
Q 5.515625 13.8125 5.515625 26.8125 
Q 5.515625 40.234375 12.765625 48.109375 
Q 20.015625 56 32.328125 56 
Q 43.359375 56 49.78125 48.890625 
Q 56.203125 41.796875 56.203125 29.59375 
z
M 47.21875 32.234375 
Q 47.125 39.59375 43.09375 43.984375 
Q 39.0625 48.390625 32.421875 48.390625 
Q 24.90625 48.390625 20.390625 44.140625 
Q 15.875 39.890625 15.1875 32.171875 
z
" id="DejaVuSans-101"/>
      <path d="M 18.109375 8.203125 
L 18.109375 -20.796875 
L 9.078125 -20.796875 
L 9.078125 54.6875 
L 18.109375 54.6875 
L 18.109375 46.390625 
Q 20.953125 51.265625 25.265625 53.625 
Q 29.59375 56 35.59375 56 
Q 45.5625 56 51.78125 48.09375 
Q 58.015625 40.1875 58.015625 27.296875 
Q 58.015625 14.40625 51.78125 6.484375 
Q 45.5625 -1.421875 35.59375 -1.421875 
Q 29.59375 -1.421875 25.265625 0.953125 
Q 20.953125 3.328125 18.109375 8.203125 
z
M 48.6875 27.296875 
Q 48.6875 37.203125 44.609375 42.84375 
Q 40.53125 48.484375 33.40625 48.484375 
Q 26.265625 48.484375 22.1875 42.84375 
Q 18.109375 37.203125 18.109375 27.296875 
Q 18.109375 17.390625 22.1875 11.75 
Q 26.265625 6.109375 33.40625 6.109375 
Q 40.53125 6.109375 44.609375 11.75 
Q 48.6875 17.390625 48.6875 27.296875 
z
" id="DejaVuSans-112"/>
      <path d="M 30.609375 48.390625 
Q 23.390625 48.390625 19.1875 42.75 
Q 14.984375 37.109375 14.984375 27.296875 
Q 14.984375 17.484375 19.15625 11.84375 
Q 23.34375 6.203125 30.609375 6.203125 
Q 37.796875 6.203125 41.984375 11.859375 
Q 46.1875 17.53125 46.1875 27.296875 
Q 46.1875 37.015625 41.984375 42.703125 
Q 37.796875 48.390625 30.609375 48.390625 
z
M 30.609375 56 
Q 42.328125 56 49.015625 48.375 
Q 55.71875 40.765625 55.71875 27.296875 
Q 55.71875 13.875 49.015625 6.21875 
Q 42.328125 -1.421875 30.609375 -1.421875 
Q 18.84375 -1.421875 12.171875 6.21875 
Q 5.515625 13.875 5.515625 27.296875 
Q 5.515625 40.765625 12.171875 48.375 
Q 18.84375 56 30.609375 56 
z
" id="DejaVuSans-111"/>
      <path d="M 48.78125 52.59375 
L 48.78125 44.1875 
Q 44.96875 46.296875 41.140625 47.34375 
Q 37.3125 48.390625 33.40625 48.390625 
Q 24.65625 48.390625 19.8125 42.84375 
Q 14.984375 37.3125 14.984375 27.296875 
Q 14.984375 17.28125 19.8125 11.734375 
Q 24.65625 6.203125 33.40625 6.203125 
Q 37.3125 6.203125 41.140625 7.25 
Q 44.96875 8.296875 48.78125 10.40625 
L 48.78125 2.09375 
Q 45.015625 0.34375 40.984375 -0.53125 
Q 36.96875 -1.421875 32.421875 -1.421875 
Q 20.0625 -1.421875 12.78125 6.34375 
Q 5.515625 14.109375 5.515625 27.296875 
Q 5.515625 40.671875 12.859375 48.328125 
Q 20.21875 56 33.015625 56 
Q 37.15625 56 41.109375 55.140625 
Q 45.0625 54.296875 48.78125 52.59375 
z
" id="DejaVuSans-99"/>
      <path d="M 54.890625 33.015625 
L 54.890625 0 
L 45.90625 0 
L 45.90625 32.71875 
Q 45.90625 40.484375 42.875 44.328125 
Q 39.84375 48.1875 33.796875 48.1875 
Q 26.515625 48.1875 22.3125 43.546875 
Q 18.109375 38.921875 18.109375 30.90625 
L 18.109375 0 
L 9.078125 0 
L 9.078125 75.984375 
L 18.109375 75.984375 
L 18.109375 46.1875 
Q 21.34375 51.125 25.703125 53.5625 
Q 30.078125 56 35.796875 56 
Q 45.21875 56 50.046875 50.171875 
Q 54.890625 44.34375 54.890625 33.015625 
z
" id="DejaVuSans-104"/>
     </defs>
     <g transform="translate(353.771875 343.276563)scale(0.1 -0.1)">
      <use xlink:href="#DejaVuSans-101"/>
      <use x="61.523438" xlink:href="#DejaVuSans-112"/>
      <use x="125" xlink:href="#DejaVuSans-111"/>
      <use x="186.181641" xlink:href="#DejaVuSans-99"/>
      <use x="241.162109" xlink:href="#DejaVuSans-104"/>
     </g>
    </g>
   </g>
   <g id="matplotlib.axis_2">
    <g id="ytick_1">
     <g id="line2d_17">
      <path clip-path="url(#p69d3a497bc)" d="M 90 285.197706 
L 648 285.197706 
" style="fill:none;stroke:#b0b0b0;stroke-linecap:square;stroke-width:0.8;"/>
     </g>
     <g id="line2d_18">
      <defs>
       <path d="M 0 0 
L -3.5 0 
" id="me9f1ec2fe0" style="stroke:#000000;stroke-width:0.8;"/>
      </defs>
      <g>
       <use style="stroke:#000000;stroke-width:0.8;" x="90" xlink:href="#me9f1ec2fe0" y="285.197706"/>
      </g>
     </g>
     <g id="text_10">
      <!-- 0.3 -->
      <defs>
       <path d="M 10.6875 12.40625 
L 21 12.40625 
L 21 0 
L 10.6875 0 
z
" id="DejaVuSans-46"/>
       <path d="M 40.578125 39.3125 
Q 47.65625 37.796875 51.625 33 
Q 55.609375 28.21875 55.609375 21.1875 
Q 55.609375 10.40625 48.1875 4.484375 
Q 40.765625 -1.421875 27.09375 -1.421875 
Q 22.515625 -1.421875 17.65625 -0.515625 
Q 12.796875 0.390625 7.625 2.203125 
L 7.625 11.71875 
Q 11.71875 9.328125 16.59375 8.109375 
Q 21.484375 6.890625 26.8125 6.890625 
Q 36.078125 6.890625 40.9375 10.546875 
Q 45.796875 14.203125 45.796875 21.1875 
Q 45.796875 27.640625 41.28125 31.265625 
Q 36.765625 34.90625 28.71875 34.90625 
L 20.21875 34.90625 
L 20.21875 43.015625 
L 29.109375 43.015625 
Q 36.375 43.015625 40.234375 45.921875 
Q 44.09375 48.828125 44.09375 54.296875 
Q 44.09375 59.90625 40.109375 62.90625 
Q 36.140625 65.921875 28.71875 65.921875 
Q 24.65625 65.921875 20.015625 65.03125 
Q 15.375 64.15625 9.8125 62.3125 
L 9.8125 71.09375 
Q 15.4375 72.65625 20.34375 73.4375 
Q 25.25 74.21875 29.59375 74.21875 
Q 40.828125 74.21875 47.359375 69.109375 
Q 53.90625 64.015625 53.90625 55.328125 
Q 53.90625 49.265625 50.4375 45.09375 
Q 46.96875 40.921875 40.578125 39.3125 
z
" id="DejaVuSans-51"/>
      </defs>
      <g transform="translate(67.096875 288.996925)scale(0.1 -0.1)">
       <use xlink:href="#DejaVuSans-48"/>
       <use x="63.623047" xlink:href="#DejaVuSans-46"/>
       <use x="95.410156" xlink:href="#DejaVuSans-51"/>
      </g>
     </g>
    </g>
    <g id="ytick_2">
     <g id="line2d_19">
      <path clip-path="url(#p69d3a497bc)" d="M 90 250.986434 
L 648 250.986434 
" style="fill:none;stroke:#b0b0b0;stroke-linecap:square;stroke-width:0.8;"/>
     </g>
     <g id="line2d_20">
      <g>
       <use style="stroke:#000000;stroke-width:0.8;" x="90" xlink:href="#me9f1ec2fe0" y="250.986434"/>
      </g>
     </g>
     <g id="text_11">
      <!-- 0.4 -->
      <g transform="translate(67.096875 254.785653)scale(0.1 -0.1)">
       <use xlink:href="#DejaVuSans-48"/>
       <use x="63.623047" xlink:href="#DejaVuSans-46"/>
       <use x="95.410156" xlink:href="#DejaVuSans-52"/>
      </g>
     </g>
    </g>
    <g id="ytick_3">
     <g id="line2d_21">
      <path clip-path="url(#p69d3a497bc)" d="M 90 216.775163 
L 648 216.775163 
" style="fill:none;stroke:#b0b0b0;stroke-linecap:square;stroke-width:0.8;"/>
     </g>
     <g id="line2d_22">
      <g>
       <use style="stroke:#000000;stroke-width:0.8;" x="90" xlink:href="#me9f1ec2fe0" y="216.775163"/>
      </g>
     </g>
     <g id="text_12">
      <!-- 0.5 -->
      <defs>
       <path d="M 10.796875 72.90625 
L 49.515625 72.90625 
L 49.515625 64.59375 
L 19.828125 64.59375 
L 19.828125 46.734375 
Q 21.96875 47.46875 24.109375 47.828125 
Q 26.265625 48.1875 28.421875 48.1875 
Q 40.625 48.1875 47.75 41.5 
Q 54.890625 34.8125 54.890625 23.390625 
Q 54.890625 11.625 47.5625 5.09375 
Q 40.234375 -1.421875 26.90625 -1.421875 
Q 22.3125 -1.421875 17.546875 -0.640625 
Q 12.796875 0.140625 7.71875 1.703125 
L 7.71875 11.625 
Q 12.109375 9.234375 16.796875 8.0625 
Q 21.484375 6.890625 26.703125 6.890625 
Q 35.15625 6.890625 40.078125 11.328125 
Q 45.015625 15.765625 45.015625 23.390625 
Q 45.015625 31 40.078125 35.4375 
Q 35.15625 39.890625 26.703125 39.890625 
Q 22.75 39.890625 18.8125 39.015625 
Q 14.890625 38.140625 10.796875 36.28125 
z
" id="DejaVuSans-53"/>
      </defs>
      <g transform="translate(67.096875 220.574382)scale(0.1 -0.1)">
       <use xlink:href="#DejaVuSans-48"/>
       <use x="63.623047" xlink:href="#DejaVuSans-46"/>
       <use x="95.410156" xlink:href="#DejaVuSans-53"/>
      </g>
     </g>
    </g>
    <g id="ytick_4">
     <g id="line2d_23">
      <path clip-path="url(#p69d3a497bc)" d="M 90 182.563891 
L 648 182.563891 
" style="fill:none;stroke:#b0b0b0;stroke-linecap:square;stroke-width:0.8;"/>
     </g>
     <g id="line2d_24">
      <g>
       <use style="stroke:#000000;stroke-width:0.8;" x="90" xlink:href="#me9f1ec2fe0" y="182.563891"/>
      </g>
     </g>
     <g id="text_13">
      <!-- 0.6 -->
      <g transform="translate(67.096875 186.36311)scale(0.1 -0.1)">
       <use xlink:href="#DejaVuSans-48"/>
       <use x="63.623047" xlink:href="#DejaVuSans-46"/>
       <use x="95.410156" xlink:href="#DejaVuSans-54"/>
      </g>
     </g>
    </g>
    <g id="ytick_5">
     <g id="line2d_25">
      <path clip-path="url(#p69d3a497bc)" d="M 90 148.35262 
L 648 148.35262 
" style="fill:none;stroke:#b0b0b0;stroke-linecap:square;stroke-width:0.8;"/>
     </g>
     <g id="line2d_26">
      <g>
       <use style="stroke:#000000;stroke-width:0.8;" x="90" xlink:href="#me9f1ec2fe0" y="148.35262"/>
      </g>
     </g>
     <g id="text_14">
      <!-- 0.7 -->
      <defs>
       <path d="M 8.203125 72.90625 
L 55.078125 72.90625 
L 55.078125 68.703125 
L 28.609375 0 
L 18.3125 0 
L 43.21875 64.59375 
L 8.203125 64.59375 
z
" id="DejaVuSans-55"/>
      </defs>
      <g transform="translate(67.096875 152.151838)scale(0.1 -0.1)">
       <use xlink:href="#DejaVuSans-48"/>
       <use x="63.623047" xlink:href="#DejaVuSans-46"/>
       <use x="95.410156" xlink:href="#DejaVuSans-55"/>
      </g>
     </g>
    </g>
    <g id="ytick_6">
     <g id="line2d_27">
      <path clip-path="url(#p69d3a497bc)" d="M 90 114.141348 
L 648 114.141348 
" style="fill:none;stroke:#b0b0b0;stroke-linecap:square;stroke-width:0.8;"/>
     </g>
     <g id="line2d_28">
      <g>
       <use style="stroke:#000000;stroke-width:0.8;" x="90" xlink:href="#me9f1ec2fe0" y="114.141348"/>
      </g>
     </g>
     <g id="text_15">
      <!-- 0.8 -->
      <g transform="translate(67.096875 117.940567)scale(0.1 -0.1)">
       <use xlink:href="#DejaVuSans-48"/>
       <use x="63.623047" xlink:href="#DejaVuSans-46"/>
       <use x="95.410156" xlink:href="#DejaVuSans-56"/>
      </g>
     </g>
    </g>
    <g id="ytick_7">
     <g id="line2d_29">
      <path clip-path="url(#p69d3a497bc)" d="M 90 79.930076 
L 648 79.930076 
" style="fill:none;stroke:#b0b0b0;stroke-linecap:square;stroke-width:0.8;"/>
     </g>
     <g id="line2d_30">
      <g>
       <use style="stroke:#000000;stroke-width:0.8;" x="90" xlink:href="#me9f1ec2fe0" y="79.930076"/>
      </g>
     </g>
     <g id="text_16">
      <!-- 0.9 -->
      <defs>
       <path d="M 10.984375 1.515625 
L 10.984375 10.5 
Q 14.703125 8.734375 18.5 7.8125 
Q 22.3125 6.890625 25.984375 6.890625 
Q 35.75 6.890625 40.890625 13.453125 
Q 46.046875 20.015625 46.78125 33.40625 
Q 43.953125 29.203125 39.59375 26.953125 
Q 35.25 24.703125 29.984375 24.703125 
Q 19.046875 24.703125 12.671875 31.3125 
Q 6.296875 37.9375 6.296875 49.421875 
Q 6.296875 60.640625 12.9375 67.421875 
Q 19.578125 74.21875 30.609375 74.21875 
Q 43.265625 74.21875 49.921875 64.515625 
Q 56.59375 54.828125 56.59375 36.375 
Q 56.59375 19.140625 48.40625 8.859375 
Q 40.234375 -1.421875 26.421875 -1.421875 
Q 22.703125 -1.421875 18.890625 -0.6875 
Q 15.09375 0.046875 10.984375 1.515625 
z
M 30.609375 32.421875 
Q 37.25 32.421875 41.125 36.953125 
Q 45.015625 41.5 45.015625 49.421875 
Q 45.015625 57.28125 41.125 61.84375 
Q 37.25 66.40625 30.609375 66.40625 
Q 23.96875 66.40625 20.09375 61.84375 
Q 16.21875 57.28125 16.21875 49.421875 
Q 16.21875 41.5 20.09375 36.953125 
Q 23.96875 32.421875 30.609375 32.421875 
z
" id="DejaVuSans-57"/>
      </defs>
      <g transform="translate(67.096875 83.729295)scale(0.1 -0.1)">
       <use xlink:href="#DejaVuSans-48"/>
       <use x="63.623047" xlink:href="#DejaVuSans-46"/>
       <use x="95.410156" xlink:href="#DejaVuSans-57"/>
      </g>
     </g>
    </g>
    <g id="ytick_8">
     <g id="line2d_31">
      <path clip-path="url(#p69d3a497bc)" d="M 90 45.718805 
L 648 45.718805 
" style="fill:none;stroke:#b0b0b0;stroke-linecap:square;stroke-width:0.8;"/>
     </g>
     <g id="line2d_32">
      <g>
       <use style="stroke:#000000;stroke-width:0.8;" x="90" xlink:href="#me9f1ec2fe0" y="45.718805"/>
      </g>
     </g>
     <g id="text_17">
      <!-- 1.0 -->
      <g transform="translate(67.096875 49.518024)scale(0.1 -0.1)">
       <use xlink:href="#DejaVuSans-49"/>
       <use x="63.623047" xlink:href="#DejaVuSans-46"/>
       <use x="95.410156" xlink:href="#DejaVuSans-48"/>
      </g>
     </g>
    </g>
    <g id="text_18">
     <!-- accuracy -->
     <defs>
      <path d="M 34.28125 27.484375 
Q 23.390625 27.484375 19.1875 25 
Q 14.984375 22.515625 14.984375 16.5 
Q 14.984375 11.71875 18.140625 8.90625 
Q 21.296875 6.109375 26.703125 6.109375 
Q 34.1875 6.109375 38.703125 11.40625 
Q 43.21875 16.703125 43.21875 25.484375 
L 43.21875 27.484375 
z
M 52.203125 31.203125 
L 52.203125 0 
L 43.21875 0 
L 43.21875 8.296875 
Q 40.140625 3.328125 35.546875 0.953125 
Q 30.953125 -1.421875 24.3125 -1.421875 
Q 15.921875 -1.421875 10.953125 3.296875 
Q 6 8.015625 6 15.921875 
Q 6 25.140625 12.171875 29.828125 
Q 18.359375 34.515625 30.609375 34.515625 
L 43.21875 34.515625 
L 43.21875 35.40625 
Q 43.21875 41.609375 39.140625 45 
Q 35.0625 48.390625 27.6875 48.390625 
Q 23 48.390625 18.546875 47.265625 
Q 14.109375 46.140625 10.015625 43.890625 
L 10.015625 52.203125 
Q 14.9375 54.109375 19.578125 55.046875 
Q 24.21875 56 28.609375 56 
Q 40.484375 56 46.34375 49.84375 
Q 52.203125 43.703125 52.203125 31.203125 
z
" id="DejaVuSans-97"/>
      <path d="M 8.5 21.578125 
L 8.5 54.6875 
L 17.484375 54.6875 
L 17.484375 21.921875 
Q 17.484375 14.15625 20.5 10.265625 
Q 23.53125 6.390625 29.59375 6.390625 
Q 36.859375 6.390625 41.078125 11.03125 
Q 45.3125 15.671875 45.3125 23.6875 
L 45.3125 54.6875 
L 54.296875 54.6875 
L 54.296875 0 
L 45.3125 0 
L 45.3125 8.40625 
Q 42.046875 3.421875 37.71875 1 
Q 33.40625 -1.421875 27.6875 -1.421875 
Q 18.265625 -1.421875 13.375 4.4375 
Q 8.5 10.296875 8.5 21.578125 
z
M 31.109375 56 
z
" id="DejaVuSans-117"/>
      <path d="M 41.109375 46.296875 
Q 39.59375 47.171875 37.8125 47.578125 
Q 36.03125 48 33.890625 48 
Q 26.265625 48 22.1875 43.046875 
Q 18.109375 38.09375 18.109375 28.8125 
L 18.109375 0 
L 9.078125 0 
L 9.078125 54.6875 
L 18.109375 54.6875 
L 18.109375 46.1875 
Q 20.953125 51.171875 25.484375 53.578125 
Q 30.03125 56 36.53125 56 
Q 37.453125 56 38.578125 55.875 
Q 39.703125 55.765625 41.0625 55.515625 
z
" id="DejaVuSans-114"/>
      <path d="M 32.171875 -5.078125 
Q 28.375 -14.84375 24.75 -17.8125 
Q 21.140625 -20.796875 15.09375 -20.796875 
L 7.90625 -20.796875 
L 7.90625 -13.28125 
L 13.1875 -13.28125 
Q 16.890625 -13.28125 18.9375 -11.515625 
Q 21 -9.765625 23.484375 -3.21875 
L 25.09375 0.875 
L 2.984375 54.6875 
L 12.5 54.6875 
L 29.59375 11.921875 
L 46.6875 54.6875 
L 56.203125 54.6875 
z
" id="DejaVuSans-121"/>
     </defs>
     <g transform="translate(61.017187 201.659375)rotate(-90)scale(0.1 -0.1)">
      <use xlink:href="#DejaVuSans-97"/>
      <use x="61.279297" xlink:href="#DejaVuSans-99"/>
      <use x="116.259766" xlink:href="#DejaVuSans-99"/>
      <use x="171.240234" xlink:href="#DejaVuSans-117"/>
      <use x="234.619141" xlink:href="#DejaVuSans-114"/>
      <use x="275.732422" xlink:href="#DejaVuSans-97"/>
      <use x="337.011719" xlink:href="#DejaVuSans-99"/>
      <use x="391.992188" xlink:href="#DejaVuSans-121"/>
     </g>
    </g>
   </g>
   <g id="line2d_33">
    <path clip-path="url(#p69d3a497bc)" d="M 115.363636 302.645455 
L 115.70386 295.118975 
L 116.044083 297.941405 
L 116.384306 297.599292 
L 116.724529 296.145313 
L 117.064752 291.184679 
L 117.404975 292.382073 
L 117.745198 289.645171 
L 118.085422 289.388587 
L 118.425645 287.079326 
L 118.765868 280.835769 
L 119.106091 284.000312 
L 120.126761 270.144747 
L 120.466984 272.79612 
L 121.14743 258.683971 
L 121.487653 260.309006 
L 121.827876 255.262843 
L 122.508323 249.104815 
L 122.848546 246.710025 
L 123.188769 241.578335 
L 123.528992 233.880799 
L 123.869215 235.163721 
L 124.209438 230.887312 
L 124.549662 224.387171 
L 124.889885 222.762135 
L 125.230108 218.998895 
L 125.570331 213.867205 
L 125.910554 211.557944 
L 126.250777 211.386888 
L 126.591001 203.090654 
L 126.931224 200.268224 
L 127.271447 195.136534 
L 127.61167 193.682555 
L 127.951893 193.768083 
L 128.972563 172.642622 
L 129.312786 178.544067 
L 129.653009 172.642622 
L 129.993232 171.530756 
L 130.673678 159.471283 
L 131.013902 163.063466 
L 131.694348 154.168536 
L 132.034571 151.431634 
L 132.715017 155.451459 
L 133.055241 150.918465 
L 133.395464 143.819626 
L 133.735687 146.556528 
L 134.07591 146.043359 
L 134.416133 145.017021 
L 134.756356 139.030048 
L 135.096579 137.490541 
L 135.436803 139.372161 
L 135.777026 134.24047 
L 136.117249 134.497055 
L 136.457472 136.806315 
L 137.137918 132.444378 
L 137.478142 132.529907 
L 137.818365 128.852195 
L 138.158588 128.766667 
L 138.498811 128.424554 
L 138.839034 128.339026 
L 139.179257 126.799519 
L 139.519481 125.944237 
L 139.859704 121.924412 
L 140.199927 123.46392 
L 140.880373 120.898074 
L 141.220596 118.674342 
L 141.560819 119.786208 
L 141.901043 115.851912 
L 142.241266 117.391419 
L 142.581489 116.108496 
L 142.921712 115.93744 
L 143.261935 114.226876 
L 143.602158 116.279553 
L 143.942382 115.680855 
L 144.282605 116.022968 
L 145.303274 109.522826 
L 145.643497 110.29258 
L 145.983721 106.785925 
L 146.323944 110.805749 
L 146.664167 107.641206 
L 147.00439 105.930643 
L 147.344613 109.693883 
L 147.684836 107.983319 
L 148.025059 106.871453 
L 148.365283 106.272756 
L 149.045729 101.82529 
L 149.385952 104.134551 
L 149.726175 100.798952 
L 150.066398 103.792438 
L 150.406622 101.312121 
L 150.746845 101.397649 
L 151.087068 99.687086 
L 151.427291 99.430501 
L 151.767514 99.00286 
L 152.44796 99.858142 
L 152.788184 95.838318 
L 153.128407 98.746276 
L 153.46863 95.923846 
L 153.808853 94.983036 
L 154.149076 96.522543 
L 154.489299 95.239621 
L 154.829523 96.950184 
L 155.509969 92.160606 
L 155.850192 93.272472 
L 156.190415 90.535571 
L 156.530638 93.186944 
L 156.870862 92.844831 
L 157.211085 93.272472 
L 157.551308 92.075078 
L 157.891531 92.759303 
L 158.231754 93.186944 
L 158.571977 90.364514 
L 158.9122 92.246134 
L 159.252424 89.252648 
L 159.592647 91.732965 
L 159.93287 91.134268 
L 160.273093 92.246134 
L 161.293763 88.996063 
L 161.633986 89.252648 
L 161.974209 90.792155 
L 162.314432 90.877683 
L 162.654655 86.515746 
L 162.994878 88.996063 
L 163.335102 90.022402 
L 163.675325 89.594761 
L 164.015548 88.140782 
L 164.355771 87.713141 
L 164.695994 87.028915 
L 165.036217 86.857859 
L 165.37644 89.338176 
L 165.716664 85.574936 
L 166.056887 87.884197 
L 166.39711 83.52226 
L 166.737333 85.831521 
L 167.077556 85.061767 
L 167.417779 85.318352 
L 167.758003 81.982753 
L 168.098226 83.949901 
L 168.438449 84.548598 
L 168.778672 82.410394 
L 169.118895 86.686803 
L 169.459118 86.943387 
L 169.799342 81.726168 
L 170.139565 84.206485 
L 170.479788 81.811696 
L 170.820011 80.870886 
L 171.160234 84.377542 
L 171.500457 83.009091 
L 171.84068 85.745993 
L 172.180904 81.897225 
L 172.86135 83.693316 
L 173.201573 82.495922 
L 173.541796 80.357717 
L 174.222243 83.265675 
L 175.242912 81.212999 
L 175.583135 82.410394 
L 175.923358 79.245851 
L 176.263581 82.068281 
L 176.603805 77.962928 
L 176.944028 80.528774 
L 177.284251 80.956415 
L 177.624474 81.897225 
L 177.964697 80.69983 
L 178.30492 80.101133 
L 178.645144 82.666978 
L 178.985367 80.272189 
L 179.32559 80.69983 
L 179.665813 81.384056 
L 180.006036 81.212999 
L 180.346259 78.305041 
L 180.686483 80.443246 
L 181.026706 80.69983 
L 181.366929 80.015605 
L 181.707152 80.956415 
L 182.047375 77.620816 
L 182.387598 81.127471 
L 182.727821 79.331379 
L 183.068045 79.160323 
L 183.408268 78.219513 
L 183.748491 76.423421 
L 184.088714 75.482611 
L 184.428937 79.160323 
L 184.76916 79.844548 
L 185.109384 78.989266 
L 185.449607 79.416907 
L 185.78983 77.364231 
L 186.130053 80.272189 
L 186.470276 78.647154 
L 186.810499 78.903738 
L 187.150723 77.706344 
L 187.490946 77.107647 
L 187.831169 77.449759 
L 188.171392 76.680006 
L 188.511615 78.305041 
L 188.851838 78.219513 
L 189.192061 79.673492 
L 189.532285 78.390569 
L 189.872508 78.561626 
L 190.212731 77.535287 
L 190.552954 77.962928 
L 190.893177 78.81821 
L 191.2334 75.99578 
L 191.573624 77.449759 
L 191.913847 75.739196 
L 192.25407 77.022118 
L 192.594293 76.93659 
L 192.934516 79.930076 
L 193.274739 77.364231 
L 193.614963 75.99578 
L 193.955186 77.620816 
L 194.635632 75.739196 
L 194.975855 78.219513 
L 195.316078 76.594477 
L 195.656301 79.245851 
L 195.996525 74.285217 
L 196.336748 80.69983 
L 196.676971 75.824724 
L 197.017194 78.390569 
L 197.69764 79.673492 
L 198.037864 75.910252 
L 198.378087 75.99578 
L 198.71831 74.883914 
L 199.058533 76.851062 
L 199.398756 76.166837 
L 200.079202 75.653668 
L 200.419426 74.456273 
L 200.759649 75.568139 
L 201.099872 75.05497 
L 201.440095 77.364231 
L 201.780318 75.140498 
L 202.120541 75.824724 
L 202.460765 75.05497 
L 202.800988 75.397083 
L 203.141211 77.8774 
L 203.481434 75.05497 
L 203.821657 79.331379 
L 204.16188 76.252365 
L 204.502104 75.311555 
L 204.842327 75.739196 
L 205.18255 73.857576 
L 205.522773 74.541801 
L 205.862996 77.278703 
L 206.203219 73.772048 
L 206.543442 76.252365 
L 206.883666 74.798386 
L 207.564112 74.199688 
L 207.904335 72.831238 
L 208.244558 73.857576 
L 208.584781 75.653668 
L 209.265228 72.574653 
L 209.605451 75.311555 
L 209.945674 75.99578 
L 210.285897 74.969442 
L 210.62612 73.258879 
L 210.966344 74.285217 
L 211.306567 73.515463 
L 211.64679 73.857576 
L 211.987013 72.660181 
L 212.327236 73.772048 
L 212.667459 72.147012 
L 213.007682 74.456273 
L 213.347906 72.916766 
L 213.688129 73.772048 
L 214.028352 73.429935 
L 214.368575 73.943104 
L 215.049021 73.258879 
L 215.389245 74.285217 
L 215.729468 71.120674 
L 216.069691 71.975956 
L 216.409914 74.541801 
L 216.750137 74.541801 
L 217.09036 73.258879 
L 217.430584 70.949618 
L 217.770807 73.429935 
L 218.11103 74.798386 
L 218.791476 73.515463 
L 219.131699 74.285217 
L 219.471922 74.11416 
L 219.812146 73.429935 
L 220.152369 73.943104 
L 220.832815 70.778561 
L 221.173038 73.087822 
L 221.513261 71.120674 
L 221.853485 71.804899 
L 222.533931 70.35092 
L 222.874154 70.521977 
L 223.214377 70.265392 
L 223.894823 72.660181 
L 224.235047 74.199688 
L 224.57527 74.456273 
L 224.915493 74.883914 
L 225.255716 72.318069 
L 226.276386 69.92328 
L 226.616609 71.633843 
L 226.956832 71.804899 
L 227.297055 73.002294 
L 227.637278 73.344407 
L 227.977501 69.837751 
L 228.317725 71.890428 
L 228.657948 71.120674 
L 228.998171 71.462787 
L 229.338394 71.29173 
L 229.678617 72.745709 
L 230.01884 69.067998 
L 230.359063 72.23254 
L 230.699287 70.436449 
L 231.03951 70.607505 
L 231.379733 69.92328 
L 231.719956 71.377259 
L 232.060179 69.239054 
L 232.400402 71.462787 
L 232.740626 71.719371 
L 233.080849 69.837751 
L 233.421072 69.666695 
L 233.761295 70.265392 
L 234.101518 72.574653 
L 234.441741 69.324582 
L 234.781965 71.035146 
L 235.122188 70.607505 
L 235.462411 73.686519 
L 235.802634 72.745709 
L 236.142857 72.660181 
L 236.48308 71.804899 
L 237.163527 70.778561 
L 237.50375 68.640357 
L 237.843973 69.752223 
L 238.184196 71.975956 
L 238.524419 71.462787 
L 238.864642 70.693033 
L 239.204866 70.607505 
L 239.545089 67.442962 
L 239.885312 68.212716 
L 240.225535 71.633843 
L 240.565758 69.752223 
L 240.905981 71.035146 
L 241.246204 69.153526 
L 241.586428 69.837751 
L 241.926651 69.41011 
L 242.266874 71.804899 
L 242.607097 70.949618 
L 242.94732 72.318069 
L 243.627767 69.666695 
L 243.96799 71.377259 
L 244.308213 69.239054 
L 244.648436 71.206202 
L 244.988659 70.693033 
L 245.328882 67.614019 
L 245.669106 68.640357 
L 246.009329 70.949618 
L 246.689775 68.725885 
L 247.370221 69.92328 
L 247.710444 67.785075 
L 248.050668 69.239054 
L 248.390891 69.837751 
L 248.731114 69.666695 
L 249.071337 72.660181 
L 249.41156 69.837751 
L 249.751783 70.864089 
L 250.092007 68.04166 
L 250.43223 70.094336 
L 250.772453 69.495639 
L 251.112676 70.008808 
L 251.452899 70.265392 
L 251.793122 68.725885 
L 252.133346 69.067998 
L 252.473569 69.239054 
L 252.813792 70.179864 
L 253.154015 68.04166 
L 253.494238 67.186378 
L 253.834461 68.212716 
L 254.174684 68.127188 
L 254.514908 68.725885 
L 254.855131 68.04166 
L 255.195354 69.581167 
L 255.535577 68.896941 
L 255.8758 67.614019 
L 256.216023 68.127188 
L 256.556247 68.98247 
L 257.236693 67.271906 
L 257.576916 67.528491 
L 257.917139 70.436449 
L 258.257362 67.785075 
L 258.597586 69.067998 
L 258.937809 68.896941 
L 259.278032 68.98247 
L 259.618255 69.495639 
L 259.958478 68.98247 
L 260.298701 69.239054 
L 260.638924 67.870603 
L 260.979148 68.725885 
L 261.319371 68.554829 
L 261.659594 68.896941 
L 261.999817 68.04166 
L 262.34004 68.383772 
L 262.680263 70.008808 
L 263.36071 67.442962 
L 263.700933 67.699547 
L 264.041156 67.614019 
L 264.381379 68.383772 
L 264.721602 67.614019 
L 265.061825 67.614019 
L 265.402049 67.870603 
L 265.742272 69.495639 
L 266.082495 66.331096 
L 266.422718 70.179864 
L 266.762941 68.554829 
L 267.103164 68.554829 
L 267.443388 66.416624 
L 267.783611 66.502152 
L 268.123834 70.864089 
L 268.464057 66.758737 
L 268.80428 67.870603 
L 269.484727 66.502152 
L 269.82495 65.133702 
L 270.505396 68.383772 
L 270.845619 68.04166 
L 271.185842 67.10085 
L 271.526065 66.929793 
L 271.866289 68.811413 
L 272.206512 66.416624 
L 272.546735 66.758737 
L 273.227181 68.725885 
L 273.567404 67.015321 
L 273.907628 67.186378 
L 274.247851 66.844265 
L 274.588074 70.179864 
L 274.928297 68.04166 
L 275.26852 64.791589 
L 275.608743 66.16004 
L 275.948967 68.04166 
L 276.28919 69.067998 
L 276.629413 68.127188 
L 276.969636 68.98247 
L 277.309859 65.304758 
L 277.650082 65.988983 
L 277.990305 65.732399 
L 278.330529 67.271906 
L 278.670752 67.785075 
L 279.010975 68.811413 
L 279.351198 68.98247 
L 279.691421 66.074511 
L 280.031644 67.614019 
L 280.371868 67.614019 
L 280.712091 68.127188 
L 281.392537 66.502152 
L 281.73276 65.988983 
L 282.072983 67.015321 
L 282.75343 64.877117 
L 283.433876 66.587681 
L 283.774099 66.844265 
L 284.114322 67.528491 
L 284.454545 66.844265 
L 284.794769 67.699547 
L 285.134992 68.127188 
L 285.475215 66.844265 
L 285.815438 67.015321 
L 286.155661 67.699547 
L 286.495884 67.10085 
L 286.836108 68.383772 
L 287.176331 65.390286 
L 287.516554 66.074511 
L 287.856777 66.416624 
L 288.197 68.896941 
L 288.537223 65.561342 
L 288.877446 65.561342 
L 289.21767 67.785075 
L 289.557893 67.10085 
L 289.898116 67.870603 
L 290.238339 65.475814 
L 290.578562 65.817927 
L 290.918785 64.877117 
L 291.259009 65.732399 
L 291.599232 64.535004 
L 291.939455 65.646871 
L 292.279678 65.304758 
L 292.619901 65.988983 
L 292.960124 66.074511 
L 293.300348 65.561342 
L 293.640571 66.929793 
L 293.980794 66.16004 
L 294.321017 66.758737 
L 294.66124 66.929793 
L 295.001463 67.357434 
L 295.341686 65.988983 
L 295.68191 65.732399 
L 296.022133 66.245568 
L 296.362356 64.107363 
L 296.702579 63.765251 
L 297.383025 66.245568 
L 297.723249 66.331096 
L 298.063472 65.817927 
L 298.403695 65.903455 
L 298.743918 65.817927 
L 299.084141 67.614019 
L 299.424364 66.844265 
L 299.764588 66.758737 
L 300.104811 65.133702 
L 300.445034 66.245568 
L 300.785257 66.844265 
L 301.465703 63.423138 
L 301.805926 67.956131 
L 302.14615 64.962645 
L 302.486373 66.16004 
L 302.826596 66.331096 
L 303.166819 65.475814 
L 303.507042 63.081025 
L 303.847265 65.817927 
L 304.187489 64.192892 
L 304.527712 64.791589 
L 304.867935 64.107363 
L 305.208158 66.16004 
L 305.548381 65.475814 
L 305.888604 64.27842 
L 306.228828 64.620532 
L 306.569051 64.791589 
L 306.909274 62.909969 
L 307.249497 64.962645 
L 307.58972 65.817927 
L 307.929943 64.363948 
L 308.270166 64.962645 
L 308.61039 67.271906 
L 309.290836 65.304758 
L 309.631059 62.653384 
L 309.971282 66.074511 
L 310.311505 66.502152 
L 310.651729 64.620532 
L 310.991952 66.245568 
L 311.332175 65.475814 
L 311.672398 62.995497 
L 312.012621 66.758737 
L 312.352844 65.390286 
L 312.693067 65.390286 
L 313.033291 65.817927 
L 313.373514 65.646871 
L 313.713737 66.758737 
L 314.05396 65.475814 
L 314.394183 64.791589 
L 314.734406 64.363948 
L 315.07463 64.449476 
L 315.414853 65.732399 
L 315.755076 64.620532 
L 316.095299 66.074511 
L 316.435522 63.765251 
L 316.775745 65.304758 
L 317.456192 65.817927 
L 317.796415 64.363948 
L 318.136638 66.245568 
L 318.476861 63.594194 
L 318.817084 66.331096 
L 319.497531 64.021835 
L 320.177977 66.673209 
L 320.5182 66.245568 
L 320.858423 64.620532 
L 321.198646 65.817927 
L 321.53887 65.304758 
L 321.879093 64.021835 
L 322.219316 66.673209 
L 322.559539 65.390286 
L 322.899762 64.791589 
L 323.239985 66.673209 
L 323.580209 66.074511 
L 323.920432 64.363948 
L 324.260655 64.021835 
L 324.600878 64.192892 
L 324.941101 65.732399 
L 325.281324 64.192892 
L 325.621547 63.423138 
L 325.961771 64.620532 
L 326.301994 64.27842 
L 326.642217 65.475814 
L 326.98244 62.909969 
L 327.322663 63.166553 
L 327.662886 65.475814 
L 328.00311 64.791589 
L 328.343333 66.331096 
L 328.683556 66.502152 
L 329.023779 65.817927 
L 329.364002 63.081025 
L 329.704225 64.021835 
L 330.044449 64.192892 
L 330.384672 62.909969 
L 330.724895 64.620532 
L 331.065118 64.706061 
L 331.405341 64.107363 
L 331.745564 65.732399 
L 332.085787 63.936307 
L 332.766234 61.798103 
L 333.106457 62.653384 
L 333.786903 64.706061 
L 334.127126 63.252082 
L 334.46735 63.166553 
L 334.807573 61.45599 
L 335.147796 63.850779 
L 335.488019 64.27842 
L 335.828242 63.33761 
L 336.168465 63.850779 
L 336.508688 64.107363 
L 336.848912 66.502152 
L 337.189135 64.706061 
L 337.529358 63.679722 
L 337.869581 64.192892 
L 338.209804 63.252082 
L 338.890251 63.850779 
L 339.230474 65.475814 
L 339.570697 63.166553 
L 339.91092 62.824441 
L 340.251143 64.877117 
L 340.591366 63.679722 
L 340.93159 66.673209 
L 341.271813 64.962645 
L 341.612036 64.449476 
L 341.952259 62.653384 
L 342.292482 61.798103 
L 342.632705 65.646871 
L 342.972928 64.877117 
L 343.313152 65.561342 
L 343.653375 64.021835 
L 343.993598 63.594194 
L 344.333821 61.883631 
L 345.014267 64.620532 
L 345.354491 64.620532 
L 345.694714 63.679722 
L 346.034937 65.21923 
L 346.37516 64.192892 
L 346.715383 64.449476 
L 347.055606 64.363948 
L 347.39583 63.166553 
L 347.736053 65.903455 
L 348.076276 65.561342 
L 348.416499 62.995497 
L 348.756722 63.850779 
L 349.096945 65.21923 
L 349.437168 63.679722 
L 349.777392 64.706061 
L 350.117615 65.21923 
L 350.457838 64.363948 
L 350.798061 64.449476 
L 351.138284 64.27842 
L 351.818731 63.508666 
L 352.158954 62.3968 
L 352.8394 64.535004 
L 353.519846 61.969159 
L 353.86007 63.850779 
L 354.200293 64.620532 
L 354.540516 64.620532 
L 354.880739 64.107363 
L 355.220962 62.824441 
L 355.561185 63.765251 
L 355.901408 63.33761 
L 356.241632 61.969159 
L 356.581855 64.021835 
L 356.922078 61.883631 
L 357.602524 63.166553 
L 357.942747 64.107363 
L 358.282971 64.363948 
L 358.623194 64.27842 
L 358.963417 62.653384 
L 359.30364 62.824441 
L 359.643863 62.054687 
L 359.984086 64.021835 
L 360.324309 63.679722 
L 360.664533 61.370462 
L 361.004756 64.620532 
L 361.344979 63.508666 
L 362.025425 63.850779 
L 362.365648 63.166553 
L 362.705872 61.45599 
L 363.046095 61.541518 
L 363.386318 62.482328 
L 363.726541 61.712574 
L 364.066764 64.620532 
L 364.406987 61.627046 
L 364.747211 63.936307 
L 365.087434 60.258595 
L 365.76788 65.304758 
L 366.108103 61.199405 
L 366.448326 63.252082 
L 366.788549 62.738912 
L 367.128773 64.107363 
L 367.468996 64.791589 
L 367.809219 62.824441 
L 368.149442 63.252082 
L 368.489665 64.192892 
L 368.829888 63.252082 
L 369.170112 62.909969 
L 369.510335 62.995497 
L 369.850558 63.33761 
L 370.190781 63.423138 
L 370.531004 63.33761 
L 370.871227 62.653384 
L 371.211451 64.706061 
L 371.551674 62.909969 
L 371.891897 62.738912 
L 372.23212 62.140215 
L 372.572343 64.27842 
L 372.912566 60.51518 
L 373.593013 64.535004 
L 373.933236 63.252082 
L 374.273459 62.738912 
L 374.613682 63.679722 
L 374.953905 62.225743 
L 375.294128 63.765251 
L 375.634352 63.33761 
L 375.974575 61.370462 
L 376.314798 62.311272 
L 376.995244 63.423138 
L 377.335467 62.653384 
L 377.675691 63.33761 
L 378.015914 63.594194 
L 378.356137 62.054687 
L 378.69636 61.45599 
L 379.036583 63.765251 
L 379.376806 64.363948 
L 379.717029 62.311272 
L 380.057253 62.225743 
L 380.397476 62.567856 
L 380.737699 60.857293 
L 381.077922 64.449476 
L 381.418145 61.627046 
L 381.758368 62.054687 
L 382.098592 61.969159 
L 382.438815 62.909969 
L 382.779038 62.140215 
L 383.119261 62.567856 
L 383.459484 61.883631 
L 383.799707 62.567856 
L 384.13993 62.824441 
L 384.480154 62.738912 
L 384.820377 62.311272 
L 385.1606 62.140215 
L 385.500823 62.995497 
L 385.841046 62.738912 
L 386.521493 62.653384 
L 386.861716 61.45599 
L 387.201939 62.054687 
L 387.542162 62.311272 
L 387.882385 59.488842 
L 388.222608 62.054687 
L 388.562832 62.482328 
L 388.903055 61.627046 
L 389.243278 62.824441 
L 389.583501 62.225743 
L 389.923724 62.653384 
L 390.263947 61.284933 
L 390.60417 61.798103 
L 390.944394 61.969159 
L 391.284617 62.3968 
L 391.62484 60.51518 
L 391.965063 60.51518 
L 392.305286 61.712574 
L 392.645509 62.225743 
L 392.985733 61.028349 
L 393.325956 60.429652 
L 393.666179 62.140215 
L 394.346625 64.107363 
L 395.027072 61.113877 
L 395.367295 61.45599 
L 395.707518 61.969159 
L 396.047741 60.429652 
L 396.387964 62.824441 
L 396.728187 62.653384 
L 397.06841 61.199405 
L 397.408634 61.370462 
L 397.748857 62.225743 
L 398.08908 60.173067 
L 398.429303 60.51518 
L 398.769526 61.712574 
L 399.109749 61.541518 
L 399.449973 60.344123 
L 399.790196 60.686236 
L 400.130419 62.140215 
L 400.470642 60.429652 
L 400.810865 62.3968 
L 401.151088 62.482328 
L 401.491312 62.054687 
L 401.831535 61.113877 
L 402.171758 62.995497 
L 402.511981 61.883631 
L 402.852204 62.738912 
L 403.53265 61.712574 
L 403.872874 63.594194 
L 404.213097 62.3968 
L 404.55332 62.567856 
L 404.893543 61.370462 
L 405.233766 61.798103 
L 405.573989 59.488842 
L 405.914213 61.370462 
L 406.254436 62.311272 
L 406.594659 62.140215 
L 406.934882 59.745426 
L 407.275105 62.3968 
L 407.615328 59.317785 
L 407.955551 62.995497 
L 408.295775 61.284933 
L 408.635998 63.081025 
L 408.976221 61.798103 
L 409.316444 63.423138 
L 409.99689 61.798103 
L 410.337114 60.429652 
L 410.677337 61.627046 
L 411.01756 59.916483 
L 411.357783 62.140215 
L 411.698006 61.712574 
L 412.038229 63.679722 
L 413.058899 59.146729 
L 413.399122 61.028349 
L 413.739345 62.054687 
L 414.079568 61.370462 
L 414.760015 61.284933 
L 415.100238 62.653384 
L 415.440461 62.824441 
L 415.780684 61.284933 
L 416.46113 62.482328 
L 416.801354 61.028349 
L 417.141577 60.344123 
L 417.4818 60.600708 
L 417.822023 58.975673 
L 418.162246 61.45599 
L 418.502469 60.600708 
L 418.842693 58.890144 
L 419.182916 61.541518 
L 419.863362 61.284933 
L 420.203585 60.087539 
L 420.543808 62.482328 
L 421.224255 60.429652 
L 421.564478 62.909969 
L 421.904701 61.45599 
L 422.244924 61.883631 
L 422.585147 61.712574 
L 422.92537 61.284933 
L 423.265594 61.284933 
L 423.605817 62.995497 
L 423.94604 60.942821 
L 424.286263 59.57437 
L 424.626486 62.054687 
L 424.966709 60.002011 
L 425.306933 61.45599 
L 425.987379 61.883631 
L 426.327602 61.113877 
L 426.667825 62.140215 
L 427.008048 60.429652 
L 427.348271 61.798103 
L 427.688495 61.113877 
L 428.028718 61.627046 
L 428.368941 60.686236 
L 428.709164 61.370462 
L 429.049387 60.942821 
L 429.38961 61.199405 
L 429.729834 61.883631 
L 430.070057 61.627046 
L 430.41028 61.969159 
L 430.750503 59.232257 
L 431.090726 61.284933 
L 431.430949 59.659898 
L 431.771172 60.258595 
L 432.111396 59.061201 
L 432.451619 58.890144 
L 432.791842 60.942821 
L 433.132065 60.942821 
L 433.812511 62.311272 
L 434.152735 61.45599 
L 434.492958 59.745426 
L 434.833181 62.054687 
L 435.173404 60.51518 
L 435.513627 60.686236 
L 435.85385 60.002011 
L 436.534297 62.140215 
L 436.87452 59.317785 
L 437.214743 60.429652 
L 437.554966 60.857293 
L 437.895189 60.173067 
L 438.235412 60.002011 
L 438.575636 60.344123 
L 438.915859 59.488842 
L 439.596305 60.429652 
L 439.936528 59.57437 
L 440.957198 62.054687 
L 441.297421 61.370462 
L 441.637644 61.284933 
L 441.977867 63.166553 
L 442.31809 61.45599 
L 442.658314 61.541518 
L 442.998537 61.113877 
L 443.33876 61.627046 
L 443.678983 57.949334 
L 444.359429 61.370462 
L 444.699652 61.199405 
L 445.039876 61.712574 
L 445.380099 60.942821 
L 445.720322 61.541518 
L 446.060545 60.51518 
L 446.400768 60.344123 
L 446.740991 60.686236 
L 447.081215 60.087539 
L 447.761661 61.627046 
L 448.101884 61.028349 
L 448.442107 59.403314 
L 448.78233 58.975673 
L 449.122554 60.686236 
L 449.462777 61.627046 
L 449.803 61.284933 
L 450.143223 60.771764 
L 450.483446 61.969159 
L 451.163892 59.232257 
L 451.504116 59.916483 
L 451.844339 61.199405 
L 452.524785 58.975673 
L 452.865008 60.942821 
L 453.205231 59.916483 
L 453.545455 61.798103 
L 453.885678 61.969159 
L 454.225901 61.284933 
L 454.566124 60.173067 
L 454.906347 61.370462 
L 455.24657 60.002011 
L 455.586793 62.653384 
L 455.927017 59.061201 
L 456.26724 59.659898 
L 456.607463 61.969159 
L 456.947686 60.686236 
L 457.287909 61.113877 
L 457.628132 60.600708 
L 457.968356 58.890144 
L 458.308579 62.311272 
L 458.648802 60.686236 
L 458.989025 60.258595 
L 459.329248 60.942821 
L 459.669471 60.686236 
L 460.009695 59.830954 
L 460.690141 60.686236 
L 461.030364 59.232257 
L 461.71081 61.199405 
L 462.051033 60.002011 
L 462.391257 60.771764 
L 462.73148 59.317785 
L 463.071703 60.600708 
L 463.411926 60.087539 
L 463.752149 60.344123 
L 464.092372 58.719088 
L 464.432596 61.370462 
L 464.772819 59.403314 
L 465.113042 58.548032 
L 465.453265 62.054687 
L 465.793488 58.719088 
L 466.133711 59.57437 
L 466.473935 59.57437 
L 466.814158 59.745426 
L 467.154381 59.232257 
L 467.494604 58.975673 
L 467.834827 60.087539 
L 468.17505 59.317785 
L 468.515273 61.370462 
L 468.855497 60.429652 
L 469.19572 60.087539 
L 469.535943 61.028349 
L 469.876166 59.659898 
L 470.216389 60.344123 
L 470.556612 58.975673 
L 470.896836 61.199405 
L 471.237059 62.3968 
L 471.577282 59.403314 
L 471.917505 61.028349 
L 472.257728 61.028349 
L 473.278398 59.659898 
L 473.618621 60.173067 
L 473.958844 60.429652 
L 474.299067 59.061201 
L 474.63929 58.804616 
L 474.979513 60.600708 
L 475.319737 60.002011 
L 475.65996 58.890144 
L 476.000183 59.659898 
L 476.340406 59.317785 
L 476.680629 59.830954 
L 477.020852 60.600708 
L 477.361076 60.600708 
L 477.701299 59.146729 
L 478.041522 58.376975 
L 478.381745 60.087539 
L 479.062191 61.541518 
L 479.402414 59.317785 
L 479.742638 60.344123 
L 480.082861 59.488842 
L 480.423084 59.745426 
L 480.763307 60.258595 
L 481.10353 58.975673 
L 481.443753 59.830954 
L 481.783977 60.173067 
L 482.1242 60.942821 
L 482.464423 60.344123 
L 482.804646 59.317785 
L 483.144869 60.429652 
L 483.485092 59.061201 
L 483.825316 60.429652 
L 484.165539 58.63356 
L 484.505762 61.712574 
L 484.845985 57.521694 
L 485.186208 60.600708 
L 485.526431 59.232257 
L 485.866654 59.146729 
L 486.206878 59.403314 
L 486.547101 60.600708 
L 486.887324 61.113877 
L 487.227547 60.087539 
L 487.56777 59.57437 
L 487.907993 60.173067 
L 488.248217 60.344123 
L 488.58844 60.686236 
L 488.928663 58.804616 
L 489.268886 59.317785 
L 489.609109 59.232257 
L 489.949332 60.173067 
L 490.289556 60.344123 
L 490.629779 59.232257 
L 490.970002 59.57437 
L 491.310225 59.488842 
L 491.990671 58.890144 
L 492.330894 58.719088 
L 492.671118 61.45599 
L 493.011341 60.087539 
L 493.351564 60.002011 
L 493.691787 60.258595 
L 494.03201 58.890144 
L 494.372233 58.804616 
L 494.712457 60.002011 
L 495.05268 59.659898 
L 495.392903 61.370462 
L 495.733126 60.002011 
L 496.073349 59.659898 
L 496.413572 59.830954 
L 496.753796 58.890144 
L 497.434242 59.659898 
L 497.774465 55.81113 
L 498.114688 61.028349 
L 498.795134 58.890144 
L 499.135358 59.317785 
L 499.475581 59.232257 
L 499.815804 60.686236 
L 500.156027 58.804616 
L 500.49625 59.232257 
L 500.836473 58.975673 
L 501.176697 57.778278 
L 501.857143 60.51518 
L 502.197366 58.291447 
L 502.537589 60.002011 
L 502.877812 60.429652 
L 503.218035 59.317785 
L 503.558259 60.51518 
L 503.898482 59.403314 
L 504.238705 60.857293 
L 504.578928 58.63356 
L 504.919151 59.488842 
L 505.259374 59.57437 
L 505.599598 58.120391 
L 505.939821 60.686236 
L 506.280044 60.51518 
L 506.620267 61.199405 
L 507.300713 58.548032 
L 507.640937 58.548032 
L 507.98116 58.975673 
L 508.321383 58.291447 
L 509.001829 60.173067 
L 509.342052 59.232257 
L 509.682275 60.258595 
L 510.022499 58.462504 
L 510.362722 59.232257 
L 510.702945 57.863806 
L 511.043168 58.548032 
L 511.383391 58.120391 
L 511.723614 58.462504 
L 512.404061 60.087539 
L 512.744284 58.975673 
L 513.084507 61.028349 
L 513.42473 58.63356 
L 513.764953 57.949334 
L 514.105177 58.120391 
L 514.4454 59.403314 
L 514.785623 58.462504 
L 515.125846 59.745426 
L 515.466069 59.659898 
L 515.806292 57.607222 
L 516.146515 60.51518 
L 516.486739 59.146729 
L 516.826962 60.771764 
L 517.167185 60.002011 
L 517.507408 57.949334 
L 517.847631 59.146729 
L 518.187854 58.890144 
L 518.528078 60.002011 
L 518.868301 58.291447 
L 519.208524 58.890144 
L 519.548747 58.975673 
L 519.88897 58.120391 
L 520.229193 59.146729 
L 520.569416 58.120391 
L 520.90964 59.317785 
L 521.249863 59.317785 
L 521.590086 58.291447 
L 521.930309 58.291447 
L 522.270532 57.607222 
L 522.610755 57.521694 
L 522.950979 59.57437 
L 523.291202 57.607222 
L 523.631425 59.317785 
L 523.971648 57.607222 
L 524.311871 58.63356 
L 524.652094 56.75194 
L 524.992318 59.659898 
L 525.332541 58.205919 
L 525.672764 59.57437 
L 526.012987 58.376975 
L 526.35321 58.291447 
L 526.693433 58.63356 
L 527.033656 59.146729 
L 527.37388 58.205919 
L 527.714103 60.429652 
L 528.054326 59.232257 
L 528.394549 60.087539 
L 528.734772 57.69275 
L 529.074995 61.284933 
L 529.415219 59.403314 
L 529.755442 61.028349 
L 530.095665 58.804616 
L 530.435888 58.890144 
L 531.116334 57.094053 
L 531.456558 60.258595 
L 531.796781 56.75194 
L 532.137004 56.666412 
L 532.477227 58.548032 
L 532.81745 58.291447 
L 533.157673 58.63356 
L 533.497896 59.745426 
L 533.83812 57.008524 
L 534.178343 58.63356 
L 534.518566 58.719088 
L 534.858789 58.291447 
L 535.199012 58.890144 
L 535.539235 57.863806 
L 536.559905 60.429652 
L 536.900128 58.548032 
L 537.240351 58.548032 
L 537.580574 59.745426 
L 537.920798 60.258595 
L 538.261021 58.548032 
L 538.601244 58.205919 
L 538.941467 58.719088 
L 539.28169 58.548032 
L 539.621913 59.488842 
L 539.962136 59.488842 
L 540.30236 59.745426 
L 540.642583 57.949334 
L 540.982806 58.890144 
L 541.323029 59.317785 
L 541.663252 58.63356 
L 542.003475 59.232257 
L 542.343699 59.403314 
L 542.683922 58.548032 
L 543.024145 59.317785 
L 543.364368 59.317785 
L 543.704591 59.745426 
L 544.725261 58.034863 
L 545.065484 58.548032 
L 545.405707 58.034863 
L 545.74593 60.942821 
L 546.086153 59.317785 
L 546.7666 59.403314 
L 547.106823 58.376975 
L 547.787269 58.975673 
L 548.127492 58.376975 
L 548.467715 58.462504 
L 548.807939 59.232257 
L 549.148162 59.659898 
L 549.488385 58.890144 
L 549.828608 57.607222 
L 550.168831 58.719088 
L 550.509054 58.719088 
L 550.849277 59.232257 
L 551.189501 60.51518 
L 551.529724 58.548032 
L 551.869947 59.317785 
L 552.21017 58.975673 
L 552.550393 59.146729 
L 552.890616 59.488842 
L 553.23084 57.778278 
L 553.571063 59.403314 
L 553.911286 58.376975 
L 554.251509 59.061201 
L 554.591732 59.488842 
L 554.931955 58.462504 
L 555.272179 58.205919 
L 555.612402 58.804616 
L 555.952625 58.63356 
L 556.292848 59.146729 
L 556.633071 57.265109 
L 556.973294 58.120391 
L 557.313517 58.376975 
L 557.653741 59.57437 
L 557.993964 57.863806 
L 558.334187 58.719088 
L 558.67441 58.804616 
L 559.014633 59.488842 
L 559.354856 57.778278 
L 559.69508 59.830954 
L 560.035303 57.863806 
L 560.375526 57.949334 
L 560.715749 57.521694 
L 561.055972 59.232257 
L 561.396195 60.002011 
L 561.736419 59.061201 
L 562.076642 59.232257 
L 562.416865 57.436165 
L 562.757088 57.350637 
L 563.097311 60.51518 
L 563.437534 58.890144 
L 563.777757 58.120391 
L 564.117981 58.890144 
L 564.458204 57.265109 
L 564.798427 58.63356 
L 565.13865 57.265109 
L 565.478873 59.488842 
L 565.819096 57.521694 
L 566.15932 58.376975 
L 566.499543 59.57437 
L 566.839766 58.291447 
L 567.520212 58.548032 
L 567.860435 58.120391 
L 568.200658 59.916483 
L 568.540882 58.890144 
L 568.881105 56.238771 
L 569.221328 58.120391 
L 569.561551 58.548032 
L 569.901774 57.436165 
L 570.241997 58.890144 
L 570.582221 58.376975 
L 570.922444 58.804616 
L 571.262667 58.376975 
L 571.60289 56.409827 
L 571.943113 57.008524 
L 572.283336 59.916483 
L 572.62356 57.949334 
L 572.963783 59.061201 
L 573.304006 59.232257 
L 573.644229 60.002011 
L 573.984452 58.376975 
L 574.324675 59.232257 
L 575.005122 57.863806 
L 575.345345 57.863806 
L 575.685568 57.265109 
L 576.366014 58.975673 
L 576.706237 57.69275 
L 577.386684 57.265109 
L 577.726907 57.350637 
L 578.06713 59.488842 
L 578.407353 58.120391 
L 578.747576 58.205919 
L 579.0878 57.436165 
L 579.428023 59.232257 
L 579.768246 57.094053 
L 580.108469 57.778278 
L 580.448692 57.094053 
L 580.788915 59.57437 
L 581.129138 57.778278 
L 581.469362 58.975673 
L 581.809585 57.69275 
L 582.149808 57.607222 
L 582.490031 57.008524 
L 582.830254 55.640074 
L 583.170477 58.719088 
L 583.510701 57.863806 
L 584.191147 59.061201 
L 584.53137 58.205919 
L 584.871593 59.146729 
L 585.211816 58.548032 
L 585.55204 58.63356 
L 585.892263 59.830954 
L 586.232486 57.521694 
L 586.572709 59.061201 
L 587.253155 58.120391 
L 587.593378 58.120391 
L 587.933602 57.521694 
L 588.273825 57.179581 
L 588.614048 57.69275 
L 588.954271 58.548032 
L 589.294494 57.008524 
L 589.634717 58.291447 
L 589.974941 57.008524 
L 590.315164 60.173067 
L 590.655387 58.034863 
L 590.99561 58.719088 
L 591.676056 55.554545 
L 592.016279 58.376975 
L 592.356503 59.659898 
L 593.036949 57.69275 
L 593.377172 57.350637 
L 593.717395 58.548032 
L 594.057618 56.837468 
L 594.738065 58.804616 
L 595.078288 58.376975 
L 595.418511 57.179581 
L 595.758734 58.804616 
L 596.098957 57.094053 
L 596.439181 58.376975 
L 596.779404 57.607222 
L 597.119627 58.034863 
L 597.45985 57.265109 
L 597.800073 55.640074 
L 598.140296 58.034863 
L 598.480519 59.57437 
L 599.160966 57.265109 
L 599.501189 58.63356 
L 599.841412 57.350637 
L 600.181635 57.265109 
L 600.521858 57.521694 
L 600.862082 56.922996 
L 601.202305 57.008524 
L 601.542528 56.922996 
L 601.882751 58.975673 
L 602.222974 57.778278 
L 602.563197 58.719088 
L 602.903421 57.436165 
L 603.243644 58.63356 
L 603.583867 56.153243 
L 603.92409 58.120391 
L 604.264313 57.863806 
L 604.604536 58.719088 
L 604.944759 56.238771 
L 605.284983 57.949334 
L 605.625206 57.521694 
L 605.965429 60.002011 
L 606.305652 57.179581 
L 606.645875 57.350637 
L 606.986098 56.495355 
L 607.326322 56.324299 
L 607.666545 58.890144 
L 608.006768 57.607222 
L 608.346991 57.607222 
L 608.687214 58.975673 
L 609.367661 56.580884 
L 609.707884 57.521694 
L 610.38833 57.265109 
L 610.728553 57.521694 
L 611.068776 58.462504 
L 611.408999 56.922996 
L 612.089446 57.350637 
L 612.429669 57.008524 
L 612.769892 56.153243 
L 613.110115 58.034863 
L 613.450338 56.922996 
L 613.790562 58.291447 
L 614.130785 58.376975 
L 614.471008 57.949334 
L 614.811231 56.75194 
L 615.151454 57.69275 
L 615.491677 57.69275 
L 615.8319 58.120391 
L 616.172124 57.265109 
L 616.512347 58.462504 
L 616.85257 58.548032 
L 617.192793 56.324299 
L 617.533016 59.659898 
L 617.873239 58.120391 
L 618.213463 58.034863 
L 618.553686 57.521694 
L 618.893909 55.725602 
L 619.234132 56.922996 
L 619.574355 57.179581 
L 619.914578 57.179581 
L 620.254802 58.376975 
L 620.595025 56.324299 
L 620.935248 56.75194 
L 621.275471 55.982186 
L 621.615694 57.778278 
L 621.955917 56.495355 
L 622.29614 57.265109 
L 622.636364 59.146729 
L 622.636364 59.146729 
" style="fill:none;stroke:#1f77b4;stroke-linecap:square;stroke-width:0.5;"/>
   </g>
   <g id="line2d_34">
    <path clip-path="url(#p69d3a497bc)" d="M 115.363636 299.053271 
L 115.70386 297.513764 
L 116.044083 302.303342 
L 116.384306 297.513764 
L 116.724529 297.428236 
L 117.064752 296.316369 
L 117.404975 295.632144 
L 118.085422 289.7307 
L 118.425645 291.441263 
L 118.765868 284.684537 
L 119.106091 281.691051 
L 119.446314 280.750241 
L 120.126761 275.190909 
L 120.466984 265.868338 
L 120.807207 266.295978 
L 121.14743 264.072246 
L 121.487653 260.993231 
L 121.827876 259.966893 
L 122.1681 251.841716 
L 122.508323 247.565307 
L 122.848546 241.578335 
L 123.188769 241.236222 
L 123.528992 240.551997 
L 123.869215 233.966327 
L 124.209438 233.111045 
L 124.549662 225.84115 
L 124.889885 226.610903 
L 125.230108 217.37386 
L 125.570331 215.748825 
L 125.910554 210.702662 
L 126.250777 210.018437 
L 126.931224 203.603823 
L 127.271447 194.024667 
L 127.61167 196.333928 
L 127.951893 192.570688 
L 128.292116 183.932342 
L 128.632339 183.675758 
L 128.972563 177.774313 
L 129.312786 176.747975 
L 129.653009 168.879383 
L 129.993232 170.761003 
L 130.333455 162.037128 
L 130.673678 163.405579 
L 131.013902 160.583149 
L 131.694348 153.655367 
L 132.034571 155.622515 
L 132.374794 153.398782 
L 132.715017 146.984169 
L 133.055241 149.550014 
L 133.395464 146.898641 
L 133.735687 147.069697 
L 134.416133 136.977372 
L 134.756356 141.852478 
L 135.436803 136.720787 
L 135.777026 130.904871 
L 136.117249 131.931209 
L 136.457472 134.24047 
L 136.797695 134.325998 
L 137.137918 132.35885 
L 137.478142 129.53642 
L 137.818365 134.668111 
L 138.498811 126.371878 
L 138.839034 130.306174 
L 139.179257 127.312688 
L 139.519481 123.292863 
L 139.859704 123.378391 
L 140.199927 126.029765 
L 140.54015 122.694166 
L 140.880373 117.562475 
L 141.220596 118.845398 
L 141.560819 116.536137 
L 142.241266 120.299377 
L 142.581489 115.595327 
L 142.921712 114.911102 
L 143.261935 115.338743 
L 143.602158 108.838601 
L 143.942382 112.858425 
L 144.282605 115.338743 
L 144.622828 114.740045 
L 144.963051 111.661031 
L 145.303274 112.516313 
L 145.983721 110.634693 
L 146.323944 107.47015 
L 146.664167 106.358284 
L 147.00439 105.930643 
L 147.344613 104.989833 
L 147.684836 106.101699 
L 148.025059 104.049023 
L 148.365283 104.64772 
L 148.705506 101.397649 
L 149.045729 99.94367 
L 149.385952 102.081875 
L 149.726175 99.00286 
L 150.066398 103.963495 
L 150.406622 100.285783 
L 150.746845 100.371311 
L 151.087068 99.601558 
L 151.427291 101.397649 
L 151.767514 97.292297 
L 152.107737 97.035712 
L 152.44796 98.318635 
L 152.788184 96.864656 
L 153.128407 96.6936 
L 153.46863 95.068564 
L 153.808853 94.555395 
L 154.149076 96.608071 
L 154.489299 92.844831 
L 154.829523 94.983036 
L 155.169746 95.154092 
L 155.509969 94.042226 
L 155.850192 95.496205 
L 156.190415 93.87117 
L 156.530638 91.476381 
L 157.211085 93.700113 
L 157.551308 90.963212 
L 157.891531 91.561909 
L 158.231754 93.358001 
L 158.571977 90.193458 
L 158.9122 92.417191 
L 159.252424 89.851345 
L 159.592647 89.851345 
L 159.93287 89.509233 
L 160.273093 91.647437 
L 160.613316 88.825007 
L 160.953539 93.101416 
L 161.293763 88.825007 
L 161.633986 89.680289 
L 161.974209 86.943387 
L 162.314432 90.278986 
L 162.654655 87.114444 
L 162.994878 87.028915 
L 163.335102 89.765817 
L 163.675325 85.574936 
L 164.355771 89.16712 
L 164.695994 87.371028 
L 165.036217 86.772331 
L 165.37644 85.660464 
L 165.716664 87.542084 
L 166.056887 87.713141 
L 166.39711 86.34469 
L 166.737333 87.028915 
L 167.077556 83.265675 
L 167.417779 85.147295 
L 167.758003 85.745993 
L 168.098226 83.607788 
L 168.438449 83.094619 
L 168.778672 83.949901 
L 169.118895 84.206485 
L 169.459118 83.52226 
L 169.799342 83.351204 
L 170.139565 85.917049 
L 170.820011 82.410394 
L 171.160234 81.811696 
L 171.500457 82.58145 
L 171.84068 85.147295 
L 172.180904 83.180147 
L 172.521127 84.035429 
L 172.86135 82.495922 
L 173.201573 84.548598 
L 173.882019 83.351204 
L 174.222243 83.778845 
L 174.562466 84.976239 
L 174.902689 85.147295 
L 175.242912 84.719654 
L 175.583135 80.69983 
L 175.923358 82.324865 
L 176.263581 82.752506 
L 176.603805 82.838035 
L 176.944028 81.64064 
L 177.284251 82.58145 
L 177.624474 79.930076 
L 177.964697 81.811696 
L 178.30492 81.212999 
L 178.645144 80.956415 
L 178.985367 81.041943 
L 179.32559 80.785358 
L 179.665813 82.58145 
L 180.346259 79.331379 
L 180.686483 79.502436 
L 181.026706 80.870886 
L 181.366929 81.64064 
L 181.707152 80.443246 
L 182.047375 79.930076 
L 182.387598 81.469584 
L 183.068045 78.561626 
L 183.748491 79.930076 
L 184.088714 78.989266 
L 184.428937 78.903738 
L 184.76916 77.535287 
L 185.109384 80.101133 
L 185.449607 79.930076 
L 185.78983 78.305041 
L 186.130053 79.416907 
L 186.470276 78.219513 
L 186.810499 78.561626 
L 187.150723 80.101133 
L 187.490946 76.337893 
L 187.831169 77.193175 
L 188.171392 77.449759 
L 188.511615 76.93659 
L 189.192061 80.272189 
L 189.532285 78.305041 
L 189.872508 78.305041 
L 190.212731 77.022118 
L 190.552954 78.561626 
L 191.2334 76.93659 
L 191.573624 79.587964 
L 191.913847 76.252365 
L 192.25407 78.305041 
L 192.594293 78.219513 
L 192.934516 78.390569 
L 193.274739 76.680006 
L 193.614963 76.166837 
L 193.955186 76.508949 
L 194.295409 76.680006 
L 194.635632 78.732682 
L 194.975855 76.765534 
L 195.316078 77.364231 
L 195.656301 78.476097 
L 195.996525 76.252365 
L 196.336748 77.535287 
L 196.676971 76.594477 
L 197.017194 77.364231 
L 197.357417 76.594477 
L 197.69764 77.364231 
L 198.037864 75.311555 
L 198.71831 76.337893 
L 199.058533 77.022118 
L 199.398756 79.245851 
L 199.738979 76.680006 
L 200.079202 79.074795 
L 200.419426 74.541801 
L 200.759649 77.449759 
L 201.099872 77.278703 
L 202.120541 75.482611 
L 202.460765 76.765534 
L 202.800988 76.765534 
L 203.141211 75.140498 
L 203.481434 75.910252 
L 203.821657 75.824724 
L 204.502104 75.05497 
L 204.842327 74.285217 
L 205.18255 75.311555 
L 205.522773 77.449759 
L 205.862996 76.765534 
L 206.203219 76.765534 
L 206.543442 76.594477 
L 206.883666 75.653668 
L 207.223889 73.17335 
L 207.564112 73.772048 
L 207.904335 75.568139 
L 208.244558 74.969442 
L 208.584781 77.022118 
L 208.925005 73.857576 
L 209.265228 74.11416 
L 209.605451 75.824724 
L 209.945674 73.087822 
L 210.285897 75.311555 
L 210.62612 76.765534 
L 210.966344 74.969442 
L 211.306567 75.140498 
L 211.64679 74.969442 
L 211.987013 75.568139 
L 212.327236 74.883914 
L 212.667459 75.05497 
L 213.007682 75.397083 
L 213.347906 74.712858 
L 213.688129 74.370745 
L 214.028352 74.627329 
L 214.368575 78.732682 
L 214.708798 72.745709 
L 215.049021 73.686519 
L 215.389245 76.252365 
L 215.729468 74.285217 
L 216.069691 73.429935 
L 216.409914 74.370745 
L 216.750137 74.627329 
L 217.09036 74.627329 
L 217.430584 75.653668 
L 217.770807 73.943104 
L 218.11103 74.712858 
L 218.451253 74.370745 
L 218.791476 75.568139 
L 219.131699 73.515463 
L 219.471922 74.028632 
L 219.812146 76.337893 
L 220.152369 72.489125 
L 220.492592 73.344407 
L 220.832815 73.002294 
L 221.173038 71.548315 
L 221.513261 74.199688 
L 222.193708 72.831238 
L 222.533931 74.285217 
L 222.874154 72.489125 
L 223.214377 74.199688 
L 223.5546 74.370745 
L 223.894823 73.515463 
L 224.235047 75.99578 
L 224.57527 73.857576 
L 224.915493 74.627329 
L 225.255716 73.258879 
L 225.595939 74.370745 
L 225.936162 74.028632 
L 226.276386 73.087822 
L 226.616609 73.344407 
L 226.956832 72.23254 
L 227.297055 74.541801 
L 227.637278 71.975956 
L 227.977501 73.429935 
L 228.317725 73.429935 
L 228.657948 72.318069 
L 228.998171 71.719371 
L 229.338394 72.660181 
L 229.678617 74.11416 
L 230.01884 73.17335 
L 230.359063 72.831238 
L 230.699287 73.943104 
L 231.03951 70.35092 
L 231.719956 76.252365 
L 232.060179 71.29173 
L 232.400402 70.864089 
L 232.740626 73.515463 
L 233.080849 71.462787 
L 233.421072 70.778561 
L 233.761295 71.206202 
L 234.101518 70.008808 
L 234.441741 73.17335 
L 234.781965 71.975956 
L 235.122188 73.600991 
L 235.462411 70.436449 
L 235.802634 70.094336 
L 236.142857 73.857576 
L 236.48308 72.061484 
L 236.823303 71.377259 
L 237.163527 71.719371 
L 237.50375 71.462787 
L 237.843973 71.975956 
L 238.184196 70.949618 
L 238.524419 70.864089 
L 238.864642 71.804899 
L 239.204866 71.804899 
L 239.545089 71.035146 
L 239.885312 71.633843 
L 240.225535 69.324582 
L 240.565758 72.916766 
L 240.905981 71.975956 
L 241.246204 73.17335 
L 241.926651 69.067998 
L 242.266874 72.23254 
L 242.607097 69.324582 
L 242.94732 71.975956 
L 243.287543 71.206202 
L 243.627767 69.837751 
L 244.308213 71.719371 
L 244.648436 72.061484 
L 244.988659 71.29173 
L 245.328882 70.179864 
L 245.669106 70.265392 
L 246.009329 70.521977 
L 246.349552 72.660181 
L 246.689775 68.383772 
L 247.029998 72.831238 
L 247.370221 71.462787 
L 247.710444 70.864089 
L 248.050668 71.377259 
L 248.390891 73.429935 
L 248.731114 70.693033 
L 249.071337 71.120674 
L 249.41156 69.41011 
L 249.751783 70.864089 
L 250.092007 68.98247 
L 250.43223 71.462787 
L 251.112676 68.725885 
L 251.452899 71.29173 
L 251.793122 69.067998 
L 252.133346 72.916766 
L 252.473569 70.949618 
L 252.813792 72.147012 
L 253.154015 71.804899 
L 253.494238 70.521977 
L 253.834461 71.804899 
L 254.174684 69.581167 
L 254.514908 68.98247 
L 254.855131 70.607505 
L 255.195354 68.811413 
L 255.535577 69.067998 
L 255.8758 69.581167 
L 256.216023 69.324582 
L 256.556247 68.640357 
L 256.89647 69.324582 
L 257.236693 71.633843 
L 257.576916 69.324582 
L 257.917139 70.008808 
L 258.257362 71.377259 
L 258.597586 70.094336 
L 258.937809 71.29173 
L 259.618255 70.436449 
L 259.958478 68.640357 
L 260.298701 71.804899 
L 260.638924 71.719371 
L 260.979148 70.436449 
L 261.319371 66.074511 
L 261.659594 71.206202 
L 262.34004 67.442962 
L 262.680263 69.666695 
L 263.020487 70.094336 
L 263.36071 71.462787 
L 263.700933 70.864089 
L 264.041156 69.666695 
L 264.381379 69.752223 
L 265.061825 71.633843 
L 265.402049 68.212716 
L 265.742272 69.153526 
L 266.082495 68.811413 
L 266.422718 69.324582 
L 266.762941 70.778561 
L 267.103164 70.265392 
L 267.443388 70.778561 
L 267.783611 69.752223 
L 268.123834 69.92328 
L 268.464057 71.462787 
L 268.80428 69.067998 
L 269.144503 68.212716 
L 269.484727 71.804899 
L 269.82495 70.008808 
L 270.165173 70.265392 
L 270.505396 68.04166 
L 270.845619 69.067998 
L 271.185842 68.811413 
L 271.526065 67.956131 
L 271.866289 70.607505 
L 272.206512 68.4693 
L 272.546735 71.975956 
L 272.886958 67.015321 
L 273.567404 71.120674 
L 273.907628 68.98247 
L 274.247851 69.324582 
L 274.588074 70.436449 
L 274.928297 66.673209 
L 275.26852 68.212716 
L 275.608743 67.271906 
L 275.948967 69.581167 
L 276.28919 69.41011 
L 276.629413 69.92328 
L 276.969636 69.41011 
L 277.309859 66.502152 
L 277.650082 67.186378 
L 277.990305 68.640357 
L 278.330529 68.554829 
L 278.670752 68.811413 
L 279.010975 70.521977 
L 279.351198 67.785075 
L 279.691421 70.436449 
L 280.031644 68.98247 
L 280.371868 69.153526 
L 281.052314 71.633843 
L 281.392537 68.640357 
L 281.73276 70.949618 
L 282.072983 67.186378 
L 282.75343 70.693033 
L 283.093653 68.98247 
L 283.433876 68.640357 
L 283.774099 68.725885 
L 284.114322 66.673209 
L 284.454545 68.896941 
L 284.794769 67.186378 
L 285.134992 67.271906 
L 285.475215 67.785075 
L 285.815438 66.758737 
L 286.155661 68.383772 
L 286.495884 71.975956 
L 286.836108 66.331096 
L 287.176331 68.725885 
L 287.516554 68.04166 
L 287.856777 68.896941 
L 288.197 68.04166 
L 288.537223 69.92328 
L 288.877446 68.811413 
L 289.21767 69.239054 
L 289.557893 68.04166 
L 289.898116 69.837751 
L 290.238339 69.581167 
L 290.578562 67.614019 
L 290.918785 68.725885 
L 291.259009 68.04166 
L 291.599232 67.614019 
L 291.939455 68.554829 
L 292.279678 68.212716 
L 292.619901 70.265392 
L 292.960124 69.239054 
L 293.300348 67.528491 
L 293.640571 69.153526 
L 293.980794 68.212716 
L 294.321017 66.929793 
L 294.66124 68.04166 
L 295.001463 67.785075 
L 295.341686 68.554829 
L 295.68191 66.844265 
L 296.022133 68.811413 
L 296.362356 66.929793 
L 296.702579 67.699547 
L 297.042802 68.896941 
L 297.383025 68.896941 
L 297.723249 67.442962 
L 298.063472 68.04166 
L 298.403695 69.153526 
L 298.743918 66.673209 
L 299.084141 70.008808 
L 299.424364 70.265392 
L 299.764588 67.956131 
L 300.445034 69.41011 
L 300.785257 69.666695 
L 301.12548 70.179864 
L 301.465703 68.640357 
L 301.805926 65.21923 
L 302.14615 69.666695 
L 302.486373 67.870603 
L 302.826596 67.699547 
L 303.166819 68.896941 
L 303.507042 67.10085 
L 303.847265 70.094336 
L 304.187489 67.357434 
L 304.527712 68.554829 
L 304.867935 68.04166 
L 305.208158 66.502152 
L 305.548381 68.98247 
L 305.888604 69.41011 
L 306.228828 65.817927 
L 306.569051 68.725885 
L 306.909274 68.127188 
L 307.249497 67.271906 
L 307.58972 69.752223 
L 308.270166 65.817927 
L 308.61039 68.554829 
L 308.950613 66.502152 
L 309.290836 67.956131 
L 309.631059 67.614019 
L 309.971282 68.298244 
L 310.311505 67.186378 
L 310.651729 68.298244 
L 310.991952 65.903455 
L 311.332175 69.153526 
L 311.672398 67.956131 
L 312.012621 68.896941 
L 312.352844 68.640357 
L 312.693067 69.495639 
L 313.033291 67.271906 
L 313.373514 68.725885 
L 313.713737 67.870603 
L 314.05396 70.179864 
L 314.394183 65.988983 
L 314.734406 68.298244 
L 315.07463 67.357434 
L 315.414853 67.442962 
L 315.755076 66.844265 
L 316.095299 69.067998 
L 316.435522 68.896941 
L 316.775745 66.331096 
L 317.115969 68.212716 
L 317.456192 67.956131 
L 317.796415 67.442962 
L 318.136638 65.817927 
L 318.476861 65.903455 
L 318.817084 69.581167 
L 319.157307 70.265392 
L 319.837754 66.587681 
L 320.177977 67.956131 
L 320.5182 66.758737 
L 320.858423 68.04166 
L 321.198646 66.331096 
L 321.53887 66.929793 
L 321.879093 65.646871 
L 322.219316 67.956131 
L 322.559539 67.528491 
L 322.899762 65.390286 
L 323.239985 68.640357 
L 323.580209 65.988983 
L 323.920432 65.646871 
L 324.260655 68.383772 
L 324.600878 68.98247 
L 324.941101 65.903455 
L 325.281324 67.442962 
L 325.621547 67.015321 
L 325.961771 67.271906 
L 326.301994 66.245568 
L 326.642217 65.903455 
L 326.98244 68.127188 
L 327.662886 65.817927 
L 328.00311 67.10085 
L 328.343333 67.015321 
L 328.683556 66.331096 
L 329.023779 67.956131 
L 329.364002 67.442962 
L 329.704225 65.561342 
L 330.044449 67.528491 
L 330.384672 65.475814 
L 330.724895 67.271906 
L 331.065118 65.561342 
L 331.405341 66.844265 
L 332.085787 67.956131 
L 332.426011 66.673209 
L 332.766234 69.92328 
L 333.106457 67.271906 
L 333.44668 68.212716 
L 333.786903 67.614019 
L 334.46735 67.271906 
L 335.147796 68.725885 
L 335.488019 68.554829 
L 335.828242 67.186378 
L 336.508688 66.502152 
L 336.848912 66.245568 
L 337.189135 68.896941 
L 337.529358 66.673209 
L 337.869581 67.528491 
L 338.209804 65.732399 
L 338.550027 65.988983 
L 338.890251 66.758737 
L 339.230474 67.10085 
L 339.570697 67.785075 
L 339.91092 66.758737 
L 340.591366 68.4693 
L 340.93159 69.067998 
L 341.271813 66.844265 
L 341.612036 67.699547 
L 341.952259 67.785075 
L 342.292482 67.186378 
L 342.632705 69.239054 
L 342.972928 69.239054 
L 343.313152 67.699547 
L 343.653375 67.870603 
L 343.993598 66.074511 
L 344.333821 67.442962 
L 344.674044 68.04166 
L 345.014267 65.21923 
L 345.354491 65.304758 
L 345.694714 66.844265 
L 346.034937 67.442962 
L 346.37516 66.673209 
L 346.715383 66.331096 
L 347.055606 69.153526 
L 347.39583 65.988983 
L 348.076276 67.357434 
L 348.416499 67.528491 
L 348.756722 67.357434 
L 349.096945 66.245568 
L 349.437168 68.04166 
L 349.777392 68.811413 
L 350.117615 67.442962 
L 350.457838 67.699547 
L 350.798061 66.929793 
L 351.138284 67.357434 
L 351.818731 66.673209 
L 352.499177 67.528491 
L 352.8394 66.502152 
L 353.179623 67.956131 
L 353.519846 66.758737 
L 354.200293 68.811413 
L 354.540516 68.725885 
L 354.880739 67.10085 
L 355.220962 67.271906 
L 355.561185 66.074511 
L 355.901408 68.383772 
L 356.241632 66.758737 
L 356.581855 65.732399 
L 356.922078 67.10085 
L 357.602524 68.298244 
L 358.282971 66.16004 
L 358.623194 66.245568 
L 358.963417 67.015321 
L 359.30364 65.732399 
L 359.643863 67.186378 
L 359.984086 64.192892 
L 360.324309 66.331096 
L 360.664533 66.074511 
L 361.004756 65.390286 
L 361.344979 67.186378 
L 362.025425 67.10085 
L 362.365648 66.245568 
L 362.705872 67.357434 
L 363.046095 65.988983 
L 363.386318 65.133702 
L 363.726541 67.015321 
L 364.066764 65.903455 
L 364.747211 67.870603 
L 365.087434 66.673209 
L 365.427657 65.903455 
L 365.76788 66.929793 
L 366.448326 65.988983 
L 367.128773 66.074511 
L 367.468996 67.357434 
L 367.809219 64.535004 
L 368.149442 66.758737 
L 368.489665 66.245568 
L 368.829888 66.331096 
L 369.170112 67.015321 
L 369.510335 66.929793 
L 369.850558 69.324582 
L 370.531004 67.271906 
L 370.871227 64.877117 
L 371.211451 64.791589 
L 371.551674 64.27842 
L 371.891897 65.903455 
L 372.23212 65.21923 
L 372.572343 67.271906 
L 372.912566 67.956131 
L 373.593013 65.732399 
L 373.933236 68.640357 
L 374.273459 65.988983 
L 374.613682 67.10085 
L 374.953905 67.357434 
L 375.294128 66.331096 
L 375.634352 65.903455 
L 375.974575 67.870603 
L 376.314798 65.903455 
L 376.655021 66.587681 
L 376.995244 65.133702 
L 377.335467 65.817927 
L 377.675691 65.304758 
L 378.015914 67.785075 
L 378.356137 65.817927 
L 378.69636 68.554829 
L 379.036583 68.383772 
L 379.376806 66.245568 
L 379.717029 66.587681 
L 380.057253 66.331096 
L 380.397476 66.245568 
L 380.737699 66.844265 
L 381.077922 66.245568 
L 381.418145 67.528491 
L 381.758368 64.620532 
L 382.098592 65.133702 
L 382.438815 67.528491 
L 382.779038 65.390286 
L 383.119261 64.27842 
L 383.459484 66.673209 
L 383.799707 66.758737 
L 384.480154 65.133702 
L 384.820377 67.10085 
L 385.1606 66.758737 
L 385.500823 65.903455 
L 385.841046 66.758737 
L 386.181269 66.758737 
L 386.521493 67.015321 
L 386.861716 67.442962 
L 387.201939 66.16004 
L 387.542162 66.16004 
L 387.882385 65.988983 
L 388.222608 67.271906 
L 388.562832 64.363948 
L 388.903055 66.502152 
L 389.243278 66.844265 
L 389.583501 65.304758 
L 389.923724 65.646871 
L 390.263947 66.758737 
L 390.60417 65.475814 
L 390.944394 64.706061 
L 391.62484 66.844265 
L 391.965063 66.16004 
L 392.305286 66.844265 
L 392.985733 64.27842 
L 393.325956 65.817927 
L 393.666179 65.561342 
L 394.006402 63.508666 
L 394.346625 64.706061 
L 394.686848 65.390286 
L 395.027072 64.620532 
L 395.367295 67.442962 
L 395.707518 65.133702 
L 396.047741 65.903455 
L 396.387964 65.817927 
L 396.728187 66.416624 
L 397.06841 67.699547 
L 397.408634 67.186378 
L 397.748857 66.331096 
L 398.08908 67.015321 
L 398.429303 64.962645 
L 398.769526 65.561342 
L 399.109749 65.21923 
L 399.449973 67.015321 
L 400.130419 67.785075 
L 400.470642 67.10085 
L 400.810865 65.21923 
L 401.151088 67.442962 
L 401.491312 67.015321 
L 402.171758 65.133702 
L 402.511981 64.620532 
L 402.852204 65.903455 
L 403.192427 65.732399 
L 403.53265 65.390286 
L 403.872874 64.27842 
L 404.213097 66.416624 
L 404.55332 65.304758 
L 404.893543 66.416624 
L 405.233766 66.758737 
L 405.573989 65.732399 
L 405.914213 66.502152 
L 406.254436 64.449476 
L 406.594659 67.186378 
L 406.934882 67.699547 
L 407.275105 64.620532 
L 407.615328 67.186378 
L 407.955551 65.646871 
L 408.295775 66.673209 
L 408.635998 64.192892 
L 408.976221 66.502152 
L 409.316444 66.758737 
L 409.656667 65.732399 
L 409.99689 65.988983 
L 410.337114 65.21923 
L 410.677337 66.929793 
L 411.01756 67.271906 
L 411.698006 65.903455 
L 412.038229 65.304758 
L 412.378453 65.21923 
L 412.718676 65.817927 
L 413.058899 65.048173 
L 413.399122 66.844265 
L 413.739345 64.877117 
L 414.079568 67.442962 
L 414.419791 64.962645 
L 414.760015 65.817927 
L 415.100238 65.903455 
L 415.440461 65.475814 
L 415.780684 66.587681 
L 416.120907 65.732399 
L 416.46113 66.502152 
L 416.801354 65.561342 
L 417.141577 66.587681 
L 417.4818 65.732399 
L 417.822023 64.27842 
L 418.162246 68.298244 
L 418.502469 64.962645 
L 418.842693 63.936307 
L 419.182916 66.245568 
L 419.523139 65.646871 
L 419.863362 65.732399 
L 420.203585 67.186378 
L 420.543808 65.646871 
L 420.884031 65.390286 
L 421.224255 67.357434 
L 421.564478 67.186378 
L 421.904701 63.936307 
L 422.244924 64.962645 
L 422.585147 66.502152 
L 422.92537 64.962645 
L 423.265594 64.962645 
L 423.605817 63.936307 
L 423.94604 63.936307 
L 424.286263 65.817927 
L 424.626486 66.16004 
L 424.966709 63.936307 
L 425.306933 66.587681 
L 425.647156 67.357434 
L 425.987379 63.850779 
L 426.327602 66.16004 
L 426.667825 65.988983 
L 427.008048 64.877117 
L 427.348271 66.502152 
L 427.688495 65.133702 
L 428.028718 64.363948 
L 428.368941 66.16004 
L 428.709164 65.646871 
L 429.049387 64.877117 
L 429.38961 66.16004 
L 429.729834 66.416624 
L 430.070057 65.561342 
L 430.750503 66.929793 
L 431.090726 64.877117 
L 431.430949 66.416624 
L 431.771172 66.074511 
L 432.111396 66.331096 
L 432.451619 64.962645 
L 432.791842 67.271906 
L 433.132065 64.706061 
L 433.472288 65.304758 
L 433.812511 66.673209 
L 434.152735 64.706061 
L 434.492958 63.850779 
L 435.513627 68.298244 
L 435.85385 66.331096 
L 436.194074 65.817927 
L 436.534297 66.331096 
L 436.87452 65.304758 
L 437.214743 66.929793 
L 437.554966 66.844265 
L 437.895189 66.416624 
L 438.235412 65.646871 
L 438.575636 65.475814 
L 438.915859 66.673209 
L 439.256082 65.304758 
L 439.596305 67.870603 
L 439.936528 65.475814 
L 440.616975 65.048173 
L 440.957198 66.16004 
L 441.297421 64.706061 
L 441.637644 65.988983 
L 441.977867 64.962645 
L 442.31809 65.732399 
L 442.658314 65.646871 
L 442.998537 65.817927 
L 443.33876 65.475814 
L 443.678983 63.765251 
L 444.019206 66.331096 
L 444.359429 64.620532 
L 445.039876 67.614019 
L 445.380099 66.502152 
L 445.720322 65.817927 
L 446.060545 66.502152 
L 446.400768 65.561342 
L 446.740991 66.758737 
L 447.081215 65.133702 
L 448.101884 65.304758 
L 448.442107 65.646871 
L 448.78233 65.817927 
L 449.122554 66.16004 
L 449.462777 64.363948 
L 449.803 65.048173 
L 450.143223 64.27842 
L 450.483446 63.850779 
L 450.823669 66.844265 
L 451.504116 62.909969 
L 451.844339 66.673209 
L 452.184562 66.16004 
L 452.524785 64.877117 
L 452.865008 65.21923 
L 453.205231 64.962645 
L 453.545455 65.21923 
L 453.885678 66.502152 
L 454.225901 66.245568 
L 454.566124 63.594194 
L 454.906347 66.16004 
L 455.24657 65.903455 
L 455.586793 64.192892 
L 455.927017 65.390286 
L 456.26724 67.015321 
L 456.607463 64.27842 
L 456.947686 65.988983 
L 457.287909 65.732399 
L 457.628132 64.27842 
L 457.968356 65.903455 
L 458.308579 64.27842 
L 458.989025 67.10085 
L 459.329248 64.535004 
L 459.669471 65.21923 
L 460.009695 66.673209 
L 460.349918 65.561342 
L 460.690141 66.074511 
L 461.370587 65.817927 
L 461.71081 64.620532 
L 462.051033 67.357434 
L 462.391257 64.192892 
L 463.071703 64.449476 
L 463.411926 67.186378 
L 463.752149 65.561342 
L 464.092372 64.962645 
L 464.432596 66.673209 
L 464.772819 64.706061 
L 465.113042 66.245568 
L 465.453265 66.416624 
L 465.793488 67.186378 
L 466.133711 63.594194 
L 466.473935 64.791589 
L 466.814158 65.561342 
L 467.154381 64.706061 
L 467.494604 64.962645 
L 467.834827 65.390286 
L 468.17505 65.390286 
L 468.515273 66.844265 
L 468.855497 64.363948 
L 469.19572 64.791589 
L 469.535943 64.620532 
L 469.876166 66.673209 
L 470.216389 65.048173 
L 470.556612 68.127188 
L 470.896836 65.561342 
L 471.237059 64.620532 
L 471.577282 65.048173 
L 471.917505 63.765251 
L 472.257728 64.962645 
L 472.597951 64.620532 
L 472.938175 66.074511 
L 473.278398 64.363948 
L 473.618621 64.192892 
L 473.958844 65.475814 
L 474.299067 64.363948 
L 474.63929 63.936307 
L 474.979513 64.363948 
L 475.319737 66.331096 
L 475.65996 65.304758 
L 476.000183 63.33761 
L 476.340406 66.929793 
L 476.680629 66.331096 
L 477.020852 64.535004 
L 477.361076 64.877117 
L 477.701299 64.877117 
L 478.041522 65.817927 
L 478.381745 64.107363 
L 478.721968 65.475814 
L 479.062191 65.133702 
L 479.402414 66.074511 
L 479.742638 65.21923 
L 480.082861 65.048173 
L 480.423084 65.304758 
L 480.763307 63.679722 
L 481.10353 66.331096 
L 481.443753 64.27842 
L 481.783977 64.107363 
L 482.1242 64.363948 
L 482.464423 65.732399 
L 482.804646 63.765251 
L 483.144869 63.423138 
L 483.485092 64.535004 
L 483.825316 64.021835 
L 484.165539 63.765251 
L 484.505762 67.186378 
L 484.845985 64.535004 
L 485.186208 64.363948 
L 485.526431 66.074511 
L 485.866654 63.850779 
L 486.206878 67.442962 
L 486.547101 64.021835 
L 486.887324 64.620532 
L 487.227547 63.765251 
L 487.56777 66.331096 
L 487.907993 66.502152 
L 488.248217 65.390286 
L 488.58844 66.502152 
L 488.928663 65.304758 
L 489.268886 64.620532 
L 489.609109 62.567856 
L 489.949332 64.962645 
L 490.289556 65.988983 
L 490.629779 64.27842 
L 490.970002 65.732399 
L 491.310225 65.048173 
L 491.650448 65.304758 
L 491.990671 63.33761 
L 492.330894 65.561342 
L 492.671118 64.877117 
L 493.011341 65.21923 
L 493.691787 64.192892 
L 494.03201 65.817927 
L 494.372233 63.508666 
L 494.712457 64.192892 
L 495.05268 64.107363 
L 495.392903 65.475814 
L 496.073349 67.015321 
L 496.413572 64.706061 
L 496.753796 65.048173 
L 497.094019 64.27842 
L 497.434242 64.791589 
L 497.774465 65.048173 
L 498.114688 64.363948 
L 498.454911 64.791589 
L 498.795134 65.475814 
L 499.135358 65.646871 
L 499.475581 63.850779 
L 499.815804 62.909969 
L 500.156027 66.673209 
L 500.49625 64.877117 
L 500.836473 65.390286 
L 501.176697 64.021835 
L 501.51692 65.475814 
L 501.857143 64.706061 
L 502.197366 67.442962 
L 502.537589 66.245568 
L 502.877812 62.995497 
L 503.218035 65.390286 
L 503.558259 65.475814 
L 503.898482 65.21923 
L 504.238705 63.765251 
L 504.919151 65.817927 
L 505.599598 65.133702 
L 505.939821 65.817927 
L 506.280044 64.192892 
L 506.620267 66.245568 
L 506.96049 64.791589 
L 507.300713 64.962645 
L 507.640937 63.166553 
L 507.98116 64.449476 
L 508.321383 63.850779 
L 508.661606 65.390286 
L 509.001829 64.363948 
L 509.682275 65.817927 
L 510.362722 63.166553 
L 510.702945 65.988983 
L 511.043168 66.331096 
L 511.383391 63.679722 
L 511.723614 65.561342 
L 512.063838 65.21923 
L 512.404061 64.107363 
L 512.744284 65.21923 
L 513.084507 63.679722 
L 513.42473 66.502152 
L 514.105177 66.245568 
L 514.4454 64.192892 
L 514.785623 65.817927 
L 515.125846 65.732399 
L 515.466069 64.449476 
L 515.806292 64.449476 
L 516.146515 65.903455 
L 516.486739 66.587681 
L 516.826962 64.620532 
L 517.167185 65.048173 
L 517.507408 63.508666 
L 517.847631 63.850779 
L 518.187854 65.390286 
L 518.528078 65.133702 
L 518.868301 66.758737 
L 519.208524 64.535004 
L 519.88897 65.475814 
L 520.229193 65.133702 
L 520.569416 64.107363 
L 521.249863 65.988983 
L 521.590086 64.363948 
L 521.930309 64.535004 
L 522.270532 64.363948 
L 522.610755 64.449476 
L 522.950979 64.877117 
L 523.291202 64.192892 
L 523.631425 65.475814 
L 523.971648 65.390286 
L 524.311871 66.245568 
L 524.652094 64.791589 
L 524.992318 64.877117 
L 525.332541 64.107363 
L 525.672764 65.732399 
L 526.012987 66.331096 
L 526.35321 65.21923 
L 526.693433 64.535004 
L 527.033656 65.903455 
L 527.714103 67.442962 
L 528.054326 67.357434 
L 528.394549 63.936307 
L 529.074995 65.817927 
L 529.415219 65.21923 
L 529.755442 63.594194 
L 530.095665 66.074511 
L 530.435888 64.27842 
L 530.776111 66.16004 
L 531.116334 66.331096 
L 531.456558 63.508666 
L 531.796781 65.646871 
L 532.137004 66.758737 
L 532.477227 65.732399 
L 533.157673 65.817927 
L 533.497896 64.620532 
L 533.83812 64.107363 
L 534.178343 64.791589 
L 534.518566 65.133702 
L 534.858789 66.245568 
L 535.199012 64.706061 
L 535.539235 64.27842 
L 535.879459 65.732399 
L 536.219682 64.706061 
L 536.559905 65.903455 
L 536.900128 66.245568 
L 537.240351 65.133702 
L 537.580574 63.081025 
L 537.920798 64.107363 
L 538.261021 64.192892 
L 538.601244 63.850779 
L 538.941467 65.21923 
L 539.28169 63.765251 
L 539.621913 63.679722 
L 540.30236 66.16004 
L 540.982806 64.363948 
L 541.663252 64.791589 
L 542.003475 65.732399 
L 542.343699 64.363948 
L 542.683922 64.962645 
L 543.024145 66.929793 
L 543.364368 65.390286 
L 544.044814 65.988983 
L 544.385037 64.363948 
L 544.725261 65.732399 
L 545.065484 65.048173 
L 545.405707 65.475814 
L 545.74593 63.936307 
L 546.086153 65.561342 
L 546.426376 65.988983 
L 546.7666 65.390286 
L 547.106823 63.765251 
L 547.447046 65.903455 
L 547.787269 66.16004 
L 548.127492 67.357434 
L 548.467715 65.646871 
L 548.807939 64.706061 
L 549.148162 64.192892 
L 549.488385 65.646871 
L 550.168831 64.021835 
L 550.509054 62.824441 
L 550.849277 64.363948 
L 551.189501 63.508666 
L 551.529724 65.817927 
L 551.869947 63.508666 
L 552.550393 65.048173 
L 552.890616 65.304758 
L 553.23084 64.877117 
L 553.571063 64.877117 
L 553.911286 64.706061 
L 554.251509 66.502152 
L 554.591732 65.304758 
L 554.931955 62.311272 
L 555.612402 65.732399 
L 555.952625 64.27842 
L 556.633071 63.252082 
L 556.973294 64.706061 
L 557.313517 65.048173 
L 557.653741 64.363948 
L 558.334187 65.646871 
L 558.67441 64.363948 
L 559.014633 65.390286 
L 559.354856 63.679722 
L 559.69508 65.646871 
L 560.035303 64.620532 
L 560.375526 64.535004 
L 560.715749 66.16004 
L 561.055972 64.962645 
L 561.736419 65.133702 
L 562.076642 66.929793 
L 562.416865 64.535004 
L 563.097311 64.363948 
L 563.437534 65.561342 
L 563.777757 63.33761 
L 564.458204 65.304758 
L 564.798427 65.21923 
L 565.13865 63.252082 
L 565.819096 65.561342 
L 566.15932 64.962645 
L 566.499543 63.936307 
L 567.520212 66.416624 
L 568.200658 64.791589 
L 568.540882 64.107363 
L 568.881105 64.877117 
L 569.221328 64.962645 
L 569.561551 63.594194 
L 569.901774 63.679722 
L 570.241997 64.535004 
L 570.582221 64.107363 
L 570.922444 64.449476 
L 571.262667 62.995497 
L 571.60289 65.304758 
L 571.943113 64.962645 
L 572.283336 64.791589 
L 572.62356 66.416624 
L 572.963783 62.909969 
L 573.304006 65.048173 
L 573.644229 64.363948 
L 573.984452 64.449476 
L 574.324675 64.962645 
L 574.664898 66.074511 
L 575.005122 64.962645 
L 575.345345 64.791589 
L 576.025791 66.074511 
L 576.366014 66.16004 
L 576.706237 67.10085 
L 577.046461 64.27842 
L 577.386684 63.936307 
L 577.726907 65.133702 
L 578.06713 65.390286 
L 578.407353 63.594194 
L 578.747576 64.535004 
L 579.0878 64.363948 
L 579.768246 65.817927 
L 580.108469 64.620532 
L 580.448692 64.27842 
L 580.788915 64.192892 
L 581.129138 64.363948 
L 581.469362 64.192892 
L 581.809585 63.33761 
L 582.149808 63.33761 
L 582.490031 64.535004 
L 582.830254 65.048173 
L 583.170477 64.107363 
L 583.510701 64.363948 
L 583.850924 65.732399 
L 584.191147 65.133702 
L 584.53137 66.673209 
L 585.211816 65.048173 
L 585.55204 62.738912 
L 585.892263 64.449476 
L 586.232486 64.877117 
L 586.572709 65.048173 
L 587.253155 64.449476 
L 587.593378 67.186378 
L 587.933602 64.27842 
L 588.273825 64.620532 
L 588.614048 67.015321 
L 588.954271 64.021835 
L 589.294494 64.021835 
L 589.634717 66.331096 
L 589.974941 64.363948 
L 590.315164 64.363948 
L 590.655387 66.074511 
L 591.335833 64.363948 
L 591.676056 65.390286 
L 592.016279 64.27842 
L 592.696726 65.732399 
L 593.036949 64.535004 
L 593.377172 64.449476 
L 593.717395 64.877117 
L 594.057618 63.594194 
L 594.397842 62.909969 
L 594.738065 65.133702 
L 595.418511 63.594194 
L 595.758734 65.732399 
L 596.098957 65.048173 
L 596.439181 63.166553 
L 596.779404 63.252082 
L 597.119627 64.363948 
L 597.45985 65.048173 
L 597.800073 65.133702 
L 598.140296 63.936307 
L 598.480519 64.449476 
L 598.820743 62.995497 
L 599.160966 65.21923 
L 599.501189 63.936307 
L 599.841412 64.27842 
L 600.181635 65.390286 
L 600.521858 62.909969 
L 600.862082 63.252082 
L 601.202305 65.390286 
L 601.542528 63.679722 
L 601.882751 63.33761 
L 602.222974 64.449476 
L 602.563197 66.587681 
L 602.903421 64.27842 
L 603.243644 64.877117 
L 603.583867 64.021835 
L 603.92409 63.594194 
L 604.264313 63.679722 
L 604.944759 64.791589 
L 605.284983 63.166553 
L 605.625206 65.561342 
L 605.965429 63.594194 
L 606.305652 65.304758 
L 606.645875 64.192892 
L 606.986098 65.988983 
L 607.326322 64.449476 
L 607.666545 65.304758 
L 608.006768 62.824441 
L 608.346991 64.962645 
L 608.687214 64.620532 
L 609.027437 64.107363 
L 609.367661 64.962645 
L 609.707884 64.192892 
L 610.048107 64.107363 
L 610.38833 65.048173 
L 610.728553 64.021835 
L 611.068776 64.192892 
L 611.408999 64.535004 
L 611.749223 65.475814 
L 612.089446 65.21923 
L 612.429669 63.936307 
L 612.769892 63.423138 
L 613.110115 67.10085 
L 613.450338 63.423138 
L 613.790562 62.738912 
L 614.130785 63.765251 
L 614.471008 64.107363 
L 614.811231 63.423138 
L 615.151454 65.817927 
L 615.491677 64.27842 
L 615.8319 64.620532 
L 616.172124 62.995497 
L 616.512347 64.363948 
L 616.85257 64.620532 
L 617.192793 66.074511 
L 617.533016 64.620532 
L 617.873239 63.936307 
L 618.213463 64.363948 
L 618.553686 65.561342 
L 618.893909 63.936307 
L 619.234132 65.21923 
L 619.574355 64.535004 
L 620.254802 64.192892 
L 620.595025 62.311272 
L 620.935248 65.561342 
L 621.275471 64.535004 
L 621.615694 65.475814 
L 621.955917 64.021835 
L 622.29614 63.936307 
L 622.636364 64.620532 
L 622.636364 64.620532 
" style="fill:none;stroke:#ff7f0e;stroke-linecap:square;stroke-width:0.5;"/>
   </g>
   <g id="patch_3">
    <path d="M 90 315 
L 90 43.2 
" style="fill:none;stroke:#000000;stroke-linecap:square;stroke-linejoin:miter;stroke-width:0.8;"/>
   </g>
   <g id="patch_4">
    <path d="M 648 315 
L 648 43.2 
" style="fill:none;stroke:#000000;stroke-linecap:square;stroke-linejoin:miter;stroke-width:0.8;"/>
   </g>
   <g id="patch_5">
    <path d="M 90 315 
L 648 315 
" style="fill:none;stroke:#000000;stroke-linecap:square;stroke-linejoin:miter;stroke-width:0.8;"/>
   </g>
   <g id="patch_6">
    <path d="M 90 43.2 
L 648 43.2 
" style="fill:none;stroke:#000000;stroke-linecap:square;stroke-linejoin:miter;stroke-width:0.8;"/>
   </g>
   <g id="text_19">
    <!-- accuracy -->
    <g transform="translate(341.92875 37.2)scale(0.12 -0.12)">
     <use xlink:href="#DejaVuSans-97"/>
     <use x="61.279297" xlink:href="#DejaVuSans-99"/>
     <use x="116.259766" xlink:href="#DejaVuSans-99"/>
     <use x="171.240234" xlink:href="#DejaVuSans-117"/>
     <use x="234.619141" xlink:href="#DejaVuSans-114"/>
     <use x="275.732422" xlink:href="#DejaVuSans-97"/>
     <use x="337.011719" xlink:href="#DejaVuSans-99"/>
     <use x="391.992188" xlink:href="#DejaVuSans-121"/>
    </g>
   </g>
   <g id="legend_1">
    <g id="patch_7">
     <path d="M 97 80.55625 
L 169.153125 80.55625 
Q 171.153125 80.55625 171.153125 78.55625 
L 171.153125 50.2 
Q 171.153125 48.2 169.153125 48.2 
L 97 48.2 
Q 95 48.2 95 50.2 
L 95 78.55625 
Q 95 80.55625 97 80.55625 
z
" style="fill:#ffffff;opacity:0.8;stroke:#cccccc;stroke-linejoin:miter;"/>
    </g>
    <g id="line2d_35">
     <path d="M 99 56.298437 
L 119 56.298437 
" style="fill:none;stroke:#1f77b4;stroke-linecap:square;stroke-width:0.5;"/>
    </g>
    <g id="line2d_36"/>
    <g id="text_20">
     <!-- train -->
     <defs>
      <path d="M 18.3125 70.21875 
L 18.3125 54.6875 
L 36.8125 54.6875 
L 36.8125 47.703125 
L 18.3125 47.703125 
L 18.3125 18.015625 
Q 18.3125 11.328125 20.140625 9.421875 
Q 21.96875 7.515625 27.59375 7.515625 
L 36.8125 7.515625 
L 36.8125 0 
L 27.59375 0 
Q 17.1875 0 13.234375 3.875 
Q 9.28125 7.765625 9.28125 18.015625 
L 9.28125 47.703125 
L 2.6875 47.703125 
L 2.6875 54.6875 
L 9.28125 54.6875 
L 9.28125 70.21875 
z
" id="DejaVuSans-116"/>
      <path d="M 9.421875 54.6875 
L 18.40625 54.6875 
L 18.40625 0 
L 9.421875 0 
z
M 9.421875 75.984375 
L 18.40625 75.984375 
L 18.40625 64.59375 
L 9.421875 64.59375 
z
" id="DejaVuSans-105"/>
      <path d="M 54.890625 33.015625 
L 54.890625 0 
L 45.90625 0 
L 45.90625 32.71875 
Q 45.90625 40.484375 42.875 44.328125 
Q 39.84375 48.1875 33.796875 48.1875 
Q 26.515625 48.1875 22.3125 43.546875 
Q 18.109375 38.921875 18.109375 30.90625 
L 18.109375 0 
L 9.078125 0 
L 9.078125 54.6875 
L 18.109375 54.6875 
L 18.109375 46.1875 
Q 21.34375 51.125 25.703125 53.5625 
Q 30.078125 56 35.796875 56 
Q 45.21875 56 50.046875 50.171875 
Q 54.890625 44.34375 54.890625 33.015625 
z
" id="DejaVuSans-110"/>
     </defs>
     <g transform="translate(127 59.798437)scale(0.1 -0.1)">
      <use xlink:href="#DejaVuSans-116"/>
      <use x="39.208984" xlink:href="#DejaVuSans-114"/>
      <use x="80.322266" xlink:href="#DejaVuSans-97"/>
      <use x="141.601562" xlink:href="#DejaVuSans-105"/>
      <use x="169.384766" xlink:href="#DejaVuSans-110"/>
     </g>
    </g>
    <g id="line2d_37">
     <path d="M 99 70.976562 
L 119 70.976562 
" style="fill:none;stroke:#ff7f0e;stroke-linecap:square;stroke-width:0.5;"/>
    </g>
    <g id="line2d_38"/>
    <g id="text_21">
     <!-- validate -->
     <defs>
      <path d="M 2.984375 54.6875 
L 12.5 54.6875 
L 29.59375 8.796875 
L 46.6875 54.6875 
L 56.203125 54.6875 
L 35.6875 0 
L 23.484375 0 
z
" id="DejaVuSans-118"/>
      <path d="M 9.421875 75.984375 
L 18.40625 75.984375 
L 18.40625 0 
L 9.421875 0 
z
" id="DejaVuSans-108"/>
      <path d="M 45.40625 46.390625 
L 45.40625 75.984375 
L 54.390625 75.984375 
L 54.390625 0 
L 45.40625 0 
L 45.40625 8.203125 
Q 42.578125 3.328125 38.25 0.953125 
Q 33.9375 -1.421875 27.875 -1.421875 
Q 17.96875 -1.421875 11.734375 6.484375 
Q 5.515625 14.40625 5.515625 27.296875 
Q 5.515625 40.1875 11.734375 48.09375 
Q 17.96875 56 27.875 56 
Q 33.9375 56 38.25 53.625 
Q 42.578125 51.265625 45.40625 46.390625 
z
M 14.796875 27.296875 
Q 14.796875 17.390625 18.875 11.75 
Q 22.953125 6.109375 30.078125 6.109375 
Q 37.203125 6.109375 41.296875 11.75 
Q 45.40625 17.390625 45.40625 27.296875 
Q 45.40625 37.203125 41.296875 42.84375 
Q 37.203125 48.484375 30.078125 48.484375 
Q 22.953125 48.484375 18.875 42.84375 
Q 14.796875 37.203125 14.796875 27.296875 
z
" id="DejaVuSans-100"/>
     </defs>
     <g transform="translate(127 74.476562)scale(0.1 -0.1)">
      <use xlink:href="#DejaVuSans-118"/>
      <use x="59.179688" xlink:href="#DejaVuSans-97"/>
      <use x="120.458984" xlink:href="#DejaVuSans-108"/>
      <use x="148.242188" xlink:href="#DejaVuSans-105"/>
      <use x="176.025391" xlink:href="#DejaVuSans-100"/>
      <use x="239.501953" xlink:href="#DejaVuSans-97"/>
      <use x="300.78125" xlink:href="#DejaVuSans-116"/>
      <use x="339.990234" xlink:href="#DejaVuSans-101"/>
     </g>
    </g>
   </g>
  </g>
 </g>
 <defs>
  <clipPath id="p69d3a497bc">
   <rect height="271.8" width="558" x="90" y="43.2"/>
  </clipPath>
 </defs>
</svg>
