<?xml version="1.0" encoding="utf-8" standalone="no"?>
<!DOCTYPE svg PUBLIC "-//W3C//DTD SVG 1.1//EN"
  "http://www.w3.org/Graphics/SVG/1.1/DTD/svg11.dtd">
<!-- Created with matplotlib (https://matplotlib.org/) -->
<svg height="360pt" version="1.1" viewBox="0 0 720 360" width="720pt" xmlns="http://www.w3.org/2000/svg" xmlns:xlink="http://www.w3.org/1999/xlink">
 <defs>
  <style type="text/css">
*{stroke-linecap:butt;stroke-linejoin:round;}
  </style>
 </defs>
 <g id="figure_1">
  <g id="patch_1">
   <path d="M 0 360 
L 720 360 
L 720 0 
L 0 0 
z
" style="fill:#ffffff;"/>
  </g>
  <g id="axes_1">
   <g id="patch_2">
    <path d="M 90 315 
L 648 315 
L 648 43.2 
L 90 43.2 
z
" style="fill:#ffffff;"/>
   </g>
   <g id="matplotlib.axis_1">
    <g id="xtick_1">
     <g id="line2d_1">
      <path clip-path="url(#pd282b0836b)" d="M 115.363636 315 
L 115.363636 43.2 
" style="fill:none;stroke:#b0b0b0;stroke-linecap:square;stroke-width:0.8;"/>
     </g>
     <g id="line2d_2">
      <defs>
       <path d="M 0 0 
L 0 3.5 
" id="me943de4b53" style="stroke:#000000;stroke-width:0.8;"/>
      </defs>
      <g>
       <use style="stroke:#000000;stroke-width:0.8;" x="115.363636" xlink:href="#me943de4b53" y="315"/>
      </g>
     </g>
     <g id="text_1">
      <!-- 0 -->
      <defs>
       <path d="M 31.78125 66.40625 
Q 24.171875 66.40625 20.328125 58.90625 
Q 16.5 51.421875 16.5 36.375 
Q 16.5 21.390625 20.328125 13.890625 
Q 24.171875 6.390625 31.78125 6.390625 
Q 39.453125 6.390625 43.28125 13.890625 
Q 47.125 21.390625 47.125 36.375 
Q 47.125 51.421875 43.28125 58.90625 
Q 39.453125 66.40625 31.78125 66.40625 
z
M 31.78125 74.21875 
Q 44.046875 74.21875 50.515625 64.515625 
Q 56.984375 54.828125 56.984375 36.375 
Q 56.984375 17.96875 50.515625 8.265625 
Q 44.046875 -1.421875 31.78125 -1.421875 
Q 19.53125 -1.421875 13.0625 8.265625 
Q 6.59375 17.96875 6.59375 36.375 
Q 6.59375 54.828125 13.0625 64.515625 
Q 19.53125 74.21875 31.78125 74.21875 
z
" id="DejaVuSans-48"/>
      </defs>
      <g transform="translate(112.182386 329.598437)scale(0.1 -0.1)">
       <use xlink:href="#DejaVuSans-48"/>
      </g>
     </g>
    </g>
    <g id="xtick_2">
     <g id="line2d_3">
      <path clip-path="url(#pd282b0836b)" d="M 218.050423 315 
L 218.050423 43.2 
" style="fill:none;stroke:#b0b0b0;stroke-linecap:square;stroke-width:0.8;"/>
     </g>
     <g id="line2d_4">
      <g>
       <use style="stroke:#000000;stroke-width:0.8;" x="218.050423" xlink:href="#me943de4b53" y="315"/>
      </g>
     </g>
     <g id="text_2">
      <!-- 200 -->
      <defs>
       <path d="M 19.1875 8.296875 
L 53.609375 8.296875 
L 53.609375 0 
L 7.328125 0 
L 7.328125 8.296875 
Q 12.9375 14.109375 22.625 23.890625 
Q 32.328125 33.6875 34.8125 36.53125 
Q 39.546875 41.84375 41.421875 45.53125 
Q 43.3125 49.21875 43.3125 52.78125 
Q 43.3125 58.59375 39.234375 62.25 
Q 35.15625 65.921875 28.609375 65.921875 
Q 23.96875 65.921875 18.8125 64.3125 
Q 13.671875 62.703125 7.8125 59.421875 
L 7.8125 69.390625 
Q 13.765625 71.78125 18.9375 73 
Q 24.125 74.21875 28.421875 74.21875 
Q 39.75 74.21875 46.484375 68.546875 
Q 53.21875 62.890625 53.21875 53.421875 
Q 53.21875 48.921875 51.53125 44.890625 
Q 49.859375 40.875 45.40625 35.40625 
Q 44.1875 33.984375 37.640625 27.21875 
Q 31.109375 20.453125 19.1875 8.296875 
z
" id="DejaVuSans-50"/>
      </defs>
      <g transform="translate(208.506673 329.598437)scale(0.1 -0.1)">
       <use xlink:href="#DejaVuSans-50"/>
       <use x="63.623047" xlink:href="#DejaVuSans-48"/>
       <use x="127.246094" xlink:href="#DejaVuSans-48"/>
      </g>
     </g>
    </g>
    <g id="xtick_3">
     <g id="line2d_5">
      <path clip-path="url(#pd282b0836b)" d="M 320.73721 315 
L 320.73721 43.2 
" style="fill:none;stroke:#b0b0b0;stroke-linecap:square;stroke-width:0.8;"/>
     </g>
     <g id="line2d_6">
      <g>
       <use style="stroke:#000000;stroke-width:0.8;" x="320.73721" xlink:href="#me943de4b53" y="315"/>
      </g>
     </g>
     <g id="text_3">
      <!-- 400 -->
      <defs>
       <path d="M 37.796875 64.3125 
L 12.890625 25.390625 
L 37.796875 25.390625 
z
M 35.203125 72.90625 
L 47.609375 72.90625 
L 47.609375 25.390625 
L 58.015625 25.390625 
L 58.015625 17.1875 
L 47.609375 17.1875 
L 47.609375 0 
L 37.796875 0 
L 37.796875 17.1875 
L 4.890625 17.1875 
L 4.890625 26.703125 
z
" id="DejaVuSans-52"/>
      </defs>
      <g transform="translate(311.19346 329.598437)scale(0.1 -0.1)">
       <use xlink:href="#DejaVuSans-52"/>
       <use x="63.623047" xlink:href="#DejaVuSans-48"/>
       <use x="127.246094" xlink:href="#DejaVuSans-48"/>
      </g>
     </g>
    </g>
    <g id="xtick_4">
     <g id="line2d_7">
      <path clip-path="url(#pd282b0836b)" d="M 423.423997 315 
L 423.423997 43.2 
" style="fill:none;stroke:#b0b0b0;stroke-linecap:square;stroke-width:0.8;"/>
     </g>
     <g id="line2d_8">
      <g>
       <use style="stroke:#000000;stroke-width:0.8;" x="423.423997" xlink:href="#me943de4b53" y="315"/>
      </g>
     </g>
     <g id="text_4">
      <!-- 600 -->
      <defs>
       <path d="M 33.015625 40.375 
Q 26.375 40.375 22.484375 35.828125 
Q 18.609375 31.296875 18.609375 23.390625 
Q 18.609375 15.53125 22.484375 10.953125 
Q 26.375 6.390625 33.015625 6.390625 
Q 39.65625 6.390625 43.53125 10.953125 
Q 47.40625 15.53125 47.40625 23.390625 
Q 47.40625 31.296875 43.53125 35.828125 
Q 39.65625 40.375 33.015625 40.375 
z
M 52.59375 71.296875 
L 52.59375 62.3125 
Q 48.875 64.0625 45.09375 64.984375 
Q 41.3125 65.921875 37.59375 65.921875 
Q 27.828125 65.921875 22.671875 59.328125 
Q 17.53125 52.734375 16.796875 39.40625 
Q 19.671875 43.65625 24.015625 45.921875 
Q 28.375 48.1875 33.59375 48.1875 
Q 44.578125 48.1875 50.953125 41.515625 
Q 57.328125 34.859375 57.328125 23.390625 
Q 57.328125 12.15625 50.6875 5.359375 
Q 44.046875 -1.421875 33.015625 -1.421875 
Q 20.359375 -1.421875 13.671875 8.265625 
Q 6.984375 17.96875 6.984375 36.375 
Q 6.984375 53.65625 15.1875 63.9375 
Q 23.390625 74.21875 37.203125 74.21875 
Q 40.921875 74.21875 44.703125 73.484375 
Q 48.484375 72.75 52.59375 71.296875 
z
" id="DejaVuSans-54"/>
      </defs>
      <g transform="translate(413.880247 329.598437)scale(0.1 -0.1)">
       <use xlink:href="#DejaVuSans-54"/>
       <use x="63.623047" xlink:href="#DejaVuSans-48"/>
       <use x="127.246094" xlink:href="#DejaVuSans-48"/>
      </g>
     </g>
    </g>
    <g id="xtick_5">
     <g id="line2d_9">
      <path clip-path="url(#pd282b0836b)" d="M 526.110784 315 
L 526.110784 43.2 
" style="fill:none;stroke:#b0b0b0;stroke-linecap:square;stroke-width:0.8;"/>
     </g>
     <g id="line2d_10">
      <g>
       <use style="stroke:#000000;stroke-width:0.8;" x="526.110784" xlink:href="#me943de4b53" y="315"/>
      </g>
     </g>
     <g id="text_5">
      <!-- 800 -->
      <defs>
       <path d="M 31.78125 34.625 
Q 24.75 34.625 20.71875 30.859375 
Q 16.703125 27.09375 16.703125 20.515625 
Q 16.703125 13.921875 20.71875 10.15625 
Q 24.75 6.390625 31.78125 6.390625 
Q 38.8125 6.390625 42.859375 10.171875 
Q 46.921875 13.96875 46.921875 20.515625 
Q 46.921875 27.09375 42.890625 30.859375 
Q 38.875 34.625 31.78125 34.625 
z
M 21.921875 38.8125 
Q 15.578125 40.375 12.03125 44.71875 
Q 8.5 49.078125 8.5 55.328125 
Q 8.5 64.0625 14.71875 69.140625 
Q 20.953125 74.21875 31.78125 74.21875 
Q 42.671875 74.21875 48.875 69.140625 
Q 55.078125 64.0625 55.078125 55.328125 
Q 55.078125 49.078125 51.53125 44.71875 
Q 48 40.375 41.703125 38.8125 
Q 48.828125 37.15625 52.796875 32.3125 
Q 56.78125 27.484375 56.78125 20.515625 
Q 56.78125 9.90625 50.3125 4.234375 
Q 43.84375 -1.421875 31.78125 -1.421875 
Q 19.734375 -1.421875 13.25 4.234375 
Q 6.78125 9.90625 6.78125 20.515625 
Q 6.78125 27.484375 10.78125 32.3125 
Q 14.796875 37.15625 21.921875 38.8125 
z
M 18.3125 54.390625 
Q 18.3125 48.734375 21.84375 45.5625 
Q 25.390625 42.390625 31.78125 42.390625 
Q 38.140625 42.390625 41.71875 45.5625 
Q 45.3125 48.734375 45.3125 54.390625 
Q 45.3125 60.0625 41.71875 63.234375 
Q 38.140625 66.40625 31.78125 66.40625 
Q 25.390625 66.40625 21.84375 63.234375 
Q 18.3125 60.0625 18.3125 54.390625 
z
" id="DejaVuSans-56"/>
      </defs>
      <g transform="translate(516.567034 329.598437)scale(0.1 -0.1)">
       <use xlink:href="#DejaVuSans-56"/>
       <use x="63.623047" xlink:href="#DejaVuSans-48"/>
       <use x="127.246094" xlink:href="#DejaVuSans-48"/>
      </g>
     </g>
    </g>
    <g id="xtick_6">
     <g id="line2d_11">
      <path clip-path="url(#pd282b0836b)" d="M 628.797571 315 
L 628.797571 43.2 
" style="fill:none;stroke:#b0b0b0;stroke-linecap:square;stroke-width:0.8;"/>
     </g>
     <g id="line2d_12">
      <g>
       <use style="stroke:#000000;stroke-width:0.8;" x="628.797571" xlink:href="#me943de4b53" y="315"/>
      </g>
     </g>
     <g id="text_6">
      <!-- 1000 -->
      <defs>
       <path d="M 12.40625 8.296875 
L 28.515625 8.296875 
L 28.515625 63.921875 
L 10.984375 60.40625 
L 10.984375 69.390625 
L 28.421875 72.90625 
L 38.28125 72.90625 
L 38.28125 8.296875 
L 54.390625 8.296875 
L 54.390625 0 
L 12.40625 0 
z
" id="DejaVuSans-49"/>
      </defs>
      <g transform="translate(616.072571 329.598437)scale(0.1 -0.1)">
       <use xlink:href="#DejaVuSans-49"/>
       <use x="63.623047" xlink:href="#DejaVuSans-48"/>
       <use x="127.246094" xlink:href="#DejaVuSans-48"/>
       <use x="190.869141" xlink:href="#DejaVuSans-48"/>
      </g>
     </g>
    </g>
    <g id="text_7">
     <!-- epoch -->
     <defs>
      <path d="M 56.203125 29.59375 
L 56.203125 25.203125 
L 14.890625 25.203125 
Q 15.484375 15.921875 20.484375 11.0625 
Q 25.484375 6.203125 34.421875 6.203125 
Q 39.59375 6.203125 44.453125 7.46875 
Q 49.3125 8.734375 54.109375 11.28125 
L 54.109375 2.78125 
Q 49.265625 0.734375 44.1875 -0.34375 
Q 39.109375 -1.421875 33.890625 -1.421875 
Q 20.796875 -1.421875 13.15625 6.1875 
Q 5.515625 13.8125 5.515625 26.8125 
Q 5.515625 40.234375 12.765625 48.109375 
Q 20.015625 56 32.328125 56 
Q 43.359375 56 49.78125 48.890625 
Q 56.203125 41.796875 56.203125 29.59375 
z
M 47.21875 32.234375 
Q 47.125 39.59375 43.09375 43.984375 
Q 39.0625 48.390625 32.421875 48.390625 
Q 24.90625 48.390625 20.390625 44.140625 
Q 15.875 39.890625 15.1875 32.171875 
z
" id="DejaVuSans-101"/>
      <path d="M 18.109375 8.203125 
L 18.109375 -20.796875 
L 9.078125 -20.796875 
L 9.078125 54.6875 
L 18.109375 54.6875 
L 18.109375 46.390625 
Q 20.953125 51.265625 25.265625 53.625 
Q 29.59375 56 35.59375 56 
Q 45.5625 56 51.78125 48.09375 
Q 58.015625 40.1875 58.015625 27.296875 
Q 58.015625 14.40625 51.78125 6.484375 
Q 45.5625 -1.421875 35.59375 -1.421875 
Q 29.59375 -1.421875 25.265625 0.953125 
Q 20.953125 3.328125 18.109375 8.203125 
z
M 48.6875 27.296875 
Q 48.6875 37.203125 44.609375 42.84375 
Q 40.53125 48.484375 33.40625 48.484375 
Q 26.265625 48.484375 22.1875 42.84375 
Q 18.109375 37.203125 18.109375 27.296875 
Q 18.109375 17.390625 22.1875 11.75 
Q 26.265625 6.109375 33.40625 6.109375 
Q 40.53125 6.109375 44.609375 11.75 
Q 48.6875 17.390625 48.6875 27.296875 
z
" id="DejaVuSans-112"/>
      <path d="M 30.609375 48.390625 
Q 23.390625 48.390625 19.1875 42.75 
Q 14.984375 37.109375 14.984375 27.296875 
Q 14.984375 17.484375 19.15625 11.84375 
Q 23.34375 6.203125 30.609375 6.203125 
Q 37.796875 6.203125 41.984375 11.859375 
Q 46.1875 17.53125 46.1875 27.296875 
Q 46.1875 37.015625 41.984375 42.703125 
Q 37.796875 48.390625 30.609375 48.390625 
z
M 30.609375 56 
Q 42.328125 56 49.015625 48.375 
Q 55.71875 40.765625 55.71875 27.296875 
Q 55.71875 13.875 49.015625 6.21875 
Q 42.328125 -1.421875 30.609375 -1.421875 
Q 18.84375 -1.421875 12.171875 6.21875 
Q 5.515625 13.875 5.515625 27.296875 
Q 5.515625 40.765625 12.171875 48.375 
Q 18.84375 56 30.609375 56 
z
" id="DejaVuSans-111"/>
      <path d="M 48.78125 52.59375 
L 48.78125 44.1875 
Q 44.96875 46.296875 41.140625 47.34375 
Q 37.3125 48.390625 33.40625 48.390625 
Q 24.65625 48.390625 19.8125 42.84375 
Q 14.984375 37.3125 14.984375 27.296875 
Q 14.984375 17.28125 19.8125 11.734375 
Q 24.65625 6.203125 33.40625 6.203125 
Q 37.3125 6.203125 41.140625 7.25 
Q 44.96875 8.296875 48.78125 10.40625 
L 48.78125 2.09375 
Q 45.015625 0.34375 40.984375 -0.53125 
Q 36.96875 -1.421875 32.421875 -1.421875 
Q 20.0625 -1.421875 12.78125 6.34375 
Q 5.515625 14.109375 5.515625 27.296875 
Q 5.515625 40.671875 12.859375 48.328125 
Q 20.21875 56 33.015625 56 
Q 37.15625 56 41.109375 55.140625 
Q 45.0625 54.296875 48.78125 52.59375 
z
" id="DejaVuSans-99"/>
      <path d="M 54.890625 33.015625 
L 54.890625 0 
L 45.90625 0 
L 45.90625 32.71875 
Q 45.90625 40.484375 42.875 44.328125 
Q 39.84375 48.1875 33.796875 48.1875 
Q 26.515625 48.1875 22.3125 43.546875 
Q 18.109375 38.921875 18.109375 30.90625 
L 18.109375 0 
L 9.078125 0 
L 9.078125 75.984375 
L 18.109375 75.984375 
L 18.109375 46.1875 
Q 21.34375 51.125 25.703125 53.5625 
Q 30.078125 56 35.796875 56 
Q 45.21875 56 50.046875 50.171875 
Q 54.890625 44.34375 54.890625 33.015625 
z
" id="DejaVuSans-104"/>
     </defs>
     <g transform="translate(353.771875 343.276563)scale(0.1 -0.1)">
      <use xlink:href="#DejaVuSans-101"/>
      <use x="61.523438" xlink:href="#DejaVuSans-112"/>
      <use x="125" xlink:href="#DejaVuSans-111"/>
      <use x="186.181641" xlink:href="#DejaVuSans-99"/>
      <use x="241.162109" xlink:href="#DejaVuSans-104"/>
     </g>
    </g>
   </g>
   <g id="matplotlib.axis_2">
    <g id="ytick_1">
     <g id="line2d_13">
      <path clip-path="url(#pd282b0836b)" d="M 90 284.19272 
L 648 284.19272 
" style="fill:none;stroke:#b0b0b0;stroke-linecap:square;stroke-width:0.8;"/>
     </g>
     <g id="line2d_14">
      <defs>
       <path d="M 0 0 
L -3.5 0 
" id="md28f117a3d" style="stroke:#000000;stroke-width:0.8;"/>
      </defs>
      <g>
       <use style="stroke:#000000;stroke-width:0.8;" x="90" xlink:href="#md28f117a3d" y="284.19272"/>
      </g>
     </g>
     <g id="text_8">
      <!-- 0.3 -->
      <defs>
       <path d="M 10.6875 12.40625 
L 21 12.40625 
L 21 0 
L 10.6875 0 
z
" id="DejaVuSans-46"/>
       <path d="M 40.578125 39.3125 
Q 47.65625 37.796875 51.625 33 
Q 55.609375 28.21875 55.609375 21.1875 
Q 55.609375 10.40625 48.1875 4.484375 
Q 40.765625 -1.421875 27.09375 -1.421875 
Q 22.515625 -1.421875 17.65625 -0.515625 
Q 12.796875 0.390625 7.625 2.203125 
L 7.625 11.71875 
Q 11.71875 9.328125 16.59375 8.109375 
Q 21.484375 6.890625 26.8125 6.890625 
Q 36.078125 6.890625 40.9375 10.546875 
Q 45.796875 14.203125 45.796875 21.1875 
Q 45.796875 27.640625 41.28125 31.265625 
Q 36.765625 34.90625 28.71875 34.90625 
L 20.21875 34.90625 
L 20.21875 43.015625 
L 29.109375 43.015625 
Q 36.375 43.015625 40.234375 45.921875 
Q 44.09375 48.828125 44.09375 54.296875 
Q 44.09375 59.90625 40.109375 62.90625 
Q 36.140625 65.921875 28.71875 65.921875 
Q 24.65625 65.921875 20.015625 65.03125 
Q 15.375 64.15625 9.8125 62.3125 
L 9.8125 71.09375 
Q 15.4375 72.65625 20.34375 73.4375 
Q 25.25 74.21875 29.59375 74.21875 
Q 40.828125 74.21875 47.359375 69.109375 
Q 53.90625 64.015625 53.90625 55.328125 
Q 53.90625 49.265625 50.4375 45.09375 
Q 46.96875 40.921875 40.578125 39.3125 
z
" id="DejaVuSans-51"/>
      </defs>
      <g transform="translate(67.096875 287.991938)scale(0.1 -0.1)">
       <use xlink:href="#DejaVuSans-48"/>
       <use x="63.623047" xlink:href="#DejaVuSans-46"/>
       <use x="95.410156" xlink:href="#DejaVuSans-51"/>
      </g>
     </g>
    </g>
    <g id="ytick_2">
     <g id="line2d_15">
      <path clip-path="url(#pd282b0836b)" d="M 90 249.044653 
L 648 249.044653 
" style="fill:none;stroke:#b0b0b0;stroke-linecap:square;stroke-width:0.8;"/>
     </g>
     <g id="line2d_16">
      <g>
       <use style="stroke:#000000;stroke-width:0.8;" x="90" xlink:href="#md28f117a3d" y="249.044653"/>
      </g>
     </g>
     <g id="text_9">
      <!-- 0.4 -->
      <g transform="translate(67.096875 252.843872)scale(0.1 -0.1)">
       <use xlink:href="#DejaVuSans-48"/>
       <use x="63.623047" xlink:href="#DejaVuSans-46"/>
       <use x="95.410156" xlink:href="#DejaVuSans-52"/>
      </g>
     </g>
    </g>
    <g id="ytick_3">
     <g id="line2d_17">
      <path clip-path="url(#pd282b0836b)" d="M 90 213.896586 
L 648 213.896586 
" style="fill:none;stroke:#b0b0b0;stroke-linecap:square;stroke-width:0.8;"/>
     </g>
     <g id="line2d_18">
      <g>
       <use style="stroke:#000000;stroke-width:0.8;" x="90" xlink:href="#md28f117a3d" y="213.896586"/>
      </g>
     </g>
     <g id="text_10">
      <!-- 0.5 -->
      <defs>
       <path d="M 10.796875 72.90625 
L 49.515625 72.90625 
L 49.515625 64.59375 
L 19.828125 64.59375 
L 19.828125 46.734375 
Q 21.96875 47.46875 24.109375 47.828125 
Q 26.265625 48.1875 28.421875 48.1875 
Q 40.625 48.1875 47.75 41.5 
Q 54.890625 34.8125 54.890625 23.390625 
Q 54.890625 11.625 47.5625 5.09375 
Q 40.234375 -1.421875 26.90625 -1.421875 
Q 22.3125 -1.421875 17.546875 -0.640625 
Q 12.796875 0.140625 7.71875 1.703125 
L 7.71875 11.625 
Q 12.109375 9.234375 16.796875 8.0625 
Q 21.484375 6.890625 26.703125 6.890625 
Q 35.15625 6.890625 40.078125 11.328125 
Q 45.015625 15.765625 45.015625 23.390625 
Q 45.015625 31 40.078125 35.4375 
Q 35.15625 39.890625 26.703125 39.890625 
Q 22.75 39.890625 18.8125 39.015625 
Q 14.890625 38.140625 10.796875 36.28125 
z
" id="DejaVuSans-53"/>
      </defs>
      <g transform="translate(67.096875 217.695805)scale(0.1 -0.1)">
       <use xlink:href="#DejaVuSans-48"/>
       <use x="63.623047" xlink:href="#DejaVuSans-46"/>
       <use x="95.410156" xlink:href="#DejaVuSans-53"/>
      </g>
     </g>
    </g>
    <g id="ytick_4">
     <g id="line2d_19">
      <path clip-path="url(#pd282b0836b)" d="M 90 178.748519 
L 648 178.748519 
" style="fill:none;stroke:#b0b0b0;stroke-linecap:square;stroke-width:0.8;"/>
     </g>
     <g id="line2d_20">
      <g>
       <use style="stroke:#000000;stroke-width:0.8;" x="90" xlink:href="#md28f117a3d" y="178.748519"/>
      </g>
     </g>
     <g id="text_11">
      <!-- 0.6 -->
      <g transform="translate(67.096875 182.547738)scale(0.1 -0.1)">
       <use xlink:href="#DejaVuSans-48"/>
       <use x="63.623047" xlink:href="#DejaVuSans-46"/>
       <use x="95.410156" xlink:href="#DejaVuSans-54"/>
      </g>
     </g>
    </g>
    <g id="ytick_5">
     <g id="line2d_21">
      <path clip-path="url(#pd282b0836b)" d="M 90 143.600453 
L 648 143.600453 
" style="fill:none;stroke:#b0b0b0;stroke-linecap:square;stroke-width:0.8;"/>
     </g>
     <g id="line2d_22">
      <g>
       <use style="stroke:#000000;stroke-width:0.8;" x="90" xlink:href="#md28f117a3d" y="143.600453"/>
      </g>
     </g>
     <g id="text_12">
      <!-- 0.7 -->
      <defs>
       <path d="M 8.203125 72.90625 
L 55.078125 72.90625 
L 55.078125 68.703125 
L 28.609375 0 
L 18.3125 0 
L 43.21875 64.59375 
L 8.203125 64.59375 
z
" id="DejaVuSans-55"/>
      </defs>
      <g transform="translate(67.096875 147.399671)scale(0.1 -0.1)">
       <use xlink:href="#DejaVuSans-48"/>
       <use x="63.623047" xlink:href="#DejaVuSans-46"/>
       <use x="95.410156" xlink:href="#DejaVuSans-55"/>
      </g>
     </g>
    </g>
    <g id="ytick_6">
     <g id="line2d_23">
      <path clip-path="url(#pd282b0836b)" d="M 90 108.452386 
L 648 108.452386 
" style="fill:none;stroke:#b0b0b0;stroke-linecap:square;stroke-width:0.8;"/>
     </g>
     <g id="line2d_24">
      <g>
       <use style="stroke:#000000;stroke-width:0.8;" x="90" xlink:href="#md28f117a3d" y="108.452386"/>
      </g>
     </g>
     <g id="text_13">
      <!-- 0.8 -->
      <g transform="translate(67.096875 112.251605)scale(0.1 -0.1)">
       <use xlink:href="#DejaVuSans-48"/>
       <use x="63.623047" xlink:href="#DejaVuSans-46"/>
       <use x="95.410156" xlink:href="#DejaVuSans-56"/>
      </g>
     </g>
    </g>
    <g id="ytick_7">
     <g id="line2d_25">
      <path clip-path="url(#pd282b0836b)" d="M 90 73.304319 
L 648 73.304319 
" style="fill:none;stroke:#b0b0b0;stroke-linecap:square;stroke-width:0.8;"/>
     </g>
     <g id="line2d_26">
      <g>
       <use style="stroke:#000000;stroke-width:0.8;" x="90" xlink:href="#md28f117a3d" y="73.304319"/>
      </g>
     </g>
     <g id="text_14">
      <!-- 0.9 -->
      <defs>
       <path d="M 10.984375 1.515625 
L 10.984375 10.5 
Q 14.703125 8.734375 18.5 7.8125 
Q 22.3125 6.890625 25.984375 6.890625 
Q 35.75 6.890625 40.890625 13.453125 
Q 46.046875 20.015625 46.78125 33.40625 
Q 43.953125 29.203125 39.59375 26.953125 
Q 35.25 24.703125 29.984375 24.703125 
Q 19.046875 24.703125 12.671875 31.3125 
Q 6.296875 37.9375 6.296875 49.421875 
Q 6.296875 60.640625 12.9375 67.421875 
Q 19.578125 74.21875 30.609375 74.21875 
Q 43.265625 74.21875 49.921875 64.515625 
Q 56.59375 54.828125 56.59375 36.375 
Q 56.59375 19.140625 48.40625 8.859375 
Q 40.234375 -1.421875 26.421875 -1.421875 
Q 22.703125 -1.421875 18.890625 -0.6875 
Q 15.09375 0.046875 10.984375 1.515625 
z
M 30.609375 32.421875 
Q 37.25 32.421875 41.125 36.953125 
Q 45.015625 41.5 45.015625 49.421875 
Q 45.015625 57.28125 41.125 61.84375 
Q 37.25 66.40625 30.609375 66.40625 
Q 23.96875 66.40625 20.09375 61.84375 
Q 16.21875 57.28125 16.21875 49.421875 
Q 16.21875 41.5 20.09375 36.953125 
Q 23.96875 32.421875 30.609375 32.421875 
z
" id="DejaVuSans-57"/>
      </defs>
      <g transform="translate(67.096875 77.103538)scale(0.1 -0.1)">
       <use xlink:href="#DejaVuSans-48"/>
       <use x="63.623047" xlink:href="#DejaVuSans-46"/>
       <use x="95.410156" xlink:href="#DejaVuSans-57"/>
      </g>
     </g>
    </g>
    <g id="text_15">
     <!-- accuracy -->
     <defs>
      <path d="M 34.28125 27.484375 
Q 23.390625 27.484375 19.1875 25 
Q 14.984375 22.515625 14.984375 16.5 
Q 14.984375 11.71875 18.140625 8.90625 
Q 21.296875 6.109375 26.703125 6.109375 
Q 34.1875 6.109375 38.703125 11.40625 
Q 43.21875 16.703125 43.21875 25.484375 
L 43.21875 27.484375 
z
M 52.203125 31.203125 
L 52.203125 0 
L 43.21875 0 
L 43.21875 8.296875 
Q 40.140625 3.328125 35.546875 0.953125 
Q 30.953125 -1.421875 24.3125 -1.421875 
Q 15.921875 -1.421875 10.953125 3.296875 
Q 6 8.015625 6 15.921875 
Q 6 25.140625 12.171875 29.828125 
Q 18.359375 34.515625 30.609375 34.515625 
L 43.21875 34.515625 
L 43.21875 35.40625 
Q 43.21875 41.609375 39.140625 45 
Q 35.0625 48.390625 27.6875 48.390625 
Q 23 48.390625 18.546875 47.265625 
Q 14.109375 46.140625 10.015625 43.890625 
L 10.015625 52.203125 
Q 14.9375 54.109375 19.578125 55.046875 
Q 24.21875 56 28.609375 56 
Q 40.484375 56 46.34375 49.84375 
Q 52.203125 43.703125 52.203125 31.203125 
z
" id="DejaVuSans-97"/>
      <path d="M 8.5 21.578125 
L 8.5 54.6875 
L 17.484375 54.6875 
L 17.484375 21.921875 
Q 17.484375 14.15625 20.5 10.265625 
Q 23.53125 6.390625 29.59375 6.390625 
Q 36.859375 6.390625 41.078125 11.03125 
Q 45.3125 15.671875 45.3125 23.6875 
L 45.3125 54.6875 
L 54.296875 54.6875 
L 54.296875 0 
L 45.3125 0 
L 45.3125 8.40625 
Q 42.046875 3.421875 37.71875 1 
Q 33.40625 -1.421875 27.6875 -1.421875 
Q 18.265625 -1.421875 13.375 4.4375 
Q 8.5 10.296875 8.5 21.578125 
z
M 31.109375 56 
z
" id="DejaVuSans-117"/>
      <path d="M 41.109375 46.296875 
Q 39.59375 47.171875 37.8125 47.578125 
Q 36.03125 48 33.890625 48 
Q 26.265625 48 22.1875 43.046875 
Q 18.109375 38.09375 18.109375 28.8125 
L 18.109375 0 
L 9.078125 0 
L 9.078125 54.6875 
L 18.109375 54.6875 
L 18.109375 46.1875 
Q 20.953125 51.171875 25.484375 53.578125 
Q 30.03125 56 36.53125 56 
Q 37.453125 56 38.578125 55.875 
Q 39.703125 55.765625 41.0625 55.515625 
z
" id="DejaVuSans-114"/>
      <path d="M 32.171875 -5.078125 
Q 28.375 -14.84375 24.75 -17.8125 
Q 21.140625 -20.796875 15.09375 -20.796875 
L 7.90625 -20.796875 
L 7.90625 -13.28125 
L 13.1875 -13.28125 
Q 16.890625 -13.28125 18.9375 -11.515625 
Q 21 -9.765625 23.484375 -3.21875 
L 25.09375 0.875 
L 2.984375 54.6875 
L 12.5 54.6875 
L 29.59375 11.921875 
L 46.6875 54.6875 
L 56.203125 54.6875 
z
" id="DejaVuSans-121"/>
     </defs>
     <g transform="translate(61.017187 201.659375)rotate(-90)scale(0.1 -0.1)">
      <use xlink:href="#DejaVuSans-97"/>
      <use x="61.279297" xlink:href="#DejaVuSans-99"/>
      <use x="116.259766" xlink:href="#DejaVuSans-99"/>
      <use x="171.240234" xlink:href="#DejaVuSans-117"/>
      <use x="234.619141" xlink:href="#DejaVuSans-114"/>
      <use x="275.732422" xlink:href="#DejaVuSans-97"/>
      <use x="337.011719" xlink:href="#DejaVuSans-99"/>
      <use x="391.992188" xlink:href="#DejaVuSans-121"/>
     </g>
    </g>
   </g>
   <g id="line2d_27">
    <path clip-path="url(#pd282b0836b)" d="M 115.363636 296.933894 
L 115.87707 298.515557 
L 116.390504 302.645455 
L 116.903938 295.967322 
L 117.417372 292.628256 
L 117.930806 291.661684 
L 118.44424 294.385659 
L 118.957674 287.268175 
L 119.471108 287.356046 
L 119.984542 282.083836 
L 120.497976 280.414302 
L 121.01141 280.150692 
L 121.524844 271.187935 
L 122.038278 269.694142 
L 122.551711 271.978766 
L 123.065145 267.321647 
L 123.578579 267.585258 
L 124.092013 261.082866 
L 125.118881 251.856498 
L 125.632315 250.714186 
L 126.145749 246.760028 
L 126.659183 240.872727 
L 127.172617 244.475404 
L 127.686051 241.663559 
L 128.199485 244.299664 
L 128.712919 234.370335 
L 129.739787 222.859343 
L 130.25322 219.696017 
L 130.766654 221.01407 
L 131.280088 216.356951 
L 131.793522 216.356951 
L 132.306956 210.909 
L 132.82039 212.314923 
L 133.333824 208.800116 
L 133.847258 203.967257 
L 134.360692 204.230868 
L 134.874126 201.946243 
L 135.38756 196.674033 
L 135.900994 196.322553 
L 136.414428 191.841174 
L 136.927862 188.502108 
L 137.441296 186.217484 
L 137.954729 182.526937 
L 138.468163 183.405638 
L 138.981597 180.330182 
L 139.495031 174.794362 
L 140.521899 173.212699 
L 141.548767 168.116229 
L 142.062201 163.019759 
L 142.575635 164.689293 
L 143.089069 163.28337 
L 143.602503 154.759964 
L 144.115937 155.814406 
L 144.629371 152.299599 
L 145.142805 152.91469 
L 145.656238 151.069417 
L 146.169672 146.412298 
L 146.683106 147.46674 
L 147.19654 150.717936 
L 147.709974 146.236558 
L 148.223408 147.906091 
L 149.250276 141.930919 
L 149.76371 143.073232 
L 150.790578 133.495383 
L 151.304012 134.637696 
L 151.817446 136.131488 
L 152.33088 134.637696 
L 152.844314 136.131488 
L 153.357748 132.616682 
L 153.871181 133.758994 
L 154.384615 129.453356 
L 154.898049 128.574654 
L 155.411483 128.574654 
L 155.924917 127.695952 
L 156.438351 127.871693 
L 156.951785 124.620497 
L 157.465219 119.172546 
L 157.978653 123.653925 
L 158.492087 121.457171 
L 159.005521 122.687353 
L 159.518955 116.00922 
L 160.032389 120.842079 
L 160.545823 119.963378 
L 161.57269 117.854494 
L 162.086124 113.988206 
L 162.599558 114.866908 
L 163.112992 113.373115 
L 163.626426 113.812466 
L 164.13986 110.64914 
L 164.653294 112.933764 
L 165.166728 107.925165 
L 165.680162 108.540256 
L 166.193596 107.397944 
L 166.70703 109.155347 
L 167.220464 106.519242 
L 167.733898 108.891737 
L 168.247332 105.28906 
L 168.760766 107.397944 
L 169.274199 101.862123 
L 169.787633 104.673969 
L 170.301067 103.268046 
L 170.814501 103.971007 
L 171.327935 101.862123 
L 171.841369 100.895552 
L 172.354803 96.238433 
L 172.868237 100.10472 
L 173.381671 96.589913 
L 173.895105 100.28046 
L 174.408539 94.217419 
L 174.921973 96.150563 
L 175.435407 93.953808 
L 175.948841 98.786668 
L 176.462275 96.765654 
L 176.975709 95.359731 
L 177.489142 96.502043 
L 178.002576 91.581314 
L 178.51601 94.481029 
L 179.029444 91.141963 
L 179.542878 93.778068 
L 180.056312 93.338717 
L 180.569746 89.208819 
L 181.08318 89.208819 
L 181.596614 91.932795 
L 182.110048 89.5603 
L 182.623482 92.284275 
L 183.136916 92.020665 
L 183.65035 91.141963 
L 184.163784 93.075107 
L 184.677218 87.715027 
L 185.190651 87.275676 
L 185.704085 88.857339 
L 186.217519 87.802897 
L 186.730953 87.890767 
L 187.244387 85.781883 
L 187.757821 87.187806 
L 188.271255 87.715027 
L 188.784689 87.802897 
L 189.298123 89.208819 
L 189.811557 84.815311 
L 190.324991 88.505858 
L 190.838425 83.848739 
L 191.351859 88.242248 
L 192.378727 83.409388 
L 192.89216 84.991051 
L 193.405594 85.694013 
L 193.919028 84.20022 
L 194.432462 87.451416 
L 194.945896 82.618557 
L 195.45933 87.978637 
L 195.972764 87.627156 
L 196.486198 85.166792 
L 196.999632 87.890767 
L 197.513066 86.836325 
L 198.0265 82.618557 
L 199.053368 87.627156 
L 199.566802 78.752269 
L 200.080236 80.158192 
L 200.593669 79.894582 
L 201.107103 84.46383 
L 201.620537 85.430402 
L 202.133971 82.882167 
L 202.647405 79.718841 
L 203.160839 83.145778 
L 203.674273 83.145778 
L 204.187707 78.752269 
L 204.701141 81.827725 
L 205.214575 80.597543 
L 205.728009 80.158192 
L 206.241443 80.333932 
L 206.754877 85.781883 
L 207.268311 80.949024 
L 207.781745 79.01588 
L 208.295179 78.84014 
L 208.808612 80.509673 
L 209.322046 79.894582 
L 209.83548 80.421803 
L 210.348914 82.442817 
L 210.862348 82.794297 
L 211.375782 79.367361 
L 211.889216 80.158192 
L 212.40265 78.752269 
L 212.916084 80.773283 
L 213.429518 80.597543 
L 213.942952 80.861153 
L 214.456386 80.070322 
L 214.96982 76.379775 
L 215.483254 80.685413 
L 215.996688 81.476245 
L 216.510121 79.455231 
L 217.023555 81.651985 
L 217.536989 79.543101 
L 218.050423 80.421803 
L 218.563857 76.555515 
L 219.077291 75.325333 
L 219.590725 77.785698 
L 220.104159 76.379775 
L 220.617593 80.685413 
L 221.131027 80.773283 
L 221.644461 79.806711 
L 222.157895 77.609957 
L 222.671329 79.19162 
L 223.184763 76.467645 
L 223.698197 76.994866 
L 224.21163 79.982452 
L 224.725064 75.413203 
L 225.238498 77.434217 
L 225.751932 74.973852 
L 226.265366 79.894582 
L 226.7788 75.764684 
L 227.292234 78.752269 
L 227.805668 75.501073 
L 228.319102 77.082736 
L 228.832536 76.467645 
L 229.34597 77.082736 
L 229.859404 76.291905 
L 230.372838 76.291905 
L 230.886272 77.434217 
L 231.399706 78.049308 
L 231.913139 79.27949 
L 232.426573 77.785698 
L 232.940007 77.082736 
L 233.453441 74.710242 
L 233.966875 76.906996 
L 234.480309 76.994866 
L 234.993743 77.873568 
L 235.507177 76.819126 
L 236.020611 78.84014 
L 236.534045 75.325333 
L 237.047479 73.56793 
L 237.560913 77.170606 
L 238.074347 74.534501 
L 238.587781 74.798112 
L 239.101215 75.237463 
L 239.614649 74.095151 
L 240.128082 79.27949 
L 240.641516 77.346347 
L 241.15495 77.609957 
L 241.668384 76.731256 
L 242.695252 72.513488 
L 243.208686 75.237463 
L 243.72212 77.170606 
L 244.235554 73.480059 
L 244.748988 74.446631 
L 245.262422 74.622372 
L 245.775856 74.622372 
L 246.28929 76.819126 
L 247.316158 73.392189 
L 247.829591 76.467645 
L 248.343025 71.371175 
L 248.856459 73.83154 
L 249.369893 71.898396 
L 249.883327 74.534501 
L 250.396761 71.019695 
L 250.910195 73.392189 
L 251.423629 73.480059 
L 251.937063 72.777098 
L 252.450497 74.622372 
L 252.963931 72.337747 
L 253.477365 74.00728 
L 253.990799 72.777098 
L 255.017667 74.095151 
L 255.5311 73.392189 
L 256.044534 75.061722 
L 256.557968 74.622372 
L 257.071402 72.162007 
L 257.584836 72.513488 
L 258.09827 71.546916 
L 258.611704 73.128579 
L 259.125138 72.864968 
L 259.638572 74.622372 
L 260.152006 72.513488 
L 260.66544 71.634786 
L 261.178874 72.689228 
L 261.692308 71.371175 
L 262.205742 73.74367 
L 262.719176 72.074137 
L 263.232609 73.83154 
L 263.746043 74.534501 
L 264.259477 69.525902 
L 264.772911 71.898396 
L 265.286345 75.237463 
L 265.799779 71.546916 
L 266.313213 74.710242 
L 266.826647 72.777098 
L 267.340081 71.459046 
L 267.853515 74.270891 
L 268.366949 70.843954 
L 268.880383 72.864968 
L 269.393817 72.337747 
L 269.907251 72.249877 
L 270.420685 71.371175 
L 270.934119 72.864968 
L 271.447552 71.810526 
L 271.960986 70.140993 
L 272.47442 70.316733 
L 272.987854 73.392189 
L 273.501288 73.040709 
L 274.014722 72.337747 
L 274.528156 72.249877 
L 275.04159 73.74367 
L 275.555024 69.877383 
L 276.068458 71.634786 
L 276.581892 68.207849 
L 277.095326 72.425617 
L 278.122194 73.56793 
L 278.635628 69.965253 
L 279.149061 72.425617 
L 279.662495 71.634786 
L 280.175929 71.283305 
L 280.689363 71.371175 
L 281.202797 70.843954 
L 281.716231 68.73507 
L 282.229665 70.140993 
L 282.743099 71.195435 
L 283.256533 68.73507 
L 283.769967 68.998681 
L 284.796835 67.856369 
L 285.310269 69.262291 
L 285.823703 66.801927 
L 286.337137 67.329148 
L 286.85057 70.053123 
L 287.364004 68.55933 
L 287.877438 70.228863 
L 288.390872 70.668214 
L 288.904306 70.140993 
L 289.41774 69.174421 
L 289.931174 70.843954 
L 290.958042 69.965253 
L 291.471476 66.011095 
L 291.98491 70.316733 
L 292.498344 68.38359 
L 293.011778 68.998681 
L 293.525212 69.174421 
L 294.038646 68.55933 
L 294.552079 71.019695 
L 295.065513 68.910811 
L 295.578947 71.546916 
L 296.092381 71.371175 
L 297.119249 69.613772 
L 298.659551 68.73507 
L 299.172985 69.877383 
L 299.686419 70.316733 
L 300.199853 66.714057 
L 300.713287 68.29572 
L 301.226721 69.262291 
L 301.740155 68.822941 
L 302.253589 68.998681 
L 302.767022 66.538316 
L 303.280456 67.680628 
L 303.79389 69.613772 
L 304.307324 70.053123 
L 304.820758 67.153407 
L 305.334192 67.680628 
L 305.847626 68.910811 
L 306.36106 69.438032 
L 306.874494 67.680628 
L 307.387928 67.504888 
L 307.901362 69.262291 
L 308.414796 68.998681 
L 308.92823 68.207849 
L 309.441664 66.362576 
L 309.955098 65.835355 
L 310.981965 68.73507 
L 311.495399 68.910811 
L 312.008833 64.780913 
L 312.522267 65.659615 
L 313.035701 69.350162 
L 313.549135 66.977667 
L 314.062569 67.329148 
L 314.576003 68.119979 
L 315.089437 68.119979 
L 315.602871 67.856369 
L 316.116305 66.801927 
L 316.629739 66.889797 
L 317.143173 67.768499 
L 317.656607 66.889797 
L 318.17004 68.29572 
L 318.683474 65.923225 
L 319.196908 67.768499 
L 319.710342 66.186836 
L 320.223776 66.538316 
L 320.73721 69.262291 
L 321.250644 68.47146 
L 322.277512 66.274706 
L 322.790946 68.73507 
L 323.30438 68.032109 
L 323.817814 68.207849 
L 324.844682 64.165822 
L 325.358116 68.29572 
L 325.87155 68.29572 
L 326.898417 67.065537 
L 327.411851 68.55933 
L 327.925285 65.396004 
L 328.438719 67.680628 
L 328.952153 64.780913 
L 329.465587 68.55933 
L 329.979021 65.308134 
L 330.492455 66.186836 
L 331.005889 62.759899 
L 331.519323 66.450446 
L 332.032757 64.341562 
L 332.546191 64.517302 
L 333.059625 65.835355 
L 333.573059 63.550731 
L 334.086492 67.768499 
L 334.599926 64.517302 
L 335.11336 68.032109 
L 335.626794 66.362576 
L 336.140228 63.990081 
L 336.653662 66.098965 
L 337.68053 67.065537 
L 338.193964 66.450446 
L 338.707398 65.132394 
L 339.220832 68.910811 
L 339.734266 67.153407 
L 340.2477 66.626186 
L 340.761134 65.220264 
L 341.788001 65.308134 
L 342.301435 66.977667 
L 342.814869 63.902211 
L 343.328303 65.132394 
L 344.355171 64.780913 
L 344.868605 64.253692 
L 345.382039 64.341562 
L 345.895473 65.220264 
L 346.922341 62.584159 
L 347.435775 64.165822 
L 347.949209 66.889797 
L 348.462643 66.801927 
L 348.976077 66.977667 
L 349.48951 65.835355 
L 350.002944 63.902211 
L 350.516378 64.341562 
L 351.029812 64.341562 
L 351.543246 65.308134 
L 352.05668 66.011095 
L 352.570114 64.956653 
L 353.596982 64.517302 
L 354.110416 63.902211 
L 354.62385 65.220264 
L 355.137284 64.780913 
L 355.650718 66.186836 
L 356.164152 64.165822 
L 356.677586 63.814341 
L 357.19102 65.396004 
L 357.704453 67.504888 
L 358.217887 65.483874 
L 358.731321 65.835355 
L 359.244755 65.220264 
L 359.758189 65.923225 
L 360.785057 63.638601 
L 361.298491 64.429432 
L 361.811925 63.46286 
L 362.325359 66.801927 
L 362.838793 66.274706 
L 363.352227 65.044523 
L 363.865661 62.847769 
L 364.379095 63.28712 
L 364.892529 64.429432 
L 365.405962 64.868783 
L 365.919396 64.693043 
L 366.43283 62.584159 
L 366.946264 65.396004 
L 367.459698 64.868783 
L 367.973132 62.935639 
L 368.486566 64.868783 
L 369 65.044523 
L 369.513434 64.429432 
L 370.026868 62.320548 
L 370.540302 65.571744 
L 371.053736 63.550731 
L 371.56717 67.241278 
L 372.080604 63.638601 
L 372.594038 62.320548 
L 373.107471 61.881197 
L 373.620905 60.914626 
L 374.647773 66.011095 
L 375.161207 63.02351 
L 375.674641 62.496289 
L 376.188075 67.417018 
L 376.701509 63.37499 
L 377.214943 63.990081 
L 377.728377 63.550731 
L 378.241811 65.044523 
L 378.755245 63.11138 
L 379.268679 63.46286 
L 379.782113 62.496289 
L 380.295547 64.429432 
L 380.80898 61.002496 
L 381.322414 61.529717 
L 381.835848 64.253692 
L 382.349282 65.747485 
L 382.862716 62.935639 
L 383.37615 65.220264 
L 383.889584 63.46286 
L 384.403018 63.28712 
L 384.916452 63.37499 
L 385.429886 63.814341 
L 385.94332 65.571744 
L 386.456754 64.956653 
L 386.970188 65.308134 
L 387.483622 63.02351 
L 387.997056 62.408418 
L 388.51049 65.132394 
L 389.023923 62.672029 
L 389.537357 61.178236 
L 390.050791 61.881197 
L 390.564225 63.990081 
L 391.077659 61.793327 
L 391.591093 64.253692 
L 392.104527 64.077952 
L 392.617961 62.232678 
L 393.131395 64.253692 
L 393.644829 63.902211 
L 394.158263 62.935639 
L 394.671697 62.759899 
L 395.185131 63.28712 
L 395.698565 64.605173 
L 396.211999 63.726471 
L 396.725432 63.550731 
L 397.238866 63.726471 
L 397.7523 65.044523 
L 398.265734 63.11138 
L 399.292602 63.726471 
L 399.806036 63.02351 
L 400.31947 60.563145 
L 400.832904 63.19925 
L 401.346338 60.387405 
L 402.373206 64.780913 
L 402.88664 63.726471 
L 403.400074 64.077952 
L 403.913508 61.793327 
L 404.940375 64.605173 
L 405.453809 62.759899 
L 405.967243 63.28712 
L 406.480677 63.19925 
L 406.994111 61.705457 
L 407.507545 65.220264 
L 408.020979 62.496289 
L 408.534413 62.144808 
L 409.047847 64.605173 
L 409.561281 61.793327 
L 410.074715 64.253692 
L 410.588149 60.651015 
L 411.101583 63.37499 
L 412.641884 62.847769 
L 413.155318 61.441847 
L 413.668752 62.056938 
L 414.182186 64.341562 
L 414.69562 60.475275 
L 415.722488 63.11138 
L 416.235922 62.584159 
L 416.749356 60.563145 
L 417.26279 62.847769 
L 417.776224 62.935639 
L 418.289658 64.341562 
L 418.803092 61.969068 
L 419.316526 62.759899 
L 419.82996 63.814341 
L 420.343393 63.11138 
L 420.856827 63.902211 
L 421.370261 62.056938 
L 421.883695 62.408418 
L 422.397129 61.178236 
L 423.423997 61.178236 
L 423.937431 60.035924 
L 424.450865 65.396004 
L 424.964299 61.793327 
L 425.477733 61.881197 
L 425.991167 63.02351 
L 426.504601 62.408418 
L 427.018035 60.387405 
L 427.531469 63.11138 
L 428.044902 64.429432 
L 428.558336 62.935639 
L 429.585204 62.935639 
L 430.098638 60.299534 
L 430.612072 60.299534 
L 431.125506 59.508703 
L 431.63894 61.881197 
L 432.152374 63.37499 
L 432.665808 61.441847 
L 433.179242 61.793327 
L 433.692676 63.02351 
L 434.20611 62.935639 
L 434.719544 61.441847 
L 435.232978 60.914626 
L 435.746411 60.738885 
L 436.259845 62.144808 
L 436.773279 61.441847 
L 437.286713 61.705457 
L 437.800147 62.144808 
L 438.313581 62.232678 
L 438.827015 65.044523 
L 439.340449 59.948054 
L 439.853883 59.772313 
L 440.367317 61.353976 
L 440.880751 62.232678 
L 441.394185 61.353976 
L 441.907619 63.638601 
L 442.421053 62.408418 
L 442.934487 62.496289 
L 443.447921 62.759899 
L 443.961354 61.441847 
L 444.474788 63.37499 
L 444.988222 61.617587 
L 445.501656 60.826755 
L 446.01509 63.02351 
L 446.528524 63.28712 
L 447.041958 61.090366 
L 447.555392 61.617587 
L 448.068826 58.454261 
L 448.58226 61.090366 
L 449.095694 60.475275 
L 449.609128 63.19925 
L 450.122562 61.793327 
L 450.635996 60.914626 
L 451.14943 59.508703 
L 451.662863 62.320548 
L 452.176297 61.353976 
L 452.689731 62.144808 
L 453.203165 61.002496 
L 453.716599 61.441847 
L 454.230033 62.232678 
L 454.743467 60.387405 
L 455.256901 63.37499 
L 455.770335 62.144808 
L 456.283769 62.759899 
L 456.797203 59.069352 
L 457.310637 62.584159 
L 457.824071 60.035924 
L 458.337505 61.969068 
L 458.850939 60.826755 
L 459.364372 60.387405 
L 459.877806 61.881197 
L 460.39124 60.914626 
L 460.904674 62.496289 
L 461.418108 62.056938 
L 461.931542 61.178236 
L 462.444976 63.814341 
L 462.95841 59.332963 
L 463.471844 60.299534 
L 463.985278 58.805742 
L 464.498712 59.684443 
L 465.012146 59.596573 
L 465.52558 60.299534 
L 466.039014 60.299534 
L 466.552448 60.475275 
L 467.065881 61.002496 
L 467.579315 60.387405 
L 468.092749 63.902211 
L 468.606183 61.002496 
L 469.119617 62.144808 
L 469.633051 61.178236 
L 470.659919 60.914626 
L 471.173353 62.144808 
L 471.686787 62.672029 
L 472.200221 61.793327 
L 472.713655 59.508703 
L 473.227089 61.266106 
L 474.253957 59.860184 
L 474.767391 62.847769 
L 475.280824 62.232678 
L 475.794258 60.826755 
L 476.307692 60.651015 
L 476.821126 61.529717 
L 477.33456 60.123794 
L 477.847994 61.178236 
L 478.361428 61.705457 
L 478.874862 59.860184 
L 479.388296 60.563145 
L 479.90173 60.387405 
L 480.415164 63.37499 
L 480.928598 61.617587 
L 481.442032 61.969068 
L 481.955466 62.672029 
L 482.4689 61.969068 
L 482.982333 64.165822 
L 483.495767 60.914626 
L 484.009201 59.508703 
L 484.522635 59.596573 
L 485.036069 60.035924 
L 485.549503 61.090366 
L 486.062937 59.508703 
L 486.576371 59.508703 
L 487.089805 60.826755 
L 487.603239 59.332963 
L 488.116673 63.726471 
L 488.630107 62.320548 
L 489.143541 63.19925 
L 489.656975 59.420833 
L 490.170409 62.496289 
L 490.683842 60.387405 
L 491.197276 61.529717 
L 491.71071 57.7513 
L 492.224144 62.232678 
L 492.737578 58.278521 
L 493.251012 61.090366 
L 493.764446 59.245092 
L 494.27788 56.521117 
L 494.791314 60.211664 
L 495.304748 60.035924 
L 495.818182 60.914626 
L 496.331616 59.772313 
L 496.84505 60.826755 
L 497.358484 59.245092 
L 497.871918 58.542131 
L 498.385351 60.299534 
L 498.898785 59.508703 
L 499.412219 60.563145 
L 499.925653 61.178236 
L 500.439087 61.441847 
L 500.952521 58.893612 
L 501.465955 62.320548 
L 501.979389 60.738885 
L 502.492823 61.002496 
L 503.006257 61.969068 
L 503.519691 61.529717 
L 504.033125 59.948054 
L 504.546559 59.508703 
L 505.573427 58.981482 
L 506.600294 61.266106 
L 507.113728 61.353976 
L 507.627162 58.01491 
L 508.140596 60.123794 
L 508.65403 61.441847 
L 509.167464 61.353976 
L 509.680898 61.529717 
L 510.707766 59.596573 
L 511.2212 62.496289 
L 511.734634 61.353976 
L 512.248068 59.772313 
L 512.761502 60.475275 
L 513.274936 61.793327 
L 513.78837 57.83917 
L 514.815237 60.123794 
L 515.328671 59.860184 
L 515.842105 60.035924 
L 516.355539 60.563145 
L 516.868973 59.948054 
L 517.895841 59.157222 
L 518.409275 59.772313 
L 518.922709 60.035924 
L 519.436143 60.475275 
L 519.949577 57.7513 
L 520.463011 58.981482 
L 520.976445 59.157222 
L 521.489879 59.684443 
L 522.003312 61.793327 
L 522.516746 58.630001 
L 523.03018 59.420833 
L 523.543614 60.826755 
L 524.057048 60.299534 
L 524.570482 62.232678 
L 525.083916 60.738885 
L 525.59735 61.969068 
L 526.110784 58.630001 
L 526.624218 61.178236 
L 527.137652 59.948054 
L 528.16452 59.772313 
L 528.677954 61.529717 
L 529.191388 60.651015 
L 529.704821 61.266106 
L 530.218255 57.399819 
L 530.731689 58.542131 
L 531.245123 61.090366 
L 531.758557 58.893612 
L 532.271991 60.651015 
L 532.785425 59.157222 
L 533.298859 61.793327 
L 533.812293 61.002496 
L 534.325727 60.475275 
L 534.839161 60.651015 
L 535.352595 58.717871 
L 535.866029 59.948054 
L 536.379463 59.948054 
L 536.892897 61.178236 
L 537.406331 59.684443 
L 537.919764 61.002496 
L 538.946632 58.278521 
L 539.460066 60.475275 
L 539.9735 58.630001 
L 540.486934 58.278521 
L 541.000368 59.860184 
L 541.513802 58.717871 
L 542.027236 60.211664 
L 542.54067 56.784728 
L 543.054104 60.035924 
L 543.567538 59.332963 
L 544.080972 61.002496 
L 544.594406 60.387405 
L 545.10784 59.157222 
L 545.621273 59.684443 
L 546.134707 59.772313 
L 546.648141 62.847769 
L 547.161575 59.860184 
L 547.675009 58.10278 
L 548.188443 60.475275 
L 548.701877 60.387405 
L 549.215311 59.596573 
L 549.728745 60.035924 
L 550.242179 58.10278 
L 550.755613 58.717871 
L 551.269047 61.002496 
L 551.782481 60.826755 
L 553.322782 57.136208 
L 553.836216 59.332963 
L 554.34965 59.508703 
L 554.863084 57.136208 
L 555.889952 59.069352 
L 556.403386 58.893612 
L 556.91682 59.420833 
L 557.430254 60.387405 
L 557.943688 60.914626 
L 558.457122 59.684443 
L 558.970556 58.10278 
L 559.48399 57.224079 
L 559.997424 56.784728 
L 560.510858 57.575559 
L 561.024291 60.738885 
L 561.537725 56.521117 
L 562.051159 60.211664 
L 562.564593 57.311949 
L 563.078027 59.596573 
L 563.591461 57.83917 
L 564.104895 59.860184 
L 564.618329 60.123794 
L 565.131763 59.508703 
L 565.645197 63.11138 
L 566.158631 58.717871 
L 566.672065 61.617587 
L 567.185499 59.420833 
L 567.698933 59.772313 
L 568.212367 57.487689 
L 568.725801 58.01491 
L 569.239234 59.508703 
L 569.752668 59.508703 
L 570.266102 58.981482 
L 570.779536 58.19065 
L 571.29297 58.981482 
L 571.806404 58.981482 
L 572.319838 58.366391 
L 573.346706 60.475275 
L 573.86014 60.563145 
L 574.887008 57.136208 
L 575.400442 58.893612 
L 575.913876 58.717871 
L 576.42731 60.563145 
L 576.940743 61.793327 
L 577.967611 58.542131 
L 578.481045 60.211664 
L 578.994479 57.92704 
L 580.021347 59.157222 
L 580.534781 58.805742 
L 581.048215 58.19065 
L 581.561649 61.178236 
L 582.075083 59.860184 
L 582.588517 58.01491 
L 583.101951 59.069352 
L 583.615385 59.508703 
L 584.128819 57.311949 
L 584.642252 60.299534 
L 585.155686 60.035924 
L 585.66912 57.83917 
L 586.182554 58.630001 
L 586.695988 58.19065 
L 587.209422 56.608987 
L 588.23629 60.914626 
L 588.749724 57.575559 
L 589.263158 59.332963 
L 589.776592 59.245092 
L 590.290026 58.454261 
L 590.80346 58.717871 
L 591.316894 58.19065 
L 591.830328 60.914626 
L 592.343762 57.663429 
L 592.857195 56.169637 
L 593.370629 57.399819 
L 593.884063 59.157222 
L 594.397497 59.948054 
L 594.910931 60.387405 
L 595.424365 57.048338 
L 595.937799 58.278521 
L 596.451233 60.123794 
L 596.964667 57.048338 
L 597.478101 57.048338 
L 597.991535 57.92704 
L 598.504969 59.772313 
L 599.018403 58.981482 
L 599.531837 58.717871 
L 600.045271 59.684443 
L 600.558704 58.717871 
L 601.072138 58.805742 
L 601.585572 59.332963 
L 602.61244 58.366391 
L 603.125874 56.521117 
L 603.639308 58.893612 
L 604.152742 58.10278 
L 604.666176 56.521117 
L 605.17961 58.19065 
L 605.693044 60.387405 
L 606.206478 58.366391 
L 606.719912 58.454261 
L 607.233346 57.048338 
L 607.74678 56.960468 
L 608.260213 59.596573 
L 608.773647 57.487689 
L 609.287081 57.487689 
L 609.800515 58.893612 
L 610.313949 58.717871 
L 610.827383 59.332963 
L 611.340817 57.7513 
L 611.854251 56.960468 
L 612.367685 59.157222 
L 612.881119 59.860184 
L 613.394553 58.630001 
L 613.907987 59.245092 
L 614.421421 59.157222 
L 614.934855 56.872598 
L 615.448289 58.542131 
L 615.961722 58.366391 
L 616.475156 56.872598 
L 616.98859 59.157222 
L 618.015458 57.311949 
L 618.528892 58.981482 
L 619.042326 58.278521 
L 619.55576 60.651015 
L 620.069194 56.696858 
L 620.582628 57.311949 
L 621.096062 57.663429 
L 621.609496 59.069352 
L 622.12293 56.872598 
L 622.636364 59.332963 
L 622.636364 59.332963 
" style="fill:none;stroke:#1f77b4;stroke-linecap:square;stroke-width:0.5;"/>
   </g>
   <g id="line2d_28">
    <path clip-path="url(#pd282b0836b)" d="M 115.363636 294.91288 
L 115.87707 298.867037 
L 116.903938 290.167891 
L 117.417372 298.515557 
L 117.930806 291.222333 
L 118.44424 292.188905 
L 118.957674 289.64067 
L 119.471108 289.113449 
L 119.984542 285.950123 
L 120.497976 280.238562 
L 121.01141 278.92051 
L 121.524844 276.460145 
L 122.038278 279.35986 
L 122.551711 271.451545 
L 123.065145 268.81544 
L 123.578579 268.46396 
L 124.605447 251.768628 
L 125.118881 253.526031 
L 126.145749 243.596702 
L 126.659183 243.420962 
L 127.172617 245.969197 
L 127.686051 240.784857 
L 128.199485 237.00644 
L 128.712919 236.127738 
L 129.226353 229.625346 
L 129.739787 226.813501 
L 130.25322 224.704617 
L 130.766654 220.135368 
L 131.280088 216.972042 
L 131.793522 216.444821 
L 132.306956 210.293909 
L 132.82039 207.482064 
L 133.333824 208.975857 
L 133.847258 205.63679 
L 134.360692 209.239467 
L 134.874126 199.837359 
L 135.900994 196.761904 
L 136.414428 192.983486 
L 136.927862 190.698862 
L 137.441296 184.1086 
L 137.954729 189.117199 
L 138.468163 179.1 
L 138.981597 178.133428 
L 139.495031 182.087586 
L 140.008465 175.057972 
L 140.521899 175.936674 
L 141.035333 176.376025 
L 141.548767 170.488724 
L 142.062201 169.258541 
L 142.575635 162.228928 
L 143.089069 164.162072 
L 143.602503 160.471525 
L 144.115937 158.450511 
L 144.629371 157.92329 
L 145.142805 156.956718 
L 145.656238 152.123859 
L 146.169672 151.772378 
L 146.683106 154.408483 
L 147.19654 151.596638 
L 148.223408 144.479154 
L 148.736842 146.588038 
L 149.250276 145.885077 
L 149.76371 140.173516 
L 150.277144 140.524997 
L 151.304012 138.152502 
L 151.817446 137.888892 
L 152.844314 130.947149 
L 153.357748 132.704552 
L 153.871181 132.616682 
L 154.384615 130.332057 
L 154.898049 129.629096 
L 155.411483 130.595668 
L 155.924917 130.332057 
L 156.438351 127.959563 
L 156.951785 129.277615 
L 157.465219 126.29003 
L 157.978653 121.984392 
L 158.492087 123.917535 
L 159.518955 114.954778 
L 160.032389 117.942364 
L 160.545823 117.503013 
L 161.57269 115.74561 
L 162.086124 115.569869 
L 162.599558 114.866908 
L 163.112992 112.494414 
L 163.626426 110.82488 
L 164.653294 106.255632 
L 165.166728 110.38553 
L 165.680162 108.628126 
L 166.193596 105.025449 
L 166.70703 102.916565 
L 167.733898 104.322488 
L 168.247332 100.983422 
L 168.760766 101.598513 
L 169.274199 96.062692 
L 169.787633 99.050278 
L 170.301067 100.28046 
L 170.814501 100.368331 
L 171.327935 94.305289 
L 171.841369 94.92038 
L 172.354803 91.932795 
L 172.868237 92.723626 
L 173.381671 94.83251 
L 173.895105 92.108535 
L 174.408539 90.966223 
L 174.921973 91.932795 
L 175.435407 89.5603 
L 175.948841 88.066507 
L 176.462275 88.417988 
L 176.975709 87.363546 
L 177.489142 86.572714 
L 178.002576 90.526872 
L 178.51601 85.781883 
L 179.029444 83.321518 
L 179.542878 87.099935 
L 180.056312 87.451416 
L 180.569746 82.442817 
L 181.596614 84.903181 
L 182.110048 85.781883 
L 182.623482 84.20022 
L 183.136916 83.321518 
L 183.65035 81.827725 
L 184.163784 82.179206 
L 184.677218 81.564115 
L 185.190651 83.057908 
L 185.704085 80.246062 
L 186.217519 79.01588 
L 186.730953 76.555515 
L 187.244387 77.434217 
L 187.757821 79.01588 
L 188.271255 76.467645 
L 188.784689 75.149593 
L 189.298123 79.10375 
L 189.811557 77.170606 
L 190.324991 78.488659 
L 190.838425 77.434217 
L 191.351859 78.400789 
L 191.865293 79.718841 
L 192.378727 78.225048 
L 192.89216 76.028294 
L 193.405594 75.061722 
L 193.919028 76.291905 
L 194.432462 75.501073 
L 195.45933 77.082736 
L 195.972764 81.476245 
L 196.486198 78.752269 
L 196.999632 80.158192 
L 197.513066 76.731256 
L 198.0265 74.446631 
L 198.539934 71.283305 
L 199.053368 72.074137 
L 199.566802 77.170606 
L 200.080236 70.228863 
L 200.593669 73.304319 
L 201.107103 73.128579 
L 201.620537 73.83154 
L 202.133971 73.128579 
L 202.647405 75.413203 
L 203.160839 74.446631 
L 203.674273 73.216449 
L 204.187707 70.756084 
L 204.701141 73.480059 
L 205.214575 71.195435 
L 205.728009 73.480059 
L 206.241443 69.525902 
L 206.754877 70.228863 
L 207.268311 71.986267 
L 207.781745 69.701642 
L 208.295179 73.304319 
L 208.808612 71.722656 
L 209.322046 71.986267 
L 209.83548 71.195435 
L 210.348914 70.668214 
L 210.862348 71.283305 
L 211.375782 71.722656 
L 211.889216 68.47146 
L 212.916084 71.371175 
L 213.429518 67.856369 
L 213.942952 66.714057 
L 214.456386 70.140993 
L 214.96982 71.546916 
L 215.483254 70.140993 
L 215.996688 69.438032 
L 216.510121 72.337747 
L 217.023555 71.722656 
L 217.536989 69.877383 
L 218.050423 68.55933 
L 218.563857 69.262291 
L 219.077291 67.856369 
L 220.104159 68.6472 
L 220.617593 70.053123 
L 221.131027 66.450446 
L 221.644461 68.910811 
L 222.157895 69.438032 
L 222.671329 67.329148 
L 223.184763 68.29572 
L 223.698197 68.47146 
L 224.21163 66.801927 
L 224.725064 68.29572 
L 225.238498 67.417018 
L 225.751932 71.019695 
L 226.265366 67.680628 
L 226.7788 68.207849 
L 227.292234 68.910811 
L 227.805668 68.032109 
L 228.319102 66.538316 
L 228.832536 69.701642 
L 229.859404 66.011095 
L 230.372838 67.504888 
L 231.399706 67.768499 
L 231.913139 65.923225 
L 232.426573 68.207849 
L 232.940007 67.680628 
L 233.453441 67.417018 
L 233.966875 69.262291 
L 234.480309 68.29572 
L 234.993743 68.119979 
L 235.507177 65.220264 
L 236.020611 68.822941 
L 236.534045 67.944239 
L 237.047479 67.504888 
L 237.560913 67.768499 
L 238.074347 64.780913 
L 238.587781 69.965253 
L 239.101215 64.780913 
L 239.614649 68.822941 
L 240.128082 67.856369 
L 240.641516 64.077952 
L 241.15495 66.889797 
L 242.181818 67.241278 
L 242.695252 65.220264 
L 243.208686 68.38359 
L 243.72212 63.814341 
L 244.235554 66.714057 
L 244.748988 66.011095 
L 245.262422 64.429432 
L 245.775856 68.910811 
L 246.28929 66.362576 
L 246.802724 69.438032 
L 247.316158 67.417018 
L 247.829591 67.592758 
L 248.343025 67.944239 
L 248.856459 65.747485 
L 249.369893 65.483874 
L 249.883327 68.38359 
L 250.396761 64.077952 
L 250.910195 63.814341 
L 251.423629 66.186836 
L 251.937063 64.605173 
L 252.450497 67.768499 
L 252.963931 65.308134 
L 253.477365 63.902211 
L 253.990799 64.429432 
L 254.504233 65.835355 
L 255.017667 63.902211 
L 255.5311 64.429432 
L 256.044534 66.098965 
L 256.557968 64.077952 
L 257.071402 65.923225 
L 257.584836 64.517302 
L 258.09827 65.396004 
L 258.611704 64.956653 
L 259.125138 67.241278 
L 259.638572 65.220264 
L 260.152006 62.672029 
L 260.66544 62.144808 
L 261.178874 64.429432 
L 261.692308 61.881197 
L 262.205742 65.747485 
L 262.719176 63.550731 
L 263.232609 65.220264 
L 263.746043 64.165822 
L 264.259477 63.46286 
L 264.772911 66.626186 
L 265.286345 63.550731 
L 265.799779 62.847769 
L 266.313213 64.429432 
L 266.826647 63.902211 
L 267.340081 65.571744 
L 267.853515 63.990081 
L 268.366949 65.220264 
L 268.880383 63.28712 
L 269.393817 65.308134 
L 269.907251 64.517302 
L 270.420685 61.705457 
L 270.934119 66.977667 
L 271.447552 64.165822 
L 271.960986 65.483874 
L 272.47442 63.46286 
L 272.987854 63.19925 
L 273.501288 63.550731 
L 274.528156 66.186836 
L 275.04159 64.253692 
L 275.555024 63.638601 
L 276.068458 62.320548 
L 276.581892 61.617587 
L 277.095326 66.626186 
L 277.60876 63.814341 
L 278.122194 64.517302 
L 278.635628 61.793327 
L 279.149061 62.496289 
L 279.662495 62.584159 
L 280.175929 65.132394 
L 280.689363 64.868783 
L 281.202797 62.144808 
L 281.716231 62.320548 
L 282.229665 62.847769 
L 282.743099 64.780913 
L 283.256533 61.617587 
L 283.769967 61.705457 
L 284.283401 61.969068 
L 284.796835 63.37499 
L 285.310269 63.28712 
L 285.823703 63.46286 
L 286.337137 63.02351 
L 286.85057 62.847769 
L 287.364004 61.529717 
L 287.877438 62.759899 
L 288.390872 62.144808 
L 289.41774 62.056938 
L 289.931174 61.881197 
L 290.444608 62.935639 
L 290.958042 62.847769 
L 291.471476 63.02351 
L 291.98491 60.387405 
L 292.498344 58.981482 
L 293.011778 62.144808 
L 293.525212 62.935639 
L 294.038646 62.847769 
L 294.552079 63.46286 
L 295.065513 64.253692 
L 295.578947 63.46286 
L 296.092381 64.341562 
L 296.605815 62.584159 
L 297.119249 61.266106 
L 297.632683 62.496289 
L 298.146117 62.232678 
L 298.659551 62.408418 
L 299.172985 61.793327 
L 300.199853 64.341562 
L 300.713287 64.253692 
L 301.226721 63.19925 
L 302.253589 62.496289 
L 302.767022 64.077952 
L 303.280456 62.144808 
L 303.79389 61.090366 
L 304.307324 62.144808 
L 304.820758 61.705457 
L 305.334192 60.738885 
L 305.847626 60.299534 
L 306.36106 62.056938 
L 306.874494 60.651015 
L 307.387928 62.672029 
L 307.901362 62.232678 
L 308.414796 60.826755 
L 308.92823 61.793327 
L 309.441664 61.178236 
L 309.955098 59.948054 
L 310.468531 62.935639 
L 310.981965 62.320548 
L 311.495399 62.759899 
L 312.008833 63.638601 
L 312.522267 62.935639 
L 313.549135 59.245092 
L 314.062569 61.002496 
L 314.576003 61.529717 
L 315.089437 61.002496 
L 315.602871 61.705457 
L 316.116305 61.090366 
L 316.629739 61.090366 
L 317.143173 61.353976 
L 317.656607 62.408418 
L 318.17004 62.496289 
L 318.683474 64.780913 
L 319.196908 60.299534 
L 319.710342 60.826755 
L 320.223776 64.780913 
L 320.73721 62.232678 
L 321.250644 61.881197 
L 321.764078 62.759899 
L 322.277512 62.496289 
L 322.790946 61.353976 
L 323.30438 59.069352 
L 323.817814 62.584159 
L 324.331248 61.529717 
L 324.844682 62.759899 
L 325.358116 61.793327 
L 325.87155 61.090366 
L 326.384983 61.969068 
L 326.898417 61.266106 
L 327.411851 61.441847 
L 327.925285 59.420833 
L 328.438719 58.278521 
L 328.952153 63.11138 
L 329.465587 60.475275 
L 329.979021 59.596573 
L 330.492455 60.475275 
L 331.005889 62.232678 
L 331.519323 61.178236 
L 332.032757 59.596573 
L 332.546191 61.090366 
L 333.059625 61.617587 
L 333.573059 60.123794 
L 334.086492 60.914626 
L 334.599926 60.299534 
L 335.11336 61.529717 
L 335.626794 60.914626 
L 336.140228 61.793327 
L 336.653662 59.596573 
L 337.167096 59.772313 
L 337.68053 60.211664 
L 338.193964 61.353976 
L 338.707398 60.738885 
L 339.220832 62.056938 
L 339.734266 60.826755 
L 340.2477 62.496289 
L 340.761134 59.596573 
L 341.274568 60.563145 
L 341.788001 60.738885 
L 342.301435 59.245092 
L 342.814869 58.19065 
L 343.328303 61.002496 
L 343.841737 58.630001 
L 344.355171 61.266106 
L 344.868605 60.035924 
L 345.382039 59.245092 
L 345.895473 60.914626 
L 346.408907 59.157222 
L 346.922341 59.332963 
L 347.435775 59.772313 
L 347.949209 58.542131 
L 348.462643 60.826755 
L 348.976077 60.211664 
L 349.48951 57.487689 
L 350.002944 58.01491 
L 351.029812 61.002496 
L 351.543246 60.738885 
L 352.05668 59.420833 
L 352.570114 61.178236 
L 353.083548 60.651015 
L 353.596982 59.157222 
L 354.110416 59.596573 
L 354.62385 60.651015 
L 355.137284 59.860184 
L 355.650718 60.475275 
L 356.164152 58.454261 
L 356.677586 60.211664 
L 357.19102 58.717871 
L 357.704453 59.860184 
L 358.217887 60.651015 
L 358.731321 60.651015 
L 359.244755 61.441847 
L 359.758189 60.914626 
L 360.271623 58.10278 
L 360.785057 59.684443 
L 361.811925 61.617587 
L 362.325359 58.805742 
L 362.838793 61.002496 
L 363.865661 58.893612 
L 364.379095 58.454261 
L 365.405962 59.772313 
L 365.919396 58.454261 
L 366.43283 59.772313 
L 367.459698 58.893612 
L 367.973132 57.663429 
L 368.486566 59.508703 
L 369 57.92704 
L 369.513434 60.475275 
L 370.026868 60.914626 
L 370.540302 57.7513 
L 371.053736 59.420833 
L 371.56717 57.83917 
L 372.080604 58.10278 
L 372.594038 58.19065 
L 373.107471 61.793327 
L 373.620905 58.981482 
L 374.134339 59.684443 
L 374.647773 59.245092 
L 375.674641 57.663429 
L 376.188075 58.981482 
L 376.701509 59.860184 
L 377.214943 61.178236 
L 377.728377 59.069352 
L 378.241811 60.563145 
L 378.755245 59.069352 
L 379.268679 58.893612 
L 379.782113 60.299534 
L 380.295547 58.630001 
L 380.80898 57.487689 
L 381.322414 58.10278 
L 381.835848 59.508703 
L 382.349282 59.596573 
L 382.862716 58.454261 
L 383.37615 61.002496 
L 383.889584 59.420833 
L 384.403018 60.035924 
L 384.916452 58.630001 
L 385.94332 57.048338 
L 386.456754 59.069352 
L 386.970188 59.245092 
L 387.483622 59.860184 
L 387.997056 61.441847 
L 388.51049 58.630001 
L 389.023923 58.19065 
L 389.537357 57.399819 
L 390.050791 57.92704 
L 390.564225 60.299534 
L 391.077659 59.596573 
L 391.591093 57.048338 
L 392.104527 57.487689 
L 392.617961 60.211664 
L 393.131395 57.487689 
L 393.644829 58.366391 
L 394.158263 60.211664 
L 394.671697 58.10278 
L 395.185131 59.157222 
L 395.698565 61.002496 
L 396.211999 59.157222 
L 396.725432 58.10278 
L 397.238866 59.684443 
L 397.7523 58.278521 
L 398.265734 60.387405 
L 398.779168 58.893612 
L 399.292602 59.069352 
L 399.806036 58.278521 
L 400.31947 60.738885 
L 400.832904 59.157222 
L 401.346338 58.805742 
L 401.859772 59.684443 
L 402.373206 55.818156 
L 402.88664 59.069352 
L 403.400074 57.92704 
L 403.913508 57.83917 
L 404.426941 58.981482 
L 404.940375 58.10278 
L 405.967243 58.366391 
L 406.480677 56.872598 
L 406.994111 57.92704 
L 407.507545 58.19065 
L 408.020979 59.420833 
L 408.534413 59.772313 
L 409.047847 58.805742 
L 409.561281 58.630001 
L 410.074715 59.069352 
L 410.588149 58.542131 
L 411.101583 58.630001 
L 411.615017 61.793327 
L 412.12845 58.278521 
L 412.641884 58.805742 
L 413.155318 59.772313 
L 413.668752 59.860184 
L 414.182186 58.805742 
L 414.69562 59.332963 
L 415.209054 59.508703 
L 415.722488 58.717871 
L 416.235922 58.981482 
L 416.749356 57.92704 
L 417.26279 58.542131 
L 417.776224 60.651015 
L 418.289658 58.454261 
L 418.803092 59.069352 
L 419.316526 59.157222 
L 419.82996 60.211664 
L 421.370261 59.772313 
L 421.883695 56.081766 
L 422.397129 59.157222 
L 422.910563 59.596573 
L 423.423997 58.717871 
L 423.937431 59.684443 
L 424.964299 58.981482 
L 425.991167 57.399819 
L 426.504601 59.684443 
L 427.018035 58.630001 
L 427.531469 61.002496 
L 428.044902 58.630001 
L 428.558336 59.948054 
L 429.585204 59.245092 
L 430.612072 60.123794 
L 431.125506 57.92704 
L 431.63894 58.19065 
L 432.665808 59.332963 
L 433.179242 59.508703 
L 433.692676 60.035924 
L 434.20611 58.366391 
L 434.719544 59.508703 
L 435.232978 60.299534 
L 435.746411 58.366391 
L 436.259845 58.981482 
L 436.773279 58.717871 
L 437.286713 59.069352 
L 437.800147 57.92704 
L 438.313581 58.805742 
L 438.827015 57.92704 
L 439.340449 58.542131 
L 439.853883 57.663429 
L 440.367317 59.948054 
L 440.880751 60.035924 
L 441.394185 58.454261 
L 441.907619 58.981482 
L 442.421053 57.575559 
L 442.934487 57.048338 
L 443.447921 59.245092 
L 443.961354 57.7513 
L 444.474788 59.245092 
L 445.501656 60.826755 
L 446.01509 58.630001 
L 446.528524 57.487689 
L 447.041958 57.224079 
L 447.555392 57.663429 
L 448.068826 59.596573 
L 448.58226 57.048338 
L 449.095694 59.948054 
L 449.609128 57.7513 
L 450.122562 57.311949 
L 450.635996 59.332963 
L 451.14943 58.19065 
L 451.662863 59.069352 
L 452.176297 58.630001 
L 452.689731 60.299534 
L 453.203165 58.454261 
L 453.716599 59.948054 
L 454.230033 58.454261 
L 454.743467 59.332963 
L 455.256901 58.19065 
L 455.770335 59.684443 
L 456.283769 59.948054 
L 456.797203 57.663429 
L 457.310637 60.211664 
L 457.824071 59.157222 
L 458.337505 57.487689 
L 458.850939 58.278521 
L 459.364372 58.454261 
L 459.877806 58.19065 
L 460.39124 60.035924 
L 460.904674 58.454261 
L 461.418108 58.630001 
L 461.931542 59.069352 
L 462.444976 58.278521 
L 462.95841 58.717871 
L 463.471844 58.630001 
L 463.985278 59.332963 
L 465.52558 56.872598 
L 466.039014 60.035924 
L 466.552448 56.696858 
L 467.065881 58.981482 
L 467.579315 59.508703 
L 468.092749 59.069352 
L 468.606183 57.311949 
L 469.119617 58.366391 
L 470.146485 56.608987 
L 470.659919 56.521117 
L 471.173353 58.366391 
L 471.686787 56.081766 
L 472.200221 58.278521 
L 472.713655 57.83917 
L 473.227089 58.454261 
L 473.740523 58.278521 
L 474.253957 57.311949 
L 474.767391 56.872598 
L 475.280824 58.893612 
L 475.794258 58.19065 
L 476.307692 58.19065 
L 476.821126 59.420833 
L 477.33456 56.345377 
L 477.847994 58.10278 
L 478.361428 58.630001 
L 478.874862 58.10278 
L 479.388296 58.19065 
L 479.90173 55.906026 
L 480.415164 60.035924 
L 480.928598 60.914626 
L 481.442032 58.981482 
L 481.955466 60.123794 
L 482.982333 58.10278 
L 484.522635 57.83917 
L 485.036069 57.224079 
L 485.549503 57.311949 
L 486.062937 57.7513 
L 486.576371 58.366391 
L 487.089805 58.454261 
L 487.603239 56.960468 
L 488.116673 58.542131 
L 488.630107 59.069352 
L 489.143541 57.399819 
L 489.656975 58.10278 
L 490.170409 58.10278 
L 490.683842 59.596573 
L 491.197276 58.278521 
L 491.71071 58.805742 
L 492.224144 59.069352 
L 492.737578 57.224079 
L 493.251012 57.575559 
L 493.764446 58.19065 
L 494.27788 55.730286 
L 495.304748 58.717871 
L 495.818182 56.345377 
L 496.331616 58.630001 
L 496.84505 59.860184 
L 497.358484 57.7513 
L 497.871918 59.420833 
L 498.385351 59.772313 
L 498.898785 58.10278 
L 499.925653 57.83917 
L 500.439087 59.157222 
L 500.952521 58.366391 
L 501.465955 58.805742 
L 501.979389 56.696858 
L 502.492823 57.92704 
L 503.006257 57.7513 
L 503.519691 57.92704 
L 504.033125 60.651015 
L 504.546559 59.069352 
L 505.059993 56.696858 
L 505.573427 55.906026 
L 506.086861 57.311949 
L 506.600294 57.83917 
L 507.113728 58.542131 
L 507.627162 56.872598 
L 508.140596 57.663429 
L 508.65403 59.069352 
L 509.167464 57.575559 
L 509.680898 58.01491 
L 510.194332 57.399819 
L 510.707766 58.366391 
L 511.2212 58.01491 
L 511.734634 57.399819 
L 512.248068 57.048338 
L 512.761502 57.136208 
L 513.274936 57.487689 
L 513.78837 57.575559 
L 514.301803 58.01491 
L 514.815237 58.19065 
L 515.328671 57.7513 
L 515.842105 58.19065 
L 516.355539 56.433247 
L 516.868973 58.542131 
L 517.382407 59.508703 
L 517.895841 57.311949 
L 518.409275 57.487689 
L 518.922709 56.872598 
L 519.436143 59.772313 
L 519.949577 56.345377 
L 520.463011 59.069352 
L 520.976445 57.83917 
L 521.489879 59.860184 
L 522.003312 57.224079 
L 522.516746 58.893612 
L 523.03018 56.960468 
L 523.543614 58.805742 
L 524.570482 58.717871 
L 525.083916 59.245092 
L 525.59735 59.157222 
L 526.110784 58.19065 
L 526.624218 59.245092 
L 527.137652 57.399819 
L 527.651086 59.684443 
L 528.16452 58.366391 
L 529.191388 58.805742 
L 529.704821 56.081766 
L 530.218255 57.399819 
L 530.731689 58.19065 
L 531.245123 60.738885 
L 531.758557 58.19065 
L 532.271991 57.311949 
L 532.785425 61.705457 
L 533.298859 58.454261 
L 533.812293 58.630001 
L 534.325727 57.7513 
L 534.839161 58.278521 
L 535.352595 58.01491 
L 536.379463 56.960468 
L 536.892897 57.311949 
L 537.406331 57.224079 
L 537.919764 59.157222 
L 538.433198 56.960468 
L 538.946632 57.83917 
L 539.460066 58.278521 
L 539.9735 57.663429 
L 540.486934 58.19065 
L 541.000368 57.663429 
L 541.513802 58.542131 
L 542.027236 56.521117 
L 542.54067 58.19065 
L 543.054104 57.224079 
L 543.567538 59.508703 
L 544.080972 56.257507 
L 544.594406 59.772313 
L 545.10784 59.596573 
L 545.621273 56.960468 
L 546.134707 59.508703 
L 546.648141 56.608987 
L 547.161575 59.157222 
L 547.675009 57.224079 
L 548.188443 58.19065 
L 548.701877 57.136208 
L 549.215311 57.575559 
L 549.728745 56.960468 
L 550.242179 60.563145 
L 550.755613 58.01491 
L 551.269047 56.257507 
L 551.782481 57.83917 
L 552.295915 57.136208 
L 552.809349 58.542131 
L 553.322782 58.278521 
L 553.836216 57.487689 
L 554.34965 57.83917 
L 554.863084 57.83917 
L 555.376518 58.805742 
L 555.889952 58.717871 
L 556.403386 59.684443 
L 556.91682 57.83917 
L 557.430254 57.136208 
L 557.943688 57.663429 
L 558.457122 59.157222 
L 558.970556 57.92704 
L 559.48399 59.245092 
L 559.997424 59.245092 
L 560.510858 56.960468 
L 561.024291 57.575559 
L 561.537725 57.399819 
L 562.051159 57.663429 
L 562.564593 55.642416 
L 563.078027 56.345377 
L 563.591461 57.399819 
L 564.104895 56.872598 
L 564.618329 57.487689 
L 565.131763 59.772313 
L 565.645197 57.7513 
L 566.158631 57.224079 
L 566.672065 59.420833 
L 567.698933 58.542131 
L 568.212367 57.224079 
L 568.725801 58.366391 
L 569.239234 58.10278 
L 569.752668 58.454261 
L 570.266102 58.278521 
L 570.779536 58.805742 
L 571.29297 58.542131 
L 571.806404 57.92704 
L 572.319838 57.575559 
L 572.833272 58.981482 
L 573.346706 58.454261 
L 573.86014 56.960468 
L 574.373574 59.508703 
L 574.887008 57.92704 
L 575.400442 57.399819 
L 575.913876 60.387405 
L 576.42731 57.136208 
L 576.940743 59.420833 
L 577.454177 58.893612 
L 577.967611 57.224079 
L 578.481045 57.136208 
L 578.994479 59.420833 
L 579.507913 59.245092 
L 580.021347 58.01491 
L 580.534781 59.245092 
L 581.048215 55.554545 
L 581.561649 58.19065 
L 582.075083 58.981482 
L 582.588517 59.508703 
L 583.101951 59.508703 
L 584.128819 57.7513 
L 584.642252 56.081766 
L 585.155686 58.893612 
L 585.66912 58.454261 
L 586.182554 57.7513 
L 586.695988 57.575559 
L 587.209422 57.92704 
L 587.722856 59.245092 
L 588.23629 56.521117 
L 588.749724 58.454261 
L 589.263158 56.521117 
L 589.776592 58.630001 
L 590.290026 59.069352 
L 590.80346 56.169637 
L 591.316894 58.805742 
L 591.830328 57.399819 
L 592.343762 58.01491 
L 592.857195 56.696858 
L 593.370629 58.805742 
L 593.884063 55.818156 
L 594.397497 58.01491 
L 594.910931 57.7513 
L 595.424365 58.366391 
L 595.937799 56.608987 
L 596.964667 59.069352 
L 597.478101 56.608987 
L 597.991535 59.508703 
L 598.504969 58.630001 
L 599.018403 57.224079 
L 599.531837 58.10278 
L 600.045271 57.83917 
L 600.558704 58.630001 
L 601.072138 58.10278 
L 601.585572 58.542131 
L 602.099006 57.92704 
L 602.61244 56.784728 
L 603.125874 57.048338 
L 603.639308 56.081766 
L 604.152742 56.872598 
L 604.666176 56.696858 
L 605.17961 57.136208 
L 605.693044 58.893612 
L 606.206478 57.92704 
L 606.719912 58.19065 
L 607.233346 56.257507 
L 607.74678 58.717871 
L 608.260213 57.487689 
L 608.773647 57.136208 
L 609.287081 58.893612 
L 609.800515 57.048338 
L 610.313949 55.642416 
L 610.827383 57.92704 
L 611.340817 58.10278 
L 611.854251 57.311949 
L 612.367685 59.420833 
L 612.881119 56.960468 
L 613.394553 56.257507 
L 613.907987 57.83917 
L 614.421421 58.366391 
L 614.934855 57.399819 
L 615.448289 57.83917 
L 615.961722 60.211664 
L 616.475156 57.311949 
L 616.98859 57.399819 
L 617.502024 58.717871 
L 618.528892 57.83917 
L 619.042326 57.83917 
L 619.55576 57.048338 
L 620.582628 57.83917 
L 621.096062 56.257507 
L 621.609496 57.7513 
L 622.12293 56.784728 
L 622.636364 56.433247 
L 622.636364 56.433247 
" style="fill:none;stroke:#ff7f0e;stroke-linecap:square;stroke-width:0.5;"/>
   </g>
   <g id="patch_3">
    <path d="M 90 315 
L 90 43.2 
" style="fill:none;stroke:#000000;stroke-linecap:square;stroke-linejoin:miter;stroke-width:0.8;"/>
   </g>
   <g id="patch_4">
    <path d="M 648 315 
L 648 43.2 
" style="fill:none;stroke:#000000;stroke-linecap:square;stroke-linejoin:miter;stroke-width:0.8;"/>
   </g>
   <g id="patch_5">
    <path d="M 90 315 
L 648 315 
" style="fill:none;stroke:#000000;stroke-linecap:square;stroke-linejoin:miter;stroke-width:0.8;"/>
   </g>
   <g id="patch_6">
    <path d="M 90 43.2 
L 648 43.2 
" style="fill:none;stroke:#000000;stroke-linecap:square;stroke-linejoin:miter;stroke-width:0.8;"/>
   </g>
   <g id="text_16">
    <!-- accuracy -->
    <g transform="translate(341.92875 37.2)scale(0.12 -0.12)">
     <use xlink:href="#DejaVuSans-97"/>
     <use x="61.279297" xlink:href="#DejaVuSans-99"/>
     <use x="116.259766" xlink:href="#DejaVuSans-99"/>
     <use x="171.240234" xlink:href="#DejaVuSans-117"/>
     <use x="234.619141" xlink:href="#DejaVuSans-114"/>
     <use x="275.732422" xlink:href="#DejaVuSans-97"/>
     <use x="337.011719" xlink:href="#DejaVuSans-99"/>
     <use x="391.992188" xlink:href="#DejaVuSans-121"/>
    </g>
   </g>
   <g id="legend_1">
    <g id="patch_7">
     <path d="M 97 80.55625 
L 169.153125 80.55625 
Q 171.153125 80.55625 171.153125 78.55625 
L 171.153125 50.2 
Q 171.153125 48.2 169.153125 48.2 
L 97 48.2 
Q 95 48.2 95 50.2 
L 95 78.55625 
Q 95 80.55625 97 80.55625 
z
" style="fill:#ffffff;opacity:0.8;stroke:#cccccc;stroke-linejoin:miter;"/>
    </g>
    <g id="line2d_29">
     <path d="M 99 56.298437 
L 119 56.298437 
" style="fill:none;stroke:#1f77b4;stroke-linecap:square;stroke-width:0.5;"/>
    </g>
    <g id="line2d_30"/>
    <g id="text_17">
     <!-- train -->
     <defs>
      <path d="M 18.3125 70.21875 
L 18.3125 54.6875 
L 36.8125 54.6875 
L 36.8125 47.703125 
L 18.3125 47.703125 
L 18.3125 18.015625 
Q 18.3125 11.328125 20.140625 9.421875 
Q 21.96875 7.515625 27.59375 7.515625 
L 36.8125 7.515625 
L 36.8125 0 
L 27.59375 0 
Q 17.1875 0 13.234375 3.875 
Q 9.28125 7.765625 9.28125 18.015625 
L 9.28125 47.703125 
L 2.6875 47.703125 
L 2.6875 54.6875 
L 9.28125 54.6875 
L 9.28125 70.21875 
z
" id="DejaVuSans-116"/>
      <path d="M 9.421875 54.6875 
L 18.40625 54.6875 
L 18.40625 0 
L 9.421875 0 
z
M 9.421875 75.984375 
L 18.40625 75.984375 
L 18.40625 64.59375 
L 9.421875 64.59375 
z
" id="DejaVuSans-105"/>
      <path d="M 54.890625 33.015625 
L 54.890625 0 
L 45.90625 0 
L 45.90625 32.71875 
Q 45.90625 40.484375 42.875 44.328125 
Q 39.84375 48.1875 33.796875 48.1875 
Q 26.515625 48.1875 22.3125 43.546875 
Q 18.109375 38.921875 18.109375 30.90625 
L 18.109375 0 
L 9.078125 0 
L 9.078125 54.6875 
L 18.109375 54.6875 
L 18.109375 46.1875 
Q 21.34375 51.125 25.703125 53.5625 
Q 30.078125 56 35.796875 56 
Q 45.21875 56 50.046875 50.171875 
Q 54.890625 44.34375 54.890625 33.015625 
z
" id="DejaVuSans-110"/>
     </defs>
     <g transform="translate(127 59.798437)scale(0.1 -0.1)">
      <use xlink:href="#DejaVuSans-116"/>
      <use x="39.208984" xlink:href="#DejaVuSans-114"/>
      <use x="80.322266" xlink:href="#DejaVuSans-97"/>
      <use x="141.601562" xlink:href="#DejaVuSans-105"/>
      <use x="169.384766" xlink:href="#DejaVuSans-110"/>
     </g>
    </g>
    <g id="line2d_31">
     <path d="M 99 70.976562 
L 119 70.976562 
" style="fill:none;stroke:#ff7f0e;stroke-linecap:square;stroke-width:0.5;"/>
    </g>
    <g id="line2d_32"/>
    <g id="text_18">
     <!-- validate -->
     <defs>
      <path d="M 2.984375 54.6875 
L 12.5 54.6875 
L 29.59375 8.796875 
L 46.6875 54.6875 
L 56.203125 54.6875 
L 35.6875 0 
L 23.484375 0 
z
" id="DejaVuSans-118"/>
      <path d="M 9.421875 75.984375 
L 18.40625 75.984375 
L 18.40625 0 
L 9.421875 0 
z
" id="DejaVuSans-108"/>
      <path d="M 45.40625 46.390625 
L 45.40625 75.984375 
L 54.390625 75.984375 
L 54.390625 0 
L 45.40625 0 
L 45.40625 8.203125 
Q 42.578125 3.328125 38.25 0.953125 
Q 33.9375 -1.421875 27.875 -1.421875 
Q 17.96875 -1.421875 11.734375 6.484375 
Q 5.515625 14.40625 5.515625 27.296875 
Q 5.515625 40.1875 11.734375 48.09375 
Q 17.96875 56 27.875 56 
Q 33.9375 56 38.25 53.625 
Q 42.578125 51.265625 45.40625 46.390625 
z
M 14.796875 27.296875 
Q 14.796875 17.390625 18.875 11.75 
Q 22.953125 6.109375 30.078125 6.109375 
Q 37.203125 6.109375 41.296875 11.75 
Q 45.40625 17.390625 45.40625 27.296875 
Q 45.40625 37.203125 41.296875 42.84375 
Q 37.203125 48.484375 30.078125 48.484375 
Q 22.953125 48.484375 18.875 42.84375 
Q 14.796875 37.203125 14.796875 27.296875 
z
" id="DejaVuSans-100"/>
     </defs>
     <g transform="translate(127 74.476562)scale(0.1 -0.1)">
      <use xlink:href="#DejaVuSans-118"/>
      <use x="59.179688" xlink:href="#DejaVuSans-97"/>
      <use x="120.458984" xlink:href="#DejaVuSans-108"/>
      <use x="148.242188" xlink:href="#DejaVuSans-105"/>
      <use x="176.025391" xlink:href="#DejaVuSans-100"/>
      <use x="239.501953" xlink:href="#DejaVuSans-97"/>
      <use x="300.78125" xlink:href="#DejaVuSans-116"/>
      <use x="339.990234" xlink:href="#DejaVuSans-101"/>
     </g>
    </g>
   </g>
  </g>
 </g>
 <defs>
  <clipPath id="pd282b0836b">
   <rect height="271.8" width="558" x="90" y="43.2"/>
  </clipPath>
 </defs>
</svg>
