<?xml version="1.0" encoding="utf-8" standalone="no"?>
<!DOCTYPE svg PUBLIC "-//W3C//DTD SVG 1.1//EN"
  "http://www.w3.org/Graphics/SVG/1.1/DTD/svg11.dtd">
<!-- Created with matplotlib (https://matplotlib.org/) -->
<svg height="360pt" version="1.1" viewBox="0 0 720 360" width="720pt" xmlns="http://www.w3.org/2000/svg" xmlns:xlink="http://www.w3.org/1999/xlink">
 <defs>
  <style type="text/css">
*{stroke-linecap:butt;stroke-linejoin:round;}
  </style>
 </defs>
 <g id="figure_1">
  <g id="patch_1">
   <path d="M 0 360 
L 720 360 
L 720 0 
L 0 0 
z
" style="fill:#ffffff;"/>
  </g>
  <g id="axes_1">
   <g id="patch_2">
    <path d="M 90 315 
L 648 315 
L 648 43.2 
L 90 43.2 
z
" style="fill:#ffffff;"/>
   </g>
   <g id="matplotlib.axis_1">
    <g id="xtick_1">
     <g id="line2d_1">
      <path clip-path="url(#p196bb33d47)" d="M 115.363636 315 
L 115.363636 43.2 
" style="fill:none;stroke:#b0b0b0;stroke-linecap:square;stroke-width:0.8;"/>
     </g>
     <g id="line2d_2">
      <defs>
       <path d="M 0 0 
L 0 3.5 
" id="m1e748440b3" style="stroke:#000000;stroke-width:0.8;"/>
      </defs>
      <g>
       <use style="stroke:#000000;stroke-width:0.8;" x="115.363636" xlink:href="#m1e748440b3" y="315"/>
      </g>
     </g>
     <g id="text_1">
      <!-- 0 -->
      <defs>
       <path d="M 31.78125 66.40625 
Q 24.171875 66.40625 20.328125 58.90625 
Q 16.5 51.421875 16.5 36.375 
Q 16.5 21.390625 20.328125 13.890625 
Q 24.171875 6.390625 31.78125 6.390625 
Q 39.453125 6.390625 43.28125 13.890625 
Q 47.125 21.390625 47.125 36.375 
Q 47.125 51.421875 43.28125 58.90625 
Q 39.453125 66.40625 31.78125 66.40625 
z
M 31.78125 74.21875 
Q 44.046875 74.21875 50.515625 64.515625 
Q 56.984375 54.828125 56.984375 36.375 
Q 56.984375 17.96875 50.515625 8.265625 
Q 44.046875 -1.421875 31.78125 -1.421875 
Q 19.53125 -1.421875 13.0625 8.265625 
Q 6.59375 17.96875 6.59375 36.375 
Q 6.59375 54.828125 13.0625 64.515625 
Q 19.53125 74.21875 31.78125 74.21875 
z
" id="DejaVuSans-48"/>
      </defs>
      <g transform="translate(112.182386 329.598437)scale(0.1 -0.1)">
       <use xlink:href="#DejaVuSans-48"/>
      </g>
     </g>
    </g>
    <g id="xtick_2">
     <g id="line2d_3">
      <path clip-path="url(#p196bb33d47)" d="M 192.106863 315 
L 192.106863 43.2 
" style="fill:none;stroke:#b0b0b0;stroke-linecap:square;stroke-width:0.8;"/>
     </g>
     <g id="line2d_4">
      <g>
       <use style="stroke:#000000;stroke-width:0.8;" x="192.106863" xlink:href="#m1e748440b3" y="315"/>
      </g>
     </g>
     <g id="text_2">
      <!-- 100 -->
      <defs>
       <path d="M 12.40625 8.296875 
L 28.515625 8.296875 
L 28.515625 63.921875 
L 10.984375 60.40625 
L 10.984375 69.390625 
L 28.421875 72.90625 
L 38.28125 72.90625 
L 38.28125 8.296875 
L 54.390625 8.296875 
L 54.390625 0 
L 12.40625 0 
z
" id="DejaVuSans-49"/>
      </defs>
      <g transform="translate(182.563113 329.598437)scale(0.1 -0.1)">
       <use xlink:href="#DejaVuSans-49"/>
       <use x="63.623047" xlink:href="#DejaVuSans-48"/>
       <use x="127.246094" xlink:href="#DejaVuSans-48"/>
      </g>
     </g>
    </g>
    <g id="xtick_3">
     <g id="line2d_5">
      <path clip-path="url(#p196bb33d47)" d="M 268.850089 315 
L 268.850089 43.2 
" style="fill:none;stroke:#b0b0b0;stroke-linecap:square;stroke-width:0.8;"/>
     </g>
     <g id="line2d_6">
      <g>
       <use style="stroke:#000000;stroke-width:0.8;" x="268.850089" xlink:href="#m1e748440b3" y="315"/>
      </g>
     </g>
     <g id="text_3">
      <!-- 200 -->
      <defs>
       <path d="M 19.1875 8.296875 
L 53.609375 8.296875 
L 53.609375 0 
L 7.328125 0 
L 7.328125 8.296875 
Q 12.9375 14.109375 22.625 23.890625 
Q 32.328125 33.6875 34.8125 36.53125 
Q 39.546875 41.84375 41.421875 45.53125 
Q 43.3125 49.21875 43.3125 52.78125 
Q 43.3125 58.59375 39.234375 62.25 
Q 35.15625 65.921875 28.609375 65.921875 
Q 23.96875 65.921875 18.8125 64.3125 
Q 13.671875 62.703125 7.8125 59.421875 
L 7.8125 69.390625 
Q 13.765625 71.78125 18.9375 73 
Q 24.125 74.21875 28.421875 74.21875 
Q 39.75 74.21875 46.484375 68.546875 
Q 53.21875 62.890625 53.21875 53.421875 
Q 53.21875 48.921875 51.53125 44.890625 
Q 49.859375 40.875 45.40625 35.40625 
Q 44.1875 33.984375 37.640625 27.21875 
Q 31.109375 20.453125 19.1875 8.296875 
z
" id="DejaVuSans-50"/>
      </defs>
      <g transform="translate(259.306339 329.598437)scale(0.1 -0.1)">
       <use xlink:href="#DejaVuSans-50"/>
       <use x="63.623047" xlink:href="#DejaVuSans-48"/>
       <use x="127.246094" xlink:href="#DejaVuSans-48"/>
      </g>
     </g>
    </g>
    <g id="xtick_4">
     <g id="line2d_7">
      <path clip-path="url(#p196bb33d47)" d="M 345.593316 315 
L 345.593316 43.2 
" style="fill:none;stroke:#b0b0b0;stroke-linecap:square;stroke-width:0.8;"/>
     </g>
     <g id="line2d_8">
      <g>
       <use style="stroke:#000000;stroke-width:0.8;" x="345.593316" xlink:href="#m1e748440b3" y="315"/>
      </g>
     </g>
     <g id="text_4">
      <!-- 300 -->
      <defs>
       <path d="M 40.578125 39.3125 
Q 47.65625 37.796875 51.625 33 
Q 55.609375 28.21875 55.609375 21.1875 
Q 55.609375 10.40625 48.1875 4.484375 
Q 40.765625 -1.421875 27.09375 -1.421875 
Q 22.515625 -1.421875 17.65625 -0.515625 
Q 12.796875 0.390625 7.625 2.203125 
L 7.625 11.71875 
Q 11.71875 9.328125 16.59375 8.109375 
Q 21.484375 6.890625 26.8125 6.890625 
Q 36.078125 6.890625 40.9375 10.546875 
Q 45.796875 14.203125 45.796875 21.1875 
Q 45.796875 27.640625 41.28125 31.265625 
Q 36.765625 34.90625 28.71875 34.90625 
L 20.21875 34.90625 
L 20.21875 43.015625 
L 29.109375 43.015625 
Q 36.375 43.015625 40.234375 45.921875 
Q 44.09375 48.828125 44.09375 54.296875 
Q 44.09375 59.90625 40.109375 62.90625 
Q 36.140625 65.921875 28.71875 65.921875 
Q 24.65625 65.921875 20.015625 65.03125 
Q 15.375 64.15625 9.8125 62.3125 
L 9.8125 71.09375 
Q 15.4375 72.65625 20.34375 73.4375 
Q 25.25 74.21875 29.59375 74.21875 
Q 40.828125 74.21875 47.359375 69.109375 
Q 53.90625 64.015625 53.90625 55.328125 
Q 53.90625 49.265625 50.4375 45.09375 
Q 46.96875 40.921875 40.578125 39.3125 
z
" id="DejaVuSans-51"/>
      </defs>
      <g transform="translate(336.049566 329.598437)scale(0.1 -0.1)">
       <use xlink:href="#DejaVuSans-51"/>
       <use x="63.623047" xlink:href="#DejaVuSans-48"/>
       <use x="127.246094" xlink:href="#DejaVuSans-48"/>
      </g>
     </g>
    </g>
    <g id="xtick_5">
     <g id="line2d_9">
      <path clip-path="url(#p196bb33d47)" d="M 422.336542 315 
L 422.336542 43.2 
" style="fill:none;stroke:#b0b0b0;stroke-linecap:square;stroke-width:0.8;"/>
     </g>
     <g id="line2d_10">
      <g>
       <use style="stroke:#000000;stroke-width:0.8;" x="422.336542" xlink:href="#m1e748440b3" y="315"/>
      </g>
     </g>
     <g id="text_5">
      <!-- 400 -->
      <defs>
       <path d="M 37.796875 64.3125 
L 12.890625 25.390625 
L 37.796875 25.390625 
z
M 35.203125 72.90625 
L 47.609375 72.90625 
L 47.609375 25.390625 
L 58.015625 25.390625 
L 58.015625 17.1875 
L 47.609375 17.1875 
L 47.609375 0 
L 37.796875 0 
L 37.796875 17.1875 
L 4.890625 17.1875 
L 4.890625 26.703125 
z
" id="DejaVuSans-52"/>
      </defs>
      <g transform="translate(412.792792 329.598437)scale(0.1 -0.1)">
       <use xlink:href="#DejaVuSans-52"/>
       <use x="63.623047" xlink:href="#DejaVuSans-48"/>
       <use x="127.246094" xlink:href="#DejaVuSans-48"/>
      </g>
     </g>
    </g>
    <g id="xtick_6">
     <g id="line2d_11">
      <path clip-path="url(#p196bb33d47)" d="M 499.079769 315 
L 499.079769 43.2 
" style="fill:none;stroke:#b0b0b0;stroke-linecap:square;stroke-width:0.8;"/>
     </g>
     <g id="line2d_12">
      <g>
       <use style="stroke:#000000;stroke-width:0.8;" x="499.079769" xlink:href="#m1e748440b3" y="315"/>
      </g>
     </g>
     <g id="text_6">
      <!-- 500 -->
      <defs>
       <path d="M 10.796875 72.90625 
L 49.515625 72.90625 
L 49.515625 64.59375 
L 19.828125 64.59375 
L 19.828125 46.734375 
Q 21.96875 47.46875 24.109375 47.828125 
Q 26.265625 48.1875 28.421875 48.1875 
Q 40.625 48.1875 47.75 41.5 
Q 54.890625 34.8125 54.890625 23.390625 
Q 54.890625 11.625 47.5625 5.09375 
Q 40.234375 -1.421875 26.90625 -1.421875 
Q 22.3125 -1.421875 17.546875 -0.640625 
Q 12.796875 0.140625 7.71875 1.703125 
L 7.71875 11.625 
Q 12.109375 9.234375 16.796875 8.0625 
Q 21.484375 6.890625 26.703125 6.890625 
Q 35.15625 6.890625 40.078125 11.328125 
Q 45.015625 15.765625 45.015625 23.390625 
Q 45.015625 31 40.078125 35.4375 
Q 35.15625 39.890625 26.703125 39.890625 
Q 22.75 39.890625 18.8125 39.015625 
Q 14.890625 38.140625 10.796875 36.28125 
z
" id="DejaVuSans-53"/>
      </defs>
      <g transform="translate(489.536019 329.598437)scale(0.1 -0.1)">
       <use xlink:href="#DejaVuSans-53"/>
       <use x="63.623047" xlink:href="#DejaVuSans-48"/>
       <use x="127.246094" xlink:href="#DejaVuSans-48"/>
      </g>
     </g>
    </g>
    <g id="xtick_7">
     <g id="line2d_13">
      <path clip-path="url(#p196bb33d47)" d="M 575.822995 315 
L 575.822995 43.2 
" style="fill:none;stroke:#b0b0b0;stroke-linecap:square;stroke-width:0.8;"/>
     </g>
     <g id="line2d_14">
      <g>
       <use style="stroke:#000000;stroke-width:0.8;" x="575.822995" xlink:href="#m1e748440b3" y="315"/>
      </g>
     </g>
     <g id="text_7">
      <!-- 600 -->
      <defs>
       <path d="M 33.015625 40.375 
Q 26.375 40.375 22.484375 35.828125 
Q 18.609375 31.296875 18.609375 23.390625 
Q 18.609375 15.53125 22.484375 10.953125 
Q 26.375 6.390625 33.015625 6.390625 
Q 39.65625 6.390625 43.53125 10.953125 
Q 47.40625 15.53125 47.40625 23.390625 
Q 47.40625 31.296875 43.53125 35.828125 
Q 39.65625 40.375 33.015625 40.375 
z
M 52.59375 71.296875 
L 52.59375 62.3125 
Q 48.875 64.0625 45.09375 64.984375 
Q 41.3125 65.921875 37.59375 65.921875 
Q 27.828125 65.921875 22.671875 59.328125 
Q 17.53125 52.734375 16.796875 39.40625 
Q 19.671875 43.65625 24.015625 45.921875 
Q 28.375 48.1875 33.59375 48.1875 
Q 44.578125 48.1875 50.953125 41.515625 
Q 57.328125 34.859375 57.328125 23.390625 
Q 57.328125 12.15625 50.6875 5.359375 
Q 44.046875 -1.421875 33.015625 -1.421875 
Q 20.359375 -1.421875 13.671875 8.265625 
Q 6.984375 17.96875 6.984375 36.375 
Q 6.984375 53.65625 15.1875 63.9375 
Q 23.390625 74.21875 37.203125 74.21875 
Q 40.921875 74.21875 44.703125 73.484375 
Q 48.484375 72.75 52.59375 71.296875 
z
" id="DejaVuSans-54"/>
      </defs>
      <g transform="translate(566.279245 329.598437)scale(0.1 -0.1)">
       <use xlink:href="#DejaVuSans-54"/>
       <use x="63.623047" xlink:href="#DejaVuSans-48"/>
       <use x="127.246094" xlink:href="#DejaVuSans-48"/>
      </g>
     </g>
    </g>
    <g id="text_8">
     <!-- epoch -->
     <defs>
      <path d="M 56.203125 29.59375 
L 56.203125 25.203125 
L 14.890625 25.203125 
Q 15.484375 15.921875 20.484375 11.0625 
Q 25.484375 6.203125 34.421875 6.203125 
Q 39.59375 6.203125 44.453125 7.46875 
Q 49.3125 8.734375 54.109375 11.28125 
L 54.109375 2.78125 
Q 49.265625 0.734375 44.1875 -0.34375 
Q 39.109375 -1.421875 33.890625 -1.421875 
Q 20.796875 -1.421875 13.15625 6.1875 
Q 5.515625 13.8125 5.515625 26.8125 
Q 5.515625 40.234375 12.765625 48.109375 
Q 20.015625 56 32.328125 56 
Q 43.359375 56 49.78125 48.890625 
Q 56.203125 41.796875 56.203125 29.59375 
z
M 47.21875 32.234375 
Q 47.125 39.59375 43.09375 43.984375 
Q 39.0625 48.390625 32.421875 48.390625 
Q 24.90625 48.390625 20.390625 44.140625 
Q 15.875 39.890625 15.1875 32.171875 
z
" id="DejaVuSans-101"/>
      <path d="M 18.109375 8.203125 
L 18.109375 -20.796875 
L 9.078125 -20.796875 
L 9.078125 54.6875 
L 18.109375 54.6875 
L 18.109375 46.390625 
Q 20.953125 51.265625 25.265625 53.625 
Q 29.59375 56 35.59375 56 
Q 45.5625 56 51.78125 48.09375 
Q 58.015625 40.1875 58.015625 27.296875 
Q 58.015625 14.40625 51.78125 6.484375 
Q 45.5625 -1.421875 35.59375 -1.421875 
Q 29.59375 -1.421875 25.265625 0.953125 
Q 20.953125 3.328125 18.109375 8.203125 
z
M 48.6875 27.296875 
Q 48.6875 37.203125 44.609375 42.84375 
Q 40.53125 48.484375 33.40625 48.484375 
Q 26.265625 48.484375 22.1875 42.84375 
Q 18.109375 37.203125 18.109375 27.296875 
Q 18.109375 17.390625 22.1875 11.75 
Q 26.265625 6.109375 33.40625 6.109375 
Q 40.53125 6.109375 44.609375 11.75 
Q 48.6875 17.390625 48.6875 27.296875 
z
" id="DejaVuSans-112"/>
      <path d="M 30.609375 48.390625 
Q 23.390625 48.390625 19.1875 42.75 
Q 14.984375 37.109375 14.984375 27.296875 
Q 14.984375 17.484375 19.15625 11.84375 
Q 23.34375 6.203125 30.609375 6.203125 
Q 37.796875 6.203125 41.984375 11.859375 
Q 46.1875 17.53125 46.1875 27.296875 
Q 46.1875 37.015625 41.984375 42.703125 
Q 37.796875 48.390625 30.609375 48.390625 
z
M 30.609375 56 
Q 42.328125 56 49.015625 48.375 
Q 55.71875 40.765625 55.71875 27.296875 
Q 55.71875 13.875 49.015625 6.21875 
Q 42.328125 -1.421875 30.609375 -1.421875 
Q 18.84375 -1.421875 12.171875 6.21875 
Q 5.515625 13.875 5.515625 27.296875 
Q 5.515625 40.765625 12.171875 48.375 
Q 18.84375 56 30.609375 56 
z
" id="DejaVuSans-111"/>
      <path d="M 48.78125 52.59375 
L 48.78125 44.1875 
Q 44.96875 46.296875 41.140625 47.34375 
Q 37.3125 48.390625 33.40625 48.390625 
Q 24.65625 48.390625 19.8125 42.84375 
Q 14.984375 37.3125 14.984375 27.296875 
Q 14.984375 17.28125 19.8125 11.734375 
Q 24.65625 6.203125 33.40625 6.203125 
Q 37.3125 6.203125 41.140625 7.25 
Q 44.96875 8.296875 48.78125 10.40625 
L 48.78125 2.09375 
Q 45.015625 0.34375 40.984375 -0.53125 
Q 36.96875 -1.421875 32.421875 -1.421875 
Q 20.0625 -1.421875 12.78125 6.34375 
Q 5.515625 14.109375 5.515625 27.296875 
Q 5.515625 40.671875 12.859375 48.328125 
Q 20.21875 56 33.015625 56 
Q 37.15625 56 41.109375 55.140625 
Q 45.0625 54.296875 48.78125 52.59375 
z
" id="DejaVuSans-99"/>
      <path d="M 54.890625 33.015625 
L 54.890625 0 
L 45.90625 0 
L 45.90625 32.71875 
Q 45.90625 40.484375 42.875 44.328125 
Q 39.84375 48.1875 33.796875 48.1875 
Q 26.515625 48.1875 22.3125 43.546875 
Q 18.109375 38.921875 18.109375 30.90625 
L 18.109375 0 
L 9.078125 0 
L 9.078125 75.984375 
L 18.109375 75.984375 
L 18.109375 46.1875 
Q 21.34375 51.125 25.703125 53.5625 
Q 30.078125 56 35.796875 56 
Q 45.21875 56 50.046875 50.171875 
Q 54.890625 44.34375 54.890625 33.015625 
z
" id="DejaVuSans-104"/>
     </defs>
     <g transform="translate(353.771875 343.276563)scale(0.1 -0.1)">
      <use xlink:href="#DejaVuSans-101"/>
      <use x="61.523438" xlink:href="#DejaVuSans-112"/>
      <use x="125" xlink:href="#DejaVuSans-111"/>
      <use x="186.181641" xlink:href="#DejaVuSans-99"/>
      <use x="241.162109" xlink:href="#DejaVuSans-104"/>
     </g>
    </g>
   </g>
   <g id="matplotlib.axis_2">
    <g id="ytick_1">
     <g id="line2d_15">
      <path clip-path="url(#p196bb33d47)" d="M 90 283.729404 
L 648 283.729404 
" style="fill:none;stroke:#b0b0b0;stroke-linecap:square;stroke-width:0.8;"/>
     </g>
     <g id="line2d_16">
      <defs>
       <path d="M 0 0 
L -3.5 0 
" id="m3e11bb1d41" style="stroke:#000000;stroke-width:0.8;"/>
      </defs>
      <g>
       <use style="stroke:#000000;stroke-width:0.8;" x="90" xlink:href="#m3e11bb1d41" y="283.729404"/>
      </g>
     </g>
     <g id="text_9">
      <!-- 0.3 -->
      <defs>
       <path d="M 10.6875 12.40625 
L 21 12.40625 
L 21 0 
L 10.6875 0 
z
" id="DejaVuSans-46"/>
      </defs>
      <g transform="translate(67.096875 287.528623)scale(0.1 -0.1)">
       <use xlink:href="#DejaVuSans-48"/>
       <use x="63.623047" xlink:href="#DejaVuSans-46"/>
       <use x="95.410156" xlink:href="#DejaVuSans-51"/>
      </g>
     </g>
    </g>
    <g id="ytick_2">
     <g id="line2d_17">
      <path clip-path="url(#p196bb33d47)" d="M 90 247.352384 
L 648 247.352384 
" style="fill:none;stroke:#b0b0b0;stroke-linecap:square;stroke-width:0.8;"/>
     </g>
     <g id="line2d_18">
      <g>
       <use style="stroke:#000000;stroke-width:0.8;" x="90" xlink:href="#m3e11bb1d41" y="247.352384"/>
      </g>
     </g>
     <g id="text_10">
      <!-- 0.4 -->
      <g transform="translate(67.096875 251.151603)scale(0.1 -0.1)">
       <use xlink:href="#DejaVuSans-48"/>
       <use x="63.623047" xlink:href="#DejaVuSans-46"/>
       <use x="95.410156" xlink:href="#DejaVuSans-52"/>
      </g>
     </g>
    </g>
    <g id="ytick_3">
     <g id="line2d_19">
      <path clip-path="url(#p196bb33d47)" d="M 90 210.975364 
L 648 210.975364 
" style="fill:none;stroke:#b0b0b0;stroke-linecap:square;stroke-width:0.8;"/>
     </g>
     <g id="line2d_20">
      <g>
       <use style="stroke:#000000;stroke-width:0.8;" x="90" xlink:href="#m3e11bb1d41" y="210.975364"/>
      </g>
     </g>
     <g id="text_11">
      <!-- 0.5 -->
      <g transform="translate(67.096875 214.774583)scale(0.1 -0.1)">
       <use xlink:href="#DejaVuSans-48"/>
       <use x="63.623047" xlink:href="#DejaVuSans-46"/>
       <use x="95.410156" xlink:href="#DejaVuSans-53"/>
      </g>
     </g>
    </g>
    <g id="ytick_4">
     <g id="line2d_21">
      <path clip-path="url(#p196bb33d47)" d="M 90 174.598344 
L 648 174.598344 
" style="fill:none;stroke:#b0b0b0;stroke-linecap:square;stroke-width:0.8;"/>
     </g>
     <g id="line2d_22">
      <g>
       <use style="stroke:#000000;stroke-width:0.8;" x="90" xlink:href="#m3e11bb1d41" y="174.598344"/>
      </g>
     </g>
     <g id="text_12">
      <!-- 0.6 -->
      <g transform="translate(67.096875 178.397563)scale(0.1 -0.1)">
       <use xlink:href="#DejaVuSans-48"/>
       <use x="63.623047" xlink:href="#DejaVuSans-46"/>
       <use x="95.410156" xlink:href="#DejaVuSans-54"/>
      </g>
     </g>
    </g>
    <g id="ytick_5">
     <g id="line2d_23">
      <path clip-path="url(#p196bb33d47)" d="M 90 138.221324 
L 648 138.221324 
" style="fill:none;stroke:#b0b0b0;stroke-linecap:square;stroke-width:0.8;"/>
     </g>
     <g id="line2d_24">
      <g>
       <use style="stroke:#000000;stroke-width:0.8;" x="90" xlink:href="#m3e11bb1d41" y="138.221324"/>
      </g>
     </g>
     <g id="text_13">
      <!-- 0.7 -->
      <defs>
       <path d="M 8.203125 72.90625 
L 55.078125 72.90625 
L 55.078125 68.703125 
L 28.609375 0 
L 18.3125 0 
L 43.21875 64.59375 
L 8.203125 64.59375 
z
" id="DejaVuSans-55"/>
      </defs>
      <g transform="translate(67.096875 142.020542)scale(0.1 -0.1)">
       <use xlink:href="#DejaVuSans-48"/>
       <use x="63.623047" xlink:href="#DejaVuSans-46"/>
       <use x="95.410156" xlink:href="#DejaVuSans-55"/>
      </g>
     </g>
    </g>
    <g id="ytick_6">
     <g id="line2d_25">
      <path clip-path="url(#p196bb33d47)" d="M 90 101.844304 
L 648 101.844304 
" style="fill:none;stroke:#b0b0b0;stroke-linecap:square;stroke-width:0.8;"/>
     </g>
     <g id="line2d_26">
      <g>
       <use style="stroke:#000000;stroke-width:0.8;" x="90" xlink:href="#m3e11bb1d41" y="101.844304"/>
      </g>
     </g>
     <g id="text_14">
      <!-- 0.8 -->
      <defs>
       <path d="M 31.78125 34.625 
Q 24.75 34.625 20.71875 30.859375 
Q 16.703125 27.09375 16.703125 20.515625 
Q 16.703125 13.921875 20.71875 10.15625 
Q 24.75 6.390625 31.78125 6.390625 
Q 38.8125 6.390625 42.859375 10.171875 
Q 46.921875 13.96875 46.921875 20.515625 
Q 46.921875 27.09375 42.890625 30.859375 
Q 38.875 34.625 31.78125 34.625 
z
M 21.921875 38.8125 
Q 15.578125 40.375 12.03125 44.71875 
Q 8.5 49.078125 8.5 55.328125 
Q 8.5 64.0625 14.71875 69.140625 
Q 20.953125 74.21875 31.78125 74.21875 
Q 42.671875 74.21875 48.875 69.140625 
Q 55.078125 64.0625 55.078125 55.328125 
Q 55.078125 49.078125 51.53125 44.71875 
Q 48 40.375 41.703125 38.8125 
Q 48.828125 37.15625 52.796875 32.3125 
Q 56.78125 27.484375 56.78125 20.515625 
Q 56.78125 9.90625 50.3125 4.234375 
Q 43.84375 -1.421875 31.78125 -1.421875 
Q 19.734375 -1.421875 13.25 4.234375 
Q 6.78125 9.90625 6.78125 20.515625 
Q 6.78125 27.484375 10.78125 32.3125 
Q 14.796875 37.15625 21.921875 38.8125 
z
M 18.3125 54.390625 
Q 18.3125 48.734375 21.84375 45.5625 
Q 25.390625 42.390625 31.78125 42.390625 
Q 38.140625 42.390625 41.71875 45.5625 
Q 45.3125 48.734375 45.3125 54.390625 
Q 45.3125 60.0625 41.71875 63.234375 
Q 38.140625 66.40625 31.78125 66.40625 
Q 25.390625 66.40625 21.84375 63.234375 
Q 18.3125 60.0625 18.3125 54.390625 
z
" id="DejaVuSans-56"/>
      </defs>
      <g transform="translate(67.096875 105.643522)scale(0.1 -0.1)">
       <use xlink:href="#DejaVuSans-48"/>
       <use x="63.623047" xlink:href="#DejaVuSans-46"/>
       <use x="95.410156" xlink:href="#DejaVuSans-56"/>
      </g>
     </g>
    </g>
    <g id="ytick_7">
     <g id="line2d_27">
      <path clip-path="url(#p196bb33d47)" d="M 90 65.467283 
L 648 65.467283 
" style="fill:none;stroke:#b0b0b0;stroke-linecap:square;stroke-width:0.8;"/>
     </g>
     <g id="line2d_28">
      <g>
       <use style="stroke:#000000;stroke-width:0.8;" x="90" xlink:href="#m3e11bb1d41" y="65.467283"/>
      </g>
     </g>
     <g id="text_15">
      <!-- 0.9 -->
      <defs>
       <path d="M 10.984375 1.515625 
L 10.984375 10.5 
Q 14.703125 8.734375 18.5 7.8125 
Q 22.3125 6.890625 25.984375 6.890625 
Q 35.75 6.890625 40.890625 13.453125 
Q 46.046875 20.015625 46.78125 33.40625 
Q 43.953125 29.203125 39.59375 26.953125 
Q 35.25 24.703125 29.984375 24.703125 
Q 19.046875 24.703125 12.671875 31.3125 
Q 6.296875 37.9375 6.296875 49.421875 
Q 6.296875 60.640625 12.9375 67.421875 
Q 19.578125 74.21875 30.609375 74.21875 
Q 43.265625 74.21875 49.921875 64.515625 
Q 56.59375 54.828125 56.59375 36.375 
Q 56.59375 19.140625 48.40625 8.859375 
Q 40.234375 -1.421875 26.421875 -1.421875 
Q 22.703125 -1.421875 18.890625 -0.6875 
Q 15.09375 0.046875 10.984375 1.515625 
z
M 30.609375 32.421875 
Q 37.25 32.421875 41.125 36.953125 
Q 45.015625 41.5 45.015625 49.421875 
Q 45.015625 57.28125 41.125 61.84375 
Q 37.25 66.40625 30.609375 66.40625 
Q 23.96875 66.40625 20.09375 61.84375 
Q 16.21875 57.28125 16.21875 49.421875 
Q 16.21875 41.5 20.09375 36.953125 
Q 23.96875 32.421875 30.609375 32.421875 
z
" id="DejaVuSans-57"/>
      </defs>
      <g transform="translate(67.096875 69.266502)scale(0.1 -0.1)">
       <use xlink:href="#DejaVuSans-48"/>
       <use x="63.623047" xlink:href="#DejaVuSans-46"/>
       <use x="95.410156" xlink:href="#DejaVuSans-57"/>
      </g>
     </g>
    </g>
    <g id="text_16">
     <!-- accuracy -->
     <defs>
      <path d="M 34.28125 27.484375 
Q 23.390625 27.484375 19.1875 25 
Q 14.984375 22.515625 14.984375 16.5 
Q 14.984375 11.71875 18.140625 8.90625 
Q 21.296875 6.109375 26.703125 6.109375 
Q 34.1875 6.109375 38.703125 11.40625 
Q 43.21875 16.703125 43.21875 25.484375 
L 43.21875 27.484375 
z
M 52.203125 31.203125 
L 52.203125 0 
L 43.21875 0 
L 43.21875 8.296875 
Q 40.140625 3.328125 35.546875 0.953125 
Q 30.953125 -1.421875 24.3125 -1.421875 
Q 15.921875 -1.421875 10.953125 3.296875 
Q 6 8.015625 6 15.921875 
Q 6 25.140625 12.171875 29.828125 
Q 18.359375 34.515625 30.609375 34.515625 
L 43.21875 34.515625 
L 43.21875 35.40625 
Q 43.21875 41.609375 39.140625 45 
Q 35.0625 48.390625 27.6875 48.390625 
Q 23 48.390625 18.546875 47.265625 
Q 14.109375 46.140625 10.015625 43.890625 
L 10.015625 52.203125 
Q 14.9375 54.109375 19.578125 55.046875 
Q 24.21875 56 28.609375 56 
Q 40.484375 56 46.34375 49.84375 
Q 52.203125 43.703125 52.203125 31.203125 
z
" id="DejaVuSans-97"/>
      <path d="M 8.5 21.578125 
L 8.5 54.6875 
L 17.484375 54.6875 
L 17.484375 21.921875 
Q 17.484375 14.15625 20.5 10.265625 
Q 23.53125 6.390625 29.59375 6.390625 
Q 36.859375 6.390625 41.078125 11.03125 
Q 45.3125 15.671875 45.3125 23.6875 
L 45.3125 54.6875 
L 54.296875 54.6875 
L 54.296875 0 
L 45.3125 0 
L 45.3125 8.40625 
Q 42.046875 3.421875 37.71875 1 
Q 33.40625 -1.421875 27.6875 -1.421875 
Q 18.265625 -1.421875 13.375 4.4375 
Q 8.5 10.296875 8.5 21.578125 
z
M 31.109375 56 
z
" id="DejaVuSans-117"/>
      <path d="M 41.109375 46.296875 
Q 39.59375 47.171875 37.8125 47.578125 
Q 36.03125 48 33.890625 48 
Q 26.265625 48 22.1875 43.046875 
Q 18.109375 38.09375 18.109375 28.8125 
L 18.109375 0 
L 9.078125 0 
L 9.078125 54.6875 
L 18.109375 54.6875 
L 18.109375 46.1875 
Q 20.953125 51.171875 25.484375 53.578125 
Q 30.03125 56 36.53125 56 
Q 37.453125 56 38.578125 55.875 
Q 39.703125 55.765625 41.0625 55.515625 
z
" id="DejaVuSans-114"/>
      <path d="M 32.171875 -5.078125 
Q 28.375 -14.84375 24.75 -17.8125 
Q 21.140625 -20.796875 15.09375 -20.796875 
L 7.90625 -20.796875 
L 7.90625 -13.28125 
L 13.1875 -13.28125 
Q 16.890625 -13.28125 18.9375 -11.515625 
Q 21 -9.765625 23.484375 -3.21875 
L 25.09375 0.875 
L 2.984375 54.6875 
L 12.5 54.6875 
L 29.59375 11.921875 
L 46.6875 54.6875 
L 56.203125 54.6875 
z
" id="DejaVuSans-121"/>
     </defs>
     <g transform="translate(61.017187 201.659375)rotate(-90)scale(0.1 -0.1)">
      <use xlink:href="#DejaVuSans-97"/>
      <use x="61.279297" xlink:href="#DejaVuSans-99"/>
      <use x="116.259766" xlink:href="#DejaVuSans-99"/>
      <use x="171.240234" xlink:href="#DejaVuSans-117"/>
      <use x="234.619141" xlink:href="#DejaVuSans-114"/>
      <use x="275.732422" xlink:href="#DejaVuSans-97"/>
      <use x="337.011719" xlink:href="#DejaVuSans-99"/>
      <use x="391.992188" xlink:href="#DejaVuSans-121"/>
     </g>
    </g>
   </g>
   <g id="line2d_29">
    <path clip-path="url(#p196bb33d47)" d="M 115.363636 302.645455 
L 116.131069 298.462097 
L 116.898501 291.732349 
L 117.665933 292.550831 
L 118.433365 287.821819 
L 119.200798 279.727932 
L 119.96823 281.910553 
L 120.735662 276.181172 
L 121.503094 274.180436 
L 122.270527 271.270275 
L 123.037959 270.088022 
L 123.805391 268.178228 
L 124.572824 263.903928 
L 125.340256 265.086181 
L 126.107688 257.356065 
L 127.642553 250.171603 
L 128.409985 244.078452 
L 129.177417 247.807097 
L 129.944849 243.805625 
L 130.712282 235.347967 
L 131.479714 240.258865 
L 132.247146 232.074036 
L 133.014578 227.890678 
L 133.782011 221.797527 
L 134.549443 224.071091 
L 135.316875 217.97794 
L 136.084308 213.430813 
L 136.85174 211.066306 
L 137.619172 205.064098 
L 138.386604 204.79127 
L 139.154037 197.061154 
L 139.921469 196.879269 
L 140.688901 194.514762 
L 141.456333 183.692599 
L 142.223766 183.237886 
L 142.991198 180.50961 
L 143.75863 178.599816 
L 144.526062 173.325148 
L 145.293495 170.778757 
L 146.060927 166.049744 
L 146.828359 163.503353 
L 147.595792 165.049376 
L 148.363224 163.77618 
L 149.130656 159.410938 
L 149.898088 154.045327 
L 150.665521 154.772868 
L 151.432953 153.681557 
L 152.200385 150.953281 
L 152.967817 150.953281 
L 153.73525 143.677877 
L 154.502682 142.586566 
L 155.270114 144.314475 
L 156.037546 145.042015 
L 156.804979 137.03907 
L 157.572411 139.585462 
L 158.339843 140.040175 
L 159.107275 137.766611 
L 159.874708 134.947392 
L 160.64214 135.038334 
L 162.177005 129.581781 
L 162.944437 131.218747 
L 163.711869 129.945552 
L 164.479301 131.127805 
L 165.246734 128.490471 
L 166.014166 128.126701 
L 166.781598 126.216907 
L 167.54903 126.30785 
L 168.316463 125.034654 
L 169.083895 122.03355 
L 169.851327 121.578837 
L 170.618759 122.942975 
L 171.386192 121.396952 
L 172.153624 120.487526 
L 172.921056 120.123756 
L 174.455921 118.941503 
L 175.223353 116.213226 
L 175.990785 119.941871 
L 176.758218 118.032077 
L 177.52565 117.850192 
L 178.293082 116.576997 
L 179.060514 113.303065 
L 179.827947 116.667939 
L 180.595379 112.575524 
L 181.362811 110.756673 
L 182.130243 113.666835 
L 182.897676 109.756305 
L 183.665108 111.211386 
L 184.43254 107.937454 
L 185.199972 110.029133 
L 185.967405 109.847248 
L 186.734837 109.938191 
L 187.502269 105.482006 
L 188.269702 106.664259 
L 189.037134 109.028765 
L 189.804566 104.845408 
L 190.571998 107.846512 
L 191.339431 108.84688 
L 192.106863 106.118603 
L 192.874295 105.027293 
L 193.641727 103.572212 
L 194.40916 101.844304 
L 195.176592 106.755201 
L 195.944024 100.66205 
L 196.711456 103.572212 
L 197.478889 101.662418 
L 198.246321 101.389591 
L 199.013753 104.117867 
L 200.548618 103.390327 
L 201.31605 100.480165 
L 202.083482 98.206602 
L 202.850915 99.752625 
L 203.618347 98.570372 
L 204.385779 101.571476 
L 205.153211 97.479061 
L 205.920644 96.02398 
L 206.688076 97.388119 
L 207.455508 96.751521 
L 208.990373 97.570004 
L 209.757805 96.296808 
L 210.525237 100.571108 
L 211.29267 93.568531 
L 212.060102 96.114923 
L 212.827534 95.023612 
L 213.594966 92.386278 
L 214.362399 95.29644 
L 215.129831 94.750785 
L 215.897263 88.748576 
L 216.664695 95.29644 
L 217.432128 93.659474 
L 218.19956 95.478325 
L 218.966992 94.659842 
L 219.734424 90.476485 
L 220.501857 92.022508 
L 221.269289 90.2946 
L 222.036721 93.568531 
L 222.804153 92.840991 
L 223.571586 90.112715 
L 224.339018 95.023612 
L 225.10645 90.476485 
L 225.873883 89.112347 
L 226.641315 89.021404 
L 227.408747 90.567427 
L 228.176179 91.294968 
L 228.943612 88.384806 
L 229.711044 92.931934 
L 230.478476 89.476117 
L 231.245908 91.02214 
L 232.013341 89.385174 
L 232.780773 89.476117 
L 233.548205 89.930829 
L 234.315637 88.475749 
L 235.08307 88.021036 
L 236.617934 89.839887 
L 237.385367 84.928989 
L 238.152799 87.202553 
L 238.920231 86.929725 
L 239.687663 86.838783 
L 240.455096 87.839151 
L 241.222528 86.38407 
L 241.98996 87.475381 
L 242.757392 87.657266 
L 243.524825 87.202553 
L 244.292257 85.019932 
L 245.059689 85.838415 
L 245.827121 88.111978 
L 246.594554 87.020668 
L 247.361986 84.565219 
L 248.129418 85.201817 
L 248.896851 87.839151 
L 249.664283 82.837311 
L 250.431715 86.293127 
L 251.199147 86.929725 
L 251.96658 86.929725 
L 252.734012 85.292759 
L 253.501444 84.565219 
L 254.268876 86.111242 
L 255.036309 80.836574 
L 255.803741 84.110506 
L 256.571173 84.747104 
L 257.338605 82.018828 
L 258.106038 84.474276 
L 258.87347 79.836206 
L 259.640902 83.201081 
L 260.408334 85.110874 
L 261.175767 83.019196 
L 261.943199 81.836942 
L 262.710631 82.018828 
L 263.478064 83.928621 
L 264.245496 82.564483 
L 265.012928 84.201449 
L 265.78036 85.292759 
L 266.547793 81.473172 
L 267.315225 81.655057 
L 268.082657 80.927517 
L 268.850089 82.746368 
L 269.617522 82.655425 
L 270.384954 83.019196 
L 271.152386 80.472804 
L 271.919818 81.291287 
L 272.687251 82.837311 
L 273.454683 82.291655 
L 274.222115 80.927517 
L 274.989548 81.200345 
L 275.75698 80.472804 
L 276.524412 83.746736 
L 277.291844 80.109034 
L 278.059277 81.38223 
L 278.826709 77.016987 
L 279.594141 79.654321 
L 280.361573 80.563747 
L 281.129006 77.653585 
L 281.896438 77.380758 
L 282.66387 81.473172 
L 283.431302 78.108298 
L 284.198735 80.018091 
L 284.966167 79.745264 
L 285.733599 79.836206 
L 286.501031 78.017355 
L 287.268464 79.745264 
L 288.035896 80.018091 
L 288.803328 81.01846 
L 289.570761 77.10793 
L 290.338193 81.746 
L 291.105625 80.472804 
L 292.64049 78.381126 
L 293.407922 79.108666 
L 294.175354 78.108298 
L 294.942786 79.654321 
L 295.710219 76.016619 
L 296.477651 77.744528 
L 297.245083 78.835838 
L 298.012515 77.380758 
L 298.779948 79.108666 
L 299.54738 76.198504 
L 301.082245 78.381126 
L 301.849677 76.380389 
L 302.617109 76.380389 
L 303.384541 76.74416 
L 304.151974 76.107562 
L 304.919406 76.471332 
L 305.686838 79.017723 
L 307.221703 74.379653 
L 307.989135 74.925309 
L 308.756567 76.835102 
L 309.523999 76.107562 
L 310.291432 77.653585 
L 311.058864 74.561538 
L 311.826296 77.380758 
L 312.593729 73.652113 
L 313.361161 80.018091 
L 314.128593 78.926781 
L 314.896025 72.197032 
L 315.663458 77.016987 
L 316.43089 75.198136 
L 317.198322 74.561538 
L 317.965754 76.835102 
L 318.733187 74.652481 
L 319.500619 73.652113 
L 320.268051 77.653585 
L 321.035483 75.016251 
L 321.802916 74.743424 
L 322.570348 77.016987 
L 323.33778 73.1974 
L 324.105212 70.923836 
L 324.872645 76.562275 
L 325.640077 76.471332 
L 326.407509 76.016619 
L 327.174942 71.560434 
L 328.709806 74.015883 
L 329.477238 75.925677 
L 330.244671 75.198136 
L 331.012103 77.289815 
L 331.779535 73.1974 
L 332.546967 76.562275 
L 333.3144 72.924573 
L 334.849264 76.471332 
L 335.616696 73.56117 
L 336.384129 75.743792 
L 337.151561 75.380021 
L 337.918993 74.197768 
L 338.686426 75.289079 
L 339.453858 73.56117 
L 340.22129 70.469124 
L 340.988722 75.380021 
L 341.756155 76.74416 
L 342.523587 73.1974 
L 343.291019 72.46986 
L 344.058451 73.924941 
L 344.825884 70.105353 
L 345.593316 73.56117 
L 346.360748 73.833998 
L 347.12818 71.287607 
L 347.895613 72.197032 
L 348.663045 73.833998 
L 349.430477 73.288343 
L 350.19791 68.832158 
L 350.965342 72.10609 
L 351.732774 71.560434 
L 352.500206 73.015515 
L 353.267639 70.651009 
L 354.035071 71.014779 
L 354.802503 71.560434 
L 355.569935 71.196664 
L 356.337368 72.742687 
L 357.1048 69.832526 
L 357.872232 74.197768 
L 358.639664 72.924573 
L 359.407097 69.377813 
L 360.174529 68.104617 
L 360.941961 72.46986 
L 361.709393 73.1974 
L 362.476826 75.198136 
L 363.244258 71.196664 
L 364.01169 70.196296 
L 364.779123 70.378181 
L 365.546555 73.015515 
L 366.313987 70.014411 
L 367.081419 72.287975 
L 367.848852 71.560434 
L 368.616284 69.195928 
L 369.383716 72.197032 
L 370.151148 72.46986 
L 371.686013 69.195928 
L 372.453445 73.106458 
L 373.220877 71.469492 
L 373.98831 67.83179 
L 374.755742 67.922732 
L 375.523174 69.650641 
L 376.290607 68.468388 
L 377.058039 68.650273 
L 377.825471 71.287607 
L 378.592903 72.742687 
L 379.360336 72.197032 
L 380.127768 70.287239 
L 380.8952 69.741583 
L 381.662632 68.650273 
L 382.430065 71.196664 
L 383.197497 70.741951 
L 383.964929 67.104249 
L 384.732361 69.832526 
L 385.499794 67.558962 
L 386.267226 69.741583 
L 387.034658 68.650273 
L 387.80209 69.377813 
L 388.569523 70.469124 
L 389.336955 74.470596 
L 390.104387 67.740847 
L 390.87182 66.831422 
L 391.639252 69.741583 
L 392.406684 68.832158 
L 393.174116 69.014043 
L 393.941549 69.377813 
L 394.708981 67.013307 
L 395.476413 70.560066 
L 396.243845 69.741583 
L 397.011278 69.377813 
L 397.77871 67.286134 
L 398.546142 66.103881 
L 399.313574 70.469124 
L 400.081007 70.196296 
L 400.848439 68.377445 
L 401.615871 70.287239 
L 402.383304 65.649169 
L 403.150736 69.377813 
L 403.918168 66.740479 
L 405.453033 68.104617 
L 406.220465 67.377077 
L 406.987897 68.19556 
L 407.755329 66.012939 
L 409.290194 69.377813 
L 410.057626 68.104617 
L 410.825058 67.377077 
L 411.592491 65.012571 
L 413.127355 71.196664 
L 413.894788 65.012571 
L 414.66222 66.376709 
L 415.429652 69.468756 
L 416.197084 66.558594 
L 417.731949 69.468756 
L 418.499381 66.558594 
L 419.266813 68.377445 
L 420.034246 66.376709 
L 420.801678 68.832158 
L 421.56911 68.013675 
L 422.336542 66.012939 
L 423.103975 69.559698 
L 423.871407 65.921996 
L 424.638839 63.92126 
L 425.406271 65.285398 
L 426.173704 67.013307 
L 426.941136 66.740479 
L 427.708568 69.195928 
L 428.476001 66.649537 
L 429.243433 64.6488 
L 430.010865 65.831054 
L 430.778297 67.83179 
L 431.54573 67.377077 
L 432.313162 65.103513 
L 433.080594 67.922732 
L 433.848026 68.741215 
L 434.615459 67.558962 
L 435.382891 65.376341 
L 436.150323 67.46802 
L 436.917755 69.014043 
L 437.685188 66.012939 
L 438.45262 66.012939 
L 439.220052 65.467283 
L 439.987485 68.55933 
L 440.754917 65.740111 
L 441.522349 63.648432 
L 442.289781 63.284662 
L 443.057214 64.194088 
L 443.824646 63.92126 
L 444.592078 65.831054 
L 445.35951 67.104249 
L 446.126943 65.285398 
L 446.894375 64.921628 
L 447.661807 64.375973 
L 448.429239 65.831054 
L 449.196672 65.103513 
L 449.964104 64.6488 
L 450.731536 65.831054 
L 451.498969 66.194824 
L 452.266401 65.285398 
L 453.033833 66.103881 
L 453.801265 63.55749 
L 454.568698 66.558594 
L 455.33613 64.6488 
L 456.103562 64.28503 
L 456.870994 65.467283 
L 457.638427 64.830686 
L 458.405859 64.830686 
L 459.173291 68.104617 
L 459.940723 66.194824 
L 460.708156 64.6488 
L 461.475588 67.83179 
L 462.24302 64.921628 
L 463.010452 64.012203 
L 463.777885 65.012571 
L 464.545317 64.194088 
L 465.312749 64.466915 
L 466.080182 64.466915 
L 466.847614 64.6488 
L 467.615046 65.467283 
L 468.382478 67.740847 
L 469.149911 64.012203 
L 469.917343 64.012203 
L 470.684775 66.740479 
L 471.452207 66.194824 
L 472.21964 63.830318 
L 472.987072 65.376341 
L 473.754504 66.194824 
L 475.289369 65.376341 
L 476.056801 64.6488 
L 476.824233 67.377077 
L 477.591666 63.284662 
L 478.359098 62.920892 
L 479.12653 64.28503 
L 479.893962 63.375605 
L 480.661395 63.466547 
L 481.428827 64.830686 
L 482.196259 63.375605 
L 482.963691 63.648432 
L 483.731124 63.011835 
L 484.498556 63.830318 
L 485.265988 63.102777 
L 486.03342 65.194456 
L 486.800853 64.830686 
L 487.568285 61.738639 
L 488.335717 62.284294 
L 489.103149 63.19372 
L 490.638014 62.920892 
L 491.405446 62.193352 
L 492.172879 62.102409 
L 492.940311 63.284662 
L 493.707743 64.830686 
L 494.475175 64.739743 
L 495.242608 62.648064 
L 496.01004 63.19372 
L 496.777472 63.102777 
L 497.544904 63.739375 
L 498.312337 62.102409 
L 499.847201 62.466179 
L 500.614633 61.556754 
L 501.382066 63.739375 
L 502.149498 62.375237 
L 502.91693 62.375237 
L 503.684363 62.920892 
L 504.451795 61.647696 
L 505.219227 61.647696 
L 505.986659 59.737903 
L 506.754092 61.102041 
L 507.521524 61.374869 
L 508.288956 61.829581 
L 509.056388 64.012203 
L 509.823821 62.011467 
L 510.591253 62.739007 
L 511.358685 63.19372 
L 512.126117 65.194456 
L 512.89355 60.920156 
L 513.660982 61.920524 
L 514.428414 61.102041 
L 515.195847 62.284294 
L 515.963279 62.284294 
L 516.730711 64.28503 
L 517.498143 60.192616 
L 518.265576 62.375237 
L 519.033008 61.374869 
L 519.80044 62.829949 
L 520.567872 60.829213 
L 521.335305 61.647696 
L 522.102737 62.829949 
L 522.870169 61.920524 
L 523.637601 61.829581 
L 524.405034 61.374869 
L 525.172466 62.284294 
L 525.939898 60.829213 
L 526.70733 62.375237 
L 527.474763 61.192984 
L 528.242195 62.284294 
L 529.009627 61.374869 
L 529.77706 59.919788 
L 530.544492 62.920892 
L 531.311924 61.829581 
L 532.079356 59.919788 
L 532.846789 61.556754 
L 533.614221 63.830318 
L 534.381653 62.193352 
L 535.916518 60.01073 
L 536.68395 62.648064 
L 537.451382 57.555282 
L 538.218814 61.920524 
L 538.986247 60.738271 
L 539.753679 58.646592 
L 540.521111 58.55565 
L 541.288544 62.375237 
L 542.055976 60.647328 
L 543.59084 59.64696 
L 544.358273 60.556386 
L 545.125705 62.739007 
L 545.893137 60.374501 
L 546.660569 59.101305 
L 547.428002 63.19372 
L 548.195434 60.465443 
L 548.962866 60.192616 
L 549.730298 59.465075 
L 550.497731 61.374869 
L 551.265163 62.648064 
L 552.032595 59.192247 
L 553.56746 62.102409 
L 554.334892 60.829213 
L 555.102324 61.102041 
L 555.869757 58.282822 
L 556.637189 58.282822 
L 557.404621 60.101673 
L 558.172053 60.647328 
L 558.939486 59.64696 
L 559.706918 60.192616 
L 560.47435 59.374133 
L 562.009215 59.465075 
L 562.776647 60.738271 
L 563.544079 61.102041 
L 564.311511 60.556386 
L 565.078944 58.373765 
L 565.846376 61.011098 
L 566.613808 60.374501 
L 567.381241 59.465075 
L 568.148673 60.283558 
L 568.916105 61.556754 
L 569.683537 59.101305 
L 570.45097 61.011098 
L 571.218402 60.283558 
L 571.985834 62.193352 
L 572.753266 60.920156 
L 573.520699 61.011098 
L 574.288131 60.647328 
L 575.055563 60.920156 
L 575.822995 64.466915 
L 576.590428 59.192247 
L 577.35786 59.101305 
L 578.125292 60.920156 
L 578.892725 59.010362 
L 579.660157 59.374133 
L 580.427589 60.283558 
L 581.962454 59.465075 
L 582.729886 60.829213 
L 583.497318 57.828109 
L 584.26475 59.28319 
L 585.032183 58.646592 
L 585.799615 58.464707 
L 586.567047 60.374501 
L 587.334479 61.102041 
L 588.101912 55.554545 
L 588.869344 59.010362 
L 589.636776 58.91942 
L 590.404208 59.374133 
L 591.171641 60.738271 
L 591.939073 60.556386 
L 592.706505 58.282822 
L 593.473938 59.010362 
L 594.24137 59.919788 
L 595.008802 62.193352 
L 596.543667 57.009626 
L 597.311099 57.373396 
L 598.078531 59.192247 
L 598.845963 58.646592 
L 599.613396 59.192247 
L 600.380828 57.737167 
L 601.14826 59.010362 
L 601.915692 58.737535 
L 602.683125 56.645856 
L 603.450557 58.373765 
L 604.217989 60.647328 
L 604.985422 60.738271 
L 605.752854 56.191143 
L 606.520286 59.64696 
L 607.287718 60.101673 
L 608.055151 59.192247 
L 608.822583 59.101305 
L 609.590015 56.827741 
L 610.357447 59.828845 
L 611.12488 56.282086 
L 611.892312 58.828477 
L 612.659744 57.828109 
L 613.427176 58.737535 
L 614.194609 60.465443 
L 614.962041 59.919788 
L 615.729473 55.918316 
L 616.496906 59.010362 
L 617.264338 60.374501 
L 618.03177 60.556386 
L 618.799202 57.828109 
L 619.566635 57.919052 
L 620.334067 58.464707 
L 621.101499 60.647328 
L 621.868931 60.556386 
L 622.636364 58.55565 
L 622.636364 58.55565 
" style="fill:none;stroke:#1f77b4;stroke-linecap:square;stroke-width:0.5;"/>
   </g>
   <g id="line2d_30">
    <path clip-path="url(#p196bb33d47)" d="M 115.363636 298.55304 
L 116.131069 299.28058 
L 116.898501 296.279476 
L 117.665933 290.822923 
L 118.433365 289.185957 
L 119.200798 286.457681 
L 119.96823 282.092438 
L 120.735662 279.000391 
L 121.503094 277.818138 
L 122.270527 280.182645 
L 123.037959 271.361217 
L 123.805391 269.906136 
L 124.572824 263.085445 
L 125.340256 264.085813 
L 126.107688 264.176756 
L 126.87512 254.536845 
L 127.642553 255.719099 
L 128.409985 255.810041 
L 129.177417 258.538318 
L 129.944849 249.262178 
L 130.712282 246.624844 
L 131.479714 243.078084 
L 132.247146 240.349808 
L 133.014578 234.165714 
L 133.782011 235.166082 
L 134.549443 225.435229 
L 135.316875 224.616746 
L 136.084308 223.525436 
L 136.85174 215.522491 
L 137.619172 212.430445 
L 138.386604 206.064466 
L 139.154037 206.064466 
L 139.921469 197.152096 
L 140.688901 195.060418 
L 141.456333 190.87706 
L 142.223766 188.330669 
L 142.991198 188.330669 
L 143.75863 181.509978 
L 144.526062 173.05232 
L 145.293495 173.597976 
L 146.060927 170.687814 
L 146.828359 168.232365 
L 147.595792 164.049008 
L 148.363224 164.230893 
L 149.130656 160.320363 
L 149.898088 159.683766 
L 150.665521 156.682661 
L 151.432953 152.499304 
L 152.200385 152.590247 
L 152.967817 153.499672 
L 153.73525 145.678613 
L 154.502682 150.316683 
L 155.270114 145.95144 
L 156.037546 146.042383 
L 156.804979 146.406153 
L 157.572411 143.677877 
L 158.339843 141.859026 
L 159.107275 135.674932 
L 159.874708 138.221324 
L 160.64214 137.948496 
L 161.409572 139.130749 
L 162.177005 135.58399 
L 162.944437 135.58399 
L 163.711869 135.94776 
L 164.479301 132.855713 
L 165.246734 131.127805 
L 166.014166 130.218379 
L 166.781598 130.94592 
L 167.54903 128.217643 
L 168.316463 126.30785 
L 169.083895 127.944815 
L 169.851327 128.217643 
L 170.618759 125.762194 
L 171.386192 125.216539 
L 172.153624 125.671252 
L 172.921056 123.397688 
L 173.688489 124.943711 
L 174.455921 121.66978 
L 175.223353 126.67162 
L 175.990785 121.760722 
L 176.758218 119.759986 
L 177.52565 118.941503 
L 178.293082 121.306009 
L 179.060514 116.576997 
L 179.827947 117.75925 
L 180.595379 120.487526 
L 181.362811 117.122652 
L 182.130243 115.940399 
L 182.897676 116.849824 
L 183.665108 114.030605 
L 184.43254 115.667571 
L 185.199972 113.84872 
L 185.967405 108.48311 
L 187.502269 115.576629 
L 188.269702 111.575156 
L 189.037134 110.574788 
L 189.804566 111.120444 
L 190.571998 111.393271 
L 191.339431 109.119708 
L 192.106863 108.84688 
L 192.874295 105.754833 
L 193.641727 108.210282 
L 194.40916 106.573316 
L 195.944024 104.754465 
L 196.711456 108.028397 
L 197.478889 106.482374 
L 198.246321 104.663523 
L 199.013753 105.936718 
L 199.781186 102.844672 
L 200.548618 104.57258 
L 202.850915 104.663523 
L 203.618347 102.480901 
L 204.385779 98.934142 
L 205.153211 103.117499 
L 205.920644 101.935246 
L 206.688076 99.57074 
L 207.455508 99.479797 
L 208.22294 102.208074 
L 208.990373 100.207338 
L 209.757805 100.116395 
L 210.525237 101.571476 
L 211.29267 101.662418 
L 212.060102 98.843199 
L 212.827534 99.116027 
L 213.594966 99.843567 
L 214.362399 97.751889 
L 215.129831 97.842831 
L 216.664695 95.751153 
L 217.432128 95.114555 
L 218.19956 99.20697 
L 218.966992 100.116395 
L 219.734424 96.478693 
L 220.501857 94.5689 
L 221.269289 97.388119 
L 222.036721 95.387382 
L 222.804153 97.297176 
L 223.571586 96.569636 
L 224.339018 98.570372 
L 225.10645 93.477589 
L 225.873883 96.569636 
L 226.641315 95.023612 
L 228.176179 97.206233 
L 228.943612 94.93267 
L 229.711044 91.02214 
L 230.478476 96.205865 
L 231.245908 92.659106 
L 232.013341 91.840623 
L 232.780773 90.840255 
L 233.548205 91.204025 
L 234.315637 92.840991 
L 235.08307 88.930461 
L 235.850502 88.475749 
L 236.617934 93.295704 
L 237.385367 94.387014 
L 238.152799 89.748944 
L 238.920231 90.112715 
L 239.687663 89.203289 
L 240.455096 90.2946 
L 241.222528 93.932302 
L 242.757392 89.021404 
L 243.524825 91.931566 
L 244.292257 92.386278 
L 245.059689 87.475381 
L 245.827121 90.567427 
L 246.594554 90.749312 
L 247.361986 87.202553 
L 248.129418 88.021036 
L 248.896851 89.112347 
L 249.664283 88.202921 
L 250.431715 91.38591 
L 251.199147 90.203657 
L 251.96658 91.840623 
L 252.734012 88.748576 
L 253.501444 89.567059 
L 254.268876 89.748944 
L 255.036309 89.112347 
L 255.803741 89.294232 
L 256.571173 86.111242 
L 258.106038 87.11161 
L 258.87347 88.202921 
L 259.640902 87.202553 
L 260.408334 85.292759 
L 261.175767 86.0203 
L 261.943199 89.658002 
L 262.710631 88.202921 
L 263.478064 90.021772 
L 264.245496 86.475013 
L 265.78036 89.476117 
L 266.547793 85.383702 
L 267.315225 86.838783 
L 268.082657 87.020668 
L 268.850089 85.292759 
L 269.617522 84.110506 
L 271.152386 86.656898 
L 271.919818 83.110138 
L 272.687251 86.74784 
L 273.454683 88.293864 
L 274.222115 85.474644 
L 274.989548 85.838415 
L 275.75698 84.019564 
L 276.524412 89.476117 
L 277.291844 87.202553 
L 278.059277 86.929725 
L 278.826709 85.929357 
L 279.594141 83.019196 
L 280.361573 84.747104 
L 281.129006 84.383334 
L 281.896438 85.65653 
L 282.66387 83.746736 
L 283.431302 82.746368 
L 284.198735 85.474644 
L 284.966167 83.019196 
L 286.501031 84.565219 
L 287.268464 83.019196 
L 288.035896 85.929357 
L 288.803328 87.930093 
L 289.570761 87.839151 
L 290.338193 85.110874 
L 291.105625 84.201449 
L 291.873057 84.565219 
L 292.64049 86.0203 
L 293.407922 86.565955 
L 294.175354 86.111242 
L 294.942786 83.019196 
L 295.710219 84.656162 
L 296.477651 84.292391 
L 297.245083 85.383702 
L 298.012515 85.929357 
L 298.779948 85.474644 
L 299.54738 84.019564 
L 300.314812 82.018828 
L 301.082245 83.110138 
L 301.849677 87.930093 
L 302.617109 81.200345 
L 303.384541 84.474276 
L 304.151974 79.745264 
L 304.919406 83.473908 
L 305.686838 84.838047 
L 307.221703 83.473908 
L 307.989135 85.201817 
L 308.756567 84.838047 
L 309.523999 83.019196 
L 310.291432 82.47354 
L 311.058864 84.019564 
L 311.826296 84.292391 
L 312.593729 86.0203 
L 313.361161 83.019196 
L 314.128593 80.654689 
L 314.896025 84.110506 
L 315.663458 83.837679 
L 316.43089 82.10977 
L 317.198322 82.018828 
L 317.965754 82.10977 
L 318.733187 83.201081 
L 319.500619 81.473172 
L 320.268051 83.655793 
L 321.035483 83.382966 
L 321.802916 82.10977 
L 322.570348 81.927885 
L 323.33778 82.564483 
L 324.105212 81.655057 
L 324.872645 82.382598 
L 325.640077 81.746 
L 326.407509 83.201081 
L 327.174942 82.564483 
L 327.942374 83.201081 
L 328.709806 80.563747 
L 329.477238 83.928621 
L 330.244671 84.019564 
L 331.012103 81.655057 
L 331.779535 85.019932 
L 332.546967 78.653953 
L 334.081832 83.110138 
L 334.849264 85.019932 
L 335.616696 82.746368 
L 336.384129 83.928621 
L 337.151561 80.654689 
L 337.918993 81.200345 
L 338.686426 82.837311 
L 339.453858 79.927149 
L 340.22129 79.836206 
L 340.988722 82.837311 
L 341.756155 83.655793 
L 342.523587 79.290551 
L 343.291019 80.018091 
L 344.058451 85.565587 
L 344.825884 81.836942 
L 345.593316 81.655057 
L 346.360748 82.018828 
L 347.12818 84.110506 
L 347.895613 78.653953 
L 348.663045 81.746 
L 350.19791 80.290919 
L 350.965342 82.200713 
L 352.500206 80.654689 
L 353.267639 81.473172 
L 354.035071 79.472436 
L 354.802503 83.292023 
L 355.569935 80.199977 
L 356.337368 80.745632 
L 357.1048 82.47354 
L 357.872232 79.563379 
L 358.639664 82.291655 
L 359.407097 79.199609 
L 360.174529 82.382598 
L 360.941961 80.109034 
L 361.709393 83.382966 
L 362.476826 79.927149 
L 363.244258 79.745264 
L 364.01169 82.200713 
L 365.546555 78.563011 
L 366.313987 81.836942 
L 367.081419 82.018828 
L 367.848852 78.926781 
L 368.616284 81.927885 
L 369.383716 80.290919 
L 370.151148 81.746 
L 370.918581 79.927149 
L 371.686013 79.381494 
L 372.453445 80.472804 
L 373.220877 82.018828 
L 373.98831 82.837311 
L 374.755742 82.382598 
L 375.523174 80.109034 
L 376.290607 80.927517 
L 377.058039 79.199609 
L 377.825471 83.746736 
L 378.592903 81.109402 
L 379.360336 83.019196 
L 380.8952 78.926781 
L 381.662632 80.563747 
L 382.430065 78.926781 
L 383.197497 80.836574 
L 383.964929 80.290919 
L 384.732361 83.473908 
L 385.499794 80.836574 
L 386.267226 82.47354 
L 387.034658 81.01846 
L 387.80209 82.291655 
L 388.569523 80.381862 
L 389.336955 81.200345 
L 390.104387 82.47354 
L 390.87182 81.655057 
L 391.639252 81.927885 
L 392.406684 79.745264 
L 393.174116 78.563011 
L 393.941549 82.928253 
L 394.708981 81.291287 
L 396.243845 82.655425 
L 397.011278 80.927517 
L 397.77871 81.927885 
L 398.546142 80.927517 
L 399.313574 82.928253 
L 400.081007 81.38223 
L 401.615871 79.108666 
L 402.383304 81.473172 
L 403.150736 81.564115 
L 403.918168 79.654321 
L 404.6856 80.381862 
L 405.453033 77.198872 
L 406.220465 80.745632 
L 406.987897 80.381862 
L 407.755329 81.564115 
L 408.522762 81.927885 
L 409.290194 79.290551 
L 410.057626 80.745632 
L 410.825058 79.199609 
L 411.592491 77.289815 
L 412.359923 81.473172 
L 413.127355 79.745264 
L 413.894788 81.564115 
L 414.66222 76.471332 
L 415.429652 82.200713 
L 416.197084 80.018091 
L 416.964517 80.018091 
L 417.731949 78.653953 
L 418.499381 78.472068 
L 419.266813 80.199977 
L 420.034246 79.108666 
L 420.801678 80.654689 
L 421.56911 77.562643 
L 422.336542 79.745264 
L 423.103975 83.019196 
L 423.871407 81.109402 
L 424.638839 82.10977 
L 425.406271 81.291287 
L 426.173704 81.291287 
L 426.941136 78.835838 
L 427.708568 80.745632 
L 428.476001 82.291655 
L 429.243433 79.472436 
L 430.010865 78.290183 
L 430.778297 77.83547 
L 431.54573 81.38223 
L 432.313162 81.291287 
L 433.080594 83.746736 
L 433.848026 78.017355 
L 434.615459 80.109034 
L 435.382891 77.562643 
L 436.150323 79.927149 
L 436.917755 78.19924 
L 437.685188 80.563747 
L 438.45262 81.200345 
L 439.220052 83.564851 
L 439.987485 80.290919 
L 440.754917 82.837311 
L 442.289781 79.563379 
L 443.057214 80.927517 
L 443.824646 81.655057 
L 444.592078 82.928253 
L 445.35951 83.019196 
L 446.126943 79.836206 
L 446.894375 80.654689 
L 447.661807 80.927517 
L 448.429239 82.382598 
L 449.196672 80.018091 
L 449.964104 79.472436 
L 450.731536 81.473172 
L 451.498969 79.563379 
L 452.266401 82.47354 
L 453.033833 79.654321 
L 453.801265 79.108666 
L 454.568698 82.10977 
L 455.33613 80.745632 
L 456.103562 79.108666 
L 456.870994 79.563379 
L 457.638427 77.10793 
L 458.405859 80.018091 
L 459.173291 80.836574 
L 459.940723 82.746368 
L 460.708156 80.836574 
L 461.475588 80.654689 
L 462.24302 78.381126 
L 463.010452 82.564483 
L 463.777885 78.381126 
L 464.545317 83.473908 
L 465.312749 83.473908 
L 466.080182 83.928621 
L 466.847614 80.836574 
L 467.615046 78.653953 
L 468.382478 79.836206 
L 469.149911 76.471332 
L 469.917343 80.109034 
L 470.684775 83.110138 
L 471.452207 82.564483 
L 472.21964 78.563011 
L 472.987072 78.835838 
L 473.754504 81.291287 
L 474.521936 83.110138 
L 475.289369 80.563747 
L 476.056801 77.289815 
L 476.824233 81.927885 
L 477.591666 80.472804 
L 478.359098 80.563747 
L 479.12653 80.927517 
L 479.893962 78.653953 
L 480.661395 78.290183 
L 481.428827 82.10977 
L 482.196259 80.563747 
L 482.963691 85.383702 
L 483.731124 82.746368 
L 484.498556 77.926413 
L 485.265988 81.927885 
L 486.03342 83.382966 
L 486.800853 79.654321 
L 487.568285 80.018091 
L 488.335717 83.019196 
L 489.103149 83.746736 
L 489.870582 80.381862 
L 490.638014 79.927149 
L 491.405446 78.653953 
L 492.940311 81.746 
L 493.707743 79.927149 
L 494.475175 79.927149 
L 495.242608 81.109402 
L 496.01004 80.472804 
L 496.777472 81.564115 
L 497.544904 78.19924 
L 498.312337 79.199609 
L 499.079769 80.836574 
L 499.847201 82.018828 
L 500.614633 81.01846 
L 501.382066 80.654689 
L 502.149498 82.928253 
L 502.91693 81.564115 
L 503.684363 81.836942 
L 504.451795 79.108666 
L 505.219227 82.382598 
L 505.986659 78.835838 
L 506.754092 78.653953 
L 507.521524 82.564483 
L 508.288956 77.83547 
L 509.056388 79.290551 
L 509.823821 81.109402 
L 510.591253 81.38223 
L 512.126117 82.200713 
L 512.89355 78.381126 
L 513.660982 78.017355 
L 514.428414 80.018091 
L 515.195847 79.108666 
L 515.963279 81.38223 
L 516.730711 80.927517 
L 517.498143 80.018091 
L 518.265576 81.109402 
L 519.033008 80.927517 
L 519.80044 80.381862 
L 520.567872 82.746368 
L 521.335305 82.018828 
L 522.102737 79.199609 
L 522.870169 78.653953 
L 523.637601 79.745264 
L 524.405034 81.473172 
L 525.172466 76.562275 
L 525.939898 79.017723 
L 526.70733 78.653953 
L 528.242195 77.4717 
L 529.009627 80.018091 
L 529.77706 80.654689 
L 530.544492 80.381862 
L 531.311924 79.290551 
L 532.079356 80.745632 
L 532.846789 83.837679 
L 533.614221 82.200713 
L 534.381653 81.927885 
L 535.149085 80.199977 
L 535.916518 81.473172 
L 536.68395 79.017723 
L 537.451382 80.563747 
L 538.218814 79.472436 
L 538.986247 81.473172 
L 539.753679 79.108666 
L 540.521111 80.654689 
L 541.288544 81.655057 
L 542.055976 80.745632 
L 542.823408 81.291287 
L 543.59084 80.927517 
L 544.358273 79.108666 
L 545.125705 78.381126 
L 545.893137 80.745632 
L 546.660569 80.381862 
L 547.428002 84.838047 
L 548.195434 79.108666 
L 548.962866 80.199977 
L 549.730298 81.655057 
L 552.032595 78.19924 
L 552.800028 82.655425 
L 553.56746 77.380758 
L 554.334892 81.655057 
L 555.102324 77.4717 
L 555.869757 82.655425 
L 557.404621 79.381494 
L 558.172053 80.109034 
L 558.939486 81.291287 
L 559.706918 81.473172 
L 560.47435 80.745632 
L 561.241782 80.745632 
L 562.009215 78.472068 
L 562.776647 83.746736 
L 563.544079 80.290919 
L 564.311511 81.655057 
L 565.078944 81.291287 
L 565.846376 80.018091 
L 566.613808 79.108666 
L 567.381241 81.473172 
L 568.148673 83.292023 
L 568.916105 77.926413 
L 569.683537 79.927149 
L 570.45097 82.291655 
L 571.218402 78.19924 
L 571.985834 82.564483 
L 572.753266 79.745264 
L 573.520699 79.381494 
L 574.288131 82.837311 
L 575.055563 81.200345 
L 575.822995 79.927149 
L 576.590428 82.655425 
L 577.35786 80.563747 
L 578.125292 81.200345 
L 578.892725 78.835838 
L 579.660157 80.018091 
L 580.427589 81.564115 
L 581.195021 79.472436 
L 581.962454 82.018828 
L 582.729886 81.927885 
L 583.497318 81.38223 
L 584.26475 78.653953 
L 585.032183 81.38223 
L 585.799615 82.10977 
L 586.567047 77.198872 
L 588.101912 83.837679 
L 588.869344 79.017723 
L 589.636776 81.564115 
L 590.404208 80.381862 
L 591.171641 79.836206 
L 591.939073 83.655793 
L 592.706505 80.381862 
L 593.473938 79.108666 
L 594.24137 81.200345 
L 595.008802 82.291655 
L 595.776234 80.654689 
L 596.543667 82.928253 
L 597.311099 81.746 
L 598.078531 81.109402 
L 598.845963 80.927517 
L 599.613396 77.83547 
L 600.380828 80.654689 
L 601.14826 83.019196 
L 601.915692 81.109402 
L 602.683125 83.382966 
L 603.450557 81.655057 
L 604.217989 80.836574 
L 604.985422 79.108666 
L 605.752854 78.563011 
L 606.520286 82.47354 
L 607.287718 81.655057 
L 608.055151 79.654321 
L 608.822583 80.563747 
L 609.590015 79.654321 
L 610.357447 82.382598 
L 611.12488 79.654321 
L 611.892312 82.837311 
L 612.659744 81.01846 
L 613.427176 81.01846 
L 614.194609 79.654321 
L 614.962041 82.837311 
L 615.729473 84.292391 
L 616.496906 83.110138 
L 617.264338 81.291287 
L 618.03177 80.018091 
L 618.799202 82.10977 
L 619.566635 82.655425 
L 620.334067 79.563379 
L 621.101499 79.017723 
L 621.868931 81.109402 
L 622.636364 81.01846 
L 622.636364 81.01846 
" style="fill:none;stroke:#ff7f0e;stroke-linecap:square;stroke-width:0.5;"/>
   </g>
   <g id="patch_3">
    <path d="M 90 315 
L 90 43.2 
" style="fill:none;stroke:#000000;stroke-linecap:square;stroke-linejoin:miter;stroke-width:0.8;"/>
   </g>
   <g id="patch_4">
    <path d="M 648 315 
L 648 43.2 
" style="fill:none;stroke:#000000;stroke-linecap:square;stroke-linejoin:miter;stroke-width:0.8;"/>
   </g>
   <g id="patch_5">
    <path d="M 90 315 
L 648 315 
" style="fill:none;stroke:#000000;stroke-linecap:square;stroke-linejoin:miter;stroke-width:0.8;"/>
   </g>
   <g id="patch_6">
    <path d="M 90 43.2 
L 648 43.2 
" style="fill:none;stroke:#000000;stroke-linecap:square;stroke-linejoin:miter;stroke-width:0.8;"/>
   </g>
   <g id="text_17">
    <!-- accuracy -->
    <g transform="translate(341.92875 37.2)scale(0.12 -0.12)">
     <use xlink:href="#DejaVuSans-97"/>
     <use x="61.279297" xlink:href="#DejaVuSans-99"/>
     <use x="116.259766" xlink:href="#DejaVuSans-99"/>
     <use x="171.240234" xlink:href="#DejaVuSans-117"/>
     <use x="234.619141" xlink:href="#DejaVuSans-114"/>
     <use x="275.732422" xlink:href="#DejaVuSans-97"/>
     <use x="337.011719" xlink:href="#DejaVuSans-99"/>
     <use x="391.992188" xlink:href="#DejaVuSans-121"/>
    </g>
   </g>
   <g id="legend_1">
    <g id="patch_7">
     <path d="M 97 80.55625 
L 169.153125 80.55625 
Q 171.153125 80.55625 171.153125 78.55625 
L 171.153125 50.2 
Q 171.153125 48.2 169.153125 48.2 
L 97 48.2 
Q 95 48.2 95 50.2 
L 95 78.55625 
Q 95 80.55625 97 80.55625 
z
" style="fill:#ffffff;opacity:0.8;stroke:#cccccc;stroke-linejoin:miter;"/>
    </g>
    <g id="line2d_31">
     <path d="M 99 56.298437 
L 119 56.298437 
" style="fill:none;stroke:#1f77b4;stroke-linecap:square;stroke-width:0.5;"/>
    </g>
    <g id="line2d_32"/>
    <g id="text_18">
     <!-- train -->
     <defs>
      <path d="M 18.3125 70.21875 
L 18.3125 54.6875 
L 36.8125 54.6875 
L 36.8125 47.703125 
L 18.3125 47.703125 
L 18.3125 18.015625 
Q 18.3125 11.328125 20.140625 9.421875 
Q 21.96875 7.515625 27.59375 7.515625 
L 36.8125 7.515625 
L 36.8125 0 
L 27.59375 0 
Q 17.1875 0 13.234375 3.875 
Q 9.28125 7.765625 9.28125 18.015625 
L 9.28125 47.703125 
L 2.6875 47.703125 
L 2.6875 54.6875 
L 9.28125 54.6875 
L 9.28125 70.21875 
z
" id="DejaVuSans-116"/>
      <path d="M 9.421875 54.6875 
L 18.40625 54.6875 
L 18.40625 0 
L 9.421875 0 
z
M 9.421875 75.984375 
L 18.40625 75.984375 
L 18.40625 64.59375 
L 9.421875 64.59375 
z
" id="DejaVuSans-105"/>
      <path d="M 54.890625 33.015625 
L 54.890625 0 
L 45.90625 0 
L 45.90625 32.71875 
Q 45.90625 40.484375 42.875 44.328125 
Q 39.84375 48.1875 33.796875 48.1875 
Q 26.515625 48.1875 22.3125 43.546875 
Q 18.109375 38.921875 18.109375 30.90625 
L 18.109375 0 
L 9.078125 0 
L 9.078125 54.6875 
L 18.109375 54.6875 
L 18.109375 46.1875 
Q 21.34375 51.125 25.703125 53.5625 
Q 30.078125 56 35.796875 56 
Q 45.21875 56 50.046875 50.171875 
Q 54.890625 44.34375 54.890625 33.015625 
z
" id="DejaVuSans-110"/>
     </defs>
     <g transform="translate(127 59.798437)scale(0.1 -0.1)">
      <use xlink:href="#DejaVuSans-116"/>
      <use x="39.208984" xlink:href="#DejaVuSans-114"/>
      <use x="80.322266" xlink:href="#DejaVuSans-97"/>
      <use x="141.601562" xlink:href="#DejaVuSans-105"/>
      <use x="169.384766" xlink:href="#DejaVuSans-110"/>
     </g>
    </g>
    <g id="line2d_33">
     <path d="M 99 70.976562 
L 119 70.976562 
" style="fill:none;stroke:#ff7f0e;stroke-linecap:square;stroke-width:0.5;"/>
    </g>
    <g id="line2d_34"/>
    <g id="text_19">
     <!-- validate -->
     <defs>
      <path d="M 2.984375 54.6875 
L 12.5 54.6875 
L 29.59375 8.796875 
L 46.6875 54.6875 
L 56.203125 54.6875 
L 35.6875 0 
L 23.484375 0 
z
" id="DejaVuSans-118"/>
      <path d="M 9.421875 75.984375 
L 18.40625 75.984375 
L 18.40625 0 
L 9.421875 0 
z
" id="DejaVuSans-108"/>
      <path d="M 45.40625 46.390625 
L 45.40625 75.984375 
L 54.390625 75.984375 
L 54.390625 0 
L 45.40625 0 
L 45.40625 8.203125 
Q 42.578125 3.328125 38.25 0.953125 
Q 33.9375 -1.421875 27.875 -1.421875 
Q 17.96875 -1.421875 11.734375 6.484375 
Q 5.515625 14.40625 5.515625 27.296875 
Q 5.515625 40.1875 11.734375 48.09375 
Q 17.96875 56 27.875 56 
Q 33.9375 56 38.25 53.625 
Q 42.578125 51.265625 45.40625 46.390625 
z
M 14.796875 27.296875 
Q 14.796875 17.390625 18.875 11.75 
Q 22.953125 6.109375 30.078125 6.109375 
Q 37.203125 6.109375 41.296875 11.75 
Q 45.40625 17.390625 45.40625 27.296875 
Q 45.40625 37.203125 41.296875 42.84375 
Q 37.203125 48.484375 30.078125 48.484375 
Q 22.953125 48.484375 18.875 42.84375 
Q 14.796875 37.203125 14.796875 27.296875 
z
" id="DejaVuSans-100"/>
     </defs>
     <g transform="translate(127 74.476562)scale(0.1 -0.1)">
      <use xlink:href="#DejaVuSans-118"/>
      <use x="59.179688" xlink:href="#DejaVuSans-97"/>
      <use x="120.458984" xlink:href="#DejaVuSans-108"/>
      <use x="148.242188" xlink:href="#DejaVuSans-105"/>
      <use x="176.025391" xlink:href="#DejaVuSans-100"/>
      <use x="239.501953" xlink:href="#DejaVuSans-97"/>
      <use x="300.78125" xlink:href="#DejaVuSans-116"/>
      <use x="339.990234" xlink:href="#DejaVuSans-101"/>
     </g>
    </g>
   </g>
  </g>
 </g>
 <defs>
  <clipPath id="p196bb33d47">
   <rect height="271.8" width="558" x="90" y="43.2"/>
  </clipPath>
 </defs>
</svg>
