<?xml version="1.0" encoding="utf-8" standalone="no"?>
<!DOCTYPE svg PUBLIC "-//W3C//DTD SVG 1.1//EN"
  "http://www.w3.org/Graphics/SVG/1.1/DTD/svg11.dtd">
<!-- Created with matplotlib (https://matplotlib.org/) -->
<svg height="360pt" version="1.1" viewBox="0 0 720 360" width="720pt" xmlns="http://www.w3.org/2000/svg" xmlns:xlink="http://www.w3.org/1999/xlink">
 <defs>
  <style type="text/css">
*{stroke-linecap:butt;stroke-linejoin:round;}
  </style>
 </defs>
 <g id="figure_1">
  <g id="patch_1">
   <path d="M 0 360 
L 720 360 
L 720 0 
L 0 0 
z
" style="fill:#ffffff;"/>
  </g>
  <g id="axes_1">
   <g id="patch_2">
    <path d="M 90 315 
L 648 315 
L 648 43.2 
L 90 43.2 
z
" style="fill:#ffffff;"/>
   </g>
   <g id="matplotlib.axis_1">
    <g id="xtick_1">
     <g id="line2d_1">
      <path clip-path="url(#p4d37873874)" d="M 115.363636 315 
L 115.363636 43.2 
" style="fill:none;stroke:#b0b0b0;stroke-linecap:square;stroke-width:0.8;"/>
     </g>
     <g id="line2d_2">
      <defs>
       <path d="M 0 0 
L 0 3.5 
" id="mad58808dd0" style="stroke:#000000;stroke-width:0.8;"/>
      </defs>
      <g>
       <use style="stroke:#000000;stroke-width:0.8;" x="115.363636" xlink:href="#mad58808dd0" y="315"/>
      </g>
     </g>
     <g id="text_1">
      <!-- 0 -->
      <defs>
       <path d="M 31.78125 66.40625 
Q 24.171875 66.40625 20.328125 58.90625 
Q 16.5 51.421875 16.5 36.375 
Q 16.5 21.390625 20.328125 13.890625 
Q 24.171875 6.390625 31.78125 6.390625 
Q 39.453125 6.390625 43.28125 13.890625 
Q 47.125 21.390625 47.125 36.375 
Q 47.125 51.421875 43.28125 58.90625 
Q 39.453125 66.40625 31.78125 66.40625 
z
M 31.78125 74.21875 
Q 44.046875 74.21875 50.515625 64.515625 
Q 56.984375 54.828125 56.984375 36.375 
Q 56.984375 17.96875 50.515625 8.265625 
Q 44.046875 -1.421875 31.78125 -1.421875 
Q 19.53125 -1.421875 13.0625 8.265625 
Q 6.59375 17.96875 6.59375 36.375 
Q 6.59375 54.828125 13.0625 64.515625 
Q 19.53125 74.21875 31.78125 74.21875 
z
" id="DejaVuSans-48"/>
      </defs>
      <g transform="translate(112.182386 329.598437)scale(0.1 -0.1)">
       <use xlink:href="#DejaVuSans-48"/>
      </g>
     </g>
    </g>
    <g id="xtick_2">
     <g id="line2d_3">
      <path clip-path="url(#p4d37873874)" d="M 188.457689 315 
L 188.457689 43.2 
" style="fill:none;stroke:#b0b0b0;stroke-linecap:square;stroke-width:0.8;"/>
     </g>
     <g id="line2d_4">
      <g>
       <use style="stroke:#000000;stroke-width:0.8;" x="188.457689" xlink:href="#mad58808dd0" y="315"/>
      </g>
     </g>
     <g id="text_2">
      <!-- 200 -->
      <defs>
       <path d="M 19.1875 8.296875 
L 53.609375 8.296875 
L 53.609375 0 
L 7.328125 0 
L 7.328125 8.296875 
Q 12.9375 14.109375 22.625 23.890625 
Q 32.328125 33.6875 34.8125 36.53125 
Q 39.546875 41.84375 41.421875 45.53125 
Q 43.3125 49.21875 43.3125 52.78125 
Q 43.3125 58.59375 39.234375 62.25 
Q 35.15625 65.921875 28.609375 65.921875 
Q 23.96875 65.921875 18.8125 64.3125 
Q 13.671875 62.703125 7.8125 59.421875 
L 7.8125 69.390625 
Q 13.765625 71.78125 18.9375 73 
Q 24.125 74.21875 28.421875 74.21875 
Q 39.75 74.21875 46.484375 68.546875 
Q 53.21875 62.890625 53.21875 53.421875 
Q 53.21875 48.921875 51.53125 44.890625 
Q 49.859375 40.875 45.40625 35.40625 
Q 44.1875 33.984375 37.640625 27.21875 
Q 31.109375 20.453125 19.1875 8.296875 
z
" id="DejaVuSans-50"/>
      </defs>
      <g transform="translate(178.913939 329.598437)scale(0.1 -0.1)">
       <use xlink:href="#DejaVuSans-50"/>
       <use x="63.623047" xlink:href="#DejaVuSans-48"/>
       <use x="127.246094" xlink:href="#DejaVuSans-48"/>
      </g>
     </g>
    </g>
    <g id="xtick_3">
     <g id="line2d_5">
      <path clip-path="url(#p4d37873874)" d="M 261.551742 315 
L 261.551742 43.2 
" style="fill:none;stroke:#b0b0b0;stroke-linecap:square;stroke-width:0.8;"/>
     </g>
     <g id="line2d_6">
      <g>
       <use style="stroke:#000000;stroke-width:0.8;" x="261.551742" xlink:href="#mad58808dd0" y="315"/>
      </g>
     </g>
     <g id="text_3">
      <!-- 400 -->
      <defs>
       <path d="M 37.796875 64.3125 
L 12.890625 25.390625 
L 37.796875 25.390625 
z
M 35.203125 72.90625 
L 47.609375 72.90625 
L 47.609375 25.390625 
L 58.015625 25.390625 
L 58.015625 17.1875 
L 47.609375 17.1875 
L 47.609375 0 
L 37.796875 0 
L 37.796875 17.1875 
L 4.890625 17.1875 
L 4.890625 26.703125 
z
" id="DejaVuSans-52"/>
      </defs>
      <g transform="translate(252.007992 329.598437)scale(0.1 -0.1)">
       <use xlink:href="#DejaVuSans-52"/>
       <use x="63.623047" xlink:href="#DejaVuSans-48"/>
       <use x="127.246094" xlink:href="#DejaVuSans-48"/>
      </g>
     </g>
    </g>
    <g id="xtick_4">
     <g id="line2d_7">
      <path clip-path="url(#p4d37873874)" d="M 334.645795 315 
L 334.645795 43.2 
" style="fill:none;stroke:#b0b0b0;stroke-linecap:square;stroke-width:0.8;"/>
     </g>
     <g id="line2d_8">
      <g>
       <use style="stroke:#000000;stroke-width:0.8;" x="334.645795" xlink:href="#mad58808dd0" y="315"/>
      </g>
     </g>
     <g id="text_4">
      <!-- 600 -->
      <defs>
       <path d="M 33.015625 40.375 
Q 26.375 40.375 22.484375 35.828125 
Q 18.609375 31.296875 18.609375 23.390625 
Q 18.609375 15.53125 22.484375 10.953125 
Q 26.375 6.390625 33.015625 6.390625 
Q 39.65625 6.390625 43.53125 10.953125 
Q 47.40625 15.53125 47.40625 23.390625 
Q 47.40625 31.296875 43.53125 35.828125 
Q 39.65625 40.375 33.015625 40.375 
z
M 52.59375 71.296875 
L 52.59375 62.3125 
Q 48.875 64.0625 45.09375 64.984375 
Q 41.3125 65.921875 37.59375 65.921875 
Q 27.828125 65.921875 22.671875 59.328125 
Q 17.53125 52.734375 16.796875 39.40625 
Q 19.671875 43.65625 24.015625 45.921875 
Q 28.375 48.1875 33.59375 48.1875 
Q 44.578125 48.1875 50.953125 41.515625 
Q 57.328125 34.859375 57.328125 23.390625 
Q 57.328125 12.15625 50.6875 5.359375 
Q 44.046875 -1.421875 33.015625 -1.421875 
Q 20.359375 -1.421875 13.671875 8.265625 
Q 6.984375 17.96875 6.984375 36.375 
Q 6.984375 53.65625 15.1875 63.9375 
Q 23.390625 74.21875 37.203125 74.21875 
Q 40.921875 74.21875 44.703125 73.484375 
Q 48.484375 72.75 52.59375 71.296875 
z
" id="DejaVuSans-54"/>
      </defs>
      <g transform="translate(325.102045 329.598437)scale(0.1 -0.1)">
       <use xlink:href="#DejaVuSans-54"/>
       <use x="63.623047" xlink:href="#DejaVuSans-48"/>
       <use x="127.246094" xlink:href="#DejaVuSans-48"/>
      </g>
     </g>
    </g>
    <g id="xtick_5">
     <g id="line2d_9">
      <path clip-path="url(#p4d37873874)" d="M 407.739848 315 
L 407.739848 43.2 
" style="fill:none;stroke:#b0b0b0;stroke-linecap:square;stroke-width:0.8;"/>
     </g>
     <g id="line2d_10">
      <g>
       <use style="stroke:#000000;stroke-width:0.8;" x="407.739848" xlink:href="#mad58808dd0" y="315"/>
      </g>
     </g>
     <g id="text_5">
      <!-- 800 -->
      <defs>
       <path d="M 31.78125 34.625 
Q 24.75 34.625 20.71875 30.859375 
Q 16.703125 27.09375 16.703125 20.515625 
Q 16.703125 13.921875 20.71875 10.15625 
Q 24.75 6.390625 31.78125 6.390625 
Q 38.8125 6.390625 42.859375 10.171875 
Q 46.921875 13.96875 46.921875 20.515625 
Q 46.921875 27.09375 42.890625 30.859375 
Q 38.875 34.625 31.78125 34.625 
z
M 21.921875 38.8125 
Q 15.578125 40.375 12.03125 44.71875 
Q 8.5 49.078125 8.5 55.328125 
Q 8.5 64.0625 14.71875 69.140625 
Q 20.953125 74.21875 31.78125 74.21875 
Q 42.671875 74.21875 48.875 69.140625 
Q 55.078125 64.0625 55.078125 55.328125 
Q 55.078125 49.078125 51.53125 44.71875 
Q 48 40.375 41.703125 38.8125 
Q 48.828125 37.15625 52.796875 32.3125 
Q 56.78125 27.484375 56.78125 20.515625 
Q 56.78125 9.90625 50.3125 4.234375 
Q 43.84375 -1.421875 31.78125 -1.421875 
Q 19.734375 -1.421875 13.25 4.234375 
Q 6.78125 9.90625 6.78125 20.515625 
Q 6.78125 27.484375 10.78125 32.3125 
Q 14.796875 37.15625 21.921875 38.8125 
z
M 18.3125 54.390625 
Q 18.3125 48.734375 21.84375 45.5625 
Q 25.390625 42.390625 31.78125 42.390625 
Q 38.140625 42.390625 41.71875 45.5625 
Q 45.3125 48.734375 45.3125 54.390625 
Q 45.3125 60.0625 41.71875 63.234375 
Q 38.140625 66.40625 31.78125 66.40625 
Q 25.390625 66.40625 21.84375 63.234375 
Q 18.3125 60.0625 18.3125 54.390625 
z
" id="DejaVuSans-56"/>
      </defs>
      <g transform="translate(398.196098 329.598437)scale(0.1 -0.1)">
       <use xlink:href="#DejaVuSans-56"/>
       <use x="63.623047" xlink:href="#DejaVuSans-48"/>
       <use x="127.246094" xlink:href="#DejaVuSans-48"/>
      </g>
     </g>
    </g>
    <g id="xtick_6">
     <g id="line2d_11">
      <path clip-path="url(#p4d37873874)" d="M 480.833901 315 
L 480.833901 43.2 
" style="fill:none;stroke:#b0b0b0;stroke-linecap:square;stroke-width:0.8;"/>
     </g>
     <g id="line2d_12">
      <g>
       <use style="stroke:#000000;stroke-width:0.8;" x="480.833901" xlink:href="#mad58808dd0" y="315"/>
      </g>
     </g>
     <g id="text_6">
      <!-- 1000 -->
      <defs>
       <path d="M 12.40625 8.296875 
L 28.515625 8.296875 
L 28.515625 63.921875 
L 10.984375 60.40625 
L 10.984375 69.390625 
L 28.421875 72.90625 
L 38.28125 72.90625 
L 38.28125 8.296875 
L 54.390625 8.296875 
L 54.390625 0 
L 12.40625 0 
z
" id="DejaVuSans-49"/>
      </defs>
      <g transform="translate(468.108901 329.598437)scale(0.1 -0.1)">
       <use xlink:href="#DejaVuSans-49"/>
       <use x="63.623047" xlink:href="#DejaVuSans-48"/>
       <use x="127.246094" xlink:href="#DejaVuSans-48"/>
       <use x="190.869141" xlink:href="#DejaVuSans-48"/>
      </g>
     </g>
    </g>
    <g id="xtick_7">
     <g id="line2d_13">
      <path clip-path="url(#p4d37873874)" d="M 553.927954 315 
L 553.927954 43.2 
" style="fill:none;stroke:#b0b0b0;stroke-linecap:square;stroke-width:0.8;"/>
     </g>
     <g id="line2d_14">
      <g>
       <use style="stroke:#000000;stroke-width:0.8;" x="553.927954" xlink:href="#mad58808dd0" y="315"/>
      </g>
     </g>
     <g id="text_7">
      <!-- 1200 -->
      <g transform="translate(541.202954 329.598437)scale(0.1 -0.1)">
       <use xlink:href="#DejaVuSans-49"/>
       <use x="63.623047" xlink:href="#DejaVuSans-50"/>
       <use x="127.246094" xlink:href="#DejaVuSans-48"/>
       <use x="190.869141" xlink:href="#DejaVuSans-48"/>
      </g>
     </g>
    </g>
    <g id="xtick_8">
     <g id="line2d_15">
      <path clip-path="url(#p4d37873874)" d="M 627.022007 315 
L 627.022007 43.2 
" style="fill:none;stroke:#b0b0b0;stroke-linecap:square;stroke-width:0.8;"/>
     </g>
     <g id="line2d_16">
      <g>
       <use style="stroke:#000000;stroke-width:0.8;" x="627.022007" xlink:href="#mad58808dd0" y="315"/>
      </g>
     </g>
     <g id="text_8">
      <!-- 1400 -->
      <g transform="translate(614.297007 329.598437)scale(0.1 -0.1)">
       <use xlink:href="#DejaVuSans-49"/>
       <use x="63.623047" xlink:href="#DejaVuSans-52"/>
       <use x="127.246094" xlink:href="#DejaVuSans-48"/>
       <use x="190.869141" xlink:href="#DejaVuSans-48"/>
      </g>
     </g>
    </g>
    <g id="text_9">
     <!-- epoch -->
     <defs>
      <path d="M 56.203125 29.59375 
L 56.203125 25.203125 
L 14.890625 25.203125 
Q 15.484375 15.921875 20.484375 11.0625 
Q 25.484375 6.203125 34.421875 6.203125 
Q 39.59375 6.203125 44.453125 7.46875 
Q 49.3125 8.734375 54.109375 11.28125 
L 54.109375 2.78125 
Q 49.265625 0.734375 44.1875 -0.34375 
Q 39.109375 -1.421875 33.890625 -1.421875 
Q 20.796875 -1.421875 13.15625 6.1875 
Q 5.515625 13.8125 5.515625 26.8125 
Q 5.515625 40.234375 12.765625 48.109375 
Q 20.015625 56 32.328125 56 
Q 43.359375 56 49.78125 48.890625 
Q 56.203125 41.796875 56.203125 29.59375 
z
M 47.21875 32.234375 
Q 47.125 39.59375 43.09375 43.984375 
Q 39.0625 48.390625 32.421875 48.390625 
Q 24.90625 48.390625 20.390625 44.140625 
Q 15.875 39.890625 15.1875 32.171875 
z
" id="DejaVuSans-101"/>
      <path d="M 18.109375 8.203125 
L 18.109375 -20.796875 
L 9.078125 -20.796875 
L 9.078125 54.6875 
L 18.109375 54.6875 
L 18.109375 46.390625 
Q 20.953125 51.265625 25.265625 53.625 
Q 29.59375 56 35.59375 56 
Q 45.5625 56 51.78125 48.09375 
Q 58.015625 40.1875 58.015625 27.296875 
Q 58.015625 14.40625 51.78125 6.484375 
Q 45.5625 -1.421875 35.59375 -1.421875 
Q 29.59375 -1.421875 25.265625 0.953125 
Q 20.953125 3.328125 18.109375 8.203125 
z
M 48.6875 27.296875 
Q 48.6875 37.203125 44.609375 42.84375 
Q 40.53125 48.484375 33.40625 48.484375 
Q 26.265625 48.484375 22.1875 42.84375 
Q 18.109375 37.203125 18.109375 27.296875 
Q 18.109375 17.390625 22.1875 11.75 
Q 26.265625 6.109375 33.40625 6.109375 
Q 40.53125 6.109375 44.609375 11.75 
Q 48.6875 17.390625 48.6875 27.296875 
z
" id="DejaVuSans-112"/>
      <path d="M 30.609375 48.390625 
Q 23.390625 48.390625 19.1875 42.75 
Q 14.984375 37.109375 14.984375 27.296875 
Q 14.984375 17.484375 19.15625 11.84375 
Q 23.34375 6.203125 30.609375 6.203125 
Q 37.796875 6.203125 41.984375 11.859375 
Q 46.1875 17.53125 46.1875 27.296875 
Q 46.1875 37.015625 41.984375 42.703125 
Q 37.796875 48.390625 30.609375 48.390625 
z
M 30.609375 56 
Q 42.328125 56 49.015625 48.375 
Q 55.71875 40.765625 55.71875 27.296875 
Q 55.71875 13.875 49.015625 6.21875 
Q 42.328125 -1.421875 30.609375 -1.421875 
Q 18.84375 -1.421875 12.171875 6.21875 
Q 5.515625 13.875 5.515625 27.296875 
Q 5.515625 40.765625 12.171875 48.375 
Q 18.84375 56 30.609375 56 
z
" id="DejaVuSans-111"/>
      <path d="M 48.78125 52.59375 
L 48.78125 44.1875 
Q 44.96875 46.296875 41.140625 47.34375 
Q 37.3125 48.390625 33.40625 48.390625 
Q 24.65625 48.390625 19.8125 42.84375 
Q 14.984375 37.3125 14.984375 27.296875 
Q 14.984375 17.28125 19.8125 11.734375 
Q 24.65625 6.203125 33.40625 6.203125 
Q 37.3125 6.203125 41.140625 7.25 
Q 44.96875 8.296875 48.78125 10.40625 
L 48.78125 2.09375 
Q 45.015625 0.34375 40.984375 -0.53125 
Q 36.96875 -1.421875 32.421875 -1.421875 
Q 20.0625 -1.421875 12.78125 6.34375 
Q 5.515625 14.109375 5.515625 27.296875 
Q 5.515625 40.671875 12.859375 48.328125 
Q 20.21875 56 33.015625 56 
Q 37.15625 56 41.109375 55.140625 
Q 45.0625 54.296875 48.78125 52.59375 
z
" id="DejaVuSans-99"/>
      <path d="M 54.890625 33.015625 
L 54.890625 0 
L 45.90625 0 
L 45.90625 32.71875 
Q 45.90625 40.484375 42.875 44.328125 
Q 39.84375 48.1875 33.796875 48.1875 
Q 26.515625 48.1875 22.3125 43.546875 
Q 18.109375 38.921875 18.109375 30.90625 
L 18.109375 0 
L 9.078125 0 
L 9.078125 75.984375 
L 18.109375 75.984375 
L 18.109375 46.1875 
Q 21.34375 51.125 25.703125 53.5625 
Q 30.078125 56 35.796875 56 
Q 45.21875 56 50.046875 50.171875 
Q 54.890625 44.34375 54.890625 33.015625 
z
" id="DejaVuSans-104"/>
     </defs>
     <g transform="translate(353.771875 343.276563)scale(0.1 -0.1)">
      <use xlink:href="#DejaVuSans-101"/>
      <use x="61.523438" xlink:href="#DejaVuSans-112"/>
      <use x="125" xlink:href="#DejaVuSans-111"/>
      <use x="186.181641" xlink:href="#DejaVuSans-99"/>
      <use x="241.162109" xlink:href="#DejaVuSans-104"/>
     </g>
    </g>
   </g>
   <g id="matplotlib.axis_2">
    <g id="ytick_1">
     <g id="line2d_17">
      <path clip-path="url(#p4d37873874)" d="M 90 284.035001 
L 648 284.035001 
" style="fill:none;stroke:#b0b0b0;stroke-linecap:square;stroke-width:0.8;"/>
     </g>
     <g id="line2d_18">
      <defs>
       <path d="M 0 0 
L -3.5 0 
" id="mb792d49b6d" style="stroke:#000000;stroke-width:0.8;"/>
      </defs>
      <g>
       <use style="stroke:#000000;stroke-width:0.8;" x="90" xlink:href="#mb792d49b6d" y="284.035001"/>
      </g>
     </g>
     <g id="text_10">
      <!-- 0.3 -->
      <defs>
       <path d="M 10.6875 12.40625 
L 21 12.40625 
L 21 0 
L 10.6875 0 
z
" id="DejaVuSans-46"/>
       <path d="M 40.578125 39.3125 
Q 47.65625 37.796875 51.625 33 
Q 55.609375 28.21875 55.609375 21.1875 
Q 55.609375 10.40625 48.1875 4.484375 
Q 40.765625 -1.421875 27.09375 -1.421875 
Q 22.515625 -1.421875 17.65625 -0.515625 
Q 12.796875 0.390625 7.625 2.203125 
L 7.625 11.71875 
Q 11.71875 9.328125 16.59375 8.109375 
Q 21.484375 6.890625 26.8125 6.890625 
Q 36.078125 6.890625 40.9375 10.546875 
Q 45.796875 14.203125 45.796875 21.1875 
Q 45.796875 27.640625 41.28125 31.265625 
Q 36.765625 34.90625 28.71875 34.90625 
L 20.21875 34.90625 
L 20.21875 43.015625 
L 29.109375 43.015625 
Q 36.375 43.015625 40.234375 45.921875 
Q 44.09375 48.828125 44.09375 54.296875 
Q 44.09375 59.90625 40.109375 62.90625 
Q 36.140625 65.921875 28.71875 65.921875 
Q 24.65625 65.921875 20.015625 65.03125 
Q 15.375 64.15625 9.8125 62.3125 
L 9.8125 71.09375 
Q 15.4375 72.65625 20.34375 73.4375 
Q 25.25 74.21875 29.59375 74.21875 
Q 40.828125 74.21875 47.359375 69.109375 
Q 53.90625 64.015625 53.90625 55.328125 
Q 53.90625 49.265625 50.4375 45.09375 
Q 46.96875 40.921875 40.578125 39.3125 
z
" id="DejaVuSans-51"/>
      </defs>
      <g transform="translate(67.096875 287.834219)scale(0.1 -0.1)">
       <use xlink:href="#DejaVuSans-48"/>
       <use x="63.623047" xlink:href="#DejaVuSans-46"/>
       <use x="95.410156" xlink:href="#DejaVuSans-51"/>
      </g>
     </g>
    </g>
    <g id="ytick_2">
     <g id="line2d_19">
      <path clip-path="url(#p4d37873874)" d="M 90 249.085791 
L 648 249.085791 
" style="fill:none;stroke:#b0b0b0;stroke-linecap:square;stroke-width:0.8;"/>
     </g>
     <g id="line2d_20">
      <g>
       <use style="stroke:#000000;stroke-width:0.8;" x="90" xlink:href="#mb792d49b6d" y="249.085791"/>
      </g>
     </g>
     <g id="text_11">
      <!-- 0.4 -->
      <g transform="translate(67.096875 252.88501)scale(0.1 -0.1)">
       <use xlink:href="#DejaVuSans-48"/>
       <use x="63.623047" xlink:href="#DejaVuSans-46"/>
       <use x="95.410156" xlink:href="#DejaVuSans-52"/>
      </g>
     </g>
    </g>
    <g id="ytick_3">
     <g id="line2d_21">
      <path clip-path="url(#p4d37873874)" d="M 90 214.136582 
L 648 214.136582 
" style="fill:none;stroke:#b0b0b0;stroke-linecap:square;stroke-width:0.8;"/>
     </g>
     <g id="line2d_22">
      <g>
       <use style="stroke:#000000;stroke-width:0.8;" x="90" xlink:href="#mb792d49b6d" y="214.136582"/>
      </g>
     </g>
     <g id="text_12">
      <!-- 0.5 -->
      <defs>
       <path d="M 10.796875 72.90625 
L 49.515625 72.90625 
L 49.515625 64.59375 
L 19.828125 64.59375 
L 19.828125 46.734375 
Q 21.96875 47.46875 24.109375 47.828125 
Q 26.265625 48.1875 28.421875 48.1875 
Q 40.625 48.1875 47.75 41.5 
Q 54.890625 34.8125 54.890625 23.390625 
Q 54.890625 11.625 47.5625 5.09375 
Q 40.234375 -1.421875 26.90625 -1.421875 
Q 22.3125 -1.421875 17.546875 -0.640625 
Q 12.796875 0.140625 7.71875 1.703125 
L 7.71875 11.625 
Q 12.109375 9.234375 16.796875 8.0625 
Q 21.484375 6.890625 26.703125 6.890625 
Q 35.15625 6.890625 40.078125 11.328125 
Q 45.015625 15.765625 45.015625 23.390625 
Q 45.015625 31 40.078125 35.4375 
Q 35.15625 39.890625 26.703125 39.890625 
Q 22.75 39.890625 18.8125 39.015625 
Q 14.890625 38.140625 10.796875 36.28125 
z
" id="DejaVuSans-53"/>
      </defs>
      <g transform="translate(67.096875 217.935801)scale(0.1 -0.1)">
       <use xlink:href="#DejaVuSans-48"/>
       <use x="63.623047" xlink:href="#DejaVuSans-46"/>
       <use x="95.410156" xlink:href="#DejaVuSans-53"/>
      </g>
     </g>
    </g>
    <g id="ytick_4">
     <g id="line2d_23">
      <path clip-path="url(#p4d37873874)" d="M 90 179.187373 
L 648 179.187373 
" style="fill:none;stroke:#b0b0b0;stroke-linecap:square;stroke-width:0.8;"/>
     </g>
     <g id="line2d_24">
      <g>
       <use style="stroke:#000000;stroke-width:0.8;" x="90" xlink:href="#mb792d49b6d" y="179.187373"/>
      </g>
     </g>
     <g id="text_13">
      <!-- 0.6 -->
      <g transform="translate(67.096875 182.986592)scale(0.1 -0.1)">
       <use xlink:href="#DejaVuSans-48"/>
       <use x="63.623047" xlink:href="#DejaVuSans-46"/>
       <use x="95.410156" xlink:href="#DejaVuSans-54"/>
      </g>
     </g>
    </g>
    <g id="ytick_5">
     <g id="line2d_25">
      <path clip-path="url(#p4d37873874)" d="M 90 144.238164 
L 648 144.238164 
" style="fill:none;stroke:#b0b0b0;stroke-linecap:square;stroke-width:0.8;"/>
     </g>
     <g id="line2d_26">
      <g>
       <use style="stroke:#000000;stroke-width:0.8;" x="90" xlink:href="#mb792d49b6d" y="144.238164"/>
      </g>
     </g>
     <g id="text_14">
      <!-- 0.7 -->
      <defs>
       <path d="M 8.203125 72.90625 
L 55.078125 72.90625 
L 55.078125 68.703125 
L 28.609375 0 
L 18.3125 0 
L 43.21875 64.59375 
L 8.203125 64.59375 
z
" id="DejaVuSans-55"/>
      </defs>
      <g transform="translate(67.096875 148.037383)scale(0.1 -0.1)">
       <use xlink:href="#DejaVuSans-48"/>
       <use x="63.623047" xlink:href="#DejaVuSans-46"/>
       <use x="95.410156" xlink:href="#DejaVuSans-55"/>
      </g>
     </g>
    </g>
    <g id="ytick_6">
     <g id="line2d_27">
      <path clip-path="url(#p4d37873874)" d="M 90 109.288955 
L 648 109.288955 
" style="fill:none;stroke:#b0b0b0;stroke-linecap:square;stroke-width:0.8;"/>
     </g>
     <g id="line2d_28">
      <g>
       <use style="stroke:#000000;stroke-width:0.8;" x="90" xlink:href="#mb792d49b6d" y="109.288955"/>
      </g>
     </g>
     <g id="text_15">
      <!-- 0.8 -->
      <g transform="translate(67.096875 113.088173)scale(0.1 -0.1)">
       <use xlink:href="#DejaVuSans-48"/>
       <use x="63.623047" xlink:href="#DejaVuSans-46"/>
       <use x="95.410156" xlink:href="#DejaVuSans-56"/>
      </g>
     </g>
    </g>
    <g id="ytick_7">
     <g id="line2d_29">
      <path clip-path="url(#p4d37873874)" d="M 90 74.339745 
L 648 74.339745 
" style="fill:none;stroke:#b0b0b0;stroke-linecap:square;stroke-width:0.8;"/>
     </g>
     <g id="line2d_30">
      <g>
       <use style="stroke:#000000;stroke-width:0.8;" x="90" xlink:href="#mb792d49b6d" y="74.339745"/>
      </g>
     </g>
     <g id="text_16">
      <!-- 0.9 -->
      <defs>
       <path d="M 10.984375 1.515625 
L 10.984375 10.5 
Q 14.703125 8.734375 18.5 7.8125 
Q 22.3125 6.890625 25.984375 6.890625 
Q 35.75 6.890625 40.890625 13.453125 
Q 46.046875 20.015625 46.78125 33.40625 
Q 43.953125 29.203125 39.59375 26.953125 
Q 35.25 24.703125 29.984375 24.703125 
Q 19.046875 24.703125 12.671875 31.3125 
Q 6.296875 37.9375 6.296875 49.421875 
Q 6.296875 60.640625 12.9375 67.421875 
Q 19.578125 74.21875 30.609375 74.21875 
Q 43.265625 74.21875 49.921875 64.515625 
Q 56.59375 54.828125 56.59375 36.375 
Q 56.59375 19.140625 48.40625 8.859375 
Q 40.234375 -1.421875 26.421875 -1.421875 
Q 22.703125 -1.421875 18.890625 -0.6875 
Q 15.09375 0.046875 10.984375 1.515625 
z
M 30.609375 32.421875 
Q 37.25 32.421875 41.125 36.953125 
Q 45.015625 41.5 45.015625 49.421875 
Q 45.015625 57.28125 41.125 61.84375 
Q 37.25 66.40625 30.609375 66.40625 
Q 23.96875 66.40625 20.09375 61.84375 
Q 16.21875 57.28125 16.21875 49.421875 
Q 16.21875 41.5 20.09375 36.953125 
Q 23.96875 32.421875 30.609375 32.421875 
z
" id="DejaVuSans-57"/>
      </defs>
      <g transform="translate(67.096875 78.138964)scale(0.1 -0.1)">
       <use xlink:href="#DejaVuSans-48"/>
       <use x="63.623047" xlink:href="#DejaVuSans-46"/>
       <use x="95.410156" xlink:href="#DejaVuSans-57"/>
      </g>
     </g>
    </g>
    <g id="text_17">
     <!-- accuracy -->
     <defs>
      <path d="M 34.28125 27.484375 
Q 23.390625 27.484375 19.1875 25 
Q 14.984375 22.515625 14.984375 16.5 
Q 14.984375 11.71875 18.140625 8.90625 
Q 21.296875 6.109375 26.703125 6.109375 
Q 34.1875 6.109375 38.703125 11.40625 
Q 43.21875 16.703125 43.21875 25.484375 
L 43.21875 27.484375 
z
M 52.203125 31.203125 
L 52.203125 0 
L 43.21875 0 
L 43.21875 8.296875 
Q 40.140625 3.328125 35.546875 0.953125 
Q 30.953125 -1.421875 24.3125 -1.421875 
Q 15.921875 -1.421875 10.953125 3.296875 
Q 6 8.015625 6 15.921875 
Q 6 25.140625 12.171875 29.828125 
Q 18.359375 34.515625 30.609375 34.515625 
L 43.21875 34.515625 
L 43.21875 35.40625 
Q 43.21875 41.609375 39.140625 45 
Q 35.0625 48.390625 27.6875 48.390625 
Q 23 48.390625 18.546875 47.265625 
Q 14.109375 46.140625 10.015625 43.890625 
L 10.015625 52.203125 
Q 14.9375 54.109375 19.578125 55.046875 
Q 24.21875 56 28.609375 56 
Q 40.484375 56 46.34375 49.84375 
Q 52.203125 43.703125 52.203125 31.203125 
z
" id="DejaVuSans-97"/>
      <path d="M 8.5 21.578125 
L 8.5 54.6875 
L 17.484375 54.6875 
L 17.484375 21.921875 
Q 17.484375 14.15625 20.5 10.265625 
Q 23.53125 6.390625 29.59375 6.390625 
Q 36.859375 6.390625 41.078125 11.03125 
Q 45.3125 15.671875 45.3125 23.6875 
L 45.3125 54.6875 
L 54.296875 54.6875 
L 54.296875 0 
L 45.3125 0 
L 45.3125 8.40625 
Q 42.046875 3.421875 37.71875 1 
Q 33.40625 -1.421875 27.6875 -1.421875 
Q 18.265625 -1.421875 13.375 4.4375 
Q 8.5 10.296875 8.5 21.578125 
z
M 31.109375 56 
z
" id="DejaVuSans-117"/>
      <path d="M 41.109375 46.296875 
Q 39.59375 47.171875 37.8125 47.578125 
Q 36.03125 48 33.890625 48 
Q 26.265625 48 22.1875 43.046875 
Q 18.109375 38.09375 18.109375 28.8125 
L 18.109375 0 
L 9.078125 0 
L 9.078125 54.6875 
L 18.109375 54.6875 
L 18.109375 46.1875 
Q 20.953125 51.171875 25.484375 53.578125 
Q 30.03125 56 36.53125 56 
Q 37.453125 56 38.578125 55.875 
Q 39.703125 55.765625 41.0625 55.515625 
z
" id="DejaVuSans-114"/>
      <path d="M 32.171875 -5.078125 
Q 28.375 -14.84375 24.75 -17.8125 
Q 21.140625 -20.796875 15.09375 -20.796875 
L 7.90625 -20.796875 
L 7.90625 -13.28125 
L 13.1875 -13.28125 
Q 16.890625 -13.28125 18.9375 -11.515625 
Q 21 -9.765625 23.484375 -3.21875 
L 25.09375 0.875 
L 2.984375 54.6875 
L 12.5 54.6875 
L 29.59375 11.921875 
L 46.6875 54.6875 
L 56.203125 54.6875 
z
" id="DejaVuSans-121"/>
     </defs>
     <g transform="translate(61.017187 201.659375)rotate(-90)scale(0.1 -0.1)">
      <use xlink:href="#DejaVuSans-97"/>
      <use x="61.279297" xlink:href="#DejaVuSans-99"/>
      <use x="116.259766" xlink:href="#DejaVuSans-99"/>
      <use x="171.240234" xlink:href="#DejaVuSans-117"/>
      <use x="234.619141" xlink:href="#DejaVuSans-114"/>
      <use x="275.732422" xlink:href="#DejaVuSans-97"/>
      <use x="337.011719" xlink:href="#DejaVuSans-99"/>
      <use x="391.992188" xlink:href="#DejaVuSans-121"/>
     </g>
    </g>
   </g>
   <g id="line2d_31">
    <path clip-path="url(#p4d37873874)" d="M 115.363636 302.383335 
L 115.729107 295.917732 
L 116.094577 302.208589 
L 116.460047 302.645455 
L 117.190988 299.762145 
L 117.556458 300.024264 
L 117.921928 295.655613 
L 118.287398 294.956629 
L 118.652869 298.451549 
L 119.018339 295.131375 
L 119.383809 294.257644 
L 119.74928 291.723827 
L 120.11475 296.092478 
L 120.48022 292.510184 
L 120.84569 296.704089 
L 121.211161 297.3157 
L 121.576631 294.082898 
L 121.942101 294.607136 
L 122.307571 292.073319 
L 122.673042 293.471287 
L 123.038512 291.286962 
L 123.403982 287.617295 
L 123.769452 282.200167 
L 124.134923 285.258223 
L 124.500393 284.733985 
L 124.865863 284.821358 
L 125.231334 282.374913 
L 125.596804 276.346175 
L 125.962274 275.559817 
L 126.327744 277.132532 
L 126.693215 276.608294 
L 127.424155 264.987682 
L 127.789625 262.890729 
L 128.155096 258.172586 
L 128.520566 256.163006 
L 128.886036 251.182744 
L 129.251506 249.260537 
L 129.982447 236.591449 
L 130.347917 238.513656 
L 130.713387 230.125845 
L 131.078858 234.232378 
L 131.444328 232.57229 
L 131.809798 219.466337 
L 132.175269 224.18448 
L 132.540739 219.291591 
L 132.906209 209.593185 
L 133.63715 212.825987 
L 134.00262 203.826566 
L 134.36809 207.321486 
L 134.73356 198.496811 
L 135.099031 200.156899 
L 135.464501 187.313064 
L 135.829971 194.390279 
L 136.195441 185.565604 
L 136.560912 187.837302 
L 137.291852 171.498547 
L 137.657323 173.770246 
L 138.022793 169.226848 
L 138.388263 167.741507 
L 139.484674 155.334538 
L 139.850144 155.247165 
L 140.215614 150.354275 
L 140.581085 142.578076 
L 140.946555 139.520021 
L 141.312025 141.704346 
L 142.408436 132.879671 
L 142.773906 134.365012 
L 143.504847 125.365591 
L 143.870317 128.685766 
L 144.235787 124.841353 
L 144.601258 119.162106 
L 144.966728 123.530757 
L 145.697668 118.201003 
L 146.063139 121.87067 
L 146.428609 117.152527 
L 146.794079 118.11363 
L 147.159549 117.589392 
L 147.52502 116.366169 
L 147.89049 114.35659 
L 148.25596 114.443963 
L 148.62143 116.715662 
L 148.986901 117.152527 
L 149.352371 118.899987 
L 149.717841 110.337431 
L 150.083312 113.48286 
L 150.448782 112.696503 
L 150.814252 110.337431 
L 151.179722 109.900566 
L 151.545193 107.104629 
L 151.910663 105.881407 
L 152.276133 107.71624 
L 152.641603 105.706661 
L 153.007074 102.299113 
L 153.372544 107.890986 
L 153.738014 104.83293 
L 154.103484 105.531915 
L 154.468955 104.658184 
L 154.834425 101.425383 
L 155.199895 106.405645 
L 155.565365 105.619288 
L 155.930836 103.871827 
L 156.296306 102.910724 
L 156.661776 101.600129 
L 157.027247 101.163263 
L 157.392717 100.551652 
L 157.758187 103.434962 
L 158.123657 98.804192 
L 158.489128 98.629446 
L 158.854598 101.600129 
L 159.220068 97.31885 
L 159.585538 97.406223 
L 159.951009 99.241057 
L 160.316479 99.32843 
L 161.047419 101.687502 
L 161.77836 95.658763 
L 162.14383 98.367327 
L 162.5093 95.221898 
L 162.874771 97.930462 
L 163.240241 95.484017 
L 163.605711 94.959779 
L 163.971182 90.329009 
L 164.336652 95.309271 
L 164.702122 96.183001 
L 165.067592 95.309271 
L 165.433063 92.163842 
L 165.798533 97.31885 
L 166.164003 91.552231 
L 166.529473 95.920882 
L 166.894944 91.989096 
L 167.260414 94.173422 
L 167.625884 93.299691 
L 167.991354 89.892144 
L 168.356825 89.018413 
L 169.087765 93.82393 
L 169.453236 90.416382 
L 169.818706 88.756294 
L 170.184176 89.80477 
L 170.549646 91.464858 
L 170.915117 88.406802 
L 171.646057 90.329009 
L 172.011527 89.80477 
L 172.376998 89.80477 
L 172.742468 87.096207 
L 173.107938 86.135104 
L 173.473408 87.096207 
L 173.838879 85.960357 
L 174.569819 90.94062 
L 174.935289 85.872984 
L 175.30076 93.736557 
L 176.397171 84.562389 
L 176.762641 86.135104 
L 177.128111 89.979517 
L 177.859052 87.882564 
L 178.589992 87.096207 
L 178.955462 85.348746 
L 179.320933 85.436119 
L 180.051873 87.882564 
L 180.417343 85.872984 
L 180.782814 87.358326 
L 181.148284 87.096207 
L 181.513754 88.93104 
L 181.879225 88.319429 
L 182.244695 86.834088 
L 182.610165 87.882564 
L 182.975635 85.436119 
L 183.341106 86.484596 
L 183.706576 86.484596 
L 184.072046 83.863405 
L 184.437516 85.610865 
L 184.802987 83.077048 
L 185.168457 84.911881 
L 185.533927 84.30027 
L 185.899397 84.475016 
L 186.264868 85.261373 
L 186.630338 81.853825 
L 186.995808 82.727556 
L 187.361278 82.29069 
L 187.726749 83.339167 
L 188.092219 81.242214 
L 188.457689 84.038151 
L 188.82316 85.785611 
L 189.18863 82.902302 
L 189.5541 83.251794 
L 190.285041 79.6695 
L 190.650511 83.339167 
L 191.015981 81.941198 
L 191.381451 82.465437 
L 191.746922 84.737135 
L 192.477862 82.115944 
L 192.843332 82.465437 
L 193.208803 82.115944 
L 193.574273 79.844246 
L 193.939743 83.601286 
L 194.305214 79.145262 
L 194.670684 84.911881 
L 195.036154 81.329587 
L 195.401624 79.407381 
L 195.767095 80.281111 
L 196.132565 82.902302 
L 196.498035 80.368484 
L 197.228976 78.271531 
L 197.594446 79.494754 
L 197.959916 82.29069 
L 198.325386 78.358904 
L 198.690857 82.902302 
L 199.056327 78.621024 
L 199.421797 79.844246 
L 199.787267 80.368484 
L 200.518208 78.096785 
L 200.883678 81.154841 
L 201.249149 78.446277 
L 201.614619 81.329587 
L 201.980089 79.6695 
L 202.345559 79.232635 
L 202.71103 77.65992 
L 203.0765 79.232635 
L 203.44197 77.397801 
L 203.80744 82.378064 
L 204.172911 77.135682 
L 204.538381 77.485174 
L 204.903851 78.271531 
L 205.269321 77.485174 
L 205.634792 78.533651 
L 206.000262 78.358904 
L 206.365732 76.174579 
L 206.731203 78.533651 
L 207.096673 77.048309 
L 207.462143 74.863984 
L 207.827613 77.485174 
L 208.193084 78.009412 
L 208.558554 78.184158 
L 208.924024 77.135682 
L 209.289494 77.485174 
L 209.654965 78.621024 
L 210.020435 75.213476 
L 210.385905 77.135682 
L 210.751375 80.717976 
L 211.116846 78.009412 
L 211.482316 78.446277 
L 211.847786 75.388222 
L 212.578727 78.358904 
L 212.944197 74.514491 
L 213.675138 77.485174 
L 214.040608 77.485174 
L 214.406078 76.261952 
L 214.771548 74.077626 
L 215.137019 79.320008 
L 215.502489 75.737714 
L 215.867959 76.174579 
L 216.233429 75.126103 
L 216.5989 77.572547 
L 216.96437 77.485174 
L 217.32984 75.300849 
L 217.69531 75.562968 
L 218.426251 78.446277 
L 218.791721 76.087206 
L 219.157192 74.863984 
L 219.522662 75.737714 
L 219.888132 75.475595 
L 220.253602 74.689237 
L 220.619073 74.951357 
L 220.984543 75.388222 
L 221.350013 76.087206 
L 221.715483 72.15542 
L 222.080954 75.999833 
L 222.446424 75.300849 
L 222.811894 76.960936 
L 223.177364 75.825087 
L 223.908305 74.514491 
L 224.273775 73.728134 
L 224.639245 73.990253 
L 225.004716 75.03873 
L 225.370186 72.941777 
L 225.735656 74.077626 
L 226.101127 72.417539 
L 226.466597 77.397801 
L 226.832067 74.951357 
L 227.197537 75.126103 
L 227.563008 74.951357 
L 227.928478 74.339745 
L 228.293948 74.164999 
L 228.659418 73.640761 
L 229.024889 75.300849 
L 229.390359 74.339745 
L 229.755829 72.504912 
L 230.121299 75.03873 
L 230.48677 73.553388 
L 230.85224 75.475595 
L 231.21771 72.767031 
L 231.583181 73.203896 
L 232.314121 76.087206 
L 232.679591 74.689237 
L 233.410532 73.90288 
L 233.776002 73.90288 
L 234.141472 73.553388 
L 234.506943 72.679658 
L 234.872413 72.854404 
L 235.237883 72.679658 
L 235.603353 72.854404 
L 235.968824 70.670078 
L 236.334294 74.601864 
L 236.699764 75.213476 
L 237.065234 71.106944 
L 237.430705 72.854404 
L 237.796175 72.679658 
L 238.161645 72.941777 
L 238.527116 73.466015 
L 238.892586 73.553388 
L 239.258056 72.068047 
L 239.623526 72.767031 
L 239.988997 72.417539 
L 240.354467 70.495332 
L 240.719937 74.776611 
L 241.450878 72.15542 
L 241.816348 72.679658 
L 242.181818 72.417539 
L 242.547288 69.708975 
L 242.912759 69.883721 
L 243.278229 72.679658 
L 243.643699 71.194317 
L 244.00917 71.805928 
L 244.37464 71.194317 
L 244.74011 70.844824 
L 245.10558 71.194317 
L 245.471051 73.728134 
L 245.836521 70.844824 
L 246.201991 70.757451 
L 246.567461 71.194317 
L 247.298402 68.223634 
L 247.663872 70.058467 
L 248.029342 75.825087 
L 248.394813 71.893301 
L 248.760283 73.378642 
L 249.125753 72.15542 
L 249.491223 71.456436 
L 249.856694 71.631182 
L 250.222164 70.757451 
L 250.587634 70.320586 
L 251.318575 72.679658 
L 251.684045 71.543809 
L 252.049515 69.534229 
L 252.414986 71.631182 
L 252.780456 71.893301 
L 253.145926 70.320586 
L 253.511396 71.28169 
L 253.876867 72.941777 
L 254.242337 69.621602 
L 254.607807 71.194317 
L 254.973277 71.019571 
L 255.338748 71.106944 
L 255.704218 73.640761 
L 256.069688 71.805928 
L 256.435159 71.631182 
L 256.800629 69.446856 
L 257.166099 71.456436 
L 257.89704 69.359483 
L 258.26251 70.320586 
L 258.62798 73.203896 
L 258.99345 69.009991 
L 259.358921 70.233213 
L 259.724391 70.233213 
L 260.089861 71.106944 
L 260.820802 70.14584 
L 261.186272 70.844824 
L 261.551742 69.883721 
L 262.282683 72.854404 
L 262.648153 70.14584 
L 263.013623 69.27211 
L 263.379094 70.320586 
L 263.744564 69.27211 
L 264.110034 70.320586 
L 264.475504 68.922618 
L 264.840975 69.097364 
L 265.206445 71.631182 
L 265.571915 70.495332 
L 265.937385 70.757451 
L 266.302856 69.883721 
L 266.668326 69.534229 
L 267.033796 69.796348 
L 267.399266 71.106944 
L 267.764737 70.495332 
L 268.130207 71.019571 
L 268.495677 69.796348 
L 268.861147 70.932198 
L 269.226618 70.233213 
L 269.592088 69.184737 
L 269.957558 69.27211 
L 270.688499 70.320586 
L 271.053969 70.582705 
L 271.419439 68.485753 
L 271.78491 70.233213 
L 272.15038 69.184737 
L 272.51585 67.437277 
L 272.88132 67.262531 
L 273.246791 69.359483 
L 273.612261 70.058467 
L 273.977731 69.184737 
L 274.343201 69.534229 
L 274.708672 71.980674 
L 275.439612 67.961515 
L 275.805083 69.708975 
L 276.170553 70.14584 
L 276.536023 68.485753 
L 276.901493 67.612023 
L 277.266964 71.980674 
L 277.632434 70.495332 
L 277.997904 69.883721 
L 278.363374 67.087784 
L 278.728845 68.136261 
L 279.094315 71.106944 
L 279.459785 67.52465 
L 279.825255 67.961515 
L 280.190726 70.058467 
L 280.556196 67.349904 
L 280.921666 66.476173 
L 281.287136 69.883721 
L 281.652607 72.242793 
L 282.018077 67.874142 
L 282.383547 70.757451 
L 282.749018 71.456436 
L 283.114488 70.233213 
L 283.479958 71.369063 
L 283.845428 67.087784 
L 284.210899 70.757451 
L 284.576369 68.660499 
L 284.941839 67.786769 
L 285.307309 68.835245 
L 285.67278 66.301427 
L 286.40372 69.184737 
L 286.76919 70.320586 
L 287.134661 68.485753 
L 287.500131 67.874142 
L 287.865601 67.874142 
L 288.596542 69.446856 
L 288.962012 65.864562 
L 289.327482 69.534229 
L 289.692953 67.874142 
L 290.058423 68.922618 
L 290.423893 66.825665 
L 290.789363 69.796348 
L 291.154834 68.048888 
L 291.520304 68.39838 
L 291.885774 67.000411 
L 292.251244 67.437277 
L 292.616715 68.136261 
L 292.982185 66.563546 
L 293.347655 67.699396 
L 293.713125 67.000411 
L 294.078596 67.175158 
L 294.444066 68.660499 
L 294.809536 68.747872 
L 295.175007 68.048888 
L 295.540477 69.708975 
L 295.905947 69.446856 
L 296.271417 67.874142 
L 296.636888 69.097364 
L 297.002358 67.349904 
L 297.367828 69.009991 
L 297.733298 65.689816 
L 298.098769 68.485753 
L 298.464239 69.446856 
L 298.829709 68.747872 
L 299.195179 67.175158 
L 299.56065 67.961515 
L 299.92612 65.340324 
L 300.29159 66.126681 
L 300.657061 67.262531 
L 301.022531 67.437277 
L 301.388001 66.825665 
L 301.753471 69.27211 
L 302.118942 67.262531 
L 302.484412 68.660499 
L 302.849882 66.825665 
L 303.215352 66.825665 
L 303.580823 68.485753 
L 303.946293 66.825665 
L 304.311763 67.175158 
L 304.677233 66.825665 
L 305.042704 66.039308 
L 305.408174 67.262531 
L 305.773644 66.3888 
L 306.139114 68.136261 
L 306.504585 65.689816 
L 306.870055 67.000411 
L 307.235525 64.466594 
L 307.600996 65.165578 
L 307.966466 66.738292 
L 308.331936 66.913038 
L 308.697406 65.427697 
L 309.062877 67.437277 
L 309.428347 65.51507 
L 309.793817 66.913038 
L 310.159287 66.214054 
L 310.524758 66.301427 
L 310.890228 68.39838 
L 311.255698 66.301427 
L 311.621168 67.087784 
L 311.986639 66.126681 
L 312.352109 68.573126 
L 312.717579 66.650919 
L 313.08305 66.214054 
L 313.44852 66.214054 
L 313.81399 66.563546 
L 314.17946 65.689816 
L 314.544931 67.437277 
L 314.910401 64.029729 
L 315.275871 65.689816 
L 315.641341 65.689816 
L 316.372282 66.563546 
L 316.737752 66.650919 
L 317.468693 65.165578 
L 317.834163 67.699396 
L 318.199633 65.165578 
L 318.565103 64.204475 
L 318.930574 66.476173 
L 319.296044 65.951935 
L 319.661514 68.922618 
L 320.026985 66.214054 
L 321.123395 66.3888 
L 321.488866 65.777189 
L 321.854336 65.602443 
L 322.219806 66.476173 
L 322.585276 65.864562 
L 322.950747 67.262531 
L 323.316217 63.854983 
L 323.681687 64.903459 
L 324.047157 64.379221 
L 324.412628 66.214054 
L 324.778098 67.087784 
L 325.143568 66.825665 
L 325.509039 66.039308 
L 325.874509 63.854983 
L 326.239979 67.000411 
L 326.605449 65.252951 
L 326.97092 64.553967 
L 327.33639 65.51507 
L 327.70186 64.990832 
L 328.06733 66.214054 
L 328.432801 66.913038 
L 328.798271 64.553967 
L 329.163741 66.126681 
L 329.529211 64.728713 
L 329.894682 67.961515 
L 330.260152 66.650919 
L 330.625622 64.553967 
L 330.991092 65.252951 
L 331.356563 64.816086 
L 331.722033 63.942356 
L 332.087503 65.689816 
L 332.452974 65.078205 
L 332.818444 63.76761 
L 333.183914 65.427697 
L 333.549384 67.961515 
L 333.914855 64.903459 
L 334.280325 64.553967 
L 334.645795 64.903459 
L 335.011265 67.349904 
L 335.376736 66.825665 
L 336.107676 63.155998 
L 336.473146 65.165578 
L 336.838617 66.476173 
L 337.935028 64.117102 
L 338.300498 64.903459 
L 338.665968 66.738292 
L 339.031438 64.816086 
L 339.762379 65.689816 
L 340.127849 64.816086 
L 340.85879 66.214054 
L 341.22426 63.854983 
L 341.58973 62.457014 
L 342.320671 63.592864 
L 342.686141 65.165578 
L 343.051611 64.64134 
L 343.417081 65.165578 
L 343.782552 62.981252 
L 344.148022 65.777189 
L 344.513492 65.864562 
L 344.878963 64.990832 
L 345.244433 65.340324 
L 345.609903 66.3888 
L 345.975373 65.427697 
L 346.340844 63.418118 
L 346.706314 63.76761 
L 347.071784 67.262531 
L 347.437254 65.427697 
L 347.802725 67.437277 
L 348.168195 65.078205 
L 348.533665 64.291848 
L 348.899135 65.602443 
L 349.264606 65.689816 
L 349.630076 65.252951 
L 349.995546 65.427697 
L 350.361017 65.078205 
L 350.726487 64.466594 
L 351.091957 64.903459 
L 351.457427 64.117102 
L 351.822898 64.466594 
L 352.188368 64.553967 
L 352.553838 66.301427 
L 352.919308 64.204475 
L 353.284779 64.029729 
L 353.650249 64.903459 
L 354.015719 63.155998 
L 354.381189 64.204475 
L 354.74666 66.563546 
L 355.11213 64.553967 
L 355.4776 63.76761 
L 355.84307 64.466594 
L 356.208541 64.553967 
L 356.574011 64.029729 
L 356.939481 65.252951 
L 357.304952 64.291848 
L 357.670422 62.457014 
L 358.035892 64.029729 
L 358.401362 63.592864 
L 358.766833 66.039308 
L 359.497773 63.505491 
L 359.863243 61.75803 
L 360.228714 63.854983 
L 360.594184 65.078205 
L 360.959654 64.903459 
L 361.325124 64.553967 
L 362.056065 65.777189 
L 362.421535 62.719133 
L 362.787006 65.864562 
L 363.152476 62.719133 
L 363.883416 67.612023 
L 364.248887 64.117102 
L 364.614357 62.544387 
L 364.979827 63.680237 
L 365.345297 64.029729 
L 365.710768 62.194895 
L 366.076238 61.75803 
L 366.441708 63.243371 
L 366.807178 62.981252 
L 367.172649 63.680237 
L 367.903589 63.418118 
L 368.269059 64.291848 
L 368.63453 62.282268 
L 369 64.029729 
L 369.36547 63.942356 
L 369.730941 62.63176 
L 370.096411 64.903459 
L 370.461881 64.204475 
L 370.827351 64.029729 
L 371.192822 64.728713 
L 371.558292 62.893879 
L 372.289232 64.903459 
L 372.654703 63.942356 
L 373.020173 62.194895 
L 373.385643 64.553967 
L 373.751113 64.204475 
L 374.116584 63.592864 
L 375.212994 63.330745 
L 375.578465 61.495911 
L 375.943935 62.981252 
L 376.309405 62.719133 
L 376.674876 62.63176 
L 377.040346 63.068625 
L 377.405816 62.981252 
L 377.771286 63.155998 
L 378.136757 62.544387 
L 378.502227 62.719133 
L 378.867697 62.194895 
L 379.233167 62.719133 
L 379.598638 64.379221 
L 379.964108 63.942356 
L 380.329578 62.282268 
L 380.695048 65.602443 
L 381.060519 62.020149 
L 381.425989 62.544387 
L 382.15693 64.204475 
L 382.5224 64.204475 
L 382.88787 62.457014 
L 383.25334 63.592864 
L 383.618811 63.505491 
L 383.984281 63.854983 
L 384.349751 63.505491 
L 384.715221 64.029729 
L 385.080692 64.816086 
L 385.446162 62.194895 
L 385.811632 63.680237 
L 386.542573 63.243371 
L 386.908043 64.903459 
L 387.273513 63.942356 
L 387.638983 64.816086 
L 388.004454 64.291848 
L 388.369924 64.291848 
L 388.735394 60.447435 
L 389.100865 63.76761 
L 389.466335 63.068625 
L 389.831805 64.466594 
L 390.197275 62.282268 
L 390.562746 62.194895 
L 390.928216 65.078205 
L 391.293686 62.282268 
L 391.659156 61.233792 
L 392.024627 63.680237 
L 392.390097 61.845403 
L 392.755567 61.75803 
L 393.121037 62.806506 
L 393.486508 62.282268 
L 393.851978 63.155998 
L 394.217448 60.796927 
L 394.582919 61.583284 
L 395.313859 61.146419 
L 395.679329 62.544387 
L 396.0448 63.243371 
L 396.41027 61.408538 
L 396.77574 61.845403 
L 397.14121 63.155998 
L 397.506681 62.282268 
L 397.872151 64.990832 
L 398.237621 62.457014 
L 398.968562 61.408538 
L 399.334032 61.321165 
L 399.699502 61.932776 
L 400.064972 63.155998 
L 400.430443 63.592864 
L 400.795913 63.068625 
L 401.526854 62.981252 
L 401.892324 60.534808 
L 402.257794 63.854983 
L 402.623264 62.194895 
L 402.988735 61.233792 
L 403.719675 63.068625 
L 404.085145 63.155998 
L 404.450616 62.369641 
L 404.816086 61.932776 
L 405.181556 64.379221 
L 405.912497 60.360062 
L 406.643437 63.330745 
L 407.008908 61.408538 
L 407.374378 60.971673 
L 407.739848 64.553967 
L 408.470789 61.146419 
L 409.201729 63.068625 
L 409.567199 60.534808 
L 409.93267 63.068625 
L 410.29814 61.233792 
L 410.66361 62.719133 
L 411.02908 61.321165 
L 411.394551 61.233792 
L 412.125491 63.592864 
L 412.490961 61.932776 
L 412.856432 64.64134 
L 413.587372 61.583284 
L 413.952843 64.117102 
L 414.318313 61.75803 
L 414.683783 63.76761 
L 415.049253 64.117102 
L 415.414724 63.505491 
L 415.780194 61.75803 
L 416.145664 63.418118 
L 416.876605 62.457014 
L 417.242075 61.583284 
L 417.607545 61.059046 
L 417.973015 61.583284 
L 418.338486 63.068625 
L 418.703956 60.447435 
L 419.069426 64.466594 
L 419.434897 60.796927 
L 419.800367 60.185316 
L 420.896778 62.544387 
L 421.262248 61.059046 
L 421.627718 61.146419 
L 421.993188 59.486331 
L 422.358659 60.534808 
L 422.724129 62.107522 
L 423.089599 58.699974 
L 423.455069 62.020149 
L 423.82054 61.321165 
L 424.18601 62.981252 
L 424.55148 62.719133 
L 424.91695 62.719133 
L 425.282421 59.398958 
L 425.647891 64.466594 
L 426.013361 62.457014 
L 426.378832 61.670657 
L 426.744302 64.029729 
L 427.109772 61.146419 
L 427.475242 63.418118 
L 428.206183 61.059046 
L 428.571653 61.583284 
L 428.937123 63.418118 
L 429.302594 62.63176 
L 429.668064 60.534808 
L 430.033534 59.398958 
L 430.399004 59.573705 
L 430.764475 62.63176 
L 431.129945 62.893879 
L 431.495415 61.321165 
L 431.860886 62.282268 
L 432.226356 61.845403 
L 432.591826 63.155998 
L 432.957296 61.75803 
L 433.322767 63.418118 
L 433.688237 63.068625 
L 434.053707 60.447435 
L 434.419177 61.670657 
L 434.784648 61.146419 
L 435.150118 60.185316 
L 435.881058 63.243371 
L 436.246529 62.107522 
L 436.611999 60.360062 
L 436.977469 61.932776 
L 437.342939 58.87472 
L 437.70841 59.049466 
L 438.07388 62.63176 
L 438.43935 61.932776 
L 438.804821 62.020149 
L 439.170291 64.728713 
L 439.535761 63.942356 
L 439.901231 60.185316 
L 440.266702 63.068625 
L 440.632172 61.75803 
L 440.997642 60.01057 
L 441.363112 59.835824 
L 441.728583 62.282268 
L 442.094053 61.845403 
L 442.459523 61.932776 
L 442.824993 61.75803 
L 443.190464 62.457014 
L 443.921404 61.670657 
L 444.286875 59.136839 
L 444.652345 59.835824 
L 445.017815 62.893879 
L 445.383285 62.369641 
L 445.748756 61.321165 
L 446.114226 58.787347 
L 446.479696 61.059046 
L 446.845166 60.360062 
L 447.576107 60.272689 
L 447.941577 59.835824 
L 448.307047 63.155998 
L 448.672518 60.01057 
L 449.403458 61.408538 
L 449.768928 60.272689 
L 450.134399 60.01057 
L 450.499869 59.049466 
L 450.865339 59.748451 
L 451.23081 62.457014 
L 451.59628 61.932776 
L 451.96175 61.75803 
L 452.692691 60.097943 
L 453.058161 61.670657 
L 453.423631 60.709554 
L 453.789101 61.495911 
L 454.154572 61.932776 
L 454.520042 61.146419 
L 454.885512 61.408538 
L 455.250982 61.845403 
L 455.616453 59.923197 
L 455.981923 61.583284 
L 456.347393 61.146419 
L 456.712864 59.136839 
L 457.078334 63.505491 
L 457.443804 61.321165 
L 458.174745 62.63176 
L 458.540215 61.75803 
L 458.905685 63.155998 
L 459.271155 62.719133 
L 459.636626 62.806506 
L 460.002096 62.457014 
L 460.367566 62.544387 
L 460.733036 59.311585 
L 461.098507 61.059046 
L 461.463977 61.321165 
L 461.829447 60.360062 
L 462.194917 60.971673 
L 462.560388 60.185316 
L 462.925858 60.360062 
L 463.291328 59.573705 
L 464.022269 61.75803 
L 464.387739 58.87472 
L 464.753209 60.01057 
L 465.11868 60.709554 
L 465.48415 59.835824 
L 465.84962 60.360062 
L 466.21509 58.437855 
L 466.580561 61.408538 
L 466.946031 60.272689 
L 467.311501 59.748451 
L 467.676971 60.360062 
L 468.042442 60.01057 
L 468.407912 60.097943 
L 468.773382 61.495911 
L 469.138853 60.8843 
L 469.869793 60.622181 
L 470.235263 62.544387 
L 470.600734 59.923197 
L 470.966204 60.01057 
L 471.331674 59.136839 
L 471.697144 59.923197 
L 472.428085 60.360062 
L 472.793555 60.796927 
L 473.159025 59.311585 
L 473.524496 58.787347 
L 473.889966 59.049466 
L 474.255436 60.01057 
L 474.620906 59.661078 
L 474.986377 59.661078 
L 475.351847 58.787347 
L 475.717317 60.447435 
L 476.082788 58.87472 
L 476.448258 61.75803 
L 476.813728 60.622181 
L 477.179198 60.097943 
L 477.544669 60.971673 
L 477.910139 59.049466 
L 478.275609 60.01057 
L 478.641079 62.457014 
L 479.00655 60.272689 
L 479.37202 60.622181 
L 479.73749 60.622181 
L 480.10296 61.233792 
L 480.468431 62.63176 
L 480.833901 58.437855 
L 481.199371 61.845403 
L 481.564841 62.544387 
L 481.930312 62.457014 
L 482.295782 61.495911 
L 482.661252 58.00099 
L 483.392193 59.835824 
L 483.757663 60.709554 
L 484.123133 60.360062 
L 484.488604 57.826244 
L 484.854074 60.272689 
L 485.219544 61.321165 
L 485.585014 59.835824 
L 485.950485 60.8843 
L 486.315955 59.311585 
L 486.681425 59.835824 
L 487.046895 59.923197 
L 487.412366 59.748451 
L 487.777836 59.136839 
L 488.508777 61.146419 
L 488.874247 61.583284 
L 489.239717 61.059046 
L 489.605187 60.8843 
L 489.970658 61.495911 
L 490.336128 60.8843 
L 490.701598 59.835824 
L 491.067068 60.447435 
L 491.432539 60.534808 
L 491.798009 59.049466 
L 492.163479 60.185316 
L 492.528949 60.447435 
L 492.89442 59.661078 
L 493.62536 60.971673 
L 493.99083 61.233792 
L 494.356301 61.670657 
L 494.721771 61.146419 
L 495.087241 61.233792 
L 495.818182 58.699974 
L 496.183652 60.534808 
L 496.549122 61.495911 
L 496.914593 60.971673 
L 497.280063 62.020149 
L 497.645533 59.573705 
L 498.011003 61.932776 
L 498.376474 59.398958 
L 498.741944 59.923197 
L 499.107414 60.709554 
L 499.472884 57.913617 
L 499.838355 60.796927 
L 500.203825 59.136839 
L 500.569295 61.146419 
L 500.934766 59.486331 
L 501.300236 61.146419 
L 501.665706 60.272689 
L 502.031176 60.185316 
L 502.396647 58.612601 
L 502.762117 61.233792 
L 503.127587 60.097943 
L 503.493057 60.01057 
L 503.858528 61.932776 
L 504.589468 59.661078 
L 504.954938 59.661078 
L 505.320409 60.709554 
L 505.685879 60.622181 
L 506.051349 59.398958 
L 506.416819 61.583284 
L 506.78229 58.263109 
L 507.14776 60.360062 
L 507.51323 59.224212 
L 507.878701 59.835824 
L 508.244171 58.87472 
L 508.609641 59.049466 
L 508.975111 58.350482 
L 509.340582 58.437855 
L 509.706052 60.185316 
L 510.071522 59.398958 
L 510.436992 59.486331 
L 510.802463 59.136839 
L 511.167933 62.020149 
L 511.898873 59.923197 
L 512.264344 59.573705 
L 512.995284 60.796927 
L 513.726225 60.185316 
L 514.091695 59.573705 
L 514.457165 59.224212 
L 514.822636 59.573705 
L 515.188106 60.622181 
L 515.553576 59.224212 
L 515.919046 61.146419 
L 516.284517 60.447435 
L 516.649987 61.75803 
L 517.015457 59.923197 
L 517.380927 59.573705 
L 517.746398 58.87472 
L 518.111868 60.360062 
L 518.477338 57.913617 
L 518.842808 59.661078 
L 519.208279 58.00099 
L 519.573749 58.175736 
L 519.939219 58.962093 
L 520.30469 57.564125 
L 520.67016 60.447435 
L 521.03563 56.952514 
L 521.4011 58.437855 
L 521.766571 60.534808 
L 522.132041 58.350482 
L 522.497511 59.049466 
L 522.862981 59.224212 
L 523.228452 60.709554 
L 523.593922 60.622181 
L 523.959392 58.787347 
L 524.324862 58.525228 
L 524.690333 58.437855 
L 525.055803 58.787347 
L 525.421273 61.146419 
L 525.786744 59.748451 
L 526.152214 59.573705 
L 526.517684 59.661078 
L 526.883154 60.534808 
L 527.248625 58.699974 
L 527.614095 60.097943 
L 527.979565 60.447435 
L 528.345035 57.214633 
L 528.710506 60.971673 
L 529.075976 60.447435 
L 529.441446 60.622181 
L 529.806916 59.923197 
L 530.172387 57.826244 
L 530.537857 61.408538 
L 530.903327 60.185316 
L 531.634268 59.136839 
L 531.999738 57.564125 
L 532.730679 59.136839 
L 533.096149 60.534808 
L 534.19256 57.476752 
L 534.9235 60.185316 
L 535.654441 59.923197 
L 536.019911 58.612601 
L 536.385381 60.534808 
L 536.750851 59.923197 
L 537.116322 59.049466 
L 537.481792 59.661078 
L 537.847262 57.826244 
L 538.578203 59.835824 
L 538.943673 60.360062 
L 539.309143 59.923197 
L 539.674614 58.263109 
L 540.040084 58.175736 
L 540.405554 58.787347 
L 540.771024 60.097943 
L 541.136495 60.272689 
L 541.501965 58.87472 
L 541.867435 60.447435 
L 542.232905 60.272689 
L 542.598376 56.515649 
L 542.963846 57.651498 
L 543.329316 57.826244 
L 543.694786 58.350482 
L 544.060257 58.525228 
L 544.425727 60.622181 
L 544.791197 59.748451 
L 545.156668 60.01057 
L 545.522138 59.748451 
L 546.253078 57.913617 
L 546.618549 58.525228 
L 546.984019 57.302006 
L 547.349489 59.224212 
L 547.714959 59.923197 
L 548.08043 58.350482 
L 548.4459 60.01057 
L 549.17684 58.87472 
L 549.542311 60.01057 
L 549.907781 57.913617 
L 550.273251 57.039887 
L 550.638722 59.398958 
L 551.004192 59.136839 
L 551.369662 58.612601 
L 551.735132 58.699974 
L 552.100603 58.263109 
L 552.466073 60.709554 
L 552.831543 58.00099 
L 553.197013 59.311585 
L 553.562484 59.923197 
L 553.927954 57.12726 
L 554.293424 59.748451 
L 554.658894 58.437855 
L 555.024365 58.962093 
L 555.389835 60.447435 
L 555.755305 56.25353 
L 556.120775 62.020149 
L 556.486246 59.049466 
L 556.851716 60.534808 
L 557.217186 57.476752 
L 557.582657 59.398958 
L 557.948127 58.612601 
L 558.313597 60.01057 
L 558.679067 60.796927 
L 559.044538 59.136839 
L 559.410008 59.573705 
L 559.775478 59.398958 
L 560.140948 57.389379 
L 560.506419 60.01057 
L 560.871889 60.534808 
L 561.237359 59.835824 
L 561.602829 59.573705 
L 561.9683 57.302006 
L 562.33377 58.525228 
L 562.69924 58.962093 
L 563.064711 58.699974 
L 563.430181 60.185316 
L 563.795651 58.175736 
L 564.161121 58.87472 
L 564.892062 58.787347 
L 565.257532 58.525228 
L 565.623002 59.049466 
L 565.988473 55.991411 
L 566.353943 57.738871 
L 566.719413 56.515649 
L 567.084883 59.835824 
L 567.450354 59.573705 
L 567.815824 58.437855 
L 568.181294 59.661078 
L 568.546764 59.923197 
L 568.912235 59.923197 
L 569.277705 57.476752 
L 569.643175 58.525228 
L 570.008646 61.408538 
L 570.374116 58.525228 
L 570.739586 58.088363 
L 571.105056 59.748451 
L 571.470527 60.185316 
L 571.835997 57.564125 
L 572.201467 58.437855 
L 572.566937 58.87472 
L 572.932408 56.340903 
L 573.297878 59.835824 
L 573.663348 56.428276 
L 574.028818 59.748451 
L 574.394289 58.437855 
L 574.759759 58.525228 
L 575.125229 62.369641 
L 575.4907 60.447435 
L 575.85617 59.136839 
L 576.22164 59.661078 
L 576.58711 58.350482 
L 576.952581 59.661078 
L 577.318051 59.486331 
L 578.048991 58.175736 
L 578.414462 57.12726 
L 578.779932 57.302006 
L 579.510872 56.952514 
L 579.876343 58.962093 
L 580.241813 57.389379 
L 580.607283 58.350482 
L 580.972753 57.039887 
L 581.338224 59.136839 
L 581.703694 58.962093 
L 582.069164 60.01057 
L 582.434635 60.185316 
L 582.800105 57.389379 
L 583.165575 59.224212 
L 583.531045 58.699974 
L 583.896516 60.185316 
L 584.261986 58.87472 
L 584.627456 60.971673 
L 584.992926 58.699974 
L 585.358397 60.447435 
L 585.723867 57.738871 
L 586.089337 59.923197 
L 586.454807 56.865141 
L 586.820278 57.826244 
L 587.185748 57.302006 
L 587.551218 59.661078 
L 587.916688 57.039887 
L 588.647629 58.87472 
L 589.013099 58.00099 
L 589.37857 59.661078 
L 589.74404 56.865141 
L 590.10951 59.398958 
L 590.47498 56.603022 
L 590.840451 59.311585 
L 591.205921 56.25353 
L 591.571391 57.564125 
L 591.936861 59.923197 
L 592.302332 58.525228 
L 592.667802 59.224212 
L 593.033272 58.088363 
L 593.398742 58.612601 
L 593.764213 58.525228 
L 594.129683 58.699974 
L 594.495153 57.476752 
L 594.860624 57.564125 
L 595.226094 56.166157 
L 595.591564 57.651498 
L 595.957034 57.913617 
L 596.687975 58.87472 
L 597.053445 60.097943 
L 597.418915 59.573705 
L 597.784386 58.088363 
L 598.149856 60.447435 
L 598.880796 56.515649 
L 599.246267 58.699974 
L 599.611737 57.913617 
L 599.977207 57.738871 
L 600.342677 59.136839 
L 600.708148 56.340903 
L 601.073618 56.952514 
L 601.439088 58.612601 
L 601.804559 55.554545 
L 602.170029 58.350482 
L 602.535499 57.476752 
L 602.900969 60.971673 
L 603.26644 60.01057 
L 603.63191 57.913617 
L 603.99738 59.398958 
L 604.36285 56.952514 
L 605.093791 56.166157 
L 605.459261 57.12726 
L 605.824731 57.738871 
L 606.190202 57.214633 
L 606.555672 57.564125 
L 606.921142 56.777768 
L 607.286613 57.389379 
L 607.652083 56.777768 
L 608.017553 57.564125 
L 608.383023 57.476752 
L 608.748494 56.865141 
L 609.113964 58.437855 
L 609.479434 57.476752 
L 609.844904 58.87472 
L 610.210375 58.787347 
L 610.575845 59.573705 
L 610.941315 58.263109 
L 611.672256 59.923197 
L 612.037726 59.661078 
L 612.403196 58.437855 
L 612.768666 58.699974 
L 613.134137 59.835824 
L 613.499607 57.039887 
L 613.865077 57.039887 
L 614.230548 58.175736 
L 614.596018 56.690395 
L 614.961488 57.564125 
L 615.326958 58.088363 
L 615.692429 57.826244 
L 616.057899 56.078784 
L 616.423369 58.87472 
L 616.788839 58.350482 
L 617.15431 59.573705 
L 617.51978 56.428276 
L 617.88525 56.428276 
L 618.25072 57.738871 
L 618.616191 58.525228 
L 619.347131 56.952514 
L 619.712602 57.12726 
L 620.078072 57.564125 
L 620.443542 56.340903 
L 620.809012 56.25353 
L 621.174483 56.865141 
L 621.539953 59.136839 
L 621.905423 57.214633 
L 622.270893 57.476752 
L 622.636364 59.311585 
L 622.636364 59.311585 
" style="fill:none;stroke:#1f77b4;stroke-linecap:square;stroke-width:0.5;"/>
   </g>
   <g id="line2d_32">
    <path clip-path="url(#p4d37873874)" d="M 115.363636 300.19901 
L 115.729107 298.276803 
L 116.094577 301.247486 
L 116.460047 299.412653 
L 116.825517 300.373756 
L 117.190988 300.810621 
L 117.556458 295.655613 
L 117.921928 293.209168 
L 118.287398 297.839938 
L 118.652869 299.063161 
L 119.018339 299.849518 
L 119.383809 297.752565 
L 119.74928 300.985367 
L 120.48022 295.655613 
L 120.84569 300.024264 
L 121.211161 292.510184 
L 121.576631 293.209168 
L 122.307571 296.354597 
L 122.673042 290.063739 
L 123.038512 288.840517 
L 123.403982 286.219326 
L 123.769452 282.28754 
L 124.134923 288.665771 
L 124.865863 283.510763 
L 125.231334 278.355754 
L 125.596804 282.112794 
L 125.962274 275.035579 
L 126.327744 275.122952 
L 126.693215 273.462865 
L 127.058685 264.987682 
L 127.424155 266.647769 
L 127.789625 266.909888 
L 128.155096 260.968523 
L 128.520566 253.192324 
L 128.886036 252.405966 
L 129.251506 249.435284 
L 129.616977 241.396965 
L 131.444328 220.514813 
L 131.809798 222.873885 
L 132.175269 216.058789 
L 132.540739 216.757773 
L 132.906209 212.651241 
L 133.271679 213.088106 
L 134.00262 202.253851 
L 134.36809 202.341224 
L 135.099031 192.380699 
L 135.464501 187.313064 
L 135.829971 186.264588 
L 136.195441 181.633818 
L 136.560912 182.158056 
L 136.926382 174.731349 
L 137.657323 168.789983 
L 138.022793 163.285483 
L 138.753733 158.217847 
L 139.119204 155.509284 
L 139.484674 148.606815 
L 139.850144 149.393172 
L 140.215614 141.267481 
L 140.581085 139.78214 
L 141.312025 134.714504 
L 141.677495 135.238742 
L 142.042966 134.190266 
L 142.408436 128.685766 
L 142.773906 126.414067 
L 143.139376 125.103472 
L 143.504847 125.365591 
L 143.870317 124.054995 
L 144.235787 121.695924 
L 144.601258 120.99694 
L 144.966728 116.191423 
L 145.332198 118.98736 
L 145.697668 113.919725 
L 146.063139 113.48286 
L 146.428609 111.298534 
L 146.794079 112.084891 
L 147.159549 111.910145 
L 147.52502 109.463701 
L 147.89049 111.560653 
L 148.25596 111.298534 
L 148.62143 108.502597 
L 148.986901 107.890986 
L 149.352371 112.609129 
L 149.717841 111.648026 
L 150.083312 110.337431 
L 150.448782 107.628867 
L 150.814252 103.784454 
L 151.179722 104.920303 
L 151.545193 101.774875 
L 151.910663 101.774875 
L 152.276133 99.066311 
L 152.641603 99.415803 
L 153.007074 100.813771 
L 153.372544 103.08547 
L 153.738014 99.765295 
L 154.103484 99.677922 
L 154.468955 101.862248 
L 154.834425 102.648605 
L 155.199895 99.765295 
L 155.930836 95.658763 
L 156.296306 96.270374 
L 156.661776 96.619866 
L 157.027247 94.086049 
L 157.392717 93.56181 
L 157.758187 96.532493 
L 158.123657 96.707239 
L 158.489128 92.163842 
L 158.854598 95.221898 
L 159.220068 94.785033 
L 159.585538 97.493597 
L 159.951009 94.69766 
L 160.316479 95.746136 
L 160.681949 92.775453 
L 161.047419 95.484017 
L 161.41289 91.989096 
L 161.77836 92.513334 
L 162.14383 91.81435 
L 162.5093 89.80477 
L 162.874771 89.630024 
L 163.240241 90.416382 
L 163.605711 90.329009 
L 163.971182 88.843667 
L 164.336652 89.280532 
L 164.702122 87.270953 
L 165.067592 90.853247 
L 165.433063 87.969937 
L 165.798533 87.795191 
L 166.164003 88.581548 
L 166.529473 88.756294 
L 166.894944 90.329009 
L 167.260414 87.533072 
L 167.625884 87.882564 
L 167.991354 87.008834 
L 168.356825 90.503755 
L 168.722295 82.640183 
L 169.087765 86.04773 
L 169.453236 84.911881 
L 169.818706 85.086627 
L 170.184176 86.834088 
L 170.549646 82.989675 
L 170.915117 84.475016 
L 171.280587 84.212897 
L 171.646057 85.872984 
L 172.011527 86.921461 
L 172.376998 84.649762 
L 172.742468 86.135104 
L 173.107938 82.378064 
L 173.473408 87.882564 
L 173.838879 87.096207 
L 174.204349 82.640183 
L 174.569819 83.164421 
L 174.935289 85.610865 
L 175.30076 84.212897 
L 176.0317 82.640183 
L 176.397171 84.824508 
L 177.128111 82.378064 
L 177.859052 84.387643 
L 178.224522 82.465437 
L 178.589992 84.562389 
L 178.955462 82.378064 
L 179.320933 81.591706 
L 179.686403 82.640183 
L 180.051873 81.853825 
L 180.417343 82.55281 
L 180.782814 84.212897 
L 181.148284 81.154841 
L 181.513754 83.863405 
L 181.879225 81.242214 
L 182.244695 81.941198 
L 182.610165 79.494754 
L 182.975635 80.892722 
L 183.341106 80.368484 
L 183.706576 80.281111 
L 184.072046 79.931619 
L 184.437516 79.844246 
L 184.802987 80.54323 
L 185.168457 78.358904 
L 185.533927 80.368484 
L 185.899397 78.621024 
L 186.264868 78.096785 
L 186.630338 76.349325 
L 186.995808 80.281111 
L 187.726749 76.960936 
L 188.092219 79.494754 
L 188.82316 75.91246 
L 189.18863 80.193738 
L 189.5541 76.349325 
L 189.91957 81.067468 
L 190.285041 78.79577 
L 190.650511 80.980095 
L 191.381451 77.747293 
L 192.112392 80.281111 
L 192.843332 75.999833 
L 193.208803 80.368484 
L 193.574273 77.223055 
L 193.939743 76.349325 
L 194.305214 77.310428 
L 194.670684 77.485174 
L 195.036154 75.825087 
L 195.401624 78.184158 
L 195.767095 77.223055 
L 196.132565 75.475595 
L 196.498035 77.223055 
L 196.863505 76.436698 
L 197.228976 76.261952 
L 197.594446 73.728134 
L 197.959916 74.339745 
L 198.325386 77.223055 
L 198.690857 76.349325 
L 199.056327 77.65992 
L 199.787267 76.524071 
L 200.152738 77.048309 
L 200.518208 75.650341 
L 200.883678 77.048309 
L 201.249149 76.873563 
L 201.614619 73.02915 
L 201.980089 75.825087 
L 202.345559 76.611444 
L 202.71103 74.427118 
L 203.0765 76.349325 
L 203.44197 74.339745 
L 203.80744 71.631182 
L 204.172911 73.378642 
L 204.538381 74.164999 
L 204.903851 76.611444 
L 205.269321 74.514491 
L 205.634792 73.90288 
L 206.365732 71.805928 
L 206.731203 72.330166 
L 207.096673 75.03873 
L 207.462143 76.349325 
L 208.558554 72.592285 
L 208.924024 74.951357 
L 209.289494 75.737714 
L 209.654965 73.02915 
L 210.020435 74.427118 
L 210.385905 71.718555 
L 210.751375 74.776611 
L 211.116846 72.767031 
L 211.482316 74.601864 
L 211.847786 73.378642 
L 212.213256 72.679658 
L 212.578727 73.990253 
L 212.944197 73.553388 
L 213.309667 76.524071 
L 213.675138 74.689237 
L 214.040608 75.737714 
L 214.406078 73.553388 
L 214.771548 72.941777 
L 215.137019 75.91246 
L 215.502489 72.242793 
L 215.867959 74.164999 
L 216.5989 72.242793 
L 217.32984 73.02915 
L 217.69531 71.893301 
L 218.060781 73.378642 
L 218.426251 73.815507 
L 218.791721 73.116523 
L 219.157192 73.466015 
L 219.522662 72.941777 
L 219.888132 74.514491 
L 220.253602 71.980674 
L 220.619073 74.776611 
L 220.984543 73.291269 
L 221.350013 75.213476 
L 221.715483 72.417539 
L 222.080954 73.291269 
L 222.446424 71.369063 
L 222.811894 73.466015 
L 223.177364 72.068047 
L 223.542835 70.058467 
L 223.908305 72.679658 
L 224.273775 73.815507 
L 224.639245 71.369063 
L 225.004716 70.757451 
L 225.370186 70.757451 
L 225.735656 70.320586 
L 226.101127 72.592285 
L 226.466597 72.068047 
L 226.832067 70.757451 
L 227.197537 72.592285 
L 227.928478 72.679658 
L 228.293948 71.893301 
L 228.659418 67.699396 
L 229.024889 71.194317 
L 229.390359 71.631182 
L 229.755829 70.407959 
L 230.121299 71.369063 
L 230.48677 70.495332 
L 230.85224 72.242793 
L 231.21771 73.291269 
L 231.583181 71.194317 
L 231.948651 72.592285 
L 232.314121 69.534229 
L 232.679591 71.194317 
L 233.045062 70.582705 
L 233.410532 72.679658 
L 233.776002 69.883721 
L 234.141472 70.407959 
L 234.506943 71.194317 
L 234.872413 69.446856 
L 235.237883 69.971094 
L 235.968824 72.854404 
L 236.334294 69.971094 
L 236.699764 70.670078 
L 237.065234 69.27211 
L 237.430705 70.757451 
L 237.796175 73.02915 
L 238.161645 71.805928 
L 238.527116 71.718555 
L 238.892586 70.407959 
L 239.258056 71.893301 
L 239.623526 70.14584 
L 239.988997 71.106944 
L 240.354467 73.291269 
L 240.719937 70.844824 
L 241.085407 72.330166 
L 241.450878 69.009991 
L 241.816348 71.28169 
L 242.181818 69.971094 
L 242.547288 72.15542 
L 242.912759 70.844824 
L 243.278229 67.874142 
L 243.643699 69.359483 
L 244.00917 69.359483 
L 244.37464 68.747872 
L 244.74011 69.883721 
L 245.10558 68.922618 
L 245.471051 69.534229 
L 245.836521 68.922618 
L 246.201991 70.844824 
L 246.567461 71.543809 
L 246.932932 69.097364 
L 247.298402 68.835245 
L 247.663872 71.543809 
L 248.029342 67.262531 
L 248.394813 71.718555 
L 248.760283 69.971094 
L 249.125753 70.670078 
L 249.856694 68.922618 
L 250.222164 69.359483 
L 250.587634 68.136261 
L 250.953105 68.660499 
L 251.318575 69.446856 
L 252.049515 67.262531 
L 252.414986 68.485753 
L 252.780456 68.311007 
L 253.511396 69.621602 
L 253.876867 69.621602 
L 254.242337 67.349904 
L 254.607807 68.660499 
L 254.973277 68.835245 
L 255.338748 68.747872 
L 255.704218 68.39838 
L 256.069688 67.786769 
L 256.800629 71.019571 
L 257.166099 69.446856 
L 257.531569 69.009991 
L 257.89704 71.980674 
L 258.26251 68.660499 
L 258.62798 67.874142 
L 258.99345 71.369063 
L 259.358921 69.27211 
L 259.724391 67.874142 
L 260.089861 69.27211 
L 260.455331 68.311007 
L 260.820802 66.476173 
L 261.186272 70.670078 
L 261.551742 68.048888 
L 261.917212 67.087784 
L 262.648153 68.39838 
L 263.013623 69.097364 
L 263.379094 68.223634 
L 263.744564 69.971094 
L 264.110034 69.359483 
L 264.475504 70.058467 
L 264.840975 67.961515 
L 265.206445 67.262531 
L 265.571915 68.39838 
L 265.937385 70.582705 
L 266.302856 67.52465 
L 266.668326 68.573126 
L 267.033796 68.660499 
L 267.399266 64.990832 
L 267.764737 71.106944 
L 268.130207 66.650919 
L 268.495677 67.262531 
L 268.861147 65.427697 
L 269.226618 70.058467 
L 269.592088 69.097364 
L 269.957558 65.51507 
L 270.323029 70.058467 
L 270.688499 68.660499 
L 271.053969 68.223634 
L 271.419439 69.534229 
L 271.78491 69.446856 
L 272.15038 68.136261 
L 272.51585 68.223634 
L 272.88132 65.689816 
L 273.246791 67.961515 
L 273.612261 67.961515 
L 273.977731 69.796348 
L 274.343201 67.786769 
L 274.708672 67.175158 
L 275.074142 67.612023 
L 275.439612 70.14584 
L 275.805083 68.573126 
L 276.170553 68.835245 
L 276.536023 69.971094 
L 276.901493 66.563546 
L 277.266964 69.27211 
L 277.632434 66.214054 
L 277.997904 67.786769 
L 278.363374 67.175158 
L 278.728845 65.777189 
L 279.459785 69.359483 
L 279.825255 68.922618 
L 280.190726 67.000411 
L 280.556196 68.747872 
L 280.921666 68.573126 
L 281.287136 67.262531 
L 281.652607 68.835245 
L 282.018077 66.563546 
L 282.383547 68.136261 
L 282.749018 66.126681 
L 283.114488 68.136261 
L 283.479958 66.476173 
L 284.210899 68.136261 
L 284.576369 66.738292 
L 284.941839 67.437277 
L 285.307309 67.437277 
L 285.67278 67.786769 
L 286.03825 67.000411 
L 286.40372 66.738292 
L 286.76919 66.825665 
L 287.500131 68.311007 
L 287.865601 66.3888 
L 288.231072 69.446856 
L 288.596542 65.689816 
L 288.962012 67.437277 
L 289.327482 66.039308 
L 289.692953 65.51507 
L 290.423893 67.961515 
L 290.789363 68.573126 
L 291.154834 68.39838 
L 291.520304 65.51507 
L 292.251244 67.699396 
L 292.616715 67.437277 
L 292.982185 64.728713 
L 293.347655 65.864562 
L 293.713125 65.51507 
L 294.078596 66.650919 
L 294.444066 67.087784 
L 294.809536 67.786769 
L 295.175007 67.52465 
L 295.905947 65.427697 
L 296.271417 66.650919 
L 296.636888 65.602443 
L 297.002358 67.52465 
L 297.367828 65.340324 
L 297.733298 67.087784 
L 298.098769 65.51507 
L 298.464239 68.048888 
L 298.829709 66.738292 
L 299.195179 64.728713 
L 299.56065 67.349904 
L 300.29159 65.165578 
L 300.657061 67.437277 
L 301.022531 67.52465 
L 301.388001 66.476173 
L 301.753471 68.223634 
L 302.118942 66.476173 
L 302.484412 67.874142 
L 303.215352 64.903459 
L 303.580823 65.165578 
L 303.946293 65.689816 
L 304.311763 66.825665 
L 304.677233 65.51507 
L 305.042704 64.816086 
L 305.408174 64.990832 
L 306.139114 67.262531 
L 306.504585 66.650919 
L 306.870055 66.301427 
L 307.235525 65.252951 
L 307.600996 65.51507 
L 307.966466 67.000411 
L 308.331936 66.126681 
L 308.697406 62.107522 
L 309.062877 67.437277 
L 309.428347 67.612023 
L 309.793817 65.427697 
L 310.159287 67.874142 
L 310.524758 66.476173 
L 310.890228 68.048888 
L 311.255698 64.728713 
L 311.621168 65.951935 
L 311.986639 65.165578 
L 312.352109 68.485753 
L 312.717579 66.039308 
L 313.08305 64.553967 
L 313.44852 66.476173 
L 313.81399 67.349904 
L 314.17946 63.418118 
L 314.544931 65.252951 
L 314.910401 65.689816 
L 315.275871 63.068625 
L 316.006812 66.563546 
L 316.372282 66.825665 
L 316.737752 64.903459 
L 317.103222 66.301427 
L 317.468693 64.291848 
L 318.199633 65.951935 
L 318.565103 65.340324 
L 318.930574 66.563546 
L 319.296044 66.3888 
L 319.661514 65.252951 
L 320.392455 67.087784 
L 320.757925 65.777189 
L 321.123395 66.126681 
L 321.488866 65.427697 
L 322.219806 65.51507 
L 322.585276 66.301427 
L 322.950747 65.51507 
L 323.316217 65.777189 
L 323.681687 63.854983 
L 324.412628 66.825665 
L 324.778098 67.087784 
L 325.143568 65.427697 
L 325.509039 65.252951 
L 325.874509 64.117102 
L 326.239979 64.903459 
L 326.605449 64.728713 
L 326.97092 62.63176 
L 327.33639 65.51507 
L 327.70186 64.728713 
L 328.06733 64.291848 
L 328.432801 65.427697 
L 328.798271 64.466594 
L 329.163741 62.806506 
L 329.529211 64.816086 
L 329.894682 63.155998 
L 330.260152 64.64134 
L 330.625622 64.291848 
L 331.356563 66.825665 
L 331.722033 64.553967 
L 332.087503 66.126681 
L 332.452974 64.990832 
L 332.818444 66.039308 
L 333.183914 63.680237 
L 333.549384 65.427697 
L 333.914855 65.51507 
L 334.280325 66.039308 
L 334.645795 65.340324 
L 335.011265 65.427697 
L 335.376736 63.942356 
L 335.742206 64.117102 
L 336.107676 66.039308 
L 336.473146 64.903459 
L 336.838617 63.243371 
L 337.204087 66.738292 
L 337.569557 63.330745 
L 337.935028 66.039308 
L 338.300498 65.864562 
L 338.665968 64.466594 
L 339.031438 66.039308 
L 339.396909 65.689816 
L 339.762379 64.291848 
L 340.127849 66.563546 
L 340.493319 66.039308 
L 340.85879 64.990832 
L 341.22426 65.51507 
L 341.58973 64.816086 
L 341.9552 63.680237 
L 342.320671 65.864562 
L 342.686141 66.650919 
L 343.051611 64.204475 
L 343.417081 63.068625 
L 343.782552 65.689816 
L 344.148022 64.379221 
L 344.513492 63.854983 
L 344.878963 65.951935 
L 345.244433 65.689816 
L 345.609903 66.825665 
L 345.975373 64.816086 
L 346.340844 66.126681 
L 346.706314 64.990832 
L 347.071784 62.893879 
L 347.437254 63.854983 
L 347.802725 65.602443 
L 348.168195 63.330745 
L 348.533665 64.117102 
L 348.899135 65.951935 
L 349.264606 63.76761 
L 349.630076 66.738292 
L 349.995546 66.126681 
L 350.361017 64.379221 
L 350.726487 64.64134 
L 351.091957 63.592864 
L 351.457427 64.553967 
L 351.822898 65.078205 
L 352.188368 64.903459 
L 352.553838 63.76761 
L 353.284779 66.126681 
L 354.015719 63.76761 
L 354.381189 64.117102 
L 354.74666 66.825665 
L 355.11213 65.602443 
L 355.4776 63.76761 
L 355.84307 65.951935 
L 356.208541 65.689816 
L 356.574011 65.864562 
L 356.939481 62.194895 
L 357.304952 64.117102 
L 357.670422 62.806506 
L 358.035892 65.165578 
L 358.401362 64.204475 
L 358.766833 67.000411 
L 359.132303 65.777189 
L 359.497773 65.951935 
L 359.863243 63.330745 
L 360.228714 65.165578 
L 360.594184 64.466594 
L 360.959654 65.602443 
L 361.325124 64.553967 
L 361.690595 63.155998 
L 362.056065 67.175158 
L 362.421535 64.728713 
L 362.787006 64.029729 
L 363.152476 65.252951 
L 363.517946 64.903459 
L 363.883416 64.379221 
L 364.248887 63.505491 
L 364.614357 64.117102 
L 364.979827 66.214054 
L 365.345297 65.51507 
L 365.710768 63.330745 
L 366.441708 63.068625 
L 366.807178 63.418118 
L 367.172649 63.330745 
L 367.538119 62.893879 
L 367.903589 64.816086 
L 368.269059 62.544387 
L 368.63453 63.76761 
L 369 62.719133 
L 369.36547 63.418118 
L 369.730941 64.64134 
L 370.096411 60.622181 
L 370.461881 64.728713 
L 371.192822 62.020149 
L 371.558292 65.427697 
L 372.289232 63.592864 
L 372.654703 65.078205 
L 373.020173 63.068625 
L 373.385643 64.903459 
L 373.751113 64.903459 
L 374.116584 65.864562 
L 374.482054 64.64134 
L 374.847524 62.457014 
L 375.212994 62.893879 
L 375.578465 64.553967 
L 375.943935 64.466594 
L 376.309405 62.194895 
L 376.674876 64.379221 
L 377.040346 64.379221 
L 377.405816 63.854983 
L 377.771286 63.068625 
L 378.136757 64.204475 
L 378.502227 63.243371 
L 378.867697 65.252951 
L 379.233167 64.816086 
L 379.598638 64.990832 
L 379.964108 64.64134 
L 380.329578 62.981252 
L 380.695048 64.117102 
L 381.060519 61.321165 
L 381.425989 61.233792 
L 381.791459 64.029729 
L 382.15693 65.602443 
L 382.5224 63.068625 
L 382.88787 63.942356 
L 383.25334 63.068625 
L 383.618811 64.728713 
L 383.984281 64.379221 
L 384.349751 62.893879 
L 384.715221 64.204475 
L 385.080692 63.592864 
L 385.811632 66.650919 
L 386.177102 64.117102 
L 386.542573 65.602443 
L 386.908043 62.457014 
L 387.273513 63.418118 
L 387.638983 61.932776 
L 388.004454 63.505491 
L 388.369924 62.893879 
L 388.735394 63.942356 
L 389.100865 64.117102 
L 389.831805 62.107522 
L 390.197275 64.466594 
L 390.562746 63.330745 
L 390.928216 64.816086 
L 391.293686 62.457014 
L 391.659156 64.204475 
L 392.024627 64.117102 
L 392.390097 62.893879 
L 392.755567 63.243371 
L 393.121037 64.029729 
L 393.486508 63.76761 
L 393.851978 63.068625 
L 394.217448 61.321165 
L 394.582919 61.75803 
L 395.313859 65.602443 
L 395.679329 62.893879 
L 396.0448 62.020149 
L 396.77574 63.068625 
L 397.14121 62.806506 
L 397.872151 64.029729 
L 398.603091 62.194895 
L 398.968562 64.204475 
L 399.334032 63.155998 
L 399.699502 64.728713 
L 400.064972 62.893879 
L 400.430443 63.505491 
L 400.795913 61.233792 
L 401.526854 65.340324 
L 401.892324 64.64134 
L 402.257794 64.379221 
L 402.623264 63.330745 
L 402.988735 62.893879 
L 403.354205 64.291848 
L 403.719675 64.553967 
L 404.085145 62.282268 
L 404.816086 64.291848 
L 405.181556 62.63176 
L 405.547026 63.680237 
L 406.277967 62.544387 
L 406.643437 62.981252 
L 407.008908 62.282268 
L 408.105318 64.379221 
L 408.470789 64.029729 
L 408.836259 64.117102 
L 409.201729 64.553967 
L 409.567199 64.029729 
L 409.93267 62.369641 
L 410.29814 62.893879 
L 410.66361 62.719133 
L 411.02908 65.165578 
L 411.394551 63.155998 
L 411.760021 64.029729 
L 412.125491 62.457014 
L 412.490961 63.243371 
L 412.856432 66.825665 
L 413.221902 65.602443 
L 413.587372 62.457014 
L 413.952843 63.942356 
L 414.318313 61.233792 
L 414.683783 64.990832 
L 415.049253 64.029729 
L 415.414724 60.447435 
L 415.780194 64.816086 
L 416.145664 62.806506 
L 416.511134 62.020149 
L 416.876605 63.243371 
L 417.242075 61.321165 
L 417.607545 63.76761 
L 418.338486 64.204475 
L 418.703956 62.369641 
L 419.069426 62.806506 
L 419.434897 62.544387 
L 419.800367 63.243371 
L 420.165837 63.418118 
L 420.531307 61.146419 
L 420.896778 63.592864 
L 421.262248 64.029729 
L 421.627718 63.330745 
L 421.993188 61.495911 
L 422.358659 63.942356 
L 422.724129 64.291848 
L 423.089599 63.155998 
L 423.455069 61.059046 
L 423.82054 62.020149 
L 424.18601 64.204475 
L 424.55148 62.806506 
L 424.91695 60.709554 
L 425.282421 62.020149 
L 425.647891 64.553967 
L 426.013361 63.243371 
L 426.378832 63.76761 
L 426.744302 63.76761 
L 427.109772 64.379221 
L 427.475242 62.719133 
L 427.840713 64.379221 
L 428.206183 63.068625 
L 428.571653 64.291848 
L 428.937123 63.330745 
L 429.302594 63.680237 
L 429.668064 62.194895 
L 430.033534 62.63176 
L 430.399004 62.806506 
L 430.764475 62.806506 
L 431.129945 61.932776 
L 431.495415 63.592864 
L 431.860886 60.709554 
L 432.226356 62.544387 
L 432.591826 61.408538 
L 432.957296 64.379221 
L 433.322767 62.457014 
L 433.688237 61.670657 
L 434.053707 63.068625 
L 434.419177 63.243371 
L 434.784648 62.194895 
L 435.150118 61.670657 
L 435.515588 64.64134 
L 435.881058 63.155998 
L 436.246529 64.466594 
L 436.611999 62.282268 
L 436.977469 61.670657 
L 437.342939 62.369641 
L 437.70841 62.63176 
L 438.07388 61.408538 
L 438.43935 61.845403 
L 438.804821 61.670657 
L 439.170291 63.592864 
L 439.535761 64.117102 
L 439.901231 62.981252 
L 440.266702 62.63176 
L 440.632172 62.63176 
L 440.997642 61.146419 
L 441.363112 61.233792 
L 442.459523 62.63176 
L 442.824993 65.689816 
L 443.190464 62.194895 
L 443.555934 62.981252 
L 443.921404 62.369641 
L 444.286875 62.282268 
L 444.652345 63.068625 
L 445.017815 61.670657 
L 445.383285 61.408538 
L 445.748756 65.165578 
L 446.114226 61.233792 
L 446.479696 60.971673 
L 446.845166 62.369641 
L 447.210637 62.544387 
L 447.576107 61.75803 
L 447.941577 62.719133 
L 448.307047 61.146419 
L 449.037988 63.418118 
L 449.403458 63.155998 
L 449.768928 63.330745 
L 450.134399 62.544387 
L 450.499869 64.117102 
L 450.865339 61.670657 
L 451.23081 61.670657 
L 451.59628 61.932776 
L 451.96175 64.379221 
L 452.32722 64.553967 
L 452.692691 60.8843 
L 453.058161 64.903459 
L 453.423631 63.243371 
L 454.154572 63.330745 
L 454.520042 62.893879 
L 454.885512 61.233792 
L 455.250982 62.282268 
L 455.616453 60.709554 
L 455.981923 61.75803 
L 456.347393 61.670657 
L 456.712864 62.194895 
L 457.078334 60.447435 
L 458.174745 64.816086 
L 458.540215 63.76761 
L 458.905685 63.592864 
L 459.271155 64.728713 
L 459.636626 62.719133 
L 460.002096 62.893879 
L 460.367566 63.854983 
L 460.733036 66.563546 
L 461.098507 62.544387 
L 461.463977 62.457014 
L 461.829447 62.719133 
L 462.194917 62.544387 
L 462.560388 63.243371 
L 462.925858 62.719133 
L 463.291328 61.059046 
L 463.656799 61.670657 
L 464.022269 61.583284 
L 464.387739 62.369641 
L 464.753209 60.8843 
L 465.11868 60.971673 
L 465.48415 62.63176 
L 465.84962 61.321165 
L 466.21509 61.059046 
L 466.580561 63.243371 
L 466.946031 64.466594 
L 467.311501 61.670657 
L 467.676971 63.243371 
L 468.042442 62.020149 
L 468.407912 62.806506 
L 468.773382 61.146419 
L 469.138853 62.282268 
L 469.504323 62.457014 
L 469.869793 60.709554 
L 470.235263 60.360062 
L 470.600734 64.117102 
L 470.966204 61.845403 
L 471.331674 63.505491 
L 471.697144 62.63176 
L 472.062615 61.233792 
L 472.428085 61.059046 
L 472.793555 62.63176 
L 473.159025 61.233792 
L 473.524496 63.592864 
L 473.889966 61.845403 
L 474.255436 64.204475 
L 474.620906 62.981252 
L 474.986377 63.418118 
L 475.351847 61.321165 
L 475.717317 60.097943 
L 476.082788 63.418118 
L 476.448258 63.854983 
L 476.813728 62.719133 
L 477.179198 63.418118 
L 477.544669 63.418118 
L 477.910139 62.107522 
L 478.275609 64.379221 
L 478.641079 61.75803 
L 479.37202 63.068625 
L 479.73749 62.282268 
L 480.10296 62.457014 
L 480.468431 61.408538 
L 480.833901 62.107522 
L 481.199371 61.495911 
L 481.564841 61.146419 
L 482.295782 63.680237 
L 482.661252 61.321165 
L 483.026723 61.059046 
L 483.392193 63.592864 
L 483.757663 63.068625 
L 484.123133 62.194895 
L 484.488604 62.369641 
L 484.854074 62.020149 
L 485.219544 60.360062 
L 485.585014 64.64134 
L 485.950485 61.408538 
L 486.315955 63.068625 
L 486.681425 61.845403 
L 487.046895 63.680237 
L 487.412366 62.457014 
L 487.777836 62.369641 
L 488.143306 61.321165 
L 488.508777 61.059046 
L 488.874247 63.068625 
L 489.605187 61.321165 
L 489.970658 63.505491 
L 490.336128 61.583284 
L 490.701598 61.146419 
L 491.432539 64.117102 
L 491.798009 62.457014 
L 492.163479 61.845403 
L 492.528949 63.155998 
L 492.89442 63.680237 
L 493.25989 62.893879 
L 493.62536 63.592864 
L 493.99083 63.680237 
L 494.356301 61.583284 
L 494.721771 62.369641 
L 495.087241 62.457014 
L 495.452712 64.903459 
L 496.183652 61.932776 
L 496.549122 63.068625 
L 496.914593 61.233792 
L 497.280063 60.622181 
L 497.645533 64.379221 
L 498.011003 63.068625 
L 498.376474 64.291848 
L 498.741944 61.233792 
L 499.107414 62.107522 
L 499.472884 60.796927 
L 499.838355 63.155998 
L 500.203825 62.806506 
L 500.569295 61.583284 
L 500.934766 62.719133 
L 501.300236 61.408538 
L 501.665706 61.408538 
L 502.031176 59.835824 
L 502.396647 61.75803 
L 502.762117 61.146419 
L 503.127587 61.845403 
L 503.493057 60.272689 
L 503.858528 61.845403 
L 504.223998 61.408538 
L 504.589468 61.670657 
L 504.954938 61.233792 
L 505.320409 61.495911 
L 505.685879 62.282268 
L 506.051349 62.544387 
L 506.416819 62.63176 
L 506.78229 62.457014 
L 507.14776 63.418118 
L 507.51323 61.670657 
L 507.878701 63.680237 
L 508.244171 62.107522 
L 508.609641 62.194895 
L 508.975111 61.583284 
L 509.340582 63.068625 
L 509.706052 61.408538 
L 510.071522 62.719133 
L 510.436992 62.806506 
L 510.802463 62.194895 
L 511.167933 63.680237 
L 511.533403 62.020149 
L 511.898873 61.233792 
L 512.264344 62.719133 
L 512.629814 62.369641 
L 512.995284 63.155998 
L 513.360755 60.971673 
L 513.726225 60.971673 
L 514.091695 62.282268 
L 514.457165 60.272689 
L 514.822636 62.981252 
L 515.188106 62.107522 
L 515.553576 62.369641 
L 515.919046 62.194895 
L 516.284517 60.097943 
L 516.649987 62.020149 
L 517.015457 62.457014 
L 517.380927 62.719133 
L 517.746398 62.806506 
L 518.111868 60.8843 
L 518.477338 61.233792 
L 518.842808 63.942356 
L 519.208279 62.893879 
L 519.573749 61.146419 
L 519.939219 63.592864 
L 520.30469 62.020149 
L 520.67016 61.670657 
L 521.03563 65.165578 
L 521.4011 62.282268 
L 521.766571 60.8843 
L 522.132041 60.534808 
L 522.497511 62.194895 
L 522.862981 62.63176 
L 523.228452 62.544387 
L 523.593922 61.932776 
L 523.959392 63.155998 
L 524.324862 63.505491 
L 524.690333 61.932776 
L 525.055803 62.893879 
L 525.421273 60.709554 
L 525.786744 62.020149 
L 526.152214 61.932776 
L 526.517684 62.194895 
L 526.883154 61.233792 
L 527.248625 61.408538 
L 527.614095 61.845403 
L 527.979565 60.971673 
L 528.345035 61.670657 
L 528.710506 61.233792 
L 529.075976 60.360062 
L 529.441446 61.321165 
L 529.806916 61.146419 
L 530.172387 63.068625 
L 530.537857 61.408538 
L 530.903327 62.282268 
L 531.268797 60.097943 
L 531.634268 62.63176 
L 532.365208 60.622181 
L 532.730679 60.8843 
L 533.096149 61.408538 
L 533.461619 62.457014 
L 533.827089 60.796927 
L 534.19256 60.447435 
L 534.55803 61.583284 
L 534.9235 59.661078 
L 535.28897 62.457014 
L 535.654441 62.107522 
L 536.385381 59.311585 
L 536.750851 61.932776 
L 537.116322 62.107522 
L 537.481792 62.806506 
L 537.847262 62.369641 
L 538.212733 62.981252 
L 538.943673 61.321165 
L 539.309143 61.75803 
L 539.674614 62.981252 
L 540.040084 62.893879 
L 540.405554 61.583284 
L 540.771024 60.796927 
L 541.136495 62.369641 
L 541.501965 62.719133 
L 541.867435 62.63176 
L 542.232905 59.748451 
L 542.598376 60.8843 
L 542.963846 61.233792 
L 543.329316 59.661078 
L 543.694786 61.670657 
L 544.060257 61.408538 
L 544.425727 60.360062 
L 544.791197 61.495911 
L 545.522138 60.796927 
L 545.887608 62.369641 
L 546.253078 62.107522 
L 546.618549 60.709554 
L 547.349489 62.369641 
L 547.714959 61.845403 
L 548.08043 62.194895 
L 548.4459 60.272689 
L 548.81137 60.622181 
L 549.17684 61.75803 
L 550.273251 60.097943 
L 550.638722 62.107522 
L 551.004192 60.796927 
L 551.369662 63.068625 
L 551.735132 61.321165 
L 552.100603 63.854983 
L 552.466073 63.854983 
L 553.197013 61.408538 
L 553.562484 61.059046 
L 553.927954 62.719133 
L 554.293424 61.059046 
L 554.658894 63.068625 
L 555.024365 62.107522 
L 555.389835 59.748451 
L 556.120775 61.321165 
L 556.486246 62.893879 
L 556.851716 62.806506 
L 557.582657 60.709554 
L 557.948127 61.495911 
L 558.313597 60.534808 
L 558.679067 63.243371 
L 559.044538 60.622181 
L 559.410008 62.457014 
L 559.775478 63.680237 
L 560.140948 60.971673 
L 560.506419 61.583284 
L 560.871889 63.418118 
L 561.237359 60.360062 
L 561.602829 60.360062 
L 561.9683 61.321165 
L 562.33377 61.146419 
L 562.69924 61.845403 
L 563.064711 61.408538 
L 563.430181 60.097943 
L 563.795651 63.418118 
L 564.161121 61.408538 
L 564.526592 60.622181 
L 564.892062 62.457014 
L 565.257532 61.321165 
L 565.623002 62.893879 
L 565.988473 60.272689 
L 566.353943 62.282268 
L 566.719413 62.282268 
L 567.084883 59.748451 
L 567.450354 61.845403 
L 567.815824 61.583284 
L 568.181294 62.893879 
L 568.546764 62.544387 
L 568.912235 62.893879 
L 569.277705 60.447435 
L 570.008646 62.981252 
L 570.374116 61.146419 
L 570.739586 61.059046 
L 571.105056 62.369641 
L 571.470527 61.495911 
L 571.835997 61.146419 
L 572.201467 61.670657 
L 572.566937 61.75803 
L 572.932408 63.330745 
L 573.297878 60.097943 
L 573.663348 61.75803 
L 574.028818 61.75803 
L 574.394289 63.330745 
L 574.759759 60.185316 
L 575.125229 63.418118 
L 575.4907 62.107522 
L 575.85617 61.321165 
L 576.22164 61.932776 
L 576.58711 61.059046 
L 576.952581 62.544387 
L 577.318051 63.330745 
L 577.683521 60.447435 
L 578.048991 61.583284 
L 578.414462 62.282268 
L 578.779932 61.845403 
L 579.145402 61.670657 
L 579.510872 61.321165 
L 579.876343 61.495911 
L 580.241813 62.719133 
L 580.607283 60.01057 
L 580.972753 59.923197 
L 581.338224 61.670657 
L 581.703694 62.544387 
L 582.069164 60.272689 
L 582.434635 61.75803 
L 582.800105 61.495911 
L 583.165575 60.097943 
L 583.531045 61.75803 
L 583.896516 61.059046 
L 584.261986 63.243371 
L 584.627456 60.709554 
L 584.992926 61.146419 
L 585.358397 60.971673 
L 585.723867 61.059046 
L 586.089337 62.719133 
L 586.454807 61.321165 
L 586.820278 61.75803 
L 587.185748 62.020149 
L 587.551218 61.059046 
L 587.916688 61.845403 
L 588.282159 58.699974 
L 589.013099 61.670657 
L 589.37857 61.932776 
L 589.74404 61.495911 
L 590.10951 61.321165 
L 590.47498 61.495911 
L 590.840451 61.059046 
L 591.205921 60.097943 
L 591.571391 60.709554 
L 591.936861 63.854983 
L 592.302332 62.893879 
L 592.667802 63.942356 
L 593.033272 62.981252 
L 593.398742 62.369641 
L 593.764213 62.719133 
L 594.129683 62.457014 
L 594.495153 61.495911 
L 595.591564 62.107522 
L 595.957034 62.020149 
L 596.322505 61.059046 
L 596.687975 60.796927 
L 597.418915 62.194895 
L 597.784386 61.495911 
L 598.149856 59.748451 
L 598.880796 62.194895 
L 599.246267 60.971673 
L 599.611737 60.360062 
L 599.977207 59.049466 
L 600.342677 61.233792 
L 600.708148 60.360062 
L 601.073618 61.146419 
L 601.439088 62.282268 
L 601.804559 61.583284 
L 602.170029 60.534808 
L 602.900969 60.796927 
L 603.26644 62.806506 
L 603.63191 61.146419 
L 603.99738 61.932776 
L 604.36285 61.583284 
L 604.728321 60.709554 
L 605.093791 61.321165 
L 605.824731 60.272689 
L 606.190202 60.534808 
L 606.555672 60.360062 
L 606.921142 60.360062 
L 607.286613 61.059046 
L 607.652083 59.224212 
L 608.017553 61.932776 
L 608.383023 62.282268 
L 608.748494 61.932776 
L 609.113964 62.981252 
L 609.479434 60.971673 
L 609.844904 60.272689 
L 610.210375 62.981252 
L 610.575845 60.447435 
L 610.941315 63.155998 
L 611.306785 62.457014 
L 611.672256 58.87472 
L 612.037726 61.75803 
L 612.403196 61.845403 
L 613.134137 60.8843 
L 613.499607 61.408538 
L 614.230548 61.495911 
L 614.596018 62.107522 
L 614.961488 61.059046 
L 615.326958 59.573705 
L 615.692429 61.146419 
L 616.057899 60.709554 
L 616.423369 61.408538 
L 616.788839 61.146419 
L 617.15431 61.321165 
L 617.51978 60.709554 
L 617.88525 60.447435 
L 618.25072 59.486331 
L 618.616191 61.75803 
L 618.981661 60.534808 
L 619.347131 62.107522 
L 619.712602 60.447435 
L 620.078072 61.146419 
L 620.443542 60.185316 
L 620.809012 62.282268 
L 621.174483 61.495911 
L 621.539953 60.272689 
L 621.905423 62.719133 
L 622.270893 60.097943 
L 622.636364 61.670657 
L 622.636364 61.670657 
" style="fill:none;stroke:#ff7f0e;stroke-linecap:square;stroke-width:0.5;"/>
   </g>
   <g id="patch_3">
    <path d="M 90 315 
L 90 43.2 
" style="fill:none;stroke:#000000;stroke-linecap:square;stroke-linejoin:miter;stroke-width:0.8;"/>
   </g>
   <g id="patch_4">
    <path d="M 648 315 
L 648 43.2 
" style="fill:none;stroke:#000000;stroke-linecap:square;stroke-linejoin:miter;stroke-width:0.8;"/>
   </g>
   <g id="patch_5">
    <path d="M 90 315 
L 648 315 
" style="fill:none;stroke:#000000;stroke-linecap:square;stroke-linejoin:miter;stroke-width:0.8;"/>
   </g>
   <g id="patch_6">
    <path d="M 90 43.2 
L 648 43.2 
" style="fill:none;stroke:#000000;stroke-linecap:square;stroke-linejoin:miter;stroke-width:0.8;"/>
   </g>
   <g id="text_18">
    <!-- accuracy -->
    <g transform="translate(341.92875 37.2)scale(0.12 -0.12)">
     <use xlink:href="#DejaVuSans-97"/>
     <use x="61.279297" xlink:href="#DejaVuSans-99"/>
     <use x="116.259766" xlink:href="#DejaVuSans-99"/>
     <use x="171.240234" xlink:href="#DejaVuSans-117"/>
     <use x="234.619141" xlink:href="#DejaVuSans-114"/>
     <use x="275.732422" xlink:href="#DejaVuSans-97"/>
     <use x="337.011719" xlink:href="#DejaVuSans-99"/>
     <use x="391.992188" xlink:href="#DejaVuSans-121"/>
    </g>
   </g>
   <g id="legend_1">
    <g id="patch_7">
     <path d="M 97 80.55625 
L 169.153125 80.55625 
Q 171.153125 80.55625 171.153125 78.55625 
L 171.153125 50.2 
Q 171.153125 48.2 169.153125 48.2 
L 97 48.2 
Q 95 48.2 95 50.2 
L 95 78.55625 
Q 95 80.55625 97 80.55625 
z
" style="fill:#ffffff;opacity:0.8;stroke:#cccccc;stroke-linejoin:miter;"/>
    </g>
    <g id="line2d_33">
     <path d="M 99 56.298437 
L 119 56.298437 
" style="fill:none;stroke:#1f77b4;stroke-linecap:square;stroke-width:0.5;"/>
    </g>
    <g id="line2d_34"/>
    <g id="text_19">
     <!-- train -->
     <defs>
      <path d="M 18.3125 70.21875 
L 18.3125 54.6875 
L 36.8125 54.6875 
L 36.8125 47.703125 
L 18.3125 47.703125 
L 18.3125 18.015625 
Q 18.3125 11.328125 20.140625 9.421875 
Q 21.96875 7.515625 27.59375 7.515625 
L 36.8125 7.515625 
L 36.8125 0 
L 27.59375 0 
Q 17.1875 0 13.234375 3.875 
Q 9.28125 7.765625 9.28125 18.015625 
L 9.28125 47.703125 
L 2.6875 47.703125 
L 2.6875 54.6875 
L 9.28125 54.6875 
L 9.28125 70.21875 
z
" id="DejaVuSans-116"/>
      <path d="M 9.421875 54.6875 
L 18.40625 54.6875 
L 18.40625 0 
L 9.421875 0 
z
M 9.421875 75.984375 
L 18.40625 75.984375 
L 18.40625 64.59375 
L 9.421875 64.59375 
z
" id="DejaVuSans-105"/>
      <path d="M 54.890625 33.015625 
L 54.890625 0 
L 45.90625 0 
L 45.90625 32.71875 
Q 45.90625 40.484375 42.875 44.328125 
Q 39.84375 48.1875 33.796875 48.1875 
Q 26.515625 48.1875 22.3125 43.546875 
Q 18.109375 38.921875 18.109375 30.90625 
L 18.109375 0 
L 9.078125 0 
L 9.078125 54.6875 
L 18.109375 54.6875 
L 18.109375 46.1875 
Q 21.34375 51.125 25.703125 53.5625 
Q 30.078125 56 35.796875 56 
Q 45.21875 56 50.046875 50.171875 
Q 54.890625 44.34375 54.890625 33.015625 
z
" id="DejaVuSans-110"/>
     </defs>
     <g transform="translate(127 59.798437)scale(0.1 -0.1)">
      <use xlink:href="#DejaVuSans-116"/>
      <use x="39.208984" xlink:href="#DejaVuSans-114"/>
      <use x="80.322266" xlink:href="#DejaVuSans-97"/>
      <use x="141.601562" xlink:href="#DejaVuSans-105"/>
      <use x="169.384766" xlink:href="#DejaVuSans-110"/>
     </g>
    </g>
    <g id="line2d_35">
     <path d="M 99 70.976562 
L 119 70.976562 
" style="fill:none;stroke:#ff7f0e;stroke-linecap:square;stroke-width:0.5;"/>
    </g>
    <g id="line2d_36"/>
    <g id="text_20">
     <!-- validate -->
     <defs>
      <path d="M 2.984375 54.6875 
L 12.5 54.6875 
L 29.59375 8.796875 
L 46.6875 54.6875 
L 56.203125 54.6875 
L 35.6875 0 
L 23.484375 0 
z
" id="DejaVuSans-118"/>
      <path d="M 9.421875 75.984375 
L 18.40625 75.984375 
L 18.40625 0 
L 9.421875 0 
z
" id="DejaVuSans-108"/>
      <path d="M 45.40625 46.390625 
L 45.40625 75.984375 
L 54.390625 75.984375 
L 54.390625 0 
L 45.40625 0 
L 45.40625 8.203125 
Q 42.578125 3.328125 38.25 0.953125 
Q 33.9375 -1.421875 27.875 -1.421875 
Q 17.96875 -1.421875 11.734375 6.484375 
Q 5.515625 14.40625 5.515625 27.296875 
Q 5.515625 40.1875 11.734375 48.09375 
Q 17.96875 56 27.875 56 
Q 33.9375 56 38.25 53.625 
Q 42.578125 51.265625 45.40625 46.390625 
z
M 14.796875 27.296875 
Q 14.796875 17.390625 18.875 11.75 
Q 22.953125 6.109375 30.078125 6.109375 
Q 37.203125 6.109375 41.296875 11.75 
Q 45.40625 17.390625 45.40625 27.296875 
Q 45.40625 37.203125 41.296875 42.84375 
Q 37.203125 48.484375 30.078125 48.484375 
Q 22.953125 48.484375 18.875 42.84375 
Q 14.796875 37.203125 14.796875 27.296875 
z
" id="DejaVuSans-100"/>
     </defs>
     <g transform="translate(127 74.476562)scale(0.1 -0.1)">
      <use xlink:href="#DejaVuSans-118"/>
      <use x="59.179688" xlink:href="#DejaVuSans-97"/>
      <use x="120.458984" xlink:href="#DejaVuSans-108"/>
      <use x="148.242188" xlink:href="#DejaVuSans-105"/>
      <use x="176.025391" xlink:href="#DejaVuSans-100"/>
      <use x="239.501953" xlink:href="#DejaVuSans-97"/>
      <use x="300.78125" xlink:href="#DejaVuSans-116"/>
      <use x="339.990234" xlink:href="#DejaVuSans-101"/>
     </g>
    </g>
   </g>
  </g>
 </g>
 <defs>
  <clipPath id="p4d37873874">
   <rect height="271.8" width="558" x="90" y="43.2"/>
  </clipPath>
 </defs>
</svg>
