<?xml version="1.0" encoding="utf-8" standalone="no"?>
<!DOCTYPE svg PUBLIC "-//W3C//DTD SVG 1.1//EN"
  "http://www.w3.org/Graphics/SVG/1.1/DTD/svg11.dtd">
<!-- Created with matplotlib (https://matplotlib.org/) -->
<svg height="360pt" version="1.1" viewBox="0 0 720 360" width="720pt" xmlns="http://www.w3.org/2000/svg" xmlns:xlink="http://www.w3.org/1999/xlink">
 <defs>
  <style type="text/css">
*{stroke-linecap:butt;stroke-linejoin:round;}
  </style>
 </defs>
 <g id="figure_1">
  <g id="patch_1">
   <path d="M 0 360 
L 720 360 
L 720 0 
L 0 0 
z
" style="fill:#ffffff;"/>
  </g>
  <g id="axes_1">
   <g id="patch_2">
    <path d="M 90 315 
L 648 315 
L 648 43.2 
L 90 43.2 
z
" style="fill:#ffffff;"/>
   </g>
   <g id="matplotlib.axis_1">
    <g id="xtick_1">
     <g id="line2d_1">
      <path clip-path="url(#pe9c860f907)" d="M 115.363636 315 
L 115.363636 43.2 
" style="fill:none;stroke:#b0b0b0;stroke-linecap:square;stroke-width:0.8;"/>
     </g>
     <g id="line2d_2">
      <defs>
       <path d="M 0 0 
L 0 3.5 
" id="m1d6cff2352" style="stroke:#000000;stroke-width:0.8;"/>
      </defs>
      <g>
       <use style="stroke:#000000;stroke-width:0.8;" x="115.363636" xlink:href="#m1d6cff2352" y="315"/>
      </g>
     </g>
     <g id="text_1">
      <!-- 0 -->
      <defs>
       <path d="M 31.78125 66.40625 
Q 24.171875 66.40625 20.328125 58.90625 
Q 16.5 51.421875 16.5 36.375 
Q 16.5 21.390625 20.328125 13.890625 
Q 24.171875 6.390625 31.78125 6.390625 
Q 39.453125 6.390625 43.28125 13.890625 
Q 47.125 21.390625 47.125 36.375 
Q 47.125 51.421875 43.28125 58.90625 
Q 39.453125 66.40625 31.78125 66.40625 
z
M 31.78125 74.21875 
Q 44.046875 74.21875 50.515625 64.515625 
Q 56.984375 54.828125 56.984375 36.375 
Q 56.984375 17.96875 50.515625 8.265625 
Q 44.046875 -1.421875 31.78125 -1.421875 
Q 19.53125 -1.421875 13.0625 8.265625 
Q 6.59375 17.96875 6.59375 36.375 
Q 6.59375 54.828125 13.0625 64.515625 
Q 19.53125 74.21875 31.78125 74.21875 
z
" id="DejaVuSans-48"/>
      </defs>
      <g transform="translate(112.182386 329.598437)scale(0.1 -0.1)">
       <use xlink:href="#DejaVuSans-48"/>
      </g>
     </g>
    </g>
    <g id="xtick_2">
     <g id="line2d_3">
      <path clip-path="url(#pe9c860f907)" d="M 188.457689 315 
L 188.457689 43.2 
" style="fill:none;stroke:#b0b0b0;stroke-linecap:square;stroke-width:0.8;"/>
     </g>
     <g id="line2d_4">
      <g>
       <use style="stroke:#000000;stroke-width:0.8;" x="188.457689" xlink:href="#m1d6cff2352" y="315"/>
      </g>
     </g>
     <g id="text_2">
      <!-- 200 -->
      <defs>
       <path d="M 19.1875 8.296875 
L 53.609375 8.296875 
L 53.609375 0 
L 7.328125 0 
L 7.328125 8.296875 
Q 12.9375 14.109375 22.625 23.890625 
Q 32.328125 33.6875 34.8125 36.53125 
Q 39.546875 41.84375 41.421875 45.53125 
Q 43.3125 49.21875 43.3125 52.78125 
Q 43.3125 58.59375 39.234375 62.25 
Q 35.15625 65.921875 28.609375 65.921875 
Q 23.96875 65.921875 18.8125 64.3125 
Q 13.671875 62.703125 7.8125 59.421875 
L 7.8125 69.390625 
Q 13.765625 71.78125 18.9375 73 
Q 24.125 74.21875 28.421875 74.21875 
Q 39.75 74.21875 46.484375 68.546875 
Q 53.21875 62.890625 53.21875 53.421875 
Q 53.21875 48.921875 51.53125 44.890625 
Q 49.859375 40.875 45.40625 35.40625 
Q 44.1875 33.984375 37.640625 27.21875 
Q 31.109375 20.453125 19.1875 8.296875 
z
" id="DejaVuSans-50"/>
      </defs>
      <g transform="translate(178.913939 329.598437)scale(0.1 -0.1)">
       <use xlink:href="#DejaVuSans-50"/>
       <use x="63.623047" xlink:href="#DejaVuSans-48"/>
       <use x="127.246094" xlink:href="#DejaVuSans-48"/>
      </g>
     </g>
    </g>
    <g id="xtick_3">
     <g id="line2d_5">
      <path clip-path="url(#pe9c860f907)" d="M 261.551742 315 
L 261.551742 43.2 
" style="fill:none;stroke:#b0b0b0;stroke-linecap:square;stroke-width:0.8;"/>
     </g>
     <g id="line2d_6">
      <g>
       <use style="stroke:#000000;stroke-width:0.8;" x="261.551742" xlink:href="#m1d6cff2352" y="315"/>
      </g>
     </g>
     <g id="text_3">
      <!-- 400 -->
      <defs>
       <path d="M 37.796875 64.3125 
L 12.890625 25.390625 
L 37.796875 25.390625 
z
M 35.203125 72.90625 
L 47.609375 72.90625 
L 47.609375 25.390625 
L 58.015625 25.390625 
L 58.015625 17.1875 
L 47.609375 17.1875 
L 47.609375 0 
L 37.796875 0 
L 37.796875 17.1875 
L 4.890625 17.1875 
L 4.890625 26.703125 
z
" id="DejaVuSans-52"/>
      </defs>
      <g transform="translate(252.007992 329.598437)scale(0.1 -0.1)">
       <use xlink:href="#DejaVuSans-52"/>
       <use x="63.623047" xlink:href="#DejaVuSans-48"/>
       <use x="127.246094" xlink:href="#DejaVuSans-48"/>
      </g>
     </g>
    </g>
    <g id="xtick_4">
     <g id="line2d_7">
      <path clip-path="url(#pe9c860f907)" d="M 334.645795 315 
L 334.645795 43.2 
" style="fill:none;stroke:#b0b0b0;stroke-linecap:square;stroke-width:0.8;"/>
     </g>
     <g id="line2d_8">
      <g>
       <use style="stroke:#000000;stroke-width:0.8;" x="334.645795" xlink:href="#m1d6cff2352" y="315"/>
      </g>
     </g>
     <g id="text_4">
      <!-- 600 -->
      <defs>
       <path d="M 33.015625 40.375 
Q 26.375 40.375 22.484375 35.828125 
Q 18.609375 31.296875 18.609375 23.390625 
Q 18.609375 15.53125 22.484375 10.953125 
Q 26.375 6.390625 33.015625 6.390625 
Q 39.65625 6.390625 43.53125 10.953125 
Q 47.40625 15.53125 47.40625 23.390625 
Q 47.40625 31.296875 43.53125 35.828125 
Q 39.65625 40.375 33.015625 40.375 
z
M 52.59375 71.296875 
L 52.59375 62.3125 
Q 48.875 64.0625 45.09375 64.984375 
Q 41.3125 65.921875 37.59375 65.921875 
Q 27.828125 65.921875 22.671875 59.328125 
Q 17.53125 52.734375 16.796875 39.40625 
Q 19.671875 43.65625 24.015625 45.921875 
Q 28.375 48.1875 33.59375 48.1875 
Q 44.578125 48.1875 50.953125 41.515625 
Q 57.328125 34.859375 57.328125 23.390625 
Q 57.328125 12.15625 50.6875 5.359375 
Q 44.046875 -1.421875 33.015625 -1.421875 
Q 20.359375 -1.421875 13.671875 8.265625 
Q 6.984375 17.96875 6.984375 36.375 
Q 6.984375 53.65625 15.1875 63.9375 
Q 23.390625 74.21875 37.203125 74.21875 
Q 40.921875 74.21875 44.703125 73.484375 
Q 48.484375 72.75 52.59375 71.296875 
z
" id="DejaVuSans-54"/>
      </defs>
      <g transform="translate(325.102045 329.598437)scale(0.1 -0.1)">
       <use xlink:href="#DejaVuSans-54"/>
       <use x="63.623047" xlink:href="#DejaVuSans-48"/>
       <use x="127.246094" xlink:href="#DejaVuSans-48"/>
      </g>
     </g>
    </g>
    <g id="xtick_5">
     <g id="line2d_9">
      <path clip-path="url(#pe9c860f907)" d="M 407.739848 315 
L 407.739848 43.2 
" style="fill:none;stroke:#b0b0b0;stroke-linecap:square;stroke-width:0.8;"/>
     </g>
     <g id="line2d_10">
      <g>
       <use style="stroke:#000000;stroke-width:0.8;" x="407.739848" xlink:href="#m1d6cff2352" y="315"/>
      </g>
     </g>
     <g id="text_5">
      <!-- 800 -->
      <defs>
       <path d="M 31.78125 34.625 
Q 24.75 34.625 20.71875 30.859375 
Q 16.703125 27.09375 16.703125 20.515625 
Q 16.703125 13.921875 20.71875 10.15625 
Q 24.75 6.390625 31.78125 6.390625 
Q 38.8125 6.390625 42.859375 10.171875 
Q 46.921875 13.96875 46.921875 20.515625 
Q 46.921875 27.09375 42.890625 30.859375 
Q 38.875 34.625 31.78125 34.625 
z
M 21.921875 38.8125 
Q 15.578125 40.375 12.03125 44.71875 
Q 8.5 49.078125 8.5 55.328125 
Q 8.5 64.0625 14.71875 69.140625 
Q 20.953125 74.21875 31.78125 74.21875 
Q 42.671875 74.21875 48.875 69.140625 
Q 55.078125 64.0625 55.078125 55.328125 
Q 55.078125 49.078125 51.53125 44.71875 
Q 48 40.375 41.703125 38.8125 
Q 48.828125 37.15625 52.796875 32.3125 
Q 56.78125 27.484375 56.78125 20.515625 
Q 56.78125 9.90625 50.3125 4.234375 
Q 43.84375 -1.421875 31.78125 -1.421875 
Q 19.734375 -1.421875 13.25 4.234375 
Q 6.78125 9.90625 6.78125 20.515625 
Q 6.78125 27.484375 10.78125 32.3125 
Q 14.796875 37.15625 21.921875 38.8125 
z
M 18.3125 54.390625 
Q 18.3125 48.734375 21.84375 45.5625 
Q 25.390625 42.390625 31.78125 42.390625 
Q 38.140625 42.390625 41.71875 45.5625 
Q 45.3125 48.734375 45.3125 54.390625 
Q 45.3125 60.0625 41.71875 63.234375 
Q 38.140625 66.40625 31.78125 66.40625 
Q 25.390625 66.40625 21.84375 63.234375 
Q 18.3125 60.0625 18.3125 54.390625 
z
" id="DejaVuSans-56"/>
      </defs>
      <g transform="translate(398.196098 329.598437)scale(0.1 -0.1)">
       <use xlink:href="#DejaVuSans-56"/>
       <use x="63.623047" xlink:href="#DejaVuSans-48"/>
       <use x="127.246094" xlink:href="#DejaVuSans-48"/>
      </g>
     </g>
    </g>
    <g id="xtick_6">
     <g id="line2d_11">
      <path clip-path="url(#pe9c860f907)" d="M 480.833901 315 
L 480.833901 43.2 
" style="fill:none;stroke:#b0b0b0;stroke-linecap:square;stroke-width:0.8;"/>
     </g>
     <g id="line2d_12">
      <g>
       <use style="stroke:#000000;stroke-width:0.8;" x="480.833901" xlink:href="#m1d6cff2352" y="315"/>
      </g>
     </g>
     <g id="text_6">
      <!-- 1000 -->
      <defs>
       <path d="M 12.40625 8.296875 
L 28.515625 8.296875 
L 28.515625 63.921875 
L 10.984375 60.40625 
L 10.984375 69.390625 
L 28.421875 72.90625 
L 38.28125 72.90625 
L 38.28125 8.296875 
L 54.390625 8.296875 
L 54.390625 0 
L 12.40625 0 
z
" id="DejaVuSans-49"/>
      </defs>
      <g transform="translate(468.108901 329.598437)scale(0.1 -0.1)">
       <use xlink:href="#DejaVuSans-49"/>
       <use x="63.623047" xlink:href="#DejaVuSans-48"/>
       <use x="127.246094" xlink:href="#DejaVuSans-48"/>
       <use x="190.869141" xlink:href="#DejaVuSans-48"/>
      </g>
     </g>
    </g>
    <g id="xtick_7">
     <g id="line2d_13">
      <path clip-path="url(#pe9c860f907)" d="M 553.927954 315 
L 553.927954 43.2 
" style="fill:none;stroke:#b0b0b0;stroke-linecap:square;stroke-width:0.8;"/>
     </g>
     <g id="line2d_14">
      <g>
       <use style="stroke:#000000;stroke-width:0.8;" x="553.927954" xlink:href="#m1d6cff2352" y="315"/>
      </g>
     </g>
     <g id="text_7">
      <!-- 1200 -->
      <g transform="translate(541.202954 329.598437)scale(0.1 -0.1)">
       <use xlink:href="#DejaVuSans-49"/>
       <use x="63.623047" xlink:href="#DejaVuSans-50"/>
       <use x="127.246094" xlink:href="#DejaVuSans-48"/>
       <use x="190.869141" xlink:href="#DejaVuSans-48"/>
      </g>
     </g>
    </g>
    <g id="xtick_8">
     <g id="line2d_15">
      <path clip-path="url(#pe9c860f907)" d="M 627.022007 315 
L 627.022007 43.2 
" style="fill:none;stroke:#b0b0b0;stroke-linecap:square;stroke-width:0.8;"/>
     </g>
     <g id="line2d_16">
      <g>
       <use style="stroke:#000000;stroke-width:0.8;" x="627.022007" xlink:href="#m1d6cff2352" y="315"/>
      </g>
     </g>
     <g id="text_8">
      <!-- 1400 -->
      <g transform="translate(614.297007 329.598437)scale(0.1 -0.1)">
       <use xlink:href="#DejaVuSans-49"/>
       <use x="63.623047" xlink:href="#DejaVuSans-52"/>
       <use x="127.246094" xlink:href="#DejaVuSans-48"/>
       <use x="190.869141" xlink:href="#DejaVuSans-48"/>
      </g>
     </g>
    </g>
    <g id="text_9">
     <!-- epoch -->
     <defs>
      <path d="M 56.203125 29.59375 
L 56.203125 25.203125 
L 14.890625 25.203125 
Q 15.484375 15.921875 20.484375 11.0625 
Q 25.484375 6.203125 34.421875 6.203125 
Q 39.59375 6.203125 44.453125 7.46875 
Q 49.3125 8.734375 54.109375 11.28125 
L 54.109375 2.78125 
Q 49.265625 0.734375 44.1875 -0.34375 
Q 39.109375 -1.421875 33.890625 -1.421875 
Q 20.796875 -1.421875 13.15625 6.1875 
Q 5.515625 13.8125 5.515625 26.8125 
Q 5.515625 40.234375 12.765625 48.109375 
Q 20.015625 56 32.328125 56 
Q 43.359375 56 49.78125 48.890625 
Q 56.203125 41.796875 56.203125 29.59375 
z
M 47.21875 32.234375 
Q 47.125 39.59375 43.09375 43.984375 
Q 39.0625 48.390625 32.421875 48.390625 
Q 24.90625 48.390625 20.390625 44.140625 
Q 15.875 39.890625 15.1875 32.171875 
z
" id="DejaVuSans-101"/>
      <path d="M 18.109375 8.203125 
L 18.109375 -20.796875 
L 9.078125 -20.796875 
L 9.078125 54.6875 
L 18.109375 54.6875 
L 18.109375 46.390625 
Q 20.953125 51.265625 25.265625 53.625 
Q 29.59375 56 35.59375 56 
Q 45.5625 56 51.78125 48.09375 
Q 58.015625 40.1875 58.015625 27.296875 
Q 58.015625 14.40625 51.78125 6.484375 
Q 45.5625 -1.421875 35.59375 -1.421875 
Q 29.59375 -1.421875 25.265625 0.953125 
Q 20.953125 3.328125 18.109375 8.203125 
z
M 48.6875 27.296875 
Q 48.6875 37.203125 44.609375 42.84375 
Q 40.53125 48.484375 33.40625 48.484375 
Q 26.265625 48.484375 22.1875 42.84375 
Q 18.109375 37.203125 18.109375 27.296875 
Q 18.109375 17.390625 22.1875 11.75 
Q 26.265625 6.109375 33.40625 6.109375 
Q 40.53125 6.109375 44.609375 11.75 
Q 48.6875 17.390625 48.6875 27.296875 
z
" id="DejaVuSans-112"/>
      <path d="M 30.609375 48.390625 
Q 23.390625 48.390625 19.1875 42.75 
Q 14.984375 37.109375 14.984375 27.296875 
Q 14.984375 17.484375 19.15625 11.84375 
Q 23.34375 6.203125 30.609375 6.203125 
Q 37.796875 6.203125 41.984375 11.859375 
Q 46.1875 17.53125 46.1875 27.296875 
Q 46.1875 37.015625 41.984375 42.703125 
Q 37.796875 48.390625 30.609375 48.390625 
z
M 30.609375 56 
Q 42.328125 56 49.015625 48.375 
Q 55.71875 40.765625 55.71875 27.296875 
Q 55.71875 13.875 49.015625 6.21875 
Q 42.328125 -1.421875 30.609375 -1.421875 
Q 18.84375 -1.421875 12.171875 6.21875 
Q 5.515625 13.875 5.515625 27.296875 
Q 5.515625 40.765625 12.171875 48.375 
Q 18.84375 56 30.609375 56 
z
" id="DejaVuSans-111"/>
      <path d="M 48.78125 52.59375 
L 48.78125 44.1875 
Q 44.96875 46.296875 41.140625 47.34375 
Q 37.3125 48.390625 33.40625 48.390625 
Q 24.65625 48.390625 19.8125 42.84375 
Q 14.984375 37.3125 14.984375 27.296875 
Q 14.984375 17.28125 19.8125 11.734375 
Q 24.65625 6.203125 33.40625 6.203125 
Q 37.3125 6.203125 41.140625 7.25 
Q 44.96875 8.296875 48.78125 10.40625 
L 48.78125 2.09375 
Q 45.015625 0.34375 40.984375 -0.53125 
Q 36.96875 -1.421875 32.421875 -1.421875 
Q 20.0625 -1.421875 12.78125 6.34375 
Q 5.515625 14.109375 5.515625 27.296875 
Q 5.515625 40.671875 12.859375 48.328125 
Q 20.21875 56 33.015625 56 
Q 37.15625 56 41.109375 55.140625 
Q 45.0625 54.296875 48.78125 52.59375 
z
" id="DejaVuSans-99"/>
      <path d="M 54.890625 33.015625 
L 54.890625 0 
L 45.90625 0 
L 45.90625 32.71875 
Q 45.90625 40.484375 42.875 44.328125 
Q 39.84375 48.1875 33.796875 48.1875 
Q 26.515625 48.1875 22.3125 43.546875 
Q 18.109375 38.921875 18.109375 30.90625 
L 18.109375 0 
L 9.078125 0 
L 9.078125 75.984375 
L 18.109375 75.984375 
L 18.109375 46.1875 
Q 21.34375 51.125 25.703125 53.5625 
Q 30.078125 56 35.796875 56 
Q 45.21875 56 50.046875 50.171875 
Q 54.890625 44.34375 54.890625 33.015625 
z
" id="DejaVuSans-104"/>
     </defs>
     <g transform="translate(353.771875 343.276563)scale(0.1 -0.1)">
      <use xlink:href="#DejaVuSans-101"/>
      <use x="61.523438" xlink:href="#DejaVuSans-112"/>
      <use x="125" xlink:href="#DejaVuSans-111"/>
      <use x="186.181641" xlink:href="#DejaVuSans-99"/>
      <use x="241.162109" xlink:href="#DejaVuSans-104"/>
     </g>
    </g>
   </g>
   <g id="matplotlib.axis_2">
    <g id="ytick_1">
     <g id="line2d_17">
      <path clip-path="url(#pe9c860f907)" d="M 90 290.330957 
L 648 290.330957 
" style="fill:none;stroke:#b0b0b0;stroke-linecap:square;stroke-width:0.8;"/>
     </g>
     <g id="line2d_18">
      <defs>
       <path d="M 0 0 
L -3.5 0 
" id="m932e779eca" style="stroke:#000000;stroke-width:0.8;"/>
      </defs>
      <g>
       <use style="stroke:#000000;stroke-width:0.8;" x="90" xlink:href="#m932e779eca" y="290.330957"/>
      </g>
     </g>
     <g id="text_10">
      <!-- 0.2 -->
      <defs>
       <path d="M 10.6875 12.40625 
L 21 12.40625 
L 21 0 
L 10.6875 0 
z
" id="DejaVuSans-46"/>
      </defs>
      <g transform="translate(67.096875 294.130176)scale(0.1 -0.1)">
       <use xlink:href="#DejaVuSans-48"/>
       <use x="63.623047" xlink:href="#DejaVuSans-46"/>
       <use x="95.410156" xlink:href="#DejaVuSans-50"/>
      </g>
     </g>
    </g>
    <g id="ytick_2">
     <g id="line2d_19">
      <path clip-path="url(#pe9c860f907)" d="M 90 257.451547 
L 648 257.451547 
" style="fill:none;stroke:#b0b0b0;stroke-linecap:square;stroke-width:0.8;"/>
     </g>
     <g id="line2d_20">
      <g>
       <use style="stroke:#000000;stroke-width:0.8;" x="90" xlink:href="#m932e779eca" y="257.451547"/>
      </g>
     </g>
     <g id="text_11">
      <!-- 0.4 -->
      <g transform="translate(67.096875 261.250765)scale(0.1 -0.1)">
       <use xlink:href="#DejaVuSans-48"/>
       <use x="63.623047" xlink:href="#DejaVuSans-46"/>
       <use x="95.410156" xlink:href="#DejaVuSans-52"/>
      </g>
     </g>
    </g>
    <g id="ytick_3">
     <g id="line2d_21">
      <path clip-path="url(#pe9c860f907)" d="M 90 224.572136 
L 648 224.572136 
" style="fill:none;stroke:#b0b0b0;stroke-linecap:square;stroke-width:0.8;"/>
     </g>
     <g id="line2d_22">
      <g>
       <use style="stroke:#000000;stroke-width:0.8;" x="90" xlink:href="#m932e779eca" y="224.572136"/>
      </g>
     </g>
     <g id="text_12">
      <!-- 0.6 -->
      <g transform="translate(67.096875 228.371355)scale(0.1 -0.1)">
       <use xlink:href="#DejaVuSans-48"/>
       <use x="63.623047" xlink:href="#DejaVuSans-46"/>
       <use x="95.410156" xlink:href="#DejaVuSans-54"/>
      </g>
     </g>
    </g>
    <g id="ytick_4">
     <g id="line2d_23">
      <path clip-path="url(#pe9c860f907)" d="M 90 191.692726 
L 648 191.692726 
" style="fill:none;stroke:#b0b0b0;stroke-linecap:square;stroke-width:0.8;"/>
     </g>
     <g id="line2d_24">
      <g>
       <use style="stroke:#000000;stroke-width:0.8;" x="90" xlink:href="#m932e779eca" y="191.692726"/>
      </g>
     </g>
     <g id="text_13">
      <!-- 0.8 -->
      <g transform="translate(67.096875 195.491945)scale(0.1 -0.1)">
       <use xlink:href="#DejaVuSans-48"/>
       <use x="63.623047" xlink:href="#DejaVuSans-46"/>
       <use x="95.410156" xlink:href="#DejaVuSans-56"/>
      </g>
     </g>
    </g>
    <g id="ytick_5">
     <g id="line2d_25">
      <path clip-path="url(#pe9c860f907)" d="M 90 158.813315 
L 648 158.813315 
" style="fill:none;stroke:#b0b0b0;stroke-linecap:square;stroke-width:0.8;"/>
     </g>
     <g id="line2d_26">
      <g>
       <use style="stroke:#000000;stroke-width:0.8;" x="90" xlink:href="#m932e779eca" y="158.813315"/>
      </g>
     </g>
     <g id="text_14">
      <!-- 1.0 -->
      <g transform="translate(67.096875 162.612534)scale(0.1 -0.1)">
       <use xlink:href="#DejaVuSans-49"/>
       <use x="63.623047" xlink:href="#DejaVuSans-46"/>
       <use x="95.410156" xlink:href="#DejaVuSans-48"/>
      </g>
     </g>
    </g>
    <g id="ytick_6">
     <g id="line2d_27">
      <path clip-path="url(#pe9c860f907)" d="M 90 125.933905 
L 648 125.933905 
" style="fill:none;stroke:#b0b0b0;stroke-linecap:square;stroke-width:0.8;"/>
     </g>
     <g id="line2d_28">
      <g>
       <use style="stroke:#000000;stroke-width:0.8;" x="90" xlink:href="#m932e779eca" y="125.933905"/>
      </g>
     </g>
     <g id="text_15">
      <!-- 1.2 -->
      <g transform="translate(67.096875 129.733124)scale(0.1 -0.1)">
       <use xlink:href="#DejaVuSans-49"/>
       <use x="63.623047" xlink:href="#DejaVuSans-46"/>
       <use x="95.410156" xlink:href="#DejaVuSans-50"/>
      </g>
     </g>
    </g>
    <g id="ytick_7">
     <g id="line2d_29">
      <path clip-path="url(#pe9c860f907)" d="M 90 93.054495 
L 648 93.054495 
" style="fill:none;stroke:#b0b0b0;stroke-linecap:square;stroke-width:0.8;"/>
     </g>
     <g id="line2d_30">
      <g>
       <use style="stroke:#000000;stroke-width:0.8;" x="90" xlink:href="#m932e779eca" y="93.054495"/>
      </g>
     </g>
     <g id="text_16">
      <!-- 1.4 -->
      <g transform="translate(67.096875 96.853713)scale(0.1 -0.1)">
       <use xlink:href="#DejaVuSans-49"/>
       <use x="63.623047" xlink:href="#DejaVuSans-46"/>
       <use x="95.410156" xlink:href="#DejaVuSans-52"/>
      </g>
     </g>
    </g>
    <g id="ytick_8">
     <g id="line2d_31">
      <path clip-path="url(#pe9c860f907)" d="M 90 60.175084 
L 648 60.175084 
" style="fill:none;stroke:#b0b0b0;stroke-linecap:square;stroke-width:0.8;"/>
     </g>
     <g id="line2d_32">
      <g>
       <use style="stroke:#000000;stroke-width:0.8;" x="90" xlink:href="#m932e779eca" y="60.175084"/>
      </g>
     </g>
     <g id="text_17">
      <!-- 1.6 -->
      <g transform="translate(67.096875 63.974303)scale(0.1 -0.1)">
       <use xlink:href="#DejaVuSans-49"/>
       <use x="63.623047" xlink:href="#DejaVuSans-46"/>
       <use x="95.410156" xlink:href="#DejaVuSans-54"/>
      </g>
     </g>
    </g>
    <g id="text_18">
     <!-- loss -->
     <defs>
      <path d="M 9.421875 75.984375 
L 18.40625 75.984375 
L 18.40625 0 
L 9.421875 0 
z
" id="DejaVuSans-108"/>
      <path d="M 44.28125 53.078125 
L 44.28125 44.578125 
Q 40.484375 46.53125 36.375 47.5 
Q 32.28125 48.484375 27.875 48.484375 
Q 21.1875 48.484375 17.84375 46.4375 
Q 14.5 44.390625 14.5 40.28125 
Q 14.5 37.15625 16.890625 35.375 
Q 19.28125 33.59375 26.515625 31.984375 
L 29.59375 31.296875 
Q 39.15625 29.25 43.1875 25.515625 
Q 47.21875 21.78125 47.21875 15.09375 
Q 47.21875 7.46875 41.1875 3.015625 
Q 35.15625 -1.421875 24.609375 -1.421875 
Q 20.21875 -1.421875 15.453125 -0.5625 
Q 10.6875 0.296875 5.421875 2 
L 5.421875 11.28125 
Q 10.40625 8.6875 15.234375 7.390625 
Q 20.0625 6.109375 24.8125 6.109375 
Q 31.15625 6.109375 34.5625 8.28125 
Q 37.984375 10.453125 37.984375 14.40625 
Q 37.984375 18.0625 35.515625 20.015625 
Q 33.0625 21.96875 24.703125 23.78125 
L 21.578125 24.515625 
Q 13.234375 26.265625 9.515625 29.90625 
Q 5.8125 33.546875 5.8125 39.890625 
Q 5.8125 47.609375 11.28125 51.796875 
Q 16.75 56 26.8125 56 
Q 31.78125 56 36.171875 55.265625 
Q 40.578125 54.546875 44.28125 53.078125 
z
" id="DejaVuSans-115"/>
     </defs>
     <g transform="translate(61.017187 188.757812)rotate(-90)scale(0.1 -0.1)">
      <use xlink:href="#DejaVuSans-108"/>
      <use x="27.783203" xlink:href="#DejaVuSans-111"/>
      <use x="88.964844" xlink:href="#DejaVuSans-115"/>
      <use x="141.064453" xlink:href="#DejaVuSans-115"/>
     </g>
    </g>
   </g>
   <g id="line2d_33">
    <path clip-path="url(#pe9c860f907)" d="M 115.363636 55.554545 
L 115.729107 68.470664 
L 116.094577 69.190243 
L 116.825517 75.392586 
L 117.556458 78.500605 
L 117.921928 82.553517 
L 118.287398 82.603716 
L 118.652869 82.21223 
L 119.018339 84.111306 
L 119.383809 83.839132 
L 119.74928 85.276162 
L 120.11475 85.065877 
L 120.48022 86.676062 
L 120.84569 84.45214 
L 121.211161 84.17171 
L 121.576631 87.151738 
L 121.942101 87.748948 
L 122.307571 88.738724 
L 122.673042 88.525932 
L 123.038512 89.872924 
L 123.403982 90.733578 
L 123.769452 92.368081 
L 124.134923 91.195269 
L 124.500393 93.659207 
L 124.865863 93.679678 
L 125.231334 94.681334 
L 125.596804 97.973445 
L 125.962274 97.162573 
L 126.327744 99.135246 
L 126.693215 100.33081 
L 127.424155 105.930623 
L 127.789625 107.099131 
L 128.155096 109.337557 
L 128.520566 112.689442 
L 128.886036 114.701958 
L 129.982447 126.200736 
L 130.347917 127.582013 
L 130.713387 133.567203 
L 131.078858 135.924358 
L 131.444328 136.785202 
L 131.809798 144.993339 
L 132.175269 146.638578 
L 132.906209 157.286644 
L 133.271679 158.105636 
L 134.00262 165.100872 
L 134.36809 166.44846 
L 134.73356 169.033477 
L 135.099031 169.113104 
L 135.464501 176.500396 
L 135.829971 175.058381 
L 136.926382 184.828919 
L 137.291852 187.269878 
L 137.657323 187.716754 
L 138.022793 194.197914 
L 138.388263 194.947622 
L 138.753733 196.834656 
L 139.119204 200.034737 
L 139.484674 201.852025 
L 140.215614 206.24708 
L 140.581085 211.718465 
L 140.946555 210.80939 
L 141.677495 215.033598 
L 142.042966 215.742241 
L 142.408436 218.419208 
L 142.773906 218.094048 
L 143.504847 224.969054 
L 143.870317 222.191395 
L 144.235787 227.14177 
L 144.601258 227.579206 
L 144.966728 228.986197 
L 145.332198 229.792807 
L 145.697668 232.38079 
L 146.063139 231.544732 
L 146.428609 234.417116 
L 146.794079 231.389785 
L 147.159549 235.482089 
L 147.52502 235.925205 
L 147.89049 234.999567 
L 148.25596 236.345392 
L 148.62143 237.254762 
L 148.986901 233.889421 
L 149.352371 232.955795 
L 149.717841 240.065296 
L 150.083312 238.745605 
L 150.448782 239.414977 
L 150.814252 241.834124 
L 151.179722 241.569294 
L 151.545193 242.664525 
L 151.910663 245.538804 
L 152.276133 242.864989 
L 153.007074 247.974268 
L 153.372544 243.718967 
L 153.738014 246.355456 
L 154.103484 246.321974 
L 154.468955 246.564384 
L 154.834425 248.106709 
L 155.565365 245.803849 
L 155.930836 249.478492 
L 156.296306 248.631158 
L 156.661776 250.031735 
L 157.027247 250.206876 
L 157.392717 251.850769 
L 157.758187 249.30441 
L 158.123657 251.632922 
L 158.489128 252.21261 
L 158.854598 252.283387 
L 159.220068 255.0536 
L 160.316479 251.849189 
L 160.681949 252.669969 
L 161.047419 252.233101 
L 161.41289 254.029422 
L 161.77836 256.647704 
L 162.14383 253.668446 
L 162.5093 255.68426 
L 163.240241 254.885418 
L 163.605711 258.949123 
L 163.971182 259.697063 
L 164.336652 257.501266 
L 164.702122 258.066267 
L 165.067592 257.80412 
L 165.433063 259.187447 
L 165.798533 255.598341 
L 166.164003 261.312708 
L 166.529473 256.710986 
L 166.894944 258.537998 
L 167.260414 258.00626 
L 167.625884 259.161265 
L 167.991354 261.121341 
L 168.356825 261.664438 
L 168.722295 260.1325 
L 169.087765 259.56432 
L 169.453236 263.035413 
L 170.184176 261.941931 
L 170.549646 260.612009 
L 170.915117 263.015919 
L 171.280587 262.067687 
L 171.646057 262.023611 
L 172.011527 263.120164 
L 172.376998 262.283811 
L 172.742468 265.133875 
L 173.473408 264.135101 
L 173.838879 263.056402 
L 174.204349 264.118186 
L 174.569819 262.745815 
L 174.935289 266.189849 
L 175.30076 260.782805 
L 175.66623 263.556602 
L 176.397171 267.104793 
L 176.762641 266.121746 
L 177.128111 262.644817 
L 177.493581 265.818128 
L 177.859052 265.133774 
L 178.224522 264.95904 
L 178.589992 268.165465 
L 178.955462 266.722449 
L 179.320933 267.855269 
L 179.686403 266.916808 
L 180.051873 265.385886 
L 180.417343 267.009758 
L 180.782814 266.113519 
L 181.148284 267.012497 
L 181.513754 264.801184 
L 181.879225 266.318463 
L 182.244695 265.545718 
L 182.610165 266.657314 
L 182.975635 267.053066 
L 183.341106 266.797099 
L 183.706576 267.578654 
L 184.072046 268.700687 
L 184.437516 268.245083 
L 184.802987 269.695085 
L 185.168457 267.181835 
L 185.533927 268.650391 
L 185.899397 269.282887 
L 186.264868 269.075598 
L 186.630338 268.67769 
L 186.995808 270.084444 
L 187.361278 267.730069 
L 187.726749 270.964372 
L 188.092219 270.551501 
L 188.82316 268.624807 
L 189.5541 271.813617 
L 189.91957 272.088116 
L 190.285041 272.530875 
L 190.650511 270.466185 
L 191.015981 270.774947 
L 191.381451 271.521037 
L 191.746922 269.400293 
L 192.112392 271.742819 
L 192.477862 270.441873 
L 192.843332 269.730177 
L 193.208803 271.066075 
L 193.939743 271.200917 
L 194.305214 273.514437 
L 194.670684 270.344552 
L 195.036154 271.81547 
L 195.401624 273.981582 
L 195.767095 271.823554 
L 196.132565 271.291466 
L 196.498035 272.242858 
L 196.863505 274.027468 
L 197.228976 273.342777 
L 197.959916 272.719379 
L 198.325386 275.106695 
L 198.690857 270.819204 
L 199.056327 274.725206 
L 199.421797 274.352164 
L 199.787267 273.308662 
L 200.152738 273.305181 
L 200.518208 276.310608 
L 200.883678 271.685465 
L 201.249149 275.791391 
L 201.614619 271.110142 
L 201.980089 273.65339 
L 202.345559 273.611221 
L 202.71103 275.705168 
L 203.0765 274.417236 
L 203.44197 275.524538 
L 203.80744 272.297126 
L 204.172911 277.720419 
L 204.538381 276.416218 
L 204.903851 277.077332 
L 205.634792 274.347795 
L 206.000262 276.461027 
L 206.365732 276.824506 
L 206.731203 275.160965 
L 207.096673 274.69726 
L 207.462143 276.940311 
L 207.827613 276.599515 
L 208.193084 274.016401 
L 208.924024 275.619691 
L 209.289494 274.401935 
L 209.654965 276.051482 
L 210.020435 276.787462 
L 210.385905 276.134368 
L 210.751375 274.925581 
L 211.116846 275.649442 
L 211.482316 275.402367 
L 211.847786 278.967065 
L 212.213256 275.602245 
L 212.578727 275.887813 
L 212.944197 279.524296 
L 213.309667 277.388148 
L 213.675138 276.555097 
L 214.040608 278.251978 
L 214.406078 277.246842 
L 214.771548 279.651256 
L 215.137019 274.886033 
L 215.502489 277.989519 
L 215.867959 277.352308 
L 216.233429 278.806879 
L 216.5989 277.164184 
L 216.96437 276.312959 
L 217.32984 276.826157 
L 217.69531 279.04753 
L 218.060781 277.434378 
L 218.426251 277.620138 
L 219.157192 277.456421 
L 219.522662 277.910584 
L 219.888132 278.068785 
L 220.619073 280.14919 
L 220.984543 278.05061 
L 221.350013 278.288611 
L 221.715483 279.609178 
L 222.080954 277.889475 
L 222.446424 279.2255 
L 222.811894 276.822418 
L 223.177364 277.339076 
L 223.542835 277.538969 
L 223.908305 278.058313 
L 224.273775 277.80549 
L 224.639245 280.39669 
L 225.004716 278.592136 
L 225.370186 279.822817 
L 225.735656 279.848491 
L 226.101127 279.760391 
L 226.466597 277.604743 
L 226.832067 280.198543 
L 227.197537 279.923606 
L 227.563008 278.440562 
L 228.293948 281.230272 
L 229.024889 279.775161 
L 229.390359 278.35655 
L 229.755829 282.081142 
L 230.121299 279.025695 
L 230.48677 281.843593 
L 230.85224 278.537983 
L 231.21771 281.740319 
L 231.583181 280.953859 
L 231.948651 279.043945 
L 232.314121 279.333033 
L 233.045062 282.372728 
L 233.776002 279.794855 
L 234.141472 280.899912 
L 234.506943 281.572382 
L 234.872413 281.811516 
L 235.237883 282.399504 
L 235.603353 283.208265 
L 235.968824 283.510596 
L 236.334294 280.598359 
L 236.699764 280.322322 
L 237.065234 282.50673 
L 237.430705 283.137212 
L 237.796175 282.485111 
L 238.161645 282.078459 
L 238.527116 282.326356 
L 238.892586 282.1841 
L 239.258056 281.830673 
L 239.623526 280.608152 
L 239.988997 280.422069 
L 240.354467 282.885628 
L 240.719937 280.472651 
L 241.085407 282.005627 
L 241.450878 282.276818 
L 241.816348 281.963759 
L 242.181818 282.230062 
L 242.547288 285.285994 
L 242.912759 284.628416 
L 243.278229 281.503941 
L 243.643699 282.883398 
L 244.00917 282.225094 
L 244.37464 282.313294 
L 244.74011 283.281847 
L 245.10558 282.865851 
L 245.471051 281.009507 
L 245.836521 283.266103 
L 246.201991 284.523131 
L 246.567461 282.878404 
L 246.932932 284.957277 
L 247.298402 286.052676 
L 247.663872 284.337786 
L 248.029342 279.971055 
L 248.394813 281.815146 
L 248.760283 282.099758 
L 249.125753 281.756631 
L 249.491223 282.922284 
L 249.856694 283.014184 
L 250.222164 283.496325 
L 250.587634 282.174267 
L 250.953105 283.564362 
L 251.318575 281.071046 
L 251.684045 283.784546 
L 252.049515 284.553117 
L 252.414986 283.911479 
L 252.780456 282.692179 
L 253.145926 284.723488 
L 253.876867 282.25726 
L 254.242337 285.404953 
L 254.607807 284.582258 
L 254.973277 282.169134 
L 255.338748 282.125039 
L 255.704218 281.447465 
L 256.069688 282.965573 
L 256.435159 283.760308 
L 256.800629 284.955848 
L 257.166099 283.587421 
L 257.531569 284.346337 
L 257.89704 284.691283 
L 258.62798 281.736507 
L 258.99345 285.986498 
L 259.358921 284.057076 
L 259.724391 284.788341 
L 260.089861 282.056737 
L 260.455331 284.344446 
L 260.820802 285.52464 
L 261.186272 285.645868 
L 261.551742 284.29349 
L 262.282683 280.911492 
L 262.648153 285.019289 
L 263.013623 285.20713 
L 263.379094 284.04841 
L 263.744564 284.283269 
L 264.110034 285.438426 
L 264.475504 284.633396 
L 264.840975 285.464 
L 265.206445 284.308239 
L 265.571915 284.179801 
L 265.937385 286.239019 
L 266.302856 284.713894 
L 266.668326 286.358778 
L 267.033796 283.907532 
L 267.399266 284.561426 
L 267.764737 284.919584 
L 268.130207 284.352125 
L 268.495677 284.538044 
L 268.861147 283.676685 
L 269.226618 284.381998 
L 269.592088 284.178914 
L 269.957558 284.863975 
L 270.323029 285.9726 
L 270.688499 285.231983 
L 271.053969 283.660064 
L 271.419439 286.567493 
L 271.78491 285.856065 
L 272.15038 285.573614 
L 272.88132 288.301315 
L 273.612261 284.888032 
L 273.977731 286.041368 
L 274.343201 285.386636 
L 274.708672 283.554575 
L 275.074142 284.934898 
L 275.439612 286.828526 
L 275.805083 285.579156 
L 276.170553 285.153964 
L 276.536023 286.198568 
L 276.901493 288.296848 
L 277.266964 284.552124 
L 277.632434 285.244938 
L 277.997904 283.977371 
L 278.363374 288.874711 
L 279.094315 285.631861 
L 279.459785 287.625275 
L 280.190726 286.281842 
L 280.556196 287.927012 
L 280.921666 288.179061 
L 281.652607 283.545068 
L 282.018077 286.770956 
L 282.749018 283.802645 
L 283.114488 286.55997 
L 283.479958 283.880363 
L 283.845428 287.736607 
L 284.210899 285.302642 
L 284.576369 284.560901 
L 284.941839 287.174267 
L 285.307309 286.440384 
L 285.67278 288.648577 
L 286.03825 286.588844 
L 286.40372 286.078389 
L 286.76919 284.922532 
L 287.500131 287.774283 
L 287.865601 287.134252 
L 288.231072 287.15296 
L 288.596542 286.955755 
L 288.962012 288.181634 
L 289.327482 285.714011 
L 289.692953 287.840054 
L 290.058423 286.086495 
L 290.423893 289.603319 
L 290.789363 285.833874 
L 291.154834 286.132608 
L 291.520304 287.137389 
L 291.885774 288.487783 
L 292.251244 288.000036 
L 292.616715 287.837942 
L 292.982185 288.190976 
L 293.347655 286.777823 
L 293.713125 288.376433 
L 294.078596 288.505104 
L 294.444066 287.091152 
L 294.809536 288.193304 
L 295.175007 287.518363 
L 295.540477 285.833361 
L 295.905947 288.059236 
L 297.367828 286.935087 
L 297.733298 288.94031 
L 298.464239 285.846374 
L 298.829709 287.999632 
L 299.195179 286.695105 
L 299.56065 289.438159 
L 299.92612 288.095073 
L 300.29159 288.442862 
L 300.657061 288.166262 
L 301.022531 287.394654 
L 301.388001 287.836795 
L 301.753471 287.959751 
L 302.118942 287.70138 
L 302.484412 285.298571 
L 302.849882 286.742102 
L 303.215352 288.890919 
L 303.580823 287.803307 
L 303.946293 289.429466 
L 304.311763 289.225187 
L 304.677233 289.305057 
L 305.408174 288.831289 
L 306.139114 287.930722 
L 306.504585 289.872776 
L 306.870055 288.781111 
L 307.235525 292.622756 
L 307.966466 288.632504 
L 308.331936 289.029859 
L 308.697406 289.895866 
L 309.062877 287.833848 
L 309.428347 289.654434 
L 309.793817 289.740709 
L 310.159287 288.363671 
L 310.524758 290.724044 
L 310.890228 287.174999 
L 311.255698 289.198128 
L 311.986639 289.522359 
L 312.352109 288.175091 
L 312.717579 288.377994 
L 313.44852 289.668837 
L 313.81399 289.93303 
L 314.17946 288.667084 
L 314.910401 290.149778 
L 315.275871 290.589534 
L 315.641341 289.388742 
L 316.006812 289.30816 
L 316.372282 288.843944 
L 316.737752 287.382014 
L 317.103222 291.629757 
L 317.468693 291.73144 
L 317.834163 288.156954 
L 318.199633 289.857658 
L 318.565103 290.25879 
L 318.930574 289.384939 
L 319.296044 289.342542 
L 319.661514 287.172242 
L 320.026985 288.977925 
L 320.392455 289.86663 
L 320.757925 289.117205 
L 321.123395 289.721205 
L 321.488866 289.596424 
L 321.854336 290.169524 
L 322.219806 287.738262 
L 322.585276 290.125978 
L 322.950747 287.403977 
L 323.316217 291.398938 
L 323.681687 290.239948 
L 324.047157 290.648288 
L 324.412628 288.417001 
L 324.778098 288.139009 
L 325.143568 289.693444 
L 325.509039 290.613647 
L 325.874509 292.851515 
L 326.239979 288.91132 
L 326.605449 289.06309 
L 326.97092 290.991605 
L 327.33639 289.003136 
L 327.70186 292.057347 
L 328.06733 290.032602 
L 328.432801 286.876883 
L 328.798271 291.016727 
L 329.163741 288.909826 
L 329.529211 291.647523 
L 329.894682 286.532166 
L 330.260152 290.187635 
L 330.625622 290.847494 
L 330.991092 290.593341 
L 331.356563 290.129877 
L 331.722033 292.498792 
L 332.087503 288.267728 
L 332.452974 291.272942 
L 332.818444 290.7481 
L 333.183914 289.094412 
L 333.549384 288.225187 
L 333.914855 289.612187 
L 334.280325 289.827526 
L 334.645795 291.584664 
L 335.011265 289.031271 
L 335.376736 290.662734 
L 335.742206 289.683709 
L 336.107676 292.072249 
L 336.473146 290.191467 
L 337.204087 290.310348 
L 337.569557 289.281235 
L 337.935028 291.086384 
L 338.300498 289.763696 
L 338.665968 289.245849 
L 339.031438 289.829484 
L 339.396909 290.084044 
L 339.762379 289.449529 
L 340.127849 291.036704 
L 340.493319 290.638734 
L 340.85879 290.019759 
L 341.22426 291.939912 
L 341.58973 291.84856 
L 341.9552 292.354285 
L 342.686141 290.52816 
L 343.417081 290.135362 
L 343.782552 292.257983 
L 344.148022 290.74376 
L 344.513492 289.811239 
L 344.878963 291.418862 
L 345.244433 291.870301 
L 345.609903 289.521134 
L 345.975373 289.867418 
L 346.340844 290.529473 
L 346.706314 292.066317 
L 347.071784 289.052262 
L 347.437254 290.101778 
L 347.802725 289.778704 
L 348.168195 291.372334 
L 348.533665 291.133987 
L 348.899135 289.553732 
L 349.264606 290.612083 
L 349.630076 290.998466 
L 349.995546 289.793693 
L 350.361017 292.195306 
L 350.726487 291.414858 
L 351.091957 289.752281 
L 351.457427 291.73934 
L 351.822898 290.05787 
L 352.553838 290.175776 
L 352.919308 292.516985 
L 353.284779 292.230093 
L 354.015719 290.896292 
L 354.381189 290.98889 
L 354.74666 290.137963 
L 355.11213 290.968463 
L 355.4776 291.189796 
L 355.84307 292.303031 
L 356.208541 291.645178 
L 356.574011 292.987911 
L 356.939481 289.172139 
L 357.304952 292.314998 
L 357.670422 292.135805 
L 358.035892 290.453546 
L 358.401362 291.840566 
L 358.766833 289.504781 
L 359.132303 289.903253 
L 359.497773 290.61751 
L 359.863243 293.614969 
L 360.228714 291.980365 
L 360.594184 293.058722 
L 360.959654 290.569218 
L 361.325124 291.169159 
L 361.690595 290.463504 
L 362.056065 291.184826 
L 362.421535 293.462793 
L 362.787006 290.58525 
L 363.152476 293.96587 
L 363.517946 291.498822 
L 363.883416 286.65369 
L 364.248887 293.416793 
L 364.614357 292.21819 
L 364.979827 293.329816 
L 365.345297 292.052643 
L 365.710768 294.143502 
L 366.076238 293.130779 
L 366.441708 291.722273 
L 366.807178 295.367424 
L 367.172649 292.402757 
L 367.538119 292.537635 
L 367.903589 291.903872 
L 368.269059 294.854821 
L 368.63453 293.713038 
L 369 292.943445 
L 369.36547 292.845279 
L 369.730941 293.7705 
L 370.096411 290.52446 
L 370.461881 292.454525 
L 370.827351 291.887624 
L 371.558292 292.975827 
L 371.923762 291.749717 
L 372.289232 291.375206 
L 372.654703 291.637822 
L 373.020173 293.585688 
L 373.385643 293.753946 
L 373.751113 292.758707 
L 374.116584 293.462438 
L 374.482054 292.071668 
L 374.847524 293.57576 
L 375.212994 291.557628 
L 375.578465 294.781836 
L 375.943935 292.871406 
L 376.309405 292.337056 
L 377.040346 293.195949 
L 377.405816 293.180109 
L 377.771286 292.186052 
L 378.136757 294.042175 
L 378.502227 293.32203 
L 378.867697 294.095484 
L 379.233167 294.097841 
L 379.598638 293.138317 
L 379.964108 292.678972 
L 380.329578 293.582793 
L 380.695048 290.560745 
L 381.060519 294.847625 
L 381.425989 294.782093 
L 381.791459 294.281661 
L 382.15693 292.392463 
L 382.5224 293.801947 
L 382.88787 293.352447 
L 383.25334 292.518463 
L 383.618811 293.320406 
L 383.984281 292.020766 
L 384.349751 293.907624 
L 384.715221 291.727093 
L 385.080692 292.594487 
L 385.446162 294.992968 
L 385.811632 293.541727 
L 386.177102 293.034952 
L 386.542573 293.910473 
L 386.908043 291.097933 
L 387.273513 292.491863 
L 387.638983 291.866761 
L 388.004454 292.554822 
L 388.369924 291.495864 
L 388.735394 294.272804 
L 389.466335 293.736717 
L 389.831805 292.161943 
L 390.197275 294.358465 
L 390.562746 294.988086 
L 390.928216 292.854316 
L 391.659156 294.456236 
L 392.024627 293.246166 
L 392.390097 294.895139 
L 392.755567 294.879728 
L 393.121037 293.177625 
L 393.851978 292.183057 
L 394.217448 293.777319 
L 394.582919 294.128409 
L 394.948389 295.795175 
L 395.313859 295.443766 
L 395.679329 293.174027 
L 396.41027 294.90048 
L 396.77574 293.402511 
L 397.14121 292.946666 
L 397.506681 294.030238 
L 397.872151 291.235584 
L 398.237621 295.026798 
L 398.603091 294.231188 
L 399.334032 295.953274 
L 400.064972 293.20897 
L 400.430443 293.774256 
L 400.795913 292.971269 
L 401.526854 294.029772 
L 401.892324 296.595739 
L 402.257794 293.132171 
L 402.623264 294.190819 
L 402.988735 293.861883 
L 403.354205 292.341588 
L 403.719675 294.821667 
L 404.085145 292.881 
L 404.450616 294.6677 
L 404.816086 295.147269 
L 405.181556 292.555701 
L 405.547026 294.709447 
L 405.912497 295.083426 
L 406.277967 294.55494 
L 406.643437 293.034841 
L 407.374378 295.079072 
L 407.739848 292.389501 
L 408.105318 294.774027 
L 408.470789 295.754867 
L 408.836259 293.913507 
L 409.201729 292.989794 
L 409.567199 297.310066 
L 409.93267 294.299053 
L 410.29814 294.116719 
L 410.66361 294.297051 
L 411.02908 294.975372 
L 411.394551 293.345699 
L 411.760021 293.475249 
L 412.125491 295.066405 
L 412.490961 294.606372 
L 412.856432 291.828585 
L 413.221902 292.608901 
L 413.587372 294.367305 
L 413.952843 291.964069 
L 414.318313 294.973636 
L 414.683783 294.412109 
L 415.049253 291.90301 
L 415.414724 291.96148 
L 415.780194 294.826054 
L 416.145664 293.319768 
L 416.511134 294.883404 
L 416.876605 294.380305 
L 417.242075 294.694634 
L 417.607545 294.70021 
L 417.973015 295.2303 
L 418.338486 293.922331 
L 418.703956 294.758127 
L 419.069426 293.854922 
L 419.434897 297.352968 
L 419.800367 295.952369 
L 420.165837 295.015825 
L 420.531307 294.793873 
L 420.896778 293.49442 
L 421.627718 296.197318 
L 421.993188 296.873885 
L 422.358659 294.47503 
L 422.724129 293.425376 
L 423.089599 297.586539 
L 423.455069 294.373359 
L 423.82054 295.715506 
L 424.18601 294.379388 
L 424.91695 293.660877 
L 425.282421 295.857236 
L 425.647891 292.508724 
L 426.013361 294.289465 
L 426.378832 293.849519 
L 426.744302 292.82019 
L 427.109772 295.425712 
L 427.475242 293.383105 
L 427.840713 292.410575 
L 428.206183 294.811747 
L 428.571653 296.195526 
L 428.937123 292.974366 
L 429.302594 293.143672 
L 429.668064 296.732805 
L 430.033534 295.971945 
L 430.399004 296.690627 
L 430.764475 294.676724 
L 431.129945 294.317967 
L 431.495415 294.218186 
L 431.860886 293.606178 
L 432.226356 294.278372 
L 432.591826 293.355027 
L 432.957296 295.320219 
L 433.322767 294.275189 
L 433.688237 293.618555 
L 434.053707 295.775239 
L 434.419177 295.215009 
L 434.784648 293.723406 
L 435.150118 295.358082 
L 435.515588 293.516586 
L 436.246529 294.183007 
L 436.611999 294.700013 
L 436.977469 294.644011 
L 437.342939 298.235743 
L 437.70841 297.670556 
L 438.07388 293.253147 
L 438.43935 295.284034 
L 438.804821 294.966237 
L 439.170291 290.592683 
L 439.535761 294.175155 
L 439.901231 296.287392 
L 440.266702 294.266134 
L 440.632172 294.890482 
L 440.997642 295.966123 
L 441.728583 294.172879 
L 442.094053 295.703156 
L 442.459523 295.663127 
L 442.824993 295.458219 
L 443.190464 294.235409 
L 443.555934 293.816971 
L 443.921404 296.214263 
L 444.286875 297.555971 
L 444.652345 296.493599 
L 445.017815 293.457969 
L 445.748756 295.130662 
L 446.114226 296.542973 
L 446.479696 295.453149 
L 446.845166 296.816029 
L 447.210637 295.77849 
L 447.576107 296.76114 
L 448.307047 294.852968 
L 448.672518 297.042569 
L 449.037988 296.335334 
L 449.403458 295.369815 
L 449.768928 295.918562 
L 450.499869 297.76752 
L 450.865339 297.703978 
L 451.23081 294.66626 
L 452.692691 295.603948 
L 453.058161 294.156383 
L 453.423631 296.887912 
L 453.789101 294.95097 
L 454.154572 295.625436 
L 454.520042 294.493641 
L 454.885512 295.33706 
L 455.250982 295.628875 
L 455.616453 295.360918 
L 455.981923 294.422717 
L 456.347393 296.284284 
L 456.712864 296.269268 
L 457.078334 292.948609 
L 457.443804 295.469082 
L 457.809274 295.318789 
L 458.174745 293.713578 
L 458.540215 295.795017 
L 458.905685 293.272532 
L 459.271155 293.53314 
L 460.002096 295.385783 
L 460.367566 294.320072 
L 460.733036 298.243973 
L 461.098507 295.938461 
L 461.829447 294.450769 
L 462.194917 296.817779 
L 462.560388 296.938447 
L 462.925858 295.513032 
L 463.291328 295.982996 
L 463.656799 295.231403 
L 464.022269 293.708851 
L 464.387739 297.883238 
L 464.753209 297.796124 
L 465.11868 295.875718 
L 465.48415 295.547345 
L 465.84962 296.652334 
L 466.21509 298.305118 
L 466.580561 295.447124 
L 467.311501 297.338382 
L 467.676971 297.132831 
L 468.042442 296.264124 
L 468.407912 296.634122 
L 468.773382 296.102084 
L 469.138853 294.903893 
L 469.504323 296.052325 
L 469.869793 296.503526 
L 470.235263 294.884973 
L 470.600734 296.47369 
L 470.966204 294.932785 
L 471.331674 297.03522 
L 471.697144 295.933794 
L 472.062615 297.063484 
L 472.428085 295.930964 
L 472.793555 297.060681 
L 473.159025 296.382336 
L 473.524496 296.63103 
L 473.889966 298.005625 
L 474.255436 296.251385 
L 474.620906 296.434631 
L 475.351847 297.984947 
L 475.717317 296.04568 
L 476.082788 297.212655 
L 476.448258 294.638302 
L 476.813728 295.940379 
L 477.179198 295.487643 
L 477.544669 293.994253 
L 477.910139 297.122801 
L 478.275609 295.627614 
L 478.641079 293.477939 
L 479.00655 295.978901 
L 479.37202 297.154168 
L 479.73749 294.993137 
L 480.10296 295.086827 
L 480.468431 295.949205 
L 480.833901 298.763686 
L 481.199371 296.095994 
L 481.930312 293.689877 
L 482.661252 297.894342 
L 483.026723 297.471195 
L 483.392193 297.639841 
L 483.757663 296.862437 
L 484.123133 297.656112 
L 484.488604 298.79995 
L 484.854074 295.771052 
L 485.219544 295.793221 
L 485.585014 296.89971 
L 485.950485 295.64775 
L 486.315955 296.538584 
L 486.681425 297.830057 
L 487.412366 296.987009 
L 488.143306 297.302321 
L 488.508777 295.59304 
L 488.874247 295.01369 
L 489.239717 296.943858 
L 489.605187 295.655968 
L 489.970658 296.204963 
L 490.336128 296.121711 
L 490.701598 297.08363 
L 491.067068 296.106222 
L 491.432539 295.556428 
L 491.798009 297.710546 
L 492.163479 295.051084 
L 492.528949 298.029607 
L 492.89442 296.283966 
L 493.25989 295.575548 
L 493.62536 296.453726 
L 493.99083 295.469733 
L 494.721771 295.664113 
L 495.087241 296.287093 
L 495.452712 296.655745 
L 496.183652 296.589779 
L 496.549122 294.568843 
L 497.280063 293.303295 
L 497.645533 297.964701 
L 498.011003 294.876248 
L 498.376474 296.680547 
L 498.741944 297.481402 
L 499.107414 295.600549 
L 499.472884 299.42026 
L 499.838355 297.214247 
L 500.203825 297.118362 
L 500.569295 295.415611 
L 501.300236 296.989059 
L 501.665706 295.981794 
L 502.031176 297.019292 
L 502.396647 297.296361 
L 502.762117 295.844606 
L 503.127587 296.716889 
L 503.858528 295.8809 
L 504.223998 295.797122 
L 504.589468 297.45752 
L 504.954938 296.196725 
L 505.320409 296.757821 
L 505.685879 295.556247 
L 506.416819 296.72747 
L 506.78229 298.509726 
L 507.14776 297.018258 
L 507.51323 296.303525 
L 507.878701 297.461618 
L 508.244171 297.691117 
L 508.609641 298.553794 
L 508.975111 298.367673 
L 509.340582 298.953273 
L 509.706052 297.29338 
L 510.071522 297.963743 
L 510.436992 296.686946 
L 510.802463 297.325653 
L 511.167933 295.863286 
L 511.533403 297.433875 
L 511.898873 297.406114 
L 512.264344 296.93375 
L 512.629814 297.434326 
L 512.995284 295.445866 
L 513.360755 295.514354 
L 513.726225 297.204918 
L 514.091695 296.849779 
L 514.457165 297.294516 
L 515.188106 296.426213 
L 515.553576 298.651205 
L 515.919046 297.214537 
L 516.284517 296.589504 
L 516.649987 297.035726 
L 517.015457 298.364047 
L 517.380927 298.185401 
L 517.746398 299.224589 
L 518.111868 294.829347 
L 518.477338 298.089115 
L 518.842808 297.458578 
L 519.208279 299.613492 
L 519.573749 299.745706 
L 519.939219 296.3271 
L 520.30469 300.427805 
L 520.67016 296.089394 
L 521.03563 299.571095 
L 521.766571 295.618714 
L 522.132041 298.453239 
L 522.862981 298.512233 
L 523.228452 296.410035 
L 523.593922 296.634076 
L 523.959392 297.440848 
L 524.324862 298.733929 
L 524.690333 297.012401 
L 525.055803 299.105317 
L 525.421273 296.126223 
L 525.786744 296.892613 
L 526.152214 297.271116 
L 526.517684 295.818777 
L 526.883154 296.06185 
L 527.248625 298.18713 
L 527.979565 295.899549 
L 528.345035 298.550147 
L 528.710506 294.667025 
L 529.441446 297.58003 
L 529.806916 296.187661 
L 530.172387 298.988328 
L 530.537857 295.505141 
L 530.903327 296.954914 
L 531.268797 297.600977 
L 531.634268 296.140946 
L 531.999738 298.917965 
L 532.365208 297.682693 
L 532.730679 297.446027 
L 533.096149 296.99951 
L 533.461619 297.204402 
L 533.827089 299.072458 
L 534.55803 297.114884 
L 534.9235 297.583839 
L 535.28897 296.284599 
L 535.654441 299.77913 
L 536.019911 299.111121 
L 536.385381 296.674836 
L 536.750851 297.25167 
L 537.481792 297.486549 
L 537.847262 298.664134 
L 538.212733 297.10415 
L 538.578203 298.068664 
L 538.943673 296.610396 
L 539.309143 297.967202 
L 540.040084 298.553416 
L 540.405554 299.263492 
L 540.771024 297.028946 
L 541.136495 297.174278 
L 541.501965 298.274111 
L 541.867435 296.113708 
L 542.232905 296.884686 
L 542.598376 300.884667 
L 542.963846 299.276315 
L 543.329316 299.027922 
L 544.060257 297.95736 
L 544.425727 295.602878 
L 544.791197 297.845364 
L 545.156668 296.966126 
L 545.522138 298.074426 
L 546.618549 300.060085 
L 546.984019 298.069714 
L 547.349489 298.069962 
L 547.714959 296.935058 
L 548.08043 297.716267 
L 548.4459 297.998547 
L 548.81137 297.211936 
L 549.17684 297.946005 
L 549.542311 295.880368 
L 549.907781 300.529707 
L 550.273251 300.670153 
L 550.638722 298.539139 
L 551.004192 298.398282 
L 551.369662 297.747564 
L 551.735132 299.343136 
L 552.100603 297.514182 
L 552.466073 296.942571 
L 552.831543 298.44208 
L 553.197013 297.407287 
L 553.562484 297.18175 
L 553.927954 298.044511 
L 554.293424 297.465753 
L 554.658894 298.663406 
L 555.024365 297.811792 
L 555.389835 296.211734 
L 555.755305 300.475191 
L 556.120775 296.125057 
L 556.486246 297.977436 
L 556.851716 297.657492 
L 557.217186 299.42214 
L 558.313597 296.796743 
L 558.679067 295.358765 
L 559.044538 295.910418 
L 559.410008 298.203815 
L 559.775478 297.504189 
L 560.140948 298.956824 
L 560.506419 296.848614 
L 560.871889 296.284365 
L 561.237359 298.651966 
L 561.602829 297.95485 
L 561.9683 299.156774 
L 562.33377 298.856639 
L 562.69924 296.95411 
L 563.064711 297.57729 
L 563.430181 296.515414 
L 563.795651 298.695394 
L 564.161121 297.351096 
L 564.526592 298.470217 
L 564.892062 298.861949 
L 565.257532 297.495513 
L 565.623002 296.55981 
L 565.988473 298.791518 
L 566.353943 298.638683 
L 566.719413 300.034615 
L 567.084883 297.066065 
L 567.450354 299.036564 
L 567.815824 298.078823 
L 568.181294 299.535395 
L 568.546764 297.024813 
L 568.912235 296.659093 
L 569.277705 300.068638 
L 569.643175 297.89191 
L 570.008646 297.185045 
L 570.374116 299.213632 
L 570.739586 299.368086 
L 571.470527 296.347878 
L 571.835997 299.104622 
L 572.201467 299.065068 
L 572.566937 296.978364 
L 572.932408 299.901975 
L 573.297878 296.245722 
L 573.663348 300.642642 
L 574.028818 296.296689 
L 574.394289 298.378623 
L 574.759759 298.748917 
L 575.4907 295.954686 
L 575.85617 296.390039 
L 576.22164 297.979076 
L 576.58711 298.307358 
L 576.952581 297.241549 
L 577.318051 296.617861 
L 578.048991 298.476073 
L 578.414462 301.627561 
L 578.779932 299.393229 
L 579.145402 300.966765 
L 579.510872 300.626437 
L 579.876343 297.717352 
L 580.241813 299.483039 
L 580.607283 299.200281 
L 580.972753 298.336559 
L 581.338224 299.676067 
L 581.703694 298.943673 
L 582.069164 296.653301 
L 582.434635 297.297462 
L 582.800105 298.560435 
L 583.165575 298.797559 
L 583.531045 298.778245 
L 583.896516 295.563291 
L 584.261986 298.413145 
L 584.627456 296.915103 
L 584.992926 298.43437 
L 585.358397 297.795859 
L 585.723867 298.233296 
L 586.089337 297.309957 
L 586.454807 299.634788 
L 586.820278 299.102337 
L 587.185748 299.961523 
L 587.551218 297.379415 
L 588.282159 299.270009 
L 588.647629 298.905986 
L 589.013099 299.021171 
L 589.37857 296.454304 
L 589.74404 300.771491 
L 590.10951 298.666535 
L 590.47498 301.069984 
L 590.840451 297.384464 
L 591.205921 301.37357 
L 591.571391 299.777247 
L 591.936861 297.407673 
L 592.302332 297.775143 
L 592.667802 295.648843 
L 593.033272 298.851834 
L 593.398742 298.195395 
L 593.764213 299.71311 
L 594.129683 297.8837 
L 594.495153 300.055117 
L 594.860624 299.533356 
L 595.226094 300.846892 
L 595.957034 297.387425 
L 596.322505 297.384112 
L 596.687975 299.322678 
L 597.053445 297.142779 
L 597.418915 295.934426 
L 597.784386 300.14049 
L 598.149856 296.060116 
L 598.515326 299.274382 
L 598.880796 299.09584 
L 599.246267 299.400219 
L 599.611737 298.197489 
L 599.977207 299.152811 
L 600.342677 296.879059 
L 600.708148 300.660102 
L 601.073618 301.61549 
L 601.439088 298.274251 
L 601.804559 301.425061 
L 602.170029 297.953147 
L 602.535499 298.855829 
L 602.900969 296.935184 
L 603.26644 295.761039 
L 603.63191 299.162941 
L 603.99738 297.800307 
L 604.728321 300.955657 
L 605.093791 301.790375 
L 605.459261 300.93419 
L 605.824731 300.550862 
L 606.190202 299.197237 
L 606.555672 299.410905 
L 606.921142 300.432993 
L 607.286613 300.314529 
L 608.017553 299.159792 
L 608.383023 299.219027 
L 608.748494 300.336765 
L 609.113964 298.86986 
L 609.479434 299.281059 
L 609.844904 297.978544 
L 610.210375 298.35986 
L 610.575845 297.211421 
L 610.941315 298.533197 
L 611.306785 297.115476 
L 611.672256 299.064852 
L 612.037726 298.083051 
L 612.403196 298.878846 
L 612.768666 297.461108 
L 613.134137 297.935797 
L 613.499607 300.255459 
L 613.865077 298.549497 
L 614.230548 298.821047 
L 614.596018 300.77341 
L 614.961488 299.410935 
L 615.326958 299.933175 
L 615.692429 299.235832 
L 616.057899 300.509958 
L 616.423369 298.324598 
L 616.788839 298.615722 
L 617.15431 296.802546 
L 617.51978 300.982015 
L 617.88525 301.113462 
L 618.25072 301.014897 
L 618.616191 298.974359 
L 619.347131 300.000872 
L 619.712602 299.875518 
L 620.078072 301.043444 
L 620.443542 302.645455 
L 620.809012 299.548286 
L 621.174483 299.190436 
L 621.539953 298.091518 
L 621.905423 299.580595 
L 622.270893 299.336764 
L 622.636364 298.341019 
L 622.636364 298.341019 
" style="fill:none;stroke:#1f77b4;stroke-linecap:square;stroke-width:0.5;"/>
   </g>
   <g id="line2d_34">
    <path clip-path="url(#pe9c860f907)" d="M 115.363636 62.302161 
L 115.729107 70.91131 
L 116.094577 72.731414 
L 116.825517 78.383328 
L 117.190988 79.812856 
L 117.556458 79.906949 
L 117.921928 82.99578 
L 118.287398 81.539895 
L 118.652869 82.928045 
L 119.018339 83.539303 
L 119.383809 82.823538 
L 119.74928 81.656739 
L 120.48022 87.024909 
L 120.84569 83.702037 
L 121.211161 86.861676 
L 121.942101 87.513958 
L 122.307571 86.068803 
L 122.673042 89.54067 
L 123.038512 90.822582 
L 123.403982 91.632035 
L 123.769452 93.091512 
L 124.134923 90.756037 
L 124.500393 92.100392 
L 124.865863 94.794897 
L 125.231334 95.490897 
L 125.596804 96.512396 
L 125.962274 98.957336 
L 126.327744 100.146296 
L 126.693215 101.990841 
L 127.058685 102.521537 
L 127.424155 105.041663 
L 127.789625 106.027563 
L 128.155096 110.925484 
L 128.520566 113.082161 
L 128.886036 117.241515 
L 129.251506 119.030546 
L 130.713387 136.40102 
L 131.078858 136.919189 
L 131.444328 144.888683 
L 131.809798 148.088522 
L 132.906209 160.571188 
L 133.271679 160.309011 
L 134.36809 169.786877 
L 134.73356 174.929394 
L 135.099031 174.756002 
L 135.464501 176.40779 
L 137.291852 187.327729 
L 138.388263 197.263707 
L 138.753733 198.794782 
L 139.119204 202.350321 
L 139.484674 203.62907 
L 139.850144 206.792828 
L 140.215614 208.985491 
L 140.581085 209.523866 
L 140.946555 211.419939 
L 141.312025 215.191199 
L 141.677495 216.617845 
L 142.042966 217.546795 
L 142.408436 222.438183 
L 142.773906 222.123439 
L 143.139376 226.249853 
L 143.504847 224.357498 
L 143.870317 229.695184 
L 144.235787 228.435698 
L 144.966728 231.3387 
L 145.332198 233.588793 
L 145.697668 233.548769 
L 146.063139 236.890837 
L 146.428609 237.185792 
L 146.794079 239.319712 
L 147.159549 237.522548 
L 147.52502 240.13952 
L 147.89049 241.349486 
L 148.25596 239.561398 
L 148.62143 240.308406 
L 148.986901 242.796118 
L 149.352371 238.462879 
L 149.717841 241.666585 
L 150.448782 243.721769 
L 150.814252 247.064315 
L 151.545193 248.263689 
L 151.910663 249.578479 
L 152.276133 250.441199 
L 152.641603 248.56841 
L 153.007074 251.270116 
L 153.372544 248.801383 
L 153.738014 249.966266 
L 154.103484 249.286979 
L 154.468955 250.38722 
L 154.834425 249.541948 
L 155.199895 253.177142 
L 155.565365 252.913302 
L 155.930836 255.223553 
L 156.296306 255.309653 
L 156.661776 253.897723 
L 157.027247 256.898923 
L 157.392717 256.449058 
L 157.758187 253.9285 
L 158.489128 257.636022 
L 158.854598 256.023266 
L 159.220068 257.226282 
L 159.585538 254.75465 
L 159.951009 257.257315 
L 160.316479 255.446993 
L 160.681949 256.627267 
L 161.047419 258.598526 
L 161.41289 259.649576 
L 161.77836 260.143106 
L 162.14383 259.817376 
L 162.874771 263.099207 
L 163.240241 260.030826 
L 163.605711 261.656645 
L 164.702122 264.403836 
L 165.067592 262.532584 
L 165.433063 264.279563 
L 166.164003 263.05497 
L 166.529473 263.672583 
L 166.894944 260.442198 
L 167.260414 263.913463 
L 167.625884 263.98064 
L 167.991354 265.116212 
L 168.356825 264.335422 
L 168.722295 267.874065 
L 169.087765 265.719459 
L 169.453236 267.699389 
L 169.818706 268.398428 
L 170.184176 266.417572 
L 170.549646 270.139634 
L 170.915117 267.057042 
L 171.280587 266.41973 
L 171.646057 266.68795 
L 172.011527 265.994692 
L 173.107938 269.695951 
L 173.473408 265.332936 
L 173.838879 266.32552 
L 174.204349 269.422508 
L 174.569819 269.241408 
L 174.935289 266.607114 
L 176.0317 270.33947 
L 176.397171 267.470033 
L 176.762641 268.707858 
L 177.128111 269.153742 
L 177.493581 269.238022 
L 177.859052 268.181686 
L 178.224522 271.281338 
L 178.589992 270.300999 
L 178.955462 271.705526 
L 179.320933 269.363731 
L 179.686403 272.295671 
L 180.051873 272.764997 
L 180.417343 269.990097 
L 180.782814 268.979357 
L 181.148284 271.840707 
L 181.513754 269.442075 
L 181.879225 271.446289 
L 182.244695 271.879255 
L 182.610165 273.297492 
L 182.975635 272.737564 
L 183.341106 272.527498 
L 183.706576 271.801079 
L 184.072046 272.181303 
L 184.437516 272.774386 
L 184.802987 272.964959 
L 185.168457 274.946789 
L 185.533927 272.593428 
L 185.899397 272.020159 
L 186.264868 274.394082 
L 186.630338 275.411591 
L 186.995808 272.508079 
L 187.361278 273.117795 
L 187.726749 275.485152 
L 188.092219 274.430153 
L 188.82316 275.973392 
L 189.18863 273.485609 
L 189.5541 276.584544 
L 189.91957 272.945768 
L 190.285041 273.716557 
L 190.650511 273.120133 
L 191.015981 273.813633 
L 191.381451 276.453381 
L 191.746922 273.529009 
L 192.112392 275.195405 
L 192.477862 275.45896 
L 192.843332 276.851005 
L 193.208803 273.714656 
L 193.574273 276.486196 
L 193.939743 276.802107 
L 194.305214 275.867485 
L 194.670684 275.569757 
L 195.036154 277.333475 
L 195.401624 275.906833 
L 195.767095 277.001695 
L 196.132565 277.340953 
L 196.498035 275.476156 
L 197.228976 278.107244 
L 197.594446 279.700542 
L 197.959916 278.448862 
L 198.325386 275.589352 
L 198.690857 278.663756 
L 199.056327 276.59293 
L 199.421797 276.655773 
L 199.787267 278.659728 
L 200.152738 277.879112 
L 200.518208 278.512483 
L 201.249149 274.826314 
L 201.614619 281.277305 
L 201.980089 277.442582 
L 202.345559 276.426138 
L 202.71103 278.294879 
L 203.0765 277.282344 
L 203.44197 278.178887 
L 203.80744 280.530179 
L 204.172911 279.959797 
L 204.538381 277.309562 
L 204.903851 277.99169 
L 205.269321 277.594656 
L 205.634792 280.513731 
L 206.000262 279.708566 
L 206.365732 281.056987 
L 206.731203 281.516026 
L 207.096673 279.409435 
L 207.462143 276.058294 
L 207.827613 278.260239 
L 208.193084 279.305098 
L 208.558554 279.400886 
L 208.924024 280.349464 
L 209.289494 278.303905 
L 209.654965 280.192526 
L 210.020435 279.886879 
L 210.385905 281.921884 
L 210.751375 280.226147 
L 211.116846 280.072184 
L 211.482316 279.581857 
L 211.847786 281.227281 
L 212.213256 281.37771 
L 212.578727 282.306728 
L 213.309667 277.877999 
L 213.675138 279.149098 
L 214.040608 279.256959 
L 214.771548 280.774499 
L 215.137019 279.999616 
L 215.502489 280.013065 
L 215.867959 278.866697 
L 216.233429 281.414909 
L 216.96437 279.758894 
L 217.32984 282.178647 
L 217.69531 281.435469 
L 218.060781 281.220816 
L 218.426251 281.396694 
L 218.791721 282.204506 
L 219.157192 281.056621 
L 219.522662 282.042585 
L 219.888132 279.1464 
L 220.253602 281.516641 
L 220.619073 280.380749 
L 220.984543 279.973435 
L 221.350013 278.815425 
L 221.715483 281.487052 
L 222.080954 281.254173 
L 222.446424 282.823052 
L 222.811894 282.515233 
L 223.177364 283.967655 
L 223.542835 284.085632 
L 224.273775 280.707803 
L 225.004716 284.685167 
L 225.735656 283.903938 
L 226.101127 282.534978 
L 226.466597 282.494935 
L 226.832067 283.002463 
L 227.197537 282.522432 
L 227.563008 282.453657 
L 227.928478 281.584632 
L 228.293948 282.89554 
L 228.659418 286.59657 
L 229.024889 283.471593 
L 229.390359 282.226822 
L 229.755829 284.181834 
L 230.121299 282.575506 
L 230.48677 283.888451 
L 230.85224 281.358134 
L 231.583181 283.589398 
L 231.948651 283.269525 
L 232.314121 284.234856 
L 232.679591 284.411562 
L 233.410532 282.283864 
L 233.776002 283.765363 
L 234.141472 284.381178 
L 234.506943 283.22854 
L 234.872413 284.540354 
L 235.237883 284.760331 
L 235.603353 282.723882 
L 236.334294 284.283538 
L 236.699764 284.02165 
L 237.065234 285.334098 
L 237.430705 284.537323 
L 237.796175 281.749625 
L 238.161645 282.719722 
L 238.892586 283.348299 
L 239.258056 281.670077 
L 239.623526 284.619258 
L 239.988997 284.156732 
L 240.354467 282.500124 
L 240.719937 282.530297 
L 241.085407 282.085006 
L 241.450878 284.683137 
L 241.816348 283.413808 
L 242.181818 285.297365 
L 242.547288 283.415472 
L 243.278229 285.115658 
L 243.643699 285.123442 
L 244.00917 285.005383 
L 244.37464 283.698006 
L 244.74011 284.261908 
L 245.10558 284.229091 
L 245.471051 284.709884 
L 245.836521 286.815034 
L 246.201991 283.949761 
L 246.567461 284.150501 
L 246.932932 285.251257 
L 247.298402 286.773396 
L 247.663872 283.989336 
L 248.029342 286.67189 
L 248.394813 283.404456 
L 248.760283 284.954904 
L 249.125753 282.913709 
L 249.856694 285.490937 
L 250.222164 286.043274 
L 250.587634 286.031252 
L 251.318575 284.745861 
L 251.684045 286.124603 
L 252.049515 285.773951 
L 252.414986 287.74215 
L 252.780456 285.827825 
L 253.145926 285.75008 
L 253.511396 284.163111 
L 253.876867 284.927476 
L 254.242337 286.806083 
L 254.607807 285.852094 
L 254.973277 285.584058 
L 255.704218 286.963725 
L 256.069688 286.492318 
L 256.435159 285.221656 
L 256.800629 285.333389 
L 257.166099 283.71224 
L 257.531569 285.160222 
L 257.89704 284.127498 
L 258.62798 287.137748 
L 258.99345 283.14663 
L 259.358921 286.638463 
L 259.724391 285.603998 
L 260.089861 285.814767 
L 260.455331 287.583276 
L 260.820802 286.915752 
L 261.186272 285.376966 
L 261.551742 288.135774 
L 261.917212 286.263909 
L 262.282683 285.978795 
L 262.648153 287.079286 
L 263.013623 284.993617 
L 263.379094 287.040113 
L 263.744564 284.962548 
L 264.110034 286.110619 
L 264.475504 285.205936 
L 264.840975 287.826335 
L 265.206445 285.433203 
L 265.571915 287.222612 
L 265.937385 283.624546 
L 266.302856 286.742102 
L 266.668326 285.133999 
L 267.033796 286.423131 
L 267.399266 289.607016 
L 267.764737 283.691918 
L 268.130207 288.572376 
L 268.495677 287.638027 
L 269.226618 286.347197 
L 269.592088 285.289437 
L 269.957558 288.445149 
L 270.323029 285.039257 
L 270.688499 287.149171 
L 271.053969 287.853931 
L 271.419439 286.635944 
L 271.78491 285.839025 
L 272.15038 287.58008 
L 272.51585 287.638807 
L 272.88132 289.256076 
L 273.246791 287.66542 
L 273.612261 287.399117 
L 273.977731 285.374342 
L 274.708672 287.716233 
L 275.439612 285.178058 
L 276.536023 286.26475 
L 276.901493 288.57075 
L 277.266964 286.658993 
L 277.632434 288.024099 
L 277.997904 288.357699 
L 278.363374 287.65728 
L 278.728845 289.310367 
L 279.459785 285.91273 
L 279.825255 287.279325 
L 280.190726 289.243337 
L 280.556196 286.215642 
L 280.921666 286.251367 
L 281.287136 288.565453 
L 281.652607 286.307438 
L 282.018077 287.747316 
L 282.383547 286.150354 
L 282.749018 288.778237 
L 283.114488 287.370453 
L 283.479958 288.268085 
L 284.576369 286.555531 
L 284.941839 287.997092 
L 285.307309 288.603016 
L 285.67278 287.562074 
L 286.03825 287.28759 
L 286.40372 288.981779 
L 286.76919 288.266218 
L 287.500131 288.355645 
L 287.865601 289.971826 
L 288.231072 285.772803 
L 288.596542 287.455774 
L 288.962012 288.574371 
L 289.327482 288.7308 
L 289.692953 289.17106 
L 290.058423 289.864676 
L 290.423893 286.915875 
L 290.789363 285.978082 
L 291.154834 286.444771 
L 291.520304 288.762341 
L 291.885774 288.323103 
L 292.251244 288.791744 
L 292.982185 290.065182 
L 293.347655 289.228666 
L 293.713125 288.766375 
L 294.078596 289.266073 
L 294.809536 287.988393 
L 295.540477 288.596957 
L 295.905947 287.749143 
L 296.271417 290.149598 
L 296.636888 289.78031 
L 297.002358 287.601799 
L 297.367828 287.81065 
L 297.733298 287.669955 
L 298.098769 289.992248 
L 298.464239 288.899655 
L 298.829709 289.285551 
L 299.195179 290.622978 
L 299.56065 289.248253 
L 299.92612 289.442108 
L 300.29159 289.43502 
L 300.657061 288.909856 
L 301.022531 287.269798 
L 301.388001 289.106012 
L 301.753471 289.422316 
L 302.118942 289.297056 
L 302.484412 288.629746 
L 302.849882 288.57816 
L 303.215352 289.819939 
L 303.580823 289.214118 
L 303.946293 290.159998 
L 304.311763 288.586582 
L 304.677233 288.508178 
L 305.042704 289.42307 
L 305.408174 289.812157 
L 305.773644 289.399307 
L 306.139114 288.089997 
L 306.504585 288.495859 
L 306.870055 288.197149 
L 307.235525 290.143126 
L 307.600996 288.84289 
L 307.966466 288.163349 
L 308.331936 288.953513 
L 308.697406 290.8234 
L 309.062877 288.180825 
L 309.793817 290.800467 
L 310.159287 286.838227 
L 310.524758 288.394412 
L 310.890228 289.001458 
L 311.255698 290.7238 
L 311.621168 287.680962 
L 311.986639 289.637863 
L 312.352109 287.878861 
L 312.717579 288.574112 
L 313.08305 290.026426 
L 313.81399 288.640575 
L 314.17946 290.78344 
L 314.544931 290.191893 
L 314.910401 289.920063 
L 315.275871 291.350366 
L 315.641341 289.81508 
L 316.006812 288.877144 
L 316.372282 290.421545 
L 316.737752 289.801468 
L 317.103222 289.528396 
L 317.468693 291.637064 
L 317.834163 291.44921 
L 318.199633 289.80608 
L 318.565103 290.67319 
L 318.930574 288.529216 
L 319.296044 288.68817 
L 319.661514 290.831125 
L 320.026985 289.851275 
L 320.392455 287.290219 
L 320.757925 287.522873 
L 321.123395 289.538106 
L 321.488866 290.151648 
L 321.854336 288.546605 
L 322.219806 290.569284 
L 322.585276 288.234913 
L 322.950747 289.936576 
L 323.316217 290.489938 
L 323.681687 291.627967 
L 324.047157 289.64832 
L 324.412628 288.841328 
L 324.778098 287.405387 
L 325.143568 290.098416 
L 325.509039 289.927565 
L 325.874509 290.344395 
L 326.239979 288.770188 
L 326.605449 290.719414 
L 326.97092 291.375807 
L 327.33639 291.142465 
L 327.70186 289.6307 
L 328.06733 289.831498 
L 328.432801 290.197274 
L 328.798271 290.351805 
L 329.163741 291.612575 
L 329.529211 290.753858 
L 329.894682 291.373184 
L 330.625622 290.807188 
L 330.991092 290.766361 
L 331.356563 289.114121 
L 331.722033 291.114798 
L 332.087503 289.319005 
L 332.452974 289.305291 
L 332.818444 289.881529 
L 333.183914 291.461701 
L 333.549384 289.77218 
L 333.914855 290.795118 
L 334.280325 289.216392 
L 334.645795 289.847117 
L 335.011265 290.19151 
L 335.376736 290.807862 
L 336.107676 289.424974 
L 336.838617 291.633761 
L 337.204087 290.97322 
L 337.569557 291.767108 
L 337.935028 288.896479 
L 338.300498 290.956389 
L 338.665968 291.16859 
L 339.031438 290.009922 
L 339.396909 289.320587 
L 339.762379 291.495902 
L 340.127849 290.460424 
L 340.493319 290.32349 
L 340.85879 291.546914 
L 341.22426 290.245369 
L 341.58973 291.584958 
L 341.9552 289.705918 
L 342.320671 290.299935 
L 342.686141 289.519699 
L 343.051611 292.739039 
L 343.417081 292.366665 
L 343.782552 290.648474 
L 344.148022 291.35776 
L 344.513492 290.919375 
L 345.244433 289.697909 
L 345.609903 290.414267 
L 345.975373 289.775427 
L 346.340844 289.83084 
L 346.706314 291.940713 
L 347.071784 291.950686 
L 347.437254 291.229529 
L 347.802725 288.897401 
L 348.168195 291.970393 
L 348.533665 289.928346 
L 348.899135 290.414139 
L 349.264606 291.526372 
L 349.630076 290.192359 
L 349.995546 290.051315 
L 350.361017 292.205608 
L 350.726487 291.884564 
L 351.091957 289.872 
L 351.457427 289.654106 
L 352.188368 290.666508 
L 352.553838 293.09644 
L 352.919308 290.172114 
L 353.284779 290.079541 
L 353.650249 291.803396 
L 354.015719 291.972477 
L 354.381189 290.988445 
L 354.74666 288.636551 
L 355.11213 289.299587 
L 355.4776 292.607118 
L 355.84307 289.39376 
L 356.208541 290.926629 
L 356.574011 289.537071 
L 356.939481 292.68379 
L 357.304952 289.607419 
L 357.670422 292.671074 
L 358.035892 290.922343 
L 358.401362 291.518898 
L 358.766833 289.108959 
L 359.132303 291.472874 
L 359.497773 290.977158 
L 360.228714 288.795874 
L 360.594184 289.321826 
L 360.959654 290.173337 
L 361.325124 290.323919 
L 361.690595 292.815358 
L 362.056065 287.335184 
L 362.421535 291.247688 
L 362.787006 291.23569 
L 363.152476 290.088416 
L 363.517946 289.899337 
L 363.883416 290.465308 
L 364.248887 290.685316 
L 364.614357 292.255231 
L 364.979827 289.944379 
L 365.345297 291.171013 
L 365.710768 291.811257 
L 366.076238 293.176797 
L 366.441708 293.138576 
L 366.807178 292.511152 
L 367.172649 293.117457 
L 367.538119 291.06641 
L 367.903589 290.345823 
L 368.269059 293.250244 
L 368.63453 292.756504 
L 369 291.491703 
L 369.36547 291.105286 
L 369.730941 293.419748 
L 370.096411 294.897744 
L 370.461881 290.475915 
L 370.827351 290.57071 
L 371.192822 293.224622 
L 371.558292 290.029869 
L 371.923762 291.553205 
L 372.289232 291.892297 
L 372.654703 291.176706 
L 373.020173 292.550642 
L 373.385643 290.676518 
L 373.751113 290.199346 
L 374.116584 290.883532 
L 374.847524 293.277715 
L 375.212994 292.846478 
L 375.943935 290.268459 
L 376.309405 293.907833 
L 376.674876 292.515068 
L 377.040346 291.664713 
L 377.405816 291.42298 
L 377.771286 291.60179 
L 378.136757 290.930574 
L 378.502227 291.782619 
L 378.867697 292.047528 
L 379.964108 290.02777 
L 380.329578 291.209998 
L 380.695048 293.262103 
L 381.060519 294.493603 
L 381.425989 294.153481 
L 381.791459 289.508551 
L 382.15693 290.236744 
L 382.5224 292.986325 
L 382.88787 291.34264 
L 383.25334 292.081997 
L 383.618811 289.621715 
L 383.984281 290.782861 
L 384.349751 292.432453 
L 384.715221 290.846006 
L 385.446162 291.221029 
L 385.811632 290.017905 
L 386.177102 293.426917 
L 386.542573 289.531418 
L 386.908043 293.017572 
L 387.273513 291.261883 
L 387.638983 293.188365 
L 388.004454 291.723214 
L 388.369924 292.002805 
L 388.735394 291.837575 
L 389.100865 292.509975 
L 389.466335 291.893784 
L 389.831805 293.161149 
L 390.562746 293.273089 
L 390.928216 291.902727 
L 391.293686 292.526445 
L 392.024627 291.826371 
L 392.390097 291.993368 
L 392.755567 292.600686 
L 393.121037 291.512517 
L 393.486508 291.162197 
L 393.851978 293.728911 
L 394.217448 294.396541 
L 394.582919 293.619567 
L 394.948389 291.118583 
L 395.313859 291.38697 
L 395.679329 292.044895 
L 396.0448 294.560766 
L 396.41027 292.473843 
L 396.77574 293.011516 
L 397.14121 292.656364 
L 397.506681 291.396225 
L 397.872151 293.204466 
L 398.237621 292.088822 
L 398.603091 291.877923 
L 398.968562 291.225457 
L 399.334032 293.422487 
L 399.699502 291.894888 
L 400.064972 291.668 
L 400.795913 294.358207 
L 401.161383 293.13362 
L 401.526854 291.124567 
L 402.257794 292.233135 
L 402.623264 293.982786 
L 402.988735 292.5977 
L 403.354205 292.724447 
L 403.719675 291.626144 
L 404.085145 292.667121 
L 404.450616 292.909671 
L 404.816086 291.871217 
L 405.181556 294.155645 
L 405.547026 291.516295 
L 405.912497 292.328505 
L 406.277967 292.623734 
L 406.643437 292.47111 
L 407.008908 294.452907 
L 407.374378 293.910513 
L 407.739848 291.85747 
L 408.105318 290.757939 
L 408.470789 291.579548 
L 408.836259 291.671906 
L 409.201729 291.448364 
L 409.93267 292.6218 
L 410.29814 292.056493 
L 410.66361 293.386524 
L 411.02908 291.620418 
L 411.394551 291.42577 
L 411.760021 292.518464 
L 412.125491 292.619755 
L 412.490961 291.277124 
L 412.856432 288.575131 
L 413.221902 290.462589 
L 413.587372 294.474134 
L 413.952843 293.966491 
L 414.318313 294.008135 
L 414.683783 290.39541 
L 415.414724 294.177459 
L 415.780194 289.540524 
L 416.511134 293.371908 
L 416.876605 291.641025 
L 417.242075 294.608114 
L 417.607545 291.66076 
L 417.973015 290.747401 
L 418.703956 294.003954 
L 419.069426 293.421478 
L 419.434897 292.275313 
L 419.800367 293.117811 
L 420.165837 290.677477 
L 420.531307 294.220182 
L 420.896778 290.873009 
L 421.262248 292.556444 
L 421.627718 292.788433 
L 421.993188 292.888157 
L 422.358659 289.349361 
L 422.724129 292.746793 
L 423.089599 293.558868 
L 423.455069 294.994123 
L 423.82054 294.123697 
L 424.18601 292.054771 
L 424.55148 292.027337 
L 424.91695 293.891726 
L 425.282421 294.765931 
L 425.647891 291.003533 
L 426.013361 292.637294 
L 426.378832 291.335893 
L 426.744302 292.880695 
L 427.109772 293.134913 
L 427.475242 293.03969 
L 427.840713 292.126953 
L 428.206183 291.576817 
L 428.937123 293.057092 
L 429.302594 294.542244 
L 430.033534 292.607266 
L 430.399004 293.924338 
L 430.764475 292.628124 
L 431.129945 292.43275 
L 431.495415 292.68332 
L 431.860886 295.736989 
L 432.226356 293.787485 
L 432.591826 293.630065 
L 432.957296 292.184681 
L 433.322767 293.799781 
L 433.688237 293.312528 
L 434.053707 291.710957 
L 434.419177 291.640518 
L 435.150118 294.555403 
L 435.515588 291.743058 
L 435.881058 294.484418 
L 436.246529 291.289321 
L 436.611999 293.200156 
L 436.977469 292.691228 
L 437.342939 292.666343 
L 437.70841 294.234021 
L 438.07388 294.642414 
L 438.804821 292.468885 
L 439.170291 292.573382 
L 439.535761 291.443304 
L 439.901231 292.627761 
L 440.266702 294.356034 
L 440.632172 293.875656 
L 440.997642 294.291034 
L 441.363112 293.697901 
L 441.728583 294.439325 
L 442.094053 294.132634 
L 442.824993 291.836735 
L 443.190464 293.470148 
L 443.555934 293.398698 
L 443.921404 293.712961 
L 444.286875 291.31537 
L 444.652345 291.948689 
L 445.017815 293.227137 
L 445.383285 293.729502 
L 445.748756 290.885958 
L 446.114226 294.271604 
L 446.479696 294.119333 
L 447.210637 293.134402 
L 447.576107 294.383909 
L 447.941577 293.239079 
L 448.307047 295.259149 
L 448.672518 293.42212 
L 449.037988 293.063087 
L 449.403458 291.554873 
L 449.768928 291.896403 
L 450.134399 293.628055 
L 450.499869 292.532698 
L 450.865339 294.801378 
L 451.23081 293.959489 
L 451.59628 292.500125 
L 451.96175 292.34585 
L 452.32722 292.7237 
L 452.692691 294.147933 
L 453.058161 291.858427 
L 453.423631 294.252746 
L 454.154572 292.569153 
L 454.520042 291.965315 
L 454.885512 294.494377 
L 455.250982 294.228865 
L 455.616453 294.925168 
L 455.981923 294.070773 
L 456.712864 293.446821 
L 457.078334 295.118444 
L 457.443804 292.999625 
L 457.809274 291.940444 
L 458.174745 291.517613 
L 458.540215 292.739256 
L 458.905685 290.935022 
L 459.271155 289.843343 
L 459.636626 293.088122 
L 460.002096 292.238312 
L 460.367566 292.203575 
L 460.733036 289.554264 
L 461.098507 293.902805 
L 461.463977 294.514871 
L 461.829447 292.947429 
L 462.194917 292.344609 
L 462.560388 290.994805 
L 462.925858 293.339481 
L 463.291328 294.129811 
L 463.656799 293.784239 
L 464.022269 292.314869 
L 464.387739 292.536268 
L 464.753209 295.225983 
L 465.11868 294.186033 
L 465.48415 294.340875 
L 465.84962 295.071461 
L 466.21509 294.392329 
L 466.580561 292.37377 
L 466.946031 291.838664 
L 467.311501 296.010835 
L 467.676971 293.495264 
L 468.042442 293.652694 
L 468.407912 293.102196 
L 468.773382 293.244891 
L 469.138853 292.802138 
L 469.504323 292.980923 
L 470.235263 294.187847 
L 470.600734 292.975751 
L 470.966204 292.719214 
L 471.331674 291.453253 
L 471.697144 293.438628 
L 472.062615 294.051582 
L 472.428085 294.355437 
L 472.793555 292.799471 
L 473.159025 294.783012 
L 473.524496 292.799972 
L 474.255436 292.808304 
L 474.620906 292.215799 
L 474.986377 292.682477 
L 475.717317 296.568022 
L 476.082788 293.824613 
L 476.448258 292.691572 
L 476.813728 292.612311 
L 477.179198 294.159063 
L 477.544669 292.894939 
L 477.910139 293.086967 
L 478.275609 291.108696 
L 478.641079 294.703038 
L 479.00655 293.04569 
L 479.73749 293.701768 
L 480.10296 293.865993 
L 480.468431 294.59223 
L 480.833901 293.843811 
L 481.199371 294.732864 
L 481.564841 294.711625 
L 481.930312 293.333313 
L 482.295782 292.54196 
L 482.661252 293.149834 
L 483.392193 291.796374 
L 483.757663 294.411157 
L 484.123133 292.573669 
L 484.488604 291.873477 
L 484.854074 293.105065 
L 485.219544 293.525629 
L 485.585014 292.757998 
L 485.950485 295.222295 
L 486.315955 292.938075 
L 486.681425 294.719126 
L 487.412366 292.544606 
L 487.777836 292.55895 
L 488.143306 292.713663 
L 488.508777 294.66114 
L 488.874247 293.662529 
L 489.239717 295.018159 
L 489.605187 293.969865 
L 489.970658 292.305974 
L 490.336128 295.107454 
L 490.701598 293.883573 
L 491.067068 293.144656 
L 491.432539 290.544995 
L 491.798009 293.102776 
L 492.163479 293.510889 
L 492.528949 294.318819 
L 492.89442 292.134439 
L 493.25989 292.617888 
L 493.62536 292.26744 
L 493.99083 291.347569 
L 494.356301 293.779548 
L 494.721771 293.844981 
L 495.087241 293.760249 
L 495.452712 292.329882 
L 495.818182 292.320499 
L 496.183652 293.229922 
L 496.549122 293.157606 
L 496.914593 294.491038 
L 497.280063 294.339001 
L 497.645533 292.57254 
L 498.011003 292.544435 
L 498.376474 292.961584 
L 498.741944 294.532651 
L 499.107414 293.301758 
L 499.472884 293.914659 
L 499.838355 292.28377 
L 500.203825 293.095245 
L 500.569295 294.683201 
L 500.934766 291.950385 
L 501.300236 294.05097 
L 502.031176 294.764605 
L 502.396647 293.815859 
L 502.762117 293.191555 
L 503.493057 295.560688 
L 503.858528 295.578026 
L 504.223998 292.81748 
L 504.589468 291.885834 
L 505.320409 294.472735 
L 505.685879 293.40402 
L 506.051349 293.734444 
L 506.78229 293.381125 
L 507.14776 291.802574 
L 507.51323 293.819424 
L 507.878701 294.256411 
L 508.244171 293.907055 
L 508.609641 294.629972 
L 508.975111 294.991076 
L 509.340582 293.433168 
L 509.706052 294.14803 
L 510.071522 293.917419 
L 510.436992 293.39292 
L 511.167933 290.549338 
L 511.898873 294.774658 
L 512.264344 290.20284 
L 512.629814 293.157713 
L 512.995284 292.45048 
L 513.360755 294.543916 
L 513.726225 293.611383 
L 514.091695 294.710821 
L 514.457165 296.568387 
L 514.822636 291.624802 
L 515.188106 293.159187 
L 515.553576 292.56263 
L 515.919046 294.99674 
L 516.284517 295.130812 
L 517.015457 292.552072 
L 517.380927 292.783179 
L 518.111868 295.245588 
L 518.477338 294.178841 
L 518.842808 291.374932 
L 519.208279 293.285456 
L 519.573749 294.289831 
L 519.939219 293.190521 
L 520.30469 293.453915 
L 520.67016 292.429062 
L 521.03563 290.016668 
L 521.4011 293.933824 
L 521.766571 295.781437 
L 522.132041 294.273354 
L 522.497511 293.403283 
L 522.862981 294.552477 
L 523.228452 293.862954 
L 523.593922 293.651092 
L 523.959392 293.894537 
L 524.324862 291.628474 
L 524.690333 292.482852 
L 525.055803 294.03461 
L 525.421273 296.271745 
L 525.786744 292.092298 
L 526.152214 292.629235 
L 526.517684 294.16778 
L 526.883154 294.599733 
L 527.248625 295.267922 
L 527.614095 292.602683 
L 527.979565 294.12021 
L 528.345035 293.413727 
L 528.710506 293.594802 
L 529.075976 294.859397 
L 529.441446 294.766416 
L 529.806916 295.155205 
L 530.172387 293.02231 
L 530.537857 293.33009 
L 530.903327 293.192844 
L 531.268797 296.869581 
L 531.634268 295.544013 
L 531.999738 295.232104 
L 532.365208 294.699501 
L 532.730679 296.722328 
L 533.096149 296.178392 
L 533.461619 294.350016 
L 533.827089 295.145751 
L 534.19256 295.31391 
L 534.55803 293.923203 
L 534.9235 294.563653 
L 535.28897 293.332972 
L 535.654441 293.671376 
L 536.019911 294.599293 
L 536.385381 296.675998 
L 536.750851 293.40726 
L 537.116322 293.709662 
L 537.481792 292.957468 
L 537.847262 293.074838 
L 538.212733 294.585608 
L 538.578203 294.565754 
L 538.943673 294.396541 
L 539.309143 293.261968 
L 539.674614 293.635683 
L 540.040084 291.459025 
L 540.771024 296.714923 
L 541.136495 293.427507 
L 541.501965 291.701126 
L 541.867435 292.7195 
L 542.232905 294.794349 
L 542.963846 293.011708 
L 543.329316 294.715015 
L 543.694786 295.109844 
L 544.060257 294.646447 
L 544.425727 296.092812 
L 544.791197 294.64844 
L 545.156668 295.395482 
L 545.522138 293.58859 
L 545.887608 292.916206 
L 546.253078 294.300598 
L 546.618549 294.866719 
L 546.984019 293.097544 
L 547.349489 292.974354 
L 547.714959 294.922869 
L 548.08043 294.010517 
L 548.81137 295.262867 
L 549.17684 294.367694 
L 549.542311 295.163147 
L 550.273251 295.793642 
L 550.638722 294.707799 
L 551.004192 295.128805 
L 551.369662 294.55314 
L 551.735132 294.662197 
L 552.100603 292.212556 
L 552.831543 293.477847 
L 553.197013 295.421616 
L 553.927954 292.549701 
L 554.658894 291.962019 
L 555.024365 293.395019 
L 555.389835 294.21466 
L 555.755305 294.112753 
L 556.120775 294.959391 
L 556.486246 293.026968 
L 556.851716 292.800677 
L 557.217186 294.610319 
L 557.582657 295.182605 
L 557.948127 295.375207 
L 558.313597 293.077779 
L 558.679067 295.065065 
L 559.044538 295.371338 
L 559.775478 291.906897 
L 560.140948 295.390213 
L 560.871889 291.554867 
L 561.237359 294.859661 
L 561.602829 294.03549 
L 561.9683 294.876142 
L 562.33377 293.890766 
L 562.69924 293.69295 
L 563.064711 293.044604 
L 563.430181 295.235858 
L 563.795651 293.149519 
L 564.161121 294.913547 
L 564.526592 295.332577 
L 564.892062 294.667761 
L 565.257532 292.355487 
L 565.623002 292.768376 
L 565.988473 295.317325 
L 566.719413 293.559291 
L 567.084883 294.806909 
L 567.450354 294.505028 
L 567.815824 293.994967 
L 568.181294 293.080976 
L 568.546764 293.405713 
L 568.912235 291.518094 
L 569.277705 294.150092 
L 569.643175 292.624673 
L 570.008646 292.718818 
L 570.374116 292.130189 
L 570.739586 295.316245 
L 571.105056 294.555129 
L 571.470527 294.408723 
L 571.835997 293.894606 
L 572.201467 293.783372 
L 572.566937 292.110371 
L 572.932408 292.219973 
L 573.297878 295.16411 
L 573.663348 293.599787 
L 574.028818 292.991899 
L 574.394289 291.488362 
L 574.759759 293.995702 
L 575.125229 292.891171 
L 575.4907 293.894203 
L 575.85617 294.092457 
L 576.22164 292.363179 
L 576.58711 293.344265 
L 576.952581 293.767225 
L 577.318051 292.721179 
L 577.683521 294.440782 
L 578.048991 295.090454 
L 578.779932 293.272863 
L 579.145402 294.687243 
L 579.510872 293.974632 
L 579.876343 293.88324 
L 580.241813 293.152279 
L 580.607283 294.244153 
L 580.972753 294.697165 
L 581.703694 292.538158 
L 582.069164 293.361713 
L 582.434635 295.081378 
L 582.800105 294.157128 
L 583.165575 293.865355 
L 583.531045 294.887715 
L 583.896516 294.518773 
L 584.261986 290.672121 
L 584.627456 295.257686 
L 584.992926 293.269228 
L 585.358397 294.30515 
L 585.723867 293.987124 
L 586.089337 293.200973 
L 586.454807 294.270424 
L 587.185748 290.993991 
L 587.551218 293.233144 
L 587.916688 293.875268 
L 588.282159 296.689885 
L 588.647629 295.903743 
L 589.013099 291.958321 
L 589.37857 292.867337 
L 589.74404 294.308257 
L 590.10951 294.110156 
L 590.840451 296.053184 
L 591.571391 295.381748 
L 591.936861 292.444053 
L 592.302332 293.42814 
L 592.667802 292.352315 
L 593.033272 291.978136 
L 593.398742 295.524901 
L 593.764213 291.683476 
L 594.495153 294.264897 
L 594.860624 293.720034 
L 595.226094 292.637875 
L 595.591564 294.183706 
L 595.957034 294.56162 
L 596.322505 293.695898 
L 596.687975 295.247681 
L 597.053445 294.619934 
L 597.418915 292.668296 
L 597.784386 295.777624 
L 598.149856 296.017621 
L 598.515326 295.204728 
L 598.880796 292.655249 
L 599.246267 294.894917 
L 599.611737 295.14014 
L 599.977207 296.018068 
L 600.342677 294.334848 
L 600.708148 294.477275 
L 601.439088 292.212238 
L 602.170029 295.416044 
L 602.535499 293.48678 
L 602.900969 296.128713 
L 603.26644 293.738094 
L 603.63191 293.739843 
L 603.99738 293.055882 
L 604.36285 294.418993 
L 605.093791 295.347036 
L 605.459261 295.097802 
L 605.824731 295.087571 
L 606.190202 296.37483 
L 606.555672 293.928319 
L 606.921142 294.008539 
L 607.286613 294.348403 
L 607.652083 295.37103 
L 608.017553 292.011407 
L 608.383023 292.957998 
L 608.748494 292.883704 
L 609.113964 294.374241 
L 609.479434 292.715247 
L 609.844904 294.53908 
L 610.210375 293.219364 
L 610.575845 294.37472 
L 610.941315 291.424995 
L 611.306785 293.110291 
L 611.672256 296.397647 
L 612.037726 294.207336 
L 612.403196 293.618999 
L 612.768666 294.186566 
L 613.134137 294.100535 
L 613.499607 293.238951 
L 613.865077 296.258509 
L 614.596018 292.853266 
L 615.326958 296.028487 
L 615.692429 294.165625 
L 616.057899 295.033068 
L 616.423369 294.255276 
L 616.788839 292.016279 
L 617.15431 295.712644 
L 617.51978 293.58937 
L 617.88525 295.666894 
L 618.25072 296.254784 
L 618.616191 296.02589 
L 618.981661 294.130409 
L 619.347131 293.608667 
L 619.712602 294.580697 
L 620.078072 293.662502 
L 620.443542 295.001814 
L 620.809012 292.520082 
L 621.539953 294.965034 
L 621.905423 292.492478 
L 622.270893 295.840652 
L 622.636364 294.385454 
L 622.636364 294.385454 
" style="fill:none;stroke:#ff7f0e;stroke-linecap:square;stroke-width:0.5;"/>
   </g>
   <g id="patch_3">
    <path d="M 90 315 
L 90 43.2 
" style="fill:none;stroke:#000000;stroke-linecap:square;stroke-linejoin:miter;stroke-width:0.8;"/>
   </g>
   <g id="patch_4">
    <path d="M 648 315 
L 648 43.2 
" style="fill:none;stroke:#000000;stroke-linecap:square;stroke-linejoin:miter;stroke-width:0.8;"/>
   </g>
   <g id="patch_5">
    <path d="M 90 315 
L 648 315 
" style="fill:none;stroke:#000000;stroke-linecap:square;stroke-linejoin:miter;stroke-width:0.8;"/>
   </g>
   <g id="patch_6">
    <path d="M 90 43.2 
L 648 43.2 
" style="fill:none;stroke:#000000;stroke-linecap:square;stroke-linejoin:miter;stroke-width:0.8;"/>
   </g>
   <g id="text_19">
    <!-- loss -->
    <g transform="translate(357.410625 37.2)scale(0.12 -0.12)">
     <use xlink:href="#DejaVuSans-108"/>
     <use x="27.783203" xlink:href="#DejaVuSans-111"/>
     <use x="88.964844" xlink:href="#DejaVuSans-115"/>
     <use x="141.064453" xlink:href="#DejaVuSans-115"/>
    </g>
   </g>
   <g id="legend_1">
    <g id="patch_7">
     <path d="M 568.846875 80.55625 
L 641 80.55625 
Q 643 80.55625 643 78.55625 
L 643 50.2 
Q 643 48.2 641 48.2 
L 568.846875 48.2 
Q 566.846875 48.2 566.846875 50.2 
L 566.846875 78.55625 
Q 566.846875 80.55625 568.846875 80.55625 
z
" style="fill:#ffffff;opacity:0.8;stroke:#cccccc;stroke-linejoin:miter;"/>
    </g>
    <g id="line2d_35">
     <path d="M 570.846875 56.298437 
L 590.846875 56.298437 
" style="fill:none;stroke:#1f77b4;stroke-linecap:square;stroke-width:0.5;"/>
    </g>
    <g id="line2d_36"/>
    <g id="text_20">
     <!-- train -->
     <defs>
      <path d="M 18.3125 70.21875 
L 18.3125 54.6875 
L 36.8125 54.6875 
L 36.8125 47.703125 
L 18.3125 47.703125 
L 18.3125 18.015625 
Q 18.3125 11.328125 20.140625 9.421875 
Q 21.96875 7.515625 27.59375 7.515625 
L 36.8125 7.515625 
L 36.8125 0 
L 27.59375 0 
Q 17.1875 0 13.234375 3.875 
Q 9.28125 7.765625 9.28125 18.015625 
L 9.28125 47.703125 
L 2.6875 47.703125 
L 2.6875 54.6875 
L 9.28125 54.6875 
L 9.28125 70.21875 
z
" id="DejaVuSans-116"/>
      <path d="M 41.109375 46.296875 
Q 39.59375 47.171875 37.8125 47.578125 
Q 36.03125 48 33.890625 48 
Q 26.265625 48 22.1875 43.046875 
Q 18.109375 38.09375 18.109375 28.8125 
L 18.109375 0 
L 9.078125 0 
L 9.078125 54.6875 
L 18.109375 54.6875 
L 18.109375 46.1875 
Q 20.953125 51.171875 25.484375 53.578125 
Q 30.03125 56 36.53125 56 
Q 37.453125 56 38.578125 55.875 
Q 39.703125 55.765625 41.0625 55.515625 
z
" id="DejaVuSans-114"/>
      <path d="M 34.28125 27.484375 
Q 23.390625 27.484375 19.1875 25 
Q 14.984375 22.515625 14.984375 16.5 
Q 14.984375 11.71875 18.140625 8.90625 
Q 21.296875 6.109375 26.703125 6.109375 
Q 34.1875 6.109375 38.703125 11.40625 
Q 43.21875 16.703125 43.21875 25.484375 
L 43.21875 27.484375 
z
M 52.203125 31.203125 
L 52.203125 0 
L 43.21875 0 
L 43.21875 8.296875 
Q 40.140625 3.328125 35.546875 0.953125 
Q 30.953125 -1.421875 24.3125 -1.421875 
Q 15.921875 -1.421875 10.953125 3.296875 
Q 6 8.015625 6 15.921875 
Q 6 25.140625 12.171875 29.828125 
Q 18.359375 34.515625 30.609375 34.515625 
L 43.21875 34.515625 
L 43.21875 35.40625 
Q 43.21875 41.609375 39.140625 45 
Q 35.0625 48.390625 27.6875 48.390625 
Q 23 48.390625 18.546875 47.265625 
Q 14.109375 46.140625 10.015625 43.890625 
L 10.015625 52.203125 
Q 14.9375 54.109375 19.578125 55.046875 
Q 24.21875 56 28.609375 56 
Q 40.484375 56 46.34375 49.84375 
Q 52.203125 43.703125 52.203125 31.203125 
z
" id="DejaVuSans-97"/>
      <path d="M 9.421875 54.6875 
L 18.40625 54.6875 
L 18.40625 0 
L 9.421875 0 
z
M 9.421875 75.984375 
L 18.40625 75.984375 
L 18.40625 64.59375 
L 9.421875 64.59375 
z
" id="DejaVuSans-105"/>
      <path d="M 54.890625 33.015625 
L 54.890625 0 
L 45.90625 0 
L 45.90625 32.71875 
Q 45.90625 40.484375 42.875 44.328125 
Q 39.84375 48.1875 33.796875 48.1875 
Q 26.515625 48.1875 22.3125 43.546875 
Q 18.109375 38.921875 18.109375 30.90625 
L 18.109375 0 
L 9.078125 0 
L 9.078125 54.6875 
L 18.109375 54.6875 
L 18.109375 46.1875 
Q 21.34375 51.125 25.703125 53.5625 
Q 30.078125 56 35.796875 56 
Q 45.21875 56 50.046875 50.171875 
Q 54.890625 44.34375 54.890625 33.015625 
z
" id="DejaVuSans-110"/>
     </defs>
     <g transform="translate(598.846875 59.798437)scale(0.1 -0.1)">
      <use xlink:href="#DejaVuSans-116"/>
      <use x="39.208984" xlink:href="#DejaVuSans-114"/>
      <use x="80.322266" xlink:href="#DejaVuSans-97"/>
      <use x="141.601562" xlink:href="#DejaVuSans-105"/>
      <use x="169.384766" xlink:href="#DejaVuSans-110"/>
     </g>
    </g>
    <g id="line2d_37">
     <path d="M 570.846875 70.976562 
L 590.846875 70.976562 
" style="fill:none;stroke:#ff7f0e;stroke-linecap:square;stroke-width:0.5;"/>
    </g>
    <g id="line2d_38"/>
    <g id="text_21">
     <!-- validate -->
     <defs>
      <path d="M 2.984375 54.6875 
L 12.5 54.6875 
L 29.59375 8.796875 
L 46.6875 54.6875 
L 56.203125 54.6875 
L 35.6875 0 
L 23.484375 0 
z
" id="DejaVuSans-118"/>
      <path d="M 45.40625 46.390625 
L 45.40625 75.984375 
L 54.390625 75.984375 
L 54.390625 0 
L 45.40625 0 
L 45.40625 8.203125 
Q 42.578125 3.328125 38.25 0.953125 
Q 33.9375 -1.421875 27.875 -1.421875 
Q 17.96875 -1.421875 11.734375 6.484375 
Q 5.515625 14.40625 5.515625 27.296875 
Q 5.515625 40.1875 11.734375 48.09375 
Q 17.96875 56 27.875 56 
Q 33.9375 56 38.25 53.625 
Q 42.578125 51.265625 45.40625 46.390625 
z
M 14.796875 27.296875 
Q 14.796875 17.390625 18.875 11.75 
Q 22.953125 6.109375 30.078125 6.109375 
Q 37.203125 6.109375 41.296875 11.75 
Q 45.40625 17.390625 45.40625 27.296875 
Q 45.40625 37.203125 41.296875 42.84375 
Q 37.203125 48.484375 30.078125 48.484375 
Q 22.953125 48.484375 18.875 42.84375 
Q 14.796875 37.203125 14.796875 27.296875 
z
" id="DejaVuSans-100"/>
     </defs>
     <g transform="translate(598.846875 74.476562)scale(0.1 -0.1)">
      <use xlink:href="#DejaVuSans-118"/>
      <use x="59.179688" xlink:href="#DejaVuSans-97"/>
      <use x="120.458984" xlink:href="#DejaVuSans-108"/>
      <use x="148.242188" xlink:href="#DejaVuSans-105"/>
      <use x="176.025391" xlink:href="#DejaVuSans-100"/>
      <use x="239.501953" xlink:href="#DejaVuSans-97"/>
      <use x="300.78125" xlink:href="#DejaVuSans-116"/>
      <use x="339.990234" xlink:href="#DejaVuSans-101"/>
     </g>
    </g>
   </g>
  </g>
 </g>
 <defs>
  <clipPath id="pe9c860f907">
   <rect height="271.8" width="558" x="90" y="43.2"/>
  </clipPath>
 </defs>
</svg>
