<?xml version="1.0" encoding="utf-8" standalone="no"?>
<!DOCTYPE svg PUBLIC "-//W3C//DTD SVG 1.1//EN"
  "http://www.w3.org/Graphics/SVG/1.1/DTD/svg11.dtd">
<!-- Created with matplotlib (https://matplotlib.org/) -->
<svg height="360pt" version="1.1" viewBox="0 0 720 360" width="720pt" xmlns="http://www.w3.org/2000/svg" xmlns:xlink="http://www.w3.org/1999/xlink">
 <defs>
  <style type="text/css">
*{stroke-linecap:butt;stroke-linejoin:round;}
  </style>
 </defs>
 <g id="figure_1">
  <g id="patch_1">
   <path d="M 0 360 
L 720 360 
L 720 0 
L 0 0 
z
" style="fill:#ffffff;"/>
  </g>
  <g id="axes_1">
   <g id="patch_2">
    <path d="M 90 315 
L 648 315 
L 648 43.2 
L 90 43.2 
z
" style="fill:#ffffff;"/>
   </g>
   <g id="matplotlib.axis_1">
    <g id="xtick_1">
     <g id="line2d_1">
      <path clip-path="url(#pec0ea82a46)" d="M 115.363636 315 
L 115.363636 43.2 
" style="fill:none;stroke:#b0b0b0;stroke-linecap:square;stroke-width:0.8;"/>
     </g>
     <g id="line2d_2">
      <defs>
       <path d="M 0 0 
L 0 3.5 
" id="m44215a047b" style="stroke:#000000;stroke-width:0.8;"/>
      </defs>
      <g>
       <use style="stroke:#000000;stroke-width:0.8;" x="115.363636" xlink:href="#m44215a047b" y="315"/>
      </g>
     </g>
     <g id="text_1">
      <!-- 0 -->
      <defs>
       <path d="M 31.78125 66.40625 
Q 24.171875 66.40625 20.328125 58.90625 
Q 16.5 51.421875 16.5 36.375 
Q 16.5 21.390625 20.328125 13.890625 
Q 24.171875 6.390625 31.78125 6.390625 
Q 39.453125 6.390625 43.28125 13.890625 
Q 47.125 21.390625 47.125 36.375 
Q 47.125 51.421875 43.28125 58.90625 
Q 39.453125 66.40625 31.78125 66.40625 
z
M 31.78125 74.21875 
Q 44.046875 74.21875 50.515625 64.515625 
Q 56.984375 54.828125 56.984375 36.375 
Q 56.984375 17.96875 50.515625 8.265625 
Q 44.046875 -1.421875 31.78125 -1.421875 
Q 19.53125 -1.421875 13.0625 8.265625 
Q 6.59375 17.96875 6.59375 36.375 
Q 6.59375 54.828125 13.0625 64.515625 
Q 19.53125 74.21875 31.78125 74.21875 
z
" id="DejaVuSans-48"/>
      </defs>
      <g transform="translate(112.182386 329.598437)scale(0.1 -0.1)">
       <use xlink:href="#DejaVuSans-48"/>
      </g>
     </g>
    </g>
    <g id="xtick_2">
     <g id="line2d_3">
      <path clip-path="url(#pec0ea82a46)" d="M 221.933537 315 
L 221.933537 43.2 
" style="fill:none;stroke:#b0b0b0;stroke-linecap:square;stroke-width:0.8;"/>
     </g>
     <g id="line2d_4">
      <g>
       <use style="stroke:#000000;stroke-width:0.8;" x="221.933537" xlink:href="#m44215a047b" y="315"/>
      </g>
     </g>
     <g id="text_2">
      <!-- 100 -->
      <defs>
       <path d="M 12.40625 8.296875 
L 28.515625 8.296875 
L 28.515625 63.921875 
L 10.984375 60.40625 
L 10.984375 69.390625 
L 28.421875 72.90625 
L 38.28125 72.90625 
L 38.28125 8.296875 
L 54.390625 8.296875 
L 54.390625 0 
L 12.40625 0 
z
" id="DejaVuSans-49"/>
      </defs>
      <g transform="translate(212.389787 329.598437)scale(0.1 -0.1)">
       <use xlink:href="#DejaVuSans-49"/>
       <use x="63.623047" xlink:href="#DejaVuSans-48"/>
       <use x="127.246094" xlink:href="#DejaVuSans-48"/>
      </g>
     </g>
    </g>
    <g id="xtick_3">
     <g id="line2d_5">
      <path clip-path="url(#pec0ea82a46)" d="M 328.503438 315 
L 328.503438 43.2 
" style="fill:none;stroke:#b0b0b0;stroke-linecap:square;stroke-width:0.8;"/>
     </g>
     <g id="line2d_6">
      <g>
       <use style="stroke:#000000;stroke-width:0.8;" x="328.503438" xlink:href="#m44215a047b" y="315"/>
      </g>
     </g>
     <g id="text_3">
      <!-- 200 -->
      <defs>
       <path d="M 19.1875 8.296875 
L 53.609375 8.296875 
L 53.609375 0 
L 7.328125 0 
L 7.328125 8.296875 
Q 12.9375 14.109375 22.625 23.890625 
Q 32.328125 33.6875 34.8125 36.53125 
Q 39.546875 41.84375 41.421875 45.53125 
Q 43.3125 49.21875 43.3125 52.78125 
Q 43.3125 58.59375 39.234375 62.25 
Q 35.15625 65.921875 28.609375 65.921875 
Q 23.96875 65.921875 18.8125 64.3125 
Q 13.671875 62.703125 7.8125 59.421875 
L 7.8125 69.390625 
Q 13.765625 71.78125 18.9375 73 
Q 24.125 74.21875 28.421875 74.21875 
Q 39.75 74.21875 46.484375 68.546875 
Q 53.21875 62.890625 53.21875 53.421875 
Q 53.21875 48.921875 51.53125 44.890625 
Q 49.859375 40.875 45.40625 35.40625 
Q 44.1875 33.984375 37.640625 27.21875 
Q 31.109375 20.453125 19.1875 8.296875 
z
" id="DejaVuSans-50"/>
      </defs>
      <g transform="translate(318.959688 329.598437)scale(0.1 -0.1)">
       <use xlink:href="#DejaVuSans-50"/>
       <use x="63.623047" xlink:href="#DejaVuSans-48"/>
       <use x="127.246094" xlink:href="#DejaVuSans-48"/>
      </g>
     </g>
    </g>
    <g id="xtick_4">
     <g id="line2d_7">
      <path clip-path="url(#pec0ea82a46)" d="M 435.073338 315 
L 435.073338 43.2 
" style="fill:none;stroke:#b0b0b0;stroke-linecap:square;stroke-width:0.8;"/>
     </g>
     <g id="line2d_8">
      <g>
       <use style="stroke:#000000;stroke-width:0.8;" x="435.073338" xlink:href="#m44215a047b" y="315"/>
      </g>
     </g>
     <g id="text_4">
      <!-- 300 -->
      <defs>
       <path d="M 40.578125 39.3125 
Q 47.65625 37.796875 51.625 33 
Q 55.609375 28.21875 55.609375 21.1875 
Q 55.609375 10.40625 48.1875 4.484375 
Q 40.765625 -1.421875 27.09375 -1.421875 
Q 22.515625 -1.421875 17.65625 -0.515625 
Q 12.796875 0.390625 7.625 2.203125 
L 7.625 11.71875 
Q 11.71875 9.328125 16.59375 8.109375 
Q 21.484375 6.890625 26.8125 6.890625 
Q 36.078125 6.890625 40.9375 10.546875 
Q 45.796875 14.203125 45.796875 21.1875 
Q 45.796875 27.640625 41.28125 31.265625 
Q 36.765625 34.90625 28.71875 34.90625 
L 20.21875 34.90625 
L 20.21875 43.015625 
L 29.109375 43.015625 
Q 36.375 43.015625 40.234375 45.921875 
Q 44.09375 48.828125 44.09375 54.296875 
Q 44.09375 59.90625 40.109375 62.90625 
Q 36.140625 65.921875 28.71875 65.921875 
Q 24.65625 65.921875 20.015625 65.03125 
Q 15.375 64.15625 9.8125 62.3125 
L 9.8125 71.09375 
Q 15.4375 72.65625 20.34375 73.4375 
Q 25.25 74.21875 29.59375 74.21875 
Q 40.828125 74.21875 47.359375 69.109375 
Q 53.90625 64.015625 53.90625 55.328125 
Q 53.90625 49.265625 50.4375 45.09375 
Q 46.96875 40.921875 40.578125 39.3125 
z
" id="DejaVuSans-51"/>
      </defs>
      <g transform="translate(425.529588 329.598437)scale(0.1 -0.1)">
       <use xlink:href="#DejaVuSans-51"/>
       <use x="63.623047" xlink:href="#DejaVuSans-48"/>
       <use x="127.246094" xlink:href="#DejaVuSans-48"/>
      </g>
     </g>
    </g>
    <g id="xtick_5">
     <g id="line2d_9">
      <path clip-path="url(#pec0ea82a46)" d="M 541.643239 315 
L 541.643239 43.2 
" style="fill:none;stroke:#b0b0b0;stroke-linecap:square;stroke-width:0.8;"/>
     </g>
     <g id="line2d_10">
      <g>
       <use style="stroke:#000000;stroke-width:0.8;" x="541.643239" xlink:href="#m44215a047b" y="315"/>
      </g>
     </g>
     <g id="text_5">
      <!-- 400 -->
      <defs>
       <path d="M 37.796875 64.3125 
L 12.890625 25.390625 
L 37.796875 25.390625 
z
M 35.203125 72.90625 
L 47.609375 72.90625 
L 47.609375 25.390625 
L 58.015625 25.390625 
L 58.015625 17.1875 
L 47.609375 17.1875 
L 47.609375 0 
L 37.796875 0 
L 37.796875 17.1875 
L 4.890625 17.1875 
L 4.890625 26.703125 
z
" id="DejaVuSans-52"/>
      </defs>
      <g transform="translate(532.099489 329.598437)scale(0.1 -0.1)">
       <use xlink:href="#DejaVuSans-52"/>
       <use x="63.623047" xlink:href="#DejaVuSans-48"/>
       <use x="127.246094" xlink:href="#DejaVuSans-48"/>
      </g>
     </g>
    </g>
    <g id="xtick_6">
     <g id="line2d_11">
      <path clip-path="url(#pec0ea82a46)" d="M 648.21314 315 
L 648.21314 43.2 
" style="fill:none;stroke:#b0b0b0;stroke-linecap:square;stroke-width:0.8;"/>
     </g>
     <g id="line2d_12">
      <g>
       <use style="stroke:#000000;stroke-width:0.8;" x="648.21314" xlink:href="#m44215a047b" y="315"/>
      </g>
     </g>
     <g id="text_6">
      <!-- 500 -->
      <defs>
       <path d="M 10.796875 72.90625 
L 49.515625 72.90625 
L 49.515625 64.59375 
L 19.828125 64.59375 
L 19.828125 46.734375 
Q 21.96875 47.46875 24.109375 47.828125 
Q 26.265625 48.1875 28.421875 48.1875 
Q 40.625 48.1875 47.75 41.5 
Q 54.890625 34.8125 54.890625 23.390625 
Q 54.890625 11.625 47.5625 5.09375 
Q 40.234375 -1.421875 26.90625 -1.421875 
Q 22.3125 -1.421875 17.546875 -0.640625 
Q 12.796875 0.140625 7.71875 1.703125 
L 7.71875 11.625 
Q 12.109375 9.234375 16.796875 8.0625 
Q 21.484375 6.890625 26.703125 6.890625 
Q 35.15625 6.890625 40.078125 11.328125 
Q 45.015625 15.765625 45.015625 23.390625 
Q 45.015625 31 40.078125 35.4375 
Q 35.15625 39.890625 26.703125 39.890625 
Q 22.75 39.890625 18.8125 39.015625 
Q 14.890625 38.140625 10.796875 36.28125 
z
" id="DejaVuSans-53"/>
      </defs>
      <g transform="translate(638.66939 329.598437)scale(0.1 -0.1)">
       <use xlink:href="#DejaVuSans-53"/>
       <use x="63.623047" xlink:href="#DejaVuSans-48"/>
       <use x="127.246094" xlink:href="#DejaVuSans-48"/>
      </g>
     </g>
    </g>
    <g id="text_7">
     <!-- epoch -->
     <defs>
      <path d="M 56.203125 29.59375 
L 56.203125 25.203125 
L 14.890625 25.203125 
Q 15.484375 15.921875 20.484375 11.0625 
Q 25.484375 6.203125 34.421875 6.203125 
Q 39.59375 6.203125 44.453125 7.46875 
Q 49.3125 8.734375 54.109375 11.28125 
L 54.109375 2.78125 
Q 49.265625 0.734375 44.1875 -0.34375 
Q 39.109375 -1.421875 33.890625 -1.421875 
Q 20.796875 -1.421875 13.15625 6.1875 
Q 5.515625 13.8125 5.515625 26.8125 
Q 5.515625 40.234375 12.765625 48.109375 
Q 20.015625 56 32.328125 56 
Q 43.359375 56 49.78125 48.890625 
Q 56.203125 41.796875 56.203125 29.59375 
z
M 47.21875 32.234375 
Q 47.125 39.59375 43.09375 43.984375 
Q 39.0625 48.390625 32.421875 48.390625 
Q 24.90625 48.390625 20.390625 44.140625 
Q 15.875 39.890625 15.1875 32.171875 
z
" id="DejaVuSans-101"/>
      <path d="M 18.109375 8.203125 
L 18.109375 -20.796875 
L 9.078125 -20.796875 
L 9.078125 54.6875 
L 18.109375 54.6875 
L 18.109375 46.390625 
Q 20.953125 51.265625 25.265625 53.625 
Q 29.59375 56 35.59375 56 
Q 45.5625 56 51.78125 48.09375 
Q 58.015625 40.1875 58.015625 27.296875 
Q 58.015625 14.40625 51.78125 6.484375 
Q 45.5625 -1.421875 35.59375 -1.421875 
Q 29.59375 -1.421875 25.265625 0.953125 
Q 20.953125 3.328125 18.109375 8.203125 
z
M 48.6875 27.296875 
Q 48.6875 37.203125 44.609375 42.84375 
Q 40.53125 48.484375 33.40625 48.484375 
Q 26.265625 48.484375 22.1875 42.84375 
Q 18.109375 37.203125 18.109375 27.296875 
Q 18.109375 17.390625 22.1875 11.75 
Q 26.265625 6.109375 33.40625 6.109375 
Q 40.53125 6.109375 44.609375 11.75 
Q 48.6875 17.390625 48.6875 27.296875 
z
" id="DejaVuSans-112"/>
      <path d="M 30.609375 48.390625 
Q 23.390625 48.390625 19.1875 42.75 
Q 14.984375 37.109375 14.984375 27.296875 
Q 14.984375 17.484375 19.15625 11.84375 
Q 23.34375 6.203125 30.609375 6.203125 
Q 37.796875 6.203125 41.984375 11.859375 
Q 46.1875 17.53125 46.1875 27.296875 
Q 46.1875 37.015625 41.984375 42.703125 
Q 37.796875 48.390625 30.609375 48.390625 
z
M 30.609375 56 
Q 42.328125 56 49.015625 48.375 
Q 55.71875 40.765625 55.71875 27.296875 
Q 55.71875 13.875 49.015625 6.21875 
Q 42.328125 -1.421875 30.609375 -1.421875 
Q 18.84375 -1.421875 12.171875 6.21875 
Q 5.515625 13.875 5.515625 27.296875 
Q 5.515625 40.765625 12.171875 48.375 
Q 18.84375 56 30.609375 56 
z
" id="DejaVuSans-111"/>
      <path d="M 48.78125 52.59375 
L 48.78125 44.1875 
Q 44.96875 46.296875 41.140625 47.34375 
Q 37.3125 48.390625 33.40625 48.390625 
Q 24.65625 48.390625 19.8125 42.84375 
Q 14.984375 37.3125 14.984375 27.296875 
Q 14.984375 17.28125 19.8125 11.734375 
Q 24.65625 6.203125 33.40625 6.203125 
Q 37.3125 6.203125 41.140625 7.25 
Q 44.96875 8.296875 48.78125 10.40625 
L 48.78125 2.09375 
Q 45.015625 0.34375 40.984375 -0.53125 
Q 36.96875 -1.421875 32.421875 -1.421875 
Q 20.0625 -1.421875 12.78125 6.34375 
Q 5.515625 14.109375 5.515625 27.296875 
Q 5.515625 40.671875 12.859375 48.328125 
Q 20.21875 56 33.015625 56 
Q 37.15625 56 41.109375 55.140625 
Q 45.0625 54.296875 48.78125 52.59375 
z
" id="DejaVuSans-99"/>
      <path d="M 54.890625 33.015625 
L 54.890625 0 
L 45.90625 0 
L 45.90625 32.71875 
Q 45.90625 40.484375 42.875 44.328125 
Q 39.84375 48.1875 33.796875 48.1875 
Q 26.515625 48.1875 22.3125 43.546875 
Q 18.109375 38.921875 18.109375 30.90625 
L 18.109375 0 
L 9.078125 0 
L 9.078125 75.984375 
L 18.109375 75.984375 
L 18.109375 46.1875 
Q 21.34375 51.125 25.703125 53.5625 
Q 30.078125 56 35.796875 56 
Q 45.21875 56 50.046875 50.171875 
Q 54.890625 44.34375 54.890625 33.015625 
z
" id="DejaVuSans-104"/>
     </defs>
     <g transform="translate(353.771875 343.276563)scale(0.1 -0.1)">
      <use xlink:href="#DejaVuSans-101"/>
      <use x="61.523438" xlink:href="#DejaVuSans-112"/>
      <use x="125" xlink:href="#DejaVuSans-111"/>
      <use x="186.181641" xlink:href="#DejaVuSans-99"/>
      <use x="241.162109" xlink:href="#DejaVuSans-104"/>
     </g>
    </g>
   </g>
   <g id="matplotlib.axis_2">
    <g id="ytick_1">
     <g id="line2d_13">
      <path clip-path="url(#pec0ea82a46)" d="M 90 279.786242 
L 648 279.786242 
" style="fill:none;stroke:#b0b0b0;stroke-linecap:square;stroke-width:0.8;"/>
     </g>
     <g id="line2d_14">
      <defs>
       <path d="M 0 0 
L -3.5 0 
" id="mdace0dc025" style="stroke:#000000;stroke-width:0.8;"/>
      </defs>
      <g>
       <use style="stroke:#000000;stroke-width:0.8;" x="90" xlink:href="#mdace0dc025" y="279.786242"/>
      </g>
     </g>
     <g id="text_8">
      <!-- 0.4 -->
      <defs>
       <path d="M 10.6875 12.40625 
L 21 12.40625 
L 21 0 
L 10.6875 0 
z
" id="DejaVuSans-46"/>
      </defs>
      <g transform="translate(67.096875 283.585461)scale(0.1 -0.1)">
       <use xlink:href="#DejaVuSans-48"/>
       <use x="63.623047" xlink:href="#DejaVuSans-46"/>
       <use x="95.410156" xlink:href="#DejaVuSans-52"/>
      </g>
     </g>
    </g>
    <g id="ytick_2">
     <g id="line2d_15">
      <path clip-path="url(#pec0ea82a46)" d="M 90 240.145989 
L 648 240.145989 
" style="fill:none;stroke:#b0b0b0;stroke-linecap:square;stroke-width:0.8;"/>
     </g>
     <g id="line2d_16">
      <g>
       <use style="stroke:#000000;stroke-width:0.8;" x="90" xlink:href="#mdace0dc025" y="240.145989"/>
      </g>
     </g>
     <g id="text_9">
      <!-- 0.5 -->
      <g transform="translate(67.096875 243.945208)scale(0.1 -0.1)">
       <use xlink:href="#DejaVuSans-48"/>
       <use x="63.623047" xlink:href="#DejaVuSans-46"/>
       <use x="95.410156" xlink:href="#DejaVuSans-53"/>
      </g>
     </g>
    </g>
    <g id="ytick_3">
     <g id="line2d_17">
      <path clip-path="url(#pec0ea82a46)" d="M 90 200.505737 
L 648 200.505737 
" style="fill:none;stroke:#b0b0b0;stroke-linecap:square;stroke-width:0.8;"/>
     </g>
     <g id="line2d_18">
      <g>
       <use style="stroke:#000000;stroke-width:0.8;" x="90" xlink:href="#mdace0dc025" y="200.505737"/>
      </g>
     </g>
     <g id="text_10">
      <!-- 0.6 -->
      <defs>
       <path d="M 33.015625 40.375 
Q 26.375 40.375 22.484375 35.828125 
Q 18.609375 31.296875 18.609375 23.390625 
Q 18.609375 15.53125 22.484375 10.953125 
Q 26.375 6.390625 33.015625 6.390625 
Q 39.65625 6.390625 43.53125 10.953125 
Q 47.40625 15.53125 47.40625 23.390625 
Q 47.40625 31.296875 43.53125 35.828125 
Q 39.65625 40.375 33.015625 40.375 
z
M 52.59375 71.296875 
L 52.59375 62.3125 
Q 48.875 64.0625 45.09375 64.984375 
Q 41.3125 65.921875 37.59375 65.921875 
Q 27.828125 65.921875 22.671875 59.328125 
Q 17.53125 52.734375 16.796875 39.40625 
Q 19.671875 43.65625 24.015625 45.921875 
Q 28.375 48.1875 33.59375 48.1875 
Q 44.578125 48.1875 50.953125 41.515625 
Q 57.328125 34.859375 57.328125 23.390625 
Q 57.328125 12.15625 50.6875 5.359375 
Q 44.046875 -1.421875 33.015625 -1.421875 
Q 20.359375 -1.421875 13.671875 8.265625 
Q 6.984375 17.96875 6.984375 36.375 
Q 6.984375 53.65625 15.1875 63.9375 
Q 23.390625 74.21875 37.203125 74.21875 
Q 40.921875 74.21875 44.703125 73.484375 
Q 48.484375 72.75 52.59375 71.296875 
z
" id="DejaVuSans-54"/>
      </defs>
      <g transform="translate(67.096875 204.304955)scale(0.1 -0.1)">
       <use xlink:href="#DejaVuSans-48"/>
       <use x="63.623047" xlink:href="#DejaVuSans-46"/>
       <use x="95.410156" xlink:href="#DejaVuSans-54"/>
      </g>
     </g>
    </g>
    <g id="ytick_4">
     <g id="line2d_19">
      <path clip-path="url(#pec0ea82a46)" d="M 90 160.865484 
L 648 160.865484 
" style="fill:none;stroke:#b0b0b0;stroke-linecap:square;stroke-width:0.8;"/>
     </g>
     <g id="line2d_20">
      <g>
       <use style="stroke:#000000;stroke-width:0.8;" x="90" xlink:href="#mdace0dc025" y="160.865484"/>
      </g>
     </g>
     <g id="text_11">
      <!-- 0.7 -->
      <defs>
       <path d="M 8.203125 72.90625 
L 55.078125 72.90625 
L 55.078125 68.703125 
L 28.609375 0 
L 18.3125 0 
L 43.21875 64.59375 
L 8.203125 64.59375 
z
" id="DejaVuSans-55"/>
      </defs>
      <g transform="translate(67.096875 164.664702)scale(0.1 -0.1)">
       <use xlink:href="#DejaVuSans-48"/>
       <use x="63.623047" xlink:href="#DejaVuSans-46"/>
       <use x="95.410156" xlink:href="#DejaVuSans-55"/>
      </g>
     </g>
    </g>
    <g id="ytick_5">
     <g id="line2d_21">
      <path clip-path="url(#pec0ea82a46)" d="M 90 121.225231 
L 648 121.225231 
" style="fill:none;stroke:#b0b0b0;stroke-linecap:square;stroke-width:0.8;"/>
     </g>
     <g id="line2d_22">
      <g>
       <use style="stroke:#000000;stroke-width:0.8;" x="90" xlink:href="#mdace0dc025" y="121.225231"/>
      </g>
     </g>
     <g id="text_12">
      <!-- 0.8 -->
      <defs>
       <path d="M 31.78125 34.625 
Q 24.75 34.625 20.71875 30.859375 
Q 16.703125 27.09375 16.703125 20.515625 
Q 16.703125 13.921875 20.71875 10.15625 
Q 24.75 6.390625 31.78125 6.390625 
Q 38.8125 6.390625 42.859375 10.171875 
Q 46.921875 13.96875 46.921875 20.515625 
Q 46.921875 27.09375 42.890625 30.859375 
Q 38.875 34.625 31.78125 34.625 
z
M 21.921875 38.8125 
Q 15.578125 40.375 12.03125 44.71875 
Q 8.5 49.078125 8.5 55.328125 
Q 8.5 64.0625 14.71875 69.140625 
Q 20.953125 74.21875 31.78125 74.21875 
Q 42.671875 74.21875 48.875 69.140625 
Q 55.078125 64.0625 55.078125 55.328125 
Q 55.078125 49.078125 51.53125 44.71875 
Q 48 40.375 41.703125 38.8125 
Q 48.828125 37.15625 52.796875 32.3125 
Q 56.78125 27.484375 56.78125 20.515625 
Q 56.78125 9.90625 50.3125 4.234375 
Q 43.84375 -1.421875 31.78125 -1.421875 
Q 19.734375 -1.421875 13.25 4.234375 
Q 6.78125 9.90625 6.78125 20.515625 
Q 6.78125 27.484375 10.78125 32.3125 
Q 14.796875 37.15625 21.921875 38.8125 
z
M 18.3125 54.390625 
Q 18.3125 48.734375 21.84375 45.5625 
Q 25.390625 42.390625 31.78125 42.390625 
Q 38.140625 42.390625 41.71875 45.5625 
Q 45.3125 48.734375 45.3125 54.390625 
Q 45.3125 60.0625 41.71875 63.234375 
Q 38.140625 66.40625 31.78125 66.40625 
Q 25.390625 66.40625 21.84375 63.234375 
Q 18.3125 60.0625 18.3125 54.390625 
z
" id="DejaVuSans-56"/>
      </defs>
      <g transform="translate(67.096875 125.02445)scale(0.1 -0.1)">
       <use xlink:href="#DejaVuSans-48"/>
       <use x="63.623047" xlink:href="#DejaVuSans-46"/>
       <use x="95.410156" xlink:href="#DejaVuSans-56"/>
      </g>
     </g>
    </g>
    <g id="ytick_6">
     <g id="line2d_23">
      <path clip-path="url(#pec0ea82a46)" d="M 90 81.584978 
L 648 81.584978 
" style="fill:none;stroke:#b0b0b0;stroke-linecap:square;stroke-width:0.8;"/>
     </g>
     <g id="line2d_24">
      <g>
       <use style="stroke:#000000;stroke-width:0.8;" x="90" xlink:href="#mdace0dc025" y="81.584978"/>
      </g>
     </g>
     <g id="text_13">
      <!-- 0.9 -->
      <defs>
       <path d="M 10.984375 1.515625 
L 10.984375 10.5 
Q 14.703125 8.734375 18.5 7.8125 
Q 22.3125 6.890625 25.984375 6.890625 
Q 35.75 6.890625 40.890625 13.453125 
Q 46.046875 20.015625 46.78125 33.40625 
Q 43.953125 29.203125 39.59375 26.953125 
Q 35.25 24.703125 29.984375 24.703125 
Q 19.046875 24.703125 12.671875 31.3125 
Q 6.296875 37.9375 6.296875 49.421875 
Q 6.296875 60.640625 12.9375 67.421875 
Q 19.578125 74.21875 30.609375 74.21875 
Q 43.265625 74.21875 49.921875 64.515625 
Q 56.59375 54.828125 56.59375 36.375 
Q 56.59375 19.140625 48.40625 8.859375 
Q 40.234375 -1.421875 26.421875 -1.421875 
Q 22.703125 -1.421875 18.890625 -0.6875 
Q 15.09375 0.046875 10.984375 1.515625 
z
M 30.609375 32.421875 
Q 37.25 32.421875 41.125 36.953125 
Q 45.015625 41.5 45.015625 49.421875 
Q 45.015625 57.28125 41.125 61.84375 
Q 37.25 66.40625 30.609375 66.40625 
Q 23.96875 66.40625 20.09375 61.84375 
Q 16.21875 57.28125 16.21875 49.421875 
Q 16.21875 41.5 20.09375 36.953125 
Q 23.96875 32.421875 30.609375 32.421875 
z
" id="DejaVuSans-57"/>
      </defs>
      <g transform="translate(67.096875 85.384197)scale(0.1 -0.1)">
       <use xlink:href="#DejaVuSans-48"/>
       <use x="63.623047" xlink:href="#DejaVuSans-46"/>
       <use x="95.410156" xlink:href="#DejaVuSans-57"/>
      </g>
     </g>
    </g>
    <g id="text_14">
     <!-- accuracy -->
     <defs>
      <path d="M 34.28125 27.484375 
Q 23.390625 27.484375 19.1875 25 
Q 14.984375 22.515625 14.984375 16.5 
Q 14.984375 11.71875 18.140625 8.90625 
Q 21.296875 6.109375 26.703125 6.109375 
Q 34.1875 6.109375 38.703125 11.40625 
Q 43.21875 16.703125 43.21875 25.484375 
L 43.21875 27.484375 
z
M 52.203125 31.203125 
L 52.203125 0 
L 43.21875 0 
L 43.21875 8.296875 
Q 40.140625 3.328125 35.546875 0.953125 
Q 30.953125 -1.421875 24.3125 -1.421875 
Q 15.921875 -1.421875 10.953125 3.296875 
Q 6 8.015625 6 15.921875 
Q 6 25.140625 12.171875 29.828125 
Q 18.359375 34.515625 30.609375 34.515625 
L 43.21875 34.515625 
L 43.21875 35.40625 
Q 43.21875 41.609375 39.140625 45 
Q 35.0625 48.390625 27.6875 48.390625 
Q 23 48.390625 18.546875 47.265625 
Q 14.109375 46.140625 10.015625 43.890625 
L 10.015625 52.203125 
Q 14.9375 54.109375 19.578125 55.046875 
Q 24.21875 56 28.609375 56 
Q 40.484375 56 46.34375 49.84375 
Q 52.203125 43.703125 52.203125 31.203125 
z
" id="DejaVuSans-97"/>
      <path d="M 8.5 21.578125 
L 8.5 54.6875 
L 17.484375 54.6875 
L 17.484375 21.921875 
Q 17.484375 14.15625 20.5 10.265625 
Q 23.53125 6.390625 29.59375 6.390625 
Q 36.859375 6.390625 41.078125 11.03125 
Q 45.3125 15.671875 45.3125 23.6875 
L 45.3125 54.6875 
L 54.296875 54.6875 
L 54.296875 0 
L 45.3125 0 
L 45.3125 8.40625 
Q 42.046875 3.421875 37.71875 1 
Q 33.40625 -1.421875 27.6875 -1.421875 
Q 18.265625 -1.421875 13.375 4.4375 
Q 8.5 10.296875 8.5 21.578125 
z
M 31.109375 56 
z
" id="DejaVuSans-117"/>
      <path d="M 41.109375 46.296875 
Q 39.59375 47.171875 37.8125 47.578125 
Q 36.03125 48 33.890625 48 
Q 26.265625 48 22.1875 43.046875 
Q 18.109375 38.09375 18.109375 28.8125 
L 18.109375 0 
L 9.078125 0 
L 9.078125 54.6875 
L 18.109375 54.6875 
L 18.109375 46.1875 
Q 20.953125 51.171875 25.484375 53.578125 
Q 30.03125 56 36.53125 56 
Q 37.453125 56 38.578125 55.875 
Q 39.703125 55.765625 41.0625 55.515625 
z
" id="DejaVuSans-114"/>
      <path d="M 32.171875 -5.078125 
Q 28.375 -14.84375 24.75 -17.8125 
Q 21.140625 -20.796875 15.09375 -20.796875 
L 7.90625 -20.796875 
L 7.90625 -13.28125 
L 13.1875 -13.28125 
Q 16.890625 -13.28125 18.9375 -11.515625 
Q 21 -9.765625 23.484375 -3.21875 
L 25.09375 0.875 
L 2.984375 54.6875 
L 12.5 54.6875 
L 29.59375 11.921875 
L 46.6875 54.6875 
L 56.203125 54.6875 
z
" id="DejaVuSans-121"/>
     </defs>
     <g transform="translate(61.017187 201.659375)rotate(-90)scale(0.1 -0.1)">
      <use xlink:href="#DejaVuSans-97"/>
      <use x="61.279297" xlink:href="#DejaVuSans-99"/>
      <use x="116.259766" xlink:href="#DejaVuSans-99"/>
      <use x="171.240234" xlink:href="#DejaVuSans-117"/>
      <use x="234.619141" xlink:href="#DejaVuSans-114"/>
      <use x="275.732422" xlink:href="#DejaVuSans-97"/>
      <use x="337.011719" xlink:href="#DejaVuSans-99"/>
      <use x="391.992188" xlink:href="#DejaVuSans-121"/>
     </g>
    </g>
   </g>
   <g id="line2d_25">
    <path clip-path="url(#pec0ea82a46)" d="M 115.363636 302.645455 
L 116.429335 293.792465 
L 117.495034 288.9035 
L 118.560733 293.396062 
L 119.626432 296.831551 
L 120.692131 289.035634 
L 121.75783 279.654108 
L 122.823529 280.314779 
L 123.889228 275.690083 
L 124.954927 278.861303 
L 126.020626 277.804229 
L 127.086325 268.819105 
L 128.152024 270.008313 
L 129.217723 275.29368 
L 130.283422 270.272581 
L 131.349121 268.290569 
L 132.41482 266.837093 
L 133.480519 262.608799 
L 134.546218 257.059164 
L 135.611917 257.191298 
L 136.677617 258.248371 
L 137.743316 255.209285 
L 138.809015 251.377394 
L 139.874714 255.077151 
L 140.940413 241.467331 
L 142.006112 241.335197 
L 143.071811 239.617453 
L 144.13751 236.04983 
L 145.203209 235.785561 
L 146.268908 230.235926 
L 147.334607 234.728488 
L 148.400306 224.289888 
L 149.466005 221.911473 
L 150.531704 220.457997 
L 151.597403 218.740253 
L 152.663102 208.962324 
L 153.728801 210.547934 
L 154.7945 202.487749 
L 156.925898 189.935002 
L 157.991597 193.766894 
L 159.057296 183.592562 
L 160.122995 182.667623 
L 161.188694 180.024939 
L 162.254393 172.625425 
L 163.320092 178.042927 
L 164.385791 170.379144 
L 165.45149 165.754448 
L 166.517189 166.547253 
L 169.714286 150.29475 
L 170.779985 150.426884 
L 171.845684 145.802188 
L 172.911383 150.823286 
L 173.977082 144.877248 
L 175.042781 140.252552 
L 176.10848 141.838162 
L 177.174179 132.456636 
L 178.239878 135.75999 
L 179.305577 126.774866 
L 180.371276 130.342489 
L 181.436975 125.189256 
L 182.502674 127.83194 
L 183.568373 125.849927 
L 184.634072 120.56456 
L 185.699771 124.396451 
L 186.76547 121.225231 
L 187.831169 121.489499 
L 188.896868 113.693583 
L 189.962567 111.843704 
L 192.093965 117.657608 
L 194.225363 108.804618 
L 195.291062 109.597423 
L 196.356761 110.654497 
L 197.42246 107.219008 
L 198.488159 106.426203 
L 199.553858 104.708459 
L 200.619557 107.747545 
L 201.685256 107.483277 
L 202.750955 105.765532 
L 203.816654 104.576325 
L 204.882353 104.047788 
L 205.948052 105.104861 
L 207.013751 107.351142 
L 208.07945 101.933641 
L 209.145149 103.387117 
L 210.210848 100.215897 
L 211.276547 97.573213 
L 212.342246 101.008702 
L 213.407945 101.27297 
L 214.473644 100.215897 
L 215.539343 97.176811 
L 216.605042 97.308945 
L 217.670741 99.951629 
L 218.73644 95.855469 
L 219.802139 94.666262 
L 220.867838 97.441079 
L 221.933537 92.552115 
L 222.999236 95.591201 
L 224.064935 92.552115 
L 225.130634 90.966505 
L 226.196333 94.401993 
L 228.327731 91.362907 
L 229.39343 92.419981 
L 230.459129 91.75931 
L 232.590527 91.230773 
L 233.656226 90.1737 
L 234.721925 90.041565 
L 235.787624 92.419981 
L 236.853323 91.627175 
L 237.919022 91.230773 
L 238.984721 92.552115 
L 240.05042 90.702236 
L 241.116119 88.323821 
L 242.181818 88.720224 
L 243.247517 86.870345 
L 244.313216 90.305834 
L 245.378915 86.07754 
L 246.444614 87.66315 
L 247.510313 86.473943 
L 248.576012 87.002479 
L 249.641711 88.852358 
L 250.70741 85.020467 
L 251.773109 83.699125 
L 252.838808 86.209674 
L 253.904507 86.07754 
L 254.970206 83.434857 
L 256.035905 86.473943 
L 257.101604 84.888333 
L 258.167303 82.642052 
L 259.233002 79.602965 
L 260.298701 78.81016 
L 261.3644 83.038454 
L 262.430099 83.831259 
L 263.495798 82.90632 
L 264.561497 83.699125 
L 265.627196 83.170588 
L 266.692895 82.113515 
L 267.758594 82.90632 
L 268.824293 82.642052 
L 269.889992 80.527905 
L 270.955691 79.7351 
L 273.087089 82.774186 
L 274.152788 80.527905 
L 275.218487 81.056441 
L 276.284186 79.338697 
L 277.349885 78.942295 
L 278.415584 81.717112 
L 279.481283 76.828148 
L 280.546982 80.527905 
L 281.612681 81.717112 
L 282.67838 76.828148 
L 283.744079 80.131502 
L 284.809778 79.338697 
L 285.875477 78.81016 
L 286.941176 74.978269 
L 288.006875 78.81016 
L 289.072574 79.602965 
L 290.138273 76.828148 
L 291.203972 75.63894 
L 292.269672 80.131502 
L 293.335371 78.017355 
L 294.40107 77.620953 
L 295.466769 77.356684 
L 296.532468 79.206563 
L 297.598167 76.828148 
L 298.663866 76.167477 
L 299.729565 78.017355 
L 300.795264 76.299611 
L 301.860963 78.281624 
L 302.926662 74.185464 
L 303.992361 74.05333 
L 305.05806 73.656928 
L 306.123759 77.753087 
L 307.189458 74.185464 
L 308.255157 76.167477 
L 309.320856 74.846135 
L 310.386555 79.074429 
L 311.452254 77.620953 
L 312.517953 73.921196 
L 313.583652 69.2965 
L 314.649351 74.846135 
L 315.71505 75.506806 
L 316.780749 75.374672 
L 317.846448 75.374672 
L 318.912147 74.317598 
L 319.977846 74.449733 
L 321.043545 76.828148 
L 322.109244 71.410647 
L 323.174943 71.146378 
L 324.240642 73.392659 
L 325.306341 71.807049 
L 326.37204 73.128391 
L 327.437739 76.299611 
L 328.503438 70.88211 
L 329.569137 73.128391 
L 330.634836 70.353573 
L 331.700535 74.05333 
L 332.766234 70.221439 
L 333.831933 72.996257 
L 334.897632 74.449733 
L 335.963331 70.617842 
L 337.02903 73.392659 
L 338.094729 70.88211 
L 339.160428 71.146378 
L 340.226127 71.278512 
L 341.291826 69.428634 
L 342.357525 72.996257 
L 343.423224 74.581867 
L 344.488923 72.996257 
L 345.554622 70.617842 
L 346.620321 70.485707 
L 347.68602 70.485707 
L 348.751719 70.88211 
L 349.817418 69.2965 
L 350.883117 70.089305 
L 351.948816 67.843024 
L 353.014515 71.278512 
L 354.080214 70.749976 
L 355.145913 69.032231 
L 356.211612 71.146378 
L 357.277311 71.807049 
L 358.34301 68.107292 
L 359.408709 67.71089 
L 360.474408 69.692902 
L 361.540107 70.485707 
L 362.605806 69.164366 
L 363.671505 69.428634 
L 364.737204 71.146378 
L 365.802903 69.692902 
L 366.868602 68.635829 
L 367.934301 65.728877 
L 369 68.107292 
L 370.065699 69.428634 
L 371.131398 71.939183 
L 372.197097 70.089305 
L 373.262796 68.635829 
L 374.328495 66.389548 
L 375.394194 68.900097 
L 376.459893 69.825036 
L 377.525592 68.107292 
L 378.591291 67.578755 
L 379.65699 68.900097 
L 380.722689 69.560768 
L 381.788388 67.843024 
L 382.854087 68.900097 
L 383.919786 68.900097 
L 384.985485 67.314487 
L 386.051184 69.428634 
L 387.116883 66.653816 
L 388.182582 69.2965 
L 389.248281 68.503695 
L 390.31398 69.560768 
L 391.379679 66.653816 
L 392.445378 66.653816 
L 393.511077 69.032231 
L 394.576776 67.182353 
L 395.642475 66.521682 
L 396.708174 65.464609 
L 397.773873 67.182353 
L 398.839572 64.407535 
L 399.905271 65.068206 
L 400.97097 64.011133 
L 402.036669 66.521682 
L 403.102368 64.407535 
L 404.168067 65.068206 
L 405.233766 65.993145 
L 406.299465 63.61473 
L 407.365164 67.050219 
L 408.430863 65.596743 
L 409.496562 63.482596 
L 410.562261 65.993145 
L 411.62796 65.861011 
L 412.693659 67.975158 
L 413.759358 65.20034 
L 414.825057 66.12528 
L 415.890756 64.539669 
L 416.956455 63.350462 
L 418.022154 66.521682 
L 419.087853 63.482596 
L 420.153552 63.746864 
L 421.219251 65.728877 
L 422.28495 64.275401 
L 423.350649 64.011133 
L 424.416348 66.653816 
L 425.482047 65.20034 
L 426.547746 63.218328 
L 427.613445 67.578755 
L 428.679144 64.936072 
L 429.744843 66.521682 
L 430.810542 66.12528 
L 431.876241 66.12528 
L 434.007639 64.275401 
L 435.073338 62.557657 
L 436.139037 65.20034 
L 437.204736 65.728877 
L 438.270435 62.689791 
L 439.336134 61.632718 
L 440.401833 64.407535 
L 441.467532 61.500583 
L 442.533231 64.539669 
L 443.59893 61.500583 
L 444.664629 63.218328 
L 446.796028 64.803938 
L 447.861727 62.954059 
L 449.993125 63.482596 
L 451.058824 61.632718 
L 452.124523 63.878999 
L 453.190222 61.236315 
L 454.255921 63.746864 
L 455.32162 61.896986 
L 456.387319 63.878999 
L 457.453018 61.500583 
L 458.518717 66.257414 
L 459.584416 62.954059 
L 460.650115 63.218328 
L 461.715814 64.143267 
L 462.781513 64.275401 
L 463.847212 64.275401 
L 464.912911 62.954059 
L 465.97861 61.896986 
L 467.044309 62.161254 
L 468.110008 63.878999 
L 469.175707 64.143267 
L 470.241406 62.954059 
L 471.307105 64.936072 
L 472.372804 63.086193 
L 473.438503 65.068206 
L 474.504202 60.707778 
L 475.569901 61.896986 
L 476.6356 60.972047 
L 477.701299 63.218328 
L 478.766998 61.764852 
L 479.832697 62.161254 
L 480.898396 61.368449 
L 481.964095 59.914973 
L 484.095493 62.161254 
L 485.161192 59.122168 
L 486.226891 61.104181 
L 487.29259 62.02912 
L 488.358289 62.02912 
L 489.423988 62.161254 
L 490.489687 62.689791 
L 491.555386 61.632718 
L 492.621085 61.896986 
L 493.686784 61.368449 
L 494.752483 62.954059 
L 495.818182 61.104181 
L 496.883881 62.161254 
L 497.94958 61.500583 
L 499.015279 61.500583 
L 500.080978 60.311376 
L 501.146677 60.44351 
L 502.212376 61.500583 
L 503.278075 60.575644 
L 504.343774 61.368449 
L 505.409473 60.575644 
L 506.475172 60.44351 
L 507.540871 61.104181 
L 508.60657 59.914973 
L 509.672269 63.61473 
L 510.737968 60.707778 
L 511.803667 61.764852 
L 512.869366 59.782839 
L 513.935065 61.236315 
L 515.000764 60.972047 
L 516.066463 60.972047 
L 517.132162 57.932961 
L 518.197861 59.914973 
L 519.26356 60.44351 
L 520.329259 58.593632 
L 521.394958 57.536558 
L 522.460657 60.972047 
L 523.526356 58.197229 
L 524.592055 59.650705 
L 525.657754 61.764852 
L 526.723453 60.44351 
L 527.789152 57.668692 
L 528.854851 60.839912 
L 529.92055 60.44351 
L 530.986249 59.122168 
L 532.051948 58.593632 
L 533.117647 55.818814 
L 534.183346 58.8579 
L 535.249045 60.575644 
L 536.314744 60.707778 
L 537.380443 60.311376 
L 538.446142 58.725766 
L 539.511841 60.575644 
L 540.57754 58.990034 
L 541.643239 58.990034 
L 542.708938 58.461497 
L 543.774637 60.179242 
L 544.840336 59.914973 
L 545.906035 58.990034 
L 546.971734 59.386437 
L 548.037433 61.500583 
L 549.103132 59.386437 
L 550.168831 59.518571 
L 551.23453 61.236315 
L 552.300229 61.368449 
L 553.365928 58.461497 
L 554.431627 58.725766 
L 555.497326 58.461497 
L 556.563025 58.990034 
L 557.628724 59.254302 
L 558.694423 59.914973 
L 559.760122 58.593632 
L 560.825821 56.479485 
L 561.89152 58.593632 
L 562.957219 58.8579 
L 564.022918 56.875887 
L 565.088617 57.27229 
L 566.154316 58.593632 
L 567.220015 57.536558 
L 568.285714 57.27229 
L 569.351413 57.536558 
L 570.417112 56.875887 
L 571.482811 59.650705 
L 572.54851 58.593632 
L 573.614209 58.8579 
L 574.679908 57.932961 
L 575.745607 59.254302 
L 576.811306 55.818814 
L 577.877005 60.047107 
L 578.942704 57.668692 
L 580.008403 59.122168 
L 581.074102 56.611619 
L 582.139801 57.27229 
L 583.2055 56.083082 
L 584.271199 57.932961 
L 585.336898 56.479485 
L 586.402597 59.254302 
L 587.468296 59.914973 
L 588.533995 56.611619 
L 589.599694 58.8579 
L 590.665393 57.140156 
L 591.731092 58.461497 
L 592.796791 58.725766 
L 593.86249 57.140156 
L 594.928189 56.875887 
L 595.993888 59.254302 
L 597.059587 60.179242 
L 598.125286 58.329363 
L 599.190985 57.140156 
L 600.256684 55.554545 
L 601.322383 58.197229 
L 602.388083 57.932961 
L 603.453782 58.197229 
L 604.519481 55.68668 
L 605.58518 58.990034 
L 606.650879 58.990034 
L 607.716578 57.668692 
L 608.782277 56.743753 
L 609.847976 56.875887 
L 610.913675 59.254302 
L 611.979374 57.536558 
L 613.045073 58.065095 
L 614.110772 58.725766 
L 615.176471 57.668692 
L 616.24217 58.329363 
L 617.307869 58.461497 
L 618.373568 57.800826 
L 619.439267 57.008021 
L 620.504966 55.68668 
L 621.570665 57.536558 
L 622.636364 56.215216 
L 622.636364 56.215216 
" style="fill:none;stroke:#1f77b4;stroke-linecap:square;stroke-width:0.5;"/>
   </g>
   <g id="line2d_26">
    <path clip-path="url(#pec0ea82a46)" d="M 115.363636 298.945698 
L 116.429335 299.738503 
L 117.495034 294.717404 
L 118.560733 296.038746 
L 119.626432 293.263928 
L 120.692131 297.75649 
L 121.75783 290.356976 
L 123.889228 285.335877 
L 124.954927 290.621245 
L 126.020626 285.864414 
L 127.086325 282.825328 
L 128.152024 285.996548 
L 129.217723 280.446913 
L 130.283422 275.690083 
L 131.349121 271.990326 
L 132.41482 281.768255 
L 133.480519 273.443802 
L 134.546218 272.915265 
L 135.611917 270.668984 
L 136.677617 266.969227 
L 137.743316 269.215508 
L 138.809015 262.212397 
L 139.874714 256.662761 
L 140.940413 261.68386 
L 142.006112 249.395382 
L 143.071811 249.923918 
L 144.13751 252.698736 
L 145.203209 250.188187 
L 146.268908 241.863734 
L 147.334607 243.185075 
L 148.400306 240.410258 
L 149.466005 234.992756 
L 150.531704 227.593243 
L 151.597403 231.689402 
L 153.728801 220.986534 
L 154.7945 213.190617 
L 155.860199 213.983422 
L 156.925898 209.49086 
L 157.991597 204.205493 
L 159.057296 202.619883 
L 160.122995 199.052261 
L 161.188694 194.031162 
L 162.254393 187.688721 
L 163.320092 187.556587 
L 164.385791 181.346281 
L 165.45149 184.253233 
L 166.517189 174.078901 
L 167.582888 176.060914 
L 168.648587 170.775547 
L 169.714286 172.493291 
L 170.779985 163.640301 
L 171.845684 164.829509 
L 172.911383 157.958532 
L 173.977082 156.372922 
L 175.042781 153.598104 
L 176.10848 152.805299 
L 177.174179 149.898347 
L 178.239878 149.898347 
L 179.305577 146.066456 
L 180.371276 141.309626 
L 181.436975 143.952309 
L 182.502674 142.630967 
L 183.568373 140.120418 
L 184.634072 134.438649 
L 185.699771 137.742003 
L 186.76547 134.438649 
L 187.831169 133.910112 
L 188.896868 131.00316 
L 189.962567 128.492611 
L 191.028266 132.324502 
L 192.093965 127.303403 
L 193.159664 128.756879 
L 194.225363 125.057122 
L 195.291062 124.000049 
L 196.356761 131.00316 
L 197.42246 124.792854 
L 198.488159 124.132183 
L 199.553858 119.903889 
L 200.619557 118.186145 
L 201.685256 123.075109 
L 202.750955 120.960963 
L 203.816654 118.582547 
L 204.882353 119.111084 
L 205.948052 121.225231 
L 207.013751 117.789742 
L 208.07945 116.336266 
L 209.145149 121.753768 
L 210.210848 117.921877 
L 211.276547 118.582547 
L 212.342246 111.975839 
L 213.407945 112.240107 
L 214.473644 115.411327 
L 215.539343 115.80773 
L 216.605042 116.864803 
L 217.670741 111.315168 
L 218.73644 113.825717 
L 219.802139 114.486388 
L 220.867838 114.354254 
L 221.933537 111.183034 
L 222.999236 110.12596 
L 224.064935 111.843704 
L 225.130634 114.354254 
L 226.196333 110.654497 
L 227.262032 111.843704 
L 228.327731 108.011813 
L 229.39343 112.372241 
L 230.459129 107.615411 
L 231.524828 105.104861 
L 232.590527 105.501264 
L 233.656226 107.351142 
L 234.721925 108.936753 
L 235.787624 104.708459 
L 236.853323 106.558337 
L 237.919022 101.405105 
L 238.984721 106.426203 
L 240.05042 105.36913 
L 241.116119 105.104861 
L 242.181818 109.201021 
L 243.247517 105.501264 
L 244.313216 107.879679 
L 245.378915 106.294069 
L 246.444614 103.519251 
L 247.510313 100.348031 
L 248.576012 104.047788 
L 249.641711 99.68736 
L 250.70741 105.104861 
L 251.773109 103.254983 
L 252.838808 103.519251 
L 253.904507 101.405105 
L 254.970206 105.236996 
L 256.035905 101.801507 
L 257.101604 101.933641 
L 258.167303 102.462178 
L 259.233002 103.254983 
L 260.298701 99.026689 
L 261.3644 103.122849 
L 262.430099 99.555226 
L 263.495798 102.85858 
L 265.627196 98.233884 
L 266.692895 101.801507 
L 267.758594 100.612299 
L 269.889992 99.290958 
L 270.955691 97.573213 
L 272.02139 97.969616 
L 273.087089 97.441079 
L 274.152788 97.573213 
L 275.218487 98.233884 
L 276.284186 95.855469 
L 277.349885 97.969616 
L 278.415584 99.158824 
L 279.481283 97.044677 
L 280.546982 98.10175 
L 281.612681 97.308945 
L 282.67838 97.705348 
L 283.744079 97.441079 
L 284.809778 96.648274 
L 285.875477 102.19791 
L 286.941176 97.308945 
L 288.006875 95.855469 
L 289.072574 99.026689 
L 290.138273 93.212786 
L 291.203972 97.441079 
L 292.269672 96.780408 
L 293.335371 93.741322 
L 294.40107 97.176811 
L 295.466769 95.459067 
L 296.532468 95.855469 
L 297.598167 94.798396 
L 298.663866 94.401993 
L 299.729565 94.798396 
L 300.795264 95.723335 
L 301.860963 97.176811 
L 302.926662 95.855469 
L 303.992361 97.573213 
L 305.05806 94.005591 
L 307.189458 99.158824 
L 308.255157 93.212786 
L 310.386555 96.119737 
L 311.452254 96.119737 
L 312.517953 93.34492 
L 313.583652 95.987603 
L 314.649351 95.326932 
L 315.71505 95.326932 
L 316.780749 94.798396 
L 317.846448 95.326932 
L 318.912147 93.741322 
L 319.977846 95.855469 
L 321.043545 92.552115 
L 322.109244 92.023578 
L 323.174943 95.062664 
L 324.240642 94.269859 
L 325.306341 95.987603 
L 326.37204 96.780408 
L 327.437739 93.212786 
L 328.503438 92.155712 
L 329.569137 94.401993 
L 330.634836 95.723335 
L 331.700535 94.534127 
L 332.766234 92.287846 
L 333.831933 92.948517 
L 334.897632 94.534127 
L 335.963331 90.83437 
L 337.02903 91.230773 
L 338.094729 92.419981 
L 339.160428 92.023578 
L 340.226127 93.609188 
L 341.291826 94.534127 
L 342.357525 93.609188 
L 343.423224 94.93053 
L 344.488923 92.287846 
L 345.554622 92.023578 
L 346.620321 94.401993 
L 348.751719 90.702236 
L 349.817418 96.51614 
L 350.883117 92.816383 
L 351.948816 94.534127 
L 353.014515 95.459067 
L 354.080214 94.005591 
L 355.145913 92.287846 
L 356.211612 93.477054 
L 357.277311 90.966505 
L 358.34301 93.212786 
L 359.408709 93.477054 
L 360.474408 92.287846 
L 361.540107 91.362907 
L 362.605806 91.098639 
L 363.671505 92.816383 
L 364.737204 91.230773 
L 365.802903 90.702236 
L 366.868602 88.323821 
L 367.934301 91.230773 
L 369 92.155712 
L 370.065699 91.891444 
L 371.131398 90.702236 
L 372.197097 90.570102 
L 373.262796 96.119737 
L 374.328495 92.155712 
L 375.394194 92.684249 
L 376.459893 88.059553 
L 377.525592 90.83437 
L 378.591291 92.287846 
L 379.65699 92.552115 
L 380.722689 93.080651 
L 381.788388 91.098639 
L 382.854087 88.323821 
L 383.919786 89.380895 
L 384.985485 88.852358 
L 386.051184 92.023578 
L 387.116883 90.437968 
L 388.182582 92.287846 
L 389.248281 92.816383 
L 390.31398 89.909431 
L 391.379679 93.477054 
L 392.445378 87.795284 
L 393.511077 91.495041 
L 394.576776 90.1737 
L 396.708174 89.380895 
L 397.773873 92.552115 
L 398.839572 88.455955 
L 399.905271 91.891444 
L 400.97097 89.645163 
L 402.036669 90.966505 
L 403.102368 91.098639 
L 404.168067 91.495041 
L 405.233766 87.927419 
L 406.299465 91.098639 
L 407.365164 88.720224 
L 408.430863 89.645163 
L 409.496562 87.927419 
L 410.562261 90.437968 
L 411.62796 90.305834 
L 412.693659 89.645163 
L 413.759358 88.191687 
L 414.825057 88.588089 
L 415.890756 89.24876 
L 416.956455 90.305834 
L 418.022154 90.570102 
L 420.153552 87.795284 
L 421.219251 92.023578 
L 422.28495 89.513029 
L 423.350649 85.152601 
L 424.416348 86.870345 
L 425.482047 91.230773 
L 426.547746 87.398882 
L 427.613445 90.305834 
L 428.679144 91.891444 
L 429.744843 91.362907 
L 430.810542 86.606077 
L 431.876241 87.927419 
L 432.94194 91.627175 
L 434.007639 88.323821 
L 435.073338 86.606077 
L 437.204736 90.1737 
L 438.270435 88.191687 
L 439.336134 89.380895 
L 440.401833 90.305834 
L 441.467532 89.24876 
L 442.533231 88.720224 
L 443.59893 87.266748 
L 444.664629 90.437968 
L 445.730328 89.909431 
L 446.796028 89.645163 
L 447.861727 93.080651 
L 448.927426 87.398882 
L 449.993125 87.002479 
L 451.058824 86.870345 
L 452.124523 88.588089 
L 453.190222 89.513029 
L 454.255921 89.380895 
L 455.32162 88.852358 
L 456.387319 91.098639 
L 457.453018 87.927419 
L 458.518717 90.1737 
L 459.584416 88.852358 
L 460.650115 89.777297 
L 461.715814 87.795284 
L 462.781513 90.305834 
L 463.847212 89.116626 
L 464.912911 90.702236 
L 465.97861 88.720224 
L 467.044309 88.588089 
L 468.110008 89.380895 
L 469.175707 88.588089 
L 470.241406 84.756198 
L 471.307105 87.266748 
L 472.372804 87.002479 
L 473.438503 88.191687 
L 474.504202 88.455955 
L 475.569901 86.870345 
L 476.6356 88.059553 
L 477.701299 92.419981 
L 478.766998 85.549003 
L 479.832697 84.49193 
L 480.898396 88.720224 
L 481.964095 87.002479 
L 483.029794 89.116626 
L 484.095493 88.852358 
L 485.161192 87.66315 
L 486.226891 85.284735 
L 487.29259 86.341808 
L 488.358289 85.945406 
L 489.423988 85.813272 
L 490.489687 88.455955 
L 491.555386 85.681138 
L 492.621085 86.473943 
L 493.686784 86.606077 
L 494.752483 88.059553 
L 495.818182 86.870345 
L 496.883881 87.134614 
L 497.94958 88.059553 
L 499.015279 90.966505 
L 500.080978 88.323821 
L 501.146677 90.041565 
L 502.212376 85.020467 
L 504.343774 90.83437 
L 505.409473 87.927419 
L 506.475172 88.059553 
L 507.540871 87.002479 
L 508.60657 87.795284 
L 509.672269 86.341808 
L 510.737968 87.795284 
L 511.803667 90.966505 
L 512.869366 89.513029 
L 513.935065 87.531016 
L 515.000764 89.909431 
L 516.066463 89.513029 
L 517.132162 86.07754 
L 518.197861 85.549003 
L 519.26356 83.302722 
L 520.329259 86.341808 
L 521.394958 84.359796 
L 522.460657 89.116626 
L 523.526356 84.756198 
L 524.592055 87.266748 
L 525.657754 86.209674 
L 526.723453 86.738211 
L 527.789152 87.927419 
L 528.854851 88.323821 
L 529.92055 89.380895 
L 530.986249 88.984492 
L 532.051948 89.645163 
L 533.117647 89.777297 
L 534.183346 85.416869 
L 535.249045 84.888333 
L 536.314744 89.116626 
L 537.380443 90.305834 
L 538.446142 87.66315 
L 539.511841 86.473943 
L 540.57754 87.002479 
L 541.643239 90.570102 
L 542.708938 88.720224 
L 543.774637 88.455955 
L 544.840336 87.531016 
L 545.906035 88.588089 
L 546.971734 87.002479 
L 548.037433 85.813272 
L 549.103132 88.852358 
L 550.168831 88.588089 
L 551.23453 85.284735 
L 552.300229 88.323821 
L 553.365928 90.966505 
L 554.431627 85.020467 
L 555.497326 83.566991 
L 556.563025 87.795284 
L 557.628724 85.549003 
L 558.694423 85.284735 
L 559.760122 83.038454 
L 560.825821 86.606077 
L 561.89152 86.870345 
L 562.957219 88.455955 
L 564.022918 87.531016 
L 565.088617 89.116626 
L 566.154316 85.945406 
L 567.220015 87.134614 
L 569.351413 84.756198 
L 570.417112 87.134614 
L 571.482811 87.795284 
L 572.54851 86.07754 
L 573.614209 86.738211 
L 574.679908 84.624064 
L 575.745607 86.341808 
L 576.811306 85.416869 
L 577.877005 88.323821 
L 578.942704 87.927419 
L 580.008403 86.473943 
L 581.074102 88.323821 
L 582.139801 85.020467 
L 583.2055 87.002479 
L 584.271199 87.795284 
L 585.336898 86.738211 
L 586.402597 88.191687 
L 587.468296 85.020467 
L 588.533995 87.002479 
L 589.599694 87.795284 
L 590.665393 84.888333 
L 591.731092 85.284735 
L 592.796791 87.927419 
L 593.86249 85.549003 
L 594.928189 86.473943 
L 595.993888 86.738211 
L 597.059587 83.963393 
L 598.125286 83.831259 
L 599.190985 87.66315 
L 600.256684 86.473943 
L 601.322383 87.266748 
L 602.388083 86.473943 
L 603.453782 87.531016 
L 604.519481 89.24876 
L 605.58518 86.341808 
L 606.650879 88.323821 
L 607.716578 85.549003 
L 608.782277 85.152601 
L 609.847976 85.284735 
L 610.913675 84.095527 
L 611.979374 82.642052 
L 613.045073 83.963393 
L 614.110772 83.963393 
L 615.176471 85.945406 
L 616.24217 87.398882 
L 617.307869 84.359796 
L 618.373568 84.624064 
L 619.439267 87.795284 
L 620.504966 86.738211 
L 621.570665 85.945406 
L 622.636364 87.531016 
L 622.636364 87.531016 
" style="fill:none;stroke:#ff7f0e;stroke-linecap:square;stroke-width:0.5;"/>
   </g>
   <g id="patch_3">
    <path d="M 90 315 
L 90 43.2 
" style="fill:none;stroke:#000000;stroke-linecap:square;stroke-linejoin:miter;stroke-width:0.8;"/>
   </g>
   <g id="patch_4">
    <path d="M 648 315 
L 648 43.2 
" style="fill:none;stroke:#000000;stroke-linecap:square;stroke-linejoin:miter;stroke-width:0.8;"/>
   </g>
   <g id="patch_5">
    <path d="M 90 315 
L 648 315 
" style="fill:none;stroke:#000000;stroke-linecap:square;stroke-linejoin:miter;stroke-width:0.8;"/>
   </g>
   <g id="patch_6">
    <path d="M 90 43.2 
L 648 43.2 
" style="fill:none;stroke:#000000;stroke-linecap:square;stroke-linejoin:miter;stroke-width:0.8;"/>
   </g>
   <g id="text_15">
    <!-- accuracy -->
    <g transform="translate(341.92875 37.2)scale(0.12 -0.12)">
     <use xlink:href="#DejaVuSans-97"/>
     <use x="61.279297" xlink:href="#DejaVuSans-99"/>
     <use x="116.259766" xlink:href="#DejaVuSans-99"/>
     <use x="171.240234" xlink:href="#DejaVuSans-117"/>
     <use x="234.619141" xlink:href="#DejaVuSans-114"/>
     <use x="275.732422" xlink:href="#DejaVuSans-97"/>
     <use x="337.011719" xlink:href="#DejaVuSans-99"/>
     <use x="391.992188" xlink:href="#DejaVuSans-121"/>
    </g>
   </g>
   <g id="legend_1">
    <g id="patch_7">
     <path d="M 97 80.55625 
L 169.153125 80.55625 
Q 171.153125 80.55625 171.153125 78.55625 
L 171.153125 50.2 
Q 171.153125 48.2 169.153125 48.2 
L 97 48.2 
Q 95 48.2 95 50.2 
L 95 78.55625 
Q 95 80.55625 97 80.55625 
z
" style="fill:#ffffff;opacity:0.8;stroke:#cccccc;stroke-linejoin:miter;"/>
    </g>
    <g id="line2d_27">
     <path d="M 99 56.298437 
L 119 56.298437 
" style="fill:none;stroke:#1f77b4;stroke-linecap:square;stroke-width:0.5;"/>
    </g>
    <g id="line2d_28"/>
    <g id="text_16">
     <!-- train -->
     <defs>
      <path d="M 18.3125 70.21875 
L 18.3125 54.6875 
L 36.8125 54.6875 
L 36.8125 47.703125 
L 18.3125 47.703125 
L 18.3125 18.015625 
Q 18.3125 11.328125 20.140625 9.421875 
Q 21.96875 7.515625 27.59375 7.515625 
L 36.8125 7.515625 
L 36.8125 0 
L 27.59375 0 
Q 17.1875 0 13.234375 3.875 
Q 9.28125 7.765625 9.28125 18.015625 
L 9.28125 47.703125 
L 2.6875 47.703125 
L 2.6875 54.6875 
L 9.28125 54.6875 
L 9.28125 70.21875 
z
" id="DejaVuSans-116"/>
      <path d="M 9.421875 54.6875 
L 18.40625 54.6875 
L 18.40625 0 
L 9.421875 0 
z
M 9.421875 75.984375 
L 18.40625 75.984375 
L 18.40625 64.59375 
L 9.421875 64.59375 
z
" id="DejaVuSans-105"/>
      <path d="M 54.890625 33.015625 
L 54.890625 0 
L 45.90625 0 
L 45.90625 32.71875 
Q 45.90625 40.484375 42.875 44.328125 
Q 39.84375 48.1875 33.796875 48.1875 
Q 26.515625 48.1875 22.3125 43.546875 
Q 18.109375 38.921875 18.109375 30.90625 
L 18.109375 0 
L 9.078125 0 
L 9.078125 54.6875 
L 18.109375 54.6875 
L 18.109375 46.1875 
Q 21.34375 51.125 25.703125 53.5625 
Q 30.078125 56 35.796875 56 
Q 45.21875 56 50.046875 50.171875 
Q 54.890625 44.34375 54.890625 33.015625 
z
" id="DejaVuSans-110"/>
     </defs>
     <g transform="translate(127 59.798437)scale(0.1 -0.1)">
      <use xlink:href="#DejaVuSans-116"/>
      <use x="39.208984" xlink:href="#DejaVuSans-114"/>
      <use x="80.322266" xlink:href="#DejaVuSans-97"/>
      <use x="141.601562" xlink:href="#DejaVuSans-105"/>
      <use x="169.384766" xlink:href="#DejaVuSans-110"/>
     </g>
    </g>
    <g id="line2d_29">
     <path d="M 99 70.976562 
L 119 70.976562 
" style="fill:none;stroke:#ff7f0e;stroke-linecap:square;stroke-width:0.5;"/>
    </g>
    <g id="line2d_30"/>
    <g id="text_17">
     <!-- validate -->
     <defs>
      <path d="M 2.984375 54.6875 
L 12.5 54.6875 
L 29.59375 8.796875 
L 46.6875 54.6875 
L 56.203125 54.6875 
L 35.6875 0 
L 23.484375 0 
z
" id="DejaVuSans-118"/>
      <path d="M 9.421875 75.984375 
L 18.40625 75.984375 
L 18.40625 0 
L 9.421875 0 
z
" id="DejaVuSans-108"/>
      <path d="M 45.40625 46.390625 
L 45.40625 75.984375 
L 54.390625 75.984375 
L 54.390625 0 
L 45.40625 0 
L 45.40625 8.203125 
Q 42.578125 3.328125 38.25 0.953125 
Q 33.9375 -1.421875 27.875 -1.421875 
Q 17.96875 -1.421875 11.734375 6.484375 
Q 5.515625 14.40625 5.515625 27.296875 
Q 5.515625 40.1875 11.734375 48.09375 
Q 17.96875 56 27.875 56 
Q 33.9375 56 38.25 53.625 
Q 42.578125 51.265625 45.40625 46.390625 
z
M 14.796875 27.296875 
Q 14.796875 17.390625 18.875 11.75 
Q 22.953125 6.109375 30.078125 6.109375 
Q 37.203125 6.109375 41.296875 11.75 
Q 45.40625 17.390625 45.40625 27.296875 
Q 45.40625 37.203125 41.296875 42.84375 
Q 37.203125 48.484375 30.078125 48.484375 
Q 22.953125 48.484375 18.875 42.84375 
Q 14.796875 37.203125 14.796875 27.296875 
z
" id="DejaVuSans-100"/>
     </defs>
     <g transform="translate(127 74.476562)scale(0.1 -0.1)">
      <use xlink:href="#DejaVuSans-118"/>
      <use x="59.179688" xlink:href="#DejaVuSans-97"/>
      <use x="120.458984" xlink:href="#DejaVuSans-108"/>
      <use x="148.242188" xlink:href="#DejaVuSans-105"/>
      <use x="176.025391" xlink:href="#DejaVuSans-100"/>
      <use x="239.501953" xlink:href="#DejaVuSans-97"/>
      <use x="300.78125" xlink:href="#DejaVuSans-116"/>
      <use x="339.990234" xlink:href="#DejaVuSans-101"/>
     </g>
    </g>
   </g>
  </g>
 </g>
 <defs>
  <clipPath id="pec0ea82a46">
   <rect height="271.8" width="558" x="90" y="43.2"/>
  </clipPath>
 </defs>
</svg>
