<?xml version="1.0" encoding="utf-8" standalone="no"?>
<!DOCTYPE svg PUBLIC "-//W3C//DTD SVG 1.1//EN"
  "http://www.w3.org/Graphics/SVG/1.1/DTD/svg11.dtd">
<!-- Created with matplotlib (https://matplotlib.org/) -->
<svg height="360pt" version="1.1" viewBox="0 0 720 360" width="720pt" xmlns="http://www.w3.org/2000/svg" xmlns:xlink="http://www.w3.org/1999/xlink">
 <defs>
  <style type="text/css">
*{stroke-linecap:butt;stroke-linejoin:round;}
  </style>
 </defs>
 <g id="figure_1">
  <g id="patch_1">
   <path d="M 0 360 
L 720 360 
L 720 0 
L 0 0 
z
" style="fill:#ffffff;"/>
  </g>
  <g id="axes_1">
   <g id="patch_2">
    <path d="M 90 315 
L 648 315 
L 648 43.2 
L 90 43.2 
z
" style="fill:#ffffff;"/>
   </g>
   <g id="matplotlib.axis_1">
    <g id="xtick_1">
     <g id="line2d_1">
      <path clip-path="url(#p1d86382e15)" d="M 115.363636 315 
L 115.363636 43.2 
" style="fill:none;stroke:#b0b0b0;stroke-linecap:square;stroke-width:0.8;"/>
     </g>
     <g id="line2d_2">
      <defs>
       <path d="M 0 0 
L 0 3.5 
" id="m87c6e0873d" style="stroke:#000000;stroke-width:0.8;"/>
      </defs>
      <g>
       <use style="stroke:#000000;stroke-width:0.8;" x="115.363636" xlink:href="#m87c6e0873d" y="315"/>
      </g>
     </g>
     <g id="text_1">
      <!-- 0 -->
      <defs>
       <path d="M 31.78125 66.40625 
Q 24.171875 66.40625 20.328125 58.90625 
Q 16.5 51.421875 16.5 36.375 
Q 16.5 21.390625 20.328125 13.890625 
Q 24.171875 6.390625 31.78125 6.390625 
Q 39.453125 6.390625 43.28125 13.890625 
Q 47.125 21.390625 47.125 36.375 
Q 47.125 51.421875 43.28125 58.90625 
Q 39.453125 66.40625 31.78125 66.40625 
z
M 31.78125 74.21875 
Q 44.046875 74.21875 50.515625 64.515625 
Q 56.984375 54.828125 56.984375 36.375 
Q 56.984375 17.96875 50.515625 8.265625 
Q 44.046875 -1.421875 31.78125 -1.421875 
Q 19.53125 -1.421875 13.0625 8.265625 
Q 6.59375 17.96875 6.59375 36.375 
Q 6.59375 54.828125 13.0625 64.515625 
Q 19.53125 74.21875 31.78125 74.21875 
z
" id="DejaVuSans-48"/>
      </defs>
      <g transform="translate(112.182386 329.598437)scale(0.1 -0.1)">
       <use xlink:href="#DejaVuSans-48"/>
      </g>
     </g>
    </g>
    <g id="xtick_2">
     <g id="line2d_3">
      <path clip-path="url(#p1d86382e15)" d="M 185.818182 315 
L 185.818182 43.2 
" style="fill:none;stroke:#b0b0b0;stroke-linecap:square;stroke-width:0.8;"/>
     </g>
     <g id="line2d_4">
      <g>
       <use style="stroke:#000000;stroke-width:0.8;" x="185.818182" xlink:href="#m87c6e0873d" y="315"/>
      </g>
     </g>
     <g id="text_2">
      <!-- 100 -->
      <defs>
       <path d="M 12.40625 8.296875 
L 28.515625 8.296875 
L 28.515625 63.921875 
L 10.984375 60.40625 
L 10.984375 69.390625 
L 28.421875 72.90625 
L 38.28125 72.90625 
L 38.28125 8.296875 
L 54.390625 8.296875 
L 54.390625 0 
L 12.40625 0 
z
" id="DejaVuSans-49"/>
      </defs>
      <g transform="translate(176.274432 329.598437)scale(0.1 -0.1)">
       <use xlink:href="#DejaVuSans-49"/>
       <use x="63.623047" xlink:href="#DejaVuSans-48"/>
       <use x="127.246094" xlink:href="#DejaVuSans-48"/>
      </g>
     </g>
    </g>
    <g id="xtick_3">
     <g id="line2d_5">
      <path clip-path="url(#p1d86382e15)" d="M 256.272727 315 
L 256.272727 43.2 
" style="fill:none;stroke:#b0b0b0;stroke-linecap:square;stroke-width:0.8;"/>
     </g>
     <g id="line2d_6">
      <g>
       <use style="stroke:#000000;stroke-width:0.8;" x="256.272727" xlink:href="#m87c6e0873d" y="315"/>
      </g>
     </g>
     <g id="text_3">
      <!-- 200 -->
      <defs>
       <path d="M 19.1875 8.296875 
L 53.609375 8.296875 
L 53.609375 0 
L 7.328125 0 
L 7.328125 8.296875 
Q 12.9375 14.109375 22.625 23.890625 
Q 32.328125 33.6875 34.8125 36.53125 
Q 39.546875 41.84375 41.421875 45.53125 
Q 43.3125 49.21875 43.3125 52.78125 
Q 43.3125 58.59375 39.234375 62.25 
Q 35.15625 65.921875 28.609375 65.921875 
Q 23.96875 65.921875 18.8125 64.3125 
Q 13.671875 62.703125 7.8125 59.421875 
L 7.8125 69.390625 
Q 13.765625 71.78125 18.9375 73 
Q 24.125 74.21875 28.421875 74.21875 
Q 39.75 74.21875 46.484375 68.546875 
Q 53.21875 62.890625 53.21875 53.421875 
Q 53.21875 48.921875 51.53125 44.890625 
Q 49.859375 40.875 45.40625 35.40625 
Q 44.1875 33.984375 37.640625 27.21875 
Q 31.109375 20.453125 19.1875 8.296875 
z
" id="DejaVuSans-50"/>
      </defs>
      <g transform="translate(246.728977 329.598437)scale(0.1 -0.1)">
       <use xlink:href="#DejaVuSans-50"/>
       <use x="63.623047" xlink:href="#DejaVuSans-48"/>
       <use x="127.246094" xlink:href="#DejaVuSans-48"/>
      </g>
     </g>
    </g>
    <g id="xtick_4">
     <g id="line2d_7">
      <path clip-path="url(#p1d86382e15)" d="M 326.727273 315 
L 326.727273 43.2 
" style="fill:none;stroke:#b0b0b0;stroke-linecap:square;stroke-width:0.8;"/>
     </g>
     <g id="line2d_8">
      <g>
       <use style="stroke:#000000;stroke-width:0.8;" x="326.727273" xlink:href="#m87c6e0873d" y="315"/>
      </g>
     </g>
     <g id="text_4">
      <!-- 300 -->
      <defs>
       <path d="M 40.578125 39.3125 
Q 47.65625 37.796875 51.625 33 
Q 55.609375 28.21875 55.609375 21.1875 
Q 55.609375 10.40625 48.1875 4.484375 
Q 40.765625 -1.421875 27.09375 -1.421875 
Q 22.515625 -1.421875 17.65625 -0.515625 
Q 12.796875 0.390625 7.625 2.203125 
L 7.625 11.71875 
Q 11.71875 9.328125 16.59375 8.109375 
Q 21.484375 6.890625 26.8125 6.890625 
Q 36.078125 6.890625 40.9375 10.546875 
Q 45.796875 14.203125 45.796875 21.1875 
Q 45.796875 27.640625 41.28125 31.265625 
Q 36.765625 34.90625 28.71875 34.90625 
L 20.21875 34.90625 
L 20.21875 43.015625 
L 29.109375 43.015625 
Q 36.375 43.015625 40.234375 45.921875 
Q 44.09375 48.828125 44.09375 54.296875 
Q 44.09375 59.90625 40.109375 62.90625 
Q 36.140625 65.921875 28.71875 65.921875 
Q 24.65625 65.921875 20.015625 65.03125 
Q 15.375 64.15625 9.8125 62.3125 
L 9.8125 71.09375 
Q 15.4375 72.65625 20.34375 73.4375 
Q 25.25 74.21875 29.59375 74.21875 
Q 40.828125 74.21875 47.359375 69.109375 
Q 53.90625 64.015625 53.90625 55.328125 
Q 53.90625 49.265625 50.4375 45.09375 
Q 46.96875 40.921875 40.578125 39.3125 
z
" id="DejaVuSans-51"/>
      </defs>
      <g transform="translate(317.183523 329.598437)scale(0.1 -0.1)">
       <use xlink:href="#DejaVuSans-51"/>
       <use x="63.623047" xlink:href="#DejaVuSans-48"/>
       <use x="127.246094" xlink:href="#DejaVuSans-48"/>
      </g>
     </g>
    </g>
    <g id="xtick_5">
     <g id="line2d_9">
      <path clip-path="url(#p1d86382e15)" d="M 397.181818 315 
L 397.181818 43.2 
" style="fill:none;stroke:#b0b0b0;stroke-linecap:square;stroke-width:0.8;"/>
     </g>
     <g id="line2d_10">
      <g>
       <use style="stroke:#000000;stroke-width:0.8;" x="397.181818" xlink:href="#m87c6e0873d" y="315"/>
      </g>
     </g>
     <g id="text_5">
      <!-- 400 -->
      <defs>
       <path d="M 37.796875 64.3125 
L 12.890625 25.390625 
L 37.796875 25.390625 
z
M 35.203125 72.90625 
L 47.609375 72.90625 
L 47.609375 25.390625 
L 58.015625 25.390625 
L 58.015625 17.1875 
L 47.609375 17.1875 
L 47.609375 0 
L 37.796875 0 
L 37.796875 17.1875 
L 4.890625 17.1875 
L 4.890625 26.703125 
z
" id="DejaVuSans-52"/>
      </defs>
      <g transform="translate(387.638068 329.598437)scale(0.1 -0.1)">
       <use xlink:href="#DejaVuSans-52"/>
       <use x="63.623047" xlink:href="#DejaVuSans-48"/>
       <use x="127.246094" xlink:href="#DejaVuSans-48"/>
      </g>
     </g>
    </g>
    <g id="xtick_6">
     <g id="line2d_11">
      <path clip-path="url(#p1d86382e15)" d="M 467.636364 315 
L 467.636364 43.2 
" style="fill:none;stroke:#b0b0b0;stroke-linecap:square;stroke-width:0.8;"/>
     </g>
     <g id="line2d_12">
      <g>
       <use style="stroke:#000000;stroke-width:0.8;" x="467.636364" xlink:href="#m87c6e0873d" y="315"/>
      </g>
     </g>
     <g id="text_6">
      <!-- 500 -->
      <defs>
       <path d="M 10.796875 72.90625 
L 49.515625 72.90625 
L 49.515625 64.59375 
L 19.828125 64.59375 
L 19.828125 46.734375 
Q 21.96875 47.46875 24.109375 47.828125 
Q 26.265625 48.1875 28.421875 48.1875 
Q 40.625 48.1875 47.75 41.5 
Q 54.890625 34.8125 54.890625 23.390625 
Q 54.890625 11.625 47.5625 5.09375 
Q 40.234375 -1.421875 26.90625 -1.421875 
Q 22.3125 -1.421875 17.546875 -0.640625 
Q 12.796875 0.140625 7.71875 1.703125 
L 7.71875 11.625 
Q 12.109375 9.234375 16.796875 8.0625 
Q 21.484375 6.890625 26.703125 6.890625 
Q 35.15625 6.890625 40.078125 11.328125 
Q 45.015625 15.765625 45.015625 23.390625 
Q 45.015625 31 40.078125 35.4375 
Q 35.15625 39.890625 26.703125 39.890625 
Q 22.75 39.890625 18.8125 39.015625 
Q 14.890625 38.140625 10.796875 36.28125 
z
" id="DejaVuSans-53"/>
      </defs>
      <g transform="translate(458.092614 329.598437)scale(0.1 -0.1)">
       <use xlink:href="#DejaVuSans-53"/>
       <use x="63.623047" xlink:href="#DejaVuSans-48"/>
       <use x="127.246094" xlink:href="#DejaVuSans-48"/>
      </g>
     </g>
    </g>
    <g id="xtick_7">
     <g id="line2d_13">
      <path clip-path="url(#p1d86382e15)" d="M 538.090909 315 
L 538.090909 43.2 
" style="fill:none;stroke:#b0b0b0;stroke-linecap:square;stroke-width:0.8;"/>
     </g>
     <g id="line2d_14">
      <g>
       <use style="stroke:#000000;stroke-width:0.8;" x="538.090909" xlink:href="#m87c6e0873d" y="315"/>
      </g>
     </g>
     <g id="text_7">
      <!-- 600 -->
      <defs>
       <path d="M 33.015625 40.375 
Q 26.375 40.375 22.484375 35.828125 
Q 18.609375 31.296875 18.609375 23.390625 
Q 18.609375 15.53125 22.484375 10.953125 
Q 26.375 6.390625 33.015625 6.390625 
Q 39.65625 6.390625 43.53125 10.953125 
Q 47.40625 15.53125 47.40625 23.390625 
Q 47.40625 31.296875 43.53125 35.828125 
Q 39.65625 40.375 33.015625 40.375 
z
M 52.59375 71.296875 
L 52.59375 62.3125 
Q 48.875 64.0625 45.09375 64.984375 
Q 41.3125 65.921875 37.59375 65.921875 
Q 27.828125 65.921875 22.671875 59.328125 
Q 17.53125 52.734375 16.796875 39.40625 
Q 19.671875 43.65625 24.015625 45.921875 
Q 28.375 48.1875 33.59375 48.1875 
Q 44.578125 48.1875 50.953125 41.515625 
Q 57.328125 34.859375 57.328125 23.390625 
Q 57.328125 12.15625 50.6875 5.359375 
Q 44.046875 -1.421875 33.015625 -1.421875 
Q 20.359375 -1.421875 13.671875 8.265625 
Q 6.984375 17.96875 6.984375 36.375 
Q 6.984375 53.65625 15.1875 63.9375 
Q 23.390625 74.21875 37.203125 74.21875 
Q 40.921875 74.21875 44.703125 73.484375 
Q 48.484375 72.75 52.59375 71.296875 
z
" id="DejaVuSans-54"/>
      </defs>
      <g transform="translate(528.547159 329.598437)scale(0.1 -0.1)">
       <use xlink:href="#DejaVuSans-54"/>
       <use x="63.623047" xlink:href="#DejaVuSans-48"/>
       <use x="127.246094" xlink:href="#DejaVuSans-48"/>
      </g>
     </g>
    </g>
    <g id="xtick_8">
     <g id="line2d_15">
      <path clip-path="url(#p1d86382e15)" d="M 608.545455 315 
L 608.545455 43.2 
" style="fill:none;stroke:#b0b0b0;stroke-linecap:square;stroke-width:0.8;"/>
     </g>
     <g id="line2d_16">
      <g>
       <use style="stroke:#000000;stroke-width:0.8;" x="608.545455" xlink:href="#m87c6e0873d" y="315"/>
      </g>
     </g>
     <g id="text_8">
      <!-- 700 -->
      <defs>
       <path d="M 8.203125 72.90625 
L 55.078125 72.90625 
L 55.078125 68.703125 
L 28.609375 0 
L 18.3125 0 
L 43.21875 64.59375 
L 8.203125 64.59375 
z
" id="DejaVuSans-55"/>
      </defs>
      <g transform="translate(599.001705 329.598437)scale(0.1 -0.1)">
       <use xlink:href="#DejaVuSans-55"/>
       <use x="63.623047" xlink:href="#DejaVuSans-48"/>
       <use x="127.246094" xlink:href="#DejaVuSans-48"/>
      </g>
     </g>
    </g>
    <g id="text_9">
     <!-- epoch -->
     <defs>
      <path d="M 56.203125 29.59375 
L 56.203125 25.203125 
L 14.890625 25.203125 
Q 15.484375 15.921875 20.484375 11.0625 
Q 25.484375 6.203125 34.421875 6.203125 
Q 39.59375 6.203125 44.453125 7.46875 
Q 49.3125 8.734375 54.109375 11.28125 
L 54.109375 2.78125 
Q 49.265625 0.734375 44.1875 -0.34375 
Q 39.109375 -1.421875 33.890625 -1.421875 
Q 20.796875 -1.421875 13.15625 6.1875 
Q 5.515625 13.8125 5.515625 26.8125 
Q 5.515625 40.234375 12.765625 48.109375 
Q 20.015625 56 32.328125 56 
Q 43.359375 56 49.78125 48.890625 
Q 56.203125 41.796875 56.203125 29.59375 
z
M 47.21875 32.234375 
Q 47.125 39.59375 43.09375 43.984375 
Q 39.0625 48.390625 32.421875 48.390625 
Q 24.90625 48.390625 20.390625 44.140625 
Q 15.875 39.890625 15.1875 32.171875 
z
" id="DejaVuSans-101"/>
      <path d="M 18.109375 8.203125 
L 18.109375 -20.796875 
L 9.078125 -20.796875 
L 9.078125 54.6875 
L 18.109375 54.6875 
L 18.109375 46.390625 
Q 20.953125 51.265625 25.265625 53.625 
Q 29.59375 56 35.59375 56 
Q 45.5625 56 51.78125 48.09375 
Q 58.015625 40.1875 58.015625 27.296875 
Q 58.015625 14.40625 51.78125 6.484375 
Q 45.5625 -1.421875 35.59375 -1.421875 
Q 29.59375 -1.421875 25.265625 0.953125 
Q 20.953125 3.328125 18.109375 8.203125 
z
M 48.6875 27.296875 
Q 48.6875 37.203125 44.609375 42.84375 
Q 40.53125 48.484375 33.40625 48.484375 
Q 26.265625 48.484375 22.1875 42.84375 
Q 18.109375 37.203125 18.109375 27.296875 
Q 18.109375 17.390625 22.1875 11.75 
Q 26.265625 6.109375 33.40625 6.109375 
Q 40.53125 6.109375 44.609375 11.75 
Q 48.6875 17.390625 48.6875 27.296875 
z
" id="DejaVuSans-112"/>
      <path d="M 30.609375 48.390625 
Q 23.390625 48.390625 19.1875 42.75 
Q 14.984375 37.109375 14.984375 27.296875 
Q 14.984375 17.484375 19.15625 11.84375 
Q 23.34375 6.203125 30.609375 6.203125 
Q 37.796875 6.203125 41.984375 11.859375 
Q 46.1875 17.53125 46.1875 27.296875 
Q 46.1875 37.015625 41.984375 42.703125 
Q 37.796875 48.390625 30.609375 48.390625 
z
M 30.609375 56 
Q 42.328125 56 49.015625 48.375 
Q 55.71875 40.765625 55.71875 27.296875 
Q 55.71875 13.875 49.015625 6.21875 
Q 42.328125 -1.421875 30.609375 -1.421875 
Q 18.84375 -1.421875 12.171875 6.21875 
Q 5.515625 13.875 5.515625 27.296875 
Q 5.515625 40.765625 12.171875 48.375 
Q 18.84375 56 30.609375 56 
z
" id="DejaVuSans-111"/>
      <path d="M 48.78125 52.59375 
L 48.78125 44.1875 
Q 44.96875 46.296875 41.140625 47.34375 
Q 37.3125 48.390625 33.40625 48.390625 
Q 24.65625 48.390625 19.8125 42.84375 
Q 14.984375 37.3125 14.984375 27.296875 
Q 14.984375 17.28125 19.8125 11.734375 
Q 24.65625 6.203125 33.40625 6.203125 
Q 37.3125 6.203125 41.140625 7.25 
Q 44.96875 8.296875 48.78125 10.40625 
L 48.78125 2.09375 
Q 45.015625 0.34375 40.984375 -0.53125 
Q 36.96875 -1.421875 32.421875 -1.421875 
Q 20.0625 -1.421875 12.78125 6.34375 
Q 5.515625 14.109375 5.515625 27.296875 
Q 5.515625 40.671875 12.859375 48.328125 
Q 20.21875 56 33.015625 56 
Q 37.15625 56 41.109375 55.140625 
Q 45.0625 54.296875 48.78125 52.59375 
z
" id="DejaVuSans-99"/>
      <path d="M 54.890625 33.015625 
L 54.890625 0 
L 45.90625 0 
L 45.90625 32.71875 
Q 45.90625 40.484375 42.875 44.328125 
Q 39.84375 48.1875 33.796875 48.1875 
Q 26.515625 48.1875 22.3125 43.546875 
Q 18.109375 38.921875 18.109375 30.90625 
L 18.109375 0 
L 9.078125 0 
L 9.078125 75.984375 
L 18.109375 75.984375 
L 18.109375 46.1875 
Q 21.34375 51.125 25.703125 53.5625 
Q 30.078125 56 35.796875 56 
Q 45.21875 56 50.046875 50.171875 
Q 54.890625 44.34375 54.890625 33.015625 
z
" id="DejaVuSans-104"/>
     </defs>
     <g transform="translate(353.771875 343.276563)scale(0.1 -0.1)">
      <use xlink:href="#DejaVuSans-101"/>
      <use x="61.523438" xlink:href="#DejaVuSans-112"/>
      <use x="125" xlink:href="#DejaVuSans-111"/>
      <use x="186.181641" xlink:href="#DejaVuSans-99"/>
      <use x="241.162109" xlink:href="#DejaVuSans-104"/>
     </g>
    </g>
   </g>
   <g id="matplotlib.axis_2">
    <g id="ytick_1">
     <g id="line2d_17">
      <path clip-path="url(#p1d86382e15)" d="M 90 300.482736 
L 648 300.482736 
" style="fill:none;stroke:#b0b0b0;stroke-linecap:square;stroke-width:0.8;"/>
     </g>
     <g id="line2d_18">
      <defs>
       <path d="M 0 0 
L -3.5 0 
" id="m649bf183f2" style="stroke:#000000;stroke-width:0.8;"/>
      </defs>
      <g>
       <use style="stroke:#000000;stroke-width:0.8;" x="90" xlink:href="#m649bf183f2" y="300.482736"/>
      </g>
     </g>
     <g id="text_10">
      <!-- 0.2 -->
      <defs>
       <path d="M 10.6875 12.40625 
L 21 12.40625 
L 21 0 
L 10.6875 0 
z
" id="DejaVuSans-46"/>
      </defs>
      <g transform="translate(67.096875 304.281955)scale(0.1 -0.1)">
       <use xlink:href="#DejaVuSans-48"/>
       <use x="63.623047" xlink:href="#DejaVuSans-46"/>
       <use x="95.410156" xlink:href="#DejaVuSans-50"/>
      </g>
     </g>
    </g>
    <g id="ytick_2">
     <g id="line2d_19">
      <path clip-path="url(#p1d86382e15)" d="M 90 264.132621 
L 648 264.132621 
" style="fill:none;stroke:#b0b0b0;stroke-linecap:square;stroke-width:0.8;"/>
     </g>
     <g id="line2d_20">
      <g>
       <use style="stroke:#000000;stroke-width:0.8;" x="90" xlink:href="#m649bf183f2" y="264.132621"/>
      </g>
     </g>
     <g id="text_11">
      <!-- 0.4 -->
      <g transform="translate(67.096875 267.931839)scale(0.1 -0.1)">
       <use xlink:href="#DejaVuSans-48"/>
       <use x="63.623047" xlink:href="#DejaVuSans-46"/>
       <use x="95.410156" xlink:href="#DejaVuSans-52"/>
      </g>
     </g>
    </g>
    <g id="ytick_3">
     <g id="line2d_21">
      <path clip-path="url(#p1d86382e15)" d="M 90 227.782505 
L 648 227.782505 
" style="fill:none;stroke:#b0b0b0;stroke-linecap:square;stroke-width:0.8;"/>
     </g>
     <g id="line2d_22">
      <g>
       <use style="stroke:#000000;stroke-width:0.8;" x="90" xlink:href="#m649bf183f2" y="227.782505"/>
      </g>
     </g>
     <g id="text_12">
      <!-- 0.6 -->
      <g transform="translate(67.096875 231.581724)scale(0.1 -0.1)">
       <use xlink:href="#DejaVuSans-48"/>
       <use x="63.623047" xlink:href="#DejaVuSans-46"/>
       <use x="95.410156" xlink:href="#DejaVuSans-54"/>
      </g>
     </g>
    </g>
    <g id="ytick_4">
     <g id="line2d_23">
      <path clip-path="url(#p1d86382e15)" d="M 90 191.43239 
L 648 191.43239 
" style="fill:none;stroke:#b0b0b0;stroke-linecap:square;stroke-width:0.8;"/>
     </g>
     <g id="line2d_24">
      <g>
       <use style="stroke:#000000;stroke-width:0.8;" x="90" xlink:href="#m649bf183f2" y="191.43239"/>
      </g>
     </g>
     <g id="text_13">
      <!-- 0.8 -->
      <defs>
       <path d="M 31.78125 34.625 
Q 24.75 34.625 20.71875 30.859375 
Q 16.703125 27.09375 16.703125 20.515625 
Q 16.703125 13.921875 20.71875 10.15625 
Q 24.75 6.390625 31.78125 6.390625 
Q 38.8125 6.390625 42.859375 10.171875 
Q 46.921875 13.96875 46.921875 20.515625 
Q 46.921875 27.09375 42.890625 30.859375 
Q 38.875 34.625 31.78125 34.625 
z
M 21.921875 38.8125 
Q 15.578125 40.375 12.03125 44.71875 
Q 8.5 49.078125 8.5 55.328125 
Q 8.5 64.0625 14.71875 69.140625 
Q 20.953125 74.21875 31.78125 74.21875 
Q 42.671875 74.21875 48.875 69.140625 
Q 55.078125 64.0625 55.078125 55.328125 
Q 55.078125 49.078125 51.53125 44.71875 
Q 48 40.375 41.703125 38.8125 
Q 48.828125 37.15625 52.796875 32.3125 
Q 56.78125 27.484375 56.78125 20.515625 
Q 56.78125 9.90625 50.3125 4.234375 
Q 43.84375 -1.421875 31.78125 -1.421875 
Q 19.734375 -1.421875 13.25 4.234375 
Q 6.78125 9.90625 6.78125 20.515625 
Q 6.78125 27.484375 10.78125 32.3125 
Q 14.796875 37.15625 21.921875 38.8125 
z
M 18.3125 54.390625 
Q 18.3125 48.734375 21.84375 45.5625 
Q 25.390625 42.390625 31.78125 42.390625 
Q 38.140625 42.390625 41.71875 45.5625 
Q 45.3125 48.734375 45.3125 54.390625 
Q 45.3125 60.0625 41.71875 63.234375 
Q 38.140625 66.40625 31.78125 66.40625 
Q 25.390625 66.40625 21.84375 63.234375 
Q 18.3125 60.0625 18.3125 54.390625 
z
" id="DejaVuSans-56"/>
      </defs>
      <g transform="translate(67.096875 195.231609)scale(0.1 -0.1)">
       <use xlink:href="#DejaVuSans-48"/>
       <use x="63.623047" xlink:href="#DejaVuSans-46"/>
       <use x="95.410156" xlink:href="#DejaVuSans-56"/>
      </g>
     </g>
    </g>
    <g id="ytick_5">
     <g id="line2d_25">
      <path clip-path="url(#p1d86382e15)" d="M 90 155.082275 
L 648 155.082275 
" style="fill:none;stroke:#b0b0b0;stroke-linecap:square;stroke-width:0.8;"/>
     </g>
     <g id="line2d_26">
      <g>
       <use style="stroke:#000000;stroke-width:0.8;" x="90" xlink:href="#m649bf183f2" y="155.082275"/>
      </g>
     </g>
     <g id="text_14">
      <!-- 1.0 -->
      <g transform="translate(67.096875 158.881494)scale(0.1 -0.1)">
       <use xlink:href="#DejaVuSans-49"/>
       <use x="63.623047" xlink:href="#DejaVuSans-46"/>
       <use x="95.410156" xlink:href="#DejaVuSans-48"/>
      </g>
     </g>
    </g>
    <g id="ytick_6">
     <g id="line2d_27">
      <path clip-path="url(#p1d86382e15)" d="M 90 118.73216 
L 648 118.73216 
" style="fill:none;stroke:#b0b0b0;stroke-linecap:square;stroke-width:0.8;"/>
     </g>
     <g id="line2d_28">
      <g>
       <use style="stroke:#000000;stroke-width:0.8;" x="90" xlink:href="#m649bf183f2" y="118.73216"/>
      </g>
     </g>
     <g id="text_15">
      <!-- 1.2 -->
      <g transform="translate(67.096875 122.531378)scale(0.1 -0.1)">
       <use xlink:href="#DejaVuSans-49"/>
       <use x="63.623047" xlink:href="#DejaVuSans-46"/>
       <use x="95.410156" xlink:href="#DejaVuSans-50"/>
      </g>
     </g>
    </g>
    <g id="ytick_7">
     <g id="line2d_29">
      <path clip-path="url(#p1d86382e15)" d="M 90 82.382044 
L 648 82.382044 
" style="fill:none;stroke:#b0b0b0;stroke-linecap:square;stroke-width:0.8;"/>
     </g>
     <g id="line2d_30">
      <g>
       <use style="stroke:#000000;stroke-width:0.8;" x="90" xlink:href="#m649bf183f2" y="82.382044"/>
      </g>
     </g>
     <g id="text_16">
      <!-- 1.4 -->
      <g transform="translate(67.096875 86.181263)scale(0.1 -0.1)">
       <use xlink:href="#DejaVuSans-49"/>
       <use x="63.623047" xlink:href="#DejaVuSans-46"/>
       <use x="95.410156" xlink:href="#DejaVuSans-52"/>
      </g>
     </g>
    </g>
    <g id="ytick_8">
     <g id="line2d_31">
      <path clip-path="url(#p1d86382e15)" d="M 90 46.031929 
L 648 46.031929 
" style="fill:none;stroke:#b0b0b0;stroke-linecap:square;stroke-width:0.8;"/>
     </g>
     <g id="line2d_32">
      <g>
       <use style="stroke:#000000;stroke-width:0.8;" x="90" xlink:href="#m649bf183f2" y="46.031929"/>
      </g>
     </g>
     <g id="text_17">
      <!-- 1.6 -->
      <g transform="translate(67.096875 49.831148)scale(0.1 -0.1)">
       <use xlink:href="#DejaVuSans-49"/>
       <use x="63.623047" xlink:href="#DejaVuSans-46"/>
       <use x="95.410156" xlink:href="#DejaVuSans-54"/>
      </g>
     </g>
    </g>
    <g id="text_18">
     <!-- loss -->
     <defs>
      <path d="M 9.421875 75.984375 
L 18.40625 75.984375 
L 18.40625 0 
L 9.421875 0 
z
" id="DejaVuSans-108"/>
      <path d="M 44.28125 53.078125 
L 44.28125 44.578125 
Q 40.484375 46.53125 36.375 47.5 
Q 32.28125 48.484375 27.875 48.484375 
Q 21.1875 48.484375 17.84375 46.4375 
Q 14.5 44.390625 14.5 40.28125 
Q 14.5 37.15625 16.890625 35.375 
Q 19.28125 33.59375 26.515625 31.984375 
L 29.59375 31.296875 
Q 39.15625 29.25 43.1875 25.515625 
Q 47.21875 21.78125 47.21875 15.09375 
Q 47.21875 7.46875 41.1875 3.015625 
Q 35.15625 -1.421875 24.609375 -1.421875 
Q 20.21875 -1.421875 15.453125 -0.5625 
Q 10.6875 0.296875 5.421875 2 
L 5.421875 11.28125 
Q 10.40625 8.6875 15.234375 7.390625 
Q 20.0625 6.109375 24.8125 6.109375 
Q 31.15625 6.109375 34.5625 8.28125 
Q 37.984375 10.453125 37.984375 14.40625 
Q 37.984375 18.0625 35.515625 20.015625 
Q 33.0625 21.96875 24.703125 23.78125 
L 21.578125 24.515625 
Q 13.234375 26.265625 9.515625 29.90625 
Q 5.8125 33.546875 5.8125 39.890625 
Q 5.8125 47.609375 11.28125 51.796875 
Q 16.75 56 26.8125 56 
Q 31.78125 56 36.171875 55.265625 
Q 40.578125 54.546875 44.28125 53.078125 
z
" id="DejaVuSans-115"/>
     </defs>
     <g transform="translate(61.017187 188.757812)rotate(-90)scale(0.1 -0.1)">
      <use xlink:href="#DejaVuSans-108"/>
      <use x="27.783203" xlink:href="#DejaVuSans-111"/>
      <use x="88.964844" xlink:href="#DejaVuSans-115"/>
      <use x="141.064453" xlink:href="#DejaVuSans-115"/>
     </g>
    </g>
   </g>
   <g id="line2d_33">
    <path clip-path="url(#p1d86382e15)" d="M 115.363636 55.554545 
L 116.068182 67.666602 
L 116.772727 71.918657 
L 117.477273 78.11003 
L 118.886364 82.165207 
L 119.590909 84.155642 
L 120.295455 85.724091 
L 121 86.852866 
L 121.704545 88.275383 
L 122.409091 88.51771 
L 123.113636 91.224921 
L 123.818182 92.915053 
L 124.522727 93.28145 
L 125.931818 97.244467 
L 126.636364 97.230588 
L 127.340909 99.226352 
L 128.045455 103.107032 
L 128.75 103.1269 
L 129.454545 105.219067 
L 130.863636 108.671575 
L 131.568182 113.038591 
L 132.977273 117.067235 
L 133.681818 122.801506 
L 134.386364 125.515367 
L 135.090909 127.039844 
L 136.5 134.911705 
L 137.204545 139.755337 
L 138.613636 146.226134 
L 139.318182 149.800444 
L 140.022727 156.305541 
L 140.727273 159.165728 
L 141.431818 163.981857 
L 142.840909 170.392053 
L 143.545455 172.559297 
L 144.954545 180.933465 
L 145.659091 181.031323 
L 146.363636 183.987441 
L 147.068182 188.523974 
L 147.772727 190.347465 
L 148.477273 193.376921 
L 149.181818 194.274602 
L 149.886364 196.924786 
L 150.590909 197.789926 
L 151.295455 196.465813 
L 152 201.123881 
L 152.704545 203.100422 
L 153.409091 204.233834 
L 154.113636 203.216055 
L 155.522727 210.434961 
L 156.227273 207.361874 
L 156.931818 211.6808 
L 157.636364 211.632106 
L 158.340909 213.937752 
L 159.045455 214.069488 
L 159.75 215.631458 
L 160.454545 215.186392 
L 161.159091 219.297127 
L 161.863636 218.124721 
L 162.568182 220.641296 
L 163.272727 219.724057 
L 163.977273 220.198193 
L 164.681818 223.979223 
L 165.386364 224.534941 
L 166.090909 222.171419 
L 166.795455 223.963796 
L 167.5 229.597358 
L 168.204545 226.954264 
L 168.909091 228.295582 
L 169.613636 228.090725 
L 170.318182 229.737534 
L 171.022727 229.681956 
L 171.727273 231.128236 
L 172.431818 230.26781 
L 173.136364 233.161766 
L 173.840909 233.457525 
L 174.545455 233.330114 
L 175.25 233.955104 
L 175.954545 234.731862 
L 176.659091 238.052761 
L 177.363636 237.912807 
L 178.068182 237.453297 
L 178.772727 235.819337 
L 179.477273 236.424592 
L 180.886364 238.5608 
L 181.590909 239.227048 
L 182.295455 241.93524 
L 183 240.530073 
L 183.704545 241.075578 
L 184.409091 244.04679 
L 185.113636 241.126834 
L 185.818182 243.693409 
L 186.522727 241.975655 
L 187.227273 244.525865 
L 187.931818 243.833738 
L 188.636364 246.882066 
L 189.340909 244.996026 
L 190.045455 246.527165 
L 190.75 245.637572 
L 191.454545 246.991337 
L 192.159091 247.147573 
L 192.863636 248.741708 
L 193.568182 248.511952 
L 194.272727 248.73723 
L 194.977273 248.603162 
L 195.681818 252.601516 
L 196.386364 249.662171 
L 197.090909 250.326263 
L 197.795455 250.127525 
L 198.5 253.358182 
L 199.204545 252.899521 
L 199.909091 251.202007 
L 200.613636 252.036774 
L 201.318182 251.055648 
L 202.022727 251.258366 
L 202.727273 255.622125 
L 203.431818 254.426852 
L 204.136364 251.415687 
L 204.840909 254.016119 
L 205.545455 254.013643 
L 206.25 255.573857 
L 206.954545 254.591623 
L 207.659091 257.4502 
L 208.363636 257.050256 
L 209.068182 255.476216 
L 209.772727 255.354963 
L 210.477273 254.463789 
L 211.181818 255.073807 
L 211.886364 256.168626 
L 212.590909 254.80775 
L 213.295455 257.962093 
L 214 257.932415 
L 214.704545 258.147024 
L 215.409091 257.86034 
L 216.113636 256.974583 
L 216.818182 259.312939 
L 217.522727 257.68553 
L 218.227273 259.815075 
L 218.931818 256.788231 
L 219.636364 260.967208 
L 220.340909 260.816129 
L 221.045455 260.922027 
L 221.75 260.67097 
L 222.454545 262.243797 
L 223.159091 262.49938 
L 223.863636 258.795618 
L 224.568182 262.412712 
L 225.272727 262.523931 
L 226.681818 264.437347 
L 227.386364 264.747322 
L 228.090909 263.268074 
L 228.795455 263.568767 
L 229.5 262.671802 
L 230.204545 263.884397 
L 230.909091 264.476609 
L 231.613636 264.622413 
L 232.318182 263.81224 
L 233.022727 265.398708 
L 233.727273 264.589917 
L 234.431818 267.091454 
L 235.136364 264.198474 
L 235.840909 266.976265 
L 236.545455 264.668131 
L 237.25 266.286603 
L 237.954545 264.961691 
L 238.659091 267.851059 
L 240.068182 267.185774 
L 240.772727 266.055496 
L 241.477273 267.596085 
L 242.181818 267.693579 
L 242.886364 269.451907 
L 243.590909 267.07484 
L 244.295455 269.026771 
L 245 270.26226 
L 245.704545 269.064508 
L 246.409091 268.260961 
L 247.113636 270.510522 
L 247.818182 267.450871 
L 248.522727 268.717317 
L 249.227273 269.286824 
L 249.931818 270.357618 
L 250.636364 268.372551 
L 251.340909 268.993694 
L 252.045455 270.065709 
L 253.454545 270.671923 
L 254.159091 272.952656 
L 254.863636 269.888473 
L 255.568182 270.266147 
L 256.272727 271.250551 
L 256.977273 269.498018 
L 257.681818 269.476148 
L 259.090909 271.356205 
L 259.795455 271.191746 
L 260.5 271.743559 
L 261.204545 271.651229 
L 261.909091 270.514367 
L 262.613636 273.107826 
L 263.318182 276.292047 
L 264.022727 274.650697 
L 264.727273 274.397249 
L 265.431818 272.42482 
L 266.136364 273.082713 
L 266.840909 271.022312 
L 267.545455 271.916282 
L 268.25 271.429875 
L 268.954545 274.13214 
L 269.659091 272.421127 
L 270.363636 273.841489 
L 271.772727 273.94288 
L 272.477273 274.656075 
L 273.181818 274.674023 
L 273.886364 274.318636 
L 274.590909 276.59051 
L 275.295455 273.549995 
L 276 274.842143 
L 276.704545 275.593737 
L 277.409091 274.754901 
L 278.113636 274.340403 
L 278.818182 274.366716 
L 279.522727 273.697676 
L 280.227273 273.869695 
L 280.931818 275.843445 
L 281.636364 274.5261 
L 282.340909 272.843705 
L 283.045455 276.339525 
L 283.75 274.737396 
L 284.454545 278.384418 
L 285.159091 275.315024 
L 285.863636 276.01459 
L 286.568182 277.045009 
L 287.272727 275.929252 
L 287.977273 276.628511 
L 288.681818 277.708276 
L 289.386364 277.415205 
L 290.795455 279.014127 
L 291.5 277.029585 
L 292.909091 278.182558 
L 293.613636 276.26708 
L 294.318182 278.749929 
L 295.022727 279.034839 
L 295.727273 277.08996 
L 296.431818 278.535254 
L 297.136364 277.677061 
L 297.840909 279.275615 
L 298.545455 276.686227 
L 299.25 275.095384 
L 299.954545 277.72266 
L 300.659091 279.376867 
L 301.363636 278.521107 
L 302.068182 281.536388 
L 302.772727 278.71833 
L 303.477273 278.476763 
L 304.181818 278.551433 
L 304.886364 278.445246 
L 305.590909 278.462879 
L 306.295455 281.281173 
L 307 278.173927 
L 307.704545 280.576701 
L 308.409091 280.305893 
L 309.113636 279.08937 
L 309.818182 279.367095 
L 310.522727 281.19672 
L 311.227273 277.364679 
L 311.931818 280.150949 
L 312.636364 279.172556 
L 313.340909 279.537876 
L 314.045455 281.466213 
L 315.454545 279.646434 
L 316.159091 280.16704 
L 316.863636 281.530507 
L 317.568182 279.722342 
L 318.272727 279.106734 
L 318.977273 281.199868 
L 319.681818 280.153068 
L 320.386364 280.709834 
L 321.090909 280.549468 
L 321.795455 282.585926 
L 322.5 280.055665 
L 323.204545 283.234231 
L 323.909091 279.443103 
L 324.613636 283.968249 
L 325.318182 282.286077 
L 326.022727 279.526836 
L 326.727273 280.290354 
L 327.431818 281.435027 
L 328.136364 282.937336 
L 328.840909 281.851662 
L 329.545455 282.781495 
L 330.25 282.202886 
L 330.954545 280.98067 
L 331.659091 281.186885 
L 332.363636 283.977514 
L 333.068182 280.796019 
L 333.772727 284.268448 
L 334.477273 282.403151 
L 335.181818 282.974818 
L 335.886364 282.064696 
L 336.590909 281.458977 
L 337.295455 283.684217 
L 338.704545 280.722568 
L 339.409091 283.436626 
L 340.113636 282.802844 
L 340.818182 285.24398 
L 341.522727 286.141099 
L 342.227273 281.934803 
L 342.931818 281.743719 
L 343.636364 285.312943 
L 344.340909 286.15277 
L 345.045455 283.213355 
L 345.75 282.789875 
L 346.454545 284.644661 
L 347.159091 284.934436 
L 347.863636 283.058615 
L 348.568182 282.851352 
L 349.272727 282.383463 
L 349.977273 282.970723 
L 350.681818 284.925616 
L 351.386364 284.302241 
L 352.090909 284.328238 
L 352.795455 286.643131 
L 353.5 284.984057 
L 354.204545 282.783628 
L 354.909091 285.428662 
L 355.613636 286.505086 
L 356.318182 284.378314 
L 357.022727 285.848884 
L 358.431818 285.450697 
L 359.136364 286.095757 
L 359.840909 284.439719 
L 360.545455 285.325384 
L 361.25 284.589034 
L 361.954545 286.628959 
L 362.659091 284.038392 
L 363.363636 284.44387 
L 364.068182 284.190379 
L 364.772727 286.062612 
L 365.477273 284.711937 
L 366.181818 285.840979 
L 366.886364 283.07972 
L 367.590909 287.628675 
L 368.295455 284.810241 
L 369 285.898588 
L 369.704545 285.715313 
L 370.409091 286.331497 
L 371.113636 287.740702 
L 371.818182 284.709768 
L 372.522727 287.180989 
L 373.227273 287.829435 
L 373.931818 288.905568 
L 374.636364 287.530112 
L 375.340909 285.17274 
L 376.045455 283.395847 
L 376.75 284.831687 
L 377.454545 288.068233 
L 378.159091 287.330351 
L 378.863636 286.7672 
L 379.568182 287.264173 
L 380.272727 290.956528 
L 380.977273 285.756555 
L 381.681818 285.534413 
L 382.386364 286.462386 
L 383.090909 288.334539 
L 383.795455 288.639915 
L 384.5 286.920795 
L 385.204545 287.785727 
L 385.909091 288.110617 
L 386.613636 286.120498 
L 387.318182 288.743586 
L 388.022727 288.062581 
L 388.727273 288.249882 
L 389.431818 288.212237 
L 390.136364 287.497739 
L 390.840909 285.437542 
L 391.545455 288.437415 
L 392.25 288.031783 
L 392.954545 289.730788 
L 393.659091 288.595025 
L 394.363636 290.357587 
L 395.068182 287.501083 
L 396.477273 290.470694 
L 397.181818 287.116396 
L 397.886364 291.044919 
L 398.590909 287.721193 
L 399.295455 288.740977 
L 400 288.071315 
L 400.704545 289.235929 
L 401.409091 289.723736 
L 402.113636 286.97053 
L 402.818182 289.330167 
L 403.522727 290.123504 
L 404.227273 288.440267 
L 404.931818 287.301115 
L 405.636364 290.662427 
L 406.340909 289.501535 
L 407.045455 290.035378 
L 407.75 289.513437 
L 408.454545 289.854825 
L 409.159091 291.090503 
L 409.863636 290.858933 
L 410.568182 291.474943 
L 411.272727 288.19686 
L 411.977273 291.775766 
L 412.681818 290.536032 
L 413.386364 291.329026 
L 414.090909 289.51076 
L 414.795455 288.276836 
L 415.5 290.650964 
L 416.204545 289.539924 
L 417.613636 291.916762 
L 418.318182 289.725354 
L 419.022727 291.651533 
L 419.727273 290.145047 
L 420.431818 287.516908 
L 421.840909 293.028224 
L 422.545455 290.170597 
L 423.25 291.619431 
L 423.954545 290.278608 
L 424.659091 292.105485 
L 425.363636 290.12714 
L 426.068182 289.381202 
L 426.772727 292.352107 
L 427.477273 289.769325 
L 428.181818 290.808934 
L 428.886364 289.961247 
L 429.590909 290.19784 
L 430.295455 292.235677 
L 431 290.063631 
L 431.704545 291.247032 
L 432.409091 291.869389 
L 433.113636 293.313233 
L 433.818182 289.989073 
L 434.522727 289.341497 
L 435.227273 292.100018 
L 435.931818 292.149528 
L 436.636364 292.952979 
L 437.340909 291.435378 
L 438.045455 291.422334 
L 438.75 290.785477 
L 439.454545 293.471308 
L 440.863636 291.097518 
L 441.568182 290.787213 
L 442.272727 291.864083 
L 442.977273 291.38028 
L 443.681818 290.436575 
L 444.386364 292.64387 
L 445.090909 294.041247 
L 445.795455 288.930479 
L 446.5 294.231927 
L 447.204545 293.328784 
L 447.909091 291.863557 
L 448.613636 290.961141 
L 449.318182 293.482933 
L 450.022727 292.569497 
L 450.727273 294.340871 
L 451.431818 292.611117 
L 452.136364 293.360732 
L 452.840909 294.993828 
L 453.545455 292.807601 
L 454.25 291.732652 
L 454.954545 292.072483 
L 455.659091 293.77345 
L 456.363636 291.415138 
L 457.068182 293.825766 
L 457.772727 292.675314 
L 458.477273 295.731494 
L 459.181818 293.345984 
L 459.886364 290.473476 
L 460.590909 290.082719 
L 461.295455 292.871206 
L 462 292.494338 
L 462.704545 291.234974 
L 463.409091 293.536601 
L 464.113636 292.558056 
L 464.818182 293.684543 
L 465.522727 291.498086 
L 466.227273 292.40728 
L 466.931818 292.51833 
L 467.636364 294.243532 
L 468.340909 292.379031 
L 469.045455 292.816066 
L 469.75 295.667912 
L 470.454545 295.837685 
L 471.159091 294.646102 
L 471.863636 292.690795 
L 472.568182 291.152045 
L 473.272727 294.486322 
L 473.977273 294.086721 
L 474.681818 294.374321 
L 475.386364 293.532873 
L 476.090909 293.982574 
L 476.795455 294.147732 
L 477.5 295.00125 
L 478.204545 294.007934 
L 478.909091 291.747191 
L 479.613636 293.015257 
L 480.318182 291.659449 
L 481.022727 294.478015 
L 481.727273 293.755351 
L 483.840909 294.498944 
L 484.545455 294.050898 
L 485.25 293.859495 
L 485.954545 294.46828 
L 486.659091 295.928415 
L 487.363636 294.006271 
L 488.068182 293.994687 
L 488.772727 295.961882 
L 489.477273 293.414032 
L 490.181818 294.33992 
L 490.886364 293.785361 
L 491.590909 295.198356 
L 492.295455 295.280281 
L 493 293.488769 
L 493.704545 295.479716 
L 494.409091 295.988812 
L 495.113636 297.430091 
L 495.818182 295.251528 
L 496.522727 296.990178 
L 497.227273 293.931378 
L 497.931818 294.780421 
L 498.636364 294.432711 
L 499.340909 296.033592 
L 500.045455 296.640487 
L 500.75 291.842888 
L 501.454545 295.207421 
L 502.159091 295.479035 
L 502.863636 296.919361 
L 503.568182 296.693596 
L 504.272727 295.726801 
L 504.977273 293.601686 
L 505.681818 296.39545 
L 506.386364 295.099435 
L 507.090909 297.058888 
L 507.795455 296.854929 
L 508.5 296.311736 
L 509.204545 298.03213 
L 509.909091 295.64267 
L 510.613636 296.480466 
L 511.318182 297.555614 
L 512.022727 298.193502 
L 512.727273 297.893975 
L 514.136364 295.089641 
L 514.840909 296.049067 
L 515.545455 295.792681 
L 516.25 299.212676 
L 516.954545 296.755914 
L 517.659091 296.288066 
L 518.363636 297.867417 
L 519.068182 294.767419 
L 519.772727 296.146083 
L 520.477273 296.893612 
L 521.181818 295.935362 
L 521.886364 296.615206 
L 522.590909 295.665851 
L 523.295455 298.235568 
L 524 296.666837 
L 524.704545 297.6159 
L 525.409091 295.129399 
L 526.113636 297.734163 
L 526.818182 296.915768 
L 527.522727 298.036684 
L 528.227273 298.113212 
L 529.636364 294.03918 
L 530.340909 296.706667 
L 531.045455 300.327401 
L 531.75 295.10312 
L 532.454545 296.786377 
L 533.159091 297.305025 
L 533.863636 296.031822 
L 534.568182 299.895785 
L 535.272727 298.304878 
L 535.977273 297.644508 
L 536.681818 295.131436 
L 537.386364 297.653876 
L 538.090909 297.8635 
L 538.795455 298.266132 
L 539.5 295.668357 
L 540.204545 298.271534 
L 540.909091 297.967004 
L 541.613636 299.311561 
L 542.318182 299.00109 
L 543.022727 296.821425 
L 543.727273 297.630946 
L 544.431818 296.706744 
L 545.136364 297.608842 
L 545.840909 298.046582 
L 546.545455 299.245568 
L 547.25 298.718913 
L 547.954545 299.4009 
L 548.659091 297.190688 
L 549.363636 299.123801 
L 550.068182 296.544959 
L 550.772727 299.654175 
L 551.477273 298.453796 
L 552.181818 296.834465 
L 552.886364 296.133764 
L 553.590909 299.834063 
L 554.295455 298.174867 
L 555 300.594974 
L 555.704545 297.255166 
L 556.409091 298.627265 
L 557.113636 297.54885 
L 557.818182 299.725313 
L 558.522727 300.001049 
L 559.227273 298.86785 
L 559.931818 296.53851 
L 560.636364 297.226582 
L 561.340909 299.137645 
L 562.045455 298.408334 
L 562.75 298.466109 
L 563.454545 299.12342 
L 564.159091 299.331246 
L 564.863636 300.885154 
L 565.568182 301.36703 
L 566.272727 297.23311 
L 566.977273 300.658338 
L 567.681818 299.107541 
L 568.386364 297.873776 
L 569.090909 300.218437 
L 569.795455 299.176844 
L 570.5 298.845471 
L 571.204545 296.871697 
L 571.909091 299.562125 
L 572.613636 300.258517 
L 573.318182 302.204769 
L 574.022727 298.572285 
L 574.727273 299.380688 
L 575.431818 298.791751 
L 576.136364 300.187206 
L 576.840909 299.011373 
L 577.545455 301.090455 
L 578.25 299.977321 
L 578.954545 300.269207 
L 579.659091 298.827682 
L 580.363636 300.700581 
L 581.068182 301.260917 
L 582.477273 300.578334 
L 583.181818 299.494602 
L 583.886364 299.572537 
L 584.590909 300.778328 
L 585.295455 298.73255 
L 586 298.834653 
L 586.704545 300.150573 
L 587.409091 302.15509 
L 588.113636 299.393444 
L 588.818182 298.821355 
L 589.522727 299.791187 
L 590.227273 301.146109 
L 590.931818 299.435822 
L 591.636364 298.155545 
L 592.340909 298.68004 
L 593.045455 302.266547 
L 593.75 301.752256 
L 594.454545 302.067171 
L 595.159091 300.092047 
L 596.568182 300.166487 
L 597.272727 298.318883 
L 597.977273 300.219413 
L 598.681818 299.387395 
L 599.386364 301.052096 
L 600.090909 298.176865 
L 600.795455 300.334423 
L 601.5 299.809975 
L 602.909091 301.806398 
L 603.613636 299.519593 
L 604.318182 299.871084 
L 605.022727 300.053748 
L 605.727273 298.435552 
L 606.431818 302.233012 
L 607.840909 300.58209 
L 608.545455 300.141595 
L 609.25 302.189761 
L 609.954545 301.041554 
L 610.659091 302.645455 
L 611.363636 301.441515 
L 612.068182 299.888802 
L 612.772727 302.103389 
L 613.477273 300.207865 
L 614.181818 300.865434 
L 614.886364 300.926268 
L 615.590909 301.276751 
L 616.295455 299.964404 
L 617 302.472153 
L 617.704545 300.451344 
L 618.409091 300.448964 
L 619.113636 299.922689 
L 619.818182 301.302367 
L 620.522727 299.976294 
L 621.227273 301.200246 
L 622.636364 302.512566 
L 622.636364 302.512566 
" style="fill:none;stroke:#1f77b4;stroke-linecap:square;stroke-width:0.5;"/>
   </g>
   <g id="line2d_34">
    <path clip-path="url(#p1d86382e15)" d="M 115.363636 68.106844 
L 116.068182 72.562843 
L 116.772727 70.013302 
L 117.477273 78.553972 
L 118.181818 80.252843 
L 118.886364 79.193797 
L 120.295455 84.773925 
L 121 83.291989 
L 121.704545 84.888862 
L 122.409091 87.370487 
L 123.113636 85.922676 
L 123.818182 89.944784 
L 124.522727 91.441592 
L 125.227273 91.910269 
L 125.931818 92.865023 
L 126.636364 93.054454 
L 127.340909 94.381816 
L 128.045455 97.824345 
L 128.75 99.447063 
L 129.454545 100.3173 
L 130.159091 103.382509 
L 130.863636 105.033369 
L 131.568182 110.747374 
L 132.272727 112.009274 
L 132.977273 112.52174 
L 133.681818 117.589225 
L 134.386364 121.373213 
L 135.090909 125.951261 
L 135.795455 128.669768 
L 136.5 132.820182 
L 137.204545 136.156623 
L 138.613636 144.535109 
L 139.318182 150.764546 
L 140.022727 154.446008 
L 140.727273 156.283389 
L 141.431818 164.290226 
L 142.136364 164.573193 
L 142.840909 167.329809 
L 143.545455 171.796103 
L 144.25 171.898268 
L 144.954545 177.382198 
L 145.659091 179.605129 
L 147.068182 184.898066 
L 147.772727 185.404892 
L 148.477273 189.927619 
L 149.181818 190.706807 
L 149.886364 190.781022 
L 150.590909 192.502941 
L 152 197.763627 
L 152.704545 200.190093 
L 153.409091 200.385307 
L 154.113636 202.371879 
L 154.818182 203.554127 
L 155.522727 205.173306 
L 156.227273 205.947364 
L 156.931818 209.130696 
L 157.636364 208.056321 
L 158.340909 212.225038 
L 159.045455 209.986119 
L 159.75 211.643941 
L 160.454545 211.291789 
L 161.159091 214.218188 
L 161.863636 218.462982 
L 162.568182 215.408708 
L 163.272727 216.561179 
L 163.977273 218.214359 
L 164.681818 219.284997 
L 165.386364 217.784687 
L 166.090909 223.64065 
L 166.795455 221.965505 
L 167.5 221.701631 
L 168.204545 225.780036 
L 168.909091 223.680226 
L 169.613636 226.020461 
L 170.318182 226.12862 
L 171.022727 227.033055 
L 171.727273 228.589696 
L 172.431818 229.486596 
L 173.136364 229.773965 
L 173.840909 231.429895 
L 174.545455 232.304498 
L 175.25 230.994965 
L 175.954545 232.736336 
L 176.659091 231.509174 
L 178.068182 233.907339 
L 178.772727 233.847319 
L 181.590909 237.320422 
L 182.295455 235.583559 
L 183 239.741516 
L 183.704545 238.408864 
L 184.409091 240.063099 
L 185.113636 239.296922 
L 185.818182 241.250349 
L 186.522727 239.89354 
L 187.227273 241.914926 
L 188.636364 243.107705 
L 190.045455 241.813744 
L 190.75 243.320064 
L 191.454545 244.16569 
L 192.159091 244.189187 
L 192.863636 245.389801 
L 193.568182 243.625159 
L 194.272727 244.03794 
L 194.977273 246.46392 
L 195.681818 246.951468 
L 196.386364 247.133345 
L 197.090909 245.970221 
L 197.795455 246.548751 
L 198.5 249.056063 
L 199.204545 247.034446 
L 199.909091 251.031555 
L 200.613636 250.44076 
L 201.318182 248.693681 
L 202.022727 249.876212 
L 202.727273 248.837355 
L 203.431818 249.949313 
L 204.136364 248.668706 
L 204.840909 250.504592 
L 205.545455 250.943071 
L 206.25 252.711475 
L 206.954545 252.297689 
L 207.659091 251.674124 
L 208.363636 252.87436 
L 209.068182 252.402681 
L 209.772727 252.136382 
L 210.477273 254.560462 
L 211.181818 252.656536 
L 211.886364 255.014903 
L 212.590909 255.191573 
L 213.295455 254.508407 
L 214 254.365269 
L 214.704545 252.470062 
L 215.409091 255.052766 
L 216.113636 253.7666 
L 216.818182 255.992859 
L 217.522727 257.391608 
L 218.227273 255.3936 
L 218.931818 255.740162 
L 219.636364 257.800235 
L 220.340909 257.373823 
L 221.75 257.520315 
L 222.454545 256.485896 
L 223.159091 260.105357 
L 223.863636 258.919868 
L 224.568182 258.028591 
L 225.272727 256.46955 
L 225.977273 259.406337 
L 226.681818 258.228486 
L 227.386364 257.87721 
L 228.090909 257.771646 
L 228.795455 259.729563 
L 229.5 259.366556 
L 230.204545 259.266207 
L 230.909091 259.770101 
L 231.613636 259.294593 
L 232.318182 261.908465 
L 233.022727 259.675809 
L 233.727273 260.964566 
L 234.431818 258.209123 
L 235.136364 260.836205 
L 235.840909 261.91842 
L 236.545455 260.480448 
L 237.25 261.812707 
L 237.954545 261.45451 
L 238.659091 262.150113 
L 239.363636 263.662501 
L 240.068182 261.030395 
L 240.772727 262.179063 
L 241.477273 263.038365 
L 242.181818 260.679098 
L 242.886364 264.934136 
L 243.590909 265.529768 
L 244.295455 265.332999 
L 245 264.003877 
L 246.409091 263.323857 
L 247.113636 264.292252 
L 247.818182 264.233234 
L 248.522727 263.19381 
L 249.227273 265.245572 
L 249.931818 264.305162 
L 250.636364 265.230578 
L 251.340909 264.843394 
L 252.045455 267.180546 
L 252.75 265.223204 
L 253.454545 266.383697 
L 254.159091 264.360155 
L 254.863636 267.131327 
L 255.568182 265.372586 
L 256.272727 267.386888 
L 256.977273 268.456795 
L 257.681818 266.343553 
L 258.386364 266.070738 
L 259.090909 267.444182 
L 259.795455 266.133852 
L 260.5 265.977671 
L 261.204545 266.802202 
L 261.909091 267.95031 
L 262.613636 267.919603 
L 263.318182 268.110392 
L 264.022727 265.687777 
L 264.727273 266.837726 
L 265.431818 266.978491 
L 266.136364 266.841916 
L 266.840909 265.024823 
L 268.25 267.036204 
L 268.954545 266.446049 
L 269.659091 266.80466 
L 270.363636 265.364739 
L 271.068182 266.389224 
L 271.772727 269.579974 
L 272.477273 267.523267 
L 273.181818 267.631937 
L 273.886364 267.410307 
L 274.590909 271.360165 
L 275.295455 268.096669 
L 276 268.383751 
L 277.409091 267.465385 
L 278.113636 269.740116 
L 278.818182 268.219459 
L 279.522727 267.51437 
L 280.227273 269.709742 
L 280.931818 268.020407 
L 281.636364 269.360481 
L 282.340909 268.924279 
L 283.045455 269.328556 
L 283.75 268.864136 
L 284.454545 271.078885 
L 285.159091 267.861855 
L 285.863636 269.340089 
L 286.568182 269.916877 
L 287.272727 268.163027 
L 287.977273 268.815941 
L 288.681818 271.023611 
L 289.386364 269.633537 
L 290.090909 271.142357 
L 290.795455 269.22859 
L 291.5 270.184277 
L 292.204545 268.982812 
L 292.909091 268.470412 
L 294.318182 271.698998 
L 295.022727 269.254003 
L 295.727273 270.755419 
L 296.431818 270.590786 
L 297.136364 271.73167 
L 297.840909 271.235006 
L 298.545455 271.188391 
L 299.25 270.316432 
L 299.954545 269.940757 
L 300.659091 271.151026 
L 301.363636 269.502342 
L 302.068182 269.426587 
L 304.181818 271.305156 
L 304.886364 272.29686 
L 305.590909 272.152262 
L 306.295455 269.311817 
L 307 271.091833 
L 307.704545 272.388704 
L 308.409091 272.590048 
L 309.113636 269.729962 
L 309.818182 272.700622 
L 310.522727 270.954553 
L 311.227273 270.569696 
L 312.636364 272.109172 
L 313.340909 273.699597 
L 314.75 271.682497 
L 315.454545 273.783478 
L 316.159091 273.796154 
L 316.863636 270.819064 
L 317.568182 271.886677 
L 318.272727 271.065078 
L 318.977273 270.806175 
L 319.681818 272.527119 
L 320.386364 272.853955 
L 321.090909 271.542221 
L 321.795455 273.733882 
L 322.5 274.364271 
L 323.204545 268.527578 
L 323.909091 271.455104 
L 324.613636 273.394184 
L 325.318182 273.623885 
L 326.022727 271.892878 
L 326.727273 272.728858 
L 327.431818 270.526422 
L 328.136364 270.787101 
L 328.840909 272.341827 
L 329.545455 272.291099 
L 330.25 274.505286 
L 330.954545 271.967362 
L 331.659091 272.520073 
L 332.363636 271.140846 
L 333.068182 272.976691 
L 333.772727 272.542574 
L 334.477273 271.854948 
L 335.181818 274.035841 
L 335.886364 272.90699 
L 336.590909 273.039134 
L 337.295455 272.615173 
L 338 271.558958 
L 338.704545 272.233645 
L 339.409091 274.255619 
L 340.113636 273.912016 
L 340.818182 271.09582 
L 341.522727 271.880557 
L 342.227273 272.250005 
L 342.931818 274.027316 
L 343.636364 272.96263 
L 344.340909 276.380901 
L 345.045455 274.826453 
L 345.75 274.428729 
L 346.454545 271.287219 
L 347.159091 271.054339 
L 347.863636 268.329349 
L 348.568182 271.814981 
L 349.272727 274.025619 
L 349.977273 274.868834 
L 350.681818 273.884678 
L 351.386364 274.694025 
L 352.090909 272.361027 
L 352.795455 274.274241 
L 353.5 273.857405 
L 354.204545 274.444123 
L 355.613636 271.376884 
L 356.318182 271.915473 
L 357.022727 273.853863 
L 357.727273 273.963168 
L 358.431818 274.785525 
L 359.136364 272.152892 
L 359.840909 273.481123 
L 360.545455 272.763981 
L 361.25 274.264607 
L 361.954545 274.820649 
L 362.659091 274.74254 
L 363.363636 273.801456 
L 364.068182 272.09551 
L 364.772727 273.67388 
L 365.477273 274.423981 
L 366.181818 272.969168 
L 366.886364 274.964062 
L 367.590909 273.604779 
L 368.295455 273.256326 
L 369 275.237079 
L 369.704545 274.235738 
L 370.409091 275.946397 
L 371.113636 273.33582 
L 371.818182 275.41787 
L 372.522727 274.487366 
L 373.227273 272.852552 
L 373.931818 272.643491 
L 374.636364 273.675216 
L 375.340909 273.923985 
L 376.045455 269.138059 
L 376.75 272.182198 
L 377.454545 274.006929 
L 378.159091 273.661537 
L 378.863636 274.432771 
L 380.272727 271.906879 
L 380.977273 273.829785 
L 381.681818 270.889051 
L 382.386364 273.755354 
L 383.090909 272.88323 
L 383.795455 275.254665 
L 384.5 274.931364 
L 385.204545 271.541291 
L 385.909091 271.121575 
L 386.613636 271.55498 
L 387.318182 272.978925 
L 388.022727 276.270572 
L 388.727273 273.427594 
L 389.431818 272.62854 
L 390.136364 274.571845 
L 390.840909 271.576902 
L 391.545455 272.774476 
L 392.25 272.908927 
L 392.954545 269.778984 
L 393.659091 273.794123 
L 394.363636 274.525206 
L 395.068182 274.137581 
L 395.772727 275.405843 
L 396.477273 273.877821 
L 397.181818 273.471965 
L 397.886364 274.488697 
L 398.590909 273.25914 
L 399.295455 272.350305 
L 400 275.500405 
L 400.704545 272.208142 
L 401.409091 270.055407 
L 402.113636 275.99671 
L 402.818182 271.873192 
L 403.522727 275.965798 
L 404.227273 272.491215 
L 404.931818 274.111261 
L 405.636364 275.135943 
L 406.340909 274.046378 
L 407.045455 274.961146 
L 407.75 271.413279 
L 408.454545 272.253119 
L 409.159091 274.481633 
L 409.863636 273.258791 
L 410.568182 272.298081 
L 411.272727 272.909912 
L 411.977273 270.882919 
L 412.681818 272.539248 
L 413.386364 274.505864 
L 414.090909 272.755766 
L 415.5 273.591156 
L 416.204545 273.284014 
L 416.909091 273.777316 
L 417.613636 275.338668 
L 418.318182 273.648635 
L 419.022727 273.516427 
L 419.727273 272.792004 
L 420.431818 273.056992 
L 421.136364 273.9103 
L 421.840909 275.979863 
L 423.25 271.619294 
L 423.954545 275.966464 
L 424.659091 273.919237 
L 425.363636 271.469142 
L 426.068182 273.388988 
L 426.772727 272.175406 
L 427.477273 273.524457 
L 428.181818 272.034823 
L 428.886364 274.112977 
L 429.590909 273.582678 
L 430.295455 272.190702 
L 431 273.149397 
L 431.704545 271.602742 
L 432.409091 274.373599 
L 433.113636 274.145585 
L 433.818182 270.362446 
L 435.227273 275.188331 
L 435.931818 273.258789 
L 436.636364 272.721199 
L 437.340909 272.031136 
L 438.045455 274.847987 
L 438.75 274.1446 
L 439.454545 273.243609 
L 440.159091 274.050344 
L 440.863636 273.406464 
L 441.568182 273.993941 
L 442.272727 272.06524 
L 442.977273 274.377077 
L 443.681818 274.19833 
L 444.386364 273.160515 
L 445.090909 273.170504 
L 445.795455 274.350985 
L 446.5 274.956216 
L 447.204545 273.331881 
L 447.909091 274.937315 
L 449.318182 273.708737 
L 450.022727 274.286928 
L 450.727273 272.619539 
L 451.431818 273.491623 
L 452.136364 275.370466 
L 452.840909 274.836363 
L 453.545455 273.949498 
L 454.25 273.703217 
L 454.954545 271.444157 
L 455.659091 272.369699 
L 456.363636 272.692394 
L 457.068182 273.597083 
L 457.772727 272.302793 
L 458.477273 272.064755 
L 459.181818 273.018461 
L 459.886364 269.20255 
L 460.590909 269.602326 
L 461.295455 272.424111 
L 462 273.746443 
L 462.704545 273.28463 
L 463.409091 272.152673 
L 464.113636 272.607437 
L 464.818182 271.139785 
L 465.522727 267.809588 
L 466.227273 273.312811 
L 466.931818 271.303132 
L 467.636364 272.852133 
L 468.340909 272.105266 
L 469.045455 274.47198 
L 469.75 273.509563 
L 470.454545 270.32503 
L 471.159091 273.981118 
L 471.863636 272.585881 
L 473.272727 274.096964 
L 473.977273 272.79298 
L 474.681818 273.397637 
L 475.386364 272.329267 
L 476.090909 273.049998 
L 476.795455 275.855719 
L 477.5 273.271654 
L 478.204545 271.703514 
L 478.909091 272.202426 
L 479.613636 269.356161 
L 480.318182 271.304162 
L 481.022727 275.375834 
L 481.727273 277.759243 
L 482.431818 272.64332 
L 483.136364 271.13364 
L 483.840909 272.085855 
L 484.545455 271.636255 
L 485.25 274.732045 
L 485.954545 273.424181 
L 486.659091 274.876103 
L 487.363636 271.516423 
L 488.068182 273.468214 
L 488.772727 272.031976 
L 489.477273 273.148045 
L 490.181818 273.362343 
L 490.886364 270.091048 
L 492.295455 275.495462 
L 493 273.11456 
L 493.704545 273.254447 
L 494.409091 270.698852 
L 495.113636 273.644464 
L 495.818182 272.619751 
L 496.522727 271.81485 
L 497.227273 275.301454 
L 497.931818 271.217959 
L 498.636364 272.111766 
L 499.340909 272.398178 
L 500.045455 273.306081 
L 500.75 271.324667 
L 502.159091 274.891098 
L 502.863636 272.123273 
L 503.568182 274.460578 
L 504.272727 270.455062 
L 504.977273 271.582411 
L 505.681818 275.180987 
L 506.386364 273.868215 
L 507.090909 271.491186 
L 507.795455 271.634645 
L 508.5 272.20188 
L 509.909091 270.249765 
L 510.613636 271.381325 
L 511.318182 270.785618 
L 512.022727 271.298864 
L 512.727273 270.767321 
L 513.431818 270.083964 
L 514.136364 270.907978 
L 514.840909 271.077509 
L 515.545455 272.089755 
L 516.25 271.346932 
L 516.954545 272.071113 
L 517.659091 271.680054 
L 518.363636 269.796731 
L 519.068182 273.799893 
L 519.772727 273.07737 
L 520.477273 274.855119 
L 521.181818 274.1352 
L 521.886364 272.802101 
L 522.590909 273.193883 
L 524 274.230096 
L 524.704545 273.079831 
L 525.409091 274.266523 
L 526.113636 271.442838 
L 526.818182 270.510884 
L 527.522727 272.552791 
L 528.227273 270.666596 
L 528.931818 273.968523 
L 529.636364 271.706593 
L 530.340909 273.327716 
L 531.045455 271.904018 
L 531.75 271.941689 
L 532.454545 270.652387 
L 533.159091 271.343992 
L 533.863636 272.454804 
L 534.568182 272.326047 
L 535.272727 275.582146 
L 535.977273 272.896556 
L 536.681818 274.305903 
L 537.386364 271.522581 
L 538.090909 271.756844 
L 538.795455 273.87461 
L 539.5 271.176289 
L 540.204545 273.006483 
L 540.909091 272.04174 
L 541.613636 271.429628 
L 542.318182 267.788077 
L 543.022727 272.566107 
L 543.727273 271.806075 
L 544.431818 271.985673 
L 545.136364 271.84636 
L 545.840909 272.320614 
L 546.545455 273.050999 
L 547.25 269.598479 
L 547.954545 273.156405 
L 548.659091 269.321809 
L 549.363636 271.473847 
L 550.068182 271.275037 
L 550.772727 272.322075 
L 551.477273 274.512584 
L 552.181818 272.181661 
L 552.886364 270.456829 
L 553.590909 272.339501 
L 554.295455 270.487369 
L 555 273.253921 
L 555.704545 269.782232 
L 556.409091 270.183286 
L 557.113636 271.748789 
L 557.818182 271.500178 
L 558.522727 268.156215 
L 559.227273 269.658874 
L 559.931818 271.573001 
L 560.636364 271.6642 
L 562.045455 268.173082 
L 562.75 272.107951 
L 563.454545 270.15761 
L 564.159091 271.12952 
L 564.863636 271.093073 
L 565.568182 268.130039 
L 566.272727 269.775435 
L 566.977273 270.466972 
L 567.681818 267.718454 
L 568.386364 270.933273 
L 569.090909 271.972881 
L 569.795455 268.463912 
L 570.5 270.860055 
L 571.204545 272.445865 
L 571.909091 271.191658 
L 572.613636 271.53294 
L 573.318182 273.324888 
L 574.022727 268.95173 
L 574.727273 271.661297 
L 575.431818 272.020447 
L 576.136364 271.494015 
L 576.840909 270.67173 
L 577.545455 273.990886 
L 578.25 273.199379 
L 578.954545 271.241156 
L 579.659091 271.220494 
L 580.363636 270.960741 
L 581.068182 271.903603 
L 581.772727 270.490337 
L 582.477273 269.625843 
L 583.181818 272.263865 
L 583.886364 271.326071 
L 584.590909 272.786056 
L 585.295455 267.902524 
L 586 271.32658 
L 586.704545 266.861182 
L 587.409091 271.496165 
L 588.113636 270.606457 
L 588.818182 270.461939 
L 589.522727 272.259106 
L 590.227273 271.268302 
L 590.931818 272.99304 
L 591.636364 269.542049 
L 592.340909 274.025545 
L 593.045455 269.272771 
L 593.75 274.019238 
L 594.454545 272.336731 
L 595.159091 270.177018 
L 595.863636 270.486763 
L 596.568182 269.192853 
L 597.272727 272.934468 
L 597.977273 272.089143 
L 598.681818 272.814411 
L 599.386364 274.562236 
L 600.090909 272.32151 
L 600.795455 269.551451 
L 601.5 270.402075 
L 602.204545 269.216754 
L 602.909091 274.027503 
L 603.613636 269.171704 
L 604.318182 270.460207 
L 605.022727 271.476023 
L 605.727273 271.256308 
L 606.431818 267.183647 
L 607.136364 273.716099 
L 607.840909 273.204567 
L 608.545455 271.111972 
L 609.954545 269.839833 
L 610.659091 270.792184 
L 611.363636 273.213419 
L 612.068182 271.418197 
L 612.772727 270.744181 
L 613.477273 272.357759 
L 614.181818 272.607176 
L 614.886364 269.831552 
L 615.590909 273.59811 
L 616.295455 270.844965 
L 617 273.2725 
L 618.409091 269.694461 
L 619.113636 270.747401 
L 619.818182 270.227137 
L 620.522727 270.362603 
L 621.227273 268.21134 
L 621.931818 268.809178 
L 622.636364 268.028855 
L 622.636364 268.028855 
" style="fill:none;stroke:#ff7f0e;stroke-linecap:square;stroke-width:0.5;"/>
   </g>
   <g id="patch_3">
    <path d="M 90 315 
L 90 43.2 
" style="fill:none;stroke:#000000;stroke-linecap:square;stroke-linejoin:miter;stroke-width:0.8;"/>
   </g>
   <g id="patch_4">
    <path d="M 648 315 
L 648 43.2 
" style="fill:none;stroke:#000000;stroke-linecap:square;stroke-linejoin:miter;stroke-width:0.8;"/>
   </g>
   <g id="patch_5">
    <path d="M 90 315 
L 648 315 
" style="fill:none;stroke:#000000;stroke-linecap:square;stroke-linejoin:miter;stroke-width:0.8;"/>
   </g>
   <g id="patch_6">
    <path d="M 90 43.2 
L 648 43.2 
" style="fill:none;stroke:#000000;stroke-linecap:square;stroke-linejoin:miter;stroke-width:0.8;"/>
   </g>
   <g id="text_19">
    <!-- loss -->
    <g transform="translate(357.410625 37.2)scale(0.12 -0.12)">
     <use xlink:href="#DejaVuSans-108"/>
     <use x="27.783203" xlink:href="#DejaVuSans-111"/>
     <use x="88.964844" xlink:href="#DejaVuSans-115"/>
     <use x="141.064453" xlink:href="#DejaVuSans-115"/>
    </g>
   </g>
   <g id="legend_1">
    <g id="patch_7">
     <path d="M 568.846875 80.55625 
L 641 80.55625 
Q 643 80.55625 643 78.55625 
L 643 50.2 
Q 643 48.2 641 48.2 
L 568.846875 48.2 
Q 566.846875 48.2 566.846875 50.2 
L 566.846875 78.55625 
Q 566.846875 80.55625 568.846875 80.55625 
z
" style="fill:#ffffff;opacity:0.8;stroke:#cccccc;stroke-linejoin:miter;"/>
    </g>
    <g id="line2d_35">
     <path d="M 570.846875 56.298437 
L 590.846875 56.298437 
" style="fill:none;stroke:#1f77b4;stroke-linecap:square;stroke-width:0.5;"/>
    </g>
    <g id="line2d_36"/>
    <g id="text_20">
     <!-- train -->
     <defs>
      <path d="M 18.3125 70.21875 
L 18.3125 54.6875 
L 36.8125 54.6875 
L 36.8125 47.703125 
L 18.3125 47.703125 
L 18.3125 18.015625 
Q 18.3125 11.328125 20.140625 9.421875 
Q 21.96875 7.515625 27.59375 7.515625 
L 36.8125 7.515625 
L 36.8125 0 
L 27.59375 0 
Q 17.1875 0 13.234375 3.875 
Q 9.28125 7.765625 9.28125 18.015625 
L 9.28125 47.703125 
L 2.6875 47.703125 
L 2.6875 54.6875 
L 9.28125 54.6875 
L 9.28125 70.21875 
z
" id="DejaVuSans-116"/>
      <path d="M 41.109375 46.296875 
Q 39.59375 47.171875 37.8125 47.578125 
Q 36.03125 48 33.890625 48 
Q 26.265625 48 22.1875 43.046875 
Q 18.109375 38.09375 18.109375 28.8125 
L 18.109375 0 
L 9.078125 0 
L 9.078125 54.6875 
L 18.109375 54.6875 
L 18.109375 46.1875 
Q 20.953125 51.171875 25.484375 53.578125 
Q 30.03125 56 36.53125 56 
Q 37.453125 56 38.578125 55.875 
Q 39.703125 55.765625 41.0625 55.515625 
z
" id="DejaVuSans-114"/>
      <path d="M 34.28125 27.484375 
Q 23.390625 27.484375 19.1875 25 
Q 14.984375 22.515625 14.984375 16.5 
Q 14.984375 11.71875 18.140625 8.90625 
Q 21.296875 6.109375 26.703125 6.109375 
Q 34.1875 6.109375 38.703125 11.40625 
Q 43.21875 16.703125 43.21875 25.484375 
L 43.21875 27.484375 
z
M 52.203125 31.203125 
L 52.203125 0 
L 43.21875 0 
L 43.21875 8.296875 
Q 40.140625 3.328125 35.546875 0.953125 
Q 30.953125 -1.421875 24.3125 -1.421875 
Q 15.921875 -1.421875 10.953125 3.296875 
Q 6 8.015625 6 15.921875 
Q 6 25.140625 12.171875 29.828125 
Q 18.359375 34.515625 30.609375 34.515625 
L 43.21875 34.515625 
L 43.21875 35.40625 
Q 43.21875 41.609375 39.140625 45 
Q 35.0625 48.390625 27.6875 48.390625 
Q 23 48.390625 18.546875 47.265625 
Q 14.109375 46.140625 10.015625 43.890625 
L 10.015625 52.203125 
Q 14.9375 54.109375 19.578125 55.046875 
Q 24.21875 56 28.609375 56 
Q 40.484375 56 46.34375 49.84375 
Q 52.203125 43.703125 52.203125 31.203125 
z
" id="DejaVuSans-97"/>
      <path d="M 9.421875 54.6875 
L 18.40625 54.6875 
L 18.40625 0 
L 9.421875 0 
z
M 9.421875 75.984375 
L 18.40625 75.984375 
L 18.40625 64.59375 
L 9.421875 64.59375 
z
" id="DejaVuSans-105"/>
      <path d="M 54.890625 33.015625 
L 54.890625 0 
L 45.90625 0 
L 45.90625 32.71875 
Q 45.90625 40.484375 42.875 44.328125 
Q 39.84375 48.1875 33.796875 48.1875 
Q 26.515625 48.1875 22.3125 43.546875 
Q 18.109375 38.921875 18.109375 30.90625 
L 18.109375 0 
L 9.078125 0 
L 9.078125 54.6875 
L 18.109375 54.6875 
L 18.109375 46.1875 
Q 21.34375 51.125 25.703125 53.5625 
Q 30.078125 56 35.796875 56 
Q 45.21875 56 50.046875 50.171875 
Q 54.890625 44.34375 54.890625 33.015625 
z
" id="DejaVuSans-110"/>
     </defs>
     <g transform="translate(598.846875 59.798437)scale(0.1 -0.1)">
      <use xlink:href="#DejaVuSans-116"/>
      <use x="39.208984" xlink:href="#DejaVuSans-114"/>
      <use x="80.322266" xlink:href="#DejaVuSans-97"/>
      <use x="141.601562" xlink:href="#DejaVuSans-105"/>
      <use x="169.384766" xlink:href="#DejaVuSans-110"/>
     </g>
    </g>
    <g id="line2d_37">
     <path d="M 570.846875 70.976562 
L 590.846875 70.976562 
" style="fill:none;stroke:#ff7f0e;stroke-linecap:square;stroke-width:0.5;"/>
    </g>
    <g id="line2d_38"/>
    <g id="text_21">
     <!-- validate -->
     <defs>
      <path d="M 2.984375 54.6875 
L 12.5 54.6875 
L 29.59375 8.796875 
L 46.6875 54.6875 
L 56.203125 54.6875 
L 35.6875 0 
L 23.484375 0 
z
" id="DejaVuSans-118"/>
      <path d="M 45.40625 46.390625 
L 45.40625 75.984375 
L 54.390625 75.984375 
L 54.390625 0 
L 45.40625 0 
L 45.40625 8.203125 
Q 42.578125 3.328125 38.25 0.953125 
Q 33.9375 -1.421875 27.875 -1.421875 
Q 17.96875 -1.421875 11.734375 6.484375 
Q 5.515625 14.40625 5.515625 27.296875 
Q 5.515625 40.1875 11.734375 48.09375 
Q 17.96875 56 27.875 56 
Q 33.9375 56 38.25 53.625 
Q 42.578125 51.265625 45.40625 46.390625 
z
M 14.796875 27.296875 
Q 14.796875 17.390625 18.875 11.75 
Q 22.953125 6.109375 30.078125 6.109375 
Q 37.203125 6.109375 41.296875 11.75 
Q 45.40625 17.390625 45.40625 27.296875 
Q 45.40625 37.203125 41.296875 42.84375 
Q 37.203125 48.484375 30.078125 48.484375 
Q 22.953125 48.484375 18.875 42.84375 
Q 14.796875 37.203125 14.796875 27.296875 
z
" id="DejaVuSans-100"/>
     </defs>
     <g transform="translate(598.846875 74.476562)scale(0.1 -0.1)">
      <use xlink:href="#DejaVuSans-118"/>
      <use x="59.179688" xlink:href="#DejaVuSans-97"/>
      <use x="120.458984" xlink:href="#DejaVuSans-108"/>
      <use x="148.242188" xlink:href="#DejaVuSans-105"/>
      <use x="176.025391" xlink:href="#DejaVuSans-100"/>
      <use x="239.501953" xlink:href="#DejaVuSans-97"/>
      <use x="300.78125" xlink:href="#DejaVuSans-116"/>
      <use x="339.990234" xlink:href="#DejaVuSans-101"/>
     </g>
    </g>
   </g>
  </g>
 </g>
 <defs>
  <clipPath id="p1d86382e15">
   <rect height="271.8" width="558" x="90" y="43.2"/>
  </clipPath>
 </defs>
</svg>
