<?xml version="1.0" encoding="utf-8" standalone="no"?>
<!DOCTYPE svg PUBLIC "-//W3C//DTD SVG 1.1//EN"
  "http://www.w3.org/Graphics/SVG/1.1/DTD/svg11.dtd">
<!-- Created with matplotlib (https://matplotlib.org/) -->
<svg height="360pt" version="1.1" viewBox="0 0 720 360" width="720pt" xmlns="http://www.w3.org/2000/svg" xmlns:xlink="http://www.w3.org/1999/xlink">
 <defs>
  <style type="text/css">
*{stroke-linecap:butt;stroke-linejoin:round;}
  </style>
 </defs>
 <g id="figure_1">
  <g id="patch_1">
   <path d="M 0 360 
L 720 360 
L 720 0 
L 0 0 
z
" style="fill:#ffffff;"/>
  </g>
  <g id="axes_1">
   <g id="patch_2">
    <path d="M 90 315 
L 648 315 
L 648 43.2 
L 90 43.2 
z
" style="fill:#ffffff;"/>
   </g>
   <g id="matplotlib.axis_1">
    <g id="xtick_1">
     <g id="line2d_1">
      <path clip-path="url(#p3983bcfad1)" d="M 115.363636 315 
L 115.363636 43.2 
" style="fill:none;stroke:#b0b0b0;stroke-linecap:square;stroke-width:0.8;"/>
     </g>
     <g id="line2d_2">
      <defs>
       <path d="M 0 0 
L 0 3.5 
" id="md6b9c6c17a" style="stroke:#000000;stroke-width:0.8;"/>
      </defs>
      <g>
       <use style="stroke:#000000;stroke-width:0.8;" x="115.363636" xlink:href="#md6b9c6c17a" y="315"/>
      </g>
     </g>
     <g id="text_1">
      <!-- 0 -->
      <defs>
       <path d="M 31.78125 66.40625 
Q 24.171875 66.40625 20.328125 58.90625 
Q 16.5 51.421875 16.5 36.375 
Q 16.5 21.390625 20.328125 13.890625 
Q 24.171875 6.390625 31.78125 6.390625 
Q 39.453125 6.390625 43.28125 13.890625 
Q 47.125 21.390625 47.125 36.375 
Q 47.125 51.421875 43.28125 58.90625 
Q 39.453125 66.40625 31.78125 66.40625 
z
M 31.78125 74.21875 
Q 44.046875 74.21875 50.515625 64.515625 
Q 56.984375 54.828125 56.984375 36.375 
Q 56.984375 17.96875 50.515625 8.265625 
Q 44.046875 -1.421875 31.78125 -1.421875 
Q 19.53125 -1.421875 13.0625 8.265625 
Q 6.59375 17.96875 6.59375 36.375 
Q 6.59375 54.828125 13.0625 64.515625 
Q 19.53125 74.21875 31.78125 74.21875 
z
" id="DejaVuSans-48"/>
      </defs>
      <g transform="translate(112.182386 329.598437)scale(0.1 -0.1)">
       <use xlink:href="#DejaVuSans-48"/>
      </g>
     </g>
    </g>
    <g id="xtick_2">
     <g id="line2d_3">
      <path clip-path="url(#p3983bcfad1)" d="M 197.646317 315 
L 197.646317 43.2 
" style="fill:none;stroke:#b0b0b0;stroke-linecap:square;stroke-width:0.8;"/>
     </g>
     <g id="line2d_4">
      <g>
       <use style="stroke:#000000;stroke-width:0.8;" x="197.646317" xlink:href="#md6b9c6c17a" y="315"/>
      </g>
     </g>
     <g id="text_2">
      <!-- 200 -->
      <defs>
       <path d="M 19.1875 8.296875 
L 53.609375 8.296875 
L 53.609375 0 
L 7.328125 0 
L 7.328125 8.296875 
Q 12.9375 14.109375 22.625 23.890625 
Q 32.328125 33.6875 34.8125 36.53125 
Q 39.546875 41.84375 41.421875 45.53125 
Q 43.3125 49.21875 43.3125 52.78125 
Q 43.3125 58.59375 39.234375 62.25 
Q 35.15625 65.921875 28.609375 65.921875 
Q 23.96875 65.921875 18.8125 64.3125 
Q 13.671875 62.703125 7.8125 59.421875 
L 7.8125 69.390625 
Q 13.765625 71.78125 18.9375 73 
Q 24.125 74.21875 28.421875 74.21875 
Q 39.75 74.21875 46.484375 68.546875 
Q 53.21875 62.890625 53.21875 53.421875 
Q 53.21875 48.921875 51.53125 44.890625 
Q 49.859375 40.875 45.40625 35.40625 
Q 44.1875 33.984375 37.640625 27.21875 
Q 31.109375 20.453125 19.1875 8.296875 
z
" id="DejaVuSans-50"/>
      </defs>
      <g transform="translate(188.102567 329.598437)scale(0.1 -0.1)">
       <use xlink:href="#DejaVuSans-50"/>
       <use x="63.623047" xlink:href="#DejaVuSans-48"/>
       <use x="127.246094" xlink:href="#DejaVuSans-48"/>
      </g>
     </g>
    </g>
    <g id="xtick_3">
     <g id="line2d_5">
      <path clip-path="url(#p3983bcfad1)" d="M 279.928998 315 
L 279.928998 43.2 
" style="fill:none;stroke:#b0b0b0;stroke-linecap:square;stroke-width:0.8;"/>
     </g>
     <g id="line2d_6">
      <g>
       <use style="stroke:#000000;stroke-width:0.8;" x="279.928998" xlink:href="#md6b9c6c17a" y="315"/>
      </g>
     </g>
     <g id="text_3">
      <!-- 400 -->
      <defs>
       <path d="M 37.796875 64.3125 
L 12.890625 25.390625 
L 37.796875 25.390625 
z
M 35.203125 72.90625 
L 47.609375 72.90625 
L 47.609375 25.390625 
L 58.015625 25.390625 
L 58.015625 17.1875 
L 47.609375 17.1875 
L 47.609375 0 
L 37.796875 0 
L 37.796875 17.1875 
L 4.890625 17.1875 
L 4.890625 26.703125 
z
" id="DejaVuSans-52"/>
      </defs>
      <g transform="translate(270.385248 329.598437)scale(0.1 -0.1)">
       <use xlink:href="#DejaVuSans-52"/>
       <use x="63.623047" xlink:href="#DejaVuSans-48"/>
       <use x="127.246094" xlink:href="#DejaVuSans-48"/>
      </g>
     </g>
    </g>
    <g id="xtick_4">
     <g id="line2d_7">
      <path clip-path="url(#p3983bcfad1)" d="M 362.211679 315 
L 362.211679 43.2 
" style="fill:none;stroke:#b0b0b0;stroke-linecap:square;stroke-width:0.8;"/>
     </g>
     <g id="line2d_8">
      <g>
       <use style="stroke:#000000;stroke-width:0.8;" x="362.211679" xlink:href="#md6b9c6c17a" y="315"/>
      </g>
     </g>
     <g id="text_4">
      <!-- 600 -->
      <defs>
       <path d="M 33.015625 40.375 
Q 26.375 40.375 22.484375 35.828125 
Q 18.609375 31.296875 18.609375 23.390625 
Q 18.609375 15.53125 22.484375 10.953125 
Q 26.375 6.390625 33.015625 6.390625 
Q 39.65625 6.390625 43.53125 10.953125 
Q 47.40625 15.53125 47.40625 23.390625 
Q 47.40625 31.296875 43.53125 35.828125 
Q 39.65625 40.375 33.015625 40.375 
z
M 52.59375 71.296875 
L 52.59375 62.3125 
Q 48.875 64.0625 45.09375 64.984375 
Q 41.3125 65.921875 37.59375 65.921875 
Q 27.828125 65.921875 22.671875 59.328125 
Q 17.53125 52.734375 16.796875 39.40625 
Q 19.671875 43.65625 24.015625 45.921875 
Q 28.375 48.1875 33.59375 48.1875 
Q 44.578125 48.1875 50.953125 41.515625 
Q 57.328125 34.859375 57.328125 23.390625 
Q 57.328125 12.15625 50.6875 5.359375 
Q 44.046875 -1.421875 33.015625 -1.421875 
Q 20.359375 -1.421875 13.671875 8.265625 
Q 6.984375 17.96875 6.984375 36.375 
Q 6.984375 53.65625 15.1875 63.9375 
Q 23.390625 74.21875 37.203125 74.21875 
Q 40.921875 74.21875 44.703125 73.484375 
Q 48.484375 72.75 52.59375 71.296875 
z
" id="DejaVuSans-54"/>
      </defs>
      <g transform="translate(352.667929 329.598437)scale(0.1 -0.1)">
       <use xlink:href="#DejaVuSans-54"/>
       <use x="63.623047" xlink:href="#DejaVuSans-48"/>
       <use x="127.246094" xlink:href="#DejaVuSans-48"/>
      </g>
     </g>
    </g>
    <g id="xtick_5">
     <g id="line2d_9">
      <path clip-path="url(#p3983bcfad1)" d="M 444.49436 315 
L 444.49436 43.2 
" style="fill:none;stroke:#b0b0b0;stroke-linecap:square;stroke-width:0.8;"/>
     </g>
     <g id="line2d_10">
      <g>
       <use style="stroke:#000000;stroke-width:0.8;" x="444.49436" xlink:href="#md6b9c6c17a" y="315"/>
      </g>
     </g>
     <g id="text_5">
      <!-- 800 -->
      <defs>
       <path d="M 31.78125 34.625 
Q 24.75 34.625 20.71875 30.859375 
Q 16.703125 27.09375 16.703125 20.515625 
Q 16.703125 13.921875 20.71875 10.15625 
Q 24.75 6.390625 31.78125 6.390625 
Q 38.8125 6.390625 42.859375 10.171875 
Q 46.921875 13.96875 46.921875 20.515625 
Q 46.921875 27.09375 42.890625 30.859375 
Q 38.875 34.625 31.78125 34.625 
z
M 21.921875 38.8125 
Q 15.578125 40.375 12.03125 44.71875 
Q 8.5 49.078125 8.5 55.328125 
Q 8.5 64.0625 14.71875 69.140625 
Q 20.953125 74.21875 31.78125 74.21875 
Q 42.671875 74.21875 48.875 69.140625 
Q 55.078125 64.0625 55.078125 55.328125 
Q 55.078125 49.078125 51.53125 44.71875 
Q 48 40.375 41.703125 38.8125 
Q 48.828125 37.15625 52.796875 32.3125 
Q 56.78125 27.484375 56.78125 20.515625 
Q 56.78125 9.90625 50.3125 4.234375 
Q 43.84375 -1.421875 31.78125 -1.421875 
Q 19.734375 -1.421875 13.25 4.234375 
Q 6.78125 9.90625 6.78125 20.515625 
Q 6.78125 27.484375 10.78125 32.3125 
Q 14.796875 37.15625 21.921875 38.8125 
z
M 18.3125 54.390625 
Q 18.3125 48.734375 21.84375 45.5625 
Q 25.390625 42.390625 31.78125 42.390625 
Q 38.140625 42.390625 41.71875 45.5625 
Q 45.3125 48.734375 45.3125 54.390625 
Q 45.3125 60.0625 41.71875 63.234375 
Q 38.140625 66.40625 31.78125 66.40625 
Q 25.390625 66.40625 21.84375 63.234375 
Q 18.3125 60.0625 18.3125 54.390625 
z
" id="DejaVuSans-56"/>
      </defs>
      <g transform="translate(434.95061 329.598437)scale(0.1 -0.1)">
       <use xlink:href="#DejaVuSans-56"/>
       <use x="63.623047" xlink:href="#DejaVuSans-48"/>
       <use x="127.246094" xlink:href="#DejaVuSans-48"/>
      </g>
     </g>
    </g>
    <g id="xtick_6">
     <g id="line2d_11">
      <path clip-path="url(#p3983bcfad1)" d="M 526.77704 315 
L 526.77704 43.2 
" style="fill:none;stroke:#b0b0b0;stroke-linecap:square;stroke-width:0.8;"/>
     </g>
     <g id="line2d_12">
      <g>
       <use style="stroke:#000000;stroke-width:0.8;" x="526.77704" xlink:href="#md6b9c6c17a" y="315"/>
      </g>
     </g>
     <g id="text_6">
      <!-- 1000 -->
      <defs>
       <path d="M 12.40625 8.296875 
L 28.515625 8.296875 
L 28.515625 63.921875 
L 10.984375 60.40625 
L 10.984375 69.390625 
L 28.421875 72.90625 
L 38.28125 72.90625 
L 38.28125 8.296875 
L 54.390625 8.296875 
L 54.390625 0 
L 12.40625 0 
z
" id="DejaVuSans-49"/>
      </defs>
      <g transform="translate(514.05204 329.598437)scale(0.1 -0.1)">
       <use xlink:href="#DejaVuSans-49"/>
       <use x="63.623047" xlink:href="#DejaVuSans-48"/>
       <use x="127.246094" xlink:href="#DejaVuSans-48"/>
       <use x="190.869141" xlink:href="#DejaVuSans-48"/>
      </g>
     </g>
    </g>
    <g id="xtick_7">
     <g id="line2d_13">
      <path clip-path="url(#p3983bcfad1)" d="M 609.059721 315 
L 609.059721 43.2 
" style="fill:none;stroke:#b0b0b0;stroke-linecap:square;stroke-width:0.8;"/>
     </g>
     <g id="line2d_14">
      <g>
       <use style="stroke:#000000;stroke-width:0.8;" x="609.059721" xlink:href="#md6b9c6c17a" y="315"/>
      </g>
     </g>
     <g id="text_7">
      <!-- 1200 -->
      <g transform="translate(596.334721 329.598437)scale(0.1 -0.1)">
       <use xlink:href="#DejaVuSans-49"/>
       <use x="63.623047" xlink:href="#DejaVuSans-50"/>
       <use x="127.246094" xlink:href="#DejaVuSans-48"/>
       <use x="190.869141" xlink:href="#DejaVuSans-48"/>
      </g>
     </g>
    </g>
    <g id="text_8">
     <!-- epoch -->
     <defs>
      <path d="M 56.203125 29.59375 
L 56.203125 25.203125 
L 14.890625 25.203125 
Q 15.484375 15.921875 20.484375 11.0625 
Q 25.484375 6.203125 34.421875 6.203125 
Q 39.59375 6.203125 44.453125 7.46875 
Q 49.3125 8.734375 54.109375 11.28125 
L 54.109375 2.78125 
Q 49.265625 0.734375 44.1875 -0.34375 
Q 39.109375 -1.421875 33.890625 -1.421875 
Q 20.796875 -1.421875 13.15625 6.1875 
Q 5.515625 13.8125 5.515625 26.8125 
Q 5.515625 40.234375 12.765625 48.109375 
Q 20.015625 56 32.328125 56 
Q 43.359375 56 49.78125 48.890625 
Q 56.203125 41.796875 56.203125 29.59375 
z
M 47.21875 32.234375 
Q 47.125 39.59375 43.09375 43.984375 
Q 39.0625 48.390625 32.421875 48.390625 
Q 24.90625 48.390625 20.390625 44.140625 
Q 15.875 39.890625 15.1875 32.171875 
z
" id="DejaVuSans-101"/>
      <path d="M 18.109375 8.203125 
L 18.109375 -20.796875 
L 9.078125 -20.796875 
L 9.078125 54.6875 
L 18.109375 54.6875 
L 18.109375 46.390625 
Q 20.953125 51.265625 25.265625 53.625 
Q 29.59375 56 35.59375 56 
Q 45.5625 56 51.78125 48.09375 
Q 58.015625 40.1875 58.015625 27.296875 
Q 58.015625 14.40625 51.78125 6.484375 
Q 45.5625 -1.421875 35.59375 -1.421875 
Q 29.59375 -1.421875 25.265625 0.953125 
Q 20.953125 3.328125 18.109375 8.203125 
z
M 48.6875 27.296875 
Q 48.6875 37.203125 44.609375 42.84375 
Q 40.53125 48.484375 33.40625 48.484375 
Q 26.265625 48.484375 22.1875 42.84375 
Q 18.109375 37.203125 18.109375 27.296875 
Q 18.109375 17.390625 22.1875 11.75 
Q 26.265625 6.109375 33.40625 6.109375 
Q 40.53125 6.109375 44.609375 11.75 
Q 48.6875 17.390625 48.6875 27.296875 
z
" id="DejaVuSans-112"/>
      <path d="M 30.609375 48.390625 
Q 23.390625 48.390625 19.1875 42.75 
Q 14.984375 37.109375 14.984375 27.296875 
Q 14.984375 17.484375 19.15625 11.84375 
Q 23.34375 6.203125 30.609375 6.203125 
Q 37.796875 6.203125 41.984375 11.859375 
Q 46.1875 17.53125 46.1875 27.296875 
Q 46.1875 37.015625 41.984375 42.703125 
Q 37.796875 48.390625 30.609375 48.390625 
z
M 30.609375 56 
Q 42.328125 56 49.015625 48.375 
Q 55.71875 40.765625 55.71875 27.296875 
Q 55.71875 13.875 49.015625 6.21875 
Q 42.328125 -1.421875 30.609375 -1.421875 
Q 18.84375 -1.421875 12.171875 6.21875 
Q 5.515625 13.875 5.515625 27.296875 
Q 5.515625 40.765625 12.171875 48.375 
Q 18.84375 56 30.609375 56 
z
" id="DejaVuSans-111"/>
      <path d="M 48.78125 52.59375 
L 48.78125 44.1875 
Q 44.96875 46.296875 41.140625 47.34375 
Q 37.3125 48.390625 33.40625 48.390625 
Q 24.65625 48.390625 19.8125 42.84375 
Q 14.984375 37.3125 14.984375 27.296875 
Q 14.984375 17.28125 19.8125 11.734375 
Q 24.65625 6.203125 33.40625 6.203125 
Q 37.3125 6.203125 41.140625 7.25 
Q 44.96875 8.296875 48.78125 10.40625 
L 48.78125 2.09375 
Q 45.015625 0.34375 40.984375 -0.53125 
Q 36.96875 -1.421875 32.421875 -1.421875 
Q 20.0625 -1.421875 12.78125 6.34375 
Q 5.515625 14.109375 5.515625 27.296875 
Q 5.515625 40.671875 12.859375 48.328125 
Q 20.21875 56 33.015625 56 
Q 37.15625 56 41.109375 55.140625 
Q 45.0625 54.296875 48.78125 52.59375 
z
" id="DejaVuSans-99"/>
      <path d="M 54.890625 33.015625 
L 54.890625 0 
L 45.90625 0 
L 45.90625 32.71875 
Q 45.90625 40.484375 42.875 44.328125 
Q 39.84375 48.1875 33.796875 48.1875 
Q 26.515625 48.1875 22.3125 43.546875 
Q 18.109375 38.921875 18.109375 30.90625 
L 18.109375 0 
L 9.078125 0 
L 9.078125 75.984375 
L 18.109375 75.984375 
L 18.109375 46.1875 
Q 21.34375 51.125 25.703125 53.5625 
Q 30.078125 56 35.796875 56 
Q 45.21875 56 50.046875 50.171875 
Q 54.890625 44.34375 54.890625 33.015625 
z
" id="DejaVuSans-104"/>
     </defs>
     <g transform="translate(353.771875 343.276563)scale(0.1 -0.1)">
      <use xlink:href="#DejaVuSans-101"/>
      <use x="61.523438" xlink:href="#DejaVuSans-112"/>
      <use x="125" xlink:href="#DejaVuSans-111"/>
      <use x="186.181641" xlink:href="#DejaVuSans-99"/>
      <use x="241.162109" xlink:href="#DejaVuSans-104"/>
     </g>
    </g>
   </g>
   <g id="matplotlib.axis_2">
    <g id="ytick_1">
     <g id="line2d_15">
      <path clip-path="url(#p3983bcfad1)" d="M 90 283.782256 
L 648 283.782256 
" style="fill:none;stroke:#b0b0b0;stroke-linecap:square;stroke-width:0.8;"/>
     </g>
     <g id="line2d_16">
      <defs>
       <path d="M 0 0 
L -3.5 0 
" id="m54651031d5" style="stroke:#000000;stroke-width:0.8;"/>
      </defs>
      <g>
       <use style="stroke:#000000;stroke-width:0.8;" x="90" xlink:href="#m54651031d5" y="283.782256"/>
      </g>
     </g>
     <g id="text_9">
      <!-- 0.3 -->
      <defs>
       <path d="M 10.6875 12.40625 
L 21 12.40625 
L 21 0 
L 10.6875 0 
z
" id="DejaVuSans-46"/>
       <path d="M 40.578125 39.3125 
Q 47.65625 37.796875 51.625 33 
Q 55.609375 28.21875 55.609375 21.1875 
Q 55.609375 10.40625 48.1875 4.484375 
Q 40.765625 -1.421875 27.09375 -1.421875 
Q 22.515625 -1.421875 17.65625 -0.515625 
Q 12.796875 0.390625 7.625 2.203125 
L 7.625 11.71875 
Q 11.71875 9.328125 16.59375 8.109375 
Q 21.484375 6.890625 26.8125 6.890625 
Q 36.078125 6.890625 40.9375 10.546875 
Q 45.796875 14.203125 45.796875 21.1875 
Q 45.796875 27.640625 41.28125 31.265625 
Q 36.765625 34.90625 28.71875 34.90625 
L 20.21875 34.90625 
L 20.21875 43.015625 
L 29.109375 43.015625 
Q 36.375 43.015625 40.234375 45.921875 
Q 44.09375 48.828125 44.09375 54.296875 
Q 44.09375 59.90625 40.109375 62.90625 
Q 36.140625 65.921875 28.71875 65.921875 
Q 24.65625 65.921875 20.015625 65.03125 
Q 15.375 64.15625 9.8125 62.3125 
L 9.8125 71.09375 
Q 15.4375 72.65625 20.34375 73.4375 
Q 25.25 74.21875 29.59375 74.21875 
Q 40.828125 74.21875 47.359375 69.109375 
Q 53.90625 64.015625 53.90625 55.328125 
Q 53.90625 49.265625 50.4375 45.09375 
Q 46.96875 40.921875 40.578125 39.3125 
z
" id="DejaVuSans-51"/>
      </defs>
      <g transform="translate(67.096875 287.581475)scale(0.1 -0.1)">
       <use xlink:href="#DejaVuSans-48"/>
       <use x="63.623047" xlink:href="#DejaVuSans-46"/>
       <use x="95.410156" xlink:href="#DejaVuSans-51"/>
      </g>
     </g>
    </g>
    <g id="ytick_2">
     <g id="line2d_17">
      <path clip-path="url(#p3983bcfad1)" d="M 90 249.79451 
L 648 249.79451 
" style="fill:none;stroke:#b0b0b0;stroke-linecap:square;stroke-width:0.8;"/>
     </g>
     <g id="line2d_18">
      <g>
       <use style="stroke:#000000;stroke-width:0.8;" x="90" xlink:href="#m54651031d5" y="249.79451"/>
      </g>
     </g>
     <g id="text_10">
      <!-- 0.4 -->
      <g transform="translate(67.096875 253.593729)scale(0.1 -0.1)">
       <use xlink:href="#DejaVuSans-48"/>
       <use x="63.623047" xlink:href="#DejaVuSans-46"/>
       <use x="95.410156" xlink:href="#DejaVuSans-52"/>
      </g>
     </g>
    </g>
    <g id="ytick_3">
     <g id="line2d_19">
      <path clip-path="url(#p3983bcfad1)" d="M 90 215.806765 
L 648 215.806765 
" style="fill:none;stroke:#b0b0b0;stroke-linecap:square;stroke-width:0.8;"/>
     </g>
     <g id="line2d_20">
      <g>
       <use style="stroke:#000000;stroke-width:0.8;" x="90" xlink:href="#m54651031d5" y="215.806765"/>
      </g>
     </g>
     <g id="text_11">
      <!-- 0.5 -->
      <defs>
       <path d="M 10.796875 72.90625 
L 49.515625 72.90625 
L 49.515625 64.59375 
L 19.828125 64.59375 
L 19.828125 46.734375 
Q 21.96875 47.46875 24.109375 47.828125 
Q 26.265625 48.1875 28.421875 48.1875 
Q 40.625 48.1875 47.75 41.5 
Q 54.890625 34.8125 54.890625 23.390625 
Q 54.890625 11.625 47.5625 5.09375 
Q 40.234375 -1.421875 26.90625 -1.421875 
Q 22.3125 -1.421875 17.546875 -0.640625 
Q 12.796875 0.140625 7.71875 1.703125 
L 7.71875 11.625 
Q 12.109375 9.234375 16.796875 8.0625 
Q 21.484375 6.890625 26.703125 6.890625 
Q 35.15625 6.890625 40.078125 11.328125 
Q 45.015625 15.765625 45.015625 23.390625 
Q 45.015625 31 40.078125 35.4375 
Q 35.15625 39.890625 26.703125 39.890625 
Q 22.75 39.890625 18.8125 39.015625 
Q 14.890625 38.140625 10.796875 36.28125 
z
" id="DejaVuSans-53"/>
      </defs>
      <g transform="translate(67.096875 219.605984)scale(0.1 -0.1)">
       <use xlink:href="#DejaVuSans-48"/>
       <use x="63.623047" xlink:href="#DejaVuSans-46"/>
       <use x="95.410156" xlink:href="#DejaVuSans-53"/>
      </g>
     </g>
    </g>
    <g id="ytick_4">
     <g id="line2d_21">
      <path clip-path="url(#p3983bcfad1)" d="M 90 181.81902 
L 648 181.81902 
" style="fill:none;stroke:#b0b0b0;stroke-linecap:square;stroke-width:0.8;"/>
     </g>
     <g id="line2d_22">
      <g>
       <use style="stroke:#000000;stroke-width:0.8;" x="90" xlink:href="#m54651031d5" y="181.81902"/>
      </g>
     </g>
     <g id="text_12">
      <!-- 0.6 -->
      <g transform="translate(67.096875 185.618238)scale(0.1 -0.1)">
       <use xlink:href="#DejaVuSans-48"/>
       <use x="63.623047" xlink:href="#DejaVuSans-46"/>
       <use x="95.410156" xlink:href="#DejaVuSans-54"/>
      </g>
     </g>
    </g>
    <g id="ytick_5">
     <g id="line2d_23">
      <path clip-path="url(#p3983bcfad1)" d="M 90 147.831274 
L 648 147.831274 
" style="fill:none;stroke:#b0b0b0;stroke-linecap:square;stroke-width:0.8;"/>
     </g>
     <g id="line2d_24">
      <g>
       <use style="stroke:#000000;stroke-width:0.8;" x="90" xlink:href="#m54651031d5" y="147.831274"/>
      </g>
     </g>
     <g id="text_13">
      <!-- 0.7 -->
      <defs>
       <path d="M 8.203125 72.90625 
L 55.078125 72.90625 
L 55.078125 68.703125 
L 28.609375 0 
L 18.3125 0 
L 43.21875 64.59375 
L 8.203125 64.59375 
z
" id="DejaVuSans-55"/>
      </defs>
      <g transform="translate(67.096875 151.630493)scale(0.1 -0.1)">
       <use xlink:href="#DejaVuSans-48"/>
       <use x="63.623047" xlink:href="#DejaVuSans-46"/>
       <use x="95.410156" xlink:href="#DejaVuSans-55"/>
      </g>
     </g>
    </g>
    <g id="ytick_6">
     <g id="line2d_25">
      <path clip-path="url(#p3983bcfad1)" d="M 90 113.843529 
L 648 113.843529 
" style="fill:none;stroke:#b0b0b0;stroke-linecap:square;stroke-width:0.8;"/>
     </g>
     <g id="line2d_26">
      <g>
       <use style="stroke:#000000;stroke-width:0.8;" x="90" xlink:href="#m54651031d5" y="113.843529"/>
      </g>
     </g>
     <g id="text_14">
      <!-- 0.8 -->
      <g transform="translate(67.096875 117.642748)scale(0.1 -0.1)">
       <use xlink:href="#DejaVuSans-48"/>
       <use x="63.623047" xlink:href="#DejaVuSans-46"/>
       <use x="95.410156" xlink:href="#DejaVuSans-56"/>
      </g>
     </g>
    </g>
    <g id="ytick_7">
     <g id="line2d_27">
      <path clip-path="url(#p3983bcfad1)" d="M 90 79.855783 
L 648 79.855783 
" style="fill:none;stroke:#b0b0b0;stroke-linecap:square;stroke-width:0.8;"/>
     </g>
     <g id="line2d_28">
      <g>
       <use style="stroke:#000000;stroke-width:0.8;" x="90" xlink:href="#m54651031d5" y="79.855783"/>
      </g>
     </g>
     <g id="text_15">
      <!-- 0.9 -->
      <defs>
       <path d="M 10.984375 1.515625 
L 10.984375 10.5 
Q 14.703125 8.734375 18.5 7.8125 
Q 22.3125 6.890625 25.984375 6.890625 
Q 35.75 6.890625 40.890625 13.453125 
Q 46.046875 20.015625 46.78125 33.40625 
Q 43.953125 29.203125 39.59375 26.953125 
Q 35.25 24.703125 29.984375 24.703125 
Q 19.046875 24.703125 12.671875 31.3125 
Q 6.296875 37.9375 6.296875 49.421875 
Q 6.296875 60.640625 12.9375 67.421875 
Q 19.578125 74.21875 30.609375 74.21875 
Q 43.265625 74.21875 49.921875 64.515625 
Q 56.59375 54.828125 56.59375 36.375 
Q 56.59375 19.140625 48.40625 8.859375 
Q 40.234375 -1.421875 26.421875 -1.421875 
Q 22.703125 -1.421875 18.890625 -0.6875 
Q 15.09375 0.046875 10.984375 1.515625 
z
M 30.609375 32.421875 
Q 37.25 32.421875 41.125 36.953125 
Q 45.015625 41.5 45.015625 49.421875 
Q 45.015625 57.28125 41.125 61.84375 
Q 37.25 66.40625 30.609375 66.40625 
Q 23.96875 66.40625 20.09375 61.84375 
Q 16.21875 57.28125 16.21875 49.421875 
Q 16.21875 41.5 20.09375 36.953125 
Q 23.96875 32.421875 30.609375 32.421875 
z
" id="DejaVuSans-57"/>
      </defs>
      <g transform="translate(67.096875 83.655002)scale(0.1 -0.1)">
       <use xlink:href="#DejaVuSans-48"/>
       <use x="63.623047" xlink:href="#DejaVuSans-46"/>
       <use x="95.410156" xlink:href="#DejaVuSans-57"/>
      </g>
     </g>
    </g>
    <g id="ytick_8">
     <g id="line2d_29">
      <path clip-path="url(#p3983bcfad1)" d="M 90 45.868038 
L 648 45.868038 
" style="fill:none;stroke:#b0b0b0;stroke-linecap:square;stroke-width:0.8;"/>
     </g>
     <g id="line2d_30">
      <g>
       <use style="stroke:#000000;stroke-width:0.8;" x="90" xlink:href="#m54651031d5" y="45.868038"/>
      </g>
     </g>
     <g id="text_16">
      <!-- 1.0 -->
      <g transform="translate(67.096875 49.667257)scale(0.1 -0.1)">
       <use xlink:href="#DejaVuSans-49"/>
       <use x="63.623047" xlink:href="#DejaVuSans-46"/>
       <use x="95.410156" xlink:href="#DejaVuSans-48"/>
      </g>
     </g>
    </g>
    <g id="text_17">
     <!-- accuracy -->
     <defs>
      <path d="M 34.28125 27.484375 
Q 23.390625 27.484375 19.1875 25 
Q 14.984375 22.515625 14.984375 16.5 
Q 14.984375 11.71875 18.140625 8.90625 
Q 21.296875 6.109375 26.703125 6.109375 
Q 34.1875 6.109375 38.703125 11.40625 
Q 43.21875 16.703125 43.21875 25.484375 
L 43.21875 27.484375 
z
M 52.203125 31.203125 
L 52.203125 0 
L 43.21875 0 
L 43.21875 8.296875 
Q 40.140625 3.328125 35.546875 0.953125 
Q 30.953125 -1.421875 24.3125 -1.421875 
Q 15.921875 -1.421875 10.953125 3.296875 
Q 6 8.015625 6 15.921875 
Q 6 25.140625 12.171875 29.828125 
Q 18.359375 34.515625 30.609375 34.515625 
L 43.21875 34.515625 
L 43.21875 35.40625 
Q 43.21875 41.609375 39.140625 45 
Q 35.0625 48.390625 27.6875 48.390625 
Q 23 48.390625 18.546875 47.265625 
Q 14.109375 46.140625 10.015625 43.890625 
L 10.015625 52.203125 
Q 14.9375 54.109375 19.578125 55.046875 
Q 24.21875 56 28.609375 56 
Q 40.484375 56 46.34375 49.84375 
Q 52.203125 43.703125 52.203125 31.203125 
z
" id="DejaVuSans-97"/>
      <path d="M 8.5 21.578125 
L 8.5 54.6875 
L 17.484375 54.6875 
L 17.484375 21.921875 
Q 17.484375 14.15625 20.5 10.265625 
Q 23.53125 6.390625 29.59375 6.390625 
Q 36.859375 6.390625 41.078125 11.03125 
Q 45.3125 15.671875 45.3125 23.6875 
L 45.3125 54.6875 
L 54.296875 54.6875 
L 54.296875 0 
L 45.3125 0 
L 45.3125 8.40625 
Q 42.046875 3.421875 37.71875 1 
Q 33.40625 -1.421875 27.6875 -1.421875 
Q 18.265625 -1.421875 13.375 4.4375 
Q 8.5 10.296875 8.5 21.578125 
z
M 31.109375 56 
z
" id="DejaVuSans-117"/>
      <path d="M 41.109375 46.296875 
Q 39.59375 47.171875 37.8125 47.578125 
Q 36.03125 48 33.890625 48 
Q 26.265625 48 22.1875 43.046875 
Q 18.109375 38.09375 18.109375 28.8125 
L 18.109375 0 
L 9.078125 0 
L 9.078125 54.6875 
L 18.109375 54.6875 
L 18.109375 46.1875 
Q 20.953125 51.171875 25.484375 53.578125 
Q 30.03125 56 36.53125 56 
Q 37.453125 56 38.578125 55.875 
Q 39.703125 55.765625 41.0625 55.515625 
z
" id="DejaVuSans-114"/>
      <path d="M 32.171875 -5.078125 
Q 28.375 -14.84375 24.75 -17.8125 
Q 21.140625 -20.796875 15.09375 -20.796875 
L 7.90625 -20.796875 
L 7.90625 -13.28125 
L 13.1875 -13.28125 
Q 16.890625 -13.28125 18.9375 -11.515625 
Q 21 -9.765625 23.484375 -3.21875 
L 25.09375 0.875 
L 2.984375 54.6875 
L 12.5 54.6875 
L 29.59375 11.921875 
L 46.6875 54.6875 
L 56.203125 54.6875 
z
" id="DejaVuSans-121"/>
     </defs>
     <g transform="translate(61.017187 201.659375)rotate(-90)scale(0.1 -0.1)">
      <use xlink:href="#DejaVuSans-97"/>
      <use x="61.279297" xlink:href="#DejaVuSans-99"/>
      <use x="116.259766" xlink:href="#DejaVuSans-99"/>
      <use x="171.240234" xlink:href="#DejaVuSans-117"/>
      <use x="234.619141" xlink:href="#DejaVuSans-114"/>
      <use x="275.732422" xlink:href="#DejaVuSans-97"/>
      <use x="337.011719" xlink:href="#DejaVuSans-99"/>
      <use x="391.992188" xlink:href="#DejaVuSans-121"/>
     </g>
    </g>
   </g>
   <g id="line2d_31">
    <path clip-path="url(#p3983bcfad1)" d="M 115.363636 299.841466 
L 115.77505 300.011404 
L 116.186463 295.677967 
L 117.00929 290.749744 
L 117.420703 294.573365 
L 118.24353 287.945755 
L 118.654944 290.154958 
L 119.066357 286.076429 
L 119.47777 288.965387 
L 119.889184 286.416306 
L 120.300597 287.435938 
L 120.712011 283.357409 
L 121.123424 285.311704 
L 121.534837 278.174278 
L 121.946251 278.854033 
L 122.357664 277.239615 
L 122.769078 279.448818 
L 123.180491 275.030411 
L 123.591904 275.540228 
L 124.003318 271.291759 
L 124.414731 272.141453 
L 124.826145 269.252495 
L 125.237558 264.749118 
L 125.648971 265.85372 
L 126.060385 256.846968 
L 126.471798 257.186845 
L 126.883212 248.435001 
L 127.294625 250.729173 
L 127.706038 246.650644 
L 128.117452 245.461073 
L 128.528865 237.643891 
L 128.940279 237.81383 
L 129.351692 234.415056 
L 129.763106 228.042353 
L 130.174519 226.342966 
L 130.585932 220.819957 
L 130.997346 220.989896 
L 131.408759 215.551857 
L 131.820173 214.787133 
L 132.231586 210.793573 
L 132.642999 205.440503 
L 133.054413 205.695411 
L 133.465826 209.688971 
L 133.87724 204.42087 
L 134.288653 201.277004 
L 135.11148 192.695098 
L 135.522893 194.649394 
L 136.34572 184.877917 
L 136.757133 187.426998 
L 137.168547 178.845092 
L 137.57996 178.675153 
L 138.402787 174.426685 
L 138.8142 171.282819 
L 139.225614 171.622696 
L 139.637027 165.080055 
L 140.048441 163.975453 
L 141.282681 157.092935 
L 141.694094 155.563486 
L 142.105508 152.674528 
L 142.516921 152.164712 
L 142.928334 150.210416 
L 143.339748 146.896611 
L 143.751161 144.857347 
L 144.162575 143.922684 
L 144.573988 142.308266 
L 144.985401 141.883419 
L 145.396815 138.569614 
L 145.808228 140.863786 
L 146.219642 134.151207 
L 146.631055 139.249369 
L 147.453882 133.556421 
L 147.865295 132.791697 
L 148.276709 131.687095 
L 149.099536 127.863474 
L 149.510949 127.948443 
L 149.922362 129.053045 
L 150.333776 126.164087 
L 150.745189 125.229424 
L 151.156603 123.530036 
L 151.979429 121.575741 
L 152.390843 122.850281 
L 152.802256 118.516844 
L 153.21367 118.091997 
L 153.625083 115.288008 
L 154.036496 119.196599 
L 154.44791 112.144142 
L 155.270737 116.052732 
L 156.093563 114.608253 
L 156.504977 114.778192 
L 157.327804 112.229111 
L 157.739217 108.40549 
L 158.15063 110.699662 
L 158.562044 108.830336 
L 158.973457 110.869601 
L 159.384871 109.764999 
L 159.796284 109.595061 
L 160.207697 109.849969 
L 160.619111 109.934938 
L 161.030524 106.281255 
L 161.441938 107.04598 
L 162.264764 102.457634 
L 162.676178 105.176654 
L 163.087591 105.771439 
L 163.499005 104.666838 
L 163.910418 105.006715 
L 164.321831 102.117757 
L 164.733245 101.098124 
L 165.144658 101.60794 
L 165.556072 100.078492 
L 165.967485 103.05242 
L 166.378898 99.738614 
L 166.790312 101.098124 
L 167.201725 101.862849 
L 167.613139 102.287695 
L 168.024552 99.313768 
L 168.435965 99.908553 
L 168.847379 103.05242 
L 169.258792 101.268063 
L 169.670206 101.438002 
L 170.081619 99.908553 
L 170.493033 101.353032 
L 170.904446 96.254871 
L 171.315859 98.464074 
L 171.727273 98.124197 
L 172.138686 97.444442 
L 172.5501 98.209166 
L 172.961513 96.509779 
L 173.372926 97.869288 
L 173.78434 97.274503 
L 174.195753 94.215606 
L 174.607167 96.084932 
L 175.01858 94.470514 
L 175.429993 96.509779 
L 175.841407 96.169901 
L 176.25282 95.490146 
L 176.664234 92.601188 
L 177.075647 94.470514 
L 177.48706 91.836464 
L 177.898474 94.470514 
L 178.309887 93.62082 
L 178.721301 94.810391 
L 179.544127 93.195973 
L 179.955541 90.731862 
L 180.366954 92.26131 
L 180.778368 91.156709 
L 181.189781 91.921433 
L 181.601194 93.280943 
L 182.012608 89.542291 
L 182.424021 91.241678 
L 182.835435 87.927873 
L 183.246848 92.26131 
L 183.658261 89.62726 
L 184.069675 91.496586 
L 184.481088 90.98677 
L 184.892502 89.372352 
L 185.303915 89.967138 
L 185.715328 90.901801 
L 186.126742 90.816831 
L 186.538155 89.967138 
L 186.949569 90.137076 
L 187.360982 85.463761 
L 187.772395 88.522658 
L 188.183809 88.182781 
L 188.595222 90.391984 
L 189.006636 89.117444 
L 189.418049 88.607628 
L 189.829463 87.078179 
L 190.240876 87.163149 
L 190.652289 88.947505 
L 191.063703 89.117444 
L 191.475116 87.503026 
L 191.88653 89.797199 
L 192.297943 85.803639 
L 192.709356 88.607628 
L 193.12077 89.542291 
L 193.532183 87.757934 
L 193.943597 84.27419 
L 194.35501 86.99321 
L 194.766423 87.163149 
L 195.177837 84.35916 
L 196.000664 85.973578 
L 196.412077 85.208853 
L 196.82349 84.019282 
L 197.234904 85.378792 
L 197.646317 85.973578 
L 198.057731 86.823271 
L 198.469144 82.829711 
L 198.880557 85.378792 
L 199.291971 85.123884 
L 199.703384 85.803639 
L 200.114798 85.548731 
L 200.937624 84.699037 
L 201.349038 81.64014 
L 201.760451 83.084619 
L 202.171865 83.339527 
L 202.583278 84.529098 
L 202.994691 84.189221 
L 203.406105 85.123884 
L 203.817518 82.829711 
L 204.228932 84.614068 
L 204.640345 84.868976 
L 205.051758 79.260998 
L 205.874585 83.509466 
L 206.285999 81.215293 
L 206.697412 81.810079 
L 207.108825 81.385232 
L 207.520239 82.064987 
L 207.931652 79.940753 
L 208.343066 81.810079 
L 209.165893 83.339527 
L 209.577306 79.260998 
L 209.988719 83.084619 
L 210.400133 82.404864 
L 210.811546 82.489834 
L 211.634373 80.705477 
L 212.045786 83.764374 
L 212.4572 81.470201 
L 212.868613 83.594435 
L 213.280027 83.594435 
L 213.69144 79.600875 
L 214.102853 81.980018 
L 214.514267 80.110692 
L 214.92568 82.064987 
L 215.337094 79.855783 
L 215.748507 81.215293 
L 216.15992 80.195661 
L 216.571334 78.581243 
L 216.982747 80.705477 
L 217.394161 80.195661 
L 217.805574 80.28063 
L 218.628401 80.195661 
L 219.039814 77.64658 
L 219.451228 79.345967 
L 219.862641 79.00609 
L 220.274054 79.515906 
L 220.685468 77.561611 
L 221.508295 78.496274 
L 221.919708 81.130324 
L 222.331121 80.3656 
L 222.742535 79.855783 
L 223.153948 77.64658 
L 223.565362 79.345967 
L 223.976775 75.947193 
L 224.388188 80.960385 
L 224.799602 77.476641 
L 225.211015 77.64658 
L 225.622429 76.117131 
L 226.033842 78.496274 
L 226.445255 78.751182 
L 226.856669 77.136764 
L 227.268082 79.176029 
L 227.679496 76.796886 
L 228.090909 80.28063 
L 228.502322 77.306703 
L 228.913736 76.541978 
L 229.325149 79.176029 
L 230.147976 78.156396 
L 230.55939 78.411304 
L 230.970803 81.555171 
L 231.382216 77.306703 
L 231.79363 78.071427 
L 232.205043 77.64658 
L 232.616457 76.117131 
L 233.02787 77.64658 
L 233.439283 78.581243 
L 233.850697 77.136764 
L 234.26211 78.411304 
L 234.673524 78.411304 
L 235.084937 78.92112 
L 235.49635 77.051794 
L 235.907764 76.37204 
L 236.319177 76.37204 
L 236.730591 76.796886 
L 237.142004 75.352407 
L 237.964831 76.966825 
L 238.376244 78.751182 
L 238.787658 74.417744 
L 239.199071 75.607315 
L 239.610484 76.202101 
L 240.021898 74.672652 
L 240.433311 73.822959 
L 241.256138 77.306703 
L 241.667551 77.051794 
L 242.078965 77.051794 
L 242.490378 75.437377 
L 242.901792 74.332775 
L 243.313205 74.92756 
L 243.724618 77.561611 
L 244.136032 77.561611 
L 244.547445 74.247805 
L 244.958859 75.777254 
L 245.370272 76.202101 
L 245.781685 77.816519 
L 246.193099 74.757622 
L 246.604512 78.581243 
L 247.015926 73.143204 
L 247.427339 74.502714 
L 247.838752 74.587683 
L 248.250166 75.777254 
L 248.661579 74.247805 
L 249.072993 75.692285 
L 249.484406 76.711917 
L 249.89582 74.162836 
L 250.307233 75.692285 
L 250.718646 74.332775 
L 251.13006 75.267438 
L 251.541473 77.306703 
L 251.952887 76.032162 
L 252.3643 72.463449 
L 252.775713 76.37204 
L 253.187127 73.483081 
L 253.59854 72.123571 
L 254.009954 73.143204 
L 254.421367 73.65302 
L 254.83278 73.313142 
L 255.244194 73.822959 
L 255.655607 72.633388 
L 256.067021 73.228173 
L 256.478434 74.672652 
L 256.889847 72.548418 
L 257.301261 75.182468 
L 257.712674 73.822959 
L 258.124088 74.842591 
L 258.535501 75.182468 
L 258.946914 73.483081 
L 259.358328 75.692285 
L 259.769741 74.417744 
L 260.181155 74.332775 
L 260.592568 74.757622 
L 261.003981 72.973265 
L 261.415395 73.65302 
L 261.826808 71.613755 
L 262.238222 73.737989 
L 262.649635 71.358847 
L 263.883875 72.718357 
L 264.295289 72.29351 
L 264.706702 72.888296 
L 265.118115 71.273878 
L 265.940942 71.188908 
L 266.352356 74.502714 
L 266.763769 73.822959 
L 267.175182 74.417744 
L 267.586596 72.123571 
L 267.998009 70.849031 
L 268.409423 73.143204 
L 268.820836 71.953633 
L 269.23225 73.143204 
L 270.055076 70.849031 
L 270.46649 74.842591 
L 270.877903 71.953633 
L 271.289317 73.568051 
L 271.70073 69.65946 
L 272.112143 70.509153 
L 272.523557 69.914368 
L 272.93497 70.169276 
L 273.346384 73.058234 
L 273.757797 72.463449 
L 274.16921 71.613755 
L 274.580624 71.273878 
L 274.992037 72.548418 
L 275.403451 71.188908 
L 276.226277 73.483081 
L 277.049104 69.744429 
L 277.460518 72.718357 
L 277.871931 72.038602 
L 278.283344 69.57449 
L 278.694758 72.123571 
L 279.106171 72.718357 
L 279.517585 73.65302 
L 279.928998 75.097499 
L 280.340411 71.783694 
L 280.751825 71.613755 
L 281.163238 68.554858 
L 281.574652 69.65946 
L 281.986065 69.064674 
L 282.397478 70.084307 
L 282.808892 68.554858 
L 283.220305 69.149644 
L 284.043132 71.443816 
L 284.454545 71.613755 
L 285.277372 70.594123 
L 285.688786 68.724797 
L 286.100199 72.123571 
L 286.511612 69.65946 
L 286.923026 70.594123 
L 287.334439 72.038602 
L 287.745853 69.999337 
L 288.157266 70.849031 
L 288.568679 70.254245 
L 288.980093 69.149644 
L 289.391506 68.469889 
L 289.80292 68.469889 
L 290.214333 71.01897 
L 290.625747 71.443816 
L 291.448573 67.02541 
L 291.859987 72.378479 
L 292.2714 68.809766 
L 292.682814 70.254245 
L 293.094227 70.679092 
L 293.50564 69.999337 
L 293.917054 66.260685 
L 294.328467 72.038602 
L 294.739881 69.744429 
L 295.151294 69.489521 
L 295.562707 69.914368 
L 295.974121 68.894736 
L 296.796948 71.358847 
L 297.208361 67.960073 
L 297.619774 68.214981 
L 298.442601 69.914368 
L 298.854015 69.999337 
L 299.265428 70.764062 
L 299.676841 67.875103 
L 300.088255 68.384919 
L 300.499668 70.339215 
L 300.911082 68.29995 
L 301.322495 70.849031 
L 301.733908 68.724797 
L 302.145322 67.705164 
L 302.556735 68.639827 
L 302.968149 68.639827 
L 303.379562 68.045042 
L 303.790975 68.979705 
L 304.202389 67.450256 
L 304.613802 68.639827 
L 305.025216 69.404552 
L 305.436629 68.979705 
L 305.848042 69.57449 
L 306.259456 69.149644 
L 306.670869 67.450256 
L 307.082283 67.280318 
L 307.493696 69.829399 
L 307.905109 69.234613 
L 308.316523 69.65946 
L 308.727936 68.045042 
L 309.13935 69.914368 
L 309.550763 67.110379 
L 309.962177 67.110379 
L 310.37359 67.875103 
L 310.785003 68.979705 
L 311.196417 68.384919 
L 311.60783 68.554858 
L 312.019244 68.554858 
L 312.430657 69.149644 
L 312.84207 67.110379 
L 313.253484 68.639827 
L 313.664897 67.620195 
L 314.076311 69.234613 
L 314.487724 69.234613 
L 314.899137 69.744429 
L 315.310551 68.045042 
L 315.721964 68.724797 
L 316.133378 66.855471 
L 316.544791 68.894736 
L 316.956204 66.94044 
L 317.367618 66.600563 
L 317.779031 69.489521 
L 318.190445 69.149644 
L 318.601858 67.195348 
L 319.013271 67.110379 
L 319.424685 68.724797 
L 319.836098 68.979705 
L 320.247512 65.58093 
L 320.658925 67.620195 
L 321.070338 67.02541 
L 321.481752 69.744429 
L 321.893165 67.450256 
L 322.304579 68.29995 
L 322.715992 66.600563 
L 323.127405 66.855471 
L 323.538819 68.724797 
L 323.950232 68.639827 
L 324.361646 66.515593 
L 324.773059 66.94044 
L 325.184472 68.639827 
L 325.595886 67.620195 
L 326.007299 67.960073 
L 326.418713 68.809766 
L 326.830126 66.005777 
L 327.241539 68.045042 
L 327.652953 67.280318 
L 328.47578 67.280318 
L 329.298607 67.535226 
L 329.71002 67.365287 
L 330.532847 68.724797 
L 330.94426 65.495961 
L 331.355674 68.214981 
L 331.767087 67.195348 
L 332.1785 67.365287 
L 333.001327 67.02541 
L 333.412741 63.881543 
L 333.824154 67.620195 
L 334.235567 66.855471 
L 334.646981 65.156084 
L 335.058394 68.384919 
L 336.292634 65.495961 
L 336.704048 67.110379 
L 337.115461 65.241053 
L 337.526875 66.005777 
L 337.938288 67.535226 
L 338.349701 66.685532 
L 338.761115 66.345655 
L 339.172528 68.554858 
L 339.583942 66.855471 
L 339.995355 66.090747 
L 340.818182 65.495961 
L 341.229595 64.901175 
L 341.641009 66.260685 
L 342.052422 65.750869 
L 342.463835 64.986145 
L 343.286662 68.214981 
L 343.698076 65.326022 
L 344.109489 64.731237 
L 344.520902 65.6659 
L 344.932316 66.260685 
L 345.343729 65.920808 
L 345.755143 63.966512 
L 346.166556 64.646267 
L 346.577969 66.94044 
L 346.989383 66.94044 
L 347.400796 65.58093 
L 347.81221 64.986145 
L 348.223623 67.620195 
L 348.635036 65.410992 
L 349.04645 64.646267 
L 349.869277 66.94044 
L 350.28069 64.30639 
L 350.692104 66.94044 
L 351.103517 64.816206 
L 351.51493 63.456696 
L 351.926344 64.731237 
L 352.337757 64.901175 
L 352.749171 64.221421 
L 353.160584 65.410992 
L 353.571997 67.110379 
L 353.983411 64.051482 
L 354.394824 65.495961 
L 354.806238 66.005777 
L 355.217651 64.816206 
L 355.629064 65.835838 
L 356.040478 65.495961 
L 356.451891 64.136451 
L 356.863305 66.005777 
L 357.274718 64.476329 
L 357.686131 65.6659 
L 358.508958 63.881543 
L 358.920372 65.241053 
L 359.331785 63.626635 
L 359.743198 67.280318 
L 360.154612 64.646267 
L 360.566025 66.090747 
L 360.977439 65.920808 
L 361.388852 66.260685 
L 361.800265 64.136451 
L 362.211679 64.986145 
L 362.623092 64.136451 
L 363.034506 65.071114 
L 363.445919 64.476329 
L 363.857332 65.750869 
L 364.268746 66.430624 
L 364.680159 66.090747 
L 365.091573 65.326022 
L 365.502986 66.345655 
L 365.914399 64.646267 
L 366.325813 65.326022 
L 366.737226 64.816206 
L 367.14864 66.090747 
L 367.560053 65.6659 
L 367.971466 63.711604 
L 368.38288 63.456696 
L 368.794293 64.136451 
L 369.205707 63.371727 
L 369.61712 64.221421 
L 370.028534 62.522033 
L 370.439947 65.6659 
L 370.85136 65.6659 
L 371.262774 64.901175 
L 371.674187 63.881543 
L 372.085601 63.201788 
L 372.497014 65.071114 
L 372.908427 64.816206 
L 373.319841 63.626635 
L 373.731254 63.456696 
L 374.142668 64.901175 
L 374.554081 65.750869 
L 374.965494 63.116819 
L 375.376908 63.116819 
L 375.788321 64.136451 
L 376.199735 64.391359 
L 376.611148 63.796574 
L 377.022561 63.456696 
L 377.433975 64.986145 
L 378.256802 63.541666 
L 378.668215 63.881543 
L 379.079628 64.391359 
L 379.491042 65.326022 
L 379.902455 67.790134 
L 380.313869 64.30639 
L 380.725282 65.241053 
L 381.136695 65.495961 
L 381.548109 64.391359 
L 381.959522 65.071114 
L 382.370936 65.071114 
L 382.782349 64.391359 
L 383.193762 64.731237 
L 383.605176 64.901175 
L 384.016589 65.241053 
L 384.428003 63.966512 
L 384.839416 62.182156 
L 385.250829 65.410992 
L 385.662243 62.861911 
L 386.48507 63.626635 
L 386.896483 63.626635 
L 387.307896 63.966512 
L 387.71931 63.711604 
L 388.542137 64.731237 
L 388.95355 63.966512 
L 389.364964 65.58093 
L 389.776377 64.986145 
L 390.18779 63.116819 
L 390.599204 63.371727 
L 391.010617 61.417432 
L 391.422031 65.410992 
L 391.833444 62.776941 
L 392.244857 63.626635 
L 392.656271 65.58093 
L 393.067684 63.371727 
L 393.479098 63.626635 
L 393.890511 63.201788 
L 394.301924 63.116819 
L 394.713338 63.371727 
L 395.124751 62.776941 
L 395.536165 64.986145 
L 395.947578 64.391359 
L 396.358991 62.691972 
L 396.770405 63.966512 
L 397.181818 62.776941 
L 397.593232 63.711604 
L 398.004645 63.371727 
L 398.416058 64.30639 
L 398.827472 63.456696 
L 399.238885 63.286758 
L 399.650299 62.691972 
L 400.061712 63.456696 
L 400.473125 62.352095 
L 400.884539 62.861911 
L 401.295952 64.901175 
L 401.707366 63.541666 
L 402.530192 62.182156 
L 402.941606 64.051482 
L 403.764433 63.116819 
L 404.175846 62.182156 
L 404.587259 63.796574 
L 404.998673 63.031849 
L 405.8215 62.522033 
L 406.232913 62.94688 
L 406.644326 62.182156 
L 407.05574 62.437064 
L 407.467153 61.757309 
L 407.878567 62.607003 
L 408.28998 62.437064 
L 409.112807 65.750869 
L 409.52422 63.456696 
L 409.935634 62.691972 
L 410.347047 62.94688 
L 410.758461 60.737677 
L 411.169874 64.561298 
L 411.581287 62.267125 
L 411.992701 64.731237 
L 412.404114 61.842278 
L 412.815528 64.561298 
L 413.226941 63.966512 
L 413.638354 63.881543 
L 414.461181 61.077554 
L 414.872595 62.94688 
L 415.284008 62.94688 
L 416.106835 62.182156 
L 416.518248 63.201788 
L 416.929662 61.842278 
L 417.341075 61.927248 
L 417.752488 63.626635 
L 418.163902 61.757309 
L 418.575315 61.757309 
L 418.986729 64.901175 
L 419.398142 61.927248 
L 419.809555 62.776941 
L 420.220969 61.247493 
L 420.632382 63.371727 
L 421.043796 62.522033 
L 421.866622 61.927248 
L 422.278036 61.417432 
L 422.689449 63.626635 
L 423.100863 62.097186 
L 423.512276 63.286758 
L 423.923689 63.456696 
L 424.335103 62.352095 
L 424.746516 62.522033 
L 425.569343 61.67234 
L 425.980756 61.842278 
L 426.39217 61.077554 
L 426.803583 62.94688 
L 427.214997 62.267125 
L 427.62641 62.097186 
L 428.037823 61.502401 
L 428.449237 62.352095 
L 429.272064 62.352095 
L 429.683477 60.567738 
L 430.094891 61.927248 
L 430.506304 61.67234 
L 430.917717 63.796574 
L 431.329131 61.162523 
L 432.151958 63.201788 
L 432.563371 61.077554 
L 432.974784 62.691972 
L 433.386198 61.162523 
L 433.797611 58.95332 
L 434.209025 61.077554 
L 434.620438 62.182156 
L 435.031851 62.861911 
L 435.443265 61.417432 
L 435.854678 60.822646 
L 436.677505 62.691972 
L 437.088918 62.012217 
L 437.500332 60.652707 
L 437.911745 62.522033 
L 438.323159 61.842278 
L 438.734572 62.607003 
L 439.145985 60.822646 
L 439.557399 61.502401 
L 439.968812 59.803014 
L 440.380226 60.22786 
L 440.791639 61.927248 
L 441.614466 60.22786 
L 442.025879 62.182156 
L 442.437293 60.652707 
L 442.848706 64.476329 
L 443.260119 61.757309 
L 443.671533 59.803014 
L 444.082946 61.417432 
L 444.49436 62.012217 
L 444.905773 60.907615 
L 445.317186 62.012217 
L 445.7286 60.737677 
L 446.140013 61.757309 
L 446.551427 61.58737 
L 446.96284 61.247493 
L 447.374253 63.541666 
L 447.785667 60.907615 
L 448.19708 61.332462 
L 448.608494 60.992585 
L 449.019907 61.247493 
L 449.431321 62.012217 
L 449.842734 62.012217 
L 450.254147 61.502401 
L 450.665561 61.757309 
L 451.076974 59.803014 
L 451.488388 61.67234 
L 451.899801 61.247493 
L 452.311214 63.031849 
L 452.722628 63.796574 
L 453.134041 61.842278 
L 453.545455 61.247493 
L 453.956868 64.051482 
L 454.368281 59.123259 
L 454.779695 59.548106 
L 455.602522 61.67234 
L 456.013935 60.567738 
L 456.425348 61.58737 
L 456.836762 60.907615 
L 457.248175 61.757309 
L 457.659589 60.652707 
L 458.071002 61.162523 
L 458.482415 60.482769 
L 458.893829 60.907615 
L 459.305242 61.162523 
L 459.716656 63.626635 
L 460.128069 60.992585 
L 460.539482 59.378167 
L 460.950896 59.633075 
L 461.362309 61.927248 
L 462.185136 60.567738 
L 462.596549 59.887983 
L 463.007963 62.691972 
L 463.419376 61.162523 
L 463.83079 61.927248 
L 464.242203 60.31283 
L 464.653616 60.22786 
L 465.06503 61.417432 
L 465.476443 60.822646 
L 465.887857 62.776941 
L 466.29927 58.443504 
L 466.710683 60.992585 
L 467.122097 62.182156 
L 467.53351 59.123259 
L 468.356337 60.907615 
L 468.76775 59.548106 
L 469.179164 61.502401 
L 469.590577 60.737677 
L 470.413404 60.737677 
L 470.824818 59.208228 
L 471.236231 59.803014 
L 471.647644 61.162523 
L 472.059058 61.502401 
L 472.470471 62.267125 
L 472.881885 60.482769 
L 473.293298 60.822646 
L 473.704711 60.482769 
L 474.116125 60.992585 
L 474.527538 60.992585 
L 474.938952 58.95332 
L 475.350365 61.67234 
L 475.761778 60.057922 
L 476.173192 61.077554 
L 476.584605 59.378167 
L 476.996019 61.927248 
L 477.407432 61.502401 
L 477.818845 59.463136 
L 478.230259 61.417432 
L 478.641672 59.718044 
L 479.053086 62.267125 
L 479.464499 61.417432 
L 479.875912 61.077554 
L 480.287326 60.482769 
L 480.698739 61.842278 
L 481.110153 61.842278 
L 481.521566 59.463136 
L 481.932979 60.737677 
L 482.344393 60.22786 
L 482.755806 60.057922 
L 483.16722 62.861911 
L 483.578633 62.267125 
L 483.990046 59.803014 
L 484.40146 60.482769 
L 484.812873 60.142891 
L 485.224287 60.31283 
L 485.6357 59.718044 
L 486.047113 59.718044 
L 486.458527 61.757309 
L 486.86994 60.397799 
L 487.281354 60.652707 
L 487.692767 59.208228 
L 488.10418 59.123259 
L 488.515594 60.31283 
L 488.927007 59.208228 
L 489.338421 59.972952 
L 489.749834 59.633075 
L 490.572661 60.397799 
L 490.984074 58.783381 
L 491.395488 58.613443 
L 491.806901 61.077554 
L 492.629728 60.652707 
L 493.041141 61.247493 
L 493.452555 59.293197 
L 493.863968 60.822646 
L 494.275382 58.698412 
L 494.686795 61.077554 
L 495.098208 59.548106 
L 495.509622 60.057922 
L 495.921035 59.718044 
L 496.332449 60.737677 
L 496.743862 60.567738 
L 497.155275 59.803014 
L 497.566689 60.567738 
L 497.978102 59.633075 
L 498.389516 59.718044 
L 498.800929 60.22786 
L 499.212342 60.31283 
L 499.623756 60.142891 
L 500.035169 59.548106 
L 500.446583 60.737677 
L 500.857996 59.548106 
L 501.269409 59.208228 
L 501.680823 58.358534 
L 502.092236 60.397799 
L 502.50365 60.142891 
L 502.915063 60.22786 
L 503.326476 60.822646 
L 503.73789 59.293197 
L 504.149303 60.057922 
L 504.560717 59.208228 
L 504.97213 58.868351 
L 505.383543 59.208228 
L 505.794957 58.443504 
L 506.20637 58.528473 
L 506.617784 60.142891 
L 507.029197 60.057922 
L 507.44061 57.338902 
L 508.263437 60.057922 
L 508.674851 58.698412 
L 509.086264 59.887983 
L 509.909091 58.273565 
L 510.320504 59.208228 
L 510.731918 59.463136 
L 511.143331 62.352095 
L 511.554745 59.887983 
L 511.966158 59.208228 
L 512.377571 60.142891 
L 512.788985 60.737677 
L 513.200398 60.057922 
L 513.611812 59.887983 
L 514.023225 59.548106 
L 514.434638 59.038289 
L 514.846052 60.22786 
L 515.257465 58.358534 
L 515.668879 58.868351 
L 516.080292 60.22786 
L 516.491705 57.933688 
L 516.903119 60.822646 
L 517.314532 56.999025 
L 517.725946 60.397799 
L 518.137359 59.633075 
L 518.548772 60.397799 
L 518.960186 58.698412 
L 519.371599 61.417432 
L 519.783013 58.188596 
L 520.194426 57.848718 
L 520.605839 59.633075 
L 521.017253 58.868351 
L 521.428666 59.123259 
L 521.84008 60.907615 
L 522.251493 59.548106 
L 522.662906 58.613443 
L 523.07432 58.018657 
L 523.485733 59.548106 
L 523.897147 58.443504 
L 524.30856 57.933688 
L 525.131387 59.123259 
L 525.5428 58.528473 
L 525.954214 58.613443 
L 526.365627 59.803014 
L 526.77704 57.763749 
L 527.188454 59.803014 
L 527.599867 60.057922 
L 528.011281 59.123259 
L 528.422694 61.417432 
L 529.245521 59.972952 
L 530.479761 58.613443 
L 530.891175 60.142891 
L 531.302588 59.463136 
L 531.714001 59.463136 
L 532.125415 59.803014 
L 532.536828 59.803014 
L 532.948242 58.528473 
L 533.359655 58.103626 
L 533.771068 59.293197 
L 534.182482 58.358534 
L 534.593895 58.018657 
L 535.005309 59.887983 
L 535.416722 59.038289 
L 535.828135 59.633075 
L 536.239549 60.907615 
L 536.650962 60.992585 
L 537.062376 58.613443 
L 537.473789 58.358534 
L 537.885202 60.057922 
L 538.296616 58.273565 
L 538.708029 59.718044 
L 539.119443 58.443504 
L 539.530856 58.443504 
L 539.942269 59.803014 
L 540.765096 58.613443 
L 541.17651 57.67878 
L 541.587923 59.633075 
L 541.999336 59.718044 
L 542.41075 59.378167 
L 542.822163 58.783381 
L 543.233577 59.123259 
L 543.64499 58.018657 
L 544.056403 58.783381 
L 544.467817 58.783381 
L 544.87923 58.613443 
L 545.290644 59.038289 
L 545.702057 59.718044 
L 546.11347 58.95332 
L 547.347711 57.848718 
L 547.759124 61.162523 
L 548.170537 59.123259 
L 548.581951 58.613443 
L 548.993364 58.95332 
L 549.404778 57.423871 
L 549.816191 59.123259 
L 550.227605 55.979392 
L 550.639018 58.868351 
L 551.050431 57.763749 
L 551.461845 59.548106 
L 551.873258 59.378167 
L 552.284672 58.698412 
L 552.696085 58.95332 
L 553.107498 59.378167 
L 553.518912 58.613443 
L 553.930325 57.423871 
L 554.341739 58.783381 
L 554.753152 59.208228 
L 555.164565 58.358534 
L 555.575979 59.208228 
L 556.398806 58.698412 
L 556.810219 57.508841 
L 557.221632 57.933688 
L 557.633046 58.698412 
L 558.044459 57.848718 
L 558.455873 57.848718 
L 558.867286 58.188596 
L 559.278699 59.123259 
L 559.690113 57.59381 
L 560.101526 59.463136 
L 560.51294 58.528473 
L 560.924353 58.698412 
L 561.335766 58.528473 
L 561.74718 57.083994 
L 562.158593 57.59381 
L 562.570007 57.59381 
L 562.98142 58.868351 
L 563.392833 58.273565 
L 563.804247 58.018657 
L 564.21566 58.358534 
L 564.627074 59.633075 
L 565.038487 57.933688 
L 565.4499 57.67878 
L 565.861314 59.463136 
L 566.272727 57.423871 
L 566.684141 57.67878 
L 567.095554 59.123259 
L 567.506967 58.783381 
L 567.918381 58.273565 
L 568.329794 58.018657 
L 568.741208 58.103626 
L 569.152621 58.443504 
L 569.564035 59.038289 
L 569.975448 57.933688 
L 570.386861 58.018657 
L 570.798275 57.848718 
L 571.621102 59.972952 
L 572.032515 58.018657 
L 572.443928 57.933688 
L 572.855342 57.168963 
L 573.266755 57.763749 
L 573.678169 59.378167 
L 574.089582 60.142891 
L 574.500995 58.103626 
L 574.912409 58.613443 
L 575.323822 57.508841 
L 575.735236 58.443504 
L 576.146649 57.423871 
L 576.558062 58.95332 
L 576.969476 57.59381 
L 577.380889 57.59381 
L 577.792303 58.528473 
L 578.203716 58.443504 
L 578.615129 58.613443 
L 579.026543 57.763749 
L 579.437956 58.443504 
L 579.84937 56.489208 
L 580.260783 58.443504 
L 580.672196 58.103626 
L 581.08361 59.293197 
L 581.495023 57.423871 
L 581.906437 56.999025 
L 582.31785 58.613443 
L 582.729263 58.613443 
L 583.140677 57.763749 
L 583.55209 59.293197 
L 583.963504 57.848718 
L 584.374917 59.208228 
L 584.78633 59.463136 
L 585.197744 56.489208 
L 585.609157 57.848718 
L 586.020571 57.763749 
L 586.431984 59.887983 
L 586.843397 57.168963 
L 587.254811 58.188596 
L 587.666224 58.103626 
L 588.077638 57.423871 
L 588.489051 58.188596 
L 588.900464 56.999025 
L 589.311878 57.763749 
L 589.723291 56.829086 
L 590.134705 58.188596 
L 590.546118 58.443504 
L 590.957532 58.358534 
L 591.368945 57.933688 
L 591.780358 57.338902 
L 592.603185 58.868351 
L 593.014599 57.933688 
L 593.426012 58.103626 
L 593.837425 57.168963 
L 594.248839 58.358534 
L 594.660252 58.613443 
L 595.071666 58.528473 
L 595.483079 56.829086 
L 595.894492 58.868351 
L 596.305906 56.404239 
L 597.128733 58.103626 
L 597.540146 57.253933 
L 597.951559 58.018657 
L 598.362973 59.293197 
L 598.774386 56.31927 
L 599.1858 59.293197 
L 600.008626 57.423871 
L 600.42004 57.338902 
L 600.831453 58.783381 
L 601.65428 57.423871 
L 602.065693 58.103626 
L 602.477107 57.933688 
L 602.88852 57.338902 
L 603.299934 58.528473 
L 603.711347 58.018657 
L 604.12276 58.273565 
L 604.534174 57.338902 
L 604.945587 58.018657 
L 605.357001 56.999025 
L 605.768414 58.698412 
L 606.179827 59.208228 
L 606.591241 57.763749 
L 607.002654 58.95332 
L 607.414068 59.378167 
L 607.825481 59.463136 
L 608.236894 57.67878 
L 608.648308 58.188596 
L 609.059721 55.809454 
L 609.471135 55.979392 
L 609.882548 57.338902 
L 610.293962 57.083994 
L 610.705375 57.933688 
L 611.116788 56.489208 
L 611.939615 57.423871 
L 612.351029 57.338902 
L 612.762442 57.848718 
L 613.173855 56.31927 
L 613.585269 59.463136 
L 613.996682 56.999025 
L 614.408096 58.868351 
L 614.819509 57.338902 
L 615.230922 58.698412 
L 615.642336 57.67878 
L 616.053749 56.064362 
L 616.465163 57.67878 
L 616.876576 56.574178 
L 617.287989 57.253933 
L 617.699403 57.59381 
L 618.110816 58.273565 
L 618.52223 55.554545 
L 618.933643 58.358534 
L 619.345056 56.744117 
L 619.75647 58.018657 
L 620.167883 56.914055 
L 620.99071 58.273565 
L 621.402123 58.698412 
L 621.813537 58.698412 
L 622.22495 55.639515 
L 622.636364 56.829086 
L 622.636364 56.829086 
" style="fill:none;stroke:#1f77b4;stroke-linecap:square;stroke-width:0.5;"/>
   </g>
   <g id="line2d_32">
    <path clip-path="url(#p3983bcfad1)" d="M 115.363636 298.566925 
L 115.77505 295.762936 
L 116.186463 302.645455 
L 116.597877 294.233488 
L 117.00929 293.978579 
L 117.420703 292.024284 
L 117.832117 297.377354 
L 118.24353 289.985019 
L 118.654944 292.024284 
L 119.47777 287.011092 
L 119.889184 291.854345 
L 120.300597 289.305264 
L 120.712011 288.710479 
L 121.534837 287.945755 
L 121.946251 282.847593 
L 122.357664 285.141766 
L 122.769078 285.651582 
L 123.180491 278.854033 
L 123.591904 276.219982 
L 124.003318 276.644829 
L 124.414731 276.219982 
L 124.826145 268.912617 
L 125.648971 264.409241 
L 126.060385 268.317832 
L 126.471798 261.605252 
L 126.883212 258.036539 
L 127.294625 257.951569 
L 127.706038 252.938377 
L 128.117452 250.389296 
L 128.528865 248.859847 
L 128.940279 237.219045 
L 129.351692 238.323646 
L 129.763106 234.245117 
L 130.174519 228.042353 
L 130.585932 227.957384 
L 130.997346 221.329774 
L 131.408759 224.048793 
L 131.820173 217.676091 
L 132.231586 213.427623 
L 132.642999 210.878542 
L 133.054413 204.845717 
L 133.465826 210.368726 
L 133.87724 201.531912 
L 134.288653 204.760748 
L 134.700066 202.211667 
L 135.11148 196.43375 
L 135.522893 195.669026 
L 135.934307 195.584057 
L 136.757133 181.564112 
L 137.168547 183.178529 
L 137.991374 180.034663 
L 138.8142 171.197849 
L 139.225614 169.838339 
L 139.637027 164.825147 
L 140.048441 167.11932 
L 140.459854 163.635576 
L 140.871267 162.530974 
L 141.694094 156.41318 
L 142.105508 155.563486 
L 142.516921 151.399987 
L 142.928334 153.949068 
L 143.339748 148.765937 
L 144.162575 142.903051 
L 144.573988 141.628511 
L 145.396815 142.053358 
L 145.808228 137.549981 
L 146.219642 142.478204 
L 146.631055 136.615318 
L 147.042468 134.915931 
L 147.453882 141.71348 
L 147.865295 135.595686 
L 148.276709 133.046605 
L 148.688122 132.026973 
L 149.099536 132.791697 
L 149.510949 130.242616 
L 149.922362 132.961636 
L 150.333776 126.673903 
L 150.745189 126.843841 
L 151.156603 130.327585 
L 151.568016 127.438627 
L 151.979429 121.66071 
L 152.390843 123.615006 
L 152.802256 122.680343 
L 153.21367 124.889546 
L 153.625083 124.209791 
L 154.036496 124.974515 
L 154.44791 121.065925 
L 154.859323 121.915618 
L 155.270737 120.980955 
L 155.68215 122.425435 
L 156.093563 124.634638 
L 156.504977 120.471139 
L 156.91639 120.046292 
L 157.327804 119.876354 
L 157.739217 117.922058 
L 158.15063 114.438314 
L 158.562044 117.837089 
L 158.973457 118.091997 
L 159.384871 115.0331 
L 159.796284 117.412242 
L 160.207697 112.823896 
L 160.619111 113.67359 
L 161.030524 112.653958 
L 161.441938 114.948131 
L 161.853351 110.614693 
L 162.264764 110.274816 
L 162.676178 110.529724 
L 163.087591 110.529724 
L 163.499005 110.359785 
L 163.910418 112.484019 
L 164.321831 110.529724 
L 164.733245 107.04598 
L 165.144658 109.764999 
L 165.556072 109.255183 
L 165.967485 108.32052 
L 166.378898 108.065612 
L 166.790312 107.130949 
L 167.201725 108.065612 
L 167.613139 104.921746 
L 168.024552 106.706102 
L 168.435965 103.817144 
L 168.847379 106.96101 
L 169.258792 107.470827 
L 169.670206 107.385857 
L 170.493033 103.987083 
L 170.904446 103.307328 
L 171.315859 105.006715 
L 171.727273 105.346592 
L 172.138686 103.902113 
L 172.5501 104.921746 
L 172.961513 101.862849 
L 173.372926 107.810704 
L 173.78434 104.666838 
L 174.195753 102.457634 
L 174.607167 103.562236 
L 175.01858 101.183094 
L 175.429993 100.418369 
L 175.841407 103.392297 
L 176.25282 102.117757 
L 176.664234 102.032787 
L 177.075647 101.60794 
L 177.48706 100.418369 
L 177.898474 100.758247 
L 178.309887 102.117757 
L 178.721301 102.627573 
L 179.132714 103.477266 
L 179.544127 99.05886 
L 179.955541 100.3334 
L 180.366954 103.307328 
L 180.778368 103.562236 
L 181.189781 98.97389 
L 181.601194 97.869288 
L 182.012608 99.653645 
L 182.424021 99.993523 
L 182.835435 98.379105 
L 183.246848 100.503339 
L 183.658261 96.764687 
L 184.069675 100.673277 
L 184.892502 95.660085 
L 185.303915 98.294135 
L 185.715328 98.124197 
L 186.126742 99.228798 
L 186.538155 98.634013 
L 186.949569 97.359472 
L 187.360982 98.464074 
L 187.772395 98.294135 
L 188.183809 95.405177 
L 188.595222 98.888921 
L 189.006636 95.999962 
L 189.418049 94.895361 
L 190.240876 98.634013 
L 191.063703 97.61438 
L 191.475116 96.33984 
L 191.88653 97.69935 
L 192.297943 96.849656 
L 192.709356 93.960698 
L 193.12077 95.660085 
L 193.532183 98.634013 
L 193.943597 97.869288 
L 194.766423 95.405177 
L 195.177837 96.084932 
L 196.000664 93.365912 
L 196.412077 95.490146 
L 196.82349 96.849656 
L 197.234904 95.235238 
L 197.646317 94.470514 
L 198.057731 94.215606 
L 198.469144 97.784319 
L 198.880557 94.045667 
L 199.291971 95.150269 
L 199.703384 94.98033 
L 200.114798 93.535851 
L 200.526211 93.026035 
L 200.937624 94.725422 
L 201.349038 92.601188 
L 202.171865 94.895361 
L 202.583278 94.98033 
L 202.994691 94.895361 
L 203.406105 94.215606 
L 203.817518 92.176341 
L 204.228932 93.875728 
L 204.640345 93.111004 
L 205.051758 91.921433 
L 205.463172 91.411617 
L 205.874585 93.365912 
L 206.285999 94.385545 
L 207.108825 92.856096 
L 207.520239 95.660085 
L 208.343066 95.150269 
L 208.754479 92.941065 
L 209.165893 91.666525 
L 209.577306 95.320208 
L 209.988719 91.326647 
L 210.400133 91.071739 
L 210.811546 94.215606 
L 211.22296 90.222046 
L 211.634373 90.222046 
L 212.4572 91.751494 
L 212.868613 88.862536 
L 213.280027 88.692597 
L 213.69144 91.496586 
L 214.514267 91.496586 
L 214.92568 91.666525 
L 215.337094 90.731862 
L 215.748507 90.476954 
L 216.15992 93.026035 
L 216.571334 90.731862 
L 216.982747 89.457321 
L 217.394161 91.496586 
L 217.805574 90.731862 
L 218.216987 90.98677 
L 218.628401 92.516219 
L 219.039814 89.287383 
L 219.862641 92.516219 
L 220.274054 89.967138 
L 220.685468 88.437689 
L 221.096881 91.496586 
L 221.508295 90.222046 
L 221.919708 90.307015 
L 222.331121 90.222046 
L 222.742535 87.163149 
L 223.153948 91.241678 
L 223.565362 90.222046 
L 223.976775 89.967138 
L 224.388188 90.222046 
L 224.799602 90.731862 
L 225.211015 89.882168 
L 225.622429 88.012842 
L 226.033842 90.052107 
L 226.856669 89.117444 
L 227.268082 89.967138 
L 227.679496 88.607628 
L 228.090909 93.111004 
L 228.502322 89.457321 
L 228.913736 89.967138 
L 229.325149 89.117444 
L 229.736563 89.457321 
L 230.147976 89.117444 
L 230.55939 90.646893 
L 230.970803 88.26775 
L 231.382216 88.26775 
L 231.79363 87.757934 
L 232.205043 89.372352 
L 232.616457 88.607628 
L 233.02787 88.522658 
L 233.439283 92.34628 
L 233.850697 87.842904 
L 234.26211 88.522658 
L 234.673524 86.738302 
L 235.084937 88.182781 
L 235.49635 87.757934 
L 235.907764 89.032475 
L 236.319177 86.99321 
L 236.730591 88.182781 
L 237.142004 86.313455 
L 237.964831 88.26775 
L 238.376244 90.646893 
L 238.787658 87.587995 
L 239.199071 89.797199 
L 239.610484 88.182781 
L 240.021898 88.692597 
L 240.433311 87.078179 
L 240.844725 88.692597 
L 241.256138 87.418057 
L 241.667551 88.097812 
L 242.078965 89.117444 
L 242.490378 86.058547 
L 243.313205 85.6337 
L 243.724618 85.973578 
L 244.136032 87.927873 
L 244.547445 86.398424 
L 244.958859 87.078179 
L 245.781685 84.953945 
L 246.193099 89.457321 
L 247.015926 85.378792 
L 247.427339 87.842904 
L 247.838752 87.503026 
L 248.250166 85.463761 
L 249.072993 87.503026 
L 249.484406 85.803639 
L 249.89582 86.823271 
L 250.307233 85.803639 
L 250.718646 86.228486 
L 251.13006 85.208853 
L 251.541473 85.038915 
L 251.952887 85.71867 
L 252.3643 87.672965 
L 252.775713 85.378792 
L 253.187127 85.038915 
L 253.59854 85.208853 
L 254.009954 88.26775 
L 254.421367 89.71223 
L 255.244194 87.672965 
L 255.655607 87.672965 
L 256.067021 85.803639 
L 256.478434 87.672965 
L 256.889847 87.503026 
L 257.301261 89.372352 
L 257.712674 84.019282 
L 258.124088 84.784007 
L 258.535501 81.555171 
L 258.946914 85.123884 
L 259.358328 84.444129 
L 260.181155 85.293823 
L 260.592568 84.784007 
L 261.003981 85.888608 
L 261.415395 84.189221 
L 261.826808 84.953945 
L 262.238222 85.973578 
L 262.649635 85.888608 
L 263.061048 83.424497 
L 263.472462 84.444129 
L 263.883875 85.888608 
L 264.295289 85.463761 
L 264.706702 85.71867 
L 265.118115 86.143516 
L 265.529529 84.35916 
L 265.940942 84.953945 
L 266.352356 85.038915 
L 266.763769 85.888608 
L 267.175182 87.927873 
L 267.586596 84.35916 
L 267.998009 83.679405 
L 268.409423 87.842904 
L 268.820836 84.27419 
L 269.23225 86.313455 
L 269.643663 84.614068 
L 270.055076 84.35916 
L 270.46649 82.744742 
L 270.877903 86.738302 
L 271.289317 84.868976 
L 271.70073 81.980018 
L 272.112143 85.973578 
L 272.523557 84.27419 
L 272.93497 85.888608 
L 273.346384 85.973578 
L 273.757797 84.614068 
L 274.16921 87.503026 
L 274.580624 85.973578 
L 274.992037 86.228486 
L 275.403451 84.444129 
L 275.814864 83.849344 
L 276.226277 84.189221 
L 276.637691 83.084619 
L 277.049104 83.594435 
L 277.460518 81.555171 
L 277.871931 84.189221 
L 278.283344 84.104252 
L 278.694758 83.424497 
L 279.106171 83.424497 
L 279.517585 84.444129 
L 279.928998 84.868976 
L 280.340411 85.463761 
L 280.751825 86.99321 
L 281.163238 83.339527 
L 281.574652 82.489834 
L 281.986065 84.35916 
L 282.397478 85.293823 
L 282.808892 84.35916 
L 283.220305 85.293823 
L 283.631719 83.084619 
L 284.043132 84.953945 
L 284.454545 85.6337 
L 284.865959 83.679405 
L 285.277372 86.058547 
L 285.688786 83.934313 
L 286.100199 83.849344 
L 286.511612 84.27419 
L 287.334439 83.254558 
L 287.745853 85.71867 
L 288.568679 82.319895 
L 288.980093 84.019282 
L 289.391506 83.169589 
L 289.80292 84.019282 
L 290.214333 83.084619 
L 290.625747 86.058547 
L 291.03716 83.169589 
L 291.448573 85.463761 
L 291.859987 82.914681 
L 292.2714 83.084619 
L 293.094227 85.293823 
L 293.50564 83.764374 
L 293.917054 83.509466 
L 294.328467 83.679405 
L 294.739881 84.019282 
L 295.151294 84.868976 
L 295.562707 83.934313 
L 295.974121 83.509466 
L 296.385534 84.104252 
L 296.796948 81.470201 
L 297.208361 81.980018 
L 297.619774 83.254558 
L 298.031188 83.339527 
L 298.442601 82.99965 
L 298.854015 84.784007 
L 299.265428 85.038915 
L 299.676841 82.319895 
L 300.088255 83.339527 
L 300.499668 84.019282 
L 300.911082 82.99965 
L 301.322495 83.339527 
L 301.733908 80.535538 
L 302.145322 82.829711 
L 302.556735 81.215293 
L 303.379562 84.699037 
L 303.790975 81.64014 
L 304.202389 83.509466 
L 304.613802 80.960385 
L 305.025216 82.99965 
L 305.436629 81.555171 
L 305.848042 82.149956 
L 306.670869 82.744742 
L 307.082283 82.064987 
L 307.493696 82.744742 
L 307.905109 81.385232 
L 308.316523 83.169589 
L 308.727936 84.444129 
L 309.13935 81.810079 
L 309.550763 84.019282 
L 310.37359 83.169589 
L 310.785003 81.725109 
L 311.196417 82.99965 
L 311.60783 79.855783 
L 312.019244 85.123884 
L 312.430657 83.764374 
L 312.84207 81.810079 
L 313.253484 84.189221 
L 313.664897 83.424497 
L 314.487724 82.489834 
L 314.899137 85.293823 
L 315.310551 84.104252 
L 315.721964 81.300263 
L 316.133378 80.875416 
L 316.544791 84.699037 
L 316.956204 84.444129 
L 317.367618 82.574803 
L 317.779031 84.784007 
L 318.601858 82.489834 
L 319.013271 82.744742 
L 319.424685 84.868976 
L 319.836098 82.829711 
L 320.247512 84.189221 
L 320.658925 81.215293 
L 321.070338 84.529098 
L 321.481752 83.424497 
L 321.893165 84.529098 
L 322.304579 80.960385 
L 322.715992 83.084619 
L 323.127405 82.659772 
L 323.538819 82.574803 
L 323.950232 81.980018 
L 324.361646 82.659772 
L 324.773059 83.934313 
L 325.184472 83.679405 
L 325.595886 83.849344 
L 326.007299 83.424497 
L 326.418713 82.319895 
L 326.830126 82.234926 
L 327.241539 82.914681 
L 327.652953 80.620508 
L 328.064366 83.849344 
L 328.47578 82.574803 
L 329.298607 79.600875 
L 329.71002 82.149956 
L 330.121433 82.574803 
L 330.532847 80.790446 
L 330.94426 79.515906 
L 331.767087 81.980018 
L 332.1785 82.659772 
L 332.589914 84.35916 
L 333.001327 83.424497 
L 333.412741 81.045355 
L 333.824154 81.385232 
L 334.235567 81.130324 
L 335.058394 82.99965 
L 335.469808 81.895048 
L 335.881221 83.764374 
L 336.292634 81.810079 
L 336.704048 81.725109 
L 337.115461 81.980018 
L 337.526875 83.169589 
L 337.938288 81.215293 
L 338.349701 81.215293 
L 338.761115 82.149956 
L 339.172528 82.319895 
L 339.583942 81.980018 
L 339.995355 81.385232 
L 340.406768 79.515906 
L 340.818182 82.829711 
L 341.229595 80.960385 
L 341.641009 81.810079 
L 342.052422 84.104252 
L 342.875249 81.130324 
L 343.286662 80.450569 
L 343.698076 81.130324 
L 344.109489 79.855783 
L 344.520902 79.685845 
L 344.932316 80.110692 
L 345.343729 78.666212 
L 345.755143 81.385232 
L 346.166556 81.130324 
L 346.577969 81.215293 
L 346.989383 84.444129 
L 347.400796 82.489834 
L 347.81221 82.744742 
L 348.223623 79.515906 
L 348.635036 80.025722 
L 349.04645 84.868976 
L 349.457863 80.875416 
L 349.869277 82.234926 
L 350.692104 79.685845 
L 351.103517 80.110692 
L 351.51493 82.149956 
L 351.926344 80.025722 
L 352.337757 79.515906 
L 352.749171 81.215293 
L 353.160584 80.535538 
L 353.571997 78.156396 
L 353.983411 81.470201 
L 354.394824 80.790446 
L 354.806238 81.300263 
L 355.217651 79.345967 
L 355.629064 80.28063 
L 356.040478 80.195661 
L 356.451891 83.169589 
L 356.863305 79.091059 
L 357.274718 79.345967 
L 357.686131 81.385232 
L 358.097545 80.620508 
L 358.508958 81.725109 
L 358.920372 81.300263 
L 359.331785 81.810079 
L 359.743198 78.326335 
L 360.154612 80.450569 
L 360.566025 84.019282 
L 360.977439 82.574803 
L 361.388852 81.725109 
L 361.800265 82.99965 
L 362.211679 80.450569 
L 362.623092 81.385232 
L 363.034506 79.091059 
L 363.445919 78.666212 
L 363.857332 77.476641 
L 364.268746 81.725109 
L 364.680159 81.130324 
L 365.091573 79.176029 
L 365.914399 82.404864 
L 366.325813 80.705477 
L 366.737226 79.515906 
L 367.14864 80.28063 
L 367.560053 81.385232 
L 367.971466 80.28063 
L 368.38288 81.725109 
L 368.794293 79.855783 
L 369.205707 82.319895 
L 369.61712 81.725109 
L 370.028534 81.725109 
L 370.439947 79.685845 
L 370.85136 80.875416 
L 371.262774 81.215293 
L 371.674187 79.855783 
L 372.085601 80.195661 
L 372.497014 82.489834 
L 372.908427 81.045355 
L 373.319841 82.659772 
L 373.731254 80.535538 
L 374.142668 80.535538 
L 374.554081 80.3656 
L 374.965494 81.555171 
L 375.376908 78.241366 
L 376.199735 82.574803 
L 376.611148 78.581243 
L 377.433975 81.385232 
L 377.845388 79.855783 
L 378.256802 85.038915 
L 378.668215 82.489834 
L 379.079628 81.64014 
L 379.491042 79.176029 
L 379.902455 80.960385 
L 380.313869 81.895048 
L 380.725282 82.319895 
L 381.136695 80.025722 
L 381.548109 81.385232 
L 381.959522 81.470201 
L 382.370936 82.744742 
L 382.782349 81.385232 
L 383.193762 81.045355 
L 383.605176 80.875416 
L 384.016589 82.574803 
L 384.428003 79.091059 
L 384.839416 80.535538 
L 385.250829 81.555171 
L 385.662243 80.790446 
L 386.073656 82.234926 
L 386.48507 79.00609 
L 386.896483 79.091059 
L 387.307896 78.666212 
L 387.71931 81.980018 
L 388.542137 79.260998 
L 388.95355 79.770814 
L 389.364964 79.176029 
L 389.776377 79.430937 
L 390.18779 81.385232 
L 390.599204 82.064987 
L 391.010617 80.28063 
L 391.422031 79.940753 
L 391.833444 82.404864 
L 392.244857 80.450569 
L 392.656271 80.025722 
L 393.067684 78.411304 
L 393.479098 78.326335 
L 393.890511 81.300263 
L 394.301924 79.940753 
L 394.713338 79.176029 
L 395.124751 79.091059 
L 395.536165 80.450569 
L 395.947578 80.535538 
L 396.358991 81.045355 
L 396.770405 82.914681 
L 397.593232 80.28063 
L 398.004645 79.685845 
L 398.416058 77.561611 
L 398.827472 81.810079 
L 399.238885 78.666212 
L 399.650299 80.025722 
L 400.061712 80.195661 
L 400.473125 81.045355 
L 400.884539 80.450569 
L 401.295952 81.300263 
L 401.707366 80.875416 
L 402.118779 78.156396 
L 402.530192 79.260998 
L 402.941606 81.555171 
L 403.353019 81.300263 
L 403.764433 80.875416 
L 404.175846 81.385232 
L 404.587259 81.045355 
L 404.998673 80.450569 
L 405.410086 80.535538 
L 405.8215 80.3656 
L 406.232913 77.476641 
L 406.644326 78.666212 
L 407.05574 78.666212 
L 407.467153 79.515906 
L 408.28998 78.666212 
L 408.701393 80.3656 
L 409.112807 78.411304 
L 409.52422 80.110692 
L 409.935634 83.084619 
L 410.347047 79.940753 
L 410.758461 79.600875 
L 411.581287 81.895048 
L 411.992701 79.176029 
L 412.815528 78.836151 
L 413.226941 78.071427 
L 413.638354 79.430937 
L 414.049768 79.855783 
L 414.461181 80.535538 
L 414.872595 78.92112 
L 415.284008 79.685845 
L 415.695421 79.855783 
L 416.106835 79.770814 
L 416.518248 80.620508 
L 416.929662 79.176029 
L 417.752488 80.3656 
L 418.163902 79.685845 
L 418.575315 78.241366 
L 418.986729 82.404864 
L 419.398142 78.496274 
L 419.809555 80.875416 
L 420.220969 78.241366 
L 420.632382 79.855783 
L 421.043796 79.940753 
L 421.455209 79.430937 
L 422.278036 80.450569 
L 422.689449 79.515906 
L 423.100863 80.875416 
L 423.512276 80.28063 
L 423.923689 79.00609 
L 424.335103 80.110692 
L 424.746516 77.986457 
L 425.569343 82.149956 
L 425.980756 77.816519 
L 426.39217 79.855783 
L 426.803583 78.496274 
L 427.214997 78.071427 
L 427.62641 79.260998 
L 428.037823 79.345967 
L 428.449237 80.450569 
L 428.86065 78.156396 
L 429.272064 79.600875 
L 429.683477 81.470201 
L 430.506304 78.156396 
L 430.917717 79.940753 
L 431.329131 78.496274 
L 432.151958 77.221733 
L 432.563371 77.561611 
L 432.974784 79.091059 
L 433.386198 78.666212 
L 433.797611 79.515906 
L 434.209025 78.411304 
L 434.620438 80.535538 
L 435.031851 78.326335 
L 435.443265 78.241366 
L 435.854678 78.411304 
L 436.677505 75.267438 
L 437.088918 80.110692 
L 437.500332 77.136764 
L 437.911745 81.385232 
L 438.323159 80.960385 
L 438.734572 79.770814 
L 439.145985 79.345967 
L 439.557399 81.555171 
L 439.968812 79.345967 
L 440.380226 81.980018 
L 440.791639 80.620508 
L 441.203052 77.391672 
L 442.025879 78.751182 
L 442.437293 80.535538 
L 442.848706 77.64658 
L 443.260119 78.071427 
L 443.671533 77.561611 
L 444.082946 78.751182 
L 444.49436 80.450569 
L 444.905773 77.731549 
L 445.317186 78.071427 
L 445.7286 78.581243 
L 446.140013 77.986457 
L 446.551427 78.326335 
L 446.96284 79.176029 
L 447.374253 81.045355 
L 448.19708 80.535538 
L 448.608494 77.391672 
L 449.019907 76.966825 
L 449.431321 79.260998 
L 449.842734 78.751182 
L 450.254147 79.00609 
L 450.665561 83.849344 
L 451.076974 79.176029 
L 451.488388 80.195661 
L 452.311214 76.796886 
L 452.722628 79.00609 
L 453.134041 80.535538 
L 453.545455 78.071427 
L 453.956868 78.92112 
L 454.368281 79.176029 
L 454.779695 81.470201 
L 455.191108 79.770814 
L 455.602522 77.136764 
L 456.013935 78.496274 
L 456.425348 78.751182 
L 457.248175 80.3656 
L 457.659589 80.110692 
L 458.071002 76.626948 
L 458.482415 78.496274 
L 458.893829 77.391672 
L 459.305242 80.535538 
L 459.716656 80.28063 
L 460.128069 76.541978 
L 460.539482 78.581243 
L 460.950896 77.221733 
L 461.362309 78.241366 
L 461.773723 77.816519 
L 462.596549 79.00609 
L 463.007963 77.561611 
L 463.419376 79.770814 
L 463.83079 78.071427 
L 464.242203 79.430937 
L 464.653616 77.901488 
L 465.06503 79.430937 
L 465.476443 81.64014 
L 465.887857 78.581243 
L 466.29927 77.816519 
L 466.710683 78.411304 
L 467.122097 77.986457 
L 467.53351 79.515906 
L 467.944924 78.92112 
L 468.356337 79.855783 
L 468.76775 78.836151 
L 469.590577 78.92112 
L 470.001991 77.986457 
L 470.413404 78.241366 
L 471.236231 77.816519 
L 471.647644 80.705477 
L 472.059058 79.685845 
L 472.470471 80.28063 
L 472.881885 77.986457 
L 473.293298 78.581243 
L 473.704711 77.136764 
L 474.116125 78.241366 
L 474.527538 80.195661 
L 474.938952 79.345967 
L 475.350365 77.051794 
L 475.761778 78.751182 
L 476.173192 78.241366 
L 476.584605 80.620508 
L 476.996019 79.00609 
L 477.407432 80.535538 
L 477.818845 78.156396 
L 478.230259 79.00609 
L 478.641672 77.306703 
L 479.053086 80.705477 
L 479.875912 77.986457 
L 480.287326 78.751182 
L 480.698739 78.411304 
L 481.110153 77.64658 
L 481.521566 78.241366 
L 481.932979 79.176029 
L 482.344393 78.411304 
L 482.755806 79.430937 
L 483.16722 77.561611 
L 483.578633 78.326335 
L 483.990046 78.666212 
L 484.40146 79.940753 
L 484.812873 79.515906 
L 485.224287 77.64658 
L 485.6357 79.940753 
L 486.047113 78.156396 
L 486.458527 77.306703 
L 486.86994 77.901488 
L 487.281354 79.940753 
L 487.692767 79.260998 
L 488.10418 76.457009 
L 488.515594 78.326335 
L 488.927007 78.071427 
L 489.338421 79.770814 
L 489.749834 77.476641 
L 490.161248 79.940753 
L 490.572661 77.391672 
L 490.984074 78.666212 
L 491.395488 78.326335 
L 491.806901 79.770814 
L 492.218315 79.260998 
L 492.629728 78.411304 
L 493.041141 76.881856 
L 493.452555 79.260998 
L 493.863968 80.875416 
L 494.275382 78.326335 
L 494.686795 77.64658 
L 495.098208 78.496274 
L 495.509622 78.156396 
L 495.921035 78.411304 
L 496.332449 78.326335 
L 496.743862 76.202101 
L 497.155275 77.64658 
L 497.566689 80.195661 
L 497.978102 77.136764 
L 498.389516 77.306703 
L 498.800929 78.156396 
L 499.212342 77.64658 
L 499.623756 79.430937 
L 500.035169 76.541978 
L 500.446583 78.411304 
L 500.857996 78.326335 
L 501.269409 76.881856 
L 501.680823 79.260998 
L 502.092236 79.091059 
L 502.50365 79.176029 
L 502.915063 79.685845 
L 503.326476 78.496274 
L 503.73789 78.496274 
L 504.149303 79.940753 
L 504.560717 77.136764 
L 504.97213 76.796886 
L 505.383543 76.881856 
L 505.794957 79.600875 
L 506.20637 78.241366 
L 506.617784 77.391672 
L 507.852024 79.091059 
L 508.263437 78.751182 
L 508.674851 80.450569 
L 509.086264 78.581243 
L 509.497678 79.600875 
L 509.909091 78.326335 
L 510.320504 79.515906 
L 510.731918 77.136764 
L 511.143331 77.986457 
L 511.554745 76.711917 
L 511.966158 77.901488 
L 512.377571 77.64658 
L 513.200398 79.00609 
L 513.611812 79.176029 
L 514.023225 78.581243 
L 514.434638 78.581243 
L 514.846052 77.986457 
L 515.257465 79.176029 
L 515.668879 77.986457 
L 516.080292 77.816519 
L 516.491705 78.751182 
L 516.903119 78.751182 
L 517.314532 78.411304 
L 517.725946 77.64658 
L 518.137359 77.476641 
L 518.548772 77.476641 
L 518.960186 78.581243 
L 519.371599 76.881856 
L 519.783013 76.37204 
L 520.194426 77.64658 
L 520.605839 75.862223 
L 521.017253 75.437377 
L 521.428666 78.241366 
L 522.251493 77.221733 
L 522.662906 78.326335 
L 523.07432 77.901488 
L 523.485733 77.816519 
L 523.897147 79.685845 
L 524.719973 79.855783 
L 525.131387 78.411304 
L 525.5428 75.777254 
L 525.954214 82.404864 
L 526.365627 77.986457 
L 526.77704 79.515906 
L 527.188454 77.476641 
L 527.599867 78.92112 
L 528.011281 77.901488 
L 528.422694 79.00609 
L 528.834107 79.600875 
L 529.656934 78.666212 
L 530.068348 78.581243 
L 530.479761 77.391672 
L 530.891175 77.306703 
L 531.302588 78.666212 
L 531.714001 81.385232 
L 532.125415 76.117131 
L 532.536828 79.345967 
L 533.359655 76.626948 
L 533.771068 76.966825 
L 534.182482 78.92112 
L 534.593895 76.202101 
L 535.005309 76.541978 
L 535.416722 76.28707 
L 535.828135 77.391672 
L 536.239549 77.986457 
L 536.650962 78.836151 
L 537.062376 79.00609 
L 537.473789 77.306703 
L 537.885202 78.496274 
L 538.296616 76.711917 
L 538.708029 78.156396 
L 539.119443 76.37204 
L 539.530856 77.986457 
L 539.942269 75.862223 
L 540.353683 75.777254 
L 540.765096 77.816519 
L 541.587923 75.692285 
L 541.999336 76.37204 
L 542.41075 80.28063 
L 542.822163 77.391672 
L 543.233577 77.221733 
L 543.64499 79.940753 
L 544.056403 76.966825 
L 544.467817 80.450569 
L 544.87923 76.541978 
L 545.290644 78.496274 
L 545.702057 77.731549 
L 546.11347 77.986457 
L 546.524884 77.391672 
L 546.936297 78.92112 
L 547.347711 77.051794 
L 547.759124 78.496274 
L 548.170537 76.457009 
L 548.581951 77.64658 
L 548.993364 79.855783 
L 549.404778 76.711917 
L 549.816191 75.352407 
L 550.639018 78.496274 
L 551.050431 78.496274 
L 551.461845 75.522346 
L 551.873258 77.476641 
L 552.284672 76.117131 
L 552.696085 76.966825 
L 553.107498 76.711917 
L 553.518912 79.940753 
L 553.930325 78.666212 
L 554.341739 77.901488 
L 554.753152 79.091059 
L 555.164565 76.881856 
L 555.575979 78.836151 
L 555.987392 77.136764 
L 556.398806 78.581243 
L 556.810219 77.731549 
L 557.221632 77.306703 
L 557.633046 77.901488 
L 558.044459 78.92112 
L 558.455873 77.561611 
L 558.867286 76.711917 
L 559.690113 78.241366 
L 560.101526 77.306703 
L 560.51294 78.92112 
L 560.924353 76.881856 
L 561.335766 77.561611 
L 561.74718 77.561611 
L 562.158593 77.901488 
L 562.570007 74.672652 
L 562.98142 77.901488 
L 563.392833 77.816519 
L 563.804247 75.352407 
L 564.21566 78.241366 
L 564.627074 76.881856 
L 565.038487 77.731549 
L 565.4499 79.345967 
L 565.861314 78.92112 
L 566.272727 79.855783 
L 567.095554 76.796886 
L 567.506967 77.816519 
L 567.918381 77.306703 
L 568.329794 77.561611 
L 568.741208 77.64658 
L 569.564035 79.515906 
L 569.975448 76.28707 
L 570.386861 78.411304 
L 570.798275 78.666212 
L 571.209688 76.541978 
L 571.621102 79.00609 
L 572.032515 78.071427 
L 572.443928 78.496274 
L 572.855342 76.541978 
L 573.266755 78.581243 
L 573.678169 75.097499 
L 574.089582 79.176029 
L 574.500995 78.581243 
L 574.912409 75.777254 
L 575.323822 77.476641 
L 575.735236 76.032162 
L 576.146649 79.091059 
L 576.558062 77.731549 
L 576.969476 78.666212 
L 577.380889 75.862223 
L 577.792303 78.156396 
L 578.203716 77.306703 
L 578.615129 78.071427 
L 579.026543 78.326335 
L 579.437956 77.561611 
L 579.84937 78.666212 
L 580.260783 77.476641 
L 580.672196 77.051794 
L 581.08361 78.92112 
L 581.495023 79.00609 
L 581.906437 76.796886 
L 582.31785 78.836151 
L 582.729263 77.986457 
L 583.140677 76.711917 
L 583.55209 76.796886 
L 583.963504 77.986457 
L 584.374917 77.731549 
L 584.78633 76.202101 
L 585.197744 77.391672 
L 585.609157 77.476641 
L 586.431984 75.692285 
L 586.843397 75.437377 
L 587.254811 77.306703 
L 587.666224 76.881856 
L 588.077638 77.391672 
L 588.489051 78.411304 
L 588.900464 78.92112 
L 589.311878 80.960385 
L 589.723291 77.64658 
L 590.134705 76.032162 
L 590.546118 77.391672 
L 590.957532 76.202101 
L 591.368945 76.37204 
L 591.780358 78.581243 
L 592.191772 78.836151 
L 592.603185 75.692285 
L 593.426012 79.940753 
L 593.837425 77.221733 
L 594.248839 78.411304 
L 594.660252 76.626948 
L 595.071666 78.241366 
L 595.483079 78.156396 
L 595.894492 78.92112 
L 596.305906 77.136764 
L 596.717319 77.306703 
L 597.540146 78.751182 
L 597.951559 77.221733 
L 598.362973 77.986457 
L 598.774386 78.156396 
L 599.1858 76.881856 
L 599.597213 78.751182 
L 600.008626 77.901488 
L 600.42004 78.496274 
L 600.831453 76.457009 
L 601.242867 75.01253 
L 601.65428 78.666212 
L 602.065693 76.711917 
L 602.477107 78.581243 
L 602.88852 75.182468 
L 603.299934 79.260998 
L 603.711347 77.64658 
L 604.12276 79.00609 
L 604.534174 75.692285 
L 604.945587 76.711917 
L 605.357001 78.836151 
L 605.768414 76.457009 
L 606.179827 79.855783 
L 606.591241 78.411304 
L 607.002654 77.986457 
L 607.414068 79.00609 
L 607.825481 76.541978 
L 608.236894 76.37204 
L 608.648308 78.666212 
L 609.059721 76.28707 
L 609.471135 77.136764 
L 609.882548 76.626948 
L 610.293962 78.666212 
L 610.705375 77.051794 
L 611.116788 76.966825 
L 611.528202 77.391672 
L 611.939615 77.306703 
L 612.351029 78.666212 
L 612.762442 79.176029 
L 613.585269 74.332775 
L 613.996682 78.496274 
L 614.408096 75.01253 
L 614.819509 79.00609 
L 615.230922 76.626948 
L 615.642336 77.986457 
L 616.053749 75.522346 
L 616.465163 78.156396 
L 616.876576 79.515906 
L 617.287989 78.326335 
L 617.699403 75.947193 
L 618.110816 76.796886 
L 618.52223 76.117131 
L 618.933643 77.64658 
L 619.345056 78.326335 
L 619.75647 75.777254 
L 620.167883 78.751182 
L 620.579297 75.947193 
L 620.99071 78.071427 
L 621.402123 77.136764 
L 621.813537 77.391672 
L 622.22495 78.071427 
L 622.636364 77.306703 
L 622.636364 77.306703 
" style="fill:none;stroke:#ff7f0e;stroke-linecap:square;stroke-width:0.5;"/>
   </g>
   <g id="patch_3">
    <path d="M 90 315 
L 90 43.2 
" style="fill:none;stroke:#000000;stroke-linecap:square;stroke-linejoin:miter;stroke-width:0.8;"/>
   </g>
   <g id="patch_4">
    <path d="M 648 315 
L 648 43.2 
" style="fill:none;stroke:#000000;stroke-linecap:square;stroke-linejoin:miter;stroke-width:0.8;"/>
   </g>
   <g id="patch_5">
    <path d="M 90 315 
L 648 315 
" style="fill:none;stroke:#000000;stroke-linecap:square;stroke-linejoin:miter;stroke-width:0.8;"/>
   </g>
   <g id="patch_6">
    <path d="M 90 43.2 
L 648 43.2 
" style="fill:none;stroke:#000000;stroke-linecap:square;stroke-linejoin:miter;stroke-width:0.8;"/>
   </g>
   <g id="text_18">
    <!-- accuracy -->
    <g transform="translate(341.92875 37.2)scale(0.12 -0.12)">
     <use xlink:href="#DejaVuSans-97"/>
     <use x="61.279297" xlink:href="#DejaVuSans-99"/>
     <use x="116.259766" xlink:href="#DejaVuSans-99"/>
     <use x="171.240234" xlink:href="#DejaVuSans-117"/>
     <use x="234.619141" xlink:href="#DejaVuSans-114"/>
     <use x="275.732422" xlink:href="#DejaVuSans-97"/>
     <use x="337.011719" xlink:href="#DejaVuSans-99"/>
     <use x="391.992188" xlink:href="#DejaVuSans-121"/>
    </g>
   </g>
   <g id="legend_1">
    <g id="patch_7">
     <path d="M 97 80.55625 
L 169.153125 80.55625 
Q 171.153125 80.55625 171.153125 78.55625 
L 171.153125 50.2 
Q 171.153125 48.2 169.153125 48.2 
L 97 48.2 
Q 95 48.2 95 50.2 
L 95 78.55625 
Q 95 80.55625 97 80.55625 
z
" style="fill:#ffffff;opacity:0.8;stroke:#cccccc;stroke-linejoin:miter;"/>
    </g>
    <g id="line2d_33">
     <path d="M 99 56.298437 
L 119 56.298437 
" style="fill:none;stroke:#1f77b4;stroke-linecap:square;stroke-width:0.5;"/>
    </g>
    <g id="line2d_34"/>
    <g id="text_19">
     <!-- train -->
     <defs>
      <path d="M 18.3125 70.21875 
L 18.3125 54.6875 
L 36.8125 54.6875 
L 36.8125 47.703125 
L 18.3125 47.703125 
L 18.3125 18.015625 
Q 18.3125 11.328125 20.140625 9.421875 
Q 21.96875 7.515625 27.59375 7.515625 
L 36.8125 7.515625 
L 36.8125 0 
L 27.59375 0 
Q 17.1875 0 13.234375 3.875 
Q 9.28125 7.765625 9.28125 18.015625 
L 9.28125 47.703125 
L 2.6875 47.703125 
L 2.6875 54.6875 
L 9.28125 54.6875 
L 9.28125 70.21875 
z
" id="DejaVuSans-116"/>
      <path d="M 9.421875 54.6875 
L 18.40625 54.6875 
L 18.40625 0 
L 9.421875 0 
z
M 9.421875 75.984375 
L 18.40625 75.984375 
L 18.40625 64.59375 
L 9.421875 64.59375 
z
" id="DejaVuSans-105"/>
      <path d="M 54.890625 33.015625 
L 54.890625 0 
L 45.90625 0 
L 45.90625 32.71875 
Q 45.90625 40.484375 42.875 44.328125 
Q 39.84375 48.1875 33.796875 48.1875 
Q 26.515625 48.1875 22.3125 43.546875 
Q 18.109375 38.921875 18.109375 30.90625 
L 18.109375 0 
L 9.078125 0 
L 9.078125 54.6875 
L 18.109375 54.6875 
L 18.109375 46.1875 
Q 21.34375 51.125 25.703125 53.5625 
Q 30.078125 56 35.796875 56 
Q 45.21875 56 50.046875 50.171875 
Q 54.890625 44.34375 54.890625 33.015625 
z
" id="DejaVuSans-110"/>
     </defs>
     <g transform="translate(127 59.798437)scale(0.1 -0.1)">
      <use xlink:href="#DejaVuSans-116"/>
      <use x="39.208984" xlink:href="#DejaVuSans-114"/>
      <use x="80.322266" xlink:href="#DejaVuSans-97"/>
      <use x="141.601562" xlink:href="#DejaVuSans-105"/>
      <use x="169.384766" xlink:href="#DejaVuSans-110"/>
     </g>
    </g>
    <g id="line2d_35">
     <path d="M 99 70.976562 
L 119 70.976562 
" style="fill:none;stroke:#ff7f0e;stroke-linecap:square;stroke-width:0.5;"/>
    </g>
    <g id="line2d_36"/>
    <g id="text_20">
     <!-- validate -->
     <defs>
      <path d="M 2.984375 54.6875 
L 12.5 54.6875 
L 29.59375 8.796875 
L 46.6875 54.6875 
L 56.203125 54.6875 
L 35.6875 0 
L 23.484375 0 
z
" id="DejaVuSans-118"/>
      <path d="M 9.421875 75.984375 
L 18.40625 75.984375 
L 18.40625 0 
L 9.421875 0 
z
" id="DejaVuSans-108"/>
      <path d="M 45.40625 46.390625 
L 45.40625 75.984375 
L 54.390625 75.984375 
L 54.390625 0 
L 45.40625 0 
L 45.40625 8.203125 
Q 42.578125 3.328125 38.25 0.953125 
Q 33.9375 -1.421875 27.875 -1.421875 
Q 17.96875 -1.421875 11.734375 6.484375 
Q 5.515625 14.40625 5.515625 27.296875 
Q 5.515625 40.1875 11.734375 48.09375 
Q 17.96875 56 27.875 56 
Q 33.9375 56 38.25 53.625 
Q 42.578125 51.265625 45.40625 46.390625 
z
M 14.796875 27.296875 
Q 14.796875 17.390625 18.875 11.75 
Q 22.953125 6.109375 30.078125 6.109375 
Q 37.203125 6.109375 41.296875 11.75 
Q 45.40625 17.390625 45.40625 27.296875 
Q 45.40625 37.203125 41.296875 42.84375 
Q 37.203125 48.484375 30.078125 48.484375 
Q 22.953125 48.484375 18.875 42.84375 
Q 14.796875 37.203125 14.796875 27.296875 
z
" id="DejaVuSans-100"/>
     </defs>
     <g transform="translate(127 74.476562)scale(0.1 -0.1)">
      <use xlink:href="#DejaVuSans-118"/>
      <use x="59.179688" xlink:href="#DejaVuSans-97"/>
      <use x="120.458984" xlink:href="#DejaVuSans-108"/>
      <use x="148.242188" xlink:href="#DejaVuSans-105"/>
      <use x="176.025391" xlink:href="#DejaVuSans-100"/>
      <use x="239.501953" xlink:href="#DejaVuSans-97"/>
      <use x="300.78125" xlink:href="#DejaVuSans-116"/>
      <use x="339.990234" xlink:href="#DejaVuSans-101"/>
     </g>
    </g>
   </g>
  </g>
 </g>
 <defs>
  <clipPath id="p3983bcfad1">
   <rect height="271.8" width="558" x="90" y="43.2"/>
  </clipPath>
 </defs>
</svg>
