<?xml version="1.0" encoding="utf-8" standalone="no"?>
<!DOCTYPE svg PUBLIC "-//W3C//DTD SVG 1.1//EN"
  "http://www.w3.org/Graphics/SVG/1.1/DTD/svg11.dtd">
<!-- Created with matplotlib (https://matplotlib.org/) -->
<svg height="360pt" version="1.1" viewBox="0 0 720 360" width="720pt" xmlns="http://www.w3.org/2000/svg" xmlns:xlink="http://www.w3.org/1999/xlink">
 <defs>
  <style type="text/css">
*{stroke-linecap:butt;stroke-linejoin:round;}
  </style>
 </defs>
 <g id="figure_1">
  <g id="patch_1">
   <path d="M 0 360 
L 720 360 
L 720 0 
L 0 0 
z
" style="fill:#ffffff;"/>
  </g>
  <g id="axes_1">
   <g id="patch_2">
    <path d="M 90 315 
L 648 315 
L 648 43.2 
L 90 43.2 
z
" style="fill:#ffffff;"/>
   </g>
   <g id="matplotlib.axis_1">
    <g id="xtick_1">
     <g id="line2d_1">
      <path clip-path="url(#p925ba61db4)" d="M 115.363636 315 
L 115.363636 43.2 
" style="fill:none;stroke:#b0b0b0;stroke-linecap:square;stroke-width:0.8;"/>
     </g>
     <g id="line2d_2">
      <defs>
       <path d="M 0 0 
L 0 3.5 
" id="m99857f2d0d" style="stroke:#000000;stroke-width:0.8;"/>
      </defs>
      <g>
       <use style="stroke:#000000;stroke-width:0.8;" x="115.363636" xlink:href="#m99857f2d0d" y="315"/>
      </g>
     </g>
     <g id="text_1">
      <!-- 0 -->
      <defs>
       <path d="M 31.78125 66.40625 
Q 24.171875 66.40625 20.328125 58.90625 
Q 16.5 51.421875 16.5 36.375 
Q 16.5 21.390625 20.328125 13.890625 
Q 24.171875 6.390625 31.78125 6.390625 
Q 39.453125 6.390625 43.28125 13.890625 
Q 47.125 21.390625 47.125 36.375 
Q 47.125 51.421875 43.28125 58.90625 
Q 39.453125 66.40625 31.78125 66.40625 
z
M 31.78125 74.21875 
Q 44.046875 74.21875 50.515625 64.515625 
Q 56.984375 54.828125 56.984375 36.375 
Q 56.984375 17.96875 50.515625 8.265625 
Q 44.046875 -1.421875 31.78125 -1.421875 
Q 19.53125 -1.421875 13.0625 8.265625 
Q 6.59375 17.96875 6.59375 36.375 
Q 6.59375 54.828125 13.0625 64.515625 
Q 19.53125 74.21875 31.78125 74.21875 
z
" id="DejaVuSans-48"/>
      </defs>
      <g transform="translate(112.182386 329.598437)scale(0.1 -0.1)">
       <use xlink:href="#DejaVuSans-48"/>
      </g>
     </g>
    </g>
    <g id="xtick_2">
     <g id="line2d_3">
      <path clip-path="url(#p925ba61db4)" d="M 192.456756 315 
L 192.456756 43.2 
" style="fill:none;stroke:#b0b0b0;stroke-linecap:square;stroke-width:0.8;"/>
     </g>
     <g id="line2d_4">
      <g>
       <use style="stroke:#000000;stroke-width:0.8;" x="192.456756" xlink:href="#m99857f2d0d" y="315"/>
      </g>
     </g>
     <g id="text_2">
      <!-- 100 -->
      <defs>
       <path d="M 12.40625 8.296875 
L 28.515625 8.296875 
L 28.515625 63.921875 
L 10.984375 60.40625 
L 10.984375 69.390625 
L 28.421875 72.90625 
L 38.28125 72.90625 
L 38.28125 8.296875 
L 54.390625 8.296875 
L 54.390625 0 
L 12.40625 0 
z
" id="DejaVuSans-49"/>
      </defs>
      <g transform="translate(182.913006 329.598437)scale(0.1 -0.1)">
       <use xlink:href="#DejaVuSans-49"/>
       <use x="63.623047" xlink:href="#DejaVuSans-48"/>
       <use x="127.246094" xlink:href="#DejaVuSans-48"/>
      </g>
     </g>
    </g>
    <g id="xtick_3">
     <g id="line2d_5">
      <path clip-path="url(#p925ba61db4)" d="M 269.549876 315 
L 269.549876 43.2 
" style="fill:none;stroke:#b0b0b0;stroke-linecap:square;stroke-width:0.8;"/>
     </g>
     <g id="line2d_6">
      <g>
       <use style="stroke:#000000;stroke-width:0.8;" x="269.549876" xlink:href="#m99857f2d0d" y="315"/>
      </g>
     </g>
     <g id="text_3">
      <!-- 200 -->
      <defs>
       <path d="M 19.1875 8.296875 
L 53.609375 8.296875 
L 53.609375 0 
L 7.328125 0 
L 7.328125 8.296875 
Q 12.9375 14.109375 22.625 23.890625 
Q 32.328125 33.6875 34.8125 36.53125 
Q 39.546875 41.84375 41.421875 45.53125 
Q 43.3125 49.21875 43.3125 52.78125 
Q 43.3125 58.59375 39.234375 62.25 
Q 35.15625 65.921875 28.609375 65.921875 
Q 23.96875 65.921875 18.8125 64.3125 
Q 13.671875 62.703125 7.8125 59.421875 
L 7.8125 69.390625 
Q 13.765625 71.78125 18.9375 73 
Q 24.125 74.21875 28.421875 74.21875 
Q 39.75 74.21875 46.484375 68.546875 
Q 53.21875 62.890625 53.21875 53.421875 
Q 53.21875 48.921875 51.53125 44.890625 
Q 49.859375 40.875 45.40625 35.40625 
Q 44.1875 33.984375 37.640625 27.21875 
Q 31.109375 20.453125 19.1875 8.296875 
z
" id="DejaVuSans-50"/>
      </defs>
      <g transform="translate(260.006126 329.598437)scale(0.1 -0.1)">
       <use xlink:href="#DejaVuSans-50"/>
       <use x="63.623047" xlink:href="#DejaVuSans-48"/>
       <use x="127.246094" xlink:href="#DejaVuSans-48"/>
      </g>
     </g>
    </g>
    <g id="xtick_4">
     <g id="line2d_7">
      <path clip-path="url(#p925ba61db4)" d="M 346.642995 315 
L 346.642995 43.2 
" style="fill:none;stroke:#b0b0b0;stroke-linecap:square;stroke-width:0.8;"/>
     </g>
     <g id="line2d_8">
      <g>
       <use style="stroke:#000000;stroke-width:0.8;" x="346.642995" xlink:href="#m99857f2d0d" y="315"/>
      </g>
     </g>
     <g id="text_4">
      <!-- 300 -->
      <defs>
       <path d="M 40.578125 39.3125 
Q 47.65625 37.796875 51.625 33 
Q 55.609375 28.21875 55.609375 21.1875 
Q 55.609375 10.40625 48.1875 4.484375 
Q 40.765625 -1.421875 27.09375 -1.421875 
Q 22.515625 -1.421875 17.65625 -0.515625 
Q 12.796875 0.390625 7.625 2.203125 
L 7.625 11.71875 
Q 11.71875 9.328125 16.59375 8.109375 
Q 21.484375 6.890625 26.8125 6.890625 
Q 36.078125 6.890625 40.9375 10.546875 
Q 45.796875 14.203125 45.796875 21.1875 
Q 45.796875 27.640625 41.28125 31.265625 
Q 36.765625 34.90625 28.71875 34.90625 
L 20.21875 34.90625 
L 20.21875 43.015625 
L 29.109375 43.015625 
Q 36.375 43.015625 40.234375 45.921875 
Q 44.09375 48.828125 44.09375 54.296875 
Q 44.09375 59.90625 40.109375 62.90625 
Q 36.140625 65.921875 28.71875 65.921875 
Q 24.65625 65.921875 20.015625 65.03125 
Q 15.375 64.15625 9.8125 62.3125 
L 9.8125 71.09375 
Q 15.4375 72.65625 20.34375 73.4375 
Q 25.25 74.21875 29.59375 74.21875 
Q 40.828125 74.21875 47.359375 69.109375 
Q 53.90625 64.015625 53.90625 55.328125 
Q 53.90625 49.265625 50.4375 45.09375 
Q 46.96875 40.921875 40.578125 39.3125 
z
" id="DejaVuSans-51"/>
      </defs>
      <g transform="translate(337.099245 329.598437)scale(0.1 -0.1)">
       <use xlink:href="#DejaVuSans-51"/>
       <use x="63.623047" xlink:href="#DejaVuSans-48"/>
       <use x="127.246094" xlink:href="#DejaVuSans-48"/>
      </g>
     </g>
    </g>
    <g id="xtick_5">
     <g id="line2d_9">
      <path clip-path="url(#p925ba61db4)" d="M 423.736115 315 
L 423.736115 43.2 
" style="fill:none;stroke:#b0b0b0;stroke-linecap:square;stroke-width:0.8;"/>
     </g>
     <g id="line2d_10">
      <g>
       <use style="stroke:#000000;stroke-width:0.8;" x="423.736115" xlink:href="#m99857f2d0d" y="315"/>
      </g>
     </g>
     <g id="text_5">
      <!-- 400 -->
      <defs>
       <path d="M 37.796875 64.3125 
L 12.890625 25.390625 
L 37.796875 25.390625 
z
M 35.203125 72.90625 
L 47.609375 72.90625 
L 47.609375 25.390625 
L 58.015625 25.390625 
L 58.015625 17.1875 
L 47.609375 17.1875 
L 47.609375 0 
L 37.796875 0 
L 37.796875 17.1875 
L 4.890625 17.1875 
L 4.890625 26.703125 
z
" id="DejaVuSans-52"/>
      </defs>
      <g transform="translate(414.192365 329.598437)scale(0.1 -0.1)">
       <use xlink:href="#DejaVuSans-52"/>
       <use x="63.623047" xlink:href="#DejaVuSans-48"/>
       <use x="127.246094" xlink:href="#DejaVuSans-48"/>
      </g>
     </g>
    </g>
    <g id="xtick_6">
     <g id="line2d_11">
      <path clip-path="url(#p925ba61db4)" d="M 500.829235 315 
L 500.829235 43.2 
" style="fill:none;stroke:#b0b0b0;stroke-linecap:square;stroke-width:0.8;"/>
     </g>
     <g id="line2d_12">
      <g>
       <use style="stroke:#000000;stroke-width:0.8;" x="500.829235" xlink:href="#m99857f2d0d" y="315"/>
      </g>
     </g>
     <g id="text_6">
      <!-- 500 -->
      <defs>
       <path d="M 10.796875 72.90625 
L 49.515625 72.90625 
L 49.515625 64.59375 
L 19.828125 64.59375 
L 19.828125 46.734375 
Q 21.96875 47.46875 24.109375 47.828125 
Q 26.265625 48.1875 28.421875 48.1875 
Q 40.625 48.1875 47.75 41.5 
Q 54.890625 34.8125 54.890625 23.390625 
Q 54.890625 11.625 47.5625 5.09375 
Q 40.234375 -1.421875 26.90625 -1.421875 
Q 22.3125 -1.421875 17.546875 -0.640625 
Q 12.796875 0.140625 7.71875 1.703125 
L 7.71875 11.625 
Q 12.109375 9.234375 16.796875 8.0625 
Q 21.484375 6.890625 26.703125 6.890625 
Q 35.15625 6.890625 40.078125 11.328125 
Q 45.015625 15.765625 45.015625 23.390625 
Q 45.015625 31 40.078125 35.4375 
Q 35.15625 39.890625 26.703125 39.890625 
Q 22.75 39.890625 18.8125 39.015625 
Q 14.890625 38.140625 10.796875 36.28125 
z
" id="DejaVuSans-53"/>
      </defs>
      <g transform="translate(491.285485 329.598437)scale(0.1 -0.1)">
       <use xlink:href="#DejaVuSans-53"/>
       <use x="63.623047" xlink:href="#DejaVuSans-48"/>
       <use x="127.246094" xlink:href="#DejaVuSans-48"/>
      </g>
     </g>
    </g>
    <g id="xtick_7">
     <g id="line2d_13">
      <path clip-path="url(#p925ba61db4)" d="M 577.922354 315 
L 577.922354 43.2 
" style="fill:none;stroke:#b0b0b0;stroke-linecap:square;stroke-width:0.8;"/>
     </g>
     <g id="line2d_14">
      <g>
       <use style="stroke:#000000;stroke-width:0.8;" x="577.922354" xlink:href="#m99857f2d0d" y="315"/>
      </g>
     </g>
     <g id="text_7">
      <!-- 600 -->
      <defs>
       <path d="M 33.015625 40.375 
Q 26.375 40.375 22.484375 35.828125 
Q 18.609375 31.296875 18.609375 23.390625 
Q 18.609375 15.53125 22.484375 10.953125 
Q 26.375 6.390625 33.015625 6.390625 
Q 39.65625 6.390625 43.53125 10.953125 
Q 47.40625 15.53125 47.40625 23.390625 
Q 47.40625 31.296875 43.53125 35.828125 
Q 39.65625 40.375 33.015625 40.375 
z
M 52.59375 71.296875 
L 52.59375 62.3125 
Q 48.875 64.0625 45.09375 64.984375 
Q 41.3125 65.921875 37.59375 65.921875 
Q 27.828125 65.921875 22.671875 59.328125 
Q 17.53125 52.734375 16.796875 39.40625 
Q 19.671875 43.65625 24.015625 45.921875 
Q 28.375 48.1875 33.59375 48.1875 
Q 44.578125 48.1875 50.953125 41.515625 
Q 57.328125 34.859375 57.328125 23.390625 
Q 57.328125 12.15625 50.6875 5.359375 
Q 44.046875 -1.421875 33.015625 -1.421875 
Q 20.359375 -1.421875 13.671875 8.265625 
Q 6.984375 17.96875 6.984375 36.375 
Q 6.984375 53.65625 15.1875 63.9375 
Q 23.390625 74.21875 37.203125 74.21875 
Q 40.921875 74.21875 44.703125 73.484375 
Q 48.484375 72.75 52.59375 71.296875 
z
" id="DejaVuSans-54"/>
      </defs>
      <g transform="translate(568.378604 329.598437)scale(0.1 -0.1)">
       <use xlink:href="#DejaVuSans-54"/>
       <use x="63.623047" xlink:href="#DejaVuSans-48"/>
       <use x="127.246094" xlink:href="#DejaVuSans-48"/>
      </g>
     </g>
    </g>
    <g id="text_8">
     <!-- epoch -->
     <defs>
      <path d="M 56.203125 29.59375 
L 56.203125 25.203125 
L 14.890625 25.203125 
Q 15.484375 15.921875 20.484375 11.0625 
Q 25.484375 6.203125 34.421875 6.203125 
Q 39.59375 6.203125 44.453125 7.46875 
Q 49.3125 8.734375 54.109375 11.28125 
L 54.109375 2.78125 
Q 49.265625 0.734375 44.1875 -0.34375 
Q 39.109375 -1.421875 33.890625 -1.421875 
Q 20.796875 -1.421875 13.15625 6.1875 
Q 5.515625 13.8125 5.515625 26.8125 
Q 5.515625 40.234375 12.765625 48.109375 
Q 20.015625 56 32.328125 56 
Q 43.359375 56 49.78125 48.890625 
Q 56.203125 41.796875 56.203125 29.59375 
z
M 47.21875 32.234375 
Q 47.125 39.59375 43.09375 43.984375 
Q 39.0625 48.390625 32.421875 48.390625 
Q 24.90625 48.390625 20.390625 44.140625 
Q 15.875 39.890625 15.1875 32.171875 
z
" id="DejaVuSans-101"/>
      <path d="M 18.109375 8.203125 
L 18.109375 -20.796875 
L 9.078125 -20.796875 
L 9.078125 54.6875 
L 18.109375 54.6875 
L 18.109375 46.390625 
Q 20.953125 51.265625 25.265625 53.625 
Q 29.59375 56 35.59375 56 
Q 45.5625 56 51.78125 48.09375 
Q 58.015625 40.1875 58.015625 27.296875 
Q 58.015625 14.40625 51.78125 6.484375 
Q 45.5625 -1.421875 35.59375 -1.421875 
Q 29.59375 -1.421875 25.265625 0.953125 
Q 20.953125 3.328125 18.109375 8.203125 
z
M 48.6875 27.296875 
Q 48.6875 37.203125 44.609375 42.84375 
Q 40.53125 48.484375 33.40625 48.484375 
Q 26.265625 48.484375 22.1875 42.84375 
Q 18.109375 37.203125 18.109375 27.296875 
Q 18.109375 17.390625 22.1875 11.75 
Q 26.265625 6.109375 33.40625 6.109375 
Q 40.53125 6.109375 44.609375 11.75 
Q 48.6875 17.390625 48.6875 27.296875 
z
" id="DejaVuSans-112"/>
      <path d="M 30.609375 48.390625 
Q 23.390625 48.390625 19.1875 42.75 
Q 14.984375 37.109375 14.984375 27.296875 
Q 14.984375 17.484375 19.15625 11.84375 
Q 23.34375 6.203125 30.609375 6.203125 
Q 37.796875 6.203125 41.984375 11.859375 
Q 46.1875 17.53125 46.1875 27.296875 
Q 46.1875 37.015625 41.984375 42.703125 
Q 37.796875 48.390625 30.609375 48.390625 
z
M 30.609375 56 
Q 42.328125 56 49.015625 48.375 
Q 55.71875 40.765625 55.71875 27.296875 
Q 55.71875 13.875 49.015625 6.21875 
Q 42.328125 -1.421875 30.609375 -1.421875 
Q 18.84375 -1.421875 12.171875 6.21875 
Q 5.515625 13.875 5.515625 27.296875 
Q 5.515625 40.765625 12.171875 48.375 
Q 18.84375 56 30.609375 56 
z
" id="DejaVuSans-111"/>
      <path d="M 48.78125 52.59375 
L 48.78125 44.1875 
Q 44.96875 46.296875 41.140625 47.34375 
Q 37.3125 48.390625 33.40625 48.390625 
Q 24.65625 48.390625 19.8125 42.84375 
Q 14.984375 37.3125 14.984375 27.296875 
Q 14.984375 17.28125 19.8125 11.734375 
Q 24.65625 6.203125 33.40625 6.203125 
Q 37.3125 6.203125 41.140625 7.25 
Q 44.96875 8.296875 48.78125 10.40625 
L 48.78125 2.09375 
Q 45.015625 0.34375 40.984375 -0.53125 
Q 36.96875 -1.421875 32.421875 -1.421875 
Q 20.0625 -1.421875 12.78125 6.34375 
Q 5.515625 14.109375 5.515625 27.296875 
Q 5.515625 40.671875 12.859375 48.328125 
Q 20.21875 56 33.015625 56 
Q 37.15625 56 41.109375 55.140625 
Q 45.0625 54.296875 48.78125 52.59375 
z
" id="DejaVuSans-99"/>
      <path d="M 54.890625 33.015625 
L 54.890625 0 
L 45.90625 0 
L 45.90625 32.71875 
Q 45.90625 40.484375 42.875 44.328125 
Q 39.84375 48.1875 33.796875 48.1875 
Q 26.515625 48.1875 22.3125 43.546875 
Q 18.109375 38.921875 18.109375 30.90625 
L 18.109375 0 
L 9.078125 0 
L 9.078125 75.984375 
L 18.109375 75.984375 
L 18.109375 46.1875 
Q 21.34375 51.125 25.703125 53.5625 
Q 30.078125 56 35.796875 56 
Q 45.21875 56 50.046875 50.171875 
Q 54.890625 44.34375 54.890625 33.015625 
z
" id="DejaVuSans-104"/>
     </defs>
     <g transform="translate(353.771875 343.276563)scale(0.1 -0.1)">
      <use xlink:href="#DejaVuSans-101"/>
      <use x="61.523438" xlink:href="#DejaVuSans-112"/>
      <use x="125" xlink:href="#DejaVuSans-111"/>
      <use x="186.181641" xlink:href="#DejaVuSans-99"/>
      <use x="241.162109" xlink:href="#DejaVuSans-104"/>
     </g>
    </g>
   </g>
   <g id="matplotlib.axis_2">
    <g id="ytick_1">
     <g id="line2d_15">
      <path clip-path="url(#p925ba61db4)" d="M 90 279.974416 
L 648 279.974416 
" style="fill:none;stroke:#b0b0b0;stroke-linecap:square;stroke-width:0.8;"/>
     </g>
     <g id="line2d_16">
      <defs>
       <path d="M 0 0 
L -3.5 0 
" id="m75d6cd73a8" style="stroke:#000000;stroke-width:0.8;"/>
      </defs>
      <g>
       <use style="stroke:#000000;stroke-width:0.8;" x="90" xlink:href="#m75d6cd73a8" y="279.974416"/>
      </g>
     </g>
     <g id="text_9">
      <!-- 0.4 -->
      <defs>
       <path d="M 10.6875 12.40625 
L 21 12.40625 
L 21 0 
L 10.6875 0 
z
" id="DejaVuSans-46"/>
      </defs>
      <g transform="translate(67.096875 283.773635)scale(0.1 -0.1)">
       <use xlink:href="#DejaVuSans-48"/>
       <use x="63.623047" xlink:href="#DejaVuSans-46"/>
       <use x="95.410156" xlink:href="#DejaVuSans-52"/>
      </g>
     </g>
    </g>
    <g id="ytick_2">
     <g id="line2d_17">
      <path clip-path="url(#p925ba61db4)" d="M 90 239.233625 
L 648 239.233625 
" style="fill:none;stroke:#b0b0b0;stroke-linecap:square;stroke-width:0.8;"/>
     </g>
     <g id="line2d_18">
      <g>
       <use style="stroke:#000000;stroke-width:0.8;" x="90" xlink:href="#m75d6cd73a8" y="239.233625"/>
      </g>
     </g>
     <g id="text_10">
      <!-- 0.6 -->
      <g transform="translate(67.096875 243.032844)scale(0.1 -0.1)">
       <use xlink:href="#DejaVuSans-48"/>
       <use x="63.623047" xlink:href="#DejaVuSans-46"/>
       <use x="95.410156" xlink:href="#DejaVuSans-54"/>
      </g>
     </g>
    </g>
    <g id="ytick_3">
     <g id="line2d_19">
      <path clip-path="url(#p925ba61db4)" d="M 90 198.492834 
L 648 198.492834 
" style="fill:none;stroke:#b0b0b0;stroke-linecap:square;stroke-width:0.8;"/>
     </g>
     <g id="line2d_20">
      <g>
       <use style="stroke:#000000;stroke-width:0.8;" x="90" xlink:href="#m75d6cd73a8" y="198.492834"/>
      </g>
     </g>
     <g id="text_11">
      <!-- 0.8 -->
      <defs>
       <path d="M 31.78125 34.625 
Q 24.75 34.625 20.71875 30.859375 
Q 16.703125 27.09375 16.703125 20.515625 
Q 16.703125 13.921875 20.71875 10.15625 
Q 24.75 6.390625 31.78125 6.390625 
Q 38.8125 6.390625 42.859375 10.171875 
Q 46.921875 13.96875 46.921875 20.515625 
Q 46.921875 27.09375 42.890625 30.859375 
Q 38.875 34.625 31.78125 34.625 
z
M 21.921875 38.8125 
Q 15.578125 40.375 12.03125 44.71875 
Q 8.5 49.078125 8.5 55.328125 
Q 8.5 64.0625 14.71875 69.140625 
Q 20.953125 74.21875 31.78125 74.21875 
Q 42.671875 74.21875 48.875 69.140625 
Q 55.078125 64.0625 55.078125 55.328125 
Q 55.078125 49.078125 51.53125 44.71875 
Q 48 40.375 41.703125 38.8125 
Q 48.828125 37.15625 52.796875 32.3125 
Q 56.78125 27.484375 56.78125 20.515625 
Q 56.78125 9.90625 50.3125 4.234375 
Q 43.84375 -1.421875 31.78125 -1.421875 
Q 19.734375 -1.421875 13.25 4.234375 
Q 6.78125 9.90625 6.78125 20.515625 
Q 6.78125 27.484375 10.78125 32.3125 
Q 14.796875 37.15625 21.921875 38.8125 
z
M 18.3125 54.390625 
Q 18.3125 48.734375 21.84375 45.5625 
Q 25.390625 42.390625 31.78125 42.390625 
Q 38.140625 42.390625 41.71875 45.5625 
Q 45.3125 48.734375 45.3125 54.390625 
Q 45.3125 60.0625 41.71875 63.234375 
Q 38.140625 66.40625 31.78125 66.40625 
Q 25.390625 66.40625 21.84375 63.234375 
Q 18.3125 60.0625 18.3125 54.390625 
z
" id="DejaVuSans-56"/>
      </defs>
      <g transform="translate(67.096875 202.292052)scale(0.1 -0.1)">
       <use xlink:href="#DejaVuSans-48"/>
       <use x="63.623047" xlink:href="#DejaVuSans-46"/>
       <use x="95.410156" xlink:href="#DejaVuSans-56"/>
      </g>
     </g>
    </g>
    <g id="ytick_4">
     <g id="line2d_21">
      <path clip-path="url(#p925ba61db4)" d="M 90 157.752043 
L 648 157.752043 
" style="fill:none;stroke:#b0b0b0;stroke-linecap:square;stroke-width:0.8;"/>
     </g>
     <g id="line2d_22">
      <g>
       <use style="stroke:#000000;stroke-width:0.8;" x="90" xlink:href="#m75d6cd73a8" y="157.752043"/>
      </g>
     </g>
     <g id="text_12">
      <!-- 1.0 -->
      <g transform="translate(67.096875 161.551261)scale(0.1 -0.1)">
       <use xlink:href="#DejaVuSans-49"/>
       <use x="63.623047" xlink:href="#DejaVuSans-46"/>
       <use x="95.410156" xlink:href="#DejaVuSans-48"/>
      </g>
     </g>
    </g>
    <g id="ytick_5">
     <g id="line2d_23">
      <path clip-path="url(#p925ba61db4)" d="M 90 117.011251 
L 648 117.011251 
" style="fill:none;stroke:#b0b0b0;stroke-linecap:square;stroke-width:0.8;"/>
     </g>
     <g id="line2d_24">
      <g>
       <use style="stroke:#000000;stroke-width:0.8;" x="90" xlink:href="#m75d6cd73a8" y="117.011251"/>
      </g>
     </g>
     <g id="text_13">
      <!-- 1.2 -->
      <g transform="translate(67.096875 120.81047)scale(0.1 -0.1)">
       <use xlink:href="#DejaVuSans-49"/>
       <use x="63.623047" xlink:href="#DejaVuSans-46"/>
       <use x="95.410156" xlink:href="#DejaVuSans-50"/>
      </g>
     </g>
    </g>
    <g id="ytick_6">
     <g id="line2d_25">
      <path clip-path="url(#p925ba61db4)" d="M 90 76.27046 
L 648 76.27046 
" style="fill:none;stroke:#b0b0b0;stroke-linecap:square;stroke-width:0.8;"/>
     </g>
     <g id="line2d_26">
      <g>
       <use style="stroke:#000000;stroke-width:0.8;" x="90" xlink:href="#m75d6cd73a8" y="76.27046"/>
      </g>
     </g>
     <g id="text_14">
      <!-- 1.4 -->
      <g transform="translate(67.096875 80.069679)scale(0.1 -0.1)">
       <use xlink:href="#DejaVuSans-49"/>
       <use x="63.623047" xlink:href="#DejaVuSans-46"/>
       <use x="95.410156" xlink:href="#DejaVuSans-52"/>
      </g>
     </g>
    </g>
    <g id="text_15">
     <!-- loss -->
     <defs>
      <path d="M 9.421875 75.984375 
L 18.40625 75.984375 
L 18.40625 0 
L 9.421875 0 
z
" id="DejaVuSans-108"/>
      <path d="M 44.28125 53.078125 
L 44.28125 44.578125 
Q 40.484375 46.53125 36.375 47.5 
Q 32.28125 48.484375 27.875 48.484375 
Q 21.1875 48.484375 17.84375 46.4375 
Q 14.5 44.390625 14.5 40.28125 
Q 14.5 37.15625 16.890625 35.375 
Q 19.28125 33.59375 26.515625 31.984375 
L 29.59375 31.296875 
Q 39.15625 29.25 43.1875 25.515625 
Q 47.21875 21.78125 47.21875 15.09375 
Q 47.21875 7.46875 41.1875 3.015625 
Q 35.15625 -1.421875 24.609375 -1.421875 
Q 20.21875 -1.421875 15.453125 -0.5625 
Q 10.6875 0.296875 5.421875 2 
L 5.421875 11.28125 
Q 10.40625 8.6875 15.234375 7.390625 
Q 20.0625 6.109375 24.8125 6.109375 
Q 31.15625 6.109375 34.5625 8.28125 
Q 37.984375 10.453125 37.984375 14.40625 
Q 37.984375 18.0625 35.515625 20.015625 
Q 33.0625 21.96875 24.703125 23.78125 
L 21.578125 24.515625 
Q 13.234375 26.265625 9.515625 29.90625 
Q 5.8125 33.546875 5.8125 39.890625 
Q 5.8125 47.609375 11.28125 51.796875 
Q 16.75 56 26.8125 56 
Q 31.78125 56 36.171875 55.265625 
Q 40.578125 54.546875 44.28125 53.078125 
z
" id="DejaVuSans-115"/>
     </defs>
     <g transform="translate(61.017187 188.757812)rotate(-90)scale(0.1 -0.1)">
      <use xlink:href="#DejaVuSans-108"/>
      <use x="27.783203" xlink:href="#DejaVuSans-111"/>
      <use x="88.964844" xlink:href="#DejaVuSans-115"/>
      <use x="141.064453" xlink:href="#DejaVuSans-115"/>
     </g>
    </g>
   </g>
   <g id="line2d_27">
    <path clip-path="url(#p925ba61db4)" d="M 115.363636 55.554545 
L 116.134568 66.732366 
L 116.905499 70.573732 
L 117.67643 75.057182 
L 119.218292 81.381604 
L 119.989224 82.323433 
L 120.760155 84.625703 
L 121.531086 86.395257 
L 123.84388 93.758829 
L 124.614811 94.388018 
L 125.385742 97.284364 
L 126.156673 98.609072 
L 126.927604 100.367235 
L 127.698536 103.691786 
L 128.469467 104.461326 
L 129.240398 106.077978 
L 130.011329 107.221368 
L 130.78226 109.8969 
L 131.553191 114.714851 
L 132.324123 115.977245 
L 133.095054 117.507495 
L 133.865985 120.087944 
L 134.636916 121.274526 
L 135.407847 128.111034 
L 136.94971 130.233927 
L 137.720641 130.472682 
L 138.491572 136.616864 
L 139.262503 135.551966 
L 140.033435 137.809771 
L 140.804366 141.239218 
L 141.575297 142.223296 
L 142.346228 149.019874 
L 143.117159 147.587357 
L 143.888091 148.915662 
L 144.659022 153.578984 
L 145.429953 156.753152 
L 146.971815 159.550759 
L 147.742747 162.466296 
L 148.513678 163.711623 
L 149.284609 164.235016 
L 150.05554 167.65975 
L 150.826471 169.307889 
L 151.597403 171.782388 
L 152.368334 174.781143 
L 153.139265 175.193083 
L 153.910196 177.187912 
L 154.681127 179.914948 
L 155.452059 180.315382 
L 156.22299 180.353036 
L 156.993921 184.462866 
L 157.764852 184.163693 
L 158.535783 187.364387 
L 159.306715 188.103789 
L 160.077646 186.027971 
L 160.848577 188.256732 
L 161.619508 188.547703 
L 162.390439 190.656757 
L 163.161371 194.324415 
L 163.932302 195.588029 
L 164.703233 195.94886 
L 165.474164 198.221814 
L 166.245095 197.932867 
L 167.016027 198.237862 
L 167.786958 199.64303 
L 168.557889 202.388283 
L 169.32882 200.259254 
L 170.099751 203.714523 
L 170.870683 202.4031 
L 171.641614 204.973272 
L 172.412545 203.174287 
L 173.183476 204.270121 
L 173.954407 208.235344 
L 174.725338 208.944075 
L 175.49627 210.580494 
L 176.267201 211.373864 
L 177.038132 211.459249 
L 177.809063 211.203221 
L 178.579994 215.072154 
L 179.350926 212.451463 
L 180.121857 212.856914 
L 180.892788 213.738421 
L 181.663719 215.344288 
L 182.43465 213.386704 
L 183.205582 215.042216 
L 183.976513 218.623062 
L 184.747444 219.576691 
L 185.518375 217.178091 
L 186.289306 216.463592 
L 187.060238 218.171447 
L 187.831169 219.069732 
L 188.6021 221.791009 
L 189.373031 223.140175 
L 190.143962 225.458111 
L 190.914894 222.462545 
L 191.685825 222.402768 
L 192.456756 223.415121 
L 193.227687 225.450953 
L 193.998618 226.856581 
L 194.76955 229.779092 
L 195.540481 225.647067 
L 196.311412 223.994072 
L 197.082343 227.648733 
L 197.853274 225.502639 
L 198.624206 230.977071 
L 199.395137 232.368971 
L 200.166068 229.356816 
L 200.936999 229.189531 
L 201.70793 226.242517 
L 202.478862 229.384796 
L 203.249793 231.372289 
L 204.020724 231.595777 
L 204.791655 231.258187 
L 205.562586 230.703147 
L 206.333518 233.202151 
L 207.104449 234.288879 
L 207.87538 234.696937 
L 208.646311 232.569418 
L 209.417242 235.92627 
L 210.188174 231.729843 
L 210.959105 234.791376 
L 211.730036 235.935681 
L 212.500967 236.672722 
L 213.271898 237.156889 
L 214.04283 237.838597 
L 214.813761 236.632697 
L 215.584692 236.453024 
L 216.355623 238.239422 
L 217.126554 238.332402 
L 217.897485 237.478948 
L 218.668417 239.796859 
L 219.439348 238.732668 
L 220.210279 241.606438 
L 220.98121 237.587592 
L 221.752141 239.404828 
L 222.523073 238.60216 
L 223.294004 240.097108 
L 224.064935 238.181254 
L 224.835866 240.587291 
L 225.606797 240.910183 
L 226.377729 242.523927 
L 227.14866 243.146019 
L 227.919591 240.94718 
L 228.690522 244.896203 
L 229.461453 244.156263 
L 230.232385 241.39703 
L 231.003316 245.988353 
L 231.774247 241.906198 
L 232.545178 243.436259 
L 233.316109 245.662031 
L 234.087041 247.132632 
L 234.857972 246.215512 
L 235.628903 246.158014 
L 236.399834 244.1086 
L 237.170765 245.909598 
L 237.941697 246.006375 
L 238.712628 247.011885 
L 239.483559 249.626276 
L 240.25449 245.349831 
L 241.025421 248.665164 
L 241.796353 249.024794 
L 242.567284 249.541389 
L 243.338215 249.298829 
L 244.109146 245.633736 
L 244.880077 249.117522 
L 245.651009 250.263482 
L 246.42194 252.117287 
L 247.192871 248.730161 
L 247.963802 254.099751 
L 248.734733 250.789451 
L 249.505665 252.71216 
L 250.276596 247.290345 
L 251.047527 251.917715 
L 251.818458 254.98154 
L 252.589389 253.926131 
L 253.360321 251.452798 
L 254.131252 251.586476 
L 254.902183 251.247197 
L 255.673114 254.950919 
L 256.444045 252.388161 
L 257.214977 254.169591 
L 258.756839 253.991915 
L 259.52777 254.844568 
L 260.298701 256.701057 
L 261.069632 254.766409 
L 261.840564 256.145476 
L 262.611495 253.883564 
L 263.382426 255.612677 
L 264.153357 258.144046 
L 264.924288 256.828625 
L 265.69522 259.301135 
L 266.466151 253.090743 
L 267.237082 257.764387 
L 268.008013 255.102863 
L 269.549876 258.843337 
L 270.320807 257.926892 
L 271.091738 257.371467 
L 271.862669 255.623191 
L 272.6336 257.500387 
L 273.404532 259.766741 
L 274.175463 260.421385 
L 274.946394 254.397487 
L 275.717325 257.767893 
L 277.259188 258.639583 
L 278.030119 261.657185 
L 278.80105 258.752774 
L 279.571981 257.99069 
L 280.342912 260.354029 
L 281.113844 260.515732 
L 281.884775 262.218558 
L 282.655706 259.005847 
L 283.426637 260.978058 
L 284.197568 261.872563 
L 284.9685 262.23794 
L 285.739431 263.080534 
L 286.510362 264.293494 
L 287.281293 264.530342 
L 288.052224 259.895459 
L 288.823156 261.257322 
L 289.594087 260.325679 
L 290.365018 262.027062 
L 291.135949 266.508137 
L 291.90688 260.565165 
L 292.677812 261.669974 
L 293.448743 263.842718 
L 294.219674 263.664039 
L 294.990605 264.308727 
L 295.761536 261.250024 
L 296.532468 263.912681 
L 297.303399 262.885816 
L 298.07433 266.179595 
L 298.845261 265.855212 
L 299.616192 261.423367 
L 300.387124 267.23386 
L 301.158055 267.76432 
L 301.928986 265.454539 
L 302.699917 264.264653 
L 303.470848 264.469982 
L 304.241779 263.569415 
L 305.012711 266.170313 
L 305.783642 264.246074 
L 306.554573 263.233198 
L 307.325504 265.954731 
L 308.096435 262.424543 
L 308.867367 268.13555 
L 309.638298 265.976241 
L 310.409229 266.487047 
L 311.18016 265.643234 
L 311.951091 265.837587 
L 312.722023 266.869056 
L 313.492954 264.79548 
L 314.263885 266.066028 
L 315.034816 270.053894 
L 315.805747 267.60044 
L 317.34761 268.886776 
L 318.118541 269.867482 
L 318.889472 267.562136 
L 319.660403 266.290438 
L 320.431335 269.375138 
L 321.202266 269.334682 
L 321.973197 268.618353 
L 322.744128 271.292487 
L 323.515059 267.619512 
L 324.285991 267.83875 
L 325.056922 269.752807 
L 325.827853 269.679701 
L 326.598784 268.542135 
L 327.369715 268.711775 
L 328.140647 270.612405 
L 328.911578 267.454467 
L 329.682509 270.94223 
L 330.45344 270.540907 
L 331.224371 267.961316 
L 331.995303 271.638265 
L 332.766234 271.122501 
L 333.537165 270.305007 
L 334.308096 273.93375 
L 335.079027 272.242363 
L 335.849959 272.438729 
L 336.62089 270.174879 
L 338.162752 273.112815 
L 338.933683 272.218264 
L 339.704615 270.097892 
L 340.475546 272.592225 
L 341.246477 271.433525 
L 342.017408 276.127346 
L 342.788339 271.925027 
L 343.559271 272.641697 
L 344.330202 273.951898 
L 345.101133 271.160259 
L 345.872064 276.503791 
L 346.642995 274.221906 
L 347.413926 272.774145 
L 348.184858 272.692519 
L 348.955789 275.487591 
L 349.72672 275.706117 
L 350.497651 277.676492 
L 351.268582 273.725303 
L 352.039514 275.382538 
L 352.810445 273.849716 
L 353.581376 274.117999 
L 354.352307 274.960854 
L 355.123238 273.809663 
L 355.89417 274.925187 
L 356.665101 271.727329 
L 357.436032 274.805132 
L 358.206963 273.387433 
L 358.977894 274.679823 
L 359.748826 276.788649 
L 360.519757 275.01548 
L 361.290688 276.971839 
L 362.061619 276.098829 
L 362.83255 274.092741 
L 363.603482 274.642212 
L 364.374413 275.886978 
L 365.145344 274.529087 
L 365.916275 277.023138 
L 366.687206 277.901996 
L 367.458138 277.18623 
L 368.229069 277.945902 
L 369 277.353111 
L 369.770931 273.355505 
L 370.541862 273.828851 
L 371.312794 275.286648 
L 372.083725 274.704451 
L 372.854656 279.946845 
L 373.625587 278.962709 
L 374.396518 275.584549 
L 375.16745 277.185376 
L 375.938381 277.435683 
L 376.709312 279.580234 
L 377.480243 276.751986 
L 378.251174 278.76415 
L 379.022106 277.569386 
L 379.793037 275.859788 
L 380.563968 278.998766 
L 381.334899 278.811009 
L 382.10583 281.443907 
L 382.876762 280.013031 
L 383.647693 277.928472 
L 384.418624 280.785143 
L 385.189555 280.543539 
L 385.960486 280.690996 
L 386.731418 279.770885 
L 387.502349 278.399556 
L 388.27328 278.849945 
L 389.044211 276.716105 
L 389.815142 279.010587 
L 390.586074 278.563188 
L 391.357005 281.29284 
L 392.127936 279.10489 
L 392.898867 281.799639 
L 393.669798 280.287428 
L 394.440729 277.670894 
L 395.211661 280.327124 
L 395.982592 281.002087 
L 396.753523 279.961022 
L 397.524454 281.214714 
L 398.295385 282.201667 
L 399.066317 284.197761 
L 399.837248 279.167485 
L 400.608179 279.415191 
L 401.37911 279.308576 
L 402.150041 281.907967 
L 402.920973 278.697242 
L 403.691904 279.93977 
L 404.462835 284.917551 
L 405.233766 278.966128 
L 406.004697 278.951831 
L 406.775629 278.526096 
L 407.54656 282.105959 
L 408.317491 282.957995 
L 409.088422 280.037152 
L 409.859353 282.766128 
L 410.630285 284.894612 
L 411.401216 278.28392 
L 412.172147 279.123413 
L 412.943078 281.564329 
L 413.714009 281.778452 
L 414.484941 279.433926 
L 415.255872 280.269992 
L 416.026803 282.920081 
L 416.797734 279.541711 
L 417.568665 282.797005 
L 418.339597 282.903534 
L 419.110528 280.892987 
L 419.881459 284.042394 
L 420.65239 284.135715 
L 421.423321 285.375278 
L 422.194253 281.200154 
L 422.965184 280.125639 
L 423.736115 280.928168 
L 424.507046 283.474317 
L 426.048909 287.025764 
L 426.81984 281.420312 
L 427.590771 285.740395 
L 428.361702 285.639513 
L 429.132633 282.999374 
L 429.903565 283.640449 
L 430.674496 285.618884 
L 431.445427 286.879187 
L 432.216358 284.78831 
L 432.987289 284.817654 
L 433.758221 285.770407 
L 434.529152 284.245631 
L 435.300083 285.627617 
L 436.071014 288.111255 
L 436.841945 286.28206 
L 437.612876 282.457779 
L 438.383808 287.461547 
L 439.154739 286.000992 
L 439.92567 286.121758 
L 440.696601 284.402222 
L 441.467532 285.90772 
L 442.238464 285.741169 
L 443.009395 285.079001 
L 443.780326 282.893983 
L 444.551257 286.180261 
L 445.322188 287.741273 
L 446.09312 287.205632 
L 446.864051 286.143539 
L 447.634982 289.719639 
L 448.405913 288.711794 
L 449.176844 285.019703 
L 449.947776 289.135365 
L 450.718707 286.129449 
L 451.489638 281.649993 
L 452.260569 288.007365 
L 453.0315 285.286934 
L 453.802432 288.440737 
L 454.573363 284.441567 
L 455.344294 285.151054 
L 456.115225 287.350972 
L 456.886156 287.82781 
L 457.657088 286.292483 
L 458.428019 289.289716 
L 459.19895 285.112001 
L 459.969881 286.207975 
L 460.740812 287.87532 
L 461.511744 290.040407 
L 462.282675 285.930006 
L 463.053606 286.535623 
L 463.824537 288.413768 
L 465.3664 288.566689 
L 466.137331 288.286399 
L 466.908262 286.943129 
L 467.679193 289.874903 
L 468.450124 286.01675 
L 469.221056 288.413044 
L 469.991987 289.37113 
L 470.762918 289.587537 
L 471.533849 287.647644 
L 472.30478 288.558519 
L 473.075712 287.310455 
L 473.846643 287.628456 
L 474.617574 285.925534 
L 475.388505 290.885071 
L 476.159436 289.968853 
L 476.930368 288.080298 
L 477.701299 290.701368 
L 478.47223 286.752433 
L 479.243161 286.930522 
L 480.014092 288.261405 
L 480.785023 289.272902 
L 481.555955 292.359536 
L 482.326886 288.814436 
L 483.097817 292.330516 
L 483.868748 288.187245 
L 484.639679 286.827286 
L 485.410611 289.455454 
L 486.181542 288.608862 
L 486.952473 288.796987 
L 487.723404 289.903594 
L 488.494335 291.556868 
L 489.265267 287.537587 
L 490.036198 290.872026 
L 490.807129 289.4905 
L 491.57806 291.498972 
L 492.348991 290.894258 
L 493.119923 288.849735 
L 493.890854 289.728739 
L 494.661785 286.059868 
L 495.432716 289.933409 
L 496.203647 292.022953 
L 496.974579 289.98535 
L 497.74551 289.209062 
L 498.516441 289.442252 
L 499.287372 289.283243 
L 500.058303 293.519058 
L 500.829235 290.529688 
L 501.600166 286.136217 
L 502.371097 292.063446 
L 503.142028 293.104459 
L 504.683891 287.988168 
L 505.454822 292.026942 
L 506.225753 293.759495 
L 506.996684 289.412638 
L 507.767615 290.759646 
L 508.538547 291.1341 
L 509.309478 291.15278 
L 510.080409 291.743975 
L 510.85134 293.023169 
L 511.622271 293.569017 
L 512.393203 294.683582 
L 513.935065 291.273882 
L 514.705996 292.805269 
L 515.476927 293.105121 
L 516.247859 294.780514 
L 517.01879 290.209064 
L 517.789721 287.88596 
L 518.560652 291.739822 
L 519.331583 291.761811 
L 520.102515 295.453372 
L 520.873446 292.755543 
L 521.644377 293.26385 
L 522.415308 295.909546 
L 523.186239 292.376178 
L 523.95717 290.998941 
L 524.728102 292.304497 
L 525.499033 292.17364 
L 526.269964 295.514068 
L 527.040895 297.371391 
L 527.811826 294.13301 
L 528.582758 287.827914 
L 529.353689 291.566282 
L 530.895551 295.924079 
L 531.666482 293.28757 
L 532.437414 288.896185 
L 533.208345 296.765903 
L 533.979276 293.998338 
L 534.750207 292.466259 
L 535.521138 295.146287 
L 536.29207 291.968659 
L 537.063001 294.885642 
L 537.833932 293.465012 
L 538.604863 296.182412 
L 539.375794 296.556506 
L 540.146726 294.496438 
L 540.917657 293.132725 
L 541.688588 298.150584 
L 542.459519 292.740503 
L 543.23045 292.862925 
L 544.001382 293.283371 
L 544.772313 293.015917 
L 545.543244 295.690674 
L 546.314175 296.147054 
L 547.085106 294.253762 
L 547.856038 295.315889 
L 548.626969 296.004564 
L 549.3979 294.839857 
L 550.168831 295.613953 
L 550.939762 293.811049 
L 551.710694 295.279719 
L 552.481625 294.967474 
L 553.252556 294.91296 
L 554.023487 295.162106 
L 554.794418 293.368927 
L 555.56535 293.296872 
L 556.336281 292.03125 
L 557.107212 292.538124 
L 557.878143 296.425016 
L 558.649074 296.448179 
L 559.420006 296.663351 
L 560.190937 295.793143 
L 560.961868 293.7492 
L 561.732799 295.081732 
L 562.50373 297.088767 
L 563.274662 295.09932 
L 564.045593 295.360862 
L 564.816524 295.44969 
L 565.587455 297.636749 
L 566.358386 294.616826 
L 567.129317 297.449427 
L 567.900249 295.571493 
L 568.67118 295.895101 
L 569.442111 294.432497 
L 570.213042 295.128061 
L 570.983973 296.162017 
L 571.754905 298.309472 
L 572.525836 293.675687 
L 573.296767 297.611288 
L 574.067698 295.587727 
L 574.838629 298.82241 
L 575.609561 300.900842 
L 577.151423 296.261783 
L 577.922354 298.55637 
L 578.693285 296.748695 
L 579.464217 297.240904 
L 580.235148 295.779689 
L 581.006079 296.967006 
L 581.77701 294.753383 
L 582.547941 295.416603 
L 583.318873 295.656494 
L 584.089804 297.864609 
L 584.860735 295.697674 
L 585.631666 299.439598 
L 586.402597 297.76483 
L 587.173529 300.129121 
L 587.94446 296.284659 
L 588.715391 299.761262 
L 589.486322 297.435138 
L 590.257253 296.148178 
L 591.028185 297.561924 
L 591.799116 299.251161 
L 592.570047 296.088135 
L 593.340978 295.972242 
L 594.111909 296.795613 
L 594.882841 299.637435 
L 595.653772 297.793936 
L 596.424703 297.951373 
L 597.195634 295.50999 
L 597.966565 300.080992 
L 598.737497 297.111906 
L 599.508428 295.912829 
L 600.279359 298.876006 
L 601.05029 294.977921 
L 601.821221 302.645455 
L 602.592153 301.516117 
L 603.363084 296.963345 
L 604.134015 295.418518 
L 604.904946 297.247651 
L 605.675877 299.817846 
L 606.446809 298.24099 
L 607.21774 298.497295 
L 607.988671 297.452041 
L 608.759602 297.565735 
L 609.530533 300.016926 
L 610.301464 300.923492 
L 611.072396 298.344786 
L 611.843327 298.683731 
L 612.614258 300.098168 
L 613.385189 299.932856 
L 614.15612 300.355277 
L 614.927052 296.211234 
L 615.697983 299.500182 
L 616.468914 298.572469 
L 617.239845 300.942769 
L 618.010776 298.733605 
L 618.781708 300.195528 
L 619.552639 298.122818 
L 620.32357 301.684572 
L 621.094501 299.164131 
L 621.865432 299.872325 
L 622.636364 299.285991 
L 622.636364 299.285991 
" style="fill:none;stroke:#1f77b4;stroke-linecap:square;stroke-width:0.5;"/>
   </g>
   <g id="line2d_28">
    <path clip-path="url(#p925ba61db4)" d="M 115.363636 65.770267 
L 116.134568 64.741278 
L 117.67643 73.37894 
L 118.447361 77.785066 
L 119.218292 79.582217 
L 119.989224 79.691184 
L 120.760155 82.455745 
L 121.531086 83.209079 
L 122.302017 86.749079 
L 123.072948 88.244282 
L 123.84388 87.408832 
L 124.614811 92.590877 
L 125.385742 92.53786 
L 126.156673 97.069428 
L 126.927604 94.813638 
L 127.698536 96.387725 
L 128.469467 101.789577 
L 129.240398 103.378113 
L 130.011329 104.121218 
L 130.78226 105.388342 
L 131.553191 108.71494 
L 132.324123 109.885828 
L 133.095054 114.985023 
L 133.865985 114.499643 
L 134.636916 115.456436 
L 136.178779 119.836963 
L 136.94971 123.89213 
L 138.491572 126.256428 
L 139.262503 130.193121 
L 140.033435 127.972018 
L 140.804366 134.602245 
L 141.575297 137.974684 
L 142.346228 137.228546 
L 143.117159 140.364649 
L 143.888091 140.028973 
L 144.659022 143.302432 
L 145.429953 145.99094 
L 146.200884 147.052924 
L 146.971815 150.562544 
L 147.742747 152.095024 
L 148.513678 153.041584 
L 149.284609 154.796066 
L 150.05554 157.501549 
L 150.826471 158.197851 
L 151.597403 161.369104 
L 152.368334 159.668332 
L 153.139265 164.10235 
L 153.910196 166.4586 
L 154.681127 165.842998 
L 155.452059 170.152033 
L 156.22299 170.792212 
L 157.764852 174.136584 
L 158.535783 175.476992 
L 159.306715 175.274216 
L 160.077646 177.84438 
L 160.848577 178.340413 
L 161.619508 179.619338 
L 162.390439 178.979158 
L 163.932302 184.193445 
L 164.703233 184.436164 
L 165.474164 187.758931 
L 166.245095 186.338454 
L 167.016027 186.282175 
L 167.786958 189.678397 
L 168.557889 187.300639 
L 169.32882 191.872917 
L 170.099751 188.327917 
L 170.870683 190.285166 
L 171.641614 191.083088 
L 172.412545 191.321482 
L 173.183476 196.726463 
L 173.954407 196.093567 
L 174.725338 195.886707 
L 175.49627 195.561696 
L 176.267201 199.99307 
L 177.038132 198.664606 
L 177.809063 199.987219 
L 178.579994 198.017063 
L 179.350926 203.106517 
L 180.121857 198.30497 
L 180.892788 198.980122 
L 181.663719 201.618558 
L 182.43465 202.566954 
L 183.205582 204.800685 
L 183.976513 207.8646 
L 184.747444 207.220954 
L 186.289306 205.197455 
L 187.060238 208.565076 
L 187.831169 207.242957 
L 188.6021 206.365459 
L 189.373031 209.463193 
L 190.143962 208.084834 
L 190.914894 207.817365 
L 191.685825 211.702835 
L 192.456756 209.861849 
L 193.227687 208.634422 
L 193.998618 208.95382 
L 194.76955 211.925108 
L 195.540481 211.049629 
L 196.311412 215.964923 
L 197.082343 213.366782 
L 197.853274 211.72335 
L 198.624206 215.41739 
L 199.395137 214.69642 
L 200.166068 213.141553 
L 200.936999 216.667782 
L 201.70793 215.186081 
L 202.478862 214.459001 
L 203.249793 216.180918 
L 204.020724 215.502892 
L 204.791655 215.846891 
L 205.562586 217.184418 
L 206.333518 218.745911 
L 207.104449 217.98489 
L 207.87538 215.415824 
L 208.646311 219.528321 
L 209.417242 216.119501 
L 210.188174 218.97039 
L 210.959105 216.383343 
L 211.730036 220.530156 
L 212.500967 221.658982 
L 213.271898 220.746776 
L 214.04283 221.337404 
L 214.813761 223.111192 
L 215.584692 222.6955 
L 216.355623 220.734089 
L 217.126554 221.368042 
L 217.897485 222.542015 
L 218.668417 224.044403 
L 219.439348 223.801992 
L 220.210279 221.759053 
L 220.98121 222.537961 
L 221.752141 224.178556 
L 222.523073 226.454423 
L 223.294004 223.073075 
L 224.064935 224.867657 
L 224.835866 224.690407 
L 225.606797 220.715623 
L 226.377729 226.889241 
L 227.14866 227.790829 
L 227.919591 227.486966 
L 228.690522 226.918357 
L 229.461453 226.814371 
L 230.232385 226.050776 
L 231.003316 225.860562 
L 231.774247 226.772203 
L 232.545178 228.449411 
L 233.316109 227.973545 
L 234.087041 233.911826 
L 234.857972 226.724222 
L 235.628903 229.228618 
L 236.399834 227.657177 
L 237.941697 231.499352 
L 238.712628 231.661407 
L 239.483559 232.887368 
L 240.25449 233.036365 
L 241.025421 228.754976 
L 241.796353 230.289417 
L 242.567284 233.129381 
L 243.338215 230.604556 
L 244.109146 230.585742 
L 244.880077 231.248956 
L 245.651009 234.513362 
L 246.42194 230.932396 
L 247.192871 234.304747 
L 247.963802 230.792743 
L 248.734733 233.070096 
L 249.505665 231.142001 
L 250.276596 232.769994 
L 251.047527 231.111678 
L 251.818458 231.248677 
L 253.360321 233.465739 
L 254.902183 234.76086 
L 255.673114 232.843977 
L 256.444045 233.454583 
L 257.214977 233.340129 
L 257.985908 235.263278 
L 258.756839 232.219381 
L 259.52777 233.375358 
L 260.298701 233.866402 
L 261.069632 235.744433 
L 261.840564 235.149318 
L 262.611495 238.522489 
L 263.382426 234.628246 
L 264.153357 236.707395 
L 264.924288 234.855962 
L 265.69522 237.191921 
L 266.466151 240.372565 
L 267.237082 232.577733 
L 268.008013 238.726382 
L 268.778944 237.259898 
L 269.549876 237.408979 
L 270.320807 236.578184 
L 271.091738 236.263378 
L 271.862669 234.567542 
L 272.6336 234.149601 
L 273.404532 236.2668 
L 274.175463 237.893171 
L 274.946394 237.956888 
L 275.717325 234.982447 
L 277.259188 239.709788 
L 278.030119 239.469212 
L 278.80105 237.219116 
L 279.571981 236.760926 
L 280.342912 236.022673 
L 281.113844 236.913602 
L 281.884775 235.691552 
L 282.655706 237.085081 
L 283.426637 237.798008 
L 284.197568 237.294525 
L 284.9685 236.539858 
L 285.739431 238.135519 
L 286.510362 237.081081 
L 287.281293 238.84946 
L 288.052224 239.14791 
L 288.823156 237.859828 
L 289.594087 239.510653 
L 290.365018 241.664247 
L 291.90688 238.765363 
L 293.448743 238.425807 
L 294.219674 236.348955 
L 294.990605 242.683439 
L 296.532468 237.578852 
L 297.303399 239.559474 
L 298.07433 238.815852 
L 298.845261 241.517598 
L 299.616192 237.684842 
L 300.387124 240.7529 
L 301.158055 240.376944 
L 301.928986 239.19651 
L 302.699917 242.219657 
L 303.470848 240.634527 
L 304.241779 244.050925 
L 305.012711 238.044758 
L 305.783642 240.126699 
L 306.554573 243.174414 
L 307.325504 240.563864 
L 308.096435 243.685673 
L 308.867367 242.677264 
L 309.638298 238.884671 
L 310.409229 242.650361 
L 311.18016 243.331423 
L 312.722023 241.360319 
L 313.492954 240.719926 
L 314.263885 237.146217 
L 315.034816 241.468279 
L 315.805747 241.39465 
L 316.576679 241.875488 
L 317.34761 240.991116 
L 318.118541 240.981883 
L 318.889472 242.137342 
L 319.660403 241.931191 
L 320.431335 242.607632 
L 321.202266 240.550213 
L 321.973197 242.712311 
L 322.744128 242.153932 
L 323.515059 240.660534 
L 324.285991 242.541083 
L 325.056922 244.112977 
L 325.827853 241.865032 
L 326.598784 242.87124 
L 327.369715 241.555017 
L 328.140647 244.443906 
L 328.911578 244.617117 
L 331.224371 238.865887 
L 331.995303 241.817946 
L 332.766234 241.80127 
L 333.537165 238.009188 
L 334.308096 244.506783 
L 335.079027 243.414751 
L 335.849959 239.976807 
L 336.62089 243.104155 
L 337.391821 244.827641 
L 338.162752 242.76718 
L 338.933683 243.262791 
L 339.704615 242.611795 
L 340.475546 240.121893 
L 341.246477 244.775822 
L 342.017408 245.248002 
L 342.788339 242.309416 
L 343.559271 241.060072 
L 344.330202 246.183642 
L 345.101133 246.605496 
L 345.872064 246.27693 
L 346.642995 239.051161 
L 347.413926 243.771457 
L 348.184858 240.462894 
L 348.955789 241.247786 
L 349.72672 245.700343 
L 350.497651 245.102653 
L 351.268582 242.390859 
L 352.039514 245.018205 
L 352.810445 244.484182 
L 353.581376 245.465359 
L 354.352307 245.481313 
L 355.123238 245.288925 
L 355.89417 246.369845 
L 356.665101 240.676635 
L 357.436032 242.459236 
L 358.206963 246.209485 
L 358.977894 244.490696 
L 359.748826 243.516518 
L 360.519757 244.270492 
L 361.290688 246.332403 
L 362.061619 243.918427 
L 362.83255 245.071369 
L 364.374413 241.614688 
L 365.145344 243.325298 
L 365.916275 245.836415 
L 366.687206 240.570933 
L 367.458138 248.900364 
L 368.229069 245.056598 
L 369 243.958047 
L 369.770931 245.096771 
L 370.541862 244.659254 
L 371.312794 244.915665 
L 372.083725 242.157318 
L 372.854656 241.900538 
L 373.625587 243.87392 
L 374.396518 243.956068 
L 375.16745 246.709729 
L 375.938381 243.453049 
L 376.709312 242.693457 
L 377.480243 243.314725 
L 378.251174 248.14861 
L 379.022106 245.934929 
L 379.793037 246.783596 
L 380.563968 245.22148 
L 381.334899 246.697174 
L 382.10583 245.930545 
L 382.876762 244.48763 
L 383.647693 248.061236 
L 384.418624 242.722135 
L 385.189555 243.272894 
L 385.960486 244.255811 
L 386.731418 246.602449 
L 387.502349 242.750787 
L 388.27328 243.231599 
L 389.044211 244.261347 
L 389.815142 244.001904 
L 390.586074 244.940835 
L 391.357005 246.350682 
L 392.127936 245.31154 
L 392.898867 245.454731 
L 393.669798 245.804611 
L 394.440729 247.03651 
L 395.211661 244.982513 
L 395.982592 241.441533 
L 396.753523 241.923203 
L 397.524454 247.112504 
L 398.295385 241.398071 
L 399.066317 244.344057 
L 399.837248 244.114949 
L 400.608179 248.133666 
L 401.37911 245.026762 
L 402.150041 244.311071 
L 402.920973 244.120066 
L 403.691904 247.144436 
L 404.462835 241.335325 
L 405.233766 242.142387 
L 406.004697 246.464878 
L 406.775629 247.088232 
L 408.317491 247.294389 
L 409.088422 245.772204 
L 409.859353 245.24526 
L 410.630285 245.831776 
L 411.401216 244.933786 
L 412.172147 247.543557 
L 412.943078 243.517584 
L 413.714009 248.817038 
L 414.484941 245.545098 
L 415.255872 245.601757 
L 416.026803 244.952768 
L 416.797734 245.804682 
L 417.568665 248.173886 
L 418.339597 248.70638 
L 419.110528 245.069532 
L 419.881459 243.837977 
L 420.65239 242.305057 
L 421.423321 246.139982 
L 422.194253 247.267552 
L 422.965184 247.434629 
L 423.736115 243.489584 
L 424.507046 245.983045 
L 425.277977 246.668009 
L 426.048909 241.527526 
L 426.81984 247.619283 
L 427.590771 244.966974 
L 428.361702 243.665338 
L 429.132633 248.952712 
L 429.903565 246.300191 
L 430.674496 249.745495 
L 431.445427 243.90668 
L 432.216358 246.727696 
L 432.987289 241.32229 
L 433.758221 245.631011 
L 434.529152 243.979829 
L 435.300083 245.161627 
L 436.071014 244.96154 
L 436.841945 245.235257 
L 437.612876 249.942262 
L 438.383808 242.987484 
L 439.154739 243.090137 
L 439.92567 247.195881 
L 440.696601 243.759887 
L 441.467532 245.118793 
L 442.238464 244.875905 
L 443.009395 245.34112 
L 443.780326 245.246459 
L 444.551257 247.192921 
L 446.09312 244.998008 
L 446.864051 241.844734 
L 447.634982 245.7472 
L 448.405913 245.973027 
L 449.176844 245.581616 
L 449.947776 244.231335 
L 450.718707 244.159412 
L 451.489638 244.483894 
L 452.260569 240.968138 
L 453.0315 242.258656 
L 453.802432 243.327019 
L 454.573363 245.669598 
L 455.344294 241.563629 
L 456.886156 245.546257 
L 457.657088 244.841517 
L 458.428019 240.753808 
L 459.19895 247.625813 
L 459.969881 245.241125 
L 460.740812 245.642952 
L 461.511744 244.957594 
L 462.282675 248.754667 
L 463.053606 239.828893 
L 463.824537 246.113537 
L 464.595468 247.320781 
L 465.3664 246.941503 
L 466.137331 245.940748 
L 466.908262 243.2597 
L 467.679193 244.841313 
L 468.450124 250.724004 
L 469.221056 247.4252 
L 469.991987 245.599384 
L 470.762918 248.086063 
L 471.533849 249.571955 
L 472.30478 246.580305 
L 473.075712 246.193694 
L 473.846643 246.849072 
L 474.617574 242.908662 
L 475.388505 246.429905 
L 476.159436 245.498987 
L 477.701299 244.308943 
L 478.47223 243.968102 
L 479.243161 241.848907 
L 480.014092 242.597425 
L 480.785023 246.753534 
L 481.555955 247.395033 
L 482.326886 245.222038 
L 483.097817 245.682305 
L 483.868748 247.878548 
L 484.639679 243.680077 
L 485.410611 243.649048 
L 486.181542 246.608405 
L 486.952473 244.238704 
L 488.494335 247.209823 
L 489.265267 246.791365 
L 490.036198 244.935517 
L 490.807129 245.752007 
L 491.57806 239.547626 
L 492.348991 245.317686 
L 493.890854 245.747384 
L 494.661785 246.405298 
L 496.203647 244.443198 
L 496.974579 244.540024 
L 497.74551 244.289546 
L 498.516441 246.311635 
L 499.287372 243.770871 
L 500.058303 242.252806 
L 500.829235 244.840308 
L 501.600166 246.169154 
L 502.371097 242.858792 
L 503.142028 245.718352 
L 503.912959 242.965007 
L 504.683891 243.219604 
L 505.454822 244.404435 
L 506.225753 243.942557 
L 506.996684 244.358339 
L 507.767615 241.970814 
L 508.538547 244.356461 
L 509.309478 244.228591 
L 510.080409 245.00395 
L 510.85134 244.786994 
L 511.622271 245.529578 
L 512.393203 247.351776 
L 513.164134 248.562825 
L 513.935065 245.82664 
L 514.705996 244.285604 
L 515.476927 249.53125 
L 516.247859 244.131208 
L 517.01879 247.646283 
L 517.789721 246.875747 
L 518.560652 244.762414 
L 519.331583 248.856819 
L 520.102515 245.487962 
L 521.644377 244.012074 
L 522.415308 245.346905 
L 523.186239 248.027184 
L 523.95717 243.675785 
L 524.728102 243.567881 
L 525.499033 246.051387 
L 526.269964 242.252419 
L 527.040895 241.731008 
L 527.811826 243.878263 
L 528.582758 245.674956 
L 529.353689 248.602271 
L 530.12462 247.829659 
L 530.895551 244.195303 
L 532.437414 240.189872 
L 533.208345 244.652757 
L 533.979276 247.938553 
L 534.750207 242.486266 
L 535.521138 243.264157 
L 536.29207 247.529201 
L 537.063001 244.638621 
L 537.833932 244.812104 
L 538.604863 244.701662 
L 539.375794 243.700498 
L 540.146726 244.684356 
L 540.917657 245.128894 
L 541.688588 244.249037 
L 542.459519 244.129237 
L 543.23045 244.781741 
L 544.001382 243.486035 
L 544.772313 244.57472 
L 545.543244 244.46544 
L 546.314175 241.513418 
L 547.085106 244.7442 
L 547.856038 242.93127 
L 548.626969 242.475013 
L 549.3979 242.975804 
L 550.168831 243.272813 
L 550.939762 242.529546 
L 551.710694 245.406574 
L 552.481625 245.051554 
L 553.252556 241.404 
L 554.023487 242.432369 
L 554.794418 245.918425 
L 555.56535 241.076002 
L 556.336281 248.310132 
L 557.107212 241.577439 
L 557.878143 240.012952 
L 558.649074 242.253285 
L 559.420006 245.412332 
L 560.190937 244.884543 
L 560.961868 243.1325 
L 561.732799 246.460514 
L 562.50373 241.473981 
L 563.274662 241.490601 
L 564.045593 244.595155 
L 564.816524 240.048815 
L 565.587455 243.195752 
L 566.358386 241.189038 
L 567.129317 244.271354 
L 567.900249 244.250892 
L 568.67118 244.739346 
L 569.442111 244.38689 
L 570.213042 248.463471 
L 570.983973 240.510331 
L 571.754905 245.016923 
L 572.525836 244.031981 
L 573.296767 247.904284 
L 574.067698 244.367741 
L 574.838629 243.446007 
L 575.609561 239.770987 
L 576.380492 241.950733 
L 577.922354 245.364267 
L 578.693285 244.776887 
L 579.464217 243.659106 
L 580.235148 241.100733 
L 581.006079 242.966772 
L 581.77701 245.824569 
L 582.547941 241.679978 
L 583.318873 240.315215 
L 584.089804 243.197098 
L 584.860735 241.69878 
L 585.631666 242.50201 
L 586.402597 244.138513 
L 587.173529 242.310212 
L 587.94446 245.956777 
L 588.715391 243.527358 
L 589.486322 239.831843 
L 590.257253 239.546107 
L 591.028185 245.997541 
L 591.799116 241.079413 
L 592.570047 245.35053 
L 593.340978 243.940696 
L 594.111909 241.640171 
L 594.882841 243.420886 
L 595.653772 242.59401 
L 596.424703 242.134791 
L 597.195634 242.094314 
L 598.737497 242.679705 
L 599.508428 242.694739 
L 600.279359 241.730856 
L 601.05029 242.570255 
L 601.821221 244.101295 
L 602.592153 245.242052 
L 603.363084 240.798643 
L 604.134015 241.87005 
L 604.904946 241.04407 
L 605.675877 241.082558 
L 606.446809 245.293439 
L 607.21774 239.941251 
L 607.988671 244.188369 
L 608.759602 241.813952 
L 609.530533 241.563503 
L 610.301464 238.998566 
L 611.072396 239.23458 
L 611.843327 237.836933 
L 612.614258 242.949249 
L 613.385189 245.38011 
L 614.15612 243.487475 
L 614.927052 246.090312 
L 615.697983 240.451396 
L 616.468914 244.502045 
L 617.239845 245.991473 
L 618.010776 242.309913 
L 618.781708 237.60796 
L 619.552639 242.232143 
L 621.094501 243.703292 
L 621.865432 241.278782 
L 622.636364 244.739894 
L 622.636364 244.739894 
" style="fill:none;stroke:#ff7f0e;stroke-linecap:square;stroke-width:0.5;"/>
   </g>
   <g id="patch_3">
    <path d="M 90 315 
L 90 43.2 
" style="fill:none;stroke:#000000;stroke-linecap:square;stroke-linejoin:miter;stroke-width:0.8;"/>
   </g>
   <g id="patch_4">
    <path d="M 648 315 
L 648 43.2 
" style="fill:none;stroke:#000000;stroke-linecap:square;stroke-linejoin:miter;stroke-width:0.8;"/>
   </g>
   <g id="patch_5">
    <path d="M 90 315 
L 648 315 
" style="fill:none;stroke:#000000;stroke-linecap:square;stroke-linejoin:miter;stroke-width:0.8;"/>
   </g>
   <g id="patch_6">
    <path d="M 90 43.2 
L 648 43.2 
" style="fill:none;stroke:#000000;stroke-linecap:square;stroke-linejoin:miter;stroke-width:0.8;"/>
   </g>
   <g id="text_16">
    <!-- loss -->
    <g transform="translate(357.410625 37.2)scale(0.12 -0.12)">
     <use xlink:href="#DejaVuSans-108"/>
     <use x="27.783203" xlink:href="#DejaVuSans-111"/>
     <use x="88.964844" xlink:href="#DejaVuSans-115"/>
     <use x="141.064453" xlink:href="#DejaVuSans-115"/>
    </g>
   </g>
   <g id="legend_1">
    <g id="patch_7">
     <path d="M 568.846875 80.55625 
L 641 80.55625 
Q 643 80.55625 643 78.55625 
L 643 50.2 
Q 643 48.2 641 48.2 
L 568.846875 48.2 
Q 566.846875 48.2 566.846875 50.2 
L 566.846875 78.55625 
Q 566.846875 80.55625 568.846875 80.55625 
z
" style="fill:#ffffff;opacity:0.8;stroke:#cccccc;stroke-linejoin:miter;"/>
    </g>
    <g id="line2d_29">
     <path d="M 570.846875 56.298437 
L 590.846875 56.298437 
" style="fill:none;stroke:#1f77b4;stroke-linecap:square;stroke-width:0.5;"/>
    </g>
    <g id="line2d_30"/>
    <g id="text_17">
     <!-- train -->
     <defs>
      <path d="M 18.3125 70.21875 
L 18.3125 54.6875 
L 36.8125 54.6875 
L 36.8125 47.703125 
L 18.3125 47.703125 
L 18.3125 18.015625 
Q 18.3125 11.328125 20.140625 9.421875 
Q 21.96875 7.515625 27.59375 7.515625 
L 36.8125 7.515625 
L 36.8125 0 
L 27.59375 0 
Q 17.1875 0 13.234375 3.875 
Q 9.28125 7.765625 9.28125 18.015625 
L 9.28125 47.703125 
L 2.6875 47.703125 
L 2.6875 54.6875 
L 9.28125 54.6875 
L 9.28125 70.21875 
z
" id="DejaVuSans-116"/>
      <path d="M 41.109375 46.296875 
Q 39.59375 47.171875 37.8125 47.578125 
Q 36.03125 48 33.890625 48 
Q 26.265625 48 22.1875 43.046875 
Q 18.109375 38.09375 18.109375 28.8125 
L 18.109375 0 
L 9.078125 0 
L 9.078125 54.6875 
L 18.109375 54.6875 
L 18.109375 46.1875 
Q 20.953125 51.171875 25.484375 53.578125 
Q 30.03125 56 36.53125 56 
Q 37.453125 56 38.578125 55.875 
Q 39.703125 55.765625 41.0625 55.515625 
z
" id="DejaVuSans-114"/>
      <path d="M 34.28125 27.484375 
Q 23.390625 27.484375 19.1875 25 
Q 14.984375 22.515625 14.984375 16.5 
Q 14.984375 11.71875 18.140625 8.90625 
Q 21.296875 6.109375 26.703125 6.109375 
Q 34.1875 6.109375 38.703125 11.40625 
Q 43.21875 16.703125 43.21875 25.484375 
L 43.21875 27.484375 
z
M 52.203125 31.203125 
L 52.203125 0 
L 43.21875 0 
L 43.21875 8.296875 
Q 40.140625 3.328125 35.546875 0.953125 
Q 30.953125 -1.421875 24.3125 -1.421875 
Q 15.921875 -1.421875 10.953125 3.296875 
Q 6 8.015625 6 15.921875 
Q 6 25.140625 12.171875 29.828125 
Q 18.359375 34.515625 30.609375 34.515625 
L 43.21875 34.515625 
L 43.21875 35.40625 
Q 43.21875 41.609375 39.140625 45 
Q 35.0625 48.390625 27.6875 48.390625 
Q 23 48.390625 18.546875 47.265625 
Q 14.109375 46.140625 10.015625 43.890625 
L 10.015625 52.203125 
Q 14.9375 54.109375 19.578125 55.046875 
Q 24.21875 56 28.609375 56 
Q 40.484375 56 46.34375 49.84375 
Q 52.203125 43.703125 52.203125 31.203125 
z
" id="DejaVuSans-97"/>
      <path d="M 9.421875 54.6875 
L 18.40625 54.6875 
L 18.40625 0 
L 9.421875 0 
z
M 9.421875 75.984375 
L 18.40625 75.984375 
L 18.40625 64.59375 
L 9.421875 64.59375 
z
" id="DejaVuSans-105"/>
      <path d="M 54.890625 33.015625 
L 54.890625 0 
L 45.90625 0 
L 45.90625 32.71875 
Q 45.90625 40.484375 42.875 44.328125 
Q 39.84375 48.1875 33.796875 48.1875 
Q 26.515625 48.1875 22.3125 43.546875 
Q 18.109375 38.921875 18.109375 30.90625 
L 18.109375 0 
L 9.078125 0 
L 9.078125 54.6875 
L 18.109375 54.6875 
L 18.109375 46.1875 
Q 21.34375 51.125 25.703125 53.5625 
Q 30.078125 56 35.796875 56 
Q 45.21875 56 50.046875 50.171875 
Q 54.890625 44.34375 54.890625 33.015625 
z
" id="DejaVuSans-110"/>
     </defs>
     <g transform="translate(598.846875 59.798437)scale(0.1 -0.1)">
      <use xlink:href="#DejaVuSans-116"/>
      <use x="39.208984" xlink:href="#DejaVuSans-114"/>
      <use x="80.322266" xlink:href="#DejaVuSans-97"/>
      <use x="141.601562" xlink:href="#DejaVuSans-105"/>
      <use x="169.384766" xlink:href="#DejaVuSans-110"/>
     </g>
    </g>
    <g id="line2d_31">
     <path d="M 570.846875 70.976562 
L 590.846875 70.976562 
" style="fill:none;stroke:#ff7f0e;stroke-linecap:square;stroke-width:0.5;"/>
    </g>
    <g id="line2d_32"/>
    <g id="text_18">
     <!-- validate -->
     <defs>
      <path d="M 2.984375 54.6875 
L 12.5 54.6875 
L 29.59375 8.796875 
L 46.6875 54.6875 
L 56.203125 54.6875 
L 35.6875 0 
L 23.484375 0 
z
" id="DejaVuSans-118"/>
      <path d="M 45.40625 46.390625 
L 45.40625 75.984375 
L 54.390625 75.984375 
L 54.390625 0 
L 45.40625 0 
L 45.40625 8.203125 
Q 42.578125 3.328125 38.25 0.953125 
Q 33.9375 -1.421875 27.875 -1.421875 
Q 17.96875 -1.421875 11.734375 6.484375 
Q 5.515625 14.40625 5.515625 27.296875 
Q 5.515625 40.1875 11.734375 48.09375 
Q 17.96875 56 27.875 56 
Q 33.9375 56 38.25 53.625 
Q 42.578125 51.265625 45.40625 46.390625 
z
M 14.796875 27.296875 
Q 14.796875 17.390625 18.875 11.75 
Q 22.953125 6.109375 30.078125 6.109375 
Q 37.203125 6.109375 41.296875 11.75 
Q 45.40625 17.390625 45.40625 27.296875 
Q 45.40625 37.203125 41.296875 42.84375 
Q 37.203125 48.484375 30.078125 48.484375 
Q 22.953125 48.484375 18.875 42.84375 
Q 14.796875 37.203125 14.796875 27.296875 
z
" id="DejaVuSans-100"/>
     </defs>
     <g transform="translate(598.846875 74.476562)scale(0.1 -0.1)">
      <use xlink:href="#DejaVuSans-118"/>
      <use x="59.179688" xlink:href="#DejaVuSans-97"/>
      <use x="120.458984" xlink:href="#DejaVuSans-108"/>
      <use x="148.242188" xlink:href="#DejaVuSans-105"/>
      <use x="176.025391" xlink:href="#DejaVuSans-100"/>
      <use x="239.501953" xlink:href="#DejaVuSans-97"/>
      <use x="300.78125" xlink:href="#DejaVuSans-116"/>
      <use x="339.990234" xlink:href="#DejaVuSans-101"/>
     </g>
    </g>
   </g>
  </g>
 </g>
 <defs>
  <clipPath id="p925ba61db4">
   <rect height="271.8" width="558" x="90" y="43.2"/>
  </clipPath>
 </defs>
</svg>
