<?xml version="1.0" encoding="utf-8" standalone="no"?>
<!DOCTYPE svg PUBLIC "-//W3C//DTD SVG 1.1//EN"
  "http://www.w3.org/Graphics/SVG/1.1/DTD/svg11.dtd">
<!-- Created with matplotlib (https://matplotlib.org/) -->
<svg height="360pt" version="1.1" viewBox="0 0 720 360" width="720pt" xmlns="http://www.w3.org/2000/svg" xmlns:xlink="http://www.w3.org/1999/xlink">
 <defs>
  <style type="text/css">
*{stroke-linecap:butt;stroke-linejoin:round;}
  </style>
 </defs>
 <g id="figure_1">
  <g id="patch_1">
   <path d="M 0 360 
L 720 360 
L 720 0 
L 0 0 
z
" style="fill:#ffffff;"/>
  </g>
  <g id="axes_1">
   <g id="patch_2">
    <path d="M 90 315 
L 648 315 
L 648 43.2 
L 90 43.2 
z
" style="fill:#ffffff;"/>
   </g>
   <g id="matplotlib.axis_1">
    <g id="xtick_1">
     <g id="line2d_1">
      <path clip-path="url(#p0e5d64c16e)" d="M 115.363636 315 
L 115.363636 43.2 
" style="fill:none;stroke:#b0b0b0;stroke-linecap:square;stroke-width:0.8;"/>
     </g>
     <g id="line2d_2">
      <defs>
       <path d="M 0 0 
L 0 3.5 
" id="m1c98f9cfb3" style="stroke:#000000;stroke-width:0.8;"/>
      </defs>
      <g>
       <use style="stroke:#000000;stroke-width:0.8;" x="115.363636" xlink:href="#m1c98f9cfb3" y="315"/>
      </g>
     </g>
     <g id="text_1">
      <!-- 0 -->
      <defs>
       <path d="M 31.78125 66.40625 
Q 24.171875 66.40625 20.328125 58.90625 
Q 16.5 51.421875 16.5 36.375 
Q 16.5 21.390625 20.328125 13.890625 
Q 24.171875 6.390625 31.78125 6.390625 
Q 39.453125 6.390625 43.28125 13.890625 
Q 47.125 21.390625 47.125 36.375 
Q 47.125 51.421875 43.28125 58.90625 
Q 39.453125 66.40625 31.78125 66.40625 
z
M 31.78125 74.21875 
Q 44.046875 74.21875 50.515625 64.515625 
Q 56.984375 54.828125 56.984375 36.375 
Q 56.984375 17.96875 50.515625 8.265625 
Q 44.046875 -1.421875 31.78125 -1.421875 
Q 19.53125 -1.421875 13.0625 8.265625 
Q 6.59375 17.96875 6.59375 36.375 
Q 6.59375 54.828125 13.0625 64.515625 
Q 19.53125 74.21875 31.78125 74.21875 
z
" id="DejaVuSans-48"/>
      </defs>
      <g transform="translate(112.182386 329.598437)scale(0.1 -0.1)">
       <use xlink:href="#DejaVuSans-48"/>
      </g>
     </g>
    </g>
    <g id="xtick_2">
     <g id="line2d_3">
      <path clip-path="url(#p0e5d64c16e)" d="M 184.568647 315 
L 184.568647 43.2 
" style="fill:none;stroke:#b0b0b0;stroke-linecap:square;stroke-width:0.8;"/>
     </g>
     <g id="line2d_4">
      <g>
       <use style="stroke:#000000;stroke-width:0.8;" x="184.568647" xlink:href="#m1c98f9cfb3" y="315"/>
      </g>
     </g>
     <g id="text_2">
      <!-- 100 -->
      <defs>
       <path d="M 12.40625 8.296875 
L 28.515625 8.296875 
L 28.515625 63.921875 
L 10.984375 60.40625 
L 10.984375 69.390625 
L 28.421875 72.90625 
L 38.28125 72.90625 
L 38.28125 8.296875 
L 54.390625 8.296875 
L 54.390625 0 
L 12.40625 0 
z
" id="DejaVuSans-49"/>
      </defs>
      <g transform="translate(175.024897 329.598437)scale(0.1 -0.1)">
       <use xlink:href="#DejaVuSans-49"/>
       <use x="63.623047" xlink:href="#DejaVuSans-48"/>
       <use x="127.246094" xlink:href="#DejaVuSans-48"/>
      </g>
     </g>
    </g>
    <g id="xtick_3">
     <g id="line2d_5">
      <path clip-path="url(#p0e5d64c16e)" d="M 253.773657 315 
L 253.773657 43.2 
" style="fill:none;stroke:#b0b0b0;stroke-linecap:square;stroke-width:0.8;"/>
     </g>
     <g id="line2d_6">
      <g>
       <use style="stroke:#000000;stroke-width:0.8;" x="253.773657" xlink:href="#m1c98f9cfb3" y="315"/>
      </g>
     </g>
     <g id="text_3">
      <!-- 200 -->
      <defs>
       <path d="M 19.1875 8.296875 
L 53.609375 8.296875 
L 53.609375 0 
L 7.328125 0 
L 7.328125 8.296875 
Q 12.9375 14.109375 22.625 23.890625 
Q 32.328125 33.6875 34.8125 36.53125 
Q 39.546875 41.84375 41.421875 45.53125 
Q 43.3125 49.21875 43.3125 52.78125 
Q 43.3125 58.59375 39.234375 62.25 
Q 35.15625 65.921875 28.609375 65.921875 
Q 23.96875 65.921875 18.8125 64.3125 
Q 13.671875 62.703125 7.8125 59.421875 
L 7.8125 69.390625 
Q 13.765625 71.78125 18.9375 73 
Q 24.125 74.21875 28.421875 74.21875 
Q 39.75 74.21875 46.484375 68.546875 
Q 53.21875 62.890625 53.21875 53.421875 
Q 53.21875 48.921875 51.53125 44.890625 
Q 49.859375 40.875 45.40625 35.40625 
Q 44.1875 33.984375 37.640625 27.21875 
Q 31.109375 20.453125 19.1875 8.296875 
z
" id="DejaVuSans-50"/>
      </defs>
      <g transform="translate(244.229907 329.598437)scale(0.1 -0.1)">
       <use xlink:href="#DejaVuSans-50"/>
       <use x="63.623047" xlink:href="#DejaVuSans-48"/>
       <use x="127.246094" xlink:href="#DejaVuSans-48"/>
      </g>
     </g>
    </g>
    <g id="xtick_4">
     <g id="line2d_7">
      <path clip-path="url(#p0e5d64c16e)" d="M 322.978668 315 
L 322.978668 43.2 
" style="fill:none;stroke:#b0b0b0;stroke-linecap:square;stroke-width:0.8;"/>
     </g>
     <g id="line2d_8">
      <g>
       <use style="stroke:#000000;stroke-width:0.8;" x="322.978668" xlink:href="#m1c98f9cfb3" y="315"/>
      </g>
     </g>
     <g id="text_4">
      <!-- 300 -->
      <defs>
       <path d="M 40.578125 39.3125 
Q 47.65625 37.796875 51.625 33 
Q 55.609375 28.21875 55.609375 21.1875 
Q 55.609375 10.40625 48.1875 4.484375 
Q 40.765625 -1.421875 27.09375 -1.421875 
Q 22.515625 -1.421875 17.65625 -0.515625 
Q 12.796875 0.390625 7.625 2.203125 
L 7.625 11.71875 
Q 11.71875 9.328125 16.59375 8.109375 
Q 21.484375 6.890625 26.8125 6.890625 
Q 36.078125 6.890625 40.9375 10.546875 
Q 45.796875 14.203125 45.796875 21.1875 
Q 45.796875 27.640625 41.28125 31.265625 
Q 36.765625 34.90625 28.71875 34.90625 
L 20.21875 34.90625 
L 20.21875 43.015625 
L 29.109375 43.015625 
Q 36.375 43.015625 40.234375 45.921875 
Q 44.09375 48.828125 44.09375 54.296875 
Q 44.09375 59.90625 40.109375 62.90625 
Q 36.140625 65.921875 28.71875 65.921875 
Q 24.65625 65.921875 20.015625 65.03125 
Q 15.375 64.15625 9.8125 62.3125 
L 9.8125 71.09375 
Q 15.4375 72.65625 20.34375 73.4375 
Q 25.25 74.21875 29.59375 74.21875 
Q 40.828125 74.21875 47.359375 69.109375 
Q 53.90625 64.015625 53.90625 55.328125 
Q 53.90625 49.265625 50.4375 45.09375 
Q 46.96875 40.921875 40.578125 39.3125 
z
" id="DejaVuSans-51"/>
      </defs>
      <g transform="translate(313.434918 329.598437)scale(0.1 -0.1)">
       <use xlink:href="#DejaVuSans-51"/>
       <use x="63.623047" xlink:href="#DejaVuSans-48"/>
       <use x="127.246094" xlink:href="#DejaVuSans-48"/>
      </g>
     </g>
    </g>
    <g id="xtick_5">
     <g id="line2d_9">
      <path clip-path="url(#p0e5d64c16e)" d="M 392.183679 315 
L 392.183679 43.2 
" style="fill:none;stroke:#b0b0b0;stroke-linecap:square;stroke-width:0.8;"/>
     </g>
     <g id="line2d_10">
      <g>
       <use style="stroke:#000000;stroke-width:0.8;" x="392.183679" xlink:href="#m1c98f9cfb3" y="315"/>
      </g>
     </g>
     <g id="text_5">
      <!-- 400 -->
      <defs>
       <path d="M 37.796875 64.3125 
L 12.890625 25.390625 
L 37.796875 25.390625 
z
M 35.203125 72.90625 
L 47.609375 72.90625 
L 47.609375 25.390625 
L 58.015625 25.390625 
L 58.015625 17.1875 
L 47.609375 17.1875 
L 47.609375 0 
L 37.796875 0 
L 37.796875 17.1875 
L 4.890625 17.1875 
L 4.890625 26.703125 
z
" id="DejaVuSans-52"/>
      </defs>
      <g transform="translate(382.639929 329.598437)scale(0.1 -0.1)">
       <use xlink:href="#DejaVuSans-52"/>
       <use x="63.623047" xlink:href="#DejaVuSans-48"/>
       <use x="127.246094" xlink:href="#DejaVuSans-48"/>
      </g>
     </g>
    </g>
    <g id="xtick_6">
     <g id="line2d_11">
      <path clip-path="url(#p0e5d64c16e)" d="M 461.388689 315 
L 461.388689 43.2 
" style="fill:none;stroke:#b0b0b0;stroke-linecap:square;stroke-width:0.8;"/>
     </g>
     <g id="line2d_12">
      <g>
       <use style="stroke:#000000;stroke-width:0.8;" x="461.388689" xlink:href="#m1c98f9cfb3" y="315"/>
      </g>
     </g>
     <g id="text_6">
      <!-- 500 -->
      <defs>
       <path d="M 10.796875 72.90625 
L 49.515625 72.90625 
L 49.515625 64.59375 
L 19.828125 64.59375 
L 19.828125 46.734375 
Q 21.96875 47.46875 24.109375 47.828125 
Q 26.265625 48.1875 28.421875 48.1875 
Q 40.625 48.1875 47.75 41.5 
Q 54.890625 34.8125 54.890625 23.390625 
Q 54.890625 11.625 47.5625 5.09375 
Q 40.234375 -1.421875 26.90625 -1.421875 
Q 22.3125 -1.421875 17.546875 -0.640625 
Q 12.796875 0.140625 7.71875 1.703125 
L 7.71875 11.625 
Q 12.109375 9.234375 16.796875 8.0625 
Q 21.484375 6.890625 26.703125 6.890625 
Q 35.15625 6.890625 40.078125 11.328125 
Q 45.015625 15.765625 45.015625 23.390625 
Q 45.015625 31 40.078125 35.4375 
Q 35.15625 39.890625 26.703125 39.890625 
Q 22.75 39.890625 18.8125 39.015625 
Q 14.890625 38.140625 10.796875 36.28125 
z
" id="DejaVuSans-53"/>
      </defs>
      <g transform="translate(451.844939 329.598437)scale(0.1 -0.1)">
       <use xlink:href="#DejaVuSans-53"/>
       <use x="63.623047" xlink:href="#DejaVuSans-48"/>
       <use x="127.246094" xlink:href="#DejaVuSans-48"/>
      </g>
     </g>
    </g>
    <g id="xtick_7">
     <g id="line2d_13">
      <path clip-path="url(#p0e5d64c16e)" d="M 530.5937 315 
L 530.5937 43.2 
" style="fill:none;stroke:#b0b0b0;stroke-linecap:square;stroke-width:0.8;"/>
     </g>
     <g id="line2d_14">
      <g>
       <use style="stroke:#000000;stroke-width:0.8;" x="530.5937" xlink:href="#m1c98f9cfb3" y="315"/>
      </g>
     </g>
     <g id="text_7">
      <!-- 600 -->
      <defs>
       <path d="M 33.015625 40.375 
Q 26.375 40.375 22.484375 35.828125 
Q 18.609375 31.296875 18.609375 23.390625 
Q 18.609375 15.53125 22.484375 10.953125 
Q 26.375 6.390625 33.015625 6.390625 
Q 39.65625 6.390625 43.53125 10.953125 
Q 47.40625 15.53125 47.40625 23.390625 
Q 47.40625 31.296875 43.53125 35.828125 
Q 39.65625 40.375 33.015625 40.375 
z
M 52.59375 71.296875 
L 52.59375 62.3125 
Q 48.875 64.0625 45.09375 64.984375 
Q 41.3125 65.921875 37.59375 65.921875 
Q 27.828125 65.921875 22.671875 59.328125 
Q 17.53125 52.734375 16.796875 39.40625 
Q 19.671875 43.65625 24.015625 45.921875 
Q 28.375 48.1875 33.59375 48.1875 
Q 44.578125 48.1875 50.953125 41.515625 
Q 57.328125 34.859375 57.328125 23.390625 
Q 57.328125 12.15625 50.6875 5.359375 
Q 44.046875 -1.421875 33.015625 -1.421875 
Q 20.359375 -1.421875 13.671875 8.265625 
Q 6.984375 17.96875 6.984375 36.375 
Q 6.984375 53.65625 15.1875 63.9375 
Q 23.390625 74.21875 37.203125 74.21875 
Q 40.921875 74.21875 44.703125 73.484375 
Q 48.484375 72.75 52.59375 71.296875 
z
" id="DejaVuSans-54"/>
      </defs>
      <g transform="translate(521.04995 329.598437)scale(0.1 -0.1)">
       <use xlink:href="#DejaVuSans-54"/>
       <use x="63.623047" xlink:href="#DejaVuSans-48"/>
       <use x="127.246094" xlink:href="#DejaVuSans-48"/>
      </g>
     </g>
    </g>
    <g id="xtick_8">
     <g id="line2d_15">
      <path clip-path="url(#p0e5d64c16e)" d="M 599.79871 315 
L 599.79871 43.2 
" style="fill:none;stroke:#b0b0b0;stroke-linecap:square;stroke-width:0.8;"/>
     </g>
     <g id="line2d_16">
      <g>
       <use style="stroke:#000000;stroke-width:0.8;" x="599.79871" xlink:href="#m1c98f9cfb3" y="315"/>
      </g>
     </g>
     <g id="text_8">
      <!-- 700 -->
      <defs>
       <path d="M 8.203125 72.90625 
L 55.078125 72.90625 
L 55.078125 68.703125 
L 28.609375 0 
L 18.3125 0 
L 43.21875 64.59375 
L 8.203125 64.59375 
z
" id="DejaVuSans-55"/>
      </defs>
      <g transform="translate(590.25496 329.598437)scale(0.1 -0.1)">
       <use xlink:href="#DejaVuSans-55"/>
       <use x="63.623047" xlink:href="#DejaVuSans-48"/>
       <use x="127.246094" xlink:href="#DejaVuSans-48"/>
      </g>
     </g>
    </g>
    <g id="text_9">
     <!-- epoch -->
     <defs>
      <path d="M 56.203125 29.59375 
L 56.203125 25.203125 
L 14.890625 25.203125 
Q 15.484375 15.921875 20.484375 11.0625 
Q 25.484375 6.203125 34.421875 6.203125 
Q 39.59375 6.203125 44.453125 7.46875 
Q 49.3125 8.734375 54.109375 11.28125 
L 54.109375 2.78125 
Q 49.265625 0.734375 44.1875 -0.34375 
Q 39.109375 -1.421875 33.890625 -1.421875 
Q 20.796875 -1.421875 13.15625 6.1875 
Q 5.515625 13.8125 5.515625 26.8125 
Q 5.515625 40.234375 12.765625 48.109375 
Q 20.015625 56 32.328125 56 
Q 43.359375 56 49.78125 48.890625 
Q 56.203125 41.796875 56.203125 29.59375 
z
M 47.21875 32.234375 
Q 47.125 39.59375 43.09375 43.984375 
Q 39.0625 48.390625 32.421875 48.390625 
Q 24.90625 48.390625 20.390625 44.140625 
Q 15.875 39.890625 15.1875 32.171875 
z
" id="DejaVuSans-101"/>
      <path d="M 18.109375 8.203125 
L 18.109375 -20.796875 
L 9.078125 -20.796875 
L 9.078125 54.6875 
L 18.109375 54.6875 
L 18.109375 46.390625 
Q 20.953125 51.265625 25.265625 53.625 
Q 29.59375 56 35.59375 56 
Q 45.5625 56 51.78125 48.09375 
Q 58.015625 40.1875 58.015625 27.296875 
Q 58.015625 14.40625 51.78125 6.484375 
Q 45.5625 -1.421875 35.59375 -1.421875 
Q 29.59375 -1.421875 25.265625 0.953125 
Q 20.953125 3.328125 18.109375 8.203125 
z
M 48.6875 27.296875 
Q 48.6875 37.203125 44.609375 42.84375 
Q 40.53125 48.484375 33.40625 48.484375 
Q 26.265625 48.484375 22.1875 42.84375 
Q 18.109375 37.203125 18.109375 27.296875 
Q 18.109375 17.390625 22.1875 11.75 
Q 26.265625 6.109375 33.40625 6.109375 
Q 40.53125 6.109375 44.609375 11.75 
Q 48.6875 17.390625 48.6875 27.296875 
z
" id="DejaVuSans-112"/>
      <path d="M 30.609375 48.390625 
Q 23.390625 48.390625 19.1875 42.75 
Q 14.984375 37.109375 14.984375 27.296875 
Q 14.984375 17.484375 19.15625 11.84375 
Q 23.34375 6.203125 30.609375 6.203125 
Q 37.796875 6.203125 41.984375 11.859375 
Q 46.1875 17.53125 46.1875 27.296875 
Q 46.1875 37.015625 41.984375 42.703125 
Q 37.796875 48.390625 30.609375 48.390625 
z
M 30.609375 56 
Q 42.328125 56 49.015625 48.375 
Q 55.71875 40.765625 55.71875 27.296875 
Q 55.71875 13.875 49.015625 6.21875 
Q 42.328125 -1.421875 30.609375 -1.421875 
Q 18.84375 -1.421875 12.171875 6.21875 
Q 5.515625 13.875 5.515625 27.296875 
Q 5.515625 40.765625 12.171875 48.375 
Q 18.84375 56 30.609375 56 
z
" id="DejaVuSans-111"/>
      <path d="M 48.78125 52.59375 
L 48.78125 44.1875 
Q 44.96875 46.296875 41.140625 47.34375 
Q 37.3125 48.390625 33.40625 48.390625 
Q 24.65625 48.390625 19.8125 42.84375 
Q 14.984375 37.3125 14.984375 27.296875 
Q 14.984375 17.28125 19.8125 11.734375 
Q 24.65625 6.203125 33.40625 6.203125 
Q 37.3125 6.203125 41.140625 7.25 
Q 44.96875 8.296875 48.78125 10.40625 
L 48.78125 2.09375 
Q 45.015625 0.34375 40.984375 -0.53125 
Q 36.96875 -1.421875 32.421875 -1.421875 
Q 20.0625 -1.421875 12.78125 6.34375 
Q 5.515625 14.109375 5.515625 27.296875 
Q 5.515625 40.671875 12.859375 48.328125 
Q 20.21875 56 33.015625 56 
Q 37.15625 56 41.109375 55.140625 
Q 45.0625 54.296875 48.78125 52.59375 
z
" id="DejaVuSans-99"/>
      <path d="M 54.890625 33.015625 
L 54.890625 0 
L 45.90625 0 
L 45.90625 32.71875 
Q 45.90625 40.484375 42.875 44.328125 
Q 39.84375 48.1875 33.796875 48.1875 
Q 26.515625 48.1875 22.3125 43.546875 
Q 18.109375 38.921875 18.109375 30.90625 
L 18.109375 0 
L 9.078125 0 
L 9.078125 75.984375 
L 18.109375 75.984375 
L 18.109375 46.1875 
Q 21.34375 51.125 25.703125 53.5625 
Q 30.078125 56 35.796875 56 
Q 45.21875 56 50.046875 50.171875 
Q 54.890625 44.34375 54.890625 33.015625 
z
" id="DejaVuSans-104"/>
     </defs>
     <g transform="translate(353.771875 343.276563)scale(0.1 -0.1)">
      <use xlink:href="#DejaVuSans-101"/>
      <use x="61.523438" xlink:href="#DejaVuSans-112"/>
      <use x="125" xlink:href="#DejaVuSans-111"/>
      <use x="186.181641" xlink:href="#DejaVuSans-99"/>
      <use x="241.162109" xlink:href="#DejaVuSans-104"/>
     </g>
    </g>
   </g>
   <g id="matplotlib.axis_2">
    <g id="ytick_1">
     <g id="line2d_17">
      <path clip-path="url(#p0e5d64c16e)" d="M 90 314.623082 
L 648 314.623082 
" style="fill:none;stroke:#b0b0b0;stroke-linecap:square;stroke-width:0.8;"/>
     </g>
     <g id="line2d_18">
      <defs>
       <path d="M 0 0 
L -3.5 0 
" id="m5860030c0a" style="stroke:#000000;stroke-width:0.8;"/>
      </defs>
      <g>
       <use style="stroke:#000000;stroke-width:0.8;" x="90" xlink:href="#m5860030c0a" y="314.623082"/>
      </g>
     </g>
     <g id="text_10">
      <!-- 0.2 -->
      <defs>
       <path d="M 10.6875 12.40625 
L 21 12.40625 
L 21 0 
L 10.6875 0 
z
" id="DejaVuSans-46"/>
      </defs>
      <g transform="translate(67.096875 318.4223)scale(0.1 -0.1)">
       <use xlink:href="#DejaVuSans-48"/>
       <use x="63.623047" xlink:href="#DejaVuSans-46"/>
       <use x="95.410156" xlink:href="#DejaVuSans-50"/>
      </g>
     </g>
    </g>
    <g id="ytick_2">
     <g id="line2d_19">
      <path clip-path="url(#p0e5d64c16e)" d="M 90 281.11923 
L 648 281.11923 
" style="fill:none;stroke:#b0b0b0;stroke-linecap:square;stroke-width:0.8;"/>
     </g>
     <g id="line2d_20">
      <g>
       <use style="stroke:#000000;stroke-width:0.8;" x="90" xlink:href="#m5860030c0a" y="281.11923"/>
      </g>
     </g>
     <g id="text_11">
      <!-- 0.3 -->
      <g transform="translate(67.096875 284.918448)scale(0.1 -0.1)">
       <use xlink:href="#DejaVuSans-48"/>
       <use x="63.623047" xlink:href="#DejaVuSans-46"/>
       <use x="95.410156" xlink:href="#DejaVuSans-51"/>
      </g>
     </g>
    </g>
    <g id="ytick_3">
     <g id="line2d_21">
      <path clip-path="url(#p0e5d64c16e)" d="M 90 247.615378 
L 648 247.615378 
" style="fill:none;stroke:#b0b0b0;stroke-linecap:square;stroke-width:0.8;"/>
     </g>
     <g id="line2d_22">
      <g>
       <use style="stroke:#000000;stroke-width:0.8;" x="90" xlink:href="#m5860030c0a" y="247.615378"/>
      </g>
     </g>
     <g id="text_12">
      <!-- 0.4 -->
      <g transform="translate(67.096875 251.414596)scale(0.1 -0.1)">
       <use xlink:href="#DejaVuSans-48"/>
       <use x="63.623047" xlink:href="#DejaVuSans-46"/>
       <use x="95.410156" xlink:href="#DejaVuSans-52"/>
      </g>
     </g>
    </g>
    <g id="ytick_4">
     <g id="line2d_23">
      <path clip-path="url(#p0e5d64c16e)" d="M 90 214.111525 
L 648 214.111525 
" style="fill:none;stroke:#b0b0b0;stroke-linecap:square;stroke-width:0.8;"/>
     </g>
     <g id="line2d_24">
      <g>
       <use style="stroke:#000000;stroke-width:0.8;" x="90" xlink:href="#m5860030c0a" y="214.111525"/>
      </g>
     </g>
     <g id="text_13">
      <!-- 0.5 -->
      <g transform="translate(67.096875 217.910744)scale(0.1 -0.1)">
       <use xlink:href="#DejaVuSans-48"/>
       <use x="63.623047" xlink:href="#DejaVuSans-46"/>
       <use x="95.410156" xlink:href="#DejaVuSans-53"/>
      </g>
     </g>
    </g>
    <g id="ytick_5">
     <g id="line2d_25">
      <path clip-path="url(#p0e5d64c16e)" d="M 90 180.607673 
L 648 180.607673 
" style="fill:none;stroke:#b0b0b0;stroke-linecap:square;stroke-width:0.8;"/>
     </g>
     <g id="line2d_26">
      <g>
       <use style="stroke:#000000;stroke-width:0.8;" x="90" xlink:href="#m5860030c0a" y="180.607673"/>
      </g>
     </g>
     <g id="text_14">
      <!-- 0.6 -->
      <g transform="translate(67.096875 184.406892)scale(0.1 -0.1)">
       <use xlink:href="#DejaVuSans-48"/>
       <use x="63.623047" xlink:href="#DejaVuSans-46"/>
       <use x="95.410156" xlink:href="#DejaVuSans-54"/>
      </g>
     </g>
    </g>
    <g id="ytick_6">
     <g id="line2d_27">
      <path clip-path="url(#p0e5d64c16e)" d="M 90 147.103821 
L 648 147.103821 
" style="fill:none;stroke:#b0b0b0;stroke-linecap:square;stroke-width:0.8;"/>
     </g>
     <g id="line2d_28">
      <g>
       <use style="stroke:#000000;stroke-width:0.8;" x="90" xlink:href="#m5860030c0a" y="147.103821"/>
      </g>
     </g>
     <g id="text_15">
      <!-- 0.7 -->
      <g transform="translate(67.096875 150.90304)scale(0.1 -0.1)">
       <use xlink:href="#DejaVuSans-48"/>
       <use x="63.623047" xlink:href="#DejaVuSans-46"/>
       <use x="95.410156" xlink:href="#DejaVuSans-55"/>
      </g>
     </g>
    </g>
    <g id="ytick_7">
     <g id="line2d_29">
      <path clip-path="url(#p0e5d64c16e)" d="M 90 113.599969 
L 648 113.599969 
" style="fill:none;stroke:#b0b0b0;stroke-linecap:square;stroke-width:0.8;"/>
     </g>
     <g id="line2d_30">
      <g>
       <use style="stroke:#000000;stroke-width:0.8;" x="90" xlink:href="#m5860030c0a" y="113.599969"/>
      </g>
     </g>
     <g id="text_16">
      <!-- 0.8 -->
      <defs>
       <path d="M 31.78125 34.625 
Q 24.75 34.625 20.71875 30.859375 
Q 16.703125 27.09375 16.703125 20.515625 
Q 16.703125 13.921875 20.71875 10.15625 
Q 24.75 6.390625 31.78125 6.390625 
Q 38.8125 6.390625 42.859375 10.171875 
Q 46.921875 13.96875 46.921875 20.515625 
Q 46.921875 27.09375 42.890625 30.859375 
Q 38.875 34.625 31.78125 34.625 
z
M 21.921875 38.8125 
Q 15.578125 40.375 12.03125 44.71875 
Q 8.5 49.078125 8.5 55.328125 
Q 8.5 64.0625 14.71875 69.140625 
Q 20.953125 74.21875 31.78125 74.21875 
Q 42.671875 74.21875 48.875 69.140625 
Q 55.078125 64.0625 55.078125 55.328125 
Q 55.078125 49.078125 51.53125 44.71875 
Q 48 40.375 41.703125 38.8125 
Q 48.828125 37.15625 52.796875 32.3125 
Q 56.78125 27.484375 56.78125 20.515625 
Q 56.78125 9.90625 50.3125 4.234375 
Q 43.84375 -1.421875 31.78125 -1.421875 
Q 19.734375 -1.421875 13.25 4.234375 
Q 6.78125 9.90625 6.78125 20.515625 
Q 6.78125 27.484375 10.78125 32.3125 
Q 14.796875 37.15625 21.921875 38.8125 
z
M 18.3125 54.390625 
Q 18.3125 48.734375 21.84375 45.5625 
Q 25.390625 42.390625 31.78125 42.390625 
Q 38.140625 42.390625 41.71875 45.5625 
Q 45.3125 48.734375 45.3125 54.390625 
Q 45.3125 60.0625 41.71875 63.234375 
Q 38.140625 66.40625 31.78125 66.40625 
Q 25.390625 66.40625 21.84375 63.234375 
Q 18.3125 60.0625 18.3125 54.390625 
z
" id="DejaVuSans-56"/>
      </defs>
      <g transform="translate(67.096875 117.399188)scale(0.1 -0.1)">
       <use xlink:href="#DejaVuSans-48"/>
       <use x="63.623047" xlink:href="#DejaVuSans-46"/>
       <use x="95.410156" xlink:href="#DejaVuSans-56"/>
      </g>
     </g>
    </g>
    <g id="ytick_8">
     <g id="line2d_31">
      <path clip-path="url(#p0e5d64c16e)" d="M 90 80.096117 
L 648 80.096117 
" style="fill:none;stroke:#b0b0b0;stroke-linecap:square;stroke-width:0.8;"/>
     </g>
     <g id="line2d_32">
      <g>
       <use style="stroke:#000000;stroke-width:0.8;" x="90" xlink:href="#m5860030c0a" y="80.096117"/>
      </g>
     </g>
     <g id="text_17">
      <!-- 0.9 -->
      <defs>
       <path d="M 10.984375 1.515625 
L 10.984375 10.5 
Q 14.703125 8.734375 18.5 7.8125 
Q 22.3125 6.890625 25.984375 6.890625 
Q 35.75 6.890625 40.890625 13.453125 
Q 46.046875 20.015625 46.78125 33.40625 
Q 43.953125 29.203125 39.59375 26.953125 
Q 35.25 24.703125 29.984375 24.703125 
Q 19.046875 24.703125 12.671875 31.3125 
Q 6.296875 37.9375 6.296875 49.421875 
Q 6.296875 60.640625 12.9375 67.421875 
Q 19.578125 74.21875 30.609375 74.21875 
Q 43.265625 74.21875 49.921875 64.515625 
Q 56.59375 54.828125 56.59375 36.375 
Q 56.59375 19.140625 48.40625 8.859375 
Q 40.234375 -1.421875 26.421875 -1.421875 
Q 22.703125 -1.421875 18.890625 -0.6875 
Q 15.09375 0.046875 10.984375 1.515625 
z
M 30.609375 32.421875 
Q 37.25 32.421875 41.125 36.953125 
Q 45.015625 41.5 45.015625 49.421875 
Q 45.015625 57.28125 41.125 61.84375 
Q 37.25 66.40625 30.609375 66.40625 
Q 23.96875 66.40625 20.09375 61.84375 
Q 16.21875 57.28125 16.21875 49.421875 
Q 16.21875 41.5 20.09375 36.953125 
Q 23.96875 32.421875 30.609375 32.421875 
z
" id="DejaVuSans-57"/>
      </defs>
      <g transform="translate(67.096875 83.895336)scale(0.1 -0.1)">
       <use xlink:href="#DejaVuSans-48"/>
       <use x="63.623047" xlink:href="#DejaVuSans-46"/>
       <use x="95.410156" xlink:href="#DejaVuSans-57"/>
      </g>
     </g>
    </g>
    <g id="ytick_9">
     <g id="line2d_33">
      <path clip-path="url(#p0e5d64c16e)" d="M 90 46.592265 
L 648 46.592265 
" style="fill:none;stroke:#b0b0b0;stroke-linecap:square;stroke-width:0.8;"/>
     </g>
     <g id="line2d_34">
      <g>
       <use style="stroke:#000000;stroke-width:0.8;" x="90" xlink:href="#m5860030c0a" y="46.592265"/>
      </g>
     </g>
     <g id="text_18">
      <!-- 1.0 -->
      <g transform="translate(67.096875 50.391484)scale(0.1 -0.1)">
       <use xlink:href="#DejaVuSans-49"/>
       <use x="63.623047" xlink:href="#DejaVuSans-46"/>
       <use x="95.410156" xlink:href="#DejaVuSans-48"/>
      </g>
     </g>
    </g>
    <g id="text_19">
     <!-- accuracy -->
     <defs>
      <path d="M 34.28125 27.484375 
Q 23.390625 27.484375 19.1875 25 
Q 14.984375 22.515625 14.984375 16.5 
Q 14.984375 11.71875 18.140625 8.90625 
Q 21.296875 6.109375 26.703125 6.109375 
Q 34.1875 6.109375 38.703125 11.40625 
Q 43.21875 16.703125 43.21875 25.484375 
L 43.21875 27.484375 
z
M 52.203125 31.203125 
L 52.203125 0 
L 43.21875 0 
L 43.21875 8.296875 
Q 40.140625 3.328125 35.546875 0.953125 
Q 30.953125 -1.421875 24.3125 -1.421875 
Q 15.921875 -1.421875 10.953125 3.296875 
Q 6 8.015625 6 15.921875 
Q 6 25.140625 12.171875 29.828125 
Q 18.359375 34.515625 30.609375 34.515625 
L 43.21875 34.515625 
L 43.21875 35.40625 
Q 43.21875 41.609375 39.140625 45 
Q 35.0625 48.390625 27.6875 48.390625 
Q 23 48.390625 18.546875 47.265625 
Q 14.109375 46.140625 10.015625 43.890625 
L 10.015625 52.203125 
Q 14.9375 54.109375 19.578125 55.046875 
Q 24.21875 56 28.609375 56 
Q 40.484375 56 46.34375 49.84375 
Q 52.203125 43.703125 52.203125 31.203125 
z
" id="DejaVuSans-97"/>
      <path d="M 8.5 21.578125 
L 8.5 54.6875 
L 17.484375 54.6875 
L 17.484375 21.921875 
Q 17.484375 14.15625 20.5 10.265625 
Q 23.53125 6.390625 29.59375 6.390625 
Q 36.859375 6.390625 41.078125 11.03125 
Q 45.3125 15.671875 45.3125 23.6875 
L 45.3125 54.6875 
L 54.296875 54.6875 
L 54.296875 0 
L 45.3125 0 
L 45.3125 8.40625 
Q 42.046875 3.421875 37.71875 1 
Q 33.40625 -1.421875 27.6875 -1.421875 
Q 18.265625 -1.421875 13.375 4.4375 
Q 8.5 10.296875 8.5 21.578125 
z
M 31.109375 56 
z
" id="DejaVuSans-117"/>
      <path d="M 41.109375 46.296875 
Q 39.59375 47.171875 37.8125 47.578125 
Q 36.03125 48 33.890625 48 
Q 26.265625 48 22.1875 43.046875 
Q 18.109375 38.09375 18.109375 28.8125 
L 18.109375 0 
L 9.078125 0 
L 9.078125 54.6875 
L 18.109375 54.6875 
L 18.109375 46.1875 
Q 20.953125 51.171875 25.484375 53.578125 
Q 30.03125 56 36.53125 56 
Q 37.453125 56 38.578125 55.875 
Q 39.703125 55.765625 41.0625 55.515625 
z
" id="DejaVuSans-114"/>
      <path d="M 32.171875 -5.078125 
Q 28.375 -14.84375 24.75 -17.8125 
Q 21.140625 -20.796875 15.09375 -20.796875 
L 7.90625 -20.796875 
L 7.90625 -13.28125 
L 13.1875 -13.28125 
Q 16.890625 -13.28125 18.9375 -11.515625 
Q 21 -9.765625 23.484375 -3.21875 
L 25.09375 0.875 
L 2.984375 54.6875 
L 12.5 54.6875 
L 29.59375 11.921875 
L 46.6875 54.6875 
L 56.203125 54.6875 
z
" id="DejaVuSans-121"/>
     </defs>
     <g transform="translate(61.017187 201.659375)rotate(-90)scale(0.1 -0.1)">
      <use xlink:href="#DejaVuSans-97"/>
      <use x="61.279297" xlink:href="#DejaVuSans-99"/>
      <use x="116.259766" xlink:href="#DejaVuSans-99"/>
      <use x="171.240234" xlink:href="#DejaVuSans-117"/>
      <use x="234.619141" xlink:href="#DejaVuSans-114"/>
      <use x="275.732422" xlink:href="#DejaVuSans-97"/>
      <use x="337.011719" xlink:href="#DejaVuSans-99"/>
      <use x="391.992188" xlink:href="#DejaVuSans-121"/>
     </g>
    </g>
   </g>
   <g id="line2d_35">
    <path clip-path="url(#p0e5d64c16e)" d="M 115.363636 302.645455 
L 116.055686 286.731125 
L 116.747737 285.055932 
L 117.439787 275.423575 
L 119.515937 262.357072 
L 120.207987 252.892234 
L 120.900037 254.483667 
L 121.592087 241.500924 
L 122.284137 236.559106 
L 122.976188 239.825732 
L 123.668238 236.810385 
L 124.360288 229.188259 
L 125.052338 225.084037 
L 125.744388 224.078921 
L 126.436438 217.964468 
L 127.128488 217.043112 
L 127.820538 211.766256 
L 128.512588 208.164592 
L 129.204638 200.458706 
L 129.896689 200.291186 
L 130.588739 194.176733 
L 131.280789 191.161387 
L 131.972839 186.303328 
L 132.664889 183.874299 
L 133.356939 176.419692 
L 134.048989 173.739384 
L 134.741039 170.13772 
L 135.433089 167.541171 
L 136.12514 163.855747 
L 136.81719 159.248968 
L 137.50924 160.672881 
L 138.20129 154.809707 
L 138.89334 151.208043 
L 139.58539 146.014946 
L 140.27744 147.187581 
L 141.66154 141.910724 
L 142.35359 141.826965 
L 143.045641 135.796271 
L 143.737691 134.372357 
L 144.429741 133.70228 
L 145.121791 130.519414 
L 145.813841 129.849337 
L 146.505891 130.351895 
L 147.197941 127.420308 
L 147.889991 125.996394 
L 148.582041 123.064807 
L 149.274092 124.65624 
L 149.966142 124.153683 
L 150.658192 122.646009 
L 151.350242 121.724653 
L 152.042292 118.206749 
L 152.734342 119.798182 
L 153.426392 114.856364 
L 154.118442 116.531556 
L 154.810492 116.364037 
L 156.194593 111.17094 
L 156.886643 111.422219 
L 157.578693 112.259815 
L 159.654843 108.90943 
L 160.346893 104.470169 
L 161.038943 101.957381 
L 161.730993 107.066718 
L 162.423044 104.470169 
L 163.115094 106.56416 
L 163.807144 101.706102 
L 165.191244 98.942034 
L 165.883294 102.1249 
L 166.575344 99.277072 
L 167.267394 99.025794 
L 167.959444 95.926687 
L 168.651494 100.365948 
L 169.343545 99.612111 
L 170.035595 97.685639 
L 170.727645 94.419014 
L 171.419695 95.34037 
L 172.111745 97.266841 
L 172.803795 98.523236 
L 173.495845 96.848043 
L 174.187895 93.916456 
L 174.879945 94.586533 
L 175.571996 92.157504 
L 176.264046 92.157504 
L 176.956096 92.743821 
L 177.648146 89.560955 
L 178.340196 88.220801 
L 179.032246 89.728475 
L 179.724296 89.979753 
L 180.416346 88.639599 
L 181.108396 90.901109 
L 181.800446 88.304561 
L 182.492497 86.629368 
L 183.184547 86.461849 
L 183.876597 88.304561 
L 184.568647 85.540493 
L 185.260697 84.367858 
L 185.952747 85.875532 
L 186.644797 83.781541 
L 187.336847 86.964407 
L 188.028897 82.357627 
L 188.720948 86.29433 
L 189.412998 84.367858 
L 190.105048 83.697781 
L 190.797098 84.702897 
L 191.489148 84.03282 
L 192.181198 83.111464 
L 192.873248 85.121695 
L 193.565298 82.692666 
L 194.257348 81.938829 
L 194.949398 82.441387 
L 195.641449 81.855069 
L 196.333499 79.761079 
L 197.025549 81.184992 
L 197.717599 80.514915 
L 198.409649 78.169646 
L 199.101699 79.007242 
L 199.793749 80.347396 
L 200.485799 79.844838 
L 201.177849 81.68755 
L 201.8699 77.24829 
L 202.56195 81.60379 
L 203.254 77.415809 
L 203.94605 80.096117 
L 204.6381 78.672203 
L 205.33015 79.928598 
L 206.0222 79.091002 
L 206.71425 77.583328 
L 207.4063 78.839723 
L 208.09835 75.321818 
L 208.790401 76.997011 
L 209.482451 75.991895 
L 210.174501 75.573097 
L 210.866551 78.253405 
L 211.558601 77.415809 
L 212.250651 75.991895 
L 212.942701 77.499569 
L 213.634751 77.16453 
L 214.326801 74.149183 
L 215.018852 76.661972 
L 215.710902 77.415809 
L 216.402952 74.232943 
L 217.095002 74.149183 
L 217.787052 76.997011 
L 218.479102 73.897904 
L 219.171152 75.656857 
L 219.863202 74.484222 
L 220.555252 74.81926 
L 221.247302 74.400462 
L 221.939353 75.573097 
L 223.323453 72.55775 
L 224.015503 72.138952 
L 224.707553 71.971433 
L 225.399603 73.479106 
L 226.091653 71.803914 
L 226.783703 74.651741 
L 227.475753 72.138952 
L 228.167804 73.060308 
L 228.859854 70.882558 
L 229.551904 72.55775 
L 230.243954 73.311587 
L 230.936004 73.060308 
L 231.628054 74.484222 
L 232.320104 72.055193 
L 233.012154 73.060308 
L 233.704204 70.128721 
L 234.396254 70.46376 
L 235.088305 72.138952 
L 236.472405 71.636394 
L 237.164455 71.050077 
L 237.856505 74.149183 
L 238.548555 73.227827 
L 239.240605 71.301356 
L 239.932655 71.552635 
L 240.624705 70.29624 
L 241.316756 71.217596 
L 242.008806 70.715039 
L 242.700856 69.039846 
L 243.392906 70.631279 
L 244.084956 69.458644 
L 244.777006 70.128721 
L 245.469056 70.547519 
L 246.161106 70.547519 
L 246.853156 67.783451 
L 247.545206 69.793683 
L 248.237257 68.11849 
L 248.929307 69.793683 
L 249.621357 69.709923 
L 250.313407 69.123606 
L 251.005457 69.542404 
L 251.697507 69.793683 
L 253.081607 68.453529 
L 253.773657 69.793683 
L 254.465708 69.123606 
L 255.157758 69.542404 
L 255.849808 68.788567 
L 256.541858 69.123606 
L 257.233908 68.788567 
L 257.925958 69.291125 
L 258.618008 70.547519 
L 259.310058 68.537288 
L 260.002108 72.222712 
L 260.694159 66.778336 
L 261.386209 69.709923 
L 262.078259 69.123606 
L 262.770309 69.207365 
L 263.462359 69.542404 
L 264.154409 67.364653 
L 264.846459 68.788567 
L 265.538509 69.291125 
L 266.922609 67.950971 
L 267.61466 67.448413 
L 268.30671 69.374884 
L 268.99876 67.029615 
L 269.69081 68.956086 
L 270.38286 65.85698 
L 271.76696 65.605701 
L 272.45901 69.374884 
L 273.15106 66.108259 
L 273.843111 67.783451 
L 274.535161 67.364653 
L 275.227211 68.03473 
L 275.919261 65.521941 
L 276.611311 67.029615 
L 277.303361 68.11849 
L 277.995411 65.689461 
L 278.687461 68.11849 
L 279.379511 67.615932 
L 280.071561 66.359538 
L 280.763612 64.433066 
L 281.455662 66.945855 
L 282.147712 67.615932 
L 282.839762 66.275778 
L 283.531812 65.605701 
L 284.223862 66.694576 
L 284.915912 66.945855 
L 285.607962 68.369769 
L 286.300012 67.197134 
L 286.992063 66.778336 
L 287.684113 66.945855 
L 288.376163 64.851864 
L 289.068213 68.11849 
L 289.760263 66.778336 
L 290.452313 65.689461 
L 291.144363 66.778336 
L 291.836413 64.851864 
L 292.528463 65.270663 
L 293.220513 65.103143 
L 293.912564 66.192018 
L 294.604614 65.77322 
L 295.296664 66.945855 
L 295.988714 64.851864 
L 296.680764 65.186903 
L 297.372814 68.453529 
L 298.064864 64.684345 
L 298.756914 66.024499 
L 299.448964 64.851864 
L 300.141015 65.354422 
L 300.833065 65.186903 
L 301.525115 67.197134 
L 302.217165 65.354422 
L 302.909215 65.438182 
L 303.601265 65.689461 
L 304.293315 64.181787 
L 304.985365 63.260431 
L 305.677415 63.762989 
L 306.369465 65.94074 
L 307.061516 66.192018 
L 307.753566 64.768105 
L 308.445616 66.694576 
L 309.137666 64.265547 
L 309.829716 63.427951 
L 310.521766 64.768105 
L 311.213816 66.610817 
L 311.905866 64.014268 
L 312.597916 65.605701 
L 313.289967 64.768105 
L 313.982017 65.94074 
L 314.674067 66.610817 
L 315.366117 64.014268 
L 316.058167 64.181787 
L 316.750217 64.516826 
L 317.442267 65.85698 
L 318.134317 65.270663 
L 318.826367 63.846749 
L 319.518417 63.762989 
L 320.210468 65.186903 
L 320.902518 65.103143 
L 321.594568 66.778336 
L 322.286618 64.349307 
L 322.978668 65.270663 
L 323.670718 64.516826 
L 324.362768 64.851864 
L 325.054818 64.265547 
L 325.746868 64.516826 
L 326.438919 65.354422 
L 327.130969 65.354422 
L 327.823019 65.85698 
L 328.515069 63.762989 
L 329.207119 64.014268 
L 329.899169 63.260431 
L 331.283269 63.344191 
L 331.975319 64.265547 
L 333.35942 64.349307 
L 334.05147 63.344191 
L 334.74352 64.349307 
L 335.43557 63.846749 
L 336.12762 62.590354 
L 336.81967 63.59547 
L 337.51172 64.181787 
L 338.20377 63.260431 
L 338.89582 62.925393 
L 339.587871 64.265547 
L 340.279921 62.339076 
L 340.971971 64.516826 
L 341.664021 62.422835 
L 342.356071 62.087797 
L 343.048121 64.851864 
L 343.740171 63.427951 
L 344.432221 64.851864 
L 345.124271 62.171556 
L 345.816321 62.339076 
L 346.508372 64.433066 
L 347.200422 61.668998 
L 347.892472 65.605701 
L 348.584522 63.67923 
L 349.276572 63.092912 
L 349.968622 61.501479 
L 351.352722 62.757874 
L 352.044772 62.674114 
L 352.736823 63.427951 
L 353.428873 62.422835 
L 354.120923 63.092912 
L 354.812973 62.004037 
L 355.505023 61.41772 
L 356.197073 63.009153 
L 356.889123 63.59547 
L 357.581173 64.516826 
L 358.273223 59.993806 
L 358.965273 61.668998 
L 359.657324 61.166441 
L 360.349374 62.674114 
L 361.041424 62.506595 
L 361.733474 62.004037 
L 362.425524 62.506595 
L 363.117574 60.831402 
L 363.809624 61.920277 
L 364.501674 63.930508 
L 365.885775 59.575008 
L 366.577825 61.668998 
L 367.269875 62.506595 
L 367.961925 65.019384 
L 369.346025 61.585239 
L 370.038075 63.176672 
L 370.730125 62.171556 
L 371.422175 61.920277 
L 372.114225 61.836518 
L 372.806276 63.260431 
L 373.498326 63.427951 
L 374.190376 61.836518 
L 374.882426 63.427951 
L 375.574476 62.004037 
L 376.266526 62.087797 
L 376.958576 61.33396 
L 377.650626 63.762989 
L 378.342676 62.004037 
L 379.034727 61.2502 
L 379.726777 62.590354 
L 380.418827 63.344191 
L 381.110877 61.585239 
L 381.802927 61.920277 
L 382.494977 62.674114 
L 383.187027 62.422835 
L 383.879077 62.925393 
L 385.263177 60.412604 
L 385.955228 63.344191 
L 386.647278 62.255316 
L 387.339328 63.009153 
L 388.031378 62.506595 
L 388.723428 60.077565 
L 389.415478 63.092912 
L 390.107528 60.412604 
L 390.799578 60.412604 
L 391.491628 62.925393 
L 392.183679 61.2502 
L 392.875729 62.925393 
L 393.567779 61.920277 
L 394.259829 63.344191 
L 394.951879 62.255316 
L 395.643929 61.501479 
L 396.335979 61.668998 
L 397.028029 59.910046 
L 397.720079 62.339076 
L 398.412129 61.752758 
L 399.10418 63.427951 
L 399.79623 62.506595 
L 400.48828 60.747643 
L 401.18033 62.171556 
L 401.87238 61.33396 
L 402.56443 61.585239 
L 403.25648 61.585239 
L 403.94853 60.077565 
L 404.64058 60.580123 
L 405.332631 60.663883 
L 406.024681 62.255316 
L 406.716731 60.998921 
L 407.408781 60.328844 
L 408.100831 61.501479 
L 408.792881 60.328844 
L 409.484931 61.2502 
L 410.176981 59.323729 
L 410.869031 63.092912 
L 411.561081 61.836518 
L 412.253132 62.422835 
L 412.945182 60.998921 
L 414.329282 62.087797 
L 415.021332 60.077565 
L 415.713382 59.658767 
L 416.405432 61.166441 
L 417.097482 61.585239 
L 417.789532 60.496364 
L 418.481583 60.747643 
L 419.173633 59.407488 
L 419.865683 59.826287 
L 420.557733 62.004037 
L 421.249783 61.082681 
L 421.941833 61.668998 
L 422.633883 60.412604 
L 423.325933 60.915162 
L 424.017983 59.15621 
L 424.710033 60.998921 
L 425.402084 60.496364 
L 426.094134 59.826287 
L 426.786184 62.004037 
L 427.478234 60.915162 
L 428.170284 61.668998 
L 428.862334 60.747643 
L 429.554384 59.15621 
L 430.246434 63.344191 
L 430.938484 60.496364 
L 431.630535 60.580123 
L 432.322585 61.501479 
L 433.014635 60.328844 
L 433.706685 60.998921 
L 434.398735 60.077565 
L 435.090785 61.668998 
L 435.782835 59.491248 
L 436.474885 60.747643 
L 437.166935 58.569892 
L 437.858985 59.993806 
L 438.551036 58.904931 
L 439.243086 61.752758 
L 439.935136 58.821171 
L 440.627186 59.742527 
L 442.011286 60.328844 
L 442.703336 61.166441 
L 443.395386 58.98869 
L 444.087436 60.245085 
L 444.779487 58.486133 
L 445.471537 58.904931 
L 446.855637 61.2502 
L 447.547687 60.328844 
L 448.239737 59.658767 
L 448.931787 60.831402 
L 449.623837 60.998921 
L 450.315887 60.663883 
L 451.007937 61.166441 
L 451.699988 59.07245 
L 452.392038 61.33396 
L 453.084088 60.580123 
L 453.776138 60.998921 
L 454.468188 60.496364 
L 455.160238 59.742527 
L 455.852288 60.663883 
L 456.544338 61.33396 
L 457.236388 59.910046 
L 457.928439 61.2502 
L 458.620489 62.171556 
L 459.312539 61.082681 
L 460.004589 59.742527 
L 460.696639 58.653652 
L 462.080739 60.580123 
L 462.772789 58.737411 
L 463.464839 61.33396 
L 464.156889 59.07245 
L 464.84894 60.496364 
L 465.54099 59.826287 
L 466.23304 58.653652 
L 466.92509 60.663883 
L 467.61714 61.501479 
L 468.30919 59.239969 
L 469.00124 59.407488 
L 469.69329 58.486133 
L 470.38534 60.077565 
L 471.077391 56.81094 
L 471.769441 58.737411 
L 472.461491 59.15621 
L 473.153541 58.151094 
L 474.537641 60.747643 
L 475.229691 58.486133 
L 475.921741 61.166441 
L 476.613791 60.998921 
L 477.305841 59.993806 
L 477.997892 59.826287 
L 478.689942 60.161325 
L 479.381992 59.323729 
L 480.074042 58.821171 
L 480.766092 58.821171 
L 481.458142 59.491248 
L 482.150192 59.910046 
L 482.842242 58.821171 
L 483.534292 59.575008 
L 484.226343 57.899815 
L 484.918393 59.993806 
L 485.610443 58.234854 
L 486.302493 57.816055 
L 486.994543 59.658767 
L 487.686593 58.151094 
L 488.378643 58.653652 
L 489.070693 59.910046 
L 489.762743 59.826287 
L 490.454794 58.234854 
L 491.146844 58.569892 
L 491.838894 59.07245 
L 492.530944 60.245085 
L 493.222994 59.575008 
L 493.915044 59.826287 
L 494.607094 59.826287 
L 495.991194 58.402373 
L 496.683244 58.151094 
L 497.375295 56.978459 
L 498.067345 58.234854 
L 499.451445 59.323729 
L 500.143495 57.983575 
L 500.835545 59.323729 
L 501.527595 59.07245 
L 502.219645 59.239969 
L 502.911695 59.658767 
L 503.603746 58.234854 
L 504.295796 58.737411 
L 504.987846 58.486133 
L 505.679896 57.816055 
L 507.063996 59.910046 
L 507.756046 58.821171 
L 508.448096 60.747643 
L 509.140146 58.234854 
L 509.832196 58.653652 
L 510.524247 58.569892 
L 511.216297 57.397257 
L 511.908347 59.491248 
L 512.600397 58.151094 
L 513.292447 58.98869 
L 513.984497 59.491248 
L 514.676547 56.978459 
L 515.368597 58.486133 
L 516.060647 58.821171 
L 516.752698 59.575008 
L 518.136798 57.397257 
L 518.828848 57.899815 
L 519.520898 57.983575 
L 520.212948 58.234854 
L 520.904998 58.98869 
L 521.597048 59.07245 
L 522.289098 58.402373 
L 522.981148 58.151094 
L 524.365249 58.737411 
L 525.057299 58.486133 
L 525.749349 58.067334 
L 526.441399 58.737411 
L 527.133449 59.742527 
L 527.825499 57.816055 
L 528.517549 58.486133 
L 529.209599 59.742527 
L 529.90165 58.486133 
L 530.5937 59.993806 
L 531.28575 57.983575 
L 531.9778 59.658767 
L 532.66985 58.653652 
L 533.3619 58.904931 
L 534.05395 60.245085 
L 534.746 58.821171 
L 535.43805 58.569892 
L 536.1301 57.481017 
L 537.514201 58.821171 
L 538.206251 60.077565 
L 538.898301 58.318613 
L 539.590351 57.062219 
L 540.282401 58.569892 
L 540.974451 58.151094 
L 542.358551 58.234854 
L 543.050602 57.648536 
L 543.742652 56.81094 
L 545.126752 58.318613 
L 545.818802 58.569892 
L 546.510852 58.653652 
L 547.202902 57.229738 
L 547.894952 58.151094 
L 548.587002 58.318613 
L 549.971103 57.564777 
L 550.663153 59.239969 
L 551.355203 56.81094 
L 552.047253 58.318613 
L 552.739303 57.732296 
L 553.431353 57.648536 
L 554.123403 57.983575 
L 554.815453 58.151094 
L 555.507503 58.98869 
L 556.199554 57.145978 
L 556.891604 58.318613 
L 557.583654 60.496364 
L 558.275704 58.653652 
L 558.967754 57.816055 
L 559.659804 57.397257 
L 560.351854 56.559661 
L 561.043904 59.491248 
L 561.735954 56.8947 
L 562.428004 58.234854 
L 563.120055 57.313498 
L 563.812105 57.481017 
L 564.504155 57.816055 
L 565.196205 57.313498 
L 565.888255 57.816055 
L 566.580305 56.8947 
L 567.272355 58.318613 
L 567.964405 57.313498 
L 568.656455 58.486133 
L 569.348506 59.07245 
L 570.040556 59.239969 
L 570.732606 57.564777 
L 571.424656 58.402373 
L 572.116706 56.81094 
L 572.808756 58.234854 
L 573.500806 57.816055 
L 574.192856 57.564777 
L 574.884906 58.737411 
L 575.576956 57.481017 
L 576.269007 57.648536 
L 576.961057 58.402373 
L 577.653107 57.648536 
L 578.345157 57.983575 
L 579.037207 57.062219 
L 579.729257 58.486133 
L 580.421307 58.067334 
L 581.113357 57.313498 
L 581.805407 57.229738 
L 582.497458 56.978459 
L 583.189508 57.313498 
L 583.881558 56.475901 
L 584.573608 59.826287 
L 585.265658 57.145978 
L 585.957708 57.899815 
L 586.649758 56.72718 
L 587.341808 58.486133 
L 588.033858 57.564777 
L 588.725908 57.983575 
L 589.417959 55.973344 
L 590.110009 59.323729 
L 590.802059 57.229738 
L 591.494109 58.737411 
L 592.186159 58.904931 
L 592.878209 56.81094 
L 594.262309 57.229738 
L 594.954359 56.8947 
L 595.64641 56.308382 
L 596.33846 58.067334 
L 597.03051 57.648536 
L 597.72256 57.983575 
L 598.41461 57.481017 
L 599.10666 57.564777 
L 599.79871 57.397257 
L 600.49076 56.8947 
L 601.18281 57.816055 
L 601.87486 57.564777 
L 602.566911 58.318613 
L 603.258961 58.737411 
L 604.643061 56.559661 
L 605.335111 57.899815 
L 606.719211 58.318613 
L 607.411261 58.569892 
L 608.103311 57.397257 
L 608.795362 58.737411 
L 609.487412 58.318613 
L 610.179462 55.805824 
L 610.871512 57.397257 
L 611.563562 57.145978 
L 612.255612 56.643421 
L 612.947662 55.554545 
L 613.639712 57.062219 
L 614.331762 57.899815 
L 615.023812 56.8947 
L 615.715863 56.8947 
L 616.407913 57.481017 
L 617.099963 57.313498 
L 617.792013 57.397257 
L 618.484063 56.8947 
L 619.176113 57.899815 
L 619.868163 57.313498 
L 620.560213 58.151094 
L 621.252263 56.308382 
L 621.944314 57.145978 
L 622.636364 56.559661 
L 622.636364 56.559661 
" style="fill:none;stroke:#1f77b4;stroke-linecap:square;stroke-width:0.5;"/>
   </g>
   <g id="line2d_36">
    <path clip-path="url(#p0e5d64c16e)" d="M 115.363636 296.195963 
L 116.055686 294.939569 
L 116.747737 281.11923 
L 117.439787 277.852604 
L 118.131837 267.801448 
L 118.823887 266.796333 
L 119.515937 257.834052 
L 120.900037 250.379445 
L 121.592087 249.039291 
L 122.284137 242.171002 
L 122.976188 239.239414 
L 123.668238 241.333405 
L 124.360288 231.28225 
L 125.052338 229.774576 
L 125.744388 225.754114 
L 126.436438 222.906287 
L 127.820538 214.865362 
L 128.512588 205.568043 
L 129.204638 204.06037 
L 129.896689 200.291186 
L 130.588739 199.704869 
L 131.280789 192.836579 
L 131.972839 192.166502 
L 132.664889 185.633251 
L 133.356939 177.843606 
L 134.048989 177.927365 
L 134.741039 175.330817 
L 135.433089 168.965085 
L 136.81719 160.002804 
L 137.50924 159.667766 
L 138.20129 162.264314 
L 138.89334 155.731063 
L 139.58539 155.144746 
L 140.27744 149.951649 
L 140.96949 149.532851 
L 141.66154 146.517504 
L 142.35359 147.187581 
L 143.045641 143.250878 
L 143.737691 143.753436 
L 144.429741 139.230416 
L 145.121791 139.062897 
L 145.813841 135.96379 
L 146.505891 134.539877 
L 147.197941 132.362126 
L 147.889991 132.948444 
L 148.582041 131.943328 
L 149.274092 126.582712 
L 149.966142 127.504068 
L 150.658192 127.755347 
L 151.350242 124.82376 
L 152.042292 126.582712 
L 152.734342 122.813529 
L 153.426392 121.473374 
L 154.118442 122.227211 
L 154.810492 117.536672 
L 155.502542 118.709307 
L 156.194593 117.704191 
L 156.886643 114.772604 
L 157.578693 115.945239 
L 158.270743 112.678613 
L 158.962793 112.762373 
L 159.654843 111.757257 
L 160.346893 113.767488 
L 161.038943 110.752142 
L 161.730993 109.579507 
L 162.423044 109.244468 
L 163.115094 110.249584 
L 163.807144 109.830786 
L 164.499194 106.229122 
L 165.191244 106.480401 
L 165.883294 106.480401 
L 166.575344 107.988074 
L 167.267394 105.810324 
L 167.959444 104.637689 
L 168.651494 101.371063 
L 169.343545 101.119784 
L 170.035595 102.208659 
L 170.727645 102.459938 
L 171.419695 101.957381 
L 172.111745 99.77963 
L 172.803795 100.365948 
L 173.495845 98.523236 
L 174.187895 99.109553 
L 174.879945 98.858274 
L 175.571996 96.596764 
L 176.956096 93.330139 
L 177.648146 97.266841 
L 178.340196 94.419014 
L 179.032246 94.921572 
L 179.724296 92.827581 
L 180.416346 94.921572 
L 181.108396 92.9951 
L 181.800446 92.576302 
L 182.492497 93.665177 
L 183.184547 89.142157 
L 183.876597 95.172851 
L 184.568647 90.81735 
L 185.260697 92.073744 
L 185.952747 92.325023 
L 186.644797 89.812234 
L 187.336847 89.560955 
L 188.028897 90.231032 
L 188.720948 89.058398 
L 189.412998 88.137042 
L 190.105048 90.147273 
L 190.797098 87.885763 
L 191.489148 87.634484 
L 192.181198 84.870416 
L 192.873248 85.121695 
L 193.565298 87.299445 
L 194.257348 86.796888 
L 194.949398 85.456733 
L 195.641449 85.624253 
L 196.333499 85.372974 
L 197.025549 85.959291 
L 197.717599 84.702897 
L 198.409649 84.03282 
L 199.101699 81.77131 
L 199.793749 83.111464 
L 200.485799 82.357627 
L 201.177849 82.860185 
L 201.8699 84.619137 
L 202.56195 80.933713 
L 203.254 82.608906 
L 203.94605 81.855069 
L 204.6381 84.786656 
L 205.33015 80.514915 
L 206.0222 79.42604 
L 206.71425 81.77131 
L 207.4063 81.855069 
L 208.09835 82.860185 
L 208.790401 81.017473 
L 209.482451 81.101233 
L 210.174501 79.844838 
L 210.866551 79.174761 
L 211.558601 81.938829 
L 212.250651 82.106348 
L 212.942701 79.928598 
L 213.634751 79.174761 
L 214.326801 77.918367 
L 215.018852 77.667088 
L 215.710902 76.997011 
L 216.402952 82.692666 
L 217.095002 79.174761 
L 217.787052 76.913251 
L 218.479102 77.583328 
L 219.171152 79.761079 
L 219.863202 77.750847 
L 220.555252 78.002126 
L 221.247302 78.420924 
L 222.631403 76.997011 
L 223.323453 75.991895 
L 224.015503 76.661972 
L 224.707553 76.661972 
L 225.399603 78.253405 
L 226.091653 77.918367 
L 226.783703 76.159414 
L 227.475753 78.420924 
L 228.167804 76.997011 
L 228.859854 76.326934 
L 229.551904 79.091002 
L 230.243954 75.154299 
L 230.936004 75.238059 
L 231.628054 75.573097 
L 232.320104 77.750847 
L 233.012154 77.499569 
L 233.704204 73.897904 
L 234.396254 76.159414 
L 235.088305 74.065424 
L 235.780355 77.499569 
L 236.472405 74.065424 
L 237.164455 73.814145 
L 237.856505 76.326934 
L 238.548555 76.661972 
L 239.240605 73.897904 
L 239.932655 73.562866 
L 240.624705 74.98678 
L 241.316756 75.573097 
L 242.008806 73.730385 
L 242.700856 72.72527 
L 243.392906 76.913251 
L 244.084956 73.730385 
L 244.777006 74.065424 
L 245.469056 73.227827 
L 246.161106 74.567982 
L 246.853156 75.405578 
L 247.545206 74.232943 
L 248.237257 72.809029 
L 248.929307 73.479106 
L 249.621357 73.897904 
L 250.313407 75.405578 
L 251.697507 71.217596 
L 252.389557 74.90302 
L 253.081607 70.46376 
L 253.773657 73.311587 
L 254.465708 73.311587 
L 255.157758 72.892789 
L 255.849808 72.222712 
L 256.541858 72.306471 
L 257.233908 74.651741 
L 257.925958 74.651741 
L 258.618008 73.311587 
L 259.310058 73.562866 
L 260.002108 70.212481 
L 260.694159 72.390231 
L 261.386209 73.060308 
L 262.078259 72.55775 
L 262.770309 71.217596 
L 263.462359 73.479106 
L 264.154409 72.72527 
L 264.846459 75.740616 
L 265.538509 70.715039 
L 266.230559 72.222712 
L 267.61466 70.547519 
L 268.30671 71.971433 
L 268.99876 71.217596 
L 269.69081 71.217596 
L 270.38286 70.38 
L 271.07491 71.636394 
L 271.76696 71.803914 
L 272.45901 72.306471 
L 273.15106 72.222712 
L 273.843111 73.060308 
L 275.227211 70.38 
L 275.919261 71.217596 
L 276.611311 70.547519 
L 277.303361 70.631279 
L 277.995411 71.385116 
L 278.687461 69.709923 
L 279.379511 69.961202 
L 280.071561 71.217596 
L 280.763612 69.709923 
L 281.455662 70.882558 
L 282.147712 70.798798 
L 282.839762 72.306471 
L 283.531812 72.390231 
L 284.223862 72.055193 
L 284.915912 71.552635 
L 285.607962 70.798798 
L 286.300012 70.966317 
L 286.992063 69.542404 
L 287.684113 70.715039 
L 288.376163 71.133837 
L 289.068213 70.128721 
L 289.760263 71.217596 
L 290.452313 70.46376 
L 291.144363 70.38 
L 291.836413 69.877442 
L 292.528463 70.044961 
L 293.220513 69.207365 
L 293.912564 69.626163 
L 294.604614 70.966317 
L 295.296664 70.46376 
L 295.988714 69.626163 
L 296.680764 69.793683 
L 297.372814 70.29624 
L 298.064864 68.286009 
L 298.756914 69.291125 
L 299.448964 70.044961 
L 300.141015 71.468875 
L 300.833065 67.532173 
L 301.525115 70.715039 
L 302.909215 68.537288 
L 303.601265 67.950971 
L 304.293315 70.29624 
L 304.985365 69.793683 
L 305.677415 70.631279 
L 306.369465 69.793683 
L 307.753566 69.039846 
L 308.445616 71.552635 
L 309.137666 68.286009 
L 309.829716 68.788567 
L 310.521766 68.872327 
L 311.213816 69.626163 
L 311.905866 68.956086 
L 312.597916 71.050077 
L 313.289967 70.882558 
L 313.982017 68.788567 
L 314.674067 67.448413 
L 315.366117 69.291125 
L 316.058167 69.374884 
L 316.750217 69.793683 
L 317.442267 70.46376 
L 318.134317 70.631279 
L 318.826367 69.877442 
L 319.518417 69.374884 
L 320.210468 71.217596 
L 320.902518 68.788567 
L 321.594568 67.783451 
L 322.286618 70.128721 
L 322.978668 69.039846 
L 323.670718 69.542404 
L 324.362768 68.872327 
L 325.054818 69.961202 
L 325.746868 69.123606 
L 326.438919 69.793683 
L 327.130969 68.788567 
L 327.823019 70.044961 
L 328.515069 69.709923 
L 329.207119 69.961202 
L 329.899169 68.621048 
L 330.591219 70.38 
L 331.283269 68.20225 
L 331.975319 70.212481 
L 332.667369 71.552635 
L 333.35942 67.699692 
L 334.05147 69.626163 
L 334.74352 67.615932 
L 335.43557 69.039846 
L 336.12762 69.626163 
L 336.81967 69.709923 
L 337.51172 68.286009 
L 338.20377 67.448413 
L 338.89582 68.03473 
L 339.587871 66.862096 
L 340.279921 68.537288 
L 340.971971 68.286009 
L 341.664021 68.453529 
L 342.356071 68.788567 
L 343.048121 67.364653 
L 343.740171 69.039846 
L 344.432221 67.280894 
L 345.124271 71.133837 
L 345.816321 69.123606 
L 346.508372 67.532173 
L 347.200422 67.448413 
L 347.892472 69.291125 
L 348.584522 68.03473 
L 349.276572 69.709923 
L 349.968622 71.720154 
L 350.660672 68.20225 
L 351.352722 69.626163 
L 352.044772 69.709923 
L 352.736823 69.961202 
L 353.428873 67.029615 
L 354.120923 67.029615 
L 354.812973 66.192018 
L 355.505023 67.615932 
L 356.197073 68.20225 
L 356.889123 67.699692 
L 357.581173 69.458644 
L 358.273223 69.207365 
L 358.965273 66.192018 
L 359.657324 68.286009 
L 360.349374 67.197134 
L 361.041424 68.11849 
L 361.733474 68.03473 
L 362.425524 67.113374 
L 363.117574 69.123606 
L 363.809624 69.123606 
L 364.501674 68.872327 
L 365.193724 65.94074 
L 365.885775 67.699692 
L 366.577825 68.537288 
L 367.269875 66.694576 
L 367.961925 67.532173 
L 368.653975 69.542404 
L 370.038075 68.956086 
L 370.730125 68.11849 
L 371.422175 69.626163 
L 372.806276 67.783451 
L 373.498326 67.950971 
L 374.190376 67.197134 
L 374.882426 70.29624 
L 375.574476 69.123606 
L 376.266526 68.453529 
L 376.958576 70.128721 
L 377.650626 67.532173 
L 378.342676 68.11849 
L 379.726777 66.024499 
L 380.418827 67.448413 
L 381.110877 67.615932 
L 381.802927 68.03473 
L 382.494977 67.867211 
L 383.187027 67.113374 
L 383.879077 68.286009 
L 384.571127 66.694576 
L 385.263177 69.039846 
L 385.955228 67.113374 
L 386.647278 69.542404 
L 387.339328 68.537288 
L 388.031378 67.113374 
L 388.723428 67.532173 
L 389.415478 67.197134 
L 390.107528 68.20225 
L 390.799578 67.615932 
L 391.491628 66.359538 
L 392.183679 67.029615 
L 392.875729 67.867211 
L 393.567779 70.044961 
L 394.259829 68.872327 
L 394.951879 67.197134 
L 395.643929 67.029615 
L 396.335979 67.783451 
L 397.028029 69.542404 
L 397.720079 67.532173 
L 398.412129 68.11849 
L 399.10418 67.197134 
L 399.79623 68.956086 
L 400.48828 66.443297 
L 401.18033 66.862096 
L 401.87238 68.621048 
L 402.56443 68.537288 
L 403.25648 65.77322 
L 403.94853 67.448413 
L 404.64058 68.453529 
L 405.332631 67.699692 
L 406.024681 68.20225 
L 406.716731 68.956086 
L 407.408781 69.291125 
L 408.100831 68.20225 
L 408.792881 67.448413 
L 409.484931 67.113374 
L 410.176981 69.123606 
L 410.869031 67.029615 
L 411.561081 68.872327 
L 412.253132 66.945855 
L 412.945182 68.704807 
L 413.637232 67.448413 
L 414.329282 68.03473 
L 415.021332 69.374884 
L 415.713382 68.704807 
L 416.405432 69.207365 
L 417.097482 67.448413 
L 417.789532 68.453529 
L 418.481583 68.956086 
L 419.173633 65.354422 
L 419.865683 67.783451 
L 420.557733 68.286009 
L 421.249783 66.694576 
L 421.941833 67.197134 
L 422.633883 70.128721 
L 423.325933 67.364653 
L 424.710033 66.610817 
L 425.402084 65.85698 
L 426.094134 68.704807 
L 426.786184 67.532173 
L 427.478234 68.03473 
L 428.170284 67.867211 
L 428.862334 66.024499 
L 429.554384 68.369769 
L 430.246434 67.029615 
L 430.938484 66.443297 
L 431.630535 67.197134 
L 432.322585 67.280894 
L 433.014635 67.867211 
L 433.706685 66.694576 
L 434.398735 68.453529 
L 435.090785 66.275778 
L 435.782835 67.448413 
L 436.474885 66.443297 
L 437.166935 67.029615 
L 437.858985 65.354422 
L 438.551036 68.788567 
L 439.243086 68.20225 
L 439.935136 66.694576 
L 440.627186 67.280894 
L 442.011286 65.521941 
L 442.703336 66.778336 
L 443.395386 69.039846 
L 444.779487 66.694576 
L 445.471537 67.113374 
L 446.163587 67.029615 
L 446.855637 68.872327 
L 447.547687 67.029615 
L 448.239737 68.788567 
L 448.931787 69.291125 
L 450.315887 66.275778 
L 451.007937 67.950971 
L 451.699988 68.537288 
L 452.392038 67.364653 
L 453.084088 67.867211 
L 453.776138 67.280894 
L 454.468188 66.192018 
L 455.160238 66.694576 
L 455.852288 67.699692 
L 456.544338 69.793683 
L 457.236388 69.626163 
L 457.928439 67.699692 
L 458.620489 67.950971 
L 459.312539 67.950971 
L 460.004589 67.280894 
L 460.696639 67.448413 
L 461.388689 69.123606 
L 462.080739 66.527057 
L 462.772789 67.113374 
L 463.464839 66.778336 
L 464.156889 67.615932 
L 464.84894 67.364653 
L 465.54099 66.945855 
L 466.23304 66.192018 
L 466.92509 68.03473 
L 467.61714 66.443297 
L 468.30919 67.615932 
L 469.00124 67.364653 
L 469.69329 65.103143 
L 470.38534 66.359538 
L 471.077391 66.610817 
L 471.769441 68.11849 
L 472.461491 66.778336 
L 473.153541 67.867211 
L 473.845591 66.359538 
L 474.537641 66.610817 
L 475.229691 69.123606 
L 475.921741 66.778336 
L 476.613791 65.605701 
L 477.305841 66.192018 
L 477.997892 67.615932 
L 478.689942 66.778336 
L 479.381992 66.610817 
L 480.074042 67.197134 
L 480.766092 66.778336 
L 481.458142 65.94074 
L 482.150192 68.369769 
L 482.842242 67.783451 
L 484.226343 65.689461 
L 484.918393 69.542404 
L 485.610443 65.438182 
L 486.302493 66.694576 
L 486.994543 66.945855 
L 487.686593 66.527057 
L 488.378643 65.94074 
L 489.070693 68.537288 
L 489.762743 67.448413 
L 490.454794 66.862096 
L 491.146844 66.778336 
L 491.838894 64.684345 
L 492.530944 68.369769 
L 493.222994 66.443297 
L 494.607094 67.197134 
L 495.299144 65.186903 
L 495.991194 67.532173 
L 496.683244 67.867211 
L 497.375295 66.192018 
L 498.067345 66.108259 
L 498.759395 67.448413 
L 499.451445 67.448413 
L 500.143495 66.778336 
L 500.835545 67.950971 
L 501.527595 68.03473 
L 502.219645 65.689461 
L 502.911695 66.443297 
L 503.603746 66.945855 
L 504.295796 68.788567 
L 504.987846 66.443297 
L 505.679896 66.359538 
L 506.371946 67.950971 
L 507.063996 67.029615 
L 507.756046 67.448413 
L 508.448096 67.615932 
L 509.140146 67.280894 
L 509.832196 65.77322 
L 510.524247 66.359538 
L 511.216297 68.956086 
L 511.908347 67.867211 
L 512.600397 68.20225 
L 513.292447 65.270663 
L 513.984497 69.458644 
L 514.676547 65.521941 
L 515.368597 65.438182 
L 516.060647 66.443297 
L 516.752698 66.862096 
L 517.444748 65.85698 
L 518.136798 67.615932 
L 518.828848 67.532173 
L 519.520898 67.280894 
L 520.212948 66.443297 
L 520.904998 66.443297 
L 522.289098 67.699692 
L 522.981148 64.768105 
L 523.673199 68.03473 
L 524.365249 66.108259 
L 525.057299 67.197134 
L 525.749349 67.364653 
L 526.441399 68.369769 
L 527.133449 67.113374 
L 528.517549 66.945855 
L 529.209599 65.521941 
L 529.90165 66.275778 
L 530.5937 67.615932 
L 531.28575 67.867211 
L 531.9778 67.364653 
L 532.66985 66.443297 
L 533.3619 65.77322 
L 534.05395 66.359538 
L 534.746 67.532173 
L 535.43805 65.605701 
L 536.1301 66.443297 
L 536.822151 68.286009 
L 537.514201 65.605701 
L 538.206251 66.359538 
L 538.898301 67.448413 
L 539.590351 65.019384 
L 540.282401 66.527057 
L 540.974451 66.275778 
L 541.666501 67.950971 
L 542.358551 64.935624 
L 543.050602 66.359538 
L 544.434702 67.867211 
L 545.126752 64.433066 
L 545.818802 65.94074 
L 546.510852 69.039846 
L 547.202902 68.03473 
L 547.894952 65.103143 
L 548.587002 67.280894 
L 549.279052 68.11849 
L 549.971103 66.275778 
L 550.663153 65.94074 
L 551.355203 68.621048 
L 552.047253 65.605701 
L 552.739303 66.778336 
L 553.431353 67.197134 
L 554.123403 65.85698 
L 554.815453 67.950971 
L 555.507503 67.615932 
L 556.199554 66.359538 
L 556.891604 65.94074 
L 557.583654 66.610817 
L 558.275704 66.443297 
L 558.967754 66.778336 
L 559.659804 64.265547 
L 560.351854 68.11849 
L 561.043904 68.20225 
L 561.735954 66.694576 
L 562.428004 67.280894 
L 563.120055 67.364653 
L 563.812105 66.527057 
L 564.504155 66.275778 
L 565.196205 68.20225 
L 565.888255 66.192018 
L 566.580305 68.788567 
L 567.272355 67.867211 
L 567.964405 67.867211 
L 568.656455 66.945855 
L 569.348506 67.783451 
L 570.040556 67.280894 
L 570.732606 67.615932 
L 571.424656 65.438182 
L 572.116706 66.024499 
L 573.500806 67.867211 
L 574.192856 67.197134 
L 574.884906 66.778336 
L 575.576956 67.197134 
L 576.269007 65.605701 
L 576.961057 66.443297 
L 577.653107 66.694576 
L 578.345157 66.024499 
L 579.037207 66.945855 
L 579.729257 68.286009 
L 580.421307 67.113374 
L 581.113357 68.956086 
L 581.805407 68.453529 
L 582.497458 67.783451 
L 583.189508 65.85698 
L 583.881558 67.448413 
L 584.573608 67.615932 
L 585.265658 67.113374 
L 585.957708 66.275778 
L 586.649758 66.527057 
L 587.341808 66.443297 
L 588.033858 66.108259 
L 589.417959 68.956086 
L 590.110009 68.20225 
L 590.802059 69.374884 
L 591.494109 66.694576 
L 592.186159 65.77322 
L 592.878209 66.443297 
L 593.570259 66.192018 
L 594.262309 67.197134 
L 594.954359 65.94074 
L 595.64641 67.364653 
L 596.33846 67.532173 
L 597.03051 65.85698 
L 597.72256 67.029615 
L 598.41461 69.123606 
L 599.10666 67.615932 
L 599.79871 67.532173 
L 600.49076 66.359538 
L 601.18281 65.94074 
L 601.87486 66.945855 
L 602.566911 68.537288 
L 603.258961 66.359538 
L 603.951011 66.275778 
L 604.643061 65.689461 
L 605.335111 68.20225 
L 606.027161 65.186903 
L 606.719211 67.867211 
L 607.411261 67.448413 
L 608.103311 66.694576 
L 608.795362 66.108259 
L 609.487412 66.694576 
L 610.179462 67.783451 
L 610.871512 66.945855 
L 611.563562 66.694576 
L 612.255612 67.197134 
L 612.947662 64.935624 
L 613.639712 66.527057 
L 614.331762 66.694576 
L 615.023812 66.024499 
L 615.715863 67.364653 
L 616.407913 68.453529 
L 617.099963 67.280894 
L 617.792013 68.20225 
L 618.484063 66.945855 
L 619.176113 68.11849 
L 619.868163 67.950971 
L 620.560213 68.20225 
L 621.252263 65.85698 
L 621.944314 67.280894 
L 622.636364 66.694576 
L 622.636364 66.694576 
" style="fill:none;stroke:#ff7f0e;stroke-linecap:square;stroke-width:0.5;"/>
   </g>
   <g id="patch_3">
    <path d="M 90 315 
L 90 43.2 
" style="fill:none;stroke:#000000;stroke-linecap:square;stroke-linejoin:miter;stroke-width:0.8;"/>
   </g>
   <g id="patch_4">
    <path d="M 648 315 
L 648 43.2 
" style="fill:none;stroke:#000000;stroke-linecap:square;stroke-linejoin:miter;stroke-width:0.8;"/>
   </g>
   <g id="patch_5">
    <path d="M 90 315 
L 648 315 
" style="fill:none;stroke:#000000;stroke-linecap:square;stroke-linejoin:miter;stroke-width:0.8;"/>
   </g>
   <g id="patch_6">
    <path d="M 90 43.2 
L 648 43.2 
" style="fill:none;stroke:#000000;stroke-linecap:square;stroke-linejoin:miter;stroke-width:0.8;"/>
   </g>
   <g id="text_20">
    <!-- accuracy -->
    <g transform="translate(341.92875 37.2)scale(0.12 -0.12)">
     <use xlink:href="#DejaVuSans-97"/>
     <use x="61.279297" xlink:href="#DejaVuSans-99"/>
     <use x="116.259766" xlink:href="#DejaVuSans-99"/>
     <use x="171.240234" xlink:href="#DejaVuSans-117"/>
     <use x="234.619141" xlink:href="#DejaVuSans-114"/>
     <use x="275.732422" xlink:href="#DejaVuSans-97"/>
     <use x="337.011719" xlink:href="#DejaVuSans-99"/>
     <use x="391.992188" xlink:href="#DejaVuSans-121"/>
    </g>
   </g>
   <g id="legend_1">
    <g id="patch_7">
     <path d="M 97 80.55625 
L 169.153125 80.55625 
Q 171.153125 80.55625 171.153125 78.55625 
L 171.153125 50.2 
Q 171.153125 48.2 169.153125 48.2 
L 97 48.2 
Q 95 48.2 95 50.2 
L 95 78.55625 
Q 95 80.55625 97 80.55625 
z
" style="fill:#ffffff;opacity:0.8;stroke:#cccccc;stroke-linejoin:miter;"/>
    </g>
    <g id="line2d_37">
     <path d="M 99 56.298437 
L 119 56.298437 
" style="fill:none;stroke:#1f77b4;stroke-linecap:square;stroke-width:0.5;"/>
    </g>
    <g id="line2d_38"/>
    <g id="text_21">
     <!-- train -->
     <defs>
      <path d="M 18.3125 70.21875 
L 18.3125 54.6875 
L 36.8125 54.6875 
L 36.8125 47.703125 
L 18.3125 47.703125 
L 18.3125 18.015625 
Q 18.3125 11.328125 20.140625 9.421875 
Q 21.96875 7.515625 27.59375 7.515625 
L 36.8125 7.515625 
L 36.8125 0 
L 27.59375 0 
Q 17.1875 0 13.234375 3.875 
Q 9.28125 7.765625 9.28125 18.015625 
L 9.28125 47.703125 
L 2.6875 47.703125 
L 2.6875 54.6875 
L 9.28125 54.6875 
L 9.28125 70.21875 
z
" id="DejaVuSans-116"/>
      <path d="M 9.421875 54.6875 
L 18.40625 54.6875 
L 18.40625 0 
L 9.421875 0 
z
M 9.421875 75.984375 
L 18.40625 75.984375 
L 18.40625 64.59375 
L 9.421875 64.59375 
z
" id="DejaVuSans-105"/>
      <path d="M 54.890625 33.015625 
L 54.890625 0 
L 45.90625 0 
L 45.90625 32.71875 
Q 45.90625 40.484375 42.875 44.328125 
Q 39.84375 48.1875 33.796875 48.1875 
Q 26.515625 48.1875 22.3125 43.546875 
Q 18.109375 38.921875 18.109375 30.90625 
L 18.109375 0 
L 9.078125 0 
L 9.078125 54.6875 
L 18.109375 54.6875 
L 18.109375 46.1875 
Q 21.34375 51.125 25.703125 53.5625 
Q 30.078125 56 35.796875 56 
Q 45.21875 56 50.046875 50.171875 
Q 54.890625 44.34375 54.890625 33.015625 
z
" id="DejaVuSans-110"/>
     </defs>
     <g transform="translate(127 59.798437)scale(0.1 -0.1)">
      <use xlink:href="#DejaVuSans-116"/>
      <use x="39.208984" xlink:href="#DejaVuSans-114"/>
      <use x="80.322266" xlink:href="#DejaVuSans-97"/>
      <use x="141.601562" xlink:href="#DejaVuSans-105"/>
      <use x="169.384766" xlink:href="#DejaVuSans-110"/>
     </g>
    </g>
    <g id="line2d_39">
     <path d="M 99 70.976562 
L 119 70.976562 
" style="fill:none;stroke:#ff7f0e;stroke-linecap:square;stroke-width:0.5;"/>
    </g>
    <g id="line2d_40"/>
    <g id="text_22">
     <!-- validate -->
     <defs>
      <path d="M 2.984375 54.6875 
L 12.5 54.6875 
L 29.59375 8.796875 
L 46.6875 54.6875 
L 56.203125 54.6875 
L 35.6875 0 
L 23.484375 0 
z
" id="DejaVuSans-118"/>
      <path d="M 9.421875 75.984375 
L 18.40625 75.984375 
L 18.40625 0 
L 9.421875 0 
z
" id="DejaVuSans-108"/>
      <path d="M 45.40625 46.390625 
L 45.40625 75.984375 
L 54.390625 75.984375 
L 54.390625 0 
L 45.40625 0 
L 45.40625 8.203125 
Q 42.578125 3.328125 38.25 0.953125 
Q 33.9375 -1.421875 27.875 -1.421875 
Q 17.96875 -1.421875 11.734375 6.484375 
Q 5.515625 14.40625 5.515625 27.296875 
Q 5.515625 40.1875 11.734375 48.09375 
Q 17.96875 56 27.875 56 
Q 33.9375 56 38.25 53.625 
Q 42.578125 51.265625 45.40625 46.390625 
z
M 14.796875 27.296875 
Q 14.796875 17.390625 18.875 11.75 
Q 22.953125 6.109375 30.078125 6.109375 
Q 37.203125 6.109375 41.296875 11.75 
Q 45.40625 17.390625 45.40625 27.296875 
Q 45.40625 37.203125 41.296875 42.84375 
Q 37.203125 48.484375 30.078125 48.484375 
Q 22.953125 48.484375 18.875 42.84375 
Q 14.796875 37.203125 14.796875 27.296875 
z
" id="DejaVuSans-100"/>
     </defs>
     <g transform="translate(127 74.476562)scale(0.1 -0.1)">
      <use xlink:href="#DejaVuSans-118"/>
      <use x="59.179688" xlink:href="#DejaVuSans-97"/>
      <use x="120.458984" xlink:href="#DejaVuSans-108"/>
      <use x="148.242188" xlink:href="#DejaVuSans-105"/>
      <use x="176.025391" xlink:href="#DejaVuSans-100"/>
      <use x="239.501953" xlink:href="#DejaVuSans-97"/>
      <use x="300.78125" xlink:href="#DejaVuSans-116"/>
      <use x="339.990234" xlink:href="#DejaVuSans-101"/>
     </g>
    </g>
   </g>
  </g>
 </g>
 <defs>
  <clipPath id="p0e5d64c16e">
   <rect height="271.8" width="558" x="90" y="43.2"/>
  </clipPath>
 </defs>
</svg>
